<?xml version="1.0" encoding="UTF-8" standalone="no"?>
<!DOCTYPE svg PUBLIC "-//W3C//DTD SVG 1.1//EN"
 "http://www.w3.org/Graphics/SVG/1.1/DTD/svg11.dtd">
<!-- Generated by graphviz version 2.40.1 (20161225.0304)
 -->
<!-- Title: AppDemoLoad.cpp Pages: 1 -->
<svg width="3680pt" height="192pt"
 viewBox="0.00 0.00 3680.25 192.00" xmlns="http://www.w3.org/2000/svg" xmlns:xlink="http://www.w3.org/1999/xlink">
<g id="graph0" class="graph" transform="scale(1 1) rotate(0) translate(4 188)">
<title>AppDemoLoad.cpp</title>
<polygon fill="#ffffff" stroke="transparent" points="-4,4 -4,-188 3676.2534,-188 3676.2534,4 -4,4"/>
<!-- Node1 -->
<g id="node1" class="node">
<title>Node1</title>
<g id="a_node1"><a xlink:title=" ">
<polygon fill="#bfbfbf" stroke="#000000" points="2407.9189,-165.5 2407.9189,-183.5 2509.5342,-183.5 2509.5342,-165.5 2407.9189,-165.5"/>
<text text-anchor="middle" x="2458.7266" y="-171.5" font-family="Arial.ttf" font-size="10.00" fill="#000000">AppDemoLoad.cpp</text>
</a>
</g>
</g>
<!-- Node2 -->
<g id="node2" class="node">
<title>Node2</title>
<g id="a_node2"><a xlink:href="stdafx_8h.html" target="_top" xlink:title=" ">
<polygon fill="#ffffff" stroke="#ff0000" points="673.2168,-110.5 673.2168,-128.5 724.2363,-128.5 724.2363,-110.5 673.2168,-110.5"/>
<text text-anchor="middle" x="698.7266" y="-116.5" font-family="Arial.ttf" font-size="10.00" fill="#000000">stdafx.h</text>
</a>
</g>
</g>
<!-- Node1&#45;&gt;Node2 -->
<g id="edge1" class="edge">
<title>Node1&#45;&gt;Node2</title>
<path fill="none" stroke="#191970" d="M2407.4798,-172.8985C2145.1853,-164.7018 956.6438,-127.5599 734.5364,-120.6191"/>
<polygon fill="#191970" stroke="#191970" points="734.5144,-117.1168 724.4099,-120.3026 734.2957,-124.1133 734.5144,-117.1168"/>
</g>
<!-- Node57 -->
<g id="node25" class="node">
<title>Node57</title>
<g id="a_node25"><a xlink:href="_s_l_application_8h.html" target="_top" xlink:title=" ">
<polygon fill="#ffffff" stroke="#ff0000" points="37.9805,-110.5 37.9805,-128.5 123.4727,-128.5 123.4727,-110.5 37.9805,-110.5"/>
<text text-anchor="middle" x="80.7266" y="-116.5" font-family="Arial.ttf" font-size="10.00" fill="#000000">SLApplication.h</text>
</a>
</g>
</g>
<!-- Node1&#45;&gt;Node57 -->
<g id="edge24" class="edge">
<title>Node1&#45;&gt;Node57</title>
<path fill="none" stroke="#191970" d="M2407.6817,-173.3194C2095.997,-166.1105 452.1246,-128.0899 134.0444,-120.7332"/>
<polygon fill="#191970" stroke="#191970" points="133.8014,-117.2267 123.7231,-120.4945 133.6394,-124.2248 133.8014,-117.2267"/>
</g>
<!-- Node73 -->
<g id="node26" class="node">
<title>Node73</title>
<g id="a_node26"><a xlink:href="_s_l_assimp_importer_8h.html" target="_top" xlink:title=" ">
<polygon fill="#ffffff" stroke="#ff0000" points="1535.707,-110.5 1535.707,-128.5 1641.7461,-128.5 1641.7461,-110.5 1535.707,-110.5"/>
<text text-anchor="middle" x="1588.7266" y="-116.5" font-family="Arial.ttf" font-size="10.00" fill="#000000">SLAssimpImporter.h</text>
</a>
</g>
</g>
<!-- Node1&#45;&gt;Node73 -->
<g id="edge27" class="edge">
<title>Node1&#45;&gt;Node73</title>
<path fill="none" stroke="#191970" d="M2407.5418,-173.3189C2281.122,-170.0369 1943.8224,-159.0584 1652.1396,-129.0472"/>
<polygon fill="#191970" stroke="#191970" points="1652.0913,-125.5234 1641.7832,-127.9715 1651.3681,-132.4859 1652.0913,-125.5234"/>
</g>
<!-- Node87 -->
<g id="node27" class="node">
<title>Node87</title>
<g id="a_node27"><a xlink:href="_s_l_scene_8h.html" target="_top" xlink:title=" ">
<polygon fill="#ffffff" stroke="#ff0000" points="1397.2637,-55.5 1397.2637,-73.5 1462.1895,-73.5 1462.1895,-55.5 1397.2637,-55.5"/>
<text text-anchor="middle" x="1429.7266" y="-61.5" font-family="Arial.ttf" font-size="10.00" fill="#000000">SLScene.h</text>
</a>
</g>
</g>
<!-- Node1&#45;&gt;Node87 -->
<g id="edge28" class="edge">
<title>Node1&#45;&gt;Node87</title>
<path fill="none" stroke="#191970" d="M2407.7682,-174.2781C2199.2713,-173.1247 1420.5027,-166.3239 1384.7266,-129 1370.1926,-113.8372 1389.3734,-93.6078 1406.999,-79.8755"/>
<polygon fill="#191970" stroke="#191970" points="1409.3971,-82.4561 1415.3721,-73.7068 1405.2451,-76.8204 1409.3971,-82.4561"/>
</g>
<!-- Node101 -->
<g id="node28" class="node">
<title>Node101</title>
<g id="a_node28"><a xlink:href="_s_l_scene_view_8h.html" target="_top" xlink:title=" ">
<polygon fill="#ffffff" stroke="#ff0000" points="1393.7876,-110.5 1393.7876,-128.5 1479.6655,-128.5 1479.6655,-110.5 1393.7876,-110.5"/>
<text text-anchor="middle" x="1436.7266" y="-116.5" font-family="Arial.ttf" font-size="10.00" fill="#000000">SLSceneView.h</text>
</a>
</g>
</g>
<!-- Node1&#45;&gt;Node101 -->
<g id="edge30" class="edge">
<title>Node1&#45;&gt;Node101</title>
<path fill="none" stroke="#191970" d="M2407.8202,-174.2126C2263.895,-172.9451 1841.8738,-166.0889 1493.7266,-129 1492.464,-128.8655 1491.1869,-128.7211 1489.8999,-128.568"/>
<polygon fill="#191970" stroke="#191970" points="1490.2855,-125.0886 1479.9131,-127.2479 1489.3682,-132.0283 1490.2855,-125.0886"/>
</g>
<!-- Node107 -->
<g id="node29" class="node">
<title>Node107</title>
<g id="a_node29"><a xlink:href="_s_l_skybox_8h.html" target="_top" xlink:title=" ">
<polygon fill="#ffffff" stroke="#ff0000" points="1480.0444,-55.5 1480.0444,-73.5 1549.4087,-73.5 1549.4087,-55.5 1480.0444,-55.5"/>
<text text-anchor="middle" x="1514.7266" y="-61.5" font-family="Arial.ttf" font-size="10.00" fill="#000000">SLSkybox.h</text>
</a>
</g>
</g>
<!-- Node1&#45;&gt;Node107 -->
<g id="edge51" class="edge">
<title>Node1&#45;&gt;Node107</title>
<path fill="none" stroke="#191970" d="M2407.7161,-173.7461C2217.6937,-170.7154 1560.1116,-158.1522 1526.7266,-129 1514.1469,-118.0153 1512.0408,-98.4546 1512.5374,-83.7453"/>
<polygon fill="#191970" stroke="#191970" points="1516.0356,-83.899 1513.2941,-73.6651 1509.0552,-83.3749 1516.0356,-83.899"/>
</g>
<!-- Node108 -->
<g id="node30" class="node">
<title>Node108</title>
<g id="a_node30"><a xlink:href="_s_l_box_8h.html" target="_top" xlink:title=" ">
<polygon fill="#ffffff" stroke="#ff0000" points="1659.8252,-110.5 1659.8252,-128.5 1713.6279,-128.5 1713.6279,-110.5 1659.8252,-110.5"/>
<text text-anchor="middle" x="1686.7266" y="-116.5" font-family="Arial.ttf" font-size="10.00" fill="#000000">SLBox.h</text>
</a>
</g>
</g>
<!-- Node1&#45;&gt;Node108 -->
<g id="edge33" class="edge">
<title>Node1&#45;&gt;Node108</title>
<path fill="none" stroke="#191970" d="M2407.8031,-172.6548C2266.9664,-167.3493 1873.3413,-151.1009 1723.6567,-128.7824"/>
<polygon fill="#191970" stroke="#191970" points="1724.1511,-125.3173 1713.7312,-127.2345 1723.0724,-132.2337 1724.1511,-125.3173"/>
</g>
<!-- Node109 -->
<g id="node31" class="node">
<title>Node109</title>
<g id="a_node31"><a xlink:href="_c_v_capture_8h.html" target="_top" xlink:title=" ">
<polygon fill="#ffffff" stroke="#ff0000" points="1731.8228,-110.5 1731.8228,-128.5 1805.6304,-128.5 1805.6304,-110.5 1731.8228,-110.5"/>
<text text-anchor="middle" x="1768.7266" y="-116.5" font-family="Arial.ttf" font-size="10.00" fill="#000000">CVCapture.h</text>
</a>
</g>
</g>
<!-- Node1&#45;&gt;Node109 -->
<g id="edge34" class="edge">
<title>Node1&#45;&gt;Node109</title>
<path fill="none" stroke="#191970" d="M2407.5618,-173.1974C2299.851,-169.9561 2041.7239,-159.5642 1815.8614,-128.9779"/>
<polygon fill="#191970" stroke="#191970" points="1816.1929,-125.4907 1805.8102,-127.6003 1815.2423,-132.4258 1816.1929,-125.4907"/>
</g>
<!-- Node112 -->
<g id="node32" class="node">
<title>Node112</title>
<g id="a_node32"><a xlink:href="_c_v_tracked_aruco_8h.html" target="_top" xlink:title=" ">
<polygon fill="#ffffff" stroke="#ff0000" points="1823.6709,-110.5 1823.6709,-128.5 1923.7822,-128.5 1923.7822,-110.5 1823.6709,-110.5"/>
<text text-anchor="middle" x="1873.7266" y="-116.5" font-family="Arial.ttf" font-size="10.00" fill="#000000">CVTrackedAruco.h</text>
</a>
</g>
</g>
<!-- Node1&#45;&gt;Node112 -->
<g id="edge35" class="edge">
<title>Node1&#45;&gt;Node112</title>
<path fill="none" stroke="#191970" d="M2407.8196,-171.3428C2315.505,-165.3459 2114.1293,-151.0185 1934.0903,-129.088"/>
<polygon fill="#191970" stroke="#191970" points="1934.2552,-125.582 1923.9029,-127.836 1933.4013,-132.5297 1934.2552,-125.582"/>
</g>
<!-- Node115 -->
<g id="node33" class="node">
<title>Node115</title>
<g id="a_node33"><a xlink:href="_c_v_tracked_chessboard_8h.html" target="_top" xlink:title=" ">
<polygon fill="#ffffff" stroke="#ff0000" points="1941.772,-110.5 1941.772,-128.5 2069.6812,-128.5 2069.6812,-110.5 1941.772,-110.5"/>
<text text-anchor="middle" x="2005.7266" y="-116.5" font-family="Arial.ttf" font-size="10.00" fill="#000000">CVTrackedChessboard.h</text>
</a>
</g>
</g>
<!-- Node1&#45;&gt;Node115 -->
<g id="edge36" class="edge">
<title>Node1&#45;&gt;Node115</title>
<path fill="none" stroke="#191970" d="M2407.6912,-168.5573C2336.6541,-160.2484 2203.6619,-144.5582 2079.853,-129.1308"/>
<polygon fill="#191970" stroke="#191970" points="2080.1724,-125.6436 2069.8159,-127.8781 2079.3055,-132.5897 2080.1724,-125.6436"/>
</g>
<!-- Node116 -->
<g id="node34" class="node">
<title>Node116</title>
<g id="a_node34"><a xlink:href="_c_v_tracked_faces_8h.html" target="_top" xlink:title=" ">
<polygon fill="#ffffff" stroke="#ff0000" points="2088.1167,-110.5 2088.1167,-128.5 2189.3364,-128.5 2189.3364,-110.5 2088.1167,-110.5"/>
<text text-anchor="middle" x="2138.7266" y="-116.5" font-family="Arial.ttf" font-size="10.00" fill="#000000">CVTrackedFaces.h</text>
</a>
</g>
</g>
<!-- Node1&#45;&gt;Node116 -->
<g id="edge37" class="edge">
<title>Node1&#45;&gt;Node116</title>
<path fill="none" stroke="#191970" d="M2407.6678,-165.7243C2351.0376,-155.991 2259.7326,-140.2979 2199.4732,-129.9408"/>
<polygon fill="#191970" stroke="#191970" points="2199.7878,-126.4437 2189.3394,-128.1991 2198.602,-133.3425 2199.7878,-126.4437"/>
</g>
<!-- Node117 -->
<g id="node35" class="node">
<title>Node117</title>
<g id="a_node35"><a xlink:href="_c_v_tracked_features_8h.html" target="_top" xlink:title=" ">
<polygon fill="#ffffff" stroke="#ff0000" points="2207.001,-110.5 2207.001,-128.5 2320.4521,-128.5 2320.4521,-110.5 2207.001,-110.5"/>
<text text-anchor="middle" x="2263.7266" y="-116.5" font-family="Arial.ttf" font-size="10.00" fill="#000000">CVTrackedFeatures.h</text>
</a>
</g>
</g>
<!-- Node1&#45;&gt;Node117 -->
<g id="edge38" class="edge">
<title>Node1&#45;&gt;Node117</title>
<path fill="none" stroke="#191970" d="M2426.5263,-165.4179C2393.402,-156.0751 2341.6678,-141.4834 2305.4317,-131.263"/>
<polygon fill="#191970" stroke="#191970" points="2306.2252,-127.8503 2295.6506,-128.5042 2304.3249,-134.5875 2306.2252,-127.8503"/>
</g>
<!-- Node120 -->
<g id="node36" class="node">
<title>Node120</title>
<g id="a_node36"><a xlink:href="_s_l_cone_8h.html" target="_top" xlink:title=" ">
<polygon fill="#ffffff" stroke="#ff0000" points="2338.4878,-110.5 2338.4878,-128.5 2398.9653,-128.5 2398.9653,-110.5 2338.4878,-110.5"/>
<text text-anchor="middle" x="2368.7266" y="-116.5" font-family="Arial.ttf" font-size="10.00" fill="#000000">SLCone.h</text>
</a>
</g>
</g>
<!-- Node1&#45;&gt;Node120 -->
<g id="edge39" class="edge">
<title>Node1&#45;&gt;Node120</title>
<path fill="none" stroke="#191970" d="M2443.8649,-165.4179C2429.9252,-156.8992 2408.8446,-144.0166 2392.5565,-134.0627"/>
<polygon fill="#191970" stroke="#191970" points="2393.9682,-130.8237 2383.6103,-128.5956 2390.3181,-136.7967 2393.9682,-130.8237"/>
</g>
<!-- Node122 -->
<g id="node37" class="node">
<title>Node122</title>
<g id="a_node37"><a xlink:href="_s_l_coord_axis_8h.html" target="_top" xlink:title=" ">
<polygon fill="#ffffff" stroke="#ff0000" points="2417.377,-110.5 2417.377,-128.5 2500.0762,-128.5 2500.0762,-110.5 2417.377,-110.5"/>
<text text-anchor="middle" x="2458.7266" y="-116.5" font-family="Arial.ttf" font-size="10.00" fill="#000000">SLCoordAxis.h</text>
</a>
</g>
</g>
<!-- Node1&#45;&gt;Node122 -->
<g id="edge40" class="edge">
<title>Node1&#45;&gt;Node122</title>
<path fill="none" stroke="#191970" d="M2458.7266,-165.4179C2458.7266,-158.2164 2458.7266,-147.8962 2458.7266,-138.8632"/>
<polygon fill="#191970" stroke="#191970" points="2462.2267,-138.7794 2458.7266,-128.7795 2455.2267,-138.7795 2462.2267,-138.7794"/>
</g>
<!-- Node123 -->
<g id="node38" class="node">
<title>Node123</title>
<g id="a_node38"><a xlink:href="_s_l_cylinder_8h.html" target="_top" xlink:title=" ">
<polygon fill="#ffffff" stroke="#ff0000" points="2518.3745,-110.5 2518.3745,-128.5 2591.0786,-128.5 2591.0786,-110.5 2518.3745,-110.5"/>
<text text-anchor="middle" x="2554.7266" y="-116.5" font-family="Arial.ttf" font-size="10.00" fill="#000000">SLCylinder.h</text>
</a>
</g>
</g>
<!-- Node1&#45;&gt;Node123 -->
<g id="edge41" class="edge">
<title>Node1&#45;&gt;Node123</title>
<path fill="none" stroke="#191970" d="M2474.579,-165.4179C2489.587,-156.8195 2512.355,-143.7754 2529.7938,-133.7844"/>
<polygon fill="#191970" stroke="#191970" points="2531.9136,-136.6037 2538.8506,-128.5956 2528.4338,-130.5299 2531.9136,-136.6037"/>
</g>
<!-- Node124 -->
<g id="node39" class="node">
<title>Node124</title>
<g id="a_node39"><a xlink:href="_s_l_disk_8h.html" target="_top" xlink:title=" ">
<polygon fill="#ffffff" stroke="#ff0000" points="2608.7192,-110.5 2608.7192,-128.5 2664.7339,-128.5 2664.7339,-110.5 2608.7192,-110.5"/>
<text text-anchor="middle" x="2636.7266" y="-116.5" font-family="Arial.ttf" font-size="10.00" fill="#000000">SLDisk.h</text>
</a>
</g>
</g>
<!-- Node1&#45;&gt;Node124 -->
<g id="edge42" class="edge">
<title>Node1&#45;&gt;Node124</title>
<path fill="none" stroke="#191970" d="M2488.1196,-165.4179C2518.3662,-156.072 2565.6116,-141.4737 2598.6902,-131.2528"/>
<polygon fill="#191970" stroke="#191970" points="2599.9456,-134.5283 2608.4666,-128.232 2597.879,-127.8402 2599.9456,-134.5283"/>
</g>
<!-- Node125 -->
<g id="node40" class="node">
<title>Node125</title>
<g id="a_node40"><a xlink:href="_s_l_grid_8h.html" target="_top" xlink:title=" ">
<polygon fill="#ffffff" stroke="#ff0000" points="2682.9951,-110.5 2682.9951,-128.5 2738.458,-128.5 2738.458,-110.5 2682.9951,-110.5"/>
<text text-anchor="middle" x="2710.7266" y="-116.5" font-family="Arial.ttf" font-size="10.00" fill="#000000">SLGrid.h</text>
</a>
</g>
</g>
<!-- Node1&#45;&gt;Node125 -->
<g id="edge43" class="edge">
<title>Node1&#45;&gt;Node125</title>
<path fill="none" stroke="#191970" d="M2504.1512,-165.4744C2545.6233,-157.1022 2608.8536,-144.0091 2672.9952,-129.0969"/>
<polygon fill="#191970" stroke="#191970" points="2673.9371,-132.4712 2682.8776,-126.7864 2672.3434,-125.655 2673.9371,-132.4712"/>
</g>
<!-- Node126 -->
<g id="node41" class="node">
<title>Node126</title>
<g id="a_node41"><a xlink:href="_s_l_lens_8h.html" target="_top" xlink:title=" ">
<polygon fill="#ffffff" stroke="#ff0000" points="2756.5986,-110.5 2756.5986,-128.5 2814.8545,-128.5 2814.8545,-110.5 2756.5986,-110.5"/>
<text text-anchor="middle" x="2785.7266" y="-116.5" font-family="Arial.ttf" font-size="10.00" fill="#000000">SLLens.h</text>
</a>
</g>
</g>
<!-- Node1&#45;&gt;Node126 -->
<g id="edge44" class="edge">
<title>Node1&#45;&gt;Node126</title>
<path fill="none" stroke="#191970" d="M2509.6105,-167.8825C2565.4382,-160.3112 2657.8721,-146.8646 2746.3906,-129.1357"/>
<polygon fill="#191970" stroke="#191970" points="2747.2203,-132.5388 2756.3269,-127.1239 2745.8312,-125.678 2747.2203,-132.5388"/>
</g>
<!-- Node59 -->
<g id="node42" class="node">
<title>Node59</title>
<g id="a_node42"><a xlink:href="_s_l_light_direct_8h.html" target="_top" xlink:title=" ">
<polygon fill="#ffffff" stroke="#ff0000" points="2832.542,-110.5 2832.542,-128.5 2916.9111,-128.5 2916.9111,-110.5 2832.542,-110.5"/>
<text text-anchor="middle" x="2874.7266" y="-116.5" font-family="Arial.ttf" font-size="10.00" fill="#000000">SLLightDirect.h</text>
</a>
</g>
</g>
<!-- Node1&#45;&gt;Node59 -->
<g id="edge45" class="edge">
<title>Node1&#45;&gt;Node59</title>
<path fill="none" stroke="#191970" d="M2509.6419,-169.1315C2578.3749,-161.6677 2704.878,-147.1687 2822.557,-129.1074"/>
<polygon fill="#191970" stroke="#191970" points="2823.1118,-132.5633 2832.4593,-127.5758 2822.0418,-125.6455 2823.1118,-132.5633"/>
</g>
<!-- Node127 -->
<g id="node43" class="node">
<title>Node127</title>
<g id="a_node43"><a xlink:href="_s_l_light_rect_8h.html" target="_top" xlink:title=" ">
<polygon fill="#ffffff" stroke="#ff0000" points="2935.3179,-110.5 2935.3179,-128.5 3014.1353,-128.5 3014.1353,-110.5 2935.3179,-110.5"/>
<text text-anchor="middle" x="2974.7266" y="-116.5" font-family="Arial.ttf" font-size="10.00" fill="#000000">SLLightRect.h</text>
</a>
</g>
</g>
<!-- Node1&#45;&gt;Node127 -->
<g id="edge46" class="edge">
<title>Node1&#45;&gt;Node127</title>
<path fill="none" stroke="#191970" d="M2509.7078,-171.1156C2593.912,-165.1798 2767.5145,-151.483 2924.8612,-128.9896"/>
<polygon fill="#191970" stroke="#191970" points="2925.8042,-132.3898 2935.2007,-127.4953 2924.8029,-125.4617 2925.8042,-132.3898"/>
</g>
<!-- Node128 -->
<g id="node44" class="node">
<title>Node128</title>
<g id="a_node44"><a xlink:href="_s_l_light_spot_8h.html" target="_top" xlink:title=" ">
<polygon fill="#ffffff" stroke="#ff0000" points="3032.313,-110.5 3032.313,-128.5 3111.1401,-128.5 3111.1401,-110.5 3032.313,-110.5"/>
<text text-anchor="middle" x="3071.7266" y="-116.5" font-family="Arial.ttf" font-size="10.00" fill="#000000">SLLightSpot.h</text>
</a>
</g>
</g>
<!-- Node1&#45;&gt;Node128 -->
<g id="edge47" class="edge">
<title>Node1&#45;&gt;Node128</title>
<path fill="none" stroke="#191970" d="M2509.8718,-172.2782C2607.4299,-167.6269 2826.9696,-155.1741 3022.0558,-128.9334"/>
<polygon fill="#191970" stroke="#191970" points="3022.7719,-132.3683 3032.2087,-127.5522 3021.8282,-125.4322 3022.7719,-132.3683"/>
</g>
<!-- Node129 -->
<g id="node45" class="node">
<title>Node129</title>
<g id="a_node45"><a xlink:href="_s_l_points_8h.html" target="_top" xlink:title=" ">
<polygon fill="#ffffff" stroke="#ff0000" points="3129.5444,-110.5 3129.5444,-128.5 3193.9087,-128.5 3193.9087,-110.5 3129.5444,-110.5"/>
<text text-anchor="middle" x="3161.7266" y="-116.5" font-family="Arial.ttf" font-size="10.00" fill="#000000">SLPoints.h</text>
</a>
</g>
</g>
<!-- Node1&#45;&gt;Node129 -->
<g id="edge48" class="edge">
<title>Node1&#45;&gt;Node129</title>
<path fill="none" stroke="#191970" d="M2509.5956,-173.6582C2619.2523,-171.2706 2886.112,-162.3815 3119.2358,-128.8232"/>
<polygon fill="#191970" stroke="#191970" points="3119.8693,-132.268 3129.2598,-127.3619 3118.8595,-125.3412 3119.8693,-132.268"/>
</g>
<!-- Node131 -->
<g id="node46" class="node">
<title>Node131</title>
<g id="a_node46"><a xlink:href="_s_l_polygon_8h.html" target="_top" xlink:title=" ">
<polygon fill="#ffffff" stroke="#ff0000" points="3212.3721,-110.5 3212.3721,-128.5 3285.0811,-128.5 3285.0811,-110.5 3212.3721,-110.5"/>
<text text-anchor="middle" x="3248.7266" y="-116.5" font-family="Arial.ttf" font-size="10.00" fill="#000000">SLPolygon.h</text>
</a>
</g>
</g>
<!-- Node1&#45;&gt;Node131 -->
<g id="edge49" class="edge">
<title>Node1&#45;&gt;Node131</title>
<path fill="none" stroke="#191970" d="M2509.9338,-173.8784C2629.4217,-171.889 2936.0143,-163.6706 3201.9121,-128.899"/>
<polygon fill="#191970" stroke="#191970" points="3202.6942,-132.3261 3212.1486,-127.5444 3201.7759,-125.3866 3202.6942,-132.3261"/>
</g>
<!-- Node132 -->
<g id="node47" class="node">
<title>Node132</title>
<g id="a_node47"><a xlink:href="_s_l_rectangle_8h.html" target="_top" xlink:title=" ">
<polygon fill="#ffffff" stroke="#ff0000" points="3302.9263,-110.5 3302.9263,-128.5 3384.5269,-128.5 3384.5269,-110.5 3302.9263,-110.5"/>
<text text-anchor="middle" x="3343.7266" y="-116.5" font-family="Arial.ttf" font-size="10.00" fill="#000000">SLRectangle.h</text>
</a>
</g>
</g>
<!-- Node1&#45;&gt;Node132 -->
<g id="edge50" class="edge">
<title>Node1&#45;&gt;Node132</title>
<path fill="none" stroke="#191970" d="M2509.7649,-174.0829C2639.0989,-172.5199 2990.2804,-165.1224 3292.5847,-128.9662"/>
<polygon fill="#191970" stroke="#191970" points="3293.3586,-132.3982 3302.8661,-127.723 3292.5183,-125.4488 3293.3586,-132.3982"/>
</g>
<!-- Node133 -->
<g id="node48" class="node">
<title>Node133</title>
<g id="a_node48"><a xlink:href="_s_l_sphere_8h.html" target="_top" xlink:title=" ">
<polygon fill="#ffffff" stroke="#ff0000" points="3402.3179,-110.5 3402.3179,-128.5 3471.1353,-128.5 3471.1353,-110.5 3402.3179,-110.5"/>
<text text-anchor="middle" x="3436.7266" y="-116.5" font-family="Arial.ttf" font-size="10.00" fill="#000000">SLSphere.h</text>
</a>
</g>
</g>
<!-- Node1&#45;&gt;Node133 -->
<g id="edge52" class="edge">
<title>Node1&#45;&gt;Node133</title>
<path fill="none" stroke="#191970" d="M2509.6679,-173.1558C2675.7144,-168.5993 3201.108,-152.7597 3391.8958,-128.9999"/>
<polygon fill="#191970" stroke="#191970" points="3392.615,-132.4361 3402.0825,-127.6804 3391.7157,-125.4941 3392.615,-132.4361"/>
</g>
<!-- Node135 -->
<g id="node49" class="node">
<title>Node135</title>
<g id="a_node49"><a xlink:href="_s_l_text_8h.html" target="_top" xlink:title=" ">
<polygon fill="#ffffff" stroke="#ff0000" points="3488.6396,-110.5 3488.6396,-128.5 3542.8135,-128.5 3542.8135,-110.5 3488.6396,-110.5"/>
<text text-anchor="middle" x="3515.7266" y="-116.5" font-family="Arial.ttf" font-size="10.00" fill="#000000">SLText.h</text>
</a>
</g>
</g>
<!-- Node1&#45;&gt;Node135 -->
<g id="edge53" class="edge">
<title>Node1&#45;&gt;Node135</title>
<path fill="none" stroke="#191970" d="M2509.6531,-173.6682C2685.9351,-170.5683 3270.271,-158.3954 3478.4157,-128.8389"/>
<polygon fill="#191970" stroke="#191970" points="3478.9553,-132.2973 3488.3361,-127.3728 3477.9318,-125.3725 3478.9553,-132.2973"/>
</g>
<!-- Node137 -->
<g id="node50" class="node">
<title>Node137</title>
<g id="a_node50"><a xlink:href="_s_l_transfer_function_8h.html" target="_top" xlink:title=" ">
<polygon fill="#ffffff" stroke="#ff0000" points="3561.1997,-110.5 3561.1997,-128.5 3672.2534,-128.5 3672.2534,-110.5 3561.1997,-110.5"/>
<text text-anchor="middle" x="3616.7266" y="-116.5" font-family="Arial.ttf" font-size="10.00" fill="#000000">SLTransferFunction.h</text>
</a>
</g>
</g>
<!-- Node1&#45;&gt;Node137 -->
<g id="edge54" class="edge">
<title>Node1&#45;&gt;Node137</title>
<path fill="none" stroke="#191970" d="M2509.793,-174.2502C2664.7782,-173.0933 3143.5191,-166.5804 3550.8887,-128.9672"/>
<polygon fill="#191970" stroke="#191970" points="3551.4705,-132.4282 3561.1029,-128.0161 3550.8214,-125.4584 3551.4705,-132.4282"/>
</g>
<!-- Node3 -->
<g id="node3" class="node">
<title>Node3</title>
<g id="a_node3"><a xlink:title=" ">
<polygon fill="#ffffff" stroke="#bfbfbf" points="600.1626,-55.5 600.1626,-73.5 657.2905,-73.5 657.2905,-55.5 600.1626,-55.5"/>
<text text-anchor="middle" x="628.7266" y="-61.5" font-family="Arial.ttf" font-size="10.00" fill="#000000">algorithm</text>
</a>
</g>
</g>
<!-- Node2&#45;&gt;Node3 -->
<g id="edge2" class="edge">
<title>Node2&#45;&gt;Node3</title>
<path fill="none" stroke="#191970" d="M687.1675,-110.4179C676.6926,-102.1876 661.0333,-89.8839 648.5602,-80.0836"/>
<polygon fill="#191970" stroke="#191970" points="650.5624,-77.2056 640.5368,-73.7795 646.2376,-82.7098 650.5624,-77.2056"/>
</g>
<!-- Node4 -->
<g id="node4" class="node">
<title>Node4</title>
<g id="a_node4"><a xlink:title=" ">
<polygon fill="#ffffff" stroke="#bfbfbf" points="0,-55.5 0,-73.5 45.4531,-73.5 45.4531,-55.5 0,-55.5"/>
<text text-anchor="middle" x="22.7266" y="-61.5" font-family="Arial.ttf" font-size="10.00" fill="#000000">atomic</text>
</a>
</g>
</g>
<!-- Node2&#45;&gt;Node4 -->
<g id="edge3" class="edge">
<title>Node2&#45;&gt;Node4</title>
<path fill="none" stroke="#191970" d="M673.0478,-118.4677C571.1984,-114.2562 194.8268,-97.5524 55.6035,-73.9311"/>
<polygon fill="#191970" stroke="#191970" points="56.0646,-70.4581 45.6049,-72.1448 54.8335,-77.349 56.0646,-70.4581"/>
</g>
<!-- Node5 -->
<g id="node5" class="node">
<title>Node5</title>
<g id="a_node5"><a xlink:title=" ">
<polygon fill="#ffffff" stroke="#bfbfbf" points="675.4385,-55.5 675.4385,-73.5 722.0146,-73.5 722.0146,-55.5 675.4385,-55.5"/>
<text text-anchor="middle" x="698.7266" y="-61.5" font-family="Arial.ttf" font-size="10.00" fill="#000000">chrono</text>
</a>
</g>
</g>
<!-- Node2&#45;&gt;Node5 -->
<g id="edge4" class="edge">
<title>Node2&#45;&gt;Node5</title>
<path fill="none" stroke="#191970" d="M698.7266,-110.4179C698.7266,-103.2164 698.7266,-92.8962 698.7266,-83.8632"/>
<polygon fill="#191970" stroke="#191970" points="702.2267,-83.7794 698.7266,-73.7795 695.2267,-83.7795 702.2267,-83.7794"/>
</g>
<!-- Node6 -->
<g id="node6" class="node">
<title>Node6</title>
<g id="a_node6"><a xlink:title=" ">
<polygon fill="#ffffff" stroke="#bfbfbf" points="740.3301,-55.5 740.3301,-73.5 789.123,-73.5 789.123,-55.5 740.3301,-55.5"/>
<text text-anchor="middle" x="764.7266" y="-61.5" font-family="Arial.ttf" font-size="10.00" fill="#000000">cstdarg</text>
</a>
</g>
</g>
<!-- Node2&#45;&gt;Node6 -->
<g id="edge5" class="edge">
<title>Node2&#45;&gt;Node6</title>
<path fill="none" stroke="#191970" d="M709.6251,-110.4179C719.4065,-102.2667 733.9824,-90.1201 745.6862,-80.3669"/>
<polygon fill="#191970" stroke="#191970" points="748.1496,-82.8701 753.5912,-73.7795 743.6683,-77.4926 748.1496,-82.8701"/>
</g>
<!-- Node7 -->
<g id="node7" class="node">
<title>Node7</title>
<g id="a_node7"><a xlink:title=" ">
<polygon fill="#ffffff" stroke="#bfbfbf" points="806.7808,-55.5 806.7808,-73.5 846.6724,-73.5 846.6724,-55.5 806.7808,-55.5"/>
<text text-anchor="middle" x="826.7266" y="-61.5" font-family="Arial.ttf" font-size="10.00" fill="#000000">ctime</text>
</a>
</g>
</g>
<!-- Node2&#45;&gt;Node7 -->
<g id="edge6" class="edge">
<title>Node2&#45;&gt;Node7</title>
<path fill="none" stroke="#191970" d="M719.8632,-110.4179C740.9572,-101.354 773.5487,-87.3499 797.1942,-77.1897"/>
<polygon fill="#191970" stroke="#191970" points="798.5988,-80.3956 806.4048,-73.232 795.8353,-73.9642 798.5988,-80.3956"/>
</g>
<!-- Node8 -->
<g id="node8" class="node">
<title>Node8</title>
<g id="a_node8"><a xlink:title=" ">
<polygon fill="#ffffff" stroke="#bfbfbf" points="865.0566,-55.5 865.0566,-73.5 914.3965,-73.5 914.3965,-55.5 865.0566,-55.5"/>
<text text-anchor="middle" x="889.7266" y="-61.5" font-family="Arial.ttf" font-size="10.00" fill="#000000">fstream</text>
</a>
</g>
</g>
<!-- Node2&#45;&gt;Node8 -->
<g id="edge7" class="edge">
<title>Node2&#45;&gt;Node8</title>
<path fill="none" stroke="#191970" d="M724.4857,-112.0825C758.1789,-102.3802 817.3377,-85.345 854.9743,-74.5072"/>
<polygon fill="#191970" stroke="#191970" points="856.3389,-77.7565 864.9799,-71.626 854.4019,-71.0299 856.3389,-77.7565"/>
</g>
<!-- Node9 -->
<g id="node9" class="node">
<title>Node9</title>
<g id="a_node9"><a xlink:title=" ">
<polygon fill="#ffffff" stroke="#bfbfbf" points="932.3228,-55.5 932.3228,-73.5 991.1304,-73.5 991.1304,-55.5 932.3228,-55.5"/>
<text text-anchor="middle" x="961.7266" y="-61.5" font-family="Arial.ttf" font-size="10.00" fill="#000000">functional</text>
</a>
</g>
</g>
<!-- Node2&#45;&gt;Node9 -->
<g id="edge8" class="edge">
<title>Node2&#45;&gt;Node9</title>
<path fill="none" stroke="#191970" d="M724.4524,-114.6921C764.6162,-107.101 844.8731,-91.593 922.374,-74.234"/>
<polygon fill="#191970" stroke="#191970" points="923.3139,-77.61 932.2996,-71.997 921.7748,-70.7813 923.3139,-77.61"/>
</g>
<!-- Node10 -->
<g id="node10" class="node">
<title>Node10</title>
<g id="a_node10"><a xlink:title=" ">
<polygon fill="#ffffff" stroke="#bfbfbf" points="1009.2168,-55.5 1009.2168,-73.5 1060.2363,-73.5 1060.2363,-55.5 1009.2168,-55.5"/>
<text text-anchor="middle" x="1034.7266" y="-61.5" font-family="Arial.ttf" font-size="10.00" fill="#000000">iomanip</text>
</a>
</g>
</g>
<!-- Node2&#45;&gt;Node10 -->
<g id="edge9" class="edge">
<title>Node2&#45;&gt;Node10</title>
<path fill="none" stroke="#191970" d="M724.2735,-116.6446C774.8187,-110.781 891.2847,-96.2079 999.1225,-73.9056"/>
<polygon fill="#191970" stroke="#191970" points="1000.1255,-77.2715 1009.1947,-71.7943 998.6893,-70.4204 1000.1255,-77.2715"/>
</g>
<!-- Node11 -->
<g id="node11" class="node">
<title>Node11</title>
<g id="a_node11"><a xlink:title=" ">
<polygon fill="#ffffff" stroke="#bfbfbf" points="1078.5542,-55.5 1078.5542,-73.5 1132.8989,-73.5 1132.8989,-55.5 1078.5542,-55.5"/>
<text text-anchor="middle" x="1105.7266" y="-61.5" font-family="Arial.ttf" font-size="10.00" fill="#000000">iostream</text>
</a>
</g>
</g>
<!-- Node2&#45;&gt;Node11 -->
<g id="edge10" class="edge">
<title>Node2&#45;&gt;Node11</title>
<path fill="none" stroke="#191970" d="M724.5523,-117.5496C783.7238,-112.8231 933.7561,-99.3758 1068.2326,-74.0714"/>
<polygon fill="#191970" stroke="#191970" points="1069.1316,-77.4631 1078.2976,-72.1493 1067.8185,-70.5873 1069.1316,-77.4631"/>
</g>
<!-- Node12 -->
<g id="node12" class="node">
<title>Node12</title>
<g id="a_node12"><a xlink:title=" ">
<polygon fill="#ffffff" stroke="#bfbfbf" points="1151.2266,-55.5 1151.2266,-73.5 1180.2266,-73.5 1180.2266,-55.5 1151.2266,-55.5"/>
<text text-anchor="middle" x="1165.3374" y="-61.5" font-family="Arial.ttf" font-size="10.00" fill="#000000">list</text>
</a>
</g>
</g>
<!-- Node2&#45;&gt;Node12 -->
<g id="edge11" class="edge">
<title>Node2&#45;&gt;Node12</title>
<path fill="none" stroke="#191970" d="M724.3838,-117.7936C803.5869,-112.3855 1044.2238,-94.8667 1141.4424,-73.2874"/>
<polygon fill="#191970" stroke="#191970" points="1142.2831,-76.6853 1151.2115,-70.9815 1140.6749,-69.8725 1142.2831,-76.6853"/>
</g>
<!-- Node13 -->
<g id="node13" class="node">
<title>Node13</title>
<g id="a_node13"><a xlink:title=" ">
<polygon fill="#ffffff" stroke="#bfbfbf" points="63,-55.5 63,-73.5 98.4531,-73.5 98.4531,-55.5 63,-55.5"/>
<text text-anchor="middle" x="80.7266" y="-61.5" font-family="Arial.ttf" font-size="10.00" fill="#000000">map</text>
</a>
</g>
</g>
<!-- Node2&#45;&gt;Node13 -->
<g id="edge12" class="edge">
<title>Node2&#45;&gt;Node13</title>
<path fill="none" stroke="#191970" d="M673.1876,-118.4231C577.1391,-114.2393 236.9725,-98.1813 108.5106,-73.5262"/>
<polygon fill="#191970" stroke="#191970" points="109.0451,-70.0634 98.5487,-71.5043 107.6526,-76.9236 109.0451,-70.0634"/>
</g>
<!-- Node14 -->
<g id="node14" class="node">
<title>Node14</title>
<g id="a_node14"><a xlink:title=" ">
<polygon fill="#ffffff" stroke="#bfbfbf" points="1197.8228,-55.5 1197.8228,-73.5 1241.6304,-73.5 1241.6304,-55.5 1197.8228,-55.5"/>
<text text-anchor="middle" x="1219.7266" y="-61.5" font-family="Arial.ttf" font-size="10.00" fill="#000000">queue</text>
</a>
</g>
</g>
<!-- Node2&#45;&gt;Node14 -->
<g id="edge13" class="edge">
<title>Node2&#45;&gt;Node14</title>
<path fill="none" stroke="#191970" d="M724.4969,-118.9604C796.485,-117.0644 1005.8011,-108.8978 1187.5138,-73.8641"/>
<polygon fill="#191970" stroke="#191970" points="1188.3751,-77.262 1197.5146,-71.903 1187.028,-70.3928 1188.3751,-77.262"/>
</g>
<!-- Node15 -->
<g id="node15" class="node">
<title>Node15</title>
<g id="a_node15"><a xlink:title=" ">
<polygon fill="#ffffff" stroke="#bfbfbf" points="1259.7734,-55.5 1259.7734,-73.5 1309.6797,-73.5 1309.6797,-55.5 1259.7734,-55.5"/>
<text text-anchor="middle" x="1284.7266" y="-61.5" font-family="Arial.ttf" font-size="10.00" fill="#000000">random</text>
</a>
</g>
</g>
<!-- Node2&#45;&gt;Node15 -->
<g id="edge14" class="edge">
<title>Node2&#45;&gt;Node15</title>
<path fill="none" stroke="#191970" d="M724.2581,-119.117C801.9603,-117.5907 1042.3947,-110.2011 1249.7508,-73.8485"/>
<polygon fill="#191970" stroke="#191970" points="1250.3673,-77.2938 1259.5991,-72.0954 1249.1405,-70.4022 1250.3673,-77.2938"/>
</g>
<!-- Node16 -->
<g id="node16" class="node">
<title>Node16</title>
<g id="a_node16"><a xlink:title=" ">
<polygon fill="#ffffff" stroke="#bfbfbf" points="1327.9458,-55.5 1327.9458,-73.5 1379.5073,-73.5 1379.5073,-55.5 1327.9458,-55.5"/>
<text text-anchor="middle" x="1353.7266" y="-61.5" font-family="Arial.ttf" font-size="10.00" fill="#000000">sstream</text>
</a>
</g>
</g>
<!-- Node2&#45;&gt;Node16 -->
<g id="edge15" class="edge">
<title>Node2&#45;&gt;Node16</title>
<path fill="none" stroke="#191970" d="M724.4209,-118.2734C823.6418,-113.4374 1182.5565,-95.0012 1317.754,-73.7798"/>
<polygon fill="#191970" stroke="#191970" points="1318.5583,-77.1945 1327.8565,-72.1157 1317.4206,-70.2876 1318.5583,-77.1945"/>
</g>
<!-- Node17 -->
<g id="node17" class="node">
<title>Node17</title>
<g id="a_node17"><a xlink:title=" ">
<polygon fill="#ffffff" stroke="#bfbfbf" points="116.5,-55.5 116.5,-73.5 156.9531,-73.5 156.9531,-55.5 116.5,-55.5"/>
<text text-anchor="middle" x="136.7266" y="-61.5" font-family="Arial.ttf" font-size="10.00" fill="#000000">string</text>
</a>
</g>
</g>
<!-- Node2&#45;&gt;Node17 -->
<g id="edge16" class="edge">
<title>Node2&#45;&gt;Node17</title>
<path fill="none" stroke="#191970" d="M672.9025,-118.0895C582.9475,-113.0564 282.9908,-95.2379 167.1392,-73.7952"/>
<polygon fill="#191970" stroke="#191970" points="167.6495,-70.3288 157.1636,-71.8441 166.3057,-77.1986 167.6495,-70.3288"/>
</g>
<!-- Node18 -->
<g id="node18" class="node">
<title>Node18</title>
<g id="a_node18"><a xlink:title=" ">
<polygon fill="#ffffff" stroke="#bfbfbf" points="174.5493,-55.5 174.5493,-73.5 218.9038,-73.5 218.9038,-55.5 174.5493,-55.5"/>
<text text-anchor="middle" x="196.7266" y="-61.5" font-family="Arial.ttf" font-size="10.00" fill="#000000">thread</text>
</a>
</g>
</g>
<!-- Node2&#45;&gt;Node18 -->
<g id="edge17" class="edge">
<title>Node2&#45;&gt;Node18</title>
<path fill="none" stroke="#191970" d="M673.1912,-118.8336C603.3177,-116.6322 403.1198,-107.7941 228.7986,-73.8453"/>
<polygon fill="#191970" stroke="#191970" points="229.43,-70.4025 218.9405,-71.8928 228.0699,-77.2691 229.43,-70.4025"/>
</g>
<!-- Node19 -->
<g id="node19" class="node">
<title>Node19</title>
<g id="a_node19"><a xlink:title=" ">
<polygon fill="#ffffff" stroke="#bfbfbf" points="237.2144,-55.5 237.2144,-73.5 288.2388,-73.5 288.2388,-55.5 237.2144,-55.5"/>
<text text-anchor="middle" x="262.7266" y="-61.5" font-family="Arial.ttf" font-size="10.00" fill="#000000">typeinfo</text>
</a>
</g>
</g>
<!-- Node2&#45;&gt;Node19 -->
<g id="edge18" class="edge">
<title>Node2&#45;&gt;Node19</title>
<path fill="none" stroke="#191970" d="M673.0944,-117.6165C609.8502,-112.7392 441.432,-98.3511 302.7266,-74 301.2766,-73.7454 299.8006,-73.4702 298.3123,-73.1794"/>
<polygon fill="#191970" stroke="#191970" points="298.9629,-69.7396 288.4539,-71.0852 297.5083,-76.5868 298.9629,-69.7396"/>
</g>
<!-- Node20 -->
<g id="node20" class="node">
<title>Node20</title>
<g id="a_node20"><a xlink:title=" ">
<polygon fill="#ffffff" stroke="#bfbfbf" points="851.1108,-.5 851.1108,-18.5 894.3423,-18.5 894.3423,-.5 851.1108,-.5"/>
<text text-anchor="middle" x="872.7266" y="-6.5" font-family="Arial.ttf" font-size="10.00" fill="#000000">vector</text>
</a>
</g>
</g>
<!-- Node2&#45;&gt;Node20 -->
<g id="edge19" class="edge">
<title>Node2&#45;&gt;Node20</title>
<path fill="none" stroke="#191970" d="M673.0597,-119.033C582.9095,-116.9507 288.6835,-106.1975 335.7266,-55 369.9965,-17.7036 730.5008,-10.948 840.8252,-9.7515"/>
<polygon fill="#191970" stroke="#191970" points="841.0286,-13.2497 850.993,-9.6495 840.9584,-6.2501 841.0286,-13.2497"/>
</g>
<!-- Node21 -->
<g id="node21" class="node">
<title>Node21</title>
<g id="a_node21"><a xlink:title=" ">
<polygon fill="#ffffff" stroke="#bfbfbf" points="344.6699,-55.5 344.6699,-73.5 396.7832,-73.5 396.7832,-55.5 344.6699,-55.5"/>
<text text-anchor="middle" x="370.7266" y="-61.5" font-family="Arial.ttf" font-size="10.00" fill="#000000">memory</text>
</a>
</g>
</g>
<!-- Node2&#45;&gt;Node21 -->
<g id="edge20" class="edge">
<title>Node2&#45;&gt;Node21</title>
<path fill="none" stroke="#191970" d="M673.0779,-116.49C623.5121,-110.4661 510.9858,-95.7842 407.0524,-74.0946"/>
<polygon fill="#191970" stroke="#191970" points="407.5314,-70.6185 397.0236,-71.9738 406.083,-77.4671 407.5314,-70.6185"/>
</g>
<!-- Node22 -->
<g id="node22" class="node">
<title>Node22</title>
<g id="a_node22"><a xlink:title=" ">
<polygon fill="#ffffff" stroke="#bfbfbf" points="414.6108,-55.5 414.6108,-73.5 462.8423,-73.5 462.8423,-55.5 414.6108,-55.5"/>
<text text-anchor="middle" x="438.7266" y="-61.5" font-family="Arial.ttf" font-size="10.00" fill="#000000">cassert</text>
</a>
</g>
</g>
<!-- Node2&#45;&gt;Node22 -->
<g id="edge21" class="edge">
<title>Node2&#45;&gt;Node22</title>
<path fill="none" stroke="#191970" d="M673.0429,-115.0652C632.5449,-107.9197 551.1984,-92.9496 473.1656,-74.2066"/>
<polygon fill="#191970" stroke="#191970" points="473.7183,-70.7392 463.1749,-71.7813 472.0669,-77.5416 473.7183,-70.7392"/>
</g>
<!-- Node23 -->
<g id="node23" class="node">
<title>Node23</title>
<g id="a_node23"><a xlink:title=" ">
<polygon fill="#ffffff" stroke="#bfbfbf" points="480.7759,-55.5 480.7759,-73.5 520.6772,-73.5 520.6772,-55.5 480.7759,-55.5"/>
<text text-anchor="middle" x="500.7266" y="-61.5" font-family="Arial.ttf" font-size="10.00" fill="#000000">cfloat</text>
</a>
</g>
</g>
<!-- Node2&#45;&gt;Node23 -->
<g id="edge22" class="edge">
<title>Node2&#45;&gt;Node23</title>
<path fill="none" stroke="#191970" d="M673.1248,-113.0628C641.7303,-105.0707 586.6936,-90.7428 530.6896,-74.1792"/>
<polygon fill="#191970" stroke="#191970" points="531.5476,-70.7828 520.9646,-71.2828 529.5495,-77.4916 531.5476,-70.7828"/>
</g>
<!-- Node24 -->
<g id="node24" class="node">
<title>Node24</title>
<g id="a_node24"><a xlink:title=" ">
<polygon fill="#ffffff" stroke="#bfbfbf" points="538.8398,-55.5 538.8398,-73.5 582.6133,-73.5 582.6133,-55.5 538.8398,-55.5"/>
<text text-anchor="middle" x="560.7266" y="-61.5" font-family="Arial.ttf" font-size="10.00" fill="#000000">climits</text>
</a>
</g>
</g>
<!-- Node2&#45;&gt;Node24 -->
<g id="edge23" class="edge">
<title>Node2&#45;&gt;Node24</title>
<path fill="none" stroke="#191970" d="M675.9387,-110.4179C653.0955,-101.3137 617.7464,-87.2253 592.2268,-77.0544"/>
<polygon fill="#191970" stroke="#191970" points="593.2212,-73.6831 582.636,-73.232 590.6295,-80.1857 593.2212,-73.6831"/>
</g>
<!-- Node57&#45;&gt;Node4 -->
<g id="edge25" class="edge">
<title>Node57&#45;&gt;Node4</title>
<path fill="none" stroke="#191970" d="M71.149,-110.4179C62.7202,-102.425 50.24,-90.5903 40.0609,-80.9377"/>
<polygon fill="#191970" stroke="#191970" points="42.1768,-78.1207 32.5122,-73.7795 37.3601,-83.2001 42.1768,-78.1207"/>
</g>
<!-- Node57&#45;&gt;Node13 -->
<g id="edge26" class="edge">
<title>Node57&#45;&gt;Node13</title>
<path fill="none" stroke="#191970" d="M80.7266,-110.4179C80.7266,-103.2164 80.7266,-92.8962 80.7266,-83.8632"/>
<polygon fill="#191970" stroke="#191970" points="84.2267,-83.7794 80.7266,-73.7795 77.2267,-83.7795 84.2267,-83.7794"/>
</g>
<!-- Node87&#45;&gt;Node20 -->
<g id="edge29" class="edge">
<title>Node87&#45;&gt;Node20</title>
<path fill="none" stroke="#191970" d="M1397.1337,-56.5151C1394.2999,-55.9525 1391.4686,-55.4364 1388.7266,-55 1206.8328,-26.0528 985.7206,-14.3008 904.5582,-10.7582"/>
<polygon fill="#191970" stroke="#191970" points="904.6285,-7.2581 894.4887,-10.3298 904.3309,-14.2518 904.6285,-7.2581"/>
</g>
<!-- Node101&#45;&gt;Node87 -->
<g id="edge31" class="edge">
<title>Node101&#45;&gt;Node87</title>
<path fill="none" stroke="#191970" d="M1435.5707,-110.4179C1434.6541,-103.2164 1433.3406,-92.8962 1432.191,-83.8632"/>
<polygon fill="#191970" stroke="#191970" points="1435.6422,-83.2575 1430.9076,-73.7795 1428.6982,-84.1414 1435.6422,-83.2575"/>
</g>
<!-- Node101&#45;&gt;Node107 -->
<g id="edge32" class="edge">
<title>Node101&#45;&gt;Node107</title>
<path fill="none" stroke="#191970" d="M1449.6067,-110.4179C1461.462,-102.0584 1479.2768,-89.4966 1493.2781,-79.6239"/>
<polygon fill="#191970" stroke="#191970" points="1495.6717,-82.2188 1501.8273,-73.5956 1491.6377,-76.498 1495.6717,-82.2188"/>
</g>
</g>
</svg>
