<?xml version="1.0" encoding="UTF-8" standalone="no"?>
<!DOCTYPE svg PUBLIC "-//W3C//DTD SVG 1.1//EN"
 "http://www.w3.org/Graphics/SVG/1.1/DTD/svg11.dtd">
<!-- Generated by graphviz version 2.40.1 (20161225.0304)
 -->
<!-- Title: Averaged.h Pages: 1 -->
<svg width="122pt" height="84pt"
 viewBox="0.00 0.00 122.00 84.00" xmlns="http://www.w3.org/2000/svg" xmlns:xlink="http://www.w3.org/1999/xlink">
<g id="graph0" class="graph" transform="scale(1 1) rotate(0) translate(4 80)">
<title>Averaged.h</title>
<polygon fill="#ffffff" stroke="transparent" points="-4,4 -4,-80 118,-80 118,4 -4,4"/>
<!-- Node1 -->
<g id="node1" class="node">
<title>Node1</title>
<g id="a_node1"><a xlink:title=" ">
<polygon fill="#bfbfbf" stroke="#000000" points="21,-56.5 21,-75.5 89,-75.5 89,-56.5 21,-56.5"/>
<text text-anchor="middle" x="55" y="-63.5" font-family="Arial.ttf" font-size="10.00" fill="#000000">Averaged.h</text>
</a>
</g>
</g>
<!-- Node2 -->
<g id="node2" class="node">
<title>Node2</title>
<g id="a_node2"><a xlink:title=" ">
<polygon fill="#ffffff" stroke="#bfbfbf" points="0,-.5 0,-19.5 44,-19.5 44,-.5 0,-.5"/>
<text text-anchor="middle" x="22" y="-7.5" font-family="Arial.ttf" font-size="10.00" fill="#000000">vector</text>
</a>
</g>
</g>
<!-- Node1&#45;&gt;Node2 -->
<g id="edge1" class="edge">
<title>Node1&#45;&gt;Node2</title>
<path fill="none" stroke="#191970" d="M49.2518,-56.2455C44.7565,-48.617 38.3752,-37.7881 32.9175,-28.5267"/>
<polygon fill="#191970" stroke="#191970" points="35.7747,-26.4811 27.6823,-19.6427 29.7439,-30.035 35.7747,-26.4811"/>
</g>
<!-- Node3 -->
<g id="node3" class="node">
<title>Node3</title>
<g id="a_node3"><a xlink:title=" ">
<polygon fill="#ffffff" stroke="#bfbfbf" points="62,-.5 62,-19.5 114,-19.5 114,-.5 62,-.5"/>
<text text-anchor="middle" x="88" y="-7.5" font-family="Arial.ttf" font-size="10.00" fill="#000000">assert.h</text>
</a>
</g>
</g>
<!-- Node1&#45;&gt;Node3 -->
<g id="edge2" class="edge">
<title>Node1&#45;&gt;Node3</title>
<path fill="none" stroke="#191970" d="M60.7482,-56.2455C65.2435,-48.617 71.6248,-37.7881 77.0825,-28.5267"/>
<polygon fill="#191970" stroke="#191970" points="80.2561,-30.035 82.3177,-19.6427 74.2253,-26.4811 80.2561,-30.035"/>
</g>
</g>
</svg>
