<?xml version="1.0" encoding="UTF-8" standalone="no"?>
<!DOCTYPE svg PUBLIC "-//W3C//DTD SVG 1.1//EN"
 "http://www.w3.org/Graphics/SVG/1.1/DTD/svg11.dtd">
<!-- Generated by graphviz version 8.0.5 (20230430.1635)
 -->
<!-- Title: AverageTiming.h Pages: 1 -->
<svg width="670pt" height="86pt"
 viewBox="0.00 0.00 670.25 86.00" xmlns="http://www.w3.org/2000/svg" xmlns:xlink="http://www.w3.org/1999/xlink">
<g id="graph0" class="graph" transform="scale(1 1) rotate(0) translate(4 82)">
<title>AverageTiming.h</title>
<polygon fill="white" stroke="none" points="-4,4 -4,-82 666.25,-82 666.25,4 -4,4"/>
<!-- Node1 -->
<g id="node1" class="node">
<title>Node1</title>
<g id="a_node1"><a xlink:title=" ">
<polygon fill="#bfbfbf" stroke="black" points="284.88,-57.5 284.88,-77.5 374.38,-77.5 374.38,-57.5 284.88,-57.5"/>
<text text-anchor="middle" x="329.62" y="-64" font-family="Arial" font-size="10.00">AverageTiming.h</text>
</a>
</g>
</g>
<!-- Node2 -->
<g id="node2" class="node">
<title>Node2</title>
<g id="a_node2"><a xlink:href="_app_demo_gui_8cpp.html" target="_top" xlink:title=" ">
<polygon fill="white" stroke="black" points="0,-0.5 0,-20.5 93.25,-20.5 93.25,-0.5 0,-0.5"/>
<text text-anchor="middle" x="46.62" y="-7" font-family="Arial" font-size="10.00">AppDemoGui.cpp</text>
</a>
</g>
</g>
<!-- Node1&#45;&gt;Node2 -->
<g id="edge1" class="edge">
<title>Node1&#45;&gt;Node2</title>
<path fill="none" stroke="midnightblue" d="M274.54,-55.8C221.6,-45.51 142.5,-30.13 92.77,-20.47"/>
<polygon fill="midnightblue" stroke="midnightblue" points="273.61,-59.37 284.09,-57.85 274.95,-52.5 273.61,-59.37"/>
</g>
<!-- Node3 -->
<g id="node3" class="node">
<title>Node3</title>
<g id="a_node3"><a xlink:href="_average_timing_8cpp.html" target="_top" xlink:title=" ">
<polygon fill="white" stroke="black" points="111.62,-0.5 111.62,-20.5 211.62,-20.5 211.62,-0.5 111.62,-0.5"/>
<text text-anchor="middle" x="161.62" y="-7" font-family="Arial" font-size="10.00">AverageTiming.cpp</text>
</a>
</g>
</g>
<!-- Node1&#45;&gt;Node3 -->
<g id="edge2" class="edge">
<title>Node1&#45;&gt;Node3</title>
<path fill="none" stroke="midnightblue" d="M292.18,-54.24C260.9,-44 217.04,-29.64 188.98,-20.46"/>
<polygon fill="midnightblue" stroke="midnightblue" points="290.67,-57.76 301.26,-57.54 292.84,-51.1 290.67,-57.76"/>
</g>
<!-- Node4 -->
<g id="node4" class="node">
<title>Node4</title>
<g id="a_node4"><a xlink:href="_w_a_i_frame_8cpp.html" target="_top" xlink:title=" ">
<polygon fill="white" stroke="black" points="230,-0.5 230,-20.5 311.25,-20.5 311.25,-0.5 230,-0.5"/>
<text text-anchor="middle" x="270.62" y="-7" font-family="Arial" font-size="10.00">WAIFrame.cpp</text>
</a>
</g>
</g>
<!-- Node1&#45;&gt;Node4 -->
<g id="edge3" class="edge">
<title>Node1&#45;&gt;Node4</title>
<path fill="none" stroke="midnightblue" d="M312.11,-50.17C301.7,-40.46 288.88,-28.52 280.28,-20.5"/>
<polygon fill="midnightblue" stroke="midnightblue" points="309.44,-52.4 319.15,-56.66 314.22,-47.28 309.44,-52.4"/>
</g>
<!-- Node5 -->
<g id="node5" class="node">
<title>Node5</title>
<g id="a_node5"><a xlink:href="_w_a_i_mode_orb_slam2_8cpp.html" target="_top" xlink:title=" ">
<polygon fill="white" stroke="black" points="329.12,-0.5 329.12,-20.5 450.12,-20.5 450.12,-0.5 329.12,-0.5"/>
<text text-anchor="middle" x="389.62" y="-7" font-family="Arial" font-size="10.00">WAIModeOrbSlam2.cpp</text>
</a>
</g>
</g>
<!-- Node1&#45;&gt;Node5 -->
<g id="edge4" class="edge">
<title>Node1&#45;&gt;Node5</title>
<path fill="none" stroke="midnightblue" d="M347.12,-50.46C357.77,-40.7 370.97,-28.6 379.81,-20.5"/>
<polygon fill="midnightblue" stroke="midnightblue" points="345.27,-47.33 340.27,-56.66 350,-52.49 345.27,-47.33"/>
</g>
<!-- Node6 -->
<g id="node6" class="node">
<title>Node6</title>
<g id="a_node6"><a xlink:href="_w_a_i_slam_8cpp.html" target="_top" xlink:title=" ">
<polygon fill="white" stroke="black" points="468.62,-0.5 468.62,-20.5 544.62,-20.5 544.62,-0.5 468.62,-0.5"/>
<text text-anchor="middle" x="506.62" y="-7" font-family="Arial" font-size="10.00">WAISlam.cpp</text>
</a>
</g>
</g>
<!-- Node1&#45;&gt;Node6 -->
<g id="edge5" class="edge">
<title>Node1&#45;&gt;Node6</title>
<path fill="none" stroke="midnightblue" d="M368.65,-54.37C401.63,-44.13 448.11,-29.68 477.81,-20.46"/>
<polygon fill="midnightblue" stroke="midnightblue" points="367.97,-51.23 359.46,-57.54 370.05,-57.92 367.97,-51.23"/>
</g>
<!-- Node7 -->
<g id="node7" class="node">
<title>Node7</title>
<g id="a_node7"><a xlink:href="_w_a_i_slam_tools_8cpp.html" target="_top" xlink:title=" ">
<polygon fill="white" stroke="black" points="563,-0.5 563,-20.5 662.25,-20.5 662.25,-0.5 563,-0.5"/>
<text text-anchor="middle" x="612.62" y="-7" font-family="Arial" font-size="10.00">WAISlamTools.cpp</text>
</a>
</g>
</g>
<!-- Node1&#45;&gt;Node7 -->
<g id="edge6" class="edge">
<title>Node1&#45;&gt;Node7</title>
<path fill="none" stroke="midnightblue" d="M384.71,-55.8C437.65,-45.51 516.75,-30.13 566.48,-20.47"/>
<polygon fill="midnightblue" stroke="midnightblue" points="384.3,-52.5 375.16,-57.85 385.64,-59.37 384.3,-52.5"/>
</g>
</g>
</svg>
