<?xml version="1.0" encoding="UTF-8" standalone="no"?>
<!DOCTYPE svg PUBLIC "-//W3C//DTD SVG 1.1//EN"
 "http://www.w3.org/Graphics/SVG/1.1/DTD/svg11.dtd">
<!-- Generated by graphviz version 2.36.0 (20140111.2315)
 -->
<!-- Title: CVTrackedAruco.cpp Pages: 1 -->
<svg width="909pt" height="308pt"
 viewBox="0.00 0.00 909.00 308.00" xmlns="http://www.w3.org/2000/svg" xmlns:xlink="http://www.w3.org/1999/xlink">
<g id="graph0" class="graph" transform="scale(1 1) rotate(0) translate(4 304)">
<title>CVTrackedAruco.cpp</title>
<polygon fill="white" stroke="none" points="-4,4 -4,-304 905,-304 905,4 -4,4"/>
<!-- Node1 -->
<g id="node1" class="node"><title>Node1</title>
<polygon fill="#bfbfbf" stroke="black" points="565,-280.5 565,-299.5 677,-299.5 677,-280.5 565,-280.5"/>
<text text-anchor="middle" x="621" y="-287.5" font-family="Arial.ttf" font-size="10.00">CVTrackedAruco.cpp</text>
</g>
<!-- Node2 -->
<g id="node2" class="node"><title>Node2</title>
<g id="a_node2"><a xlink:href="_c_v_tracked_aruco_8h.html" target="_top" xlink:title="CVTrackedAruco.h">
<polygon fill="white" stroke="black" points="457.5,-224.5 457.5,-243.5 558.5,-243.5 558.5,-224.5 457.5,-224.5"/>
<text text-anchor="middle" x="508" y="-231.5" font-family="Arial.ttf" font-size="10.00">CVTrackedAruco.h</text>
</a>
</g>
</g>
<!-- Node1&#45;&gt;Node2 -->
<g id="edge1" class="edge"><title>Node1&#45;&gt;Node2</title>
<path fill="none" stroke="midnightblue" d="M603.095,-280.444C584.746,-271.675 555.995,-257.935 534.906,-247.858"/>
<polygon fill="midnightblue" stroke="midnightblue" points="536.353,-244.67 525.821,-243.516 533.335,-250.986 536.353,-244.67"/>
</g>
<!-- Node20 -->
<g id="node20" class="node"><title>Node20</title>
<g id="a_node20"><a xlink:href="_utils_8h.html" target="_top" xlink:title="Utils.h">
<polygon fill="white" stroke="black" points="731,-224.5 731,-243.5 775,-243.5 775,-224.5 731,-224.5"/>
<text text-anchor="middle" x="753" y="-231.5" font-family="Arial.ttf" font-size="10.00">Utils.h</text>
</a>
</g>
</g>
<!-- Node1&#45;&gt;Node20 -->
<g id="edge24" class="edge"><title>Node1&#45;&gt;Node20</title>
<path fill="none" stroke="midnightblue" d="M641.916,-280.444C663.736,-271.517 698.15,-257.439 722.892,-247.317"/>
<polygon fill="midnightblue" stroke="midnightblue" points="724.252,-250.542 732.182,-243.516 721.601,-244.063 724.252,-250.542"/>
</g>
<!-- Node3 -->
<g id="node3" class="node"><title>Node3</title>
<g id="a_node3"><a xlink:href="_c_v_typedefs_8h.html" target="_top" xlink:title="CVTypedefs.h">
<polygon fill="white" stroke="black" points="447,-56.5 447,-75.5 527,-75.5 527,-56.5 447,-56.5"/>
<text text-anchor="middle" x="487" y="-63.5" font-family="Arial.ttf" font-size="10.00">CVTypedefs.h</text>
</a>
</g>
</g>
<!-- Node2&#45;&gt;Node3 -->
<g id="edge2" class="edge"><title>Node2&#45;&gt;Node3</title>
<path fill="none" stroke="midnightblue" d="M480.396,-224.414C443.414,-211.245 379.284,-182.168 352,-132 331.969,-95.1689 390.672,-78.9499 436.908,-71.9879"/>
<polygon fill="midnightblue" stroke="midnightblue" points="437.429,-75.4492 446.849,-70.6004 436.461,-68.5164 437.429,-75.4492"/>
</g>
<!-- Node11 -->
<g id="node11" class="node"><title>Node11</title>
<g id="a_node11"><a xlink:href="_c_v_tracked_8h.html" target="_top" xlink:title="CVTracked.h">
<polygon fill="white" stroke="black" points="525.5,-168.5 525.5,-187.5 600.5,-187.5 600.5,-168.5 525.5,-168.5"/>
<text text-anchor="middle" x="563" y="-175.5" font-family="Arial.ttf" font-size="10.00">CVTracked.h</text>
</a>
</g>
</g>
<!-- Node2&#45;&gt;Node11 -->
<g id="edge10" class="edge"><title>Node2&#45;&gt;Node11</title>
<path fill="none" stroke="midnightblue" d="M517.082,-224.083C525.171,-216.141 537.195,-204.335 546.91,-194.797"/>
<polygon fill="midnightblue" stroke="midnightblue" points="549.403,-197.254 554.087,-187.751 544.499,-192.26 549.403,-197.254"/>
</g>
<!-- Node19 -->
<g id="node19" class="node"><title>Node19</title>
<polygon fill="white" stroke="#bfbfbf" points="361,-112.5 361,-131.5 463,-131.5 463,-112.5 361,-112.5"/>
<text text-anchor="middle" x="412" y="-119.5" font-family="Arial.ttf" font-size="10.00">opencv2/aruco.hpp</text>
</g>
<!-- Node2&#45;&gt;Node19 -->
<g id="edge23" class="edge"><title>Node2&#45;&gt;Node19</title>
<path fill="none" stroke="midnightblue" d="M500.467,-224.368C484.484,-206.055 446.952,-163.049 426.28,-139.362"/>
<polygon fill="midnightblue" stroke="midnightblue" points="428.71,-136.824 419.498,-131.591 423.436,-141.427 428.71,-136.824"/>
</g>
<!-- Node4 -->
<g id="node4" class="node"><title>Node4</title>
<polygon fill="white" stroke="#bfbfbf" points="857,-0.5 857,-19.5 901,-19.5 901,-0.5 857,-0.5"/>
<text text-anchor="middle" x="879" y="-7.5" font-family="Arial.ttf" font-size="10.00">vector</text>
</g>
<!-- Node3&#45;&gt;Node4 -->
<g id="edge3" class="edge"><title>Node3&#45;&gt;Node4</title>
<path fill="none" stroke="midnightblue" d="M527.082,-57.4627C530.097,-56.9496 533.095,-56.456 536,-56 658.21,-36.8197 689.364,-36.2347 812,-20 823.374,-18.4943 835.831,-16.8261 846.886,-15.3392"/>
<polygon fill="midnightblue" stroke="midnightblue" points="847.531,-18.784 856.974,-13.9803 846.596,-11.8467 847.531,-18.784"/>
</g>
<!-- Node5 -->
<g id="node5" class="node"><title>Node5</title>
<polygon fill="white" stroke="#bfbfbf" points="295,-0.5 295,-19.5 413,-19.5 413,-0.5 295,-0.5"/>
<text text-anchor="middle" x="354" y="-7.5" font-family="Arial.ttf" font-size="10.00">opencv2/core/core.hpp</text>
</g>
<!-- Node3&#45;&gt;Node5 -->
<g id="edge4" class="edge"><title>Node3&#45;&gt;Node5</title>
<path fill="none" stroke="midnightblue" d="M465.926,-56.4435C443.94,-47.5171 409.266,-33.4387 384.336,-23.3168"/>
<polygon fill="midnightblue" stroke="midnightblue" points="385.558,-20.0355 374.976,-19.5164 382.924,-26.5213 385.558,-20.0355"/>
</g>
<!-- Node6 -->
<g id="node6" class="node"><title>Node6</title>
<polygon fill="white" stroke="#bfbfbf" points="431,-0.5 431,-19.5 543,-19.5 543,-0.5 431,-0.5"/>
<text text-anchor="middle" x="487" y="-7.5" font-family="Arial.ttf" font-size="10.00">opencv2/core/ocl.hpp</text>
</g>
<!-- Node3&#45;&gt;Node6 -->
<g id="edge5" class="edge"><title>Node3&#45;&gt;Node6</title>
<path fill="none" stroke="midnightblue" d="M487,-56.083C487,-49.0059 487,-38.8611 487,-29.9865"/>
<polygon fill="midnightblue" stroke="midnightblue" points="490.5,-29.751 487,-19.7511 483.5,-29.7511 490.5,-29.751"/>
</g>
<!-- Node7 -->
<g id="node7" class="node"><title>Node7</title>
<polygon fill="white" stroke="#bfbfbf" points="561.5,-0.5 561.5,-19.5 656.5,-19.5 656.5,-0.5 561.5,-0.5"/>
<text text-anchor="middle" x="609" y="-7.5" font-family="Arial.ttf" font-size="10.00">opencv2/face.hpp</text>
</g>
<!-- Node3&#45;&gt;Node7 -->
<g id="edge6" class="edge"><title>Node3&#45;&gt;Node7</title>
<path fill="none" stroke="midnightblue" d="M506.331,-56.4435C526.32,-47.5961 557.743,-33.6875 580.564,-23.5865"/>
<polygon fill="midnightblue" stroke="midnightblue" points="582.032,-26.7645 589.759,-19.5164 579.198,-20.3635 582.032,-26.7645"/>
</g>
<!-- Node8 -->
<g id="node8" class="node"><title>Node8</title>
<polygon fill="white" stroke="#bfbfbf" points="-0.5,-0.5 -0.5,-19.5 108.5,-19.5 108.5,-0.5 -0.5,-0.5"/>
<text text-anchor="middle" x="54" y="-7.5" font-family="Arial.ttf" font-size="10.00">opencv2/opencv.hpp</text>
</g>
<!-- Node3&#45;&gt;Node8 -->
<g id="edge7" class="edge"><title>Node3&#45;&gt;Node8</title>
<path fill="none" stroke="midnightblue" d="M446.837,-60.3467C380.805,-52.6428 244.909,-36.5643 119.009,-20.1115"/>
<polygon fill="midnightblue" stroke="midnightblue" points="119.174,-16.6033 108.804,-18.7742 118.264,-23.544 119.174,-16.6033"/>
</g>
<!-- Node9 -->
<g id="node9" class="node"><title>Node9</title>
<polygon fill="white" stroke="#bfbfbf" points="674.5,-0.5 674.5,-19.5 803.5,-19.5 803.5,-0.5 674.5,-0.5"/>
<text text-anchor="middle" x="739" y="-7.5" font-family="Arial.ttf" font-size="10.00">opencv2/xfeatures2d.hpp</text>
</g>
<!-- Node3&#45;&gt;Node9 -->
<g id="edge8" class="edge"><title>Node3&#45;&gt;Node9</title>
<path fill="none" stroke="midnightblue" d="M526.93,-56.4435C570.891,-47.0234 641.627,-31.8656 689.183,-21.6752"/>
<polygon fill="midnightblue" stroke="midnightblue" points="690.212,-25.0341 699.257,-19.5164 688.745,-18.1895 690.212,-25.0341"/>
</g>
<!-- Node10 -->
<g id="node10" class="node"><title>Node10</title>
<polygon fill="white" stroke="#bfbfbf" points="127,-0.5 127,-19.5 277,-19.5 277,-0.5 127,-0.5"/>
<text text-anchor="middle" x="202" y="-7.5" font-family="Arial.ttf" font-size="10.00">opencv2/imgproc/imgproc.hpp</text>
</g>
<!-- Node3&#45;&gt;Node10 -->
<g id="edge9" class="edge"><title>Node3&#45;&gt;Node10</title>
<path fill="none" stroke="midnightblue" d="M446.771,-57.3776C397.225,-47.9901 312.818,-31.997 257.227,-21.4641"/>
<polygon fill="midnightblue" stroke="midnightblue" points="257.674,-17.9866 247.197,-19.5637 256.371,-24.8642 257.674,-17.9866"/>
</g>
<!-- Node11&#45;&gt;Node3 -->
<g id="edge17" class="edge"><title>Node11&#45;&gt;Node3</title>
<path fill="none" stroke="midnightblue" d="M549.021,-168.234C537.145,-160.138 520.412,-147.107 510,-132 500.341,-117.986 494.316,-99.4873 490.868,-85.809"/>
<polygon fill="midnightblue" stroke="midnightblue" points="494.189,-84.6296 488.555,-75.6572 487.364,-86.1849 494.189,-84.6296"/>
</g>
<!-- Node11&#45;&gt;Node9 -->
<g id="edge22" class="edge"><title>Node11&#45;&gt;Node9</title>
<path fill="none" stroke="midnightblue" d="M575.339,-168.47C586.703,-160.153 603.496,-146.647 615,-132 638.45,-102.143 627.326,-83.0167 654,-56 668.023,-41.7963 687.484,-31.0456 704.246,-23.62"/>
<polygon fill="midnightblue" stroke="midnightblue" points="705.878,-26.7309 713.742,-19.6313 703.167,-20.2771 705.878,-26.7309"/>
</g>
<!-- Node12 -->
<g id="node12" class="node"><title>Node12</title>
<g id="a_node12"><a xlink:href="_averaged_8h.html" target="_top" xlink:title="Averaged.h">
<polygon fill="white" stroke="black" points="809,-112.5 809,-131.5 877,-131.5 877,-112.5 809,-112.5"/>
<text text-anchor="middle" x="843" y="-119.5" font-family="Arial.ttf" font-size="10.00">Averaged.h</text>
</a>
</g>
</g>
<!-- Node11&#45;&gt;Node12 -->
<g id="edge11" class="edge"><title>Node11&#45;&gt;Node12</title>
<path fill="none" stroke="midnightblue" d="M600.762,-169.717C652.228,-159.792 744.226,-142.049 798.83,-131.519"/>
<polygon fill="midnightblue" stroke="midnightblue" points="799.744,-134.907 808.901,-129.576 798.419,-128.033 799.744,-134.907"/>
</g>
<!-- Node13 -->
<g id="node13" class="node"><title>Node13</title>
<g id="a_node13"><a xlink:href="_high_res_timer_8h.html" target="_top" xlink:title="HighResTimer.h">
<polygon fill="white" stroke="black" points="676.5,-112.5 676.5,-131.5 765.5,-131.5 765.5,-112.5 676.5,-112.5"/>
<text text-anchor="middle" x="721" y="-119.5" font-family="Arial.ttf" font-size="10.00">HighResTimer.h</text>
</a>
</g>
</g>
<!-- Node11&#45;&gt;Node13 -->
<g id="edge13" class="edge"><title>Node11&#45;&gt;Node13</title>
<path fill="none" stroke="midnightblue" d="M588.036,-168.444C614.616,-159.359 656.809,-144.939 686.523,-134.783"/>
<polygon fill="midnightblue" stroke="midnightblue" points="687.751,-138.062 696.082,-131.516 685.487,-131.439 687.751,-138.062"/>
</g>
<!-- Node17 -->
<g id="node17" class="node"><title>Node17</title>
<g id="a_node17"><a xlink:href="_c_v_calibration_8h.html" target="_top" xlink:title="CVCalibration.h">
<polygon fill="white" stroke="black" points="519.5,-112.5 519.5,-131.5 606.5,-131.5 606.5,-112.5 519.5,-112.5"/>
<text text-anchor="middle" x="563" y="-119.5" font-family="Arial.ttf" font-size="10.00">CVCalibration.h</text>
</a>
</g>
</g>
<!-- Node11&#45;&gt;Node17 -->
<g id="edge18" class="edge"><title>Node11&#45;&gt;Node17</title>
<path fill="none" stroke="midnightblue" d="M563,-168.083C563,-161.006 563,-150.861 563,-141.986"/>
<polygon fill="midnightblue" stroke="midnightblue" points="566.5,-141.751 563,-131.751 559.5,-141.751 566.5,-141.751"/>
</g>
<!-- Node11&#45;&gt;Node19 -->
<g id="edge21" class="edge"><title>Node11&#45;&gt;Node19</title>
<path fill="none" stroke="midnightblue" d="M539.074,-168.444C513.781,-159.399 473.698,-145.064 445.32,-134.916"/>
<polygon fill="midnightblue" stroke="midnightblue" points="446.409,-131.588 435.814,-131.516 444.052,-138.179 446.409,-131.588"/>
</g>
<!-- Node12&#45;&gt;Node4 -->
<g id="edge12" class="edge"><title>Node12&#45;&gt;Node4</title>
<path fill="none" stroke="midnightblue" d="M846.178,-112.411C849.489,-103.384 854.774,-88.7503 859,-76 864.166,-60.4149 869.621,-42.5817 873.527,-29.5415"/>
<polygon fill="midnightblue" stroke="midnightblue" points="876.907,-30.4526 876.403,-19.8698 870.198,-28.4573 876.907,-30.4526"/>
</g>
<!-- Node14 -->
<g id="node14" class="node"><title>Node14</title>
<polygon fill="white" stroke="#bfbfbf" points="803.5,-56.5 803.5,-75.5 850.5,-75.5 850.5,-56.5 803.5,-56.5"/>
<text text-anchor="middle" x="827" y="-63.5" font-family="Arial.ttf" font-size="10.00">chrono</text>
</g>
<!-- Node13&#45;&gt;Node14 -->
<g id="edge14" class="edge"><title>Node13&#45;&gt;Node14</title>
<path fill="none" stroke="midnightblue" d="M738.031,-112.324C755.03,-103.664 781.376,-90.2424 800.993,-80.249"/>
<polygon fill="midnightblue" stroke="midnightblue" points="802.69,-83.3125 810.012,-75.6545 799.512,-77.0752 802.69,-83.3125"/>
</g>
<!-- Node15 -->
<g id="node15" class="node"><title>Node15</title>
<polygon fill="white" stroke="#bfbfbf" points="663.5,-56.5 663.5,-75.5 722.5,-75.5 722.5,-56.5 663.5,-56.5"/>
<text text-anchor="middle" x="693" y="-63.5" font-family="Arial.ttf" font-size="10.00">functional</text>
</g>
<!-- Node13&#45;&gt;Node15 -->
<g id="edge15" class="edge"><title>Node13&#45;&gt;Node15</title>
<path fill="none" stroke="midnightblue" d="M716.376,-112.083C712.544,-104.691 706.976,-93.9533 702.235,-84.8111"/>
<polygon fill="midnightblue" stroke="midnightblue" points="705.248,-83.0175 697.538,-75.7511 699.034,-86.2398 705.248,-83.0175"/>
</g>
<!-- Node16 -->
<g id="node16" class="node"><title>Node16</title>
<polygon fill="white" stroke="#bfbfbf" points="740.5,-56.5 740.5,-75.5 785.5,-75.5 785.5,-56.5 740.5,-56.5"/>
<text text-anchor="middle" x="763" y="-63.5" font-family="Arial.ttf" font-size="10.00">thread</text>
</g>
<!-- Node13&#45;&gt;Node16 -->
<g id="edge16" class="edge"><title>Node13&#45;&gt;Node16</title>
<path fill="none" stroke="midnightblue" d="M727.935,-112.083C733.929,-104.377 742.752,-93.0333 750.048,-83.6531"/>
<polygon fill="midnightblue" stroke="midnightblue" points="752.817,-85.7934 756.194,-75.7511 747.291,-81.4958 752.817,-85.7934"/>
</g>
<!-- Node17&#45;&gt;Node3 -->
<g id="edge19" class="edge"><title>Node17&#45;&gt;Node3</title>
<path fill="none" stroke="midnightblue" d="M550.789,-112.324C539.224,-104.107 521.625,-91.6017 507.839,-81.8069"/>
<polygon fill="midnightblue" stroke="midnightblue" points="509.612,-78.7729 499.433,-75.8339 505.557,-84.4791 509.612,-78.7729"/>
</g>
<!-- Node18 -->
<g id="node18" class="node"><title>Node18</title>
<polygon fill="white" stroke="#bfbfbf" points="545,-56.5 545,-75.5 591,-75.5 591,-56.5 545,-56.5"/>
<text text-anchor="middle" x="568" y="-63.5" font-family="Arial.ttf" font-size="10.00">ftplib.h</text>
</g>
<!-- Node17&#45;&gt;Node18 -->
<g id="edge20" class="edge"><title>Node17&#45;&gt;Node18</title>
<path fill="none" stroke="midnightblue" d="M563.826,-112.083C564.481,-105.006 565.42,-94.8611 566.242,-85.9865"/>
<polygon fill="midnightblue" stroke="midnightblue" points="569.753,-86.0312 567.19,-75.7511 562.783,-85.3858 569.753,-86.0312"/>
</g>
<!-- Node20&#45;&gt;Node4 -->
<g id="edge26" class="edge"><title>Node20&#45;&gt;Node4</title>
<path fill="none" stroke="midnightblue" d="M774.034,-224.41C805.216,-210.375 862.543,-179.268 886,-132 902.459,-98.8337 892.985,-54.0949 885.452,-29.3616"/>
<polygon fill="midnightblue" stroke="midnightblue" points="888.759,-28.2153 882.325,-19.7979 882.106,-30.3905 888.759,-28.2153"/>
</g>
<!-- Node21 -->
<g id="node21" class="node"><title>Node21</title>
<polygon fill="white" stroke="#bfbfbf" points="732.5,-168.5 732.5,-187.5 773.5,-187.5 773.5,-168.5 732.5,-168.5"/>
<text text-anchor="middle" x="753" y="-175.5" font-family="Arial.ttf" font-size="10.00">string</text>
</g>
<!-- Node20&#45;&gt;Node21 -->
<g id="edge25" class="edge"><title>Node20&#45;&gt;Node21</title>
<path fill="none" stroke="midnightblue" d="M753,-224.083C753,-217.006 753,-206.861 753,-197.986"/>
<polygon fill="midnightblue" stroke="midnightblue" points="756.5,-197.751 753,-187.751 749.5,-197.751 756.5,-197.751"/>
</g>
</g>
</svg>
