<?xml version="1.0" encoding="UTF-8" standalone="no"?>
<!DOCTYPE svg PUBLIC "-//W3C//DTD SVG 1.1//EN"
 "http://www.w3.org/Graphics/SVG/1.1/DTD/svg11.dtd">
<!-- Generated by graphviz version 2.44.0 (20200408.0750)
 -->
<!-- Title: CVTrackedAruco.cpp Pages: 1 -->
<svg width="1264pt" height="308pt"
 viewBox="0.00 0.00 1264.44 308.00" xmlns="http://www.w3.org/2000/svg" xmlns:xlink="http://www.w3.org/1999/xlink">
<g id="graph0" class="graph" transform="scale(1 1) rotate(0) translate(4 304)">
<title>CVTrackedAruco.cpp</title>
<polygon fill="white" stroke="transparent" points="-4,4 -4,-304 1260.44,-304 1260.44,4 -4,4"/>
<!-- Node1 -->
<g id="node1" class="node">
<title>Node1</title>
<g id="a_node1"><a xlink:title=" ">
<polygon fill="#bfbfbf" stroke="black" points="885,-280.5 885,-299.5 995,-299.5 995,-280.5 885,-280.5"/>
<text text-anchor="middle" x="940" y="-287.5" font-family="Arial.ttf" font-size="10.00">CVTrackedAruco.cpp</text>
</a>
</g>
</g>
<!-- Node2 -->
<g id="node2" class="node">
<title>Node2</title>
<g id="a_node2"><a xlink:href="_c_v_tracked_aruco_8h.html" target="_top" xlink:title=" ">
<polygon fill="white" stroke="black" points="851,-224.5 851,-243.5 951,-243.5 951,-224.5 851,-224.5"/>
<text text-anchor="middle" x="901" y="-231.5" font-family="Arial.ttf" font-size="10.00">CVTrackedAruco.h</text>
</a>
</g>
</g>
<!-- Node1&#45;&gt;Node2 -->
<g id="edge1" class="edge">
<title>Node1&#45;&gt;Node2</title>
<path fill="none" stroke="midnightblue" d="M933.56,-280.08C928.05,-272.46 919.97,-261.26 913.24,-251.94"/>
<polygon fill="midnightblue" stroke="midnightblue" points="916.01,-249.81 907.32,-243.75 910.34,-253.91 916.01,-249.81"/>
</g>
<!-- Node21 -->
<g id="node21" class="node">
<title>Node21</title>
<g id="a_node21"><a xlink:href="_utils_8h.html" target="_top" xlink:title=" ">
<polygon fill="white" stroke="black" points="1050.5,-112.5 1050.5,-131.5 1095.5,-131.5 1095.5,-112.5 1050.5,-112.5"/>
<text text-anchor="middle" x="1073" y="-119.5" font-family="Arial.ttf" font-size="10.00">Utils.h</text>
</a>
</g>
</g>
<!-- Node1&#45;&gt;Node21 -->
<g id="edge25" class="edge">
<title>Node1&#45;&gt;Node21</title>
<path fill="none" stroke="midnightblue" d="M947.15,-280.08C968.45,-253.49 1031.71,-174.54 1059.57,-139.76"/>
<polygon fill="midnightblue" stroke="midnightblue" points="1062.61,-141.56 1066.14,-131.57 1057.15,-137.18 1062.61,-141.56"/>
</g>
<!-- Node3 -->
<g id="node3" class="node">
<title>Node3</title>
<g id="a_node3"><a xlink:href="_c_v_typedefs_8h.html" target="_top" xlink:title=" ">
<polygon fill="white" stroke="black" points="559.5,-56.5 559.5,-75.5 638.5,-75.5 638.5,-56.5 559.5,-56.5"/>
<text text-anchor="middle" x="599" y="-63.5" font-family="Arial.ttf" font-size="10.00">CVTypedefs.h</text>
</a>
</g>
</g>
<!-- Node2&#45;&gt;Node3 -->
<g id="edge2" class="edge">
<title>Node2&#45;&gt;Node3</title>
<path fill="none" stroke="midnightblue" d="M850.89,-226.14C762.26,-212.88 583.72,-180.66 547,-132 533.56,-114.19 555.24,-94.23 574.56,-81.18"/>
<polygon fill="midnightblue" stroke="midnightblue" points="576.6,-84.04 583.14,-75.71 572.83,-78.14 576.6,-84.04"/>
</g>
<!-- Node11 -->
<g id="node11" class="node">
<title>Node11</title>
<g id="a_node11"><a xlink:href="_c_v_tracked_8h.html" target="_top" xlink:title=" ">
<polygon fill="white" stroke="black" points="777,-168.5 777,-187.5 851,-187.5 851,-168.5 777,-168.5"/>
<text text-anchor="middle" x="814" y="-175.5" font-family="Arial.ttf" font-size="10.00">CVTracked.h</text>
</a>
</g>
</g>
<!-- Node2&#45;&gt;Node11 -->
<g id="edge10" class="edge">
<title>Node2&#45;&gt;Node11</title>
<path fill="none" stroke="midnightblue" d="M887.02,-224.32C873.45,-215.9 852.62,-202.97 836.68,-193.07"/>
<polygon fill="midnightblue" stroke="midnightblue" points="838.29,-189.95 827.94,-187.65 834.59,-195.9 838.29,-189.95"/>
</g>
<!-- Node20 -->
<g id="node20" class="node">
<title>Node20</title>
<g id="a_node20"><a xlink:title=" ">
<polygon fill="white" stroke="#bfbfbf" points="926.5,-112.5 926.5,-131.5 1025.5,-131.5 1025.5,-112.5 926.5,-112.5"/>
<text text-anchor="middle" x="976" y="-119.5" font-family="Arial.ttf" font-size="10.00">opencv2/aruco.hpp</text>
</a>
</g>
</g>
<!-- Node2&#45;&gt;Node20 -->
<g id="edge24" class="edge">
<title>Node2&#45;&gt;Node20</title>
<path fill="none" stroke="midnightblue" d="M906.89,-224.37C919.26,-206.22 948.18,-163.8 964.42,-139.99"/>
<polygon fill="midnightblue" stroke="midnightblue" points="967.4,-141.83 970.14,-131.59 961.62,-137.88 967.4,-141.83"/>
</g>
<!-- Node4 -->
<g id="node4" class="node">
<title>Node4</title>
<g id="a_node4"><a xlink:title=" ">
<polygon fill="white" stroke="#bfbfbf" points="932,-0.5 932,-19.5 976,-19.5 976,-0.5 932,-0.5"/>
<text text-anchor="middle" x="954" y="-7.5" font-family="Arial.ttf" font-size="10.00">vector</text>
</a>
</g>
</g>
<!-- Node3&#45;&gt;Node4 -->
<g id="edge3" class="edge">
<title>Node3&#45;&gt;Node4</title>
<path fill="none" stroke="midnightblue" d="M638.69,-58.97C645.46,-57.96 652.43,-56.94 659,-56 773.02,-39.68 805.4,-44.3 921.73,-20"/>
<polygon fill="midnightblue" stroke="midnightblue" points="922.69,-23.38 931.75,-17.88 921.24,-16.53 922.69,-23.38"/>
</g>
<!-- Node5 -->
<g id="node5" class="node">
<title>Node5</title>
<g id="a_node5"><a xlink:title=" ">
<polygon fill="white" stroke="#bfbfbf" points="290,-0.5 290,-19.5 406,-19.5 406,-0.5 290,-0.5"/>
<text text-anchor="middle" x="348" y="-7.5" font-family="Arial.ttf" font-size="10.00">opencv2/core/core.hpp</text>
</a>
</g>
</g>
<!-- Node3&#45;&gt;Node5 -->
<g id="edge4" class="edge">
<title>Node3&#45;&gt;Node5</title>
<path fill="none" stroke="midnightblue" d="M559.23,-56.44C515.44,-47.02 444.99,-31.87 397.62,-21.68"/>
<polygon fill="midnightblue" stroke="midnightblue" points="398.1,-18.2 387.59,-19.52 396.63,-25.04 398.1,-18.2"/>
</g>
<!-- Node6 -->
<g id="node6" class="node">
<title>Node6</title>
<g id="a_node6"><a xlink:title=" ">
<polygon fill="white" stroke="#bfbfbf" points="424,-0.5 424,-19.5 534,-19.5 534,-0.5 424,-0.5"/>
<text text-anchor="middle" x="479" y="-7.5" font-family="Arial.ttf" font-size="10.00">opencv2/core/ocl.hpp</text>
</a>
</g>
</g>
<!-- Node3&#45;&gt;Node6 -->
<g id="edge5" class="edge">
<title>Node3&#45;&gt;Node6</title>
<path fill="none" stroke="midnightblue" d="M579.99,-56.44C560.41,-47.64 529.69,-33.81 507.27,-23.72"/>
<polygon fill="midnightblue" stroke="midnightblue" points="508.48,-20.43 497.93,-19.52 505.61,-26.81 508.48,-20.43"/>
</g>
<!-- Node7 -->
<g id="node7" class="node">
<title>Node7</title>
<g id="a_node7"><a xlink:title=" ">
<polygon fill="white" stroke="#bfbfbf" points="552,-0.5 552,-19.5 646,-19.5 646,-0.5 552,-0.5"/>
<text text-anchor="middle" x="599" y="-7.5" font-family="Arial.ttf" font-size="10.00">opencv2/face.hpp</text>
</a>
</g>
</g>
<!-- Node3&#45;&gt;Node7 -->
<g id="edge6" class="edge">
<title>Node3&#45;&gt;Node7</title>
<path fill="none" stroke="midnightblue" d="M599,-56.08C599,-49.01 599,-38.86 599,-29.99"/>
<polygon fill="midnightblue" stroke="midnightblue" points="602.5,-29.75 599,-19.75 595.5,-29.75 602.5,-29.75"/>
</g>
<!-- Node8 -->
<g id="node8" class="node">
<title>Node8</title>
<g id="a_node8"><a xlink:title=" ">
<polygon fill="white" stroke="#bfbfbf" points="664.5,-0.5 664.5,-19.5 769.5,-19.5 769.5,-0.5 664.5,-0.5"/>
<text text-anchor="middle" x="717" y="-7.5" font-family="Arial.ttf" font-size="10.00">opencv2/opencv.hpp</text>
</a>
</g>
</g>
<!-- Node3&#45;&gt;Node8 -->
<g id="edge7" class="edge">
<title>Node3&#45;&gt;Node8</title>
<path fill="none" stroke="midnightblue" d="M617.7,-56.44C636.94,-47.64 667.15,-33.81 689.2,-23.72"/>
<polygon fill="midnightblue" stroke="midnightblue" points="690.75,-26.86 698.39,-19.52 687.84,-20.5 690.75,-26.86"/>
</g>
<!-- Node9 -->
<g id="node9" class="node">
<title>Node9</title>
<g id="a_node9"><a xlink:title=" ">
<polygon fill="white" stroke="#bfbfbf" points="788,-0.5 788,-19.5 914,-19.5 914,-0.5 788,-0.5"/>
<text text-anchor="middle" x="851" y="-7.5" font-family="Arial.ttf" font-size="10.00">opencv2/xfeatures2d.hpp</text>
</a>
</g>
</g>
<!-- Node3&#45;&gt;Node9 -->
<g id="edge8" class="edge">
<title>Node3&#45;&gt;Node9</title>
<path fill="none" stroke="midnightblue" d="M638.65,-56.5C682.65,-47.08 753.71,-31.85 801.37,-21.64"/>
<polygon fill="midnightblue" stroke="midnightblue" points="802.12,-25.05 811.16,-19.54 800.65,-18.21 802.12,-25.05"/>
</g>
<!-- Node10 -->
<g id="node10" class="node">
<title>Node10</title>
<g id="a_node10"><a xlink:title=" ">
<polygon fill="white" stroke="#bfbfbf" points="124.5,-0.5 124.5,-19.5 271.5,-19.5 271.5,-0.5 124.5,-0.5"/>
<text text-anchor="middle" x="198" y="-7.5" font-family="Arial.ttf" font-size="10.00">opencv2/imgproc/imgproc.hpp</text>
</a>
</g>
</g>
<!-- Node3&#45;&gt;Node10 -->
<g id="edge9" class="edge">
<title>Node3&#45;&gt;Node10</title>
<path fill="none" stroke="midnightblue" d="M559.45,-59.67C492.62,-50.67 356.33,-32.32 271.53,-20.9"/>
<polygon fill="midnightblue" stroke="midnightblue" points="271.83,-17.41 261.46,-19.55 270.9,-24.35 271.83,-17.41"/>
</g>
<!-- Node11&#45;&gt;Node3 -->
<g id="edge17" class="edge">
<title>Node11&#45;&gt;Node3</title>
<path fill="none" stroke="midnightblue" d="M782.93,-168.47C757,-160.74 719.5,-148.09 689,-132 662.29,-117.91 634.56,-96.72 617.07,-82.39"/>
<polygon fill="midnightblue" stroke="midnightblue" points="618.83,-79.31 608.91,-75.61 614.36,-84.69 618.83,-79.31"/>
</g>
<!-- Node11&#45;&gt;Node9 -->
<g id="edge23" class="edge">
<title>Node11&#45;&gt;Node9</title>
<path fill="none" stroke="midnightblue" d="M815.99,-168.08C821.81,-141.95 838.92,-65.21 846.86,-29.58"/>
<polygon fill="midnightblue" stroke="midnightblue" points="850.33,-30.09 849.09,-19.57 843.5,-28.57 850.33,-30.09"/>
</g>
<!-- Node12 -->
<g id="node12" class="node">
<title>Node12</title>
<g id="a_node12"><a xlink:href="_averaged_8h.html" target="_top" xlink:title=" ">
<polygon fill="white" stroke="black" points="842,-112.5 842,-131.5 908,-131.5 908,-112.5 842,-112.5"/>
<text text-anchor="middle" x="875" y="-119.5" font-family="Arial.ttf" font-size="10.00">Averaged.h</text>
</a>
</g>
</g>
<!-- Node11&#45;&gt;Node12 -->
<g id="edge11" class="edge">
<title>Node11&#45;&gt;Node12</title>
<path fill="none" stroke="midnightblue" d="M823.8,-168.32C832.82,-160.34 846.41,-148.31 857.32,-138.65"/>
<polygon fill="midnightblue" stroke="midnightblue" points="859.85,-141.08 865.02,-131.83 855.21,-135.84 859.85,-141.08"/>
</g>
<!-- Node13 -->
<g id="node13" class="node">
<title>Node13</title>
<g id="a_node13"><a xlink:href="_high_res_timer_8h.html" target="_top" xlink:title=" ">
<polygon fill="white" stroke="black" points="698.5,-112.5 698.5,-131.5 785.5,-131.5 785.5,-112.5 698.5,-112.5"/>
<text text-anchor="middle" x="742" y="-119.5" font-family="Arial.ttf" font-size="10.00">HighResTimer.h</text>
</a>
</g>
</g>
<!-- Node11&#45;&gt;Node13 -->
<g id="edge13" class="edge">
<title>Node11&#45;&gt;Node13</title>
<path fill="none" stroke="midnightblue" d="M802.43,-168.32C791.58,-160.18 775.12,-147.84 762.12,-138.09"/>
<polygon fill="midnightblue" stroke="midnightblue" points="763.88,-135.03 753.78,-131.83 759.68,-140.63 763.88,-135.03"/>
</g>
<!-- Node17 -->
<g id="node17" class="node">
<title>Node17</title>
<g id="a_node17"><a xlink:href="_c_v_calibration_8h.html" target="_top" xlink:title=" ">
<polygon fill="white" stroke="black" points="556,-112.5 556,-131.5 642,-131.5 642,-112.5 556,-112.5"/>
<text text-anchor="middle" x="599" y="-119.5" font-family="Arial.ttf" font-size="10.00">CVCalibration.h</text>
</a>
</g>
</g>
<!-- Node11&#45;&gt;Node17 -->
<g id="edge18" class="edge">
<title>Node11&#45;&gt;Node17</title>
<path fill="none" stroke="midnightblue" d="M779.93,-168.44C742.82,-159.12 683.34,-144.18 642.79,-134"/>
<polygon fill="midnightblue" stroke="midnightblue" points="643.46,-130.56 632.91,-131.52 641.75,-137.35 643.46,-130.56"/>
</g>
<!-- Node11&#45;&gt;Node20 -->
<g id="edge22" class="edge">
<title>Node11&#45;&gt;Node20</title>
<path fill="none" stroke="midnightblue" d="M839.67,-168.44C866.92,-159.36 910.18,-144.94 940.65,-134.78"/>
<polygon fill="midnightblue" stroke="midnightblue" points="942.07,-138 950.45,-131.52 939.86,-131.36 942.07,-138"/>
</g>
<!-- Node12&#45;&gt;Node4 -->
<g id="edge12" class="edge">
<title>Node12&#45;&gt;Node4</title>
<path fill="none" stroke="midnightblue" d="M871.77,-112.28C867.46,-99.08 861.53,-73.69 872,-56 877.92,-46 902.84,-33.12 923.67,-23.71"/>
<polygon fill="midnightblue" stroke="midnightblue" points="925.13,-26.89 932.87,-19.65 922.31,-20.48 925.13,-26.89"/>
</g>
<!-- Node14 -->
<g id="node14" class="node">
<title>Node14</title>
<g id="a_node14"><a xlink:title=" ">
<polygon fill="white" stroke="#bfbfbf" points="668,-56.5 668,-75.5 714,-75.5 714,-56.5 668,-56.5"/>
<text text-anchor="middle" x="691" y="-63.5" font-family="Arial.ttf" font-size="10.00">chrono</text>
</a>
</g>
</g>
<!-- Node13&#45;&gt;Node14 -->
<g id="edge14" class="edge">
<title>Node13&#45;&gt;Node14</title>
<path fill="none" stroke="midnightblue" d="M733.58,-112.08C726.15,-104.22 715.15,-92.57 706.19,-83.08"/>
<polygon fill="midnightblue" stroke="midnightblue" points="708.68,-80.62 699.26,-75.75 703.59,-85.42 708.68,-80.62"/>
</g>
<!-- Node15 -->
<g id="node15" class="node">
<title>Node15</title>
<g id="a_node15"><a xlink:title=" ">
<polygon fill="white" stroke="#bfbfbf" points="880.5,-56.5 880.5,-75.5 939.5,-75.5 939.5,-56.5 880.5,-56.5"/>
<text text-anchor="middle" x="910" y="-63.5" font-family="Arial.ttf" font-size="10.00">functional</text>
</a>
</g>
</g>
<!-- Node13&#45;&gt;Node15 -->
<g id="edge15" class="edge">
<title>Node13&#45;&gt;Node15</title>
<path fill="none" stroke="midnightblue" d="M768.62,-112.44C797.01,-103.32 842.14,-88.81 873.75,-78.65"/>
<polygon fill="midnightblue" stroke="midnightblue" points="875.06,-81.91 883.5,-75.52 872.91,-75.24 875.06,-81.91"/>
</g>
<!-- Node16 -->
<g id="node16" class="node">
<title>Node16</title>
<g id="a_node16"><a xlink:title=" ">
<polygon fill="white" stroke="#bfbfbf" points="732,-56.5 732,-75.5 776,-75.5 776,-56.5 732,-56.5"/>
<text text-anchor="middle" x="754" y="-63.5" font-family="Arial.ttf" font-size="10.00">thread</text>
</a>
</g>
</g>
<!-- Node13&#45;&gt;Node16 -->
<g id="edge16" class="edge">
<title>Node13&#45;&gt;Node16</title>
<path fill="none" stroke="midnightblue" d="M743.98,-112.08C745.57,-104.93 747.86,-94.64 749.85,-85.69"/>
<polygon fill="midnightblue" stroke="midnightblue" points="753.3,-86.27 752.06,-75.75 746.47,-84.75 753.3,-86.27"/>
</g>
<!-- Node17&#45;&gt;Node3 -->
<g id="edge19" class="edge">
<title>Node17&#45;&gt;Node3</title>
<path fill="none" stroke="midnightblue" d="M599,-112.08C599,-105.01 599,-94.86 599,-85.99"/>
<polygon fill="midnightblue" stroke="midnightblue" points="602.5,-85.75 599,-75.75 595.5,-85.75 602.5,-85.75"/>
</g>
<!-- Node18 -->
<g id="node18" class="node">
<title>Node18</title>
<g id="a_node18"><a xlink:href="_c_v_types_8h.html" target="_top" xlink:title=" ">
<polygon fill="white" stroke="black" points="248.5,-56.5 248.5,-75.5 313.5,-75.5 313.5,-56.5 248.5,-56.5"/>
<text text-anchor="middle" x="281" y="-63.5" font-family="Arial.ttf" font-size="10.00">CVTypes.h</text>
</a>
</g>
</g>
<!-- Node17&#45;&gt;Node18 -->
<g id="edge20" class="edge">
<title>Node17&#45;&gt;Node18</title>
<path fill="none" stroke="midnightblue" d="M555.78,-113.66C494.78,-103.3 384.12,-84.51 323.5,-74.22"/>
<polygon fill="midnightblue" stroke="midnightblue" points="323.95,-70.74 313.51,-72.52 322.78,-77.64 323.95,-70.74"/>
</g>
<!-- Node19 -->
<g id="node19" class="node">
<title>Node19</title>
<g id="a_node19"><a xlink:title=" ">
<polygon fill="white" stroke="#bfbfbf" points="0,-0.5 0,-19.5 106,-19.5 106,-0.5 0,-0.5"/>
<text text-anchor="middle" x="53" y="-7.5" font-family="Arial.ttf" font-size="10.00">opencv2/calib3d.hpp</text>
</a>
</g>
</g>
<!-- Node18&#45;&gt;Node19 -->
<g id="edge21" class="edge">
<title>Node18&#45;&gt;Node19</title>
<path fill="none" stroke="midnightblue" d="M248.33,-57.26C209.15,-47.98 143.22,-32.37 98.93,-21.88"/>
<polygon fill="midnightblue" stroke="midnightblue" points="99.53,-18.42 88.99,-19.52 97.92,-25.23 99.53,-18.42"/>
</g>
<!-- Node21&#45;&gt;Node4 -->
<g id="edge27" class="edge">
<title>Node21&#45;&gt;Node4</title>
<path fill="none" stroke="midnightblue" d="M1050.49,-113.64C1031.59,-106.51 1004.88,-94.1 987,-76 973.96,-62.8 965.03,-43.4 959.78,-29.23"/>
<polygon fill="midnightblue" stroke="midnightblue" points="963.04,-27.92 956.48,-19.6 956.42,-30.2 963.04,-27.92"/>
</g>
<!-- Node21&#45;&gt;Node15 -->
<g id="edge36" class="edge">
<title>Node21&#45;&gt;Node15</title>
<path fill="none" stroke="midnightblue" d="M1050.34,-113.49C1023.18,-104.5 977.37,-89.32 945.51,-78.76"/>
<polygon fill="midnightblue" stroke="midnightblue" points="946.29,-75.33 935.69,-75.51 944.08,-81.98 946.29,-75.33"/>
</g>
<!-- Node22 -->
<g id="node22" class="node">
<title>Node22</title>
<g id="a_node22"><a xlink:title=" ">
<polygon fill="white" stroke="#bfbfbf" points="1065.5,-0.5 1065.5,-19.5 1106.5,-19.5 1106.5,-0.5 1065.5,-0.5"/>
<text text-anchor="middle" x="1086" y="-7.5" font-family="Arial.ttf" font-size="10.00">string</text>
</a>
</g>
</g>
<!-- Node21&#45;&gt;Node22 -->
<g id="edge26" class="edge">
<title>Node21&#45;&gt;Node22</title>
<path fill="none" stroke="midnightblue" d="M1074.02,-112.37C1076.12,-94.62 1080.96,-53.67 1083.8,-29.6"/>
<polygon fill="midnightblue" stroke="midnightblue" points="1087.29,-29.93 1084.98,-19.59 1080.34,-29.11 1087.29,-29.93"/>
</g>
<!-- Node23 -->
<g id="node23" class="node">
<title>Node23</title>
<g id="a_node23"><a xlink:title=" ">
<polygon fill="white" stroke="#bfbfbf" points="1201.5,-56.5 1201.5,-75.5 1242.5,-75.5 1242.5,-56.5 1201.5,-56.5"/>
<text text-anchor="middle" x="1222" y="-63.5" font-family="Arial.ttf" font-size="10.00">cfloat</text>
</a>
</g>
</g>
<!-- Node21&#45;&gt;Node23 -->
<g id="edge28" class="edge">
<title>Node21&#45;&gt;Node23</title>
<path fill="none" stroke="midnightblue" d="M1095.63,-112.8C1121.26,-103.51 1163.16,-88.32 1191.63,-78.01"/>
<polygon fill="midnightblue" stroke="midnightblue" points="1192.88,-81.28 1201.09,-74.58 1190.49,-74.7 1192.88,-81.28"/>
</g>
<!-- Node24 -->
<g id="node24" class="node">
<title>Node24</title>
<g id="a_node24"><a xlink:title=" ">
<polygon fill="white" stroke="#bfbfbf" points="1185,-0.5 1185,-19.5 1237,-19.5 1237,-0.5 1185,-0.5"/>
<text text-anchor="middle" x="1211" y="-7.5" font-family="Arial.ttf" font-size="10.00">memory</text>
</a>
</g>
</g>
<!-- Node21&#45;&gt;Node24 -->
<g id="edge29" class="edge">
<title>Node21&#45;&gt;Node24</title>
<path fill="none" stroke="midnightblue" d="M1095.71,-118.71C1139.47,-113.78 1232.84,-100.57 1252,-76 1264.65,-59.78 1247.2,-39.53 1231.32,-25.98"/>
<polygon fill="midnightblue" stroke="midnightblue" points="1233.31,-23.09 1223.32,-19.56 1228.93,-28.55 1233.31,-23.09"/>
</g>
<!-- Node25 -->
<g id="node25" class="node">
<title>Node25</title>
<g id="a_node25"><a xlink:href="_file_log_8h.html" target="_top" xlink:title=" ">
<polygon fill="white" stroke="black" points="996,-56.5 996,-75.5 1052,-75.5 1052,-56.5 996,-56.5"/>
<text text-anchor="middle" x="1024" y="-63.5" font-family="Arial.ttf" font-size="10.00">FileLog.h</text>
</a>
</g>
</g>
<!-- Node21&#45;&gt;Node25 -->
<g id="edge30" class="edge">
<title>Node21&#45;&gt;Node25</title>
<path fill="none" stroke="midnightblue" d="M1064.91,-112.08C1057.84,-104.3 1047.41,-92.8 1038.85,-83.37"/>
<polygon fill="midnightblue" stroke="midnightblue" points="1041.25,-80.8 1031.94,-75.75 1036.07,-85.51 1041.25,-80.8"/>
</g>
<!-- Node27 -->
<g id="node27" class="node">
<title>Node27</title>
<g id="a_node27"><a xlink:href="_custom_log_8h.html" target="_top" xlink:title=" ">
<polygon fill="white" stroke="black" points="1108.5,-56.5 1108.5,-75.5 1183.5,-75.5 1183.5,-56.5 1108.5,-56.5"/>
<text text-anchor="middle" x="1146" y="-63.5" font-family="Arial.ttf" font-size="10.00">CustomLog.h</text>
</a>
</g>
</g>
<!-- Node21&#45;&gt;Node27 -->
<g id="edge33" class="edge">
<title>Node21&#45;&gt;Node27</title>
<path fill="none" stroke="midnightblue" d="M1084.73,-112.32C1095.84,-104.11 1112.74,-91.6 1125.98,-81.81"/>
<polygon fill="midnightblue" stroke="midnightblue" points="1128.1,-84.59 1134.06,-75.83 1123.94,-78.97 1128.1,-84.59"/>
</g>
<!-- Node25&#45;&gt;Node22 -->
<g id="edge31" class="edge">
<title>Node25&#45;&gt;Node22</title>
<path fill="none" stroke="midnightblue" d="M1033.96,-56.32C1043.13,-48.34 1056.94,-36.31 1068.03,-26.65"/>
<polygon fill="midnightblue" stroke="midnightblue" points="1070.62,-29.04 1075.86,-19.83 1066.02,-23.76 1070.62,-29.04"/>
</g>
<!-- Node26 -->
<g id="node26" class="node">
<title>Node26</title>
<g id="a_node26"><a xlink:title=" ">
<polygon fill="white" stroke="#bfbfbf" points="997,-0.5 997,-19.5 1047,-19.5 1047,-0.5 997,-0.5"/>
<text text-anchor="middle" x="1022" y="-7.5" font-family="Arial.ttf" font-size="10.00">fstream</text>
</a>
</g>
</g>
<!-- Node25&#45;&gt;Node26 -->
<g id="edge32" class="edge">
<title>Node25&#45;&gt;Node26</title>
<path fill="none" stroke="midnightblue" d="M1023.67,-56.08C1023.41,-49.01 1023.03,-38.86 1022.7,-29.99"/>
<polygon fill="midnightblue" stroke="midnightblue" points="1026.19,-29.61 1022.32,-19.75 1019.2,-29.87 1026.19,-29.61"/>
</g>
<!-- Node27&#45;&gt;Node22 -->
<g id="edge35" class="edge">
<title>Node27&#45;&gt;Node22</title>
<path fill="none" stroke="midnightblue" d="M1136.36,-56.32C1127.49,-48.34 1114.13,-36.31 1103.39,-26.65"/>
<polygon fill="midnightblue" stroke="midnightblue" points="1105.59,-23.92 1095.82,-19.83 1100.91,-29.13 1105.59,-23.92"/>
</g>
<!-- Node27&#45;&gt;Node24 -->
<g id="edge34" class="edge">
<title>Node27&#45;&gt;Node24</title>
<path fill="none" stroke="midnightblue" d="M1156.44,-56.32C1166.15,-48.26 1180.82,-36.08 1192.5,-26.37"/>
<polygon fill="midnightblue" stroke="midnightblue" points="1194.91,-28.92 1200.37,-19.83 1190.44,-23.53 1194.91,-28.92"/>
</g>
</g>
</svg>
