<?xml version="1.0" encoding="UTF-8" standalone="no"?>
<!DOCTYPE svg PUBLIC "-//W3C//DTD SVG 1.1//EN"
 "http://www.w3.org/Graphics/SVG/1.1/DTD/svg11.dtd">
<!-- Generated by graphviz version 2.40.1 (20161225.0304)
 -->
<!-- Title: CVTrackedAruco.cpp Pages: 1 -->
<svg width="902pt" height="302pt"
 viewBox="0.00 0.00 902.39 302.00" xmlns="http://www.w3.org/2000/svg" xmlns:xlink="http://www.w3.org/1999/xlink">
<g id="graph0" class="graph" transform="scale(1 1) rotate(0) translate(4 298)">
<title>CVTrackedAruco.cpp</title>
<polygon fill="#ffffff" stroke="transparent" points="-4,4 -4,-298 898.3945,-298 898.3945,4 -4,4"/>
<!-- Node1 -->
<g id="node1" class="node">
<title>Node1</title>
<g id="a_node1"><a xlink:title=" ">
<polygon fill="#bfbfbf" stroke="#000000" points="509.4424,-275.5 509.4424,-293.5 620.1152,-293.5 620.1152,-275.5 509.4424,-275.5"/>
<text text-anchor="middle" x="564.7788" y="-281.5" font-family="Arial.ttf" font-size="10.00" fill="#000000">CVTrackedAruco.cpp</text>
</a>
</g>
</g>
<!-- Node2 -->
<g id="node2" class="node">
<title>Node2</title>
<g id="a_node2"><a xlink:href="_c_v_tracked_aruco_8h.html" target="_top" xlink:title=" ">
<polygon fill="#ffffff" stroke="#000000" points="469.7231,-220.5 469.7231,-238.5 569.8345,-238.5 569.8345,-220.5 469.7231,-220.5"/>
<text text-anchor="middle" x="519.7788" y="-226.5" font-family="Arial.ttf" font-size="10.00" fill="#000000">CVTrackedAruco.h</text>
</a>
</g>
</g>
<!-- Node1&#45;&gt;Node2 -->
<g id="edge1" class="edge">
<title>Node1&#45;&gt;Node2</title>
<path fill="none" stroke="#191970" d="M557.348,-275.4179C551.0026,-267.6624 541.6979,-256.29 533.9362,-246.8035"/>
<polygon fill="#191970" stroke="#191970" points="536.4124,-244.3027 527.3711,-238.7795 530.9946,-248.7354 536.4124,-244.3027"/>
</g>
<!-- Node20 -->
<g id="node20" class="node">
<title>Node20</title>
<g id="a_node20"><a xlink:href="_utils_8h.html" target="_top" xlink:title=" ">
<polygon fill="#ffffff" stroke="#000000" points="654.8872,-220.5 654.8872,-238.5 698.6704,-238.5 698.6704,-220.5 654.8872,-220.5"/>
<text text-anchor="middle" x="676.7788" y="-226.5" font-family="Arial.ttf" font-size="10.00" fill="#000000">Utils.h</text>
</a>
</g>
</g>
<!-- Node1&#45;&gt;Node20 -->
<g id="edge24" class="edge">
<title>Node1&#45;&gt;Node20</title>
<path fill="none" stroke="#191970" d="M583.2733,-275.4179C601.188,-266.6205 628.5799,-253.1691 649.0932,-243.0956"/>
<polygon fill="#191970" stroke="#191970" points="650.8235,-246.1452 658.2568,-238.5956 647.7379,-239.8619 650.8235,-246.1452"/>
</g>
<!-- Node3 -->
<g id="node3" class="node">
<title>Node3</title>
<g id="a_node3"><a xlink:href="_c_v_typedefs_8h.html" target="_top" xlink:title=" ">
<polygon fill="#ffffff" stroke="#000000" points="445.3701,-55.5 445.3701,-73.5 524.1875,-73.5 524.1875,-55.5 445.3701,-55.5"/>
<text text-anchor="middle" x="484.7788" y="-61.5" font-family="Arial.ttf" font-size="10.00" fill="#000000">CVTypedefs.h</text>
</a>
</g>
</g>
<!-- Node2&#45;&gt;Node3 -->
<g id="edge2" class="edge">
<title>Node2&#45;&gt;Node3</title>
<path fill="none" stroke="#191970" d="M485.8021,-220.4001C445.3484,-207.5356 379.6387,-179.7396 350.7788,-129 330.1457,-92.7242 388.9903,-76.5435 435.1733,-69.5437"/>
<polygon fill="#191970" stroke="#191970" points="435.6839,-73.0065 445.0985,-68.1469 434.7082,-66.0748 435.6839,-73.0065"/>
</g>
<!-- Node11 -->
<g id="node11" class="node">
<title>Node11</title>
<g id="a_node11"><a xlink:href="_c_v_tracked_8h.html" target="_top" xlink:title=" ">
<polygon fill="#ffffff" stroke="#000000" points="523.7847,-165.5 523.7847,-183.5 597.7729,-183.5 597.7729,-165.5 523.7847,-165.5"/>
<text text-anchor="middle" x="560.7788" y="-171.5" font-family="Arial.ttf" font-size="10.00" fill="#000000">CVTracked.h</text>
</a>
</g>
</g>
<!-- Node2&#45;&gt;Node11 -->
<g id="edge10" class="edge">
<title>Node2&#45;&gt;Node11</title>
<path fill="none" stroke="#191970" d="M526.5491,-220.4179C532.3305,-212.6624 540.8081,-201.29 547.8798,-191.8035"/>
<polygon fill="#191970" stroke="#191970" points="550.6908,-193.8888 553.8614,-183.7795 545.0786,-189.7051 550.6908,-193.8888"/>
</g>
<!-- Node19 -->
<g id="node19" class="node">
<title>Node19</title>
<g id="a_node19"><a xlink:title=" ">
<polygon fill="#ffffff" stroke="#bfbfbf" points="360.2471,-110.5 360.2471,-128.5 461.3105,-128.5 461.3105,-110.5 360.2471,-110.5"/>
<text text-anchor="middle" x="410.7788" y="-116.5" font-family="Arial.ttf" font-size="10.00" fill="#000000">opencv2/aruco.hpp</text>
</a>
</g>
</g>
<!-- Node2&#45;&gt;Node19 -->
<g id="edge23" class="edge">
<title>Node2&#45;&gt;Node19</title>
<path fill="none" stroke="#191970" d="M510.8589,-220.4982C492.4953,-201.9662 450.2388,-159.3221 426.9361,-135.8056"/>
<polygon fill="#191970" stroke="#191970" points="429.3469,-133.2659 419.822,-128.6261 424.3746,-138.193 429.3469,-133.2659"/>
</g>
<!-- Node4 -->
<g id="node4" class="node">
<title>Node4</title>
<g id="a_node4"><a xlink:title=" ">
<polygon fill="#ffffff" stroke="#bfbfbf" points="851.1631,-.5 851.1631,-18.5 894.3945,-18.5 894.3945,-.5 851.1631,-.5"/>
<text text-anchor="middle" x="872.7788" y="-6.5" font-family="Arial.ttf" font-size="10.00" fill="#000000">vector</text>
</a>
</g>
</g>
<!-- Node3&#45;&gt;Node4 -->
<g id="edge3" class="edge">
<title>Node3&#45;&gt;Node4</title>
<path fill="none" stroke="#191970" d="M524.2942,-56.4656C527.1616,-55.9482 530.0124,-55.4537 532.7788,-55 654.8539,-34.9804 686.2582,-36.0824 808.7788,-19 819.1826,-17.5494 830.5257,-15.891 840.7336,-14.37"/>
<polygon fill="#191970" stroke="#191970" points="841.5031,-17.7939 850.8733,-12.8493 840.4648,-10.8713 841.5031,-17.7939"/>
</g>
<!-- Node5 -->
<g id="node5" class="node">
<title>Node5</title>
<g id="a_node5"><a xlink:title=" ">
<polygon fill="#ffffff" stroke="#bfbfbf" points="293.9121,-.5 293.9121,-18.5 411.6455,-18.5 411.6455,-.5 293.9121,-.5"/>
<text text-anchor="middle" x="352.7788" y="-6.5" font-family="Arial.ttf" font-size="10.00" fill="#000000">opencv2/core/core.hpp</text>
</a>
</g>
</g>
<!-- Node3&#45;&gt;Node5 -->
<g id="edge4" class="edge">
<title>Node3&#45;&gt;Node5</title>
<path fill="none" stroke="#191970" d="M462.9817,-55.4179C441.4859,-46.4613 408.4124,-32.6806 384.1036,-22.552"/>
<polygon fill="#191970" stroke="#191970" points="385.1853,-19.2111 374.6083,-18.5956 382.4929,-25.6726 385.1853,-19.2111"/>
</g>
<!-- Node6 -->
<g id="node6" class="node">
<title>Node6</title>
<g id="a_node6"><a xlink:title=" ">
<polygon fill="#ffffff" stroke="#bfbfbf" points="429.2471,-.5 429.2471,-18.5 540.3105,-18.5 540.3105,-.5 429.2471,-.5"/>
<text text-anchor="middle" x="484.7788" y="-6.5" font-family="Arial.ttf" font-size="10.00" fill="#000000">opencv2/core/ocl.hpp</text>
</a>
</g>
</g>
<!-- Node3&#45;&gt;Node6 -->
<g id="edge5" class="edge">
<title>Node3&#45;&gt;Node6</title>
<path fill="none" stroke="#191970" d="M484.7788,-55.4179C484.7788,-48.2164 484.7788,-37.8962 484.7788,-28.8632"/>
<polygon fill="#191970" stroke="#191970" points="488.2789,-28.7794 484.7788,-18.7795 481.2789,-28.7795 488.2789,-28.7794"/>
</g>
<!-- Node7 -->
<g id="node7" class="node">
<title>Node7</title>
<g id="a_node7"><a xlink:title=" ">
<polygon fill="#ffffff" stroke="#bfbfbf" points="558.3037,-.5 558.3037,-18.5 653.2539,-18.5 653.2539,-.5 558.3037,-.5"/>
<text text-anchor="middle" x="605.7788" y="-6.5" font-family="Arial.ttf" font-size="10.00" fill="#000000">opencv2/face.hpp</text>
</a>
</g>
</g>
<!-- Node3&#45;&gt;Node7 -->
<g id="edge6" class="edge">
<title>Node3&#45;&gt;Node7</title>
<path fill="none" stroke="#191970" d="M504.7595,-55.4179C524.2889,-46.5409 554.2432,-32.9253 576.4683,-22.823"/>
<polygon fill="#191970" stroke="#191970" points="578.1131,-25.92 585.7684,-18.5956 575.2164,-19.5474 578.1131,-25.92"/>
</g>
<!-- Node8 -->
<g id="node8" class="node">
<title>Node8</title>
<g id="a_node8"><a xlink:title=" ">
<polygon fill="#ffffff" stroke="#bfbfbf" points="0,-.5 0,-18.5 107.5576,-18.5 107.5576,-.5 0,-.5"/>
<text text-anchor="middle" x="53.7788" y="-6.5" font-family="Arial.ttf" font-size="10.00" fill="#000000">opencv2/opencv.hpp</text>
</a>
</g>
</g>
<!-- Node3&#45;&gt;Node8 -->
<g id="edge7" class="edge">
<title>Node3&#45;&gt;Node8</title>
<path fill="none" stroke="#191970" d="M445.251,-59.9629C379.5855,-52.3493 243.6189,-36.2617 117.9104,-19.1252"/>
<polygon fill="#191970" stroke="#191970" points="118.1037,-15.6191 107.7215,-17.7308 117.1546,-22.5545 118.1037,-15.6191"/>
</g>
<!-- Node9 -->
<g id="node9" class="node">
<title>Node9</title>
<g id="a_node9"><a xlink:title=" ">
<polygon fill="#ffffff" stroke="#bfbfbf" points="671.6265,-.5 671.6265,-18.5 799.9312,-18.5 799.9312,-.5 671.6265,-.5"/>
<text text-anchor="middle" x="735.7788" y="-6.5" font-family="Arial.ttf" font-size="10.00" fill="#000000">opencv2/xfeatures2d.hpp</text>
</a>
</g>
</g>
<!-- Node3&#45;&gt;Node9 -->
<g id="edge8" class="edge">
<title>Node3&#45;&gt;Node9</title>
<path fill="none" stroke="#191970" d="M524.2737,-55.8457C567.5804,-46.3562 637.2133,-31.098 684.658,-20.7018"/>
<polygon fill="#191970" stroke="#191970" points="685.4089,-24.1204 694.428,-18.5609 683.9105,-17.2826 685.4089,-24.1204"/>
</g>
<!-- Node10 -->
<g id="node10" class="node">
<title>Node10</title>
<g id="a_node10"><a xlink:title=" ">
<polygon fill="#ffffff" stroke="#bfbfbf" points="125.7988,-.5 125.7988,-18.5 275.7588,-18.5 275.7588,-.5 125.7988,-.5"/>
<text text-anchor="middle" x="200.7788" y="-6.5" font-family="Arial.ttf" font-size="10.00" fill="#000000">opencv2/imgproc/imgproc.hpp</text>
</a>
</g>
</g>
<!-- Node3&#45;&gt;Node10 -->
<g id="edge9" class="edge">
<title>Node3&#45;&gt;Node10</title>
<path fill="none" stroke="#191970" d="M445.2898,-56.8525C396.5058,-47.4049 313.1579,-31.2636 257.5271,-20.49"/>
<polygon fill="#191970" stroke="#191970" points="257.9599,-17.0088 247.4768,-18.5436 256.6289,-23.8812 257.9599,-17.0088"/>
</g>
<!-- Node11&#45;&gt;Node3 -->
<g id="edge17" class="edge">
<title>Node11&#45;&gt;Node3</title>
<path fill="none" stroke="#191970" d="M546.6729,-165.1745C535.0956,-156.885 518.9995,-143.8092 508.7788,-129 499.3411,-115.3254 493.0749,-97.4746 489.3194,-84.0198"/>
<polygon fill="#191970" stroke="#191970" points="492.61,-82.7605 486.7408,-73.9399 485.8284,-84.4953 492.61,-82.7605"/>
</g>
<!-- Node11&#45;&gt;Node9 -->
<g id="edge22" class="edge">
<title>Node11&#45;&gt;Node9</title>
<path fill="none" stroke="#191970" d="M573.9942,-165.1877C585.3263,-156.7152 601.5537,-143.3688 612.7788,-129 635.5397,-99.8649 624.8601,-81.3653 650.7788,-55 664.6095,-40.931 683.7232,-30.1719 700.3231,-22.6573"/>
<polygon fill="#191970" stroke="#191970" points="701.9418,-25.7712 709.7475,-18.6072 699.178,-19.3399 701.9418,-25.7712"/>
</g>
<!-- Node12 -->
<g id="node12" class="node">
<title>Node12</title>
<g id="a_node12"><a xlink:href="_averaged_8h.html" target="_top" xlink:title=" ">
<polygon fill="#ffffff" stroke="#000000" points="803.293,-110.5 803.293,-128.5 870.2646,-128.5 870.2646,-110.5 803.293,-110.5"/>
<text text-anchor="middle" x="836.7788" y="-116.5" font-family="Arial.ttf" font-size="10.00" fill="#000000">Averaged.h</text>
</a>
</g>
</g>
<!-- Node11&#45;&gt;Node12 -->
<g id="edge11" class="edge">
<title>Node11&#45;&gt;Node12</title>
<path fill="none" stroke="#191970" d="M598.0014,-167.0825C648.7326,-156.973 739.4162,-138.902 793.2397,-128.1763"/>
<polygon fill="#191970" stroke="#191970" points="794.0434,-131.585 803.1665,-126.1981 792.6753,-124.72 794.0434,-131.585"/>
</g>
<!-- Node13 -->
<g id="node13" class="node">
<title>Node13</title>
<g id="a_node13"><a xlink:href="_high_res_timer_8h.html" target="_top" xlink:title=" ">
<polygon fill="#ffffff" stroke="#000000" points="673.1147,-110.5 673.1147,-128.5 760.4429,-128.5 760.4429,-110.5 673.1147,-110.5"/>
<text text-anchor="middle" x="716.7788" y="-116.5" font-family="Arial.ttf" font-size="10.00" fill="#000000">HighResTimer.h</text>
</a>
</g>
</g>
<!-- Node11&#45;&gt;Node13 -->
<g id="edge13" class="edge">
<title>Node11&#45;&gt;Node13</title>
<path fill="none" stroke="#191970" d="M586.539,-165.4179C612.4722,-156.2748 652.664,-142.1046 681.5397,-131.924"/>
<polygon fill="#191970" stroke="#191970" points="682.9724,-135.1302 691.2396,-128.5042 680.6448,-128.5285 682.9724,-135.1302"/>
</g>
<!-- Node17 -->
<g id="node17" class="node">
<title>Node17</title>
<g id="a_node17"><a xlink:href="_c_v_calibration_8h.html" target="_top" xlink:title=" ">
<polygon fill="#ffffff" stroke="#000000" points="517.7617,-110.5 517.7617,-128.5 603.7959,-128.5 603.7959,-110.5 517.7617,-110.5"/>
<text text-anchor="middle" x="560.7788" y="-116.5" font-family="Arial.ttf" font-size="10.00" fill="#000000">CVCalibration.h</text>
</a>
</g>
</g>
<!-- Node11&#45;&gt;Node17 -->
<g id="edge18" class="edge">
<title>Node11&#45;&gt;Node17</title>
<path fill="none" stroke="#191970" d="M560.7788,-165.4179C560.7788,-158.2164 560.7788,-147.8962 560.7788,-138.8632"/>
<polygon fill="#191970" stroke="#191970" points="564.2789,-138.7794 560.7788,-128.7795 557.2789,-138.7795 564.2789,-138.7794"/>
</g>
<!-- Node11&#45;&gt;Node19 -->
<g id="edge21" class="edge">
<title>Node11&#45;&gt;Node19</title>
<path fill="none" stroke="#191970" d="M536.0094,-165.4179C511.1825,-156.3147 472.765,-142.2283 445.0269,-132.0576"/>
<polygon fill="#191970" stroke="#191970" points="445.9294,-128.6608 435.3357,-128.5042 443.5196,-135.2329 445.9294,-128.6608"/>
</g>
<!-- Node12&#45;&gt;Node4 -->
<g id="edge12" class="edge">
<title>Node12&#45;&gt;Node4</title>
<path fill="none" stroke="#191970" d="M840.4914,-110.158C844.0748,-101.0084 849.5621,-86.6387 853.7788,-74 858.8079,-58.926 863.8609,-41.6458 867.4903,-28.7677"/>
<polygon fill="#191970" stroke="#191970" points="870.9689,-29.3221 870.277,-18.7499 864.225,-27.4461 870.9689,-29.3221"/>
</g>
<!-- Node14 -->
<g id="node14" class="node">
<title>Node14</title>
<g id="a_node14"><a xlink:title=" ">
<polygon fill="#ffffff" stroke="#bfbfbf" points="798.4907,-55.5 798.4907,-73.5 845.0669,-73.5 845.0669,-55.5 798.4907,-55.5"/>
<text text-anchor="middle" x="821.7788" y="-61.5" font-family="Arial.ttf" font-size="10.00" fill="#000000">chrono</text>
</a>
</g>
</g>
<!-- Node13&#45;&gt;Node14 -->
<g id="edge14" class="edge">
<title>Node13&#45;&gt;Node14</title>
<path fill="none" stroke="#191970" d="M734.1174,-110.4179C750.7604,-101.7001 776.1283,-88.4122 795.2999,-78.3699"/>
<polygon fill="#191970" stroke="#191970" points="797.1802,-81.3362 804.4144,-73.5956 793.9321,-75.1353 797.1802,-81.3362"/>
</g>
<!-- Node15 -->
<g id="node15" class="node">
<title>Node15</title>
<g id="a_node15"><a xlink:title=" ">
<polygon fill="#ffffff" stroke="#bfbfbf" points="659.375,-55.5 659.375,-73.5 718.1826,-73.5 718.1826,-55.5 659.375,-55.5"/>
<text text-anchor="middle" x="688.7788" y="-61.5" font-family="Arial.ttf" font-size="10.00" fill="#000000">functional</text>
</a>
</g>
</g>
<!-- Node13&#45;&gt;Node15 -->
<g id="edge15" class="edge">
<title>Node13&#45;&gt;Node15</title>
<path fill="none" stroke="#191970" d="M712.1552,-110.4179C708.3681,-102.9789 702.8869,-92.2123 698.1838,-82.9742"/>
<polygon fill="#191970" stroke="#191970" points="701.1589,-81.1032 693.5029,-73.7795 694.9207,-84.279 701.1589,-81.1032"/>
</g>
<!-- Node16 -->
<g id="node16" class="node">
<title>Node16</title>
<g id="a_node16"><a xlink:title=" ">
<polygon fill="#ffffff" stroke="#bfbfbf" points="736.6016,-55.5 736.6016,-73.5 780.9561,-73.5 780.9561,-55.5 736.6016,-55.5"/>
<text text-anchor="middle" x="758.7788" y="-61.5" font-family="Arial.ttf" font-size="10.00" fill="#000000">thread</text>
</a>
</g>
</g>
<!-- Node13&#45;&gt;Node16 -->
<g id="edge16" class="edge">
<title>Node13&#45;&gt;Node16</title>
<path fill="none" stroke="#191970" d="M723.7143,-110.4179C729.6366,-102.6624 738.321,-91.29 745.5652,-81.8035"/>
<polygon fill="#191970" stroke="#191970" points="748.4052,-83.8514 751.6927,-73.7795 742.8418,-79.6029 748.4052,-83.8514"/>
</g>
<!-- Node17&#45;&gt;Node3 -->
<g id="edge19" class="edge">
<title>Node17&#45;&gt;Node3</title>
<path fill="none" stroke="#191970" d="M548.229,-110.4179C536.6777,-102.0584 519.3196,-89.4966 505.6773,-79.6239"/>
<polygon fill="#191970" stroke="#191970" points="507.5004,-76.6229 497.3473,-73.5956 503.3965,-82.2938 507.5004,-76.6229"/>
</g>
<!-- Node18 -->
<g id="node18" class="node">
<title>Node18</title>
<g id="a_node18"><a xlink:title=" ">
<polygon fill="#ffffff" stroke="#bfbfbf" points="542.0474,-55.5 542.0474,-73.5 587.5103,-73.5 587.5103,-55.5 542.0474,-55.5"/>
<text text-anchor="middle" x="564.7788" y="-61.5" font-family="Arial.ttf" font-size="10.00" fill="#000000">ftplib.h</text>
</a>
</g>
</g>
<!-- Node17&#45;&gt;Node18 -->
<g id="edge20" class="edge">
<title>Node17&#45;&gt;Node18</title>
<path fill="none" stroke="#191970" d="M561.4393,-110.4179C561.9631,-103.2164 562.7136,-92.8962 563.3706,-83.8632"/>
<polygon fill="#191970" stroke="#191970" points="566.8693,-84.007 564.1039,-73.7795 559.8877,-83.4992 566.8693,-84.007"/>
</g>
<!-- Node20&#45;&gt;Node4 -->
<g id="edge26" class="edge">
<title>Node20&#45;&gt;Node4</title>
<path fill="none" stroke="#191970" d="M698.8696,-226.1613C742.4077,-218.2569 838.5582,-193.9343 878.7788,-129 897.9307,-98.0801 888.0783,-53.5554 879.9373,-28.4996"/>
<polygon fill="#191970" stroke="#191970" points="883.1378,-27.0482 876.5351,-18.7623 876.5295,-29.3571 883.1378,-27.0482"/>
</g>
<!-- Node21 -->
<g id="node21" class="node">
<title>Node21</title>
<g id="a_node21"><a xlink:title=" ">
<polygon fill="#ffffff" stroke="#bfbfbf" points="656.5522,-165.5 656.5522,-183.5 697.0054,-183.5 697.0054,-165.5 656.5522,-165.5"/>
<text text-anchor="middle" x="676.7788" y="-171.5" font-family="Arial.ttf" font-size="10.00" fill="#000000">string</text>
</a>
</g>
</g>
<!-- Node20&#45;&gt;Node21 -->
<g id="edge25" class="edge">
<title>Node20&#45;&gt;Node21</title>
<path fill="none" stroke="#191970" d="M676.7788,-220.4179C676.7788,-213.2164 676.7788,-202.8962 676.7788,-193.8632"/>
<polygon fill="#191970" stroke="#191970" points="680.2789,-193.7794 676.7788,-183.7795 673.2789,-193.7795 680.2789,-193.7794"/>
</g>
</g>
</svg>
