<?xml version="1.0" encoding="UTF-8" standalone="no"?>
<!DOCTYPE svg PUBLIC "-//W3C//DTD SVG 1.1//EN"
 "http://www.w3.org/Graphics/SVG/1.1/DTD/svg11.dtd">
<!-- Generated by graphviz version 2.40.1 (20161225.0304)
 -->
<!-- Title: CVFeatureManager.h Pages: 1 -->
<svg width="441pt" height="137pt"
 viewBox="0.00 0.00 440.90 137.00" xmlns="http://www.w3.org/2000/svg" xmlns:xlink="http://www.w3.org/1999/xlink">
<g id="graph0" class="graph" transform="scale(1 1) rotate(0) translate(4 133)">
<title>CVFeatureManager.h</title>
<polygon fill="#ffffff" stroke="transparent" points="-4,4 -4,-133 436.896,-133 436.896,4 -4,4"/>
<!-- Node1 -->
<g id="node1" class="node">
<title>Node1</title>
<g id="a_node1"><a xlink:title=" ">
<polygon fill="#bfbfbf" stroke="#000000" points="94.2808,-110.5 94.2808,-128.5 205.896,-128.5 205.896,-110.5 94.2808,-110.5"/>
<text text-anchor="middle" x="150.0884" y="-116.5" font-family="Arial.ttf" font-size="10.00" fill="#000000">CVFeatureManager.h</text>
</a>
</g>
</g>
<!-- Node2 -->
<g id="node2" class="node">
<title>Node2</title>
<g id="a_node2"><a xlink:href="_c_v_feature_manager_8cpp.html" target="_top" xlink:title=" ">
<polygon fill="#ffffff" stroke="#000000" points="0,-55.5 0,-73.5 122.1768,-73.5 122.1768,-55.5 0,-55.5"/>
<text text-anchor="middle" x="61.0884" y="-61.5" font-family="Arial.ttf" font-size="10.00" fill="#000000">CVFeatureManager.cpp</text>
</a>
</g>
</g>
<!-- Node1&#45;&gt;Node2 -->
<g id="edge1" class="edge">
<title>Node1&#45;&gt;Node2</title>
<path fill="none" stroke="#191970" d="M126.5487,-104.953C110.4466,-95.0023 89.599,-82.1189 75.8068,-73.5956"/>
<polygon fill="#191970" stroke="#191970" points="125.0451,-108.1382 135.3918,-110.4179 128.7251,-102.1835 125.0451,-108.1382"/>
</g>
<!-- Node3 -->
<g id="node3" class="node">
<title>Node3</title>
<g id="a_node3"><a xlink:href="_c_v_tracked_features_8cpp.html" target="_top" xlink:title=" ">
<polygon fill="#ffffff" stroke="#000000" points="77.082,-.5 77.082,-18.5 201.0947,-18.5 201.0947,-.5 77.082,-.5"/>
<text text-anchor="middle" x="139.0884" y="-6.5" font-family="Arial.ttf" font-size="10.00" fill="#000000">CVTrackedFeatures.cpp</text>
</a>
</g>
</g>
<!-- Node1&#45;&gt;Node3 -->
<g id="edge2" class="edge">
<title>Node1&#45;&gt;Node3</title>
<path fill="none" stroke="#191970" d="M148.1899,-100.5152C145.8003,-76.6191 141.792,-36.5362 140.001,-18.6261"/>
<polygon fill="#191970" stroke="#191970" points="144.7104,-100.8962 149.1882,-110.4982 151.6757,-100.1996 144.7104,-100.8962"/>
</g>
<!-- Node4 -->
<g id="node4" class="node">
<title>Node4</title>
<g id="a_node4"><a xlink:href="_c_v_tracked_features_8h.html" target="_top" xlink:title=" ">
<polygon fill="#ffffff" stroke="#000000" points="199.3628,-55.5 199.3628,-73.5 312.814,-73.5 312.814,-55.5 199.3628,-55.5"/>
<text text-anchor="middle" x="256.0884" y="-61.5" font-family="Arial.ttf" font-size="10.00" fill="#000000">CVTrackedFeatures.h</text>
</a>
</g>
</g>
<!-- Node1&#45;&gt;Node4 -->
<g id="edge3" class="edge">
<title>Node1&#45;&gt;Node4</title>
<path fill="none" stroke="#191970" d="M176.5249,-105.7829C195.9032,-95.7282 221.6713,-82.3579 238.5586,-73.5956"/>
<polygon fill="#191970" stroke="#191970" points="174.8564,-102.7055 167.5921,-110.4179 178.0804,-108.9189 174.8564,-102.7055"/>
</g>
<!-- Node4&#45;&gt;Node3 -->
<g id="edge4" class="edge">
<title>Node4&#45;&gt;Node3</title>
<path fill="none" stroke="#191970" d="M227.49,-51.0563C206.0371,-40.9716 177.2465,-27.4376 158.4373,-18.5956"/>
<polygon fill="#191970" stroke="#191970" points="226.2293,-54.331 236.7682,-55.4179 229.2073,-47.9961 226.2293,-54.331"/>
</g>
<!-- Node5 -->
<g id="node5" class="node">
<title>Node5</title>
<g id="a_node5"><a xlink:href="_app_demo_gui_8cpp.html" target="_top" xlink:title=" ">
<polygon fill="#ffffff" stroke="#000000" points="218.623,-.5 218.623,-18.5 313.5537,-18.5 313.5537,-.5 218.623,-.5"/>
<text text-anchor="middle" x="266.0884" y="-6.5" font-family="Arial.ttf" font-size="10.00" fill="#000000">AppDemoGui.cpp</text>
</a>
</g>
</g>
<!-- Node4&#45;&gt;Node5 -->
<g id="edge5" class="edge">
<title>Node4&#45;&gt;Node5</title>
<path fill="none" stroke="#191970" d="M259.5642,-45.383C261.2022,-36.3738 263.0816,-26.0373 264.4012,-18.7795"/>
<polygon fill="#191970" stroke="#191970" points="256.0851,-44.953 257.7397,-55.4179 262.9722,-46.2053 256.0851,-44.953"/>
</g>
<!-- Node6 -->
<g id="node6" class="node">
<title>Node6</title>
<g id="a_node6"><a xlink:href="_app_demo_load_8cpp.html" target="_top" xlink:title=" ">
<polygon fill="#ffffff" stroke="#000000" points="331.2808,-.5 331.2808,-18.5 432.896,-18.5 432.896,-.5 331.2808,-.5"/>
<text text-anchor="middle" x="382.0884" y="-6.5" font-family="Arial.ttf" font-size="10.00" fill="#000000">AppDemoLoad.cpp</text>
</a>
</g>
</g>
<!-- Node4&#45;&gt;Node6 -->
<g id="edge6" class="edge">
<title>Node4&#45;&gt;Node6</title>
<path fill="none" stroke="#191970" d="M286.2641,-51.328C309.4302,-41.2159 340.8125,-27.5172 361.2511,-18.5956"/>
<polygon fill="#191970" stroke="#191970" points="284.6594,-48.2095 276.8947,-55.4179 287.4598,-54.625 284.6594,-48.2095"/>
</g>
</g>
</svg>
