<?xml version="1.0" encoding="UTF-8" standalone="no"?>
<!DOCTYPE svg PUBLIC "-//W3C//DTD SVG 1.1//EN"
 "http://www.w3.org/Graphics/SVG/1.1/DTD/svg11.dtd">
<!-- Generated by graphviz version 2.40.1 (20161225.0304)
 -->
<!-- Title: CVTrackedAruco.h Pages: 1 -->
<svg width="1114pt" height="252pt"
 viewBox="0.00 0.00 1114.00 252.00" xmlns="http://www.w3.org/2000/svg" xmlns:xlink="http://www.w3.org/1999/xlink">
<g id="graph0" class="graph" transform="scale(1 1) rotate(0) translate(4 248)">
<title>CVTrackedAruco.h</title>
<polygon fill="#ffffff" stroke="transparent" points="-4,4 -4,-248 1110,-248 1110,4 -4,4"/>
<!-- Node1 -->
<g id="node1" class="node">
<title>Node1</title>
<g id="a_node1"><a xlink:title=" ">
<polygon fill="#bfbfbf" stroke="#000000" points="720.5,-224.5 720.5,-243.5 821.5,-243.5 821.5,-224.5 720.5,-224.5"/>
<text text-anchor="middle" x="771" y="-231.5" font-family="Arial.ttf" font-size="10.00" fill="#000000">CVTrackedAruco.h</text>
</a>
</g>
</g>
<!-- Node2 -->
<g id="node2" class="node">
<title>Node2</title>
<g id="a_node2"><a xlink:href="_c_v_typedefs_8h.html" target="_top" xlink:title=" ">
<polygon fill="#ffffff" stroke="#000000" points="551.5,-56.5 551.5,-75.5 644.5,-75.5 644.5,-56.5 551.5,-56.5"/>
<text text-anchor="middle" x="598" y="-63.5" font-family="Arial.ttf" font-size="10.00" fill="#000000">cv/CVTypedefs.h</text>
</a>
</g>
</g>
<!-- Node1&#45;&gt;Node2 -->
<g id="edge1" class="edge">
<title>Node1&#45;&gt;Node2</title>
<path fill="none" stroke="#191970" d="M720.1849,-226.8782C666.6805,-216.3729 585.0354,-191.1128 547,-132 535.3508,-113.8953 554.4329,-94.5594 572.4808,-81.5285"/>
<polygon fill="#191970" stroke="#191970" points="574.8064,-84.1803 581.1185,-75.671 570.8776,-78.3868 574.8064,-84.1803"/>
</g>
<!-- Node10 -->
<g id="node10" class="node">
<title>Node10</title>
<g id="a_node10"><a xlink:href="_c_v_tracked_8h.html" target="_top" xlink:title=" ">
<polygon fill="#ffffff" stroke="#000000" points="727,-168.5 727,-187.5 815,-187.5 815,-168.5 727,-168.5"/>
<text text-anchor="middle" x="771" y="-175.5" font-family="Arial.ttf" font-size="10.00" fill="#000000">cv/CVTracked.h</text>
</a>
</g>
</g>
<!-- Node1&#45;&gt;Node10 -->
<g id="edge9" class="edge">
<title>Node1&#45;&gt;Node10</title>
<path fill="none" stroke="#191970" d="M771,-224.2455C771,-216.9382 771,-206.6944 771,-197.7046"/>
<polygon fill="#191970" stroke="#191970" points="774.5001,-197.6426 771,-187.6427 767.5001,-197.6427 774.5001,-197.6426"/>
</g>
<!-- Node21 -->
<g id="node21" class="node">
<title>Node21</title>
<g id="a_node21"><a xlink:title=" ">
<polygon fill="#ffffff" stroke="#bfbfbf" points="993,-112.5 993,-131.5 1095,-131.5 1095,-112.5 993,-112.5"/>
<text text-anchor="middle" x="1044" y="-119.5" font-family="Arial.ttf" font-size="10.00" fill="#000000">opencv2/aruco.hpp</text>
</a>
</g>
</g>
<!-- Node1&#45;&gt;Node21 -->
<g id="edge25" class="edge">
<title>Node1&#45;&gt;Node21</title>
<path fill="none" stroke="#191970" d="M794.2758,-224.4509C842.9318,-204.4895 955.5112,-158.3031 1011.3625,-135.3897"/>
<polygon fill="#191970" stroke="#191970" points="1012.8599,-138.5586 1020.7831,-131.5249 1010.2029,-132.0824 1012.8599,-138.5586"/>
</g>
<!-- Node3 -->
<g id="node3" class="node">
<title>Node3</title>
<g id="a_node3"><a xlink:title=" ">
<polygon fill="#ffffff" stroke="#bfbfbf" points="949,-.5 949,-19.5 993,-19.5 993,-.5 949,-.5"/>
<text text-anchor="middle" x="971" y="-7.5" font-family="Arial.ttf" font-size="10.00" fill="#000000">vector</text>
</a>
</g>
</g>
<!-- Node2&#45;&gt;Node3 -->
<g id="edge2" class="edge">
<title>Node2&#45;&gt;Node3</title>
<path fill="none" stroke="#191970" d="M644.6569,-62.3798C708.9889,-56.8072 828.5829,-44.3612 938.8265,-19.936"/>
<polygon fill="#191970" stroke="#191970" points="939.7957,-23.3054 948.781,-17.6916 938.256,-16.4769 939.7957,-23.3054"/>
</g>
<!-- Node4 -->
<g id="node4" class="node">
<title>Node4</title>
<g id="a_node4"><a xlink:title=" ">
<polygon fill="#ffffff" stroke="#bfbfbf" points="535,-.5 535,-19.5 653,-19.5 653,-.5 535,-.5"/>
<text text-anchor="middle" x="594" y="-7.5" font-family="Arial.ttf" font-size="10.00" fill="#000000">opencv2/core/core.hpp</text>
</a>
</g>
</g>
<!-- Node2&#45;&gt;Node4 -->
<g id="edge3" class="edge">
<title>Node2&#45;&gt;Node4</title>
<path fill="none" stroke="#191970" d="M597.3033,-56.2455C596.7813,-48.9382 596.0496,-38.6944 595.4075,-29.7046"/>
<polygon fill="#191970" stroke="#191970" points="598.8924,-29.3679 594.6888,-19.6427 591.9102,-29.8667 598.8924,-29.3679"/>
</g>
<!-- Node5 -->
<g id="node5" class="node">
<title>Node5</title>
<g id="a_node5"><a xlink:title=" ">
<polygon fill="#ffffff" stroke="#bfbfbf" points="671,-.5 671,-19.5 783,-19.5 783,-.5 671,-.5"/>
<text text-anchor="middle" x="727" y="-7.5" font-family="Arial.ttf" font-size="10.00" fill="#000000">opencv2/core/ocl.hpp</text>
</a>
</g>
</g>
<!-- Node2&#45;&gt;Node5 -->
<g id="edge4" class="edge">
<title>Node2&#45;&gt;Node5</title>
<path fill="none" stroke="#191970" d="M620.1759,-56.3733C640.9766,-47.3435 672.2917,-33.7494 695.6458,-23.6111"/>
<polygon fill="#191970" stroke="#191970" points="697.3343,-26.6938 705.1135,-19.5011 694.5468,-20.2727 697.3343,-26.6938"/>
</g>
<!-- Node6 -->
<g id="node6" class="node">
<title>Node6</title>
<g id="a_node6"><a xlink:title=" ">
<polygon fill="#ffffff" stroke="#bfbfbf" points="126.5,-.5 126.5,-19.5 221.5,-19.5 221.5,-.5 126.5,-.5"/>
<text text-anchor="middle" x="174" y="-7.5" font-family="Arial.ttf" font-size="10.00" fill="#000000">opencv2/face.hpp</text>
</a>
</g>
</g>
<!-- Node2&#45;&gt;Node6 -->
<g id="edge5" class="edge">
<title>Node2&#45;&gt;Node6</title>
<path fill="none" stroke="#191970" d="M551.4186,-60.9689C483.3855,-53.4468 352.6226,-38.3324 231.7959,-20.2154"/>
<polygon fill="#191970" stroke="#191970" points="232.0413,-16.7129 221.6308,-18.6805 230.9961,-23.6344 232.0413,-16.7129"/>
</g>
<!-- Node7 -->
<g id="node7" class="node">
<title>Node7</title>
<g id="a_node7"><a xlink:title=" ">
<polygon fill="#ffffff" stroke="#bfbfbf" points="239.5,-.5 239.5,-19.5 348.5,-19.5 348.5,-.5 239.5,-.5"/>
<text text-anchor="middle" x="294" y="-7.5" font-family="Arial.ttf" font-size="10.00" fill="#000000">opencv2/opencv.hpp</text>
</a>
</g>
</g>
<!-- Node2&#45;&gt;Node7 -->
<g id="edge6" class="edge">
<title>Node2&#45;&gt;Node7</title>
<path fill="none" stroke="#191970" d="M551.498,-57.4338C499.0913,-47.78 413.669,-32.0443 355.7133,-21.3682"/>
<polygon fill="#191970" stroke="#191970" points="356.0529,-17.872 345.5842,-19.5024 354.7847,-24.7562 356.0529,-17.872"/>
</g>
<!-- Node8 -->
<g id="node8" class="node">
<title>Node8</title>
<g id="a_node8"><a xlink:title=" ">
<polygon fill="#ffffff" stroke="#bfbfbf" points="801.5,-.5 801.5,-19.5 930.5,-19.5 930.5,-.5 801.5,-.5"/>
<text text-anchor="middle" x="866" y="-7.5" font-family="Arial.ttf" font-size="10.00" fill="#000000">opencv2/xfeatures2d.hpp</text>
</a>
</g>
</g>
<!-- Node2&#45;&gt;Node8 -->
<g id="edge7" class="edge">
<title>Node2&#45;&gt;Node8</title>
<path fill="none" stroke="#191970" d="M643.7663,-56.4369C689.9215,-46.7925 761.2178,-31.8948 810.5537,-21.5858"/>
<polygon fill="#191970" stroke="#191970" points="811.3498,-24.9951 820.4224,-19.5237 809.9179,-18.1431 811.3498,-24.9951"/>
</g>
<!-- Node9 -->
<g id="node9" class="node">
<title>Node9</title>
<g id="a_node9"><a xlink:title=" ">
<polygon fill="#ffffff" stroke="#bfbfbf" points="367,-.5 367,-19.5 517,-19.5 517,-.5 367,-.5"/>
<text text-anchor="middle" x="442" y="-7.5" font-family="Arial.ttf" font-size="10.00" fill="#000000">opencv2/imgproc/imgproc.hpp</text>
</a>
</g>
</g>
<!-- Node2&#45;&gt;Node9 -->
<g id="edge8" class="edge">
<title>Node2&#45;&gt;Node9</title>
<path fill="none" stroke="#191970" d="M571.1826,-56.3733C545.4668,-47.1419 506.462,-33.1402 478.0401,-22.9375"/>
<polygon fill="#191970" stroke="#191970" points="479.0619,-19.5857 468.4674,-19.5011 476.6968,-26.174 479.0619,-19.5857"/>
</g>
<!-- Node10&#45;&gt;Node2 -->
<g id="edge18" class="edge">
<title>Node10&#45;&gt;Node2</title>
<path fill="none" stroke="#191970" d="M756.2501,-168.4509C726.119,-148.9441 657.3038,-104.3932 621.1555,-80.9909"/>
<polygon fill="#191970" stroke="#191970" points="623.0091,-78.0214 612.7125,-75.5249 619.2049,-83.8975 623.0091,-78.0214"/>
</g>
<!-- Node10&#45;&gt;Node8 -->
<g id="edge24" class="edge">
<title>Node10&#45;&gt;Node8</title>
<path fill="none" stroke="#191970" d="M763.7386,-168.1766C748.3916,-146.1159 716.0424,-91.7783 741,-56 750.0429,-43.0364 785.073,-30.8007 815.757,-22.2121"/>
<polygon fill="#191970" stroke="#191970" points="816.7968,-25.5566 825.5282,-19.5555 814.9602,-18.8018 816.7968,-25.5566"/>
</g>
<!-- Node11 -->
<g id="node11" class="node">
<title>Node11</title>
<g id="a_node11"><a xlink:href="_averaged_8h.html" target="_top" xlink:title=" ">
<polygon fill="#ffffff" stroke="#000000" points="907,-112.5 907,-131.5 975,-131.5 975,-112.5 907,-112.5"/>
<text text-anchor="middle" x="941" y="-119.5" font-family="Arial.ttf" font-size="10.00" fill="#000000">Averaged.h</text>
</a>
</g>
</g>
<!-- Node10&#45;&gt;Node11 -->
<g id="edge10" class="edge">
<title>Node10&#45;&gt;Node11</title>
<path fill="none" stroke="#191970" d="M800.224,-168.3733C828.4925,-159.0613 871.4965,-144.8953 902.5344,-134.671"/>
<polygon fill="#191970" stroke="#191970" points="903.7544,-137.9542 912.1573,-131.5011 901.5643,-131.3056 903.7544,-137.9542"/>
</g>
<!-- Node14 -->
<g id="node14" class="node">
<title>Node14</title>
<g id="a_node14"><a xlink:href="_high_res_timer_8h.html" target="_top" xlink:title=" ">
<polygon fill="#ffffff" stroke="#000000" points="775.5,-112.5 775.5,-131.5 864.5,-131.5 864.5,-112.5 775.5,-112.5"/>
<text text-anchor="middle" x="820" y="-119.5" font-family="Arial.ttf" font-size="10.00" fill="#000000">HighResTimer.h</text>
</a>
</g>
</g>
<!-- Node10&#45;&gt;Node14 -->
<g id="edge14" class="edge">
<title>Node10&#45;&gt;Node14</title>
<path fill="none" stroke="#191970" d="M779.5351,-168.2455C786.4912,-160.2958 796.4883,-148.8706 804.8051,-139.3656"/>
<polygon fill="#191970" stroke="#191970" points="807.6116,-141.4732 811.5627,-131.6427 802.3436,-136.8637 807.6116,-141.4732"/>
</g>
<!-- Node18 -->
<g id="node18" class="node">
<title>Node18</title>
<g id="a_node18"><a xlink:href="_c_v_calibration_8h.html" target="_top" xlink:title=" ">
<polygon fill="#ffffff" stroke="#000000" points="556.5,-112.5 556.5,-131.5 655.5,-131.5 655.5,-112.5 556.5,-112.5"/>
<text text-anchor="middle" x="606" y="-119.5" font-family="Arial.ttf" font-size="10.00" fill="#000000">cv/CVCalibration.h</text>
</a>
</g>
</g>
<!-- Node10&#45;&gt;Node18 -->
<g id="edge19" class="edge">
<title>Node10&#45;&gt;Node18</title>
<path fill="none" stroke="#191970" d="M742.6355,-168.3733C715.3173,-159.1016 673.8204,-145.0178 643.7262,-134.804"/>
<polygon fill="#191970" stroke="#191970" points="644.5887,-131.4008 633.9944,-131.5011 642.339,-138.0294 644.5887,-131.4008"/>
</g>
<!-- Node10&#45;&gt;Node21 -->
<g id="edge23" class="edge">
<title>Node10&#45;&gt;Node21</title>
<path fill="none" stroke="#191970" d="M815.1656,-168.9404C862.1357,-159.3055 936.5655,-144.0379 987.7108,-133.5465"/>
<polygon fill="#191970" stroke="#191970" points="988.5217,-136.9531 997.6144,-131.515 987.115,-130.0959 988.5217,-136.9531"/>
</g>
<!-- Node11&#45;&gt;Node3 -->
<g id="edge12" class="edge">
<title>Node11&#45;&gt;Node3</title>
<path fill="none" stroke="#191970" d="M943.5578,-112.4509C948.4729,-94.1013 959.3239,-53.5908 965.8118,-29.3693"/>
<polygon fill="#191970" stroke="#191970" points="969.2421,-30.09 968.4487,-19.5249 962.4804,-28.2788 969.2421,-30.09"/>
</g>
<!-- Node12 -->
<g id="node12" class="node">
<title>Node12</title>
<g id="a_node12"><a xlink:title=" ">
<polygon fill="#ffffff" stroke="#bfbfbf" points="994.5,-56.5 994.5,-75.5 1035.5,-75.5 1035.5,-56.5 994.5,-56.5"/>
<text text-anchor="middle" x="1015" y="-63.5" font-family="Arial.ttf" font-size="10.00" fill="#000000">string</text>
</a>
</g>
</g>
<!-- Node11&#45;&gt;Node12 -->
<g id="edge11" class="edge">
<title>Node11&#45;&gt;Node12</title>
<path fill="none" stroke="#191970" d="M953.8898,-112.2455C964.9254,-103.8943 981.0292,-91.7076 993.9353,-81.9408"/>
<polygon fill="#191970" stroke="#191970" points="996.3959,-84.4681 1002.2579,-75.6427 992.1717,-78.8862 996.3959,-84.4681"/>
</g>
<!-- Node13 -->
<g id="node13" class="node">
<title>Node13</title>
<g id="a_node13"><a xlink:title=" ">
<polygon fill="#ffffff" stroke="#bfbfbf" points="1054,-56.5 1054,-75.5 1106,-75.5 1106,-56.5 1054,-56.5"/>
<text text-anchor="middle" x="1080" y="-63.5" font-family="Arial.ttf" font-size="10.00" fill="#000000">assert.h</text>
</a>
</g>
</g>
<!-- Node11&#45;&gt;Node13 -->
<g id="edge13" class="edge">
<title>Node11&#45;&gt;Node13</title>
<path fill="none" stroke="#191970" d="M964.895,-112.3733C987.5082,-103.2629 1021.6542,-89.5062 1046.8873,-79.3404"/>
<polygon fill="#191970" stroke="#191970" points="1048.4493,-82.4845 1056.4169,-75.5011 1045.8334,-75.9917 1048.4493,-82.4845"/>
</g>
<!-- Node15 -->
<g id="node15" class="node">
<title>Node15</title>
<g id="a_node15"><a xlink:title=" ">
<polygon fill="#ffffff" stroke="#bfbfbf" points="750.5,-56.5 750.5,-75.5 797.5,-75.5 797.5,-56.5 750.5,-56.5"/>
<text text-anchor="middle" x="774" y="-63.5" font-family="Arial.ttf" font-size="10.00" fill="#000000">chrono</text>
</a>
</g>
</g>
<!-- Node14&#45;&gt;Node15 -->
<g id="edge15" class="edge">
<title>Node14&#45;&gt;Node15</title>
<path fill="none" stroke="#191970" d="M811.9874,-112.2455C805.5232,-104.3761 796.2615,-93.101 788.5017,-83.6542"/>
<polygon fill="#191970" stroke="#191970" points="790.9727,-81.1484 781.9208,-75.6427 785.5636,-85.5916 790.9727,-81.1484"/>
</g>
<!-- Node16 -->
<g id="node16" class="node">
<title>Node16</title>
<g id="a_node16"><a xlink:title=" ">
<polygon fill="#ffffff" stroke="#bfbfbf" points="815.5,-56.5 815.5,-75.5 874.5,-75.5 874.5,-56.5 815.5,-56.5"/>
<text text-anchor="middle" x="845" y="-63.5" font-family="Arial.ttf" font-size="10.00" fill="#000000">functional</text>
</a>
</g>
</g>
<!-- Node14&#45;&gt;Node16 -->
<g id="edge16" class="edge">
<title>Node14&#45;&gt;Node16</title>
<path fill="none" stroke="#191970" d="M824.3547,-112.2455C827.7244,-104.6973 832.493,-94.0158 836.5983,-84.8197"/>
<polygon fill="#191970" stroke="#191970" points="839.8147,-86.2009 840.6952,-75.6427 833.4227,-83.3473 839.8147,-86.2009"/>
</g>
<!-- Node17 -->
<g id="node17" class="node">
<title>Node17</title>
<g id="a_node17"><a xlink:title=" ">
<polygon fill="#ffffff" stroke="#bfbfbf" points="892.5,-56.5 892.5,-75.5 937.5,-75.5 937.5,-56.5 892.5,-56.5"/>
<text text-anchor="middle" x="915" y="-63.5" font-family="Arial.ttf" font-size="10.00" fill="#000000">thread</text>
</a>
</g>
</g>
<!-- Node14&#45;&gt;Node17 -->
<g id="edge17" class="edge">
<title>Node14&#45;&gt;Node17</title>
<path fill="none" stroke="#191970" d="M836.5477,-112.2455C851.2599,-103.5731 872.9888,-90.7645 889.8505,-80.825"/>
<polygon fill="#191970" stroke="#191970" points="891.8046,-83.736 898.6419,-75.6427 888.2498,-77.7057 891.8046,-83.736"/>
</g>
<!-- Node18&#45;&gt;Node2 -->
<g id="edge20" class="edge">
<title>Node18&#45;&gt;Node2</title>
<path fill="none" stroke="#191970" d="M604.6065,-112.2455C603.5626,-104.9382 602.0992,-94.6944 600.8149,-85.7046"/>
<polygon fill="#191970" stroke="#191970" points="604.2566,-85.0472 599.3775,-75.6427 597.327,-86.0372 604.2566,-85.0472"/>
</g>
<!-- Node19 -->
<g id="node19" class="node">
<title>Node19</title>
<g id="a_node19"><a xlink:href="_c_v_types_8h.html" target="_top" xlink:title=" ">
<polygon fill="#ffffff" stroke="#000000" points="236.5,-56.5 236.5,-75.5 315.5,-75.5 315.5,-56.5 236.5,-56.5"/>
<text text-anchor="middle" x="276" y="-63.5" font-family="Arial.ttf" font-size="10.00" fill="#000000">cv/CVTypes.h</text>
</a>
</g>
</g>
<!-- Node18&#45;&gt;Node19 -->
<g id="edge21" class="edge">
<title>Node18&#45;&gt;Node19</title>
<path fill="none" stroke="#191970" d="M556.2384,-113.5556C493.9838,-102.9912 388.0139,-85.0084 325.7601,-74.4441"/>
<polygon fill="#191970" stroke="#191970" points="326.2292,-70.9738 315.7846,-72.7513 325.058,-77.8751 326.2292,-70.9738"/>
</g>
<!-- Node20 -->
<g id="node20" class="node">
<title>Node20</title>
<g id="a_node20"><a xlink:title=" ">
<polygon fill="#ffffff" stroke="#bfbfbf" points="0,-.5 0,-19.5 108,-19.5 108,-.5 0,-.5"/>
<text text-anchor="middle" x="54" y="-7.5" font-family="Arial.ttf" font-size="10.00" fill="#000000">opencv2/calib3d.hpp</text>
</a>
</g>
</g>
<!-- Node19&#45;&gt;Node20 -->
<g id="edge22" class="edge">
<title>Node19&#45;&gt;Node20</title>
<path fill="none" stroke="#191970" d="M238.0891,-56.4369C200.335,-46.9133 142.2735,-32.2672 101.4736,-21.9753"/>
<polygon fill="#191970" stroke="#191970" points="102.3069,-18.576 91.7546,-19.5237 100.5947,-25.3633 102.3069,-18.576"/>
</g>
</g>
</svg>
