<?xml version="1.0" encoding="UTF-8" standalone="no"?>
<!DOCTYPE svg PUBLIC "-//W3C//DTD SVG 1.1//EN"
 "http://www.w3.org/Graphics/SVG/1.1/DTD/svg11.dtd">
<!-- Generated by graphviz version 3.0.0 (20220226.1711)
 -->
<!-- Title: CVTrackedFaces.cpp Pages: 1 -->
<svg width="1900pt" height="588pt"
 viewBox="0.00 0.00 1900.03 588.00" xmlns="http://www.w3.org/2000/svg" xmlns:xlink="http://www.w3.org/1999/xlink">
<g id="graph0" class="graph" transform="scale(1 1) rotate(0) translate(4 584)">
<title>CVTrackedFaces.cpp</title>
<polygon fill="white" stroke="transparent" points="-4,4 -4,-584 1896.03,-584 1896.03,4 -4,4"/>
<!-- Node1 -->
<g id="node1" class="node">
<title>Node1</title>
<g id="a_node1"><a xlink:title=" ">
<polygon fill="#bfbfbf" stroke="black" points="978.03,-560.5 978.03,-579.5 1090.03,-579.5 1090.03,-560.5 978.03,-560.5"/>
<text text-anchor="middle" x="1034.03" y="-567.5" font-family="Arial" font-size="10.00">CVTrackedFaces.cpp</text>
</a>
</g>
</g>
<!-- Node2 -->
<g id="node2" class="node">
<title>Node2</title>
<g id="a_node2"><a xlink:href="_c_v_tracked_faces_8h.html" target="_top" xlink:title=" ">
<polygon fill="white" stroke="black" points="976.53,-504.5 976.53,-523.5 1091.53,-523.5 1091.53,-504.5 976.53,-504.5"/>
<text text-anchor="middle" x="1034.03" y="-511.5" font-family="Arial" font-size="10.00">cv/CVTrackedFaces.h</text>
</a>
</g>
</g>
<!-- Node1&#45;&gt;Node2 -->
<g id="edge1" class="edge">
<title>Node1&#45;&gt;Node2</title>
<path fill="none" stroke="midnightblue" d="M1034.03,-560.08C1034.03,-553.01 1034.03,-542.86 1034.03,-533.99"/>
<polygon fill="midnightblue" stroke="midnightblue" points="1037.53,-533.75 1034.03,-523.75 1030.53,-533.75 1037.53,-533.75"/>
</g>
<!-- Node27 -->
<g id="node27" class="node">
<title>Node27</title>
<g id="a_node27"><a xlink:href="_utils_8h.html" target="_top" xlink:title=" ">
<polygon fill="white" stroke="black" points="433.53,-112.5 433.53,-131.5 478.53,-131.5 478.53,-112.5 433.53,-112.5"/>
<text text-anchor="middle" x="456.03" y="-119.5" font-family="Arial" font-size="10.00">Utils.h</text>
</a>
</g>
</g>
<!-- Node1&#45;&gt;Node27 -->
<g id="edge69" class="edge">
<title>Node1&#45;&gt;Node27</title>
<path fill="none" stroke="midnightblue" d="M977.76,-568.97C762.19,-568.11 1.03,-558.08 1.03,-459 1.03,-459 1.03,-459 1.03,-233 1.03,-202.9 -3.09,-187.27 20.03,-168 50.88,-142.3 327.29,-128.39 423.33,-124.3"/>
<polygon fill="midnightblue" stroke="midnightblue" points="423.5,-127.79 433.35,-123.88 423.21,-120.8 423.5,-127.79"/>
</g>
<!-- Node43 -->
<g id="node43" class="node">
<title>Node43</title>
<g id="a_node43"><a xlink:href="_profiler_8h.html" target="_top" xlink:title=" ">
<polygon fill="white" stroke="black" points="1104.03,-112.5 1104.03,-131.5 1160.03,-131.5 1160.03,-112.5 1104.03,-112.5"/>
<text text-anchor="middle" x="1132.03" y="-119.5" font-family="Arial" font-size="10.00">Profiler.h</text>
</a>
</g>
</g>
<!-- Node1&#45;&gt;Node43 -->
<g id="edge70" class="edge">
<title>Node1&#45;&gt;Node43</title>
<path fill="none" stroke="midnightblue" d="M1090.33,-567.72C1281.21,-562.65 1892.03,-540.1 1892.03,-459 1892.03,-459 1892.03,-459 1892.03,-233 1892.03,-159.36 1325.91,-130.89 1170.88,-124.48"/>
<polygon fill="midnightblue" stroke="midnightblue" points="1170.57,-120.97 1160.44,-124.06 1170.29,-127.96 1170.57,-120.97"/>
</g>
<!-- Node3 -->
<g id="node3" class="node">
<title>Node3</title>
<g id="a_node3"><a xlink:href="_c_v_typedefs_8h.html" target="_top" xlink:title=" ">
<polygon fill="white" stroke="black" points="1095.03,-336.5 1095.03,-355.5 1187.03,-355.5 1187.03,-336.5 1095.03,-336.5"/>
<text text-anchor="middle" x="1141.03" y="-343.5" font-family="Arial" font-size="10.00">cv/CVTypedefs.h</text>
</a>
</g>
</g>
<!-- Node2&#45;&gt;Node3 -->
<g id="edge2" class="edge">
<title>Node2&#45;&gt;Node3</title>
<path fill="none" stroke="midnightblue" d="M1044.05,-504.31C1062.22,-488.01 1100.71,-450.97 1122.03,-412 1129.97,-397.5 1134.92,-379.31 1137.77,-365.87"/>
<polygon fill="midnightblue" stroke="midnightblue" points="1141.24,-366.36 1139.69,-355.88 1134.36,-365.04 1141.24,-366.36"/>
</g>
<!-- Node11 -->
<g id="node11" class="node">
<title>Node11</title>
<g id="a_node11"><a xlink:href="_c_v_tracked_8h.html" target="_top" xlink:title=" ">
<polygon fill="white" stroke="black" points="862.03,-448.5 862.03,-467.5 950.03,-467.5 950.03,-448.5 862.03,-448.5"/>
<text text-anchor="middle" x="906.03" y="-455.5" font-family="Arial" font-size="10.00">cv/CVTracked.h</text>
</a>
</g>
</g>
<!-- Node2&#45;&gt;Node11 -->
<g id="edge10" class="edge">
<title>Node2&#45;&gt;Node11</title>
<path fill="none" stroke="midnightblue" d="M1013.75,-504.44C992.68,-495.56 959.51,-481.56 935.55,-471.45"/>
<polygon fill="midnightblue" stroke="midnightblue" points="936.79,-468.18 926.22,-467.52 934.07,-474.63 936.79,-468.18"/>
</g>
<!-- Node4 -->
<g id="node4" class="node">
<title>Node4</title>
<g id="a_node4"><a xlink:title=" ">
<polygon fill="white" stroke="#bfbfbf" points="888.03,-56.5 888.03,-75.5 932.03,-75.5 932.03,-56.5 888.03,-56.5"/>
<text text-anchor="middle" x="910.03" y="-63.5" font-family="Arial" font-size="10.00">vector</text>
</a>
</g>
</g>
<!-- Node3&#45;&gt;Node4 -->
<g id="edge3" class="edge">
<title>Node3&#45;&gt;Node4</title>
<path fill="none" stroke="midnightblue" d="M1128.72,-336.49C1116.85,-327.98 1098.74,-314.16 1085.03,-300 1014.18,-226.79 946.5,-124.56 920.85,-84.29"/>
<polygon fill="midnightblue" stroke="midnightblue" points="923.68,-82.22 915.38,-75.64 917.77,-85.96 923.68,-82.22"/>
</g>
<!-- Node5 -->
<g id="node5" class="node">
<title>Node5</title>
<g id="a_node5"><a xlink:title=" ">
<polygon fill="white" stroke="#bfbfbf" points="1496.03,-280.5 1496.03,-299.5 1612.03,-299.5 1612.03,-280.5 1496.03,-280.5"/>
<text text-anchor="middle" x="1554.03" y="-287.5" font-family="Arial" font-size="10.00">opencv2/core/core.hpp</text>
</a>
</g>
</g>
<!-- Node3&#45;&gt;Node5 -->
<g id="edge4" class="edge">
<title>Node3&#45;&gt;Node5</title>
<path fill="none" stroke="midnightblue" d="M1187.21,-339.06C1251.61,-330.75 1372.35,-315.14 1485.69,-300.17"/>
<polygon fill="midnightblue" stroke="midnightblue" points="1486.47,-303.6 1495.93,-298.82 1485.56,-296.66 1486.47,-303.6"/>
</g>
<!-- Node6 -->
<g id="node6" class="node">
<title>Node6</title>
<g id="a_node6"><a xlink:title=" ">
<polygon fill="white" stroke="#bfbfbf" points="1630.03,-280.5 1630.03,-299.5 1740.03,-299.5 1740.03,-280.5 1630.03,-280.5"/>
<text text-anchor="middle" x="1685.03" y="-287.5" font-family="Arial" font-size="10.00">opencv2/core/ocl.hpp</text>
</a>
</g>
</g>
<!-- Node3&#45;&gt;Node6 -->
<g id="edge5" class="edge">
<title>Node3&#45;&gt;Node6</title>
<path fill="none" stroke="midnightblue" d="M1187.11,-341.39C1270.96,-334.68 1454.32,-319.27 1619.54,-300.13"/>
<polygon fill="midnightblue" stroke="midnightblue" points="1620.37,-303.55 1629.89,-298.92 1619.56,-296.6 1620.37,-303.55"/>
</g>
<!-- Node7 -->
<g id="node7" class="node">
<title>Node7</title>
<g id="a_node7"><a xlink:title=" ">
<polygon fill="white" stroke="#bfbfbf" points="1094.03,-280.5 1094.03,-299.5 1188.03,-299.5 1188.03,-280.5 1094.03,-280.5"/>
<text text-anchor="middle" x="1141.03" y="-287.5" font-family="Arial" font-size="10.00">opencv2/face.hpp</text>
</a>
</g>
</g>
<!-- Node3&#45;&gt;Node7 -->
<g id="edge6" class="edge">
<title>Node3&#45;&gt;Node7</title>
<path fill="none" stroke="midnightblue" d="M1141.03,-336.08C1141.03,-329.01 1141.03,-318.86 1141.03,-309.99"/>
<polygon fill="midnightblue" stroke="midnightblue" points="1144.53,-309.75 1141.03,-299.75 1137.53,-309.75 1144.53,-309.75"/>
</g>
<!-- Node8 -->
<g id="node8" class="node">
<title>Node8</title>
<g id="a_node8"><a xlink:title=" ">
<polygon fill="white" stroke="#bfbfbf" points="1206.03,-280.5 1206.03,-299.5 1312.03,-299.5 1312.03,-280.5 1206.03,-280.5"/>
<text text-anchor="middle" x="1259.03" y="-287.5" font-family="Arial" font-size="10.00">opencv2/opencv.hpp</text>
</a>
</g>
</g>
<!-- Node3&#45;&gt;Node8 -->
<g id="edge7" class="edge">
<title>Node3&#45;&gt;Node8</title>
<path fill="none" stroke="midnightblue" d="M1159.73,-336.44C1178.98,-327.64 1209.18,-313.81 1231.23,-303.72"/>
<polygon fill="midnightblue" stroke="midnightblue" points="1232.78,-306.86 1240.42,-299.52 1229.87,-300.5 1232.78,-306.86"/>
</g>
<!-- Node9 -->
<g id="node9" class="node">
<title>Node9</title>
<g id="a_node9"><a xlink:title=" ">
<polygon fill="white" stroke="#bfbfbf" points="912.03,-280.5 912.03,-299.5 1038.03,-299.5 1038.03,-280.5 912.03,-280.5"/>
<text text-anchor="middle" x="975.03" y="-287.5" font-family="Arial" font-size="10.00">opencv2/xfeatures2d.hpp</text>
</a>
</g>
</g>
<!-- Node3&#45;&gt;Node9 -->
<g id="edge8" class="edge">
<title>Node3&#45;&gt;Node9</title>
<path fill="none" stroke="midnightblue" d="M1114.73,-336.44C1086.68,-327.32 1042.09,-312.81 1010.85,-302.65"/>
<polygon fill="midnightblue" stroke="midnightblue" points="1011.8,-299.28 1001.21,-299.52 1009.64,-305.94 1011.8,-299.28"/>
</g>
<!-- Node10 -->
<g id="node10" class="node">
<title>Node10</title>
<g id="a_node10"><a xlink:title=" ">
<polygon fill="white" stroke="#bfbfbf" points="1330.53,-280.5 1330.53,-299.5 1477.53,-299.5 1477.53,-280.5 1330.53,-280.5"/>
<text text-anchor="middle" x="1404.03" y="-287.5" font-family="Arial" font-size="10.00">opencv2/imgproc/imgproc.hpp</text>
</a>
</g>
</g>
<!-- Node3&#45;&gt;Node10 -->
<g id="edge9" class="edge">
<title>Node3&#45;&gt;Node10</title>
<path fill="none" stroke="midnightblue" d="M1182.7,-336.44C1228.78,-326.98 1303.03,-311.74 1352.66,-301.55"/>
<polygon fill="midnightblue" stroke="midnightblue" points="1353.46,-304.96 1362.55,-299.52 1352.05,-298.1 1353.46,-304.96"/>
</g>
<!-- Node11&#45;&gt;Node3 -->
<g id="edge19" class="edge">
<title>Node11&#45;&gt;Node3</title>
<path fill="none" stroke="midnightblue" d="M917.04,-448.37C934.73,-434.84 970.97,-408.46 1005.03,-392 1034.74,-377.64 1070.2,-366.07 1097.46,-358.27"/>
<polygon fill="midnightblue" stroke="midnightblue" points="1098.42,-361.63 1107.1,-355.56 1096.53,-354.89 1098.42,-361.63"/>
</g>
<!-- Node11&#45;&gt;Node9 -->
<g id="edge25" class="edge">
<title>Node11&#45;&gt;Node9</title>
<path fill="none" stroke="midnightblue" d="M909.74,-448.08C920.65,-421.83 952.77,-344.55 967.5,-309.12"/>
<polygon fill="midnightblue" stroke="midnightblue" points="970.86,-310.15 971.47,-299.57 964.4,-307.46 970.86,-310.15"/>
</g>
<!-- Node12 -->
<g id="node12" class="node">
<title>Node12</title>
<g id="a_node12"><a xlink:href="_averaged_8h.html" target="_top" xlink:title=" ">
<polygon fill="white" stroke="black" points="790.03,-280.5 790.03,-299.5 856.03,-299.5 856.03,-280.5 790.03,-280.5"/>
<text text-anchor="middle" x="823.03" y="-287.5" font-family="Arial" font-size="10.00">Averaged.h</text>
</a>
</g>
</g>
<!-- Node11&#45;&gt;Node12 -->
<g id="edge11" class="edge">
<title>Node11&#45;&gt;Node12</title>
<path fill="none" stroke="midnightblue" d="M897.71,-448.29C889.79,-439.63 877.92,-425.7 870.03,-412 850.33,-377.79 835.58,-333.74 828.24,-309.34"/>
<polygon fill="midnightblue" stroke="midnightblue" points="831.56,-308.23 825.39,-299.61 824.84,-310.2 831.56,-308.23"/>
</g>
<!-- Node15 -->
<g id="node15" class="node">
<title>Node15</title>
<g id="a_node15"><a xlink:href="_high_res_timer_8h.html" target="_top" xlink:title=" ">
<polygon fill="white" stroke="black" points="974.03,-112.5 974.03,-131.5 1062.03,-131.5 1062.03,-112.5 974.03,-112.5"/>
<text text-anchor="middle" x="1018.03" y="-119.5" font-family="Arial" font-size="10.00">HighResTimer.h</text>
</a>
</g>
</g>
<!-- Node11&#45;&gt;Node15 -->
<g id="edge15" class="edge">
<title>Node11&#45;&gt;Node15</title>
<path fill="none" stroke="midnightblue" d="M903.92,-448.23C897.98,-421.91 882.87,-341.64 903.03,-280 922.45,-220.63 973.8,-165.13 1000.83,-138.87"/>
<polygon fill="midnightblue" stroke="midnightblue" points="1003.54,-141.12 1008.38,-131.69 998.72,-136.05 1003.54,-141.12"/>
</g>
<!-- Node19 -->
<g id="node19" class="node">
<title>Node19</title>
<g id="a_node19"><a xlink:href="_c_v_calibration_8h.html" target="_top" xlink:title=" ">
<polygon fill="white" stroke="black" points="1013.53,-392.5 1013.53,-411.5 1112.53,-411.5 1112.53,-392.5 1013.53,-392.5"/>
<text text-anchor="middle" x="1063.03" y="-399.5" font-family="Arial" font-size="10.00">cv/CVCalibration.h</text>
</a>
</g>
</g>
<!-- Node11&#45;&gt;Node19 -->
<g id="edge20" class="edge">
<title>Node11&#45;&gt;Node19</title>
<path fill="none" stroke="midnightblue" d="M930.91,-448.44C957.32,-439.36 999.25,-424.94 1028.77,-414.78"/>
<polygon fill="midnightblue" stroke="midnightblue" points="1029.95,-418.08 1038.27,-411.52 1027.68,-411.46 1029.95,-418.08"/>
</g>
<!-- Node22 -->
<g id="node22" class="node">
<title>Node22</title>
<g id="a_node22"><a xlink:title=" ">
<polygon fill="white" stroke="#bfbfbf" points="594.53,-392.5 594.53,-411.5 693.53,-411.5 693.53,-392.5 594.53,-392.5"/>
<text text-anchor="middle" x="644.03" y="-399.5" font-family="Arial" font-size="10.00">opencv2/aruco.hpp</text>
</a>
</g>
</g>
<!-- Node11&#45;&gt;Node22 -->
<g id="edge24" class="edge">
<title>Node11&#45;&gt;Node22</title>
<path fill="none" stroke="midnightblue" d="M864.52,-448.44C818.62,-438.98 744.65,-423.74 695.2,-413.55"/>
<polygon fill="midnightblue" stroke="midnightblue" points="695.85,-410.11 685.35,-411.52 694.44,-416.96 695.85,-410.11"/>
</g>
<!-- Node23 -->
<g id="node23" class="node">
<title>Node23</title>
<g id="a_node23"><a xlink:href="_s_l_quat4_8h.html" target="_top" xlink:title=" ">
<polygon fill="white" stroke="black" points="711.53,-392.5 711.53,-411.5 774.53,-411.5 774.53,-392.5 711.53,-392.5"/>
<text text-anchor="middle" x="743.03" y="-399.5" font-family="Arial" font-size="10.00">SLQuat4.h</text>
</a>
</g>
</g>
<!-- Node11&#45;&gt;Node23 -->
<g id="edge26" class="edge">
<title>Node11&#45;&gt;Node23</title>
<path fill="none" stroke="midnightblue" d="M880.2,-448.44C852.78,-439.36 809.25,-424.94 778.6,-414.78"/>
<polygon fill="midnightblue" stroke="midnightblue" points="779.33,-411.34 768.74,-411.52 777.13,-417.98 779.33,-411.34"/>
</g>
<!-- Node12&#45;&gt;Node4 -->
<g id="edge13" class="edge">
<title>Node12&#45;&gt;Node4</title>
<path fill="none" stroke="midnightblue" d="M841.38,-280.49C855.44,-272.96 874.08,-260.59 884.03,-244 914.48,-193.26 914.01,-120 911.77,-85.85"/>
<polygon fill="midnightblue" stroke="midnightblue" points="915.23,-85.2 910.96,-75.5 908.26,-85.75 915.23,-85.2"/>
</g>
<!-- Node13 -->
<g id="node13" class="node">
<title>Node13</title>
<g id="a_node13"><a xlink:title=" ">
<polygon fill="white" stroke="#bfbfbf" points="644.53,-0.5 644.53,-19.5 685.53,-19.5 685.53,-0.5 644.53,-0.5"/>
<text text-anchor="middle" x="665.03" y="-7.5" font-family="Arial" font-size="10.00">string</text>
</a>
</g>
</g>
<!-- Node12&#45;&gt;Node13 -->
<g id="edge12" class="edge">
<title>Node12&#45;&gt;Node13</title>
<path fill="none" stroke="midnightblue" d="M830.44,-280.41C837.31,-271.84 847.04,-257.98 851.03,-244 868.31,-183.54 933.59,-179.12 824.03,-56 791.57,-19.52 731.99,-11.66 695.7,-10.48"/>
<polygon fill="midnightblue" stroke="midnightblue" points="695.74,-6.98 685.68,-10.31 695.62,-13.98 695.74,-6.98"/>
</g>
<!-- Node14 -->
<g id="node14" class="node">
<title>Node14</title>
<g id="a_node14"><a xlink:title=" ">
<polygon fill="white" stroke="#bfbfbf" points="790.03,-224.5 790.03,-243.5 842.03,-243.5 842.03,-224.5 790.03,-224.5"/>
<text text-anchor="middle" x="816.03" y="-231.5" font-family="Arial" font-size="10.00">assert.h</text>
</a>
</g>
</g>
<!-- Node12&#45;&gt;Node14 -->
<g id="edge14" class="edge">
<title>Node12&#45;&gt;Node14</title>
<path fill="none" stroke="midnightblue" d="M821.88,-280.08C820.95,-272.93 819.61,-262.64 818.45,-253.69"/>
<polygon fill="midnightblue" stroke="midnightblue" points="821.92,-253.22 817.17,-243.75 814.98,-254.12 821.92,-253.22"/>
</g>
<!-- Node16 -->
<g id="node16" class="node">
<title>Node16</title>
<g id="a_node16"><a xlink:title=" ">
<polygon fill="white" stroke="#bfbfbf" points="1012.03,-56.5 1012.03,-75.5 1058.03,-75.5 1058.03,-56.5 1012.03,-56.5"/>
<text text-anchor="middle" x="1035.03" y="-63.5" font-family="Arial" font-size="10.00">chrono</text>
</a>
</g>
</g>
<!-- Node15&#45;&gt;Node16 -->
<g id="edge16" class="edge">
<title>Node15&#45;&gt;Node16</title>
<path fill="none" stroke="midnightblue" d="M1020.84,-112.08C1023.12,-104.85 1026.4,-94.41 1029.24,-85.4"/>
<polygon fill="midnightblue" stroke="midnightblue" points="1032.61,-86.34 1032.28,-75.75 1025.93,-84.24 1032.61,-86.34"/>
</g>
<!-- Node17 -->
<g id="node17" class="node">
<title>Node17</title>
<g id="a_node17"><a xlink:title=" ">
<polygon fill="white" stroke="#bfbfbf" points="755.53,-56.5 755.53,-75.5 814.53,-75.5 814.53,-56.5 755.53,-56.5"/>
<text text-anchor="middle" x="785.03" y="-63.5" font-family="Arial" font-size="10.00">functional</text>
</a>
</g>
</g>
<!-- Node15&#45;&gt;Node17 -->
<g id="edge17" class="edge">
<title>Node15&#45;&gt;Node17</title>
<path fill="none" stroke="midnightblue" d="M981.11,-112.44C938.46,-102.56 868.56,-86.36 824.76,-76.21"/>
<polygon fill="midnightblue" stroke="midnightblue" points="825.29,-72.74 814.75,-73.89 823.71,-79.56 825.29,-72.74"/>
</g>
<!-- Node18 -->
<g id="node18" class="node">
<title>Node18</title>
<g id="a_node18"><a xlink:title=" ">
<polygon fill="white" stroke="#bfbfbf" points="950.03,-56.5 950.03,-75.5 994.03,-75.5 994.03,-56.5 950.03,-56.5"/>
<text text-anchor="middle" x="972.03" y="-63.5" font-family="Arial" font-size="10.00">thread</text>
</a>
</g>
</g>
<!-- Node15&#45;&gt;Node18 -->
<g id="edge18" class="edge">
<title>Node15&#45;&gt;Node18</title>
<path fill="none" stroke="midnightblue" d="M1010.44,-112.08C1003.8,-104.3 994.01,-92.8 985.97,-83.37"/>
<polygon fill="midnightblue" stroke="midnightblue" points="988.63,-81.09 979.49,-75.75 983.31,-85.63 988.63,-81.09"/>
</g>
<!-- Node19&#45;&gt;Node3 -->
<g id="edge21" class="edge">
<title>Node19&#45;&gt;Node3</title>
<path fill="none" stroke="midnightblue" d="M1075.56,-392.32C1087.62,-383.98 1106.06,-371.21 1120.3,-361.35"/>
<polygon fill="midnightblue" stroke="midnightblue" points="1122.3,-364.22 1128.53,-355.65 1118.32,-358.47 1122.3,-364.22"/>
</g>
<!-- Node20 -->
<g id="node20" class="node">
<title>Node20</title>
<g id="a_node20"><a xlink:href="_c_v_types_8h.html" target="_top" xlink:title=" ">
<polygon fill="white" stroke="black" points="1488.53,-336.5 1488.53,-355.5 1567.53,-355.5 1567.53,-336.5 1488.53,-336.5"/>
<text text-anchor="middle" x="1528.03" y="-343.5" font-family="Arial" font-size="10.00">cv/CVTypes.h</text>
</a>
</g>
</g>
<!-- Node19&#45;&gt;Node20 -->
<g id="edge22" class="edge">
<title>Node19&#45;&gt;Node20</title>
<path fill="none" stroke="midnightblue" d="M1112.79,-395.22C1202.15,-384.84 1388.8,-363.17 1478.2,-352.79"/>
<polygon fill="midnightblue" stroke="midnightblue" points="1478.82,-356.24 1488.35,-351.61 1478.02,-349.28 1478.82,-356.24"/>
</g>
<!-- Node21 -->
<g id="node21" class="node">
<title>Node21</title>
<g id="a_node21"><a xlink:title=" ">
<polygon fill="white" stroke="#bfbfbf" points="1758.03,-280.5 1758.03,-299.5 1864.03,-299.5 1864.03,-280.5 1758.03,-280.5"/>
<text text-anchor="middle" x="1811.03" y="-287.5" font-family="Arial" font-size="10.00">opencv2/calib3d.hpp</text>
</a>
</g>
</g>
<!-- Node20&#45;&gt;Node21 -->
<g id="edge23" class="edge">
<title>Node20&#45;&gt;Node21</title>
<path fill="none" stroke="midnightblue" d="M1567.68,-337.43C1616.8,-328.06 1700.75,-312.04 1756.07,-301.49"/>
<polygon fill="midnightblue" stroke="midnightblue" points="1756.88,-304.9 1766.05,-299.58 1755.57,-298.02 1756.88,-304.9"/>
</g>
<!-- Node24 -->
<g id="node24" class="node">
<title>Node24</title>
<g id="a_node24"><a xlink:href="_s_l_math_8h.html" target="_top" xlink:title=" ">
<polygon fill="white" stroke="black" points="656.53,-112.5 656.53,-131.5 715.53,-131.5 715.53,-112.5 656.53,-112.5"/>
<text text-anchor="middle" x="686.03" y="-119.5" font-family="Arial" font-size="10.00">SLMath.h</text>
</a>
</g>
</g>
<!-- Node23&#45;&gt;Node24 -->
<g id="edge27" class="edge">
<title>Node23&#45;&gt;Node24</title>
<path fill="none" stroke="midnightblue" d="M745.59,-392.25C750.78,-373.74 762.03,-329.18 762.03,-291 762.03,-291 762.03,-291 762.03,-233 762.03,-202.2 755.56,-193.32 738.03,-168 729.85,-156.19 717.88,-145.54 707.48,-137.57"/>
<polygon fill="midnightblue" stroke="midnightblue" points="709.37,-134.62 699.23,-131.54 705.24,-140.27 709.37,-134.62"/>
</g>
<!-- Node25 -->
<g id="node25" class="node">
<title>Node25</title>
<g id="a_node25"><a xlink:href="_s_l_mat4_8h.html" target="_top" xlink:title=" ">
<polygon fill="white" stroke="black" points="355.53,-336.5 355.53,-355.5 414.53,-355.5 414.53,-336.5 355.53,-336.5"/>
<text text-anchor="middle" x="385.03" y="-343.5" font-family="Arial" font-size="10.00">SLMat4.h</text>
</a>
</g>
</g>
<!-- Node23&#45;&gt;Node25 -->
<g id="edge30" class="edge">
<title>Node23&#45;&gt;Node25</title>
<path fill="none" stroke="midnightblue" d="M711.2,-393.59C708.44,-393.03 705.69,-392.49 703.03,-392 603.43,-373.78 485.12,-358.76 424.76,-351.58"/>
<polygon fill="midnightblue" stroke="midnightblue" points="424.87,-348.07 414.53,-350.37 424.05,-355.02 424.87,-348.07"/>
</g>
<!-- Node23&#45;&gt;Node27 -->
<g id="edge68" class="edge">
<title>Node23&#45;&gt;Node27</title>
<path fill="none" stroke="midnightblue" d="M740.47,-392.25C735.28,-373.74 724.03,-329.18 724.03,-291 724.03,-291 724.03,-291 724.03,-233 724.03,-132.54 560.87,-121.88 489.17,-122.05"/>
<polygon fill="midnightblue" stroke="midnightblue" points="488.85,-118.55 478.88,-122.15 488.91,-125.55 488.85,-118.55"/>
</g>
<!-- Node38 -->
<g id="node38" class="node">
<title>Node38</title>
<g id="a_node38"><a xlink:href="_s_l_vec4_8h.html" target="_top" xlink:title=" ">
<polygon fill="white" stroke="black" points="29.03,-280.5 29.03,-299.5 87.03,-299.5 87.03,-280.5 29.03,-280.5"/>
<text text-anchor="middle" x="58.03" y="-287.5" font-family="Arial" font-size="10.00">SLVec4.h</text>
</a>
</g>
</g>
<!-- Node23&#45;&gt;Node38 -->
<g id="edge67" class="edge">
<title>Node23&#45;&gt;Node38</title>
<path fill="none" stroke="midnightblue" d="M711.22,-393.48C708.46,-392.94 705.7,-392.43 703.03,-392 546.06,-366.5 504,-381.49 347.03,-356 256.71,-341.33 152.34,-315.65 97.07,-301.36"/>
<polygon fill="midnightblue" stroke="midnightblue" points="97.9,-297.95 87.34,-298.82 96.14,-304.73 97.9,-297.95"/>
</g>
<!-- Node24&#45;&gt;Node4 -->
<g id="edge28" class="edge">
<title>Node24&#45;&gt;Node4</title>
<path fill="none" stroke="midnightblue" d="M715.78,-113.83C757.97,-103.66 834.89,-85.11 878.2,-74.67"/>
<polygon fill="midnightblue" stroke="midnightblue" points="879.03,-78.07 887.93,-72.33 877.39,-71.27 879.03,-78.07"/>
</g>
<!-- Node24&#45;&gt;Node13 -->
<g id="edge29" class="edge">
<title>Node24&#45;&gt;Node13</title>
<path fill="none" stroke="midnightblue" d="M684.44,-112.16C682.18,-99.65 677.89,-76.06 674.03,-56 672.36,-47.29 670.43,-37.64 668.8,-29.52"/>
<polygon fill="midnightblue" stroke="midnightblue" points="672.21,-28.73 666.79,-19.62 665.35,-30.12 672.21,-28.73"/>
</g>
<!-- Node25&#45;&gt;Node24 -->
<g id="edge31" class="edge">
<title>Node25&#45;&gt;Node24</title>
<path fill="none" stroke="midnightblue" d="M414.71,-344.64C479.97,-343.19 632.88,-335.94 667.03,-300 708.13,-256.73 698.04,-178.03 690.6,-141.97"/>
<polygon fill="midnightblue" stroke="midnightblue" points="693.94,-140.86 688.34,-131.86 687.1,-142.38 693.94,-140.86"/>
</g>
<!-- Node26 -->
<g id="node26" class="node">
<title>Node26</title>
<g id="a_node26"><a xlink:title=" ">
<polygon fill="white" stroke="#bfbfbf" points="539.53,-280.5 539.53,-299.5 580.53,-299.5 580.53,-280.5 539.53,-280.5"/>
<text text-anchor="middle" x="560.03" y="-287.5" font-family="Arial" font-size="10.00">stack</text>
</a>
</g>
</g>
<!-- Node25&#45;&gt;Node26 -->
<g id="edge32" class="edge">
<title>Node25&#45;&gt;Node26</title>
<path fill="none" stroke="midnightblue" d="M412.75,-336.47C440.23,-328.02 483.78,-314.61 529.88,-300.35"/>
<polygon fill="midnightblue" stroke="midnightblue" points="530.92,-303.69 539.44,-297.4 528.85,-297.01 530.92,-303.69"/>
</g>
<!-- Node25&#45;&gt;Node27 -->
<g id="edge33" class="edge">
<title>Node25&#45;&gt;Node27</title>
<path fill="none" stroke="midnightblue" d="M355.39,-340.7C290.71,-331.17 142.1,-308.46 135.03,-300 129.33,-293.18 130.5,-287.65 135.03,-280 197.41,-174.59 354.51,-138.39 423.11,-127.34"/>
<polygon fill="midnightblue" stroke="midnightblue" points="423.98,-130.75 433.34,-125.78 422.92,-123.83 423.98,-130.75"/>
</g>
<!-- Node33 -->
<g id="node33" class="node">
<title>Node33</title>
<g id="a_node33"><a xlink:href="_s_l_mat3_8h.html" target="_top" xlink:title=" ">
<polygon fill="white" stroke="black" points="598.53,-280.5 598.53,-299.5 657.53,-299.5 657.53,-280.5 598.53,-280.5"/>
<text text-anchor="middle" x="628.03" y="-287.5" font-family="Arial" font-size="10.00">SLMat3.h</text>
</a>
</g>
</g>
<!-- Node25&#45;&gt;Node33 -->
<g id="edge45" class="edge">
<title>Node25&#45;&gt;Node33</title>
<path fill="none" stroke="midnightblue" d="M414.6,-338.67C452.61,-330.5 520.9,-315.7 588.24,-300.38"/>
<polygon fill="midnightblue" stroke="midnightblue" points="589.2,-303.76 598.17,-298.12 587.64,-296.93 589.2,-303.76"/>
</g>
<!-- Node34 -->
<g id="node34" class="node">
<title>Node34</title>
<g id="a_node34"><a xlink:href="_s_l_vec3_8h.html" target="_top" xlink:title=" ">
<polygon fill="white" stroke="black" points="405.03,-224.5 405.03,-243.5 463.03,-243.5 463.03,-224.5 405.03,-224.5"/>
<text text-anchor="middle" x="434.03" y="-231.5" font-family="Arial" font-size="10.00">SLVec3.h</text>
</a>
</g>
</g>
<!-- Node25&#45;&gt;Node34 -->
<g id="edge57" class="edge">
<title>Node25&#45;&gt;Node34</title>
<path fill="none" stroke="midnightblue" d="M355.19,-342.45C304.15,-336.94 208.55,-320.93 241.03,-280 259.84,-256.3 343.91,-243.92 394.68,-238.5"/>
<polygon fill="midnightblue" stroke="midnightblue" points="395.08,-241.98 404.67,-237.48 394.36,-235.01 395.08,-241.98"/>
</g>
<!-- Node25&#45;&gt;Node38 -->
<g id="edge58" class="edge">
<title>Node25&#45;&gt;Node38</title>
<path fill="none" stroke="midnightblue" d="M355.51,-340.81C303.82,-333.37 193.58,-317.01 101.03,-300 99.77,-299.77 98.48,-299.53 97.18,-299.28"/>
<polygon fill="midnightblue" stroke="midnightblue" points="97.63,-295.8 87.14,-297.29 96.27,-302.67 97.63,-295.8"/>
</g>
<!-- Node40 -->
<g id="node40" class="node">
<title>Node40</title>
<g id="a_node40"><a xlink:title=" ">
<polygon fill="white" stroke="#bfbfbf" points="143.53,-280.5 143.53,-299.5 192.53,-299.5 192.53,-280.5 143.53,-280.5"/>
<text text-anchor="middle" x="168.03" y="-287.5" font-family="Arial" font-size="10.00">cassert</text>
</a>
</g>
</g>
<!-- Node25&#45;&gt;Node40 -->
<g id="edge64" class="edge">
<title>Node25&#45;&gt;Node40</title>
<path fill="none" stroke="midnightblue" d="M355.31,-337.6C315.42,-327.68 244.71,-310.08 202.52,-299.58"/>
<polygon fill="midnightblue" stroke="midnightblue" points="203.25,-296.16 192.7,-297.14 201.55,-302.95 203.25,-296.16"/>
</g>
<!-- Node41 -->
<g id="node41" class="node">
<title>Node41</title>
<g id="a_node41"><a xlink:title=" ">
<polygon fill="white" stroke="#bfbfbf" points="249.53,-280.5 249.53,-299.5 376.53,-299.5 376.53,-280.5 249.53,-280.5"/>
<text text-anchor="middle" x="313.03" y="-287.5" font-family="Arial" font-size="10.00">Shoemake/Decompose.h</text>
</a>
</g>
</g>
<!-- Node25&#45;&gt;Node41 -->
<g id="edge65" class="edge">
<title>Node25&#45;&gt;Node41</title>
<path fill="none" stroke="midnightblue" d="M373.46,-336.32C362.61,-328.18 346.15,-315.84 333.15,-306.09"/>
<polygon fill="midnightblue" stroke="midnightblue" points="334.91,-303.03 324.81,-299.83 330.71,-308.63 334.91,-303.03"/>
</g>
<!-- Node42 -->
<g id="node42" class="node">
<title>Node42</title>
<g id="a_node42"><a xlink:title=" ">
<polygon fill="white" stroke="#bfbfbf" points="394.53,-280.5 394.53,-299.5 521.53,-299.5 521.53,-280.5 394.53,-280.5"/>
<text text-anchor="middle" x="458.03" y="-287.5" font-family="Arial" font-size="10.00">Shoemake/EulerAngles.h</text>
</a>
</g>
</g>
<!-- Node25&#45;&gt;Node42 -->
<g id="edge66" class="edge">
<title>Node25&#45;&gt;Node42</title>
<path fill="none" stroke="midnightblue" d="M396.76,-336.32C407.87,-328.11 424.77,-315.6 438.01,-305.81"/>
<polygon fill="midnightblue" stroke="midnightblue" points="440.13,-308.59 446.09,-299.83 435.97,-302.97 440.13,-308.59"/>
</g>
<!-- Node27&#45;&gt;Node4 -->
<g id="edge35" class="edge">
<title>Node27&#45;&gt;Node4</title>
<path fill="none" stroke="midnightblue" d="M478.54,-118.32C552.92,-109.48 790.92,-81.17 877.85,-70.83"/>
<polygon fill="midnightblue" stroke="midnightblue" points="878.4,-74.29 887.92,-69.63 877.57,-67.34 878.4,-74.29"/>
</g>
<!-- Node27&#45;&gt;Node13 -->
<g id="edge34" class="edge">
<title>Node27&#45;&gt;Node13</title>
<path fill="none" stroke="midnightblue" d="M478.85,-112.55C500.65,-104.18 534.22,-90.56 562.03,-76 591.6,-60.52 623.86,-39.42 644.25,-25.52"/>
<polygon fill="midnightblue" stroke="midnightblue" points="646.48,-28.23 652.73,-19.68 642.51,-22.47 646.48,-28.23"/>
</g>
<!-- Node27&#45;&gt;Node17 -->
<g id="edge44" class="edge">
<title>Node27&#45;&gt;Node17</title>
<path fill="none" stroke="midnightblue" d="M478.64,-117.29C533.74,-108.25 675.5,-84.98 745.17,-73.54"/>
<polygon fill="midnightblue" stroke="midnightblue" points="746.01,-76.95 755.31,-71.88 744.88,-70.04 746.01,-76.95"/>
</g>
<!-- Node28 -->
<g id="node28" class="node">
<title>Node28</title>
<g id="a_node28"><a xlink:title=" ">
<polygon fill="white" stroke="#bfbfbf" points="511.53,-56.5 511.53,-75.5 552.53,-75.5 552.53,-56.5 511.53,-56.5"/>
<text text-anchor="middle" x="532.03" y="-63.5" font-family="Arial" font-size="10.00">cfloat</text>
</a>
</g>
</g>
<!-- Node27&#45;&gt;Node28 -->
<g id="edge36" class="edge">
<title>Node27&#45;&gt;Node28</title>
<path fill="none" stroke="midnightblue" d="M468.24,-112.32C479.81,-104.11 497.41,-91.6 511.19,-81.81"/>
<polygon fill="midnightblue" stroke="midnightblue" points="513.47,-84.48 519.6,-75.83 509.42,-78.77 513.47,-84.48"/>
</g>
<!-- Node29 -->
<g id="node29" class="node">
<title>Node29</title>
<g id="a_node29"><a xlink:title=" ">
<polygon fill="white" stroke="#bfbfbf" points="397.03,-0.5 397.03,-19.5 449.03,-19.5 449.03,-0.5 397.03,-0.5"/>
<text text-anchor="middle" x="423.03" y="-7.5" font-family="Arial" font-size="10.00">memory</text>
</a>
</g>
</g>
<!-- Node27&#45;&gt;Node29 -->
<g id="edge37" class="edge">
<title>Node27&#45;&gt;Node29</title>
<path fill="none" stroke="midnightblue" d="M442.24,-112.19C431.2,-104.24 416.53,-91.45 410.03,-76 403.69,-60.93 408.39,-42.58 413.83,-29.22"/>
<polygon fill="midnightblue" stroke="midnightblue" points="417.19,-30.29 418.15,-19.74 410.82,-27.38 417.19,-30.29"/>
</g>
<!-- Node30 -->
<g id="node30" class="node">
<title>Node30</title>
<g id="a_node30"><a xlink:href="_file_log_8h.html" target="_top" xlink:title=" ">
<polygon fill="white" stroke="black" points="609.03,-56.5 609.03,-75.5 665.03,-75.5 665.03,-56.5 609.03,-56.5"/>
<text text-anchor="middle" x="637.03" y="-63.5" font-family="Arial" font-size="10.00">FileLog.h</text>
</a>
</g>
</g>
<!-- Node27&#45;&gt;Node30 -->
<g id="edge38" class="edge">
<title>Node27&#45;&gt;Node30</title>
<path fill="none" stroke="midnightblue" d="M478.59,-114.27C508.73,-105.28 562.58,-89.21 599.04,-78.33"/>
<polygon fill="midnightblue" stroke="midnightblue" points="600.25,-81.63 608.83,-75.41 598.24,-74.92 600.25,-81.63"/>
</g>
<!-- Node32 -->
<g id="node32" class="node">
<title>Node32</title>
<g id="a_node32"><a xlink:href="_custom_log_8h.html" target="_top" xlink:title=" ">
<polygon fill="white" stroke="black" points="418.53,-56.5 418.53,-75.5 493.53,-75.5 493.53,-56.5 418.53,-56.5"/>
<text text-anchor="middle" x="456.03" y="-63.5" font-family="Arial" font-size="10.00">CustomLog.h</text>
</a>
</g>
</g>
<!-- Node27&#45;&gt;Node32 -->
<g id="edge41" class="edge">
<title>Node27&#45;&gt;Node32</title>
<path fill="none" stroke="midnightblue" d="M456.03,-112.08C456.03,-105.01 456.03,-94.86 456.03,-85.99"/>
<polygon fill="midnightblue" stroke="midnightblue" points="459.53,-85.75 456.03,-75.75 452.53,-85.75 459.53,-85.75"/>
</g>
<!-- Node30&#45;&gt;Node13 -->
<g id="edge39" class="edge">
<title>Node30&#45;&gt;Node13</title>
<path fill="none" stroke="midnightblue" d="M641.65,-56.08C645.49,-48.69 651.06,-37.95 655.8,-28.81"/>
<polygon fill="midnightblue" stroke="midnightblue" points="659,-30.24 660.49,-19.75 652.78,-27.02 659,-30.24"/>
</g>
<!-- Node31 -->
<g id="node31" class="node">
<title>Node31</title>
<g id="a_node31"><a xlink:title=" ">
<polygon fill="white" stroke="#bfbfbf" points="948.03,-0.5 948.03,-19.5 998.03,-19.5 998.03,-0.5 948.03,-0.5"/>
<text text-anchor="middle" x="973.03" y="-7.5" font-family="Arial" font-size="10.00">fstream</text>
</a>
</g>
</g>
<!-- Node30&#45;&gt;Node31 -->
<g id="edge40" class="edge">
<title>Node30&#45;&gt;Node31</title>
<path fill="none" stroke="midnightblue" d="M665.1,-60.49C726.03,-50.7 870.33,-27.51 937.5,-16.71"/>
<polygon fill="midnightblue" stroke="midnightblue" points="938.27,-20.13 947.59,-15.09 937.16,-13.22 938.27,-20.13"/>
</g>
<!-- Node32&#45;&gt;Node13 -->
<g id="edge43" class="edge">
<title>Node32&#45;&gt;Node13</title>
<path fill="none" stroke="midnightblue" d="M489.15,-56.44C529.02,-46.14 595.46,-28.98 634.26,-18.95"/>
<polygon fill="midnightblue" stroke="midnightblue" points="635.62,-22.21 644.42,-16.32 633.87,-15.44 635.62,-22.21"/>
</g>
<!-- Node32&#45;&gt;Node29 -->
<g id="edge42" class="edge">
<title>Node32&#45;&gt;Node29</title>
<path fill="none" stroke="midnightblue" d="M450.58,-56.08C446.02,-48.61 439.36,-37.72 433.74,-28.52"/>
<polygon fill="midnightblue" stroke="midnightblue" points="436.58,-26.46 428.38,-19.75 430.61,-30.11 436.58,-26.46"/>
</g>
<!-- Node33&#45;&gt;Node14 -->
<g id="edge56" class="edge">
<title>Node33&#45;&gt;Node14</title>
<path fill="none" stroke="midnightblue" d="M657.82,-280.44C690.99,-270.92 744.6,-255.52 780.07,-245.33"/>
<polygon fill="midnightblue" stroke="midnightblue" points="781.37,-248.6 790.01,-242.47 779.44,-241.87 781.37,-248.6"/>
</g>
<!-- Node33&#45;&gt;Node24 -->
<g id="edge46" class="edge">
<title>Node33&#45;&gt;Node24</title>
<path fill="none" stroke="midnightblue" d="M631.15,-280.08C640.32,-253.83 667.32,-176.55 679.7,-141.12"/>
<polygon fill="midnightblue" stroke="midnightblue" points="683.04,-142.16 683.04,-131.57 676.43,-139.85 683.04,-142.16"/>
</g>
<!-- Node33&#45;&gt;Node27 -->
<g id="edge47" class="edge">
<title>Node33&#45;&gt;Node27</title>
<path fill="none" stroke="midnightblue" d="M608.83,-280.44C593.27,-272.73 571.61,-260.13 557.03,-244 531.71,-215.98 543.56,-196.71 519.03,-168 508.35,-155.5 493.49,-144.67 480.89,-136.77"/>
<polygon fill="midnightblue" stroke="midnightblue" points="482.58,-133.7 472.2,-131.56 478.97,-139.7 482.58,-133.7"/>
</g>
<!-- Node33&#45;&gt;Node34 -->
<g id="edge48" class="edge">
<title>Node33&#45;&gt;Node34</title>
<path fill="none" stroke="midnightblue" d="M598.14,-280.68C564.63,-271.35 510.14,-256.18 473.23,-245.91"/>
<polygon fill="midnightblue" stroke="midnightblue" points="473.89,-242.46 463.32,-243.15 472.01,-249.21 473.89,-242.46"/>
</g>
<!-- Node37 -->
<g id="node37" class="node">
<title>Node37</title>
<g id="a_node37"><a xlink:title=" ">
<polygon fill="white" stroke="#bfbfbf" points="566.03,-224.5 566.03,-243.5 620.03,-243.5 620.03,-224.5 566.03,-224.5"/>
<text text-anchor="middle" x="593.03" y="-231.5" font-family="Arial" font-size="10.00">iostream</text>
</a>
</g>
</g>
<!-- Node33&#45;&gt;Node37 -->
<g id="edge55" class="edge">
<title>Node33&#45;&gt;Node37</title>
<path fill="none" stroke="midnightblue" d="M622.25,-280.08C617.36,-272.53 610.2,-261.49 604.2,-252.23"/>
<polygon fill="midnightblue" stroke="midnightblue" points="607.08,-250.24 598.7,-243.75 601.2,-254.05 607.08,-250.24"/>
</g>
<!-- Node34&#45;&gt;Node24 -->
<g id="edge50" class="edge">
<title>Node34&#45;&gt;Node24</title>
<path fill="none" stroke="midnightblue" d="M453.8,-224.37C498.06,-205.05 605.26,-158.26 657.06,-135.65"/>
<polygon fill="midnightblue" stroke="midnightblue" points="658.58,-138.8 666.35,-131.59 655.78,-132.38 658.58,-138.8"/>
</g>
<!-- Node34&#45;&gt;Node27 -->
<g id="edge54" class="edge">
<title>Node34&#45;&gt;Node27</title>
<path fill="none" stroke="midnightblue" d="M435.76,-224.37C439.31,-206.62 447.5,-165.67 452.31,-141.6"/>
<polygon fill="midnightblue" stroke="midnightblue" points="455.78,-142.08 454.31,-131.59 448.92,-140.71 455.78,-142.08"/>
</g>
<!-- Node35 -->
<g id="node35" class="node">
<title>Node35</title>
<g id="a_node35"><a xlink:title=" ">
<polygon fill="white" stroke="#bfbfbf" points="462.53,-168.5 462.53,-187.5 509.53,-187.5 509.53,-168.5 462.53,-168.5"/>
<text text-anchor="middle" x="486.03" y="-175.5" font-family="Arial" font-size="10.00">math.h</text>
</a>
</g>
</g>
<!-- Node34&#45;&gt;Node35 -->
<g id="edge49" class="edge">
<title>Node34&#45;&gt;Node35</title>
<path fill="none" stroke="midnightblue" d="M442.62,-224.08C450.19,-216.22 461.41,-204.57 470.55,-195.08"/>
<polygon fill="midnightblue" stroke="midnightblue" points="473.19,-197.38 477.6,-187.75 468.15,-192.53 473.19,-197.38"/>
</g>
<!-- Node36 -->
<g id="node36" class="node">
<title>Node36</title>
<g id="a_node36"><a xlink:href="_s_l_vec2_8h.html" target="_top" xlink:title=" ">
<polygon fill="white" stroke="black" points="348.03,-168.5 348.03,-187.5 406.03,-187.5 406.03,-168.5 348.03,-168.5"/>
<text text-anchor="middle" x="377.03" y="-175.5" font-family="Arial" font-size="10.00">SLVec2.h</text>
</a>
</g>
</g>
<!-- Node34&#45;&gt;Node36 -->
<g id="edge51" class="edge">
<title>Node34&#45;&gt;Node36</title>
<path fill="none" stroke="midnightblue" d="M424.87,-224.32C416.53,-216.42 404,-204.55 393.85,-194.94"/>
<polygon fill="midnightblue" stroke="midnightblue" points="396.02,-192.17 386.36,-187.83 391.21,-197.25 396.02,-192.17"/>
</g>
<!-- Node36&#45;&gt;Node24 -->
<g id="edge52" class="edge">
<title>Node36&#45;&gt;Node24</title>
<path fill="none" stroke="midnightblue" d="M406.1,-171.92C461.75,-162.2 583.37,-140.94 646.4,-129.93"/>
<polygon fill="midnightblue" stroke="midnightblue" points="647.11,-133.35 656.36,-128.19 645.91,-126.46 647.11,-133.35"/>
</g>
<!-- Node36&#45;&gt;Node27 -->
<g id="edge53" class="edge">
<title>Node36&#45;&gt;Node27</title>
<path fill="none" stroke="midnightblue" d="M389.72,-168.32C401.93,-159.98 420.61,-147.21 435.03,-137.35"/>
<polygon fill="midnightblue" stroke="midnightblue" points="437.09,-140.19 443.37,-131.65 433.14,-134.41 437.09,-140.19"/>
</g>
<!-- Node38&#45;&gt;Node27 -->
<g id="edge63" class="edge">
<title>Node38&#45;&gt;Node27</title>
<path fill="none" stroke="midnightblue" d="M61.95,-280.45C72.87,-257.74 105.97,-195.77 154.03,-168 199.34,-141.82 354.39,-129.25 422.96,-124.88"/>
<polygon fill="midnightblue" stroke="midnightblue" points="423.43,-128.35 433.2,-124.24 423,-121.37 423.43,-128.35"/>
</g>
<!-- Node38&#45;&gt;Node34 -->
<g id="edge62" class="edge">
<title>Node38&#45;&gt;Node34</title>
<path fill="none" stroke="midnightblue" d="M87.22,-284.81C154.21,-275.19 319.02,-251.52 394.78,-240.64"/>
<polygon fill="midnightblue" stroke="midnightblue" points="395.46,-244.08 404.86,-239.19 394.46,-237.15 395.46,-244.08"/>
</g>
<!-- Node38&#45;&gt;Node36 -->
<g id="edge61" class="edge">
<title>Node38&#45;&gt;Node36</title>
<path fill="none" stroke="midnightblue" d="M82.8,-280.46C139.21,-261.01 277.4,-213.36 342.3,-190.98"/>
<polygon fill="midnightblue" stroke="midnightblue" points="343.75,-194.18 352.06,-187.61 341.47,-187.56 343.75,-194.18"/>
</g>
<!-- Node39 -->
<g id="node39" class="node">
<title>Node39</title>
<g id="a_node39"><a xlink:href="_s_l_8h.html" target="_top" xlink:title=" ">
<polygon fill="white" stroke="black" points="29.53,-168.5 29.53,-187.5 66.53,-187.5 66.53,-168.5 29.53,-168.5"/>
<text text-anchor="middle" x="48.03" y="-175.5" font-family="Arial" font-size="10.00">SL.h</text>
</a>
</g>
</g>
<!-- Node38&#45;&gt;Node39 -->
<g id="edge59" class="edge">
<title>Node38&#45;&gt;Node39</title>
<path fill="none" stroke="midnightblue" d="M57.25,-280.37C55.63,-262.62 51.91,-221.67 49.72,-197.6"/>
<polygon fill="midnightblue" stroke="midnightblue" points="53.2,-197.23 48.81,-187.59 46.23,-197.87 53.2,-197.23"/>
</g>
<!-- Node39&#45;&gt;Node27 -->
<g id="edge60" class="edge">
<title>Node39&#45;&gt;Node27</title>
<path fill="none" stroke="midnightblue" d="M66.77,-171.38C71.4,-170.13 76.37,-168.91 81.03,-168 206.31,-143.54 357.89,-130.26 423.34,-125.3"/>
<polygon fill="midnightblue" stroke="midnightblue" points="423.74,-128.78 433.45,-124.55 423.22,-121.8 423.74,-128.78"/>
</g>
<!-- Node43&#45;&gt;Node4 -->
<g id="edge73" class="edge">
<title>Node43&#45;&gt;Node4</title>
<path fill="none" stroke="midnightblue" d="M1103.76,-114.82C1068.21,-106.93 1005.08,-92.6 942.05,-76.17"/>
<polygon fill="midnightblue" stroke="midnightblue" points="942.9,-72.78 932.34,-73.63 941.13,-79.55 942.9,-72.78"/>
</g>
<!-- Node43&#45;&gt;Node13 -->
<g id="edge72" class="edge">
<title>Node43&#45;&gt;Node13</title>
<path fill="none" stroke="midnightblue" d="M1126.43,-112.43C1116.45,-97.97 1094.07,-69.01 1067.03,-56 1001.47,-24.46 778.7,-14.5 696.14,-11.84"/>
<polygon fill="midnightblue" stroke="midnightblue" points="696,-8.34 685.9,-11.53 695.78,-15.33 696,-8.34"/>
</g>
<!-- Node43&#45;&gt;Node16 -->
<g id="edge71" class="edge">
<title>Node43&#45;&gt;Node16</title>
<path fill="none" stroke="midnightblue" d="M1116.45,-112.32C1101.03,-103.74 1077.22,-90.49 1059.32,-80.52"/>
<polygon fill="midnightblue" stroke="midnightblue" points="1061.02,-77.46 1050.58,-75.65 1057.61,-83.58 1061.02,-77.46"/>
</g>
<!-- Node43&#45;&gt;Node31 -->
<g id="edge76" class="edge">
<title>Node43&#45;&gt;Node31</title>
<path fill="none" stroke="midnightblue" d="M1160.14,-113.13C1193.58,-102.4 1242.37,-81.56 1221.03,-56 1194.32,-24.01 1070.06,-14.71 1008.2,-12.05"/>
<polygon fill="midnightblue" stroke="midnightblue" points="1008.25,-8.55 998.12,-11.65 1007.98,-15.54 1008.25,-8.55"/>
</g>
<!-- Node44 -->
<g id="node44" class="node">
<title>Node44</title>
<g id="a_node44"><a xlink:title=" ">
<polygon fill="white" stroke="#bfbfbf" points="1114.53,-56.5 1114.53,-75.5 1149.53,-75.5 1149.53,-56.5 1114.53,-56.5"/>
<text text-anchor="middle" x="1132.03" y="-63.5" font-family="Arial" font-size="10.00">map</text>
</a>
</g>
</g>
<!-- Node43&#45;&gt;Node44 -->
<g id="edge74" class="edge">
<title>Node43&#45;&gt;Node44</title>
<path fill="none" stroke="midnightblue" d="M1132.03,-112.08C1132.03,-105.01 1132.03,-94.86 1132.03,-85.99"/>
<polygon fill="midnightblue" stroke="midnightblue" points="1135.53,-85.75 1132.03,-75.75 1128.53,-85.75 1135.53,-85.75"/>
</g>
<!-- Node45 -->
<g id="node45" class="node">
<title>Node45</title>
<g id="a_node45"><a xlink:title=" ">
<polygon fill="white" stroke="#bfbfbf" points="1168.03,-56.5 1168.03,-75.5 1212.03,-75.5 1212.03,-56.5 1168.03,-56.5"/>
<text text-anchor="middle" x="1190.03" y="-63.5" font-family="Arial" font-size="10.00">mutex</text>
</a>
</g>
</g>
<!-- Node43&#45;&gt;Node45 -->
<g id="edge75" class="edge">
<title>Node43&#45;&gt;Node45</title>
<path fill="none" stroke="midnightblue" d="M1141.35,-112.32C1149.92,-104.34 1162.84,-92.31 1173.22,-82.65"/>
<polygon fill="midnightblue" stroke="midnightblue" points="1175.61,-85.21 1180.54,-75.83 1170.84,-80.09 1175.61,-85.21"/>
</g>
</g>
</svg>
