<?xml version="1.0" encoding="UTF-8" standalone="no"?>
<!DOCTYPE svg PUBLIC "-//W3C//DTD SVG 1.1//EN"
 "http://www.w3.org/Graphics/SVG/1.1/DTD/svg11.dtd">
<!-- Generated by graphviz version 2.44.0 (20200408.0750)
 -->
<!-- Title: CVTrackedWAI.cpp Pages: 1 -->
<svg width="1385pt" height="308pt"
 viewBox="0.00 0.00 1385.00 308.00" xmlns="http://www.w3.org/2000/svg" xmlns:xlink="http://www.w3.org/1999/xlink">
<g id="graph0" class="graph" transform="scale(1 1) rotate(0) translate(4 304)">
<title>CVTrackedWAI.cpp</title>
<polygon fill="white" stroke="transparent" points="-4,4 -4,-304 1381,-304 1381,4 -4,4"/>
<!-- Node1 -->
<g id="node1" class="node">
<title>Node1</title>
<g id="a_node1"><a xlink:title=" ">
<polygon fill="#bfbfbf" stroke="black" points="932,-280.5 932,-299.5 1036,-299.5 1036,-280.5 932,-280.5"/>
<text text-anchor="middle" x="984" y="-287.5" font-family="Arial.ttf" font-size="10.00">CVTrackedWAI.cpp</text>
</a>
</g>
</g>
<!-- Node2 -->
<g id="node2" class="node">
<title>Node2</title>
<g id="a_node2"><a xlink:href="_c_v_tracked_w_a_i_8h.html" target="_top" xlink:title=" ">
<polygon fill="white" stroke="black" points="638.5,-224.5 638.5,-243.5 731.5,-243.5 731.5,-224.5 638.5,-224.5"/>
<text text-anchor="middle" x="685" y="-231.5" font-family="Arial.ttf" font-size="10.00">CVTrackedWAI.h</text>
</a>
</g>
</g>
<!-- Node1&#45;&gt;Node2 -->
<g id="edge1" class="edge">
<title>Node1&#45;&gt;Node2</title>
<path fill="none" stroke="midnightblue" d="M936.62,-280.44C883.76,-270.9 798.27,-255.46 741.85,-245.27"/>
<polygon fill="midnightblue" stroke="midnightblue" points="742.13,-241.76 731.66,-243.43 740.88,-248.65 742.13,-241.76"/>
</g>
<!-- Node23 -->
<g id="node23" class="node">
<title>Node23</title>
<g id="a_node23"><a xlink:href="_s_l_8h.html" target="_top" xlink:title=" ">
<polygon fill="white" stroke="black" points="1061.5,-224.5 1061.5,-243.5 1098.5,-243.5 1098.5,-224.5 1061.5,-224.5"/>
<text text-anchor="middle" x="1080" y="-231.5" font-family="Arial.ttf" font-size="10.00">SL.h</text>
</a>
</g>
</g>
<!-- Node1&#45;&gt;Node23 -->
<g id="edge25" class="edge">
<title>Node1&#45;&gt;Node23</title>
<path fill="none" stroke="midnightblue" d="M999.42,-280.32C1014.54,-271.82 1037.82,-258.73 1055.47,-248.8"/>
<polygon fill="midnightblue" stroke="midnightblue" points="1057.61,-251.61 1064.61,-243.65 1054.18,-245.51 1057.61,-251.61"/>
</g>
<!-- Node31 -->
<g id="node31" class="node">
<title>Node31</title>
<g id="a_node31"><a xlink:href="_instrumentor_8h.html" target="_top" xlink:title=" ">
<polygon fill="white" stroke="black" points="944.5,-112.5 944.5,-131.5 1023.5,-131.5 1023.5,-112.5 944.5,-112.5"/>
<text text-anchor="middle" x="984" y="-119.5" font-family="Arial.ttf" font-size="10.00">Instrumentor.h</text>
</a>
</g>
</g>
<!-- Node1&#45;&gt;Node31 -->
<g id="edge38" class="edge">
<title>Node1&#45;&gt;Node31</title>
<path fill="none" stroke="midnightblue" d="M984,-280.08C984,-253.95 984,-177.21 984,-141.58"/>
<polygon fill="midnightblue" stroke="midnightblue" points="987.5,-141.57 984,-131.57 980.5,-141.57 987.5,-141.57"/>
</g>
<!-- Node3 -->
<g id="node3" class="node">
<title>Node3</title>
<g id="a_node3"><a xlink:href="_c_v_tracked_8h.html" target="_top" xlink:title=" ">
<polygon fill="white" stroke="black" points="593,-168.5 593,-187.5 667,-187.5 667,-168.5 593,-168.5"/>
<text text-anchor="middle" x="630" y="-175.5" font-family="Arial.ttf" font-size="10.00">CVTracked.h</text>
</a>
</g>
</g>
<!-- Node2&#45;&gt;Node3 -->
<g id="edge2" class="edge">
<title>Node2&#45;&gt;Node3</title>
<path fill="none" stroke="midnightblue" d="M675.92,-224.08C667.83,-216.14 655.8,-204.34 646.09,-194.8"/>
<polygon fill="midnightblue" stroke="midnightblue" points="648.5,-192.26 638.91,-187.75 643.6,-197.25 648.5,-192.26"/>
</g>
<!-- Node21 -->
<g id="node21" class="node">
<title>Node21</title>
<g id="a_node21"><a xlink:title=" ">
<polygon fill="white" stroke="#bfbfbf" points="685.5,-168.5 685.5,-187.5 792.5,-187.5 792.5,-168.5 685.5,-168.5"/>
<text text-anchor="middle" x="739" y="-175.5" font-family="Arial.ttf" font-size="10.00">WAIOrbVocabulary.h</text>
</a>
</g>
</g>
<!-- Node2&#45;&gt;Node21 -->
<g id="edge23" class="edge">
<title>Node2&#45;&gt;Node21</title>
<path fill="none" stroke="midnightblue" d="M693.92,-224.08C701.78,-216.22 713.43,-204.57 722.92,-195.08"/>
<polygon fill="midnightblue" stroke="midnightblue" points="725.65,-197.3 730.25,-187.75 720.7,-192.35 725.65,-197.3"/>
</g>
<!-- Node22 -->
<g id="node22" class="node">
<title>Node22</title>
<g id="a_node22"><a xlink:title=" ">
<polygon fill="white" stroke="#bfbfbf" points="509,-168.5 509,-187.5 575,-187.5 575,-168.5 509,-168.5"/>
<text text-anchor="middle" x="542" y="-175.5" font-family="Arial.ttf" font-size="10.00">WAISlam.h</text>
</a>
</g>
</g>
<!-- Node2&#45;&gt;Node22 -->
<g id="edge24" class="edge">
<title>Node2&#45;&gt;Node22</title>
<path fill="none" stroke="midnightblue" d="M662.34,-224.44C638.6,-215.48 601.09,-201.31 574.26,-191.18"/>
<polygon fill="midnightblue" stroke="midnightblue" points="575.14,-187.77 564.55,-187.52 572.67,-194.32 575.14,-187.77"/>
</g>
<!-- Node4 -->
<g id="node4" class="node">
<title>Node4</title>
<g id="a_node4"><a xlink:href="_averaged_8h.html" target="_top" xlink:title=" ">
<polygon fill="white" stroke="black" points="691,-112.5 691,-131.5 757,-131.5 757,-112.5 691,-112.5"/>
<text text-anchor="middle" x="724" y="-119.5" font-family="Arial.ttf" font-size="10.00">Averaged.h</text>
</a>
</g>
</g>
<!-- Node3&#45;&gt;Node4 -->
<g id="edge3" class="edge">
<title>Node3&#45;&gt;Node4</title>
<path fill="none" stroke="midnightblue" d="M645.1,-168.32C659.9,-159.82 682.69,-146.73 699.98,-136.8"/>
<polygon fill="midnightblue" stroke="midnightblue" points="702.01,-139.67 708.93,-131.65 698.52,-133.6 702.01,-139.67"/>
</g>
<!-- Node6 -->
<g id="node6" class="node">
<title>Node6</title>
<g id="a_node6"><a xlink:href="_high_res_timer_8h.html" target="_top" xlink:title=" ">
<polygon fill="white" stroke="black" points="813.5,-112.5 813.5,-131.5 900.5,-131.5 900.5,-112.5 813.5,-112.5"/>
<text text-anchor="middle" x="857" y="-119.5" font-family="Arial.ttf" font-size="10.00">HighResTimer.h</text>
</a>
</g>
</g>
<!-- Node3&#45;&gt;Node6 -->
<g id="edge5" class="edge">
<title>Node3&#45;&gt;Node6</title>
<path fill="none" stroke="midnightblue" d="M665.97,-168.44C705.32,-159.08 768.49,-144.06 811.31,-133.87"/>
<polygon fill="midnightblue" stroke="midnightblue" points="812.28,-137.24 821.2,-131.52 810.66,-130.43 812.28,-137.24"/>
</g>
<!-- Node10 -->
<g id="node10" class="node">
<title>Node10</title>
<g id="a_node10"><a xlink:href="_c_v_typedefs_8h.html" target="_top" xlink:title=" ">
<polygon fill="white" stroke="black" points="451.5,-56.5 451.5,-75.5 530.5,-75.5 530.5,-56.5 451.5,-56.5"/>
<text text-anchor="middle" x="491" y="-63.5" font-family="Arial.ttf" font-size="10.00">CVTypedefs.h</text>
</a>
</g>
</g>
<!-- Node3&#45;&gt;Node10 -->
<g id="edge9" class="edge">
<title>Node3&#45;&gt;Node10</title>
<path fill="none" stroke="midnightblue" d="M592.97,-169.68C545.47,-159.92 468.19,-142.65 460,-132 448.4,-116.93 461.53,-96.81 474.1,-82.97"/>
<polygon fill="midnightblue" stroke="midnightblue" points="476.78,-85.24 481.25,-75.63 471.76,-80.36 476.78,-85.24"/>
</g>
<!-- Node15 -->
<g id="node15" class="node">
<title>Node15</title>
<g id="a_node15"><a xlink:title=" ">
<polygon fill="white" stroke="#bfbfbf" points="0,-0.5 0,-19.5 126,-19.5 126,-0.5 0,-0.5"/>
<text text-anchor="middle" x="63" y="-7.5" font-family="Arial.ttf" font-size="10.00">opencv2/xfeatures2d.hpp</text>
</a>
</g>
</g>
<!-- Node3&#45;&gt;Node15 -->
<g id="edge22" class="edge">
<title>Node3&#45;&gt;Node15</title>
<path fill="none" stroke="midnightblue" d="M593.71,-168.43C557.63,-159.77 500.78,-145.74 452,-132 320.88,-95.06 166.85,-45.21 98.62,-22.79"/>
<polygon fill="midnightblue" stroke="midnightblue" points="99.4,-19.36 88.8,-19.56 97.21,-26.01 99.4,-19.36"/>
</g>
<!-- Node17 -->
<g id="node17" class="node">
<title>Node17</title>
<g id="a_node17"><a xlink:href="_c_v_calibration_8h.html" target="_top" xlink:title=" ">
<polygon fill="white" stroke="black" points="587,-112.5 587,-131.5 673,-131.5 673,-112.5 587,-112.5"/>
<text text-anchor="middle" x="630" y="-119.5" font-family="Arial.ttf" font-size="10.00">CVCalibration.h</text>
</a>
</g>
</g>
<!-- Node3&#45;&gt;Node17 -->
<g id="edge17" class="edge">
<title>Node3&#45;&gt;Node17</title>
<path fill="none" stroke="midnightblue" d="M630,-168.08C630,-161.01 630,-150.86 630,-141.99"/>
<polygon fill="midnightblue" stroke="midnightblue" points="633.5,-141.75 630,-131.75 626.5,-141.75 633.5,-141.75"/>
</g>
<!-- Node20 -->
<g id="node20" class="node">
<title>Node20</title>
<g id="a_node20"><a xlink:title=" ">
<polygon fill="white" stroke="#bfbfbf" points="469.5,-112.5 469.5,-131.5 568.5,-131.5 568.5,-112.5 469.5,-112.5"/>
<text text-anchor="middle" x="519" y="-119.5" font-family="Arial.ttf" font-size="10.00">opencv2/aruco.hpp</text>
</a>
</g>
</g>
<!-- Node3&#45;&gt;Node20 -->
<g id="edge21" class="edge">
<title>Node3&#45;&gt;Node20</title>
<path fill="none" stroke="midnightblue" d="M612.17,-168.32C594.28,-159.62 566.52,-146.12 545.95,-136.11"/>
<polygon fill="midnightblue" stroke="midnightblue" points="547.31,-132.88 536.79,-131.65 544.25,-139.18 547.31,-132.88"/>
</g>
<!-- Node5 -->
<g id="node5" class="node">
<title>Node5</title>
<g id="a_node5"><a xlink:title=" ">
<polygon fill="white" stroke="#bfbfbf" points="931,-0.5 931,-19.5 975,-19.5 975,-0.5 931,-0.5"/>
<text text-anchor="middle" x="953" y="-7.5" font-family="Arial.ttf" font-size="10.00">vector</text>
</a>
</g>
</g>
<!-- Node4&#45;&gt;Node5 -->
<g id="edge4" class="edge">
<title>Node4&#45;&gt;Node5</title>
<path fill="none" stroke="midnightblue" d="M723.87,-112.39C724.16,-98.4 726.89,-70.78 743,-56 800.46,-3.28 840,-36.49 920.66,-19.98"/>
<polygon fill="midnightblue" stroke="midnightblue" points="921.73,-23.33 930.71,-17.71 920.18,-16.5 921.73,-23.33"/>
</g>
<!-- Node7 -->
<g id="node7" class="node">
<title>Node7</title>
<g id="a_node7"><a xlink:title=" ">
<polygon fill="white" stroke="#bfbfbf" points="892,-56.5 892,-75.5 938,-75.5 938,-56.5 892,-56.5"/>
<text text-anchor="middle" x="915" y="-63.5" font-family="Arial.ttf" font-size="10.00">chrono</text>
</a>
</g>
</g>
<!-- Node6&#45;&gt;Node7 -->
<g id="edge6" class="edge">
<title>Node6&#45;&gt;Node7</title>
<path fill="none" stroke="midnightblue" d="M866.32,-112.32C874.89,-104.34 887.81,-92.31 898.19,-82.65"/>
<polygon fill="midnightblue" stroke="midnightblue" points="900.58,-85.21 905.51,-75.83 895.81,-80.09 900.58,-85.21"/>
</g>
<!-- Node8 -->
<g id="node8" class="node">
<title>Node8</title>
<g id="a_node8"><a xlink:title=" ">
<polygon fill="white" stroke="#bfbfbf" points="752.5,-56.5 752.5,-75.5 811.5,-75.5 811.5,-56.5 752.5,-56.5"/>
<text text-anchor="middle" x="782" y="-63.5" font-family="Arial.ttf" font-size="10.00">functional</text>
</a>
</g>
</g>
<!-- Node6&#45;&gt;Node8 -->
<g id="edge7" class="edge">
<title>Node6&#45;&gt;Node8</title>
<path fill="none" stroke="midnightblue" d="M844.95,-112.32C833.54,-104.11 816.17,-91.6 802.57,-81.81"/>
<polygon fill="midnightblue" stroke="midnightblue" points="804.43,-78.84 794.27,-75.83 800.34,-84.52 804.43,-78.84"/>
</g>
<!-- Node9 -->
<g id="node9" class="node">
<title>Node9</title>
<g id="a_node9"><a xlink:title=" ">
<polygon fill="white" stroke="#bfbfbf" points="830,-56.5 830,-75.5 874,-75.5 874,-56.5 830,-56.5"/>
<text text-anchor="middle" x="852" y="-63.5" font-family="Arial.ttf" font-size="10.00">thread</text>
</a>
</g>
</g>
<!-- Node6&#45;&gt;Node9 -->
<g id="edge8" class="edge">
<title>Node6&#45;&gt;Node9</title>
<path fill="none" stroke="midnightblue" d="M856.17,-112.08C855.52,-105.01 854.58,-94.86 853.76,-85.99"/>
<polygon fill="midnightblue" stroke="midnightblue" points="857.22,-85.39 852.81,-75.75 850.25,-86.03 857.22,-85.39"/>
</g>
<!-- Node10&#45;&gt;Node5 -->
<g id="edge10" class="edge">
<title>Node10&#45;&gt;Node5</title>
<path fill="none" stroke="midnightblue" d="M530.83,-61.76C619.34,-54.41 831.02,-36.01 920.93,-19.83"/>
<polygon fill="midnightblue" stroke="midnightblue" points="921.59,-23.27 930.77,-17.97 920.29,-16.39 921.59,-23.27"/>
</g>
<!-- Node11 -->
<g id="node11" class="node">
<title>Node11</title>
<g id="a_node11"><a xlink:title=" ">
<polygon fill="white" stroke="#bfbfbf" points="433,-0.5 433,-19.5 549,-19.5 549,-0.5 433,-0.5"/>
<text text-anchor="middle" x="491" y="-7.5" font-family="Arial.ttf" font-size="10.00">opencv2/core/core.hpp</text>
</a>
</g>
</g>
<!-- Node10&#45;&gt;Node11 -->
<g id="edge11" class="edge">
<title>Node10&#45;&gt;Node11</title>
<path fill="none" stroke="midnightblue" d="M491,-56.08C491,-49.01 491,-38.86 491,-29.99"/>
<polygon fill="midnightblue" stroke="midnightblue" points="494.5,-29.75 491,-19.75 487.5,-29.75 494.5,-29.75"/>
</g>
<!-- Node12 -->
<g id="node12" class="node">
<title>Node12</title>
<g id="a_node12"><a xlink:title=" ">
<polygon fill="white" stroke="#bfbfbf" points="567,-0.5 567,-19.5 677,-19.5 677,-0.5 567,-0.5"/>
<text text-anchor="middle" x="622" y="-7.5" font-family="Arial.ttf" font-size="10.00">opencv2/core/ocl.hpp</text>
</a>
</g>
</g>
<!-- Node10&#45;&gt;Node12 -->
<g id="edge12" class="edge">
<title>Node10&#45;&gt;Node12</title>
<path fill="none" stroke="midnightblue" d="M511.76,-56.44C533.32,-47.56 567.26,-33.56 591.79,-23.45"/>
<polygon fill="midnightblue" stroke="midnightblue" points="593.43,-26.56 601.34,-19.52 590.76,-20.09 593.43,-26.56"/>
</g>
<!-- Node13 -->
<g id="node13" class="node">
<title>Node13</title>
<g id="a_node13"><a xlink:title=" ">
<polygon fill="white" stroke="#bfbfbf" points="695,-0.5 695,-19.5 789,-19.5 789,-0.5 695,-0.5"/>
<text text-anchor="middle" x="742" y="-7.5" font-family="Arial.ttf" font-size="10.00">opencv2/face.hpp</text>
</a>
</g>
</g>
<!-- Node10&#45;&gt;Node13 -->
<g id="edge13" class="edge">
<title>Node10&#45;&gt;Node13</title>
<path fill="none" stroke="midnightblue" d="M530.77,-56.44C574.56,-47.02 645.01,-31.87 692.38,-21.68"/>
<polygon fill="midnightblue" stroke="midnightblue" points="693.37,-25.04 702.41,-19.52 691.9,-18.2 693.37,-25.04"/>
</g>
<!-- Node14 -->
<g id="node14" class="node">
<title>Node14</title>
<g id="a_node14"><a xlink:title=" ">
<polygon fill="white" stroke="#bfbfbf" points="144.5,-0.5 144.5,-19.5 249.5,-19.5 249.5,-0.5 144.5,-0.5"/>
<text text-anchor="middle" x="197" y="-7.5" font-family="Arial.ttf" font-size="10.00">opencv2/opencv.hpp</text>
</a>
</g>
</g>
<!-- Node10&#45;&gt;Node14 -->
<g id="edge14" class="edge">
<title>Node10&#45;&gt;Node14</title>
<path fill="none" stroke="midnightblue" d="M451.35,-57.72C400.49,-48.38 311.92,-32.11 253.88,-21.45"/>
<polygon fill="midnightblue" stroke="midnightblue" points="254.24,-17.95 243.77,-19.59 252.97,-24.84 254.24,-17.95"/>
</g>
<!-- Node10&#45;&gt;Node15 -->
<g id="edge15" class="edge">
<title>Node10&#45;&gt;Node15</title>
<path fill="none" stroke="midnightblue" d="M451.12,-59.97C379.31,-50.91 227.29,-31.73 136.27,-20.24"/>
<polygon fill="midnightblue" stroke="midnightblue" points="136.66,-16.77 126.3,-18.99 135.79,-23.71 136.66,-16.77"/>
</g>
<!-- Node16 -->
<g id="node16" class="node">
<title>Node16</title>
<g id="a_node16"><a xlink:title=" ">
<polygon fill="white" stroke="#bfbfbf" points="267.5,-0.5 267.5,-19.5 414.5,-19.5 414.5,-0.5 267.5,-0.5"/>
<text text-anchor="middle" x="341" y="-7.5" font-family="Arial.ttf" font-size="10.00">opencv2/imgproc/imgproc.hpp</text>
</a>
</g>
</g>
<!-- Node10&#45;&gt;Node16 -->
<g id="edge16" class="edge">
<title>Node10&#45;&gt;Node16</title>
<path fill="none" stroke="midnightblue" d="M467.23,-56.44C442.11,-47.4 402.29,-33.06 374.1,-22.92"/>
<polygon fill="midnightblue" stroke="midnightblue" points="375.25,-19.61 364.66,-19.52 372.88,-26.2 375.25,-19.61"/>
</g>
<!-- Node17&#45;&gt;Node10 -->
<g id="edge18" class="edge">
<title>Node17&#45;&gt;Node10</title>
<path fill="none" stroke="midnightblue" d="M607.98,-112.44C584.9,-103.48 548.44,-89.31 522.36,-79.18"/>
<polygon fill="midnightblue" stroke="midnightblue" points="523.51,-75.88 512.92,-75.52 520.98,-82.4 523.51,-75.88"/>
</g>
<!-- Node18 -->
<g id="node18" class="node">
<title>Node18</title>
<g id="a_node18"><a xlink:href="_c_v_types_8h.html" target="_top" xlink:title=" ">
<polygon fill="white" stroke="black" points="614.5,-56.5 614.5,-75.5 679.5,-75.5 679.5,-56.5 614.5,-56.5"/>
<text text-anchor="middle" x="647" y="-63.5" font-family="Arial.ttf" font-size="10.00">CVTypes.h</text>
</a>
</g>
</g>
<!-- Node17&#45;&gt;Node18 -->
<g id="edge19" class="edge">
<title>Node17&#45;&gt;Node18</title>
<path fill="none" stroke="midnightblue" d="M632.81,-112.08C635.08,-104.85 638.37,-94.41 641.21,-85.4"/>
<polygon fill="midnightblue" stroke="midnightblue" points="644.58,-86.34 644.25,-75.75 637.9,-84.24 644.58,-86.34"/>
</g>
<!-- Node19 -->
<g id="node19" class="node">
<title>Node19</title>
<g id="a_node19"><a xlink:title=" ">
<polygon fill="white" stroke="#bfbfbf" points="807,-0.5 807,-19.5 913,-19.5 913,-0.5 807,-0.5"/>
<text text-anchor="middle" x="860" y="-7.5" font-family="Arial.ttf" font-size="10.00">opencv2/calib3d.hpp</text>
</a>
</g>
</g>
<!-- Node18&#45;&gt;Node19 -->
<g id="edge20" class="edge">
<title>Node18&#45;&gt;Node19</title>
<path fill="none" stroke="midnightblue" d="M679.81,-56.68C716.5,-47.38 776.06,-32.28 816.58,-22.01"/>
<polygon fill="midnightblue" stroke="midnightblue" points="817.61,-25.36 826.45,-19.51 815.89,-18.57 817.61,-25.36"/>
</g>
<!-- Node24 -->
<g id="node24" class="node">
<title>Node24</title>
<g id="a_node24"><a xlink:href="_utils_8h.html" target="_top" xlink:title=" ">
<polygon fill="white" stroke="black" points="1139.5,-168.5 1139.5,-187.5 1184.5,-187.5 1184.5,-168.5 1139.5,-168.5"/>
<text text-anchor="middle" x="1162" y="-175.5" font-family="Arial.ttf" font-size="10.00">Utils.h</text>
</a>
</g>
</g>
<!-- Node23&#45;&gt;Node24 -->
<g id="edge26" class="edge">
<title>Node23&#45;&gt;Node24</title>
<path fill="none" stroke="midnightblue" d="M1093.17,-224.32C1105.85,-215.98 1125.23,-203.21 1140.21,-193.35"/>
<polygon fill="midnightblue" stroke="midnightblue" points="1142.43,-196.08 1148.86,-187.65 1138.58,-190.23 1142.43,-196.08"/>
</g>
<!-- Node24&#45;&gt;Node5 -->
<g id="edge28" class="edge">
<title>Node24&#45;&gt;Node5</title>
<path fill="none" stroke="midnightblue" d="M1143.06,-168.42C1128.79,-160.92 1110.04,-148.62 1100,-132 1082.35,-102.79 1110.92,-82.16 1089,-56 1063.38,-25.43 1016.49,-15.5 985.03,-12.35"/>
<polygon fill="midnightblue" stroke="midnightblue" points="985.26,-8.86 975.01,-11.52 984.68,-15.83 985.26,-8.86"/>
</g>
<!-- Node24&#45;&gt;Node8 -->
<g id="edge37" class="edge">
<title>Node24&#45;&gt;Node8</title>
<path fill="none" stroke="midnightblue" d="M1139.47,-177.19C1069.19,-177.33 855.68,-174.19 804,-132 790.32,-120.83 785.11,-100.81 783.14,-85.92"/>
<polygon fill="midnightblue" stroke="midnightblue" points="786.61,-85.41 782.19,-75.78 779.64,-86.06 786.61,-85.41"/>
</g>
<!-- Node25 -->
<g id="node25" class="node">
<title>Node25</title>
<g id="a_node25"><a xlink:title=" ">
<polygon fill="white" stroke="#bfbfbf" points="1203.5,-56.5 1203.5,-75.5 1244.5,-75.5 1244.5,-56.5 1203.5,-56.5"/>
<text text-anchor="middle" x="1224" y="-63.5" font-family="Arial.ttf" font-size="10.00">string</text>
</a>
</g>
</g>
<!-- Node24&#45;&gt;Node25 -->
<g id="edge27" class="edge">
<title>Node24&#45;&gt;Node25</title>
<path fill="none" stroke="midnightblue" d="M1184.72,-169.41C1201.38,-162.51 1222.8,-150.54 1233,-132 1240.96,-117.52 1237.02,-98.59 1232.1,-84.89"/>
<polygon fill="midnightblue" stroke="midnightblue" points="1235.33,-83.55 1228.33,-75.6 1228.84,-86.18 1235.33,-83.55"/>
</g>
<!-- Node26 -->
<g id="node26" class="node">
<title>Node26</title>
<g id="a_node26"><a xlink:title=" ">
<polygon fill="white" stroke="#bfbfbf" points="1108.5,-112.5 1108.5,-131.5 1149.5,-131.5 1149.5,-112.5 1108.5,-112.5"/>
<text text-anchor="middle" x="1129" y="-119.5" font-family="Arial.ttf" font-size="10.00">cfloat</text>
</a>
</g>
</g>
<!-- Node24&#45;&gt;Node26 -->
<g id="edge29" class="edge">
<title>Node24&#45;&gt;Node26</title>
<path fill="none" stroke="midnightblue" d="M1156.55,-168.08C1151.99,-160.61 1145.33,-149.72 1139.71,-140.52"/>
<polygon fill="midnightblue" stroke="midnightblue" points="1142.55,-138.46 1134.35,-131.75 1136.58,-142.11 1142.55,-138.46"/>
</g>
<!-- Node27 -->
<g id="node27" class="node">
<title>Node27</title>
<g id="a_node27"><a xlink:title=" ">
<polygon fill="white" stroke="#bfbfbf" points="1325,-56.5 1325,-75.5 1377,-75.5 1377,-56.5 1325,-56.5"/>
<text text-anchor="middle" x="1351" y="-63.5" font-family="Arial.ttf" font-size="10.00">memory</text>
</a>
</g>
</g>
<!-- Node24&#45;&gt;Node27 -->
<g id="edge30" class="edge">
<title>Node24&#45;&gt;Node27</title>
<path fill="none" stroke="midnightblue" d="M1184.73,-175.44C1232.88,-171.61 1342.57,-159.94 1365,-132 1375.8,-118.54 1369.21,-98.63 1361.86,-84.4"/>
<polygon fill="midnightblue" stroke="midnightblue" points="1364.84,-82.56 1356.85,-75.6 1358.76,-86.02 1364.84,-82.56"/>
</g>
<!-- Node28 -->
<g id="node28" class="node">
<title>Node28</title>
<g id="a_node28"><a xlink:href="_file_log_8h.html" target="_top" xlink:title=" ">
<polygon fill="white" stroke="black" points="1168,-112.5 1168,-131.5 1224,-131.5 1224,-112.5 1168,-112.5"/>
<text text-anchor="middle" x="1196" y="-119.5" font-family="Arial.ttf" font-size="10.00">FileLog.h</text>
</a>
</g>
</g>
<!-- Node24&#45;&gt;Node28 -->
<g id="edge31" class="edge">
<title>Node24&#45;&gt;Node28</title>
<path fill="none" stroke="midnightblue" d="M1167.61,-168.08C1172.37,-160.53 1179.32,-149.49 1185.15,-140.23"/>
<polygon fill="midnightblue" stroke="midnightblue" points="1188.12,-142.08 1190.49,-131.75 1182.2,-138.35 1188.12,-142.08"/>
</g>
<!-- Node30 -->
<g id="node30" class="node">
<title>Node30</title>
<g id="a_node30"><a xlink:href="_custom_log_8h.html" target="_top" xlink:title=" ">
<polygon fill="white" stroke="black" points="1280.5,-112.5 1280.5,-131.5 1355.5,-131.5 1355.5,-112.5 1280.5,-112.5"/>
<text text-anchor="middle" x="1318" y="-119.5" font-family="Arial.ttf" font-size="10.00">CustomLog.h</text>
</a>
</g>
</g>
<!-- Node24&#45;&gt;Node30 -->
<g id="edge34" class="edge">
<title>Node24&#45;&gt;Node30</title>
<path fill="none" stroke="midnightblue" d="M1184.68,-169.15C1210.65,-160.16 1253.46,-145.34 1283.55,-134.92"/>
<polygon fill="midnightblue" stroke="midnightblue" points="1284.92,-138.15 1293.23,-131.58 1282.63,-131.54 1284.92,-138.15"/>
</g>
<!-- Node28&#45;&gt;Node25 -->
<g id="edge32" class="edge">
<title>Node28&#45;&gt;Node25</title>
<path fill="none" stroke="midnightblue" d="M1200.62,-112.08C1204.46,-104.69 1210.02,-93.95 1214.76,-84.81"/>
<polygon fill="midnightblue" stroke="midnightblue" points="1217.97,-86.24 1219.46,-75.75 1211.75,-83.02 1217.97,-86.24"/>
</g>
<!-- Node29 -->
<g id="node29" class="node">
<title>Node29</title>
<g id="a_node29"><a xlink:title=" ">
<polygon fill="white" stroke="#bfbfbf" points="1030,-56.5 1030,-75.5 1080,-75.5 1080,-56.5 1030,-56.5"/>
<text text-anchor="middle" x="1055" y="-63.5" font-family="Arial.ttf" font-size="10.00">fstream</text>
</a>
</g>
</g>
<!-- Node28&#45;&gt;Node29 -->
<g id="edge33" class="edge">
<title>Node28&#45;&gt;Node29</title>
<path fill="none" stroke="midnightblue" d="M1173.66,-112.44C1150.25,-103.48 1113.26,-89.31 1086.81,-79.18"/>
<polygon fill="midnightblue" stroke="midnightblue" points="1087.83,-75.82 1077.24,-75.52 1085.32,-82.36 1087.83,-75.82"/>
</g>
<!-- Node30&#45;&gt;Node25 -->
<g id="edge36" class="edge">
<title>Node30&#45;&gt;Node25</title>
<path fill="none" stroke="midnightblue" d="M1302.9,-112.32C1288.1,-103.82 1265.31,-90.73 1248.02,-80.8"/>
<polygon fill="midnightblue" stroke="midnightblue" points="1249.48,-77.6 1239.07,-75.65 1245.99,-83.67 1249.48,-77.6"/>
</g>
<!-- Node30&#45;&gt;Node27 -->
<g id="edge35" class="edge">
<title>Node30&#45;&gt;Node27</title>
<path fill="none" stroke="midnightblue" d="M1323.45,-112.08C1328.01,-104.61 1334.67,-93.72 1340.29,-84.52"/>
<polygon fill="midnightblue" stroke="midnightblue" points="1343.42,-86.11 1345.65,-75.75 1337.45,-82.46 1343.42,-86.11"/>
</g>
<!-- Node31&#45;&gt;Node7 -->
<g id="edge40" class="edge">
<title>Node31&#45;&gt;Node7</title>
<path fill="none" stroke="midnightblue" d="M972.91,-112.32C962.51,-104.18 946.74,-91.84 934.28,-82.09"/>
<polygon fill="midnightblue" stroke="midnightblue" points="936.32,-79.24 926.29,-75.83 932.01,-84.75 936.32,-79.24"/>
</g>
<!-- Node31&#45;&gt;Node9 -->
<g id="edge43" class="edge">
<title>Node31&#45;&gt;Node9</title>
<path fill="none" stroke="midnightblue" d="M963.08,-112.44C941.26,-103.52 906.85,-89.44 882.11,-79.32"/>
<polygon fill="midnightblue" stroke="midnightblue" points="883.4,-76.06 872.82,-75.52 880.75,-82.54 883.4,-76.06"/>
</g>
<!-- Node31&#45;&gt;Node25 -->
<g id="edge39" class="edge">
<title>Node31&#45;&gt;Node25</title>
<path fill="none" stroke="midnightblue" d="M1022.03,-112.44C1069.51,-101.76 1149.78,-83.7 1193.46,-73.87"/>
<polygon fill="midnightblue" stroke="midnightblue" points="1194.23,-77.28 1203.22,-71.67 1192.7,-70.46 1194.23,-77.28"/>
</g>
<!-- Node31&#45;&gt;Node29 -->
<g id="edge42" class="edge">
<title>Node31&#45;&gt;Node29</title>
<path fill="none" stroke="midnightblue" d="M995.41,-112.32C1006.11,-104.18 1022.34,-91.84 1035.16,-82.09"/>
<polygon fill="midnightblue" stroke="midnightblue" points="1037.54,-84.67 1043.39,-75.83 1033.31,-79.1 1037.54,-84.67"/>
</g>
<!-- Node32 -->
<g id="node32" class="node">
<title>Node32</title>
<g id="a_node32"><a xlink:title=" ">
<polygon fill="white" stroke="#bfbfbf" points="956,-56.5 956,-75.5 1012,-75.5 1012,-56.5 956,-56.5"/>
<text text-anchor="middle" x="984" y="-63.5" font-family="Arial.ttf" font-size="10.00">algorithm</text>
</a>
</g>
</g>
<!-- Node31&#45;&gt;Node32 -->
<g id="edge41" class="edge">
<title>Node31&#45;&gt;Node32</title>
<path fill="none" stroke="midnightblue" d="M984,-112.08C984,-105.01 984,-94.86 984,-85.99"/>
<polygon fill="midnightblue" stroke="midnightblue" points="987.5,-85.75 984,-75.75 980.5,-85.75 987.5,-85.75"/>
</g>
</g>
</svg>
