<?xml version="1.0" encoding="UTF-8" standalone="no"?>
<!DOCTYPE svg PUBLIC "-//W3C//DTD SVG 1.1//EN"
 "http://www.w3.org/Graphics/SVG/1.1/DTD/svg11.dtd">
<!-- Generated by graphviz version 2.50.0 (20211204.2007)
 -->
<!-- Title: CVTracked.h Pages: 1 -->
<svg width="1020pt" height="140pt"
 viewBox="0.00 0.00 1020.00 140.00" xmlns="http://www.w3.org/2000/svg" xmlns:xlink="http://www.w3.org/1999/xlink">
<g id="graph0" class="graph" transform="scale(1 1) rotate(0) translate(4 136)">
<title>CVTracked.h</title>
<polygon fill="white" stroke="transparent" points="-4,4 -4,-136 1016,-136 1016,4 -4,4"/>
<!-- Node1 -->
<g id="node1" class="node">
<title>Node1</title>
<g id="a_node1"><a xlink:title=" ">
<polygon fill="#bfbfbf" stroke="black" points="473,-112.5 473,-131.5 547,-131.5 547,-112.5 473,-112.5"/>
<text text-anchor="middle" x="510" y="-119.5" font-family="Arial" font-size="10.00">CVTracked.h</text>
</a>
</g>
</g>
<!-- Node2 -->
<g id="node2" class="node">
<title>Node2</title>
<g id="a_node2"><a xlink:href="_c_v_tracked_8cpp.html" target="_top" xlink:title=" ">
<polygon fill="white" stroke="black" points="158.5,-56.5 158.5,-75.5 243.5,-75.5 243.5,-56.5 158.5,-56.5"/>
<text text-anchor="middle" x="201" y="-63.5" font-family="Arial" font-size="10.00">CVTracked.cpp</text>
</a>
</g>
</g>
<!-- Node1&#45;&gt;Node2 -->
<g id="edge1" class="edge">
<title>Node1&#45;&gt;Node2</title>
<path fill="none" stroke="midnightblue" d="M462.8,-112.75C403.07,-102.31 301.06,-84.49 243.6,-74.44"/>
<polygon fill="midnightblue" stroke="midnightblue" points="462.27,-116.21 472.73,-114.49 463.48,-109.32 462.27,-116.21"/>
</g>
<!-- Node3 -->
<g id="node3" class="node">
<title>Node3</title>
<g id="a_node3"><a xlink:href="_c_v_tracked_aruco_8h.html" target="_top" xlink:title=" ">
<polygon fill="white" stroke="black" points="262,-56.5 262,-75.5 362,-75.5 362,-56.5 262,-56.5"/>
<text text-anchor="middle" x="312" y="-63.5" font-family="Arial" font-size="10.00">CVTrackedAruco.h</text>
</a>
</g>
</g>
<!-- Node1&#45;&gt;Node3 -->
<g id="edge2" class="edge">
<title>Node1&#45;&gt;Node3</title>
<path fill="none" stroke="midnightblue" d="M468.56,-109.7C431.19,-99.51 377.06,-84.74 343.23,-75.52"/>
<polygon fill="midnightblue" stroke="midnightblue" points="468.06,-113.19 478.63,-112.44 469.9,-106.44 468.06,-113.19"/>
</g>
<!-- Node7 -->
<g id="node7" class="node">
<title>Node7</title>
<g id="a_node7"><a xlink:href="_c_v_tracked_chessboard_8h.html" target="_top" xlink:title=" ">
<polygon fill="white" stroke="black" points="380.5,-56.5 380.5,-75.5 507.5,-75.5 507.5,-56.5 380.5,-56.5"/>
<text text-anchor="middle" x="444" y="-63.5" font-family="Arial" font-size="10.00">CVTrackedChessboard.h</text>
</a>
</g>
</g>
<!-- Node1&#45;&gt;Node7 -->
<g id="edge6" class="edge">
<title>Node1&#45;&gt;Node7</title>
<path fill="none" stroke="midnightblue" d="M491.45,-105.82C479.62,-96.15 464.71,-83.95 454.8,-75.83"/>
<polygon fill="midnightblue" stroke="midnightblue" points="489.44,-108.7 499.4,-112.32 493.87,-103.28 489.44,-108.7"/>
</g>
<!-- Node9 -->
<g id="node9" class="node">
<title>Node9</title>
<g id="a_node9"><a xlink:href="_c_v_tracked_faces_8h.html" target="_top" xlink:title=" ">
<polygon fill="white" stroke="black" points="525.5,-56.5 525.5,-75.5 626.5,-75.5 626.5,-56.5 525.5,-56.5"/>
<text text-anchor="middle" x="576" y="-63.5" font-family="Arial" font-size="10.00">CVTrackedFaces.h</text>
</a>
</g>
</g>
<!-- Node1&#45;&gt;Node9 -->
<g id="edge9" class="edge">
<title>Node1&#45;&gt;Node9</title>
<path fill="none" stroke="midnightblue" d="M528.55,-105.82C540.38,-96.15 555.29,-83.95 565.2,-75.83"/>
<polygon fill="midnightblue" stroke="midnightblue" points="526.13,-103.28 520.6,-112.32 530.56,-108.7 526.13,-103.28"/>
</g>
<!-- Node11 -->
<g id="node11" class="node">
<title>Node11</title>
<g id="a_node11"><a xlink:href="_c_v_tracked_features_8h.html" target="_top" xlink:title=" ">
<polygon fill="white" stroke="black" points="644.5,-56.5 644.5,-75.5 757.5,-75.5 757.5,-56.5 644.5,-56.5"/>
<text text-anchor="middle" x="701" y="-63.5" font-family="Arial" font-size="10.00">CVTrackedFeatures.h</text>
</a>
</g>
</g>
<!-- Node1&#45;&gt;Node11 -->
<g id="edge12" class="edge">
<title>Node1&#45;&gt;Node11</title>
<path fill="none" stroke="midnightblue" d="M549.97,-109.7C586.02,-99.51 638.24,-84.74 670.88,-75.52"/>
<polygon fill="midnightblue" stroke="midnightblue" points="548.94,-106.35 540.26,-112.44 550.84,-113.09 548.94,-106.35"/>
</g>
<!-- Node14 -->
<g id="node14" class="node">
<title>Node14</title>
<g id="a_node14"><a xlink:href="_c_v_tracked_w_a_i_8h.html" target="_top" xlink:title=" ">
<polygon fill="white" stroke="black" points="844.5,-56.5 844.5,-75.5 937.5,-75.5 937.5,-56.5 844.5,-56.5"/>
<text text-anchor="middle" x="891" y="-63.5" font-family="Arial" font-size="10.00">CVTrackedWAI.h</text>
</a>
</g>
</g>
<!-- Node1&#45;&gt;Node14 -->
<g id="edge16" class="edge">
<title>Node1&#45;&gt;Node14</title>
<path fill="none" stroke="midnightblue" d="M557.58,-114.26C631.14,-103.83 771.59,-83.92 844.5,-73.59"/>
<polygon fill="midnightblue" stroke="midnightblue" points="556.64,-110.86 547.23,-115.72 557.62,-117.79 556.64,-110.86"/>
</g>
<!-- Node4 -->
<g id="node4" class="node">
<title>Node4</title>
<g id="a_node4"><a xlink:href="_app_demo_load_8cpp.html" target="_top" xlink:title=" ">
<polygon fill="white" stroke="black" points="406,-0.5 406,-19.5 506,-19.5 506,-0.5 406,-0.5"/>
<text text-anchor="middle" x="456" y="-7.5" font-family="Arial" font-size="10.00">AppDemoLoad.cpp</text>
</a>
</g>
</g>
<!-- Node3&#45;&gt;Node4 -->
<g id="edge3" class="edge">
<title>Node3&#45;&gt;Node4</title>
<path fill="none" stroke="midnightblue" d="M344.25,-52.91C371.32,-42.75 409.32,-28.51 433.29,-19.52"/>
<polygon fill="midnightblue" stroke="midnightblue" points="342.95,-49.66 334.82,-56.44 345.41,-56.21 342.95,-49.66"/>
</g>
<!-- Node5 -->
<g id="node5" class="node">
<title>Node5</title>
<g id="a_node5"><a xlink:href="_app_demo_video_8cpp.html" target="_top" xlink:title=" ">
<polygon fill="white" stroke="black" points="0,-0.5 0,-19.5 104,-19.5 104,-0.5 0,-0.5"/>
<text text-anchor="middle" x="52" y="-7.5" font-family="Arial" font-size="10.00">AppDemoVideo.cpp</text>
</a>
</g>
</g>
<!-- Node3&#45;&gt;Node5 -->
<g id="edge4" class="edge">
<title>Node3&#45;&gt;Node5</title>
<path fill="none" stroke="midnightblue" d="M261.01,-54.41C211.87,-44.2 138.47,-28.96 93.01,-19.52"/>
<polygon fill="midnightblue" stroke="midnightblue" points="260.3,-57.84 270.8,-56.44 261.72,-50.98 260.3,-57.84"/>
</g>
<!-- Node6 -->
<g id="node6" class="node">
<title>Node6</title>
<g id="a_node6"><a xlink:href="_c_v_tracked_aruco_8cpp.html" target="_top" xlink:title=" ">
<polygon fill="white" stroke="black" points="122,-0.5 122,-19.5 232,-19.5 232,-0.5 122,-0.5"/>
<text text-anchor="middle" x="177" y="-7.5" font-family="Arial" font-size="10.00">CVTrackedAruco.cpp</text>
</a>
</g>
</g>
<!-- Node3&#45;&gt;Node6 -->
<g id="edge5" class="edge">
<title>Node3&#45;&gt;Node6</title>
<path fill="none" stroke="midnightblue" d="M281.09,-52.64C255.76,-42.5 220.57,-28.43 198.29,-19.52"/>
<polygon fill="midnightblue" stroke="midnightblue" points="280.02,-55.98 290.61,-56.44 282.62,-49.48 280.02,-55.98"/>
</g>
<!-- Node7&#45;&gt;Node4 -->
<g id="edge7" class="edge">
<title>Node7&#45;&gt;Node4</title>
<path fill="none" stroke="midnightblue" d="M448.2,-46.1C450.19,-37.14 452.48,-26.86 454.06,-19.75"/>
<polygon fill="midnightblue" stroke="midnightblue" points="444.73,-45.56 445.98,-56.08 451.57,-47.08 444.73,-45.56"/>
</g>
<!-- Node8 -->
<g id="node8" class="node">
<title>Node8</title>
<g id="a_node8"><a xlink:href="_c_v_tracked_chessboard_8cpp.html" target="_top" xlink:title=" ">
<polygon fill="white" stroke="black" points="250.5,-0.5 250.5,-19.5 387.5,-19.5 387.5,-0.5 250.5,-0.5"/>
<text text-anchor="middle" x="319" y="-7.5" font-family="Arial" font-size="10.00">CVTrackedChessboard.cpp</text>
</a>
</g>
</g>
<!-- Node7&#45;&gt;Node8 -->
<g id="edge8" class="edge">
<title>Node7&#45;&gt;Node8</title>
<path fill="none" stroke="midnightblue" d="M414.76,-52.37C391.35,-42.26 359.16,-28.35 338.71,-19.52"/>
<polygon fill="midnightblue" stroke="midnightblue" points="413.63,-55.69 424.19,-56.44 416.4,-49.26 413.63,-55.69"/>
</g>
<!-- Node9&#45;&gt;Node4 -->
<g id="edge10" class="edge">
<title>Node9&#45;&gt;Node4</title>
<path fill="none" stroke="midnightblue" d="M547.63,-52.23C525.18,-42.13 494.46,-28.31 474.93,-19.52"/>
<polygon fill="midnightblue" stroke="midnightblue" points="546.43,-55.53 556.99,-56.44 549.3,-49.15 546.43,-55.53"/>
</g>
<!-- Node10 -->
<g id="node10" class="node">
<title>Node10</title>
<g id="a_node10"><a xlink:href="_c_v_tracked_faces_8cpp.html" target="_top" xlink:title=" ">
<polygon fill="white" stroke="black" points="524,-0.5 524,-19.5 636,-19.5 636,-0.5 524,-0.5"/>
<text text-anchor="middle" x="580" y="-7.5" font-family="Arial" font-size="10.00">CVTrackedFaces.cpp</text>
</a>
</g>
</g>
<!-- Node9&#45;&gt;Node10 -->
<g id="edge11" class="edge">
<title>Node9&#45;&gt;Node10</title>
<path fill="none" stroke="midnightblue" d="M577.4,-46.1C578.06,-37.14 578.83,-26.86 579.35,-19.75"/>
<polygon fill="midnightblue" stroke="midnightblue" points="573.91,-45.85 576.66,-56.08 580.89,-46.37 573.91,-45.85"/>
</g>
<!-- Node11&#45;&gt;Node4 -->
<g id="edge14" class="edge">
<title>Node11&#45;&gt;Node4</title>
<path fill="none" stroke="midnightblue" d="M652.37,-54.28C606.07,-44.08 537.31,-28.92 494.64,-19.52"/>
<polygon fill="midnightblue" stroke="midnightblue" points="651.66,-57.71 662.18,-56.44 653.17,-50.87 651.66,-57.71"/>
</g>
<!-- Node12 -->
<g id="node12" class="node">
<title>Node12</title>
<g id="a_node12"><a xlink:href="_app_demo_gui_8cpp.html" target="_top" xlink:title=" ">
<polygon fill="white" stroke="black" points="654,-0.5 654,-19.5 748,-19.5 748,-0.5 654,-0.5"/>
<text text-anchor="middle" x="701" y="-7.5" font-family="Arial" font-size="10.00">AppDemoGui.cpp</text>
</a>
</g>
</g>
<!-- Node11&#45;&gt;Node12 -->
<g id="edge13" class="edge">
<title>Node11&#45;&gt;Node12</title>
<path fill="none" stroke="midnightblue" d="M701,-45.8C701,-36.91 701,-26.78 701,-19.75"/>
<polygon fill="midnightblue" stroke="midnightblue" points="697.5,-46.08 701,-56.08 704.5,-46.08 697.5,-46.08"/>
</g>
<!-- Node13 -->
<g id="node13" class="node">
<title>Node13</title>
<g id="a_node13"><a xlink:href="_c_v_tracked_features_8cpp.html" target="_top" xlink:title=" ">
<polygon fill="white" stroke="black" points="766.5,-0.5 766.5,-19.5 889.5,-19.5 889.5,-0.5 766.5,-0.5"/>
<text text-anchor="middle" x="828" y="-7.5" font-family="Arial" font-size="10.00">CVTrackedFeatures.cpp</text>
</a>
</g>
</g>
<!-- Node11&#45;&gt;Node13 -->
<g id="edge15" class="edge">
<title>Node11&#45;&gt;Node13</title>
<path fill="none" stroke="midnightblue" d="M730.39,-52.5C754.2,-42.38 787.11,-28.39 807.97,-19.52"/>
<polygon fill="midnightblue" stroke="midnightblue" points="728.96,-49.31 721.12,-56.44 731.7,-55.75 728.96,-49.31"/>
</g>
<!-- Node15 -->
<g id="node15" class="node">
<title>Node15</title>
<g id="a_node15"><a xlink:href="_c_v_tracked_w_a_i_8cpp.html" target="_top" xlink:title=" ">
<polygon fill="white" stroke="black" points="908,-0.5 908,-19.5 1012,-19.5 1012,-0.5 908,-0.5"/>
<text text-anchor="middle" x="960" y="-7.5" font-family="Arial" font-size="10.00">CVTrackedWAI.cpp</text>
</a>
</g>
</g>
<!-- Node14&#45;&gt;Node15 -->
<g id="edge17" class="edge">
<title>Node14&#45;&gt;Node15</title>
<path fill="none" stroke="midnightblue" d="M910.04,-50.1C922.46,-40.38 938.24,-28.03 948.71,-19.83"/>
<polygon fill="midnightblue" stroke="midnightblue" points="907.8,-47.4 902.09,-56.32 912.12,-52.92 907.8,-47.4"/>
</g>
</g>
</svg>
