<?xml version="1.0" encoding="UTF-8" standalone="no"?>
<!DOCTYPE svg PUBLIC "-//W3C//DTD SVG 1.1//EN"
 "http://www.w3.org/Graphics/SVG/1.1/DTD/svg11.dtd">
<!-- Generated by graphviz version 2.40.1 (20161225.0304)
 -->
<!-- Title: CVRaulMurExtNode.cpp Pages: 1 -->
<svg width="874pt" height="196pt"
 viewBox="0.00 0.00 874.00 196.00" xmlns="http://www.w3.org/2000/svg" xmlns:xlink="http://www.w3.org/1999/xlink">
<g id="graph0" class="graph" transform="scale(1 1) rotate(0) translate(4 192)">
<title>CVRaulMurExtNode.cpp</title>
<polygon fill="#ffffff" stroke="transparent" points="-4,4 -4,-192 870,-192 870,4 -4,4"/>
<!-- Node1 -->
<g id="node1" class="node">
<title>Node1</title>
<g id="a_node1"><a xlink:title=" ">
<polygon fill="#bfbfbf" stroke="#000000" points="359.5,-168.5 359.5,-187.5 484.5,-187.5 484.5,-168.5 359.5,-168.5"/>
<text text-anchor="middle" x="422" y="-175.5" font-family="Arial.ttf" font-size="10.00" fill="#000000">CVRaulMurExtNode.cpp</text>
</a>
</g>
</g>
<!-- Node2 -->
<g id="node2" class="node">
<title>Node2</title>
<g id="a_node2"><a xlink:href="_c_v_typedefs_8h.html" target="_top" xlink:title=" ">
<polygon fill="#ffffff" stroke="#000000" points="329.5,-56.5 329.5,-75.5 422.5,-75.5 422.5,-56.5 329.5,-56.5"/>
<text text-anchor="middle" x="376" y="-63.5" font-family="Arial.ttf" font-size="10.00" fill="#000000">cv/CVTypedefs.h</text>
</a>
</g>
</g>
<!-- Node1&#45;&gt;Node2 -->
<g id="edge1" class="edge">
<title>Node1&#45;&gt;Node2</title>
<path fill="none" stroke="#191970" d="M394.3041,-168.4275C377.9537,-161.1781 358.6261,-149.4435 349,-132 340.3642,-116.3509 350.0565,-97.3612 360.1508,-83.7761"/>
<polygon fill="#191970" stroke="#191970" points="363.0968,-85.6987 366.6536,-75.7187 357.6495,-81.3024 363.0968,-85.6987"/>
</g>
<!-- Node10 -->
<g id="node10" class="node">
<title>Node10</title>
<g id="a_node10"><a xlink:href="_c_v_raul_mur_ext_node_8h.html" target="_top" xlink:title=" ">
<polygon fill="#ffffff" stroke="#000000" points="358,-112.5 358,-131.5 486,-131.5 486,-112.5 358,-112.5"/>
<text text-anchor="middle" x="422" y="-119.5" font-family="Arial.ttf" font-size="10.00" fill="#000000">cv/CVRaulMurExtNode.h</text>
</a>
</g>
</g>
<!-- Node1&#45;&gt;Node10 -->
<g id="edge9" class="edge">
<title>Node1&#45;&gt;Node10</title>
<path fill="none" stroke="#191970" d="M422,-168.2455C422,-160.9382 422,-150.6944 422,-141.7046"/>
<polygon fill="#191970" stroke="#191970" points="425.5001,-141.6426 422,-131.6427 418.5001,-141.6427 425.5001,-141.6426"/>
</g>
<!-- Node11 -->
<g id="node11" class="node">
<title>Node11</title>
<g id="a_node11"><a xlink:title=" ">
<polygon fill="#ffffff" stroke="#bfbfbf" points="504,-112.5 504,-131.5 562,-131.5 562,-112.5 504,-112.5"/>
<text text-anchor="middle" x="533" y="-119.5" font-family="Arial.ttf" font-size="10.00" fill="#000000">algorithm</text>
</a>
</g>
</g>
<!-- Node1&#45;&gt;Node11 -->
<g id="edge11" class="edge">
<title>Node1&#45;&gt;Node11</title>
<path fill="none" stroke="#191970" d="M441.0816,-168.3733C458.7402,-159.4644 485.2053,-146.1127 505.2098,-136.0203"/>
<polygon fill="#191970" stroke="#191970" points="506.8158,-139.1303 514.1674,-131.5011 503.6628,-132.8806 506.8158,-139.1303"/>
</g>
<!-- Node3 -->
<g id="node3" class="node">
<title>Node3</title>
<g id="a_node3"><a xlink:title=" ">
<polygon fill="#ffffff" stroke="#bfbfbf" points="0,-.5 0,-19.5 44,-19.5 44,-.5 0,-.5"/>
<text text-anchor="middle" x="22" y="-7.5" font-family="Arial.ttf" font-size="10.00" fill="#000000">vector</text>
</a>
</g>
</g>
<!-- Node2&#45;&gt;Node3 -->
<g id="edge2" class="edge">
<title>Node2&#45;&gt;Node3</title>
<path fill="none" stroke="#191970" d="M329.2745,-61.8708C268.025,-55.9041 157.2019,-43.2062 54.1686,-19.9537"/>
<polygon fill="#191970" stroke="#191970" points="54.7536,-16.497 44.2239,-17.6704 53.187,-23.3195 54.7536,-16.497"/>
</g>
<!-- Node4 -->
<g id="node4" class="node">
<title>Node4</title>
<g id="a_node4"><a xlink:title=" ">
<polygon fill="#ffffff" stroke="#bfbfbf" points="62,-.5 62,-19.5 180,-19.5 180,-.5 62,-.5"/>
<text text-anchor="middle" x="121" y="-7.5" font-family="Arial.ttf" font-size="10.00" fill="#000000">opencv2/core/core.hpp</text>
</a>
</g>
</g>
<!-- Node2&#45;&gt;Node4 -->
<g id="edge3" class="edge">
<title>Node2&#45;&gt;Node4</title>
<path fill="none" stroke="#191970" d="M332.4537,-56.4369C288.7207,-46.8328 221.2655,-32.0191 174.3458,-21.7152"/>
<polygon fill="#191970" stroke="#191970" points="174.8847,-18.2502 164.3667,-19.5237 173.3832,-25.0872 174.8847,-18.2502"/>
</g>
<!-- Node5 -->
<g id="node5" class="node">
<title>Node5</title>
<g id="a_node5"><a xlink:title=" ">
<polygon fill="#ffffff" stroke="#bfbfbf" points="198,-.5 198,-19.5 310,-19.5 310,-.5 198,-.5"/>
<text text-anchor="middle" x="254" y="-7.5" font-family="Arial.ttf" font-size="10.00" fill="#000000">opencv2/core/ocl.hpp</text>
</a>
</g>
</g>
<!-- Node2&#45;&gt;Node5 -->
<g id="edge4" class="edge">
<title>Node2&#45;&gt;Node5</title>
<path fill="none" stroke="#191970" d="M355.0275,-56.3733C335.4433,-47.3838 306.0039,-33.8706 283.949,-23.7471"/>
<polygon fill="#191970" stroke="#191970" points="285.2473,-20.4919 274.6989,-19.5011 282.3271,-26.8538 285.2473,-20.4919"/>
</g>
<!-- Node6 -->
<g id="node6" class="node">
<title>Node6</title>
<g id="a_node6"><a xlink:title=" ">
<polygon fill="#ffffff" stroke="#bfbfbf" points="328.5,-.5 328.5,-19.5 423.5,-19.5 423.5,-.5 328.5,-.5"/>
<text text-anchor="middle" x="376" y="-7.5" font-family="Arial.ttf" font-size="10.00" fill="#000000">opencv2/face.hpp</text>
</a>
</g>
</g>
<!-- Node2&#45;&gt;Node6 -->
<g id="edge5" class="edge">
<title>Node2&#45;&gt;Node6</title>
<path fill="none" stroke="#191970" d="M376,-56.2455C376,-48.9382 376,-38.6944 376,-29.7046"/>
<polygon fill="#191970" stroke="#191970" points="379.5001,-29.6426 376,-19.6427 372.5001,-29.6427 379.5001,-29.6426"/>
</g>
<!-- Node7 -->
<g id="node7" class="node">
<title>Node7</title>
<g id="a_node7"><a xlink:title=" ">
<polygon fill="#ffffff" stroke="#bfbfbf" points="441.5,-.5 441.5,-19.5 550.5,-19.5 550.5,-.5 441.5,-.5"/>
<text text-anchor="middle" x="496" y="-7.5" font-family="Arial.ttf" font-size="10.00" fill="#000000">opencv2/opencv.hpp</text>
</a>
</g>
</g>
<!-- Node2&#45;&gt;Node7 -->
<g id="edge6" class="edge">
<title>Node2&#45;&gt;Node7</title>
<path fill="none" stroke="#191970" d="M396.6287,-56.3733C415.8919,-47.3838 444.8486,-33.8706 466.5419,-23.7471"/>
<polygon fill="#191970" stroke="#191970" points="468.0587,-26.9017 475.6405,-19.5011 465.0985,-20.5584 468.0587,-26.9017"/>
</g>
<!-- Node8 -->
<g id="node8" class="node">
<title>Node8</title>
<g id="a_node8"><a xlink:title=" ">
<polygon fill="#ffffff" stroke="#bfbfbf" points="568.5,-.5 568.5,-19.5 697.5,-19.5 697.5,-.5 568.5,-.5"/>
<text text-anchor="middle" x="633" y="-7.5" font-family="Arial.ttf" font-size="10.00" fill="#000000">opencv2/xfeatures2d.hpp</text>
</a>
</g>
</g>
<!-- Node2&#45;&gt;Node8 -->
<g id="edge7" class="edge">
<title>Node2&#45;&gt;Node8</title>
<path fill="none" stroke="#191970" d="M419.8879,-56.4369C463.9638,-46.8328 531.9481,-32.0191 579.2358,-21.7152"/>
<polygon fill="#191970" stroke="#191970" points="580.2676,-25.0725 589.2932,-19.5237 578.7772,-18.233 580.2676,-25.0725"/>
</g>
<!-- Node9 -->
<g id="node9" class="node">
<title>Node9</title>
<g id="a_node9"><a xlink:title=" ">
<polygon fill="#ffffff" stroke="#bfbfbf" points="716,-.5 716,-19.5 866,-19.5 866,-.5 716,-.5"/>
<text text-anchor="middle" x="791" y="-7.5" font-family="Arial.ttf" font-size="10.00" fill="#000000">opencv2/imgproc/imgproc.hpp</text>
</a>
</g>
</g>
<!-- Node2&#45;&gt;Node9 -->
<g id="edge8" class="edge">
<title>Node2&#45;&gt;Node9</title>
<path fill="none" stroke="#191970" d="M422.7991,-59.6849C492.6366,-50.2611 625.0517,-32.393 710.5947,-20.8499"/>
<polygon fill="#191970" stroke="#191970" points="711.0863,-24.3153 720.5284,-19.5094 710.1501,-17.3782 711.0863,-24.3153"/>
</g>
<!-- Node10&#45;&gt;Node2 -->
<g id="edge10" class="edge">
<title>Node10&#45;&gt;Node2</title>
<path fill="none" stroke="#191970" d="M413.9874,-112.2455C407.5232,-104.3761 398.2615,-93.101 390.5017,-83.6542"/>
<polygon fill="#191970" stroke="#191970" points="392.9727,-81.1484 383.9208,-75.6427 387.5636,-85.5916 392.9727,-81.1484"/>
</g>
</g>
</svg>
