<?xml version="1.0" encoding="UTF-8" standalone="no"?>
<!DOCTYPE svg PUBLIC "-//W3C//DTD SVG 1.1//EN"
 "http://www.w3.org/Graphics/SVG/1.1/DTD/svg11.dtd">
<!-- Generated by graphviz version 2.40.1 (20161225.0304)
 -->
<!-- Title: HttpUtils.cpp Pages: 1 -->
<svg width="960pt" height="196pt"
 viewBox="0.00 0.00 959.50 196.00" xmlns="http://www.w3.org/2000/svg" xmlns:xlink="http://www.w3.org/1999/xlink">
<g id="graph0" class="graph" transform="scale(1 1) rotate(0) translate(4 192)">
<title>HttpUtils.cpp</title>
<polygon fill="#ffffff" stroke="transparent" points="-4,4 -4,-192 955.5,-192 955.5,4 -4,4"/>
<!-- Node1 -->
<g id="node1" class="node">
<title>Node1</title>
<g id="a_node1"><a xlink:title=" ">
<polygon fill="#bfbfbf" stroke="#000000" points="340,-168.5 340,-187.5 413,-187.5 413,-168.5 340,-168.5"/>
<text text-anchor="middle" x="376.5" y="-175.5" font-family="Arial.ttf" font-size="10.00" fill="#000000">HttpUtils.cpp</text>
</a>
</g>
</g>
<!-- Node2 -->
<g id="node2" class="node">
<title>Node2</title>
<g id="a_node2"><a xlink:title=" ">
<polygon fill="#ffffff" stroke="#bfbfbf" points="119,-112.5 119,-131.5 174,-131.5 174,-112.5 119,-112.5"/>
<text text-anchor="middle" x="146.5" y="-119.5" font-family="Arial.ttf" font-size="10.00" fill="#000000">iostream</text>
</a>
</g>
</g>
<!-- Node1&#45;&gt;Node2 -->
<g id="edge1" class="edge">
<title>Node1&#45;&gt;Node2</title>
<path fill="none" stroke="#191970" d="M339.7793,-169.5932C302.9423,-161.0833 244.3403,-147.3388 184.3799,-132.1707"/>
<polygon fill="#191970" stroke="#191970" points="184.9107,-128.6944 174.3568,-129.6248 183.1874,-135.479 184.9107,-128.6944"/>
</g>
<!-- Node3 -->
<g id="node3" class="node">
<title>Node3</title>
<g id="a_node3"><a xlink:title=" ">
<polygon fill="#ffffff" stroke="#bfbfbf" points="192.5,-112.5 192.5,-131.5 238.5,-131.5 238.5,-112.5 192.5,-112.5"/>
<text text-anchor="middle" x="215.5" y="-119.5" font-family="Arial.ttf" font-size="10.00" fill="#000000">cstring</text>
</a>
</g>
</g>
<!-- Node1&#45;&gt;Node3 -->
<g id="edge2" class="edge">
<title>Node1&#45;&gt;Node3</title>
<path fill="none" stroke="#191970" d="M348.8231,-168.3733C320.8747,-158.6521 277.7173,-143.6408 248.1217,-133.3467"/>
<polygon fill="#191970" stroke="#191970" points="249.2412,-130.0304 238.6463,-130.0509 246.9415,-136.6419 249.2412,-130.0304"/>
</g>
<!-- Node4 -->
<g id="node4" class="node">
<title>Node4</title>
<g id="a_node4"><a xlink:href="_http_utils_8h.html" target="_top" xlink:title=" ">
<polygon fill="#ffffff" stroke="#000000" points="438,-112.5 438,-131.5 501,-131.5 501,-112.5 438,-112.5"/>
<text text-anchor="middle" x="469.5" y="-119.5" font-family="Arial.ttf" font-size="10.00" fill="#000000">HttpUtils.h</text>
</a>
</g>
</g>
<!-- Node1&#45;&gt;Node4 -->
<g id="edge3" class="edge">
<title>Node1&#45;&gt;Node4</title>
<path fill="none" stroke="#191970" d="M392.6994,-168.2455C407.1018,-159.5731 428.3732,-146.7645 444.8799,-136.825"/>
<polygon fill="#191970" stroke="#191970" points="446.725,-139.7996 453.4863,-131.6427 443.114,-133.8028 446.725,-139.7996"/>
</g>
<!-- Node14 -->
<g id="node14" class="node">
<title>Node14</title>
<g id="a_node14"><a xlink:href="_utils_8h.html" target="_top" xlink:title=" ">
<polygon fill="#ffffff" stroke="#000000" points="256.5,-112.5 256.5,-131.5 300.5,-131.5 300.5,-112.5 256.5,-112.5"/>
<text text-anchor="middle" x="278.5" y="-119.5" font-family="Arial.ttf" font-size="10.00" fill="#000000">Utils.h</text>
</a>
</g>
</g>
<!-- Node1&#45;&gt;Node14 -->
<g id="edge13" class="edge">
<title>Node1&#45;&gt;Node14</title>
<path fill="none" stroke="#191970" d="M359.4297,-168.2455C344.253,-159.5731 321.8379,-146.7645 304.4437,-136.825"/>
<polygon fill="#191970" stroke="#191970" points="305.7936,-133.5653 295.3747,-131.6427 302.3206,-139.643 305.7936,-133.5653"/>
</g>
<!-- Node20 -->
<g id="node20" class="node">
<title>Node20</title>
<g id="a_node20"><a xlink:title=" ">
<polygon fill="#ffffff" stroke="#bfbfbf" points="519.5,-112.5 519.5,-131.5 569.5,-131.5 569.5,-112.5 519.5,-112.5"/>
<text text-anchor="middle" x="544.5" y="-119.5" font-family="Arial.ttf" font-size="10.00" fill="#000000">netdb.h</text>
</a>
</g>
</g>
<!-- Node1&#45;&gt;Node20 -->
<g id="edge25" class="edge">
<title>Node1&#45;&gt;Node20</title>
<path fill="none" stroke="#191970" d="M405.3802,-168.3733C434.3319,-158.7227 478.9242,-143.8586 509.7849,-133.5717"/>
<polygon fill="#191970" stroke="#191970" points="510.9048,-136.8878 519.2848,-130.4051 508.6912,-130.247 510.9048,-136.8878"/>
</g>
<!-- Node21 -->
<g id="node21" class="node">
<title>Node21</title>
<g id="a_node21"><a xlink:title=" ">
<polygon fill="#ffffff" stroke="#bfbfbf" points="587.5,-112.5 587.5,-131.5 639.5,-131.5 639.5,-112.5 587.5,-112.5"/>
<text text-anchor="middle" x="613.5" y="-119.5" font-family="Arial.ttf" font-size="10.00" fill="#000000">unistd.h</text>
</a>
</g>
</g>
<!-- Node1&#45;&gt;Node21 -->
<g id="edge26" class="edge">
<title>Node1&#45;&gt;Node21</title>
<path fill="none" stroke="#191970" d="M413.1358,-170.2846C451.7354,-162.0171 514.5068,-148.181 577.4731,-132.1715"/>
<polygon fill="#191970" stroke="#191970" points="578.3491,-135.5602 587.1685,-129.6893 576.6128,-128.7789 578.3491,-135.5602"/>
</g>
<!-- Node5 -->
<g id="node5" class="node">
<title>Node5</title>
<g id="a_node5"><a xlink:title=" ">
<polygon fill="#ffffff" stroke="#bfbfbf" points="365.5,-56.5 365.5,-75.5 409.5,-75.5 409.5,-56.5 365.5,-56.5"/>
<text text-anchor="middle" x="387.5" y="-63.5" font-family="Arial.ttf" font-size="10.00" fill="#000000">vector</text>
</a>
</g>
</g>
<!-- Node4&#45;&gt;Node5 -->
<g id="edge4" class="edge">
<title>Node4&#45;&gt;Node5</title>
<path fill="none" stroke="#191970" d="M455.2167,-112.2455C442.753,-103.7337 424.4549,-91.2375 410.0208,-81.3801"/>
<polygon fill="#191970" stroke="#191970" points="411.8515,-78.392 401.6196,-75.6427 407.9038,-84.1726 411.8515,-78.392"/>
</g>
<!-- Node6 -->
<g id="node6" class="node">
<title>Node6</title>
<g id="a_node6"><a xlink:title=" ">
<polygon fill="#ffffff" stroke="#bfbfbf" points="130,-.5 130,-19.5 171,-19.5 171,-.5 130,-.5"/>
<text text-anchor="middle" x="150.5" y="-7.5" font-family="Arial.ttf" font-size="10.00" fill="#000000">string</text>
</a>
</g>
</g>
<!-- Node4&#45;&gt;Node6 -->
<g id="edge5" class="edge">
<title>Node4&#45;&gt;Node6</title>
<path fill="none" stroke="#191970" d="M464.8439,-112.0437C457.341,-97.1994 441.0972,-69.5626 418.5,-56 336.5553,-6.8178 300.6534,-36.4004 206.5,-20 198.2907,-18.57 189.4096,-16.9964 181.1912,-15.5291"/>
<polygon fill="#191970" stroke="#191970" points="181.6967,-12.064 171.2362,-13.7462 180.4626,-18.9544 181.6967,-12.064"/>
</g>
<!-- Node7 -->
<g id="node7" class="node">
<title>Node7</title>
<g id="a_node7"><a xlink:title=" ">
<polygon fill="#ffffff" stroke="#bfbfbf" points="465.5,-56.5 465.5,-75.5 537.5,-75.5 537.5,-56.5 465.5,-56.5"/>
<text text-anchor="middle" x="501.5" y="-63.5" font-family="Arial.ttf" font-size="10.00" fill="#000000">sys/socket.h</text>
</a>
</g>
</g>
<!-- Node4&#45;&gt;Node7 -->
<g id="edge6" class="edge">
<title>Node4&#45;&gt;Node7</title>
<path fill="none" stroke="#191970" d="M475.074,-112.2455C479.4331,-104.617 485.6211,-93.7881 490.9133,-84.5267"/>
<polygon fill="#191970" stroke="#191970" points="494.0673,-86.0616 495.9899,-75.6427 487.9896,-82.5886 494.0673,-86.0616"/>
</g>
<!-- Node8 -->
<g id="node8" class="node">
<title>Node8</title>
<g id="a_node8"><a xlink:title=" ">
<polygon fill="#ffffff" stroke="#bfbfbf" points="556,-56.5 556,-75.5 621,-75.5 621,-56.5 556,-56.5"/>
<text text-anchor="middle" x="588.5" y="-63.5" font-family="Arial.ttf" font-size="10.00" fill="#000000">netinet/in.h</text>
</a>
</g>
</g>
<!-- Node4&#45;&gt;Node8 -->
<g id="edge7" class="edge">
<title>Node4&#45;&gt;Node8</title>
<path fill="none" stroke="#191970" d="M489.9568,-112.3733C508.9738,-103.4241 537.5175,-89.9917 558.9976,-79.8835"/>
<polygon fill="#191970" stroke="#191970" points="560.7522,-82.926 568.3101,-75.5011 557.7716,-76.5923 560.7522,-82.926"/>
</g>
<!-- Node9 -->
<g id="node9" class="node">
<title>Node9</title>
<g id="a_node9"><a xlink:title=" ">
<polygon fill="#ffffff" stroke="#bfbfbf" points="639.5,-56.5 639.5,-75.5 703.5,-75.5 703.5,-56.5 639.5,-56.5"/>
<text text-anchor="middle" x="671.5" y="-63.5" font-family="Arial.ttf" font-size="10.00" fill="#000000">arpa/inet.h</text>
</a>
</g>
</g>
<!-- Node4&#45;&gt;Node9 -->
<g id="edge8" class="edge">
<title>Node4&#45;&gt;Node9</title>
<path fill="none" stroke="#191970" d="M501.0625,-113.25C535.6948,-103.649 591.4384,-88.1953 629.6857,-77.5921"/>
<polygon fill="#191970" stroke="#191970" points="630.791,-80.9177 639.4925,-74.8734 628.9209,-74.1722 630.791,-80.9177"/>
</g>
<!-- Node10 -->
<g id="node10" class="node">
<title>Node10</title>
<g id="a_node10"><a xlink:title=" ">
<polygon fill="#ffffff" stroke="#bfbfbf" points="721.5,-56.5 721.5,-75.5 795.5,-75.5 795.5,-56.5 721.5,-56.5"/>
<text text-anchor="middle" x="758.5" y="-63.5" font-family="Arial.ttf" font-size="10.00" fill="#000000">openssl/ssl.h</text>
</a>
</g>
</g>
<!-- Node4&#45;&gt;Node10 -->
<g id="edge9" class="edge">
<title>Node4&#45;&gt;Node10</title>
<path fill="none" stroke="#191970" d="M501.2392,-114.0501C504.3624,-113.3306 507.489,-112.6349 510.5,-112 596.6807,-93.8295 621.3693,-93.6773 711.5427,-76.128"/>
<polygon fill="#191970" stroke="#191970" points="712.2301,-79.56 721.3679,-74.1979 710.8808,-72.6912 712.2301,-79.56"/>
</g>
<!-- Node11 -->
<g id="node11" class="node">
<title>Node11</title>
<g id="a_node11"><a xlink:title=" ">
<polygon fill="#ffffff" stroke="#bfbfbf" points="813.5,-56.5 813.5,-75.5 887.5,-75.5 887.5,-56.5 813.5,-56.5"/>
<text text-anchor="middle" x="850.5" y="-63.5" font-family="Arial.ttf" font-size="10.00" fill="#000000">openssl/err.h</text>
</a>
</g>
</g>
<!-- Node4&#45;&gt;Node11 -->
<g id="edge10" class="edge">
<title>Node4&#45;&gt;Node11</title>
<path fill="none" stroke="#191970" d="M501.2052,-113.8775C504.3353,-113.1929 507.4728,-112.5525 510.5,-112 636.8414,-88.9396 672.9585,-97.5548 803.4251,-76.0451"/>
<polygon fill="#191970" stroke="#191970" points="804.1164,-79.4781 813.4,-74.3727 802.9589,-72.5745 804.1164,-79.4781"/>
</g>
<!-- Node12 -->
<g id="node12" class="node">
<title>Node12</title>
<g id="a_node12"><a xlink:title=" ">
<polygon fill="#ffffff" stroke="#bfbfbf" points="288,-56.5 288,-75.5 347,-75.5 347,-56.5 288,-56.5"/>
<text text-anchor="middle" x="317.5" y="-63.5" font-family="Arial.ttf" font-size="10.00" fill="#000000">functional</text>
</a>
</g>
</g>
<!-- Node4&#45;&gt;Node12 -->
<g id="edge11" class="edge">
<title>Node4&#45;&gt;Node12</title>
<path fill="none" stroke="#191970" d="M443.3703,-112.3733C418.4232,-103.1822 380.6408,-89.2624 352.9794,-79.0713"/>
<polygon fill="#191970" stroke="#191970" points="353.8822,-75.674 343.2888,-75.5011 351.4622,-82.2424 353.8822,-75.674"/>
</g>
<!-- Node13 -->
<g id="node13" class="node">
<title>Node13</title>
<g id="a_node13"><a xlink:title=" ">
<polygon fill="#ffffff" stroke="#bfbfbf" points="905.5,-56.5 905.5,-75.5 951.5,-75.5 951.5,-56.5 905.5,-56.5"/>
<text text-anchor="middle" x="928.5" y="-63.5" font-family="Arial.ttf" font-size="10.00" fill="#000000">atomic</text>
</a>
</g>
</g>
<!-- Node4&#45;&gt;Node13 -->
<g id="edge12" class="edge">
<title>Node4&#45;&gt;Node13</title>
<path fill="none" stroke="#191970" d="M501.1892,-113.7859C504.3225,-113.1198 507.4651,-112.5088 510.5,-112 677.1924,-84.0526 725.7246,-108.8983 895.2187,-75.8819"/>
<polygon fill="#191970" stroke="#191970" points="896.1022,-79.2749 905.2282,-73.8929 894.7378,-72.4091 896.1022,-79.2749"/>
</g>
<!-- Node14&#45;&gt;Node5 -->
<g id="edge15" class="edge">
<title>Node14&#45;&gt;Node5</title>
<path fill="none" stroke="#191970" d="M297.4864,-112.2455C314.6792,-103.4125 340.2238,-90.2887 359.7132,-80.2758"/>
<polygon fill="#191970" stroke="#191970" points="361.4359,-83.3257 368.7312,-75.6427 358.237,-77.0993 361.4359,-83.3257"/>
</g>
<!-- Node14&#45;&gt;Node6 -->
<g id="edge14" class="edge">
<title>Node14&#45;&gt;Node6</title>
<path fill="none" stroke="#191970" d="M256.4141,-114.7806C218.8043,-102.4373 146.1928,-78.3708 144.5,-76 134.9102,-62.5689 137.9504,-43.4687 142.478,-29.2689"/>
<polygon fill="#191970" stroke="#191970" points="145.8886,-30.1341 146.0456,-19.5404 139.3166,-27.724 145.8886,-30.1341"/>
</g>
<!-- Node14&#45;&gt;Node12 -->
<g id="edge24" class="edge">
<title>Node14&#45;&gt;Node12</title>
<path fill="none" stroke="#191970" d="M285.2933,-112.2455C290.7178,-104.4564 298.4661,-93.3308 305.0033,-83.9439"/>
<polygon fill="#191970" stroke="#191970" points="307.9417,-85.849 310.7846,-75.6427 302.1975,-81.8485 307.9417,-85.849"/>
</g>
<!-- Node15 -->
<g id="node15" class="node">
<title>Node15</title>
<g id="a_node15"><a xlink:title=" ">
<polygon fill="#ffffff" stroke="#bfbfbf" points="153.5,-56.5 153.5,-75.5 193.5,-75.5 193.5,-56.5 153.5,-56.5"/>
<text text-anchor="middle" x="173.5" y="-63.5" font-family="Arial.ttf" font-size="10.00" fill="#000000">cfloat</text>
</a>
</g>
</g>
<!-- Node14&#45;&gt;Node15 -->
<g id="edge16" class="edge">
<title>Node14&#45;&gt;Node15</title>
<path fill="none" stroke="#191970" d="M260.2104,-112.2455C243.7238,-103.4527 219.2648,-90.4079 200.5235,-80.4125"/>
<polygon fill="#191970" stroke="#191970" points="202.0506,-77.2604 191.58,-75.6427 198.7565,-83.4368 202.0506,-77.2604"/>
</g>
<!-- Node16 -->
<g id="node16" class="node">
<title>Node16</title>
<g id="a_node16"><a xlink:title=" ">
<polygon fill="#ffffff" stroke="#bfbfbf" points="0,-.5 0,-19.5 53,-19.5 53,-.5 0,-.5"/>
<text text-anchor="middle" x="26.5" y="-7.5" font-family="Arial.ttf" font-size="10.00" fill="#000000">memory</text>
</a>
</g>
</g>
<!-- Node14&#45;&gt;Node16 -->
<g id="edge17" class="edge">
<title>Node14&#45;&gt;Node16</title>
<path fill="none" stroke="#191970" d="M256.2694,-114.3583C253.3401,-113.4903 250.3618,-112.6762 247.5,-112 196.0843,-99.8514 46.913,-116.0862 12.5,-76 1.3415,-63.002 7.5017,-43.3147 14.8344,-28.8234"/>
<polygon fill="#191970" stroke="#191970" points="18.0728,-30.2032 19.8998,-19.7671 11.9635,-26.7861 18.0728,-30.2032"/>
</g>
<!-- Node17 -->
<g id="node17" class="node">
<title>Node17</title>
<g id="a_node17"><a xlink:href="_file_log_8h.html" target="_top" xlink:title=" ">
<polygon fill="#ffffff" stroke="#000000" points="211.5,-56.5 211.5,-75.5 269.5,-75.5 269.5,-56.5 211.5,-56.5"/>
<text text-anchor="middle" x="240.5" y="-63.5" font-family="Arial.ttf" font-size="10.00" fill="#000000">FileLog.h</text>
</a>
</g>
</g>
<!-- Node14&#45;&gt;Node17 -->
<g id="edge18" class="edge">
<title>Node14&#45;&gt;Node17</title>
<path fill="none" stroke="#191970" d="M271.8809,-112.2455C266.5954,-104.4564 259.0459,-93.3308 252.6762,-83.9439"/>
<polygon fill="#191970" stroke="#191970" points="255.5545,-81.9522 247.0432,-75.6427 249.7621,-85.8827 255.5545,-81.9522"/>
</g>
<!-- Node19 -->
<g id="node19" class="node">
<title>Node19</title>
<g id="a_node19"><a xlink:href="_custom_log_8h.html" target="_top" xlink:title=" ">
<polygon fill="#ffffff" stroke="#000000" points="21.5,-56.5 21.5,-75.5 97.5,-75.5 97.5,-56.5 21.5,-56.5"/>
<text text-anchor="middle" x="59.5" y="-63.5" font-family="Arial.ttf" font-size="10.00" fill="#000000">CustomLog.h</text>
</a>
</g>
</g>
<!-- Node14&#45;&gt;Node19 -->
<g id="edge21" class="edge">
<title>Node14&#45;&gt;Node19</title>
<path fill="none" stroke="#191970" d="M256.2075,-114.5968C253.2883,-113.6898 250.3293,-112.8014 247.5,-112 200.1638,-98.5928 145.4771,-85.4746 107.3323,-76.7005"/>
<polygon fill="#191970" stroke="#191970" points="108.0483,-73.2739 97.5195,-74.4552 106.4869,-80.0976 108.0483,-73.2739"/>
</g>
<!-- Node17&#45;&gt;Node6 -->
<g id="edge19" class="edge">
<title>Node17&#45;&gt;Node6</title>
<path fill="none" stroke="#191970" d="M224.8232,-56.2455C211.0144,-47.6534 190.6807,-35.0014 174.7708,-25.1018"/>
<polygon fill="#191970" stroke="#191970" points="176.3368,-21.954 165.9972,-19.6427 172.6387,-27.8974 176.3368,-21.954"/>
</g>
<!-- Node18 -->
<g id="node18" class="node">
<title>Node18</title>
<g id="a_node18"><a xlink:title=" ">
<polygon fill="#ffffff" stroke="#bfbfbf" points="215.5,-.5 215.5,-19.5 265.5,-19.5 265.5,-.5 215.5,-.5"/>
<text text-anchor="middle" x="240.5" y="-7.5" font-family="Arial.ttf" font-size="10.00" fill="#000000">fstream</text>
</a>
</g>
</g>
<!-- Node17&#45;&gt;Node18 -->
<g id="edge20" class="edge">
<title>Node17&#45;&gt;Node18</title>
<path fill="none" stroke="#191970" d="M240.5,-56.2455C240.5,-48.9382 240.5,-38.6944 240.5,-29.7046"/>
<polygon fill="#191970" stroke="#191970" points="244.0001,-29.6426 240.5,-19.6427 237.0001,-29.6427 244.0001,-29.6426"/>
</g>
<!-- Node19&#45;&gt;Node6 -->
<g id="edge23" class="edge">
<title>Node19&#45;&gt;Node6</title>
<path fill="none" stroke="#191970" d="M75.351,-56.2455C89.3132,-47.6534 109.8728,-35.0014 125.9596,-25.1018"/>
<polygon fill="#191970" stroke="#191970" points="128.1484,-27.8645 134.8307,-19.6427 124.4797,-21.9029 128.1484,-27.8645"/>
</g>
<!-- Node19&#45;&gt;Node16 -->
<g id="edge22" class="edge">
<title>Node19&#45;&gt;Node16</title>
<path fill="none" stroke="#191970" d="M53.7518,-56.2455C49.2565,-48.617 42.8752,-37.7881 37.4175,-28.5267"/>
<polygon fill="#191970" stroke="#191970" points="40.2747,-26.4811 32.1823,-19.6427 34.2439,-30.035 40.2747,-26.4811"/>
</g>
</g>
</svg>
