<?xml version="1.0" encoding="UTF-8" standalone="no"?>
<!DOCTYPE svg PUBLIC "-//W3C//DTD SVG 1.1//EN"
 "http://www.w3.org/Graphics/SVG/1.1/DTD/svg11.dtd">
<!-- Generated by graphviz version 2.44.0 (20200408.0750)
 -->
<!-- Title: HttpUtils.cpp Pages: 1 -->
<svg width="1095pt" height="196pt"
 viewBox="0.00 0.00 1095.00 196.00" xmlns="http://www.w3.org/2000/svg" xmlns:xlink="http://www.w3.org/1999/xlink">
<g id="graph0" class="graph" transform="scale(1 1) rotate(0) translate(4 192)">
<title>HttpUtils.cpp</title>
<polygon fill="white" stroke="transparent" points="-4,4 -4,-192 1091,-192 1091,4 -4,4"/>
<!-- Node1 -->
<g id="node1" class="node">
<title>Node1</title>
<g id="a_node1"><a xlink:title=" ">
<polygon fill="#bfbfbf" stroke="black" points="225,-168.5 225,-187.5 299,-187.5 299,-168.5 225,-168.5"/>
<text text-anchor="middle" x="262" y="-175.5" font-family="Arial.ttf" font-size="10.00">HttpUtils.cpp</text>
</a>
</g>
</g>
<!-- Node2 -->
<g id="node2" class="node">
<title>Node2</title>
<g id="a_node2"><a xlink:title=" ">
<polygon fill="white" stroke="#bfbfbf" points="0,-112.5 0,-131.5 54,-131.5 54,-112.5 0,-112.5"/>
<text text-anchor="middle" x="27" y="-119.5" font-family="Arial.ttf" font-size="10.00">iostream</text>
</a>
</g>
</g>
<!-- Node1&#45;&gt;Node2 -->
<g id="edge1" class="edge">
<title>Node1&#45;&gt;Node2</title>
<path fill="none" stroke="midnightblue" d="M224.9,-168.87C186.92,-160.5 125.93,-146.88 64.05,-132.21"/>
<polygon fill="midnightblue" stroke="midnightblue" points="64.65,-128.76 54.11,-129.85 63.03,-135.57 64.65,-128.76"/>
</g>
<!-- Node3 -->
<g id="node3" class="node">
<title>Node3</title>
<g id="a_node3"><a xlink:title=" ">
<polygon fill="white" stroke="#bfbfbf" points="72,-112.5 72,-131.5 118,-131.5 118,-112.5 72,-112.5"/>
<text text-anchor="middle" x="95" y="-119.5" font-family="Arial.ttf" font-size="10.00">cstring</text>
</a>
</g>
</g>
<!-- Node1&#45;&gt;Node3 -->
<g id="edge2" class="edge">
<title>Node1&#45;&gt;Node3</title>
<path fill="none" stroke="midnightblue" d="M235.54,-168.44C206.33,-159 159.27,-143.78 127.76,-133.59"/>
<polygon fill="midnightblue" stroke="midnightblue" points="128.7,-130.22 118.11,-130.47 126.55,-136.88 128.7,-130.22"/>
</g>
<!-- Node4 -->
<g id="node4" class="node">
<title>Node4</title>
<g id="a_node4"><a xlink:title=" ">
<polygon fill="white" stroke="#bfbfbf" points="136,-112.5 136,-131.5 186,-131.5 186,-112.5 136,-112.5"/>
<text text-anchor="middle" x="161" y="-119.5" font-family="Arial.ttf" font-size="10.00">resolv.h</text>
</a>
</g>
</g>
<!-- Node1&#45;&gt;Node4 -->
<g id="edge3" class="edge">
<title>Node1&#45;&gt;Node4</title>
<path fill="none" stroke="midnightblue" d="M245.77,-168.32C229.65,-159.7 204.7,-146.36 186.04,-136.39"/>
<polygon fill="midnightblue" stroke="midnightblue" points="187.66,-133.28 177.19,-131.65 184.36,-139.46 187.66,-133.28"/>
</g>
<!-- Node5 -->
<g id="node5" class="node">
<title>Node5</title>
<g id="a_node5"><a xlink:title=" ">
<polygon fill="white" stroke="#bfbfbf" points="204.5,-112.5 204.5,-131.5 251.5,-131.5 251.5,-112.5 204.5,-112.5"/>
<text text-anchor="middle" x="228" y="-119.5" font-family="Arial.ttf" font-size="10.00">errno.h</text>
</a>
</g>
</g>
<!-- Node1&#45;&gt;Node5 -->
<g id="edge4" class="edge">
<title>Node1&#45;&gt;Node5</title>
<path fill="none" stroke="midnightblue" d="M256.39,-168.08C251.63,-160.53 244.68,-149.49 238.85,-140.23"/>
<polygon fill="midnightblue" stroke="midnightblue" points="241.8,-138.35 233.51,-131.75 235.88,-142.08 241.8,-138.35"/>
</g>
<!-- Node6 -->
<g id="node6" class="node">
<title>Node6</title>
<g id="a_node6"><a xlink:title=" ">
<polygon fill="white" stroke="#bfbfbf" points="270,-112.5 270,-131.5 322,-131.5 322,-112.5 270,-112.5"/>
<text text-anchor="middle" x="296" y="-119.5" font-family="Arial.ttf" font-size="10.00">sstream</text>
</a>
</g>
</g>
<!-- Node1&#45;&gt;Node6 -->
<g id="edge5" class="edge">
<title>Node1&#45;&gt;Node6</title>
<path fill="none" stroke="midnightblue" d="M267.61,-168.08C272.37,-160.53 279.32,-149.49 285.15,-140.23"/>
<polygon fill="midnightblue" stroke="midnightblue" points="288.12,-142.08 290.49,-131.75 282.2,-138.35 288.12,-142.08"/>
</g>
<!-- Node7 -->
<g id="node7" class="node">
<title>Node7</title>
<g id="a_node7"><a xlink:title=" ">
<polygon fill="white" stroke="#bfbfbf" points="340.5,-112.5 340.5,-131.5 389.5,-131.5 389.5,-112.5 340.5,-112.5"/>
<text text-anchor="middle" x="365" y="-119.5" font-family="Arial.ttf" font-size="10.00">netdb.h</text>
</a>
</g>
</g>
<!-- Node1&#45;&gt;Node7 -->
<g id="edge6" class="edge">
<title>Node1&#45;&gt;Node7</title>
<path fill="none" stroke="midnightblue" d="M278.55,-168.32C294.99,-159.7 320.43,-146.36 339.47,-136.39"/>
<polygon fill="midnightblue" stroke="midnightblue" points="341.26,-139.4 348.49,-131.65 338.01,-133.2 341.26,-139.4"/>
</g>
<!-- Node8 -->
<g id="node8" class="node">
<title>Node8</title>
<g id="a_node8"><a xlink:href="_http_utils_8h.html" target="_top" xlink:title=" ">
<polygon fill="white" stroke="black" points="716,-112.5 716,-131.5 780,-131.5 780,-112.5 716,-112.5"/>
<text text-anchor="middle" x="748" y="-119.5" font-family="Arial.ttf" font-size="10.00">HttpUtils.h</text>
</a>
</g>
</g>
<!-- Node1&#45;&gt;Node8 -->
<g id="edge7" class="edge">
<title>Node1&#45;&gt;Node8</title>
<path fill="none" stroke="midnightblue" d="M299.33,-172.85C388.24,-162.97 612.08,-138.1 705.75,-127.69"/>
<polygon fill="midnightblue" stroke="midnightblue" points="706.17,-131.17 715.72,-126.59 705.4,-124.21 706.17,-131.17"/>
</g>
<!-- Node16 -->
<g id="node16" class="node">
<title>Node16</title>
<g id="a_node16"><a xlink:href="_utils_8h.html" target="_top" xlink:title=" ">
<polygon fill="white" stroke="black" points="407.5,-112.5 407.5,-131.5 452.5,-131.5 452.5,-112.5 407.5,-112.5"/>
<text text-anchor="middle" x="430" y="-119.5" font-family="Arial.ttf" font-size="10.00">Utils.h</text>
</a>
</g>
</g>
<!-- Node1&#45;&gt;Node16 -->
<g id="edge15" class="edge">
<title>Node1&#45;&gt;Node16</title>
<path fill="none" stroke="midnightblue" d="M288.62,-168.44C318.17,-158.94 365.88,-143.61 397.59,-133.42"/>
<polygon fill="midnightblue" stroke="midnightblue" points="398.83,-136.7 407.28,-130.3 396.68,-130.03 398.83,-136.7"/>
</g>
<!-- Node9 -->
<g id="node9" class="node">
<title>Node9</title>
<g id="a_node9"><a xlink:title=" ">
<polygon fill="white" stroke="#bfbfbf" points="568,-56.5 568,-75.5 612,-75.5 612,-56.5 568,-56.5"/>
<text text-anchor="middle" x="590" y="-63.5" font-family="Arial.ttf" font-size="10.00">vector</text>
</a>
</g>
</g>
<!-- Node8&#45;&gt;Node9 -->
<g id="edge8" class="edge">
<title>Node8&#45;&gt;Node9</title>
<path fill="none" stroke="midnightblue" d="M722.96,-112.44C695.52,-103.07 651.44,-88 621.63,-77.81"/>
<polygon fill="midnightblue" stroke="midnightblue" points="622.71,-74.48 612.11,-74.56 620.44,-81.1 622.71,-74.48"/>
</g>
<!-- Node10 -->
<g id="node10" class="node">
<title>Node10</title>
<g id="a_node10"><a xlink:title=" ">
<polygon fill="white" stroke="#bfbfbf" points="411.5,-0.5 411.5,-19.5 452.5,-19.5 452.5,-0.5 411.5,-0.5"/>
<text text-anchor="middle" x="432" y="-7.5" font-family="Arial.ttf" font-size="10.00">string</text>
</a>
</g>
</g>
<!-- Node8&#45;&gt;Node10 -->
<g id="edge9" class="edge">
<title>Node8&#45;&gt;Node10</title>
<path fill="none" stroke="midnightblue" d="M731.13,-112.38C713.41,-103.33 684.74,-88.67 660,-76 642.66,-67.12 639.27,-62.75 621,-56 566.77,-35.97 500.44,-22.59 462.52,-15.93"/>
<polygon fill="midnightblue" stroke="midnightblue" points="463.06,-12.48 452.61,-14.24 461.88,-19.37 463.06,-12.48"/>
</g>
<!-- Node11 -->
<g id="node11" class="node">
<title>Node11</title>
<g id="a_node11"><a xlink:title=" ">
<polygon fill="white" stroke="#bfbfbf" points="668.5,-56.5 668.5,-75.5 741.5,-75.5 741.5,-56.5 668.5,-56.5"/>
<text text-anchor="middle" x="705" y="-63.5" font-family="Arial.ttf" font-size="10.00">sys/socket.h</text>
</a>
</g>
</g>
<!-- Node8&#45;&gt;Node11 -->
<g id="edge10" class="edge">
<title>Node8&#45;&gt;Node11</title>
<path fill="none" stroke="midnightblue" d="M740.9,-112.08C734.76,-104.38 725.73,-93.03 718.26,-83.65"/>
<polygon fill="midnightblue" stroke="midnightblue" points="720.94,-81.39 711.97,-75.75 715.46,-85.75 720.94,-81.39"/>
</g>
<!-- Node12 -->
<g id="node12" class="node">
<title>Node12</title>
<g id="a_node12"><a xlink:title=" ">
<polygon fill="white" stroke="#bfbfbf" points="759.5,-56.5 759.5,-75.5 824.5,-75.5 824.5,-56.5 759.5,-56.5"/>
<text text-anchor="middle" x="792" y="-63.5" font-family="Arial.ttf" font-size="10.00">netinet/in.h</text>
</a>
</g>
</g>
<!-- Node8&#45;&gt;Node12 -->
<g id="edge11" class="edge">
<title>Node8&#45;&gt;Node12</title>
<path fill="none" stroke="midnightblue" d="M755.27,-112.08C761.54,-104.38 770.79,-93.03 778.43,-83.65"/>
<polygon fill="midnightblue" stroke="midnightblue" points="781.27,-85.71 784.87,-75.75 775.84,-81.29 781.27,-85.71"/>
</g>
<!-- Node13 -->
<g id="node13" class="node">
<title>Node13</title>
<g id="a_node13"><a xlink:title=" ">
<polygon fill="white" stroke="#bfbfbf" points="843,-56.5 843,-75.5 905,-75.5 905,-56.5 843,-56.5"/>
<text text-anchor="middle" x="874" y="-63.5" font-family="Arial.ttf" font-size="10.00">arpa/inet.h</text>
</a>
</g>
</g>
<!-- Node8&#45;&gt;Node13 -->
<g id="edge12" class="edge">
<title>Node8&#45;&gt;Node13</title>
<path fill="none" stroke="midnightblue" d="M767.97,-112.44C788.61,-103.6 821.06,-89.69 844.63,-79.59"/>
<polygon fill="midnightblue" stroke="midnightblue" points="846.32,-82.67 854.13,-75.52 843.56,-76.24 846.32,-82.67"/>
</g>
<!-- Node14 -->
<g id="node14" class="node">
<title>Node14</title>
<g id="a_node14"><a xlink:title=" ">
<polygon fill="white" stroke="#bfbfbf" points="923,-56.5 923,-75.5 997,-75.5 997,-56.5 923,-56.5"/>
<text text-anchor="middle" x="960" y="-63.5" font-family="Arial.ttf" font-size="10.00">openssl/ssl.h</text>
</a>
</g>
</g>
<!-- Node8&#45;&gt;Node14 -->
<g id="edge13" class="edge">
<title>Node8&#45;&gt;Node14</title>
<path fill="none" stroke="midnightblue" d="M780.2,-112.8C816.61,-103.52 876.09,-88.37 916.59,-78.06"/>
<polygon fill="midnightblue" stroke="midnightblue" points="917.62,-81.41 926.45,-75.55 915.89,-74.62 917.62,-81.41"/>
</g>
<!-- Node15 -->
<g id="node15" class="node">
<title>Node15</title>
<g id="a_node15"><a xlink:title=" ">
<polygon fill="white" stroke="#bfbfbf" points="1015,-56.5 1015,-75.5 1087,-75.5 1087,-56.5 1015,-56.5"/>
<text text-anchor="middle" x="1051" y="-63.5" font-family="Arial.ttf" font-size="10.00">openssl/err.h</text>
</a>
</g>
</g>
<!-- Node8&#45;&gt;Node15 -->
<g id="edge14" class="edge">
<title>Node8&#45;&gt;Node15</title>
<path fill="none" stroke="midnightblue" d="M780.22,-115.64C827.29,-107.76 917.84,-92.38 1004.65,-76.22"/>
<polygon fill="midnightblue" stroke="midnightblue" points="1005.48,-79.62 1014.67,-74.35 1004.19,-72.74 1005.48,-79.62"/>
</g>
<!-- Node16&#45;&gt;Node9 -->
<g id="edge17" class="edge">
<title>Node16&#45;&gt;Node9</title>
<path fill="none" stroke="midnightblue" d="M452.58,-113.38C480.18,-104.06 527.03,-88.25 558.25,-77.72"/>
<polygon fill="midnightblue" stroke="midnightblue" points="559.43,-81.01 567.79,-74.5 557.19,-74.38 559.43,-81.01"/>
</g>
<!-- Node16&#45;&gt;Node10 -->
<g id="edge16" class="edge">
<title>Node16&#45;&gt;Node10</title>
<path fill="none" stroke="midnightblue" d="M428.74,-112.17C427.12,-99.66 424.67,-76.08 426,-56 426.57,-47.34 427.77,-37.81 428.94,-29.75"/>
<polygon fill="midnightblue" stroke="midnightblue" points="432.44,-30.01 430.51,-19.59 425.52,-28.94 432.44,-30.01"/>
</g>
<!-- Node17 -->
<g id="node17" class="node">
<title>Node17</title>
<g id="a_node17"><a xlink:title=" ">
<polygon fill="white" stroke="#bfbfbf" points="434.5,-56.5 434.5,-75.5 475.5,-75.5 475.5,-56.5 434.5,-56.5"/>
<text text-anchor="middle" x="455" y="-63.5" font-family="Arial.ttf" font-size="10.00">cfloat</text>
</a>
</g>
</g>
<!-- Node16&#45;&gt;Node17 -->
<g id="edge18" class="edge">
<title>Node16&#45;&gt;Node17</title>
<path fill="none" stroke="midnightblue" d="M434.13,-112.08C437.51,-104.77 442.42,-94.18 446.62,-85.1"/>
<polygon fill="midnightblue" stroke="midnightblue" points="449.92,-86.3 450.95,-75.75 443.57,-83.36 449.92,-86.3"/>
</g>
<!-- Node18 -->
<g id="node18" class="node">
<title>Node18</title>
<g id="a_node18"><a xlink:title=" ">
<polygon fill="white" stroke="#bfbfbf" points="243,-0.5 243,-19.5 295,-19.5 295,-0.5 243,-0.5"/>
<text text-anchor="middle" x="269" y="-7.5" font-family="Arial.ttf" font-size="10.00">memory</text>
</a>
</g>
</g>
<!-- Node16&#45;&gt;Node18 -->
<g id="edge19" class="edge">
<title>Node16&#45;&gt;Node18</title>
<path fill="none" stroke="midnightblue" d="M407.38,-114.18C404.56,-113.41 401.72,-112.66 399,-112 318.45,-92.43 268.65,-140.02 216,-76 201.58,-58.46 224.39,-38.18 244.42,-24.99"/>
<polygon fill="midnightblue" stroke="midnightblue" points="246.37,-27.9 253.01,-19.64 242.67,-21.96 246.37,-27.9"/>
</g>
<!-- Node19 -->
<g id="node19" class="node">
<title>Node19</title>
<g id="a_node19"><a xlink:href="_file_log_8h.html" target="_top" xlink:title=" ">
<polygon fill="white" stroke="black" points="494,-56.5 494,-75.5 550,-75.5 550,-56.5 494,-56.5"/>
<text text-anchor="middle" x="522" y="-63.5" font-family="Arial.ttf" font-size="10.00">FileLog.h</text>
</a>
</g>
</g>
<!-- Node16&#45;&gt;Node19 -->
<g id="edge20" class="edge">
<title>Node16&#45;&gt;Node19</title>
<path fill="none" stroke="midnightblue" d="M444.78,-112.32C459.27,-103.82 481.57,-90.73 498.49,-80.8"/>
<polygon fill="midnightblue" stroke="midnightblue" points="500.4,-83.74 507.26,-75.65 496.86,-77.7 500.4,-83.74"/>
</g>
<!-- Node21 -->
<g id="node21" class="node">
<title>Node21</title>
<g id="a_node21"><a xlink:href="_custom_log_8h.html" target="_top" xlink:title=" ">
<polygon fill="white" stroke="black" points="302.5,-56.5 302.5,-75.5 377.5,-75.5 377.5,-56.5 302.5,-56.5"/>
<text text-anchor="middle" x="340" y="-63.5" font-family="Arial.ttf" font-size="10.00">CustomLog.h</text>
</a>
</g>
</g>
<!-- Node16&#45;&gt;Node21 -->
<g id="edge23" class="edge">
<title>Node16&#45;&gt;Node21</title>
<path fill="none" stroke="midnightblue" d="M415.54,-112.32C401.5,-103.9 379.95,-90.97 363.46,-81.07"/>
<polygon fill="midnightblue" stroke="midnightblue" points="364.8,-77.8 354.42,-75.65 361.2,-83.8 364.8,-77.8"/>
</g>
<!-- Node22 -->
<g id="node22" class="node">
<title>Node22</title>
<g id="a_node22"><a xlink:title=" ">
<polygon fill="white" stroke="#bfbfbf" points="225.5,-56.5 225.5,-75.5 284.5,-75.5 284.5,-56.5 225.5,-56.5"/>
<text text-anchor="middle" x="255" y="-63.5" font-family="Arial.ttf" font-size="10.00">functional</text>
</a>
</g>
</g>
<!-- Node16&#45;&gt;Node22 -->
<g id="edge26" class="edge">
<title>Node16&#45;&gt;Node22</title>
<path fill="none" stroke="midnightblue" d="M407.48,-114.05C378.41,-105.08 327.42,-89.35 292.46,-78.56"/>
<polygon fill="midnightblue" stroke="midnightblue" points="293.21,-75.13 282.62,-75.52 291.14,-81.82 293.21,-75.13"/>
</g>
<!-- Node19&#45;&gt;Node10 -->
<g id="edge21" class="edge">
<title>Node19&#45;&gt;Node10</title>
<path fill="none" stroke="midnightblue" d="M507.54,-56.32C493.5,-47.9 471.95,-34.97 455.46,-25.07"/>
<polygon fill="midnightblue" stroke="midnightblue" points="456.8,-21.8 446.42,-19.65 453.2,-27.8 456.8,-21.8"/>
</g>
<!-- Node20 -->
<g id="node20" class="node">
<title>Node20</title>
<g id="a_node20"><a xlink:title=" ">
<polygon fill="white" stroke="#bfbfbf" points="497,-0.5 497,-19.5 547,-19.5 547,-0.5 497,-0.5"/>
<text text-anchor="middle" x="522" y="-7.5" font-family="Arial.ttf" font-size="10.00">fstream</text>
</a>
</g>
</g>
<!-- Node19&#45;&gt;Node20 -->
<g id="edge22" class="edge">
<title>Node19&#45;&gt;Node20</title>
<path fill="none" stroke="midnightblue" d="M522,-56.08C522,-49.01 522,-38.86 522,-29.99"/>
<polygon fill="midnightblue" stroke="midnightblue" points="525.5,-29.75 522,-19.75 518.5,-29.75 525.5,-29.75"/>
</g>
<!-- Node21&#45;&gt;Node10 -->
<g id="edge25" class="edge">
<title>Node21&#45;&gt;Node10</title>
<path fill="none" stroke="midnightblue" d="M354.78,-56.32C369.27,-47.82 391.57,-34.73 408.49,-24.8"/>
<polygon fill="midnightblue" stroke="midnightblue" points="410.4,-27.74 417.26,-19.65 406.86,-21.7 410.4,-27.74"/>
</g>
<!-- Node21&#45;&gt;Node18 -->
<g id="edge24" class="edge">
<title>Node21&#45;&gt;Node18</title>
<path fill="none" stroke="midnightblue" d="M328.59,-56.32C317.89,-48.18 301.66,-35.84 288.84,-26.09"/>
<polygon fill="midnightblue" stroke="midnightblue" points="290.69,-23.1 280.61,-19.83 286.46,-28.67 290.69,-23.1"/>
</g>
</g>
</svg>
