<?xml version="1.0" encoding="UTF-8" standalone="no"?>
<!DOCTYPE svg PUBLIC "-//W3C//DTD SVG 1.1//EN"
 "http://www.w3.org/Graphics/SVG/1.1/DTD/svg11.dtd">
<!-- Generated by graphviz version 2.40.1 (20161225.0304)
 -->
<!-- Title: Instrumentor.h Pages: 1 -->
<svg width="1650pt" height="84pt"
 viewBox="0.00 0.00 1649.50 84.00" xmlns="http://www.w3.org/2000/svg" xmlns:xlink="http://www.w3.org/1999/xlink">
<g id="graph0" class="graph" transform="scale(1 1) rotate(0) translate(4 80)">
<title>Instrumentor.h</title>
<polygon fill="#ffffff" stroke="transparent" points="-4,4 -4,-80 1645.5,-80 1645.5,4 -4,4"/>
<!-- Node1 -->
<g id="node1" class="node">
<title>Node1</title>
<g id="a_node1"><a xlink:title=" ">
<polygon fill="#bfbfbf" stroke="#000000" points="801,-56.5 801,-75.5 882,-75.5 882,-56.5 801,-56.5"/>
<text text-anchor="middle" x="841.5" y="-63.5" font-family="Arial.ttf" font-size="10.00" fill="#000000">Instrumentor.h</text>
</a>
</g>
</g>
<!-- Node2 -->
<g id="node2" class="node">
<title>Node2</title>
<g id="a_node2"><a xlink:href="_s_l_compact_grid_8cpp.html" target="_top" xlink:title=" ">
<polygon fill="#ffffff" stroke="#000000" points="0,-.5 0,-19.5 107,-19.5 107,-.5 0,-.5"/>
<text text-anchor="middle" x="53.5" y="-7.5" font-family="Arial.ttf" font-size="10.00" fill="#000000">SLCompactGrid.cpp</text>
</a>
</g>
</g>
<!-- Node1&#45;&gt;Node2 -->
<g id="edge1" class="edge">
<title>Node1&#45;&gt;Node2</title>
<path fill="none" stroke="#191970" d="M790.6161,-64.4677C671.9945,-60.5265 367.9964,-48.2948 115.5,-20 112.7912,-19.6965 110.0202,-19.3568 107.225,-18.9911"/>
<polygon fill="#191970" stroke="#191970" points="790.7343,-67.9733 800.8434,-64.8021 790.9632,-60.977 790.7343,-67.9733"/>
</g>
<!-- Node3 -->
<g id="node3" class="node">
<title>Node3</title>
<g id="a_node3"><a xlink:href="_c_v_tracked_faces_8cpp.html" target="_top" xlink:title=" ">
<polygon fill="#ffffff" stroke="#000000" points="125,-.5 125,-19.5 238,-19.5 238,-.5 125,-.5"/>
<text text-anchor="middle" x="181.5" y="-7.5" font-family="Arial.ttf" font-size="10.00" fill="#000000">CVTrackedFaces.cpp</text>
</a>
</g>
</g>
<!-- Node1&#45;&gt;Node3 -->
<g id="edge2" class="edge">
<title>Node1&#45;&gt;Node3</title>
<path fill="none" stroke="#191970" d="M790.6087,-63.3161C687.7727,-57.6154 447.9432,-42.9153 247.5,-20 244.5063,-19.6578 241.44,-19.2819 238.3465,-18.8827"/>
<polygon fill="#191970" stroke="#191970" points="790.535,-66.8172 800.712,-63.8715 790.9193,-59.8277 790.535,-66.8172"/>
</g>
<!-- Node4 -->
<g id="node4" class="node">
<title>Node4</title>
<g id="a_node4"><a xlink:href="_c_v_tracked_w_a_i_8cpp.html" target="_top" xlink:title=" ">
<polygon fill="#ffffff" stroke="#000000" points="256.5,-.5 256.5,-19.5 360.5,-19.5 360.5,-.5 256.5,-.5"/>
<text text-anchor="middle" x="308.5" y="-7.5" font-family="Arial.ttf" font-size="10.00" fill="#000000">CVTrackedWAI.cpp</text>
</a>
</g>
</g>
<!-- Node1&#45;&gt;Node4 -->
<g id="edge3" class="edge">
<title>Node1&#45;&gt;Node4</title>
<path fill="none" stroke="#191970" d="M790.9197,-62.1618C704.3919,-55.3519 522.4791,-39.9721 369.5,-20 366.6268,-19.6249 363.6812,-19.2177 360.7103,-18.7893"/>
<polygon fill="#191970" stroke="#191970" points="790.7482,-65.659 800.9907,-62.9495 791.2941,-58.6803 790.7482,-65.659"/>
</g>
<!-- Node5 -->
<g id="node5" class="node">
<title>Node5</title>
<g id="a_node5"><a xlink:href="_s_l_g_l_depth_buffer_8cpp.html" target="_top" xlink:title=" ">
<polygon fill="#ffffff" stroke="#000000" points="378.5,-.5 378.5,-19.5 492.5,-19.5 492.5,-.5 378.5,-.5"/>
<text text-anchor="middle" x="435.5" y="-7.5" font-family="Arial.ttf" font-size="10.00" fill="#000000">SLGLDepthBuffer.cpp</text>
</a>
</g>
</g>
<!-- Node1&#45;&gt;Node5 -->
<g id="edge4" class="edge">
<title>Node1&#45;&gt;Node5</title>
<path fill="none" stroke="#191970" d="M790.7103,-59.3845C724.2193,-50.6653 604.0618,-34.7069 501.5,-20 498.6321,-19.5888 495.6948,-19.1625 492.7292,-18.728"/>
<polygon fill="#191970" stroke="#191970" points="790.5401,-62.8921 800.91,-60.7205 791.4493,-55.9514 790.5401,-62.8921"/>
</g>
<!-- Node6 -->
<g id="node6" class="node">
<title>Node6</title>
<g id="a_node6"><a xlink:href="_s_l_g_l_texture_8cpp.html" target="_top" xlink:title=" ">
<polygon fill="#ffffff" stroke="#000000" points="511,-.5 511,-19.5 606,-19.5 606,-.5 511,-.5"/>
<text text-anchor="middle" x="558.5" y="-7.5" font-family="Arial.ttf" font-size="10.00" fill="#000000">SLGLTexture.cpp</text>
</a>
</g>
</g>
<!-- Node1&#45;&gt;Node6 -->
<g id="edge5" class="edge">
<title>Node1&#45;&gt;Node6</title>
<path fill="none" stroke="#191970" d="M790.8767,-55.9827C738.4878,-45.616 657.2904,-29.5486 606.0598,-19.4111"/>
<polygon fill="#191970" stroke="#191970" points="790.4638,-59.4688 800.953,-57.9766 791.8226,-52.6019 790.4638,-59.4688"/>
</g>
<!-- Node7 -->
<g id="node7" class="node">
<title>Node7</title>
<g id="a_node7"><a xlink:href="_s_l_assimp_importer_8cpp.html" target="_top" xlink:title=" ">
<polygon fill="#ffffff" stroke="#000000" points="624.5,-.5 624.5,-19.5 742.5,-19.5 742.5,-.5 624.5,-.5"/>
<text text-anchor="middle" x="683.5" y="-7.5" font-family="Arial.ttf" font-size="10.00" fill="#000000">SLAssimpImporter.cpp</text>
</a>
</g>
</g>
<!-- Node1&#45;&gt;Node7 -->
<g id="edge6" class="edge">
<title>Node1&#45;&gt;Node7</title>
<path fill="none" stroke="#191970" d="M804.6045,-52.9231C775.7213,-42.686 736.2294,-28.6889 710.3067,-19.5011"/>
<polygon fill="#191970" stroke="#191970" points="803.7441,-56.3314 814.3388,-56.3733 806.0826,-49.7336 803.7441,-56.3314"/>
</g>
<!-- Node8 -->
<g id="node8" class="node">
<title>Node8</title>
<g id="a_node8"><a xlink:href="_s_l_mesh_8cpp.html" target="_top" xlink:title=" ">
<polygon fill="#ffffff" stroke="#000000" points="760.5,-.5 760.5,-19.5 832.5,-19.5 832.5,-.5 760.5,-.5"/>
<text text-anchor="middle" x="796.5" y="-7.5" font-family="Arial.ttf" font-size="10.00" fill="#000000">SLMesh.cpp</text>
</a>
</g>
</g>
<!-- Node1&#45;&gt;Node8 -->
<g id="edge7" class="edge">
<title>Node1&#45;&gt;Node8</title>
<path fill="none" stroke="#191970" d="M827.2054,-48.2112C819.6004,-38.7472 810.5462,-27.4797 804.2486,-19.6427"/>
<polygon fill="#191970" stroke="#191970" points="824.6694,-50.6428 833.6616,-56.2455 830.1259,-46.2581 824.6694,-50.6428"/>
</g>
<!-- Node9 -->
<g id="node9" class="node">
<title>Node9</title>
<g id="a_node9"><a xlink:href="_s_l_node_8cpp.html" target="_top" xlink:title=" ">
<polygon fill="#ffffff" stroke="#000000" points="850.5,-.5 850.5,-19.5 922.5,-19.5 922.5,-.5 850.5,-.5"/>
<text text-anchor="middle" x="886.5" y="-7.5" font-family="Arial.ttf" font-size="10.00" fill="#000000">SLNode.cpp</text>
</a>
</g>
</g>
<!-- Node1&#45;&gt;Node9 -->
<g id="edge8" class="edge">
<title>Node1&#45;&gt;Node9</title>
<path fill="none" stroke="#191970" d="M855.7946,-48.2112C863.3996,-38.7472 872.4538,-27.4797 878.7514,-19.6427"/>
<polygon fill="#191970" stroke="#191970" points="852.8741,-46.2581 849.3384,-56.2455 858.3306,-50.6428 852.8741,-46.2581"/>
</g>
<!-- Node10 -->
<g id="node10" class="node">
<title>Node10</title>
<g id="a_node10"><a xlink:href="_s_l_raytracer_8cpp.html" target="_top" xlink:title=" ">
<polygon fill="#ffffff" stroke="#000000" points="941,-.5 941,-19.5 1032,-19.5 1032,-.5 941,-.5"/>
<text text-anchor="middle" x="986.5" y="-7.5" font-family="Arial.ttf" font-size="10.00" fill="#000000">SLRaytracer.cpp</text>
</a>
</g>
</g>
<!-- Node1&#45;&gt;Node10 -->
<g id="edge9" class="edge">
<title>Node1&#45;&gt;Node10</title>
<path fill="none" stroke="#191970" d="M876.0565,-52.6541C902.4986,-42.4419 938.3169,-28.6086 961.8989,-19.5011"/>
<polygon fill="#191970" stroke="#191970" points="874.4939,-49.5055 866.4264,-56.3733 877.0158,-56.0354 874.4939,-49.5055"/>
</g>
<!-- Node11 -->
<g id="node11" class="node">
<title>Node11</title>
<g id="a_node11"><a xlink:href="_s_l_scene_8cpp.html" target="_top" xlink:title=" ">
<polygon fill="#ffffff" stroke="#000000" points="1050.5,-.5 1050.5,-19.5 1126.5,-19.5 1126.5,-.5 1050.5,-.5"/>
<text text-anchor="middle" x="1088.5" y="-7.5" font-family="Arial.ttf" font-size="10.00" fill="#000000">SLScene.cpp</text>
</a>
</g>
</g>
<!-- Node1&#45;&gt;Node11 -->
<g id="edge10" class="edge">
<title>Node1&#45;&gt;Node11</title>
<path fill="none" stroke="#191970" d="M891.9748,-54.5563C938.9419,-43.9079 1007.8974,-28.2743 1050.4038,-18.6372"/>
<polygon fill="#191970" stroke="#191970" points="890.989,-51.1909 882.0104,-56.8154 892.5368,-58.0177 890.989,-51.1909"/>
</g>
<!-- Node12 -->
<g id="node12" class="node">
<title>Node12</title>
<g id="a_node12"><a xlink:href="_s_l_scene_view_8cpp.html" target="_top" xlink:title=" ">
<polygon fill="#ffffff" stroke="#000000" points="1144.5,-.5 1144.5,-19.5 1242.5,-19.5 1242.5,-.5 1144.5,-.5"/>
<text text-anchor="middle" x="1193.5" y="-7.5" font-family="Arial.ttf" font-size="10.00" fill="#000000">SLSceneView.cpp</text>
</a>
</g>
</g>
<!-- Node1&#45;&gt;Node12 -->
<g id="edge11" class="edge">
<title>Node1&#45;&gt;Node12</title>
<path fill="none" stroke="#191970" d="M892.5532,-58.2581C951.2234,-49.304 1050.3795,-33.9962 1135.5,-20 1138.424,-19.5192 1141.4298,-19.019 1144.4613,-18.51"/>
<polygon fill="#191970" stroke="#191970" points="891.7933,-54.8334 882.435,-59.8005 892.8482,-61.7535 891.7933,-54.8334"/>
</g>
<!-- Node13 -->
<g id="node13" class="node">
<title>Node13</title>
<g id="a_node13"><a xlink:href="_s_l_shadow_map_8cpp.html" target="_top" xlink:title=" ">
<polygon fill="#ffffff" stroke="#000000" points="1261,-.5 1261,-19.5 1364,-19.5 1364,-.5 1261,-.5"/>
<text text-anchor="middle" x="1312.5" y="-7.5" font-family="Arial.ttf" font-size="10.00" fill="#000000">SLShadowMap.cpp</text>
</a>
</g>
</g>
<!-- Node1&#45;&gt;Node13 -->
<g id="edge12" class="edge">
<title>Node1&#45;&gt;Node13</title>
<path fill="none" stroke="#191970" d="M892.0024,-61.167C969.4887,-53.5637 1122.3086,-37.8251 1251.5,-20 1254.583,-19.5746 1257.7502,-19.1173 1260.9432,-18.6407"/>
<polygon fill="#191970" stroke="#191970" points="891.6422,-57.6855 882.03,-62.1414 892.323,-64.6523 891.6422,-57.6855"/>
</g>
<!-- Node14 -->
<g id="node14" class="node">
<title>Node14</title>
<g id="a_node14"><a xlink:href="_w_a_i_compass_alignment_8cpp.html" target="_top" xlink:title=" ">
<polygon fill="#ffffff" stroke="#000000" points="1382,-.5 1382,-19.5 1523,-19.5 1523,-.5 1382,-.5"/>
<text text-anchor="middle" x="1452.5" y="-7.5" font-family="Arial.ttf" font-size="10.00" fill="#000000">WAICompassAlignment.cpp</text>
</a>
</g>
</g>
<!-- Node1&#45;&gt;Node14 -->
<g id="edge13" class="edge">
<title>Node1&#45;&gt;Node14</title>
<path fill="none" stroke="#191970" d="M892.4337,-62.2719C987.2284,-55.1831 1197.1254,-38.7807 1373.5,-20 1376.2494,-19.7072 1379.0514,-19.3992 1381.881,-19.08"/>
<polygon fill="#191970" stroke="#191970" points="891.9782,-58.796 882.2659,-63.0295 892.4984,-65.7767 891.9782,-58.796"/>
</g>
<!-- Node15 -->
<g id="node15" class="node">
<title>Node15</title>
<g id="a_node15"><a xlink:href="_w_a_i_key_frame_8cpp.html" target="_top" xlink:title=" ">
<polygon fill="#ffffff" stroke="#000000" points="1541.5,-.5 1541.5,-19.5 1641.5,-19.5 1641.5,-.5 1541.5,-.5"/>
<text text-anchor="middle" x="1591.5" y="-7.5" font-family="Arial.ttf" font-size="10.00" fill="#000000">WAIKeyFrame.cpp</text>
</a>
</g>
</g>
<!-- Node1&#45;&gt;Node15 -->
<g id="edge14" class="edge">
<title>Node1&#45;&gt;Node15</title>
<path fill="none" stroke="#191970" d="M892.3535,-64.3811C1006.9458,-60.347 1293.9697,-48.0806 1532.5,-20 1535.389,-19.6599 1538.3519,-19.2746 1541.3378,-18.858"/>
<polygon fill="#191970" stroke="#191970" points="892.005,-60.891 882.1322,-64.7351 892.2473,-67.8868 892.005,-60.891"/>
</g>
</g>
</svg>
