<?xml version="1.0" encoding="UTF-8" standalone="no"?>
<!DOCTYPE svg PUBLIC "-//W3C//DTD SVG 1.1//EN"
 "http://www.w3.org/Graphics/SVG/1.1/DTD/svg11.dtd">
<!-- Generated by graphviz version 2.40.1 (20161225.0304)
 -->
<!-- Title: LoopClosing.h Pages: 1 -->
<svg width="985pt" height="308pt"
 viewBox="0.00 0.00 984.50 308.00" xmlns="http://www.w3.org/2000/svg" xmlns:xlink="http://www.w3.org/1999/xlink">
<g id="graph0" class="graph" transform="scale(1 1) rotate(0) translate(4 304)">
<title>LoopClosing.h</title>
<polygon fill="#ffffff" stroke="transparent" points="-4,4 -4,-304 980.5,-304 980.5,4 -4,4"/>
<!-- Node1 -->
<g id="node1" class="node">
<title>Node1</title>
<g id="a_node1"><a xlink:title=" ">
<polygon fill="#bfbfbf" stroke="#000000" points="408.5,-280.5 408.5,-299.5 488.5,-299.5 488.5,-280.5 408.5,-280.5"/>
<text text-anchor="middle" x="448.5" y="-287.5" font-family="Arial.ttf" font-size="10.00" fill="#000000">LoopClosing.h</text>
</a>
</g>
</g>
<!-- Node2 -->
<g id="node2" class="node">
<title>Node2</title>
<g id="a_node2"><a xlink:href="_loop_closing_8cpp.html" target="_top" xlink:title=" ">
<polygon fill="#ffffff" stroke="#000000" points="0,-168.5 0,-187.5 91,-187.5 91,-168.5 0,-168.5"/>
<text text-anchor="middle" x="45.5" y="-175.5" font-family="Arial.ttf" font-size="10.00" fill="#000000">LoopClosing.cpp</text>
</a>
</g>
</g>
<!-- Node1&#45;&gt;Node2 -->
<g id="edge1" class="edge">
<title>Node1&#45;&gt;Node2</title>
<path fill="none" stroke="#191970" d="M404.2514,-277.7026C323.2371,-255.1875 152.7103,-207.7954 79.7726,-187.5249"/>
<polygon fill="#191970" stroke="#191970" points="403.5684,-281.1454 414.1404,-280.4509 405.4428,-274.401 403.5684,-281.1454"/>
</g>
<!-- Node3 -->
<g id="node3" class="node">
<title>Node3</title>
<g id="a_node3"><a xlink:href="_optimizer_8h.html" target="_top" xlink:title=" ">
<polygon fill="#ffffff" stroke="#000000" points="414.5,-224.5 414.5,-243.5 482.5,-243.5 482.5,-224.5 414.5,-224.5"/>
<text text-anchor="middle" x="448.5" y="-231.5" font-family="Arial.ttf" font-size="10.00" fill="#000000">Optimizer.h</text>
</a>
</g>
</g>
<!-- Node1&#45;&gt;Node3 -->
<g id="edge2" class="edge">
<title>Node1&#45;&gt;Node3</title>
<path fill="none" stroke="#191970" d="M448.5,-270.1575C448.5,-261.155 448.5,-250.9199 448.5,-243.6427"/>
<polygon fill="#191970" stroke="#191970" points="445.0001,-270.2455 448.5,-280.2455 452.0001,-270.2456 445.0001,-270.2455"/>
</g>
<!-- Node8 -->
<g id="node8" class="node">
<title>Node8</title>
<g id="a_node8"><a xlink:href="_w_a_i_mode_orb_slam2_8h.html" target="_top" xlink:title=" ">
<polygon fill="#ffffff" stroke="#000000" points="109.5,-168.5 109.5,-187.5 223.5,-187.5 223.5,-168.5 109.5,-168.5"/>
<text text-anchor="middle" x="166.5" y="-175.5" font-family="Arial.ttf" font-size="10.00" fill="#000000">WAIModeOrbSlam2.h</text>
</a>
</g>
</g>
<!-- Node1&#45;&gt;Node8 -->
<g id="edge19" class="edge">
<title>Node1&#45;&gt;Node8</title>
<path fill="none" stroke="#191970" d="M415.0745,-276.7246C357.4585,-253.8417 240.7929,-207.5064 190.4823,-187.5249"/>
<polygon fill="#191970" stroke="#191970" points="413.8711,-280.0126 424.4568,-280.4509 416.4549,-273.5069 413.8711,-280.0126"/>
</g>
<!-- Node10 -->
<g id="node10" class="node">
<title>Node10</title>
<g id="a_node10"><a xlink:href="_w_a_i_slam_8h.html" target="_top" xlink:title=" ">
<polygon fill="#ffffff" stroke="#000000" points="787,-112.5 787,-131.5 854,-131.5 854,-112.5 787,-112.5"/>
<text text-anchor="middle" x="820.5" y="-119.5" font-family="Arial.ttf" font-size="10.00" fill="#000000">WAISlam.h</text>
</a>
</g>
</g>
<!-- Node1&#45;&gt;Node10 -->
<g id="edge20" class="edge">
<title>Node1&#45;&gt;Node10</title>
<path fill="none" stroke="#191970" d="M498.3195,-280.4271C582.1349,-263.4772 746.5184,-226.3426 790.5,-188 807.7671,-172.9468 815.6455,-145.9388 818.7574,-131.5827"/>
<polygon fill="#191970" stroke="#191970" points="497.6283,-276.996 488.5111,-282.3929 499.0039,-283.8595 497.6283,-276.996"/>
</g>
<!-- Node14 -->
<g id="node14" class="node">
<title>Node14</title>
<g id="a_node14"><a xlink:href="_w_a_i_slam_tools_8h.html" target="_top" xlink:title=" ">
<polygon fill="#ffffff" stroke="#000000" points="665,-168.5 665,-187.5 756,-187.5 756,-168.5 665,-168.5"/>
<text text-anchor="middle" x="710.5" y="-175.5" font-family="Arial.ttf" font-size="10.00" fill="#000000">WAISlamTools.h</text>
</a>
</g>
</g>
<!-- Node1&#45;&gt;Node14 -->
<g id="edge21" class="edge">
<title>Node1&#45;&gt;Node14</title>
<path fill="none" stroke="#191970" d="M480.2213,-276.4398C533.9794,-253.4592 641.6692,-207.4238 688.2186,-187.5249"/>
<polygon fill="#191970" stroke="#191970" points="478.6573,-273.3019 470.838,-280.4509 481.4088,-279.7384 478.6573,-273.3019"/>
</g>
<!-- Node3&#45;&gt;Node2 -->
<g id="edge6" class="edge">
<title>Node3&#45;&gt;Node2</title>
<path fill="none" stroke="#191970" d="M404.2629,-228.8488C338.0662,-220.9831 209.3675,-205.082 100.5,-188 97.4319,-187.5186 94.2714,-187.0013 91.0896,-186.4646"/>
<polygon fill="#191970" stroke="#191970" points="403.9957,-232.3415 414.3378,-230.0412 404.8185,-225.3901 403.9957,-232.3415"/>
</g>
<!-- Node4 -->
<g id="node4" class="node">
<title>Node4</title>
<g id="a_node4"><a xlink:href="_f2_f_transform_8cpp.html" target="_top" xlink:title=" ">
<polygon fill="#ffffff" stroke="#000000" points="242,-168.5 242,-187.5 341,-187.5 341,-168.5 242,-168.5"/>
<text text-anchor="middle" x="291.5" y="-175.5" font-family="Arial.ttf" font-size="10.00" fill="#000000">F2FTransform.cpp</text>
</a>
</g>
</g>
<!-- Node3&#45;&gt;Node4 -->
<g id="edge3" class="edge">
<title>Node3&#45;&gt;Node4</title>
<path fill="none" stroke="#191970" d="M411.8381,-220.9231C383.1376,-210.686 343.8956,-196.6889 318.1371,-187.5011"/>
<polygon fill="#191970" stroke="#191970" points="410.9161,-224.3102 421.5107,-224.3733 413.2678,-217.7171 410.9161,-224.3102"/>
</g>
<!-- Node5 -->
<g id="node5" class="node">
<title>Node5</title>
<g id="a_node5"><a xlink:href="_initializer_8cpp.html" target="_top" xlink:title=" ">
<polygon fill="#ffffff" stroke="#000000" points="359,-168.5 359,-187.5 434,-187.5 434,-168.5 359,-168.5"/>
<text text-anchor="middle" x="396.5" y="-175.5" font-family="Arial.ttf" font-size="10.00" fill="#000000">Initializer.cpp</text>
</a>
</g>
</g>
<!-- Node3&#45;&gt;Node5 -->
<g id="edge4" class="edge">
<title>Node3&#45;&gt;Node5</title>
<path fill="none" stroke="#191970" d="M432.5178,-216.7884C423.6222,-207.2085 412.8796,-195.6396 405.4539,-187.6427"/>
<polygon fill="#191970" stroke="#191970" points="430.073,-219.2992 439.4423,-224.2455 435.2025,-214.536 430.073,-219.2992"/>
</g>
<!-- Node6 -->
<g id="node6" class="node">
<title>Node6</title>
<g id="a_node6"><a xlink:href="_local_mapping_8cpp.html" target="_top" xlink:title=" ">
<polygon fill="#ffffff" stroke="#000000" points="452.5,-168.5 452.5,-187.5 550.5,-187.5 550.5,-168.5 452.5,-168.5"/>
<text text-anchor="middle" x="501.5" y="-175.5" font-family="Arial.ttf" font-size="10.00" fill="#000000">LocalMapping.cpp</text>
</a>
</g>
</g>
<!-- Node3&#45;&gt;Node6 -->
<g id="edge5" class="edge">
<title>Node3&#45;&gt;Node6</title>
<path fill="none" stroke="#191970" d="M464.7896,-216.7884C473.8562,-207.2085 484.8054,-195.6396 492.3739,-187.6427"/>
<polygon fill="#191970" stroke="#191970" points="462.0637,-214.5767 457.7319,-224.2455 467.1478,-219.3884 462.0637,-214.5767"/>
</g>
<!-- Node7 -->
<g id="node7" class="node">
<title>Node7</title>
<g id="a_node7"><a xlink:href="_optimizer_8cpp.html" target="_top" xlink:title=" ">
<polygon fill="#ffffff" stroke="#000000" points="568.5,-168.5 568.5,-187.5 646.5,-187.5 646.5,-168.5 568.5,-168.5"/>
<text text-anchor="middle" x="607.5" y="-175.5" font-family="Arial.ttf" font-size="10.00" fill="#000000">Optimizer.cpp</text>
</a>
</g>
</g>
<!-- Node3&#45;&gt;Node7 -->
<g id="edge7" class="edge">
<title>Node3&#45;&gt;Node7</title>
<path fill="none" stroke="#191970" d="M485.629,-220.9231C514.695,-210.686 554.4369,-196.6889 580.5236,-187.5011"/>
<polygon fill="#191970" stroke="#191970" points="484.1025,-217.75 475.8331,-224.3733 486.4279,-224.3524 484.1025,-217.75"/>
</g>
<!-- Node3&#45;&gt;Node8 -->
<g id="edge8" class="edge">
<title>Node3&#45;&gt;Node8</title>
<path fill="none" stroke="#191970" d="M404.6585,-225.2939C353.1918,-215.0736 268.1098,-198.1778 214.7922,-187.5899"/>
<polygon fill="#191970" stroke="#191970" points="403.994,-228.7302 414.4842,-227.2451 405.3575,-221.8643 403.994,-228.7302"/>
</g>
<!-- Node3&#45;&gt;Node10 -->
<g id="edge10" class="edge">
<title>Node3&#45;&gt;Node10</title>
<path fill="none" stroke="#191970" d="M492.7234,-231.4776C568.5414,-226.5178 719.6116,-213.673 765.5,-188 789.4508,-174.6003 807.3854,-146.367 815.5791,-131.5457"/>
<polygon fill="#191970" stroke="#191970" points="492.3008,-227.9974 482.5434,-232.1257 492.7456,-234.9832 492.3008,-227.9974"/>
</g>
<!-- Node3&#45;&gt;Node14 -->
<g id="edge14" class="edge">
<title>Node3&#45;&gt;Node14</title>
<path fill="none" stroke="#191970" d="M492.5657,-224.5814C540.6799,-214.2974 617.3143,-197.9175 665.7118,-187.573"/>
<polygon fill="#191970" stroke="#191970" points="491.7994,-221.166 482.7519,-226.679 493.2626,-228.0114 491.7994,-221.166"/>
</g>
<!-- Node9 -->
<g id="node9" class="node">
<title>Node9</title>
<g id="a_node9"><a xlink:href="_w_a_i_mode_orb_slam2_8cpp.html" target="_top" xlink:title=" ">
<polygon fill="#ffffff" stroke="#000000" points="104.5,-112.5 104.5,-131.5 228.5,-131.5 228.5,-112.5 104.5,-112.5"/>
<text text-anchor="middle" x="166.5" y="-119.5" font-family="Arial.ttf" font-size="10.00" fill="#000000">WAIModeOrbSlam2.cpp</text>
</a>
</g>
</g>
<!-- Node8&#45;&gt;Node9 -->
<g id="edge9" class="edge">
<title>Node8&#45;&gt;Node9</title>
<path fill="none" stroke="#191970" d="M166.5,-158.1575C166.5,-149.155 166.5,-138.9199 166.5,-131.6427"/>
<polygon fill="#191970" stroke="#191970" points="163.0001,-158.2455 166.5,-168.2455 170.0001,-158.2456 163.0001,-158.2455"/>
</g>
<!-- Node11 -->
<g id="node11" class="node">
<title>Node11</title>
<g id="a_node11"><a xlink:href="_c_v_tracked_w_a_i_8h.html" target="_top" xlink:title=" ">
<polygon fill="#ffffff" stroke="#000000" points="877.5,-56.5 877.5,-75.5 971.5,-75.5 971.5,-56.5 877.5,-56.5"/>
<text text-anchor="middle" x="924.5" y="-63.5" font-family="Arial.ttf" font-size="10.00" fill="#000000">CVTrackedWAI.h</text>
</a>
</g>
</g>
<!-- Node10&#45;&gt;Node11 -->
<g id="edge11" class="edge">
<title>Node10&#45;&gt;Node11</title>
<path fill="none" stroke="#191970" d="M847.5029,-107.46C866.1136,-97.4388 890.3299,-84.3993 906.5922,-75.6427"/>
<polygon fill="#191970" stroke="#191970" points="845.7608,-104.4228 838.6154,-112.2455 849.0795,-110.5861 845.7608,-104.4228"/>
</g>
<!-- Node13 -->
<g id="node13" class="node">
<title>Node13</title>
<g id="a_node13"><a xlink:href="_w_a_i_slam_8cpp.html" target="_top" xlink:title=" ">
<polygon fill="#ffffff" stroke="#000000" points="782,-56.5 782,-75.5 859,-75.5 859,-56.5 782,-56.5"/>
<text text-anchor="middle" x="820.5" y="-63.5" font-family="Arial.ttf" font-size="10.00" fill="#000000">WAISlam.cpp</text>
</a>
</g>
</g>
<!-- Node10&#45;&gt;Node13 -->
<g id="edge13" class="edge">
<title>Node10&#45;&gt;Node13</title>
<path fill="none" stroke="#191970" d="M820.5,-102.1575C820.5,-93.155 820.5,-82.9199 820.5,-75.6427"/>
<polygon fill="#191970" stroke="#191970" points="817.0001,-102.2455 820.5,-112.2455 824.0001,-102.2456 817.0001,-102.2455"/>
</g>
<!-- Node12 -->
<g id="node12" class="node">
<title>Node12</title>
<g id="a_node12"><a xlink:href="_c_v_tracked_w_a_i_8cpp.html" target="_top" xlink:title=" ">
<polygon fill="#ffffff" stroke="#000000" points="872.5,-.5 872.5,-19.5 976.5,-19.5 976.5,-.5 872.5,-.5"/>
<text text-anchor="middle" x="924.5" y="-7.5" font-family="Arial.ttf" font-size="10.00" fill="#000000">CVTrackedWAI.cpp</text>
</a>
</g>
</g>
<!-- Node11&#45;&gt;Node12 -->
<g id="edge12" class="edge">
<title>Node11&#45;&gt;Node12</title>
<path fill="none" stroke="#191970" d="M924.5,-46.1575C924.5,-37.155 924.5,-26.9199 924.5,-19.6427"/>
<polygon fill="#191970" stroke="#191970" points="921.0001,-46.2455 924.5,-56.2455 928.0001,-46.2456 921.0001,-46.2455"/>
</g>
<!-- Node14&#45;&gt;Node10 -->
<g id="edge15" class="edge">
<title>Node14&#45;&gt;Node10</title>
<path fill="none" stroke="#191970" d="M738.7914,-163.5971C758.5111,-153.558 784.28,-140.4393 801.559,-131.6427"/>
<polygon fill="#191970" stroke="#191970" points="736.9843,-160.5896 729.6605,-168.2455 740.1601,-166.8277 736.9843,-160.5896"/>
</g>
<!-- Node15 -->
<g id="node15" class="node">
<title>Node15</title>
<g id="a_node15"><a xlink:href="_w_a_i_slam_tools_8cpp.html" target="_top" xlink:title=" ">
<polygon fill="#ffffff" stroke="#000000" points="534.5,-112.5 534.5,-131.5 636.5,-131.5 636.5,-112.5 534.5,-112.5"/>
<text text-anchor="middle" x="585.5" y="-119.5" font-family="Arial.ttf" font-size="10.00" fill="#000000">WAISlamTools.cpp</text>
</a>
</g>
</g>
<!-- Node14&#45;&gt;Node15 -->
<g id="edge16" class="edge">
<title>Node14&#45;&gt;Node15</title>
<path fill="none" stroke="#191970" d="M679.802,-164.2473C657.1007,-154.0771 626.7685,-140.4883 606.7079,-131.5011"/>
<polygon fill="#191970" stroke="#191970" points="678.4547,-167.4789 689.0117,-168.3733 681.3167,-161.0906 678.4547,-167.4789"/>
</g>
<!-- Node16 -->
<g id="node16" class="node">
<title>Node16</title>
<g id="a_node16"><a xlink:href="_w_a_i_slam_track_pool_8h.html" target="_top" xlink:title=" ">
<polygon fill="#ffffff" stroke="#000000" points="654.5,-112.5 654.5,-131.5 766.5,-131.5 766.5,-112.5 654.5,-112.5"/>
<text text-anchor="middle" x="710.5" y="-119.5" font-family="Arial.ttf" font-size="10.00" fill="#000000">WAISlamTrackPool.h</text>
</a>
</g>
</g>
<!-- Node14&#45;&gt;Node16 -->
<g id="edge17" class="edge">
<title>Node14&#45;&gt;Node16</title>
<path fill="none" stroke="#191970" d="M710.5,-158.1575C710.5,-149.155 710.5,-138.9199 710.5,-131.6427"/>
<polygon fill="#191970" stroke="#191970" points="707.0001,-158.2455 710.5,-168.2455 714.0001,-158.2456 707.0001,-158.2455"/>
</g>
<!-- Node17 -->
<g id="node17" class="node">
<title>Node17</title>
<g id="a_node17"><a xlink:href="_w_a_i_slam_track_pool_8cpp.html" target="_top" xlink:title=" ">
<polygon fill="#ffffff" stroke="#000000" points="641.5,-56.5 641.5,-75.5 763.5,-75.5 763.5,-56.5 641.5,-56.5"/>
<text text-anchor="middle" x="702.5" y="-63.5" font-family="Arial.ttf" font-size="10.00" fill="#000000">WAISlamTrackPool.cpp</text>
</a>
</g>
</g>
<!-- Node16&#45;&gt;Node17 -->
<g id="edge18" class="edge">
<title>Node16&#45;&gt;Node17</title>
<path fill="none" stroke="#191970" d="M707.6654,-102.1575C706.3793,-93.155 704.9171,-82.9199 703.8775,-75.6427"/>
<polygon fill="#191970" stroke="#191970" points="704.2274,-102.8411 709.1065,-112.2455 711.157,-101.851 704.2274,-102.8411"/>
</g>
</g>
</svg>
