<?xml version="1.0" encoding="UTF-8" standalone="no"?>
<!DOCTYPE svg PUBLIC "-//W3C//DTD SVG 1.1//EN"
 "http://www.w3.org/Graphics/SVG/1.1/DTD/svg11.dtd">
<!-- Generated by graphviz version 2.40.1 (20161225.0304)
 -->
<!-- Title: ORBextractor.cpp Pages: 1 -->
<svg width="1290pt" height="319pt"
 viewBox="0.00 0.00 1289.50 319.00" xmlns="http://www.w3.org/2000/svg" xmlns:xlink="http://www.w3.org/1999/xlink">
<g id="graph0" class="graph" transform="scale(1 1) rotate(0) translate(4 315)">
<title>ORBextractor.cpp</title>
<polygon fill="#ffffff" stroke="transparent" points="-4,4 -4,-315 1285.5,-315 1285.5,4 -4,4"/>
<!-- Node1 -->
<g id="node1" class="node">
<title>Node1</title>
<g id="a_node1"><a xlink:title=" ">
<polygon fill="#bfbfbf" stroke="#000000" points="587,-291.5 587,-310.5 683,-310.5 683,-291.5 587,-291.5"/>
<text text-anchor="middle" x="635" y="-298.5" font-family="Arial.ttf" font-size="10.00" fill="#000000">ORBextractor.cpp</text>
</a>
</g>
</g>
<!-- Node2 -->
<g id="node2" class="node">
<title>Node2</title>
<g id="a_node2"><a xlink:title=" ">
<polygon fill="#ffffff" stroke="#bfbfbf" points="0,-230 0,-249 118,-249 118,-230 0,-230"/>
<text text-anchor="middle" x="59" y="-237" font-family="Arial.ttf" font-size="10.00" fill="#000000">opencv2/core/core.hpp</text>
</a>
</g>
</g>
<!-- Node1&#45;&gt;Node2 -->
<g id="edge1" class="edge">
<title>Node1&#45;&gt;Node2</title>
<path fill="none" stroke="#191970" d="M586.7581,-298.7856C496.1893,-294.1521 294.7108,-281.5849 127,-255 120.331,-253.9428 113.3407,-252.6108 106.4856,-251.1737"/>
<polygon fill="#191970" stroke="#191970" points="107.1085,-247.7273 96.592,-249.0129 105.6148,-254.5661 107.1085,-247.7273"/>
</g>
<!-- Node3 -->
<g id="node3" class="node">
<title>Node3</title>
<g id="a_node3"><a xlink:title=" ">
<polygon fill="#ffffff" stroke="#bfbfbf" points="136,-230 136,-249 280,-249 280,-230 136,-230"/>
<text text-anchor="middle" x="208" y="-237" font-family="Arial.ttf" font-size="10.00" fill="#000000">opencv2/highgui/highgui.hpp</text>
</a>
</g>
</g>
<!-- Node1&#45;&gt;Node3 -->
<g id="edge2" class="edge">
<title>Node1&#45;&gt;Node3</title>
<path fill="none" stroke="#191970" d="M586.7355,-295.4627C519.7492,-287.5773 394.8778,-272.1541 289,-255 281.3481,-253.7603 273.3099,-252.3516 265.391,-250.901"/>
<polygon fill="#191970" stroke="#191970" points="265.9344,-247.4421 255.4623,-249.0506 264.6518,-254.3236 265.9344,-247.4421"/>
</g>
<!-- Node4 -->
<g id="node4" class="node">
<title>Node4</title>
<g id="a_node4"><a xlink:title=" ">
<polygon fill="#ffffff" stroke="#bfbfbf" points="298,-224.5 298,-254.5 402,-254.5 402,-224.5 298,-224.5"/>
<text text-anchor="start" x="306" y="-242.5" font-family="Arial.ttf" font-size="10.00" fill="#000000">opencv2/features2d</text>
<text text-anchor="middle" x="350" y="-231.5" font-family="Arial.ttf" font-size="10.00" fill="#000000">/features2d.hpp</text>
</a>
</g>
</g>
<!-- Node1&#45;&gt;Node4 -->
<g id="edge3" class="edge">
<title>Node1&#45;&gt;Node4</title>
<path fill="none" stroke="#191970" d="M586.7954,-291.7707C543.5572,-283.3416 478.1372,-270.2187 412.3382,-255.2532"/>
<polygon fill="#191970" stroke="#191970" points="412.7337,-251.7533 402.2049,-252.9343 411.1721,-258.5769 412.7337,-251.7533"/>
</g>
<!-- Node5 -->
<g id="node5" class="node">
<title>Node5</title>
<g id="a_node5"><a xlink:title=" ">
<polygon fill="#ffffff" stroke="#bfbfbf" points="420,-230 420,-249 570,-249 570,-230 420,-230"/>
<text text-anchor="middle" x="495" y="-237" font-family="Arial.ttf" font-size="10.00" fill="#000000">opencv2/imgproc/imgproc.hpp</text>
</a>
</g>
</g>
<!-- Node1&#45;&gt;Node5 -->
<g id="edge4" class="edge">
<title>Node1&#45;&gt;Node5</title>
<path fill="none" stroke="#191970" d="M613.125,-291.3906C589.7004,-281.1005 552.3404,-264.6888 525.9159,-253.0809"/>
<polygon fill="#191970" stroke="#191970" points="527.2846,-249.8594 516.7214,-249.0419 524.4693,-256.2683 527.2846,-249.8594"/>
</g>
<!-- Node6 -->
<g id="node6" class="node">
<title>Node6</title>
<g id="a_node6"><a xlink:title=" ">
<polygon fill="#ffffff" stroke="#bfbfbf" points="915,-56.5 915,-75.5 959,-75.5 959,-56.5 915,-56.5"/>
<text text-anchor="middle" x="937" y="-63.5" font-family="Arial.ttf" font-size="10.00" fill="#000000">vector</text>
</a>
</g>
</g>
<!-- Node1&#45;&gt;Node6 -->
<g id="edge5" class="edge">
<title>Node1&#45;&gt;Node6</title>
<path fill="none" stroke="#191970" d="M630.2631,-291.4242C621.9276,-275.4504 603.2029,-243.2266 579,-224 546.8761,-198.481 516.6577,-222.2022 494,-188 470.1364,-151.9774 527.0108,-120.8281 544,-112 606.7036,-79.4172 822.4396,-69.4956 904.7453,-66.8554"/>
<polygon fill="#191970" stroke="#191970" points="904.8868,-70.3529 914.7752,-66.5489 904.6729,-63.3561 904.8868,-70.3529"/>
</g>
<!-- Node7 -->
<g id="node7" class="node">
<title>Node7</title>
<g id="a_node7"><a xlink:href="_average_timing_8h.html" target="_top" xlink:title=" ">
<polygon fill="#ffffff" stroke="#000000" points="626,-230 626,-249 718,-249 718,-230 626,-230"/>
<text text-anchor="middle" x="672" y="-237" font-family="Arial.ttf" font-size="10.00" fill="#000000">AverageTiming.h</text>
</a>
</g>
</g>
<!-- Node1&#45;&gt;Node7 -->
<g id="edge6" class="edge">
<title>Node1&#45;&gt;Node7</title>
<path fill="none" stroke="#191970" d="M640.7813,-291.3906C646.126,-282.5068 654.2159,-269.0601 660.8211,-258.0811"/>
<polygon fill="#191970" stroke="#191970" points="663.9811,-259.618 666.1372,-249.2449 657.9829,-256.0093 663.9811,-259.618"/>
</g>
<!-- Node18 -->
<g id="node18" class="node">
<title>Node18</title>
<g id="a_node18"><a xlink:href="_o_r_bextractor_8h.html" target="_top" xlink:title=" ">
<polygon fill="#ffffff" stroke="#000000" points="932.5,-230 932.5,-249 1017.5,-249 1017.5,-230 932.5,-230"/>
<text text-anchor="middle" x="975" y="-237" font-family="Arial.ttf" font-size="10.00" fill="#000000">ORBextractor.h</text>
</a>
</g>
</g>
<!-- Node1&#45;&gt;Node18 -->
<g id="edge19" class="edge">
<title>Node1&#45;&gt;Node18</title>
<path fill="none" stroke="#191970" d="M683.3526,-292.2539C746.611,-280.8115 857.061,-260.8331 922.3681,-249.0202"/>
<polygon fill="#191970" stroke="#191970" points="923.2304,-252.4211 932.4477,-247.197 921.9844,-245.5329 923.2304,-252.4211"/>
</g>
<!-- Node25 -->
<g id="node25" class="node">
<title>Node25</title>
<g id="a_node25"><a xlink:href="_extractor_node_8h.html" target="_top" xlink:title=" ">
<polygon fill="#ffffff" stroke="#000000" points="1003.5,-168.5 1003.5,-187.5 1136.5,-187.5 1136.5,-168.5 1003.5,-168.5"/>
<text text-anchor="middle" x="1070" y="-175.5" font-family="Arial.ttf" font-size="10.00" fill="#000000">orb_slam/ExtractorNode.h</text>
</a>
</g>
</g>
<!-- Node1&#45;&gt;Node25 -->
<g id="edge38" class="edge">
<title>Node1&#45;&gt;Node25</title>
<path fill="none" stroke="#191970" d="M668.7718,-291.4507C746.8266,-269.3801 939.6752,-214.8505 1026.4545,-190.3129"/>
<polygon fill="#191970" stroke="#191970" points="1027.5794,-193.6321 1036.2498,-187.5432 1025.6747,-186.8962 1027.5794,-193.6321"/>
</g>
<!-- Node26 -->
<g id="node26" class="node">
<title>Node26</title>
<g id="a_node26"><a xlink:href="_b_r_i_e_f_pattern_8h.html" target="_top" xlink:title=" ">
<polygon fill="#ffffff" stroke="#000000" points="1035.5,-230 1035.5,-249 1122.5,-249 1122.5,-230 1035.5,-230"/>
<text text-anchor="middle" x="1079" y="-237" font-family="Arial.ttf" font-size="10.00" fill="#000000">BRIEFPattern.h</text>
</a>
</g>
</g>
<!-- Node1&#45;&gt;Node26 -->
<g id="edge37" class="edge">
<title>Node1&#45;&gt;Node26</title>
<path fill="none" stroke="#191970" d="M683.0963,-298.0442C757.4505,-292.8727 904.5206,-280.2428 1027,-255 1031.4272,-254.0876 1036.0217,-252.9726 1040.5652,-251.7631"/>
<polygon fill="#191970" stroke="#191970" points="1041.6702,-255.0881 1050.3456,-249.0062 1039.771,-248.3506 1041.6702,-255.0881"/>
</g>
<!-- Node27 -->
<g id="node27" class="node">
<title>Node27</title>
<g id="a_node27"><a xlink:title=" ">
<polygon fill="#ffffff" stroke="#bfbfbf" points="1140.5,-230 1140.5,-249 1195.5,-249 1195.5,-230 1140.5,-230"/>
<text text-anchor="middle" x="1168" y="-237" font-family="Arial.ttf" font-size="10.00" fill="#000000">iostream</text>
</a>
</g>
</g>
<!-- Node1&#45;&gt;Node27 -->
<g id="edge39" class="edge">
<title>Node1&#45;&gt;Node27</title>
<path fill="none" stroke="#191970" d="M683.08,-298.475C790.6359,-292.5147 1047.8182,-276.444 1132,-255 1134.481,-254.368 1137.0104,-253.587 1139.5203,-252.7143"/>
<polygon fill="#191970" stroke="#191970" points="1140.9262,-255.9226 1148.9609,-249.0165 1138.3731,-249.4048 1140.9262,-255.9226"/>
</g>
<!-- Node8 -->
<g id="node8" class="node">
<title>Node8</title>
<g id="a_node8"><a xlink:title=" ">
<polygon fill="#ffffff" stroke="#bfbfbf" points="553.5,-112.5 553.5,-131.5 594.5,-131.5 594.5,-112.5 553.5,-112.5"/>
<text text-anchor="middle" x="574" y="-119.5" font-family="Arial.ttf" font-size="10.00" fill="#000000">string</text>
</a>
</g>
</g>
<!-- Node7&#45;&gt;Node8 -->
<g id="edge7" class="edge">
<title>Node7&#45;&gt;Node8</title>
<path fill="none" stroke="#191970" d="M665.9026,-229.8499C656.8093,-215.7291 638.8454,-188.8516 621,-168 612.1575,-157.6679 601.3689,-146.9924 592.3593,-138.5296"/>
<polygon fill="#191970" stroke="#191970" points="594.7143,-135.9402 584.9934,-131.7264 589.9649,-141.0825 594.7143,-135.9402"/>
</g>
<!-- Node9 -->
<g id="node9" class="node">
<title>Node9</title>
<g id="a_node9"><a xlink:title=" ">
<polygon fill="#ffffff" stroke="#bfbfbf" points="755,-168.5 755,-187.5 791,-187.5 791,-168.5 755,-168.5"/>
<text text-anchor="middle" x="773" y="-175.5" font-family="Arial.ttf" font-size="10.00" fill="#000000">map</text>
</a>
</g>
</g>
<!-- Node7&#45;&gt;Node9 -->
<g id="edge8" class="edge">
<title>Node7&#45;&gt;Node9</title>
<path fill="none" stroke="#191970" d="M687.7813,-229.8906C704.0875,-219.9616 729.754,-204.333 748.6614,-192.8201"/>
<polygon fill="#191970" stroke="#191970" points="750.6087,-195.7322 757.3296,-187.5419 746.9681,-189.7533 750.6087,-195.7322"/>
</g>
<!-- Node10 -->
<g id="node10" class="node">
<title>Node10</title>
<g id="a_node10"><a xlink:href="_high_res_timer_8h.html" target="_top" xlink:title=" ">
<polygon fill="#ffffff" stroke="#000000" points="809.5,-168.5 809.5,-187.5 898.5,-187.5 898.5,-168.5 809.5,-168.5"/>
<text text-anchor="middle" x="854" y="-175.5" font-family="Arial.ttf" font-size="10.00" fill="#000000">HighResTimer.h</text>
</a>
</g>
</g>
<!-- Node7&#45;&gt;Node10 -->
<g id="edge9" class="edge">
<title>Node7&#45;&gt;Node10</title>
<path fill="none" stroke="#191970" d="M700.4375,-229.8906C731.5572,-219.3749 781.5964,-202.466 816.0485,-190.8243"/>
<polygon fill="#191970" stroke="#191970" points="817.4089,-194.0591 825.7622,-187.5419 815.168,-187.4274 817.4089,-194.0591"/>
</g>
<!-- Node14 -->
<g id="node14" class="node">
<title>Node14</title>
<g id="a_node14"><a xlink:href="_averaged_8h.html" target="_top" xlink:title=" ">
<polygon fill="#ffffff" stroke="#000000" points="669,-168.5 669,-187.5 737,-187.5 737,-168.5 669,-168.5"/>
<text text-anchor="middle" x="703" y="-175.5" font-family="Arial.ttf" font-size="10.00" fill="#000000">Averaged.h</text>
</a>
</g>
</g>
<!-- Node7&#45;&gt;Node14 -->
<g id="edge13" class="edge">
<title>Node7&#45;&gt;Node14</title>
<path fill="none" stroke="#191970" d="M676.8438,-229.8906C681.2766,-221.0965 687.9631,-207.8312 693.4659,-196.9145"/>
<polygon fill="#191970" stroke="#191970" points="696.7122,-198.25 698.088,-187.7449 690.4614,-195.0992 696.7122,-198.25"/>
</g>
<!-- Node16 -->
<g id="node16" class="node">
<title>Node16</title>
<g id="a_node16"><a xlink:title=" ">
<polygon fill="#ffffff" stroke="#bfbfbf" points="503,-168.5 503,-187.5 555,-187.5 555,-168.5 503,-168.5"/>
<text text-anchor="middle" x="529" y="-175.5" font-family="Arial.ttf" font-size="10.00" fill="#000000">sstream</text>
</a>
</g>
</g>
<!-- Node7&#45;&gt;Node16 -->
<g id="edge17" class="edge">
<title>Node7&#45;&gt;Node16</title>
<path fill="none" stroke="#191970" d="M649.6563,-229.8906C625.7297,-219.6005 587.5691,-203.1888 560.5784,-191.5809"/>
<polygon fill="#191970" stroke="#191970" points="561.7561,-188.2775 551.1869,-187.5419 558.9905,-194.708 561.7561,-188.2775"/>
</g>
<!-- Node17 -->
<g id="node17" class="node">
<title>Node17</title>
<g id="a_node17"><a xlink:title=" ">
<polygon fill="#ffffff" stroke="#bfbfbf" points="573.5,-168.5 573.5,-187.5 612.5,-187.5 612.5,-168.5 573.5,-168.5"/>
<text text-anchor="middle" x="593" y="-175.5" font-family="Arial.ttf" font-size="10.00" fill="#000000">utility</text>
</a>
</g>
</g>
<!-- Node7&#45;&gt;Node17 -->
<g id="edge18" class="edge">
<title>Node7&#45;&gt;Node17</title>
<path fill="none" stroke="#191970" d="M659.6563,-229.8906C647.2497,-220.2324 627.9157,-205.1812 613.2587,-193.771"/>
<polygon fill="#191970" stroke="#191970" points="615.2979,-190.923 605.2571,-187.5419 610.9979,-196.4466 615.2979,-190.923"/>
</g>
<!-- Node11 -->
<g id="node11" class="node">
<title>Node11</title>
<g id="a_node11"><a xlink:title=" ">
<polygon fill="#ffffff" stroke="#bfbfbf" points="784.5,-112.5 784.5,-131.5 831.5,-131.5 831.5,-112.5 784.5,-112.5"/>
<text text-anchor="middle" x="808" y="-119.5" font-family="Arial.ttf" font-size="10.00" fill="#000000">chrono</text>
</a>
</g>
</g>
<!-- Node10&#45;&gt;Node11 -->
<g id="edge10" class="edge">
<title>Node10&#45;&gt;Node11</title>
<path fill="none" stroke="#191970" d="M845.9874,-168.2455C839.5232,-160.3761 830.2615,-149.101 822.5017,-139.6542"/>
<polygon fill="#191970" stroke="#191970" points="824.9727,-137.1484 815.9208,-131.6427 819.5636,-141.5916 824.9727,-137.1484"/>
</g>
<!-- Node12 -->
<g id="node12" class="node">
<title>Node12</title>
<g id="a_node12"><a xlink:title=" ">
<polygon fill="#ffffff" stroke="#bfbfbf" points="849.5,-112.5 849.5,-131.5 908.5,-131.5 908.5,-112.5 849.5,-112.5"/>
<text text-anchor="middle" x="879" y="-119.5" font-family="Arial.ttf" font-size="10.00" fill="#000000">functional</text>
</a>
</g>
</g>
<!-- Node10&#45;&gt;Node12 -->
<g id="edge11" class="edge">
<title>Node10&#45;&gt;Node12</title>
<path fill="none" stroke="#191970" d="M858.3547,-168.2455C861.7244,-160.6973 866.493,-150.0158 870.5983,-140.8197"/>
<polygon fill="#191970" stroke="#191970" points="873.8147,-142.2009 874.6952,-131.6427 867.4227,-139.3473 873.8147,-142.2009"/>
</g>
<!-- Node13 -->
<g id="node13" class="node">
<title>Node13</title>
<g id="a_node13"><a xlink:title=" ">
<polygon fill="#ffffff" stroke="#bfbfbf" points="721.5,-112.5 721.5,-131.5 766.5,-131.5 766.5,-112.5 721.5,-112.5"/>
<text text-anchor="middle" x="744" y="-119.5" font-family="Arial.ttf" font-size="10.00" fill="#000000">thread</text>
</a>
</g>
</g>
<!-- Node10&#45;&gt;Node13 -->
<g id="edge12" class="edge">
<title>Node10&#45;&gt;Node13</title>
<path fill="none" stroke="#191970" d="M834.8395,-168.2455C817.4889,-159.4125 791.7099,-146.2887 772.0417,-136.2758"/>
<polygon fill="#191970" stroke="#191970" points="773.4405,-133.0605 762.941,-131.6427 770.2647,-139.2986 773.4405,-133.0605"/>
</g>
<!-- Node14&#45;&gt;Node6 -->
<g id="edge15" class="edge">
<title>Node14&#45;&gt;Node6</title>
<path fill="none" stroke="#191970" d="M701.3838,-168.4788C699.5511,-154.2029 698.4796,-127.2983 713,-112 738.9327,-84.6779 849.5077,-72.5855 904.9864,-68.1574"/>
<polygon fill="#191970" stroke="#191970" points="905.2841,-71.6449 914.989,-67.3947 904.7519,-64.6652 905.2841,-71.6449"/>
</g>
<!-- Node14&#45;&gt;Node8 -->
<g id="edge14" class="edge">
<title>Node14&#45;&gt;Node8</title>
<path fill="none" stroke="#191970" d="M680.8241,-168.3733C659.6452,-159.1793 627.5661,-145.2535 604.0883,-135.0616"/>
<polygon fill="#191970" stroke="#191970" points="605.1766,-131.7185 594.6099,-130.9469 602.3891,-138.1396 605.1766,-131.7185"/>
</g>
<!-- Node15 -->
<g id="node15" class="node">
<title>Node15</title>
<g id="a_node15"><a xlink:title=" ">
<polygon fill="#ffffff" stroke="#bfbfbf" points="613,-112.5 613,-131.5 665,-131.5 665,-112.5 613,-112.5"/>
<text text-anchor="middle" x="639" y="-119.5" font-family="Arial.ttf" font-size="10.00" fill="#000000">assert.h</text>
</a>
</g>
</g>
<!-- Node14&#45;&gt;Node15 -->
<g id="edge16" class="edge">
<title>Node14&#45;&gt;Node15</title>
<path fill="none" stroke="#191970" d="M691.8521,-168.2455C682.4913,-160.0549 668.9142,-148.1749 657.8651,-138.5069"/>
<polygon fill="#191970" stroke="#191970" points="659.8508,-135.5937 650.0202,-131.6427 655.2412,-140.8618 659.8508,-135.5937"/>
</g>
<!-- Node18&#45;&gt;Node6 -->
<g id="edge20" class="edge">
<title>Node18&#45;&gt;Node6</title>
<path fill="none" stroke="#191970" d="M972.1066,-229.6801C969.1176,-219.3564 964.4195,-202.6153 961,-188 952.594,-152.0725 944.7137,-109.7327 940.4046,-85.5605"/>
<polygon fill="#191970" stroke="#191970" points="943.8213,-84.7811 938.6381,-75.5406 936.9276,-85.9965 943.8213,-84.7811"/>
</g>
<!-- Node19 -->
<g id="node19" class="node">
<title>Node19</title>
<g id="a_node19"><a xlink:title=" ">
<polygon fill="#ffffff" stroke="#bfbfbf" points="1252.5,-56.5 1252.5,-75.5 1281.5,-75.5 1281.5,-56.5 1252.5,-56.5"/>
<text text-anchor="middle" x="1267" y="-63.5" font-family="Arial.ttf" font-size="10.00" fill="#000000">list</text>
</a>
</g>
</g>
<!-- Node18&#45;&gt;Node19 -->
<g id="edge21" class="edge">
<title>Node18&#45;&gt;Node19</title>
<path fill="none" stroke="#191970" d="M1005.0958,-229.9237C1012.2359,-227.8203 1019.8545,-225.7125 1027,-224 1113.5546,-203.2567 1149.1436,-236.1507 1224,-188 1249.5084,-171.592 1253.0448,-160.6495 1263,-132 1268.1808,-117.0904 1268.9502,-99.1568 1268.5525,-85.7489"/>
<polygon fill="#191970" stroke="#191970" points="1272.0451,-85.5149 1268.0151,-75.7165 1265.0551,-85.8894 1272.0451,-85.5149"/>
</g>
<!-- Node20 -->
<g id="node20" class="node">
<title>Node20</title>
<g id="a_node20"><a xlink:title=" ">
<polygon fill="#ffffff" stroke="#bfbfbf" points="996.5,-56.5 996.5,-75.5 1105.5,-75.5 1105.5,-56.5 996.5,-56.5"/>
<text text-anchor="middle" x="1051" y="-63.5" font-family="Arial.ttf" font-size="10.00" fill="#000000">opencv2/opencv.hpp</text>
</a>
</g>
</g>
<!-- Node18&#45;&gt;Node20 -->
<g id="edge22" class="edge">
<title>Node18&#45;&gt;Node20</title>
<path fill="none" stroke="#191970" d="M977.0245,-229.5481C980.0487,-215.5124 986.3319,-189.2432 995,-168 1007.4619,-137.4591 1026.8084,-104.3825 1039.1876,-84.4292"/>
<polygon fill="#191970" stroke="#191970" points="1042.2811,-86.0847 1044.6443,-75.7568 1036.3563,-82.3568 1042.2811,-86.0847"/>
</g>
<!-- Node21 -->
<g id="node21" class="node">
<title>Node21</title>
<g id="a_node21"><a xlink:href="_w_a_i_helper_8h.html" target="_top" xlink:title=" ">
<polygon fill="#ffffff" stroke="#000000" points="1141.5,-56.5 1141.5,-75.5 1214.5,-75.5 1214.5,-56.5 1141.5,-56.5"/>
<text text-anchor="middle" x="1178" y="-63.5" font-family="Arial.ttf" font-size="10.00" fill="#000000">WAIHelper.h</text>
</a>
</g>
</g>
<!-- Node18&#45;&gt;Node21 -->
<g id="edge23" class="edge">
<title>Node18&#45;&gt;Node21</title>
<path fill="none" stroke="#191970" d="M1006.2918,-229.9631C1013.104,-227.9456 1020.2828,-225.864 1027,-224 1129.519,-195.5508 1198.592,-226.225 1248,-132 1259.3671,-110.3221 1234.7812,-91.8351 1211.6798,-79.9896"/>
<polygon fill="#191970" stroke="#191970" points="1213.1737,-76.8243 1202.6462,-75.6315 1210.1321,-83.129 1213.1737,-76.8243"/>
</g>
<!-- Node24 -->
<g id="node24" class="node">
<title>Node24</title>
<g id="a_node24"><a xlink:href="_k_pextractor_8h.html" target="_top" xlink:title=" ">
<polygon fill="#ffffff" stroke="#000000" points="1117.5,-112.5 1117.5,-131.5 1238.5,-131.5 1238.5,-112.5 1117.5,-112.5"/>
<text text-anchor="middle" x="1178" y="-119.5" font-family="Arial.ttf" font-size="10.00" fill="#000000">orb_slam/KPextractor.h</text>
</a>
</g>
</g>
<!-- Node18&#45;&gt;Node24 -->
<g id="edge26" class="edge">
<title>Node18&#45;&gt;Node24</title>
<path fill="none" stroke="#191970" d="M1007.0064,-229.9474C1056.32,-215.2175 1145.318,-188.5814 1146,-188 1160.1924,-175.9012 1168.6192,-156.045 1173.2324,-141.2669"/>
<polygon fill="#191970" stroke="#191970" points="1176.6167,-142.1607 1175.9454,-131.5871 1169.8765,-140.2715 1176.6167,-142.1607"/>
</g>
<!-- Node18&#45;&gt;Node25 -->
<g id="edge31" class="edge">
<title>Node18&#45;&gt;Node25</title>
<path fill="none" stroke="#191970" d="M989.8438,-229.8906C1005.0418,-220.0519 1028.8848,-204.6167 1046.6206,-193.1351"/>
<polygon fill="#191970" stroke="#191970" points="1048.768,-195.9144 1055.2605,-187.5419 1044.9639,-190.0382 1048.768,-195.9144"/>
</g>
<!-- Node22 -->
<g id="node22" class="node">
<title>Node22</title>
<g id="a_node22"><a xlink:title=" ">
<polygon fill="#ffffff" stroke="#bfbfbf" points="1121.5,-.5 1121.5,-19.5 1170.5,-19.5 1170.5,-.5 1121.5,-.5"/>
<text text-anchor="middle" x="1146" y="-7.5" font-family="Arial.ttf" font-size="10.00" fill="#000000">cstdarg</text>
</a>
</g>
</g>
<!-- Node21&#45;&gt;Node22 -->
<g id="edge24" class="edge">
<title>Node21&#45;&gt;Node22</title>
<path fill="none" stroke="#191970" d="M1172.426,-56.2455C1168.0669,-48.617 1161.8789,-37.7881 1156.5867,-28.5267"/>
<polygon fill="#191970" stroke="#191970" points="1159.5104,-26.5886 1151.5101,-19.6427 1153.4327,-30.0616 1159.5104,-26.5886"/>
</g>
<!-- Node23 -->
<g id="node23" class="node">
<title>Node23</title>
<g id="a_node23"><a xlink:title=" ">
<polygon fill="#ffffff" stroke="#bfbfbf" points="1188.5,-.5 1188.5,-19.5 1231.5,-19.5 1231.5,-.5 1188.5,-.5"/>
<text text-anchor="middle" x="1210" y="-7.5" font-family="Arial.ttf" font-size="10.00" fill="#000000">cstdio</text>
</a>
</g>
</g>
<!-- Node21&#45;&gt;Node23 -->
<g id="edge25" class="edge">
<title>Node21&#45;&gt;Node23</title>
<path fill="none" stroke="#191970" d="M1183.574,-56.2455C1187.9331,-48.617 1194.1211,-37.7881 1199.4133,-28.5267"/>
<polygon fill="#191970" stroke="#191970" points="1202.5673,-30.0616 1204.4899,-19.6427 1196.4896,-26.5886 1202.5673,-30.0616"/>
</g>
<!-- Node24&#45;&gt;Node6 -->
<g id="edge27" class="edge">
<title>Node24&#45;&gt;Node6</title>
<path fill="none" stroke="#191970" d="M1136.8445,-112.4369C1089.4008,-101.4126 1012.4168,-83.5242 969.1542,-73.4715"/>
<polygon fill="#191970" stroke="#191970" points="969.7088,-70.0072 959.1761,-71.1529 968.1244,-76.8255 969.7088,-70.0072"/>
</g>
<!-- Node24&#45;&gt;Node19 -->
<g id="edge28" class="edge">
<title>Node24&#45;&gt;Node19</title>
<path fill="none" stroke="#191970" d="M1193.5026,-112.2455C1207.3245,-103.5486 1227.7571,-90.6922 1243.5725,-80.7409"/>
<polygon fill="#191970" stroke="#191970" points="1245.6661,-83.5588 1252.266,-75.2708 1241.9381,-77.6341 1245.6661,-83.5588"/>
</g>
<!-- Node24&#45;&gt;Node20 -->
<g id="edge29" class="edge">
<title>Node24&#45;&gt;Node20</title>
<path fill="none" stroke="#191970" d="M1156.1679,-112.3733C1135.6897,-103.3435 1104.8601,-89.7494 1081.8681,-79.6111"/>
<polygon fill="#191970" stroke="#191970" points="1083.1093,-76.3333 1072.5472,-75.5011 1080.285,-82.7383 1083.1093,-76.3333"/>
</g>
<!-- Node24&#45;&gt;Node21 -->
<g id="edge30" class="edge">
<title>Node24&#45;&gt;Node21</title>
<path fill="none" stroke="#191970" d="M1178,-112.2455C1178,-104.9382 1178,-94.6944 1178,-85.7046"/>
<polygon fill="#191970" stroke="#191970" points="1181.5001,-85.6426 1178,-75.6427 1174.5001,-85.6427 1181.5001,-85.6426"/>
</g>
<!-- Node25&#45;&gt;Node6 -->
<g id="edge32" class="edge">
<title>Node25&#45;&gt;Node6</title>
<path fill="none" stroke="#191970" d="M1058.6605,-168.4509C1035.8888,-149.2747 984.3768,-105.8962 956.2361,-82.1988"/>
<polygon fill="#191970" stroke="#191970" points="958.2144,-79.2891 948.3108,-75.5249 953.7055,-84.6435 958.2144,-79.2891"/>
</g>
<!-- Node25&#45;&gt;Node19 -->
<g id="edge33" class="edge">
<title>Node25&#45;&gt;Node19</title>
<path fill="none" stroke="#191970" d="M1132.9414,-168.4924C1177.2674,-160.5773 1231.5289,-148.0258 1248,-132 1260.3945,-119.9407 1264.8434,-100.3622 1266.3715,-85.6548"/>
<polygon fill="#191970" stroke="#191970" points="1269.8712,-85.776 1267.054,-75.5626 1262.8872,-85.3037 1269.8712,-85.776"/>
</g>
<!-- Node25&#45;&gt;Node20 -->
<g id="edge34" class="edge">
<title>Node25&#45;&gt;Node20</title>
<path fill="none" stroke="#191970" d="M1068.3801,-168.4509C1065.2812,-150.184 1058.4567,-109.9553 1054.3416,-85.6976"/>
<polygon fill="#191970" stroke="#191970" points="1057.7391,-84.7986 1052.6158,-75.5249 1050.8377,-85.9694 1057.7391,-84.7986"/>
</g>
<!-- Node25&#45;&gt;Node21 -->
<g id="edge35" class="edge">
<title>Node25&#45;&gt;Node21</title>
<path fill="none" stroke="#191970" d="M1074.1183,-168.1428C1080.2178,-154.3898 1092.7091,-129.2003 1109,-112 1120.8246,-99.5153 1136.6349,-88.6673 1150.138,-80.6463"/>
<polygon fill="#191970" stroke="#191970" points="1152.0942,-83.5596 1159.0403,-75.5595 1148.6213,-77.4818 1152.0942,-83.5596"/>
</g>
<!-- Node25&#45;&gt;Node24 -->
<g id="edge36" class="edge">
<title>Node25&#45;&gt;Node24</title>
<path fill="none" stroke="#191970" d="M1088.8122,-168.2455C1105.8473,-159.4125 1131.1575,-146.2887 1150.4681,-136.2758"/>
<polygon fill="#191970" stroke="#191970" points="1152.137,-139.353 1159.4034,-131.6427 1148.9147,-133.1388 1152.137,-139.353"/>
</g>
</g>
</svg>
