<?xml version="1.0" encoding="UTF-8" standalone="no"?>
<!DOCTYPE svg PUBLIC "-//W3C//DTD SVG 1.1//EN"
 "http://www.w3.org/Graphics/SVG/1.1/DTD/svg11.dtd">
<!-- Generated by graphviz version 2.40.1 (20161225.0304)
 -->
<!-- Title: SENSNdkCamera.h Pages: 1 -->
<svg width="1184pt" height="375pt"
 viewBox="0.00 0.00 1183.50 375.00" xmlns="http://www.w3.org/2000/svg" xmlns:xlink="http://www.w3.org/1999/xlink">
<g id="graph0" class="graph" transform="scale(1 1) rotate(0) translate(4 371)">
<title>SENSNdkCamera.h</title>
<polygon fill="#ffffff" stroke="transparent" points="-4,4 -4,-371 1179.5,-371 1179.5,4 -4,4"/>
<!-- Node1 -->
<g id="node1" class="node">
<title>Node1</title>
<g id="a_node1"><a xlink:title=" ">
<polygon fill="#bfbfbf" stroke="#000000" points="429.5,-347.5 429.5,-366.5 534.5,-366.5 534.5,-347.5 429.5,-347.5"/>
<text text-anchor="middle" x="482" y="-354.5" font-family="Arial.ttf" font-size="10.00" fill="#000000">SENSNdkCamera.h</text>
</a>
</g>
</g>
<!-- Node2 -->
<g id="node2" class="node">
<title>Node2</title>
<g id="a_node2"><a xlink:title=" ">
<polygon fill="#ffffff" stroke="#bfbfbf" points="55.5,-.5 55.5,-19.5 96.5,-19.5 96.5,-.5 55.5,-.5"/>
<text text-anchor="middle" x="76" y="-7.5" font-family="Arial.ttf" font-size="10.00" fill="#000000">string</text>
</a>
</g>
</g>
<!-- Node1&#45;&gt;Node2 -->
<g id="edge1" class="edge">
<title>Node1&#45;&gt;Node2</title>
<path fill="none" stroke="#191970" d="M429.0388,-355.8143C303.8283,-351.5787 0,-332.306 0,-245 0,-245 0,-245 0,-122 0,-82.2361 33.2071,-46.1042 55.7208,-26.177"/>
<polygon fill="#191970" stroke="#191970" points="58.1079,-28.7412 63.4501,-19.5918 53.5683,-23.4128 58.1079,-28.7412"/>
</g>
<!-- Node3 -->
<g id="node3" class="node">
<title>Node3</title>
<g id="a_node3"><a xlink:title=" ">
<polygon fill="#ffffff" stroke="#bfbfbf" points="142,-235.5 142,-254.5 178,-254.5 178,-235.5 142,-235.5"/>
<text text-anchor="middle" x="160" y="-242.5" font-family="Arial.ttf" font-size="10.00" fill="#000000">map</text>
</a>
</g>
</g>
<!-- Node1&#45;&gt;Node3 -->
<g id="edge2" class="edge">
<title>Node1&#45;&gt;Node3</title>
<path fill="none" stroke="#191970" d="M453.8628,-347.4992C402.8979,-330.2415 291.703,-292.364 187.9713,-255.3"/>
<polygon fill="#191970" stroke="#191970" points="188.8748,-251.906 178.2802,-251.8318 186.5161,-258.4966 188.8748,-251.906"/>
</g>
<!-- Node4 -->
<g id="node4" class="node">
<title>Node4</title>
<g id="a_node4"><a xlink:title=" ">
<polygon fill="#ffffff" stroke="#bfbfbf" points="793.5,-174 793.5,-193 838.5,-193 838.5,-174 793.5,-174"/>
<text text-anchor="middle" x="816" y="-181" font-family="Arial.ttf" font-size="10.00" fill="#000000">thread</text>
</a>
</g>
</g>
<!-- Node1&#45;&gt;Node4 -->
<g id="edge3" class="edge">
<title>Node1&#45;&gt;Node4</title>
<path fill="none" stroke="#191970" d="M513.3832,-347.4938C593.203,-323.2553 798.0273,-260.6527 803,-255 815.3386,-240.9742 817.7533,-219.2551 817.5961,-203.4335"/>
<polygon fill="#191970" stroke="#191970" points="821.0794,-202.9817 817.1322,-193.1497 814.0865,-203.2973 821.0794,-202.9817"/>
</g>
<!-- Node5 -->
<g id="node5" class="node">
<title>Node5</title>
<g id="a_node5"><a xlink:href="_s_e_n_s_camera_8h.html" target="_top" xlink:title=" ">
<polygon fill="#ffffff" stroke="#000000" points="402,-291.5 402,-310.5 490,-310.5 490,-291.5 402,-291.5"/>
<text text-anchor="middle" x="446" y="-298.5" font-family="Arial.ttf" font-size="10.00" fill="#000000">SENSCamera.h</text>
</a>
</g>
</g>
<!-- Node1&#45;&gt;Node5 -->
<g id="edge4" class="edge">
<title>Node1&#45;&gt;Node5</title>
<path fill="none" stroke="#191970" d="M475.7293,-347.2455C470.7736,-339.5367 463.717,-328.5598 457.7224,-319.2348"/>
<polygon fill="#191970" stroke="#191970" points="460.5506,-317.1618 452.1989,-310.6427 454.6624,-320.9471 460.5506,-317.1618"/>
</g>
<!-- Node18 -->
<g id="node18" class="node">
<title>Node18</title>
<g id="a_node18"><a xlink:href="_s_e_n_s_exception_8h.html" target="_top" xlink:title=" ">
<polygon fill="#ffffff" stroke="#000000" points="28,-235.5 28,-254.5 124,-254.5 124,-235.5 28,-235.5"/>
<text text-anchor="middle" x="76" y="-242.5" font-family="Arial.ttf" font-size="10.00" fill="#000000">SENSException.h</text>
</a>
</g>
</g>
<!-- Node1&#45;&gt;Node18 -->
<g id="edge43" class="edge">
<title>Node1&#45;&gt;Node18</title>
<path fill="none" stroke="#191970" d="M437.8628,-347.4462C398.3982,-338.6875 339.0791,-324.9889 288,-311 226.7333,-294.2211 156.4981,-271.6959 114.227,-257.7748"/>
<polygon fill="#191970" stroke="#191970" points="115.212,-254.4142 104.6188,-254.5999 113.0157,-261.0607 115.212,-254.4142"/>
</g>
<!-- Node29 -->
<g id="node29" class="node">
<title>Node29</title>
<g id="a_node29"><a xlink:title=" ">
<polygon fill="#ffffff" stroke="#bfbfbf" points="706.5,-291.5 706.5,-310.5 851.5,-310.5 851.5,-291.5 706.5,-291.5"/>
<text text-anchor="middle" x="779" y="-298.5" font-family="Arial.ttf" font-size="10.00" fill="#000000">camera/NdkCameraDevice.h</text>
</a>
</g>
</g>
<!-- Node1&#45;&gt;Node29 -->
<g id="edge40" class="edge">
<title>Node1&#45;&gt;Node29</title>
<path fill="none" stroke="#191970" d="M532.7187,-347.4369C584.1886,-337.7321 663.8702,-322.708 718.5784,-312.3926"/>
<polygon fill="#191970" stroke="#191970" points="719.3122,-315.816 728.4905,-310.5237 718.0152,-308.9372 719.3122,-315.816"/>
</g>
<!-- Node30 -->
<g id="node30" class="node">
<title>Node30</title>
<g id="a_node30"><a xlink:title=" ">
<polygon fill="#ffffff" stroke="#bfbfbf" points="870,-291.5 870,-310.5 1024,-310.5 1024,-291.5 870,-291.5"/>
<text text-anchor="middle" x="947" y="-298.5" font-family="Arial.ttf" font-size="10.00" fill="#000000">camera/NdkCameraManager.h</text>
</a>
</g>
</g>
<!-- Node1&#45;&gt;Node30 -->
<g id="edge41" class="edge">
<title>Node1&#45;&gt;Node30</title>
<path fill="none" stroke="#191970" d="M534.8887,-350.6306C614.0903,-341.0923 764.3917,-322.9915 859.9363,-311.4851"/>
<polygon fill="#191970" stroke="#191970" points="860.359,-314.9596 869.8687,-310.2889 859.522,-308.0098 860.359,-314.9596"/>
</g>
<!-- Node31 -->
<g id="node31" class="node">
<title>Node31</title>
<g id="a_node31"><a xlink:title=" ">
<polygon fill="#ffffff" stroke="#bfbfbf" points="1042.5,-291.5 1042.5,-310.5 1175.5,-310.5 1175.5,-291.5 1042.5,-291.5"/>
<text text-anchor="middle" x="1109" y="-298.5" font-family="Arial.ttf" font-size="10.00" fill="#000000">media/NdkImageReader.h</text>
</a>
</g>
</g>
<!-- Node1&#45;&gt;Node31 -->
<g id="edge42" class="edge">
<title>Node1&#45;&gt;Node31</title>
<path fill="none" stroke="#191970" d="M534.5001,-353.4519C630.8502,-346.7583 842.6119,-331.2022 1032.1419,-311.0459"/>
<polygon fill="#191970" stroke="#191970" points="1032.7226,-314.5038 1042.2934,-309.9595 1031.9777,-307.5435 1032.7226,-314.5038"/>
</g>
<!-- Node5&#45;&gt;Node3 -->
<g id="edge31" class="edge">
<title>Node5&#45;&gt;Node3</title>
<path fill="none" stroke="#191970" d="M401.8223,-294.1348C342.8398,-284.8116 240.5508,-268.0565 187.9797,-254.8234"/>
<polygon fill="#191970" stroke="#191970" points="188.7184,-251.3985 178.156,-252.227 186.9296,-258.1661 188.7184,-251.3985"/>
</g>
<!-- Node5&#45;&gt;Node4 -->
<g id="edge32" class="edge">
<title>Node5&#45;&gt;Node4</title>
<path fill="none" stroke="#191970" d="M490.0933,-299.9937C570.1585,-297.3611 735.3894,-287.978 781,-255 798.0884,-242.6445 807.2401,-219.6183 811.8455,-203.0301"/>
<polygon fill="#191970" stroke="#191970" points="815.2647,-203.7822 814.2531,-193.2357 808.4671,-202.1111 815.2647,-203.7822"/>
</g>
<!-- Node6 -->
<g id="node6" class="node">
<title>Node6</title>
<g id="a_node6"><a xlink:title=" ">
<polygon fill="#ffffff" stroke="#bfbfbf" points="323,-174 323,-193 419,-193 419,-174 323,-174"/>
<text text-anchor="middle" x="371" y="-181" font-family="Arial.ttf" font-size="10.00" fill="#000000">opencv2/core.hpp</text>
</a>
</g>
</g>
<!-- Node5&#45;&gt;Node6 -->
<g id="edge5" class="edge">
<title>Node5&#45;&gt;Node6</title>
<path fill="none" stroke="#191970" d="M444.8918,-291.3801C442.9874,-277.9089 438.1617,-253.0522 427,-235 418.3921,-221.0781 404.9957,-208.5669 393.4638,-199.3628"/>
<polygon fill="#191970" stroke="#191970" points="395.5627,-196.5618 385.4915,-193.2725 391.3133,-202.1244 395.5627,-196.5618"/>
</g>
<!-- Node7 -->
<g id="node7" class="node">
<title>Node7</title>
<g id="a_node7"><a xlink:href="_s_e_n_s_frame_8h.html" target="_top" xlink:title=" ">
<polygon fill="#ffffff" stroke="#000000" points="336.5,-235.5 336.5,-254.5 417.5,-254.5 417.5,-235.5 336.5,-235.5"/>
<text text-anchor="middle" x="377" y="-242.5" font-family="Arial.ttf" font-size="10.00" fill="#000000">SENSFrame.h</text>
</a>
</g>
</g>
<!-- Node5&#45;&gt;Node7 -->
<g id="edge6" class="edge">
<title>Node5&#45;&gt;Node7</title>
<path fill="none" stroke="#191970" d="M433.9811,-291.2455C423.7902,-282.9746 408.9638,-270.9416 396.9893,-261.2232"/>
<polygon fill="#191970" stroke="#191970" points="398.8514,-258.2268 388.8812,-254.6427 394.4402,-263.662 398.8514,-258.2268"/>
</g>
<!-- Node5&#45;&gt;Node18 -->
<g id="edge22" class="edge">
<title>Node5&#45;&gt;Node18</title>
<path fill="none" stroke="#191970" d="M401.8809,-294.9094C343.1802,-286.7189 235.9042,-271.4497 134.3141,-255.1791"/>
<polygon fill="#191970" stroke="#191970" points="134.6151,-251.6826 124.1862,-253.5505 133.5037,-258.5938 134.6151,-251.6826"/>
</g>
<!-- Node21 -->
<g id="node21" class="node">
<title>Node21</title>
<g id="a_node21"><a xlink:href="_s_e_n_s_calibration_8h.html" target="_top" xlink:title=" ">
<polygon fill="#ffffff" stroke="#000000" points="564,-235.5 564,-254.5 664,-254.5 664,-235.5 564,-235.5"/>
<text text-anchor="middle" x="614" y="-242.5" font-family="Arial.ttf" font-size="10.00" fill="#000000">SENSCalibration.h</text>
</a>
</g>
</g>
<!-- Node5&#45;&gt;Node21 -->
<g id="edge27" class="edge">
<title>Node5&#45;&gt;Node21</title>
<path fill="none" stroke="#191970" d="M474.8802,-291.3733C502.8161,-282.0613 545.3142,-267.8953 575.9869,-257.671"/>
<polygon fill="#191970" stroke="#191970" points="577.1166,-260.9839 585.4966,-254.5011 574.903,-254.3431 577.1166,-260.9839"/>
</g>
<!-- Node24 -->
<g id="node24" class="node">
<title>Node24</title>
<g id="a_node24"><a xlink:title=" ">
<polygon fill="#ffffff" stroke="#bfbfbf" points="196,-235.5 196,-254.5 242,-254.5 242,-235.5 196,-235.5"/>
<text text-anchor="middle" x="219" y="-242.5" font-family="Arial.ttf" font-size="10.00" fill="#000000">atomic</text>
</a>
</g>
</g>
<!-- Node5&#45;&gt;Node24 -->
<g id="edge30" class="edge">
<title>Node5&#45;&gt;Node24</title>
<path fill="none" stroke="#191970" d="M401.6287,-291.4784C364.126,-283.2187 308.7911,-270.5372 251.9003,-255.1115"/>
<polygon fill="#191970" stroke="#191970" points="252.5834,-251.6698 242.0143,-252.407 250.7363,-258.4217 252.5834,-251.6698"/>
</g>
<!-- Node25 -->
<g id="node25" class="node">
<title>Node25</title>
<g id="a_node25"><a xlink:title=" ">
<polygon fill="#ffffff" stroke="#bfbfbf" points="260,-235.5 260,-254.5 318,-254.5 318,-235.5 260,-235.5"/>
<text text-anchor="middle" x="289" y="-242.5" font-family="Arial.ttf" font-size="10.00" fill="#000000">algorithm</text>
</a>
</g>
</g>
<!-- Node5&#45;&gt;Node25 -->
<g id="edge33" class="edge">
<title>Node5&#45;&gt;Node25</title>
<path fill="none" stroke="#191970" d="M419.0107,-291.3733C393.1301,-282.1419 353.8752,-268.1402 325.2711,-257.9375"/>
<polygon fill="#191970" stroke="#191970" points="326.2317,-254.5642 315.6371,-254.5011 323.88,-261.1573 326.2317,-254.5642"/>
</g>
<!-- Node26 -->
<g id="node26" class="node">
<title>Node26</title>
<g id="a_node26"><a xlink:href="_s_e_n_s_utils_8h.html" target="_top" xlink:title=" ">
<polygon fill="#ffffff" stroke="#000000" points="474,-235.5 474,-254.5 546,-254.5 546,-235.5 474,-235.5"/>
<text text-anchor="middle" x="510" y="-242.5" font-family="Arial.ttf" font-size="10.00" fill="#000000">SENSUtils.h</text>
</a>
</g>
</g>
<!-- Node5&#45;&gt;Node26 -->
<g id="edge34" class="edge">
<title>Node5&#45;&gt;Node26</title>
<path fill="none" stroke="#191970" d="M457.1479,-291.2455C466.5087,-283.0549 480.0858,-271.1749 491.1349,-261.5069"/>
<polygon fill="#191970" stroke="#191970" points="493.7588,-263.8618 498.9798,-254.6427 489.1492,-258.5937 493.7588,-263.8618"/>
</g>
<!-- Node28 -->
<g id="node28" class="node">
<title>Node28</title>
<g id="a_node28"><a xlink:href="_high_res_timer_8h.html" target="_top" xlink:title=" ">
<polygon fill="#ffffff" stroke="#000000" points="682.5,-235.5 682.5,-254.5 771.5,-254.5 771.5,-235.5 682.5,-235.5"/>
<text text-anchor="middle" x="727" y="-242.5" font-family="Arial.ttf" font-size="10.00" fill="#000000">HighResTimer.h</text>
</a>
</g>
</g>
<!-- Node5&#45;&gt;Node28 -->
<g id="edge36" class="edge">
<title>Node5&#45;&gt;Node28</title>
<path fill="none" stroke="#191970" d="M490.2154,-292.1884C539.438,-282.3789 619.04,-266.5152 672.1833,-255.9243"/>
<polygon fill="#191970" stroke="#191970" points="672.9905,-259.3324 682.1136,-253.9453 671.6223,-252.4674 672.9905,-259.3324"/>
</g>
<!-- Node7&#45;&gt;Node6 -->
<g id="edge7" class="edge">
<title>Node7&#45;&gt;Node6</title>
<path fill="none" stroke="#191970" d="M376.0625,-235.3906C375.2308,-226.8657 373.9892,-214.1392 372.9438,-203.4235"/>
<polygon fill="#191970" stroke="#191970" points="376.4053,-202.8577 371.9507,-193.2449 369.4383,-203.5375 376.4053,-202.8577"/>
</g>
<!-- Node8 -->
<g id="node8" class="node">
<title>Node8</title>
<g id="a_node8"><a xlink:href="_s_e_n_s_8h.html" target="_top" xlink:title=" ">
<polygon fill="#ffffff" stroke="#000000" points="253,-174 253,-193 305,-193 305,-174 253,-174"/>
<text text-anchor="middle" x="279" y="-181" font-family="Arial.ttf" font-size="10.00" fill="#000000">SENS.h</text>
</a>
</g>
</g>
<!-- Node7&#45;&gt;Node8 -->
<g id="edge8" class="edge">
<title>Node7&#45;&gt;Node8</title>
<path fill="none" stroke="#191970" d="M361.6875,-235.3906C345.9376,-225.5067 321.1877,-209.9749 302.8663,-198.4773"/>
<polygon fill="#191970" stroke="#191970" points="304.5357,-195.3929 294.205,-193.0419 300.8148,-201.3221 304.5357,-195.3929"/>
</g>
<!-- Node9 -->
<g id="node9" class="node">
<title>Node9</title>
<g id="a_node9"><a xlink:title=" ">
<polygon fill="#ffffff" stroke="#bfbfbf" points="416.5,-112.5 416.5,-131.5 463.5,-131.5 463.5,-112.5 416.5,-112.5"/>
<text text-anchor="middle" x="440" y="-119.5" font-family="Arial.ttf" font-size="10.00" fill="#000000">chrono</text>
</a>
</g>
</g>
<!-- Node8&#45;&gt;Node9 -->
<g id="edge9" class="edge">
<title>Node8&#45;&gt;Node9</title>
<path fill="none" stroke="#191970" d="M300.0021,-173.9265C304.5909,-171.9113 309.4394,-169.8399 314,-168 345.0761,-155.4625 381.0272,-142.4856 406.554,-133.5246"/>
<polygon fill="#191970" stroke="#191970" points="407.8463,-136.7807 416.1327,-130.1788 405.5379,-130.1722 407.8463,-136.7807"/>
</g>
<!-- Node10 -->
<g id="node10" class="node">
<title>Node10</title>
<g id="a_node10"><a xlink:href="_utils_8h.html" target="_top" xlink:title=" ">
<polygon fill="#ffffff" stroke="#000000" points="257,-112.5 257,-131.5 301,-131.5 301,-112.5 257,-112.5"/>
<text text-anchor="middle" x="279" y="-119.5" font-family="Arial.ttf" font-size="10.00" fill="#000000">Utils.h</text>
</a>
</g>
</g>
<!-- Node8&#45;&gt;Node10 -->
<g id="edge10" class="edge">
<title>Node8&#45;&gt;Node10</title>
<path fill="none" stroke="#191970" d="M279,-173.8906C279,-165.3657 279,-152.6392 279,-141.9235"/>
<polygon fill="#191970" stroke="#191970" points="282.5001,-141.7448 279,-131.7449 275.5001,-141.7449 282.5001,-141.7448"/>
</g>
<!-- Node10&#45;&gt;Node2 -->
<g id="edge11" class="edge">
<title>Node10&#45;&gt;Node2</title>
<path fill="none" stroke="#191970" d="M256.9077,-119.2524C213.2535,-113.3927 118.1578,-98.354 95,-76 82.5579,-63.9898 78.1153,-44.4049 76.6016,-29.6825"/>
<polygon fill="#191970" stroke="#191970" points="80.0856,-29.3243 75.9311,-19.5781 73.101,-29.7879 80.0856,-29.3243"/>
</g>
<!-- Node11 -->
<g id="node11" class="node">
<title>Node11</title>
<g id="a_node11"><a xlink:title=" ">
<polygon fill="#ffffff" stroke="#bfbfbf" points="198,-56.5 198,-75.5 242,-75.5 242,-56.5 198,-56.5"/>
<text text-anchor="middle" x="220" y="-63.5" font-family="Arial.ttf" font-size="10.00" fill="#000000">vector</text>
</a>
</g>
</g>
<!-- Node10&#45;&gt;Node11 -->
<g id="edge12" class="edge">
<title>Node10&#45;&gt;Node11</title>
<path fill="none" stroke="#191970" d="M268.723,-112.2455C260.1782,-104.1352 247.8222,-92.4075 237.6915,-82.7919"/>
<polygon fill="#191970" stroke="#191970" points="239.8218,-79.9884 230.1592,-75.6427 235.0028,-85.0655 239.8218,-79.9884"/>
</g>
<!-- Node12 -->
<g id="node12" class="node">
<title>Node12</title>
<g id="a_node12"><a xlink:title=" ">
<polygon fill="#ffffff" stroke="#bfbfbf" points="260,-56.5 260,-75.5 300,-75.5 300,-56.5 260,-56.5"/>
<text text-anchor="middle" x="280" y="-63.5" font-family="Arial.ttf" font-size="10.00" fill="#000000">cfloat</text>
</a>
</g>
</g>
<!-- Node10&#45;&gt;Node12 -->
<g id="edge13" class="edge">
<title>Node10&#45;&gt;Node12</title>
<path fill="none" stroke="#191970" d="M279.1742,-112.2455C279.3047,-104.9382 279.4876,-94.6944 279.6481,-85.7046"/>
<polygon fill="#191970" stroke="#191970" points="283.1486,-85.7036 279.8278,-75.6427 276.1497,-85.5786 283.1486,-85.7036"/>
</g>
<!-- Node13 -->
<g id="node13" class="node">
<title>Node13</title>
<g id="a_node13"><a xlink:title=" ">
<polygon fill="#ffffff" stroke="#bfbfbf" points="377.5,-.5 377.5,-19.5 430.5,-19.5 430.5,-.5 377.5,-.5"/>
<text text-anchor="middle" x="404" y="-7.5" font-family="Arial.ttf" font-size="10.00" fill="#000000">memory</text>
</a>
</g>
</g>
<!-- Node10&#45;&gt;Node13 -->
<g id="edge14" class="edge">
<title>Node10&#45;&gt;Node13</title>
<path fill="none" stroke="#191970" d="M301.3781,-118.1213C325.4339,-112.7883 363.1534,-100.867 385,-76 396.1775,-63.2772 400.8007,-44.3561 402.7018,-30.0308"/>
<polygon fill="#191970" stroke="#191970" points="406.2188,-30.0286 403.716,-19.7337 399.2525,-29.3424 406.2188,-30.0286"/>
</g>
<!-- Node14 -->
<g id="node14" class="node">
<title>Node14</title>
<g id="a_node14"><a xlink:href="_file_log_8h.html" target="_top" xlink:title=" ">
<polygon fill="#ffffff" stroke="#000000" points="318,-56.5 318,-75.5 376,-75.5 376,-56.5 318,-56.5"/>
<text text-anchor="middle" x="347" y="-63.5" font-family="Arial.ttf" font-size="10.00" fill="#000000">FileLog.h</text>
</a>
</g>
</g>
<!-- Node10&#45;&gt;Node14 -->
<g id="edge15" class="edge">
<title>Node10&#45;&gt;Node14</title>
<path fill="none" stroke="#191970" d="M290.8447,-112.2455C300.888,-103.9746 315.4995,-91.9416 327.3004,-82.2232"/>
<polygon fill="#191970" stroke="#191970" points="329.7967,-84.7015 335.291,-75.6427 325.3467,-79.298 329.7967,-84.7015"/>
</g>
<!-- Node16 -->
<g id="node16" class="node">
<title>Node16</title>
<g id="a_node16"><a xlink:href="_custom_log_8h.html" target="_top" xlink:title=" ">
<polygon fill="#ffffff" stroke="#000000" points="104,-56.5 104,-75.5 180,-75.5 180,-56.5 104,-56.5"/>
<text text-anchor="middle" x="142" y="-63.5" font-family="Arial.ttf" font-size="10.00" fill="#000000">CustomLog.h</text>
</a>
</g>
</g>
<!-- Node10&#45;&gt;Node16 -->
<g id="edge18" class="edge">
<title>Node10&#45;&gt;Node16</title>
<path fill="none" stroke="#191970" d="M256.9886,-113.0026C234.7214,-103.9007 200.045,-89.7264 174.5911,-79.3219"/>
<polygon fill="#191970" stroke="#191970" points="175.9132,-76.0813 165.3323,-75.5373 173.2646,-82.5609 175.9132,-76.0813"/>
</g>
<!-- Node17 -->
<g id="node17" class="node">
<title>Node17</title>
<g id="a_node17"><a xlink:title=" ">
<polygon fill="#ffffff" stroke="#bfbfbf" points="584.5,-56.5 584.5,-75.5 643.5,-75.5 643.5,-56.5 584.5,-56.5"/>
<text text-anchor="middle" x="614" y="-63.5" font-family="Arial.ttf" font-size="10.00" fill="#000000">functional</text>
</a>
</g>
</g>
<!-- Node10&#45;&gt;Node17 -->
<g id="edge21" class="edge">
<title>Node10&#45;&gt;Node17</title>
<path fill="none" stroke="#191970" d="M301.2397,-118.2823C356.9535,-108.969 503.112,-84.5365 574.1279,-72.6652"/>
<polygon fill="#191970" stroke="#191970" points="574.7547,-76.1091 584.0408,-71.0081 573.6005,-69.2049 574.7547,-76.1091"/>
</g>
<!-- Node14&#45;&gt;Node2 -->
<g id="edge16" class="edge">
<title>Node14&#45;&gt;Node2</title>
<path fill="none" stroke="#191970" d="M317.5864,-58.0658C314.6911,-57.3431 311.7922,-56.6424 309,-56 236.8315,-39.3973 151.2431,-23.4493 106.5859,-15.4092"/>
<polygon fill="#191970" stroke="#191970" points="107.1233,-11.9499 96.6628,-13.6318 105.889,-18.8402 107.1233,-11.9499"/>
</g>
<!-- Node15 -->
<g id="node15" class="node">
<title>Node15</title>
<g id="a_node15"><a xlink:title=" ">
<polygon fill="#ffffff" stroke="#bfbfbf" points="309,-.5 309,-19.5 359,-19.5 359,-.5 309,-.5"/>
<text text-anchor="middle" x="334" y="-7.5" font-family="Arial.ttf" font-size="10.00" fill="#000000">fstream</text>
</a>
</g>
</g>
<!-- Node14&#45;&gt;Node15 -->
<g id="edge17" class="edge">
<title>Node14&#45;&gt;Node15</title>
<path fill="none" stroke="#191970" d="M344.7356,-56.2455C343.0206,-48.8579 340.6088,-38.4689 338.5056,-29.4087"/>
<polygon fill="#191970" stroke="#191970" points="341.9092,-28.5922 336.2385,-19.6427 335.0905,-30.1751 341.9092,-28.5922"/>
</g>
<!-- Node16&#45;&gt;Node2 -->
<g id="edge20" class="edge">
<title>Node16&#45;&gt;Node2</title>
<path fill="none" stroke="#191970" d="M130.5037,-56.2455C120.7558,-47.9746 106.5741,-35.9416 95.1202,-26.2232"/>
<polygon fill="#191970" stroke="#191970" points="97.2541,-23.4437 87.3646,-19.6427 92.7253,-28.7813 97.2541,-23.4437"/>
</g>
<!-- Node16&#45;&gt;Node13 -->
<g id="edge19" class="edge">
<title>Node16&#45;&gt;Node13</title>
<path fill="none" stroke="#191970" d="M180.212,-57.8325C183.1848,-57.2085 186.1407,-56.5917 189,-56 265.3609,-40.1983 287.3763,-38.9493 367.2806,-20.039"/>
<polygon fill="#191970" stroke="#191970" points="368.4052,-23.3689 377.3196,-17.6431 366.7802,-16.5602 368.4052,-23.3689"/>
</g>
<!-- Node18&#45;&gt;Node2 -->
<g id="edge24" class="edge">
<title>Node18&#45;&gt;Node2</title>
<path fill="none" stroke="#191970" d="M70.7682,-235.4788C66.1047,-226.4109 59.6231,-212.2215 57,-199 44.8393,-137.7041 61.0915,-63.5977 70.3568,-29.2297"/>
<polygon fill="#191970" stroke="#191970" points="73.7456,-30.1078 73.0747,-19.5342 67.0054,-28.2183 73.7456,-30.1078"/>
</g>
<!-- Node18&#45;&gt;Node8 -->
<g id="edge26" class="edge">
<title>Node18&#45;&gt;Node8</title>
<path fill="none" stroke="#191970" d="M107.7188,-235.3906C144.4674,-224.2574 204.8694,-205.9583 243.251,-194.3304"/>
<polygon fill="#191970" stroke="#191970" points="244.4248,-197.6319 252.9804,-191.3828 242.3951,-190.9326 244.4248,-197.6319"/>
</g>
<!-- Node19 -->
<g id="node19" class="node">
<title>Node19</title>
<g id="a_node19"><a xlink:title=" ">
<polygon fill="#ffffff" stroke="#bfbfbf" points="136.5,-174 136.5,-193 195.5,-193 195.5,-174 136.5,-174"/>
<text text-anchor="middle" x="166" y="-181" font-family="Arial.ttf" font-size="10.00" fill="#000000">exception</text>
</a>
</g>
</g>
<!-- Node18&#45;&gt;Node19 -->
<g id="edge23" class="edge">
<title>Node18&#45;&gt;Node19</title>
<path fill="none" stroke="#191970" d="M90.0625,-235.3906C104.3286,-225.6421 126.635,-210.3994 143.3872,-198.9521"/>
<polygon fill="#191970" stroke="#191970" points="145.7545,-201.5736 152.0362,-193.0419 141.8051,-195.7941 145.7545,-201.5736"/>
</g>
<!-- Node20 -->
<g id="node20" class="node">
<title>Node20</title>
<g id="a_node20"><a xlink:title=" ">
<polygon fill="#ffffff" stroke="#bfbfbf" points="66,-174 66,-193 118,-193 118,-174 66,-174"/>
<text text-anchor="middle" x="92" y="-181" font-family="Arial.ttf" font-size="10.00" fill="#000000">sstream</text>
</a>
</g>
</g>
<!-- Node18&#45;&gt;Node20 -->
<g id="edge25" class="edge">
<title>Node18&#45;&gt;Node20</title>
<path fill="none" stroke="#191970" d="M78.5,-235.3906C80.7412,-226.776 84.0986,-213.8708 86.9045,-203.0858"/>
<polygon fill="#191970" stroke="#191970" points="90.3341,-203.804 89.4648,-193.2449 83.5596,-202.0414 90.3341,-203.804"/>
</g>
<!-- Node22 -->
<g id="node22" class="node">
<title>Node22</title>
<g id="a_node22"><a xlink:href="_s_e_n_s_calibration_estimator_params_8h.html" target="_top" xlink:title=" ">
<polygon fill="#ffffff" stroke="#000000" points="565,-168.5 565,-198.5 699,-198.5 699,-168.5 565,-168.5"/>
<text text-anchor="start" x="573" y="-186.5" font-family="Arial.ttf" font-size="10.00" fill="#000000">SENSCalibrationEstimator</text>
<text text-anchor="middle" x="632" y="-175.5" font-family="Arial.ttf" font-size="10.00" fill="#000000">Params.h</text>
</a>
</g>
</g>
<!-- Node21&#45;&gt;Node22 -->
<g id="edge28" class="edge">
<title>Node21&#45;&gt;Node22</title>
<path fill="none" stroke="#191970" d="M616.8125,-235.3906C618.9328,-228.1463 621.9411,-217.8679 624.7217,-208.3676"/>
<polygon fill="#191970" stroke="#191970" points="628.1467,-209.1251 627.5967,-198.5446 621.4286,-207.1588 628.1467,-209.1251"/>
</g>
<!-- Node23 -->
<g id="node23" class="node">
<title>Node23</title>
<g id="a_node23"><a xlink:title=" ">
<polygon fill="#ffffff" stroke="#bfbfbf" points="578,-112.5 578,-131.5 686,-131.5 686,-112.5 578,-112.5"/>
<text text-anchor="middle" x="632" y="-119.5" font-family="Arial.ttf" font-size="10.00" fill="#000000">opencv2/calib3d.hpp</text>
</a>
</g>
</g>
<!-- Node22&#45;&gt;Node23 -->
<g id="edge29" class="edge">
<title>Node22&#45;&gt;Node23</title>
<path fill="none" stroke="#191970" d="M632,-168.2977C632,-160.3834 632,-150.6043 632,-142.0759"/>
<polygon fill="#191970" stroke="#191970" points="635.5001,-141.8469 632,-131.8469 628.5001,-141.847 635.5001,-141.8469"/>
</g>
<!-- Node27 -->
<g id="node27" class="node">
<title>Node27</title>
<g id="a_node27"><a xlink:title=" ">
<polygon fill="#ffffff" stroke="#bfbfbf" points="437.5,-174 437.5,-193 546.5,-193 546.5,-174 437.5,-174"/>
<text text-anchor="middle" x="492" y="-181" font-family="Arial.ttf" font-size="10.00" fill="#000000">opencv2/opencv.hpp</text>
</a>
</g>
</g>
<!-- Node26&#45;&gt;Node27 -->
<g id="edge35" class="edge">
<title>Node26&#45;&gt;Node27</title>
<path fill="none" stroke="#191970" d="M507.1875,-235.3906C504.6661,-226.776 500.889,-213.8708 497.7324,-203.0858"/>
<polygon fill="#191970" stroke="#191970" points="501.0203,-201.8591 494.8522,-193.2449 494.3021,-203.8254 501.0203,-201.8591"/>
</g>
<!-- Node28&#45;&gt;Node4 -->
<g id="edge39" class="edge">
<title>Node28&#45;&gt;Node4</title>
<path fill="none" stroke="#191970" d="M740.9063,-235.3906C755.0138,-225.6421 777.0724,-210.3994 793.6385,-198.9521"/>
<polygon fill="#191970" stroke="#191970" points="795.9542,-201.6063 802.1914,-193.0419 791.9747,-195.8474 795.9542,-201.6063"/>
</g>
<!-- Node28&#45;&gt;Node9 -->
<g id="edge37" class="edge">
<title>Node28&#45;&gt;Node9</title>
<path fill="none" stroke="#191970" d="M727.7017,-235.3202C728.3142,-218.8946 726.9504,-185.6339 708,-168 691.0234,-152.2027 542.2266,-133.5564 473.9631,-125.7408"/>
<polygon fill="#191970" stroke="#191970" points="474.0618,-122.2297 463.7313,-124.5815 473.2736,-129.1852 474.0618,-122.2297"/>
</g>
<!-- Node28&#45;&gt;Node17 -->
<g id="edge38" class="edge">
<title>Node28&#45;&gt;Node17</title>
<path fill="none" stroke="#191970" d="M729.2897,-235.2848C732.3643,-220.4492 736.7124,-191.4048 730,-168 721.9087,-139.7872 716.1861,-132.3121 695,-112 681.176,-98.7463 662.8087,-87.9112 647.0596,-80.0932"/>
<polygon fill="#191970" stroke="#191970" points="648.1899,-76.7551 637.656,-75.6206 645.1833,-83.0765 648.1899,-76.7551"/>
</g>
</g>
</svg>
