<?xml version="1.0" encoding="UTF-8" standalone="no"?>
<!DOCTYPE svg PUBLIC "-//W3C//DTD SVG 1.1//EN"
 "http://www.w3.org/Graphics/SVG/1.1/DTD/svg11.dtd">
<!-- Generated by graphviz version 2.40.1 (20161225.0304)
 -->
<!-- Title: SENSSimClock.h Pages: 1 -->
<svg width="422pt" height="252pt"
 viewBox="0.00 0.00 421.50 252.00" xmlns="http://www.w3.org/2000/svg" xmlns:xlink="http://www.w3.org/1999/xlink">
<g id="graph0" class="graph" transform="scale(1 1) rotate(0) translate(4 248)">
<title>SENSSimClock.h</title>
<polygon fill="#ffffff" stroke="transparent" points="-4,4 -4,-248 417.5,-248 417.5,4 -4,4"/>
<!-- Node1 -->
<g id="node1" class="node">
<title>Node1</title>
<g id="a_node1"><a xlink:title=" ">
<polygon fill="#bfbfbf" stroke="#000000" points="38,-224.5 38,-243.5 132,-243.5 132,-224.5 38,-224.5"/>
<text text-anchor="middle" x="85" y="-231.5" font-family="Arial.ttf" font-size="10.00" fill="#000000">SENSSimClock.h</text>
</a>
</g>
</g>
<!-- Node2 -->
<g id="node2" class="node">
<title>Node2</title>
<g id="a_node2"><a xlink:title=" ">
<polygon fill="#ffffff" stroke="#bfbfbf" points="0,-168.5 0,-187.5 44,-187.5 44,-168.5 0,-168.5"/>
<text text-anchor="middle" x="22" y="-175.5" font-family="Arial.ttf" font-size="10.00" fill="#000000">mutex</text>
</a>
</g>
</g>
<!-- Node1&#45;&gt;Node2 -->
<g id="edge1" class="edge">
<title>Node1&#45;&gt;Node2</title>
<path fill="none" stroke="#191970" d="M74.0262,-224.2455C64.8118,-216.0549 51.4468,-204.1749 40.5703,-194.5069"/>
<polygon fill="#191970" stroke="#191970" points="42.6474,-191.6704 32.848,-187.6427 37.9968,-196.9023 42.6474,-191.6704"/>
</g>
<!-- Node3 -->
<g id="node3" class="node">
<title>Node3</title>
<g id="a_node3"><a xlink:title=" ">
<polygon fill="#ffffff" stroke="#bfbfbf" points="62,-168.5 62,-187.5 108,-187.5 108,-168.5 62,-168.5"/>
<text text-anchor="middle" x="85" y="-175.5" font-family="Arial.ttf" font-size="10.00" fill="#000000">atomic</text>
</a>
</g>
</g>
<!-- Node1&#45;&gt;Node3 -->
<g id="edge2" class="edge">
<title>Node1&#45;&gt;Node3</title>
<path fill="none" stroke="#191970" d="M85,-224.2455C85,-216.9382 85,-206.6944 85,-197.7046"/>
<polygon fill="#191970" stroke="#191970" points="88.5001,-197.6426 85,-187.6427 81.5001,-197.6427 88.5001,-197.6426"/>
</g>
<!-- Node4 -->
<g id="node4" class="node">
<title>Node4</title>
<g id="a_node4"><a xlink:href="_s_e_n_s_8h.html" target="_top" xlink:title=" ">
<polygon fill="#ffffff" stroke="#000000" points="126,-168.5 126,-187.5 178,-187.5 178,-168.5 126,-168.5"/>
<text text-anchor="middle" x="152" y="-175.5" font-family="Arial.ttf" font-size="10.00" fill="#000000">SENS.h</text>
</a>
</g>
</g>
<!-- Node1&#45;&gt;Node4 -->
<g id="edge3" class="edge">
<title>Node1&#45;&gt;Node4</title>
<path fill="none" stroke="#191970" d="M96.6705,-224.2455C106.5661,-215.9746 120.9627,-203.9416 132.5901,-194.2232"/>
<polygon fill="#191970" stroke="#191970" points="135.035,-196.7413 140.4632,-187.6427 130.5458,-191.3703 135.035,-196.7413"/>
</g>
<!-- Node5 -->
<g id="node5" class="node">
<title>Node5</title>
<g id="a_node5"><a xlink:title=" ">
<polygon fill="#ffffff" stroke="#bfbfbf" points="96.5,-112.5 96.5,-131.5 143.5,-131.5 143.5,-112.5 96.5,-112.5"/>
<text text-anchor="middle" x="120" y="-119.5" font-family="Arial.ttf" font-size="10.00" fill="#000000">chrono</text>
</a>
</g>
</g>
<!-- Node4&#45;&gt;Node5 -->
<g id="edge4" class="edge">
<title>Node4&#45;&gt;Node5</title>
<path fill="none" stroke="#191970" d="M146.426,-168.2455C142.0669,-160.617 135.8789,-149.7881 130.5867,-140.5267"/>
<polygon fill="#191970" stroke="#191970" points="133.5104,-138.5886 125.5101,-131.6427 127.4327,-142.0616 133.5104,-138.5886"/>
</g>
<!-- Node6 -->
<g id="node6" class="node">
<title>Node6</title>
<g id="a_node6"><a xlink:href="_utils_8h.html" target="_top" xlink:title=" ">
<polygon fill="#ffffff" stroke="#000000" points="162,-112.5 162,-131.5 206,-131.5 206,-112.5 162,-112.5"/>
<text text-anchor="middle" x="184" y="-119.5" font-family="Arial.ttf" font-size="10.00" fill="#000000">Utils.h</text>
</a>
</g>
</g>
<!-- Node4&#45;&gt;Node6 -->
<g id="edge5" class="edge">
<title>Node4&#45;&gt;Node6</title>
<path fill="none" stroke="#191970" d="M157.574,-168.2455C161.9331,-160.617 168.1211,-149.7881 173.4133,-140.5267"/>
<polygon fill="#191970" stroke="#191970" points="176.5673,-142.0616 178.4899,-131.6427 170.4896,-138.5886 176.5673,-142.0616"/>
</g>
<!-- Node7 -->
<g id="node7" class="node">
<title>Node7</title>
<g id="a_node7"><a xlink:title=" ">
<polygon fill="#ffffff" stroke="#bfbfbf" points="225.5,-.5 225.5,-19.5 266.5,-19.5 266.5,-.5 225.5,-.5"/>
<text text-anchor="middle" x="246" y="-7.5" font-family="Arial.ttf" font-size="10.00" fill="#000000">string</text>
</a>
</g>
</g>
<!-- Node6&#45;&gt;Node7 -->
<g id="edge6" class="edge">
<title>Node6&#45;&gt;Node7</title>
<path fill="none" stroke="#191970" d="M197.634,-112.2218C208.3334,-103.819 222.7536,-90.7491 231,-76 238.9744,-61.7374 242.7115,-43.4947 244.4616,-29.8047"/>
<polygon fill="#191970" stroke="#191970" points="247.9734,-29.8685 245.5138,-19.5631 241.01,-29.153 247.9734,-29.8685"/>
</g>
<!-- Node8 -->
<g id="node8" class="node">
<title>Node8</title>
<g id="a_node8"><a xlink:title=" ">
<polygon fill="#ffffff" stroke="#bfbfbf" points="26,-56.5 26,-75.5 70,-75.5 70,-56.5 26,-56.5"/>
<text text-anchor="middle" x="48" y="-63.5" font-family="Arial.ttf" font-size="10.00" fill="#000000">vector</text>
</a>
</g>
</g>
<!-- Node6&#45;&gt;Node8 -->
<g id="edge7" class="edge">
<title>Node6&#45;&gt;Node8</title>
<path fill="none" stroke="#191970" d="M161.8466,-112.878C139.5202,-103.6848 104.8516,-89.4095 79.6352,-79.0263"/>
<polygon fill="#191970" stroke="#191970" points="80.7234,-75.6893 70.144,-75.1181 78.0581,-82.162 80.7234,-75.6893"/>
</g>
<!-- Node9 -->
<g id="node9" class="node">
<title>Node9</title>
<g id="a_node9"><a xlink:title=" ">
<polygon fill="#ffffff" stroke="#bfbfbf" points="88,-56.5 88,-75.5 128,-75.5 128,-56.5 88,-56.5"/>
<text text-anchor="middle" x="108" y="-63.5" font-family="Arial.ttf" font-size="10.00" fill="#000000">cfloat</text>
</a>
</g>
</g>
<!-- Node6&#45;&gt;Node9 -->
<g id="edge8" class="edge">
<title>Node6&#45;&gt;Node9</title>
<path fill="none" stroke="#191970" d="M170.7618,-112.2455C159.319,-103.814 142.5704,-91.4729 129.2525,-81.6598"/>
<polygon fill="#191970" stroke="#191970" points="131.2133,-78.757 121.0865,-75.6427 127.0609,-84.3924 131.2133,-78.757"/>
</g>
<!-- Node10 -->
<g id="node10" class="node">
<title>Node10</title>
<g id="a_node10"><a xlink:title=" ">
<polygon fill="#ffffff" stroke="#bfbfbf" points="64.5,-.5 64.5,-19.5 117.5,-19.5 117.5,-.5 64.5,-.5"/>
<text text-anchor="middle" x="91" y="-7.5" font-family="Arial.ttf" font-size="10.00" fill="#000000">memory</text>
</a>
</g>
</g>
<!-- Node6&#45;&gt;Node10 -->
<g id="edge9" class="edge">
<title>Node6&#45;&gt;Node10</title>
<path fill="none" stroke="#191970" d="M161.6929,-114.6474C158.7761,-113.7321 155.8217,-112.8279 153,-112 93.0031,-94.3959 55.1386,-125.5477 17,-76 1.1954,-55.4675 29.5564,-36.2639 55.6119,-23.9243"/>
<polygon fill="#191970" stroke="#191970" points="57.3323,-26.9885 65.0209,-19.699 54.4647,-20.6028 57.3323,-26.9885"/>
</g>
<!-- Node11 -->
<g id="node11" class="node">
<title>Node11</title>
<g id="a_node11"><a xlink:href="_file_log_8h.html" target="_top" xlink:title=" ">
<polygon fill="#ffffff" stroke="#000000" points="278,-56.5 278,-75.5 336,-75.5 336,-56.5 278,-56.5"/>
<text text-anchor="middle" x="307" y="-63.5" font-family="Arial.ttf" font-size="10.00" fill="#000000">FileLog.h</text>
</a>
</g>
</g>
<!-- Node6&#45;&gt;Node11 -->
<g id="edge10" class="edge">
<title>Node6&#45;&gt;Node11</title>
<path fill="none" stroke="#191970" d="M205.1445,-112.3733C224.8892,-103.3838 254.5698,-89.8706 276.8055,-79.7471"/>
<polygon fill="#191970" stroke="#191970" points="278.4806,-82.8302 286.1315,-75.5011 275.58,-76.4594 278.4806,-82.8302"/>
</g>
<!-- Node13 -->
<g id="node13" class="node">
<title>Node13</title>
<g id="a_node13"><a xlink:href="_custom_log_8h.html" target="_top" xlink:title=" ">
<polygon fill="#ffffff" stroke="#000000" points="146,-56.5 146,-75.5 222,-75.5 222,-56.5 146,-56.5"/>
<text text-anchor="middle" x="184" y="-63.5" font-family="Arial.ttf" font-size="10.00" fill="#000000">CustomLog.h</text>
</a>
</g>
</g>
<!-- Node6&#45;&gt;Node13 -->
<g id="edge13" class="edge">
<title>Node6&#45;&gt;Node13</title>
<path fill="none" stroke="#191970" d="M184,-112.2455C184,-104.9382 184,-94.6944 184,-85.7046"/>
<polygon fill="#191970" stroke="#191970" points="187.5001,-85.6426 184,-75.6427 180.5001,-85.6427 187.5001,-85.6426"/>
</g>
<!-- Node14 -->
<g id="node14" class="node">
<title>Node14</title>
<g id="a_node14"><a xlink:title=" ">
<polygon fill="#ffffff" stroke="#bfbfbf" points="354.5,-56.5 354.5,-75.5 413.5,-75.5 413.5,-56.5 354.5,-56.5"/>
<text text-anchor="middle" x="384" y="-63.5" font-family="Arial.ttf" font-size="10.00" fill="#000000">functional</text>
</a>
</g>
</g>
<!-- Node6&#45;&gt;Node14 -->
<g id="edge16" class="edge">
<title>Node6&#45;&gt;Node14</title>
<path fill="none" stroke="#191970" d="M206.1677,-115.7931C239.5224,-106.4537 303.1109,-88.6489 344.5157,-77.0556"/>
<polygon fill="#191970" stroke="#191970" points="345.5897,-80.3896 354.2756,-74.3228 343.7023,-73.6488 345.5897,-80.3896"/>
</g>
<!-- Node11&#45;&gt;Node7 -->
<g id="edge11" class="edge">
<title>Node11&#45;&gt;Node7</title>
<path fill="none" stroke="#191970" d="M296.3746,-56.2455C287.4527,-48.0549 274.512,-36.1749 263.9808,-26.5069"/>
<polygon fill="#191970" stroke="#191970" points="266.2371,-23.8271 256.5036,-19.6427 261.5032,-28.9837 266.2371,-23.8271"/>
</g>
<!-- Node12 -->
<g id="node12" class="node">
<title>Node12</title>
<g id="a_node12"><a xlink:title=" ">
<polygon fill="#ffffff" stroke="#bfbfbf" points="285,-.5 285,-19.5 335,-19.5 335,-.5 285,-.5"/>
<text text-anchor="middle" x="310" y="-7.5" font-family="Arial.ttf" font-size="10.00" fill="#000000">fstream</text>
</a>
</g>
</g>
<!-- Node11&#45;&gt;Node12 -->
<g id="edge12" class="edge">
<title>Node11&#45;&gt;Node12</title>
<path fill="none" stroke="#191970" d="M307.5226,-56.2455C307.914,-48.9382 308.4628,-38.6944 308.9444,-29.7046"/>
<polygon fill="#191970" stroke="#191970" points="312.4434,-29.8156 309.4834,-19.6427 305.4534,-29.4411 312.4434,-29.8156"/>
</g>
<!-- Node13&#45;&gt;Node7 -->
<g id="edge15" class="edge">
<title>Node13&#45;&gt;Node7</title>
<path fill="none" stroke="#191970" d="M194.7996,-56.2455C203.8678,-48.0549 217.0206,-36.1749 227.7245,-26.5069"/>
<polygon fill="#191970" stroke="#191970" points="230.2491,-28.9429 235.3242,-19.6427 225.5571,-23.7482 230.2491,-28.9429"/>
</g>
<!-- Node13&#45;&gt;Node10 -->
<g id="edge14" class="edge">
<title>Node13&#45;&gt;Node10</title>
<path fill="none" stroke="#191970" d="M167.8006,-56.2455C153.3982,-47.5731 132.1268,-34.7645 115.6201,-24.825"/>
<polygon fill="#191970" stroke="#191970" points="117.386,-21.8028 107.0137,-19.6427 113.775,-27.7996 117.386,-21.8028"/>
</g>
</g>
</svg>
