<?xml version="1.0" encoding="UTF-8" standalone="no"?>
<!DOCTYPE svg PUBLIC "-//W3C//DTD SVG 1.1//EN"
 "http://www.w3.org/Graphics/SVG/1.1/DTD/svg11.dtd">
<!-- Generated by graphviz version 2.40.1 (20161225.0304)
 -->
<!-- Title: SENSCamera.h Pages: 1 -->
<svg width="1114pt" height="252pt"
 viewBox="0.00 0.00 1114.00 252.00" xmlns="http://www.w3.org/2000/svg" xmlns:xlink="http://www.w3.org/1999/xlink">
<g id="graph0" class="graph" transform="scale(1 1) rotate(0) translate(4 248)">
<title>SENSCamera.h</title>
<polygon fill="#ffffff" stroke="transparent" points="-4,4 -4,-248 1110,-248 1110,4 -4,4"/>
<!-- Node1 -->
<g id="node1" class="node">
<title>Node1</title>
<g id="a_node1"><a xlink:title=" ">
<polygon fill="#bfbfbf" stroke="#000000" points="468,-224.5 468,-243.5 556,-243.5 556,-224.5 468,-224.5"/>
<text text-anchor="middle" x="512" y="-231.5" font-family="Arial.ttf" font-size="10.00" fill="#000000">SENSCamera.h</text>
</a>
</g>
</g>
<!-- Node2 -->
<g id="node2" class="node">
<title>Node2</title>
<g id="a_node2"><a xlink:href="_s_e_n_s_ndk_camera_8h.html" target="_top" xlink:title=" ">
<polygon fill="#ffffff" stroke="#000000" points="10.5,-168.5 10.5,-187.5 115.5,-187.5 115.5,-168.5 10.5,-168.5"/>
<text text-anchor="middle" x="63" y="-175.5" font-family="Arial.ttf" font-size="10.00" fill="#000000">SENSNdkCamera.h</text>
</a>
</g>
</g>
<!-- Node1&#45;&gt;Node2 -->
<g id="edge1" class="edge">
<title>Node1&#45;&gt;Node2</title>
<path fill="none" stroke="#191970" d="M457.8104,-228.0862C383.3811,-219.8318 245.3819,-204.0555 128,-188 124.0407,-187.4585 119.9491,-186.8781 115.8353,-186.2796"/>
<polygon fill="#191970" stroke="#191970" points="457.5579,-231.5795 467.8821,-229.2002 458.3275,-224.622 457.5579,-231.5795"/>
</g>
<!-- Node4 -->
<g id="node4" class="node">
<title>Node4</title>
<g id="a_node4"><a xlink:href="_s_e_n_s_web_camera_8h.html" target="_top" xlink:title=" ">
<polygon fill="#ffffff" stroke="#000000" points="137,-168.5 137,-187.5 245,-187.5 245,-168.5 137,-168.5"/>
<text text-anchor="middle" x="191" y="-175.5" font-family="Arial.ttf" font-size="10.00" fill="#000000">SENSWebCamera.h</text>
</a>
</g>
</g>
<!-- Node1&#45;&gt;Node4 -->
<g id="edge3" class="edge">
<title>Node1&#45;&gt;Node4</title>
<path fill="none" stroke="#191970" d="M457.7863,-224.5422C398.5358,-214.2056 304.1793,-197.7447 245.0096,-187.4222"/>
<polygon fill="#191970" stroke="#191970" points="457.2506,-228.0015 467.7033,-226.2722 458.4537,-221.1056 457.2506,-228.0015"/>
</g>
<!-- Node6 -->
<g id="node6" class="node">
<title>Node6</title>
<g id="a_node6"><a xlink:href="_s_e_n_si_o_s_camera_8h.html" target="_top" xlink:title=" ">
<polygon fill="#ffffff" stroke="#000000" points="297,-112.5 297,-131.5 401,-131.5 401,-112.5 297,-112.5"/>
<text text-anchor="middle" x="349" y="-119.5" font-family="Arial.ttf" font-size="10.00" fill="#000000">SENSiOSCamera.h</text>
</a>
</g>
</g>
<!-- Node1&#45;&gt;Node6 -->
<g id="edge5" class="edge">
<title>Node1&#45;&gt;Node6</title>
<path fill="none" stroke="#191970" d="M457.6468,-230.3088C399.3883,-225.087 312.4854,-213.2117 292,-188 275.3874,-167.5547 307.6902,-144.4118 330.0885,-131.6837"/>
<polygon fill="#191970" stroke="#191970" points="457.5481,-233.813 467.8102,-231.1788 458.1452,-226.8385 457.5481,-233.813"/>
</g>
<!-- Node7 -->
<g id="node7" class="node">
<title>Node7</title>
<g id="a_node7"><a xlink:href="_s_e_n_si_o_s_camera_delegate_8h.html" target="_top" xlink:title=" ">
<polygon fill="#ffffff" stroke="#000000" points="301,-168.5 301,-187.5 445,-187.5 445,-168.5 301,-168.5"/>
<text text-anchor="middle" x="373" y="-175.5" font-family="Arial.ttf" font-size="10.00" fill="#000000">SENSiOSCameraDelegate.h</text>
</a>
</g>
</g>
<!-- Node1&#45;&gt;Node7 -->
<g id="edge6" class="edge">
<title>Node1&#45;&gt;Node7</title>
<path fill="none" stroke="#191970" d="M478.5379,-220.5189C453.2231,-210.3201 419.0897,-196.5685 396.5831,-187.5011"/>
<polygon fill="#191970" stroke="#191970" points="477.5216,-223.8827 488.105,-224.3733 480.1374,-217.3899 477.5216,-223.8827"/>
</g>
<!-- Node8 -->
<g id="node8" class="node">
<title>Node8</title>
<g id="a_node8"><a xlink:href="_s_e_n_s_camera_8cpp.html" target="_top" xlink:title=" ">
<polygon fill="#ffffff" stroke="#000000" points="463,-168.5 463,-187.5 561,-187.5 561,-168.5 463,-168.5"/>
<text text-anchor="middle" x="512" y="-175.5" font-family="Arial.ttf" font-size="10.00" fill="#000000">SENSCamera.cpp</text>
</a>
</g>
</g>
<!-- Node1&#45;&gt;Node8 -->
<g id="edge8" class="edge">
<title>Node1&#45;&gt;Node8</title>
<path fill="none" stroke="#191970" d="M512,-214.1575C512,-205.155 512,-194.9199 512,-187.6427"/>
<polygon fill="#191970" stroke="#191970" points="508.5001,-214.2455 512,-224.2455 515.5001,-214.2456 508.5001,-214.2455"/>
</g>
<!-- Node9 -->
<g id="node9" class="node">
<title>Node9</title>
<g id="a_node9"><a xlink:href="_s_e_n_s_cv_camera_8h.html" target="_top" xlink:title=" ">
<polygon fill="#ffffff" stroke="#000000" points="579,-168.5 579,-187.5 679,-187.5 679,-168.5 579,-168.5"/>
<text text-anchor="middle" x="629" y="-175.5" font-family="Arial.ttf" font-size="10.00" fill="#000000">SENSCvCamera.h</text>
</a>
</g>
</g>
<!-- Node1&#45;&gt;Node9 -->
<g id="edge9" class="edge">
<title>Node1&#45;&gt;Node9</title>
<path fill="none" stroke="#191970" d="M541.3042,-219.9741C562.488,-209.8348 590.5403,-196.408 609.1494,-187.5011"/>
<polygon fill="#191970" stroke="#191970" points="539.622,-216.8989 532.113,-224.3733 542.6441,-223.2129 539.622,-216.8989"/>
</g>
<!-- Node11 -->
<g id="node11" class="node">
<title>Node11</title>
<g id="a_node11"><a xlink:href="_s_e_n_s_recorder_data_handler_8h.html" target="_top" xlink:title=" ">
<polygon fill="#ffffff" stroke="#000000" points="697.5,-168.5 697.5,-187.5 846.5,-187.5 846.5,-168.5 697.5,-168.5"/>
<text text-anchor="middle" x="772" y="-175.5" font-family="Arial.ttf" font-size="10.00" fill="#000000">SENSRecorderDataHandler.h</text>
</a>
</g>
</g>
<!-- Node1&#45;&gt;Node11 -->
<g id="edge11" class="edge">
<title>Node1&#45;&gt;Node11</title>
<path fill="none" stroke="#191970" d="M565.985,-222.3725C613.8689,-212.059 682.9635,-197.1771 727.6782,-187.5462"/>
<polygon fill="#191970" stroke="#191970" points="565.1443,-218.9732 556.1055,-224.5004 566.6182,-225.8163 565.1443,-218.9732"/>
</g>
<!-- Node17 -->
<g id="node17" class="node">
<title>Node17</title>
<g id="a_node17"><a xlink:href="_s_e_n_s_simulated_8h.html" target="_top" xlink:title=" ">
<polygon fill="#ffffff" stroke="#000000" points="870.5,-168.5 870.5,-187.5 967.5,-187.5 967.5,-168.5 870.5,-168.5"/>
<text text-anchor="middle" x="919" y="-175.5" font-family="Arial.ttf" font-size="10.00" fill="#000000">SENSSimulated.h</text>
</a>
</g>
</g>
<!-- Node1&#45;&gt;Node17 -->
<g id="edge17" class="edge">
<title>Node1&#45;&gt;Node17</title>
<path fill="none" stroke="#191970" d="M566.1717,-227.1037C633.8175,-218.4072 753.0591,-202.798 855,-188 860.0082,-187.273 865.2332,-186.4926 870.4441,-185.7"/>
<polygon fill="#191970" stroke="#191970" points="565.6442,-223.6426 556.1712,-228.3873 566.5355,-230.5856 565.6442,-223.6426"/>
</g>
<!-- Node21 -->
<g id="node21" class="node">
<title>Node21</title>
<g id="a_node21"><a xlink:href="_s_e_n_s_video_stream_8cpp.html" target="_top" xlink:title=" ">
<polygon fill="#ffffff" stroke="#000000" points="986,-168.5 986,-187.5 1106,-187.5 1106,-168.5 986,-168.5"/>
<text text-anchor="middle" x="1046" y="-175.5" font-family="Arial.ttf" font-size="10.00" fill="#000000">SENSVideoStream.cpp</text>
</a>
</g>
</g>
<!-- Node1&#45;&gt;Node21 -->
<g id="edge22" class="edge">
<title>Node1&#45;&gt;Node21</title>
<path fill="none" stroke="#191970" d="M566.4674,-229.418C653.3971,-221.9238 828.8137,-206.0584 977,-188 979.8837,-187.6486 982.8332,-187.2752 985.8107,-186.887"/>
<polygon fill="#191970" stroke="#191970" points="565.9765,-225.9472 556.3127,-230.29 566.5755,-232.9215 565.9765,-225.9472"/>
</g>
<!-- Node3 -->
<g id="node3" class="node">
<title>Node3</title>
<g id="a_node3"><a xlink:href="_s_e_n_s_ndk_camera_8cpp.html" target="_top" xlink:title=" ">
<polygon fill="#ffffff" stroke="#000000" points="0,-112.5 0,-131.5 116,-131.5 116,-112.5 0,-112.5"/>
<text text-anchor="middle" x="58" y="-119.5" font-family="Arial.ttf" font-size="10.00" fill="#000000">SENSNdkCamera.cpp</text>
</a>
</g>
</g>
<!-- Node2&#45;&gt;Node3 -->
<g id="edge2" class="edge">
<title>Node2&#45;&gt;Node3</title>
<path fill="none" stroke="#191970" d="M61.2283,-158.1575C60.4246,-149.155 59.5107,-138.9199 58.861,-131.6427"/>
<polygon fill="#191970" stroke="#191970" points="57.7535,-158.5965 62.1291,-168.2455 64.7258,-157.9739 57.7535,-158.5965"/>
</g>
<!-- Node5 -->
<g id="node5" class="node">
<title>Node5</title>
<g id="a_node5"><a xlink:href="_s_e_n_s_web_camera_8cpp.html" target="_top" xlink:title=" ">
<polygon fill="#ffffff" stroke="#000000" points="134.5,-112.5 134.5,-131.5 253.5,-131.5 253.5,-112.5 134.5,-112.5"/>
<text text-anchor="middle" x="194" y="-119.5" font-family="Arial.ttf" font-size="10.00" fill="#000000">SENSWebCamera.cpp</text>
</a>
</g>
</g>
<!-- Node4&#45;&gt;Node5 -->
<g id="edge4" class="edge">
<title>Node4&#45;&gt;Node5</title>
<path fill="none" stroke="#191970" d="M192.063,-158.1575C192.5453,-149.155 193.0936,-138.9199 193.4834,-131.6427"/>
<polygon fill="#191970" stroke="#191970" points="188.5626,-158.0726 191.5226,-168.2455 195.5526,-158.4471 188.5626,-158.0726"/>
</g>
<!-- Node7&#45;&gt;Node6 -->
<g id="edge7" class="edge">
<title>Node7&#45;&gt;Node6</title>
<path fill="none" stroke="#191970" d="M364.8759,-159.0437C360.9285,-149.8331 356.3542,-139.1598 353.1326,-131.6427"/>
<polygon fill="#191970" stroke="#191970" points="361.6633,-160.4328 368.8195,-168.2455 368.0973,-157.6753 361.6633,-160.4328"/>
</g>
<!-- Node10 -->
<g id="node10" class="node">
<title>Node10</title>
<g id="a_node10"><a xlink:href="_s_e_n_s_cv_camera_8cpp.html" target="_top" xlink:title=" ">
<polygon fill="#ffffff" stroke="#000000" points="452,-112.5 452,-131.5 562,-131.5 562,-112.5 452,-112.5"/>
<text text-anchor="middle" x="507" y="-119.5" font-family="Arial.ttf" font-size="10.00" fill="#000000">SENSCvCamera.cpp</text>
</a>
</g>
</g>
<!-- Node9&#45;&gt;Node10 -->
<g id="edge10" class="edge">
<title>Node9&#45;&gt;Node10</title>
<path fill="none" stroke="#191970" d="M598.7416,-164.1109C576.6181,-153.9559 547.1906,-140.4482 527.6989,-131.5011"/>
<polygon fill="#191970" stroke="#191970" points="597.479,-167.3824 608.0275,-168.3733 600.3993,-161.0206 597.479,-167.3824"/>
</g>
<!-- Node12 -->
<g id="node12" class="node">
<title>Node12</title>
<g id="a_node12"><a xlink:href="_s_e_n_s_recorder_8h.html" target="_top" xlink:title=" ">
<polygon fill="#ffffff" stroke="#000000" points="580.5,-112.5 580.5,-131.5 673.5,-131.5 673.5,-112.5 580.5,-112.5"/>
<text text-anchor="middle" x="627" y="-119.5" font-family="Arial.ttf" font-size="10.00" fill="#000000">SENSRecorder.h</text>
</a>
</g>
</g>
<!-- Node11&#45;&gt;Node12 -->
<g id="edge12" class="edge">
<title>Node11&#45;&gt;Node12</title>
<path fill="none" stroke="#191970" d="M737.4435,-164.6541C711.0014,-154.4419 675.1831,-140.6086 651.6011,-131.5011"/>
<polygon fill="#191970" stroke="#191970" points="736.4842,-168.0354 747.0736,-168.3733 739.0061,-161.5055 736.4842,-168.0354"/>
</g>
<!-- Node16 -->
<g id="node16" class="node">
<title>Node16</title>
<g id="a_node16"><a xlink:href="_s_e_n_s_recorder_data_handler_8cpp.html" target="_top" xlink:title=" ">
<polygon fill="#ffffff" stroke="#000000" points="692,-112.5 692,-131.5 852,-131.5 852,-112.5 692,-112.5"/>
<text text-anchor="middle" x="772" y="-119.5" font-family="Arial.ttf" font-size="10.00" fill="#000000">SENSRecorderDataHandler.cpp</text>
</a>
</g>
</g>
<!-- Node11&#45;&gt;Node16 -->
<g id="edge16" class="edge">
<title>Node11&#45;&gt;Node16</title>
<path fill="none" stroke="#191970" d="M772,-158.1575C772,-149.155 772,-138.9199 772,-131.6427"/>
<polygon fill="#191970" stroke="#191970" points="768.5001,-158.2455 772,-168.2455 775.5001,-158.2456 768.5001,-158.2455"/>
</g>
<!-- Node13 -->
<g id="node13" class="node">
<title>Node13</title>
<g id="a_node13"><a xlink:href="_s_e_n_s_recorder_8cpp.html" target="_top" xlink:title=" ">
<polygon fill="#ffffff" stroke="#000000" points="575,-56.5 575,-75.5 679,-75.5 679,-56.5 575,-56.5"/>
<text text-anchor="middle" x="627" y="-63.5" font-family="Arial.ttf" font-size="10.00" fill="#000000">SENSRecorder.cpp</text>
</a>
</g>
</g>
<!-- Node12&#45;&gt;Node13 -->
<g id="edge13" class="edge">
<title>Node12&#45;&gt;Node13</title>
<path fill="none" stroke="#191970" d="M627,-102.1575C627,-93.155 627,-82.9199 627,-75.6427"/>
<polygon fill="#191970" stroke="#191970" points="623.5001,-102.2455 627,-112.2455 630.5001,-102.2456 623.5001,-102.2455"/>
</g>
<!-- Node14 -->
<g id="node14" class="node">
<title>Node14</title>
<g id="a_node14"><a xlink:href="_s_e_n_s_sim_helper_8h.html" target="_top" xlink:title=" ">
<polygon fill="#ffffff" stroke="#000000" points="785.5,-56.5 785.5,-75.5 884.5,-75.5 884.5,-56.5 785.5,-56.5"/>
<text text-anchor="middle" x="835" y="-63.5" font-family="Arial.ttf" font-size="10.00" fill="#000000">SENSSimHelper.h</text>
</a>
</g>
</g>
<!-- Node12&#45;&gt;Node14 -->
<g id="edge14" class="edge">
<title>Node12&#45;&gt;Node14</title>
<path fill="none" stroke="#191970" d="M672.6118,-109.7199C710.8582,-99.4228 764.69,-84.9296 799.7101,-75.5011"/>
<polygon fill="#191970" stroke="#191970" points="671.5027,-106.3938 662.7565,-112.3733 673.3226,-113.1531 671.5027,-106.3938"/>
</g>
<!-- Node15 -->
<g id="node15" class="node">
<title>Node15</title>
<g id="a_node15"><a xlink:href="_s_e_n_s_sim_helper_8cpp.html" target="_top" xlink:title=" ">
<polygon fill="#ffffff" stroke="#000000" points="780.5,-.5 780.5,-19.5 889.5,-19.5 889.5,-.5 780.5,-.5"/>
<text text-anchor="middle" x="835" y="-7.5" font-family="Arial.ttf" font-size="10.00" fill="#000000">SENSSimHelper.cpp</text>
</a>
</g>
</g>
<!-- Node14&#45;&gt;Node15 -->
<g id="edge15" class="edge">
<title>Node14&#45;&gt;Node15</title>
<path fill="none" stroke="#191970" d="M835,-46.1575C835,-37.155 835,-26.9199 835,-19.6427"/>
<polygon fill="#191970" stroke="#191970" points="831.5001,-46.2455 835,-56.2455 838.5001,-46.2456 831.5001,-46.2455"/>
</g>
<!-- Node18 -->
<g id="node18" class="node">
<title>Node18</title>
<g id="a_node18"><a xlink:href="_s_e_n_s_simulated_8cpp.html" target="_top" xlink:title=" ">
<polygon fill="#ffffff" stroke="#000000" points="870.5,-112.5 870.5,-131.5 977.5,-131.5 977.5,-112.5 870.5,-112.5"/>
<text text-anchor="middle" x="924" y="-119.5" font-family="Arial.ttf" font-size="10.00" fill="#000000">SENSSimulated.cpp</text>
</a>
</g>
</g>
<!-- Node17&#45;&gt;Node18 -->
<g id="edge18" class="edge">
<title>Node17&#45;&gt;Node18</title>
<path fill="none" stroke="#191970" d="M920.7717,-158.1575C921.5754,-149.155 922.4893,-138.9199 923.139,-131.6427"/>
<polygon fill="#191970" stroke="#191970" points="917.2742,-157.9739 919.8709,-168.2455 924.2465,-158.5965 917.2742,-157.9739"/>
</g>
<!-- Node19 -->
<g id="node19" class="node">
<title>Node19</title>
<g id="a_node19"><a xlink:href="_s_e_n_s_simulator_8h.html" target="_top" xlink:title=" ">
<polygon fill="#ffffff" stroke="#000000" points="996,-112.5 996,-131.5 1090,-131.5 1090,-112.5 996,-112.5"/>
<text text-anchor="middle" x="1043" y="-119.5" font-family="Arial.ttf" font-size="10.00" fill="#000000">SENSSimulator.h</text>
</a>
</g>
</g>
<!-- Node17&#45;&gt;Node19 -->
<g id="edge19" class="edge">
<title>Node17&#45;&gt;Node19</title>
<path fill="none" stroke="#191970" d="M949.4524,-164.2473C971.9722,-154.0771 1002.0617,-140.4883 1021.9618,-131.5011"/>
<polygon fill="#191970" stroke="#191970" points="947.9895,-161.0675 940.3164,-168.3733 950.8706,-167.4471 947.9895,-161.0675"/>
</g>
<!-- Node19&#45;&gt;Node14 -->
<g id="edge20" class="edge">
<title>Node19&#45;&gt;Node14</title>
<path fill="none" stroke="#191970" d="M997.3882,-109.7199C959.1418,-99.4228 905.31,-84.9296 870.2899,-75.5011"/>
<polygon fill="#191970" stroke="#191970" points="996.6774,-113.1531 1007.2435,-112.3733 998.4973,-106.3938 996.6774,-113.1531"/>
</g>
<!-- Node20 -->
<g id="node20" class="node">
<title>Node20</title>
<g id="a_node20"><a xlink:href="_s_e_n_s_simulator_8cpp.html" target="_top" xlink:title=" ">
<polygon fill="#ffffff" stroke="#000000" points="990.5,-56.5 990.5,-75.5 1095.5,-75.5 1095.5,-56.5 990.5,-56.5"/>
<text text-anchor="middle" x="1043" y="-63.5" font-family="Arial.ttf" font-size="10.00" fill="#000000">SENSSimulator.cpp</text>
</a>
</g>
</g>
<!-- Node19&#45;&gt;Node20 -->
<g id="edge21" class="edge">
<title>Node19&#45;&gt;Node20</title>
<path fill="none" stroke="#191970" d="M1043,-102.1575C1043,-93.155 1043,-82.9199 1043,-75.6427"/>
<polygon fill="#191970" stroke="#191970" points="1039.5001,-102.2455 1043,-112.2455 1046.5001,-102.2456 1039.5001,-102.2455"/>
</g>
</g>
</svg>
