<?xml version="1.0" encoding="UTF-8" standalone="no"?>
<!DOCTYPE svg PUBLIC "-//W3C//DTD SVG 1.1//EN"
 "http://www.w3.org/Graphics/SVG/1.1/DTD/svg11.dtd">
<!-- Generated by graphviz version 8.0.5 (20230430.1635)
 -->
<!-- Title: SLAnimTrack.h Pages: 1 -->
<svg width="786pt" height="542pt"
 viewBox="0.00 0.00 785.57 542.00" xmlns="http://www.w3.org/2000/svg" xmlns:xlink="http://www.w3.org/1999/xlink">
<g id="graph0" class="graph" transform="scale(1 1) rotate(0) translate(4 538)">
<title>SLAnimTrack.h</title>
<polygon fill="white" stroke="none" points="-4,4 -4,-538 781.57,-538 781.57,4 -4,4"/>
<!-- Node1 -->
<g id="node1" class="node">
<title>Node1</title>
<g id="a_node1"><a xlink:title=" ">
<polygon fill="#bfbfbf" stroke="black" points="395.19,-513.5 395.19,-533.5 478.69,-533.5 478.69,-513.5 395.19,-513.5"/>
<text text-anchor="middle" x="436.94" y="-520" font-family="Arial" font-size="10.00">SLAnimTrack.h</text>
</a>
</g>
</g>
<!-- Node2 -->
<g id="node2" class="node">
<title>Node2</title>
<g id="a_node2"><a xlink:title=" ">
<polygon fill="white" stroke="#bfbfbf" points="350.57,-456.5 350.57,-476.5 385.32,-476.5 385.32,-456.5 350.57,-456.5"/>
<text text-anchor="middle" x="367.94" y="-463" font-family="Arial" font-size="10.00">map</text>
</a>
</g>
</g>
<!-- Node1&#45;&gt;Node2 -->
<g id="edge1" class="edge">
<title>Node1&#45;&gt;Node2</title>
<path fill="none" stroke="midnightblue" d="M425.86,-513.66C415.56,-505.45 399.99,-493.04 387.58,-483.15"/>
<polygon fill="midnightblue" stroke="midnightblue" points="390.23,-479.99 380.23,-476.5 385.87,-485.47 390.23,-479.99"/>
</g>
<!-- Node3 -->
<g id="node3" class="node">
<title>Node3</title>
<g id="a_node3"><a xlink:href="_s_l_enums_8h.html" target="_top" xlink:title=" ">
<polygon fill="white" stroke="black" points="403.44,-456.5 403.44,-476.5 470.44,-476.5 470.44,-456.5 403.44,-456.5"/>
<text text-anchor="middle" x="436.94" y="-463" font-family="Arial" font-size="10.00">SLEnums.h</text>
</a>
</g>
</g>
<!-- Node1&#45;&gt;Node3 -->
<g id="edge2" class="edge">
<title>Node1&#45;&gt;Node3</title>
<path fill="none" stroke="midnightblue" d="M436.94,-513.91C436.94,-506.76 436.94,-496.32 436.94,-487.15"/>
<polygon fill="midnightblue" stroke="midnightblue" points="440.44,-487.21 436.94,-477.21 433.44,-487.21 440.44,-487.21"/>
</g>
<!-- Node4 -->
<g id="node4" class="node">
<title>Node4</title>
<g id="a_node4"><a xlink:href="_s_l_anim_keyframe_8h.html" target="_top" xlink:title=" ">
<polygon fill="white" stroke="black" points="488.57,-456.5 488.57,-476.5 589.32,-476.5 589.32,-456.5 488.57,-456.5"/>
<text text-anchor="middle" x="538.94" y="-463" font-family="Arial" font-size="10.00">SLAnimKeyframe.h</text>
</a>
</g>
</g>
<!-- Node1&#45;&gt;Node4 -->
<g id="edge3" class="edge">
<title>Node1&#45;&gt;Node4</title>
<path fill="none" stroke="midnightblue" d="M453.33,-513.66C469.37,-505.01 494.06,-491.7 512.81,-481.59"/>
<polygon fill="midnightblue" stroke="midnightblue" points="514.12,-484.32 521.26,-476.5 510.79,-478.16 514.12,-484.32"/>
</g>
<!-- Node5 -->
<g id="node5" class="node">
<title>Node5</title>
<g id="a_node5"><a xlink:href="_s_l_8h.html" target="_top" xlink:title=" ">
<polygon fill="white" stroke="black" points="685.82,-228.5 685.82,-248.5 722.07,-248.5 722.07,-228.5 685.82,-228.5"/>
<text text-anchor="middle" x="703.94" y="-235" font-family="Arial" font-size="10.00">SL.h</text>
</a>
</g>
</g>
<!-- Node4&#45;&gt;Node5 -->
<g id="edge4" class="edge">
<title>Node4&#45;&gt;Node5</title>
<path fill="none" stroke="midnightblue" d="M552.26,-456.59C583.33,-434.97 660.6,-376.3 694.94,-306 702.14,-291.26 704.15,-272.63 704.49,-258.84"/>
<polygon fill="midnightblue" stroke="midnightblue" points="707.99,-259.17 704.46,-249.18 700.99,-259.19 707.99,-259.17"/>
</g>
<!-- Node15 -->
<g id="node15" class="node">
<title>Node15</title>
<g id="a_node15"><a xlink:href="_s_l_quat4_8h.html" target="_top" xlink:title=" ">
<polygon fill="white" stroke="black" points="507.69,-399.5 507.69,-419.5 570.19,-419.5 570.19,-399.5 507.69,-399.5"/>
<text text-anchor="middle" x="538.94" y="-406" font-family="Arial" font-size="10.00">SLQuat4.h</text>
</a>
</g>
</g>
<!-- Node4&#45;&gt;Node15 -->
<g id="edge17" class="edge">
<title>Node4&#45;&gt;Node15</title>
<path fill="none" stroke="midnightblue" d="M538.94,-456.91C538.94,-449.76 538.94,-439.32 538.94,-430.15"/>
<polygon fill="midnightblue" stroke="midnightblue" points="542.44,-430.21 538.94,-420.21 535.44,-430.21 542.44,-430.21"/>
</g>
<!-- Node20 -->
<g id="node20" class="node">
<title>Node20</title>
<g id="a_node20"><a xlink:href="_s_l_vec3_8h.html" target="_top" xlink:title=" ">
<polygon fill="white" stroke="black" points="432.32,-228.5 432.32,-248.5 489.57,-248.5 489.57,-228.5 432.32,-228.5"/>
<text text-anchor="middle" x="460.94" y="-235" font-family="Arial" font-size="10.00">SLVec3.h</text>
</a>
</g>
</g>
<!-- Node4&#45;&gt;Node20 -->
<g id="edge48" class="edge">
<title>Node4&#45;&gt;Node20</title>
<path fill="none" stroke="midnightblue" d="M500.63,-456.56C385.2,-429.26 46.82,-346.37 16.94,-306 11.39,-298.5 10.69,-291.93 16.94,-285 23.71,-277.5 314.3,-252.01 421.64,-242.83"/>
<polygon fill="midnightblue" stroke="midnightblue" points="421.66,-246.25 431.33,-241.92 421.06,-239.28 421.66,-246.25"/>
</g>
<!-- Node6 -->
<g id="node6" class="node">
<title>Node6</title>
<g id="a_node6"><a xlink:href="_utils_8h.html" target="_top" xlink:title=" ">
<polygon fill="white" stroke="black" points="577.69,-114.5 577.69,-134.5 622.19,-134.5 622.19,-114.5 577.69,-114.5"/>
<text text-anchor="middle" x="599.94" y="-121" font-family="Arial" font-size="10.00">Utils.h</text>
</a>
</g>
</g>
<!-- Node5&#45;&gt;Node6 -->
<g id="edge5" class="edge">
<title>Node5&#45;&gt;Node6</title>
<path fill="none" stroke="midnightblue" d="M701.5,-228.85C697.3,-215.25 687.63,-188.6 671.94,-171 660.19,-157.81 643.74,-147.03 629.52,-139.27"/>
<polygon fill="midnightblue" stroke="midnightblue" points="631.61,-135.9 621.12,-134.4 628.39,-142.11 631.61,-135.9"/>
</g>
<!-- Node7 -->
<g id="node7" class="node">
<title>Node7</title>
<g id="a_node7"><a xlink:title=" ">
<polygon fill="white" stroke="#bfbfbf" points="571.94,-0.5 571.94,-20.5 611.94,-20.5 611.94,-0.5 571.94,-0.5"/>
<text text-anchor="middle" x="591.94" y="-7" font-family="Arial" font-size="10.00">string</text>
</a>
</g>
</g>
<!-- Node6&#45;&gt;Node7 -->
<g id="edge6" class="edge">
<title>Node6&#45;&gt;Node7</title>
<path fill="none" stroke="midnightblue" d="M610.37,-114.77C623.88,-102.35 644.71,-78.66 635.94,-57 631.25,-45.39 622.01,-35.09 613.2,-27.25"/>
<polygon fill="midnightblue" stroke="midnightblue" points="615.67,-23.92 605.73,-20.26 611.22,-29.32 615.67,-23.92"/>
</g>
<!-- Node8 -->
<g id="node8" class="node">
<title>Node8</title>
<g id="a_node8"><a xlink:title=" ">
<polygon fill="white" stroke="#bfbfbf" points="376.44,-57.5 376.44,-77.5 419.44,-77.5 419.44,-57.5 376.44,-57.5"/>
<text text-anchor="middle" x="397.94" y="-64" font-family="Arial" font-size="10.00">vector</text>
</a>
</g>
</g>
<!-- Node6&#45;&gt;Node8 -->
<g id="edge7" class="edge">
<title>Node6&#45;&gt;Node8</title>
<path fill="none" stroke="midnightblue" d="M577.86,-118.02C546.83,-110.24 488.34,-95.3 429.43,-78.34"/>
<polygon fill="midnightblue" stroke="midnightblue" points="430.79,-74.8 420.21,-75.37 428.84,-81.52 430.79,-74.8"/>
</g>
<!-- Node9 -->
<g id="node9" class="node">
<title>Node9</title>
<g id="a_node9"><a xlink:title=" ">
<polygon fill="white" stroke="#bfbfbf" points="510.94,-57.5 510.94,-77.5 550.94,-77.5 550.94,-57.5 510.94,-57.5"/>
<text text-anchor="middle" x="530.94" y="-64" font-family="Arial" font-size="10.00">cfloat</text>
</a>
</g>
</g>
<!-- Node6&#45;&gt;Node9 -->
<g id="edge8" class="edge">
<title>Node6&#45;&gt;Node9</title>
<path fill="none" stroke="midnightblue" d="M588.86,-114.66C578.56,-106.45 562.99,-94.04 550.58,-84.15"/>
<polygon fill="midnightblue" stroke="midnightblue" points="553.23,-80.99 543.23,-77.5 548.87,-86.47 553.23,-80.99"/>
</g>
<!-- Node10 -->
<g id="node10" class="node">
<title>Node10</title>
<g id="a_node10"><a xlink:title=" ">
<polygon fill="white" stroke="#bfbfbf" points="726.32,-0.5 726.32,-20.5 777.57,-20.5 777.57,-0.5 726.32,-0.5"/>
<text text-anchor="middle" x="751.94" y="-7" font-family="Arial" font-size="10.00">memory</text>
</a>
</g>
</g>
<!-- Node6&#45;&gt;Node10 -->
<g id="edge9" class="edge">
<title>Node6&#45;&gt;Node10</title>
<path fill="none" stroke="midnightblue" d="M621.98,-120.76C662.99,-115.15 748.46,-100.93 765.94,-78 776.54,-64.11 770.19,-44.04 762.96,-29.59"/>
<polygon fill="midnightblue" stroke="midnightblue" points="765.68,-28.27 757.77,-21.23 759.56,-31.67 765.68,-28.27"/>
</g>
<!-- Node11 -->
<g id="node11" class="node">
<title>Node11</title>
<g id="a_node11"><a xlink:href="_file_log_8h.html" target="_top" xlink:title=" ">
<polygon fill="white" stroke="black" points="437.07,-57.5 437.07,-77.5 492.82,-77.5 492.82,-57.5 437.07,-57.5"/>
<text text-anchor="middle" x="464.94" y="-64" font-family="Arial" font-size="10.00">FileLog.h</text>
</a>
</g>
</g>
<!-- Node6&#45;&gt;Node11 -->
<g id="edge10" class="edge">
<title>Node6&#45;&gt;Node11</title>
<path fill="none" stroke="midnightblue" d="M577.95,-114.54C555.99,-105.59 521.99,-91.74 497.01,-81.57"/>
<polygon fill="midnightblue" stroke="midnightblue" points="498.51,-77.99 487.93,-77.46 495.87,-84.47 498.51,-77.99"/>
</g>
<!-- Node13 -->
<g id="node13" class="node">
<title>Node13</title>
<g id="a_node13"><a xlink:href="_custom_log_8h.html" target="_top" xlink:title=" ">
<polygon fill="white" stroke="black" points="682.69,-57.5 682.69,-77.5 757.19,-77.5 757.19,-57.5 682.69,-57.5"/>
<text text-anchor="middle" x="719.94" y="-64" font-family="Arial" font-size="10.00">CustomLog.h</text>
</a>
</g>
</g>
<!-- Node6&#45;&gt;Node13 -->
<g id="edge13" class="edge">
<title>Node6&#45;&gt;Node13</title>
<path fill="none" stroke="midnightblue" d="M619.49,-114.54C638.76,-105.71 668.43,-92.11 690.54,-81.98"/>
<polygon fill="midnightblue" stroke="midnightblue" points="691.77,-84.8 699.41,-77.46 688.86,-78.44 691.77,-84.8"/>
</g>
<!-- Node14 -->
<g id="node14" class="node">
<title>Node14</title>
<g id="a_node14"><a xlink:title=" ">
<polygon fill="white" stroke="#bfbfbf" points="568.94,-57.5 568.94,-77.5 626.94,-77.5 626.94,-57.5 568.94,-57.5"/>
<text text-anchor="middle" x="597.94" y="-64" font-family="Arial" font-size="10.00">functional</text>
</a>
</g>
</g>
<!-- Node6&#45;&gt;Node14 -->
<g id="edge16" class="edge">
<title>Node6&#45;&gt;Node14</title>
<path fill="none" stroke="midnightblue" d="M599.63,-114.91C599.37,-107.76 598.99,-97.32 598.66,-88.15"/>
<polygon fill="midnightblue" stroke="midnightblue" points="602.12,-88.08 598.26,-78.21 595.13,-88.34 602.12,-88.08"/>
</g>
<!-- Node11&#45;&gt;Node7 -->
<g id="edge11" class="edge">
<title>Node11&#45;&gt;Node7</title>
<path fill="none" stroke="midnightblue" d="M485.63,-57.54C506.45,-48.53 538.76,-34.53 562.29,-24.34"/>
<polygon fill="midnightblue" stroke="midnightblue" points="563.32,-27.28 571.1,-20.09 560.54,-20.86 563.32,-27.28"/>
</g>
<!-- Node12 -->
<g id="node12" class="node">
<title>Node12</title>
<g id="a_node12"><a xlink:title=" ">
<polygon fill="white" stroke="#bfbfbf" points="440.44,-0.5 440.44,-20.5 489.44,-20.5 489.44,-0.5 440.44,-0.5"/>
<text text-anchor="middle" x="464.94" y="-7" font-family="Arial" font-size="10.00">fstream</text>
</a>
</g>
</g>
<!-- Node11&#45;&gt;Node12 -->
<g id="edge12" class="edge">
<title>Node11&#45;&gt;Node12</title>
<path fill="none" stroke="midnightblue" d="M464.94,-57.91C464.94,-50.76 464.94,-40.32 464.94,-31.15"/>
<polygon fill="midnightblue" stroke="midnightblue" points="468.44,-31.21 464.94,-21.21 461.44,-31.21 468.44,-31.21"/>
</g>
<!-- Node13&#45;&gt;Node7 -->
<g id="edge15" class="edge">
<title>Node13&#45;&gt;Node7</title>
<path fill="none" stroke="midnightblue" d="M699.09,-57.54C678.11,-48.53 645.55,-34.53 621.83,-24.34"/>
<polygon fill="midnightblue" stroke="midnightblue" points="623.51,-20.83 612.94,-20.09 620.75,-27.26 623.51,-20.83"/>
</g>
<!-- Node13&#45;&gt;Node10 -->
<g id="edge14" class="edge">
<title>Node13&#45;&gt;Node10</title>
<path fill="none" stroke="midnightblue" d="M724.94,-57.91C729.33,-50.36 735.86,-39.14 741.4,-29.62"/>
<polygon fill="midnightblue" stroke="midnightblue" points="744.87,-31.62 746.87,-21.21 738.82,-28.1 744.87,-31.62"/>
</g>
<!-- Node15&#45;&gt;Node6 -->
<g id="edge47" class="edge">
<title>Node15&#45;&gt;Node6</title>
<path fill="none" stroke="midnightblue" d="M562.1,-399.62C607.84,-380.48 707.4,-330.38 730.94,-249 746.55,-195.05 675.71,-155.99 632.09,-137.5"/>
<polygon fill="midnightblue" stroke="midnightblue" points="633.5,-133.89 622.92,-133.35 630.85,-140.37 633.5,-133.89"/>
</g>
<!-- Node16 -->
<g id="node16" class="node">
<title>Node16</title>
<g id="a_node16"><a xlink:href="_s_l_math_8h.html" target="_top" xlink:title=" ">
<polygon fill="white" stroke="black" points="318.94,-114.5 318.94,-134.5 376.94,-134.5 376.94,-114.5 318.94,-114.5"/>
<text text-anchor="middle" x="347.94" y="-121" font-family="Arial" font-size="10.00">SLMath.h</text>
</a>
</g>
</g>
<!-- Node15&#45;&gt;Node16 -->
<g id="edge18" class="edge">
<title>Node15&#45;&gt;Node16</title>
<path fill="none" stroke="midnightblue" d="M507.92,-407.35C405.34,-402.86 80.02,-382.67 16.94,-306 -69.52,-200.9 202.82,-147.46 308.16,-131.09"/>
<polygon fill="midnightblue" stroke="midnightblue" points="308.62,-134.41 317.98,-129.44 307.57,-127.48 308.62,-134.41"/>
</g>
<!-- Node17 -->
<g id="node17" class="node">
<title>Node17</title>
<g id="a_node17"><a xlink:href="_s_l_mat4_8h.html" target="_top" xlink:title=" ">
<polygon fill="white" stroke="black" points="432.94,-342.5 432.94,-362.5 490.94,-362.5 490.94,-342.5 432.94,-342.5"/>
<text text-anchor="middle" x="461.94" y="-349" font-family="Arial" font-size="10.00">SLMat4.h</text>
</a>
</g>
</g>
<!-- Node15&#45;&gt;Node17 -->
<g id="edge21" class="edge">
<title>Node15&#45;&gt;Node17</title>
<path fill="none" stroke="midnightblue" d="M526.57,-399.66C514.97,-391.37 497.36,-378.8 483.46,-368.87"/>
<polygon fill="midnightblue" stroke="midnightblue" points="485.71,-365.46 475.54,-362.5 481.64,-371.16 485.71,-365.46"/>
</g>
<!-- Node25 -->
<g id="node25" class="node">
<title>Node25</title>
<g id="a_node25"><a xlink:href="_s_l_vec4_8h.html" target="_top" xlink:title=" ">
<polygon fill="white" stroke="black" points="628.32,-285.5 628.32,-305.5 685.57,-305.5 685.57,-285.5 628.32,-285.5"/>
<text text-anchor="middle" x="656.94" y="-292" font-family="Arial" font-size="10.00">SLVec4.h</text>
</a>
</g>
</g>
<!-- Node15&#45;&gt;Node25 -->
<g id="edge46" class="edge">
<title>Node15&#45;&gt;Node25</title>
<path fill="none" stroke="midnightblue" d="M548.2,-399.71C568.02,-380.9 614.79,-336.51 640.06,-312.53"/>
<polygon fill="midnightblue" stroke="midnightblue" points="641.88,-315.67 646.73,-306.25 637.07,-310.59 641.88,-315.67"/>
</g>
<!-- Node16&#45;&gt;Node7 -->
<g id="edge20" class="edge">
<title>Node16&#45;&gt;Node7</title>
<path fill="none" stroke="midnightblue" d="M347.9,-114.69C348.33,-100.37 351.38,-72.11 367.94,-57 382.17,-44.03 503.55,-24.58 561.45,-15.92"/>
<polygon fill="midnightblue" stroke="midnightblue" points="561.75,-19.27 571.13,-14.34 560.73,-12.34 561.75,-19.27"/>
</g>
<!-- Node16&#45;&gt;Node8 -->
<g id="edge19" class="edge">
<title>Node16&#45;&gt;Node8</title>
<path fill="none" stroke="midnightblue" d="M355.76,-114.91C362.98,-106.96 373.91,-94.94 382.84,-85.12"/>
<polygon fill="midnightblue" stroke="midnightblue" points="384.88,-87.97 389.02,-78.21 379.7,-83.26 384.88,-87.97"/>
</g>
<!-- Node17&#45;&gt;Node6 -->
<g id="edge24" class="edge">
<title>Node17&#45;&gt;Node6</title>
<path fill="none" stroke="midnightblue" d="M490.76,-348.9C518.54,-344.75 559.45,-333.97 580.94,-306 617.86,-257.96 610.04,-180.27 603.86,-144.56"/>
<polygon fill="midnightblue" stroke="midnightblue" points="607.19,-144.34 601.9,-135.16 600.31,-145.64 607.19,-144.34"/>
</g>
<!-- Node17&#45;&gt;Node16 -->
<g id="edge22" class="edge">
<title>Node17&#45;&gt;Node16</title>
<path fill="none" stroke="midnightblue" d="M435.51,-342.59C411.1,-334.08 374.03,-320.45 342.94,-306 325.45,-297.87 322.51,-292.99 304.94,-285 262.33,-265.62 232.8,-287.35 205.94,-249 171.77,-200.2 258.32,-158.26 310.95,-138.17"/>
<polygon fill="midnightblue" stroke="midnightblue" points="311.83,-141.21 319.98,-134.45 309.39,-134.65 311.83,-141.21"/>
</g>
<!-- Node18 -->
<g id="node18" class="node">
<title>Node18</title>
<g id="a_node18"><a xlink:title=" ">
<polygon fill="white" stroke="#bfbfbf" points="465.94,-285.5 465.94,-305.5 505.94,-305.5 505.94,-285.5 465.94,-285.5"/>
<text text-anchor="middle" x="485.94" y="-292" font-family="Arial" font-size="10.00">stack</text>
</a>
</g>
</g>
<!-- Node17&#45;&gt;Node18 -->
<g id="edge23" class="edge">
<title>Node17&#45;&gt;Node18</title>
<path fill="none" stroke="midnightblue" d="M465.69,-342.91C468.92,-335.52 473.68,-324.62 477.77,-315.23"/>
<polygon fill="midnightblue" stroke="midnightblue" points="481.35,-316.78 482.14,-306.21 474.93,-313.98 481.35,-316.78"/>
</g>
<!-- Node19 -->
<g id="node19" class="node">
<title>Node19</title>
<g id="a_node19"><a xlink:href="_s_l_mat3_8h.html" target="_top" xlink:title=" ">
<polygon fill="white" stroke="black" points="351.94,-285.5 351.94,-305.5 409.94,-305.5 409.94,-285.5 351.94,-285.5"/>
<text text-anchor="middle" x="380.94" y="-292" font-family="Arial" font-size="10.00">SLMat3.h</text>
</a>
</g>
</g>
<!-- Node17&#45;&gt;Node19 -->
<g id="edge25" class="edge">
<title>Node17&#45;&gt;Node19</title>
<path fill="none" stroke="midnightblue" d="M448.93,-342.66C436.6,-334.29 417.85,-321.56 403.15,-311.58"/>
<polygon fill="midnightblue" stroke="midnightblue" points="405.43,-308.22 395.19,-305.5 401.5,-314.01 405.43,-308.22"/>
</g>
<!-- Node17&#45;&gt;Node20 -->
<g id="edge37" class="edge">
<title>Node17&#45;&gt;Node20</title>
<path fill="none" stroke="midnightblue" d="M460.7,-342.8C459.46,-333.66 457.65,-318.85 456.94,-306 456.07,-290.08 457.3,-272.03 458.62,-258.76"/>
<polygon fill="midnightblue" stroke="midnightblue" points="462.17,-259.43 459.79,-249.11 455.22,-258.66 462.17,-259.43"/>
</g>
<!-- Node17&#45;&gt;Node25 -->
<g id="edge38" class="edge">
<title>Node17&#45;&gt;Node25</title>
<path fill="none" stroke="midnightblue" d="M490.72,-343.38C524.37,-333.89 580.25,-318.13 617.82,-307.54"/>
<polygon fill="midnightblue" stroke="midnightblue" points="618.7,-310.64 627.37,-304.56 616.8,-303.91 618.7,-310.64"/>
</g>
<!-- Node26 -->
<g id="node26" class="node">
<title>Node26</title>
<g id="a_node26"><a xlink:title=" ">
<polygon fill="white" stroke="#bfbfbf" points="523.82,-285.5 523.82,-305.5 572.07,-305.5 572.07,-285.5 523.82,-285.5"/>
<text text-anchor="middle" x="547.94" y="-292" font-family="Arial" font-size="10.00">cassert</text>
</a>
</g>
</g>
<!-- Node17&#45;&gt;Node26 -->
<g id="edge43" class="edge">
<title>Node17&#45;&gt;Node26</title>
<path fill="none" stroke="midnightblue" d="M475.76,-342.66C488.97,-334.21 509.14,-321.31 524.81,-311.3"/>
<polygon fill="midnightblue" stroke="midnightblue" points="526.34,-313.83 532.88,-305.5 522.57,-307.94 526.34,-313.83"/>
</g>
<!-- Node27 -->
<g id="node27" class="node">
<title>Node27</title>
<g id="a_node27"><a xlink:title=" ">
<polygon fill="white" stroke="#bfbfbf" points="25.82,-285.5 25.82,-305.5 152.07,-305.5 152.07,-285.5 25.82,-285.5"/>
<text text-anchor="middle" x="88.94" y="-292" font-family="Arial" font-size="10.00">Shoemake/Decompose.h</text>
</a>
</g>
</g>
<!-- Node17&#45;&gt;Node27 -->
<g id="edge44" class="edge">
<title>Node17&#45;&gt;Node27</title>
<path fill="none" stroke="midnightblue" d="M432.99,-347.23C375,-338.68 243.11,-319.23 160.52,-307.05"/>
<polygon fill="midnightblue" stroke="midnightblue" points="161.11,-303.46 150.7,-305.46 160.08,-310.38 161.11,-303.46"/>
</g>
<!-- Node28 -->
<g id="node28" class="node">
<title>Node28</title>
<g id="a_node28"><a xlink:title=" ">
<polygon fill="white" stroke="#bfbfbf" points="169.82,-285.5 169.82,-305.5 296.07,-305.5 296.07,-285.5 169.82,-285.5"/>
<text text-anchor="middle" x="232.94" y="-292" font-family="Arial" font-size="10.00">Shoemake/EulerAngles.h</text>
</a>
</g>
</g>
<!-- Node17&#45;&gt;Node28 -->
<g id="edge45" class="edge">
<title>Node17&#45;&gt;Node28</title>
<path fill="none" stroke="midnightblue" d="M433.4,-344.65C395.22,-335.47 326.98,-319.09 280.85,-308.01"/>
<polygon fill="midnightblue" stroke="midnightblue" points="281.75,-304.38 271.21,-305.45 280.11,-311.19 281.75,-304.38"/>
</g>
<!-- Node19&#45;&gt;Node6 -->
<g id="edge27" class="edge">
<title>Node19&#45;&gt;Node6</title>
<path fill="none" stroke="midnightblue" d="M381.23,-285.51C382.44,-262.77 388.89,-202.55 422.94,-171 462.56,-134.3 527.73,-126.29 566.97,-125.04"/>
<polygon fill="midnightblue" stroke="midnightblue" points="566.85,-128.52 576.79,-124.85 566.72,-121.52 566.85,-128.52"/>
</g>
<!-- Node19&#45;&gt;Node16 -->
<g id="edge26" class="edge">
<title>Node19&#45;&gt;Node16</title>
<path fill="none" stroke="midnightblue" d="M379.26,-285.89C374.19,-259.9 358.94,-181.82 351.76,-145.05"/>
<polygon fill="midnightblue" stroke="midnightblue" points="355.01,-144.44 349.66,-135.3 348.14,-145.78 355.01,-144.44"/>
</g>
<!-- Node19&#45;&gt;Node20 -->
<g id="edge28" class="edge">
<title>Node19&#45;&gt;Node20</title>
<path fill="none" stroke="midnightblue" d="M393.8,-285.66C405.97,-277.29 424.5,-264.56 439.01,-254.58"/>
<polygon fill="midnightblue" stroke="midnightblue" points="440.6,-257.05 446.86,-248.5 436.63,-251.28 440.6,-257.05"/>
</g>
<!-- Node23 -->
<g id="node23" class="node">
<title>Node23</title>
<g id="a_node23"><a xlink:title=" ">
<polygon fill="white" stroke="#bfbfbf" points="215.19,-228.5 215.19,-248.5 268.69,-248.5 268.69,-228.5 215.19,-228.5"/>
<text text-anchor="middle" x="241.94" y="-235" font-family="Arial" font-size="10.00">iostream</text>
</a>
</g>
</g>
<!-- Node19&#45;&gt;Node23 -->
<g id="edge35" class="edge">
<title>Node19&#45;&gt;Node23</title>
<path fill="none" stroke="midnightblue" d="M358.3,-285.54C335.58,-276.55 300.36,-262.62 274.62,-252.43"/>
<polygon fill="midnightblue" stroke="midnightblue" points="276.16,-248.88 265.58,-248.46 273.59,-255.39 276.16,-248.88"/>
</g>
<!-- Node24 -->
<g id="node24" class="node">
<title>Node24</title>
<g id="a_node24"><a xlink:title=" ">
<polygon fill="white" stroke="#bfbfbf" points="286.32,-228.5 286.32,-248.5 337.57,-248.5 337.57,-228.5 286.32,-228.5"/>
<text text-anchor="middle" x="311.94" y="-235" font-family="Arial" font-size="10.00">assert.h</text>
</a>
</g>
</g>
<!-- Node19&#45;&gt;Node24 -->
<g id="edge36" class="edge">
<title>Node19&#45;&gt;Node24</title>
<path fill="none" stroke="midnightblue" d="M369.86,-285.66C359.56,-277.45 343.99,-265.04 331.58,-255.15"/>
<polygon fill="midnightblue" stroke="midnightblue" points="334.23,-251.99 324.23,-248.5 329.87,-257.47 334.23,-251.99"/>
</g>
<!-- Node20&#45;&gt;Node6 -->
<g id="edge34" class="edge">
<title>Node20&#45;&gt;Node6</title>
<path fill="none" stroke="midnightblue" d="M489.24,-230.25C511.41,-223.39 541.92,-211.25 562.94,-192 577.23,-178.92 587.29,-159.01 593.28,-144.38"/>
<polygon fill="midnightblue" stroke="midnightblue" points="596.78,-146.02 597.07,-135.43 590.24,-143.53 596.78,-146.02"/>
</g>
<!-- Node20&#45;&gt;Node16 -->
<g id="edge30" class="edge">
<title>Node20&#45;&gt;Node16</title>
<path fill="none" stroke="midnightblue" d="M452.08,-228.71C433.18,-209.98 388.7,-165.89 364.43,-141.84"/>
<polygon fill="midnightblue" stroke="midnightblue" points="367.34,-139.8 357.77,-135.25 362.41,-144.77 367.34,-139.8"/>
</g>
<!-- Node21 -->
<g id="node21" class="node">
<title>Node21</title>
<g id="a_node21"><a xlink:title=" ">
<polygon fill="white" stroke="#bfbfbf" points="431.94,-171.5 431.94,-191.5 477.94,-191.5 477.94,-171.5 431.94,-171.5"/>
<text text-anchor="middle" x="454.94" y="-178" font-family="Arial" font-size="10.00">math.h</text>
</a>
</g>
</g>
<!-- Node20&#45;&gt;Node21 -->
<g id="edge29" class="edge">
<title>Node20&#45;&gt;Node21</title>
<path fill="none" stroke="midnightblue" d="M460.01,-228.91C459.22,-221.68 458.06,-211.09 457.05,-201.85"/>
<polygon fill="midnightblue" stroke="midnightblue" points="460.46,-201.78 455.89,-192.21 453.5,-202.54 460.46,-201.78"/>
</g>
<!-- Node22 -->
<g id="node22" class="node">
<title>Node22</title>
<g id="a_node22"><a xlink:href="_s_l_vec2_8h.html" target="_top" xlink:title=" ">
<polygon fill="white" stroke="black" points="496.32,-171.5 496.32,-191.5 553.57,-191.5 553.57,-171.5 496.32,-171.5"/>
<text text-anchor="middle" x="524.94" y="-178" font-family="Arial" font-size="10.00">SLVec2.h</text>
</a>
</g>
</g>
<!-- Node20&#45;&gt;Node22 -->
<g id="edge31" class="edge">
<title>Node20&#45;&gt;Node22</title>
<path fill="none" stroke="midnightblue" d="M471.23,-228.66C480.69,-220.53 494.94,-208.28 506.39,-198.44"/>
<polygon fill="midnightblue" stroke="midnightblue" points="508.17,-200.67 513.47,-191.5 503.61,-195.36 508.17,-200.67"/>
</g>
<!-- Node22&#45;&gt;Node6 -->
<g id="edge33" class="edge">
<title>Node22&#45;&gt;Node6</title>
<path fill="none" stroke="midnightblue" d="M536.99,-171.66C548.3,-163.37 565.44,-150.8 578.99,-140.87"/>
<polygon fill="midnightblue" stroke="midnightblue" points="580.68,-143.23 586.67,-134.5 576.54,-137.59 580.68,-143.23"/>
</g>
<!-- Node22&#45;&gt;Node16 -->
<g id="edge32" class="edge">
<title>Node22&#45;&gt;Node16</title>
<path fill="none" stroke="midnightblue" d="M496.51,-171.66C466.88,-162.46 420.24,-147.97 387.14,-137.68"/>
<polygon fill="midnightblue" stroke="midnightblue" points="388.49,-134.12 377.9,-134.5 386.41,-140.81 388.49,-134.12"/>
</g>
<!-- Node25&#45;&gt;Node5 -->
<g id="edge39" class="edge">
<title>Node25&#45;&gt;Node5</title>
<path fill="none" stroke="midnightblue" d="M664.29,-285.91C671.01,-278.04 681.15,-266.18 689.49,-256.42"/>
<polygon fill="midnightblue" stroke="midnightblue" points="692.66,-259.09 696.5,-249.21 687.34,-254.54 692.66,-259.09"/>
</g>
<!-- Node25&#45;&gt;Node6 -->
<g id="edge42" class="edge">
<title>Node25&#45;&gt;Node6</title>
<path fill="none" stroke="midnightblue" d="M656.67,-285.72C655.72,-264.92 651.62,-211.35 633.94,-171 629.46,-160.76 622.28,-150.67 615.67,-142.6"/>
<polygon fill="midnightblue" stroke="midnightblue" points="617.82,-140.73 608.63,-135.45 612.52,-145.31 617.82,-140.73"/>
</g>
<!-- Node25&#45;&gt;Node20 -->
<g id="edge41" class="edge">
<title>Node25&#45;&gt;Node20</title>
<path fill="none" stroke="midnightblue" d="M628.44,-286.5C594.48,-276.97 537.56,-261 499.64,-250.36"/>
<polygon fill="midnightblue" stroke="midnightblue" points="501.05,-246.84 490.48,-247.51 499.16,-253.58 501.05,-246.84"/>
</g>
<!-- Node25&#45;&gt;Node22 -->
<g id="edge40" class="edge">
<title>Node25&#45;&gt;Node22</title>
<path fill="none" stroke="midnightblue" d="M646.59,-285.71C624.32,-266.82 571.64,-222.12 543.47,-198.22"/>
<polygon fill="midnightblue" stroke="midnightblue" points="546.14,-195.05 536.25,-191.25 541.61,-200.39 546.14,-195.05"/>
</g>
</g>
</svg>
