<?xml version="1.0" encoding="UTF-8" standalone="no"?>
<!DOCTYPE svg PUBLIC "-//W3C//DTD SVG 1.1//EN"
 "http://www.w3.org/Graphics/SVG/1.1/DTD/svg11.dtd">
<!-- Generated by graphviz version 2.50.0 (20211204.2007)
 -->
<!-- Title: SLImporter.h Pages: 1 -->
<svg width="1428pt" height="1036pt"
 viewBox="0.00 0.00 1427.70 1036.00" xmlns="http://www.w3.org/2000/svg" xmlns:xlink="http://www.w3.org/1999/xlink">
<g id="graph0" class="graph" transform="scale(1 1) rotate(0) translate(4 1032)">
<title>SLImporter.h</title>
<polygon fill="white" stroke="transparent" points="-4,4 -4,-1032 1423.7,-1032 1423.7,4 -4,4"/>
<!-- Node1 -->
<g id="node1" class="node">
<title>Node1</title>
<g id="a_node1"><a xlink:title=" ">
<polygon fill="#bfbfbf" stroke="black" points="109.5,-1008.5 109.5,-1027.5 182.5,-1027.5 182.5,-1008.5 109.5,-1008.5"/>
<text text-anchor="middle" x="146" y="-1015.5" font-family="Arial" font-size="10.00">SLImporter.h</text>
</a>
</g>
</g>
<!-- Node2 -->
<g id="node2" class="node">
<title>Node2</title>
<g id="a_node2"><a xlink:title=" ">
<polygon fill="white" stroke="#bfbfbf" points="377,-0.5 377,-19.5 427,-19.5 427,-0.5 377,-0.5"/>
<text text-anchor="middle" x="402" y="-7.5" font-family="Arial" font-size="10.00">fstream</text>
</a>
</g>
</g>
<!-- Node1&#45;&gt;Node2 -->
<g id="edge1" class="edge">
<title>Node1&#45;&gt;Node2</title>
<path fill="none" stroke="midnightblue" d="M113.96,-1008.44C70.98,-994.78 0,-963.65 0,-907 0,-907 0,-907 0,-121 0,-45.25 268.89,-19.83 366.85,-13.08"/>
<polygon fill="midnightblue" stroke="midnightblue" points="367.11,-16.57 376.85,-12.41 366.64,-9.59 367.11,-16.57"/>
</g>
<!-- Node3 -->
<g id="node3" class="node">
<title>Node3</title>
<g id="a_node3"><a xlink:title=" ">
<polygon fill="white" stroke="#bfbfbf" points="97.5,-728.5 97.5,-747.5 132.5,-747.5 132.5,-728.5 97.5,-728.5"/>
<text text-anchor="middle" x="115" y="-735.5" font-family="Arial" font-size="10.00">map</text>
</a>
</g>
</g>
<!-- Node1&#45;&gt;Node3 -->
<g id="edge2" class="edge">
<title>Node1&#45;&gt;Node3</title>
<path fill="none" stroke="midnightblue" d="M135.67,-1008.5C116.2,-991.44 76,-950.91 76,-907 76,-907 76,-907 76,-849 76,-814.72 93.04,-777.7 104.59,-756.54"/>
<polygon fill="midnightblue" stroke="midnightblue" points="107.69,-758.17 109.58,-747.75 101.6,-754.72 107.69,-758.17"/>
</g>
<!-- Node4 -->
<g id="node4" class="node">
<title>Node4</title>
<g id="a_node4"><a xlink:href="_s_l_8h.html" target="_top" xlink:title=" ">
<polygon fill="white" stroke="black" points="354.5,-224.5 354.5,-243.5 391.5,-243.5 391.5,-224.5 354.5,-224.5"/>
<text text-anchor="middle" x="373" y="-231.5" font-family="Arial" font-size="10.00">SL.h</text>
</a>
</g>
</g>
<!-- Node1&#45;&gt;Node4 -->
<g id="edge3" class="edge">
<title>Node1&#45;&gt;Node4</title>
<path fill="none" stroke="midnightblue" d="M127.19,-1008.49C96.25,-993.05 38,-957.31 38,-907 38,-907 38,-907 38,-345 38,-280.85 262.55,-248.01 343.96,-238.21"/>
<polygon fill="midnightblue" stroke="midnightblue" points="344.51,-241.67 354.03,-237.03 343.69,-234.72 344.51,-241.67"/>
</g>
<!-- Node13 -->
<g id="node13" class="node">
<title>Node13</title>
<g id="a_node13"><a xlink:href="_s_l_animation_8h.html" target="_top" xlink:title=" ">
<polygon fill="white" stroke="black" points="244,-952.5 244,-971.5 324,-971.5 324,-952.5 244,-952.5"/>
<text text-anchor="middle" x="284" y="-959.5" font-family="Arial" font-size="10.00">SLAnimation.h</text>
</a>
</g>
</g>
<!-- Node1&#45;&gt;Node13 -->
<g id="edge16" class="edge">
<title>Node1&#45;&gt;Node13</title>
<path fill="none" stroke="midnightblue" d="M167.87,-1008.44C190.78,-999.48 226.98,-985.31 252.87,-975.18"/>
<polygon fill="midnightblue" stroke="midnightblue" points="254.2,-978.42 262.24,-971.52 251.65,-971.9 254.2,-978.42"/>
</g>
<!-- Node15 -->
<g id="node15" class="node">
<title>Node15</title>
<g id="a_node15"><a xlink:href="_s_l_enums_8h.html" target="_top" xlink:title=" ">
<polygon fill="white" stroke="black" points="239,-728.5 239,-747.5 307,-747.5 307,-728.5 239,-728.5"/>
<text text-anchor="middle" x="273" y="-735.5" font-family="Arial" font-size="10.00">SLEnums.h</text>
</a>
</g>
</g>
<!-- Node1&#45;&gt;Node15 -->
<g id="edge92" class="edge">
<title>Node1&#45;&gt;Node15</title>
<path fill="none" stroke="midnightblue" d="M156.33,-1008.5C175.8,-991.44 216,-950.91 216,-907 216,-907 216,-907 216,-849 216,-812.3 241.32,-775.66 258.21,-755.3"/>
<polygon fill="midnightblue" stroke="midnightblue" points="260.95,-757.48 264.83,-747.62 255.65,-752.9 260.95,-757.48"/>
</g>
<!-- Node35 -->
<g id="node35" class="node">
<title>Node35</title>
<g id="a_node35"><a xlink:href="_s_l_mesh_8h.html" target="_top" xlink:title=" ">
<polygon fill="white" stroke="black" points="472.5,-784.5 472.5,-803.5 533.5,-803.5 533.5,-784.5 472.5,-784.5"/>
<text text-anchor="middle" x="503" y="-791.5" font-family="Arial" font-size="10.00">SLMesh.h</text>
</a>
</g>
</g>
<!-- Node1&#45;&gt;Node35 -->
<g id="edge93" class="edge">
<title>Node1&#45;&gt;Node35</title>
<path fill="none" stroke="midnightblue" d="M182.61,-1013.45C221.68,-1008.49 284.51,-997.09 333,-972 408.03,-933.18 468.82,-848.31 492.41,-812.01"/>
<polygon fill="midnightblue" stroke="midnightblue" points="495.41,-813.83 497.83,-803.52 489.51,-810.07 495.41,-813.83"/>
</g>
<!-- Node5 -->
<g id="node5" class="node">
<title>Node5</title>
<g id="a_node5"><a xlink:href="_utils_8h.html" target="_top" xlink:title=" ">
<polygon fill="white" stroke="black" points="897.5,-112.5 897.5,-131.5 942.5,-131.5 942.5,-112.5 897.5,-112.5"/>
<text text-anchor="middle" x="920" y="-119.5" font-family="Arial" font-size="10.00">Utils.h</text>
</a>
</g>
</g>
<!-- Node4&#45;&gt;Node5 -->
<g id="edge4" class="edge">
<title>Node4&#45;&gt;Node5</title>
<path fill="none" stroke="midnightblue" d="M380.46,-224.38C393.63,-209.84 422.6,-180.77 454,-168 532.85,-135.93 794.63,-126.22 887.21,-123.74"/>
<polygon fill="midnightblue" stroke="midnightblue" points="887.48,-127.24 897.39,-123.48 887.3,-120.24 887.48,-127.24"/>
</g>
<!-- Node6 -->
<g id="node6" class="node">
<title>Node6</title>
<g id="a_node6"><a xlink:title=" ">
<polygon fill="white" stroke="#bfbfbf" points="937.5,-0.5 937.5,-19.5 978.5,-19.5 978.5,-0.5 937.5,-0.5"/>
<text text-anchor="middle" x="958" y="-7.5" font-family="Arial" font-size="10.00">string</text>
</a>
</g>
</g>
<!-- Node5&#45;&gt;Node6 -->
<g id="edge5" class="edge">
<title>Node5&#45;&gt;Node6</title>
<path fill="none" stroke="midnightblue" d="M935.78,-112.47C948.2,-104.77 964.61,-92.18 972,-76 978.88,-60.94 973.66,-42.35 967.73,-28.91"/>
<polygon fill="midnightblue" stroke="midnightblue" points="970.8,-27.22 963.25,-19.79 964.52,-30.31 970.8,-27.22"/>
</g>
<!-- Node7 -->
<g id="node7" class="node">
<title>Node7</title>
<g id="a_node7"><a xlink:title=" ">
<polygon fill="white" stroke="#bfbfbf" points="1113,-56.5 1113,-75.5 1157,-75.5 1157,-56.5 1113,-56.5"/>
<text text-anchor="middle" x="1135" y="-63.5" font-family="Arial" font-size="10.00">vector</text>
</a>
</g>
</g>
<!-- Node5&#45;&gt;Node7 -->
<g id="edge6" class="edge">
<title>Node5&#45;&gt;Node7</title>
<path fill="none" stroke="midnightblue" d="M942.6,-115.32C980.93,-105.7 1058.79,-86.14 1102.8,-75.09"/>
<polygon fill="midnightblue" stroke="midnightblue" points="1103.85,-78.43 1112.7,-72.6 1102.15,-71.64 1103.85,-78.43"/>
</g>
<!-- Node8 -->
<g id="node8" class="node">
<title>Node8</title>
<g id="a_node8"><a xlink:title=" ">
<polygon fill="white" stroke="#bfbfbf" points="1019.5,-56.5 1019.5,-75.5 1060.5,-75.5 1060.5,-56.5 1019.5,-56.5"/>
<text text-anchor="middle" x="1040" y="-63.5" font-family="Arial" font-size="10.00">cfloat</text>
</a>
</g>
</g>
<!-- Node5&#45;&gt;Node8 -->
<g id="edge7" class="edge">
<title>Node5&#45;&gt;Node8</title>
<path fill="none" stroke="midnightblue" d="M939.01,-112.44C958.59,-103.64 989.31,-89.81 1011.73,-79.72"/>
<polygon fill="midnightblue" stroke="midnightblue" points="1013.39,-82.81 1021.07,-75.52 1010.52,-76.43 1013.39,-82.81"/>
</g>
<!-- Node9 -->
<g id="node9" class="node">
<title>Node9</title>
<g id="a_node9"><a xlink:title=" ">
<polygon fill="white" stroke="#bfbfbf" points="791,-0.5 791,-19.5 843,-19.5 843,-0.5 791,-0.5"/>
<text text-anchor="middle" x="817" y="-7.5" font-family="Arial" font-size="10.00">memory</text>
</a>
</g>
</g>
<!-- Node5&#45;&gt;Node9 -->
<g id="edge8" class="edge">
<title>Node5&#45;&gt;Node9</title>
<path fill="none" stroke="midnightblue" d="M897.21,-119.18C850.65,-114.94 747.19,-102.66 726,-76 706.52,-51.48 747.72,-32.05 780.86,-21.04"/>
<polygon fill="midnightblue" stroke="midnightblue" points="782.34,-24.24 790.82,-17.89 780.23,-17.57 782.34,-24.24"/>
</g>
<!-- Node10 -->
<g id="node10" class="node">
<title>Node10</title>
<g id="a_node10"><a xlink:href="_file_log_8h.html" target="_top" xlink:title=" ">
<polygon fill="white" stroke="black" points="813,-56.5 813,-75.5 869,-75.5 869,-56.5 813,-56.5"/>
<text text-anchor="middle" x="841" y="-63.5" font-family="Arial" font-size="10.00">FileLog.h</text>
</a>
</g>
</g>
<!-- Node5&#45;&gt;Node10 -->
<g id="edge9" class="edge">
<title>Node5&#45;&gt;Node10</title>
<path fill="none" stroke="midnightblue" d="M907.31,-112.32C895.1,-103.98 876.42,-91.21 862,-81.35"/>
<polygon fill="midnightblue" stroke="midnightblue" points="863.89,-78.41 853.66,-75.65 859.94,-84.19 863.89,-78.41"/>
</g>
<!-- Node11 -->
<g id="node11" class="node">
<title>Node11</title>
<g id="a_node11"><a xlink:href="_custom_log_8h.html" target="_top" xlink:title=" ">
<polygon fill="white" stroke="black" points="887.5,-56.5 887.5,-75.5 962.5,-75.5 962.5,-56.5 887.5,-56.5"/>
<text text-anchor="middle" x="925" y="-63.5" font-family="Arial" font-size="10.00">CustomLog.h</text>
</a>
</g>
</g>
<!-- Node5&#45;&gt;Node11 -->
<g id="edge12" class="edge">
<title>Node5&#45;&gt;Node11</title>
<path fill="none" stroke="midnightblue" d="M920.83,-112.08C921.48,-105.01 922.42,-94.86 923.24,-85.99"/>
<polygon fill="midnightblue" stroke="midnightblue" points="926.75,-86.03 924.19,-75.75 919.78,-85.39 926.75,-86.03"/>
</g>
<!-- Node12 -->
<g id="node12" class="node">
<title>Node12</title>
<g id="a_node12"><a xlink:title=" ">
<polygon fill="white" stroke="#bfbfbf" points="735.5,-56.5 735.5,-75.5 794.5,-75.5 794.5,-56.5 735.5,-56.5"/>
<text text-anchor="middle" x="765" y="-63.5" font-family="Arial" font-size="10.00">functional</text>
</a>
</g>
</g>
<!-- Node5&#45;&gt;Node12 -->
<g id="edge15" class="edge">
<title>Node5&#45;&gt;Node12</title>
<path fill="none" stroke="midnightblue" d="M897.46,-113.15C871.66,-104.16 829.12,-89.34 799.23,-78.92"/>
<polygon fill="midnightblue" stroke="midnightblue" points="800.21,-75.56 789.62,-75.58 797.91,-82.17 800.21,-75.56"/>
</g>
<!-- Node10&#45;&gt;Node2 -->
<g id="edge11" class="edge">
<title>Node10&#45;&gt;Node2</title>
<path fill="none" stroke="midnightblue" d="M812.86,-57.93C809.55,-57.22 806.21,-56.56 803,-56 668.75,-32.66 507,-18.81 437.05,-13.5"/>
<polygon fill="midnightblue" stroke="midnightblue" points="437.25,-10.01 427.02,-12.75 436.73,-16.99 437.25,-10.01"/>
</g>
<!-- Node10&#45;&gt;Node6 -->
<g id="edge10" class="edge">
<title>Node10&#45;&gt;Node6</title>
<path fill="none" stroke="midnightblue" d="M859.54,-56.44C878.62,-47.64 908.57,-33.81 930.44,-23.72"/>
<polygon fill="midnightblue" stroke="midnightblue" points="931.93,-26.88 939.55,-19.52 929,-20.53 931.93,-26.88"/>
</g>
<!-- Node11&#45;&gt;Node6 -->
<g id="edge14" class="edge">
<title>Node11&#45;&gt;Node6</title>
<path fill="none" stroke="midnightblue" d="M930.45,-56.08C935.01,-48.61 941.67,-37.72 947.29,-28.52"/>
<polygon fill="midnightblue" stroke="midnightblue" points="950.42,-30.11 952.65,-19.75 944.45,-26.46 950.42,-30.11"/>
</g>
<!-- Node11&#45;&gt;Node9 -->
<g id="edge13" class="edge">
<title>Node11&#45;&gt;Node9</title>
<path fill="none" stroke="midnightblue" d="M907.65,-56.32C890.33,-47.66 863.48,-34.24 843.5,-24.25"/>
<polygon fill="midnightblue" stroke="midnightblue" points="844.82,-21 834.31,-19.65 841.69,-27.26 844.82,-21"/>
</g>
<!-- Node14 -->
<g id="node14" class="node">
<title>Node14</title>
<g id="a_node14"><a xlink:href="_s_l_anim_track_8h.html" target="_top" xlink:title=" ">
<polygon fill="white" stroke="black" points="104,-784.5 104,-803.5 188,-803.5 188,-784.5 104,-784.5"/>
<text text-anchor="middle" x="146" y="-791.5" font-family="Arial" font-size="10.00">SLAnimTrack.h</text>
</a>
</g>
</g>
<!-- Node13&#45;&gt;Node14 -->
<g id="edge17" class="edge">
<title>Node13&#45;&gt;Node14</title>
<path fill="none" stroke="midnightblue" d="M274.93,-952.32C265.81,-943.46 251.49,-929.17 240,-916 208.97,-880.43 175.79,-836.04 158.36,-812.14"/>
<polygon fill="midnightblue" stroke="midnightblue" points="160.99,-809.81 152.29,-803.78 155.33,-813.92 160.99,-809.81"/>
</g>
<!-- Node13&#45;&gt;Node15 -->
<g id="edge54" class="edge">
<title>Node13&#45;&gt;Node15</title>
<path fill="none" stroke="midnightblue" d="M283.57,-952.3C281.95,-919.63 276.21,-803.87 273.94,-757.96"/>
<polygon fill="midnightblue" stroke="midnightblue" points="277.43,-757.7 273.44,-747.88 270.44,-758.04 277.43,-757.7"/>
</g>
<!-- Node31 -->
<g id="node31" class="node">
<title>Node31</title>
<g id="a_node31"><a xlink:href="_s_l_joint_8h.html" target="_top" xlink:title=" ">
<polygon fill="white" stroke="black" points="330,-896.5 330,-915.5 388,-915.5 388,-896.5 330,-896.5"/>
<text text-anchor="middle" x="359" y="-903.5" font-family="Arial" font-size="10.00">SLJoint.h</text>
</a>
</g>
</g>
<!-- Node13&#45;&gt;Node31 -->
<g id="edge55" class="edge">
<title>Node13&#45;&gt;Node31</title>
<path fill="none" stroke="midnightblue" d="M296.05,-952.32C307.46,-944.11 324.83,-931.6 338.43,-921.81"/>
<polygon fill="midnightblue" stroke="midnightblue" points="340.66,-924.52 346.73,-915.83 336.57,-918.84 340.66,-924.52"/>
</g>
<!-- Node14&#45;&gt;Node3 -->
<g id="edge18" class="edge">
<title>Node14&#45;&gt;Node3</title>
<path fill="none" stroke="midnightblue" d="M140.88,-784.08C136.59,-776.61 130.34,-765.72 125.06,-756.52"/>
<polygon fill="midnightblue" stroke="midnightblue" points="128.04,-754.68 120.02,-747.75 121.97,-758.17 128.04,-754.68"/>
</g>
<!-- Node14&#45;&gt;Node15 -->
<g id="edge19" class="edge">
<title>Node14&#45;&gt;Node15</title>
<path fill="none" stroke="midnightblue" d="M166.12,-784.44C187.02,-775.56 219.93,-761.56 243.72,-751.45"/>
<polygon fill="midnightblue" stroke="midnightblue" points="245.14,-754.65 252.97,-747.52 242.4,-748.21 245.14,-754.65"/>
</g>
<!-- Node16 -->
<g id="node16" class="node">
<title>Node16</title>
<g id="a_node16"><a xlink:href="_s_l_anim_keyframe_8h.html" target="_top" xlink:title=" ">
<polygon fill="white" stroke="black" points="635.5,-448.5 635.5,-467.5 736.5,-467.5 736.5,-448.5 635.5,-448.5"/>
<text text-anchor="middle" x="686" y="-455.5" font-family="Arial" font-size="10.00">SLAnimKeyframe.h</text>
</a>
</g>
</g>
<!-- Node14&#45;&gt;Node16 -->
<g id="edge20" class="edge">
<title>Node14&#45;&gt;Node16</title>
<path fill="none" stroke="midnightblue" d="M153.46,-784.18C177.37,-756.34 255.25,-669 335,-616 440.76,-545.7 583.16,-493.19 649.35,-470.84"/>
<polygon fill="midnightblue" stroke="midnightblue" points="650.55,-474.13 658.92,-467.64 648.33,-467.49 650.55,-474.13"/>
</g>
<!-- Node16&#45;&gt;Node4 -->
<g id="edge21" class="edge">
<title>Node16&#45;&gt;Node4</title>
<path fill="none" stroke="midnightblue" d="M635.37,-456.4C587.54,-453.72 515.39,-444.05 462,-412 404.28,-377.34 382.79,-292.2 375.88,-254.04"/>
<polygon fill="midnightblue" stroke="midnightblue" points="379.27,-253.1 374.17,-243.81 372.36,-254.25 379.27,-253.1"/>
</g>
<!-- Node17 -->
<g id="node17" class="node">
<title>Node17</title>
<g id="a_node17"><a xlink:href="_s_l_quat4_8h.html" target="_top" xlink:title=" ">
<polygon fill="white" stroke="black" points="911.5,-392.5 911.5,-411.5 974.5,-411.5 974.5,-392.5 911.5,-392.5"/>
<text text-anchor="middle" x="943" y="-399.5" font-family="Arial" font-size="10.00">SLQuat4.h</text>
</a>
</g>
</g>
<!-- Node16&#45;&gt;Node17 -->
<g id="edge22" class="edge">
<title>Node16&#45;&gt;Node17</title>
<path fill="none" stroke="midnightblue" d="M726.72,-448.44C774.46,-438.41 853.15,-421.88 901.3,-411.76"/>
<polygon fill="midnightblue" stroke="midnightblue" points="902.31,-415.13 911.38,-409.64 900.87,-408.28 902.31,-415.13"/>
</g>
<!-- Node22 -->
<g id="node22" class="node">
<title>Node22</title>
<g id="a_node22"><a xlink:href="_s_l_vec3_8h.html" target="_top" xlink:title=" ">
<polygon fill="white" stroke="black" points="1238,-224.5 1238,-243.5 1296,-243.5 1296,-224.5 1238,-224.5"/>
<text text-anchor="middle" x="1267" y="-231.5" font-family="Arial" font-size="10.00">SLVec3.h</text>
</a>
</g>
</g>
<!-- Node16&#45;&gt;Node22 -->
<g id="edge53" class="edge">
<title>Node16&#45;&gt;Node22</title>
<path fill="none" stroke="midnightblue" d="M736.56,-456.82C812.64,-455.3 960.38,-447.53 1080,-412 1164.96,-386.77 1199.27,-375.92 1245,-300 1253.64,-285.65 1259.43,-267.45 1262.89,-253.96"/>
<polygon fill="midnightblue" stroke="midnightblue" points="1266.37,-254.46 1265.26,-243.93 1259.55,-252.86 1266.37,-254.46"/>
</g>
<!-- Node17&#45;&gt;Node5 -->
<g id="edge52" class="edge">
<title>Node17&#45;&gt;Node5</title>
<path fill="none" stroke="midnightblue" d="M911.47,-400.47C805.38,-397.84 468,-382.31 468,-291 468,-291 468,-291 468,-233 468,-146.71 782.93,-127.83 887.04,-123.95"/>
<polygon fill="midnightblue" stroke="midnightblue" points="887.4,-127.44 897.28,-123.59 887.16,-120.44 887.4,-127.44"/>
</g>
<!-- Node18 -->
<g id="node18" class="node">
<title>Node18</title>
<g id="a_node18"><a xlink:href="_s_l_math_8h.html" target="_top" xlink:title=" ">
<polygon fill="white" stroke="black" points="1180.5,-112.5 1180.5,-131.5 1239.5,-131.5 1239.5,-112.5 1180.5,-112.5"/>
<text text-anchor="middle" x="1210" y="-119.5" font-family="Arial" font-size="10.00">SLMath.h</text>
</a>
</g>
</g>
<!-- Node17&#45;&gt;Node18 -->
<g id="edge23" class="edge">
<title>Node17&#45;&gt;Node18</title>
<path fill="none" stroke="midnightblue" d="M972.09,-392.48C1013.24,-379.07 1088.48,-349.36 1134,-300 1177.58,-252.75 1198.56,-176.68 1206.31,-141.7"/>
<polygon fill="midnightblue" stroke="midnightblue" points="1209.74,-142.38 1208.38,-131.87 1202.89,-140.94 1209.74,-142.38"/>
</g>
<!-- Node19 -->
<g id="node19" class="node">
<title>Node19</title>
<g id="a_node19"><a xlink:href="_s_l_mat4_8h.html" target="_top" xlink:title=" ">
<polygon fill="white" stroke="black" points="911.5,-336.5 911.5,-355.5 970.5,-355.5 970.5,-336.5 911.5,-336.5"/>
<text text-anchor="middle" x="941" y="-343.5" font-family="Arial" font-size="10.00">SLMat4.h</text>
</a>
</g>
</g>
<!-- Node17&#45;&gt;Node19 -->
<g id="edge26" class="edge">
<title>Node17&#45;&gt;Node19</title>
<path fill="none" stroke="midnightblue" d="M942.67,-392.08C942.41,-385.01 942.03,-374.86 941.7,-365.99"/>
<polygon fill="midnightblue" stroke="midnightblue" points="945.19,-365.61 941.32,-355.75 938.2,-365.87 945.19,-365.61"/>
</g>
<!-- Node27 -->
<g id="node27" class="node">
<title>Node27</title>
<g id="a_node27"><a xlink:href="_s_l_vec4_8h.html" target="_top" xlink:title=" ">
<polygon fill="white" stroke="black" points="989,-280.5 989,-299.5 1047,-299.5 1047,-280.5 989,-280.5"/>
<text text-anchor="middle" x="1018" y="-287.5" font-family="Arial" font-size="10.00">SLVec4.h</text>
</a>
</g>
</g>
<!-- Node17&#45;&gt;Node27 -->
<g id="edge51" class="edge">
<title>Node17&#45;&gt;Node27</title>
<path fill="none" stroke="midnightblue" d="M950.8,-392.36C958.61,-383.54 970.75,-369.28 980,-356 990.72,-340.62 1001.36,-322.07 1008.64,-308.73"/>
<polygon fill="midnightblue" stroke="midnightblue" points="1011.85,-310.15 1013.5,-299.68 1005.68,-306.83 1011.85,-310.15"/>
</g>
<!-- Node18&#45;&gt;Node6 -->
<g id="edge25" class="edge">
<title>Node18&#45;&gt;Node6</title>
<path fill="none" stroke="midnightblue" d="M1206.64,-112.26C1200.71,-98.08 1187,-70.19 1166,-56 1111.4,-19.09 1031.9,-11.77 988.71,-10.72"/>
<polygon fill="midnightblue" stroke="midnightblue" points="988.6,-7.22 978.55,-10.58 988.5,-14.22 988.6,-7.22"/>
</g>
<!-- Node18&#45;&gt;Node7 -->
<g id="edge24" class="edge">
<title>Node18&#45;&gt;Node7</title>
<path fill="none" stroke="midnightblue" d="M1197.95,-112.32C1186.54,-104.11 1169.17,-91.6 1155.57,-81.81"/>
<polygon fill="midnightblue" stroke="midnightblue" points="1157.43,-78.84 1147.27,-75.83 1153.34,-84.52 1157.43,-78.84"/>
</g>
<!-- Node19&#45;&gt;Node5 -->
<g id="edge29" class="edge">
<title>Node19&#45;&gt;Node5</title>
<path fill="none" stroke="midnightblue" d="M941.25,-336.37C941.5,-327.32 941.86,-312.66 942,-300 942.1,-291.11 942.62,-288.87 942,-280 938.5,-229.83 928.79,-171.28 923.51,-141.89"/>
<polygon fill="midnightblue" stroke="midnightblue" points="926.91,-141.02 921.67,-131.81 920.03,-142.27 926.91,-141.02"/>
</g>
<!-- Node19&#45;&gt;Node18 -->
<g id="edge27" class="edge">
<title>Node19&#45;&gt;Node18</title>
<path fill="none" stroke="midnightblue" d="M970.74,-341.09C1014.86,-334.86 1100,-321.17 1170,-300 1232.18,-281.2 1246.33,-271.88 1305,-244 1352.42,-221.47 1382.08,-233.07 1409,-188 1413.56,-180.37 1414.55,-174.94 1409,-168 1389.5,-143.6 1302.43,-131.46 1250.14,-126.27"/>
<polygon fill="midnightblue" stroke="midnightblue" points="1250.15,-122.76 1239.86,-125.3 1249.49,-129.73 1250.15,-122.76"/>
</g>
<!-- Node20 -->
<g id="node20" class="node">
<title>Node20</title>
<g id="a_node20"><a xlink:title=" ">
<polygon fill="white" stroke="#bfbfbf" points="534.5,-280.5 534.5,-299.5 575.5,-299.5 575.5,-280.5 534.5,-280.5"/>
<text text-anchor="middle" x="555" y="-287.5" font-family="Arial" font-size="10.00">stack</text>
</a>
</g>
</g>
<!-- Node19&#45;&gt;Node20 -->
<g id="edge28" class="edge">
<title>Node19&#45;&gt;Node20</title>
<path fill="none" stroke="midnightblue" d="M911.08,-343.01C850.99,-338.64 711.29,-326.56 585.94,-300.11"/>
<polygon fill="midnightblue" stroke="midnightblue" points="586.3,-296.61 575.79,-297.93 584.83,-303.45 586.3,-296.61"/>
</g>
<!-- Node21 -->
<g id="node21" class="node">
<title>Node21</title>
<g id="a_node21"><a xlink:href="_s_l_mat3_8h.html" target="_top" xlink:title=" ">
<polygon fill="white" stroke="black" points="1065.5,-280.5 1065.5,-299.5 1124.5,-299.5 1124.5,-280.5 1065.5,-280.5"/>
<text text-anchor="middle" x="1095" y="-287.5" font-family="Arial" font-size="10.00">SLMat3.h</text>
</a>
</g>
</g>
<!-- Node19&#45;&gt;Node21 -->
<g id="edge30" class="edge">
<title>Node19&#45;&gt;Node21</title>
<path fill="none" stroke="midnightblue" d="M965.4,-336.44C991.2,-327.4 1032.08,-313.06 1061.02,-302.92"/>
<polygon fill="midnightblue" stroke="midnightblue" points="1062.43,-306.13 1070.71,-299.52 1060.12,-299.52 1062.43,-306.13"/>
</g>
<!-- Node19&#45;&gt;Node22 -->
<g id="edge42" class="edge">
<title>Node19&#45;&gt;Node22</title>
<path fill="none" stroke="midnightblue" d="M970.69,-340.23C1009.1,-333.57 1077.76,-320.01 1134,-300 1173.9,-285.81 1217.53,-262.96 1243.56,-248.47"/>
<polygon fill="midnightblue" stroke="midnightblue" points="1245.32,-251.5 1252.32,-243.55 1241.89,-245.4 1245.32,-251.5"/>
</g>
<!-- Node19&#45;&gt;Node27 -->
<g id="edge43" class="edge">
<title>Node19&#45;&gt;Node27</title>
<path fill="none" stroke="midnightblue" d="M953.37,-336.32C965.16,-328.06 983.13,-315.45 997.14,-305.63"/>
<polygon fill="midnightblue" stroke="midnightblue" points="999.48,-308.26 1005.66,-299.65 995.46,-302.53 999.48,-308.26"/>
</g>
<!-- Node28 -->
<g id="node28" class="node">
<title>Node28</title>
<g id="a_node28"><a xlink:title=" ">
<polygon fill="white" stroke="#bfbfbf" points="593.5,-280.5 593.5,-299.5 642.5,-299.5 642.5,-280.5 593.5,-280.5"/>
<text text-anchor="middle" x="618" y="-287.5" font-family="Arial" font-size="10.00">cassert</text>
</a>
</g>
</g>
<!-- Node19&#45;&gt;Node28 -->
<g id="edge48" class="edge">
<title>Node19&#45;&gt;Node28</title>
<path fill="none" stroke="midnightblue" d="M911.16,-341.49C860.06,-335.25 752.41,-321.04 652.72,-300.19"/>
<polygon fill="midnightblue" stroke="midnightblue" points="653.3,-296.73 642.79,-298.08 651.85,-303.58 653.3,-296.73"/>
</g>
<!-- Node29 -->
<g id="node29" class="node">
<title>Node29</title>
<g id="a_node29"><a xlink:title=" ">
<polygon fill="white" stroke="#bfbfbf" points="660.5,-280.5 660.5,-299.5 787.5,-299.5 787.5,-280.5 660.5,-280.5"/>
<text text-anchor="middle" x="724" y="-287.5" font-family="Arial" font-size="10.00">Shoemake/Decompose.h</text>
</a>
</g>
</g>
<!-- Node19&#45;&gt;Node29 -->
<g id="edge49" class="edge">
<title>Node19&#45;&gt;Node29</title>
<path fill="none" stroke="midnightblue" d="M911.28,-337.6C874.32,-328.41 810.88,-312.62 768.2,-302"/>
<polygon fill="midnightblue" stroke="midnightblue" points="768.91,-298.57 758.36,-299.55 767.22,-305.36 768.91,-298.57"/>
</g>
<!-- Node30 -->
<g id="node30" class="node">
<title>Node30</title>
<g id="a_node30"><a xlink:title=" ">
<polygon fill="white" stroke="#bfbfbf" points="805.5,-280.5 805.5,-299.5 932.5,-299.5 932.5,-280.5 805.5,-280.5"/>
<text text-anchor="middle" x="869" y="-287.5" font-family="Arial" font-size="10.00">Shoemake/EulerAngles.h</text>
</a>
</g>
</g>
<!-- Node19&#45;&gt;Node30 -->
<g id="edge50" class="edge">
<title>Node19&#45;&gt;Node30</title>
<path fill="none" stroke="midnightblue" d="M929.43,-336.32C918.58,-328.18 902.12,-315.84 889.12,-306.09"/>
<polygon fill="midnightblue" stroke="midnightblue" points="890.88,-303.03 880.78,-299.83 886.68,-308.63 890.88,-303.03"/>
</g>
<!-- Node21&#45;&gt;Node5 -->
<g id="edge32" class="edge">
<title>Node21&#45;&gt;Node5</title>
<path fill="none" stroke="midnightblue" d="M1071.51,-280.42C1053.38,-272.92 1028.52,-260.63 1011,-244 982.36,-216.82 989.36,-199.07 965,-168 956.75,-157.48 946.25,-146.86 937.47,-138.57"/>
<polygon fill="midnightblue" stroke="midnightblue" points="939.73,-135.89 930,-131.69 934.99,-141.04 939.73,-135.89"/>
</g>
<!-- Node21&#45;&gt;Node18 -->
<g id="edge31" class="edge">
<title>Node21&#45;&gt;Node18</title>
<path fill="none" stroke="midnightblue" d="M1109.94,-280.24C1122.71,-272.15 1140.89,-259.12 1153,-244 1178.68,-211.96 1196.08,-166.45 1204.39,-141.37"/>
<polygon fill="midnightblue" stroke="midnightblue" points="1207.77,-142.27 1207.47,-131.68 1201.1,-140.15 1207.77,-142.27"/>
</g>
<!-- Node21&#45;&gt;Node22 -->
<g id="edge33" class="edge">
<title>Node21&#45;&gt;Node22</title>
<path fill="none" stroke="midnightblue" d="M1122.25,-280.44C1151.44,-271.28 1197.92,-256.69 1230.31,-246.52"/>
<polygon fill="midnightblue" stroke="midnightblue" points="1231.38,-249.85 1239.87,-243.52 1229.28,-243.17 1231.38,-249.85"/>
</g>
<!-- Node25 -->
<g id="node25" class="node">
<title>Node25</title>
<g id="a_node25"><a xlink:title=" ">
<polygon fill="white" stroke="#bfbfbf" points="1090,-224.5 1090,-243.5 1144,-243.5 1144,-224.5 1090,-224.5"/>
<text text-anchor="middle" x="1117" y="-231.5" font-family="Arial" font-size="10.00">iostream</text>
</a>
</g>
</g>
<!-- Node21&#45;&gt;Node25 -->
<g id="edge40" class="edge">
<title>Node21&#45;&gt;Node25</title>
<path fill="none" stroke="midnightblue" d="M1098.63,-280.08C1101.61,-272.77 1105.93,-262.18 1109.62,-253.1"/>
<polygon fill="midnightblue" stroke="midnightblue" points="1112.9,-254.33 1113.43,-243.75 1106.42,-251.69 1112.9,-254.33"/>
</g>
<!-- Node26 -->
<g id="node26" class="node">
<title>Node26</title>
<g id="a_node26"><a xlink:title=" ">
<polygon fill="white" stroke="#bfbfbf" points="1020,-224.5 1020,-243.5 1072,-243.5 1072,-224.5 1020,-224.5"/>
<text text-anchor="middle" x="1046" y="-231.5" font-family="Arial" font-size="10.00">assert.h</text>
</a>
</g>
</g>
<!-- Node21&#45;&gt;Node26 -->
<g id="edge41" class="edge">
<title>Node21&#45;&gt;Node26</title>
<path fill="none" stroke="midnightblue" d="M1086.91,-280.08C1079.84,-272.3 1069.41,-260.8 1060.85,-251.37"/>
<polygon fill="midnightblue" stroke="midnightblue" points="1063.25,-248.8 1053.94,-243.75 1058.07,-253.51 1063.25,-248.8"/>
</g>
<!-- Node22&#45;&gt;Node5 -->
<g id="edge39" class="edge">
<title>Node22&#45;&gt;Node5</title>
<path fill="none" stroke="midnightblue" d="M1240.06,-224.46C1177.05,-204.49 1020.27,-154.79 952.29,-133.24"/>
<polygon fill="midnightblue" stroke="midnightblue" points="953.14,-129.83 942.55,-130.15 951.03,-136.51 953.14,-129.83"/>
</g>
<!-- Node22&#45;&gt;Node18 -->
<g id="edge35" class="edge">
<title>Node22&#45;&gt;Node18</title>
<path fill="none" stroke="midnightblue" d="M1275.95,-224.23C1287.93,-211.39 1306.41,-186.95 1295,-168 1284.99,-151.38 1266.56,-140.58 1249.41,-133.73"/>
<polygon fill="midnightblue" stroke="midnightblue" points="1250.13,-130.27 1239.53,-130.15 1247.74,-136.85 1250.13,-130.27"/>
</g>
<!-- Node23 -->
<g id="node23" class="node">
<title>Node23</title>
<g id="a_node23"><a xlink:title=" ">
<polygon fill="white" stroke="#bfbfbf" points="1238.5,-168.5 1238.5,-187.5 1285.5,-187.5 1285.5,-168.5 1238.5,-168.5"/>
<text text-anchor="middle" x="1262" y="-175.5" font-family="Arial" font-size="10.00">math.h</text>
</a>
</g>
</g>
<!-- Node22&#45;&gt;Node23 -->
<g id="edge34" class="edge">
<title>Node22&#45;&gt;Node23</title>
<path fill="none" stroke="midnightblue" d="M1266.17,-224.08C1265.52,-217.01 1264.58,-206.86 1263.76,-197.99"/>
<polygon fill="midnightblue" stroke="midnightblue" points="1267.22,-197.39 1262.81,-187.75 1260.25,-198.03 1267.22,-197.39"/>
</g>
<!-- Node24 -->
<g id="node24" class="node">
<title>Node24</title>
<g id="a_node24"><a xlink:href="_s_l_vec2_8h.html" target="_top" xlink:title=" ">
<polygon fill="white" stroke="black" points="1342,-168.5 1342,-187.5 1400,-187.5 1400,-168.5 1342,-168.5"/>
<text text-anchor="middle" x="1371" y="-175.5" font-family="Arial" font-size="10.00">SLVec2.h</text>
</a>
</g>
</g>
<!-- Node22&#45;&gt;Node24 -->
<g id="edge36" class="edge">
<title>Node22&#45;&gt;Node24</title>
<path fill="none" stroke="midnightblue" d="M1283.71,-224.32C1300.31,-215.7 1326,-202.36 1345.22,-192.39"/>
<polygon fill="midnightblue" stroke="midnightblue" points="1347.07,-195.37 1354.33,-187.65 1343.84,-189.16 1347.07,-195.37"/>
</g>
<!-- Node24&#45;&gt;Node5 -->
<g id="edge38" class="edge">
<title>Node24&#45;&gt;Node5</title>
<path fill="none" stroke="midnightblue" d="M1341.76,-173.5C1261.27,-163.86 1036.85,-136.99 952.56,-126.9"/>
<polygon fill="midnightblue" stroke="midnightblue" points="952.88,-123.41 942.53,-125.7 952.04,-130.36 952.88,-123.41"/>
</g>
<!-- Node24&#45;&gt;Node18 -->
<g id="edge37" class="edge">
<title>Node24&#45;&gt;Node18</title>
<path fill="none" stroke="midnightblue" d="M1345.49,-168.44C1318.4,-159.36 1275.41,-144.94 1245.13,-134.78"/>
<polygon fill="midnightblue" stroke="midnightblue" points="1245.99,-131.38 1235.39,-131.52 1243.76,-138.01 1245.99,-131.38"/>
</g>
<!-- Node27&#45;&gt;Node4 -->
<g id="edge44" class="edge">
<title>Node27&#45;&gt;Node4</title>
<path fill="none" stroke="midnightblue" d="M988.8,-285.27C974.67,-283.54 957.47,-281.53 942,-280 735.1,-259.58 485.16,-242.4 401.69,-236.87"/>
<polygon fill="midnightblue" stroke="midnightblue" points="401.9,-233.38 391.69,-236.21 401.44,-240.36 401.9,-233.38"/>
</g>
<!-- Node27&#45;&gt;Node5 -->
<g id="edge47" class="edge">
<title>Node27&#45;&gt;Node5</title>
<path fill="none" stroke="midnightblue" d="M1012.73,-280.08C997.1,-253.61 950.82,-175.21 930.16,-140.21"/>
<polygon fill="midnightblue" stroke="midnightblue" points="933.16,-138.4 925.06,-131.57 927.13,-141.96 933.16,-138.4"/>
</g>
<!-- Node27&#45;&gt;Node22 -->
<g id="edge46" class="edge">
<title>Node27&#45;&gt;Node22</title>
<path fill="none" stroke="midnightblue" d="M1047.38,-282.17C1050.62,-281.43 1053.88,-280.69 1057,-280 1116.51,-266.76 1185.68,-252.07 1227.88,-243.19"/>
<polygon fill="midnightblue" stroke="midnightblue" points="1228.69,-246.6 1237.75,-241.12 1227.25,-239.75 1228.69,-246.6"/>
</g>
<!-- Node27&#45;&gt;Node24 -->
<g id="edge45" class="edge">
<title>Node27&#45;&gt;Node24</title>
<path fill="none" stroke="midnightblue" d="M1013.37,-280.18C1006.84,-266.39 997.18,-239.66 1011,-224 1012.32,-222.5 1238.83,-194.97 1331.83,-183.73"/>
<polygon fill="midnightblue" stroke="midnightblue" points="1332.46,-187.18 1341.97,-182.5 1331.62,-180.23 1332.46,-187.18"/>
</g>
<!-- Node32 -->
<g id="node32" class="node">
<title>Node32</title>
<g id="a_node32"><a xlink:href="_s_l_node_8h.html" target="_top" xlink:title=" ">
<polygon fill="white" stroke="black" points="357,-840.5 357,-859.5 417,-859.5 417,-840.5 357,-840.5"/>
<text text-anchor="middle" x="387" y="-847.5" font-family="Arial" font-size="10.00">SLNode.h</text>
</a>
</g>
</g>
<!-- Node31&#45;&gt;Node32 -->
<g id="edge56" class="edge">
<title>Node31&#45;&gt;Node32</title>
<path fill="none" stroke="midnightblue" d="M363.62,-896.08C367.46,-888.69 373.02,-877.95 377.76,-868.81"/>
<polygon fill="midnightblue" stroke="midnightblue" points="380.97,-870.24 382.46,-859.75 374.75,-867.02 380.97,-870.24"/>
</g>
<!-- Node32&#45;&gt;Node15 -->
<g id="edge59" class="edge">
<title>Node32&#45;&gt;Node15</title>
<path fill="none" stroke="midnightblue" d="M366.71,-840.48C350.21,-832.79 327.11,-820.2 311,-804 297.63,-790.56 287.21,-771.48 280.69,-757.47"/>
<polygon fill="midnightblue" stroke="midnightblue" points="283.72,-755.66 276.48,-747.93 277.32,-758.49 283.72,-755.66"/>
</g>
<!-- Node32&#45;&gt;Node17 -->
<g id="edge91" class="edge">
<title>Node32&#45;&gt;Node17</title>
<path fill="none" stroke="midnightblue" d="M417.31,-846.49C536.45,-836.25 966,-795.4 966,-739 966,-739 966,-739 966,-513 966,-480.12 956.03,-442.86 949.22,-421.24"/>
<polygon fill="midnightblue" stroke="midnightblue" points="952.54,-420.12 946.1,-411.71 945.89,-422.3 952.54,-420.12"/>
</g>
<!-- Node33 -->
<g id="node33" class="node">
<title>Node33</title>
<g id="a_node33"><a xlink:href="_s_l_draw_bits_8h.html" target="_top" xlink:title=" ">
<polygon fill="white" stroke="black" points="300.5,-672.5 300.5,-691.5 377.5,-691.5 377.5,-672.5 300.5,-672.5"/>
<text text-anchor="middle" x="339" y="-679.5" font-family="Arial" font-size="10.00">SLDrawBits.h</text>
</a>
</g>
</g>
<!-- Node32&#45;&gt;Node33 -->
<g id="edge57" class="edge">
<title>Node32&#45;&gt;Node33</title>
<path fill="none" stroke="midnightblue" d="M398.14,-840.25C412.01,-828.22 432.95,-805.59 425,-784 411.79,-748.1 379.51,-716.26 358.47,-698.33"/>
<polygon fill="midnightblue" stroke="midnightblue" points="360.44,-695.41 350.5,-691.74 355.98,-700.81 360.44,-695.41"/>
</g>
<!-- Node34 -->
<g id="node34" class="node">
<title>Node34</title>
<g id="a_node34"><a xlink:href="_s_l_event_handler_8h.html" target="_top" xlink:title=" ">
<polygon fill="white" stroke="black" points="320,-784.5 320,-803.5 416,-803.5 416,-784.5 320,-784.5"/>
<text text-anchor="middle" x="368" y="-791.5" font-family="Arial" font-size="10.00">SLEventHandler.h</text>
</a>
</g>
</g>
<!-- Node32&#45;&gt;Node34 -->
<g id="edge60" class="edge">
<title>Node32&#45;&gt;Node34</title>
<path fill="none" stroke="midnightblue" d="M383.86,-840.08C381.32,-832.85 377.64,-822.41 374.47,-813.4"/>
<polygon fill="midnightblue" stroke="midnightblue" points="377.7,-812.02 371.08,-803.75 371.1,-814.35 377.7,-812.02"/>
</g>
<!-- Node32&#45;&gt;Node35 -->
<g id="edge63" class="edge">
<title>Node32&#45;&gt;Node35</title>
<path fill="none" stroke="midnightblue" d="M405.38,-840.44C424.22,-831.68 453.73,-817.94 475.38,-807.86"/>
<polygon fill="midnightblue" stroke="midnightblue" points="477.12,-810.91 484.71,-803.52 474.16,-804.56 477.12,-810.91"/>
</g>
<!-- Node33&#45;&gt;Node4 -->
<g id="edge58" class="edge">
<title>Node33&#45;&gt;Node4</title>
<path fill="none" stroke="midnightblue" d="M333.37,-672.42C318.27,-648.53 278,-578.86 278,-515 278,-515 278,-515 278,-345 278,-301.74 320.61,-267.09 348.75,-248.91"/>
<polygon fill="midnightblue" stroke="midnightblue" points="350.66,-251.85 357.31,-243.6 346.97,-245.9 350.66,-251.85"/>
</g>
<!-- Node34&#45;&gt;Node4 -->
<g id="edge61" class="edge">
<title>Node34&#45;&gt;Node4</title>
<path fill="none" stroke="midnightblue" d="M360.91,-784.3C344.06,-763.53 302.22,-711.36 291,-692 261.74,-641.5 240,-629.36 240,-571 240,-571 240,-571 240,-345 240,-291.11 305.64,-258.65 344.69,-244.1"/>
<polygon fill="midnightblue" stroke="midnightblue" points="345.98,-247.36 354.23,-240.71 343.63,-240.77 345.98,-247.36"/>
</g>
<!-- Node34&#45;&gt;Node15 -->
<g id="edge62" class="edge">
<title>Node34&#45;&gt;Node15</title>
<path fill="none" stroke="midnightblue" d="M352.74,-784.32C337.78,-775.82 314.75,-762.73 297.27,-752.8"/>
<polygon fill="midnightblue" stroke="midnightblue" points="298.65,-749.55 288.23,-747.65 295.19,-755.64 298.65,-749.55"/>
</g>
<!-- Node35&#45;&gt;Node15 -->
<g id="edge85" class="edge">
<title>Node35&#45;&gt;Node15</title>
<path fill="none" stroke="midnightblue" d="M472.46,-785.83C432.58,-776.47 362.51,-760.02 316.94,-749.32"/>
<polygon fill="midnightblue" stroke="midnightblue" points="317.58,-745.87 307.04,-746.99 315.98,-752.69 317.58,-745.87"/>
</g>
<!-- Node36 -->
<g id="node36" class="node">
<title>Node36</title>
<g id="a_node36"><a xlink:href="_s_l_a_a_b_box_8h.html" target="_top" xlink:title=" ">
<polygon fill="white" stroke="black" points="625,-728.5 625,-747.5 699,-747.5 699,-728.5 625,-728.5"/>
<text text-anchor="middle" x="662" y="-735.5" font-family="Arial" font-size="10.00">SLAABBox.h</text>
</a>
</g>
</g>
<!-- Node35&#45;&gt;Node36 -->
<g id="edge64" class="edge">
<title>Node35&#45;&gt;Node36</title>
<path fill="none" stroke="midnightblue" d="M528.19,-784.44C554.94,-775.36 597.4,-760.94 627.31,-750.78"/>
<polygon fill="midnightblue" stroke="midnightblue" points="628.58,-754.05 636.92,-747.52 626.33,-747.42 628.58,-754.05"/>
</g>
<!-- Node38 -->
<g id="node38" class="node">
<title>Node38</title>
<g id="a_node38"><a xlink:href="_s_l_g_l_vertex_array_8h.html" target="_top" xlink:title=" ">
<polygon fill="white" stroke="black" points="774.5,-560.5 774.5,-579.5 873.5,-579.5 873.5,-560.5 774.5,-560.5"/>
<text text-anchor="middle" x="824" y="-567.5" font-family="Arial" font-size="10.00">SLGLVertexArray.h</text>
</a>
</g>
</g>
<!-- Node35&#45;&gt;Node38 -->
<g id="edge86" class="edge">
<title>Node35&#45;&gt;Node38</title>
<path fill="none" stroke="midnightblue" d="M498.63,-784.31C494.44,-775.44 488.4,-761.14 486,-748 477.82,-703.18 478.3,-639.63 502,-616 537.83,-580.28 681.39,-572.52 764.22,-571.08"/>
<polygon fill="midnightblue" stroke="midnightblue" points="764.31,-574.58 774.25,-570.93 764.2,-567.58 764.31,-574.58"/>
</g>
<!-- Node43 -->
<g id="node43" class="node">
<title>Node43</title>
<g id="a_node43"><a xlink:href="_s_l_object_8h.html" target="_top" xlink:title=" ">
<polygon fill="white" stroke="black" points="344.5,-616.5 344.5,-635.5 409.5,-635.5 409.5,-616.5 344.5,-616.5"/>
<text text-anchor="middle" x="377" y="-623.5" font-family="Arial" font-size="10.00">SLObject.h</text>
</a>
</g>
</g>
<!-- Node35&#45;&gt;Node43 -->
<g id="edge87" class="edge">
<title>Node35&#45;&gt;Node43</title>
<path fill="none" stroke="midnightblue" d="M491.85,-784.47C481.14,-775.95 464.88,-762.12 453,-748 424.65,-714.3 399.07,-669.15 386.05,-644.63"/>
<polygon fill="midnightblue" stroke="midnightblue" points="389.15,-643 381.41,-635.76 382.94,-646.25 389.15,-643"/>
</g>
<!-- Node44 -->
<g id="node44" class="node">
<title>Node44</title>
<g id="a_node44"><a xlink:href="_s_l_optix_accel_struct_8h.html" target="_top" xlink:title=" ">
<polygon fill="white" stroke="black" points="495.5,-728.5 495.5,-747.5 606.5,-747.5 606.5,-728.5 495.5,-728.5"/>
<text text-anchor="middle" x="551" y="-735.5" font-family="Arial" font-size="10.00">SLOptixAccelStruct.h</text>
</a>
</g>
</g>
<!-- Node35&#45;&gt;Node44 -->
<g id="edge89" class="edge">
<title>Node35&#45;&gt;Node44</title>
<path fill="none" stroke="midnightblue" d="M510.93,-784.08C517.85,-776.3 528.07,-764.8 536.45,-755.37"/>
<polygon fill="midnightblue" stroke="midnightblue" points="539.19,-757.55 543.22,-747.75 533.96,-752.9 539.19,-757.55"/>
</g>
<!-- Node45 -->
<g id="node45" class="node">
<title>Node45</title>
<g id="a_node45"><a xlink:href="_s_l_optix_definitions_8h.html" target="_top" xlink:title=" ">
<polygon fill="white" stroke="black" points="717.5,-728.5 717.5,-747.5 824.5,-747.5 824.5,-728.5 717.5,-728.5"/>
<text text-anchor="middle" x="771" y="-735.5" font-family="Arial" font-size="10.00">SLOptixDefinitions.h</text>
</a>
</g>
</g>
<!-- Node35&#45;&gt;Node45 -->
<g id="edge90" class="edge">
<title>Node35&#45;&gt;Node45</title>
<path fill="none" stroke="midnightblue" d="M533.74,-786.81C578.92,-777.7 663.81,-760.6 718.85,-749.51"/>
<polygon fill="midnightblue" stroke="midnightblue" points="719.65,-752.92 728.76,-747.51 718.27,-746.06 719.65,-752.92"/>
</g>
<!-- Node36&#45;&gt;Node19 -->
<g id="edge79" class="edge">
<title>Node36&#45;&gt;Node19</title>
<path fill="none" stroke="midnightblue" d="M627,-728.49C564,-710.84 438,-663.93 438,-571 438,-571 438,-571 438,-457 438,-362.31 782.48,-349.01 901.29,-347.24"/>
<polygon fill="midnightblue" stroke="midnightblue" points="901.46,-350.74 911.41,-347.11 901.37,-343.74 901.46,-350.74"/>
</g>
<!-- Node37 -->
<g id="node37" class="node">
<title>Node37</title>
<g id="a_node37"><a xlink:href="_s_l_g_l_vertex_array_ext_8h.html" target="_top" xlink:title=" ">
<polygon fill="white" stroke="black" points="511.5,-616.5 511.5,-635.5 626.5,-635.5 626.5,-616.5 511.5,-616.5"/>
<text text-anchor="middle" x="569" y="-623.5" font-family="Arial" font-size="10.00">SLGLVertexArrayExt.h</text>
</a>
</g>
</g>
<!-- Node36&#45;&gt;Node37 -->
<g id="edge65" class="edge">
<title>Node36&#45;&gt;Node37</title>
<path fill="none" stroke="midnightblue" d="M654.7,-728.37C639.22,-710.05 602.86,-667.05 582.83,-643.36"/>
<polygon fill="midnightblue" stroke="midnightblue" points="585.39,-640.97 576.26,-635.59 580.05,-645.49 585.39,-640.97"/>
</g>
<!-- Node42 -->
<g id="node42" class="node">
<title>Node42</title>
<g id="a_node42"><a xlink:href="_s_l_rect_8h.html" target="_top" xlink:title=" ">
<polygon fill="white" stroke="black" points="633,-672.5 633,-691.5 691,-691.5 691,-672.5 633,-672.5"/>
<text text-anchor="middle" x="662" y="-679.5" font-family="Arial" font-size="10.00">SLRect.h</text>
</a>
</g>
</g>
<!-- Node36&#45;&gt;Node42 -->
<g id="edge80" class="edge">
<title>Node36&#45;&gt;Node42</title>
<path fill="none" stroke="midnightblue" d="M662,-728.08C662,-721.01 662,-710.86 662,-701.99"/>
<polygon fill="midnightblue" stroke="midnightblue" points="665.5,-701.75 662,-691.75 658.5,-701.75 665.5,-701.75"/>
</g>
<!-- Node37&#45;&gt;Node38 -->
<g id="edge66" class="edge">
<title>Node37&#45;&gt;Node38</title>
<path fill="none" stroke="midnightblue" d="M609.41,-616.44C653.98,-607 725.77,-591.8 773.89,-581.61"/>
<polygon fill="midnightblue" stroke="midnightblue" points="774.73,-585.01 783.78,-579.52 773.28,-578.16 774.73,-585.01"/>
</g>
<!-- Node39 -->
<g id="node39" class="node">
<title>Node39</title>
<g id="a_node39"><a xlink:href="_s_l_g_l_enums_8h.html" target="_top" xlink:title=" ">
<polygon fill="white" stroke="black" points="994,-448.5 994,-467.5 1074,-467.5 1074,-448.5 994,-448.5"/>
<text text-anchor="middle" x="1034" y="-455.5" font-family="Arial" font-size="10.00">SLGLEnums.h</text>
</a>
</g>
</g>
<!-- Node38&#45;&gt;Node39 -->
<g id="edge67" class="edge">
<title>Node38&#45;&gt;Node39</title>
<path fill="none" stroke="midnightblue" d="M840.48,-560.37C876.97,-541.25 964.84,-495.23 1008.49,-472.36"/>
<polygon fill="midnightblue" stroke="midnightblue" points="1010.36,-475.33 1017.6,-467.59 1007.12,-469.13 1010.36,-475.33"/>
</g>
<!-- Node41 -->
<g id="node41" class="node">
<title>Node41</title>
<g id="a_node41"><a xlink:href="_s_l_g_l_vertex_buffer_8h.html" target="_top" xlink:title=" ">
<polygon fill="white" stroke="black" points="1178,-504.5 1178,-523.5 1280,-523.5 1280,-504.5 1178,-504.5"/>
<text text-anchor="middle" x="1229" y="-511.5" font-family="Arial" font-size="10.00">SLGLVertexBuffer.h</text>
</a>
</g>
</g>
<!-- Node38&#45;&gt;Node41 -->
<g id="edge74" class="edge">
<title>Node38&#45;&gt;Node41</title>
<path fill="none" stroke="midnightblue" d="M873.66,-562.38C947.9,-552.48 1087.66,-533.85 1168,-523.13"/>
<polygon fill="midnightblue" stroke="midnightblue" points="1168.53,-526.59 1177.98,-521.8 1167.6,-519.66 1168.53,-526.59"/>
</g>
<!-- Node39&#45;&gt;Node4 -->
<g id="edge68" class="edge">
<title>Node39&#45;&gt;Node4</title>
<path fill="none" stroke="midnightblue" d="M993.68,-454.09C877.41,-445.06 544.07,-414.58 454,-356 443.82,-349.38 403.3,-284.55 383.71,-252.6"/>
<polygon fill="midnightblue" stroke="midnightblue" points="386.56,-250.56 378.36,-243.85 380.59,-254.21 386.56,-250.56"/>
</g>
<!-- Node40 -->
<g id="node40" class="node">
<title>Node40</title>
<g id="a_node40"><a xlink:href="_s_l_g_l_state_8h.html" target="_top" xlink:title=" ">
<polygon fill="white" stroke="black" points="997.5,-392.5 997.5,-411.5 1070.5,-411.5 1070.5,-392.5 997.5,-392.5"/>
<text text-anchor="middle" x="1034" y="-399.5" font-family="Arial" font-size="10.00">SLGLState.h</text>
</a>
</g>
</g>
<!-- Node39&#45;&gt;Node40 -->
<g id="edge69" class="edge">
<title>Node39&#45;&gt;Node40</title>
<path fill="none" stroke="midnightblue" d="M1034,-448.08C1034,-441.01 1034,-430.86 1034,-421.99"/>
<polygon fill="midnightblue" stroke="midnightblue" points="1037.5,-421.75 1034,-411.75 1030.5,-421.75 1037.5,-421.75"/>
</g>
<!-- Node40&#45;&gt;Node4 -->
<g id="edge70" class="edge">
<title>Node40&#45;&gt;Node4</title>
<path fill="none" stroke="midnightblue" d="M997.33,-394.18C888.24,-373.83 570.51,-314.08 525,-300 479.43,-285.9 428.96,-262.71 399.16,-248.18"/>
<polygon fill="midnightblue" stroke="midnightblue" points="400.4,-244.89 389.88,-243.61 397.31,-251.17 400.4,-244.89"/>
</g>
<!-- Node40&#45;&gt;Node19 -->
<g id="edge73" class="edge">
<title>Node40&#45;&gt;Node19</title>
<path fill="none" stroke="midnightblue" d="M1019.06,-392.32C1004.41,-383.82 981.87,-370.73 964.76,-360.8"/>
<polygon fill="midnightblue" stroke="midnightblue" points="966.31,-357.65 955.9,-355.65 962.8,-363.7 966.31,-357.65"/>
</g>
<!-- Node40&#45;&gt;Node22 -->
<g id="edge71" class="edge">
<title>Node40&#45;&gt;Node22</title>
<path fill="none" stroke="midnightblue" d="M1070.62,-394.33C1098.82,-387.91 1137.79,-376.12 1167,-356 1207.8,-327.9 1241.08,-278.7 1256.94,-252.53"/>
<polygon fill="midnightblue" stroke="midnightblue" points="1260.08,-254.11 1262.15,-243.72 1254.05,-250.55 1260.08,-254.11"/>
</g>
<!-- Node40&#45;&gt;Node27 -->
<g id="edge72" class="edge">
<title>Node40&#45;&gt;Node27</title>
<path fill="none" stroke="midnightblue" d="M1032.74,-392.37C1030.16,-374.62 1024.21,-333.67 1020.71,-309.6"/>
<polygon fill="midnightblue" stroke="midnightblue" points="1024.15,-308.98 1019.25,-299.59 1017.23,-309.99 1024.15,-308.98"/>
</g>
<!-- Node41&#45;&gt;Node22 -->
<g id="edge77" class="edge">
<title>Node41&#45;&gt;Node22</title>
<path fill="none" stroke="midnightblue" d="M1240.54,-504.43C1261.8,-487.57 1305,-447.8 1305,-403 1305,-403 1305,-403 1305,-345 1305,-310.81 1288.4,-273.76 1277.14,-252.57"/>
<polygon fill="midnightblue" stroke="midnightblue" points="1280.18,-250.83 1272.28,-243.77 1274.05,-254.22 1280.18,-250.83"/>
</g>
<!-- Node41&#45;&gt;Node24 -->
<g id="edge76" class="edge">
<title>Node41&#45;&gt;Node24</title>
<path fill="none" stroke="midnightblue" d="M1248.79,-504.45C1264.16,-496.89 1284.98,-484.51 1298,-468 1364.17,-384.12 1371.09,-247.58 1371.29,-197.86"/>
<polygon fill="midnightblue" stroke="midnightblue" points="1374.79,-197.63 1371.24,-187.65 1367.79,-197.67 1374.79,-197.63"/>
</g>
<!-- Node41&#45;&gt;Node27 -->
<g id="edge78" class="edge">
<title>Node41&#45;&gt;Node27</title>
<path fill="none" stroke="midnightblue" d="M1220.73,-504.3C1189.02,-470.94 1074.95,-350.92 1033.34,-307.13"/>
<polygon fill="midnightblue" stroke="midnightblue" points="1035.87,-304.72 1026.44,-299.88 1030.8,-309.54 1035.87,-304.72"/>
</g>
<!-- Node41&#45;&gt;Node39 -->
<g id="edge75" class="edge">
<title>Node41&#45;&gt;Node39</title>
<path fill="none" stroke="midnightblue" d="M1198.1,-504.44C1164.73,-495.2 1111.41,-480.44 1074.65,-470.26"/>
<polygon fill="midnightblue" stroke="midnightblue" points="1075.33,-466.81 1064.75,-467.52 1073.46,-473.56 1075.33,-466.81"/>
</g>
<!-- Node42&#45;&gt;Node4 -->
<g id="edge81" class="edge">
<title>Node42&#45;&gt;Node4</title>
<path fill="none" stroke="midnightblue" d="M659.61,-672.5C655.73,-659.58 647.25,-634.56 635,-616 548.87,-485.5 468.76,-495.43 398,-356 386.04,-332.43 383.51,-325.85 378,-300 374.72,-284.59 373.53,-266.72 373.12,-253.62"/>
<polygon fill="midnightblue" stroke="midnightblue" points="376.62,-253.45 372.94,-243.52 369.62,-253.58 376.62,-253.45"/>
</g>
<!-- Node42&#45;&gt;Node22 -->
<g id="edge84" class="edge">
<title>Node42&#45;&gt;Node22</title>
<path fill="none" stroke="midnightblue" d="M691.08,-679.68C825.59,-673.18 1381,-642.03 1381,-571 1381,-571 1381,-571 1381,-401 1381,-335.21 1319.4,-276.44 1286.76,-249.92"/>
<polygon fill="midnightblue" stroke="midnightblue" points="1288.79,-247.06 1278.77,-243.61 1284.44,-252.55 1288.79,-247.06"/>
</g>
<!-- Node42&#45;&gt;Node24 -->
<g id="edge83" class="edge">
<title>Node42&#45;&gt;Node24</title>
<path fill="none" stroke="midnightblue" d="M691.17,-677.65C818.01,-662.4 1318.64,-594.7 1395,-468 1448.75,-378.82 1399.98,-245.1 1379.27,-197.02"/>
<polygon fill="midnightblue" stroke="midnightblue" points="1382.46,-195.6 1375.21,-187.87 1376.06,-198.43 1382.46,-195.6"/>
</g>
<!-- Node42&#45;&gt;Node37 -->
<g id="edge82" class="edge">
<title>Node42&#45;&gt;Node37</title>
<path fill="none" stroke="midnightblue" d="M647.06,-672.32C632.41,-663.82 609.87,-650.73 592.76,-640.8"/>
<polygon fill="midnightblue" stroke="midnightblue" points="594.31,-637.65 583.9,-635.65 590.8,-643.7 594.31,-637.65"/>
</g>
<!-- Node43&#45;&gt;Node4 -->
<g id="edge88" class="edge">
<title>Node43&#45;&gt;Node4</title>
<path fill="none" stroke="midnightblue" d="M368.26,-616.49C351.39,-599.12 316,-557.58 316,-515 316,-515 316,-515 316,-345 316,-308.3 341.32,-271.66 358.21,-251.3"/>
<polygon fill="midnightblue" stroke="midnightblue" points="360.95,-253.48 364.83,-243.62 355.65,-248.9 360.95,-253.48"/>
</g>
</g>
</svg>
