<?xml version="1.0" encoding="UTF-8" standalone="no"?>
<!DOCTYPE svg PUBLIC "-//W3C//DTD SVG 1.1//EN"
 "http://www.w3.org/Graphics/SVG/1.1/DTD/svg11.dtd">
<!-- Generated by graphviz version 2.28.0 (20110507.0327)
 -->
<!-- Title: SLCoordAxis.cpp Pages: 1 -->
<svg width="400pt" height="476pt"
 viewBox="0.00 0.00 400.00 476.00" xmlns="http://www.w3.org/2000/svg" xmlns:xlink="http://www.w3.org/1999/xlink">
<g id="graph1" class="graph" transform="scale(1 1) rotate(0) translate(4 472)">
<title>SLCoordAxis.cpp</title>
<polygon fill="white" stroke="white" points="-4,5 -4,-472 397,-472 397,5 -4,5"/>
<!-- Node1 -->
<g id="node1" class="node"><title>Node1</title>
<polygon fill="#bfbfbf" stroke="black" points="19.5,-448.5 19.5,-467.5 116.5,-467.5 116.5,-448.5 19.5,-448.5"/>
<text text-anchor="middle" x="68" y="-455.5" font-family="Arial.ttf" font-size="10.00">SLCoordAxis.cpp</text>
</g>
<!-- Node2 -->
<g id="node3" class="node"><title>Node2</title>
<polygon fill="white" stroke="#bfbfbf" points="105.5,-0.5 105.5,-19.5 160.5,-19.5 160.5,-0.5 105.5,-0.5"/>
<text text-anchor="middle" x="133" y="-7.5" font-family="Arial.ttf" font-size="10.00">stdafx.h</text>
</g>
<!-- Node1&#45;&gt;Node2 -->
<g id="edge2" class="edge"><title>Node1&#45;&gt;Node2</title>
<path fill="none" stroke="midnightblue" d="M57.9664,-448.433C39.051,-431.268 0,-390.556 0,-347 0,-347 0,-347 0,-121 0,-70.7254 57.1293,-39.1005 96.5033,-23.2746"/>
<polygon fill="midnightblue" stroke="midnightblue" points="98.0081,-26.4459 106.085,-19.5897 95.4955,-19.9123 98.0081,-26.4459"/>
</g>
<!-- Node3 -->
<g id="node5" class="node"><title>Node3</title>
<a xlink:href="_s_l_coord_axis_8h.html" target="_top" xlink:title="SLCoordAxis.h">
<polygon fill="white" stroke="black" points="94,-392.5 94,-411.5 180,-411.5 180,-392.5 94,-392.5"/>
<text text-anchor="middle" x="137" y="-399.5" font-family="Arial.ttf" font-size="10.00">SLCoordAxis.h</text>
</a>
</g>
<!-- Node1&#45;&gt;Node3 -->
<g id="edge4" class="edge"><title>Node1&#45;&gt;Node3</title>
<path fill="none" stroke="midnightblue" d="M79.086,-448.324C89.486,-440.185 105.261,-427.839 117.722,-418.087"/>
<polygon fill="midnightblue" stroke="midnightblue" points="119.994,-420.753 125.712,-411.834 115.68,-415.241 119.994,-420.753"/>
</g>
<!-- Node3&#45;&gt;Node2 -->
<g id="edge6" class="edge"><title>Node3&#45;&gt;Node2</title>
<path fill="none" stroke="midnightblue" d="M120.206,-392.318C91.9609,-376.374 38,-339.559 38,-291 38,-291 38,-291 38,-121 38,-77.7385 80.6084,-43.0862 108.755,-24.9149"/>
<polygon fill="midnightblue" stroke="midnightblue" points="110.661,-27.851 117.313,-19.6042 106.97,-21.9032 110.661,-27.851"/>
</g>
<!-- Node4 -->
<g id="node8" class="node"><title>Node4</title>
<a xlink:href="_s_l_mesh_8h.html" target="_top" xlink:title="SLMesh.h">
<polygon fill="white" stroke="black" points="141.5,-336.5 141.5,-355.5 204.5,-355.5 204.5,-336.5 141.5,-336.5"/>
<text text-anchor="middle" x="173" y="-343.5" font-family="Arial.ttf" font-size="10.00">SLMesh.h</text>
</a>
</g>
<!-- Node3&#45;&gt;Node4 -->
<g id="edge8" class="edge"><title>Node3&#45;&gt;Node4</title>
<path fill="none" stroke="midnightblue" d="M142.945,-392.083C147.977,-384.534 155.337,-373.495 161.513,-364.23"/>
<polygon fill="midnightblue" stroke="midnightblue" points="164.531,-366.013 167.166,-355.751 158.707,-362.13 164.531,-366.013"/>
</g>
<!-- Node10 -->
<g id="node28" class="node"><title>Node10</title>
<a xlink:href="_s_l_enums_8h.html" target="_top" xlink:title="SLEnums.h">
<polygon fill="white" stroke="black" points="320.5,-280.5 320.5,-299.5 391.5,-299.5 391.5,-280.5 320.5,-280.5"/>
<text text-anchor="middle" x="356" y="-287.5" font-family="Arial.ttf" font-size="10.00">SLEnums.h</text>
</a>
</g>
<!-- Node3&#45;&gt;Node10 -->
<g id="edge38" class="edge"><title>Node3&#45;&gt;Node10</title>
<path fill="none" stroke="midnightblue" d="M154.185,-392.368C192.325,-373.211 284.257,-327.036 329.686,-304.217"/>
<polygon fill="midnightblue" stroke="midnightblue" points="331.53,-307.208 338.895,-299.591 328.388,-300.952 331.53,-307.208"/>
</g>
<!-- Node4&#45;&gt;Node2 -->
<g id="edge10" class="edge"><title>Node4&#45;&gt;Node2</title>
<path fill="none" stroke="midnightblue" d="M156.982,-336.482C129.432,-320.537 76,-283.377 76,-235 76,-235 76,-235 76,-121 76,-84.3005 101.321,-47.6567 118.21,-27.2973"/>
<polygon fill="midnightblue" stroke="midnightblue" points="120.954,-29.475 124.833,-19.6161 115.652,-24.9037 120.954,-29.475"/>
</g>
<!-- Node5 -->
<g id="node11" class="node"><title>Node5</title>
<a xlink:href="_s_l_a_a_b_box_8h.html" target="_top" xlink:title="SLAABBox.h">
<polygon fill="white" stroke="black" points="135,-280.5 135,-299.5 211,-299.5 211,-280.5 135,-280.5"/>
<text text-anchor="middle" x="173" y="-287.5" font-family="Arial.ttf" font-size="10.00">SLAABBox.h</text>
</a>
</g>
<!-- Node4&#45;&gt;Node5 -->
<g id="edge12" class="edge"><title>Node4&#45;&gt;Node5</title>
<path fill="none" stroke="midnightblue" d="M173,-336.083C173,-329.006 173,-318.861 173,-309.986"/>
<polygon fill="midnightblue" stroke="midnightblue" points="176.5,-309.751 173,-299.751 169.5,-309.751 176.5,-309.751"/>
</g>
<!-- Node7 -->
<g id="node17" class="node"><title>Node7</title>
<a xlink:href="_s_l_g_l_vertex_array_8h.html" target="_top" xlink:title="SLGLVertexArray.h">
<polygon fill="white" stroke="black" points="186.5,-168.5 186.5,-187.5 293.5,-187.5 293.5,-168.5 186.5,-168.5"/>
<text text-anchor="middle" x="240" y="-175.5" font-family="Arial.ttf" font-size="10.00">SLGLVertexArray.h</text>
</a>
</g>
<!-- Node4&#45;&gt;Node7 -->
<g id="edge34" class="edge"><title>Node4&#45;&gt;Node7</title>
<path fill="none" stroke="midnightblue" d="M187.158,-336.286C210.44,-321.001 255.93,-286.869 273,-244 279.836,-226.832 268.138,-208.102 256.825,-195.177"/>
<polygon fill="midnightblue" stroke="midnightblue" points="259.063,-192.45 249.645,-187.597 253.981,-197.264 259.063,-192.45"/>
</g>
<!-- Node4&#45;&gt;Node10 -->
<g id="edge36" class="edge"><title>Node4&#45;&gt;Node10</title>
<path fill="none" stroke="midnightblue" d="M201.997,-336.444C233.185,-327.241 282.93,-312.562 317.408,-302.388"/>
<polygon fill="midnightblue" stroke="midnightblue" points="318.538,-305.704 327.139,-299.516 316.557,-298.99 318.538,-305.704"/>
</g>
<!-- Node5&#45;&gt;Node2 -->
<g id="edge14" class="edge"><title>Node5&#45;&gt;Node2</title>
<path fill="none" stroke="midnightblue" d="M163.073,-280.296C154.023,-271.856 140.896,-258.267 133,-244 118.425,-217.667 114,-209.098 114,-179 114,-179 114,-179 114,-121 114,-88.4885 122.159,-51.3503 127.784,-29.6103"/>
<polygon fill="midnightblue" stroke="midnightblue" points="131.218,-30.3175 130.438,-19.7514 124.459,-28.498 131.218,-30.3175"/>
</g>
<!-- Node6 -->
<g id="node14" class="node"><title>Node6</title>
<a xlink:href="_s_l_g_l_vertex_array_ext_8h.html" target="_top" xlink:title="SLGLVertexArrayExt.h">
<polygon fill="white" stroke="black" points="142,-224.5 142,-243.5 264,-243.5 264,-224.5 142,-224.5"/>
<text text-anchor="middle" x="203" y="-231.5" font-family="Arial.ttf" font-size="10.00">SLGLVertexArrayExt.h</text>
</a>
</g>
<!-- Node5&#45;&gt;Node6 -->
<g id="edge16" class="edge"><title>Node5&#45;&gt;Node6</title>
<path fill="none" stroke="midnightblue" d="M177.954,-280.083C182.104,-272.613 188.153,-261.724 193.267,-252.52"/>
<polygon fill="midnightblue" stroke="midnightblue" points="196.341,-254.192 198.138,-243.751 190.222,-250.793 196.341,-254.192"/>
</g>
<!-- Node6&#45;&gt;Node2 -->
<g id="edge18" class="edge"><title>Node6&#45;&gt;Node2</title>
<path fill="none" stroke="midnightblue" d="M197.054,-224.409C191.21,-215.618 182.405,-201.386 177,-188 154.622,-132.582 141.324,-62.666 135.881,-29.7552"/>
<polygon fill="midnightblue" stroke="midnightblue" points="139.315,-29.0646 134.282,-19.7419 132.403,-30.1688 139.315,-29.0646"/>
</g>
<!-- Node6&#45;&gt;Node7 -->
<g id="edge20" class="edge"><title>Node6&#45;&gt;Node7</title>
<path fill="none" stroke="midnightblue" d="M209.11,-224.083C214.282,-216.534 221.846,-205.495 228.194,-196.23"/>
<polygon fill="midnightblue" stroke="midnightblue" points="231.239,-197.979 234.004,-187.751 225.464,-194.022 231.239,-197.979"/>
</g>
<!-- Node7&#45;&gt;Node2 -->
<g id="edge22" class="edge"><title>Node7&#45;&gt;Node2</title>
<path fill="none" stroke="midnightblue" d="M235.038,-168.336C223.465,-148.255 193.57,-97.1043 166,-56 159.659,-46.5462 152.187,-36.2907 145.958,-27.961"/>
<polygon fill="midnightblue" stroke="midnightblue" points="148.619,-25.6772 139.799,-19.8074 143.033,-29.8964 148.619,-25.6772"/>
</g>
<!-- Node8 -->
<g id="node20" class="node"><title>Node8</title>
<a xlink:href="_s_l_g_l_enums_8h.html" target="_top" xlink:title="SLGLEnums.h">
<polygon fill="white" stroke="black" points="218.5,-56.5 218.5,-75.5 301.5,-75.5 301.5,-56.5 218.5,-56.5"/>
<text text-anchor="middle" x="260" y="-63.5" font-family="Arial.ttf" font-size="10.00">SLGLEnums.h</text>
</a>
</g>
<!-- Node7&#45;&gt;Node8 -->
<g id="edge24" class="edge"><title>Node7&#45;&gt;Node8</title>
<path fill="none" stroke="midnightblue" d="M241.569,-168.368C244.797,-150.617 252.242,-109.666 256.619,-85.5974"/>
<polygon fill="midnightblue" stroke="midnightblue" points="260.093,-86.0562 258.438,-75.5914 253.205,-84.804 260.093,-86.0562"/>
</g>
<!-- Node9 -->
<g id="node23" class="node"><title>Node9</title>
<a xlink:href="_s_l_g_l_vertex_buffer_8h.html" target="_top" xlink:title="SLGLVertexBuffer.h">
<polygon fill="white" stroke="black" points="268,-112.5 268,-131.5 378,-131.5 378,-112.5 268,-112.5"/>
<text text-anchor="middle" x="323" y="-119.5" font-family="Arial.ttf" font-size="10.00">SLGLVertexBuffer.h</text>
</a>
</g>
<!-- Node7&#45;&gt;Node9 -->
<g id="edge28" class="edge"><title>Node7&#45;&gt;Node9</title>
<path fill="none" stroke="midnightblue" d="M253.335,-168.324C266.162,-159.979 285.785,-147.212 300.94,-137.352"/>
<polygon fill="midnightblue" stroke="midnightblue" points="303.224,-140.042 309.698,-131.655 299.407,-134.174 303.224,-140.042"/>
</g>
<!-- Node8&#45;&gt;Node2 -->
<g id="edge26" class="edge"><title>Node8&#45;&gt;Node2</title>
<path fill="none" stroke="midnightblue" d="M239.876,-56.4435C218.976,-47.5566 186.065,-33.5632 162.284,-23.4514"/>
<polygon fill="midnightblue" stroke="midnightblue" points="163.602,-20.2085 153.029,-19.5164 160.862,-26.6504 163.602,-20.2085"/>
</g>
<!-- Node9&#45;&gt;Node2 -->
<g id="edge30" class="edge"><title>Node9&#45;&gt;Node2</title>
<path fill="none" stroke="midnightblue" d="M323.954,-112.111C324.918,-98.2158 324.582,-71.3541 310,-56 291.071,-36.0687 216.589,-22.4934 170.488,-15.8074"/>
<polygon fill="midnightblue" stroke="midnightblue" points="170.942,-12.3368 160.551,-14.4088 169.966,-19.2685 170.942,-12.3368"/>
</g>
<!-- Node9&#45;&gt;Node8 -->
<g id="edge32" class="edge"><title>Node9&#45;&gt;Node8</title>
<path fill="none" stroke="midnightblue" d="M312.878,-112.324C303.474,-104.263 289.256,-92.0765 277.931,-82.3695"/>
<polygon fill="midnightblue" stroke="midnightblue" points="280.177,-79.6844 270.306,-75.8339 275.621,-84.9993 280.177,-79.6844"/>
</g>
</g>
</svg>
