<?xml version="1.0" encoding="UTF-8" standalone="no"?>
<!DOCTYPE svg PUBLIC "-//W3C//DTD SVG 1.1//EN"
 "http://www.w3.org/Graphics/SVG/1.1/DTD/svg11.dtd">
<!-- Generated by graphviz version 2.44.0 (20200408.0750)
 -->
<!-- Title: SLUniformGrid.cpp Pages: 1 -->
<svg width="2867pt" height="476pt"
 viewBox="0.00 0.00 2867.00 476.00" xmlns="http://www.w3.org/2000/svg" xmlns:xlink="http://www.w3.org/1999/xlink">
<g id="graph0" class="graph" transform="scale(1 1) rotate(0) translate(4 472)">
<title>SLUniformGrid.cpp</title>
<polygon fill="white" stroke="transparent" points="-4,4 -4,-472 2863,-472 2863,4 -4,4"/>
<!-- Node1 -->
<g id="node1" class="node">
<title>Node1</title>
<g id="a_node1"><a xlink:title=" ">
<polygon fill="#bfbfbf" stroke="black" points="334,-448.5 334,-467.5 434,-467.5 434,-448.5 334,-448.5"/>
<text text-anchor="middle" x="384" y="-455.5" font-family="Arial.ttf" font-size="10.00">SLUniformGrid.cpp</text>
</a>
</g>
</g>
<!-- Node2 -->
<g id="node2" class="node">
<title>Node2</title>
<g id="a_node2"><a xlink:href="stdafx_8h.html" target="_top" xlink:title=" ">
<polygon fill="white" stroke="red" points="1156,-336.5 1156,-355.5 1208,-355.5 1208,-336.5 1156,-336.5"/>
<text text-anchor="middle" x="1182" y="-343.5" font-family="Arial.ttf" font-size="10.00">stdafx.h</text>
</a>
</g>
</g>
<!-- Node1&#45;&gt;Node2 -->
<g id="edge1" class="edge">
<title>Node1&#45;&gt;Node2</title>
<path fill="none" stroke="midnightblue" d="M434.04,-448.65C473.14,-441.31 528.48,-429.12 575,-412 593.28,-405.27 595.26,-397.32 614,-392 714.62,-363.45 1036.55,-351.36 1145.54,-348.02"/>
<polygon fill="midnightblue" stroke="midnightblue" points="1145.81,-351.51 1155.7,-347.72 1145.6,-344.52 1145.81,-351.51"/>
</g>
<!-- Node51 -->
<g id="node43" class="node">
<title>Node51</title>
<g id="a_node43"><a xlink:href="_s_l_uniform_grid_8h.html" target="_top" xlink:title=" ">
<polygon fill="white" stroke="red" points="476.5,-392.5 476.5,-411.5 565.5,-411.5 565.5,-392.5 476.5,-392.5"/>
<text text-anchor="middle" x="521" y="-399.5" font-family="Arial.ttf" font-size="10.00">SLUniformGrid.h</text>
</a>
</g>
</g>
<!-- Node1&#45;&gt;Node51 -->
<g id="edge59" class="edge">
<title>Node1&#45;&gt;Node51</title>
<path fill="none" stroke="midnightblue" d="M405.71,-448.44C428.35,-439.52 464.07,-425.44 489.75,-415.32"/>
<polygon fill="midnightblue" stroke="midnightblue" points="491.37,-418.44 499.39,-411.52 488.81,-411.93 491.37,-418.44"/>
</g>
<!-- Node62 -->
<g id="node44" class="node">
<title>Node62</title>
<g id="a_node44"><a xlink:href="_s_l_node_8h.html" target="_top" xlink:title=" ">
<polygon fill="white" stroke="red" points="290,-336.5 290,-355.5 350,-355.5 350,-336.5 290,-336.5"/>
<text text-anchor="middle" x="320" y="-343.5" font-family="Arial.ttf" font-size="10.00">SLNode.h</text>
</a>
</g>
</g>
<!-- Node1&#45;&gt;Node62 -->
<g id="edge61" class="edge">
<title>Node1&#45;&gt;Node62</title>
<path fill="none" stroke="midnightblue" d="M372.39,-448.23C362.2,-439.95 347.67,-426.64 339,-412 330.48,-397.62 325.56,-379.16 322.87,-365.59"/>
<polygon fill="midnightblue" stroke="midnightblue" points="326.29,-364.78 321.11,-355.54 319.39,-365.99 326.29,-364.78"/>
</g>
<!-- Node65 -->
<g id="node45" class="node">
<title>Node65</title>
<g id="a_node45"><a xlink:href="_s_l_ray_8h.html" target="_top" xlink:title=" ">
<polygon fill="white" stroke="red" points="413.5,-336.5 413.5,-355.5 466.5,-355.5 466.5,-336.5 413.5,-336.5"/>
<text text-anchor="middle" x="440" y="-343.5" font-family="Arial.ttf" font-size="10.00">SLRay.h</text>
</a>
</g>
</g>
<!-- Node1&#45;&gt;Node65 -->
<g id="edge64" class="edge">
<title>Node1&#45;&gt;Node65</title>
<path fill="none" stroke="midnightblue" d="M395.7,-448.38C405.9,-440.19 420.25,-426.94 428,-412 435.51,-397.51 438.38,-379.07 439.45,-365.53"/>
<polygon fill="midnightblue" stroke="midnightblue" points="442.94,-365.68 439.98,-355.51 435.95,-365.31 442.94,-365.68"/>
</g>
<!-- Node78 -->
<g id="node46" class="node">
<title>Node78</title>
<g id="a_node46"><a xlink:href="_s_l_raytracer_8h.html" target="_top" xlink:title=" ">
<polygon fill="white" stroke="red" points="160.5,-336.5 160.5,-355.5 239.5,-355.5 239.5,-336.5 160.5,-336.5"/>
<text text-anchor="middle" x="200" y="-343.5" font-family="Arial.ttf" font-size="10.00">SLRaytracer.h</text>
</a>
</g>
</g>
<!-- Node1&#45;&gt;Node78 -->
<g id="edge65" class="edge">
<title>Node1&#45;&gt;Node78</title>
<path fill="none" stroke="midnightblue" d="M333.65,-451.85C284.18,-445.62 213.74,-433.25 197,-412 186.75,-398.99 189.22,-379.56 193.21,-365.33"/>
<polygon fill="midnightblue" stroke="midnightblue" points="196.59,-366.25 196.37,-355.66 189.94,-364.08 196.59,-366.25"/>
</g>
<!-- Node82 -->
<g id="node47" class="node">
<title>Node82</title>
<g id="a_node47"><a xlink:href="_s_l_scene_view_8h.html" target="_top" xlink:title=" ">
<polygon fill="white" stroke="red" points="206.5,-392.5 206.5,-411.5 291.5,-411.5 291.5,-392.5 206.5,-392.5"/>
<text text-anchor="middle" x="249" y="-399.5" font-family="Arial.ttf" font-size="10.00">SLSceneView.h</text>
</a>
</g>
</g>
<!-- Node1&#45;&gt;Node82 -->
<g id="edge67" class="edge">
<title>Node1&#45;&gt;Node82</title>
<path fill="none" stroke="midnightblue" d="M362.61,-448.44C340.29,-439.52 305.1,-425.44 279.79,-415.32"/>
<polygon fill="midnightblue" stroke="midnightblue" points="280.88,-411.98 270.29,-411.52 278.28,-418.48 280.88,-411.98"/>
</g>
<!-- Node84 -->
<g id="node48" class="node">
<title>Node84</title>
<g id="a_node48"><a xlink:href="_s_l_camera_8h.html" target="_top" xlink:title=" ">
<polygon fill="white" stroke="red" points="348.5,-392.5 348.5,-411.5 419.5,-411.5 419.5,-392.5 348.5,-392.5"/>
<text text-anchor="middle" x="384" y="-399.5" font-family="Arial.ttf" font-size="10.00">SLCamera.h</text>
</a>
</g>
</g>
<!-- Node1&#45;&gt;Node84 -->
<g id="edge70" class="edge">
<title>Node1&#45;&gt;Node84</title>
<path fill="none" stroke="midnightblue" d="M384,-448.08C384,-441.01 384,-430.86 384,-421.99"/>
<polygon fill="midnightblue" stroke="midnightblue" points="387.5,-421.75 384,-411.75 380.5,-421.75 387.5,-421.75"/>
</g>
<!-- Node68 -->
<g id="node49" class="node">
<title>Node68</title>
<g id="a_node49"><a xlink:href="_s_l_g_l_program_8h.html" target="_top" xlink:title=" ">
<polygon fill="white" stroke="red" points="56,-336.5 56,-355.5 142,-355.5 142,-336.5 56,-336.5"/>
<text text-anchor="middle" x="99" y="-343.5" font-family="Arial.ttf" font-size="10.00">SLGLProgram.h</text>
</a>
</g>
</g>
<!-- Node1&#45;&gt;Node68 -->
<g id="edge74" class="edge">
<title>Node1&#45;&gt;Node68</title>
<path fill="none" stroke="midnightblue" d="M333.72,-451.47C292.54,-445.57 233.53,-433.94 186,-412 158.89,-399.48 132.02,-377.57 115.47,-362.68"/>
<polygon fill="midnightblue" stroke="midnightblue" points="117.54,-359.83 107.82,-355.62 112.8,-364.98 117.54,-359.83"/>
</g>
<!-- Node110 -->
<g id="node50" class="node">
<title>Node110</title>
<g id="a_node50"><a xlink:href="_triangle_box_intersect_8h.html" target="_top" xlink:title=" ">
<polygon fill="white" stroke="red" points="622.5,-392.5 622.5,-411.5 737.5,-411.5 737.5,-392.5 622.5,-392.5"/>
<text text-anchor="middle" x="680" y="-399.5" font-family="Arial.ttf" font-size="10.00">TriangleBoxIntersect.h</text>
</a>
</g>
</g>
<!-- Node1&#45;&gt;Node110 -->
<g id="edge78" class="edge">
<title>Node1&#45;&gt;Node110</title>
<path fill="none" stroke="midnightblue" d="M430.9,-448.44C483.08,-438.92 567.37,-423.55 623.23,-413.36"/>
<polygon fill="midnightblue" stroke="midnightblue" points="624.11,-416.75 633.32,-411.52 622.85,-409.87 624.11,-416.75"/>
</g>
<!-- Node3 -->
<g id="node3" class="node">
<title>Node3</title>
<g id="a_node3"><a xlink:title=" ">
<polygon fill="white" stroke="#bfbfbf" points="2480,-280.5 2480,-299.5 2536,-299.5 2536,-280.5 2480,-280.5"/>
<text text-anchor="middle" x="2508" y="-287.5" font-family="Arial.ttf" font-size="10.00">algorithm</text>
</a>
</g>
</g>
<!-- Node2&#45;&gt;Node3 -->
<g id="edge2" class="edge">
<title>Node2&#45;&gt;Node3</title>
<path fill="none" stroke="midnightblue" d="M1208.1,-344.81C1365.82,-343.58 2193.67,-335.53 2469.85,-299.81"/>
<polygon fill="midnightblue" stroke="midnightblue" points="2470.38,-303.27 2479.83,-298.48 2469.46,-296.34 2470.38,-303.27"/>
</g>
<!-- Node4 -->
<g id="node4" class="node">
<title>Node4</title>
<g id="a_node4"><a xlink:title=" ">
<polygon fill="white" stroke="#bfbfbf" points="2554,-280.5 2554,-299.5 2600,-299.5 2600,-280.5 2554,-280.5"/>
<text text-anchor="middle" x="2577" y="-287.5" font-family="Arial.ttf" font-size="10.00">atomic</text>
</a>
</g>
</g>
<!-- Node2&#45;&gt;Node4 -->
<g id="edge3" class="edge">
<title>Node2&#45;&gt;Node4</title>
<path fill="none" stroke="midnightblue" d="M1208,-345C1370.82,-344.84 2252.29,-342.13 2543.61,-299.77"/>
<polygon fill="midnightblue" stroke="midnightblue" points="2544.36,-303.2 2553.72,-298.25 2543.31,-296.28 2544.36,-303.2"/>
</g>
<!-- Node5 -->
<g id="node5" class="node">
<title>Node5</title>
<g id="a_node5"><a xlink:title=" ">
<polygon fill="white" stroke="#bfbfbf" points="2618,-280.5 2618,-299.5 2664,-299.5 2664,-280.5 2618,-280.5"/>
<text text-anchor="middle" x="2641" y="-287.5" font-family="Arial.ttf" font-size="10.00">chrono</text>
</a>
</g>
</g>
<!-- Node2&#45;&gt;Node5 -->
<g id="edge4" class="edge">
<title>Node2&#45;&gt;Node5</title>
<path fill="none" stroke="midnightblue" d="M1208.12,-345.04C1375.74,-345.17 2302.75,-343.95 2607.58,-299.77"/>
<polygon fill="midnightblue" stroke="midnightblue" points="2608.36,-303.2 2617.73,-298.25 2607.32,-296.27 2608.36,-303.2"/>
</g>
<!-- Node6 -->
<g id="node6" class="node">
<title>Node6</title>
<g id="a_node6"><a xlink:title=" ">
<polygon fill="white" stroke="#bfbfbf" points="2682.5,-280.5 2682.5,-299.5 2731.5,-299.5 2731.5,-280.5 2682.5,-280.5"/>
<text text-anchor="middle" x="2707" y="-287.5" font-family="Arial.ttf" font-size="10.00">cstdarg</text>
</a>
</g>
</g>
<!-- Node2&#45;&gt;Node6 -->
<g id="edge5" class="edge">
<title>Node2&#45;&gt;Node6</title>
<path fill="none" stroke="midnightblue" d="M1208.15,-345.03C1380.24,-345.09 2352.9,-343.52 2672.09,-299.69"/>
<polygon fill="midnightblue" stroke="midnightblue" points="2672.84,-303.12 2682.25,-298.25 2671.86,-296.19 2672.84,-303.12"/>
</g>
<!-- Node7 -->
<g id="node7" class="node">
<title>Node7</title>
<g id="a_node7"><a xlink:title=" ">
<polygon fill="white" stroke="#bfbfbf" points="2749.5,-280.5 2749.5,-299.5 2790.5,-299.5 2790.5,-280.5 2749.5,-280.5"/>
<text text-anchor="middle" x="2770" y="-287.5" font-family="Arial.ttf" font-size="10.00">ctime</text>
</a>
</g>
</g>
<!-- Node2&#45;&gt;Node7 -->
<g id="edge6" class="edge">
<title>Node2&#45;&gt;Node7</title>
<path fill="none" stroke="midnightblue" d="M1208.28,-344.67C1396.81,-342.27 2541.55,-326.7 2739.31,-299.68"/>
<polygon fill="midnightblue" stroke="midnightblue" points="2739.89,-303.14 2749.25,-298.18 2738.84,-296.21 2739.89,-303.14"/>
</g>
<!-- Node8 -->
<g id="node8" class="node">
<title>Node8</title>
<g id="a_node8"><a xlink:title=" ">
<polygon fill="white" stroke="#bfbfbf" points="2809,-280.5 2809,-299.5 2859,-299.5 2859,-280.5 2809,-280.5"/>
<text text-anchor="middle" x="2834" y="-287.5" font-family="Arial.ttf" font-size="10.00">fstream</text>
</a>
</g>
</g>
<!-- Node2&#45;&gt;Node8 -->
<g id="edge7" class="edge">
<title>Node2&#45;&gt;Node8</title>
<path fill="none" stroke="midnightblue" d="M1208.29,-345.1C1389.27,-345.66 2453.34,-346.95 2798.87,-299.75"/>
<polygon fill="midnightblue" stroke="midnightblue" points="2799.47,-303.2 2808.88,-298.34 2798.49,-296.27 2799.47,-303.2"/>
</g>
<!-- Node9 -->
<g id="node9" class="node">
<title>Node9</title>
<g id="a_node9"><a xlink:title=" ">
<polygon fill="white" stroke="#bfbfbf" points="447.5,-280.5 447.5,-299.5 506.5,-299.5 506.5,-280.5 447.5,-280.5"/>
<text text-anchor="middle" x="477" y="-287.5" font-family="Arial.ttf" font-size="10.00">functional</text>
</a>
</g>
</g>
<!-- Node2&#45;&gt;Node9 -->
<g id="edge8" class="edge">
<title>Node2&#45;&gt;Node9</title>
<path fill="none" stroke="midnightblue" d="M1155.82,-344.73C1067.29,-343.49 771,-336.79 516.88,-299.87"/>
<polygon fill="midnightblue" stroke="midnightblue" points="517.12,-296.37 506.72,-298.37 516.1,-303.29 517.12,-296.37"/>
</g>
<!-- Node10 -->
<g id="node10" class="node">
<title>Node10</title>
<g id="a_node10"><a xlink:title=" ">
<polygon fill="white" stroke="#bfbfbf" points="525,-280.5 525,-299.5 575,-299.5 575,-280.5 525,-280.5"/>
<text text-anchor="middle" x="550" y="-287.5" font-family="Arial.ttf" font-size="10.00">iomanip</text>
</a>
</g>
</g>
<!-- Node2&#45;&gt;Node10 -->
<g id="edge9" class="edge">
<title>Node2&#45;&gt;Node10</title>
<path fill="none" stroke="midnightblue" d="M1155.83,-344.42C1072.55,-342.29 806.41,-333.14 589,-300 587.72,-299.81 586.43,-299.59 585.12,-299.36"/>
<polygon fill="midnightblue" stroke="midnightblue" points="585.56,-295.88 575.07,-297.37 584.2,-302.75 585.56,-295.88"/>
</g>
<!-- Node11 -->
<g id="node11" class="node">
<title>Node11</title>
<g id="a_node11"><a xlink:title=" ">
<polygon fill="white" stroke="#bfbfbf" points="673,-112.5 673,-131.5 727,-131.5 727,-112.5 673,-112.5"/>
<text text-anchor="middle" x="700" y="-119.5" font-family="Arial.ttf" font-size="10.00">iostream</text>
</a>
</g>
</g>
<!-- Node2&#45;&gt;Node11 -->
<g id="edge10" class="edge">
<title>Node2&#45;&gt;Node11</title>
<path fill="none" stroke="midnightblue" d="M1155.97,-344.08C1066.05,-340.68 772.25,-327.54 741,-300 717.32,-279.12 705.6,-182.67 701.62,-141.6"/>
<polygon fill="midnightblue" stroke="midnightblue" points="705.1,-141.23 700.7,-131.59 698.13,-141.87 705.1,-141.23"/>
</g>
<!-- Node12 -->
<g id="node12" class="node">
<title>Node12</title>
<g id="a_node12"><a xlink:title=" ">
<polygon fill="white" stroke="#bfbfbf" points="821.5,-280.5 821.5,-299.5 850.5,-299.5 850.5,-280.5 821.5,-280.5"/>
<text text-anchor="middle" x="836" y="-287.5" font-family="Arial.ttf" font-size="10.00">list</text>
</a>
</g>
</g>
<!-- Node2&#45;&gt;Node12 -->
<g id="edge11" class="edge">
<title>Node2&#45;&gt;Node12</title>
<path fill="none" stroke="midnightblue" d="M1155.75,-343.29C1101.93,-339.38 975.22,-328.05 860.55,-299.58"/>
<polygon fill="midnightblue" stroke="midnightblue" points="861.11,-296.11 850.56,-297.04 859.39,-302.89 861.11,-296.11"/>
</g>
<!-- Node13 -->
<g id="node13" class="node">
<title>Node13</title>
<g id="a_node13"><a xlink:title=" ">
<polygon fill="white" stroke="#bfbfbf" points="188.5,-280.5 188.5,-299.5 223.5,-299.5 223.5,-280.5 188.5,-280.5"/>
<text text-anchor="middle" x="206" y="-287.5" font-family="Arial.ttf" font-size="10.00">map</text>
</a>
</g>
</g>
<!-- Node2&#45;&gt;Node13 -->
<g id="edge12" class="edge">
<title>Node2&#45;&gt;Node13</title>
<path fill="none" stroke="midnightblue" d="M1155.72,-344.77C1024.2,-343.45 436.21,-335.75 233.64,-299.73"/>
<polygon fill="midnightblue" stroke="midnightblue" points="234.19,-296.27 223.72,-297.88 232.91,-303.15 234.19,-296.27"/>
</g>
<!-- Node14 -->
<g id="node14" class="node">
<title>Node14</title>
<g id="a_node14"><a xlink:title=" ">
<polygon fill="white" stroke="#bfbfbf" points="868.5,-280.5 868.5,-299.5 911.5,-299.5 911.5,-280.5 868.5,-280.5"/>
<text text-anchor="middle" x="890" y="-287.5" font-family="Arial.ttf" font-size="10.00">queue</text>
</a>
</g>
</g>
<!-- Node2&#45;&gt;Node14 -->
<g id="edge13" class="edge">
<title>Node2&#45;&gt;Node14</title>
<path fill="none" stroke="midnightblue" d="M1155.88,-341.48C1110.32,-335.14 1013.27,-320.7 921.6,-299.9"/>
<polygon fill="midnightblue" stroke="midnightblue" points="922.13,-296.43 911.6,-297.61 920.56,-303.26 922.13,-296.43"/>
</g>
<!-- Node15 -->
<g id="node15" class="node">
<title>Node15</title>
<g id="a_node15"><a xlink:title=" ">
<polygon fill="white" stroke="#bfbfbf" points="929.5,-280.5 929.5,-299.5 978.5,-299.5 978.5,-280.5 929.5,-280.5"/>
<text text-anchor="middle" x="954" y="-287.5" font-family="Arial.ttf" font-size="10.00">random</text>
</a>
</g>
</g>
<!-- Node2&#45;&gt;Node15 -->
<g id="edge14" class="edge">
<title>Node2&#45;&gt;Node15</title>
<path fill="none" stroke="midnightblue" d="M1155.89,-339.21C1120.33,-331.27 1054.45,-316.35 988.58,-300.08"/>
<polygon fill="midnightblue" stroke="midnightblue" points="989.41,-296.69 978.86,-297.68 987.72,-303.48 989.41,-296.69"/>
</g>
<!-- Node16 -->
<g id="node16" class="node">
<title>Node16</title>
<g id="a_node16"><a xlink:title=" ">
<polygon fill="white" stroke="#bfbfbf" points="997,-280.5 997,-299.5 1049,-299.5 1049,-280.5 997,-280.5"/>
<text text-anchor="middle" x="1023" y="-287.5" font-family="Arial.ttf" font-size="10.00">sstream</text>
</a>
</g>
</g>
<!-- Node2&#45;&gt;Node16 -->
<g id="edge15" class="edge">
<title>Node2&#45;&gt;Node16</title>
<path fill="none" stroke="midnightblue" d="M1156.81,-336.44C1130.06,-327.36 1087.6,-312.94 1057.69,-302.78"/>
<polygon fill="midnightblue" stroke="midnightblue" points="1058.67,-299.42 1048.08,-299.52 1056.42,-306.05 1058.67,-299.42"/>
</g>
<!-- Node17 -->
<g id="node17" class="node">
<title>Node17</title>
<g id="a_node17"><a xlink:title=" ">
<polygon fill="white" stroke="#bfbfbf" points="1067.5,-280.5 1067.5,-299.5 1108.5,-299.5 1108.5,-280.5 1067.5,-280.5"/>
<text text-anchor="middle" x="1088" y="-287.5" font-family="Arial.ttf" font-size="10.00">string</text>
</a>
</g>
</g>
<!-- Node2&#45;&gt;Node17 -->
<g id="edge16" class="edge">
<title>Node2&#45;&gt;Node17</title>
<path fill="none" stroke="midnightblue" d="M1166.9,-336.32C1152.1,-327.82 1129.31,-314.73 1112.02,-304.8"/>
<polygon fill="midnightblue" stroke="midnightblue" points="1113.48,-301.6 1103.07,-299.65 1109.99,-307.67 1113.48,-301.6"/>
</g>
<!-- Node18 -->
<g id="node18" class="node">
<title>Node18</title>
<g id="a_node18"><a xlink:title=" ">
<polygon fill="white" stroke="#bfbfbf" points="1127,-280.5 1127,-299.5 1171,-299.5 1171,-280.5 1127,-280.5"/>
<text text-anchor="middle" x="1149" y="-287.5" font-family="Arial.ttf" font-size="10.00">thread</text>
</a>
</g>
</g>
<!-- Node2&#45;&gt;Node18 -->
<g id="edge17" class="edge">
<title>Node2&#45;&gt;Node18</title>
<path fill="none" stroke="midnightblue" d="M1176.55,-336.08C1171.99,-328.61 1165.33,-317.72 1159.71,-308.52"/>
<polygon fill="midnightblue" stroke="midnightblue" points="1162.55,-306.46 1154.35,-299.75 1156.58,-310.11 1162.55,-306.46"/>
</g>
<!-- Node19 -->
<g id="node19" class="node">
<title>Node19</title>
<g id="a_node19"><a xlink:title=" ">
<polygon fill="white" stroke="#bfbfbf" points="1189.5,-280.5 1189.5,-299.5 1240.5,-299.5 1240.5,-280.5 1189.5,-280.5"/>
<text text-anchor="middle" x="1215" y="-287.5" font-family="Arial.ttf" font-size="10.00">typeinfo</text>
</a>
</g>
</g>
<!-- Node2&#45;&gt;Node19 -->
<g id="edge18" class="edge">
<title>Node2&#45;&gt;Node19</title>
<path fill="none" stroke="midnightblue" d="M1187.45,-336.08C1192.01,-328.61 1198.67,-317.72 1204.29,-308.52"/>
<polygon fill="midnightblue" stroke="midnightblue" points="1207.42,-310.11 1209.65,-299.75 1201.45,-306.46 1207.42,-310.11"/>
</g>
<!-- Node20 -->
<g id="node20" class="node">
<title>Node20</title>
<g id="a_node20"><a xlink:title=" ">
<polygon fill="white" stroke="#bfbfbf" points="1259,-280.5 1259,-299.5 1303,-299.5 1303,-280.5 1259,-280.5"/>
<text text-anchor="middle" x="1281" y="-287.5" font-family="Arial.ttf" font-size="10.00">vector</text>
</a>
</g>
</g>
<!-- Node2&#45;&gt;Node20 -->
<g id="edge19" class="edge">
<title>Node2&#45;&gt;Node20</title>
<path fill="none" stroke="midnightblue" d="M1197.91,-336.32C1213.64,-327.74 1237.94,-314.49 1256.21,-304.52"/>
<polygon fill="midnightblue" stroke="midnightblue" points="1258.03,-307.52 1265.13,-299.65 1254.68,-301.37 1258.03,-307.52"/>
</g>
<!-- Node21 -->
<g id="node21" class="node">
<title>Node21</title>
<g id="a_node21"><a xlink:title=" ">
<polygon fill="white" stroke="#bfbfbf" points="1321,-280.5 1321,-299.5 1373,-299.5 1373,-280.5 1321,-280.5"/>
<text text-anchor="middle" x="1347" y="-287.5" font-family="Arial.ttf" font-size="10.00">memory</text>
</a>
</g>
</g>
<!-- Node2&#45;&gt;Node21 -->
<g id="edge20" class="edge">
<title>Node2&#45;&gt;Node21</title>
<path fill="none" stroke="midnightblue" d="M1208.14,-336.44C1236.02,-327.32 1280.35,-312.81 1311.4,-302.65"/>
<polygon fill="midnightblue" stroke="midnightblue" points="1312.56,-305.95 1320.98,-299.52 1310.38,-299.3 1312.56,-305.95"/>
</g>
<!-- Node22 -->
<g id="node22" class="node">
<title>Node22</title>
<g id="a_node22"><a xlink:title=" ">
<polygon fill="white" stroke="#bfbfbf" points="1391.5,-280.5 1391.5,-299.5 1440.5,-299.5 1440.5,-280.5 1391.5,-280.5"/>
<text text-anchor="middle" x="1416" y="-287.5" font-family="Arial.ttf" font-size="10.00">cassert</text>
</a>
</g>
</g>
<!-- Node2&#45;&gt;Node22 -->
<g id="edge21" class="edge">
<title>Node2&#45;&gt;Node22</title>
<path fill="none" stroke="midnightblue" d="M1208.28,-339.42C1244.79,-331.59 1313.15,-316.67 1381.12,-300.14"/>
<polygon fill="midnightblue" stroke="midnightblue" points="1382.26,-303.47 1391.15,-297.69 1380.6,-296.67 1382.26,-303.47"/>
</g>
<!-- Node23 -->
<g id="node23" class="node">
<title>Node23</title>
<g id="a_node23"><a xlink:title=" ">
<polygon fill="white" stroke="#bfbfbf" points="1458.5,-280.5 1458.5,-299.5 1499.5,-299.5 1499.5,-280.5 1458.5,-280.5"/>
<text text-anchor="middle" x="1479" y="-287.5" font-family="Arial.ttf" font-size="10.00">cfloat</text>
</a>
</g>
</g>
<!-- Node2&#45;&gt;Node23 -->
<g id="edge22" class="edge">
<title>Node2&#45;&gt;Node23</title>
<path fill="none" stroke="midnightblue" d="M1208.1,-341.8C1254.65,-335.85 1355.16,-321.86 1448.61,-300.08"/>
<polygon fill="midnightblue" stroke="midnightblue" points="1449.57,-303.45 1458.5,-297.74 1447.96,-296.63 1449.57,-303.45"/>
</g>
<!-- Node24 -->
<g id="node24" class="node">
<title>Node24</title>
<g id="a_node24"><a xlink:title=" ">
<polygon fill="white" stroke="#bfbfbf" points="1517.5,-280.5 1517.5,-299.5 1562.5,-299.5 1562.5,-280.5 1517.5,-280.5"/>
<text text-anchor="middle" x="1540" y="-287.5" font-family="Arial.ttf" font-size="10.00">climits</text>
</a>
</g>
</g>
<!-- Node2&#45;&gt;Node24 -->
<g id="edge23" class="edge">
<title>Node2&#45;&gt;Node24</title>
<path fill="none" stroke="midnightblue" d="M1208.08,-342.71C1262.26,-337.69 1391,-324.31 1507.61,-300.04"/>
<polygon fill="midnightblue" stroke="midnightblue" points="1508.35,-303.46 1517.41,-297.97 1506.9,-296.62 1508.35,-303.46"/>
</g>
<!-- Node25 -->
<g id="node25" class="node">
<title>Node25</title>
<g id="a_node25"><a xlink:title=" ">
<polygon fill="white" stroke="#bfbfbf" points="1581,-280.5 1581,-299.5 1625,-299.5 1625,-280.5 1581,-280.5"/>
<text text-anchor="middle" x="1603" y="-287.5" font-family="Arial.ttf" font-size="10.00">cmath</text>
</a>
</g>
</g>
<!-- Node2&#45;&gt;Node25 -->
<g id="edge24" class="edge">
<title>Node2&#45;&gt;Node25</title>
<path fill="none" stroke="midnightblue" d="M1208.25,-343.5C1269.94,-339.64 1429.01,-327.82 1570.6,-299.97"/>
<polygon fill="midnightblue" stroke="midnightblue" points="1571.64,-303.33 1580.76,-297.94 1570.27,-296.47 1571.64,-303.33"/>
</g>
<!-- Node26 -->
<g id="node26" class="node">
<title>Node26</title>
<g id="a_node26"><a xlink:title=" ">
<polygon fill="white" stroke="#bfbfbf" points="1643.5,-280.5 1643.5,-299.5 1686.5,-299.5 1686.5,-280.5 1643.5,-280.5"/>
<text text-anchor="middle" x="1665" y="-287.5" font-family="Arial.ttf" font-size="10.00">cstdio</text>
</a>
</g>
</g>
<!-- Node2&#45;&gt;Node26 -->
<g id="edge25" class="edge">
<title>Node2&#45;&gt;Node26</title>
<path fill="none" stroke="midnightblue" d="M1208.23,-344.07C1276.7,-341.28 1466.5,-331.3 1633.49,-299.72"/>
<polygon fill="midnightblue" stroke="midnightblue" points="1634.28,-303.13 1643.44,-297.81 1632.96,-296.26 1634.28,-303.13"/>
</g>
<!-- Node27 -->
<g id="node27" class="node">
<title>Node27</title>
<g id="a_node27"><a xlink:title=" ">
<polygon fill="white" stroke="#bfbfbf" points="1704.5,-280.5 1704.5,-299.5 1749.5,-299.5 1749.5,-280.5 1704.5,-280.5"/>
<text text-anchor="middle" x="1727" y="-287.5" font-family="Arial.ttf" font-size="10.00">cstdlib</text>
</a>
</g>
</g>
<!-- Node2&#45;&gt;Node27 -->
<g id="edge26" class="edge">
<title>Node2&#45;&gt;Node27</title>
<path fill="none" stroke="midnightblue" d="M1208.18,-344.51C1282.91,-342.72 1503.6,-334.83 1694.51,-299.95"/>
<polygon fill="midnightblue" stroke="midnightblue" points="1695.24,-303.37 1704.44,-298.1 1693.97,-296.49 1695.24,-303.37"/>
</g>
<!-- Node28 -->
<g id="node28" class="node">
<title>Node28</title>
<g id="a_node28"><a xlink:title=" ">
<polygon fill="white" stroke="#bfbfbf" points="1768,-280.5 1768,-299.5 1814,-299.5 1814,-280.5 1768,-280.5"/>
<text text-anchor="middle" x="1791" y="-287.5" font-family="Arial.ttf" font-size="10.00">cstring</text>
</a>
</g>
</g>
<!-- Node2&#45;&gt;Node28 -->
<g id="edge27" class="edge">
<title>Node2&#45;&gt;Node28</title>
<path fill="none" stroke="midnightblue" d="M1208.11,-344.78C1288.75,-343.73 1540.99,-337.58 1757.74,-299.88"/>
<polygon fill="midnightblue" stroke="midnightblue" points="1758.47,-303.31 1767.7,-298.12 1757.25,-296.42 1758.47,-303.31"/>
</g>
<!-- Node29 -->
<g id="node29" class="node">
<title>Node29</title>
<g id="a_node29"><a xlink:href="_s_l_8h.html" target="_top" xlink:title=" ">
<polygon fill="white" stroke="red" points="494.5,-0.5 494.5,-19.5 531.5,-19.5 531.5,-0.5 494.5,-0.5"/>
<text text-anchor="middle" x="513" y="-7.5" font-family="Arial.ttf" font-size="10.00">SL.h</text>
</a>
</g>
</g>
<!-- Node2&#45;&gt;Node29 -->
<g id="edge28" class="edge">
<title>Node2&#45;&gt;Node29</title>
<path fill="none" stroke="midnightblue" d="M1155.84,-345.37C1080.49,-345.92 865.03,-343.54 813,-300 789.82,-280.6 793,-265.23 793,-235 793,-235 793,-235 793,-121 793,-67.47 613.49,-29.14 541.93,-15.99"/>
<polygon fill="midnightblue" stroke="midnightblue" points="542.27,-12.49 531.81,-14.16 541.03,-19.38 542.27,-12.49"/>
</g>
<!-- Node33 -->
<g id="node30" class="node">
<title>Node33</title>
<g id="a_node30"><a xlink:href="_s_l_enums_8h.html" target="_top" xlink:title=" ">
<polygon fill="white" stroke="black" points="323,-280.5 323,-299.5 391,-299.5 391,-280.5 323,-280.5"/>
<text text-anchor="middle" x="357" y="-287.5" font-family="Arial.ttf" font-size="10.00">SLEnums.h</text>
</a>
</g>
</g>
<!-- Node2&#45;&gt;Node33 -->
<g id="edge29" class="edge">
<title>Node2&#45;&gt;Node33</title>
<path fill="none" stroke="midnightblue" d="M1155.73,-344.69C1056.89,-343.27 698.06,-335.81 405,-300 403.72,-299.84 402.43,-299.67 401.12,-299.49"/>
<polygon fill="midnightblue" stroke="midnightblue" points="401.42,-296 391.01,-297.93 400.35,-302.92 401.42,-296"/>
</g>
<!-- Node34 -->
<g id="node31" class="node">
<title>Node34</title>
<g id="a_node31"><a xlink:href="_s_l_mat3_8h.html" target="_top" xlink:title=" ">
<polygon fill="white" stroke="red" points="629.5,-168.5 629.5,-187.5 688.5,-187.5 688.5,-168.5 629.5,-168.5"/>
<text text-anchor="middle" x="659" y="-175.5" font-family="Arial.ttf" font-size="10.00">SLMat3.h</text>
</a>
</g>
</g>
<!-- Node2&#45;&gt;Node34 -->
<g id="edge30" class="edge">
<title>Node2&#45;&gt;Node34</title>
<path fill="none" stroke="midnightblue" d="M1155.85,-344.16C1061.04,-340.89 739.02,-327.83 703,-300 671.12,-275.37 662.32,-225.43 659.9,-198.04"/>
<polygon fill="midnightblue" stroke="midnightblue" points="663.38,-197.56 659.21,-187.82 656.39,-198.04 663.38,-197.56"/>
</g>
<!-- Node35 -->
<g id="node32" class="node">
<title>Node35</title>
<g id="a_node32"><a xlink:href="_s_l_vec3_8h.html" target="_top" xlink:title=" ">
<polygon fill="white" stroke="red" points="554.5,-112.5 554.5,-131.5 613.5,-131.5 613.5,-112.5 554.5,-112.5"/>
<text text-anchor="middle" x="584" y="-119.5" font-family="Arial.ttf" font-size="10.00">SLVec3.h</text>
</a>
</g>
</g>
<!-- Node2&#45;&gt;Node35 -->
<g id="edge52" class="edge">
<title>Node2&#45;&gt;Node35</title>
<path fill="none" stroke="midnightblue" d="M1155.75,-344.09C1058.17,-340.51 719.98,-326.29 680,-300 622.82,-262.41 596.96,-178.81 587.95,-141.55"/>
<polygon fill="midnightblue" stroke="midnightblue" points="591.31,-140.55 585.68,-131.58 584.48,-142.1 591.31,-140.55"/>
</g>
<!-- Node36 -->
<g id="node33" class="node">
<title>Node36</title>
<g id="a_node33"><a xlink:href="_s_l_vec2_8h.html" target="_top" xlink:title=" ">
<polygon fill="white" stroke="red" points="512.5,-56.5 512.5,-75.5 571.5,-75.5 571.5,-56.5 512.5,-56.5"/>
<text text-anchor="middle" x="542" y="-63.5" font-family="Arial.ttf" font-size="10.00">SLVec2.h</text>
</a>
</g>
</g>
<!-- Node2&#45;&gt;Node36 -->
<g id="edge51" class="edge">
<title>Node2&#45;&gt;Node36</title>
<path fill="none" stroke="midnightblue" d="M1155.87,-345.54C1076.13,-346.67 837.83,-346.05 779,-300 754.75,-281.02 755,-265.8 755,-235 755,-235 755,-235 755,-177 755,-146.9 757.87,-132.67 736,-112 714.07,-91.27 631.82,-77.89 581.73,-71.47"/>
<polygon fill="midnightblue" stroke="midnightblue" points="581.92,-67.97 571.56,-70.21 581.05,-74.91 581.92,-67.97"/>
</g>
<!-- Node37 -->
<g id="node34" class="node">
<title>Node37</title>
<g id="a_node34"><a xlink:href="_s_l_mat4_8h.html" target="_top" xlink:title=" ">
<polygon fill="white" stroke="red" points="484.5,-224.5 484.5,-243.5 543.5,-243.5 543.5,-224.5 484.5,-224.5"/>
<text text-anchor="middle" x="514" y="-231.5" font-family="Arial.ttf" font-size="10.00">SLMat4.h</text>
</a>
</g>
</g>
<!-- Node2&#45;&gt;Node37 -->
<g id="edge37" class="edge">
<title>Node2&#45;&gt;Node37</title>
<path fill="none" stroke="midnightblue" d="M1155.93,-344.4C1060.1,-341.94 727.73,-331.32 627,-300 608.26,-294.17 563.07,-266.42 535.85,-249.11"/>
<polygon fill="midnightblue" stroke="midnightblue" points="537.68,-246.13 527.37,-243.69 533.91,-252.03 537.68,-246.13"/>
</g>
<!-- Node39 -->
<g id="node35" class="node">
<title>Node39</title>
<g id="a_node35"><a xlink:href="_s_l_vec4_8h.html" target="_top" xlink:title=" ">
<polygon fill="white" stroke="red" points="389.5,-168.5 389.5,-187.5 448.5,-187.5 448.5,-168.5 389.5,-168.5"/>
<text text-anchor="middle" x="419" y="-175.5" font-family="Arial.ttf" font-size="10.00">SLVec4.h</text>
</a>
</g>
</g>
<!-- Node2&#45;&gt;Node39 -->
<g id="edge53" class="edge">
<title>Node2&#45;&gt;Node39</title>
<path fill="none" stroke="midnightblue" d="M1155.97,-345.32C1030.52,-346.6 492.1,-349.18 438,-300 409.64,-274.22 411.8,-224.76 415.56,-197.74"/>
<polygon fill="midnightblue" stroke="midnightblue" points="419.04,-198.1 417.18,-187.67 412.13,-196.99 419.04,-198.1"/>
</g>
<!-- Node43 -->
<g id="node36" class="node">
<title>Node43</title>
<g id="a_node36"><a xlink:href="_s_l_object_8h.html" target="_top" xlink:title=" ">
<polygon fill="white" stroke="black" points="66.5,-280.5 66.5,-299.5 131.5,-299.5 131.5,-280.5 66.5,-280.5"/>
<text text-anchor="middle" x="99" y="-287.5" font-family="Arial.ttf" font-size="10.00">SLObject.h</text>
</a>
</g>
</g>
<!-- Node2&#45;&gt;Node43 -->
<g id="edge45" class="edge">
<title>Node2&#45;&gt;Node43</title>
<path fill="none" stroke="midnightblue" d="M1155.61,-344.47C1039.99,-342 566.51,-330.46 179,-300 166.93,-299.05 153.87,-297.71 141.87,-296.36"/>
<polygon fill="midnightblue" stroke="midnightblue" points="141.98,-292.85 131.65,-295.18 141.18,-299.8 141.98,-292.85"/>
</g>
<!-- Node44 -->
<g id="node37" class="node">
<title>Node44</title>
<g id="a_node37"><a xlink:href="_s_l_quat4_8h.html" target="_top" xlink:title=" ">
<polygon fill="white" stroke="red" points="241.5,-280.5 241.5,-299.5 304.5,-299.5 304.5,-280.5 241.5,-280.5"/>
<text text-anchor="middle" x="273" y="-287.5" font-family="Arial.ttf" font-size="10.00">SLQuat4.h</text>
</a>
</g>
</g>
<!-- Node2&#45;&gt;Node44 -->
<g id="edge47" class="edge">
<title>Node2&#45;&gt;Node44</title>
<path fill="none" stroke="midnightblue" d="M1155.94,-345.21C1051.36,-345.71 652.03,-344.51 314.66,-299.83"/>
<polygon fill="midnightblue" stroke="midnightblue" points="315.07,-296.35 304.69,-298.5 314.14,-303.29 315.07,-296.35"/>
</g>
<!-- Node45 -->
<g id="node38" class="node">
<title>Node45</title>
<g id="a_node38"><a xlink:title=" ">
<polygon fill="white" stroke="#bfbfbf" points="1832,-280.5 1832,-299.5 1948,-299.5 1948,-280.5 1832,-280.5"/>
<text text-anchor="middle" x="1890" y="-287.5" font-family="Arial.ttf" font-size="10.00">opencv2/core/core.hpp</text>
</a>
</g>
</g>
<!-- Node2&#45;&gt;Node45 -->
<g id="edge54" class="edge">
<title>Node2&#45;&gt;Node45</title>
<path fill="none" stroke="midnightblue" d="M1208,-343.77C1293.93,-339.57 1576.79,-324.76 1821.76,-300.06"/>
<polygon fill="midnightblue" stroke="midnightblue" points="1822.33,-303.52 1831.92,-299.03 1821.62,-296.56 1822.33,-303.52"/>
</g>
<!-- Node46 -->
<g id="node39" class="node">
<title>Node46</title>
<g id="a_node39"><a xlink:title=" ">
<polygon fill="white" stroke="#bfbfbf" points="1966.5,-280.5 1966.5,-299.5 2085.5,-299.5 2085.5,-280.5 1966.5,-280.5"/>
<text text-anchor="middle" x="2026" y="-287.5" font-family="Arial.ttf" font-size="10.00">opencv2/core/utility.hpp</text>
</a>
</g>
</g>
<!-- Node2&#45;&gt;Node46 -->
<g id="edge55" class="edge">
<title>Node2&#45;&gt;Node46</title>
<path fill="none" stroke="midnightblue" d="M1208.14,-344.16C1305.42,-340.9 1655.82,-327.89 1955.98,-300.02"/>
<polygon fill="midnightblue" stroke="midnightblue" points="1956.56,-303.48 1966.19,-299.07 1955.91,-296.52 1956.56,-303.48"/>
</g>
<!-- Node47 -->
<g id="node40" class="node">
<title>Node47</title>
<g id="a_node40"><a xlink:title=" ">
<polygon fill="white" stroke="#bfbfbf" points="2104,-280.5 2104,-299.5 2210,-299.5 2210,-280.5 2104,-280.5"/>
<text text-anchor="middle" x="2157" y="-287.5" font-family="Arial.ttf" font-size="10.00">opencv2/highgui.hpp</text>
</a>
</g>
</g>
<!-- Node2&#45;&gt;Node47 -->
<g id="edge56" class="edge">
<title>Node2&#45;&gt;Node47</title>
<path fill="none" stroke="midnightblue" d="M1208.21,-344.62C1316.19,-342.85 1737.21,-334.1 2093.94,-300"/>
<polygon fill="midnightblue" stroke="midnightblue" points="2094.32,-303.48 2103.94,-299.04 2093.65,-296.52 2094.32,-303.48"/>
</g>
<!-- Node48 -->
<g id="node41" class="node">
<title>Node48</title>
<g id="a_node41"><a xlink:title=" ">
<polygon fill="white" stroke="#bfbfbf" points="2228,-280.5 2228,-299.5 2338,-299.5 2338,-280.5 2228,-280.5"/>
<text text-anchor="middle" x="2283" y="-287.5" font-family="Arial.ttf" font-size="10.00">opencv2/imgproc.hpp</text>
</a>
</g>
</g>
<!-- Node2&#45;&gt;Node48 -->
<g id="edge57" class="edge">
<title>Node2&#45;&gt;Node48</title>
<path fill="none" stroke="midnightblue" d="M1208.11,-344.79C1324.68,-343.67 1809.34,-336.97 2217.64,-300.03"/>
<polygon fill="midnightblue" stroke="midnightblue" points="2218.24,-303.49 2227.88,-299.09 2217.6,-296.52 2218.24,-303.49"/>
</g>
<!-- Node49 -->
<g id="node42" class="node">
<title>Node49</title>
<g id="a_node42"><a xlink:title=" ">
<polygon fill="white" stroke="#bfbfbf" points="2356,-280.5 2356,-299.5 2462,-299.5 2462,-280.5 2356,-280.5"/>
<text text-anchor="middle" x="2409" y="-287.5" font-family="Arial.ttf" font-size="10.00">opencv2/calib3d.hpp</text>
</a>
</g>
</g>
<!-- Node2&#45;&gt;Node49 -->
<g id="edge58" class="edge">
<title>Node2&#45;&gt;Node49</title>
<path fill="none" stroke="midnightblue" d="M1208.31,-345.01C1333.83,-344.84 1884.33,-341.7 2345.75,-300.01"/>
<polygon fill="midnightblue" stroke="midnightblue" points="2346.3,-303.47 2355.94,-299.08 2345.67,-296.5 2346.3,-303.47"/>
</g>
<!-- Node34&#45;&gt;Node11 -->
<g id="edge36" class="edge">
<title>Node34&#45;&gt;Node11</title>
<path fill="none" stroke="midnightblue" d="M665.77,-168.08C671.56,-160.46 680.06,-149.26 687.14,-139.94"/>
<polygon fill="midnightblue" stroke="midnightblue" points="690.1,-141.83 693.36,-131.75 684.52,-137.6 690.1,-141.83"/>
</g>
<!-- Node34&#45;&gt;Node29 -->
<g id="edge31" class="edge">
<title>Node34&#45;&gt;Node29</title>
<path fill="none" stroke="midnightblue" d="M656.63,-168.29C650.38,-146.76 631.6,-90.27 598,-56 582.12,-39.8 559.16,-28.12 541.1,-20.73"/>
<polygon fill="midnightblue" stroke="midnightblue" points="542.24,-17.42 531.65,-17.06 539.71,-23.94 542.24,-17.42"/>
</g>
<!-- Node34&#45;&gt;Node35 -->
<g id="edge32" class="edge">
<title>Node34&#45;&gt;Node35</title>
<path fill="none" stroke="midnightblue" d="M646.95,-168.32C635.54,-160.11 618.17,-147.6 604.57,-137.81"/>
<polygon fill="midnightblue" stroke="midnightblue" points="606.43,-134.84 596.27,-131.83 602.34,-140.52 606.43,-134.84"/>
</g>
<!-- Node35&#45;&gt;Node29 -->
<g id="edge33" class="edge">
<title>Node35&#45;&gt;Node29</title>
<path fill="none" stroke="midnightblue" d="M585.94,-112.33C588.38,-99.19 591.15,-73.88 581,-56 572.17,-40.45 555.5,-29.29 540.87,-21.97"/>
<polygon fill="midnightblue" stroke="midnightblue" points="542.2,-18.73 531.66,-17.71 539.27,-25.08 542.2,-18.73"/>
</g>
<!-- Node35&#45;&gt;Node36 -->
<g id="edge34" class="edge">
<title>Node35&#45;&gt;Node36</title>
<path fill="none" stroke="midnightblue" d="M577.06,-112.08C571.07,-104.38 562.25,-93.03 554.95,-83.65"/>
<polygon fill="midnightblue" stroke="midnightblue" points="557.71,-81.5 548.81,-75.75 552.18,-85.79 557.71,-81.5"/>
</g>
<!-- Node36&#45;&gt;Node29 -->
<g id="edge35" class="edge">
<title>Node36&#45;&gt;Node29</title>
<path fill="none" stroke="midnightblue" d="M537.21,-56.08C533.24,-48.69 527.47,-37.95 522.57,-28.81"/>
<polygon fill="midnightblue" stroke="midnightblue" points="525.51,-26.91 517.7,-19.75 519.35,-30.22 525.51,-26.91"/>
</g>
<!-- Node37&#45;&gt;Node29 -->
<g id="edge38" class="edge">
<title>Node37&#45;&gt;Node29</title>
<path fill="none" stroke="midnightblue" d="M512.53,-224.14C508.44,-198.22 497.63,-120.32 504,-56 504.87,-47.17 506.69,-37.51 508.47,-29.4"/>
<polygon fill="midnightblue" stroke="midnightblue" points="511.9,-30.08 510.77,-19.55 505.08,-28.49 511.9,-30.08"/>
</g>
<!-- Node37&#45;&gt;Node34 -->
<g id="edge39" class="edge">
<title>Node37&#45;&gt;Node34</title>
<path fill="none" stroke="midnightblue" d="M536.98,-224.44C561.16,-215.44 599.42,-201.19 626.65,-191.05"/>
<polygon fill="midnightblue" stroke="midnightblue" points="627.98,-194.29 636.13,-187.52 625.54,-187.73 627.98,-194.29"/>
</g>
<!-- Node37&#45;&gt;Node35 -->
<g id="edge40" class="edge">
<title>Node37&#45;&gt;Node35</title>
<path fill="none" stroke="midnightblue" d="M519.49,-224.37C530.99,-206.3 557.8,-164.18 572.99,-140.31"/>
<polygon fill="midnightblue" stroke="midnightblue" points="576.12,-141.91 578.53,-131.59 570.21,-138.15 576.12,-141.91"/>
</g>
<!-- Node37&#45;&gt;Node39 -->
<g id="edge41" class="edge">
<title>Node37&#45;&gt;Node39</title>
<path fill="none" stroke="midnightblue" d="M498.74,-224.32C483.78,-215.82 460.75,-202.73 443.27,-192.8"/>
<polygon fill="midnightblue" stroke="midnightblue" points="444.65,-189.55 434.23,-187.65 441.19,-195.64 444.65,-189.55"/>
</g>
<!-- Node39&#45;&gt;Node29 -->
<g id="edge42" class="edge">
<title>Node39&#45;&gt;Node29</title>
<path fill="none" stroke="midnightblue" d="M421.48,-168.26C427.59,-147.58 444.73,-94.5 470,-56 477.01,-45.32 486.71,-34.91 495.13,-26.79"/>
<polygon fill="midnightblue" stroke="midnightblue" points="497.73,-29.15 502.68,-19.78 492.97,-24.03 497.73,-29.15"/>
</g>
<!-- Node39&#45;&gt;Node35 -->
<g id="edge44" class="edge">
<title>Node39&#45;&gt;Node35</title>
<path fill="none" stroke="midnightblue" d="M445.14,-168.44C473.02,-159.32 517.35,-144.81 548.4,-134.65"/>
<polygon fill="midnightblue" stroke="midnightblue" points="549.56,-137.95 557.98,-131.52 547.38,-131.3 549.56,-137.95"/>
</g>
<!-- Node39&#45;&gt;Node36 -->
<g id="edge43" class="edge">
<title>Node39&#45;&gt;Node36</title>
<path fill="none" stroke="midnightblue" d="M428.65,-168.37C449.4,-149.81 498.49,-105.91 524.74,-82.44"/>
<polygon fill="midnightblue" stroke="midnightblue" points="527.27,-84.87 532.39,-75.59 522.61,-79.65 527.27,-84.87"/>
</g>
<!-- Node43&#45;&gt;Node29 -->
<g id="edge46" class="edge">
<title>Node43&#45;&gt;Node29</title>
<path fill="none" stroke="midnightblue" d="M82.21,-280.32C53.96,-264.37 0,-227.56 0,-179 0,-179 0,-179 0,-121 0,-21.16 376.19,-11.65 484.28,-10.98"/>
<polygon fill="midnightblue" stroke="midnightblue" points="484.45,-14.48 494.44,-10.94 484.42,-7.48 484.45,-14.48"/>
</g>
<!-- Node44&#45;&gt;Node29 -->
<g id="edge48" class="edge">
<title>Node44&#45;&gt;Node29</title>
<path fill="none" stroke="midnightblue" d="M277.72,-280.46C287.27,-262.34 308,-218.48 308,-179 308,-179 308,-179 308,-121 308,-41.89 428.02,-19.44 484.39,-13.26"/>
<polygon fill="midnightblue" stroke="midnightblue" points="484.84,-16.73 494.45,-12.26 484.15,-9.77 484.84,-16.73"/>
</g>
<!-- Node44&#45;&gt;Node37 -->
<g id="edge49" class="edge">
<title>Node44&#45;&gt;Node37</title>
<path fill="none" stroke="midnightblue" d="M304.51,-281.94C348.13,-272.17 426.92,-254.51 474.45,-243.86"/>
<polygon fill="midnightblue" stroke="midnightblue" points="475.38,-247.24 484.38,-241.64 473.85,-240.41 475.38,-247.24"/>
</g>
<!-- Node44&#45;&gt;Node39 -->
<g id="edge50" class="edge">
<title>Node44&#45;&gt;Node39</title>
<path fill="none" stroke="midnightblue" d="M284.46,-280.37C309.3,-261.65 368.36,-217.15 399.31,-193.83"/>
<polygon fill="midnightblue" stroke="midnightblue" points="401.72,-196.4 407.6,-187.59 397.5,-190.81 401.72,-196.4"/>
</g>
<!-- Node51&#45;&gt;Node2 -->
<g id="edge60" class="edge">
<title>Node51&#45;&gt;Node2</title>
<path fill="none" stroke="midnightblue" d="M565.73,-393.81C570.54,-393.14 575.37,-392.53 580,-392 793.83,-367.74 1051.94,-353.44 1145.72,-348.74"/>
<polygon fill="midnightblue" stroke="midnightblue" points="1146.01,-352.23 1155.82,-348.24 1145.66,-345.24 1146.01,-352.23"/>
</g>
<!-- Node62&#45;&gt;Node33 -->
<g id="edge62" class="edge">
<title>Node62&#45;&gt;Node33</title>
<path fill="none" stroke="midnightblue" d="M326.11,-336.08C331.28,-328.53 338.85,-317.49 345.19,-308.23"/>
<polygon fill="midnightblue" stroke="midnightblue" points="348.24,-309.98 351,-299.75 342.46,-306.02 348.24,-309.98"/>
</g>
<!-- Node62&#45;&gt;Node44 -->
<g id="edge63" class="edge">
<title>Node62&#45;&gt;Node44</title>
<path fill="none" stroke="midnightblue" d="M312.24,-336.08C305.46,-328.3 295.46,-316.8 287.24,-307.37"/>
<polygon fill="midnightblue" stroke="midnightblue" points="289.82,-305 280.62,-299.75 284.54,-309.59 289.82,-305"/>
</g>
<!-- Node78&#45;&gt;Node39 -->
<g id="edge66" class="edge">
<title>Node78&#45;&gt;Node39</title>
<path fill="none" stroke="midnightblue" d="M192.76,-336.35C182.71,-323.25 167.06,-297.98 179,-280 223.76,-212.61 323.23,-190.08 379.04,-182.62"/>
<polygon fill="midnightblue" stroke="midnightblue" points="379.77,-186.06 389.26,-181.36 378.91,-179.11 379.77,-186.06"/>
</g>
<!-- Node82&#45;&gt;Node62 -->
<g id="edge68" class="edge">
<title>Node82&#45;&gt;Node62</title>
<path fill="none" stroke="midnightblue" d="M260.41,-392.32C271.11,-384.18 287.34,-371.84 300.16,-362.09"/>
<polygon fill="midnightblue" stroke="midnightblue" points="302.54,-364.67 308.39,-355.83 298.31,-359.1 302.54,-364.67"/>
</g>
<!-- Node82&#45;&gt;Node78 -->
<g id="edge69" class="edge">
<title>Node82&#45;&gt;Node78</title>
<path fill="none" stroke="midnightblue" d="M240.91,-392.08C233.84,-384.3 223.41,-372.8 214.85,-363.37"/>
<polygon fill="midnightblue" stroke="midnightblue" points="217.25,-360.8 207.94,-355.75 212.07,-365.51 217.25,-360.8"/>
</g>
<!-- Node84&#45;&gt;Node33 -->
<g id="edge71" class="edge">
<title>Node84&#45;&gt;Node33</title>
<path fill="none" stroke="midnightblue" d="M381.88,-392.37C377.52,-374.62 367.47,-333.67 361.56,-309.6"/>
<polygon fill="midnightblue" stroke="midnightblue" points="364.89,-308.47 359.11,-299.59 358.09,-310.14 364.89,-308.47"/>
</g>
<!-- Node84&#45;&gt;Node62 -->
<g id="edge72" class="edge">
<title>Node84&#45;&gt;Node62</title>
<path fill="none" stroke="midnightblue" d="M373.72,-392.32C364.16,-384.26 349.72,-372.08 338.22,-362.37"/>
<polygon fill="midnightblue" stroke="midnightblue" points="340.37,-359.61 330.47,-355.83 335.86,-364.96 340.37,-359.61"/>
</g>
<!-- Node84&#45;&gt;Node65 -->
<g id="edge73" class="edge">
<title>Node84&#45;&gt;Node65</title>
<path fill="none" stroke="midnightblue" d="M393,-392.32C401.19,-384.42 413.51,-372.55 423.47,-362.94"/>
<polygon fill="midnightblue" stroke="midnightblue" points="426.07,-365.29 430.84,-355.83 421.21,-360.26 426.07,-365.29"/>
</g>
<!-- Node68&#45;&gt;Node13 -->
<g id="edge75" class="edge">
<title>Node68&#45;&gt;Node13</title>
<path fill="none" stroke="midnightblue" d="M116.19,-336.32C133.35,-327.66 159.95,-314.24 179.75,-304.25"/>
<polygon fill="midnightblue" stroke="midnightblue" points="181.5,-307.28 188.85,-299.65 178.35,-301.04 181.5,-307.28"/>
</g>
<!-- Node68&#45;&gt;Node39 -->
<g id="edge76" class="edge">
<title>Node68&#45;&gt;Node39</title>
<path fill="none" stroke="midnightblue" d="M86.41,-336.44C69.5,-323.88 43.08,-299.78 57,-280 94.44,-226.79 293.24,-195.19 379.27,-183.82"/>
<polygon fill="midnightblue" stroke="midnightblue" points="379.96,-187.26 389.42,-182.5 379.06,-180.32 379.96,-187.26"/>
</g>
<!-- Node68&#45;&gt;Node43 -->
<g id="edge77" class="edge">
<title>Node68&#45;&gt;Node43</title>
<path fill="none" stroke="midnightblue" d="M99,-336.08C99,-329.01 99,-318.86 99,-309.99"/>
<polygon fill="midnightblue" stroke="midnightblue" points="102.5,-309.75 99,-299.75 95.5,-309.75 102.5,-309.75"/>
</g>
</g>
</svg>
