<?xml version="1.0" encoding="UTF-8" standalone="no"?>
<!DOCTYPE svg PUBLIC "-//W3C//DTD SVG 1.1//EN"
 "http://www.w3.org/Graphics/SVG/1.1/DTD/svg11.dtd">
<!-- Generated by graphviz version 2.28.0 (20110507.0327)
 -->
<!-- Title: SLQuat4.h Pages: 1 -->
<svg width="1691pt" height="364pt"
 viewBox="0.00 0.00 1691.00 364.00" xmlns="http://www.w3.org/2000/svg" xmlns:xlink="http://www.w3.org/1999/xlink">
<g id="graph1" class="graph" transform="scale(1 1) rotate(0) translate(4 360)">
<title>SLQuat4.h</title>
<polygon fill="white" stroke="white" points="-4,5 -4,-360 1688,-360 1688,5 -4,5"/>
<!-- Node1 -->
<g id="node1" class="node"><title>Node1</title>
<polygon fill="#bfbfbf" stroke="black" points="786.5,-336.5 786.5,-355.5 853.5,-355.5 853.5,-336.5 786.5,-336.5"/>
<text text-anchor="middle" x="820" y="-343.5" font-family="Arial.ttf" font-size="10.00">SLQuat4.h</text>
</g>
<!-- Node2 -->
<g id="node3" class="node"><title>Node2</title>
<a xlink:href="_s_l_8h.html" target="_top" xlink:title="SL.h">
<polygon fill="white" stroke="black" points="820,-56.5 820,-75.5 858,-75.5 858,-56.5 820,-56.5"/>
<text text-anchor="middle" x="839" y="-63.5" font-family="Arial.ttf" font-size="10.00">SL.h</text>
</a>
</g>
<!-- Node1&#45;&gt;Node2 -->
<g id="edge2" class="edge"><title>Node1&#45;&gt;Node2</title>
<path fill="none" stroke="midnightblue" d="M787.376,-336.389C744.069,-322.755 673,-291.738 673,-235 673,-235 673,-235 673,-177 673,-112.074 762.332,-83.2093 809.931,-72.4376"/>
<polygon fill="midnightblue" stroke="midnightblue" points="810.909,-75.8077 819.958,-70.2963 809.447,-68.962 810.909,-75.8077"/>
</g>
<!-- Node27 -->
<g id="node53" class="node"><title>Node27</title>
<a xlink:href="_s_l_math_8h.html" target="_top" xlink:title="SLMath.h">
<polygon fill="white" stroke="black" points="701,-224.5 701,-243.5 763,-243.5 763,-224.5 701,-224.5"/>
<text text-anchor="middle" x="732" y="-231.5" font-family="Arial.ttf" font-size="10.00">SLMath.h</text>
</a>
</g>
<!-- Node1&#45;&gt;Node27 -->
<g id="edge52" class="edge"><title>Node1&#45;&gt;Node27</title>
<path fill="none" stroke="midnightblue" d="M813.095,-336.368C798.508,-318.135 764.341,-275.426 745.34,-251.675"/>
<polygon fill="midnightblue" stroke="midnightblue" points="747.853,-249.214 738.873,-243.591 742.387,-253.587 747.853,-249.214"/>
</g>
<!-- Node28 -->
<g id="node56" class="node"><title>Node28</title>
<a xlink:href="_s_l_mat4_8h.html" target="_top" xlink:title="SLMat4.h">
<polygon fill="white" stroke="black" points="819,-280.5 819,-299.5 881,-299.5 881,-280.5 819,-280.5"/>
<text text-anchor="middle" x="850" y="-287.5" font-family="Arial.ttf" font-size="10.00">SLMat4.h</text>
</a>
</g>
<!-- Node1&#45;&gt;Node28 -->
<g id="edge56" class="edge"><title>Node1&#45;&gt;Node28</title>
<path fill="none" stroke="midnightblue" d="M824.954,-336.083C829.104,-328.613 835.153,-317.724 840.267,-308.52"/>
<polygon fill="midnightblue" stroke="midnightblue" points="843.341,-310.192 845.138,-299.751 837.222,-306.793 843.341,-310.192"/>
</g>
<!-- Node35 -->
<g id="node75" class="node"><title>Node35</title>
<a xlink:href="_s_l_vec4_8h.html" target="_top" xlink:title="SLVec4.h">
<polygon fill="white" stroke="black" points="1211,-224.5 1211,-243.5 1273,-243.5 1273,-224.5 1211,-224.5"/>
<text text-anchor="middle" x="1242" y="-231.5" font-family="Arial.ttf" font-size="10.00">SLVec4.h</text>
</a>
</g>
<!-- Node1&#45;&gt;Node35 -->
<g id="edge92" class="edge"><title>Node1&#45;&gt;Node35</title>
<path fill="none" stroke="midnightblue" d="M852.762,-336.46C928.889,-316.617 1117.57,-267.435 1201.09,-245.663"/>
<polygon fill="midnightblue" stroke="midnightblue" points="1202.19,-248.995 1210.98,-243.086 1200.42,-242.221 1202.19,-248.995"/>
</g>
<!-- Node3 -->
<g id="node5" class="node"><title>Node3</title>
<a xlink:href="_s_l_enums_8h.html" target="_top" xlink:title="SLEnums.h">
<polygon fill="white" stroke="black" points="-0.5,-0.5 -0.5,-19.5 70.5,-19.5 70.5,-0.5 -0.5,-0.5"/>
<text text-anchor="middle" x="35" y="-7.5" font-family="Arial.ttf" font-size="10.00">SLEnums.h</text>
</a>
</g>
<!-- Node2&#45;&gt;Node3 -->
<g id="edge4" class="edge"><title>Node2&#45;&gt;Node3</title>
<path fill="none" stroke="midnightblue" d="M819.816,-64.8691C734.427,-64.0781 380.309,-58.596 81.1207,-20.112"/>
<polygon fill="midnightblue" stroke="midnightblue" points="81.316,-16.608 70.9478,-18.7879 80.4124,-23.5495 81.316,-16.608"/>
</g>
<!-- Node4 -->
<g id="node7" class="node"><title>Node4</title>
<polygon fill="white" stroke="#bfbfbf" points="88.5,-0.5 88.5,-19.5 147.5,-19.5 147.5,-0.5 88.5,-0.5"/>
<text text-anchor="middle" x="118" y="-7.5" font-family="Arial.ttf" font-size="10.00">iostream</text>
</g>
<!-- Node2&#45;&gt;Node4 -->
<g id="edge6" class="edge"><title>Node2&#45;&gt;Node4</title>
<path fill="none" stroke="midnightblue" d="M819.897,-64.8623C740.084,-64.0541 425.423,-58.5498 157.623,-19.8274"/>
<polygon fill="midnightblue" stroke="midnightblue" points="158.118,-16.3627 147.717,-18.3765 157.104,-23.2888 158.118,-16.3627"/>
</g>
<!-- Node5 -->
<g id="node9" class="node"><title>Node5</title>
<polygon fill="white" stroke="#bfbfbf" points="166,-0.5 166,-19.5 222,-19.5 222,-0.5 166,-0.5"/>
<text text-anchor="middle" x="194" y="-7.5" font-family="Arial.ttf" font-size="10.00">sstream</text>
</g>
<!-- Node2&#45;&gt;Node5 -->
<g id="edge8" class="edge"><title>Node2&#45;&gt;Node5</title>
<path fill="none" stroke="midnightblue" d="M819.958,-64.7303C745.782,-63.4431 469.013,-56.4371 232.357,-19.953"/>
<polygon fill="midnightblue" stroke="midnightblue" points="232.606,-16.4494 222.185,-18.3625 231.524,-23.3654 232.606,-16.4494"/>
</g>
<!-- Node6 -->
<g id="node11" class="node"><title>Node6</title>
<polygon fill="white" stroke="#bfbfbf" points="240,-0.5 240,-19.5 294,-19.5 294,-0.5 240,-0.5"/>
<text text-anchor="middle" x="267" y="-7.5" font-family="Arial.ttf" font-size="10.00">fstream</text>
</g>
<!-- Node2&#45;&gt;Node6 -->
<g id="edge10" class="edge"><title>Node2&#45;&gt;Node6</title>
<path fill="none" stroke="midnightblue" d="M819.873,-64.5078C751.295,-62.5116 511.278,-53.5305 304.177,-19.9247"/>
<polygon fill="midnightblue" stroke="midnightblue" points="304.465,-16.4251 294.029,-18.2538 303.327,-23.3321 304.465,-16.4251"/>
</g>
<!-- Node7 -->
<g id="node13" class="node"><title>Node7</title>
<polygon fill="white" stroke="#bfbfbf" points="312.5,-0.5 312.5,-19.5 359.5,-19.5 359.5,-0.5 312.5,-0.5"/>
<text text-anchor="middle" x="336" y="-7.5" font-family="Arial.ttf" font-size="10.00">vector</text>
</g>
<!-- Node2&#45;&gt;Node7 -->
<g id="edge12" class="edge"><title>Node2&#45;&gt;Node7</title>
<path fill="none" stroke="midnightblue" d="M819.985,-64.4029C756.981,-62.1709 549.295,-52.7839 369.546,-19.9955"/>
<polygon fill="midnightblue" stroke="midnightblue" points="370.124,-16.5432 359.654,-18.1618 368.849,-23.4259 370.124,-16.5432"/>
</g>
<!-- Node8 -->
<g id="node15" class="node"><title>Node8</title>
<polygon fill="white" stroke="#bfbfbf" points="377.5,-0.5 377.5,-19.5 424.5,-19.5 424.5,-0.5 377.5,-0.5"/>
<text text-anchor="middle" x="401" y="-7.5" font-family="Arial.ttf" font-size="10.00">queue</text>
</g>
<!-- Node2&#45;&gt;Node8 -->
<g id="edge14" class="edge"><title>Node2&#45;&gt;Node8</title>
<path fill="none" stroke="midnightblue" d="M819.808,-63.9917C762.561,-60.751 587.951,-49.1748 434.722,-20.064"/>
<polygon fill="midnightblue" stroke="midnightblue" points="435.144,-16.5808 424.662,-18.1211 433.817,-23.4539 435.144,-16.5808"/>
</g>
<!-- Node9 -->
<g id="node17" class="node"><title>Node9</title>
<polygon fill="white" stroke="#bfbfbf" points="442.5,-0.5 442.5,-19.5 497.5,-19.5 497.5,-0.5 442.5,-0.5"/>
<text text-anchor="middle" x="470" y="-7.5" font-family="Arial.ttf" font-size="10.00">typeinfo</text>
</g>
<!-- Node2&#45;&gt;Node9 -->
<g id="edge16" class="edge"><title>Node2&#45;&gt;Node9</title>
<path fill="none" stroke="midnightblue" d="M819.8,-63.1035C770.013,-58.0376 632.537,-43.1068 507.908,-19.9895"/>
<polygon fill="midnightblue" stroke="midnightblue" points="508.287,-16.4996 497.813,-18.0934 506.995,-23.3793 508.287,-16.4996"/>
</g>
<!-- Node10 -->
<g id="node19" class="node"><title>Node10</title>
<polygon fill="white" stroke="#bfbfbf" points="516,-0.5 516,-19.5 560,-19.5 560,-0.5 516,-0.5"/>
<text text-anchor="middle" x="538" y="-7.5" font-family="Arial.ttf" font-size="10.00">string</text>
</g>
<!-- Node2&#45;&gt;Node10 -->
<g id="edge18" class="edge"><title>Node2&#45;&gt;Node10</title>
<path fill="none" stroke="midnightblue" d="M819.864,-62.5974C776.897,-57.0373 669.368,-42.2021 570.151,-20.0425"/>
<polygon fill="midnightblue" stroke="midnightblue" points="570.796,-16.5999 560.269,-17.8045 569.249,-23.427 570.796,-16.5999"/>
</g>
<!-- Node11 -->
<g id="node21" class="node"><title>Node11</title>
<polygon fill="white" stroke="#bfbfbf" points="578,-0.5 578,-19.5 640,-19.5 640,-0.5 578,-0.5"/>
<text text-anchor="middle" x="609" y="-7.5" font-family="Arial.ttf" font-size="10.00">algorithm</text>
</g>
<!-- Node2&#45;&gt;Node11 -->
<g id="edge20" class="edge"><title>Node2&#45;&gt;Node11</title>
<path fill="none" stroke="midnightblue" d="M819.786,-60.4889C782.616,-51.7619 700.126,-32.3948 650.071,-20.6428"/>
<polygon fill="midnightblue" stroke="midnightblue" points="650.749,-17.2067 640.213,-18.3283 649.149,-24.0214 650.749,-17.2067"/>
</g>
<!-- Node12 -->
<g id="node23" class="node"><title>Node12</title>
<polygon fill="white" stroke="#bfbfbf" points="658,-0.5 658,-19.5 696,-19.5 696,-0.5 658,-0.5"/>
<text text-anchor="middle" x="677" y="-7.5" font-family="Arial.ttf" font-size="10.00">map</text>
</g>
<!-- Node2&#45;&gt;Node12 -->
<g id="edge22" class="edge"><title>Node2&#45;&gt;Node12</title>
<path fill="none" stroke="midnightblue" d="M819.78,-58.5934C791.525,-49.175 738.576,-31.5254 705.703,-20.5676"/>
<polygon fill="midnightblue" stroke="midnightblue" points="706.788,-17.2402 696.195,-17.3982 704.575,-23.881 706.788,-17.2402"/>
</g>
<!-- Node13 -->
<g id="node25" class="node"><title>Node13</title>
<polygon fill="white" stroke="#bfbfbf" points="714,-0.5 714,-19.5 764,-19.5 764,-0.5 714,-0.5"/>
<text text-anchor="middle" x="739" y="-7.5" font-family="Arial.ttf" font-size="10.00">chrono</text>
</g>
<!-- Node2&#45;&gt;Node13 -->
<g id="edge24" class="edge"><title>Node2&#45;&gt;Node13</title>
<path fill="none" stroke="midnightblue" d="M822.933,-56.324C807.042,-47.7428 782.493,-34.486 764.042,-24.5224"/>
<polygon fill="midnightblue" stroke="midnightblue" points="765.489,-21.3264 755.027,-19.6545 762.163,-27.4857 765.489,-21.3264"/>
</g>
<!-- Node14 -->
<g id="node27" class="node"><title>Node14</title>
<polygon fill="white" stroke="#bfbfbf" points="782,-0.5 782,-19.5 830,-19.5 830,-0.5 782,-0.5"/>
<text text-anchor="middle" x="806" y="-7.5" font-family="Arial.ttf" font-size="10.00">thread</text>
</g>
<!-- Node2&#45;&gt;Node14 -->
<g id="edge26" class="edge"><title>Node2&#45;&gt;Node14</title>
<path fill="none" stroke="midnightblue" d="M833.551,-56.083C828.986,-48.6127 822.332,-37.7244 816.707,-28.5199"/>
<polygon fill="midnightblue" stroke="midnightblue" points="819.549,-26.4588 811.348,-19.7511 813.576,-30.109 819.549,-26.4588"/>
</g>
<!-- Node15 -->
<g id="node29" class="node"><title>Node15</title>
<polygon fill="white" stroke="#bfbfbf" points="848,-0.5 848,-19.5 898,-19.5 898,-0.5 848,-0.5"/>
<text text-anchor="middle" x="873" y="-7.5" font-family="Arial.ttf" font-size="10.00">atomic</text>
</g>
<!-- Node2&#45;&gt;Node15 -->
<g id="edge28" class="edge"><title>Node2&#45;&gt;Node15</title>
<path fill="none" stroke="midnightblue" d="M844.614,-56.083C849.367,-48.5341 856.318,-37.4948 862.152,-28.2298"/>
<polygon fill="midnightblue" stroke="midnightblue" points="865.124,-30.0783 867.49,-19.7511 859.2,-26.3486 865.124,-30.0783"/>
</g>
<!-- Node16 -->
<g id="node31" class="node"><title>Node16</title>
<polygon fill="white" stroke="#bfbfbf" points="916.5,-0.5 916.5,-19.5 979.5,-19.5 979.5,-0.5 916.5,-0.5"/>
<text text-anchor="middle" x="948" y="-7.5" font-family="Arial.ttf" font-size="10.00">functional</text>
</g>
<!-- Node2&#45;&gt;Node16 -->
<g id="edge30" class="edge"><title>Node2&#45;&gt;Node16</title>
<path fill="none" stroke="midnightblue" d="M856.513,-56.324C874.072,-47.6247 901.331,-34.1202 921.531,-24.113"/>
<polygon fill="midnightblue" stroke="midnightblue" points="923.124,-27.23 930.531,-19.6545 920.016,-20.9575 923.124,-27.23"/>
</g>
<!-- Node17 -->
<g id="node33" class="node"><title>Node17</title>
<polygon fill="white" stroke="#bfbfbf" points="998,-0.5 998,-19.5 1052,-19.5 1052,-0.5 998,-0.5"/>
<text text-anchor="middle" x="1025" y="-7.5" font-family="Arial.ttf" font-size="10.00">random</text>
</g>
<!-- Node2&#45;&gt;Node17 -->
<g id="edge32" class="edge"><title>Node2&#45;&gt;Node17</title>
<path fill="none" stroke="midnightblue" d="M858.205,-59.4244C888.773,-50.5499 949.026,-33.0569 988.129,-21.7044"/>
<polygon fill="midnightblue" stroke="midnightblue" points="989.199,-25.0385 997.826,-18.8891 987.247,-18.3161 989.199,-25.0385"/>
</g>
<!-- Node18 -->
<g id="node35" class="node"><title>Node18</title>
<polygon fill="white" stroke="#bfbfbf" points="1070.5,-0.5 1070.5,-19.5 1119.5,-19.5 1119.5,-0.5 1070.5,-0.5"/>
<text text-anchor="middle" x="1095" y="-7.5" font-family="Arial.ttf" font-size="10.00">stdio.h</text>
</g>
<!-- Node2&#45;&gt;Node18 -->
<g id="edge34" class="edge"><title>Node2&#45;&gt;Node18</title>
<path fill="none" stroke="midnightblue" d="M858.087,-61.5226C895.1,-54.6966 979.393,-38.748 1060.31,-20.0492"/>
<polygon fill="midnightblue" stroke="midnightblue" points="1061.21,-23.4327 1070.16,-17.7556 1059.63,-16.6152 1061.21,-23.4327"/>
</g>
<!-- Node19 -->
<g id="node37" class="node"><title>Node19</title>
<polygon fill="white" stroke="#bfbfbf" points="1137.5,-0.5 1137.5,-19.5 1188.5,-19.5 1188.5,-0.5 1137.5,-0.5"/>
<text text-anchor="middle" x="1163" y="-7.5" font-family="Arial.ttf" font-size="10.00">stdlib.h</text>
</g>
<!-- Node2&#45;&gt;Node19 -->
<g id="edge36" class="edge"><title>Node2&#45;&gt;Node19</title>
<path fill="none" stroke="midnightblue" d="M858.05,-62.6855C903.067,-57.0793 1019.69,-41.756 1127.39,-19.9374"/>
<polygon fill="midnightblue" stroke="midnightblue" points="1128.36,-23.3123 1137.45,-17.8751 1126.95,-16.455 1128.36,-23.3123"/>
</g>
<!-- Node20 -->
<g id="node39" class="node"><title>Node20</title>
<polygon fill="white" stroke="#bfbfbf" points="1206.5,-0.5 1206.5,-19.5 1253.5,-19.5 1253.5,-0.5 1206.5,-0.5"/>
<text text-anchor="middle" x="1230" y="-7.5" font-family="Arial.ttf" font-size="10.00">float.h</text>
</g>
<!-- Node2&#45;&gt;Node20 -->
<g id="edge38" class="edge"><title>Node2&#45;&gt;Node20</title>
<path fill="none" stroke="midnightblue" d="M858.169,-63.5496C910.669,-59.3767 1061.28,-46.0625 1196.2,-19.8829"/>
<polygon fill="midnightblue" stroke="midnightblue" points="1197.17,-23.2605 1206.3,-17.8932 1195.81,-16.3926 1197.17,-23.2605"/>
</g>
<!-- Node21 -->
<g id="node41" class="node"><title>Node21</title>
<polygon fill="white" stroke="#bfbfbf" points="1271.5,-0.5 1271.5,-19.5 1322.5,-19.5 1322.5,-0.5 1271.5,-0.5"/>
<text text-anchor="middle" x="1297" y="-7.5" font-family="Arial.ttf" font-size="10.00">limits.h</text>
</g>
<!-- Node2&#45;&gt;Node21 -->
<g id="edge40" class="edge"><title>Node2&#45;&gt;Node21</title>
<path fill="none" stroke="midnightblue" d="M858.113,-63.9618C916.828,-60.5647 1099.85,-48.4285 1261.37,-19.8377"/>
<polygon fill="midnightblue" stroke="midnightblue" points="1262.26,-23.2335 1271.48,-18.0201 1261.02,-16.3439 1262.26,-23.2335"/>
</g>
<!-- Node22 -->
<g id="node43" class="node"><title>Node22</title>
<polygon fill="white" stroke="#bfbfbf" points="1341,-0.5 1341,-19.5 1397,-19.5 1397,-0.5 1341,-0.5"/>
<text text-anchor="middle" x="1369" y="-7.5" font-family="Arial.ttf" font-size="10.00">assert.h</text>
</g>
<!-- Node2&#45;&gt;Node22 -->
<g id="edge42" class="edge"><title>Node2&#45;&gt;Node22</title>
<path fill="none" stroke="midnightblue" d="M858.348,-64.2145C924.638,-61.3144 1148.58,-49.7922 1331,-20 1331.1,-19.9836 1331.2,-19.9671 1331.3,-19.9505"/>
<polygon fill="midnightblue" stroke="midnightblue" points="1331.7,-23.4379 1340.87,-18.1306 1330.39,-16.5613 1331.7,-23.4379"/>
</g>
<!-- Node23 -->
<g id="node45" class="node"><title>Node23</title>
<polygon fill="white" stroke="#bfbfbf" points="1415.5,-0.5 1415.5,-19.5 1462.5,-19.5 1462.5,-0.5 1415.5,-0.5"/>
<text text-anchor="middle" x="1439" y="-7.5" font-family="Arial.ttf" font-size="10.00">time.h</text>
</g>
<!-- Node2&#45;&gt;Node23 -->
<g id="edge44" class="edge"><title>Node2&#45;&gt;Node23</title>
<path fill="none" stroke="midnightblue" d="M858.253,-64.7732C929.58,-63.6631 1185.54,-57.2801 1405.22,-19.7771"/>
<polygon fill="midnightblue" stroke="midnightblue" points="1406.07,-23.1825 1415.33,-18.0258 1404.88,-16.2853 1406.07,-23.1825"/>
</g>
<!-- Node24 -->
<g id="node47" class="node"><title>Node24</title>
<polygon fill="white" stroke="#bfbfbf" points="1480.5,-0.5 1480.5,-19.5 1543.5,-19.5 1543.5,-0.5 1480.5,-0.5"/>
<text text-anchor="middle" x="1512" y="-7.5" font-family="Arial.ttf" font-size="10.00">sys/stat.h</text>
</g>
<!-- Node2&#45;&gt;Node24 -->
<g id="edge46" class="edge"><title>Node2&#45;&gt;Node24</title>
<path fill="none" stroke="midnightblue" d="M858.241,-64.6462C934.493,-63.0329 1222.91,-54.9325 1470.05,-19.9067"/>
<polygon fill="midnightblue" stroke="midnightblue" points="1470.9,-23.3204 1480.3,-18.4346 1469.9,-16.3915 1470.9,-23.3204"/>
</g>
<!-- Node25 -->
<g id="node49" class="node"><title>Node25</title>
<polygon fill="white" stroke="#bfbfbf" points="1561.5,-0.5 1561.5,-19.5 1612.5,-19.5 1612.5,-0.5 1561.5,-0.5"/>
<text text-anchor="middle" x="1587" y="-7.5" font-family="Arial.ttf" font-size="10.00">math.h</text>
</g>
<!-- Node2&#45;&gt;Node25 -->
<g id="edge48" class="edge"><title>Node2&#45;&gt;Node25</title>
<path fill="none" stroke="midnightblue" d="M858.035,-64.2856C954.768,-60.5827 1393.09,-42.9165 1551.12,-19.7674"/>
<polygon fill="midnightblue" stroke="midnightblue" points="1551.77,-23.2098 1561.12,-18.2348 1550.71,-16.2906 1551.77,-23.2098"/>
</g>
<!-- Node26 -->
<g id="node51" class="node"><title>Node26</title>
<polygon fill="white" stroke="#bfbfbf" points="1630.5,-0.5 1630.5,-19.5 1683.5,-19.5 1683.5,-0.5 1630.5,-0.5"/>
<text text-anchor="middle" x="1657" y="-7.5" font-family="Arial.ttf" font-size="10.00">string.h</text>
</g>
<!-- Node2&#45;&gt;Node26 -->
<g id="edge50" class="edge"><title>Node2&#45;&gt;Node26</title>
<path fill="none" stroke="midnightblue" d="M858.124,-64.3867C960.741,-61.0235 1447.52,-44.1361 1620.42,-19.7151"/>
<polygon fill="midnightblue" stroke="midnightblue" points="1620.99,-23.1688 1630.38,-18.2468 1619.97,-16.2438 1620.99,-23.1688"/>
</g>
<!-- Node27&#45;&gt;Node2 -->
<g id="edge54" class="edge"><title>Node27&#45;&gt;Node2</title>
<path fill="none" stroke="midnightblue" d="M733.449,-224.248C737.31,-203.088 749.483,-148.234 777,-112 786.709,-99.215 801.046,-88.4823 813.488,-80.7088"/>
<polygon fill="midnightblue" stroke="midnightblue" points="815.307,-83.6989 822.119,-75.5844 811.734,-77.6798 815.307,-83.6989"/>
</g>
<!-- Node28&#45;&gt;Node2 -->
<g id="edge58" class="edge"><title>Node28&#45;&gt;Node2</title>
<path fill="none" stroke="midnightblue" d="M838.734,-280.427C829.034,-272.275 815.721,-259.046 810,-244 788.931,-188.583 815.242,-117.692 830.111,-84.9969"/>
<polygon fill="midnightblue" stroke="midnightblue" points="833.353,-86.3284 834.462,-75.7917 827.025,-83.3369 833.353,-86.3284"/>
</g>
<!-- Node28&#45;&gt;Node27 -->
<g id="edge60" class="edge"><title>Node28&#45;&gt;Node27</title>
<path fill="none" stroke="midnightblue" d="M831.303,-280.444C812.056,-271.636 781.848,-257.812 759.8,-247.722"/>
<polygon fill="midnightblue" stroke="midnightblue" points="761.16,-244.495 750.61,-243.516 758.247,-250.86 761.16,-244.495"/>
</g>
<!-- Node29 -->
<g id="node60" class="node"><title>Node29</title>
<a xlink:href="_s_l_mat3_8h.html" target="_top" xlink:title="SLMat3.h">
<polygon fill="white" stroke="black" points="819,-224.5 819,-243.5 881,-243.5 881,-224.5 819,-224.5"/>
<text text-anchor="middle" x="850" y="-231.5" font-family="Arial.ttf" font-size="10.00">SLMat3.h</text>
</a>
</g>
<!-- Node28&#45;&gt;Node29 -->
<g id="edge62" class="edge"><title>Node28&#45;&gt;Node29</title>
<path fill="none" stroke="midnightblue" d="M850,-280.083C850,-273.006 850,-262.861 850,-253.986"/>
<polygon fill="midnightblue" stroke="midnightblue" points="853.5,-253.751 850,-243.751 846.5,-253.751 853.5,-253.751"/>
</g>
<!-- Node28&#45;&gt;Node35 -->
<g id="edge80" class="edge"><title>Node28&#45;&gt;Node35</title>
<path fill="none" stroke="midnightblue" d="M881.226,-286.006C941.213,-280.04 1076.89,-265.512 1200.59,-244.109"/>
<polygon fill="midnightblue" stroke="midnightblue" points="1201.37,-247.527 1210.61,-242.355 1200.16,-240.632 1201.37,-247.527"/>
</g>
<!-- Node36 -->
<g id="node80" class="node"><title>Node36</title>
<polygon fill="white" stroke="#bfbfbf" points="899.5,-224.5 899.5,-243.5 1036.5,-243.5 1036.5,-224.5 899.5,-224.5"/>
<text text-anchor="middle" x="968" y="-231.5" font-family="Arial.ttf" font-size="10.00">Shoemake/EulerAngles.h</text>
</g>
<!-- Node28&#45;&gt;Node36 -->
<g id="edge88" class="edge"><title>Node28&#45;&gt;Node36</title>
<path fill="none" stroke="midnightblue" d="M868.697,-280.444C887.944,-271.636 918.152,-257.812 940.2,-247.722"/>
<polygon fill="midnightblue" stroke="midnightblue" points="941.753,-250.86 949.39,-243.516 938.84,-244.495 941.753,-250.86"/>
</g>
<!-- Node37 -->
<g id="node82" class="node"><title>Node37</title>
<polygon fill="white" stroke="#bfbfbf" points="1055,-224.5 1055,-243.5 1193,-243.5 1193,-224.5 1055,-224.5"/>
<text text-anchor="middle" x="1124" y="-231.5" font-family="Arial.ttf" font-size="10.00">Shoemake/Decompose.h</text>
</g>
<!-- Node28&#45;&gt;Node37 -->
<g id="edge90" class="edge"><title>Node28&#45;&gt;Node37</title>
<path fill="none" stroke="midnightblue" d="M881.165,-282.858C927.248,-273.776 1014.18,-256.643 1070.56,-245.531"/>
<polygon fill="midnightblue" stroke="midnightblue" points="1071.58,-248.897 1080.72,-243.53 1070.23,-242.03 1071.58,-248.897"/>
</g>
<!-- Node29&#45;&gt;Node2 -->
<g id="edge64" class="edge"><title>Node29&#45;&gt;Node2</title>
<path fill="none" stroke="midnightblue" d="M849.409,-224.075C847.677,-197.945 842.592,-121.211 840.231,-85.577"/>
<polygon fill="midnightblue" stroke="midnightblue" points="843.721,-85.3148 839.568,-75.5681 836.737,-85.7777 843.721,-85.3148"/>
</g>
<!-- Node30 -->
<g id="node63" class="node"><title>Node30</title>
<a xlink:href="_s_l_vec3_8h.html" target="_top" xlink:title="SLVec3.h">
<polygon fill="white" stroke="black" points="905,-168.5 905,-187.5 967,-187.5 967,-168.5 905,-168.5"/>
<text text-anchor="middle" x="936" y="-175.5" font-family="Arial.ttf" font-size="10.00">SLVec3.h</text>
</a>
</g>
<!-- Node29&#45;&gt;Node30 -->
<g id="edge66" class="edge"><title>Node29&#45;&gt;Node30</title>
<path fill="none" stroke="midnightblue" d="M863.817,-224.324C877.233,-215.9 897.824,-202.971 913.586,-193.074"/>
<polygon fill="midnightblue" stroke="midnightblue" points="915.609,-195.936 922.217,-187.655 911.887,-190.008 915.609,-195.936"/>
</g>
<!-- Node30&#45;&gt;Node2 -->
<g id="edge68" class="edge"><title>Node30&#45;&gt;Node2</title>
<path fill="none" stroke="midnightblue" d="M928.314,-168.388C920.248,-159.342 907.207,-144.694 896,-132 881.495,-115.571 864.993,-96.7373 853.491,-83.5867"/>
<polygon fill="midnightblue" stroke="midnightblue" points="855.942,-81.073 846.726,-75.8479 850.672,-85.6802 855.942,-81.073"/>
</g>
<!-- Node31 -->
<g id="node66" class="node"><title>Node31</title>
<a xlink:href="_s_l_vec2_8h.html" target="_top" xlink:title="SLVec2.h">
<polygon fill="white" stroke="black" points="905,-112.5 905,-131.5 967,-131.5 967,-112.5 905,-112.5"/>
<text text-anchor="middle" x="936" y="-119.5" font-family="Arial.ttf" font-size="10.00">SLVec2.h</text>
</a>
</g>
<!-- Node30&#45;&gt;Node31 -->
<g id="edge70" class="edge"><title>Node30&#45;&gt;Node31</title>
<path fill="none" stroke="midnightblue" d="M936,-168.083C936,-161.006 936,-150.861 936,-141.986"/>
<polygon fill="midnightblue" stroke="midnightblue" points="939.5,-141.751 936,-131.751 932.5,-141.751 939.5,-141.751"/>
</g>
<!-- Node32 -->
<g id="node69" class="node"><title>Node32</title>
<a xlink:href="_s_l_utils_8h.html" target="_top" xlink:title="SLUtils.h">
<polygon fill="white" stroke="black" points="1147.5,-112.5 1147.5,-131.5 1206.5,-131.5 1206.5,-112.5 1147.5,-112.5"/>
<text text-anchor="middle" x="1177" y="-119.5" font-family="Arial.ttf" font-size="10.00">SLUtils.h</text>
</a>
</g>
<!-- Node30&#45;&gt;Node32 -->
<g id="edge74" class="edge"><title>Node30&#45;&gt;Node32</title>
<path fill="none" stroke="midnightblue" d="M967.013,-170.051C1010.48,-160.311 1089.54,-142.597 1137.27,-131.903"/>
<polygon fill="midnightblue" stroke="midnightblue" points="1138.25,-135.27 1147.24,-129.668 1136.72,-128.439 1138.25,-135.27"/>
</g>
<!-- Node31&#45;&gt;Node2 -->
<g id="edge72" class="edge"><title>Node31&#45;&gt;Node2</title>
<path fill="none" stroke="midnightblue" d="M920.415,-112.324C905.001,-103.743 881.188,-90.486 863.29,-80.5224"/>
<polygon fill="midnightblue" stroke="midnightblue" points="864.986,-77.4606 854.546,-75.6545 861.581,-83.5767 864.986,-77.4606"/>
</g>
<!-- Node33 -->
<g id="node71" class="node"><title>Node33</title>
<polygon fill="white" stroke="#bfbfbf" points="1113.5,-56.5 1113.5,-75.5 1168.5,-75.5 1168.5,-56.5 1113.5,-56.5"/>
<text text-anchor="middle" x="1141" y="-63.5" font-family="Arial.ttf" font-size="10.00">stdafx.h</text>
</g>
<!-- Node32&#45;&gt;Node33 -->
<g id="edge76" class="edge"><title>Node32&#45;&gt;Node33</title>
<path fill="none" stroke="midnightblue" d="M1171.06,-112.083C1166.02,-104.534 1158.66,-93.4948 1152.49,-84.2298"/>
<polygon fill="midnightblue" stroke="midnightblue" points="1155.29,-82.1301 1146.83,-75.7511 1149.47,-86.0131 1155.29,-82.1301"/>
</g>
<!-- Node34 -->
<g id="node73" class="node"><title>Node34</title>
<polygon fill="white" stroke="#bfbfbf" points="1186.5,-56.5 1186.5,-75.5 1239.5,-75.5 1239.5,-56.5 1186.5,-56.5"/>
<text text-anchor="middle" x="1213" y="-63.5" font-family="Arial.ttf" font-size="10.00">dirent.h</text>
</g>
<!-- Node32&#45;&gt;Node34 -->
<g id="edge78" class="edge"><title>Node32&#45;&gt;Node34</title>
<path fill="none" stroke="midnightblue" d="M1182.94,-112.083C1187.98,-104.534 1195.34,-93.4948 1201.51,-84.2298"/>
<polygon fill="midnightblue" stroke="midnightblue" points="1204.53,-86.0131 1207.17,-75.7511 1198.71,-82.1301 1204.53,-86.0131"/>
</g>
<!-- Node35&#45;&gt;Node2 -->
<g id="edge82" class="edge"><title>Node35&#45;&gt;Node2</title>
<path fill="none" stroke="midnightblue" d="M1224.85,-224.404C1182.99,-203.591 1071.94,-149.448 976,-112 939.397,-97.7131 896.181,-84.0301 868.219,-75.5806"/>
<polygon fill="midnightblue" stroke="midnightblue" points="868.878,-72.1245 858.294,-72.6081 866.87,-78.8302 868.878,-72.1245"/>
</g>
<!-- Node35&#45;&gt;Node30 -->
<g id="edge84" class="edge"><title>Node35&#45;&gt;Node30</title>
<path fill="none" stroke="midnightblue" d="M1210.59,-225.766C1207.69,-225.148 1204.79,-224.55 1202,-224 1122.73,-208.389 1029.51,-193.384 977.136,-185.257"/>
<polygon fill="midnightblue" stroke="midnightblue" points="977.639,-181.793 967.222,-183.725 976.57,-188.711 977.639,-181.793"/>
</g>
<!-- Node35&#45;&gt;Node32 -->
<g id="edge86" class="edge"><title>Node35&#45;&gt;Node32</title>
<path fill="none" stroke="midnightblue" d="M1236.9,-224.368C1226.22,-206.296 1201.33,-164.176 1187.23,-140.307"/>
<polygon fill="midnightblue" stroke="midnightblue" points="1190.18,-138.42 1182.08,-131.591 1184.15,-141.981 1190.18,-138.42"/>
</g>
</g>
</svg>
