<?xml version="1.0" encoding="UTF-8" standalone="no"?>
<!DOCTYPE svg PUBLIC "-//W3C//DTD SVG 1.1//EN"
 "http://www.w3.org/Graphics/SVG/1.1/DTD/svg11.dtd">
<!-- Generated by graphviz version 2.40.1 (20161225.0304)
 -->
<!-- Title: SLSkybox.h Pages: 1 -->
<svg width="724pt" height="700pt"
 viewBox="0.00 0.00 724.00 700.00" xmlns="http://www.w3.org/2000/svg" xmlns:xlink="http://www.w3.org/1999/xlink">
<g id="graph0" class="graph" transform="scale(1 1) rotate(0) translate(4 696)">
<title>SLSkybox.h</title>
<polygon fill="#ffffff" stroke="transparent" points="-4,4 -4,-696 720,-696 720,4 -4,4"/>
<!-- Node1 -->
<g id="node1" class="node">
<title>Node1</title>
<g id="a_node1"><a xlink:title=" ">
<polygon fill="#bfbfbf" stroke="#000000" points="212.5,-672.5 212.5,-691.5 282.5,-691.5 282.5,-672.5 212.5,-672.5"/>
<text text-anchor="middle" x="247.5" y="-679.5" font-family="Arial.ttf" font-size="10.00" fill="#000000">SLSkybox.h</text>
</a>
</g>
</g>
<!-- Node2 -->
<g id="node2" class="node">
<title>Node2</title>
<g id="a_node2"><a xlink:href="_s_l_enums_8h.html" target="_top" xlink:title=" ">
<polygon fill="#ffffff" stroke="#000000" points="135.5,-504.5 135.5,-523.5 203.5,-523.5 203.5,-504.5 135.5,-504.5"/>
<text text-anchor="middle" x="169.5" y="-511.5" font-family="Arial.ttf" font-size="10.00" fill="#000000">SLEnums.h</text>
</a>
</g>
</g>
<!-- Node1&#45;&gt;Node2 -->
<g id="edge1" class="edge">
<title>Node1&#45;&gt;Node2</title>
<path fill="none" stroke="#191970" d="M256.1549,-672.3317C274.5308,-650.5888 313.7691,-596.8592 288.5,-560 279.5545,-546.9514 243.5382,-534.142 213.4484,-525.3678"/>
<polygon fill="#191970" stroke="#191970" points="214.0944,-521.9131 203.5189,-522.5524 212.1849,-528.6476 214.0944,-521.9131"/>
</g>
<!-- Node3 -->
<g id="node3" class="node">
<title>Node3</title>
<g id="a_node3"><a xlink:href="_s_l_node_8h.html" target="_top" xlink:title=" ">
<polygon fill="#ffffff" stroke="#000000" points="187,-616.5 187,-635.5 248,-635.5 248,-616.5 187,-616.5"/>
<text text-anchor="middle" x="217.5" y="-623.5" font-family="Arial.ttf" font-size="10.00" fill="#000000">SLNode.h</text>
</a>
</g>
</g>
<!-- Node1&#45;&gt;Node3 -->
<g id="edge2" class="edge">
<title>Node1&#45;&gt;Node3</title>
<path fill="none" stroke="#191970" d="M242.2744,-672.2455C238.1877,-664.617 232.3865,-653.7881 227.425,-644.5267"/>
<polygon fill="#191970" stroke="#191970" points="230.4732,-642.8047 222.6657,-635.6427 224.3028,-646.1103 230.4732,-642.8047"/>
</g>
<!-- Node3&#45;&gt;Node2 -->
<g id="edge17" class="edge">
<title>Node3&#45;&gt;Node2</title>
<path fill="none" stroke="#191970" d="M213.4075,-616.4509C205.4726,-597.936 187.8682,-556.8591 177.5223,-532.7187"/>
<polygon fill="#191970" stroke="#191970" points="180.7384,-531.3376 173.5821,-523.5249 174.3043,-534.0951 180.7384,-531.3376"/>
</g>
<!-- Node4 -->
<g id="node4" class="node">
<title>Node4</title>
<g id="a_node4"><a xlink:href="_s_l_draw_bits_8h.html" target="_top" xlink:title=" ">
<polygon fill="#ffffff" stroke="#000000" points="0,-448.5 0,-467.5 77,-467.5 77,-448.5 0,-448.5"/>
<text text-anchor="middle" x="38.5" y="-455.5" font-family="Arial.ttf" font-size="10.00" fill="#000000">SLDrawBits.h</text>
</a>
</g>
</g>
<!-- Node3&#45;&gt;Node4 -->
<g id="edge3" class="edge">
<title>Node3&#45;&gt;Node4</title>
<path fill="none" stroke="#191970" d="M186.7455,-621.5701C143.9772,-614.748 69.8282,-600.3 52.5,-580 28.0352,-551.3394 30.6791,-504.0985 34.6607,-477.5964"/>
<polygon fill="#191970" stroke="#191970" points="38.1303,-478.0709 36.3738,-467.6227 31.2314,-476.8858 38.1303,-478.0709"/>
</g>
<!-- Node15 -->
<g id="node15" class="node">
<title>Node15</title>
<g id="a_node15"><a xlink:href="_s_l_event_handler_8h.html" target="_top" xlink:title=" ">
<polygon fill="#ffffff" stroke="#000000" points="61.5,-560.5 61.5,-579.5 159.5,-579.5 159.5,-560.5 61.5,-560.5"/>
<text text-anchor="middle" x="110.5" y="-567.5" font-family="Arial.ttf" font-size="10.00" fill="#000000">SLEventHandler.h</text>
</a>
</g>
</g>
<!-- Node3&#45;&gt;Node15 -->
<g id="edge18" class="edge">
<title>Node3&#45;&gt;Node15</title>
<path fill="none" stroke="#191970" d="M198.862,-616.2455C182.0614,-607.4527 157.1366,-594.4079 138.0382,-584.4125"/>
<polygon fill="#191970" stroke="#191970" points="139.4073,-581.1787 128.9244,-579.6427 136.1614,-587.3807 139.4073,-581.1787"/>
</g>
<!-- Node16 -->
<g id="node16" class="node">
<title>Node16</title>
<g id="a_node16"><a xlink:href="_s_l_mesh_8h.html" target="_top" xlink:title=" ">
<polygon fill="#ffffff" stroke="#000000" points="373.5,-560.5 373.5,-579.5 435.5,-579.5 435.5,-560.5 373.5,-560.5"/>
<text text-anchor="middle" x="404.5" y="-567.5" font-family="Arial.ttf" font-size="10.00" fill="#000000">SLMesh.h</text>
</a>
</g>
</g>
<!-- Node3&#45;&gt;Node16 -->
<g id="edge21" class="edge">
<title>Node3&#45;&gt;Node16</title>
<path fill="none" stroke="#191970" d="M248.3792,-616.7527C279.82,-607.3373 328.7444,-592.6862 363.436,-582.2972"/>
<polygon fill="#191970" stroke="#191970" points="364.6874,-585.5762 373.2629,-579.3544 362.6792,-578.8704 364.6874,-585.5762"/>
</g>
<!-- Node30 -->
<g id="node30" class="node">
<title>Node30</title>
<g id="a_node30"><a xlink:title=" ">
<polygon fill="#ffffff" stroke="#bfbfbf" points="215.5,-560.5 215.5,-579.5 279.5,-579.5 279.5,-560.5 215.5,-560.5"/>
<text text-anchor="middle" x="247.5" y="-567.5" font-family="Arial.ttf" font-size="10.00" fill="#000000">SLQuat4.h</text>
</a>
</g>
</g>
<!-- Node3&#45;&gt;Node30 -->
<g id="edge44" class="edge">
<title>Node3&#45;&gt;Node30</title>
<path fill="none" stroke="#191970" d="M222.7256,-616.2455C226.8123,-608.617 232.6135,-597.7881 237.575,-588.5267"/>
<polygon fill="#191970" stroke="#191970" points="240.6972,-590.1103 242.3343,-579.6427 234.5268,-586.8047 240.6972,-590.1103"/>
</g>
<!-- Node5 -->
<g id="node5" class="node">
<title>Node5</title>
<g id="a_node5"><a xlink:href="_s_l_8h.html" target="_top" xlink:title=" ">
<polygon fill="#ffffff" stroke="#000000" points="350,-168.5 350,-187.5 387,-187.5 387,-168.5 350,-168.5"/>
<text text-anchor="middle" x="368.5" y="-175.5" font-family="Arial.ttf" font-size="10.00" fill="#000000">SL.h</text>
</a>
</g>
</g>
<!-- Node4&#45;&gt;Node5 -->
<g id="edge4" class="edge">
<title>Node4&#45;&gt;Node5</title>
<path fill="none" stroke="#191970" d="M40.9357,-448.4856C45.6363,-429.2608 55.5,-384.351 55.5,-346 55.5,-346 55.5,-346 55.5,-290 55.5,-256.1521 65.6999,-243.3089 93.5,-224 133.0683,-196.5174 277.3591,-183.9624 339.6003,-179.7364"/>
<polygon fill="#191970" stroke="#191970" points="340.1335,-183.2091 349.8837,-179.0639 339.6766,-176.224 340.1335,-183.2091"/>
</g>
<!-- Node6 -->
<g id="node6" class="node">
<title>Node6</title>
<g id="a_node6"><a xlink:href="_utils_8h.html" target="_top" xlink:title=" ">
<polygon fill="#ffffff" stroke="#000000" points="346.5,-112.5 346.5,-131.5 390.5,-131.5 390.5,-112.5 346.5,-112.5"/>
<text text-anchor="middle" x="368.5" y="-119.5" font-family="Arial.ttf" font-size="10.00" fill="#000000">Utils.h</text>
</a>
</g>
</g>
<!-- Node5&#45;&gt;Node6 -->
<g id="edge5" class="edge">
<title>Node5&#45;&gt;Node6</title>
<path fill="none" stroke="#191970" d="M368.5,-168.2455C368.5,-160.9382 368.5,-150.6944 368.5,-141.7046"/>
<polygon fill="#191970" stroke="#191970" points="372.0001,-141.6426 368.5,-131.6427 365.0001,-141.6427 372.0001,-141.6426"/>
</g>
<!-- Node7 -->
<g id="node7" class="node">
<title>Node7</title>
<g id="a_node7"><a xlink:title=" ">
<polygon fill="#ffffff" stroke="#bfbfbf" points="410,-.5 410,-19.5 451,-19.5 451,-.5 410,-.5"/>
<text text-anchor="middle" x="430.5" y="-7.5" font-family="Arial.ttf" font-size="10.00" fill="#000000">string</text>
</a>
</g>
</g>
<!-- Node6&#45;&gt;Node7 -->
<g id="edge6" class="edge">
<title>Node6&#45;&gt;Node7</title>
<path fill="none" stroke="#191970" d="M382.134,-112.2218C392.8334,-103.819 407.2536,-90.7491 415.5,-76 423.4744,-61.7374 427.2115,-43.4947 428.9616,-29.8047"/>
<polygon fill="#191970" stroke="#191970" points="432.4734,-29.8685 430.0138,-19.5631 425.51,-29.153 432.4734,-29.8685"/>
</g>
<!-- Node8 -->
<g id="node8" class="node">
<title>Node8</title>
<g id="a_node8"><a xlink:title=" ">
<polygon fill="#ffffff" stroke="#bfbfbf" points="210.5,-56.5 210.5,-75.5 254.5,-75.5 254.5,-56.5 210.5,-56.5"/>
<text text-anchor="middle" x="232.5" y="-63.5" font-family="Arial.ttf" font-size="10.00" fill="#000000">vector</text>
</a>
</g>
</g>
<!-- Node6&#45;&gt;Node8 -->
<g id="edge7" class="edge">
<title>Node6&#45;&gt;Node8</title>
<path fill="none" stroke="#191970" d="M346.3466,-112.878C324.0202,-103.6848 289.3516,-89.4095 264.1352,-79.0263"/>
<polygon fill="#191970" stroke="#191970" points="265.2234,-75.6893 254.644,-75.1181 262.5581,-82.162 265.2234,-75.6893"/>
</g>
<!-- Node9 -->
<g id="node9" class="node">
<title>Node9</title>
<g id="a_node9"><a xlink:title=" ">
<polygon fill="#ffffff" stroke="#bfbfbf" points="272.5,-56.5 272.5,-75.5 312.5,-75.5 312.5,-56.5 272.5,-56.5"/>
<text text-anchor="middle" x="292.5" y="-63.5" font-family="Arial.ttf" font-size="10.00" fill="#000000">cfloat</text>
</a>
</g>
</g>
<!-- Node6&#45;&gt;Node9 -->
<g id="edge8" class="edge">
<title>Node6&#45;&gt;Node9</title>
<path fill="none" stroke="#191970" d="M355.2618,-112.2455C343.819,-103.814 327.0704,-91.4729 313.7525,-81.6598"/>
<polygon fill="#191970" stroke="#191970" points="315.7133,-78.757 305.5865,-75.6427 311.5609,-84.3924 315.7133,-78.757"/>
</g>
<!-- Node10 -->
<g id="node10" class="node">
<title>Node10</title>
<g id="a_node10"><a xlink:title=" ">
<polygon fill="#ffffff" stroke="#bfbfbf" points="249,-.5 249,-19.5 302,-19.5 302,-.5 249,-.5"/>
<text text-anchor="middle" x="275.5" y="-7.5" font-family="Arial.ttf" font-size="10.00" fill="#000000">memory</text>
</a>
</g>
</g>
<!-- Node6&#45;&gt;Node10 -->
<g id="edge9" class="edge">
<title>Node6&#45;&gt;Node10</title>
<path fill="none" stroke="#191970" d="M346.3314,-119.2078C305.0741,-113.5073 219.0859,-99.0849 201.5,-76 185.7984,-55.3887 214.1412,-36.1989 240.1643,-23.8842"/>
<polygon fill="#191970" stroke="#191970" points="241.8699,-26.9552 249.5609,-19.6683 239.0044,-20.5685 241.8699,-26.9552"/>
</g>
<!-- Node11 -->
<g id="node11" class="node">
<title>Node11</title>
<g id="a_node11"><a xlink:href="_file_log_8h.html" target="_top" xlink:title=" ">
<polygon fill="#ffffff" stroke="#000000" points="462.5,-56.5 462.5,-75.5 520.5,-75.5 520.5,-56.5 462.5,-56.5"/>
<text text-anchor="middle" x="491.5" y="-63.5" font-family="Arial.ttf" font-size="10.00" fill="#000000">FileLog.h</text>
</a>
</g>
</g>
<!-- Node6&#45;&gt;Node11 -->
<g id="edge10" class="edge">
<title>Node6&#45;&gt;Node11</title>
<path fill="none" stroke="#191970" d="M389.6445,-112.3733C409.3892,-103.3838 439.0698,-89.8706 461.3055,-79.7471"/>
<polygon fill="#191970" stroke="#191970" points="462.9806,-82.8302 470.6315,-75.5011 460.08,-76.4594 462.9806,-82.8302"/>
</g>
<!-- Node13 -->
<g id="node13" class="node">
<title>Node13</title>
<g id="a_node13"><a xlink:href="_custom_log_8h.html" target="_top" xlink:title=" ">
<polygon fill="#ffffff" stroke="#000000" points="330.5,-56.5 330.5,-75.5 406.5,-75.5 406.5,-56.5 330.5,-56.5"/>
<text text-anchor="middle" x="368.5" y="-63.5" font-family="Arial.ttf" font-size="10.00" fill="#000000">CustomLog.h</text>
</a>
</g>
</g>
<!-- Node6&#45;&gt;Node13 -->
<g id="edge13" class="edge">
<title>Node6&#45;&gt;Node13</title>
<path fill="none" stroke="#191970" d="M368.5,-112.2455C368.5,-104.9382 368.5,-94.6944 368.5,-85.7046"/>
<polygon fill="#191970" stroke="#191970" points="372.0001,-85.6426 368.5,-75.6427 365.0001,-85.6427 372.0001,-85.6426"/>
</g>
<!-- Node14 -->
<g id="node14" class="node">
<title>Node14</title>
<g id="a_node14"><a xlink:title=" ">
<polygon fill="#ffffff" stroke="#bfbfbf" points="539,-56.5 539,-75.5 598,-75.5 598,-56.5 539,-56.5"/>
<text text-anchor="middle" x="568.5" y="-63.5" font-family="Arial.ttf" font-size="10.00" fill="#000000">functional</text>
</a>
</g>
</g>
<!-- Node6&#45;&gt;Node14 -->
<g id="edge16" class="edge">
<title>Node6&#45;&gt;Node14</title>
<path fill="none" stroke="#191970" d="M390.6677,-115.7931C424.0224,-106.4537 487.6109,-88.6489 529.0157,-77.0556"/>
<polygon fill="#191970" stroke="#191970" points="530.0897,-80.3896 538.7756,-74.3228 528.2023,-73.6488 530.0897,-80.3896"/>
</g>
<!-- Node11&#45;&gt;Node7 -->
<g id="edge11" class="edge">
<title>Node11&#45;&gt;Node7</title>
<path fill="none" stroke="#191970" d="M480.8746,-56.2455C471.9527,-48.0549 459.012,-36.1749 448.4808,-26.5069"/>
<polygon fill="#191970" stroke="#191970" points="450.7371,-23.8271 441.0036,-19.6427 446.0032,-28.9837 450.7371,-23.8271"/>
</g>
<!-- Node12 -->
<g id="node12" class="node">
<title>Node12</title>
<g id="a_node12"><a xlink:title=" ">
<polygon fill="#ffffff" stroke="#bfbfbf" points="469.5,-.5 469.5,-19.5 519.5,-19.5 519.5,-.5 469.5,-.5"/>
<text text-anchor="middle" x="494.5" y="-7.5" font-family="Arial.ttf" font-size="10.00" fill="#000000">fstream</text>
</a>
</g>
</g>
<!-- Node11&#45;&gt;Node12 -->
<g id="edge12" class="edge">
<title>Node11&#45;&gt;Node12</title>
<path fill="none" stroke="#191970" d="M492.0226,-56.2455C492.414,-48.9382 492.9628,-38.6944 493.4444,-29.7046"/>
<polygon fill="#191970" stroke="#191970" points="496.9434,-29.8156 493.9834,-19.6427 489.9534,-29.4411 496.9434,-29.8156"/>
</g>
<!-- Node13&#45;&gt;Node7 -->
<g id="edge15" class="edge">
<title>Node13&#45;&gt;Node7</title>
<path fill="none" stroke="#191970" d="M379.2996,-56.2455C388.3678,-48.0549 401.5206,-36.1749 412.2245,-26.5069"/>
<polygon fill="#191970" stroke="#191970" points="414.7491,-28.9429 419.8242,-19.6427 410.0571,-23.7482 414.7491,-28.9429"/>
</g>
<!-- Node13&#45;&gt;Node10 -->
<g id="edge14" class="edge">
<title>Node13&#45;&gt;Node10</title>
<path fill="none" stroke="#191970" d="M352.3006,-56.2455C337.8982,-47.5731 316.6268,-34.7645 300.1201,-24.825"/>
<polygon fill="#191970" stroke="#191970" points="301.886,-21.8028 291.5137,-19.6427 298.275,-27.7996 301.886,-21.8028"/>
</g>
<!-- Node15&#45;&gt;Node2 -->
<g id="edge20" class="edge">
<title>Node15&#45;&gt;Node2</title>
<path fill="none" stroke="#191970" d="M120.777,-560.2455C129.3218,-552.1352 141.6778,-540.4075 151.8085,-530.7919"/>
<polygon fill="#191970" stroke="#191970" points="154.4972,-533.0655 159.3408,-523.6427 149.6782,-527.9884 154.4972,-533.0655"/>
</g>
<!-- Node15&#45;&gt;Node5 -->
<g id="edge19" class="edge">
<title>Node15&#45;&gt;Node5</title>
<path fill="none" stroke="#191970" d="M110.0702,-560.4139C109.2406,-541.0603 107.5,-495.9303 107.5,-458 107.5,-458 107.5,-458 107.5,-290 107.5,-239.9193 271.8315,-198.7977 339.7045,-183.9493"/>
<polygon fill="#191970" stroke="#191970" points="340.6884,-187.3178 349.7295,-181.7944 339.2173,-180.4741 340.6884,-187.3178"/>
</g>
<!-- Node16&#45;&gt;Node2 -->
<g id="edge38" class="edge">
<title>Node16&#45;&gt;Node2</title>
<path fill="none" stroke="#191970" d="M373.2938,-562.5636C332.2336,-552.7791 259.8403,-535.5279 213.3063,-524.439"/>
<polygon fill="#191970" stroke="#191970" points="214.0423,-521.0164 203.5033,-522.1029 212.4196,-527.8257 214.0423,-521.0164"/>
</g>
<!-- Node17 -->
<g id="node17" class="node">
<title>Node17</title>
<g id="a_node17"><a xlink:href="_s_l_a_a_b_box_8h.html" target="_top" xlink:title=" ">
<polygon fill="#ffffff" stroke="#000000" points="574.5,-504.5 574.5,-523.5 648.5,-523.5 648.5,-504.5 574.5,-504.5"/>
<text text-anchor="middle" x="611.5" y="-511.5" font-family="Arial.ttf" font-size="10.00" fill="#000000">SLAABBox.h</text>
</a>
</g>
</g>
<!-- Node16&#45;&gt;Node17 -->
<g id="edge22" class="edge">
<title>Node16&#45;&gt;Node17</title>
<path fill="none" stroke="#191970" d="M435.9388,-561.4948C470.6895,-552.0937 526.9563,-536.8717 566.4006,-526.2008"/>
<polygon fill="#191970" stroke="#191970" points="567.5547,-529.5145 576.2937,-523.5244 565.7267,-522.7574 567.5547,-529.5145"/>
</g>
<!-- Node19 -->
<g id="node19" class="node">
<title>Node19</title>
<g id="a_node19"><a xlink:href="_s_l_g_l_vertex_array_8h.html" target="_top" xlink:title=" ">
<polygon fill="#ffffff" stroke="#000000" points="474,-392.5 474,-411.5 577,-411.5 577,-392.5 474,-392.5"/>
<text text-anchor="middle" x="525.5" y="-399.5" font-family="Arial.ttf" font-size="10.00" fill="#000000">SLGLVertexArray.h</text>
</a>
</g>
</g>
<!-- Node16&#45;&gt;Node19 -->
<g id="edge39" class="edge">
<title>Node16&#45;&gt;Node19</title>
<path fill="none" stroke="#191970" d="M430.1537,-560.3689C447.1278,-552.8124 468.7169,-540.7543 482.5,-524 507.481,-493.634 518.4053,-447.7361 522.8153,-421.7569"/>
<polygon fill="#191970" stroke="#191970" points="526.3093,-422.0627 524.3696,-411.6469 519.3906,-420.999 526.3093,-422.0627"/>
</g>
<!-- Node27 -->
<g id="node27" class="node">
<title>Node27</title>
<g id="a_node27"><a xlink:href="_s_l_object_8h.html" target="_top" xlink:title=" ">
<polygon fill="#ffffff" stroke="#000000" points="362.5,-392.5 362.5,-411.5 428.5,-411.5 428.5,-392.5 362.5,-392.5"/>
<text text-anchor="middle" x="395.5" y="-399.5" font-family="Arial.ttf" font-size="10.00" fill="#000000">SLObject.h</text>
</a>
</g>
</g>
<!-- Node16&#45;&gt;Node27 -->
<g id="edge40" class="edge">
<title>Node16&#45;&gt;Node27</title>
<path fill="none" stroke="#191970" d="M426.6066,-560.4742C441.1331,-552.902 458.9737,-540.7828 467.5,-524 471.5261,-516.0752 470.189,-512.4724 467.5,-504 456.7133,-470.0142 430.0599,-437.589 412.3849,-418.7517"/>
<polygon fill="#191970" stroke="#191970" points="414.8943,-416.3118 405.4321,-411.5456 409.8568,-421.1722 414.8943,-416.3118"/>
</g>
<!-- Node28 -->
<g id="node28" class="node">
<title>Node28</title>
<g id="a_node28"><a xlink:href="_s_l_optix_accel_struct_8h.html" target="_top" xlink:title=" ">
<polygon fill="#ffffff" stroke="#000000" points="222,-504.5 222,-523.5 333,-523.5 333,-504.5 222,-504.5"/>
<text text-anchor="middle" x="277.5" y="-511.5" font-family="Arial.ttf" font-size="10.00" fill="#000000">SLOptixAccelStruct.h</text>
</a>
</g>
</g>
<!-- Node16&#45;&gt;Node28 -->
<g id="edge42" class="edge">
<title>Node16&#45;&gt;Node28</title>
<path fill="none" stroke="#191970" d="M382.6679,-560.3733C362.1897,-551.3435 331.3601,-537.7494 308.3681,-527.6111"/>
<polygon fill="#191970" stroke="#191970" points="309.6093,-524.3333 299.0472,-523.5011 306.785,-530.7383 309.6093,-524.3333"/>
</g>
<!-- Node29 -->
<g id="node29" class="node">
<title>Node29</title>
<g id="a_node29"><a xlink:href="_s_l_optix_definitions_8h.html" target="_top" xlink:title=" ">
<polygon fill="#ffffff" stroke="#000000" points="351,-504.5 351,-523.5 458,-523.5 458,-504.5 351,-504.5"/>
<text text-anchor="middle" x="404.5" y="-511.5" font-family="Arial.ttf" font-size="10.00" fill="#000000">SLOptixDefinitions.h</text>
</a>
</g>
</g>
<!-- Node16&#45;&gt;Node29 -->
<g id="edge43" class="edge">
<title>Node16&#45;&gt;Node29</title>
<path fill="none" stroke="#191970" d="M404.5,-560.2455C404.5,-552.9382 404.5,-542.6944 404.5,-533.7046"/>
<polygon fill="#191970" stroke="#191970" points="408.0001,-533.6426 404.5,-523.6427 401.0001,-533.6427 408.0001,-533.6426"/>
</g>
<!-- Node18 -->
<g id="node18" class="node">
<title>Node18</title>
<g id="a_node18"><a xlink:href="_s_l_g_l_vertex_array_ext_8h.html" target="_top" xlink:title=" ">
<polygon fill="#ffffff" stroke="#000000" points="552.5,-448.5 552.5,-467.5 670.5,-467.5 670.5,-448.5 552.5,-448.5"/>
<text text-anchor="middle" x="611.5" y="-455.5" font-family="Arial.ttf" font-size="10.00" fill="#000000">SLGLVertexArrayExt.h</text>
</a>
</g>
</g>
<!-- Node17&#45;&gt;Node18 -->
<g id="edge23" class="edge">
<title>Node17&#45;&gt;Node18</title>
<path fill="none" stroke="#191970" d="M611.5,-504.2455C611.5,-496.9382 611.5,-486.6944 611.5,-477.7046"/>
<polygon fill="#191970" stroke="#191970" points="615.0001,-477.6426 611.5,-467.6427 608.0001,-477.6427 615.0001,-477.6426"/>
</g>
<!-- Node24 -->
<g id="node24" class="node">
<title>Node24</title>
<g id="a_node24"><a xlink:title=" ">
<polygon fill="#ffffff" stroke="#bfbfbf" points="657,-168.5 657,-187.5 716,-187.5 716,-168.5 657,-168.5"/>
<text text-anchor="middle" x="686.5" y="-175.5" font-family="Arial.ttf" font-size="10.00" fill="#000000">SLMat4.h</text>
</a>
</g>
</g>
<!-- Node17&#45;&gt;Node24 -->
<g id="edge37" class="edge">
<title>Node17&#45;&gt;Node24</title>
<path fill="none" stroke="#191970" d="M633.1883,-504.3358C648.2608,-496.5635 667.6898,-484.2604 679.5,-468 697.4382,-443.3024 698.5,-432.5246 698.5,-402 698.5,-402 698.5,-402 698.5,-290 698.5,-257.3778 693.4046,-219.7135 689.8544,-197.4301"/>
<polygon fill="#191970" stroke="#191970" points="693.3053,-196.8456 688.2193,-187.5514 686.3993,-197.9887 693.3053,-196.8456"/>
</g>
<!-- Node18&#45;&gt;Node19 -->
<g id="edge24" class="edge">
<title>Node18&#45;&gt;Node19</title>
<path fill="none" stroke="#191970" d="M596.5199,-448.2455C583.3249,-439.6534 563.8949,-427.0014 548.6921,-417.1018"/>
<polygon fill="#191970" stroke="#191970" points="550.5983,-414.1665 540.3084,-411.6427 546.7785,-420.0325 550.5983,-414.1665"/>
</g>
<!-- Node20 -->
<g id="node20" class="node">
<title>Node20</title>
<g id="a_node20"><a xlink:href="_s_l_g_l_enums_8h.html" target="_top" xlink:title=" ">
<polygon fill="#ffffff" stroke="#000000" points="396.5,-280.5 396.5,-299.5 478.5,-299.5 478.5,-280.5 396.5,-280.5"/>
<text text-anchor="middle" x="437.5" y="-287.5" font-family="Arial.ttf" font-size="10.00" fill="#000000">SLGLEnums.h</text>
</a>
</g>
</g>
<!-- Node19&#45;&gt;Node20 -->
<g id="edge25" class="edge">
<title>Node19&#45;&gt;Node20</title>
<path fill="none" stroke="#191970" d="M508.2135,-392.4836C494.7474,-384.3199 476.4005,-371.445 464.5,-356 453.8872,-342.2262 446.7924,-323.6995 442.5499,-309.7813"/>
<polygon fill="#191970" stroke="#191970" points="445.817,-308.4692 439.7463,-299.786 439.0771,-310.3597 445.817,-308.4692"/>
</g>
<!-- Node25 -->
<g id="node25" class="node">
<title>Node25</title>
<g id="a_node25"><a xlink:href="_s_l_g_l_vertex_buffer_8h.html" target="_top" xlink:title=" ">
<polygon fill="#ffffff" stroke="#000000" points="473.5,-336.5 473.5,-355.5 579.5,-355.5 579.5,-336.5 473.5,-336.5"/>
<text text-anchor="middle" x="526.5" y="-343.5" font-family="Arial.ttf" font-size="10.00" fill="#000000">SLGLVertexBuffer.h</text>
</a>
</g>
</g>
<!-- Node19&#45;&gt;Node25 -->
<g id="edge32" class="edge">
<title>Node19&#45;&gt;Node25</title>
<path fill="none" stroke="#191970" d="M525.6742,-392.2455C525.8047,-384.9382 525.9876,-374.6944 526.1481,-365.7046"/>
<polygon fill="#191970" stroke="#191970" points="529.6486,-365.7036 526.3278,-355.6427 522.6497,-365.5786 529.6486,-365.7036"/>
</g>
<!-- Node20&#45;&gt;Node5 -->
<g id="edge26" class="edge">
<title>Node20&#45;&gt;Node5</title>
<path fill="none" stroke="#191970" d="M431.6171,-280.4509C420.1087,-261.7707 394.4512,-220.1238 379.6362,-196.0761"/>
<polygon fill="#191970" stroke="#191970" points="382.5932,-194.203 374.368,-187.5249 376.6334,-197.8747 382.5932,-194.203"/>
</g>
<!-- Node21 -->
<g id="node21" class="node">
<title>Node21</title>
<g id="a_node21"><a xlink:href="_s_l_g_l_state_8h.html" target="_top" xlink:title=" ">
<polygon fill="#ffffff" stroke="#000000" points="482.5,-224.5 482.5,-243.5 556.5,-243.5 556.5,-224.5 482.5,-224.5"/>
<text text-anchor="middle" x="519.5" y="-231.5" font-family="Arial.ttf" font-size="10.00" fill="#000000">SLGLState.h</text>
</a>
</g>
</g>
<!-- Node20&#45;&gt;Node21 -->
<g id="edge27" class="edge">
<title>Node20&#45;&gt;Node21</title>
<path fill="none" stroke="#191970" d="M451.7833,-280.2455C464.247,-271.7337 482.5451,-259.2375 496.9792,-249.3801"/>
<polygon fill="#191970" stroke="#191970" points="499.0962,-252.1726 505.3804,-243.6427 495.1485,-246.392 499.0962,-252.1726"/>
</g>
<!-- Node21&#45;&gt;Node5 -->
<g id="edge28" class="edge">
<title>Node21&#45;&gt;Node5</title>
<path fill="none" stroke="#191970" d="M493.5422,-224.3733C466.6565,-214.4024 424.7642,-198.8662 396.9823,-188.563"/>
<polygon fill="#191970" stroke="#191970" points="398.0322,-185.2195 387.4392,-185.0238 395.5981,-191.7826 398.0322,-185.2195"/>
</g>
<!-- Node22 -->
<g id="node22" class="node">
<title>Node22</title>
<g id="a_node22"><a xlink:title=" ">
<polygon fill="#ffffff" stroke="#bfbfbf" points="491.5,-168.5 491.5,-187.5 551.5,-187.5 551.5,-168.5 491.5,-168.5"/>
<text text-anchor="middle" x="521.5" y="-175.5" font-family="Arial.ttf" font-size="10.00" fill="#000000">SLVec3.h</text>
</a>
</g>
</g>
<!-- Node21&#45;&gt;Node22 -->
<g id="edge29" class="edge">
<title>Node21&#45;&gt;Node22</title>
<path fill="none" stroke="#191970" d="M519.8484,-224.2455C520.1093,-216.9382 520.4752,-206.6944 520.7963,-197.7046"/>
<polygon fill="#191970" stroke="#191970" points="524.2964,-197.7613 521.1556,-187.6427 517.3008,-197.5113 524.2964,-197.7613"/>
</g>
<!-- Node23 -->
<g id="node23" class="node">
<title>Node23</title>
<g id="a_node23"><a xlink:title=" ">
<polygon fill="#ffffff" stroke="#bfbfbf" points="575.5,-168.5 575.5,-187.5 635.5,-187.5 635.5,-168.5 575.5,-168.5"/>
<text text-anchor="middle" x="605.5" y="-175.5" font-family="Arial.ttf" font-size="10.00" fill="#000000">SLVec4.h</text>
</a>
</g>
</g>
<!-- Node21&#45;&gt;Node23 -->
<g id="edge30" class="edge">
<title>Node21&#45;&gt;Node23</title>
<path fill="none" stroke="#191970" d="M534.4801,-224.2455C547.6751,-215.6534 567.1051,-203.0014 582.3079,-193.1018"/>
<polygon fill="#191970" stroke="#191970" points="584.2215,-196.0325 590.6916,-187.6427 580.4017,-190.1665 584.2215,-196.0325"/>
</g>
<!-- Node21&#45;&gt;Node24 -->
<g id="edge31" class="edge">
<title>Node21&#45;&gt;Node24</title>
<path fill="none" stroke="#191970" d="M548.2083,-224.3733C575.8577,-215.1016 617.8576,-201.0178 648.3166,-190.804"/>
<polygon fill="#191970" stroke="#191970" points="649.7979,-193.9989 658.1663,-187.5011 647.5724,-187.3621 649.7979,-193.9989"/>
</g>
<!-- Node25&#45;&gt;Node20 -->
<g id="edge33" class="edge">
<title>Node25&#45;&gt;Node20</title>
<path fill="none" stroke="#191970" d="M510.9974,-336.2455C497.342,-327.6534 477.2343,-315.0014 461.5011,-305.1018"/>
<polygon fill="#191970" stroke="#191970" points="463.1529,-302.006 452.825,-299.6427 459.4249,-307.9307 463.1529,-302.006"/>
</g>
<!-- Node25&#45;&gt;Node22 -->
<g id="edge35" class="edge">
<title>Node25&#45;&gt;Node22</title>
<path fill="none" stroke="#191970" d="M538.24,-336.4549C547.631,-328.0029 560.0909,-314.7442 565.5,-300 577.1336,-268.2888 578.0787,-255.3483 565.5,-224 560.8367,-212.3782 551.6812,-202.0324 542.9238,-194.1099"/>
<polygon fill="#191970" stroke="#191970" points="545.0368,-191.3136 535.1336,-187.5484 540.5273,-196.6675 545.0368,-191.3136"/>
</g>
<!-- Node25&#45;&gt;Node23 -->
<g id="edge36" class="edge">
<title>Node25&#45;&gt;Node23</title>
<path fill="none" stroke="#191970" d="M543.711,-336.4083C556.472,-328.3696 573.2029,-315.6968 582.5,-300 601.5503,-267.8362 605.3447,-223.2566 605.8106,-197.8473"/>
<polygon fill="#191970" stroke="#191970" points="609.311,-197.643 605.8333,-187.6352 602.311,-197.6273 609.311,-197.643"/>
</g>
<!-- Node26 -->
<g id="node26" class="node">
<title>Node26</title>
<g id="a_node26"><a xlink:title=" ">
<polygon fill="#ffffff" stroke="#bfbfbf" points="496.5,-280.5 496.5,-299.5 556.5,-299.5 556.5,-280.5 496.5,-280.5"/>
<text text-anchor="middle" x="526.5" y="-287.5" font-family="Arial.ttf" font-size="10.00" fill="#000000">SLVec2.h</text>
</a>
</g>
</g>
<!-- Node25&#45;&gt;Node26 -->
<g id="edge34" class="edge">
<title>Node25&#45;&gt;Node26</title>
<path fill="none" stroke="#191970" d="M526.5,-336.2455C526.5,-328.9382 526.5,-318.6944 526.5,-309.7046"/>
<polygon fill="#191970" stroke="#191970" points="530.0001,-309.6426 526.5,-299.6427 523.0001,-309.6427 530.0001,-309.6426"/>
</g>
<!-- Node27&#45;&gt;Node5 -->
<g id="edge41" class="edge">
<title>Node27&#45;&gt;Node5</title>
<path fill="none" stroke="#191970" d="M394.3398,-392.375C390.2462,-358.4133 376.4249,-243.7472 370.8552,-197.5392"/>
<polygon fill="#191970" stroke="#191970" points="374.3275,-197.0984 369.6558,-187.5891 367.3778,-197.9362 374.3275,-197.0984"/>
</g>
</g>
</svg>
