<?xml version="1.0" encoding="UTF-8" standalone="no"?>
<!DOCTYPE svg PUBLIC "-//W3C//DTD SVG 1.1//EN"
 "http://www.w3.org/Graphics/SVG/1.1/DTD/svg11.dtd">
<!-- Generated by graphviz version 2.50.0 (20211204.2007)
 -->
<!-- Title: SLLight.h Pages: 1 -->
<svg width="1398pt" height="980pt"
 viewBox="0.00 0.00 1398.00 980.00" xmlns="http://www.w3.org/2000/svg" xmlns:xlink="http://www.w3.org/1999/xlink">
<g id="graph0" class="graph" transform="scale(1 1) rotate(0) translate(4 976)">
<title>SLLight.h</title>
<polygon fill="white" stroke="transparent" points="-4,4 -4,-976 1394,-976 1394,4 -4,4"/>
<!-- Node1 -->
<g id="node1" class="node">
<title>Node1</title>
<g id="a_node1"><a xlink:title=" ">
<polygon fill="#bfbfbf" stroke="black" points="320,-952.5 320,-971.5 378,-971.5 378,-952.5 320,-952.5"/>
<text text-anchor="middle" x="349" y="-959.5" font-family="Arial" font-size="10.00">SLLight.h</text>
</a>
</g>
</g>
<!-- Node2 -->
<g id="node2" class="node">
<title>Node2</title>
<g id="a_node2"><a xlink:href="_s_l_8h.html" target="_top" xlink:title=" ">
<polygon fill="white" stroke="black" points="217.5,-224.5 217.5,-243.5 254.5,-243.5 254.5,-224.5 217.5,-224.5"/>
<text text-anchor="middle" x="236" y="-231.5" font-family="Arial" font-size="10.00">SL.h</text>
</a>
</g>
</g>
<!-- Node1&#45;&gt;Node2 -->
<g id="edge1" class="edge">
<title>Node1&#45;&gt;Node2</title>
<path fill="none" stroke="midnightblue" d="M319.84,-958.15C235.97,-949.14 0,-917.86 0,-851 0,-851 0,-851 0,-345 0,-254.41 144.63,-238.24 207.44,-235.49"/>
<polygon fill="midnightblue" stroke="midnightblue" points="207.61,-238.99 217.48,-235.14 207.36,-231.99 207.61,-238.99"/>
</g>
<!-- Node12 -->
<g id="node12" class="node">
<title>Node12</title>
<g id="a_node12"><a xlink:href="_s_l_vec4_8h.html" target="_top" xlink:title=" ">
<polygon fill="white" stroke="black" points="530,-280.5 530,-299.5 588,-299.5 588,-280.5 530,-280.5"/>
<text text-anchor="middle" x="559" y="-287.5" font-family="Arial" font-size="10.00">SLVec4.h</text>
</a>
</g>
</g>
<!-- Node1&#45;&gt;Node12 -->
<g id="edge14" class="edge">
<title>Node1&#45;&gt;Node12</title>
<path fill="none" stroke="midnightblue" d="M378.13,-961.12C487.85,-960.78 870,-952.34 870,-851 870,-851 870,-851 870,-793 870,-569.78 645.05,-363.14 577.78,-306.34"/>
<polygon fill="midnightblue" stroke="midnightblue" points="579.63,-303.32 569.71,-299.61 575.14,-308.7 579.63,-303.32"/>
</g>
<!-- Node17 -->
<g id="node17" class="node">
<title>Node17</title>
<g id="a_node17"><a xlink:href="_s_l_shadow_map_8h.html" target="_top" xlink:title=" ">
<polygon fill="white" stroke="black" points="303.5,-896.5 303.5,-915.5 394.5,-915.5 394.5,-896.5 303.5,-896.5"/>
<text text-anchor="middle" x="349" y="-903.5" font-family="Arial" font-size="10.00">SLShadowMap.h</text>
</a>
</g>
</g>
<!-- Node1&#45;&gt;Node17 -->
<g id="edge27" class="edge">
<title>Node1&#45;&gt;Node17</title>
<path fill="none" stroke="midnightblue" d="M349,-952.08C349,-945.01 349,-934.86 349,-925.99"/>
<polygon fill="midnightblue" stroke="midnightblue" points="352.5,-925.75 349,-915.75 345.5,-925.75 352.5,-925.75"/>
</g>
<!-- Node3 -->
<g id="node3" class="node">
<title>Node3</title>
<g id="a_node3"><a xlink:href="_utils_8h.html" target="_top" xlink:title=" ">
<polygon fill="white" stroke="black" points="669.5,-112.5 669.5,-131.5 714.5,-131.5 714.5,-112.5 669.5,-112.5"/>
<text text-anchor="middle" x="692" y="-119.5" font-family="Arial" font-size="10.00">Utils.h</text>
</a>
</g>
</g>
<!-- Node2&#45;&gt;Node3 -->
<g id="edge2" class="edge">
<title>Node2&#45;&gt;Node3</title>
<path fill="none" stroke="midnightblue" d="M254.62,-224.75C286.33,-211.02 353.08,-183.46 412,-168 499.77,-144.97 606.29,-131.78 659.07,-126.19"/>
<polygon fill="midnightblue" stroke="midnightblue" points="659.6,-129.66 669.19,-125.15 658.88,-122.69 659.6,-129.66"/>
</g>
<!-- Node4 -->
<g id="node4" class="node">
<title>Node4</title>
<g id="a_node4"><a xlink:title=" ">
<polygon fill="white" stroke="#bfbfbf" points="770.5,-0.5 770.5,-19.5 811.5,-19.5 811.5,-0.5 770.5,-0.5"/>
<text text-anchor="middle" x="791" y="-7.5" font-family="Arial" font-size="10.00">string</text>
</a>
</g>
</g>
<!-- Node3&#45;&gt;Node4 -->
<g id="edge3" class="edge">
<title>Node3&#45;&gt;Node4</title>
<path fill="none" stroke="midnightblue" d="M714.59,-119.36C741.54,-116.06 785.53,-106.08 806,-76 815.54,-61.98 809.26,-42.73 802.13,-28.82"/>
<polygon fill="midnightblue" stroke="midnightblue" points="804.99,-26.76 797.01,-19.79 798.9,-30.21 804.99,-26.76"/>
</g>
<!-- Node5 -->
<g id="node5" class="node">
<title>Node5</title>
<g id="a_node5"><a xlink:title=" ">
<polygon fill="white" stroke="#bfbfbf" points="956,-56.5 956,-75.5 1000,-75.5 1000,-56.5 956,-56.5"/>
<text text-anchor="middle" x="978" y="-63.5" font-family="Arial" font-size="10.00">vector</text>
</a>
</g>
</g>
<!-- Node3&#45;&gt;Node5 -->
<g id="edge4" class="edge">
<title>Node3&#45;&gt;Node5</title>
<path fill="none" stroke="midnightblue" d="M714.92,-116.67C765.58,-107.11 887.21,-84.14 945.62,-73.11"/>
<polygon fill="midnightblue" stroke="midnightblue" points="946.58,-76.49 955.76,-71.2 945.29,-69.62 946.58,-76.49"/>
</g>
<!-- Node6 -->
<g id="node6" class="node">
<title>Node6</title>
<g id="a_node6"><a xlink:title=" ">
<polygon fill="white" stroke="#bfbfbf" points="854.5,-56.5 854.5,-75.5 895.5,-75.5 895.5,-56.5 854.5,-56.5"/>
<text text-anchor="middle" x="875" y="-63.5" font-family="Arial" font-size="10.00">cfloat</text>
</a>
</g>
</g>
<!-- Node3&#45;&gt;Node6 -->
<g id="edge5" class="edge">
<title>Node3&#45;&gt;Node6</title>
<path fill="none" stroke="midnightblue" d="M714.81,-114.27C747.65,-104.58 808.32,-86.68 844.83,-75.9"/>
<polygon fill="midnightblue" stroke="midnightblue" points="845.85,-79.25 854.45,-73.06 843.87,-72.54 845.85,-79.25"/>
</g>
<!-- Node7 -->
<g id="node7" class="node">
<title>Node7</title>
<g id="a_node7"><a xlink:title=" ">
<polygon fill="white" stroke="#bfbfbf" points="549,-0.5 549,-19.5 601,-19.5 601,-0.5 549,-0.5"/>
<text text-anchor="middle" x="575" y="-7.5" font-family="Arial" font-size="10.00">memory</text>
</a>
</g>
</g>
<!-- Node3&#45;&gt;Node7 -->
<g id="edge6" class="edge">
<title>Node3&#45;&gt;Node7</title>
<path fill="none" stroke="midnightblue" d="M669.34,-120.69C638.89,-118.89 585.73,-110.64 561,-76 551.18,-62.24 557.18,-42.95 564.11,-28.96"/>
<polygon fill="midnightblue" stroke="midnightblue" points="567.36,-30.32 569.11,-19.87 561.22,-26.94 567.36,-30.32"/>
</g>
<!-- Node8 -->
<g id="node8" class="node">
<title>Node8</title>
<g id="a_node8"><a xlink:href="_file_log_8h.html" target="_top" xlink:title=" ">
<polygon fill="white" stroke="black" points="664,-56.5 664,-75.5 720,-75.5 720,-56.5 664,-56.5"/>
<text text-anchor="middle" x="692" y="-63.5" font-family="Arial" font-size="10.00">FileLog.h</text>
</a>
</g>
</g>
<!-- Node3&#45;&gt;Node8 -->
<g id="edge7" class="edge">
<title>Node3&#45;&gt;Node8</title>
<path fill="none" stroke="midnightblue" d="M692,-112.08C692,-105.01 692,-94.86 692,-85.99"/>
<polygon fill="midnightblue" stroke="midnightblue" points="695.5,-85.75 692,-75.75 688.5,-85.75 695.5,-85.75"/>
</g>
<!-- Node10 -->
<g id="node10" class="node">
<title>Node10</title>
<g id="a_node10"><a xlink:href="_custom_log_8h.html" target="_top" xlink:title=" ">
<polygon fill="white" stroke="black" points="570.5,-56.5 570.5,-75.5 645.5,-75.5 645.5,-56.5 570.5,-56.5"/>
<text text-anchor="middle" x="608" y="-63.5" font-family="Arial" font-size="10.00">CustomLog.h</text>
</a>
</g>
</g>
<!-- Node3&#45;&gt;Node10 -->
<g id="edge10" class="edge">
<title>Node3&#45;&gt;Node10</title>
<path fill="none" stroke="midnightblue" d="M678.5,-112.32C665.4,-103.9 645.29,-90.97 629.89,-81.07"/>
<polygon fill="midnightblue" stroke="midnightblue" points="631.77,-78.12 621.46,-75.65 627.98,-84.01 631.77,-78.12"/>
</g>
<!-- Node11 -->
<g id="node11" class="node">
<title>Node11</title>
<g id="a_node11"><a xlink:title=" ">
<polygon fill="white" stroke="#bfbfbf" points="738.5,-56.5 738.5,-75.5 797.5,-75.5 797.5,-56.5 738.5,-56.5"/>
<text text-anchor="middle" x="768" y="-63.5" font-family="Arial" font-size="10.00">functional</text>
</a>
</g>
</g>
<!-- Node3&#45;&gt;Node11 -->
<g id="edge13" class="edge">
<title>Node3&#45;&gt;Node11</title>
<path fill="none" stroke="midnightblue" d="M704.21,-112.32C715.78,-104.11 733.38,-91.6 747.16,-81.81"/>
<polygon fill="midnightblue" stroke="midnightblue" points="749.44,-84.48 755.57,-75.83 745.39,-78.77 749.44,-84.48"/>
</g>
<!-- Node8&#45;&gt;Node4 -->
<g id="edge8" class="edge">
<title>Node8&#45;&gt;Node4</title>
<path fill="none" stroke="midnightblue" d="M707.91,-56.32C723.64,-47.74 747.94,-34.49 766.21,-24.52"/>
<polygon fill="midnightblue" stroke="midnightblue" points="768.03,-27.52 775.13,-19.65 764.68,-21.37 768.03,-27.52"/>
</g>
<!-- Node9 -->
<g id="node9" class="node">
<title>Node9</title>
<g id="a_node9"><a xlink:title=" ">
<polygon fill="white" stroke="#bfbfbf" points="667,-0.5 667,-19.5 717,-19.5 717,-0.5 667,-0.5"/>
<text text-anchor="middle" x="692" y="-7.5" font-family="Arial" font-size="10.00">fstream</text>
</a>
</g>
</g>
<!-- Node8&#45;&gt;Node9 -->
<g id="edge9" class="edge">
<title>Node8&#45;&gt;Node9</title>
<path fill="none" stroke="midnightblue" d="M692,-56.08C692,-49.01 692,-38.86 692,-29.99"/>
<polygon fill="midnightblue" stroke="midnightblue" points="695.5,-29.75 692,-19.75 688.5,-29.75 695.5,-29.75"/>
</g>
<!-- Node10&#45;&gt;Node4 -->
<g id="edge12" class="edge">
<title>Node10&#45;&gt;Node4</title>
<path fill="none" stroke="midnightblue" d="M637,-56.44C670.7,-46.5 726.07,-30.16 760.43,-20.02"/>
<polygon fill="midnightblue" stroke="midnightblue" points="761.77,-23.27 770.37,-17.09 759.79,-16.56 761.77,-23.27"/>
</g>
<!-- Node10&#45;&gt;Node7 -->
<g id="edge11" class="edge">
<title>Node10&#45;&gt;Node7</title>
<path fill="none" stroke="midnightblue" d="M602.55,-56.08C597.99,-48.61 591.33,-37.72 585.71,-28.52"/>
<polygon fill="midnightblue" stroke="midnightblue" points="588.55,-26.46 580.35,-19.75 582.58,-30.11 588.55,-26.46"/>
</g>
<!-- Node12&#45;&gt;Node2 -->
<g id="edge15" class="edge">
<title>Node12&#45;&gt;Node2</title>
<path fill="none" stroke="midnightblue" d="M529.77,-284.11C468.24,-273.83 326.02,-250.05 264.84,-239.82"/>
<polygon fill="midnightblue" stroke="midnightblue" points="265.17,-236.33 254.73,-238.13 264.01,-243.23 265.17,-236.33"/>
</g>
<!-- Node12&#45;&gt;Node3 -->
<g id="edge26" class="edge">
<title>Node12&#45;&gt;Node3</title>
<path fill="none" stroke="midnightblue" d="M547.79,-280.47C521.94,-259.8 462.68,-205.95 493,-168 513.44,-142.42 608.12,-130.32 659.17,-125.57"/>
<polygon fill="midnightblue" stroke="midnightblue" points="659.7,-129.04 669.36,-124.66 659.08,-122.06 659.7,-129.04"/>
</g>
<!-- Node13 -->
<g id="node13" class="node">
<title>Node13</title>
<g id="a_node13"><a xlink:href="_s_l_vec2_8h.html" target="_top" xlink:title=" ">
<polygon fill="white" stroke="black" points="502,-168.5 502,-187.5 560,-187.5 560,-168.5 502,-168.5"/>
<text text-anchor="middle" x="531" y="-175.5" font-family="Arial" font-size="10.00">SLVec2.h</text>
</a>
</g>
</g>
<!-- Node12&#45;&gt;Node13 -->
<g id="edge16" class="edge">
<title>Node12&#45;&gt;Node13</title>
<path fill="none" stroke="midnightblue" d="M556.8,-280.37C552.28,-262.62 541.86,-221.67 535.73,-197.6"/>
<polygon fill="midnightblue" stroke="midnightblue" points="539.05,-196.42 533.19,-187.59 532.26,-198.15 539.05,-196.42"/>
</g>
<!-- Node15 -->
<g id="node15" class="node">
<title>Node15</title>
<g id="a_node15"><a xlink:href="_s_l_vec3_8h.html" target="_top" xlink:title=" ">
<polygon fill="white" stroke="black" points="587,-224.5 587,-243.5 645,-243.5 645,-224.5 587,-224.5"/>
<text text-anchor="middle" x="616" y="-231.5" font-family="Arial" font-size="10.00">SLVec3.h</text>
</a>
</g>
</g>
<!-- Node12&#45;&gt;Node15 -->
<g id="edge21" class="edge">
<title>Node12&#45;&gt;Node15</title>
<path fill="none" stroke="midnightblue" d="M568.16,-280.32C576.5,-272.42 589.03,-260.55 599.18,-250.94"/>
<polygon fill="midnightblue" stroke="midnightblue" points="601.82,-253.25 606.68,-243.83 597.01,-248.17 601.82,-253.25"/>
</g>
<!-- Node13&#45;&gt;Node3 -->
<g id="edge20" class="edge">
<title>Node13&#45;&gt;Node3</title>
<path fill="none" stroke="midnightblue" d="M556.51,-168.44C584.47,-159.07 629.39,-144 659.77,-133.81"/>
<polygon fill="midnightblue" stroke="midnightblue" points="661.1,-137.06 669.47,-130.56 658.87,-130.42 661.1,-137.06"/>
</g>
<!-- Node14 -->
<g id="node14" class="node">
<title>Node14</title>
<g id="a_node14"><a xlink:href="_s_l_math_8h.html" target="_top" xlink:title=" ">
<polygon fill="white" stroke="black" points="1065.5,-112.5 1065.5,-131.5 1124.5,-131.5 1124.5,-112.5 1065.5,-112.5"/>
<text text-anchor="middle" x="1095" y="-119.5" font-family="Arial" font-size="10.00">SLMath.h</text>
</a>
</g>
</g>
<!-- Node13&#45;&gt;Node14 -->
<g id="edge17" class="edge">
<title>Node13&#45;&gt;Node14</title>
<path fill="none" stroke="midnightblue" d="M560.21,-173.36C574.34,-171.65 591.54,-169.63 607,-168 773.34,-150.48 971.99,-133.33 1055.23,-126.32"/>
<polygon fill="midnightblue" stroke="midnightblue" points="1055.59,-129.8 1065.27,-125.47 1055.01,-122.82 1055.59,-129.8"/>
</g>
<!-- Node14&#45;&gt;Node4 -->
<g id="edge19" class="edge">
<title>Node14&#45;&gt;Node4</title>
<path fill="none" stroke="midnightblue" d="M1086.34,-112.3C1071.74,-98.17 1040.71,-70.37 1009,-56 946.37,-27.63 865.49,-16.96 821.99,-13.09"/>
<polygon fill="midnightblue" stroke="midnightblue" points="822.02,-9.58 811.77,-12.24 821.44,-16.55 822.02,-9.58"/>
</g>
<!-- Node14&#45;&gt;Node5 -->
<g id="edge18" class="edge">
<title>Node14&#45;&gt;Node5</title>
<path fill="none" stroke="midnightblue" d="M1076.46,-112.44C1057.38,-103.64 1027.43,-89.81 1005.56,-79.72"/>
<polygon fill="midnightblue" stroke="midnightblue" points="1007,-76.53 996.45,-75.52 1004.07,-82.88 1007,-76.53"/>
</g>
<!-- Node15&#45;&gt;Node3 -->
<g id="edge25" class="edge">
<title>Node15&#45;&gt;Node3</title>
<path fill="none" stroke="midnightblue" d="M611.5,-224.3C605.37,-211.12 596.31,-185.76 607,-168 618.39,-149.08 640.69,-137.7 659.59,-131.12"/>
<polygon fill="midnightblue" stroke="midnightblue" points="660.9,-134.38 669.37,-128.02 658.78,-127.71 660.9,-134.38"/>
</g>
<!-- Node15&#45;&gt;Node13 -->
<g id="edge24" class="edge">
<title>Node15&#45;&gt;Node13</title>
<path fill="none" stroke="midnightblue" d="M602.34,-224.32C589.08,-215.9 568.73,-202.97 553.15,-193.07"/>
<polygon fill="midnightblue" stroke="midnightblue" points="554.94,-190.06 544.62,-187.65 551.19,-195.97 554.94,-190.06"/>
</g>
<!-- Node15&#45;&gt;Node14 -->
<g id="edge23" class="edge">
<title>Node15&#45;&gt;Node14</title>
<path fill="none" stroke="midnightblue" d="M645.24,-226.28C727.57,-207.38 961.4,-153.68 1055.27,-132.12"/>
<polygon fill="midnightblue" stroke="midnightblue" points="1056.26,-135.49 1065.23,-129.84 1054.7,-128.66 1056.26,-135.49"/>
</g>
<!-- Node16 -->
<g id="node16" class="node">
<title>Node16</title>
<g id="a_node16"><a xlink:title=" ">
<polygon fill="white" stroke="#bfbfbf" points="616.5,-168.5 616.5,-187.5 663.5,-187.5 663.5,-168.5 616.5,-168.5"/>
<text text-anchor="middle" x="640" y="-175.5" font-family="Arial" font-size="10.00">math.h</text>
</a>
</g>
</g>
<!-- Node15&#45;&gt;Node16 -->
<g id="edge22" class="edge">
<title>Node15&#45;&gt;Node16</title>
<path fill="none" stroke="midnightblue" d="M619.96,-224.08C623.21,-216.77 627.92,-206.18 631.95,-197.1"/>
<polygon fill="midnightblue" stroke="midnightblue" points="635.25,-198.31 636.11,-187.75 628.85,-195.47 635.25,-198.31"/>
</g>
<!-- Node17&#45;&gt;Node2 -->
<g id="edge28" class="edge">
<title>Node17&#45;&gt;Node2</title>
<path fill="none" stroke="midnightblue" d="M303.33,-903.04C254.56,-899.42 176.04,-889.15 115,-860 74.59,-840.7 38,-839.79 38,-795 38,-795 38,-795 38,-345 38,-268.5 152.33,-244.75 207.24,-237.75"/>
<polygon fill="midnightblue" stroke="midnightblue" points="207.85,-241.2 217.37,-236.56 207.03,-234.25 207.85,-241.2"/>
</g>
<!-- Node18 -->
<g id="node18" class="node">
<title>Node18</title>
<g id="a_node18"><a xlink:href="_s_l_enums_8h.html" target="_top" xlink:title=" ">
<polygon fill="white" stroke="black" points="236,-728.5 236,-747.5 304,-747.5 304,-728.5 236,-728.5"/>
<text text-anchor="middle" x="270" y="-735.5" font-family="Arial" font-size="10.00">SLEnums.h</text>
</a>
</g>
</g>
<!-- Node17&#45;&gt;Node18 -->
<g id="edge29" class="edge">
<title>Node17&#45;&gt;Node18</title>
<path fill="none" stroke="midnightblue" d="M346.36,-896.5C339.96,-876.33 322.5,-824.27 301,-784 295.75,-774.17 288.79,-763.88 282.79,-755.63"/>
<polygon fill="midnightblue" stroke="midnightblue" points="285.58,-753.51 276.79,-747.59 279.97,-757.7 285.58,-753.51"/>
</g>
<!-- Node19 -->
<g id="node19" class="node">
<title>Node19</title>
<g id="a_node19"><a xlink:href="_s_l_plane_8h.html" target="_top" xlink:title=" ">
<polygon fill="white" stroke="black" points="1328,-280.5 1328,-299.5 1390,-299.5 1390,-280.5 1328,-280.5"/>
<text text-anchor="middle" x="1359" y="-287.5" font-family="Arial" font-size="10.00">SLPlane.h</text>
</a>
</g>
</g>
<!-- Node17&#45;&gt;Node19 -->
<g id="edge30" class="edge">
<title>Node17&#45;&gt;Node19</title>
<path fill="none" stroke="midnightblue" d="M394.85,-902.34C448.75,-898.07 540.21,-887.17 614,-860 958.86,-733.04 1274.95,-387.38 1344.74,-307.59"/>
<polygon fill="midnightblue" stroke="midnightblue" points="1347.78,-309.42 1351.7,-299.58 1342.5,-304.83 1347.78,-309.42"/>
</g>
<!-- Node20 -->
<g id="node20" class="node">
<title>Node20</title>
<g id="a_node20"><a xlink:href="_s_l_mat4_8h.html" target="_top" xlink:title=" ">
<polygon fill="white" stroke="black" points="720.5,-336.5 720.5,-355.5 779.5,-355.5 779.5,-336.5 720.5,-336.5"/>
<text text-anchor="middle" x="750" y="-343.5" font-family="Arial" font-size="10.00">SLMat4.h</text>
</a>
</g>
</g>
<!-- Node17&#45;&gt;Node20 -->
<g id="edge33" class="edge">
<title>Node17&#45;&gt;Node20</title>
<path fill="none" stroke="midnightblue" d="M394.57,-901.64C478.18,-892.77 654.91,-860.93 736,-748 796.51,-663.73 750,-618.74 750,-515 750,-515 750,-515 750,-457 750,-424.95 750,-387.64 750,-365.75"/>
<polygon fill="midnightblue" stroke="midnightblue" points="753.5,-365.56 750,-355.56 746.5,-365.56 753.5,-365.56"/>
</g>
<!-- Node28 -->
<g id="node28" class="node">
<title>Node28</title>
<g id="a_node28"><a xlink:href="_s_l_node_8h.html" target="_top" xlink:title=" ">
<polygon fill="white" stroke="black" points="348,-840.5 348,-859.5 408,-859.5 408,-840.5 348,-840.5"/>
<text text-anchor="middle" x="378" y="-847.5" font-family="Arial" font-size="10.00">SLNode.h</text>
</a>
</g>
</g>
<!-- Node17&#45;&gt;Node28 -->
<g id="edge48" class="edge">
<title>Node17&#45;&gt;Node28</title>
<path fill="none" stroke="midnightblue" d="M353.79,-896.08C357.76,-888.69 363.53,-877.95 368.43,-868.81"/>
<polygon fill="midnightblue" stroke="midnightblue" points="371.65,-870.22 373.3,-859.75 365.49,-866.91 371.65,-870.22"/>
</g>
<!-- Node43 -->
<g id="node43" class="node">
<title>Node43</title>
<g id="a_node43"><a xlink:href="_s_l_g_l_depth_buffer_8h.html" target="_top" xlink:title=" ">
<polygon fill="white" stroke="black" points="67.5,-448.5 67.5,-467.5 168.5,-467.5 168.5,-448.5 67.5,-448.5"/>
<text text-anchor="middle" x="118" y="-455.5" font-family="Arial" font-size="10.00">SLGLDepthBuffer.h</text>
</a>
</g>
</g>
<!-- Node17&#45;&gt;Node43 -->
<g id="edge88" class="edge">
<title>Node17&#45;&gt;Node43</title>
<path fill="none" stroke="midnightblue" d="M303.41,-904.39C232.04,-900.77 102,-882.2 102,-795 102,-795 102,-795 102,-569 102,-536.63 108.87,-499.44 113.61,-477.66"/>
<polygon fill="midnightblue" stroke="midnightblue" points="117.05,-478.3 115.84,-467.78 110.22,-476.76 117.05,-478.3"/>
</g>
<!-- Node19&#45;&gt;Node14 -->
<g id="edge31" class="edge">
<title>Node19&#45;&gt;Node14</title>
<path fill="none" stroke="midnightblue" d="M1358.53,-280.39C1356.83,-258.09 1349.05,-198.05 1314,-168 1287.56,-145.33 1190.59,-132.33 1134.96,-126.59"/>
<polygon fill="midnightblue" stroke="midnightblue" points="1135.04,-123.08 1124.74,-125.56 1134.35,-130.04 1135.04,-123.08"/>
</g>
<!-- Node19&#45;&gt;Node15 -->
<g id="edge32" class="edge">
<title>Node19&#45;&gt;Node15</title>
<path fill="none" stroke="midnightblue" d="M1327.55,-286.71C1208.55,-278.07 785.99,-247.35 655.01,-237.83"/>
<polygon fill="midnightblue" stroke="midnightblue" points="655.24,-234.34 645.02,-237.11 654.74,-241.32 655.24,-234.34"/>
</g>
<!-- Node20&#45;&gt;Node3 -->
<g id="edge36" class="edge">
<title>Node20&#45;&gt;Node3</title>
<path fill="none" stroke="midnightblue" d="M739.39,-336.21C730.18,-327.92 717.35,-314.6 711,-300 687.61,-246.26 688.45,-175.01 690.45,-141.68"/>
<polygon fill="midnightblue" stroke="midnightblue" points="693.95,-141.79 691.17,-131.56 686.97,-141.29 693.95,-141.79"/>
</g>
<!-- Node20&#45;&gt;Node12 -->
<g id="edge44" class="edge">
<title>Node20&#45;&gt;Node12</title>
<path fill="none" stroke="midnightblue" d="M720.16,-336.56C687.17,-327.24 633.91,-312.18 597.73,-301.95"/>
<polygon fill="midnightblue" stroke="midnightblue" points="598.58,-298.55 588.01,-299.2 596.68,-305.29 598.58,-298.55"/>
</g>
<!-- Node20&#45;&gt;Node14 -->
<g id="edge34" class="edge">
<title>Node20&#45;&gt;Node14</title>
<path fill="none" stroke="midnightblue" d="M779.74,-344.32C876.3,-341.82 1176.42,-331.55 1205,-300 1227.68,-274.97 1218.59,-254.92 1205,-224 1187.65,-184.51 1146.38,-153.69 1119.62,-136.95"/>
<polygon fill="midnightblue" stroke="midnightblue" points="1121.19,-133.81 1110.82,-131.62 1117.57,-139.79 1121.19,-133.81"/>
</g>
<!-- Node20&#45;&gt;Node15 -->
<g id="edge43" class="edge">
<title>Node20&#45;&gt;Node15</title>
<path fill="none" stroke="midnightblue" d="M733.78,-336.42C718.66,-328.06 695.83,-314.53 678,-300 659.78,-285.15 641.52,-265.26 629.59,-251.4"/>
<polygon fill="midnightblue" stroke="midnightblue" points="632.16,-249.03 623.03,-243.66 626.82,-253.55 632.16,-249.03"/>
</g>
<!-- Node21 -->
<g id="node21" class="node">
<title>Node21</title>
<g id="a_node21"><a xlink:title=" ">
<polygon fill="white" stroke="#bfbfbf" points="720.5,-280.5 720.5,-299.5 761.5,-299.5 761.5,-280.5 720.5,-280.5"/>
<text text-anchor="middle" x="741" y="-287.5" font-family="Arial" font-size="10.00">stack</text>
</a>
</g>
</g>
<!-- Node20&#45;&gt;Node21 -->
<g id="edge35" class="edge">
<title>Node20&#45;&gt;Node21</title>
<path fill="none" stroke="midnightblue" d="M748.51,-336.08C747.32,-328.93 745.61,-318.64 744.12,-309.69"/>
<polygon fill="midnightblue" stroke="midnightblue" points="747.55,-309.04 742.46,-299.75 740.65,-310.19 747.55,-309.04"/>
</g>
<!-- Node22 -->
<g id="node22" class="node">
<title>Node22</title>
<g id="a_node22"><a xlink:href="_s_l_mat3_8h.html" target="_top" xlink:title=" ">
<polygon fill="white" stroke="black" points="1136.5,-280.5 1136.5,-299.5 1195.5,-299.5 1195.5,-280.5 1136.5,-280.5"/>
<text text-anchor="middle" x="1166" y="-287.5" font-family="Arial" font-size="10.00">SLMat3.h</text>
</a>
</g>
</g>
<!-- Node20&#45;&gt;Node22 -->
<g id="edge37" class="edge">
<title>Node20&#45;&gt;Node22</title>
<path fill="none" stroke="midnightblue" d="M779.58,-342.64C841.94,-337.4 991.61,-323.55 1126.13,-300.17"/>
<polygon fill="midnightblue" stroke="midnightblue" points="1126.95,-303.58 1136.2,-298.4 1125.74,-296.69 1126.95,-303.58"/>
</g>
<!-- Node25 -->
<g id="node25" class="node">
<title>Node25</title>
<g id="a_node25"><a xlink:title=" ">
<polygon fill="white" stroke="#bfbfbf" points="779.5,-280.5 779.5,-299.5 828.5,-299.5 828.5,-280.5 779.5,-280.5"/>
<text text-anchor="middle" x="804" y="-287.5" font-family="Arial" font-size="10.00">cassert</text>
</a>
</g>
</g>
<!-- Node20&#45;&gt;Node25 -->
<g id="edge45" class="edge">
<title>Node20&#45;&gt;Node25</title>
<path fill="none" stroke="midnightblue" d="M758.92,-336.08C766.78,-328.22 778.43,-316.57 787.92,-307.08"/>
<polygon fill="midnightblue" stroke="midnightblue" points="790.65,-309.3 795.25,-299.75 785.7,-304.35 790.65,-309.3"/>
</g>
<!-- Node26 -->
<g id="node26" class="node">
<title>Node26</title>
<g id="a_node26"><a xlink:title=" ">
<polygon fill="white" stroke="#bfbfbf" points="846.5,-280.5 846.5,-299.5 973.5,-299.5 973.5,-280.5 846.5,-280.5"/>
<text text-anchor="middle" x="910" y="-287.5" font-family="Arial" font-size="10.00">Shoemake/Decompose.h</text>
</a>
</g>
</g>
<!-- Node20&#45;&gt;Node26 -->
<g id="edge46" class="edge">
<title>Node20&#45;&gt;Node26</title>
<path fill="none" stroke="midnightblue" d="M775.35,-336.44C802.27,-327.36 845,-312.94 875.09,-302.78"/>
<polygon fill="midnightblue" stroke="midnightblue" points="876.41,-306.03 884.77,-299.52 874.17,-299.4 876.41,-306.03"/>
</g>
<!-- Node27 -->
<g id="node27" class="node">
<title>Node27</title>
<g id="a_node27"><a xlink:title=" ">
<polygon fill="white" stroke="#bfbfbf" points="991.5,-280.5 991.5,-299.5 1118.5,-299.5 1118.5,-280.5 991.5,-280.5"/>
<text text-anchor="middle" x="1055" y="-287.5" font-family="Arial" font-size="10.00">Shoemake/EulerAngles.h</text>
</a>
</g>
</g>
<!-- Node20&#45;&gt;Node27 -->
<g id="edge47" class="edge">
<title>Node20&#45;&gt;Node27</title>
<path fill="none" stroke="midnightblue" d="M779.52,-339.77C829.54,-330.92 931.84,-312.81 996.72,-301.32"/>
<polygon fill="midnightblue" stroke="midnightblue" points="997.56,-304.72 1006.8,-299.53 996.34,-297.83 997.56,-304.72"/>
</g>
<!-- Node22&#45;&gt;Node3 -->
<g id="edge39" class="edge">
<title>Node22&#45;&gt;Node3</title>
<path fill="none" stroke="midnightblue" d="M1138.07,-280.44C1109.55,-271.62 1064.03,-257.31 1025,-244 913.83,-206.08 783.23,-157.41 724.04,-135.12"/>
<polygon fill="midnightblue" stroke="midnightblue" points="725.09,-131.78 714.5,-131.53 722.62,-138.33 725.09,-131.78"/>
</g>
<!-- Node22&#45;&gt;Node14 -->
<g id="edge38" class="edge">
<title>Node22&#45;&gt;Node14</title>
<path fill="none" stroke="midnightblue" d="M1158.23,-280.27C1150.86,-271.6 1139.91,-257.66 1133,-244 1115.66,-209.74 1104.31,-166.01 1098.84,-141.61"/>
<polygon fill="midnightblue" stroke="midnightblue" points="1102.21,-140.62 1096.68,-131.58 1095.36,-142.1 1102.21,-140.62"/>
</g>
<!-- Node22&#45;&gt;Node15 -->
<g id="edge40" class="edge">
<title>Node22&#45;&gt;Node15</title>
<path fill="none" stroke="midnightblue" d="M1136.21,-281.51C1133.45,-280.95 1130.68,-280.43 1128,-280 952.95,-251.73 741.17,-240.23 655.15,-236.51"/>
<polygon fill="midnightblue" stroke="midnightblue" points="655.19,-233 645.05,-236.08 654.89,-240 655.19,-233"/>
</g>
<!-- Node23 -->
<g id="node23" class="node">
<title>Node23</title>
<g id="a_node23"><a xlink:title=" ">
<polygon fill="white" stroke="#bfbfbf" points="1142,-224.5 1142,-243.5 1196,-243.5 1196,-224.5 1142,-224.5"/>
<text text-anchor="middle" x="1169" y="-231.5" font-family="Arial" font-size="10.00">iostream</text>
</a>
</g>
</g>
<!-- Node22&#45;&gt;Node23 -->
<g id="edge41" class="edge">
<title>Node22&#45;&gt;Node23</title>
<path fill="none" stroke="midnightblue" d="M1166.5,-280.08C1166.89,-273.01 1167.45,-262.86 1167.95,-253.99"/>
<polygon fill="midnightblue" stroke="midnightblue" points="1171.45,-253.93 1168.51,-243.75 1164.46,-253.54 1171.45,-253.93"/>
</g>
<!-- Node24 -->
<g id="node24" class="node">
<title>Node24</title>
<g id="a_node24"><a xlink:title=" ">
<polygon fill="white" stroke="#bfbfbf" points="1034,-224.5 1034,-243.5 1086,-243.5 1086,-224.5 1034,-224.5"/>
<text text-anchor="middle" x="1060" y="-231.5" font-family="Arial" font-size="10.00">assert.h</text>
</a>
</g>
</g>
<!-- Node22&#45;&gt;Node24 -->
<g id="edge42" class="edge">
<title>Node22&#45;&gt;Node24</title>
<path fill="none" stroke="midnightblue" d="M1148.97,-280.32C1131.97,-271.66 1105.62,-258.24 1086.01,-248.25"/>
<polygon fill="midnightblue" stroke="midnightblue" points="1087.49,-245.08 1076.99,-243.65 1084.31,-251.31 1087.49,-245.08"/>
</g>
<!-- Node28&#45;&gt;Node18 -->
<g id="edge51" class="edge">
<title>Node28&#45;&gt;Node18</title>
<path fill="none" stroke="midnightblue" d="M373.45,-840.28C366.29,-827.08 351.38,-801.69 334,-784 322.2,-771.99 306.83,-761.07 294.11,-752.99"/>
<polygon fill="midnightblue" stroke="midnightblue" points="295.75,-749.89 285.4,-747.63 292.09,-755.85 295.75,-749.89"/>
</g>
<!-- Node29 -->
<g id="node29" class="node">
<title>Node29</title>
<g id="a_node29"><a xlink:href="_s_l_draw_bits_8h.html" target="_top" xlink:title=" ">
<polygon fill="white" stroke="black" points="130.5,-672.5 130.5,-691.5 207.5,-691.5 207.5,-672.5 130.5,-672.5"/>
<text text-anchor="middle" x="169" y="-679.5" font-family="Arial" font-size="10.00">SLDrawBits.h</text>
</a>
</g>
</g>
<!-- Node28&#45;&gt;Node29 -->
<g id="edge49" class="edge">
<title>Node28&#45;&gt;Node29</title>
<path fill="none" stroke="midnightblue" d="M347.78,-845.98C299.56,-840.51 208.45,-827.32 187,-804 161.33,-776.08 162.71,-728.24 165.9,-701.85"/>
<polygon fill="midnightblue" stroke="midnightblue" points="169.4,-702.07 167.35,-691.68 162.47,-701.08 169.4,-702.07"/>
</g>
<!-- Node30 -->
<g id="node30" class="node">
<title>Node30</title>
<g id="a_node30"><a xlink:href="_s_l_event_handler_8h.html" target="_top" xlink:title=" ">
<polygon fill="white" stroke="black" points="196,-784.5 196,-803.5 292,-803.5 292,-784.5 196,-784.5"/>
<text text-anchor="middle" x="244" y="-791.5" font-family="Arial" font-size="10.00">SLEventHandler.h</text>
</a>
</g>
</g>
<!-- Node28&#45;&gt;Node30 -->
<g id="edge52" class="edge">
<title>Node28&#45;&gt;Node30</title>
<path fill="none" stroke="midnightblue" d="M356.77,-840.44C334.62,-831.52 299.68,-817.44 274.56,-807.32"/>
<polygon fill="midnightblue" stroke="midnightblue" points="275.72,-804.01 265.13,-803.52 273.1,-810.5 275.72,-804.01"/>
</g>
<!-- Node31 -->
<g id="node31" class="node">
<title>Node31</title>
<g id="a_node31"><a xlink:href="_s_l_mesh_8h.html" target="_top" xlink:title=" ">
<polygon fill="white" stroke="black" points="386.5,-784.5 386.5,-803.5 447.5,-803.5 447.5,-784.5 386.5,-784.5"/>
<text text-anchor="middle" x="417" y="-791.5" font-family="Arial" font-size="10.00">SLMesh.h</text>
</a>
</g>
</g>
<!-- Node28&#45;&gt;Node31 -->
<g id="edge55" class="edge">
<title>Node28&#45;&gt;Node31</title>
<path fill="none" stroke="midnightblue" d="M384.44,-840.08C389.95,-832.46 398.03,-821.26 404.76,-811.94"/>
<polygon fill="midnightblue" stroke="midnightblue" points="407.66,-813.91 410.68,-803.75 401.99,-809.81 407.66,-813.91"/>
</g>
<!-- Node42 -->
<g id="node42" class="node">
<title>Node42</title>
<g id="a_node42"><a xlink:href="_s_l_quat4_8h.html" target="_top" xlink:title=" ">
<polygon fill="white" stroke="black" points="794.5,-392.5 794.5,-411.5 857.5,-411.5 857.5,-392.5 794.5,-392.5"/>
<text text-anchor="middle" x="826" y="-399.5" font-family="Arial" font-size="10.00">SLQuat4.h</text>
</a>
</g>
</g>
<!-- Node28&#45;&gt;Node42 -->
<g id="edge83" class="edge">
<title>Node28&#45;&gt;Node42</title>
<path fill="none" stroke="midnightblue" d="M408.1,-849.81C476.55,-849.94 644.94,-840.28 736,-748 828.13,-654.64 829.41,-479.46 827.11,-421.87"/>
<polygon fill="midnightblue" stroke="midnightblue" points="830.6,-421.53 826.61,-411.71 823.61,-421.87 830.6,-421.53"/>
</g>
<!-- Node29&#45;&gt;Node2 -->
<g id="edge50" class="edge">
<title>Node29&#45;&gt;Node2</title>
<path fill="none" stroke="midnightblue" d="M172.91,-672.36C180.83,-654.07 198,-609.91 198,-571 198,-571 198,-571 198,-345 198,-310.81 214.6,-273.76 225.86,-252.57"/>
<polygon fill="midnightblue" stroke="midnightblue" points="228.95,-254.22 230.72,-243.77 222.82,-250.83 228.95,-254.22"/>
</g>
<!-- Node30&#45;&gt;Node2 -->
<g id="edge53" class="edge">
<title>Node30&#45;&gt;Node2</title>
<path fill="none" stroke="midnightblue" d="M239.63,-784.31C235.44,-775.44 229.4,-761.14 227,-748 225.4,-739.26 226.61,-736.88 227,-728 229,-682.98 236,-672.07 236,-627 236,-627 236,-627 236,-345 236,-312.95 236,-275.64 236,-253.75"/>
<polygon fill="midnightblue" stroke="midnightblue" points="239.5,-253.56 236,-243.56 232.5,-253.56 239.5,-253.56"/>
</g>
<!-- Node30&#45;&gt;Node18 -->
<g id="edge54" class="edge">
<title>Node30&#45;&gt;Node18</title>
<path fill="none" stroke="midnightblue" d="M248.29,-784.08C251.85,-776.69 257.02,-765.95 261.42,-756.81"/>
<polygon fill="midnightblue" stroke="midnightblue" points="264.6,-758.28 265.79,-747.75 258.29,-755.24 264.6,-758.28"/>
</g>
<!-- Node31&#45;&gt;Node18 -->
<g id="edge77" class="edge">
<title>Node31&#45;&gt;Node18</title>
<path fill="none" stroke="midnightblue" d="M393.71,-784.44C369.19,-775.44 330.4,-761.19 302.8,-751.05"/>
<polygon fill="midnightblue" stroke="midnightblue" points="303.78,-747.68 293.18,-747.52 301.36,-754.25 303.78,-747.68"/>
</g>
<!-- Node32 -->
<g id="node32" class="node">
<title>Node32</title>
<g id="a_node32"><a xlink:href="_s_l_a_a_b_box_8h.html" target="_top" xlink:title=" ">
<polygon fill="white" stroke="black" points="486,-728.5 486,-747.5 560,-747.5 560,-728.5 486,-728.5"/>
<text text-anchor="middle" x="523" y="-735.5" font-family="Arial" font-size="10.00">SLAABBox.h</text>
</a>
</g>
</g>
<!-- Node31&#45;&gt;Node32 -->
<g id="edge56" class="edge">
<title>Node31&#45;&gt;Node32</title>
<path fill="none" stroke="midnightblue" d="M434.03,-784.32C451.03,-775.66 477.38,-762.24 496.99,-752.25"/>
<polygon fill="midnightblue" stroke="midnightblue" points="498.69,-755.31 506.01,-747.65 495.51,-749.08 498.69,-755.31"/>
</g>
<!-- Node34 -->
<g id="node34" class="node">
<title>Node34</title>
<g id="a_node34"><a xlink:href="_s_l_g_l_vertex_array_8h.html" target="_top" xlink:title=" ">
<polygon fill="white" stroke="black" points="495.5,-560.5 495.5,-579.5 594.5,-579.5 594.5,-560.5 495.5,-560.5"/>
<text text-anchor="middle" x="545" y="-567.5" font-family="Arial" font-size="10.00">SLGLVertexArray.h</text>
</a>
</g>
</g>
<!-- Node31&#45;&gt;Node34 -->
<g id="edge78" class="edge">
<title>Node31&#45;&gt;Node34</title>
<path fill="none" stroke="midnightblue" d="M447.77,-793.86C483.5,-792.98 541.09,-785.37 569,-748 578.09,-735.82 617.51,-817.71 568,-616 565.65,-606.43 560.93,-596.59 556.38,-588.57"/>
<polygon fill="midnightblue" stroke="midnightblue" points="559.25,-586.55 551.08,-579.82 553.27,-590.18 559.25,-586.55"/>
</g>
<!-- Node39 -->
<g id="node39" class="node">
<title>Node39</title>
<g id="a_node39"><a xlink:href="_s_l_object_8h.html" target="_top" xlink:title=" ">
<polygon fill="white" stroke="black" points="104.5,-392.5 104.5,-411.5 169.5,-411.5 169.5,-392.5 104.5,-392.5"/>
<text text-anchor="middle" x="137" y="-399.5" font-family="Arial" font-size="10.00">SLObject.h</text>
</a>
</g>
</g>
<!-- Node31&#45;&gt;Node39 -->
<g id="edge79" class="edge">
<title>Node31&#45;&gt;Node39</title>
<path fill="none" stroke="midnightblue" d="M398.83,-784.43C384.18,-776.71 363.95,-764.1 351,-748 298.09,-682.2 282,-655.43 282,-571 282,-571 282,-571 282,-513 282,-460.53 220.98,-429.84 178.11,-414.76"/>
<polygon fill="midnightblue" stroke="midnightblue" points="179.06,-411.39 168.46,-411.52 176.83,-418.02 179.06,-411.39"/>
</g>
<!-- Node40 -->
<g id="node40" class="node">
<title>Node40</title>
<g id="a_node40"><a xlink:href="_s_l_optix_accel_struct_8h.html" target="_top" xlink:title=" ">
<polygon fill="white" stroke="black" points="616.5,-728.5 616.5,-747.5 727.5,-747.5 727.5,-728.5 616.5,-728.5"/>
<text text-anchor="middle" x="672" y="-735.5" font-family="Arial" font-size="10.00">SLOptixAccelStruct.h</text>
</a>
</g>
</g>
<!-- Node31&#45;&gt;Node40 -->
<g id="edge81" class="edge">
<title>Node31&#45;&gt;Node40</title>
<path fill="none" stroke="midnightblue" d="M447.51,-786.54C490.64,-777.41 569.95,-760.61 621.83,-749.63"/>
<polygon fill="midnightblue" stroke="midnightblue" points="622.76,-753.01 631.82,-747.51 621.31,-746.16 622.76,-753.01"/>
</g>
<!-- Node41 -->
<g id="node41" class="node">
<title>Node41</title>
<g id="a_node41"><a xlink:href="_s_l_optix_definitions_8h.html" target="_top" xlink:title=" ">
<polygon fill="white" stroke="black" points="360.5,-728.5 360.5,-747.5 467.5,-747.5 467.5,-728.5 360.5,-728.5"/>
<text text-anchor="middle" x="414" y="-735.5" font-family="Arial" font-size="10.00">SLOptixDefinitions.h</text>
</a>
</g>
</g>
<!-- Node31&#45;&gt;Node41 -->
<g id="edge82" class="edge">
<title>Node31&#45;&gt;Node41</title>
<path fill="none" stroke="midnightblue" d="M416.5,-784.08C416.11,-777.01 415.55,-766.86 415.05,-757.99"/>
<polygon fill="midnightblue" stroke="midnightblue" points="418.54,-757.54 414.49,-747.75 411.55,-757.93 418.54,-757.54"/>
</g>
<!-- Node32&#45;&gt;Node20 -->
<g id="edge71" class="edge">
<title>Node32&#45;&gt;Node20</title>
<path fill="none" stroke="midnightblue" d="M527.95,-728.49C556.5,-679.44 700.19,-432.58 739.85,-364.44"/>
<polygon fill="midnightblue" stroke="midnightblue" points="742.91,-366.13 744.92,-355.73 736.86,-362.61 742.91,-366.13"/>
</g>
<!-- Node33 -->
<g id="node33" class="node">
<title>Node33</title>
<g id="a_node33"><a xlink:href="_s_l_g_l_vertex_array_ext_8h.html" target="_top" xlink:title=" ">
<polygon fill="white" stroke="black" points="444.5,-616.5 444.5,-635.5 559.5,-635.5 559.5,-616.5 444.5,-616.5"/>
<text text-anchor="middle" x="502" y="-623.5" font-family="Arial" font-size="10.00">SLGLVertexArrayExt.h</text>
</a>
</g>
</g>
<!-- Node32&#45;&gt;Node33 -->
<g id="edge57" class="edge">
<title>Node32&#45;&gt;Node33</title>
<path fill="none" stroke="midnightblue" d="M521.35,-728.37C517.96,-710.62 510.15,-669.67 505.55,-645.6"/>
<polygon fill="midnightblue" stroke="midnightblue" points="508.95,-644.76 503.64,-635.59 502.08,-646.07 508.95,-644.76"/>
</g>
<!-- Node38 -->
<g id="node38" class="node">
<title>Node38</title>
<g id="a_node38"><a xlink:href="_s_l_rect_8h.html" target="_top" xlink:title=" ">
<polygon fill="white" stroke="black" points="375,-672.5 375,-691.5 433,-691.5 433,-672.5 375,-672.5"/>
<text text-anchor="middle" x="404" y="-679.5" font-family="Arial" font-size="10.00">SLRect.h</text>
</a>
</g>
</g>
<!-- Node32&#45;&gt;Node38 -->
<g id="edge72" class="edge">
<title>Node32&#45;&gt;Node38</title>
<path fill="none" stroke="midnightblue" d="M504.14,-728.44C484.73,-719.64 454.27,-705.81 432.04,-695.72"/>
<polygon fill="midnightblue" stroke="midnightblue" points="433.32,-692.46 422.77,-691.52 430.43,-698.84 433.32,-692.46"/>
</g>
<!-- Node33&#45;&gt;Node34 -->
<g id="edge58" class="edge">
<title>Node33&#45;&gt;Node34</title>
<path fill="none" stroke="midnightblue" d="M509.1,-616.08C515.24,-608.38 524.27,-597.03 531.74,-587.65"/>
<polygon fill="midnightblue" stroke="midnightblue" points="534.54,-589.75 538.03,-579.75 529.06,-585.39 534.54,-589.75"/>
</g>
<!-- Node35 -->
<g id="node35" class="node">
<title>Node35</title>
<g id="a_node35"><a xlink:href="_s_l_g_l_enums_8h.html" target="_top" xlink:title=" ">
<polygon fill="white" stroke="black" points="432,-448.5 432,-467.5 512,-467.5 512,-448.5 432,-448.5"/>
<text text-anchor="middle" x="472" y="-455.5" font-family="Arial" font-size="10.00">SLGLEnums.h</text>
</a>
</g>
</g>
<!-- Node34&#45;&gt;Node35 -->
<g id="edge59" class="edge">
<title>Node34&#45;&gt;Node35</title>
<path fill="none" stroke="midnightblue" d="M530.54,-560.44C518.3,-552.47 501.17,-539.51 491,-524 481.84,-510.02 476.99,-491.52 474.49,-477.83"/>
<polygon fill="midnightblue" stroke="midnightblue" points="477.91,-477.01 472.9,-467.67 470.99,-478.09 477.91,-477.01"/>
</g>
<!-- Node37 -->
<g id="node37" class="node">
<title>Node37</title>
<g id="a_node37"><a xlink:href="_s_l_g_l_vertex_buffer_8h.html" target="_top" xlink:title=" ">
<polygon fill="white" stroke="black" points="500,-504.5 500,-523.5 602,-523.5 602,-504.5 500,-504.5"/>
<text text-anchor="middle" x="551" y="-511.5" font-family="Arial" font-size="10.00">SLGLVertexBuffer.h</text>
</a>
</g>
</g>
<!-- Node34&#45;&gt;Node37 -->
<g id="edge66" class="edge">
<title>Node34&#45;&gt;Node37</title>
<path fill="none" stroke="midnightblue" d="M545.99,-560.08C546.79,-552.93 547.93,-542.64 548.92,-533.69"/>
<polygon fill="midnightblue" stroke="midnightblue" points="552.4,-534.08 550.03,-523.75 545.44,-533.3 552.4,-534.08"/>
</g>
<!-- Node35&#45;&gt;Node2 -->
<g id="edge60" class="edge">
<title>Node35&#45;&gt;Node2</title>
<path fill="none" stroke="midnightblue" d="M431.93,-452.17C403.35,-446.8 365.75,-435.52 341,-412 295.17,-368.45 324.71,-331.47 288,-280 279.66,-268.31 267.67,-257.66 257.31,-249.67"/>
<polygon fill="midnightblue" stroke="midnightblue" points="259.23,-246.73 249.1,-243.61 255.07,-252.37 259.23,-246.73"/>
</g>
<!-- Node36 -->
<g id="node36" class="node">
<title>Node36</title>
<g id="a_node36"><a xlink:href="_s_l_g_l_state_8h.html" target="_top" xlink:title=" ">
<polygon fill="white" stroke="black" points="464.5,-392.5 464.5,-411.5 537.5,-411.5 537.5,-392.5 464.5,-392.5"/>
<text text-anchor="middle" x="501" y="-399.5" font-family="Arial" font-size="10.00">SLGLState.h</text>
</a>
</g>
</g>
<!-- Node35&#45;&gt;Node36 -->
<g id="edge61" class="edge">
<title>Node35&#45;&gt;Node36</title>
<path fill="none" stroke="midnightblue" d="M476.79,-448.08C480.76,-440.69 486.53,-429.95 491.43,-420.81"/>
<polygon fill="midnightblue" stroke="midnightblue" points="494.65,-422.22 496.3,-411.75 488.49,-418.91 494.65,-422.22"/>
</g>
<!-- Node36&#45;&gt;Node2 -->
<g id="edge62" class="edge">
<title>Node36&#45;&gt;Node2</title>
<path fill="none" stroke="midnightblue" d="M489.9,-392.5C462.76,-371.9 390.53,-318.18 326,-280 305.83,-268.07 282.08,-256.28 264.05,-247.77"/>
<polygon fill="midnightblue" stroke="midnightblue" points="265.22,-244.45 254.68,-243.39 262.26,-250.79 265.22,-244.45"/>
</g>
<!-- Node36&#45;&gt;Node12 -->
<g id="edge64" class="edge">
<title>Node36&#45;&gt;Node12</title>
<path fill="none" stroke="midnightblue" d="M505.55,-392.37C515.04,-374.38 537.09,-332.55 549.71,-308.63"/>
<polygon fill="midnightblue" stroke="midnightblue" points="552.9,-310.07 554.47,-299.59 546.71,-306.8 552.9,-310.07"/>
</g>
<!-- Node36&#45;&gt;Node15 -->
<g id="edge63" class="edge">
<title>Node36&#45;&gt;Node15</title>
<path fill="none" stroke="midnightblue" d="M499.9,-392.34C497.68,-370.93 494.85,-314.68 521,-280 534.63,-261.93 557.36,-250.8 577.16,-244.14"/>
<polygon fill="midnightblue" stroke="midnightblue" points="578.37,-247.43 586.89,-241.13 576.31,-240.74 578.37,-247.43"/>
</g>
<!-- Node36&#45;&gt;Node20 -->
<g id="edge65" class="edge">
<title>Node36&#45;&gt;Node20</title>
<path fill="none" stroke="midnightblue" d="M537.74,-393.03C583.87,-383.03 662.7,-365.93 710.21,-355.63"/>
<polygon fill="midnightblue" stroke="midnightblue" points="711.11,-359.02 720.14,-353.48 709.63,-352.17 711.11,-359.02"/>
</g>
<!-- Node37&#45;&gt;Node12 -->
<g id="edge70" class="edge">
<title>Node37&#45;&gt;Node12</title>
<path fill="none" stroke="midnightblue" d="M551.67,-504.38C552.36,-495.32 553.4,-480.67 554,-468 556.72,-410.57 558.14,-342.58 558.7,-310.11"/>
<polygon fill="midnightblue" stroke="midnightblue" points="562.2,-309.9 558.87,-299.84 555.2,-309.79 562.2,-309.9"/>
</g>
<!-- Node37&#45;&gt;Node13 -->
<g id="edge68" class="edge">
<title>Node37&#45;&gt;Node13</title>
<path fill="none" stroke="midnightblue" d="M548.92,-504.43C545.28,-490.97 536.62,-464.7 521,-448 498.18,-423.6 477.01,-437.14 455,-412 419.88,-371.88 421.72,-352.43 412,-300 402.52,-248.86 462.71,-210.71 500.98,-191.95"/>
<polygon fill="midnightblue" stroke="midnightblue" points="502.64,-195.04 510.19,-187.61 499.65,-188.71 502.64,-195.04"/>
</g>
<!-- Node37&#45;&gt;Node15 -->
<g id="edge69" class="edge">
<title>Node37&#45;&gt;Node15</title>
<path fill="none" stroke="midnightblue" d="M560.59,-504.34C578.67,-487.02 616,-446.03 616,-403 616,-403 616,-403 616,-345 616,-312.95 616,-275.64 616,-253.75"/>
<polygon fill="midnightblue" stroke="midnightblue" points="619.5,-253.56 616,-243.56 612.5,-253.56 619.5,-253.56"/>
</g>
<!-- Node37&#45;&gt;Node35 -->
<g id="edge67" class="edge">
<title>Node37&#45;&gt;Node35</title>
<path fill="none" stroke="midnightblue" d="M538.31,-504.32C526.1,-495.98 507.42,-483.21 493,-473.35"/>
<polygon fill="midnightblue" stroke="midnightblue" points="494.89,-470.41 484.66,-467.65 490.94,-476.19 494.89,-470.41"/>
</g>
<!-- Node38&#45;&gt;Node2 -->
<g id="edge73" class="edge">
<title>Node38&#45;&gt;Node2</title>
<path fill="none" stroke="midnightblue" d="M390.88,-672.46C367.25,-655.94 320,-617.14 320,-571 320,-571 320,-571 320,-513 320,-410.78 267.31,-296.1 245.39,-252.81"/>
<polygon fill="midnightblue" stroke="midnightblue" points="248.45,-251.11 240.76,-243.82 242.23,-254.32 248.45,-251.11"/>
</g>
<!-- Node38&#45;&gt;Node13 -->
<g id="edge75" class="edge">
<title>Node38&#45;&gt;Node13</title>
<path fill="none" stroke="midnightblue" d="M404,-672.44C404,-653.94 404,-608.81 404,-571 404,-571 404,-571 404,-513 404,-384.16 487.59,-244.53 519.14,-196.43"/>
<polygon fill="midnightblue" stroke="midnightblue" points="522.24,-198.08 524.87,-187.82 516.42,-194.2 522.24,-198.08"/>
</g>
<!-- Node38&#45;&gt;Node15 -->
<g id="edge76" class="edge">
<title>Node38&#45;&gt;Node15</title>
<path fill="none" stroke="midnightblue" d="M398.72,-672.23C388.27,-654.04 366,-610.6 366,-571 366,-571 366,-571 366,-513 366,-429.17 492.93,-291.31 507,-280 527.48,-263.54 554.82,-252.27 577,-245.13"/>
<polygon fill="midnightblue" stroke="midnightblue" points="578.24,-248.41 586.78,-242.13 576.19,-241.72 578.24,-248.41"/>
</g>
<!-- Node38&#45;&gt;Node33 -->
<g id="edge74" class="edge">
<title>Node38&#45;&gt;Node33</title>
<path fill="none" stroke="midnightblue" d="M419.75,-672.32C435.32,-663.74 459.38,-650.49 477.46,-640.52"/>
<polygon fill="midnightblue" stroke="midnightblue" points="479.22,-643.55 486.29,-635.65 475.85,-637.42 479.22,-643.55"/>
</g>
<!-- Node39&#45;&gt;Node2 -->
<g id="edge80" class="edge">
<title>Node39&#45;&gt;Node2</title>
<path fill="none" stroke="midnightblue" d="M138.82,-392.4C143.53,-371.57 157.64,-317.39 184,-280 192.28,-268.26 204.26,-257.61 214.63,-249.63"/>
<polygon fill="midnightblue" stroke="midnightblue" points="216.88,-252.33 222.86,-243.58 212.73,-246.69 216.88,-252.33"/>
</g>
<!-- Node42&#45;&gt;Node3 -->
<g id="edge87" class="edge">
<title>Node42&#45;&gt;Node3</title>
<path fill="none" stroke="midnightblue" d="M857.79,-398.3C965.54,-387.97 1304.74,-345.3 1205,-224 1143.47,-149.17 827.92,-128.91 724.71,-124.24"/>
<polygon fill="midnightblue" stroke="midnightblue" points="724.71,-120.74 714.57,-123.8 724.41,-127.73 724.71,-120.74"/>
</g>
<!-- Node42&#45;&gt;Node12 -->
<g id="edge86" class="edge">
<title>Node42&#45;&gt;Node12</title>
<path fill="none" stroke="midnightblue" d="M802.92,-392.45C779.58,-383.7 742.54,-369.49 711,-356 691.62,-347.71 687.3,-344.47 668,-336 641.82,-324.52 611.78,-312.17 589.87,-303.32"/>
<polygon fill="midnightblue" stroke="midnightblue" points="591,-300.01 580.42,-299.52 588.39,-306.5 591,-300.01"/>
</g>
<!-- Node42&#45;&gt;Node14 -->
<g id="edge84" class="edge">
<title>Node42&#45;&gt;Node14</title>
<path fill="none" stroke="midnightblue" d="M857.84,-400.45C964.11,-397.75 1300,-382.03 1300,-291 1300,-291 1300,-291 1300,-233 1300,-158.89 1194.69,-134.51 1135.03,-126.64"/>
<polygon fill="midnightblue" stroke="midnightblue" points="1135.16,-123.13 1124.81,-125.39 1134.31,-130.08 1135.16,-123.13"/>
</g>
<!-- Node42&#45;&gt;Node20 -->
<g id="edge85" class="edge">
<title>Node42&#45;&gt;Node20</title>
<path fill="none" stroke="midnightblue" d="M813.79,-392.32C802.22,-384.11 784.62,-371.6 770.84,-361.81"/>
<polygon fill="midnightblue" stroke="midnightblue" points="772.61,-358.77 762.43,-355.83 768.56,-364.48 772.61,-358.77"/>
</g>
<!-- Node43&#45;&gt;Node2 -->
<g id="edge91" class="edge">
<title>Node43&#45;&gt;Node2</title>
<path fill="none" stroke="midnightblue" d="M111.19,-448.26C102.38,-435.86 88.87,-412.41 95,-392 112.17,-334.86 126.97,-322.35 169,-280 181.27,-267.64 197.42,-256.67 210.79,-248.66"/>
<polygon fill="midnightblue" stroke="midnightblue" points="212.62,-251.64 219.52,-243.6 209.12,-245.58 212.62,-251.64"/>
</g>
<!-- Node43&#45;&gt;Node36 -->
<g id="edge90" class="edge">
<title>Node43&#45;&gt;Node36</title>
<path fill="none" stroke="midnightblue" d="M168.86,-449.83C243.53,-439.3 381.78,-419.81 454.11,-409.61"/>
<polygon fill="midnightblue" stroke="midnightblue" points="454.88,-413.04 464.29,-408.18 453.9,-406.11 454.88,-413.04"/>
</g>
<!-- Node43&#45;&gt;Node39 -->
<g id="edge89" class="edge">
<title>Node43&#45;&gt;Node39</title>
<path fill="none" stroke="midnightblue" d="M121.14,-448.08C123.68,-440.85 127.36,-430.41 130.53,-421.4"/>
<polygon fill="midnightblue" stroke="midnightblue" points="133.9,-422.35 133.92,-411.75 127.3,-420.02 133.9,-422.35"/>
</g>
</g>
</svg>
