<?xml version="1.0" encoding="UTF-8" standalone="no"?>
<!DOCTYPE svg PUBLIC "-//W3C//DTD SVG 1.1//EN"
 "http://www.w3.org/Graphics/SVG/1.1/DTD/svg11.dtd">
<!-- Generated by graphviz version 2.36.0 (20140111.2315)
 -->
<!-- Title: SLInputDevice.h Pages: 1 -->
<svg width="111pt" height="196pt"
 viewBox="0.00 0.00 111.00 196.00" xmlns="http://www.w3.org/2000/svg" xmlns:xlink="http://www.w3.org/1999/xlink">
<g id="graph0" class="graph" transform="scale(1 1) rotate(0) translate(4 192)">
<title>SLInputDevice.h</title>
<polygon fill="white" stroke="none" points="-4,4 -4,-192 107,-192 107,4 -4,4"/>
<!-- Node1 -->
<g id="node1" class="node"><title>Node1</title>
<polygon fill="#bfbfbf" stroke="black" points="12,-168.5 12,-187.5 102,-187.5 102,-168.5 12,-168.5"/>
<text text-anchor="middle" x="57" y="-175.5" font-family="Arial.ttf" font-size="10.00">SLInputDevice.h</text>
</g>
<!-- Node2 -->
<g id="node2" class="node"><title>Node2</title>
<g id="a_node2"><a xlink:href="_s_l_8h.html" target="_top" xlink:title="SL.h">
<polygon fill="white" stroke="black" points="13.5,-112.5 13.5,-131.5 50.5,-131.5 50.5,-112.5 13.5,-112.5"/>
<text text-anchor="middle" x="32" y="-119.5" font-family="Arial.ttf" font-size="10.00">SL.h</text>
</a>
</g>
</g>
<!-- Node1&#45;&gt;Node2 -->
<g id="edge1" class="edge"><title>Node1&#45;&gt;Node2</title>
<path fill="none" stroke="midnightblue" d="M52.8718,-168.083C49.4861,-160.77 44.584,-150.181 40.3812,-141.103"/>
<polygon fill="midnightblue" stroke="midnightblue" points="43.4289,-139.355 36.0514,-131.751 37.0766,-142.296 43.4289,-139.355"/>
</g>
<!-- Node5 -->
<g id="node5" class="node"><title>Node5</title>
<polygon fill="white" stroke="#bfbfbf" points="59,-0.5 59,-19.5 103,-19.5 103,-0.5 59,-0.5"/>
<text text-anchor="middle" x="81" y="-7.5" font-family="Arial.ttf" font-size="10.00">vector</text>
</g>
<!-- Node1&#45;&gt;Node5 -->
<g id="edge5" class="edge"><title>Node1&#45;&gt;Node5</title>
<path fill="none" stroke="midnightblue" d="M58.2903,-168.075C62.0682,-141.945 73.1623,-65.2106 78.3142,-29.577"/>
<polygon fill="midnightblue" stroke="midnightblue" points="81.7942,-29.9661 79.7612,-19.5681 74.8663,-28.9644 81.7942,-29.9661"/>
</g>
<!-- Node3 -->
<g id="node3" class="node"><title>Node3</title>
<g id="a_node3"><a xlink:href="_utils_8h.html" target="_top" xlink:title="Utils.h">
<polygon fill="white" stroke="black" points="9,-56.5 9,-75.5 53,-75.5 53,-56.5 9,-56.5"/>
<text text-anchor="middle" x="31" y="-63.5" font-family="Arial.ttf" font-size="10.00">Utils.h</text>
</a>
</g>
</g>
<!-- Node2&#45;&gt;Node3 -->
<g id="edge2" class="edge"><title>Node2&#45;&gt;Node3</title>
<path fill="none" stroke="midnightblue" d="M31.8349,-112.083C31.7038,-105.006 31.5159,-94.8611 31.3516,-85.9865"/>
<polygon fill="midnightblue" stroke="midnightblue" points="34.8467,-85.6845 31.1621,-75.7511 27.8479,-85.8142 34.8467,-85.6845"/>
</g>
<!-- Node4 -->
<g id="node4" class="node"><title>Node4</title>
<polygon fill="white" stroke="#bfbfbf" points="-0.5,-0.5 -0.5,-19.5 40.5,-19.5 40.5,-0.5 -0.5,-0.5"/>
<text text-anchor="middle" x="20" y="-7.5" font-family="Arial.ttf" font-size="10.00">string</text>
</g>
<!-- Node3&#45;&gt;Node4 -->
<g id="edge3" class="edge"><title>Node3&#45;&gt;Node4</title>
<path fill="none" stroke="midnightblue" d="M29.1836,-56.083C27.7259,-48.9272 25.6294,-38.6353 23.8075,-29.6911"/>
<polygon fill="midnightblue" stroke="midnightblue" points="27.2083,-28.8512 21.7826,-19.7511 20.3492,-30.2485 27.2083,-28.8512"/>
</g>
<!-- Node3&#45;&gt;Node5 -->
<g id="edge4" class="edge"><title>Node3&#45;&gt;Node5</title>
<path fill="none" stroke="midnightblue" d="M39.2565,-56.083C46.4647,-48.2982 57.1098,-36.8015 65.8458,-27.3665"/>
<polygon fill="midnightblue" stroke="midnightblue" points="68.6712,-29.4666 72.8972,-19.7511 63.5349,-24.7108 68.6712,-29.4666"/>
</g>
</g>
</svg>
