<?xml version="1.0" encoding="UTF-8" standalone="no"?>
<!DOCTYPE svg PUBLIC "-//W3C//DTD SVG 1.1//EN"
 "http://www.w3.org/Graphics/SVG/1.1/DTD/svg11.dtd">
<!-- Generated by graphviz version 2.44.0 (20200408.0750)
 -->
<!-- Title: SLLight.h Pages: 1 -->
<svg width="517pt" height="420pt"
 viewBox="0.00 0.00 517.32 420.00" xmlns="http://www.w3.org/2000/svg" xmlns:xlink="http://www.w3.org/1999/xlink">
<g id="graph0" class="graph" transform="scale(1 1) rotate(0) translate(4 416)">
<title>SLLight.h</title>
<polygon fill="white" stroke="transparent" points="-4,4 -4,-416 513.32,-416 513.32,4 -4,4"/>
<!-- Node1 -->
<g id="node1" class="node">
<title>Node1</title>
<g id="a_node1"><a xlink:title=" ">
<polygon fill="#bfbfbf" stroke="black" points="279.32,-392.5 279.32,-411.5 337.32,-411.5 337.32,-392.5 279.32,-392.5"/>
<text text-anchor="middle" x="308.32" y="-399.5" font-family="Arial.ttf" font-size="10.00">SLLight.h</text>
</a>
</g>
</g>
<!-- Node2 -->
<g id="node2" class="node">
<title>Node2</title>
<g id="a_node2"><a xlink:href="_s_l_8h.html" target="_top" xlink:title=" ">
<polygon fill="white" stroke="black" points="181.82,-168.5 181.82,-187.5 218.82,-187.5 218.82,-168.5 181.82,-168.5"/>
<text text-anchor="middle" x="200.32" y="-175.5" font-family="Arial.ttf" font-size="10.00">SL.h</text>
</a>
</g>
</g>
<!-- Node1&#45;&gt;Node2 -->
<g id="edge1" class="edge">
<title>Node1&#45;&gt;Node2</title>
<path fill="none" stroke="midnightblue" d="M304.08,-392.3C288.09,-359.42 231.15,-242.39 209.12,-197.09"/>
<polygon fill="midnightblue" stroke="midnightblue" points="212.16,-195.34 204.64,-187.88 205.86,-198.41 212.16,-195.34"/>
</g>
<!-- Node11 -->
<g id="node11" class="node">
<title>Node11</title>
<g id="a_node11"><a xlink:href="_s_l_vec4_8h.html" target="_top" xlink:title=" ">
<polygon fill="white" stroke="black" points="123.82,-336.5 123.82,-355.5 182.82,-355.5 182.82,-336.5 123.82,-336.5"/>
<text text-anchor="middle" x="153.32" y="-343.5" font-family="Arial.ttf" font-size="10.00">SLVec4.h</text>
</a>
</g>
</g>
<!-- Node1&#45;&gt;Node11 -->
<g id="edge13" class="edge">
<title>Node1&#45;&gt;Node11</title>
<path fill="none" stroke="midnightblue" d="M283.76,-392.44C257.79,-383.4 216.65,-369.06 187.52,-358.92"/>
<polygon fill="midnightblue" stroke="midnightblue" points="188.36,-355.5 177.76,-355.52 186.05,-362.11 188.36,-355.5"/>
</g>
<!-- Node14 -->
<g id="node14" class="node">
<title>Node14</title>
<g id="a_node14"><a xlink:href="_s_l_optix_definitions_8h.html" target="_top" xlink:title=" ">
<polygon fill="white" stroke="black" points="295.82,-336.5 295.82,-355.5 402.82,-355.5 402.82,-336.5 295.82,-336.5"/>
<text text-anchor="middle" x="349.32" y="-343.5" font-family="Arial.ttf" font-size="10.00">SLOptixDefinitions.h</text>
</a>
</g>
</g>
<!-- Node1&#45;&gt;Node14 -->
<g id="edge23" class="edge">
<title>Node1&#45;&gt;Node14</title>
<path fill="none" stroke="midnightblue" d="M315.09,-392.08C320.88,-384.46 329.37,-373.26 336.45,-363.94"/>
<polygon fill="midnightblue" stroke="midnightblue" points="339.41,-365.83 342.67,-355.75 333.84,-361.6 339.41,-365.83"/>
</g>
<!-- Node15 -->
<g id="node15" class="node">
<title>Node15</title>
<g id="a_node15"><a xlink:href="_s_l_optix_helper_8h.html" target="_top" xlink:title=" ">
<polygon fill="white" stroke="black" points="421.32,-336.5 421.32,-355.5 509.32,-355.5 509.32,-336.5 421.32,-336.5"/>
<text text-anchor="middle" x="465.32" y="-343.5" font-family="Arial.ttf" font-size="10.00">SLOptixHelper.h</text>
</a>
</g>
</g>
<!-- Node1&#45;&gt;Node15 -->
<g id="edge24" class="edge">
<title>Node1&#45;&gt;Node15</title>
<path fill="none" stroke="midnightblue" d="M333.19,-392.44C359.6,-383.36 401.53,-368.94 431.06,-358.78"/>
<polygon fill="midnightblue" stroke="midnightblue" points="432.24,-362.08 440.55,-355.52 429.96,-355.46 432.24,-362.08"/>
</g>
<!-- Node3 -->
<g id="node3" class="node">
<title>Node3</title>
<g id="a_node3"><a xlink:href="_utils_8h.html" target="_top" xlink:title=" ">
<polygon fill="white" stroke="black" points="111.82,-112.5 111.82,-131.5 156.82,-131.5 156.82,-112.5 111.82,-112.5"/>
<text text-anchor="middle" x="134.32" y="-119.5" font-family="Arial.ttf" font-size="10.00">Utils.h</text>
</a>
</g>
</g>
<!-- Node2&#45;&gt;Node3 -->
<g id="edge2" class="edge">
<title>Node2&#45;&gt;Node3</title>
<path fill="none" stroke="midnightblue" d="M189.71,-168.32C179.86,-160.26 164.96,-148.08 153.1,-138.37"/>
<polygon fill="midnightblue" stroke="midnightblue" points="155.07,-135.46 145.11,-131.83 150.64,-140.88 155.07,-135.46"/>
</g>
<!-- Node4 -->
<g id="node4" class="node">
<title>Node4</title>
<g id="a_node4"><a xlink:title=" ">
<polygon fill="white" stroke="#bfbfbf" points="213.82,-0.5 213.82,-19.5 254.82,-19.5 254.82,-0.5 213.82,-0.5"/>
<text text-anchor="middle" x="234.32" y="-7.5" font-family="Arial.ttf" font-size="10.00">string</text>
</a>
</g>
</g>
<!-- Node3&#45;&gt;Node4 -->
<g id="edge3" class="edge">
<title>Node3&#45;&gt;Node4</title>
<path fill="none" stroke="midnightblue" d="M156.96,-114.84C176.43,-108.37 203.75,-96.25 219.32,-76 229.46,-62.8 232.94,-43.93 234.04,-29.92"/>
<polygon fill="midnightblue" stroke="midnightblue" points="237.56,-29.67 234.5,-19.52 230.57,-29.36 237.56,-29.67"/>
</g>
<!-- Node5 -->
<g id="node5" class="node">
<title>Node5</title>
<g id="a_node5"><a xlink:title=" ">
<polygon fill="white" stroke="#bfbfbf" points="13.32,-56.5 13.32,-75.5 57.32,-75.5 57.32,-56.5 13.32,-56.5"/>
<text text-anchor="middle" x="35.32" y="-63.5" font-family="Arial.ttf" font-size="10.00">vector</text>
</a>
</g>
</g>
<!-- Node3&#45;&gt;Node5 -->
<g id="edge4" class="edge">
<title>Node3&#45;&gt;Node5</title>
<path fill="none" stroke="midnightblue" d="M118.41,-112.32C102.68,-103.74 78.37,-90.49 60.11,-80.52"/>
<polygon fill="midnightblue" stroke="midnightblue" points="61.64,-77.37 51.18,-75.65 58.28,-83.52 61.64,-77.37"/>
</g>
<!-- Node6 -->
<g id="node6" class="node">
<title>Node6</title>
<g id="a_node6"><a xlink:title=" ">
<polygon fill="white" stroke="#bfbfbf" points="75.82,-56.5 75.82,-75.5 116.82,-75.5 116.82,-56.5 75.82,-56.5"/>
<text text-anchor="middle" x="96.32" y="-63.5" font-family="Arial.ttf" font-size="10.00">cfloat</text>
</a>
</g>
</g>
<!-- Node3&#45;&gt;Node6 -->
<g id="edge5" class="edge">
<title>Node3&#45;&gt;Node6</title>
<path fill="none" stroke="midnightblue" d="M128.04,-112.08C122.67,-104.46 114.8,-93.26 108.24,-83.94"/>
<polygon fill="midnightblue" stroke="midnightblue" points="111.09,-81.91 102.47,-75.75 105.37,-85.94 111.09,-81.91"/>
</g>
<!-- Node7 -->
<g id="node7" class="node">
<title>Node7</title>
<g id="a_node7"><a xlink:title=" ">
<polygon fill="white" stroke="#bfbfbf" points="53.32,-0.5 53.32,-19.5 105.32,-19.5 105.32,-0.5 53.32,-0.5"/>
<text text-anchor="middle" x="79.32" y="-7.5" font-family="Arial.ttf" font-size="10.00">memory</text>
</a>
</g>
</g>
<!-- Node3&#45;&gt;Node7 -->
<g id="edge6" class="edge">
<title>Node3&#45;&gt;Node7</title>
<path fill="none" stroke="midnightblue" d="M111.56,-120.61C81.3,-118.72 28.77,-110.34 4.32,-76 -10.99,-54.5 18.87,-35.46 45.33,-23.63"/>
<polygon fill="midnightblue" stroke="midnightblue" points="46.99,-26.73 54.84,-19.6 44.26,-20.28 46.99,-26.73"/>
</g>
<!-- Node8 -->
<g id="node8" class="node">
<title>Node8</title>
<g id="a_node8"><a xlink:href="_file_log_8h.html" target="_top" xlink:title=" ">
<polygon fill="white" stroke="black" points="266.32,-56.5 266.32,-75.5 322.32,-75.5 322.32,-56.5 266.32,-56.5"/>
<text text-anchor="middle" x="294.32" y="-63.5" font-family="Arial.ttf" font-size="10.00">FileLog.h</text>
</a>
</g>
</g>
<!-- Node3&#45;&gt;Node8 -->
<g id="edge7" class="edge">
<title>Node3&#45;&gt;Node8</title>
<path fill="none" stroke="midnightblue" d="M156.9,-113.38C183.56,-104.38 228.2,-89.31 259.34,-78.8"/>
<polygon fill="midnightblue" stroke="midnightblue" points="260.59,-82.08 268.94,-75.56 258.35,-75.45 260.59,-82.08"/>
</g>
<!-- Node10 -->
<g id="node10" class="node">
<title>Node10</title>
<g id="a_node10"><a xlink:href="_custom_log_8h.html" target="_top" xlink:title=" ">
<polygon fill="white" stroke="black" points="134.82,-56.5 134.82,-75.5 209.82,-75.5 209.82,-56.5 134.82,-56.5"/>
<text text-anchor="middle" x="172.32" y="-63.5" font-family="Arial.ttf" font-size="10.00">CustomLog.h</text>
</a>
</g>
</g>
<!-- Node3&#45;&gt;Node10 -->
<g id="edge10" class="edge">
<title>Node3&#45;&gt;Node10</title>
<path fill="none" stroke="midnightblue" d="M140.59,-112.08C145.96,-104.46 153.83,-93.26 160.39,-83.94"/>
<polygon fill="midnightblue" stroke="midnightblue" points="163.26,-85.94 166.16,-75.75 157.54,-81.91 163.26,-85.94"/>
</g>
<!-- Node8&#45;&gt;Node4 -->
<g id="edge8" class="edge">
<title>Node8&#45;&gt;Node4</title>
<path fill="none" stroke="midnightblue" d="M284.68,-56.32C275.81,-48.34 262.44,-36.31 251.71,-26.65"/>
<polygon fill="midnightblue" stroke="midnightblue" points="253.91,-23.92 244.13,-19.83 249.22,-29.13 253.91,-23.92"/>
</g>
<!-- Node9 -->
<g id="node9" class="node">
<title>Node9</title>
<g id="a_node9"><a xlink:title=" ">
<polygon fill="white" stroke="#bfbfbf" points="273.32,-0.5 273.32,-19.5 323.32,-19.5 323.32,-0.5 273.32,-0.5"/>
<text text-anchor="middle" x="298.32" y="-7.5" font-family="Arial.ttf" font-size="10.00">fstream</text>
</a>
</g>
</g>
<!-- Node8&#45;&gt;Node9 -->
<g id="edge9" class="edge">
<title>Node8&#45;&gt;Node9</title>
<path fill="none" stroke="midnightblue" d="M294.98,-56.08C295.5,-49.01 296.25,-38.86 296.91,-29.99"/>
<polygon fill="midnightblue" stroke="midnightblue" points="300.42,-29.98 297.67,-19.75 293.44,-29.47 300.42,-29.98"/>
</g>
<!-- Node10&#45;&gt;Node4 -->
<g id="edge12" class="edge">
<title>Node10&#45;&gt;Node4</title>
<path fill="none" stroke="midnightblue" d="M182.28,-56.32C191.44,-48.34 205.25,-36.31 216.34,-26.65"/>
<polygon fill="midnightblue" stroke="midnightblue" points="218.93,-29.04 224.17,-19.83 214.33,-23.76 218.93,-29.04"/>
</g>
<!-- Node10&#45;&gt;Node7 -->
<g id="edge11" class="edge">
<title>Node10&#45;&gt;Node7</title>
<path fill="none" stroke="midnightblue" d="M157.37,-56.32C142.73,-47.82 120.18,-34.73 103.08,-24.8"/>
<polygon fill="midnightblue" stroke="midnightblue" points="104.63,-21.65 94.22,-19.65 101.11,-27.7 104.63,-21.65"/>
</g>
<!-- Node11&#45;&gt;Node2 -->
<g id="edge14" class="edge">
<title>Node11&#45;&gt;Node2</title>
<path fill="none" stroke="midnightblue" d="M163.77,-336.2C172.82,-327.9 185.36,-314.58 191.32,-300 205.2,-265.99 204.35,-222.17 202.39,-197.68"/>
<polygon fill="midnightblue" stroke="midnightblue" points="205.86,-197.24 201.43,-187.62 198.9,-197.91 205.86,-197.24"/>
</g>
<!-- Node11&#45;&gt;Node3 -->
<g id="edge22" class="edge">
<title>Node11&#45;&gt;Node3</title>
<path fill="none" stroke="midnightblue" d="M139.31,-336.27C116.33,-320.96 71.64,-286.8 56.32,-244 41.2,-201.78 85.59,-159.3 113.5,-137.67"/>
<polygon fill="midnightblue" stroke="midnightblue" points="115.64,-140.44 121.55,-131.64 111.45,-134.83 115.64,-140.44"/>
</g>
<!-- Node12 -->
<g id="node12" class="node">
<title>Node12</title>
<g id="a_node12"><a xlink:href="_s_l_vec2_8h.html" target="_top" xlink:title=" ">
<polygon fill="white" stroke="black" points="65.82,-224.5 65.82,-243.5 124.82,-243.5 124.82,-224.5 65.82,-224.5"/>
<text text-anchor="middle" x="95.32" y="-231.5" font-family="Arial.ttf" font-size="10.00">SLVec2.h</text>
</a>
</g>
</g>
<!-- Node11&#45;&gt;Node12 -->
<g id="edge15" class="edge">
<title>Node11&#45;&gt;Node12</title>
<path fill="none" stroke="midnightblue" d="M143.65,-336.25C134.83,-327.77 122.04,-314.16 114.32,-300 106.4,-285.48 101.45,-267.3 98.59,-253.86"/>
<polygon fill="midnightblue" stroke="midnightblue" points="102,-253.03 96.67,-243.87 95.12,-254.35 102,-253.03"/>
</g>
<!-- Node13 -->
<g id="node13" class="node">
<title>Node13</title>
<g id="a_node13"><a xlink:href="_s_l_vec3_8h.html" target="_top" xlink:title=" ">
<polygon fill="white" stroke="black" points="123.82,-280.5 123.82,-299.5 182.82,-299.5 182.82,-280.5 123.82,-280.5"/>
<text text-anchor="middle" x="153.32" y="-287.5" font-family="Arial.ttf" font-size="10.00">SLVec3.h</text>
</a>
</g>
</g>
<!-- Node11&#45;&gt;Node13 -->
<g id="edge18" class="edge">
<title>Node11&#45;&gt;Node13</title>
<path fill="none" stroke="midnightblue" d="M153.32,-336.08C153.32,-329.01 153.32,-318.86 153.32,-309.99"/>
<polygon fill="midnightblue" stroke="midnightblue" points="156.82,-309.75 153.32,-299.75 149.82,-309.75 156.82,-309.75"/>
</g>
<!-- Node12&#45;&gt;Node2 -->
<g id="edge16" class="edge">
<title>Node12&#45;&gt;Node2</title>
<path fill="none" stroke="midnightblue" d="M112.19,-224.32C129.02,-215.66 155.12,-202.24 174.55,-192.25"/>
<polygon fill="midnightblue" stroke="midnightblue" points="176.19,-195.34 183.49,-187.65 172.99,-189.12 176.19,-195.34"/>
</g>
<!-- Node12&#45;&gt;Node3 -->
<g id="edge17" class="edge">
<title>Node12&#45;&gt;Node3</title>
<path fill="none" stroke="midnightblue" d="M98.38,-224.37C104.7,-206.54 119.32,-165.3 127.84,-141.27"/>
<polygon fill="midnightblue" stroke="midnightblue" points="131.23,-142.19 131.27,-131.59 124.63,-139.85 131.23,-142.19"/>
</g>
<!-- Node13&#45;&gt;Node2 -->
<g id="edge19" class="edge">
<title>Node13&#45;&gt;Node2</title>
<path fill="none" stroke="midnightblue" d="M157,-280.37C164.66,-262.46 182.4,-220.92 192.65,-196.95"/>
<polygon fill="midnightblue" stroke="midnightblue" points="195.93,-198.16 196.64,-187.59 189.5,-195.41 195.93,-198.16"/>
</g>
<!-- Node13&#45;&gt;Node3 -->
<g id="edge21" class="edge">
<title>Node13&#45;&gt;Node3</title>
<path fill="none" stroke="midnightblue" d="M152.29,-280.08C149.3,-253.95 140.52,-177.21 136.44,-141.58"/>
<polygon fill="midnightblue" stroke="midnightblue" points="139.91,-141.11 135.3,-131.57 132.96,-141.9 139.91,-141.11"/>
</g>
<!-- Node13&#45;&gt;Node12 -->
<g id="edge20" class="edge">
<title>Node13&#45;&gt;Node12</title>
<path fill="none" stroke="midnightblue" d="M144,-280.32C135.42,-272.34 122.5,-260.31 112.13,-250.65"/>
<polygon fill="midnightblue" stroke="midnightblue" points="114.51,-248.09 104.8,-243.83 109.74,-253.21 114.51,-248.09"/>
</g>
</g>
</svg>
