<?xml version="1.0" encoding="UTF-8" standalone="no"?>
<!DOCTYPE svg PUBLIC "-//W3C//DTD SVG 1.1//EN"
 "http://www.w3.org/Graphics/SVG/1.1/DTD/svg11.dtd">
<!-- Generated by graphviz version 2.40.1 (20161225.0304)
 -->
<!-- Title: SLGLOculus.h Pages: 1 -->
<svg width="2957pt" height="247pt"
 viewBox="0.00 0.00 2957.07 247.00" xmlns="http://www.w3.org/2000/svg" xmlns:xlink="http://www.w3.org/1999/xlink">
<g id="graph0" class="graph" transform="scale(1 1) rotate(0) translate(4 243)">
<title>SLGLOculus.h</title>
<polygon fill="#ffffff" stroke="transparent" points="-4,4 -4,-243 2953.068,-243 2953.068,4 -4,4"/>
<!-- Node1 -->
<g id="node1" class="node">
<title>Node1</title>
<g id="a_node1"><a xlink:title=" ">
<polygon fill="#bfbfbf" stroke="#000000" points="34.1662,-220.5 34.1662,-238.5 115.2004,-238.5 115.2004,-220.5 34.1662,-220.5"/>
<text text-anchor="middle" x="74.6833" y="-226.5" font-family="Arial.ttf" font-size="10.00" fill="#000000">SLGLOculus.h</text>
</a>
</g>
</g>
<!-- Node2 -->
<g id="node2" class="node">
<title>Node2</title>
<g id="a_node2"><a xlink:href="_s_l_g_l_oculus_8cpp.html" target="_top" xlink:title=" ">
<polygon fill="#ffffff" stroke="#000000" points="28.8854,-55.5 28.8854,-73.5 120.4811,-73.5 120.4811,-55.5 28.8854,-55.5"/>
<text text-anchor="middle" x="74.6833" y="-61.5" font-family="Arial.ttf" font-size="10.00" fill="#000000">SLGLOculus.cpp</text>
</a>
</g>
</g>
<!-- Node1&#45;&gt;Node2 -->
<g id="edge1" class="edge">
<title>Node1&#45;&gt;Node2</title>
<path fill="none" stroke="#191970" d="M57.847,-213.0904C40.1763,-194.58 13.491,-162.6434 2.6833,-129 .1006,-120.9602 -1.3919,-117.396 2.6833,-110 12.3882,-92.3867 32.1019,-80.6462 48.4512,-73.5096"/>
<polygon fill="#191970" stroke="#191970" points="55.5133,-215.7091 65.019,-220.388 60.5058,-210.8025 55.5133,-215.7091"/>
</g>
<!-- Node3 -->
<g id="node3" class="node">
<title>Node3</title>
<g id="a_node3"><a xlink:href="_s_l_g_l_o_v_r_workaround_8h.html" target="_top" xlink:title=" ">
<polygon fill="#ffffff" stroke="#000000" points="11.8347,-110.5 11.8347,-128.5 137.5319,-128.5 137.5319,-110.5 11.8347,-110.5"/>
<text text-anchor="middle" x="74.6833" y="-116.5" font-family="Arial.ttf" font-size="10.00" fill="#000000">SLGLOVRWorkaround.h</text>
</a>
</g>
</g>
<!-- Node1&#45;&gt;Node3 -->
<g id="edge2" class="edge">
<title>Node1&#45;&gt;Node3</title>
<path fill="none" stroke="#191970" d="M74.6833,-210.1899C74.6833,-186.2569 74.6833,-146.4552 74.6833,-128.6261"/>
<polygon fill="#191970" stroke="#191970" points="71.1834,-210.4982 74.6833,-220.4982 78.1834,-210.4983 71.1834,-210.4982"/>
</g>
<!-- Node4 -->
<g id="node4" class="node">
<title>Node4</title>
<g id="a_node4"><a xlink:href="_s_l_scene_8h.html" target="_top" xlink:title=" ">
<polygon fill="#ffffff" stroke="#000000" points="1245.2204,-165.5 1245.2204,-183.5 1310.1462,-183.5 1310.1462,-165.5 1245.2204,-165.5"/>
<text text-anchor="middle" x="1277.6833" y="-171.5" font-family="Arial.ttf" font-size="10.00" fill="#000000">SLScene.h</text>
</a>
</g>
</g>
<!-- Node1&#45;&gt;Node4 -->
<g id="edge4" class="edge">
<title>Node1&#45;&gt;Node4</title>
<path fill="none" stroke="#191970" d="M125.4921,-227.1771C328.6362,-217.8895 1079.4592,-183.5626 1245.1758,-175.9862"/>
<polygon fill="#191970" stroke="#191970" points="125.2283,-223.6854 115.3986,-227.6385 125.548,-230.6781 125.2283,-223.6854"/>
</g>
<!-- Node3&#45;&gt;Node2 -->
<g id="edge3" class="edge">
<title>Node3&#45;&gt;Node2</title>
<path fill="none" stroke="#191970" d="M74.6833,-100.383C74.6833,-91.3738 74.6833,-81.0373 74.6833,-73.7795"/>
<polygon fill="#191970" stroke="#191970" points="71.1834,-100.4178 74.6833,-110.4179 78.1834,-100.4179 71.1834,-100.4178"/>
</g>
<!-- Node4&#45;&gt;Node2 -->
<g id="edge6" class="edge">
<title>Node4&#45;&gt;Node2</title>
<path fill="none" stroke="#191970" d="M1234.9178,-173.9431C1045.4568,-171.3109 286.615,-158.9707 184.6833,-129 174.4354,-125.9868 117.1182,-90.8568 89.528,-73.7487"/>
<polygon fill="#191970" stroke="#191970" points="1234.9975,-177.4445 1245.0446,-174.0821 1235.0936,-170.4451 1234.9975,-177.4445"/>
</g>
<!-- Node4&#45;&gt;Node3 -->
<g id="edge30" class="edge">
<title>Node4&#45;&gt;Node3</title>
<path fill="none" stroke="#191970" d="M1234.7861,-174.0383C1085.2258,-172.1577 572.9984,-163.4437 151.6833,-129 147.1189,-128.6268 142.4087,-128.1852 137.672,-127.7"/>
<polygon fill="#191970" stroke="#191970" points="1234.8794,-177.5396 1244.9214,-174.1621 1234.965,-170.5401 1234.8794,-177.5396"/>
</g>
<!-- Node5 -->
<g id="node5" class="node">
<title>Node5</title>
<g id="a_node5"><a xlink:href="_s_l_g_l_im_gui_8cpp.html" target="_top" xlink:title=" ">
<polygon fill="#ffffff" stroke="#000000" points="2266.112,-110.5 2266.112,-128.5 2353.2546,-128.5 2353.2546,-110.5 2266.112,-110.5"/>
<text text-anchor="middle" x="2309.6833" y="-116.5" font-family="Arial.ttf" font-size="10.00" fill="#000000">SLGLImGui.cpp</text>
</a>
</g>
</g>
<!-- Node4&#45;&gt;Node5 -->
<g id="edge5" class="edge">
<title>Node4&#45;&gt;Node5</title>
<path fill="none" stroke="#191970" d="M1320.1639,-174.2671C1456.1366,-173.1474 1892.7513,-166.6513 2251.6833,-129 2256.3513,-128.5103 2261.2145,-127.8899 2266.0519,-127.2015"/>
<polygon fill="#191970" stroke="#191970" points="1320.1284,-170.7672 1310.1556,-174.3441 1320.1823,-177.767 1320.1284,-170.7672"/>
</g>
<!-- Node6 -->
<g id="node6" class="node">
<title>Node6</title>
<g id="a_node6"><a xlink:href="_s_l_g_l_oculus_f_b_8cpp.html" target="_top" xlink:title=" ">
<polygon fill="#ffffff" stroke="#000000" points="2409.4963,-110.5 2409.4963,-128.5 2513.8703,-128.5 2513.8703,-110.5 2409.4963,-110.5"/>
<text text-anchor="middle" x="2461.6833" y="-116.5" font-family="Arial.ttf" font-size="10.00" fill="#000000">SLGLOculusFB.cpp</text>
</a>
</g>
</g>
<!-- Node4&#45;&gt;Node6 -->
<g id="edge7" class="edge">
<title>Node4&#45;&gt;Node6</title>
<path fill="none" stroke="#191970" d="M1320.3558,-173.3486C1498.1824,-168.4599 2181.0101,-148.7661 2395.6833,-129 2400.0638,-128.5967 2404.5981,-128.1037 2409.1439,-127.5567"/>
<polygon fill="#191970" stroke="#191970" points="1320.238,-169.8504 1310.3376,-173.623 1320.4297,-176.8478 1320.238,-169.8504"/>
</g>
<!-- Node7 -->
<g id="node7" class="node">
<title>Node7</title>
<g id="a_node7"><a xlink:href="_s_l_g_l_program_8cpp.html" target="_top" xlink:title=" ">
<polygon fill="#ffffff" stroke="#000000" points="2569.2746,-110.5 2569.2746,-128.5 2668.092,-128.5 2668.092,-110.5 2569.2746,-110.5"/>
<text text-anchor="middle" x="2618.6833" y="-116.5" font-family="Arial.ttf" font-size="10.00" fill="#000000">SLGLProgram.cpp</text>
</a>
</g>
</g>
<!-- Node4&#45;&gt;Node7 -->
<g id="edge8" class="edge">
<title>Node4&#45;&gt;Node7</title>
<path fill="none" stroke="#191970" d="M1320.3455,-173.6364C1513.5529,-169.6249 2307.8165,-152.025 2555.6833,-129 2560.0888,-128.5908 2564.6556,-128.0775 2569.2259,-127.5027"/>
<polygon fill="#191970" stroke="#191970" points="1320.2242,-170.1381 1310.2986,-173.844 1320.3688,-177.1366 1320.2242,-170.1381"/>
</g>
<!-- Node8 -->
<g id="node8" class="node">
<title>Node8</title>
<g id="a_node8"><a xlink:href="_s_l_g_l_texture_8cpp.html" target="_top" xlink:title=" ">
<polygon fill="#ffffff" stroke="#000000" points="193.4191,-110.5 193.4191,-128.5 285.9474,-128.5 285.9474,-110.5 193.4191,-110.5"/>
<text text-anchor="middle" x="239.6833" y="-116.5" font-family="Arial.ttf" font-size="10.00" fill="#000000">SLGLTexture.cpp</text>
</a>
</g>
</g>
<!-- Node4&#45;&gt;Node8 -->
<g id="edge9" class="edge">
<title>Node4&#45;&gt;Node8</title>
<path fill="none" stroke="#191970" d="M1234.6476,-173.2242C1070.1446,-168.2362 481.0197,-149.3249 294.6833,-129 291.8898,-128.6953 289.0233,-128.3377 286.1364,-127.9431"/>
<polygon fill="#191970" stroke="#191970" points="1234.7591,-176.7291 1244.8602,-173.5325 1234.9704,-169.7323 1234.7591,-176.7291"/>
</g>
<!-- Node9 -->
<g id="node9" class="node">
<title>Node9</title>
<g id="a_node9"><a xlink:href="_s_l_g_l_vertex_array_8cpp.html" target="_top" xlink:title=" ">
<polygon fill="#ffffff" stroke="#000000" points="304.0612,-110.5 304.0612,-128.5 415.3054,-128.5 415.3054,-110.5 304.0612,-110.5"/>
<text text-anchor="middle" x="359.6833" y="-116.5" font-family="Arial.ttf" font-size="10.00" fill="#000000">SLGLVertexArray.cpp</text>
</a>
</g>
</g>
<!-- Node4&#45;&gt;Node9 -->
<g id="edge10" class="edge">
<title>Node4&#45;&gt;Node9</title>
<path fill="none" stroke="#191970" d="M1234.7654,-173.6037C1109.6291,-170.6907 734.4107,-159.8288 424.6833,-129 421.6192,-128.695 418.4784,-128.3487 415.3111,-127.9731"/>
<polygon fill="#191970" stroke="#191970" points="1234.9846,-177.1095 1245.0619,-173.8384 1235.1443,-170.1113 1234.9846,-177.1095"/>
</g>
<!-- Node10 -->
<g id="node10" class="node">
<title>Node10</title>
<g id="a_node10"><a xlink:href="_s_l_g_l_vertex_array_ext_8cpp.html" target="_top" xlink:title=" ">
<polygon fill="#ffffff" stroke="#000000" points="433.4684,-110.5 433.4684,-128.5 559.8981,-128.5 559.8981,-110.5 433.4684,-110.5"/>
<text text-anchor="middle" x="496.6833" y="-116.5" font-family="Arial.ttf" font-size="10.00" fill="#000000">SLGLVertexArrayExt.cpp</text>
</a>
</g>
</g>
<!-- Node4&#45;&gt;Node10 -->
<g id="edge11" class="edge">
<title>Node4&#45;&gt;Node10</title>
<path fill="none" stroke="#191970" d="M1235.0471,-172.7628C1124.7064,-168.0503 820.7935,-153.6938 568.6833,-129 565.9227,-128.7296 563.1048,-128.4355 560.2599,-128.1238"/>
<polygon fill="#191970" stroke="#191970" points="1234.9737,-176.2627 1245.1128,-173.1887 1235.2697,-169.269 1234.9737,-176.2627"/>
</g>
<!-- Node11 -->
<g id="node11" class="node">
<title>Node11</title>
<g id="a_node11"><a xlink:href="_s_l_g_l_vertex_buffer_8cpp.html" target="_top" xlink:title=" ">
<polygon fill="#ffffff" stroke="#000000" points="577.6598,-110.5 577.6598,-128.5 691.7067,-128.5 691.7067,-110.5 577.6598,-110.5"/>
<text text-anchor="middle" x="634.6833" y="-116.5" font-family="Arial.ttf" font-size="10.00" fill="#000000">SLGLVertexBuffer.cpp</text>
</a>
</g>
</g>
<!-- Node4&#45;&gt;Node11 -->
<g id="edge12" class="edge">
<title>Node4&#45;&gt;Node11</title>
<path fill="none" stroke="#191970" d="M1234.9164,-172.071C1139.0911,-166.422 899.9407,-151.1736 700.6833,-129 697.8069,-128.6799 694.8629,-128.3317 691.892,-127.964"/>
<polygon fill="#191970" stroke="#191970" points="1234.8919,-175.5755 1245.0793,-172.6657 1235.3008,-168.5874 1234.8919,-175.5755"/>
</g>
<!-- Node12 -->
<g id="node12" class="node">
<title>Node12</title>
<g id="a_node12"><a xlink:href="_s_l_curve_bezier_8cpp.html" target="_top" xlink:title=" ">
<polygon fill="#ffffff" stroke="#000000" points="709.8805,-110.5 709.8805,-128.5 811.486,-128.5 811.486,-110.5 709.8805,-110.5"/>
<text text-anchor="middle" x="760.6833" y="-116.5" font-family="Arial.ttf" font-size="10.00" fill="#000000">SLCurveBezier.cpp</text>
</a>
</g>
</g>
<!-- Node4&#45;&gt;Node12 -->
<g id="edge13" class="edge">
<title>Node4&#45;&gt;Node12</title>
<path fill="none" stroke="#191970" d="M1234.9024,-171.0714C1153.8956,-164.395 972.6129,-148.5744 820.6833,-129 817.7545,-128.6227 814.7486,-128.2142 811.7175,-127.786"/>
<polygon fill="#191970" stroke="#191970" points="1234.943,-174.5864 1245.1954,-171.9149 1235.5147,-167.6097 1234.943,-174.5864"/>
</g>
<!-- Node13 -->
<g id="node13" class="node">
<title>Node13</title>
<g id="a_node13"><a xlink:href="_s_l_application_8cpp.html" target="_top" xlink:title=" ">
<polygon fill="#ffffff" stroke="#000000" points="829.6564,-110.5 829.6564,-128.5 925.7101,-128.5 925.7101,-110.5 829.6564,-110.5"/>
<text text-anchor="middle" x="877.6833" y="-116.5" font-family="Arial.ttf" font-size="10.00" fill="#000000">SLApplication.cpp</text>
</a>
</g>
</g>
<!-- Node4&#45;&gt;Node13 -->
<g id="edge14" class="edge">
<title>Node4&#45;&gt;Node13</title>
<path fill="none" stroke="#191970" d="M1234.7341,-169.2684C1169.7157,-161.2433 1042.452,-145.1241 934.6833,-129 931.8059,-128.5695 928.849,-128.1146 925.8675,-127.6464"/>
<polygon fill="#191970" stroke="#191970" points="1234.6474,-172.784 1245.0001,-170.532 1235.5026,-165.8365 1234.6474,-172.784"/>
</g>
<!-- Node14 -->
<g id="node14" class="node">
<title>Node14</title>
<g id="a_node14"><a xlink:href="_s_l_assimp_importer_8cpp.html" target="_top" xlink:title=" ">
<polygon fill="#ffffff" stroke="#000000" points="943.383,-110.5 943.383,-128.5 1059.9836,-128.5 1059.9836,-110.5 943.383,-110.5"/>
<text text-anchor="middle" x="1001.6833" y="-116.5" font-family="Arial.ttf" font-size="10.00" fill="#000000">SLAssimpImporter.cpp</text>
</a>
</g>
</g>
<!-- Node4&#45;&gt;Node14 -->
<g id="edge15" class="edge">
<title>Node4&#45;&gt;Node14</title>
<path fill="none" stroke="#191970" d="M1235.2053,-166.0352C1184.3481,-155.9006 1099.5131,-138.9951 1047.3026,-128.5908"/>
<polygon fill="#191970" stroke="#191970" points="1234.7198,-169.5072 1245.211,-168.0291 1236.0878,-162.6422 1234.7198,-169.5072"/>
</g>
<!-- Node15 -->
<g id="node15" class="node">
<title>Node15</title>
<g id="a_node15"><a xlink:href="_s_l_interface_8cpp.html" target="_top" xlink:title=" ">
<polygon fill="#ffffff" stroke="#000000" points="358.6613,-55.5 358.6613,-73.5 444.7053,-73.5 444.7053,-55.5 358.6613,-55.5"/>
<text text-anchor="middle" x="401.6833" y="-61.5" font-family="Arial.ttf" font-size="10.00" fill="#000000">SLInterface.cpp</text>
</a>
</g>
</g>
<!-- Node4&#45;&gt;Node15 -->
<g id="edge16" class="edge">
<title>Node4&#45;&gt;Node15</title>
<path fill="none" stroke="#191970" d="M1234.8169,-166.7885C1198.5261,-159.4717 1145.5614,-146.9181 1101.6833,-129 1086.0154,-122.6018 1084.8984,-114.8465 1068.6833,-110 937.5162,-70.7957 589.6062,-90.3322 453.6833,-74 450.7676,-73.6497 447.7683,-73.2385 444.7518,-72.7871"/>
<polygon fill="#191970" stroke="#191970" points="1234.5641,-170.3058 1245.0517,-168.8023 1235.9156,-163.4375 1234.5641,-170.3058"/>
</g>
<!-- Node16 -->
<g id="node16" class="node">
<title>Node16</title>
<g id="a_node16"><a xlink:href="_s_l_tex_font_8cpp.html" target="_top" xlink:title=" ">
<polygon fill="#ffffff" stroke="#000000" points="1447.6999,-110.5 1447.6999,-128.5 1529.6667,-128.5 1529.6667,-110.5 1447.6999,-110.5"/>
<text text-anchor="middle" x="1488.6833" y="-116.5" font-family="Arial.ttf" font-size="10.00" fill="#000000">SLTexFont.cpp</text>
</a>
</g>
</g>
<!-- Node4&#45;&gt;Node16 -->
<g id="edge17" class="edge">
<title>Node4&#45;&gt;Node16</title>
<path fill="none" stroke="#191970" d="M1320.0233,-163.4635C1359.3963,-153.2004 1417.3434,-138.0957 1454.0339,-128.5318"/>
<polygon fill="#191970" stroke="#191970" points="1318.9834,-160.1175 1310.1896,-166.0268 1320.7491,-166.8912 1318.9834,-160.1175"/>
</g>
<!-- Node17 -->
<g id="node17" class="node">
<title>Node17</title>
<g id="a_node17"><a xlink:href="_s_l_a_a_b_box_8cpp.html" target="_top" xlink:title=" ">
<polygon fill="#ffffff" stroke="#000000" points="1547.4963,-110.5 1547.4963,-128.5 1631.8703,-128.5 1631.8703,-110.5 1547.4963,-110.5"/>
<text text-anchor="middle" x="1589.6833" y="-116.5" font-family="Arial.ttf" font-size="10.00" fill="#000000">SLAABBox.cpp</text>
</a>
</g>
</g>
<!-- Node4&#45;&gt;Node17 -->
<g id="edge18" class="edge">
<title>Node4&#45;&gt;Node17</title>
<path fill="none" stroke="#191970" d="M1320.3858,-167.2117C1372.095,-158.3501 1461.8207,-142.858 1538.6833,-129 1541.5196,-128.4886 1544.4438,-127.9566 1547.3894,-127.4172"/>
<polygon fill="#191970" stroke="#191970" points="1319.5223,-163.8085 1310.2565,-168.9461 1320.7037,-170.7081 1319.5223,-163.8085"/>
</g>
<!-- Node18 -->
<g id="node18" class="node">
<title>Node18</title>
<g id="a_node18"><a xlink:href="_s_l_animation_8cpp.html" target="_top" xlink:title=" ">
<polygon fill="#ffffff" stroke="#000000" points="1649.883,-110.5 1649.883,-128.5 1741.4836,-128.5 1741.4836,-110.5 1649.883,-110.5"/>
<text text-anchor="middle" x="1695.6833" y="-116.5" font-family="Arial.ttf" font-size="10.00" fill="#000000">SLAnimation.cpp</text>
</a>
</g>
</g>
<!-- Node4&#45;&gt;Node18 -->
<g id="edge19" class="edge">
<title>Node4&#45;&gt;Node18</title>
<path fill="none" stroke="#191970" d="M1320.6049,-169.7724C1388.6228,-162.1337 1525.2978,-146.1871 1640.6833,-129 1643.6544,-128.5574 1646.7125,-128.0828 1649.7928,-127.5902"/>
<polygon fill="#191970" stroke="#191970" points="1319.8407,-166.3359 1310.2917,-170.9259 1320.6188,-173.2925 1319.8407,-166.3359"/>
</g>
<!-- Node19 -->
<g id="node19" class="node">
<title>Node19</title>
<g id="a_node19"><a xlink:href="_s_l_anim_manager_8cpp.html" target="_top" xlink:title=" ">
<polygon fill="#ffffff" stroke="#000000" points="1759.2648,-110.5 1759.2648,-128.5 1868.1017,-128.5 1868.1017,-110.5 1759.2648,-110.5"/>
<text text-anchor="middle" x="1813.6833" y="-116.5" font-family="Arial.ttf" font-size="10.00" fill="#000000">SLAnimManager.cpp</text>
</a>
</g>
</g>
<!-- Node4&#45;&gt;Node19 -->
<g id="edge20" class="edge">
<title>Node4&#45;&gt;Node19</title>
<path fill="none" stroke="#191970" d="M1320.1987,-171.1816C1403.1375,-164.5374 1592.2735,-148.5483 1750.6833,-129 1753.4278,-128.6613 1756.237,-128.2982 1759.0722,-127.9186"/>
<polygon fill="#191970" stroke="#191970" points="1319.8406,-167.6989 1310.1503,-171.9824 1320.3968,-174.6768 1319.8406,-167.6989"/>
</g>
<!-- Node20 -->
<g id="node20" class="node">
<title>Node20</title>
<g id="a_node20"><a xlink:href="_s_l_background_8cpp.html" target="_top" xlink:title=" ">
<polygon fill="#ffffff" stroke="#000000" points="1886.4323,-110.5 1886.4323,-128.5 1986.9343,-128.5 1986.9343,-110.5 1886.4323,-110.5"/>
<text text-anchor="middle" x="1936.6833" y="-116.5" font-family="Arial.ttf" font-size="10.00" fill="#000000">SLBackground.cpp</text>
</a>
</g>
</g>
<!-- Node4&#45;&gt;Node20 -->
<g id="edge21" class="edge">
<title>Node4&#45;&gt;Node20</title>
<path fill="none" stroke="#191970" d="M1320.3756,-172.4505C1418.7316,-167.4683 1668.7978,-153.3124 1876.6833,-129 1879.8258,-128.6325 1883.0558,-128.2206 1886.3095,-127.7799"/>
<polygon fill="#191970" stroke="#191970" points="1320.05,-168.9624 1310.2378,-172.9587 1320.4005,-175.9536 1320.05,-168.9624"/>
</g>
<!-- Node21 -->
<g id="node21" class="node">
<title>Node21</title>
<g id="a_node21"><a xlink:href="_s_l_input_manager_8cpp.html" target="_top" xlink:title=" ">
<polygon fill="#ffffff" stroke="#000000" points="462.5358,-55.5 462.5358,-73.5 570.8307,-73.5 570.8307,-55.5 462.5358,-55.5"/>
<text text-anchor="middle" x="516.6833" y="-61.5" font-family="Arial.ttf" font-size="10.00" fill="#000000">SLInputManager.cpp</text>
</a>
</g>
</g>
<!-- Node4&#45;&gt;Node21 -->
<g id="edge22" class="edge">
<title>Node4&#45;&gt;Node21</title>
<path fill="none" stroke="#191970" d="M1236.2139,-162.5497C1208.511,-154.1485 1171.4637,-142.1032 1139.6833,-129 1122.2265,-121.8025 1119.9,-114.9695 1101.6833,-110 877.7582,-48.9137 811.4342,-99.0593 580.6833,-74 577.5565,-73.6604 574.348,-73.2815 571.1132,-72.8759"/>
<polygon fill="#191970" stroke="#191970" points="1235.3864,-165.9555 1245.9704,-165.4752 1237.397,-159.2504 1235.3864,-165.9555"/>
</g>
<!-- Node22 -->
<g id="node22" class="node">
<title>Node22</title>
<g id="a_node22"><a xlink:href="_s_l_light_direct_8cpp.html" target="_top" xlink:title=" ">
<polygon fill="#ffffff" stroke="#000000" points="589.218,-55.5 589.218,-73.5 684.1486,-73.5 684.1486,-55.5 589.218,-55.5"/>
<text text-anchor="middle" x="636.6833" y="-61.5" font-family="Arial.ttf" font-size="10.00" fill="#000000">SLLightDirect.cpp</text>
</a>
</g>
</g>
<!-- Node4&#45;&gt;Node22 -->
<g id="edge23" class="edge">
<title>Node4&#45;&gt;Node22</title>
<path fill="none" stroke="#191970" d="M1248.0777,-161.3716C1228.1053,-152.4312 1201.2039,-140.2265 1177.6833,-129 1160.6425,-120.8664 1157.8714,-115.073 1139.6833,-110 947.7012,-56.4526 890.4579,-98.6913 692.6833,-74 689.9434,-73.6579 687.133,-73.2771 684.3002,-72.8699"/>
<polygon fill="#191970" stroke="#191970" points="1246.7223,-164.5994 1257.2805,-165.4796 1249.5757,-158.2073 1246.7223,-164.5994"/>
</g>
<!-- Node23 -->
<g id="node23" class="node">
<title>Node23</title>
<g id="a_node23"><a xlink:href="_s_l_light_rect_8cpp.html" target="_top" xlink:title=" ">
<polygon fill="#ffffff" stroke="#000000" points="701.9938,-55.5 701.9938,-73.5 791.3727,-73.5 791.3727,-55.5 701.9938,-55.5"/>
<text text-anchor="middle" x="746.6833" y="-61.5" font-family="Arial.ttf" font-size="10.00" fill="#000000">SLLightRect.cpp</text>
</a>
</g>
</g>
<!-- Node4&#45;&gt;Node23 -->
<g id="edge24" class="edge">
<title>Node4&#45;&gt;Node23</title>
<path fill="none" stroke="#191970" d="M1257.0729,-159.535C1232.9776,-142.344 1194.2844,-115.7588 1177.6833,-110 1018.2436,-54.6919 966.8816,-96.9069 799.6833,-74 796.9974,-73.632 794.24,-73.2255 791.4616,-72.7939"/>
<polygon fill="#191970" stroke="#191970" points="1255.0576,-162.3968 1265.2216,-165.3875 1259.1411,-156.7112 1255.0576,-162.3968"/>
</g>
<!-- Node24 -->
<g id="node24" class="node">
<title>Node24</title>
<g id="a_node24"><a xlink:href="_s_l_light_spot_8cpp.html" target="_top" xlink:title=" ">
<polygon fill="#ffffff" stroke="#000000" points="808.9889,-55.5 808.9889,-73.5 898.3776,-73.5 898.3776,-55.5 808.9889,-55.5"/>
<text text-anchor="middle" x="853.6833" y="-61.5" font-family="Arial.ttf" font-size="10.00" fill="#000000">SLLightSpot.cpp</text>
</a>
</g>
</g>
<!-- Node4&#45;&gt;Node24 -->
<g id="edge25" class="edge">
<title>Node4&#45;&gt;Node24</title>
<path fill="none" stroke="#191970" d="M1265.8528,-156.5214C1254.8126,-141.3671 1236.8846,-120.5192 1215.6833,-110 1091.8281,-48.5481 1043.461,-94.2066 906.6833,-74 904.0015,-73.6038 901.2471,-73.1755 898.4711,-72.7273"/>
<polygon fill="#191970" stroke="#191970" points="1263.221,-158.8672 1271.8044,-165.0781 1268.9676,-154.8701 1263.221,-158.8672"/>
</g>
<!-- Node25 -->
<g id="node25" class="node">
<title>Node25</title>
<g id="a_node25"><a xlink:href="_s_l_scene_8cpp.html" target="_top" xlink:title=" ">
<polygon fill="#ffffff" stroke="#000000" points="915.9396,-55.5 915.9396,-73.5 991.4269,-73.5 991.4269,-55.5 915.9396,-55.5"/>
<text text-anchor="middle" x="953.6833" y="-61.5" font-family="Arial.ttf" font-size="10.00" fill="#000000">SLScene.cpp</text>
</a>
</g>
</g>
<!-- Node4&#45;&gt;Node25 -->
<g id="edge26" class="edge">
<title>Node4&#45;&gt;Node25</title>
<path fill="none" stroke="#191970" d="M1275.7559,-155.2564C1273.2156,-140.5481 1267.3278,-120.9879 1253.6833,-110 1209.4533,-74.3819 1056.6494,-83.6296 1000.6833,-74 997.7298,-73.4918 994.6775,-72.9387 991.6126,-72.3633"/>
<polygon fill="#191970" stroke="#191970" points="1272.3104,-155.8952 1277.1191,-165.3359 1279.2472,-154.957 1272.3104,-155.8952"/>
</g>
<!-- Node26 -->
<g id="node26" class="node">
<title>Node26</title>
<g id="a_node26"><a xlink:href="_s_l_skeleton_8cpp.html" target="_top" xlink:title=" ">
<polygon fill="#ffffff" stroke="#000000" points="1009.6589,-55.5 1009.6589,-73.5 1095.7077,-73.5 1095.7077,-55.5 1009.6589,-55.5"/>
<text text-anchor="middle" x="1052.6833" y="-61.5" font-family="Arial.ttf" font-size="10.00" fill="#000000">SLSkeleton.cpp</text>
</a>
</g>
</g>
<!-- Node4&#45;&gt;Node26 -->
<g id="edge27" class="edge">
<title>Node4&#45;&gt;Node26</title>
<path fill="none" stroke="#191970" d="M1288.8476,-156.6871C1296.1378,-142.5484 1302.4865,-123.054 1291.6833,-110 1290.8985,-109.0518 1164.4115,-85.3367 1095.7909,-72.53"/>
<polygon fill="#191970" stroke="#191970" points="1285.7511,-155.0521 1283.8494,-165.4749 1291.8357,-158.5129 1285.7511,-155.0521"/>
</g>
<!-- Node27 -->
<g id="node27" class="node">
<title>Node27</title>
<g id="a_node27"><a xlink:href="_s_l_text_8cpp.html" target="_top" xlink:title=" ">
<polygon fill="#ffffff" stroke="#000000" points="2005.3156,-110.5 2005.3156,-128.5 2070.051,-128.5 2070.051,-110.5 2005.3156,-110.5"/>
<text text-anchor="middle" x="2037.6833" y="-116.5" font-family="Arial.ttf" font-size="10.00" fill="#000000">SLText.cpp</text>
</a>
</g>
</g>
<!-- Node4&#45;&gt;Node27 -->
<g id="edge28" class="edge">
<title>Node4&#45;&gt;Node27</title>
<path fill="none" stroke="#191970" d="M1320.5393,-172.6817C1454.466,-166.858 1864.028,-147.9382 1995.6833,-129 1998.7912,-128.5529 2002.0098,-127.9969 2005.2191,-127.3796"/>
<polygon fill="#191970" stroke="#191970" points="1320.1154,-169.1967 1310.276,-173.1258 1320.418,-176.1901 1320.1154,-169.1967"/>
</g>
<!-- Node28 -->
<g id="node28" class="node">
<title>Node28</title>
<g id="a_node28"><a xlink:href="_s_l_transfer_function_8cpp.html" target="_top" xlink:title=" ">
<polygon fill="#ffffff" stroke="#000000" points="2087.8757,-110.5 2087.8757,-128.5 2209.4909,-128.5 2209.4909,-110.5 2087.8757,-110.5"/>
<text text-anchor="middle" x="2148.6833" y="-116.5" font-family="Arial.ttf" font-size="10.00" fill="#000000">SLTransferFunction.cpp</text>
</a>
</g>
</g>
<!-- Node4&#45;&gt;Node28 -->
<g id="edge29" class="edge">
<title>Node4&#45;&gt;Node28</title>
<path fill="none" stroke="#191970" d="M1320.3939,-173.2493C1440.216,-169.487 1789.6602,-156.7783 2078.6833,-129 2081.6132,-128.7184 2084.609,-128.4061 2087.6325,-128.0714"/>
<polygon fill="#191970" stroke="#191970" points="1320.0671,-169.7576 1310.1803,-173.5656 1320.2839,-176.7543 1320.0671,-169.7576"/>
</g>
<!-- Node29 -->
<g id="node29" class="node">
<title>Node29</title>
<g id="a_node29"><a xlink:href="_s_l_scene_view_8h.html" target="_top" xlink:title=" ">
<polygon fill="#ffffff" stroke="#000000" points="1343.7443,-110.5 1343.7443,-128.5 1429.6222,-128.5 1429.6222,-110.5 1343.7443,-110.5"/>
<text text-anchor="middle" x="1386.6833" y="-116.5" font-family="Arial.ttf" font-size="10.00" fill="#000000">SLSceneView.h</text>
</a>
</g>
</g>
<!-- Node4&#45;&gt;Node29 -->
<g id="edge31" class="edge">
<title>Node4&#45;&gt;Node29</title>
<path fill="none" stroke="#191970" d="M1304.868,-160.7829C1324.7948,-150.7282 1351.2921,-137.3579 1368.6574,-128.5956"/>
<polygon fill="#191970" stroke="#191970" points="1303.0335,-157.7882 1295.6824,-165.4179 1306.187,-164.0377 1303.0335,-157.7882"/>
</g>
<!-- Node44 -->
<g id="node44" class="node">
<title>Node44</title>
<g id="a_node44"><a xlink:href="_app_demo_gui_8cpp.html" target="_top" xlink:title=" ">
<polygon fill="#ffffff" stroke="#000000" points="2612.218,-55.5 2612.218,-73.5 2707.1486,-73.5 2707.1486,-55.5 2612.218,-55.5"/>
<text text-anchor="middle" x="2659.6833" y="-61.5" font-family="Arial.ttf" font-size="10.00" fill="#000000">AppDemoGui.cpp</text>
</a>
</g>
</g>
<!-- Node4&#45;&gt;Node44 -->
<g id="edge57" class="edge">
<title>Node4&#45;&gt;Node44</title>
<path fill="none" stroke="#191970" d="M1320.4572,-173.4711C1492.7996,-169.1842 2131.2139,-151.8928 2218.6833,-129 2236.9504,-124.2191 2238.5555,-115.2846 2256.6833,-110 2405.1127,-66.7296 2449.4699,-94.7185 2602.6833,-74 2605.7653,-73.5832 2608.9366,-73.1281 2612.1306,-72.65"/>
<polygon fill="#191970" stroke="#191970" points="1320.1648,-169.9772 1310.2544,-173.7232 1320.3378,-176.9751 1320.1648,-169.9772"/>
</g>
<!-- Node45 -->
<g id="node45" class="node">
<title>Node45</title>
<g id="a_node45"><a xlink:href="_app_demo_load_8cpp.html" target="_top" xlink:title=" ">
<polygon fill="#ffffff" stroke="#000000" points="2724.8757,-55.5 2724.8757,-73.5 2826.4909,-73.5 2826.4909,-55.5 2724.8757,-55.5"/>
<text text-anchor="middle" x="2775.6833" y="-61.5" font-family="Arial.ttf" font-size="10.00" fill="#000000">AppDemoLoad.cpp</text>
</a>
</g>
</g>
<!-- Node4&#45;&gt;Node45 -->
<g id="edge58" class="edge">
<title>Node4&#45;&gt;Node45</title>
<path fill="none" stroke="#191970" d="M1320.4009,-173.7667C1508.8002,-170.3897 2260.6208,-155.3632 2362.6833,-129 2380.9656,-124.2776 2382.5825,-115.3763 2400.6833,-110 2535.7622,-69.879 2576.0619,-93.0227 2715.6833,-74 2718.6093,-73.6014 2721.6129,-73.1763 2724.6423,-72.7353"/>
<polygon fill="#191970" stroke="#191970" points="1320.2641,-170.2685 1310.3279,-173.9458 1320.3885,-177.2674 1320.2641,-170.2685"/>
</g>
<!-- Node46 -->
<g id="node46" class="node">
<title>Node46</title>
<g id="a_node46"><a xlink:href="_app_demo_video_8cpp.html" target="_top" xlink:title=" ">
<polygon fill="#ffffff" stroke="#000000" points="2844.2985,-55.5 2844.2985,-73.5 2949.068,-73.5 2949.068,-55.5 2844.2985,-55.5"/>
<text text-anchor="middle" x="2896.6833" y="-61.5" font-family="Arial.ttf" font-size="10.00" fill="#000000">AppDemoVideo.cpp</text>
</a>
</g>
</g>
<!-- Node4&#45;&gt;Node46 -->
<g id="edge59" class="edge">
<title>Node4&#45;&gt;Node46</title>
<path fill="none" stroke="#191970" d="M1320.2359,-174.0162C1525.0488,-171.5434 2404.3091,-159.2371 2522.6833,-129 2540.9782,-124.3268 2542.6271,-115.5243 2560.6833,-110 2678.5549,-73.9369 2713.6647,-91.4855 2835.6833,-74 2838.4418,-73.6047 2841.2691,-73.1917 2844.123,-72.7687"/>
<polygon fill="#191970" stroke="#191970" points="1320.1294,-170.5171 1310.1719,-174.1363 1320.213,-177.5166 1320.1294,-170.5171"/>
</g>
<!-- Node29&#45;&gt;Node15 -->
<g id="edge32" class="edge">
<title>Node29&#45;&gt;Node15</title>
<path fill="none" stroke="#191970" d="M1333.5119,-117.8318C1162.2352,-112.3128 626.0691,-93.8623 453.6833,-74 450.7659,-73.6639 447.7653,-73.2633 444.748,-72.8197"/>
<polygon fill="#191970" stroke="#191970" points="1333.4384,-121.3312 1343.5456,-118.1538 1333.663,-114.3348 1333.4384,-121.3312"/>
</g>
<!-- Node29&#45;&gt;Node21 -->
<g id="edge36" class="edge">
<title>Node29&#45;&gt;Node21</title>
<path fill="none" stroke="#191970" d="M1333.3404,-117.1244C1177.9608,-110.1037 727.456,-89.0047 580.6833,-74 577.5544,-73.6801 574.3443,-73.3166 571.1083,-72.9227"/>
<polygon fill="#191970" stroke="#191970" points="1333.4287,-120.6319 1343.5762,-117.5858 1333.744,-113.639 1333.4287,-120.6319"/>
</g>
<!-- Node29&#45;&gt;Node22 -->
<g id="edge38" class="edge">
<title>Node29&#45;&gt;Node22</title>
<path fill="none" stroke="#191970" d="M1333.4248,-116.7184C1193.3114,-109.2867 816.6979,-88.5456 692.6833,-74 689.941,-73.6784 687.1286,-73.3134 684.2943,-72.9185"/>
<polygon fill="#191970" stroke="#191970" points="1333.3209,-120.2177 1343.4919,-117.251 1333.6908,-113.2275 1333.3209,-120.2177"/>
</g>
<!-- Node29&#45;&gt;Node23 -->
<g id="edge39" class="edge">
<title>Node29&#45;&gt;Node23</title>
<path fill="none" stroke="#191970" d="M1333.5931,-116.0687C1209.3097,-107.9254 902.2431,-87.1331 799.6833,-74 796.9943,-73.6557 794.2344,-73.2674 791.4542,-72.8497"/>
<polygon fill="#191970" stroke="#191970" points="1333.4258,-119.5652 1343.6328,-116.7251 1333.8825,-112.5801 1333.4258,-119.5652"/>
</g>
<!-- Node29&#45;&gt;Node24 -->
<g id="edge40" class="edge">
<title>Node29&#45;&gt;Node24</title>
<path fill="none" stroke="#191970" d="M1333.4313,-115.9006C1244.6893,-109.5781 1061.0499,-95.1141 906.6833,-74 903.9974,-73.6326 901.2398,-73.2266 898.4614,-72.7953"/>
<polygon fill="#191970" stroke="#191970" points="1333.2964,-119.3997 1343.5182,-116.6132 1333.7898,-112.4171 1333.2964,-119.3997"/>
</g>
<!-- Node29&#45;&gt;Node25 -->
<g id="edge47" class="edge">
<title>Node29&#45;&gt;Node25</title>
<path fill="none" stroke="#191970" d="M1333.4056,-113.7682C1243.0556,-103.956 1063.4804,-84.0303 1000.6833,-74 997.7239,-73.5273 994.6674,-72.9997 991.5996,-72.442"/>
<polygon fill="#191970" stroke="#191970" points="1333.1234,-117.258 1343.4424,-114.8565 1333.878,-110.2988 1333.1234,-117.258"/>
</g>
<!-- Node29&#45;&gt;Node26 -->
<g id="edge49" class="edge">
<title>Node29&#45;&gt;Node26</title>
<path fill="none" stroke="#191970" d="M1333.5696,-110.6362C1332.2613,-110.4216 1330.9642,-110.2092 1329.6833,-110 1229.7358,-93.6754 1204.5009,-91.1012 1104.6833,-74 1101.7888,-73.5041 1098.8054,-72.9837 1095.8005,-72.4528"/>
<polygon fill="#191970" stroke="#191970" points="1333.3014,-114.1391 1343.7375,-112.3117 1334.4396,-107.2322 1333.3014,-114.1391"/>
</g>
<!-- Node30 -->
<g id="node30" class="node">
<title>Node30</title>
<g id="a_node30"><a xlink:href="_s_l_skybox_8cpp.html" target="_top" xlink:title=" ">
<polygon fill="#ffffff" stroke="#000000" points="2056.7204,-55.5 2056.7204,-73.5 2136.6462,-73.5 2136.6462,-55.5 2056.7204,-55.5"/>
<text text-anchor="middle" x="2096.6833" y="-61.5" font-family="Arial.ttf" font-size="10.00" fill="#000000">SLSkybox.cpp</text>
</a>
</g>
</g>
<!-- Node29&#45;&gt;Node30 -->
<g id="edge33" class="edge">
<title>Node29&#45;&gt;Node30</title>
<path fill="none" stroke="#191970" d="M1439.8454,-110.0113C1709.6346,-78.306 1781.9528,-107.4641 2047.6833,-74 2050.6064,-73.6319 2053.6174,-73.194 2056.6414,-72.7113"/>
<polygon fill="#191970" stroke="#191970" points="1439.2673,-106.5553 1429.7521,-111.2148 1440.0962,-113.5061 1439.2673,-106.5553"/>
</g>
<!-- Node31 -->
<g id="node31" class="node">
<title>Node31</title>
<g id="a_node31"><a xlink:href="_s_l_anim_track_8cpp.html" target="_top" xlink:title=" ">
<polygon fill="#ffffff" stroke="#000000" points="2154.4084,-55.5 2154.4084,-73.5 2248.9582,-73.5 2248.9582,-55.5 2154.4084,-55.5"/>
<text text-anchor="middle" x="2201.6833" y="-61.5" font-family="Arial.ttf" font-size="10.00" fill="#000000">SLAnimTrack.cpp</text>
</a>
</g>
</g>
<!-- Node29&#45;&gt;Node31 -->
<g id="edge34" class="edge">
<title>Node29&#45;&gt;Node31</title>
<path fill="none" stroke="#191970" d="M1440.0259,-110.0026C1752.9885,-74.3892 1836.2965,-108.0011 2145.6833,-74 2148.5259,-73.6876 2151.4431,-73.3241 2154.3815,-72.925"/>
<polygon fill="#191970" stroke="#191970" points="1439.2821,-106.5651 1429.7488,-111.1875 1440.0839,-113.5191 1439.2821,-106.5651"/>
</g>
<!-- Node32 -->
<g id="node32" class="node">
<title>Node32</title>
<g id="a_node32"><a xlink:href="_s_l_camera_8cpp.html" target="_top" xlink:title=" ">
<polygon fill="#ffffff" stroke="#000000" points="2267.3337,-55.5 2267.3337,-73.5 2350.0329,-73.5 2350.0329,-55.5 2267.3337,-55.5"/>
<text text-anchor="middle" x="2308.6833" y="-61.5" font-family="Arial.ttf" font-size="10.00" fill="#000000">SLCamera.cpp</text>
</a>
</g>
</g>
<!-- Node29&#45;&gt;Node32 -->
<g id="edge35" class="edge">
<title>Node29&#45;&gt;Node32</title>
<path fill="none" stroke="#191970" d="M1439.7328,-110.0475C1802.4765,-69.9936 1898.9686,-115.0882 2257.6833,-74 2260.8151,-73.6413 2264.0438,-73.2031 2267.2844,-72.7138"/>
<polygon fill="#191970" stroke="#191970" points="1439.2953,-106.5745 1429.7462,-111.1642 1440.0732,-113.5312 1439.2953,-106.5745"/>
</g>
<!-- Node33 -->
<g id="node33" class="node">
<title>Node33</title>
<g id="a_node33"><a xlink:href="_s_l_keyframe_camera_8cpp.html" target="_top" xlink:title=" ">
<polygon fill="#ffffff" stroke="#000000" points="2367.9372,-55.5 2367.9372,-73.5 2493.4294,-73.5 2493.4294,-55.5 2367.9372,-55.5"/>
<text text-anchor="middle" x="2430.6833" y="-61.5" font-family="Arial.ttf" font-size="10.00" fill="#000000">SLKeyframeCamera.cpp</text>
</a>
</g>
</g>
<!-- Node29&#45;&gt;Node33 -->
<g id="edge37" class="edge">
<title>Node29&#45;&gt;Node33</title>
<path fill="none" stroke="#191970" d="M1439.731,-110.0529C1847.1365,-65.816 1954.2488,-108.5205 2358.6833,-74 2361.6983,-73.7427 2364.7809,-73.4501 2367.8917,-73.1311"/>
<polygon fill="#191970" stroke="#191970" points="1439.3032,-106.5787 1429.7444,-111.148 1440.0663,-113.537 1439.3032,-106.5787"/>
</g>
<!-- Node34 -->
<g id="node34" class="node">
<title>Node34</title>
<g id="a_node34"><a xlink:href="_s_l_material_8cpp.html" target="_top" xlink:title=" ">
<polygon fill="#ffffff" stroke="#000000" points="2511.3337,-55.5 2511.3337,-73.5 2594.0329,-73.5 2594.0329,-55.5 2511.3337,-55.5"/>
<text text-anchor="middle" x="2552.6833" y="-61.5" font-family="Arial.ttf" font-size="10.00" fill="#000000">SLMaterial.cpp</text>
</a>
</g>
</g>
<!-- Node29&#45;&gt;Node34 -->
<g id="edge41" class="edge">
<title>Node29&#45;&gt;Node34</title>
<path fill="none" stroke="#191970" d="M1439.8713,-110.0482C1910.8869,-60.2882 2035.7543,-125.9446 2502.6833,-74 2505.4934,-73.6874 2508.3823,-73.3045 2511.2863,-72.8737"/>
<polygon fill="#191970" stroke="#191970" points="1439.314,-106.5877 1429.7424,-111.1303 1440.0577,-113.5481 1439.314,-106.5877"/>
</g>
<!-- Node35 -->
<g id="node35" class="node">
<title>Node35</title>
<g id="a_node35"><a xlink:href="_s_l_mesh_8cpp.html" target="_top" xlink:title=" ">
<polygon fill="#ffffff" stroke="#000000" points="1113.8903,-55.5 1113.8903,-73.5 1185.4763,-73.5 1185.4763,-55.5 1113.8903,-55.5"/>
<text text-anchor="middle" x="1149.6833" y="-61.5" font-family="Arial.ttf" font-size="10.00" fill="#000000">SLMesh.cpp</text>
</a>
</g>
</g>
<!-- Node29&#45;&gt;Node35 -->
<g id="edge42" class="edge">
<title>Node29&#45;&gt;Node35</title>
<path fill="none" stroke="#191970" d="M1337.9383,-108.1879C1292.7376,-97.6983 1226.5118,-82.3294 1185.8527,-72.8938"/>
<polygon fill="#191970" stroke="#191970" points="1337.2806,-111.6282 1347.8129,-110.4795 1338.863,-104.8094 1337.2806,-111.6282"/>
</g>
<!-- Node36 -->
<g id="node36" class="node">
<title>Node36</title>
<g id="a_node36"><a xlink:href="_s_l_node_8cpp.html" target="_top" xlink:title=" ">
<polygon fill="#ffffff" stroke="#000000" points="1203.1638,-55.5 1203.1638,-73.5 1274.2028,-73.5 1274.2028,-55.5 1203.1638,-55.5"/>
<text text-anchor="middle" x="1238.6833" y="-61.5" font-family="Arial.ttf" font-size="10.00" fill="#000000">SLNode.cpp</text>
</a>
</g>
</g>
<!-- Node29&#45;&gt;Node36 -->
<g id="edge43" class="edge">
<title>Node29&#45;&gt;Node36</title>
<path fill="none" stroke="#191970" d="M1352.6871,-106.8663C1325.3484,-96.7066 1287.5947,-82.6765 1263.1588,-73.5956"/>
<polygon fill="#191970" stroke="#191970" points="1351.6512,-110.2151 1362.2441,-110.4179 1354.0897,-103.6536 1351.6512,-110.2151"/>
</g>
<!-- Node37 -->
<g id="node37" class="node">
<title>Node37</title>
<g id="a_node37"><a xlink:href="_s_l_pathtracer_8cpp.html" target="_top" xlink:title=" ">
<polygon fill="#ffffff" stroke="#000000" points="1292.3239,-55.5 1292.3239,-73.5 1385.0427,-73.5 1385.0427,-55.5 1292.3239,-55.5"/>
<text text-anchor="middle" x="1338.6833" y="-61.5" font-family="Arial.ttf" font-size="10.00" fill="#000000">SLPathtracer.cpp</text>
</a>
</g>
</g>
<!-- Node29&#45;&gt;Node37 -->
<g id="edge44" class="edge">
<title>Node29&#45;&gt;Node37</title>
<path fill="none" stroke="#191970" d="M1372.0436,-102.7253C1363.7437,-93.215 1353.6727,-81.6754 1346.7817,-73.7795"/>
<polygon fill="#191970" stroke="#191970" points="1369.5447,-105.185 1378.7571,-110.4179 1374.8187,-100.5822 1369.5447,-105.185"/>
</g>
<!-- Node38 -->
<g id="node38" class="node">
<title>Node38</title>
<g id="a_node38"><a xlink:href="_s_l_ray_8cpp.html" target="_top" xlink:title=" ">
<polygon fill="#ffffff" stroke="#000000" points="1402.5939,-55.5 1402.5939,-73.5 1466.7726,-73.5 1466.7726,-55.5 1402.5939,-55.5"/>
<text text-anchor="middle" x="1434.6833" y="-61.5" font-family="Arial.ttf" font-size="10.00" fill="#000000">SLRay.cpp</text>
</a>
</g>
</g>
<!-- Node29&#45;&gt;Node38 -->
<g id="edge45" class="edge">
<title>Node29&#45;&gt;Node38</title>
<path fill="none" stroke="#191970" d="M1401.323,-102.7253C1409.6229,-93.215 1419.6938,-81.6754 1426.5848,-73.7795"/>
<polygon fill="#191970" stroke="#191970" points="1398.5479,-100.5822 1394.6095,-110.4179 1403.8219,-105.185 1398.5479,-100.5822"/>
</g>
<!-- Node39 -->
<g id="node39" class="node">
<title>Node39</title>
<g id="a_node39"><a xlink:href="_s_l_raytracer_8cpp.html" target="_top" xlink:title=" ">
<polygon fill="#ffffff" stroke="#000000" points="1484.718,-55.5 1484.718,-73.5 1574.6486,-73.5 1574.6486,-55.5 1484.718,-55.5"/>
<text text-anchor="middle" x="1529.6833" y="-61.5" font-family="Arial.ttf" font-size="10.00" fill="#000000">SLRaytracer.cpp</text>
</a>
</g>
</g>
<!-- Node29&#45;&gt;Node39 -->
<g id="edge46" class="edge">
<title>Node29&#45;&gt;Node39</title>
<path fill="none" stroke="#191970" d="M1419.8791,-106.7324C1446.2658,-96.5837 1482.5278,-82.6367 1506.0347,-73.5956"/>
<polygon fill="#191970" stroke="#191970" points="1418.3738,-103.5613 1410.2968,-110.4179 1420.8867,-110.0947 1418.3738,-103.5613"/>
</g>
<!-- Node40 -->
<g id="node40" class="node">
<title>Node40</title>
<g id="a_node40"><a xlink:href="_s_l_scene_view_8cpp.html" target="_top" xlink:title=" ">
<polygon fill="#ffffff" stroke="#000000" points="1592.4636,-55.5 1592.4636,-73.5 1688.903,-73.5 1688.903,-55.5 1592.4636,-55.5"/>
<text text-anchor="middle" x="1640.6833" y="-61.5" font-family="Arial.ttf" font-size="10.00" fill="#000000">SLSceneView.cpp</text>
</a>
</g>
</g>
<!-- Node29&#45;&gt;Node40 -->
<g id="edge48" class="edge">
<title>Node29&#45;&gt;Node40</title>
<path fill="none" stroke="#191970" d="M1438.4016,-108.3011C1485.7925,-98.0393 1555.0682,-83.0387 1599.002,-73.5255"/>
<polygon fill="#191970" stroke="#191970" points="1437.3746,-104.9423 1428.3418,-110.4795 1438.856,-111.7838 1437.3746,-104.9423"/>
</g>
<!-- Node41 -->
<g id="node41" class="node">
<title>Node41</title>
<g id="a_node41"><a xlink:href="_s_l_uniform_grid_8cpp.html" target="_top" xlink:title=" ">
<polygon fill="#ffffff" stroke="#000000" points="1707.1686,-55.5 1707.1686,-73.5 1808.1979,-73.5 1808.1979,-55.5 1707.1686,-55.5"/>
<text text-anchor="middle" x="1757.6833" y="-61.5" font-family="Arial.ttf" font-size="10.00" fill="#000000">SLUniformGrid.cpp</text>
</a>
</g>
</g>
<!-- Node29&#45;&gt;Node41 -->
<g id="edge50" class="edge">
<title>Node29&#45;&gt;Node41</title>
<path fill="none" stroke="#191970" d="M1439.7235,-109.8872C1555.0941,-91.5148 1585.872,-90.6209 1697.6833,-74 1700.7085,-73.5503 1703.8183,-73.0806 1706.9546,-72.6011"/>
<polygon fill="#191970" stroke="#191970" points="1439.1095,-106.4409 1429.7892,-111.4789 1440.217,-113.3527 1439.1095,-106.4409"/>
</g>
<!-- Node42 -->
<g id="node42" class="node">
<title>Node42</title>
<g id="a_node42"><a xlink:href="_s_l_button_8h.html" target="_top" xlink:title=" ">
<polygon fill="#ffffff" stroke="#000000" points="1825.9421,-55.5 1825.9421,-73.5 1891.4245,-73.5 1891.4245,-55.5 1825.9421,-55.5"/>
<text text-anchor="middle" x="1858.6833" y="-61.5" font-family="Arial.ttf" font-size="10.00" fill="#000000">SLButton.h</text>
</a>
</g>
</g>
<!-- Node29&#45;&gt;Node42 -->
<g id="edge51" class="edge">
<title>Node29&#45;&gt;Node42</title>
<path fill="none" stroke="#191970" d="M1439.7097,-109.9728C1608.0194,-87.3069 1653.8545,-100.6397 1817.6833,-74 1820.2796,-73.5778 1822.9564,-73.0865 1825.6399,-72.5539"/>
<polygon fill="#191970" stroke="#191970" points="1439.2003,-106.5098 1429.7675,-111.3341 1440.1499,-113.4451 1439.2003,-106.5098"/>
</g>
<!-- Node29&#45;&gt;Node44 -->
<g id="edge53" class="edge">
<title>Node29&#45;&gt;Node44</title>
<path fill="none" stroke="#191970" d="M1440.0458,-110.0337C1955.1554,-56.2463 2090.9831,-124.325 2602.6833,-74 2605.7784,-73.6956 2608.9597,-73.3256 2612.161,-72.9104"/>
<polygon fill="#191970" stroke="#191970" points="1439.3191,-106.5908 1429.7414,-111.1206 1440.0534,-113.5522 1439.3191,-106.5908"/>
</g>
<!-- Node29&#45;&gt;Node45 -->
<g id="edge54" class="edge">
<title>Node29&#45;&gt;Node45</title>
<path fill="none" stroke="#191970" d="M1439.78,-110.0653C2005.1071,-51.6905 2153.6477,-126.1976 2715.6833,-74 2718.6236,-73.7269 2721.6385,-73.3999 2724.6766,-73.0341"/>
<polygon fill="#191970" stroke="#191970" points="1439.3238,-106.5938 1429.7404,-111.1114 1440.0493,-113.5561 1439.3238,-106.5938"/>
</g>
<!-- Node29&#45;&gt;Node46 -->
<g id="edge55" class="edge">
<title>Node29&#45;&gt;Node46</title>
<path fill="none" stroke="#191970" d="M1439.7981,-110.0671C2058.2106,-46.8945 2220.4317,-129.6034 2835.6833,-74 2838.4586,-73.7492 2841.2995,-73.4513 2844.1638,-73.1185"/>
<polygon fill="#191970" stroke="#191970" points="1439.3282,-106.5969 1429.7396,-111.1033 1440.0456,-113.56 1439.3282,-106.5969"/>
</g>
<!-- Node47 -->
<g id="node47" class="node">
<title>Node47</title>
<g id="a_node47"><a xlink:href="_app_demo_main_g_l_f_w_8cpp.html" target="_top" xlink:title=" ">
<polygon fill="#ffffff" stroke="#000000" points="1908.9914,-55.5 1908.9914,-73.5 2038.3752,-73.5 2038.3752,-55.5 1908.9914,-55.5"/>
<text text-anchor="middle" x="1973.6833" y="-61.5" font-family="Arial.ttf" font-size="10.00" fill="#000000">AppDemoMainGLFW.cpp</text>
</a>
</g>
</g>
<!-- Node29&#45;&gt;Node47 -->
<g id="edge56" class="edge">
<title>Node29&#45;&gt;Node47</title>
<path fill="none" stroke="#191970" d="M1439.9406,-109.9633C1644.6662,-83.8308 1699.1324,-94.9531 1900.6833,-74 1903.3528,-73.7225 1906.0756,-73.4266 1908.8249,-73.1171"/>
<polygon fill="#191970" stroke="#191970" points="1439.2295,-106.5259 1429.7599,-111.2775 1440.1257,-113.4683 1439.2295,-106.5259"/>
</g>
<!-- Node43 -->
<g id="node43" class="node">
<title>Node43</title>
<g id="a_node43"><a xlink:href="_s_l_button_8cpp.html" target="_top" xlink:title=" ">
<polygon fill="#ffffff" stroke="#000000" points="1820.6613,-.5 1820.6613,-18.5 1896.7053,-18.5 1896.7053,-.5 1820.6613,-.5"/>
<text text-anchor="middle" x="1858.6833" y="-6.5" font-family="Arial.ttf" font-size="10.00" fill="#000000">SLButton.cpp</text>
</a>
</g>
</g>
<!-- Node42&#45;&gt;Node43 -->
<g id="edge52" class="edge">
<title>Node42&#45;&gt;Node43</title>
<path fill="none" stroke="#191970" d="M1858.6833,-45.383C1858.6833,-36.3738 1858.6833,-26.0373 1858.6833,-18.7795"/>
<polygon fill="#191970" stroke="#191970" points="1855.1834,-45.4178 1858.6833,-55.4179 1862.1834,-45.4179 1855.1834,-45.4178"/>
</g>
</g>
</svg>
