<?xml version="1.0" encoding="UTF-8" standalone="no"?>
<!DOCTYPE svg PUBLIC "-//W3C//DTD SVG 1.1//EN"
 "http://www.w3.org/Graphics/SVG/1.1/DTD/svg11.dtd">
<!-- Generated by graphviz version 2.28.0 (20110507.0327)
 -->
<!-- Title: SLUniformGrid.cpp Pages: 1 -->
<svg width="2600pt" height="812pt"
 viewBox="0.00 0.00 2600.06 812.00" xmlns="http://www.w3.org/2000/svg" xmlns:xlink="http://www.w3.org/1999/xlink">
<g id="graph1" class="graph" transform="scale(1 1) rotate(0) translate(4 808)">
<title>SLUniformGrid.cpp</title>
<polygon fill="white" stroke="white" points="-4,5 -4,-808 2597.06,-808 2597.06,5 -4,5"/>
<!-- Node1 -->
<g id="node1" class="node"><title>Node1</title>
<polygon fill="#bfbfbf" stroke="black" points="1207.56,-784.5 1207.56,-803.5 1314.56,-803.5 1314.56,-784.5 1207.56,-784.5"/>
<text text-anchor="middle" x="1261.06" y="-791.5" font-family="Arial.ttf" font-size="10.00">SLUniformGrid.cpp</text>
</g>
<!-- Node2 -->
<g id="node3" class="node"><title>Node2</title>
<polygon fill="white" stroke="#bfbfbf" points="1056.56,-0.5 1056.56,-19.5 1111.56,-19.5 1111.56,-0.5 1056.56,-0.5"/>
<text text-anchor="middle" x="1084.06" y="-7.5" font-family="Arial.ttf" font-size="10.00">stdafx.h</text>
</g>
<!-- Node1&#45;&gt;Node2 -->
<g id="edge2" class="edge"><title>Node1&#45;&gt;Node2</title>
<path fill="none" stroke="midnightblue" d="M1314.74,-792.467C1491.6,-790.406 2054.75,-781.327 2233.06,-748 2322.44,-731.293 2427.06,-773.933 2427.06,-683 2427.06,-683 2427.06,-683 2427.06,-121 2427.06,-67.6185 2376.99,-71.9805 2326.06,-56 2208.81,-19.213 1316.72,-12.2632 1121.66,-11.1786"/>
<polygon fill="midnightblue" stroke="midnightblue" points="1121.63,-7.67849 1111.61,-11.1245 1121.59,-14.6784 1121.63,-7.67849"/>
</g>
<!-- Node3 -->
<g id="node5" class="node"><title>Node3</title>
<a xlink:href="_s_l_uniform_grid_8h.html" target="_top" xlink:title="SLUniformGrid.h">
<polygon fill="white" stroke="black" points="8.55548,-448.5 8.55548,-467.5 103.555,-467.5 103.555,-448.5 8.55548,-448.5"/>
<text text-anchor="middle" x="56.0555" y="-455.5" font-family="Arial.ttf" font-size="10.00">SLUniformGrid.h</text>
</a>
</g>
<!-- Node1&#45;&gt;Node3 -->
<g id="edge4" class="edge"><title>Node1&#45;&gt;Node3</title>
<path fill="none" stroke="midnightblue" d="M1207.36,-792.244C987.58,-788.976 165.994,-774.994 118.055,-748 87.8735,-731.004 75.0555,-717.638 75.0555,-683 75.0555,-683 75.0555,-683 75.0555,-569 75.0555,-536.489 66.8964,-499.35 61.2717,-477.61"/>
<polygon fill="midnightblue" stroke="midnightblue" points="64.5969,-476.498 58.6179,-467.751 57.8375,-478.317 64.5969,-476.498"/>
</g>
<!-- Node12 -->
<g id="node33" class="node"><title>Node12</title>
<a xlink:href="_s_l_node_8h.html" target="_top" xlink:title="SLNode.h">
<polygon fill="white" stroke="black" points="1177.56,-392.5 1177.56,-411.5 1240.56,-411.5 1240.56,-392.5 1177.56,-392.5"/>
<text text-anchor="middle" x="1209.06" y="-399.5" font-family="Arial.ttf" font-size="10.00">SLNode.h</text>
</a>
</g>
<!-- Node1&#45;&gt;Node12 -->
<g id="edge42" class="edge"><title>Node1&#45;&gt;Node12</title>
<path fill="none" stroke="midnightblue" d="M1261.06,-784.442C1261.06,-765.936 1261.06,-720.813 1261.06,-683 1261.06,-683 1261.06,-683 1261.06,-513 1261.06,-482.902 1255.38,-474.988 1242.06,-448 1237.08,-437.92 1229.83,-427.733 1223.4,-419.607"/>
<polygon fill="midnightblue" stroke="midnightblue" points="1225.94,-417.19 1216.88,-411.7 1220.54,-421.643 1225.94,-417.19"/>
</g>
<!-- Node15 -->
<g id="node46" class="node"><title>Node15</title>
<a xlink:href="_s_l_ray_8h.html" target="_top" xlink:title="SLRay.h">
<polygon fill="white" stroke="black" points="295.555,-392.5 295.555,-411.5 350.555,-411.5 350.555,-392.5 295.555,-392.5"/>
<text text-anchor="middle" x="323.055" y="-399.5" font-family="Arial.ttf" font-size="10.00">SLRay.h</text>
</a>
</g>
<!-- Node1&#45;&gt;Node15 -->
<g id="edge62" class="edge"><title>Node1&#45;&gt;Node15</title>
<path fill="none" stroke="midnightblue" d="M1207.36,-793.474C982.993,-794.759 132.055,-792.422 132.055,-683 132.055,-683 132.055,-683 132.055,-513 132.055,-443.079 229.362,-416.932 285.068,-407.692"/>
<polygon fill="midnightblue" stroke="midnightblue" points="285.936,-411.099 295.282,-406.109 284.864,-404.182 285.936,-411.099"/>
</g>
<!-- Node20 -->
<g id="node63" class="node"><title>Node20</title>
<a xlink:href="_s_l_g_l_program_8h.html" target="_top" xlink:title="SLGLProgram.h">
<polygon fill="white" stroke="black" points="1089.06,-224.5 1089.06,-243.5 1181.06,-243.5 1181.06,-224.5 1089.06,-224.5"/>
<text text-anchor="middle" x="1135.06" y="-231.5" font-family="Arial.ttf" font-size="10.00">SLGLProgram.h</text>
</a>
</g>
<!-- Node1&#45;&gt;Node20 -->
<g id="edge264" class="edge"><title>Node1&#45;&gt;Node20</title>
<path fill="none" stroke="midnightblue" d="M1272.6,-784.433C1293.86,-767.571 1337.06,-727.799 1337.06,-683 1337.06,-683 1337.06,-683 1337.06,-457 1337.06,-354.015 1216.66,-277.73 1161.77,-248.298"/>
<polygon fill="midnightblue" stroke="midnightblue" points="1163.11,-245.05 1152.63,-243.507 1159.86,-251.25 1163.11,-245.05"/>
</g>
<!-- Node24 -->
<g id="node77" class="node"><title>Node24</title>
<a xlink:href="_s_l_raytracer_8h.html" target="_top" xlink:title="SLRaytracer.h">
<polygon fill="white" stroke="black" points="2197.56,-280.5 2197.56,-299.5 2280.56,-299.5 2280.56,-280.5 2197.56,-280.5"/>
<text text-anchor="middle" x="2239.06" y="-287.5" font-family="Arial.ttf" font-size="10.00">SLRaytracer.h</text>
</a>
</g>
<!-- Node1&#45;&gt;Node24 -->
<g id="edge106" class="edge"><title>Node1&#45;&gt;Node24</title>
<path fill="none" stroke="midnightblue" d="M1314.71,-793.126C1530.19,-792.938 2321.06,-785.279 2321.06,-683 2321.06,-683 2321.06,-683 2321.06,-457 2321.06,-405.456 2286.03,-402.624 2264.06,-356 2256.81,-340.621 2249.98,-322.524 2245.29,-309.336"/>
<polygon fill="midnightblue" stroke="midnightblue" points="2248.49,-307.877 2241.9,-299.58 2241.88,-310.175 2248.49,-307.877"/>
</g>
<!-- Node25 -->
<g id="node82" class="node"><title>Node25</title>
<a xlink:href="_s_l_scene_view_8h.html" target="_top" xlink:title="SLSceneView.h">
<polygon fill="white" stroke="black" points="1064.56,-728.5 1064.56,-747.5 1153.56,-747.5 1153.56,-728.5 1064.56,-728.5"/>
<text text-anchor="middle" x="1109.06" y="-735.5" font-family="Arial.ttf" font-size="10.00">SLSceneView.h</text>
</a>
</g>
<!-- Node1&#45;&gt;Node25 -->
<g id="edge114" class="edge"><title>Node1&#45;&gt;Node25</title>
<path fill="none" stroke="midnightblue" d="M1236.97,-784.444C1211.51,-775.399 1171.16,-761.064 1142.6,-750.916"/>
<polygon fill="midnightblue" stroke="midnightblue" points="1143.62,-747.566 1133.03,-747.516 1141.28,-754.162 1143.62,-747.566"/>
</g>
<!-- Node33 -->
<g id="node113" class="node"><title>Node33</title>
<a xlink:href="_s_l_camera_8h.html" target="_top" xlink:title="SLCamera.h">
<polygon fill="white" stroke="black" points="455.055,-448.5 455.055,-467.5 531.055,-467.5 531.055,-448.5 455.055,-448.5"/>
<text text-anchor="middle" x="493.055" y="-455.5" font-family="Arial.ttf" font-size="10.00">SLCamera.h</text>
</a>
</g>
<!-- Node1&#45;&gt;Node33 -->
<g id="edge262" class="edge"><title>Node1&#45;&gt;Node33</title>
<path fill="none" stroke="midnightblue" d="M1207.33,-790.752C1036.05,-782.879 514.055,-753.131 514.055,-683 514.055,-683 514.055,-683 514.055,-569 514.055,-536.384 505.038,-499.278 498.821,-477.573"/>
<polygon fill="midnightblue" stroke="midnightblue" points="502.098,-476.316 495.888,-467.732 495.39,-478.315 502.098,-476.316"/>
</g>
<!-- Node48 -->
<g id="node181" class="node"><title>Node48</title>
<a xlink:href="_triangle_box_intersect_8h.html" target="_top" xlink:title="TriangleBoxIntersect.h">
<polygon fill="white" stroke="black" points="2455.56,-728.5 2455.56,-747.5 2578.56,-747.5 2578.56,-728.5 2455.56,-728.5"/>
<text text-anchor="middle" x="2517.06" y="-735.5" font-family="Arial.ttf" font-size="10.00">TriangleBoxIntersect.h</text>
</a>
</g>
<!-- Node1&#45;&gt;Node48 -->
<g id="edge266" class="edge"><title>Node1&#45;&gt;Node48</title>
<path fill="none" stroke="midnightblue" d="M1314.66,-792.477C1481.64,-790.522 2007.24,-781.904 2441.06,-748 2442.36,-747.898 2443.68,-747.791 2445,-747.678"/>
<polygon fill="midnightblue" stroke="midnightblue" points="2445.66,-751.133 2455.29,-746.731 2445.02,-744.162 2445.66,-751.133"/>
</g>
<!-- Node3&#45;&gt;Node2 -->
<g id="edge6" class="edge"><title>Node3&#45;&gt;Node2</title>
<path fill="none" stroke="midnightblue" d="M48.032,-448.358C32.5475,-430.738 0.0554834,-388.788 0.0554834,-347 0.0554834,-347 0.0554834,-347 0.0554834,-121 0.0554834,-90.2048 -0.832252,-74.1369 24.0555,-56 66.1745,-25.3059 862.533,-13.7098 1046.4,-11.4357"/>
<polygon fill="midnightblue" stroke="midnightblue" points="1046.45,-14.9355 1056.41,-11.3138 1046.36,-7.93602 1046.45,-14.9355"/>
</g>
<!-- Node4 -->
<g id="node8" class="node"><title>Node4</title>
<a xlink:href="_s_l_accel_struct_8h.html" target="_top" xlink:title="SLAccelStruct.h">
<polygon fill="white" stroke="black" points="66.0555,-392.5 66.0555,-411.5 158.055,-411.5 158.055,-392.5 66.0555,-392.5"/>
<text text-anchor="middle" x="112.055" y="-399.5" font-family="Arial.ttf" font-size="10.00">SLAccelStruct.h</text>
</a>
</g>
<!-- Node3&#45;&gt;Node4 -->
<g id="edge8" class="edge"><title>Node3&#45;&gt;Node4</title>
<path fill="none" stroke="midnightblue" d="M65.0529,-448.324C73.2499,-440.42 85.561,-428.548 95.5275,-418.938"/>
<polygon fill="midnightblue" stroke="midnightblue" points="98.1254,-421.295 102.894,-411.834 93.2664,-416.256 98.1254,-421.295"/>
</g>
<!-- Node4&#45;&gt;Node2 -->
<g id="edge10" class="edge"><title>Node4&#45;&gt;Node2</title>
<path fill="none" stroke="midnightblue" d="M107.2,-392.473C97.3739,-374.386 76.0555,-330.585 76.0555,-291 76.0555,-291 76.0555,-291 76.0555,-121 76.0555,-63.4466 132.873,-72.3481 188.055,-56 352.503,-7.28177 897.154,-9.08304 1046.11,-10.537"/>
<polygon fill="midnightblue" stroke="midnightblue" points="1046.51,-14.0411 1056.54,-10.6447 1046.58,-7.0415 1046.51,-14.0411"/>
</g>
<!-- Node5 -->
<g id="node11" class="node"><title>Node5</title>
<a xlink:href="_s_l_mesh_8h.html" target="_top" xlink:title="SLMesh.h">
<polygon fill="white" stroke="black" points="325.555,-336.5 325.555,-355.5 388.555,-355.5 388.555,-336.5 325.555,-336.5"/>
<text text-anchor="middle" x="357.055" y="-343.5" font-family="Arial.ttf" font-size="10.00">SLMesh.h</text>
</a>
</g>
<!-- Node4&#45;&gt;Node5 -->
<g id="edge12" class="edge"><title>Node4&#45;&gt;Node5</title>
<path fill="none" stroke="midnightblue" d="M150.876,-392.444C195.784,-382.545 269.432,-366.313 315.479,-356.164"/>
<polygon fill="midnightblue" stroke="midnightblue" points="316.416,-359.541 325.428,-353.971 314.909,-352.706 316.416,-359.541"/>
</g>
<!-- Node5&#45;&gt;Node2 -->
<g id="edge14" class="edge"><title>Node5&#45;&gt;Node2</title>
<path fill="none" stroke="midnightblue" d="M341.092,-336.417C315.368,-321.556 265.651,-288.323 246.055,-244 228.033,-203.235 253.242,-116.34 358.055,-56 417.854,-21.5746 904.703,-13.1307 1045.84,-11.3971"/>
<polygon fill="midnightblue" stroke="midnightblue" points="1046.2,-14.8932 1056.16,-11.2749 1046.11,-7.89369 1046.2,-14.8932"/>
</g>
<!-- Node6 -->
<g id="node14" class="node"><title>Node6</title>
<a xlink:href="_s_l_a_a_b_box_8h.html" target="_top" xlink:title="SLAABBox.h">
<polygon fill="white" stroke="black" points="559.055,-280.5 559.055,-299.5 635.055,-299.5 635.055,-280.5 559.055,-280.5"/>
<text text-anchor="middle" x="597.055" y="-287.5" font-family="Arial.ttf" font-size="10.00">SLAABBox.h</text>
</a>
</g>
<!-- Node5&#45;&gt;Node6 -->
<g id="edge16" class="edge"><title>Node5&#45;&gt;Node6</title>
<path fill="none" stroke="midnightblue" d="M388.926,-337.829C429.995,-328.589 501.759,-312.442 549.345,-301.735"/>
<polygon fill="midnightblue" stroke="midnightblue" points="550.125,-305.147 559.113,-299.537 548.588,-298.318 550.125,-305.147"/>
</g>
<!-- Node8 -->
<g id="node20" class="node"><title>Node8</title>
<a xlink:href="_s_l_g_l_vertex_array_8h.html" target="_top" xlink:title="SLGLVertexArray.h">
<polygon fill="white" stroke="black" points="350.555,-168.5 350.555,-187.5 457.555,-187.5 457.555,-168.5 350.555,-168.5"/>
<text text-anchor="middle" x="404.055" y="-175.5" font-family="Arial.ttf" font-size="10.00">SLGLVertexArray.h</text>
</a>
</g>
<!-- Node5&#45;&gt;Node8 -->
<g id="edge38" class="edge"><title>Node5&#45;&gt;Node8</title>
<path fill="none" stroke="midnightblue" d="M359.582,-336.075C366.981,-309.945 388.707,-233.211 398.796,-197.577"/>
<polygon fill="midnightblue" stroke="midnightblue" points="402.273,-198.143 401.63,-187.568 395.538,-196.236 402.273,-198.143"/>
</g>
<!-- Node11 -->
<g id="node31" class="node"><title>Node11</title>
<a xlink:href="_s_l_enums_8h.html" target="_top" xlink:title="SLEnums.h">
<polygon fill="white" stroke="black" points="1283.56,-56.5 1283.56,-75.5 1354.56,-75.5 1354.56,-56.5 1283.56,-56.5"/>
<text text-anchor="middle" x="1319.06" y="-63.5" font-family="Arial.ttf" font-size="10.00">SLEnums.h</text>
</a>
</g>
<!-- Node5&#45;&gt;Node11 -->
<g id="edge40" class="edge"><title>Node5&#45;&gt;Node11</title>
<path fill="none" stroke="midnightblue" d="M388.843,-341.86C442.165,-336.183 552.763,-322.653 644.055,-300 899.752,-236.552 1196.06,-117.887 1289.37,-79.3968"/>
<polygon fill="midnightblue" stroke="midnightblue" points="1290.84,-82.5734 1298.75,-75.5153 1288.17,-76.1054 1290.84,-82.5734"/>
</g>
<!-- Node6&#45;&gt;Node2 -->
<g id="edge18" class="edge"><title>Node6&#45;&gt;Node2</title>
<path fill="none" stroke="midnightblue" d="M601.911,-280.473C611.737,-262.386 633.055,-218.585 633.055,-179 633.055,-179 633.055,-179 633.055,-121 633.055,-90.2048 632.747,-74.9065 657.055,-56 687.499,-32.3214 947.792,-17.5175 1046.4,-12.7146"/>
<polygon fill="midnightblue" stroke="midnightblue" points="1046.7,-16.2046 1056.52,-12.2295 1046.36,-9.21262 1046.7,-16.2046"/>
</g>
<!-- Node7 -->
<g id="node17" class="node"><title>Node7</title>
<a xlink:href="_s_l_g_l_vertex_array_ext_8h.html" target="_top" xlink:title="SLGLVertexArrayExt.h">
<polygon fill="white" stroke="black" points="483.055,-224.5 483.055,-243.5 605.055,-243.5 605.055,-224.5 483.055,-224.5"/>
<text text-anchor="middle" x="544.055" y="-231.5" font-family="Arial.ttf" font-size="10.00">SLGLVertexArrayExt.h</text>
</a>
</g>
<!-- Node6&#45;&gt;Node7 -->
<g id="edge20" class="edge"><title>Node6&#45;&gt;Node7</title>
<path fill="none" stroke="midnightblue" d="M588.304,-280.083C580.586,-272.22 569.151,-260.569 559.839,-251.081"/>
<polygon fill="midnightblue" stroke="midnightblue" points="562.147,-248.436 552.645,-243.751 557.151,-253.34 562.147,-248.436"/>
</g>
<!-- Node7&#45;&gt;Node2 -->
<g id="edge22" class="edge"><title>Node7&#45;&gt;Node2</title>
<path fill="none" stroke="midnightblue" d="M546.457,-224.332C555.653,-191.784 589.596,-77.6255 619.055,-56 653.228,-30.9141 941.723,-16.789 1046.35,-12.4533"/>
<polygon fill="midnightblue" stroke="midnightblue" points="1046.61,-15.9456 1056.46,-12.0411 1046.33,-8.95138 1046.61,-15.9456"/>
</g>
<!-- Node7&#45;&gt;Node8 -->
<g id="edge24" class="edge"><title>Node7&#45;&gt;Node8</title>
<path fill="none" stroke="midnightblue" d="M521.872,-224.444C498.627,-215.478 461.907,-201.314 435.64,-191.183"/>
<polygon fill="midnightblue" stroke="midnightblue" points="436.725,-187.85 426.135,-187.516 434.206,-194.381 436.725,-187.85"/>
</g>
<!-- Node8&#45;&gt;Node2 -->
<g id="edge26" class="edge"><title>Node8&#45;&gt;Node2</title>
<path fill="none" stroke="midnightblue" d="M399.927,-168.254C390.16,-146.13 368.582,-87.4705 398.055,-56 442.534,-8.50798 909.009,-9.2736 1046.27,-10.5431"/>
<polygon fill="midnightblue" stroke="midnightblue" points="1046.28,-14.0433 1056.31,-10.6425 1046.35,-7.04362 1046.28,-14.0433"/>
</g>
<!-- Node9 -->
<g id="node23" class="node"><title>Node9</title>
<a xlink:href="_s_l_g_l_enums_8h.html" target="_top" xlink:title="SLGLEnums.h">
<polygon fill="white" stroke="black" points="407.555,-56.5 407.555,-75.5 490.555,-75.5 490.555,-56.5 407.555,-56.5"/>
<text text-anchor="middle" x="449.055" y="-63.5" font-family="Arial.ttf" font-size="10.00">SLGLEnums.h</text>
</a>
</g>
<!-- Node8&#45;&gt;Node9 -->
<g id="edge28" class="edge"><title>Node8&#45;&gt;Node9</title>
<path fill="none" stroke="midnightblue" d="M403.212,-168.176C402.338,-155.276 402.054,-130.764 410.055,-112 414.739,-101.016 423.135,-90.7836 430.94,-82.8601"/>
<polygon fill="midnightblue" stroke="midnightblue" points="433.563,-85.1957 438.389,-75.764 428.735,-80.1274 433.563,-85.1957"/>
</g>
<!-- Node10 -->
<g id="node26" class="node"><title>Node10</title>
<a xlink:href="_s_l_g_l_vertex_buffer_8h.html" target="_top" xlink:title="SLGLVertexBuffer.h">
<polygon fill="white" stroke="black" points="419.055,-112.5 419.055,-131.5 529.055,-131.5 529.055,-112.5 419.055,-112.5"/>
<text text-anchor="middle" x="474.055" y="-119.5" font-family="Arial.ttf" font-size="10.00">SLGLVertexBuffer.h</text>
</a>
</g>
<!-- Node8&#45;&gt;Node10 -->
<g id="edge32" class="edge"><title>Node8&#45;&gt;Node10</title>
<path fill="none" stroke="midnightblue" d="M415.302,-168.324C425.853,-160.185 441.856,-147.839 454.498,-138.087"/>
<polygon fill="midnightblue" stroke="midnightblue" points="456.824,-140.713 462.604,-131.834 452.548,-135.171 456.824,-140.713"/>
</g>
<!-- Node9&#45;&gt;Node2 -->
<g id="edge30" class="edge"><title>Node9&#45;&gt;Node2</title>
<path fill="none" stroke="midnightblue" d="M490.592,-57.9368C495.46,-57.2241 500.362,-56.5586 505.055,-56 708.498,-31.7872 953.777,-17.6601 1046.29,-12.8629"/>
<polygon fill="midnightblue" stroke="midnightblue" points="1046.74,-16.3445 1056.55,-12.337 1046.39,-9.35368 1046.74,-16.3445"/>
</g>
<!-- Node10&#45;&gt;Node2 -->
<g id="edge34" class="edge"><title>Node10&#45;&gt;Node2</title>
<path fill="none" stroke="midnightblue" d="M480.093,-112.344C490.83,-97.7463 514.795,-68.5955 543.055,-56 633.343,-15.7587 938.9,-11.2511 1046.32,-10.9355"/>
<polygon fill="midnightblue" stroke="midnightblue" points="1046.39,-14.4355 1056.38,-10.9167 1046.38,-7.43547 1046.39,-14.4355"/>
</g>
<!-- Node10&#45;&gt;Node9 -->
<g id="edge36" class="edge"><title>Node10&#45;&gt;Node9</title>
<path fill="none" stroke="midnightblue" d="M469.927,-112.083C466.542,-104.77 461.639,-94.1814 457.437,-85.1034"/>
<polygon fill="midnightblue" stroke="midnightblue" points="460.484,-83.3553 453.107,-75.7511 454.132,-86.2962 460.484,-83.3553"/>
</g>
<!-- Node12&#45;&gt;Node2 -->
<g id="edge44" class="edge"><title>Node12&#45;&gt;Node2</title>
<path fill="none" stroke="midnightblue" d="M1210.75,-392.309C1215.61,-364.842 1226.98,-278.501 1190.06,-224 1170.88,-195.688 1142.69,-215.271 1122.06,-188 1103.2,-163.081 1090.71,-70.0896 1086.07,-29.8053"/>
<polygon fill="midnightblue" stroke="midnightblue" points="1089.54,-29.2876 1084.95,-19.7362 1082.58,-30.062 1089.54,-29.2876"/>
</g>
<!-- Node12&#45;&gt;Node5 -->
<g id="edge48" class="edge"><title>Node12&#45;&gt;Node5</title>
<path fill="none" stroke="midnightblue" d="M1177.47,-398.998C1046.59,-390.703 546.849,-359.029 398.69,-349.639"/>
<polygon fill="midnightblue" stroke="midnightblue" points="398.842,-346.142 388.641,-349.002 398.399,-353.127 398.842,-346.142"/>
</g>
<!-- Node12&#45;&gt;Node11 -->
<g id="edge46" class="edge"><title>Node12&#45;&gt;Node11</title>
<path fill="none" stroke="midnightblue" d="M1223.25,-392.256C1235.32,-384.175 1252.36,-371.152 1263.06,-356 1280.82,-330.845 1287.06,-321.795 1287.06,-291 1287.06,-291 1287.06,-291 1287.06,-233 1287.06,-178.63 1292.94,-165.003 1305.06,-112 1307.11,-103.015 1310.07,-93.2253 1312.73,-85.0778"/>
<polygon fill="midnightblue" stroke="midnightblue" points="1316.08,-86.1138 1315.97,-75.5195 1309.45,-83.8664 1316.08,-86.1138"/>
</g>
<!-- Node12&#45;&gt;Node12 -->
<g id="edge50" class="edge"><title>Node12&#45;&gt;Node12</title>
<path fill="none" stroke="midnightblue" d="M1229.95,-411.525C1244.15,-414.308 1258.06,-411.133 1258.06,-402 1258.06,-395.079 1250.07,-391.579 1240.03,-391.501"/>
<polygon fill="midnightblue" stroke="midnightblue" points="1239.57,-388.029 1229.95,-392.475 1240.24,-394.996 1239.57,-388.029"/>
</g>
<!-- Node13 -->
<g id="node39" class="node"><title>Node13</title>
<a xlink:href="_s_l_draw_bits_8h.html" target="_top" xlink:title="SLDrawBits.h">
<polygon fill="white" stroke="black" points="843.055,-280.5 843.055,-299.5 923.055,-299.5 923.055,-280.5 843.055,-280.5"/>
<text text-anchor="middle" x="883.055" y="-287.5" font-family="Arial.ttf" font-size="10.00">SLDrawBits.h</text>
</a>
</g>
<!-- Node12&#45;&gt;Node13 -->
<g id="edge52" class="edge"><title>Node12&#45;&gt;Node13</title>
<path fill="none" stroke="midnightblue" d="M1177.3,-393.152C1144.61,-384.836 1092.35,-370.872 1048.06,-356 999.782,-339.793 945.014,-317.397 912.292,-303.573"/>
<polygon fill="midnightblue" stroke="midnightblue" points="913.449,-300.262 902.876,-299.575 910.713,-306.705 913.449,-300.262"/>
</g>
<!-- Node14 -->
<g id="node42" class="node"><title>Node14</title>
<a xlink:href="_s_l_event_handler_8h.html" target="_top" xlink:title="SLEventHandler.h">
<polygon fill="white" stroke="black" points="1347.06,-112.5 1347.06,-131.5 1449.06,-131.5 1449.06,-112.5 1347.06,-112.5"/>
<text text-anchor="middle" x="1398.06" y="-119.5" font-family="Arial.ttf" font-size="10.00">SLEventHandler.h</text>
</a>
</g>
<!-- Node12&#45;&gt;Node14 -->
<g id="edge56" class="edge"><title>Node12&#45;&gt;Node14</title>
<path fill="none" stroke="midnightblue" d="M1239.39,-392.367C1259.18,-385.378 1284.36,-373.737 1301.06,-356 1332.26,-322.853 1376.71,-190.015 1392.35,-141.154"/>
<polygon fill="midnightblue" stroke="midnightblue" points="1395.7,-142.179 1395.39,-131.588 1389.02,-140.061 1395.7,-142.179"/>
</g>
<!-- Node13&#45;&gt;Node2 -->
<g id="edge54" class="edge"><title>Node13&#45;&gt;Node2</title>
<path fill="none" stroke="midnightblue" d="M880.628,-280.24C875.715,-261.711 865.055,-217.122 865.055,-179 865.055,-179 865.055,-179 865.055,-121 865.055,-40.9609 983.311,-19.1548 1046.03,-13.2181"/>
<polygon fill="midnightblue" stroke="midnightblue" points="1046.65,-16.6774 1056.32,-12.3389 1046.06,-9.70276 1046.65,-16.6774"/>
</g>
<!-- Node14&#45;&gt;Node2 -->
<g id="edge58" class="edge"><title>Node14&#45;&gt;Node2</title>
<path fill="none" stroke="midnightblue" d="M1395.99,-112.178C1392.15,-97.8708 1382.48,-69.8199 1363.06,-56 1324.92,-28.8663 1188.66,-17.1821 1121.72,-12.9902"/>
<polygon fill="midnightblue" stroke="midnightblue" points="1121.78,-9.4881 1111.59,-12.3805 1121.36,-16.4754 1121.78,-9.4881"/>
</g>
<!-- Node14&#45;&gt;Node11 -->
<g id="edge60" class="edge"><title>Node14&#45;&gt;Node11</title>
<path fill="none" stroke="midnightblue" d="M1385.36,-112.324C1373.15,-103.979 1354.48,-91.2122 1340.05,-81.3524"/>
<polygon fill="midnightblue" stroke="midnightblue" points="1341.95,-78.4082 1331.72,-75.6545 1338,-84.1871 1341.95,-78.4082"/>
</g>
<!-- Node15&#45;&gt;Node2 -->
<g id="edge64" class="edge"><title>Node15&#45;&gt;Node2</title>
<path fill="none" stroke="midnightblue" d="M316.389,-392.456C299.22,-369.839 253.735,-305.895 238.055,-244 215.446,-154.751 240.909,-93.364 325.055,-56 391.261,-26.6025 901.961,-14.5339 1046.22,-11.6905"/>
<polygon fill="midnightblue" stroke="midnightblue" points="1046.42,-15.1874 1056.35,-11.4942 1046.28,-8.18868 1046.42,-15.1874"/>
</g>
<!-- Node15&#45;&gt;Node5 -->
<g id="edge104" class="edge"><title>Node15&#45;&gt;Node5</title>
<path fill="none" stroke="midnightblue" d="M328.67,-392.083C333.423,-384.534 340.374,-373.495 346.207,-364.23"/>
<polygon fill="midnightblue" stroke="midnightblue" points="349.179,-366.078 351.546,-355.751 343.256,-362.349 349.179,-366.078"/>
</g>
<!-- Node16 -->
<g id="node49" class="node"><title>Node16</title>
<a xlink:href="_s_l_material_8h.html" target="_top" xlink:title="SLMaterial.h">
<polygon fill="white" stroke="black" points="1057.06,-336.5 1057.06,-355.5 1133.06,-355.5 1133.06,-336.5 1057.06,-336.5"/>
<text text-anchor="middle" x="1095.06" y="-343.5" font-family="Arial.ttf" font-size="10.00">SLMaterial.h</text>
</a>
</g>
<!-- Node15&#45;&gt;Node16 -->
<g id="edge66" class="edge"><title>Node15&#45;&gt;Node16</title>
<path fill="none" stroke="midnightblue" d="M350.987,-399.046C465.557,-391.032 900.309,-360.622 1046.65,-350.386"/>
<polygon fill="midnightblue" stroke="midnightblue" points="1046.95,-353.874 1056.68,-349.684 1046.46,-346.891 1046.95,-353.874"/>
</g>
<!-- Node16&#45;&gt;Node2 -->
<g id="edge68" class="edge"><title>Node16&#45;&gt;Node2</title>
<path fill="none" stroke="midnightblue" d="M1093.6,-336.376C1090.7,-318.96 1084.13,-278.326 1080.06,-244 1073.11,-185.576 1069.53,-170.832 1070.06,-112 1070.28,-87.1081 1067.35,-80.615 1071.06,-56 1072.4,-47.0542 1075.03,-37.3852 1077.58,-29.311"/>
<polygon fill="midnightblue" stroke="midnightblue" points="1080.9,-30.4043 1080.76,-19.8105 1074.27,-28.1822 1080.9,-30.4043"/>
</g>
<!-- Node16&#45;&gt;Node13 -->
<g id="edge70" class="edge"><title>Node16&#45;&gt;Node13</title>
<path fill="none" stroke="midnightblue" d="M1061.46,-336.444C1024.87,-327.122 966.217,-312.183 926.23,-301.997"/>
<polygon fill="midnightblue" stroke="midnightblue" points="927.045,-298.593 916.49,-299.516 925.317,-305.377 927.045,-298.593"/>
</g>
<!-- Node17 -->
<g id="node53" class="node"><title>Node17</title>
<a xlink:href="_s_l_g_l_texture_8h.html" target="_top" xlink:title="SLGLTexture.h">
<polygon fill="white" stroke="black" points="1657.06,-224.5 1657.06,-243.5 1743.06,-243.5 1743.06,-224.5 1657.06,-224.5"/>
<text text-anchor="middle" x="1700.06" y="-231.5" font-family="Arial.ttf" font-size="10.00">SLGLTexture.h</text>
</a>
</g>
<!-- Node16&#45;&gt;Node17 -->
<g id="edge72" class="edge"><title>Node16&#45;&gt;Node17</title>
<path fill="none" stroke="midnightblue" d="M1133.36,-338.036C1237.6,-319.083 1526.58,-266.542 1646.66,-244.709"/>
<polygon fill="midnightblue" stroke="midnightblue" points="1647.51,-248.112 1656.72,-242.879 1646.25,-241.225 1647.51,-248.112"/>
</g>
<!-- Node16&#45;&gt;Node20 -->
<g id="edge86" class="edge"><title>Node16&#45;&gt;Node20</title>
<path fill="none" stroke="midnightblue" d="M1098.19,-336.368C1104.68,-318.537 1119.68,-277.295 1128.41,-253.272"/>
<polygon fill="midnightblue" stroke="midnightblue" points="1131.8,-254.185 1131.93,-243.591 1125.22,-251.793 1131.8,-254.185"/>
</g>
<!-- Node22 -->
<g id="node70" class="node"><title>Node22</title>
<a xlink:href="_s_l_g_l_generic_program_8h.html" target="_top" xlink:title="SLGLGenericProgram.h">
<polygon fill="white" stroke="black" points="941.055,-280.5 941.055,-299.5 1069.06,-299.5 1069.06,-280.5 941.055,-280.5"/>
<text text-anchor="middle" x="1005.06" y="-287.5" font-family="Arial.ttf" font-size="10.00">SLGLGenericProgram.h</text>
</a>
</g>
<!-- Node16&#45;&gt;Node22 -->
<g id="edge96" class="edge"><title>Node16&#45;&gt;Node22</title>
<path fill="none" stroke="midnightblue" d="M1080.6,-336.324C1066.56,-327.9 1045.01,-314.971 1028.51,-305.074"/>
<polygon fill="midnightblue" stroke="midnightblue" points="1029.86,-301.798 1019.48,-299.655 1026.25,-307.801 1029.86,-301.798"/>
</g>
<!-- Node17&#45;&gt;Node2 -->
<g id="edge74" class="edge"><title>Node17&#45;&gt;Node2</title>
<path fill="none" stroke="midnightblue" d="M1698.56,-224.352C1692.78,-191.877 1670.77,-77.9461 1643.06,-56 1602.31,-23.7294 1240.54,-13.9841 1121.7,-11.6396"/>
<polygon fill="midnightblue" stroke="midnightblue" points="1121.68,-8.13874 1111.62,-11.4471 1121.55,-15.1375 1121.68,-8.13874"/>
</g>
<!-- Node17&#45;&gt;Node8 -->
<g id="edge84" class="edge"><title>Node17&#45;&gt;Node8</title>
<path fill="none" stroke="midnightblue" d="M1656.94,-231.203C1465.96,-223.246 695.743,-191.154 467.866,-181.659"/>
<polygon fill="midnightblue" stroke="midnightblue" points="467.885,-178.157 457.748,-181.237 467.593,-185.151 467.885,-178.157"/>
</g>
<!-- Node18 -->
<g id="node56" class="node"><title>Node18</title>
<a xlink:href="_s_l_c_v_image_8h.html" target="_top" xlink:title="SLCVImage.h">
<polygon fill="white" stroke="black" points="1733.56,-112.5 1733.56,-131.5 1814.56,-131.5 1814.56,-112.5 1733.56,-112.5"/>
<text text-anchor="middle" x="1774.06" y="-119.5" font-family="Arial.ttf" font-size="10.00">SLCVImage.h</text>
</a>
</g>
<!-- Node17&#45;&gt;Node18 -->
<g id="edge76" class="edge"><title>Node17&#45;&gt;Node18</title>
<path fill="none" stroke="midnightblue" d="M1705.86,-224.368C1718.07,-206.215 1746.61,-163.802 1762.63,-139.99"/>
<polygon fill="midnightblue" stroke="midnightblue" points="1765.6,-141.842 1768.28,-131.591 1759.79,-137.935 1765.6,-141.842"/>
</g>
<!-- Node18&#45;&gt;Node2 -->
<g id="edge78" class="edge"><title>Node18&#45;&gt;Node2</title>
<path fill="none" stroke="midnightblue" d="M1769.72,-112.34C1761.88,-97.7366 1743.84,-68.5773 1719.06,-56 1665.85,-28.9993 1250.63,-15.5322 1121.95,-11.9778"/>
<polygon fill="midnightblue" stroke="midnightblue" points="1121.88,-8.47477 1111.79,-11.7015 1121.69,-15.4722 1121.88,-8.47477"/>
</g>
<!-- Node19 -->
<g id="node59" class="node"><title>Node19</title>
<a xlink:href="_s_l_c_v_8h.html" target="_top" xlink:title="SLCV.h">
<polygon fill="white" stroke="red" points="1809.56,-56.5 1809.56,-75.5 1860.56,-75.5 1860.56,-56.5 1809.56,-56.5"/>
<text text-anchor="middle" x="1835.06" y="-63.5" font-family="Arial.ttf" font-size="10.00">SLCV.h</text>
</a>
</g>
<!-- Node18&#45;&gt;Node19 -->
<g id="edge80" class="edge"><title>Node18&#45;&gt;Node19</title>
<path fill="none" stroke="midnightblue" d="M1783.86,-112.324C1792.87,-104.341 1806.46,-92.3128 1817.37,-82.6529"/>
<polygon fill="midnightblue" stroke="midnightblue" points="1819.91,-85.083 1825.08,-75.8339 1815.27,-79.8416 1819.91,-85.083"/>
</g>
<!-- Node19&#45;&gt;Node2 -->
<g id="edge82" class="edge"><title>Node19&#45;&gt;Node2</title>
<path fill="none" stroke="midnightblue" d="M1809.35,-58.5869C1804.62,-57.5869 1799.71,-56.6661 1795.06,-56 1539.67,-19.422 1228.44,-12.576 1121.91,-11.2949"/>
<polygon fill="midnightblue" stroke="midnightblue" points="1121.71,-7.79254 1111.67,-11.1816 1121.63,-14.7921 1121.71,-7.79254"/>
</g>
<!-- Node20&#45;&gt;Node2 -->
<g id="edge88" class="edge"><title>Node20&#45;&gt;Node2</title>
<path fill="none" stroke="midnightblue" d="M1121.82,-224.457C1110.8,-216.505 1095.86,-203.558 1089.06,-188 1065.69,-134.587 1074.2,-63.1786 1080.18,-29.7468"/>
<polygon fill="midnightblue" stroke="midnightblue" points="1083.68,-30.0785 1082.13,-19.5972 1076.81,-28.7555 1083.68,-30.0785"/>
</g>
<!-- Node21 -->
<g id="node66" class="node"><title>Node21</title>
<a xlink:href="_s_l_g_l_uniform_8h.html" target="_top" xlink:title="SLGLUniform.h">
<polygon fill="white" stroke="black" points="1131.56,-168.5 1131.56,-187.5 1220.56,-187.5 1220.56,-168.5 1131.56,-168.5"/>
<text text-anchor="middle" x="1176.06" y="-175.5" font-family="Arial.ttf" font-size="10.00">SLGLUniform.h</text>
</a>
</g>
<!-- Node20&#45;&gt;Node21 -->
<g id="edge90" class="edge"><title>Node20&#45;&gt;Node21</title>
<path fill="none" stroke="midnightblue" d="M1141.83,-224.083C1147.62,-216.455 1156.11,-205.264 1163.19,-195.941"/>
<polygon fill="midnightblue" stroke="midnightblue" points="1166.15,-197.832 1169.41,-187.751 1160.58,-193.599 1166.15,-197.832"/>
</g>
<!-- Node21&#45;&gt;Node2 -->
<g id="edge92" class="edge"><title>Node21&#45;&gt;Node2</title>
<path fill="none" stroke="midnightblue" d="M1172.42,-168.213C1163.86,-147.872 1141.34,-96.2139 1117.06,-56 1111.17,-46.2552 1103.74,-35.9758 1097.41,-27.7055"/>
<polygon fill="midnightblue" stroke="midnightblue" points="1100.03,-25.3679 1091.12,-19.6402 1094.51,-29.6761 1100.03,-25.3679"/>
</g>
<!-- Node21&#45;&gt;Node14 -->
<g id="edge94" class="edge"><title>Node21&#45;&gt;Node14</title>
<path fill="none" stroke="midnightblue" d="M1211.23,-168.444C1249.63,-159.102 1311.23,-144.119 1353.11,-133.933"/>
<polygon fill="midnightblue" stroke="midnightblue" points="1354.15,-137.281 1363.04,-131.516 1352.5,-130.479 1354.15,-137.281"/>
</g>
<!-- Node22&#45;&gt;Node20 -->
<g id="edge102" class="edge"><title>Node22&#45;&gt;Node20</title>
<path fill="none" stroke="midnightblue" d="M1025.65,-280.444C1047.05,-271.557 1080.74,-257.563 1105.08,-247.451"/>
<polygon fill="midnightblue" stroke="midnightblue" points="1106.66,-250.585 1114.55,-243.516 1103.98,-244.12 1106.66,-250.585"/>
</g>
<!-- Node23 -->
<g id="node72" class="node"><title>Node23</title>
<a xlink:href="_s_l_object_8h.html" target="_top" xlink:title="SLObject.h">
<polygon fill="white" stroke="black" points="893.055,-168.5 893.055,-187.5 961.055,-187.5 961.055,-168.5 893.055,-168.5"/>
<text text-anchor="middle" x="927.055" y="-175.5" font-family="Arial.ttf" font-size="10.00">SLObject.h</text>
</a>
</g>
<!-- Node22&#45;&gt;Node23 -->
<g id="edge98" class="edge"><title>Node22&#45;&gt;Node23</title>
<path fill="none" stroke="midnightblue" d="M998.935,-280.368C986.063,-262.215 955.987,-219.802 939.103,-195.99"/>
<polygon fill="midnightblue" stroke="midnightblue" points="941.787,-193.724 933.148,-187.591 936.077,-197.773 941.787,-193.724"/>
</g>
<!-- Node23&#45;&gt;Node2 -->
<g id="edge100" class="edge"><title>Node23&#45;&gt;Node2</title>
<path fill="none" stroke="midnightblue" d="M931.706,-168.218C943.26,-146.991 975.094,-92.0012 1013.06,-56 1026.35,-43.3962 1043.67,-32.3346 1057.88,-24.3325"/>
<polygon fill="midnightblue" stroke="midnightblue" points="1059.59,-27.3884 1066.69,-19.5303 1056.24,-21.2416 1059.59,-27.3884"/>
</g>
<!-- Node24&#45;&gt;Node2 -->
<g id="edge108" class="edge"><title>Node24&#45;&gt;Node2</title>
<path fill="none" stroke="midnightblue" d="M2237.09,-280.496C2233.03,-262.095 2224.06,-217.162 2224.06,-179 2224.06,-179 2224.06,-179 2224.06,-121 2224.06,-87.3101 2214.03,-73.1943 2185.06,-56 2138.41,-28.3145 1309.92,-14.36 1121.82,-11.5407"/>
<polygon fill="midnightblue" stroke="midnightblue" points="1121.66,-8.03794 1111.61,-11.3891 1121.55,-15.0372 1121.66,-8.03794"/>
</g>
<!-- Node24&#45;&gt;Node14 -->
<g id="edge112" class="edge"><title>Node24&#45;&gt;Node14</title>
<path fill="none" stroke="midnightblue" d="M2197.35,-280.768C2057.79,-253.221 1607.17,-164.276 1451.52,-133.553"/>
<polygon fill="midnightblue" stroke="midnightblue" points="1451.76,-130.032 1441.27,-131.529 1450.4,-136.9 1451.76,-130.032"/>
</g>
<!-- Node24&#45;&gt;Node17 -->
<g id="edge110" class="edge"><title>Node24&#45;&gt;Node17</title>
<path fill="none" stroke="midnightblue" d="M2197.21,-284.808C2100.38,-275.107 1860.99,-251.124 1753.64,-240.369"/>
<polygon fill="midnightblue" stroke="midnightblue" points="1753.67,-236.854 1743.37,-239.339 1752.97,-243.819 1753.67,-236.854"/>
</g>
<!-- Node25&#45;&gt;Node2 -->
<g id="edge116" class="edge"><title>Node25&#45;&gt;Node2</title>
<path fill="none" stroke="midnightblue" d="M1064.35,-733.541C963.897,-724.541 729.055,-696.11 729.055,-627 729.055,-627 729.055,-627 729.055,-401 729.055,-301.934 709.055,-278.066 709.055,-179 709.055,-179 709.055,-179 709.055,-121 709.055,-80.458 736.881,-74.3039 773.055,-56 820.264,-32.1131 974.466,-18.5903 1046.43,-13.4389"/>
<polygon fill="midnightblue" stroke="midnightblue" points="1046.7,-16.9289 1056.43,-12.7394 1046.21,-9.94593 1046.7,-16.9289"/>
</g>
<!-- Node25&#45;&gt;Node6 -->
<g id="edge242" class="edge"><title>Node25&#45;&gt;Node6</title>
<path fill="none" stroke="midnightblue" d="M1064.42,-737.603C972.964,-737.946 768.403,-733.867 715.055,-692 690.83,-672.988 691.055,-657.795 691.055,-627 691.055,-627 691.055,-627 691.055,-401 691.055,-370.205 686.337,-360.012 667.055,-336 656.251,-322.546 640.292,-311.85 626.339,-304.268"/>
<polygon fill="midnightblue" stroke="midnightblue" points="627.583,-300.973 617.088,-299.521 624.387,-307.201 627.583,-300.973"/>
</g>
<!-- Node25&#45;&gt;Node7 -->
<g id="edge254" class="edge"><title>Node25&#45;&gt;Node7</title>
<path fill="none" stroke="midnightblue" d="M1064.53,-736.97C970.432,-736.149 754.994,-730.039 694.055,-692 665.081,-673.914 653.055,-661.156 653.055,-627 653.055,-627 653.055,-627 653.055,-401 653.055,-362.282 623.16,-362.631 595.055,-336 576.464,-318.383 562.201,-322.55 550.055,-300 542.414,-285.813 541.41,-267.334 542.028,-253.707"/>
<polygon fill="midnightblue" stroke="midnightblue" points="545.528,-253.844 542.818,-243.602 538.549,-253.298 545.528,-253.844"/>
</g>
<!-- Node25&#45;&gt;Node12 -->
<g id="edge222" class="edge"><title>Node25&#45;&gt;Node12</title>
<path fill="none" stroke="midnightblue" d="M1109.06,-728.442C1109.06,-709.936 1109.06,-664.813 1109.06,-627 1109.06,-627 1109.06,-627 1109.06,-569 1109.06,-511.927 1118.8,-494.384 1152.06,-448 1160.87,-435.71 1173.93,-425.059 1185.33,-417.208"/>
<polygon fill="midnightblue" stroke="midnightblue" points="1187.55,-419.938 1194.01,-411.534 1183.72,-414.08 1187.55,-419.938"/>
</g>
<!-- Node25&#45;&gt;Node13 -->
<g id="edge244" class="edge"><title>Node25&#45;&gt;Node13</title>
<path fill="none" stroke="midnightblue" d="M1064.51,-732.533C1004.75,-723.802 906.055,-698.551 906.055,-627 906.055,-627 906.055,-627 906.055,-401 906.055,-368.12 896.088,-330.86 889.276,-309.235"/>
<polygon fill="midnightblue" stroke="midnightblue" points="892.596,-308.125 886.157,-299.711 885.943,-310.303 892.596,-308.125"/>
</g>
<!-- Node25&#45;&gt;Node14 -->
<g id="edge232" class="edge"><title>Node25&#45;&gt;Node14</title>
<path fill="none" stroke="midnightblue" d="M1120.5,-728.403C1174.49,-686.786 1401.06,-499.699 1401.06,-291 1401.06,-291 1401.06,-291 1401.06,-233 1401.06,-200.936 1399.77,-163.634 1398.88,-141.745"/>
<polygon fill="midnightblue" stroke="midnightblue" points="1402.37,-141.399 1398.45,-131.556 1395.37,-141.694 1402.37,-141.399"/>
</g>
<!-- Node25&#45;&gt;Node24 -->
<g id="edge234" class="edge"><title>Node25&#45;&gt;Node24</title>
<path fill="none" stroke="midnightblue" d="M1153.59,-737.445C1363.62,-738.967 2245.06,-738.704 2245.06,-627 2245.06,-627 2245.06,-627 2245.06,-513 2245.06,-442.945 2234.17,-425.985 2231.06,-356 2230.66,-347.12 2230.27,-344.855 2231.06,-336 2231.83,-327.197 2233.45,-317.536 2235.02,-309.43"/>
<polygon fill="midnightblue" stroke="midnightblue" points="2238.47,-310.069 2237.07,-299.567 2231.61,-308.648 2238.47,-310.069"/>
</g>
<!-- Node26 -->
<g id="node85" class="node"><title>Node26</title>
<a xlink:href="_s_l_scene_8h.html" target="_top" xlink:title="SLScene.h">
<polygon fill="white" stroke="black" points="1753.06,-672.5 1753.06,-691.5 1821.06,-691.5 1821.06,-672.5 1753.06,-672.5"/>
<text text-anchor="middle" x="1787.06" y="-679.5" font-family="Arial.ttf" font-size="10.00">SLScene.h</text>
</a>
</g>
<!-- Node25&#45;&gt;Node26 -->
<g id="edge118" class="edge"><title>Node25&#45;&gt;Node26</title>
<path fill="none" stroke="midnightblue" d="M1153.8,-733.436C1276.99,-723.624 1620.09,-696.298 1742.75,-686.529"/>
<polygon fill="midnightblue" stroke="midnightblue" points="1743.21,-690.003 1752.9,-685.72 1742.66,-683.025 1743.21,-690.003"/>
</g>
<!-- Node43 -->
<g id="node155" class="node"><title>Node43</title>
<a xlink:href="_s_l_skybox_8h.html" target="_top" xlink:title="SLSkybox.h">
<polygon fill="white" stroke="black" points="1161.06,-448.5 1161.06,-467.5 1233.06,-467.5 1233.06,-448.5 1161.06,-448.5"/>
<text text-anchor="middle" x="1197.06" y="-455.5" font-family="Arial.ttf" font-size="10.00">SLSkybox.h</text>
</a>
</g>
<!-- Node25&#45;&gt;Node43 -->
<g id="edge224" class="edge"><title>Node25&#45;&gt;Node43</title>
<path fill="none" stroke="midnightblue" d="M1114.34,-728.231C1124.78,-710.043 1147.06,-666.601 1147.06,-627 1147.06,-627 1147.06,-627 1147.06,-569 1147.06,-533.184 1169.3,-496.214 1184.11,-475.56"/>
<polygon fill="midnightblue" stroke="midnightblue" points="1186.93,-477.629 1190.1,-467.519 1181.32,-473.446 1186.93,-477.629"/>
</g>
<!-- Node44 -->
<g id="node162" class="node"><title>Node44</title>
<a xlink:href="_s_l_pathtracer_8h.html" target="_top" xlink:title="SLPathtracer.h">
<polygon fill="white" stroke="black" points="2273.06,-336.5 2273.06,-355.5 2361.06,-355.5 2361.06,-336.5 2273.06,-336.5"/>
<text text-anchor="middle" x="2317.06" y="-343.5" font-family="Arial.ttf" font-size="10.00">SLPathtracer.h</text>
</a>
</g>
<!-- Node25&#45;&gt;Node44 -->
<g id="edge236" class="edge"><title>Node25&#45;&gt;Node44</title>
<path fill="none" stroke="midnightblue" d="M1153.56,-736.633C1359.7,-734.759 2213.59,-725.021 2259.06,-692 2283.97,-673.904 2283.06,-657.795 2283.06,-627 2283.06,-627 2283.06,-627 2283.06,-457 2283.06,-423.16 2297.93,-385.97 2308,-364.661"/>
<polygon fill="midnightblue" stroke="midnightblue" points="2311.2,-366.079 2312.47,-355.56 2304.92,-362.991 2311.2,-366.079"/>
</g>
<!-- Node45 -->
<g id="node168" class="node"><title>Node45</title>
<a xlink:href="_s_l_g_l_oculus_f_b_8h.html" target="_top" xlink:title="SLGLOculusFB.h">
<polygon fill="white" stroke="black" points="360.555,-504.5 360.555,-523.5 455.555,-523.5 455.555,-504.5 360.555,-504.5"/>
<text text-anchor="middle" x="408.055" y="-511.5" font-family="Arial.ttf" font-size="10.00">SLGLOculusFB.h</text>
</a>
</g>
<!-- Node25&#45;&gt;Node45 -->
<g id="edge246" class="edge"><title>Node25&#45;&gt;Node45</title>
<path fill="none" stroke="midnightblue" d="M1064.29,-735.847C962.351,-732.72 715.817,-722.183 639.055,-692 545.032,-655.03 456.95,-567.818 422.897,-531.413"/>
<polygon fill="midnightblue" stroke="midnightblue" points="425.126,-528.667 415.773,-523.689 419.98,-533.413 425.126,-528.667"/>
</g>
<!-- Node46 -->
<g id="node174" class="node"><title>Node46</title>
<a xlink:href="_s_l_g_l_im_gui_8h.html" target="_top" xlink:title="SLGLImGui.h">
<polygon fill="white" stroke="black" points="980.055,-672.5 980.055,-691.5 1058.06,-691.5 1058.06,-672.5 980.055,-672.5"/>
<text text-anchor="middle" x="1019.06" y="-679.5" font-family="Arial.ttf" font-size="10.00">SLGLImGui.h</text>
</a>
</g>
<!-- Node25&#45;&gt;Node46 -->
<g id="edge256" class="edge"><title>Node25&#45;&gt;Node46</title>
<path fill="none" stroke="midnightblue" d="M1094.6,-728.324C1080.56,-719.9 1059.01,-706.971 1042.51,-697.074"/>
<polygon fill="midnightblue" stroke="midnightblue" points="1043.86,-693.798 1033.48,-691.655 1040.25,-699.801 1043.86,-693.798"/>
</g>
<!-- Node26&#45;&gt;Node2 -->
<g id="edge120" class="edge"><title>Node26&#45;&gt;Node2</title>
<path fill="none" stroke="midnightblue" d="M1821.12,-673.477C1847.66,-666.559 1884.65,-654.528 1913.06,-636 1941.76,-617.278 1946.2,-607.933 1966.06,-580 2089.83,-405.834 2187.05,-294.578 2076.06,-112 2047.97,-65.7984 2020.24,-70.1407 1968.06,-56 1804.9,-11.7926 1269.34,-10.3328 1121.91,-10.7966"/>
<polygon fill="midnightblue" stroke="midnightblue" points="1121.58,-7.29776 1111.59,-10.8344 1121.6,-14.2977 1121.58,-7.29776"/>
</g>
<!-- Node26&#45;&gt;Node12 -->
<g id="edge130" class="edge"><title>Node26&#45;&gt;Node12</title>
<path fill="none" stroke="midnightblue" d="M1753.05,-679.866C1685.81,-676.965 1539.06,-667.145 1501.06,-636 1477.24,-616.479 1477.06,-601.795 1477.06,-571 1477.06,-571 1477.06,-571 1477.06,-513 1477.06,-416.329 1325.98,-402.813 1250.68,-402.079"/>
<polygon fill="midnightblue" stroke="midnightblue" points="1250.6,-398.579 1240.59,-402.053 1250.58,-405.579 1250.6,-398.579"/>
</g>
<!-- Node26&#45;&gt;Node14 -->
<g id="edge124" class="edge"><title>Node26&#45;&gt;Node14</title>
<path fill="none" stroke="midnightblue" d="M1752.88,-674.661C1679.83,-660.135 1515.06,-621.747 1515.06,-571 1515.06,-571 1515.06,-571 1515.06,-345 1515.06,-259.09 1445.64,-173.81 1413.74,-139.163"/>
<polygon fill="midnightblue" stroke="midnightblue" points="1416.25,-136.72 1406.85,-131.832 1411.15,-141.515 1416.25,-136.72"/>
</g>
<!-- Node26&#45;&gt;Node16 -->
<g id="edge122" class="edge"><title>Node26&#45;&gt;Node16</title>
<path fill="none" stroke="midnightblue" d="M1753.04,-681.018C1689.71,-680.094 1550.17,-673.533 1440.06,-636 1299.79,-588.189 1252.14,-577.283 1152.06,-468 1124.19,-437.569 1107.54,-391.082 1099.97,-365.492"/>
<polygon fill="midnightblue" stroke="midnightblue" points="1103.27,-364.305 1097.2,-355.625 1096.53,-366.199 1103.27,-364.305"/>
</g>
<!-- Node27 -->
<g id="node90" class="node"><title>Node27</title>
<a xlink:href="_s_l_light_8h.html" target="_top" xlink:title="SLLight.h">
<polygon fill="white" stroke="black" points="2022.56,-560.5 2022.56,-579.5 2083.56,-579.5 2083.56,-560.5 2022.56,-560.5"/>
<text text-anchor="middle" x="2053.06" y="-567.5" font-family="Arial.ttf" font-size="10.00">SLLight.h</text>
</a>
</g>
<!-- Node26&#45;&gt;Node27 -->
<g id="edge126" class="edge"><title>Node26&#45;&gt;Node27</title>
<path fill="none" stroke="midnightblue" d="M1821.07,-681.685C1867.17,-681.023 1950.36,-674.05 2008.06,-636 2025.37,-624.58 2037.92,-603.991 2045.3,-589.039"/>
<polygon fill="midnightblue" stroke="midnightblue" points="2048.57,-590.316 2049.58,-579.769 2042.21,-587.383 2048.57,-590.316"/>
</g>
<!-- Node28 -->
<g id="node94" class="node"><title>Node28</title>
<a xlink:href="_s_l_skeleton_8h.html" target="_top" xlink:title="SLSkeleton.h">
<polygon fill="white" stroke="black" points="1643.06,-560.5 1643.06,-579.5 1723.06,-579.5 1723.06,-560.5 1643.06,-560.5"/>
<text text-anchor="middle" x="1683.06" y="-567.5" font-family="Arial.ttf" font-size="10.00">SLSkeleton.h</text>
</a>
</g>
<!-- Node26&#45;&gt;Node28 -->
<g id="edge132" class="edge"><title>Node26&#45;&gt;Node28</title>
<path fill="none" stroke="midnightblue" d="M1772.62,-672.419C1759.5,-664.165 1740.11,-650.788 1726.06,-636 1712.41,-621.634 1700.3,-602.432 1692.44,-588.629"/>
<polygon fill="midnightblue" stroke="midnightblue" points="1695.4,-586.746 1687.51,-579.679 1689.27,-590.126 1695.4,-586.746"/>
</g>
<!-- Node32 -->
<g id="node110" class="node"><title>Node32</title>
<a xlink:href="_s_l_g_l_oculus_8h.html" target="_top" xlink:title="SLGLOculus.h">
<polygon fill="white" stroke="black" points="1365.56,-504.5 1365.56,-523.5 1448.56,-523.5 1448.56,-504.5 1365.56,-504.5"/>
<text text-anchor="middle" x="1407.06" y="-511.5" font-family="Arial.ttf" font-size="10.00">SLGLOculus.h</text>
</a>
</g>
<!-- Node26&#45;&gt;Node32 -->
<g id="edge156" class="edge"><title>Node26&#45;&gt;Node32</title>
<path fill="none" stroke="midnightblue" d="M1753.05,-680.312C1679.48,-678.193 1508.51,-669.682 1463.06,-636 1429.53,-611.161 1415.45,-561.313 1410.06,-533.989"/>
<polygon fill="midnightblue" stroke="midnightblue" points="1413.44,-533.028 1408.25,-523.796 1406.55,-534.254 1413.44,-533.028"/>
</g>
<!-- Node38 -->
<g id="node132" class="node"><title>Node38</title>
<a xlink:href="_s_l_anim_manager_8h.html" target="_top" xlink:title="SLAnimManager.h">
<polygon fill="white" stroke="black" points="1735.06,-616.5 1735.06,-635.5 1839.06,-635.5 1839.06,-616.5 1735.06,-616.5"/>
<text text-anchor="middle" x="1787.06" y="-623.5" font-family="Arial.ttf" font-size="10.00">SLAnimManager.h</text>
</a>
</g>
<!-- Node26&#45;&gt;Node38 -->
<g id="edge188" class="edge"><title>Node26&#45;&gt;Node38</title>
<path fill="none" stroke="midnightblue" d="M1787.06,-672.083C1787.06,-665.006 1787.06,-654.861 1787.06,-645.986"/>
<polygon fill="midnightblue" stroke="midnightblue" points="1790.56,-645.751 1787.06,-635.751 1783.56,-645.751 1790.56,-645.751"/>
</g>
<!-- Node39 -->
<g id="node139" class="node"><title>Node39</title>
<a xlink:href="_s_l_average_8h.html" target="_top" xlink:title="SLAverage.h">
<polygon fill="white" stroke="black" points="2101.56,-560.5 2101.56,-579.5 2178.56,-579.5 2178.56,-560.5 2101.56,-560.5"/>
<text text-anchor="middle" x="2140.06" y="-567.5" font-family="Arial.ttf" font-size="10.00">SLAverage.h</text>
</a>
</g>
<!-- Node26&#45;&gt;Node39 -->
<g id="edge200" class="edge"><title>Node26&#45;&gt;Node39</title>
<path fill="none" stroke="midnightblue" d="M1821.12,-678.699C1869.6,-674.558 1960.62,-663.548 2033.06,-636 2065.97,-623.482 2100.08,-600.772 2120.69,-585.786"/>
<polygon fill="midnightblue" stroke="midnightblue" points="2122.96,-588.465 2128.91,-579.699 2118.79,-582.841 2122.96,-588.465"/>
</g>
<!-- Node40 -->
<g id="node142" class="node"><title>Node40</title>
<a xlink:href="_s_l_c_v_calibration_8h.html" target="_top" xlink:title="SLCVCalibration.h">
<polygon fill="white" stroke="black" points="1947.06,-112.5 1947.06,-131.5 2049.06,-131.5 2049.06,-112.5 1947.06,-112.5"/>
<text text-anchor="middle" x="1998.06" y="-119.5" font-family="Arial.ttf" font-size="10.00">SLCVCalibration.h</text>
</a>
</g>
<!-- Node26&#45;&gt;Node40 -->
<g id="edge204" class="edge"><title>Node26&#45;&gt;Node40</title>
<path fill="none" stroke="midnightblue" d="M1817.13,-672.497C1838.42,-665.354 1866.68,-653.478 1887.06,-636 1954.61,-578.047 1970.55,-553.272 1996.06,-468 2031.88,-348.23 2010.62,-194.433 2001.54,-141.704"/>
<polygon fill="midnightblue" stroke="midnightblue" points="2004.93,-140.76 1999.72,-131.533 1998.04,-141.994 2004.93,-140.76"/>
</g>
<!-- Node41 -->
<g id="node147" class="node"><title>Node41</title>
<a xlink:href="_s_l_device_rotation_8h.html" target="_top" xlink:title="SLDeviceRotation.h">
<polygon fill="white" stroke="black" points="2106.06,-616.5 2106.06,-635.5 2216.06,-635.5 2216.06,-616.5 2106.06,-616.5"/>
<text text-anchor="middle" x="2161.06" y="-623.5" font-family="Arial.ttf" font-size="10.00">SLDeviceRotation.h</text>
</a>
</g>
<!-- Node26&#45;&gt;Node41 -->
<g id="edge212" class="edge"><title>Node26&#45;&gt;Node41</title>
<path fill="none" stroke="midnightblue" d="M1821.24,-676.065C1883.4,-667.089 2015.92,-647.955 2095.87,-636.412"/>
<polygon fill="midnightblue" stroke="midnightblue" points="2096.43,-639.867 2105.83,-634.974 2095.43,-632.939 2096.43,-639.867"/>
</g>
<!-- Node42 -->
<g id="node150" class="node"><title>Node42</title>
<a xlink:href="_s_l_device_location_8h.html" target="_top" xlink:title="SLDeviceLocation.h">
<polygon fill="white" stroke="red" points="1877.06,-448.5 1877.06,-467.5 1987.06,-467.5 1987.06,-448.5 1877.06,-448.5"/>
<text text-anchor="middle" x="1932.06" y="-455.5" font-family="Arial.ttf" font-size="10.00">SLDeviceLocation.h</text>
</a>
</g>
<!-- Node26&#45;&gt;Node42 -->
<g id="edge216" class="edge"><title>Node26&#45;&gt;Node42</title>
<path fill="none" stroke="midnightblue" d="M1811.01,-672.411C1828.36,-665.105 1851.28,-653.063 1866.06,-636 1907.14,-588.555 1923.68,-513.136 1929.42,-478.077"/>
<polygon fill="midnightblue" stroke="midnightblue" points="1932.93,-478.245 1930.97,-467.834 1926.01,-477.198 1932.93,-478.245"/>
</g>
<!-- Node27&#45;&gt;Node2 -->
<g id="edge128" class="edge"><title>Node27&#45;&gt;Node2</title>
<path fill="none" stroke="midnightblue" d="M2065.24,-560.241C2087.18,-543.35 2131.06,-503.949 2131.06,-459 2131.06,-459 2131.06,-459 2131.06,-345 2131.06,-280.592 2155.32,-100.806 2109.06,-56 2072.93,-21.0136 1302.59,-12.7336 1121.79,-11.2693"/>
<polygon fill="midnightblue" stroke="midnightblue" points="1121.73,-7.76881 1111.7,-11.1898 1121.67,-14.7686 1121.73,-7.76881"/>
</g>
<!-- Node28&#45;&gt;Node2 -->
<g id="edge134" class="edge"><title>Node28&#45;&gt;Node2</title>
<path fill="none" stroke="midnightblue" d="M1666.42,-560.464C1653.57,-552.841 1636.72,-540.356 1629.06,-524 1606.25,-475.299 1629.06,-456.778 1629.06,-403 1629.06,-403 1629.06,-403 1629.06,-121 1629.06,-86.6051 1616.5,-73.7773 1587.06,-56 1547.51,-32.1263 1232.23,-17.0643 1121.97,-12.4841"/>
<polygon fill="midnightblue" stroke="midnightblue" points="1121.79,-8.97384 1111.65,-12.0615 1121.5,-15.968 1121.79,-8.97384"/>
</g>
<!-- Node29 -->
<g id="node97" class="node"><title>Node29</title>
<a xlink:href="_s_l_joint_8h.html" target="_top" xlink:title="SLJoint.h">
<polygon fill="white" stroke="black" points="1543.06,-448.5 1543.06,-467.5 1601.06,-467.5 1601.06,-448.5 1543.06,-448.5"/>
<text text-anchor="middle" x="1572.06" y="-455.5" font-family="Arial.ttf" font-size="10.00">SLJoint.h</text>
</a>
</g>
<!-- Node28&#45;&gt;Node29 -->
<g id="edge136" class="edge"><title>Node28&#45;&gt;Node29</title>
<path fill="none" stroke="midnightblue" d="M1654.96,-560.494C1636.01,-553.459 1611.7,-541.715 1596.06,-524 1584.49,-510.911 1578.33,-491.761 1575.15,-477.636"/>
<polygon fill="midnightblue" stroke="midnightblue" points="1578.55,-476.746 1573.21,-467.596 1571.67,-478.08 1578.55,-476.746"/>
</g>
<!-- Node30 -->
<g id="node101" class="node"><title>Node30</title>
<a xlink:href="_s_l_animation_8h.html" target="_top" xlink:title="SLAnimation.h">
<polygon fill="white" stroke="red" points="1638.06,-504.5 1638.06,-523.5 1724.06,-523.5 1724.06,-504.5 1638.06,-504.5"/>
<text text-anchor="middle" x="1681.06" y="-511.5" font-family="Arial.ttf" font-size="10.00">SLAnimation.h</text>
</a>
</g>
<!-- Node28&#45;&gt;Node30 -->
<g id="edge142" class="edge"><title>Node28&#45;&gt;Node30</title>
<path fill="none" stroke="midnightblue" d="M1682.73,-560.083C1682.46,-553.006 1682.09,-542.861 1681.76,-533.986"/>
<polygon fill="midnightblue" stroke="midnightblue" points="1685.25,-533.615 1681.38,-523.751 1678.25,-533.874 1685.25,-533.615"/>
</g>
<!-- Node31 -->
<g id="node106" class="node"><title>Node31</title>
<a xlink:href="_s_l_anim_playback_8h.html" target="_top" xlink:title="SLAnimPlayback.h">
<polygon fill="white" stroke="black" points="1742.06,-504.5 1742.06,-523.5 1846.06,-523.5 1846.06,-504.5 1742.06,-504.5"/>
<text text-anchor="middle" x="1794.06" y="-511.5" font-family="Arial.ttf" font-size="10.00">SLAnimPlayback.h</text>
</a>
</g>
<!-- Node28&#45;&gt;Node31 -->
<g id="edge150" class="edge"><title>Node28&#45;&gt;Node31</title>
<path fill="none" stroke="midnightblue" d="M1700.89,-560.324C1718.77,-551.625 1746.53,-538.12 1767.1,-528.113"/>
<polygon fill="midnightblue" stroke="midnightblue" points="1768.8,-531.177 1776.27,-523.655 1765.74,-524.882 1768.8,-531.177"/>
</g>
<!-- Node29&#45;&gt;Node2 -->
<g id="edge138" class="edge"><title>Node29&#45;&gt;Node2</title>
<path fill="none" stroke="midnightblue" d="M1573.43,-448.312C1581.6,-395.256 1621.7,-115.23 1567.06,-56 1537.04,-23.4657 1230.54,-14.0184 1121.95,-11.6807"/>
<polygon fill="midnightblue" stroke="midnightblue" points="1121.84,-8.17795 1111.77,-11.4702 1121.7,-15.1764 1121.84,-8.17795"/>
</g>
<!-- Node29&#45;&gt;Node12 -->
<g id="edge140" class="edge"><title>Node29&#45;&gt;Node12</title>
<path fill="none" stroke="midnightblue" d="M1542.96,-452.672C1478.77,-443.123 1324.82,-420.221 1250.53,-409.17"/>
<polygon fill="midnightblue" stroke="midnightblue" points="1251.01,-405.702 1240.6,-407.692 1249.98,-412.626 1251.01,-405.702"/>
</g>
<!-- Node30&#45;&gt;Node2 -->
<g id="edge144" class="edge"><title>Node30&#45;&gt;Node2</title>
<path fill="none" stroke="midnightblue" d="M1686.2,-504.489C1706.6,-469.696 1779.34,-334.874 1752.06,-224 1741.99,-183.076 1699.24,-79.1971 1664.06,-56 1618.93,-26.2538 1243.81,-14.7915 1122.06,-11.8331"/>
<polygon fill="midnightblue" stroke="midnightblue" points="1121.82,-8.3266 1111.74,-11.5882 1121.65,-15.3246 1121.82,-8.3266"/>
</g>
<!-- Node30&#45;&gt;Node11 -->
<g id="edge148" class="edge"><title>Node30&#45;&gt;Node11</title>
<path fill="none" stroke="midnightblue" d="M1678.84,-504.426C1666.22,-457.314 1598.96,-227.861 1458.06,-112 1431.5,-90.1672 1394.11,-78.8391 1364.79,-73.0123"/>
<polygon fill="midnightblue" stroke="midnightblue" points="1365.26,-69.5395 1354.79,-71.1725 1363.99,-76.424 1365.26,-69.5395"/>
</g>
<!-- Node30&#45;&gt;Node29 -->
<g id="edge146" class="edge"><title>Node30&#45;&gt;Node29</title>
<path fill="none" stroke="midnightblue" d="M1663.54,-504.324C1645.98,-495.625 1618.72,-482.12 1598.52,-472.113"/>
<polygon fill="midnightblue" stroke="midnightblue" points="1600.04,-468.958 1589.52,-467.655 1596.93,-475.23 1600.04,-468.958"/>
</g>
<!-- Node31&#45;&gt;Node2 -->
<g id="edge152" class="edge"><title>Node31&#45;&gt;Node2</title>
<path fill="none" stroke="midnightblue" d="M1797.73,-504.458C1816.2,-460.192 1895.11,-253.504 1823.06,-112 1803.85,-74.2919 1785.83,-70.4437 1746.06,-56 1630.06,-13.8774 1244.52,-10.7418 1121.87,-10.8393"/>
<polygon fill="midnightblue" stroke="midnightblue" points="1121.82,-7.33927 1111.83,-10.8552 1121.83,-14.3393 1121.82,-7.33927"/>
</g>
<!-- Node31&#45;&gt;Node11 -->
<g id="edge154" class="edge"><title>Node31&#45;&gt;Node11</title>
<path fill="none" stroke="midnightblue" d="M1790.32,-504.343C1768.9,-455.812 1656.44,-216.017 1483.06,-112 1446.69,-90.1829 1399.5,-78.6814 1365.08,-72.7882"/>
<polygon fill="midnightblue" stroke="midnightblue" points="1365.27,-69.2729 1354.84,-71.1341 1364.15,-76.1834 1365.27,-69.2729"/>
</g>
<!-- Node32&#45;&gt;Node2 -->
<g id="edge158" class="edge"><title>Node32&#45;&gt;Node2</title>
<path fill="none" stroke="midnightblue" d="M1411.37,-504.408C1420.11,-486.2 1439.06,-442.181 1439.06,-403 1439.06,-403 1439.06,-403 1439.06,-289 1439.06,-209.881 1492.82,-183.073 1458.06,-112 1440.24,-75.5827 1423.32,-71.954 1386.06,-56 1296.83,-17.802 1180.74,-11.225 1121.87,-10.5766"/>
<polygon fill="midnightblue" stroke="midnightblue" points="1121.58,-7.07502 1111.56,-10.5183 1121.54,-14.0749 1121.58,-7.07502"/>
</g>
<!-- Node32&#45;&gt;Node33 -->
<g id="edge160" class="edge"><title>Node32&#45;&gt;Node33</title>
<path fill="none" stroke="midnightblue" d="M1365.41,-510.539C1215.13,-501.661 701.282,-471.302 541.122,-461.84"/>
<polygon fill="midnightblue" stroke="midnightblue" points="541.281,-458.343 531.092,-461.247 540.868,-465.331 541.281,-458.343"/>
</g>
<!-- Node33&#45;&gt;Node2 -->
<g id="edge162" class="edge"><title>Node33&#45;&gt;Node2</title>
<path fill="none" stroke="midnightblue" d="M487.772,-448.231C477.33,-430.043 455.055,-386.601 455.055,-347 455.055,-347 455.055,-347 455.055,-289 455.055,-258.902 460.639,-250.942 474.055,-224 479.241,-213.586 588.913,-61.6976 599.055,-56 675.437,-13.0932 945.894,-10.1628 1046.23,-10.6048"/>
<polygon fill="midnightblue" stroke="midnightblue" points="1046.48,-14.1062 1056.5,-10.6647 1046.52,-7.10633 1046.48,-14.1062"/>
</g>
<!-- Node33&#45;&gt;Node7 -->
<g id="edge186" class="edge"><title>Node33&#45;&gt;Node7</title>
<path fill="none" stroke="midnightblue" d="M493.011,-448.238C493.132,-421.948 495.383,-341.738 517.055,-280 520.482,-270.237 526.182,-260.281 531.464,-252.224"/>
<polygon fill="midnightblue" stroke="midnightblue" points="534.505,-253.98 537.311,-243.763 528.746,-250 534.505,-253.98"/>
</g>
<!-- Node33&#45;&gt;Node11 -->
<g id="edge164" class="edge"><title>Node33&#45;&gt;Node11</title>
<path fill="none" stroke="midnightblue" d="M531.064,-456.872C684.368,-455.35 1249.06,-439.654 1249.06,-291 1249.06,-291 1249.06,-291 1249.06,-233 1249.06,-174.579 1286.32,-113.038 1306.47,-84.0305"/>
<polygon fill="midnightblue" stroke="midnightblue" points="1309.38,-85.9741 1312.34,-75.8009 1303.69,-81.9082 1309.38,-85.9741"/>
</g>
<!-- Node33&#45;&gt;Node12 -->
<g id="edge166" class="edge"><title>Node33&#45;&gt;Node12</title>
<path fill="none" stroke="midnightblue" d="M531.298,-454.116C654.332,-444.837 1039.36,-415.798 1167.27,-406.151"/>
<polygon fill="midnightblue" stroke="midnightblue" points="1167.73,-409.627 1177.44,-405.384 1167.21,-402.646 1167.73,-409.627"/>
</g>
<!-- Node33&#45;&gt;Node15 -->
<g id="edge184" class="edge"><title>Node33&#45;&gt;Node15</title>
<path fill="none" stroke="midnightblue" d="M466.118,-448.444C437.395,-439.32 391.727,-424.813 359.734,-414.651"/>
<polygon fill="midnightblue" stroke="midnightblue" points="360.457,-411.208 349.866,-411.516 358.338,-417.88 360.457,-411.208"/>
</g>
<!-- Node34 -->
<g id="node118" class="node"><title>Node34</title>
<a xlink:href="_s_l_g_l_state_8h.html" target="_top" xlink:title="SLGLState.h">
<polygon fill="white" stroke="black" points="521.555,-392.5 521.555,-411.5 598.555,-411.5 598.555,-392.5 521.555,-392.5"/>
<text text-anchor="middle" x="560.055" y="-399.5" font-family="Arial.ttf" font-size="10.00">SLGLState.h</text>
</a>
</g>
<!-- Node33&#45;&gt;Node34 -->
<g id="edge168" class="edge"><title>Node33&#45;&gt;Node34</title>
<path fill="none" stroke="midnightblue" d="M503.82,-448.324C513.822,-440.263 528.942,-428.077 540.986,-418.369"/>
<polygon fill="midnightblue" stroke="midnightblue" points="543.505,-420.834 549.095,-411.834 539.113,-415.384 543.505,-420.834"/>
</g>
<!-- Node36 -->
<g id="node123" class="node"><title>Node36</title>
<a xlink:href="_s_l_samples2_d_8h.html" target="_top" xlink:title="SLSamples2D.h">
<polygon fill="white" stroke="black" points="104.555,-168.5 104.555,-187.5 197.555,-187.5 197.555,-168.5 104.555,-168.5"/>
<text text-anchor="middle" x="151.055" y="-175.5" font-family="Arial.ttf" font-size="10.00">SLSamples2D.h</text>
</a>
</g>
<!-- Node33&#45;&gt;Node36 -->
<g id="edge174" class="edge"><title>Node33&#45;&gt;Node36</title>
<path fill="none" stroke="midnightblue" d="M454.864,-451.669C412.71,-445.107 343.25,-432.274 286.055,-412 233.975,-393.539 207.123,-400.999 175.055,-356 140.615,-307.673 144.254,-232.69 148.287,-197.909"/>
<polygon fill="midnightblue" stroke="midnightblue" points="151.789,-198.12 149.615,-187.751 144.848,-197.213 151.789,-198.12"/>
</g>
<!-- Node37 -->
<g id="node126" class="node"><title>Node37</title>
<a xlink:href="_s_l_background_8h.html" target="_top" xlink:title="SLBackground.h">
<polygon fill="white" stroke="black" points="255.555,-224.5 255.555,-243.5 350.555,-243.5 350.555,-224.5 255.555,-224.5"/>
<text text-anchor="middle" x="303.055" y="-231.5" font-family="Arial.ttf" font-size="10.00">SLBackground.h</text>
</a>
</g>
<!-- Node33&#45;&gt;Node37 -->
<g id="edge178" class="edge"><title>Node33&#45;&gt;Node37</title>
<path fill="none" stroke="midnightblue" d="M473.189,-448.449C431.113,-429.922 335.289,-385.379 316.055,-356 295.684,-324.882 297.182,-279.344 300.106,-253.932"/>
<polygon fill="midnightblue" stroke="midnightblue" points="303.604,-254.176 301.476,-243.797 296.668,-253.238 303.604,-254.176"/>
</g>
<!-- Node34&#45;&gt;Node2 -->
<g id="edge170" class="edge"><title>Node34&#45;&gt;Node2</title>
<path fill="none" stroke="midnightblue" d="M569.837,-392.334C587.542,-376.076 624.848,-339.097 644.055,-300 668.352,-250.546 671.055,-234.1 671.055,-179 671.055,-179 671.055,-179 671.055,-121 671.055,-90.2048 670.844,-75.0299 695.055,-56 748.932,-13.6543 959.178,-10.0956 1046.11,-10.4957"/>
<polygon fill="midnightblue" stroke="midnightblue" points="1046.3,-13.9969 1056.33,-10.5639 1046.35,-6.99709 1046.3,-13.9969"/>
</g>
<!-- Node35 -->
<g id="node121" class="node"><title>Node35</title>
<a xlink:href="_s_l_stack_8h.html" target="_top" xlink:title="SLStack.h">
<polygon fill="white" stroke="red" points="521.555,-336.5 521.555,-355.5 586.555,-355.5 586.555,-336.5 521.555,-336.5"/>
<text text-anchor="middle" x="554.055" y="-343.5" font-family="Arial.ttf" font-size="10.00">SLStack.h</text>
</a>
</g>
<!-- Node34&#45;&gt;Node35 -->
<g id="edge172" class="edge"><title>Node34&#45;&gt;Node35</title>
<path fill="none" stroke="midnightblue" d="M559.065,-392.083C558.27,-384.927 557.126,-374.635 556.132,-365.691"/>
<polygon fill="midnightblue" stroke="midnightblue" points="559.611,-365.303 555.028,-355.751 552.654,-366.076 559.611,-365.303"/>
</g>
<!-- Node36&#45;&gt;Node2 -->
<g id="edge176" class="edge"><title>Node36&#45;&gt;Node2</title>
<path fill="none" stroke="midnightblue" d="M152.421,-168.321C156.555,-145.293 171.261,-82.5939 212.055,-56 282.581,-10.0248 887.326,-9.95511 1046.04,-10.7407"/>
<polygon fill="midnightblue" stroke="midnightblue" points="1046.24,-14.2417 1056.26,-10.7957 1046.28,-7.24184 1046.24,-14.2417"/>
</g>
<!-- Node37&#45;&gt;Node2 -->
<g id="edge180" class="edge"><title>Node37&#45;&gt;Node2</title>
<path fill="none" stroke="midnightblue" d="M303.917,-224.422C307.383,-194.959 323.153,-97.4407 383.055,-56 437.732,-18.1749 907.915,-12.1383 1046.05,-11.1798"/>
<polygon fill="midnightblue" stroke="midnightblue" points="1046.18,-14.6791 1056.15,-11.1147 1046.13,-7.67928 1046.18,-14.6791"/>
</g>
<!-- Node37&#45;&gt;Node8 -->
<g id="edge182" class="edge"><title>Node37&#45;&gt;Node8</title>
<path fill="none" stroke="midnightblue" d="M319.283,-224.324C335.406,-215.703 360.356,-202.364 379.02,-192.386"/>
<polygon fill="midnightblue" stroke="midnightblue" points="380.7,-195.456 387.868,-187.655 377.399,-189.283 380.7,-195.456"/>
</g>
<!-- Node38&#45;&gt;Node2 -->
<g id="edge190" class="edge"><title>Node38&#45;&gt;Node2</title>
<path fill="none" stroke="midnightblue" d="M1795.3,-616.448C1810.47,-600.09 1842.38,-562.555 1855.06,-524 1871.31,-474.58 1904.77,-93.824 1869.06,-56 1843.14,-28.5585 1275.97,-14.9429 1122.21,-11.7476"/>
<polygon fill="midnightblue" stroke="midnightblue" points="1121.94,-8.24138 1111.87,-11.5355 1121.79,-15.2399 1121.94,-8.24138"/>
</g>
<!-- Node38&#45;&gt;Node28 -->
<g id="edge198" class="edge"><title>Node38&#45;&gt;Node28</title>
<path fill="none" stroke="midnightblue" d="M1770.35,-616.324C1753.74,-607.703 1728.05,-594.364 1708.83,-584.386"/>
<polygon fill="midnightblue" stroke="midnightblue" points="1710.21,-581.156 1699.72,-579.655 1706.99,-587.369 1710.21,-581.156"/>
</g>
<!-- Node38&#45;&gt;Node30 -->
<g id="edge192" class="edge"><title>Node38&#45;&gt;Node30</title>
<path fill="none" stroke="midnightblue" d="M1780.31,-616.241C1770.3,-603.422 1750.67,-579.009 1732.06,-560 1721.73,-549.455 1709.33,-538.479 1699.34,-530.007"/>
<polygon fill="midnightblue" stroke="midnightblue" points="1701.53,-527.278 1691.61,-523.544 1697.04,-532.646 1701.53,-527.278"/>
</g>
<!-- Node38&#45;&gt;Node31 -->
<g id="edge196" class="edge"><title>Node38&#45;&gt;Node31</title>
<path fill="none" stroke="midnightblue" d="M1787.6,-616.368C1788.73,-598.617 1791.34,-557.666 1792.87,-533.597"/>
<polygon fill="midnightblue" stroke="midnightblue" points="1796.37,-533.794 1793.51,-523.591 1789.38,-533.349 1796.37,-533.794"/>
</g>
<!-- Node38&#45;&gt;Node38 -->
<g id="edge194" class="edge"><title>Node38&#45;&gt;Node38</title>
<path fill="none" stroke="midnightblue" d="M1816.91,-635.525C1837.2,-638.308 1857.06,-635.133 1857.06,-626 1857.06,-618.437 1843.44,-614.96 1827.23,-615.568"/>
<polygon fill="midnightblue" stroke="midnightblue" points="1826.57,-612.113 1816.91,-616.475 1827.18,-619.086 1826.57,-612.113"/>
</g>
<!-- Node39&#45;&gt;Node2 -->
<g id="edge202" class="edge"><title>Node39&#45;&gt;Node2</title>
<path fill="none" stroke="midnightblue" d="M2143.97,-560.365C2151.88,-542.073 2169.06,-497.907 2169.06,-459 2169.06,-459 2169.06,-459 2169.06,-345 2169.06,-215.391 2233.13,-134.581 2130.06,-56 2089.2,-24.8508 1304.44,-13.6202 1121.81,-11.423"/>
<polygon fill="midnightblue" stroke="midnightblue" points="1121.66,-7.92108 1111.62,-11.3023 1121.58,-14.9206 1121.66,-7.92108"/>
</g>
<!-- Node40&#45;&gt;Node2 -->
<g id="edge206" class="edge"><title>Node40&#45;&gt;Node2</title>
<path fill="none" stroke="midnightblue" d="M1993.5,-112.285C1985.28,-97.5977 1966.44,-68.3159 1941.06,-56 1866.69,-19.9248 1277.34,-12.5792 1121.66,-11.2623"/>
<polygon fill="midnightblue" stroke="midnightblue" points="1121.66,-7.76228 1111.63,-11.1808 1121.6,-14.7621 1121.66,-7.76228"/>
</g>
<!-- Node40&#45;&gt;Node19 -->
<g id="edge208" class="edge"><title>Node40&#45;&gt;Node19</title>
<path fill="none" stroke="midnightblue" d="M1972.23,-112.444C1944.81,-103.359 1901.28,-88.9388 1870.62,-78.7831"/>
<polygon fill="midnightblue" stroke="midnightblue" points="1871.36,-75.3389 1860.76,-75.5164 1869.15,-81.9837 1871.36,-75.3389"/>
</g>
<!-- Node40&#45;&gt;Node40 -->
<g id="edge210" class="edge"><title>Node40&#45;&gt;Node40</title>
<path fill="none" stroke="midnightblue" d="M2027.48,-131.525C2047.48,-134.308 2067.06,-131.133 2067.06,-122 2067.06,-114.437 2053.63,-110.96 2037.66,-111.568"/>
<polygon fill="midnightblue" stroke="midnightblue" points="2037.13,-108.101 2027.48,-112.475 2037.76,-115.073 2037.13,-108.101"/>
</g>
<!-- Node41&#45;&gt;Node2 -->
<g id="edge214" class="edge"><title>Node41&#45;&gt;Node2</title>
<path fill="none" stroke="midnightblue" d="M2172.99,-616.444C2219.91,-581.725 2389.06,-445.81 2389.06,-291 2389.06,-291 2389.06,-291 2389.06,-121 2389.06,-57.5922 2323.4,-72.0322 2262.06,-56 2149.7,-26.6386 1310.67,-13.969 1121.76,-11.4724"/>
<polygon fill="midnightblue" stroke="midnightblue" points="1121.79,-7.97264 1111.75,-11.3416 1121.7,-14.972 1121.79,-7.97264"/>
</g>
<!-- Node42&#45;&gt;Node2 -->
<g id="edge218" class="edge"><title>Node42&#45;&gt;Node2</title>
<path fill="none" stroke="midnightblue" d="M1930.36,-448.483C1926.83,-430.056 1919.06,-385.076 1919.06,-347 1919.06,-347 1919.06,-347 1919.06,-177 1919.06,-122.754 1942.85,-92.8612 1903.06,-56 1874.04,-29.1301 1278.67,-15.0082 1121.71,-11.743"/>
<polygon fill="midnightblue" stroke="midnightblue" points="1121.67,-8.24152 1111.6,-11.5351 1121.53,-15.24 1121.67,-8.24152"/>
</g>
<!-- Node42&#45;&gt;Node12 -->
<g id="edge220" class="edge"><title>Node42&#45;&gt;Node12</title>
<path fill="none" stroke="midnightblue" d="M1876.82,-452.875C1737.62,-442.477 1374.71,-415.373 1251.04,-406.136"/>
<polygon fill="midnightblue" stroke="midnightblue" points="1251.09,-402.629 1240.85,-405.375 1250.56,-409.61 1251.09,-402.629"/>
</g>
<!-- Node43&#45;&gt;Node2 -->
<g id="edge226" class="edge"><title>Node43&#45;&gt;Node2</title>
<path fill="none" stroke="midnightblue" d="M1160.98,-450.82C1089.26,-436.739 927.616,-395.779 834.055,-300 793.513,-258.496 785.055,-237.02 785.055,-179 785.055,-179 785.055,-179 785.055,-121 785.055,-65.9481 965.844,-30.0009 1046.26,-16.7339"/>
<polygon fill="midnightblue" stroke="midnightblue" points="1047.15,-20.1361 1056.46,-15.0844 1046.03,-13.2259 1047.15,-20.1361"/>
</g>
<!-- Node43&#45;&gt;Node11 -->
<g id="edge228" class="edge"><title>Node43&#45;&gt;Node11</title>
<path fill="none" stroke="midnightblue" d="M1218,-448.383C1233.65,-440.931 1254.43,-428.714 1267.06,-412 1344.1,-310.034 1329.47,-141.793 1321.94,-85.7867"/>
<polygon fill="midnightblue" stroke="midnightblue" points="1325.37,-85.0042 1320.48,-75.6034 1318.44,-85.9995 1325.37,-85.0042"/>
</g>
<!-- Node43&#45;&gt;Node12 -->
<g id="edge230" class="edge"><title>Node43&#45;&gt;Node12</title>
<path fill="none" stroke="midnightblue" d="M1199.04,-448.083C1200.63,-440.927 1202.91,-430.635 1204.9,-421.691"/>
<polygon fill="midnightblue" stroke="midnightblue" points="1208.36,-422.272 1207.11,-411.751 1201.52,-420.754 1208.36,-422.272"/>
</g>
<!-- Node44&#45;&gt;Node2 -->
<g id="edge238" class="edge"><title>Node44&#45;&gt;Node2</title>
<path fill="none" stroke="midnightblue" d="M2316.53,-336.446C2315.45,-317.948 2313.06,-272.837 2313.06,-235 2313.06,-235 2313.06,-235 2313.06,-121 2313.06,-67.6185 2262.96,-72.0736 2212.06,-56 2106.29,-22.6046 1305.68,-13.0842 1121.67,-11.3271"/>
<polygon fill="midnightblue" stroke="midnightblue" points="1121.7,-7.82724 1111.67,-11.2334 1121.63,-14.8269 1121.7,-7.82724"/>
</g>
<!-- Node44&#45;&gt;Node24 -->
<g id="edge240" class="edge"><title>Node44&#45;&gt;Node24</title>
<path fill="none" stroke="midnightblue" d="M2304.52,-336.324C2292.47,-327.979 2274.03,-315.212 2259.79,-305.352"/>
<polygon fill="midnightblue" stroke="midnightblue" points="2261.77,-302.469 2251.56,-299.655 2257.79,-308.224 2261.77,-302.469"/>
</g>
<!-- Node45&#45;&gt;Node2 -->
<g id="edge248" class="edge"><title>Node45&#45;&gt;Node2</title>
<path fill="none" stroke="midnightblue" d="M360.296,-505.096C274.688,-490.013 100.022,-454.786 57.0555,-412 35.7284,-390.762 38.0555,-377.098 38.0555,-347 38.0555,-347 38.0555,-347 38.0555,-121 38.0555,-80.7686 64.3763,-72.529 101.055,-56 188.352,-16.6607 876.648,-11.712 1046.34,-11.0895"/>
<polygon fill="midnightblue" stroke="midnightblue" points="1046.55,-14.589 1056.53,-11.0552 1046.52,-7.58901 1046.55,-14.589"/>
</g>
<!-- Node45&#45;&gt;Node8 -->
<g id="edge250" class="edge"><title>Node45&#45;&gt;Node8</title>
<path fill="none" stroke="midnightblue" d="M407.953,-504.408C407.426,-460.475 405.032,-260.572 404.281,-197.87"/>
<polygon fill="midnightblue" stroke="midnightblue" points="407.777,-197.492 404.158,-187.535 400.778,-197.576 407.777,-197.492"/>
</g>
<!-- Node45&#45;&gt;Node33 -->
<g id="edge252" class="edge"><title>Node45&#45;&gt;Node33</title>
<path fill="none" stroke="midnightblue" d="M421.712,-504.324C434.972,-495.9 455.323,-482.971 470.902,-473.074"/>
<polygon fill="midnightblue" stroke="midnightblue" points="472.869,-475.971 479.433,-467.655 469.115,-470.063 472.869,-475.971"/>
</g>
<!-- Node46&#45;&gt;Node2 -->
<g id="edge258" class="edge"><title>Node46&#45;&gt;Node2</title>
<path fill="none" stroke="midnightblue" d="M979.957,-681.007C909.175,-678.744 767.055,-662.773 767.055,-571 767.055,-571 767.055,-571 767.055,-401 767.055,-301.934 747.055,-278.066 747.055,-179 747.055,-179 747.055,-179 747.055,-121 747.055,-75.8741 784.101,-74.9503 825.055,-56 898.293,-22.1114 993.92,-13.5685 1046.07,-11.5259"/>
<polygon fill="midnightblue" stroke="midnightblue" points="1046.33,-15.0193 1056.21,-11.1901 1046.1,-8.02316 1046.33,-15.0193"/>
</g>
<!-- Node47 -->
<g id="node177" class="node"><title>Node47</title>
<polygon fill="white" stroke="#bfbfbf" points="993.055,-616.5 993.055,-635.5 1045.06,-635.5 1045.06,-616.5 993.055,-616.5"/>
<text text-anchor="middle" x="1019.06" y="-623.5" font-family="Arial.ttf" font-size="10.00">imgui.h</text>
</g>
<!-- Node46&#45;&gt;Node47 -->
<g id="edge260" class="edge"><title>Node46&#45;&gt;Node47</title>
<path fill="none" stroke="midnightblue" d="M1019.06,-672.083C1019.06,-665.006 1019.06,-654.861 1019.06,-645.986"/>
<polygon fill="midnightblue" stroke="midnightblue" points="1022.56,-645.751 1019.06,-635.751 1015.56,-645.751 1022.56,-645.751"/>
</g>
<!-- Node49 -->
<g id="node183" class="node"><title>Node49</title>
<polygon fill="white" stroke="#bfbfbf" points="2540.56,-672.5 2540.56,-691.5 2591.56,-691.5 2591.56,-672.5 2540.56,-672.5"/>
<text text-anchor="middle" x="2566.06" y="-679.5" font-family="Arial.ttf" font-size="10.00">math.h</text>
</g>
<!-- Node48&#45;&gt;Node49 -->
<g id="edge268" class="edge"><title>Node48&#45;&gt;Node49</title>
<path fill="none" stroke="midnightblue" d="M2525.15,-728.083C2532.21,-720.298 2542.64,-708.801 2551.2,-699.367"/>
<polygon fill="midnightblue" stroke="midnightblue" points="2553.99,-701.509 2558.11,-691.751 2548.8,-696.805 2553.99,-701.509"/>
</g>
<!-- Node50 -->
<g id="node185" class="node"><title>Node50</title>
<polygon fill="white" stroke="#bfbfbf" points="2473.56,-672.5 2473.56,-691.5 2522.56,-691.5 2522.56,-672.5 2473.56,-672.5"/>
<text text-anchor="middle" x="2498.06" y="-679.5" font-family="Arial.ttf" font-size="10.00">stdio.h</text>
</g>
<!-- Node48&#45;&gt;Node50 -->
<g id="edge270" class="edge"><title>Node48&#45;&gt;Node50</title>
<path fill="none" stroke="midnightblue" d="M2513.92,-728.083C2511.37,-720.849 2507.7,-710.409 2504.53,-701.397"/>
<polygon fill="midnightblue" stroke="midnightblue" points="2507.76,-700.023 2501.13,-691.751 2501.15,-702.346 2507.76,-700.023"/>
</g>
</g>
</svg>
