<?xml version="1.0" encoding="UTF-8" standalone="no"?>
<!DOCTYPE svg PUBLIC "-//W3C//DTD SVG 1.1//EN"
 "http://www.w3.org/Graphics/SVG/1.1/DTD/svg11.dtd">
<!-- Generated by graphviz version 2.36.0 (20140111.2315)
 -->
<!-- Title: SLSkybox.h Pages: 1 -->
<svg width="2621pt" height="196pt"
 viewBox="0.00 0.00 2621.00 196.00" xmlns="http://www.w3.org/2000/svg" xmlns:xlink="http://www.w3.org/1999/xlink">
<g id="graph0" class="graph" transform="scale(1 1) rotate(0) translate(4 192)">
<title>SLSkybox.h</title>
<polygon fill="white" stroke="none" points="-4,4 -4,-192 2617,-192 2617,4 -4,4"/>
<!-- Node1 -->
<g id="node1" class="node"><title>Node1</title>
<polygon fill="#bfbfbf" stroke="black" points="861,-168.5 861,-187.5 931,-187.5 931,-168.5 861,-168.5"/>
<text text-anchor="middle" x="896" y="-175.5" font-family="Arial.ttf" font-size="10.00">SLSkybox.h</text>
</g>
<!-- Node2 -->
<g id="node2" class="node"><title>Node2</title>
<g id="a_node2"><a xlink:href="_s_l_skybox_8cpp.html" target="_top" xlink:title="SLSkybox.cpp">
<polygon fill="white" stroke="black" points="0,-56.5 0,-75.5 80,-75.5 80,-56.5 0,-56.5"/>
<text text-anchor="middle" x="40" y="-63.5" font-family="Arial.ttf" font-size="10.00">SLSkybox.cpp</text>
</a>
</g>
</g>
<!-- Node1&#45;&gt;Node2 -->
<g id="edge1" class="edge"><title>Node1&#45;&gt;Node2</title>
<path fill="none" stroke="midnightblue" d="M850.802,-173.995C765.022,-168.026 572.81,-153.382 412,-132 267.574,-112.797 232.43,-101.605 89,-76 86.105,-75.4832 83.1147,-74.9449 80.1054,-74.4"/>
<polygon fill="midnightblue" stroke="midnightblue" points="850.752,-177.5 860.97,-174.696 851.234,-170.516 850.752,-177.5"/>
</g>
<!-- Node3 -->
<g id="node3" class="node"><title>Node3</title>
<g id="a_node3"><a xlink:href="_s_l_mesh_8cpp.html" target="_top" xlink:title="SLMesh.cpp">
<polygon fill="white" stroke="black" points="98,-56.5 98,-75.5 170,-75.5 170,-56.5 98,-56.5"/>
<text text-anchor="middle" x="134" y="-63.5" font-family="Arial.ttf" font-size="10.00">SLMesh.cpp</text>
</a>
</g>
</g>
<!-- Node1&#45;&gt;Node3 -->
<g id="edge2" class="edge"><title>Node1&#45;&gt;Node3</title>
<path fill="none" stroke="midnightblue" d="M850.773,-171.546C737.386,-157.673 431.963,-119.077 179,-76 176.173,-75.5185 173.25,-74.9945 170.316,-74.4493"/>
<polygon fill="midnightblue" stroke="midnightblue" points="850.473,-175.035 860.824,-172.772 851.321,-168.087 850.473,-175.035"/>
</g>
<!-- Node4 -->
<g id="node4" class="node"><title>Node4</title>
<g id="a_node4"><a xlink:href="_s_l_scene_view_8h.html" target="_top" xlink:title="SLSceneView.h">
<polygon fill="white" stroke="black" points="1107.5,-112.5 1107.5,-131.5 1194.5,-131.5 1194.5,-112.5 1107.5,-112.5"/>
<text text-anchor="middle" x="1151" y="-119.5" font-family="Arial.ttf" font-size="10.00">SLSceneView.h</text>
</a>
</g>
</g>
<!-- Node1&#45;&gt;Node4 -->
<g id="edge3" class="edge"><title>Node1&#45;&gt;Node4</title>
<path fill="none" stroke="midnightblue" d="M941.009,-167.469C989.073,-157.29 1064.54,-141.309 1110.71,-131.531"/>
<polygon fill="midnightblue" stroke="midnightblue" points="940.247,-164.052 931.189,-169.548 941.697,-170.901 940.247,-164.052"/>
</g>
<!-- Node25 -->
<g id="node25" class="node"><title>Node25</title>
<g id="a_node25"><a xlink:href="_app_demo_load_8cpp.html" target="_top" xlink:title="AppDemoLoad.cpp">
<polygon fill="white" stroke="black" points="2511,-56.5 2511,-75.5 2613,-75.5 2613,-56.5 2511,-56.5"/>
<text text-anchor="middle" x="2562" y="-63.5" font-family="Arial.ttf" font-size="10.00">AppDemoLoad.cpp</text>
</a>
</g>
</g>
<!-- Node1&#45;&gt;Node25 -->
<g id="edge29" class="edge"><title>Node1&#45;&gt;Node25</title>
<path fill="none" stroke="midnightblue" d="M941.289,-175.538C1131.59,-169.104 1885.11,-140.698 2501,-76 2504.19,-75.6645 2507.48,-75.284 2510.78,-74.8737"/>
<polygon fill="midnightblue" stroke="midnightblue" points="940.982,-172.047 931.104,-175.88 941.216,-179.043 940.982,-172.047"/>
</g>
<!-- Node4&#45;&gt;Node2 -->
<g id="edge5" class="edge"><title>Node4&#45;&gt;Node2</title>
<path fill="none" stroke="midnightblue" d="M1097.05,-121.361C940.615,-121.839 473.524,-119.247 89,-76 86.0777,-75.6713 83.0673,-75.2712 80.0437,-74.8244"/>
<polygon fill="midnightblue" stroke="midnightblue" points="1097.35,-124.86 1107.33,-121.324 1097.32,-117.86 1097.35,-124.86"/>
</g>
<!-- Node4&#45;&gt;Node3 -->
<g id="edge14" class="edge"><title>Node4&#45;&gt;Node3</title>
<path fill="none" stroke="midnightblue" d="M1097.06,-121.353C949.504,-121.706 526.966,-118.603 179,-76 176.153,-75.6514 173.217,-75.2229 170.273,-74.7438"/>
<polygon fill="midnightblue" stroke="midnightblue" points="1097.22,-124.853 1107.21,-121.323 1097.2,-117.853 1097.22,-124.853"/>
</g>
<!-- Node5 -->
<g id="node5" class="node"><title>Node5</title>
<g id="a_node5"><a xlink:href="_s_l_interface_8cpp.html" target="_top" xlink:title="SLProject C&#45;functions interface implementation. ">
<polygon fill="white" stroke="black" points="1488.5,-56.5 1488.5,-75.5 1575.5,-75.5 1575.5,-56.5 1488.5,-56.5"/>
<text text-anchor="middle" x="1532" y="-63.5" font-family="Arial.ttf" font-size="10.00">SLInterface.cpp</text>
</a>
</g>
</g>
<!-- Node4&#45;&gt;Node5 -->
<g id="edge4" class="edge"><title>Node4&#45;&gt;Node5</title>
<path fill="none" stroke="midnightblue" d="M1204.58,-114.182C1269.59,-105.787 1382.47,-90.8139 1479,-76 1482.04,-75.5328 1485.18,-75.0365 1488.35,-74.5264"/>
<polygon fill="midnightblue" stroke="midnightblue" points="1204.04,-110.722 1194.57,-115.471 1204.94,-117.665 1204.04,-110.722"/>
</g>
<!-- Node6 -->
<g id="node6" class="node"><title>Node6</title>
<g id="a_node6"><a xlink:href="_s_l_anim_track_8cpp.html" target="_top" xlink:title="SLAnimTrack.cpp">
<polygon fill="white" stroke="black" points="1593.5,-56.5 1593.5,-75.5 1688.5,-75.5 1688.5,-56.5 1593.5,-56.5"/>
<text text-anchor="middle" x="1641" y="-63.5" font-family="Arial.ttf" font-size="10.00">SLAnimTrack.cpp</text>
</a>
</g>
</g>
<!-- Node4&#45;&gt;Node6 -->
<g id="edge6" class="edge"><title>Node4&#45;&gt;Node6</title>
<path fill="none" stroke="midnightblue" d="M1204.8,-116.333C1286.78,-109.014 1447.81,-93.8155 1584,-76 1587.08,-75.5972 1590.25,-75.1599 1593.44,-74.7025"/>
<polygon fill="midnightblue" stroke="midnightblue" points="1204.38,-112.857 1194.73,-117.229 1205,-119.83 1204.38,-112.857"/>
</g>
<!-- Node7 -->
<g id="node7" class="node"><title>Node7</title>
<g id="a_node7"><a xlink:href="_s_l_camera_8cpp.html" target="_top" xlink:title="SLCamera.cpp">
<polygon fill="white" stroke="black" points="1706.5,-56.5 1706.5,-75.5 1789.5,-75.5 1789.5,-56.5 1706.5,-56.5"/>
<text text-anchor="middle" x="1748" y="-63.5" font-family="Arial.ttf" font-size="10.00">SLCamera.cpp</text>
</a>
</g>
</g>
<!-- Node4&#45;&gt;Node7 -->
<g id="edge7" class="edge"><title>Node4&#45;&gt;Node7</title>
<path fill="none" stroke="midnightblue" d="M1204.93,-118.212C1303.12,-112.769 1517.48,-99.1878 1697,-76 1700.03,-75.6084 1703.16,-75.1621 1706.3,-74.6825"/>
<polygon fill="midnightblue" stroke="midnightblue" points="1204.46,-114.733 1194.67,-118.775 1204.85,-121.722 1204.46,-114.733"/>
</g>
<!-- Node8 -->
<g id="node8" class="node"><title>Node8</title>
<g id="a_node8"><a xlink:href="_s_l_input_manager_8cpp.html" target="_top" xlink:title="SLInputManager.cpp">
<polygon fill="white" stroke="black" points="1807.5,-56.5 1807.5,-75.5 1916.5,-75.5 1916.5,-56.5 1807.5,-56.5"/>
<text text-anchor="middle" x="1862" y="-63.5" font-family="Arial.ttf" font-size="10.00">SLInputManager.cpp</text>
</a>
</g>
</g>
<!-- Node4&#45;&gt;Node8 -->
<g id="edge8" class="edge"><title>Node4&#45;&gt;Node8</title>
<path fill="none" stroke="midnightblue" d="M1204.91,-118.533C1316.04,-113.166 1578.59,-99.0284 1798,-76 1801.01,-75.6838 1804.1,-75.3341 1807.22,-74.9616"/>
<polygon fill="midnightblue" stroke="midnightblue" points="1204.46,-115.051 1194.64,-119.026 1204.79,-122.043 1204.46,-115.051"/>
</g>
<!-- Node9 -->
<g id="node9" class="node"><title>Node9</title>
<g id="a_node9"><a xlink:href="_s_l_keyframe_camera_8cpp.html" target="_top" xlink:title="SLKeyframeCamera.cpp">
<polygon fill="white" stroke="black" points="1935,-56.5 1935,-75.5 2061,-75.5 2061,-56.5 1935,-56.5"/>
<text text-anchor="middle" x="1998" y="-63.5" font-family="Arial.ttf" font-size="10.00">SLKeyframeCamera.cpp</text>
</a>
</g>
</g>
<!-- Node4&#45;&gt;Node9 -->
<g id="edge9" class="edge"><title>Node4&#45;&gt;Node9</title>
<path fill="none" stroke="midnightblue" d="M1204.88,-119.067C1330.98,-114.279 1655.1,-100.458 1925,-76 1928.18,-75.7119 1931.43,-75.3942 1934.72,-75.0555"/>
<polygon fill="midnightblue" stroke="midnightblue" points="1204.58,-115.575 1194.72,-119.449 1204.84,-122.57 1204.58,-115.575"/>
</g>
<!-- Node10 -->
<g id="node10" class="node"><title>Node10</title>
<g id="a_node10"><a xlink:href="_s_l_light_direct_8cpp.html" target="_top" xlink:title="SLLightDirect.cpp">
<polygon fill="white" stroke="black" points="2079.5,-56.5 2079.5,-75.5 2174.5,-75.5 2174.5,-56.5 2079.5,-56.5"/>
<text text-anchor="middle" x="2127" y="-63.5" font-family="Arial.ttf" font-size="10.00">SLLightDirect.cpp</text>
</a>
</g>
</g>
<!-- Node4&#45;&gt;Node10 -->
<g id="edge10" class="edge"><title>Node4&#45;&gt;Node10</title>
<path fill="none" stroke="midnightblue" d="M1204.83,-120.387C1346.71,-118.332 1742.53,-109.772 2070,-76 2073.09,-75.6814 2076.27,-75.308 2079.46,-74.8977"/>
<polygon fill="midnightblue" stroke="midnightblue" points="1204.61,-116.889 1194.66,-120.529 1204.7,-123.889 1204.61,-116.889"/>
</g>
<!-- Node11 -->
<g id="node11" class="node"><title>Node11</title>
<g id="a_node11"><a xlink:href="_s_l_light_rect_8cpp.html" target="_top" xlink:title="SLLightRect.cpp">
<polygon fill="white" stroke="black" points="2193,-56.5 2193,-75.5 2283,-75.5 2283,-56.5 2193,-56.5"/>
<text text-anchor="middle" x="2238" y="-63.5" font-family="Arial.ttf" font-size="10.00">SLLightRect.cpp</text>
</a>
</g>
</g>
<!-- Node4&#45;&gt;Node11 -->
<g id="edge11" class="edge"><title>Node4&#45;&gt;Node11</title>
<path fill="none" stroke="midnightblue" d="M1204.73,-120.9C1357.95,-120.132 1810.04,-114.509 2183,-76 2186.18,-75.6721 2189.45,-75.2791 2192.74,-74.8434"/>
<polygon fill="midnightblue" stroke="midnightblue" points="1204.63,-117.4 1194.64,-120.946 1204.66,-124.4 1204.63,-117.4"/>
</g>
<!-- Node12 -->
<g id="node12" class="node"><title>Node12</title>
<g id="a_node12"><a xlink:href="_s_l_light_spot_8cpp.html" target="_top" xlink:title="SLLightSpot.cpp">
<polygon fill="white" stroke="black" points="2301,-56.5 2301,-75.5 2391,-75.5 2391,-56.5 2301,-56.5"/>
<text text-anchor="middle" x="2346" y="-63.5" font-family="Arial.ttf" font-size="10.00">SLLightSpot.cpp</text>
</a>
</g>
</g>
<!-- Node4&#45;&gt;Node12 -->
<g id="edge12" class="edge"><title>Node4&#45;&gt;Node12</title>
<path fill="none" stroke="midnightblue" d="M1204.96,-121.275C1368.87,-121.595 1875.18,-118.783 2292,-76 2294.93,-75.6992 2297.94,-75.3392 2300.98,-74.9389"/>
<polygon fill="midnightblue" stroke="midnightblue" points="1204.67,-117.774 1194.67,-121.25 1204.66,-124.774 1204.67,-117.774"/>
</g>
<!-- Node13 -->
<g id="node13" class="node"><title>Node13</title>
<g id="a_node13"><a xlink:href="_s_l_material_8cpp.html" target="_top" xlink:title="SLMaterial.cpp">
<polygon fill="white" stroke="black" points="2409.5,-56.5 2409.5,-75.5 2492.5,-75.5 2492.5,-56.5 2409.5,-56.5"/>
<text text-anchor="middle" x="2451" y="-63.5" font-family="Arial.ttf" font-size="10.00">SLMaterial.cpp</text>
</a>
</g>
</g>
<!-- Node4&#45;&gt;Node13 -->
<g id="edge13" class="edge"><title>Node4&#45;&gt;Node13</title>
<path fill="none" stroke="midnightblue" d="M1204.67,-120.059C1412.26,-116.263 2162.87,-101.073 2400,-76 2403.04,-75.6786 2406.17,-75.2838 2409.32,-74.8408"/>
<polygon fill="midnightblue" stroke="midnightblue" points="1204.56,-116.56 1194.62,-120.241 1204.68,-123.559 1204.56,-116.56"/>
</g>
<!-- Node14 -->
<g id="node14" class="node"><title>Node14</title>
<g id="a_node14"><a xlink:href="_s_l_node_8cpp.html" target="_top" xlink:title="SLNode.cpp">
<polygon fill="white" stroke="black" points="188,-56.5 188,-75.5 260,-75.5 260,-56.5 188,-56.5"/>
<text text-anchor="middle" x="224" y="-63.5" font-family="Arial.ttf" font-size="10.00">SLNode.cpp</text>
</a>
</g>
</g>
<!-- Node4&#45;&gt;Node14 -->
<g id="edge15" class="edge"><title>Node4&#45;&gt;Node14</title>
<path fill="none" stroke="midnightblue" d="M1096.89,-120.988C958.527,-120.364 580.759,-114.916 269,-76 266.154,-75.6447 263.218,-75.2114 260.275,-74.729"/>
<polygon fill="midnightblue" stroke="midnightblue" points="1097.2,-124.49 1107.21,-121.028 1097.22,-117.49 1097.2,-124.49"/>
</g>
<!-- Node15 -->
<g id="node15" class="node"><title>Node15</title>
<g id="a_node15"><a xlink:href="_s_l_pathtracer_8cpp.html" target="_top" xlink:title="SLPathtracer.cpp">
<polygon fill="white" stroke="black" points="278,-56.5 278,-75.5 372,-75.5 372,-56.5 278,-56.5"/>
<text text-anchor="middle" x="325" y="-63.5" font-family="Arial.ttf" font-size="10.00">SLPathtracer.cpp</text>
</a>
</g>
</g>
<!-- Node4&#45;&gt;Node15 -->
<g id="edge16" class="edge"><title>Node4&#45;&gt;Node15</title>
<path fill="none" stroke="midnightblue" d="M1097.34,-119.728C971.74,-116.344 649.015,-105.293 381,-76 378.063,-75.679 375.046,-75.3097 372.007,-74.9078"/>
<polygon fill="midnightblue" stroke="midnightblue" points="1097.37,-123.23 1107.45,-119.995 1097.55,-116.232 1097.37,-123.23"/>
</g>
<!-- Node16 -->
<g id="node16" class="node"><title>Node16</title>
<g id="a_node16"><a xlink:href="_s_l_ray_8cpp.html" target="_top" xlink:title="SLRay.cpp">
<polygon fill="white" stroke="black" points="390.5,-56.5 390.5,-75.5 455.5,-75.5 455.5,-56.5 390.5,-56.5"/>
<text text-anchor="middle" x="423" y="-63.5" font-family="Arial.ttf" font-size="10.00">SLRay.cpp</text>
</a>
</g>
</g>
<!-- Node4&#45;&gt;Node16 -->
<g id="edge17" class="edge"><title>Node4&#45;&gt;Node16</title>
<path fill="none" stroke="midnightblue" d="M1097.31,-120.23C981.211,-117.965 698.35,-109.204 464,-76 461.258,-75.6115 458.427,-75.1401 455.593,-74.6188"/>
<polygon fill="midnightblue" stroke="midnightblue" points="1097.3,-123.731 1107.36,-120.418 1097.43,-116.732 1097.3,-123.731"/>
</g>
<!-- Node17 -->
<g id="node17" class="node"><title>Node17</title>
<g id="a_node17"><a xlink:href="_s_l_raytracer_8cpp.html" target="_top" xlink:title="SLRaytracer.cpp">
<polygon fill="white" stroke="black" points="473.5,-56.5 473.5,-75.5 564.5,-75.5 564.5,-56.5 473.5,-56.5"/>
<text text-anchor="middle" x="519" y="-63.5" font-family="Arial.ttf" font-size="10.00">SLRaytracer.cpp</text>
</a>
</g>
</g>
<!-- Node4&#45;&gt;Node17 -->
<g id="edge18" class="edge"><title>Node4&#45;&gt;Node17</title>
<path fill="none" stroke="midnightblue" d="M1097.38,-118.333C995.263,-112.918 765.921,-99.1447 574,-76 570.926,-75.6293 567.761,-75.2107 564.576,-74.7618"/>
<polygon fill="midnightblue" stroke="midnightblue" points="1097.28,-121.832 1107.45,-118.861 1097.64,-114.842 1097.28,-121.832"/>
</g>
<!-- Node18 -->
<g id="node18" class="node"><title>Node18</title>
<g id="a_node18"><a xlink:href="_s_l_scene_8cpp.html" target="_top" xlink:title="SLScene.cpp">
<polygon fill="white" stroke="black" points="583,-56.5 583,-75.5 659,-75.5 659,-56.5 583,-56.5"/>
<text text-anchor="middle" x="621" y="-63.5" font-family="Arial.ttf" font-size="10.00">SLScene.cpp</text>
</a>
</g>
</g>
<!-- Node4&#45;&gt;Node18 -->
<g id="edge19" class="edge"><title>Node4&#45;&gt;Node18</title>
<path fill="none" stroke="midnightblue" d="M1097.04,-117.675C1007.57,-111.782 822.997,-98.0083 668,-76 665.121,-75.5912 662.151,-75.126 659.168,-74.6274"/>
<polygon fill="midnightblue" stroke="midnightblue" points="1097,-121.18 1107.21,-118.338 1097.46,-114.195 1097,-121.18"/>
</g>
<!-- Node19 -->
<g id="node19" class="node"><title>Node19</title>
<g id="a_node19"><a xlink:href="_s_l_scene_view_8cpp.html" target="_top" xlink:title="SLSceneView.cpp">
<polygon fill="white" stroke="black" points="677,-56.5 677,-75.5 775,-75.5 775,-56.5 677,-56.5"/>
<text text-anchor="middle" x="726" y="-63.5" font-family="Arial.ttf" font-size="10.00">SLSceneView.cpp</text>
</a>
</g>
</g>
<!-- Node4&#45;&gt;Node19 -->
<g id="edge20" class="edge"><title>Node4&#45;&gt;Node19</title>
<path fill="none" stroke="midnightblue" d="M1097.32,-114.962C1025.76,-106.788 895.205,-91.4417 784,-76 781.073,-75.5936 778.065,-75.1637 775.032,-74.721"/>
<polygon fill="midnightblue" stroke="midnightblue" points="1097.11,-118.46 1107.44,-116.115 1097.9,-111.505 1097.11,-118.46"/>
</g>
<!-- Node20 -->
<g id="node20" class="node"><title>Node20</title>
<g id="a_node20"><a xlink:href="_s_l_skeleton_8cpp.html" target="_top" xlink:title="SLSkeleton.cpp">
<polygon fill="white" stroke="black" points="793.5,-56.5 793.5,-75.5 880.5,-75.5 880.5,-56.5 793.5,-56.5"/>
<text text-anchor="middle" x="837" y="-63.5" font-family="Arial.ttf" font-size="10.00">SLSkeleton.cpp</text>
</a>
</g>
</g>
<!-- Node4&#45;&gt;Node20 -->
<g id="edge21" class="edge"><title>Node4&#45;&gt;Node20</title>
<path fill="none" stroke="midnightblue" d="M1097.48,-111.796C1036.27,-101.27 937.23,-84.237 880.542,-74.4881"/>
<polygon fill="midnightblue" stroke="midnightblue" points="1096.89,-115.246 1107.34,-113.492 1098.08,-108.347 1096.89,-115.246"/>
</g>
<!-- Node21 -->
<g id="node21" class="node"><title>Node21</title>
<g id="a_node21"><a xlink:href="_s_l_uniform_grid_8cpp.html" target="_top" xlink:title="SLUniformGrid.cpp">
<polygon fill="white" stroke="black" points="899,-56.5 899,-75.5 1001,-75.5 1001,-56.5 899,-56.5"/>
<text text-anchor="middle" x="950" y="-63.5" font-family="Arial.ttf" font-size="10.00">SLUniformGrid.cpp</text>
</a>
</g>
</g>
<!-- Node4&#45;&gt;Node21 -->
<g id="edge22" class="edge"><title>Node4&#45;&gt;Node21</title>
<path fill="none" stroke="midnightblue" d="M1109.42,-109.829C1071.47,-99.6333 1016.19,-84.7823 981.7,-75.5164"/>
<polygon fill="midnightblue" stroke="midnightblue" points="1108.59,-113.229 1119.15,-112.444 1110.4,-106.469 1108.59,-113.229"/>
</g>
<!-- Node22 -->
<g id="node22" class="node"><title>Node22</title>
<g id="a_node22"><a xlink:href="_s_l_button_8h.html" target="_top" xlink:title="SLButton.h">
<polygon fill="white" stroke="black" points="1019,-56.5 1019,-75.5 1085,-75.5 1085,-56.5 1019,-56.5"/>
<text text-anchor="middle" x="1052" y="-63.5" font-family="Arial.ttf" font-size="10.00">SLButton.h</text>
</a>
</g>
</g>
<!-- Node4&#45;&gt;Node22 -->
<g id="edge23" class="edge"><title>Node4&#45;&gt;Node22</title>
<path fill="none" stroke="midnightblue" d="M1126.16,-107.453C1107.89,-97.4835 1083.58,-84.2279 1067.87,-75.6545"/>
<polygon fill="midnightblue" stroke="midnightblue" points="1124.64,-110.608 1135.09,-112.324 1127.99,-104.463 1124.64,-110.608"/>
</g>
<!-- Node24 -->
<g id="node24" class="node"><title>Node24</title>
<g id="a_node24"><a xlink:href="_app_demo_gui_8cpp.html" target="_top" xlink:title="AppDemoGui.cpp">
<polygon fill="white" stroke="black" points="1103.5,-56.5 1103.5,-75.5 1198.5,-75.5 1198.5,-56.5 1103.5,-56.5"/>
<text text-anchor="middle" x="1151" y="-63.5" font-family="Arial.ttf" font-size="10.00">AppDemoGui.cpp</text>
</a>
</g>
</g>
<!-- Node4&#45;&gt;Node24 -->
<g id="edge25" class="edge"><title>Node4&#45;&gt;Node24</title>
<path fill="none" stroke="midnightblue" d="M1151,-101.805C1151,-92.9102 1151,-82.7798 1151,-75.7511"/>
<polygon fill="midnightblue" stroke="midnightblue" points="1147.5,-102.083 1151,-112.083 1154.5,-102.083 1147.5,-102.083"/>
</g>
<!-- Node4&#45;&gt;Node25 -->
<g id="edge26" class="edge"><title>Node4&#45;&gt;Node25</title>
<path fill="none" stroke="midnightblue" d="M1204.65,-121.388C1386.83,-122.241 1998.39,-121.308 2501,-76 2504.2,-75.7117 2507.49,-75.3673 2510.8,-74.984"/>
<polygon fill="midnightblue" stroke="midnightblue" points="1204.55,-117.887 1194.53,-121.336 1204.51,-124.887 1204.55,-117.887"/>
</g>
<!-- Node26 -->
<g id="node26" class="node"><title>Node26</title>
<g id="a_node26"><a xlink:href="_app_demo_video_8cpp.html" target="_top" xlink:title="AppDemoVideo.cpp">
<polygon fill="white" stroke="black" points="1216.5,-56.5 1216.5,-75.5 1321.5,-75.5 1321.5,-56.5 1216.5,-56.5"/>
<text text-anchor="middle" x="1269" y="-63.5" font-family="Arial.ttf" font-size="10.00">AppDemoVideo.cpp</text>
</a>
</g>
</g>
<!-- Node4&#45;&gt;Node26 -->
<g id="edge27" class="edge"><title>Node4&#45;&gt;Node26</title>
<path fill="none" stroke="midnightblue" d="M1178.9,-108.232C1200.97,-98.1312 1231.18,-84.3091 1250.39,-75.5164"/>
<polygon fill="midnightblue" stroke="midnightblue" points="1177.33,-105.1 1169.7,-112.444 1180.25,-111.465 1177.33,-105.1"/>
</g>
<!-- Node27 -->
<g id="node27" class="node"><title>Node27</title>
<g id="a_node27"><a xlink:href="_app_demo_main_g_l_f_w_8cpp.html" target="_top" xlink:title="AppDemoMainGLFW.cpp">
<polygon fill="white" stroke="black" points="1340,-56.5 1340,-75.5 1470,-75.5 1470,-56.5 1340,-56.5"/>
<text text-anchor="middle" x="1405" y="-63.5" font-family="Arial.ttf" font-size="10.00">AppDemoMainGLFW.cpp</text>
</a>
</g>
</g>
<!-- Node4&#45;&gt;Node27 -->
<g id="edge28" class="edge"><title>Node4&#45;&gt;Node27</title>
<path fill="none" stroke="midnightblue" d="M1201.12,-110.346C1249.12,-100.141 1320.62,-84.94 1364.94,-75.5164"/>
<polygon fill="midnightblue" stroke="midnightblue" points="1200.3,-106.94 1191.25,-112.444 1201.76,-113.787 1200.3,-106.94"/>
</g>
<!-- Node23 -->
<g id="node23" class="node"><title>Node23</title>
<g id="a_node23"><a xlink:href="_s_l_button_8cpp.html" target="_top" xlink:title="SLButton.cpp">
<polygon fill="white" stroke="black" points="1013.5,-0.5 1013.5,-19.5 1090.5,-19.5 1090.5,-0.5 1013.5,-0.5"/>
<text text-anchor="middle" x="1052" y="-7.5" font-family="Arial.ttf" font-size="10.00">SLButton.cpp</text>
</a>
</g>
</g>
<!-- Node22&#45;&gt;Node23 -->
<g id="edge24" class="edge"><title>Node22&#45;&gt;Node23</title>
<path fill="none" stroke="midnightblue" d="M1052,-45.8045C1052,-36.9102 1052,-26.7798 1052,-19.7511"/>
<polygon fill="midnightblue" stroke="midnightblue" points="1048.5,-46.083 1052,-56.083 1055.5,-46.083 1048.5,-46.083"/>
</g>
</g>
</svg>
