<?xml version="1.0" encoding="UTF-8" standalone="no"?>
<!DOCTYPE svg PUBLIC "-//W3C//DTD SVG 1.1//EN"
 "http://www.w3.org/Graphics/SVG/1.1/DTD/svg11.dtd">
<!-- Generated by graphviz version 2.40.1 (20161225.0304)
 -->
<!-- Title: SLCompactGrid.h Pages: 1 -->
<svg width="1019pt" height="868pt"
 viewBox="0.00 0.00 1018.50 868.00" xmlns="http://www.w3.org/2000/svg" xmlns:xlink="http://www.w3.org/1999/xlink">
<g id="graph0" class="graph" transform="scale(1 1) rotate(0) translate(4 864)">
<title>SLCompactGrid.h</title>
<polygon fill="#ffffff" stroke="transparent" points="-4,4 -4,-864 1014.5,-864 1014.5,4 -4,4"/>
<!-- Node1 -->
<g id="node1" class="node">
<title>Node1</title>
<g id="a_node1"><a xlink:title=" ">
<polygon fill="#bfbfbf" stroke="#000000" points="153.5,-840.5 153.5,-859.5 249.5,-859.5 249.5,-840.5 153.5,-840.5"/>
<text text-anchor="middle" x="201.5" y="-847.5" font-family="Arial.ttf" font-size="10.00" fill="#000000">SLCompactGrid.h</text>
</a>
</g>
</g>
<!-- Node2 -->
<g id="node2" class="node">
<title>Node2</title>
<g id="a_node2"><a xlink:title=" ">
<polygon fill="#ffffff" stroke="#bfbfbf" points="0,-784.5 0,-803.5 39,-803.5 39,-784.5 0,-784.5"/>
<text text-anchor="middle" x="19.5" y="-791.5" font-family="Arial.ttf" font-size="10.00" fill="#000000">array</text>
</a>
</g>
</g>
<!-- Node1&#45;&gt;Node2 -->
<g id="edge1" class="edge">
<title>Node1&#45;&gt;Node2</title>
<path fill="none" stroke="#191970" d="M168.2527,-840.4206C139.1829,-831.9527 95.6193,-819.042 48.8321,-804.0187"/>
<polygon fill="#191970" stroke="#191970" points="49.7115,-800.6248 39.1198,-800.8843 47.5616,-807.2865 49.7115,-800.6248"/>
</g>
<!-- Node3 -->
<g id="node3" class="node">
<title>Node3</title>
<g id="a_node3"><a xlink:title=" ">
<polygon fill="#ffffff" stroke="#bfbfbf" points="57.5,-784.5 57.5,-803.5 103.5,-803.5 103.5,-784.5 57.5,-784.5"/>
<text text-anchor="middle" x="80.5" y="-791.5" font-family="Arial.ttf" font-size="10.00" fill="#000000">atomic</text>
</a>
</g>
</g>
<!-- Node1&#45;&gt;Node3 -->
<g id="edge2" class="edge">
<title>Node1&#45;&gt;Node3</title>
<path fill="none" stroke="#191970" d="M180.6994,-840.3733C161.2757,-831.3838 132.0776,-817.8706 110.2036,-807.7471"/>
<polygon fill="#191970" stroke="#191970" points="111.5745,-804.5249 101.0292,-803.5011 108.6344,-810.8776 111.5745,-804.5249"/>
</g>
<!-- Node4 -->
<g id="node4" class="node">
<title>Node4</title>
<g id="a_node4"><a xlink:title=" ">
<polygon fill="#ffffff" stroke="#bfbfbf" points="121.5,-784.5 121.5,-803.5 173.5,-803.5 173.5,-784.5 121.5,-784.5"/>
<text text-anchor="middle" x="147.5" y="-791.5" font-family="Arial.ttf" font-size="10.00" fill="#000000">numeric</text>
</a>
</g>
</g>
<!-- Node1&#45;&gt;Node4 -->
<g id="edge3" class="edge">
<title>Node1&#45;&gt;Node4</title>
<path fill="none" stroke="#191970" d="M192.0939,-840.2455C184.3507,-832.2155 173.188,-820.6394 163.9682,-811.0781"/>
<polygon fill="#191970" stroke="#191970" points="166.2591,-808.4117 156.7983,-803.6427 161.2202,-813.2706 166.2591,-808.4117"/>
</g>
<!-- Node5 -->
<g id="node5" class="node">
<title>Node5</title>
<g id="a_node5"><a xlink:title=" ">
<polygon fill="#ffffff" stroke="#bfbfbf" points="355.5,-56.5 355.5,-75.5 399.5,-75.5 399.5,-56.5 355.5,-56.5"/>
<text text-anchor="middle" x="377.5" y="-63.5" font-family="Arial.ttf" font-size="10.00" fill="#000000">vector</text>
</a>
</g>
</g>
<!-- Node1&#45;&gt;Node5 -->
<g id="edge4" class="edge">
<title>Node1&#45;&gt;Node5</title>
<path fill="none" stroke="#191970" d="M201.5,-840.4116C201.5,-821.0538 201.5,-775.9167 201.5,-738 201.5,-738 201.5,-738 201.5,-178 201.5,-110.572 294.5829,-81.9823 345.3612,-71.4026"/>
<polygon fill="#191970" stroke="#191970" points="346.0729,-74.8297 355.2095,-69.4656 344.722,-67.9613 346.0729,-74.8297"/>
</g>
<!-- Node6 -->
<g id="node6" class="node">
<title>Node6</title>
<g id="a_node6"><a xlink:href="_s_l_accel_struct_8h.html" target="_top" xlink:title=" ">
<polygon fill="#ffffff" stroke="#000000" points="418.5,-784.5 418.5,-803.5 506.5,-803.5 506.5,-784.5 418.5,-784.5"/>
<text text-anchor="middle" x="462.5" y="-791.5" font-family="Arial.ttf" font-size="10.00" fill="#000000">SLAccelStruct.h</text>
</a>
</g>
</g>
<!-- Node1&#45;&gt;Node6 -->
<g id="edge5" class="edge">
<title>Node1&#45;&gt;Node6</title>
<path fill="none" stroke="#191970" d="M246.0709,-840.4369C290.9268,-830.8127 360.1649,-815.957 408.2008,-805.6504"/>
<polygon fill="#191970" stroke="#191970" points="409.0697,-809.0437 418.1129,-803.5237 407.6011,-802.1995 409.0697,-809.0437"/>
</g>
<!-- Node9 -->
<g id="node9" class="node">
<title>Node9</title>
<g id="a_node9"><a xlink:href="_s_l_g_l_vertex_array_ext_8h.html" target="_top" xlink:title=" ">
<polygon fill="#ffffff" stroke="#000000" points="602.5,-616.5 602.5,-635.5 720.5,-635.5 720.5,-616.5 602.5,-616.5"/>
<text text-anchor="middle" x="661.5" y="-623.5" font-family="Arial.ttf" font-size="10.00" fill="#000000">SLGLVertexArrayExt.h</text>
</a>
</g>
</g>
<!-- Node1&#45;&gt;Node9 -->
<g id="edge65" class="edge">
<title>Node1&#45;&gt;Node9</title>
<path fill="none" stroke="#191970" d="M249.714,-847.9571C312.3472,-844.1782 424.4462,-833.5503 515.5,-804 617.6071,-770.8625 673.9108,-783.8357 729.5,-692 742.1352,-671.1261 717.3065,-652.2863 694.1821,-640.1298"/>
<polygon fill="#191970" stroke="#191970" points="695.6688,-636.9604 685.155,-635.6529 692.5587,-643.2315 695.6688,-636.9604"/>
</g>
<!-- Node22 -->
<g id="node22" class="node">
<title>Node22</title>
<g id="a_node22"><a xlink:href="_s_l_vec3_8h.html" target="_top" xlink:title=" ">
<polygon fill="#ffffff" stroke="#000000" points="323.5,-224.5 323.5,-243.5 383.5,-243.5 383.5,-224.5 323.5,-224.5"/>
<text text-anchor="middle" x="353.5" y="-231.5" font-family="Arial.ttf" font-size="10.00" fill="#000000">SLVec3.h</text>
</a>
</g>
</g>
<!-- Node1&#45;&gt;Node22 -->
<g id="edge66" class="edge">
<title>Node1&#45;&gt;Node22</title>
<path fill="none" stroke="#191970" d="M214.0499,-840.4082C235.636,-822.7155 277.5,-782.6472 277.5,-738 277.5,-738 277.5,-738 277.5,-346 277.5,-306.2361 310.7071,-270.1042 333.2208,-250.177"/>
<polygon fill="#191970" stroke="#191970" points="335.6079,-252.7412 340.9501,-243.5918 331.0683,-247.4128 335.6079,-252.7412"/>
</g>
<!-- Node7 -->
<g id="node7" class="node">
<title>Node7</title>
<g id="a_node7"><a xlink:href="_s_l_mesh_8h.html" target="_top" xlink:title=" ">
<polygon fill="#ffffff" stroke="#000000" points="543.5,-728.5 543.5,-747.5 605.5,-747.5 605.5,-728.5 543.5,-728.5"/>
<text text-anchor="middle" x="574.5" y="-735.5" font-family="Arial.ttf" font-size="10.00" fill="#000000">SLMesh.h</text>
</a>
</g>
</g>
<!-- Node6&#45;&gt;Node7 -->
<g id="edge6" class="edge">
<title>Node6&#45;&gt;Node7</title>
<path fill="none" stroke="#191970" d="M481.7535,-784.3733C499.5712,-775.4644 526.2747,-762.1127 546.4594,-752.0203"/>
<polygon fill="#191970" stroke="#191970" points="548.1187,-755.1038 555.4978,-747.5011 544.9882,-748.8428 548.1187,-755.1038"/>
</g>
<!-- Node8 -->
<g id="node8" class="node">
<title>Node8</title>
<g id="a_node8"><a xlink:href="_s_l_a_a_b_box_8h.html" target="_top" xlink:title=" ">
<polygon fill="#ffffff" stroke="#000000" points="646.5,-672.5 646.5,-691.5 720.5,-691.5 720.5,-672.5 646.5,-672.5"/>
<text text-anchor="middle" x="683.5" y="-679.5" font-family="Arial.ttf" font-size="10.00" fill="#000000">SLAABBox.h</text>
</a>
</g>
</g>
<!-- Node7&#45;&gt;Node8 -->
<g id="edge7" class="edge">
<title>Node7&#45;&gt;Node8</title>
<path fill="none" stroke="#191970" d="M593.4864,-728.2455C610.6792,-719.4125 636.2238,-706.2887 655.7132,-696.2758"/>
<polygon fill="#191970" stroke="#191970" points="657.4359,-699.3257 664.7312,-691.6427 654.237,-693.0993 657.4359,-699.3257"/>
</g>
<!-- Node10 -->
<g id="node10" class="node">
<title>Node10</title>
<g id="a_node10"><a xlink:href="_s_l_g_l_vertex_array_8h.html" target="_top" xlink:title=" ">
<polygon fill="#ffffff" stroke="#000000" points="689,-560.5 689,-579.5 792,-579.5 792,-560.5 689,-560.5"/>
<text text-anchor="middle" x="740.5" y="-567.5" font-family="Arial.ttf" font-size="10.00" fill="#000000">SLGLVertexArray.h</text>
</a>
</g>
</g>
<!-- Node7&#45;&gt;Node10 -->
<g id="edge60" class="edge">
<title>Node7&#45;&gt;Node10</title>
<path fill="none" stroke="#191970" d="M605.5197,-732.9918C646.0742,-725.7699 713.8064,-711.1661 729.5,-692 753.3136,-662.9172 749.4876,-615.8371 744.8366,-589.475"/>
<polygon fill="#191970" stroke="#191970" points="748.2486,-588.6869 742.871,-579.5583 741.3821,-590.048 748.2486,-588.6869"/>
</g>
<!-- Node34 -->
<g id="node34" class="node">
<title>Node34</title>
<g id="a_node34"><a xlink:href="_s_l_enums_8h.html" target="_top" xlink:title=" ">
<polygon fill="#ffffff" stroke="#000000" points="305.5,-672.5 305.5,-691.5 373.5,-691.5 373.5,-672.5 305.5,-672.5"/>
<text text-anchor="middle" x="339.5" y="-679.5" font-family="Arial.ttf" font-size="10.00" fill="#000000">SLEnums.h</text>
</a>
</g>
</g>
<!-- Node7&#45;&gt;Node34 -->
<g id="edge59" class="edge">
<title>Node7&#45;&gt;Node34</title>
<path fill="none" stroke="#191970" d="M543.2938,-730.5636C502.2336,-720.7791 429.8403,-703.5279 383.3063,-692.439"/>
<polygon fill="#191970" stroke="#191970" points="384.0423,-689.0164 373.5033,-690.1029 382.4196,-695.8257 384.0423,-689.0164"/>
</g>
<!-- Node35 -->
<g id="node35" class="node">
<title>Node35</title>
<g id="a_node35"><a xlink:href="_s_l_object_8h.html" target="_top" xlink:title=" ">
<polygon fill="#ffffff" stroke="#000000" points="876.5,-616.5 876.5,-635.5 942.5,-635.5 942.5,-616.5 876.5,-616.5"/>
<text text-anchor="middle" x="909.5" y="-623.5" font-family="Arial.ttf" font-size="10.00" fill="#000000">SLObject.h</text>
</a>
</g>
</g>
<!-- Node7&#45;&gt;Node35 -->
<g id="edge61" class="edge">
<title>Node7&#45;&gt;Node35</title>
<path fill="none" stroke="#191970" d="M605.6048,-732.1989C643.2996,-724.7574 708.4776,-710.5635 762.5,-692 805.2854,-677.2978 852.6767,-654.8326 881.7807,-640.2796"/>
<polygon fill="#191970" stroke="#191970" points="883.5652,-643.2995 890.9166,-635.6701 880.4119,-637.0499 883.5652,-643.2995"/>
</g>
<!-- Node36 -->
<g id="node36" class="node">
<title>Node36</title>
<g id="a_node36"><a xlink:href="_s_l_optix_accel_struct_8h.html" target="_top" xlink:title=" ">
<polygon fill="#ffffff" stroke="#000000" points="392,-672.5 392,-691.5 503,-691.5 503,-672.5 392,-672.5"/>
<text text-anchor="middle" x="447.5" y="-679.5" font-family="Arial.ttf" font-size="10.00" fill="#000000">SLOptixAccelStruct.h</text>
</a>
</g>
</g>
<!-- Node7&#45;&gt;Node36 -->
<g id="edge63" class="edge">
<title>Node7&#45;&gt;Node36</title>
<path fill="none" stroke="#191970" d="M552.6679,-728.3733C532.1897,-719.3435 501.3601,-705.7494 478.3681,-695.6111"/>
<polygon fill="#191970" stroke="#191970" points="479.6093,-692.3333 469.0472,-691.5011 476.785,-698.7383 479.6093,-692.3333"/>
</g>
<!-- Node37 -->
<g id="node37" class="node">
<title>Node37</title>
<g id="a_node37"><a xlink:href="_s_l_optix_definitions_8h.html" target="_top" xlink:title=" ">
<polygon fill="#ffffff" stroke="#000000" points="521,-672.5 521,-691.5 628,-691.5 628,-672.5 521,-672.5"/>
<text text-anchor="middle" x="574.5" y="-679.5" font-family="Arial.ttf" font-size="10.00" fill="#000000">SLOptixDefinitions.h</text>
</a>
</g>
</g>
<!-- Node7&#45;&gt;Node37 -->
<g id="edge64" class="edge">
<title>Node7&#45;&gt;Node37</title>
<path fill="none" stroke="#191970" d="M574.5,-728.2455C574.5,-720.9382 574.5,-710.6944 574.5,-701.7046"/>
<polygon fill="#191970" stroke="#191970" points="578.0001,-701.6426 574.5,-691.6427 571.0001,-701.6427 578.0001,-701.6426"/>
</g>
<!-- Node8&#45;&gt;Node9 -->
<g id="edge8" class="edge">
<title>Node8&#45;&gt;Node9</title>
<path fill="none" stroke="#191970" d="M679.6679,-672.2455C676.7341,-664.7776 672.5953,-654.2427 669.009,-645.1137"/>
<polygon fill="#191970" stroke="#191970" points="672.2024,-643.6704 665.2882,-635.6427 665.6871,-646.23 672.2024,-643.6704"/>
</g>
<!-- Node27 -->
<g id="node27" class="node">
<title>Node27</title>
<g id="a_node27"><a xlink:href="_s_l_mat4_8h.html" target="_top" xlink:title=" ">
<polygon fill="#ffffff" stroke="#000000" points="613,-336.5 613,-355.5 672,-355.5 672,-336.5 613,-336.5"/>
<text text-anchor="middle" x="642.5" y="-343.5" font-family="Arial.ttf" font-size="10.00" fill="#000000">SLMat4.h</text>
</a>
</g>
</g>
<!-- Node8&#45;&gt;Node27 -->
<g id="edge58" class="edge">
<title>Node8&#45;&gt;Node27</title>
<path fill="none" stroke="#191970" d="M646.189,-672.6471C552.6328,-648.9389 315.5,-587.1547 315.5,-570 315.5,-570 315.5,-570 315.5,-514 315.5,-386.1233 515.7951,-355.5052 602.8679,-348.2365"/>
<polygon fill="#191970" stroke="#191970" points="603.2036,-351.721 612.9042,-347.4608 602.6642,-344.7418 603.2036,-351.721"/>
</g>
<!-- Node9&#45;&gt;Node10 -->
<g id="edge9" class="edge">
<title>Node9&#45;&gt;Node10</title>
<path fill="none" stroke="#191970" d="M675.2607,-616.2455C687.1552,-607.814 704.565,-595.4729 718.4085,-585.6598"/>
<polygon fill="#191970" stroke="#191970" points="720.7628,-588.2811 726.8969,-579.6427 716.7146,-582.5704 720.7628,-588.2811"/>
</g>
<!-- Node11 -->
<g id="node11" class="node">
<title>Node11</title>
<g id="a_node11"><a xlink:href="_s_l_g_l_enums_8h.html" target="_top" xlink:title=" ">
<polygon fill="#ffffff" stroke="#000000" points="765.5,-448.5 765.5,-467.5 847.5,-467.5 847.5,-448.5 765.5,-448.5"/>
<text text-anchor="middle" x="806.5" y="-455.5" font-family="Arial.ttf" font-size="10.00" fill="#000000">SLGLEnums.h</text>
</a>
</g>
</g>
<!-- Node10&#45;&gt;Node11 -->
<g id="edge10" class="edge">
<title>Node10&#45;&gt;Node11</title>
<path fill="none" stroke="#191970" d="M753.4856,-560.4347C764.0936,-551.9704 778.7209,-538.7049 787.5,-524 795.9998,-509.7629 800.8717,-491.5181 803.5491,-477.8207"/>
<polygon fill="#191970" stroke="#191970" points="807.066,-478.0211 805.3133,-467.5722 800.1675,-476.8335 807.066,-478.0211"/>
</g>
<!-- Node33 -->
<g id="node33" class="node">
<title>Node33</title>
<g id="a_node33"><a xlink:href="_s_l_g_l_vertex_buffer_8h.html" target="_top" xlink:title=" ">
<polygon fill="#ffffff" stroke="#000000" points="672.5,-504.5 672.5,-523.5 778.5,-523.5 778.5,-504.5 672.5,-504.5"/>
<text text-anchor="middle" x="725.5" y="-511.5" font-family="Arial.ttf" font-size="10.00" fill="#000000">SLGLVertexBuffer.h</text>
</a>
</g>
</g>
<!-- Node10&#45;&gt;Node33 -->
<g id="edge53" class="edge">
<title>Node10&#45;&gt;Node33</title>
<path fill="none" stroke="#191970" d="M737.8872,-560.2455C735.9084,-552.8579 733.1256,-542.4689 730.6988,-533.4087"/>
<polygon fill="#191970" stroke="#191970" points="734.0511,-532.3966 728.0829,-523.6427 727.2895,-534.2078 734.0511,-532.3966"/>
</g>
<!-- Node12 -->
<g id="node12" class="node">
<title>Node12</title>
<g id="a_node12"><a xlink:href="_s_l_8h.html" target="_top" xlink:title=" ">
<polygon fill="#ffffff" stroke="#000000" points="916,-224.5 916,-243.5 953,-243.5 953,-224.5 916,-224.5"/>
<text text-anchor="middle" x="934.5" y="-231.5" font-family="Arial.ttf" font-size="10.00" fill="#000000">SL.h</text>
</a>
</g>
</g>
<!-- Node11&#45;&gt;Node12 -->
<g id="edge11" class="edge">
<title>Node11&#45;&gt;Node12</title>
<path fill="none" stroke="#191970" d="M818.888,-448.2155C846.2797,-425.6603 911.3157,-366.7994 933.5,-300 938.4663,-285.0461 938.3862,-267.1158 937.2479,-253.7205"/>
<polygon fill="#191970" stroke="#191970" points="940.7172,-253.2504 936.1304,-243.6999 933.7604,-254.0262 940.7172,-253.2504"/>
</g>
<!-- Node21 -->
<g id="node21" class="node">
<title>Node21</title>
<g id="a_node21"><a xlink:href="_s_l_g_l_state_8h.html" target="_top" xlink:title=" ">
<polygon fill="#ffffff" stroke="#000000" points="769.5,-392.5 769.5,-411.5 843.5,-411.5 843.5,-392.5 769.5,-392.5"/>
<text text-anchor="middle" x="806.5" y="-399.5" font-family="Arial.ttf" font-size="10.00" fill="#000000">SLGLState.h</text>
</a>
</g>
</g>
<!-- Node11&#45;&gt;Node21 -->
<g id="edge24" class="edge">
<title>Node11&#45;&gt;Node21</title>
<path fill="none" stroke="#191970" d="M806.5,-448.2455C806.5,-440.9382 806.5,-430.6944 806.5,-421.7046"/>
<polygon fill="#191970" stroke="#191970" points="810.0001,-421.6426 806.5,-411.6427 803.0001,-421.6427 810.0001,-421.6426"/>
</g>
<!-- Node13 -->
<g id="node13" class="node">
<title>Node13</title>
<g id="a_node13"><a xlink:href="_utils_8h.html" target="_top" xlink:title=" ">
<polygon fill="#ffffff" stroke="#000000" points="623.5,-112.5 623.5,-131.5 667.5,-131.5 667.5,-112.5 623.5,-112.5"/>
<text text-anchor="middle" x="645.5" y="-119.5" font-family="Arial.ttf" font-size="10.00" fill="#000000">Utils.h</text>
</a>
</g>
</g>
<!-- Node12&#45;&gt;Node13 -->
<g id="edge12" class="edge">
<title>Node12&#45;&gt;Node13</title>
<path fill="none" stroke="#191970" d="M929.3684,-224.1118C921.1608,-209.3566 903.6221,-181.8344 880.5,-168 846.65,-147.7468 733.8511,-132.2432 677.7517,-125.5768"/>
<polygon fill="#191970" stroke="#191970" points="677.9859,-122.0805 667.6478,-124.3991 677.1754,-129.0334 677.9859,-122.0805"/>
</g>
<!-- Node13&#45;&gt;Node5 -->
<g id="edge14" class="edge">
<title>Node13&#45;&gt;Node5</title>
<path fill="none" stroke="#191970" d="M623.411,-118.6249C582.8353,-112.2318 493.5893,-97.2738 409.4585,-76.0191"/>
<polygon fill="#191970" stroke="#191970" points="410.3131,-72.625 399.7573,-73.5337 408.5758,-79.406 410.3131,-72.625"/>
</g>
<!-- Node14 -->
<g id="node14" class="node">
<title>Node14</title>
<g id="a_node14"><a xlink:title=" ">
<polygon fill="#ffffff" stroke="#bfbfbf" points="506,-.5 506,-19.5 547,-19.5 547,-.5 506,-.5"/>
<text text-anchor="middle" x="526.5" y="-7.5" font-family="Arial.ttf" font-size="10.00" fill="#000000">string</text>
</a>
</g>
</g>
<!-- Node13&#45;&gt;Node14 -->
<g id="edge13" class="edge">
<title>Node13&#45;&gt;Node14</title>
<path fill="none" stroke="#191970" d="M623.2812,-114.2658C604.6191,-106.8494 578.2326,-94.0971 560.5,-76 547.5605,-62.7945 538.4472,-43.6672 532.9346,-29.3998"/>
<polygon fill="#191970" stroke="#191970" points="536.0938,-27.8417 529.4172,-19.6153 529.5065,-30.2098 536.0938,-27.8417"/>
</g>
<!-- Node15 -->
<g id="node15" class="node">
<title>Node15</title>
<g id="a_node15"><a xlink:title=" ">
<polygon fill="#ffffff" stroke="#bfbfbf" points="663.5,-56.5 663.5,-75.5 703.5,-75.5 703.5,-56.5 663.5,-56.5"/>
<text text-anchor="middle" x="683.5" y="-63.5" font-family="Arial.ttf" font-size="10.00" fill="#000000">cfloat</text>
</a>
</g>
</g>
<!-- Node13&#45;&gt;Node15 -->
<g id="edge15" class="edge">
<title>Node13&#45;&gt;Node15</title>
<path fill="none" stroke="#191970" d="M652.1191,-112.2455C657.4046,-104.4564 664.9541,-93.3308 671.3238,-83.9439"/>
<polygon fill="#191970" stroke="#191970" points="674.2379,-85.8827 676.9568,-75.6427 668.4455,-81.9522 674.2379,-85.8827"/>
</g>
<!-- Node16 -->
<g id="node16" class="node">
<title>Node16</title>
<g id="a_node16"><a xlink:title=" ">
<polygon fill="#ffffff" stroke="#bfbfbf" points="682,-.5 682,-19.5 735,-19.5 735,-.5 682,-.5"/>
<text text-anchor="middle" x="708.5" y="-7.5" font-family="Arial.ttf" font-size="10.00" fill="#000000">memory</text>
</a>
</g>
</g>
<!-- Node13&#45;&gt;Node16 -->
<g id="edge16" class="edge">
<title>Node13&#45;&gt;Node16</title>
<path fill="none" stroke="#191970" d="M667.6536,-118.2279C704.5114,-111.4508 775.8382,-96.0333 790.5,-76 807.1784,-53.2113 773.8424,-33.8859 744.7958,-22.1463"/>
<polygon fill="#191970" stroke="#191970" points="745.7784,-18.7746 735.1881,-18.4618 743.2719,-25.3105 745.7784,-18.7746"/>
</g>
<!-- Node17 -->
<g id="node17" class="node">
<title>Node17</title>
<g id="a_node17"><a xlink:href="_file_log_8h.html" target="_top" xlink:title=" ">
<polygon fill="#ffffff" stroke="#000000" points="417.5,-56.5 417.5,-75.5 475.5,-75.5 475.5,-56.5 417.5,-56.5"/>
<text text-anchor="middle" x="446.5" y="-63.5" font-family="Arial.ttf" font-size="10.00" fill="#000000">FileLog.h</text>
</a>
</g>
</g>
<!-- Node13&#45;&gt;Node17 -->
<g id="edge17" class="edge">
<title>Node13&#45;&gt;Node17</title>
<path fill="none" stroke="#191970" d="M623.4432,-115.7931C590.1617,-106.4274 526.6279,-88.5486 485.4393,-76.9578"/>
<polygon fill="#191970" stroke="#191970" points="486.3104,-73.5671 475.7362,-74.2273 484.4142,-80.3053 486.3104,-73.5671"/>
</g>
<!-- Node19 -->
<g id="node19" class="node">
<title>Node19</title>
<g id="a_node19"><a xlink:href="_custom_log_8h.html" target="_top" xlink:title=" ">
<polygon fill="#ffffff" stroke="#000000" points="569.5,-56.5 569.5,-75.5 645.5,-75.5 645.5,-56.5 569.5,-56.5"/>
<text text-anchor="middle" x="607.5" y="-63.5" font-family="Arial.ttf" font-size="10.00" fill="#000000">CustomLog.h</text>
</a>
</g>
</g>
<!-- Node13&#45;&gt;Node19 -->
<g id="edge20" class="edge">
<title>Node13&#45;&gt;Node19</title>
<path fill="none" stroke="#191970" d="M638.8809,-112.2455C633.5954,-104.4564 626.0459,-93.3308 619.6762,-83.9439"/>
<polygon fill="#191970" stroke="#191970" points="622.5545,-81.9522 614.0432,-75.6427 616.7621,-85.8827 622.5545,-81.9522"/>
</g>
<!-- Node20 -->
<g id="node20" class="node">
<title>Node20</title>
<g id="a_node20"><a xlink:title=" ">
<polygon fill="#ffffff" stroke="#bfbfbf" points="722,-56.5 722,-75.5 781,-75.5 781,-56.5 722,-56.5"/>
<text text-anchor="middle" x="751.5" y="-63.5" font-family="Arial.ttf" font-size="10.00" fill="#000000">functional</text>
</a>
</g>
</g>
<!-- Node13&#45;&gt;Node20 -->
<g id="edge23" class="edge">
<title>Node13&#45;&gt;Node20</title>
<path fill="none" stroke="#191970" d="M663.9638,-112.2455C680.6074,-103.4527 705.2993,-90.4079 724.2192,-80.4125"/>
<polygon fill="#191970" stroke="#191970" points="726.0408,-83.4086 733.2478,-75.6427 722.7709,-77.2193 726.0408,-83.4086"/>
</g>
<!-- Node17&#45;&gt;Node14 -->
<g id="edge18" class="edge">
<title>Node17&#45;&gt;Node14</title>
<path fill="none" stroke="#191970" d="M460.4349,-56.2455C472.5947,-47.7337 490.4464,-35.2375 504.5285,-25.3801"/>
<polygon fill="#191970" stroke="#191970" points="506.5395,-28.2447 512.7248,-19.6427 502.5253,-22.51 506.5395,-28.2447"/>
</g>
<!-- Node18 -->
<g id="node18" class="node">
<title>Node18</title>
<g id="a_node18"><a xlink:title=" ">
<polygon fill="#ffffff" stroke="#bfbfbf" points="421.5,-.5 421.5,-19.5 471.5,-19.5 471.5,-.5 421.5,-.5"/>
<text text-anchor="middle" x="446.5" y="-7.5" font-family="Arial.ttf" font-size="10.00" fill="#000000">fstream</text>
</a>
</g>
</g>
<!-- Node17&#45;&gt;Node18 -->
<g id="edge19" class="edge">
<title>Node17&#45;&gt;Node18</title>
<path fill="none" stroke="#191970" d="M446.5,-56.2455C446.5,-48.9382 446.5,-38.6944 446.5,-29.7046"/>
<polygon fill="#191970" stroke="#191970" points="450.0001,-29.6426 446.5,-19.6427 443.0001,-29.6427 450.0001,-29.6426"/>
</g>
<!-- Node19&#45;&gt;Node14 -->
<g id="edge22" class="edge">
<title>Node19&#45;&gt;Node14</title>
<path fill="none" stroke="#191970" d="M593.3909,-56.2455C581.0791,-47.7337 563.0042,-35.2375 548.7462,-25.3801"/>
<polygon fill="#191970" stroke="#191970" points="550.6634,-22.4506 540.4474,-19.6427 546.6826,-28.2085 550.6634,-22.4506"/>
</g>
<!-- Node19&#45;&gt;Node16 -->
<g id="edge21" class="edge">
<title>Node19&#45;&gt;Node16</title>
<path fill="none" stroke="#191970" d="M625.0929,-56.2455C640.879,-47.4928 664.2639,-34.527 682.2587,-24.5496"/>
<polygon fill="#191970" stroke="#191970" points="684.0603,-27.5528 691.1087,-19.6427 680.6659,-21.4308 684.0603,-27.5528"/>
</g>
<!-- Node21&#45;&gt;Node12 -->
<g id="edge25" class="edge">
<title>Node21&#45;&gt;Node12</title>
<path fill="none" stroke="#191970" d="M821.2244,-392.2502C844.6886,-375.9487 890.4623,-340.8897 915.5,-300 924.1588,-285.859 929.017,-267.6059 931.6486,-253.8809"/>
<polygon fill="#191970" stroke="#191970" points="935.1694,-254.0474 933.37,-243.6065 928.2656,-252.8907 935.1694,-254.0474"/>
</g>
<!-- Node21&#45;&gt;Node22 -->
<g id="edge26" class="edge">
<title>Node21&#45;&gt;Node22</title>
<path fill="none" stroke="#191970" d="M769.4777,-399.9823C695.8041,-394.4315 527.9147,-373.9813 411.5,-300 392.096,-287.6688 375.436,-266.9805 365.0148,-252.0497"/>
<polygon fill="#191970" stroke="#191970" points="367.8404,-249.9791 359.3636,-243.6235 362.0268,-253.8781 367.8404,-249.9791"/>
</g>
<!-- Node26 -->
<g id="node26" class="node">
<title>Node26</title>
<g id="a_node26"><a xlink:href="_s_l_vec4_8h.html" target="_top" xlink:title=" ">
<polygon fill="#ffffff" stroke="#000000" points="846.5,-280.5 846.5,-299.5 906.5,-299.5 906.5,-280.5 846.5,-280.5"/>
<text text-anchor="middle" x="876.5" y="-287.5" font-family="Arial.ttf" font-size="10.00" fill="#000000">SLVec4.h</text>
</a>
</g>
</g>
<!-- Node21&#45;&gt;Node26 -->
<g id="edge35" class="edge">
<title>Node21&#45;&gt;Node26</title>
<path fill="none" stroke="#191970" d="M812.4682,-392.4509C824.1433,-373.7707 850.1726,-332.1238 865.2024,-308.0761"/>
<polygon fill="#191970" stroke="#191970" points="868.2149,-309.8599 870.5469,-299.5249 862.2789,-306.1499 868.2149,-309.8599"/>
</g>
<!-- Node21&#45;&gt;Node27 -->
<g id="edge40" class="edge">
<title>Node21&#45;&gt;Node27</title>
<path fill="none" stroke="#191970" d="M778.3074,-392.3733C751.1547,-383.1016 709.9093,-369.0178 679.9975,-358.804"/>
<polygon fill="#191970" stroke="#191970" points="680.9192,-355.4204 670.3247,-355.5011 678.6572,-362.0449 680.9192,-355.4204"/>
</g>
<!-- Node22&#45;&gt;Node13 -->
<g id="edge34" class="edge">
<title>Node22&#45;&gt;Node13</title>
<path fill="none" stroke="#191970" d="M367.3955,-224.3802C388.4102,-210.2213 429.9258,-183.7498 468.5,-168 517.3249,-148.0649 577.3067,-134.6334 613.4123,-127.6586"/>
<polygon fill="#191970" stroke="#191970" points="614.1939,-131.073 623.3728,-125.7817 612.8977,-124.194 614.1939,-131.073"/>
</g>
<!-- Node23 -->
<g id="node23" class="node">
<title>Node23</title>
<g id="a_node23"><a xlink:title=" ">
<polygon fill="#ffffff" stroke="#bfbfbf" points="336,-168.5 336,-187.5 383,-187.5 383,-168.5 336,-168.5"/>
<text text-anchor="middle" x="359.5" y="-175.5" font-family="Arial.ttf" font-size="10.00" fill="#000000">math.h</text>
</a>
</g>
</g>
<!-- Node22&#45;&gt;Node23 -->
<g id="edge27" class="edge">
<title>Node22&#45;&gt;Node23</title>
<path fill="none" stroke="#191970" d="M354.5451,-224.2455C355.328,-216.9382 356.4256,-206.6944 357.3888,-197.7046"/>
<polygon fill="#191970" stroke="#191970" points="360.8815,-197.9587 358.4669,-187.6427 353.9214,-197.2129 360.8815,-197.9587"/>
</g>
<!-- Node24 -->
<g id="node24" class="node">
<title>Node24</title>
<g id="a_node24"><a xlink:href="_s_l_math_8h.html" target="_top" xlink:title=" ">
<polygon fill="#ffffff" stroke="#000000" points="360,-112.5 360,-131.5 419,-131.5 419,-112.5 360,-112.5"/>
<text text-anchor="middle" x="389.5" y="-119.5" font-family="Arial.ttf" font-size="10.00" fill="#000000">SLMath.h</text>
</a>
</g>
</g>
<!-- Node22&#45;&gt;Node24 -->
<g id="edge28" class="edge">
<title>Node22&#45;&gt;Node24</title>
<path fill="none" stroke="#191970" d="M344.6152,-224.3647C333.6993,-211.2963 317.7564,-187.3616 327.5,-168 334.1737,-154.7387 346.6793,-144.3415 358.7207,-136.8125"/>
<polygon fill="#191970" stroke="#191970" points="360.8201,-139.6422 367.7342,-131.6143 357.323,-133.5783 360.8201,-139.6422"/>
</g>
<!-- Node25 -->
<g id="node25" class="node">
<title>Node25</title>
<g id="a_node25"><a xlink:href="_s_l_vec2_8h.html" target="_top" xlink:title=" ">
<polygon fill="#ffffff" stroke="#000000" points="477.5,-168.5 477.5,-187.5 537.5,-187.5 537.5,-168.5 477.5,-168.5"/>
<text text-anchor="middle" x="507.5" y="-175.5" font-family="Arial.ttf" font-size="10.00" fill="#000000">SLVec2.h</text>
</a>
</g>
</g>
<!-- Node22&#45;&gt;Node25 -->
<g id="edge31" class="edge">
<title>Node22&#45;&gt;Node25</title>
<path fill="none" stroke="#191970" d="M379.9735,-224.3733C405.3597,-215.1419 443.8645,-201.1402 471.922,-190.9375"/>
<polygon fill="#191970" stroke="#191970" points="473.1701,-194.2079 481.3719,-187.5011 470.7778,-187.6293 473.1701,-194.2079"/>
</g>
<!-- Node24&#45;&gt;Node5 -->
<g id="edge29" class="edge">
<title>Node24&#45;&gt;Node5</title>
<path fill="none" stroke="#191970" d="M387.4098,-112.2455C385.8439,-104.9382 383.6488,-94.6944 381.7224,-85.7046"/>
<polygon fill="#191970" stroke="#191970" points="385.084,-84.6873 379.5663,-75.6427 378.2393,-86.1541 385.084,-84.6873"/>
</g>
<!-- Node24&#45;&gt;Node14 -->
<g id="edge30" class="edge">
<title>Node24&#45;&gt;Node14</title>
<path fill="none" stroke="#191970" d="M419.407,-112.4087C439.4834,-104.8701 465.6138,-92.8168 484.5,-76 499.1919,-62.9179 510.7039,-43.5111 517.931,-29.1246"/>
<polygon fill="#191970" stroke="#191970" points="521.2803,-30.2317 522.4204,-19.6984 514.9605,-27.2217 521.2803,-30.2317"/>
</g>
<!-- Node25&#45;&gt;Node13 -->
<g id="edge33" class="edge">
<title>Node25&#45;&gt;Node13</title>
<path fill="none" stroke="#191970" d="M531.223,-168.3733C554.0818,-159.0972 588.8104,-145.0045 613.983,-134.7895"/>
<polygon fill="#191970" stroke="#191970" points="615.5022,-137.9503 623.4522,-130.9469 612.87,-131.464 615.5022,-137.9503"/>
</g>
<!-- Node25&#45;&gt;Node24 -->
<g id="edge32" class="edge">
<title>Node25&#45;&gt;Node24</title>
<path fill="none" stroke="#191970" d="M487.2151,-168.3733C468.3579,-159.4241 440.054,-145.9917 418.7545,-135.8835"/>
<polygon fill="#191970" stroke="#191970" points="420.0551,-132.6266 409.5202,-131.5011 417.0539,-138.9506 420.0551,-132.6266"/>
</g>
<!-- Node26&#45;&gt;Node12 -->
<g id="edge36" class="edge">
<title>Node26&#45;&gt;Node12</title>
<path fill="none" stroke="#191970" d="M886.6028,-280.2455C895.0028,-272.1352 907.1494,-260.4075 917.1084,-250.7919"/>
<polygon fill="#191970" stroke="#191970" points="919.75,-253.1066 924.5129,-243.6427 914.8878,-248.0707 919.75,-253.1066"/>
</g>
<!-- Node26&#45;&gt;Node13 -->
<g id="edge39" class="edge">
<title>Node26&#45;&gt;Node13</title>
<path fill="none" stroke="#191970" d="M875.9912,-280.41C874.2331,-257.3758 866.4705,-198.5806 832.5,-168 809.9188,-147.6723 725.1415,-133.0219 677.866,-126.2338"/>
<polygon fill="#191970" stroke="#191970" points="678.2147,-122.7486 667.8262,-124.8295 677.245,-129.6811 678.2147,-122.7486"/>
</g>
<!-- Node26&#45;&gt;Node22 -->
<g id="edge38" class="edge">
<title>Node26&#45;&gt;Node22</title>
<path fill="none" stroke="#191970" d="M846.1686,-285.8733C832.0005,-283.9938 814.8983,-281.7937 799.5,-280 650.148,-262.6029 472.2553,-245.2699 393.9253,-237.8092"/>
<polygon fill="#191970" stroke="#191970" points="393.833,-234.2847 383.5467,-236.823 393.1707,-241.2534 393.833,-234.2847"/>
</g>
<!-- Node26&#45;&gt;Node25 -->
<g id="edge37" class="edge">
<title>Node26&#45;&gt;Node25</title>
<path fill="none" stroke="#191970" d="M846.3032,-280.8346C780.0529,-260.7261 621.9424,-212.7359 547.5236,-190.1481"/>
<polygon fill="#191970" stroke="#191970" points="548.1821,-186.6903 537.5966,-187.135 546.1489,-193.3886 548.1821,-186.6903"/>
</g>
<!-- Node27&#45;&gt;Node13 -->
<g id="edge43" class="edge">
<title>Node27&#45;&gt;Node13</title>
<path fill="none" stroke="#191970" d="M672.0864,-341.5976C713.1786,-334.8092 784.2176,-320.4026 799.5,-300 847.4375,-236.0019 732.1135,-165.8412 675.1053,-136.3309"/>
<polygon fill="#191970" stroke="#191970" points="676.3408,-133.0329 665.8397,-131.6265 673.1717,-139.2745 676.3408,-133.0329"/>
</g>
<!-- Node27&#45;&gt;Node22 -->
<g id="edge49" class="edge">
<title>Node27&#45;&gt;Node22</title>
<path fill="none" stroke="#191970" d="M612.9733,-342.403C574.1487,-336.9135 504.4291,-324.4069 449.5,-300 420.4599,-287.0965 390.9051,-265.1712 372.406,-250.1586"/>
<polygon fill="#191970" stroke="#191970" points="374.4296,-247.2901 364.4947,-243.6093 369.9658,-252.6822 374.4296,-247.2901"/>
</g>
<!-- Node27&#45;&gt;Node24 -->
<g id="edge41" class="edge">
<title>Node27&#45;&gt;Node24</title>
<path fill="none" stroke="#191970" d="M612.8437,-343.2241C568.0414,-338.3424 480.9588,-326.15 411.5,-300 364.9125,-282.4606 339.3904,-287.1103 314.5,-244 306.7492,-230.5756 305.1686,-191.95 319.5,-168 327.751,-154.2113 341.921,-143.7557 355.363,-136.3248"/>
<polygon fill="#191970" stroke="#191970" points="357.1661,-139.3337 364.471,-131.6598 353.975,-133.1034 357.1661,-139.3337"/>
</g>
<!-- Node27&#45;&gt;Node26 -->
<g id="edge50" class="edge">
<title>Node27&#45;&gt;Node26</title>
<path fill="none" stroke="#191970" d="M672.1363,-338.9076C713.8411,-328.9269 789.9533,-310.712 836.5986,-299.5491"/>
<polygon fill="#191970" stroke="#191970" points="837.4545,-302.9431 846.3652,-297.2117 835.8252,-296.1354 837.4545,-302.9431"/>
</g>
<!-- Node28 -->
<g id="node28" class="node">
<title>Node28</title>
<g id="a_node28"><a xlink:title=" ">
<polygon fill="#ffffff" stroke="#bfbfbf" points="682.5,-280.5 682.5,-299.5 722.5,-299.5 722.5,-280.5 682.5,-280.5"/>
<text text-anchor="middle" x="702.5" y="-287.5" font-family="Arial.ttf" font-size="10.00" fill="#000000">stack</text>
</a>
</g>
</g>
<!-- Node27&#45;&gt;Node28 -->
<g id="edge42" class="edge">
<title>Node27&#45;&gt;Node28</title>
<path fill="none" stroke="#191970" d="M652.9512,-336.2455C661.7269,-328.0549 674.4554,-316.1749 684.814,-306.5069"/>
<polygon fill="#191970" stroke="#191970" points="687.2461,-309.0246 692.1686,-299.6427 682.4699,-303.9072 687.2461,-309.0246"/>
</g>
<!-- Node29 -->
<g id="node29" class="node">
<title>Node29</title>
<g id="a_node29"><a xlink:href="_s_l_mat3_8h.html" target="_top" xlink:title=" ">
<polygon fill="#ffffff" stroke="#000000" points="605,-280.5 605,-299.5 664,-299.5 664,-280.5 605,-280.5"/>
<text text-anchor="middle" x="634.5" y="-287.5" font-family="Arial.ttf" font-size="10.00" fill="#000000">SLMat3.h</text>
</a>
</g>
</g>
<!-- Node27&#45;&gt;Node29 -->
<g id="edge44" class="edge">
<title>Node27&#45;&gt;Node29</title>
<path fill="none" stroke="#191970" d="M641.1065,-336.2455C640.0626,-328.9382 638.5992,-318.6944 637.3149,-309.7046"/>
<polygon fill="#191970" stroke="#191970" points="640.7566,-309.0472 635.8775,-299.6427 633.827,-310.0372 640.7566,-309.0472"/>
</g>
<!-- Node31 -->
<g id="node31" class="node">
<title>Node31</title>
<g id="a_node31"><a xlink:title=" ">
<polygon fill="#ffffff" stroke="#bfbfbf" points="741,-280.5 741,-299.5 790,-299.5 790,-280.5 741,-280.5"/>
<text text-anchor="middle" x="765.5" y="-287.5" font-family="Arial.ttf" font-size="10.00" fill="#000000">cassert</text>
</a>
</g>
</g>
<!-- Node27&#45;&gt;Node31 -->
<g id="edge51" class="edge">
<title>Node27&#45;&gt;Node31</title>
<path fill="none" stroke="#191970" d="M663.6445,-336.3733C683.3892,-327.3838 713.0698,-313.8706 735.3055,-303.7471"/>
<polygon fill="#191970" stroke="#191970" points="736.9806,-306.8302 744.6315,-299.5011 734.08,-300.4594 736.9806,-306.8302"/>
</g>
<!-- Node32 -->
<g id="node32" class="node">
<title>Node32</title>
<g id="a_node32"><a xlink:title=" ">
<polygon fill="#ffffff" stroke="#bfbfbf" points="458,-280.5 458,-299.5 587,-299.5 587,-280.5 458,-280.5"/>
<text text-anchor="middle" x="522.5" y="-287.5" font-family="Arial.ttf" font-size="10.00" fill="#000000">Shoemake/Decompose.h</text>
</a>
</g>
</g>
<!-- Node27&#45;&gt;Node32 -->
<g id="edge52" class="edge">
<title>Node27&#45;&gt;Node32</title>
<path fill="none" stroke="#191970" d="M621.8713,-336.3733C602.6081,-327.3838 573.6514,-313.8706 551.9581,-303.7471"/>
<polygon fill="#191970" stroke="#191970" points="553.4015,-300.5584 542.8595,-299.5011 550.4413,-306.9017 553.4015,-300.5584"/>
</g>
<!-- Node29&#45;&gt;Node13 -->
<g id="edge46" class="edge">
<title>Node29&#45;&gt;Node13</title>
<path fill="none" stroke="#191970" d="M635.1229,-280.4862C636.8618,-253.9293 641.7963,-178.5651 644.1796,-142.1655"/>
<polygon fill="#191970" stroke="#191970" points="647.6956,-142.0352 644.8565,-131.8279 640.7105,-141.5778 647.6956,-142.0352"/>
</g>
<!-- Node29&#45;&gt;Node22 -->
<g id="edge47" class="edge">
<title>Node29&#45;&gt;Node22</title>
<path fill="none" stroke="#191970" d="M604.683,-281.9174C601.9233,-281.2407 599.1641,-280.5906 596.5,-280 508.7501,-260.5481 485.5665,-261.9641 397.5,-244 396.2479,-243.7446 394.9767,-243.4811 393.694,-243.2117"/>
<polygon fill="#191970" stroke="#191970" points="394.2723,-239.7559 383.7584,-241.063 392.7926,-246.5977 394.2723,-239.7559"/>
</g>
<!-- Node29&#45;&gt;Node24 -->
<g id="edge45" class="edge">
<title>Node29&#45;&gt;Node24</title>
<path fill="none" stroke="#191970" d="M604.5844,-282.0795C579.5332,-274.6186 543.4883,-261.9028 515.5,-244 468.9488,-214.2235 425.076,-165.3517 403.4793,-139.4236"/>
<polygon fill="#191970" stroke="#191970" points="406.0859,-137.0826 397.0375,-131.5709 400.6739,-141.5222 406.0859,-137.0826"/>
</g>
<!-- Node30 -->
<g id="node30" class="node">
<title>Node30</title>
<g id="a_node30"><a xlink:title=" ">
<polygon fill="#ffffff" stroke="#bfbfbf" points="524,-224.5 524,-243.5 579,-243.5 579,-224.5 524,-224.5"/>
<text text-anchor="middle" x="551.5" y="-231.5" font-family="Arial.ttf" font-size="10.00" fill="#000000">iostream</text>
</a>
</g>
</g>
<!-- Node29&#45;&gt;Node30 -->
<g id="edge48" class="edge">
<title>Node29&#45;&gt;Node30</title>
<path fill="none" stroke="#191970" d="M620.0425,-280.2455C607.4268,-271.7337 588.9056,-259.2375 574.2955,-249.3801"/>
<polygon fill="#191970" stroke="#191970" points="576.0391,-246.3343 565.7918,-243.6427 572.1239,-252.1371 576.0391,-246.3343"/>
</g>
<!-- Node33&#45;&gt;Node11 -->
<g id="edge54" class="edge">
<title>Node33&#45;&gt;Node11</title>
<path fill="none" stroke="#191970" d="M739.6091,-504.2455C751.9209,-495.7337 769.9958,-483.2375 784.2538,-473.3801"/>
<polygon fill="#191970" stroke="#191970" points="786.3174,-476.2085 792.5526,-467.6427 782.3366,-470.4506 786.3174,-476.2085"/>
</g>
<!-- Node33&#45;&gt;Node22 -->
<g id="edge56" class="edge">
<title>Node33&#45;&gt;Node22</title>
<path fill="none" stroke="#191970" d="M672.4209,-510.5704C580.0712,-504.0863 397.6944,-488.7931 377.5,-468 320.3203,-409.1249 338.126,-298.4785 348.4235,-253.6288"/>
<polygon fill="#191970" stroke="#191970" points="351.8721,-254.2589 350.8295,-243.7155 345.0696,-252.6078 351.8721,-254.2589"/>
</g>
<!-- Node33&#45;&gt;Node25 -->
<g id="edge55" class="edge">
<title>Node33&#45;&gt;Node25</title>
<path fill="none" stroke="#191970" d="M672.2074,-507.3536C577.9101,-494.0933 391.5,-460.4837 391.5,-402 391.5,-402 391.5,-402 391.5,-346 391.5,-279.9968 452.8797,-221.1226 486.3419,-193.9304"/>
<polygon fill="#191970" stroke="#191970" points="488.5253,-196.6659 494.1933,-187.7147 484.1804,-191.1776 488.5253,-196.6659"/>
</g>
<!-- Node33&#45;&gt;Node26 -->
<g id="edge57" class="edge">
<title>Node33&#45;&gt;Node26</title>
<path fill="none" stroke="#191970" d="M726.4073,-504.3855C728.8234,-482.7527 736.9245,-429.2337 760.5,-392 784.241,-354.5049 825.7622,-322.8623 852.155,-305.1742"/>
<polygon fill="#191970" stroke="#191970" points="854.3548,-307.9175 860.8056,-299.513 850.5216,-302.0603 854.3548,-307.9175"/>
</g>
<!-- Node35&#45;&gt;Node12 -->
<g id="edge62" class="edge">
<title>Node35&#45;&gt;Node12</title>
<path fill="none" stroke="#191970" d="M928.025,-616.3812C957.1828,-599.7571 1010.5,-562.7005 1010.5,-514 1010.5,-514 1010.5,-514 1010.5,-346 1010.5,-306.2361 977.2929,-270.1042 954.7792,-250.177"/>
<polygon fill="#191970" stroke="#191970" points="956.9317,-247.4128 947.0499,-243.5918 952.3921,-252.7412 956.9317,-247.4128"/>
</g>
</g>
</svg>
