<?xml version="1.0" encoding="UTF-8" standalone="no"?>
<!DOCTYPE svg PUBLIC "-//W3C//DTD SVG 1.1//EN"
 "http://www.w3.org/Graphics/SVG/1.1/DTD/svg11.dtd">
<!-- Generated by graphviz version 2.28.0 (20110507.0327)
 -->
<!-- Title: SLRaytracer.h Pages: 1 -->
<svg width="2396pt" height="308pt"
 viewBox="0.00 0.00 2396.00 308.00" xmlns="http://www.w3.org/2000/svg" xmlns:xlink="http://www.w3.org/1999/xlink">
<g id="graph1" class="graph" transform="scale(1 1) rotate(0) translate(4 304)">
<title>SLRaytracer.h</title>
<polygon fill="white" stroke="white" points="-4,5 -4,-304 2393,-304 2393,5 -4,5"/>
<!-- Node1 -->
<g id="node1" class="node"><title>Node1</title>
<polygon fill="#bfbfbf" stroke="black" points="217.5,-280.5 217.5,-299.5 300.5,-299.5 300.5,-280.5 217.5,-280.5"/>
<text text-anchor="middle" x="259" y="-287.5" font-family="Arial.ttf" font-size="10.00">SLRaytracer.h</text>
</g>
<!-- Node2 -->
<g id="node3" class="node"><title>Node2</title>
<a xlink:href="_s_l_mesh_8cpp.html" target="_top" xlink:title="SLMesh.cpp">
<polygon fill="white" stroke="black" points="0,-112.5 0,-131.5 74,-131.5 74,-112.5 0,-112.5"/>
<text text-anchor="middle" x="37" y="-119.5" font-family="Arial.ttf" font-size="10.00">SLMesh.cpp</text>
</a>
</g>
<!-- Node1&#45;&gt;Node2 -->
<g id="edge2" class="edge"><title>Node1&#45;&gt;Node2</title>
<path fill="none" stroke="midnightblue" d="M239.241,-274.225C194.054,-240.437 84.315,-158.38 48.5081,-131.605"/>
<polygon fill="midnightblue" stroke="midnightblue" points="237.272,-277.123 247.377,-280.309 241.464,-271.517 237.272,-277.123"/>
</g>
<!-- Node3 -->
<g id="node5" class="node"><title>Node3</title>
<a xlink:href="_s_l_raytracer_8cpp.html" target="_top" xlink:title="SLRaytracer.cpp">
<polygon fill="white" stroke="black" points="92.5,-112.5 92.5,-131.5 187.5,-131.5 187.5,-112.5 92.5,-112.5"/>
<text text-anchor="middle" x="140" y="-119.5" font-family="Arial.ttf" font-size="10.00">SLRaytracer.cpp</text>
</a>
</g>
<!-- Node1&#45;&gt;Node3 -->
<g id="edge4" class="edge"><title>Node1&#45;&gt;Node3</title>
<path fill="none" stroke="midnightblue" d="M246.643,-271.763C221.43,-236.592 164.858,-157.676 146.142,-131.568"/>
<polygon fill="midnightblue" stroke="midnightblue" points="243.931,-273.987 252.602,-280.075 249.62,-269.908 243.931,-273.987"/>
</g>
<!-- Node4 -->
<g id="node7" class="node"><title>Node4</title>
<a xlink:href="_s_l_uniform_grid_8cpp.html" target="_top" xlink:title="SLUniformGrid.cpp">
<polygon fill="white" stroke="black" points="205.5,-112.5 205.5,-131.5 312.5,-131.5 312.5,-112.5 205.5,-112.5"/>
<text text-anchor="middle" x="259" y="-119.5" font-family="Arial.ttf" font-size="10.00">SLUniformGrid.cpp</text>
</a>
</g>
<!-- Node1&#45;&gt;Node4 -->
<g id="edge6" class="edge"><title>Node1&#45;&gt;Node4</title>
<path fill="none" stroke="midnightblue" d="M259,-269.93C259,-233.92 259,-157.231 259,-131.568"/>
<polygon fill="midnightblue" stroke="midnightblue" points="255.5,-270.075 259,-280.075 262.5,-270.075 255.5,-270.075"/>
</g>
<!-- Node5 -->
<g id="node9" class="node"><title>Node5</title>
<a xlink:href="_s_l_pathtracer_8h.html" target="_top" xlink:title="SLPathtracer.h">
<polygon fill="white" stroke="black" points="336,-224.5 336,-243.5 424,-243.5 424,-224.5 336,-224.5"/>
<text text-anchor="middle" x="380" y="-231.5" font-family="Arial.ttf" font-size="10.00">SLPathtracer.h</text>
</a>
</g>
<!-- Node1&#45;&gt;Node5 -->
<g id="edge8" class="edge"><title>Node1&#45;&gt;Node5</title>
<path fill="none" stroke="midnightblue" d="M287.306,-276.368C309.965,-266.255 341.126,-252.349 360.917,-243.516"/>
<polygon fill="midnightblue" stroke="midnightblue" points="285.878,-273.172 278.173,-280.444 288.731,-279.564 285.878,-273.172"/>
</g>
<!-- Node7 -->
<g id="node13" class="node"><title>Node7</title>
<a xlink:href="_s_l_scene_view_8h.html" target="_top" xlink:title="SLSceneView.h">
<polygon fill="white" stroke="black" points="950.5,-168.5 950.5,-187.5 1039.5,-187.5 1039.5,-168.5 950.5,-168.5"/>
<text text-anchor="middle" x="995" y="-175.5" font-family="Arial.ttf" font-size="10.00">SLSceneView.h</text>
</a>
</g>
<!-- Node1&#45;&gt;Node7 -->
<g id="edge88" class="edge"><title>Node1&#45;&gt;Node7</title>
<path fill="none" stroke="midnightblue" d="M310.949,-281.236C448.569,-260.668 820.839,-205.03 950.076,-185.714"/>
<polygon fill="midnightblue" stroke="midnightblue" points="310.052,-277.831 300.679,-282.771 311.087,-284.754 310.052,-277.831"/>
</g>
<!-- Node6 -->
<g id="node11" class="node"><title>Node6</title>
<a xlink:href="_s_l_pathtracer_8cpp.html" target="_top" xlink:title="SLPathtracer.cpp">
<polygon fill="white" stroke="black" points="330.5,-112.5 330.5,-131.5 429.5,-131.5 429.5,-112.5 330.5,-112.5"/>
<text text-anchor="middle" x="380" y="-119.5" font-family="Arial.ttf" font-size="10.00">SLPathtracer.cpp</text>
</a>
</g>
<!-- Node5&#45;&gt;Node6 -->
<g id="edge10" class="edge"><title>Node5&#45;&gt;Node6</title>
<path fill="none" stroke="midnightblue" d="M380,-214.348C380,-190.254 380,-149.308 380,-131.591"/>
<polygon fill="midnightblue" stroke="midnightblue" points="376.5,-214.368 380,-224.368 383.5,-214.369 376.5,-214.368"/>
</g>
<!-- Node5&#45;&gt;Node7 -->
<g id="edge12" class="edge"><title>Node5&#45;&gt;Node7</title>
<path fill="none" stroke="midnightblue" d="M434.286,-228.233C554.227,-217.702 839.903,-192.618 950.345,-182.921"/>
<polygon fill="midnightblue" stroke="midnightblue" points="433.885,-224.755 424.229,-229.116 434.497,-231.728 433.885,-224.755"/>
</g>
<!-- Node7&#45;&gt;Node2 -->
<g id="edge40" class="edge"><title>Node7&#45;&gt;Node2</title>
<path fill="none" stroke="midnightblue" d="M939.996,-177.037C797.729,-176.537 406.16,-171.379 83,-132 80.092,-131.646 77.0922,-131.213 74.0839,-130.731"/>
<polygon fill="midnightblue" stroke="midnightblue" points="940.194,-180.537 950.204,-177.066 940.214,-173.537 940.194,-180.537"/>
</g>
<!-- Node7&#45;&gt;Node3 -->
<g id="edge48" class="edge"><title>Node7&#45;&gt;Node3</title>
<path fill="none" stroke="midnightblue" d="M940.176,-175.859C810.47,-172.735 474.723,-162.165 196,-132 193.259,-131.703 190.447,-131.364 187.614,-130.995"/>
<polygon fill="midnightblue" stroke="midnightblue" points="940.176,-179.36 950.255,-176.096 940.341,-172.362 940.176,-179.36"/>
</g>
<!-- Node7&#45;&gt;Node4 -->
<g id="edge56" class="edge"><title>Node7&#45;&gt;Node4</title>
<path fill="none" stroke="midnightblue" d="M940.032,-174.775C824.944,-169.799 550.296,-156.26 321,-132 318.296,-131.714 315.529,-131.398 312.736,-131.06"/>
<polygon fill="midnightblue" stroke="midnightblue" points="940.197,-178.285 950.338,-175.216 940.497,-171.292 940.197,-178.285"/>
</g>
<!-- Node7&#45;&gt;Node6 -->
<g id="edge44" class="edge"><title>Node7&#45;&gt;Node6</title>
<path fill="none" stroke="midnightblue" d="M940.328,-173.918C840.379,-167.986 621.555,-153.626 438,-132 435.268,-131.678 432.466,-131.324 429.641,-130.948"/>
<polygon fill="midnightblue" stroke="midnightblue" points="940.298,-177.422 950.486,-174.516 940.709,-170.434 940.298,-177.422"/>
</g>
<!-- Node8 -->
<g id="node15" class="node"><title>Node8</title>
<a xlink:href="_s_l_c_v_capture_8cpp.html" target="_top" xlink:title="SLCVCapture.cpp">
<polygon fill="white" stroke="black" points="447.5,-112.5 447.5,-131.5 548.5,-131.5 548.5,-112.5 447.5,-112.5"/>
<text text-anchor="middle" x="498" y="-119.5" font-family="Arial.ttf" font-size="10.00">SLCVCapture.cpp</text>
</a>
</g>
<!-- Node7&#45;&gt;Node8 -->
<g id="edge14" class="edge"><title>Node7&#45;&gt;Node8</title>
<path fill="none" stroke="midnightblue" d="M940.257,-172.244C857.246,-164.836 694.618,-149.555 557,-132 554.225,-131.646 551.379,-131.267 548.508,-130.871"/>
<polygon fill="midnightblue" stroke="midnightblue" points="940.193,-175.752 950.463,-173.151 940.813,-168.779 940.193,-175.752"/>
</g>
<!-- Node9 -->
<g id="node17" class="node"><title>Node9</title>
<a xlink:href="_s_l_c_v_feature_manager_8cpp.html" target="_top" xlink:title="SLCVFeatureManager.cpp">
<polygon fill="white" stroke="black" points="566.5,-112.5 566.5,-131.5 707.5,-131.5 707.5,-112.5 566.5,-112.5"/>
<text text-anchor="middle" x="637" y="-119.5" font-family="Arial.ttf" font-size="10.00">SLCVFeatureManager.cpp</text>
</a>
</g>
<!-- Node7&#45;&gt;Node9 -->
<g id="edge16" class="edge"><title>Node7&#45;&gt;Node9</title>
<path fill="none" stroke="midnightblue" d="M940.469,-168.775C873.661,-158.698 761.045,-141.711 693.398,-131.507"/>
<polygon fill="midnightblue" stroke="midnightblue" points="939.973,-172.239 950.383,-170.27 941.017,-165.318 939.973,-172.239"/>
</g>
<!-- Node10 -->
<g id="node19" class="node"><title>Node10</title>
<a xlink:href="_s_l_c_v_tracked_aruco_8cpp.html" target="_top" xlink:title="SLCVTrackedAruco.cpp">
<polygon fill="white" stroke="black" points="672,-0.5 672,-19.5 800,-19.5 800,-0.5 672,-0.5"/>
<text text-anchor="middle" x="736" y="-7.5" font-family="Arial.ttf" font-size="10.00">SLCVTrackedAruco.cpp</text>
</a>
</g>
<!-- Node7&#45;&gt;Node10 -->
<g id="edge18" class="edge"><title>Node7&#45;&gt;Node10</title>
<path fill="none" stroke="midnightblue" d="M940.238,-171.683C881.732,-165.062 793.787,-152.108 767,-132 731.1,-105.052 732.989,-42.5712 735.027,-19.6401"/>
<polygon fill="midnightblue" stroke="midnightblue" points="940.115,-175.191 950.438,-172.808 940.882,-168.233 940.115,-175.191"/>
</g>
<!-- Node11 -->
<g id="node21" class="node"><title>Node11</title>
<a xlink:href="_s_l_c_v_tracked_features_8cpp.html" target="_top" xlink:title="SLCVTrackedFeatures.cpp">
<polygon fill="white" stroke="black" points="1386,-0.5 1386,-19.5 1528,-19.5 1528,-0.5 1386,-0.5"/>
<text text-anchor="middle" x="1457" y="-7.5" font-family="Arial.ttf" font-size="10.00">SLCVTrackedFeatures.cpp</text>
</a>
</g>
<!-- Node7&#45;&gt;Node11 -->
<g id="edge20" class="edge"><title>Node7&#45;&gt;Node11</title>
<path fill="none" stroke="midnightblue" d="M982.7,-159.654C974.064,-145.174 966.005,-124.888 978,-112 1054.05,-30.293 1402.95,-157.707 1479,-76 1493.93,-59.9537 1476.04,-33.3948 1464.79,-19.7248"/>
<polygon fill="midnightblue" stroke="midnightblue" points="979.867,-161.719 988.252,-168.196 985.736,-157.904 979.867,-161.719"/>
</g>
<!-- Node12 -->
<g id="node23" class="node"><title>Node12</title>
<a xlink:href="_s_l_interface_8cpp.html" target="_top" xlink:title="SLProject C&#45;functions interface implementation.">
<polygon fill="white" stroke="black" points="986.5,-112.5 986.5,-131.5 1077.5,-131.5 1077.5,-112.5 986.5,-112.5"/>
<text text-anchor="middle" x="1032" y="-119.5" font-family="Arial.ttf" font-size="10.00">SLInterface.cpp</text>
</a>
</g>
<!-- Node7&#45;&gt;Node12 -->
<g id="edge22" class="edge"><title>Node7&#45;&gt;Node12</title>
<path fill="none" stroke="midnightblue" d="M1006.95,-159.566C1013.31,-150.275 1020.87,-139.248 1026,-131.751"/>
<polygon fill="midnightblue" stroke="midnightblue" points="1003.87,-157.855 1001.11,-168.083 1009.65,-161.812 1003.87,-157.855"/>
</g>
<!-- Node13 -->
<g id="node25" class="node"><title>Node13</title>
<a xlink:href="_s_l_skybox_8cpp.html" target="_top" xlink:title="SLSkybox.cpp">
<polygon fill="white" stroke="black" points="1095.5,-112.5 1095.5,-131.5 1178.5,-131.5 1178.5,-112.5 1095.5,-112.5"/>
<text text-anchor="middle" x="1137" y="-119.5" font-family="Arial.ttf" font-size="10.00">SLSkybox.cpp</text>
</a>
</g>
<!-- Node7&#45;&gt;Node13 -->
<g id="edge24" class="edge"><title>Node7&#45;&gt;Node13</title>
<path fill="none" stroke="midnightblue" d="M1027.16,-164.772C1053.83,-154.629 1091.07,-140.467 1114.6,-131.516"/>
<polygon fill="midnightblue" stroke="midnightblue" points="1025.6,-161.618 1017.5,-168.444 1028.09,-168.16 1025.6,-161.618"/>
</g>
<!-- Node14 -->
<g id="node27" class="node"><title>Node14</title>
<a xlink:href="_s_l_anim_track_8cpp.html" target="_top" xlink:title="SLAnimTrack.cpp">
<polygon fill="white" stroke="black" points="1196.5,-112.5 1196.5,-131.5 1295.5,-131.5 1295.5,-112.5 1196.5,-112.5"/>
<text text-anchor="middle" x="1246" y="-119.5" font-family="Arial.ttf" font-size="10.00">SLAnimTrack.cpp</text>
</a>
</g>
<!-- Node7&#45;&gt;Node14 -->
<g id="edge26" class="edge"><title>Node7&#45;&gt;Node14</title>
<path fill="none" stroke="midnightblue" d="M1044.82,-166.281C1092.25,-156.077 1162.7,-140.92 1206.41,-131.516"/>
<polygon fill="midnightblue" stroke="midnightblue" points="1043.81,-162.918 1034.77,-168.444 1045.28,-169.762 1043.81,-162.918"/>
</g>
<!-- Node15 -->
<g id="node29" class="node"><title>Node15</title>
<a xlink:href="_s_l_camera_8cpp.html" target="_top" xlink:title="SLCamera.cpp">
<polygon fill="white" stroke="black" points="1313.5,-112.5 1313.5,-131.5 1400.5,-131.5 1400.5,-112.5 1313.5,-112.5"/>
<text text-anchor="middle" x="1357" y="-119.5" font-family="Arial.ttf" font-size="10.00">SLCamera.cpp</text>
</a>
</g>
<!-- Node7&#45;&gt;Node15 -->
<g id="edge28" class="edge"><title>Node7&#45;&gt;Node15</title>
<path fill="none" stroke="midnightblue" d="M1049.49,-169.461C1111.27,-160.821 1214.98,-146.039 1304,-132 1307.04,-131.52 1310.18,-131.015 1313.34,-130.498"/>
<polygon fill="midnightblue" stroke="midnightblue" points="1048.99,-165.997 1039.57,-170.846 1049.96,-172.93 1048.99,-165.997"/>
</g>
<!-- Node16 -->
<g id="node31" class="node"><title>Node16</title>
<a xlink:href="_s_l_input_manager_8cpp.html" target="_top" xlink:title="SLInputManager.cpp">
<polygon fill="white" stroke="black" points="1418.5,-112.5 1418.5,-131.5 1533.5,-131.5 1533.5,-112.5 1418.5,-112.5"/>
<text text-anchor="middle" x="1476" y="-119.5" font-family="Arial.ttf" font-size="10.00">SLInputManager.cpp</text>
</a>
</g>
<!-- Node7&#45;&gt;Node16 -->
<g id="edge30" class="edge"><title>Node7&#45;&gt;Node16</title>
<path fill="none" stroke="midnightblue" d="M1050.01,-171.467C1129.37,-163.384 1280.56,-147.605 1409,-132 1412.03,-131.632 1415.13,-131.246 1418.27,-130.849"/>
<polygon fill="midnightblue" stroke="midnightblue" points="1049.36,-168.015 1039.76,-172.509 1050.07,-174.979 1049.36,-168.015"/>
</g>
<!-- Node17 -->
<g id="node33" class="node"><title>Node17</title>
<a xlink:href="_s_l_light_direct_8cpp.html" target="_top" xlink:title="SLLightDirect.cpp">
<polygon fill="white" stroke="black" points="1551.5,-112.5 1551.5,-131.5 1652.5,-131.5 1652.5,-112.5 1551.5,-112.5"/>
<text text-anchor="middle" x="1602" y="-119.5" font-family="Arial.ttf" font-size="10.00">SLLightDirect.cpp</text>
</a>
</g>
<!-- Node7&#45;&gt;Node17 -->
<g id="edge32" class="edge"><title>Node7&#45;&gt;Node17</title>
<path fill="none" stroke="midnightblue" d="M1049.8,-173.708C1148.45,-167.511 1362.37,-152.838 1542,-132 1545.03,-131.648 1548.15,-131.26 1551.29,-130.849"/>
<polygon fill="midnightblue" stroke="midnightblue" points="1049.53,-170.218 1039.77,-174.334 1049.97,-177.204 1049.53,-170.218"/>
</g>
<!-- Node18 -->
<g id="node35" class="node"><title>Node18</title>
<a xlink:href="_s_l_light_rect_8cpp.html" target="_top" xlink:title="SLLightRect.cpp">
<polygon fill="white" stroke="black" points="1670.5,-112.5 1670.5,-131.5 1763.5,-131.5 1763.5,-112.5 1670.5,-112.5"/>
<text text-anchor="middle" x="1717" y="-119.5" font-family="Arial.ttf" font-size="10.00">SLLightRect.cpp</text>
</a>
</g>
<!-- Node7&#45;&gt;Node18 -->
<g id="edge34" class="edge"><title>Node7&#45;&gt;Node18</title>
<path fill="none" stroke="midnightblue" d="M1049.77,-175.005C1163.79,-170.475 1434.89,-157.753 1661,-132 1664.03,-131.655 1667.15,-131.261 1670.29,-130.835"/>
<polygon fill="midnightblue" stroke="midnightblue" points="1049.41,-171.516 1039.55,-175.405 1049.68,-178.51 1049.41,-171.516"/>
</g>
<!-- Node19 -->
<g id="node37" class="node"><title>Node19</title>
<a xlink:href="_s_l_light_spot_8cpp.html" target="_top" xlink:title="SLLightSpot.cpp">
<polygon fill="white" stroke="black" points="1781.5,-112.5 1781.5,-131.5 1876.5,-131.5 1876.5,-112.5 1781.5,-112.5"/>
<text text-anchor="middle" x="1829" y="-119.5" font-family="Arial.ttf" font-size="10.00">SLLightSpot.cpp</text>
</a>
</g>
<!-- Node7&#45;&gt;Node19 -->
<g id="edge36" class="edge"><title>Node7&#45;&gt;Node19</title>
<path fill="none" stroke="midnightblue" d="M1050.07,-175.679C1177.45,-172.214 1502.16,-161.045 1772,-132 1775.09,-131.668 1778.26,-131.284 1781.46,-130.866"/>
<polygon fill="midnightblue" stroke="midnightblue" points="1049.7,-172.187 1039.8,-175.953 1049.89,-179.184 1049.7,-172.187"/>
</g>
<!-- Node20 -->
<g id="node39" class="node"><title>Node20</title>
<a xlink:href="_s_l_material_8cpp.html" target="_top" xlink:title="SLMaterial.cpp">
<polygon fill="white" stroke="black" points="1894.5,-112.5 1894.5,-131.5 1981.5,-131.5 1981.5,-112.5 1894.5,-112.5"/>
<text text-anchor="middle" x="1938" y="-119.5" font-family="Arial.ttf" font-size="10.00">SLMaterial.cpp</text>
</a>
</g>
<!-- Node7&#45;&gt;Node20 -->
<g id="edge38" class="edge"><title>Node7&#45;&gt;Node20</title>
<path fill="none" stroke="midnightblue" d="M1049.62,-176.472C1189.15,-174.639 1569.93,-166.595 1885,-132 1888.06,-131.664 1891.21,-131.265 1894.38,-130.825"/>
<polygon fill="midnightblue" stroke="midnightblue" points="1049.55,-172.972 1039.6,-176.598 1049.64,-179.972 1049.55,-172.972"/>
</g>
<!-- Node21 -->
<g id="node42" class="node"><title>Node21</title>
<a xlink:href="_s_l_node_8cpp.html" target="_top" xlink:title="SLNode.cpp">
<polygon fill="white" stroke="black" points="755,-56.5 755,-75.5 829,-75.5 829,-56.5 755,-56.5"/>
<text text-anchor="middle" x="792" y="-63.5" font-family="Arial.ttf" font-size="10.00">SLNode.cpp</text>
</a>
</g>
<!-- Node7&#45;&gt;Node21 -->
<g id="edge42" class="edge"><title>Node7&#45;&gt;Node21</title>
<path fill="none" stroke="midnightblue" d="M940.061,-172.085C906.136,-166.717 863.27,-155.489 832,-132 812.295,-117.198 800.108,-89.592 794.917,-75.6018"/>
<polygon fill="midnightblue" stroke="midnightblue" points="939.88,-175.595 950.279,-173.57 940.886,-168.668 939.88,-175.595"/>
</g>
<!-- Node22 -->
<g id="node45" class="node"><title>Node22</title>
<a xlink:href="_s_l_ray_8cpp.html" target="_top" xlink:title="SLRay.cpp">
<polygon fill="white" stroke="black" points="2000,-112.5 2000,-131.5 2066,-131.5 2066,-112.5 2000,-112.5"/>
<text text-anchor="middle" x="2033" y="-119.5" font-family="Arial.ttf" font-size="10.00">SLRay.cpp</text>
</a>
</g>
<!-- Node7&#45;&gt;Node22 -->
<g id="edge46" class="edge"><title>Node7&#45;&gt;Node22</title>
<path fill="none" stroke="midnightblue" d="M1050.23,-177.612C1201.34,-178.617 1633.99,-177.009 1990,-132 1993.18,-131.598 1996.47,-131.086 1999.75,-130.51"/>
<polygon fill="midnightblue" stroke="midnightblue" points="1049.87,-174.11 1039.85,-177.536 1049.82,-181.109 1049.87,-174.11"/>
</g>
<!-- Node23 -->
<g id="node48" class="node"><title>Node23</title>
<a xlink:href="_s_l_scene_8cpp.html" target="_top" xlink:title="SLScene.cpp">
<polygon fill="white" stroke="black" points="865.5,-0.5 865.5,-19.5 944.5,-19.5 944.5,-0.5 865.5,-0.5"/>
<text text-anchor="middle" x="905" y="-7.5" font-family="Arial.ttf" font-size="10.00">SLScene.cpp</text>
</a>
</g>
<!-- Node7&#45;&gt;Node23 -->
<g id="edge50" class="edge"><title>Node7&#45;&gt;Node23</title>
<path fill="none" stroke="midnightblue" d="M940.088,-174.911C877.119,-169.038 778.404,-148.158 746,-76 742.359,-67.8912 740.638,-63.0898 746,-56 760.363,-37.0081 822.954,-23.7251 865.188,-16.7328"/>
<polygon fill="midnightblue" stroke="midnightblue" points="939.999,-178.416 950.255,-175.759 940.58,-171.44 939.999,-178.416"/>
</g>
<!-- Node24 -->
<g id="node50" class="node"><title>Node24</title>
<a xlink:href="_s_l_scene_view_8cpp.html" target="_top" xlink:title="SLSceneView.cpp">
<polygon fill="white" stroke="black" points="2084.5,-112.5 2084.5,-131.5 2185.5,-131.5 2185.5,-112.5 2084.5,-112.5"/>
<text text-anchor="middle" x="2135" y="-119.5" font-family="Arial.ttf" font-size="10.00">SLSceneView.cpp</text>
</a>
</g>
<!-- Node7&#45;&gt;Node24 -->
<g id="edge52" class="edge"><title>Node7&#45;&gt;Node24</title>
<path fill="none" stroke="midnightblue" d="M1050.08,-176.788C1209.26,-175.727 1683.52,-169.408 2075,-132 2078.04,-131.709 2081.16,-131.369 2084.31,-130.994"/>
<polygon fill="midnightblue" stroke="midnightblue" points="1049.59,-173.291 1039.61,-176.853 1049.63,-180.291 1049.59,-173.291"/>
</g>
<!-- Node25 -->
<g id="node52" class="node"><title>Node25</title>
<a xlink:href="_s_l_skeleton_8cpp.html" target="_top" xlink:title="SLSkeleton.cpp">
<polygon fill="white" stroke="black" points="2203.5,-112.5 2203.5,-131.5 2294.5,-131.5 2294.5,-112.5 2203.5,-112.5"/>
<text text-anchor="middle" x="2249" y="-119.5" font-family="Arial.ttf" font-size="10.00">SLSkeleton.cpp</text>
</a>
</g>
<!-- Node7&#45;&gt;Node25 -->
<g id="edge54" class="edge"><title>Node7&#45;&gt;Node25</title>
<path fill="none" stroke="midnightblue" d="M1049.7,-177.369C1219.77,-177.997 1754.21,-176.062 2194,-132 2197.08,-131.691 2200.25,-131.319 2203.44,-130.904"/>
<polygon fill="midnightblue" stroke="midnightblue" points="1049.52,-173.868 1039.5,-177.326 1049.49,-180.868 1049.52,-173.868"/>
</g>
<!-- Node26 -->
<g id="node55" class="node"><title>Node26</title>
<a xlink:href="_s_l_button_8h.html" target="_top" xlink:title="SLButton.h">
<polygon fill="white" stroke="black" points="2313,-112.5 2313,-131.5 2383,-131.5 2383,-112.5 2313,-112.5"/>
<text text-anchor="middle" x="2348" y="-119.5" font-family="Arial.ttf" font-size="10.00">SLButton.h</text>
</a>
</g>
<!-- Node7&#45;&gt;Node26 -->
<g id="edge58" class="edge"><title>Node7&#45;&gt;Node26</title>
<path fill="none" stroke="midnightblue" d="M1049.81,-176.306C1265.27,-173.392 2054.44,-160.937 2303,-132 2306.17,-131.631 2309.44,-131.158 2312.71,-130.622"/>
<polygon fill="midnightblue" stroke="midnightblue" points="1049.64,-172.808 1039.69,-176.441 1049.73,-179.807 1049.64,-172.808"/>
</g>
<!-- Node28 -->
<g id="node59" class="node"><title>Node28</title>
<a xlink:href="_s_l_c_v_tracked_8h.html" target="_top" xlink:title="SLCVTracked.h">
<polygon fill="white" stroke="black" points="840.5,-112.5 840.5,-131.5 929.5,-131.5 929.5,-112.5 840.5,-112.5"/>
<text text-anchor="middle" x="885" y="-119.5" font-family="Arial.ttf" font-size="10.00">SLCVTracked.h</text>
</a>
</g>
<!-- Node7&#45;&gt;Node28 -->
<g id="edge62" class="edge"><title>Node7&#45;&gt;Node28</title>
<path fill="none" stroke="midnightblue" d="M968.238,-163.862C947.841,-153.849 920.334,-140.346 902.63,-131.655"/>
<polygon fill="midnightblue" stroke="midnightblue" points="966.808,-167.059 977.327,-168.324 969.892,-160.775 966.808,-167.059"/>
</g>
<!-- Node27 -->
<g id="node57" class="node"><title>Node27</title>
<a xlink:href="_s_l_button_8cpp.html" target="_top" xlink:title="SLButton.cpp">
<polygon fill="white" stroke="black" points="2307.5,-56.5 2307.5,-75.5 2388.5,-75.5 2388.5,-56.5 2307.5,-56.5"/>
<text text-anchor="middle" x="2348" y="-63.5" font-family="Arial.ttf" font-size="10.00">SLButton.cpp</text>
</a>
</g>
<!-- Node26&#45;&gt;Node27 -->
<g id="edge60" class="edge"><title>Node26&#45;&gt;Node27</title>
<path fill="none" stroke="midnightblue" d="M2348,-101.805C2348,-92.9102 2348,-82.7798 2348,-75.7511"/>
<polygon fill="midnightblue" stroke="midnightblue" points="2344.5,-102.083 2348,-112.083 2351.5,-102.083 2344.5,-102.083"/>
</g>
<!-- Node28&#45;&gt;Node21 -->
<g id="edge68" class="edge"><title>Node28&#45;&gt;Node21</title>
<path fill="none" stroke="midnightblue" d="M861.194,-107.177C844.081,-97.2407 821.535,-84.1492 806.905,-75.6545"/>
<polygon fill="midnightblue" stroke="midnightblue" points="859.653,-110.329 870.058,-112.324 863.168,-104.276 859.653,-110.329"/>
</g>
<!-- Node28&#45;&gt;Node23 -->
<g id="edge70" class="edge"><title>Node28&#45;&gt;Node23</title>
<path fill="none" stroke="midnightblue" d="M929.495,-108.809C945.79,-101.955 962.54,-91.5431 972,-76 986.576,-52.0499 950.854,-30.7856 926.158,-19.5147"/>
<polygon fill="midnightblue" stroke="midnightblue" points="928.097,-105.597 920.013,-112.445 930.603,-112.132 928.097,-105.597"/>
</g>
<!-- Node29 -->
<g id="node61" class="node"><title>Node29</title>
<a xlink:href="_s_l_c_v_tracked_8cpp.html" target="_top" xlink:title="SLCVTracked.cpp">
<polygon fill="white" stroke="black" points="1019,-56.5 1019,-75.5 1119,-75.5 1119,-56.5 1019,-56.5"/>
<text text-anchor="middle" x="1069" y="-63.5" font-family="Arial.ttf" font-size="10.00">SLCVTracked.cpp</text>
</a>
</g>
<!-- Node28&#45;&gt;Node29 -->
<g id="edge64" class="edge"><title>Node28&#45;&gt;Node29</title>
<path fill="none" stroke="midnightblue" d="M923.954,-109.568C958.665,-99.381 1008.68,-84.7034 1039.98,-75.5164"/>
<polygon fill="midnightblue" stroke="midnightblue" points="922.765,-106.269 914.155,-112.444 924.736,-112.986 922.765,-106.269"/>
</g>
<!-- Node30 -->
<g id="node63" class="node"><title>Node30</title>
<a xlink:href="_s_l_application_8cpp.html" target="_top" xlink:title="SLApplication.cpp">
<polygon fill="white" stroke="black" points="1006.5,-0.5 1006.5,-19.5 1107.5,-19.5 1107.5,-0.5 1006.5,-0.5"/>
<text text-anchor="middle" x="1057" y="-7.5" font-family="Arial.ttf" font-size="10.00">SLApplication.cpp</text>
</a>
</g>
<!-- Node28&#45;&gt;Node30 -->
<g id="edge66" class="edge"><title>Node28&#45;&gt;Node30</title>
<path fill="none" stroke="midnightblue" d="M939.485,-112.706C1009.26,-101.824 1121.96,-83.2604 1128,-76 1146.7,-53.5161 1106.66,-31.3974 1079.44,-19.6513"/>
<polygon fill="midnightblue" stroke="midnightblue" points="938.864,-109.26 929.52,-114.253 939.938,-116.177 938.864,-109.26"/>
</g>
<!-- Node31 -->
<g id="node67" class="node"><title>Node31</title>
<a xlink:href="_s_l_c_v_tracked_aruco_8h.html" target="_top" xlink:title="SLCVTrackedAruco.h">
<polygon fill="white" stroke="black" points="847,-56.5 847,-75.5 963,-75.5 963,-56.5 847,-56.5"/>
<text text-anchor="middle" x="905" y="-63.5" font-family="Arial.ttf" font-size="10.00">SLCVTrackedAruco.h</text>
</a>
</g>
<!-- Node28&#45;&gt;Node31 -->
<g id="edge72" class="edge"><title>Node28&#45;&gt;Node31</title>
<path fill="none" stroke="midnightblue" d="M891.782,-102.69C895.152,-93.589 899.069,-83.0141 901.759,-75.7511"/>
<polygon fill="midnightblue" stroke="midnightblue" points="888.494,-101.49 888.303,-112.083 895.058,-103.921 888.494,-101.49"/>
</g>
<!-- Node32 -->
<g id="node72" class="node"><title>Node32</title>
<a xlink:href="_s_l_c_v_tracked_chessboard_8h.html" target="_top" xlink:title="SLCVTrackedChessboard.h">
<polygon fill="white" stroke="black" points="1175,-56.5 1175,-75.5 1321,-75.5 1321,-56.5 1175,-56.5"/>
<text text-anchor="middle" x="1248" y="-63.5" font-family="Arial.ttf" font-size="10.00">SLCVTrackedChessboard.h</text>
</a>
</g>
<!-- Node28&#45;&gt;Node32 -->
<g id="edge80" class="edge"><title>Node28&#45;&gt;Node32</title>
<path fill="none" stroke="midnightblue" d="M940.066,-112.592C941.39,-112.393 942.703,-112.195 944,-112 1029.6,-99.1352 1128.81,-84.5015 1189.99,-75.5088"/>
<polygon fill="midnightblue" stroke="midnightblue" points="939.139,-109.193 929.775,-114.149 940.186,-116.114 939.139,-109.193"/>
</g>
<!-- Node34 -->
<g id="node76" class="node"><title>Node34</title>
<a xlink:href="_s_l_c_v_tracked_features_8h.html" target="_top" xlink:title="SLCVTrackedFeatures.h">
<polygon fill="white" stroke="black" points="1339.5,-56.5 1339.5,-75.5 1470.5,-75.5 1470.5,-56.5 1339.5,-56.5"/>
<text text-anchor="middle" x="1405" y="-63.5" font-family="Arial.ttf" font-size="10.00">SLCVTrackedFeatures.h</text>
</a>
</g>
<!-- Node28&#45;&gt;Node34 -->
<g id="edge84" class="edge"><title>Node28&#45;&gt;Node34</title>
<path fill="none" stroke="midnightblue" d="M940.053,-112.497C941.381,-112.326 942.698,-112.16 944,-112 1115.02,-90.9998 1158.67,-94.266 1330,-76 1333,-75.6802 1336.07,-75.3453 1339.16,-75.0005"/>
<polygon fill="midnightblue" stroke="midnightblue" points="939.179,-109.083 929.74,-113.895 940.119,-116.02 939.179,-109.083"/>
</g>
<!-- Node31&#45;&gt;Node10 -->
<g id="edge74" class="edge"><title>Node31&#45;&gt;Node10</title>
<path fill="none" stroke="midnightblue" d="M868.397,-53.3044C836.553,-43.1294 791.158,-28.6246 762.653,-19.5164"/>
<polygon fill="midnightblue" stroke="midnightblue" points="867.631,-56.7337 878.221,-56.4435 869.761,-50.0659 867.631,-56.7337"/>
</g>
<!-- Node31&#45;&gt;Node23 -->
<g id="edge78" class="edge"><title>Node31&#45;&gt;Node23</title>
<path fill="none" stroke="midnightblue" d="M905,-45.8045C905,-36.9102 905,-26.7798 905,-19.7511"/>
<polygon fill="midnightblue" stroke="midnightblue" points="901.5,-46.083 905,-56.083 908.5,-46.083 901.5,-46.083"/>
</g>
<!-- Node31&#45;&gt;Node30 -->
<g id="edge76" class="edge"><title>Node31&#45;&gt;Node30</title>
<path fill="none" stroke="midnightblue" d="M938.668,-53.0392C967.268,-42.8786 1007.61,-28.5457 1033.03,-19.5164"/>
<polygon fill="midnightblue" stroke="midnightblue" points="937.336,-49.7978 929.085,-56.4435 939.68,-56.3939 937.336,-49.7978"/>
</g>
<!-- Node33 -->
<g id="node74" class="node"><title>Node33</title>
<a xlink:href="_s_l_c_v_tracked_chessboard_8cpp.html" target="_top" xlink:title="SLCVTrackedChessboard.cpp">
<polygon fill="white" stroke="black" points="1169.5,-0.5 1169.5,-19.5 1326.5,-19.5 1326.5,-0.5 1169.5,-0.5"/>
<text text-anchor="middle" x="1248" y="-7.5" font-family="Arial.ttf" font-size="10.00">SLCVTrackedChessboard.cpp</text>
</a>
</g>
<!-- Node32&#45;&gt;Node33 -->
<g id="edge82" class="edge"><title>Node32&#45;&gt;Node33</title>
<path fill="none" stroke="midnightblue" d="M1248,-45.8045C1248,-36.9102 1248,-26.7798 1248,-19.7511"/>
<polygon fill="midnightblue" stroke="midnightblue" points="1244.5,-46.083 1248,-56.083 1251.5,-46.083 1244.5,-46.083"/>
</g>
<!-- Node34&#45;&gt;Node11 -->
<g id="edge86" class="edge"><title>Node34&#45;&gt;Node11</title>
<path fill="none" stroke="midnightblue" d="M1420.68,-48.7175C1429.84,-39.1997 1441.05,-27.5608 1448.57,-19.7511"/>
<polygon fill="midnightblue" stroke="midnightblue" points="1418,-46.452 1413.59,-56.083 1423.04,-51.3075 1418,-46.452"/>
</g>
</g>
</svg>
