<?xml version="1.0" encoding="UTF-8" standalone="no"?>
<!DOCTYPE svg PUBLIC "-//W3C//DTD SVG 1.1//EN"
 "http://www.w3.org/Graphics/SVG/1.1/DTD/svg11.dtd">
<!-- Generated by graphviz version 2.28.0 (20110507.0327)
 -->
<!-- Title: SLInputDevice.cpp Pages: 1 -->
<svg width="263pt" height="196pt"
 viewBox="0.00 0.00 263.09 196.00" xmlns="http://www.w3.org/2000/svg" xmlns:xlink="http://www.w3.org/1999/xlink">
<g id="graph1" class="graph" transform="scale(1 1) rotate(0) translate(4 192)">
<title>SLInputDevice.cpp</title>
<polygon fill="white" stroke="white" points="-4,5 -4,-192 260.092,-192 260.092,5 -4,5"/>
<!-- Node1 -->
<g id="node1" class="node"><title>Node1</title>
<polygon fill="#bfbfbf" stroke="black" points="5.59195,-168.5 5.59195,-187.5 110.592,-187.5 110.592,-168.5 5.59195,-168.5"/>
<text text-anchor="middle" x="58.0919" y="-175.5" font-family="Arial.ttf" font-size="10.00">SLInputDevice.cpp</text>
</g>
<!-- Node2 -->
<g id="node3" class="node"><title>Node2</title>
<polygon fill="white" stroke="#bfbfbf" points="68.5919,-0.5 68.5919,-19.5 123.592,-19.5 123.592,-0.5 68.5919,-0.5"/>
<text text-anchor="middle" x="96.0919" y="-7.5" font-family="Arial.ttf" font-size="10.00">stdafx.h</text>
</g>
<!-- Node1&#45;&gt;Node2 -->
<g id="edge2" class="edge"><title>Node1&#45;&gt;Node2</title>
<path fill="none" stroke="midnightblue" d="M49.0217,-168.356C28.6692,-147.885 -17.0297,-95.226 7.09195,-56 18.368,-37.6632 39.6832,-26.5234 58.6268,-19.915"/>
<polygon fill="midnightblue" stroke="midnightblue" points="59.7799,-23.2211 68.2512,-16.8581 57.6609,-16.5495 59.7799,-23.2211"/>
</g>
<!-- Node3 -->
<g id="node5" class="node"><title>Node3</title>
<a xlink:href="_s_l_input_manager_8h.html" target="_top" xlink:title="SLInputManager.h">
<polygon fill="white" stroke="black" points="86.0919,-112.5 86.0919,-131.5 190.092,-131.5 190.092,-112.5 86.0919,-112.5"/>
<text text-anchor="middle" x="138.092" y="-119.5" font-family="Arial.ttf" font-size="10.00">SLInputManager.h</text>
</a>
</g>
<!-- Node1&#45;&gt;Node3 -->
<g id="edge4" class="edge"><title>Node1&#45;&gt;Node3</title>
<path fill="none" stroke="midnightblue" d="M70.9453,-168.324C83.3083,-159.979 102.222,-147.212 116.829,-137.352"/>
<polygon fill="midnightblue" stroke="midnightblue" points="118.94,-140.15 125.27,-131.655 115.024,-134.348 118.94,-140.15"/>
</g>
<!-- Node6 -->
<g id="node13" class="node"><title>Node6</title>
<a xlink:href="_s_l_input_device_8h.html" target="_top" xlink:title="SLInputDevice.h">
<polygon fill="white" stroke="black" points="16.0919,-56.5 16.0919,-75.5 110.092,-75.5 110.092,-56.5 16.0919,-56.5"/>
<text text-anchor="middle" x="63.0919" y="-63.5" font-family="Arial.ttf" font-size="10.00">SLInputDevice.h</text>
</a>
</g>
<!-- Node1&#45;&gt;Node6 -->
<g id="edge18" class="edge"><title>Node1&#45;&gt;Node6</title>
<path fill="none" stroke="midnightblue" d="M58.4843,-168.368C59.2912,-150.617 61.1526,-109.666 62.2466,-85.5974"/>
<polygon fill="midnightblue" stroke="midnightblue" points="65.7436,-85.7401 62.7014,-75.5914 58.7509,-85.4221 65.7436,-85.7401"/>
</g>
<!-- Node3&#45;&gt;Node2 -->
<g id="edge6" class="edge"><title>Node3&#45;&gt;Node2</title>
<path fill="none" stroke="midnightblue" d="M136.13,-112.415C133.128,-99.8112 126.911,-75.6651 119.092,-56 115.405,-46.726 110.453,-36.809 106.089,-28.6514"/>
<polygon fill="midnightblue" stroke="midnightblue" points="109.069,-26.808 101.181,-19.735 102.937,-30.1834 109.069,-26.808"/>
</g>
<!-- Node4 -->
<g id="node8" class="node"><title>Node4</title>
<a xlink:href="_s_l_input_event_8h.html" target="_top" xlink:title="SLInputEvent.h">
<polygon fill="white" stroke="black" points="166.592,-56.5 166.592,-75.5 255.592,-75.5 255.592,-56.5 166.592,-56.5"/>
<text text-anchor="middle" x="211.092" y="-63.5" font-family="Arial.ttf" font-size="10.00">SLInputEvent.h</text>
</a>
</g>
<!-- Node3&#45;&gt;Node4 -->
<g id="edge8" class="edge"><title>Node3&#45;&gt;Node4</title>
<path fill="none" stroke="midnightblue" d="M149.821,-112.324C160.929,-104.107 177.834,-91.6017 191.075,-81.8069"/>
<polygon fill="midnightblue" stroke="midnightblue" points="193.192,-84.5948 199.15,-75.8339 189.029,-78.9671 193.192,-84.5948"/>
</g>
<!-- Node3&#45;&gt;Node6 -->
<g id="edge14" class="edge"><title>Node3&#45;&gt;Node6</title>
<path fill="none" stroke="midnightblue" d="M126.042,-112.324C114.629,-104.107 97.261,-91.6017 83.657,-81.8069"/>
<polygon fill="midnightblue" stroke="midnightblue" points="85.5217,-78.8366 75.3612,-75.8339 81.4315,-84.5174 85.5217,-78.8366"/>
</g>
<!-- Node4&#45;&gt;Node2 -->
<g id="edge10" class="edge"><title>Node4&#45;&gt;Node2</title>
<path fill="none" stroke="midnightblue" d="M192.87,-56.4435C174.196,-47.6751 144.936,-33.9355 123.475,-23.8579"/>
<polygon fill="midnightblue" stroke="midnightblue" points="124.768,-20.5988 114.229,-19.5164 121.793,-26.935 124.768,-20.5988"/>
</g>
<!-- Node5 -->
<g id="node11" class="node"><title>Node5</title>
<a xlink:href="_s_l_enums_8h.html" target="_top" xlink:title="SLEnums.h">
<polygon fill="white" stroke="black" points="175.592,-0.5 175.592,-19.5 246.592,-19.5 246.592,-0.5 175.592,-0.5"/>
<text text-anchor="middle" x="211.092" y="-7.5" font-family="Arial.ttf" font-size="10.00">SLEnums.h</text>
</a>
</g>
<!-- Node4&#45;&gt;Node5 -->
<g id="edge12" class="edge"><title>Node4&#45;&gt;Node5</title>
<path fill="none" stroke="midnightblue" d="M211.092,-56.083C211.092,-49.0059 211.092,-38.8611 211.092,-29.9865"/>
<polygon fill="midnightblue" stroke="midnightblue" points="214.592,-29.751 211.092,-19.7511 207.592,-29.7511 214.592,-29.751"/>
</g>
<!-- Node6&#45;&gt;Node2 -->
<g id="edge16" class="edge"><title>Node6&#45;&gt;Node2</title>
<path fill="none" stroke="midnightblue" d="M68.5412,-56.083C73.1064,-48.6127 79.7604,-37.7244 85.3854,-28.5199"/>
<polygon fill="midnightblue" stroke="midnightblue" points="88.516,-30.109 90.7441,-19.7511 82.543,-26.4588 88.516,-30.109"/>
</g>
</g>
</svg>
