<?xml version="1.0" encoding="UTF-8" standalone="no"?>
<!DOCTYPE svg PUBLIC "-//W3C//DTD SVG 1.1//EN"
 "http://www.w3.org/Graphics/SVG/1.1/DTD/svg11.dtd">
<!-- Generated by graphviz version 3.0.0 (20220226.1711)
 -->
<!-- Title: SLVec3.h Pages: 1 -->
<svg width="2317pt" height="420pt"
 viewBox="0.00 0.00 2316.50 420.00" xmlns="http://www.w3.org/2000/svg" xmlns:xlink="http://www.w3.org/1999/xlink">
<g id="graph0" class="graph" transform="scale(1 1) rotate(0) translate(4 416)">
<title>SLVec3.h</title>
<polygon fill="white" stroke="transparent" points="-4,4 -4,-416 2312.5,-416 2312.5,4 -4,4"/>
<!-- Node1 -->
<g id="node1" class="node">
<title>Node1</title>
<g id="a_node1"><a xlink:title=" ">
<polygon fill="#bfbfbf" stroke="black" points="929,-392.5 929,-411.5 987,-411.5 987,-392.5 929,-392.5"/>
<text text-anchor="middle" x="958" y="-399.5" font-family="Arial" font-size="10.00">SLVec3.h</text>
</a>
</g>
</g>
<!-- Node2 -->
<g id="node2" class="node">
<title>Node2</title>
<g id="a_node2"><a xlink:href="_quaternion_test_8cpp.html" target="_top" xlink:title=" ">
<polygon fill="white" stroke="black" points="405.5,-224.5 405.5,-243.5 506.5,-243.5 506.5,-224.5 405.5,-224.5"/>
<text text-anchor="middle" x="456" y="-231.5" font-family="Arial" font-size="10.00">QuaternionTest.cpp</text>
</a>
</g>
</g>
<!-- Node1&#45;&gt;Node2 -->
<g id="edge1" class="edge">
<title>Node1&#45;&gt;Node2</title>
<path fill="none" stroke="midnightblue" d="M918.84,-400.65C828.61,-399.24 608.99,-392.07 546,-356 533.9,-349.07 479.63,-269.91 461.74,-243.51"/>
<polygon fill="midnightblue" stroke="midnightblue" points="918.88,-404.15 928.93,-400.8 918.98,-397.15 918.88,-404.15"/>
</g>
<!-- Node3 -->
<g id="node3" class="node">
<title>Node3</title>
<g id="a_node3"><a xlink:href="_s_l_algo_8h.html" target="_top" xlink:title=" ">
<polygon fill="white" stroke="black" points="259,-280.5 259,-299.5 315,-299.5 315,-280.5 259,-280.5"/>
<text text-anchor="middle" x="287" y="-287.5" font-family="Arial" font-size="10.00">SLAlgo.h</text>
</a>
</g>
</g>
<!-- Node1&#45;&gt;Node3 -->
<g id="edge2" class="edge">
<title>Node1&#45;&gt;Node3</title>
<path fill="none" stroke="midnightblue" d="M918.63,-400.5C805.81,-398.66 483.13,-390.43 384,-356 348,-343.5 312.56,-314.3 296.28,-299.68"/>
<polygon fill="midnightblue" stroke="midnightblue" points="918.82,-404 928.87,-400.66 918.93,-397 918.82,-404"/>
</g>
<!-- Node10 -->
<g id="node9" class="node">
<title>Node10</title>
<g id="a_node9"><a xlink:href="_s_l_anim_keyframe_8h.html" target="_top" xlink:title=" ">
<polygon fill="white" stroke="black" points="1101.5,-336.5 1101.5,-355.5 1202.5,-355.5 1202.5,-336.5 1101.5,-336.5"/>
<text text-anchor="middle" x="1152" y="-343.5" font-family="Arial" font-size="10.00">SLAnimKeyframe.h</text>
</a>
</g>
</g>
<!-- Node1&#45;&gt;Node10 -->
<g id="edge10" class="edge">
<title>Node1&#45;&gt;Node10</title>
<path fill="none" stroke="midnightblue" d="M996.86,-390.18C1033.43,-380 1087.46,-364.97 1121.15,-355.59"/>
<polygon fill="midnightblue" stroke="midnightblue" points="995.74,-386.86 987.04,-392.92 997.62,-393.61 995.74,-386.86"/>
</g>
<!-- Node64 -->
<g id="node12" class="node">
<title>Node64</title>
<g id="a_node12"><a xlink:href="_s_l_compact_grid_8h.html" target="_top" xlink:title=" ">
<polygon fill="white" stroke="black" points="1220.5,-336.5 1220.5,-355.5 1315.5,-355.5 1315.5,-336.5 1220.5,-336.5"/>
<text text-anchor="middle" x="1268" y="-343.5" font-family="Arial" font-size="10.00">SLCompactGrid.h</text>
</a>
</g>
</g>
<!-- Node1&#45;&gt;Node64 -->
<g id="edge13" class="edge">
<title>Node1&#45;&gt;Node64</title>
<path fill="none" stroke="midnightblue" d="M997.19,-394.17C1054,-384.28 1159.12,-365.97 1220.34,-355.3"/>
<polygon fill="midnightblue" stroke="midnightblue" points="996.42,-390.76 987.16,-395.92 997.62,-397.65 996.42,-390.76"/>
</g>
<!-- Node66 -->
<g id="node15" class="node">
<title>Node66</title>
<g id="a_node15"><a xlink:href="_s_l_curve_8h.html" target="_top" xlink:title=" ">
<polygon fill="white" stroke="black" points="753.5,-224.5 753.5,-243.5 816.5,-243.5 816.5,-224.5 753.5,-224.5"/>
<text text-anchor="middle" x="785" y="-231.5" font-family="Arial" font-size="10.00">SLCurve.h</text>
</a>
</g>
</g>
<!-- Node1&#45;&gt;Node66 -->
<g id="edge16" class="edge">
<title>Node1&#45;&gt;Node66</title>
<path fill="none" stroke="midnightblue" d="M918.67,-395.92C890.94,-390.43 854.66,-379.13 831,-356 798.05,-323.8 788.38,-265.58 785.83,-243.66"/>
<polygon fill="midnightblue" stroke="midnightblue" points="918.38,-399.43 928.84,-397.76 919.62,-392.54 918.38,-399.43"/>
</g>
<!-- Node68 -->
<g id="node18" class="node">
<title>Node68</title>
<g id="a_node18"><a xlink:href="_s_l_g_l_state_8h.html" target="_top" xlink:title=" ">
<polygon fill="white" stroke="black" points="1450.5,-224.5 1450.5,-243.5 1523.5,-243.5 1523.5,-224.5 1450.5,-224.5"/>
<text text-anchor="middle" x="1487" y="-231.5" font-family="Arial" font-size="10.00">SLGLState.h</text>
</a>
</g>
</g>
<!-- Node1&#45;&gt;Node68 -->
<g id="edge19" class="edge">
<title>Node1&#45;&gt;Node68</title>
<path fill="none" stroke="midnightblue" d="M961.8,-382.53C968.51,-355.06 985.28,-304.1 1021,-280 1056.33,-256.16 1346.6,-241.18 1450.33,-236.54"/>
<polygon fill="midnightblue" stroke="midnightblue" points="958.36,-381.89 959.57,-392.41 965.18,-383.42 958.36,-381.89"/>
</g>
<!-- Node156 -->
<g id="node29" class="node">
<title>Node156</title>
<g id="a_node29"><a xlink:href="_s_l_g_l_vertex_buffer_8h.html" target="_top" xlink:title=" ">
<polygon fill="white" stroke="black" points="832,-112.5 832,-131.5 934,-131.5 934,-112.5 832,-112.5"/>
<text text-anchor="middle" x="883" y="-119.5" font-family="Arial" font-size="10.00">SLGLVertexBuffer.h</text>
</a>
</g>
</g>
<!-- Node1&#45;&gt;Node156 -->
<g id="edge55" class="edge">
<title>Node1&#45;&gt;Node156</title>
<path fill="none" stroke="midnightblue" d="M919.44,-390.61C902.06,-383.78 883.17,-372.9 873,-356 827.47,-280.38 866.74,-164.59 879.39,-131.88"/>
<polygon fill="midnightblue" stroke="midnightblue" points="918.29,-393.91 928.89,-393.99 920.65,-387.32 918.29,-393.91"/>
</g>
<!-- Node159 -->
<g id="node40" class="node">
<title>Node159</title>
<g id="a_node40"><a xlink:href="_s_l_mat3_8h.html" target="_top" xlink:title=" ">
<polygon fill="white" stroke="black" points="393.5,-336.5 393.5,-355.5 452.5,-355.5 452.5,-336.5 393.5,-336.5"/>
<text text-anchor="middle" x="423" y="-343.5" font-family="Arial" font-size="10.00">SLMat3.h</text>
</a>
</g>
</g>
<!-- Node1&#45;&gt;Node159 -->
<g id="edge56" class="edge">
<title>Node1&#45;&gt;Node159</title>
<path fill="none" stroke="midnightblue" d="M918.68,-397.76C838.01,-391 648.02,-374.46 489,-356 477.05,-354.61 463.92,-352.87 452.54,-351.28"/>
<polygon fill="midnightblue" stroke="midnightblue" points="918.61,-401.27 928.87,-398.61 919.19,-394.29 918.61,-401.27"/>
</g>
<!-- Node162 -->
<g id="node42" class="node">
<title>Node162</title>
<g id="a_node42"><a xlink:href="_s_l_mat4_8h.html" target="_top" xlink:title=" ">
<polygon fill="white" stroke="red" points="659.5,-280.5 659.5,-299.5 718.5,-299.5 718.5,-280.5 659.5,-280.5"/>
<text text-anchor="middle" x="689" y="-287.5" font-family="Arial" font-size="10.00">SLMat4.h</text>
</a>
</g>
</g>
<!-- Node1&#45;&gt;Node162 -->
<g id="edge66" class="edge">
<title>Node1&#45;&gt;Node162</title>
<path fill="none" stroke="midnightblue" d="M918.69,-398.73C876.06,-394.85 807.15,-384.35 755,-356 728.72,-341.71 705.79,-313.87 695.21,-299.72"/>
<polygon fill="midnightblue" stroke="midnightblue" points="918.41,-402.22 928.67,-399.56 918.99,-395.24 918.41,-402.22"/>
</g>
<!-- Node179 -->
<g id="node44" class="node">
<title>Node179</title>
<g id="a_node44"><a xlink:href="_s_l_plane_8h.html" target="_top" xlink:title=" ">
<polygon fill="white" stroke="red" points="1862,-224.5 1862,-243.5 1924,-243.5 1924,-224.5 1862,-224.5"/>
<text text-anchor="middle" x="1893" y="-231.5" font-family="Arial" font-size="10.00">SLPlane.h</text>
</a>
</g>
</g>
<!-- Node1&#45;&gt;Node179 -->
<g id="edge67" class="edge">
<title>Node1&#45;&gt;Node179</title>
<path fill="none" stroke="midnightblue" d="M970.18,-384.13C993.34,-352.29 1042.45,-285.97 1054,-280 1090.53,-261.13 1713.7,-240.59 1861.67,-235.96"/>
<polygon fill="midnightblue" stroke="midnightblue" points="967.18,-382.31 964.14,-392.46 972.84,-386.42 967.18,-382.31"/>
</g>
<!-- Node153 -->
<g id="node45" class="node">
<title>Node153</title>
<g id="a_node45"><a xlink:href="_s_l_rect_8h.html" target="_top" xlink:title=" ">
<polygon fill="white" stroke="red" points="1063,-280.5 1063,-299.5 1121,-299.5 1121,-280.5 1063,-280.5"/>
<text text-anchor="middle" x="1092" y="-287.5" font-family="Arial" font-size="10.00">SLRect.h</text>
</a>
</g>
</g>
<!-- Node1&#45;&gt;Node153 -->
<g id="edge69" class="edge">
<title>Node1&#45;&gt;Node153</title>
<path fill="none" stroke="midnightblue" d="M993.29,-388.67C1011.33,-381.17 1032.83,-370.26 1049,-356 1067.67,-339.53 1081.72,-313.16 1088.14,-299.62"/>
<polygon fill="midnightblue" stroke="midnightblue" points="991.68,-385.55 983.68,-392.49 994.26,-392.05 991.68,-385.55"/>
</g>
<!-- Node181 -->
<g id="node46" class="node">
<title>Node181</title>
<g id="a_node46"><a xlink:href="_s_l_rnd3f_8h.html" target="_top" xlink:title=" ">
<polygon fill="white" stroke="red" points="1333.5,-336.5 1333.5,-355.5 1396.5,-355.5 1396.5,-336.5 1333.5,-336.5"/>
<text text-anchor="middle" x="1365" y="-343.5" font-family="Arial" font-size="10.00">SLRnd3f.h</text>
</a>
</g>
</g>
<!-- Node1&#45;&gt;Node181 -->
<g id="edge71" class="edge">
<title>Node1&#45;&gt;Node181</title>
<path fill="none" stroke="midnightblue" d="M997.33,-397.47C1064.7,-391.14 1206.43,-376.56 1325,-356 1327.67,-355.54 1330.42,-355.01 1333.18,-354.46"/>
<polygon fill="midnightblue" stroke="midnightblue" points="996.8,-394.01 987.17,-398.42 997.45,-400.98 996.8,-394.01"/>
</g>
<!-- Node109 -->
<g id="node47" class="node">
<title>Node109</title>
<g id="a_node47"><a xlink:href="_s_l_tex_color_l_u_t_8h.html" target="_top" xlink:title=" ">
<polygon fill="white" stroke="red" points="555.5,-336.5 555.5,-355.5 648.5,-355.5 648.5,-336.5 555.5,-336.5"/>
<text text-anchor="middle" x="602" y="-343.5" font-family="Arial" font-size="10.00">SLTexColorLUT.h</text>
</a>
</g>
</g>
<!-- Node1&#45;&gt;Node109 -->
<g id="edge72" class="edge">
<title>Node1&#45;&gt;Node109</title>
<path fill="none" stroke="midnightblue" d="M918.86,-395.06C852.82,-385.05 719.52,-364.83 648.7,-354.08"/>
<polygon fill="midnightblue" stroke="midnightblue" points="918.46,-398.54 928.87,-396.58 919.51,-391.62 918.46,-398.54"/>
</g>
<!-- Node56 -->
<g id="node48" class="node">
<title>Node56</title>
<g id="a_node48"><a xlink:href="_s_l_transform_node_8cpp.html" target="_top" xlink:title=" ">
<polygon fill="white" stroke="black" points="1415,-336.5 1415,-355.5 1529,-355.5 1529,-336.5 1415,-336.5"/>
<text text-anchor="middle" x="1472" y="-343.5" font-family="Arial" font-size="10.00">SLTransformNode.cpp</text>
</a>
</g>
</g>
<!-- Node1&#45;&gt;Node56 -->
<g id="edge74" class="edge">
<title>Node1&#45;&gt;Node56</title>
<path fill="none" stroke="midnightblue" d="M997.46,-397.51C1075.56,-390.5 1255.31,-373.84 1406,-356 1408.87,-355.66 1411.81,-355.3 1414.78,-354.93"/>
<polygon fill="midnightblue" stroke="midnightblue" points="996.78,-394.06 987.13,-398.43 997.4,-401.03 996.78,-394.06"/>
</g>
<!-- Node182 -->
<g id="node49" class="node">
<title>Node182</title>
<g id="a_node49"><a xlink:href="_s_l_vec4_8h.html" target="_top" xlink:title=" ">
<polygon fill="white" stroke="red" points="882,-336.5 882,-355.5 940,-355.5 940,-336.5 882,-336.5"/>
<text text-anchor="middle" x="911" y="-343.5" font-family="Arial" font-size="10.00">SLVec4.h</text>
</a>
</g>
</g>
<!-- Node1&#45;&gt;Node182 -->
<g id="edge75" class="edge">
<title>Node1&#45;&gt;Node182</title>
<path fill="none" stroke="midnightblue" d="M943.58,-384.43C935.34,-374.97 925.35,-363.48 918.62,-355.75"/>
<polygon fill="midnightblue" stroke="midnightblue" points="941.03,-386.84 950.24,-392.08 946.31,-382.24 941.03,-386.84"/>
</g>
<!-- Node183 -->
<g id="node50" class="node">
<title>Node183</title>
<g id="a_node50"><a xlink:href="_w_a_i_image_stabilized_orientation_8h.html" target="_top" xlink:title=" ">
<polygon fill="white" stroke="red" points="1547.5,-336.5 1547.5,-355.5 1708.5,-355.5 1708.5,-336.5 1547.5,-336.5"/>
<text text-anchor="middle" x="1628" y="-343.5" font-family="Arial" font-size="10.00">WAIImageStabilizedOrientation.h</text>
</a>
</g>
</g>
<!-- Node1&#45;&gt;Node183 -->
<g id="edge81" class="edge">
<title>Node1&#45;&gt;Node183</title>
<path fill="none" stroke="midnightblue" d="M997.45,-398.24C1091.23,-391.62 1334.82,-374.04 1538,-356 1540.97,-355.74 1544,-355.46 1547.05,-355.18"/>
<polygon fill="midnightblue" stroke="midnightblue" points="997.02,-394.76 987.29,-398.96 997.51,-401.75 997.02,-394.76"/>
</g>
<!-- Node4 -->
<g id="node4" class="node">
<title>Node4</title>
<g id="a_node4"><a xlink:href="_app_demo_load_8cpp.html" target="_top" xlink:title=" ">
<polygon fill="white" stroke="black" points="242,-168.5 242,-187.5 342,-187.5 342,-168.5 242,-168.5"/>
<text text-anchor="middle" x="292" y="-175.5" font-family="Arial" font-size="10.00">AppDemoLoad.cpp</text>
</a>
</g>
</g>
<!-- Node3&#45;&gt;Node4 -->
<g id="edge3" class="edge">
<title>Node3&#45;&gt;Node4</title>
<path fill="none" stroke="midnightblue" d="M287.85,-270.35C288.94,-246.25 290.8,-205.31 291.61,-187.59"/>
<polygon fill="midnightblue" stroke="midnightblue" points="284.35,-270.22 287.39,-280.37 291.34,-270.54 284.35,-270.22"/>
</g>
<!-- Node5 -->
<g id="node5" class="node">
<title>Node5</title>
<g id="a_node5"><a xlink:href="_s_l_algo_8cpp.html" target="_top" xlink:title=" ">
<polygon fill="white" stroke="black" points="320.5,-224.5 320.5,-243.5 387.5,-243.5 387.5,-224.5 320.5,-224.5"/>
<text text-anchor="middle" x="354" y="-231.5" font-family="Arial" font-size="10.00">SLAlgo.cpp</text>
</a>
</g>
</g>
<!-- Node3&#45;&gt;Node5 -->
<g id="edge4" class="edge">
<title>Node3&#45;&gt;Node5</title>
<path fill="none" stroke="midnightblue" d="M305.83,-273.82C317.84,-264.15 332.97,-251.95 343.04,-243.83"/>
<polygon fill="midnightblue" stroke="midnightblue" points="303.35,-271.32 297.76,-280.32 307.75,-276.77 303.35,-271.32"/>
</g>
<!-- Node6 -->
<g id="node6" class="node">
<title>Node6</title>
<g id="a_node6"><a xlink:href="_s_l_device_location_8cpp.html" target="_top" xlink:title=" ">
<polygon fill="white" stroke="black" points="91.5,-168.5 91.5,-187.5 206.5,-187.5 206.5,-168.5 91.5,-168.5"/>
<text text-anchor="middle" x="149" y="-175.5" font-family="Arial" font-size="10.00">SLDeviceLocation.cpp</text>
</a>
</g>
</g>
<!-- Node3&#45;&gt;Node6 -->
<g id="edge5" class="edge">
<title>Node3&#45;&gt;Node6</title>
<path fill="none" stroke="midnightblue" d="M248.71,-287.72C216.96,-284.4 173.51,-274.18 151,-244 138.58,-227.35 142.98,-201.06 146.44,-187.58"/>
<polygon fill="midnightblue" stroke="midnightblue" points="248.72,-291.23 258.98,-288.59 249.31,-284.25 248.72,-291.23"/>
</g>
<!-- Node7 -->
<g id="node7" class="node">
<title>Node7</title>
<g id="a_node7"><a xlink:href="_s_l_device_location_8h.html" target="_top" xlink:title=" ">
<polygon fill="white" stroke="red" points="160,-224.5 160,-243.5 264,-243.5 264,-224.5 160,-224.5"/>
<text text-anchor="middle" x="212" y="-231.5" font-family="Arial" font-size="10.00">SLDeviceLocation.h</text>
</a>
</g>
</g>
<!-- Node3&#45;&gt;Node7 -->
<g id="edge6" class="edge">
<title>Node3&#45;&gt;Node7</title>
<path fill="none" stroke="midnightblue" d="M266.69,-274.38C253.14,-264.62 235.76,-252.11 224.27,-243.83"/>
<polygon fill="midnightblue" stroke="midnightblue" points="264.79,-277.32 274.95,-280.32 268.88,-271.64 264.79,-277.32"/>
</g>
<!-- Node9 -->
<g id="node8" class="node">
<title>Node9</title>
<g id="a_node8"><a xlink:href="_s_l_horizon_node_8cpp.html" target="_top" xlink:title=" ">
<polygon fill="white" stroke="black" points="0,-224.5 0,-243.5 104,-243.5 104,-224.5 0,-224.5"/>
<text text-anchor="middle" x="52" y="-231.5" font-family="Arial" font-size="10.00">SLHorizonNode.cpp</text>
</a>
</g>
</g>
<!-- Node3&#45;&gt;Node9 -->
<g id="edge9" class="edge">
<title>Node3&#45;&gt;Node9</title>
<path fill="none" stroke="midnightblue" d="M248.63,-280.18C204.62,-270.07 132.94,-253.6 89.36,-243.58"/>
<polygon fill="midnightblue" stroke="midnightblue" points="248.12,-283.66 258.65,-282.49 249.69,-276.84 248.12,-283.66"/>
</g>
<!-- Node7&#45;&gt;Node4 -->
<g id="edge7" class="edge">
<title>Node7&#45;&gt;Node4</title>
<path fill="none" stroke="midnightblue" d="M233.3,-218.62C247.92,-208.76 266.83,-195.99 279.18,-187.65"/>
<polygon fill="midnightblue" stroke="midnightblue" points="231.18,-215.83 224.85,-224.32 235.1,-221.63 231.18,-215.83"/>
</g>
<!-- Node7&#45;&gt;Node6 -->
<g id="edge8" class="edge">
<title>Node7&#45;&gt;Node6</title>
<path fill="none" stroke="midnightblue" d="M193.96,-217.54C182.73,-207.91 168.68,-195.87 159.31,-187.83"/>
<polygon fill="midnightblue" stroke="midnightblue" points="192.01,-220.47 201.88,-224.32 196.56,-215.16 192.01,-220.47"/>
</g>
<!-- Node11 -->
<g id="node10" class="node">
<title>Node11</title>
<g id="a_node10"><a xlink:href="_s_l_anim_keyframe_8cpp.html" target="_top" xlink:title=" ">
<polygon fill="white" stroke="black" points="1241,-280.5 1241,-299.5 1353,-299.5 1353,-280.5 1241,-280.5"/>
<text text-anchor="middle" x="1297" y="-287.5" font-family="Arial" font-size="10.00">SLAnimKeyframe.cpp</text>
</a>
</g>
</g>
<!-- Node10&#45;&gt;Node11 -->
<g id="edge11" class="edge">
<title>Node10&#45;&gt;Node11</title>
<path fill="none" stroke="midnightblue" d="M1184.48,-332.91C1211.74,-322.75 1249.99,-308.51 1274.13,-299.52"/>
<polygon fill="midnightblue" stroke="midnightblue" points="1183.13,-329.67 1174.98,-336.44 1185.57,-336.23 1183.13,-329.67"/>
</g>
<!-- Node12 -->
<g id="node11" class="node">
<title>Node12</title>
<g id="a_node11"><a xlink:href="_s_l_anim_track_8h.html" target="_top" xlink:title=" ">
<polygon fill="white" stroke="red" points="1139,-280.5 1139,-299.5 1223,-299.5 1223,-280.5 1139,-280.5"/>
<text text-anchor="middle" x="1181" y="-287.5" font-family="Arial" font-size="10.00">SLAnimTrack.h</text>
</a>
</g>
</g>
<!-- Node10&#45;&gt;Node12 -->
<g id="edge12" class="edge">
<title>Node10&#45;&gt;Node12</title>
<path fill="none" stroke="midnightblue" d="M1161.68,-326.98C1166.6,-317.82 1172.36,-307.09 1176.3,-299.75"/>
<polygon fill="midnightblue" stroke="midnightblue" points="1158.44,-325.62 1156.79,-336.08 1164.6,-328.93 1158.44,-325.62"/>
</g>
<!-- Node65 -->
<g id="node13" class="node">
<title>Node65</title>
<g id="a_node13"><a xlink:href="_s_l_compact_grid_8cpp.html" target="_top" xlink:title=" ">
<polygon fill="white" stroke="black" points="1460.5,-280.5 1460.5,-299.5 1565.5,-299.5 1565.5,-280.5 1460.5,-280.5"/>
<text text-anchor="middle" x="1513" y="-287.5" font-family="Arial" font-size="10.00">SLCompactGrid.cpp</text>
</a>
</g>
</g>
<!-- Node64&#45;&gt;Node65 -->
<g id="edge14" class="edge">
<title>Node64&#45;&gt;Node65</title>
<path fill="none" stroke="midnightblue" d="M1316.63,-334.28C1362.93,-324.08 1431.69,-308.92 1474.36,-299.52"/>
<polygon fill="midnightblue" stroke="midnightblue" points="1315.83,-330.87 1306.82,-336.44 1317.34,-337.71 1315.83,-330.87"/>
</g>
<!-- Node45 -->
<g id="node14" class="node">
<title>Node45</title>
<g id="a_node14"><a xlink:href="_s_l_mesh_8cpp.html" target="_top" xlink:title=" ">
<polygon fill="white" stroke="black" points="1371.5,-280.5 1371.5,-299.5 1442.5,-299.5 1442.5,-280.5 1371.5,-280.5"/>
<text text-anchor="middle" x="1407" y="-287.5" font-family="Arial" font-size="10.00">SLMesh.cpp</text>
</a>
</g>
</g>
<!-- Node64&#45;&gt;Node45 -->
<g id="edge15" class="edge">
<title>Node64&#45;&gt;Node45</title>
<path fill="none" stroke="midnightblue" d="M1299.48,-332.77C1325.59,-322.63 1362.04,-308.47 1385.08,-299.52"/>
<polygon fill="midnightblue" stroke="midnightblue" points="1298.08,-329.56 1290.02,-336.44 1300.61,-336.08 1298.08,-329.56"/>
</g>
<!-- Node67 -->
<g id="node16" class="node">
<title>Node67</title>
<g id="a_node16"><a xlink:href="_s_l_curve_bezier_8h.html" target="_top" xlink:title=" ">
<polygon fill="white" stroke="red" points="687.5,-168.5 687.5,-187.5 778.5,-187.5 778.5,-168.5 687.5,-168.5"/>
<text text-anchor="middle" x="733" y="-175.5" font-family="Arial" font-size="10.00">SLCurveBezier.h</text>
</a>
</g>
</g>
<!-- Node66&#45;&gt;Node67 -->
<g id="edge17" class="edge">
<title>Node66&#45;&gt;Node67</title>
<path fill="none" stroke="midnightblue" d="M769.32,-216.72C760.16,-207.2 748.95,-195.56 741.43,-187.75"/>
<polygon fill="midnightblue" stroke="midnightblue" points="766.96,-219.31 776.41,-224.08 772,-214.45 766.96,-219.31"/>
</g>
<!-- Node25 -->
<g id="node17" class="node">
<title>Node25</title>
<g id="a_node17"><a xlink:href="_s_l_curve_bezier_8cpp.html" target="_top" xlink:title=" ">
<polygon fill="white" stroke="black" points="697.5,-112.5 697.5,-131.5 798.5,-131.5 798.5,-112.5 697.5,-112.5"/>
<text text-anchor="middle" x="748" y="-119.5" font-family="Arial" font-size="10.00">SLCurveBezier.cpp</text>
</a>
</g>
</g>
<!-- Node67&#45;&gt;Node25 -->
<g id="edge18" class="edge">
<title>Node67&#45;&gt;Node25</title>
<path fill="none" stroke="midnightblue" d="M738.17,-158.4C740.68,-149.36 743.57,-138.94 745.57,-131.75"/>
<polygon fill="midnightblue" stroke="midnightblue" points="734.78,-157.51 735.48,-168.08 741.53,-159.38 734.78,-157.51"/>
</g>
<!-- Node68&#45;&gt;Node25 -->
<g id="edge24" class="edge">
<title>Node68&#45;&gt;Node25</title>
<path fill="none" stroke="midnightblue" d="M1440.07,-231.34C1319.98,-226.78 1003.85,-212.72 902,-188 848.98,-175.13 790.78,-146.11 763.6,-131.6"/>
<polygon fill="midnightblue" stroke="midnightblue" points="1440.27,-234.85 1450.4,-231.73 1440.53,-227.85 1440.27,-234.85"/>
</g>
<!-- Node18 -->
<g id="node19" class="node">
<title>Node18</title>
<g id="a_node19"><a xlink:href="_app_demo_main_g_l_f_w_8cpp.html" target="_top" xlink:title=" ">
<polygon fill="white" stroke="black" points="1047,-168.5 1047,-187.5 1175,-187.5 1175,-168.5 1047,-168.5"/>
<text text-anchor="middle" x="1111" y="-175.5" font-family="Arial" font-size="10.00">AppDemoMainGLFW.cpp</text>
</a>
</g>
</g>
<!-- Node68&#45;&gt;Node18 -->
<g id="edge20" class="edge">
<title>Node68&#45;&gt;Node18</title>
<path fill="none" stroke="midnightblue" d="M1440.23,-226.28C1371.96,-216.48 1245.03,-198.25 1170.3,-187.52"/>
<polygon fill="midnightblue" stroke="midnightblue" points="1439.87,-229.77 1450.26,-227.72 1440.86,-222.84 1439.87,-229.77"/>
</g>
<!-- Node20 -->
<g id="node20" class="node">
<title>Node20</title>
<g id="a_node20"><a xlink:href="_s_l_a_a_b_box_8cpp.html" target="_top" xlink:title=" ">
<polygon fill="white" stroke="black" points="1373.5,-168.5 1373.5,-187.5 1458.5,-187.5 1458.5,-168.5 1373.5,-168.5"/>
<text text-anchor="middle" x="1416" y="-175.5" font-family="Arial" font-size="10.00">SLAABBox.cpp</text>
</a>
</g>
</g>
<!-- Node68&#45;&gt;Node20 -->
<g id="edge21" class="edge">
<title>Node68&#45;&gt;Node20</title>
<path fill="none" stroke="midnightblue" d="M1467.41,-218.1C1454.63,-208.38 1438.39,-196.03 1427.61,-187.83"/>
<polygon fill="midnightblue" stroke="midnightblue" points="1465.51,-221.06 1475.59,-224.32 1469.75,-215.48 1465.51,-221.06"/>
</g>
<!-- Node69 -->
<g id="node21" class="node">
<title>Node69</title>
<g id="a_node21"><a xlink:href="_s_l_camera_8h.html" target="_top" xlink:title=" ">
<polygon fill="white" stroke="red" points="2237.5,-168.5 2237.5,-187.5 2308.5,-187.5 2308.5,-168.5 2237.5,-168.5"/>
<text text-anchor="middle" x="2273" y="-175.5" font-family="Arial" font-size="10.00">SLCamera.h</text>
</a>
</g>
</g>
<!-- Node68&#45;&gt;Node69 -->
<g id="edge22" class="edge">
<title>Node68&#45;&gt;Node69</title>
<path fill="none" stroke="midnightblue" d="M1533.52,-232.04C1650.02,-229.24 1963.6,-219.17 2223,-188 2227.64,-187.44 2232.5,-186.73 2237.3,-185.95"/>
<polygon fill="midnightblue" stroke="midnightblue" points="1533.43,-228.55 1523.51,-232.28 1533.59,-235.54 1533.43,-228.55"/>
</g>
<!-- Node52 -->
<g id="node22" class="node">
<title>Node52</title>
<g id="a_node22"><a xlink:href="_s_l_shadow_map_8cpp.html" target="_top" xlink:title=" ">
<polygon fill="white" stroke="black" points="2079.5,-112.5 2079.5,-131.5 2180.5,-131.5 2180.5,-112.5 2079.5,-112.5"/>
<text text-anchor="middle" x="2130" y="-119.5" font-family="Arial" font-size="10.00">SLShadowMap.cpp</text>
</a>
</g>
</g>
<!-- Node68&#45;&gt;Node52 -->
<g id="edge54" class="edge">
<title>Node68&#45;&gt;Node52</title>
<path fill="none" stroke="midnightblue" d="M1533.9,-231.56C1681.95,-226.81 2130.9,-210.57 2152,-188 2166.97,-171.98 2149.05,-145.41 2137.79,-131.73"/>
<polygon fill="midnightblue" stroke="midnightblue" points="1533.65,-228.07 1523.77,-231.89 1533.88,-235.07 1533.65,-228.07"/>
</g>
<!-- Node74 -->
<g id="node23" class="node">
<title>Node74</title>
<g id="a_node23"><a xlink:href="_s_l_g_l_depth_buffer_8cpp.html" target="_top" xlink:title=" ">
<polygon fill="white" stroke="black" points="1949,-112.5 1949,-131.5 2061,-131.5 2061,-112.5 1949,-112.5"/>
<text text-anchor="middle" x="2005" y="-119.5" font-family="Arial" font-size="10.00">SLGLDepthBuffer.cpp</text>
</a>
</g>
</g>
<!-- Node68&#45;&gt;Node74 -->
<g id="edge25" class="edge">
<title>Node68&#45;&gt;Node74</title>
<path fill="none" stroke="midnightblue" d="M1533.68,-232.86C1636.39,-231.86 1878.51,-225.47 1950,-188 1974.62,-175.1 1992.74,-146.09 2000.63,-131.59"/>
<polygon fill="midnightblue" stroke="midnightblue" points="1533.57,-229.36 1523.6,-232.95 1533.63,-236.36 1533.57,-229.36"/>
</g>
<!-- Node75 -->
<g id="node24" class="node">
<title>Node75</title>
<g id="a_node24"><a xlink:href="_s_l_g_l_depth_buffer_8h.html" target="_top" xlink:title=" ">
<polygon fill="white" stroke="red" points="2041.5,-168.5 2041.5,-187.5 2142.5,-187.5 2142.5,-168.5 2041.5,-168.5"/>
<text text-anchor="middle" x="2092" y="-175.5" font-family="Arial" font-size="10.00">SLGLDepthBuffer.h</text>
</a>
</g>
</g>
<!-- Node68&#45;&gt;Node75 -->
<g id="edge26" class="edge">
<title>Node68&#45;&gt;Node75</title>
<path fill="none" stroke="midnightblue" d="M1533.74,-229.97C1627.46,-223.69 1844.95,-208.17 2027,-188 2031.64,-187.49 2036.47,-186.91 2041.29,-186.29"/>
<polygon fill="midnightblue" stroke="midnightblue" points="1533.48,-226.48 1523.73,-230.63 1533.94,-233.46 1533.48,-226.48"/>
</g>
<!-- Node30 -->
<g id="node25" class="node">
<title>Node30</title>
<g id="a_node25"><a xlink:href="_s_l_g_l_program_8cpp.html" target="_top" xlink:title=" ">
<polygon fill="white" stroke="black" points="1833.5,-112.5 1833.5,-131.5 1930.5,-131.5 1930.5,-112.5 1833.5,-112.5"/>
<text text-anchor="middle" x="1882" y="-119.5" font-family="Arial" font-size="10.00">SLGLProgram.cpp</text>
</a>
</g>
</g>
<!-- Node68&#45;&gt;Node30 -->
<g id="edge40" class="edge">
<title>Node68&#45;&gt;Node30</title>
<path fill="none" stroke="midnightblue" d="M1533.6,-231.77C1642.69,-228.42 1907.49,-217.32 1934,-188 1951.45,-168.71 1918.65,-144.41 1897.64,-131.68"/>
<polygon fill="midnightblue" stroke="midnightblue" points="1533.43,-228.28 1523.54,-232.07 1533.64,-235.27 1533.43,-228.28"/>
</g>
<!-- Node102 -->
<g id="node26" class="node">
<title>Node102</title>
<g id="a_node26"><a xlink:href="_s_l_g_l_enums_8h.html" target="_top" xlink:title=" ">
<polygon fill="white" stroke="black" points="911,-168.5 911,-187.5 991,-187.5 991,-168.5 911,-168.5"/>
<text text-anchor="middle" x="951" y="-175.5" font-family="Arial" font-size="10.00">SLGLEnums.h</text>
</a>
</g>
</g>
<!-- Node68&#45;&gt;Node102 -->
<g id="edge30" class="edge">
<title>Node68&#45;&gt;Node102</title>
<path fill="none" stroke="midnightblue" d="M1440.33,-229.77C1354.12,-223.54 1164.18,-208.67 1005,-188 1000.48,-187.41 995.75,-186.73 991.06,-186.01"/>
<polygon fill="midnightblue" stroke="midnightblue" points="1440.09,-233.26 1450.32,-230.48 1440.59,-226.28 1440.09,-233.26"/>
</g>
<!-- Node33 -->
<g id="node28" class="node">
<title>Node33</title>
<g id="a_node28"><a xlink:href="_s_l_g_l_vertex_array_8cpp.html" target="_top" xlink:title=" ">
<polygon fill="white" stroke="black" points="1337,-0.5 1337,-19.5 1447,-19.5 1447,-0.5 1337,-0.5"/>
<text text-anchor="middle" x="1392" y="-7.5" font-family="Arial" font-size="10.00">SLGLVertexArray.cpp</text>
</a>
</g>
</g>
<!-- Node68&#45;&gt;Node33 -->
<g id="edge51" class="edge">
<title>Node68&#45;&gt;Node33</title>
<path fill="none" stroke="midnightblue" d="M1534.19,-231.26C1684.3,-225.56 2142.43,-206.69 2168,-188 2196.39,-167.25 2213.25,-138.38 2190,-112 2140.77,-56.15 1619.82,-23.26 1447.21,-13.84"/>
<polygon fill="midnightblue" stroke="midnightblue" points="1533.78,-227.78 1523.92,-231.65 1534.05,-234.77 1533.78,-227.78"/>
</g>
<!-- Node157 -->
<g id="node30" class="node">
<title>Node157</title>
<g id="a_node30"><a xlink:href="_s_l_g_l_vertex_buffer_8cpp.html" target="_top" xlink:title=" ">
<polygon fill="white" stroke="black" points="962.5,-56.5 962.5,-75.5 1075.5,-75.5 1075.5,-56.5 962.5,-56.5"/>
<text text-anchor="middle" x="1019" y="-63.5" font-family="Arial" font-size="10.00">SLGLVertexBuffer.cpp</text>
</a>
</g>
</g>
<!-- Node68&#45;&gt;Node157 -->
<g id="edge53" class="edge">
<title>Node68&#45;&gt;Node157</title>
<path fill="none" stroke="midnightblue" d="M1440.09,-231.49C1330.9,-227.54 1066.81,-215.25 1038,-188 1006.17,-157.9 1013.26,-97.89 1017.25,-75.6"/>
<polygon fill="midnightblue" stroke="midnightblue" points="1440.04,-234.99 1450.16,-231.85 1440.29,-228 1440.04,-234.99"/>
</g>
<!-- Node158 -->
<g id="node31" class="node">
<title>Node158</title>
<g id="a_node31"><a xlink:href="_s_l_g_l_fbo_8cpp.html" target="_top" xlink:title=" ">
<polygon fill="white" stroke="black" points="1515.5,-168.5 1515.5,-187.5 1592.5,-187.5 1592.5,-168.5 1515.5,-168.5"/>
<text text-anchor="middle" x="1554" y="-175.5" font-family="Arial" font-size="10.00">SLGLFbo.cpp</text>
</a>
</g>
</g>
<!-- Node68&#45;&gt;Node158 -->
<g id="edge36" class="edge">
<title>Node68&#45;&gt;Node158</title>
<path fill="none" stroke="midnightblue" d="M1505.83,-217.82C1517.84,-208.15 1532.97,-195.95 1543.04,-187.83"/>
<polygon fill="midnightblue" stroke="midnightblue" points="1503.35,-215.32 1497.76,-224.32 1507.75,-220.77 1503.35,-215.32"/>
</g>
<!-- Node26 -->
<g id="node32" class="node">
<title>Node26</title>
<g id="a_node32"><a xlink:href="_s_l_g_l_im_gui_8cpp.html" target="_top" xlink:title=" ">
<polygon fill="white" stroke="black" points="1611,-168.5 1611,-187.5 1697,-187.5 1697,-168.5 1611,-168.5"/>
<text text-anchor="middle" x="1654" y="-175.5" font-family="Arial" font-size="10.00">SLGLImGui.cpp</text>
</a>
</g>
</g>
<!-- Node68&#45;&gt;Node26 -->
<g id="edge37" class="edge">
<title>Node68&#45;&gt;Node26</title>
<path fill="none" stroke="midnightblue" d="M1523.17,-221.3C1554.64,-211.13 1599.49,-196.62 1627.66,-187.52"/>
<polygon fill="midnightblue" stroke="midnightblue" points="1521.9,-218.04 1513.46,-224.44 1524.05,-224.7 1521.9,-218.04"/>
</g>
<!-- Node28 -->
<g id="node33" class="node">
<title>Node28</title>
<g id="a_node33"><a xlink:href="_s_l_g_l_oculus_8cpp.html" target="_top" xlink:title=" ">
<polygon fill="white" stroke="black" points="1150.5,-112.5 1150.5,-131.5 1241.5,-131.5 1241.5,-112.5 1150.5,-112.5"/>
<text text-anchor="middle" x="1196" y="-119.5" font-family="Arial" font-size="10.00">SLGLOculus.cpp</text>
</a>
</g>
</g>
<!-- Node68&#45;&gt;Node28 -->
<g id="edge38" class="edge">
<title>Node68&#45;&gt;Node28</title>
<path fill="none" stroke="midnightblue" d="M1440.04,-232.94C1390.22,-230.92 1310.75,-221.98 1252,-188 1228.02,-174.13 1209.32,-146.1 1200.89,-131.81"/>
<polygon fill="midnightblue" stroke="midnightblue" points="1440.1,-236.44 1450.21,-233.27 1440.33,-229.44 1440.1,-236.44"/>
</g>
<!-- Node29 -->
<g id="node34" class="node">
<title>Node29</title>
<g id="a_node34"><a xlink:href="_s_l_g_l_oculus_f_b_8cpp.html" target="_top" xlink:title=" ">
<polygon fill="white" stroke="black" points="1260,-112.5 1260,-131.5 1364,-131.5 1364,-112.5 1260,-112.5"/>
<text text-anchor="middle" x="1312" y="-119.5" font-family="Arial" font-size="10.00">SLGLOculusFB.cpp</text>
</a>
</g>
</g>
<!-- Node68&#45;&gt;Node29 -->
<g id="edge39" class="edge">
<title>Node68&#45;&gt;Node29</title>
<path fill="none" stroke="midnightblue" d="M1439.9,-230.49C1380.19,-226.22 1282.31,-215.17 1260,-188 1243.58,-168.01 1275.55,-144.2 1296.26,-131.68"/>
<polygon fill="midnightblue" stroke="midnightblue" points="1440,-234.01 1450.22,-231.19 1440.48,-227.03 1440,-234.01"/>
</g>
<!-- Node79 -->
<g id="node35" class="node">
<title>Node79</title>
<g id="a_node35"><a xlink:href="_s_l_g_l_program_8h.html" target="_top" xlink:title=" ">
<polygon fill="white" stroke="red" points="1269,-168.5 1269,-187.5 1355,-187.5 1355,-168.5 1269,-168.5"/>
<text text-anchor="middle" x="1312" y="-175.5" font-family="Arial" font-size="10.00">SLGLProgram.h</text>
</a>
</g>
</g>
<!-- Node68&#45;&gt;Node79 -->
<g id="edge41" class="edge">
<title>Node68&#45;&gt;Node79</title>
<path fill="none" stroke="midnightblue" d="M1449.53,-221.44C1416.53,-211.26 1369.24,-196.66 1339.6,-187.52"/>
<polygon fill="midnightblue" stroke="midnightblue" points="1448.68,-224.84 1459.27,-224.44 1450.75,-218.15 1448.68,-224.84"/>
</g>
<!-- Node95 -->
<g id="node36" class="node">
<title>Node95</title>
<g id="a_node36"><a xlink:href="_s_l_g_l_shader_8cpp.html" target="_top" xlink:title=" ">
<polygon fill="white" stroke="black" points="1431.5,-112.5 1431.5,-131.5 1522.5,-131.5 1522.5,-112.5 1431.5,-112.5"/>
<text text-anchor="middle" x="1477" y="-119.5" font-family="Arial" font-size="10.00">SLGLShader.cpp</text>
</a>
</g>
</g>
<!-- Node68&#45;&gt;Node95 -->
<g id="edge48" class="edge">
<title>Node68&#45;&gt;Node95</title>
<path fill="none" stroke="midnightblue" d="M1485.3,-214.35C1483.11,-190.25 1479.39,-149.31 1477.78,-131.59"/>
<polygon fill="midnightblue" stroke="midnightblue" points="1481.82,-214.73 1486.22,-224.37 1488.8,-214.09 1481.82,-214.73"/>
</g>
<!-- Node90 -->
<g id="node37" class="node">
<title>Node90</title>
<g id="a_node37"><a xlink:href="_s_l_g_l_vertex_array_ext_8cpp.html" target="_top" xlink:title=" ">
<polygon fill="white" stroke="black" points="1615.5,-112.5 1615.5,-131.5 1740.5,-131.5 1740.5,-112.5 1615.5,-112.5"/>
<text text-anchor="middle" x="1678" y="-119.5" font-family="Arial" font-size="10.00">SLGLVertexArrayExt.cpp</text>
</a>
</g>
</g>
<!-- Node68&#45;&gt;Node90 -->
<g id="edge52" class="edge">
<title>Node68&#45;&gt;Node90</title>
<path fill="none" stroke="midnightblue" d="M1533.77,-231.58C1640.08,-227.87 1892.63,-216.16 1918,-188 1923.95,-181.4 1923.68,-174.84 1918,-168 1895.87,-141.33 1804.11,-130.37 1740.69,-125.93"/>
<polygon fill="midnightblue" stroke="midnightblue" points="1533.53,-228.09 1523.65,-231.92 1533.77,-235.08 1533.53,-228.09"/>
</g>
<!-- Node89 -->
<g id="node38" class="node">
<title>Node89</title>
<g id="a_node38"><a xlink:href="_s_l_g_l_state_8cpp.html" target="_top" xlink:title=" ">
<polygon fill="white" stroke="black" points="1715.5,-168.5 1715.5,-187.5 1798.5,-187.5 1798.5,-168.5 1715.5,-168.5"/>
<text text-anchor="middle" x="1757" y="-175.5" font-family="Arial" font-size="10.00">SLGLState.cpp</text>
</a>
</g>
</g>
<!-- Node68&#45;&gt;Node89 -->
<g id="edge49" class="edge">
<title>Node68&#45;&gt;Node89</title>
<path fill="none" stroke="midnightblue" d="M1533.81,-223.64C1584.9,-213.42 1665.97,-197.21 1715.06,-187.39"/>
<polygon fill="midnightblue" stroke="midnightblue" points="1532.81,-220.27 1523.69,-225.66 1534.19,-227.13 1532.81,-220.27"/>
</g>
<!-- Node31 -->
<g id="node39" class="node">
<title>Node31</title>
<g id="a_node39"><a xlink:href="_s_l_g_l_texture_8cpp.html" target="_top" xlink:title=" ">
<polygon fill="white" stroke="black" points="1817,-168.5 1817,-187.5 1909,-187.5 1909,-168.5 1817,-168.5"/>
<text text-anchor="middle" x="1863" y="-175.5" font-family="Arial" font-size="10.00">SLGLTexture.cpp</text>
</a>
</g>
</g>
<!-- Node68&#45;&gt;Node31 -->
<g id="edge50" class="edge">
<title>Node68&#45;&gt;Node31</title>
<path fill="none" stroke="midnightblue" d="M1533.57,-226.81C1596.07,-218.43 1710.5,-202.81 1808,-188 1810.87,-187.56 1813.82,-187.11 1816.8,-186.64"/>
<polygon fill="midnightblue" stroke="midnightblue" points="1533.07,-223.35 1523.63,-228.14 1534,-230.29 1533.07,-223.35"/>
</g>
<!-- Node69&#45;&gt;Node52 -->
<g id="edge23" class="edge">
<title>Node69&#45;&gt;Node52</title>
<path fill="none" stroke="midnightblue" d="M2240.97,-164.91C2214.09,-154.75 2176.36,-140.51 2152.55,-131.52"/>
<polygon fill="midnightblue" stroke="midnightblue" points="2239.75,-168.19 2250.34,-168.44 2242.22,-161.64 2239.75,-168.19"/>
</g>
<!-- Node75&#45;&gt;Node52 -->
<g id="edge29" class="edge">
<title>Node75&#45;&gt;Node52</title>
<path fill="none" stroke="midnightblue" d="M2104.06,-159.86C2110.64,-150.5 2118.51,-139.33 2123.84,-131.75"/>
<polygon fill="midnightblue" stroke="midnightblue" points="2101.17,-157.89 2098.27,-168.08 2106.89,-161.92 2101.17,-157.89"/>
</g>
<!-- Node75&#45;&gt;Node74 -->
<g id="edge27" class="edge">
<title>Node75&#45;&gt;Node74</title>
<path fill="none" stroke="midnightblue" d="M2069.28,-162.9C2053.33,-153 2032.5,-140.07 2018.94,-131.65"/>
<polygon fill="midnightblue" stroke="midnightblue" points="2067.68,-166.02 2078.02,-168.32 2071.37,-160.08 2067.68,-166.02"/>
</g>
<!-- Node75&#45;&gt;Node30 -->
<g id="edge28" class="edge">
<title>Node75&#45;&gt;Node30</title>
<path fill="none" stroke="midnightblue" d="M2048.81,-165.89C2009.15,-155.7 1951.23,-140.8 1915.12,-131.52"/>
<polygon fill="midnightblue" stroke="midnightblue" points="2048.17,-169.34 2058.72,-168.44 2049.91,-162.56 2048.17,-169.34"/>
</g>
<!-- Node103 -->
<g id="node27" class="node">
<title>Node103</title>
<g id="a_node27"><a xlink:href="_s_l_g_l_vertex_array_8h.html" target="_top" xlink:title=" ">
<polygon fill="white" stroke="red" points="845.5,-56.5 845.5,-75.5 944.5,-75.5 944.5,-56.5 845.5,-56.5"/>
<text text-anchor="middle" x="895" y="-63.5" font-family="Arial" font-size="10.00">SLGLVertexArray.h</text>
</a>
</g>
</g>
<!-- Node102&#45;&gt;Node103 -->
<g id="edge31" class="edge">
<title>Node102&#45;&gt;Node103</title>
<path fill="none" stroke="midnightblue" d="M952,-158.43C951.98,-144.87 950.32,-126.41 943,-112 935.14,-96.52 919.69,-83.56 908.44,-75.58"/>
<polygon fill="midnightblue" stroke="midnightblue" points="948.5,-158.38 951.73,-168.47 955.5,-158.57 948.5,-158.38"/>
</g>
<!-- Node102&#45;&gt;Node156 -->
<g id="edge33" class="edge">
<title>Node102&#45;&gt;Node156</title>
<path fill="none" stroke="midnightblue" d="M932.24,-162.1C920,-152.38 904.44,-140.03 894.12,-131.83"/>
<polygon fill="midnightblue" stroke="midnightblue" points="930.07,-164.85 940.07,-168.32 934.42,-159.36 930.07,-164.85"/>
</g>
<!-- Node103&#45;&gt;Node33 -->
<g id="edge32" class="edge">
<title>Node103&#45;&gt;Node33</title>
<path fill="none" stroke="midnightblue" d="M954.95,-55.8C1098.31,-37.56 1255.44,-22.91 1336.8,-15.73"/>
<polygon fill="midnightblue" stroke="midnightblue" points="954.12,-52.38 944.65,-57.12 955.01,-59.32 954.12,-52.38"/>
</g>
<!-- Node156&#45;&gt;Node103 -->
<g id="edge34" class="edge">
<title>Node156&#45;&gt;Node103</title>
<path fill="none" stroke="midnightblue" d="M887.2,-102.1C889.19,-93.14 891.48,-82.86 893.06,-75.75"/>
<polygon fill="midnightblue" stroke="midnightblue" points="883.73,-101.56 884.98,-112.08 890.57,-103.08 883.73,-101.56"/>
</g>
<!-- Node156&#45;&gt;Node157 -->
<g id="edge35" class="edge">
<title>Node156&#45;&gt;Node157</title>
<path fill="none" stroke="midnightblue" d="M914.13,-108.64C939.66,-98.5 975.11,-84.43 997.55,-75.52"/>
<polygon fill="midnightblue" stroke="midnightblue" points="912.55,-105.5 904.55,-112.44 915.14,-112.01 912.55,-105.5"/>
</g>
<!-- Node79&#45;&gt;Node30 -->
<g id="edge44" class="edge">
<title>Node79&#45;&gt;Node30</title>
<path fill="none" stroke="midnightblue" d="M1364.7,-168.04C1364.8,-168.03 1364.9,-168.01 1365,-168 1454.81,-156.49 1722.31,-135.31 1833.1,-126.74"/>
<polygon fill="midnightblue" stroke="midnightblue" points="1364.47,-164.54 1355.05,-169.39 1365.44,-171.47 1364.47,-164.54"/>
</g>
<!-- Node79&#45;&gt;Node33 -->
<g id="edge46" class="edge">
<title>Node79&#45;&gt;Node33</title>
<path fill="none" stroke="midnightblue" d="M1339.31,-163.28C1351.55,-155.72 1365,-145.18 1373,-132 1395.4,-95.1 1394.22,-40.64 1392.77,-19.67"/>
<polygon fill="midnightblue" stroke="midnightblue" points="1337.22,-160.44 1330.3,-168.47 1340.71,-166.51 1337.22,-160.44"/>
</g>
<!-- Node79&#45;&gt;Node28 -->
<g id="edge42" class="edge">
<title>Node79&#45;&gt;Node28</title>
<path fill="none" stroke="midnightblue" d="M1284.28,-164.1C1262.61,-154.01 1233.1,-140.27 1214.29,-131.52"/>
<polygon fill="midnightblue" stroke="midnightblue" points="1283.08,-167.4 1293.62,-168.44 1286.03,-161.05 1283.08,-167.4"/>
</g>
<!-- Node79&#45;&gt;Node29 -->
<g id="edge43" class="edge">
<title>Node79&#45;&gt;Node29</title>
<path fill="none" stroke="midnightblue" d="M1312,-157.8C1312,-148.91 1312,-138.78 1312,-131.75"/>
<polygon fill="midnightblue" stroke="midnightblue" points="1308.5,-158.08 1312,-168.08 1315.5,-158.08 1308.5,-158.08"/>
</g>
<!-- Node79&#45;&gt;Node95 -->
<g id="edge45" class="edge">
<title>Node79&#45;&gt;Node95</title>
<path fill="none" stroke="midnightblue" d="M1347.74,-165.3C1378.83,-155.13 1423.15,-140.62 1450.98,-131.52"/>
<polygon fill="midnightblue" stroke="midnightblue" points="1346.56,-162.01 1338.14,-168.44 1348.74,-168.66 1346.56,-162.01"/>
</g>
<!-- Node79&#45;&gt;Node90 -->
<g id="edge47" class="edge">
<title>Node79&#45;&gt;Node90</title>
<path fill="none" stroke="midnightblue" d="M1364.7,-168.05C1364.8,-168.03 1364.9,-168.02 1365,-168 1451.64,-154.42 1552.04,-140.26 1615.28,-131.54"/>
<polygon fill="midnightblue" stroke="midnightblue" points="1364.4,-164.55 1355.08,-169.59 1365.51,-171.46 1364.4,-164.55"/>
</g>
<!-- Node159&#45;&gt;Node2 -->
<g id="edge57" class="edge">
<title>Node159&#45;&gt;Node2</title>
<path fill="none" stroke="midnightblue" d="M395.25,-331.66C373.67,-319.37 349.37,-300.05 362,-280 373.86,-261.17 396.03,-250.05 415.85,-243.57"/>
<polygon fill="midnightblue" stroke="midnightblue" points="393.74,-334.83 404.21,-336.48 397.06,-328.66 393.74,-334.83"/>
</g>
<!-- Node159&#45;&gt;Node3 -->
<g id="edge58" class="edge">
<title>Node159&#45;&gt;Node3</title>
<path fill="none" stroke="midnightblue" d="M391.87,-332.64C366.34,-322.5 330.89,-308.43 308.45,-299.52"/>
<polygon fill="midnightblue" stroke="midnightblue" points="390.86,-336.01 401.45,-336.44 393.45,-329.5 390.86,-336.01"/>
</g>
<!-- Node160 -->
<g id="node41" class="node">
<title>Node160</title>
<g id="a_node41"><a xlink:href="_s_l_device_rotation_8h.html" target="_top" xlink:title=" ">
<polygon fill="white" stroke="red" points="371,-280.5 371,-299.5 475,-299.5 475,-280.5 371,-280.5"/>
<text text-anchor="middle" x="423" y="-287.5" font-family="Arial" font-size="10.00">SLDeviceRotation.h</text>
</a>
</g>
</g>
<!-- Node159&#45;&gt;Node160 -->
<g id="edge59" class="edge">
<title>Node159&#45;&gt;Node160</title>
<path fill="none" stroke="midnightblue" d="M423,-325.8C423,-316.91 423,-306.78 423,-299.75"/>
<polygon fill="midnightblue" stroke="midnightblue" points="419.5,-326.08 423,-336.08 426.5,-326.08 419.5,-326.08"/>
</g>
<!-- Node159&#45;&gt;Node162 -->
<g id="edge60" class="edge">
<title>Node159&#45;&gt;Node162</title>
<path fill="none" stroke="midnightblue" d="M462.61,-336.96C516.43,-326.03 611.43,-306.75 659.45,-297"/>
<polygon fill="midnightblue" stroke="midnightblue" points="461.84,-333.54 452.74,-338.96 463.24,-340.4 461.84,-333.54"/>
</g>
<!-- Node162&#45;&gt;Node2 -->
<g id="edge62" class="edge">
<title>Node162&#45;&gt;Node2</title>
<path fill="none" stroke="midnightblue" d="M649.49,-279.84C605.71,-269.7 535.66,-253.46 492.94,-243.56"/>
<polygon fill="midnightblue" stroke="midnightblue" points="648.96,-283.31 659.49,-282.16 650.54,-276.49 648.96,-283.31"/>
</g>
<!-- Node162&#45;&gt;Node66 -->
<g id="edge63" class="edge">
<title>Node162&#45;&gt;Node66</title>
<path fill="none" stroke="midnightblue" d="M713.57,-275.18C731.24,-265.24 754.51,-252.15 769.61,-243.65"/>
<polygon fill="midnightblue" stroke="midnightblue" points="711.42,-272.37 704.42,-280.32 714.86,-278.47 711.42,-272.37"/>
</g>
<!-- Node162&#45;&gt;Node67 -->
<g id="edge64" class="edge">
<title>Node162&#45;&gt;Node67</title>
<path fill="none" stroke="midnightblue" d="M649.47,-279.25C614.92,-268.76 573.01,-250 592,-224 613.6,-194.43 654.84,-183.84 687.17,-180.26"/>
<polygon fill="midnightblue" stroke="midnightblue" points="648.84,-282.71 659.42,-282.12 650.78,-275.99 648.84,-282.71"/>
</g>
<!-- Node162&#45;&gt;Node68 -->
<g id="edge65" class="edge">
<title>Node162&#45;&gt;Node68</title>
<path fill="none" stroke="midnightblue" d="M728.91,-286.3C866.24,-277.01 1318.1,-246.43 1450.34,-237.48"/>
<polygon fill="midnightblue" stroke="midnightblue" points="728.57,-282.81 718.83,-286.98 729.04,-289.8 728.57,-282.81"/>
</g>
<!-- Node163 -->
<g id="node43" class="node">
<title>Node163</title>
<g id="a_node43"><a xlink:href="_c_v_tracked_aruco_cube_8cpp.html" target="_top" xlink:title=" ">
<polygon fill="white" stroke="black" points="601,-224.5 601,-243.5 735,-243.5 735,-224.5 601,-224.5"/>
<text text-anchor="middle" x="668" y="-231.5" font-family="Arial" font-size="10.00">CVTrackedArucoCube.cpp</text>
</a>
</g>
</g>
<!-- Node162&#45;&gt;Node163 -->
<g id="edge61" class="edge">
<title>Node162&#45;&gt;Node163</title>
<path fill="none" stroke="midnightblue" d="M681.88,-270.69C678.34,-261.59 674.23,-251.01 671.4,-243.75"/>
<polygon fill="midnightblue" stroke="midnightblue" points="678.65,-272.03 685.53,-280.08 685.17,-269.49 678.65,-272.03"/>
</g>
<!-- Node179&#45;&gt;Node69 -->
<g id="edge68" class="edge">
<title>Node179&#45;&gt;Node69</title>
<path fill="none" stroke="midnightblue" d="M1934.24,-227.95C1996.79,-220.16 2119.34,-204.39 2223,-188 2227.62,-187.27 2232.47,-186.46 2237.25,-185.63"/>
<polygon fill="midnightblue" stroke="midnightblue" points="1933.49,-224.51 1924,-229.22 1934.36,-231.46 1933.49,-224.51"/>
</g>
<!-- Node153&#45;&gt;Node69 -->
<g id="edge70" class="edge">
<title>Node153&#45;&gt;Node69</title>
<path fill="none" stroke="midnightblue" d="M1131.37,-280.08C1485.59,-231.63 1581.48,-285.26 1933,-244 2045.21,-230.83 2175.98,-201.95 2237.53,-187.53"/>
<polygon fill="midnightblue" stroke="midnightblue" points="1130.78,-276.63 1121.36,-281.47 1131.74,-283.57 1130.78,-276.63"/>
</g>
<!-- Node109&#45;&gt;Node4 -->
<g id="edge73" class="edge">
<title>Node109&#45;&gt;Node4</title>
<path fill="none" stroke="midnightblue" d="M594.28,-326.85C581.8,-299.85 554.53,-249.52 515,-224 462.74,-190.26 390.38,-181 342.43,-178.87"/>
<polygon fill="midnightblue" stroke="midnightblue" points="591.2,-328.55 598.46,-336.26 597.6,-325.7 591.2,-328.55"/>
</g>
<!-- Node182&#45;&gt;Node66 -->
<g id="edge76" class="edge">
<title>Node182&#45;&gt;Node66</title>
<path fill="none" stroke="midnightblue" d="M893.26,-329.51C866.34,-306.01 816.05,-262.11 794.84,-243.59"/>
<polygon fill="midnightblue" stroke="midnightblue" points="891.28,-332.43 901.11,-336.37 895.88,-327.16 891.28,-332.43"/>
</g>
<!-- Node182&#45;&gt;Node68 -->
<g id="edge78" class="edge">
<title>Node182&#45;&gt;Node68</title>
<path fill="none" stroke="midnightblue" d="M923.7,-328.58C936.73,-313.09 958.52,-290.69 983,-280 1067.03,-243.31 1349.14,-236.53 1450.42,-235.28"/>
<polygon fill="midnightblue" stroke="midnightblue" points="920.97,-326.39 917.4,-336.36 926.41,-330.79 920.97,-326.39"/>
</g>
<!-- Node182&#45;&gt;Node156 -->
<g id="edge79" class="edge">
<title>Node182&#45;&gt;Node156</title>
<path fill="none" stroke="midnightblue" d="M908.64,-326.3C902.88,-280.64 888.28,-164.85 884.12,-131.88"/>
<polygon fill="midnightblue" stroke="midnightblue" points="905.18,-326.81 909.9,-336.3 912.12,-325.94 905.18,-326.81"/>
</g>
<!-- Node182&#45;&gt;Node79 -->
<g id="edge77" class="edge">
<title>Node182&#45;&gt;Node79</title>
<path fill="none" stroke="midnightblue" d="M917.2,-326.86C923.14,-312.14 933.5,-291.94 949,-280 1046.15,-205.13 1195.72,-185.75 1268.81,-180.74"/>
<polygon fill="midnightblue" stroke="midnightblue" points="913.85,-325.81 913.65,-336.41 920.42,-328.25 913.85,-325.81"/>
</g>
<!-- Node182&#45;&gt;Node162 -->
<g id="edge80" class="edge">
<title>Node182&#45;&gt;Node162</title>
<path fill="none" stroke="midnightblue" d="M871.99,-335.51C828.25,-324.87 758.28,-307.85 718.74,-298.23"/>
<polygon fill="midnightblue" stroke="midnightblue" points="871.43,-338.98 881.98,-337.94 873.09,-332.18 871.43,-338.98"/>
</g>
</g>
</svg>
