<?xml version="1.0" encoding="UTF-8" standalone="no"?>
<!DOCTYPE svg PUBLIC "-//W3C//DTD SVG 1.1//EN"
 "http://www.w3.org/Graphics/SVG/1.1/DTD/svg11.dtd">
<!-- Generated by graphviz version 2.40.1 (20161225.0304)
 -->
<!-- Title: SLTexFont.cpp Pages: 1 -->
<svg width="2942pt" height="364pt"
 viewBox="0.00 0.00 2942.12 364.00" xmlns="http://www.w3.org/2000/svg" xmlns:xlink="http://www.w3.org/1999/xlink">
<g id="graph0" class="graph" transform="scale(1 1) rotate(0) translate(4 360)">
<title>SLTexFont.cpp</title>
<polygon fill="#ffffff" stroke="transparent" points="-4,4 -4,-360 2938.1224,-360 2938.1224,4 -4,4"/>
<!-- Node1 -->
<g id="node1" class="node">
<title>Node1</title>
<g id="a_node1"><a xlink:title=" ">
<polygon fill="#bfbfbf" stroke="#000000" points="684,-336.5 684,-355.5 768,-355.5 768,-336.5 684,-336.5"/>
<text text-anchor="middle" x="726" y="-343.5" font-family="Arial.ttf" font-size="10.00" fill="#000000">SLTexFont.cpp</text>
</a>
</g>
</g>
<!-- Node2 -->
<g id="node2" class="node">
<title>Node2</title>
<g id="a_node2"><a xlink:href="stdafx_8h.html" target="_top" xlink:title=" ">
<polygon fill="#ffffff" stroke="#000000" points="1673,-224.5 1673,-243.5 1725,-243.5 1725,-224.5 1673,-224.5"/>
<text text-anchor="middle" x="1699" y="-231.5" font-family="Arial.ttf" font-size="10.00" fill="#000000">stdafx.h</text>
</a>
</g>
</g>
<!-- Node1&#45;&gt;Node2 -->
<g id="edge1" class="edge">
<title>Node1&#45;&gt;Node2</title>
<path fill="none" stroke="#191970" d="M768.1209,-341.1516C930.0188,-322.5158 1510.7753,-255.6661 1662.5158,-238.1996"/>
<polygon fill="#191970" stroke="#191970" points="1663.154,-241.6494 1672.6881,-237.0287 1662.3534,-234.6953 1663.154,-241.6494"/>
</g>
<!-- Node30 -->
<g id="node30" class="node">
<title>Node30</title>
<g id="a_node30"><a xlink:href="_utils_8h.html" target="_top" xlink:title=" ">
<polygon fill="#ffffff" stroke="#ff0000" points="2302,-56.5 2302,-75.5 2346,-75.5 2346,-56.5 2302,-56.5"/>
<text text-anchor="middle" x="2324" y="-63.5" font-family="Arial.ttf" font-size="10.00" fill="#000000">Utils.h</text>
</a>
</g>
</g>
<!-- Node1&#45;&gt;Node30 -->
<g id="edge72" class="edge">
<title>Node1&#45;&gt;Node30</title>
<path fill="none" stroke="#191970" d="M768.1739,-344.5764C1065.9295,-334.328 2841.8131,-269.8761 2918,-188 2997.6886,-102.3607 2491.3937,-73.4698 2356.4391,-67.338"/>
<polygon fill="#191970" stroke="#191970" points="2356.456,-63.8354 2346.3109,-66.8892 2356.1461,-70.8285 2356.456,-63.8354"/>
</g>
<!-- Node41 -->
<g id="node39" class="node">
<title>Node41</title>
<g id="a_node39"><a xlink:href="_s_l_scene_8h.html" target="_top" xlink:title=" ">
<polygon fill="#ffffff" stroke="#000000" points="366.5,-280.5 366.5,-299.5 431.5,-299.5 431.5,-280.5 366.5,-280.5"/>
<text text-anchor="middle" x="399" y="-287.5" font-family="Arial.ttf" font-size="10.00" fill="#000000">SLScene.h</text>
</a>
</g>
</g>
<!-- Node1&#45;&gt;Node41 -->
<g id="edge44" class="edge">
<title>Node1&#45;&gt;Node41</title>
<path fill="none" stroke="#191970" d="M683.9199,-338.7936C621.3382,-328.0763 504.3853,-308.0476 441.539,-297.285"/>
<polygon fill="#191970" stroke="#191970" points="442.0121,-293.8151 431.5648,-295.5768 440.8305,-300.7147 442.0121,-293.8151"/>
</g>
<!-- Node42 -->
<g id="node40" class="node">
<title>Node42</title>
<g id="a_node40"><a xlink:title=" ">
<polygon fill="#ffffff" stroke="#bfbfbf" points="662.5,-224.5 662.5,-243.5 701.5,-243.5 701.5,-224.5 662.5,-224.5"/>
<text text-anchor="middle" x="682" y="-231.5" font-family="Arial.ttf" font-size="10.00" fill="#000000">utility</text>
</a>
</g>
</g>
<!-- Node1&#45;&gt;Node42 -->
<g id="edge73" class="edge">
<title>Node1&#45;&gt;Node42</title>
<path fill="none" stroke="#191970" d="M722.2486,-336.4509C715.0073,-318.0186 698.9814,-277.2254 689.4812,-253.043"/>
<polygon fill="#191970" stroke="#191970" points="692.6561,-251.5526 685.7419,-243.5249 686.1409,-254.1122 692.6561,-251.5526"/>
</g>
<!-- Node94 -->
<g id="node47" class="node">
<title>Node94</title>
<g id="a_node47"><a xlink:href="_s_l_tex_font_8h.html" target="_top" xlink:title=" ">
<polygon fill="#ffffff" stroke="#000000" points="718,-280.5 718,-299.5 792,-299.5 792,-280.5 718,-280.5"/>
<text text-anchor="middle" x="755" y="-287.5" font-family="Arial.ttf" font-size="10.00" fill="#000000">SLTexFont.h</text>
</a>
</g>
</g>
<!-- Node1&#45;&gt;Node94 -->
<g id="edge60" class="edge">
<title>Node1&#45;&gt;Node94</title>
<path fill="none" stroke="#191970" d="M731.0514,-336.2455C735.0019,-328.617 740.6097,-317.7881 745.4058,-308.5267"/>
<polygon fill="#191970" stroke="#191970" points="748.5159,-310.1321 750.0065,-299.6427 742.2999,-306.9131 748.5159,-310.1321"/>
</g>
<!-- Node76 -->
<g id="node49" class="node">
<title>Node76</title>
<g id="a_node49"><a xlink:href="_s_l_g_l_program_8h.html" target="_top" xlink:title=" ">
<polygon fill="#ffffff" stroke="#ff0000" points="124.5,-224.5 124.5,-243.5 213.5,-243.5 213.5,-224.5 124.5,-224.5"/>
<text text-anchor="middle" x="169" y="-231.5" font-family="Arial.ttf" font-size="10.00" fill="#000000">SLGLProgram.h</text>
</a>
</g>
</g>
<!-- Node1&#45;&gt;Node76 -->
<g id="edge64" class="edge">
<title>Node1&#45;&gt;Node76</title>
<path fill="none" stroke="#191970" d="M683.9829,-343.689C614.9566,-339.2427 473.5797,-327.3974 357,-300 300.6718,-286.7623 237.6886,-262.6454 200.7964,-247.5183"/>
<polygon fill="#191970" stroke="#191970" points="201.6883,-244.0995 191.11,-243.5066 199.0098,-250.5667 201.6883,-244.0995"/>
</g>
<!-- Node3 -->
<g id="node3" class="node">
<title>Node3</title>
<g id="a_node3"><a xlink:title=" ">
<polygon fill="#ffffff" stroke="#bfbfbf" points="1991,-168.5 1991,-187.5 2049,-187.5 2049,-168.5 1991,-168.5"/>
<text text-anchor="middle" x="2020" y="-175.5" font-family="Arial.ttf" font-size="10.00" fill="#000000">algorithm</text>
</a>
</g>
</g>
<!-- Node2&#45;&gt;Node3 -->
<g id="edge2" class="edge">
<title>Node2&#45;&gt;Node3</title>
<path fill="none" stroke="#191970" d="M1725.2976,-230.5869C1773.8659,-224.0995 1881.065,-208.9228 1980.6841,-188.1291"/>
<polygon fill="#191970" stroke="#191970" points="1981.5474,-191.5241 1990.6083,-186.0332 1980.1009,-184.6751 1981.5474,-191.5241"/>
</g>
<!-- Node4 -->
<g id="node4" class="node">
<title>Node4</title>
<g id="a_node4"><a xlink:title=" ">
<polygon fill="#ffffff" stroke="#bfbfbf" points="616,-168.5 616,-187.5 662,-187.5 662,-168.5 616,-168.5"/>
<text text-anchor="middle" x="639" y="-175.5" font-family="Arial.ttf" font-size="10.00" fill="#000000">atomic</text>
</a>
</g>
</g>
<!-- Node2&#45;&gt;Node4 -->
<g id="edge3" class="edge">
<title>Node2&#45;&gt;Node4</title>
<path fill="none" stroke="#191970" d="M1672.6116,-233.5959C1532.7008,-231.3347 876.4804,-219.2127 676,-188 674.7426,-187.8042 673.4665,-187.5819 672.1816,-187.3381"/>
<polygon fill="#191970" stroke="#191970" points="672.8445,-183.8999 662.3215,-185.1319 671.316,-190.731 672.8445,-183.8999"/>
</g>
<!-- Node5 -->
<g id="node5" class="node">
<title>Node5</title>
<g id="a_node5"><a xlink:title=" ">
<polygon fill="#ffffff" stroke="#bfbfbf" points="2067.5,-168.5 2067.5,-187.5 2114.5,-187.5 2114.5,-168.5 2067.5,-168.5"/>
<text text-anchor="middle" x="2091" y="-175.5" font-family="Arial.ttf" font-size="10.00" fill="#000000">chrono</text>
</a>
</g>
</g>
<!-- Node2&#45;&gt;Node5 -->
<g id="edge4" class="edge">
<title>Node2&#45;&gt;Node5</title>
<path fill="none" stroke="#191970" d="M1725.3791,-232.135C1783.603,-227.6982 1927.5524,-214.9693 2057.2265,-187.8386"/>
<polygon fill="#191970" stroke="#191970" points="2058.2779,-191.1933 2067.3305,-185.6888 2056.821,-184.3466 2058.2779,-191.1933"/>
</g>
<!-- Node6 -->
<g id="node6" class="node">
<title>Node6</title>
<g id="a_node6"><a xlink:title=" ">
<polygon fill="#ffffff" stroke="#bfbfbf" points="2132.5,-168.5 2132.5,-187.5 2181.5,-187.5 2181.5,-168.5 2132.5,-168.5"/>
<text text-anchor="middle" x="2157" y="-175.5" font-family="Arial.ttf" font-size="10.00" fill="#000000">cstdarg</text>
</a>
</g>
</g>
<!-- Node2&#45;&gt;Node6 -->
<g id="edge5" class="edge">
<title>Node2&#45;&gt;Node6</title>
<path fill="none" stroke="#191970" d="M1725.1318,-232.8675C1790.632,-229.6717 1967.1183,-218.8574 2122.0858,-188.0928"/>
<polygon fill="#191970" stroke="#191970" points="2123.1518,-191.4482 2132.2607,-186.0374 2121.7657,-184.5868 2123.1518,-191.4482"/>
</g>
<!-- Node7 -->
<g id="node7" class="node">
<title>Node7</title>
<g id="a_node7"><a xlink:title=" ">
<polygon fill="#ffffff" stroke="#bfbfbf" points="2200,-168.5 2200,-187.5 2240,-187.5 2240,-168.5 2200,-168.5"/>
<text text-anchor="middle" x="2220" y="-175.5" font-family="Arial.ttf" font-size="10.00" fill="#000000">ctime</text>
</a>
</g>
</g>
<!-- Node2&#45;&gt;Node7 -->
<g id="edge6" class="edge">
<title>Node2&#45;&gt;Node7</title>
<path fill="none" stroke="#191970" d="M1725.2611,-232.3752C1811.003,-226.9444 2082.9082,-208.6989 2190.0513,-187.6652"/>
<polygon fill="#191970" stroke="#191970" points="2190.8144,-191.0815 2199.8938,-185.6213 2189.3911,-184.2277 2190.8144,-191.0815"/>
</g>
<!-- Node8 -->
<g id="node8" class="node">
<title>Node8</title>
<g id="a_node8"><a xlink:title=" ">
<polygon fill="#ffffff" stroke="#bfbfbf" points="2258,-168.5 2258,-187.5 2308,-187.5 2308,-168.5 2258,-168.5"/>
<text text-anchor="middle" x="2283" y="-175.5" font-family="Arial.ttf" font-size="10.00" fill="#000000">fstream</text>
</a>
</g>
</g>
<!-- Node2&#45;&gt;Node8 -->
<g id="edge7" class="edge">
<title>Node2&#45;&gt;Node8</title>
<path fill="none" stroke="#191970" d="M1725.021,-233.688C1803.0576,-232.362 2041.9234,-225.4556 2247.7996,-187.8739"/>
<polygon fill="#191970" stroke="#191970" points="2248.6933,-191.2679 2257.8872,-186.0027 2247.4165,-184.3854 2248.6933,-191.2679"/>
</g>
<!-- Node9 -->
<g id="node9" class="node">
<title>Node9</title>
<g id="a_node9"><a xlink:title=" ">
<polygon fill="#ffffff" stroke="#bfbfbf" points="902.5,-.5 902.5,-19.5 961.5,-19.5 961.5,-.5 902.5,-.5"/>
<text text-anchor="middle" x="932" y="-7.5" font-family="Arial.ttf" font-size="10.00" fill="#000000">functional</text>
</a>
</g>
</g>
<!-- Node2&#45;&gt;Node9 -->
<g id="edge8" class="edge">
<title>Node2&#45;&gt;Node9</title>
<path fill="none" stroke="#191970" d="M1672.6843,-233.684C1526.259,-231.8003 817.3737,-220.9942 786,-188 731.586,-130.7754 848.1203,-55.8591 904.1508,-24.6422"/>
<polygon fill="#191970" stroke="#191970" points="906.1324,-27.5475 913.2228,-19.675 902.7706,-21.4076 906.1324,-27.5475"/>
</g>
<!-- Node10 -->
<g id="node10" class="node">
<title>Node10</title>
<g id="a_node10"><a xlink:title=" ">
<polygon fill="#ffffff" stroke="#bfbfbf" points="2402,-168.5 2402,-187.5 2454,-187.5 2454,-168.5 2402,-168.5"/>
<text text-anchor="middle" x="2428" y="-175.5" font-family="Arial.ttf" font-size="10.00" fill="#000000">iomanip</text>
</a>
</g>
</g>
<!-- Node2&#45;&gt;Node10 -->
<g id="edge9" class="edge">
<title>Node2&#45;&gt;Node10</title>
<path fill="none" stroke="#191970" d="M1725.2754,-232.8742C1834.9433,-228.0782 2256.5406,-208.6516 2388,-188 2389.2729,-187.8 2390.5645,-187.5788 2391.8659,-187.3401"/>
<polygon fill="#191970" stroke="#191970" points="2392.8189,-190.7165 2401.8872,-185.2377 2391.3816,-183.8656 2392.8189,-190.7165"/>
</g>
<!-- Node11 -->
<g id="node11" class="node">
<title>Node11</title>
<g id="a_node11"><a xlink:title=" ">
<polygon fill="#ffffff" stroke="#bfbfbf" points="2472.5,-168.5 2472.5,-187.5 2527.5,-187.5 2527.5,-168.5 2472.5,-168.5"/>
<text text-anchor="middle" x="2500" y="-175.5" font-family="Arial.ttf" font-size="10.00" fill="#000000">iostream</text>
</a>
</g>
</g>
<!-- Node2&#45;&gt;Node11 -->
<g id="edge10" class="edge">
<title>Node2&#45;&gt;Node11</title>
<path fill="none" stroke="#191970" d="M1725.3344,-233.1358C1840.0024,-229.2643 2297.0025,-212.6847 2462.262,-187.7289"/>
<polygon fill="#191970" stroke="#191970" points="2462.9215,-191.1682 2472.2528,-186.1505 2461.829,-184.254 2462.9215,-191.1682"/>
</g>
<!-- Node12 -->
<g id="node12" class="node">
<title>Node12</title>
<g id="a_node12"><a xlink:title=" ">
<polygon fill="#ffffff" stroke="#bfbfbf" points="2545.5,-168.5 2545.5,-187.5 2574.5,-187.5 2574.5,-168.5 2545.5,-168.5"/>
<text text-anchor="middle" x="2560" y="-175.5" font-family="Arial.ttf" font-size="10.00" fill="#000000">list</text>
</a>
</g>
</g>
<!-- Node2&#45;&gt;Node12 -->
<g id="edge11" class="edge">
<title>Node2&#45;&gt;Node12</title>
<path fill="none" stroke="#191970" d="M1725.0431,-233.8085C1846.3377,-232.7318 2357.1576,-226.1089 2535.1834,-187.6311"/>
<polygon fill="#191970" stroke="#191970" points="2536.1981,-190.9897 2545.1697,-185.3541 2534.6418,-184.1649 2536.1981,-190.9897"/>
</g>
<!-- Node13 -->
<g id="node13" class="node">
<title>Node13</title>
<g id="a_node13"><a xlink:title=" ">
<polygon fill="#ffffff" stroke="#bfbfbf" points="354,-168.5 354,-187.5 390,-187.5 390,-168.5 354,-168.5"/>
<text text-anchor="middle" x="372" y="-175.5" font-family="Arial.ttf" font-size="10.00" fill="#000000">map</text>
</a>
</g>
</g>
<!-- Node2&#45;&gt;Node13 -->
<g id="edge12" class="edge">
<title>Node2&#45;&gt;Node13</title>
<path fill="none" stroke="#191970" d="M1672.9698,-233.4643C1515.5739,-230.1626 689.3673,-211.9306 437,-188 424.8165,-186.8447 411.4403,-184.9038 400.0061,-183.0376"/>
<polygon fill="#191970" stroke="#191970" points="400.5847,-179.5858 390.1411,-181.3695 399.4176,-186.4879 400.5847,-179.5858"/>
</g>
<!-- Node14 -->
<g id="node14" class="node">
<title>Node14</title>
<g id="a_node14"><a xlink:title=" ">
<polygon fill="#ffffff" stroke="#bfbfbf" points="2593,-168.5 2593,-187.5 2637,-187.5 2637,-168.5 2593,-168.5"/>
<text text-anchor="middle" x="2615" y="-175.5" font-family="Arial.ttf" font-size="10.00" fill="#000000">queue</text>
</a>
</g>
</g>
<!-- Node2&#45;&gt;Node14 -->
<g id="edge13" class="edge">
<title>Node2&#45;&gt;Node14</title>
<path fill="none" stroke="#191970" d="M1725.1428,-233.5569C1850.6481,-231.2927 2392.739,-219.9211 2582.704,-187.7149"/>
<polygon fill="#191970" stroke="#191970" points="2583.5936,-191.1117 2592.827,-185.916 2582.3688,-184.2197 2583.5936,-191.1117"/>
</g>
<!-- Node15 -->
<g id="node15" class="node">
<title>Node15</title>
<g id="a_node15"><a xlink:title=" ">
<polygon fill="#ffffff" stroke="#bfbfbf" points="2655,-168.5 2655,-187.5 2705,-187.5 2705,-168.5 2655,-168.5"/>
<text text-anchor="middle" x="2680" y="-175.5" font-family="Arial.ttf" font-size="10.00" fill="#000000">random</text>
</a>
</g>
</g>
<!-- Node2&#45;&gt;Node15 -->
<g id="edge14" class="edge">
<title>Node2&#45;&gt;Node15</title>
<path fill="none" stroke="#191970" d="M1725.1711,-233.5682C1856.128,-231.2818 2441.6804,-219.5424 2644.9417,-187.7315"/>
<polygon fill="#191970" stroke="#191970" points="2645.6005,-191.1703 2654.905,-186.1032 2644.4714,-184.262 2645.6005,-191.1703"/>
</g>
<!-- Node16 -->
<g id="node16" class="node">
<title>Node16</title>
<g id="a_node16"><a xlink:title=" ">
<polygon fill="#ffffff" stroke="#bfbfbf" points="2723,-168.5 2723,-187.5 2775,-187.5 2775,-168.5 2723,-168.5"/>
<text text-anchor="middle" x="2749" y="-175.5" font-family="Arial.ttf" font-size="10.00" fill="#000000">sstream</text>
</a>
</g>
</g>
<!-- Node2&#45;&gt;Node16 -->
<g id="edge15" class="edge">
<title>Node2&#45;&gt;Node16</title>
<path fill="none" stroke="#191970" d="M1725.1901,-233.6388C1861.8789,-231.6303 2495.09,-220.7761 2712.7298,-187.7896"/>
<polygon fill="#191970" stroke="#191970" points="2713.4448,-191.2202 2722.7759,-186.2021 2712.3521,-184.306 2713.4448,-191.2202"/>
</g>
<!-- Node17 -->
<g id="node17" class="node">
<title>Node17</title>
<g id="a_node17"><a xlink:title=" ">
<polygon fill="#ffffff" stroke="#bfbfbf" points="2262.5,-.5 2262.5,-19.5 2303.5,-19.5 2303.5,-.5 2262.5,-.5"/>
<text text-anchor="middle" x="2283" y="-7.5" font-family="Arial.ttf" font-size="10.00" fill="#000000">string</text>
</a>
</g>
</g>
<!-- Node2&#45;&gt;Node17 -->
<g id="edge16" class="edge">
<title>Node2&#45;&gt;Node17</title>
<path fill="none" stroke="#191970" d="M1725.3633,-233.0292C1840.7614,-228.6549 2296.5501,-210.0286 2317,-188 2323.0476,-181.4855 2318.1311,-176.8166 2317,-168 2311.623,-126.0862 2301.5102,-117.3915 2293,-76 2289.859,-60.7231 2287.2569,-43.2687 2285.4951,-30.1481"/>
<polygon fill="#191970" stroke="#191970" points="2288.9232,-29.3662 2284.1707,-19.8971 2281.9809,-30.2632 2288.9232,-29.3662"/>
</g>
<!-- Node18 -->
<g id="node18" class="node">
<title>Node18</title>
<g id="a_node18"><a xlink:title=" ">
<polygon fill="#ffffff" stroke="#bfbfbf" points="2793.5,-168.5 2793.5,-187.5 2838.5,-187.5 2838.5,-168.5 2793.5,-168.5"/>
<text text-anchor="middle" x="2816" y="-175.5" font-family="Arial.ttf" font-size="10.00" fill="#000000">thread</text>
</a>
</g>
</g>
<!-- Node2&#45;&gt;Node18 -->
<g id="edge17" class="edge">
<title>Node2&#45;&gt;Node18</title>
<path fill="none" stroke="#191970" d="M1725.0906,-233.8141C1867.2948,-232.6639 2550.6635,-225.3408 2783.3777,-187.5501"/>
<polygon fill="#191970" stroke="#191970" points="2784.1788,-190.9644 2793.4544,-185.8444 2783.0105,-184.0626 2784.1788,-190.9644"/>
</g>
<!-- Node19 -->
<g id="node19" class="node">
<title>Node19</title>
<g id="a_node19"><a xlink:title=" ">
<polygon fill="#ffffff" stroke="#bfbfbf" points="2857,-168.5 2857,-187.5 2909,-187.5 2909,-168.5 2857,-168.5"/>
<text text-anchor="middle" x="2883" y="-175.5" font-family="Arial.ttf" font-size="10.00" fill="#000000">typeinfo</text>
</a>
</g>
</g>
<!-- Node2&#45;&gt;Node19 -->
<g id="edge18" class="edge">
<title>Node2&#45;&gt;Node19</title>
<path fill="none" stroke="#191970" d="M1725.1335,-233.7989C1872.4517,-232.5391 2601.0076,-224.607 2846.8368,-187.7661"/>
<polygon fill="#191970" stroke="#191970" points="2847.4363,-191.215 2856.7784,-186.2173 2846.3588,-184.2984 2847.4363,-191.215"/>
</g>
<!-- Node20 -->
<g id="node20" class="node">
<title>Node20</title>
<g id="a_node20"><a xlink:title=" ">
<polygon fill="#ffffff" stroke="#bfbfbf" points="540,-.5 540,-19.5 584,-19.5 584,-.5 540,-.5"/>
<text text-anchor="middle" x="562" y="-7.5" font-family="Arial.ttf" font-size="10.00" fill="#000000">vector</text>
</a>
</g>
</g>
<!-- Node2&#45;&gt;Node20 -->
<g id="edge19" class="edge">
<title>Node2&#45;&gt;Node20</title>
<path fill="none" stroke="#191970" d="M1672.5792,-233.7078C1530.018,-231.9959 855.8061,-222.1382 770,-188 682.5074,-153.1907 605.8609,-65.6523 575.6736,-27.8461"/>
<polygon fill="#191970" stroke="#191970" points="578.2564,-25.4681 569.3275,-19.7652 572.7511,-29.7916 578.2564,-25.4681"/>
</g>
<!-- Node21 -->
<g id="node21" class="node">
<title>Node21</title>
<g id="a_node21"><a xlink:title=" ">
<polygon fill="#ffffff" stroke="#bfbfbf" points="2338.5,-.5 2338.5,-19.5 2391.5,-19.5 2391.5,-.5 2338.5,-.5"/>
<text text-anchor="middle" x="2365" y="-7.5" font-family="Arial.ttf" font-size="10.00" fill="#000000">memory</text>
</a>
</g>
</g>
<!-- Node2&#45;&gt;Node21 -->
<g id="edge20" class="edge">
<title>Node2&#45;&gt;Node21</title>
<path fill="none" stroke="#191970" d="M1725.1123,-232.9775C1841.5627,-228.3069 2308.8134,-208.3526 2332,-188 2377.595,-147.9779 2373.1926,-67.108 2368.2683,-29.7459"/>
<polygon fill="#191970" stroke="#191970" points="2371.6996,-29.0233 2366.778,-19.641 2364.7745,-30.0447 2371.6996,-29.0233"/>
</g>
<!-- Node22 -->
<g id="node22" class="node">
<title>Node22</title>
<g id="a_node22"><a xlink:title=" ">
<polygon fill="#ffffff" stroke="#bfbfbf" points="794.5,-168.5 794.5,-187.5 843.5,-187.5 843.5,-168.5 794.5,-168.5"/>
<text text-anchor="middle" x="819" y="-175.5" font-family="Arial.ttf" font-size="10.00" fill="#000000">cassert</text>
</a>
</g>
</g>
<!-- Node2&#45;&gt;Node22 -->
<g id="edge21" class="edge">
<title>Node2&#45;&gt;Node22</title>
<path fill="none" stroke="#191970" d="M1672.7961,-233.3929C1550.6784,-230.4408 1036.0492,-216.6152 853.7065,-187.6514"/>
<polygon fill="#191970" stroke="#191970" points="854.1645,-184.1796 843.7259,-185.9925 853.0166,-191.0849 854.1645,-184.1796"/>
</g>
<!-- Node23 -->
<g id="node23" class="node">
<title>Node23</title>
<g id="a_node23"><a xlink:title=" ">
<polygon fill="#ffffff" stroke="#bfbfbf" points="2668,-.5 2668,-19.5 2708,-19.5 2708,-.5 2668,-.5"/>
<text text-anchor="middle" x="2688" y="-7.5" font-family="Arial.ttf" font-size="10.00" fill="#000000">cfloat</text>
</a>
</g>
</g>
<!-- Node2&#45;&gt;Node23 -->
<g id="edge22" class="edge">
<title>Node2&#45;&gt;Node23</title>
<path fill="none" stroke="#191970" d="M1725.0974,-233.5124C1900.0924,-230.1828 2896.5615,-210.2628 2918,-188 2990.5678,-112.6422 2795.0018,-42.6656 2717.8008,-18.7243"/>
<polygon fill="#191970" stroke="#191970" points="2718.7392,-15.3514 2708.1531,-15.7816 2716.6969,-22.0468 2718.7392,-15.3514"/>
</g>
<!-- Node24 -->
<g id="node24" class="node">
<title>Node24</title>
<g id="a_node24"><a xlink:title=" ">
<polygon fill="#ffffff" stroke="#bfbfbf" points="862,-168.5 862,-187.5 906,-187.5 906,-168.5 862,-168.5"/>
<text text-anchor="middle" x="884" y="-175.5" font-family="Arial.ttf" font-size="10.00" fill="#000000">climits</text>
</a>
</g>
</g>
<!-- Node2&#45;&gt;Node24 -->
<g id="edge23" class="edge">
<title>Node2&#45;&gt;Node24</title>
<path fill="none" stroke="#191970" d="M1672.747,-233.3527C1556.242,-230.3463 1084.6743,-216.7306 916.1213,-187.6963"/>
<polygon fill="#191970" stroke="#191970" points="916.6397,-184.2334 906.1764,-185.8976 915.3938,-191.1216 916.6397,-184.2334"/>
</g>
<!-- Node25 -->
<g id="node25" class="node">
<title>Node25</title>
<g id="a_node25"><a xlink:title=" ">
<polygon fill="#ffffff" stroke="#bfbfbf" points="924,-168.5 924,-187.5 968,-187.5 968,-168.5 924,-168.5"/>
<text text-anchor="middle" x="946" y="-175.5" font-family="Arial.ttf" font-size="10.00" fill="#000000">cmath</text>
</a>
</g>
</g>
<!-- Node2&#45;&gt;Node25 -->
<g id="edge24" class="edge">
<title>Node2&#45;&gt;Node25</title>
<path fill="none" stroke="#191970" d="M1672.6221,-233.1622C1559.5521,-229.4412 1115.3553,-213.463 978,-188 977.8998,-187.9814 977.7996,-187.9627 977.6992,-187.9437"/>
<polygon fill="#191970" stroke="#191970" points="978.7464,-184.5952 968.2079,-185.6859 977.1264,-191.4052 978.7464,-184.5952"/>
</g>
<!-- Node26 -->
<g id="node26" class="node">
<title>Node26</title>
<g id="a_node26"><a xlink:title=" ">
<polygon fill="#ffffff" stroke="#bfbfbf" points="986.5,-168.5 986.5,-187.5 1029.5,-187.5 1029.5,-168.5 986.5,-168.5"/>
<text text-anchor="middle" x="1008" y="-175.5" font-family="Arial.ttf" font-size="10.00" fill="#000000">cstdio</text>
</a>
</g>
</g>
<!-- Node2&#45;&gt;Node26 -->
<g id="edge25" class="edge">
<title>Node2&#45;&gt;Node26</title>
<path fill="none" stroke="#191970" d="M1672.7146,-233.0195C1568.3562,-228.9983 1182.445,-212.8796 1039.3793,-187.5162"/>
<polygon fill="#191970" stroke="#191970" points="1039.9777,-184.0675 1029.5054,-185.6741 1038.6939,-190.9488 1039.9777,-184.0675"/>
</g>
<!-- Node27 -->
<g id="node27" class="node">
<title>Node27</title>
<g id="a_node27"><a xlink:title=" ">
<polygon fill="#ffffff" stroke="#bfbfbf" points="1047.5,-168.5 1047.5,-187.5 1092.5,-187.5 1092.5,-168.5 1047.5,-168.5"/>
<text text-anchor="middle" x="1070" y="-175.5" font-family="Arial.ttf" font-size="10.00" fill="#000000">cstdlib</text>
</a>
</g>
</g>
<!-- Node2&#45;&gt;Node27 -->
<g id="edge26" class="edge">
<title>Node2&#45;&gt;Node27</title>
<path fill="none" stroke="#191970" d="M1672.885,-232.7746C1575.4838,-228.0856 1232.7793,-210.4967 1102.6586,-187.6152"/>
<polygon fill="#191970" stroke="#191970" points="1103.0342,-184.1253 1092.5639,-185.7447 1101.7588,-191.0082 1103.0342,-184.1253"/>
</g>
<!-- Node28 -->
<g id="node28" class="node">
<title>Node28</title>
<g id="a_node28"><a xlink:title=" ">
<polygon fill="#ffffff" stroke="#bfbfbf" points="1111,-168.5 1111,-187.5 1157,-187.5 1157,-168.5 1111,-168.5"/>
<text text-anchor="middle" x="1134" y="-175.5" font-family="Arial.ttf" font-size="10.00" fill="#000000">cstring</text>
</a>
</g>
</g>
<!-- Node2&#45;&gt;Node28 -->
<g id="edge27" class="edge">
<title>Node2&#45;&gt;Node28</title>
<path fill="none" stroke="#191970" d="M1672.9299,-233.7423C1596.4138,-232.5687 1365.8791,-226.0514 1167.297,-187.8728"/>
<polygon fill="#191970" stroke="#191970" points="1167.7537,-184.3959 1157.268,-185.912 1166.4106,-191.2658 1167.7537,-184.3959"/>
</g>
<!-- Node29 -->
<g id="node29" class="node">
<title>Node29</title>
<g id="a_node29"><a xlink:href="_s_l_8h.html" target="_top" xlink:title=" ">
<polygon fill="#ffffff" stroke="#000000" points="429.5,-112.5 429.5,-131.5 466.5,-131.5 466.5,-112.5 429.5,-112.5"/>
<text text-anchor="middle" x="448" y="-119.5" font-family="Arial.ttf" font-size="10.00" fill="#000000">SL.h</text>
</a>
</g>
</g>
<!-- Node2&#45;&gt;Node29 -->
<g id="edge28" class="edge">
<title>Node2&#45;&gt;Node29</title>
<path fill="none" stroke="#191970" d="M1672.5871,-233.377C1525.3763,-229.8231 809.3833,-211.444 714,-188 693.532,-182.9692 691.0112,-174.6179 671,-168 603.0128,-145.5158 519.5835,-131.8189 476.6082,-125.7315"/>
<polygon fill="#191970" stroke="#191970" points="476.9728,-122.2487 466.5879,-124.3471 476.0148,-129.1828 476.9728,-122.2487"/>
</g>
<!-- Node33 -->
<g id="node31" class="node">
<title>Node33</title>
<g id="a_node31"><a xlink:href="_s_l_enums_8h.html" target="_top" xlink:title=" ">
<polygon fill="#ffffff" stroke="#000000" points="530,-168.5 530,-187.5 598,-187.5 598,-168.5 530,-168.5"/>
<text text-anchor="middle" x="564" y="-175.5" font-family="Arial.ttf" font-size="10.00" fill="#000000">SLEnums.h</text>
</a>
</g>
</g>
<!-- Node2&#45;&gt;Node33 -->
<g id="edge35" class="edge">
<title>Node2&#45;&gt;Node33</title>
<path fill="none" stroke="#191970" d="M1672.7817,-233.5592C1529.8759,-231.0574 843.0559,-217.7365 608.3263,-187.8918"/>
<polygon fill="#191970" stroke="#191970" points="608.5328,-184.3887 598.1607,-186.5498 607.6166,-191.3285 608.5328,-184.3887"/>
</g>
<!-- Node34 -->
<g id="node32" class="node">
<title>Node34</title>
<g id="a_node32"><a xlink:href="_s_l_object_8h.html" target="_top" xlink:title=" ">
<polygon fill="#ffffff" stroke="#000000" points="446,-168.5 446,-187.5 512,-187.5 512,-168.5 446,-168.5"/>
<text text-anchor="middle" x="479" y="-175.5" font-family="Arial.ttf" font-size="10.00" fill="#000000">SLObject.h</text>
</a>
</g>
</g>
<!-- Node2&#45;&gt;Node34 -->
<g id="edge36" class="edge">
<title>Node2&#45;&gt;Node34</title>
<path fill="none" stroke="#191970" d="M1672.7278,-233.6698C1522.9749,-231.6839 775.281,-220.3526 522.5798,-187.9227"/>
<polygon fill="#191970" stroke="#191970" points="522.7341,-184.4124 512.3596,-186.5619 521.8102,-191.3512 522.7341,-184.4124"/>
</g>
<!-- Node35 -->
<g id="node33" class="node">
<title>Node35</title>
<g id="a_node33"><a xlink:title=" ">
<polygon fill="#ffffff" stroke="#bfbfbf" points="1175,-168.5 1175,-187.5 1293,-187.5 1293,-168.5 1175,-168.5"/>
<text text-anchor="middle" x="1234" y="-175.5" font-family="Arial.ttf" font-size="10.00" fill="#000000">opencv2/core/core.hpp</text>
</a>
</g>
</g>
<!-- Node2&#45;&gt;Node35 -->
<g id="edge38" class="edge">
<title>Node2&#45;&gt;Node35</title>
<path fill="none" stroke="#191970" d="M1672.9542,-231.2616C1610.8834,-224.676 1449.1356,-207.165 1303.346,-188.1466"/>
<polygon fill="#191970" stroke="#191970" points="1303.6932,-184.6622 1293.3232,-186.8333 1302.7837,-191.6029 1303.6932,-184.6622"/>
</g>
<!-- Node36 -->
<g id="node34" class="node">
<title>Node36</title>
<g id="a_node34"><a xlink:title=" ">
<polygon fill="#ffffff" stroke="#bfbfbf" points="1311,-168.5 1311,-187.5 1433,-187.5 1433,-168.5 1311,-168.5"/>
<text text-anchor="middle" x="1372" y="-175.5" font-family="Arial.ttf" font-size="10.00" fill="#000000">opencv2/core/utility.hpp</text>
</a>
</g>
</g>
<!-- Node2&#45;&gt;Node36 -->
<g id="edge39" class="edge">
<title>Node2&#45;&gt;Node36</title>
<path fill="none" stroke="#191970" d="M1672.793,-229.5119C1622.2041,-220.8484 1509.7286,-201.5865 1437.5632,-189.2279"/>
<polygon fill="#191970" stroke="#191970" points="1438.1058,-185.77 1427.6585,-187.5317 1436.9242,-192.6696 1438.1058,-185.77"/>
</g>
<!-- Node37 -->
<g id="node35" class="node">
<title>Node37</title>
<g id="a_node35"><a xlink:title=" ">
<polygon fill="#ffffff" stroke="#bfbfbf" points="1451.5,-168.5 1451.5,-187.5 1560.5,-187.5 1560.5,-168.5 1451.5,-168.5"/>
<text text-anchor="middle" x="1506" y="-175.5" font-family="Arial.ttf" font-size="10.00" fill="#000000">opencv2/highgui.hpp</text>
</a>
</g>
</g>
<!-- Node2&#45;&gt;Node37 -->
<g id="edge40" class="edge">
<title>Node2&#45;&gt;Node37</title>
<path fill="none" stroke="#191970" d="M1672.9712,-226.4476C1641.1409,-217.2119 1586.8189,-201.45 1548.8048,-190.4201"/>
<polygon fill="#191970" stroke="#191970" points="1549.6114,-187.0098 1539.0322,-187.5845 1547.6608,-193.7325 1549.6114,-187.0098"/>
</g>
<!-- Node38 -->
<g id="node36" class="node">
<title>Node38</title>
<g id="a_node36"><a xlink:title=" ">
<polygon fill="#ffffff" stroke="#bfbfbf" points="1579,-168.5 1579,-187.5 1691,-187.5 1691,-168.5 1579,-168.5"/>
<text text-anchor="middle" x="1635" y="-175.5" font-family="Arial.ttf" font-size="10.00" fill="#000000">opencv2/imgproc.hpp</text>
</a>
</g>
</g>
<!-- Node2&#45;&gt;Node38 -->
<g id="edge41" class="edge">
<title>Node2&#45;&gt;Node38</title>
<path fill="none" stroke="#191970" d="M1687.8521,-224.2455C1678.4913,-216.0549 1664.9142,-204.1749 1653.8651,-194.5069"/>
<polygon fill="#191970" stroke="#191970" points="1655.8508,-191.5937 1646.0202,-187.6427 1651.2412,-196.8618 1655.8508,-191.5937"/>
</g>
<!-- Node39 -->
<g id="node37" class="node">
<title>Node39</title>
<g id="a_node37"><a xlink:title=" ">
<polygon fill="#ffffff" stroke="#bfbfbf" points="1709,-168.5 1709,-187.5 1817,-187.5 1817,-168.5 1709,-168.5"/>
<text text-anchor="middle" x="1763" y="-175.5" font-family="Arial.ttf" font-size="10.00" fill="#000000">opencv2/calib3d.hpp</text>
</a>
</g>
</g>
<!-- Node2&#45;&gt;Node39 -->
<g id="edge42" class="edge">
<title>Node2&#45;&gt;Node39</title>
<path fill="none" stroke="#191970" d="M1710.1479,-224.2455C1719.5087,-216.0549 1733.0858,-204.1749 1744.1349,-194.5069"/>
<polygon fill="#191970" stroke="#191970" points="1746.7588,-196.8618 1751.9798,-187.6427 1742.1492,-191.5937 1746.7588,-196.8618"/>
</g>
<!-- Node40 -->
<g id="node38" class="node">
<title>Node40</title>
<g id="a_node38"><a xlink:title=" ">
<polygon fill="#ffffff" stroke="#bfbfbf" points="1835,-168.5 1835,-187.5 1973,-187.5 1973,-168.5 1835,-168.5"/>
<text text-anchor="middle" x="1904" y="-175.5" font-family="Arial.ttf" font-size="10.00" fill="#000000">opencv2/video/tracking.hpp</text>
</a>
</g>
</g>
<!-- Node2&#45;&gt;Node40 -->
<g id="edge43" class="edge">
<title>Node2&#45;&gt;Node40</title>
<path fill="none" stroke="#191970" d="M1725.3805,-226.7936C1759.2473,-217.5422 1818.513,-201.3526 1859.4347,-190.1739"/>
<polygon fill="#191970" stroke="#191970" points="1860.4341,-193.5292 1869.1583,-187.5177 1858.5895,-186.7767 1860.4341,-193.5292"/>
</g>
<!-- Node29&#45;&gt;Node30 -->
<g id="edge29" class="edge">
<title>Node29&#45;&gt;Node30</title>
<path fill="none" stroke="#191970" d="M466.5674,-121.4457C645.248,-116.112 2058.3784,-73.929 2291.4929,-66.9704"/>
<polygon fill="#191970" stroke="#191970" points="2291.8009,-70.4628 2301.692,-66.6659 2291.592,-63.4659 2291.8009,-70.4628"/>
</g>
<!-- Node30&#45;&gt;Node9 -->
<g id="edge34" class="edge">
<title>Node30&#45;&gt;Node9</title>
<path fill="none" stroke="#191970" d="M2301.8539,-65.1091C2143.2365,-58.7279 1180.279,-19.9882 971.7893,-11.6007"/>
<polygon fill="#191970" stroke="#191970" points="971.7394,-8.096 961.6067,-11.1911 971.4579,-15.0903 971.7394,-8.096"/>
</g>
<!-- Node30&#45;&gt;Node17 -->
<g id="edge30" class="edge">
<title>Node30&#45;&gt;Node17</title>
<path fill="none" stroke="#191970" d="M2316.8583,-56.2455C2311.1556,-48.4564 2303.01,-37.3308 2296.1375,-27.9439"/>
<polygon fill="#191970" stroke="#191970" points="2298.7913,-25.6437 2290.0598,-19.6427 2293.1432,-29.7789 2298.7913,-25.6437"/>
</g>
<!-- Node30&#45;&gt;Node20 -->
<g id="edge31" class="edge">
<title>Node30&#45;&gt;Node20</title>
<path fill="none" stroke="#191970" d="M2301.7218,-65.292C2115.2494,-59.3655 815.6552,-18.0617 594.0863,-11.0198"/>
<polygon fill="#191970" stroke="#191970" points="594.1835,-7.5212 584.0774,-10.7017 593.9611,-14.5177 594.1835,-7.5212"/>
</g>
<!-- Node30&#45;&gt;Node21 -->
<g id="edge33" class="edge">
<title>Node30&#45;&gt;Node21</title>
<path fill="none" stroke="#191970" d="M2331.1417,-56.2455C2336.8444,-48.4564 2344.99,-37.3308 2351.8625,-27.9439"/>
<polygon fill="#191970" stroke="#191970" points="2354.8568,-29.7789 2357.9402,-19.6427 2349.2087,-25.6437 2354.8568,-29.7789"/>
</g>
<!-- Node30&#45;&gt;Node23 -->
<g id="edge32" class="edge">
<title>Node30&#45;&gt;Node23</title>
<path fill="none" stroke="#191970" d="M2346.2219,-62.5812C2408.7664,-52.959 2586.3778,-25.6342 2657.7542,-14.6532"/>
<polygon fill="#191970" stroke="#191970" points="2658.5252,-18.0759 2667.8766,-13.0959 2657.4607,-11.1573 2658.5252,-18.0759"/>
</g>
<!-- Node34&#45;&gt;Node29 -->
<g id="edge37" class="edge">
<title>Node34&#45;&gt;Node29</title>
<path fill="none" stroke="#191970" d="M473.6002,-168.2455C469.3773,-160.617 463.3827,-149.7881 458.2559,-140.5267"/>
<polygon fill="#191970" stroke="#191970" points="461.2432,-138.6965 453.3379,-131.6427 455.119,-142.0867 461.2432,-138.6965"/>
</g>
<!-- Node41&#45;&gt;Node13 -->
<g id="edge48" class="edge">
<title>Node41&#45;&gt;Node13</title>
<path fill="none" stroke="#191970" d="M396.698,-280.4509C392.2744,-262.1013 382.5085,-221.5908 376.6694,-197.3693"/>
<polygon fill="#191970" stroke="#191970" points="380.0424,-196.4261 374.2962,-187.5249 373.2373,-198.0667 380.0424,-196.4261"/>
</g>
<!-- Node41&#45;&gt;Node20 -->
<g id="edge47" class="edge">
<title>Node41&#45;&gt;Node20</title>
<path fill="none" stroke="#191970" d="M366.3105,-288.9878C299.7684,-286.2631 151.7611,-276.6039 115,-244 92.1632,-223.7458 96,-208.5246 96,-178 96,-178 96,-178 96,-122 96,-32.6067 424.2918,-14.3731 529.7796,-10.8216"/>
<polygon fill="#191970" stroke="#191970" points="529.9523,-14.318 539.8373,-10.5054 529.7323,-7.3215 529.9523,-14.318"/>
</g>
<!-- Node41&#45;&gt;Node29 -->
<g id="edge45" class="edge">
<title>Node41&#45;&gt;Node29</title>
<path fill="none" stroke="#191970" d="M401.7748,-280.4862C409.5541,-253.8144 431.6924,-177.9117 442.2556,-141.695"/>
<polygon fill="#191970" stroke="#191970" points="445.6935,-142.4079 445.1335,-131.8279 438.9735,-140.4479 445.6935,-142.4079"/>
</g>
<!-- Node41&#45;&gt;Node42 -->
<g id="edge46" class="edge">
<title>Node41&#45;&gt;Node42</title>
<path fill="none" stroke="#191970" d="M431.8253,-285.6936C478.7566,-279.1826 567.8111,-265.516 652.6781,-243.7424"/>
<polygon fill="#191970" stroke="#191970" points="653.676,-247.0993 662.469,-241.1888 651.9094,-240.3259 653.676,-247.0993"/>
</g>
<!-- Node43 -->
<g id="node41" class="node">
<title>Node43</title>
<g id="a_node41"><a xlink:href="_s_l_anim_manager_8h.html" target="_top" xlink:title=" ">
<polygon fill="#ffffff" stroke="#ff0000" points="446.5,-224.5 446.5,-243.5 545.5,-243.5 545.5,-224.5 446.5,-224.5"/>
<text text-anchor="middle" x="496" y="-231.5" font-family="Arial.ttf" font-size="10.00" fill="#000000">SLAnimManager.h</text>
</a>
</g>
</g>
<!-- Node41&#45;&gt;Node43 -->
<g id="edge49" class="edge">
<title>Node41&#45;&gt;Node43</title>
<path fill="none" stroke="#191970" d="M415.8961,-280.2455C430.918,-271.5731 453.1043,-258.7645 470.321,-248.825"/>
<polygon fill="#191970" stroke="#191970" points="472.3871,-251.6737 479.2975,-243.6427 468.8872,-245.6114 472.3871,-251.6737"/>
</g>
<!-- Node67 -->
<g id="node42" class="node">
<title>Node67</title>
<g id="a_node42"><a xlink:href="_averaged_8h.html" target="_top" xlink:title=" ">
<polygon fill="#ffffff" stroke="#ff0000" points="0,-56.5 0,-75.5 68,-75.5 68,-56.5 0,-56.5"/>
<text text-anchor="middle" x="34" y="-63.5" font-family="Arial.ttf" font-size="10.00" fill="#000000">Averaged.h</text>
</a>
</g>
</g>
<!-- Node41&#45;&gt;Node67 -->
<g id="edge51" class="edge">
<title>Node41&#45;&gt;Node67</title>
<path fill="none" stroke="#191970" d="M366.2956,-287.2855C289.6103,-280.6365 103.0846,-262.7082 82,-244 35.7864,-202.9949 31.9747,-122.6243 32.8956,-85.5675"/>
<polygon fill="#191970" stroke="#191970" points="36.3938,-85.6797 33.2916,-75.5492 29.3993,-85.4031 36.3938,-85.6797"/>
</g>
<!-- Node69 -->
<g id="node43" class="node">
<title>Node69</title>
<g id="a_node43"><a xlink:href="_s_l_g_l_oculus_8h.html" target="_top" xlink:title=" ">
<polygon fill="#ffffff" stroke="#ff0000" points="270,-224.5 270,-243.5 352,-243.5 352,-224.5 270,-224.5"/>
<text text-anchor="middle" x="311" y="-231.5" font-family="Arial.ttf" font-size="10.00" fill="#000000">SLGLOculus.h</text>
</a>
</g>
</g>
<!-- Node41&#45;&gt;Node69 -->
<g id="edge53" class="edge">
<title>Node41&#45;&gt;Node69</title>
<path fill="none" stroke="#191970" d="M383.6716,-280.2455C370.1697,-271.6534 350.2878,-259.0014 334.7314,-249.1018"/>
<polygon fill="#191970" stroke="#191970" points="336.4685,-246.0587 326.1528,-243.6427 332.7103,-251.9643 336.4685,-246.0587"/>
</g>
<!-- Node78 -->
<g id="node44" class="node">
<title>Node78</title>
<g id="a_node44"><a xlink:href="_s_l_light_8h.html" target="_top" xlink:title=" ">
<polygon fill="#ffffff" stroke="#ff0000" points="265.5,-168.5 265.5,-187.5 324.5,-187.5 324.5,-168.5 265.5,-168.5"/>
<text text-anchor="middle" x="295" y="-175.5" font-family="Arial.ttf" font-size="10.00" fill="#000000">SLLight.h</text>
</a>
</g>
</g>
<!-- Node41&#45;&gt;Node78 -->
<g id="edge54" class="edge">
<title>Node41&#45;&gt;Node78</title>
<path fill="none" stroke="#191970" d="M366.3418,-283.6711C329.6222,-275.8137 273.4776,-261.3118 261,-244 249.9118,-228.616 262.7984,-209.1156 275.765,-195.3113"/>
<polygon fill="#191970" stroke="#191970" points="278.5884,-197.4409 283.2282,-187.916 273.6613,-192.4686 278.5884,-197.4409"/>
</g>
<!-- Node54 -->
<g id="node46" class="node">
<title>Node54</title>
<g id="a_node46"><a xlink:href="_s_l_mesh_8h.html" target="_top" xlink:title=" ">
<polygon fill="#ffffff" stroke="#ff0000" points="582,-224.5 582,-243.5 644,-243.5 644,-224.5 582,-224.5"/>
<text text-anchor="middle" x="613" y="-231.5" font-family="Arial.ttf" font-size="10.00" fill="#000000">SLMesh.h</text>
</a>
</g>
</g>
<!-- Node41&#45;&gt;Node54 -->
<g id="edge57" class="edge">
<title>Node41&#45;&gt;Node54</title>
<path fill="none" stroke="#191970" d="M431.502,-281.4948C469.1209,-271.6506 531.1296,-255.424 572.021,-244.7235"/>
<polygon fill="#191970" stroke="#191970" points="573.1462,-248.047 581.9344,-242.1293 571.3741,-241.275 573.1462,-248.047"/>
</g>
<!-- Node43&#45;&gt;Node43 -->
<g id="edge50" class="edge">
<title>Node43&#45;&gt;Node43</title>
<path fill="none" stroke="#191970" d="M524.7889,-243.5252C544.3501,-246.3079 563.5,-243.1328 563.5,-234 563.5,-226.5082 550.6138,-223.0255 535.1851,-223.5518"/>
<polygon fill="#191970" stroke="#191970" points="534.4402,-220.1041 524.7889,-224.4748 535.0592,-227.0767 534.4402,-220.1041"/>
</g>
<!-- Node67&#45;&gt;Node20 -->
<g id="edge52" class="edge">
<title>Node67&#45;&gt;Node20</title>
<path fill="none" stroke="#191970" d="M68.005,-58.4342C72.6922,-57.5323 77.4553,-56.689 82,-56 249.5883,-30.5912 452.3466,-16.5995 529.8046,-11.8595"/>
<polygon fill="#191970" stroke="#191970" points="530.1147,-15.3472 539.886,-11.2518 529.6935,-8.3599 530.1147,-15.3472"/>
</g>
<!-- Node78&#45;&gt;Node29 -->
<g id="edge55" class="edge">
<title>Node78&#45;&gt;Node29</title>
<path fill="none" stroke="#191970" d="M321.3016,-168.3733C348.6956,-158.3467 391.4653,-142.6924 419.6109,-132.3908"/>
<polygon fill="#191970" stroke="#191970" points="421.0754,-135.5819 429.2631,-128.8579 418.6694,-129.0084 421.0754,-135.5819"/>
</g>
<!-- Node60 -->
<g id="node45" class="node">
<title>Node60</title>
<g id="a_node45"><a xlink:title=" ">
<polygon fill="#ffffff" stroke="#bfbfbf" points="180,-112.5 180,-131.5 240,-131.5 240,-112.5 180,-112.5"/>
<text text-anchor="middle" x="210" y="-119.5" font-family="Arial.ttf" font-size="10.00" fill="#000000">SLVec4.h</text>
</a>
</g>
</g>
<!-- Node78&#45;&gt;Node60 -->
<g id="edge56" class="edge">
<title>Node78&#45;&gt;Node60</title>
<path fill="none" stroke="#191970" d="M280.1941,-168.2455C267.2744,-159.7337 248.3069,-147.2375 233.3448,-137.3801"/>
<polygon fill="#191970" stroke="#191970" points="234.9124,-134.2216 224.6362,-131.6427 231.0613,-140.067 234.9124,-134.2216"/>
</g>
<!-- Node54&#45;&gt;Node33 -->
<g id="edge58" class="edge">
<title>Node54&#45;&gt;Node33</title>
<path fill="none" stroke="#191970" d="M604.4649,-224.2455C597.5088,-216.2958 587.5117,-204.8706 579.1949,-195.3656"/>
<polygon fill="#191970" stroke="#191970" points="581.6564,-192.8637 572.4373,-187.6427 576.3884,-197.4732 581.6564,-192.8637"/>
</g>
<!-- Node54&#45;&gt;Node34 -->
<g id="edge59" class="edge">
<title>Node54&#45;&gt;Node34</title>
<path fill="none" stroke="#191970" d="M589.9646,-224.3733C568.2612,-215.3032 535.5382,-201.6279 511.245,-191.4755"/>
<polygon fill="#191970" stroke="#191970" points="512.3111,-188.1278 501.7348,-187.5011 509.6119,-194.5865 512.3111,-188.1278"/>
</g>
<!-- Node83 -->
<g id="node48" class="node">
<title>Node83</title>
<g id="a_node48"><a xlink:href="_s_l_g_l_texture_8h.html" target="_top" xlink:title=" ">
<polygon fill="#ffffff" stroke="#ff0000" points="720,-224.5 720,-243.5 804,-243.5 804,-224.5 720,-224.5"/>
<text text-anchor="middle" x="762" y="-231.5" font-family="Arial.ttf" font-size="10.00" fill="#000000">SLGLTexture.h</text>
</a>
</g>
</g>
<!-- Node94&#45;&gt;Node83 -->
<g id="edge61" class="edge">
<title>Node94&#45;&gt;Node83</title>
<path fill="none" stroke="#191970" d="M756.2193,-280.2455C757.1327,-272.9382 758.4132,-262.6944 759.5369,-253.7046"/>
<polygon fill="#191970" stroke="#191970" points="763.0272,-253.9996 760.7947,-243.6427 756.0813,-253.1313 763.0272,-253.9996"/>
</g>
<!-- Node83&#45;&gt;Node4 -->
<g id="edge63" class="edge">
<title>Node83&#45;&gt;Node4</title>
<path fill="none" stroke="#191970" d="M740.8555,-224.3733C721.1108,-215.3838 691.4302,-201.8706 669.1945,-191.7471"/>
<polygon fill="#191970" stroke="#191970" points="670.42,-188.4594 659.8685,-187.5011 667.5194,-194.8302 670.42,-188.4594"/>
</g>
<!-- Node83&#45;&gt;Node34 -->
<g id="edge62" class="edge">
<title>Node83&#45;&gt;Node34</title>
<path fill="none" stroke="#191970" d="M719.9976,-225.916C716.6152,-225.267 713.2506,-224.6221 710,-224 629.1308,-208.5223 606.2886,-206.0767 522.4156,-188.2393"/>
<polygon fill="#191970" stroke="#191970" points="522.9502,-184.7746 512.4395,-186.1068 521.4869,-191.6199 522.9502,-184.7746"/>
</g>
<!-- Node76&#45;&gt;Node13 -->
<g id="edge65" class="edge">
<title>Node76&#45;&gt;Node13</title>
<path fill="none" stroke="#191970" d="M203.8969,-224.3733C243.5165,-213.4437 307.3764,-195.8272 343.9216,-185.7458"/>
<polygon fill="#191970" stroke="#191970" points="345.1867,-189.0276 353.8959,-182.9942 343.3252,-182.2796 345.1867,-189.0276"/>
</g>
<!-- Node76&#45;&gt;Node34 -->
<g id="edge70" class="edge">
<title>Node76&#45;&gt;Node34</title>
<path fill="none" stroke="#191970" d="M213.7456,-225.9169C273.0615,-215.2018 377.0412,-196.4184 435.6478,-185.8314"/>
<polygon fill="#191970" stroke="#191970" points="436.4756,-189.2386 445.6941,-184.0165 435.2312,-182.3501 436.4756,-189.2386"/>
</g>
<!-- Node76&#45;&gt;Node78 -->
<g id="edge71" class="edge">
<title>Node76&#45;&gt;Node78</title>
<path fill="none" stroke="#191970" d="M190.6602,-224.3733C210.9772,-215.3435 241.564,-201.7494 264.375,-191.6111"/>
<polygon fill="#191970" stroke="#191970" points="265.9059,-194.7609 273.6225,-187.5011 263.0628,-188.3642 265.9059,-194.7609"/>
</g>
<!-- Node76&#45;&gt;Node60 -->
<g id="edge69" class="edge">
<title>Node76&#45;&gt;Node60</title>
<path fill="none" stroke="#191970" d="M165.5729,-224.1665C161.5261,-210.8734 156.2604,-186.685 164,-168 168.8312,-156.3363 178.2137,-146.0881 187.2518,-138.243"/>
<polygon fill="#191970" stroke="#191970" points="189.7266,-140.7436 195.3148,-131.7423 185.333,-135.2942 189.7266,-140.7436"/>
</g>
<!-- Node59 -->
<g id="node50" class="node">
<title>Node59</title>
<g id="a_node50"><a xlink:href="_s_l_g_l_state_8h.html" target="_top" xlink:title=" ">
<polygon fill="#ffffff" stroke="#ff0000" points="173,-168.5 173,-187.5 247,-187.5 247,-168.5 173,-168.5"/>
<text text-anchor="middle" x="210" y="-175.5" font-family="Arial.ttf" font-size="10.00" fill="#000000">SLGLState.h</text>
</a>
</g>
</g>
<!-- Node76&#45;&gt;Node59 -->
<g id="edge66" class="edge">
<title>Node76&#45;&gt;Node59</title>
<path fill="none" stroke="#191970" d="M176.1417,-224.2455C181.8444,-216.4564 189.99,-205.3308 196.8625,-195.9439"/>
<polygon fill="#191970" stroke="#191970" points="199.8568,-197.7789 202.9402,-187.6427 194.2087,-193.6437 199.8568,-197.7789"/>
</g>
<!-- Node59&#45;&gt;Node29 -->
<g id="edge67" class="edge">
<title>Node59&#45;&gt;Node29</title>
<path fill="none" stroke="#191970" d="M247.1875,-169.25C294.8951,-158.0247 376.6049,-138.7989 419.6149,-128.6789"/>
<polygon fill="#191970" stroke="#191970" points="420.4912,-132.0683 429.4237,-126.3709 418.8878,-125.2544 420.4912,-132.0683"/>
</g>
<!-- Node59&#45;&gt;Node60 -->
<g id="edge68" class="edge">
<title>Node59&#45;&gt;Node60</title>
<path fill="none" stroke="#191970" d="M210,-168.2455C210,-160.9382 210,-150.6944 210,-141.7046"/>
<polygon fill="#191970" stroke="#191970" points="213.5001,-141.6426 210,-131.6427 206.5001,-141.6427 213.5001,-141.6426"/>
</g>
</g>
</svg>
