<?xml version="1.0" encoding="UTF-8" standalone="no"?>
<!DOCTYPE svg PUBLIC "-//W3C//DTD SVG 1.1//EN"
 "http://www.w3.org/Graphics/SVG/1.1/DTD/svg11.dtd">
<!-- Generated by graphviz version 2.40.1 (20161225.0304)
 -->
<!-- Title: SLSkeleton.h Pages: 1 -->
<svg width="2809pt" height="308pt"
 viewBox="0.00 0.00 2809.00 308.00" xmlns="http://www.w3.org/2000/svg" xmlns:xlink="http://www.w3.org/1999/xlink">
<g id="graph0" class="graph" transform="scale(1 1) rotate(0) translate(4 304)">
<title>SLSkeleton.h</title>
<polygon fill="#ffffff" stroke="transparent" points="-4,4 -4,-304 2805,-304 2805,4 -4,4"/>
<!-- Node1 -->
<g id="node1" class="node">
<title>Node1</title>
<g id="a_node1"><a xlink:title=" ">
<polygon fill="#bfbfbf" stroke="#000000" points="228,-280.5 228,-299.5 304,-299.5 304,-280.5 228,-280.5"/>
<text text-anchor="middle" x="266" y="-287.5" font-family="Arial.ttf" font-size="10.00" fill="#000000">SLSkeleton.h</text>
</a>
</g>
</g>
<!-- Node2 -->
<g id="node2" class="node">
<title>Node2</title>
<g id="a_node2"><a xlink:href="_s_l_assimp_importer_8cpp.html" target="_top" xlink:title=" ">
<polygon fill="#ffffff" stroke="#000000" points="93,-168.5 93,-187.5 211,-187.5 211,-168.5 93,-168.5"/>
<text text-anchor="middle" x="152" y="-175.5" font-family="Arial.ttf" font-size="10.00" fill="#000000">SLAssimpImporter.cpp</text>
</a>
</g>
</g>
<!-- Node1&#45;&gt;Node2 -->
<g id="edge1" class="edge">
<title>Node1&#45;&gt;Node2</title>
<path fill="none" stroke="#191970" d="M220.2428,-276.8297C202.6511,-269.6878 183.7508,-259.1358 171,-244 157.1721,-227.5856 153.3964,-201.6245 152.3733,-187.6569"/>
<polygon fill="#191970" stroke="#191970" points="219.2424,-280.1932 229.834,-280.4541 221.7169,-273.6451 219.2424,-280.1932"/>
</g>
<!-- Node3 -->
<g id="node3" class="node">
<title>Node3</title>
<g id="a_node3"><a xlink:href="_s_l_joint_8cpp.html" target="_top" xlink:title=" ">
<polygon fill="#ffffff" stroke="#000000" points="180.5,-224.5 180.5,-243.5 249.5,-243.5 249.5,-224.5 180.5,-224.5"/>
<text text-anchor="middle" x="215" y="-231.5" font-family="Arial.ttf" font-size="10.00" fill="#000000">SLJoint.cpp</text>
</a>
</g>
</g>
<!-- Node1&#45;&gt;Node3 -->
<g id="edge2" class="edge">
<title>Node1&#45;&gt;Node3</title>
<path fill="none" stroke="#191970" d="M250.3251,-272.7884C241.6006,-263.2085 231.0646,-251.6396 223.7817,-243.6427"/>
<polygon fill="#191970" stroke="#191970" points="247.7954,-275.2088 257.1165,-280.2455 252.9709,-270.4954 247.7954,-275.2088"/>
</g>
<!-- Node4 -->
<g id="node4" class="node">
<title>Node4</title>
<g id="a_node4"><a xlink:href="_s_l_skeleton_8cpp.html" target="_top" xlink:title=" ">
<polygon fill="#ffffff" stroke="#000000" points="2603.5,-56.5 2603.5,-75.5 2690.5,-75.5 2690.5,-56.5 2603.5,-56.5"/>
<text text-anchor="middle" x="2647" y="-63.5" font-family="Arial.ttf" font-size="10.00" fill="#000000">SLSkeleton.cpp</text>
</a>
</g>
</g>
<!-- Node1&#45;&gt;Node4 -->
<g id="edge3" class="edge">
<title>Node1&#45;&gt;Node4</title>
<path fill="none" stroke="#191970" d="M314.4117,-288.027C594.6557,-276.3722 2011.2943,-214.2212 2439,-132 2507.4558,-118.8402 2584.9595,-90.5019 2623.1404,-75.6026"/>
<polygon fill="#191970" stroke="#191970" points="314.0158,-284.5403 304.1693,-288.4515 314.3057,-291.5343 314.0158,-284.5403"/>
</g>
<!-- Node5 -->
<g id="node5" class="node">
<title>Node5</title>
<g id="a_node5"><a xlink:href="_s_l_anim_manager_8h.html" target="_top" xlink:title=" ">
<polygon fill="#ffffff" stroke="#000000" points="267.5,-224.5 267.5,-243.5 366.5,-243.5 366.5,-224.5 267.5,-224.5"/>
<text text-anchor="middle" x="317" y="-231.5" font-family="Arial.ttf" font-size="10.00" fill="#000000">SLAnimManager.h</text>
</a>
</g>
</g>
<!-- Node1&#45;&gt;Node5 -->
<g id="edge4" class="edge">
<title>Node1&#45;&gt;Node5</title>
<path fill="none" stroke="#191970" d="M281.6749,-272.7884C290.3994,-263.2085 300.9354,-251.6396 308.2183,-243.6427"/>
<polygon fill="#191970" stroke="#191970" points="279.0291,-270.4954 274.8835,-280.2455 284.2046,-275.2088 279.0291,-270.4954"/>
</g>
<!-- Node5&#45;&gt;Node2 -->
<g id="edge5" class="edge">
<title>Node5&#45;&gt;Node2</title>
<path fill="none" stroke="#191970" d="M278.8644,-221.057C248.6675,-210.8084 207.1837,-196.729 179.9944,-187.5011"/>
<polygon fill="#191970" stroke="#191970" points="278.0411,-224.4736 288.6355,-224.3733 280.2909,-217.845 278.0411,-224.4736"/>
</g>
<!-- Node5&#45;&gt;Node5 -->
<g id="edge7" class="edge">
<title>Node5&#45;&gt;Node5</title>
<path fill="none" stroke="#191970" d="M356.1851,-244.4482C371.6138,-244.9745 384.5,-241.4918 384.5,-234 384.5,-224.8672 365.3501,-221.6921 345.7889,-224.4748"/>
<polygon fill="#191970" stroke="#191970" points="356.0592,-240.9233 345.7889,-243.5252 355.4402,-247.8959 356.0592,-240.9233"/>
</g>
<!-- Node6 -->
<g id="node6" class="node">
<title>Node6</title>
<g id="a_node6"><a xlink:href="_s_l_scene_view_8cpp.html" target="_top" xlink:title=" ">
<polygon fill="#ffffff" stroke="#000000" points="0,-56.5 0,-75.5 98,-75.5 98,-56.5 0,-56.5"/>
<text text-anchor="middle" x="49" y="-63.5" font-family="Arial.ttf" font-size="10.00" fill="#000000">SLSceneView.cpp</text>
</a>
</g>
</g>
<!-- Node5&#45;&gt;Node6 -->
<g id="edge6" class="edge">
<title>Node5&#45;&gt;Node6</title>
<path fill="none" stroke="#191970" d="M295.1458,-218.5819C275.6476,-204.9581 246.2123,-184.7144 220,-168 164.3302,-132.502 96.542,-93.1947 65.7073,-75.5226"/>
<polygon fill="#191970" stroke="#191970" points="293.1605,-221.4645 303.358,-224.3391 297.1789,-215.7327 293.1605,-221.4645"/>
</g>
<!-- Node7 -->
<g id="node7" class="node">
<title>Node7</title>
<g id="a_node7"><a xlink:href="_s_l_scene_8h.html" target="_top" xlink:title=" ">
<polygon fill="#ffffff" stroke="#000000" points="1284.5,-168.5 1284.5,-187.5 1349.5,-187.5 1349.5,-168.5 1284.5,-168.5"/>
<text text-anchor="middle" x="1317" y="-175.5" font-family="Arial.ttf" font-size="10.00" fill="#000000">SLScene.h</text>
</a>
</g>
</g>
<!-- Node5&#45;&gt;Node7 -->
<g id="edge8" class="edge">
<title>Node5&#45;&gt;Node7</title>
<path fill="none" stroke="#191970" d="M376.8449,-230.6487C565.0814,-220.1074 1141.0969,-187.8506 1284.4382,-179.8235"/>
<polygon fill="#191970" stroke="#191970" points="376.3788,-227.1692 366.5902,-231.223 376.7702,-234.1583 376.3788,-227.1692"/>
</g>
<!-- Node7&#45;&gt;Node4 -->
<g id="edge25" class="edge">
<title>Node7&#45;&gt;Node4</title>
<path fill="none" stroke="#191970" d="M1359.8711,-176.813C1476.913,-173.2261 1799.9578,-160.919 1902,-132 1920.7416,-126.6886 1922.1976,-117.0918 1941,-112 2221.5575,-36.0234 2305.4546,-111.0212 2594,-76 2597.0675,-75.6277 2600.2249,-75.1852 2603.398,-74.6968"/>
<polygon fill="#191970" stroke="#191970" points="1359.7388,-173.3153 1349.8484,-177.1141 1359.9491,-180.3121 1359.7388,-173.3153"/>
</g>
<!-- Node8 -->
<g id="node8" class="node">
<title>Node8</title>
<g id="a_node8"><a xlink:href="_s_l_g_l_im_gui_8cpp.html" target="_top" xlink:title=" ">
<polygon fill="#ffffff" stroke="#000000" points="2399,-56.5 2399,-75.5 2487,-75.5 2487,-56.5 2399,-56.5"/>
<text text-anchor="middle" x="2443" y="-63.5" font-family="Arial.ttf" font-size="10.00" fill="#000000">SLGLImGui.cpp</text>
</a>
</g>
</g>
<!-- Node7&#45;&gt;Node8 -->
<g id="edge9" class="edge">
<title>Node7&#45;&gt;Node8</title>
<path fill="none" stroke="#191970" d="M1359.9406,-176.6246C1431.1078,-173.5008 1577.5047,-163.4851 1697,-132 1719.3484,-126.1116 1722.4728,-117.1624 1745,-112 2024.8584,-47.8667 2104.9906,-110.6906 2390,-76 2392.8815,-75.6493 2395.8423,-75.2368 2398.821,-74.7828"/>
<polygon fill="#191970" stroke="#191970" points="1359.4358,-173.1424 1349.5892,-177.0531 1359.7254,-180.1364 1359.4358,-173.1424"/>
</g>
<!-- Node9 -->
<g id="node9" class="node">
<title>Node9</title>
<g id="a_node9"><a xlink:href="_s_l_g_l_oculus_f_b_8cpp.html" target="_top" xlink:title=" ">
<polygon fill="#ffffff" stroke="#000000" points="1787.5,-112.5 1787.5,-131.5 1892.5,-131.5 1892.5,-112.5 1787.5,-112.5"/>
<text text-anchor="middle" x="1840" y="-119.5" font-family="Arial.ttf" font-size="10.00" fill="#000000">SLGLOculusFB.cpp</text>
</a>
</g>
</g>
<!-- Node7&#45;&gt;Node9 -->
<g id="edge10" class="edge">
<title>Node7&#45;&gt;Node9</title>
<path fill="none" stroke="#191970" d="M1359.9723,-174.3526C1440.921,-167.3293 1621.4991,-150.9366 1773,-132 1777.668,-131.4165 1782.513,-130.7713 1787.3657,-130.0977"/>
<polygon fill="#191970" stroke="#191970" points="1359.3448,-170.8937 1349.6831,-175.2413 1359.9472,-177.8677 1359.3448,-170.8937"/>
</g>
<!-- Node10 -->
<g id="node10" class="node">
<title>Node10</title>
<g id="a_node10"><a xlink:href="_s_l_g_l_program_8cpp.html" target="_top" xlink:title=" ">
<polygon fill="#ffffff" stroke="#000000" points="1949.5,-112.5 1949.5,-131.5 2048.5,-131.5 2048.5,-112.5 1949.5,-112.5"/>
<text text-anchor="middle" x="1999" y="-119.5" font-family="Arial.ttf" font-size="10.00" fill="#000000">SLGLProgram.cpp</text>
</a>
</g>
</g>
<!-- Node7&#45;&gt;Node10 -->
<g id="edge11" class="edge">
<title>Node7&#45;&gt;Node10</title>
<path fill="none" stroke="#191970" d="M1359.6469,-176.0136C1460.1282,-171.0745 1719.5095,-156.8141 1935,-132 1939.6923,-131.4597 1944.5676,-130.8275 1949.4395,-130.1481"/>
<polygon fill="#191970" stroke="#191970" points="1359.4032,-172.5212 1349.5851,-176.503 1359.7433,-179.513 1359.4032,-172.5212"/>
</g>
<!-- Node11 -->
<g id="node11" class="node">
<title>Node11</title>
<g id="a_node11"><a xlink:href="_s_l_g_l_texture_8cpp.html" target="_top" xlink:title=" ">
<polygon fill="#ffffff" stroke="#000000" points="267.5,-112.5 267.5,-131.5 362.5,-131.5 362.5,-112.5 267.5,-112.5"/>
<text text-anchor="middle" x="315" y="-119.5" font-family="Arial.ttf" font-size="10.00" fill="#000000">SLGLTexture.cpp</text>
</a>
</g>
</g>
<!-- Node7&#45;&gt;Node11 -->
<g id="edge12" class="edge">
<title>Node7&#45;&gt;Node11</title>
<path fill="none" stroke="#191970" d="M1274.0831,-176.6256C1113.8262,-171.3822 550.5262,-151.9262 372,-132 368.9047,-131.6545 365.7231,-131.2461 362.5217,-130.795"/>
<polygon fill="#191970" stroke="#191970" points="1274.3732,-180.1368 1284.4819,-176.9643 1274.6012,-173.1405 1274.3732,-180.1368"/>
</g>
<!-- Node12 -->
<g id="node12" class="node">
<title>Node12</title>
<g id="a_node12"><a xlink:href="_s_l_g_l_vertex_array_8cpp.html" target="_top" xlink:title=" ">
<polygon fill="#ffffff" stroke="#000000" points="381,-112.5 381,-131.5 495,-131.5 495,-112.5 381,-112.5"/>
<text text-anchor="middle" x="438" y="-119.5" font-family="Arial.ttf" font-size="10.00" fill="#000000">SLGLVertexArray.cpp</text>
</a>
</g>
</g>
<!-- Node7&#45;&gt;Node12 -->
<g id="edge13" class="edge">
<title>Node7&#45;&gt;Node12</title>
<path fill="none" stroke="#191970" d="M1274.05,-176.9895C1152.7741,-173.8304 797.4669,-162.4667 504,-132 501.1182,-131.7008 498.1698,-131.3647 495.1954,-131.0017"/>
<polygon fill="#191970" stroke="#191970" points="1274.2969,-180.4968 1284.3831,-177.2534 1274.4757,-173.4991 1274.2969,-180.4968"/>
</g>
<!-- Node13 -->
<g id="node13" class="node">
<title>Node13</title>
<g id="a_node13"><a xlink:href="_s_l_skybox_8cpp.html" target="_top" xlink:title=" ">
<polygon fill="#ffffff" stroke="#000000" points="2505,-56.5 2505,-75.5 2585,-75.5 2585,-56.5 2505,-56.5"/>
<text text-anchor="middle" x="2545" y="-63.5" font-family="Arial.ttf" font-size="10.00" fill="#000000">SLSkybox.cpp</text>
</a>
</g>
</g>
<!-- Node7&#45;&gt;Node13 -->
<g id="edge14" class="edge">
<title>Node7&#45;&gt;Node13</title>
<path fill="none" stroke="#191970" d="M1359.7478,-175.0198C1451.5753,-168.3377 1665.0103,-151.2284 1735,-132 1755.7135,-126.3093 1758.1266,-117.0726 1779,-112 2089.0441,-36.6535 2179.451,-116.0146 2496,-76 2498.9287,-75.6298 2501.9437,-75.1815 2504.9706,-74.6825"/>
<polygon fill="#191970" stroke="#191970" points="1359.4101,-171.535 1349.6878,-175.7454 1359.9138,-178.5168 1359.4101,-171.535"/>
</g>
<!-- Node14 -->
<g id="node14" class="node">
<title>Node14</title>
<g id="a_node14"><a xlink:href="_s_l_tex_font_8cpp.html" target="_top" xlink:title=" ">
<polygon fill="#ffffff" stroke="#000000" points="513,-112.5 513,-131.5 597,-131.5 597,-112.5 513,-112.5"/>
<text text-anchor="middle" x="555" y="-119.5" font-family="Arial.ttf" font-size="10.00" fill="#000000">SLTexFont.cpp</text>
</a>
</g>
</g>
<!-- Node7&#45;&gt;Node14 -->
<g id="edge15" class="edge">
<title>Node7&#45;&gt;Node14</title>
<path fill="none" stroke="#191970" d="M1274.1384,-177.1522C1163.2371,-174.5423 857.9252,-164.7092 606,-132 603.1367,-131.6282 600.1924,-131.1932 597.2321,-130.7164"/>
<polygon fill="#191970" stroke="#191970" points="1274.1784,-180.6539 1284.2556,-177.3828 1274.338,-173.6558 1274.1784,-180.6539"/>
</g>
<!-- Node15 -->
<g id="node15" class="node">
<title>Node15</title>
<g id="a_node15"><a xlink:href="_s_l_a_a_b_box_8cpp.html" target="_top" xlink:title=" ">
<polygon fill="#ffffff" stroke="#000000" points="615.5,-112.5 615.5,-131.5 700.5,-131.5 700.5,-112.5 615.5,-112.5"/>
<text text-anchor="middle" x="658" y="-119.5" font-family="Arial.ttf" font-size="10.00" fill="#000000">SLAABBox.cpp</text>
</a>
</g>
</g>
<!-- Node7&#45;&gt;Node15 -->
<g id="edge16" class="edge">
<title>Node7&#45;&gt;Node15</title>
<path fill="none" stroke="#191970" d="M1274.0358,-176.4336C1174.4898,-172.436 920.4796,-160.12 710,-132 706.9018,-131.5861 703.7094,-131.1057 700.5024,-130.5839"/>
<polygon fill="#191970" stroke="#191970" points="1274.1624,-179.9412 1284.2925,-176.8378 1274.4381,-172.9466 1274.1624,-179.9412"/>
</g>
<!-- Node16 -->
<g id="node16" class="node">
<title>Node16</title>
<g id="a_node16"><a xlink:href="_s_l_animation_8cpp.html" target="_top" xlink:title=" ">
<polygon fill="#ffffff" stroke="#000000" points="719,-112.5 719,-131.5 811,-131.5 811,-112.5 719,-112.5"/>
<text text-anchor="middle" x="765" y="-119.5" font-family="Arial.ttf" font-size="10.00" fill="#000000">SLAnimation.cpp</text>
</a>
</g>
</g>
<!-- Node7&#45;&gt;Node16 -->
<g id="edge17" class="edge">
<title>Node7&#45;&gt;Node16</title>
<path fill="none" stroke="#191970" d="M1274.1383,-175.3025C1187.8862,-169.5944 987.3026,-154.9069 820,-132 817.1154,-131.605 814.1515,-131.1653 811.1666,-130.6968"/>
<polygon fill="#191970" stroke="#191970" points="1274.1159,-178.8084 1284.3234,-175.9698 1274.5736,-171.8234 1274.1159,-178.8084"/>
</g>
<!-- Node17 -->
<g id="node17" class="node">
<title>Node17</title>
<g id="a_node17"><a xlink:href="_s_l_anim_manager_8cpp.html" target="_top" xlink:title=" ">
<polygon fill="#ffffff" stroke="#000000" points="829,-112.5 829,-131.5 939,-131.5 939,-112.5 829,-112.5"/>
<text text-anchor="middle" x="884" y="-119.5" font-family="Arial.ttf" font-size="10.00" fill="#000000">SLAnimManager.cpp</text>
</a>
</g>
</g>
<!-- Node7&#45;&gt;Node17 -->
<g id="edge18" class="edge">
<title>Node7&#45;&gt;Node17</title>
<path fill="none" stroke="#191970" d="M1274.3593,-173.1191C1205.5926,-165.15 1065.9704,-148.5656 948,-132 945.1045,-131.5934 942.1369,-131.1663 939.1419,-130.7269"/>
<polygon fill="#191970" stroke="#191970" points="1274.0412,-176.6056 1284.377,-174.2771 1274.8451,-169.6519 1274.0412,-176.6056"/>
</g>
<!-- Node18 -->
<g id="node18" class="node">
<title>Node18</title>
<g id="a_node18"><a xlink:href="_s_l_background_8cpp.html" target="_top" xlink:title=" ">
<polygon fill="#ffffff" stroke="#000000" points="957.5,-112.5 957.5,-131.5 1058.5,-131.5 1058.5,-112.5 957.5,-112.5"/>
<text text-anchor="middle" x="1008" y="-119.5" font-family="Arial.ttf" font-size="10.00" fill="#000000">SLBackground.cpp</text>
</a>
</g>
</g>
<!-- Node7&#45;&gt;Node18 -->
<g id="edge19" class="edge">
<title>Node7&#45;&gt;Node18</title>
<path fill="none" stroke="#191970" d="M1274.2002,-170.2434C1217.7508,-160.0131 1118.5611,-142.037 1058.504,-131.1528"/>
<polygon fill="#191970" stroke="#191970" points="1273.7602,-173.7206 1284.2241,-172.06 1275.0086,-166.8328 1273.7602,-173.7206"/>
</g>
<!-- Node19 -->
<g id="node19" class="node">
<title>Node19</title>
<g id="a_node19"><a xlink:href="_s_l_curve_bezier_8cpp.html" target="_top" xlink:title=" ">
<polygon fill="#ffffff" stroke="#000000" points="1076.5,-112.5 1076.5,-131.5 1179.5,-131.5 1179.5,-112.5 1076.5,-112.5"/>
<text text-anchor="middle" x="1128" y="-119.5" font-family="Arial.ttf" font-size="10.00" fill="#000000">SLCurveBezier.cpp</text>
</a>
</g>
</g>
<!-- Node7&#45;&gt;Node19 -->
<g id="edge20" class="edge">
<title>Node7&#45;&gt;Node19</title>
<path fill="none" stroke="#191970" d="M1274.6643,-165.4561C1239.9706,-155.1765 1191.6166,-140.8494 1160.0663,-131.5011"/>
<polygon fill="#191970" stroke="#191970" points="1273.9274,-168.8881 1284.5097,-168.3733 1275.9161,-162.1765 1273.9274,-168.8881"/>
</g>
<!-- Node20 -->
<g id="node20" class="node">
<title>Node20</title>
<g id="a_node20"><a xlink:href="_s_l_light_direct_8cpp.html" target="_top" xlink:title=" ">
<polygon fill="#ffffff" stroke="#000000" points="116.5,-56.5 116.5,-75.5 211.5,-75.5 211.5,-56.5 116.5,-56.5"/>
<text text-anchor="middle" x="164" y="-63.5" font-family="Arial.ttf" font-size="10.00" fill="#000000">SLLightDirect.cpp</text>
</a>
</g>
</g>
<!-- Node7&#45;&gt;Node20 -->
<g id="edge21" class="edge">
<title>Node7&#45;&gt;Node20</title>
<path fill="none" stroke="#191970" d="M1286.7339,-164.1088C1267.9155,-155.2842 1243.3261,-143.4116 1222,-132 1206.5423,-123.7286 1204.8271,-116.9202 1188,-112 981.6044,-51.6504 434.8435,-98.6319 221,-76 217.9027,-75.6722 214.7198,-75.2772 211.5172,-74.836"/>
<polygon fill="#191970" stroke="#191970" points="1285.4583,-167.3757 1296.0008,-168.4271 1288.415,-161.0307 1285.4583,-167.3757"/>
</g>
<!-- Node21 -->
<g id="node21" class="node">
<title>Node21</title>
<g id="a_node21"><a xlink:href="_s_l_light_rect_8cpp.html" target="_top" xlink:title=" ">
<polygon fill="#ffffff" stroke="#000000" points="230,-56.5 230,-75.5 320,-75.5 320,-56.5 230,-56.5"/>
<text text-anchor="middle" x="275" y="-63.5" font-family="Arial.ttf" font-size="10.00" fill="#000000">SLLightRect.cpp</text>
</a>
</g>
</g>
<!-- Node7&#45;&gt;Node21 -->
<g id="edge22" class="edge">
<title>Node7&#45;&gt;Node21</title>
<path fill="none" stroke="#191970" d="M1296.904,-162.0184C1274.1123,-144.2651 1238.0385,-117.3816 1222,-112 1033.7114,-48.821 526.3679,-98.1384 329,-76 326.0628,-75.6705 323.045,-75.2742 320.0094,-74.8321"/>
<polygon fill="#191970" stroke="#191970" points="1294.8926,-164.889 1304.9194,-168.3116 1299.2154,-159.3833 1294.8926,-164.889"/>
</g>
<!-- Node22 -->
<g id="node22" class="node">
<title>Node22</title>
<g id="a_node22"><a xlink:href="_s_l_light_spot_8cpp.html" target="_top" xlink:title=" ">
<polygon fill="#ffffff" stroke="#000000" points="338,-56.5 338,-75.5 428,-75.5 428,-56.5 338,-56.5"/>
<text text-anchor="middle" x="383" y="-63.5" font-family="Arial.ttf" font-size="10.00" fill="#000000">SLLightSpot.cpp</text>
</a>
</g>
</g>
<!-- Node7&#45;&gt;Node22 -->
<g id="edge23" class="edge">
<title>Node7&#45;&gt;Node22</title>
<path fill="none" stroke="#191970" d="M1306.7482,-159.2558C1297.0024,-143.5243 1280.7622,-122.0569 1260,-112 1177.6233,-72.0981 527.9439,-86.3586 437,-76 434.0633,-75.6655 431.046,-75.2654 428.0107,-74.8204"/>
<polygon fill="#191970" stroke="#191970" points="1303.8863,-161.2951 1311.9594,-168.1564 1309.9271,-157.7583 1303.8863,-161.2951"/>
</g>
<!-- Node23 -->
<g id="node23" class="node">
<title>Node23</title>
<g id="a_node23"><a xlink:href="_s_l_scene_8cpp.html" target="_top" xlink:title=" ">
<polygon fill="#ffffff" stroke="#000000" points="1312,-112.5 1312,-131.5 1388,-131.5 1388,-112.5 1312,-112.5"/>
<text text-anchor="middle" x="1350" y="-119.5" font-family="Arial.ttf" font-size="10.00" fill="#000000">SLScene.cpp</text>
</a>
</g>
</g>
<!-- Node7&#45;&gt;Node23 -->
<g id="edge24" class="edge">
<title>Node7&#45;&gt;Node23</title>
<path fill="none" stroke="#191970" d="M1327.8254,-159.6296C1333.3299,-150.2887 1339.7937,-139.3197 1344.3177,-131.6427"/>
<polygon fill="#191970" stroke="#191970" points="1324.8097,-157.8532 1322.7482,-168.2455 1330.8405,-161.4071 1324.8097,-157.8532"/>
</g>
<!-- Node24 -->
<g id="node24" class="node">
<title>Node24</title>
<g id="a_node24"><a xlink:href="_s_l_text_8cpp.html" target="_top" xlink:title=" ">
<polygon fill="#ffffff" stroke="#000000" points="1406.5,-112.5 1406.5,-131.5 1473.5,-131.5 1473.5,-112.5 1406.5,-112.5"/>
<text text-anchor="middle" x="1440" y="-119.5" font-family="Arial.ttf" font-size="10.00" fill="#000000">SLText.cpp</text>
</a>
</g>
</g>
<!-- Node7&#45;&gt;Node24 -->
<g id="edge26" class="edge">
<title>Node7&#45;&gt;Node24</title>
<path fill="none" stroke="#191970" d="M1347.5065,-164.1109C1369.8112,-153.9559 1399.4799,-140.4482 1419.1315,-131.5011"/>
<polygon fill="#191970" stroke="#191970" points="1345.7953,-161.0442 1338.1445,-168.3733 1348.6959,-167.415 1345.7953,-161.0442"/>
</g>
<!-- Node25 -->
<g id="node25" class="node">
<title>Node25</title>
<g id="a_node25"><a xlink:href="_s_l_g_l_o_v_r_workaround_8h.html" target="_top" xlink:title=" ">
<polygon fill="#ffffff" stroke="#000000" points="2302.5,-112.5 2302.5,-131.5 2429.5,-131.5 2429.5,-112.5 2302.5,-112.5"/>
<text text-anchor="middle" x="2366" y="-119.5" font-family="Arial.ttf" font-size="10.00" fill="#000000">SLGLOVRWorkaround.h</text>
</a>
</g>
</g>
<!-- Node7&#45;&gt;Node25 -->
<g id="edge27" class="edge">
<title>Node7&#45;&gt;Node25</title>
<path fill="none" stroke="#191970" d="M1359.6726,-175.722C1522.8215,-167.0124 2107.6892,-135.7897 2302.4204,-125.3941"/>
<polygon fill="#191970" stroke="#191970" points="1359.3439,-172.2344 1349.5448,-176.2626 1359.7172,-179.2245 1359.3439,-172.2344"/>
</g>
<!-- Node27 -->
<g id="node27" class="node">
<title>Node27</title>
<g id="a_node27"><a xlink:href="_s_l_scene_view_8h.html" target="_top" xlink:title=" ">
<polygon fill="#ffffff" stroke="#000000" points="1491.5,-112.5 1491.5,-131.5 1578.5,-131.5 1578.5,-112.5 1491.5,-112.5"/>
<text text-anchor="middle" x="1535" y="-119.5" font-family="Arial.ttf" font-size="10.00" fill="#000000">SLSceneView.h</text>
</a>
</g>
</g>
<!-- Node7&#45;&gt;Node27 -->
<g id="edge29" class="edge">
<title>Node7&#45;&gt;Node27</title>
<path fill="none" stroke="#191970" d="M1359.4066,-167.1066C1399.592,-156.7837 1459.3568,-141.4313 1497.7509,-131.5686"/>
<polygon fill="#191970" stroke="#191970" points="1358.4515,-163.7382 1349.6368,-169.6162 1360.1932,-170.5181 1358.4515,-163.7382"/>
</g>
<!-- Node42 -->
<g id="node42" class="node">
<title>Node42</title>
<g id="a_node42"><a xlink:href="_app_demo_gui_8cpp.html" target="_top" xlink:title=" ">
<polygon fill="#ffffff" stroke="#000000" points="2041.5,-56.5 2041.5,-75.5 2136.5,-75.5 2136.5,-56.5 2041.5,-56.5"/>
<text text-anchor="middle" x="2089" y="-63.5" font-family="Arial.ttf" font-size="10.00" fill="#000000">AppDemoGui.cpp</text>
</a>
</g>
</g>
<!-- Node7&#45;&gt;Node42 -->
<g id="edge55" class="edge">
<title>Node7&#45;&gt;Node42</title>
<path fill="none" stroke="#191970" d="M1360.041,-174.2743C1414.1996,-168.7779 1509.6131,-156.398 1588,-132 1608.1249,-125.7361 1610.6445,-117.4683 1631,-112 1803.8119,-65.5757 1854.6083,-99.4811 2032,-76 2035.0876,-75.5913 2038.2633,-75.1349 2041.4604,-74.6485"/>
<polygon fill="#191970" stroke="#191970" points="1359.3862,-170.8217 1349.7766,-175.2833 1360.0711,-177.7881 1359.3862,-170.8217"/>
</g>
<!-- Node43 -->
<g id="node43" class="node">
<title>Node43</title>
<g id="a_node43"><a xlink:href="_app_demo_load_8cpp.html" target="_top" xlink:title=" ">
<polygon fill="#ffffff" stroke="#000000" points="2155,-56.5 2155,-75.5 2257,-75.5 2257,-56.5 2155,-56.5"/>
<text text-anchor="middle" x="2206" y="-63.5" font-family="Arial.ttf" font-size="10.00" fill="#000000">AppDemoLoad.cpp</text>
</a>
</g>
</g>
<!-- Node7&#45;&gt;Node43 -->
<g id="edge56" class="edge">
<title>Node7&#45;&gt;Node43</title>
<path fill="none" stroke="#191970" d="M1359.9691,-175.0896C1419.8699,-170.2371 1531.4251,-158.2999 1623,-132 1644.4271,-125.8462 1647.3603,-117.3582 1669,-112 1875.3706,-60.9005 1934.9321,-101.5016 2146,-76 2148.9355,-75.6453 2151.9467,-75.2486 2154.9819,-74.8233"/>
<polygon fill="#191970" stroke="#191970" points="1359.4503,-171.6194 1349.7537,-175.8885 1359.9962,-178.598 1359.4503,-171.6194"/>
</g>
<!-- Node44 -->
<g id="node44" class="node">
<title>Node44</title>
<g id="a_node44"><a xlink:href="_app_demo_video_8cpp.html" target="_top" xlink:title=" ">
<polygon fill="#ffffff" stroke="#000000" points="2275.5,-56.5 2275.5,-75.5 2380.5,-75.5 2380.5,-56.5 2275.5,-56.5"/>
<text text-anchor="middle" x="2328" y="-63.5" font-family="Arial.ttf" font-size="10.00" fill="#000000">AppDemoVideo.cpp</text>
</a>
</g>
</g>
<!-- Node7&#45;&gt;Node44 -->
<g id="edge57" class="edge">
<title>Node7&#45;&gt;Node44</title>
<path fill="none" stroke="#191970" d="M1360.1132,-175.9366C1425.8502,-171.9638 1554.6219,-160.9169 1660,-132 1681.8922,-125.9925 1684.9136,-117.2487 1707,-112 1949.2136,-54.4393 2018.6039,-103.853 2266,-76 2269.0337,-75.6585 2272.1454,-75.272 2275.2819,-74.8545"/>
<polygon fill="#191970" stroke="#191970" points="1359.5168,-172.4652 1349.7354,-176.5363 1359.9207,-179.4535 1359.5168,-172.4652"/>
</g>
<!-- Node26 -->
<g id="node26" class="node">
<title>Node26</title>
<g id="a_node26"><a xlink:href="_s_l_g_l_oculus_8cpp.html" target="_top" xlink:title=" ">
<polygon fill="#ffffff" stroke="#000000" points="2709,-56.5 2709,-75.5 2801,-75.5 2801,-56.5 2709,-56.5"/>
<text text-anchor="middle" x="2755" y="-63.5" font-family="Arial.ttf" font-size="10.00" fill="#000000">SLGLOculus.cpp</text>
</a>
</g>
</g>
<!-- Node25&#45;&gt;Node26 -->
<g id="edge28" class="edge">
<title>Node25&#45;&gt;Node26</title>
<path fill="none" stroke="#191970" d="M2439.6785,-112.7772C2507.4452,-104.075 2610.6595,-90.2673 2700,-76 2702.8751,-75.5409 2705.8317,-75.052 2708.8111,-74.5467"/>
<polygon fill="#191970" stroke="#191970" points="2439.0037,-109.3349 2429.529,-114.0764 2439.8925,-116.2783 2439.0037,-109.3349"/>
</g>
<!-- Node27&#45;&gt;Node4 -->
<g id="edge47" class="edge">
<title>Node27&#45;&gt;Node4</title>
<path fill="none" stroke="#191970" d="M1588.9137,-119.7627C1801.1665,-110.9414 2568.803,-78.9092 2594,-76 2597.0696,-75.6456 2600.2286,-75.2164 2603.4028,-74.7375"/>
<polygon fill="#191970" stroke="#191970" points="1588.4912,-116.2771 1578.6451,-120.1893 1588.7819,-123.2711 1588.4912,-116.2771"/>
</g>
<!-- Node27&#45;&gt;Node6 -->
<g id="edge46" class="edge">
<title>Node27&#45;&gt;Node6</title>
<path fill="none" stroke="#191970" d="M1481.0542,-112.1036C872.3349,-48.1144 711.9439,-135.7533 107,-76 104.1528,-75.7188 101.2346,-75.3794 98.295,-74.9981"/>
<polygon fill="#191970" stroke="#191970" points="1481.096,-115.6276 1491.4095,-113.2022 1481.8346,-108.6667 1481.096,-115.6276"/>
</g>
<!-- Node27&#45;&gt;Node8 -->
<g id="edge31" class="edge">
<title>Node27&#45;&gt;Node8</title>
<path fill="none" stroke="#191970" d="M1588.9818,-118.7864C1622.869,-116.7876 1667.4839,-114.1901 1707,-112 2010.5111,-95.1783 2088.1936,-112.261 2390,-76 2392.882,-75.6537 2395.8432,-75.2447 2398.8222,-74.7932"/>
<polygon fill="#191970" stroke="#191970" points="1588.6031,-115.3025 1578.827,-119.3863 1589.0161,-122.2904 1588.6031,-115.3025"/>
</g>
<!-- Node27&#45;&gt;Node13 -->
<g id="edge32" class="edge">
<title>Node27&#45;&gt;Node13</title>
<path fill="none" stroke="#191970" d="M1588.7198,-119.4422C1790.6841,-109.8244 2493.1619,-76.3554 2496,-76 2498.9291,-75.6332 2501.9445,-75.1875 2504.9716,-74.6902"/>
<polygon fill="#191970" stroke="#191970" points="1588.4676,-115.9502 1578.6454,-119.922 1588.8006,-122.9422 1588.4676,-115.9502"/>
</g>
<!-- Node27&#45;&gt;Node20 -->
<g id="edge37" class="edge">
<title>Node27&#45;&gt;Node20</title>
<path fill="none" stroke="#191970" d="M1481.0762,-112.1025C922.77,-52.8166 775.4049,-132.2455 221,-76 217.9013,-75.6856 214.7173,-75.3008 211.514,-74.8671"/>
<polygon fill="#191970" stroke="#191970" points="1481.0924,-115.6242 1491.4086,-113.2105 1481.8388,-108.6641 1481.0924,-115.6242"/>
</g>
<!-- Node27&#45;&gt;Node21 -->
<g id="edge38" class="edge">
<title>Node27&#45;&gt;Node21</title>
<path fill="none" stroke="#191970" d="M1481.1929,-112.1113C970.5626,-57.2805 835.393,-130.4747 329,-76 326.0613,-75.6839 323.0425,-75.2977 320.006,-74.863"/>
<polygon fill="#191970" stroke="#191970" points="1481.0883,-115.6205 1491.4076,-113.2198 1481.8436,-108.6613 1481.0883,-115.6205"/>
</g>
<!-- Node27&#45;&gt;Node22 -->
<g id="edge39" class="edge">
<title>Node27&#45;&gt;Node22</title>
<path fill="none" stroke="#191970" d="M1481.4484,-112.1345C1018.3799,-61.6949 895.7027,-126.0924 437,-76 434.0618,-75.6791 431.0434,-75.2893 428.0072,-74.852"/>
<polygon fill="#191970" stroke="#191970" points="1481.0833,-115.6154 1491.4063,-113.2311 1481.8496,-108.6574 1481.0833,-115.6154"/>
</g>
<!-- Node28 -->
<g id="node28" class="node">
<title>Node28</title>
<g id="a_node28"><a xlink:href="_s_l_g_l_conetracer_8cpp.html" target="_top" xlink:title=" ">
<polygon fill="#ffffff" stroke="#000000" points="446,-56.5 446,-75.5 556,-75.5 556,-56.5 446,-56.5"/>
<text text-anchor="middle" x="501" y="-63.5" font-family="Arial.ttf" font-size="10.00" fill="#000000">SLGLConetracer.cpp</text>
</a>
</g>
</g>
<!-- Node27&#45;&gt;Node28 -->
<g id="edge30" class="edge">
<title>Node27&#45;&gt;Node28</title>
<path fill="none" stroke="#191970" d="M1481.4415,-112.1262C1075.0015,-66.856 967.677,-115.2304 565,-76 562.0898,-75.7165 559.1106,-75.3874 556.1065,-75.0249"/>
<polygon fill="#191970" stroke="#191970" points="1481.0756,-115.607 1491.4045,-113.2479 1481.8589,-108.651 1481.0756,-115.607"/>
</g>
<!-- Node29 -->
<g id="node29" class="node">
<title>Node29</title>
<g id="a_node29"><a xlink:href="_s_l_anim_track_8cpp.html" target="_top" xlink:title=" ">
<polygon fill="#ffffff" stroke="#000000" points="574.5,-56.5 574.5,-75.5 669.5,-75.5 669.5,-56.5 574.5,-56.5"/>
<text text-anchor="middle" x="622" y="-63.5" font-family="Arial.ttf" font-size="10.00" fill="#000000">SLAnimTrack.cpp</text>
</a>
</g>
</g>
<!-- Node27&#45;&gt;Node29 -->
<g id="edge33" class="edge">
<title>Node27&#45;&gt;Node29</title>
<path fill="none" stroke="#191970" d="M1481.3214,-112.1058C1124.9448,-71.5608 1030.2027,-115.1587 678,-76 675.2517,-75.6944 672.4346,-75.3361 669.5967,-74.9401"/>
<polygon fill="#191970" stroke="#191970" points="1481.0674,-115.5996 1491.4023,-113.2671 1481.8685,-108.6456 1481.0674,-115.5996"/>
</g>
<!-- Node30 -->
<g id="node30" class="node">
<title>Node30</title>
<g id="a_node30"><a xlink:href="_s_l_camera_8cpp.html" target="_top" xlink:title=" ">
<polygon fill="#ffffff" stroke="#000000" points="687.5,-56.5 687.5,-75.5 770.5,-75.5 770.5,-56.5 687.5,-56.5"/>
<text text-anchor="middle" x="729" y="-63.5" font-family="Arial.ttf" font-size="10.00" fill="#000000">SLCamera.cpp</text>
</a>
</g>
</g>
<!-- Node27&#45;&gt;Node30 -->
<g id="edge34" class="edge">
<title>Node27&#45;&gt;Node30</title>
<path fill="none" stroke="#191970" d="M1481.1674,-112.0797C1169.566,-75.7598 1086.106,-114.3649 779,-76 776.2769,-75.6598 773.4801,-75.2554 770.6674,-74.8073"/>
<polygon fill="#191970" stroke="#191970" points="1481.0578,-115.591 1491.3996,-113.2895 1481.8798,-108.6394 1481.0578,-115.591"/>
</g>
<!-- Node31 -->
<g id="node31" class="node">
<title>Node31</title>
<g id="a_node31"><a xlink:href="_s_l_input_manager_8cpp.html" target="_top" xlink:title=" ">
<polygon fill="#ffffff" stroke="#000000" points="788.5,-56.5 788.5,-75.5 897.5,-75.5 897.5,-56.5 788.5,-56.5"/>
<text text-anchor="middle" x="843" y="-63.5" font-family="Arial.ttf" font-size="10.00" fill="#000000">SLInputManager.cpp</text>
</a>
</g>
</g>
<!-- Node27&#45;&gt;Node31 -->
<g id="edge35" class="edge">
<title>Node27&#45;&gt;Node31</title>
<path fill="none" stroke="#191970" d="M1481.4548,-112.0947C1226.2104,-80.7923 1158.3115,-103.4414 907,-76 903.9815,-75.6704 900.8879,-75.2991 897.7684,-74.8985"/>
<polygon fill="#191970" stroke="#191970" points="1481.0396,-115.57 1491.3948,-113.3292 1481.9024,-108.6233 1481.0396,-115.57"/>
</g>
<!-- Node32 -->
<g id="node32" class="node">
<title>Node32</title>
<g id="a_node32"><a xlink:href="_s_l_keyframe_camera_8cpp.html" target="_top" xlink:title=" ">
<polygon fill="#ffffff" stroke="#000000" points="916,-56.5 916,-75.5 1042,-75.5 1042,-56.5 916,-56.5"/>
<text text-anchor="middle" x="979" y="-63.5" font-family="Arial.ttf" font-size="10.00" fill="#000000">SLKeyframeCamera.cpp</text>
</a>
</g>
</g>
<!-- Node27&#45;&gt;Node32 -->
<g id="edge36" class="edge">
<title>Node27&#45;&gt;Node32</title>
<path fill="none" stroke="#191970" d="M1481.2688,-112.0376C1289.7916,-86.5152 1238.7817,-96.867 1051,-76 1048.1152,-75.6794 1045.1675,-75.3357 1042.1916,-74.9757"/>
<polygon fill="#191970" stroke="#191970" points="1481.0072,-115.5339 1491.3853,-113.4018 1481.9427,-108.5967 1481.0072,-115.5339"/>
</g>
<!-- Node33 -->
<g id="node33" class="node">
<title>Node33</title>
<g id="a_node33"><a xlink:href="_s_l_material_8cpp.html" target="_top" xlink:title=" ">
<polygon fill="#ffffff" stroke="#000000" points="1060.5,-56.5 1060.5,-75.5 1143.5,-75.5 1143.5,-56.5 1060.5,-56.5"/>
<text text-anchor="middle" x="1102" y="-63.5" font-family="Arial.ttf" font-size="10.00" fill="#000000">SLMaterial.cpp</text>
</a>
</g>
</g>
<!-- Node27&#45;&gt;Node33 -->
<g id="edge40" class="edge">
<title>Node27&#45;&gt;Node33</title>
<path fill="none" stroke="#191970" d="M1481.1115,-111.9778C1334.742,-90.6838 1295.1483,-97.6735 1153,-76 1149.9673,-75.5376 1146.8406,-75.0216 1143.6983,-74.4745"/>
<polygon fill="#191970" stroke="#191970" points="1480.9689,-115.4945 1491.3726,-113.4911 1481.9903,-108.5695 1480.9689,-115.4945"/>
</g>
<!-- Node34 -->
<g id="node34" class="node">
<title>Node34</title>
<g id="a_node34"><a xlink:href="_s_l_mesh_8cpp.html" target="_top" xlink:title=" ">
<polygon fill="#ffffff" stroke="#000000" points="1162,-56.5 1162,-75.5 1234,-75.5 1234,-56.5 1162,-56.5"/>
<text text-anchor="middle" x="1198" y="-63.5" font-family="Arial.ttf" font-size="10.00" fill="#000000">SLMesh.cpp</text>
</a>
</g>
</g>
<!-- Node27&#45;&gt;Node34 -->
<g id="edge41" class="edge">
<title>Node27&#45;&gt;Node34</title>
<path fill="none" stroke="#191970" d="M1481.4419,-111.9633C1374.4142,-94.1155 1345.5116,-95.0871 1243,-76 1240.1676,-75.4726 1237.2419,-74.8958 1234.3051,-74.2939"/>
<polygon fill="#191970" stroke="#191970" points="1480.9078,-115.4226 1491.3502,-113.6318 1482.0702,-108.5198 1480.9078,-115.4226"/>
</g>
<!-- Node35 -->
<g id="node35" class="node">
<title>Node35</title>
<g id="a_node35"><a xlink:href="_s_l_node_8cpp.html" target="_top" xlink:title=" ">
<polygon fill="#ffffff" stroke="#000000" points="1252,-56.5 1252,-75.5 1324,-75.5 1324,-56.5 1252,-56.5"/>
<text text-anchor="middle" x="1288" y="-63.5" font-family="Arial.ttf" font-size="10.00" fill="#000000">SLNode.cpp</text>
</a>
</g>
</g>
<!-- Node27&#45;&gt;Node35 -->
<g id="edge42" class="edge">
<title>Node27&#45;&gt;Node35</title>
<path fill="none" stroke="#191970" d="M1483.0142,-110.2138C1435.4438,-99.4286 1366.2755,-83.7467 1324.3752,-74.247"/>
<polygon fill="#191970" stroke="#191970" points="1482.2934,-113.6391 1492.8198,-112.4369 1483.8413,-106.8123 1482.2934,-113.6391"/>
</g>
<!-- Node36 -->
<g id="node36" class="node">
<title>Node36</title>
<g id="a_node36"><a xlink:href="_s_l_pathtracer_8cpp.html" target="_top" xlink:title=" ">
<polygon fill="#ffffff" stroke="#000000" points="1342,-56.5 1342,-75.5 1436,-75.5 1436,-56.5 1342,-56.5"/>
<text text-anchor="middle" x="1389" y="-63.5" font-family="Arial.ttf" font-size="10.00" fill="#000000">SLPathtracer.cpp</text>
</a>
</g>
</g>
<!-- Node27&#45;&gt;Node36 -->
<g id="edge43" class="edge">
<title>Node27&#45;&gt;Node36</title>
<path fill="none" stroke="#191970" d="M1500.5565,-108.7888C1473.8987,-98.5639 1437.62,-84.6488 1413.7708,-75.5011"/>
<polygon fill="#191970" stroke="#191970" points="1499.3115,-112.0598 1509.9017,-112.3733 1501.8184,-105.5241 1499.3115,-112.0598"/>
</g>
<!-- Node37 -->
<g id="node37" class="node">
<title>Node37</title>
<g id="a_node37"><a xlink:href="_s_l_ray_8cpp.html" target="_top" xlink:title=" ">
<polygon fill="#ffffff" stroke="#000000" points="1454.5,-56.5 1454.5,-75.5 1519.5,-75.5 1519.5,-56.5 1454.5,-56.5"/>
<text text-anchor="middle" x="1487" y="-63.5" font-family="Arial.ttf" font-size="10.00" fill="#000000">SLRay.cpp</text>
</a>
</g>
</g>
<!-- Node27&#45;&gt;Node37 -->
<g id="edge44" class="edge">
<title>Node27&#45;&gt;Node37</title>
<path fill="none" stroke="#191970" d="M1520.0003,-104.5004C1511.8378,-94.9775 1502.0511,-83.5596 1495.2651,-75.6427"/>
<polygon fill="#191970" stroke="#191970" points="1517.4737,-106.9307 1526.639,-112.2455 1522.7885,-102.3752 1517.4737,-106.9307"/>
</g>
<!-- Node38 -->
<g id="node38" class="node">
<title>Node38</title>
<g id="a_node38"><a xlink:href="_s_l_raytracer_8cpp.html" target="_top" xlink:title=" ">
<polygon fill="#ffffff" stroke="#000000" points="1537.5,-56.5 1537.5,-75.5 1628.5,-75.5 1628.5,-56.5 1537.5,-56.5"/>
<text text-anchor="middle" x="1583" y="-63.5" font-family="Arial.ttf" font-size="10.00" fill="#000000">SLRaytracer.cpp</text>
</a>
</g>
</g>
<!-- Node27&#45;&gt;Node38 -->
<g id="edge45" class="edge">
<title>Node27&#45;&gt;Node38</title>
<path fill="none" stroke="#191970" d="M1549.9997,-104.5004C1558.1622,-94.9775 1567.9489,-83.5596 1574.7349,-75.6427"/>
<polygon fill="#191970" stroke="#191970" points="1547.2115,-102.3752 1543.361,-112.2455 1552.5263,-106.9307 1547.2115,-102.3752"/>
</g>
<!-- Node39 -->
<g id="node39" class="node">
<title>Node39</title>
<g id="a_node39"><a xlink:href="_s_l_uniform_grid_8cpp.html" target="_top" xlink:title=" ">
<polygon fill="#ffffff" stroke="#000000" points="1647,-56.5 1647,-75.5 1749,-75.5 1749,-56.5 1647,-56.5"/>
<text text-anchor="middle" x="1698" y="-63.5" font-family="Arial.ttf" font-size="10.00" fill="#000000">SLUniformGrid.cpp</text>
</a>
</g>
</g>
<!-- Node27&#45;&gt;Node39 -->
<g id="edge48" class="edge">
<title>Node27&#45;&gt;Node39</title>
<path fill="none" stroke="#191970" d="M1572.6733,-109.057C1602.5042,-98.8084 1643.4852,-84.729 1670.3449,-75.5011"/>
<polygon fill="#191970" stroke="#191970" points="1571.3409,-105.8139 1563.0207,-112.3733 1573.6154,-112.4341 1571.3409,-105.8139"/>
</g>
<!-- Node40 -->
<g id="node40" class="node">
<title>Node40</title>
<g id="a_node40"><a xlink:href="_s_l_transform_node_8h.html" target="_top" xlink:title=" ">
<polygon fill="#ffffff" stroke="#000000" points="1767.5,-56.5 1767.5,-75.5 1874.5,-75.5 1874.5,-56.5 1767.5,-56.5"/>
<text text-anchor="middle" x="1821" y="-63.5" font-family="Arial.ttf" font-size="10.00" fill="#000000">SLTransformNode.h</text>
</a>
</g>
</g>
<!-- Node27&#45;&gt;Node40 -->
<g id="edge49" class="edge">
<title>Node27&#45;&gt;Node40</title>
<path fill="none" stroke="#191970" d="M1588.6106,-111.5028C1641.4473,-101.1572 1721.4661,-85.4891 1772.4701,-75.5024"/>
<polygon fill="#191970" stroke="#191970" points="1587.8896,-108.0774 1578.7486,-113.4338 1589.2348,-114.947 1587.8896,-108.0774"/>
</g>
<!-- Node27&#45;&gt;Node42 -->
<g id="edge51" class="edge">
<title>Node27&#45;&gt;Node42</title>
<path fill="none" stroke="#191970" d="M1588.5776,-112.5854C1590.0665,-112.3807 1591.5429,-112.185 1593,-112 1787.2073,-87.3446 1837.8291,-100.9404 2032,-76 2035.0892,-75.6032 2038.266,-75.1559 2041.464,-74.6761"/>
<polygon fill="#191970" stroke="#191970" points="1588.0257,-109.1289 1578.6419,-114.0476 1589.0449,-116.0543 1588.0257,-109.1289"/>
</g>
<!-- Node27&#45;&gt;Node43 -->
<g id="edge52" class="edge">
<title>Node27&#45;&gt;Node43</title>
<path fill="none" stroke="#191970" d="M1589.1512,-116.0339C1602.8009,-114.6196 1617.4311,-113.1806 1631,-112 1859.5838,-92.1111 1918.1338,-102.891 2146,-76 2148.9365,-75.6535 2151.9485,-75.2631 2154.9842,-74.8426"/>
<polygon fill="#191970" stroke="#191970" points="1588.5181,-112.5811 1578.9381,-117.106 1589.2489,-119.5428 1588.5181,-112.5811"/>
</g>
<!-- Node27&#45;&gt;Node44 -->
<g id="edge53" class="edge">
<title>Node27&#45;&gt;Node44</title>
<path fill="none" stroke="#191970" d="M1588.9007,-117.8014C1613.3463,-115.9426 1642.6257,-113.7792 1669,-112 1934.2125,-94.1086 2001.7933,-105.1995 2266,-76 2269.0344,-75.6646 2272.1467,-75.283 2275.2835,-74.8693"/>
<polygon fill="#191970" stroke="#191970" points="1588.4469,-114.3258 1578.7426,-118.5774 1588.9801,-121.3055 1588.4469,-114.3258"/>
</g>
<!-- Node45 -->
<g id="node45" class="node">
<title>Node45</title>
<g id="a_node45"><a xlink:href="_app_demo_main_g_l_f_w_8cpp.html" target="_top" xlink:title=" ">
<polygon fill="#ffffff" stroke="#000000" points="1893,-56.5 1893,-75.5 2023,-75.5 2023,-56.5 1893,-56.5"/>
<text text-anchor="middle" x="1958" y="-63.5" font-family="Arial.ttf" font-size="10.00" fill="#000000">AppDemoMainGLFW.cpp</text>
</a>
</g>
</g>
<!-- Node27&#45;&gt;Node45 -->
<g id="edge54" class="edge">
<title>Node27&#45;&gt;Node45</title>
<path fill="none" stroke="#191970" d="M1588.5886,-112.6657C1590.0743,-112.4374 1591.547,-112.215 1593,-112 1721.9155,-92.9235 1754.7586,-92.7263 1884,-76 1886.8285,-75.6339 1889.7173,-75.2569 1892.6353,-74.8736"/>
<polygon fill="#191970" stroke="#191970" points="1587.9955,-109.2159 1578.6685,-114.2416 1589.0938,-116.1292 1587.9955,-109.2159"/>
</g>
<!-- Node41 -->
<g id="node41" class="node">
<title>Node41</title>
<g id="a_node41"><a xlink:href="_s_l_transform_node_8cpp.html" target="_top" xlink:title=" ">
<polygon fill="#ffffff" stroke="#000000" points="1762.5,-.5 1762.5,-19.5 1879.5,-19.5 1879.5,-.5 1762.5,-.5"/>
<text text-anchor="middle" x="1821" y="-7.5" font-family="Arial.ttf" font-size="10.00" fill="#000000">SLTransformNode.cpp</text>
</a>
</g>
</g>
<!-- Node40&#45;&gt;Node41 -->
<g id="edge50" class="edge">
<title>Node40&#45;&gt;Node41</title>
<path fill="none" stroke="#191970" d="M1821,-46.1575C1821,-37.155 1821,-26.9199 1821,-19.6427"/>
<polygon fill="#191970" stroke="#191970" points="1817.5001,-46.2455 1821,-56.2455 1824.5001,-46.2456 1817.5001,-46.2455"/>
</g>
</g>
</svg>
