<?xml version="1.0" encoding="UTF-8" standalone="no"?>
<!DOCTYPE svg PUBLIC "-//W3C//DTD SVG 1.1//EN"
 "http://www.w3.org/Graphics/SVG/1.1/DTD/svg11.dtd">
<!-- Generated by graphviz version 2.28.0 (20110507.0327)
 -->
<!-- Title: SLInputManager.h Pages: 1 -->
<svg width="3751pt" height="140pt"
 viewBox="0.00 0.00 3751.00 140.00" xmlns="http://www.w3.org/2000/svg" xmlns:xlink="http://www.w3.org/1999/xlink">
<g id="graph1" class="graph" transform="scale(1 1) rotate(0) translate(4 136)">
<title>SLInputManager.h</title>
<polygon fill="white" stroke="white" points="-4,5 -4,-136 3748,-136 3748,5 -4,5"/>
<!-- Node1 -->
<g id="node1" class="node"><title>Node1</title>
<polygon fill="#bfbfbf" stroke="black" points="237,-112.5 237,-131.5 341,-131.5 341,-112.5 237,-112.5"/>
<text text-anchor="middle" x="289" y="-119.5" font-family="Arial.ttf" font-size="10.00">SLInputManager.h</text>
</g>
<!-- Node2 -->
<g id="node3" class="node"><title>Node2</title>
<a xlink:href="_s_l_interface_8cpp.html" target="_top" xlink:title="SLProject C&#45;functions interface implementation.">
<polygon fill="white" stroke="black" points="-0.5,-0.5 -0.5,-19.5 90.5,-19.5 90.5,-0.5 -0.5,-0.5"/>
<text text-anchor="middle" x="45" y="-7.5" font-family="Arial.ttf" font-size="10.00">SLInterface.cpp</text>
</a>
</g>
<!-- Node1&#45;&gt;Node2 -->
<g id="edge2" class="edge"><title>Node1&#45;&gt;Node2</title>
<path fill="none" stroke="midnightblue" d="M260.526,-108.163C210.179,-85.4659 106.734,-38.8311 64.0573,-19.5914"/>
<polygon fill="midnightblue" stroke="midnightblue" points="259.299,-111.449 269.854,-112.368 262.176,-105.068 259.299,-111.449"/>
</g>
<!-- Node3 -->
<g id="node5" class="node"><title>Node3</title>
<a xlink:href="_s_l_input_device_8cpp.html" target="_top" xlink:title="SLInputDevice.cpp">
<polygon fill="white" stroke="black" points="108.5,-0.5 108.5,-19.5 213.5,-19.5 213.5,-0.5 108.5,-0.5"/>
<text text-anchor="middle" x="161" y="-7.5" font-family="Arial.ttf" font-size="10.00">SLInputDevice.cpp</text>
</a>
</g>
<!-- Node1&#45;&gt;Node3 -->
<g id="edge4" class="edge"><title>Node1&#45;&gt;Node3</title>
<path fill="none" stroke="midnightblue" d="M271.331,-105.816C244.069,-82.3874 192.639,-38.1898 170.997,-19.5914"/>
<polygon fill="midnightblue" stroke="midnightblue" points="269.091,-108.505 278.956,-112.368 273.653,-103.196 269.091,-108.505"/>
</g>
<!-- Node4 -->
<g id="node7" class="node"><title>Node4</title>
<a xlink:href="_s_l_input_manager_8cpp.html" target="_top" xlink:title="SLInputManager.cpp">
<polygon fill="white" stroke="black" points="231.5,-0.5 231.5,-19.5 346.5,-19.5 346.5,-0.5 231.5,-0.5"/>
<text text-anchor="middle" x="289" y="-7.5" font-family="Arial.ttf" font-size="10.00">SLInputManager.cpp</text>
</a>
</g>
<!-- Node1&#45;&gt;Node4 -->
<g id="edge6" class="edge"><title>Node1&#45;&gt;Node4</title>
<path fill="none" stroke="midnightblue" d="M289,-102.348C289,-78.2538 289,-37.3079 289,-19.5914"/>
<polygon fill="midnightblue" stroke="midnightblue" points="285.5,-102.368 289,-112.368 292.5,-102.369 285.5,-102.368"/>
</g>
<!-- Node5 -->
<g id="node9" class="node"><title>Node5</title>
<a xlink:href="_s_l_scene_8cpp.html" target="_top" xlink:title="SLScene.cpp">
<polygon fill="white" stroke="black" points="364.5,-0.5 364.5,-19.5 443.5,-19.5 443.5,-0.5 364.5,-0.5"/>
<text text-anchor="middle" x="404" y="-7.5" font-family="Arial.ttf" font-size="10.00">SLScene.cpp</text>
</a>
</g>
<!-- Node1&#45;&gt;Node5 -->
<g id="edge8" class="edge"><title>Node1&#45;&gt;Node5</title>
<path fill="none" stroke="midnightblue" d="M305.513,-105.205C330.162,-81.6272 375.742,-38.0294 395.018,-19.5914"/>
<polygon fill="midnightblue" stroke="midnightblue" points="302.831,-102.927 298.024,-112.368 307.67,-107.985 302.831,-102.927"/>
</g>
<!-- Node6 -->
<g id="node11" class="node"><title>Node6</title>
<a xlink:href="_s_l_application_8h.html" target="_top" xlink:title="SLApplication.h">
<polygon fill="white" stroke="black" points="1630,-56.5 1630,-75.5 1720,-75.5 1720,-56.5 1630,-56.5"/>
<text text-anchor="middle" x="1675" y="-63.5" font-family="Arial.ttf" font-size="10.00">SLApplication.h</text>
</a>
</g>
<!-- Node1&#45;&gt;Node6 -->
<g id="edge10" class="edge"><title>Node1&#45;&gt;Node6</title>
<path fill="none" stroke="midnightblue" d="M351.36,-118.57C587.728,-109.361 1425.42,-76.7237 1629.79,-68.7615"/>
<polygon fill="midnightblue" stroke="midnightblue" points="351.077,-115.079 341.221,-118.965 351.35,-122.073 351.077,-115.079"/>
</g>
<!-- Node6&#45;&gt;Node2 -->
<g id="edge36" class="edge"><title>Node6&#45;&gt;Node2</title>
<path fill="none" stroke="midnightblue" d="M1619.69,-64.4355C1376.81,-61.8003 403.337,-49.5667 99,-20 96.2567,-19.7335 93.4419,-19.4119 90.6071,-19.051"/>
<polygon fill="midnightblue" stroke="midnightblue" points="1619.67,-67.9353 1629.7,-64.5431 1619.74,-60.9357 1619.67,-67.9353"/>
</g>
<!-- Node6&#45;&gt;Node3 -->
<g id="edge46" class="edge"><title>Node6&#45;&gt;Node3</title>
<path fill="none" stroke="midnightblue" d="M1619.57,-64.1412C1388.5,-60.4289 500.992,-44.818 222,-20 219.228,-19.7534 216.389,-19.464 213.527,-19.1432"/>
<polygon fill="midnightblue" stroke="midnightblue" points="1619.7,-67.6437 1629.76,-64.304 1619.81,-60.6446 1619.7,-67.6437"/>
</g>
<!-- Node6&#45;&gt;Node4 -->
<g id="edge48" class="edge"><title>Node6&#45;&gt;Node4</title>
<path fill="none" stroke="midnightblue" d="M1619.79,-65.1199C1438.36,-65.0865 844.153,-61.5812 355,-20 352.235,-19.7649 349.407,-19.4948 346.555,-19.1983"/>
<polygon fill="midnightblue" stroke="midnightblue" points="1619.89,-68.62 1629.88,-65.1182 1619.88,-61.62 1619.89,-68.62"/>
</g>
<!-- Node6&#45;&gt;Node5 -->
<g id="edge64" class="edge"><title>Node6&#45;&gt;Node5</title>
<path fill="none" stroke="midnightblue" d="M1619.73,-64.0297C1412.8,-60.231 683.875,-45.3189 453,-20 449.905,-19.6606 446.711,-19.2386 443.508,-18.7641"/>
<polygon fill="midnightblue" stroke="midnightblue" points="1619.7,-67.5296 1629.76,-64.2126 1619.83,-60.5307 1619.7,-67.5296"/>
</g>
<!-- Node7 -->
<g id="node13" class="node"><title>Node7</title>
<a xlink:href="_s_l_c_v_calibration_8cpp.html" target="_top" xlink:title="SLCVCalibration.cpp">
<polygon fill="white" stroke="black" points="2144.5,-0.5 2144.5,-19.5 2257.5,-19.5 2257.5,-0.5 2144.5,-0.5"/>
<text text-anchor="middle" x="2201" y="-7.5" font-family="Arial.ttf" font-size="10.00">SLCVCalibration.cpp</text>
</a>
</g>
<!-- Node6&#45;&gt;Node7 -->
<g id="edge12" class="edge"><title>Node6&#45;&gt;Node7</title>
<path fill="none" stroke="midnightblue" d="M1730.22,-60.2812C1816.65,-52.7413 1989.11,-37.0772 2135,-20 2138.1,-19.637 2141.28,-19.2505 2144.49,-18.8494"/>
<polygon fill="midnightblue" stroke="midnightblue" points="1729.77,-56.8068 1720.11,-61.16 1730.38,-63.7805 1729.77,-56.8068"/>
</g>
<!-- Node8 -->
<g id="node15" class="node"><title>Node8</title>
<a xlink:href="_s_l_c_v_capture_8cpp.html" target="_top" xlink:title="SLCVCapture.cpp">
<polygon fill="white" stroke="black" points="2275.5,-0.5 2275.5,-19.5 2376.5,-19.5 2376.5,-0.5 2275.5,-0.5"/>
<text text-anchor="middle" x="2326" y="-7.5" font-family="Arial.ttf" font-size="10.00">SLCVCapture.cpp</text>
</a>
</g>
<!-- Node6&#45;&gt;Node8 -->
<g id="edge14" class="edge"><title>Node6&#45;&gt;Node8</title>
<path fill="none" stroke="midnightblue" d="M1730.36,-62.1346C1835.15,-56.412 2069.57,-42.1804 2266,-20 2269.04,-19.6573 2272.15,-19.2767 2275.3,-18.8712"/>
<polygon fill="midnightblue" stroke="midnightblue" points="1730.13,-58.642 1720.33,-62.6779 1730.51,-65.6318 1730.13,-58.642"/>
</g>
<!-- Node9 -->
<g id="node17" class="node"><title>Node9</title>
<a xlink:href="_s_l_c_v_tracked_aruco_8cpp.html" target="_top" xlink:title="SLCVTrackedAruco.cpp">
<polygon fill="white" stroke="black" points="2395,-0.5 2395,-19.5 2523,-19.5 2523,-0.5 2395,-0.5"/>
<text text-anchor="middle" x="2459" y="-7.5" font-family="Arial.ttf" font-size="10.00">SLCVTrackedAruco.cpp</text>
</a>
</g>
<!-- Node6&#45;&gt;Node9 -->
<g id="edge16" class="edge"><title>Node6&#45;&gt;Node9</title>
<path fill="none" stroke="midnightblue" d="M1730.36,-62.5812C1849.99,-57.1145 2141.51,-42.5041 2385,-20 2388.22,-19.7022 2391.52,-19.3768 2394.85,-19.0319"/>
<polygon fill="midnightblue" stroke="midnightblue" points="1730.17,-59.0859 1720.34,-63.0358 1730.49,-66.0787 1730.17,-59.0859"/>
</g>
<!-- Node10 -->
<g id="node19" class="node"><title>Node10</title>
<a xlink:href="_s_l_c_v_tracked_chessboard_8cpp.html" target="_top" xlink:title="SLCVTrackedChessboard.cpp">
<polygon fill="white" stroke="black" points="2541.5,-0.5 2541.5,-19.5 2698.5,-19.5 2698.5,-0.5 2541.5,-0.5"/>
<text text-anchor="middle" x="2620" y="-7.5" font-family="Arial.ttf" font-size="10.00">SLCVTrackedChessboard.cpp</text>
</a>
</g>
<!-- Node6&#45;&gt;Node10 -->
<g id="edge18" class="edge"><title>Node6&#45;&gt;Node10</title>
<path fill="none" stroke="midnightblue" d="M1730.31,-63.0447C1866.65,-58.0178 2229.78,-43.3744 2532,-20 2535.06,-19.7631 2538.18,-19.5084 2541.34,-19.2399"/>
<polygon fill="midnightblue" stroke="midnightblue" points="1729.98,-59.5542 1720.12,-63.418 1730.24,-66.5495 1729.98,-59.5542"/>
</g>
<!-- Node11 -->
<g id="node21" class="node"><title>Node11</title>
<a xlink:href="_s_l_c_v_tracked_features_8cpp.html" target="_top" xlink:title="SLCVTrackedFeatures.cpp">
<polygon fill="white" stroke="black" points="2717,-0.5 2717,-19.5 2859,-19.5 2859,-0.5 2717,-0.5"/>
<text text-anchor="middle" x="2788" y="-7.5" font-family="Arial.ttf" font-size="10.00">SLCVTrackedFeatures.cpp</text>
</a>
</g>
<!-- Node6&#45;&gt;Node11 -->
<g id="edge20" class="edge"><title>Node6&#45;&gt;Node11</title>
<path fill="none" stroke="midnightblue" d="M1730.26,-63.8946C1884.79,-60.5218 2334.48,-48.7845 2707,-20 2710.24,-19.7493 2713.56,-19.471 2716.91,-19.1721"/>
<polygon fill="midnightblue" stroke="midnightblue" points="1730,-60.3992 1720.08,-64.1139 1730.15,-67.3976 1730,-60.3992"/>
</g>
<!-- Node12 -->
<g id="node23" class="node"><title>Node12</title>
<a xlink:href="_s_l_g_l_im_gui_8cpp.html" target="_top" xlink:title="SLGLImGui.cpp">
<polygon fill="white" stroke="black" points="2877.5,-0.5 2877.5,-19.5 2966.5,-19.5 2966.5,-0.5 2877.5,-0.5"/>
<text text-anchor="middle" x="2922" y="-7.5" font-family="Arial.ttf" font-size="10.00">SLGLImGui.cpp</text>
</a>
</g>
<!-- Node6&#45;&gt;Node12 -->
<g id="edge22" class="edge"><title>Node6&#45;&gt;Node12</title>
<path fill="none" stroke="midnightblue" d="M1730.32,-65.4137C1900.51,-66.1512 2431.24,-64.4514 2868,-20 2871.03,-19.6921 2874.14,-19.3205 2877.27,-18.906"/>
<polygon fill="midnightblue" stroke="midnightblue" points="1730.12,-61.9128 1720.1,-65.3646 1730.09,-68.9128 1730.12,-61.9128"/>
</g>
<!-- Node13 -->
<g id="node25" class="node"><title>Node13</title>
<a xlink:href="_s_l_g_l_oculus_f_b_8cpp.html" target="_top" xlink:title="SLGLOculusFB.cpp">
<polygon fill="white" stroke="black" points="2985,-0.5 2985,-19.5 3091,-19.5 3091,-0.5 2985,-0.5"/>
<text text-anchor="middle" x="3038" y="-7.5" font-family="Arial.ttf" font-size="10.00">SLGLOculusFB.cpp</text>
</a>
</g>
<!-- Node6&#45;&gt;Node13 -->
<g id="edge24" class="edge"><title>Node6&#45;&gt;Node13</title>
<path fill="none" stroke="midnightblue" d="M1730.27,-65.2039C1910.02,-65.4147 2494.19,-62.5421 2975,-20 2978.19,-19.7176 2981.47,-19.3837 2984.77,-19.0136"/>
<polygon fill="midnightblue" stroke="midnightblue" points="1730.02,-61.7036 1720.01,-65.1879 1730.01,-68.7036 1730.02,-61.7036"/>
</g>
<!-- Node14 -->
<g id="node27" class="node"><title>Node14</title>
<a xlink:href="_s_l_g_l_program_8cpp.html" target="_top" xlink:title="SLGLProgram.cpp">
<polygon fill="white" stroke="black" points="3109.5,-0.5 3109.5,-19.5 3212.5,-19.5 3212.5,-0.5 3109.5,-0.5"/>
<text text-anchor="middle" x="3161" y="-7.5" font-family="Arial.ttf" font-size="10.00">SLGLProgram.cpp</text>
</a>
</g>
<!-- Node6&#45;&gt;Node14 -->
<g id="edge26" class="edge"><title>Node6&#45;&gt;Node14</title>
<path fill="none" stroke="midnightblue" d="M1730.08,-65.5331C1920.43,-66.8919 2568.02,-67.4859 3100,-20 3103.09,-19.724 3106.27,-19.395 3109.46,-19.0286"/>
<polygon fill="midnightblue" stroke="midnightblue" points="1730.06,-62.033 1720.04,-65.4576 1730.01,-69.0328 1730.06,-62.033"/>
</g>
<!-- Node15 -->
<g id="node29" class="node"><title>Node15</title>
<a xlink:href="_s_l_g_l_texture_8cpp.html" target="_top" xlink:title="SLGLTexture.cpp">
<polygon fill="white" stroke="black" points="3231,-0.5 3231,-19.5 3329,-19.5 3329,-0.5 3231,-0.5"/>
<text text-anchor="middle" x="3280" y="-7.5" font-family="Arial.ttf" font-size="10.00">SLGLTexture.cpp</text>
</a>
</g>
<!-- Node6&#45;&gt;Node15 -->
<g id="edge28" class="edge"><title>Node6&#45;&gt;Node15</title>
<path fill="none" stroke="midnightblue" d="M1730.39,-64.297C1970.51,-61.1094 2922.74,-46.9872 3221,-20 3224.2,-19.7105 3227.49,-19.3592 3230.8,-18.9652"/>
<polygon fill="midnightblue" stroke="midnightblue" points="1730.11,-60.8003 1720.16,-64.4319 1730.2,-67.7997 1730.11,-60.8003"/>
</g>
<!-- Node16 -->
<g id="node31" class="node"><title>Node16</title>
<a xlink:href="_s_l_g_l_vertex_array_ext_8cpp.html" target="_top" xlink:title="SLGLVertexArrayExt.cpp">
<polygon fill="white" stroke="black" points="3347,-0.5 3347,-19.5 3481,-19.5 3481,-0.5 3347,-0.5"/>
<text text-anchor="middle" x="3414" y="-7.5" font-family="Arial.ttf" font-size="10.00">SLGLVertexArrayExt.cpp</text>
</a>
</g>
<!-- Node6&#45;&gt;Node16 -->
<g id="edge30" class="edge"><title>Node6&#45;&gt;Node16</title>
<path fill="none" stroke="midnightblue" d="M1730.2,-65.3237C1939.98,-66.1688 2707.7,-65.7532 3338,-20 3340.92,-19.7884 3343.89,-19.5467 3346.89,-19.2816"/>
<polygon fill="midnightblue" stroke="midnightblue" points="1730.07,-61.8232 1720.05,-65.2801 1730.04,-68.8232 1730.07,-61.8232"/>
</g>
<!-- Node17 -->
<g id="node33" class="node"><title>Node17</title>
<a xlink:href="_s_l_application_8cpp.html" target="_top" xlink:title="SLApplication.cpp">
<polygon fill="white" stroke="black" points="3499.5,-0.5 3499.5,-19.5 3600.5,-19.5 3600.5,-0.5 3499.5,-0.5"/>
<text text-anchor="middle" x="3550" y="-7.5" font-family="Arial.ttf" font-size="10.00">SLApplication.cpp</text>
</a>
</g>
<!-- Node6&#45;&gt;Node17 -->
<g id="edge32" class="edge"><title>Node6&#45;&gt;Node17</title>
<path fill="none" stroke="midnightblue" d="M1730.25,-64.5556C1994.99,-62.2844 3135.58,-50.8549 3490,-20 3493.04,-19.7351 3496.17,-19.4147 3499.31,-19.0548"/>
<polygon fill="midnightblue" stroke="midnightblue" points="1730.08,-61.0568 1720.11,-64.6417 1730.14,-68.0565 1730.08,-61.0568"/>
</g>
<!-- Node18 -->
<g id="node35" class="node"><title>Node18</title>
<a xlink:href="_s_l_assimp_importer_8cpp.html" target="_top" xlink:title="SLAssimpImporter.cpp">
<polygon fill="white" stroke="black" points="3618.5,-0.5 3618.5,-19.5 3743.5,-19.5 3743.5,-0.5 3618.5,-0.5"/>
<text text-anchor="middle" x="3681" y="-7.5" font-family="Arial.ttf" font-size="10.00">SLAssimpImporter.cpp</text>
</a>
</g>
<!-- Node6&#45;&gt;Node18 -->
<g id="edge34" class="edge"><title>Node6&#45;&gt;Node18</title>
<path fill="none" stroke="midnightblue" d="M1730.25,-64.4701C2005.36,-61.716 3229.33,-48.0743 3609,-20 3612.02,-19.7771 3615.1,-19.5168 3618.21,-19.2282"/>
<polygon fill="midnightblue" stroke="midnightblue" points="1730.08,-60.9715 1720.11,-64.5709 1730.14,-67.9712 1730.08,-60.9715"/>
</g>
<!-- Node19 -->
<g id="node38" class="node"><title>Node19</title>
<a xlink:href="_s_l_tex_font_8cpp.html" target="_top" xlink:title="SLTexFont.cpp">
<polygon fill="white" stroke="black" points="462,-0.5 462,-19.5 548,-19.5 548,-0.5 462,-0.5"/>
<text text-anchor="middle" x="505" y="-7.5" font-family="Arial.ttf" font-size="10.00">SLTexFont.cpp</text>
</a>
</g>
<!-- Node6&#45;&gt;Node19 -->
<g id="edge38" class="edge"><title>Node6&#45;&gt;Node19</title>
<path fill="none" stroke="midnightblue" d="M1619.58,-65.3346C1456.31,-65.7697 963.152,-63.1336 557,-20 554.085,-19.6904 551.085,-19.3175 548.069,-18.9021"/>
<polygon fill="midnightblue" stroke="midnightblue" points="1619.86,-68.8338 1629.85,-65.3019 1619.84,-61.8339 1619.86,-68.8338"/>
</g>
<!-- Node20 -->
<g id="node40" class="node"><title>Node20</title>
<a xlink:href="_s_l_animation_8cpp.html" target="_top" xlink:title="SLAnimation.cpp">
<polygon fill="white" stroke="black" points="566,-0.5 566,-19.5 664,-19.5 664,-0.5 566,-0.5"/>
<text text-anchor="middle" x="615" y="-7.5" font-family="Arial.ttf" font-size="10.00">SLAnimation.cpp</text>
</a>
</g>
<!-- Node6&#45;&gt;Node20 -->
<g id="edge40" class="edge"><title>Node6&#45;&gt;Node20</title>
<path fill="none" stroke="midnightblue" d="M1619.49,-64.6284C1467.62,-63.1538 1032.58,-55.8646 673,-20 670.161,-19.7168 667.249,-19.3879 664.314,-19.0267"/>
<polygon fill="midnightblue" stroke="midnightblue" points="1619.9,-68.1322 1629.93,-64.7248 1619.97,-61.1325 1619.9,-68.1322"/>
</g>
<!-- Node21 -->
<g id="node42" class="node"><title>Node21</title>
<a xlink:href="_s_l_background_8cpp.html" target="_top" xlink:title="SLBackground.cpp">
<polygon fill="white" stroke="black" points="682,-0.5 682,-19.5 788,-19.5 788,-0.5 682,-0.5"/>
<text text-anchor="middle" x="735" y="-7.5" font-family="Arial.ttf" font-size="10.00">SLBackground.cpp</text>
</a>
</g>
<!-- Node6&#45;&gt;Node21 -->
<g id="edge42" class="edge"><title>Node6&#45;&gt;Node21</title>
<path fill="none" stroke="midnightblue" d="M1619.33,-63.8936C1480.43,-60.7528 1107.47,-49.9822 798,-20 794.811,-19.691 791.536,-19.3366 788.235,-18.9509"/>
<polygon fill="midnightblue" stroke="midnightblue" points="1619.63,-67.401 1629.71,-64.1238 1619.79,-60.4027 1619.63,-67.401"/>
</g>
<!-- Node22 -->
<g id="node44" class="node"><title>Node22</title>
<a xlink:href="_s_l_camera_8cpp.html" target="_top" xlink:title="SLCamera.cpp">
<polygon fill="white" stroke="black" points="806.5,-0.5 806.5,-19.5 893.5,-19.5 893.5,-0.5 806.5,-0.5"/>
<text text-anchor="middle" x="850" y="-7.5" font-family="Arial.ttf" font-size="10.00">SLCamera.cpp</text>
</a>
</g>
<!-- Node6&#45;&gt;Node22 -->
<g id="edge44" class="edge"><title>Node6&#45;&gt;Node22</title>
<path fill="none" stroke="midnightblue" d="M1619.34,-63.8538C1492.09,-60.7754 1170.28,-50.3904 903,-20 899.94,-19.652 896.788,-19.2443 893.619,-18.7978"/>
<polygon fill="midnightblue" stroke="midnightblue" points="1619.52,-67.359 1629.6,-64.0964 1619.69,-60.361 1619.52,-67.359"/>
</g>
<!-- Node23 -->
<g id="node48" class="node"><title>Node23</title>
<a xlink:href="_s_l_light_direct_8cpp.html" target="_top" xlink:title="SLLightDirect.cpp">
<polygon fill="white" stroke="black" points="911.5,-0.5 911.5,-19.5 1012.5,-19.5 1012.5,-0.5 911.5,-0.5"/>
<text text-anchor="middle" x="962" y="-7.5" font-family="Arial.ttf" font-size="10.00">SLLightDirect.cpp</text>
</a>
</g>
<!-- Node6&#45;&gt;Node23 -->
<g id="edge50" class="edge"><title>Node6&#45;&gt;Node23</title>
<path fill="none" stroke="midnightblue" d="M1619.66,-62.684C1506.94,-57.6369 1242.73,-44.1214 1022,-20 1018.96,-19.6682 1015.84,-19.296 1012.7,-18.897"/>
<polygon fill="midnightblue" stroke="midnightblue" points="1619.62,-66.1857 1629.76,-63.132 1619.93,-59.1925 1619.62,-66.1857"/>
</g>
<!-- Node24 -->
<g id="node50" class="node"><title>Node24</title>
<a xlink:href="_s_l_light_rect_8cpp.html" target="_top" xlink:title="SLLightRect.cpp">
<polygon fill="white" stroke="black" points="1030.5,-0.5 1030.5,-19.5 1123.5,-19.5 1123.5,-0.5 1030.5,-0.5"/>
<text text-anchor="middle" x="1077" y="-7.5" font-family="Arial.ttf" font-size="10.00">SLLightRect.cpp</text>
</a>
</g>
<!-- Node6&#45;&gt;Node24 -->
<g id="edge52" class="edge"><title>Node6&#45;&gt;Node24</title>
<path fill="none" stroke="midnightblue" d="M1619.93,-61.8246C1521.82,-55.8568 1310.43,-41.5914 1133,-20 1129.97,-19.6313 1126.85,-19.2198 1123.71,-18.7815"/>
<polygon fill="midnightblue" stroke="midnightblue" points="1619.72,-65.3183 1629.91,-62.427 1620.14,-58.331 1619.72,-65.3183"/>
</g>
<!-- Node25 -->
<g id="node52" class="node"><title>Node25</title>
<a xlink:href="_s_l_light_spot_8cpp.html" target="_top" xlink:title="SLLightSpot.cpp">
<polygon fill="white" stroke="black" points="1141.5,-0.5 1141.5,-19.5 1236.5,-19.5 1236.5,-0.5 1141.5,-0.5"/>
<text text-anchor="middle" x="1189" y="-7.5" font-family="Arial.ttf" font-size="10.00">SLLightSpot.cpp</text>
</a>
</g>
<!-- Node6&#45;&gt;Node25 -->
<g id="edge54" class="edge"><title>Node6&#45;&gt;Node25</title>
<path fill="none" stroke="midnightblue" d="M1619.75,-60.1324C1537.95,-52.7155 1379.87,-37.5771 1246,-20 1242.92,-19.5957 1239.75,-19.1573 1236.56,-18.6991"/>
<polygon fill="midnightblue" stroke="midnightblue" points="1619.55,-63.628 1629.82,-61.0413 1620.18,-56.6564 1619.55,-63.628"/>
</g>
<!-- Node26 -->
<g id="node54" class="node"><title>Node26</title>
<a xlink:href="_s_l_material_8cpp.html" target="_top" xlink:title="SLMaterial.cpp">
<polygon fill="white" stroke="black" points="1254.5,-0.5 1254.5,-19.5 1341.5,-19.5 1341.5,-0.5 1254.5,-0.5"/>
<text text-anchor="middle" x="1298" y="-7.5" font-family="Arial.ttf" font-size="10.00">SLMaterial.cpp</text>
</a>
</g>
<!-- Node6&#45;&gt;Node26 -->
<g id="edge56" class="edge"><title>Node6&#45;&gt;Node26</title>
<path fill="none" stroke="midnightblue" d="M1619.9,-57.8633C1555.38,-49.3854 1445.3,-34.5514 1351,-20 1347.96,-19.5303 1344.82,-19.0321 1341.66,-18.5206"/>
<polygon fill="midnightblue" stroke="midnightblue" points="1619.49,-61.3389 1629.86,-59.1684 1620.4,-54.3983 1619.49,-61.3389"/>
</g>
<!-- Node27 -->
<g id="node56" class="node"><title>Node27</title>
<a xlink:href="_s_l_mesh_8cpp.html" target="_top" xlink:title="SLMesh.cpp">
<polygon fill="white" stroke="black" points="1360,-0.5 1360,-19.5 1434,-19.5 1434,-0.5 1360,-0.5"/>
<text text-anchor="middle" x="1397" y="-7.5" font-family="Arial.ttf" font-size="10.00">SLMesh.cpp</text>
</a>
</g>
<!-- Node6&#45;&gt;Node27 -->
<g id="edge58" class="edge"><title>Node6&#45;&gt;Node27</title>
<path fill="none" stroke="midnightblue" d="M1621.03,-54.5165C1566.02,-43.8313 1482.16,-27.5418 1434.17,-18.2203"/>
<polygon fill="midnightblue" stroke="midnightblue" points="1620.47,-57.9724 1630.95,-56.4435 1621.8,-51.1009 1620.47,-57.9724"/>
</g>
<!-- Node28 -->
<g id="node58" class="node"><title>Node28</title>
<a xlink:href="_s_l_pathtracer_8cpp.html" target="_top" xlink:title="SLPathtracer.cpp">
<polygon fill="white" stroke="black" points="1452.5,-0.5 1452.5,-19.5 1551.5,-19.5 1551.5,-0.5 1452.5,-0.5"/>
<text text-anchor="middle" x="1502" y="-7.5" font-family="Arial.ttf" font-size="10.00">SLPathtracer.cpp</text>
</a>
</g>
<!-- Node6&#45;&gt;Node28 -->
<g id="edge60" class="edge"><title>Node6&#45;&gt;Node28</title>
<path fill="none" stroke="midnightblue" d="M1637.95,-53.4363C1605.34,-43.2551 1558.59,-28.664 1529.28,-19.5164"/>
<polygon fill="midnightblue" stroke="midnightblue" points="1637,-56.8049 1647.59,-56.4435 1639.08,-50.1228 1637,-56.8049"/>
</g>
<!-- Node29 -->
<g id="node60" class="node"><title>Node29</title>
<a xlink:href="_s_l_raytracer_8cpp.html" target="_top" xlink:title="SLRaytracer.cpp">
<polygon fill="white" stroke="black" points="1569.5,-0.5 1569.5,-19.5 1664.5,-19.5 1664.5,-0.5 1569.5,-0.5"/>
<text text-anchor="middle" x="1617" y="-7.5" font-family="Arial.ttf" font-size="10.00">SLRaytracer.cpp</text>
</a>
</g>
<!-- Node6&#45;&gt;Node29 -->
<g id="edge62" class="edge"><title>Node6&#45;&gt;Node29</title>
<path fill="none" stroke="midnightblue" d="M1658.09,-49.2533C1647.8,-39.6731 1635.03,-27.7906 1626.49,-19.8339"/>
<polygon fill="midnightblue" stroke="midnightblue" points="1655.98,-52.0714 1665.68,-56.324 1660.75,-46.9481 1655.98,-52.0714"/>
</g>
<!-- Node30 -->
<g id="node63" class="node"><title>Node30</title>
<a xlink:href="_s_l_scene_view_8cpp.html" target="_top" xlink:title="SLSceneView.cpp">
<polygon fill="white" stroke="black" points="1682.5,-0.5 1682.5,-19.5 1783.5,-19.5 1783.5,-0.5 1682.5,-0.5"/>
<text text-anchor="middle" x="1733" y="-7.5" font-family="Arial.ttf" font-size="10.00">SLSceneView.cpp</text>
</a>
</g>
<!-- Node6&#45;&gt;Node30 -->
<g id="edge66" class="edge"><title>Node6&#45;&gt;Node30</title>
<path fill="none" stroke="midnightblue" d="M1691.91,-49.2533C1702.2,-39.6731 1714.97,-27.7906 1723.51,-19.8339"/>
<polygon fill="midnightblue" stroke="midnightblue" points="1689.25,-46.9481 1684.32,-56.324 1694.02,-52.0714 1689.25,-46.9481"/>
</g>
<!-- Node31 -->
<g id="node65" class="node"><title>Node31</title>
<a xlink:href="_s_l_skeleton_8cpp.html" target="_top" xlink:title="SLSkeleton.cpp">
<polygon fill="white" stroke="black" points="1801.5,-0.5 1801.5,-19.5 1892.5,-19.5 1892.5,-0.5 1801.5,-0.5"/>
<text text-anchor="middle" x="1847" y="-7.5" font-family="Arial.ttf" font-size="10.00">SLSkeleton.cpp</text>
</a>
</g>
<!-- Node6&#45;&gt;Node31 -->
<g id="edge68" class="edge"><title>Node6&#45;&gt;Node31</title>
<path fill="none" stroke="midnightblue" d="M1711.83,-53.4363C1744.26,-43.2551 1790.74,-28.664 1819.87,-19.5164"/>
<polygon fill="midnightblue" stroke="midnightblue" points="1710.75,-50.1088 1702.25,-56.4435 1712.84,-56.7874 1710.75,-50.1088"/>
</g>
<!-- Node32 -->
<g id="node67" class="node"><title>Node32</title>
<a xlink:href="_s_l_text_8cpp.html" target="_top" xlink:title="SLText.cpp">
<polygon fill="white" stroke="black" points="1910.5,-0.5 1910.5,-19.5 1979.5,-19.5 1979.5,-0.5 1910.5,-0.5"/>
<text text-anchor="middle" x="1945" y="-7.5" font-family="Arial.ttf" font-size="10.00">SLText.cpp</text>
</a>
</g>
<!-- Node6&#45;&gt;Node32 -->
<g id="edge70" class="edge"><title>Node6&#45;&gt;Node32</title>
<path fill="none" stroke="midnightblue" d="M1728.34,-54.4604C1774.15,-45.3902 1841.94,-31.9205 1901,-20 1904.06,-19.383 1907.23,-18.739 1910.42,-18.0917"/>
<polygon fill="midnightblue" stroke="midnightblue" points="1727.47,-51.0651 1718.34,-56.4403 1728.83,-57.9318 1727.47,-51.0651"/>
</g>
<!-- Node33 -->
<g id="node69" class="node"><title>Node33</title>
<a xlink:href="_s_l_transfer_function_8cpp.html" target="_top" xlink:title="SLTransferFunction.cpp">
<polygon fill="white" stroke="black" points="1998,-0.5 1998,-19.5 2126,-19.5 2126,-0.5 1998,-0.5"/>
<text text-anchor="middle" x="2062" y="-7.5" font-family="Arial.ttf" font-size="10.00">SLTransferFunction.cpp</text>
</a>
</g>
<!-- Node6&#45;&gt;Node33 -->
<g id="edge72" class="edge"><title>Node6&#45;&gt;Node33</title>
<path fill="none" stroke="midnightblue" d="M1730.33,-57.2794C1802.01,-47.2776 1926.57,-29.8975 2000.94,-19.5198"/>
<polygon fill="midnightblue" stroke="midnightblue" points="1729.57,-53.8514 1720.15,-58.6998 1730.54,-60.7842 1729.57,-53.8514"/>
</g>
</g>
</svg>
