<?xml version="1.0" encoding="UTF-8" standalone="no"?>
<!DOCTYPE svg PUBLIC "-//W3C//DTD SVG 1.1//EN"
 "http://www.w3.org/Graphics/SVG/1.1/DTD/svg11.dtd">
<!-- Generated by graphviz version 2.36.0 (20140111.2315)
 -->
<!-- Title: SLVec3.h Pages: 1 -->
<svg width="137pt" height="252pt"
 viewBox="0.00 0.00 137.00 252.00" xmlns="http://www.w3.org/2000/svg" xmlns:xlink="http://www.w3.org/1999/xlink">
<g id="graph0" class="graph" transform="scale(1 1) rotate(0) translate(4 248)">
<title>SLVec3.h</title>
<polygon fill="white" stroke="none" points="-4,4 -4,-248 133,-248 133,4 -4,4"/>
<!-- Node1 -->
<g id="node1" class="node"><title>Node1</title>
<polygon fill="#bfbfbf" stroke="black" points="11,-224.5 11,-243.5 71,-243.5 71,-224.5 11,-224.5"/>
<text text-anchor="middle" x="41" y="-231.5" font-family="Arial.ttf" font-size="10.00">SLVec3.h</text>
</g>
<!-- Node2 -->
<g id="node2" class="node"><title>Node2</title>
<g id="a_node2"><a xlink:href="_s_l_8h.html" target="_top" xlink:title="SL.h">
<polygon fill="white" stroke="black" points="31.5,-112.5 31.5,-131.5 68.5,-131.5 68.5,-112.5 31.5,-112.5"/>
<text text-anchor="middle" x="50" y="-119.5" font-family="Arial.ttf" font-size="10.00">SL.h</text>
</a>
</g>
</g>
<!-- Node1&#45;&gt;Node2 -->
<g id="edge1" class="edge"><title>Node1&#45;&gt;Node2</title>
<path fill="none" stroke="midnightblue" d="M41.7062,-224.368C43.1586,-206.617 46.5091,-165.666 48.4784,-141.597"/>
<polygon fill="midnightblue" stroke="midnightblue" points="51.9699,-141.844 49.2971,-131.591 44.9932,-141.273 51.9699,-141.844"/>
</g>
<!-- Node3 -->
<g id="node3" class="node"><title>Node3</title>
<g id="a_node3"><a xlink:href="_utils_8h.html" target="_top" xlink:title="Utils.h">
<polygon fill="white" stroke="black" points="28,-56.5 28,-75.5 72,-75.5 72,-56.5 28,-56.5"/>
<text text-anchor="middle" x="50" y="-63.5" font-family="Arial.ttf" font-size="10.00">Utils.h</text>
</a>
</g>
</g>
<!-- Node1&#45;&gt;Node3 -->
<g id="edge8" class="edge"><title>Node1&#45;&gt;Node3</title>
<path fill="none" stroke="midnightblue" d="M37.1199,-224.335C28.6676,-204.252 10.2581,-153.097 22,-112 24.9019,-101.844 30.8316,-91.747 36.4901,-83.6991"/>
<polygon fill="midnightblue" stroke="midnightblue" points="39.3756,-85.6853 42.5876,-75.5891 33.7806,-81.4786 39.3756,-85.6853"/>
</g>
<!-- Node6 -->
<g id="node6" class="node"><title>Node6</title>
<g id="a_node6"><a xlink:href="_s_l_vec2_8h.html" target="_top" xlink:title="SLVec2.h">
<polygon fill="white" stroke="black" points="69,-168.5 69,-187.5 129,-187.5 129,-168.5 69,-168.5"/>
<text text-anchor="middle" x="99" y="-175.5" font-family="Arial.ttf" font-size="10.00">SLVec2.h</text>
</a>
</g>
</g>
<!-- Node1&#45;&gt;Node6 -->
<g id="edge5" class="edge"><title>Node1&#45;&gt;Node6</title>
<path fill="none" stroke="midnightblue" d="M50.3187,-224.324C58.8926,-216.341 71.8122,-204.313 82.1876,-194.653"/>
<polygon fill="midnightblue" stroke="midnightblue" points="84.5777,-197.21 89.5117,-187.834 79.8078,-192.086 84.5777,-197.21"/>
</g>
<!-- Node2&#45;&gt;Node3 -->
<g id="edge2" class="edge"><title>Node2&#45;&gt;Node3</title>
<path fill="none" stroke="midnightblue" d="M50,-112.083C50,-105.006 50,-94.8611 50,-85.9865"/>
<polygon fill="midnightblue" stroke="midnightblue" points="53.5001,-85.751 50,-75.7511 46.5001,-85.7511 53.5001,-85.751"/>
</g>
<!-- Node4 -->
<g id="node4" class="node"><title>Node4</title>
<polygon fill="white" stroke="#bfbfbf" points="-0.5,-0.5 -0.5,-19.5 40.5,-19.5 40.5,-0.5 -0.5,-0.5"/>
<text text-anchor="middle" x="20" y="-7.5" font-family="Arial.ttf" font-size="10.00">string</text>
</g>
<!-- Node3&#45;&gt;Node4 -->
<g id="edge3" class="edge"><title>Node3&#45;&gt;Node4</title>
<path fill="none" stroke="midnightblue" d="M45.0461,-56.083C40.8959,-48.6127 34.8469,-37.7244 29.7333,-28.5199"/>
<polygon fill="midnightblue" stroke="midnightblue" points="32.7777,-26.7929 24.8617,-19.7511 26.6586,-30.1924 32.7777,-26.7929"/>
</g>
<!-- Node5 -->
<g id="node5" class="node"><title>Node5</title>
<polygon fill="white" stroke="#bfbfbf" points="59,-0.5 59,-19.5 103,-19.5 103,-0.5 59,-0.5"/>
<text text-anchor="middle" x="81" y="-7.5" font-family="Arial.ttf" font-size="10.00">vector</text>
</g>
<!-- Node3&#45;&gt;Node5 -->
<g id="edge4" class="edge"><title>Node3&#45;&gt;Node5</title>
<path fill="none" stroke="midnightblue" d="M55.119,-56.083C59.4075,-48.6127 65.6582,-37.7244 70.9423,-28.5199"/>
<polygon fill="midnightblue" stroke="midnightblue" points="74.0329,-30.1662 75.9762,-19.7511 67.9621,-26.6811 74.0329,-30.1662"/>
</g>
<!-- Node6&#45;&gt;Node2 -->
<g id="edge6" class="edge"><title>Node6&#45;&gt;Node2</title>
<path fill="none" stroke="midnightblue" d="M90.9086,-168.083C83.8446,-160.298 73.4124,-148.801 64.8511,-139.367"/>
<polygon fill="midnightblue" stroke="midnightblue" points="67.2527,-136.805 57.9408,-131.751 62.0688,-141.509 67.2527,-136.805"/>
</g>
<!-- Node6&#45;&gt;Node3 -->
<g id="edge7" class="edge"><title>Node6&#45;&gt;Node3</title>
<path fill="none" stroke="midnightblue" d="M96.7155,-168.361C93.2235,-155.69 86.0056,-131.462 77,-112 72.6,-102.491 66.7046,-92.4445 61.5452,-84.2622"/>
<polygon fill="midnightblue" stroke="midnightblue" points="64.3403,-82.1398 55.9604,-75.657 58.4686,-85.9507 64.3403,-82.1398"/>
</g>
</g>
</svg>
