<?xml version="1.0" encoding="UTF-8" standalone="no"?>
<!DOCTYPE svg PUBLIC "-//W3C//DTD SVG 1.1//EN"
 "http://www.w3.org/Graphics/SVG/1.1/DTD/svg11.dtd">
<!-- Generated by graphviz version 2.44.0 (20200408.0750)
 -->
<!-- Title: SLBox.cpp Pages: 1 -->
<svg width="3214pt" height="420pt"
 viewBox="0.00 0.00 3214.00 420.00" xmlns="http://www.w3.org/2000/svg" xmlns:xlink="http://www.w3.org/1999/xlink">
<g id="graph0" class="graph" transform="scale(1 1) rotate(0) translate(4 416)">
<title>SLBox.cpp</title>
<polygon fill="white" stroke="transparent" points="-4,4 -4,-416 3210,-416 3210,4 -4,4"/>
<!-- Node1 -->
<g id="node1" class="node">
<title>Node1</title>
<g id="a_node1"><a xlink:title=" ">
<polygon fill="#bfbfbf" stroke="black" points="2876,-392.5 2876,-411.5 2941,-411.5 2941,-392.5 2876,-392.5"/>
<text text-anchor="middle" x="2908.5" y="-399.5" font-family="Arial.ttf" font-size="10.00">SLBox.cpp</text>
</a>
</g>
</g>
<!-- Node2 -->
<g id="node2" class="node">
<title>Node2</title>
<g id="a_node2"><a xlink:href="stdafx_8h.html" target="_top" xlink:title=" ">
<polygon fill="white" stroke="black" points="1236.5,-336.5 1236.5,-355.5 1288.5,-355.5 1288.5,-336.5 1236.5,-336.5"/>
<text text-anchor="middle" x="1262.5" y="-343.5" font-family="Arial.ttf" font-size="10.00">stdafx.h</text>
</a>
</g>
</g>
<!-- Node1&#45;&gt;Node2 -->
<g id="edge1" class="edge">
<title>Node1&#45;&gt;Node2</title>
<path fill="none" stroke="midnightblue" d="M2875.99,-399.93C2667.35,-393.09 1518.22,-355.39 1298.73,-348.19"/>
<polygon fill="midnightblue" stroke="midnightblue" points="1298.82,-344.69 1288.71,-347.86 1298.59,-351.69 1298.82,-344.69"/>
</g>
<!-- Node51 -->
<g id="node44" class="node">
<title>Node51</title>
<g id="a_node44"><a xlink:href="_s_l_box_8h.html" target="_top" xlink:title=" ">
<polygon fill="white" stroke="black" points="3089.5,-336.5 3089.5,-355.5 3143.5,-355.5 3143.5,-336.5 3089.5,-336.5"/>
<text text-anchor="middle" x="3116.5" y="-343.5" font-family="Arial.ttf" font-size="10.00">SLBox.h</text>
</a>
</g>
</g>
<!-- Node1&#45;&gt;Node51 -->
<g id="edge60" class="edge">
<title>Node1&#45;&gt;Node51</title>
<path fill="none" stroke="midnightblue" d="M2941.46,-392.44C2979.08,-382.68 3040.45,-366.74 3079.63,-356.57"/>
<polygon fill="midnightblue" stroke="midnightblue" points="3080.53,-359.95 3089.33,-354.05 3078.77,-353.18 3080.53,-359.95"/>
</g>
<!-- Node61 -->
<g id="node46" class="node">
<title>Node61</title>
<g id="a_node46"><a xlink:href="_s_l_material_8h.html" target="_top" xlink:title=" ">
<polygon fill="white" stroke="black" points="2873,-336.5 2873,-355.5 2944,-355.5 2944,-336.5 2873,-336.5"/>
<text text-anchor="middle" x="2908.5" y="-343.5" font-family="Arial.ttf" font-size="10.00">SLMaterial.h</text>
</a>
</g>
</g>
<!-- Node1&#45;&gt;Node61 -->
<g id="edge65" class="edge">
<title>Node1&#45;&gt;Node61</title>
<path fill="none" stroke="midnightblue" d="M2908.5,-392.08C2908.5,-385.01 2908.5,-374.86 2908.5,-365.99"/>
<polygon fill="midnightblue" stroke="midnightblue" points="2912,-365.75 2908.5,-355.75 2905,-365.75 2912,-365.75"/>
</g>
<!-- Node3 -->
<g id="node3" class="node">
<title>Node3</title>
<g id="a_node3"><a xlink:title=" ">
<polygon fill="white" stroke="#bfbfbf" points="2345.5,-280.5 2345.5,-299.5 2401.5,-299.5 2401.5,-280.5 2345.5,-280.5"/>
<text text-anchor="middle" x="2373.5" y="-287.5" font-family="Arial.ttf" font-size="10.00">algorithm</text>
</a>
</g>
</g>
<!-- Node2&#45;&gt;Node3 -->
<g id="edge2" class="edge">
<title>Node2&#45;&gt;Node3</title>
<path fill="none" stroke="midnightblue" d="M1288.76,-344.6C1430.36,-342.34 2104.75,-330.23 2335.34,-299.83"/>
<polygon fill="midnightblue" stroke="midnightblue" points="2335.9,-303.28 2345.33,-298.46 2334.95,-296.35 2335.9,-303.28"/>
</g>
<!-- Node4 -->
<g id="node4" class="node">
<title>Node4</title>
<g id="a_node4"><a xlink:title=" ">
<polygon fill="white" stroke="#bfbfbf" points="2683.5,-224.5 2683.5,-243.5 2729.5,-243.5 2729.5,-224.5 2683.5,-224.5"/>
<text text-anchor="middle" x="2706.5" y="-231.5" font-family="Arial.ttf" font-size="10.00">atomic</text>
</a>
</g>
</g>
<!-- Node2&#45;&gt;Node4 -->
<g id="edge3" class="edge">
<title>Node2&#45;&gt;Node4</title>
<path fill="none" stroke="midnightblue" d="M1288.71,-344.89C1476.19,-343.99 2608.09,-337.03 2669.5,-300 2686.32,-289.86 2696.18,-269 2701.44,-253.64"/>
<polygon fill="midnightblue" stroke="midnightblue" points="2704.91,-254.24 2704.48,-243.65 2698.22,-252.2 2704.91,-254.24"/>
</g>
<!-- Node5 -->
<g id="node5" class="node">
<title>Node5</title>
<g id="a_node5"><a xlink:title=" ">
<polygon fill="white" stroke="#bfbfbf" points="2419.5,-280.5 2419.5,-299.5 2465.5,-299.5 2465.5,-280.5 2419.5,-280.5"/>
<text text-anchor="middle" x="2442.5" y="-287.5" font-family="Arial.ttf" font-size="10.00">chrono</text>
</a>
</g>
</g>
<!-- Node2&#45;&gt;Node5 -->
<g id="edge4" class="edge">
<title>Node2&#45;&gt;Node5</title>
<path fill="none" stroke="midnightblue" d="M1288.61,-344.81C1435.78,-343.61 2163.64,-336 2409.29,-299.75"/>
<polygon fill="midnightblue" stroke="midnightblue" points="2409.87,-303.21 2419.22,-298.23 2408.81,-296.29 2409.87,-303.21"/>
</g>
<!-- Node6 -->
<g id="node6" class="node">
<title>Node6</title>
<g id="a_node6"><a xlink:title=" ">
<polygon fill="white" stroke="#bfbfbf" points="2484,-280.5 2484,-299.5 2533,-299.5 2533,-280.5 2484,-280.5"/>
<text text-anchor="middle" x="2508.5" y="-287.5" font-family="Arial.ttf" font-size="10.00">cstdarg</text>
</a>
</g>
</g>
<!-- Node2&#45;&gt;Node6 -->
<g id="edge5" class="edge">
<title>Node2&#45;&gt;Node6</title>
<path fill="none" stroke="midnightblue" d="M1288.53,-344.82C1440.37,-343.64 2213.45,-336.01 2473.6,-299.7"/>
<polygon fill="midnightblue" stroke="midnightblue" points="2474.36,-303.13 2483.75,-298.23 2473.35,-296.2 2474.36,-303.13"/>
</g>
<!-- Node7 -->
<g id="node7" class="node">
<title>Node7</title>
<g id="a_node7"><a xlink:title=" ">
<polygon fill="white" stroke="#bfbfbf" points="2551,-280.5 2551,-299.5 2592,-299.5 2592,-280.5 2551,-280.5"/>
<text text-anchor="middle" x="2571.5" y="-287.5" font-family="Arial.ttf" font-size="10.00">ctime</text>
</a>
</g>
</g>
<!-- Node2&#45;&gt;Node7 -->
<g id="edge6" class="edge">
<title>Node2&#45;&gt;Node7</title>
<path fill="none" stroke="midnightblue" d="M1288.71,-345.03C1446.09,-345.04 2267.64,-343.07 2540.5,-299.85"/>
<polygon fill="midnightblue" stroke="midnightblue" points="2541.45,-303.24 2550.75,-298.16 2540.32,-296.33 2541.45,-303.24"/>
</g>
<!-- Node8 -->
<g id="node8" class="node">
<title>Node8</title>
<g id="a_node8"><a xlink:title=" ">
<polygon fill="white" stroke="#bfbfbf" points="2610.5,-280.5 2610.5,-299.5 2660.5,-299.5 2660.5,-280.5 2610.5,-280.5"/>
<text text-anchor="middle" x="2635.5" y="-287.5" font-family="Arial.ttf" font-size="10.00">fstream</text>
</a>
</g>
</g>
<!-- Node2&#45;&gt;Node8 -->
<g id="edge7" class="edge">
<title>Node2&#45;&gt;Node8</title>
<path fill="none" stroke="midnightblue" d="M1288.56,-344.92C1449.83,-344.33 2313.97,-339.42 2600.44,-299.75"/>
<polygon fill="midnightblue" stroke="midnightblue" points="2600.98,-303.21 2610.38,-298.32 2599.98,-296.28 2600.98,-303.21"/>
</g>
<!-- Node9 -->
<g id="node9" class="node">
<title>Node9</title>
<g id="a_node9"><a xlink:title=" ">
<polygon fill="white" stroke="#bfbfbf" points="0,-280.5 0,-299.5 59,-299.5 59,-280.5 0,-280.5"/>
<text text-anchor="middle" x="29.5" y="-287.5" font-family="Arial.ttf" font-size="10.00">functional</text>
</a>
</g>
</g>
<!-- Node2&#45;&gt;Node9 -->
<g id="edge8" class="edge">
<title>Node2&#45;&gt;Node9</title>
<path fill="none" stroke="midnightblue" d="M1236.37,-344.69C1085.7,-342.79 325.9,-331.82 69.22,-299.76"/>
<polygon fill="midnightblue" stroke="midnightblue" points="69.57,-296.28 59.2,-298.46 68.67,-303.22 69.57,-296.28"/>
</g>
<!-- Node10 -->
<g id="node10" class="node">
<title>Node10</title>
<g id="a_node10"><a xlink:title=" ">
<polygon fill="white" stroke="#bfbfbf" points="77.5,-280.5 77.5,-299.5 127.5,-299.5 127.5,-280.5 77.5,-280.5"/>
<text text-anchor="middle" x="102.5" y="-287.5" font-family="Arial.ttf" font-size="10.00">iomanip</text>
</a>
</g>
</g>
<!-- Node2&#45;&gt;Node10 -->
<g id="edge9" class="edge">
<title>Node2&#45;&gt;Node10</title>
<path fill="none" stroke="midnightblue" d="M1236.07,-344.61C1088.29,-342.32 363.02,-329.74 141.5,-300 140.22,-299.83 138.92,-299.63 137.62,-299.42"/>
<polygon fill="midnightblue" stroke="midnightblue" points="138.03,-295.94 127.55,-297.51 136.72,-302.81 138.03,-295.94"/>
</g>
<!-- Node11 -->
<g id="node11" class="node">
<title>Node11</title>
<g id="a_node11"><a xlink:title=" ">
<polygon fill="white" stroke="#bfbfbf" points="649.5,-112.5 649.5,-131.5 703.5,-131.5 703.5,-112.5 649.5,-112.5"/>
<text text-anchor="middle" x="676.5" y="-119.5" font-family="Arial.ttf" font-size="10.00">iostream</text>
</a>
</g>
</g>
<!-- Node2&#45;&gt;Node11 -->
<g id="edge10" class="edge">
<title>Node2&#45;&gt;Node11</title>
<path fill="none" stroke="midnightblue" d="M1236.44,-344.83C1082.29,-343.73 295.23,-336.32 260.5,-300 143.76,-177.9 517.35,-136 639.32,-125.75"/>
<polygon fill="midnightblue" stroke="midnightblue" points="639.64,-129.23 649.32,-124.93 639.07,-122.26 639.64,-129.23"/>
</g>
<!-- Node12 -->
<g id="node12" class="node">
<title>Node12</title>
<g id="a_node12"><a xlink:title=" ">
<polygon fill="white" stroke="#bfbfbf" points="184,-280.5 184,-299.5 213,-299.5 213,-280.5 184,-280.5"/>
<text text-anchor="middle" x="198.5" y="-287.5" font-family="Arial.ttf" font-size="10.00">list</text>
</a>
</g>
</g>
<!-- Node2&#45;&gt;Node12 -->
<g id="edge11" class="edge">
<title>Node2&#45;&gt;Node12</title>
<path fill="none" stroke="midnightblue" d="M1236.24,-344.77C1095.57,-343.42 429.95,-335.21 227.5,-300 226.01,-299.74 224.48,-299.43 222.95,-299.07"/>
<polygon fill="midnightblue" stroke="midnightblue" points="223.65,-295.63 213.07,-296.33 221.77,-302.37 223.65,-295.63"/>
</g>
<!-- Node13 -->
<g id="node13" class="node">
<title>Node13</title>
<g id="a_node13"><a xlink:title=" ">
<polygon fill="white" stroke="#bfbfbf" points="2176,-168.5 2176,-187.5 2211,-187.5 2211,-168.5 2176,-168.5"/>
<text text-anchor="middle" x="2193.5" y="-175.5" font-family="Arial.ttf" font-size="10.00">map</text>
</a>
</g>
</g>
<!-- Node2&#45;&gt;Node13 -->
<g id="edge12" class="edge">
<title>Node2&#45;&gt;Node13</title>
<path fill="none" stroke="midnightblue" d="M1288.78,-342.5C1332.78,-337.74 1423.69,-325.53 1496.5,-300 1514.51,-293.69 1516.37,-285.97 1534.5,-280 1770.34,-202.3 2073.69,-183.9 2165.79,-179.98"/>
<polygon fill="midnightblue" stroke="midnightblue" points="2166.1,-183.47 2175.95,-179.57 2165.82,-176.47 2166.1,-183.47"/>
</g>
<!-- Node14 -->
<g id="node14" class="node">
<title>Node14</title>
<g id="a_node14"><a xlink:title=" ">
<polygon fill="white" stroke="#bfbfbf" points="270,-280.5 270,-299.5 313,-299.5 313,-280.5 270,-280.5"/>
<text text-anchor="middle" x="291.5" y="-287.5" font-family="Arial.ttf" font-size="10.00">queue</text>
</a>
</g>
</g>
<!-- Node2&#45;&gt;Node14 -->
<g id="edge13" class="edge">
<title>Node2&#45;&gt;Node14</title>
<path fill="none" stroke="midnightblue" d="M1236.49,-344.61C1106.41,-342.54 525.03,-331.75 323.47,-299.89"/>
<polygon fill="midnightblue" stroke="midnightblue" points="323.75,-296.39 313.31,-298.21 322.6,-303.3 323.75,-296.39"/>
</g>
<!-- Node15 -->
<g id="node15" class="node">
<title>Node15</title>
<g id="a_node15"><a xlink:title=" ">
<polygon fill="white" stroke="#bfbfbf" points="331,-280.5 331,-299.5 380,-299.5 380,-280.5 331,-280.5"/>
<text text-anchor="middle" x="355.5" y="-287.5" font-family="Arial.ttf" font-size="10.00">random</text>
</a>
</g>
</g>
<!-- Node2&#45;&gt;Node15 -->
<g id="edge14" class="edge">
<title>Node2&#45;&gt;Node15</title>
<path fill="none" stroke="midnightblue" d="M1236.32,-344.38C1111.88,-341.34 578.69,-327.03 390.3,-299.71"/>
<polygon fill="midnightblue" stroke="midnightblue" points="390.67,-296.22 380.26,-298.19 389.62,-303.15 390.67,-296.22"/>
</g>
<!-- Node16 -->
<g id="node16" class="node">
<title>Node16</title>
<g id="a_node16"><a xlink:title=" ">
<polygon fill="white" stroke="#bfbfbf" points="398.5,-280.5 398.5,-299.5 450.5,-299.5 450.5,-280.5 398.5,-280.5"/>
<text text-anchor="middle" x="424.5" y="-287.5" font-family="Arial.ttf" font-size="10.00">sstream</text>
</a>
</g>
</g>
<!-- Node2&#45;&gt;Node16 -->
<g id="edge15" class="edge">
<title>Node2&#45;&gt;Node16</title>
<path fill="none" stroke="midnightblue" d="M1236.31,-345.38C1136.44,-346.46 770.01,-346.9 460.81,-299.89"/>
<polygon fill="midnightblue" stroke="midnightblue" points="461.17,-296.4 450.76,-298.34 460.11,-303.32 461.17,-296.4"/>
</g>
<!-- Node17 -->
<g id="node17" class="node">
<title>Node17</title>
<g id="a_node17"><a xlink:title=" ">
<polygon fill="white" stroke="#bfbfbf" points="469,-280.5 469,-299.5 510,-299.5 510,-280.5 469,-280.5"/>
<text text-anchor="middle" x="489.5" y="-287.5" font-family="Arial.ttf" font-size="10.00">string</text>
</a>
</g>
</g>
<!-- Node2&#45;&gt;Node17 -->
<g id="edge16" class="edge">
<title>Node2&#45;&gt;Node17</title>
<path fill="none" stroke="midnightblue" d="M1236.49,-344.23C1124.39,-340.79 681.3,-325.94 520.2,-299.59"/>
<polygon fill="midnightblue" stroke="midnightblue" points="520.45,-296.08 510.01,-297.83 519.27,-302.98 520.45,-296.08"/>
</g>
<!-- Node18 -->
<g id="node18" class="node">
<title>Node18</title>
<g id="a_node18"><a xlink:title=" ">
<polygon fill="white" stroke="#bfbfbf" points="528.5,-280.5 528.5,-299.5 572.5,-299.5 572.5,-280.5 528.5,-280.5"/>
<text text-anchor="middle" x="550.5" y="-287.5" font-family="Arial.ttf" font-size="10.00">thread</text>
</a>
</g>
</g>
<!-- Node2&#45;&gt;Node18 -->
<g id="edge17" class="edge">
<title>Node2&#45;&gt;Node18</title>
<path fill="none" stroke="midnightblue" d="M1236.28,-345.3C1146.24,-345.9 841.43,-344.41 582.67,-299.82"/>
<polygon fill="midnightblue" stroke="midnightblue" points="583.17,-296.35 572.71,-298.07 581.96,-303.25 583.17,-296.35"/>
</g>
<!-- Node19 -->
<g id="node19" class="node">
<title>Node19</title>
<g id="a_node19"><a xlink:title=" ">
<polygon fill="white" stroke="#bfbfbf" points="591,-280.5 591,-299.5 642,-299.5 642,-280.5 591,-280.5"/>
<text text-anchor="middle" x="616.5" y="-287.5" font-family="Arial.ttf" font-size="10.00">typeinfo</text>
</a>
</g>
</g>
<!-- Node2&#45;&gt;Node19 -->
<g id="edge18" class="edge">
<title>Node2&#45;&gt;Node19</title>
<path fill="none" stroke="midnightblue" d="M1236.4,-344.73C1152.72,-343.54 883.62,-336.99 651.96,-299.74"/>
<polygon fill="midnightblue" stroke="midnightblue" points="652.44,-296.27 642,-298.12 651.31,-303.18 652.44,-296.27"/>
</g>
<!-- Node20 -->
<g id="node20" class="node">
<title>Node20</title>
<g id="a_node20"><a xlink:title=" ">
<polygon fill="white" stroke="#bfbfbf" points="660.5,-280.5 660.5,-299.5 704.5,-299.5 704.5,-280.5 660.5,-280.5"/>
<text text-anchor="middle" x="682.5" y="-287.5" font-family="Arial.ttf" font-size="10.00">vector</text>
</a>
</g>
</g>
<!-- Node2&#45;&gt;Node20 -->
<g id="edge19" class="edge">
<title>Node2&#45;&gt;Node20</title>
<path fill="none" stroke="midnightblue" d="M1236.25,-344.71C1158.08,-343.46 920.02,-336.82 714.78,-299.87"/>
<polygon fill="midnightblue" stroke="midnightblue" points="715.19,-296.39 704.72,-298.03 713.93,-303.27 715.19,-296.39"/>
</g>
<!-- Node21 -->
<g id="node21" class="node">
<title>Node21</title>
<g id="a_node21"><a xlink:title=" ">
<polygon fill="white" stroke="#bfbfbf" points="722.5,-280.5 722.5,-299.5 774.5,-299.5 774.5,-280.5 722.5,-280.5"/>
<text text-anchor="middle" x="748.5" y="-287.5" font-family="Arial.ttf" font-size="10.00">memory</text>
</a>
</g>
</g>
<!-- Node2&#45;&gt;Node21 -->
<g id="edge20" class="edge">
<title>Node2&#45;&gt;Node21</title>
<path fill="none" stroke="midnightblue" d="M1236.35,-344C1165.24,-340.96 962.37,-330.26 784.82,-299.97"/>
<polygon fill="midnightblue" stroke="midnightblue" points="785.23,-296.49 774.78,-298.23 784.03,-303.39 785.23,-296.49"/>
</g>
<!-- Node22 -->
<g id="node22" class="node">
<title>Node22</title>
<g id="a_node22"><a xlink:title=" ">
<polygon fill="white" stroke="#bfbfbf" points="793,-280.5 793,-299.5 842,-299.5 842,-280.5 793,-280.5"/>
<text text-anchor="middle" x="817.5" y="-287.5" font-family="Arial.ttf" font-size="10.00">cassert</text>
</a>
</g>
</g>
<!-- Node2&#45;&gt;Node22 -->
<g id="edge21" class="edge">
<title>Node2&#45;&gt;Node22</title>
<path fill="none" stroke="midnightblue" d="M1236.26,-343.57C1172.12,-339.78 1002.22,-327.89 852.13,-300.06"/>
<polygon fill="midnightblue" stroke="midnightblue" points="852.74,-296.62 842.27,-298.2 851.45,-303.49 852.74,-296.62"/>
</g>
<!-- Node23 -->
<g id="node23" class="node">
<title>Node23</title>
<g id="a_node23"><a xlink:title=" ">
<polygon fill="white" stroke="#bfbfbf" points="860,-280.5 860,-299.5 901,-299.5 901,-280.5 860,-280.5"/>
<text text-anchor="middle" x="880.5" y="-287.5" font-family="Arial.ttf" font-size="10.00">cfloat</text>
</a>
</g>
</g>
<!-- Node2&#45;&gt;Node23 -->
<g id="edge22" class="edge">
<title>Node2&#45;&gt;Node23</title>
<path fill="none" stroke="midnightblue" d="M1236.11,-343.21C1178.54,-338.99 1037.36,-326.8 911.13,-300.05"/>
<polygon fill="midnightblue" stroke="midnightblue" points="911.81,-296.62 901.29,-297.93 910.33,-303.46 911.81,-296.62"/>
</g>
<!-- Node24 -->
<g id="node24" class="node">
<title>Node24</title>
<g id="a_node24"><a xlink:title=" ">
<polygon fill="white" stroke="#bfbfbf" points="919,-280.5 919,-299.5 964,-299.5 964,-280.5 919,-280.5"/>
<text text-anchor="middle" x="941.5" y="-287.5" font-family="Arial.ttf" font-size="10.00">climits</text>
</a>
</g>
</g>
<!-- Node2&#45;&gt;Node24 -->
<g id="edge23" class="edge">
<title>Node2&#45;&gt;Node24</title>
<path fill="none" stroke="midnightblue" d="M1236.4,-342C1187.08,-336.1 1076.69,-321.83 974.05,-299.88"/>
<polygon fill="midnightblue" stroke="midnightblue" points="974.66,-296.43 964.14,-297.73 973.17,-303.27 974.66,-296.43"/>
</g>
<!-- Node25 -->
<g id="node25" class="node">
<title>Node25</title>
<g id="a_node25"><a xlink:title=" ">
<polygon fill="white" stroke="#bfbfbf" points="982.5,-280.5 982.5,-299.5 1026.5,-299.5 1026.5,-280.5 982.5,-280.5"/>
<text text-anchor="middle" x="1004.5" y="-287.5" font-family="Arial.ttf" font-size="10.00">cmath</text>
</a>
</g>
</g>
<!-- Node2&#45;&gt;Node25 -->
<g id="edge24" class="edge">
<title>Node2&#45;&gt;Node25</title>
<path fill="none" stroke="midnightblue" d="M1236.47,-340.6C1195.84,-333.57 1114.72,-318.88 1036.77,-300.15"/>
<polygon fill="midnightblue" stroke="midnightblue" points="1037.33,-296.68 1026.79,-297.72 1035.68,-303.48 1037.33,-296.68"/>
</g>
<!-- Node26 -->
<g id="node26" class="node">
<title>Node26</title>
<g id="a_node26"><a xlink:title=" ">
<polygon fill="white" stroke="#bfbfbf" points="1045,-280.5 1045,-299.5 1088,-299.5 1088,-280.5 1045,-280.5"/>
<text text-anchor="middle" x="1066.5" y="-287.5" font-family="Arial.ttf" font-size="10.00">cstdio</text>
</a>
</g>
</g>
<!-- Node2&#45;&gt;Node26 -->
<g id="edge25" class="edge">
<title>Node2&#45;&gt;Node26</title>
<path fill="none" stroke="midnightblue" d="M1236.28,-338.12C1205.36,-329.97 1152.21,-315.78 1097.9,-300.35"/>
<polygon fill="midnightblue" stroke="midnightblue" points="1098.69,-296.94 1088.11,-297.56 1096.77,-303.67 1098.69,-296.94"/>
</g>
<!-- Node27 -->
<g id="node27" class="node">
<title>Node27</title>
<g id="a_node27"><a xlink:title=" ">
<polygon fill="white" stroke="#bfbfbf" points="1106,-280.5 1106,-299.5 1151,-299.5 1151,-280.5 1106,-280.5"/>
<text text-anchor="middle" x="1128.5" y="-287.5" font-family="Arial.ttf" font-size="10.00">cstdlib</text>
</a>
</g>
</g>
<!-- Node2&#45;&gt;Node27 -->
<g id="edge26" class="edge">
<title>Node2&#45;&gt;Node27</title>
<path fill="none" stroke="midnightblue" d="M1241.27,-336.44C1219.12,-327.52 1184.18,-313.44 1159.06,-303.32"/>
<polygon fill="midnightblue" stroke="midnightblue" points="1160.22,-300.01 1149.63,-299.52 1157.6,-306.5 1160.22,-300.01"/>
</g>
<!-- Node28 -->
<g id="node28" class="node">
<title>Node28</title>
<g id="a_node28"><a xlink:title=" ">
<polygon fill="white" stroke="#bfbfbf" points="1169.5,-280.5 1169.5,-299.5 1215.5,-299.5 1215.5,-280.5 1169.5,-280.5"/>
<text text-anchor="middle" x="1192.5" y="-287.5" font-family="Arial.ttf" font-size="10.00">cstring</text>
</a>
</g>
</g>
<!-- Node2&#45;&gt;Node28 -->
<g id="edge27" class="edge">
<title>Node2&#45;&gt;Node28</title>
<path fill="none" stroke="midnightblue" d="M1251.25,-336.32C1240.7,-328.18 1224.7,-315.84 1212.06,-306.09"/>
<polygon fill="midnightblue" stroke="midnightblue" points="1214.01,-303.17 1203.95,-299.83 1209.73,-308.71 1214.01,-303.17"/>
</g>
<!-- Node29 -->
<g id="node29" class="node">
<title>Node29</title>
<g id="a_node29"><a xlink:href="_s_l_8h.html" target="_top" xlink:title=" ">
<polygon fill="white" stroke="red" points="1382,-0.5 1382,-19.5 1419,-19.5 1419,-0.5 1382,-0.5"/>
<text text-anchor="middle" x="1400.5" y="-7.5" font-family="Arial.ttf" font-size="10.00">SL.h</text>
</a>
</g>
</g>
<!-- Node2&#45;&gt;Node29 -->
<g id="edge28" class="edge">
<title>Node2&#45;&gt;Node29</title>
<path fill="none" stroke="midnightblue" d="M1236.48,-344.78C1075.23,-343.28 217.66,-333.76 174.5,-300 150.79,-281.45 155.5,-265.1 155.5,-235 155.5,-235 155.5,-235 155.5,-121 155.5,-57.84 1185.61,-18.57 1371.83,-11.99"/>
<polygon fill="midnightblue" stroke="midnightblue" points="1372.06,-15.48 1381.93,-11.63 1371.82,-8.48 1372.06,-15.48"/>
</g>
<!-- Node33 -->
<g id="node30" class="node">
<title>Node33</title>
<g id="a_node30"><a xlink:href="_s_l_enums_8h.html" target="_top" xlink:title=" ">
<polygon fill="white" stroke="black" points="3079.5,-224.5 3079.5,-243.5 3147.5,-243.5 3147.5,-224.5 3079.5,-224.5"/>
<text text-anchor="middle" x="3113.5" y="-231.5" font-family="Arial.ttf" font-size="10.00">SLEnums.h</text>
</a>
</g>
</g>
<!-- Node2&#45;&gt;Node33 -->
<g id="edge29" class="edge">
<title>Node2&#45;&gt;Node33</title>
<path fill="none" stroke="midnightblue" d="M1288.71,-344.76C1501.16,-342.8 2935.6,-328.5 3021.5,-300 3051.49,-290.05 3080.27,-266.77 3097.42,-250.95"/>
<polygon fill="midnightblue" stroke="midnightblue" points="3100.03,-253.3 3104.86,-243.87 3095.2,-248.23 3100.03,-253.3"/>
</g>
<!-- Node34 -->
<g id="node31" class="node">
<title>Node34</title>
<g id="a_node31"><a xlink:href="_s_l_mat3_8h.html" target="_top" xlink:title=" ">
<polygon fill="white" stroke="red" points="1232,-168.5 1232,-187.5 1291,-187.5 1291,-168.5 1232,-168.5"/>
<text text-anchor="middle" x="1261.5" y="-175.5" font-family="Arial.ttf" font-size="10.00">SLMat3.h</text>
</a>
</g>
</g>
<!-- Node2&#45;&gt;Node34 -->
<g id="edge30" class="edge">
<title>Node2&#45;&gt;Node34</title>
<path fill="none" stroke="midnightblue" d="M1262.45,-336.08C1262.29,-309.95 1261.83,-233.21 1261.61,-197.58"/>
<polygon fill="midnightblue" stroke="midnightblue" points="1265.11,-197.55 1261.55,-187.57 1258.11,-197.59 1265.11,-197.55"/>
</g>
<!-- Node35 -->
<g id="node32" class="node">
<title>Node35</title>
<g id="a_node32"><a xlink:href="_s_l_vec3_8h.html" target="_top" xlink:title=" ">
<polygon fill="white" stroke="red" points="1275,-112.5 1275,-131.5 1334,-131.5 1334,-112.5 1275,-112.5"/>
<text text-anchor="middle" x="1304.5" y="-119.5" font-family="Arial.ttf" font-size="10.00">SLVec3.h</text>
</a>
</g>
</g>
<!-- Node2&#45;&gt;Node35 -->
<g id="edge52" class="edge">
<title>Node2&#45;&gt;Node35</title>
<path fill="none" stroke="midnightblue" d="M1265.15,-336.42C1267.9,-327.39 1272.24,-312.76 1275.5,-300 1288.14,-250.59 1293.36,-238.5 1300.5,-188 1302.68,-172.59 1303.67,-154.95 1304.12,-141.95"/>
<polygon fill="midnightblue" stroke="midnightblue" points="1307.62,-141.97 1304.4,-131.88 1300.63,-141.78 1307.62,-141.97"/>
</g>
<!-- Node36 -->
<g id="node33" class="node">
<title>Node36</title>
<g id="a_node33"><a xlink:href="_s_l_vec2_8h.html" target="_top" xlink:title=" ">
<polygon fill="white" stroke="red" points="1313,-56.5 1313,-75.5 1372,-75.5 1372,-56.5 1313,-56.5"/>
<text text-anchor="middle" x="1342.5" y="-63.5" font-family="Arial.ttf" font-size="10.00">SLVec2.h</text>
</a>
</g>
</g>
<!-- Node2&#45;&gt;Node36 -->
<g id="edge51" class="edge">
<title>Node2&#45;&gt;Node36</title>
<path fill="none" stroke="midnightblue" d="M1257.21,-336.34C1242.03,-310.33 1200.77,-230.82 1222.5,-168 1237.12,-125.74 1282.36,-96.13 1312.93,-80.34"/>
<polygon fill="midnightblue" stroke="midnightblue" points="1314.88,-83.28 1322.28,-75.7 1311.76,-77.01 1314.88,-83.28"/>
</g>
<!-- Node37 -->
<g id="node34" class="node">
<title>Node37</title>
<g id="a_node34"><a xlink:href="_s_l_mat4_8h.html" target="_top" xlink:title=" ">
<polygon fill="white" stroke="red" points="1348,-224.5 1348,-243.5 1407,-243.5 1407,-224.5 1348,-224.5"/>
<text text-anchor="middle" x="1377.5" y="-231.5" font-family="Arial.ttf" font-size="10.00">SLMat4.h</text>
</a>
</g>
</g>
<!-- Node2&#45;&gt;Node37 -->
<g id="edge37" class="edge">
<title>Node2&#45;&gt;Node37</title>
<path fill="none" stroke="midnightblue" d="M1280.25,-336.4C1295.53,-328.41 1317.58,-315.45 1333.5,-300 1347.82,-286.1 1360.16,-266.83 1368.09,-252.89"/>
<polygon fill="midnightblue" stroke="midnightblue" points="1371.32,-254.28 1373.06,-243.82 1365.18,-250.91 1371.32,-254.28"/>
</g>
<!-- Node39 -->
<g id="node35" class="node">
<title>Node39</title>
<g id="a_node35"><a xlink:href="_s_l_vec4_8h.html" target="_top" xlink:title=" ">
<polygon fill="white" stroke="red" points="1424,-168.5 1424,-187.5 1483,-187.5 1483,-168.5 1424,-168.5"/>
<text text-anchor="middle" x="1453.5" y="-175.5" font-family="Arial.ttf" font-size="10.00">SLVec4.h</text>
</a>
</g>
</g>
<!-- Node2&#45;&gt;Node39 -->
<g id="edge53" class="edge">
<title>Node2&#45;&gt;Node39</title>
<path fill="none" stroke="midnightblue" d="M1284.53,-336.5C1304.01,-328.48 1332.8,-315.42 1355.5,-300 1385.94,-279.32 1393.57,-272.78 1416.5,-244 1428.24,-229.27 1438.55,-210.37 1445.29,-196.75"/>
<polygon fill="midnightblue" stroke="midnightblue" points="1448.54,-198.05 1449.7,-187.52 1442.23,-195.03 1448.54,-198.05"/>
</g>
<!-- Node43 -->
<g id="node36" class="node">
<title>Node43</title>
<g id="a_node36"><a xlink:href="_s_l_object_8h.html" target="_top" xlink:title=" ">
<polygon fill="white" stroke="black" points="2821,-168.5 2821,-187.5 2886,-187.5 2886,-168.5 2821,-168.5"/>
<text text-anchor="middle" x="2853.5" y="-175.5" font-family="Arial.ttf" font-size="10.00">SLObject.h</text>
</a>
</g>
</g>
<!-- Node2&#45;&gt;Node43 -->
<g id="edge45" class="edge">
<title>Node2&#45;&gt;Node43</title>
<path fill="none" stroke="midnightblue" d="M1288.76,-345.06C1487.06,-345.41 2743.06,-345.84 2807.5,-300 2809.71,-298.43 2834.76,-230.38 2846.93,-197.04"/>
<polygon fill="midnightblue" stroke="midnightblue" points="2850.25,-198.16 2850.39,-187.56 2843.68,-195.76 2850.25,-198.16"/>
</g>
<!-- Node44 -->
<g id="node37" class="node">
<title>Node44</title>
<g id="a_node37"><a xlink:href="_s_l_quat4_8h.html" target="_top" xlink:title=" ">
<polygon fill="white" stroke="red" points="1424,-280.5 1424,-299.5 1487,-299.5 1487,-280.5 1424,-280.5"/>
<text text-anchor="middle" x="1455.5" y="-287.5" font-family="Arial.ttf" font-size="10.00">SLQuat4.h</text>
</a>
</g>
</g>
<!-- Node2&#45;&gt;Node44 -->
<g id="edge47" class="edge">
<title>Node2&#45;&gt;Node44</title>
<path fill="none" stroke="midnightblue" d="M1288.53,-337.72C1321.02,-328.63 1376.95,-312.98 1415.04,-302.32"/>
<polygon fill="midnightblue" stroke="midnightblue" points="1416.11,-305.66 1424.8,-299.59 1414.23,-298.91 1416.11,-305.66"/>
</g>
<!-- Node45 -->
<g id="node38" class="node">
<title>Node45</title>
<g id="a_node38"><a xlink:title=" ">
<polygon fill="white" stroke="#bfbfbf" points="1543.5,-280.5 1543.5,-299.5 1659.5,-299.5 1659.5,-280.5 1543.5,-280.5"/>
<text text-anchor="middle" x="1601.5" y="-287.5" font-family="Arial.ttf" font-size="10.00">opencv2/core/core.hpp</text>
</a>
</g>
</g>
<!-- Node2&#45;&gt;Node45 -->
<g id="edge54" class="edge">
<title>Node2&#45;&gt;Node45</title>
<path fill="none" stroke="midnightblue" d="M1288.54,-340.85C1341.4,-332.43 1462.65,-313.12 1537.76,-301.15"/>
<polygon fill="midnightblue" stroke="midnightblue" points="1538.71,-304.55 1548.04,-299.52 1537.61,-297.63 1538.71,-304.55"/>
</g>
<!-- Node46 -->
<g id="node39" class="node">
<title>Node46</title>
<g id="a_node39"><a xlink:title=" ">
<polygon fill="white" stroke="#bfbfbf" points="1678,-280.5 1678,-299.5 1797,-299.5 1797,-280.5 1678,-280.5"/>
<text text-anchor="middle" x="1737.5" y="-287.5" font-family="Arial.ttf" font-size="10.00">opencv2/core/utility.hpp</text>
</a>
</g>
</g>
<!-- Node2&#45;&gt;Node46 -->
<g id="edge55" class="edge">
<title>Node2&#45;&gt;Node46</title>
<path fill="none" stroke="midnightblue" d="M1288.64,-342.28C1351.73,-335.68 1517.55,-318.1 1667.37,-300.12"/>
<polygon fill="midnightblue" stroke="midnightblue" points="1668.16,-303.55 1677.67,-298.88 1667.32,-296.6 1668.16,-303.55"/>
</g>
<!-- Node47 -->
<g id="node40" class="node">
<title>Node47</title>
<g id="a_node40"><a xlink:title=" ">
<polygon fill="white" stroke="#bfbfbf" points="1815.5,-280.5 1815.5,-299.5 1921.5,-299.5 1921.5,-280.5 1815.5,-280.5"/>
<text text-anchor="middle" x="1868.5" y="-287.5" font-family="Arial.ttf" font-size="10.00">opencv2/highgui.hpp</text>
</a>
</g>
</g>
<!-- Node2&#45;&gt;Node47 -->
<g id="edge56" class="edge">
<title>Node2&#45;&gt;Node47</title>
<path fill="none" stroke="midnightblue" d="M1288.6,-343.41C1365.83,-338.6 1600.11,-323.13 1805.37,-300.06"/>
<polygon fill="midnightblue" stroke="midnightblue" points="1805.89,-303.53 1815.43,-298.92 1805.1,-296.57 1805.89,-303.53"/>
</g>
<!-- Node48 -->
<g id="node41" class="node">
<title>Node48</title>
<g id="a_node41"><a xlink:title=" ">
<polygon fill="white" stroke="#bfbfbf" points="1939.5,-280.5 1939.5,-299.5 2049.5,-299.5 2049.5,-280.5 1939.5,-280.5"/>
<text text-anchor="middle" x="1994.5" y="-287.5" font-family="Arial.ttf" font-size="10.00">opencv2/imgproc.hpp</text>
</a>
</g>
</g>
<!-- Node2&#45;&gt;Node48 -->
<g id="edge57" class="edge">
<title>Node2&#45;&gt;Node48</title>
<path fill="none" stroke="midnightblue" d="M1288.66,-343.92C1377.13,-340.13 1673.4,-326.25 1929.15,-300.07"/>
<polygon fill="midnightblue" stroke="midnightblue" points="1929.79,-303.52 1939.37,-299.01 1929.07,-296.56 1929.79,-303.52"/>
</g>
<!-- Node49 -->
<g id="node42" class="node">
<title>Node49</title>
<g id="a_node42"><a xlink:title=" ">
<polygon fill="white" stroke="#bfbfbf" points="2067.5,-280.5 2067.5,-299.5 2173.5,-299.5 2173.5,-280.5 2067.5,-280.5"/>
<text text-anchor="middle" x="2120.5" y="-287.5" font-family="Arial.ttf" font-size="10.00">opencv2/calib3d.hpp</text>
</a>
</g>
</g>
<!-- Node2&#45;&gt;Node49 -->
<g id="edge58" class="edge">
<title>Node2&#45;&gt;Node49</title>
<path fill="none" stroke="midnightblue" d="M1288.68,-344.35C1387.71,-341.74 1749.02,-330.6 2057.41,-300.02"/>
<polygon fill="midnightblue" stroke="midnightblue" points="2057.84,-303.49 2067.44,-299.01 2057.14,-296.53 2057.84,-303.49"/>
</g>
<!-- Node50 -->
<g id="node43" class="node">
<title>Node50</title>
<g id="a_node43"><a xlink:title=" ">
<polygon fill="white" stroke="#bfbfbf" points="2191.5,-280.5 2191.5,-299.5 2327.5,-299.5 2327.5,-280.5 2191.5,-280.5"/>
<text text-anchor="middle" x="2259.5" y="-287.5" font-family="Arial.ttf" font-size="10.00">opencv2/video/tracking.hpp</text>
</a>
</g>
</g>
<!-- Node2&#45;&gt;Node50 -->
<g id="edge59" class="edge">
<title>Node2&#45;&gt;Node50</title>
<path fill="none" stroke="midnightblue" d="M1288.52,-344.37C1396.63,-341.62 1821.12,-329.49 2181,-300.07"/>
<polygon fill="midnightblue" stroke="midnightblue" points="2181.41,-303.55 2191.09,-299.24 2180.84,-296.57 2181.41,-303.55"/>
</g>
<!-- Node34&#45;&gt;Node11 -->
<g id="edge36" class="edge">
<title>Node34&#45;&gt;Node11</title>
<path fill="none" stroke="midnightblue" d="M1231.69,-174.25C1133.67,-165.2 821.5,-136.38 713.6,-126.43"/>
<polygon fill="midnightblue" stroke="midnightblue" points="713.8,-122.93 703.52,-125.49 713.16,-129.9 713.8,-122.93"/>
</g>
<!-- Node34&#45;&gt;Node29 -->
<g id="edge31" class="edge">
<title>Node34&#45;&gt;Node29</title>
<path fill="none" stroke="midnightblue" d="M1260.97,-168.48C1260.1,-146.39 1261.05,-86.83 1293.5,-56 1315.39,-35.2 1348.31,-23.34 1371.85,-17.07"/>
<polygon fill="midnightblue" stroke="midnightblue" points="1372.75,-20.45 1381.62,-14.64 1371.07,-13.66 1372.75,-20.45"/>
</g>
<!-- Node34&#45;&gt;Node35 -->
<g id="edge32" class="edge">
<title>Node34&#45;&gt;Node35</title>
<path fill="none" stroke="midnightblue" d="M1268.6,-168.08C1274.74,-160.38 1283.77,-149.03 1291.24,-139.65"/>
<polygon fill="midnightblue" stroke="midnightblue" points="1294.04,-141.75 1297.53,-131.75 1288.56,-137.39 1294.04,-141.75"/>
</g>
<!-- Node35&#45;&gt;Node29 -->
<g id="edge33" class="edge">
<title>Node35&#45;&gt;Node29</title>
<path fill="none" stroke="midnightblue" d="M1301.74,-112.19C1298.13,-98.87 1293.48,-73.33 1304.5,-56 1319.23,-32.83 1349.38,-21.38 1371.99,-15.86"/>
<polygon fill="midnightblue" stroke="midnightblue" points="1372.74,-19.28 1381.76,-13.73 1371.24,-12.44 1372.74,-19.28"/>
</g>
<!-- Node35&#45;&gt;Node36 -->
<g id="edge34" class="edge">
<title>Node35&#45;&gt;Node36</title>
<path fill="none" stroke="midnightblue" d="M1310.77,-112.08C1316.14,-104.46 1324.02,-93.26 1330.58,-83.94"/>
<polygon fill="midnightblue" stroke="midnightblue" points="1333.45,-85.94 1336.34,-75.75 1327.72,-81.91 1333.45,-85.94"/>
</g>
<!-- Node36&#45;&gt;Node29 -->
<g id="edge35" class="edge">
<title>Node36&#45;&gt;Node29</title>
<path fill="none" stroke="midnightblue" d="M1351.82,-56.32C1360.39,-48.34 1373.31,-36.31 1383.69,-26.65"/>
<polygon fill="midnightblue" stroke="midnightblue" points="1386.08,-29.21 1391.01,-19.83 1381.31,-24.09 1386.08,-29.21"/>
</g>
<!-- Node37&#45;&gt;Node29 -->
<g id="edge38" class="edge">
<title>Node37&#45;&gt;Node29</title>
<path fill="none" stroke="midnightblue" d="M1378.4,-224.3C1381.79,-191.63 1393.78,-75.87 1398.54,-29.96"/>
<polygon fill="midnightblue" stroke="midnightblue" points="1402.03,-30.19 1399.58,-19.88 1395.07,-29.47 1402.03,-30.19"/>
</g>
<!-- Node37&#45;&gt;Node34 -->
<g id="edge39" class="edge">
<title>Node37&#45;&gt;Node34</title>
<path fill="none" stroke="midnightblue" d="M1359.12,-224.44C1340.28,-215.68 1310.77,-201.94 1289.12,-191.86"/>
<polygon fill="midnightblue" stroke="midnightblue" points="1290.34,-188.56 1279.79,-187.52 1287.38,-194.91 1290.34,-188.56"/>
</g>
<!-- Node37&#45;&gt;Node35 -->
<g id="edge40" class="edge">
<title>Node37&#45;&gt;Node35</title>
<path fill="none" stroke="midnightblue" d="M1371.77,-224.37C1359.72,-206.22 1331.58,-163.8 1315.78,-139.99"/>
<polygon fill="midnightblue" stroke="midnightblue" points="1318.65,-137.99 1310.2,-131.59 1312.81,-141.86 1318.65,-137.99"/>
</g>
<!-- Node37&#45;&gt;Node39 -->
<g id="edge41" class="edge">
<title>Node37&#45;&gt;Node39</title>
<path fill="none" stroke="midnightblue" d="M1389.71,-224.32C1401.28,-216.11 1418.88,-203.6 1432.66,-193.81"/>
<polygon fill="midnightblue" stroke="midnightblue" points="1434.94,-196.48 1441.07,-187.83 1430.89,-190.77 1434.94,-196.48"/>
</g>
<!-- Node39&#45;&gt;Node29 -->
<g id="edge42" class="edge">
<title>Node39&#45;&gt;Node29</title>
<path fill="none" stroke="midnightblue" d="M1450.65,-168.08C1442.27,-141.83 1417.6,-64.55 1406.28,-29.12"/>
<polygon fill="midnightblue" stroke="midnightblue" points="1409.61,-28.03 1403.24,-19.57 1402.94,-30.16 1409.61,-28.03"/>
</g>
<!-- Node39&#45;&gt;Node35 -->
<g id="edge44" class="edge">
<title>Node39&#45;&gt;Node35</title>
<path fill="none" stroke="midnightblue" d="M1429.89,-168.44C1405.04,-159.44 1365.73,-145.19 1337.75,-135.05"/>
<polygon fill="midnightblue" stroke="midnightblue" points="1338.59,-131.63 1328,-131.52 1336.21,-138.21 1338.59,-131.63"/>
</g>
<!-- Node39&#45;&gt;Node36 -->
<g id="edge43" class="edge">
<title>Node39&#45;&gt;Node36</title>
<path fill="none" stroke="midnightblue" d="M1444.79,-168.37C1426.15,-149.89 1382.15,-106.29 1358.39,-82.74"/>
<polygon fill="midnightblue" stroke="midnightblue" points="1360.74,-80.14 1351.17,-75.59 1355.81,-85.12 1360.74,-80.14"/>
</g>
<!-- Node43&#45;&gt;Node29 -->
<g id="edge46" class="edge">
<title>Node43&#45;&gt;Node29</title>
<path fill="none" stroke="midnightblue" d="M2820.77,-173.26C2625.1,-150.91 1612.37,-35.21 1428.99,-14.25"/>
<polygon fill="midnightblue" stroke="midnightblue" points="1429.36,-10.77 1419.03,-13.12 1428.57,-17.73 1429.36,-10.77"/>
</g>
<!-- Node44&#45;&gt;Node29 -->
<g id="edge48" class="edge">
<title>Node44&#45;&gt;Node29</title>
<path fill="none" stroke="midnightblue" d="M1463.52,-280.36C1479.01,-262.74 1511.5,-220.79 1511.5,-179 1511.5,-179 1511.5,-179 1511.5,-121 1511.5,-74.21 1461.12,-40.54 1428.24,-23.54"/>
<polygon fill="midnightblue" stroke="midnightblue" points="1429.59,-20.31 1419.08,-19 1426.48,-26.58 1429.59,-20.31"/>
</g>
<!-- Node44&#45;&gt;Node37 -->
<g id="edge49" class="edge">
<title>Node44&#45;&gt;Node37</title>
<path fill="none" stroke="midnightblue" d="M1442.97,-280.32C1430.91,-271.98 1412.47,-259.21 1398.23,-249.35"/>
<polygon fill="midnightblue" stroke="midnightblue" points="1400.22,-246.47 1390,-243.65 1396.23,-252.22 1400.22,-246.47"/>
</g>
<!-- Node44&#45;&gt;Node39 -->
<g id="edge50" class="edge">
<title>Node44&#45;&gt;Node39</title>
<path fill="none" stroke="midnightblue" d="M1455.34,-280.37C1455.02,-262.62 1454.28,-221.67 1453.84,-197.6"/>
<polygon fill="midnightblue" stroke="midnightblue" points="1457.34,-197.53 1453.66,-187.59 1450.34,-197.65 1457.34,-197.53"/>
</g>
<!-- Node51&#45;&gt;Node33 -->
<g id="edge61" class="edge">
<title>Node51&#45;&gt;Node33</title>
<path fill="none" stroke="midnightblue" d="M3116.26,-336.37C3115.78,-318.62 3114.66,-277.67 3114.01,-253.6"/>
<polygon fill="midnightblue" stroke="midnightblue" points="3117.51,-253.49 3113.73,-243.59 3110.51,-253.68 3117.51,-253.49"/>
</g>
<!-- Node52 -->
<g id="node45" class="node">
<title>Node52</title>
<g id="a_node45"><a xlink:href="_s_l_mesh_8h.html" target="_top" xlink:title=" ">
<polygon fill="white" stroke="red" points="3145,-280.5 3145,-299.5 3206,-299.5 3206,-280.5 3145,-280.5"/>
<text text-anchor="middle" x="3175.5" y="-287.5" font-family="Arial.ttf" font-size="10.00">SLMesh.h</text>
</a>
</g>
</g>
<!-- Node51&#45;&gt;Node52 -->
<g id="edge62" class="edge">
<title>Node51&#45;&gt;Node52</title>
<path fill="none" stroke="midnightblue" d="M3125.98,-336.32C3134.7,-328.34 3147.84,-316.31 3158.4,-306.65"/>
<polygon fill="midnightblue" stroke="midnightblue" points="3160.83,-309.17 3165.85,-299.83 3156.11,-304 3160.83,-309.17"/>
</g>
<!-- Node52&#45;&gt;Node33 -->
<g id="edge63" class="edge">
<title>Node52&#45;&gt;Node33</title>
<path fill="none" stroke="midnightblue" d="M3165.54,-280.32C3156.37,-272.34 3142.56,-260.31 3131.47,-250.65"/>
<polygon fill="midnightblue" stroke="midnightblue" points="3133.48,-247.76 3123.64,-243.83 3128.88,-253.04 3133.48,-247.76"/>
</g>
<!-- Node52&#45;&gt;Node43 -->
<g id="edge64" class="edge">
<title>Node52&#45;&gt;Node43</title>
<path fill="none" stroke="midnightblue" d="M3175.71,-280.3C3175.55,-266.17 3172.98,-238.37 3156.5,-224 3118.53,-190.9 2970.84,-182.15 2896.6,-179.83"/>
<polygon fill="midnightblue" stroke="midnightblue" points="2896.3,-176.32 2886.21,-179.53 2896.1,-183.32 2896.3,-176.32"/>
</g>
<!-- Node62 -->
<g id="node47" class="node">
<title>Node62</title>
<g id="a_node47"><a xlink:href="_s_l_draw_bits_8h.html" target="_top" xlink:title=" ">
<polygon fill="white" stroke="black" points="2605,-56.5 2605,-75.5 2682,-75.5 2682,-56.5 2605,-56.5"/>
<text text-anchor="middle" x="2643.5" y="-63.5" font-family="Arial.ttf" font-size="10.00">SLDrawBits.h</text>
</a>
</g>
</g>
<!-- Node61&#45;&gt;Node62 -->
<g id="edge66" class="edge">
<title>Node61&#45;&gt;Node62</title>
<path fill="none" stroke="midnightblue" d="M2944.03,-339.31C2968.99,-333.52 3001.39,-322.1 3021.5,-300 3041.75,-277.74 3040.5,-265.1 3040.5,-235 3040.5,-235 3040.5,-235 3040.5,-177 3040.5,-105.53 2798.57,-78.61 2692.43,-70.24"/>
<polygon fill="midnightblue" stroke="midnightblue" points="2692.53,-66.74 2682.29,-69.46 2691.99,-73.72 2692.53,-66.74"/>
</g>
<!-- Node63 -->
<g id="node48" class="node">
<title>Node63</title>
<g id="a_node48"><a xlink:href="_s_l_g_l_generic_program_8h.html" target="_top" xlink:title=" ">
<polygon fill="white" stroke="black" points="2892.5,-280.5 2892.5,-299.5 3012.5,-299.5 3012.5,-280.5 2892.5,-280.5"/>
<text text-anchor="middle" x="2952.5" y="-287.5" font-family="Arial.ttf" font-size="10.00">SLGLGenericProgram.h</text>
</a>
</g>
</g>
<!-- Node61&#45;&gt;Node63 -->
<g id="edge68" class="edge">
<title>Node61&#45;&gt;Node63</title>
<path fill="none" stroke="midnightblue" d="M2915.77,-336.08C2922.04,-328.38 2931.29,-317.03 2938.93,-307.65"/>
<polygon fill="midnightblue" stroke="midnightblue" points="2941.77,-309.71 2945.37,-299.75 2936.34,-305.29 2941.77,-309.71"/>
</g>
<!-- Node64 -->
<g id="node49" class="node">
<title>Node64</title>
<g id="a_node49"><a xlink:href="_s_l_g_l_program_8h.html" target="_top" xlink:title=" ">
<polygon fill="white" stroke="red" points="2846.5,-224.5 2846.5,-243.5 2932.5,-243.5 2932.5,-224.5 2846.5,-224.5"/>
<text text-anchor="middle" x="2889.5" y="-231.5" font-family="Arial.ttf" font-size="10.00">SLGLProgram.h</text>
</a>
</g>
</g>
<!-- Node61&#45;&gt;Node64 -->
<g id="edge74" class="edge">
<title>Node61&#45;&gt;Node64</title>
<path fill="none" stroke="midnightblue" d="M2901.87,-336.27C2895.73,-327.61 2887.04,-313.67 2883.5,-300 2879.5,-284.57 2881.71,-266.48 2884.51,-253.31"/>
<polygon fill="midnightblue" stroke="midnightblue" points="2887.91,-254.11 2886.87,-243.56 2881.11,-252.45 2887.91,-254.11"/>
</g>
<!-- Node67 -->
<g id="node50" class="node">
<title>Node67</title>
<g id="a_node50"><a xlink:href="_s_l_g_l_texture_8h.html" target="_top" xlink:title=" ">
<polygon fill="white" stroke="red" points="2716.5,-280.5 2716.5,-299.5 2798.5,-299.5 2798.5,-280.5 2716.5,-280.5"/>
<text text-anchor="middle" x="2757.5" y="-287.5" font-family="Arial.ttf" font-size="10.00">SLGLTexture.h</text>
</a>
</g>
</g>
<!-- Node61&#45;&gt;Node67 -->
<g id="edge75" class="edge">
<title>Node61&#45;&gt;Node67</title>
<path fill="none" stroke="midnightblue" d="M2884.57,-336.44C2859.28,-327.4 2819.2,-313.06 2790.82,-302.92"/>
<polygon fill="midnightblue" stroke="midnightblue" points="2791.91,-299.59 2781.31,-299.52 2789.55,-306.18 2791.91,-299.59"/>
</g>
<!-- Node62&#45;&gt;Node29 -->
<g id="edge67" class="edge">
<title>Node62&#45;&gt;Node29</title>
<path fill="none" stroke="midnightblue" d="M2604.94,-63.32C2416.47,-55.14 1594.68,-19.44 1429.49,-12.26"/>
<polygon fill="midnightblue" stroke="midnightblue" points="1429.3,-8.75 1419.16,-11.81 1428.99,-15.74 1429.3,-8.75"/>
</g>
<!-- Node63&#45;&gt;Node43 -->
<g id="edge73" class="edge">
<title>Node63&#45;&gt;Node43</title>
<path fill="none" stroke="midnightblue" d="M2953.33,-280.5C2954.19,-267.13 2953.96,-240.98 2941.5,-224 2930.3,-208.73 2912.41,-198.27 2895.67,-191.3"/>
<polygon fill="midnightblue" stroke="midnightblue" points="2896.6,-187.91 2886.01,-187.59 2894.09,-194.44 2896.6,-187.91"/>
</g>
<!-- Node63&#45;&gt;Node64 -->
<g id="edge69" class="edge">
<title>Node63&#45;&gt;Node64</title>
<path fill="none" stroke="midnightblue" d="M2942.38,-280.32C2932.97,-272.26 2918.76,-260.08 2907.43,-250.37"/>
<polygon fill="midnightblue" stroke="midnightblue" points="2909.68,-247.68 2899.81,-243.83 2905.12,-253 2909.68,-247.68"/>
</g>
<!-- Node64&#45;&gt;Node13 -->
<g id="edge70" class="edge">
<title>Node64&#45;&gt;Node13</title>
<path fill="none" stroke="midnightblue" d="M2846.49,-229.66C2716.26,-219.56 2328.61,-189.48 2221.3,-181.16"/>
<polygon fill="midnightblue" stroke="midnightblue" points="2221.5,-177.66 2211.26,-180.38 2220.96,-184.64 2221.5,-177.66"/>
</g>
<!-- Node64&#45;&gt;Node39 -->
<g id="edge71" class="edge">
<title>Node64&#45;&gt;Node39</title>
<path fill="none" stroke="midnightblue" d="M2846.23,-230.14C2816.05,-228.21 2774.83,-225.72 2738.5,-224 2248.07,-200.8 1651.82,-184.25 1493.6,-180.05"/>
<polygon fill="midnightblue" stroke="midnightblue" points="1493.48,-176.54 1483.39,-179.78 1493.3,-183.54 1493.48,-176.54"/>
</g>
<!-- Node64&#45;&gt;Node43 -->
<g id="edge72" class="edge">
<title>Node64&#45;&gt;Node43</title>
<path fill="none" stroke="midnightblue" d="M2883.56,-224.08C2878.52,-216.53 2871.16,-205.49 2864.99,-196.23"/>
<polygon fill="midnightblue" stroke="midnightblue" points="2867.79,-194.13 2859.33,-187.75 2861.97,-198.01 2867.79,-194.13"/>
</g>
<!-- Node67&#45;&gt;Node4 -->
<g id="edge78" class="edge">
<title>Node67&#45;&gt;Node4</title>
<path fill="none" stroke="midnightblue" d="M2749.08,-280.08C2741.65,-272.22 2730.65,-260.57 2721.69,-251.08"/>
<polygon fill="midnightblue" stroke="midnightblue" points="2724.18,-248.62 2714.76,-243.75 2719.09,-253.42 2724.18,-248.62"/>
</g>
<!-- Node67&#45;&gt;Node37 -->
<g id="edge77" class="edge">
<title>Node67&#45;&gt;Node37</title>
<path fill="none" stroke="midnightblue" d="M2716.36,-284.22C2701.6,-282.65 2684.82,-281.05 2669.5,-280 2176.46,-246.24 1575.74,-237.26 1417.33,-235.41"/>
<polygon fill="midnightblue" stroke="midnightblue" points="1417.15,-231.91 1407.11,-235.3 1417.07,-238.91 1417.15,-231.91"/>
</g>
<!-- Node67&#45;&gt;Node43 -->
<g id="edge76" class="edge">
<title>Node67&#45;&gt;Node43</title>
<path fill="none" stroke="midnightblue" d="M2763.06,-280.17C2771.37,-267.26 2787.84,-242.73 2804.5,-224 2813.88,-213.45 2825.47,-202.72 2835.02,-194.39"/>
<polygon fill="midnightblue" stroke="midnightblue" points="2837.47,-196.9 2842.79,-187.74 2832.91,-191.58 2837.47,-196.9"/>
</g>
</g>
</svg>
