<?xml version="1.0" encoding="UTF-8" standalone="no"?>
<!DOCTYPE svg PUBLIC "-//W3C//DTD SVG 1.1//EN"
 "http://www.w3.org/Graphics/SVG/1.1/DTD/svg11.dtd">
<!-- Generated by graphviz version 2.40.1 (20161225.0304)
 -->
<!-- Title: SLArrow.h Pages: 1 -->
<svg width="224pt" height="84pt"
 viewBox="0.00 0.00 223.50 84.00" xmlns="http://www.w3.org/2000/svg" xmlns:xlink="http://www.w3.org/1999/xlink">
<g id="graph0" class="graph" transform="scale(1 1) rotate(0) translate(4 80)">
<title>SLArrow.h</title>
<polygon fill="#ffffff" stroke="transparent" points="-4,4 -4,-80 219.5,-80 219.5,4 -4,4"/>
<!-- Node1 -->
<g id="node1" class="node">
<title>Node1</title>
<g id="a_node1"><a xlink:title=" ">
<polygon fill="#bfbfbf" stroke="#000000" points="74,-56.5 74,-75.5 137,-75.5 137,-56.5 74,-56.5"/>
<text text-anchor="middle" x="105.5" y="-63.5" font-family="Arial.ttf" font-size="10.00" fill="#000000">SLArrow.h</text>
</a>
</g>
</g>
<!-- Node2 -->
<g id="node2" class="node">
<title>Node2</title>
<g id="a_node2"><a xlink:href="_s_l_light_direct_8cpp.html" target="_top" xlink:title=" ">
<polygon fill="#ffffff" stroke="#000000" points="0,-.5 0,-19.5 95,-19.5 95,-.5 0,-.5"/>
<text text-anchor="middle" x="47.5" y="-7.5" font-family="Arial.ttf" font-size="10.00" fill="#000000">SLLightDirect.cpp</text>
</a>
</g>
</g>
<!-- Node1&#45;&gt;Node2 -->
<g id="edge1" class="edge">
<title>Node1&#45;&gt;Node2</title>
<path fill="none" stroke="#191970" d="M87.9707,-49.0751C77.9917,-39.4402 65.8524,-27.7196 57.4871,-19.6427"/>
<polygon fill="#191970" stroke="#191970" points="85.772,-51.8175 95.3972,-56.2455 90.6342,-46.7817 85.772,-51.8175"/>
</g>
<!-- Node3 -->
<g id="node3" class="node">
<title>Node3</title>
<g id="a_node3"><a xlink:href="_app_demo_load_8cpp.html" target="_top" xlink:title=" ">
<polygon fill="#ffffff" stroke="#000000" points="113.5,-.5 113.5,-19.5 215.5,-19.5 215.5,-.5 113.5,-.5"/>
<text text-anchor="middle" x="164.5" y="-7.5" font-family="Arial.ttf" font-size="10.00" fill="#000000">AppDemoLoad.cpp</text>
</a>
</g>
</g>
<!-- Node1&#45;&gt;Node3 -->
<g id="edge2" class="edge">
<title>Node1&#45;&gt;Node3</title>
<path fill="none" stroke="#191970" d="M123.0307,-49.3607C133.2377,-39.6727 145.7469,-27.7995 154.3408,-19.6427"/>
<polygon fill="#191970" stroke="#191970" points="120.6206,-46.8227 115.777,-56.2455 125.4396,-51.8998 120.6206,-46.8227"/>
</g>
</g>
</svg>
