<?xml version="1.0" encoding="UTF-8" standalone="no"?>
<!DOCTYPE svg PUBLIC "-//W3C//DTD SVG 1.1//EN"
 "http://www.w3.org/Graphics/SVG/1.1/DTD/svg11.dtd">
<!-- Generated by graphviz version 2.40.1 (20161225.0304)
 -->
<!-- Title: SLQuat4.h Pages: 1 -->
<svg width="621pt" height="420pt"
 viewBox="0.00 0.00 620.50 420.00" xmlns="http://www.w3.org/2000/svg" xmlns:xlink="http://www.w3.org/1999/xlink">
<g id="graph0" class="graph" transform="scale(1 1) rotate(0) translate(4 416)">
<title>SLQuat4.h</title>
<polygon fill="#ffffff" stroke="transparent" points="-4,4 -4,-416 616.5,-416 616.5,4 -4,4"/>
<!-- Node1 -->
<g id="node1" class="node">
<title>Node1</title>
<g id="a_node1"><a xlink:title=" ">
<polygon fill="#bfbfbf" stroke="#000000" points="386,-392.5 386,-411.5 450,-411.5 450,-392.5 386,-392.5"/>
<text text-anchor="middle" x="418" y="-399.5" font-family="Arial.ttf" font-size="10.00" fill="#000000">SLQuat4.h</text>
</a>
</g>
</g>
<!-- Node2 -->
<g id="node2" class="node">
<title>Node2</title>
<g id="a_node2"><a xlink:href="_s_l_math_8h.html" target="_top" xlink:title=" ">
<polygon fill="#ffffff" stroke="#000000" points="129.5,-112.5 129.5,-131.5 188.5,-131.5 188.5,-112.5 129.5,-112.5"/>
<text text-anchor="middle" x="159" y="-119.5" font-family="Arial.ttf" font-size="10.00" fill="#000000">SLMath.h</text>
</a>
</g>
</g>
<!-- Node1&#45;&gt;Node2 -->
<g id="edge1" class="edge">
<title>Node1&#45;&gt;Node2</title>
<path fill="none" stroke="#191970" d="M385.8943,-400.312C288.0144,-394.2993 0,-369.8249 0,-290 0,-290 0,-290 0,-234 0,-175.6475 72.4606,-145.0383 119.549,-131.3075"/>
<polygon fill="#191970" stroke="#191970" points="120.7672,-134.6017 129.466,-128.5533 118.894,-127.857 120.7672,-134.6017"/>
</g>
<!-- Node5 -->
<g id="node5" class="node">
<title>Node5</title>
<g id="a_node5"><a xlink:href="_s_l_mat4_8h.html" target="_top" xlink:title=" ">
<polygon fill="#ffffff" stroke="#000000" points="284.5,-336.5 284.5,-355.5 343.5,-355.5 343.5,-336.5 284.5,-336.5"/>
<text text-anchor="middle" x="314" y="-343.5" font-family="Arial.ttf" font-size="10.00" fill="#000000">SLMat4.h</text>
</a>
</g>
</g>
<!-- Node1&#45;&gt;Node5 -->
<g id="edge4" class="edge">
<title>Node1&#45;&gt;Node5</title>
<path fill="none" stroke="#191970" d="M399.8846,-392.2455C383.555,-383.4527 359.329,-370.4079 340.7661,-360.4125"/>
<polygon fill="#191970" stroke="#191970" points="342.3719,-357.3021 331.9078,-355.6427 339.0532,-363.4654 342.3719,-357.3021"/>
</g>
<!-- Node7 -->
<g id="node7" class="node">
<title>Node7</title>
<g id="a_node7"><a xlink:href="_utils_8h.html" target="_top" xlink:title=" ">
<polygon fill="#ffffff" stroke="#000000" points="404,-112.5 404,-131.5 448,-131.5 448,-112.5 404,-112.5"/>
<text text-anchor="middle" x="426" y="-119.5" font-family="Arial.ttf" font-size="10.00" fill="#000000">Utils.h</text>
</a>
</g>
</g>
<!-- Node1&#45;&gt;Node7 -->
<g id="edge40" class="edge">
<title>Node1&#45;&gt;Node7</title>
<path fill="none" stroke="#191970" d="M450.2036,-395.2001C497.7067,-383.0667 581,-352.8332 581,-290 581,-290 581,-290 581,-234 581,-199.9282 567.8984,-190.1396 542,-168 517.8294,-147.3375 483.2426,-135.2471 458.1294,-128.6916"/>
<polygon fill="#191970" stroke="#191970" points="458.8869,-125.2737 448.3408,-126.2892 457.2184,-132.0719 458.8869,-125.2737"/>
</g>
<!-- Node19 -->
<g id="node19" class="node">
<title>Node19</title>
<g id="a_node19"><a xlink:href="_s_l_vec4_8h.html" target="_top" xlink:title=" ">
<polygon fill="#ffffff" stroke="#000000" points="493,-280.5 493,-299.5 553,-299.5 553,-280.5 493,-280.5"/>
<text text-anchor="middle" x="523" y="-287.5" font-family="Arial.ttf" font-size="10.00" fill="#000000">SLVec4.h</text>
</a>
</g>
</g>
<!-- Node1&#45;&gt;Node19 -->
<g id="edge39" class="edge">
<title>Node1&#45;&gt;Node19</title>
<path fill="none" stroke="#191970" d="M426.9522,-392.4509C444.6975,-373.5227 484.5493,-331.014 506.9426,-307.1279"/>
<polygon fill="#191970" stroke="#191970" points="509.7844,-309.2141 514.0704,-299.5249 504.6776,-304.4265 509.7844,-309.2141"/>
</g>
<!-- Node3 -->
<g id="node3" class="node">
<title>Node3</title>
<g id="a_node3"><a xlink:title=" ">
<polygon fill="#ffffff" stroke="#bfbfbf" points="187,-56.5 187,-75.5 231,-75.5 231,-56.5 187,-56.5"/>
<text text-anchor="middle" x="209" y="-63.5" font-family="Arial.ttf" font-size="10.00" fill="#000000">vector</text>
</a>
</g>
</g>
<!-- Node2&#45;&gt;Node3 -->
<g id="edge2" class="edge">
<title>Node2&#45;&gt;Node3</title>
<path fill="none" stroke="#191970" d="M167.7093,-112.2455C174.8073,-104.2958 185.0084,-92.8706 193.495,-83.3656"/>
<polygon fill="#191970" stroke="#191970" points="196.3411,-85.4331 200.3905,-75.6427 191.1195,-80.771 196.3411,-85.4331"/>
</g>
<!-- Node4 -->
<g id="node4" class="node">
<title>Node4</title>
<g id="a_node4"><a xlink:title=" ">
<polygon fill="#ffffff" stroke="#bfbfbf" points="347.5,-.5 347.5,-19.5 388.5,-19.5 388.5,-.5 347.5,-.5"/>
<text text-anchor="middle" x="368" y="-7.5" font-family="Arial.ttf" font-size="10.00" fill="#000000">string</text>
</a>
</g>
</g>
<!-- Node2&#45;&gt;Node4 -->
<g id="edge3" class="edge">
<title>Node2&#45;&gt;Node4</title>
<path fill="none" stroke="#191970" d="M158.917,-112.4073C159.3378,-98.0381 162.3304,-71.0134 178,-56 189.4966,-44.9848 286.2284,-25.4018 337.0605,-15.7303"/>
<polygon fill="#191970" stroke="#191970" points="337.9862,-19.1175 347.1636,-13.8236 336.688,-12.2389 337.9862,-19.1175"/>
</g>
<!-- Node5&#45;&gt;Node2 -->
<g id="edge5" class="edge">
<title>Node5&#45;&gt;Node2</title>
<path fill="none" stroke="#191970" d="M284.3727,-345.2689C223.0926,-343.0665 85.7273,-334.3257 57,-300 12.184,-246.4503 95.8356,-170.5229 137.4688,-137.9006"/>
<polygon fill="#191970" stroke="#191970" points="139.8507,-140.4845 145.6538,-131.6203 135.5895,-134.931 139.8507,-140.4845"/>
</g>
<!-- Node6 -->
<g id="node6" class="node">
<title>Node6</title>
<g id="a_node6"><a xlink:title=" ">
<polygon fill="#ffffff" stroke="#bfbfbf" points="397,-280.5 397,-299.5 437,-299.5 437,-280.5 397,-280.5"/>
<text text-anchor="middle" x="417" y="-287.5" font-family="Arial.ttf" font-size="10.00" fill="#000000">stack</text>
</a>
</g>
</g>
<!-- Node5&#45;&gt;Node6 -->
<g id="edge6" class="edge">
<title>Node5&#45;&gt;Node6</title>
<path fill="none" stroke="#191970" d="M331.9412,-336.2455C348.04,-327.4928 371.8879,-314.527 390.2391,-304.5496"/>
<polygon fill="#191970" stroke="#191970" points="392.1507,-307.4942 399.2644,-299.6427 388.8071,-301.3444 392.1507,-307.4942"/>
</g>
<!-- Node5&#45;&gt;Node7 -->
<g id="edge7" class="edge">
<title>Node5&#45;&gt;Node7</title>
<path fill="none" stroke="#191970" d="M343.7111,-339.8181C378.8021,-331.8436 433.947,-316.9642 446,-300 480.5893,-251.3167 452.028,-175.5049 435.598,-140.663"/>
<polygon fill="#191970" stroke="#191970" points="438.7038,-139.047 431.1595,-131.6082 432.4183,-142.128 438.7038,-139.047"/>
</g>
<!-- Node14 -->
<g id="node14" class="node">
<title>Node14</title>
<g id="a_node14"><a xlink:href="_s_l_mat3_8h.html" target="_top" xlink:title=" ">
<polygon fill="#ffffff" stroke="#000000" points="66.5,-280.5 66.5,-299.5 125.5,-299.5 125.5,-280.5 66.5,-280.5"/>
<text text-anchor="middle" x="96" y="-287.5" font-family="Arial.ttf" font-size="10.00" fill="#000000">SLMat3.h</text>
</a>
</g>
</g>
<!-- Node5&#45;&gt;Node14 -->
<g id="edge19" class="edge">
<title>Node5&#45;&gt;Node14</title>
<path fill="none" stroke="#191970" d="M284.1451,-338.3309C245.6048,-328.4306 178.423,-311.1729 135.6361,-300.1818"/>
<polygon fill="#191970" stroke="#191970" points="136.3997,-296.7643 125.8433,-297.6662 134.658,-303.5442 136.3997,-296.7643"/>
</g>
<!-- Node15 -->
<g id="node15" class="node">
<title>Node15</title>
<g id="a_node15"><a xlink:href="_s_l_vec3_8h.html" target="_top" xlink:title=" ">
<polygon fill="#ffffff" stroke="#000000" points="205,-224.5 205,-243.5 265,-243.5 265,-224.5 205,-224.5"/>
<text text-anchor="middle" x="235" y="-231.5" font-family="Arial.ttf" font-size="10.00" fill="#000000">SLVec3.h</text>
</a>
</g>
</g>
<!-- Node5&#45;&gt;Node15 -->
<g id="edge30" class="edge">
<title>Node5&#45;&gt;Node15</title>
<path fill="none" stroke="#191970" d="M287.5707,-336.4426C271.2861,-329.094 251.5631,-317.2449 241,-300 232.5591,-286.2197 231.5743,-267.6937 232.4048,-253.7773"/>
<polygon fill="#191970" stroke="#191970" points="235.8927,-254.0695 233.3523,-243.7837 228.924,-253.4087 235.8927,-254.0695"/>
</g>
<!-- Node5&#45;&gt;Node19 -->
<g id="edge31" class="edge">
<title>Node5&#45;&gt;Node19</title>
<path fill="none" stroke="#191970" d="M343.5013,-338.0953C380.0145,-328.3119 442.347,-311.6104 483.1038,-300.6899"/>
<polygon fill="#191970" stroke="#191970" points="484.2186,-304.0147 492.972,-298.0458 482.4069,-297.2532 484.2186,-304.0147"/>
</g>
<!-- Node21 -->
<g id="node21" class="node">
<title>Node21</title>
<g id="a_node21"><a xlink:title=" ">
<polygon fill="#ffffff" stroke="#bfbfbf" points="143.5,-280.5 143.5,-299.5 192.5,-299.5 192.5,-280.5 143.5,-280.5"/>
<text text-anchor="middle" x="168" y="-287.5" font-family="Arial.ttf" font-size="10.00" fill="#000000">cassert</text>
</a>
</g>
</g>
<!-- Node5&#45;&gt;Node21 -->
<g id="edge37" class="edge">
<title>Node5&#45;&gt;Node21</title>
<path fill="none" stroke="#191970" d="M288.9017,-336.3733C265.0445,-327.2226 228.9665,-313.3844 202.429,-303.2057"/>
<polygon fill="#191970" stroke="#191970" points="203.361,-299.8145 192.7708,-299.5011 200.8541,-306.3503 203.361,-299.8145"/>
</g>
<!-- Node22 -->
<g id="node22" class="node">
<title>Node22</title>
<g id="a_node22"><a xlink:title=" ">
<polygon fill="#ffffff" stroke="#bfbfbf" points="249.5,-280.5 249.5,-299.5 378.5,-299.5 378.5,-280.5 249.5,-280.5"/>
<text text-anchor="middle" x="314" y="-287.5" font-family="Arial.ttf" font-size="10.00" fill="#000000">Shoemake/Decompose.h</text>
</a>
</g>
</g>
<!-- Node5&#45;&gt;Node22 -->
<g id="edge38" class="edge">
<title>Node5&#45;&gt;Node22</title>
<path fill="none" stroke="#191970" d="M314,-336.2455C314,-328.9382 314,-318.6944 314,-309.7046"/>
<polygon fill="#191970" stroke="#191970" points="317.5001,-309.6426 314,-299.6427 310.5001,-309.6427 317.5001,-309.6426"/>
</g>
<!-- Node7&#45;&gt;Node3 -->
<g id="edge9" class="edge">
<title>Node7&#45;&gt;Node3</title>
<path fill="none" stroke="#191970" d="M403.822,-117.0415C370.5289,-109.4856 305.4725,-94.2877 241.1845,-76.2037"/>
<polygon fill="#191970" stroke="#191970" points="241.8701,-72.7601 231.2944,-73.3965 239.9587,-79.4941 241.8701,-72.7601"/>
</g>
<!-- Node7&#45;&gt;Node4 -->
<g id="edge8" class="edge">
<title>Node7&#45;&gt;Node4</title>
<path fill="none" stroke="#191970" d="M421.055,-112.4509C411.4669,-93.936 390.1949,-52.8591 377.6936,-28.7187"/>
<polygon fill="#191970" stroke="#191970" points="380.6391,-26.7953 372.9325,-19.5249 374.4231,-30.0144 380.6391,-26.7953"/>
</g>
<!-- Node8 -->
<g id="node8" class="node">
<title>Node8</title>
<g id="a_node8"><a xlink:title=" ">
<polygon fill="#ffffff" stroke="#bfbfbf" points="325,-56.5 325,-75.5 365,-75.5 365,-56.5 325,-56.5"/>
<text text-anchor="middle" x="345" y="-63.5" font-family="Arial.ttf" font-size="10.00" fill="#000000">cfloat</text>
</a>
</g>
</g>
<!-- Node7&#45;&gt;Node8 -->
<g id="edge10" class="edge">
<title>Node7&#45;&gt;Node8</title>
<path fill="none" stroke="#191970" d="M411.8909,-112.2455C399.5791,-103.7337 381.5042,-91.2375 367.2462,-81.3801"/>
<polygon fill="#191970" stroke="#191970" points="369.1634,-78.4506 358.9474,-75.6427 365.1826,-84.2085 369.1634,-78.4506"/>
</g>
<!-- Node9 -->
<g id="node9" class="node">
<title>Node9</title>
<g id="a_node9"><a xlink:title=" ">
<polygon fill="#ffffff" stroke="#bfbfbf" points="465.5,-.5 465.5,-19.5 518.5,-19.5 518.5,-.5 465.5,-.5"/>
<text text-anchor="middle" x="492" y="-7.5" font-family="Arial.ttf" font-size="10.00" fill="#000000">memory</text>
</a>
</g>
</g>
<!-- Node7&#45;&gt;Node9 -->
<g id="edge11" class="edge">
<title>Node7&#45;&gt;Node9</title>
<path fill="none" stroke="#191970" d="M448.0959,-116.0825C467.2043,-109.6646 493.6448,-97.3563 506,-76 514.4015,-61.4777 509.0189,-42.5448 502.6467,-28.683"/>
<polygon fill="#191970" stroke="#191970" points="505.6828,-26.9326 498.0148,-19.6214 499.4498,-30.1186 505.6828,-26.9326"/>
</g>
<!-- Node10 -->
<g id="node10" class="node">
<title>Node10</title>
<g id="a_node10"><a xlink:href="_file_log_8h.html" target="_top" xlink:title=" ">
<polygon fill="#ffffff" stroke="#000000" points="249,-56.5 249,-75.5 307,-75.5 307,-56.5 249,-56.5"/>
<text text-anchor="middle" x="278" y="-63.5" font-family="Arial.ttf" font-size="10.00" fill="#000000">FileLog.h</text>
</a>
</g>
</g>
<!-- Node7&#45;&gt;Node10 -->
<g id="edge12" class="edge">
<title>Node7&#45;&gt;Node10</title>
<path fill="none" stroke="#191970" d="M403.8429,-113.6162C379.7502,-104.5001 340.9235,-89.8089 312.7627,-79.1535"/>
<polygon fill="#191970" stroke="#191970" points="313.8799,-75.8341 303.2884,-75.5686 311.4026,-82.3811 313.8799,-75.8341"/>
</g>
<!-- Node12 -->
<g id="node12" class="node">
<title>Node12</title>
<g id="a_node12"><a xlink:href="_custom_log_8h.html" target="_top" xlink:title=" ">
<polygon fill="#ffffff" stroke="#000000" points="421,-56.5 421,-75.5 497,-75.5 497,-56.5 421,-56.5"/>
<text text-anchor="middle" x="459" y="-63.5" font-family="Arial.ttf" font-size="10.00" fill="#000000">CustomLog.h</text>
</a>
</g>
</g>
<!-- Node7&#45;&gt;Node12 -->
<g id="edge15" class="edge">
<title>Node7&#45;&gt;Node12</title>
<path fill="none" stroke="#191970" d="M431.7482,-112.2455C436.2435,-104.617 442.6248,-93.7881 448.0825,-84.5267"/>
<polygon fill="#191970" stroke="#191970" points="451.2561,-86.035 453.3177,-75.6427 445.2253,-82.4811 451.2561,-86.035"/>
</g>
<!-- Node13 -->
<g id="node13" class="node">
<title>Node13</title>
<g id="a_node13"><a xlink:title=" ">
<polygon fill="#ffffff" stroke="#bfbfbf" points="553.5,-56.5 553.5,-75.5 612.5,-75.5 612.5,-56.5 553.5,-56.5"/>
<text text-anchor="middle" x="583" y="-63.5" font-family="Arial.ttf" font-size="10.00" fill="#000000">functional</text>
</a>
</g>
</g>
<!-- Node7&#45;&gt;Node13 -->
<g id="edge18" class="edge">
<title>Node7&#45;&gt;Node13</title>
<path fill="none" stroke="#191970" d="M448.1613,-114.0953C473.7884,-104.9545 516.3468,-89.7744 546.798,-78.9128"/>
<polygon fill="#191970" stroke="#191970" points="547.9796,-82.2074 556.2225,-75.5512 545.6279,-75.6143 547.9796,-82.2074"/>
</g>
<!-- Node10&#45;&gt;Node4 -->
<g id="edge13" class="edge">
<title>Node10&#45;&gt;Node4</title>
<path fill="none" stroke="#191970" d="M293.6768,-56.2455C307.4856,-47.6534 327.8193,-35.0014 343.7292,-25.1018"/>
<polygon fill="#191970" stroke="#191970" points="345.8613,-27.8974 352.5028,-19.6427 342.1632,-21.954 345.8613,-27.8974"/>
</g>
<!-- Node11 -->
<g id="node11" class="node">
<title>Node11</title>
<g id="a_node11"><a xlink:title=" ">
<polygon fill="#ffffff" stroke="#bfbfbf" points="253,-.5 253,-19.5 303,-19.5 303,-.5 253,-.5"/>
<text text-anchor="middle" x="278" y="-7.5" font-family="Arial.ttf" font-size="10.00" fill="#000000">fstream</text>
</a>
</g>
</g>
<!-- Node10&#45;&gt;Node11 -->
<g id="edge14" class="edge">
<title>Node10&#45;&gt;Node11</title>
<path fill="none" stroke="#191970" d="M278,-56.2455C278,-48.9382 278,-38.6944 278,-29.7046"/>
<polygon fill="#191970" stroke="#191970" points="281.5001,-29.6426 278,-19.6427 274.5001,-29.6427 281.5001,-29.6426"/>
</g>
<!-- Node12&#45;&gt;Node4 -->
<g id="edge17" class="edge">
<title>Node12&#45;&gt;Node4</title>
<path fill="none" stroke="#191970" d="M443.149,-56.2455C429.1868,-47.6534 408.6272,-35.0014 392.5404,-25.1018"/>
<polygon fill="#191970" stroke="#191970" points="394.0203,-21.9029 383.6693,-19.6427 390.3516,-27.8645 394.0203,-21.9029"/>
</g>
<!-- Node12&#45;&gt;Node9 -->
<g id="edge16" class="edge">
<title>Node12&#45;&gt;Node9</title>
<path fill="none" stroke="#191970" d="M464.7482,-56.2455C469.2435,-48.617 475.6248,-37.7881 481.0825,-28.5267"/>
<polygon fill="#191970" stroke="#191970" points="484.2561,-30.035 486.3177,-19.6427 478.2253,-26.4811 484.2561,-30.035"/>
</g>
<!-- Node14&#45;&gt;Node2 -->
<g id="edge20" class="edge">
<title>Node14&#45;&gt;Node2</title>
<path fill="none" stroke="#191970" d="M98.3345,-280.4808C101.5988,-267.5439 107.9269,-243.7578 115,-224 125.6209,-194.3321 140.6086,-160.9835 150.062,-140.7387"/>
<polygon fill="#191970" stroke="#191970" points="153.2338,-142.2185 154.3318,-131.6807 146.902,-139.2337 153.2338,-142.2185"/>
</g>
<!-- Node14&#45;&gt;Node7 -->
<g id="edge21" class="edge">
<title>Node14&#45;&gt;Node7</title>
<path fill="none" stroke="#191970" d="M125.8358,-282.341C176.0637,-269.4403 272.2505,-244.7022 274,-244 321.2731,-225.0258 335.2701,-221.0872 374,-188 390.1948,-174.1646 404.8324,-154.6404 414.4206,-140.4179"/>
<polygon fill="#191970" stroke="#191970" points="417.414,-142.2353 419.9578,-131.9503 411.5555,-138.4041 417.414,-142.2353"/>
</g>
<!-- Node14&#45;&gt;Node15 -->
<g id="edge22" class="edge">
<title>Node14&#45;&gt;Node15</title>
<path fill="none" stroke="#191970" d="M119.895,-280.3733C142.5082,-271.2629 176.6542,-257.5062 201.8873,-247.3404"/>
<polygon fill="#191970" stroke="#191970" points="203.4493,-250.4845 211.4169,-243.5011 200.8334,-243.9917 203.4493,-250.4845"/>
</g>
<!-- Node18 -->
<g id="node18" class="node">
<title>Node18</title>
<g id="a_node18"><a xlink:title=" ">
<polygon fill="#ffffff" stroke="#bfbfbf" points="124.5,-224.5 124.5,-243.5 179.5,-243.5 179.5,-224.5 124.5,-224.5"/>
<text text-anchor="middle" x="152" y="-231.5" font-family="Arial.ttf" font-size="10.00" fill="#000000">iostream</text>
</a>
</g>
</g>
<!-- Node14&#45;&gt;Node18 -->
<g id="edge29" class="edge">
<title>Node14&#45;&gt;Node18</title>
<path fill="none" stroke="#191970" d="M105.7545,-280.2455C113.8648,-272.1352 125.5925,-260.4075 135.2081,-250.7919"/>
<polygon fill="#191970" stroke="#191970" points="137.7611,-253.1887 142.3573,-243.6427 132.8113,-248.2389 137.7611,-253.1887"/>
</g>
<!-- Node15&#45;&gt;Node2 -->
<g id="edge24" class="edge">
<title>Node15&#45;&gt;Node2</title>
<path fill="none" stroke="#191970" d="M228.0769,-224.1685C221.557,-214.8812 211.5429,-200.5435 203,-188 192.1461,-172.0632 180.0028,-153.8161 171.2275,-140.5531"/>
<polygon fill="#191970" stroke="#191970" points="173.9313,-138.296 165.4994,-131.8808 168.0903,-142.154 173.9313,-138.296"/>
</g>
<!-- Node15&#45;&gt;Node7 -->
<g id="edge28" class="edge">
<title>Node15&#45;&gt;Node7</title>
<path fill="none" stroke="#191970" d="M265.1897,-224.4355C288.4366,-216.4115 320.9019,-203.7451 347,-188 370.2408,-173.9787 393.7107,-153.3647 408.958,-138.9153"/>
<polygon fill="#191970" stroke="#191970" points="411.7675,-141.0677 416.5291,-131.6031 406.9046,-136.0326 411.7675,-141.0677"/>
</g>
<!-- Node16 -->
<g id="node16" class="node">
<title>Node16</title>
<g id="a_node16"><a xlink:title=" ">
<polygon fill="#ffffff" stroke="#bfbfbf" points="211.5,-168.5 211.5,-187.5 258.5,-187.5 258.5,-168.5 211.5,-168.5"/>
<text text-anchor="middle" x="235" y="-175.5" font-family="Arial.ttf" font-size="10.00" fill="#000000">math.h</text>
</a>
</g>
</g>
<!-- Node15&#45;&gt;Node16 -->
<g id="edge23" class="edge">
<title>Node15&#45;&gt;Node16</title>
<path fill="none" stroke="#191970" d="M235,-224.2455C235,-216.9382 235,-206.6944 235,-197.7046"/>
<polygon fill="#191970" stroke="#191970" points="238.5001,-197.6426 235,-187.6427 231.5001,-197.6427 238.5001,-197.6426"/>
</g>
<!-- Node17 -->
<g id="node17" class="node">
<title>Node17</title>
<g id="a_node17"><a xlink:href="_s_l_vec2_8h.html" target="_top" xlink:title=" ">
<polygon fill="#ffffff" stroke="#000000" points="278,-168.5 278,-187.5 338,-187.5 338,-168.5 278,-168.5"/>
<text text-anchor="middle" x="308" y="-175.5" font-family="Arial.ttf" font-size="10.00" fill="#000000">SLVec2.h</text>
</a>
</g>
</g>
<!-- Node15&#45;&gt;Node17 -->
<g id="edge25" class="edge">
<title>Node15&#45;&gt;Node17</title>
<path fill="none" stroke="#191970" d="M247.7156,-224.2455C258.602,-215.8943 274.4883,-203.7076 287.22,-193.9408"/>
<polygon fill="#191970" stroke="#191970" points="289.6261,-196.5063 295.4301,-187.6427 285.3654,-190.9523 289.6261,-196.5063"/>
</g>
<!-- Node17&#45;&gt;Node2 -->
<g id="edge26" class="edge">
<title>Node17&#45;&gt;Node2</title>
<path fill="none" stroke="#191970" d="M282.386,-168.3733C257.9313,-159.1822 220.8946,-145.2624 193.7791,-135.0713"/>
<polygon fill="#191970" stroke="#191970" points="194.8719,-131.7431 184.2798,-131.5011 192.4091,-138.2956 194.8719,-131.7431"/>
</g>
<!-- Node17&#45;&gt;Node7 -->
<g id="edge27" class="edge">
<title>Node17&#45;&gt;Node7</title>
<path fill="none" stroke="#191970" d="M328.2849,-168.3733C347.1421,-159.4241 375.446,-145.9917 396.7455,-135.8835"/>
<polygon fill="#191970" stroke="#191970" points="398.4461,-138.9506 405.9798,-131.5011 395.4449,-132.6266 398.4461,-138.9506"/>
</g>
<!-- Node19&#45;&gt;Node7 -->
<g id="edge36" class="edge">
<title>Node19&#45;&gt;Node7</title>
<path fill="none" stroke="#191970" d="M526.3836,-280.1735C533.328,-258.1065 546.7162,-203.7569 524,-168 509.5791,-145.3005 480.6633,-133.6053 457.961,-127.7046"/>
<polygon fill="#191970" stroke="#191970" points="458.5764,-124.2541 448.0418,-125.3825 456.9808,-131.0698 458.5764,-124.2541"/>
</g>
<!-- Node19&#45;&gt;Node15 -->
<g id="edge35" class="edge">
<title>Node19&#45;&gt;Node15</title>
<path fill="none" stroke="#191970" d="M492.994,-284.1655C440.9404,-274.044 333.877,-253.2261 275.3638,-241.8485"/>
<polygon fill="#191970" stroke="#191970" points="275.8558,-238.3787 265.3716,-239.9056 274.5197,-245.25 275.8558,-238.3787"/>
</g>
<!-- Node19&#45;&gt;Node17 -->
<g id="edge34" class="edge">
<title>Node19&#45;&gt;Node17</title>
<path fill="none" stroke="#191970" d="M504.6692,-280.4509C466.8264,-260.7375 379.884,-215.4465 335.3632,-192.2543"/>
<polygon fill="#191970" stroke="#191970" points="336.7702,-189.0409 326.2844,-187.5249 333.5362,-195.249 336.7702,-189.0409"/>
</g>
<!-- Node20 -->
<g id="node20" class="node">
<title>Node20</title>
<g id="a_node20"><a xlink:href="_s_l_8h.html" target="_top" xlink:title=" ">
<polygon fill="#ffffff" stroke="#000000" points="477.5,-168.5 477.5,-187.5 514.5,-187.5 514.5,-168.5 477.5,-168.5"/>
<text text-anchor="middle" x="496" y="-175.5" font-family="Arial.ttf" font-size="10.00" fill="#000000">SL.h</text>
</a>
</g>
</g>
<!-- Node19&#45;&gt;Node20 -->
<g id="edge32" class="edge">
<title>Node19&#45;&gt;Node20</title>
<path fill="none" stroke="#191970" d="M520.698,-280.4509C516.2744,-262.1013 506.5085,-221.5908 500.6694,-197.3693"/>
<polygon fill="#191970" stroke="#191970" points="504.0424,-196.4261 498.2962,-187.5249 497.2373,-198.0667 504.0424,-196.4261"/>
</g>
<!-- Node20&#45;&gt;Node7 -->
<g id="edge33" class="edge">
<title>Node20&#45;&gt;Node7</title>
<path fill="none" stroke="#191970" d="M483.8069,-168.2455C473.3679,-159.8943 458.1345,-147.7076 445.926,-137.9408"/>
<polygon fill="#191970" stroke="#191970" points="448.0485,-135.1566 438.0533,-131.6427 443.6756,-140.6227 448.0485,-135.1566"/>
</g>
</g>
</svg>
