<?xml version="1.0" encoding="UTF-8" standalone="no"?>
<!DOCTYPE svg PUBLIC "-//W3C//DTD SVG 1.1//EN"
 "http://www.w3.org/Graphics/SVG/1.1/DTD/svg11.dtd">
<!-- Generated by graphviz version 2.36.0 (20140111.2315)
 -->
<!-- Title: SLDeviceRotation.h Pages: 1 -->
<svg width="238pt" height="364pt"
 viewBox="0.00 0.00 238.00 364.00" xmlns="http://www.w3.org/2000/svg" xmlns:xlink="http://www.w3.org/1999/xlink">
<g id="graph0" class="graph" transform="scale(1 1) rotate(0) translate(4 360)">
<title>SLDeviceRotation.h</title>
<polygon fill="white" stroke="none" points="-4,4 -4,-360 234,-360 234,4 -4,4"/>
<!-- Node1 -->
<g id="node1" class="node"><title>Node1</title>
<polygon fill="#bfbfbf" stroke="black" points="-0.5,-336.5 -0.5,-355.5 104.5,-355.5 104.5,-336.5 -0.5,-336.5"/>
<text text-anchor="middle" x="52" y="-343.5" font-family="Arial.ttf" font-size="10.00">SLDeviceRotation.h</text>
</g>
<!-- Node2 -->
<g id="node2" class="node"><title>Node2</title>
<g id="a_node2"><a xlink:href="_s_l_8h.html" target="_top" xlink:title="SL.h">
<polygon fill="white" stroke="black" points="61.5,-112.5 61.5,-131.5 98.5,-131.5 98.5,-112.5 61.5,-112.5"/>
<text text-anchor="middle" x="80" y="-119.5" font-family="Arial.ttf" font-size="10.00">SL.h</text>
</a>
</g>
</g>
<!-- Node1&#45;&gt;Node2 -->
<g id="edge1" class="edge"><title>Node1&#45;&gt;Node2</title>
<path fill="none" stroke="midnightblue" d="M50.6858,-336.321C47.0465,-310.26 38.1737,-230.627 55,-168 57.6335,-158.198 62.8501,-148.237 67.8399,-140.187"/>
<polygon fill="midnightblue" stroke="midnightblue" points="70.8298,-142.011 73.4249,-131.739 64.9904,-138.151 70.8298,-142.011"/>
</g>
<!-- Node6 -->
<g id="node6" class="node"><title>Node6</title>
<g id="a_node6"><a xlink:href="_s_l_mat3_8h.html" target="_top" xlink:title="SLMat3.h">
<polygon fill="white" stroke="black" points="71.5,-280.5 71.5,-299.5 130.5,-299.5 130.5,-280.5 71.5,-280.5"/>
<text text-anchor="middle" x="101" y="-287.5" font-family="Arial.ttf" font-size="10.00">SLMat3.h</text>
</a>
</g>
</g>
<!-- Node1&#45;&gt;Node6 -->
<g id="edge5" class="edge"><title>Node1&#45;&gt;Node6</title>
<path fill="none" stroke="midnightblue" d="M60.0914,-336.083C67.1554,-328.298 77.5876,-316.801 86.1489,-307.367"/>
<polygon fill="midnightblue" stroke="midnightblue" points="88.9312,-309.509 93.0592,-299.751 83.7473,-304.805 88.9312,-309.509"/>
</g>
<!-- Node3 -->
<g id="node3" class="node"><title>Node3</title>
<g id="a_node3"><a xlink:href="_utils_8h.html" target="_top" xlink:title="Utils.h">
<polygon fill="white" stroke="black" points="155,-56.5 155,-75.5 199,-75.5 199,-56.5 155,-56.5"/>
<text text-anchor="middle" x="177" y="-63.5" font-family="Arial.ttf" font-size="10.00">Utils.h</text>
</a>
</g>
</g>
<!-- Node2&#45;&gt;Node3 -->
<g id="edge2" class="edge"><title>Node2&#45;&gt;Node3</title>
<path fill="none" stroke="midnightblue" d="M95.5847,-112.324C110.999,-103.743 134.812,-90.486 152.71,-80.5224"/>
<polygon fill="midnightblue" stroke="midnightblue" points="154.419,-83.5767 161.454,-75.6545 151.014,-77.4606 154.419,-83.5767"/>
</g>
<!-- Node4 -->
<g id="node4" class="node"><title>Node4</title>
<polygon fill="white" stroke="#bfbfbf" points="126.5,-0.5 126.5,-19.5 167.5,-19.5 167.5,-0.5 126.5,-0.5"/>
<text text-anchor="middle" x="147" y="-7.5" font-family="Arial.ttf" font-size="10.00">string</text>
</g>
<!-- Node3&#45;&gt;Node4 -->
<g id="edge3" class="edge"><title>Node3&#45;&gt;Node4</title>
<path fill="none" stroke="midnightblue" d="M172.046,-56.083C167.896,-48.6127 161.847,-37.7244 156.733,-28.5199"/>
<polygon fill="midnightblue" stroke="midnightblue" points="159.778,-26.7929 151.862,-19.7511 153.659,-30.1924 159.778,-26.7929"/>
</g>
<!-- Node5 -->
<g id="node5" class="node"><title>Node5</title>
<polygon fill="white" stroke="#bfbfbf" points="186,-0.5 186,-19.5 230,-19.5 230,-0.5 186,-0.5"/>
<text text-anchor="middle" x="208" y="-7.5" font-family="Arial.ttf" font-size="10.00">vector</text>
</g>
<!-- Node3&#45;&gt;Node5 -->
<g id="edge4" class="edge"><title>Node3&#45;&gt;Node5</title>
<path fill="none" stroke="midnightblue" d="M182.119,-56.083C186.408,-48.6127 192.658,-37.7244 197.942,-28.5199"/>
<polygon fill="midnightblue" stroke="midnightblue" points="201.033,-30.1662 202.976,-19.7511 194.962,-26.6811 201.033,-30.1662"/>
</g>
<!-- Node6&#45;&gt;Node2 -->
<g id="edge6" class="edge"><title>Node6&#45;&gt;Node2</title>
<path fill="none" stroke="midnightblue" d="M90.0098,-280.365C80.5474,-272.171 67.5645,-258.917 62,-244 48.9386,-208.986 62.3367,-164.94 71.9913,-140.82"/>
<polygon fill="midnightblue" stroke="midnightblue" points="75.2552,-142.088 75.9337,-131.515 68.8098,-139.357 75.2552,-142.088"/>
</g>
<!-- Node6&#45;&gt;Node3 -->
<g id="edge7" class="edge"><title>Node6&#45;&gt;Node3</title>
<path fill="none" stroke="midnightblue" d="M130.538,-286.163C157.108,-281.869 194.694,-271.084 213,-244 247.043,-193.634 208.881,-118.046 188.35,-84.3193"/>
<polygon fill="midnightblue" stroke="midnightblue" points="191.162,-82.2168 182.872,-75.6199 185.239,-85.947 191.162,-82.2168"/>
</g>
<!-- Node7 -->
<g id="node7" class="node"><title>Node7</title>
<g id="a_node7"><a xlink:href="_s_l_vec3_8h.html" target="_top" xlink:title="SLVec3.h">
<polygon fill="white" stroke="black" points="71,-224.5 71,-243.5 131,-243.5 131,-224.5 71,-224.5"/>
<text text-anchor="middle" x="101" y="-231.5" font-family="Arial.ttf" font-size="10.00">SLVec3.h</text>
</a>
</g>
</g>
<!-- Node6&#45;&gt;Node7 -->
<g id="edge8" class="edge"><title>Node6&#45;&gt;Node7</title>
<path fill="none" stroke="midnightblue" d="M101,-280.083C101,-273.006 101,-262.861 101,-253.986"/>
<polygon fill="midnightblue" stroke="midnightblue" points="104.5,-253.751 101,-243.751 97.5001,-253.751 104.5,-253.751"/>
</g>
<!-- Node9 -->
<g id="node9" class="node"><title>Node9</title>
<polygon fill="white" stroke="#bfbfbf" points="149.5,-224.5 149.5,-243.5 204.5,-243.5 204.5,-224.5 149.5,-224.5"/>
<text text-anchor="middle" x="177" y="-231.5" font-family="Arial.ttf" font-size="10.00">iostream</text>
</g>
<!-- Node6&#45;&gt;Node9 -->
<g id="edge14" class="edge"><title>Node6&#45;&gt;Node9</title>
<path fill="none" stroke="midnightblue" d="M113.211,-280.324C124.776,-272.107 142.375,-259.602 156.161,-249.807"/>
<polygon fill="midnightblue" stroke="midnightblue" points="158.443,-252.479 164.567,-243.834 154.388,-246.773 158.443,-252.479"/>
</g>
<!-- Node7&#45;&gt;Node2 -->
<g id="edge9" class="edge"><title>Node7&#45;&gt;Node2</title>
<path fill="none" stroke="midnightblue" d="M99.3522,-224.368C95.9632,-206.617 88.1454,-165.666 83.5504,-141.597"/>
<polygon fill="midnightblue" stroke="midnightblue" points="86.9534,-140.758 81.6402,-131.591 80.0776,-142.07 86.9534,-140.758"/>
</g>
<!-- Node7&#45;&gt;Node3 -->
<g id="edge13" class="edge"><title>Node7&#45;&gt;Node3</title>
<path fill="none" stroke="midnightblue" d="M129.015,-224.397C146.174,-217.515 166.748,-205.984 177,-188 195.314,-155.873 188.441,-110.714 182.36,-85.6371"/>
<polygon fill="midnightblue" stroke="midnightblue" points="185.658,-84.4189 179.716,-75.6476 178.891,-86.2104 185.658,-84.4189"/>
</g>
<!-- Node8 -->
<g id="node8" class="node"><title>Node8</title>
<g id="a_node8"><a xlink:href="_s_l_vec2_8h.html" target="_top" xlink:title="SLVec2.h">
<polygon fill="white" stroke="black" points="108,-168.5 108,-187.5 168,-187.5 168,-168.5 108,-168.5"/>
<text text-anchor="middle" x="138" y="-175.5" font-family="Arial.ttf" font-size="10.00">SLVec2.h</text>
</a>
</g>
</g>
<!-- Node7&#45;&gt;Node8 -->
<g id="edge10" class="edge"><title>Node7&#45;&gt;Node8</title>
<path fill="none" stroke="midnightblue" d="M107.11,-224.083C112.282,-216.534 119.846,-205.495 126.194,-196.23"/>
<polygon fill="midnightblue" stroke="midnightblue" points="129.239,-197.979 132.004,-187.751 123.464,-194.022 129.239,-197.979"/>
</g>
<!-- Node8&#45;&gt;Node2 -->
<g id="edge11" class="edge"><title>Node8&#45;&gt;Node2</title>
<path fill="none" stroke="midnightblue" d="M128.681,-168.324C120.107,-160.341 107.188,-148.313 96.8124,-138.653"/>
<polygon fill="midnightblue" stroke="midnightblue" points="99.1922,-136.086 89.4883,-131.834 94.4223,-141.21 99.1922,-136.086"/>
</g>
<!-- Node8&#45;&gt;Node3 -->
<g id="edge12" class="edge"><title>Node8&#45;&gt;Node3</title>
<path fill="none" stroke="midnightblue" d="M141.06,-168.368C147.382,-150.537 162.004,-109.295 170.522,-85.2717"/>
<polygon fill="midnightblue" stroke="midnightblue" points="173.911,-86.1862 173.954,-75.5914 167.313,-83.847 173.911,-86.1862"/>
</g>
</g>
</svg>
