<?xml version="1.0" encoding="UTF-8" standalone="no"?>
<!DOCTYPE svg PUBLIC "-//W3C//DTD SVG 1.1//EN"
 "http://www.w3.org/Graphics/SVG/1.1/DTD/svg11.dtd">
<!-- Generated by graphviz version 2.28.0 (20110507.0327)
 -->
<!-- Title: SLApplication.h Pages: 1 -->
<svg width="1206pt" height="588pt"
 viewBox="0.00 0.00 1206.00 588.00" xmlns="http://www.w3.org/2000/svg" xmlns:xlink="http://www.w3.org/1999/xlink">
<g id="graph1" class="graph" transform="scale(1 1) rotate(0) translate(4 584)">
<title>SLApplication.h</title>
<polygon fill="white" stroke="white" points="-4,5 -4,-584 1203,-584 1203,5 -4,5"/>
<!-- Node1 -->
<g id="node1" class="node"><title>Node1</title>
<polygon fill="#bfbfbf" stroke="black" points="554,-560.5 554,-579.5 644,-579.5 644,-560.5 554,-560.5"/>
<text text-anchor="middle" x="599" y="-567.5" font-family="Arial.ttf" font-size="10.00">SLApplication.h</text>
</g>
<!-- Node2 -->
<g id="node3" class="node"><title>Node2</title>
<polygon fill="white" stroke="#bfbfbf" points="517.5,-0.5 517.5,-19.5 572.5,-19.5 572.5,-0.5 517.5,-0.5"/>
<text text-anchor="middle" x="545" y="-7.5" font-family="Arial.ttf" font-size="10.00">stdafx.h</text>
</g>
<!-- Node1&#45;&gt;Node2 -->
<g id="edge2" class="edge"><title>Node1&#45;&gt;Node2</title>
<path fill="none" stroke="midnightblue" d="M644.034,-562.727C730.437,-549.422 911,-514.927 911,-459 911,-459 911,-459 911,-121 911,-75.8741 874.114,-74.6009 833,-56 749.401,-18.1777 639.751,-11.358 582.889,-10.598"/>
<polygon fill="midnightblue" stroke="midnightblue" points="582.599,-7.09577 572.573,-10.5198 582.546,-14.0956 582.599,-7.09577"/>
</g>
<!-- Node3 -->
<g id="node5" class="node"><title>Node3</title>
<a xlink:href="_s_l_input_manager_8h.html" target="_top" xlink:title="SLInputManager.h">
<polygon fill="white" stroke="black" points="98,-392.5 98,-411.5 202,-411.5 202,-392.5 98,-392.5"/>
<text text-anchor="middle" x="150" y="-399.5" font-family="Arial.ttf" font-size="10.00">SLInputManager.h</text>
</a>
</g>
<!-- Node1&#45;&gt;Node3 -->
<g id="edge4" class="edge"><title>Node1&#45;&gt;Node3</title>
<path fill="none" stroke="midnightblue" d="M553.825,-560.5C485.631,-546.678 353.291,-515.951 249,-468 219.165,-454.282 188.025,-432.383 168.82,-417.849"/>
<polygon fill="midnightblue" stroke="midnightblue" points="170.706,-414.884 160.646,-411.559 166.437,-420.431 170.706,-414.884"/>
</g>
<!-- Node7 -->
<g id="node16" class="node"><title>Node7</title>
<a xlink:href="_s_l_c_v_calibration_8h.html" target="_top" xlink:title="SLCVCalibration.h">
<polygon fill="white" stroke="black" points="939,-112.5 939,-131.5 1041,-131.5 1041,-112.5 939,-112.5"/>
<text text-anchor="middle" x="990" y="-119.5" font-family="Arial.ttf" font-size="10.00">SLCVCalibration.h</text>
</a>
</g>
<!-- Node1&#45;&gt;Node7 -->
<g id="edge18" class="edge"><title>Node1&#45;&gt;Node7</title>
<path fill="none" stroke="midnightblue" d="M644.26,-567.256C722.488,-563.512 879.033,-552.592 925,-524 954.622,-505.574 969,-493.885 969,-459 969,-459 969,-459 969,-233 969,-200.384 978.018,-163.278 984.235,-141.573"/>
<polygon fill="midnightblue" stroke="midnightblue" points="987.666,-142.315 987.168,-131.732 980.957,-140.316 987.666,-142.315"/>
</g>
<!-- Node12 -->
<g id="node29" class="node"><title>Node12</title>
<a xlink:href="_s_l_device_rotation_8h.html" target="_top" xlink:title="SLDeviceRotation.h">
<polygon fill="white" stroke="black" points="0,-448.5 0,-467.5 110,-467.5 110,-448.5 0,-448.5"/>
<text text-anchor="middle" x="55" y="-455.5" font-family="Arial.ttf" font-size="10.00">SLDeviceRotation.h</text>
</a>
</g>
<!-- Node1&#45;&gt;Node12 -->
<g id="edge34" class="edge"><title>Node1&#45;&gt;Node12</title>
<path fill="none" stroke="midnightblue" d="M553.866,-568.977C477.459,-567.853 318.413,-560.808 190,-524 148.354,-512.063 103.757,-488.147 77.6757,-472.89"/>
<polygon fill="midnightblue" stroke="midnightblue" points="79.3285,-469.801 68.9442,-467.7 75.7515,-475.818 79.3285,-469.801"/>
</g>
<!-- Node13 -->
<g id="node32" class="node"><title>Node13</title>
<a xlink:href="_s_l_device_location_8h.html" target="_top" xlink:title="SLDeviceLocation.h">
<polygon fill="white" stroke="black" points="544,-504.5 544,-523.5 654,-523.5 654,-504.5 544,-504.5"/>
<text text-anchor="middle" x="599" y="-511.5" font-family="Arial.ttf" font-size="10.00">SLDeviceLocation.h</text>
</a>
</g>
<!-- Node1&#45;&gt;Node13 -->
<g id="edge38" class="edge"><title>Node1&#45;&gt;Node13</title>
<path fill="none" stroke="midnightblue" d="M599,-560.083C599,-553.006 599,-542.861 599,-533.986"/>
<polygon fill="midnightblue" stroke="midnightblue" points="602.5,-533.751 599,-523.751 595.5,-533.751 602.5,-533.751"/>
</g>
<!-- Node3&#45;&gt;Node2 -->
<g id="edge6" class="edge"><title>Node3&#45;&gt;Node2</title>
<path fill="none" stroke="midnightblue" d="M134.808,-392.268C108.677,-375.983 58,-338.303 58,-291 58,-291 58,-291 58,-121 58,-28.9603 393.147,-13.9269 507.385,-11.476"/>
<polygon fill="midnightblue" stroke="midnightblue" points="507.491,-14.9747 517.421,-11.2813 507.355,-7.97598 507.491,-14.9747"/>
</g>
<!-- Node4 -->
<g id="node8" class="node"><title>Node4</title>
<a xlink:href="_s_l_input_event_8h.html" target="_top" xlink:title="SLInputEvent.h">
<polygon fill="white" stroke="black" points="145.5,-336.5 145.5,-355.5 234.5,-355.5 234.5,-336.5 145.5,-336.5"/>
<text text-anchor="middle" x="190" y="-343.5" font-family="Arial.ttf" font-size="10.00">SLInputEvent.h</text>
</a>
</g>
<!-- Node3&#45;&gt;Node4 -->
<g id="edge8" class="edge"><title>Node3&#45;&gt;Node4</title>
<path fill="none" stroke="midnightblue" d="M156.605,-392.083C162.255,-384.455 170.545,-373.264 177.451,-363.941"/>
<polygon fill="midnightblue" stroke="midnightblue" points="180.378,-365.87 183.518,-355.751 174.753,-361.703 180.378,-365.87"/>
</g>
<!-- Node6 -->
<g id="node13" class="node"><title>Node6</title>
<a xlink:href="_s_l_input_device_8h.html" target="_top" xlink:title="SLInputDevice.h">
<polygon fill="white" stroke="black" points="86,-224.5 86,-243.5 180,-243.5 180,-224.5 86,-224.5"/>
<text text-anchor="middle" x="133" y="-231.5" font-family="Arial.ttf" font-size="10.00">SLInputDevice.h</text>
</a>
</g>
<!-- Node3&#45;&gt;Node6 -->
<g id="edge14" class="edge"><title>Node3&#45;&gt;Node6</title>
<path fill="none" stroke="midnightblue" d="M146.468,-392.211C143.064,-383.266 138.127,-368.917 136,-356 130.102,-320.185 130.798,-277.613 131.874,-253.709"/>
<polygon fill="midnightblue" stroke="midnightblue" points="135.376,-253.754 132.406,-243.584 128.386,-253.387 135.376,-253.754"/>
</g>
<!-- Node4&#45;&gt;Node2 -->
<g id="edge10" class="edge"><title>Node4&#45;&gt;Node2</title>
<path fill="none" stroke="midnightblue" d="M192.428,-336.24C197.341,-317.711 208,-273.122 208,-235 208,-235 208,-235 208,-121 208,-90.2048 208.053,-75.3624 232,-56 273.604,-22.3601 433.302,-13.8592 507.147,-11.7177"/>
<polygon fill="midnightblue" stroke="midnightblue" points="507.491,-15.2099 517.395,-11.4456 507.305,-8.21235 507.491,-15.2099"/>
</g>
<!-- Node5 -->
<g id="node11" class="node"><title>Node5</title>
<a xlink:href="_s_l_enums_8h.html" target="_top" xlink:title="SLEnums.h">
<polygon fill="white" stroke="black" points="274.5,-280.5 274.5,-299.5 345.5,-299.5 345.5,-280.5 274.5,-280.5"/>
<text text-anchor="middle" x="310" y="-287.5" font-family="Arial.ttf" font-size="10.00">SLEnums.h</text>
</a>
</g>
<!-- Node4&#45;&gt;Node5 -->
<g id="edge12" class="edge"><title>Node4&#45;&gt;Node5</title>
<path fill="none" stroke="midnightblue" d="M209.014,-336.444C228.588,-327.636 259.308,-313.812 281.729,-303.722"/>
<polygon fill="midnightblue" stroke="midnightblue" points="283.392,-306.812 291.075,-299.516 280.519,-300.428 283.392,-306.812"/>
</g>
<!-- Node6&#45;&gt;Node2 -->
<g id="edge16" class="edge"><title>Node6&#45;&gt;Node2</title>
<path fill="none" stroke="midnightblue" d="M133.022,-224.229C133.615,-194.975 139.804,-100.115 194,-56 241.31,-17.4907 426.432,-11.6479 507.091,-10.9641"/>
<polygon fill="midnightblue" stroke="midnightblue" points="507.324,-14.4629 517.302,-10.9007 507.28,-7.46299 507.324,-14.4629"/>
</g>
<!-- Node7&#45;&gt;Node2 -->
<g id="edge20" class="edge"><title>Node7&#45;&gt;Node2</title>
<path fill="none" stroke="midnightblue" d="M984.392,-112.45C974.396,-98.0113 951.995,-69.0944 925,-56 865.172,-26.9788 666.543,-15.8284 582.779,-12.3458"/>
<polygon fill="midnightblue" stroke="midnightblue" points="582.813,-8.84451 572.681,-11.9403 582.532,-15.8389 582.813,-8.84451"/>
</g>
<!-- Node7&#45;&gt;Node7 -->
<g id="edge32" class="edge"><title>Node7&#45;&gt;Node7</title>
<path fill="none" stroke="midnightblue" d="M1019.43,-131.525C1039.42,-134.308 1059,-131.133 1059,-122 1059,-114.437 1045.58,-110.96 1029.6,-111.568"/>
<polygon fill="midnightblue" stroke="midnightblue" points="1029.08,-108.101 1019.43,-112.475 1029.7,-115.073 1029.08,-108.101"/>
</g>
<!-- Node8 -->
<g id="node19" class="node"><title>Node8</title>
<a xlink:href="_s_l_c_v_8h.html" target="_top" xlink:title="SLCV.h">
<polygon fill="white" stroke="black" points="977.5,-56.5 977.5,-75.5 1028.5,-75.5 1028.5,-56.5 977.5,-56.5"/>
<text text-anchor="middle" x="1003" y="-63.5" font-family="Arial.ttf" font-size="10.00">SLCV.h</text>
</a>
</g>
<!-- Node7&#45;&gt;Node8 -->
<g id="edge22" class="edge"><title>Node7&#45;&gt;Node8</title>
<path fill="none" stroke="midnightblue" d="M992.147,-112.083C993.869,-104.927 996.347,-94.6353 998.5,-85.6911"/>
<polygon fill="midnightblue" stroke="midnightblue" points="1001.96,-86.2925 1000.89,-75.7511 995.15,-84.6541 1001.96,-86.2925"/>
</g>
<!-- Node8&#45;&gt;Node2 -->
<g id="edge24" class="edge"><title>Node8&#45;&gt;Node2</title>
<path fill="none" stroke="midnightblue" d="M977.264,-58.7558C972.538,-57.7387 967.635,-56.7683 963,-56 823.679,-32.9045 656.181,-19.0147 582.682,-13.6081"/>
<polygon fill="midnightblue" stroke="midnightblue" points="582.762,-10.1048 572.535,-12.8719 582.255,-17.0865 582.762,-10.1048"/>
</g>
<!-- Node9 -->
<g id="node22" class="node"><title>Node9</title>
<polygon fill="white" stroke="#bfbfbf" points="945,-0.5 945,-19.5 1061,-19.5 1061,-0.5 945,-0.5"/>
<text text-anchor="middle" x="1003" y="-7.5" font-family="Arial.ttf" font-size="10.00">opencv2/opencv.hpp</text>
</g>
<!-- Node8&#45;&gt;Node9 -->
<g id="edge26" class="edge"><title>Node8&#45;&gt;Node9</title>
<path fill="none" stroke="midnightblue" d="M1003,-56.083C1003,-49.0059 1003,-38.8611 1003,-29.9865"/>
<polygon fill="midnightblue" stroke="midnightblue" points="1006.5,-29.751 1003,-19.7511 999.5,-29.7511 1006.5,-29.751"/>
</g>
<!-- Node10 -->
<g id="node24" class="node"><title>Node10</title>
<polygon fill="white" stroke="#bfbfbf" points="1079.5,-0.5 1079.5,-19.5 1198.5,-19.5 1198.5,-0.5 1079.5,-0.5"/>
<text text-anchor="middle" x="1139" y="-7.5" font-family="Arial.ttf" font-size="10.00">opencv2/core/ocl.hpp</text>
</g>
<!-- Node8&#45;&gt;Node10 -->
<g id="edge28" class="edge"><title>Node8&#45;&gt;Node10</title>
<path fill="none" stroke="midnightblue" d="M1024.55,-56.4435C1047.03,-47.5171 1082.49,-33.4387 1107.98,-23.3168"/>
<polygon fill="midnightblue" stroke="midnightblue" points="1109.55,-26.4598 1117.55,-19.5164 1106.97,-19.9539 1109.55,-26.4598"/>
</g>
<!-- Node11 -->
<g id="node26" class="node"><title>Node11</title>
<polygon fill="white" stroke="#bfbfbf" points="789,-0.5 789,-19.5 927,-19.5 927,-0.5 789,-0.5"/>
<text text-anchor="middle" x="858" y="-7.5" font-family="Arial.ttf" font-size="10.00">opencv2/xfeatures2d.hpp</text>
</g>
<!-- Node8&#45;&gt;Node11 -->
<g id="edge30" class="edge"><title>Node8&#45;&gt;Node11</title>
<path fill="none" stroke="midnightblue" d="M980.024,-56.4435C955.843,-47.4381 917.582,-33.1891 890.354,-23.049"/>
<polygon fill="midnightblue" stroke="midnightblue" points="891.461,-19.7265 880.868,-19.5164 889.018,-26.2864 891.461,-19.7265"/>
</g>
<!-- Node12&#45;&gt;Node2 -->
<g id="edge36" class="edge"><title>Node12&#45;&gt;Node2</title>
<path fill="none" stroke="midnightblue" d="M50.2797,-448.456C40.7262,-430.337 20,-386.48 20,-347 20,-347 20,-347 20,-121 20,-79.1915 50.0062,-73.4477 88,-56 162.458,-21.8069 411.961,-13.5119 507.418,-11.5703"/>
<polygon fill="midnightblue" stroke="midnightblue" points="507.556,-15.0684 517.487,-11.3777 507.422,-8.06973 507.556,-15.0684"/>
</g>
<!-- Node13&#45;&gt;Node2 -->
<g id="edge40" class="edge"><title>Node13&#45;&gt;Node2</title>
<path fill="none" stroke="midnightblue" d="M566.423,-504.458C479.035,-479.37 246,-397.256 246,-235 246,-235 246,-235 246,-121 246,-73.7946 287.14,-75.7834 330,-56 388.34,-29.0713 463.02,-18.0965 507.259,-13.74"/>
<polygon fill="midnightblue" stroke="midnightblue" points="507.652,-17.2187 517.288,-12.815 507.009,-10.2483 507.652,-17.2187"/>
</g>
<!-- Node14 -->
<g id="node35" class="node"><title>Node14</title>
<a xlink:href="_s_l_node_8h.html" target="_top" xlink:title="SLNode.h">
<polygon fill="white" stroke="black" points="567.5,-392.5 567.5,-411.5 630.5,-411.5 630.5,-392.5 567.5,-392.5"/>
<text text-anchor="middle" x="599" y="-399.5" font-family="Arial.ttf" font-size="10.00">SLNode.h</text>
</a>
</g>
<!-- Node13&#45;&gt;Node14 -->
<g id="edge42" class="edge"><title>Node13&#45;&gt;Node14</title>
<path fill="none" stroke="midnightblue" d="M599,-504.368C599,-486.617 599,-445.666 599,-421.597"/>
<polygon fill="midnightblue" stroke="midnightblue" points="602.5,-421.591 599,-411.591 595.5,-421.591 602.5,-421.591"/>
</g>
<!-- Node23 -->
<g id="node68" class="node"><title>Node23</title>
<a xlink:href="_s_l_light_direct_8h.html" target="_top" xlink:title="SLLightDirect.h">
<polygon fill="white" stroke="black" points="678.5,-448.5 678.5,-467.5 767.5,-467.5 767.5,-448.5 678.5,-448.5"/>
<text text-anchor="middle" x="723" y="-455.5" font-family="Arial.ttf" font-size="10.00">SLLightDirect.h</text>
</a>
</g>
<!-- Node13&#45;&gt;Node23 -->
<g id="edge90" class="edge"><title>Node13&#45;&gt;Node23</title>
<path fill="none" stroke="midnightblue" d="M618.648,-504.444C638.965,-495.596 670.903,-481.687 694.098,-471.586"/>
<polygon fill="midnightblue" stroke="midnightblue" points="695.673,-474.718 703.444,-467.516 692.878,-468.3 695.673,-474.718"/>
</g>
<!-- Node14&#45;&gt;Node2 -->
<g id="edge44" class="edge"><title>Node14&#45;&gt;Node2</title>
<path fill="none" stroke="midnightblue" d="M608.086,-392.495C633.004,-368.127 699.87,-295.225 689,-224 677.188,-146.602 687.111,-115.31 636,-56 622.054,-39.8163 600.912,-28.8695 582.516,-21.8287"/>
<polygon fill="midnightblue" stroke="midnightblue" points="583.516,-18.4693 572.922,-18.4032 581.163,-25.0618 583.516,-18.4693"/>
</g>
<!-- Node14&#45;&gt;Node5 -->
<g id="edge46" class="edge"><title>Node14&#45;&gt;Node5</title>
<path fill="none" stroke="midnightblue" d="M567.443,-400.764C521.437,-399.147 434.524,-391.2 371,-356 350.15,-344.446 332.306,-323.264 321.4,-308.223"/>
<polygon fill="midnightblue" stroke="midnightblue" points="324.122,-306.007 315.541,-299.793 318.374,-310.002 324.122,-306.007"/>
</g>
<!-- Node14&#45;&gt;Node14 -->
<g id="edge78" class="edge"><title>Node14&#45;&gt;Node14</title>
<path fill="none" stroke="midnightblue" d="M619.899,-411.525C634.099,-414.308 648,-411.133 648,-402 648,-395.079 640.017,-391.579 629.97,-391.501"/>
<polygon fill="midnightblue" stroke="midnightblue" points="629.515,-388.029 619.899,-392.475 630.189,-394.996 629.515,-388.029"/>
</g>
<!-- Node15 -->
<g id="node39" class="node"><title>Node15</title>
<a xlink:href="_s_l_mesh_8h.html" target="_top" xlink:title="SLMesh.h">
<polygon fill="white" stroke="black" points="380.5,-336.5 380.5,-355.5 443.5,-355.5 443.5,-336.5 380.5,-336.5"/>
<text text-anchor="middle" x="412" y="-343.5" font-family="Arial.ttf" font-size="10.00">SLMesh.h</text>
</a>
</g>
<!-- Node14&#45;&gt;Node15 -->
<g id="edge48" class="edge"><title>Node14&#45;&gt;Node15</title>
<path fill="none" stroke="midnightblue" d="M569.369,-392.444C537.5,-383.241 486.667,-368.562 451.436,-358.388"/>
<polygon fill="midnightblue" stroke="midnightblue" points="452.071,-354.928 441.492,-355.516 450.128,-361.653 452.071,-354.928"/>
</g>
<!-- Node21 -->
<g id="node61" class="node"><title>Node21</title>
<a xlink:href="_s_l_draw_bits_8h.html" target="_top" xlink:title="SLDrawBits.h">
<polygon fill="white" stroke="black" points="600,-224.5 600,-243.5 680,-243.5 680,-224.5 600,-224.5"/>
<text text-anchor="middle" x="640" y="-231.5" font-family="Arial.ttf" font-size="10.00">SLDrawBits.h</text>
</a>
</g>
<!-- Node14&#45;&gt;Node21 -->
<g id="edge80" class="edge"><title>Node14&#45;&gt;Node21</title>
<path fill="none" stroke="midnightblue" d="M604.197,-392.36C609.27,-383.531 616.819,-369.271 621,-356 632.038,-320.967 636.831,-278.122 638.781,-253.957"/>
<polygon fill="midnightblue" stroke="midnightblue" points="642.291,-253.938 639.524,-243.71 635.31,-253.431 642.291,-253.938"/>
</g>
<!-- Node22 -->
<g id="node64" class="node"><title>Node22</title>
<a xlink:href="_s_l_event_handler_8h.html" target="_top" xlink:title="SLEventHandler.h">
<polygon fill="white" stroke="black" points="510,-336.5 510,-355.5 612,-355.5 612,-336.5 510,-336.5"/>
<text text-anchor="middle" x="561" y="-343.5" font-family="Arial.ttf" font-size="10.00">SLEventHandler.h</text>
</a>
</g>
<!-- Node14&#45;&gt;Node22 -->
<g id="edge84" class="edge"><title>Node14&#45;&gt;Node22</title>
<path fill="none" stroke="midnightblue" d="M592.725,-392.083C587.358,-384.455 579.482,-373.264 572.921,-363.941"/>
<polygon fill="midnightblue" stroke="midnightblue" points="575.775,-361.915 567.158,-355.751 570.051,-365.943 575.775,-361.915"/>
</g>
<!-- Node15&#45;&gt;Node2 -->
<g id="edge50" class="edge"><title>Node15&#45;&gt;Node2</title>
<path fill="none" stroke="midnightblue" d="M405.018,-336.445C382.649,-308.828 313.609,-221.883 303,-188 300.344,-179.517 301.115,-176.687 303,-168 314.597,-114.548 311.727,-90.7076 354,-56 397.813,-20.0281 465.365,-11.8071 507.286,-10.459"/>
<polygon fill="midnightblue" stroke="midnightblue" points="507.435,-13.9567 517.361,-10.2516 507.291,-6.95822 507.435,-13.9567"/>
</g>
<!-- Node15&#45;&gt;Node5 -->
<g id="edge76" class="edge"><title>Node15&#45;&gt;Node5</title>
<path fill="none" stroke="midnightblue" d="M395.612,-336.324C379.329,-327.703 354.133,-314.364 335.284,-304.386"/>
<polygon fill="midnightblue" stroke="midnightblue" points="336.823,-301.24 326.347,-299.655 333.548,-307.427 336.823,-301.24"/>
</g>
<!-- Node16 -->
<g id="node42" class="node"><title>Node16</title>
<a xlink:href="_s_l_a_a_b_box_8h.html" target="_top" xlink:title="SLAABBox.h">
<polygon fill="white" stroke="black" points="440,-280.5 440,-299.5 516,-299.5 516,-280.5 440,-280.5"/>
<text text-anchor="middle" x="478" y="-287.5" font-family="Arial.ttf" font-size="10.00">SLAABBox.h</text>
</a>
</g>
<!-- Node15&#45;&gt;Node16 -->
<g id="edge52" class="edge"><title>Node15&#45;&gt;Node16</title>
<path fill="none" stroke="midnightblue" d="M422.604,-336.324C432.456,-328.263 447.351,-316.077 459.215,-306.369"/>
<polygon fill="midnightblue" stroke="midnightblue" points="461.68,-308.875 467.203,-299.834 457.247,-303.457 461.68,-308.875"/>
</g>
<!-- Node18 -->
<g id="node48" class="node"><title>Node18</title>
<a xlink:href="_s_l_g_l_vertex_array_8h.html" target="_top" xlink:title="SLGLVertexArray.h">
<polygon fill="white" stroke="black" points="312.5,-168.5 312.5,-187.5 419.5,-187.5 419.5,-168.5 312.5,-168.5"/>
<text text-anchor="middle" x="366" y="-175.5" font-family="Arial.ttf" font-size="10.00">SLGLVertexArray.h</text>
</a>
</g>
<!-- Node15&#45;&gt;Node18 -->
<g id="edge74" class="edge"><title>Node15&#45;&gt;Node18</title>
<path fill="none" stroke="midnightblue" d="M408.776,-336.276C399.878,-312.188 375.59,-246.367 375,-244 371.163,-228.611 368.837,-210.736 367.514,-197.631"/>
<polygon fill="midnightblue" stroke="midnightblue" points="370.987,-197.167 366.597,-187.524 364.015,-197.799 370.987,-197.167"/>
</g>
<!-- Node16&#45;&gt;Node2 -->
<g id="edge54" class="edge"><title>Node16&#45;&gt;Node2</title>
<path fill="none" stroke="midnightblue" d="M487.5,-280.323C496.095,-271.902 508.388,-258.326 515,-244 548.986,-170.367 548.276,-70.5516 546.264,-29.6483"/>
<polygon fill="midnightblue" stroke="midnightblue" points="549.751,-29.3211 545.676,-19.5412 542.763,-29.7276 549.751,-29.3211"/>
</g>
<!-- Node17 -->
<g id="node45" class="node"><title>Node17</title>
<a xlink:href="_s_l_g_l_vertex_array_ext_8h.html" target="_top" xlink:title="SLGLVertexArrayExt.h">
<polygon fill="white" stroke="black" points="384,-224.5 384,-243.5 506,-243.5 506,-224.5 384,-224.5"/>
<text text-anchor="middle" x="445" y="-231.5" font-family="Arial.ttf" font-size="10.00">SLGLVertexArrayExt.h</text>
</a>
</g>
<!-- Node16&#45;&gt;Node17 -->
<g id="edge56" class="edge"><title>Node16&#45;&gt;Node17</title>
<path fill="none" stroke="midnightblue" d="M472.551,-280.083C467.986,-272.613 461.332,-261.724 455.707,-252.52"/>
<polygon fill="midnightblue" stroke="midnightblue" points="458.549,-250.459 450.348,-243.751 452.576,-254.109 458.549,-250.459"/>
</g>
<!-- Node17&#45;&gt;Node2 -->
<g id="edge58" class="edge"><title>Node17&#45;&gt;Node2</title>
<path fill="none" stroke="midnightblue" d="M451.237,-224.489C463.38,-207.597 490.454,-168.324 507,-132 522.838,-97.2307 534.664,-54.0047 540.64,-29.7601"/>
<polygon fill="midnightblue" stroke="midnightblue" points="544.105,-30.3187 543.032,-19.7783 537.298,-28.6873 544.105,-30.3187"/>
</g>
<!-- Node17&#45;&gt;Node18 -->
<g id="edge60" class="edge"><title>Node17&#45;&gt;Node18</title>
<path fill="none" stroke="midnightblue" d="M432.307,-224.324C420.099,-215.979 401.422,-203.212 386.997,-193.352"/>
<polygon fill="midnightblue" stroke="midnightblue" points="388.892,-190.408 378.661,-187.655 384.942,-196.187 388.892,-190.408"/>
</g>
<!-- Node18&#45;&gt;Node2 -->
<g id="edge62" class="edge"><title>Node18&#45;&gt;Node2</title>
<path fill="none" stroke="midnightblue" d="M362.831,-168.223C355.612,-146.529 340.531,-89.7048 367,-56 384.113,-34.2087 460.074,-21.2613 507.063,-15.1957"/>
<polygon fill="midnightblue" stroke="midnightblue" points="507.697,-18.6438 517.189,-13.9367 506.833,-11.6973 507.697,-18.6438"/>
</g>
<!-- Node19 -->
<g id="node51" class="node"><title>Node19</title>
<a xlink:href="_s_l_g_l_enums_8h.html" target="_top" xlink:title="SLGLEnums.h">
<polygon fill="white" stroke="black" points="376.5,-56.5 376.5,-75.5 459.5,-75.5 459.5,-56.5 376.5,-56.5"/>
<text text-anchor="middle" x="418" y="-63.5" font-family="Arial.ttf" font-size="10.00">SLGLEnums.h</text>
</a>
</g>
<!-- Node18&#45;&gt;Node19 -->
<g id="edge64" class="edge"><title>Node18&#45;&gt;Node19</title>
<path fill="none" stroke="midnightblue" d="M366.346,-168.133C367.16,-155.179 369.883,-130.6 379,-112 384.324,-101.139 392.927,-90.8059 400.701,-82.7871"/>
<polygon fill="midnightblue" stroke="midnightblue" points="403.342,-85.0995 408.046,-75.6058 398.449,-80.0944 403.342,-85.0995"/>
</g>
<!-- Node20 -->
<g id="node54" class="node"><title>Node20</title>
<a xlink:href="_s_l_g_l_vertex_buffer_8h.html" target="_top" xlink:title="SLGLVertexBuffer.h">
<polygon fill="white" stroke="black" points="388,-112.5 388,-131.5 498,-131.5 498,-112.5 388,-112.5"/>
<text text-anchor="middle" x="443" y="-119.5" font-family="Arial.ttf" font-size="10.00">SLGLVertexBuffer.h</text>
</a>
</g>
<!-- Node18&#45;&gt;Node20 -->
<g id="edge68" class="edge"><title>Node18&#45;&gt;Node20</title>
<path fill="none" stroke="midnightblue" d="M378.371,-168.324C390.158,-160.058 408.132,-147.453 422.136,-137.632"/>
<polygon fill="midnightblue" stroke="midnightblue" points="424.482,-140.262 430.659,-131.655 420.462,-134.531 424.482,-140.262"/>
</g>
<!-- Node19&#45;&gt;Node2 -->
<g id="edge66" class="edge"><title>Node19&#45;&gt;Node2</title>
<path fill="none" stroke="midnightblue" d="M438.124,-56.4435C459.024,-47.5566 491.935,-33.5632 515.716,-23.4514"/>
<polygon fill="midnightblue" stroke="midnightblue" points="517.138,-26.6504 524.971,-19.5164 514.398,-20.2085 517.138,-26.6504"/>
</g>
<!-- Node20&#45;&gt;Node2 -->
<g id="edge70" class="edge"><title>Node20&#45;&gt;Node2</title>
<path fill="none" stroke="midnightblue" d="M451.004,-112.368C468.06,-93.9744 508.214,-50.6712 530.116,-27.0519"/>
<polygon fill="midnightblue" stroke="midnightblue" points="532.8,-29.3039 537.033,-19.5914 527.668,-24.5443 532.8,-29.3039"/>
</g>
<!-- Node20&#45;&gt;Node19 -->
<g id="edge72" class="edge"><title>Node20&#45;&gt;Node19</title>
<path fill="none" stroke="midnightblue" d="M438.872,-112.083C435.486,-104.77 430.584,-94.1814 426.381,-85.1034"/>
<polygon fill="midnightblue" stroke="midnightblue" points="429.429,-83.3553 422.051,-75.7511 423.077,-86.2962 429.429,-83.3553"/>
</g>
<!-- Node21&#45;&gt;Node2 -->
<g id="edge82" class="edge"><title>Node21&#45;&gt;Node2</title>
<path fill="none" stroke="midnightblue" d="M641.215,-224.402C644.595,-197.21 651.662,-111.597 616,-56 606.887,-41.792 591.515,-31.2367 577.4,-23.9337"/>
<polygon fill="midnightblue" stroke="midnightblue" points="578.914,-20.778 568.385,-19.5986 575.88,-27.0865 578.914,-20.778"/>
</g>
<!-- Node22&#45;&gt;Node2 -->
<g id="edge86" class="edge"><title>Node22&#45;&gt;Node2</title>
<path fill="none" stroke="midnightblue" d="M562.057,-336.399C566.154,-301.257 579.848,-165.27 561,-56 559.432,-46.9098 556.205,-37.2219 553.057,-29.1726"/>
<polygon fill="midnightblue" stroke="midnightblue" points="556.194,-27.6018 549.111,-19.7229 549.735,-30.2993 556.194,-27.6018"/>
</g>
<!-- Node22&#45;&gt;Node5 -->
<g id="edge88" class="edge"><title>Node22&#45;&gt;Node5</title>
<path fill="none" stroke="midnightblue" d="M521.228,-336.444C476.154,-326.746 402.819,-310.969 355.501,-300.789"/>
<polygon fill="midnightblue" stroke="midnightblue" points="356.04,-297.325 345.527,-298.643 354.567,-304.168 356.04,-297.325"/>
</g>
<!-- Node23&#45;&gt;Node2 -->
<g id="edge92" class="edge"><title>Node23&#45;&gt;Node2</title>
<path fill="none" stroke="midnightblue" d="M756.663,-448.483C800.888,-435.036 873,-404.321 873,-347 873,-347 873,-347 873,-121 873,-75.5318 835.26,-75.1045 794,-56 724.033,-23.6033 632.962,-14.4769 582.613,-11.9405"/>
<polygon fill="midnightblue" stroke="midnightblue" points="582.654,-8.43896 572.509,-11.4932 582.345,-15.4321 582.654,-8.43896"/>
</g>
<!-- Node23&#45;&gt;Node14 -->
<g id="edge94" class="edge"><title>Node23&#45;&gt;Node14</title>
<path fill="none" stroke="midnightblue" d="M703.352,-448.444C683.035,-439.596 651.097,-425.687 627.902,-415.586"/>
<polygon fill="midnightblue" stroke="midnightblue" points="629.122,-412.3 618.556,-411.516 626.327,-418.718 629.122,-412.3"/>
</g>
<!-- Node24 -->
<g id="node72" class="node"><title>Node24</title>
<a xlink:href="_s_l_light_8h.html" target="_top" xlink:title="SLLight.h">
<polygon fill="white" stroke="black" points="715.5,-168.5 715.5,-187.5 776.5,-187.5 776.5,-168.5 715.5,-168.5"/>
<text text-anchor="middle" x="746" y="-175.5" font-family="Arial.ttf" font-size="10.00">SLLight.h</text>
</a>
</g>
<!-- Node23&#45;&gt;Node24 -->
<g id="edge96" class="edge"><title>Node23&#45;&gt;Node24</title>
<path fill="none" stroke="midnightblue" d="M723.714,-448.375C726.906,-409.782 739.923,-252.454 744.444,-197.807"/>
<polygon fill="midnightblue" stroke="midnightblue" points="747.958,-197.779 745.295,-187.524 740.982,-197.202 747.958,-197.779"/>
</g>
<!-- Node25 -->
<g id="node75" class="node"><title>Node25</title>
<a xlink:href="_s_l_samples2_d_8h.html" target="_top" xlink:title="SLSamples2D.h">
<polygon fill="white" stroke="black" points="751.5,-280.5 751.5,-299.5 844.5,-299.5 844.5,-280.5 751.5,-280.5"/>
<text text-anchor="middle" x="798" y="-287.5" font-family="Arial.ttf" font-size="10.00">SLSamples2D.h</text>
</a>
</g>
<!-- Node23&#45;&gt;Node25 -->
<g id="edge100" class="edge"><title>Node23&#45;&gt;Node25</title>
<path fill="none" stroke="midnightblue" d="M727.032,-448.075C738.889,-421.832 773.808,-344.545 789.815,-309.117"/>
<polygon fill="midnightblue" stroke="midnightblue" points="793.201,-310.122 794.129,-299.568 786.822,-307.24 793.201,-310.122"/>
</g>
<!-- Node24&#45;&gt;Node2 -->
<g id="edge98" class="edge"><title>Node24&#45;&gt;Node2</title>
<path fill="none" stroke="midnightblue" d="M745.365,-168.227C743.279,-146.04 734.687,-87.2442 701,-56 668.692,-26.0347 617.669,-15.8859 582.836,-12.5255"/>
<polygon fill="midnightblue" stroke="midnightblue" points="582.837,-9.01389 572.585,-11.6861 582.266,-15.9906 582.837,-9.01389"/>
</g>
<!-- Node25&#45;&gt;Node2 -->
<g id="edge102" class="edge"><title>Node25&#45;&gt;Node2</title>
<path fill="none" stroke="midnightblue" d="M798.915,-280.454C800.813,-261.971 805,-216.889 805,-179 805,-179 805,-179 805,-121 805,-25.7014 655.013,-11.7094 582.876,-10.491"/>
<polygon fill="midnightblue" stroke="midnightblue" points="582.857,-6.99079 572.825,-10.3958 582.791,-13.9905 582.857,-6.99079"/>
</g>
</g>
</svg>
