<?xml version="1.0" encoding="UTF-8" standalone="no"?>
<!DOCTYPE svg PUBLIC "-//W3C//DTD SVG 1.1//EN"
 "http://www.w3.org/Graphics/SVG/1.1/DTD/svg11.dtd">
<!-- Generated by graphviz version 2.40.1 (20161225.0304)
 -->
<!-- Title: SLDeviceRotation.h Pages: 1 -->
<svg width="4011pt" height="192pt"
 viewBox="0.00 0.00 4010.99 192.00" xmlns="http://www.w3.org/2000/svg" xmlns:xlink="http://www.w3.org/1999/xlink">
<g id="graph0" class="graph" transform="scale(1 1) rotate(0) translate(4 188)">
<title>SLDeviceRotation.h</title>
<polygon fill="#ffffff" stroke="transparent" points="-4,4 -4,-188 4006.9897,-188 4006.9897,4 -4,4"/>
<!-- Node1 -->
<g id="node1" class="node">
<title>Node1</title>
<g id="a_node1"><a xlink:title=" ">
<polygon fill="#bfbfbf" stroke="#000000" points="1916.106,-165.5 1916.106,-183.5 2020.4897,-183.5 2020.4897,-165.5 1916.106,-165.5"/>
<text text-anchor="middle" x="1968.2979" y="-171.5" font-family="Arial.ttf" font-size="10.00" fill="#000000">SLDeviceRotation.h</text>
</a>
</g>
</g>
<!-- Node2 -->
<g id="node2" class="node">
<title>Node2</title>
<g id="a_node2"><a xlink:href="_s_l_device_rotation_8cpp.html" target="_top" xlink:title=" ">
<polygon fill="#ffffff" stroke="#000000" points="1851.8252,-110.5 1851.8252,-128.5 1966.7705,-128.5 1966.7705,-110.5 1851.8252,-110.5"/>
<text text-anchor="middle" x="1909.2979" y="-116.5" font-family="Arial.ttf" font-size="10.00" fill="#000000">SLDeviceRotation.cpp</text>
</a>
</g>
</g>
<!-- Node1&#45;&gt;Node2 -->
<g id="edge1" class="edge">
<title>Node1&#45;&gt;Node2</title>
<path fill="none" stroke="#191970" d="M1951.2245,-158.5841C1940.8551,-148.9177 1927.979,-136.9147 1919.2522,-128.7795"/>
<polygon fill="#191970" stroke="#191970" points="1948.8539,-161.1592 1958.5552,-165.4179 1953.6271,-156.0389 1948.8539,-161.1592"/>
</g>
<!-- Node3 -->
<g id="node3" class="node">
<title>Node3</title>
<g id="a_node3"><a xlink:href="_s_l_application_8h.html" target="_top" xlink:title=" ">
<polygon fill="#ffffff" stroke="#000000" points="1984.5518,-110.5 1984.5518,-128.5 2070.0439,-128.5 2070.0439,-110.5 1984.5518,-110.5"/>
<text text-anchor="middle" x="2027.2979" y="-116.5" font-family="Arial.ttf" font-size="10.00" fill="#000000">SLApplication.h</text>
</a>
</g>
</g>
<!-- Node1&#45;&gt;Node3 -->
<g id="edge2" class="edge">
<title>Node1&#45;&gt;Node3</title>
<path fill="none" stroke="#191970" d="M1985.3712,-158.5841C1995.7406,-148.9177 2008.6167,-136.9147 2017.3435,-128.7795"/>
<polygon fill="#191970" stroke="#191970" points="1982.9686,-156.0389 1978.0405,-165.4179 1987.7418,-161.1592 1982.9686,-156.0389"/>
</g>
<!-- Node4 -->
<g id="node4" class="node">
<title>Node4</title>
<g id="a_node4"><a xlink:href="_c_v_calibration_8cpp.html" target="_top" xlink:title=" ">
<polygon fill="#ffffff" stroke="#000000" points="0,-55.5 0,-73.5 96.5957,-73.5 96.5957,-55.5 0,-55.5"/>
<text text-anchor="middle" x="48.2979" y="-61.5" font-family="Arial.ttf" font-size="10.00" fill="#000000">CVCalibration.cpp</text>
</a>
</g>
</g>
<!-- Node3&#45;&gt;Node4 -->
<g id="edge3" class="edge">
<title>Node3&#45;&gt;Node4</title>
<path fill="none" stroke="#191970" d="M1974.4499,-110.1148C1146.4401,-28.025 929.6979,-150.2248 105.2979,-74 102.5007,-73.7414 99.6336,-73.4257 96.7452,-73.0685"/>
<polygon fill="#191970" stroke="#191970" points="1974.2287,-113.6101 1984.5269,-111.121 1974.9242,-106.6447 1974.2287,-113.6101"/>
</g>
<!-- Node5 -->
<g id="node5" class="node">
<title>Node5</title>
<g id="a_node5"><a xlink:href="_s_l_g_l_im_gui_8cpp.html" target="_top" xlink:title=" ">
<polygon fill="#ffffff" stroke="#000000" points="114.7266,-55.5 114.7266,-73.5 201.8691,-73.5 201.8691,-55.5 114.7266,-55.5"/>
<text text-anchor="middle" x="158.2979" y="-61.5" font-family="Arial.ttf" font-size="10.00" fill="#000000">SLGLImGui.cpp</text>
</a>
</g>
</g>
<!-- Node3&#45;&gt;Node5 -->
<g id="edge4" class="edge">
<title>Node3&#45;&gt;Node5</title>
<path fill="none" stroke="#191970" d="M1974.4401,-110.1125C1193.3464,-32.3062 988.2965,-151.0838 211.2979,-74 208.2281,-73.6955 205.069,-73.3116 201.8947,-72.8739"/>
<polygon fill="#191970" stroke="#191970" points="1974.227,-113.6086 1984.5265,-111.1249 1974.9261,-106.6436 1974.227,-113.6086"/>
</g>
<!-- Node6 -->
<g id="node6" class="node">
<title>Node6</title>
<g id="a_node6"><a xlink:href="_s_l_g_l_oculus_f_b_8cpp.html" target="_top" xlink:title=" ">
<polygon fill="#ffffff" stroke="#000000" points="220.1108,-55.5 220.1108,-73.5 324.4849,-73.5 324.4849,-55.5 220.1108,-55.5"/>
<text text-anchor="middle" x="272.2979" y="-61.5" font-family="Arial.ttf" font-size="10.00" fill="#000000">SLGLOculusFB.cpp</text>
</a>
</g>
</g>
<!-- Node3&#45;&gt;Node6 -->
<g id="edge5" class="edge">
<title>Node3&#45;&gt;Node6</title>
<path fill="none" stroke="#191970" d="M1974.333,-110.099C1247.7699,-37.1498 1057.6771,-137.0851 334.2979,-74 331.1518,-73.7256 327.923,-73.3915 324.6704,-73.0147"/>
<polygon fill="#191970" stroke="#191970" points="1974.2245,-113.6058 1984.526,-111.1302 1974.9291,-106.6413 1974.2245,-113.6058"/>
</g>
<!-- Node7 -->
<g id="node7" class="node">
<title>Node7</title>
<g id="a_node7"><a xlink:href="_s_l_g_l_program_8cpp.html" target="_top" xlink:title=" ">
<polygon fill="#ffffff" stroke="#000000" points="342.8892,-55.5 342.8892,-73.5 441.7065,-73.5 441.7065,-55.5 342.8892,-55.5"/>
<text text-anchor="middle" x="392.2979" y="-61.5" font-family="Arial.ttf" font-size="10.00" fill="#000000">SLGLProgram.cpp</text>
</a>
</g>
</g>
<!-- Node3&#45;&gt;Node7 -->
<g id="edge6" class="edge">
<title>Node3&#45;&gt;Node7</title>
<path fill="none" stroke="#191970" d="M1974.5536,-110.119C1299.5838,-41.8305 1122.6834,-135.6933 451.2979,-74 448.1984,-73.7152 445.0152,-73.3667 441.8103,-72.9733"/>
<polygon fill="#191970" stroke="#191970" points="1974.2219,-113.6032 1984.5254,-111.1359 1974.9322,-106.6393 1974.2219,-113.6032"/>
</g>
<!-- Node8 -->
<g id="node8" class="node">
<title>Node8</title>
<g id="a_node8"><a xlink:href="_s_l_g_l_texture_8cpp.html" target="_top" xlink:title=" ">
<polygon fill="#ffffff" stroke="#000000" points="460.0337,-55.5 460.0337,-73.5 552.562,-73.5 552.562,-55.5 460.0337,-55.5"/>
<text text-anchor="middle" x="506.2979" y="-61.5" font-family="Arial.ttf" font-size="10.00" fill="#000000">SLGLTexture.cpp</text>
</a>
</g>
</g>
<!-- Node3&#45;&gt;Node8 -->
<g id="edge7" class="edge">
<title>Node3&#45;&gt;Node8</title>
<path fill="none" stroke="#191970" d="M1974.3409,-110.095C1348.2214,-46.2818 1183.5541,-135.3322 561.2979,-74 558.5013,-73.7244 555.6325,-73.3893 552.7438,-73.0117"/>
<polygon fill="#191970" stroke="#191970" points="1974.2192,-113.6009 1984.5248,-111.1422 1974.9353,-106.6376 1974.2192,-113.6009"/>
</g>
<!-- Node9 -->
<g id="node9" class="node">
<title>Node9</title>
<g id="a_node9"><a xlink:href="_s_l_g_l_vertex_array_8cpp.html" target="_top" xlink:title=" ">
<polygon fill="#ffffff" stroke="#000000" points="570.6758,-55.5 570.6758,-73.5 681.9199,-73.5 681.9199,-55.5 570.6758,-55.5"/>
<text text-anchor="middle" x="626.2979" y="-61.5" font-family="Arial.ttf" font-size="10.00" fill="#000000">SLGLVertexArray.cpp</text>
</a>
</g>
</g>
<!-- Node3&#45;&gt;Node9 -->
<g id="edge8" class="edge">
<title>Node3&#45;&gt;Node9</title>
<path fill="none" stroke="#191970" d="M1974.4252,-110.0991C1405.7706,-51.3766 1256.7179,-123.0757 691.2979,-74 688.3438,-73.7436 685.3192,-73.4413 682.2691,-73.105"/>
<polygon fill="#191970" stroke="#191970" points="1974.215,-113.5961 1984.5239,-111.1511 1974.9403,-106.6337 1974.215,-113.5961"/>
</g>
<!-- Node10 -->
<g id="node10" class="node">
<title>Node10</title>
<g id="a_node10"><a xlink:href="_s_l_g_l_vertex_array_ext_8cpp.html" target="_top" xlink:title=" ">
<polygon fill="#ffffff" stroke="#000000" points="700.083,-55.5 700.083,-73.5 826.5127,-73.5 826.5127,-55.5 700.083,-55.5"/>
<text text-anchor="middle" x="763.2979" y="-61.5" font-family="Arial.ttf" font-size="10.00" fill="#000000">SLGLVertexArrayExt.cpp</text>
</a>
</g>
</g>
<!-- Node3&#45;&gt;Node10 -->
<g id="edge9" class="edge">
<title>Node3&#45;&gt;Node10</title>
<path fill="none" stroke="#191970" d="M1974.4217,-110.093C1469.4918,-57.0718 1337.2091,-114.9347 835.2979,-74 832.5332,-73.7745 829.712,-73.5176 826.8643,-73.2364"/>
<polygon fill="#191970" stroke="#191970" points="1974.2094,-113.59 1984.5226,-111.1632 1974.947,-106.629 1974.2094,-113.59"/>
</g>
<!-- Node11 -->
<g id="node11" class="node">
<title>Node11</title>
<g id="a_node11"><a xlink:href="_s_l_application_8cpp.html" target="_top" xlink:title=" ">
<polygon fill="#ffffff" stroke="#000000" points="844.271,-55.5 844.271,-73.5 940.3247,-73.5 940.3247,-55.5 844.271,-55.5"/>
<text text-anchor="middle" x="892.2979" y="-61.5" font-family="Arial.ttf" font-size="10.00" fill="#000000">SLApplication.cpp</text>
</a>
</g>
</g>
<!-- Node3&#45;&gt;Node11 -->
<g id="edge10" class="edge">
<title>Node3&#45;&gt;Node11</title>
<path fill="none" stroke="#191970" d="M1974.4064,-110.0873C1519.9181,-61.7237 1399.9687,-119.2684 949.2979,-74 946.403,-73.7092 943.4326,-73.3624 940.4409,-72.976"/>
<polygon fill="#191970" stroke="#191970" points="1974.2043,-113.5857 1984.5213,-111.1752 1974.9529,-106.6258 1974.2043,-113.5857"/>
</g>
<!-- Node12 -->
<g id="node12" class="node">
<title>Node12</title>
<g id="a_node12"><a xlink:href="_s_l_assimp_importer_8cpp.html" target="_top" xlink:title=" ">
<polygon fill="#ffffff" stroke="#000000" points="957.9976,-55.5 957.9976,-73.5 1074.5981,-73.5 1074.5981,-55.5 957.9976,-55.5"/>
<text text-anchor="middle" x="1016.2979" y="-61.5" font-family="Arial.ttf" font-size="10.00" fill="#000000">SLAssimpImporter.cpp</text>
</a>
</g>
</g>
<!-- Node3&#45;&gt;Node12 -->
<g id="edge11" class="edge">
<title>Node3&#45;&gt;Node12</title>
<path fill="none" stroke="#191970" d="M1974.5314,-110.092C1579.2293,-66.9585 1475.158,-109.5978 1083.2979,-74 1080.4898,-73.7449 1077.6194,-73.4542 1074.7231,-73.1367"/>
<polygon fill="#191970" stroke="#191970" points="1974.1959,-113.5761 1984.5193,-111.1933 1974.9631,-106.6183 1974.1959,-113.5761"/>
</g>
<!-- Node13 -->
<g id="node13" class="node">
<title>Node13</title>
<g id="a_node13"><a xlink:href="_s_l_interface_8cpp.html" target="_top" xlink:title=" ">
<polygon fill="#ffffff" stroke="#000000" points="1092.2759,-55.5 1092.2759,-73.5 1178.3198,-73.5 1178.3198,-55.5 1092.2759,-55.5"/>
<text text-anchor="middle" x="1135.2979" y="-61.5" font-family="Arial.ttf" font-size="10.00" fill="#000000">SLInterface.cpp</text>
</a>
</g>
</g>
<!-- Node3&#45;&gt;Node13 -->
<g id="edge12" class="edge">
<title>Node3&#45;&gt;Node13</title>
<path fill="none" stroke="#191970" d="M1974.3756,-110.0686C1625.1911,-71.2213 1532.3257,-113.2166 1187.2979,-74 1184.3799,-73.6683 1181.379,-73.2712 1178.3614,-72.83"/>
<polygon fill="#191970" stroke="#191970" points="1974.1882,-113.5695 1984.5173,-111.2115 1974.9721,-106.6136 1974.1882,-113.5695"/>
</g>
<!-- Node14 -->
<g id="node14" class="node">
<title>Node14</title>
<g id="a_node14"><a xlink:href="_s_l_tex_font_8cpp.html" target="_top" xlink:title=" ">
<polygon fill="#ffffff" stroke="#000000" points="1196.3145,-55.5 1196.3145,-73.5 1278.2813,-73.5 1278.2813,-55.5 1196.3145,-55.5"/>
<text text-anchor="middle" x="1237.2979" y="-61.5" font-family="Arial.ttf" font-size="10.00" fill="#000000">SLTexFont.cpp</text>
</a>
</g>
</g>
<!-- Node3&#45;&gt;Node14 -->
<g id="edge13" class="edge">
<title>Node3&#45;&gt;Node14</title>
<path fill="none" stroke="#191970" d="M1974.4971,-110.0726C1669.4347,-75.1826 1588.0257,-110.2676 1287.2979,-74 1284.403,-73.6509 1281.4236,-73.2339 1278.4296,-72.7724"/>
<polygon fill="#191970" stroke="#191970" points="1974.178,-113.559 1984.5146,-111.2341 1974.9843,-106.6056 1974.178,-113.559"/>
</g>
<!-- Node15 -->
<g id="node15" class="node">
<title>Node15</title>
<g id="a_node15"><a xlink:href="_s_l_animation_8cpp.html" target="_top" xlink:title=" ">
<polygon fill="#ffffff" stroke="#000000" points="1296.4976,-55.5 1296.4976,-73.5 1388.0981,-73.5 1388.0981,-55.5 1296.4976,-55.5"/>
<text text-anchor="middle" x="1342.2979" y="-61.5" font-family="Arial.ttf" font-size="10.00" fill="#000000">SLAnimation.cpp</text>
</a>
</g>
</g>
<!-- Node3&#45;&gt;Node15 -->
<g id="edge14" class="edge">
<title>Node3&#45;&gt;Node15</title>
<path fill="none" stroke="#191970" d="M1974.524,-110.0598C1718.0788,-79.446 1649.6908,-103.5686 1397.2979,-74 1394.3144,-73.6505 1391.2469,-73.2463 1388.1596,-72.8058"/>
<polygon fill="#191970" stroke="#191970" points="1974.1625,-113.5415 1984.5106,-111.2681 1975.0034,-106.5922 1974.1625,-113.5415"/>
</g>
<!-- Node16 -->
<g id="node16" class="node">
<title>Node16</title>
<g id="a_node16"><a xlink:href="_s_l_background_8cpp.html" target="_top" xlink:title=" ">
<polygon fill="#ffffff" stroke="#000000" points="1406.0469,-55.5 1406.0469,-73.5 1506.5488,-73.5 1506.5488,-55.5 1406.0469,-55.5"/>
<text text-anchor="middle" x="1456.2979" y="-61.5" font-family="Arial.ttf" font-size="10.00" fill="#000000">SLBackground.cpp</text>
</a>
</g>
</g>
<!-- Node3&#45;&gt;Node16 -->
<g id="edge15" class="edge">
<title>Node3&#45;&gt;Node16</title>
<path fill="none" stroke="#191970" d="M1974.3726,-110.0144C1770.6414,-84.0332 1716.2354,-97.6319 1516.2979,-74 1513.1558,-73.6286 1509.9262,-73.2138 1506.6727,-72.7709"/>
<polygon fill="#191970" stroke="#191970" points="1974.1376,-113.513 1984.5037,-111.3231 1975.0345,-106.5707 1974.1376,-113.513"/>
</g>
<!-- Node17 -->
<g id="node17" class="node">
<title>Node17</title>
<g id="a_node17"><a xlink:href="_s_l_camera_8cpp.html" target="_top" xlink:title=" ">
<polygon fill="#ffffff" stroke="#000000" points="1524.9482,-55.5 1524.9482,-73.5 1607.6475,-73.5 1607.6475,-55.5 1524.9482,-55.5"/>
<text text-anchor="middle" x="1566.2979" y="-61.5" font-family="Arial.ttf" font-size="10.00" fill="#000000">SLCamera.cpp</text>
</a>
</g>
</g>
<!-- Node3&#45;&gt;Node17 -->
<g id="edge16" class="edge">
<title>Node3&#45;&gt;Node17</title>
<path fill="none" stroke="#191970" d="M1974.3166,-109.9727C1814.7659,-87.9449 1771.7427,-96.5168 1616.2979,-74 1613.4996,-73.5947 1610.6196,-73.1422 1607.7221,-72.6608"/>
<polygon fill="#191970" stroke="#191970" points="1974.105,-113.4771 1984.4936,-111.3971 1975.0753,-106.5447 1974.105,-113.4771"/>
</g>
<!-- Node18 -->
<g id="node18" class="node">
<title>Node18</title>
<g id="a_node18"><a xlink:href="_s_l_input_device_8cpp.html" target="_top" xlink:title=" ">
<polygon fill="#ffffff" stroke="#000000" points="1625.3276,-55.5 1625.3276,-73.5 1725.2681,-73.5 1725.2681,-55.5 1625.3276,-55.5"/>
<text text-anchor="middle" x="1675.2979" y="-61.5" font-family="Arial.ttf" font-size="10.00" fill="#000000">SLInputDevice.cpp</text>
</a>
</g>
</g>
<!-- Node3&#45;&gt;Node18 -->
<g id="edge17" class="edge">
<title>Node3&#45;&gt;Node18</title>
<path fill="none" stroke="#191970" d="M1974.4969,-109.9105C1866.8011,-92.156 1838.181,-90.1218 1734.2979,-74 1731.4272,-73.5545 1728.4787,-73.0928 1725.5037,-72.6238"/>
<polygon fill="#191970" stroke="#191970" points="1974.0308,-113.3809 1984.4683,-111.5618 1975.1745,-106.4749 1974.0308,-113.3809"/>
</g>
<!-- Node19 -->
<g id="node19" class="node">
<title>Node19</title>
<g id="a_node19"><a xlink:href="_s_l_input_manager_8cpp.html" target="_top" xlink:title=" ">
<polygon fill="#ffffff" stroke="#000000" points="1743.1504,-55.5 1743.1504,-73.5 1851.4453,-73.5 1851.4453,-55.5 1743.1504,-55.5"/>
<text text-anchor="middle" x="1797.2979" y="-61.5" font-family="Arial.ttf" font-size="10.00" fill="#000000">SLInputManager.cpp</text>
</a>
</g>
</g>
<!-- Node3&#45;&gt;Node19 -->
<g id="edge18" class="edge">
<title>Node3&#45;&gt;Node19</title>
<path fill="none" stroke="#191970" d="M1979.6543,-108.107C1936.7651,-97.8509 1874.5731,-82.9789 1835.0407,-73.5255"/>
<polygon fill="#191970" stroke="#191970" points="1979.0358,-111.5577 1989.5756,-110.4795 1980.6638,-104.7496 1979.0358,-111.5577"/>
</g>
<!-- Node20 -->
<g id="node20" class="node">
<title>Node20</title>
<g id="a_node20"><a xlink:href="_s_l_light_direct_8cpp.html" target="_top" xlink:title=" ">
<polygon fill="#ffffff" stroke="#000000" points="1869.8325,-55.5 1869.8325,-73.5 1964.7632,-73.5 1964.7632,-55.5 1869.8325,-55.5"/>
<text text-anchor="middle" x="1917.2979" y="-61.5" font-family="Arial.ttf" font-size="10.00" fill="#000000">SLLightDirect.cpp</text>
</a>
</g>
</g>
<!-- Node3&#45;&gt;Node20 -->
<g id="edge19" class="edge">
<title>Node3&#45;&gt;Node20</title>
<path fill="none" stroke="#191970" d="M2000.1375,-105.9198C1979.9974,-95.8498 1953.0933,-82.3977 1935.4891,-73.5956"/>
<polygon fill="#191970" stroke="#191970" points="1998.624,-109.0762 2009.1336,-110.4179 2001.7546,-102.8152 1998.624,-109.0762"/>
</g>
<!-- Node21 -->
<g id="node21" class="node">
<title>Node21</title>
<g id="a_node21"><a xlink:href="_s_l_light_rect_8cpp.html" target="_top" xlink:title=" ">
<polygon fill="#ffffff" stroke="#000000" points="1982.6084,-55.5 1982.6084,-73.5 2071.9873,-73.5 2071.9873,-55.5 1982.6084,-55.5"/>
<text text-anchor="middle" x="2027.2979" y="-61.5" font-family="Arial.ttf" font-size="10.00" fill="#000000">SLLightRect.cpp</text>
</a>
</g>
</g>
<!-- Node3&#45;&gt;Node21 -->
<g id="edge20" class="edge">
<title>Node3&#45;&gt;Node21</title>
<path fill="none" stroke="#191970" d="M2027.2979,-100.383C2027.2979,-91.3738 2027.2979,-81.0373 2027.2979,-73.7795"/>
<polygon fill="#191970" stroke="#191970" points="2023.798,-100.4178 2027.2979,-110.4179 2030.798,-100.4179 2023.798,-100.4178"/>
</g>
<!-- Node22 -->
<g id="node22" class="node">
<title>Node22</title>
<g id="a_node22"><a xlink:href="_s_l_light_spot_8cpp.html" target="_top" xlink:title=" ">
<polygon fill="#ffffff" stroke="#000000" points="2089.6035,-55.5 2089.6035,-73.5 2178.9922,-73.5 2178.9922,-55.5 2089.6035,-55.5"/>
<text text-anchor="middle" x="2134.2979" y="-61.5" font-family="Arial.ttf" font-size="10.00" fill="#000000">SLLightSpot.cpp</text>
</a>
</g>
</g>
<!-- Node3&#45;&gt;Node22 -->
<g id="edge21" class="edge">
<title>Node3&#45;&gt;Node22</title>
<path fill="none" stroke="#191970" d="M2053.9838,-105.7829C2073.5449,-95.7282 2099.5561,-82.3579 2116.6027,-73.5956"/>
<polygon fill="#191970" stroke="#191970" points="2052.2605,-102.7334 2044.9667,-110.4179 2055.4607,-108.9591 2052.2605,-102.7334"/>
</g>
<!-- Node23 -->
<g id="node23" class="node">
<title>Node23</title>
<g id="a_node23"><a xlink:href="_s_l_material_8cpp.html" target="_top" xlink:title=" ">
<polygon fill="#ffffff" stroke="#000000" points="2196.9482,-55.5 2196.9482,-73.5 2279.6475,-73.5 2279.6475,-55.5 2196.9482,-55.5"/>
<text text-anchor="middle" x="2238.2979" y="-61.5" font-family="Arial.ttf" font-size="10.00" fill="#000000">SLMaterial.cpp</text>
</a>
</g>
</g>
<!-- Node3&#45;&gt;Node23 -->
<g id="edge22" class="edge">
<title>Node3&#45;&gt;Node23</title>
<path fill="none" stroke="#191970" d="M2071.9991,-107.848C2111.3369,-97.5941 2167.7956,-82.8774 2203.7544,-73.5042"/>
<polygon fill="#191970" stroke="#191970" points="2070.934,-104.5086 2062.1402,-110.4179 2072.6997,-111.2823 2070.934,-104.5086"/>
</g>
<!-- Node24 -->
<g id="node24" class="node">
<title>Node24</title>
<g id="a_node24"><a xlink:href="_s_l_mesh_8cpp.html" target="_top" xlink:title=" ">
<polygon fill="#ffffff" stroke="#000000" points="2297.5049,-55.5 2297.5049,-73.5 2369.0908,-73.5 2369.0908,-55.5 2297.5049,-55.5"/>
<text text-anchor="middle" x="2333.2979" y="-61.5" font-family="Arial.ttf" font-size="10.00" fill="#000000">SLMesh.cpp</text>
</a>
</g>
</g>
<!-- Node3&#45;&gt;Node24 -->
<g id="edge23" class="edge">
<title>Node3&#45;&gt;Node24</title>
<path fill="none" stroke="#191970" d="M2080.4795,-110.7965C2133.2927,-102.0198 2216.5273,-87.8271 2288.2979,-74 2291.2772,-73.426 2294.3637,-72.8131 2297.4596,-72.1855"/>
<polygon fill="#191970" stroke="#191970" points="2079.628,-107.3898 2070.3349,-112.478 2080.7726,-114.2956 2079.628,-107.3898"/>
</g>
<!-- Node25 -->
<g id="node25" class="node">
<title>Node25</title>
<g id="a_node25"><a xlink:href="_s_l_node_8cpp.html" target="_top" xlink:title=" ">
<polygon fill="#ffffff" stroke="#000000" points="2386.7783,-55.5 2386.7783,-73.5 2457.8174,-73.5 2457.8174,-55.5 2386.7783,-55.5"/>
<text text-anchor="middle" x="2422.2979" y="-61.5" font-family="Arial.ttf" font-size="10.00" fill="#000000">SLNode.cpp</text>
</a>
</g>
</g>
<!-- Node3&#45;&gt;Node25 -->
<g id="edge24" class="edge">
<title>Node3&#45;&gt;Node25</title>
<path fill="none" stroke="#191970" d="M2080.3231,-114.026C2149.2336,-106.592 2273.1838,-92.1277 2378.2979,-74 2380.9163,-73.5484 2383.6153,-73.0492 2386.3273,-72.523"/>
<polygon fill="#191970" stroke="#191970" points="2079.7261,-110.5698 2070.1557,-115.1148 2080.4716,-117.53 2079.7261,-110.5698"/>
</g>
<!-- Node26 -->
<g id="node26" class="node">
<title>Node26</title>
<g id="a_node26"><a xlink:href="_s_l_pathtracer_8cpp.html" target="_top" xlink:title=" ">
<polygon fill="#ffffff" stroke="#000000" points="2475.9385,-55.5 2475.9385,-73.5 2568.6572,-73.5 2568.6572,-55.5 2475.9385,-55.5"/>
<text text-anchor="middle" x="2522.2979" y="-61.5" font-family="Arial.ttf" font-size="10.00" fill="#000000">SLPathtracer.cpp</text>
</a>
</g>
</g>
<!-- Node3&#45;&gt;Node26 -->
<g id="edge25" class="edge">
<title>Node3&#45;&gt;Node26</title>
<path fill="none" stroke="#191970" d="M2080.3663,-115.1857C2163.1915,-108.188 2328.1344,-93.1914 2467.2979,-74 2470.0816,-73.6161 2472.9405,-73.1973 2475.8217,-72.7564"/>
<polygon fill="#191970" stroke="#191970" points="2079.8702,-111.7149 2070.1981,-116.0394 2080.4559,-118.6904 2079.8702,-111.7149"/>
</g>
<!-- Node27 -->
<g id="node27" class="node">
<title>Node27</title>
<g id="a_node27"><a xlink:href="_s_l_raytracer_8cpp.html" target="_top" xlink:title=" ">
<polygon fill="#ffffff" stroke="#000000" points="2586.3325,-55.5 2586.3325,-73.5 2676.2632,-73.5 2676.2632,-55.5 2586.3325,-55.5"/>
<text text-anchor="middle" x="2631.2979" y="-61.5" font-family="Arial.ttf" font-size="10.00" fill="#000000">SLRaytracer.cpp</text>
</a>
</g>
</g>
<!-- Node3&#45;&gt;Node27 -->
<g id="edge26" class="edge">
<title>Node3&#45;&gt;Node27</title>
<path fill="none" stroke="#191970" d="M2080.5022,-116.723C2178.8823,-111.2276 2395.7643,-97.4271 2577.2979,-74 2580.2245,-73.6223 2583.2341,-73.1968 2586.2638,-72.7406"/>
<polygon fill="#191970" stroke="#191970" points="2080.0192,-113.2443 2070.2275,-117.2907 2080.4054,-120.2336 2080.0192,-113.2443"/>
</g>
<!-- Node28 -->
<g id="node28" class="node">
<title>Node28</title>
<g id="a_node28"><a xlink:href="_s_l_scene_8cpp.html" target="_top" xlink:title=" ">
<polygon fill="#ffffff" stroke="#000000" points="2694.5542,-55.5 2694.5542,-73.5 2770.0415,-73.5 2770.0415,-55.5 2694.5542,-55.5"/>
<text text-anchor="middle" x="2732.2979" y="-61.5" font-family="Arial.ttf" font-size="10.00" fill="#000000">SLScene.cpp</text>
</a>
</g>
</g>
<!-- Node3&#45;&gt;Node28 -->
<g id="edge27" class="edge">
<title>Node3&#45;&gt;Node28</title>
<path fill="none" stroke="#191970" d="M2080.2506,-118.1795C2192.3357,-114.8709 2461.6348,-104.2061 2685.2979,-74 2688.2678,-73.5989 2691.3319,-73.1227 2694.4049,-72.6006"/>
<polygon fill="#191970" stroke="#191970" points="2080.1141,-114.6818 2070.219,-118.4682 2080.3156,-121.6789 2080.1141,-114.6818"/>
</g>
<!-- Node29 -->
<g id="node29" class="node">
<title>Node29</title>
<g id="a_node29"><a xlink:href="_s_l_scene_view_8cpp.html" target="_top" xlink:title=" ">
<polygon fill="#ffffff" stroke="#000000" points="2788.0781,-55.5 2788.0781,-73.5 2884.5176,-73.5 2884.5176,-55.5 2788.0781,-55.5"/>
<text text-anchor="middle" x="2836.2979" y="-61.5" font-family="Arial.ttf" font-size="10.00" fill="#000000">SLSceneView.cpp</text>
</a>
</g>
</g>
<!-- Node3&#45;&gt;Node29 -->
<g id="edge28" class="edge">
<title>Node3&#45;&gt;Node29</title>
<path fill="none" stroke="#191970" d="M2080.5358,-118.1938C2203.7959,-114.7519 2518.2085,-103.5738 2779.2979,-74 2782.0891,-73.6838 2784.9516,-73.3232 2787.8364,-72.9316"/>
<polygon fill="#191970" stroke="#191970" points="2080.1519,-114.7029 2070.2515,-118.4753 2080.3435,-121.7003 2080.1519,-114.7029"/>
</g>
<!-- Node30 -->
<g id="node30" class="node">
<title>Node30</title>
<g id="a_node30"><a xlink:href="_s_l_skeleton_8cpp.html" target="_top" xlink:title=" ">
<polygon fill="#ffffff" stroke="#000000" points="2902.2734,-55.5 2902.2734,-73.5 2988.3223,-73.5 2988.3223,-55.5 2902.2734,-55.5"/>
<text text-anchor="middle" x="2945.2979" y="-61.5" font-family="Arial.ttf" font-size="10.00" fill="#000000">SLSkeleton.cpp</text>
</a>
</g>
</g>
<!-- Node3&#45;&gt;Node30 -->
<g id="edge29" class="edge">
<title>Node3&#45;&gt;Node30</title>
<path fill="none" stroke="#191970" d="M2080.3907,-119.0749C2216.157,-117.476 2586.8886,-109.8888 2893.2979,-74 2896.2146,-73.6584 2899.2147,-73.2537 2902.2317,-72.8071"/>
<polygon fill="#191970" stroke="#191970" points="2080.2236,-115.5765 2070.2634,-119.1881 2080.3019,-122.576 2080.2236,-115.5765"/>
</g>
<!-- Node31 -->
<g id="node31" class="node">
<title>Node31</title>
<g id="a_node31"><a xlink:href="_s_l_text_8cpp.html" target="_top" xlink:title=" ">
<polygon fill="#ffffff" stroke="#000000" points="3005.9302,-55.5 3005.9302,-73.5 3070.6655,-73.5 3070.6655,-55.5 3005.9302,-55.5"/>
<text text-anchor="middle" x="3038.2979" y="-61.5" font-family="Arial.ttf" font-size="10.00" fill="#000000">SLText.cpp</text>
</a>
</g>
</g>
<!-- Node3&#45;&gt;Node31 -->
<g id="edge30" class="edge">
<title>Node3&#45;&gt;Node31</title>
<path fill="none" stroke="#191970" d="M2080.2342,-118.2792C2255.7842,-114.0326 2817.7978,-98.7979 2997.2979,-74 3000.0483,-73.62 3002.8855,-73.1435 3005.7232,-72.6076"/>
<polygon fill="#191970" stroke="#191970" points="2080.1224,-114.7808 2070.2093,-118.5199 2080.2905,-121.7787 2080.1224,-114.7808"/>
</g>
<!-- Node32 -->
<g id="node32" class="node">
<title>Node32</title>
<g id="a_node32"><a xlink:href="_s_l_transfer_function_8cpp.html" target="_top" xlink:title=" ">
<polygon fill="#ffffff" stroke="#000000" points="3088.4902,-55.5 3088.4902,-73.5 3210.1055,-73.5 3210.1055,-55.5 3088.4902,-55.5"/>
<text text-anchor="middle" x="3149.2979" y="-61.5" font-family="Arial.ttf" font-size="10.00" fill="#000000">SLTransferFunction.cpp</text>
</a>
</g>
</g>
<!-- Node3&#45;&gt;Node32 -->
<g id="edge31" class="edge">
<title>Node3&#45;&gt;Node32</title>
<path fill="none" stroke="#191970" d="M2080.3839,-118.9222C2234.8391,-116.8717 2697.2753,-108.112 3079.2979,-74 3082.2296,-73.7382 3085.2269,-73.442 3088.2516,-73.1202"/>
<polygon fill="#191970" stroke="#191970" points="2080.1836,-115.4244 2070.2296,-119.0532 2080.2739,-122.4239 2080.1836,-115.4244"/>
</g>
<!-- Node33 -->
<g id="node33" class="node">
<title>Node33</title>
<g id="a_node33"><a xlink:href="_s_l_g_l_o_v_r_workaround_8h.html" target="_top" xlink:title=" ">
<polygon fill="#ffffff" stroke="#000000" points="3228.4492,-55.5 3228.4492,-73.5 3354.1465,-73.5 3354.1465,-55.5 3228.4492,-55.5"/>
<text text-anchor="middle" x="3291.2979" y="-61.5" font-family="Arial.ttf" font-size="10.00" fill="#000000">SLGLOVRWorkaround.h</text>
</a>
</g>
</g>
<!-- Node3&#45;&gt;Node33 -->
<g id="edge32" class="edge">
<title>Node3&#45;&gt;Node33</title>
<path fill="none" stroke="#191970" d="M2080.1726,-119.234C2247.4775,-118.0175 2780.1891,-111.2683 3219.2979,-74 3222.1874,-73.7548 3225.1389,-73.4769 3228.1179,-73.1743"/>
<polygon fill="#191970" stroke="#191970" points="2080.1242,-115.7342 2070.1487,-119.3034 2080.1727,-122.734 2080.1242,-115.7342"/>
</g>
<!-- Node35 -->
<g id="node35" class="node">
<title>Node35</title>
<g id="a_node35"><a xlink:href="_app_demo_gui_8cpp.html" target="_top" xlink:title=" ">
<polygon fill="#ffffff" stroke="#000000" points="3371.8325,-55.5 3371.8325,-73.5 3466.7632,-73.5 3466.7632,-55.5 3371.8325,-55.5"/>
<text text-anchor="middle" x="3419.2979" y="-61.5" font-family="Arial.ttf" font-size="10.00" fill="#000000">AppDemoGui.cpp</text>
</a>
</g>
</g>
<!-- Node3&#45;&gt;Node35 -->
<g id="edge34" class="edge">
<title>Node3&#45;&gt;Node35</title>
<path fill="none" stroke="#191970" d="M2080.3419,-118.6441C2296.0281,-115.0168 3107.8683,-99.8977 3363.2979,-74 3366.0449,-73.7215 3368.8609,-73.3902 3371.698,-73.0211"/>
<polygon fill="#191970" stroke="#191970" points="2080.1698,-115.1464 2070.2297,-118.8131 2080.2868,-122.1454 2080.1698,-115.1464"/>
</g>
<!-- Node36 -->
<g id="node36" class="node">
<title>Node36</title>
<g id="a_node36"><a xlink:href="_app_demo_load_8cpp.html" target="_top" xlink:title=" ">
<polygon fill="#ffffff" stroke="#000000" points="3484.4902,-55.5 3484.4902,-73.5 3586.1055,-73.5 3586.1055,-55.5 3484.4902,-55.5"/>
<text text-anchor="middle" x="3535.2979" y="-61.5" font-family="Arial.ttf" font-size="10.00" fill="#000000">AppDemoLoad.cpp</text>
</a>
</g>
</g>
<!-- Node3&#45;&gt;Node36 -->
<g id="edge35" class="edge">
<title>Node3&#45;&gt;Node36</title>
<path fill="none" stroke="#191970" d="M2080.4012,-118.2276C2324.6949,-112.3204 3334.5924,-87.2968 3475.2979,-74 3478.2378,-73.7222 3481.2523,-73.3915 3484.2901,-73.0228"/>
<polygon fill="#191970" stroke="#191970" points="2080.2657,-114.7297 2070.3531,-118.4702 2080.4347,-121.7277 2080.2657,-114.7297"/>
</g>
<!-- Node37 -->
<g id="node37" class="node">
<title>Node37</title>
<g id="a_node37"><a xlink:href="_app_demo_scene_view_8cpp.html" target="_top" xlink:title=" ">
<polygon fill="#ffffff" stroke="#000000" points="3603.96,-55.5 3603.96,-73.5 3732.6357,-73.5 3732.6357,-55.5 3603.96,-55.5"/>
<text text-anchor="middle" x="3668.2979" y="-61.5" font-family="Arial.ttf" font-size="10.00" fill="#000000">AppDemoSceneView.cpp</text>
</a>
</g>
</g>
<!-- Node3&#45;&gt;Node37 -->
<g id="edge36" class="edge">
<title>Node3&#45;&gt;Node37</title>
<path fill="none" stroke="#191970" d="M2080.2786,-118.6785C2318.3979,-114.8763 3291.1768,-98.1398 3595.2979,-74 3598.1007,-73.7775 3600.961,-73.5231 3603.8481,-73.2439"/>
<polygon fill="#191970" stroke="#191970" points="2080.0936,-115.1809 2070.1505,-118.8395 2080.2049,-122.18 2080.0936,-115.1809"/>
</g>
<!-- Node38 -->
<g id="node38" class="node">
<title>Node38</title>
<g id="a_node38"><a xlink:href="_app_demo_video_8cpp.html" target="_top" xlink:title=" ">
<polygon fill="#ffffff" stroke="#000000" points="3750.9131,-55.5 3750.9131,-73.5 3855.6826,-73.5 3855.6826,-55.5 3750.9131,-55.5"/>
<text text-anchor="middle" x="3803.2979" y="-61.5" font-family="Arial.ttf" font-size="10.00" fill="#000000">AppDemoVideo.cpp</text>
</a>
</g>
</g>
<!-- Node3&#45;&gt;Node38 -->
<g id="edge37" class="edge">
<title>Node3&#45;&gt;Node38</title>
<path fill="none" stroke="#191970" d="M2080.63,-118.987C2332.7988,-116.4231 3407.1738,-103.914 3741.2979,-74 3744.3348,-73.7281 3747.4491,-73.402 3750.5875,-73.0369"/>
<polygon fill="#191970" stroke="#191970" points="2080.2416,-115.4906 2070.2774,-119.0913 2080.3122,-122.4903 2080.2416,-115.4906"/>
</g>
<!-- Node39 -->
<g id="node39" class="node">
<title>Node39</title>
<g id="a_node39"><a xlink:href="_app_demo_main_g_l_f_w_8cpp.html" target="_top" xlink:title=" ">
<polygon fill="#ffffff" stroke="#000000" points="3873.606,-55.5 3873.606,-73.5 4002.9897,-73.5 4002.9897,-55.5 3873.606,-55.5"/>
<text text-anchor="middle" x="3938.2979" y="-61.5" font-family="Arial.ttf" font-size="10.00" fill="#000000">AppDemoMainGLFW.cpp</text>
</a>
</g>
</g>
<!-- Node3&#45;&gt;Node39 -->
<g id="edge38" class="edge">
<title>Node3&#45;&gt;Node39</title>
<path fill="none" stroke="#191970" d="M2080.1658,-118.9265C2342.2491,-115.9709 3503.8997,-101.5235 3864.2979,-74 3867.2683,-73.7731 3870.3023,-73.5104 3873.3645,-73.22"/>
<polygon fill="#191970" stroke="#191970" points="2080.1075,-115.4268 2070.1474,-119.0388 2080.1861,-122.4264 2080.1075,-115.4268"/>
</g>
<!-- Node34 -->
<g id="node34" class="node">
<title>Node34</title>
<g id="a_node34"><a xlink:href="_s_l_g_l_oculus_8cpp.html" target="_top" xlink:title=" ">
<polygon fill="#ffffff" stroke="#000000" points="3245.5,-.5 3245.5,-18.5 3337.0957,-18.5 3337.0957,-.5 3245.5,-.5"/>
<text text-anchor="middle" x="3291.2979" y="-6.5" font-family="Arial.ttf" font-size="10.00" fill="#000000">SLGLOculus.cpp</text>
</a>
</g>
</g>
<!-- Node33&#45;&gt;Node34 -->
<g id="edge33" class="edge">
<title>Node33&#45;&gt;Node34</title>
<path fill="none" stroke="#191970" d="M3291.2979,-45.383C3291.2979,-36.3738 3291.2979,-26.0373 3291.2979,-18.7795"/>
<polygon fill="#191970" stroke="#191970" points="3287.798,-45.4178 3291.2979,-55.4179 3294.798,-45.4179 3287.798,-45.4178"/>
</g>
</g>
</svg>
