<?xml version="1.0" encoding="UTF-8" standalone="no"?>
<!DOCTYPE svg PUBLIC "-//W3C//DTD SVG 1.1//EN"
 "http://www.w3.org/Graphics/SVG/1.1/DTD/svg11.dtd">
<!-- Generated by graphviz version 2.44.0 (20200408.0750)
 -->
<!-- Title: SLJoint.cpp Pages: 1 -->
<svg width="2838pt" height="700pt"
 viewBox="0.00 0.00 2838.00 700.00" xmlns="http://www.w3.org/2000/svg" xmlns:xlink="http://www.w3.org/1999/xlink">
<g id="graph0" class="graph" transform="scale(1 1) rotate(0) translate(4 696)">
<title>SLJoint.cpp</title>
<polygon fill="white" stroke="transparent" points="-4,4 -4,-696 2834,-696 2834,4 -4,4"/>
<!-- Node1 -->
<g id="node1" class="node">
<title>Node1</title>
<g id="a_node1"><a xlink:title=" ">
<polygon fill="#bfbfbf" stroke="black" points="2532,-672.5 2532,-691.5 2600,-691.5 2600,-672.5 2532,-672.5"/>
<text text-anchor="middle" x="2566" y="-679.5" font-family="Arial.ttf" font-size="10.00">SLJoint.cpp</text>
</a>
</g>
</g>
<!-- Node2 -->
<g id="node2" class="node">
<title>Node2</title>
<g id="a_node2"><a xlink:href="stdafx_8h.html" target="_top" xlink:title=" ">
<polygon fill="white" stroke="black" points="1064,-448.5 1064,-467.5 1116,-467.5 1116,-448.5 1064,-448.5"/>
<text text-anchor="middle" x="1090" y="-455.5" font-family="Arial.ttf" font-size="10.00">stdafx.h</text>
</a>
</g>
</g>
<!-- Node1&#45;&gt;Node2 -->
<g id="edge1" class="edge">
<title>Node1&#45;&gt;Node2</title>
<path fill="none" stroke="midnightblue" d="M2531.69,-675.84C2332.89,-645.94 1330.66,-495.2 1126.38,-464.47"/>
<polygon fill="midnightblue" stroke="midnightblue" points="1126.6,-460.97 1116.19,-462.94 1125.56,-467.89 1126.6,-460.97"/>
</g>
<!-- Node51 -->
<g id="node46" class="node">
<title>Node51</title>
<g id="a_node46"><a xlink:href="_s_l_joint_8h.html" target="_top" xlink:title=" ">
<polygon fill="white" stroke="black" points="2575,-504.5 2575,-523.5 2633,-523.5 2633,-504.5 2575,-504.5"/>
<text text-anchor="middle" x="2604" y="-511.5" font-family="Arial.ttf" font-size="10.00">SLJoint.h</text>
</a>
</g>
</g>
<!-- Node1&#45;&gt;Node51 -->
<g id="edge72" class="edge">
<title>Node1&#45;&gt;Node51</title>
<path fill="none" stroke="midnightblue" d="M2568.04,-672.08C2574.02,-645.95 2591.59,-569.21 2599.75,-533.58"/>
<polygon fill="midnightblue" stroke="midnightblue" points="2603.22,-534.1 2602.04,-523.57 2596.4,-532.53 2603.22,-534.1"/>
</g>
<!-- Node64 -->
<g id="node48" class="node">
<title>Node64</title>
<g id="a_node48"><a xlink:href="_s_l_skeleton_8h.html" target="_top" xlink:title=" ">
<polygon fill="white" stroke="black" points="2614.5,-616.5 2614.5,-635.5 2689.5,-635.5 2689.5,-616.5 2614.5,-616.5"/>
<text text-anchor="middle" x="2652" y="-623.5" font-family="Arial.ttf" font-size="10.00">SLSkeleton.h</text>
</a>
</g>
</g>
<!-- Node1&#45;&gt;Node64 -->
<g id="edge76" class="edge">
<title>Node1&#45;&gt;Node64</title>
<path fill="none" stroke="midnightblue" d="M2579.82,-672.32C2593.23,-663.9 2613.82,-650.97 2629.59,-641.07"/>
<polygon fill="midnightblue" stroke="midnightblue" points="2631.61,-643.94 2638.22,-635.65 2627.89,-638.01 2631.61,-643.94"/>
</g>
<!-- Node3 -->
<g id="node3" class="node">
<title>Node3</title>
<g id="a_node3"><a xlink:title=" ">
<polygon fill="white" stroke="#bfbfbf" points="480,-392.5 480,-411.5 536,-411.5 536,-392.5 480,-392.5"/>
<text text-anchor="middle" x="508" y="-399.5" font-family="Arial.ttf" font-size="10.00">algorithm</text>
</a>
</g>
</g>
<!-- Node2&#45;&gt;Node3 -->
<g id="edge2" class="edge">
<title>Node2&#45;&gt;Node3</title>
<path fill="none" stroke="midnightblue" d="M1063.73,-456C985.3,-452.77 746.12,-441.06 550,-412 548.76,-411.82 547.49,-411.62 546.22,-411.4"/>
<polygon fill="midnightblue" stroke="midnightblue" points="546.84,-407.96 536.38,-409.6 545.58,-414.85 546.84,-407.96"/>
</g>
<!-- Node4 -->
<g id="node4" class="node">
<title>Node4</title>
<g id="a_node4"><a xlink:title=" ">
<polygon fill="white" stroke="#bfbfbf" points="592,-392.5 592,-411.5 638,-411.5 638,-392.5 592,-392.5"/>
<text text-anchor="middle" x="615" y="-399.5" font-family="Arial.ttf" font-size="10.00">atomic</text>
</a>
</g>
</g>
<!-- Node2&#45;&gt;Node4 -->
<g id="edge3" class="edge">
<title>Node2&#45;&gt;Node4</title>
<path fill="none" stroke="midnightblue" d="M1063.91,-455.56C995.78,-451.54 807,-438.69 652,-412 650.75,-411.79 649.49,-411.55 648.21,-411.31"/>
<polygon fill="midnightblue" stroke="midnightblue" points="648.9,-407.87 638.39,-409.2 647.43,-414.72 648.9,-407.87"/>
</g>
<!-- Node5 -->
<g id="node5" class="node">
<title>Node5</title>
<g id="a_node5"><a xlink:title=" ">
<polygon fill="white" stroke="#bfbfbf" points="694,-392.5 694,-411.5 740,-411.5 740,-392.5 694,-392.5"/>
<text text-anchor="middle" x="717" y="-399.5" font-family="Arial.ttf" font-size="10.00">chrono</text>
</a>
</g>
</g>
<!-- Node2&#45;&gt;Node5 -->
<g id="edge4" class="edge">
<title>Node2&#45;&gt;Node5</title>
<path fill="none" stroke="midnightblue" d="M1063.78,-454.74C1007.98,-449.68 873.22,-436.1 750.3,-411.78"/>
<polygon fill="midnightblue" stroke="midnightblue" points="750.84,-408.32 740.34,-409.78 749.46,-415.18 750.84,-408.32"/>
</g>
<!-- Node6 -->
<g id="node6" class="node">
<title>Node6</title>
<g id="a_node6"><a xlink:title=" ">
<polygon fill="white" stroke="#bfbfbf" points="758.5,-392.5 758.5,-411.5 807.5,-411.5 807.5,-392.5 758.5,-392.5"/>
<text text-anchor="middle" x="783" y="-399.5" font-family="Arial.ttf" font-size="10.00">cstdarg</text>
</a>
</g>
</g>
<!-- Node2&#45;&gt;Node6 -->
<g id="edge5" class="edge">
<title>Node2&#45;&gt;Node6</title>
<path fill="none" stroke="midnightblue" d="M1063.87,-453.54C1016.71,-447.11 914.06,-432.3 817.72,-411.98"/>
<polygon fill="midnightblue" stroke="midnightblue" points="818.33,-408.53 807.82,-409.86 816.87,-415.37 818.33,-408.53"/>
</g>
<!-- Node7 -->
<g id="node7" class="node">
<title>Node7</title>
<g id="a_node7"><a xlink:title=" ">
<polygon fill="white" stroke="#bfbfbf" points="825.5,-392.5 825.5,-411.5 866.5,-411.5 866.5,-392.5 825.5,-392.5"/>
<text text-anchor="middle" x="846" y="-399.5" font-family="Arial.ttf" font-size="10.00">ctime</text>
</a>
</g>
</g>
<!-- Node2&#45;&gt;Node7 -->
<g id="edge6" class="edge">
<title>Node2&#45;&gt;Node7</title>
<path fill="none" stroke="midnightblue" d="M1063.86,-451.72C1024.22,-443.63 946.56,-427.48 881,-412 879.55,-411.66 878.07,-411.3 876.57,-410.94"/>
<polygon fill="midnightblue" stroke="midnightblue" points="877.25,-407.5 866.69,-408.47 875.55,-414.29 877.25,-407.5"/>
</g>
<!-- Node8 -->
<g id="node8" class="node">
<title>Node8</title>
<g id="a_node8"><a xlink:title=" ">
<polygon fill="white" stroke="#bfbfbf" points="0,-392.5 0,-411.5 50,-411.5 50,-392.5 0,-392.5"/>
<text text-anchor="middle" x="25" y="-399.5" font-family="Arial.ttf" font-size="10.00">fstream</text>
</a>
</g>
</g>
<!-- Node2&#45;&gt;Node8 -->
<g id="edge7" class="edge">
<title>Node2&#45;&gt;Node8</title>
<path fill="none" stroke="midnightblue" d="M1063.87,-456.62C925.99,-454.51 281.3,-443.18 60.02,-411.76"/>
<polygon fill="midnightblue" stroke="midnightblue" points="60.53,-408.3 50.12,-410.3 59.5,-415.22 60.53,-408.3"/>
</g>
<!-- Node9 -->
<g id="node9" class="node">
<title>Node9</title>
<g id="a_node9"><a xlink:title=" ">
<polygon fill="white" stroke="#bfbfbf" points="68.5,-392.5 68.5,-411.5 127.5,-411.5 127.5,-392.5 68.5,-392.5"/>
<text text-anchor="middle" x="98" y="-399.5" font-family="Arial.ttf" font-size="10.00">functional</text>
</a>
</g>
</g>
<!-- Node2&#45;&gt;Node9 -->
<g id="edge8" class="edge">
<title>Node2&#45;&gt;Node9</title>
<path fill="none" stroke="midnightblue" d="M1063.7,-456.4C932.07,-453.29 343.44,-438.21 137.79,-411.78"/>
<polygon fill="midnightblue" stroke="midnightblue" points="138.08,-408.29 127.71,-410.43 137.16,-415.23 138.08,-408.29"/>
</g>
<!-- Node10 -->
<g id="node10" class="node">
<title>Node10</title>
<g id="a_node10"><a xlink:title=" ">
<polygon fill="white" stroke="#bfbfbf" points="146,-392.5 146,-411.5 196,-411.5 196,-392.5 146,-392.5"/>
<text text-anchor="middle" x="171" y="-399.5" font-family="Arial.ttf" font-size="10.00">iomanip</text>
</a>
</g>
</g>
<!-- Node2&#45;&gt;Node10 -->
<g id="edge9" class="edge">
<title>Node2&#45;&gt;Node10</title>
<path fill="none" stroke="midnightblue" d="M1063.93,-457.33C957.38,-458.34 544.82,-458.82 210,-412 208.72,-411.82 207.43,-411.62 206.12,-411.4"/>
<polygon fill="midnightblue" stroke="midnightblue" points="206.54,-407.92 196.05,-409.46 205.21,-414.79 206.54,-407.92"/>
</g>
<!-- Node11 -->
<g id="node11" class="node">
<title>Node11</title>
<g id="a_node11"><a xlink:title=" ">
<polygon fill="white" stroke="#bfbfbf" points="328,-224.5 328,-243.5 382,-243.5 382,-224.5 328,-224.5"/>
<text text-anchor="middle" x="355" y="-231.5" font-family="Arial.ttf" font-size="10.00">iostream</text>
</a>
</g>
</g>
<!-- Node2&#45;&gt;Node11 -->
<g id="edge10" class="edge">
<title>Node2&#45;&gt;Node11</title>
<path fill="none" stroke="midnightblue" d="M1063.73,-457.15C941.92,-457.6 435.77,-456.73 383,-412 336.76,-372.8 344.69,-290.74 351.11,-253.77"/>
<polygon fill="midnightblue" stroke="midnightblue" points="354.57,-254.32 353,-243.84 347.69,-253.01 354.57,-254.32"/>
</g>
<!-- Node12 -->
<g id="node12" class="node">
<title>Node12</title>
<g id="a_node12"><a xlink:title=" ">
<polygon fill="white" stroke="#bfbfbf" points="923.5,-392.5 923.5,-411.5 952.5,-411.5 952.5,-392.5 923.5,-392.5"/>
<text text-anchor="middle" x="938" y="-399.5" font-family="Arial.ttf" font-size="10.00">list</text>
</a>
</g>
</g>
<!-- Node2&#45;&gt;Node12 -->
<g id="edge11" class="edge">
<title>Node2&#45;&gt;Node12</title>
<path fill="none" stroke="midnightblue" d="M1064.93,-448.36C1040.9,-440.04 1003.4,-426.95 962.13,-411.99"/>
<polygon fill="midnightblue" stroke="midnightblue" points="963.3,-408.7 952.71,-408.57 960.91,-415.27 963.3,-408.7"/>
</g>
<!-- Node13 -->
<g id="node13" class="node">
<title>Node13</title>
<g id="a_node13"><a xlink:title=" ">
<polygon fill="white" stroke="#bfbfbf" points="2728.5,-392.5 2728.5,-411.5 2763.5,-411.5 2763.5,-392.5 2728.5,-392.5"/>
<text text-anchor="middle" x="2746" y="-399.5" font-family="Arial.ttf" font-size="10.00">map</text>
</a>
</g>
</g>
<!-- Node2&#45;&gt;Node13 -->
<g id="edge12" class="edge">
<title>Node2&#45;&gt;Node13</title>
<path fill="none" stroke="midnightblue" d="M1116.2,-456.74C1309.4,-454.77 2511.54,-441.44 2718.34,-411.3"/>
<polygon fill="midnightblue" stroke="midnightblue" points="2719.16,-414.71 2728.47,-409.67 2718.04,-407.8 2719.16,-414.71"/>
</g>
<!-- Node14 -->
<g id="node14" class="node">
<title>Node14</title>
<g id="a_node14"><a xlink:title=" ">
<polygon fill="white" stroke="#bfbfbf" points="970.5,-392.5 970.5,-411.5 1013.5,-411.5 1013.5,-392.5 970.5,-392.5"/>
<text text-anchor="middle" x="992" y="-399.5" font-family="Arial.ttf" font-size="10.00">queue</text>
</a>
</g>
</g>
<!-- Node2&#45;&gt;Node14 -->
<g id="edge13" class="edge">
<title>Node2&#45;&gt;Node14</title>
<path fill="none" stroke="midnightblue" d="M1074.25,-448.32C1058.68,-439.74 1034.62,-426.49 1016.54,-416.52"/>
<polygon fill="midnightblue" stroke="midnightblue" points="1018.15,-413.42 1007.71,-411.65 1014.78,-419.55 1018.15,-413.42"/>
</g>
<!-- Node15 -->
<g id="node15" class="node">
<title>Node15</title>
<g id="a_node15"><a xlink:title=" ">
<polygon fill="white" stroke="#bfbfbf" points="1031.5,-392.5 1031.5,-411.5 1080.5,-411.5 1080.5,-392.5 1031.5,-392.5"/>
<text text-anchor="middle" x="1056" y="-399.5" font-family="Arial.ttf" font-size="10.00">random</text>
</a>
</g>
</g>
<!-- Node2&#45;&gt;Node15 -->
<g id="edge14" class="edge">
<title>Node2&#45;&gt;Node15</title>
<path fill="none" stroke="midnightblue" d="M1084.39,-448.08C1079.63,-440.53 1072.68,-429.49 1066.85,-420.23"/>
<polygon fill="midnightblue" stroke="midnightblue" points="1069.8,-418.35 1061.51,-411.75 1063.88,-422.08 1069.8,-418.35"/>
</g>
<!-- Node16 -->
<g id="node16" class="node">
<title>Node16</title>
<g id="a_node16"><a xlink:title=" ">
<polygon fill="white" stroke="#bfbfbf" points="1099,-392.5 1099,-411.5 1151,-411.5 1151,-392.5 1099,-392.5"/>
<text text-anchor="middle" x="1125" y="-399.5" font-family="Arial.ttf" font-size="10.00">sstream</text>
</a>
</g>
</g>
<!-- Node2&#45;&gt;Node16 -->
<g id="edge15" class="edge">
<title>Node2&#45;&gt;Node16</title>
<path fill="none" stroke="midnightblue" d="M1095.78,-448.08C1100.67,-440.53 1107.83,-429.49 1113.83,-420.23"/>
<polygon fill="midnightblue" stroke="midnightblue" points="1116.83,-422.05 1119.33,-411.75 1110.95,-418.24 1116.83,-422.05"/>
</g>
<!-- Node17 -->
<g id="node17" class="node">
<title>Node17</title>
<g id="a_node17"><a xlink:title=" ">
<polygon fill="white" stroke="#bfbfbf" points="290.5,-0.5 290.5,-19.5 331.5,-19.5 331.5,-0.5 290.5,-0.5"/>
<text text-anchor="middle" x="311" y="-7.5" font-family="Arial.ttf" font-size="10.00">string</text>
</a>
</g>
</g>
<!-- Node2&#45;&gt;Node17 -->
<g id="edge16" class="edge">
<title>Node2&#45;&gt;Node17</title>
<path fill="none" stroke="midnightblue" d="M1063.97,-456.74C933.35,-455.3 352.77,-446.95 281,-412 246.46,-395.18 224,-385.42 224,-347 224,-347 224,-347 224,-121 224,-79.4 262.75,-44.33 288.53,-25.6"/>
<polygon fill="midnightblue" stroke="midnightblue" points="290.82,-28.27 297.02,-19.68 286.82,-22.53 290.82,-28.27"/>
</g>
<!-- Node18 -->
<g id="node18" class="node">
<title>Node18</title>
<g id="a_node18"><a xlink:title=" ">
<polygon fill="white" stroke="#bfbfbf" points="1169,-392.5 1169,-411.5 1213,-411.5 1213,-392.5 1169,-392.5"/>
<text text-anchor="middle" x="1191" y="-399.5" font-family="Arial.ttf" font-size="10.00">thread</text>
</a>
</g>
</g>
<!-- Node2&#45;&gt;Node18 -->
<g id="edge17" class="edge">
<title>Node2&#45;&gt;Node18</title>
<path fill="none" stroke="midnightblue" d="M1106.23,-448.32C1122.35,-439.7 1147.3,-426.36 1165.96,-416.39"/>
<polygon fill="midnightblue" stroke="midnightblue" points="1167.64,-419.46 1174.81,-411.65 1164.34,-413.28 1167.64,-419.46"/>
</g>
<!-- Node19 -->
<g id="node19" class="node">
<title>Node19</title>
<g id="a_node19"><a xlink:title=" ">
<polygon fill="white" stroke="#bfbfbf" points="1231.5,-392.5 1231.5,-411.5 1282.5,-411.5 1282.5,-392.5 1231.5,-392.5"/>
<text text-anchor="middle" x="1257" y="-399.5" font-family="Arial.ttf" font-size="10.00">typeinfo</text>
</a>
</g>
</g>
<!-- Node2&#45;&gt;Node19 -->
<g id="edge18" class="edge">
<title>Node2&#45;&gt;Node19</title>
<path fill="none" stroke="midnightblue" d="M1116.09,-448.56C1144.49,-439.38 1190.04,-424.65 1221.64,-414.44"/>
<polygon fill="midnightblue" stroke="midnightblue" points="1222.93,-417.7 1231.36,-411.29 1220.77,-411.04 1222.93,-417.7"/>
</g>
<!-- Node20 -->
<g id="node20" class="node">
<title>Node20</title>
<g id="a_node20"><a xlink:title=" ">
<polygon fill="white" stroke="#bfbfbf" points="2630,-0.5 2630,-19.5 2674,-19.5 2674,-0.5 2630,-0.5"/>
<text text-anchor="middle" x="2652" y="-7.5" font-family="Arial.ttf" font-size="10.00">vector</text>
</a>
</g>
</g>
<!-- Node2&#45;&gt;Node20 -->
<g id="edge19" class="edge">
<title>Node2&#45;&gt;Node20</title>
<path fill="none" stroke="midnightblue" d="M1116.22,-457.01C1310.18,-457.01 2516.41,-455.27 2579,-412 2648.99,-363.61 2652,-320.09 2652,-235 2652,-235 2652,-235 2652,-121 2652,-88.95 2652,-51.64 2652,-29.75"/>
<polygon fill="midnightblue" stroke="midnightblue" points="2655.5,-29.56 2652,-19.56 2648.5,-29.56 2655.5,-29.56"/>
</g>
<!-- Node21 -->
<g id="node21" class="node">
<title>Node21</title>
<g id="a_node21"><a xlink:title=" ">
<polygon fill="white" stroke="#bfbfbf" points="531,-0.5 531,-19.5 583,-19.5 583,-0.5 531,-0.5"/>
<text text-anchor="middle" x="557" y="-7.5" font-family="Arial.ttf" font-size="10.00">memory</text>
</a>
</g>
</g>
<!-- Node2&#45;&gt;Node21 -->
<g id="edge20" class="edge">
<title>Node2&#45;&gt;Node21</title>
<path fill="none" stroke="midnightblue" d="M1063.98,-456.65C937.28,-454.81 388.19,-444.97 320,-412 285.14,-395.15 262,-385.72 262,-347 262,-347 262,-347 262,-121 262,-66.33 442.09,-29.94 520.85,-16.64"/>
<polygon fill="midnightblue" stroke="midnightblue" points="521.53,-20.07 530.82,-14.99 520.38,-13.17 521.53,-20.07"/>
</g>
<!-- Node22 -->
<g id="node22" class="node">
<title>Node22</title>
<g id="a_node22"><a xlink:title=" ">
<polygon fill="white" stroke="#bfbfbf" points="1300.5,-392.5 1300.5,-411.5 1349.5,-411.5 1349.5,-392.5 1300.5,-392.5"/>
<text text-anchor="middle" x="1325" y="-399.5" font-family="Arial.ttf" font-size="10.00">cassert</text>
</a>
</g>
</g>
<!-- Node2&#45;&gt;Node22 -->
<g id="edge21" class="edge">
<title>Node2&#45;&gt;Node22</title>
<path fill="none" stroke="midnightblue" d="M1116.24,-451.57C1153.05,-443.86 1222.33,-429.02 1290.17,-412.38"/>
<polygon fill="midnightblue" stroke="midnightblue" points="1291.3,-415.7 1300.17,-409.91 1289.62,-408.91 1291.3,-415.7"/>
</g>
<!-- Node23 -->
<g id="node23" class="node">
<title>Node23</title>
<g id="a_node23"><a xlink:title=" ">
<polygon fill="white" stroke="#bfbfbf" points="1593.5,-0.5 1593.5,-19.5 1634.5,-19.5 1634.5,-0.5 1593.5,-0.5"/>
<text text-anchor="middle" x="1614" y="-7.5" font-family="Arial.ttf" font-size="10.00">cfloat</text>
</a>
</g>
</g>
<!-- Node2&#45;&gt;Node23 -->
<g id="edge22" class="edge">
<title>Node2&#45;&gt;Node23</title>
<path fill="none" stroke="midnightblue" d="M1116.18,-457.06C1308.57,-457.43 2497.74,-457.85 2557,-412 2580.8,-393.58 2576,-377.1 2576,-347 2576,-347 2576,-347 2576,-121 2576,-24.97 1809.58,-12.73 1644.92,-11.21"/>
<polygon fill="midnightblue" stroke="midnightblue" points="1644.57,-7.71 1634.54,-11.12 1644.51,-14.71 1644.57,-7.71"/>
</g>
<!-- Node24 -->
<g id="node24" class="node">
<title>Node24</title>
<g id="a_node24"><a xlink:title=" ">
<polygon fill="white" stroke="#bfbfbf" points="1367.5,-392.5 1367.5,-411.5 1412.5,-411.5 1412.5,-392.5 1367.5,-392.5"/>
<text text-anchor="middle" x="1390" y="-399.5" font-family="Arial.ttf" font-size="10.00">climits</text>
</a>
</g>
</g>
<!-- Node2&#45;&gt;Node24 -->
<g id="edge23" class="edge">
<title>Node2&#45;&gt;Node24</title>
<path fill="none" stroke="midnightblue" d="M1116.17,-453.66C1162.83,-447.48 1263.62,-433.13 1357.46,-412.15"/>
<polygon fill="midnightblue" stroke="midnightblue" points="1358.41,-415.52 1367.39,-409.89 1356.87,-408.69 1358.41,-415.52"/>
</g>
<!-- Node25 -->
<g id="node25" class="node">
<title>Node25</title>
<g id="a_node25"><a xlink:title=" ">
<polygon fill="white" stroke="#bfbfbf" points="1431,-392.5 1431,-411.5 1475,-411.5 1475,-392.5 1431,-392.5"/>
<text text-anchor="middle" x="1453" y="-399.5" font-family="Arial.ttf" font-size="10.00">cmath</text>
</a>
</g>
</g>
<!-- Node2&#45;&gt;Node25 -->
<g id="edge24" class="edge">
<title>Node2&#45;&gt;Node25</title>
<path fill="none" stroke="midnightblue" d="M1116.05,-454.79C1170.8,-449.87 1301.9,-436.61 1420.76,-411.99"/>
<polygon fill="midnightblue" stroke="midnightblue" points="1421.68,-415.37 1430.75,-409.89 1420.24,-408.52 1421.68,-415.37"/>
</g>
<!-- Node26 -->
<g id="node26" class="node">
<title>Node26</title>
<g id="a_node26"><a xlink:title=" ">
<polygon fill="white" stroke="#bfbfbf" points="1493.5,-392.5 1493.5,-411.5 1536.5,-411.5 1536.5,-392.5 1493.5,-392.5"/>
<text text-anchor="middle" x="1515" y="-399.5" font-family="Arial.ttf" font-size="10.00">cstdio</text>
</a>
</g>
</g>
<!-- Node2&#45;&gt;Node26 -->
<g id="edge25" class="edge">
<title>Node2&#45;&gt;Node26</title>
<path fill="none" stroke="midnightblue" d="M1116.05,-455.55C1178.09,-451.77 1339.5,-440.05 1483.54,-411.74"/>
<polygon fill="midnightblue" stroke="midnightblue" points="1484.31,-415.16 1493.44,-409.77 1482.94,-408.29 1484.31,-415.16"/>
</g>
<!-- Node27 -->
<g id="node27" class="node">
<title>Node27</title>
<g id="a_node27"><a xlink:title=" ">
<polygon fill="white" stroke="#bfbfbf" points="1554.5,-392.5 1554.5,-411.5 1599.5,-411.5 1599.5,-392.5 1554.5,-392.5"/>
<text text-anchor="middle" x="1577" y="-399.5" font-family="Arial.ttf" font-size="10.00">cstdlib</text>
</a>
</g>
</g>
<!-- Node2&#45;&gt;Node27 -->
<g id="edge26" class="edge">
<title>Node2&#45;&gt;Node27</title>
<path fill="none" stroke="midnightblue" d="M1116.21,-456.1C1185.07,-453.39 1376.81,-443.53 1544.44,-411.98"/>
<polygon fill="midnightblue" stroke="midnightblue" points="1545.27,-415.39 1554.43,-410.07 1543.95,-408.52 1545.27,-415.39"/>
</g>
<!-- Node28 -->
<g id="node28" class="node">
<title>Node28</title>
<g id="a_node28"><a xlink:title=" ">
<polygon fill="white" stroke="#bfbfbf" points="1618,-392.5 1618,-411.5 1664,-411.5 1664,-392.5 1618,-392.5"/>
<text text-anchor="middle" x="1641" y="-399.5" font-family="Arial.ttf" font-size="10.00">cstring</text>
</a>
</g>
</g>
<!-- Node2&#45;&gt;Node28 -->
<g id="edge27" class="edge">
<title>Node2&#45;&gt;Node28</title>
<path fill="none" stroke="midnightblue" d="M1116.15,-456.46C1191.3,-454.56 1414.35,-446.35 1607.65,-411.92"/>
<polygon fill="midnightblue" stroke="midnightblue" points="1608.48,-415.32 1617.7,-410.1 1607.24,-408.44 1608.48,-415.32"/>
</g>
<!-- Node29 -->
<g id="node29" class="node">
<title>Node29</title>
<g id="a_node29"><a xlink:href="_s_l_8h.html" target="_top" xlink:title=" ">
<polygon fill="white" stroke="black" points="628.5,-112.5 628.5,-131.5 665.5,-131.5 665.5,-112.5 628.5,-112.5"/>
<text text-anchor="middle" x="647" y="-119.5" font-family="Arial.ttf" font-size="10.00">SL.h</text>
</a>
</g>
</g>
<!-- Node2&#45;&gt;Node29 -->
<g id="edge28" class="edge">
<title>Node2&#45;&gt;Node29</title>
<path fill="none" stroke="midnightblue" d="M1063.68,-456.69C964.27,-455.27 615.7,-447.73 583,-412 510.15,-332.4 599.86,-188.96 634.47,-139.95"/>
<polygon fill="midnightblue" stroke="midnightblue" points="637.41,-141.85 640.42,-131.69 631.73,-137.76 637.41,-141.85"/>
</g>
<!-- Node33 -->
<g id="node31" class="node">
<title>Node33</title>
<g id="a_node31"><a xlink:href="_s_l_enums_8h.html" target="_top" xlink:title=" ">
<polygon fill="white" stroke="black" points="2642,-392.5 2642,-411.5 2710,-411.5 2710,-392.5 2642,-392.5"/>
<text text-anchor="middle" x="2676" y="-399.5" font-family="Arial.ttf" font-size="10.00">SLEnums.h</text>
</a>
</g>
</g>
<!-- Node2&#45;&gt;Node33 -->
<g id="edge34" class="edge">
<title>Node2&#45;&gt;Node33</title>
<path fill="none" stroke="midnightblue" d="M1116.08,-456.79C1292.87,-455.32 2317.76,-445.42 2628,-412 2629.26,-411.86 2630.53,-411.71 2631.81,-411.55"/>
<polygon fill="midnightblue" stroke="midnightblue" points="2632.36,-415.01 2641.75,-410.09 2631.35,-408.08 2632.36,-415.01"/>
</g>
<!-- Node34 -->
<g id="node32" class="node">
<title>Node34</title>
<g id="a_node32"><a xlink:href="_s_l_mat3_8h.html" target="_top" xlink:title=" ">
<polygon fill="white" stroke="black" points="366.5,-280.5 366.5,-299.5 425.5,-299.5 425.5,-280.5 366.5,-280.5"/>
<text text-anchor="middle" x="396" y="-287.5" font-family="Arial.ttf" font-size="10.00">SLMat3.h</text>
</a>
</g>
</g>
<!-- Node2&#45;&gt;Node34 -->
<g id="edge35" class="edge">
<title>Node2&#45;&gt;Node34</title>
<path fill="none" stroke="midnightblue" d="M1063.76,-457.32C943.28,-458.51 446.92,-460.45 400,-412 373.65,-384.8 382.41,-335.95 389.91,-309.4"/>
<polygon fill="midnightblue" stroke="midnightblue" points="393.27,-310.39 392.84,-299.81 386.57,-308.35 393.27,-310.39"/>
</g>
<!-- Node35 -->
<g id="node33" class="node">
<title>Node35</title>
<g id="a_node33"><a xlink:href="_s_l_vec3_8h.html" target="_top" xlink:title=" ">
<polygon fill="white" stroke="black" points="492.5,-224.5 492.5,-243.5 551.5,-243.5 551.5,-224.5 492.5,-224.5"/>
<text text-anchor="middle" x="522" y="-231.5" font-family="Arial.ttf" font-size="10.00">SLVec3.h</text>
</a>
</g>
</g>
<!-- Node2&#45;&gt;Node35 -->
<g id="edge64" class="edge">
<title>Node2&#45;&gt;Node35</title>
<path fill="none" stroke="midnightblue" d="M1063.97,-457.19C949.91,-457.75 498.03,-457.11 456,-412 411.9,-364.66 474.96,-285.17 506.22,-251.19"/>
<polygon fill="midnightblue" stroke="midnightblue" points="509.08,-253.26 513.39,-243.58 503.98,-248.46 509.08,-253.26"/>
</g>
<!-- Node36 -->
<g id="node34" class="node">
<title>Node36</title>
<g id="a_node34"><a xlink:href="_s_l_vec2_8h.html" target="_top" xlink:title=" ">
<polygon fill="white" stroke="black" points="492.5,-168.5 492.5,-187.5 551.5,-187.5 551.5,-168.5 492.5,-168.5"/>
<text text-anchor="middle" x="522" y="-175.5" font-family="Arial.ttf" font-size="10.00">SLVec2.h</text>
</a>
</g>
</g>
<!-- Node2&#45;&gt;Node36 -->
<g id="edge63" class="edge">
<title>Node2&#45;&gt;Node36</title>
<path fill="none" stroke="midnightblue" d="M1063.85,-456.5C941.38,-453.99 427.69,-441.78 363,-412 326.45,-395.18 300,-387.23 300,-347 300,-347 300,-347 300,-289 300,-258.9 297.02,-244.57 319,-224 342.24,-202.25 429.79,-189.11 482.02,-183.04"/>
<polygon fill="midnightblue" stroke="midnightblue" points="482.74,-186.48 492.28,-181.89 481.96,-179.53 482.74,-186.48"/>
</g>
<!-- Node37 -->
<g id="node35" class="node">
<title>Node37</title>
<g id="a_node35"><a xlink:href="_s_l_mat4_8h.html" target="_top" xlink:title=" ">
<polygon fill="white" stroke="red" points="660.5,-336.5 660.5,-355.5 719.5,-355.5 719.5,-336.5 660.5,-336.5"/>
<text text-anchor="middle" x="690" y="-343.5" font-family="Arial.ttf" font-size="10.00">SLMat4.h</text>
</a>
</g>
</g>
<!-- Node2&#45;&gt;Node37 -->
<g id="edge45" class="edge">
<title>Node2&#45;&gt;Node37</title>
<path fill="none" stroke="midnightblue" d="M1063.82,-456.08C978.16,-452.79 710.33,-440.3 685,-412 673.82,-399.51 677.25,-379.73 682.12,-365.26"/>
<polygon fill="midnightblue" stroke="midnightblue" points="685.42,-366.44 685.74,-355.85 678.89,-363.93 685.42,-366.44"/>
</g>
<!-- Node39 -->
<g id="node37" class="node">
<title>Node39</title>
<g id="a_node37"><a xlink:href="_s_l_vec4_8h.html" target="_top" xlink:title=" ">
<polygon fill="white" stroke="black" points="630.5,-280.5 630.5,-299.5 689.5,-299.5 689.5,-280.5 630.5,-280.5"/>
<text text-anchor="middle" x="660" y="-287.5" font-family="Arial.ttf" font-size="10.00">SLVec4.h</text>
</a>
</g>
</g>
<!-- Node2&#45;&gt;Node39 -->
<g id="edge65" class="edge">
<title>Node2&#45;&gt;Node39</title>
<path fill="none" stroke="midnightblue" d="M1063.83,-457.14C951.25,-457.49 511.91,-455.99 471,-412 420.17,-357.34 551.26,-316.73 620.46,-299.75"/>
<polygon fill="midnightblue" stroke="midnightblue" points="621.28,-303.15 630.19,-297.41 619.65,-296.34 621.28,-303.15"/>
</g>
<!-- Node43 -->
<g id="node38" class="node">
<title>Node43</title>
<g id="a_node38"><a xlink:href="_s_l_object_8h.html" target="_top" xlink:title=" ">
<polygon fill="white" stroke="black" points="765.5,-336.5 765.5,-355.5 830.5,-355.5 830.5,-336.5 765.5,-336.5"/>
<text text-anchor="middle" x="798" y="-343.5" font-family="Arial.ttf" font-size="10.00">SLObject.h</text>
</a>
</g>
</g>
<!-- Node2&#45;&gt;Node43 -->
<g id="edge56" class="edge">
<title>Node2&#45;&gt;Node43</title>
<path fill="none" stroke="midnightblue" d="M1063.84,-452.44C1029.05,-445.89 965.99,-432.33 915,-412 905.46,-408.2 853.34,-378.67 821.97,-360.75"/>
<polygon fill="midnightblue" stroke="midnightblue" points="823.39,-357.53 812.97,-355.6 819.91,-363.6 823.39,-357.53"/>
</g>
<!-- Node44 -->
<g id="node39" class="node">
<title>Node44</title>
<g id="a_node39"><a xlink:href="_s_l_quat4_8h.html" target="_top" xlink:title=" ">
<polygon fill="white" stroke="black" points="2484.5,-392.5 2484.5,-411.5 2547.5,-411.5 2547.5,-392.5 2484.5,-392.5"/>
<text text-anchor="middle" x="2516" y="-399.5" font-family="Arial.ttf" font-size="10.00">SLQuat4.h</text>
</a>
</g>
</g>
<!-- Node2&#45;&gt;Node44 -->
<g id="edge58" class="edge">
<title>Node2&#45;&gt;Node44</title>
<path fill="none" stroke="midnightblue" d="M1116.12,-456.81C1280.69,-455.49 2176.29,-446.86 2473.98,-411.82"/>
<polygon fill="midnightblue" stroke="midnightblue" points="2474.81,-415.24 2484.32,-410.56 2473.97,-408.29 2474.81,-415.24"/>
</g>
<!-- Node45 -->
<g id="node40" class="node">
<title>Node45</title>
<g id="a_node40"><a xlink:title=" ">
<polygon fill="white" stroke="#bfbfbf" points="1682,-392.5 1682,-411.5 1798,-411.5 1798,-392.5 1682,-392.5"/>
<text text-anchor="middle" x="1740" y="-399.5" font-family="Arial.ttf" font-size="10.00">opencv2/core/core.hpp</text>
</a>
</g>
</g>
<!-- Node2&#45;&gt;Node45 -->
<g id="edge66" class="edge">
<title>Node2&#45;&gt;Node45</title>
<path fill="none" stroke="midnightblue" d="M1116.2,-455.51C1197.15,-450.78 1450.64,-435.15 1671.75,-412.08"/>
<polygon fill="midnightblue" stroke="midnightblue" points="1672.34,-415.53 1681.92,-411.01 1671.61,-408.57 1672.34,-415.53"/>
</g>
<!-- Node46 -->
<g id="node41" class="node">
<title>Node46</title>
<g id="a_node41"><a xlink:title=" ">
<polygon fill="white" stroke="#bfbfbf" points="1816.5,-392.5 1816.5,-411.5 1935.5,-411.5 1935.5,-392.5 1816.5,-392.5"/>
<text text-anchor="middle" x="1876" y="-399.5" font-family="Arial.ttf" font-size="10.00">opencv2/core/utility.hpp</text>
</a>
</g>
</g>
<!-- Node2&#45;&gt;Node46 -->
<g id="edge67" class="edge">
<title>Node2&#45;&gt;Node46</title>
<path fill="none" stroke="midnightblue" d="M1116.09,-455.99C1208.59,-452.3 1529.63,-438.34 1805.97,-412.03"/>
<polygon fill="midnightblue" stroke="midnightblue" points="1806.57,-415.49 1816.19,-411.05 1805.9,-408.52 1806.57,-415.49"/>
</g>
<!-- Node47 -->
<g id="node42" class="node">
<title>Node47</title>
<g id="a_node42"><a xlink:title=" ">
<polygon fill="white" stroke="#bfbfbf" points="1954,-392.5 1954,-411.5 2060,-411.5 2060,-392.5 1954,-392.5"/>
<text text-anchor="middle" x="2007" y="-399.5" font-family="Arial.ttf" font-size="10.00">opencv2/highgui.hpp</text>
</a>
</g>
</g>
<!-- Node2&#45;&gt;Node47 -->
<g id="edge68" class="edge">
<title>Node2&#45;&gt;Node47</title>
<path fill="none" stroke="midnightblue" d="M1116.3,-456.49C1220.05,-454.31 1611.06,-444.36 1943.62,-412.04"/>
<polygon fill="midnightblue" stroke="midnightblue" points="1944.33,-415.49 1953.94,-411.03 1943.65,-408.52 1944.33,-415.49"/>
</g>
<!-- Node48 -->
<g id="node43" class="node">
<title>Node48</title>
<g id="a_node43"><a xlink:title=" ">
<polygon fill="white" stroke="#bfbfbf" points="2078,-392.5 2078,-411.5 2188,-411.5 2188,-392.5 2078,-392.5"/>
<text text-anchor="middle" x="2133" y="-399.5" font-family="Arial.ttf" font-size="10.00">opencv2/imgproc.hpp</text>
</a>
</g>
</g>
<!-- Node2&#45;&gt;Node48 -->
<g id="edge69" class="edge">
<title>Node2&#45;&gt;Node48</title>
<path fill="none" stroke="midnightblue" d="M1116.16,-456.7C1228.77,-455.21 1683.54,-447.27 2067.68,-412.03"/>
<polygon fill="midnightblue" stroke="midnightblue" points="2068.25,-415.49 2077.88,-411.09 2067.6,-408.52 2068.25,-415.49"/>
</g>
<!-- Node49 -->
<g id="node44" class="node">
<title>Node49</title>
<g id="a_node44"><a xlink:title=" ">
<polygon fill="white" stroke="#bfbfbf" points="2206,-392.5 2206,-411.5 2312,-411.5 2312,-392.5 2206,-392.5"/>
<text text-anchor="middle" x="2259" y="-399.5" font-family="Arial.ttf" font-size="10.00">opencv2/calib3d.hpp</text>
</a>
</g>
</g>
<!-- Node2&#45;&gt;Node49 -->
<g id="edge70" class="edge">
<title>Node2&#45;&gt;Node49</title>
<path fill="none" stroke="midnightblue" d="M1116.22,-456.93C1237.75,-456.43 1758.58,-451.95 2195.95,-411.99"/>
<polygon fill="midnightblue" stroke="midnightblue" points="2196.31,-415.47 2205.94,-411.07 2195.66,-408.5 2196.31,-415.47"/>
</g>
<!-- Node50 -->
<g id="node45" class="node">
<title>Node50</title>
<g id="a_node45"><a xlink:title=" ">
<polygon fill="white" stroke="#bfbfbf" points="2330,-392.5 2330,-411.5 2466,-411.5 2466,-392.5 2330,-392.5"/>
<text text-anchor="middle" x="2398" y="-399.5" font-family="Arial.ttf" font-size="10.00">opencv2/video/tracking.hpp</text>
</a>
</g>
</g>
<!-- Node2&#45;&gt;Node50 -->
<g id="edge71" class="edge">
<title>Node2&#45;&gt;Node50</title>
<path fill="none" stroke="midnightblue" d="M1116.03,-456.82C1245.16,-455.76 1829.95,-449.09 2319.5,-412.05"/>
<polygon fill="midnightblue" stroke="midnightblue" points="2319.89,-415.53 2329.59,-411.28 2319.36,-408.55 2319.89,-415.53"/>
</g>
<!-- Node30 -->
<g id="node30" class="node">
<title>Node30</title>
<g id="a_node30"><a xlink:href="_utils_8h.html" target="_top" xlink:title=" ">
<polygon fill="white" stroke="red" points="624.5,-56.5 624.5,-75.5 669.5,-75.5 669.5,-56.5 624.5,-56.5"/>
<text text-anchor="middle" x="647" y="-63.5" font-family="Arial.ttf" font-size="10.00">Utils.h</text>
</a>
</g>
</g>
<!-- Node29&#45;&gt;Node30 -->
<g id="edge29" class="edge">
<title>Node29&#45;&gt;Node30</title>
<path fill="none" stroke="midnightblue" d="M647,-112.08C647,-105.01 647,-94.86 647,-85.99"/>
<polygon fill="midnightblue" stroke="midnightblue" points="650.5,-85.75 647,-75.75 643.5,-85.75 650.5,-85.75"/>
</g>
<!-- Node30&#45;&gt;Node17 -->
<g id="edge30" class="edge">
<title>Node30&#45;&gt;Node17</title>
<path fill="none" stroke="midnightblue" d="M624.43,-61.37C565.77,-51.95 408.43,-26.66 341.65,-15.93"/>
<polygon fill="midnightblue" stroke="midnightblue" points="342.17,-12.46 331.74,-14.33 341.05,-19.38 342.17,-12.46"/>
</g>
<!-- Node30&#45;&gt;Node20 -->
<g id="edge31" class="edge">
<title>Node30&#45;&gt;Node20</title>
<path fill="none" stroke="midnightblue" d="M669.52,-64.39C872.16,-58.94 2379.73,-18.33 2619.81,-11.87"/>
<polygon fill="midnightblue" stroke="midnightblue" points="2620.07,-15.36 2629.98,-11.59 2619.88,-8.36 2620.07,-15.36"/>
</g>
<!-- Node30&#45;&gt;Node21 -->
<g id="edge33" class="edge">
<title>Node30&#45;&gt;Node21</title>
<path fill="none" stroke="midnightblue" d="M632.54,-56.32C618.5,-47.9 596.95,-34.97 580.46,-25.07"/>
<polygon fill="midnightblue" stroke="midnightblue" points="581.8,-21.8 571.42,-19.65 578.2,-27.8 581.8,-21.8"/>
</g>
<!-- Node30&#45;&gt;Node23 -->
<g id="edge32" class="edge">
<title>Node30&#45;&gt;Node23</title>
<path fill="none" stroke="midnightblue" d="M669.95,-63.72C799.14,-56.5 1435.15,-20.99 1583.17,-12.72"/>
<polygon fill="midnightblue" stroke="midnightblue" points="1583.56,-16.21 1593.35,-12.15 1583.17,-9.22 1583.56,-16.21"/>
</g>
<!-- Node34&#45;&gt;Node11 -->
<g id="edge44" class="edge">
<title>Node34&#45;&gt;Node11</title>
<path fill="none" stroke="midnightblue" d="M389.23,-280.08C383.44,-272.46 374.94,-261.26 367.86,-251.94"/>
<polygon fill="midnightblue" stroke="midnightblue" points="370.48,-249.6 361.64,-243.75 364.9,-253.83 370.48,-249.6"/>
</g>
<!-- Node34&#45;&gt;Node29 -->
<g id="edge36" class="edge">
<title>Node34&#45;&gt;Node29</title>
<path fill="none" stroke="midnightblue" d="M401.33,-280.19C416.73,-255 461.58,-183.53 484,-168 525.05,-139.57 583.51,-129.05 618.12,-125.2"/>
<polygon fill="midnightblue" stroke="midnightblue" points="618.86,-128.64 628.47,-124.16 618.17,-121.68 618.86,-128.64"/>
</g>
<!-- Node34&#45;&gt;Node30 -->
<g id="edge37" class="edge">
<title>Node34&#45;&gt;Node30</title>
<path fill="none" stroke="midnightblue" d="M398.85,-280.33C408.84,-251.4 445.13,-157.44 509,-112 540.87,-89.33 584.82,-77.6 614.49,-71.89"/>
<polygon fill="midnightblue" stroke="midnightblue" points="615.12,-75.33 624.34,-70.11 613.88,-68.44 615.12,-75.33"/>
</g>
<!-- Node34&#45;&gt;Node35 -->
<g id="edge38" class="edge">
<title>Node34&#45;&gt;Node35</title>
<path fill="none" stroke="midnightblue" d="M415.97,-280.44C436.61,-271.6 469.06,-257.69 492.63,-247.59"/>
<polygon fill="midnightblue" stroke="midnightblue" points="494.32,-250.67 502.13,-243.52 491.56,-244.24 494.32,-250.67"/>
</g>
<!-- Node35&#45;&gt;Node29 -->
<g id="edge39" class="edge">
<title>Node35&#45;&gt;Node29</title>
<path fill="none" stroke="midnightblue" d="M531.81,-224.37C552.89,-205.81 602.78,-161.91 629.46,-138.44"/>
<polygon fill="midnightblue" stroke="midnightblue" points="632.04,-140.83 637.24,-131.59 627.42,-135.57 632.04,-140.83"/>
</g>
<!-- Node35&#45;&gt;Node30 -->
<g id="edge43" class="edge">
<title>Node35&#45;&gt;Node30</title>
<path fill="none" stroke="midnightblue" d="M510.49,-224.28C495.65,-211.91 472.97,-188.48 484,-168 511.16,-117.58 575.42,-89.32 614.66,-76.2"/>
<polygon fill="midnightblue" stroke="midnightblue" points="615.84,-79.5 624.29,-73.11 613.7,-72.83 615.84,-79.5"/>
</g>
<!-- Node35&#45;&gt;Node36 -->
<g id="edge40" class="edge">
<title>Node35&#45;&gt;Node36</title>
<path fill="none" stroke="midnightblue" d="M522,-224.08C522,-217.01 522,-206.86 522,-197.99"/>
<polygon fill="midnightblue" stroke="midnightblue" points="525.5,-197.75 522,-187.75 518.5,-197.75 525.5,-197.75"/>
</g>
<!-- Node36&#45;&gt;Node29 -->
<g id="edge41" class="edge">
<title>Node36&#45;&gt;Node29</title>
<path fill="none" stroke="midnightblue" d="M541.81,-168.44C562.53,-159.49 595.24,-145.36 618.69,-135.23"/>
<polygon fill="midnightblue" stroke="midnightblue" points="620.31,-138.34 628.1,-131.16 617.54,-131.92 620.31,-138.34"/>
</g>
<!-- Node36&#45;&gt;Node30 -->
<g id="edge42" class="edge">
<title>Node36&#45;&gt;Node30</title>
<path fill="none" stroke="midnightblue" d="M531.81,-168.37C552.89,-149.81 602.78,-105.91 629.46,-82.44"/>
<polygon fill="midnightblue" stroke="midnightblue" points="632.04,-84.83 637.24,-75.59 627.42,-79.57 632.04,-84.83"/>
</g>
<!-- Node37&#45;&gt;Node29 -->
<g id="edge46" class="edge">
<title>Node37&#45;&gt;Node29</title>
<path fill="none" stroke="midnightblue" d="M692.83,-336.16C696.46,-323.65 701.98,-300.06 699,-280 691.26,-227.87 667.89,-169.78 655.28,-141.08"/>
<polygon fill="midnightblue" stroke="midnightblue" points="658.31,-139.29 651.03,-131.59 651.92,-142.15 658.31,-139.29"/>
</g>
<!-- Node37&#45;&gt;Node30 -->
<g id="edge48" class="edge">
<title>Node37&#45;&gt;Node30</title>
<path fill="none" stroke="midnightblue" d="M719.54,-342.16C746.11,-337.87 783.69,-327.08 802,-300 806.98,-292.64 804.56,-288.51 802,-280 776.29,-194.44 699.57,-115.44 664.65,-82.8"/>
<polygon fill="midnightblue" stroke="midnightblue" points="666.84,-80.06 657.11,-75.86 662.1,-85.21 666.84,-80.06"/>
</g>
<!-- Node37&#45;&gt;Node34 -->
<g id="edge49" class="edge">
<title>Node37&#45;&gt;Node34</title>
<path fill="none" stroke="midnightblue" d="M660.46,-339.58C607.3,-329.81 495.49,-309.27 435.7,-298.29"/>
<polygon fill="midnightblue" stroke="midnightblue" points="435.98,-294.79 425.52,-296.42 434.72,-301.67 435.98,-294.79"/>
</g>
<!-- Node37&#45;&gt;Node35 -->
<g id="edge50" class="edge">
<title>Node37&#45;&gt;Node35</title>
<path fill="none" stroke="midnightblue" d="M676.82,-336.37C647.99,-317.49 579.1,-272.38 543.74,-249.24"/>
<polygon fill="midnightblue" stroke="midnightblue" points="545.4,-246.14 535.12,-243.59 541.57,-252 545.4,-246.14"/>
</g>
<!-- Node38 -->
<g id="node36" class="node">
<title>Node38</title>
<g id="a_node36"><a xlink:title=" ">
<polygon fill="white" stroke="#bfbfbf" points="751.5,-280.5 751.5,-299.5 792.5,-299.5 792.5,-280.5 751.5,-280.5"/>
<text text-anchor="middle" x="772" y="-287.5" font-family="Arial.ttf" font-size="10.00">stack</text>
</a>
</g>
</g>
<!-- Node37&#45;&gt;Node38 -->
<g id="edge47" class="edge">
<title>Node37&#45;&gt;Node38</title>
<path fill="none" stroke="midnightblue" d="M703.17,-336.32C715.85,-327.98 735.23,-315.21 750.21,-305.35"/>
<polygon fill="midnightblue" stroke="midnightblue" points="752.43,-308.08 758.86,-299.65 748.58,-302.23 752.43,-308.08"/>
</g>
<!-- Node37&#45;&gt;Node39 -->
<g id="edge51" class="edge">
<title>Node37&#45;&gt;Node39</title>
<path fill="none" stroke="midnightblue" d="M685.05,-336.08C680.9,-328.61 674.85,-317.72 669.73,-308.52"/>
<polygon fill="midnightblue" stroke="midnightblue" points="672.78,-306.79 664.86,-299.75 666.66,-310.19 672.78,-306.79"/>
</g>
<!-- Node39&#45;&gt;Node29 -->
<g id="edge52" class="edge">
<title>Node39&#45;&gt;Node29</title>
<path fill="none" stroke="midnightblue" d="M659.3,-280.08C657.25,-253.95 651.25,-177.21 648.45,-141.58"/>
<polygon fill="midnightblue" stroke="midnightblue" points="651.94,-141.26 647.67,-131.57 644.96,-141.81 651.94,-141.26"/>
</g>
<!-- Node39&#45;&gt;Node30 -->
<g id="edge55" class="edge">
<title>Node39&#45;&gt;Node30</title>
<path fill="none" stroke="midnightblue" d="M662.88,-280.32C671.09,-254.24 692.88,-174.57 675,-112 672.1,-101.84 666.17,-91.75 660.51,-83.7"/>
<polygon fill="midnightblue" stroke="midnightblue" points="663.22,-81.48 654.41,-75.59 657.62,-85.69 663.22,-81.48"/>
</g>
<!-- Node39&#45;&gt;Node35 -->
<g id="edge54" class="edge">
<title>Node39&#45;&gt;Node35</title>
<path fill="none" stroke="midnightblue" d="M638.13,-280.44C615.22,-271.48 579.02,-257.31 553.13,-247.18"/>
<polygon fill="midnightblue" stroke="midnightblue" points="554.35,-243.9 543.76,-243.52 551.8,-250.42 554.35,-243.9"/>
</g>
<!-- Node39&#45;&gt;Node36 -->
<g id="edge53" class="edge">
<title>Node39&#45;&gt;Node36</title>
<path fill="none" stroke="midnightblue" d="M649.17,-280.37C625.69,-261.65 569.86,-217.15 540.61,-193.83"/>
<polygon fill="midnightblue" stroke="midnightblue" points="542.78,-191.09 532.78,-187.59 538.42,-196.56 542.78,-191.09"/>
</g>
<!-- Node43&#45;&gt;Node29 -->
<g id="edge57" class="edge">
<title>Node43&#45;&gt;Node29</title>
<path fill="none" stroke="midnightblue" d="M800.89,-336.19C804.61,-323.31 809.73,-298.83 802,-280 775.05,-214.34 705.91,-161.48 669.77,-137.29"/>
<polygon fill="midnightblue" stroke="midnightblue" points="671.62,-134.32 661.34,-131.76 667.79,-140.17 671.62,-134.32"/>
</g>
<!-- Node44&#45;&gt;Node29 -->
<g id="edge59" class="edge">
<title>Node44&#45;&gt;Node29</title>
<path fill="none" stroke="midnightblue" d="M2484.3,-393.54C2481.17,-392.96 2478.03,-392.43 2475,-392 2388.01,-379.74 897,-378.85 897,-291 897,-291 897,-291 897,-233 897,-137.33 741.7,-124.13 675.91,-122.84"/>
<polygon fill="midnightblue" stroke="midnightblue" points="675.83,-119.34 665.79,-122.72 675.75,-126.34 675.83,-119.34"/>
</g>
<!-- Node44&#45;&gt;Node30 -->
<g id="edge62" class="edge">
<title>Node44&#45;&gt;Node30</title>
<path fill="none" stroke="midnightblue" d="M2513.84,-392.22C2509.47,-373.66 2500,-329.02 2500,-291 2500,-291 2500,-291 2500,-177 2500,-82.03 928.62,-68.69 679.96,-67.17"/>
<polygon fill="midnightblue" stroke="midnightblue" points="679.78,-63.67 669.76,-67.11 679.74,-70.67 679.78,-63.67"/>
</g>
<!-- Node44&#45;&gt;Node37 -->
<g id="edge60" class="edge">
<title>Node44&#45;&gt;Node37</title>
<path fill="none" stroke="midnightblue" d="M2484.32,-393.41C2481.18,-392.85 2478.04,-392.36 2475,-392 2095.82,-346.85 1137.72,-385.47 757,-356 748.17,-355.32 738.72,-354.25 729.79,-353.1"/>
<polygon fill="midnightblue" stroke="midnightblue" points="729.99,-349.59 719.61,-351.71 729.04,-356.53 729.99,-349.59"/>
</g>
<!-- Node44&#45;&gt;Node39 -->
<g id="edge61" class="edge">
<title>Node44&#45;&gt;Node39</title>
<path fill="none" stroke="midnightblue" d="M2484.32,-393.41C2481.18,-392.85 2478.04,-392.36 2475,-392 2123.65,-349.87 1227.63,-436.32 883,-356 862.47,-351.22 859.87,-343.03 840,-336 792.81,-319.3 736.59,-306.29 699.69,-298.65"/>
<polygon fill="midnightblue" stroke="midnightblue" points="700.31,-295.21 689.82,-296.64 698.92,-302.06 700.31,-295.21"/>
</g>
<!-- Node52 -->
<g id="node47" class="node">
<title>Node52</title>
<g id="a_node47"><a xlink:href="_s_l_node_8h.html" target="_top" xlink:title=" ">
<polygon fill="white" stroke="red" points="2574,-448.5 2574,-467.5 2634,-467.5 2634,-448.5 2574,-448.5"/>
<text text-anchor="middle" x="2604" y="-455.5" font-family="Arial.ttf" font-size="10.00">SLNode.h</text>
</a>
</g>
</g>
<!-- Node51&#45;&gt;Node52 -->
<g id="edge73" class="edge">
<title>Node51&#45;&gt;Node52</title>
<path fill="none" stroke="midnightblue" d="M2604,-504.08C2604,-497.01 2604,-486.86 2604,-477.99"/>
<polygon fill="midnightblue" stroke="midnightblue" points="2607.5,-477.75 2604,-467.75 2600.5,-477.75 2607.5,-477.75"/>
</g>
<!-- Node52&#45;&gt;Node33 -->
<g id="edge74" class="edge">
<title>Node52&#45;&gt;Node33</title>
<path fill="none" stroke="midnightblue" d="M2615.57,-448.32C2626.42,-440.18 2642.88,-427.84 2655.88,-418.09"/>
<polygon fill="midnightblue" stroke="midnightblue" points="2658.32,-420.63 2664.22,-411.83 2654.12,-415.03 2658.32,-420.63"/>
</g>
<!-- Node52&#45;&gt;Node44 -->
<g id="edge75" class="edge">
<title>Node52&#45;&gt;Node44</title>
<path fill="none" stroke="midnightblue" d="M2589.86,-448.32C2576.13,-439.9 2555.06,-426.97 2538.94,-417.07"/>
<polygon fill="midnightblue" stroke="midnightblue" points="2540.46,-413.9 2530.1,-411.65 2536.8,-419.87 2540.46,-413.9"/>
</g>
<!-- Node64&#45;&gt;Node51 -->
<g id="edge85" class="edge">
<title>Node64&#45;&gt;Node51</title>
<path fill="none" stroke="midnightblue" d="M2645.43,-616.47C2638.96,-607.72 2629.18,-593.53 2623,-580 2616.13,-564.96 2611.08,-546.83 2607.91,-533.54"/>
<polygon fill="midnightblue" stroke="midnightblue" points="2611.31,-532.69 2605.7,-523.7 2604.48,-534.22 2611.31,-532.69"/>
</g>
<!-- Node65 -->
<g id="node49" class="node">
<title>Node65</title>
<g id="a_node49"><a xlink:href="_s_l_anim_playback_8h.html" target="_top" xlink:title=" ">
<polygon fill="white" stroke="black" points="2700,-448.5 2700,-467.5 2800,-467.5 2800,-448.5 2700,-448.5"/>
<text text-anchor="middle" x="2750" y="-455.5" font-family="Arial.ttf" font-size="10.00">SLAnimPlayback.h</text>
</a>
</g>
</g>
<!-- Node64&#45;&gt;Node65 -->
<g id="edge77" class="edge">
<title>Node64&#45;&gt;Node65</title>
<path fill="none" stroke="midnightblue" d="M2673.25,-616.36C2688.78,-608.97 2709.13,-596.83 2721,-580 2742.91,-548.92 2748.4,-503.37 2749.69,-477.94"/>
<polygon fill="midnightblue" stroke="midnightblue" points="2753.2,-477.92 2750.03,-467.8 2746.2,-477.68 2753.2,-477.92"/>
</g>
<!-- Node66 -->
<g id="node50" class="node">
<title>Node66</title>
<g id="a_node50"><a xlink:href="_s_l_animation_8h.html" target="_top" xlink:title=" ">
<polygon fill="white" stroke="red" points="2632,-560.5 2632,-579.5 2712,-579.5 2712,-560.5 2632,-560.5"/>
<text text-anchor="middle" x="2672" y="-567.5" font-family="Arial.ttf" font-size="10.00">SLAnimation.h</text>
</a>
</g>
</g>
<!-- Node64&#45;&gt;Node66 -->
<g id="edge82" class="edge">
<title>Node64&#45;&gt;Node66</title>
<path fill="none" stroke="midnightblue" d="M2655.3,-616.08C2657.98,-608.85 2661.85,-598.41 2665.19,-589.4"/>
<polygon fill="midnightblue" stroke="midnightblue" points="2668.57,-590.34 2668.76,-579.75 2662,-587.91 2668.57,-590.34"/>
</g>
<!-- Node65&#45;&gt;Node13 -->
<g id="edge78" class="edge">
<title>Node65&#45;&gt;Node13</title>
<path fill="none" stroke="midnightblue" d="M2749.34,-448.08C2748.82,-441.01 2748.06,-430.86 2747.41,-421.99"/>
<polygon fill="midnightblue" stroke="midnightblue" points="2750.88,-421.47 2746.65,-411.75 2743.9,-421.98 2750.88,-421.47"/>
</g>
<!-- Node65&#45;&gt;Node20 -->
<g id="edge79" class="edge">
<title>Node65&#45;&gt;Node20</title>
<path fill="none" stroke="midnightblue" d="M2762.5,-448.31C2785,-431.54 2830,-392.34 2830,-347 2830,-347 2830,-347 2830,-121 2830,-53.2 2735.39,-25.79 2684.12,-15.92"/>
<polygon fill="midnightblue" stroke="midnightblue" points="2684.65,-12.46 2674.18,-14.12 2683.4,-19.34 2684.65,-12.46"/>
</g>
<!-- Node65&#45;&gt;Node29 -->
<g id="edge80" class="edge">
<title>Node65&#45;&gt;Node29</title>
<path fill="none" stroke="midnightblue" d="M2758.08,-448.1C2769.27,-434.67 2786.65,-408.98 2773,-392 2700.28,-301.58 2632.46,-355.03 2518,-336 1772.89,-212.11 848.73,-138.35 675.63,-125.15"/>
<polygon fill="midnightblue" stroke="midnightblue" points="675.77,-121.65 665.54,-124.38 675.25,-128.63 675.77,-121.65"/>
</g>
<!-- Node65&#45;&gt;Node33 -->
<g id="edge81" class="edge">
<title>Node65&#45;&gt;Node33</title>
<path fill="none" stroke="midnightblue" d="M2738.11,-448.32C2726.85,-440.11 2709.71,-427.6 2696.29,-417.81"/>
<polygon fill="midnightblue" stroke="midnightblue" points="2698.25,-414.9 2688.11,-411.83 2694.12,-420.56 2698.25,-414.9"/>
</g>
<!-- Node66&#45;&gt;Node33 -->
<g id="edge83" class="edge">
<title>Node66&#45;&gt;Node33</title>
<path fill="none" stroke="midnightblue" d="M2672.22,-560.08C2672.84,-533.95 2674.69,-457.21 2675.55,-421.58"/>
<polygon fill="midnightblue" stroke="midnightblue" points="2679.05,-421.65 2675.79,-411.57 2672.05,-421.48 2679.05,-421.65"/>
</g>
<!-- Node66&#45;&gt;Node51 -->
<g id="edge84" class="edge">
<title>Node66&#45;&gt;Node51</title>
<path fill="none" stroke="midnightblue" d="M2661.07,-560.32C2650.83,-552.18 2635.28,-539.84 2623,-530.09"/>
<polygon fill="midnightblue" stroke="midnightblue" points="2625.13,-527.31 2615.12,-523.83 2620.78,-532.79 2625.13,-527.31"/>
</g>
</g>
</svg>
