<?xml version="1.0" encoding="UTF-8" standalone="no"?>
<!DOCTYPE svg PUBLIC "-//W3C//DTD SVG 1.1//EN"
 "http://www.w3.org/Graphics/SVG/1.1/DTD/svg11.dtd">
<!-- Generated by graphviz version 2.36.0 (20140111.2315)
 -->
<!-- Title: SLRayMC.cpp Pages: 1 -->
<svg width="3238pt" height="420pt"
 viewBox="0.00 0.00 3238.00 420.00" xmlns="http://www.w3.org/2000/svg" xmlns:xlink="http://www.w3.org/1999/xlink">
<g id="graph0" class="graph" transform="scale(1 1) rotate(0) translate(4 416)">
<title>SLRayMC.cpp</title>
<polygon fill="white" stroke="none" points="-4,4 -4,-416 3234,-416 3234,4 -4,4"/>
<!-- Node1 -->
<g id="node1" class="node"><title>Node1</title>
<polygon fill="#bfbfbf" stroke="black" points="1479.5,-392.5 1479.5,-411.5 1560.5,-411.5 1560.5,-392.5 1479.5,-392.5"/>
<text text-anchor="middle" x="1520" y="-399.5" font-family="Arial.ttf" font-size="10.00">SLRayMC.cpp</text>
</g>
<!-- Node2 -->
<g id="node2" class="node"><title>Node2</title>
<g id="a_node2"><a xlink:href="stdafx_8h.html" target="_top" xlink:title="stdafx.h">
<polygon fill="white" stroke="black" points="1458,-336.5 1458,-355.5 1510,-355.5 1510,-336.5 1458,-336.5"/>
<text text-anchor="middle" x="1484" y="-343.5" font-family="Arial.ttf" font-size="10.00">stdafx.h</text>
</a>
</g>
</g>
<!-- Node1&#45;&gt;Node2 -->
<g id="edge1" class="edge"><title>Node1&#45;&gt;Node2</title>
<path fill="none" stroke="midnightblue" d="M1514.06,-392.083C1509.02,-384.534 1501.66,-373.495 1495.49,-364.23"/>
<polygon fill="midnightblue" stroke="midnightblue" points="1498.29,-362.13 1489.83,-355.751 1492.47,-366.013 1498.29,-362.13"/>
</g>
<!-- Node50 -->
<g id="node50" class="node"><title>Node50</title>
<g id="a_node50"><a xlink:href="_s_l_ray_8h.html" target="_top" xlink:title="SLRay.h">
<polygon fill="white" stroke="red" points="1528.5,-336.5 1528.5,-355.5 1583.5,-355.5 1583.5,-336.5 1528.5,-336.5"/>
<text text-anchor="middle" x="1556" y="-343.5" font-family="Arial.ttf" font-size="10.00">SLRay.h</text>
</a>
</g>
</g>
<!-- Node1&#45;&gt;Node50 -->
<g id="edge80" class="edge"><title>Node1&#45;&gt;Node50</title>
<path fill="none" stroke="midnightblue" d="M1525.94,-392.083C1530.98,-384.534 1538.34,-373.495 1544.51,-364.23"/>
<polygon fill="midnightblue" stroke="midnightblue" points="1547.53,-366.013 1550.17,-355.751 1541.71,-362.13 1547.53,-366.013"/>
</g>
<!-- Node3 -->
<g id="node3" class="node"><title>Node3</title>
<polygon fill="white" stroke="#bfbfbf" points="0,-280.5 0,-299.5 58,-299.5 58,-280.5 0,-280.5"/>
<text text-anchor="middle" x="29" y="-287.5" font-family="Arial.ttf" font-size="10.00">algorithm</text>
</g>
<!-- Node2&#45;&gt;Node3 -->
<g id="edge2" class="edge"><title>Node2&#45;&gt;Node3</title>
<path fill="none" stroke="midnightblue" d="M1457.81,-344.886C1290.77,-344.056 371.758,-337.864 68.4446,-299.873"/>
<polygon fill="midnightblue" stroke="midnightblue" points="68.7164,-296.379 58.3498,-298.566 67.8176,-303.321 68.7164,-296.379"/>
</g>
<!-- Node4 -->
<g id="node4" class="node"><title>Node4</title>
<polygon fill="white" stroke="#bfbfbf" points="76,-280.5 76,-299.5 122,-299.5 122,-280.5 76,-280.5"/>
<text text-anchor="middle" x="99" y="-287.5" font-family="Arial.ttf" font-size="10.00">atomic</text>
</g>
<!-- Node2&#45;&gt;Node4 -->
<g id="edge3" class="edge"><title>Node2&#45;&gt;Node4</title>
<path fill="none" stroke="midnightblue" d="M1457.92,-344.989C1295.61,-344.79 421.393,-341.833 132.31,-299.759"/>
<polygon fill="midnightblue" stroke="midnightblue" points="132.686,-296.276 122.275,-298.246 131.642,-303.198 132.686,-296.276"/>
</g>
<!-- Node5 -->
<g id="node5" class="node"><title>Node5</title>
<polygon fill="white" stroke="#bfbfbf" points="140.5,-280.5 140.5,-299.5 187.5,-299.5 187.5,-280.5 140.5,-280.5"/>
<text text-anchor="middle" x="164" y="-287.5" font-family="Arial.ttf" font-size="10.00">chrono</text>
</g>
<!-- Node2&#45;&gt;Node5 -->
<g id="edge4" class="edge"><title>Node2&#45;&gt;Node5</title>
<path fill="none" stroke="midnightblue" d="M1457.9,-344.938C1300.2,-344.436 472.461,-339.977 197.562,-299.83"/>
<polygon fill="midnightblue" stroke="midnightblue" points="198.037,-296.362 187.626,-298.325 196.989,-303.283 198.037,-296.362"/>
</g>
<!-- Node6 -->
<g id="node6" class="node"><title>Node6</title>
<polygon fill="white" stroke="#bfbfbf" points="205.5,-280.5 205.5,-299.5 254.5,-299.5 254.5,-280.5 205.5,-280.5"/>
<text text-anchor="middle" x="230" y="-287.5" font-family="Arial.ttf" font-size="10.00">cstdarg</text>
</g>
<!-- Node2&#45;&gt;Node6 -->
<g id="edge5" class="edge"><title>Node2&#45;&gt;Node6</title>
<path fill="none" stroke="midnightblue" d="M1457.79,-344.824C1304.96,-343.681 526.774,-336.216 264.964,-299.709"/>
<polygon fill="midnightblue" stroke="midnightblue" points="265.148,-296.2 254.75,-298.231 264.145,-303.127 265.148,-296.2"/>
</g>
<!-- Node7 -->
<g id="node7" class="node"><title>Node7</title>
<polygon fill="white" stroke="#bfbfbf" points="273,-280.5 273,-299.5 313,-299.5 313,-280.5 273,-280.5"/>
<text text-anchor="middle" x="293" y="-287.5" font-family="Arial.ttf" font-size="10.00">ctime</text>
</g>
<!-- Node2&#45;&gt;Node7 -->
<g id="edge6" class="edge"><title>Node2&#45;&gt;Node7</title>
<path fill="none" stroke="midnightblue" d="M1457.56,-344.916C1308.5,-344.302 571.379,-339.374 323.154,-299.655"/>
<polygon fill="midnightblue" stroke="midnightblue" points="323.555,-296.173 313.116,-297.983 322.405,-303.078 323.555,-296.173"/>
</g>
<!-- Node8 -->
<g id="node8" class="node"><title>Node8</title>
<polygon fill="white" stroke="#bfbfbf" points="331,-280.5 331,-299.5 381,-299.5 381,-280.5 331,-280.5"/>
<text text-anchor="middle" x="356" y="-287.5" font-family="Arial.ttf" font-size="10.00">fstream</text>
</g>
<!-- Node2&#45;&gt;Node8 -->
<g id="edge7" class="edge"><title>Node2&#45;&gt;Node8</title>
<path fill="none" stroke="midnightblue" d="M1457.72,-344.695C1314.47,-342.916 626.037,-332.85 391.288,-299.792"/>
<polygon fill="midnightblue" stroke="midnightblue" points="391.525,-296.289 381.123,-298.302 390.51,-303.215 391.525,-296.289"/>
</g>
<!-- Node9 -->
<g id="node9" class="node"><title>Node9</title>
<polygon fill="white" stroke="#bfbfbf" points="399.5,-280.5 399.5,-299.5 458.5,-299.5 458.5,-280.5 399.5,-280.5"/>
<text text-anchor="middle" x="429" y="-287.5" font-family="Arial.ttf" font-size="10.00">functional</text>
</g>
<!-- Node2&#45;&gt;Node9 -->
<g id="edge8" class="edge"><title>Node2&#45;&gt;Node9</title>
<path fill="none" stroke="midnightblue" d="M1457.81,-344.488C1321.13,-341.719 687.881,-327.675 468.822,-299.783"/>
<polygon fill="midnightblue" stroke="midnightblue" points="469.08,-296.286 458.707,-298.444 468.161,-303.226 469.08,-296.286"/>
</g>
<!-- Node10 -->
<g id="node10" class="node"><title>Node10</title>
<polygon fill="white" stroke="#bfbfbf" points="477,-280.5 477,-299.5 529,-299.5 529,-280.5 477,-280.5"/>
<text text-anchor="middle" x="503" y="-287.5" font-family="Arial.ttf" font-size="10.00">iomanip</text>
</g>
<!-- Node2&#45;&gt;Node10 -->
<g id="edge9" class="edge"><title>Node2&#45;&gt;Node10</title>
<path fill="none" stroke="midnightblue" d="M1457.65,-345.407C1346.22,-346.778 902.81,-348.707 543,-300 541.73,-299.828 540.441,-299.636 539.142,-299.427"/>
<polygon fill="midnightblue" stroke="midnightblue" points="539.604,-295.953 529.132,-297.563 538.322,-302.835 539.604,-295.953"/>
</g>
<!-- Node11 -->
<g id="node11" class="node"><title>Node11</title>
<polygon fill="white" stroke="#bfbfbf" points="1739.5,-112.5 1739.5,-131.5 1794.5,-131.5 1794.5,-112.5 1739.5,-112.5"/>
<text text-anchor="middle" x="1767" y="-119.5" font-family="Arial.ttf" font-size="10.00">iostream</text>
</g>
<!-- Node2&#45;&gt;Node11 -->
<g id="edge10" class="edge"><title>Node2&#45;&gt;Node11</title>
<path fill="none" stroke="midnightblue" d="M1510.3,-338.232C1513.56,-337.45 1516.85,-336.688 1520,-336 1604.82,-317.463 1647.16,-357.732 1712,-300 1736.06,-278.583 1756.12,-182.434 1763.73,-141.522"/>
<polygon fill="midnightblue" stroke="midnightblue" points="1767.19,-142.019 1765.53,-131.555 1760.31,-140.77 1767.19,-142.019"/>
</g>
<!-- Node12 -->
<g id="node12" class="node"><title>Node12</title>
<polygon fill="white" stroke="#bfbfbf" points="585.5,-280.5 585.5,-299.5 614.5,-299.5 614.5,-280.5 585.5,-280.5"/>
<text text-anchor="middle" x="600" y="-287.5" font-family="Arial.ttf" font-size="10.00">list</text>
</g>
<!-- Node2&#45;&gt;Node12 -->
<g id="edge11" class="edge"><title>Node2&#45;&gt;Node12</title>
<path fill="none" stroke="midnightblue" d="M1457.93,-344.499C1332.91,-341.966 794.167,-329.501 629,-300 627.508,-299.734 625.985,-299.413 624.458,-299.055"/>
<polygon fill="midnightblue" stroke="midnightblue" points="625.15,-295.615 614.578,-296.298 623.269,-302.357 625.15,-295.615"/>
</g>
<!-- Node13 -->
<g id="node13" class="node"><title>Node13</title>
<polygon fill="white" stroke="#bfbfbf" points="707,-224.5 707,-243.5 743,-243.5 743,-224.5 707,-224.5"/>
<text text-anchor="middle" x="725" y="-231.5" font-family="Arial.ttf" font-size="10.00">map</text>
</g>
<!-- Node2&#45;&gt;Node13 -->
<g id="edge12" class="edge"><title>Node2&#45;&gt;Node13</title>
<path fill="none" stroke="midnightblue" d="M1457.66,-344.564C1320.15,-342.165 690.004,-329.579 662,-300 644.659,-281.684 673.824,-260.786 697.998,-247.742"/>
<polygon fill="midnightblue" stroke="midnightblue" points="699.625,-250.841 706.911,-243.149 696.418,-244.619 699.625,-250.841"/>
</g>
<!-- Node14 -->
<g id="node14" class="node"><title>Node14</title>
<polygon fill="white" stroke="#bfbfbf" points="671,-280.5 671,-299.5 715,-299.5 715,-280.5 671,-280.5"/>
<text text-anchor="middle" x="693" y="-287.5" font-family="Arial.ttf" font-size="10.00">queue</text>
</g>
<!-- Node2&#45;&gt;Node14 -->
<g id="edge13" class="edge"><title>Node2&#45;&gt;Node14</title>
<path fill="none" stroke="midnightblue" d="M1457.79,-344.234C1343.68,-340.783 888.911,-325.774 725.112,-299.743"/>
<polygon fill="midnightblue" stroke="midnightblue" points="725.651,-296.284 715.212,-298.093 724.5,-303.189 725.651,-296.284"/>
</g>
<!-- Node15 -->
<g id="node15" class="node"><title>Node15</title>
<polygon fill="white" stroke="#bfbfbf" points="733,-280.5 733,-299.5 783,-299.5 783,-280.5 733,-280.5"/>
<text text-anchor="middle" x="758" y="-287.5" font-family="Arial.ttf" font-size="10.00">random</text>
</g>
<!-- Node2&#45;&gt;Node15 -->
<g id="edge14" class="edge"><title>Node2&#45;&gt;Node15</title>
<path fill="none" stroke="midnightblue" d="M1457.71,-345.117C1366.75,-345.139 1056.95,-342.035 793.281,-299.88"/>
<polygon fill="midnightblue" stroke="midnightblue" points="793.565,-296.38 783.134,-298.234 792.444,-303.29 793.565,-296.38"/>
</g>
<!-- Node16 -->
<g id="node16" class="node"><title>Node16</title>
<polygon fill="white" stroke="#bfbfbf" points="901,-224.5 901,-243.5 953,-243.5 953,-224.5 901,-224.5"/>
<text text-anchor="middle" x="927" y="-231.5" font-family="Arial.ttf" font-size="10.00">sstream</text>
</g>
<!-- Node2&#45;&gt;Node16 -->
<g id="edge15" class="edge"><title>Node2&#45;&gt;Node16</title>
<path fill="none" stroke="midnightblue" d="M1457.82,-344.396C1356.36,-341.842 992.769,-330.609 952,-300 937.669,-289.24 931.552,-269.151 928.942,-254.142"/>
<polygon fill="midnightblue" stroke="midnightblue" points="932.364,-253.332 927.551,-243.893 925.428,-254.273 932.364,-253.332"/>
</g>
<!-- Node17 -->
<g id="node17" class="node"><title>Node17</title>
<polygon fill="white" stroke="#bfbfbf" points="1098.5,-224.5 1098.5,-243.5 1139.5,-243.5 1139.5,-224.5 1098.5,-224.5"/>
<text text-anchor="middle" x="1119" y="-231.5" font-family="Arial.ttf" font-size="10.00">string</text>
</g>
<!-- Node2&#45;&gt;Node17 -->
<g id="edge16" class="edge"><title>Node2&#45;&gt;Node17</title>
<path fill="none" stroke="midnightblue" d="M1457.97,-342.196C1415.26,-337.074 1328.08,-324.412 1258,-300 1239.6,-293.592 1236.55,-288.444 1219,-280 1195.26,-268.582 1167.97,-256.361 1147.91,-247.541"/>
<polygon fill="midnightblue" stroke="midnightblue" points="1149.25,-244.307 1138.68,-243.502 1146.44,-250.719 1149.25,-244.307"/>
</g>
<!-- Node18 -->
<g id="node18" class="node"><title>Node18</title>
<polygon fill="white" stroke="#bfbfbf" points="961.5,-280.5 961.5,-299.5 1006.5,-299.5 1006.5,-280.5 961.5,-280.5"/>
<text text-anchor="middle" x="984" y="-287.5" font-family="Arial.ttf" font-size="10.00">thread</text>
</g>
<!-- Node2&#45;&gt;Node18 -->
<g id="edge17" class="edge"><title>Node2&#45;&gt;Node18</title>
<path fill="none" stroke="midnightblue" d="M1457.9,-344.121C1387.91,-341.423 1190.2,-331.544 1016.68,-299.772"/>
<polygon fill="midnightblue" stroke="midnightblue" points="1017.08,-296.285 1006.61,-297.897 1015.8,-303.167 1017.08,-296.285"/>
</g>
<!-- Node19 -->
<g id="node19" class="node"><title>Node19</title>
<polygon fill="white" stroke="#bfbfbf" points="1025,-280.5 1025,-299.5 1077,-299.5 1077,-280.5 1025,-280.5"/>
<text text-anchor="middle" x="1051" y="-287.5" font-family="Arial.ttf" font-size="10.00">typeinfo</text>
</g>
<!-- Node2&#45;&gt;Node19 -->
<g id="edge18" class="edge"><title>Node2&#45;&gt;Node19</title>
<path fill="none" stroke="midnightblue" d="M1457.74,-343.3C1395.18,-338.982 1232.36,-326.163 1087.26,-300.002"/>
<polygon fill="midnightblue" stroke="midnightblue" points="1087.75,-296.534 1077.29,-298.177 1086.49,-303.42 1087.75,-296.534"/>
</g>
<!-- Node20 -->
<g id="node20" class="node"><title>Node20</title>
<polygon fill="white" stroke="#bfbfbf" points="1095,-280.5 1095,-299.5 1139,-299.5 1139,-280.5 1095,-280.5"/>
<text text-anchor="middle" x="1117" y="-287.5" font-family="Arial.ttf" font-size="10.00">vector</text>
</g>
<!-- Node2&#45;&gt;Node20 -->
<g id="edge19" class="edge"><title>Node2&#45;&gt;Node20</title>
<path fill="none" stroke="midnightblue" d="M1457.73,-342.739C1402.45,-337.714 1270.01,-324.257 1149.08,-299.717"/>
<polygon fill="midnightblue" stroke="midnightblue" points="1149.78,-296.288 1139.28,-297.698 1148.37,-303.144 1149.78,-296.288"/>
</g>
<!-- Node21 -->
<g id="node21" class="node"><title>Node21</title>
<polygon fill="white" stroke="#bfbfbf" points="1157.5,-280.5 1157.5,-299.5 1210.5,-299.5 1210.5,-280.5 1157.5,-280.5"/>
<text text-anchor="middle" x="1184" y="-287.5" font-family="Arial.ttf" font-size="10.00">memory</text>
</g>
<!-- Node2&#45;&gt;Node21 -->
<g id="edge20" class="edge"><title>Node2&#45;&gt;Node21</title>
<path fill="none" stroke="midnightblue" d="M1457.83,-340.844C1411.01,-333.322 1309.86,-316.678 1225,-300 1223.71,-299.747 1222.4,-299.485 1221.08,-299.217"/>
<polygon fill="midnightblue" stroke="midnightblue" points="1221.38,-295.702 1210.87,-297.076 1219.94,-302.553 1221.38,-295.702"/>
</g>
<!-- Node22 -->
<g id="node22" class="node"><title>Node22</title>
<polygon fill="white" stroke="#bfbfbf" points="1888,-168.5 1888,-187.5 1940,-187.5 1940,-168.5 1888,-168.5"/>
<text text-anchor="middle" x="1914" y="-175.5" font-family="Arial.ttf" font-size="10.00">assert.h</text>
</g>
<!-- Node2&#45;&gt;Node22 -->
<g id="edge21" class="edge"><title>Node2&#45;&gt;Node22</title>
<path fill="none" stroke="midnightblue" d="M1510.25,-337.948C1513.52,-337.215 1516.82,-336.541 1520,-336 1605.14,-321.484 1847,-362.132 1907,-300 1933.22,-272.848 1926.13,-224.34 1919.54,-197.734"/>
<polygon fill="midnightblue" stroke="midnightblue" points="1922.84,-196.533 1916.84,-187.799 1916.09,-198.366 1922.84,-196.533"/>
</g>
<!-- Node23 -->
<g id="node23" class="node"><title>Node23</title>
<polygon fill="white" stroke="#bfbfbf" points="1267,-280.5 1267,-299.5 1311,-299.5 1311,-280.5 1267,-280.5"/>
<text text-anchor="middle" x="1289" y="-287.5" font-family="Arial.ttf" font-size="10.00">float.h</text>
</g>
<!-- Node2&#45;&gt;Node23 -->
<g id="edge22" class="edge"><title>Node2&#45;&gt;Node23</title>
<path fill="none" stroke="midnightblue" d="M1457.84,-337.948C1427.27,-329.684 1374.95,-315.449 1320.78,-300.19"/>
<polygon fill="midnightblue" stroke="midnightblue" points="1321.58,-296.78 1311,-297.432 1319.68,-303.516 1321.58,-296.78"/>
</g>
<!-- Node24 -->
<g id="node24" class="node"><title>Node24</title>
<polygon fill="white" stroke="#bfbfbf" points="1329,-280.5 1329,-299.5 1377,-299.5 1377,-280.5 1329,-280.5"/>
<text text-anchor="middle" x="1353" y="-287.5" font-family="Arial.ttf" font-size="10.00">limits.h</text>
</g>
<!-- Node2&#45;&gt;Node24 -->
<g id="edge23" class="edge"><title>Node2&#45;&gt;Node24</title>
<path fill="none" stroke="midnightblue" d="M1463.24,-336.444C1441.68,-327.557 1407.74,-313.563 1383.21,-303.451"/>
<polygon fill="midnightblue" stroke="midnightblue" points="1384.24,-300.092 1373.66,-299.516 1381.57,-306.563 1384.24,-300.092"/>
</g>
<!-- Node25 -->
<g id="node25" class="node"><title>Node25</title>
<polygon fill="white" stroke="#bfbfbf" points="1395.5,-280.5 1395.5,-299.5 1442.5,-299.5 1442.5,-280.5 1395.5,-280.5"/>
<text text-anchor="middle" x="1419" y="-287.5" font-family="Arial.ttf" font-size="10.00">math.h</text>
</g>
<!-- Node2&#45;&gt;Node25 -->
<g id="edge24" class="edge"><title>Node2&#45;&gt;Node25</title>
<path fill="none" stroke="midnightblue" d="M1473.56,-336.324C1463.85,-328.263 1449.18,-316.077 1437.5,-306.369"/>
<polygon fill="midnightblue" stroke="midnightblue" points="1439.56,-303.532 1429.63,-299.834 1435.09,-308.916 1439.56,-303.532"/>
</g>
<!-- Node26 -->
<g id="node26" class="node"><title>Node26</title>
<polygon fill="white" stroke="#bfbfbf" points="1461,-280.5 1461,-299.5 1507,-299.5 1507,-280.5 1461,-280.5"/>
<text text-anchor="middle" x="1484" y="-287.5" font-family="Arial.ttf" font-size="10.00">stdio.h</text>
</g>
<!-- Node2&#45;&gt;Node26 -->
<g id="edge25" class="edge"><title>Node2&#45;&gt;Node26</title>
<path fill="none" stroke="midnightblue" d="M1484,-336.083C1484,-329.006 1484,-318.861 1484,-309.986"/>
<polygon fill="midnightblue" stroke="midnightblue" points="1487.5,-309.751 1484,-299.751 1480.5,-309.751 1487.5,-309.751"/>
</g>
<!-- Node27 -->
<g id="node27" class="node"><title>Node27</title>
<polygon fill="white" stroke="#bfbfbf" points="1525,-280.5 1525,-299.5 1573,-299.5 1573,-280.5 1525,-280.5"/>
<text text-anchor="middle" x="1549" y="-287.5" font-family="Arial.ttf" font-size="10.00">stdlib.h</text>
</g>
<!-- Node2&#45;&gt;Node27 -->
<g id="edge26" class="edge"><title>Node2&#45;&gt;Node27</title>
<path fill="none" stroke="midnightblue" d="M1494.44,-336.324C1504.15,-328.263 1518.82,-316.077 1530.5,-306.369"/>
<polygon fill="midnightblue" stroke="midnightblue" points="1532.91,-308.916 1538.37,-299.834 1528.44,-303.532 1532.91,-308.916"/>
</g>
<!-- Node28 -->
<g id="node28" class="node"><title>Node28</title>
<polygon fill="white" stroke="#bfbfbf" points="1591.5,-280.5 1591.5,-299.5 1640.5,-299.5 1640.5,-280.5 1591.5,-280.5"/>
<text text-anchor="middle" x="1616" y="-287.5" font-family="Arial.ttf" font-size="10.00">string.h</text>
</g>
<!-- Node2&#45;&gt;Node28 -->
<g id="edge27" class="edge"><title>Node2&#45;&gt;Node28</title>
<path fill="none" stroke="midnightblue" d="M1504.92,-336.444C1526.74,-327.517 1561.15,-313.439 1585.89,-303.317"/>
<polygon fill="midnightblue" stroke="midnightblue" points="1587.25,-306.542 1595.18,-299.516 1584.6,-300.063 1587.25,-306.542"/>
</g>
<!-- Node29 -->
<g id="node29" class="node"><title>Node29</title>
<polygon fill="white" stroke="#bfbfbf" points="1659,-280.5 1659,-299.5 1703,-299.5 1703,-280.5 1659,-280.5"/>
<text text-anchor="middle" x="1681" y="-287.5" font-family="Arial.ttf" font-size="10.00">time.h</text>
</g>
<!-- Node2&#45;&gt;Node29 -->
<g id="edge28" class="edge"><title>Node2&#45;&gt;Node29</title>
<path fill="none" stroke="midnightblue" d="M1510.02,-337.971C1542.55,-329.169 1599.93,-313.593 1649,-300 1649.1,-299.972 1649.2,-299.944 1649.3,-299.916"/>
<polygon fill="midnightblue" stroke="midnightblue" points="1650.28,-303.277 1658.97,-297.22 1648.4,-296.534 1650.28,-303.277"/>
</g>
<!-- Node30 -->
<g id="node30" class="node"><title>Node30</title>
<g id="a_node30"><a xlink:href="_s_l_8h.html" target="_top" xlink:title="SL.h">
<polygon fill="white" stroke="red" points="2103.5,-0.5 2103.5,-19.5 2140.5,-19.5 2140.5,-0.5 2103.5,-0.5"/>
<text text-anchor="middle" x="2122" y="-7.5" font-family="Arial.ttf" font-size="10.00">SL.h</text>
</a>
</g>
</g>
<!-- Node2&#45;&gt;Node30 -->
<g id="edge29" class="edge"><title>Node2&#45;&gt;Node30</title>
<path fill="none" stroke="midnightblue" d="M1457.97,-344.555C1313.1,-341.972 611.547,-328.045 576,-300 552.371,-281.358 557,-265.098 557,-235 557,-235 557,-235 557,-121 557,-40.8522 1880.35,-15.0909 2093.25,-11.465"/>
<polygon fill="midnightblue" stroke="midnightblue" points="2093.39,-14.9631 2103.33,-11.2958 2093.28,-7.96413 2093.39,-14.9631"/>
</g>
<!-- Node31 -->
<g id="node31" class="node"><title>Node31</title>
<g id="a_node31"><a xlink:href="_s_l_enums_8h.html" target="_top" xlink:title="SLEnums.h">
<polygon fill="white" stroke="black" points="1759,-280.5 1759,-299.5 1827,-299.5 1827,-280.5 1759,-280.5"/>
<text text-anchor="middle" x="1793" y="-287.5" font-family="Arial.ttf" font-size="10.00">SLEnums.h</text>
</a>
</g>
</g>
<!-- Node2&#45;&gt;Node31 -->
<g id="edge30" class="edge"><title>Node2&#45;&gt;Node31</title>
<path fill="none" stroke="midnightblue" d="M1510.29,-338.15C1513.55,-337.382 1516.84,-336.646 1520,-336 1619.22,-315.7 1645.22,-317.333 1745,-300 1746.27,-299.78 1747.56,-299.554 1748.85,-299.324"/>
<polygon fill="midnightblue" stroke="midnightblue" points="1749.71,-302.725 1758.93,-297.504 1748.47,-295.837 1749.71,-302.725"/>
</g>
<!-- Node32 -->
<g id="node32" class="node"><title>Node32</title>
<g id="a_node32"><a xlink:href="_s_l_g_l_state_8h.html" target="_top" xlink:title="SLGLState.h">
<polygon fill="white" stroke="black" points="1997,-280.5 1997,-299.5 2071,-299.5 2071,-280.5 1997,-280.5"/>
<text text-anchor="middle" x="2034" y="-287.5" font-family="Arial.ttf" font-size="10.00">SLGLState.h</text>
</a>
</g>
</g>
<!-- Node2&#45;&gt;Node32 -->
<g id="edge31" class="edge"><title>Node2&#45;&gt;Node32</title>
<path fill="none" stroke="midnightblue" d="M1510.24,-337.901C1513.51,-337.176 1516.82,-336.517 1520,-336 1723.72,-302.854 1778.24,-325.965 1983,-300 1984.25,-299.841 1985.52,-299.672 1986.81,-299.495"/>
<polygon fill="midnightblue" stroke="midnightblue" points="1987.37,-302.95 1996.74,-298.006 1986.33,-296.027 1987.37,-302.95"/>
</g>
<!-- Node33 -->
<g id="node33" class="node"><title>Node33</title>
<g id="a_node33"><a xlink:href="_s_l_vec3_8h.html" target="_top" xlink:title="SLVec3.h">
<polygon fill="white" stroke="red" points="2005,-112.5 2005,-131.5 2065,-131.5 2065,-112.5 2005,-112.5"/>
<text text-anchor="middle" x="2035" y="-119.5" font-family="Arial.ttf" font-size="10.00">SLVec3.h</text>
</a>
</g>
</g>
<!-- Node2&#45;&gt;Node33 -->
<g id="edge65" class="edge"><title>Node2&#45;&gt;Node33</title>
<path fill="none" stroke="midnightblue" d="M1510.26,-337.993C1513.52,-337.252 1516.83,-336.565 1520,-336 1593.5,-322.916 1799.15,-350.639 1854,-300 1897.87,-259.497 1838.8,-212.151 1879,-168 1908.36,-135.751 1959.22,-126.046 1994.86,-123.414"/>
<polygon fill="midnightblue" stroke="midnightblue" points="1995.16,-126.903 2004.94,-122.827 1994.75,-119.915 1995.16,-126.903"/>
</g>
<!-- Node34 -->
<g id="node34" class="node"><title>Node34</title>
<g id="a_node34"><a xlink:href="_s_l_vec2_8h.html" target="_top" xlink:title="SLVec2.h">
<polygon fill="white" stroke="red" points="2121,-56.5 2121,-75.5 2181,-75.5 2181,-56.5 2121,-56.5"/>
<text text-anchor="middle" x="2151" y="-63.5" font-family="Arial.ttf" font-size="10.00">SLVec2.h</text>
</a>
</g>
</g>
<!-- Node2&#45;&gt;Node34 -->
<g id="edge64" class="edge"><title>Node2&#45;&gt;Node34</title>
<path fill="none" stroke="midnightblue" d="M1510.23,-337.825C1513.5,-337.113 1516.81,-336.478 1520,-336 1594.71,-324.787 2142.81,-350.506 2199,-300 2243.03,-260.418 2233.9,-224.747 2217,-168 2207.05,-134.574 2182.12,-101.904 2165.91,-83.1464"/>
<polygon fill="midnightblue" stroke="midnightblue" points="2168.42,-80.7018 2159.16,-75.5541 2163.19,-85.353 2168.42,-80.7018"/>
</g>
<!-- Node35 -->
<g id="node35" class="node"><title>Node35</title>
<g id="a_node35"><a xlink:href="_s_l_vec4_8h.html" target="_top" xlink:title="SLVec4.h">
<polygon fill="white" stroke="red" points="2072,-168.5 2072,-187.5 2132,-187.5 2132,-168.5 2072,-168.5"/>
<text text-anchor="middle" x="2102" y="-175.5" font-family="Arial.ttf" font-size="10.00">SLVec4.h</text>
</a>
</g>
</g>
<!-- Node2&#45;&gt;Node35 -->
<g id="edge66" class="edge"><title>Node2&#45;&gt;Node35</title>
<path fill="none" stroke="midnightblue" d="M1510.23,-337.834C1513.5,-337.121 1516.82,-336.483 1520,-336 1590.64,-325.288 2112.92,-351.914 2162,-300 2191.78,-268.501 2147.26,-219.393 2120.22,-194.536"/>
<polygon fill="midnightblue" stroke="midnightblue" points="2122.28,-191.688 2112.49,-187.647 2117.62,-196.914 2122.28,-191.688"/>
</g>
<!-- Node36 -->
<g id="node36" class="node"><title>Node36</title>
<g id="a_node36"><a xlink:href="_s_l_mat4_8h.html" target="_top" xlink:title="SLMat4.h">
<polygon fill="white" stroke="red" points="1957.5,-224.5 1957.5,-243.5 2016.5,-243.5 2016.5,-224.5 1957.5,-224.5"/>
<text text-anchor="middle" x="1987" y="-231.5" font-family="Arial.ttf" font-size="10.00">SLMat4.h</text>
</a>
</g>
</g>
<!-- Node2&#45;&gt;Node36 -->
<g id="edge50" class="edge"><title>Node2&#45;&gt;Node36</title>
<path fill="none" stroke="midnightblue" d="M1510.24,-337.922C1513.51,-337.193 1516.82,-336.528 1520,-336 1613.5,-320.456 1863.74,-348.798 1945,-300 1962.59,-289.434 1974.15,-268.335 1980.6,-253.035"/>
<polygon fill="midnightblue" stroke="midnightblue" points="1983.92,-254.159 1984.27,-243.57 1977.39,-251.63 1983.92,-254.159"/>
</g>
<!-- Node37 -->
<g id="node37" class="node"><title>Node37</title>
<g id="a_node37"><a xlink:href="_s_l_mat3_8h.html" target="_top" xlink:title="SLMat3.h">
<polygon fill="white" stroke="red" points="1772.5,-168.5 1772.5,-187.5 1831.5,-187.5 1831.5,-168.5 1772.5,-168.5"/>
<text text-anchor="middle" x="1802" y="-175.5" font-family="Arial.ttf" font-size="10.00">SLMat3.h</text>
</a>
</g>
</g>
<!-- Node2&#45;&gt;Node37 -->
<g id="edge49" class="edge"><title>Node2&#45;&gt;Node37</title>
<path fill="none" stroke="midnightblue" d="M1510.26,-338.011C1513.53,-337.267 1516.83,-336.574 1520,-336 1589.54,-323.402 1788.94,-352.728 1836,-300 1862.53,-270.278 1833.92,-221.405 1815.33,-195.815"/>
<polygon fill="midnightblue" stroke="midnightblue" points="1817.88,-193.384 1809.06,-187.52 1812.3,-197.607 1817.88,-193.384"/>
</g>
<!-- Node38 -->
<g id="node38" class="node"><title>Node38</title>
<g id="a_node38"><a xlink:href="_s_l_object_8h.html" target="_top" xlink:title="SLObject.h">
<polygon fill="white" stroke="black" points="2358,-56.5 2358,-75.5 2424,-75.5 2424,-56.5 2358,-56.5"/>
<text text-anchor="middle" x="2391" y="-63.5" font-family="Arial.ttf" font-size="10.00">SLObject.h</text>
</a>
</g>
</g>
<!-- Node2&#45;&gt;Node38 -->
<g id="edge51" class="edge"><title>Node2&#45;&gt;Node38</title>
<path fill="none" stroke="midnightblue" d="M1510.23,-337.801C1513.5,-337.094 1516.81,-336.466 1520,-336 1607.05,-323.268 2236.08,-346.132 2311,-300 2385.53,-254.104 2392.02,-132.679 2391.63,-85.8193"/>
<polygon fill="midnightblue" stroke="midnightblue" points="2395.13,-85.529 2391.42,-75.6036 2388.13,-85.6738 2395.13,-85.529"/>
</g>
<!-- Node39 -->
<g id="node39" class="node"><title>Node39</title>
<g id="a_node39"><a xlink:href="_s_l_plane_8h.html" target="_top" xlink:title="SLPlane.h">
<polygon fill="white" stroke="black" points="2302.5,-168.5 2302.5,-187.5 2365.5,-187.5 2365.5,-168.5 2302.5,-168.5"/>
<text text-anchor="middle" x="2334" y="-175.5" font-family="Arial.ttf" font-size="10.00">SLPlane.h</text>
</a>
</g>
</g>
<!-- Node2&#45;&gt;Node39 -->
<g id="edge53" class="edge"><title>Node2&#45;&gt;Node39</title>
<path fill="none" stroke="midnightblue" d="M1510.23,-337.806C1513.5,-337.097 1516.81,-336.468 1520,-336 1604.52,-323.58 2218.83,-350.134 2288,-300 2320.96,-276.112 2330.31,-225.456 2332.96,-197.867"/>
<polygon fill="midnightblue" stroke="midnightblue" points="2336.47,-197.836 2333.73,-187.601 2329.49,-197.31 2336.47,-197.836"/>
</g>
<!-- Node40 -->
<g id="node40" class="node"><title>Node40</title>
<g id="a_node40"><a xlink:href="_s_l_quat4_8h.html" target="_top" xlink:title="SLQuat4.h">
<polygon fill="white" stroke="red" points="2089,-280.5 2089,-299.5 2153,-299.5 2153,-280.5 2089,-280.5"/>
<text text-anchor="middle" x="2121" y="-287.5" font-family="Arial.ttf" font-size="10.00">SLQuat4.h</text>
</a>
</g>
</g>
<!-- Node2&#45;&gt;Node40 -->
<g id="edge56" class="edge"><title>Node2&#45;&gt;Node40</title>
<path fill="none" stroke="midnightblue" d="M1510.23,-337.859C1513.5,-337.142 1516.82,-336.496 1520,-336 1763.18,-298.105 1831.25,-333.869 2078.84,-299.937"/>
<polygon fill="midnightblue" stroke="midnightblue" points="2079.43,-303.388 2088.85,-298.54 2078.47,-296.455 2079.43,-303.388"/>
</g>
<!-- Node41 -->
<g id="node41" class="node"><title>Node41</title>
<g id="a_node41"><a xlink:href="_s_l_rect_8h.html" target="_top" xlink:title="SLRect.h">
<polygon fill="white" stroke="red" points="2150,-168.5 2150,-187.5 2208,-187.5 2208,-168.5 2150,-168.5"/>
<text text-anchor="middle" x="2179" y="-175.5" font-family="Arial.ttf" font-size="10.00">SLRect.h</text>
</a>
</g>
</g>
<!-- Node2&#45;&gt;Node41 -->
<g id="edge60" class="edge"><title>Node2&#45;&gt;Node41</title>
<path fill="none" stroke="midnightblue" d="M1510.23,-337.829C1513.5,-337.117 1516.81,-336.481 1520,-336 1592.62,-325.044 2129.5,-353.327 2180,-300 2206.03,-272.516 2194.92,-223.782 2186.06,-197.324"/>
<polygon fill="midnightblue" stroke="midnightblue" points="2189.3,-195.998 2182.63,-187.77 2182.72,-198.365 2189.3,-195.998"/>
</g>
<!-- Node42 -->
<g id="node42" class="node"><title>Node42</title>
<g id="a_node42"><a xlink:href="_s_l_vector_8h.html" target="_top" xlink:title="SLVector.h">
<polygon fill="white" stroke="black" points="2422,-112.5 2422,-131.5 2488,-131.5 2488,-112.5 2422,-112.5"/>
<text text-anchor="middle" x="2455" y="-119.5" font-family="Arial.ttf" font-size="10.00">SLVector.h</text>
</a>
</g>
</g>
<!-- Node2&#45;&gt;Node42 -->
<g id="edge67" class="edge"><title>Node2&#45;&gt;Node42</title>
<path fill="none" stroke="midnightblue" d="M1510.22,-337.79C1513.5,-337.084 1516.81,-336.46 1520,-336 1614.66,-322.332 2301.39,-354.468 2380,-300 2433.7,-262.794 2449.13,-178.997 2453.42,-141.615"/>
<polygon fill="midnightblue" stroke="midnightblue" points="2456.9,-141.906 2454.42,-131.606 2449.94,-141.208 2456.9,-141.906"/>
</g>
<!-- Node43 -->
<g id="node43" class="node"><title>Node43</title>
<g id="a_node43"><a xlink:href="_s_l_average_timing_8h.html" target="_top" xlink:title="SLAverageTiming.h">
<polygon fill="white" stroke="red" points="801,-280.5 801,-299.5 905,-299.5 905,-280.5 801,-280.5"/>
<text text-anchor="middle" x="853" y="-287.5" font-family="Arial.ttf" font-size="10.00">SLAverageTiming.h</text>
</a>
</g>
</g>
<!-- Node2&#45;&gt;Node43 -->
<g id="edge69" class="edge"><title>Node2&#45;&gt;Node43</title>
<path fill="none" stroke="midnightblue" d="M1457.76,-343.435C1377.17,-338.517 1126.16,-322.357 919,-300 917.739,-299.864 916.465,-299.723 915.181,-299.578"/>
<polygon fill="midnightblue" stroke="midnightblue" points="915.549,-296.097 905.206,-298.394 914.723,-303.048 915.549,-296.097"/>
</g>
<!-- Node44 -->
<g id="node44" class="node"><title>Node44</title>
<polygon fill="white" stroke="#bfbfbf" points="2432,-280.5 2432,-299.5 2550,-299.5 2550,-280.5 2432,-280.5"/>
<text text-anchor="middle" x="2491" y="-287.5" font-family="Arial.ttf" font-size="10.00">opencv2/core/core.hpp</text>
</g>
<!-- Node2&#45;&gt;Node44 -->
<g id="edge74" class="edge"><title>Node2&#45;&gt;Node44</title>
<path fill="none" stroke="midnightblue" d="M1510.22,-337.785C1513.5,-337.08 1516.81,-336.458 1520,-336 1915.38,-279.264 2019.89,-332.465 2418,-300 2419.11,-299.909 2420.24,-299.814 2421.37,-299.715"/>
<polygon fill="midnightblue" stroke="midnightblue" points="2422.06,-303.165 2431.68,-298.729 2421.39,-296.197 2422.06,-303.165"/>
</g>
<!-- Node45 -->
<g id="node45" class="node"><title>Node45</title>
<polygon fill="white" stroke="#bfbfbf" points="2568,-280.5 2568,-299.5 2690,-299.5 2690,-280.5 2568,-280.5"/>
<text text-anchor="middle" x="2629" y="-287.5" font-family="Arial.ttf" font-size="10.00">opencv2/core/utility.hpp</text>
</g>
<!-- Node2&#45;&gt;Node45 -->
<g id="edge75" class="edge"><title>Node2&#45;&gt;Node45</title>
<path fill="none" stroke="midnightblue" d="M1510.22,-337.768C1513.49,-337.066 1516.81,-336.449 1520,-336 1974.2,-272.083 2096.68,-336.544 2557.69,-300.015"/>
<polygon fill="midnightblue" stroke="midnightblue" points="2558.26,-303.48 2567.95,-299.189 2557.7,-296.502 2558.26,-303.48"/>
</g>
<!-- Node46 -->
<g id="node46" class="node"><title>Node46</title>
<polygon fill="white" stroke="#bfbfbf" points="2708.5,-280.5 2708.5,-299.5 2817.5,-299.5 2817.5,-280.5 2708.5,-280.5"/>
<text text-anchor="middle" x="2763" y="-287.5" font-family="Arial.ttf" font-size="10.00">opencv2/highgui.hpp</text>
</g>
<!-- Node2&#45;&gt;Node46 -->
<g id="edge76" class="edge"><title>Node2&#45;&gt;Node46</title>
<path fill="none" stroke="midnightblue" d="M1510.22,-337.755C1513.49,-337.055 1516.81,-336.442 1520,-336 2035.98,-264.47 2174.89,-343.552 2698.16,-299.953"/>
<polygon fill="midnightblue" stroke="midnightblue" points="2698.56,-303.431 2708.23,-299.103 2697.97,-296.456 2698.56,-303.431"/>
</g>
<!-- Node47 -->
<g id="node47" class="node"><title>Node47</title>
<polygon fill="white" stroke="#bfbfbf" points="2836,-280.5 2836,-299.5 2948,-299.5 2948,-280.5 2836,-280.5"/>
<text text-anchor="middle" x="2892" y="-287.5" font-family="Arial.ttf" font-size="10.00">opencv2/imgproc.hpp</text>
</g>
<!-- Node2&#45;&gt;Node47 -->
<g id="edge77" class="edge"><title>Node2&#45;&gt;Node47</title>
<path fill="none" stroke="midnightblue" d="M1510.22,-337.746C1513.49,-337.048 1516.81,-336.438 1520,-336 2091.91,-257.581 2245.47,-346.246 2825.57,-299.906"/>
<polygon fill="midnightblue" stroke="midnightblue" points="2826.19,-303.368 2835.88,-299.073 2825.63,-296.391 2826.19,-303.368"/>
</g>
<!-- Node48 -->
<g id="node48" class="node"><title>Node48</title>
<polygon fill="white" stroke="#bfbfbf" points="2966,-280.5 2966,-299.5 3074,-299.5 3074,-280.5 2966,-280.5"/>
<text text-anchor="middle" x="3020" y="-287.5" font-family="Arial.ttf" font-size="10.00">opencv2/calib3d.hpp</text>
</g>
<!-- Node2&#45;&gt;Node48 -->
<g id="edge78" class="edge"><title>Node2&#45;&gt;Node48</title>
<path fill="none" stroke="midnightblue" d="M1510.22,-337.738C1513.49,-337.041 1516.81,-336.434 1520,-336 2149.65,-250.468 2318.55,-352.162 2955.39,-300.019"/>
<polygon fill="midnightblue" stroke="midnightblue" points="2956.07,-303.474 2965.75,-299.16 2955.49,-296.498 2956.07,-303.474"/>
</g>
<!-- Node49 -->
<g id="node49" class="node"><title>Node49</title>
<polygon fill="white" stroke="#bfbfbf" points="3092,-280.5 3092,-299.5 3230,-299.5 3230,-280.5 3092,-280.5"/>
<text text-anchor="middle" x="3161" y="-287.5" font-family="Arial.ttf" font-size="10.00">opencv2/video/tracking.hpp</text>
</g>
<!-- Node2&#45;&gt;Node49 -->
<g id="edge79" class="edge"><title>Node2&#45;&gt;Node49</title>
<path fill="none" stroke="midnightblue" d="M1510.22,-337.732C1513.49,-337.036 1516.81,-336.43 1520,-336 1861.12,-290.014 2720.26,-323.306 3081.69,-299.999"/>
<polygon fill="midnightblue" stroke="midnightblue" points="3081.96,-303.489 3091.71,-299.33 3081.5,-296.504 3081.96,-303.489"/>
</g>
<!-- Node32&#45;&gt;Node33 -->
<g id="edge32" class="edge"><title>Node32&#45;&gt;Node33</title>
<path fill="none" stroke="midnightblue" d="M2034.05,-280.075C2034.21,-253.945 2034.67,-177.211 2034.89,-141.577"/>
<polygon fill="midnightblue" stroke="midnightblue" points="2038.39,-141.589 2034.95,-131.568 2031.39,-141.547 2038.39,-141.589"/>
</g>
<!-- Node32&#45;&gt;Node35 -->
<g id="edge36" class="edge"><title>Node32&#45;&gt;Node35</title>
<path fill="none" stroke="midnightblue" d="M2039.34,-280.368C2050.51,-262.296 2076.55,-220.176 2091.3,-196.307"/>
<polygon fill="midnightblue" stroke="midnightblue" points="2094.41,-197.938 2096.69,-187.591 2088.45,-194.257 2094.41,-197.938"/>
</g>
<!-- Node32&#45;&gt;Node36 -->
<g id="edge40" class="edge"><title>Node32&#45;&gt;Node36</title>
<path fill="none" stroke="midnightblue" d="M2026.24,-280.083C2019.46,-272.298 2009.46,-260.801 2001.24,-251.367"/>
<polygon fill="midnightblue" stroke="midnightblue" points="2003.82,-248.996 1994.62,-243.751 1998.54,-253.592 2003.82,-248.996"/>
</g>
<!-- Node33&#45;&gt;Node30 -->
<g id="edge33" class="edge"><title>Node33&#45;&gt;Node30</title>
<path fill="none" stroke="midnightblue" d="M2040.26,-112.263C2048.1,-99.4699 2063.6,-75.0903 2079,-56 2087.23,-45.8029 2097.31,-35.1704 2105.64,-26.8025"/>
<polygon fill="midnightblue" stroke="midnightblue" points="2108.32,-29.0775 2112.97,-19.5616 2103.4,-24.0958 2108.32,-29.0775"/>
</g>
<!-- Node33&#45;&gt;Node34 -->
<g id="edge34" class="edge"><title>Node33&#45;&gt;Node34</title>
<path fill="none" stroke="midnightblue" d="M2053.38,-112.444C2072.22,-103.675 2101.73,-89.9355 2123.38,-79.8579"/>
<polygon fill="midnightblue" stroke="midnightblue" points="2125.12,-82.9098 2132.71,-75.5164 2122.16,-76.5637 2125.12,-82.9098"/>
</g>
<!-- Node34&#45;&gt;Node30 -->
<g id="edge35" class="edge"><title>Node34&#45;&gt;Node30</title>
<path fill="none" stroke="midnightblue" d="M2146.21,-56.083C2142.24,-48.6913 2136.47,-37.9533 2131.57,-28.8111"/>
<polygon fill="midnightblue" stroke="midnightblue" points="2134.51,-26.9051 2126.7,-19.7511 2128.35,-30.217 2134.51,-26.9051"/>
</g>
<!-- Node35&#45;&gt;Node30 -->
<g id="edge37" class="edge"><title>Node35&#45;&gt;Node30</title>
<path fill="none" stroke="midnightblue" d="M2102.31,-168.445C2103.1,-148.592 2105.65,-97.8886 2112,-56 2113.34,-47.1874 2115.4,-37.5254 2117.31,-29.4211"/>
<polygon fill="midnightblue" stroke="midnightblue" points="2120.75,-30.1074 2119.73,-19.5613 2113.95,-28.4385 2120.75,-30.1074"/>
</g>
<!-- Node35&#45;&gt;Node33 -->
<g id="edge39" class="edge"><title>Node35&#45;&gt;Node33</title>
<path fill="none" stroke="midnightblue" d="M2091.24,-168.324C2081.23,-160.263 2066.11,-148.077 2054.07,-138.369"/>
<polygon fill="midnightblue" stroke="midnightblue" points="2055.94,-135.384 2045.96,-131.834 2051.55,-140.834 2055.94,-135.384"/>
</g>
<!-- Node35&#45;&gt;Node34 -->
<g id="edge38" class="edge"><title>Node35&#45;&gt;Node34</title>
<path fill="none" stroke="midnightblue" d="M2105.84,-168.368C2113.82,-150.456 2132.33,-108.923 2143,-84.9482"/>
<polygon fill="midnightblue" stroke="midnightblue" points="2146.3,-86.1503 2147.17,-75.5914 2139.91,-83.3019 2146.3,-86.1503"/>
</g>
<!-- Node36&#45;&gt;Node22 -->
<g id="edge48" class="edge"><title>Node36&#45;&gt;Node22</title>
<path fill="none" stroke="midnightblue" d="M1975.27,-224.324C1964.16,-216.107 1947.26,-203.602 1934.02,-193.807"/>
<polygon fill="midnightblue" stroke="midnightblue" points="1936.06,-190.967 1925.94,-187.834 1931.9,-196.595 1936.06,-190.967"/>
</g>
<!-- Node36&#45;&gt;Node30 -->
<g id="edge41" class="edge"><title>Node36&#45;&gt;Node30</title>
<path fill="none" stroke="midnightblue" d="M1985.5,-224.201C1982.38,-203.397 1976.99,-150.069 1996,-112 2016.79,-70.3554 2063.62,-40.2452 2093.96,-24.2249"/>
<polygon fill="midnightblue" stroke="midnightblue" points="2095.86,-27.1842 2103.17,-19.5218 2092.68,-20.9489 2095.86,-27.1842"/>
</g>
<!-- Node36&#45;&gt;Node33 -->
<g id="edge46" class="edge"><title>Node36&#45;&gt;Node33</title>
<path fill="none" stroke="midnightblue" d="M1990.77,-224.368C1998.58,-206.456 2016.71,-164.923 2027.17,-140.948"/>
<polygon fill="midnightblue" stroke="midnightblue" points="2030.46,-142.157 2031.25,-131.591 2024.04,-139.357 2030.46,-142.157"/>
</g>
<!-- Node36&#45;&gt;Node35 -->
<g id="edge47" class="edge"><title>Node36&#45;&gt;Node35</title>
<path fill="none" stroke="midnightblue" d="M2005.22,-224.444C2023.9,-215.675 2053.16,-201.935 2074.62,-191.858"/>
<polygon fill="midnightblue" stroke="midnightblue" points="2076.3,-194.935 2083.86,-187.516 2073.32,-188.599 2076.3,-194.935"/>
</g>
<!-- Node36&#45;&gt;Node37 -->
<g id="edge42" class="edge"><title>Node36&#45;&gt;Node37</title>
<path fill="none" stroke="midnightblue" d="M1957.69,-224.444C1926.16,-215.241 1875.87,-200.562 1841.01,-190.388"/>
<polygon fill="midnightblue" stroke="midnightblue" points="1841.76,-186.959 1831.18,-187.516 1839.8,-193.678 1841.76,-186.959"/>
</g>
<!-- Node37&#45;&gt;Node11 -->
<g id="edge45" class="edge"><title>Node37&#45;&gt;Node11</title>
<path fill="none" stroke="midnightblue" d="M1796.22,-168.083C1791.33,-160.534 1784.17,-149.495 1778.17,-140.23"/>
<polygon fill="midnightblue" stroke="midnightblue" points="1781.05,-138.239 1772.67,-131.751 1775.17,-142.046 1781.05,-138.239"/>
</g>
<!-- Node37&#45;&gt;Node30 -->
<g id="edge43" class="edge"><title>Node37&#45;&gt;Node30</title>
<path fill="none" stroke="midnightblue" d="M1810.34,-168.213C1831.93,-145.995 1892.26,-87.1311 1954,-56 1999.74,-32.938 2058.63,-20.6803 2093.16,-15.0346"/>
<polygon fill="midnightblue" stroke="midnightblue" points="2094.12,-18.4265 2103.47,-13.4286 2093.05,-11.51 2094.12,-18.4265"/>
</g>
<!-- Node37&#45;&gt;Node33 -->
<g id="edge44" class="edge"><title>Node37&#45;&gt;Node33</title>
<path fill="none" stroke="midnightblue" d="M1831.51,-170.161C1872.95,-160.557 1948.51,-143.046 1994.98,-132.276"/>
<polygon fill="midnightblue" stroke="midnightblue" points="1996.04,-135.622 2004.99,-129.954 1994.46,-128.802 1996.04,-135.622"/>
</g>
<!-- Node38&#45;&gt;Node30 -->
<g id="edge52" class="edge"><title>Node38&#45;&gt;Node30</title>
<path fill="none" stroke="midnightblue" d="M2357.75,-58.3244C2304.46,-47.6286 2200.87,-26.8326 2150.66,-16.7529"/>
<polygon fill="midnightblue" stroke="midnightblue" points="2151.28,-13.3089 2140.79,-14.7722 2149.91,-20.172 2151.28,-13.3089"/>
</g>
<!-- Node39&#45;&gt;Node30 -->
<g id="edge54" class="edge"><title>Node39&#45;&gt;Node30</title>
<path fill="none" stroke="midnightblue" d="M2334.06,-168.212C2333.7,-145.99 2329.55,-87.1173 2297,-56 2257.17,-17.9226 2189.6,-10.913 2151.12,-10.2636"/>
<polygon fill="midnightblue" stroke="midnightblue" points="2150.64,-6.76233 2140.63,-10.2335 2150.62,-13.7623 2150.64,-6.76233"/>
</g>
<!-- Node39&#45;&gt;Node33 -->
<g id="edge55" class="edge"><title>Node39&#45;&gt;Node33</title>
<path fill="none" stroke="midnightblue" d="M2302.28,-171.272C2247.44,-161.368 2135.01,-141.063 2074.93,-130.212"/>
<polygon fill="midnightblue" stroke="midnightblue" points="2075.52,-126.761 2065.05,-128.428 2074.27,-133.65 2075.52,-126.761"/>
</g>
<!-- Node40&#45;&gt;Node30 -->
<g id="edge57" class="edge"><title>Node40&#45;&gt;Node30</title>
<path fill="none" stroke="midnightblue" d="M2134.15,-280.347C2156.26,-264.908 2200.13,-230.236 2217,-188 2230.04,-155.343 2266.21,-145.114 2207,-56 2194.02,-36.4593 2169.68,-24.8127 2150.36,-18.2813"/>
<polygon fill="midnightblue" stroke="midnightblue" points="2151.39,-14.9367 2140.81,-15.3173 2149.32,-21.6225 2151.39,-14.9367"/>
</g>
<!-- Node40&#45;&gt;Node35 -->
<g id="edge59" class="edge"><title>Node40&#45;&gt;Node35</title>
<path fill="none" stroke="midnightblue" d="M2119.51,-280.368C2116.44,-262.617 2109.37,-221.666 2105.21,-197.597"/>
<polygon fill="midnightblue" stroke="midnightblue" points="2108.64,-196.85 2103.48,-187.591 2101.74,-198.041 2108.64,-196.85"/>
</g>
<!-- Node40&#45;&gt;Node36 -->
<g id="edge58" class="edge"><title>Node40&#45;&gt;Node36</title>
<path fill="none" stroke="midnightblue" d="M2099.77,-280.444C2077.62,-271.517 2042.68,-257.439 2017.56,-247.317"/>
<polygon fill="midnightblue" stroke="midnightblue" points="2018.72,-244.008 2008.13,-243.516 2016.1,-250.501 2018.72,-244.008"/>
</g>
<!-- Node41&#45;&gt;Node30 -->
<g id="edge61" class="edge"><title>Node41&#45;&gt;Node30</title>
<path fill="none" stroke="midnightblue" d="M2182.83,-168.439C2191.48,-147.703 2210.27,-93.7188 2190,-56 2181.48,-40.1445 2164.65,-28.9382 2149.86,-21.6742"/>
<polygon fill="midnightblue" stroke="midnightblue" points="2151.11,-18.3943 2140.55,-17.4607 2148.22,-24.7719 2151.11,-18.3943"/>
</g>
<!-- Node41&#45;&gt;Node33 -->
<g id="edge63" class="edge"><title>Node41&#45;&gt;Node33</title>
<path fill="none" stroke="midnightblue" d="M2156.18,-168.444C2132.17,-159.438 2094.17,-145.189 2067.13,-135.049"/>
<polygon fill="midnightblue" stroke="midnightblue" points="2068.3,-131.751 2057.71,-131.516 2065.84,-138.305 2068.3,-131.751"/>
</g>
<!-- Node41&#45;&gt;Node34 -->
<g id="edge62" class="edge"><title>Node41&#45;&gt;Node34</title>
<path fill="none" stroke="midnightblue" d="M2176.8,-168.368C2172.28,-150.617 2161.86,-109.666 2155.73,-85.5974"/>
<polygon fill="midnightblue" stroke="midnightblue" points="2159.05,-84.419 2153.19,-75.5914 2152.26,-86.1458 2159.05,-84.419"/>
</g>
<!-- Node42&#45;&gt;Node30 -->
<g id="edge68" class="edge"><title>Node42&#45;&gt;Node30</title>
<path fill="none" stroke="midnightblue" d="M2454.79,-112.257C2453.93,-98.0648 2450.03,-70.1746 2433,-56 2390.41,-20.556 2219.6,-13.0277 2150.86,-11.43"/>
<polygon fill="midnightblue" stroke="midnightblue" points="2150.81,-7.9283 2140.74,-11.2211 2150.67,-14.9268 2150.81,-7.9283"/>
</g>
<!-- Node43&#45;&gt;Node13 -->
<g id="edge71" class="edge"><title>Node43&#45;&gt;Node13</title>
<path fill="none" stroke="midnightblue" d="M832.718,-280.444C811.033,-271.295 776.522,-256.736 752.424,-246.569"/>
<polygon fill="midnightblue" stroke="midnightblue" points="753.692,-243.306 743.118,-242.643 750.971,-249.755 753.692,-243.306"/>
</g>
<!-- Node43&#45;&gt;Node16 -->
<g id="edge73" class="edge"><title>Node43&#45;&gt;Node16</title>
<path fill="none" stroke="midnightblue" d="M864.889,-280.324C876.15,-272.107 893.287,-259.602 906.709,-249.807"/>
<polygon fill="midnightblue" stroke="midnightblue" points="908.88,-252.556 914.894,-243.834 904.753,-246.901 908.88,-252.556"/>
</g>
<!-- Node43&#45;&gt;Node17 -->
<g id="edge70" class="edge"><title>Node43&#45;&gt;Node17</title>
<path fill="none" stroke="midnightblue" d="M895.148,-280.444C948.945,-269.522 1040.73,-250.89 1088.33,-241.226"/>
<polygon fill="midnightblue" stroke="midnightblue" points="1089.24,-244.614 1098.34,-239.194 1087.84,-237.754 1089.24,-244.614"/>
</g>
<!-- Node43&#45;&gt;Node30 -->
<g id="edge72" class="edge"><title>Node43&#45;&gt;Node30</title>
<path fill="none" stroke="midnightblue" d="M854.7,-280.483C858.223,-262.056 866,-217.076 866,-179 866,-179 866,-179 866,-121 866,-57.2862 1905.21,-18.4685 2093.07,-11.972"/>
<polygon fill="midnightblue" stroke="midnightblue" points="2093.4,-15.463 2103.27,-11.6223 2093.16,-8.46711 2093.4,-15.463"/>
</g>
</g>
</svg>
