<?xml version="1.0" encoding="UTF-8" standalone="no"?>
<!DOCTYPE svg PUBLIC "-//W3C//DTD SVG 1.1//EN"
 "http://www.w3.org/Graphics/SVG/1.1/DTD/svg11.dtd">
<!-- Generated by graphviz version 2.38.0 (20140413.2041)
 -->
<!-- Title: SLRectangle.cpp Pages: 1 -->
<svg width="315pt" height="308pt"
 viewBox="0.00 0.00 314.50 308.00" xmlns="http://www.w3.org/2000/svg" xmlns:xlink="http://www.w3.org/1999/xlink">
<g id="graph0" class="graph" transform="scale(1 1) rotate(0) translate(4 304)">
<title>SLRectangle.cpp</title>
<polygon fill="white" stroke="none" points="-4,4 -4,-304 310.5,-304 310.5,4 -4,4"/>
<!-- Node1 -->
<g id="node1" class="node"><title>Node1</title>
<polygon fill="#bfbfbf" stroke="black" points="0,-280.5 0,-299.5 87,-299.5 87,-280.5 0,-280.5"/>
<text text-anchor="middle" x="43.5" y="-287.5" font-family="Arial.ttf" font-size="10.00">SLRectangle.cpp</text>
</g>
<!-- Node2 -->
<g id="node2" class="node"><title>Node2</title>
<polygon fill="white" stroke="#bfbfbf" points="80.5,-0.5 80.5,-19.5 130.5,-19.5 130.5,-0.5 80.5,-0.5"/>
<text text-anchor="middle" x="105.5" y="-7.5" font-family="Arial.ttf" font-size="10.00">stdafx.h</text>
</g>
<!-- Node1&#45;&gt;Node2 -->
<g id="edge1" class="edge"><title>Node1&#45;&gt;Node2</title>
<path fill="none" stroke="midnightblue" d="M39.0495,-280.424C30.0419,-262.244 10.5,-218.278 10.5,-179 10.5,-179 10.5,-179 10.5,-121 10.5,-77.7385 53.1084,-43.0862 81.2548,-24.9149"/>
<polygon fill="midnightblue" stroke="midnightblue" points="83.1613,-27.851 89.8127,-19.6042 79.4703,-21.9032 83.1613,-27.851"/>
</g>
<!-- Node3 -->
<g id="node3" class="node"><title>Node3</title>
<g id="a_node3"><a xlink:href="_s_l_rectangle_8h.html" target="_top" xlink:title="SLRectangle.h">
<polygon fill="white" stroke="black" points="39,-224.5 39,-243.5 116,-243.5 116,-224.5 39,-224.5"/>
<text text-anchor="middle" x="77.5" y="-231.5" font-family="Arial.ttf" font-size="10.00">SLRectangle.h</text>
</a>
</g>
</g>
<!-- Node1&#45;&gt;Node3 -->
<g id="edge2" class="edge"><title>Node1&#45;&gt;Node3</title>
<path fill="none" stroke="midnightblue" d="M49.1144,-280.083C53.8674,-272.534 60.8181,-261.495 66.6516,-252.23"/>
<polygon fill="midnightblue" stroke="midnightblue" points="69.6237,-254.078 71.9901,-243.751 63.7001,-250.349 69.6237,-254.078"/>
</g>
<!-- Node3&#45;&gt;Node2 -->
<g id="edge3" class="edge"><title>Node3&#45;&gt;Node2</title>
<path fill="none" stroke="midnightblue" d="M77.7564,-224.458C78.6372,-198.779 82.1409,-120.104 93.5,-56 95.0712,-47.1329 97.5466,-37.4638 99.842,-29.3689"/>
<polygon fill="midnightblue" stroke="midnightblue" points="103.272,-30.1116 102.759,-19.5292 96.561,-28.1221 103.272,-30.1116"/>
</g>
<!-- Node4 -->
<g id="node4" class="node"><title>Node4</title>
<g id="a_node4"><a xlink:href="_s_l_mesh_8h.html" target="_top" xlink:title="SLMesh.h">
<polygon fill="white" stroke="black" points="119.5,-168.5 119.5,-187.5 177.5,-187.5 177.5,-168.5 119.5,-168.5"/>
<text text-anchor="middle" x="148.5" y="-175.5" font-family="Arial.ttf" font-size="10.00">SLMesh.h</text>
</a>
</g>
</g>
<!-- Node3&#45;&gt;Node4 -->
<g id="edge4" class="edge"><title>Node3&#45;&gt;Node4</title>
<path fill="none" stroke="midnightblue" d="M88.9074,-224.324C99.6088,-216.185 115.841,-203.839 128.663,-194.087"/>
<polygon fill="midnightblue" stroke="midnightblue" points="131.044,-196.673 136.885,-187.834 126.807,-191.102 131.044,-196.673"/>
</g>
<!-- Node4&#45;&gt;Node2 -->
<g id="edge5" class="edge"><title>Node4&#45;&gt;Node2</title>
<path fill="none" stroke="midnightblue" d="M136.003,-168.302C125.626,-160.251 111.613,-147.245 105.5,-132 91.8668,-97.9989 96.807,-54.1745 101.343,-29.6866"/>
<polygon fill="midnightblue" stroke="midnightblue" points="104.826,-30.1202 103.392,-19.6229 97.967,-28.7234 104.826,-30.1202"/>
</g>
<!-- Node5 -->
<g id="node5" class="node"><title>Node5</title>
<g id="a_node5"><a xlink:href="_s_l_a_a_b_box_8h.html" target="_top" xlink:title="SLAABBox.h">
<polygon fill="white" stroke="black" points="114.5,-112.5 114.5,-131.5 182.5,-131.5 182.5,-112.5 114.5,-112.5"/>
<text text-anchor="middle" x="148.5" y="-119.5" font-family="Arial.ttf" font-size="10.00">SLAABBox.h</text>
</a>
</g>
</g>
<!-- Node4&#45;&gt;Node5 -->
<g id="edge6" class="edge"><title>Node4&#45;&gt;Node5</title>
<path fill="none" stroke="midnightblue" d="M148.5,-168.083C148.5,-161.006 148.5,-150.861 148.5,-141.986"/>
<polygon fill="midnightblue" stroke="midnightblue" points="152,-141.751 148.5,-131.751 145,-141.751 152,-141.751"/>
</g>
<!-- Node6 -->
<g id="node6" class="node"><title>Node6</title>
<g id="a_node6"><a xlink:href="_s_l_g_l_buffer_8h.html" target="_top" xlink:title="SLGLBuffer.h">
<polygon fill="white" stroke="black" points="153,-56.5 153,-75.5 224,-75.5 224,-56.5 153,-56.5"/>
<text text-anchor="middle" x="188.5" y="-63.5" font-family="Arial.ttf" font-size="10.00">SLGLBuffer.h</text>
</a>
</g>
</g>
<!-- Node4&#45;&gt;Node6 -->
<g id="edge10" class="edge"><title>Node4&#45;&gt;Node6</title>
<path fill="none" stroke="midnightblue" d="M160.997,-168.302C171.374,-160.251 185.387,-147.245 191.5,-132 197.412,-117.255 195.924,-99.0958 193.381,-85.7225"/>
<polygon fill="midnightblue" stroke="midnightblue" points="196.756,-84.7767 191.137,-75.7946 189.928,-86.3202 196.756,-84.7767"/>
</g>
<!-- Node7 -->
<g id="node7" class="node"><title>Node7</title>
<g id="a_node7"><a xlink:href="_s_l_enums_8h.html" target="_top" xlink:title="SLEnums.h">
<polygon fill="white" stroke="black" points="242.5,-56.5 242.5,-75.5 306.5,-75.5 306.5,-56.5 242.5,-56.5"/>
<text text-anchor="middle" x="274.5" y="-63.5" font-family="Arial.ttf" font-size="10.00">SLEnums.h</text>
</a>
</g>
</g>
<!-- Node4&#45;&gt;Node7 -->
<g id="edge11" class="edge"><title>Node4&#45;&gt;Node7</title>
<path fill="none" stroke="midnightblue" d="M160.579,-168.436C172.739,-159.665 191.881,-145.45 207.5,-132 225.978,-116.088 245.881,-96.4252 259.151,-82.9183"/>
<polygon fill="midnightblue" stroke="midnightblue" points="261.662,-85.3559 266.136,-75.7518 256.649,-80.47 261.662,-85.3559"/>
</g>
<!-- Node5&#45;&gt;Node2 -->
<g id="edge7" class="edge"><title>Node5&#45;&gt;Node2</title>
<path fill="none" stroke="midnightblue" d="M145.126,-112.368C138.124,-94.4563 121.888,-52.9233 112.516,-28.9482"/>
<polygon fill="midnightblue" stroke="midnightblue" points="115.759,-27.6308 108.858,-19.5914 109.24,-30.1794 115.759,-27.6308"/>
</g>
<!-- Node5&#45;&gt;Node6 -->
<g id="edge8" class="edge"><title>Node5&#45;&gt;Node6</title>
<path fill="none" stroke="midnightblue" d="M155.105,-112.083C160.755,-104.455 169.045,-93.2645 175.951,-83.9408"/>
<polygon fill="midnightblue" stroke="midnightblue" points="178.878,-85.87 182.018,-75.7511 173.253,-81.7034 178.878,-85.87"/>
</g>
<!-- Node6&#45;&gt;Node2 -->
<g id="edge9" class="edge"><title>Node6&#45;&gt;Node2</title>
<path fill="none" stroke="midnightblue" d="M175.165,-56.324C162.338,-47.979 142.715,-35.2122 127.56,-25.3524"/>
<polygon fill="midnightblue" stroke="midnightblue" points="129.093,-22.1742 118.802,-19.6545 125.276,-28.0417 129.093,-22.1742"/>
</g>
<!-- Node7&#45;&gt;Node2 -->
<g id="edge12" class="edge"><title>Node7&#45;&gt;Node2</title>
<path fill="none" stroke="midnightblue" d="M247.721,-56.4435C218.663,-47.1586 172.16,-32.2996 140.292,-22.117"/>
<polygon fill="midnightblue" stroke="midnightblue" points="141.091,-18.6981 130.5,-18.9883 138.961,-25.366 141.091,-18.6981"/>
</g>
</g>
</svg>
