<?xml version="1.0" encoding="UTF-8" standalone="no"?>
<!DOCTYPE svg PUBLIC "-//W3C//DTD SVG 1.1//EN"
 "http://www.w3.org/Graphics/SVG/1.1/DTD/svg11.dtd">
<!-- Generated by graphviz version 2.28.0 (20110507.0327)
 -->
<!-- Title: SLVec2.h Pages: 1 -->
<svg width="2662pt" height="588pt"
 viewBox="0.00 0.00 2662.00 588.00" xmlns="http://www.w3.org/2000/svg" xmlns:xlink="http://www.w3.org/1999/xlink">
<g id="graph1" class="graph" transform="scale(1 1) rotate(0) translate(4 584)">
<title>SLVec2.h</title>
<polygon fill="white" stroke="white" points="-4,5 -4,-584 2659,-584 2659,5 -4,5"/>
<!-- Node1 -->
<g id="node1" class="node"><title>Node1</title>
<polygon fill="#bfbfbf" stroke="black" points="2397,-560.5 2397,-579.5 2459,-579.5 2459,-560.5 2397,-560.5"/>
<text text-anchor="middle" x="2428" y="-567.5" font-family="Arial.ttf" font-size="10.00">SLVec2.h</text>
</g>
<!-- Node2 -->
<g id="node3" class="node"><title>Node2</title>
<a xlink:href="_s_l_vec3_8h.html" target="_top" xlink:title="SLVec3.h">
<polygon fill="white" stroke="black" points="2397,-504.5 2397,-523.5 2459,-523.5 2459,-504.5 2397,-504.5"/>
<text text-anchor="middle" x="2428" y="-511.5" font-family="Arial.ttf" font-size="10.00">SLVec3.h</text>
</a>
</g>
<!-- Node1&#45;&gt;Node2 -->
<g id="edge2" class="edge"><title>Node1&#45;&gt;Node2</title>
<path fill="none" stroke="midnightblue" d="M2428,-549.805C2428,-540.91 2428,-530.78 2428,-523.751"/>
<polygon fill="midnightblue" stroke="midnightblue" points="2424.5,-550.083 2428,-560.083 2431.5,-550.083 2424.5,-550.083"/>
</g>
<!-- Node3 -->
<g id="node5" class="node"><title>Node3</title>
<a xlink:href="_quaternion_test_8cpp.html" target="_top" xlink:title="QuaternionTest.cpp">
<polygon fill="white" stroke="black" points="2222,-280.5 2222,-299.5 2332,-299.5 2332,-280.5 2222,-280.5"/>
<text text-anchor="middle" x="2277" y="-287.5" font-family="Arial.ttf" font-size="10.00">QuaternionTest.cpp</text>
</a>
</g>
<!-- Node2&#45;&gt;Node3 -->
<g id="edge4" class="edge"><title>Node2&#45;&gt;Node3</title>
<path fill="none" stroke="midnightblue" d="M2416.52,-496.017C2400.68,-472.595 2371.22,-429.064 2346,-392 2322.7,-357.764 2294.86,-317.082 2282.92,-299.639"/>
<polygon fill="midnightblue" stroke="midnightblue" points="2413.74,-498.16 2422.24,-504.484 2419.54,-494.239 2413.74,-498.16"/>
</g>
<!-- Node4 -->
<g id="node7" class="node"><title>Node4</title>
<a xlink:href="_s_l_compact_grid_8h.html" target="_top" xlink:title="SLCompactGrid.h">
<polygon fill="white" stroke="black" points="2470.5,-448.5 2470.5,-467.5 2571.5,-467.5 2571.5,-448.5 2470.5,-448.5"/>
<text text-anchor="middle" x="2521" y="-455.5" font-family="Arial.ttf" font-size="10.00">SLCompactGrid.h</text>
</a>
</g>
<!-- Node2&#45;&gt;Node4 -->
<g id="edge6" class="edge"><title>Node2&#45;&gt;Node4</title>
<path fill="none" stroke="midnightblue" d="M2451.81,-499.177C2468.92,-489.241 2491.47,-476.149 2506.1,-467.655"/>
<polygon fill="midnightblue" stroke="midnightblue" points="2449.83,-496.276 2442.94,-504.324 2453.35,-502.329 2449.83,-496.276"/>
</g>
<!-- Node7 -->
<g id="node13" class="node"><title>Node7</title>
<a xlink:href="_s_l_curve_8h.html" target="_top" xlink:title="SLCurve.h">
<polygon fill="white" stroke="black" points="2395.5,-392.5 2395.5,-411.5 2460.5,-411.5 2460.5,-392.5 2395.5,-392.5"/>
<text text-anchor="middle" x="2428" y="-399.5" font-family="Arial.ttf" font-size="10.00">SLCurve.h</text>
</a>
</g>
<!-- Node2&#45;&gt;Node7 -->
<g id="edge12" class="edge"><title>Node2&#45;&gt;Node7</title>
<path fill="none" stroke="midnightblue" d="M2428,-494.348C2428,-470.254 2428,-429.308 2428,-411.591"/>
<polygon fill="midnightblue" stroke="midnightblue" points="2424.5,-494.368 2428,-504.368 2431.5,-494.369 2424.5,-494.368"/>
</g>
<!-- Node12 -->
<g id="node23" class="node"><title>Node12</title>
<a xlink:href="_s_l_plane_8h.html" target="_top" xlink:title="SLPlane.h">
<polygon fill="white" stroke="black" points="2590,-448.5 2590,-467.5 2654,-467.5 2654,-448.5 2590,-448.5"/>
<text text-anchor="middle" x="2622" y="-455.5" font-family="Arial.ttf" font-size="10.00">SLPlane.h</text>
</a>
</g>
<!-- Node2&#45;&gt;Node12 -->
<g id="edge22" class="edge"><title>Node2&#45;&gt;Node12</title>
<path fill="none" stroke="midnightblue" d="M2468.6,-501.699C2505.22,-491.507 2558.26,-476.743 2591.4,-467.516"/>
<polygon fill="midnightblue" stroke="midnightblue" points="2467.44,-498.39 2458.74,-504.444 2469.31,-505.134 2467.44,-498.39"/>
</g>
<!-- Node13 -->
<g id="node25" class="node"><title>Node13</title>
<a xlink:href="_s_l_vec4_8h.html" target="_top" xlink:title="SLVec4.h">
<polygon fill="white" stroke="black" points="2275,-448.5 2275,-467.5 2337,-467.5 2337,-448.5 2275,-448.5"/>
<text text-anchor="middle" x="2306" y="-455.5" font-family="Arial.ttf" font-size="10.00">SLVec4.h</text>
</a>
</g>
<!-- Node2&#45;&gt;Node13 -->
<g id="edge24" class="edge"><title>Node2&#45;&gt;Node13</title>
<path fill="none" stroke="midnightblue" d="M2399.46,-500.368C2376.61,-490.255 2345.19,-476.349 2325.24,-467.516"/>
<polygon fill="midnightblue" stroke="midnightblue" points="2398.11,-503.597 2408.67,-504.444 2400.94,-497.196 2398.11,-503.597"/>
</g>
<!-- Node5 -->
<g id="node9" class="node"><title>Node5</title>
<a xlink:href="_s_l_compact_grid_8cpp.html" target="_top" xlink:title="SLCompactGrid.cpp">
<polygon fill="white" stroke="black" points="2479,-392.5 2479,-411.5 2591,-411.5 2591,-392.5 2479,-392.5"/>
<text text-anchor="middle" x="2535" y="-399.5" font-family="Arial.ttf" font-size="10.00">SLCompactGrid.cpp</text>
</a>
</g>
<!-- Node4&#45;&gt;Node5 -->
<g id="edge8" class="edge"><title>Node4&#45;&gt;Node5</title>
<path fill="none" stroke="midnightblue" d="M2525.82,-438.396C2528.17,-429.362 2530.87,-418.936 2532.73,-411.751"/>
<polygon fill="midnightblue" stroke="midnightblue" points="2522.43,-437.525 2523.31,-448.083 2529.21,-439.281 2522.43,-437.525"/>
</g>
<!-- Node6 -->
<g id="node11" class="node"><title>Node6</title>
<a xlink:href="_s_l_mesh_8cpp.html" target="_top" xlink:title="SLMesh.cpp">
<polygon fill="white" stroke="black" points="2553,-0.5 2553,-19.5 2627,-19.5 2627,-0.5 2553,-0.5"/>
<text text-anchor="middle" x="2590" y="-7.5" font-family="Arial.ttf" font-size="10.00">SLMesh.cpp</text>
</a>
</g>
<!-- Node4&#45;&gt;Node6 -->
<g id="edge10" class="edge"><title>Node4&#45;&gt;Node6</title>
<path fill="none" stroke="midnightblue" d="M2553.8,-444.205C2569.45,-436.751 2587.45,-426.028 2600,-412 2620.97,-388.558 2628,-378.455 2628,-347 2628,-347 2628,-347 2628,-121 2628,-81.3989 2605.73,-37.957 2595.28,-19.769"/>
<polygon fill="midnightblue" stroke="midnightblue" points="2552.11,-441.127 2544.43,-448.424 2554.99,-447.51 2552.11,-441.127"/>
</g>
<!-- Node8 -->
<g id="node15" class="node"><title>Node8</title>
<a xlink:href="_s_l_curve_bezier_8h.html" target="_top" xlink:title="SLCurveBezier.h">
<polygon fill="white" stroke="black" points="2466.5,-112.5 2466.5,-131.5 2561.5,-131.5 2561.5,-112.5 2466.5,-112.5"/>
<text text-anchor="middle" x="2514" y="-119.5" font-family="Arial.ttf" font-size="10.00">SLCurveBezier.h</text>
</a>
</g>
<!-- Node7&#45;&gt;Node8 -->
<g id="edge14" class="edge"><title>Node7&#45;&gt;Node8</title>
<path fill="none" stroke="midnightblue" d="M2454.61,-387.311C2467.4,-379.595 2482.07,-368.907 2492,-356 2510.78,-331.594 2516,-321.795 2516,-291 2516,-291 2516,-291 2516,-233 2516,-195.181 2514.8,-150.061 2514.26,-131.557"/>
<polygon fill="midnightblue" stroke="midnightblue" points="2452.67,-384.39 2445.73,-392.394 2456.15,-390.466 2452.67,-384.39"/>
</g>
<!-- Node9 -->
<g id="node17" class="node"><title>Node9</title>
<a xlink:href="_s_l_curve_bezier_8cpp.html" target="_top" xlink:title="SLCurveBezier.cpp">
<polygon fill="white" stroke="black" points="2416.5,-56.5 2416.5,-75.5 2523.5,-75.5 2523.5,-56.5 2416.5,-56.5"/>
<text text-anchor="middle" x="2470" y="-63.5" font-family="Arial.ttf" font-size="10.00">SLCurveBezier.cpp</text>
</a>
</g>
<!-- Node8&#45;&gt;Node9 -->
<g id="edge16" class="edge"><title>Node8&#45;&gt;Node9</title>
<path fill="none" stroke="midnightblue" d="M2500.27,-104.144C2492.6,-94.7357 2483.37,-83.4046 2477.13,-75.7511"/>
<polygon fill="midnightblue" stroke="midnightblue" points="2497.7,-106.541 2506.73,-112.083 2503.13,-102.12 2497.7,-106.541"/>
</g>
<!-- Node10 -->
<g id="node19" class="node"><title>Node10</title>
<a xlink:href="_s_l_animation_8cpp.html" target="_top" xlink:title="SLAnimation.cpp">
<polygon fill="white" stroke="black" points="2300,-56.5 2300,-75.5 2398,-75.5 2398,-56.5 2300,-56.5"/>
<text text-anchor="middle" x="2349" y="-63.5" font-family="Arial.ttf" font-size="10.00">SLAnimation.cpp</text>
</a>
</g>
<!-- Node8&#45;&gt;Node10 -->
<g id="edge18" class="edge"><title>Node8&#45;&gt;Node10</title>
<path fill="none" stroke="midnightblue" d="M2478.26,-109.304C2447.17,-99.1294 2402.85,-84.6246 2375.02,-75.5164"/>
<polygon fill="midnightblue" stroke="midnightblue" points="2477.26,-112.659 2487.86,-112.444 2479.44,-106.007 2477.26,-112.659"/>
</g>
<!-- Node11 -->
<g id="node21" class="node"><title>Node11</title>
<a xlink:href="_s_l_anim_track_8cpp.html" target="_top" xlink:title="SLAnimTrack.cpp">
<polygon fill="white" stroke="black" points="2317.5,-0.5 2317.5,-19.5 2416.5,-19.5 2416.5,-0.5 2317.5,-0.5"/>
<text text-anchor="middle" x="2367" y="-7.5" font-family="Arial.ttf" font-size="10.00">SLAnimTrack.cpp</text>
</a>
</g>
<!-- Node8&#45;&gt;Node11 -->
<g id="edge20" class="edge"><title>Node8&#45;&gt;Node11</title>
<path fill="none" stroke="midnightblue" d="M2526.55,-103.373C2534.87,-89.3121 2542.51,-69.7606 2532,-56 2517.99,-37.6537 2460.12,-24.9921 2416.84,-17.8781"/>
<polygon fill="midnightblue" stroke="midnightblue" points="2523.39,-101.798 2520.89,-112.092 2529.27,-105.61 2523.39,-101.798"/>
</g>
<!-- Node14 -->
<g id="node27" class="node"><title>Node14</title>
<a xlink:href="_s_l_mat4_8h.html" target="_top" xlink:title="SLMat4.h">
<polygon fill="white" stroke="black" points="2275,-392.5 2275,-411.5 2337,-411.5 2337,-392.5 2275,-392.5"/>
<text text-anchor="middle" x="2306" y="-399.5" font-family="Arial.ttf" font-size="10.00">SLMat4.h</text>
</a>
</g>
<!-- Node13&#45;&gt;Node14 -->
<g id="edge26" class="edge"><title>Node13&#45;&gt;Node14</title>
<path fill="none" stroke="midnightblue" d="M2306,-437.805C2306,-428.91 2306,-418.78 2306,-411.751"/>
<polygon fill="midnightblue" stroke="midnightblue" points="2302.5,-438.083 2306,-448.083 2309.5,-438.083 2302.5,-438.083"/>
</g>
<!-- Node15 -->
<g id="node31" class="node"><title>Node15</title>
<a xlink:href="_s_l_quat4_8h.html" target="_top" xlink:title="SLQuat4.h">
<polygon fill="white" stroke="black" points="2213.5,-336.5 2213.5,-355.5 2280.5,-355.5 2280.5,-336.5 2213.5,-336.5"/>
<text text-anchor="middle" x="2247" y="-343.5" font-family="Arial.ttf" font-size="10.00">SLQuat4.h</text>
</a>
</g>
<!-- Node13&#45;&gt;Node15 -->
<g id="edge154" class="edge"><title>Node13&#45;&gt;Node15</title>
<path fill="none" stroke="midnightblue" d="M2288.67,-441.07C2280.79,-433.019 2271.92,-422.7 2266,-412 2255.75,-393.484 2250.52,-368.871 2248.32,-355.889"/>
<polygon fill="midnightblue" stroke="midnightblue" points="2286.47,-443.818 2296.07,-448.296 2291.36,-438.807 2286.47,-443.818"/>
</g>
<!-- Node14&#45;&gt;Node3 -->
<g id="edge28" class="edge"><title>Node14&#45;&gt;Node3</title>
<path fill="none" stroke="midnightblue" d="M2301.09,-382.128C2297.71,-369.151 2293.1,-351.526 2289,-336 2285.66,-323.336 2281.74,-308.679 2279.31,-299.624"/>
<polygon fill="midnightblue" stroke="midnightblue" points="2297.8,-383.37 2303.7,-392.165 2304.57,-381.606 2297.8,-383.37"/>
</g>
<!-- Node14&#45;&gt;Node8 -->
<g id="edge30" class="edge"><title>Node14&#45;&gt;Node8</title>
<path fill="none" stroke="midnightblue" d="M2347.1,-393.374C2386.52,-385.282 2442.3,-371.536 2458,-356 2479.49,-334.742 2478,-321.225 2478,-291 2478,-291 2478,-291 2478,-233 2478,-193.415 2499.32,-149.614 2509.14,-131.527"/>
<polygon fill="midnightblue" stroke="midnightblue" points="2346.33,-389.959 2337.22,-395.356 2347.71,-396.822 2346.33,-389.959"/>
</g>
<!-- Node14&#45;&gt;Node15 -->
<g id="edge32" class="edge"><title>Node14&#45;&gt;Node15</title>
<path fill="none" stroke="midnightblue" d="M2289.11,-385.537C2278.59,-375.909 2265.43,-363.869 2256.65,-355.834"/>
<polygon fill="midnightblue" stroke="midnightblue" points="2286.78,-388.154 2296.52,-392.324 2291.51,-382.99 2286.78,-388.154"/>
</g>
<!-- Node16 -->
<g id="node34" class="node"><title>Node16</title>
<a xlink:href="_s_l_stack_8h.html" target="_top" xlink:title="SLStack.h">
<polygon fill="white" stroke="black" points="2384.5,-336.5 2384.5,-355.5 2449.5,-355.5 2449.5,-336.5 2384.5,-336.5"/>
<text text-anchor="middle" x="2417" y="-343.5" font-family="Arial.ttf" font-size="10.00">SLStack.h</text>
</a>
</g>
<!-- Node14&#45;&gt;Node16 -->
<g id="edge36" class="edge"><title>Node14&#45;&gt;Node16</title>
<path fill="none" stroke="midnightblue" d="M2333.01,-387.862C2353.59,-377.849 2381.34,-364.346 2399.21,-355.655"/>
<polygon fill="midnightblue" stroke="midnightblue" points="2331.3,-384.802 2323.83,-392.324 2334.36,-391.097 2331.3,-384.802"/>
</g>
<!-- Node15&#45;&gt;Node3 -->
<g id="edge34" class="edge"><title>Node15&#45;&gt;Node3</title>
<path fill="none" stroke="midnightblue" d="M2256.85,-327.275C2261.97,-318.045 2268.02,-307.17 2272.14,-299.751"/>
<polygon fill="midnightblue" stroke="midnightblue" points="2253.75,-325.642 2251.95,-336.083 2259.87,-329.041 2253.75,-325.642"/>
</g>
<!-- Node17 -->
<g id="node36" class="node"><title>Node17</title>
<a xlink:href="_s_l_g_l_state_8h.html" target="_top" xlink:title="SLGLState.h">
<polygon fill="white" stroke="black" points="2350.5,-280.5 2350.5,-299.5 2427.5,-299.5 2427.5,-280.5 2350.5,-280.5"/>
<text text-anchor="middle" x="2389" y="-287.5" font-family="Arial.ttf" font-size="10.00">SLGLState.h</text>
</a>
</g>
<!-- Node16&#45;&gt;Node17 -->
<g id="edge38" class="edge"><title>Node16&#45;&gt;Node17</title>
<path fill="none" stroke="midnightblue" d="M2407.66,-326.983C2402.91,-317.817 2397.34,-307.092 2393.54,-299.751"/>
<polygon fill="midnightblue" stroke="midnightblue" points="2404.67,-328.817 2412.38,-336.083 2410.88,-325.594 2404.67,-328.817"/>
</g>
<!-- Node17&#45;&gt;Node9 -->
<g id="edge40" class="edge"><title>Node17&#45;&gt;Node9</title>
<path fill="none" stroke="midnightblue" d="M2402.97,-272.369C2409.22,-264.238 2416.24,-254.053 2421,-244 2447.02,-189.04 2440.56,-170.545 2457,-112 2460.56,-99.3167 2464.82,-84.6654 2467.47,-75.6159"/>
<polygon fill="midnightblue" stroke="midnightblue" points="2400.15,-270.291 2396.63,-280.284 2405.61,-274.668 2400.15,-270.291"/>
</g>
<!-- Node18 -->
<g id="node39" class="node"><title>Node18</title>
<a xlink:href="_s_l_g_l_state_8cpp.html" target="_top" xlink:title="SLGLState.cpp">
<polygon fill="white" stroke="black" points="2324,-224.5 2324,-243.5 2412,-243.5 2412,-224.5 2324,-224.5"/>
<text text-anchor="middle" x="2368" y="-231.5" font-family="Arial.ttf" font-size="10.00">SLGLState.cpp</text>
</a>
</g>
<!-- Node17&#45;&gt;Node18 -->
<g id="edge42" class="edge"><title>Node17&#45;&gt;Node18</title>
<path fill="none" stroke="midnightblue" d="M2381.88,-270.69C2378.34,-261.589 2374.23,-251.014 2371.4,-243.751"/>
<polygon fill="midnightblue" stroke="midnightblue" points="2378.65,-272.032 2385.53,-280.083 2385.17,-269.494 2378.65,-272.032"/>
</g>
<!-- Node19 -->
<g id="node41" class="node"><title>Node19</title>
<a xlink:href="_s_l_text_8cpp.html" target="_top" xlink:title="SLText.cpp">
<polygon fill="white" stroke="black" points="424.5,-56.5 424.5,-75.5 493.5,-75.5 493.5,-56.5 424.5,-56.5"/>
<text text-anchor="middle" x="459" y="-63.5" font-family="Arial.ttf" font-size="10.00">SLText.cpp</text>
</a>
</g>
<!-- Node17&#45;&gt;Node19 -->
<g id="edge44" class="edge"><title>Node17&#45;&gt;Node19</title>
<path fill="none" stroke="midnightblue" d="M2340.32,-280.176C1884.28,-236.087 784.088,-306.09 349,-244 255.073,-230.596 200.621,-263.377 143,-188 68.1668,-90.108 328.095,-71.4002 424.457,-67.8357"/>
<polygon fill="midnightblue" stroke="midnightblue" points="2340.01,-283.662 2350.31,-281.171 2340.7,-276.697 2340.01,-283.662"/>
</g>
<!-- Node20 -->
<g id="node43" class="node"><title>Node20</title>
<a xlink:href="_s_l_camera_8h.html" target="_top" xlink:title="SLCamera.h">
<polygon fill="white" stroke="black" points="358,-224.5 358,-243.5 434,-243.5 434,-224.5 358,-224.5"/>
<text text-anchor="middle" x="396" y="-231.5" font-family="Arial.ttf" font-size="10.00">SLCamera.h</text>
</a>
</g>
<!-- Node17&#45;&gt;Node20 -->
<g id="edge46" class="edge"><title>Node17&#45;&gt;Node20</title>
<path fill="none" stroke="midnightblue" d="M2340.2,-280.151C1930.36,-239.19 669.935,-235.399 434.188,-235.038"/>
<polygon fill="midnightblue" stroke="midnightblue" points="2340,-283.65 2350.31,-281.188 2340.72,-276.686 2340,-283.65"/>
</g>
<!-- Node20&#45;&gt;Node6 -->
<g id="edge52" class="edge"><title>Node20&#45;&gt;Node6</title>
<path fill="none" stroke="midnightblue" d="M444.329,-232.676C729.388,-230.664 2185.45,-218.93 2382,-188 2468.12,-174.448 2512.35,-197.398 2570,-132 2598.86,-99.2583 2594.33,-41.3632 2591.37,-19.595"/>
<polygon fill="midnightblue" stroke="midnightblue" points="444.277,-229.176 434.302,-232.746 444.326,-236.176 444.277,-229.176"/>
</g>
<!-- Node21 -->
<g id="node45" class="node"><title>Node21</title>
<a xlink:href="_s_l_button_8cpp.html" target="_top" xlink:title="SLButton.cpp">
<polygon fill="white" stroke="black" points="2292.5,-168.5 2292.5,-187.5 2373.5,-187.5 2373.5,-168.5 2292.5,-168.5"/>
<text text-anchor="middle" x="2333" y="-175.5" font-family="Arial.ttf" font-size="10.00">SLButton.cpp</text>
</a>
</g>
<!-- Node20&#45;&gt;Node21 -->
<g id="edge48" class="edge"><title>Node20&#45;&gt;Node21</title>
<path fill="none" stroke="midnightblue" d="M444.17,-232.752C700.486,-231.293 1906.48,-222.671 2278,-188 2282.62,-187.568 2287.45,-186.982 2292.23,-186.315"/>
<polygon fill="midnightblue" stroke="midnightblue" points="444.043,-229.252 434.063,-232.808 444.083,-236.252 444.043,-229.252"/>
</g>
<!-- Node22 -->
<g id="node47" class="node"><title>Node22</title>
<a xlink:href="_s_l_camera_8cpp.html" target="_top" xlink:title="SLCamera.cpp">
<polygon fill="white" stroke="black" points="124.5,-0.5 124.5,-19.5 211.5,-19.5 211.5,-0.5 124.5,-0.5"/>
<text text-anchor="middle" x="168" y="-7.5" font-family="Arial.ttf" font-size="10.00">SLCamera.cpp</text>
</a>
</g>
<!-- Node20&#45;&gt;Node22 -->
<g id="edge50" class="edge"><title>Node20&#45;&gt;Node22</title>
<path fill="none" stroke="midnightblue" d="M347.72,-231.526C281.727,-228.378 168.598,-218.553 143,-188 100.348,-137.093 146.475,-47.61 162.758,-19.6187"/>
<polygon fill="midnightblue" stroke="midnightblue" points="347.741,-235.03 357.886,-231.976 348.051,-228.037 347.741,-235.03"/>
</g>
<!-- Node23 -->
<g id="node50" class="node"><title>Node23</title>
<a xlink:href="_s_l_node_8cpp.html" target="_top" xlink:title="SLNode.cpp">
<polygon fill="white" stroke="black" points="230,-0.5 230,-19.5 304,-19.5 304,-0.5 230,-0.5"/>
<text text-anchor="middle" x="267" y="-7.5" font-family="Arial.ttf" font-size="10.00">SLNode.cpp</text>
</a>
</g>
<!-- Node20&#45;&gt;Node23 -->
<g id="edge54" class="edge"><title>Node20&#45;&gt;Node23</title>
<path fill="none" stroke="midnightblue" d="M369.378,-219.318C356.587,-211.604 341.92,-200.916 332,-188 289.527,-132.701 272.734,-46.8903 268.291,-19.6233"/>
<polygon fill="midnightblue" stroke="midnightblue" points="367.847,-222.475 378.265,-224.399 371.321,-216.398 367.847,-222.475"/>
</g>
<!-- Node24 -->
<g id="node52" class="node"><title>Node24</title>
<a xlink:href="_s_l_pathtracer_8cpp.html" target="_top" xlink:title="SLPathtracer.cpp">
<polygon fill="white" stroke="black" points="322.5,-0.5 322.5,-19.5 421.5,-19.5 421.5,-0.5 322.5,-0.5"/>
<text text-anchor="middle" x="372" y="-7.5" font-family="Arial.ttf" font-size="10.00">SLPathtracer.cpp</text>
</a>
</g>
<!-- Node20&#45;&gt;Node24 -->
<g id="edge56" class="edge"><title>Node20&#45;&gt;Node24</title>
<path fill="none" stroke="midnightblue" d="M371.631,-218.726C361.052,-211.089 349.777,-200.64 344,-188 319.612,-134.643 327.883,-112.409 344,-56 347.994,-42.0212 357.724,-28.156 364.588,-19.5891"/>
<polygon fill="midnightblue" stroke="midnightblue" points="369.958,-221.818 380.217,-224.467 373.849,-215.999 369.958,-221.818"/>
</g>
<!-- Node25 -->
<g id="node54" class="node"><title>Node25</title>
<a xlink:href="_s_l_raytracer_8cpp.html" target="_top" xlink:title="SLRaytracer.cpp">
<polygon fill="white" stroke="black" points="439.5,-0.5 439.5,-19.5 534.5,-19.5 534.5,-0.5 439.5,-0.5"/>
<text text-anchor="middle" x="487" y="-7.5" font-family="Arial.ttf" font-size="10.00">SLRaytracer.cpp</text>
</a>
</g>
<!-- Node20&#45;&gt;Node25 -->
<g id="edge58" class="edge"><title>Node20&#45;&gt;Node25</title>
<path fill="none" stroke="midnightblue" d="M387.748,-214.715C373.635,-180.423 349.386,-105.461 382,-56 394.828,-36.5453 418.001,-25.4694 439.319,-19.1793"/>
<polygon fill="midnightblue" stroke="midnightblue" points="384.72,-216.534 391.888,-224.336 391.15,-213.767 384.72,-216.534"/>
</g>
<!-- Node26 -->
<g id="node56" class="node"><title>Node26</title>
<a xlink:href="_s_l_scene_8cpp.html" target="_top" xlink:title="SLScene.cpp">
<polygon fill="white" stroke="black" points="552.5,-0.5 552.5,-19.5 631.5,-19.5 631.5,-0.5 552.5,-0.5"/>
<text text-anchor="middle" x="592" y="-7.5" font-family="Arial.ttf" font-size="10.00">SLScene.cpp</text>
</a>
</g>
<!-- Node20&#45;&gt;Node26 -->
<g id="edge60" class="edge"><title>Node20&#45;&gt;Node26</title>
<path fill="none" stroke="midnightblue" d="M391.796,-214.361C384.976,-178.864 375.901,-101.088 415,-56 424.062,-45.5499 503.01,-28.4377 552.359,-18.6012"/>
<polygon fill="midnightblue" stroke="midnightblue" points="388.402,-215.229 393.868,-224.305 395.255,-213.802 388.402,-215.229"/>
</g>
<!-- Node27 -->
<g id="node58" class="node"><title>Node27</title>
<a xlink:href="_s_l_scene__on_load_8cpp.html" target="_top" xlink:title="SLScene_onLoad.cpp">
<polygon fill="white" stroke="black" points="2062.5,-0.5 2062.5,-19.5 2181.5,-19.5 2181.5,-0.5 2062.5,-0.5"/>
<text text-anchor="middle" x="2122" y="-7.5" font-family="Arial.ttf" font-size="10.00">SLScene_onLoad.cpp</text>
</a>
</g>
<!-- Node20&#45;&gt;Node27 -->
<g id="edge62" class="edge"><title>Node20&#45;&gt;Node27</title>
<path fill="none" stroke="midnightblue" d="M444.265,-232.807C724.103,-231.192 2130.1,-216.11 2253,-76 2278.95,-46.4156 2225.45,-28.8276 2179.2,-19.5545"/>
<polygon fill="midnightblue" stroke="midnightblue" points="444.014,-229.309 434.033,-232.863 444.052,-236.308 444.014,-229.309"/>
</g>
<!-- Node28 -->
<g id="node60" class="node"><title>Node28</title>
<a xlink:href="_s_l_scene_view_8cpp.html" target="_top" xlink:title="SLSceneView.cpp">
<polygon fill="white" stroke="black" points="152.5,-168.5 152.5,-187.5 253.5,-187.5 253.5,-168.5 152.5,-168.5"/>
<text text-anchor="middle" x="203" y="-175.5" font-family="Arial.ttf" font-size="10.00">SLSceneView.cpp</text>
</a>
</g>
<!-- Node20&#45;&gt;Node28 -->
<g id="edge64" class="edge"><title>Node20&#45;&gt;Node28</title>
<path fill="none" stroke="midnightblue" d="M355.608,-221.699C319.183,-211.507 266.414,-196.743 233.438,-187.516"/>
<polygon fill="midnightblue" stroke="midnightblue" points="354.845,-225.12 365.419,-224.444 356.731,-218.378 354.845,-225.12"/>
</g>
<!-- Node29 -->
<g id="node62" class="node"><title>Node29</title>
<a xlink:href="_s_l_uniform_grid_8cpp.html" target="_top" xlink:title="SLUniformGrid.cpp">
<polygon fill="white" stroke="black" points="-0.5,-0.5 -0.5,-19.5 106.5,-19.5 106.5,-0.5 -0.5,-0.5"/>
<text text-anchor="middle" x="53" y="-7.5" font-family="Arial.ttf" font-size="10.00">SLUniformGrid.cpp</text>
</a>
</g>
<!-- Node20&#45;&gt;Node29 -->
<g id="edge66" class="edge"><title>Node20&#45;&gt;Node29</title>
<path fill="none" stroke="midnightblue" d="M347.987,-230.413C280.297,-225.868 161.332,-214.309 128,-188 71.6766,-143.544 57.0586,-48.9155 53.821,-19.745"/>
<polygon fill="midnightblue" stroke="midnightblue" points="347.783,-233.907 357.988,-231.059 348.234,-226.922 347.783,-233.907"/>
</g>
<!-- Node30 -->
<g id="node64" class="node"><title>Node30</title>
<a xlink:href="_s_l_g_l_oculus_8h.html" target="_top" xlink:title="SLGLOculus.h">
<polygon fill="white" stroke="black" points="1309.5,-168.5 1309.5,-187.5 1392.5,-187.5 1392.5,-168.5 1309.5,-168.5"/>
<text text-anchor="middle" x="1351" y="-175.5" font-family="Arial.ttf" font-size="10.00">SLGLOculus.h</text>
</a>
</g>
<!-- Node20&#45;&gt;Node30 -->
<g id="edge68" class="edge"><title>Node20&#45;&gt;Node30</title>
<path fill="none" stroke="midnightblue" d="M444.4,-230.263C610.311,-220.882 1154.35,-190.12 1309.41,-181.352"/>
<polygon fill="midnightblue" stroke="midnightblue" points="443.813,-226.791 434.026,-230.85 444.208,-233.78 443.813,-226.791"/>
</g>
<!-- Node50 -->
<g id="node124" class="node"><title>Node50</title>
<a xlink:href="_s_l_g_l_oculus_f_b_8h.html" target="_top" xlink:title="SLGLOculusFB.h">
<polygon fill="white" stroke="black" points="517.5,-112.5 517.5,-131.5 612.5,-131.5 612.5,-112.5 517.5,-112.5"/>
<text text-anchor="middle" x="565" y="-119.5" font-family="Arial.ttf" font-size="10.00">SLGLOculusFB.h</text>
</a>
</g>
<!-- Node20&#45;&gt;Node50 -->
<g id="edge148" class="edge"><title>Node20&#45;&gt;Node50</title>
<path fill="none" stroke="midnightblue" d="M417.948,-218.714C453.56,-195.535 522.857,-150.43 551.8,-131.591"/>
<polygon fill="midnightblue" stroke="midnightblue" points="415.733,-215.98 409.261,-224.368 419.552,-221.847 415.733,-215.98"/>
</g>
<!-- Node31 -->
<g id="node66" class="node"><title>Node31</title>
<a xlink:href="_s_l_g_l_oculus_8cpp.html" target="_top" xlink:title="SLGLOculus.cpp">
<polygon fill="white" stroke="black" points="2150,-56.5 2150,-75.5 2244,-75.5 2244,-56.5 2150,-56.5"/>
<text text-anchor="middle" x="2197" y="-63.5" font-family="Arial.ttf" font-size="10.00">SLGLOculus.cpp</text>
</a>
</g>
<!-- Node30&#45;&gt;Node31 -->
<g id="edge70" class="edge"><title>Node30&#45;&gt;Node31</title>
<path fill="none" stroke="midnightblue" d="M1402.72,-170.275C1555.49,-150.412 2003.17,-92.2024 2149.86,-73.1292"/>
<polygon fill="midnightblue" stroke="midnightblue" points="1402.13,-166.822 1392.66,-171.583 1403.03,-173.764 1402.13,-166.822"/>
</g>
<!-- Node32 -->
<g id="node68" class="node"><title>Node32</title>
<a xlink:href="_s_l_scene_8h.html" target="_top" xlink:title="SLScene.h">
<polygon fill="white" stroke="black" points="1317,-112.5 1317,-131.5 1385,-131.5 1385,-112.5 1317,-112.5"/>
<text text-anchor="middle" x="1351" y="-119.5" font-family="Arial.ttf" font-size="10.00">SLScene.h</text>
</a>
</g>
<!-- Node30&#45;&gt;Node32 -->
<g id="edge72" class="edge"><title>Node30&#45;&gt;Node32</title>
<path fill="none" stroke="midnightblue" d="M1351,-157.805C1351,-148.91 1351,-138.78 1351,-131.751"/>
<polygon fill="midnightblue" stroke="midnightblue" points="1347.5,-158.083 1351,-168.083 1354.5,-158.083 1347.5,-158.083"/>
</g>
<!-- Node32&#45;&gt;Node9 -->
<g id="edge74" class="edge"><title>Node32&#45;&gt;Node9</title>
<path fill="none" stroke="midnightblue" d="M1395.58,-120.683C1541.23,-119.307 2016.17,-112.154 2407,-76 2410.08,-75.715 2413.24,-75.3848 2416.43,-75.0225"/>
<polygon fill="midnightblue" stroke="midnightblue" points="1395.24,-117.185 1385.27,-120.775 1395.3,-124.185 1395.24,-117.185"/>
</g>
<!-- Node32&#45;&gt;Node10 -->
<g id="edge84" class="edge"><title>Node32&#45;&gt;Node10</title>
<path fill="none" stroke="midnightblue" d="M1395.07,-119.483C1525.94,-114.833 1923.72,-99.6371 2253,-76 2268.19,-74.9093 2284.72,-73.4568 2299.7,-72.0375"/>
<polygon fill="midnightblue" stroke="midnightblue" points="1394.9,-115.987 1385.03,-119.838 1395.14,-122.983 1394.9,-115.987"/>
</g>
<!-- Node32&#45;&gt;Node19 -->
<g id="edge114" class="edge"><title>Node32&#45;&gt;Node19</title>
<path fill="none" stroke="midnightblue" d="M1306.87,-120.966C1180.86,-120.373 808.808,-115.169 503,-76 499.906,-75.6038 496.705,-75.1116 493.506,-74.5632"/>
<polygon fill="midnightblue" stroke="midnightblue" points="1306.89,-124.466 1316.91,-121.006 1306.92,-117.466 1306.89,-124.466"/>
</g>
<!-- Node32&#45;&gt;Node26 -->
<g id="edge108" class="edge"><title>Node32&#45;&gt;Node26</title>
<path fill="none" stroke="midnightblue" d="M1306.7,-119.763C1164.28,-115.557 723.939,-100.676 665,-76 635.572,-63.6795 609.997,-34.3998 598.487,-19.7143"/>
<polygon fill="midnightblue" stroke="midnightblue" points="1306.73,-123.265 1316.82,-120.059 1306.93,-116.268 1306.73,-123.265"/>
</g>
<!-- Node32&#45;&gt;Node27 -->
<g id="edge110" class="edge"><title>Node32&#45;&gt;Node27</title>
<path fill="none" stroke="midnightblue" d="M1395.55,-119.741C1552.98,-115.112 2075.23,-98.1426 2103,-76 2120.1,-62.3674 2122.38,-34.2316 2122.35,-19.8642"/>
<polygon fill="midnightblue" stroke="midnightblue" points="1395.18,-116.251 1385.28,-120.041 1395.38,-123.248 1395.18,-116.251"/>
</g>
<!-- Node32&#45;&gt;Node31 -->
<g id="edge90" class="edge"><title>Node32&#45;&gt;Node31</title>
<path fill="none" stroke="midnightblue" d="M1395.37,-119.844C1515.13,-116.423 1854.89,-104.737 2136,-76 2140.47,-75.5428 2145.12,-74.9933 2149.76,-74.3942"/>
<polygon fill="midnightblue" stroke="midnightblue" points="1395.03,-116.352 1385.13,-120.131 1395.23,-123.349 1395.03,-116.352"/>
</g>
<!-- Node33 -->
<g id="node71" class="node"><title>Node33</title>
<a xlink:href="_s_l_assimp_importer_8cpp.html" target="_top" xlink:title="SLAssimpImporter.cpp">
<polygon fill="white" stroke="black" points="896.5,-56.5 896.5,-75.5 1021.5,-75.5 1021.5,-56.5 896.5,-56.5"/>
<text text-anchor="middle" x="959" y="-63.5" font-family="Arial.ttf" font-size="10.00">SLAssimpImporter.cpp</text>
</a>
</g>
<!-- Node32&#45;&gt;Node33 -->
<g id="edge76" class="edge"><title>Node32&#45;&gt;Node33</title>
<path fill="none" stroke="midnightblue" d="M1306.67,-114.893C1236.74,-105.26 1100.61,-86.5078 1021.02,-75.5435"/>
<polygon fill="midnightblue" stroke="midnightblue" points="1306.51,-118.405 1316.9,-116.302 1307.47,-111.47 1306.51,-118.405"/>
</g>
<!-- Node34 -->
<g id="node73" class="node"><title>Node34</title>
<a xlink:href="_s_l_interface_8cpp.html" target="_top" xlink:title="SLProject C&#45;functions interface implementation.">
<polygon fill="white" stroke="black" points="988.5,-0.5 988.5,-19.5 1079.5,-19.5 1079.5,-0.5 988.5,-0.5"/>
<text text-anchor="middle" x="1034" y="-7.5" font-family="Arial.ttf" font-size="10.00">SLInterface.cpp</text>
</a>
</g>
<!-- Node32&#45;&gt;Node34 -->
<g id="edge78" class="edge"><title>Node32&#45;&gt;Node34</title>
<path fill="none" stroke="midnightblue" d="M1306.63,-120.016C1196.01,-117.107 914.896,-106.733 887,-76 881.026,-69.4182 881.714,-63.1463 887,-56 899.221,-39.4776 949.935,-26.5492 988.407,-18.8699"/>
<polygon fill="midnightblue" stroke="midnightblue" points="1306.7,-123.519 1316.78,-120.275 1306.88,-116.521 1306.7,-123.519"/>
</g>
<!-- Node35 -->
<g id="node75" class="node"><title>Node35</title>
<a xlink:href="_s_l_tex_font_8cpp.html" target="_top" xlink:title="SLTexFont.cpp">
<polygon fill="white" stroke="black" points="1040,-56.5 1040,-75.5 1126,-75.5 1126,-56.5 1040,-56.5"/>
<text text-anchor="middle" x="1083" y="-63.5" font-family="Arial.ttf" font-size="10.00">SLTexFont.cpp</text>
</a>
</g>
<!-- Node32&#45;&gt;Node35 -->
<g id="edge80" class="edge"><title>Node32&#45;&gt;Node35</title>
<path fill="none" stroke="midnightblue" d="M1306.86,-112.106C1256.56,-101.972 1174.95,-85.5265 1125.39,-75.5418"/>
<polygon fill="midnightblue" stroke="midnightblue" points="1306.29,-115.562 1316.79,-114.106 1307.67,-108.7 1306.29,-115.562"/>
</g>
<!-- Node36 -->
<g id="node77" class="node"><title>Node36</title>
<a xlink:href="_s_l_a_a_b_box_8cpp.html" target="_top" xlink:title="SLAABBox.cpp">
<polygon fill="white" stroke="black" points="1144.5,-56.5 1144.5,-75.5 1231.5,-75.5 1231.5,-56.5 1144.5,-56.5"/>
<text text-anchor="middle" x="1188" y="-63.5" font-family="Arial.ttf" font-size="10.00">SLAABBox.cpp</text>
</a>
</g>
<!-- Node32&#45;&gt;Node36 -->
<g id="edge82" class="edge"><title>Node32&#45;&gt;Node36</title>
<path fill="none" stroke="midnightblue" d="M1315.3,-109.172C1284.6,-99.0039 1241.08,-84.5852 1213.71,-75.5164"/>
<polygon fill="midnightblue" stroke="midnightblue" points="1314.58,-112.621 1325.17,-112.444 1316.78,-105.976 1314.58,-112.621"/>
</g>
<!-- Node37 -->
<g id="node80" class="node"><title>Node37</title>
<a xlink:href="_s_l_anim_manager_8cpp.html" target="_top" xlink:title="SLAnimManager.cpp">
<polygon fill="white" stroke="black" points="1250,-56.5 1250,-75.5 1366,-75.5 1366,-56.5 1250,-56.5"/>
<text text-anchor="middle" x="1308" y="-63.5" font-family="Arial.ttf" font-size="10.00">SLAnimManager.cpp</text>
</a>
</g>
<!-- Node32&#45;&gt;Node37 -->
<g id="edge86" class="edge"><title>Node32&#45;&gt;Node37</title>
<path fill="none" stroke="midnightblue" d="M1337.58,-104.144C1330.09,-94.7357 1321.06,-83.4046 1314.97,-75.7511"/>
<polygon fill="midnightblue" stroke="midnightblue" points="1334.93,-106.44 1343.9,-112.083 1340.41,-102.08 1334.93,-106.44"/>
</g>
<!-- Node38 -->
<g id="node82" class="node"><title>Node38</title>
<a xlink:href="_s_l_background_8cpp.html" target="_top" xlink:title="SLBackground.cpp">
<polygon fill="white" stroke="black" points="1422,-56.5 1422,-75.5 1528,-75.5 1528,-56.5 1422,-56.5"/>
<text text-anchor="middle" x="1475" y="-63.5" font-family="Arial.ttf" font-size="10.00">SLBackground.cpp</text>
</a>
</g>
<!-- Node32&#45;&gt;Node38 -->
<g id="edge88" class="edge"><title>Node32&#45;&gt;Node38</title>
<path fill="none" stroke="midnightblue" d="M1380.01,-108.368C1403.23,-98.2553 1435.16,-84.3486 1455.44,-75.5164"/>
<polygon fill="midnightblue" stroke="midnightblue" points="1378.42,-105.242 1370.65,-112.444 1381.21,-111.66 1378.42,-105.242"/>
</g>
<!-- Node39 -->
<g id="node85" class="node"><title>Node39</title>
<a xlink:href="_s_l_g_l_oculus_f_b_8cpp.html" target="_top" xlink:title="SLGLOculusFB.cpp">
<polygon fill="white" stroke="black" points="512,-56.5 512,-75.5 618,-75.5 618,-56.5 512,-56.5"/>
<text text-anchor="middle" x="565" y="-63.5" font-family="Arial.ttf" font-size="10.00">SLGLOculusFB.cpp</text>
</a>
</g>
<!-- Node32&#45;&gt;Node39 -->
<g id="edge92" class="edge"><title>Node32&#45;&gt;Node39</title>
<path fill="none" stroke="midnightblue" d="M1306.56,-119.318C1193.67,-114.806 886.727,-101.048 632,-76 627.562,-75.5636 622.965,-75.0584 618.354,-74.5145"/>
<polygon fill="midnightblue" stroke="midnightblue" points="1306.74,-122.828 1316.87,-119.726 1307.02,-115.833 1306.74,-122.828"/>
</g>
<!-- Node40 -->
<g id="node87" class="node"><title>Node40</title>
<a xlink:href="_s_l_g_l_program_8cpp.html" target="_top" xlink:title="SLGLProgram.cpp">
<polygon fill="white" stroke="black" points="1584.5,-56.5 1584.5,-75.5 1687.5,-75.5 1687.5,-56.5 1584.5,-56.5"/>
<text text-anchor="middle" x="1636" y="-63.5" font-family="Arial.ttf" font-size="10.00">SLGLProgram.cpp</text>
</a>
</g>
<!-- Node32&#45;&gt;Node40 -->
<g id="edge94" class="edge"><title>Node32&#45;&gt;Node40</title>
<path fill="none" stroke="midnightblue" d="M1394.92,-112.678C1448.16,-102.59 1537.41,-85.6811 1591.09,-75.5095"/>
<polygon fill="midnightblue" stroke="midnightblue" points="1394.27,-109.239 1385.09,-114.54 1395.57,-116.117 1394.27,-109.239"/>
</g>
<!-- Node41 -->
<g id="node89" class="node"><title>Node41</title>
<a xlink:href="_s_l_g_l_texture_8cpp.html" target="_top" xlink:title="SLGLTexture.cpp">
<polygon fill="white" stroke="black" points="1706,-56.5 1706,-75.5 1804,-75.5 1804,-56.5 1706,-56.5"/>
<text text-anchor="middle" x="1755" y="-63.5" font-family="Arial.ttf" font-size="10.00">SLGLTexture.cpp</text>
</a>
</g>
<!-- Node32&#45;&gt;Node41 -->
<g id="edge96" class="edge"><title>Node32&#45;&gt;Node41</title>
<path fill="none" stroke="midnightblue" d="M1395.32,-115.531C1461.02,-107.353 1588.14,-91.2597 1696,-76 1699.18,-75.5501 1702.46,-75.0771 1705.76,-74.5933"/>
<polygon fill="midnightblue" stroke="midnightblue" points="1394.8,-112.068 1385.31,-116.775 1395.67,-119.015 1394.8,-112.068"/>
</g>
<!-- Node42 -->
<g id="node91" class="node"><title>Node42</title>
<a xlink:href="_s_l_g_l_vertex_array_8cpp.html" target="_top" xlink:title="SLGLVertexArray.cpp">
<polygon fill="white" stroke="black" points="1822.5,-56.5 1822.5,-75.5 1941.5,-75.5 1941.5,-56.5 1822.5,-56.5"/>
<text text-anchor="middle" x="1882" y="-63.5" font-family="Arial.ttf" font-size="10.00">SLGLVertexArray.cpp</text>
</a>
</g>
<!-- Node32&#45;&gt;Node42 -->
<g id="edge98" class="edge"><title>Node32&#45;&gt;Node42</title>
<path fill="none" stroke="midnightblue" d="M1395.24,-117.175C1477.56,-109.949 1659.81,-93.4463 1813,-76 1816,-75.6582 1819.07,-75.2974 1822.18,-74.9245"/>
<polygon fill="midnightblue" stroke="midnightblue" points="1394.89,-113.692 1385.24,-118.05 1395.5,-120.665 1394.89,-113.692"/>
</g>
<!-- Node43 -->
<g id="node93" class="node"><title>Node43</title>
<a xlink:href="_s_l_g_l_vertex_array_ext_8cpp.html" target="_top" xlink:title="SLGLVertexArrayExt.cpp">
<polygon fill="white" stroke="black" points="1960,-56.5 1960,-75.5 2094,-75.5 2094,-56.5 1960,-56.5"/>
<text text-anchor="middle" x="2027" y="-63.5" font-family="Arial.ttf" font-size="10.00">SLGLVertexArrayExt.cpp</text>
</a>
</g>
<!-- Node32&#45;&gt;Node43 -->
<g id="edge100" class="edge"><title>Node32&#45;&gt;Node43</title>
<path fill="none" stroke="midnightblue" d="M1395.42,-118.294C1494.86,-112.098 1742.92,-95.872 1950,-76 1953.22,-75.6914 1956.5,-75.3616 1959.83,-75.0173"/>
<polygon fill="midnightblue" stroke="midnightblue" points="1394.91,-114.819 1385.15,-118.931 1395.35,-121.805 1394.91,-114.819"/>
</g>
<!-- Node44 -->
<g id="node95" class="node"><title>Node44</title>
<a xlink:href="_s_l_input_manager_8cpp.html" target="_top" xlink:title="SLInputManager.cpp">
<polygon fill="white" stroke="black" points="1224.5,-0.5 1224.5,-19.5 1339.5,-19.5 1339.5,-0.5 1224.5,-0.5"/>
<text text-anchor="middle" x="1282" y="-7.5" font-family="Arial.ttf" font-size="10.00">SLInputManager.cpp</text>
</a>
</g>
<!-- Node32&#45;&gt;Node44 -->
<g id="edge102" class="edge"><title>Node32&#45;&gt;Node44</title>
<path fill="none" stroke="midnightblue" d="M1365.01,-104.466C1374.79,-90.7913 1384.54,-71.2156 1375,-56 1363.18,-37.1566 1341,-26.0099 1321.25,-19.5247"/>
<polygon fill="midnightblue" stroke="midnightblue" points="1362.14,-102.45 1358.77,-112.496 1367.67,-106.743 1362.14,-102.45"/>
</g>
<!-- Node45 -->
<g id="node97" class="node"><title>Node45</title>
<a xlink:href="_s_l_light_rect_8cpp.html" target="_top" xlink:title="SLLightRect.cpp">
<polygon fill="white" stroke="black" points="1433.5,-0.5 1433.5,-19.5 1526.5,-19.5 1526.5,-0.5 1433.5,-0.5"/>
<text text-anchor="middle" x="1480" y="-7.5" font-family="Arial.ttf" font-size="10.00">SLLightRect.cpp</text>
</a>
</g>
<!-- Node32&#45;&gt;Node45 -->
<g id="edge104" class="edge"><title>Node32&#45;&gt;Node45</title>
<path fill="none" stroke="midnightblue" d="M1395.26,-116.533C1444.57,-110.534 1519.69,-97.9985 1537,-76 1553.52,-55.0048 1519.51,-31.7812 1497.25,-19.5784"/>
<polygon fill="midnightblue" stroke="midnightblue" points="1394.68,-113.077 1385.15,-117.715 1395.49,-120.029 1394.68,-113.077"/>
</g>
<!-- Node46 -->
<g id="node99" class="node"><title>Node46</title>
<a xlink:href="_s_l_light_sphere_8cpp.html" target="_top" xlink:title="SLLightSphere.cpp">
<polygon fill="white" stroke="black" points="754.5,-0.5 754.5,-19.5 861.5,-19.5 861.5,-0.5 754.5,-0.5"/>
<text text-anchor="middle" x="808" y="-7.5" font-family="Arial.ttf" font-size="10.00">SLLightSphere.cpp</text>
</a>
</g>
<!-- Node32&#45;&gt;Node46 -->
<g id="edge106" class="edge"><title>Node32&#45;&gt;Node46</title>
<path fill="none" stroke="midnightblue" d="M1306.58,-120.724C1202.78,-119.462 947.335,-112.615 871,-76 844.361,-63.2222 822.872,-34.1569 813.335,-19.6175"/>
<polygon fill="midnightblue" stroke="midnightblue" points="1306.69,-124.225 1316.72,-120.835 1306.76,-117.226 1306.69,-124.225"/>
</g>
<!-- Node47 -->
<g id="node103" class="node"><title>Node47</title>
<a xlink:href="_s_l_skeleton_8cpp.html" target="_top" xlink:title="SLSkeleton.cpp">
<polygon fill="white" stroke="black" points="879.5,-0.5 879.5,-19.5 970.5,-19.5 970.5,-0.5 879.5,-0.5"/>
<text text-anchor="middle" x="925" y="-7.5" font-family="Arial.ttf" font-size="10.00">SLSkeleton.cpp</text>
</a>
</g>
<!-- Node32&#45;&gt;Node47 -->
<g id="edge112" class="edge"><title>Node32&#45;&gt;Node47</title>
<path fill="none" stroke="midnightblue" d="M1306.66,-120.095C1194.7,-117.354 907.465,-107.308 879,-76 862.167,-57.4856 892.132,-32.6587 911.134,-19.7007"/>
<polygon fill="midnightblue" stroke="midnightblue" points="1306.85,-123.601 1316.93,-120.338 1307.02,-116.602 1306.85,-123.601"/>
</g>
<!-- Node48 -->
<g id="node106" class="node"><title>Node48</title>
<a xlink:href="_s_l_scene_view_8h.html" target="_top" xlink:title="SLSceneView.h">
<polygon fill="white" stroke="red" points="674.5,-56.5 674.5,-75.5 763.5,-75.5 763.5,-56.5 674.5,-56.5"/>
<text text-anchor="middle" x="719" y="-63.5" font-family="Arial.ttf" font-size="10.00">SLSceneView.h</text>
</a>
</g>
<!-- Node32&#45;&gt;Node48 -->
<g id="edge116" class="edge"><title>Node32&#45;&gt;Node48</title>
<path fill="none" stroke="midnightblue" d="M1306.42,-118.611C1209.89,-113.192 974.347,-98.655 778,-76 773.368,-75.4656 768.541,-74.8409 763.732,-74.1743"/>
<polygon fill="midnightblue" stroke="midnightblue" points="1306.51,-122.12 1316.69,-119.181 1306.9,-115.131 1306.51,-122.12"/>
</g>
<!-- Node48&#45;&gt;Node6 -->
<g id="edge132" class="edge"><title>Node48&#45;&gt;Node6</title>
<path fill="none" stroke="midnightblue" d="M773.847,-61.6439C806.665,-59.74 849.207,-57.4543 887,-56 1570.24,-29.7087 1741.78,-46.6231 2425,-20 2469,-18.2853 2519.56,-15.3911 2552.99,-13.3484"/>
<polygon fill="midnightblue" stroke="midnightblue" points="773.33,-58.1681 763.551,-62.2471 773.739,-65.1561 773.33,-58.1681"/>
</g>
<!-- Node48&#45;&gt;Node11 -->
<g id="edge120" class="edge"><title>Node48&#45;&gt;Node11</title>
<path fill="none" stroke="midnightblue" d="M773.849,-61.7023C806.668,-59.8188 849.21,-57.534 887,-56 1465.86,-32.5024 1611.11,-42.7113 2190,-20 2233.04,-18.3113 2281.94,-15.778 2317.42,-13.8289"/>
<polygon fill="midnightblue" stroke="midnightblue" points="773.334,-58.2262 763.553,-62.2983 773.739,-65.2145 773.334,-58.2262"/>
</g>
<!-- Node48&#45;&gt;Node22 -->
<g id="edge122" class="edge"><title>Node48&#45;&gt;Node22</title>
<path fill="none" stroke="midnightblue" d="M664.035,-59.5407C651.843,-58.3527 638.984,-57.1175 627,-56 446.63,-39.1812 400.663,-43.1822 221,-20 217.945,-19.6059 214.798,-19.1638 211.631,-18.6927"/>
<polygon fill="midnightblue" stroke="midnightblue" points="663.793,-63.0336 674.086,-60.5239 664.474,-56.0668 663.793,-63.0336"/>
</g>
<!-- Node48&#45;&gt;Node23 -->
<g id="edge134" class="edge"><title>Node48&#45;&gt;Node23</title>
<path fill="none" stroke="midnightblue" d="M663.98,-59.4731C569.289,-49.8654 379.302,-30.1427 313,-20 310.104,-19.557 307.113,-19.0606 304.111,-18.5346"/>
<polygon fill="midnightblue" stroke="midnightblue" points="663.913,-62.9842 674.215,-60.5099 664.619,-56.0198 663.913,-62.9842"/>
</g>
<!-- Node48&#45;&gt;Node24 -->
<g id="edge136" class="edge"><title>Node48&#45;&gt;Node24</title>
<path fill="none" stroke="midnightblue" d="M664.445,-56.5102C597.75,-46.1311 485.841,-28.7158 421.522,-18.7066"/>
<polygon fill="midnightblue" stroke="midnightblue" points="663.927,-59.9716 674.346,-58.051 665.003,-53.0548 663.927,-59.9716"/>
</g>
<!-- Node48&#45;&gt;Node25 -->
<g id="edge138" class="edge"><title>Node48&#45;&gt;Node25</title>
<path fill="none" stroke="midnightblue" d="M672.397,-54.1529C628.563,-43.95 563.822,-28.8809 523.589,-19.5164"/>
<polygon fill="midnightblue" stroke="midnightblue" points="671.706,-57.5854 682.239,-56.4435 673.293,-50.7676 671.706,-57.5854"/>
</g>
<!-- Node48&#45;&gt;Node26 -->
<g id="edge140" class="edge"><title>Node48&#45;&gt;Node26</title>
<path fill="none" stroke="midnightblue" d="M689.609,-52.503C665.8,-42.3795 632.894,-28.388 612.029,-19.5164"/>
<polygon fill="midnightblue" stroke="midnightblue" points="688.304,-55.7515 698.876,-56.4435 691.043,-49.3096 688.304,-55.7515"/>
</g>
<!-- Node48&#45;&gt;Node27 -->
<g id="edge142" class="edge"><title>Node48&#45;&gt;Node27</title>
<path fill="none" stroke="midnightblue" d="M773.854,-61.8241C806.675,-59.9831 849.217,-57.7003 887,-56 1338.71,-35.6725 1883.68,-18.3162 2062.22,-12.8155"/>
<polygon fill="midnightblue" stroke="midnightblue" points="773.345,-58.3472 763.558,-62.4051 773.739,-65.3361 773.345,-58.3472"/>
</g>
<!-- Node48&#45;&gt;Node29 -->
<g id="edge146" class="edge"><title>Node48&#45;&gt;Node29</title>
<path fill="none" stroke="midnightblue" d="M664.05,-59.3767C651.857,-58.1981 638.994,-57.0081 627,-56 399.684,-36.8933 341.808,-44.4019 115,-20 112.296,-19.7091 109.53,-19.3892 106.738,-19.0488"/>
<polygon fill="midnightblue" stroke="midnightblue" points="663.807,-62.8696 674.1,-60.3599 664.489,-55.9028 663.807,-62.8696"/>
</g>
<!-- Node48&#45;&gt;Node34 -->
<g id="edge118" class="edge"><title>Node48&#45;&gt;Node34</title>
<path fill="none" stroke="midnightblue" d="M773.97,-55.5766C834.752,-45.1568 931.565,-28.5603 988.335,-18.8283"/>
<polygon fill="midnightblue" stroke="midnightblue" points="773.062,-52.1811 763.797,-57.3205 774.245,-59.0804 773.062,-52.1811"/>
</g>
<!-- Node48&#45;&gt;Node44 -->
<g id="edge124" class="edge"><title>Node48&#45;&gt;Node44</title>
<path fill="none" stroke="midnightblue" d="M773.873,-59.7368C880.578,-49.5023 1115.1,-27.0078 1224.14,-16.5493"/>
<polygon fill="midnightblue" stroke="midnightblue" points="773.268,-56.2787 763.648,-60.7176 773.937,-63.2467 773.268,-56.2787"/>
</g>
<!-- Node48&#45;&gt;Node45 -->
<g id="edge126" class="edge"><title>Node48&#45;&gt;Node45</title>
<path fill="none" stroke="midnightblue" d="M774.064,-61.0927C917.361,-50.9245 1299.99,-23.7735 1433.37,-14.3092"/>
<polygon fill="midnightblue" stroke="midnightblue" points="773.49,-57.6245 763.763,-61.8237 773.986,-64.607 773.49,-57.6245"/>
</g>
<!-- Node48&#45;&gt;Node46 -->
<g id="edge128" class="edge"><title>Node48&#45;&gt;Node46</title>
<path fill="none" stroke="midnightblue" d="M742.238,-50.9005C758.558,-40.9986 779.865,-28.0705 793.736,-19.6545"/>
<polygon fill="midnightblue" stroke="midnightblue" points="740.033,-48.1444 733.299,-56.324 743.664,-54.1289 740.033,-48.1444"/>
</g>
<!-- Node48&#45;&gt;Node47 -->
<g id="edge144" class="edge"><title>Node48&#45;&gt;Node47</title>
<path fill="none" stroke="midnightblue" d="M761.615,-53.8291C800.51,-43.6333 857.164,-28.7823 892.511,-19.5164"/>
<polygon fill="midnightblue" stroke="midnightblue" points="760.427,-50.5222 751.641,-56.4435 762.202,-57.2934 760.427,-50.5222"/>
</g>
<!-- Node49 -->
<g id="node114" class="node"><title>Node49</title>
<a xlink:href="_s_l_material_8cpp.html" target="_top" xlink:title="SLMaterial.cpp">
<polygon fill="white" stroke="black" points="649.5,-0.5 649.5,-19.5 736.5,-19.5 736.5,-0.5 649.5,-0.5"/>
<text text-anchor="middle" x="693" y="-7.5" font-family="Arial.ttf" font-size="10.00">SLMaterial.cpp</text>
</a>
</g>
<!-- Node48&#45;&gt;Node49 -->
<g id="edge130" class="edge"><title>Node48&#45;&gt;Node49</title>
<path fill="none" stroke="midnightblue" d="M710.325,-46.9827C705.912,-37.8168 700.748,-27.0922 697.213,-19.7511"/>
<polygon fill="midnightblue" stroke="midnightblue" points="707.215,-48.5913 714.707,-56.083 713.522,-45.5546 707.215,-48.5913"/>
</g>
<!-- Node50&#45;&gt;Node39 -->
<g id="edge150" class="edge"><title>Node50&#45;&gt;Node39</title>
<path fill="none" stroke="midnightblue" d="M565,-101.805C565,-92.9102 565,-82.7798 565,-75.7511"/>
<polygon fill="midnightblue" stroke="midnightblue" points="561.5,-102.083 565,-112.083 568.5,-102.083 561.5,-102.083"/>
</g>
<!-- Node50&#45;&gt;Node48 -->
<g id="edge152" class="edge"><title>Node50&#45;&gt;Node48</title>
<path fill="none" stroke="midnightblue" d="M599.111,-109.039C628.087,-98.8786 668.962,-84.5457 694.712,-75.5164"/>
<polygon fill="midnightblue" stroke="midnightblue" points="597.68,-105.832 589.402,-112.444 599.997,-112.437 597.68,-105.832"/>
</g>
</g>
</svg>
