<?xml version="1.0" encoding="UTF-8" standalone="no"?>
<!DOCTYPE svg PUBLIC "-//W3C//DTD SVG 1.1//EN"
 "http://www.w3.org/Graphics/SVG/1.1/DTD/svg11.dtd">
<!-- Generated by graphviz version 2.40.1 (20161225.0304)
 -->
<!-- Title: SLPhotonMap.h Pages: 1 -->
<svg width="3049pt" height="522pt"
 viewBox="0.00 0.00 3049.44 522.00" xmlns="http://www.w3.org/2000/svg" xmlns:xlink="http://www.w3.org/1999/xlink">
<g id="graph0" class="graph" transform="scale(1 1) rotate(0) translate(4 518)">
<title>SLPhotonMap.h</title>
<polygon fill="#ffffff" stroke="transparent" points="-4,4 -4,-518 3045.438,-518 3045.438,4 -4,4"/>
<!-- Node1 -->
<g id="node1" class="node">
<title>Node1</title>
<g id="a_node1"><a xlink:title=" ">
<polygon fill="#bfbfbf" stroke="#000000" points="1392.7046,-495.5 1392.7046,-513.5 1480.4233,-513.5 1480.4233,-495.5 1392.7046,-495.5"/>
<text text-anchor="middle" x="1436.564" y="-501.5" font-family="Arial.ttf" font-size="10.00" fill="#000000">SLPhotonMap.h</text>
</a>
</g>
</g>
<!-- Node2 -->
<g id="node2" class="node">
<title>Node2</title>
<g id="a_node2"><a xlink:href="stdafx_8h.html" target="_top" xlink:title=" ">
<polygon fill="#ffffff" stroke="#000000" points="1365.0542,-440.5 1365.0542,-458.5 1416.0737,-458.5 1416.0737,-440.5 1365.0542,-440.5"/>
<text text-anchor="middle" x="1390.564" y="-446.5" font-family="Arial.ttf" font-size="10.00" fill="#000000">stdafx.h</text>
</a>
</g>
</g>
<!-- Node1&#45;&gt;Node2 -->
<g id="edge1" class="edge">
<title>Node1&#45;&gt;Node2</title>
<path fill="none" stroke="#191970" d="M1428.968,-495.4179C1422.4154,-487.5833 1412.7757,-476.0575 1404.7936,-466.5137"/>
<polygon fill="#191970" stroke="#191970" points="1407.4253,-464.2048 1398.325,-458.7795 1402.0558,-468.6957 1407.4253,-464.2048"/>
</g>
<!-- Node57 -->
<g id="node50" class="node">
<title>Node57</title>
<g id="a_node50"><a xlink:title=" ">
<polygon fill="#ffffff" stroke="#bfbfbf" points="1433.9829,-440.5 1433.9829,-458.5 1531.145,-458.5 1531.145,-440.5 1433.9829,-440.5"/>
<text text-anchor="middle" x="1482.564" y="-446.5" font-family="Arial.ttf" font-size="10.00" fill="#000000">renderbitch/rgbe.h</text>
</a>
</g>
</g>
<!-- Node1&#45;&gt;Node57 -->
<g id="edge84" class="edge">
<title>Node1&#45;&gt;Node57</title>
<path fill="none" stroke="#191970" d="M1444.1599,-495.4179C1450.7125,-487.5833 1460.3522,-476.0575 1468.3343,-466.5137"/>
<polygon fill="#191970" stroke="#191970" points="1471.0722,-468.6957 1474.803,-458.7795 1465.7026,-464.2048 1471.0722,-468.6957"/>
</g>
<!-- Node3 -->
<g id="node3" class="node">
<title>Node3</title>
<g id="a_node3"><a xlink:title=" ">
<polygon fill="#ffffff" stroke="#bfbfbf" points="0,-385.5 0,-403.5 57.1279,-403.5 57.1279,-385.5 0,-385.5"/>
<text text-anchor="middle" x="28.564" y="-391.5" font-family="Arial.ttf" font-size="10.00" fill="#000000">algorithm</text>
</a>
</g>
</g>
<!-- Node2&#45;&gt;Node3 -->
<g id="edge2" class="edge">
<title>Node2&#45;&gt;Node3</title>
<path fill="none" stroke="#191970" d="M1365.0396,-449.3788C1206.2283,-448.5123 351.2236,-442.1827 67.7726,-404.0004"/>
<polygon fill="#191970" stroke="#191970" points="67.9162,-400.4866 57.5283,-402.5702 66.9483,-407.4194 67.9162,-400.4866"/>
</g>
<!-- Node4 -->
<g id="node4" class="node">
<title>Node4</title>
<g id="a_node4"><a xlink:title=" ">
<polygon fill="#ffffff" stroke="#bfbfbf" points="74.8374,-385.5 74.8374,-403.5 120.2905,-403.5 120.2905,-385.5 74.8374,-385.5"/>
<text text-anchor="middle" x="97.564" y="-391.5" font-family="Arial.ttf" font-size="10.00" fill="#000000">atomic</text>
</a>
</g>
</g>
<!-- Node2&#45;&gt;Node4 -->
<g id="edge3" class="edge">
<title>Node2&#45;&gt;Node4</title>
<path fill="none" stroke="#191970" d="M1365.0016,-449.4556C1210.6319,-449.0568 400.7361,-445.0834 130.6235,-403.6717"/>
<polygon fill="#191970" stroke="#191970" points="130.9001,-400.1717 120.4741,-402.0555 129.7992,-407.0846 130.9001,-400.1717"/>
</g>
<!-- Node5 -->
<g id="node5" class="node">
<title>Node5</title>
<g id="a_node5"><a xlink:title=" ">
<polygon fill="#ffffff" stroke="#bfbfbf" points="138.2759,-385.5 138.2759,-403.5 184.8521,-403.5 184.8521,-385.5 138.2759,-385.5"/>
<text text-anchor="middle" x="161.564" y="-391.5" font-family="Arial.ttf" font-size="10.00" fill="#000000">chrono</text>
</a>
</g>
</g>
<!-- Node2&#45;&gt;Node5 -->
<g id="edge4" class="edge">
<title>Node2&#45;&gt;Node5</title>
<path fill="none" stroke="#191970" d="M1364.8619,-449.3683C1214.9661,-448.4743 451.772,-442.1657 195.21,-403.6099"/>
<polygon fill="#191970" stroke="#191970" points="195.6214,-400.1318 185.2011,-402.0473 194.5415,-407.048 195.6214,-400.1318"/>
</g>
<!-- Node6 -->
<g id="node6" class="node">
<title>Node6</title>
<g id="a_node6"><a xlink:title=" ">
<polygon fill="#ffffff" stroke="#bfbfbf" points="203.1675,-385.5 203.1675,-403.5 251.9604,-403.5 251.9604,-385.5 203.1675,-385.5"/>
<text text-anchor="middle" x="227.564" y="-391.5" font-family="Arial.ttf" font-size="10.00" fill="#000000">cstdarg</text>
</a>
</g>
</g>
<!-- Node2&#45;&gt;Node6 -->
<g id="edge5" class="edge">
<title>Node2&#45;&gt;Node6</title>
<path fill="none" stroke="#191970" d="M1364.8614,-449.3024C1220.0446,-448.0641 504.1442,-440.2587 262.4052,-403.8914"/>
<polygon fill="#191970" stroke="#191970" points="262.7062,-400.3959 252.2851,-402.3065 261.6231,-407.3116 262.7062,-400.3959"/>
</g>
<!-- Node7 -->
<g id="node7" class="node">
<title>Node7</title>
<g id="a_node7"><a xlink:title=" ">
<polygon fill="#ffffff" stroke="#bfbfbf" points="269.6182,-385.5 269.6182,-403.5 309.5098,-403.5 309.5098,-385.5 269.6182,-385.5"/>
<text text-anchor="middle" x="289.564" y="-391.5" font-family="Arial.ttf" font-size="10.00" fill="#000000">ctime</text>
</a>
</g>
</g>
<!-- Node2&#45;&gt;Node7 -->
<g id="edge6" class="edge">
<title>Node2&#45;&gt;Node7</title>
<path fill="none" stroke="#191970" d="M1364.7775,-449.3621C1224.2327,-448.4679 548.8543,-442.3048 319.5887,-403.6125"/>
<polygon fill="#191970" stroke="#191970" points="320.1182,-400.152 309.6628,-401.8652 318.9045,-407.046 320.1182,-400.152"/>
</g>
<!-- Node8 -->
<g id="node8" class="node">
<title>Node8</title>
<g id="a_node8"><a xlink:title=" ">
<polygon fill="#ffffff" stroke="#bfbfbf" points="327.894,-385.5 327.894,-403.5 377.2339,-403.5 377.2339,-385.5 327.894,-385.5"/>
<text text-anchor="middle" x="352.564" y="-391.5" font-family="Arial.ttf" font-size="10.00" fill="#000000">fstream</text>
</a>
</g>
</g>
<!-- Node2&#45;&gt;Node8 -->
<g id="edge7" class="edge">
<title>Node2&#45;&gt;Node8</title>
<path fill="none" stroke="#191970" d="M1364.661,-449.1225C1229.4702,-447.0335 603.192,-435.861 387.27,-403.6618"/>
<polygon fill="#191970" stroke="#191970" points="387.7206,-400.1899 377.3017,-402.1126 386.6456,-407.1069 387.7206,-400.1899"/>
</g>
<!-- Node9 -->
<g id="node9" class="node">
<title>Node9</title>
<g id="a_node9"><a xlink:title=" ">
<polygon fill="#ffffff" stroke="#bfbfbf" points="395.1602,-385.5 395.1602,-403.5 453.9678,-403.5 453.9678,-385.5 395.1602,-385.5"/>
<text text-anchor="middle" x="424.564" y="-391.5" font-family="Arial.ttf" font-size="10.00" fill="#000000">functional</text>
</a>
</g>
</g>
<!-- Node2&#45;&gt;Node9 -->
<g id="edge8" class="edge">
<title>Node2&#45;&gt;Node9</title>
<path fill="none" stroke="#191970" d="M1364.9402,-448.923C1236.7821,-445.9352 663.925,-431.3534 464.389,-403.966"/>
<polygon fill="#191970" stroke="#191970" points="464.7188,-400.4777 454.3239,-402.5259 463.7273,-407.4071 464.7188,-400.4777"/>
</g>
<!-- Node10 -->
<g id="node10" class="node">
<title>Node10</title>
<g id="a_node10"><a xlink:title=" ">
<polygon fill="#ffffff" stroke="#bfbfbf" points="472.0542,-385.5 472.0542,-403.5 523.0737,-403.5 523.0737,-385.5 472.0542,-385.5"/>
<text text-anchor="middle" x="497.564" y="-391.5" font-family="Arial.ttf" font-size="10.00" fill="#000000">iomanip</text>
</a>
</g>
</g>
<!-- Node2&#45;&gt;Node10 -->
<g id="edge9" class="edge">
<title>Node2&#45;&gt;Node10</title>
<path fill="none" stroke="#191970" d="M1365.0003,-448.7574C1241.2306,-445.0674 703.4278,-427.9214 537.564,-404 536.1069,-403.7899 534.625,-403.5519 533.1317,-403.292"/>
<polygon fill="#191970" stroke="#191970" points="533.7455,-399.8456 523.2537,-401.32 532.375,-406.7101 533.7455,-399.8456"/>
</g>
<!-- Node11 -->
<g id="node11" class="node">
<title>Node11</title>
<g id="a_node11"><a xlink:title=" ">
<polygon fill="#ffffff" stroke="#bfbfbf" points="1018.3916,-220.5 1018.3916,-238.5 1072.7363,-238.5 1072.7363,-220.5 1018.3916,-220.5"/>
<text text-anchor="middle" x="1045.564" y="-226.5" font-family="Arial.ttf" font-size="10.00" fill="#000000">iostream</text>
</a>
</g>
</g>
<!-- Node2&#45;&gt;Node11 -->
<g id="edge10" class="edge">
<title>Node2&#45;&gt;Node11</title>
<path fill="none" stroke="#191970" d="M1364.9366,-449.0454C1269.7534,-447.0961 940.4351,-437.9292 909.564,-404 858.3556,-347.719 967.845,-274.0459 1019.9862,-243.602"/>
<polygon fill="#191970" stroke="#191970" points="1021.7769,-246.6098 1028.7107,-238.5989 1018.2947,-240.5374 1021.7769,-246.6098"/>
</g>
<!-- Node12 -->
<g id="node12" class="node">
<title>Node12</title>
<g id="a_node12"><a xlink:title=" ">
<polygon fill="#ffffff" stroke="#bfbfbf" points="580.064,-385.5 580.064,-403.5 609.064,-403.5 609.064,-385.5 580.064,-385.5"/>
<text text-anchor="middle" x="594.1748" y="-391.5" font-family="Arial.ttf" font-size="10.00" fill="#000000">list</text>
</a>
</g>
</g>
<!-- Node2&#45;&gt;Node12 -->
<g id="edge11" class="edge">
<title>Node2&#45;&gt;Node12</title>
<path fill="none" stroke="#191970" d="M1365.0143,-449.1337C1250.6299,-447.3237 784.3339,-438.0932 619.3809,-403.669"/>
<polygon fill="#191970" stroke="#191970" points="619.9412,-400.2086 609.4222,-401.4735 618.4341,-407.0445 619.9412,-400.2086"/>
</g>
<!-- Node13 -->
<g id="node13" class="node">
<title>Node13</title>
<g id="a_node13"><a xlink:title=" ">
<polygon fill="#ffffff" stroke="#bfbfbf" points="626.8374,-385.5 626.8374,-403.5 662.2905,-403.5 662.2905,-385.5 626.8374,-385.5"/>
<text text-anchor="middle" x="644.564" y="-391.5" font-family="Arial.ttf" font-size="10.00" fill="#000000">map</text>
</a>
</g>
</g>
<!-- Node2&#45;&gt;Node13 -->
<g id="edge12" class="edge">
<title>Node2&#45;&gt;Node13</title>
<path fill="none" stroke="#191970" d="M1364.9904,-448.8235C1255.7709,-445.7931 827.343,-432.4332 672.1965,-403.4701"/>
<polygon fill="#191970" stroke="#191970" points="672.8661,-400.0349 662.3787,-401.5398 671.5156,-406.9034 672.8661,-400.0349"/>
</g>
<!-- Node14 -->
<g id="node14" class="node">
<title>Node14</title>
<g id="a_node14"><a xlink:title=" ">
<polygon fill="#ffffff" stroke="#bfbfbf" points="680.6602,-385.5 680.6602,-403.5 724.4678,-403.5 724.4678,-385.5 680.6602,-385.5"/>
<text text-anchor="middle" x="702.564" y="-391.5" font-family="Arial.ttf" font-size="10.00" fill="#000000">queue</text>
</a>
</g>
</g>
<!-- Node2&#45;&gt;Node14 -->
<g id="edge13" class="edge">
<title>Node2&#45;&gt;Node14</title>
<path fill="none" stroke="#191970" d="M1364.767,-448.5009C1261.5555,-444.3852 877.4699,-427.9077 734.9976,-403.792"/>
<polygon fill="#191970" stroke="#191970" points="735.2228,-400.277 724.7636,-401.9672 733.994,-407.1683 735.2228,-400.277"/>
</g>
<!-- Node15 -->
<g id="node15" class="node">
<title>Node15</title>
<g id="a_node15"><a xlink:title=" ">
<polygon fill="#ffffff" stroke="#bfbfbf" points="742.6108,-385.5 742.6108,-403.5 792.5171,-403.5 792.5171,-385.5 742.6108,-385.5"/>
<text text-anchor="middle" x="767.564" y="-391.5" font-family="Arial.ttf" font-size="10.00" fill="#000000">random</text>
</a>
</g>
</g>
<!-- Node2&#45;&gt;Node15 -->
<g id="edge14" class="edge">
<title>Node2&#45;&gt;Node15</title>
<path fill="none" stroke="#191970" d="M1364.8178,-448.1826C1268.7896,-443.1676 930.8893,-424.5896 802.6382,-403.8035"/>
<polygon fill="#191970" stroke="#191970" points="803.1343,-400.3377 792.6888,-402.1102 801.9597,-407.2385 803.1343,-400.3377"/>
</g>
<!-- Node16 -->
<g id="node16" class="node">
<title>Node16</title>
<g id="a_node16"><a xlink:title=" ">
<polygon fill="#ffffff" stroke="#bfbfbf" points="810.7832,-385.5 810.7832,-403.5 862.3447,-403.5 862.3447,-385.5 810.7832,-385.5"/>
<text text-anchor="middle" x="836.564" y="-391.5" font-family="Arial.ttf" font-size="10.00" fill="#000000">sstream</text>
</a>
</g>
</g>
<!-- Node2&#45;&gt;Node16 -->
<g id="edge15" class="edge">
<title>Node2&#45;&gt;Node16</title>
<path fill="none" stroke="#191970" d="M1364.9976,-448.5482C1289.7186,-445.4649 1062.4887,-434.1448 876.564,-404 875.2958,-403.7944 874.0081,-403.5707 872.7101,-403.3325"/>
<polygon fill="#191970" stroke="#191970" points="873.2038,-399.8611 862.7047,-401.2819 871.7983,-406.7185 873.2038,-399.8611"/>
</g>
<!-- Node17 -->
<g id="node17" class="node">
<title>Node17</title>
<g id="a_node17"><a xlink:title=" ">
<polygon fill="#ffffff" stroke="#bfbfbf" points="1155.3374,-.5 1155.3374,-18.5 1195.7905,-18.5 1195.7905,-.5 1155.3374,-.5"/>
<text text-anchor="middle" x="1175.564" y="-6.5" font-family="Arial.ttf" font-size="10.00" fill="#000000">string</text>
</a>
</g>
</g>
<!-- Node2&#45;&gt;Node17 -->
<g id="edge16" class="edge">
<title>Node2&#45;&gt;Node17</title>
<path fill="none" stroke="#191970" d="M1364.8714,-448.9024C1229.3391,-445.6462 602.4528,-429.2578 570.564,-404 547.1375,-385.445 551.564,-369.3846 551.564,-339.5 551.564,-339.5 551.564,-339.5 551.564,-119.5 551.564,-58.5068 1019.9161,-20.6346 1145.1055,-11.6009"/>
<polygon fill="#191970" stroke="#191970" points="1145.4312,-15.0867 1155.1571,-10.8846 1144.9336,-8.1044 1145.4312,-15.0867"/>
</g>
<!-- Node18 -->
<g id="node18" class="node">
<title>Node18</title>
<g id="a_node18"><a xlink:title=" ">
<polygon fill="#ffffff" stroke="#bfbfbf" points="918.3867,-385.5 918.3867,-403.5 962.7412,-403.5 962.7412,-385.5 918.3867,-385.5"/>
<text text-anchor="middle" x="940.564" y="-391.5" font-family="Arial.ttf" font-size="10.00" fill="#000000">thread</text>
</a>
</g>
</g>
<!-- Node2&#45;&gt;Node18 -->
<g id="edge17" class="edge">
<title>Node2&#45;&gt;Node18</title>
<path fill="none" stroke="#191970" d="M1364.7955,-448.3986C1300.2073,-445.281 1126.1853,-434.6763 972.8529,-403.9158"/>
<polygon fill="#191970" stroke="#191970" points="973.2825,-400.4314 962.7845,-401.8604 971.8823,-407.29 973.2825,-400.4314"/>
</g>
<!-- Node19 -->
<g id="node19" class="node">
<title>Node19</title>
<g id="a_node19"><a xlink:title=" ">
<polygon fill="#ffffff" stroke="#bfbfbf" points="981.0518,-385.5 981.0518,-403.5 1032.0762,-403.5 1032.0762,-385.5 981.0518,-385.5"/>
<text text-anchor="middle" x="1006.564" y="-391.5" font-family="Arial.ttf" font-size="10.00" fill="#000000">typeinfo</text>
</a>
</g>
</g>
<!-- Node2&#45;&gt;Node19 -->
<g id="edge18" class="edge">
<title>Node2&#45;&gt;Node19</title>
<path fill="none" stroke="#191970" d="M1364.9629,-447.014C1307.6467,-441.252 1164.7551,-425.7933 1046.564,-404 1045.1162,-403.7331 1043.6421,-403.4475 1042.1553,-403.1479"/>
<polygon fill="#191970" stroke="#191970" points="1042.8167,-399.7101 1032.3031,-401.0196 1041.3385,-406.5523 1042.8167,-399.7101"/>
</g>
<!-- Node20 -->
<g id="node20" class="node">
<title>Node20</title>
<g id="a_node20"><a xlink:title=" ">
<polygon fill="#ffffff" stroke="#bfbfbf" points="1714.9482,-.5 1714.9482,-18.5 1758.1797,-18.5 1758.1797,-.5 1714.9482,-.5"/>
<text text-anchor="middle" x="1736.564" y="-6.5" font-family="Arial.ttf" font-size="10.00" fill="#000000">vector</text>
</a>
</g>
</g>
<!-- Node2&#45;&gt;Node20 -->
<g id="edge19" class="edge">
<title>Node2&#45;&gt;Node20</title>
<path fill="none" stroke="#191970" d="M1416.421,-441.6432C1419.152,-441.0033 1421.9028,-440.4363 1424.564,-440 1574.7685,-415.3711 1967.0664,-460.0931 2108.564,-404 2168.9145,-380.0756 2192.564,-349.4197 2192.564,-284.5 2192.564,-284.5 2192.564,-284.5 2192.564,-119.5 2192.564,-32.0958 1871.9657,-13.9295 1768.4064,-10.3414"/>
<polygon fill="#191970" stroke="#191970" points="1768.359,-6.8381 1758.251,-10.0128 1768.1326,-13.8345 1768.359,-6.8381"/>
</g>
<!-- Node21 -->
<g id="node21" class="node">
<title>Node21</title>
<g id="a_node21"><a xlink:title=" ">
<polygon fill="#ffffff" stroke="#bfbfbf" points="1088.5073,-385.5 1088.5073,-403.5 1140.6206,-403.5 1140.6206,-385.5 1088.5073,-385.5"/>
<text text-anchor="middle" x="1114.564" y="-391.5" font-family="Arial.ttf" font-size="10.00" fill="#000000">memory</text>
</a>
</g>
</g>
<!-- Node2&#45;&gt;Node21 -->
<g id="edge20" class="edge">
<title>Node2&#45;&gt;Node21</title>
<path fill="none" stroke="#191970" d="M1364.7458,-445.3099C1322.1723,-438.2539 1234.3951,-423.0895 1150.7896,-404.1483"/>
<polygon fill="#191970" stroke="#191970" points="1151.4103,-400.6999 1140.8815,-401.8809 1149.8488,-407.5235 1151.4103,-400.6999"/>
</g>
<!-- Node22 -->
<g id="node22" class="node">
<title>Node22</title>
<g id="a_node22"><a xlink:title=" ">
<polygon fill="#ffffff" stroke="#bfbfbf" points="1158.4482,-385.5 1158.4482,-403.5 1206.6797,-403.5 1206.6797,-385.5 1158.4482,-385.5"/>
<text text-anchor="middle" x="1182.564" y="-391.5" font-family="Arial.ttf" font-size="10.00" fill="#000000">cassert</text>
</a>
</g>
</g>
<!-- Node2&#45;&gt;Node22 -->
<g id="edge21" class="edge">
<title>Node2&#45;&gt;Node22</title>
<path fill="none" stroke="#191970" d="M1365.0048,-443.0756C1332.6709,-434.9006 1275.0433,-420.1722 1216.4795,-404.2024"/>
<polygon fill="#191970" stroke="#191970" points="1217.2634,-400.7884 1206.6942,-401.5247 1215.4158,-407.5401 1217.2634,-400.7884"/>
</g>
<!-- Node23 -->
<g id="node23" class="node">
<title>Node23</title>
<g id="a_node23"><a xlink:title=" ">
<polygon fill="#ffffff" stroke="#bfbfbf" points="2054.6133,-.5 2054.6133,-18.5 2094.5146,-18.5 2094.5146,-.5 2054.6133,-.5"/>
<text text-anchor="middle" x="2074.564" y="-6.5" font-family="Arial.ttf" font-size="10.00" fill="#000000">cfloat</text>
</a>
</g>
</g>
<!-- Node2&#45;&gt;Node23 -->
<g id="edge22" class="edge">
<title>Node2&#45;&gt;Node23</title>
<path fill="none" stroke="#191970" d="M1416.42,-441.637C1419.1512,-440.9983 1421.9023,-440.4333 1424.564,-440 1581.5869,-414.4365 1993.3176,-466.6233 2139.564,-404 2200.9318,-377.722 2230.564,-351.2573 2230.564,-284.5 2230.564,-284.5 2230.564,-284.5 2230.564,-119.5 2230.564,-58.4723 2149.838,-28.3238 2104.5276,-16.2085"/>
<polygon fill="#191970" stroke="#191970" points="2105.1925,-12.7663 2094.6389,-13.6995 2103.471,-19.5514 2105.1925,-12.7663"/>
</g>
<!-- Node24 -->
<g id="node24" class="node">
<title>Node24</title>
<g id="a_node24"><a xlink:title=" ">
<polygon fill="#ffffff" stroke="#bfbfbf" points="1306.6772,-385.5 1306.6772,-403.5 1350.4507,-403.5 1350.4507,-385.5 1306.6772,-385.5"/>
<text text-anchor="middle" x="1328.564" y="-391.5" font-family="Arial.ttf" font-size="10.00" fill="#000000">climits</text>
</a>
</g>
</g>
<!-- Node2&#45;&gt;Node24 -->
<g id="edge23" class="edge">
<title>Node2&#45;&gt;Node24</title>
<path fill="none" stroke="#191970" d="M1380.3259,-440.4179C1371.2266,-432.3458 1357.7103,-420.3556 1346.7713,-410.6517"/>
<polygon fill="#191970" stroke="#191970" points="1348.8279,-407.7974 1339.0244,-403.7795 1344.1826,-413.0339 1348.8279,-407.7974"/>
</g>
<!-- Node25 -->
<g id="node25" class="node">
<title>Node25</title>
<g id="a_node25"><a xlink:title=" ">
<polygon fill="#ffffff" stroke="#bfbfbf" points="1368.9482,-385.5 1368.9482,-403.5 1412.1797,-403.5 1412.1797,-385.5 1368.9482,-385.5"/>
<text text-anchor="middle" x="1390.564" y="-391.5" font-family="Arial.ttf" font-size="10.00" fill="#000000">cmath</text>
</a>
</g>
</g>
<!-- Node2&#45;&gt;Node25 -->
<g id="edge24" class="edge">
<title>Node2&#45;&gt;Node25</title>
<path fill="none" stroke="#191970" d="M1390.564,-440.4179C1390.564,-433.2164 1390.564,-422.8962 1390.564,-413.8632"/>
<polygon fill="#191970" stroke="#191970" points="1394.0641,-413.7794 1390.564,-403.7795 1387.0641,-413.7795 1394.0641,-413.7794"/>
</g>
<!-- Node26 -->
<g id="node26" class="node">
<title>Node26</title>
<g id="a_node26"><a xlink:title=" ">
<polygon fill="#ffffff" stroke="#bfbfbf" points="1430.5024,-385.5 1430.5024,-403.5 1472.6255,-403.5 1472.6255,-385.5 1430.5024,-385.5"/>
<text text-anchor="middle" x="1451.564" y="-391.5" font-family="Arial.ttf" font-size="10.00" fill="#000000">cstdio</text>
</a>
</g>
</g>
<!-- Node2&#45;&gt;Node26 -->
<g id="edge25" class="edge">
<title>Node2&#45;&gt;Node26</title>
<path fill="none" stroke="#191970" d="M1400.6369,-440.4179C1409.5895,-432.3458 1422.8877,-420.3556 1433.6503,-410.6517"/>
<polygon fill="#191970" stroke="#191970" points="1436.189,-413.0753 1441.2722,-403.7795 1431.5016,-407.8764 1436.189,-413.0753"/>
</g>
<!-- Node27 -->
<g id="node27" class="node">
<title>Node27</title>
<g id="a_node27"><a xlink:title=" ">
<polygon fill="#ffffff" stroke="#bfbfbf" points="1490.3916,-385.5 1490.3916,-403.5 1534.7363,-403.5 1534.7363,-385.5 1490.3916,-385.5"/>
<text text-anchor="middle" x="1512.564" y="-391.5" font-family="Arial.ttf" font-size="10.00" fill="#000000">cstdlib</text>
</a>
</g>
</g>
<!-- Node2&#45;&gt;Node27 -->
<g id="edge26" class="edge">
<title>Node2&#45;&gt;Node27</title>
<path fill="none" stroke="#191970" d="M1410.7098,-440.4179C1430.4005,-431.5409 1460.6025,-417.9253 1483.0112,-407.823"/>
<polygon fill="#191970" stroke="#191970" points="1484.7103,-410.8963 1492.3882,-403.5956 1481.8333,-404.5148 1484.7103,-410.8963"/>
</g>
<!-- Node28 -->
<g id="node28" class="node">
<title>Node28</title>
<g id="a_node28"><a xlink:title=" ">
<polygon fill="#ffffff" stroke="#bfbfbf" points="1552.8374,-385.5 1552.8374,-403.5 1598.2905,-403.5 1598.2905,-385.5 1552.8374,-385.5"/>
<text text-anchor="middle" x="1575.564" y="-391.5" font-family="Arial.ttf" font-size="10.00" fill="#000000">cstring</text>
</a>
</g>
</g>
<!-- Node2&#45;&gt;Node28 -->
<g id="edge27" class="edge">
<title>Node2&#45;&gt;Node28</title>
<path fill="none" stroke="#191970" d="M1416.2874,-441.8525C1449.27,-432.0469 1506.5063,-415.0306 1542.6372,-404.289"/>
<polygon fill="#191970" stroke="#191970" points="1544.0884,-407.5091 1552.6764,-401.3044 1542.0936,-400.7993 1544.0884,-407.5091"/>
</g>
<!-- Node29 -->
<g id="node29" class="node">
<title>Node29</title>
<g id="a_node29"><a xlink:href="_s_l_8h.html" target="_top" xlink:title=" ">
<polygon fill="#ffffff" stroke="#000000" points="1788.2783,-110.5 1788.2783,-128.5 1824.8496,-128.5 1824.8496,-110.5 1788.2783,-110.5"/>
<text text-anchor="middle" x="1806.564" y="-116.5" font-family="Arial.ttf" font-size="10.00" fill="#000000">SL.h</text>
</a>
</g>
</g>
<!-- Node2&#45;&gt;Node29 -->
<g id="edge28" class="edge">
<title>Node2&#45;&gt;Node29</title>
<path fill="none" stroke="#191970" d="M1416.4247,-441.6655C1419.155,-441.0213 1421.9046,-440.4472 1424.564,-440 1554.5377,-418.1438 1900.9864,-467.3458 2016.564,-404 2109.726,-352.9397 2099.8771,-235.6806 2020.564,-165 1993.362,-140.7587 1886.7404,-127.2969 1835.0156,-122.0726"/>
<polygon fill="#191970" stroke="#191970" points="1835.1522,-118.5694 1824.8596,-121.0819 1834.4726,-125.5363 1835.1522,-118.5694"/>
</g>
<!-- Node31 -->
<g id="node31" class="node">
<title>Node31</title>
<g id="a_node31"><a xlink:href="_s_l_enums_8h.html" target="_top" xlink:title=" ">
<polygon fill="#ffffff" stroke="#000000" points="1654.7168,-385.5 1654.7168,-403.5 1722.4111,-403.5 1722.4111,-385.5 1654.7168,-385.5"/>
<text text-anchor="middle" x="1688.564" y="-391.5" font-family="Arial.ttf" font-size="10.00" fill="#000000">SLEnums.h</text>
</a>
</g>
</g>
<!-- Node2&#45;&gt;Node31 -->
<g id="edge33" class="edge">
<title>Node2&#45;&gt;Node31</title>
<path fill="none" stroke="#191970" d="M1416.1095,-442.0454C1418.9511,-441.3107 1421.8119,-440.612 1424.564,-440 1519.5677,-418.8744 1544.8169,-421.4498 1640.564,-404 1641.8332,-403.7687 1643.1208,-403.5314 1644.4201,-403.2896"/>
<polygon fill="#191970" stroke="#191970" points="1645.3291,-406.6796 1654.4997,-401.374 1644.0221,-399.8027 1645.3291,-406.6796"/>
</g>
<!-- Node32 -->
<g id="node32" class="node">
<title>Node32</title>
<g id="a_node32"><a xlink:href="_s_l_g_l_state_8h.html" target="_top" xlink:title=" ">
<polygon fill="#ffffff" stroke="#000000" points="1778.9336,-385.5 1778.9336,-403.5 1852.1943,-403.5 1852.1943,-385.5 1778.9336,-385.5"/>
<text text-anchor="middle" x="1815.564" y="-391.5" font-family="Arial.ttf" font-size="10.00" fill="#000000">SLGLState.h</text>
</a>
</g>
</g>
<!-- Node2&#45;&gt;Node32 -->
<g id="edge34" class="edge">
<title>Node2&#45;&gt;Node32</title>
<path fill="none" stroke="#191970" d="M1416.0751,-441.8791C1418.9232,-441.1756 1421.7949,-440.5296 1424.564,-440 1573.8145,-411.4546 1614.199,-425.9304 1764.564,-404 1766.0122,-403.7888 1767.4821,-403.5661 1768.965,-403.3343"/>
<polygon fill="#191970" stroke="#191970" points="1769.5574,-406.7839 1778.8504,-401.6957 1768.4126,-399.8781 1769.5574,-406.7839"/>
</g>
<!-- Node33 -->
<g id="node33" class="node">
<title>Node33</title>
<g id="a_node33"><a xlink:href="_s_l_vec3_8h.html" target="_top" xlink:title=" ">
<polygon fill="#ffffff" stroke="#000000" points="1758.5239,-220.5 1758.5239,-238.5 1816.604,-238.5 1816.604,-220.5 1758.5239,-220.5"/>
<text text-anchor="middle" x="1787.564" y="-226.5" font-family="Arial.ttf" font-size="10.00" fill="#000000">SLVec3.h</text>
</a>
</g>
</g>
<!-- Node2&#45;&gt;Node33 -->
<g id="edge70" class="edge">
<title>Node2&#45;&gt;Node33</title>
<path fill="none" stroke="#191970" d="M1416.4349,-441.7241C1419.1632,-441.0685 1421.9096,-440.4757 1424.564,-440 1472.52,-431.4057 1828.5582,-439.8366 1861.564,-404 1883.9565,-379.6869 1825.6333,-286.0717 1799.4869,-246.8959"/>
<polygon fill="#191970" stroke="#191970" points="1802.3736,-244.9165 1793.8771,-238.5872 1796.5721,-248.8336 1802.3736,-244.9165"/>
</g>
<!-- Node34 -->
<g id="node34" class="node">
<title>Node34</title>
<g id="a_node34"><a xlink:href="_s_l_vec2_8h.html" target="_top" xlink:title=" ">
<polygon fill="#ffffff" stroke="#000000" points="1853.5239,-165.5 1853.5239,-183.5 1911.604,-183.5 1911.604,-165.5 1853.5239,-165.5"/>
<text text-anchor="middle" x="1882.564" y="-171.5" font-family="Arial.ttf" font-size="10.00" fill="#000000">SLVec2.h</text>
</a>
</g>
</g>
<!-- Node2&#45;&gt;Node34 -->
<g id="edge69" class="edge">
<title>Node2&#45;&gt;Node34</title>
<path fill="none" stroke="#191970" d="M1416.426,-441.6728C1419.156,-441.0272 1421.9052,-440.4507 1424.564,-440 1486.8028,-429.4485 1939.8719,-440.2344 1991.564,-404 2041.6567,-368.8867 2068.9296,-328.6645 2039.564,-275 2014.6071,-229.3922 1959.1487,-201.4491 1921.2968,-186.9602"/>
<polygon fill="#191970" stroke="#191970" points="1922.199,-183.5628 1911.6054,-183.3953 1919.7823,-190.1324 1922.199,-183.5628"/>
</g>
<!-- Node35 -->
<g id="node35" class="node">
<title>Node35</title>
<g id="a_node35"><a xlink:href="_s_l_vec4_8h.html" target="_top" xlink:title=" ">
<polygon fill="#ffffff" stroke="#000000" points="1568.5239,-275.5 1568.5239,-293.5 1626.604,-293.5 1626.604,-275.5 1568.5239,-275.5"/>
<text text-anchor="middle" x="1597.564" y="-281.5" font-family="Arial.ttf" font-size="10.00" fill="#000000">SLVec4.h</text>
</a>
</g>
</g>
<!-- Node2&#45;&gt;Node35 -->
<g id="edge71" class="edge">
<title>Node2&#45;&gt;Node35</title>
<path fill="none" stroke="#191970" d="M1416.128,-442.126C1418.9662,-441.3763 1421.8211,-440.6519 1424.564,-440 1505.2095,-420.832 1554.9102,-468.021 1607.564,-404 1631.1587,-375.3115 1617.0076,-328.5666 1606.2635,-302.8688"/>
<polygon fill="#191970" stroke="#191970" points="1609.3818,-301.2668 1602.1243,-293.548 1602.9842,-304.1079 1609.3818,-301.2668"/>
</g>
<!-- Node36 -->
<g id="node36" class="node">
<title>Node36</title>
<g id="a_node36"><a xlink:href="_s_l_mat4_8h.html" target="_top" xlink:title=" ">
<polygon fill="#ffffff" stroke="#ff0000" points="1654.1626,-330.5 1654.1626,-348.5 1712.9653,-348.5 1712.9653,-330.5 1654.1626,-330.5"/>
<text text-anchor="middle" x="1683.564" y="-336.5" font-family="Arial.ttf" font-size="10.00" fill="#000000">SLMat4.h</text>
</a>
</g>
</g>
<!-- Node2&#45;&gt;Node36 -->
<g id="edge58" class="edge">
<title>Node2&#45;&gt;Node36</title>
<path fill="none" stroke="#191970" d="M1416.0812,-441.9105C1418.9281,-441.2011 1421.7979,-440.5452 1424.564,-440 1491.9572,-426.7174 1685.909,-455.3215 1731.564,-404 1745.7557,-388.0468 1725.8491,-368.1293 1707.5269,-354.681"/>
<polygon fill="#191970" stroke="#191970" points="1709.0289,-351.4637 1698.8159,-348.6446 1705.0418,-357.2172 1709.0289,-351.4637"/>
</g>
<!-- Node38 -->
<g id="node38" class="node">
<title>Node38</title>
<g id="a_node38"><a xlink:href="_s_l_mat3_8h.html" target="_top" xlink:title=" ">
<polygon fill="#ffffff" stroke="#000000" points="1378.1626,-275.5 1378.1626,-293.5 1436.9653,-293.5 1436.9653,-275.5 1378.1626,-275.5"/>
<text text-anchor="middle" x="1407.564" y="-281.5" font-family="Arial.ttf" font-size="10.00" fill="#000000">SLMat3.h</text>
</a>
</g>
</g>
<!-- Node2&#45;&gt;Node38 -->
<g id="edge57" class="edge">
<title>Node2&#45;&gt;Node38</title>
<path fill="none" stroke="#191970" d="M1364.8501,-447.6434C1293.6975,-442.2471 1098.2085,-425.5708 1079.564,-404 997.2805,-308.8023 1264.2032,-289.4176 1368.0312,-285.4907"/>
<polygon fill="#191970" stroke="#191970" points="1368.2589,-288.985 1378.1308,-285.1384 1368.0148,-281.9893 1368.2589,-288.985"/>
</g>
<!-- Node42 -->
<g id="node39" class="node">
<title>Node42</title>
<g id="a_node39"><a xlink:href="_s_l_object_8h.html" target="_top" xlink:title=" ">
<polygon fill="#ffffff" stroke="#000000" points="2098.8276,-330.5 2098.8276,-348.5 2164.3003,-348.5 2164.3003,-330.5 2098.8276,-330.5"/>
<text text-anchor="middle" x="2131.564" y="-336.5" font-family="Arial.ttf" font-size="10.00" fill="#000000">SLObject.h</text>
</a>
</g>
</g>
<!-- Node2&#45;&gt;Node42 -->
<g id="edge59" class="edge">
<title>Node2&#45;&gt;Node42</title>
<path fill="none" stroke="#191970" d="M1416.4219,-441.6484C1419.1527,-441.0075 1421.9032,-440.4389 1424.564,-440 1497.0271,-428.0472 2020.0344,-439.0673 2084.564,-404 2102.9619,-394.002 2116.0172,-373.3305 2123.6262,-358.0716"/>
<polygon fill="#191970" stroke="#191970" points="2126.9996,-359.1155 2128.0225,-348.5702 2120.6467,-356.176 2126.9996,-359.1155"/>
</g>
<!-- Node43 -->
<g id="node40" class="node">
<title>Node43</title>
<g id="a_node40"><a xlink:href="_s_l_plane_8h.html" target="_top" xlink:title=" ">
<polygon fill="#ffffff" stroke="#000000" points="1968.4902,-275.5 1968.4902,-293.5 2030.6377,-293.5 2030.6377,-275.5 1968.4902,-275.5"/>
<text text-anchor="middle" x="1999.564" y="-281.5" font-family="Arial.ttf" font-size="10.00" fill="#000000">SLPlane.h</text>
</a>
</g>
</g>
<!-- Node2&#45;&gt;Node43 -->
<g id="edge61" class="edge">
<title>Node2&#45;&gt;Node43</title>
<path fill="none" stroke="#191970" d="M1416.4271,-441.6794C1419.1569,-441.0325 1421.9058,-440.454 1424.564,-440 1484.4946,-429.7649 1924.0346,-443.1339 1970.564,-404 1999.7278,-379.4715 2002.321,-331.0503 2001.2182,-303.9808"/>
<polygon fill="#191970" stroke="#191970" points="2004.7003,-303.5821 2000.586,-293.8187 1997.7138,-304.0168 2004.7003,-303.5821"/>
</g>
<!-- Node44 -->
<g id="node41" class="node">
<title>Node44</title>
<g id="a_node41"><a xlink:href="_s_l_quat4_8h.html" target="_top" xlink:title=" ">
<polygon fill="#ffffff" stroke="#000000" points="1224.6577,-385.5 1224.6577,-403.5 1288.4702,-403.5 1288.4702,-385.5 1224.6577,-385.5"/>
<text text-anchor="middle" x="1256.564" y="-391.5" font-family="Arial.ttf" font-size="10.00" fill="#000000">SLQuat4.h</text>
</a>
</g>
</g>
<!-- Node2&#45;&gt;Node44 -->
<g id="edge64" class="edge">
<title>Node2&#45;&gt;Node44</title>
<path fill="none" stroke="#191970" d="M1368.4366,-440.4179C1346.5181,-431.4215 1312.7418,-417.5581 1288.0349,-407.4172"/>
<polygon fill="#191970" stroke="#191970" points="1289.3043,-404.1549 1278.7242,-403.5956 1286.6463,-410.6306 1289.3043,-404.1549"/>
</g>
<!-- Node45 -->
<g id="node42" class="node">
<title>Node45</title>
<g id="a_node42"><a xlink:href="_s_l_vector_8h.html" target="_top" xlink:title=" ">
<polygon fill="#ffffff" stroke="#000000" points="1929.7432,-165.5 1929.7432,-183.5 1993.3848,-183.5 1993.3848,-165.5 1929.7432,-165.5"/>
<text text-anchor="middle" x="1961.564" y="-171.5" font-family="Arial.ttf" font-size="10.00" fill="#000000">SLVector.h</text>
</a>
</g>
</g>
<!-- Node2&#45;&gt;Node45 -->
<g id="edge72" class="edge">
<title>Node2&#45;&gt;Node45</title>
<path fill="none" stroke="#191970" d="M1416.4307,-441.7004C1419.1598,-441.0494 1421.9075,-440.4641 1424.564,-440 1478.2313,-430.6232 1872.5713,-439.8847 1913.564,-404 1945.1756,-376.3274 1957.0165,-244.0672 1960.4173,-193.8759"/>
<polygon fill="#191970" stroke="#191970" points="1963.9207,-193.9314 1961.0637,-183.7291 1956.9349,-193.4863 1963.9207,-193.9314"/>
</g>
<!-- Node46 -->
<g id="node43" class="node">
<title>Node46</title>
<g id="a_node43"><a xlink:href="_s_l_rect_8h.html" target="_top" xlink:title=" ">
<polygon fill="#ffffff" stroke="#ff0000" points="1854.9976,-275.5 1854.9976,-293.5 1912.1304,-293.5 1912.1304,-275.5 1854.9976,-275.5"/>
<text text-anchor="middle" x="1883.564" y="-281.5" font-family="Arial.ttf" font-size="10.00" fill="#000000">SLRect.h</text>
</a>
</g>
</g>
<!-- Node2&#45;&gt;Node46 -->
<g id="edge74" class="edge">
<title>Node2&#45;&gt;Node46</title>
<path fill="none" stroke="#191970" d="M1416.4321,-441.7084C1419.161,-441.0559 1421.9082,-440.4681 1424.564,-440 1476.1442,-430.9092 1858.9714,-442.423 1894.564,-404 1919.9372,-376.609 1904.3951,-329.0056 1892.7882,-302.9121"/>
<polygon fill="#191970" stroke="#191970" points="1895.904,-301.3132 1888.4789,-293.7555 1889.5704,-304.294 1895.904,-301.3132"/>
</g>
<!-- Node51 -->
<g id="node44" class="node">
<title>Node51</title>
<g id="a_node44"><a xlink:title=" ">
<polygon fill="#ffffff" stroke="#bfbfbf" points="2247.6973,-385.5 2247.6973,-403.5 2365.4307,-403.5 2365.4307,-385.5 2247.6973,-385.5"/>
<text text-anchor="middle" x="2306.564" y="-391.5" font-family="Arial.ttf" font-size="10.00" fill="#000000">opencv2/core/core.hpp</text>
</a>
</g>
</g>
<!-- Node2&#45;&gt;Node51 -->
<g id="edge78" class="edge">
<title>Node2&#45;&gt;Node51</title>
<path fill="none" stroke="#191970" d="M1416.4174,-441.621C1419.1491,-440.9855 1421.9011,-440.4256 1424.564,-440 1779.9658,-383.2045 1875.0119,-435.2512 2233.564,-404 2234.8531,-403.8876 2236.1545,-403.7693 2237.465,-403.6456"/>
<polygon fill="#191970" stroke="#191970" points="2238.0523,-407.1039 2247.6441,-402.6041 2237.3397,-400.1403 2238.0523,-407.1039"/>
</g>
<!-- Node52 -->
<g id="node45" class="node">
<title>Node52</title>
<g id="a_node45"><a xlink:title=" ">
<polygon fill="#ffffff" stroke="#bfbfbf" points="2383.4009,-385.5 2383.4009,-403.5 2503.7271,-403.5 2503.7271,-385.5 2383.4009,-385.5"/>
<text text-anchor="middle" x="2443.564" y="-391.5" font-family="Arial.ttf" font-size="10.00" fill="#000000">opencv2/core/utility.hpp</text>
</a>
</g>
</g>
<!-- Node2&#45;&gt;Node52 -->
<g id="edge79" class="edge">
<title>Node2&#45;&gt;Node52</title>
<path fill="none" stroke="#191970" d="M1416.4146,-441.6029C1419.1468,-440.9709 1421.8997,-440.4168 1424.564,-440 1838.7514,-375.2097 1951.8866,-439.8344 2373.3786,-404.0065"/>
<polygon fill="#191970" stroke="#191970" points="2373.7312,-407.4892 2383.3928,-403.1414 2373.1286,-400.5152 2373.7312,-407.4892"/>
</g>
<!-- Node53 -->
<g id="node46" class="node">
<title>Node53</title>
<g id="a_node46"><a xlink:title=" ">
<polygon fill="#ffffff" stroke="#bfbfbf" points="2521.4141,-385.5 2521.4141,-403.5 2629.7139,-403.5 2629.7139,-385.5 2521.4141,-385.5"/>
<text text-anchor="middle" x="2575.564" y="-391.5" font-family="Arial.ttf" font-size="10.00" fill="#000000">opencv2/highgui.hpp</text>
</a>
</g>
</g>
<!-- Node2&#45;&gt;Node53 -->
<g id="edge80" class="edge">
<title>Node2&#45;&gt;Node53</title>
<path fill="none" stroke="#191970" d="M1416.4125,-441.5897C1419.1452,-440.9603 1421.8987,-440.4104 1424.564,-440 1899.4804,-366.8774 2028.9955,-447.035 2511.307,-403.9968"/>
<polygon fill="#191970" stroke="#191970" points="2511.673,-407.4781 2521.3166,-403.0905 2511.0417,-400.5066 2511.673,-407.4781"/>
</g>
<!-- Node54 -->
<g id="node47" class="node">
<title>Node54</title>
<g id="a_node47"><a xlink:title=" ">
<polygon fill="#ffffff" stroke="#bfbfbf" points="2647.7563,-385.5 2647.7563,-403.5 2759.3716,-403.5 2759.3716,-385.5 2647.7563,-385.5"/>
<text text-anchor="middle" x="2703.564" y="-391.5" font-family="Arial.ttf" font-size="10.00" fill="#000000">opencv2/imgproc.hpp</text>
</a>
</g>
</g>
<!-- Node2&#45;&gt;Node54 -->
<g id="edge81" class="edge">
<title>Node2&#45;&gt;Node54</title>
<path fill="none" stroke="#191970" d="M1416.4111,-441.5803C1419.144,-440.9527 1421.898,-440.4058 1424.564,-440 1954.953,-359.2675 2099.0754,-449.9895 2637.6257,-403.9628"/>
<polygon fill="#191970" stroke="#191970" points="2637.9317,-407.4494 2647.5922,-403.0993 2637.3274,-400.4756 2637.9317,-407.4494"/>
</g>
<!-- Node55 -->
<g id="node48" class="node">
<title>Node55</title>
<g id="a_node48"><a xlink:title=" ">
<polygon fill="#ffffff" stroke="#bfbfbf" points="2777.6948,-385.5 2777.6948,-403.5 2885.4331,-403.5 2885.4331,-385.5 2777.6948,-385.5"/>
<text text-anchor="middle" x="2831.564" y="-391.5" font-family="Arial.ttf" font-size="10.00" fill="#000000">opencv2/calib3d.hpp</text>
</a>
</g>
</g>
<!-- Node2&#45;&gt;Node55 -->
<g id="edge82" class="edge">
<title>Node2&#45;&gt;Node55</title>
<path fill="none" stroke="#191970" d="M1416.4099,-441.5725C1419.1431,-440.9464 1421.8974,-440.402 1424.564,-440 1716.8261,-395.9421 2454.871,-429.5846 2767.6231,-403.9305"/>
<polygon fill="#191970" stroke="#191970" points="2767.9939,-407.4116 2777.6599,-403.0736 2767.3984,-400.437 2767.9939,-407.4116"/>
</g>
<!-- Node56 -->
<g id="node49" class="node">
<title>Node56</title>
<g id="a_node49"><a xlink:title=" ">
<polygon fill="#ffffff" stroke="#bfbfbf" points="2903.6899,-385.5 2903.6899,-403.5 3041.438,-403.5 3041.438,-385.5 2903.6899,-385.5"/>
<text text-anchor="middle" x="2972.564" y="-391.5" font-family="Arial.ttf" font-size="10.00" fill="#000000">opencv2/video/tracking.hpp</text>
</a>
</g>
</g>
<!-- Node2&#45;&gt;Node56 -->
<g id="edge83" class="edge">
<title>Node2&#45;&gt;Node56</title>
<path fill="none" stroke="#191970" d="M1416.409,-441.5662C1419.1423,-440.9414 1421.8969,-440.3989 1424.564,-440 1744.4986,-392.1459 2552.281,-427.0663 2893.0821,-404.009"/>
<polygon fill="#191970" stroke="#191970" points="2893.5458,-407.4851 2903.2754,-403.2916 2893.0543,-400.5024 2893.5458,-407.4851"/>
</g>
<!-- Node30 -->
<g id="node30" class="node">
<title>Node30</title>
<g id="a_node30"><a xlink:href="_utils_8h.html" target="_top" xlink:title=" ">
<polygon fill="#ffffff" stroke="#000000" points="1575.6724,-55.5 1575.6724,-73.5 1619.4556,-73.5 1619.4556,-55.5 1575.6724,-55.5"/>
<text text-anchor="middle" x="1597.564" y="-61.5" font-family="Arial.ttf" font-size="10.00" fill="#000000">Utils.h</text>
</a>
</g>
</g>
<!-- Node29&#45;&gt;Node30 -->
<g id="edge29" class="edge">
<title>Node29&#45;&gt;Node30</title>
<path fill="none" stroke="#191970" d="M1788.0166,-114.6191C1752.3163,-105.2243 1673.6736,-84.5288 1629.423,-72.8839"/>
<polygon fill="#191970" stroke="#191970" points="1630.0449,-69.4285 1619.4834,-70.2683 1628.2634,-76.198 1630.0449,-69.4285"/>
</g>
<!-- Node30&#45;&gt;Node17 -->
<g id="edge30" class="edge">
<title>Node30&#45;&gt;Node17</title>
<path fill="none" stroke="#191970" d="M1575.4696,-61.6204C1505.1927,-52.4611 1286.7086,-23.9857 1205.9609,-13.4617"/>
<polygon fill="#191970" stroke="#191970" points="1206.312,-9.9779 1195.9435,-12.1561 1205.4073,-16.9192 1206.312,-9.9779"/>
</g>
<!-- Node30&#45;&gt;Node20 -->
<g id="edge31" class="edge">
<title>Node30&#45;&gt;Node20</title>
<path fill="none" stroke="#191970" d="M1619.5889,-55.7851C1642.6679,-46.6531 1679.126,-32.2273 1705.2048,-21.9083"/>
<polygon fill="#191970" stroke="#191970" points="1706.6313,-25.108 1714.642,-18.1741 1704.0557,-18.599 1706.6313,-25.108"/>
</g>
<!-- Node30&#45;&gt;Node23 -->
<g id="edge32" class="edge">
<title>Node30&#45;&gt;Node23</title>
<path fill="none" stroke="#191970" d="M1619.614,-61.9575C1696.9079,-53.0452 1955.6792,-23.2079 2044.4073,-12.9772"/>
<polygon fill="#191970" stroke="#191970" points="2044.828,-16.452 2054.3613,-11.8295 2044.0262,-9.498 2044.828,-16.452"/>
</g>
<!-- Node32&#45;&gt;Node33 -->
<g id="edge35" class="edge">
<title>Node32&#45;&gt;Node33</title>
<path fill="none" stroke="#191970" d="M1813.9783,-385.1561C1809.5313,-358.9504 1796.8728,-284.3557 1790.8395,-248.8021"/>
<polygon fill="#191970" stroke="#191970" points="1794.256,-248.0149 1789.1322,-238.7414 1787.3547,-249.186 1794.256,-248.0149"/>
</g>
<!-- Node32&#45;&gt;Node35 -->
<g id="edge41" class="edge">
<title>Node32&#45;&gt;Node35</title>
<path fill="none" stroke="#191970" d="M1804.2836,-385.3667C1787.2056,-371.8713 1753.3962,-346.4322 1721.564,-330 1694.2526,-315.9016 1661.5487,-304.0935 1636.5857,-296.0422"/>
<polygon fill="#191970" stroke="#191970" points="1637.3326,-292.6077 1626.7428,-292.9321 1635.2236,-299.2824 1637.3326,-292.6077"/>
</g>
<!-- Node32&#45;&gt;Node36 -->
<g id="edge46" class="edge">
<title>Node32&#45;&gt;Node36</title>
<path fill="none" stroke="#191970" d="M1793.7668,-385.4179C1772.271,-376.4613 1739.1975,-362.6806 1714.8888,-352.552"/>
<polygon fill="#191970" stroke="#191970" points="1715.9704,-349.2111 1705.3935,-348.5956 1713.2781,-355.6726 1715.9704,-349.2111"/>
</g>
<!-- Node33&#45;&gt;Node29 -->
<g id="edge36" class="edge">
<title>Node33&#45;&gt;Node29</title>
<path fill="none" stroke="#191970" d="M1789.1188,-220.4982C1792.1946,-202.6913 1799.1155,-162.6225 1803.256,-138.6515"/>
<polygon fill="#191970" stroke="#191970" points="1806.7344,-139.076 1804.9876,-128.6261 1799.8366,-137.8845 1806.7344,-139.076"/>
</g>
<!-- Node33&#45;&gt;Node30 -->
<g id="edge40" class="edge">
<title>Node33&#45;&gt;Node30</title>
<path fill="none" stroke="#191970" d="M1777.0781,-220.3939C1746.2674,-193.6372 1655.7108,-114.996 1616.2743,-80.7484"/>
<polygon fill="#191970" stroke="#191970" points="1618.0969,-77.6957 1608.2516,-73.7814 1613.5071,-82.9809 1618.0969,-77.6957"/>
</g>
<!-- Node33&#45;&gt;Node34 -->
<g id="edge37" class="edge">
<title>Node33&#45;&gt;Node34</title>
<path fill="none" stroke="#191970" d="M1803.2513,-220.4179C1818.1029,-211.8195 1840.6338,-198.7754 1857.8909,-188.7844"/>
<polygon fill="#191970" stroke="#191970" points="1859.9527,-191.635 1866.8533,-183.5956 1856.4454,-185.577 1859.9527,-191.635"/>
</g>
<!-- Node34&#45;&gt;Node29 -->
<g id="edge38" class="edge">
<title>Node34&#45;&gt;Node29</title>
<path fill="none" stroke="#191970" d="M1870.0141,-165.4179C1858.4628,-157.0584 1841.1048,-144.4966 1827.4625,-134.6239"/>
<polygon fill="#191970" stroke="#191970" points="1829.2856,-131.6229 1819.1325,-128.5956 1825.1817,-137.2938 1829.2856,-131.6229"/>
</g>
<!-- Node34&#45;&gt;Node30 -->
<g id="edge39" class="edge">
<title>Node34&#45;&gt;Node30</title>
<path fill="none" stroke="#191970" d="M1878.3324,-165.3035C1871.2416,-151.0002 1855.5448,-123.6523 1833.564,-110 1799.8477,-89.0588 1685.9156,-74.1148 1629.6072,-67.8191"/>
<polygon fill="#191970" stroke="#191970" points="1629.7965,-64.319 1619.4751,-66.7104 1629.035,-71.2775 1629.7965,-64.319"/>
</g>
<!-- Node35&#45;&gt;Node29 -->
<g id="edge42" class="edge">
<title>Node35&#45;&gt;Node29</title>
<path fill="none" stroke="#191970" d="M1601.3668,-275.2573C1610.9669,-253.0301 1638.318,-196.1271 1678.564,-165 1708.1749,-142.0983 1750.2725,-130.1044 1777.9902,-124.2961"/>
<polygon fill="#191970" stroke="#191970" points="1778.7131,-127.7211 1787.8532,-122.363 1777.3667,-120.8518 1778.7131,-127.7211"/>
</g>
<!-- Node35&#45;&gt;Node30 -->
<g id="edge45" class="edge">
<title>Node35&#45;&gt;Node30</title>
<path fill="none" stroke="#191970" d="M1597.564,-275.327C1597.564,-242.3409 1597.564,-129.2972 1597.564,-83.7484"/>
<polygon fill="#191970" stroke="#191970" points="1601.0641,-83.7122 1597.564,-73.7122 1594.0641,-83.7122 1601.0641,-83.7122"/>
</g>
<!-- Node35&#45;&gt;Node33 -->
<g id="edge44" class="edge">
<title>Node35&#45;&gt;Node33</title>
<path fill="none" stroke="#191970" d="M1626.8351,-276.0268C1659.4712,-266.5795 1712.4069,-251.256 1748.5435,-240.7954"/>
<polygon fill="#191970" stroke="#191970" points="1749.6272,-244.1255 1758.2596,-237.9828 1747.6807,-237.4015 1749.6272,-244.1255"/>
</g>
<!-- Node35&#45;&gt;Node34 -->
<g id="edge43" class="edge">
<title>Node35&#45;&gt;Node34</title>
<path fill="none" stroke="#191970" d="M1617.5387,-275.4817C1646.4208,-262.5663 1701.6399,-238.3386 1749.564,-220 1781.2943,-207.8581 1817.8459,-195.4663 1844.5916,-186.6872"/>
<polygon fill="#191970" stroke="#191970" points="1845.9115,-189.9381 1854.3315,-183.5074 1843.7391,-183.2837 1845.9115,-189.9381"/>
</g>
<!-- Node36&#45;&gt;Node29 -->
<g id="edge47" class="edge">
<title>Node36&#45;&gt;Node29</title>
<path fill="none" stroke="#191970" d="M1679.3985,-330.455C1674.1402,-317.7133 1666.5759,-293.9212 1673.564,-275 1696.1758,-213.7746 1754.8354,-160.3369 1786.1545,-135.044"/>
<polygon fill="#191970" stroke="#191970" points="1788.5376,-137.6216 1794.2104,-128.6733 1784.1956,-132.1309 1788.5376,-137.6216"/>
</g>
<!-- Node36&#45;&gt;Node30 -->
<g id="edge49" class="edge">
<title>Node36&#45;&gt;Node30</title>
<path fill="none" stroke="#191970" d="M1654.0287,-338.0212C1594.251,-333.2747 1464.564,-313.3185 1464.564,-229.5 1464.564,-229.5 1464.564,-229.5 1464.564,-174.5 1464.564,-122.0155 1526.826,-89.8563 1566.1501,-74.779"/>
<polygon fill="#191970" stroke="#191970" points="1567.4188,-78.0417 1575.6017,-71.3118 1565.0081,-71.4699 1567.4188,-78.0417"/>
</g>
<!-- Node36&#45;&gt;Node33 -->
<g id="edge55" class="edge">
<title>Node36&#45;&gt;Node33</title>
<path fill="none" stroke="#191970" d="M1693.7657,-330.3633C1703.675,-321.3658 1719.0189,-307.1055 1731.564,-294 1746.5371,-278.3579 1762.648,-259.576 1773.7275,-246.3247"/>
<polygon fill="#191970" stroke="#191970" points="1776.5253,-248.434 1780.2193,-238.504 1771.1391,-243.9631 1776.5253,-248.434"/>
</g>
<!-- Node36&#45;&gt;Node35 -->
<g id="edge56" class="edge">
<title>Node36&#45;&gt;Node35</title>
<path fill="none" stroke="#191970" d="M1669.3628,-330.4179C1656.0426,-321.8992 1635.8989,-309.0166 1620.3348,-299.0627"/>
<polygon fill="#191970" stroke="#191970" points="1622.0965,-296.0348 1611.7862,-293.5956 1618.325,-301.932 1622.0965,-296.0348"/>
</g>
<!-- Node37 -->
<g id="node37" class="node">
<title>Node37</title>
<g id="a_node37"><a xlink:title=" ">
<polygon fill="#ffffff" stroke="#bfbfbf" points="1682.894,-275.5 1682.894,-293.5 1722.2339,-293.5 1722.2339,-275.5 1682.894,-275.5"/>
<text text-anchor="middle" x="1702.564" y="-281.5" font-family="Arial.ttf" font-size="10.00" fill="#000000">stack</text>
</a>
</g>
</g>
<!-- Node36&#45;&gt;Node37 -->
<g id="edge48" class="edge">
<title>Node36&#45;&gt;Node37</title>
<path fill="none" stroke="#191970" d="M1686.7014,-330.4179C1689.2439,-323.0581 1692.9116,-312.441 1696.08,-303.2695"/>
<polygon fill="#191970" stroke="#191970" points="1699.4012,-304.3742 1699.3583,-293.7795 1692.7849,-302.0885 1699.4012,-304.3742"/>
</g>
<!-- Node36&#45;&gt;Node38 -->
<g id="edge50" class="edge">
<title>Node36&#45;&gt;Node38</title>
<path fill="none" stroke="#191970" d="M1654.0923,-333.9854C1609.8334,-325.6494 1523.5997,-309.1967 1450.564,-294 1449.4786,-293.7742 1448.3783,-293.5435 1447.2682,-293.3091"/>
<polygon fill="#191970" stroke="#191970" points="1447.6635,-289.8143 1437.1515,-291.137 1446.1939,-296.6583 1447.6635,-289.8143"/>
</g>
<!-- Node38&#45;&gt;Node11 -->
<g id="edge54" class="edge">
<title>Node38&#45;&gt;Node11</title>
<path fill="none" stroke="#191970" d="M1377.94,-279.9991C1312.4356,-270.0468 1155.3913,-246.1865 1083.1221,-235.2063"/>
<polygon fill="#191970" stroke="#191970" points="1083.5078,-231.7249 1073.0955,-233.683 1082.4563,-238.6454 1083.5078,-231.7249"/>
</g>
<!-- Node38&#45;&gt;Node29 -->
<g id="edge51" class="edge">
<title>Node38&#45;&gt;Node29</title>
<path fill="none" stroke="#191970" d="M1413.4933,-275.4253C1428.9802,-252.5516 1473.168,-192.4123 1526.564,-165 1570.1681,-142.6146 1715.2415,-127.5326 1777.6312,-121.93"/>
<polygon fill="#191970" stroke="#191970" points="1778.2802,-125.3865 1787.9351,-121.0238 1777.6668,-118.4134 1778.2802,-125.3865"/>
</g>
<!-- Node38&#45;&gt;Node30 -->
<g id="edge52" class="edge">
<title>Node38&#45;&gt;Node30</title>
<path fill="none" stroke="#191970" d="M1406.9366,-275.4765C1405.4782,-247.0445 1404.9665,-158.3493 1450.564,-110 1466.313,-93.3005 1527.1561,-78.5185 1565.4568,-70.6043"/>
<polygon fill="#191970" stroke="#191970" points="1566.4944,-73.9657 1575.6055,-68.5584 1565.111,-67.1037 1566.4944,-73.9657"/>
</g>
<!-- Node38&#45;&gt;Node33 -->
<g id="edge53" class="edge">
<title>Node38&#45;&gt;Node33</title>
<path fill="none" stroke="#191970" d="M1437.0657,-280.23C1504.8502,-270.4191 1671.7375,-246.2644 1748.1762,-235.2009"/>
<polygon fill="#191970" stroke="#191970" points="1748.9465,-238.6259 1758.342,-233.7295 1747.9437,-231.6981 1748.9465,-238.6259"/>
</g>
<!-- Node42&#45;&gt;Node29 -->
<g id="edge60" class="edge">
<title>Node42&#45;&gt;Node29</title>
<path fill="none" stroke="#191970" d="M2133.819,-330.3296C2140.3168,-301.4618 2155.8553,-211.6149 2110.564,-165 2091.463,-145.3409 1907.2181,-127.9306 1835.205,-121.8218"/>
<polygon fill="#191970" stroke="#191970" points="1835.2964,-118.3173 1825.0394,-120.9716 1834.7129,-125.293 1835.2964,-118.3173"/>
</g>
<!-- Node43&#45;&gt;Node29 -->
<g id="edge62" class="edge">
<title>Node43&#45;&gt;Node29</title>
<path fill="none" stroke="#191970" d="M2003.2662,-275.4964C2011.5284,-253.7999 2028.7698,-197.9861 2002.564,-165 1981.9656,-139.0721 1884.3784,-126.5927 1835.1328,-121.8628"/>
<polygon fill="#191970" stroke="#191970" points="1835.4008,-118.3728 1825.1229,-120.9445 1834.7613,-125.3435 1835.4008,-118.3728"/>
</g>
<!-- Node43&#45;&gt;Node33 -->
<g id="edge63" class="edge">
<title>Node43&#45;&gt;Node33</title>
<path fill="none" stroke="#191970" d="M1968.2826,-276.3846C1930.6949,-266.633 1867.6034,-250.2649 1826.7904,-239.6767"/>
<polygon fill="#191970" stroke="#191970" points="1827.4818,-236.2402 1816.9233,-237.1168 1825.7239,-243.0159 1827.4818,-236.2402"/>
</g>
<!-- Node44&#45;&gt;Node29 -->
<g id="edge65" class="edge">
<title>Node44&#45;&gt;Node29</title>
<path fill="none" stroke="#191970" d="M1288.5903,-385.6026C1362.8635,-364.5158 1540.564,-311.2679 1540.564,-284.5 1540.564,-284.5 1540.564,-284.5 1540.564,-229.5 1540.564,-178.6252 1708.8271,-139.0936 1777.7,-125.0435"/>
<polygon fill="#191970" stroke="#191970" points="1778.7411,-128.4046 1787.8594,-123.0095 1777.3668,-121.5408 1778.7411,-128.4046"/>
</g>
<!-- Node44&#45;&gt;Node30 -->
<g id="edge68" class="edge">
<title>Node44&#45;&gt;Node30</title>
<path fill="none" stroke="#191970" d="M1263.2039,-385.3128C1275.7214,-367.0598 1301.564,-324.5289 1301.564,-284.5 1301.564,-284.5 1301.564,-284.5 1301.564,-174.5 1301.564,-118.7367 1488.481,-82.1362 1565.246,-69.456"/>
<polygon fill="#191970" stroke="#191970" points="1566.0036,-72.879 1575.3159,-67.826 1564.8851,-65.969 1566.0036,-72.879"/>
</g>
<!-- Node44&#45;&gt;Node35 -->
<g id="edge67" class="edge">
<title>Node44&#45;&gt;Node35</title>
<path fill="none" stroke="#191970" d="M1288.7365,-386.7619C1291.7137,-386.1315 1294.6903,-385.5331 1297.564,-385 1410.9664,-363.962 1456.904,-410.3617 1554.564,-349 1571.6003,-338.2958 1583.4033,-318.0968 1590.2754,-303.1432"/>
<polygon fill="#191970" stroke="#191970" points="1593.552,-304.3818 1594.2489,-293.8099 1587.1114,-301.6398 1593.552,-304.3818"/>
</g>
<!-- Node44&#45;&gt;Node36 -->
<g id="edge66" class="edge">
<title>Node44&#45;&gt;Node36</title>
<path fill="none" stroke="#191970" d="M1288.7245,-386.6948C1291.7042,-386.0785 1294.6847,-385.5017 1297.564,-385 1331.1689,-379.1446 1552.5107,-354.1519 1644.0475,-343.9071"/>
<polygon fill="#191970" stroke="#191970" points="1644.4853,-347.3801 1654.0343,-342.7903 1643.7073,-340.4234 1644.4853,-347.3801"/>
</g>
<!-- Node45&#45;&gt;Node29 -->
<g id="edge73" class="edge">
<title>Node45&#45;&gt;Node29</title>
<path fill="none" stroke="#191970" d="M1935.9689,-165.4179C1907.9713,-155.4833 1863.2477,-139.6136 1834.3954,-129.3757"/>
<polygon fill="#191970" stroke="#191970" points="1835.5001,-126.0539 1824.9053,-126.0082 1833.1591,-132.6509 1835.5001,-126.0539"/>
</g>
<!-- Node46&#45;&gt;Node29 -->
<g id="edge75" class="edge">
<title>Node46&#45;&gt;Node29</title>
<path fill="none" stroke="#191970" d="M1879.2035,-275.1561C1866.8683,-248.7235 1831.5588,-173.0604 1815.1448,-137.8875"/>
<polygon fill="#191970" stroke="#191970" points="1818.2772,-136.3231 1810.8766,-128.7414 1811.9339,-139.2834 1818.2772,-136.3231"/>
</g>
<!-- Node46&#45;&gt;Node33 -->
<g id="edge77" class="edge">
<title>Node46&#45;&gt;Node33</title>
<path fill="none" stroke="#191970" d="M1867.7115,-275.4179C1852.7035,-266.8195 1829.9355,-253.7754 1812.4968,-243.7844"/>
<polygon fill="#191970" stroke="#191970" points="1813.8567,-240.5299 1803.44,-238.5956 1810.3769,-246.6037 1813.8567,-240.5299"/>
</g>
<!-- Node46&#45;&gt;Node34 -->
<g id="edge76" class="edge">
<title>Node46&#45;&gt;Node34</title>
<path fill="none" stroke="#191970" d="M1883.4821,-275.4982C1883.3202,-257.6913 1882.956,-217.6225 1882.7381,-193.6515"/>
<polygon fill="#191970" stroke="#191970" points="1886.2378,-193.5939 1882.6469,-183.6261 1879.2381,-193.6576 1886.2378,-193.5939"/>
</g>
</g>
</svg>
