<?xml version="1.0" encoding="UTF-8" standalone="no"?>
<!DOCTYPE svg PUBLIC "-//W3C//DTD SVG 1.1//EN"
 "http://www.w3.org/Graphics/SVG/1.1/DTD/svg11.dtd">
<!-- Generated by graphviz version 2.40.1 (20161225.0304)
 -->
<!-- Title: SLEventHandler.h Pages: 1 -->
<svg width="192pt" height="192pt"
 viewBox="0.00 0.00 192.07 192.00" xmlns="http://www.w3.org/2000/svg" xmlns:xlink="http://www.w3.org/1999/xlink">
<g id="graph0" class="graph" transform="scale(1 1) rotate(0) translate(4 188)">
<title>SLEventHandler.h</title>
<polygon fill="#ffffff" stroke="transparent" points="-4,4 -4,-188 188.0737,-188 188.0737,4 -4,4"/>
<!-- Node1 -->
<g id="node1" class="node">
<title>Node1</title>
<g id="a_node1"><a xlink:title=" ">
<polygon fill="#bfbfbf" stroke="#000000" points="66.9189,-165.5 66.9189,-183.5 163.5342,-183.5 163.5342,-165.5 66.9189,-165.5"/>
<text text-anchor="middle" x="115.2266" y="-171.5" font-family="Arial.ttf" font-size="10.00" fill="#000000">SLEventHandler.h</text>
</a>
</g>
</g>
<!-- Node2 -->
<g id="node2" class="node">
<title>Node2</title>
<g id="a_node2"><a xlink:href="_s_l_8h.html" target="_top" xlink:title=" ">
<polygon fill="#ffffff" stroke="#000000" points="61.9409,-110.5 61.9409,-128.5 98.5122,-128.5 98.5122,-110.5 61.9409,-110.5"/>
<text text-anchor="middle" x="80.2266" y="-116.5" font-family="Arial.ttf" font-size="10.00" fill="#000000">SL.h</text>
</a>
</g>
</g>
<!-- Node1&#45;&gt;Node2 -->
<g id="edge1" class="edge">
<title>Node1&#45;&gt;Node2</title>
<path fill="none" stroke="#191970" d="M109.447,-165.4179C104.6124,-157.8207 97.5692,-146.7527 91.609,-137.3866"/>
<polygon fill="#191970" stroke="#191970" points="94.4533,-135.337 86.1317,-128.7795 88.5477,-139.0952 94.4533,-135.337"/>
</g>
<!-- Node7 -->
<g id="node7" class="node">
<title>Node7</title>
<g id="a_node7"><a xlink:href="_s_l_enums_8h.html" target="_top" xlink:title=" ">
<polygon fill="#ffffff" stroke="#000000" points="116.3794,-110.5 116.3794,-128.5 184.0737,-128.5 184.0737,-110.5 116.3794,-110.5"/>
<text text-anchor="middle" x="150.2266" y="-116.5" font-family="Arial.ttf" font-size="10.00" fill="#000000">SLEnums.h</text>
</a>
</g>
</g>
<!-- Node1&#45;&gt;Node7 -->
<g id="edge6" class="edge">
<title>Node1&#45;&gt;Node7</title>
<path fill="none" stroke="#191970" d="M121.0061,-165.4179C125.8407,-157.8207 132.884,-146.7527 138.8442,-137.3866"/>
<polygon fill="#191970" stroke="#191970" points="141.9055,-139.0952 144.3215,-128.7795 135.9998,-135.337 141.9055,-139.0952"/>
</g>
<!-- Node3 -->
<g id="node3" class="node">
<title>Node3</title>
<g id="a_node3"><a xlink:href="_utils_8h.html" target="_top" xlink:title=" ">
<polygon fill="#ffffff" stroke="#000000" points="58.335,-55.5 58.335,-73.5 102.1182,-73.5 102.1182,-55.5 58.335,-55.5"/>
<text text-anchor="middle" x="80.2266" y="-61.5" font-family="Arial.ttf" font-size="10.00" fill="#000000">Utils.h</text>
</a>
</g>
</g>
<!-- Node2&#45;&gt;Node3 -->
<g id="edge2" class="edge">
<title>Node2&#45;&gt;Node3</title>
<path fill="none" stroke="#191970" d="M80.2266,-110.4179C80.2266,-103.2164 80.2266,-92.8962 80.2266,-83.8632"/>
<polygon fill="#191970" stroke="#191970" points="83.7267,-83.7794 80.2266,-73.7795 76.7267,-83.7795 83.7267,-83.7794"/>
</g>
<!-- Node4 -->
<g id="node4" class="node">
<title>Node4</title>
<g id="a_node4"><a xlink:title=" ">
<polygon fill="#ffffff" stroke="#bfbfbf" points="0,-.5 0,-18.5 40.4531,-18.5 40.4531,-.5 0,-.5"/>
<text text-anchor="middle" x="20.2266" y="-6.5" font-family="Arial.ttf" font-size="10.00" fill="#000000">string</text>
</a>
</g>
</g>
<!-- Node3&#45;&gt;Node4 -->
<g id="edge3" class="edge">
<title>Node3&#45;&gt;Node4</title>
<path fill="none" stroke="#191970" d="M70.3188,-55.4179C61.5129,-47.3458 48.4327,-35.3556 37.8466,-25.6517"/>
<polygon fill="#191970" stroke="#191970" points="40.0862,-22.9567 30.3496,-18.7795 35.3561,-28.1168 40.0862,-22.9567"/>
</g>
<!-- Node5 -->
<g id="node5" class="node">
<title>Node5</title>
<g id="a_node5"><a xlink:title=" ">
<polygon fill="#ffffff" stroke="#bfbfbf" points="58.6108,-.5 58.6108,-18.5 101.8423,-18.5 101.8423,-.5 58.6108,-.5"/>
<text text-anchor="middle" x="80.2266" y="-6.5" font-family="Arial.ttf" font-size="10.00" fill="#000000">vector</text>
</a>
</g>
</g>
<!-- Node3&#45;&gt;Node5 -->
<g id="edge4" class="edge">
<title>Node3&#45;&gt;Node5</title>
<path fill="none" stroke="#191970" d="M80.2266,-55.4179C80.2266,-48.2164 80.2266,-37.8962 80.2266,-28.8632"/>
<polygon fill="#191970" stroke="#191970" points="83.7267,-28.7794 80.2266,-18.7795 76.7267,-28.7795 83.7267,-28.7794"/>
</g>
<!-- Node6 -->
<g id="node6" class="node">
<title>Node6</title>
<g id="a_node6"><a xlink:title=" ">
<polygon fill="#ffffff" stroke="#bfbfbf" points="120.2759,-.5 120.2759,-18.5 160.1772,-18.5 160.1772,-.5 120.2759,-.5"/>
<text text-anchor="middle" x="140.2266" y="-6.5" font-family="Arial.ttf" font-size="10.00" fill="#000000">cfloat</text>
</a>
</g>
</g>
<!-- Node3&#45;&gt;Node6 -->
<g id="edge5" class="edge">
<title>Node3&#45;&gt;Node6</title>
<path fill="none" stroke="#191970" d="M90.1343,-55.4179C98.9402,-47.3458 112.0204,-35.3556 122.6065,-25.6517"/>
<polygon fill="#191970" stroke="#191970" points="125.097,-28.1168 130.1035,-18.7795 120.3669,-22.9567 125.097,-28.1168"/>
</g>
</g>
</svg>
