<?xml version="1.0" encoding="UTF-8" standalone="no"?>
<!DOCTYPE svg PUBLIC "-//W3C//DTD SVG 1.1//EN"
 "http://www.w3.org/Graphics/SVG/1.1/DTD/svg11.dtd">
<!-- Generated by graphviz version 2.44.0 (20200408.0750)
 -->
<!-- Title: SLGLGenericProgram.h Pages: 1 -->
<svg width="3583pt" height="420pt"
 viewBox="0.00 0.00 3583.00 420.00" xmlns="http://www.w3.org/2000/svg" xmlns:xlink="http://www.w3.org/1999/xlink">
<g id="graph0" class="graph" transform="scale(1 1) rotate(0) translate(4 416)">
<title>SLGLGenericProgram.h</title>
<polygon fill="white" stroke="transparent" points="-4,4 -4,-416 3579,-416 3579,4 -4,4"/>
<!-- Node1 -->
<g id="node1" class="node">
<title>Node1</title>
<g id="a_node1"><a xlink:title=" ">
<polygon fill="#bfbfbf" stroke="black" points="893,-392.5 893,-411.5 1013,-411.5 1013,-392.5 893,-392.5"/>
<text text-anchor="middle" x="953" y="-399.5" font-family="Arial.ttf" font-size="10.00">SLGLGenericProgram.h</text>
</a>
</g>
</g>
<!-- Node2 -->
<g id="node2" class="node">
<title>Node2</title>
<g id="a_node2"><a xlink:href="_s_l_g_l_conetracer_8cpp.html" target="_top" xlink:title=" ">
<polygon fill="white" stroke="black" points="1540.5,-56.5 1540.5,-75.5 1647.5,-75.5 1647.5,-56.5 1540.5,-56.5"/>
<text text-anchor="middle" x="1594" y="-63.5" font-family="Arial.ttf" font-size="10.00">SLGLConetracer.cpp</text>
</a>
</g>
</g>
<!-- Node1&#45;&gt;Node2 -->
<g id="edge1" class="edge">
<title>Node1&#45;&gt;Node2</title>
<path fill="none" stroke="midnightblue" d="M1023.36,-394.91C1177.64,-380.63 1532,-342.23 1532,-291 1532,-291 1532,-291 1532,-177 1532,-134.47 1567.61,-93.23 1584.85,-75.75"/>
<polygon fill="midnightblue" stroke="midnightblue" points="1022.69,-391.46 1013.05,-395.86 1023.33,-398.43 1022.69,-391.46"/>
</g>
<!-- Node3 -->
<g id="node3" class="node">
<title>Node3</title>
<g id="a_node3"><a xlink:href="_s_l_g_l_program_manager_8h.html" target="_top" xlink:title=" ">
<polygon fill="white" stroke="black" points="867.5,-112.5 867.5,-131.5 990.5,-131.5 990.5,-112.5 867.5,-112.5"/>
<text text-anchor="middle" x="929" y="-119.5" font-family="Arial.ttf" font-size="10.00">SLGLProgramManager.h</text>
</a>
</g>
</g>
<!-- Node1&#45;&gt;Node3 -->
<g id="edge2" class="edge">
<title>Node1&#45;&gt;Node3</title>
<path fill="none" stroke="midnightblue" d="M951.39,-382.39C946.69,-327.88 933.06,-169.99 929.74,-131.52"/>
<polygon fill="midnightblue" stroke="midnightblue" points="947.91,-382.71 952.26,-392.38 954.88,-382.11 947.91,-382.71"/>
</g>
<!-- Node11 -->
<g id="node11" class="node">
<title>Node11</title>
<g id="a_node11"><a xlink:href="_s_l_asset_manager_8h.html" target="_top" xlink:title=" ">
<polygon fill="white" stroke="black" points="512.5,-112.5 512.5,-131.5 611.5,-131.5 611.5,-112.5 512.5,-112.5"/>
<text text-anchor="middle" x="562" y="-119.5" font-family="Arial.ttf" font-size="10.00">SLAssetManager.h</text>
</a>
</g>
</g>
<!-- Node1&#45;&gt;Node11 -->
<g id="edge10" class="edge">
<title>Node1&#45;&gt;Node11</title>
<path fill="none" stroke="midnightblue" d="M882.71,-391.42C787.97,-376.49 631,-343.79 631,-291 631,-291 631,-291 631,-233 631,-189.27 591.37,-148.65 572.18,-131.54"/>
<polygon fill="midnightblue" stroke="midnightblue" points="882.39,-394.91 892.81,-392.98 883.46,-387.99 882.39,-394.91"/>
</g>
<!-- Node17 -->
<g id="node17" class="node">
<title>Node17</title>
<g id="a_node17"><a xlink:href="_s_l_material_8h.html" target="_top" xlink:title=" ">
<polygon fill="white" stroke="black" points="1145.5,-336.5 1145.5,-355.5 1216.5,-355.5 1216.5,-336.5 1145.5,-336.5"/>
<text text-anchor="middle" x="1181" y="-343.5" font-family="Arial.ttf" font-size="10.00">SLMaterial.h</text>
</a>
</g>
</g>
<!-- Node1&#45;&gt;Node17 -->
<g id="edge18" class="edge">
<title>Node1&#45;&gt;Node17</title>
<path fill="none" stroke="midnightblue" d="M999.1,-390.08C1042.31,-379.85 1106,-364.76 1145.42,-355.43"/>
<polygon fill="midnightblue" stroke="midnightblue" points="998.05,-386.73 989.13,-392.44 999.66,-393.54 998.05,-386.73"/>
</g>
<!-- Node4 -->
<g id="node4" class="node">
<title>Node4</title>
<g id="a_node4"><a xlink:href="_s_l_g_l_program_manager_8cpp.html" target="_top" xlink:title=" ">
<polygon fill="white" stroke="black" points="726,-56.5 726,-75.5 860,-75.5 860,-56.5 726,-56.5"/>
<text text-anchor="middle" x="793" y="-63.5" font-family="Arial.ttf" font-size="10.00">SLGLProgramManager.cpp</text>
</a>
</g>
</g>
<!-- Node3&#45;&gt;Node4 -->
<g id="edge3" class="edge">
<title>Node3&#45;&gt;Node4</title>
<path fill="none" stroke="midnightblue" d="M897.87,-108.64C872.34,-98.5 836.89,-84.43 814.45,-75.52"/>
<polygon fill="midnightblue" stroke="midnightblue" points="896.86,-112.01 907.45,-112.44 899.45,-105.5 896.86,-112.01"/>
</g>
<!-- Node5 -->
<g id="node5" class="node">
<title>Node5</title>
<g id="a_node5"><a xlink:href="_s_l_g_l_texture_8cpp.html" target="_top" xlink:title=" ">
<polygon fill="white" stroke="black" points="516,-56.5 516,-75.5 608,-75.5 608,-56.5 516,-56.5"/>
<text text-anchor="middle" x="562" y="-63.5" font-family="Arial.ttf" font-size="10.00">SLGLTexture.cpp</text>
</a>
</g>
</g>
<!-- Node3&#45;&gt;Node5 -->
<g id="edge4" class="edge">
<title>Node3&#45;&gt;Node5</title>
<path fill="none" stroke="midnightblue" d="M857.11,-111.03C793.84,-102.15 699.24,-88.66 617,-76 614.13,-75.56 611.18,-75.1 608.2,-74.63"/>
<polygon fill="midnightblue" stroke="midnightblue" points="856.99,-114.54 867.38,-112.46 857.96,-107.61 856.99,-114.54"/>
</g>
<!-- Node6 -->
<g id="node6" class="node">
<title>Node6</title>
<g id="a_node6"><a xlink:href="_s_l_g_l_vertex_array_ext_8cpp.html" target="_top" xlink:title=" ">
<polygon fill="white" stroke="black" points="878,-56.5 878,-75.5 1004,-75.5 1004,-56.5 878,-56.5"/>
<text text-anchor="middle" x="941" y="-63.5" font-family="Arial.ttf" font-size="10.00">SLGLVertexArrayExt.cpp</text>
</a>
</g>
</g>
<!-- Node3&#45;&gt;Node6 -->
<g id="edge5" class="edge">
<title>Node3&#45;&gt;Node6</title>
<path fill="none" stroke="midnightblue" d="M933.2,-102.1C935.19,-93.14 937.48,-82.86 939.06,-75.75"/>
<polygon fill="midnightblue" stroke="midnightblue" points="929.73,-101.56 930.98,-112.08 936.57,-103.08 929.73,-101.56"/>
</g>
<!-- Node7 -->
<g id="node7" class="node">
<title>Node7</title>
<g id="a_node7"><a xlink:href="_s_l_camera_8cpp.html" target="_top" xlink:title=" ">
<polygon fill="white" stroke="black" points="1112,-56.5 1112,-75.5 1194,-75.5 1194,-56.5 1112,-56.5"/>
<text text-anchor="middle" x="1153" y="-63.5" font-family="Arial.ttf" font-size="10.00">SLCamera.cpp</text>
</a>
</g>
</g>
<!-- Node3&#45;&gt;Node7 -->
<g id="edge6" class="edge">
<title>Node3&#45;&gt;Node7</title>
<path fill="none" stroke="midnightblue" d="M974.26,-110.09C1016.58,-99.89 1078.91,-84.86 1117.67,-75.52"/>
<polygon fill="midnightblue" stroke="midnightblue" points="973.39,-106.7 964.49,-112.44 975.04,-113.5 973.39,-106.7"/>
</g>
<!-- Node8 -->
<g id="node8" class="node">
<title>Node8</title>
<g id="a_node8"><a xlink:href="_s_l_material_8cpp.html" target="_top" xlink:title=" ">
<polygon fill="white" stroke="black" points="626,-56.5 626,-75.5 708,-75.5 708,-56.5 626,-56.5"/>
<text text-anchor="middle" x="667" y="-63.5" font-family="Arial.ttf" font-size="10.00">SLMaterial.cpp</text>
</a>
</g>
</g>
<!-- Node3&#45;&gt;Node8 -->
<g id="edge7" class="edge">
<title>Node3&#45;&gt;Node8</title>
<path fill="none" stroke="midnightblue" d="M877.62,-110.41C828.1,-100.2 754.14,-84.96 708.32,-75.52"/>
<polygon fill="midnightblue" stroke="midnightblue" points="876.98,-113.85 887.49,-112.44 878.4,-107 876.98,-113.85"/>
</g>
<!-- Node9 -->
<g id="node9" class="node">
<title>Node9</title>
<g id="a_node9"><a xlink:href="_app_demo_gui_8cpp.html" target="_top" xlink:title=" ">
<polygon fill="white" stroke="black" points="1330,-56.5 1330,-75.5 1424,-75.5 1424,-56.5 1330,-56.5"/>
<text text-anchor="middle" x="1377" y="-63.5" font-family="Arial.ttf" font-size="10.00">AppDemoGui.cpp</text>
</a>
</g>
</g>
<!-- Node3&#45;&gt;Node9 -->
<g id="edge8" class="edge">
<title>Node3&#45;&gt;Node9</title>
<path fill="none" stroke="midnightblue" d="M1000.84,-113.73C1079.55,-105.55 1209.45,-91.36 1321,-76 1323.93,-75.6 1326.94,-75.16 1329.97,-74.72"/>
<polygon fill="midnightblue" stroke="midnightblue" points="1000.14,-110.29 990.55,-114.8 1000.86,-117.25 1000.14,-110.29"/>
</g>
<!-- Node10 -->
<g id="node10" class="node">
<title>Node10</title>
<g id="a_node10"><a xlink:href="_app_demo_load_8cpp.html" target="_top" xlink:title=" ">
<polygon fill="white" stroke="black" points="1212,-56.5 1212,-75.5 1312,-75.5 1312,-56.5 1212,-56.5"/>
<text text-anchor="middle" x="1262" y="-63.5" font-family="Arial.ttf" font-size="10.00">AppDemoLoad.cpp</text>
</a>
</g>
</g>
<!-- Node3&#45;&gt;Node10 -->
<g id="edge9" class="edge">
<title>Node3&#45;&gt;Node10</title>
<path fill="none" stroke="midnightblue" d="M991.7,-110.83C1055.5,-100.49 1153.12,-84.66 1211.93,-75.12"/>
<polygon fill="midnightblue" stroke="midnightblue" points="991.08,-107.39 981.76,-112.44 992.2,-114.3 991.08,-107.39"/>
</g>
<!-- Node11&#45;&gt;Node5 -->
<g id="edge12" class="edge">
<title>Node11&#45;&gt;Node5</title>
<path fill="none" stroke="midnightblue" d="M562,-101.8C562,-92.91 562,-82.78 562,-75.75"/>
<polygon fill="midnightblue" stroke="midnightblue" points="558.5,-102.08 562,-112.08 565.5,-102.08 558.5,-102.08"/>
</g>
<!-- Node11&#45;&gt;Node8 -->
<g id="edge15" class="edge">
<title>Node11&#45;&gt;Node8</title>
<path fill="none" stroke="midnightblue" d="M587.81,-107.73C607.25,-97.73 633.35,-84.31 650.17,-75.65"/>
<polygon fill="midnightblue" stroke="midnightblue" points="586.16,-104.64 578.87,-112.32 589.36,-110.86 586.16,-104.64"/>
</g>
<!-- Node12 -->
<g id="node12" class="node">
<title>Node12</title>
<g id="a_node12"><a xlink:href="_s_l_g_l_program_8cpp.html" target="_top" xlink:title=" ">
<polygon fill="white" stroke="black" points="266.5,-56.5 266.5,-75.5 363.5,-75.5 363.5,-56.5 266.5,-56.5"/>
<text text-anchor="middle" x="315" y="-63.5" font-family="Arial.ttf" font-size="10.00">SLGLProgram.cpp</text>
</a>
</g>
</g>
<!-- Node11&#45;&gt;Node12 -->
<g id="edge11" class="edge">
<title>Node11&#45;&gt;Node12</title>
<path fill="none" stroke="midnightblue" d="M512.97,-110.28C466.3,-100.08 396.97,-84.92 353.95,-75.52"/>
<polygon fill="midnightblue" stroke="midnightblue" points="512.35,-113.73 522.86,-112.44 513.84,-106.89 512.35,-113.73"/>
</g>
<!-- Node13 -->
<g id="node13" class="node">
<title>Node13</title>
<g id="a_node13"><a xlink:href="_s_l_assimp_importer_8cpp.html" target="_top" xlink:title=" ">
<polygon fill="white" stroke="black" points="382,-56.5 382,-75.5 498,-75.5 498,-56.5 382,-56.5"/>
<text text-anchor="middle" x="440" y="-63.5" font-family="Arial.ttf" font-size="10.00">SLAssimpImporter.cpp</text>
</a>
</g>
</g>
<!-- Node11&#45;&gt;Node13 -->
<g id="edge13" class="edge">
<title>Node11&#45;&gt;Node13</title>
<path fill="none" stroke="midnightblue" d="M533.46,-108.37C510.61,-98.26 479.19,-84.35 459.24,-75.52"/>
<polygon fill="midnightblue" stroke="midnightblue" points="532.11,-111.6 542.67,-112.44 534.94,-105.2 532.11,-111.6"/>
</g>
<!-- Node14 -->
<g id="node14" class="node">
<title>Node14</title>
<g id="a_node14"><a xlink:href="_s_l_asset_manager_8cpp.html" target="_top" xlink:title=" ">
<polygon fill="white" stroke="black" points="0,-56.5 0,-75.5 110,-75.5 110,-56.5 0,-56.5"/>
<text text-anchor="middle" x="55" y="-63.5" font-family="Arial.ttf" font-size="10.00">SLAssetManager.cpp</text>
</a>
</g>
</g>
<!-- Node11&#45;&gt;Node14 -->
<g id="edge14" class="edge">
<title>Node11&#45;&gt;Node14</title>
<path fill="none" stroke="midnightblue" d="M502.44,-115.68C417.31,-107.92 255.99,-92.58 119,-76 116.1,-75.65 113.14,-75.28 110.14,-74.89"/>
<polygon fill="midnightblue" stroke="midnightblue" points="502.16,-119.17 512.44,-116.59 502.79,-112.2 502.16,-119.17"/>
</g>
<!-- Node15 -->
<g id="node15" class="node">
<title>Node15</title>
<g id="a_node15"><a xlink:href="_s_l_mesh_8cpp.html" target="_top" xlink:title=" ">
<polygon fill="white" stroke="black" points="1022.5,-56.5 1022.5,-75.5 1093.5,-75.5 1093.5,-56.5 1022.5,-56.5"/>
<text text-anchor="middle" x="1058" y="-63.5" font-family="Arial.ttf" font-size="10.00">SLMesh.cpp</text>
</a>
</g>
</g>
<!-- Node11&#45;&gt;Node15 -->
<g id="edge16" class="edge">
<title>Node11&#45;&gt;Node15</title>
<path fill="none" stroke="midnightblue" d="M621.74,-116.91C708.31,-110.56 873.53,-96.85 1013,-76 1015.99,-75.55 1019.09,-75.04 1022.19,-74.49"/>
<polygon fill="midnightblue" stroke="midnightblue" points="621.3,-113.43 611.58,-117.65 621.81,-120.42 621.3,-113.43"/>
</g>
<!-- Node16 -->
<g id="node16" class="node">
<title>Node16</title>
<g id="a_node16"><a xlink:href="_s_l_transfer_function_8cpp.html" target="_top" xlink:title=" ">
<polygon fill="white" stroke="black" points="128,-56.5 128,-75.5 248,-75.5 248,-56.5 128,-56.5"/>
<text text-anchor="middle" x="188" y="-63.5" font-family="Arial.ttf" font-size="10.00">SLTransferFunction.cpp</text>
</a>
</g>
</g>
<!-- Node11&#45;&gt;Node16 -->
<g id="edge17" class="edge">
<title>Node11&#45;&gt;Node16</title>
<path fill="none" stroke="midnightblue" d="M502.34,-112.39C432.32,-102.28 316.92,-85.61 247.13,-75.54"/>
<polygon fill="midnightblue" stroke="midnightblue" points="501.94,-115.86 512.34,-113.83 502.94,-108.94 501.94,-115.86"/>
</g>
<!-- Node17&#45;&gt;Node6 -->
<g id="edge20" class="edge">
<title>Node17&#45;&gt;Node6</title>
<path fill="none" stroke="midnightblue" d="M1135.16,-341.41C1104.15,-336.64 1064.36,-325.57 1039,-300 1017.72,-278.54 1019,-265.23 1019,-235 1019,-235 1019,-235 1019,-177 1019,-146.9 1017.04,-136.81 1000,-112 989.06,-96.07 970.68,-83.36 957.34,-75.56"/>
<polygon fill="midnightblue" stroke="midnightblue" points="1134.93,-344.92 1145.31,-342.8 1135.88,-337.98 1134.93,-344.92"/>
</g>
<!-- Node17&#45;&gt;Node8 -->
<g id="edge25" class="edge">
<title>Node17&#45;&gt;Node8</title>
<path fill="none" stroke="midnightblue" d="M1135.38,-340.02C1042.25,-328.57 839,-296.54 839,-235 839,-235 839,-235 839,-177 839,-146.2 837.4,-133.13 815,-112 799.52,-97.4 746.47,-83.63 708.31,-75.26"/>
<polygon fill="midnightblue" stroke="midnightblue" points="1135.02,-343.5 1145.37,-341.22 1135.86,-336.55 1135.02,-343.5"/>
</g>
<!-- Node17&#45;&gt;Node9 -->
<g id="edge79" class="edge">
<title>Node17&#45;&gt;Node9</title>
<path fill="none" stroke="midnightblue" d="M1226.87,-339.46C1254.19,-333.85 1287.6,-322.59 1309,-300 1372.76,-232.7 1377.15,-108.99 1377.13,-75.53"/>
<polygon fill="midnightblue" stroke="midnightblue" points="1225.93,-336.07 1216.74,-341.34 1227.21,-342.96 1225.93,-336.07"/>
</g>
<!-- Node17&#45;&gt;Node11 -->
<g id="edge54" class="edge">
<title>Node17&#45;&gt;Node11</title>
<path fill="none" stroke="midnightblue" d="M1135.31,-343.35C1045.21,-339.52 848.06,-328.1 787,-300 708.72,-263.98 714.99,-218.27 645,-168 624.36,-153.18 598.29,-139.81 580.93,-131.57"/>
<polygon fill="midnightblue" stroke="midnightblue" points="1135.36,-346.85 1145.49,-343.77 1135.65,-339.86 1135.36,-346.85"/>
</g>
<!-- Node17&#45;&gt;Node13 -->
<g id="edge21" class="edge">
<title>Node17&#45;&gt;Node13</title>
<path fill="none" stroke="midnightblue" d="M1135.35,-345.96C1073.88,-345.58 962.38,-338.87 877,-300 836.55,-281.58 801,-279.45 801,-235 801,-235 801,-235 801,-177 801,-144.12 579.01,-95.16 483.19,-75.56"/>
<polygon fill="midnightblue" stroke="midnightblue" points="1135.5,-349.46 1145.5,-345.97 1135.5,-342.46 1135.5,-349.46"/>
</g>
<!-- Node18 -->
<g id="node18" class="node">
<title>Node18</title>
<g id="a_node18"><a xlink:href="_s_l_g_l_state_8cpp.html" target="_top" xlink:title=" ">
<polygon fill="white" stroke="black" points="1047.5,-280.5 1047.5,-299.5 1130.5,-299.5 1130.5,-280.5 1047.5,-280.5"/>
<text text-anchor="middle" x="1089" y="-287.5" font-family="Arial.ttf" font-size="10.00">SLGLState.cpp</text>
</a>
</g>
</g>
<!-- Node17&#45;&gt;Node18 -->
<g id="edge19" class="edge">
<title>Node17&#45;&gt;Node18</title>
<path fill="none" stroke="midnightblue" d="M1157.45,-331.18C1140.52,-321.24 1118.22,-308.15 1103.74,-299.65"/>
<polygon fill="midnightblue" stroke="midnightblue" points="1155.82,-334.28 1166.22,-336.32 1159.37,-328.24 1155.82,-334.28"/>
</g>
<!-- Node19 -->
<g id="node19" class="node">
<title>Node19</title>
<g id="a_node19"><a xlink:href="_s_l_skybox_8cpp.html" target="_top" xlink:title=" ">
<polygon fill="white" stroke="black" points="1442,-56.5 1442,-75.5 1522,-75.5 1522,-56.5 1442,-56.5"/>
<text text-anchor="middle" x="1482" y="-63.5" font-family="Arial.ttf" font-size="10.00">SLSkybox.cpp</text>
</a>
</g>
</g>
<!-- Node17&#45;&gt;Node19 -->
<g id="edge22" class="edge">
<title>Node17&#45;&gt;Node19</title>
<path fill="none" stroke="midnightblue" d="M1226.91,-342.64C1292.02,-338.38 1406.68,-327.14 1437,-300 1459.42,-279.92 1456,-265.1 1456,-235 1456,-235 1456,-235 1456,-177 1456,-138.34 1471.4,-94.04 1478.49,-75.68"/>
<polygon fill="midnightblue" stroke="midnightblue" points="1226.67,-339.15 1216.9,-343.27 1227.1,-346.14 1226.67,-339.15"/>
</g>
<!-- Node20 -->
<g id="node20" class="node">
<title>Node20</title>
<g id="a_node20"><a xlink:href="_s_l_box_8cpp.html" target="_top" xlink:title=" ">
<polygon fill="white" stroke="black" points="1148.5,-280.5 1148.5,-299.5 1213.5,-299.5 1213.5,-280.5 1148.5,-280.5"/>
<text text-anchor="middle" x="1181" y="-287.5" font-family="Arial.ttf" font-size="10.00">SLBox.cpp</text>
</a>
</g>
</g>
<!-- Node17&#45;&gt;Node20 -->
<g id="edge23" class="edge">
<title>Node17&#45;&gt;Node20</title>
<path fill="none" stroke="midnightblue" d="M1181,-325.8C1181,-316.91 1181,-306.78 1181,-299.75"/>
<polygon fill="midnightblue" stroke="midnightblue" points="1177.5,-326.08 1181,-336.08 1184.5,-326.08 1177.5,-326.08"/>
</g>
<!-- Node21 -->
<g id="node21" class="node">
<title>Node21</title>
<g id="a_node21"><a xlink:href="_s_l_lens_8cpp.html" target="_top" xlink:title=" ">
<polygon fill="white" stroke="black" points="1232,-280.5 1232,-299.5 1300,-299.5 1300,-280.5 1232,-280.5"/>
<text text-anchor="middle" x="1266" y="-287.5" font-family="Arial.ttf" font-size="10.00">SLLens.cpp</text>
</a>
</g>
</g>
<!-- Node17&#45;&gt;Node21 -->
<g id="edge24" class="edge">
<title>Node17&#45;&gt;Node21</title>
<path fill="none" stroke="midnightblue" d="M1203.19,-330.9C1218.78,-321 1239.13,-308.07 1252.38,-299.65"/>
<polygon fill="midnightblue" stroke="midnightblue" points="1201.22,-328.01 1194.66,-336.32 1204.97,-333.92 1201.22,-328.01"/>
</g>
<!-- Node22 -->
<g id="node22" class="node">
<title>Node22</title>
<g id="a_node22"><a xlink:href="_s_l_g_l_conetracer_8h.html" target="_top" xlink:title=" ">
<polygon fill="white" stroke="black" points="1560.5,-168.5 1560.5,-187.5 1657.5,-187.5 1657.5,-168.5 1560.5,-168.5"/>
<text text-anchor="middle" x="1609" y="-175.5" font-family="Arial.ttf" font-size="10.00">SLGLConetracer.h</text>
</a>
</g>
</g>
<!-- Node17&#45;&gt;Node22 -->
<g id="edge26" class="edge">
<title>Node17&#45;&gt;Node22</title>
<path fill="none" stroke="midnightblue" d="M1226.73,-345.57C1285.68,-344.62 1390.08,-337.17 1470,-300 1530.05,-272.07 1583.87,-210.19 1602.27,-187.53"/>
<polygon fill="midnightblue" stroke="midnightblue" points="1226.58,-342.07 1216.62,-345.67 1226.65,-349.07 1226.58,-342.07"/>
</g>
<!-- Node42 -->
<g id="node42" class="node">
<title>Node42</title>
<g id="a_node42"><a xlink:href="_s_l_ray_8h.html" target="_top" xlink:title=" ">
<polygon fill="white" stroke="black" points="2907.5,-280.5 2907.5,-299.5 2960.5,-299.5 2960.5,-280.5 2907.5,-280.5"/>
<text text-anchor="middle" x="2934" y="-287.5" font-family="Arial.ttf" font-size="10.00">SLRay.h</text>
</a>
</g>
</g>
<!-- Node17&#45;&gt;Node42 -->
<g id="edge55" class="edge">
<title>Node17&#45;&gt;Node42</title>
<path fill="none" stroke="midnightblue" d="M1227.18,-343.58C1481.89,-335.73 2710.9,-297.87 2907.46,-291.82"/>
<polygon fill="midnightblue" stroke="midnightblue" points="1226.7,-340.09 1216.81,-343.9 1226.91,-347.09 1226.7,-340.09"/>
</g>
<!-- Node63 -->
<g id="node50" class="node">
<title>Node63</title>
<g id="a_node50"><a xlink:href="_s_l_ray_m_c_8h.html" target="_top" xlink:title=" ">
<polygon fill="white" stroke="black" points="1356.5,-280.5 1356.5,-299.5 1427.5,-299.5 1427.5,-280.5 1356.5,-280.5"/>
<text text-anchor="middle" x="1392" y="-287.5" font-family="Arial.ttf" font-size="10.00">SLRayMC.h</text>
</a>
</g>
</g>
<!-- Node17&#45;&gt;Node63 -->
<g id="edge78" class="edge">
<title>Node17&#45;&gt;Node63</title>
<path fill="none" stroke="midnightblue" d="M1224.14,-333.96C1263.99,-323.76 1322.36,-308.82 1358.72,-299.52"/>
<polygon fill="midnightblue" stroke="midnightblue" points="1223.25,-330.57 1214.43,-336.44 1224.99,-337.35 1223.25,-330.57"/>
</g>
<!-- Node22&#45;&gt;Node2 -->
<g id="edge27" class="edge">
<title>Node22&#45;&gt;Node2</title>
<path fill="none" stroke="midnightblue" d="M1606.46,-158.35C1603.17,-134.25 1597.59,-93.31 1595.17,-75.59"/>
<polygon fill="midnightblue" stroke="midnightblue" points="1603,-158.93 1607.82,-168.37 1609.94,-157.99 1603,-158.93"/>
</g>
<!-- Node23 -->
<g id="node23" class="node">
<title>Node23</title>
<g id="a_node23"><a xlink:href="_s_l_scene_view_8h.html" target="_top" xlink:title=" ">
<polygon fill="white" stroke="black" points="2182.5,-112.5 2182.5,-131.5 2267.5,-131.5 2267.5,-112.5 2182.5,-112.5"/>
<text text-anchor="middle" x="2225" y="-119.5" font-family="Arial.ttf" font-size="10.00">SLSceneView.h</text>
</a>
</g>
</g>
<!-- Node22&#45;&gt;Node23 -->
<g id="edge28" class="edge">
<title>Node22&#45;&gt;Node23</title>
<path fill="none" stroke="midnightblue" d="M1667.6,-171.86C1790.87,-161.06 2074.47,-136.2 2182.32,-126.74"/>
<polygon fill="midnightblue" stroke="midnightblue" points="1667.25,-168.38 1657.59,-172.74 1667.86,-175.35 1667.25,-168.38"/>
</g>
<!-- Node23&#45;&gt;Node2 -->
<g id="edge29" class="edge">
<title>Node23&#45;&gt;Node2</title>
<path fill="none" stroke="midnightblue" d="M2171.96,-117.91C2071.35,-111.81 1845.96,-96.96 1657,-76 1653.93,-75.66 1650.77,-75.28 1647.59,-74.89"/>
<polygon fill="midnightblue" stroke="midnightblue" points="2171.97,-121.42 2182.16,-118.53 2172.39,-114.43 2171.97,-121.42"/>
</g>
<!-- Node23&#45;&gt;Node7 -->
<g id="edge33" class="edge">
<title>Node23&#45;&gt;Node7</title>
<path fill="none" stroke="midnightblue" d="M2172.11,-121.17C2020.62,-121.11 1572.31,-117.18 1203,-76 1200.11,-75.68 1197.13,-75.29 1194.14,-74.86"/>
<polygon fill="midnightblue" stroke="midnightblue" points="2172.49,-124.67 2182.49,-121.16 2172.49,-117.67 2172.49,-124.67"/>
</g>
<!-- Node23&#45;&gt;Node8 -->
<g id="edge39" class="edge">
<title>Node23&#45;&gt;Node8</title>
<path fill="none" stroke="midnightblue" d="M2172.15,-120.48C1939.84,-118.01 1008.04,-106.37 717,-76 714.11,-75.7 711.13,-75.32 708.13,-74.9"/>
<polygon fill="midnightblue" stroke="midnightblue" points="2172.32,-123.98 2182.36,-120.58 2172.4,-116.98 2172.32,-123.98"/>
</g>
<!-- Node23&#45;&gt;Node9 -->
<g id="edge50" class="edge">
<title>Node23&#45;&gt;Node9</title>
<path fill="none" stroke="midnightblue" d="M2172.12,-119.87C2044.63,-116.73 1710.34,-106.08 1433,-76 1430.06,-75.68 1427.05,-75.31 1424.01,-74.91"/>
<polygon fill="midnightblue" stroke="midnightblue" points="2172.29,-123.37 2182.38,-120.12 2172.46,-116.38 2172.29,-123.37"/>
</g>
<!-- Node23&#45;&gt;Node10 -->
<g id="edge51" class="edge">
<title>Node23&#45;&gt;Node10</title>
<path fill="none" stroke="midnightblue" d="M2172.06,-120.24C2032.52,-117.84 1643.22,-108.51 1321,-76 1318.11,-75.71 1315.15,-75.37 1312.17,-75.01"/>
<polygon fill="midnightblue" stroke="midnightblue" points="2172.01,-123.74 2182.06,-120.41 2172.12,-116.74 2172.01,-123.74"/>
</g>
<!-- Node23&#45;&gt;Node15 -->
<g id="edge40" class="edge">
<title>Node23&#45;&gt;Node15</title>
<path fill="none" stroke="midnightblue" d="M2172.09,-119.98C1979.2,-116.1 1313.99,-101.17 1103,-76 1099.99,-75.64 1096.89,-75.19 1093.78,-74.68"/>
<polygon fill="midnightblue" stroke="midnightblue" points="2172.19,-123.49 2182.25,-120.19 2172.33,-116.49 2172.19,-123.49"/>
</g>
<!-- Node23&#45;&gt;Node19 -->
<g id="edge31" class="edge">
<title>Node23&#45;&gt;Node19</title>
<path fill="none" stroke="midnightblue" d="M2172.22,-119.61C2056.09,-116.11 1769.86,-105.04 1532,-76 1528.76,-75.6 1525.41,-75.14 1522.06,-74.62"/>
<polygon fill="midnightblue" stroke="midnightblue" points="2172.16,-123.11 2182.26,-119.91 2172.37,-116.11 2172.16,-123.11"/>
</g>
<!-- Node24 -->
<g id="node24" class="node">
<title>Node24</title>
<g id="a_node24"><a xlink:href="_s_l_g_l_im_gui_8cpp.html" target="_top" xlink:title=" ">
<polygon fill="white" stroke="black" points="1666,-56.5 1666,-75.5 1752,-75.5 1752,-56.5 1666,-56.5"/>
<text text-anchor="middle" x="1709" y="-63.5" font-family="Arial.ttf" font-size="10.00">SLGLImGui.cpp</text>
</a>
</g>
</g>
<!-- Node23&#45;&gt;Node24 -->
<g id="edge30" class="edge">
<title>Node23&#45;&gt;Node24</title>
<path fill="none" stroke="midnightblue" d="M2172.4,-117.12C2086.36,-110.49 1910.27,-95.77 1762,-76 1758.76,-75.57 1755.42,-75.09 1752.06,-74.58"/>
<polygon fill="midnightblue" stroke="midnightblue" points="2172.2,-120.61 2182.43,-117.88 2172.73,-113.63 2172.2,-120.61"/>
</g>
<!-- Node25 -->
<g id="node25" class="node">
<title>Node25</title>
<g id="a_node25"><a xlink:href="_s_l_anim_track_8cpp.html" target="_top" xlink:title=" ">
<polygon fill="white" stroke="black" points="1770.5,-56.5 1770.5,-75.5 1865.5,-75.5 1865.5,-56.5 1770.5,-56.5"/>
<text text-anchor="middle" x="1818" y="-63.5" font-family="Arial.ttf" font-size="10.00">SLAnimTrack.cpp</text>
</a>
</g>
</g>
<!-- Node23&#45;&gt;Node25 -->
<g id="edge32" class="edge">
<title>Node23&#45;&gt;Node25</title>
<path fill="none" stroke="midnightblue" d="M2172.27,-114.7C2103.71,-106.4 1980.27,-91.08 1875,-76 1871.93,-75.56 1868.76,-75.09 1865.57,-74.62"/>
<polygon fill="midnightblue" stroke="midnightblue" points="2172.04,-118.2 2182.38,-115.92 2172.88,-111.25 2172.04,-118.2"/>
</g>
<!-- Node26 -->
<g id="node26" class="node">
<title>Node26</title>
<g id="a_node26"><a xlink:href="_s_l_input_manager_8cpp.html" target="_top" xlink:title=" ">
<polygon fill="white" stroke="black" points="1884,-56.5 1884,-75.5 1990,-75.5 1990,-56.5 1884,-56.5"/>
<text text-anchor="middle" x="1937" y="-63.5" font-family="Arial.ttf" font-size="10.00">SLInputManager.cpp</text>
</a>
</g>
</g>
<!-- Node23&#45;&gt;Node26 -->
<g id="edge34" class="edge">
<title>Node23&#45;&gt;Node26</title>
<path fill="none" stroke="midnightblue" d="M2172.06,-111.07C2117.67,-100.88 2033.89,-85.17 1982.42,-75.52"/>
<polygon fill="midnightblue" stroke="midnightblue" points="2171.72,-114.57 2182.19,-112.97 2173.01,-107.69 2171.72,-114.57"/>
</g>
<!-- Node27 -->
<g id="node27" class="node">
<title>Node27</title>
<g id="a_node27"><a xlink:href="_s_l_keyframe_camera_8cpp.html" target="_top" xlink:title=" ">
<polygon fill="white" stroke="black" points="2726,-56.5 2726,-75.5 2850,-75.5 2850,-56.5 2726,-56.5"/>
<text text-anchor="middle" x="2788" y="-63.5" font-family="Arial.ttf" font-size="10.00">SLKeyframeCamera.cpp</text>
</a>
</g>
</g>
<!-- Node23&#45;&gt;Node27 -->
<g id="edge35" class="edge">
<title>Node23&#45;&gt;Node27</title>
<path fill="none" stroke="midnightblue" d="M2277.8,-116.78C2367.95,-109.44 2557.31,-93.42 2717,-76 2719.84,-75.69 2722.74,-75.36 2725.68,-75.03"/>
<polygon fill="midnightblue" stroke="midnightblue" points="2277.51,-113.29 2267.83,-117.59 2278.08,-120.27 2277.51,-113.29"/>
</g>
<!-- Node28 -->
<g id="node28" class="node">
<title>Node28</title>
<g id="a_node28"><a xlink:href="_s_l_light_direct_8cpp.html" target="_top" xlink:title=" ">
<polygon fill="white" stroke="black" points="2957.5,-56.5 2957.5,-75.5 3052.5,-75.5 3052.5,-56.5 2957.5,-56.5"/>
<text text-anchor="middle" x="3005" y="-63.5" font-family="Arial.ttf" font-size="10.00">SLLightDirect.cpp</text>
</a>
</g>
</g>
<!-- Node23&#45;&gt;Node28 -->
<g id="edge36" class="edge">
<title>Node23&#45;&gt;Node28</title>
<path fill="none" stroke="midnightblue" d="M2277.9,-119.48C2397.69,-115.64 2698.71,-103.82 2949,-76 2951.74,-75.7 2954.55,-75.35 2957.38,-74.98"/>
<polygon fill="midnightblue" stroke="midnightblue" points="2277.44,-115.99 2267.56,-119.8 2277.66,-122.98 2277.44,-115.99"/>
</g>
<!-- Node29 -->
<g id="node29" class="node">
<title>Node29</title>
<g id="a_node29"><a xlink:href="_s_l_light_rect_8cpp.html" target="_top" xlink:title=" ">
<polygon fill="white" stroke="black" points="3070.5,-56.5 3070.5,-75.5 3159.5,-75.5 3159.5,-56.5 3070.5,-56.5"/>
<text text-anchor="middle" x="3115" y="-63.5" font-family="Arial.ttf" font-size="10.00">SLLightRect.cpp</text>
</a>
</g>
</g>
<!-- Node23&#45;&gt;Node29 -->
<g id="edge37" class="edge">
<title>Node23&#45;&gt;Node29</title>
<path fill="none" stroke="midnightblue" d="M2278.1,-120.25C2410.72,-117.93 2766.99,-108.87 3062,-76 3064.69,-75.7 3067.45,-75.35 3070.23,-74.97"/>
<polygon fill="midnightblue" stroke="midnightblue" points="2277.76,-116.76 2267.82,-120.43 2277.88,-123.76 2277.76,-116.76"/>
</g>
<!-- Node30 -->
<g id="node30" class="node">
<title>Node30</title>
<g id="a_node30"><a xlink:href="_s_l_light_spot_8cpp.html" target="_top" xlink:title=" ">
<polygon fill="white" stroke="black" points="3177.5,-56.5 3177.5,-75.5 3266.5,-75.5 3266.5,-56.5 3177.5,-56.5"/>
<text text-anchor="middle" x="3222" y="-63.5" font-family="Arial.ttf" font-size="10.00">SLLightSpot.cpp</text>
</a>
</g>
</g>
<!-- Node23&#45;&gt;Node30 -->
<g id="edge38" class="edge">
<title>Node23&#45;&gt;Node30</title>
<path fill="none" stroke="midnightblue" d="M2278.26,-120.71C2422.26,-119.43 2831.23,-112.59 3169,-76 3171.69,-75.71 3174.45,-75.37 3177.23,-74.99"/>
<polygon fill="midnightblue" stroke="midnightblue" points="2277.92,-117.21 2267.95,-120.79 2277.98,-124.21 2277.92,-117.21"/>
</g>
<!-- Node31 -->
<g id="node31" class="node">
<title>Node31</title>
<g id="a_node31"><a xlink:href="_s_l_node_8cpp.html" target="_top" xlink:title=" ">
<polygon fill="white" stroke="black" points="2868.5,-56.5 2868.5,-75.5 2939.5,-75.5 2939.5,-56.5 2868.5,-56.5"/>
<text text-anchor="middle" x="2904" y="-63.5" font-family="Arial.ttf" font-size="10.00">SLNode.cpp</text>
</a>
</g>
</g>
<!-- Node23&#45;&gt;Node31 -->
<g id="edge41" class="edge">
<title>Node23&#45;&gt;Node31</title>
<path fill="none" stroke="midnightblue" d="M2277.95,-119.51C2387.08,-115.93 2644.74,-104.91 2859,-76 2862,-75.6 2865.1,-75.11 2868.21,-74.58"/>
<polygon fill="midnightblue" stroke="midnightblue" points="2277.74,-116.01 2267.86,-119.83 2277.97,-123.01 2277.74,-116.01"/>
</g>
<!-- Node32 -->
<g id="node32" class="node">
<title>Node32</title>
<g id="a_node32"><a xlink:href="_s_l_pathtracer_8cpp.html" target="_top" xlink:title=" ">
<polygon fill="white" stroke="black" points="2502,-56.5 2502,-75.5 2594,-75.5 2594,-56.5 2502,-56.5"/>
<text text-anchor="middle" x="2548" y="-63.5" font-family="Arial.ttf" font-size="10.00">SLPathtracer.cpp</text>
</a>
</g>
</g>
<!-- Node23&#45;&gt;Node32 -->
<g id="edge42" class="edge">
<title>Node23&#45;&gt;Node32</title>
<path fill="none" stroke="midnightblue" d="M2277.57,-112.21C2339.87,-101.8 2442.66,-84.61 2501.95,-74.7"/>
<polygon fill="midnightblue" stroke="midnightblue" points="2276.84,-108.78 2267.56,-113.88 2278,-115.69 2276.84,-108.78"/>
</g>
<!-- Node33 -->
<g id="node33" class="node">
<title>Node33</title>
<g id="a_node33"><a xlink:href="_s_l_ray_8cpp.html" target="_top" xlink:title=" ">
<polygon fill="white" stroke="black" points="3285,-56.5 3285,-75.5 3349,-75.5 3349,-56.5 3285,-56.5"/>
<text text-anchor="middle" x="3317" y="-63.5" font-family="Arial.ttf" font-size="10.00">SLRay.cpp</text>
</a>
</g>
</g>
<!-- Node23&#45;&gt;Node33 -->
<g id="edge43" class="edge">
<title>Node23&#45;&gt;Node33</title>
<path fill="none" stroke="midnightblue" d="M2277.63,-119.95C2462.24,-116.1 3079.7,-101.55 3276,-76 3278.89,-75.62 3281.88,-75.15 3284.86,-74.61"/>
<polygon fill="midnightblue" stroke="midnightblue" points="2277.56,-116.45 2267.63,-120.16 2277.7,-123.45 2277.56,-116.45"/>
</g>
<!-- Node34 -->
<g id="node34" class="node">
<title>Node34</title>
<g id="a_node34"><a xlink:href="_s_l_raytracer_8cpp.html" target="_top" xlink:title=" ">
<polygon fill="white" stroke="black" points="3367.5,-56.5 3367.5,-75.5 3456.5,-75.5 3456.5,-56.5 3367.5,-56.5"/>
<text text-anchor="middle" x="3412" y="-63.5" font-family="Arial.ttf" font-size="10.00">SLRaytracer.cpp</text>
</a>
</g>
</g>
<!-- Node23&#45;&gt;Node34 -->
<g id="edge44" class="edge">
<title>Node23&#45;&gt;Node34</title>
<path fill="none" stroke="midnightblue" d="M2277.74,-119.78C2471.58,-115.18 3144.32,-97.96 3358,-76 3361.03,-75.69 3364.14,-75.32 3367.27,-74.9"/>
<polygon fill="midnightblue" stroke="midnightblue" points="2277.45,-116.29 2267.54,-120.03 2277.62,-123.29 2277.45,-116.29"/>
</g>
<!-- Node35 -->
<g id="node35" class="node">
<title>Node35</title>
<g id="a_node35"><a xlink:href="_s_l_scene_view_8cpp.html" target="_top" xlink:title=" ">
<polygon fill="white" stroke="black" points="2612.5,-56.5 2612.5,-75.5 2707.5,-75.5 2707.5,-56.5 2612.5,-56.5"/>
<text text-anchor="middle" x="2660" y="-63.5" font-family="Arial.ttf" font-size="10.00">SLSceneView.cpp</text>
</a>
</g>
</g>
<!-- Node23&#45;&gt;Node35 -->
<g id="edge45" class="edge">
<title>Node23&#45;&gt;Node35</title>
<path fill="none" stroke="midnightblue" d="M2277.91,-115.34C2351.09,-107.38 2487.26,-92.02 2603,-76 2606.08,-75.57 2609.24,-75.12 2612.43,-74.65"/>
<polygon fill="midnightblue" stroke="midnightblue" points="2277.15,-111.91 2267.58,-116.47 2277.9,-118.87 2277.15,-111.91"/>
</g>
<!-- Node36 -->
<g id="node36" class="node">
<title>Node36</title>
<g id="a_node36"><a xlink:href="_s_l_skeleton_8cpp.html" target="_top" xlink:title=" ">
<polygon fill="white" stroke="black" points="2008,-56.5 2008,-75.5 2094,-75.5 2094,-56.5 2008,-56.5"/>
<text text-anchor="middle" x="2051" y="-63.5" font-family="Arial.ttf" font-size="10.00">SLSkeleton.cpp</text>
</a>
</g>
</g>
<!-- Node23&#45;&gt;Node36 -->
<g id="edge46" class="edge">
<title>Node23&#45;&gt;Node36</title>
<path fill="none" stroke="midnightblue" d="M2187.74,-109.44C2154.93,-99.26 2107.92,-84.66 2078.44,-75.52"/>
<polygon fill="midnightblue" stroke="midnightblue" points="2186.84,-112.82 2197.43,-112.44 2188.92,-106.14 2186.84,-112.82"/>
</g>
<!-- Node37 -->
<g id="node37" class="node">
<title>Node37</title>
<g id="a_node37"><a xlink:href="_s_l_uniform_grid_8cpp.html" target="_top" xlink:title=" ">
<polygon fill="white" stroke="black" points="3475,-56.5 3475,-75.5 3575,-75.5 3575,-56.5 3475,-56.5"/>
<text text-anchor="middle" x="3525" y="-63.5" font-family="Arial.ttf" font-size="10.00">SLUniformGrid.cpp</text>
</a>
</g>
</g>
<!-- Node23&#45;&gt;Node37 -->
<g id="edge47" class="edge">
<title>Node23&#45;&gt;Node37</title>
<path fill="none" stroke="midnightblue" d="M2277.92,-119.89C2483.59,-115.47 3229.97,-98.21 3466,-76 3468.89,-75.73 3471.85,-75.41 3474.84,-75.05"/>
<polygon fill="midnightblue" stroke="midnightblue" points="2277.61,-116.4 2267.69,-120.11 2277.76,-123.4 2277.61,-116.4"/>
</g>
<!-- Node38 -->
<g id="node38" class="node">
<title>Node38</title>
<g id="a_node38"><a xlink:href="_s_l_transform_node_8h.html" target="_top" xlink:title=" ">
<polygon fill="white" stroke="black" points="2112,-56.5 2112,-75.5 2216,-75.5 2216,-56.5 2112,-56.5"/>
<text text-anchor="middle" x="2164" y="-63.5" font-family="Arial.ttf" font-size="10.00">SLTransformNode.h</text>
</a>
</g>
</g>
<!-- Node23&#45;&gt;Node38 -->
<g id="edge48" class="edge">
<title>Node23&#45;&gt;Node38</title>
<path fill="none" stroke="midnightblue" d="M2207.53,-105.54C2196.66,-95.91 2183.06,-83.87 2173.98,-75.83"/>
<polygon fill="midnightblue" stroke="midnightblue" points="2205.39,-108.32 2215.2,-112.32 2210.03,-103.07 2205.39,-108.32"/>
</g>
<!-- Node40 -->
<g id="node40" class="node">
<title>Node40</title>
<g id="a_node40"><a xlink:href="_app_demo_video_8cpp.html" target="_top" xlink:title=" ">
<polygon fill="white" stroke="black" points="2234,-56.5 2234,-75.5 2338,-75.5 2338,-56.5 2234,-56.5"/>
<text text-anchor="middle" x="2286" y="-63.5" font-family="Arial.ttf" font-size="10.00">AppDemoVideo.cpp</text>
</a>
</g>
</g>
<!-- Node23&#45;&gt;Node40 -->
<g id="edge52" class="edge">
<title>Node23&#45;&gt;Node40</title>
<path fill="none" stroke="midnightblue" d="M2242.47,-105.54C2253.34,-95.91 2266.94,-83.87 2276.02,-75.83"/>
<polygon fill="midnightblue" stroke="midnightblue" points="2239.97,-103.07 2234.8,-112.32 2244.61,-108.32 2239.97,-103.07"/>
</g>
<!-- Node41 -->
<g id="node41" class="node">
<title>Node41</title>
<g id="a_node41"><a xlink:href="_app_demo_main_g_l_f_w_8cpp.html" target="_top" xlink:title=" ">
<polygon fill="white" stroke="black" points="2356.5,-56.5 2356.5,-75.5 2483.5,-75.5 2483.5,-56.5 2356.5,-56.5"/>
<text text-anchor="middle" x="2420" y="-63.5" font-family="Arial.ttf" font-size="10.00">AppDemoMainGLFW.cpp</text>
</a>
</g>
</g>
<!-- Node23&#45;&gt;Node41 -->
<g id="edge53" class="edge">
<title>Node23&#45;&gt;Node41</title>
<path fill="none" stroke="midnightblue" d="M2265.81,-109.7C2302.61,-99.51 2355.93,-84.74 2389.25,-75.52"/>
<polygon fill="midnightblue" stroke="midnightblue" points="2264.6,-106.4 2255.9,-112.44 2266.47,-113.15 2264.6,-106.4"/>
</g>
<!-- Node39 -->
<g id="node39" class="node">
<title>Node39</title>
<g id="a_node39"><a xlink:href="_s_l_transform_node_8cpp.html" target="_top" xlink:title=" ">
<polygon fill="white" stroke="black" points="2107,-0.5 2107,-19.5 2221,-19.5 2221,-0.5 2107,-0.5"/>
<text text-anchor="middle" x="2164" y="-7.5" font-family="Arial.ttf" font-size="10.00">SLTransformNode.cpp</text>
</a>
</g>
</g>
<!-- Node38&#45;&gt;Node39 -->
<g id="edge49" class="edge">
<title>Node38&#45;&gt;Node39</title>
<path fill="none" stroke="midnightblue" d="M2164,-45.8C2164,-36.91 2164,-26.78 2164,-19.75"/>
<polygon fill="midnightblue" stroke="midnightblue" points="2160.5,-46.08 2164,-56.08 2167.5,-46.08 2160.5,-46.08"/>
</g>
<!-- Node42&#45;&gt;Node15 -->
<g id="edge61" class="edge">
<title>Node42&#45;&gt;Node15</title>
<path fill="none" stroke="midnightblue" d="M2896.97,-288.81C2734.03,-287.47 2064.99,-276.55 1525,-188 1353.92,-159.94 1154.17,-98.15 1083.97,-75.52"/>
<polygon fill="midnightblue" stroke="midnightblue" points="2897.37,-292.31 2907.39,-288.89 2897.42,-285.32 2897.37,-292.31"/>
</g>
<!-- Node42&#45;&gt;Node28 -->
<g id="edge58" class="edge">
<title>Node42&#45;&gt;Node28</title>
<path fill="none" stroke="midnightblue" d="M2939.89,-270.58C2954.43,-225.14 2991.59,-108.92 3002.16,-75.88"/>
<polygon fill="midnightblue" stroke="midnightblue" points="2936.5,-269.71 2936.78,-280.3 2943.16,-271.84 2936.5,-269.71"/>
</g>
<!-- Node42&#45;&gt;Node29 -->
<g id="edge59" class="edge">
<title>Node42&#45;&gt;Node29</title>
<path fill="none" stroke="midnightblue" d="M2947.63,-272.28C2983.66,-228.1 3080.48,-109.34 3107.76,-75.88"/>
<polygon fill="midnightblue" stroke="midnightblue" points="2944.7,-270.34 2941.1,-280.3 2950.13,-274.76 2944.7,-270.34"/>
</g>
<!-- Node42&#45;&gt;Node30 -->
<g id="edge60" class="edge">
<title>Node42&#45;&gt;Node30</title>
<path fill="none" stroke="midnightblue" d="M2953.4,-274.26C2964.92,-265.48 2979.81,-254.13 2993,-244 3076.7,-179.74 3177.18,-101.8 3210.58,-75.87"/>
<polygon fill="midnightblue" stroke="midnightblue" points="2951.17,-271.55 2945.33,-280.39 2955.4,-277.13 2951.17,-271.55"/>
</g>
<!-- Node42&#45;&gt;Node33 -->
<g id="edge62" class="edge">
<title>Node42&#45;&gt;Node33</title>
<path fill="none" stroke="midnightblue" d="M2960,-275.66C2976.92,-266.87 2999.4,-255 3019,-244 3129.98,-181.71 3260.99,-101.53 3303.18,-75.54"/>
<polygon fill="midnightblue" stroke="midnightblue" points="2958.02,-272.74 2950.74,-280.44 2961.23,-278.96 2958.02,-272.74"/>
</g>
<!-- Node42&#45;&gt;Node34 -->
<g id="edge64" class="edge">
<title>Node42&#45;&gt;Node34</title>
<path fill="none" stroke="midnightblue" d="M2966.95,-276.76C2989.87,-268.06 3021.02,-255.86 3048,-244 3184.37,-184.03 3344.5,-102 3395.52,-75.57"/>
<polygon fill="midnightblue" stroke="midnightblue" points="2965.48,-273.57 2957.36,-280.38 2967.95,-280.12 2965.48,-273.57"/>
</g>
<!-- Node42&#45;&gt;Node37 -->
<g id="edge65" class="edge">
<title>Node42&#45;&gt;Node37</title>
<path fill="none" stroke="midnightblue" d="M2970.31,-279.1C3000.87,-270.53 3045.61,-257.43 3084,-244 3249.47,-186.1 3444.1,-102.37 3505.46,-75.58"/>
<polygon fill="midnightblue" stroke="midnightblue" points="2969.21,-275.77 2960.51,-281.83 2971.09,-282.52 2969.21,-275.77"/>
</g>
<!-- Node43 -->
<g id="node43" class="node">
<title>Node43</title>
<g id="a_node43"><a xlink:href="_s_l_a_a_b_box_8cpp.html" target="_top" xlink:title=" ">
<polygon fill="white" stroke="black" points="2503.5,-224.5 2503.5,-243.5 2588.5,-243.5 2588.5,-224.5 2503.5,-224.5"/>
<text text-anchor="middle" x="2546" y="-231.5" font-family="Arial.ttf" font-size="10.00">SLAABBox.cpp</text>
</a>
</g>
</g>
<!-- Node42&#45;&gt;Node43 -->
<g id="edge56" class="edge">
<title>Node42&#45;&gt;Node43</title>
<path fill="none" stroke="midnightblue" d="M2897.34,-284.56C2835.51,-276.96 2706.61,-260.67 2598,-244 2594.92,-243.53 2591.74,-243.02 2588.55,-242.5"/>
<polygon fill="midnightblue" stroke="midnightblue" points="2897.03,-288.04 2907.38,-285.79 2897.88,-281.1 2897.03,-288.04"/>
</g>
<!-- Node44 -->
<g id="node44" class="node">
<title>Node44</title>
<g id="a_node44"><a xlink:href="_s_l_compact_grid_8cpp.html" target="_top" xlink:title=" ">
<polygon fill="white" stroke="black" points="2606.5,-224.5 2606.5,-243.5 2711.5,-243.5 2711.5,-224.5 2606.5,-224.5"/>
<text text-anchor="middle" x="2659" y="-231.5" font-family="Arial.ttf" font-size="10.00">SLCompactGrid.cpp</text>
</a>
</g>
</g>
<!-- Node42&#45;&gt;Node44 -->
<g id="edge57" class="edge">
<title>Node42&#45;&gt;Node44</title>
<path fill="none" stroke="midnightblue" d="M2897.27,-281.79C2846.89,-271.89 2756.5,-254.15 2702.71,-243.58"/>
<polygon fill="midnightblue" stroke="midnightblue" points="2896.89,-285.28 2907.38,-283.77 2898.24,-278.41 2896.89,-285.28"/>
</g>
<!-- Node45 -->
<g id="node45" class="node">
<title>Node45</title>
<g id="a_node45"><a xlink:href="_s_l_ray_m_c_8cpp.html" target="_top" xlink:title=" ">
<polygon fill="white" stroke="black" points="2729.5,-224.5 2729.5,-243.5 2810.5,-243.5 2810.5,-224.5 2729.5,-224.5"/>
<text text-anchor="middle" x="2770" y="-231.5" font-family="Arial.ttf" font-size="10.00">SLRayMC.cpp</text>
</a>
</g>
</g>
<!-- Node42&#45;&gt;Node45 -->
<g id="edge63" class="edge">
<title>Node42&#45;&gt;Node45</title>
<path fill="none" stroke="midnightblue" d="M2898.48,-277.3C2867.58,-267.13 2823.53,-252.62 2795.86,-243.52"/>
<polygon fill="midnightblue" stroke="midnightblue" points="2897.42,-280.64 2908.01,-280.44 2899.61,-273.99 2897.42,-280.64"/>
</g>
<!-- Node46 -->
<g id="node46" class="node">
<title>Node46</title>
<g id="a_node46"><a xlink:href="_s_l_camera_8h.html" target="_top" xlink:title=" ">
<polygon fill="white" stroke="black" points="2828.5,-224.5 2828.5,-243.5 2899.5,-243.5 2899.5,-224.5 2828.5,-224.5"/>
<text text-anchor="middle" x="2864" y="-231.5" font-family="Arial.ttf" font-size="10.00">SLCamera.h</text>
</a>
</g>
</g>
<!-- Node42&#45;&gt;Node46 -->
<g id="edge66" class="edge">
<title>Node42&#45;&gt;Node46</title>
<path fill="none" stroke="midnightblue" d="M2914.69,-274.1C2902.09,-264.38 2886.07,-252.03 2875.45,-243.83"/>
<polygon fill="midnightblue" stroke="midnightblue" points="2912.7,-276.99 2922.75,-280.32 2916.97,-271.44 2912.7,-276.99"/>
</g>
<!-- Node46&#45;&gt;Node19 -->
<g id="edge67" class="edge">
<title>Node46&#45;&gt;Node19</title>
<path fill="none" stroke="midnightblue" d="M2817.71,-224.31C2679.95,-216.38 1610.65,-222.95 1552,-188 1508.84,-162.29 1489.71,-99.04 1483.97,-75.78"/>
<polygon fill="midnightblue" stroke="midnightblue" points="2817.82,-227.83 2828.06,-225.12 2818.37,-220.85 2817.82,-227.83"/>
</g>
<!-- Node46&#45;&gt;Node32 -->
<g id="edge68" class="edge">
<title>Node46&#45;&gt;Node32</title>
<path fill="none" stroke="midnightblue" d="M2838.24,-219.47C2775.48,-186.5 2615.99,-102.71 2564.38,-75.61"/>
<polygon fill="midnightblue" stroke="midnightblue" points="2836.97,-222.76 2847.46,-224.31 2840.23,-216.56 2836.97,-222.76"/>
</g>
<!-- Node46&#45;&gt;Node35 -->
<g id="edge69" class="edge">
<title>Node46&#45;&gt;Node35</title>
<path fill="none" stroke="midnightblue" d="M2852.19,-216.09C2833.83,-190.76 2796.2,-142.68 2755,-112 2733.19,-95.76 2704.58,-83.18 2684.48,-75.5"/>
<polygon fill="midnightblue" stroke="midnightblue" points="2849.41,-218.2 2858.06,-224.31 2855.11,-214.14 2849.41,-218.2"/>
</g>
<!-- Node46&#45;&gt;Node37 -->
<g id="edge70" class="edge">
<title>Node46&#45;&gt;Node37</title>
<path fill="none" stroke="midnightblue" d="M2908.04,-221.94C3031.76,-190.87 3380.65,-103.25 3491.06,-75.52"/>
<polygon fill="midnightblue" stroke="midnightblue" points="2906.99,-218.59 2898.15,-224.42 2908.7,-225.38 2906.99,-218.59"/>
</g>
<!-- Node47 -->
<g id="node47" class="node">
<title>Node47</title>
<g id="a_node47"><a xlink:href="_s_l_g_l_oculus_8h.html" target="_top" xlink:title=" ">
<polygon fill="white" stroke="red" points="2633,-168.5 2633,-187.5 2713,-187.5 2713,-168.5 2633,-168.5"/>
<text text-anchor="middle" x="2673" y="-175.5" font-family="Arial.ttf" font-size="10.00">SLGLOculus.h</text>
</a>
</g>
</g>
<!-- Node46&#45;&gt;Node47 -->
<g id="edge71" class="edge">
<title>Node46&#45;&gt;Node47</title>
<path fill="none" stroke="midnightblue" d="M2824.03,-221.7C2787.98,-211.51 2735.76,-196.74 2703.12,-187.52"/>
<polygon fill="midnightblue" stroke="midnightblue" points="2823.16,-225.09 2833.74,-224.44 2825.06,-218.35 2823.16,-225.09"/>
</g>
<!-- Node61 -->
<g id="node48" class="node">
<title>Node61</title>
<g id="a_node48"><a xlink:href="_s_l_g_l_oculus_f_b_8h.html" target="_top" xlink:title=" ">
<polygon fill="white" stroke="red" points="2380.5,-168.5 2380.5,-187.5 2473.5,-187.5 2473.5,-168.5 2380.5,-168.5"/>
<text text-anchor="middle" x="2427" y="-175.5" font-family="Arial.ttf" font-size="10.00">SLGLOculusFB.h</text>
</a>
</g>
</g>
<!-- Node46&#45;&gt;Node61 -->
<g id="edge72" class="edge">
<title>Node46&#45;&gt;Node61</title>
<path fill="none" stroke="midnightblue" d="M2817.91,-223.77C2688.08,-203.45 2545.71,-189.49 2473.76,-183.02"/>
<polygon fill="midnightblue" stroke="midnightblue" points="2817.6,-227.27 2828.03,-225.37 2818.7,-220.35 2817.6,-227.27"/>
</g>
<!-- Node62 -->
<g id="node49" class="node">
<title>Node62</title>
<g id="a_node49"><a xlink:href="_s_l_keyframe_camera_8h.html" target="_top" xlink:title=" ">
<polygon fill="white" stroke="red" points="2807.5,-112.5 2807.5,-131.5 2920.5,-131.5 2920.5,-112.5 2807.5,-112.5"/>
<text text-anchor="middle" x="2864" y="-119.5" font-family="Arial.ttf" font-size="10.00">SLKeyframeCamera.h</text>
</a>
</g>
</g>
<!-- Node46&#45;&gt;Node62 -->
<g id="edge74" class="edge">
<title>Node46&#45;&gt;Node62</title>
<path fill="none" stroke="midnightblue" d="M2864,-214.35C2864,-190.25 2864,-149.31 2864,-131.59"/>
<polygon fill="midnightblue" stroke="midnightblue" points="2860.5,-214.37 2864,-224.37 2867.5,-214.37 2860.5,-214.37"/>
</g>
<!-- Node61&#45;&gt;Node23 -->
<g id="edge73" class="edge">
<title>Node61&#45;&gt;Node23</title>
<path fill="none" stroke="midnightblue" d="M2385.21,-165.83C2347.07,-155.63 2291.52,-140.78 2256.86,-131.52"/>
<polygon fill="midnightblue" stroke="midnightblue" points="2384.43,-169.24 2394.99,-168.44 2386.24,-162.48 2384.43,-169.24"/>
</g>
<!-- Node62&#45;&gt;Node27 -->
<g id="edge75" class="edge">
<title>Node62&#45;&gt;Node27</title>
<path fill="none" stroke="midnightblue" d="M2843.42,-106.38C2829.69,-96.62 2812.07,-84.11 2800.43,-75.83"/>
<polygon fill="midnightblue" stroke="midnightblue" points="2841.61,-109.38 2851.79,-112.32 2845.66,-103.68 2841.61,-109.38"/>
</g>
<!-- Node62&#45;&gt;Node31 -->
<g id="edge76" class="edge">
<title>Node62&#45;&gt;Node31</title>
<path fill="none" stroke="midnightblue" d="M2876.7,-103.86C2883.63,-94.5 2891.91,-83.33 2897.52,-75.75"/>
<polygon fill="midnightblue" stroke="midnightblue" points="2873.75,-101.96 2870.61,-112.08 2879.37,-106.13 2873.75,-101.96"/>
</g>
<!-- Node62&#45;&gt;Node62 -->
<g id="edge77" class="edge">
<title>Node62&#45;&gt;Node62</title>
<path fill="none" stroke="midnightblue" d="M2905.78,-132.39C2923.45,-133.17 2938.5,-129.71 2938.5,-122 2938.5,-112.87 2917.36,-109.69 2895.77,-112.47"/>
<polygon fill="midnightblue" stroke="midnightblue" points="2906.04,-128.9 2895.77,-131.53 2905.43,-135.88 2906.04,-128.9"/>
</g>
</g>
</svg>
