<?xml version="1.0" encoding="UTF-8" standalone="no"?>
<!DOCTYPE svg PUBLIC "-//W3C//DTD SVG 1.1//EN"
 "http://www.w3.org/Graphics/SVG/1.1/DTD/svg11.dtd">
<!-- Generated by graphviz version 2.50.0 (20211204.2007)
 -->
<!-- Title: SLSkybox.h Pages: 1 -->
<svg width="1023pt" height="84pt"
 viewBox="0.00 0.00 1023.00 84.00" xmlns="http://www.w3.org/2000/svg" xmlns:xlink="http://www.w3.org/1999/xlink">
<g id="graph0" class="graph" transform="scale(1 1) rotate(0) translate(4 80)">
<title>SLSkybox.h</title>
<polygon fill="white" stroke="transparent" points="-4,4 -4,-80 1019,-80 1019,4 -4,4"/>
<!-- Node1 -->
<g id="node1" class="node">
<title>Node1</title>
<g id="a_node1"><a xlink:title=" ">
<polygon fill="#bfbfbf" stroke="black" points="490,-56.5 490,-75.5 560,-75.5 560,-56.5 490,-56.5"/>
<text text-anchor="middle" x="525" y="-63.5" font-family="Arial" font-size="10.00">SLSkybox.h</text>
</a>
</g>
</g>
<!-- Node2 -->
<g id="node2" class="node">
<title>Node2</title>
<g id="a_node2"><a xlink:href="_app_demo_gui_8cpp.html" target="_top" xlink:title=" ">
<polygon fill="white" stroke="black" points="0,-0.5 0,-19.5 94,-19.5 94,-0.5 0,-0.5"/>
<text text-anchor="middle" x="47" y="-7.5" font-family="Arial" font-size="10.00">AppDemoGui.cpp</text>
</a>
</g>
</g>
<!-- Node1&#45;&gt;Node2 -->
<g id="edge1" class="edge">
<title>Node1&#45;&gt;Node2</title>
<path fill="none" stroke="midnightblue" d="M479.56,-60.95C402.13,-53.88 239.71,-38.26 103,-20 100.07,-19.61 97.06,-19.19 94.03,-18.74"/>
<polygon fill="midnightblue" stroke="midnightblue" points="479.64,-64.47 489.91,-61.89 480.27,-57.5 479.64,-64.47"/>
</g>
<!-- Node3 -->
<g id="node3" class="node">
<title>Node3</title>
<g id="a_node3"><a xlink:href="_app_demo_load_8cpp.html" target="_top" xlink:title=" ">
<polygon fill="white" stroke="black" points="112,-0.5 112,-19.5 212,-19.5 212,-0.5 112,-0.5"/>
<text text-anchor="middle" x="162" y="-7.5" font-family="Arial" font-size="10.00">AppDemoLoad.cpp</text>
</a>
</g>
</g>
<!-- Node1&#45;&gt;Node3 -->
<g id="edge2" class="edge">
<title>Node1&#45;&gt;Node3</title>
<path fill="none" stroke="midnightblue" d="M479.72,-58.36C420.31,-49.64 312.83,-33.8 221,-20 218.13,-19.57 215.18,-19.12 212.21,-18.67"/>
<polygon fill="midnightblue" stroke="midnightblue" points="479.48,-61.86 489.88,-59.85 480.5,-54.94 479.48,-61.86"/>
</g>
<!-- Node4 -->
<g id="node4" class="node">
<title>Node4</title>
<g id="a_node4"><a xlink:href="_s_l_g_l_program_8cpp.html" target="_top" xlink:title=" ">
<polygon fill="white" stroke="black" points="230.5,-0.5 230.5,-19.5 327.5,-19.5 327.5,-0.5 230.5,-0.5"/>
<text text-anchor="middle" x="279" y="-7.5" font-family="Arial" font-size="10.00">SLGLProgram.cpp</text>
</a>
</g>
</g>
<!-- Node1&#45;&gt;Node4 -->
<g id="edge3" class="edge">
<title>Node1&#45;&gt;Node4</title>
<path fill="none" stroke="midnightblue" d="M479.96,-55.11C433.52,-44.92 361.86,-29.19 317.83,-19.52"/>
<polygon fill="midnightblue" stroke="midnightblue" points="479.24,-58.54 489.75,-57.26 480.74,-51.7 479.24,-58.54"/>
</g>
<!-- Node5 -->
<g id="node5" class="node">
<title>Node5</title>
<g id="a_node5"><a xlink:href="_s_l_material_8cpp.html" target="_top" xlink:title=" ">
<polygon fill="white" stroke="black" points="346,-0.5 346,-19.5 428,-19.5 428,-0.5 346,-0.5"/>
<text text-anchor="middle" x="387" y="-7.5" font-family="Arial" font-size="10.00">SLMaterial.cpp</text>
</a>
</g>
</g>
<!-- Node1&#45;&gt;Node5 -->
<g id="edge4" class="edge">
<title>Node1&#45;&gt;Node5</title>
<path fill="none" stroke="midnightblue" d="M493.75,-52.77C467.83,-42.63 431.64,-28.47 408.76,-19.52"/>
<polygon fill="midnightblue" stroke="midnightblue" points="492.55,-56.06 503.13,-56.44 495.1,-49.54 492.55,-56.06"/>
</g>
<!-- Node6 -->
<g id="node6" class="node">
<title>Node6</title>
<g id="a_node6"><a xlink:href="_s_l_mesh_8cpp.html" target="_top" xlink:title=" ">
<polygon fill="white" stroke="black" points="446.5,-0.5 446.5,-19.5 517.5,-19.5 517.5,-0.5 446.5,-0.5"/>
<text text-anchor="middle" x="482" y="-7.5" font-family="Arial" font-size="10.00">SLMesh.cpp</text>
</a>
</g>
</g>
<!-- Node1&#45;&gt;Node6 -->
<g id="edge5" class="edge">
<title>Node1&#45;&gt;Node6</title>
<path fill="none" stroke="midnightblue" d="M511.58,-48.14C504.09,-38.74 495.06,-27.4 488.97,-19.75"/>
<polygon fill="midnightblue" stroke="midnightblue" points="508.93,-50.44 517.9,-56.08 514.41,-46.08 508.93,-50.44"/>
</g>
<!-- Node7 -->
<g id="node7" class="node">
<title>Node7</title>
<g id="a_node7"><a xlink:href="_s_l_ray_8cpp.html" target="_top" xlink:title=" ">
<polygon fill="white" stroke="black" points="535.5,-0.5 535.5,-19.5 600.5,-19.5 600.5,-0.5 535.5,-0.5"/>
<text text-anchor="middle" x="568" y="-7.5" font-family="Arial" font-size="10.00">SLRay.cpp</text>
</a>
</g>
</g>
<!-- Node1&#45;&gt;Node7 -->
<g id="edge6" class="edge">
<title>Node1&#45;&gt;Node7</title>
<path fill="none" stroke="midnightblue" d="M538.42,-48.14C545.91,-38.74 554.94,-27.4 561.03,-19.75"/>
<polygon fill="midnightblue" stroke="midnightblue" points="535.59,-46.08 532.1,-56.08 541.07,-50.44 535.59,-46.08"/>
</g>
<!-- Node8 -->
<g id="node8" class="node">
<title>Node8</title>
<g id="a_node8"><a xlink:href="_s_l_raytracer_8cpp.html" target="_top" xlink:title=" ">
<polygon fill="white" stroke="black" points="619,-0.5 619,-19.5 709,-19.5 709,-0.5 619,-0.5"/>
<text text-anchor="middle" x="664" y="-7.5" font-family="Arial" font-size="10.00">SLRaytracer.cpp</text>
</a>
</g>
</g>
<!-- Node1&#45;&gt;Node8 -->
<g id="edge7" class="edge">
<title>Node1&#45;&gt;Node8</title>
<path fill="none" stroke="midnightblue" d="M556.48,-52.77C582.59,-42.63 619.04,-28.47 642.08,-19.52"/>
<polygon fill="midnightblue" stroke="midnightblue" points="555.08,-49.56 547.02,-56.44 557.61,-56.08 555.08,-49.56"/>
</g>
<!-- Node9 -->
<g id="node9" class="node">
<title>Node9</title>
<g id="a_node9"><a xlink:href="_s_l_scene_8cpp.html" target="_top" xlink:title=" ">
<polygon fill="white" stroke="black" points="727.5,-0.5 727.5,-19.5 802.5,-19.5 802.5,-0.5 727.5,-0.5"/>
<text text-anchor="middle" x="765" y="-7.5" font-family="Arial" font-size="10.00">SLScene.cpp</text>
</a>
</g>
</g>
<!-- Node1&#45;&gt;Node9 -->
<g id="edge8" class="edge">
<title>Node1&#45;&gt;Node9</title>
<path fill="none" stroke="midnightblue" d="M570.03,-54.87C615.45,-44.65 684.79,-29.05 727.38,-19.47"/>
<polygon fill="midnightblue" stroke="midnightblue" points="569.14,-51.48 560.16,-57.09 570.68,-58.31 569.14,-51.48"/>
</g>
<!-- Node10 -->
<g id="node10" class="node">
<title>Node10</title>
<g id="a_node10"><a xlink:href="_s_l_scene_view_8cpp.html" target="_top" xlink:title=" ">
<polygon fill="white" stroke="black" points="821,-0.5 821,-19.5 917,-19.5 917,-0.5 821,-0.5"/>
<text text-anchor="middle" x="869" y="-7.5" font-family="Arial" font-size="10.00">SLSceneView.cpp</text>
</a>
</g>
</g>
<!-- Node1&#45;&gt;Node10 -->
<g id="edge9" class="edge">
<title>Node1&#45;&gt;Node10</title>
<path fill="none" stroke="midnightblue" d="M570.4,-57.9C626.98,-49.04 726.64,-33.43 812,-20 814.87,-19.55 817.82,-19.08 820.8,-18.61"/>
<polygon fill="midnightblue" stroke="midnightblue" points="569.69,-54.47 560.35,-59.47 570.77,-61.38 569.69,-54.47"/>
</g>
<!-- Node11 -->
<g id="node11" class="node">
<title>Node11</title>
<g id="a_node11"><a xlink:href="_s_l_skybox_8cpp.html" target="_top" xlink:title=" ">
<polygon fill="white" stroke="black" points="935,-0.5 935,-19.5 1015,-19.5 1015,-0.5 935,-0.5"/>
<text text-anchor="middle" x="975" y="-7.5" font-family="Arial" font-size="10.00">SLSkybox.cpp</text>
</a>
</g>
</g>
<!-- Node1&#45;&gt;Node11 -->
<g id="edge10" class="edge">
<title>Node1&#45;&gt;Node11</title>
<path fill="none" stroke="midnightblue" d="M570.21,-60.97C644.61,-54.09 797.43,-39 926,-20 928.91,-19.57 931.91,-19.1 934.93,-18.6"/>
<polygon fill="midnightblue" stroke="midnightblue" points="569.88,-57.48 560.24,-61.88 570.52,-64.45 569.88,-57.48"/>
</g>
</g>
</svg>
