<?xml version="1.0" encoding="UTF-8" standalone="no"?>
<!DOCTYPE svg PUBLIC "-//W3C//DTD SVG 1.1//EN"
 "http://www.w3.org/Graphics/SVG/1.1/DTD/svg11.dtd">
<!-- Generated by graphviz version 2.50.0 (20211204.2007)
 -->
<!-- Title: SLBox.h Pages: 1 -->
<svg width="2710pt" height="308pt"
 viewBox="0.00 0.00 2709.50 308.00" xmlns="http://www.w3.org/2000/svg" xmlns:xlink="http://www.w3.org/1999/xlink">
<g id="graph0" class="graph" transform="scale(1 1) rotate(0) translate(4 304)">
<title>SLBox.h</title>
<polygon fill="white" stroke="transparent" points="-4,4 -4,-304 2705.5,-304 2705.5,4 -4,4"/>
<!-- Node1 -->
<g id="node1" class="node">
<title>Node1</title>
<g id="a_node1"><a xlink:title=" ">
<polygon fill="#bfbfbf" stroke="black" points="2562,-280.5 2562,-299.5 2616,-299.5 2616,-280.5 2562,-280.5"/>
<text text-anchor="middle" x="2589" y="-287.5" font-family="Arial" font-size="10.00">SLBox.h</text>
</a>
</g>
</g>
<!-- Node2 -->
<g id="node2" class="node">
<title>Node2</title>
<g id="a_node2"><a xlink:href="_s_l_g_l_conetracer_8h.html" target="_top" xlink:title=" ">
<polygon fill="white" stroke="black" points="1186,-224.5 1186,-243.5 1284,-243.5 1284,-224.5 1186,-224.5"/>
<text text-anchor="middle" x="1235" y="-231.5" font-family="Arial" font-size="10.00">SLGLConetracer.h</text>
</a>
</g>
</g>
<!-- Node1&#45;&gt;Node2 -->
<g id="edge1" class="edge">
<title>Node1&#45;&gt;Node2</title>
<path fill="none" stroke="midnightblue" d="M2551.92,-287.52C2362.15,-279.95 1500.18,-245.58 1284.19,-236.96"/>
<polygon fill="midnightblue" stroke="midnightblue" points="2551.82,-291.02 2561.95,-287.92 2552.1,-284.03 2551.82,-291.02"/>
</g>
<!-- Node17 -->
<g id="node17" class="node">
<title>Node17</title>
<g id="a_node17"><a xlink:href="_s_l_skybox_8cpp.html" target="_top" xlink:title=" ">
<polygon fill="white" stroke="black" points="2500,-112.5 2500,-131.5 2580,-131.5 2580,-112.5 2500,-112.5"/>
<text text-anchor="middle" x="2540" y="-119.5" font-family="Arial" font-size="10.00">SLSkybox.cpp</text>
</a>
</g>
</g>
<!-- Node1&#45;&gt;Node17 -->
<g id="edge39" class="edge">
<title>Node1&#45;&gt;Node17</title>
<path fill="none" stroke="midnightblue" d="M2583.51,-270.39C2572.94,-234.59 2550.14,-157.34 2542.53,-131.57"/>
<polygon fill="midnightblue" stroke="midnightblue" points="2580.18,-271.48 2586.37,-280.08 2586.89,-269.49 2580.18,-271.48"/>
</g>
<!-- Node23 -->
<g id="node23" class="node">
<title>Node23</title>
<g id="a_node23"><a xlink:href="_app_demo_load_8cpp.html" target="_top" xlink:title=" ">
<polygon fill="white" stroke="black" points="2422,-0.5 2422,-19.5 2522,-19.5 2522,-0.5 2422,-0.5"/>
<text text-anchor="middle" x="2472" y="-7.5" font-family="Arial" font-size="10.00">AppDemoLoad.cpp</text>
</a>
</g>
</g>
<!-- Node1&#45;&gt;Node23 -->
<g id="edge40" class="edge">
<title>Node1&#45;&gt;Node23</title>
<path fill="none" stroke="midnightblue" d="M2594.22,-270.39C2599.84,-248.65 2608,-211.51 2608,-179 2608,-179 2608,-179 2608,-121 2608,-65.88 2539.64,-33.63 2499.85,-19.52"/>
<polygon fill="midnightblue" stroke="midnightblue" points="2590.78,-269.68 2591.56,-280.25 2597.54,-271.5 2590.78,-269.68"/>
</g>
<!-- Node33 -->
<g id="node33" class="node">
<title>Node33</title>
<g id="a_node33"><a xlink:href="_s_l_box_8cpp.html" target="_top" xlink:title=" ">
<polygon fill="white" stroke="black" points="2636.5,-224.5 2636.5,-243.5 2701.5,-243.5 2701.5,-224.5 2636.5,-224.5"/>
<text text-anchor="middle" x="2669" y="-231.5" font-family="Arial" font-size="10.00">SLBox.cpp</text>
</a>
</g>
</g>
<!-- Node1&#45;&gt;Node33 -->
<g id="edge38" class="edge">
<title>Node1&#45;&gt;Node33</title>
<path fill="none" stroke="midnightblue" d="M2610.3,-274.62C2624.92,-264.76 2643.83,-251.99 2656.18,-243.65"/>
<polygon fill="midnightblue" stroke="midnightblue" points="2608.18,-271.83 2601.85,-280.32 2612.1,-277.63 2608.18,-271.83"/>
</g>
<!-- Node3 -->
<g id="node3" class="node">
<title>Node3</title>
<g id="a_node3"><a xlink:href="_s_l_g_l_conetracer_8cpp.html" target="_top" xlink:title=" ">
<polygon fill="white" stroke="black" points="0,-112.5 0,-131.5 108,-131.5 108,-112.5 0,-112.5"/>
<text text-anchor="middle" x="54" y="-119.5" font-family="Arial" font-size="10.00">SLGLConetracer.cpp</text>
</a>
</g>
</g>
<!-- Node2&#45;&gt;Node3 -->
<g id="edge2" class="edge">
<title>Node2&#45;&gt;Node3</title>
<path fill="none" stroke="midnightblue" d="M1175.82,-228.74C1009,-216.5 520.87,-179.06 117,-132 114.15,-131.67 111.22,-131.31 108.27,-130.94"/>
<polygon fill="midnightblue" stroke="midnightblue" points="1175.64,-232.24 1185.87,-229.47 1176.15,-225.25 1175.64,-232.24"/>
</g>
<!-- Node4 -->
<g id="node4" class="node">
<title>Node4</title>
<g id="a_node4"><a xlink:href="_s_l_scene_view_8h.html" target="_top" xlink:title=" ">
<polygon fill="white" stroke="black" points="1192,-168.5 1192,-187.5 1278,-187.5 1278,-168.5 1192,-168.5"/>
<text text-anchor="middle" x="1235" y="-175.5" font-family="Arial" font-size="10.00">SLSceneView.h</text>
</a>
</g>
</g>
<!-- Node2&#45;&gt;Node4 -->
<g id="edge3" class="edge">
<title>Node2&#45;&gt;Node4</title>
<path fill="none" stroke="midnightblue" d="M1235,-213.8C1235,-204.91 1235,-194.78 1235,-187.75"/>
<polygon fill="midnightblue" stroke="midnightblue" points="1231.5,-214.08 1235,-224.08 1238.5,-214.08 1231.5,-214.08"/>
</g>
<!-- Node4&#45;&gt;Node3 -->
<g id="edge6" class="edge">
<title>Node4&#45;&gt;Node3</title>
<path fill="none" stroke="midnightblue" d="M1181.89,-176.78C1021.11,-175.69 525.64,-169.31 117,-132 114.14,-131.74 111.21,-131.44 108.26,-131.11"/>
<polygon fill="midnightblue" stroke="midnightblue" points="1181.97,-180.28 1191.99,-176.84 1182.01,-173.28 1181.97,-180.28"/>
</g>
<!-- Node5 -->
<g id="node5" class="node">
<title>Node5</title>
<g id="a_node5"><a xlink:href="_s_l_anim_skeleton_8cpp.html" target="_top" xlink:title=" ">
<polygon fill="white" stroke="black" points="804,-112.5 804,-131.5 912,-131.5 912,-112.5 804,-112.5"/>
<text text-anchor="middle" x="858" y="-119.5" font-family="Arial" font-size="10.00">SLAnimSkeleton.cpp</text>
</a>
</g>
</g>
<!-- Node4&#45;&gt;Node5 -->
<g id="edge4" class="edge">
<title>Node4&#45;&gt;Node5</title>
<path fill="none" stroke="midnightblue" d="M1181.62,-169.35C1110.18,-159.12 984.15,-141.07 912.26,-130.77"/>
<polygon fill="midnightblue" stroke="midnightblue" points="1181.36,-172.85 1191.75,-170.81 1182.35,-165.92 1181.36,-172.85"/>
</g>
<!-- Node6 -->
<g id="node6" class="node">
<title>Node6</title>
<g id="a_node6"><a xlink:href="_s_l_anim_track_8cpp.html" target="_top" xlink:title=" ">
<polygon fill="white" stroke="black" points="930.5,-112.5 930.5,-131.5 1025.5,-131.5 1025.5,-112.5 930.5,-112.5"/>
<text text-anchor="middle" x="978" y="-119.5" font-family="Arial" font-size="10.00">SLAnimTrack.cpp</text>
</a>
</g>
</g>
<!-- Node4&#45;&gt;Node6 -->
<g id="edge5" class="edge">
<title>Node4&#45;&gt;Node6</title>
<path fill="none" stroke="midnightblue" d="M1184.29,-166.35C1135.72,-156.14 1063.38,-140.94 1018.53,-131.52"/>
<polygon fill="midnightblue" stroke="midnightblue" points="1183.77,-169.81 1194.28,-168.44 1185.21,-162.96 1183.77,-169.81"/>
</g>
<!-- Node7 -->
<g id="node7" class="node">
<title>Node7</title>
<g id="a_node7"><a xlink:href="_s_l_g_l_im_gui_8cpp.html" target="_top" xlink:title=" ">
<polygon fill="white" stroke="black" points="1680,-112.5 1680,-131.5 1766,-131.5 1766,-112.5 1680,-112.5"/>
<text text-anchor="middle" x="1723" y="-119.5" font-family="Arial" font-size="10.00">SLGLImGui.cpp</text>
</a>
</g>
</g>
<!-- Node4&#45;&gt;Node7 -->
<g id="edge7" class="edge">
<title>Node4&#45;&gt;Node7</title>
<path fill="none" stroke="midnightblue" d="M1288.1,-172.63C1370.19,-165.62 1532.75,-150.73 1670,-132 1673.24,-131.56 1676.58,-131.07 1679.94,-130.55"/>
<polygon fill="midnightblue" stroke="midnightblue" points="1287.69,-169.15 1278.02,-173.49 1288.28,-176.13 1287.69,-169.15"/>
</g>
<!-- Node8 -->
<g id="node8" class="node">
<title>Node8</title>
<g id="a_node8"><a xlink:href="_s_l_input_manager_8cpp.html" target="_top" xlink:title=" ">
<polygon fill="white" stroke="black" points="1784.5,-112.5 1784.5,-131.5 1891.5,-131.5 1891.5,-112.5 1784.5,-112.5"/>
<text text-anchor="middle" x="1838" y="-119.5" font-family="Arial" font-size="10.00">SLInputManager.cpp</text>
</a>
</g>
</g>
<!-- Node4&#45;&gt;Node8 -->
<g id="edge8" class="edge">
<title>Node4&#45;&gt;Node8</title>
<path fill="none" stroke="midnightblue" d="M1288.27,-173.6C1385.26,-167.19 1597.09,-152.1 1775,-132 1778.07,-131.65 1781.23,-131.27 1784.41,-130.87"/>
<polygon fill="midnightblue" stroke="midnightblue" points="1287.88,-170.12 1278.13,-174.27 1288.34,-177.11 1287.88,-170.12"/>
</g>
<!-- Node9 -->
<g id="node9" class="node">
<title>Node9</title>
<g id="a_node9"><a xlink:href="_s_l_mesh_8cpp.html" target="_top" xlink:title=" ">
<polygon fill="white" stroke="black" points="1909.5,-112.5 1909.5,-131.5 1980.5,-131.5 1980.5,-112.5 1909.5,-112.5"/>
<text text-anchor="middle" x="1945" y="-119.5" font-family="Arial" font-size="10.00">SLMesh.cpp</text>
</a>
</g>
</g>
<!-- Node4&#45;&gt;Node9 -->
<g id="edge9" class="edge">
<title>Node4&#45;&gt;Node9</title>
<path fill="none" stroke="midnightblue" d="M1288.51,-175.73C1401.78,-172.54 1673.93,-162.13 1900,-132 1903,-131.6 1906.1,-131.12 1909.21,-130.59"/>
<polygon fill="midnightblue" stroke="midnightblue" points="1288.27,-172.24 1278.37,-176.01 1288.47,-179.24 1288.27,-172.24"/>
</g>
<!-- Node10 -->
<g id="node10" class="node">
<title>Node10</title>
<g id="a_node10"><a xlink:href="_s_l_camera_8cpp.html" target="_top" xlink:title=" ">
<polygon fill="white" stroke="black" points="1999,-112.5 1999,-131.5 2081,-131.5 2081,-112.5 1999,-112.5"/>
<text text-anchor="middle" x="2040" y="-119.5" font-family="Arial" font-size="10.00">SLCamera.cpp</text>
</a>
</g>
</g>
<!-- Node4&#45;&gt;Node10 -->
<g id="edge10" class="edge">
<title>Node4&#45;&gt;Node10</title>
<path fill="none" stroke="midnightblue" d="M1288.4,-175.92C1412.03,-172.97 1727.36,-162.79 1989,-132 1992.21,-131.62 1995.53,-131.17 1998.86,-130.68"/>
<polygon fill="midnightblue" stroke="midnightblue" points="1288,-172.43 1278.08,-176.16 1288.16,-179.43 1288,-172.43"/>
</g>
<!-- Node11 -->
<g id="node11" class="node">
<title>Node11</title>
<g id="a_node11"><a xlink:href="_s_l_keyframe_camera_8cpp.html" target="_top" xlink:title=" ">
<polygon fill="white" stroke="black" points="2099,-112.5 2099,-131.5 2223,-131.5 2223,-112.5 2099,-112.5"/>
<text text-anchor="middle" x="2161" y="-119.5" font-family="Arial" font-size="10.00">SLKeyframeCamera.cpp</text>
</a>
</g>
</g>
<!-- Node4&#45;&gt;Node11 -->
<g id="edge11" class="edge">
<title>Node4&#45;&gt;Node11</title>
<path fill="none" stroke="midnightblue" d="M1288.27,-175.56C1422.86,-171.62 1787.35,-159.11 2090,-132 2092.85,-131.75 2095.75,-131.46 2098.69,-131.16"/>
<polygon fill="midnightblue" stroke="midnightblue" points="1288.12,-172.06 1278.23,-175.85 1288.33,-179.06 1288.12,-172.06"/>
</g>
<!-- Node12 -->
<g id="node12" class="node">
<title>Node12</title>
<g id="a_node12"><a xlink:href="_s_l_light_direct_8cpp.html" target="_top" xlink:title=" ">
<polygon fill="white" stroke="black" points="2241.5,-112.5 2241.5,-131.5 2336.5,-131.5 2336.5,-112.5 2241.5,-112.5"/>
<text text-anchor="middle" x="2289" y="-119.5" font-family="Arial" font-size="10.00">SLLightDirect.cpp</text>
</a>
</g>
</g>
<!-- Node4&#45;&gt;Node12 -->
<g id="edge12" class="edge">
<title>Node4&#45;&gt;Node12</title>
<path fill="none" stroke="midnightblue" d="M1288.65,-176.68C1438.31,-175.33 1873,-168.33 2232,-132 2235.09,-131.69 2238.27,-131.32 2241.47,-130.91"/>
<polygon fill="midnightblue" stroke="midnightblue" points="1288.34,-173.18 1278.37,-176.77 1288.4,-180.18 1288.34,-173.18"/>
</g>
<!-- Node13 -->
<g id="node13" class="node">
<title>Node13</title>
<g id="a_node13"><a xlink:href="_s_l_light_rect_8cpp.html" target="_top" xlink:title=" ">
<polygon fill="white" stroke="black" points="2354.5,-112.5 2354.5,-131.5 2443.5,-131.5 2443.5,-112.5 2354.5,-112.5"/>
<text text-anchor="middle" x="2399" y="-119.5" font-family="Arial" font-size="10.00">SLLightRect.cpp</text>
</a>
</g>
</g>
<!-- Node4&#45;&gt;Node13 -->
<g id="edge13" class="edge">
<title>Node4&#45;&gt;Node13</title>
<path fill="none" stroke="midnightblue" d="M1288.1,-177.25C1448.3,-177.49 1940.68,-174.45 2346,-132 2348.69,-131.72 2351.45,-131.38 2354.24,-131.01"/>
<polygon fill="midnightblue" stroke="midnightblue" points="1288.04,-173.75 1278.04,-177.23 1288.03,-180.75 1288.04,-173.75"/>
</g>
<!-- Node14 -->
<g id="node14" class="node">
<title>Node14</title>
<g id="a_node14"><a xlink:href="_s_l_light_spot_8cpp.html" target="_top" xlink:title=" ">
<polygon fill="white" stroke="black" points="126.5,-112.5 126.5,-131.5 215.5,-131.5 215.5,-112.5 126.5,-112.5"/>
<text text-anchor="middle" x="171" y="-119.5" font-family="Arial" font-size="10.00">SLLightSpot.cpp</text>
</a>
</g>
</g>
<!-- Node4&#45;&gt;Node14 -->
<g id="edge14" class="edge">
<title>Node4&#45;&gt;Node14</title>
<path fill="none" stroke="midnightblue" d="M1181.64,-176.95C1030.82,-176.29 588.67,-170.93 224,-132 221.31,-131.71 218.55,-131.38 215.77,-131"/>
<polygon fill="midnightblue" stroke="midnightblue" points="1181.98,-180.45 1191.99,-176.98 1182,-173.45 1181.98,-180.45"/>
</g>
<!-- Node15 -->
<g id="node15" class="node">
<title>Node15</title>
<g id="a_node15"><a xlink:href="_s_l_node_8cpp.html" target="_top" xlink:title=" ">
<polygon fill="white" stroke="black" points="233.5,-112.5 233.5,-131.5 304.5,-131.5 304.5,-112.5 233.5,-112.5"/>
<text text-anchor="middle" x="269" y="-119.5" font-family="Arial" font-size="10.00">SLNode.cpp</text>
</a>
</g>
</g>
<!-- Node4&#45;&gt;Node15 -->
<g id="edge15" class="edge">
<title>Node4&#45;&gt;Node15</title>
<path fill="none" stroke="midnightblue" d="M1181.41,-177.24C1039.26,-177.26 641.08,-173.31 313,-132 310.37,-131.67 307.66,-131.27 304.94,-130.82"/>
<polygon fill="midnightblue" stroke="midnightblue" points="1181.6,-180.74 1191.59,-177.23 1181.59,-173.74 1181.6,-180.74"/>
</g>
<!-- Node16 -->
<g id="node16" class="node">
<title>Node16</title>
<g id="a_node16"><a xlink:href="_s_l_node_l_o_d_8cpp.html" target="_top" xlink:title=" ">
<polygon fill="white" stroke="black" points="322.5,-112.5 322.5,-131.5 413.5,-131.5 413.5,-112.5 322.5,-112.5"/>
<text text-anchor="middle" x="368" y="-119.5" font-family="Arial" font-size="10.00">SLNodeLOD.cpp</text>
</a>
</g>
</g>
<!-- Node4&#45;&gt;Node16 -->
<g id="edge16" class="edge">
<title>Node4&#45;&gt;Node16</title>
<path fill="none" stroke="midnightblue" d="M1181.53,-175.74C1051.96,-172.31 711.03,-161.05 428,-132 423.39,-131.53 418.59,-130.95 413.81,-130.32"/>
<polygon fill="midnightblue" stroke="midnightblue" points="1181.5,-179.24 1191.59,-176 1181.68,-172.24 1181.5,-179.24"/>
</g>
<!-- Node4&#45;&gt;Node17 -->
<g id="edge17" class="edge">
<title>Node4&#45;&gt;Node17</title>
<path fill="none" stroke="midnightblue" d="M1288.19,-177.54C1461.25,-178.76 2023.79,-178.63 2486,-132 2490.54,-131.54 2495.27,-130.94 2499.97,-130.26"/>
<polygon fill="midnightblue" stroke="midnightblue" points="1288.1,-174.04 1278.07,-177.46 1288.05,-181.04 1288.1,-174.04"/>
</g>
<!-- Node18 -->
<g id="node18" class="node">
<title>Node18</title>
<g id="a_node18"><a xlink:href="_s_l_transform_node_8h.html" target="_top" xlink:title=" ">
<polygon fill="white" stroke="black" points="644,-112.5 644,-131.5 748,-131.5 748,-112.5 644,-112.5"/>
<text text-anchor="middle" x="696" y="-119.5" font-family="Arial" font-size="10.00">SLTransformNode.h</text>
</a>
</g>
</g>
<!-- Node4&#45;&gt;Node18 -->
<g id="edge18" class="edge">
<title>Node4&#45;&gt;Node18</title>
<path fill="none" stroke="midnightblue" d="M1181.67,-172.64C1094,-165.31 913.97,-149.58 762,-132 757.52,-131.48 752.87,-130.91 748.21,-130.32"/>
<polygon fill="midnightblue" stroke="midnightblue" points="1181.64,-176.15 1191.89,-173.49 1182.22,-169.17 1181.64,-176.15"/>
</g>
<!-- Node21 -->
<g id="node21" class="node">
<title>Node21</title>
<g id="a_node21"><a xlink:href="_app_demo_main_g_l_f_w_8cpp.html" target="_top" xlink:title=" ">
<polygon fill="white" stroke="black" points="595,-0.5 595,-19.5 723,-19.5 723,-0.5 595,-0.5"/>
<text text-anchor="middle" x="659" y="-7.5" font-family="Arial" font-size="10.00">AppDemoMainGLFW.cpp</text>
</a>
</g>
</g>
<!-- Node4&#45;&gt;Node21 -->
<g id="edge34" class="edge">
<title>Node4&#45;&gt;Node21</title>
<path fill="none" stroke="midnightblue" d="M1181.38,-177.12C1029.85,-176.94 600.82,-172.75 467,-132 455.28,-128.43 378.08,-86.64 372,-76 367.59,-68.28 366.22,-62.75 372,-56 400.07,-23.18 519.02,-14.13 594.69,-11.74"/>
<polygon fill="midnightblue" stroke="midnightblue" points="1181.8,-180.62 1191.8,-177.13 1181.8,-173.62 1181.8,-180.62"/>
</g>
<!-- Node22 -->
<g id="node22" class="node">
<title>Node22</title>
<g id="a_node22"><a xlink:href="_app_demo_gui_8cpp.html" target="_top" xlink:title=" ">
<polygon fill="white" stroke="black" points="813,-0.5 813,-19.5 907,-19.5 907,-0.5 813,-0.5"/>
<text text-anchor="middle" x="860" y="-7.5" font-family="Arial" font-size="10.00">AppDemoGui.cpp</text>
</a>
</g>
</g>
<!-- Node4&#45;&gt;Node22 -->
<g id="edge35" class="edge">
<title>Node4&#45;&gt;Node22</title>
<path fill="none" stroke="midnightblue" d="M1181.92,-175.48C1070.53,-171.74 820.51,-160.26 795,-132 789.04,-125.4 789.72,-119.15 795,-112 827.32,-68.24 879.68,-119.76 912,-76 927.28,-55.31 896.17,-31.97 875.8,-19.66"/>
<polygon fill="midnightblue" stroke="midnightblue" points="1181.83,-178.98 1191.94,-175.81 1182.06,-171.98 1181.83,-178.98"/>
</g>
<!-- Node4&#45;&gt;Node23 -->
<g id="edge36" class="edge">
<title>Node4&#45;&gt;Node23</title>
<path fill="none" stroke="midnightblue" d="M1288.08,-176.9C1516.83,-176.24 2408.87,-171.17 2453,-132 2485.76,-102.92 2478.1,-42.29 2473.86,-19.72"/>
<polygon fill="midnightblue" stroke="midnightblue" points="1288,-173.4 1278.01,-176.93 1288.02,-180.4 1288,-173.4"/>
</g>
<!-- Node24 -->
<g id="node24" class="node">
<title>Node24</title>
<g id="a_node24"><a xlink:href="_s_l_pathtracer_8cpp.html" target="_top" xlink:title=" ">
<polygon fill="white" stroke="black" points="1044,-112.5 1044,-131.5 1136,-131.5 1136,-112.5 1044,-112.5"/>
<text text-anchor="middle" x="1090" y="-119.5" font-family="Arial" font-size="10.00">SLPathtracer.cpp</text>
</a>
</g>
</g>
<!-- Node4&#45;&gt;Node24 -->
<g id="edge24" class="edge">
<title>Node4&#45;&gt;Node24</title>
<path fill="none" stroke="midnightblue" d="M1202.52,-164.91C1175.26,-154.75 1137.01,-140.51 1112.87,-131.52"/>
<polygon fill="midnightblue" stroke="midnightblue" points="1201.43,-168.23 1212.02,-168.44 1203.87,-161.67 1201.43,-168.23"/>
</g>
<!-- Node25 -->
<g id="node25" class="node">
<title>Node25</title>
<g id="a_node25"><a xlink:href="_s_l_ray_8cpp.html" target="_top" xlink:title=" ">
<polygon fill="white" stroke="black" points="1154.5,-112.5 1154.5,-131.5 1219.5,-131.5 1219.5,-112.5 1154.5,-112.5"/>
<text text-anchor="middle" x="1187" y="-119.5" font-family="Arial" font-size="10.00">SLRay.cpp</text>
</a>
</g>
</g>
<!-- Node4&#45;&gt;Node25 -->
<g id="edge25" class="edge">
<title>Node4&#45;&gt;Node25</title>
<path fill="none" stroke="midnightblue" d="M1220.27,-160.43C1211.86,-150.97 1201.65,-139.48 1194.78,-131.75"/>
<polygon fill="midnightblue" stroke="midnightblue" points="1217.81,-162.93 1227.07,-168.08 1223.05,-158.28 1217.81,-162.93"/>
</g>
<!-- Node26 -->
<g id="node26" class="node">
<title>Node26</title>
<g id="a_node26"><a xlink:href="_s_l_raytracer_8cpp.html" target="_top" xlink:title=" ">
<polygon fill="white" stroke="black" points="1238,-112.5 1238,-131.5 1328,-131.5 1328,-112.5 1238,-112.5"/>
<text text-anchor="middle" x="1283" y="-119.5" font-family="Arial" font-size="10.00">SLRaytracer.cpp</text>
</a>
</g>
</g>
<!-- Node4&#45;&gt;Node26 -->
<g id="edge26" class="edge">
<title>Node4&#45;&gt;Node26</title>
<path fill="none" stroke="midnightblue" d="M1249.73,-160.43C1258.14,-150.97 1268.35,-139.48 1275.22,-131.75"/>
<polygon fill="midnightblue" stroke="midnightblue" points="1246.95,-158.28 1242.93,-168.08 1252.19,-162.93 1246.95,-158.28"/>
</g>
<!-- Node27 -->
<g id="node27" class="node">
<title>Node27</title>
<g id="a_node27"><a xlink:href="_s_l_material_8cpp.html" target="_top" xlink:title=" ">
<polygon fill="white" stroke="black" points="1346,-112.5 1346,-131.5 1428,-131.5 1428,-112.5 1346,-112.5"/>
<text text-anchor="middle" x="1387" y="-119.5" font-family="Arial" font-size="10.00">SLMaterial.cpp</text>
</a>
</g>
</g>
<!-- Node4&#45;&gt;Node27 -->
<g id="edge27" class="edge">
<title>Node4&#45;&gt;Node27</title>
<path fill="none" stroke="midnightblue" d="M1268.67,-165.04C1297.27,-154.88 1337.61,-140.55 1363.03,-131.52"/>
<polygon fill="midnightblue" stroke="midnightblue" points="1267.34,-161.8 1259.08,-168.44 1269.68,-168.39 1267.34,-161.8"/>
</g>
<!-- Node28 -->
<g id="node28" class="node">
<title>Node28</title>
<g id="a_node28"><a xlink:href="_s_l_scene_view_8cpp.html" target="_top" xlink:title=" ">
<polygon fill="white" stroke="black" points="1446,-112.5 1446,-131.5 1542,-131.5 1542,-112.5 1446,-112.5"/>
<text text-anchor="middle" x="1494" y="-119.5" font-family="Arial" font-size="10.00">SLSceneView.cpp</text>
</a>
</g>
</g>
<!-- Node4&#45;&gt;Node28 -->
<g id="edge28" class="edge">
<title>Node4&#45;&gt;Node28</title>
<path fill="none" stroke="midnightblue" d="M1286.1,-166.35C1335.05,-156.14 1407.95,-140.94 1453.15,-131.52"/>
<polygon fill="midnightblue" stroke="midnightblue" points="1285.11,-162.98 1276.04,-168.44 1286.54,-169.83 1285.11,-162.98"/>
</g>
<!-- Node29 -->
<g id="node29" class="node">
<title>Node29</title>
<g id="a_node29"><a xlink:href="_s_l_shadow_map_8cpp.html" target="_top" xlink:title=" ">
<polygon fill="white" stroke="black" points="1560.5,-112.5 1560.5,-131.5 1661.5,-131.5 1661.5,-112.5 1560.5,-112.5"/>
<text text-anchor="middle" x="1611" y="-119.5" font-family="Arial" font-size="10.00">SLShadowMap.cpp</text>
</a>
</g>
</g>
<!-- Node4&#45;&gt;Node29 -->
<g id="edge29" class="edge">
<title>Node4&#45;&gt;Node29</title>
<path fill="none" stroke="midnightblue" d="M1288.27,-169.54C1351.1,-160.71 1458.68,-145.5 1551,-132 1554.02,-131.56 1557.13,-131.1 1560.26,-130.64"/>
<polygon fill="midnightblue" stroke="midnightblue" points="1287.62,-166.09 1278.21,-170.95 1288.59,-173.03 1287.62,-166.09"/>
</g>
<!-- Node30 -->
<g id="node30" class="node">
<title>Node30</title>
<g id="a_node30"><a xlink:href="_app_demo_scene_view_8h.html" target="_top" xlink:title=" ">
<polygon fill="white" stroke="black" points="508.5,-112.5 508.5,-131.5 625.5,-131.5 625.5,-112.5 508.5,-112.5"/>
<text text-anchor="middle" x="567" y="-119.5" font-family="Arial" font-size="10.00">AppDemoSceneView.h</text>
</a>
</g>
</g>
<!-- Node4&#45;&gt;Node30 -->
<g id="edge30" class="edge">
<title>Node4&#45;&gt;Node30</title>
<path fill="none" stroke="midnightblue" d="M1181.61,-174.02C1076.7,-167.93 836.36,-152.86 635,-132 631.92,-131.68 628.76,-131.33 625.58,-130.97"/>
<polygon fill="midnightblue" stroke="midnightblue" points="1181.45,-177.51 1191.63,-174.59 1181.85,-170.52 1181.45,-177.51"/>
</g>
<!-- Node32 -->
<g id="node32" class="node">
<title>Node32</title>
<g id="a_node32"><a xlink:href="_app_demo_video_8cpp.html" target="_top" xlink:title=" ">
<polygon fill="white" stroke="black" points="381,-56.5 381,-75.5 485,-75.5 485,-56.5 381,-56.5"/>
<text text-anchor="middle" x="433" y="-63.5" font-family="Arial" font-size="10.00">AppDemoVideo.cpp</text>
</a>
</g>
</g>
<!-- Node4&#45;&gt;Node32 -->
<g id="edge37" class="edge">
<title>Node4&#45;&gt;Node32</title>
<path fill="none" stroke="midnightblue" d="M1181.38,-175.89C1022.39,-172.29 560.79,-159.55 499,-132 471.39,-119.69 448.74,-90.4 438.65,-75.72"/>
<polygon fill="midnightblue" stroke="midnightblue" points="1181.77,-179.4 1191.85,-176.12 1181.93,-172.4 1181.77,-179.4"/>
</g>
<!-- Node19 -->
<g id="node19" class="node">
<title>Node19</title>
<g id="a_node19"><a xlink:href="_s_l_transform_node_8cpp.html" target="_top" xlink:title=" ">
<polygon fill="white" stroke="black" points="789,-56.5 789,-75.5 903,-75.5 903,-56.5 789,-56.5"/>
<text text-anchor="middle" x="846" y="-63.5" font-family="Arial" font-size="10.00">SLTransformNode.cpp</text>
</a>
</g>
</g>
<!-- Node18&#45;&gt;Node19 -->
<g id="edge19" class="edge">
<title>Node18&#45;&gt;Node19</title>
<path fill="none" stroke="midnightblue" d="M729.22,-109.04C757.45,-98.88 797.26,-84.55 822.34,-75.52"/>
<polygon fill="midnightblue" stroke="midnightblue" points="727.99,-105.76 719.77,-112.44 730.36,-112.35 727.99,-105.76"/>
</g>
<!-- Node20 -->
<g id="node20" class="node">
<title>Node20</title>
<g id="a_node20"><a xlink:href="_app_demo_gui_8h.html" target="_top" xlink:title=" ">
<polygon fill="white" stroke="black" points="687.5,-56.5 687.5,-75.5 770.5,-75.5 770.5,-56.5 687.5,-56.5"/>
<text text-anchor="middle" x="729" y="-63.5" font-family="Arial" font-size="10.00">AppDemoGui.h</text>
</a>
</g>
</g>
<!-- Node18&#45;&gt;Node20 -->
<g id="edge20" class="edge">
<title>Node18&#45;&gt;Node20</title>
<path fill="none" stroke="midnightblue" d="M706.83,-103.27C712.47,-94.05 719.12,-83.17 723.65,-75.75"/>
<polygon fill="midnightblue" stroke="midnightblue" points="703.68,-101.73 701.45,-112.08 709.65,-105.38 703.68,-101.73"/>
</g>
<!-- Node20&#45;&gt;Node21 -->
<g id="edge21" class="edge">
<title>Node20&#45;&gt;Node21</title>
<path fill="none" stroke="midnightblue" d="M709.69,-50.1C697.09,-40.38 681.07,-28.03 670.45,-19.83"/>
<polygon fill="midnightblue" stroke="midnightblue" points="707.7,-52.99 717.75,-56.32 711.97,-47.44 707.7,-52.99"/>
</g>
<!-- Node20&#45;&gt;Node22 -->
<g id="edge22" class="edge">
<title>Node20&#45;&gt;Node22</title>
<path fill="none" stroke="midnightblue" d="M759.32,-52.5C783.88,-42.38 817.82,-28.39 839.34,-19.52"/>
<polygon fill="midnightblue" stroke="midnightblue" points="757.67,-49.4 749.76,-56.44 760.34,-55.87 757.67,-49.4"/>
</g>
<!-- Node20&#45;&gt;Node23 -->
<g id="edge23" class="edge">
<title>Node20&#45;&gt;Node23</title>
<path fill="none" stroke="midnightblue" d="M780.84,-56.12C1131.31,-22.44 2179.67,-13.08 2421.75,-11.33"/>
<polygon fill="midnightblue" stroke="midnightblue" points="780.29,-52.66 770.68,-57.13 780.97,-59.63 780.29,-52.66"/>
</g>
<!-- Node30&#45;&gt;Node21 -->
<g id="edge31" class="edge">
<title>Node30&#45;&gt;Node21</title>
<path fill="none" stroke="midnightblue" d="M598.44,-108.07C612.97,-100.65 629.34,-89.99 640,-76 652.97,-58.98 657.1,-33.31 658.41,-19.89"/>
<polygon fill="midnightblue" stroke="midnightblue" points="596.73,-105.01 589.23,-112.49 599.76,-111.32 596.73,-105.01"/>
</g>
<!-- Node31 -->
<g id="node31" class="node">
<title>Node31</title>
<g id="a_node31"><a xlink:href="_app_demo_scene_view_8cpp.html" target="_top" xlink:title=" ">
<polygon fill="white" stroke="black" points="503,-56.5 503,-75.5 631,-75.5 631,-56.5 503,-56.5"/>
<text text-anchor="middle" x="567" y="-63.5" font-family="Arial" font-size="10.00">AppDemoSceneView.cpp</text>
</a>
</g>
</g>
<!-- Node30&#45;&gt;Node31 -->
<g id="edge32" class="edge">
<title>Node30&#45;&gt;Node31</title>
<path fill="none" stroke="midnightblue" d="M567,-101.8C567,-92.91 567,-82.78 567,-75.75"/>
<polygon fill="midnightblue" stroke="midnightblue" points="563.5,-102.08 567,-112.08 570.5,-102.08 563.5,-102.08"/>
</g>
<!-- Node30&#45;&gt;Node32 -->
<g id="edge33" class="edge">
<title>Node30&#45;&gt;Node32</title>
<path fill="none" stroke="midnightblue" d="M536.32,-108.64C511.18,-98.5 476.25,-84.43 454.13,-75.52"/>
<polygon fill="midnightblue" stroke="midnightblue" points="535.18,-111.95 545.77,-112.44 537.8,-105.46 535.18,-111.95"/>
</g>
</g>
</svg>
