<?xml version="1.0" encoding="UTF-8" standalone="no"?>
<!DOCTYPE svg PUBLIC "-//W3C//DTD SVG 1.1//EN"
 "http://www.w3.org/Graphics/SVG/1.1/DTD/svg11.dtd">
<!-- Generated by graphviz version 2.36.0 (20140111.2315)
 -->
<!-- Title: SLPathtracer.h Pages: 1 -->
<svg width="1732pt" height="196pt"
 viewBox="0.00 0.00 1732.00 196.00" xmlns="http://www.w3.org/2000/svg" xmlns:xlink="http://www.w3.org/1999/xlink">
<g id="graph0" class="graph" transform="scale(1 1) rotate(0) translate(4 192)">
<title>SLPathtracer.h</title>
<polygon fill="white" stroke="none" points="-4,4 -4,-192 1728,-192 1728,4 -4,4"/>
<!-- Node1 -->
<g id="node1" class="node"><title>Node1</title>
<polygon fill="#bfbfbf" stroke="black" points="564.5,-168.5 564.5,-187.5 647.5,-187.5 647.5,-168.5 564.5,-168.5"/>
<text text-anchor="middle" x="606" y="-175.5" font-family="Arial.ttf" font-size="10.00">SLPathtracer.h</text>
</g>
<!-- Node2 -->
<g id="node2" class="node"><title>Node2</title>
<g id="a_node2"><a xlink:href="_s_l_pathtracer_8cpp.html" target="_top" xlink:title="SLPathtracer.cpp">
<polygon fill="white" stroke="black" points="0,-56.5 0,-75.5 94,-75.5 94,-56.5 0,-56.5"/>
<text text-anchor="middle" x="47" y="-63.5" font-family="Arial.ttf" font-size="10.00">SLPathtracer.cpp</text>
</a>
</g>
</g>
<!-- Node1&#45;&gt;Node2 -->
<g id="edge1" class="edge"><title>Node1&#45;&gt;Node2</title>
<path fill="none" stroke="midnightblue" d="M554.318,-166.83C444.977,-145.314 191.954,-95.524 90.3669,-75.5337"/>
<polygon fill="midnightblue" stroke="midnightblue" points="553.953,-170.325 564.441,-168.822 555.305,-163.457 553.953,-170.325"/>
</g>
<!-- Node3 -->
<g id="node3" class="node"><title>Node3</title>
<g id="a_node3"><a xlink:href="_s_l_scene_view_8h.html" target="_top" xlink:title="SLSceneView.h">
<polygon fill="white" stroke="black" points="772.5,-112.5 772.5,-131.5 859.5,-131.5 859.5,-112.5 772.5,-112.5"/>
<text text-anchor="middle" x="816" y="-119.5" font-family="Arial.ttf" font-size="10.00">SLSceneView.h</text>
</a>
</g>
</g>
<!-- Node1&#45;&gt;Node3 -->
<g id="edge2" class="edge"><title>Node1&#45;&gt;Node3</title>
<path fill="none" stroke="midnightblue" d="M649.19,-165.894C688.847,-155.697 746.77,-140.802 782.881,-131.516"/>
<polygon fill="midnightblue" stroke="midnightblue" points="648.088,-162.563 639.275,-168.444 649.832,-169.343 648.088,-162.563"/>
</g>
<!-- Node3&#45;&gt;Node2 -->
<g id="edge12" class="edge"><title>Node3&#45;&gt;Node2</title>
<path fill="none" stroke="midnightblue" d="M762.17,-119.374C643.056,-115.387 348.29,-103.387 103,-76 100.064,-75.6722 97.0473,-75.2976 94.0089,-74.8918"/>
<polygon fill="midnightblue" stroke="midnightblue" points="762.359,-122.882 772.469,-119.713 762.589,-115.886 762.359,-122.882"/>
</g>
<!-- Node4 -->
<g id="node4" class="node"><title>Node4</title>
<g id="a_node4"><a xlink:href="_s_l_interface_8cpp.html" target="_top" xlink:title="SLProject C&#45;functions interface implementation. ">
<polygon fill="white" stroke="black" points="112.5,-56.5 112.5,-75.5 199.5,-75.5 199.5,-56.5 112.5,-56.5"/>
<text text-anchor="middle" x="156" y="-63.5" font-family="Arial.ttf" font-size="10.00">SLInterface.cpp</text>
</a>
</g>
</g>
<!-- Node3&#45;&gt;Node4 -->
<g id="edge3" class="edge"><title>Node3&#45;&gt;Node4</title>
<path fill="none" stroke="midnightblue" d="M762.212,-118.783C655.973,-114.014 411.836,-101.122 208,-76 205.272,-75.6638 202.469,-75.2828 199.647,-74.8721"/>
<polygon fill="midnightblue" stroke="midnightblue" points="762.214,-122.286 772.36,-119.232 762.524,-115.293 762.214,-122.286"/>
</g>
<!-- Node5 -->
<g id="node5" class="node"><title>Node5</title>
<g id="a_node5"><a xlink:href="_s_l_camera_8cpp.html" target="_top" xlink:title="SLCamera.cpp">
<polygon fill="white" stroke="black" points="217.5,-56.5 217.5,-75.5 300.5,-75.5 300.5,-56.5 217.5,-56.5"/>
<text text-anchor="middle" x="259" y="-63.5" font-family="Arial.ttf" font-size="10.00">SLCamera.cpp</text>
</a>
</g>
</g>
<!-- Node3&#45;&gt;Node5 -->
<g id="edge4" class="edge"><title>Node3&#45;&gt;Node5</title>
<path fill="none" stroke="midnightblue" d="M761.948,-117.725C669.217,-111.763 473.952,-97.7158 310,-76 306.97,-75.5986 303.844,-75.1451 300.703,-74.6604"/>
<polygon fill="midnightblue" stroke="midnightblue" points="762.002,-121.235 772.205,-118.378 762.447,-114.249 762.002,-121.235"/>
</g>
<!-- Node6 -->
<g id="node6" class="node"><title>Node6</title>
<g id="a_node6"><a xlink:href="_s_l_input_manager_8cpp.html" target="_top" xlink:title="SLInputManager.cpp">
<polygon fill="white" stroke="black" points="318.5,-56.5 318.5,-75.5 427.5,-75.5 427.5,-56.5 318.5,-56.5"/>
<text text-anchor="middle" x="373" y="-63.5" font-family="Arial.ttf" font-size="10.00">SLInputManager.cpp</text>
</a>
</g>
</g>
<!-- Node3&#45;&gt;Node6 -->
<g id="edge5" class="edge"><title>Node3&#45;&gt;Node6</title>
<path fill="none" stroke="midnightblue" d="M762.092,-114.969C688.557,-106.658 552.71,-91.0034 437,-76 433.996,-75.6104 430.913,-75.2029 427.802,-74.7856"/>
<polygon fill="midnightblue" stroke="midnightblue" points="762.15,-118.498 772.479,-116.141 762.935,-111.542 762.15,-118.498"/>
</g>
<!-- Node7 -->
<g id="node7" class="node"><title>Node7</title>
<g id="a_node7"><a xlink:href="_s_l_k_d_tree_8cpp.html" target="_top" xlink:title="SLKDTree.cpp">
<polygon fill="white" stroke="black" points="446,-56.5 446,-75.5 528,-75.5 528,-56.5 446,-56.5"/>
<text text-anchor="middle" x="487" y="-63.5" font-family="Arial.ttf" font-size="10.00">SLKDTree.cpp</text>
</a>
</g>
</g>
<!-- Node3&#45;&gt;Node7 -->
<g id="edge6" class="edge"><title>Node3&#45;&gt;Node7</title>
<path fill="none" stroke="midnightblue" d="M762.385,-112.649C706.177,-103.824 615.313,-89.3625 537,-76 534.131,-75.5104 531.171,-74.9975 528.19,-74.4754"/>
<polygon fill="midnightblue" stroke="midnightblue" points="762.044,-116.138 772.466,-114.229 763.129,-109.223 762.044,-116.138"/>
</g>
<!-- Node8 -->
<g id="node8" class="node"><title>Node8</title>
<g id="a_node8"><a xlink:href="_s_l_light_rect_8cpp.html" target="_top" xlink:title="SLLightRect.cpp">
<polygon fill="white" stroke="black" points="546,-56.5 546,-75.5 636,-75.5 636,-56.5 546,-56.5"/>
<text text-anchor="middle" x="591" y="-63.5" font-family="Arial.ttf" font-size="10.00">SLLightRect.cpp</text>
</a>
</g>
</g>
<!-- Node3&#45;&gt;Node8 -->
<g id="edge7" class="edge"><title>Node3&#45;&gt;Node8</title>
<path fill="none" stroke="midnightblue" d="M770.535,-110.088C728.027,-99.8865 665.421,-84.8612 626.485,-75.5164"/>
<polygon fill="midnightblue" stroke="midnightblue" points="769.807,-113.513 780.348,-112.444 771.441,-106.706 769.807,-113.513"/>
</g>
<!-- Node9 -->
<g id="node9" class="node"><title>Node9</title>
<g id="a_node9"><a xlink:href="_s_l_light_sphere_8cpp.html" target="_top" xlink:title="SLLightSphere.cpp">
<polygon fill="white" stroke="black" points="654,-56.5 654,-75.5 756,-75.5 756,-56.5 654,-56.5"/>
<text text-anchor="middle" x="705" y="-63.5" font-family="Arial.ttf" font-size="10.00">SLLightSphere.cpp</text>
</a>
</g>
</g>
<!-- Node3&#45;&gt;Node9 -->
<g id="edge8" class="edge"><title>Node3&#45;&gt;Node9</title>
<path fill="none" stroke="midnightblue" d="M788.995,-107.862C768.412,-97.8492 740.655,-84.3458 722.79,-75.6545"/>
<polygon fill="midnightblue" stroke="midnightblue" points="787.642,-111.097 798.166,-112.324 790.705,-104.802 787.642,-111.097"/>
</g>
<!-- Node10 -->
<g id="node10" class="node"><title>Node10</title>
<g id="a_node10"><a xlink:href="_s_l_material_8cpp.html" target="_top" xlink:title="SLMaterial.cpp">
<polygon fill="white" stroke="black" points="774.5,-56.5 774.5,-75.5 857.5,-75.5 857.5,-56.5 774.5,-56.5"/>
<text text-anchor="middle" x="816" y="-63.5" font-family="Arial.ttf" font-size="10.00">SLMaterial.cpp</text>
</a>
</g>
</g>
<!-- Node3&#45;&gt;Node10 -->
<g id="edge9" class="edge"><title>Node3&#45;&gt;Node10</title>
<path fill="none" stroke="midnightblue" d="M816,-101.805C816,-92.9102 816,-82.7798 816,-75.7511"/>
<polygon fill="midnightblue" stroke="midnightblue" points="812.5,-102.083 816,-112.083 819.5,-102.083 812.5,-102.083"/>
</g>
<!-- Node11 -->
<g id="node11" class="node"><title>Node11</title>
<g id="a_node11"><a xlink:href="_s_l_mesh_8cpp.html" target="_top" xlink:title="SLMesh.cpp">
<polygon fill="white" stroke="black" points="876,-56.5 876,-75.5 948,-75.5 948,-56.5 876,-56.5"/>
<text text-anchor="middle" x="912" y="-63.5" font-family="Arial.ttf" font-size="10.00">SLMesh.cpp</text>
</a>
</g>
</g>
<!-- Node3&#45;&gt;Node11 -->
<g id="edge10" class="edge"><title>Node3&#45;&gt;Node11</title>
<path fill="none" stroke="midnightblue" d="M840.574,-107.177C858.239,-97.2407 881.513,-84.1492 896.614,-75.6545"/>
<polygon fill="midnightblue" stroke="midnightblue" points="838.424,-104.371 831.424,-112.324 841.856,-110.472 838.424,-104.371"/>
</g>
<!-- Node12 -->
<g id="node12" class="node"><title>Node12</title>
<g id="a_node12"><a xlink:href="_s_l_node_8cpp.html" target="_top" xlink:title="SLNode.cpp">
<polygon fill="white" stroke="black" points="966,-56.5 966,-75.5 1038,-75.5 1038,-56.5 966,-56.5"/>
<text text-anchor="middle" x="1002" y="-63.5" font-family="Arial.ttf" font-size="10.00">SLNode.cpp</text>
</a>
</g>
</g>
<!-- Node3&#45;&gt;Node12 -->
<g id="edge11" class="edge"><title>Node3&#45;&gt;Node12</title>
<path fill="none" stroke="midnightblue" d="M855.378,-109.568C890.466,-99.381 941.021,-84.7034 972.666,-75.5164"/>
<polygon fill="midnightblue" stroke="midnightblue" points="854.1,-106.294 845.472,-112.444 856.052,-113.017 854.1,-106.294"/>
</g>
<!-- Node13 -->
<g id="node13" class="node"><title>Node13</title>
<g id="a_node13"><a xlink:href="_s_l_photon_mapper_8cpp.html" target="_top" xlink:title="SLPhotonMapper.cpp">
<polygon fill="white" stroke="black" points="1056.5,-56.5 1056.5,-75.5 1169.5,-75.5 1169.5,-56.5 1056.5,-56.5"/>
<text text-anchor="middle" x="1113" y="-63.5" font-family="Arial.ttf" font-size="10.00">SLPhotonMapper.cpp</text>
</a>
</g>
</g>
<!-- Node3&#45;&gt;Node13 -->
<g id="edge13" class="edge"><title>Node3&#45;&gt;Node13</title>
<path fill="none" stroke="midnightblue" d="M869.582,-111.258C925.563,-101.079 1012.53,-85.2679 1065.94,-75.5558"/>
<polygon fill="midnightblue" stroke="midnightblue" points="868.717,-107.858 859.504,-113.09 869.969,-114.745 868.717,-107.858"/>
</g>
<!-- Node14 -->
<g id="node14" class="node"><title>Node14</title>
<g id="a_node14"><a xlink:href="_s_l_raytracer_8cpp.html" target="_top" xlink:title="SLRaytracer.cpp">
<polygon fill="white" stroke="black" points="1187.5,-56.5 1187.5,-75.5 1278.5,-75.5 1278.5,-56.5 1187.5,-56.5"/>
<text text-anchor="middle" x="1233" y="-63.5" font-family="Arial.ttf" font-size="10.00">SLRaytracer.cpp</text>
</a>
</g>
</g>
<!-- Node3&#45;&gt;Node14 -->
<g id="edge14" class="edge"><title>Node3&#45;&gt;Node14</title>
<path fill="none" stroke="midnightblue" d="M869.543,-114.997C940.27,-106.919 1068.66,-91.7355 1178,-76 1181.06,-75.5589 1184.22,-75.0875 1187.4,-74.6002"/>
<polygon fill="midnightblue" stroke="midnightblue" points="869.076,-111.528 859.536,-116.137 869.868,-118.483 869.076,-111.528"/>
</g>
<!-- Node15 -->
<g id="node15" class="node"><title>Node15</title>
<g id="a_node15"><a xlink:href="_s_l_scene_8cpp.html" target="_top" xlink:title="SLScene.cpp">
<polygon fill="white" stroke="black" points="1352,-0.5 1352,-19.5 1428,-19.5 1428,-0.5 1352,-0.5"/>
<text text-anchor="middle" x="1390" y="-7.5" font-family="Arial.ttf" font-size="10.00">SLScene.cpp</text>
</a>
</g>
</g>
<!-- Node3&#45;&gt;Node15 -->
<g id="edge15" class="edge"><title>Node3&#45;&gt;Node15</title>
<path fill="none" stroke="midnightblue" d="M869.768,-118.995C976.424,-114.508 1211.02,-101.949 1287,-76 1306.31,-69.4053 1355.05,-35.8098 1377.86,-19.6739"/>
<polygon fill="midnightblue" stroke="midnightblue" points="869.397,-115.508 859.55,-119.417 869.685,-122.502 869.397,-115.508"/>
</g>
<!-- Node16 -->
<g id="node16" class="node"><title>Node16</title>
<g id="a_node16"><a xlink:href="_s_l_scene__on_load_8cpp.html" target="_top" xlink:title="SLScene_onLoad.cpp">
<polygon fill="white" stroke="black" points="1335.5,-56.5 1335.5,-75.5 1450.5,-75.5 1450.5,-56.5 1335.5,-56.5"/>
<text text-anchor="middle" x="1393" y="-63.5" font-family="Arial.ttf" font-size="10.00">SLScene_onLoad.cpp</text>
</a>
</g>
</g>
<!-- Node3&#45;&gt;Node16 -->
<g id="edge16" class="edge"><title>Node3&#45;&gt;Node16</title>
<path fill="none" stroke="midnightblue" d="M869.839,-116.833C962.229,-109.542 1156.88,-93.5644 1321,-76 1325.63,-75.504 1330.43,-74.9634 1335.25,-74.4014"/>
<polygon fill="midnightblue" stroke="midnightblue" points="869.315,-113.364 859.621,-117.637 869.864,-120.342 869.315,-113.364"/>
</g>
<!-- Node17 -->
<g id="node17" class="node"><title>Node17</title>
<g id="a_node17"><a xlink:href="_s_l_uniform_grid_8cpp.html" target="_top" xlink:title="SLUniformGrid.cpp">
<polygon fill="white" stroke="black" points="1469,-56.5 1469,-75.5 1571,-75.5 1571,-56.5 1469,-56.5"/>
<text text-anchor="middle" x="1520" y="-63.5" font-family="Arial.ttf" font-size="10.00">SLUniformGrid.cpp</text>
</a>
</g>
</g>
<!-- Node3&#45;&gt;Node17 -->
<g id="edge17" class="edge"><title>Node3&#45;&gt;Node17</title>
<path fill="none" stroke="midnightblue" d="M870.002,-118.621C980.706,-113.434 1241.3,-99.6429 1459,-76 1462.19,-75.6533 1465.47,-75.2642 1468.78,-74.8475"/>
<polygon fill="midnightblue" stroke="midnightblue" points="869.59,-115.136 859.763,-119.096 869.914,-122.128 869.59,-115.136"/>
</g>
<!-- Node18 -->
<g id="node18" class="node"><title>Node18</title>
<g id="a_node18"><a xlink:href="_s_l_button_8h.html" target="_top" xlink:title="SLButton.h">
<polygon fill="white" stroke="black" points="1589,-56.5 1589,-75.5 1655,-75.5 1655,-56.5 1589,-56.5"/>
<text text-anchor="middle" x="1622" y="-63.5" font-family="Arial.ttf" font-size="10.00">SLButton.h</text>
</a>
</g>
</g>
<!-- Node3&#45;&gt;Node18 -->
<g id="edge18" class="edge"><title>Node3&#45;&gt;Node18</title>
<path fill="none" stroke="midnightblue" d="M869.815,-120.639C994.997,-119.189 1315.24,-111.952 1580,-76 1582.81,-75.6187 1585.71,-75.1523 1588.61,-74.6345"/>
<polygon fill="midnightblue" stroke="midnightblue" points="869.687,-117.14 859.726,-120.748 869.763,-124.14 869.687,-117.14"/>
</g>
<!-- Node18&#45;&gt;Node15 -->
<g id="edge20" class="edge"><title>Node18&#45;&gt;Node15</title>
<path fill="none" stroke="midnightblue" d="M1578.97,-54.9846C1535.16,-44.7872 1467.97,-29.1474 1426.62,-19.5243"/>
<polygon fill="midnightblue" stroke="midnightblue" points="1578.23,-58.4049 1588.76,-57.2631 1579.81,-51.5872 1578.23,-58.4049"/>
</g>
<!-- Node19 -->
<g id="node19" class="node"><title>Node19</title>
<g id="a_node19"><a xlink:href="_s_l_button_8cpp.html" target="_top" xlink:title="SLButton.cpp">
<polygon fill="white" stroke="black" points="1530.5,-0.5 1530.5,-19.5 1607.5,-19.5 1607.5,-0.5 1530.5,-0.5"/>
<text text-anchor="middle" x="1569" y="-7.5" font-family="Arial.ttf" font-size="10.00">SLButton.cpp</text>
</a>
</g>
</g>
<!-- Node18&#45;&gt;Node19 -->
<g id="edge19" class="edge"><title>Node18&#45;&gt;Node19</title>
<path fill="none" stroke="midnightblue" d="M1606.02,-48.7175C1596.68,-39.1997 1585.25,-27.5608 1577.59,-19.7511"/>
<polygon fill="midnightblue" stroke="midnightblue" points="1603.75,-51.3978 1613.25,-56.083 1608.74,-46.4945 1603.75,-51.3978"/>
</g>
<!-- Node20 -->
<g id="node20" class="node"><title>Node20</title>
<g id="a_node20"><a xlink:href="_s_l_scene_view_8cpp.html" target="_top" xlink:title="SLSceneView.cpp">
<polygon fill="white" stroke="black" points="1626,-0.5 1626,-19.5 1724,-19.5 1724,-0.5 1626,-0.5"/>
<text text-anchor="middle" x="1675" y="-7.5" font-family="Arial.ttf" font-size="10.00">SLSceneView.cpp</text>
</a>
</g>
</g>
<!-- Node18&#45;&gt;Node20 -->
<g id="edge21" class="edge"><title>Node18&#45;&gt;Node20</title>
<path fill="none" stroke="midnightblue" d="M1637.98,-48.7175C1647.32,-39.1997 1658.75,-27.5608 1666.41,-19.7511"/>
<polygon fill="midnightblue" stroke="midnightblue" points="1635.26,-46.4945 1630.75,-56.083 1640.25,-51.3978 1635.26,-46.4945"/>
</g>
</g>
</svg>
