<?xml version="1.0" encoding="UTF-8" standalone="no"?>
<!DOCTYPE svg PUBLIC "-//W3C//DTD SVG 1.1//EN"
 "http://www.w3.org/Graphics/SVG/1.1/DTD/svg11.dtd">
<!-- Generated by graphviz version 2.44.0 (20200408.0750)
 -->
<!-- Title: SLLightDirect.cpp Pages: 1 -->
<svg width="3061pt" height="420pt"
 viewBox="0.00 0.00 3061.11 420.00" xmlns="http://www.w3.org/2000/svg" xmlns:xlink="http://www.w3.org/1999/xlink">
<g id="graph0" class="graph" transform="scale(1 1) rotate(0) translate(4 416)">
<title>SLLightDirect.cpp</title>
<polygon fill="white" stroke="transparent" points="-4,4 -4,-416 3057.11,-416 3057.11,4 -4,4"/>
<!-- Node1 -->
<g id="node1" class="node">
<title>Node1</title>
<g id="a_node1"><a xlink:title=" ">
<polygon fill="#bfbfbf" stroke="black" points="2682.61,-392.5 2682.61,-411.5 2777.61,-411.5 2777.61,-392.5 2682.61,-392.5"/>
<text text-anchor="middle" x="2730.11" y="-399.5" font-family="Arial.ttf" font-size="10.00">SLLightDirect.cpp</text>
</a>
</g>
</g>
<!-- Node2 -->
<g id="node2" class="node">
<title>Node2</title>
<g id="a_node2"><a xlink:href="stdafx_8h.html" target="_top" xlink:title=" ">
<polygon fill="white" stroke="red" points="1651.11,-336.5 1651.11,-355.5 1703.11,-355.5 1703.11,-336.5 1651.11,-336.5"/>
<text text-anchor="middle" x="1677.11" y="-343.5" font-family="Arial.ttf" font-size="10.00">stdafx.h</text>
</a>
</g>
</g>
<!-- Node1&#45;&gt;Node2 -->
<g id="edge1" class="edge">
<title>Node1&#45;&gt;Node2</title>
<path fill="none" stroke="midnightblue" d="M2682.47,-398.56C2503.41,-389.37 1872.76,-357.03 1713.74,-348.88"/>
<polygon fill="midnightblue" stroke="midnightblue" points="1713.7,-345.37 1703.53,-348.35 1713.34,-352.36 1713.7,-345.37"/>
</g>
<!-- Node51 -->
<g id="node43" class="node">
<title>Node51</title>
<g id="a_node43"><a xlink:href="_s_l_arrow_8h.html" target="_top" xlink:title=" ">
<polygon fill="white" stroke="red" points="2699.61,-336.5 2699.61,-355.5 2760.61,-355.5 2760.61,-336.5 2699.61,-336.5"/>
<text text-anchor="middle" x="2730.11" y="-343.5" font-family="Arial.ttf" font-size="10.00">SLArrow.h</text>
</a>
</g>
</g>
<!-- Node1&#45;&gt;Node51 -->
<g id="edge59" class="edge">
<title>Node1&#45;&gt;Node51</title>
<path fill="none" stroke="midnightblue" d="M2730.11,-392.08C2730.11,-385.01 2730.11,-374.86 2730.11,-365.99"/>
<polygon fill="midnightblue" stroke="midnightblue" points="2733.61,-365.75 2730.11,-355.75 2726.61,-365.75 2733.61,-365.75"/>
</g>
<!-- Node63 -->
<g id="node44" class="node">
<title>Node63</title>
<g id="a_node44"><a xlink:href="_s_l_light_direct_8h.html" target="_top" xlink:title=" ">
<polygon fill="white" stroke="red" points="2779.11,-336.5 2779.11,-355.5 2863.11,-355.5 2863.11,-336.5 2779.11,-336.5"/>
<text text-anchor="middle" x="2821.11" y="-343.5" font-family="Arial.ttf" font-size="10.00">SLLightDirect.h</text>
</a>
</g>
</g>
<!-- Node1&#45;&gt;Node63 -->
<g id="edge60" class="edge">
<title>Node1&#45;&gt;Node63</title>
<path fill="none" stroke="midnightblue" d="M2744.73,-392.32C2759.06,-383.82 2781.12,-370.73 2797.86,-360.8"/>
<polygon fill="midnightblue" stroke="midnightblue" points="2799.71,-363.77 2806.53,-355.65 2796.14,-357.75 2799.71,-363.77"/>
</g>
<!-- Node71 -->
<g id="node45" class="node">
<title>Node71</title>
<g id="a_node45"><a xlink:href="_s_l_ray_8h.html" target="_top" xlink:title=" ">
<polygon fill="white" stroke="red" points="2881.61,-336.5 2881.61,-355.5 2934.61,-355.5 2934.61,-336.5 2881.61,-336.5"/>
<text text-anchor="middle" x="2908.11" y="-343.5" font-family="Arial.ttf" font-size="10.00">SLRay.h</text>
</a>
</g>
</g>
<!-- Node1&#45;&gt;Node71 -->
<g id="edge61" class="edge">
<title>Node1&#45;&gt;Node71</title>
<path fill="none" stroke="midnightblue" d="M2758.32,-392.44C2788.96,-383.15 2838.04,-368.26 2871.61,-358.07"/>
<polygon fill="midnightblue" stroke="midnightblue" points="2872.94,-361.33 2881.49,-355.08 2870.91,-354.63 2872.94,-361.33"/>
</g>
<!-- Node87 -->
<g id="node46" class="node">
<title>Node87</title>
<g id="a_node46"><a xlink:href="_s_l_scene_8h.html" target="_top" xlink:title=" ">
<polygon fill="white" stroke="red" points="2753.61,-280.5 2753.61,-299.5 2818.61,-299.5 2818.61,-280.5 2753.61,-280.5"/>
<text text-anchor="middle" x="2786.11" y="-287.5" font-family="Arial.ttf" font-size="10.00">SLScene.h</text>
</a>
</g>
</g>
<!-- Node1&#45;&gt;Node87 -->
<g id="edge62" class="edge">
<title>Node1&#45;&gt;Node87</title>
<path fill="none" stroke="midnightblue" d="M2717.98,-392.33C2702.01,-379.82 2677.39,-356.02 2690.11,-336 2697.14,-324.94 2726.05,-312.26 2750.32,-303.19"/>
<polygon fill="midnightblue" stroke="midnightblue" points="2751.82,-306.37 2760.02,-299.66 2749.43,-299.79 2751.82,-306.37"/>
</g>
<!-- Node101 -->
<g id="node47" class="node">
<title>Node101</title>
<g id="a_node47"><a xlink:href="_s_l_scene_view_8h.html" target="_top" xlink:title=" ">
<polygon fill="white" stroke="red" points="2557.61,-336.5 2557.61,-355.5 2642.61,-355.5 2642.61,-336.5 2557.61,-336.5"/>
<text text-anchor="middle" x="2600.11" y="-343.5" font-family="Arial.ttf" font-size="10.00">SLSceneView.h</text>
</a>
</g>
</g>
<!-- Node1&#45;&gt;Node101 -->
<g id="edge66" class="edge">
<title>Node1&#45;&gt;Node101</title>
<path fill="none" stroke="midnightblue" d="M2709.51,-392.44C2688.12,-383.56 2654.43,-369.56 2630.09,-359.45"/>
<polygon fill="midnightblue" stroke="midnightblue" points="2631.19,-356.12 2620.61,-355.52 2628.51,-362.58 2631.19,-356.12"/>
</g>
<!-- Node66 -->
<g id="node48" class="node">
<title>Node66</title>
<g id="a_node48"><a xlink:href="_s_l_shadow_map_8h.html" target="_top" xlink:title=" ">
<polygon fill="white" stroke="black" points="66.61,-336.5 66.61,-355.5 157.61,-355.5 157.61,-336.5 66.61,-336.5"/>
<text text-anchor="middle" x="112.11" y="-343.5" font-family="Arial.ttf" font-size="10.00">SLShadowMap.h</text>
</a>
</g>
</g>
<!-- Node1&#45;&gt;Node66 -->
<g id="edge68" class="edge">
<title>Node1&#45;&gt;Node66</title>
<path fill="none" stroke="midnightblue" d="M2682.44,-400.02C2361.09,-393.39 513.66,-355.28 167.87,-348.15"/>
<polygon fill="midnightblue" stroke="midnightblue" points="167.91,-344.65 157.84,-347.94 167.77,-351.65 167.91,-344.65"/>
</g>
<!-- Node116 -->
<g id="node49" class="node">
<title>Node116</title>
<g id="a_node49"><a xlink:href="_s_l_sphere_8h.html" target="_top" xlink:title=" ">
<polygon fill="white" stroke="red" points="2953.11,-336.5 2953.11,-355.5 3021.11,-355.5 3021.11,-336.5 2953.11,-336.5"/>
<text text-anchor="middle" x="2987.11" y="-343.5" font-family="Arial.ttf" font-size="10.00">SLSphere.h</text>
</a>
</g>
</g>
<!-- Node1&#45;&gt;Node116 -->
<g id="edge72" class="edge">
<title>Node1&#45;&gt;Node116</title>
<path fill="none" stroke="midnightblue" d="M2770.83,-392.44C2817.74,-382.59 2894.55,-366.45 2942.88,-356.29"/>
<polygon fill="midnightblue" stroke="midnightblue" points="2943.68,-359.7 2952.75,-354.22 2942.24,-352.85 2943.68,-359.7"/>
</g>
<!-- Node117 -->
<g id="node50" class="node">
<title>Node117</title>
<g id="a_node50"><a xlink:href="_s_l_spheric_8h.html" target="_top" xlink:title=" ">
<polygon fill="white" stroke="red" points="2983.11,-280.5 2983.11,-299.5 3053.11,-299.5 3053.11,-280.5 2983.11,-280.5"/>
<text text-anchor="middle" x="3018.11" y="-287.5" font-family="Arial.ttf" font-size="10.00">SLSpheric.h</text>
</a>
</g>
</g>
<!-- Node1&#45;&gt;Node117 -->
<g id="edge74" class="edge">
<title>Node1&#45;&gt;Node117</title>
<path fill="none" stroke="midnightblue" d="M2777.66,-401.08C2853.88,-400.07 2998.11,-393.16 3030.11,-356 3041.31,-343 3035.33,-323.02 3028.43,-308.64"/>
<polygon fill="midnightblue" stroke="midnightblue" points="3031.48,-306.92 3023.69,-299.74 3025.3,-310.21 3031.48,-306.92"/>
</g>
<!-- Node3 -->
<g id="node3" class="node">
<title>Node3</title>
<g id="a_node3"><a xlink:title=" ">
<polygon fill="white" stroke="#bfbfbf" points="1649.11,-280.5 1649.11,-299.5 1705.11,-299.5 1705.11,-280.5 1649.11,-280.5"/>
<text text-anchor="middle" x="1677.11" y="-287.5" font-family="Arial.ttf" font-size="10.00">algorithm</text>
</a>
</g>
</g>
<!-- Node2&#45;&gt;Node3 -->
<g id="edge2" class="edge">
<title>Node2&#45;&gt;Node3</title>
<path fill="none" stroke="midnightblue" d="M1677.11,-336.08C1677.11,-329.01 1677.11,-318.86 1677.11,-309.99"/>
<polygon fill="midnightblue" stroke="midnightblue" points="1680.61,-309.75 1677.11,-299.75 1673.61,-309.75 1680.61,-309.75"/>
</g>
<!-- Node4 -->
<g id="node4" class="node">
<title>Node4</title>
<g id="a_node4"><a xlink:title=" ">
<polygon fill="white" stroke="#bfbfbf" points="1723.11,-280.5 1723.11,-299.5 1769.11,-299.5 1769.11,-280.5 1723.11,-280.5"/>
<text text-anchor="middle" x="1746.11" y="-287.5" font-family="Arial.ttf" font-size="10.00">atomic</text>
</a>
</g>
</g>
<!-- Node2&#45;&gt;Node4 -->
<g id="edge3" class="edge">
<title>Node2&#45;&gt;Node4</title>
<path fill="none" stroke="midnightblue" d="M1688.2,-336.32C1698.6,-328.18 1714.37,-315.84 1726.83,-306.09"/>
<polygon fill="midnightblue" stroke="midnightblue" points="1729.1,-308.75 1734.82,-299.83 1724.79,-303.24 1729.1,-308.75"/>
</g>
<!-- Node5 -->
<g id="node5" class="node">
<title>Node5</title>
<g id="a_node5"><a xlink:title=" ">
<polygon fill="white" stroke="#bfbfbf" points="1787.11,-280.5 1787.11,-299.5 1833.11,-299.5 1833.11,-280.5 1787.11,-280.5"/>
<text text-anchor="middle" x="1810.11" y="-287.5" font-family="Arial.ttf" font-size="10.00">chrono</text>
</a>
</g>
</g>
<!-- Node2&#45;&gt;Node5 -->
<g id="edge4" class="edge">
<title>Node2&#45;&gt;Node5</title>
<path fill="none" stroke="midnightblue" d="M1698.18,-336.44C1720.17,-327.52 1754.84,-313.44 1779.77,-303.32"/>
<polygon fill="midnightblue" stroke="midnightblue" points="1781.19,-306.52 1789.13,-299.52 1778.55,-300.04 1781.19,-306.52"/>
</g>
<!-- Node6 -->
<g id="node6" class="node">
<title>Node6</title>
<g id="a_node6"><a xlink:title=" ">
<polygon fill="white" stroke="#bfbfbf" points="1851.61,-280.5 1851.61,-299.5 1900.61,-299.5 1900.61,-280.5 1851.61,-280.5"/>
<text text-anchor="middle" x="1876.11" y="-287.5" font-family="Arial.ttf" font-size="10.00">cstdarg</text>
</a>
</g>
</g>
<!-- Node2&#45;&gt;Node6 -->
<g id="edge5" class="edge">
<title>Node2&#45;&gt;Node6</title>
<path fill="none" stroke="midnightblue" d="M1703.13,-337.94C1738.6,-328.31 1802.22,-311.05 1841.63,-300.36"/>
<polygon fill="midnightblue" stroke="midnightblue" points="1842.61,-303.72 1851.34,-297.72 1840.77,-296.96 1842.61,-303.72"/>
</g>
<!-- Node7 -->
<g id="node7" class="node">
<title>Node7</title>
<g id="a_node7"><a xlink:title=" ">
<polygon fill="white" stroke="#bfbfbf" points="1918.61,-280.5 1918.61,-299.5 1959.61,-299.5 1959.61,-280.5 1918.61,-280.5"/>
<text text-anchor="middle" x="1939.11" y="-287.5" font-family="Arial.ttf" font-size="10.00">ctime</text>
</a>
</g>
</g>
<!-- Node2&#45;&gt;Node7 -->
<g id="edge6" class="edge">
<title>Node2&#45;&gt;Node7</title>
<path fill="none" stroke="midnightblue" d="M1703.39,-340.78C1744.91,-333.93 1828.36,-319.4 1908.74,-299.88"/>
<polygon fill="midnightblue" stroke="midnightblue" points="1909.65,-303.26 1918.53,-297.47 1907.98,-296.46 1909.65,-303.26"/>
</g>
<!-- Node8 -->
<g id="node8" class="node">
<title>Node8</title>
<g id="a_node8"><a xlink:title=" ">
<polygon fill="white" stroke="#bfbfbf" points="1978.11,-280.5 1978.11,-299.5 2028.11,-299.5 2028.11,-280.5 1978.11,-280.5"/>
<text text-anchor="middle" x="2003.11" y="-287.5" font-family="Arial.ttf" font-size="10.00">fstream</text>
</a>
</g>
</g>
<!-- Node2&#45;&gt;Node8 -->
<g id="edge7" class="edge">
<title>Node2&#45;&gt;Node8</title>
<path fill="none" stroke="midnightblue" d="M1703.35,-341.82C1754.54,-335.43 1871.21,-319.9 1968.11,-300 1968.21,-299.98 1968.31,-299.96 1968.41,-299.94"/>
<polygon fill="midnightblue" stroke="midnightblue" points="1968.96,-303.4 1977.94,-297.79 1967.42,-296.57 1968.96,-303.4"/>
</g>
<!-- Node9 -->
<g id="node9" class="node">
<title>Node9</title>
<g id="a_node9"><a xlink:title=" ">
<polygon fill="white" stroke="#bfbfbf" points="2046.61,-280.5 2046.61,-299.5 2105.61,-299.5 2105.61,-280.5 2046.61,-280.5"/>
<text text-anchor="middle" x="2076.11" y="-287.5" font-family="Arial.ttf" font-size="10.00">functional</text>
</a>
</g>
</g>
<!-- Node2&#45;&gt;Node9 -->
<g id="edge8" class="edge">
<title>Node2&#45;&gt;Node9</title>
<path fill="none" stroke="midnightblue" d="M1703.45,-342.64C1761.6,-337.23 1905.52,-322.76 2036.18,-299.99"/>
<polygon fill="midnightblue" stroke="midnightblue" points="2037.12,-303.38 2046.36,-298.2 2035.91,-296.49 2037.12,-303.38"/>
</g>
<!-- Node10 -->
<g id="node10" class="node">
<title>Node10</title>
<g id="a_node10"><a xlink:title=" ">
<polygon fill="white" stroke="#bfbfbf" points="2124.11,-280.5 2124.11,-299.5 2174.11,-299.5 2174.11,-280.5 2124.11,-280.5"/>
<text text-anchor="middle" x="2149.11" y="-287.5" font-family="Arial.ttf" font-size="10.00">iomanip</text>
</a>
</g>
</g>
<!-- Node2&#45;&gt;Node10 -->
<g id="edge9" class="edge">
<title>Node2&#45;&gt;Node10</title>
<path fill="none" stroke="midnightblue" d="M1703.16,-343.68C1771.19,-339.92 1959.64,-327.65 2114.11,-300 2114.21,-299.98 2114.31,-299.96 2114.41,-299.95"/>
<polygon fill="midnightblue" stroke="midnightblue" points="2114.9,-303.42 2123.97,-297.94 2113.47,-296.57 2114.9,-303.42"/>
</g>
<!-- Node11 -->
<g id="node11" class="node">
<title>Node11</title>
<g id="a_node11"><a xlink:title=" ">
<polygon fill="white" stroke="#bfbfbf" points="1052.11,-112.5 1052.11,-131.5 1106.11,-131.5 1106.11,-112.5 1052.11,-112.5"/>
<text text-anchor="middle" x="1079.11" y="-119.5" font-family="Arial.ttf" font-size="10.00">iostream</text>
</a>
</g>
</g>
<!-- Node2&#45;&gt;Node11 -->
<g id="edge10" class="edge">
<title>Node2&#45;&gt;Node11</title>
<path fill="none" stroke="midnightblue" d="M1650.92,-344.7C1455.9,-342.39 237.2,-326.91 211.11,-300 89.93,-175.04 861.73,-132.68 1042.04,-124.54"/>
<polygon fill="midnightblue" stroke="midnightblue" points="1042.26,-128.04 1052.1,-124.1 1041.95,-121.04 1042.26,-128.04"/>
</g>
<!-- Node12 -->
<g id="node12" class="node">
<title>Node12</title>
<g id="a_node12"><a xlink:title=" ">
<polygon fill="white" stroke="#bfbfbf" points="2578.61,-280.5 2578.61,-299.5 2607.61,-299.5 2607.61,-280.5 2578.61,-280.5"/>
<text text-anchor="middle" x="2593.11" y="-287.5" font-family="Arial.ttf" font-size="10.00">list</text>
</a>
</g>
</g>
<!-- Node2&#45;&gt;Node12 -->
<g id="edge11" class="edge">
<title>Node2&#45;&gt;Node12</title>
<path fill="none" stroke="midnightblue" d="M1703.3,-344.55C1831.37,-342.24 2392.37,-330.51 2564.11,-300 2565.6,-299.73 2567.13,-299.42 2568.65,-299.06"/>
<polygon fill="midnightblue" stroke="midnightblue" points="2569.84,-302.36 2578.53,-296.3 2567.96,-295.62 2569.84,-302.36"/>
</g>
<!-- Node13 -->
<g id="node13" class="node">
<title>Node13</title>
<g id="a_node13"><a xlink:title=" ">
<polygon fill="white" stroke="#bfbfbf" points="2584.61,-224.5 2584.61,-243.5 2619.61,-243.5 2619.61,-224.5 2584.61,-224.5"/>
<text text-anchor="middle" x="2602.11" y="-231.5" font-family="Arial.ttf" font-size="10.00">map</text>
</a>
</g>
</g>
<!-- Node2&#45;&gt;Node13 -->
<g id="edge12" class="edge">
<title>Node2&#45;&gt;Node13</title>
<path fill="none" stroke="midnightblue" d="M1703.21,-345.15C1824.78,-345.63 2335.95,-344.88 2488.11,-300 2524.25,-289.34 2561.27,-265.33 2582.95,-249.66"/>
<polygon fill="midnightblue" stroke="midnightblue" points="2585.3,-252.28 2591.26,-243.52 2581.14,-246.65 2585.3,-252.28"/>
</g>
<!-- Node14 -->
<g id="node14" class="node">
<title>Node14</title>
<g id="a_node14"><a xlink:title=" ">
<polygon fill="white" stroke="#bfbfbf" points="2625.61,-280.5 2625.61,-299.5 2668.61,-299.5 2668.61,-280.5 2625.61,-280.5"/>
<text text-anchor="middle" x="2647.11" y="-287.5" font-family="Arial.ttf" font-size="10.00">queue</text>
</a>
</g>
</g>
<!-- Node2&#45;&gt;Node14 -->
<g id="edge13" class="edge">
<title>Node2&#45;&gt;Node14</title>
<path fill="none" stroke="midnightblue" d="M1703.5,-344.57C1834.2,-342.32 2413.7,-330.86 2615.68,-299.55"/>
<polygon fill="midnightblue" stroke="midnightblue" points="2616.27,-303 2625.58,-297.95 2615.15,-296.09 2616.27,-303"/>
</g>
<!-- Node15 -->
<g id="node15" class="node">
<title>Node15</title>
<g id="a_node15"><a xlink:title=" ">
<polygon fill="white" stroke="#bfbfbf" points="2686.61,-280.5 2686.61,-299.5 2735.61,-299.5 2735.61,-280.5 2686.61,-280.5"/>
<text text-anchor="middle" x="2711.11" y="-287.5" font-family="Arial.ttf" font-size="10.00">random</text>
</a>
</g>
</g>
<!-- Node2&#45;&gt;Node15 -->
<g id="edge14" class="edge">
<title>Node2&#45;&gt;Node15</title>
<path fill="none" stroke="midnightblue" d="M1703.35,-344.58C1838.91,-342.29 2461.39,-330.35 2676.43,-299.68"/>
<polygon fill="midnightblue" stroke="midnightblue" points="2676.98,-303.14 2686.36,-298.21 2675.95,-296.21 2676.98,-303.14"/>
</g>
<!-- Node16 -->
<g id="node16" class="node">
<title>Node16</title>
<g id="a_node16"><a xlink:title=" ">
<polygon fill="white" stroke="#bfbfbf" points="228.11,-280.5 228.11,-299.5 280.11,-299.5 280.11,-280.5 228.11,-280.5"/>
<text text-anchor="middle" x="254.11" y="-287.5" font-family="Arial.ttf" font-size="10.00">sstream</text>
</a>
</g>
</g>
<!-- Node2&#45;&gt;Node16 -->
<g id="edge15" class="edge">
<title>Node2&#45;&gt;Node16</title>
<path fill="none" stroke="midnightblue" d="M1650.91,-344.93C1485.89,-344.4 587.82,-339.77 290.67,-299.84"/>
<polygon fill="midnightblue" stroke="midnightblue" points="290.75,-296.32 280.36,-298.41 289.78,-303.25 290.75,-296.32"/>
</g>
<!-- Node17 -->
<g id="node17" class="node">
<title>Node17</title>
<g id="a_node17"><a xlink:title=" ">
<polygon fill="white" stroke="#bfbfbf" points="298.61,-280.5 298.61,-299.5 339.61,-299.5 339.61,-280.5 298.61,-280.5"/>
<text text-anchor="middle" x="319.11" y="-287.5" font-family="Arial.ttf" font-size="10.00">string</text>
</a>
</g>
</g>
<!-- Node2&#45;&gt;Node17 -->
<g id="edge16" class="edge">
<title>Node2&#45;&gt;Node17</title>
<path fill="none" stroke="midnightblue" d="M1650.98,-345.03C1490.34,-345.08 634.3,-343.36 350.2,-299.63"/>
<polygon fill="midnightblue" stroke="midnightblue" points="350.36,-296.11 339.93,-297.99 349.25,-303.03 350.36,-296.11"/>
</g>
<!-- Node18 -->
<g id="node18" class="node">
<title>Node18</title>
<g id="a_node18"><a xlink:title=" ">
<polygon fill="white" stroke="#bfbfbf" points="358.11,-280.5 358.11,-299.5 402.11,-299.5 402.11,-280.5 358.11,-280.5"/>
<text text-anchor="middle" x="380.11" y="-287.5" font-family="Arial.ttf" font-size="10.00">thread</text>
</a>
</g>
</g>
<!-- Node2&#45;&gt;Node18 -->
<g id="edge17" class="edge">
<title>Node2&#45;&gt;Node18</title>
<path fill="none" stroke="midnightblue" d="M1650.94,-344.95C1494.71,-344.51 683.17,-340.38 412.48,-299.74"/>
<polygon fill="midnightblue" stroke="midnightblue" points="412.73,-296.24 402.31,-298.16 411.65,-303.16 412.73,-296.24"/>
</g>
<!-- Node19 -->
<g id="node19" class="node">
<title>Node19</title>
<g id="a_node19"><a xlink:title=" ">
<polygon fill="white" stroke="#bfbfbf" points="420.61,-280.5 420.61,-299.5 471.61,-299.5 471.61,-280.5 420.61,-280.5"/>
<text text-anchor="middle" x="446.11" y="-287.5" font-family="Arial.ttf" font-size="10.00">typeinfo</text>
</a>
</g>
</g>
<!-- Node2&#45;&gt;Node19 -->
<g id="edge18" class="edge">
<title>Node2&#45;&gt;Node19</title>
<path fill="none" stroke="midnightblue" d="M1650.93,-344.78C1499.94,-343.38 738.54,-334.75 481.99,-299.73"/>
<polygon fill="midnightblue" stroke="midnightblue" points="482.37,-296.25 471.98,-298.31 481.39,-303.18 482.37,-296.25"/>
</g>
<!-- Node20 -->
<g id="node20" class="node">
<title>Node20</title>
<g id="a_node20"><a xlink:title=" ">
<polygon fill="white" stroke="#bfbfbf" points="2676.11,-224.5 2676.11,-243.5 2720.11,-243.5 2720.11,-224.5 2676.11,-224.5"/>
<text text-anchor="middle" x="2698.11" y="-231.5" font-family="Arial.ttf" font-size="10.00">vector</text>
</a>
</g>
</g>
<!-- Node2&#45;&gt;Node20 -->
<g id="edge19" class="edge">
<title>Node2&#45;&gt;Node20</title>
<path fill="none" stroke="midnightblue" d="M1703.52,-344.95C1828.88,-344.5 2364.62,-340.23 2526.11,-300 2546.56,-294.9 2549.58,-287.93 2569.11,-280 2601.71,-266.77 2639.83,-253.77 2666.14,-245.17"/>
<polygon fill="midnightblue" stroke="midnightblue" points="2667.52,-248.4 2675.95,-241.98 2665.36,-241.74 2667.52,-248.4"/>
</g>
<!-- Node21 -->
<g id="node21" class="node">
<title>Node21</title>
<g id="a_node21"><a xlink:title=" ">
<polygon fill="white" stroke="#bfbfbf" points="490.11,-280.5 490.11,-299.5 542.11,-299.5 542.11,-280.5 490.11,-280.5"/>
<text text-anchor="middle" x="516.11" y="-287.5" font-family="Arial.ttf" font-size="10.00">memory</text>
</a>
</g>
</g>
<!-- Node2&#45;&gt;Node21 -->
<g id="edge20" class="edge">
<title>Node2&#45;&gt;Node21</title>
<path fill="none" stroke="midnightblue" d="M1651.03,-344.71C1505.72,-342.97 794.03,-332.94 552.48,-299.83"/>
<polygon fill="midnightblue" stroke="midnightblue" points="552.76,-296.33 542.36,-298.39 551.77,-303.26 552.76,-296.33"/>
</g>
<!-- Node22 -->
<g id="node22" class="node">
<title>Node22</title>
<g id="a_node22"><a xlink:title=" ">
<polygon fill="white" stroke="#bfbfbf" points="560.61,-280.5 560.61,-299.5 609.61,-299.5 609.61,-280.5 560.61,-280.5"/>
<text text-anchor="middle" x="585.11" y="-287.5" font-family="Arial.ttf" font-size="10.00">cassert</text>
</a>
</g>
</g>
<!-- Node2&#45;&gt;Node22 -->
<g id="edge21" class="edge">
<title>Node2&#45;&gt;Node22</title>
<path fill="none" stroke="midnightblue" d="M1650.74,-344.68C1510.09,-342.85 846.6,-332.67 619.98,-299.91"/>
<polygon fill="midnightblue" stroke="midnightblue" points="620.26,-296.41 609.85,-298.38 619.21,-303.34 620.26,-296.41"/>
</g>
<!-- Node23 -->
<g id="node23" class="node">
<title>Node23</title>
<g id="a_node23"><a xlink:title=" ">
<polygon fill="white" stroke="#bfbfbf" points="627.61,-280.5 627.61,-299.5 668.61,-299.5 668.61,-280.5 627.61,-280.5"/>
<text text-anchor="middle" x="648.11" y="-287.5" font-family="Arial.ttf" font-size="10.00">cfloat</text>
</a>
</g>
</g>
<!-- Node2&#45;&gt;Node23 -->
<g id="edge22" class="edge">
<title>Node2&#45;&gt;Node23</title>
<path fill="none" stroke="midnightblue" d="M1650.84,-344.73C1515.24,-343.18 892.79,-334.38 679.03,-299.86"/>
<polygon fill="midnightblue" stroke="midnightblue" points="679.31,-296.35 668.86,-298.14 678.14,-303.25 679.31,-296.35"/>
</g>
<!-- Node24 -->
<g id="node24" class="node">
<title>Node24</title>
<g id="a_node24"><a xlink:title=" ">
<polygon fill="white" stroke="#bfbfbf" points="686.61,-280.5 686.61,-299.5 731.61,-299.5 731.61,-280.5 686.61,-280.5"/>
<text text-anchor="middle" x="709.11" y="-287.5" font-family="Arial.ttf" font-size="10.00">climits</text>
</a>
</g>
</g>
<!-- Node2&#45;&gt;Node24 -->
<g id="edge23" class="edge">
<title>Node2&#45;&gt;Node24</title>
<path fill="none" stroke="midnightblue" d="M1650.81,-344.54C1520.62,-342.13 943.57,-330.04 741.87,-299.64"/>
<polygon fill="midnightblue" stroke="midnightblue" points="742.12,-296.13 731.69,-298.03 741.03,-303.05 742.12,-296.13"/>
</g>
<!-- Node25 -->
<g id="node25" class="node">
<title>Node25</title>
<g id="a_node25"><a xlink:title=" ">
<polygon fill="white" stroke="#bfbfbf" points="750.11,-280.5 750.11,-299.5 794.11,-299.5 794.11,-280.5 750.11,-280.5"/>
<text text-anchor="middle" x="772.11" y="-287.5" font-family="Arial.ttf" font-size="10.00">cmath</text>
</a>
</g>
</g>
<!-- Node2&#45;&gt;Node25 -->
<g id="edge24" class="edge">
<title>Node2&#45;&gt;Node25</title>
<path fill="none" stroke="midnightblue" d="M1650.89,-344.47C1526.24,-341.81 992.2,-329.01 804.33,-299.75"/>
<polygon fill="midnightblue" stroke="midnightblue" points="804.75,-296.27 794.32,-298.11 803.63,-303.18 804.75,-296.27"/>
</g>
<!-- Node26 -->
<g id="node26" class="node">
<title>Node26</title>
<g id="a_node26"><a xlink:title=" ">
<polygon fill="white" stroke="#bfbfbf" points="812.61,-280.5 812.61,-299.5 855.61,-299.5 855.61,-280.5 812.61,-280.5"/>
<text text-anchor="middle" x="834.11" y="-287.5" font-family="Arial.ttf" font-size="10.00">cstdio</text>
</a>
</g>
</g>
<!-- Node2&#45;&gt;Node26 -->
<g id="edge25" class="edge">
<title>Node2&#45;&gt;Node26</title>
<path fill="none" stroke="midnightblue" d="M1650.72,-344.38C1531.32,-341.43 1040.29,-327.95 865.96,-299.89"/>
<polygon fill="midnightblue" stroke="midnightblue" points="866.36,-296.41 855.92,-298.19 865.2,-303.31 866.36,-296.41"/>
</g>
<!-- Node27 -->
<g id="node27" class="node">
<title>Node27</title>
<g id="a_node27"><a xlink:title=" ">
<polygon fill="white" stroke="#bfbfbf" points="873.61,-280.5 873.61,-299.5 918.61,-299.5 918.61,-280.5 873.61,-280.5"/>
<text text-anchor="middle" x="896.11" y="-287.5" font-family="Arial.ttf" font-size="10.00">cstdlib</text>
</a>
</g>
</g>
<!-- Node2&#45;&gt;Node27 -->
<g id="edge26" class="edge">
<title>Node2&#45;&gt;Node27</title>
<path fill="none" stroke="midnightblue" d="M1651.01,-345.44C1555.52,-346.64 1216.22,-347.22 928.9,-299.71"/>
<polygon fill="midnightblue" stroke="midnightblue" points="929.14,-296.2 918.7,-298 927.98,-303.11 929.14,-296.2"/>
</g>
<!-- Node28 -->
<g id="node28" class="node">
<title>Node28</title>
<g id="a_node28"><a xlink:title=" ">
<polygon fill="white" stroke="#bfbfbf" points="937.11,-280.5 937.11,-299.5 983.11,-299.5 983.11,-280.5 937.11,-280.5"/>
<text text-anchor="middle" x="960.11" y="-287.5" font-family="Arial.ttf" font-size="10.00">cstring</text>
</a>
</g>
</g>
<!-- Node2&#45;&gt;Node28 -->
<g id="edge27" class="edge">
<title>Node2&#45;&gt;Node28</title>
<path fill="none" stroke="midnightblue" d="M1651.07,-345.23C1560.94,-345.64 1254.06,-343.63 993.43,-299.87"/>
<polygon fill="midnightblue" stroke="midnightblue" points="993.85,-296.39 983.4,-298.16 992.67,-303.29 993.85,-296.39"/>
</g>
<!-- Node29 -->
<g id="node29" class="node">
<title>Node29</title>
<g id="a_node29"><a xlink:href="_s_l_8h.html" target="_top" xlink:title=" ">
<polygon fill="white" stroke="red" points="2286.61,-0.5 2286.61,-19.5 2323.61,-19.5 2323.61,-0.5 2286.61,-0.5"/>
<text text-anchor="middle" x="2305.11" y="-7.5" font-family="Arial.ttf" font-size="10.00">SL.h</text>
</a>
</g>
</g>
<!-- Node2&#45;&gt;Node29 -->
<g id="edge28" class="edge">
<title>Node2&#45;&gt;Node29</title>
<path fill="none" stroke="midnightblue" d="M1703.26,-344.76C1826.89,-343.42 2349.49,-335.68 2412.11,-300 2509.62,-244.44 2545.69,-144.83 2477.11,-56 2459.73,-33.49 2378.23,-20.07 2333.94,-14.31"/>
<polygon fill="midnightblue" stroke="midnightblue" points="2334.15,-10.81 2323.8,-13.05 2333.29,-17.76 2334.15,-10.81"/>
</g>
<!-- Node33 -->
<g id="node30" class="node">
<title>Node33</title>
<g id="a_node30"><a xlink:href="_s_l_enums_8h.html" target="_top" xlink:title=" ">
<polygon fill="white" stroke="black" points="28.11,-280.5 28.11,-299.5 96.11,-299.5 96.11,-280.5 28.11,-280.5"/>
<text text-anchor="middle" x="62.11" y="-287.5" font-family="Arial.ttf" font-size="10.00">SLEnums.h</text>
</a>
</g>
</g>
<!-- Node2&#45;&gt;Node33 -->
<g id="edge29" class="edge">
<title>Node2&#45;&gt;Node33</title>
<path fill="none" stroke="midnightblue" d="M1650.82,-344.81C1471.54,-343.42 426.38,-333.98 110.11,-300 108.85,-299.86 107.58,-299.72 106.3,-299.55"/>
<polygon fill="midnightblue" stroke="midnightblue" points="106.76,-296.08 96.36,-298.1 105.75,-303.01 106.76,-296.08"/>
</g>
<!-- Node34 -->
<g id="node31" class="node">
<title>Node34</title>
<g id="a_node31"><a xlink:href="_s_l_mat3_8h.html" target="_top" xlink:title=" ">
<polygon fill="white" stroke="red" points="2059.61,-168.5 2059.61,-187.5 2118.61,-187.5 2118.61,-168.5 2059.61,-168.5"/>
<text text-anchor="middle" x="2089.11" y="-175.5" font-family="Arial.ttf" font-size="10.00">SLMat3.h</text>
</a>
</g>
</g>
<!-- Node2&#45;&gt;Node34 -->
<g id="edge30" class="edge">
<title>Node2&#45;&gt;Node34</title>
<path fill="none" stroke="midnightblue" d="M1651.06,-344.7C1457.11,-342.37 245.06,-326.76 219.11,-300 212.92,-293.62 213,-286.45 219.11,-280 284.31,-211.18 1783.32,-183.92 2049.03,-179.62"/>
<polygon fill="midnightblue" stroke="midnightblue" points="2049.42,-183.11 2059.36,-179.45 2049.31,-176.12 2049.42,-183.11"/>
</g>
<!-- Node35 -->
<g id="node32" class="node">
<title>Node35</title>
<g id="a_node32"><a xlink:href="_s_l_vec3_8h.html" target="_top" xlink:title=" ">
<polygon fill="white" stroke="red" points="2175.61,-112.5 2175.61,-131.5 2234.61,-131.5 2234.61,-112.5 2175.61,-112.5"/>
<text text-anchor="middle" x="2205.11" y="-119.5" font-family="Arial.ttf" font-size="10.00">SLVec3.h</text>
</a>
</g>
</g>
<!-- Node2&#45;&gt;Node35 -->
<g id="edge52" class="edge">
<title>Node2&#45;&gt;Node35</title>
<path fill="none" stroke="midnightblue" d="M1703.28,-344.41C1803.82,-341.92 2161.63,-330.94 2201.11,-300 2248.67,-262.73 2225.54,-178.32 2212.25,-141.15"/>
<polygon fill="midnightblue" stroke="midnightblue" points="2215.46,-139.75 2208.68,-131.61 2208.91,-142.21 2215.46,-139.75"/>
</g>
<!-- Node36 -->
<g id="node33" class="node">
<title>Node36</title>
<g id="a_node33"><a xlink:href="_s_l_vec2_8h.html" target="_top" xlink:title=" ">
<polygon fill="white" stroke="red" points="2240.61,-56.5 2240.61,-75.5 2299.61,-75.5 2299.61,-56.5 2240.61,-56.5"/>
<text text-anchor="middle" x="2270.11" y="-63.5" font-family="Arial.ttf" font-size="10.00">SLVec2.h</text>
</a>
</g>
</g>
<!-- Node2&#45;&gt;Node36 -->
<g id="edge51" class="edge">
<title>Node2&#45;&gt;Node36</title>
<path fill="none" stroke="midnightblue" d="M1703.48,-345.33C1823.42,-346.57 2313.6,-348.62 2359.11,-300 2419.87,-235.1 2325.93,-124.43 2286.34,-83.15"/>
<polygon fill="midnightblue" stroke="midnightblue" points="2288.7,-80.56 2279.21,-75.86 2283.7,-85.45 2288.7,-80.56"/>
</g>
<!-- Node37 -->
<g id="node34" class="node">
<title>Node37</title>
<g id="a_node34"><a xlink:href="_s_l_mat4_8h.html" target="_top" xlink:title=" ">
<polygon fill="white" stroke="red" points="2152.61,-224.5 2152.61,-243.5 2211.61,-243.5 2211.61,-224.5 2152.61,-224.5"/>
<text text-anchor="middle" x="2182.11" y="-231.5" font-family="Arial.ttf" font-size="10.00">SLMat4.h</text>
</a>
</g>
</g>
<!-- Node2&#45;&gt;Node37 -->
<g id="edge37" class="edge">
<title>Node2&#45;&gt;Node37</title>
<path fill="none" stroke="midnightblue" d="M1703.38,-344.69C1802.59,-343.25 2150.48,-335.66 2183.11,-300 2194.28,-287.79 2192.33,-268.24 2188.62,-253.77"/>
<polygon fill="midnightblue" stroke="midnightblue" points="2191.88,-252.45 2185.63,-243.9 2185.18,-254.48 2191.88,-252.45"/>
</g>
<!-- Node39 -->
<g id="node35" class="node">
<title>Node39</title>
<g id="a_node35"><a xlink:href="_s_l_vec4_8h.html" target="_top" xlink:title=" ">
<polygon fill="white" stroke="red" points="2251.61,-168.5 2251.61,-187.5 2310.61,-187.5 2310.61,-168.5 2251.61,-168.5"/>
<text text-anchor="middle" x="2281.11" y="-175.5" font-family="Arial.ttf" font-size="10.00">SLVec4.h</text>
</a>
</g>
</g>
<!-- Node2&#45;&gt;Node39 -->
<g id="edge53" class="edge">
<title>Node2&#45;&gt;Node39</title>
<path fill="none" stroke="midnightblue" d="M1703.14,-345.28C1820.41,-346.25 2295.95,-347.26 2340.11,-300 2369.61,-268.43 2325.73,-219.35 2299.07,-194.52"/>
<polygon fill="midnightblue" stroke="midnightblue" points="2301.22,-191.74 2291.45,-187.64 2296.53,-196.94 2301.22,-191.74"/>
</g>
<!-- Node43 -->
<g id="node36" class="node">
<title>Node43</title>
<g id="a_node36"><a xlink:href="_s_l_object_8h.html" target="_top" xlink:title=" ">
<polygon fill="white" stroke="black" points="2403.61,-56.5 2403.61,-75.5 2468.61,-75.5 2468.61,-56.5 2403.61,-56.5"/>
<text text-anchor="middle" x="2436.11" y="-63.5" font-family="Arial.ttf" font-size="10.00">SLObject.h</text>
</a>
</g>
</g>
<!-- Node2&#45;&gt;Node43 -->
<g id="edge45" class="edge">
<title>Node2&#45;&gt;Node43</title>
<path fill="none" stroke="midnightblue" d="M1703.23,-344.52C1823.25,-342.16 2318.59,-330.62 2380.11,-300 2414.25,-283.01 2436.11,-273.13 2436.11,-235 2436.11,-235 2436.11,-235 2436.11,-177 2436.11,-144.95 2436.11,-107.64 2436.11,-85.75"/>
<polygon fill="midnightblue" stroke="midnightblue" points="2439.61,-85.56 2436.11,-75.56 2432.61,-85.56 2439.61,-85.56"/>
</g>
<!-- Node44 -->
<g id="node37" class="node">
<title>Node44</title>
<g id="a_node37"><a xlink:href="_s_l_quat4_8h.html" target="_top" xlink:title=" ">
<polygon fill="white" stroke="red" points="2268.61,-280.5 2268.61,-299.5 2331.61,-299.5 2331.61,-280.5 2268.61,-280.5"/>
<text text-anchor="middle" x="2300.11" y="-287.5" font-family="Arial.ttf" font-size="10.00">SLQuat4.h</text>
</a>
</g>
</g>
<!-- Node2&#45;&gt;Node44 -->
<g id="edge47" class="edge">
<title>Node2&#45;&gt;Node44</title>
<path fill="none" stroke="midnightblue" d="M1703.39,-344.03C1785.25,-340.78 2042.8,-328.81 2254.11,-300 2255.57,-299.8 2257.06,-299.58 2258.55,-299.35"/>
<polygon fill="midnightblue" stroke="midnightblue" points="2259.24,-302.79 2268.52,-297.68 2258.07,-295.89 2259.24,-302.79"/>
</g>
<!-- Node45 -->
<g id="node38" class="node">
<title>Node45</title>
<g id="a_node38"><a xlink:title=" ">
<polygon fill="white" stroke="#bfbfbf" points="1001.11,-280.5 1001.11,-299.5 1117.11,-299.5 1117.11,-280.5 1001.11,-280.5"/>
<text text-anchor="middle" x="1059.11" y="-287.5" font-family="Arial.ttf" font-size="10.00">opencv2/core/core.hpp</text>
</a>
</g>
</g>
<!-- Node2&#45;&gt;Node45 -->
<g id="edge54" class="edge">
<title>Node2&#45;&gt;Node45</title>
<path fill="none" stroke="midnightblue" d="M1650.97,-343.35C1573.06,-338.33 1335.52,-322.28 1127.39,-300.09"/>
<polygon fill="midnightblue" stroke="midnightblue" points="1127.51,-296.58 1117.19,-298.99 1126.76,-303.54 1127.51,-296.58"/>
</g>
<!-- Node46 -->
<g id="node39" class="node">
<title>Node46</title>
<g id="a_node39"><a xlink:title=" ">
<polygon fill="white" stroke="#bfbfbf" points="1135.61,-280.5 1135.61,-299.5 1254.61,-299.5 1254.61,-280.5 1135.61,-280.5"/>
<text text-anchor="middle" x="1195.11" y="-287.5" font-family="Arial.ttf" font-size="10.00">opencv2/core/utility.hpp</text>
</a>
</g>
</g>
<!-- Node2&#45;&gt;Node46 -->
<g id="edge55" class="edge">
<title>Node2&#45;&gt;Node46</title>
<path fill="none" stroke="midnightblue" d="M1651,-342.35C1587.12,-335.82 1417.7,-318.26 1264.97,-300.08"/>
<polygon fill="midnightblue" stroke="midnightblue" points="1265.28,-296.59 1254.94,-298.88 1264.45,-303.54 1265.28,-296.59"/>
</g>
<!-- Node47 -->
<g id="node40" class="node">
<title>Node47</title>
<g id="a_node40"><a xlink:title=" ">
<polygon fill="white" stroke="#bfbfbf" points="1273.11,-280.5 1273.11,-299.5 1379.11,-299.5 1379.11,-280.5 1273.11,-280.5"/>
<text text-anchor="middle" x="1326.11" y="-287.5" font-family="Arial.ttf" font-size="10.00">opencv2/highgui.hpp</text>
</a>
</g>
</g>
<!-- Node2&#45;&gt;Node47 -->
<g id="edge56" class="edge">
<title>Node2&#45;&gt;Node47</title>
<path fill="none" stroke="midnightblue" d="M1651.02,-340.99C1596.12,-332.54 1467.37,-312.73 1389.43,-300.74"/>
<polygon fill="midnightblue" stroke="midnightblue" points="1389.67,-297.24 1379.26,-299.18 1388.61,-304.16 1389.67,-297.24"/>
</g>
<!-- Node48 -->
<g id="node41" class="node">
<title>Node48</title>
<g id="a_node41"><a xlink:title=" ">
<polygon fill="white" stroke="#bfbfbf" points="1397.11,-280.5 1397.11,-299.5 1507.11,-299.5 1507.11,-280.5 1397.11,-280.5"/>
<text text-anchor="middle" x="1452.11" y="-287.5" font-family="Arial.ttf" font-size="10.00">opencv2/imgproc.hpp</text>
</a>
</g>
</g>
<!-- Node2&#45;&gt;Node48 -->
<g id="edge57" class="edge">
<title>Node2&#45;&gt;Node48</title>
<path fill="none" stroke="midnightblue" d="M1650.86,-338.7C1613.28,-329.68 1543.6,-312.96 1497.54,-301.9"/>
<polygon fill="midnightblue" stroke="midnightblue" points="1498.35,-298.5 1487.81,-299.57 1496.71,-305.3 1498.35,-298.5"/>
</g>
<!-- Node49 -->
<g id="node42" class="node">
<title>Node49</title>
<g id="a_node42"><a xlink:title=" ">
<polygon fill="white" stroke="#bfbfbf" points="1525.11,-280.5 1525.11,-299.5 1631.11,-299.5 1631.11,-280.5 1525.11,-280.5"/>
<text text-anchor="middle" x="1578.11" y="-287.5" font-family="Arial.ttf" font-size="10.00">opencv2/calib3d.hpp</text>
</a>
</g>
</g>
<!-- Node2&#45;&gt;Node49 -->
<g id="edge58" class="edge">
<title>Node2&#45;&gt;Node49</title>
<path fill="none" stroke="midnightblue" d="M1661.2,-336.32C1645.47,-327.74 1621.17,-314.49 1602.9,-304.52"/>
<polygon fill="midnightblue" stroke="midnightblue" points="1604.43,-301.37 1593.98,-299.65 1601.08,-307.52 1604.43,-301.37"/>
</g>
<!-- Node34&#45;&gt;Node11 -->
<g id="edge36" class="edge">
<title>Node34&#45;&gt;Node11</title>
<path fill="none" stroke="midnightblue" d="M2059.43,-175.41C1914.19,-167.65 1278.78,-133.68 1116.8,-125.02"/>
<polygon fill="midnightblue" stroke="midnightblue" points="1116.57,-121.5 1106.39,-124.46 1116.19,-128.49 1116.57,-121.5"/>
</g>
<!-- Node34&#45;&gt;Node29 -->
<g id="edge31" class="edge">
<title>Node34&#45;&gt;Node29</title>
<path fill="none" stroke="midnightblue" d="M2089.62,-168.18C2091.4,-145.89 2099.24,-86.86 2133.11,-56 2172.98,-19.67 2238.56,-11.97 2276.18,-10.74"/>
<polygon fill="midnightblue" stroke="midnightblue" points="2276.52,-14.24 2286.45,-10.55 2276.38,-7.24 2276.52,-14.24"/>
</g>
<!-- Node34&#45;&gt;Node35 -->
<g id="edge32" class="edge">
<title>Node34&#45;&gt;Node35</title>
<path fill="none" stroke="midnightblue" d="M2107.49,-168.44C2126.33,-159.68 2155.84,-145.94 2177.49,-135.86"/>
<polygon fill="midnightblue" stroke="midnightblue" points="2179.23,-138.91 2186.82,-131.52 2176.27,-132.56 2179.23,-138.91"/>
</g>
<!-- Node35&#45;&gt;Node29 -->
<g id="edge33" class="edge">
<title>Node35&#45;&gt;Node29</title>
<path fill="none" stroke="midnightblue" d="M2206.79,-112.08C2209.71,-98.61 2216.82,-72.88 2231.11,-56 2243.5,-41.36 2261.91,-30.14 2277.27,-22.57"/>
<polygon fill="midnightblue" stroke="midnightblue" points="2278.78,-25.73 2286.35,-18.32 2275.81,-19.38 2278.78,-25.73"/>
</g>
<!-- Node35&#45;&gt;Node36 -->
<g id="edge34" class="edge">
<title>Node35&#45;&gt;Node36</title>
<path fill="none" stroke="midnightblue" d="M2215.55,-112.32C2225.26,-104.26 2239.93,-92.08 2251.61,-82.37"/>
<polygon fill="midnightblue" stroke="midnightblue" points="2254.02,-84.92 2259.48,-75.83 2249.55,-79.53 2254.02,-84.92"/>
</g>
<!-- Node36&#45;&gt;Node29 -->
<g id="edge35" class="edge">
<title>Node36&#45;&gt;Node29</title>
<path fill="none" stroke="midnightblue" d="M2275.89,-56.08C2280.78,-48.53 2287.94,-37.49 2293.94,-28.23"/>
<polygon fill="midnightblue" stroke="midnightblue" points="2296.94,-30.05 2299.44,-19.75 2291.06,-26.24 2296.94,-30.05"/>
</g>
<!-- Node37&#45;&gt;Node29 -->
<g id="edge38" class="edge">
<title>Node37&#45;&gt;Node29</title>
<path fill="none" stroke="midnightblue" d="M2178.27,-224.47C2169.72,-204.24 2151.06,-152.07 2166.11,-112 2184.3,-63.58 2241.61,-34.42 2276.71,-20.64"/>
<polygon fill="midnightblue" stroke="midnightblue" points="2278.26,-23.8 2286.39,-17.01 2275.8,-17.24 2278.26,-23.8"/>
</g>
<!-- Node37&#45;&gt;Node34 -->
<g id="edge39" class="edge">
<title>Node37&#45;&gt;Node34</title>
<path fill="none" stroke="midnightblue" d="M2167.17,-224.32C2152.53,-215.82 2129.98,-202.73 2112.87,-192.8"/>
<polygon fill="midnightblue" stroke="midnightblue" points="2114.42,-189.65 2104.02,-187.65 2110.91,-195.7 2114.42,-189.65"/>
</g>
<!-- Node37&#45;&gt;Node35 -->
<g id="edge40" class="edge">
<title>Node37&#45;&gt;Node35</title>
<path fill="none" stroke="midnightblue" d="M2183.92,-224.37C2187.63,-206.62 2196.19,-165.67 2201.22,-141.6"/>
<polygon fill="midnightblue" stroke="midnightblue" points="2204.69,-142.1 2203.31,-131.59 2197.84,-140.66 2204.69,-142.1"/>
</g>
<!-- Node37&#45;&gt;Node39 -->
<g id="edge41" class="edge">
<title>Node37&#45;&gt;Node39</title>
<path fill="none" stroke="midnightblue" d="M2198.02,-224.32C2213.75,-215.74 2238.05,-202.49 2256.32,-192.52"/>
<polygon fill="midnightblue" stroke="midnightblue" points="2258.14,-195.52 2265.24,-187.65 2254.79,-189.37 2258.14,-195.52"/>
</g>
<!-- Node39&#45;&gt;Node29 -->
<g id="edge42" class="edge">
<title>Node39&#45;&gt;Node29</title>
<path fill="none" stroke="midnightblue" d="M2284.29,-168.24C2290.38,-150.91 2303.52,-110.91 2308.11,-76 2309.27,-67.19 2308.41,-64.88 2308.11,-56 2307.82,-47.38 2307.23,-37.85 2306.64,-29.79"/>
<polygon fill="midnightblue" stroke="midnightblue" points="2310.12,-29.32 2305.86,-19.62 2303.14,-29.86 2310.12,-29.32"/>
</g>
<!-- Node39&#45;&gt;Node35 -->
<g id="edge44" class="edge">
<title>Node39&#45;&gt;Node35</title>
<path fill="none" stroke="midnightblue" d="M2268.9,-168.32C2257.33,-160.11 2239.73,-147.6 2225.95,-137.81"/>
<polygon fill="midnightblue" stroke="midnightblue" points="2227.72,-134.77 2217.54,-131.83 2223.67,-140.48 2227.72,-134.77"/>
</g>
<!-- Node39&#45;&gt;Node36 -->
<g id="edge43" class="edge">
<title>Node39&#45;&gt;Node36</title>
<path fill="none" stroke="midnightblue" d="M2280.25,-168.37C2278.47,-150.62 2274.38,-109.67 2271.97,-85.6"/>
<polygon fill="midnightblue" stroke="midnightblue" points="2275.45,-85.19 2270.97,-75.59 2268.48,-85.89 2275.45,-85.19"/>
</g>
<!-- Node43&#45;&gt;Node29 -->
<g id="edge46" class="edge">
<title>Node43&#45;&gt;Node29</title>
<path fill="none" stroke="midnightblue" d="M2415.35,-56.44C2393.16,-47.3 2357.84,-32.74 2333.18,-22.57"/>
<polygon fill="midnightblue" stroke="midnightblue" points="2334.23,-19.22 2323.65,-18.64 2331.56,-25.69 2334.23,-19.22"/>
</g>
<!-- Node44&#45;&gt;Node29 -->
<g id="edge48" class="edge">
<title>Node44&#45;&gt;Node29</title>
<path fill="none" stroke="midnightblue" d="M2302.18,-280.42C2306.25,-263.08 2315.26,-222.58 2319.11,-188 2324.62,-138.5 2322.22,-125.8 2323.11,-76 2323.27,-67.11 2324.79,-64.73 2323.11,-56 2321.32,-46.7 2317.63,-36.89 2314.05,-28.8"/>
<polygon fill="midnightblue" stroke="midnightblue" points="2317.17,-27.21 2309.73,-19.66 2310.84,-30.2 2317.17,-27.21"/>
</g>
<!-- Node44&#45;&gt;Node37 -->
<g id="edge49" class="edge">
<title>Node44&#45;&gt;Node37</title>
<path fill="none" stroke="midnightblue" d="M2281.41,-280.44C2262.17,-271.64 2231.96,-257.81 2209.91,-247.72"/>
<polygon fill="midnightblue" stroke="midnightblue" points="2211.27,-244.5 2200.72,-243.52 2208.36,-250.86 2211.27,-244.5"/>
</g>
<!-- Node44&#45;&gt;Node39 -->
<g id="edge50" class="edge">
<title>Node44&#45;&gt;Node39</title>
<path fill="none" stroke="midnightblue" d="M2298.62,-280.37C2295.55,-262.62 2288.48,-221.67 2284.32,-197.6"/>
<polygon fill="midnightblue" stroke="midnightblue" points="2287.75,-196.85 2282.59,-187.59 2280.85,-198.04 2287.75,-196.85"/>
</g>
<!-- Node87&#45;&gt;Node13 -->
<g id="edge65" class="edge">
<title>Node87&#45;&gt;Node13</title>
<path fill="none" stroke="midnightblue" d="M2756.96,-280.44C2722.06,-270.2 2664.05,-253.18 2629.81,-243.13"/>
<polygon fill="midnightblue" stroke="midnightblue" points="2630.58,-239.71 2620,-240.25 2628.61,-246.43 2630.58,-239.71"/>
</g>
<!-- Node87&#45;&gt;Node20 -->
<g id="edge64" class="edge">
<title>Node87&#45;&gt;Node20</title>
<path fill="none" stroke="midnightblue" d="M2771.97,-280.32C2758.24,-271.9 2737.17,-258.97 2721.05,-249.07"/>
<polygon fill="midnightblue" stroke="midnightblue" points="2722.57,-245.9 2712.21,-243.65 2718.91,-251.87 2722.57,-245.9"/>
</g>
<!-- Node87&#45;&gt;Node29 -->
<g id="edge63" class="edge">
<title>Node87&#45;&gt;Node29</title>
<path fill="none" stroke="midnightblue" d="M2783.55,-280.25C2778.36,-261.74 2767.11,-217.18 2767.11,-179 2767.11,-179 2767.11,-179 2767.11,-121 2767.11,-31.5 2434.88,-14.69 2333.89,-11.65"/>
<polygon fill="midnightblue" stroke="midnightblue" points="2333.89,-8.15 2323.79,-11.37 2333.69,-15.14 2333.89,-8.15"/>
</g>
<!-- Node101&#45;&gt;Node87 -->
<g id="edge67" class="edge">
<title>Node101&#45;&gt;Node87</title>
<path fill="none" stroke="midnightblue" d="M2629.58,-336.44C2661.28,-327.24 2711.84,-312.56 2746.89,-302.39"/>
<polygon fill="midnightblue" stroke="midnightblue" points="2748.15,-305.67 2756.78,-299.52 2746.2,-298.94 2748.15,-305.67"/>
</g>
<!-- Node66&#45;&gt;Node29 -->
<g id="edge69" class="edge">
<title>Node66&#45;&gt;Node29</title>
<path fill="none" stroke="midnightblue" d="M79.01,-336.43C59.02,-329.65 34.52,-318.21 19.11,-300 -0.33,-277.02 0.11,-265.1 0.11,-235 0.11,-235 0.11,-235 0.11,-121 0.11,-1.28 2010.25,-9.23 2276.19,-10.81"/>
<polygon fill="midnightblue" stroke="midnightblue" points="2276.54,-14.31 2286.56,-10.87 2276.58,-7.31 2276.54,-14.31"/>
</g>
<!-- Node66&#45;&gt;Node33 -->
<g id="edge70" class="edge">
<title>Node66&#45;&gt;Node33</title>
<path fill="none" stroke="midnightblue" d="M103.85,-336.08C96.65,-328.3 86,-316.8 77.26,-307.37"/>
<polygon fill="midnightblue" stroke="midnightblue" points="79.58,-304.71 70.21,-299.75 74.44,-309.47 79.58,-304.71"/>
</g>
<!-- Node66&#45;&gt;Node37 -->
<g id="edge71" class="edge">
<title>Node66&#45;&gt;Node37</title>
<path fill="none" stroke="midnightblue" d="M122.16,-336.34C140.15,-321.46 179.68,-291.53 219.11,-280 314.71,-252.05 1872.36,-237.62 2142.38,-235.33"/>
<polygon fill="midnightblue" stroke="midnightblue" points="2142.53,-238.83 2152.5,-235.24 2142.47,-231.83 2142.53,-238.83"/>
</g>
<!-- Node116&#45;&gt;Node117 -->
<g id="edge73" class="edge">
<title>Node116&#45;&gt;Node117</title>
<path fill="none" stroke="midnightblue" d="M2992.23,-336.08C2996.52,-328.61 3002.77,-317.72 3008.05,-308.52"/>
<polygon fill="midnightblue" stroke="midnightblue" points="3011.14,-310.17 3013.09,-299.75 3005.07,-306.68 3011.14,-310.17"/>
</g>
</g>
</svg>
