<?xml version="1.0" encoding="UTF-8" standalone="no"?>
<!DOCTYPE svg PUBLIC "-//W3C//DTD SVG 1.1//EN"
 "http://www.w3.org/Graphics/SVG/1.1/DTD/svg11.dtd">
<!-- Generated by graphviz version 2.36.0 (20140111.2315)
 -->
<!-- Title: SLGLUniform.h Pages: 1 -->
<svg width="146pt" height="196pt"
 viewBox="0.00 0.00 146.00 196.00" xmlns="http://www.w3.org/2000/svg" xmlns:xlink="http://www.w3.org/1999/xlink">
<g id="graph0" class="graph" transform="scale(1 1) rotate(0) translate(4 192)">
<title>SLGLUniform.h</title>
<polygon fill="white" stroke="none" points="-4,4 -4,-192 142,-192 142,4 -4,4"/>
<!-- Node1 -->
<g id="node1" class="node"><title>Node1</title>
<polygon fill="#bfbfbf" stroke="black" points="-0.5,-168.5 -0.5,-187.5 84.5,-187.5 84.5,-168.5 -0.5,-168.5"/>
<text text-anchor="middle" x="42" y="-175.5" font-family="Arial.ttf" font-size="10.00">SLGLUniform.h</text>
</g>
<!-- Node2 -->
<g id="node2" class="node"><title>Node2</title>
<polygon fill="white" stroke="#bfbfbf" points="16,-0.5 16,-19.5 68,-19.5 68,-0.5 16,-0.5"/>
<text text-anchor="middle" x="42" y="-7.5" font-family="Arial.ttf" font-size="10.00">stdafx.h</text>
</g>
<!-- Node1&#45;&gt;Node2 -->
<g id="edge1" class="edge"><title>Node1&#45;&gt;Node2</title>
<path fill="none" stroke="midnightblue" d="M37.1241,-168.372C32.4412,-159.552 25.6924,-145.299 23,-132 15.6452,-95.6723 27.1141,-52.7191 35.1831,-29.0041"/>
<polygon fill="midnightblue" stroke="midnightblue" points="38.4907,-30.1491 38.5714,-19.5546 31.9015,-27.7864 38.4907,-30.1491"/>
</g>
<!-- Node3 -->
<g id="node3" class="node"><title>Node3</title>
<g id="a_node3"><a xlink:href="_s_l_event_handler_8h.html" target="_top" xlink:title="SLEventHandler.h">
<polygon fill="white" stroke="black" points="32,-112.5 32,-131.5 130,-131.5 130,-112.5 32,-112.5"/>
<text text-anchor="middle" x="81" y="-119.5" font-family="Arial.ttf" font-size="10.00">SLEventHandler.h</text>
</a>
</g>
</g>
<!-- Node1&#45;&gt;Node3 -->
<g id="edge2" class="edge"><title>Node1&#45;&gt;Node3</title>
<path fill="none" stroke="midnightblue" d="M48.4401,-168.083C53.9489,-160.455 62.0312,-149.264 68.765,-139.941"/>
<polygon fill="midnightblue" stroke="midnightblue" points="71.6622,-141.907 74.6798,-131.751 65.9874,-137.809 71.6622,-141.907"/>
</g>
<!-- Node3&#45;&gt;Node2 -->
<g id="edge3" class="edge"><title>Node3&#45;&gt;Node2</title>
<path fill="none" stroke="midnightblue" d="M76.6577,-112.18C72.3429,-103.211 65.7072,-88.8435 61,-76 55.3105,-60.4766 50.1385,-42.394 46.6322,-29.2481"/>
<polygon fill="midnightblue" stroke="midnightblue" points="50.0093,-28.3275 44.1039,-19.5311 43.2348,-30.0902 50.0093,-28.3275"/>
</g>
<!-- Node4 -->
<g id="node4" class="node"><title>Node4</title>
<g id="a_node4"><a xlink:href="_s_l_enums_8h.html" target="_top" xlink:title="SLEnums.h">
<polygon fill="white" stroke="black" points="70,-56.5 70,-75.5 138,-75.5 138,-56.5 70,-56.5"/>
<text text-anchor="middle" x="104" y="-63.5" font-family="Arial.ttf" font-size="10.00">SLEnums.h</text>
</a>
</g>
</g>
<!-- Node3&#45;&gt;Node4 -->
<g id="edge4" class="edge"><title>Node3&#45;&gt;Node4</title>
<path fill="none" stroke="midnightblue" d="M84.798,-112.083C87.9128,-104.77 92.4228,-94.1814 96.2893,-85.1034"/>
<polygon fill="midnightblue" stroke="midnightblue" points="99.5741,-86.3229 100.273,-75.7511 93.1339,-83.5798 99.5741,-86.3229"/>
</g>
<!-- Node4&#45;&gt;Node2 -->
<g id="edge5" class="edge"><title>Node4&#45;&gt;Node2</title>
<path fill="none" stroke="midnightblue" d="M94.0386,-56.324C84.8734,-48.3414 71.0628,-36.3128 59.9718,-26.6529"/>
<polygon fill="midnightblue" stroke="midnightblue" points="61.9822,-23.7624 52.1426,-19.8339 57.3847,-29.041 61.9822,-23.7624"/>
</g>
</g>
</svg>
