<?xml version="1.0" encoding="UTF-8" standalone="no"?>
<!DOCTYPE svg PUBLIC "-//W3C//DTD SVG 1.1//EN"
 "http://www.w3.org/Graphics/SVG/1.1/DTD/svg11.dtd">
<!-- Generated by graphviz version 8.0.5 (20230430.1635)
 -->
<!-- Title: SLAnimTrack.h Pages: 1 -->
<svg width="2693pt" height="428pt"
 viewBox="0.00 0.00 2693.12 428.00" xmlns="http://www.w3.org/2000/svg" xmlns:xlink="http://www.w3.org/1999/xlink">
<g id="graph0" class="graph" transform="scale(1 1) rotate(0) translate(4 424)">
<title>SLAnimTrack.h</title>
<polygon fill="white" stroke="none" points="-4,4 -4,-424 2689.12,-424 2689.12,4 -4,4"/>
<!-- Node1 -->
<g id="node1" class="node">
<title>Node1</title>
<g id="a_node1"><a xlink:title=" ">
<polygon fill="#bfbfbf" stroke="black" points="748.25,-399.5 748.25,-419.5 831.75,-419.5 831.75,-399.5 748.25,-399.5"/>
<text text-anchor="middle" x="790" y="-406" font-family="Arial" font-size="10.00">SLAnimTrack.h</text>
</a>
</g>
</g>
<!-- Node2 -->
<g id="node2" class="node">
<title>Node2</title>
<g id="a_node2"><a xlink:href="_s_l_anim_track_8cpp.html" target="_top" xlink:title=" ">
<polygon fill="white" stroke="black" points="0,-57.5 0,-77.5 94,-77.5 94,-57.5 0,-57.5"/>
<text text-anchor="middle" x="47" y="-64" font-family="Arial" font-size="10.00">SLAnimTrack.cpp</text>
</a>
</g>
</g>
<!-- Node1&#45;&gt;Node2 -->
<g id="edge1" class="edge">
<title>Node1&#45;&gt;Node2</title>
<path fill="none" stroke="midnightblue" d="M737.73,-406.03C570.11,-397.42 57,-365.43 57,-296.5 57,-296.5 57,-296.5 57,-180.5 57,-142.04 51.08,-96.45 48.35,-77.48"/>
<polygon fill="midnightblue" stroke="midnightblue" points="737.33,-409.56 747.49,-406.57 737.68,-402.57 737.33,-409.56"/>
</g>
<!-- Node3 -->
<g id="node3" class="node">
<title>Node3</title>
<g id="a_node3"><a xlink:href="_s_l_animation_8h.html" target="_top" xlink:title=" ">
<polygon fill="white" stroke="black" points="1548.12,-342.5 1548.12,-362.5 1627.88,-362.5 1627.88,-342.5 1548.12,-342.5"/>
<text text-anchor="middle" x="1588" y="-349" font-family="Arial" font-size="10.00">SLAnimation.h</text>
</a>
</g>
</g>
<!-- Node1&#45;&gt;Node3 -->
<g id="edge2" class="edge">
<title>Node1&#45;&gt;Node3</title>
<path fill="none" stroke="midnightblue" d="M842.16,-404.9C991.18,-394.63 1416.55,-365.32 1548.49,-356.22"/>
<polygon fill="midnightblue" stroke="midnightblue" points="842.24,-401.46 832.5,-405.64 842.72,-408.44 842.24,-401.46"/>
</g>
<!-- Node3&#45;&gt;Node2 -->
<g id="edge64" class="edge">
<title>Node3&#45;&gt;Node2</title>
<path fill="none" stroke="midnightblue" d="M1537.24,-350.36C1278,-344.2 114,-312.48 114,-239.5 114,-239.5 114,-239.5 114,-180.5 114,-136.54 75.52,-94.89 56.89,-77.29"/>
<polygon fill="midnightblue" stroke="midnightblue" points="1537.11,-353.88 1547.19,-350.62 1537.28,-346.88 1537.11,-353.88"/>
</g>
<!-- Node4 -->
<g id="node4" class="node">
<title>Node4</title>
<g id="a_node4"><a xlink:href="_s_l_anim_manager_8h.html" target="_top" xlink:title=" ">
<polygon fill="white" stroke="black" points="1456.88,-228.5 1456.88,-248.5 1553.12,-248.5 1553.12,-228.5 1456.88,-228.5"/>
<text text-anchor="middle" x="1505" y="-235" font-family="Arial" font-size="10.00">SLAnimManager.h</text>
</a>
</g>
</g>
<!-- Node3&#45;&gt;Node4 -->
<g id="edge3" class="edge">
<title>Node3&#45;&gt;Node4</title>
<path fill="none" stroke="midnightblue" d="M1559.82,-337.21C1547.21,-329.53 1533.16,-318.95 1524,-306 1511.38,-288.16 1507.1,-262.07 1505.68,-248.48"/>
<polygon fill="midnightblue" stroke="midnightblue" points="1557.65,-340.58 1568.07,-342.52 1561.14,-334.51 1557.65,-340.58"/>
</g>
<!-- Node27 -->
<g id="node27" class="node">
<title>Node27</title>
<g id="a_node27"><a xlink:href="_s_l_node_8cpp.html" target="_top" xlink:title=" ">
<polygon fill="white" stroke="black" points="2507,-57.5 2507,-77.5 2577,-77.5 2577,-57.5 2507,-57.5"/>
<text text-anchor="middle" x="2542" y="-64" font-family="Arial" font-size="10.00">SLNode.cpp</text>
</a>
</g>
</g>
<!-- Node3&#45;&gt;Node27 -->
<g id="edge68" class="edge">
<title>Node3&#45;&gt;Node27</title>
<path fill="none" stroke="midnightblue" d="M1638.49,-350.82C1790.46,-348.41 2241.97,-338.64 2385,-306 2458.88,-289.14 2542,-315.28 2542,-239.5 2542,-239.5 2542,-239.5 2542,-180.5 2542,-142 2542,-96.06 2542,-77.21"/>
<polygon fill="midnightblue" stroke="midnightblue" points="1638.59,-347.33 1628.65,-350.98 1638.7,-354.33 1638.59,-347.33"/>
</g>
<!-- Node50 -->
<g id="node45" class="node">
<title>Node50</title>
<g id="a_node45"><a xlink:href="_s_l_anim_playback_8cpp.html" target="_top" xlink:title=" ">
<polygon fill="white" stroke="black" points="1533.12,-285.5 1533.12,-305.5 1642.88,-305.5 1642.88,-285.5 1533.12,-285.5"/>
<text text-anchor="middle" x="1588" y="-292" font-family="Arial" font-size="10.00">SLAnimPlayback.cpp</text>
</a>
</g>
</g>
<!-- Node3&#45;&gt;Node50 -->
<g id="edge59" class="edge">
<title>Node3&#45;&gt;Node50</title>
<path fill="none" stroke="midnightblue" d="M1588,-332C1588,-322.85 1588,-312.39 1588,-305.21"/>
<polygon fill="midnightblue" stroke="midnightblue" points="1584.5,-331.91 1588,-341.91 1591.5,-331.91 1584.5,-331.91"/>
</g>
<!-- Node51 -->
<g id="node46" class="node">
<title>Node51</title>
<g id="a_node46"><a xlink:href="_s_l_anim_skeleton_8h.html" target="_top" xlink:title=" ">
<polygon fill="white" stroke="black" points="1660.5,-285.5 1660.5,-305.5 1757.5,-305.5 1757.5,-285.5 1660.5,-285.5"/>
<text text-anchor="middle" x="1709" y="-292" font-family="Arial" font-size="10.00">SLAnimSkeleton.h</text>
</a>
</g>
</g>
<!-- Node3&#45;&gt;Node51 -->
<g id="edge60" class="edge">
<title>Node3&#45;&gt;Node51</title>
<path fill="none" stroke="midnightblue" d="M1617.66,-338.02C1639.95,-327.89 1669.88,-314.28 1689.3,-305.46"/>
<polygon fill="midnightblue" stroke="midnightblue" points="1616.37,-335.22 1608.71,-342.54 1619.26,-341.59 1616.37,-335.22"/>
</g>
<!-- Node53 -->
<g id="node48" class="node">
<title>Node53</title>
<g id="a_node48"><a xlink:href="_s_l_importer_8h.html" target="_top" xlink:title=" ">
<polygon fill="white" stroke="black" points="2303.88,-285.5 2303.88,-305.5 2376.12,-305.5 2376.12,-285.5 2303.88,-285.5"/>
<text text-anchor="middle" x="2340" y="-292" font-family="Arial" font-size="10.00">SLImporter.h</text>
</a>
</g>
</g>
<!-- Node3&#45;&gt;Node53 -->
<g id="edge65" class="edge">
<title>Node3&#45;&gt;Node53</title>
<path fill="none" stroke="midnightblue" d="M1638.19,-347.83C1780.07,-337.45 2181.76,-308.07 2304.16,-299.12"/>
<polygon fill="midnightblue" stroke="midnightblue" points="1638.35,-344.38 1628.64,-348.6 1638.86,-351.36 1638.35,-344.38"/>
</g>
<!-- Node4&#45;&gt;Node4 -->
<g id="edge4" class="edge">
<title>Node4&#45;&gt;Node4</title>
<path fill="none" stroke="midnightblue" d="M1546.23,-249.19C1560.05,-249.2 1571.12,-245.64 1571.12,-238.5 1571.12,-229.54 1553.69,-226.21 1535.27,-228.52"/>
<polygon fill="midnightblue" stroke="midnightblue" points="1546.47,-245.63 1536.27,-248.48 1546.02,-252.62 1546.47,-245.63"/>
</g>
<!-- Node5 -->
<g id="node5" class="node">
<title>Node5</title>
<g id="a_node5"><a xlink:href="_s_l_scene_8h.html" target="_top" xlink:title=" ">
<polygon fill="white" stroke="black" points="1473,-171.5 1473,-191.5 1537,-191.5 1537,-171.5 1473,-171.5"/>
<text text-anchor="middle" x="1505" y="-178" font-family="Arial" font-size="10.00">SLScene.h</text>
</a>
</g>
</g>
<!-- Node4&#45;&gt;Node5 -->
<g id="edge5" class="edge">
<title>Node4&#45;&gt;Node5</title>
<path fill="none" stroke="midnightblue" d="M1505,-218C1505,-208.85 1505,-198.39 1505,-191.21"/>
<polygon fill="midnightblue" stroke="midnightblue" points="1501.5,-217.91 1505,-227.91 1508.5,-217.91 1501.5,-217.91"/>
</g>
<!-- Node42 -->
<g id="node41" class="node">
<title>Node42</title>
<g id="a_node41"><a xlink:href="_s_l_scene_view_8cpp.html" target="_top" xlink:title=" ">
<polygon fill="white" stroke="black" points="112.25,-57.5 112.25,-77.5 207.75,-77.5 207.75,-57.5 112.25,-57.5"/>
<text text-anchor="middle" x="160" y="-64" font-family="Arial" font-size="10.00">SLSceneView.cpp</text>
</a>
</g>
</g>
<!-- Node4&#45;&gt;Node42 -->
<g id="edge58" class="edge">
<title>Node4&#45;&gt;Node42</title>
<path fill="none" stroke="midnightblue" d="M1445.99,-235.63C1233.55,-228.41 508.69,-199.51 287,-135 242.07,-121.93 194.64,-92.19 172.61,-77.32"/>
<polygon fill="midnightblue" stroke="midnightblue" points="1445.78,-239.16 1455.89,-235.99 1446.02,-232.16 1445.78,-239.16"/>
</g>
<!-- Node6 -->
<g id="node6" class="node">
<title>Node6</title>
<g id="a_node6"><a xlink:href="_app_demo_gui_8cpp.html" target="_top" xlink:title=" ">
<polygon fill="white" stroke="black" points="1898.38,-57.5 1898.38,-77.5 1991.62,-77.5 1991.62,-57.5 1898.38,-57.5"/>
<text text-anchor="middle" x="1945" y="-64" font-family="Arial" font-size="10.00">AppDemoGui.cpp</text>
</a>
</g>
</g>
<!-- Node5&#45;&gt;Node6 -->
<g id="edge6" class="edge">
<title>Node5&#45;&gt;Node6</title>
<path fill="none" stroke="midnightblue" d="M1547.1,-168.88C1576.1,-160.47 1615.33,-148.28 1649,-135 1669.16,-127.05 1672.38,-120.65 1693,-114 1730.45,-101.92 1836.58,-84.8 1898.52,-75.37"/>
<polygon fill="midnightblue" stroke="midnightblue" points="1546.55,-165.68 1537.9,-171.8 1548.48,-172.41 1546.55,-165.68"/>
</g>
<!-- Node7 -->
<g id="node7" class="node">
<title>Node7</title>
<g id="a_node7"><a xlink:href="_app_demo_load_8cpp.html" target="_top" xlink:title=" ">
<polygon fill="white" stroke="black" points="2009.38,-57.5 2009.38,-77.5 2108.62,-77.5 2108.62,-57.5 2009.38,-57.5"/>
<text text-anchor="middle" x="2059" y="-64" font-family="Arial" font-size="10.00">AppDemoLoad.cpp</text>
</a>
</g>
</g>
<!-- Node5&#45;&gt;Node7 -->
<g id="edge7" class="edge">
<title>Node5&#45;&gt;Node7</title>
<path fill="none" stroke="midnightblue" d="M1547.1,-172.12C1583.99,-164.24 1638.78,-151.24 1685,-135 1706.2,-127.55 1709.4,-120.22 1731,-114 1847.33,-80.5 1881.25,-95.79 2001,-78 2003.83,-77.58 2006.73,-77.14 2009.65,-76.69"/>
<polygon fill="midnightblue" stroke="midnightblue" points="1546.79,-168.81 1537.73,-174.3 1548.23,-175.66 1546.79,-168.81"/>
</g>
<!-- Node8 -->
<g id="node8" class="node">
<title>Node8</title>
<g id="a_node8"><a xlink:href="_app_demo_main_g_l_f_w_8cpp.html" target="_top" xlink:title=" ">
<polygon fill="white" stroke="black" points="722.5,-0.5 722.5,-20.5 849.5,-20.5 849.5,-0.5 722.5,-0.5"/>
<text text-anchor="middle" x="786" y="-7" font-family="Arial" font-size="10.00">AppDemoMainGLFW.cpp</text>
</a>
</g>
</g>
<!-- Node5&#45;&gt;Node8 -->
<g id="edge8" class="edge">
<title>Node5&#45;&gt;Node8</title>
<path fill="none" stroke="midnightblue" d="M1462.34,-179.92C1267.91,-177.11 470.56,-163.93 363,-135 310.59,-120.9 283.03,-124.48 255,-78 250.18,-70.01 248.69,-63.88 255,-57 286.07,-23.15 588.58,-14.44 722.62,-12.23"/>
<polygon fill="midnightblue" stroke="midnightblue" points="1462.18,-183.43 1472.23,-180.07 1462.28,-176.43 1462.18,-183.43"/>
</g>
<!-- Node9 -->
<g id="node9" class="node">
<title>Node9</title>
<g id="a_node9"><a xlink:href="_app_demo_video_8cpp.html" target="_top" xlink:title=" ">
<polygon fill="white" stroke="black" points="1818.5,-0.5 1818.5,-20.5 1921.5,-20.5 1921.5,-0.5 1818.5,-0.5"/>
<text text-anchor="middle" x="1870" y="-7" font-family="Arial" font-size="10.00">AppDemoVideo.cpp</text>
</a>
</g>
</g>
<!-- Node5&#45;&gt;Node9 -->
<g id="edge9" class="edge">
<title>Node5&#45;&gt;Node9</title>
<path fill="none" stroke="midnightblue" d="M1547.64,-178.69C1605.73,-175.16 1712.32,-164.84 1798,-135 1815.86,-128.78 1816.9,-119.48 1835,-114 1888.2,-97.88 2296.13,-118.7 2334,-78 2391.31,-16.41 2053.41,-10.93 1921.27,-11.1"/>
<polygon fill="midnightblue" stroke="midnightblue" points="1547.48,-175.25 1537.69,-179.31 1547.87,-182.24 1547.48,-175.25"/>
</g>
<!-- Node10 -->
<g id="node10" class="node">
<title>Node10</title>
<g id="a_node10"><a xlink:href="_s_l_a_a_b_box_8cpp.html" target="_top" xlink:title=" ">
<polygon fill="white" stroke="black" points="1886.88,-114.5 1886.88,-134.5 1971.12,-134.5 1971.12,-114.5 1886.88,-114.5"/>
<text text-anchor="middle" x="1929" y="-121" font-family="Arial" font-size="10.00">SLAABBox.cpp</text>
</a>
</g>
</g>
<!-- Node5&#45;&gt;Node10 -->
<g id="edge10" class="edge">
<title>Node5&#45;&gt;Node10</title>
<path fill="none" stroke="midnightblue" d="M1547.34,-175.89C1615.88,-168.29 1755.34,-152.24 1873,-135 1877.59,-134.33 1882.38,-133.58 1887.14,-132.81"/>
<polygon fill="midnightblue" stroke="midnightblue" points="1547.12,-172.51 1537.57,-177.08 1547.89,-179.46 1547.12,-172.51"/>
</g>
<!-- Node11 -->
<g id="node11" class="node">
<title>Node11</title>
<g id="a_node11"><a xlink:href="_s_l_anim_manager_8cpp.html" target="_top" xlink:title=" ">
<polygon fill="white" stroke="black" points="1989.62,-114.5 1989.62,-134.5 2096.38,-134.5 2096.38,-114.5 1989.62,-114.5"/>
<text text-anchor="middle" x="2043" y="-121" font-family="Arial" font-size="10.00">SLAnimManager.cpp</text>
</a>
</g>
</g>
<!-- Node5&#45;&gt;Node11 -->
<g id="edge11" class="edge">
<title>Node5&#45;&gt;Node11</title>
<path fill="none" stroke="midnightblue" d="M1547.53,-177.2C1630.74,-170.58 1820.82,-154.61 1980,-135 1983.18,-134.61 1986.45,-134.18 1989.75,-133.74"/>
<polygon fill="midnightblue" stroke="midnightblue" points="1547.44,-173.78 1537.75,-178.06 1548,-180.76 1547.44,-173.78"/>
</g>
<!-- Node12 -->
<g id="node12" class="node">
<title>Node12</title>
<g id="a_node12"><a xlink:href="_s_l_anim_skeleton_8cpp.html" target="_top" xlink:title=" ">
<polygon fill="white" stroke="black" points="2381.25,-57.5 2381.25,-77.5 2488.75,-77.5 2488.75,-57.5 2381.25,-57.5"/>
<text text-anchor="middle" x="2435" y="-64" font-family="Arial" font-size="10.00">SLAnimSkeleton.cpp</text>
</a>
</g>
</g>
<!-- Node5&#45;&gt;Node12 -->
<g id="edge12" class="edge">
<title>Node5&#45;&gt;Node12</title>
<path fill="none" stroke="midnightblue" d="M1547.46,-178.93C1611.19,-175.63 1734.79,-165.52 1835,-135 1855.35,-128.8 1857.47,-119.55 1878,-114 2088.38,-57.16 2150.31,-101.09 2367,-78 2371.74,-77.49 2376.66,-76.92 2381.59,-76.3"/>
<polygon fill="midnightblue" stroke="midnightblue" points="1547.46,-175.48 1537.65,-179.46 1547.8,-182.47 1547.46,-175.48"/>
</g>
<!-- Node13 -->
<g id="node13" class="node">
<title>Node13</title>
<g id="a_node13"><a xlink:href="_s_l_animation_8cpp.html" target="_top" xlink:title=" ">
<polygon fill="white" stroke="black" points="2114.88,-114.5 2114.88,-134.5 2205.12,-134.5 2205.12,-114.5 2114.88,-114.5"/>
<text text-anchor="middle" x="2160" y="-121" font-family="Arial" font-size="10.00">SLAnimation.cpp</text>
</a>
</g>
</g>
<!-- Node5&#45;&gt;Node13 -->
<g id="edge13" class="edge">
<title>Node5&#45;&gt;Node13</title>
<path fill="none" stroke="midnightblue" d="M1547.68,-178.66C1646.17,-174.12 1896.87,-160.81 2105,-135 2108.27,-134.59 2111.64,-134.13 2115.03,-133.63"/>
<polygon fill="midnightblue" stroke="midnightblue" points="1547.81,-175.2 1537.98,-179.15 1548.13,-182.19 1547.81,-175.2"/>
</g>
<!-- Node14 -->
<g id="node14" class="node">
<title>Node14</title>
<g id="a_node14"><a xlink:href="_s_l_background_8cpp.html" target="_top" xlink:title=" ">
<polygon fill="white" stroke="black" points="371.75,-114.5 371.75,-134.5 470.25,-134.5 470.25,-114.5 371.75,-114.5"/>
<text text-anchor="middle" x="421" y="-121" font-family="Arial" font-size="10.00">SLBackground.cpp</text>
</a>
</g>
</g>
<!-- Node5&#45;&gt;Node14 -->
<g id="edge14" class="edge">
<title>Node5&#45;&gt;Node14</title>
<path fill="none" stroke="midnightblue" d="M1462.3,-180.36C1321.55,-179.54 859.56,-173.85 480,-135 476.8,-134.67 473.51,-134.29 470.2,-133.86"/>
<polygon fill="midnightblue" stroke="midnightblue" points="1462,-183.87 1472.02,-180.42 1462.04,-176.87 1462,-183.87"/>
</g>
<!-- Node15 -->
<g id="node15" class="node">
<title>Node15</title>
<g id="a_node15"><a xlink:href="_s_l_curve_bezier_8cpp.html" target="_top" xlink:title=" ">
<polygon fill="white" stroke="black" points="488.62,-114.5 488.62,-134.5 589.38,-134.5 589.38,-114.5 488.62,-114.5"/>
<text text-anchor="middle" x="539" y="-121" font-family="Arial" font-size="10.00">SLCurveBezier.cpp</text>
</a>
</g>
</g>
<!-- Node5&#45;&gt;Node15 -->
<g id="edge15" class="edge">
<title>Node5&#45;&gt;Node15</title>
<path fill="none" stroke="midnightblue" d="M1462.39,-179.82C1332.91,-177.43 932.8,-167.72 603,-135 598.53,-134.56 593.89,-134.02 589.25,-133.43"/>
<polygon fill="midnightblue" stroke="midnightblue" points="1462.3,-183.33 1472.36,-180.01 1462.43,-176.33 1462.3,-183.33"/>
</g>
<!-- Node16 -->
<g id="node16" class="node">
<title>Node16</title>
<g id="a_node16"><a xlink:href="_s_l_g_l_im_gui_8cpp.html" target="_top" xlink:title=" ">
<polygon fill="white" stroke="black" points="2127.12,-57.5 2127.12,-77.5 2212.88,-77.5 2212.88,-57.5 2127.12,-57.5"/>
<text text-anchor="middle" x="2170" y="-64" font-family="Arial" font-size="10.00">SLGLImGui.cpp</text>
</a>
</g>
</g>
<!-- Node5&#45;&gt;Node16 -->
<g id="edge16" class="edge">
<title>Node5&#45;&gt;Node16</title>
<path fill="none" stroke="midnightblue" d="M1547.47,-174.35C1591.72,-167.31 1662.76,-154.2 1722,-135 1743.76,-127.95 1746.9,-119.91 1769,-114 1919.63,-73.69 1963.63,-100.03 2118,-78 2121,-77.57 2124.09,-77.1 2127.19,-76.59"/>
<polygon fill="midnightblue" stroke="midnightblue" points="1547.16,-171.01 1537.81,-176.01 1548.23,-177.93 1547.16,-171.01"/>
</g>
<!-- Node17 -->
<g id="node17" class="node">
<title>Node17</title>
<g id="a_node17"><a xlink:href="_s_l_g_l_o_v_r_workaround_8h.html" target="_top" xlink:title=" ">
<polygon fill="white" stroke="black" points="2346.12,-114.5 2346.12,-134.5 2467.88,-134.5 2467.88,-114.5 2346.12,-114.5"/>
<text text-anchor="middle" x="2407" y="-121" font-family="Arial" font-size="10.00">SLGLOVRWorkaround.h</text>
</a>
</g>
</g>
<!-- Node5&#45;&gt;Node17 -->
<g id="edge17" class="edge">
<title>Node5&#45;&gt;Node17</title>
<path fill="none" stroke="midnightblue" d="M1547.56,-177.9C1693.68,-168.99 2175.24,-139.63 2346.16,-129.21"/>
<polygon fill="midnightblue" stroke="midnightblue" points="1547.61,-174.46 1537.84,-178.56 1548.03,-181.44 1547.61,-174.46"/>
</g>
<!-- Node19 -->
<g id="node19" class="node">
<title>Node19</title>
<g id="a_node19"><a xlink:href="_s_l_g_l_oculus_f_b_8cpp.html" target="_top" xlink:title=" ">
<polygon fill="white" stroke="black" points="683.5,-114.5 683.5,-134.5 786.5,-134.5 786.5,-114.5 683.5,-114.5"/>
<text text-anchor="middle" x="735" y="-121" font-family="Arial" font-size="10.00">SLGLOculusFB.cpp</text>
</a>
</g>
</g>
<!-- Node5&#45;&gt;Node19 -->
<g id="edge19" class="edge">
<title>Node5&#45;&gt;Node19</title>
<path fill="none" stroke="midnightblue" d="M1462.44,-179.11C1352.11,-175.22 1047.89,-162.64 796,-135 792.8,-134.65 789.52,-134.25 786.21,-133.82"/>
<polygon fill="midnightblue" stroke="midnightblue" points="1462,-182.63 1472.11,-179.48 1462.24,-175.64 1462,-182.63"/>
</g>
<!-- Node20 -->
<g id="node20" class="node">
<title>Node20</title>
<g id="a_node20"><a xlink:href="_s_l_g_l_program_8cpp.html" target="_top" xlink:title=" ">
<polygon fill="white" stroke="black" points="804.88,-114.5 804.88,-134.5 901.12,-134.5 901.12,-114.5 804.88,-114.5"/>
<text text-anchor="middle" x="853" y="-121" font-family="Arial" font-size="10.00">SLGLProgram.cpp</text>
</a>
</g>
</g>
<!-- Node5&#45;&gt;Node20 -->
<g id="edge20" class="edge">
<title>Node5&#45;&gt;Node20</title>
<path fill="none" stroke="midnightblue" d="M1462.39,-178.54C1364.53,-173.77 1116.27,-160.03 910,-135 907.01,-134.64 903.94,-134.23 900.85,-133.79"/>
<polygon fill="midnightblue" stroke="midnightblue" points="1462.14,-182.08 1472.3,-179.07 1462.48,-175.09 1462.14,-182.08"/>
</g>
<!-- Node21 -->
<g id="node21" class="node">
<title>Node21</title>
<g id="a_node21"><a xlink:href="_s_l_g_l_texture_8cpp.html" target="_top" xlink:title=" ">
<polygon fill="white" stroke="black" points="919.5,-114.5 919.5,-134.5 1010.5,-134.5 1010.5,-114.5 919.5,-114.5"/>
<text text-anchor="middle" x="965" y="-121" font-family="Arial" font-size="10.00">SLGLTexture.cpp</text>
</a>
</g>
</g>
<!-- Node5&#45;&gt;Node21 -->
<g id="edge21" class="edge">
<title>Node5&#45;&gt;Node21</title>
<path fill="none" stroke="midnightblue" d="M1462.16,-177.6C1377.46,-171.62 1182.7,-156.65 1020,-135 1016.83,-134.58 1013.56,-134.11 1010.28,-133.61"/>
<polygon fill="midnightblue" stroke="midnightblue" points="1461.91,-181.16 1472.13,-178.37 1462.39,-174.18 1461.91,-181.16"/>
</g>
<!-- Node22 -->
<g id="node22" class="node">
<title>Node22</title>
<g id="a_node22"><a xlink:href="_s_l_g_l_texture_i_b_l_8cpp.html" target="_top" xlink:title=" ">
<polygon fill="white" stroke="black" points="1029,-114.5 1029,-134.5 1135,-134.5 1135,-114.5 1029,-114.5"/>
<text text-anchor="middle" x="1082" y="-121" font-family="Arial" font-size="10.00">SLGLTextureIBL.cpp</text>
</a>
</g>
</g>
<!-- Node5&#45;&gt;Node22 -->
<g id="edge22" class="edge">
<title>Node5&#45;&gt;Node22</title>
<path fill="none" stroke="midnightblue" d="M1462.46,-175.51C1394.9,-167.5 1258.97,-151.05 1144,-135 1140.98,-134.58 1137.88,-134.14 1134.75,-133.68"/>
<polygon fill="midnightblue" stroke="midnightblue" points="1461.75,-179.07 1472.09,-176.77 1462.57,-172.12 1461.75,-179.07"/>
</g>
<!-- Node23 -->
<g id="node23" class="node">
<title>Node23</title>
<g id="a_node23"><a xlink:href="_s_l_g_l_vertex_array_8cpp.html" target="_top" xlink:title=" ">
<polygon fill="white" stroke="black" points="1153.5,-114.5 1153.5,-134.5 1262.5,-134.5 1262.5,-114.5 1153.5,-114.5"/>
<text text-anchor="middle" x="1208" y="-121" font-family="Arial" font-size="10.00">SLGLVertexArray.cpp</text>
</a>
</g>
</g>
<!-- Node5&#45;&gt;Node23 -->
<g id="edge23" class="edge">
<title>Node5&#45;&gt;Node23</title>
<path fill="none" stroke="midnightblue" d="M1462.54,-172.64C1408.04,-162.54 1313.69,-145.07 1256.44,-134.47"/>
<polygon fill="midnightblue" stroke="midnightblue" points="1461.75,-176.23 1472.22,-174.61 1463.02,-169.35 1461.75,-176.23"/>
</g>
<!-- Node24 -->
<g id="node24" class="node">
<title>Node24</title>
<g id="a_node24"><a xlink:href="_s_l_light_direct_8cpp.html" target="_top" xlink:title=" ">
<polygon fill="white" stroke="black" points="2231,-57.5 2231,-77.5 2325,-77.5 2325,-57.5 2231,-57.5"/>
<text text-anchor="middle" x="2278" y="-64" font-family="Arial" font-size="10.00">SLLightDirect.cpp</text>
</a>
</g>
</g>
<!-- Node5&#45;&gt;Node24 -->
<g id="edge24" class="edge">
<title>Node5&#45;&gt;Node24</title>
<path fill="none" stroke="midnightblue" d="M1547.66,-176.11C1598.92,-170.1 1687.12,-157.42 1760,-135 1781.87,-128.27 1784.85,-119.73 1807,-114 1986.23,-67.59 2038.36,-101.5 2222,-78 2225.03,-77.61 2228.15,-77.18 2231.29,-76.72"/>
<polygon fill="midnightblue" stroke="midnightblue" points="1547.53,-172.71 1537.99,-177.32 1548.33,-179.67 1547.53,-172.71"/>
</g>
<!-- Node25 -->
<g id="node25" class="node">
<title>Node25</title>
<g id="a_node25"><a xlink:href="_s_l_light_rect_8cpp.html" target="_top" xlink:title=" ">
<polygon fill="white" stroke="black" points="263.62,-57.5 263.62,-77.5 352.38,-77.5 352.38,-57.5 263.62,-57.5"/>
<text text-anchor="middle" x="308" y="-64" font-family="Arial" font-size="10.00">SLLightRect.cpp</text>
</a>
</g>
</g>
<!-- Node5&#45;&gt;Node25 -->
<g id="edge25" class="edge">
<title>Node5&#45;&gt;Node25</title>
<path fill="none" stroke="midnightblue" d="M1462.61,-179.56C1298.57,-175.75 710.58,-160.44 631,-135 614.44,-129.71 614.28,-120.1 598,-114 498.24,-76.59 466.11,-95.4 361,-78 358.14,-77.53 355.2,-77.03 352.23,-76.52"/>
<polygon fill="midnightblue" stroke="midnightblue" points="1462.16,-183.07 1472.24,-179.8 1462.32,-176.08 1462.16,-183.07"/>
</g>
<!-- Node26 -->
<g id="node26" class="node">
<title>Node26</title>
<g id="a_node26"><a xlink:href="_s_l_light_spot_8cpp.html" target="_top" xlink:title=" ">
<polygon fill="white" stroke="black" points="370,-57.5 370,-77.5 458,-77.5 458,-57.5 370,-57.5"/>
<text text-anchor="middle" x="414" y="-64" font-family="Arial" font-size="10.00">SLLightSpot.cpp</text>
</a>
</g>
</g>
<!-- Node5&#45;&gt;Node26 -->
<g id="edge26" class="edge">
<title>Node5&#45;&gt;Node26</title>
<path fill="none" stroke="midnightblue" d="M1462.28,-180.4C1314.44,-179.69 825.27,-174.35 674,-135 653.42,-129.65 651.12,-120.9 631,-114 599.51,-103.2 511.48,-86.21 457.71,-76.34"/>
<polygon fill="midnightblue" stroke="midnightblue" points="1462.12,-183.9 1472.13,-180.44 1462.15,-176.9 1462.12,-183.9"/>
</g>
<!-- Node5&#45;&gt;Node27 -->
<g id="edge27" class="edge">
<title>Node5&#45;&gt;Node27</title>
<path fill="none" stroke="midnightblue" d="M1547.64,-179.75C1658.15,-177.39 1962.77,-168.12 2214,-135 2270.81,-127.51 2434.8,-92.08 2507.08,-76.22"/>
<polygon fill="midnightblue" stroke="midnightblue" points="1547.87,-176.27 1537.95,-179.97 1548.02,-183.27 1547.87,-176.27"/>
</g>
<!-- Node28 -->
<g id="node28" class="node">
<title>Node28</title>
<g id="a_node28"><a xlink:href="_s_l_scene_8cpp.html" target="_top" xlink:title=" ">
<polygon fill="white" stroke="black" points="1280.75,-114.5 1280.75,-134.5 1355.25,-134.5 1355.25,-114.5 1280.75,-114.5"/>
<text text-anchor="middle" x="1318" y="-121" font-family="Arial" font-size="10.00">SLScene.cpp</text>
</a>
</g>
</g>
<!-- Node5&#45;&gt;Node28 -->
<g id="edge28" class="edge">
<title>Node5&#45;&gt;Node28</title>
<path fill="none" stroke="midnightblue" d="M1464.22,-168.51C1429.35,-158.25 1379.96,-143.72 1348.45,-134.46"/>
<polygon fill="midnightblue" stroke="midnightblue" points="1462.96,-172.08 1473.54,-171.54 1464.93,-165.36 1462.96,-172.08"/>
</g>
<!-- Node29 -->
<g id="node29" class="node">
<title>Node29</title>
<g id="a_node29"><a xlink:href="_s_l_scene_view_8h.html" target="_top" xlink:title=" ">
<polygon fill="white" stroke="red" points="1555.5,-114.5 1555.5,-134.5 1640.5,-134.5 1640.5,-114.5 1555.5,-114.5"/>
<text text-anchor="middle" x="1598" y="-121" font-family="Arial" font-size="10.00">SLSceneView.h</text>
</a>
</g>
</g>
<!-- Node5&#45;&gt;Node29 -->
<g id="edge29" class="edge">
<title>Node5&#45;&gt;Node29</title>
<path fill="none" stroke="midnightblue" d="M1529.22,-166.17C1546.16,-156.16 1568.27,-143.08 1582.79,-134.5"/>
<polygon fill="midnightblue" stroke="midnightblue" points="1527.77,-163.56 1520.94,-171.66 1531.33,-169.59 1527.77,-163.56"/>
</g>
<!-- Node48 -->
<g id="node43" class="node">
<title>Node48</title>
<g id="a_node43"><a xlink:href="_s_l_tex_font_8cpp.html" target="_top" xlink:title=" ">
<polygon fill="white" stroke="black" points="1373.38,-114.5 1373.38,-134.5 1454.62,-134.5 1454.62,-114.5 1373.38,-114.5"/>
<text text-anchor="middle" x="1414" y="-121" font-family="Arial" font-size="10.00">SLTexFont.cpp</text>
</a>
</g>
</g>
<!-- Node5&#45;&gt;Node48 -->
<g id="edge56" class="edge">
<title>Node5&#45;&gt;Node48</title>
<path fill="none" stroke="midnightblue" d="M1481.3,-166.17C1464.72,-156.16 1443.09,-143.08 1428.89,-134.5"/>
<polygon fill="midnightblue" stroke="midnightblue" points="1479.01,-169.49 1489.38,-171.66 1482.63,-163.5 1479.01,-169.49"/>
</g>
<!-- Node49 -->
<g id="node44" class="node">
<title>Node49</title>
<g id="a_node44"><a xlink:href="_s_l_text_8cpp.html" target="_top" xlink:title=" ">
<polygon fill="white" stroke="black" points="1472.62,-114.5 1472.62,-134.5 1537.38,-134.5 1537.38,-114.5 1472.62,-114.5"/>
<text text-anchor="middle" x="1505" y="-121" font-family="Arial" font-size="10.00">SLText.cpp</text>
</a>
</g>
</g>
<!-- Node5&#45;&gt;Node49 -->
<g id="edge57" class="edge">
<title>Node5&#45;&gt;Node49</title>
<path fill="none" stroke="midnightblue" d="M1505,-161C1505,-151.85 1505,-141.39 1505,-134.21"/>
<polygon fill="midnightblue" stroke="midnightblue" points="1501.5,-160.91 1505,-170.91 1508.5,-160.91 1501.5,-160.91"/>
</g>
<!-- Node18 -->
<g id="node18" class="node">
<title>Node18</title>
<g id="a_node18"><a xlink:href="_s_l_g_l_oculus_8cpp.html" target="_top" xlink:title=" ">
<polygon fill="white" stroke="black" points="2594.88,-57.5 2594.88,-77.5 2685.12,-77.5 2685.12,-57.5 2594.88,-57.5"/>
<text text-anchor="middle" x="2640" y="-64" font-family="Arial" font-size="10.00">SLGLOculus.cpp</text>
</a>
</g>
</g>
<!-- Node17&#45;&gt;Node18 -->
<g id="edge18" class="edge">
<title>Node17&#45;&gt;Node18</title>
<path fill="none" stroke="midnightblue" d="M2455.58,-112.03C2499.13,-101.75 2562.13,-86.88 2602.06,-77.46"/>
<polygon fill="midnightblue" stroke="midnightblue" points="2454.88,-108.84 2445.95,-114.54 2456.49,-115.65 2454.88,-108.84"/>
</g>
<!-- Node29&#45;&gt;Node2 -->
<g id="edge38" class="edge">
<title>Node29&#45;&gt;Node2</title>
<path fill="none" stroke="midnightblue" d="M1544.65,-114.07C905.97,-49.18 737.96,-139.46 103,-78 100.06,-77.71 97.03,-77.37 93.99,-76.97"/>
<polygon fill="midnightblue" stroke="midnightblue" points="1544.21,-117.64 1554.51,-115.18 1544.92,-110.68 1544.21,-117.64"/>
</g>
<!-- Node29&#45;&gt;Node6 -->
<g id="edge30" class="edge">
<title>Node29&#45;&gt;Node6</title>
<path fill="none" stroke="midnightblue" d="M1650.94,-114.66C1652.31,-114.44 1653.66,-114.22 1655,-114 1700.97,-106.56 1829.09,-86.56 1898.65,-75.72"/>
<polygon fill="midnightblue" stroke="midnightblue" points="1650.63,-111.33 1641.33,-116.4 1651.76,-118.24 1650.63,-111.33"/>
</g>
<!-- Node29&#45;&gt;Node7 -->
<g id="edge31" class="edge">
<title>Node29&#45;&gt;Node7</title>
<path fill="none" stroke="midnightblue" d="M1651.3,-117.82C1744.8,-107.79 1934.73,-87.16 2001,-78 2003.83,-77.61 2006.73,-77.19 2009.66,-76.75"/>
<polygon fill="midnightblue" stroke="midnightblue" points="1650.96,-114.44 1641.39,-118.99 1651.7,-121.4 1650.96,-114.44"/>
</g>
<!-- Node29&#45;&gt;Node8 -->
<g id="edge32" class="edge">
<title>Node29&#45;&gt;Node8</title>
<path fill="none" stroke="midnightblue" d="M1544.77,-114.31C1425.21,-106.13 867.44,-127.52 805,-78 787.31,-63.97 785.36,-34.68 785.57,-20.11"/>
<polygon fill="midnightblue" stroke="midnightblue" points="1544.23,-117.87 1554.5,-115.26 1544.85,-110.89 1544.23,-117.87"/>
</g>
<!-- Node29&#45;&gt;Node9 -->
<g id="edge36" class="edge">
<title>Node29&#45;&gt;Node9</title>
<path fill="none" stroke="midnightblue" d="M1650.7,-114.38C1724.29,-101.59 1849.13,-79.69 1851,-78 1867.56,-63.02 1870.09,-34.7 1870.23,-20.34"/>
<polygon fill="midnightblue" stroke="midnightblue" points="1650.49,-111.03 1641.23,-116.19 1651.68,-117.93 1650.49,-111.03"/>
</g>
<!-- Node29&#45;&gt;Node12 -->
<g id="edge37" class="edge">
<title>Node29&#45;&gt;Node12</title>
<path fill="none" stroke="midnightblue" d="M1651.15,-120.8C1772.34,-114.51 2078.41,-97.92 2334,-78 2349.36,-76.8 2366.02,-75.31 2381.3,-73.87"/>
<polygon fill="midnightblue" stroke="midnightblue" points="1651.15,-117.35 1641.35,-121.36 1651.52,-124.34 1651.15,-117.35"/>
</g>
<!-- Node29&#45;&gt;Node16 -->
<g id="edge40" class="edge">
<title>Node29&#45;&gt;Node16</title>
<path fill="none" stroke="midnightblue" d="M1651.19,-119.48C1764.96,-110.78 2028.8,-90.02 2118,-78 2121,-77.6 2124.09,-77.14 2127.2,-76.65"/>
<polygon fill="midnightblue" stroke="midnightblue" points="1651.04,-116.06 1641.34,-120.31 1651.58,-123.04 1651.04,-116.06"/>
</g>
<!-- Node29&#45;&gt;Node24 -->
<g id="edge43" class="edge">
<title>Node29&#45;&gt;Node24</title>
<path fill="none" stroke="midnightblue" d="M1651.06,-120.28C1780.9,-112.31 2111.98,-91.31 2222,-78 2225.03,-77.63 2228.16,-77.22 2231.3,-76.76"/>
<polygon fill="midnightblue" stroke="midnightblue" points="1651,-116.84 1641.23,-120.95 1651.43,-123.83 1651,-116.84"/>
</g>
<!-- Node29&#45;&gt;Node25 -->
<g id="edge44" class="edge">
<title>Node29&#45;&gt;Node25</title>
<path fill="none" stroke="midnightblue" d="M1544.62,-114.06C1020.13,-59.5 881.49,-132.26 361,-78 358.12,-77.7 355.16,-77.33 352.18,-76.92"/>
<polygon fill="midnightblue" stroke="midnightblue" points="1544.2,-117.63 1554.51,-115.2 1544.93,-110.67 1544.2,-117.63"/>
</g>
<!-- Node29&#45;&gt;Node26 -->
<g id="edge45" class="edge">
<title>Node29&#45;&gt;Node26</title>
<path fill="none" stroke="midnightblue" d="M1544.87,-114.08C1067.08,-63.7 940.67,-128.09 467,-78 464.03,-77.69 460.97,-77.3 457.89,-76.87"/>
<polygon fill="midnightblue" stroke="midnightblue" points="1544.19,-117.63 1554.51,-115.21 1544.93,-110.67 1544.19,-117.63"/>
</g>
<!-- Node29&#45;&gt;Node27 -->
<g id="edge48" class="edge">
<title>Node29&#45;&gt;Node27</title>
<path fill="none" stroke="midnightblue" d="M1651.28,-121.31C1831.88,-113.82 2414.3,-89.08 2498,-78 2500.94,-77.61 2503.98,-77.13 2507.03,-76.59"/>
<polygon fill="midnightblue" stroke="midnightblue" points="1651.32,-117.85 1641.47,-121.76 1651.61,-124.84 1651.32,-117.85"/>
</g>
<!-- Node30 -->
<g id="node30" class="node">
<title>Node30</title>
<g id="a_node30"><a xlink:href="_app_demo_scene_view_8h.html" target="_top" xlink:title=" ">
<polygon fill="white" stroke="red" points="1155.75,-57.5 1155.75,-77.5 1272.25,-77.5 1272.25,-57.5 1155.75,-57.5"/>
<text text-anchor="middle" x="1214" y="-64" font-family="Arial" font-size="10.00">AppDemoSceneView.h</text>
</a>
</g>
</g>
<!-- Node29&#45;&gt;Node30 -->
<g id="edge33" class="edge">
<title>Node29&#45;&gt;Node30</title>
<path fill="none" stroke="midnightblue" d="M1545.17,-113.93C1426.86,-95.25 1395.4,-93.88 1281,-78 1278.09,-77.6 1275.11,-77.18 1272.1,-76.76"/>
<polygon fill="midnightblue" stroke="midnightblue" points="1544.32,-117.5 1554.74,-115.61 1545.42,-110.59 1544.32,-117.5"/>
</g>
<!-- Node32 -->
<g id="node31" class="node">
<title>Node32</title>
<g id="a_node31"><a xlink:href="_s_l_camera_8cpp.html" target="_top" xlink:title=" ">
<polygon fill="white" stroke="black" points="932.38,-57.5 932.38,-77.5 1013.62,-77.5 1013.62,-57.5 932.38,-57.5"/>
<text text-anchor="middle" x="973" y="-64" font-family="Arial" font-size="10.00">SLCamera.cpp</text>
</a>
</g>
</g>
<!-- Node29&#45;&gt;Node32 -->
<g id="edge39" class="edge">
<title>Node29&#45;&gt;Node32</title>
<path fill="none" stroke="midnightblue" d="M1544.96,-114.03C1312.94,-85.7 1250.58,-107.35 1023,-78 1019.93,-77.6 1016.77,-77.14 1013.59,-76.63"/>
<polygon fill="midnightblue" stroke="midnightblue" points="1544.42,-117.62 1554.78,-115.38 1545.28,-110.67 1544.42,-117.62"/>
</g>
<!-- Node33 -->
<g id="node32" class="node">
<title>Node33</title>
<g id="a_node32"><a xlink:href="_s_l_input_manager_8cpp.html" target="_top" xlink:title=" ">
<polygon fill="white" stroke="black" points="1032,-57.5 1032,-77.5 1138,-77.5 1138,-57.5 1032,-57.5"/>
<text text-anchor="middle" x="1085" y="-64" font-family="Arial" font-size="10.00">SLInputManager.cpp</text>
</a>
</g>
</g>
<!-- Node29&#45;&gt;Node33 -->
<g id="edge41" class="edge">
<title>Node29&#45;&gt;Node33</title>
<path fill="none" stroke="midnightblue" d="M1545.01,-114C1367.73,-90.34 1320.3,-99.07 1147,-78 1143.97,-77.63 1140.87,-77.23 1137.73,-76.81"/>
<polygon fill="midnightblue" stroke="midnightblue" points="1544.39,-117.58 1554.77,-115.45 1545.32,-110.65 1544.39,-117.58"/>
</g>
<!-- Node34 -->
<g id="node33" class="node">
<title>Node34</title>
<g id="a_node33"><a xlink:href="_s_l_keyframe_camera_8cpp.html" target="_top" xlink:title=" ">
<polygon fill="white" stroke="black" points="1290.38,-57.5 1290.38,-77.5 1413.62,-77.5 1413.62,-57.5 1290.38,-57.5"/>
<text text-anchor="middle" x="1352" y="-64" font-family="Arial" font-size="10.00">SLKeyframeCamera.cpp</text>
</a>
</g>
</g>
<!-- Node29&#45;&gt;Node34 -->
<g id="edge42" class="edge">
<title>Node29&#45;&gt;Node34</title>
<path fill="none" stroke="midnightblue" d="M1547.29,-112.16C1501.3,-101.88 1434.4,-86.92 1392.05,-77.46"/>
<polygon fill="midnightblue" stroke="midnightblue" points="1546.41,-115.77 1556.93,-114.54 1547.93,-108.94 1546.41,-115.77"/>
</g>
<!-- Node35 -->
<g id="node34" class="node">
<title>Node35</title>
<g id="a_node34"><a xlink:href="_s_l_material_8cpp.html" target="_top" xlink:title=" ">
<polygon fill="white" stroke="black" points="1431.38,-57.5 1431.38,-77.5 1512.62,-77.5 1512.62,-57.5 1431.38,-57.5"/>
<text text-anchor="middle" x="1472" y="-64" font-family="Arial" font-size="10.00">SLMaterial.cpp</text>
</a>
</g>
</g>
<!-- Node29&#45;&gt;Node35 -->
<g id="edge46" class="edge">
<title>Node29&#45;&gt;Node35</title>
<path fill="none" stroke="midnightblue" d="M1567.43,-110.16C1544.18,-100.01 1512.83,-86.32 1492.52,-77.46"/>
<polygon fill="midnightblue" stroke="midnightblue" points="1565.91,-113.75 1576.48,-114.54 1568.71,-107.33 1565.91,-113.75"/>
</g>
<!-- Node36 -->
<g id="node35" class="node">
<title>Node36</title>
<g id="a_node35"><a xlink:href="_s_l_mesh_8cpp.html" target="_top" xlink:title=" ">
<polygon fill="white" stroke="black" points="1530.62,-57.5 1530.62,-77.5 1601.38,-77.5 1601.38,-57.5 1530.62,-57.5"/>
<text text-anchor="middle" x="1566" y="-64" font-family="Arial" font-size="10.00">SLMesh.cpp</text>
</a>
</g>
</g>
<!-- Node29&#45;&gt;Node36 -->
<g id="edge47" class="edge">
<title>Node29&#45;&gt;Node36</title>
<path fill="none" stroke="midnightblue" d="M1587.55,-105.53C1582.02,-96.03 1575.48,-84.8 1571.07,-77.21"/>
<polygon fill="midnightblue" stroke="midnightblue" points="1584.95,-107.02 1593,-113.91 1591,-103.5 1584.95,-107.02"/>
</g>
<!-- Node37 -->
<g id="node36" class="node">
<title>Node37</title>
<g id="a_node36"><a xlink:href="_s_l_node_l_o_d_8cpp.html" target="_top" xlink:title=" ">
<polygon fill="white" stroke="black" points="1619.88,-57.5 1619.88,-77.5 1710.12,-77.5 1710.12,-57.5 1619.88,-57.5"/>
<text text-anchor="middle" x="1665" y="-64" font-family="Arial" font-size="10.00">SLNodeLOD.cpp</text>
</a>
</g>
</g>
<!-- Node29&#45;&gt;Node37 -->
<g id="edge49" class="edge">
<title>Node29&#45;&gt;Node37</title>
<path fill="none" stroke="midnightblue" d="M1617.19,-107.75C1629.13,-97.94 1644.07,-85.68 1654.04,-77.5"/>
<polygon fill="midnightblue" stroke="midnightblue" points="1615.27,-105.61 1609.76,-114.66 1619.71,-111.02 1615.27,-105.61"/>
</g>
<!-- Node38 -->
<g id="node37" class="node">
<title>Node38</title>
<g id="a_node37"><a xlink:href="_s_l_particle_system_8cpp.html" target="_top" xlink:title=" ">
<polygon fill="white" stroke="black" points="1728.25,-57.5 1728.25,-77.5 1841.75,-77.5 1841.75,-57.5 1728.25,-57.5"/>
<text text-anchor="middle" x="1785" y="-64" font-family="Arial" font-size="10.00">SLParticleSystem.cpp</text>
</a>
</g>
</g>
<!-- Node29&#45;&gt;Node38 -->
<g id="edge50" class="edge">
<title>Node29&#45;&gt;Node38</title>
<path fill="none" stroke="midnightblue" d="M1638.78,-111.51C1673.65,-101.25 1723.04,-86.72 1754.55,-77.46"/>
<polygon fill="midnightblue" stroke="midnightblue" points="1638.07,-108.36 1629.46,-114.54 1640.04,-115.08 1638.07,-108.36"/>
</g>
<!-- Node39 -->
<g id="node38" class="node">
<title>Node39</title>
<g id="a_node38"><a xlink:href="_s_l_pathtracer_8cpp.html" target="_top" xlink:title=" ">
<polygon fill="white" stroke="black" points="476.12,-57.5 476.12,-77.5 567.88,-77.5 567.88,-57.5 476.12,-57.5"/>
<text text-anchor="middle" x="522" y="-64" font-family="Arial" font-size="10.00">SLPathtracer.cpp</text>
</a>
</g>
</g>
<!-- Node29&#45;&gt;Node39 -->
<g id="edge51" class="edge">
<title>Node29&#45;&gt;Node39</title>
<path fill="none" stroke="midnightblue" d="M1544.67,-114.05C1115.71,-68.07 1002.07,-122.41 577,-78 574.01,-77.69 570.94,-77.31 567.85,-76.89"/>
<polygon fill="midnightblue" stroke="midnightblue" points="1544.19,-117.62 1554.51,-115.22 1544.94,-110.67 1544.19,-117.62"/>
</g>
<!-- Node40 -->
<g id="node39" class="node">
<title>Node40</title>
<g id="a_node39"><a xlink:href="_s_l_ray_8cpp.html" target="_top" xlink:title=" ">
<polygon fill="white" stroke="black" points="586,-57.5 586,-77.5 650,-77.5 650,-57.5 586,-57.5"/>
<text text-anchor="middle" x="618" y="-64" font-family="Arial" font-size="10.00">SLRay.cpp</text>
</a>
</g>
</g>
<!-- Node29&#45;&gt;Node40 -->
<g id="edge52" class="edge">
<title>Node29&#45;&gt;Node40</title>
<path fill="none" stroke="midnightblue" d="M1544.69,-114.05C1151.97,-71.52 1046.47,-130.28 659,-78 655.96,-77.59 652.81,-77.06 649.68,-76.46"/>
<polygon fill="midnightblue" stroke="midnightblue" points="1544.18,-117.62 1554.5,-115.24 1544.95,-110.66 1544.18,-117.62"/>
</g>
<!-- Node41 -->
<g id="node40" class="node">
<title>Node41</title>
<g id="a_node40"><a xlink:href="_s_l_raytracer_8cpp.html" target="_top" xlink:title=" ">
<polygon fill="white" stroke="black" points="668.25,-57.5 668.25,-77.5 757.75,-77.5 757.75,-57.5 668.25,-57.5"/>
<text text-anchor="middle" x="713" y="-64" font-family="Arial" font-size="10.00">SLRaytracer.cpp</text>
</a>
</g>
</g>
<!-- Node29&#45;&gt;Node41 -->
<g id="edge53" class="edge">
<title>Node29&#45;&gt;Node41</title>
<path fill="none" stroke="midnightblue" d="M1544.77,-114.04C1201.99,-75.75 1111.03,-113.07 772,-78 767.36,-77.52 762.52,-76.91 757.71,-76.24"/>
<polygon fill="midnightblue" stroke="midnightblue" points="1544.17,-117.61 1554.5,-115.26 1544.96,-110.65 1544.17,-117.61"/>
</g>
<!-- Node29&#45;&gt;Node42 -->
<g id="edge54" class="edge">
<title>Node29&#45;&gt;Node42</title>
<path fill="none" stroke="midnightblue" d="M1544.93,-114.09C973.3,-54.98 824.34,-114.36 255,-78 239.45,-77.01 222.51,-75.46 207.3,-73.91"/>
<polygon fill="midnightblue" stroke="midnightblue" points="1544.2,-117.64 1554.51,-115.19 1544.93,-110.67 1544.2,-117.64"/>
</g>
<!-- Node43 -->
<g id="node42" class="node">
<title>Node43</title>
<g id="a_node42"><a xlink:href="_s_l_shadow_map_8cpp.html" target="_top" xlink:title=" ">
<polygon fill="white" stroke="black" points="813.62,-57.5 813.62,-77.5 914.38,-77.5 914.38,-57.5 813.62,-57.5"/>
<text text-anchor="middle" x="864" y="-64" font-family="Arial" font-size="10.00">SLShadowMap.cpp</text>
</a>
</g>
</g>
<!-- Node29&#45;&gt;Node43 -->
<g id="edge55" class="edge">
<title>Node29&#45;&gt;Node43</title>
<path fill="none" stroke="midnightblue" d="M1545.02,-114.06C1268.76,-81.69 1195.21,-107.7 923,-78 920.11,-77.68 917.15,-77.33 914.16,-76.93"/>
<polygon fill="midnightblue" stroke="midnightblue" points="1544.44,-117.63 1554.78,-115.34 1545.26,-110.68 1544.44,-117.63"/>
</g>
<!-- Node30&#45;&gt;Node8 -->
<g id="edge34" class="edge">
<title>Node30&#45;&gt;Node8</title>
<path fill="none" stroke="midnightblue" d="M1145.27,-56.79C1035.22,-42.11 919.15,-27.72 849.29,-19.18"/>
<polygon fill="midnightblue" stroke="midnightblue" points="1144.53,-60.35 1154.9,-58.21 1145.45,-53.41 1144.53,-60.35"/>
</g>
<!-- Node30&#45;&gt;Node9 -->
<g id="edge35" class="edge">
<title>Node30&#45;&gt;Node9</title>
<path fill="none" stroke="midnightblue" d="M1282.73,-56.88C1487.36,-34.79 1718.02,-20.21 1818.69,-14.36"/>
<polygon fill="midnightblue" stroke="midnightblue" points="1282.64,-53.47 1273.08,-58.03 1283.4,-60.43 1282.64,-53.47"/>
</g>
<!-- Node51&#45;&gt;Node4 -->
<g id="edge61" class="edge">
<title>Node51&#45;&gt;Node4</title>
<path fill="none" stroke="midnightblue" d="M1665.49,-282.77C1627.41,-272.5 1572.89,-257.8 1538.22,-248.46"/>
<polygon fill="midnightblue" stroke="midnightblue" points="1664.2,-286.32 1674.77,-285.54 1666.03,-279.56 1664.2,-286.32"/>
</g>
<!-- Node51&#45;&gt;Node12 -->
<g id="edge62" class="edge">
<title>Node51&#45;&gt;Node12</title>
<path fill="none" stroke="midnightblue" d="M1748.18,-282.3C1878.19,-241.83 2293.45,-112.56 2406.4,-77.4"/>
<polygon fill="midnightblue" stroke="midnightblue" points="1747.42,-279.19 1738.91,-285.5 1749.5,-285.87 1747.42,-279.19"/>
</g>
<!-- Node52 -->
<g id="node47" class="node">
<title>Node52</title>
<g id="a_node47"><a xlink:href="_s_l_joint_8cpp.html" target="_top" xlink:title=" ">
<polygon fill="white" stroke="black" points="1675.12,-228.5 1675.12,-248.5 1742.88,-248.5 1742.88,-228.5 1675.12,-228.5"/>
<text text-anchor="middle" x="1709" y="-235" font-family="Arial" font-size="10.00">SLJoint.cpp</text>
</a>
</g>
</g>
<!-- Node51&#45;&gt;Node52 -->
<g id="edge63" class="edge">
<title>Node51&#45;&gt;Node52</title>
<path fill="none" stroke="midnightblue" d="M1709,-275C1709,-265.85 1709,-255.39 1709,-248.21"/>
<polygon fill="midnightblue" stroke="midnightblue" points="1705.5,-274.91 1709,-284.91 1712.5,-274.91 1705.5,-274.91"/>
</g>
<!-- Node54 -->
<g id="node49" class="node">
<title>Node54</title>
<g id="a_node49"><a xlink:href="_s_l_device_location_8cpp.html" target="_top" xlink:title=" ">
<polygon fill="white" stroke="black" points="2399.88,-228.5 2399.88,-248.5 2514.12,-248.5 2514.12,-228.5 2399.88,-228.5"/>
<text text-anchor="middle" x="2457" y="-235" font-family="Arial" font-size="10.00">SLDeviceLocation.cpp</text>
</a>
</g>
</g>
<!-- Node53&#45;&gt;Node54 -->
<g id="edge66" class="edge">
<title>Node53&#45;&gt;Node54</title>
<path fill="none" stroke="midnightblue" d="M2368.97,-280.88C2390.5,-270.76 2419.26,-257.24 2437.95,-248.46"/>
<polygon fill="midnightblue" stroke="midnightblue" points="2367.62,-278.12 2360.06,-285.54 2370.6,-284.45 2367.62,-278.12"/>
</g>
<!-- Node55 -->
<g id="node50" class="node">
<title>Node55</title>
<g id="a_node50"><a xlink:href="_s_l_importer_8cpp.html" target="_top" xlink:title=" ">
<polygon fill="white" stroke="black" points="2298.62,-228.5 2298.62,-248.5 2381.38,-248.5 2381.38,-228.5 2298.62,-228.5"/>
<text text-anchor="middle" x="2340" y="-235" font-family="Arial" font-size="10.00">SLImporter.cpp</text>
</a>
</g>
</g>
<!-- Node53&#45;&gt;Node55 -->
<g id="edge67" class="edge">
<title>Node53&#45;&gt;Node55</title>
<path fill="none" stroke="midnightblue" d="M2340,-275C2340,-265.85 2340,-255.39 2340,-248.21"/>
<polygon fill="midnightblue" stroke="midnightblue" points="2336.5,-274.91 2340,-284.91 2343.5,-274.91 2336.5,-274.91"/>
</g>
</g>
</svg>
