<?xml version="1.0" encoding="UTF-8" standalone="no"?>
<!DOCTYPE svg PUBLIC "-//W3C//DTD SVG 1.1//EN"
 "http://www.w3.org/Graphics/SVG/1.1/DTD/svg11.dtd">
<!-- Generated by graphviz version 8.0.5 (20230430.1635)
 -->
<!-- Title: SLText.h Pages: 1 -->
<svg width="400pt" height="86pt"
 viewBox="0.00 0.00 400.00 86.00" xmlns="http://www.w3.org/2000/svg" xmlns:xlink="http://www.w3.org/1999/xlink">
<g id="graph0" class="graph" transform="scale(1 1) rotate(0) translate(4 82)">
<title>SLText.h</title>
<polygon fill="white" stroke="none" points="-4,4 -4,-82 396,-82 396,4 -4,4"/>
<!-- Node1 -->
<g id="node1" class="node">
<title>Node1</title>
<g id="a_node1"><a xlink:title=" ">
<polygon fill="#bfbfbf" stroke="black" points="194.5,-57.5 194.5,-77.5 248.75,-77.5 248.75,-57.5 194.5,-57.5"/>
<text text-anchor="middle" x="221.62" y="-64" font-family="Arial" font-size="10.00">SLText.h</text>
</a>
</g>
</g>
<!-- Node2 -->
<g id="node2" class="node">
<title>Node2</title>
<g id="a_node2"><a xlink:href="_app_demo_load_8cpp.html" target="_top" xlink:title=" ">
<polygon fill="white" stroke="black" points="0,-0.5 0,-20.5 99.25,-20.5 99.25,-0.5 0,-0.5"/>
<text text-anchor="middle" x="49.62" y="-7" font-family="Arial" font-size="10.00">AppDemoLoad.cpp</text>
</a>
</g>
</g>
<!-- Node1&#45;&gt;Node2 -->
<g id="edge1" class="edge">
<title>Node1&#45;&gt;Node2</title>
<path fill="none" stroke="midnightblue" d="M184.44,-54.61C152.4,-44.36 106.82,-29.79 77.74,-20.49"/>
<polygon fill="midnightblue" stroke="midnightblue" points="183.16,-58.19 193.75,-57.91 185.29,-51.53 183.16,-58.19"/>
</g>
<!-- Node3 -->
<g id="node3" class="node">
<title>Node3</title>
<g id="a_node3"><a xlink:href="_s_l_horizon_node_8cpp.html" target="_top" xlink:title=" ">
<polygon fill="white" stroke="black" points="117.75,-0.5 117.75,-20.5 221.5,-20.5 221.5,-0.5 117.75,-0.5"/>
<text text-anchor="middle" x="169.62" y="-7" font-family="Arial" font-size="10.00">SLHorizonNode.cpp</text>
</a>
</g>
</g>
<!-- Node1&#45;&gt;Node3 -->
<g id="edge2" class="edge">
<title>Node1&#45;&gt;Node3</title>
<path fill="none" stroke="midnightblue" d="M206.06,-50.03C196.79,-40.24 185.42,-28.2 177.86,-20.21"/>
<polygon fill="midnightblue" stroke="midnightblue" points="203.09,-52.04 212.5,-56.91 208.17,-47.24 203.09,-52.04"/>
</g>
<!-- Node4 -->
<g id="node4" class="node">
<title>Node4</title>
<g id="a_node4"><a xlink:href="_s_l_node_8cpp.html" target="_top" xlink:title=" ">
<polygon fill="white" stroke="black" points="239.62,-0.5 239.62,-20.5 309.62,-20.5 309.62,-0.5 239.62,-0.5"/>
<text text-anchor="middle" x="274.62" y="-7" font-family="Arial" font-size="10.00">SLNode.cpp</text>
</a>
</g>
</g>
<!-- Node1&#45;&gt;Node4 -->
<g id="edge3" class="edge">
<title>Node1&#45;&gt;Node4</title>
<path fill="none" stroke="midnightblue" d="M237.49,-50.03C246.93,-40.24 258.53,-28.2 266.23,-20.21"/>
<polygon fill="midnightblue" stroke="midnightblue" points="235.32,-47.28 230.91,-56.91 240.37,-52.13 235.32,-47.28"/>
</g>
<!-- Node5 -->
<g id="node5" class="node">
<title>Node5</title>
<g id="a_node5"><a xlink:href="_s_l_text_8cpp.html" target="_top" xlink:title=" ">
<polygon fill="white" stroke="black" points="327.25,-0.5 327.25,-20.5 392,-20.5 392,-0.5 327.25,-0.5"/>
<text text-anchor="middle" x="359.62" y="-7" font-family="Arial" font-size="10.00">SLText.cpp</text>
</a>
</g>
</g>
<!-- Node1&#45;&gt;Node5 -->
<g id="edge4" class="edge">
<title>Node1&#45;&gt;Node5</title>
<path fill="none" stroke="midnightblue" d="M254.08,-53.57C279.64,-43.38 314.6,-29.44 337.16,-20.46"/>
<polygon fill="midnightblue" stroke="midnightblue" points="253.1,-50.59 245.1,-57.54 255.69,-57.09 253.1,-50.59"/>
</g>
</g>
</svg>
