<?xml version="1.0" encoding="UTF-8" standalone="no"?>
<!DOCTYPE svg PUBLIC "-//W3C//DTD SVG 1.1//EN"
 "http://www.w3.org/Graphics/SVG/1.1/DTD/svg11.dtd">
<!-- Generated by graphviz version 2.38.0 (20140413.2041)
 -->
<!-- Title: SLGLOculus.h Pages: 1 -->
<svg width="2069pt" height="252pt"
 viewBox="0.00 0.00 2069.11 252.00" xmlns="http://www.w3.org/2000/svg" xmlns:xlink="http://www.w3.org/1999/xlink">
<g id="graph0" class="graph" transform="scale(1 1) rotate(0) translate(4 248)">
<title>SLGLOculus.h</title>
<polygon fill="white" stroke="none" points="-4,4 -4,-248 2065.11,-248 2065.11,4 -4,4"/>
<!-- Node1 -->
<g id="node1" class="node"><title>Node1</title>
<polygon fill="#bfbfbf" stroke="black" points="978,-224.5 978,-243.5 1052,-243.5 1052,-224.5 978,-224.5"/>
<text text-anchor="middle" x="1015" y="-231.5" font-family="Arial.ttf" font-size="10.00">SLGLOculus.h</text>
</g>
<!-- Node2 -->
<g id="node2" class="node"><title>Node2</title>
<g id="a_node2"><a xlink:href="_s_l_g_l_oculus_8cpp.html" target="_top" xlink:title="SLGLOculus.cpp">
<polygon fill="white" stroke="black" points="434,-112.5 434,-131.5 518,-131.5 518,-112.5 434,-112.5"/>
<text text-anchor="middle" x="476" y="-119.5" font-family="Arial.ttf" font-size="10.00">SLGLOculus.cpp</text>
</a>
</g>
</g>
<!-- Node1&#45;&gt;Node2 -->
<g id="edge1" class="edge"><title>Node1&#45;&gt;Node2</title>
<path fill="none" stroke="midnightblue" d="M968.07,-223.422C864.247,-202.234 616.496,-151.673 517.706,-131.511"/>
<polygon fill="midnightblue" stroke="midnightblue" points="967.454,-226.869 977.952,-225.439 968.854,-220.01 967.454,-226.869"/>
</g>
<!-- Node3 -->
<g id="node3" class="node"><title>Node3</title>
<g id="a_node3"><a xlink:href="_s_l_scene_8h.html" target="_top" xlink:title="SLScene.h">
<polygon fill="white" stroke="black" points="1184,-168.5 1184,-187.5 1246,-187.5 1246,-168.5 1184,-168.5"/>
<text text-anchor="middle" x="1215" y="-175.5" font-family="Arial.ttf" font-size="10.00">SLScene.h</text>
</a>
</g>
</g>
<!-- Node1&#45;&gt;Node3 -->
<g id="edge2" class="edge"><title>Node1&#45;&gt;Node3</title>
<path fill="none" stroke="midnightblue" d="M1056.4,-221.821C1094.29,-211.593 1149.5,-196.685 1183.79,-187.428"/>
<polygon fill="midnightblue" stroke="midnightblue" points="1055.43,-218.458 1046.69,-224.444 1057.26,-225.216 1055.43,-218.458"/>
</g>
<!-- Node3&#45;&gt;Node2 -->
<g id="edge11" class="edge"><title>Node3&#45;&gt;Node2</title>
<path fill="none" stroke="midnightblue" d="M1173.94,-175.635C1067.59,-171.809 774.551,-159.42 532,-132 527.499,-131.491 522.808,-130.875 518.139,-130.205"/>
<polygon fill="midnightblue" stroke="midnightblue" points="1173.82,-179.133 1183.93,-175.989 1174.06,-172.137 1173.82,-179.133"/>
</g>
<!-- Node4 -->
<g id="node4" class="node"><title>Node4</title>
<g id="a_node4"><a xlink:href="_s_l_curve_bezier_8cpp.html" target="_top" xlink:title="SLCurveBezier.cpp">
<polygon fill="white" stroke="black" points="1787,-112.5 1787,-131.5 1883,-131.5 1883,-112.5 1787,-112.5"/>
<text text-anchor="middle" x="1835" y="-119.5" font-family="Arial.ttf" font-size="10.00">SLCurveBezier.cpp</text>
</a>
</g>
</g>
<!-- Node3&#45;&gt;Node4 -->
<g id="edge3" class="edge"><title>Node3&#45;&gt;Node4</title>
<path fill="none" stroke="midnightblue" d="M1256.36,-174.786C1349.64,-169.553 1583.45,-155.099 1778,-132 1780.89,-131.657 1783.85,-131.277 1786.83,-130.872"/>
<polygon fill="midnightblue" stroke="midnightblue" points="1256,-171.3 1246.21,-175.35 1256.39,-178.289 1256,-171.3"/>
</g>
<!-- Node5 -->
<g id="node5" class="node"><title>Node5</title>
<g id="a_node5"><a xlink:href="_s_l_assimp_importer_8cpp.html" target="_top" xlink:title="SLAssimpImporter.cpp">
<polygon fill="white" stroke="black" points="1901.5,-112.5 1901.5,-131.5 2014.5,-131.5 2014.5,-112.5 1901.5,-112.5"/>
<text text-anchor="middle" x="1958" y="-119.5" font-family="Arial.ttf" font-size="10.00">SLAssimpImporter.cpp</text>
</a>
</g>
</g>
<!-- Node3&#45;&gt;Node5 -->
<g id="edge4" class="edge"><title>Node3&#45;&gt;Node5</title>
<path fill="none" stroke="midnightblue" d="M1256.36,-175.249C1362.26,-170.547 1651.8,-156.331 1892,-132 1894.99,-131.697 1898.06,-131.363 1901.15,-131.007"/>
<polygon fill="midnightblue" stroke="midnightblue" points="1255.94,-171.763 1246.1,-175.699 1256.25,-178.757 1255.94,-171.763"/>
</g>
<!-- Node6 -->
<g id="node6" class="node"><title>Node6</title>
<g id="a_node6"><a xlink:href="_s_l_interface_8cpp.html" target="_top" xlink:title="SLProject C&#45;functions interface implementation. ">
<polygon fill="white" stroke="black" points="1270.5,-56.5 1270.5,-75.5 1353.5,-75.5 1353.5,-56.5 1270.5,-56.5"/>
<text text-anchor="middle" x="1312" y="-63.5" font-family="Arial.ttf" font-size="10.00">SLInterface.cpp</text>
</a>
</g>
</g>
<!-- Node3&#45;&gt;Node6 -->
<g id="edge5" class="edge"><title>Node3&#45;&gt;Node6</title>
<path fill="none" stroke="midnightblue" d="M1173.6,-177.574C1047.93,-178.627 683.04,-176.272 743,-112 782.356,-69.8134 1203.73,-83.0229 1261,-76 1264.03,-75.6279 1267.16,-75.1959 1270.31,-74.7264"/>
<polygon fill="midnightblue" stroke="midnightblue" points="1173.65,-181.073 1183.61,-177.478 1173.58,-174.074 1173.65,-181.073"/>
</g>
<!-- Node7 -->
<g id="node7" class="node"><title>Node7</title>
<g id="a_node7"><a xlink:href="_s_l_tex_font_8cpp.html" target="_top" xlink:title="SLTexFont.cpp">
<polygon fill="white" stroke="black" points="752,-112.5 752,-131.5 832,-131.5 832,-112.5 752,-112.5"/>
<text text-anchor="middle" x="792" y="-119.5" font-family="Arial.ttf" font-size="10.00">SLTexFont.cpp</text>
</a>
</g>
</g>
<!-- Node3&#45;&gt;Node7 -->
<g id="edge6" class="edge"><title>Node3&#45;&gt;Node7</title>
<path fill="none" stroke="midnightblue" d="M1173.86,-172.892C1104.86,-165.814 961.541,-150.304 841,-132 838.093,-131.559 835.093,-131.076 832.077,-130.57"/>
<polygon fill="midnightblue" stroke="midnightblue" points="1173.58,-176.381 1183.88,-173.914 1174.29,-169.417 1173.58,-176.381"/>
</g>
<!-- Node8 -->
<g id="node8" class="node"><title>Node8</title>
<g id="a_node8"><a xlink:href="_s_l_a_a_b_box_8cpp.html" target="_top" xlink:title="SLAABBox.cpp">
<polygon fill="white" stroke="black" points="850.5,-112.5 850.5,-131.5 927.5,-131.5 927.5,-112.5 850.5,-112.5"/>
<text text-anchor="middle" x="889" y="-119.5" font-family="Arial.ttf" font-size="10.00">SLAABBox.cpp</text>
</a>
</g>
</g>
<!-- Node3&#45;&gt;Node8 -->
<g id="edge7" class="edge"><title>Node3&#45;&gt;Node8</title>
<path fill="none" stroke="midnightblue" d="M1173.75,-170.651C1119.42,-162.214 1020.93,-146.66 937,-132 933.993,-131.475 930.883,-130.919 927.758,-130.353"/>
<polygon fill="midnightblue" stroke="midnightblue" points="1173.27,-174.118 1183.69,-172.192 1174.34,-167.201 1173.27,-174.118"/>
</g>
<!-- Node9 -->
<g id="node9" class="node"><title>Node9</title>
<g id="a_node9"><a xlink:href="_s_l_animation_8cpp.html" target="_top" xlink:title="SLAnimation.cpp">
<polygon fill="white" stroke="black" points="946,-112.5 946,-131.5 1034,-131.5 1034,-112.5 946,-112.5"/>
<text text-anchor="middle" x="990" y="-119.5" font-family="Arial.ttf" font-size="10.00">SLAnimation.cpp</text>
</a>
</g>
</g>
<!-- Node3&#45;&gt;Node9 -->
<g id="edge8" class="edge"><title>Node3&#45;&gt;Node9</title>
<path fill="none" stroke="midnightblue" d="M1173.97,-167.152C1131.48,-156.955 1065.78,-141.187 1025.47,-131.512"/>
<polygon fill="midnightblue" stroke="midnightblue" points="1173.17,-170.561 1183.71,-169.492 1174.81,-163.754 1173.17,-170.561"/>
</g>
<!-- Node10 -->
<g id="node10" class="node"><title>Node10</title>
<g id="a_node10"><a xlink:href="_s_l_anim_manager_8cpp.html" target="_top" xlink:title="SLAnimManager.cpp">
<polygon fill="white" stroke="black" points="1052,-112.5 1052,-131.5 1156,-131.5 1156,-112.5 1052,-112.5"/>
<text text-anchor="middle" x="1104" y="-119.5" font-family="Arial.ttf" font-size="10.00">SLAnimManager.cpp</text>
</a>
</g>
</g>
<!-- Node3&#45;&gt;Node10 -->
<g id="edge9" class="edge"><title>Node3&#45;&gt;Node10</title>
<path fill="none" stroke="midnightblue" d="M1187.99,-163.862C1167.41,-153.849 1139.66,-140.346 1121.79,-131.655"/>
<polygon fill="midnightblue" stroke="midnightblue" points="1186.64,-167.097 1197.17,-168.324 1189.7,-160.802 1186.64,-167.097"/>
</g>
<!-- Node11 -->
<g id="node11" class="node"><title>Node11</title>
<g id="a_node11"><a xlink:href="_s_l_g_l_buffer_8cpp.html" target="_top" xlink:title="SLGLBuffer.cpp">
<polygon fill="white" stroke="black" points="1174.5,-112.5 1174.5,-131.5 1255.5,-131.5 1255.5,-112.5 1174.5,-112.5"/>
<text text-anchor="middle" x="1215" y="-119.5" font-family="Arial.ttf" font-size="10.00">SLGLBuffer.cpp</text>
</a>
</g>
</g>
<!-- Node3&#45;&gt;Node11 -->
<g id="edge10" class="edge"><title>Node3&#45;&gt;Node11</title>
<path fill="none" stroke="midnightblue" d="M1215,-157.805C1215,-148.91 1215,-138.78 1215,-131.751"/>
<polygon fill="midnightblue" stroke="midnightblue" points="1211.5,-158.083 1215,-168.083 1218.5,-158.083 1211.5,-158.083"/>
</g>
<!-- Node12 -->
<g id="node12" class="node"><title>Node12</title>
<g id="a_node12"><a xlink:href="_s_l_g_l_oculus_f_b_8cpp.html" target="_top" xlink:title="SLGLOculusFB.cpp">
<polygon fill="white" stroke="black" points="1273.5,-112.5 1273.5,-131.5 1368.5,-131.5 1368.5,-112.5 1273.5,-112.5"/>
<text text-anchor="middle" x="1321" y="-119.5" font-family="Arial.ttf" font-size="10.00">SLGLOculusFB.cpp</text>
</a>
</g>
</g>
<!-- Node3&#45;&gt;Node12 -->
<g id="edge12" class="edge"><title>Node3&#45;&gt;Node12</title>
<path fill="none" stroke="midnightblue" d="M1241.06,-163.726C1260.68,-153.727 1287.03,-140.307 1304.01,-131.655"/>
<polygon fill="midnightblue" stroke="midnightblue" points="1239.35,-160.666 1232.03,-168.324 1242.53,-166.903 1239.35,-160.666"/>
</g>
<!-- Node13 -->
<g id="node13" class="node"><title>Node13</title>
<g id="a_node13"><a xlink:href="_s_l_g_l_program_8cpp.html" target="_top" xlink:title="SLGLProgram.cpp">
<polygon fill="white" stroke="black" points="1387,-112.5 1387,-131.5 1479,-131.5 1479,-112.5 1387,-112.5"/>
<text text-anchor="middle" x="1433" y="-119.5" font-family="Arial.ttf" font-size="10.00">SLGLProgram.cpp</text>
</a>
</g>
</g>
<!-- Node3&#45;&gt;Node13 -->
<g id="edge13" class="edge"><title>Node3&#45;&gt;Node13</title>
<path fill="none" stroke="midnightblue" d="M1255.95,-166.856C1297.13,-156.656 1359.9,-141.107 1398.59,-131.524"/>
<polygon fill="midnightblue" stroke="midnightblue" points="1255.1,-163.461 1246.23,-169.263 1256.78,-170.256 1255.1,-163.461"/>
</g>
<!-- Node14 -->
<g id="node14" class="node"><title>Node14</title>
<g id="a_node14"><a xlink:href="_s_l_g_l_texture_8cpp.html" target="_top" xlink:title="SLGLTexture.cpp">
<polygon fill="white" stroke="black" points="1497.5,-112.5 1497.5,-131.5 1586.5,-131.5 1586.5,-112.5 1497.5,-112.5"/>
<text text-anchor="middle" x="1542" y="-119.5" font-family="Arial.ttf" font-size="10.00">SLGLTexture.cpp</text>
</a>
</g>
</g>
<!-- Node3&#45;&gt;Node14 -->
<g id="edge14" class="edge"><title>Node3&#45;&gt;Node14</title>
<path fill="none" stroke="midnightblue" d="M1256.22,-170.228C1309.68,-161.442 1405.81,-145.623 1488,-132 1491,-131.503 1494.09,-130.989 1497.21,-130.471"/>
<polygon fill="midnightblue" stroke="midnightblue" points="1255.42,-166.814 1246.12,-171.889 1256.55,-173.721 1255.42,-166.814"/>
</g>
<!-- Node15 -->
<g id="node15" class="node"><title>Node15</title>
<g id="a_node15"><a xlink:href="_s_l_input_manager_8cpp.html" target="_top" xlink:title="SLInputManager.cpp">
<polygon fill="white" stroke="black" points="1501,-56.5 1501,-75.5 1605,-75.5 1605,-56.5 1501,-56.5"/>
<text text-anchor="middle" x="1553" y="-63.5" font-family="Arial.ttf" font-size="10.00">SLInputManager.cpp</text>
</a>
</g>
</g>
<!-- Node3&#45;&gt;Node15 -->
<g id="edge15" class="edge"><title>Node3&#45;&gt;Node15</title>
<path fill="none" stroke="midnightblue" d="M1256.5,-176.256C1418.05,-173.16 1997.39,-160.127 2024,-132 2030.11,-125.542 2029.98,-118.578 2024,-112 1996.24,-81.4563 1721.71,-71.1346 1605.03,-68.1093"/>
<polygon fill="midnightblue" stroke="midnightblue" points="1255.97,-172.765 1246.03,-176.454 1256.1,-179.764 1255.97,-172.765"/>
</g>
<!-- Node16 -->
<g id="node16" class="node"><title>Node16</title>
<g id="a_node16"><a xlink:href="_s_l_light_rect_8cpp.html" target="_top" xlink:title="SLLightRect.cpp">
<polygon fill="white" stroke="black" points="1879,-56.5 1879,-75.5 1963,-75.5 1963,-56.5 1879,-56.5"/>
<text text-anchor="middle" x="1921" y="-63.5" font-family="Arial.ttf" font-size="10.00">SLLightRect.cpp</text>
</a>
</g>
</g>
<!-- Node3&#45;&gt;Node16 -->
<g id="edge16" class="edge"><title>Node3&#45;&gt;Node16</title>
<path fill="none" stroke="midnightblue" d="M1256.28,-176.306C1419.57,-173.365 2012.8,-160.728 2040,-132 2067.19,-103.284 2007.45,-84.2642 1963.16,-74.5818"/>
<polygon fill="midnightblue" stroke="midnightblue" points="1256.09,-172.809 1246.16,-176.486 1256.22,-179.808 1256.09,-172.809"/>
</g>
<!-- Node17 -->
<g id="node17" class="node"><title>Node17</title>
<g id="a_node17"><a xlink:href="_s_l_light_sphere_8cpp.html" target="_top" xlink:title="SLLightSphere.cpp">
<polygon fill="white" stroke="black" points="0,-56.5 0,-75.5 96,-75.5 96,-56.5 0,-56.5"/>
<text text-anchor="middle" x="48" y="-63.5" font-family="Arial.ttf" font-size="10.00">SLLightSphere.cpp</text>
</a>
</g>
</g>
<!-- Node3&#45;&gt;Node17 -->
<g id="edge17" class="edge"><title>Node3&#45;&gt;Node17</title>
<path fill="none" stroke="midnightblue" d="M1173.5,-176.699C1048.17,-175.39 675.089,-168.451 560,-132 543.65,-126.822 543.306,-117.313 527,-112 348.024,-53.6842 291.864,-98.6934 105,-76 102.116,-75.6497 99.1537,-75.2633 96.1682,-74.8535"/>
<polygon fill="midnightblue" stroke="midnightblue" points="1173.78,-180.202 1183.82,-176.8 1173.85,-173.202 1173.78,-180.202"/>
</g>
<!-- Node18 -->
<g id="node18" class="node"><title>Node18</title>
<g id="a_node18"><a xlink:href="_s_l_scene_8cpp.html" target="_top" xlink:title="SLScene.cpp">
<polygon fill="white" stroke="black" points="870.5,-0.5 870.5,-19.5 941.5,-19.5 941.5,-0.5 870.5,-0.5"/>
<text text-anchor="middle" x="906" y="-7.5" font-family="Arial.ttf" font-size="10.00">SLScene.cpp</text>
</a>
</g>
</g>
<!-- Node3&#45;&gt;Node18 -->
<g id="edge18" class="edge"><title>Node3&#45;&gt;Node18</title>
<path fill="none" stroke="midnightblue" d="M1256.58,-176.349C1422.44,-173.55 2029.19,-161.335 2057,-132 2063.12,-125.549 2061.22,-119.826 2057,-112 2035.54,-72.1717 2015.05,-69.9028 1972,-56 1872.24,-23.7838 1115.36,-13.3561 941.515,-11.3741"/>
<polygon fill="midnightblue" stroke="midnightblue" points="1256.24,-172.854 1246.3,-176.519 1256.36,-179.853 1256.24,-172.854"/>
</g>
<!-- Node19 -->
<g id="node19" class="node"><title>Node19</title>
<g id="a_node19"><a xlink:href="_s_l_scene__on_load_8cpp.html" target="_top" xlink:title="SLScene_onLoad.cpp">
<polygon fill="white" stroke="black" points="114.5,-56.5 114.5,-75.5 221.5,-75.5 221.5,-56.5 114.5,-56.5"/>
<text text-anchor="middle" x="168" y="-63.5" font-family="Arial.ttf" font-size="10.00">SLScene_onLoad.cpp</text>
</a>
</g>
</g>
<!-- Node3&#45;&gt;Node19 -->
<g id="edge19" class="edge"><title>Node3&#45;&gt;Node19</title>
<path fill="none" stroke="midnightblue" d="M1173.58,-175.898C1054.24,-172.416 711.345,-160.171 603,-132 582.601,-126.696 580.302,-117.663 560,-112 417.888,-72.362 376.36,-94.6002 230,-76 227.303,-75.6572 224.541,-75.2955 221.753,-74.9219"/>
<polygon fill="midnightblue" stroke="midnightblue" points="1173.66,-179.402 1183.76,-176.189 1173.86,-172.404 1173.66,-179.402"/>
</g>
<!-- Node20 -->
<g id="node20" class="node"><title>Node20</title>
<g id="a_node20"><a xlink:href="_s_l_skeleton_8cpp.html" target="_top" xlink:title="SLSkeleton.cpp">
<polygon fill="white" stroke="black" points="1605,-112.5 1605,-131.5 1687,-131.5 1687,-112.5 1605,-112.5"/>
<text text-anchor="middle" x="1646" y="-119.5" font-family="Arial.ttf" font-size="10.00">SLSkeleton.cpp</text>
</a>
</g>
</g>
<!-- Node3&#45;&gt;Node20 -->
<g id="edge20" class="edge"><title>Node3&#45;&gt;Node20</title>
<path fill="none" stroke="midnightblue" d="M1256.26,-172.89C1326.13,-165.756 1472.16,-150.097 1595,-132 1598.2,-131.528 1601.51,-131.011 1604.84,-130.471"/>
<polygon fill="midnightblue" stroke="midnightblue" points="1255.71,-169.428 1246.11,-173.921 1256.41,-176.392 1255.71,-169.428"/>
</g>
<!-- Node21 -->
<g id="node21" class="node"><title>Node21</title>
<g id="a_node21"><a xlink:href="_s_l_text_8cpp.html" target="_top" xlink:title="SLText.cpp">
<polygon fill="white" stroke="black" points="1705,-112.5 1705,-131.5 1769,-131.5 1769,-112.5 1705,-112.5"/>
<text text-anchor="middle" x="1737" y="-119.5" font-family="Arial.ttf" font-size="10.00">SLText.cpp</text>
</a>
</g>
</g>
<!-- Node3&#45;&gt;Node21 -->
<g id="edge21" class="edge"><title>Node3&#45;&gt;Node21</title>
<path fill="none" stroke="midnightblue" d="M1256.19,-174.856C1339.6,-170.138 1534.28,-157.218 1696,-132 1698.88,-131.551 1701.86,-131.022 1704.84,-130.45"/>
<polygon fill="midnightblue" stroke="midnightblue" points="1255.9,-171.366 1246.11,-175.416 1256.29,-178.356 1255.9,-171.366"/>
</g>
<!-- Node22 -->
<g id="node22" class="node"><title>Node22</title>
<g id="a_node22"><a xlink:href="_s_l_scene_view_8h.html" target="_top" xlink:title="SLSceneView.h">
<polygon fill="white" stroke="black" points="612.5,-112.5 612.5,-131.5 695.5,-131.5 695.5,-112.5 612.5,-112.5"/>
<text text-anchor="middle" x="654" y="-119.5" font-family="Arial.ttf" font-size="10.00">SLSceneView.h</text>
</a>
</g>
</g>
<!-- Node3&#45;&gt;Node22 -->
<g id="edge22" class="edge"><title>Node3&#45;&gt;Node22</title>
<path fill="none" stroke="midnightblue" d="M1173.72,-174.312C1087.42,-168.474 881.676,-153.417 710,-132 705.31,-131.415 700.41,-130.733 695.543,-130.011"/>
<polygon fill="midnightblue" stroke="midnightblue" points="1173.68,-177.816 1183.89,-174.994 1174.14,-170.832 1173.68,-177.816"/>
</g>
<!-- Node22&#45;&gt;Node6 -->
<g id="edge23" class="edge"><title>Node22&#45;&gt;Node6</title>
<path fill="none" stroke="midnightblue" d="M705.543,-112.529C707.044,-112.343 708.532,-112.166 710,-112 953.865,-84.4989 1017.35,-105.368 1261,-76 1264.03,-75.6342 1267.16,-75.2068 1270.31,-74.7406"/>
<polygon fill="midnightblue" stroke="midnightblue" points="704.973,-109.074 695.53,-113.88 705.908,-116.012 704.973,-109.074"/>
</g>
<!-- Node22&#45;&gt;Node15 -->
<g id="edge25" class="edge"><title>Node22&#45;&gt;Node15</title>
<path fill="none" stroke="midnightblue" d="M705.674,-115.375C717.902,-114.154 730.904,-112.947 743,-112 891.31,-100.387 1346.42,-77.2975 1501,-69.5799"/>
<polygon fill="midnightblue" stroke="midnightblue" points="705.215,-111.903 695.621,-116.397 705.924,-118.867 705.215,-111.903"/>
</g>
<!-- Node22&#45;&gt;Node16 -->
<g id="edge27" class="edge"><title>Node22&#45;&gt;Node16</title>
<path fill="none" stroke="midnightblue" d="M705.662,-115.223C717.891,-114.009 730.896,-112.842 743,-112 970.776,-96.1483 1696.38,-73.7442 1878.98,-68.2515"/>
<polygon fill="midnightblue" stroke="midnightblue" points="705.203,-111.752 695.61,-116.248 705.913,-118.715 705.203,-111.752"/>
</g>
<!-- Node22&#45;&gt;Node17 -->
<g id="edge28" class="edge"><title>Node22&#45;&gt;Node17</title>
<path fill="none" stroke="midnightblue" d="M602.138,-115.88C588.439,-114.57 573.665,-113.195 560,-112 357.917,-94.3325 306.449,-99.8368 105,-76 102.115,-75.6586 99.1518,-75.2791 96.1657,-74.8744"/>
<polygon fill="midnightblue" stroke="midnightblue" points="602.077,-119.39 612.367,-116.865 602.748,-112.422 602.077,-119.39"/>
</g>
<!-- Node22&#45;&gt;Node18 -->
<g id="edge35" class="edge"><title>Node22&#45;&gt;Node18</title>
<path fill="none" stroke="midnightblue" d="M705.517,-112.447C753.962,-103.779 822.459,-89.7232 846,-76 870.678,-61.6138 891.169,-33.8195 900.53,-19.6951"/>
<polygon fill="midnightblue" stroke="midnightblue" points="704.746,-109.029 695.507,-114.213 705.963,-115.923 704.746,-109.029"/>
</g>
<!-- Node22&#45;&gt;Node19 -->
<g id="edge36" class="edge"><title>Node22&#45;&gt;Node19</title>
<path fill="none" stroke="midnightblue" d="M602.449,-112.592C600.95,-112.387 599.465,-112.189 598,-112 435.017,-90.9517 393.138,-95.8093 230,-76 227.301,-75.6722 224.537,-75.3226 221.748,-74.9586"/>
<polygon fill="midnightblue" stroke="midnightblue" points="602.055,-116.071 612.452,-114.03 603.051,-109.143 602.055,-116.071"/>
</g>
<!-- Node23 -->
<g id="node23" class="node"><title>Node23</title>
<g id="a_node23"><a xlink:href="_s_l_camera_8cpp.html" target="_top" xlink:title="SLCamera.cpp">
<polygon fill="white" stroke="black" points="893.5,-56.5 893.5,-75.5 972.5,-75.5 972.5,-56.5 893.5,-56.5"/>
<text text-anchor="middle" x="933" y="-63.5" font-family="Arial.ttf" font-size="10.00">SLCamera.cpp</text>
</a>
</g>
</g>
<!-- Node22&#45;&gt;Node23 -->
<g id="edge24" class="edge"><title>Node22&#45;&gt;Node23</title>
<path fill="none" stroke="midnightblue" d="M705.865,-110.962C760.086,-100.467 843.99,-84.2277 893.208,-74.7017"/>
<polygon fill="midnightblue" stroke="midnightblue" points="704.922,-107.579 695.769,-112.916 706.252,-114.452 704.922,-107.579"/>
</g>
<!-- Node24 -->
<g id="node24" class="node"><title>Node24</title>
<g id="a_node24"><a xlink:href="_s_l_k_d_tree_8cpp.html" target="_top" xlink:title="SLKDTree.cpp">
<polygon fill="white" stroke="black" points="990.5,-56.5 990.5,-75.5 1067.5,-75.5 1067.5,-56.5 990.5,-56.5"/>
<text text-anchor="middle" x="1029" y="-63.5" font-family="Arial.ttf" font-size="10.00">SLKDTree.cpp</text>
</a>
</g>
</g>
<!-- Node22&#45;&gt;Node24 -->
<g id="edge26" class="edge"><title>Node22&#45;&gt;Node24</title>
<path fill="none" stroke="midnightblue" d="M705.56,-112.659C707.056,-112.435 708.539,-112.214 710,-112 830.215,-94.3585 861.024,-95.2026 981,-76 984.014,-75.5176 987.129,-74.9929 990.258,-74.4473"/>
<polygon fill="midnightblue" stroke="midnightblue" points="704.925,-109.216 695.57,-114.19 705.985,-116.135 704.925,-109.216"/>
</g>
<!-- Node25 -->
<g id="node25" class="node"><title>Node25</title>
<g id="a_node25"><a xlink:href="_s_l_material_8cpp.html" target="_top" xlink:title="SLMaterial.cpp">
<polygon fill="white" stroke="black" points="1086,-56.5 1086,-75.5 1166,-75.5 1166,-56.5 1086,-56.5"/>
<text text-anchor="middle" x="1126" y="-63.5" font-family="Arial.ttf" font-size="10.00">SLMaterial.cpp</text>
</a>
</g>
</g>
<!-- Node22&#45;&gt;Node25 -->
<g id="edge29" class="edge"><title>Node22&#45;&gt;Node25</title>
<path fill="none" stroke="midnightblue" d="M705.551,-112.593C707.05,-112.388 708.535,-112.19 710,-112 872.1,-91.022 914.104,-98.496 1076,-76 1079.23,-75.5509 1082.57,-75.0435 1085.93,-74.5042"/>
<polygon fill="midnightblue" stroke="midnightblue" points="704.948,-109.144 695.549,-114.032 705.945,-116.072 704.948,-109.144"/>
</g>
<!-- Node26 -->
<g id="node26" class="node"><title>Node26</title>
<g id="a_node26"><a xlink:href="_s_l_mesh_8cpp.html" target="_top" xlink:title="SLMesh.cpp">
<polygon fill="white" stroke="black" points="1184,-56.5 1184,-75.5 1252,-75.5 1252,-56.5 1184,-56.5"/>
<text text-anchor="middle" x="1218" y="-63.5" font-family="Arial.ttf" font-size="10.00">SLMesh.cpp</text>
</a>
</g>
</g>
<!-- Node22&#45;&gt;Node26 -->
<g id="edge30" class="edge"><title>Node22&#45;&gt;Node26</title>
<path fill="none" stroke="midnightblue" d="M705.546,-112.553C707.046,-112.359 708.533,-112.174 710,-112 915.836,-87.5336 969.795,-105.294 1175,-76 1177.87,-75.5904 1180.83,-75.1041 1183.8,-74.5729"/>
<polygon fill="midnightblue" stroke="midnightblue" points="704.964,-109.1 695.537,-113.935 705.922,-116.034 704.964,-109.1"/>
</g>
<!-- Node27 -->
<g id="node27" class="node"><title>Node27</title>
<g id="a_node27"><a xlink:href="_s_l_node_8cpp.html" target="_top" xlink:title="SLNode.cpp">
<polygon fill="white" stroke="black" points="239.5,-56.5 239.5,-75.5 306.5,-75.5 306.5,-56.5 239.5,-56.5"/>
<text text-anchor="middle" x="273" y="-63.5" font-family="Arial.ttf" font-size="10.00">SLNode.cpp</text>
</a>
</g>
</g>
<!-- Node22&#45;&gt;Node27 -->
<g id="edge31" class="edge"><title>Node22&#45;&gt;Node27</title>
<path fill="none" stroke="midnightblue" d="M602.441,-112.649C600.945,-112.427 599.462,-112.21 598,-112 472.502,-93.9381 439.989,-97.3023 315,-76 312.354,-75.549 309.621,-75.0468 306.879,-74.5168"/>
<polygon fill="midnightblue" stroke="midnightblue" points="602.021,-116.125 612.433,-114.164 603.071,-109.204 602.021,-116.125"/>
</g>
<!-- Node28 -->
<g id="node28" class="node"><title>Node28</title>
<g id="a_node28"><a xlink:href="_s_l_pathtracer_8cpp.html" target="_top" xlink:title="SLPathtracer.cpp">
<polygon fill="white" stroke="black" points="324.5,-56.5 324.5,-75.5 413.5,-75.5 413.5,-56.5 324.5,-56.5"/>
<text text-anchor="middle" x="369" y="-63.5" font-family="Arial.ttf" font-size="10.00">SLPathtracer.cpp</text>
</a>
</g>
</g>
<!-- Node22&#45;&gt;Node28 -->
<g id="edge32" class="edge"><title>Node22&#45;&gt;Node28</title>
<path fill="none" stroke="midnightblue" d="M602.218,-111.189C548.319,-100.976 464.78,-85.1477 413.679,-75.4654"/>
<polygon fill="midnightblue" stroke="midnightblue" points="601.777,-114.667 612.253,-113.09 603.08,-107.79 601.777,-114.667"/>
</g>
<!-- Node29 -->
<g id="node29" class="node"><title>Node29</title>
<g id="a_node29"><a xlink:href="_s_l_photon_mapper_8cpp.html" target="_top" xlink:title="SLPhotonMapper.cpp">
<polygon fill="white" stroke="black" points="431.5,-56.5 431.5,-75.5 538.5,-75.5 538.5,-56.5 431.5,-56.5"/>
<text text-anchor="middle" x="485" y="-63.5" font-family="Arial.ttf" font-size="10.00">SLPhotonMapper.cpp</text>
</a>
</g>
</g>
<!-- Node22&#45;&gt;Node29 -->
<g id="edge33" class="edge"><title>Node22&#45;&gt;Node29</title>
<path fill="none" stroke="midnightblue" d="M617.397,-109.304C585.553,-99.1294 540.158,-84.6246 511.653,-75.5164"/>
<polygon fill="midnightblue" stroke="midnightblue" points="616.631,-112.734 627.221,-112.444 618.761,-106.066 616.631,-112.734"/>
</g>
<!-- Node30 -->
<g id="node30" class="node"><title>Node30</title>
<g id="a_node30"><a xlink:href="_s_l_raytracer_8cpp.html" target="_top" xlink:title="SLRaytracer.cpp">
<polygon fill="white" stroke="black" points="557,-56.5 557,-75.5 643,-75.5 643,-56.5 557,-56.5"/>
<text text-anchor="middle" x="600" y="-63.5" font-family="Arial.ttf" font-size="10.00">SLRaytracer.cpp</text>
</a>
</g>
</g>
<!-- Node22&#45;&gt;Node30 -->
<g id="edge34" class="edge"><title>Node22&#45;&gt;Node30</title>
<path fill="none" stroke="midnightblue" d="M638.002,-105.002C628.433,-95.4329 616.639,-83.6389 608.751,-75.7511"/>
<polygon fill="midnightblue" stroke="midnightblue" points="635.537,-107.487 645.083,-112.083 640.487,-102.537 635.537,-107.487"/>
</g>
<!-- Node31 -->
<g id="node31" class="node"><title>Node31</title>
<g id="a_node31"><a xlink:href="_s_l_uniform_grid_8cpp.html" target="_top" xlink:title="SLUniformGrid.cpp">
<polygon fill="white" stroke="black" points="661,-56.5 661,-75.5 757,-75.5 757,-56.5 661,-56.5"/>
<text text-anchor="middle" x="709" y="-63.5" font-family="Arial.ttf" font-size="10.00">SLUniformGrid.cpp</text>
</a>
</g>
</g>
<!-- Node22&#45;&gt;Node31 -->
<g id="edge37" class="edge"><title>Node22&#45;&gt;Node31</title>
<path fill="none" stroke="midnightblue" d="M670.294,-105.002C680.041,-95.4329 692.053,-83.6389 700.087,-75.7511"/>
<polygon fill="midnightblue" stroke="midnightblue" points="667.766,-102.58 663.082,-112.083 672.67,-107.575 667.766,-102.58"/>
</g>
<!-- Node32 -->
<g id="node32" class="node"><title>Node32</title>
<g id="a_node32"><a xlink:href="_s_l_button_8h.html" target="_top" xlink:title="SLButton.h">
<polygon fill="white" stroke="black" points="775,-56.5 775,-75.5 837,-75.5 837,-56.5 775,-56.5"/>
<text text-anchor="middle" x="806" y="-63.5" font-family="Arial.ttf" font-size="10.00">SLButton.h</text>
</a>
</g>
</g>
<!-- Node22&#45;&gt;Node32 -->
<g id="edge38" class="edge"><title>Node22&#45;&gt;Node32</title>
<path fill="none" stroke="midnightblue" d="M687.668,-109.039C716.268,-98.8786 756.612,-84.5457 782.028,-75.5164"/>
<polygon fill="midnightblue" stroke="midnightblue" points="686.336,-105.798 678.085,-112.444 688.68,-112.394 686.336,-105.798"/>
</g>
<!-- Node32&#45;&gt;Node18 -->
<g id="edge40" class="edge"><title>Node32&#45;&gt;Node18</title>
<path fill="none" stroke="midnightblue" d="M831.088,-51.4526C849.549,-41.4835 874.097,-28.2279 889.973,-19.6545"/>
<polygon fill="midnightblue" stroke="midnightblue" points="829.203,-48.4928 822.067,-56.324 832.529,-54.6521 829.203,-48.4928"/>
</g>
<!-- Node33 -->
<g id="node33" class="node"><title>Node33</title>
<g id="a_node33"><a xlink:href="_s_l_button_8cpp.html" target="_top" xlink:title="SLButton.cpp">
<polygon fill="white" stroke="black" points="670,-0.5 670,-19.5 742,-19.5 742,-0.5 670,-0.5"/>
<text text-anchor="middle" x="706" y="-7.5" font-family="Arial.ttf" font-size="10.00">SLButton.cpp</text>
</a>
</g>
</g>
<!-- Node32&#45;&gt;Node33 -->
<g id="edge39" class="edge"><title>Node32&#45;&gt;Node33</title>
<path fill="none" stroke="midnightblue" d="M780.912,-51.4526C762.451,-41.4835 737.903,-28.2279 722.027,-19.6545"/>
<polygon fill="midnightblue" stroke="midnightblue" points="779.471,-54.6521 789.933,-56.324 782.797,-48.4928 779.471,-54.6521"/>
</g>
<!-- Node34 -->
<g id="node34" class="node"><title>Node34</title>
<g id="a_node34"><a xlink:href="_s_l_scene_view_8cpp.html" target="_top" xlink:title="SLSceneView.cpp">
<polygon fill="white" stroke="black" points="760,-0.5 760,-19.5 852,-19.5 852,-0.5 760,-0.5"/>
<text text-anchor="middle" x="806" y="-7.5" font-family="Arial.ttf" font-size="10.00">SLSceneView.cpp</text>
</a>
</g>
</g>
<!-- Node32&#45;&gt;Node34 -->
<g id="edge41" class="edge"><title>Node32&#45;&gt;Node34</title>
<path fill="none" stroke="midnightblue" d="M806,-45.8045C806,-36.9102 806,-26.7798 806,-19.7511"/>
<polygon fill="midnightblue" stroke="midnightblue" points="802.5,-46.083 806,-56.083 809.5,-46.083 802.5,-46.083"/>
</g>
</g>
</svg>
