<?xml version="1.0" encoding="UTF-8" standalone="no"?>
<!DOCTYPE svg PUBLIC "-//W3C//DTD SVG 1.1//EN"
 "http://www.w3.org/Graphics/SVG/1.1/DTD/svg11.dtd">
<!-- Generated by graphviz version 2.36.0 (20140111.2315)
 -->
<!-- Title: SLAnimKeyframe.h Pages: 1 -->
<svg width="3225pt" height="420pt"
 viewBox="0.00 0.00 3225.00 420.00" xmlns="http://www.w3.org/2000/svg" xmlns:xlink="http://www.w3.org/1999/xlink">
<g id="graph0" class="graph" transform="scale(1 1) rotate(0) translate(4 416)">
<title>SLAnimKeyframe.h</title>
<polygon fill="white" stroke="none" points="-4,4 -4,-416 3221,-416 3221,4 -4,4"/>
<!-- Node1 -->
<g id="node1" class="node"><title>Node1</title>
<polygon fill="#bfbfbf" stroke="black" points="165.5,-392.5 165.5,-411.5 268.5,-411.5 268.5,-392.5 165.5,-392.5"/>
<text text-anchor="middle" x="217" y="-399.5" font-family="Arial.ttf" font-size="10.00">SLAnimKeyframe.h</text>
</g>
<!-- Node2 -->
<g id="node2" class="node"><title>Node2</title>
<g id="a_node2"><a xlink:href="_s_l_anim_keyframe_8cpp.html" target="_top" xlink:title="SLAnimKeyframe.cpp">
<polygon fill="white" stroke="black" points="102.5,-336.5 102.5,-355.5 215.5,-355.5 215.5,-336.5 102.5,-336.5"/>
<text text-anchor="middle" x="159" y="-343.5" font-family="Arial.ttf" font-size="10.00">SLAnimKeyframe.cpp</text>
</a>
</g>
</g>
<!-- Node1&#45;&gt;Node2 -->
<g id="edge1" class="edge"><title>Node1&#45;&gt;Node2</title>
<path fill="none" stroke="midnightblue" d="M200.087,-385.253C189.797,-375.673 177.034,-363.791 168.488,-355.834"/>
<polygon fill="midnightblue" stroke="midnightblue" points="197.977,-388.071 207.681,-392.324 202.747,-382.948 197.977,-388.071"/>
</g>
<!-- Node3 -->
<g id="node3" class="node"><title>Node3</title>
<g id="a_node3"><a xlink:href="_s_l_anim_track_8h.html" target="_top" xlink:title="SLAnimTrack.h">
<polygon fill="white" stroke="black" points="233.5,-336.5 233.5,-355.5 318.5,-355.5 318.5,-336.5 233.5,-336.5"/>
<text text-anchor="middle" x="276" y="-343.5" font-family="Arial.ttf" font-size="10.00">SLAnimTrack.h</text>
</a>
</g>
</g>
<!-- Node1&#45;&gt;Node3 -->
<g id="edge2" class="edge"><title>Node1&#45;&gt;Node3</title>
<path fill="none" stroke="midnightblue" d="M233.895,-385.537C244.415,-375.909 257.569,-363.869 266.348,-355.834"/>
<polygon fill="midnightblue" stroke="midnightblue" points="231.493,-382.99 226.479,-392.324 236.219,-388.154 231.493,-382.99"/>
</g>
<!-- Node4 -->
<g id="node4" class="node"><title>Node4</title>
<g id="a_node4"><a xlink:href="_s_l_anim_track_8cpp.html" target="_top" xlink:title="SLAnimTrack.cpp">
<polygon fill="white" stroke="black" points="-0.5,-0.5 -0.5,-19.5 94.5,-19.5 94.5,-0.5 -0.5,-0.5"/>
<text text-anchor="middle" x="47" y="-7.5" font-family="Arial.ttf" font-size="10.00">SLAnimTrack.cpp</text>
</a>
</g>
</g>
<!-- Node3&#45;&gt;Node4 -->
<g id="edge3" class="edge"><title>Node3&#45;&gt;Node4</title>
<path fill="none" stroke="midnightblue" d="M235.58,-333.536C172.552,-314.444 58,-274.334 58,-235 58,-235 58,-235 58,-121 58,-82.9989 51.4197,-37.9781 48.4381,-19.5287"/>
<polygon fill="midnightblue" stroke="midnightblue" points="234.645,-336.909 245.228,-336.416 236.647,-330.202 234.645,-336.909"/>
</g>
<!-- Node5 -->
<g id="node5" class="node"><title>Node5</title>
<g id="a_node5"><a xlink:href="_s_l_animation_8h.html" target="_top" xlink:title="SLAnimation.h">
<polygon fill="white" stroke="black" points="411,-280.5 411,-299.5 493,-299.5 493,-280.5 411,-280.5"/>
<text text-anchor="middle" x="452" y="-287.5" font-family="Arial.ttf" font-size="10.00">SLAnimation.h</text>
</a>
</g>
</g>
<!-- Node3&#45;&gt;Node5 -->
<g id="edge4" class="edge"><title>Node3&#45;&gt;Node5</title>
<path fill="none" stroke="midnightblue" d="M313.689,-333.436C346.872,-323.255 394.428,-308.664 424.243,-299.516"/>
<polygon fill="midnightblue" stroke="midnightblue" points="312.421,-330.164 303.888,-336.444 314.475,-336.856 312.421,-330.164"/>
</g>
<!-- Node5&#45;&gt;Node4 -->
<g id="edge7" class="edge"><title>Node5&#45;&gt;Node4</title>
<path fill="none" stroke="midnightblue" d="M400.696,-283.861C302.581,-272.604 98,-241.624 98,-179 98,-179 98,-179 98,-121 98,-79.9526 68.409,-37.6147 54.3071,-19.7686"/>
<polygon fill="midnightblue" stroke="midnightblue" points="400.371,-287.346 410.699,-284.982 401.151,-280.39 400.371,-287.346"/>
</g>
<!-- Node6 -->
<g id="node6" class="node"><title>Node6</title>
<g id="a_node6"><a xlink:href="_s_l_assimp_importer_8cpp.html" target="_top" xlink:title="SLAssimpImporter.cpp">
<polygon fill="white" stroke="black" points="352,-56.5 352,-75.5 470,-75.5 470,-56.5 352,-56.5"/>
<text text-anchor="middle" x="411" y="-63.5" font-family="Arial.ttf" font-size="10.00">SLAssimpImporter.cpp</text>
</a>
</g>
</g>
<!-- Node5&#45;&gt;Node6 -->
<g id="edge5" class="edge"><title>Node5&#45;&gt;Node6</title>
<path fill="none" stroke="midnightblue" d="M448.546,-270.295C440.114,-224.644 418.73,-108.854 412.641,-75.8837"/>
<polygon fill="midnightblue" stroke="midnightblue" points="445.135,-271.099 450.393,-280.297 452.018,-269.828 445.135,-271.099"/>
</g>
<!-- Node7 -->
<g id="node7" class="node"><title>Node7</title>
<g id="a_node7"><a xlink:href="_s_l_anim_playback_8cpp.html" target="_top" xlink:title="SLAnimPlayback.cpp">
<polygon fill="white" stroke="black" points="588.5,-224.5 588.5,-243.5 699.5,-243.5 699.5,-224.5 588.5,-224.5"/>
<text text-anchor="middle" x="644" y="-231.5" font-family="Arial.ttf" font-size="10.00">SLAnimPlayback.cpp</text>
</a>
</g>
</g>
<!-- Node5&#45;&gt;Node7 -->
<g id="edge6" class="edge"><title>Node5&#45;&gt;Node7</title>
<path fill="none" stroke="midnightblue" d="M492.183,-277.699C528.419,-267.507 580.914,-252.743 613.719,-243.516"/>
<polygon fill="midnightblue" stroke="midnightblue" points="491.102,-274.367 482.423,-280.444 492.997,-281.105 491.102,-274.367"/>
</g>
<!-- Node8 -->
<g id="node8" class="node"><title>Node8</title>
<g id="a_node8"><a xlink:href="_s_l_node_8cpp.html" target="_top" xlink:title="SLNode.cpp">
<polygon fill="white" stroke="black" points="3145,-0.5 3145,-19.5 3217,-19.5 3217,-0.5 3145,-0.5"/>
<text text-anchor="middle" x="3181" y="-7.5" font-family="Arial.ttf" font-size="10.00">SLNode.cpp</text>
</a>
</g>
</g>
<!-- Node5&#45;&gt;Node8 -->
<g id="edge8" class="edge"><title>Node5&#45;&gt;Node8</title>
<path fill="none" stroke="midnightblue" d="M503.281,-288.308C877.08,-283.099 3168,-248.346 3168,-179 3168,-179 3168,-179 3168,-121 3168,-82.9244 3175.78,-37.9444 3179.3,-19.5172"/>
<polygon fill="midnightblue" stroke="midnightblue" points="502.987,-284.811 493.037,-288.45 503.084,-291.811 502.987,-284.811"/>
</g>
<!-- Node9 -->
<g id="node9" class="node"><title>Node9</title>
<g id="a_node9"><a xlink:href="_s_l_importer_8h.html" target="_top" xlink:title="SLImporter.h">
<polygon fill="white" stroke="black" points="233,-168.5 233,-187.5 307,-187.5 307,-168.5 233,-168.5"/>
<text text-anchor="middle" x="270" y="-175.5" font-family="Arial.ttf" font-size="10.00">SLImporter.h</text>
</a>
</g>
</g>
<!-- Node5&#45;&gt;Node9 -->
<g id="edge9" class="edge"><title>Node5&#45;&gt;Node9</title>
<path fill="none" stroke="midnightblue" d="M428.851,-275.009C390.648,-251.919 315.517,-206.51 284.215,-187.591"/>
<polygon fill="midnightblue" stroke="midnightblue" points="427.35,-278.191 437.719,-280.368 430.971,-272.2 427.35,-278.191"/>
</g>
<!-- Node16 -->
<g id="node16" class="node"><title>Node16</title>
<g id="a_node16"><a xlink:href="_s_l_anim_manager_8h.html" target="_top" xlink:title="SLAnimManager.h">
<polygon fill="white" stroke="black" points="2912.5,-168.5 2912.5,-187.5 3011.5,-187.5 3011.5,-168.5 2912.5,-168.5"/>
<text text-anchor="middle" x="2962" y="-175.5" font-family="Arial.ttf" font-size="10.00">SLAnimManager.h</text>
</a>
</g>
</g>
<!-- Node5&#45;&gt;Node16 -->
<g id="edge17" class="edge"><title>Node5&#45;&gt;Node16</title>
<path fill="none" stroke="midnightblue" d="M478.271,-275.858C496.023,-266.943 519.968,-254.851 541,-244 557.961,-235.249 560.508,-228.722 579,-224 828.686,-160.244 2641.08,-207.981 2898,-188 2902.7,-187.635 2907.58,-187.147 2912.45,-186.587"/>
<polygon fill="midnightblue" stroke="midnightblue" points="476.474,-272.844 469.104,-280.456 479.612,-279.101 476.474,-272.844"/>
</g>
<!-- Node49 -->
<g id="node49" class="node"><title>Node49</title>
<g id="a_node49"><a xlink:href="_s_l_skeleton_8h.html" target="_top" xlink:title="SLSkeleton.h">
<polygon fill="white" stroke="black" points="456,-224.5 456,-243.5 532,-243.5 532,-224.5 456,-224.5"/>
<text text-anchor="middle" x="494" y="-231.5" font-family="Arial.ttf" font-size="10.00">SLSkeleton.h</text>
</a>
</g>
</g>
<!-- Node5&#45;&gt;Node49 -->
<g id="edge70" class="edge"><title>Node5&#45;&gt;Node49</title>
<path fill="none" stroke="midnightblue" d="M465.11,-272.144C472.428,-262.736 481.241,-251.405 487.194,-243.751"/>
<polygon fill="midnightblue" stroke="midnightblue" points="462.312,-270.041 458.935,-280.083 467.838,-274.338 462.312,-270.041"/>
</g>
<!-- Node10 -->
<g id="node10" class="node"><title>Node10</title>
<g id="a_node10"><a xlink:href="_s_l_importer_8cpp.html" target="_top" xlink:title="SLImporter.cpp">
<polygon fill="white" stroke="black" points="170.5,-112.5 170.5,-131.5 255.5,-131.5 255.5,-112.5 170.5,-112.5"/>
<text text-anchor="middle" x="213" y="-119.5" font-family="Arial.ttf" font-size="10.00">SLImporter.cpp</text>
</a>
</g>
</g>
<!-- Node9&#45;&gt;Node10 -->
<g id="edge10" class="edge"><title>Node9&#45;&gt;Node10</title>
<path fill="none" stroke="midnightblue" d="M253.379,-161.253C243.266,-151.673 230.723,-139.791 222.325,-131.834"/>
<polygon fill="midnightblue" stroke="midnightblue" points="251.175,-163.987 260.842,-168.324 255.99,-158.906 251.175,-163.987"/>
</g>
<!-- Node11 -->
<g id="node11" class="node"><title>Node11</title>
<g id="a_node11"><a xlink:href="_s_l_assimp_importer_8h.html" target="_top" xlink:title="SLAssimpImporter.h">
<polygon fill="white" stroke="black" points="273.5,-112.5 273.5,-131.5 380.5,-131.5 380.5,-112.5 273.5,-112.5"/>
<text text-anchor="middle" x="327" y="-119.5" font-family="Arial.ttf" font-size="10.00">SLAssimpImporter.h</text>
</a>
</g>
</g>
<!-- Node9&#45;&gt;Node11 -->
<g id="edge11" class="edge"><title>Node9&#45;&gt;Node11</title>
<path fill="none" stroke="midnightblue" d="M286.621,-161.253C296.734,-151.673 309.277,-139.791 317.675,-131.834"/>
<polygon fill="midnightblue" stroke="midnightblue" points="284.01,-158.906 279.158,-168.324 288.825,-163.987 284.01,-158.906"/>
</g>
<!-- Node15 -->
<g id="node15" class="node"><title>Node15</title>
<g id="a_node15"><a xlink:href="_app_demo_gui_8cpp.html" target="_top" xlink:title="AppDemoGui.cpp">
<polygon fill="white" stroke="black" points="112.5,-0.5 112.5,-19.5 207.5,-19.5 207.5,-0.5 112.5,-0.5"/>
<text text-anchor="middle" x="160" y="-7.5" font-family="Arial.ttf" font-size="10.00">AppDemoGui.cpp</text>
</a>
</g>
</g>
<!-- Node9&#45;&gt;Node15 -->
<g id="edge16" class="edge"><title>Node9&#45;&gt;Node15</title>
<path fill="none" stroke="midnightblue" d="M222.887,-169.863C200.184,-163.804 174.919,-152.62 161,-132 137.023,-96.4795 150.624,-40.7336 157.139,-19.5524"/>
<polygon fill="midnightblue" stroke="midnightblue" points="222.212,-173.301 232.752,-172.231 223.845,-166.494 222.212,-173.301"/>
</g>
<!-- Node11&#45;&gt;Node6 -->
<g id="edge12" class="edge"><title>Node11&#45;&gt;Node6</title>
<path fill="none" stroke="midnightblue" d="M348.932,-106.901C364.335,-96.9986 384.446,-84.0705 397.537,-75.6545"/>
<polygon fill="midnightblue" stroke="midnightblue" points="347.015,-103.972 340.496,-112.324 350.801,-109.86 347.015,-103.972"/>
</g>
<!-- Node12 -->
<g id="node12" class="node"><title>Node12</title>
<g id="a_node12"><a xlink:href="_s_l_interface_8cpp.html" target="_top" xlink:title="SLProject C&#45;functions interface implementation. ">
<polygon fill="white" stroke="black" points="346.5,-0.5 346.5,-19.5 433.5,-19.5 433.5,-0.5 346.5,-0.5"/>
<text text-anchor="middle" x="390" y="-7.5" font-family="Arial.ttf" font-size="10.00">SLInterface.cpp</text>
</a>
</g>
</g>
<!-- Node11&#45;&gt;Node12 -->
<g id="edge13" class="edge"><title>Node11&#45;&gt;Node12</title>
<path fill="none" stroke="midnightblue" d="M315.588,-103.58C308.183,-89.8932 301.376,-70.746 310,-56 320.7,-37.7051 341.875,-26.2737 359.753,-19.5122"/>
<polygon fill="midnightblue" stroke="midnightblue" points="312.744,-105.645 320.873,-112.44 318.756,-102.059 312.744,-105.645"/>
</g>
<!-- Node13 -->
<g id="node13" class="node"><title>Node13</title>
<g id="a_node13"><a xlink:href="_s_l_scene_8cpp.html" target="_top" xlink:title="SLScene.cpp">
<polygon fill="white" stroke="black" points="452,-0.5 452,-19.5 528,-19.5 528,-0.5 452,-0.5"/>
<text text-anchor="middle" x="490" y="-7.5" font-family="Arial.ttf" font-size="10.00">SLScene.cpp</text>
</a>
</g>
</g>
<!-- Node11&#45;&gt;Node13 -->
<g id="edge14" class="edge"><title>Node11&#45;&gt;Node13</title>
<path fill="none" stroke="midnightblue" d="M326.881,-101.897C327.816,-87.5197 331.406,-68.2587 343,-56 357.947,-40.1964 413.455,-26.2742 451.813,-18.2445"/>
<polygon fill="midnightblue" stroke="midnightblue" points="323.375,-102.061 326.598,-112.154 330.373,-102.254 323.375,-102.061"/>
</g>
<!-- Node14 -->
<g id="node14" class="node"><title>Node14</title>
<g id="a_node14"><a xlink:href="_app_demo_load_8cpp.html" target="_top" xlink:title="AppDemoLoad.cpp">
<polygon fill="white" stroke="black" points="226,-0.5 226,-19.5 328,-19.5 328,-0.5 226,-0.5"/>
<text text-anchor="middle" x="277" y="-7.5" font-family="Arial.ttf" font-size="10.00">AppDemoLoad.cpp</text>
</a>
</g>
</g>
<!-- Node11&#45;&gt;Node14 -->
<g id="edge15" class="edge"><title>Node11&#45;&gt;Node14</title>
<path fill="none" stroke="midnightblue" d="M301.141,-106.947C289.994,-99.3833 278.128,-88.9319 272,-76 263.276,-57.59 269.292,-32.934 273.633,-19.9171"/>
<polygon fill="midnightblue" stroke="midnightblue" points="299.472,-110.032 309.802,-112.386 303.195,-104.104 299.472,-110.032"/>
</g>
<!-- Node16&#45;&gt;Node16 -->
<g id="edge19" class="edge"><title>Node16&#45;&gt;Node16</title>
<path fill="none" stroke="midnightblue" d="M3000.89,-188.448C3016.21,-188.974 3029,-185.492 3029,-178 3029,-168.867 3009.99,-165.692 2990.58,-168.475"/>
<polygon fill="midnightblue" stroke="midnightblue" points="3000.85,-184.93 2990.58,-187.525 3000.22,-191.902 3000.85,-184.93"/>
</g>
<!-- Node17 -->
<g id="node17" class="node"><title>Node17</title>
<g id="a_node17"><a xlink:href="_s_l_scene_view_8cpp.html" target="_top" xlink:title="SLSceneView.cpp">
<polygon fill="white" stroke="black" points="3029,-0.5 3029,-19.5 3127,-19.5 3127,-0.5 3029,-0.5"/>
<text text-anchor="middle" x="3078" y="-7.5" font-family="Arial.ttf" font-size="10.00">SLSceneView.cpp</text>
</a>
</g>
</g>
<!-- Node16&#45;&gt;Node17 -->
<g id="edge18" class="edge"><title>Node16&#45;&gt;Node17</title>
<path fill="none" stroke="midnightblue" d="M2982.91,-162.287C3006.43,-144.584 3043.93,-112.627 3064,-76 3074.1,-57.5752 3076.91,-32.495 3077.7,-19.5351"/>
<polygon fill="midnightblue" stroke="midnightblue" points="2980.64,-159.614 2974.65,-168.355 2984.78,-165.256 2980.64,-159.614"/>
</g>
<!-- Node18 -->
<g id="node18" class="node"><title>Node18</title>
<g id="a_node18"><a xlink:href="_s_l_scene_8h.html" target="_top" xlink:title="SLScene.h">
<polygon fill="white" stroke="black" points="1714.5,-112.5 1714.5,-131.5 1779.5,-131.5 1779.5,-112.5 1714.5,-112.5"/>
<text text-anchor="middle" x="1747" y="-119.5" font-family="Arial.ttf" font-size="10.00">SLScene.h</text>
</a>
</g>
</g>
<!-- Node16&#45;&gt;Node18 -->
<g id="edge20" class="edge"><title>Node16&#45;&gt;Node18</title>
<path fill="none" stroke="midnightblue" d="M2902.26,-174.345C2685.46,-164.709 1944.25,-131.767 1779.59,-124.448"/>
<polygon fill="midnightblue" stroke="midnightblue" points="2902.34,-177.852 2912.49,-174.799 2902.65,-170.859 2902.34,-177.852"/>
</g>
<!-- Node18&#45;&gt;Node6 -->
<g id="edge31" class="edge"><title>Node18&#45;&gt;Node6</title>
<path fill="none" stroke="midnightblue" d="M1703.82,-120.823C1542.69,-119.871 961.332,-113.856 484,-76 479.545,-75.6467 474.943,-75.2217 470.318,-74.7513"/>
<polygon fill="midnightblue" stroke="midnightblue" points="1704.23,-124.325 1714.25,-120.88 1704.27,-117.325 1704.23,-124.325"/>
</g>
<!-- Node18&#45;&gt;Node12 -->
<g id="edge32" class="edge"><title>Node18&#45;&gt;Node12</title>
<path fill="none" stroke="midnightblue" d="M1704.26,-120.46C1507.92,-117.828 697.288,-105.265 588,-76 569.564,-71.0633 567.729,-63.0671 550,-56 509.794,-39.9726 461.772,-27.2778 428.898,-19.5127"/>
<polygon fill="midnightblue" stroke="midnightblue" points="1704.42,-123.962 1714.47,-120.595 1704.52,-116.963 1704.42,-123.962"/>
</g>
<!-- Node18&#45;&gt;Node13 -->
<g id="edge42" class="edge"><title>Node18&#45;&gt;Node13</title>
<path fill="none" stroke="midnightblue" d="M1704.03,-120.266C1511.92,-116.851 736.539,-101.584 631,-76 610.516,-71.0344 607.133,-64.8422 588,-56 560.469,-43.2764 528.537,-28.6358 508.8,-19.5996"/>
<polygon fill="midnightblue" stroke="midnightblue" points="1704.23,-123.77 1714.29,-120.447 1704.36,-116.771 1704.23,-123.77"/>
</g>
<!-- Node18&#45;&gt;Node14 -->
<g id="edge68" class="edge"><title>Node18&#45;&gt;Node14</title>
<path fill="none" stroke="midnightblue" d="M1704.16,-120.515C1503.67,-118.096 663.125,-106.218 550,-76 531.561,-71.0746 530.013,-62.3078 512,-56 478.822,-44.3817 386.797,-28.4565 328.238,-18.9976"/>
<polygon fill="midnightblue" stroke="midnightblue" points="1704.25,-124.017 1714.29,-120.636 1704.34,-117.017 1704.25,-124.017"/>
</g>
<!-- Node18&#45;&gt;Node15 -->
<g id="edge67" class="edge"><title>Node18&#45;&gt;Node15</title>
<path fill="none" stroke="midnightblue" d="M1704.4,-120.719C1500.36,-119.2 628.047,-110.711 512,-76 495.569,-71.0854 495.164,-61.7307 479,-56 368.218,-16.7241 333.278,-37.1667 217,-20 213.928,-19.5464 210.763,-19.0707 207.575,-18.5849"/>
<polygon fill="midnightblue" stroke="midnightblue" points="1704.41,-124.219 1714.43,-120.792 1704.46,-117.219 1704.41,-124.219"/>
</g>
<!-- Node19 -->
<g id="node19" class="node"><title>Node19</title>
<g id="a_node19"><a xlink:href="_s_l_g_l_im_gui_8cpp.html" target="_top" xlink:title="SLGLImGui.cpp">
<polygon fill="white" stroke="black" points="784,-56.5 784,-75.5 872,-75.5 872,-56.5 784,-56.5"/>
<text text-anchor="middle" x="828" y="-63.5" font-family="Arial.ttf" font-size="10.00">SLGLImGui.cpp</text>
</a>
</g>
</g>
<!-- Node18&#45;&gt;Node19 -->
<g id="edge21" class="edge"><title>Node18&#45;&gt;Node19</title>
<path fill="none" stroke="midnightblue" d="M1704.1,-120.301C1578.2,-117.916 1198.85,-108.364 886,-76 881.54,-75.5386 876.9,-74.97 872.273,-74.3446"/>
<polygon fill="midnightblue" stroke="midnightblue" points="1704.4,-123.806 1714.46,-120.491 1704.52,-116.808 1704.4,-123.806"/>
</g>
<!-- Node20 -->
<g id="node20" class="node"><title>Node20</title>
<g id="a_node20"><a xlink:href="_s_l_g_l_oculus_8cpp.html" target="_top" xlink:title="SLGLOculus.cpp">
<polygon fill="white" stroke="black" points="2919,-0.5 2919,-19.5 3011,-19.5 3011,-0.5 2919,-0.5"/>
<text text-anchor="middle" x="2965" y="-7.5" font-family="Arial.ttf" font-size="10.00">SLGLOculus.cpp</text>
</a>
</g>
</g>
<!-- Node18&#45;&gt;Node20 -->
<g id="edge22" class="edge"><title>Node18&#45;&gt;Node20</title>
<path fill="none" stroke="midnightblue" d="M1789.7,-121.168C2009.33,-121.83 3003.32,-122.254 3048,-76 3070.19,-53.0294 3023.56,-31.173 2991.63,-19.5847"/>
<polygon fill="midnightblue" stroke="midnightblue" points="1789.55,-117.668 1779.54,-121.136 1789.53,-124.668 1789.55,-117.668"/>
</g>
<!-- Node21 -->
<g id="node21" class="node"><title>Node21</title>
<g id="a_node21"><a xlink:href="_s_l_g_l_oculus_f_b_8cpp.html" target="_top" xlink:title="SLGLOculusFB.cpp">
<polygon fill="white" stroke="black" points="928.5,-56.5 928.5,-75.5 1033.5,-75.5 1033.5,-56.5 928.5,-56.5"/>
<text text-anchor="middle" x="981" y="-63.5" font-family="Arial.ttf" font-size="10.00">SLGLOculusFB.cpp</text>
</a>
</g>
</g>
<!-- Node18&#45;&gt;Node21 -->
<g id="edge23" class="edge"><title>Node18&#45;&gt;Node21</title>
<path fill="none" stroke="midnightblue" d="M1704.19,-119.503C1594.1,-115.384 1292.2,-102.396 1042,-76 1039.23,-75.708 1036.4,-75.3824 1033.54,-75.0332"/>
<polygon fill="midnightblue" stroke="midnightblue" points="1704.12,-123.002 1714.24,-119.874 1704.38,-116.007 1704.12,-123.002"/>
</g>
<!-- Node22 -->
<g id="node22" class="node"><title>Node22</title>
<g id="a_node22"><a xlink:href="_s_l_g_l_program_8cpp.html" target="_top" xlink:title="SLGLProgram.cpp">
<polygon fill="white" stroke="black" points="1051.5,-56.5 1051.5,-75.5 1150.5,-75.5 1150.5,-56.5 1051.5,-56.5"/>
<text text-anchor="middle" x="1101" y="-63.5" font-family="Arial.ttf" font-size="10.00">SLGLProgram.cpp</text>
</a>
</g>
</g>
<!-- Node18&#45;&gt;Node22 -->
<g id="edge24" class="edge"><title>Node18&#45;&gt;Node22</title>
<path fill="none" stroke="midnightblue" d="M1704.48,-118.834C1607.63,-113.664 1363.3,-99.2655 1160,-76 1156.91,-75.6466 1153.74,-75.2524 1150.54,-74.8319"/>
<polygon fill="midnightblue" stroke="midnightblue" points="1704.29,-122.33 1714.46,-119.363 1704.66,-115.339 1704.29,-122.33"/>
</g>
<!-- Node23 -->
<g id="node23" class="node"><title>Node23</title>
<g id="a_node23"><a xlink:href="_s_l_g_l_texture_8cpp.html" target="_top" xlink:title="SLGLTexture.cpp">
<polygon fill="white" stroke="black" points="1168.5,-56.5 1168.5,-75.5 1263.5,-75.5 1263.5,-56.5 1168.5,-56.5"/>
<text text-anchor="middle" x="1216" y="-63.5" font-family="Arial.ttf" font-size="10.00">SLGLTexture.cpp</text>
</a>
</g>
</g>
<!-- Node18&#45;&gt;Node23 -->
<g id="edge25" class="edge"><title>Node18&#45;&gt;Node23</title>
<path fill="none" stroke="midnightblue" d="M1704.38,-117.844C1621.24,-111.491 1431.67,-96.0388 1273,-76 1269.92,-75.6109 1266.75,-75.184 1263.55,-74.7342"/>
<polygon fill="midnightblue" stroke="midnightblue" points="1704.22,-121.342 1714.45,-118.609 1704.75,-114.362 1704.22,-121.342"/>
</g>
<!-- Node24 -->
<g id="node24" class="node"><title>Node24</title>
<g id="a_node24"><a xlink:href="_s_l_g_l_vertex_array_8cpp.html" target="_top" xlink:title="SLGLVertexArray.cpp">
<polygon fill="white" stroke="black" points="1282,-56.5 1282,-75.5 1396,-75.5 1396,-56.5 1282,-56.5"/>
<text text-anchor="middle" x="1339" y="-63.5" font-family="Arial.ttf" font-size="10.00">SLGLVertexArray.cpp</text>
</a>
</g>
</g>
<!-- Node18&#45;&gt;Node24 -->
<g id="edge26" class="edge"><title>Node18&#45;&gt;Node24</title>
<path fill="none" stroke="midnightblue" d="M1704.23,-115.438C1639.47,-107.002 1512.67,-90.4251 1405,-76 1402.13,-75.6161 1399.2,-75.2214 1396.24,-74.8215"/>
<polygon fill="midnightblue" stroke="midnightblue" points="1704.09,-118.949 1714.46,-116.77 1704.99,-112.008 1704.09,-118.949"/>
</g>
<!-- Node25 -->
<g id="node25" class="node"><title>Node25</title>
<g id="a_node25"><a xlink:href="_s_l_g_l_vertex_array_ext_8cpp.html" target="_top" xlink:title="SLGLVertexArrayExt.cpp">
<polygon fill="white" stroke="black" points="1414,-56.5 1414,-75.5 1542,-75.5 1542,-56.5 1414,-56.5"/>
<text text-anchor="middle" x="1478" y="-63.5" font-family="Arial.ttf" font-size="10.00">SLGLVertexArrayExt.cpp</text>
</a>
</g>
</g>
<!-- Node18&#45;&gt;Node25 -->
<g id="edge27" class="edge"><title>Node18&#45;&gt;Node25</title>
<path fill="none" stroke="midnightblue" d="M1704.38,-112.444C1654.09,-102.349 1570.97,-85.6635 1520.66,-75.5645"/>
<polygon fill="midnightblue" stroke="midnightblue" points="1703.79,-115.896 1714.28,-114.433 1705.17,-109.033 1703.79,-115.896"/>
</g>
<!-- Node26 -->
<g id="node26" class="node"><title>Node26</title>
<g id="a_node26"><a xlink:href="_s_l_g_l_vertex_buffer_8cpp.html" target="_top" xlink:title="SLGLVertexBuffer.cpp">
<polygon fill="white" stroke="black" points="1560.5,-56.5 1560.5,-75.5 1677.5,-75.5 1677.5,-56.5 1560.5,-56.5"/>
<text text-anchor="middle" x="1619" y="-63.5" font-family="Arial.ttf" font-size="10.00">SLGLVertexBuffer.cpp</text>
</a>
</g>
</g>
<!-- Node18&#45;&gt;Node26 -->
<g id="edge28" class="edge"><title>Node18&#45;&gt;Node26</title>
<path fill="none" stroke="midnightblue" d="M1717.38,-108.503C1693.38,-98.3795 1660.22,-84.388 1639.19,-75.5164"/>
<polygon fill="midnightblue" stroke="midnightblue" points="1716.14,-111.781 1726.72,-112.444 1718.86,-105.332 1716.14,-111.781"/>
</g>
<!-- Node27 -->
<g id="node27" class="node"><title>Node27</title>
<g id="a_node27"><a xlink:href="_s_l_curve_bezier_8cpp.html" target="_top" xlink:title="SLCurveBezier.cpp">
<polygon fill="white" stroke="black" points="1695.5,-56.5 1695.5,-75.5 1798.5,-75.5 1798.5,-56.5 1695.5,-56.5"/>
<text text-anchor="middle" x="1747" y="-63.5" font-family="Arial.ttf" font-size="10.00">SLCurveBezier.cpp</text>
</a>
</g>
</g>
<!-- Node18&#45;&gt;Node27 -->
<g id="edge29" class="edge"><title>Node18&#45;&gt;Node27</title>
<path fill="none" stroke="midnightblue" d="M1747,-101.805C1747,-92.9102 1747,-82.7798 1747,-75.7511"/>
<polygon fill="midnightblue" stroke="midnightblue" points="1743.5,-102.083 1747,-112.083 1750.5,-102.083 1743.5,-102.083"/>
</g>
<!-- Node28 -->
<g id="node28" class="node"><title>Node28</title>
<g id="a_node28"><a xlink:href="_s_l_application_8cpp.html" target="_top" xlink:title="SLApplication.cpp">
<polygon fill="white" stroke="black" points="1816.5,-56.5 1816.5,-75.5 1913.5,-75.5 1913.5,-56.5 1816.5,-56.5"/>
<text text-anchor="middle" x="1865" y="-63.5" font-family="Arial.ttf" font-size="10.00">SLApplication.cpp</text>
</a>
</g>
</g>
<!-- Node18&#45;&gt;Node28 -->
<g id="edge30" class="edge"><title>Node18&#45;&gt;Node28</title>
<path fill="none" stroke="midnightblue" d="M1774.9,-108.232C1796.97,-98.1312 1827.18,-84.3091 1846.39,-75.5164"/>
<polygon fill="midnightblue" stroke="midnightblue" points="1773.33,-105.1 1765.7,-112.444 1776.25,-111.465 1773.33,-105.1"/>
</g>
<!-- Node29 -->
<g id="node29" class="node"><title>Node29</title>
<g id="a_node29"><a xlink:href="_s_l_tex_font_8cpp.html" target="_top" xlink:title="SLTexFont.cpp">
<polygon fill="white" stroke="black" points="1932,-56.5 1932,-75.5 2016,-75.5 2016,-56.5 1932,-56.5"/>
<text text-anchor="middle" x="1974" y="-63.5" font-family="Arial.ttf" font-size="10.00">SLTexFont.cpp</text>
</a>
</g>
</g>
<!-- Node18&#45;&gt;Node29 -->
<g id="edge33" class="edge"><title>Node18&#45;&gt;Node29</title>
<path fill="none" stroke="midnightblue" d="M1789.37,-110.92C1832.25,-100.721 1897.8,-85.1271 1938.17,-75.5243"/>
<polygon fill="midnightblue" stroke="midnightblue" points="1788.44,-107.544 1779.52,-113.263 1790.06,-114.354 1788.44,-107.544"/>
</g>
<!-- Node30 -->
<g id="node30" class="node"><title>Node30</title>
<g id="a_node30"><a xlink:href="_s_l_a_a_b_box_8cpp.html" target="_top" xlink:title="SLAABBox.cpp">
<polygon fill="white" stroke="black" points="2034.5,-56.5 2034.5,-75.5 2119.5,-75.5 2119.5,-56.5 2034.5,-56.5"/>
<text text-anchor="middle" x="2077" y="-63.5" font-family="Arial.ttf" font-size="10.00">SLAABBox.cpp</text>
</a>
</g>
</g>
<!-- Node18&#45;&gt;Node30 -->
<g id="edge34" class="edge"><title>Node18&#45;&gt;Node30</title>
<path fill="none" stroke="midnightblue" d="M1789.54,-114.261C1844.11,-105.584 1941.65,-89.9591 2025,-76 2028.07,-75.4855 2031.25,-74.9489 2034.44,-74.4051"/>
<polygon fill="midnightblue" stroke="midnightblue" points="1788.87,-110.824 1779.55,-115.85 1789.97,-117.737 1788.87,-110.824"/>
</g>
<!-- Node31 -->
<g id="node31" class="node"><title>Node31</title>
<g id="a_node31"><a xlink:href="_s_l_animation_8cpp.html" target="_top" xlink:title="SLAnimation.cpp">
<polygon fill="white" stroke="black" points="2138,-56.5 2138,-75.5 2230,-75.5 2230,-56.5 2138,-56.5"/>
<text text-anchor="middle" x="2184" y="-63.5" font-family="Arial.ttf" font-size="10.00">SLAnimation.cpp</text>
</a>
</g>
</g>
<!-- Node18&#45;&gt;Node31 -->
<g id="edge35" class="edge"><title>Node18&#45;&gt;Node31</title>
<path fill="none" stroke="midnightblue" d="M1789.95,-116.518C1860.59,-109.016 2005.64,-93.0504 2128,-76 2131.22,-75.5515 2134.54,-75.0691 2137.88,-74.569"/>
<polygon fill="midnightblue" stroke="midnightblue" points="1789.25,-113.073 1779.68,-117.606 1789.99,-120.034 1789.25,-113.073"/>
</g>
<!-- Node32 -->
<g id="node32" class="node"><title>Node32</title>
<g id="a_node32"><a xlink:href="_s_l_anim_manager_8cpp.html" target="_top" xlink:title="SLAnimManager.cpp">
<polygon fill="white" stroke="black" points="2248,-56.5 2248,-75.5 2358,-75.5 2358,-56.5 2248,-56.5"/>
<text text-anchor="middle" x="2303" y="-63.5" font-family="Arial.ttf" font-size="10.00">SLAnimManager.cpp</text>
</a>
</g>
</g>
<!-- Node18&#45;&gt;Node32 -->
<g id="edge36" class="edge"><title>Node18&#45;&gt;Node32</title>
<path fill="none" stroke="midnightblue" d="M1789.67,-117.798C1875.1,-111.232 2073.17,-95.2322 2239,-76 2241.9,-75.6639 2244.87,-75.3033 2247.86,-74.9265"/>
<polygon fill="midnightblue" stroke="midnightblue" points="1789.29,-114.317 1779.58,-118.569 1789.82,-121.296 1789.29,-114.317"/>
</g>
<!-- Node33 -->
<g id="node33" class="node"><title>Node33</title>
<g id="a_node33"><a xlink:href="_s_l_background_8cpp.html" target="_top" xlink:title="SLBackground.cpp">
<polygon fill="white" stroke="black" points="2376.5,-56.5 2376.5,-75.5 2477.5,-75.5 2477.5,-56.5 2376.5,-56.5"/>
<text text-anchor="middle" x="2427" y="-63.5" font-family="Arial.ttf" font-size="10.00">SLBackground.cpp</text>
</a>
</g>
</g>
<!-- Node18&#45;&gt;Node33 -->
<g id="edge37" class="edge"><title>Node18&#45;&gt;Node33</title>
<path fill="none" stroke="midnightblue" d="M1789.78,-119.024C1890.56,-114.122 2150.74,-100.032 2367,-76 2370.04,-75.6626 2373.15,-75.2862 2376.3,-74.8839"/>
<polygon fill="midnightblue" stroke="midnightblue" points="1789.5,-115.533 1779.68,-119.51 1789.84,-122.525 1789.5,-115.533"/>
</g>
<!-- Node34 -->
<g id="node34" class="node"><title>Node34</title>
<g id="a_node34"><a xlink:href="_s_l_input_manager_8cpp.html" target="_top" xlink:title="SLInputManager.cpp">
<polygon fill="white" stroke="black" points="2514.5,-0.5 2514.5,-19.5 2623.5,-19.5 2623.5,-0.5 2514.5,-0.5"/>
<text text-anchor="middle" x="2569" y="-7.5" font-family="Arial.ttf" font-size="10.00">SLInputManager.cpp</text>
</a>
</g>
</g>
<!-- Node18&#45;&gt;Node34 -->
<g id="edge38" class="edge"><title>Node18&#45;&gt;Node34</title>
<path fill="none" stroke="midnightblue" d="M1789.59,-120.735C1977.9,-119.359 2727.89,-111.651 2762,-76 2805.57,-30.4602 2694.89,-16.8249 2623.65,-12.7432"/>
<polygon fill="midnightblue" stroke="midnightblue" points="1789.5,-117.236 1779.52,-120.806 1789.55,-124.235 1789.5,-117.236"/>
</g>
<!-- Node35 -->
<g id="node35" class="node"><title>Node35</title>
<g id="a_node35"><a xlink:href="_s_l_light_direct_8cpp.html" target="_top" xlink:title="SLLightDirect.cpp">
<polygon fill="white" stroke="black" points="1082.5,-0.5 1082.5,-19.5 1177.5,-19.5 1177.5,-0.5 1082.5,-0.5"/>
<text text-anchor="middle" x="1130" y="-7.5" font-family="Arial.ttf" font-size="10.00">SLLightDirect.cpp</text>
</a>
</g>
</g>
<!-- Node18&#45;&gt;Node35 -->
<g id="edge39" class="edge"><title>Node18&#45;&gt;Node35</title>
<path fill="none" stroke="midnightblue" d="M1704.14,-120.646C1520.45,-118.921 807.507,-110.047 775,-76 741.171,-40.5688 666.825,-76.5814 1073,-20 1076.08,-19.5715 1079.24,-19.1148 1082.43,-18.643"/>
<polygon fill="midnightblue" stroke="midnightblue" points="1704.2,-124.146 1714.23,-120.738 1704.26,-117.146 1704.2,-124.146"/>
</g>
<!-- Node36 -->
<g id="node36" class="node"><title>Node36</title>
<g id="a_node36"><a xlink:href="_s_l_light_rect_8cpp.html" target="_top" xlink:title="SLLightRect.cpp">
<polygon fill="white" stroke="black" points="1196,-0.5 1196,-19.5 1286,-19.5 1286,-0.5 1196,-0.5"/>
<text text-anchor="middle" x="1241" y="-7.5" font-family="Arial.ttf" font-size="10.00">SLLightRect.cpp</text>
</a>
</g>
</g>
<!-- Node18&#45;&gt;Node36 -->
<g id="edge40" class="edge"><title>Node18&#45;&gt;Node36</title>
<path fill="none" stroke="midnightblue" d="M1704.2,-120.288C1538.39,-117.323 946.229,-104.749 919,-76 888.545,-43.8449 866.949,-67.6035 1186,-20 1189.25,-19.5145 1192.61,-18.9993 1195.99,-18.4707"/>
<polygon fill="midnightblue" stroke="midnightblue" points="1704.43,-123.792 1714.49,-120.469 1704.55,-116.793 1704.43,-123.792"/>
</g>
<!-- Node37 -->
<g id="node37" class="node"><title>Node37</title>
<g id="a_node37"><a xlink:href="_s_l_light_spot_8cpp.html" target="_top" xlink:title="SLLightSpot.cpp">
<polygon fill="white" stroke="black" points="1444,-0.5 1444,-19.5 1534,-19.5 1534,-0.5 1444,-0.5"/>
<text text-anchor="middle" x="1489" y="-7.5" font-family="Arial.ttf" font-size="10.00">SLLightSpot.cpp</text>
</a>
</g>
</g>
<!-- Node18&#45;&gt;Node37 -->
<g id="edge41" class="edge"><title>Node18&#45;&gt;Node37</title>
<path fill="none" stroke="midnightblue" d="M1789.55,-120.634C1971.92,-118.859 2679.73,-109.807 2712,-76 2718.14,-69.5699 2718.17,-62.3999 2712,-56 2701.57,-45.1841 1754.31,-18.3374 1534.29,-12.2437"/>
<polygon fill="midnightblue" stroke="midnightblue" points="1789.5,-117.134 1779.53,-120.729 1789.57,-124.133 1789.5,-117.134"/>
</g>
<!-- Node38 -->
<g id="node38" class="node"><title>Node38</title>
<g id="a_node38"><a xlink:href="_s_l_skeleton_8cpp.html" target="_top" xlink:title="SLSkeleton.cpp">
<polygon fill="white" stroke="black" points="2802.5,-0.5 2802.5,-19.5 2889.5,-19.5 2889.5,-0.5 2802.5,-0.5"/>
<text text-anchor="middle" x="2846" y="-7.5" font-family="Arial.ttf" font-size="10.00">SLSkeleton.cpp</text>
</a>
</g>
</g>
<!-- Node18&#45;&gt;Node38 -->
<g id="edge43" class="edge"><title>Node18&#45;&gt;Node38</title>
<path fill="none" stroke="midnightblue" d="M1789.69,-120.941C1973,-120.443 2688.28,-115.937 2780,-76 2807.72,-63.9302 2830.32,-34.533 2840.37,-19.7673"/>
<polygon fill="midnightblue" stroke="midnightblue" points="1789.61,-117.441 1779.62,-120.965 1789.63,-124.441 1789.61,-117.441"/>
</g>
<!-- Node39 -->
<g id="node39" class="node"><title>Node39</title>
<g id="a_node39"><a xlink:href="_s_l_text_8cpp.html" target="_top" xlink:title="SLText.cpp">
<polygon fill="white" stroke="black" points="2495.5,-56.5 2495.5,-75.5 2562.5,-75.5 2562.5,-56.5 2495.5,-56.5"/>
<text text-anchor="middle" x="2529" y="-63.5" font-family="Arial.ttf" font-size="10.00">SLText.cpp</text>
</a>
</g>
</g>
<!-- Node18&#45;&gt;Node39 -->
<g id="edge44" class="edge"><title>Node18&#45;&gt;Node39</title>
<path fill="none" stroke="midnightblue" d="M1789.61,-120.569C1903.26,-118.954 2222.87,-111.357 2486,-76 2489.02,-75.5937 2492.15,-75.0947 2495.28,-74.5418"/>
<polygon fill="midnightblue" stroke="midnightblue" points="1789.53,-117.07 1779.58,-120.704 1789.62,-124.069 1789.53,-117.07"/>
</g>
<!-- Node40 -->
<g id="node40" class="node"><title>Node40</title>
<g id="a_node40"><a xlink:href="_s_l_transfer_function_8cpp.html" target="_top" xlink:title="SLTransferFunction.cpp">
<polygon fill="white" stroke="black" points="2580.5,-56.5 2580.5,-75.5 2703.5,-75.5 2703.5,-56.5 2580.5,-56.5"/>
<text text-anchor="middle" x="2642" y="-63.5" font-family="Arial.ttf" font-size="10.00">SLTransferFunction.cpp</text>
</a>
</g>
</g>
<!-- Node18&#45;&gt;Node40 -->
<g id="edge45" class="edge"><title>Node18&#45;&gt;Node40</title>
<path fill="none" stroke="midnightblue" d="M1789.7,-119.746C1911.76,-115.93 2272.57,-103.029 2571,-76 2574.09,-75.7198 2577.26,-75.4085 2580.46,-75.0749"/>
<polygon fill="midnightblue" stroke="midnightblue" points="1789.53,-116.25 1779.64,-120.057 1789.75,-123.246 1789.53,-116.25"/>
</g>
<!-- Node41 -->
<g id="node41" class="node"><title>Node41</title>
<g id="a_node41"><a xlink:href="_s_l_g_l_o_v_r_workaround_8h.html" target="_top" xlink:title="SLGLOVRWorkaround.h">
<polygon fill="white" stroke="black" points="2912.5,-56.5 2912.5,-75.5 3039.5,-75.5 3039.5,-56.5 2912.5,-56.5"/>
<text text-anchor="middle" x="2976" y="-63.5" font-family="Arial.ttf" font-size="10.00">SLGLOVRWorkaround.h</text>
</a>
</g>
</g>
<!-- Node18&#45;&gt;Node41 -->
<g id="edge46" class="edge"><title>Node18&#45;&gt;Node41</title>
<path fill="none" stroke="midnightblue" d="M1789.86,-119.839C1938.17,-115.698 2443.36,-100.577 2860,-76 2876.94,-75.0008 2895.25,-73.6884 2912.21,-72.3758"/>
<polygon fill="midnightblue" stroke="midnightblue" points="1789.7,-116.342 1779.8,-120.118 1789.89,-123.339 1789.7,-116.342"/>
</g>
<!-- Node42 -->
<g id="node42" class="node"><title>Node42</title>
<g id="a_node42"><a xlink:href="_s_l_scene_view_8h.html" target="_top" xlink:title="SLSceneView.h">
<polygon fill="white" stroke="red" points="640.5,-56.5 640.5,-75.5 727.5,-75.5 727.5,-56.5 640.5,-56.5"/>
<text text-anchor="middle" x="684" y="-63.5" font-family="Arial.ttf" font-size="10.00">SLSceneView.h</text>
</a>
</g>
</g>
<!-- Node18&#45;&gt;Node42 -->
<g id="edge48" class="edge"><title>Node18&#45;&gt;Node42</title>
<path fill="none" stroke="midnightblue" d="M1704.14,-120.752C1564.98,-119.59 1113.37,-113.015 742,-76 737.336,-75.5351 732.475,-74.9467 727.639,-74.2941"/>
<polygon fill="midnightblue" stroke="midnightblue" points="1704.34,-124.254 1714.37,-120.832 1704.4,-117.254 1704.34,-124.254"/>
</g>
<!-- Node48 -->
<g id="node48" class="node"><title>Node48</title>
<g id="a_node48"><a xlink:href="_app_demo_video_8cpp.html" target="_top" xlink:title="AppDemoVideo.cpp">
<polygon fill="white" stroke="black" points="1832.5,-0.5 1832.5,-19.5 1937.5,-19.5 1937.5,-0.5 1832.5,-0.5"/>
<text text-anchor="middle" x="1885" y="-7.5" font-family="Arial.ttf" font-size="10.00">AppDemoVideo.cpp</text>
</a>
</g>
</g>
<!-- Node18&#45;&gt;Node48 -->
<g id="edge69" class="edge"><title>Node18&#45;&gt;Node48</title>
<path fill="none" stroke="midnightblue" d="M1789.81,-120.702C1976.61,-119.195 2712.5,-111.046 2746,-76 2752.14,-69.5747 2752.12,-62.4473 2746,-56 2718.08,-26.5846 2120.22,-14.721 1937.54,-11.7747"/>
<polygon fill="midnightblue" stroke="midnightblue" points="1789.54,-117.204 1779.56,-120.782 1789.59,-124.204 1789.54,-117.204"/>
</g>
<!-- Node41&#45;&gt;Node20 -->
<g id="edge47" class="edge"><title>Node41&#45;&gt;Node20</title>
<path fill="none" stroke="midnightblue" d="M2972.15,-46.1005C2970.32,-37.1357 2968.23,-26.8579 2966.78,-19.7511"/>
<polygon fill="midnightblue" stroke="midnightblue" points="2968.76,-46.9829 2974.18,-56.083 2975.62,-45.5856 2968.76,-46.9829"/>
</g>
<!-- Node42&#45;&gt;Node4 -->
<g id="edge51" class="edge"><title>Node42&#45;&gt;Node4</title>
<path fill="none" stroke="midnightblue" d="M630.016,-62.3018C527.199,-56.8344 296.283,-42.9775 103,-20 100.262,-19.6745 97.4532,-19.3126 94.6216,-18.926"/>
<polygon fill="midnightblue" stroke="midnightblue" points="629.979,-65.8046 640.15,-62.8355 630.348,-58.8143 629.979,-65.8046"/>
</g>
<!-- Node42&#45;&gt;Node8 -->
<g id="edge60" class="edge"><title>Node42&#45;&gt;Node8</title>
<path fill="none" stroke="midnightblue" d="M737.941,-58.9165C750.114,-57.7522 762.989,-56.6843 775,-56 1298.88,-26.152 2614.24,-75.6846 3136,-20 3138.85,-19.6956 3141.79,-19.2989 3144.74,-18.8418"/>
<polygon fill="midnightblue" stroke="midnightblue" points="737.519,-55.441 727.914,-59.9109 738.21,-62.4068 737.519,-55.441"/>
</g>
<!-- Node42&#45;&gt;Node12 -->
<g id="edge49" class="edge"><title>Node42&#45;&gt;Node12</title>
<path fill="none" stroke="midnightblue" d="M630.153,-55.1096C573.772,-44.754 486.298,-28.6875 433.937,-19.0701"/>
<polygon fill="midnightblue" stroke="midnightblue" points="629.835,-58.6098 640.303,-56.974 631.1,-51.725 629.835,-58.6098"/>
</g>
<!-- Node42&#45;&gt;Node13 -->
<g id="edge61" class="edge"><title>Node42&#45;&gt;Node13</title>
<path fill="none" stroke="midnightblue" d="M643.399,-53.6986C606.785,-43.507 553.743,-28.7429 520.596,-19.5164"/>
<polygon fill="midnightblue" stroke="midnightblue" points="642.688,-57.1337 653.26,-56.4435 644.565,-50.3901 642.688,-57.1337"/>
</g>
<!-- Node42&#45;&gt;Node14 -->
<g id="edge65" class="edge"><title>Node42&#45;&gt;Node14</title>
<path fill="none" stroke="midnightblue" d="M630.336,-58.3774C562.113,-49.8805 440.72,-34.5028 337,-20 334.079,-19.5916 331.079,-19.1648 328.053,-18.7287"/>
<polygon fill="midnightblue" stroke="midnightblue" points="630.058,-61.8696 640.413,-59.6305 630.922,-54.9231 630.058,-61.8696"/>
</g>
<!-- Node42&#45;&gt;Node15 -->
<g id="edge64" class="edge"><title>Node42&#45;&gt;Node15</title>
<path fill="none" stroke="midnightblue" d="M630.289,-60.888C543.302,-53.9895 366.275,-38.9593 217,-20 213.919,-19.6087 210.748,-19.1802 207.555,-18.7292"/>
<polygon fill="midnightblue" stroke="midnightblue" points="630.199,-64.3916 640.443,-61.6887 630.75,-57.4133 630.199,-64.3916"/>
</g>
<!-- Node42&#45;&gt;Node17 -->
<g id="edge62" class="edge"><title>Node42&#45;&gt;Node17</title>
<path fill="none" stroke="midnightblue" d="M737.941,-58.9235C750.115,-57.7588 762.989,-56.6891 775,-56 1771.27,1.15609 2025.7,-104.709 3020,-20 3022.84,-19.7578 3025.76,-19.4609 3028.69,-19.1242"/>
<polygon fill="midnightblue" stroke="midnightblue" points="737.52,-55.448 727.914,-59.9179 738.211,-62.4139 737.52,-55.448"/>
</g>
<!-- Node42&#45;&gt;Node34 -->
<g id="edge53" class="edge"><title>Node42&#45;&gt;Node34</title>
<path fill="none" stroke="midnightblue" d="M737.946,-59.0043C750.119,-57.8353 762.992,-56.7434 775,-56 1126,-34.2703 2253.03,-15.8711 2514.47,-11.8263"/>
<polygon fill="midnightblue" stroke="midnightblue" points="737.525,-55.5288 727.919,-59.9984 738.215,-62.4946 737.525,-55.5288"/>
</g>
<!-- Node42&#45;&gt;Node35 -->
<g id="edge55" class="edge"><title>Node42&#45;&gt;Node35</title>
<path fill="none" stroke="midnightblue" d="M737.591,-56.5939C739.076,-56.39 740.548,-56.1915 742,-56 888.708,-36.6496 926.318,-39.5453 1073,-20 1076.08,-19.5898 1079.25,-19.147 1082.44,-18.6854"/>
<polygon fill="midnightblue" stroke="midnightblue" points="737.081,-53.1311 727.674,-58.0047 738.067,-60.0613 737.081,-53.1311"/>
</g>
<!-- Node42&#45;&gt;Node36 -->
<g id="edge56" class="edge"><title>Node42&#45;&gt;Node36</title>
<path fill="none" stroke="midnightblue" d="M737.613,-59.5967C749.895,-58.3869 762.898,-57.1285 775,-56 957.574,-38.9762 1004.06,-42.8217 1186,-20 1189.17,-19.6026 1192.43,-19.1581 1195.72,-18.6853"/>
<polygon fill="midnightblue" stroke="midnightblue" points="737.107,-56.1295 727.501,-60.5976 737.797,-63.0955 737.107,-56.1295"/>
</g>
<!-- Node42&#45;&gt;Node37 -->
<g id="edge57" class="edge"><title>Node42&#45;&gt;Node37</title>
<path fill="none" stroke="midnightblue" d="M737.97,-59.342C750.142,-58.1552 763.008,-56.9706 775,-56 1027.55,-35.5592 1331,-19.1205 1443.85,-13.2856"/>
<polygon fill="midnightblue" stroke="midnightblue" points="737.549,-55.8665 727.943,-60.3349 738.239,-62.8324 737.549,-55.8665"/>
</g>
<!-- Node42&#45;&gt;Node38 -->
<g id="edge63" class="edge"><title>Node42&#45;&gt;Node38</title>
<path fill="none" stroke="midnightblue" d="M737.943,-58.9534C750.116,-57.7872 762.99,-56.7092 775,-56 1599.05,-7.33919 1806.9,-45.3447 2632,-20 2690.91,-18.1904 2758.91,-15.1716 2802.16,-13.1346"/>
<polygon fill="midnightblue" stroke="midnightblue" points="737.522,-55.4779 727.916,-59.9477 738.212,-62.4438 737.522,-55.4779"/>
</g>
<!-- Node43 -->
<g id="node43" class="node"><title>Node43</title>
<g id="a_node43"><a xlink:href="_s_l_skybox_8cpp.html" target="_top" xlink:title="SLSkybox.cpp">
<polygon fill="white" stroke="black" points="546,-0.5 546,-19.5 626,-19.5 626,-0.5 546,-0.5"/>
<text text-anchor="middle" x="586" y="-7.5" font-family="Arial.ttf" font-size="10.00">SLSkybox.cpp</text>
</a>
</g>
</g>
<!-- Node42&#45;&gt;Node43 -->
<g id="edge50" class="edge"><title>Node42&#45;&gt;Node43</title>
<path fill="none" stroke="midnightblue" d="M659.414,-51.4526C641.322,-41.4835 617.265,-28.2279 601.706,-19.6545"/>
<polygon fill="midnightblue" stroke="midnightblue" points="657.807,-54.5633 668.255,-56.324 661.185,-48.4324 657.807,-54.5633"/>
</g>
<!-- Node44 -->
<g id="node44" class="node"><title>Node44</title>
<g id="a_node44"><a xlink:href="_s_l_camera_8cpp.html" target="_top" xlink:title="SLCamera.cpp">
<polygon fill="white" stroke="black" points="644.5,-0.5 644.5,-19.5 727.5,-19.5 727.5,-0.5 644.5,-0.5"/>
<text text-anchor="middle" x="686" y="-7.5" font-family="Arial.ttf" font-size="10.00">SLCamera.cpp</text>
</a>
</g>
</g>
<!-- Node42&#45;&gt;Node44 -->
<g id="edge52" class="edge"><title>Node42&#45;&gt;Node44</title>
<path fill="none" stroke="midnightblue" d="M684.711,-45.8045C685.04,-36.9102 685.416,-26.7798 685.676,-19.7511"/>
<polygon fill="midnightblue" stroke="midnightblue" points="681.203,-45.9603 684.33,-56.083 688.198,-46.2194 681.203,-45.9603"/>
</g>
<!-- Node45 -->
<g id="node45" class="node"><title>Node45</title>
<g id="a_node45"><a xlink:href="_s_l_keyframe_camera_8cpp.html" target="_top" xlink:title="SLKeyframeCamera.cpp">
<polygon fill="white" stroke="black" points="746,-0.5 746,-19.5 872,-19.5 872,-0.5 746,-0.5"/>
<text text-anchor="middle" x="809" y="-7.5" font-family="Arial.ttf" font-size="10.00">SLKeyframeCamera.cpp</text>
</a>
</g>
</g>
<!-- Node42&#45;&gt;Node45 -->
<g id="edge54" class="edge"><title>Node42&#45;&gt;Node45</title>
<path fill="none" stroke="midnightblue" d="M713.241,-52.3678C736.65,-42.2553 768.841,-28.3486 789.286,-19.5164"/>
<polygon fill="midnightblue" stroke="midnightblue" points="711.599,-49.2647 703.807,-56.4435 714.375,-55.6907 711.599,-49.2647"/>
</g>
<!-- Node46 -->
<g id="node46" class="node"><title>Node46</title>
<g id="a_node46"><a xlink:href="_s_l_material_8cpp.html" target="_top" xlink:title="SLMaterial.cpp">
<polygon fill="white" stroke="black" points="890.5,-0.5 890.5,-19.5 973.5,-19.5 973.5,-0.5 890.5,-0.5"/>
<text text-anchor="middle" x="932" y="-7.5" font-family="Arial.ttf" font-size="10.00">SLMaterial.cpp</text>
</a>
</g>
</g>
<!-- Node42&#45;&gt;Node46 -->
<g id="edge58" class="edge"><title>Node42&#45;&gt;Node46</title>
<path fill="none" stroke="midnightblue" d="M733.226,-54.2815C780.091,-44.0769 849.699,-28.9203 892.888,-19.5164"/>
<polygon fill="midnightblue" stroke="midnightblue" points="732.323,-50.896 723.296,-56.4435 733.812,-57.7358 732.323,-50.896"/>
</g>
<!-- Node47 -->
<g id="node47" class="node"><title>Node47</title>
<g id="a_node47"><a xlink:href="_s_l_mesh_8cpp.html" target="_top" xlink:title="SLMesh.cpp">
<polygon fill="white" stroke="black" points="992,-0.5 992,-19.5 1064,-19.5 1064,-0.5 992,-0.5"/>
<text text-anchor="middle" x="1028" y="-7.5" font-family="Arial.ttf" font-size="10.00">SLMesh.cpp</text>
</a>
</g>
</g>
<!-- Node42&#45;&gt;Node47 -->
<g id="edge59" class="edge"><title>Node42&#45;&gt;Node47</title>
<path fill="none" stroke="midnightblue" d="M737.602,-56.6724C739.084,-56.4455 740.552,-56.221 742,-56 848.626,-39.7305 875.714,-38.3597 982,-20 985.208,-19.4459 988.536,-18.8453 991.869,-18.2262"/>
<polygon fill="midnightblue" stroke="midnightblue" points="737.053,-53.2157 727.701,-58.1947 738.116,-60.1344 737.053,-53.2157"/>
</g>
<!-- Node42&#45;&gt;Node48 -->
<g id="edge66" class="edge"><title>Node42&#45;&gt;Node48</title>
<path fill="none" stroke="midnightblue" d="M737.955,-59.1421C750.128,-57.9658 762.998,-56.8361 775,-56 984.596,-41.3992 1641.43,-19.0564 1832.42,-12.7254"/>
<polygon fill="midnightblue" stroke="midnightblue" points="737.534,-55.6665 727.928,-60.1357 738.224,-62.6324 737.534,-55.6665"/>
</g>
<!-- Node49&#45;&gt;Node6 -->
<g id="edge71" class="edge"><title>Node49&#45;&gt;Node6</title>
<path fill="none" stroke="midnightblue" d="M483.586,-215.759C478.689,-207.459 472.871,-197.309 468,-188 446.361,-146.645 423.563,-95.6373 414.766,-75.6289"/>
<polygon fill="midnightblue" stroke="midnightblue" points="480.668,-217.7 488.799,-224.492 486.679,-214.112 480.668,-217.7"/>
</g>
<!-- Node49&#45;&gt;Node16 -->
<g id="edge74" class="edge"><title>Node49&#45;&gt;Node16</title>
<path fill="none" stroke="midnightblue" d="M542.188,-224.392C543.47,-224.249 544.743,-224.118 546,-224 1586.9,-126.557 1855.68,-268.949 2898,-188 2902.7,-187.635 2907.58,-187.148 2912.45,-186.588"/>
<polygon fill="midnightblue" stroke="midnightblue" points="541.712,-220.924 532.247,-225.684 542.614,-227.865 541.712,-220.924"/>
</g>
<!-- Node49&#45;&gt;Node38 -->
<g id="edge73" class="edge"><title>Node49&#45;&gt;Node38</title>
<path fill="none" stroke="midnightblue" d="M542.431,-223.428C831.382,-190.235 2595.5,-207.286 2808,-76 2828.91,-63.0835 2839.6,-34.0832 2843.81,-19.5881"/>
<polygon fill="midnightblue" stroke="midnightblue" points="541.889,-219.969 532.4,-224.682 542.757,-226.915 541.889,-219.969"/>
</g>
<!-- Node50 -->
<g id="node50" class="node"><title>Node50</title>
<g id="a_node50"><a xlink:href="_s_l_joint_8cpp.html" target="_top" xlink:title="SLJoint.cpp">
<polygon fill="white" stroke="black" points="477.5,-168.5 477.5,-187.5 546.5,-187.5 546.5,-168.5 477.5,-168.5"/>
<text text-anchor="middle" x="512" y="-175.5" font-family="Arial.ttf" font-size="10.00">SLJoint.cpp</text>
</a>
</g>
</g>
<!-- Node49&#45;&gt;Node50 -->
<g id="edge72" class="edge"><title>Node49&#45;&gt;Node50</title>
<path fill="none" stroke="midnightblue" d="M500.201,-214.396C503.213,-205.362 506.688,-194.936 509.083,-187.751"/>
<polygon fill="midnightblue" stroke="midnightblue" points="496.814,-213.489 496.972,-224.083 503.455,-215.703 496.814,-213.489"/>
</g>
</g>
</svg>
