<?xml version="1.0" encoding="UTF-8" standalone="no"?>
<!DOCTYPE svg PUBLIC "-//W3C//DTD SVG 1.1//EN"
 "http://www.w3.org/Graphics/SVG/1.1/DTD/svg11.dtd">
<!-- Generated by graphviz version 2.36.0 (20140111.2315)
 -->
<!-- Title: SLRayMC.h Pages: 1 -->
<svg width="537pt" height="420pt"
 viewBox="0.00 0.00 536.84 420.00" xmlns="http://www.w3.org/2000/svg" xmlns:xlink="http://www.w3.org/1999/xlink">
<g id="graph0" class="graph" transform="scale(1 1) rotate(0) translate(4 416)">
<title>SLRayMC.h</title>
<polygon fill="white" stroke="none" points="-4,4 -4,-416 532.838,-416 532.838,4 -4,4"/>
<!-- Node1 -->
<g id="node1" class="node"><title>Node1</title>
<polygon fill="#bfbfbf" stroke="black" points="38,-392.5 38,-411.5 108,-411.5 108,-392.5 38,-392.5"/>
<text text-anchor="middle" x="73" y="-399.5" font-family="Arial.ttf" font-size="10.00">SLRayMC.h</text>
</g>
<!-- Node2 -->
<g id="node2" class="node"><title>Node2</title>
<polygon fill="white" stroke="#bfbfbf" points="238,-0.5 238,-19.5 290,-19.5 290,-0.5 238,-0.5"/>
<text text-anchor="middle" x="264" y="-7.5" font-family="Arial.ttf" font-size="10.00">stdafx.h</text>
</g>
<!-- Node1&#45;&gt;Node2 -->
<g id="edge1" class="edge"><title>Node1&#45;&gt;Node2</title>
<path fill="none" stroke="midnightblue" d="M61.9129,-392.33C41.4913,-375.293 0,-335.236 0,-291 0,-291 0,-291 0,-121 0,-23.5099 155.295,-10.857 227.673,-10.254"/>
<polygon fill="midnightblue" stroke="midnightblue" points="227.725,-13.754 237.722,-10.2438 227.718,-6.75405 227.725,-13.754"/>
</g>
<!-- Node3 -->
<g id="node3" class="node"><title>Node3</title>
<polygon fill="white" stroke="#bfbfbf" points="41,-336.5 41,-355.5 105,-355.5 105,-336.5 41,-336.5"/>
<text text-anchor="middle" x="73" y="-343.5" font-family="Arial.ttf" font-size="10.00">randomc.h</text>
</g>
<!-- Node1&#45;&gt;Node3 -->
<g id="edge2" class="edge"><title>Node1&#45;&gt;Node3</title>
<path fill="none" stroke="midnightblue" d="M73,-392.083C73,-385.006 73,-374.861 73,-365.986"/>
<polygon fill="midnightblue" stroke="midnightblue" points="76.5001,-365.751 73,-355.751 69.5001,-365.751 76.5001,-365.751"/>
</g>
<!-- Node4 -->
<g id="node4" class="node"><title>Node4</title>
<g id="a_node4"><a xlink:href="_s_l_material_8h.html" target="_top" xlink:title="SLMaterial.h">
<polygon fill="white" stroke="black" points="130.5,-336.5 130.5,-355.5 203.5,-355.5 203.5,-336.5 130.5,-336.5"/>
<text text-anchor="middle" x="167" y="-343.5" font-family="Arial.ttf" font-size="10.00">SLMaterial.h</text>
</a>
</g>
</g>
<!-- Node1&#45;&gt;Node4 -->
<g id="edge3" class="edge"><title>Node1&#45;&gt;Node4</title>
<path fill="none" stroke="midnightblue" d="M88.1027,-392.324C102.903,-383.822 125.694,-370.729 142.982,-360.797"/>
<polygon fill="midnightblue" stroke="midnightblue" points="145.007,-363.671 151.935,-355.655 141.52,-357.601 145.007,-363.671"/>
</g>
<!-- Node4&#45;&gt;Node2 -->
<g id="edge4" class="edge"><title>Node4&#45;&gt;Node2</title>
<path fill="none" stroke="midnightblue" d="M141.514,-336.407C103.919,-321.928 38,-288.862 38,-235 38,-235 38,-235 38,-121 38,-37.7086 163.638,-17.4702 227.563,-12.5635"/>
<polygon fill="midnightblue" stroke="midnightblue" points="227.893,-16.0492 237.633,-11.8783 227.418,-9.06531 227.893,-16.0492"/>
</g>
<!-- Node5 -->
<g id="node5" class="node"><title>Node5</title>
<g id="a_node5"><a xlink:href="_s_l_draw_bits_8h.html" target="_top" xlink:title="SLDrawBits.h">
<polygon fill="white" stroke="black" points="67.5,-168.5 67.5,-187.5 144.5,-187.5 144.5,-168.5 67.5,-168.5"/>
<text text-anchor="middle" x="106" y="-175.5" font-family="Arial.ttf" font-size="10.00">SLDrawBits.h</text>
</a>
</g>
</g>
<!-- Node4&#45;&gt;Node5 -->
<g id="edge5" class="edge"><title>Node4&#45;&gt;Node5</title>
<path fill="none" stroke="midnightblue" d="M163.72,-336.075C154.077,-309.832 125.676,-232.545 112.657,-197.117"/>
<polygon fill="midnightblue" stroke="midnightblue" points="115.883,-195.747 109.149,-187.568 109.313,-198.162 115.883,-195.747"/>
</g>
<!-- Node6 -->
<g id="node6" class="node"><title>Node6</title>
<g id="a_node6"><a xlink:href="_s_l_g_l_texture_8h.html" target="_top" xlink:title="SLGLTexture.h">
<polygon fill="white" stroke="black" points="132,-112.5 132,-131.5 216,-131.5 216,-112.5 132,-112.5"/>
<text text-anchor="middle" x="174" y="-119.5" font-family="Arial.ttf" font-size="10.00">SLGLTexture.h</text>
</a>
</g>
</g>
<!-- Node4&#45;&gt;Node6 -->
<g id="edge7" class="edge"><title>Node4&#45;&gt;Node6</title>
<path fill="none" stroke="midnightblue" d="M167.274,-336.297C168.304,-303.633 171.955,-187.866 173.402,-141.957"/>
<polygon fill="midnightblue" stroke="midnightblue" points="176.903,-141.989 173.72,-131.884 169.906,-141.768 176.903,-141.989"/>
</g>
<!-- Node9 -->
<g id="node9" class="node"><title>Node9</title>
<g id="a_node9"><a xlink:href="_s_l_g_l_program_8h.html" target="_top" xlink:title="SLGLProgram.h">
<polygon fill="white" stroke="black" points="286.5,-224.5 286.5,-243.5 375.5,-243.5 375.5,-224.5 286.5,-224.5"/>
<text text-anchor="middle" x="331" y="-231.5" font-family="Arial.ttf" font-size="10.00">SLGLProgram.h</text>
</a>
</g>
</g>
<!-- Node4&#45;&gt;Node9 -->
<g id="edge13" class="edge"><title>Node4&#45;&gt;Node9</title>
<path fill="none" stroke="midnightblue" d="M178.92,-336.411C196.499,-323.803 230.487,-299.652 260,-280 276.043,-269.318 294.429,-257.68 308.472,-248.917"/>
<polygon fill="midnightblue" stroke="midnightblue" points="310.36,-251.864 317.004,-243.612 306.664,-245.92 310.36,-251.864"/>
</g>
<!-- Node13 -->
<g id="node13" class="node"><title>Node13</title>
<g id="a_node13"><a xlink:href="_s_l_g_l_generic_program_8h.html" target="_top" xlink:title="SLGLGenericProgram.h">
<polygon fill="white" stroke="black" points="269,-280.5 269,-299.5 393,-299.5 393,-280.5 269,-280.5"/>
<text text-anchor="middle" x="331" y="-287.5" font-family="Arial.ttf" font-size="10.00">SLGLGenericProgram.h</text>
</a>
</g>
</g>
<!-- Node4&#45;&gt;Node13 -->
<g id="edge21" class="edge"><title>Node4&#45;&gt;Node13</title>
<path fill="none" stroke="midnightblue" d="M192.986,-336.444C220.696,-327.32 264.752,-312.813 295.616,-302.651"/>
<polygon fill="midnightblue" stroke="midnightblue" points="296.732,-305.968 305.135,-299.516 294.542,-299.32 296.732,-305.968"/>
</g>
<!-- Node5&#45;&gt;Node2 -->
<g id="edge6" class="edge"><title>Node5&#45;&gt;Node2</title>
<path fill="none" stroke="midnightblue" d="M104.679,-168.449C101.843,-146.784 97.5585,-89.1101 126,-56 151.227,-26.632 195.876,-16.3062 227.551,-12.7441"/>
<polygon fill="midnightblue" stroke="midnightblue" points="228.123,-16.2056 237.748,-11.7776 227.463,-9.23686 228.123,-16.2056"/>
</g>
<!-- Node6&#45;&gt;Node2 -->
<g id="edge8" class="edge"><title>Node6&#45;&gt;Node2</title>
<path fill="none" stroke="midnightblue" d="M161.616,-112.383C144.985,-99.7408 119.047,-75.5465 133,-56 154.309,-26.1487 196.725,-15.8941 227.535,-12.4813"/>
<polygon fill="midnightblue" stroke="midnightblue" points="228.253,-15.9305 237.895,-11.5386 227.619,-8.95932 228.253,-15.9305"/>
</g>
<!-- Node7 -->
<g id="node7" class="node"><title>Node7</title>
<g id="a_node7"><a xlink:href="_s_l_image_8h.html" target="_top" xlink:title="SLImage.h">
<polygon fill="white" stroke="black" points="142.5,-56.5 142.5,-75.5 207.5,-75.5 207.5,-56.5 142.5,-56.5"/>
<text text-anchor="middle" x="175" y="-63.5" font-family="Arial.ttf" font-size="10.00">SLImage.h</text>
</a>
</g>
</g>
<!-- Node6&#45;&gt;Node7 -->
<g id="edge9" class="edge"><title>Node6&#45;&gt;Node7</title>
<path fill="none" stroke="midnightblue" d="M174.165,-112.083C174.296,-105.006 174.484,-94.8611 174.648,-85.9865"/>
<polygon fill="midnightblue" stroke="midnightblue" points="178.152,-85.8142 174.838,-75.7511 171.153,-85.6845 178.152,-85.8142"/>
</g>
<!-- Node8 -->
<g id="node8" class="node"><title>Node8</title>
<g id="a_node8"><a xlink:href="_s_l_g_l_buffer_8h.html" target="_top" xlink:title="SLGLBuffer.h">
<polygon fill="white" stroke="black" points="225.5,-56.5 225.5,-75.5 302.5,-75.5 302.5,-56.5 225.5,-56.5"/>
<text text-anchor="middle" x="264" y="-63.5" font-family="Arial.ttf" font-size="10.00">SLGLBuffer.h</text>
</a>
</g>
</g>
<!-- Node6&#45;&gt;Node8 -->
<g id="edge11" class="edge"><title>Node6&#45;&gt;Node8</title>
<path fill="none" stroke="midnightblue" d="M188.46,-112.324C202.5,-103.9 224.048,-90.9709 240.543,-81.0741"/>
<polygon fill="midnightblue" stroke="midnightblue" points="242.802,-83.8007 249.576,-75.6545 239.2,-77.7983 242.802,-83.8007"/>
</g>
<!-- Node7&#45;&gt;Node2 -->
<g id="edge10" class="edge"><title>Node7&#45;&gt;Node2</title>
<path fill="none" stroke="midnightblue" d="M189.299,-56.324C203.183,-47.9002 224.492,-34.9709 240.804,-25.0741"/>
<polygon fill="midnightblue" stroke="midnightblue" points="243.002,-27.8341 249.736,-19.6545 239.371,-21.8495 243.002,-27.8341"/>
</g>
<!-- Node8&#45;&gt;Node2 -->
<g id="edge12" class="edge"><title>Node8&#45;&gt;Node2</title>
<path fill="none" stroke="midnightblue" d="M264,-56.083C264,-49.0059 264,-38.8611 264,-29.9865"/>
<polygon fill="midnightblue" stroke="midnightblue" points="267.5,-29.751 264,-19.7511 260.5,-29.7511 267.5,-29.751"/>
</g>
<!-- Node9&#45;&gt;Node2 -->
<g id="edge14" class="edge"><title>Node9&#45;&gt;Node2</title>
<path fill="none" stroke="midnightblue" d="M332.009,-224.318C334.717,-197.581 340.095,-114.751 311,-56 305.106,-44.0987 294.714,-33.6382 285.197,-25.805"/>
<polygon fill="midnightblue" stroke="midnightblue" points="287.25,-22.9677 277.195,-19.6274 282.972,-28.5087 287.25,-22.9677"/>
</g>
<!-- Node10 -->
<g id="node10" class="node"><title>Node10</title>
<g id="a_node10"><a xlink:href="_s_l_g_l_uniform_8h.html" target="_top" xlink:title="SLGLUniform.h">
<polygon fill="white" stroke="black" points="359.5,-168.5 359.5,-187.5 444.5,-187.5 444.5,-168.5 359.5,-168.5"/>
<text text-anchor="middle" x="402" y="-175.5" font-family="Arial.ttf" font-size="10.00">SLGLUniform.h</text>
</a>
</g>
</g>
<!-- Node9&#45;&gt;Node10 -->
<g id="edge15" class="edge"><title>Node9&#45;&gt;Node10</title>
<path fill="none" stroke="midnightblue" d="M342.407,-224.324C353.109,-216.185 369.341,-203.839 382.163,-194.087"/>
<polygon fill="midnightblue" stroke="midnightblue" points="384.544,-196.673 390.385,-187.834 380.307,-191.102 384.544,-196.673"/>
</g>
<!-- Node10&#45;&gt;Node2 -->
<g id="edge16" class="edge"><title>Node10&#45;&gt;Node2</title>
<path fill="none" stroke="midnightblue" d="M398.753,-168.408C389.341,-143.822 361.655,-73.8074 345,-56 331.896,-41.9893 313.424,-31.2671 297.429,-23.8098"/>
<polygon fill="midnightblue" stroke="midnightblue" points="298.422,-20.4223 287.86,-19.5883 295.596,-26.8268 298.422,-20.4223"/>
</g>
<!-- Node11 -->
<g id="node11" class="node"><title>Node11</title>
<g id="a_node11"><a xlink:href="_s_l_event_handler_8h.html" target="_top" xlink:title="SLEventHandler.h">
<polygon fill="white" stroke="black" points="397,-112.5 397,-131.5 495,-131.5 495,-112.5 397,-112.5"/>
<text text-anchor="middle" x="446" y="-119.5" font-family="Arial.ttf" font-size="10.00">SLEventHandler.h</text>
</a>
</g>
</g>
<!-- Node10&#45;&gt;Node11 -->
<g id="edge17" class="edge"><title>Node10&#45;&gt;Node11</title>
<path fill="none" stroke="midnightblue" d="M409.266,-168.083C415.545,-160.377 424.788,-149.033 432.431,-139.653"/>
<polygon fill="midnightblue" stroke="midnightblue" points="435.266,-141.714 438.869,-131.751 429.839,-137.293 435.266,-141.714"/>
</g>
<!-- Node11&#45;&gt;Node2 -->
<g id="edge18" class="edge"><title>Node11&#45;&gt;Node2</title>
<path fill="none" stroke="midnightblue" d="M439.588,-112.235C429.14,-98.5103 407.167,-71.8777 383,-56 357.365,-39.1581 324.526,-27.3466 299.841,-20.0639"/>
<polygon fill="midnightblue" stroke="midnightblue" points="300.718,-16.6747 290.142,-17.3102 298.806,-23.4085 300.718,-16.6747"/>
</g>
<!-- Node12 -->
<g id="node12" class="node"><title>Node12</title>
<g id="a_node12"><a xlink:href="_s_l_enums_8h.html" target="_top" xlink:title="SLEnums.h">
<polygon fill="white" stroke="black" points="435,-56.5 435,-75.5 503,-75.5 503,-56.5 435,-56.5"/>
<text text-anchor="middle" x="469" y="-63.5" font-family="Arial.ttf" font-size="10.00">SLEnums.h</text>
</a>
</g>
</g>
<!-- Node11&#45;&gt;Node12 -->
<g id="edge19" class="edge"><title>Node11&#45;&gt;Node12</title>
<path fill="none" stroke="midnightblue" d="M449.798,-112.083C452.913,-104.77 457.423,-94.1814 461.289,-85.1034"/>
<polygon fill="midnightblue" stroke="midnightblue" points="464.574,-86.3229 465.273,-75.7511 458.134,-83.5798 464.574,-86.3229"/>
</g>
<!-- Node12&#45;&gt;Node2 -->
<g id="edge20" class="edge"><title>Node12&#45;&gt;Node2</title>
<path fill="none" stroke="midnightblue" d="M436.517,-56.4435C399.311,-46.6429 338.528,-30.6319 299.934,-20.4655"/>
<polygon fill="midnightblue" stroke="midnightblue" points="300.713,-17.0514 290.151,-17.8886 298.93,-23.8205 300.713,-17.0514"/>
</g>
<!-- Node13&#45;&gt;Node9 -->
<g id="edge24" class="edge"><title>Node13&#45;&gt;Node9</title>
<path fill="none" stroke="midnightblue" d="M331,-280.083C331,-273.006 331,-262.861 331,-253.986"/>
<polygon fill="midnightblue" stroke="midnightblue" points="334.5,-253.751 331,-243.751 327.5,-253.751 334.5,-253.751"/>
</g>
<!-- Node14 -->
<g id="node14" class="node"><title>Node14</title>
<g id="a_node14"><a xlink:href="_s_l_object_8h.html" target="_top" xlink:title="SLObject.h">
<polygon fill="white" stroke="black" points="446,-224.5 446,-243.5 512,-243.5 512,-224.5 446,-224.5"/>
<text text-anchor="middle" x="479" y="-231.5" font-family="Arial.ttf" font-size="10.00">SLObject.h</text>
</a>
</g>
</g>
<!-- Node13&#45;&gt;Node14 -->
<g id="edge22" class="edge"><title>Node13&#45;&gt;Node14</title>
<path fill="none" stroke="midnightblue" d="M354.451,-280.444C379.133,-271.438 418.185,-257.189 445.977,-247.049"/>
<polygon fill="midnightblue" stroke="midnightblue" points="447.464,-250.232 455.659,-243.516 445.065,-243.656 447.464,-250.232"/>
</g>
<!-- Node14&#45;&gt;Node2 -->
<g id="edge23" class="edge"><title>Node14&#45;&gt;Node2</title>
<path fill="none" stroke="midnightblue" d="M484.835,-224.417C503.007,-196.535 554.871,-107.35 512,-56 485.489,-24.2462 362.872,-14.8505 300.562,-12.108"/>
<polygon fill="midnightblue" stroke="midnightblue" points="300.517,-8.60339 290.384,-11.6958 300.234,-15.5977 300.517,-8.60339"/>
</g>
</g>
</svg>
