<?xml version="1.0" encoding="UTF-8" standalone="no"?>
<!DOCTYPE svg PUBLIC "-//W3C//DTD SVG 1.1//EN"
 "http://www.w3.org/Graphics/SVG/1.1/DTD/svg11.dtd">
<!-- Generated by graphviz version 2.38.0 (20140413.2041)
 -->
<!-- Title: SLImporter.cpp Pages: 1 -->
<svg width="927pt" height="532pt"
 viewBox="0.00 0.00 927.07 532.00" xmlns="http://www.w3.org/2000/svg" xmlns:xlink="http://www.w3.org/1999/xlink">
<g id="graph0" class="graph" transform="scale(1 1) rotate(0) translate(4 528)">
<title>SLImporter.cpp</title>
<polygon fill="white" stroke="none" points="-4,4 -4,-528 923.066,-528 923.066,4 -4,4"/>
<!-- Node1 -->
<g id="node1" class="node"><title>Node1</title>
<polygon fill="#bfbfbf" stroke="black" points="115.527,-504.5 115.527,-523.5 198.527,-523.5 198.527,-504.5 115.527,-504.5"/>
<text text-anchor="middle" x="157.027" y="-511.5" font-family="Arial.ttf" font-size="10.00">SLImporter.cpp</text>
</g>
<!-- Node2 -->
<g id="node2" class="node"><title>Node2</title>
<polygon fill="white" stroke="#bfbfbf" points="424.027,-0.5 424.027,-19.5 474.027,-19.5 474.027,-0.5 424.027,-0.5"/>
<text text-anchor="middle" x="449.027" y="-7.5" font-family="Arial.ttf" font-size="10.00">stdafx.h</text>
</g>
<!-- Node1&#45;&gt;Node2 -->
<g id="edge1" class="edge"><title>Node1&#45;&gt;Node2</title>
<path fill="none" stroke="midnightblue" d="M120.452,-504.462C74.343,-491.274 1.02695,-461.159 1.02695,-403 1.02695,-403 1.02695,-403 1.02695,-121 1.02695,-90.9022 -3.08085,-75.2849 20.027,-56 50.022,-30.9673 316.171,-16.8444 413.543,-12.4784"/>
<polygon fill="midnightblue" stroke="midnightblue" points="413.925,-15.9651 423.761,-12.0285 413.617,-8.97188 413.925,-15.9651"/>
</g>
<!-- Node3 -->
<g id="node3" class="node"><title>Node3</title>
<polygon fill="white" stroke="#bfbfbf" points="212.027,-448.5 212.027,-467.5 260.027,-467.5 260.027,-448.5 212.027,-448.5"/>
<text text-anchor="middle" x="236.027" y="-455.5" font-family="Arial.ttf" font-size="10.00">cstdarg</text>
</g>
<!-- Node1&#45;&gt;Node3 -->
<g id="edge2" class="edge"><title>Node1&#45;&gt;Node3</title>
<path fill="none" stroke="midnightblue" d="M169.72,-504.324C181.928,-495.979 200.605,-483.212 215.03,-473.352"/>
<polygon fill="midnightblue" stroke="midnightblue" points="217.085,-476.187 223.366,-467.655 213.135,-470.408 217.085,-476.187"/>
</g>
<!-- Node4 -->
<g id="node4" class="node"><title>Node4</title>
<g id="a_node4"><a xlink:href="_s_l_importer_8h.html" target="_top" xlink:title="SLImporter.h">
<polygon fill="white" stroke="black" points="120.527,-448.5 120.527,-467.5 193.527,-467.5 193.527,-448.5 120.527,-448.5"/>
<text text-anchor="middle" x="157.027" y="-455.5" font-family="Arial.ttf" font-size="10.00">SLImporter.h</text>
</a>
</g>
</g>
<!-- Node1&#45;&gt;Node4 -->
<g id="edge3" class="edge"><title>Node1&#45;&gt;Node4</title>
<path fill="none" stroke="midnightblue" d="M157.027,-504.083C157.027,-497.006 157.027,-486.861 157.027,-477.986"/>
<polygon fill="midnightblue" stroke="midnightblue" points="160.527,-477.751 157.027,-467.751 153.527,-477.751 160.527,-477.751"/>
</g>
<!-- Node4&#45;&gt;Node2 -->
<g id="edge4" class="edge"><title>Node4&#45;&gt;Node2</title>
<path fill="none" stroke="midnightblue" d="M157.027,-448.442C157.027,-429.936 157.027,-384.813 157.027,-347 157.027,-347 157.027,-347 157.027,-121 157.027,-90.9022 153.497,-75.9564 176.027,-56 210.685,-25.3016 347.942,-15.3196 413.632,-12.2613"/>
<polygon fill="midnightblue" stroke="midnightblue" points="414.07,-15.7457 423.908,-11.8126 413.765,-8.75232 414.07,-15.7457"/>
</g>
<!-- Node5 -->
<g id="node5" class="node"><title>Node5</title>
<g id="a_node5"><a xlink:href="_s_l_node_8h.html" target="_top" xlink:title="SLNode.h">
<polygon fill="white" stroke="black" points="377.527,-224.5 377.527,-243.5 434.527,-243.5 434.527,-224.5 377.527,-224.5"/>
<text text-anchor="middle" x="406.027" y="-231.5" font-family="Arial.ttf" font-size="10.00">SLNode.h</text>
</a>
</g>
</g>
<!-- Node4&#45;&gt;Node5 -->
<g id="edge5" class="edge"><title>Node4&#45;&gt;Node5</title>
<path fill="none" stroke="midnightblue" d="M166.788,-448.297C204.442,-414.726 340.548,-293.379 388.865,-250.301"/>
<polygon fill="midnightblue" stroke="midnightblue" points="391.198,-252.91 396.333,-243.643 386.54,-247.685 391.198,-252.91"/>
</g>
<!-- Node12 -->
<g id="node12" class="node"><title>Node12</title>
<g id="a_node12"><a xlink:href="_s_l_g_l_texture_8h.html" target="_top" xlink:title="SLGLTexture.h">
<polygon fill="white" stroke="black" points="49.527,-112.5 49.527,-131.5 128.527,-131.5 128.527,-112.5 49.527,-112.5"/>
<text text-anchor="middle" x="89.027" y="-119.5" font-family="Arial.ttf" font-size="10.00">SLGLTexture.h</text>
</a>
</g>
</g>
<!-- Node4&#45;&gt;Node12 -->
<g id="edge23" class="edge"><title>Node4&#45;&gt;Node12</title>
<path fill="none" stroke="midnightblue" d="M149.433,-448.281C134.778,-430.523 104.027,-388.337 104.027,-347 104.027,-347 104.027,-347 104.027,-233 104.027,-200.502 97.52,-163.095 93.0775,-141.343"/>
<polygon fill="midnightblue" stroke="midnightblue" points="96.4891,-140.559 90.9879,-131.504 89.6418,-142.013 96.4891,-140.559"/>
</g>
<!-- Node14 -->
<g id="node14" class="node"><title>Node14</title>
<g id="a_node14"><a xlink:href="_s_l_skeleton_8h.html" target="_top" xlink:title="SLSkeleton.h">
<polygon fill="white" stroke="black" points="709.027,-392.5 709.027,-411.5 781.027,-411.5 781.027,-392.5 709.027,-392.5"/>
<text text-anchor="middle" x="745.027" y="-399.5" font-family="Arial.ttf" font-size="10.00">SLSkeleton.h</text>
</a>
</g>
</g>
<!-- Node4&#45;&gt;Node14 -->
<g id="edge28" class="edge"><title>Node4&#45;&gt;Node14</title>
<path fill="none" stroke="midnightblue" d="M193.624,-449.462C196.797,-448.923 199.964,-448.425 203.027,-448 385.568,-422.644 604.826,-409.794 698.7,-405.119"/>
<polygon fill="midnightblue" stroke="midnightblue" points="698.903,-408.614 708.72,-404.628 698.561,-401.622 698.903,-408.614"/>
</g>
<!-- Node5&#45;&gt;Node2 -->
<g id="edge6" class="edge"><title>Node5&#45;&gt;Node2</title>
<path fill="none" stroke="midnightblue" d="M408.172,-224.391C412.462,-207.001 422.271,-166.411 429.027,-132 436.112,-95.9104 442.742,-53.4345 446.304,-29.6214"/>
<polygon fill="midnightblue" stroke="midnightblue" points="449.795,-29.9448 447.796,-19.5402 442.87,-28.9204 449.795,-29.9448"/>
</g>
<!-- Node5&#45;&gt;Node5 -->
<g id="edge17" class="edge"><title>Node5&#45;&gt;Node5</title>
<path fill="none" stroke="midnightblue" d="M426.101,-243.575C439.492,-246.27 452.527,-243.078 452.527,-234 452.527,-227.262 445.347,-223.767 436.17,-223.515"/>
<polygon fill="midnightblue" stroke="midnightblue" points="435.745,-220.039 426.101,-224.425 436.376,-227.01 435.745,-220.039"/>
</g>
<!-- Node6 -->
<g id="node6" class="node"><title>Node6</title>
<g id="a_node6"><a xlink:href="_s_l_enums_8h.html" target="_top" xlink:title="SLEnums.h">
<polygon fill="white" stroke="black" points="515.027,-112.5 515.027,-131.5 579.027,-131.5 579.027,-112.5 515.027,-112.5"/>
<text text-anchor="middle" x="547.027" y="-119.5" font-family="Arial.ttf" font-size="10.00">SLEnums.h</text>
</a>
</g>
</g>
<!-- Node5&#45;&gt;Node6 -->
<g id="edge7" class="edge"><title>Node5&#45;&gt;Node6</title>
<path fill="none" stroke="midnightblue" d="M434.767,-231.118C464.443,-227.567 509.859,-217.349 535.027,-188 545.873,-175.353 548.276,-156.144 548.325,-141.884"/>
<polygon fill="midnightblue" stroke="midnightblue" points="551.817,-141.603 547.975,-131.729 544.821,-141.844 551.817,-141.603"/>
</g>
<!-- Node7 -->
<g id="node7" class="node"><title>Node7</title>
<g id="a_node7"><a xlink:href="_s_l_mesh_8h.html" target="_top" xlink:title="SLMesh.h">
<polygon fill="white" stroke="black" points="282.027,-168.5 282.027,-187.5 340.027,-187.5 340.027,-168.5 282.027,-168.5"/>
<text text-anchor="middle" x="311.027" y="-175.5" font-family="Arial.ttf" font-size="10.00">SLMesh.h</text>
</a>
</g>
</g>
<!-- Node5&#45;&gt;Node7 -->
<g id="edge9" class="edge"><title>Node5&#45;&gt;Node7</title>
<path fill="none" stroke="midnightblue" d="M390.764,-224.324C375.806,-215.822 352.772,-202.729 335.3,-192.797"/>
<polygon fill="midnightblue" stroke="midnightblue" points="336.676,-189.553 326.252,-187.655 333.217,-195.639 336.676,-189.553"/>
</g>
<!-- Node10 -->
<g id="node10" class="node"><title>Node10</title>
<g id="a_node10"><a xlink:href="_s_l_draw_bits_8h.html" target="_top" xlink:title="SLDrawBits.h">
<polygon fill="white" stroke="black" points="347.527,-112.5 347.527,-131.5 420.527,-131.5 420.527,-112.5 347.527,-112.5"/>
<text text-anchor="middle" x="384.027" y="-119.5" font-family="Arial.ttf" font-size="10.00">SLDrawBits.h</text>
</a>
</g>
</g>
<!-- Node5&#45;&gt;Node10 -->
<g id="edge18" class="edge"><title>Node5&#45;&gt;Node10</title>
<path fill="none" stroke="midnightblue" d="M402.879,-224.495C399.682,-215.536 394.816,-200.958 392.027,-188 388.733,-172.697 386.668,-155.055 385.463,-142.015"/>
<polygon fill="midnightblue" stroke="midnightblue" points="388.94,-141.588 384.616,-131.915 381.964,-142.173 388.94,-141.588"/>
</g>
<!-- Node11 -->
<g id="node11" class="node"><title>Node11</title>
<g id="a_node11"><a xlink:href="_s_l_event_handler_8h.html" target="_top" xlink:title="SLEventHandler.h">
<polygon fill="white" stroke="black" points="434.027,-168.5 434.027,-187.5 526.027,-187.5 526.027,-168.5 434.027,-168.5"/>
<text text-anchor="middle" x="480.027" y="-175.5" font-family="Arial.ttf" font-size="10.00">SLEventHandler.h</text>
</a>
</g>
</g>
<!-- Node5&#45;&gt;Node11 -->
<g id="edge20" class="edge"><title>Node5&#45;&gt;Node11</title>
<path fill="none" stroke="midnightblue" d="M417.916,-224.324C429.177,-216.107 446.314,-203.602 459.736,-193.807"/>
<polygon fill="midnightblue" stroke="midnightblue" points="461.906,-196.556 467.921,-187.834 457.78,-190.901 461.906,-196.556"/>
</g>
<!-- Node6&#45;&gt;Node2 -->
<g id="edge8" class="edge"><title>Node6&#45;&gt;Node2</title>
<path fill="none" stroke="midnightblue" d="M541.692,-112.089C533.695,-99.0793 517.745,-74.4325 501.027,-56 491.126,-45.084 478.684,-34.2326 468.452,-25.9214"/>
<polygon fill="midnightblue" stroke="midnightblue" points="470.49,-23.0702 460.482,-19.5919 466.137,-28.5518 470.49,-23.0702"/>
</g>
<!-- Node7&#45;&gt;Node2 -->
<g id="edge10" class="edge"><title>Node7&#45;&gt;Node2</title>
<path fill="none" stroke="midnightblue" d="M313.283,-168.406C316.982,-155.369 325.23,-130.189 338.027,-112 363.397,-75.9415 403.727,-43.4226 428.155,-25.5192"/>
<polygon fill="midnightblue" stroke="midnightblue" points="430.303,-28.2853 436.378,-19.605 426.216,-22.6025 430.303,-28.2853"/>
</g>
<!-- Node7&#45;&gt;Node6 -->
<g id="edge16" class="edge"><title>Node7&#45;&gt;Node6</title>
<path fill="none" stroke="midnightblue" d="M340.439,-170.27C381.881,-160.788 457.677,-143.445 505.036,-132.608"/>
<polygon fill="midnightblue" stroke="midnightblue" points="506.009,-135.976 514.976,-130.334 504.448,-129.152 506.009,-135.976"/>
</g>
<!-- Node8 -->
<g id="node8" class="node"><title>Node8</title>
<g id="a_node8"><a xlink:href="_s_l_a_a_b_box_8h.html" target="_top" xlink:title="SLAABBox.h">
<polygon fill="white" stroke="black" points="223.027,-112.5 223.027,-131.5 291.027,-131.5 291.027,-112.5 223.027,-112.5"/>
<text text-anchor="middle" x="257.027" y="-119.5" font-family="Arial.ttf" font-size="10.00">SLAABBox.h</text>
</a>
</g>
</g>
<!-- Node7&#45;&gt;Node8 -->
<g id="edge11" class="edge"><title>Node7&#45;&gt;Node8</title>
<path fill="none" stroke="midnightblue" d="M302.11,-168.083C294.246,-160.22 282.596,-148.569 273.108,-139.081"/>
<polygon fill="midnightblue" stroke="midnightblue" points="275.324,-136.347 265.778,-131.751 270.374,-141.297 275.324,-136.347"/>
</g>
<!-- Node9 -->
<g id="node9" class="node"><title>Node9</title>
<g id="a_node9"><a xlink:href="_s_l_g_l_buffer_8h.html" target="_top" xlink:title="SLGLBuffer.h">
<polygon fill="white" stroke="black" points="185.527,-56.5 185.527,-75.5 256.527,-75.5 256.527,-56.5 185.527,-56.5"/>
<text text-anchor="middle" x="221.027" y="-63.5" font-family="Arial.ttf" font-size="10.00">SLGLBuffer.h</text>
</a>
</g>
</g>
<!-- Node7&#45;&gt;Node9 -->
<g id="edge15" class="edge"><title>Node7&#45;&gt;Node9</title>
<path fill="none" stroke="midnightblue" d="M281.696,-172.095C258.922,-166.58 228.812,-155.158 214.027,-132 205.169,-118.126 208.594,-99.1097 213.228,-85.2309"/>
<polygon fill="midnightblue" stroke="midnightblue" points="216.536,-86.3802 216.824,-75.7893 209.994,-83.8888 216.536,-86.3802"/>
</g>
<!-- Node8&#45;&gt;Node2 -->
<g id="edge12" class="edge"><title>Node8&#45;&gt;Node2</title>
<path fill="none" stroke="midnightblue" d="M261.6,-112.5C269.474,-98.656 286.896,-71.2556 309.027,-56 340.804,-34.0951 383.872,-22.3685 413.814,-16.4379"/>
<polygon fill="midnightblue" stroke="midnightblue" points="414.628,-19.8467 423.818,-14.5747 413.346,-12.965 414.628,-19.8467"/>
</g>
<!-- Node8&#45;&gt;Node9 -->
<g id="edge13" class="edge"><title>Node8&#45;&gt;Node9</title>
<path fill="none" stroke="midnightblue" d="M251.082,-112.083C246.05,-104.534 238.69,-93.4948 232.513,-84.2298"/>
<polygon fill="midnightblue" stroke="midnightblue" points="235.32,-82.1301 226.861,-75.7511 229.496,-86.0131 235.32,-82.1301"/>
</g>
<!-- Node9&#45;&gt;Node2 -->
<g id="edge14" class="edge"><title>Node9&#45;&gt;Node2</title>
<path fill="none" stroke="midnightblue" d="M256.652,-56.5625C299.578,-46.3958 371.24,-29.4233 413.929,-19.3126"/>
<polygon fill="midnightblue" stroke="midnightblue" points="414.941,-22.6698 423.865,-16.9593 413.328,-15.8583 414.941,-22.6698"/>
</g>
<!-- Node10&#45;&gt;Node2 -->
<g id="edge19" class="edge"><title>Node10&#45;&gt;Node2</title>
<path fill="none" stroke="midnightblue" d="M389.127,-112.368C399.807,-94.2957 424.695,-52.1764 438.8,-28.3074"/>
<polygon fill="midnightblue" stroke="midnightblue" points="441.876,-29.9813 443.95,-19.5914 435.85,-26.4201 441.876,-29.9813"/>
</g>
<!-- Node11&#45;&gt;Node2 -->
<g id="edge21" class="edge"><title>Node11&#45;&gt;Node2</title>
<path fill="none" stroke="midnightblue" d="M479.302,-168.406C477.516,-148.47 472.357,-97.6054 463.027,-56 461.01,-47.0072 458.058,-37.2161 455.384,-29.0701"/>
<polygon fill="midnightblue" stroke="midnightblue" points="458.667,-27.853 452.13,-19.5147 452.04,-30.1092 458.667,-27.853"/>
</g>
<!-- Node11&#45;&gt;Node6 -->
<g id="edge22" class="edge"><title>Node11&#45;&gt;Node6</title>
<path fill="none" stroke="midnightblue" d="M490.792,-168.324C500.793,-160.263 515.913,-148.077 527.957,-138.369"/>
<polygon fill="midnightblue" stroke="midnightblue" points="530.477,-140.834 536.066,-131.834 526.084,-135.384 530.477,-140.834"/>
</g>
<!-- Node12&#45;&gt;Node2 -->
<g id="edge24" class="edge"><title>Node12&#45;&gt;Node2</title>
<path fill="none" stroke="midnightblue" d="M93.5949,-112.076C101.51,-97.6215 119.236,-69.364 143.027,-56 188.782,-30.2989 343.061,-17.6107 413.464,-13.0473"/>
<polygon fill="midnightblue" stroke="midnightblue" points="413.857,-16.5296 423.618,-12.4081 413.418,-9.54341 413.857,-16.5296"/>
</g>
<!-- Node12&#45;&gt;Node9 -->
<g id="edge27" class="edge"><title>Node12&#45;&gt;Node9</title>
<path fill="none" stroke="midnightblue" d="M109.943,-112.444C131.763,-103.517 166.177,-89.4387 190.919,-79.3168"/>
<polygon fill="midnightblue" stroke="midnightblue" points="192.279,-82.5422 200.209,-75.5164 189.628,-76.0634 192.279,-82.5422"/>
</g>
<!-- Node13 -->
<g id="node13" class="node"><title>Node13</title>
<g id="a_node13"><a xlink:href="_s_l_image_8h.html" target="_top" xlink:title="SLImage.h">
<polygon fill="white" stroke="black" points="29.027,-56.5 29.027,-75.5 91.027,-75.5 91.027,-56.5 29.027,-56.5"/>
<text text-anchor="middle" x="60.027" y="-63.5" font-family="Arial.ttf" font-size="10.00">SLImage.h</text>
</a>
</g>
</g>
<!-- Node12&#45;&gt;Node13 -->
<g id="edge25" class="edge"><title>Node12&#45;&gt;Node13</title>
<path fill="none" stroke="midnightblue" d="M84.2382,-112.083C80.2686,-104.691 74.5019,-93.9533 69.5922,-84.8111"/>
<polygon fill="midnightblue" stroke="midnightblue" points="72.5414,-82.9051 64.7266,-75.7511 66.3744,-86.217 72.5414,-82.9051"/>
</g>
<!-- Node13&#45;&gt;Node2 -->
<g id="edge26" class="edge"><title>Node13&#45;&gt;Node2</title>
<path fill="none" stroke="midnightblue" d="M91.4488,-58.4352C95.9956,-57.567 100.625,-56.7273 105.027,-56 217.378,-37.4379 351.405,-21.7491 413.813,-14.8137"/>
<polygon fill="midnightblue" stroke="midnightblue" points="414.352,-18.2756 423.907,-13.6991 413.584,-11.3179 414.352,-18.2756"/>
</g>
<!-- Node14&#45;&gt;Node2 -->
<g id="edge29" class="edge"><title>Node14&#45;&gt;Node2</title>
<path fill="none" stroke="midnightblue" d="M781.293,-394.704C832.023,-383.578 918.027,-355.244 918.027,-291 918.027,-291 918.027,-291 918.027,-121 918.027,-90.9022 922.181,-75.2288 899.027,-56 867.338,-29.6837 585.214,-16.2736 484.533,-12.2941"/>
<polygon fill="midnightblue" stroke="midnightblue" points="484.399,-8.78641 474.271,-11.8965 484.128,-15.7812 484.399,-8.78641"/>
</g>
<!-- Node15 -->
<g id="node15" class="node"><title>Node15</title>
<g id="a_node15"><a xlink:href="_s_l_joint_8h.html" target="_top" xlink:title="SLJoint.h">
<polygon fill="white" stroke="black" points="546.527,-280.5 546.527,-299.5 601.527,-299.5 601.527,-280.5 546.527,-280.5"/>
<text text-anchor="middle" x="574.027" y="-287.5" font-family="Arial.ttf" font-size="10.00">SLJoint.h</text>
</a>
</g>
</g>
<!-- Node14&#45;&gt;Node15 -->
<g id="edge30" class="edge"><title>Node14&#45;&gt;Node15</title>
<path fill="none" stroke="midnightblue" d="M731.609,-392.368C702.265,-373.492 632.144,-328.385 596.159,-305.237"/>
<polygon fill="midnightblue" stroke="midnightblue" points="597.686,-302.058 587.383,-299.591 593.899,-307.945 597.686,-302.058"/>
</g>
<!-- Node16 -->
<g id="node16" class="node"><title>Node16</title>
<g id="a_node16"><a xlink:href="_s_l_animation_8h.html" target="_top" xlink:title="SLAnimation.h">
<polygon fill="white" stroke="black" points="706.027,-336.5 706.027,-355.5 784.027,-355.5 784.027,-336.5 706.027,-336.5"/>
<text text-anchor="middle" x="745.027" y="-343.5" font-family="Arial.ttf" font-size="10.00">SLAnimation.h</text>
</a>
</g>
</g>
<!-- Node14&#45;&gt;Node16 -->
<g id="edge33" class="edge"><title>Node14&#45;&gt;Node16</title>
<path fill="none" stroke="midnightblue" d="M745.027,-392.083C745.027,-385.006 745.027,-374.861 745.027,-365.986"/>
<polygon fill="midnightblue" stroke="midnightblue" points="748.527,-365.751 745.027,-355.751 741.527,-365.751 748.527,-365.751"/>
</g>
<!-- Node19 -->
<g id="node19" class="node"><title>Node19</title>
<g id="a_node19"><a xlink:href="_s_l_anim_playback_8h.html" target="_top" xlink:title="SLAnimPlayback.h">
<polygon fill="white" stroke="black" points="658.027,-168.5 658.027,-187.5 752.027,-187.5 752.027,-168.5 658.027,-168.5"/>
<text text-anchor="middle" x="705.027" y="-175.5" font-family="Arial.ttf" font-size="10.00">SLAnimPlayback.h</text>
</a>
</g>
</g>
<!-- Node14&#45;&gt;Node19 -->
<g id="edge42" class="edge"><title>Node14&#45;&gt;Node19</title>
<path fill="none" stroke="midnightblue" d="M759.397,-392.33C770.907,-384.469 786.216,-371.722 793.027,-356 796.561,-347.844 795.273,-344.6 793.027,-336 778.415,-280.046 738.936,-222.937 718.182,-195.589"/>
<polygon fill="midnightblue" stroke="midnightblue" points="720.812,-193.269 711.925,-187.5 715.275,-197.552 720.812,-193.269"/>
</g>
<!-- Node15&#45;&gt;Node2 -->
<g id="edge31" class="edge"><title>Node15&#45;&gt;Node2</title>
<path fill="none" stroke="midnightblue" d="M577.539,-280.376C587.787,-253.806 615.259,-171.405 588.027,-112 567.663,-67.5755 516.437,-38.6467 482.189,-23.5741"/>
<polygon fill="midnightblue" stroke="midnightblue" points="483.163,-20.1859 472.589,-19.514 480.436,-26.6329 483.163,-20.1859"/>
</g>
<!-- Node15&#45;&gt;Node5 -->
<g id="edge32" class="edge"><title>Node15&#45;&gt;Node5</title>
<path fill="none" stroke="midnightblue" d="M547.407,-280.444C519.021,-271.32 473.89,-256.813 442.274,-246.651"/>
<polygon fill="midnightblue" stroke="midnightblue" points="443.114,-243.244 432.523,-243.516 440.972,-249.909 443.114,-243.244"/>
</g>
<!-- Node16&#45;&gt;Node2 -->
<g id="edge34" class="edge"><title>Node16&#45;&gt;Node2</title>
<path fill="none" stroke="midnightblue" d="M748.536,-336.452C758.796,-310.101 786.458,-228.266 761.027,-168 733.289,-102.267 708.694,-90.1032 646.027,-56 594.151,-27.7694 525.312,-17.208 484.253,-13.2852"/>
<polygon fill="midnightblue" stroke="midnightblue" points="484.459,-9.78993 474.192,-12.4044 483.848,-16.7633 484.459,-9.78993"/>
</g>
<!-- Node16&#45;&gt;Node6 -->
<g id="edge41" class="edge"><title>Node16&#45;&gt;Node6</title>
<path fill="none" stroke="midnightblue" d="M737.265,-336.297C707.576,-303.01 600.916,-183.421 561.661,-139.408"/>
<polygon fill="midnightblue" stroke="midnightblue" points="564.219,-137.017 554.95,-131.884 558.994,-141.676 564.219,-137.017"/>
</g>
<!-- Node16&#45;&gt;Node15 -->
<g id="edge40" class="edge"><title>Node16&#45;&gt;Node15</title>
<path fill="none" stroke="midnightblue" d="M717.931,-336.444C689.039,-327.32 643.102,-312.813 610.922,-302.651"/>
<polygon fill="midnightblue" stroke="midnightblue" points="611.585,-299.19 600.996,-299.516 609.477,-305.865 611.585,-299.19"/>
</g>
<!-- Node17 -->
<g id="node17" class="node"><title>Node17</title>
<g id="a_node17"><a xlink:href="_s_l_anim_track_8h.html" target="_top" xlink:title="SLAnimTrack.h">
<polygon fill="white" stroke="black" points="808.527,-168.5 808.527,-187.5 889.527,-187.5 889.527,-168.5 808.527,-168.5"/>
<text text-anchor="middle" x="849.027" y="-175.5" font-family="Arial.ttf" font-size="10.00">SLAnimTrack.h</text>
</a>
</g>
</g>
<!-- Node16&#45;&gt;Node17 -->
<g id="edge35" class="edge"><title>Node16&#45;&gt;Node17</title>
<path fill="none" stroke="midnightblue" d="M756.775,-336.443C767.569,-328.107 783.451,-314.588 794.027,-300 817.977,-266.964 835.082,-221.834 843.372,-197.08"/>
<polygon fill="midnightblue" stroke="midnightblue" points="846.712,-198.127 846.466,-187.535 840.053,-195.968 846.712,-198.127"/>
</g>
<!-- Node17&#45;&gt;Node2 -->
<g id="edge36" class="edge"><title>Node17&#45;&gt;Node2</title>
<path fill="none" stroke="midnightblue" d="M845.718,-168.45C836.441,-145.744 807.823,-83.7703 762.027,-56 715.925,-28.0442 556.311,-16.4963 484.509,-12.6352"/>
<polygon fill="midnightblue" stroke="midnightblue" points="484.34,-9.12184 474.172,-12.1001 483.978,-16.1125 484.34,-9.12184"/>
</g>
<!-- Node17&#45;&gt;Node6 -->
<g id="edge37" class="edge"><title>Node17&#45;&gt;Node6</title>
<path fill="none" stroke="midnightblue" d="M808.298,-169.717C751.038,-159.479 647.263,-140.923 589.221,-130.545"/>
<polygon fill="midnightblue" stroke="midnightblue" points="589.741,-127.082 579.281,-128.767 588.509,-133.973 589.741,-127.082"/>
</g>
<!-- Node18 -->
<g id="node18" class="node"><title>Node18</title>
<g id="a_node18"><a xlink:href="_s_l_keyframe_8h.html" target="_top" xlink:title="SLKeyframe.h">
<polygon fill="white" stroke="black" points="814.027,-56.5 814.027,-75.5 890.027,-75.5 890.027,-56.5 814.027,-56.5"/>
<text text-anchor="middle" x="852.027" y="-63.5" font-family="Arial.ttf" font-size="10.00">SLKeyframe.h</text>
</a>
</g>
</g>
<!-- Node17&#45;&gt;Node18 -->
<g id="edge38" class="edge"><title>Node17&#45;&gt;Node18</title>
<path fill="none" stroke="midnightblue" d="M849.262,-168.368C849.746,-150.617 850.863,-109.666 851.52,-85.5974"/>
<polygon fill="midnightblue" stroke="midnightblue" points="855.019,-85.6832 851.793,-75.5914 848.021,-85.4922 855.019,-85.6832"/>
</g>
<!-- Node18&#45;&gt;Node2 -->
<g id="edge39" class="edge"><title>Node18&#45;&gt;Node2</title>
<path fill="none" stroke="midnightblue" d="M814.003,-58.2208C809.301,-57.441 804.557,-56.6821 800.027,-56 684.882,-38.6629 547.836,-22.3308 484.436,-15.0189"/>
<polygon fill="midnightblue" stroke="midnightblue" points="484.525,-11.5062 474.191,-13.8421 483.726,-18.4605 484.525,-11.5062"/>
</g>
<!-- Node19&#45;&gt;Node2 -->
<g id="edge43" class="edge"><title>Node19&#45;&gt;Node2</title>
<path fill="none" stroke="midnightblue" d="M701.607,-168.409C692.286,-146.137 664.208,-86.1755 621.027,-56 579.808,-27.1954 521.392,-16.8281 484.361,-13.0971"/>
<polygon fill="midnightblue" stroke="midnightblue" points="484.329,-9.58033 474.057,-12.1748 483.705,-16.5525 484.329,-9.58033"/>
</g>
<!-- Node19&#45;&gt;Node6 -->
<g id="edge44" class="edge"><title>Node19&#45;&gt;Node6</title>
<path fill="none" stroke="midnightblue" d="M679.991,-168.444C653.411,-159.359 611.218,-144.939 581.504,-134.783"/>
<polygon fill="midnightblue" stroke="midnightblue" points="582.54,-131.439 571.945,-131.516 580.276,-138.062 582.54,-131.439"/>
</g>
</g>
</svg>
