<?xml version="1.0" encoding="UTF-8" standalone="no"?>
<!DOCTYPE svg PUBLIC "-//W3C//DTD SVG 1.1//EN"
 "http://www.w3.org/Graphics/SVG/1.1/DTD/svg11.dtd">
<!-- Generated by graphviz version 8.0.5 (20230430.1635)
 -->
<!-- Title: SLAssetManager.h Pages: 1 -->
<svg width="1307pt" height="86pt"
 viewBox="0.00 0.00 1307.12 86.00" xmlns="http://www.w3.org/2000/svg" xmlns:xlink="http://www.w3.org/1999/xlink">
<g id="graph0" class="graph" transform="scale(1 1) rotate(0) translate(4 82)">
<title>SLAssetManager.h</title>
<polygon fill="white" stroke="none" points="-4,4 -4,-82 1303.12,-82 1303.12,4 -4,4"/>
<!-- Node1 -->
<g id="node1" class="node">
<title>Node1</title>
<g id="a_node1"><a xlink:title=" ">
<polygon fill="#bfbfbf" stroke="black" points="636,-57.5 636,-77.5 735.25,-77.5 735.25,-57.5 636,-57.5"/>
<text text-anchor="middle" x="685.62" y="-64" font-family="Arial" font-size="10.00">SLAssetManager.h</text>
</a>
</g>
</g>
<!-- Node2 -->
<g id="node2" class="node">
<title>Node2</title>
<g id="a_node2"><a xlink:href="_app_demo_gui_8cpp.html" target="_top" xlink:title=" ">
<polygon fill="white" stroke="black" points="0,-0.5 0,-20.5 93.25,-20.5 93.25,-0.5 0,-0.5"/>
<text text-anchor="middle" x="46.62" y="-7" font-family="Arial" font-size="10.00">AppDemoGui.cpp</text>
</a>
</g>
</g>
<!-- Node1&#45;&gt;Node2 -->
<g id="edge1" class="edge">
<title>Node1&#45;&gt;Node2</title>
<path fill="none" stroke="midnightblue" d="M625.44,-63.67C519.33,-58.26 292.16,-44.83 101.62,-21 98.84,-20.65 95.97,-20.26 93.09,-19.84"/>
<polygon fill="midnightblue" stroke="midnightblue" points="625.08,-67.2 635.25,-64.21 625.43,-60.21 625.08,-67.2"/>
</g>
<!-- Node3 -->
<g id="node3" class="node">
<title>Node3</title>
<g id="a_node3"><a xlink:href="_app_demo_load_8cpp.html" target="_top" xlink:title=" ">
<polygon fill="white" stroke="black" points="111,-0.5 111,-20.5 210.25,-20.5 210.25,-0.5 111,-0.5"/>
<text text-anchor="middle" x="160.62" y="-7" font-family="Arial" font-size="10.00">AppDemoLoad.cpp</text>
</a>
</g>
</g>
<!-- Node1&#45;&gt;Node3 -->
<g id="edge2" class="edge">
<title>Node1&#45;&gt;Node3</title>
<path fill="none" stroke="midnightblue" d="M625.38,-61.89C536.28,-54.8 364.21,-39.99 218.62,-21 215.79,-20.63 212.88,-20.23 209.95,-19.8"/>
<polygon fill="midnightblue" stroke="midnightblue" points="624.84,-65.44 635.08,-62.74 625.39,-58.46 624.84,-65.44"/>
</g>
<!-- Node4 -->
<g id="node4" class="node">
<title>Node4</title>
<g id="a_node4"><a xlink:href="_app_demo_main_g_l_f_w_8cpp.html" target="_top" xlink:title=" ">
<polygon fill="white" stroke="black" points="228.12,-0.5 228.12,-20.5 355.12,-20.5 355.12,-0.5 228.12,-0.5"/>
<text text-anchor="middle" x="291.62" y="-7" font-family="Arial" font-size="10.00">AppDemoMainGLFW.cpp</text>
</a>
</g>
</g>
<!-- Node1&#45;&gt;Node4 -->
<g id="edge3" class="edge">
<title>Node1&#45;&gt;Node4</title>
<path fill="none" stroke="midnightblue" d="M625.26,-58.07C552.09,-47.86 429.37,-30.73 354.91,-20.33"/>
<polygon fill="midnightblue" stroke="midnightblue" points="624.74,-61.67 635.12,-59.59 625.7,-54.74 624.74,-61.67"/>
</g>
<!-- Node5 -->
<g id="node5" class="node">
<title>Node5</title>
<g id="a_node5"><a xlink:href="_s_l_asset_manager_8cpp.html" target="_top" xlink:title=" ">
<polygon fill="white" stroke="black" points="372.75,-0.5 372.75,-20.5 482.5,-20.5 482.5,-0.5 372.75,-0.5"/>
<text text-anchor="middle" x="427.62" y="-7" font-family="Arial" font-size="10.00">SLAssetManager.cpp</text>
</a>
</g>
</g>
<!-- Node1&#45;&gt;Node5 -->
<g id="edge4" class="edge">
<title>Node1&#45;&gt;Node5</title>
<path fill="none" stroke="midnightblue" d="M633.05,-55.29C584.8,-45.01 514.23,-29.96 469.63,-20.46"/>
<polygon fill="midnightblue" stroke="midnightblue" points="632.09,-58.88 642.6,-57.54 633.55,-52.03 632.09,-58.88"/>
</g>
<!-- Node6 -->
<g id="node6" class="node">
<title>Node6</title>
<g id="a_node6"><a xlink:href="_s_l_g_l_program_8cpp.html" target="_top" xlink:title=" ">
<polygon fill="white" stroke="black" points="500.5,-0.5 500.5,-20.5 596.75,-20.5 596.75,-0.5 500.5,-0.5"/>
<text text-anchor="middle" x="548.62" y="-7" font-family="Arial" font-size="10.00">SLGLProgram.cpp</text>
</a>
</g>
</g>
<!-- Node1&#45;&gt;Node6 -->
<g id="edge5" class="edge">
<title>Node1&#45;&gt;Node6</title>
<path fill="none" stroke="midnightblue" d="M653.41,-53.57C628.03,-43.38 593.32,-29.44 570.93,-20.46"/>
<polygon fill="midnightblue" stroke="midnightblue" points="651.72,-57.06 662.31,-57.54 654.33,-50.57 651.72,-57.06"/>
</g>
<!-- Node7 -->
<g id="node7" class="node">
<title>Node7</title>
<g id="a_node7"><a xlink:href="_s_l_g_l_program_generated_8cpp.html" target="_top" xlink:title=" ">
<polygon fill="white" stroke="black" points="615,-0.5 615,-20.5 756.25,-20.5 756.25,-0.5 615,-0.5"/>
<text text-anchor="middle" x="685.62" y="-7" font-family="Arial" font-size="10.00">SLGLProgramGenerated.cpp</text>
</a>
</g>
</g>
<!-- Node1&#45;&gt;Node7 -->
<g id="edge6" class="edge">
<title>Node1&#45;&gt;Node7</title>
<path fill="none" stroke="midnightblue" d="M685.62,-47C685.62,-37.85 685.62,-27.39 685.62,-20.21"/>
<polygon fill="midnightblue" stroke="midnightblue" points="682.13,-46.91 685.62,-56.91 689.13,-46.91 682.13,-46.91"/>
</g>
<!-- Node8 -->
<g id="node8" class="node">
<title>Node8</title>
<g id="a_node8"><a xlink:href="_s_l_g_l_texture_8cpp.html" target="_top" xlink:title=" ">
<polygon fill="white" stroke="black" points="774.12,-0.5 774.12,-20.5 865.12,-20.5 865.12,-0.5 774.12,-0.5"/>
<text text-anchor="middle" x="819.62" y="-7" font-family="Arial" font-size="10.00">SLGLTexture.cpp</text>
</a>
</g>
</g>
<!-- Node1&#45;&gt;Node8 -->
<g id="edge7" class="edge">
<title>Node1&#45;&gt;Node8</title>
<path fill="none" stroke="midnightblue" d="M717.47,-53.43C742.26,-43.26 776.01,-29.4 797.81,-20.46"/>
<polygon fill="midnightblue" stroke="midnightblue" points="716.37,-50.51 708.45,-57.54 719.03,-56.98 716.37,-50.51"/>
</g>
<!-- Node9 -->
<g id="node9" class="node">
<title>Node9</title>
<g id="a_node9"><a xlink:href="_s_l_g_l_texture_i_b_l_8cpp.html" target="_top" xlink:title=" ">
<polygon fill="white" stroke="black" points="883.62,-0.5 883.62,-20.5 989.62,-20.5 989.62,-0.5 883.62,-0.5"/>
<text text-anchor="middle" x="936.62" y="-7" font-family="Arial" font-size="10.00">SLGLTextureIBL.cpp</text>
</a>
</g>
</g>
<!-- Node1&#45;&gt;Node9 -->
<g id="edge8" class="edge">
<title>Node1&#45;&gt;Node9</title>
<path fill="none" stroke="midnightblue" d="M737.07,-55.23C784,-44.94 852.46,-29.94 895.76,-20.46"/>
<polygon fill="midnightblue" stroke="midnightblue" points="736.53,-51.98 727.51,-57.54 738.03,-58.82 736.53,-51.98"/>
</g>
<!-- Node10 -->
<g id="node10" class="node">
<title>Node10</title>
<g id="a_node10"><a xlink:href="_s_l_material_8cpp.html" target="_top" xlink:title=" ">
<polygon fill="white" stroke="black" points="1008,-0.5 1008,-20.5 1089.25,-20.5 1089.25,-0.5 1008,-0.5"/>
<text text-anchor="middle" x="1048.62" y="-7" font-family="Arial" font-size="10.00">SLMaterial.cpp</text>
</a>
</g>
</g>
<!-- Node1&#45;&gt;Node10 -->
<g id="edge9" class="edge">
<title>Node1&#45;&gt;Node10</title>
<path fill="none" stroke="midnightblue" d="M745.61,-58.57C808.7,-50.04 910.83,-35.72 998.62,-21 1001.76,-20.47 1005.01,-19.91 1008.26,-19.32"/>
<polygon fill="midnightblue" stroke="midnightblue" points="745.5,-55.19 736.06,-59.99 746.44,-62.12 745.5,-55.19"/>
</g>
<!-- Node11 -->
<g id="node11" class="node">
<title>Node11</title>
<g id="a_node11"><a xlink:href="_s_l_mesh_8cpp.html" target="_top" xlink:title=" ">
<polygon fill="white" stroke="black" points="1107.25,-0.5 1107.25,-20.5 1178,-20.5 1178,-0.5 1107.25,-0.5"/>
<text text-anchor="middle" x="1142.62" y="-7" font-family="Arial" font-size="10.00">SLMesh.cpp</text>
</a>
</g>
</g>
<!-- Node1&#45;&gt;Node11 -->
<g id="edge10" class="edge">
<title>Node1&#45;&gt;Node11</title>
<path fill="none" stroke="midnightblue" d="M746.05,-61.8C826.75,-55.09 974.01,-41.26 1098.62,-21 1101.56,-20.52 1104.59,-19.98 1107.62,-19.4"/>
<polygon fill="midnightblue" stroke="midnightblue" points="745.8,-58.4 736.12,-62.7 746.37,-65.37 745.8,-58.4"/>
</g>
<!-- Node12 -->
<g id="node12" class="node">
<title>Node12</title>
<g id="a_node12"><a xlink:href="_s_l_tex_color_l_u_t_8cpp.html" target="_top" xlink:title=" ">
<polygon fill="white" stroke="black" points="1196.12,-0.5 1196.12,-20.5 1299.12,-20.5 1299.12,-0.5 1196.12,-0.5"/>
<text text-anchor="middle" x="1247.62" y="-7" font-family="Arial" font-size="10.00">SLTexColorLUT.cpp</text>
</a>
</g>
</g>
<!-- Node1&#45;&gt;Node12 -->
<g id="edge11" class="edge">
<title>Node1&#45;&gt;Node12</title>
<path fill="none" stroke="midnightblue" d="M745.9,-62.28C840.14,-55.39 1027.99,-40.54 1186.62,-21 1189.82,-20.61 1193.1,-20.18 1196.4,-19.72"/>
<polygon fill="midnightblue" stroke="midnightblue" points="745.88,-58.84 736.16,-63.06 746.39,-65.82 745.88,-58.84"/>
</g>
</g>
</svg>
