<?xml version="1.0" encoding="UTF-8" standalone="no"?>
<!DOCTYPE svg PUBLIC "-//W3C//DTD SVG 1.1//EN"
 "http://www.w3.org/Graphics/SVG/1.1/DTD/svg11.dtd">
<!-- Generated by graphviz version 2.28.0 (20110507.0327)
 -->
<!-- Title: SLAnimPlayback.h Pages: 1 -->
<svg width="3032pt" height="308pt"
 viewBox="0.00 0.00 3032.00 308.00" xmlns="http://www.w3.org/2000/svg" xmlns:xlink="http://www.w3.org/1999/xlink">
<g id="graph1" class="graph" transform="scale(1 1) rotate(0) translate(4 304)">
<title>SLAnimPlayback.h</title>
<polygon fill="white" stroke="white" points="-4,5 -4,-304 3029,-304 3029,5 -4,5"/>
<!-- Node1 -->
<g id="node1" class="node"><title>Node1</title>
<polygon fill="#bfbfbf" stroke="black" points="446,-280.5 446,-299.5 550,-299.5 550,-280.5 446,-280.5"/>
<text text-anchor="middle" x="498" y="-287.5" font-family="Arial.ttf" font-size="10.00">SLAnimPlayback.h</text>
</g>
<!-- Node2 -->
<g id="node3" class="node"><title>Node2</title>
<a xlink:href="_s_l_anim_playback_8cpp.html" target="_top" xlink:title="SLAnimPlayback.cpp">
<polygon fill="white" stroke="black" points="0,-224.5 0,-243.5 116,-243.5 116,-224.5 0,-224.5"/>
<text text-anchor="middle" x="58" y="-231.5" font-family="Arial.ttf" font-size="10.00">SLAnimPlayback.cpp</text>
</a>
</g>
<!-- Node1&#45;&gt;Node2 -->
<g id="edge2" class="edge"><title>Node1&#45;&gt;Node2</title>
<path fill="none" stroke="midnightblue" d="M435.919,-281.46C362.759,-272.562 237.528,-257.295 130,-244 125.499,-243.444 120.841,-242.866 116.157,-242.283"/>
<polygon fill="midnightblue" stroke="midnightblue" points="435.54,-284.94 445.89,-282.672 436.385,-277.991 435.54,-284.94"/>
</g>
<!-- Node3 -->
<g id="node5" class="node"><title>Node3</title>
<a xlink:href="_s_l_demo_gui_8cpp.html" target="_top" xlink:title="SLDemoGui.cpp">
<polygon fill="white" stroke="black" points="251,-0.5 251,-19.5 345,-19.5 345,-0.5 251,-0.5"/>
<text text-anchor="middle" x="298" y="-7.5" font-family="Arial.ttf" font-size="10.00">SLDemoGui.cpp</text>
</a>
</g>
<!-- Node1&#45;&gt;Node3 -->
<g id="edge4" class="edge"><title>Node1&#45;&gt;Node3</title>
<path fill="none" stroke="midnightblue" d="M435.622,-282.558C334.019,-270.316 144,-239.354 144,-179 144,-179 144,-179 144,-121 144,-63.1733 216.789,-32.8661 262.282,-19.5713"/>
<polygon fill="midnightblue" stroke="midnightblue" points="435.425,-286.059 445.766,-283.754 436.244,-279.107 435.425,-286.059"/>
</g>
<!-- Node4 -->
<g id="node7" class="node"><title>Node4</title>
<a xlink:href="_s_l_anim_manager_8h.html" target="_top" xlink:title="SLAnimManager.h">
<polygon fill="white" stroke="black" points="801,-168.5 801,-187.5 905,-187.5 905,-168.5 801,-168.5"/>
<text text-anchor="middle" x="853" y="-175.5" font-family="Arial.ttf" font-size="10.00">SLAnimManager.h</text>
</a>
</g>
<!-- Node1&#45;&gt;Node4 -->
<g id="edge6" class="edge"><title>Node1&#45;&gt;Node4</title>
<path fill="none" stroke="midnightblue" d="M535.507,-277.378C607.149,-255.179 761.952,-207.212 825.212,-187.61"/>
<polygon fill="midnightblue" stroke="midnightblue" points="534.077,-274.157 525.561,-280.46 536.149,-280.843 534.077,-274.157"/>
</g>
<!-- Node46 -->
<g id="node105" class="node"><title>Node46</title>
<a xlink:href="_s_l_skeleton_8h.html" target="_top" xlink:title="SLSkeleton.h">
<polygon fill="white" stroke="black" points="1636,-224.5 1636,-243.5 1716,-243.5 1716,-224.5 1636,-224.5"/>
<text text-anchor="middle" x="1676" y="-231.5" font-family="Arial.ttf" font-size="10.00">SLSkeleton.h</text>
</a>
</g>
<!-- Node1&#45;&gt;Node46 -->
<g id="edge118" class="edge"><title>Node1&#45;&gt;Node46</title>
<path fill="none" stroke="midnightblue" d="M560.152,-286.151C771.904,-276.444 1461.67,-244.825 1635.79,-236.843"/>
<polygon fill="midnightblue" stroke="midnightblue" points="559.966,-282.656 550.137,-286.61 560.287,-289.648 559.966,-282.656"/>
</g>
<!-- Node4&#45;&gt;Node4 -->
<g id="edge10" class="edge"><title>Node4&#45;&gt;Node4</title>
<path fill="none" stroke="midnightblue" d="M893.178,-188.432C909.381,-189.04 923,-185.563 923,-178 923,-168.867 903.141,-165.692 882.855,-168.475"/>
<polygon fill="midnightblue" stroke="midnightblue" points="893.123,-184.914 882.855,-187.525 892.51,-191.887 893.123,-184.914"/>
</g>
<!-- Node5 -->
<g id="node9" class="node"><title>Node5</title>
<a xlink:href="_s_l_scene_view_8cpp.html" target="_top" xlink:title="SLSceneView.cpp">
<polygon fill="white" stroke="black" points="131.5,-0.5 131.5,-19.5 232.5,-19.5 232.5,-0.5 131.5,-0.5"/>
<text text-anchor="middle" x="182" y="-7.5" font-family="Arial.ttf" font-size="10.00">SLSceneView.cpp</text>
</a>
</g>
<!-- Node4&#45;&gt;Node5 -->
<g id="edge8" class="edge"><title>Node4&#45;&gt;Node5</title>
<path fill="none" stroke="midnightblue" d="M790.806,-175.73C644.855,-172.281 289.259,-160.977 244,-132 202.851,-105.654 187.71,-42.8019 183.422,-19.7064"/>
<polygon fill="midnightblue" stroke="midnightblue" points="790.867,-179.233 800.945,-175.965 791.029,-172.235 790.867,-179.233"/>
</g>
<!-- Node6 -->
<g id="node12" class="node"><title>Node6</title>
<a xlink:href="_s_l_scene_8h.html" target="_top" xlink:title="SLScene.h">
<polygon fill="white" stroke="black" points="1673,-112.5 1673,-131.5 1741,-131.5 1741,-112.5 1673,-112.5"/>
<text text-anchor="middle" x="1707" y="-119.5" font-family="Arial.ttf" font-size="10.00">SLScene.h</text>
</a>
</g>
<!-- Node4&#45;&gt;Node6 -->
<g id="edge12" class="edge"><title>Node4&#45;&gt;Node6</title>
<path fill="none" stroke="midnightblue" d="M915.323,-173.059C1083.71,-162.412 1543.77,-133.322 1672.89,-125.157"/>
<polygon fill="midnightblue" stroke="midnightblue" points="914.895,-169.579 905.136,-173.703 915.337,-176.565 914.895,-169.579"/>
</g>
<!-- Node6&#45;&gt;Node3 -->
<g id="edge50" class="edge"><title>Node6&#45;&gt;Node3</title>
<path fill="none" stroke="midnightblue" d="M1662.66,-120.231C1474.81,-116.821 749.707,-102.07 651,-76 632.166,-71.0257 630.573,-61.8727 612,-56 501.609,-21.0953 468.495,-37.1866 354,-20 351.079,-19.5615 348.073,-19.1021 345.043,-18.6329"/>
<polygon fill="midnightblue" stroke="midnightblue" points="1662.67,-123.732 1672.73,-120.412 1662.8,-116.733 1662.67,-123.732"/>
</g>
<!-- Node7 -->
<g id="node14" class="node"><title>Node7</title>
<a xlink:href="_s_l_c_v_capture_8cpp.html" target="_top" xlink:title="SLCVCapture.cpp">
<polygon fill="white" stroke="black" points="476.5,-0.5 476.5,-19.5 577.5,-19.5 577.5,-0.5 476.5,-0.5"/>
<text text-anchor="middle" x="527" y="-7.5" font-family="Arial.ttf" font-size="10.00">SLCVCapture.cpp</text>
</a>
</g>
<!-- Node6&#45;&gt;Node7 -->
<g id="edge14" class="edge"><title>Node6&#45;&gt;Node7</title>
<path fill="none" stroke="midnightblue" d="M1662.42,-120.431C1588.34,-118.492 1435.79,-110.264 1312,-76 1291.3,-70.2697 1288.87,-61.1003 1268,-56 973.578,15.9629 888.549,-50.5154 587,-20 583.961,-19.6925 580.84,-19.3391 577.696,-18.9542"/>
<polygon fill="midnightblue" stroke="midnightblue" points="1662.69,-123.938 1672.77,-120.674 1662.85,-116.94 1662.69,-123.938"/>
</g>
<!-- Node8 -->
<g id="node16" class="node"><title>Node8</title>
<a xlink:href="_s_l_c_v_feature_manager_8cpp.html" target="_top" xlink:title="SLCVFeatureManager.cpp">
<polygon fill="white" stroke="black" points="1837.5,-0.5 1837.5,-19.5 1978.5,-19.5 1978.5,-0.5 1837.5,-0.5"/>
<text text-anchor="middle" x="1908" y="-7.5" font-family="Arial.ttf" font-size="10.00">SLCVFeatureManager.cpp</text>
</a>
</g>
<!-- Node6&#45;&gt;Node8 -->
<g id="edge16" class="edge"><title>Node6&#45;&gt;Node8</title>
<path fill="none" stroke="midnightblue" d="M1695.3,-103.608C1687.33,-89.3792 1680.03,-69.4751 1691,-56 1700.96,-43.7654 1787.21,-28.7383 1847.92,-19.5178"/>
<polygon fill="midnightblue" stroke="midnightblue" points="1692.49,-105.719 1700.71,-112.403 1698.45,-102.052 1692.49,-105.719"/>
</g>
<!-- Node9 -->
<g id="node18" class="node"><title>Node9</title>
<a xlink:href="_s_l_g_l_im_gui_8cpp.html" target="_top" xlink:title="SLGLImGui.cpp">
<polygon fill="white" stroke="black" points="1699.5,-56.5 1699.5,-75.5 1788.5,-75.5 1788.5,-56.5 1699.5,-56.5"/>
<text text-anchor="middle" x="1744" y="-63.5" font-family="Arial.ttf" font-size="10.00">SLGLImGui.cpp</text>
</a>
</g>
<!-- Node6&#45;&gt;Node9 -->
<g id="edge18" class="edge"><title>Node6&#45;&gt;Node9</title>
<path fill="none" stroke="midnightblue" d="M1718.95,-103.566C1725.31,-94.2747 1732.87,-83.2484 1738,-75.7511"/>
<polygon fill="midnightblue" stroke="midnightblue" points="1715.87,-101.855 1713.11,-112.083 1721.65,-105.812 1715.87,-101.855"/>
</g>
<!-- Node10 -->
<g id="node20" class="node"><title>Node10</title>
<a xlink:href="_s_l_g_l_oculus_8cpp.html" target="_top" xlink:title="SLGLOculus.cpp">
<polygon fill="white" stroke="black" points="1807,-56.5 1807,-75.5 1901,-75.5 1901,-56.5 1807,-56.5"/>
<text text-anchor="middle" x="1854" y="-63.5" font-family="Arial.ttf" font-size="10.00">SLGLOculus.cpp</text>
</a>
</g>
<!-- Node6&#45;&gt;Node10 -->
<g id="edge20" class="edge"><title>Node6&#45;&gt;Node10</title>
<path fill="none" stroke="midnightblue" d="M1739.92,-108.906C1767.56,-98.7536 1806.34,-84.5063 1830.82,-75.5164"/>
<polygon fill="midnightblue" stroke="midnightblue" points="1738.47,-105.71 1730.29,-112.444 1740.89,-112.281 1738.47,-105.71"/>
</g>
<!-- Node11 -->
<g id="node22" class="node"><title>Node11</title>
<a xlink:href="_s_l_g_l_oculus_f_b_8cpp.html" target="_top" xlink:title="SLGLOculusFB.cpp">
<polygon fill="white" stroke="black" points="1919,-56.5 1919,-75.5 2025,-75.5 2025,-56.5 1919,-56.5"/>
<text text-anchor="middle" x="1972" y="-63.5" font-family="Arial.ttf" font-size="10.00">SLGLOculusFB.cpp</text>
</a>
</g>
<!-- Node6&#45;&gt;Node11 -->
<g id="edge22" class="edge"><title>Node6&#45;&gt;Node11</title>
<path fill="none" stroke="midnightblue" d="M1750.93,-112.048C1800.72,-101.902 1881.28,-85.4863 1930.18,-75.5225"/>
<polygon fill="midnightblue" stroke="midnightblue" points="1750.2,-108.625 1741.1,-114.051 1751.6,-115.484 1750.2,-108.625"/>
</g>
<!-- Node12 -->
<g id="node24" class="node"><title>Node12</title>
<a xlink:href="_s_l_g_l_program_8cpp.html" target="_top" xlink:title="SLGLProgram.cpp">
<polygon fill="white" stroke="black" points="2043.5,-56.5 2043.5,-75.5 2146.5,-75.5 2146.5,-56.5 2043.5,-56.5"/>
<text text-anchor="middle" x="2095" y="-63.5" font-family="Arial.ttf" font-size="10.00">SLGLProgram.cpp</text>
</a>
</g>
<!-- Node6&#45;&gt;Node12 -->
<g id="edge24" class="edge"><title>Node6&#45;&gt;Node12</title>
<path fill="none" stroke="midnightblue" d="M1751.36,-115.035C1814.26,-106.545 1932.97,-90.4046 2034,-76 2037.07,-75.5618 2040.23,-75.1074 2043.42,-74.6461"/>
<polygon fill="midnightblue" stroke="midnightblue" points="1750.83,-111.575 1741.38,-116.38 1751.76,-118.512 1750.83,-111.575"/>
</g>
<!-- Node13 -->
<g id="node26" class="node"><title>Node13</title>
<a xlink:href="_s_l_g_l_texture_8cpp.html" target="_top" xlink:title="SLGLTexture.cpp">
<polygon fill="white" stroke="black" points="2165,-56.5 2165,-75.5 2263,-75.5 2263,-56.5 2165,-56.5"/>
<text text-anchor="middle" x="2214" y="-63.5" font-family="Arial.ttf" font-size="10.00">SLGLTexture.cpp</text>
</a>
</g>
<!-- Node6&#45;&gt;Node13 -->
<g id="edge26" class="edge"><title>Node6&#45;&gt;Node13</title>
<path fill="none" stroke="midnightblue" d="M1751.33,-117.306C1831.86,-110.427 2007.49,-94.6469 2155,-76 2158.19,-75.5972 2161.47,-75.1599 2164.77,-74.7025"/>
<polygon fill="midnightblue" stroke="midnightblue" points="1750.74,-113.844 1741.07,-118.178 1751.33,-120.819 1750.74,-113.844"/>
</g>
<!-- Node14 -->
<g id="node28" class="node"><title>Node14</title>
<a xlink:href="_s_l_g_l_vertex_array_8cpp.html" target="_top" xlink:title="SLGLVertexArray.cpp">
<polygon fill="white" stroke="black" points="2679.5,-56.5 2679.5,-75.5 2798.5,-75.5 2798.5,-56.5 2679.5,-56.5"/>
<text text-anchor="middle" x="2739" y="-63.5" font-family="Arial.ttf" font-size="10.00">SLGLVertexArray.cpp</text>
</a>
</g>
<!-- Node6&#45;&gt;Node14 -->
<g id="edge28" class="edge"><title>Node6&#45;&gt;Node14</title>
<path fill="none" stroke="midnightblue" d="M1751.51,-120.082C1888.17,-117.01 2313.7,-105.573 2665,-76 2669.64,-75.6092 2674.44,-75.1503 2679.26,-74.6502"/>
<polygon fill="midnightblue" stroke="midnightblue" points="1751.35,-116.584 1741.43,-120.305 1751.5,-123.583 1751.35,-116.584"/>
</g>
<!-- Node15 -->
<g id="node30" class="node"><title>Node15</title>
<a xlink:href="_s_l_g_l_vertex_array_ext_8cpp.html" target="_top" xlink:title="SLGLVertexArrayExt.cpp">
<polygon fill="white" stroke="black" points="2817,-56.5 2817,-75.5 2951,-75.5 2951,-56.5 2817,-56.5"/>
<text text-anchor="middle" x="2884" y="-63.5" font-family="Arial.ttf" font-size="10.00">SLGLVertexArrayExt.cpp</text>
</a>
</g>
<!-- Node6&#45;&gt;Node15 -->
<g id="edge30" class="edge"><title>Node6&#45;&gt;Node15</title>
<path fill="none" stroke="midnightblue" d="M1751.41,-120.385C1900.63,-118.064 2397.63,-108.251 2807,-76 2810.22,-75.7463 2813.51,-75.4611 2816.84,-75.1525"/>
<polygon fill="midnightblue" stroke="midnightblue" points="1751.22,-116.888 1741.27,-120.54 1751.32,-123.887 1751.22,-116.888"/>
</g>
<!-- Node16 -->
<g id="node32" class="node"><title>Node16</title>
<a xlink:href="_s_l_g_l_vertex_buffer_8cpp.html" target="_top" xlink:title="SLGLVertexBuffer.cpp">
<polygon fill="white" stroke="black" points="356,-56.5 356,-75.5 478,-75.5 478,-56.5 356,-56.5"/>
<text text-anchor="middle" x="417" y="-63.5" font-family="Arial.ttf" font-size="10.00">SLGLVertexBuffer.cpp</text>
</a>
</g>
<!-- Node6&#45;&gt;Node16 -->
<g id="edge32" class="edge"><title>Node6&#45;&gt;Node16</title>
<path fill="none" stroke="midnightblue" d="M1662.13,-120.786C1502.25,-119.718 945.542,-113.369 488,-76 484.78,-75.737 481.482,-75.4346 478.155,-75.1035"/>
<polygon fill="midnightblue" stroke="midnightblue" points="1662.49,-124.289 1672.51,-120.852 1662.54,-117.289 1662.49,-124.289"/>
</g>
<!-- Node17 -->
<g id="node34" class="node"><title>Node17</title>
<a xlink:href="_s_l_curve_bezier_8cpp.html" target="_top" xlink:title="SLCurveBezier.cpp">
<polygon fill="white" stroke="black" points="496.5,-56.5 496.5,-75.5 603.5,-75.5 603.5,-56.5 496.5,-56.5"/>
<text text-anchor="middle" x="550" y="-63.5" font-family="Arial.ttf" font-size="10.00">SLCurveBezier.cpp</text>
</a>
</g>
<!-- Node6&#45;&gt;Node17 -->
<g id="edge34" class="edge"><title>Node6&#45;&gt;Node17</title>
<path fill="none" stroke="midnightblue" d="M1662.51,-120.601C1514.1,-118.961 1022.56,-111.059 618,-76 613.373,-75.599 608.578,-75.1114 603.773,-74.5727"/>
<polygon fill="midnightblue" stroke="midnightblue" points="1662.56,-124.101 1672.6,-120.708 1662.63,-117.102 1662.56,-124.101"/>
</g>
<!-- Node18 -->
<g id="node36" class="node"><title>Node18</title>
<a xlink:href="_s_l_assimp_importer_8cpp.html" target="_top" xlink:title="SLAssimpImporter.cpp">
<polygon fill="white" stroke="black" points="2702.5,-0.5 2702.5,-19.5 2827.5,-19.5 2827.5,-0.5 2702.5,-0.5"/>
<text text-anchor="middle" x="2765" y="-7.5" font-family="Arial.ttf" font-size="10.00">SLAssimpImporter.cpp</text>
</a>
</g>
<!-- Node6&#45;&gt;Node18 -->
<g id="edge36" class="edge"><title>Node6&#45;&gt;Node18</title>
<path fill="none" stroke="midnightblue" d="M1751.67,-120.913C1910.73,-120.275 2448.9,-115.198 2616,-76 2642.58,-69.7642 2714.11,-35.8191 2747.45,-19.6161"/>
<polygon fill="midnightblue" stroke="midnightblue" points="1751.31,-117.415 1741.32,-120.951 1751.33,-124.414 1751.31,-117.415"/>
</g>
<!-- Node19 -->
<g id="node38" class="node"><title>Node19</title>
<a xlink:href="_s_l_interface_8cpp.html" target="_top" xlink:title="SLProject C&#45;functions interface implementation.">
<polygon fill="white" stroke="black" points="2359.5,-0.5 2359.5,-19.5 2450.5,-19.5 2450.5,-0.5 2359.5,-0.5"/>
<text text-anchor="middle" x="2405" y="-7.5" font-family="Arial.ttf" font-size="10.00">SLInterface.cpp</text>
</a>
</g>
<!-- Node6&#45;&gt;Node19 -->
<g id="edge38" class="edge"><title>Node6&#45;&gt;Node19</title>
<path fill="none" stroke="midnightblue" d="M1751.18,-121.083C1874.07,-120.795 2217.69,-116.303 2322,-76 2354.1,-63.5987 2383.81,-34.3569 2397.34,-19.6972"/>
<polygon fill="midnightblue" stroke="midnightblue" points="1751.01,-117.584 1741.01,-121.099 1751.02,-124.584 1751.01,-117.584"/>
</g>
<!-- Node20 -->
<g id="node40" class="node"><title>Node20</title>
<a xlink:href="_s_l_tex_font_8cpp.html" target="_top" xlink:title="SLTexFont.cpp">
<polygon fill="white" stroke="black" points="660,-56.5 660,-75.5 746,-75.5 746,-56.5 660,-56.5"/>
<text text-anchor="middle" x="703" y="-63.5" font-family="Arial.ttf" font-size="10.00">SLTexFont.cpp</text>
</a>
</g>
<!-- Node6&#45;&gt;Node20 -->
<g id="edge40" class="edge"><title>Node6&#45;&gt;Node20</title>
<path fill="none" stroke="midnightblue" d="M1662.74,-120.805C1526.88,-119.798 1103.94,-113.635 756,-76 752.752,-75.6487 749.402,-75.2253 746.038,-74.7559"/>
<polygon fill="midnightblue" stroke="midnightblue" points="1662.74,-124.305 1672.77,-120.873 1662.79,-117.305 1662.74,-124.305"/>
</g>
<!-- Node21 -->
<g id="node42" class="node"><title>Node21</title>
<a xlink:href="_s_l_a_a_b_box_8cpp.html" target="_top" xlink:title="SLAABBox.cpp">
<polygon fill="white" stroke="black" points="764.5,-56.5 764.5,-75.5 851.5,-75.5 851.5,-56.5 764.5,-56.5"/>
<text text-anchor="middle" x="808" y="-63.5" font-family="Arial.ttf" font-size="10.00">SLAABBox.cpp</text>
</a>
</g>
<!-- Node6&#45;&gt;Node21 -->
<g id="edge42" class="edge"><title>Node6&#45;&gt;Node21</title>
<path fill="none" stroke="midnightblue" d="M1662.6,-120.436C1536.63,-118.45 1166.34,-109.932 861,-76 857.939,-75.6598 854.786,-75.2578 851.617,-74.8155"/>
<polygon fill="midnightblue" stroke="midnightblue" points="1662.58,-123.936 1672.63,-120.589 1662.69,-116.937 1662.58,-123.936"/>
</g>
<!-- Node22 -->
<g id="node44" class="node"><title>Node22</title>
<a xlink:href="_s_l_animation_8cpp.html" target="_top" xlink:title="SLAnimation.cpp">
<polygon fill="white" stroke="black" points="870,-56.5 870,-75.5 968,-75.5 968,-56.5 870,-56.5"/>
<text text-anchor="middle" x="919" y="-63.5" font-family="Arial.ttf" font-size="10.00">SLAnimation.cpp</text>
</a>
</g>
<!-- Node6&#45;&gt;Node22 -->
<g id="edge44" class="edge"><title>Node6&#45;&gt;Node22</title>
<path fill="none" stroke="midnightblue" d="M1662.6,-119.692C1548.52,-116.022 1235.92,-104.008 977,-76 974.062,-75.6822 971.045,-75.3209 968.006,-74.93"/>
<polygon fill="midnightblue" stroke="midnightblue" points="1662.59,-123.193 1672.7,-120.012 1662.81,-116.197 1662.59,-123.193"/>
</g>
<!-- Node23 -->
<g id="node46" class="node"><title>Node23</title>
<a xlink:href="_s_l_anim_manager_8cpp.html" target="_top" xlink:title="SLAnimManager.cpp">
<polygon fill="white" stroke="black" points="986,-56.5 986,-75.5 1102,-75.5 1102,-56.5 986,-56.5"/>
<text text-anchor="middle" x="1044" y="-63.5" font-family="Arial.ttf" font-size="10.00">SLAnimManager.cpp</text>
</a>
</g>
<!-- Node6&#45;&gt;Node23 -->
<g id="edge46" class="edge"><title>Node6&#45;&gt;Node23</title>
<path fill="none" stroke="midnightblue" d="M1662.42,-118.523C1563.19,-112.815 1316.62,-97.5542 1111,-76 1108.08,-75.6941 1105.09,-75.3621 1102.08,-75.0121"/>
<polygon fill="midnightblue" stroke="midnightblue" points="1662.49,-122.033 1672.67,-119.109 1662.89,-115.044 1662.49,-122.033"/>
</g>
<!-- Node24 -->
<g id="node48" class="node"><title>Node24</title>
<a xlink:href="_s_l_background_8cpp.html" target="_top" xlink:title="SLBackground.cpp">
<polygon fill="white" stroke="black" points="1120,-56.5 1120,-75.5 1226,-75.5 1226,-56.5 1120,-56.5"/>
<text text-anchor="middle" x="1173" y="-63.5" font-family="Arial.ttf" font-size="10.00">SLBackground.cpp</text>
</a>
</g>
<!-- Node6&#45;&gt;Node24 -->
<g id="edge48" class="edge"><title>Node6&#45;&gt;Node24</title>
<path fill="none" stroke="midnightblue" d="M1662.9,-117.305C1579.98,-110.235 1395.19,-93.8943 1240,-76 1235.45,-75.4757 1230.74,-74.9023 1226.01,-74.3069"/>
<polygon fill="midnightblue" stroke="midnightblue" points="1662.71,-120.801 1672.97,-118.161 1663.3,-113.827 1662.71,-120.801"/>
</g>
<!-- Node25 -->
<g id="node51" class="node"><title>Node25</title>
<a xlink:href="_s_l_input_manager_8cpp.html" target="_top" xlink:title="SLInputManager.cpp">
<polygon fill="white" stroke="black" points="1996.5,-0.5 1996.5,-19.5 2111.5,-19.5 2111.5,-0.5 1996.5,-0.5"/>
<text text-anchor="middle" x="2054" y="-7.5" font-family="Arial.ttf" font-size="10.00">SLInputManager.cpp</text>
</a>
</g>
<!-- Node6&#45;&gt;Node25 -->
<g id="edge52" class="edge"><title>Node6&#45;&gt;Node25</title>
<path fill="none" stroke="midnightblue" d="M1751.17,-120.844C1878.06,-119.939 2236.89,-114.013 2272,-76 2278.03,-69.4699 2277.61,-62.8915 2272,-56 2261.84,-43.5286 2172.68,-28.2444 2111.58,-19.0817"/>
<polygon fill="midnightblue" stroke="midnightblue" points="1751,-117.345 1741.03,-120.909 1751.05,-124.345 1751,-117.345"/>
</g>
<!-- Node26 -->
<g id="node53" class="node"><title>Node26</title>
<a xlink:href="_s_l_light_direct_8cpp.html" target="_top" xlink:title="SLLightDirect.cpp">
<polygon fill="white" stroke="black" points="2129.5,-0.5 2129.5,-19.5 2230.5,-19.5 2230.5,-0.5 2129.5,-0.5"/>
<text text-anchor="middle" x="2180" y="-7.5" font-family="Arial.ttf" font-size="10.00">SLLightDirect.cpp</text>
</a>
</g>
<!-- Node6&#45;&gt;Node26 -->
<g id="edge54" class="edge"><title>Node6&#45;&gt;Node26</title>
<path fill="none" stroke="midnightblue" d="M1751.51,-120.947C1881.18,-120.331 2251.78,-115.133 2288,-76 2312.68,-49.3393 2259.94,-29.9236 2219.81,-19.567"/>
<polygon fill="midnightblue" stroke="midnightblue" points="1751.14,-117.448 1741.16,-120.988 1751.17,-124.448 1751.14,-117.448"/>
</g>
<!-- Node27 -->
<g id="node55" class="node"><title>Node27</title>
<a xlink:href="_s_l_light_rect_8cpp.html" target="_top" xlink:title="SLLightRect.cpp">
<polygon fill="white" stroke="black" points="2248.5,-0.5 2248.5,-19.5 2341.5,-19.5 2341.5,-0.5 2248.5,-0.5"/>
<text text-anchor="middle" x="2295" y="-7.5" font-family="Arial.ttf" font-size="10.00">SLLightRect.cpp</text>
</a>
</g>
<!-- Node6&#45;&gt;Node27 -->
<g id="edge56" class="edge"><title>Node6&#45;&gt;Node27</title>
<path fill="none" stroke="midnightblue" d="M1751.49,-121.052C1883.74,-120.748 2267.56,-116.364 2305,-76 2319.29,-60.5977 2307.87,-33.7571 2300.32,-19.8776"/>
<polygon fill="midnightblue" stroke="midnightblue" points="1751.31,-117.552 1741.31,-121.069 1751.32,-124.552 1751.31,-117.552"/>
</g>
<!-- Node28 -->
<g id="node57" class="node"><title>Node28</title>
<a xlink:href="_s_l_light_spot_8cpp.html" target="_top" xlink:title="SLLightSpot.cpp">
<polygon fill="white" stroke="black" points="363.5,-0.5 363.5,-19.5 458.5,-19.5 458.5,-0.5 363.5,-0.5"/>
<text text-anchor="middle" x="411" y="-7.5" font-family="Arial.ttf" font-size="10.00">SLLightSpot.cpp</text>
</a>
</g>
<!-- Node6&#45;&gt;Node28 -->
<g id="edge58" class="edge"><title>Node6&#45;&gt;Node28</title>
<path fill="none" stroke="midnightblue" d="M1662.85,-118.94C1566.55,-114.05 1340.45,-100.292 1268,-76 1251.74,-70.5481 1251.4,-61.0007 1235,-56 1071.78,-6.24634 637.75,-37.3322 468,-20 464.91,-19.6845 461.733,-19.3135 458.535,-18.905"/>
<polygon fill="midnightblue" stroke="midnightblue" points="1662.68,-122.436 1672.85,-119.44 1663.03,-115.445 1662.68,-122.436"/>
</g>
<!-- Node29 -->
<g id="node59" class="node"><title>Node29</title>
<a xlink:href="_s_l_scene_8cpp.html" target="_top" xlink:title="SLScene.cpp">
<polygon fill="white" stroke="black" points="2468.5,-0.5 2468.5,-19.5 2547.5,-19.5 2547.5,-0.5 2468.5,-0.5"/>
<text text-anchor="middle" x="2508" y="-7.5" font-family="Arial.ttf" font-size="10.00">SLScene.cpp</text>
</a>
</g>
<!-- Node6&#45;&gt;Node29 -->
<g id="edge60" class="edge"><title>Node6&#45;&gt;Node29</title>
<path fill="none" stroke="midnightblue" d="M1751.22,-119.799C1877.54,-116.071 2238.23,-103.273 2353,-76 2406.37,-63.3166 2464.95,-34.207 2492.3,-19.6374"/>
<polygon fill="midnightblue" stroke="midnightblue" points="1751.03,-116.303 1741.14,-120.092 1751.23,-123.3 1751.03,-116.303"/>
</g>
<!-- Node30 -->
<g id="node61" class="node"><title>Node30</title>
<a xlink:href="_s_l_scene__on_load_8cpp.html" target="_top" xlink:title="SLScene_onLoad.cpp">
<polygon fill="white" stroke="black" points="2565.5,-0.5 2565.5,-19.5 2684.5,-19.5 2684.5,-0.5 2565.5,-0.5"/>
<text text-anchor="middle" x="2625" y="-7.5" font-family="Arial.ttf" font-size="10.00">SLScene_onLoad.cpp</text>
</a>
</g>
<!-- Node6&#45;&gt;Node30 -->
<g id="edge62" class="edge"><title>Node6&#45;&gt;Node30</title>
<path fill="none" stroke="midnightblue" d="M1751.31,-121.378C1921,-122.47 2523.56,-122.983 2594,-76 2613.55,-62.9575 2621.11,-34.0162 2623.74,-19.5614"/>
<polygon fill="midnightblue" stroke="midnightblue" points="1751.25,-117.877 1741.23,-121.309 1751.2,-124.877 1751.25,-117.877"/>
</g>
<!-- Node31 -->
<g id="node63" class="node"><title>Node31</title>
<a xlink:href="_s_l_skeleton_8cpp.html" target="_top" xlink:title="SLSkeleton.cpp">
<polygon fill="white" stroke="black" points="2933.5,-0.5 2933.5,-19.5 3024.5,-19.5 3024.5,-0.5 2933.5,-0.5"/>
<text text-anchor="middle" x="2979" y="-7.5" font-family="Arial.ttf" font-size="10.00">SLSkeleton.cpp</text>
</a>
</g>
<!-- Node6&#45;&gt;Node31 -->
<g id="edge64" class="edge"><title>Node6&#45;&gt;Node31</title>
<path fill="none" stroke="midnightblue" d="M1751.38,-120.852C1968.62,-119.943 2911.37,-113.828 2960,-76 2977.26,-62.5725 2979.47,-34.3438 2979.39,-19.9101"/>
<polygon fill="midnightblue" stroke="midnightblue" points="1751.29,-117.352 1741.3,-120.892 1751.31,-124.352 1751.29,-117.352"/>
</g>
<!-- Node32 -->
<g id="node65" class="node"><title>Node32</title>
<a xlink:href="_s_l_text_8cpp.html" target="_top" xlink:title="SLText.cpp">
<polygon fill="white" stroke="black" points="1427.5,-56.5 1427.5,-75.5 1496.5,-75.5 1496.5,-56.5 1427.5,-56.5"/>
<text text-anchor="middle" x="1462" y="-63.5" font-family="Arial.ttf" font-size="10.00">SLText.cpp</text>
</a>
</g>
<!-- Node6&#45;&gt;Node32 -->
<g id="edge66" class="edge"><title>Node6&#45;&gt;Node32</title>
<path fill="none" stroke="midnightblue" d="M1662.9,-111.28C1615.21,-100.768 1540.17,-84.2297 1496.57,-74.6188"/>
<polygon fill="midnightblue" stroke="midnightblue" points="1662.41,-114.757 1672.93,-113.492 1663.92,-107.921 1662.41,-114.757"/>
</g>
<!-- Node33 -->
<g id="node67" class="node"><title>Node33</title>
<a xlink:href="_s_l_transfer_function_8cpp.html" target="_top" xlink:title="SLTransferFunction.cpp">
<polygon fill="white" stroke="black" points="1515,-56.5 1515,-75.5 1643,-75.5 1643,-56.5 1515,-56.5"/>
<text text-anchor="middle" x="1579" y="-63.5" font-family="Arial.ttf" font-size="10.00">SLTransferFunction.cpp</text>
</a>
</g>
<!-- Node6&#45;&gt;Node33 -->
<g id="edge68" class="edge"><title>Node6&#45;&gt;Node33</title>
<path fill="none" stroke="midnightblue" d="M1677.38,-108.503C1653.38,-98.3795 1620.22,-84.388 1599.19,-75.5164"/>
<polygon fill="midnightblue" stroke="midnightblue" points="1676.14,-111.781 1686.72,-112.444 1678.86,-105.332 1676.14,-111.781"/>
</g>
<!-- Node34 -->
<g id="node69" class="node"><title>Node34</title>
<a xlink:href="_s_l_scene_view_8h.html" target="_top" xlink:title="SLSceneView.h">
<polygon fill="white" stroke="red" points="1320.5,-56.5 1320.5,-75.5 1409.5,-75.5 1409.5,-56.5 1320.5,-56.5"/>
<text text-anchor="middle" x="1365" y="-63.5" font-family="Arial.ttf" font-size="10.00">SLSceneView.h</text>
</a>
</g>
<!-- Node6&#45;&gt;Node34 -->
<g id="edge70" class="edge"><title>Node6&#45;&gt;Node34</title>
<path fill="none" stroke="midnightblue" d="M1662.82,-114.239C1606.27,-105.554 1505.3,-89.9342 1419,-76 1416,-75.5152 1412.9,-75.011 1409.78,-74.4998"/>
<polygon fill="midnightblue" stroke="midnightblue" points="1662.43,-117.72 1672.85,-115.778 1663.49,-110.801 1662.43,-117.72"/>
</g>
<!-- Node34&#45;&gt;Node3 -->
<g id="edge88" class="edge"><title>Node34&#45;&gt;Node3</title>
<path fill="none" stroke="midnightblue" d="M1310.47,-60.8804C1287.22,-59.2134 1259.79,-57.3645 1235,-56 843.71,-34.4651 743.921,-59.1603 354,-20 351.061,-19.7048 348.041,-19.3552 345.001,-18.968"/>
<polygon fill="midnightblue" stroke="midnightblue" points="1310.27,-64.3748 1320.5,-61.6064 1310.77,-57.3931 1310.27,-64.3748"/>
</g>
<!-- Node34&#45;&gt;Node5 -->
<g id="edge112" class="edge"><title>Node34&#45;&gt;Node5</title>
<path fill="none" stroke="midnightblue" d="M1310.47,-60.8246C1287.23,-59.1482 1259.8,-57.3075 1235,-56 793.989,-32.7464 681.733,-60.82 242,-20 238.958,-19.7177 235.836,-19.3838 232.69,-19.0137"/>
<polygon fill="midnightblue" stroke="midnightblue" points="1310.27,-64.3189 1320.5,-61.5557 1310.78,-57.3374 1310.27,-64.3189"/>
</g>
<!-- Node34&#45;&gt;Node7 -->
<g id="edge72" class="edge"><title>Node34&#45;&gt;Node7</title>
<path fill="none" stroke="midnightblue" d="M1309.96,-56.4212C1308.62,-56.2726 1307.3,-56.1318 1306,-56 987.665,-23.8344 905.375,-51.77 587,-20 583.96,-19.6967 580.84,-19.3466 577.695,-18.9642"/>
<polygon fill="midnightblue" stroke="midnightblue" points="1309.93,-59.9444 1320.28,-57.6918 1310.78,-52.9968 1309.93,-59.9444"/>
</g>
<!-- Node34&#45;&gt;Node8 -->
<g id="edge74" class="edge"><title>Node34&#45;&gt;Node8</title>
<path fill="none" stroke="midnightblue" d="M1419.92,-55.9802C1601.74,-33.1639 1649.71,-37.8727 1828,-20 1831.06,-19.6933 1834.18,-19.3728 1837.34,-19.0433"/>
<polygon fill="midnightblue" stroke="midnightblue" points="1419.23,-52.5398 1409.75,-57.2679 1420.11,-59.4844 1419.23,-52.5398"/>
</g>
<!-- Node34&#45;&gt;Node19 -->
<g id="edge82" class="edge"><title>Node34&#45;&gt;Node19</title>
<path fill="none" stroke="midnightblue" d="M1419.85,-56.0703C1832.68,-14.6398 1941.32,-61.1799 2350,-20 2353.08,-19.6896 2356.25,-19.3162 2359.44,-18.9003"/>
<polygon fill="midnightblue" stroke="midnightblue" points="1419.33,-52.6054 1409.73,-57.0973 1420.03,-59.5697 1419.33,-52.6054"/>
</g>
<!-- Node34&#45;&gt;Node25 -->
<g id="edge90" class="edge"><title>Node34&#45;&gt;Node25</title>
<path fill="none" stroke="midnightblue" d="M1419.94,-56.0205C1672.05,-27.629 1738.59,-44.5257 1987,-20 1990.04,-19.7002 1993.15,-19.3684 1996.29,-19.0143"/>
<polygon fill="midnightblue" stroke="midnightblue" points="1419.28,-52.5735 1409.74,-57.1829 1420.07,-59.5286 1419.28,-52.5735"/>
</g>
<!-- Node34&#45;&gt;Node26 -->
<g id="edge92" class="edge"><title>Node34&#45;&gt;Node26</title>
<path fill="none" stroke="midnightblue" d="M1419.95,-56.0404C1730.9,-22.9154 1812.93,-50.8408 2120,-20 2123.04,-19.6947 2126.16,-19.3432 2129.3,-18.9596"/>
<polygon fill="midnightblue" stroke="midnightblue" points="1419.3,-52.5895 1409.73,-57.1413 1420.05,-59.5492 1419.3,-52.5895"/>
</g>
<!-- Node34&#45;&gt;Node27 -->
<g id="edge94" class="edge"><title>Node34&#45;&gt;Node27</title>
<path fill="none" stroke="midnightblue" d="M1419.75,-56.073C1783.53,-18.6435 1879.36,-56.6699 2239,-20 2242.04,-19.6904 2245.16,-19.3237 2248.3,-18.9185"/>
<polygon fill="midnightblue" stroke="midnightblue" points="1419.32,-52.5989 1409.73,-57.1155 1420.04,-59.5613 1419.32,-52.5989"/>
</g>
<!-- Node34&#45;&gt;Node28 -->
<g id="edge96" class="edge"><title>Node34&#45;&gt;Node28</title>
<path fill="none" stroke="midnightblue" d="M1309.88,-59.4279C1296.21,-58.1717 1281.58,-56.935 1268,-56 912.925,-31.5522 822.109,-55.8105 468,-20 464.91,-19.6875 461.733,-19.3187 458.534,-18.9119"/>
<polygon fill="midnightblue" stroke="midnightblue" points="1309.84,-62.9391 1320.12,-60.3877 1310.49,-55.9696 1309.84,-62.9391"/>
</g>
<!-- Node34&#45;&gt;Node29 -->
<g id="edge108" class="edge"><title>Node34&#45;&gt;Node29</title>
<path fill="none" stroke="midnightblue" d="M1419.99,-56.0633C1880.97,-10.758 2002.57,-69.5449 2459,-20 2462.1,-19.664 2465.29,-19.2445 2468.49,-18.7716"/>
<polygon fill="midnightblue" stroke="midnightblue" points="1419.33,-52.6111 1409.73,-57.0833 1420.03,-59.5768 1419.33,-52.6111"/>
</g>
<!-- Node34&#45;&gt;Node30 -->
<g id="edge110" class="edge"><title>Node34&#45;&gt;Node30</title>
<path fill="none" stroke="midnightblue" d="M1419.81,-56.0832C1923.87,-7.04368 2055.38,-60.4764 2556,-20 2559.01,-19.7566 2562.09,-19.4749 2565.2,-19.1647"/>
<polygon fill="midnightblue" stroke="midnightblue" points="1419.34,-52.6127 1409.73,-57.073 1420.02,-59.5793 1419.34,-52.6127"/>
</g>
<!-- Node34&#45;&gt;Node31 -->
<g id="edge114" class="edge"><title>Node34&#45;&gt;Node31</title>
<path fill="none" stroke="midnightblue" d="M1419.94,-56.0784C2047.86,3.37706 2210.01,-47.641 2836,-20 2868.56,-18.5625 2905.24,-16.2395 2933.3,-14.3136"/>
<polygon fill="midnightblue" stroke="midnightblue" points="1419.35,-52.6187 1409.73,-57.0513 1420.01,-59.5871 1419.35,-52.6187"/>
</g>
<!-- Node35 -->
<g id="node73" class="node"><title>Node35</title>
<a xlink:href="_s_l_c_v_tracked_aruco_8cpp.html" target="_top" xlink:title="SLCVTrackedAruco.cpp">
<polygon fill="white" stroke="black" points="1691,-0.5 1691,-19.5 1819,-19.5 1819,-0.5 1691,-0.5"/>
<text text-anchor="middle" x="1755" y="-7.5" font-family="Arial.ttf" font-size="10.00">SLCVTrackedAruco.cpp</text>
</a>
</g>
<!-- Node34&#45;&gt;Node35 -->
<g id="edge76" class="edge"><title>Node34&#45;&gt;Node35</title>
<path fill="none" stroke="midnightblue" d="M1419.81,-55.9195C1520.46,-40.8966 1625.31,-27.256 1690.81,-18.9761"/>
<polygon fill="midnightblue" stroke="midnightblue" points="1419.14,-52.4805 1409.77,-57.4247 1420.18,-59.4031 1419.14,-52.4805"/>
</g>
<!-- Node36 -->
<g id="node75" class="node"><title>Node36</title>
<a xlink:href="_s_l_c_v_tracked_features_8cpp.html" target="_top" xlink:title="SLCVTrackedFeatures.cpp">
<polygon fill="white" stroke="black" points="596,-0.5 596,-19.5 738,-19.5 738,-0.5 596,-0.5"/>
<text text-anchor="middle" x="667" y="-7.5" font-family="Arial.ttf" font-size="10.00">SLCVTrackedFeatures.cpp</text>
</a>
</g>
<!-- Node34&#45;&gt;Node36 -->
<g id="edge78" class="edge"><title>Node34&#45;&gt;Node36</title>
<path fill="none" stroke="midnightblue" d="M1309.95,-56.4466C1308.62,-56.2905 1307.3,-56.1412 1306,-56 1058.93,-29.2369 995.564,-41.7278 748,-20 744.758,-19.7155 741.445,-19.4094 738.1,-19.088"/>
<polygon fill="midnightblue" stroke="midnightblue" points="1309.91,-59.9698 1320.28,-57.7599 1310.8,-53.0258 1309.91,-59.9698"/>
</g>
<!-- Node37 -->
<g id="node77" class="node"><title>Node37</title>
<a xlink:href="_s_l_8cpp.html" target="_top" xlink:title="SL.cpp">
<polygon fill="white" stroke="black" points="756.5,-0.5 756.5,-19.5 805.5,-19.5 805.5,-0.5 756.5,-0.5"/>
<text text-anchor="middle" x="781" y="-7.5" font-family="Arial.ttf" font-size="10.00">SL.cpp</text>
</a>
</g>
<!-- Node34&#45;&gt;Node37 -->
<g id="edge80" class="edge"><title>Node34&#45;&gt;Node37</title>
<path fill="none" stroke="midnightblue" d="M1309.95,-56.4621C1308.62,-56.3013 1307.3,-56.1469 1306,-56 1088.57,-31.4834 1030.8,-56.1512 815,-20 811.989,-19.4956 808.857,-18.8449 805.766,-18.1243"/>
<polygon fill="midnightblue" stroke="midnightblue" points="1309.9,-59.9853 1320.27,-57.8012 1310.8,-53.0435 1309.9,-59.9853"/>
</g>
<!-- Node38 -->
<g id="node80" class="node"><title>Node38</title>
<a xlink:href="_s_l_anim_track_8cpp.html" target="_top" xlink:title="SLAnimTrack.cpp">
<polygon fill="white" stroke="black" points="823.5,-0.5 823.5,-19.5 922.5,-19.5 922.5,-0.5 823.5,-0.5"/>
<text text-anchor="middle" x="873" y="-7.5" font-family="Arial.ttf" font-size="10.00">SLAnimTrack.cpp</text>
</a>
</g>
<!-- Node34&#45;&gt;Node38 -->
<g id="edge84" class="edge"><title>Node34&#45;&gt;Node38</title>
<path fill="none" stroke="midnightblue" d="M1309.95,-56.5023C1308.62,-56.3295 1307.3,-56.1618 1306,-56 1140.28,-35.4012 1097.72,-40.5988 932,-20 928.915,-19.6166 925.743,-19.1994 922.547,-18.7617"/>
<polygon fill="midnightblue" stroke="midnightblue" points="1309.88,-60.0252 1320.26,-57.9087 1310.82,-53.0894 1309.88,-60.0252"/>
</g>
<!-- Node39 -->
<g id="node82" class="node"><title>Node39</title>
<a xlink:href="_s_l_camera_8cpp.html" target="_top" xlink:title="SLCamera.cpp">
<polygon fill="white" stroke="black" points="940.5,-0.5 940.5,-19.5 1027.5,-19.5 1027.5,-0.5 940.5,-0.5"/>
<text text-anchor="middle" x="984" y="-7.5" font-family="Arial.ttf" font-size="10.00">SLCamera.cpp</text>
</a>
</g>
<!-- Node34&#45;&gt;Node39 -->
<g id="edge86" class="edge"><title>Node34&#45;&gt;Node39</title>
<path fill="none" stroke="midnightblue" d="M1309.94,-56.5676C1308.61,-56.3753 1307.3,-56.1859 1306,-56 1186.6,-38.9045 1156.26,-38.0997 1037,-20 1033.95,-19.5378 1030.81,-19.0453 1027.65,-18.5378"/>
<polygon fill="midnightblue" stroke="midnightblue" points="1309.83,-60.0897 1320.23,-58.0833 1310.85,-53.1644 1309.83,-60.0897"/>
</g>
<!-- Node40 -->
<g id="node89" class="node"><title>Node40</title>
<a xlink:href="_s_l_material_8cpp.html" target="_top" xlink:title="SLMaterial.cpp">
<polygon fill="white" stroke="black" points="1045.5,-0.5 1045.5,-19.5 1132.5,-19.5 1132.5,-0.5 1045.5,-0.5"/>
<text text-anchor="middle" x="1089" y="-7.5" font-family="Arial.ttf" font-size="10.00">SLMaterial.cpp</text>
</a>
</g>
<!-- Node34&#45;&gt;Node40 -->
<g id="edge98" class="edge"><title>Node34&#45;&gt;Node40</title>
<path fill="none" stroke="midnightblue" d="M1311.2,-54.4734C1259.04,-44.2678 1180.89,-28.9794 1132.53,-19.5164"/>
<polygon fill="midnightblue" stroke="midnightblue" points="1310.78,-57.9582 1321.27,-56.4435 1312.13,-51.0885 1310.78,-57.9582"/>
</g>
<!-- Node41 -->
<g id="node91" class="node"><title>Node41</title>
<a xlink:href="_s_l_mesh_8cpp.html" target="_top" xlink:title="SLMesh.cpp">
<polygon fill="white" stroke="black" points="1151,-0.5 1151,-19.5 1225,-19.5 1225,-0.5 1151,-0.5"/>
<text text-anchor="middle" x="1188" y="-7.5" font-family="Arial.ttf" font-size="10.00">SLMesh.cpp</text>
</a>
</g>
<!-- Node34&#45;&gt;Node41 -->
<g id="edge100" class="edge"><title>Node34&#45;&gt;Node41</title>
<path fill="none" stroke="midnightblue" d="M1327.1,-53.4363C1293.72,-43.2551 1245.9,-28.664 1215.91,-19.5164"/>
<polygon fill="midnightblue" stroke="midnightblue" points="1326.37,-56.8731 1336.95,-56.4435 1328.41,-50.1777 1326.37,-56.8731"/>
</g>
<!-- Node42 -->
<g id="node93" class="node"><title>Node42</title>
<a xlink:href="_s_l_node_8cpp.html" target="_top" xlink:title="SLNode.cpp">
<polygon fill="white" stroke="black" points="1243,-0.5 1243,-19.5 1317,-19.5 1317,-0.5 1243,-0.5"/>
<text text-anchor="middle" x="1280" y="-7.5" font-family="Arial.ttf" font-size="10.00">SLNode.cpp</text>
</a>
</g>
<!-- Node34&#45;&gt;Node42 -->
<g id="edge102" class="edge"><title>Node34&#45;&gt;Node42</title>
<path fill="none" stroke="midnightblue" d="M1342.81,-50.9005C1327.22,-40.9986 1306.87,-28.0705 1293.62,-19.6545"/>
<polygon fill="midnightblue" stroke="midnightblue" points="1341.03,-53.9158 1351.34,-56.324 1344.78,-48.0073 1341.03,-53.9158"/>
</g>
<!-- Node43 -->
<g id="node95" class="node"><title>Node43</title>
<a xlink:href="_s_l_pathtracer_8cpp.html" target="_top" xlink:title="SLPathtracer.cpp">
<polygon fill="white" stroke="black" points="1335.5,-0.5 1335.5,-19.5 1434.5,-19.5 1434.5,-0.5 1335.5,-0.5"/>
<text text-anchor="middle" x="1385" y="-7.5" font-family="Arial.ttf" font-size="10.00">SLPathtracer.cpp</text>
</a>
</g>
<!-- Node34&#45;&gt;Node43 -->
<g id="edge104" class="edge"><title>Node34&#45;&gt;Node43</title>
<path fill="none" stroke="midnightblue" d="M1371.78,-46.6897C1375.15,-37.589 1379.07,-27.0141 1381.76,-19.7511"/>
<polygon fill="midnightblue" stroke="midnightblue" points="1368.49,-45.4899 1368.3,-56.083 1375.06,-47.9211 1368.49,-45.4899"/>
</g>
<!-- Node44 -->
<g id="node97" class="node"><title>Node44</title>
<a xlink:href="_s_l_raytracer_8cpp.html" target="_top" xlink:title="SLRaytracer.cpp">
<polygon fill="white" stroke="black" points="1452.5,-0.5 1452.5,-19.5 1547.5,-19.5 1547.5,-0.5 1452.5,-0.5"/>
<text text-anchor="middle" x="1500" y="-7.5" font-family="Arial.ttf" font-size="10.00">SLRaytracer.cpp</text>
</a>
</g>
<!-- Node34&#45;&gt;Node44 -->
<g id="edge106" class="edge"><title>Node34&#45;&gt;Node44</title>
<path fill="none" stroke="midnightblue" d="M1395.91,-52.6377C1421.24,-42.504 1456.43,-28.4274 1478.71,-19.5164"/>
<polygon fill="midnightblue" stroke="midnightblue" points="1394.38,-49.4799 1386.39,-56.4435 1396.98,-55.9792 1394.38,-49.4799"/>
</g>
<!-- Node45 -->
<g id="node103" class="node"><title>Node45</title>
<a xlink:href="_s_l_uniform_grid_8cpp.html" target="_top" xlink:title="SLUniformGrid.cpp">
<polygon fill="white" stroke="black" points="1565.5,-0.5 1565.5,-19.5 1672.5,-19.5 1672.5,-0.5 1565.5,-0.5"/>
<text text-anchor="middle" x="1619" y="-7.5" font-family="Arial.ttf" font-size="10.00">SLUniformGrid.cpp</text>
</a>
</g>
<!-- Node34&#45;&gt;Node45 -->
<g id="edge116" class="edge"><title>Node34&#45;&gt;Node45</title>
<path fill="none" stroke="midnightblue" d="M1415.12,-54.3456C1463.12,-44.1405 1534.62,-28.94 1578.94,-19.5164"/>
<polygon fill="midnightblue" stroke="midnightblue" points="1414.3,-50.9405 1405.25,-56.4435 1415.76,-57.7874 1414.3,-50.9405"/>
</g>
<!-- Node46&#45;&gt;Node4 -->
<g id="edge126" class="edge"><title>Node46&#45;&gt;Node4</title>
<path fill="none" stroke="midnightblue" d="M1625.69,-229.699C1479.24,-220.09 1054.12,-192.196 905.243,-182.428"/>
<polygon fill="midnightblue" stroke="midnightblue" points="1625.54,-233.197 1635.75,-230.359 1626,-226.212 1625.54,-233.197"/>
</g>
<!-- Node46&#45;&gt;Node6 -->
<g id="edge148" class="edge"><title>Node46&#45;&gt;Node6</title>
<path fill="none" stroke="midnightblue" d="M1681.16,-214.674C1687.94,-190.625 1699.56,-149.388 1704.58,-131.591"/>
<polygon fill="midnightblue" stroke="midnightblue" points="1677.78,-213.794 1678.43,-224.368 1684.51,-215.693 1677.78,-213.794"/>
</g>
<!-- Node46&#45;&gt;Node18 -->
<g id="edge120" class="edge"><title>Node46&#45;&gt;Node18</title>
<path fill="none" stroke="midnightblue" d="M1726.3,-230.714C1953.51,-219.885 2876.53,-170.302 2960,-76 3000.62,-30.1069 2898.97,-16.5362 2827.66,-12.5745"/>
<polygon fill="midnightblue" stroke="midnightblue" points="1725.84,-227.232 1716.02,-231.2 1726.17,-234.224 1725.84,-227.232"/>
</g>
<!-- Node46&#45;&gt;Node31 -->
<g id="edge124" class="edge"><title>Node46&#45;&gt;Node31</title>
<path fill="none" stroke="midnightblue" d="M1726.08,-231.385C1922.33,-224.647 2638.9,-196.081 2856,-132 2913.22,-115.11 2945.41,-125.972 2978,-76 2989.22,-58.7952 2984.99,-33.2004 2981.61,-19.841"/>
<polygon fill="midnightblue" stroke="midnightblue" points="1725.92,-227.888 1716.05,-231.726 1726.16,-234.884 1725.92,-227.888"/>
</g>
<!-- Node47 -->
<g id="node108" class="node"><title>Node47</title>
<a xlink:href="_s_l_joint_8cpp.html" target="_top" xlink:title="SLJoint.cpp">
<polygon fill="white" stroke="black" points="1609.5,-168.5 1609.5,-187.5 1678.5,-187.5 1678.5,-168.5 1609.5,-168.5"/>
<text text-anchor="middle" x="1644" y="-175.5" font-family="Arial.ttf" font-size="10.00">SLJoint.cpp</text>
</a>
</g>
<!-- Node46&#45;&gt;Node47 -->
<g id="edge122" class="edge"><title>Node46&#45;&gt;Node47</title>
<path fill="none" stroke="midnightblue" d="M1665.5,-215.275C1660.03,-206.045 1653.58,-195.17 1649.19,-187.751"/>
<polygon fill="midnightblue" stroke="midnightblue" points="1662.61,-217.264 1670.72,-224.083 1668.63,-213.696 1662.61,-217.264"/>
</g>
<!-- Node48 -->
<g id="node112" class="node"><title>Node48</title>
<a xlink:href="_s_l_assimp_importer_8h.html" target="_top" xlink:title="SLAssimpImporter.h">
<polygon fill="white" stroke="black" points="2471,-56.5 2471,-75.5 2585,-75.5 2585,-56.5 2471,-56.5"/>
<text text-anchor="middle" x="2528" y="-63.5" font-family="Arial.ttf" font-size="10.00">SLAssimpImporter.h</text>
</a>
</g>
<!-- Node46&#45;&gt;Node48 -->
<g id="edge128" class="edge"><title>Node46&#45;&gt;Node48</title>
<path fill="none" stroke="midnightblue" d="M1726.32,-223.197C1879.71,-193.31 2339.77,-103.674 2484.15,-75.5432"/>
<polygon fill="midnightblue" stroke="midnightblue" points="1725.38,-219.813 1716.24,-225.161 1726.72,-226.684 1725.38,-219.813"/>
</g>
<!-- Node49 -->
<g id="node118" class="node"><title>Node49</title>
<a xlink:href="_s_l_importer_8h.html" target="_top" xlink:title="SLImporter.h">
<polygon fill="white" stroke="black" points="253.5,-112.5 253.5,-131.5 332.5,-131.5 332.5,-112.5 253.5,-112.5"/>
<text text-anchor="middle" x="293" y="-119.5" font-family="Arial.ttf" font-size="10.00">SLImporter.h</text>
</a>
</g>
<!-- Node46&#45;&gt;Node49 -->
<g id="edge138" class="edge"><title>Node46&#45;&gt;Node49</title>
<path fill="none" stroke="midnightblue" d="M1625.7,-228.311C1505.72,-217.191 1193.24,-188.609 932,-168 705.275,-150.114 433.016,-132.088 332.65,-125.559"/>
<polygon fill="midnightblue" stroke="midnightblue" points="1625.42,-231.8 1635.7,-229.238 1626.06,-224.83 1625.42,-231.8"/>
</g>
<!-- Node48&#45;&gt;Node18 -->
<g id="edge130" class="edge"><title>Node48&#45;&gt;Node18</title>
<path fill="none" stroke="midnightblue" d="M2575.32,-54.2172C2620.11,-44.0134 2686.44,-28.9006 2727.62,-19.5164"/>
<polygon fill="midnightblue" stroke="midnightblue" points="2574.53,-50.8094 2565.55,-56.4435 2576.08,-57.6345 2574.53,-50.8094"/>
</g>
<!-- Node48&#45;&gt;Node19 -->
<g id="edge132" class="edge"><title>Node48&#45;&gt;Node19</title>
<path fill="none" stroke="midnightblue" d="M2499.23,-52.3678C2476.19,-42.2553 2444.52,-28.3486 2424.4,-19.5164"/>
<polygon fill="midnightblue" stroke="midnightblue" points="2497.95,-55.6283 2508.51,-56.4435 2500.76,-49.2188 2497.95,-55.6283"/>
</g>
<!-- Node48&#45;&gt;Node29 -->
<g id="edge134" class="edge"><title>Node48&#45;&gt;Node29</title>
<path fill="none" stroke="midnightblue" d="M2521.22,-46.6897C2517.85,-37.589 2513.93,-27.0141 2511.24,-19.7511"/>
<polygon fill="midnightblue" stroke="midnightblue" points="2517.94,-47.9211 2524.7,-56.083 2524.51,-45.4899 2517.94,-47.9211"/>
</g>
<!-- Node48&#45;&gt;Node30 -->
<g id="edge136" class="edge"><title>Node48&#45;&gt;Node30</title>
<path fill="none" stroke="midnightblue" d="M2552.34,-51.4526C2570.24,-41.4835 2594.05,-28.2279 2609.45,-19.6545"/>
<polygon fill="midnightblue" stroke="midnightblue" points="2550.62,-48.4018 2543.58,-56.324 2554.02,-54.5179 2550.62,-48.4018"/>
</g>
<!-- Node49&#45;&gt;Node3 -->
<g id="edge142" class="edge"><title>Node49&#45;&gt;Node3</title>
<path fill="none" stroke="midnightblue" d="M267.949,-106.992C249.512,-94.7021 229.224,-75.7505 239,-56 247.286,-39.259 265.114,-27.0457 279.016,-19.6018"/>
<polygon fill="midnightblue" stroke="midnightblue" points="266.109,-109.97 276.443,-112.307 269.822,-104.036 266.109,-109.97"/>
</g>
<!-- Node49&#45;&gt;Node5 -->
<g id="edge144" class="edge"><title>Node49&#45;&gt;Node5</title>
<path fill="none" stroke="midnightblue" d="M270.888,-106.514C259.051,-98.2575 244.57,-87.3202 233,-76 214.341,-57.7428 196.436,-32.592 187.643,-19.5772"/>
<polygon fill="midnightblue" stroke="midnightblue" points="269.098,-109.53 279.333,-112.268 273.039,-103.745 269.098,-109.53"/>
</g>
<!-- Node49&#45;&gt;Node48 -->
<g id="edge146" class="edge"><title>Node49&#45;&gt;Node48</title>
<path fill="none" stroke="midnightblue" d="M342.866,-120.094C566.975,-115.974 1503.55,-98.244 2272,-76 2340.35,-74.0216 2418.94,-71.1733 2470.81,-69.2136"/>
<polygon fill="midnightblue" stroke="midnightblue" points="342.67,-116.597 332.736,-120.28 342.798,-123.596 342.67,-116.597"/>
</g>
<!-- Node50 -->
<g id="node120" class="node"><title>Node50</title>
<a xlink:href="_s_l_importer_8cpp.html" target="_top" xlink:title="SLImporter.cpp">
<polygon fill="white" stroke="black" points="248,-56.5 248,-75.5 338,-75.5 338,-56.5 248,-56.5"/>
<text text-anchor="middle" x="293" y="-63.5" font-family="Arial.ttf" font-size="10.00">SLImporter.cpp</text>
</a>
</g>
<!-- Node49&#45;&gt;Node50 -->
<g id="edge140" class="edge"><title>Node49&#45;&gt;Node50</title>
<path fill="none" stroke="midnightblue" d="M293,-101.805C293,-92.9102 293,-82.7798 293,-75.7511"/>
<polygon fill="midnightblue" stroke="midnightblue" points="289.5,-102.083 293,-112.083 296.5,-102.083 289.5,-102.083"/>
</g>
</g>
</svg>
