<?xml version="1.0" encoding="UTF-8" standalone="no"?>
<!DOCTYPE svg PUBLIC "-//W3C//DTD SVG 1.1//EN"
 "http://www.w3.org/Graphics/SVG/1.1/DTD/svg11.dtd">
<!-- Generated by graphviz version 2.44.0 (20200408.0750)
 -->
<!-- Title: SLGLState.h Pages: 1 -->
<svg width="855pt" height="476pt"
 viewBox="0.00 0.00 855.02 476.00" xmlns="http://www.w3.org/2000/svg" xmlns:xlink="http://www.w3.org/1999/xlink">
<g id="graph0" class="graph" transform="scale(1 1) rotate(0) translate(4 472)">
<title>SLGLState.h</title>
<polygon fill="white" stroke="transparent" points="-4,4 -4,-472 851.02,-472 851.02,4 -4,4"/>
<!-- Node1 -->
<g id="node1" class="node">
<title>Node1</title>
<g id="a_node1"><a xlink:title=" ">
<polygon fill="#bfbfbf" stroke="black" points="197.5,-448.5 197.5,-467.5 270.5,-467.5 270.5,-448.5 197.5,-448.5"/>
<text text-anchor="middle" x="234" y="-455.5" font-family="Arial.ttf" font-size="10.00">SLGLState.h</text>
</a>
</g>
</g>
<!-- Node2 -->
<g id="node2" class="node">
<title>Node2</title>
<g id="a_node2"><a xlink:href="_s_l_8h.html" target="_top" xlink:title=" ">
<polygon fill="white" stroke="black" points="235.5,-168.5 235.5,-187.5 272.5,-187.5 272.5,-168.5 235.5,-168.5"/>
<text text-anchor="middle" x="254" y="-175.5" font-family="Arial.ttf" font-size="10.00">SL.h</text>
</a>
</g>
</g>
<!-- Node1&#45;&gt;Node2 -->
<g id="edge1" class="edge">
<title>Node1&#45;&gt;Node2</title>
<path fill="none" stroke="midnightblue" d="M237.92,-448.28C248.96,-422.75 279.13,-345.79 273,-280 270.29,-250.91 263.27,-217.7 258.57,-197.55"/>
<polygon fill="midnightblue" stroke="midnightblue" points="261.91,-196.48 256.17,-187.57 255.1,-198.11 261.91,-196.48"/>
</g>
<!-- Node12 -->
<g id="node12" class="node">
<title>Node12</title>
<g id="a_node12"><a xlink:href="_s_l_vec3_8h.html" target="_top" xlink:title=" ">
<polygon fill="white" stroke="black" points="204.5,-280.5 204.5,-299.5 263.5,-299.5 263.5,-280.5 204.5,-280.5"/>
<text text-anchor="middle" x="234" y="-287.5" font-family="Arial.ttf" font-size="10.00">SLVec3.h</text>
</a>
</g>
</g>
<!-- Node1&#45;&gt;Node12 -->
<g id="edge14" class="edge">
<title>Node1&#45;&gt;Node12</title>
<path fill="none" stroke="midnightblue" d="M234,-448.08C234,-421.95 234,-345.21 234,-309.58"/>
<polygon fill="midnightblue" stroke="midnightblue" points="237.5,-309.57 234,-299.57 230.5,-309.57 237.5,-309.57"/>
</g>
<!-- Node14 -->
<g id="node14" class="node">
<title>Node14</title>
<g id="a_node14"><a xlink:href="_s_l_vec4_8h.html" target="_top" xlink:title=" ">
<polygon fill="white" stroke="black" points="108.5,-336.5 108.5,-355.5 167.5,-355.5 167.5,-336.5 108.5,-336.5"/>
<text text-anchor="middle" x="138" y="-343.5" font-family="Arial.ttf" font-size="10.00">SLVec4.h</text>
</a>
</g>
</g>
<!-- Node1&#45;&gt;Node14 -->
<g id="edge20" class="edge">
<title>Node1&#45;&gt;Node14</title>
<path fill="none" stroke="midnightblue" d="M222.48,-448.47C211.4,-439.94 194.53,-426.1 182,-412 168.75,-397.08 156.26,-377.96 148,-364.32"/>
<polygon fill="midnightblue" stroke="midnightblue" points="150.88,-362.33 142.78,-355.51 144.86,-365.89 150.88,-362.33"/>
</g>
<!-- Node15 -->
<g id="node15" class="node">
<title>Node15</title>
<g id="a_node15"><a xlink:href="_s_l_mat4_8h.html" target="_top" xlink:title=" ">
<polygon fill="white" stroke="black" points="383.5,-392.5 383.5,-411.5 442.5,-411.5 442.5,-392.5 383.5,-392.5"/>
<text text-anchor="middle" x="413" y="-399.5" font-family="Arial.ttf" font-size="10.00">SLMat4.h</text>
</a>
</g>
</g>
<!-- Node1&#45;&gt;Node15 -->
<g id="edge25" class="edge">
<title>Node1&#45;&gt;Node15</title>
<path fill="none" stroke="midnightblue" d="M262.36,-448.44C292.74,-439.28 341.11,-424.69 374.82,-414.52"/>
<polygon fill="midnightblue" stroke="midnightblue" points="376.21,-417.76 384.77,-411.52 374.18,-411.05 376.21,-417.76"/>
</g>
<!-- Node3 -->
<g id="node3" class="node">
<title>Node3</title>
<g id="a_node3"><a xlink:href="_utils_8h.html" target="_top" xlink:title=" ">
<polygon fill="white" stroke="black" points="193.5,-112.5 193.5,-131.5 238.5,-131.5 238.5,-112.5 193.5,-112.5"/>
<text text-anchor="middle" x="216" y="-119.5" font-family="Arial.ttf" font-size="10.00">Utils.h</text>
</a>
</g>
</g>
<!-- Node2&#45;&gt;Node3 -->
<g id="edge2" class="edge">
<title>Node2&#45;&gt;Node3</title>
<path fill="none" stroke="midnightblue" d="M247.73,-168.08C242.36,-160.46 234.48,-149.26 227.92,-139.94"/>
<polygon fill="midnightblue" stroke="midnightblue" points="230.78,-137.91 222.16,-131.75 225.05,-141.94 230.78,-137.91"/>
</g>
<!-- Node4 -->
<g id="node4" class="node">
<title>Node4</title>
<g id="a_node4"><a xlink:title=" ">
<polygon fill="white" stroke="#bfbfbf" points="68.5,-0.5 68.5,-19.5 109.5,-19.5 109.5,-0.5 68.5,-0.5"/>
<text text-anchor="middle" x="89" y="-7.5" font-family="Arial.ttf" font-size="10.00">string</text>
</a>
</g>
</g>
<!-- Node3&#45;&gt;Node4 -->
<g id="edge3" class="edge">
<title>Node3&#45;&gt;Node4</title>
<path fill="none" stroke="midnightblue" d="M193.24,-118.31C167.41,-114 125.91,-103.09 103,-76 92.18,-63.2 89.13,-44.01 88.52,-29.8"/>
<polygon fill="midnightblue" stroke="midnightblue" points="92.01,-29.66 88.44,-19.68 85.01,-29.71 92.01,-29.66"/>
</g>
<!-- Node5 -->
<g id="node5" class="node">
<title>Node5</title>
<g id="a_node5"><a xlink:title=" ">
<polygon fill="white" stroke="#bfbfbf" points="244,-56.5 244,-75.5 288,-75.5 288,-56.5 244,-56.5"/>
<text text-anchor="middle" x="266" y="-63.5" font-family="Arial.ttf" font-size="10.00">vector</text>
</a>
</g>
</g>
<!-- Node3&#45;&gt;Node5 -->
<g id="edge4" class="edge">
<title>Node3&#45;&gt;Node5</title>
<path fill="none" stroke="midnightblue" d="M224.26,-112.08C231.46,-104.3 242.11,-92.8 250.85,-83.37"/>
<polygon fill="midnightblue" stroke="midnightblue" points="253.67,-85.47 257.9,-75.75 248.53,-80.71 253.67,-85.47"/>
</g>
<!-- Node6 -->
<g id="node6" class="node">
<title>Node6</title>
<g id="a_node6"><a xlink:title=" ">
<polygon fill="white" stroke="#bfbfbf" points="306.5,-56.5 306.5,-75.5 347.5,-75.5 347.5,-56.5 306.5,-56.5"/>
<text text-anchor="middle" x="327" y="-63.5" font-family="Arial.ttf" font-size="10.00">cfloat</text>
</a>
</g>
</g>
<!-- Node3&#45;&gt;Node6 -->
<g id="edge5" class="edge">
<title>Node3&#45;&gt;Node6</title>
<path fill="none" stroke="midnightblue" d="M233.83,-112.32C251.72,-103.62 279.48,-90.12 300.05,-80.11"/>
<polygon fill="midnightblue" stroke="midnightblue" points="301.75,-83.18 309.21,-75.65 298.69,-76.88 301.75,-83.18"/>
</g>
<!-- Node7 -->
<g id="node7" class="node">
<title>Node7</title>
<g id="a_node7"><a xlink:title=" ">
<polygon fill="white" stroke="#bfbfbf" points="159,-0.5 159,-19.5 211,-19.5 211,-0.5 159,-0.5"/>
<text text-anchor="middle" x="185" y="-7.5" font-family="Arial.ttf" font-size="10.00">memory</text>
</a>
</g>
</g>
<!-- Node3&#45;&gt;Node7 -->
<g id="edge6" class="edge">
<title>Node3&#45;&gt;Node7</title>
<path fill="none" stroke="midnightblue" d="M213.57,-112.37C208.54,-94.54 196.92,-53.3 190.15,-29.27"/>
<polygon fill="midnightblue" stroke="midnightblue" points="193.5,-28.27 187.42,-19.59 186.77,-30.17 193.5,-28.27"/>
</g>
<!-- Node8 -->
<g id="node8" class="node">
<title>Node8</title>
<g id="a_node8"><a xlink:href="_file_log_8h.html" target="_top" xlink:title=" ">
<polygon fill="white" stroke="black" points="0,-56.5 0,-75.5 56,-75.5 56,-56.5 0,-56.5"/>
<text text-anchor="middle" x="28" y="-63.5" font-family="Arial.ttf" font-size="10.00">FileLog.h</text>
</a>
</g>
</g>
<!-- Node3&#45;&gt;Node8 -->
<g id="edge7" class="edge">
<title>Node3&#45;&gt;Node8</title>
<path fill="none" stroke="midnightblue" d="M193.32,-114.49C161.77,-105.42 104.19,-88.89 66.01,-77.92"/>
<polygon fill="midnightblue" stroke="midnightblue" points="66.85,-74.52 56.27,-75.12 64.92,-81.25 66.85,-74.52"/>
</g>
<!-- Node10 -->
<g id="node10" class="node">
<title>Node10</title>
<g id="a_node10"><a xlink:href="_custom_log_8h.html" target="_top" xlink:title=" ">
<polygon fill="white" stroke="black" points="112.5,-56.5 112.5,-75.5 187.5,-75.5 187.5,-56.5 112.5,-56.5"/>
<text text-anchor="middle" x="150" y="-63.5" font-family="Arial.ttf" font-size="10.00">CustomLog.h</text>
</a>
</g>
</g>
<!-- Node3&#45;&gt;Node10 -->
<g id="edge10" class="edge">
<title>Node3&#45;&gt;Node10</title>
<path fill="none" stroke="midnightblue" d="M205.4,-112.32C195.54,-104.26 180.65,-92.08 168.78,-82.37"/>
<polygon fill="midnightblue" stroke="midnightblue" points="170.75,-79.46 160.8,-75.83 166.32,-84.88 170.75,-79.46"/>
</g>
<!-- Node11 -->
<g id="node11" class="node">
<title>Node11</title>
<g id="a_node11"><a xlink:title=" ">
<polygon fill="white" stroke="#bfbfbf" points="365.5,-56.5 365.5,-75.5 424.5,-75.5 424.5,-56.5 365.5,-56.5"/>
<text text-anchor="middle" x="395" y="-63.5" font-family="Arial.ttf" font-size="10.00">functional</text>
</a>
</g>
</g>
<!-- Node3&#45;&gt;Node11 -->
<g id="edge13" class="edge">
<title>Node3&#45;&gt;Node11</title>
<path fill="none" stroke="midnightblue" d="M238.67,-114.16C268.42,-105.19 321.07,-89.3 356.97,-78.47"/>
<polygon fill="midnightblue" stroke="midnightblue" points="358.06,-81.8 366.62,-75.56 356.04,-75.1 358.06,-81.8"/>
</g>
<!-- Node8&#45;&gt;Node4 -->
<g id="edge8" class="edge">
<title>Node8&#45;&gt;Node4</title>
<path fill="none" stroke="midnightblue" d="M37.8,-56.32C46.82,-48.34 60.41,-36.31 71.32,-26.65"/>
<polygon fill="midnightblue" stroke="midnightblue" points="73.85,-29.08 79.02,-19.83 69.21,-23.84 73.85,-29.08"/>
</g>
<!-- Node9 -->
<g id="node9" class="node">
<title>Node9</title>
<g id="a_node9"><a xlink:title=" ">
<polygon fill="white" stroke="#bfbfbf" points="0,-0.5 0,-19.5 50,-19.5 50,-0.5 0,-0.5"/>
<text text-anchor="middle" x="25" y="-7.5" font-family="Arial.ttf" font-size="10.00">fstream</text>
</a>
</g>
</g>
<!-- Node8&#45;&gt;Node9 -->
<g id="edge9" class="edge">
<title>Node8&#45;&gt;Node9</title>
<path fill="none" stroke="midnightblue" d="M27.5,-56.08C27.11,-49.01 26.55,-38.86 26.05,-29.99"/>
<polygon fill="midnightblue" stroke="midnightblue" points="29.54,-29.54 25.49,-19.75 22.55,-29.93 29.54,-29.54"/>
</g>
<!-- Node10&#45;&gt;Node4 -->
<g id="edge12" class="edge">
<title>Node10&#45;&gt;Node4</title>
<path fill="none" stroke="midnightblue" d="M140.2,-56.32C131.18,-48.34 117.59,-36.31 106.68,-26.65"/>
<polygon fill="midnightblue" stroke="midnightblue" points="108.79,-23.84 98.98,-19.83 104.15,-29.08 108.79,-23.84"/>
</g>
<!-- Node10&#45;&gt;Node7 -->
<g id="edge11" class="edge">
<title>Node10&#45;&gt;Node7</title>
<path fill="none" stroke="midnightblue" d="M155.78,-56.08C160.67,-48.53 167.83,-37.49 173.83,-28.23"/>
<polygon fill="midnightblue" stroke="midnightblue" points="176.83,-30.05 179.33,-19.75 170.95,-26.24 176.83,-30.05"/>
</g>
<!-- Node12&#45;&gt;Node2 -->
<g id="edge15" class="edge">
<title>Node12&#45;&gt;Node2</title>
<path fill="none" stroke="midnightblue" d="M235.57,-280.37C238.8,-262.62 246.24,-221.67 250.62,-197.6"/>
<polygon fill="midnightblue" stroke="midnightblue" points="254.09,-198.06 252.44,-187.59 247.21,-196.8 254.09,-198.06"/>
</g>
<!-- Node12&#45;&gt;Node3 -->
<g id="edge19" class="edge">
<title>Node12&#45;&gt;Node3</title>
<path fill="none" stroke="midnightblue" d="M233.03,-280.08C230.2,-253.95 221.88,-177.21 218.01,-141.58"/>
<polygon fill="midnightblue" stroke="midnightblue" points="221.49,-141.13 216.93,-131.57 214.53,-141.89 221.49,-141.13"/>
</g>
<!-- Node13 -->
<g id="node13" class="node">
<title>Node13</title>
<g id="a_node13"><a xlink:href="_s_l_vec2_8h.html" target="_top" xlink:title=" ">
<polygon fill="white" stroke="black" points="90.5,-224.5 90.5,-243.5 149.5,-243.5 149.5,-224.5 90.5,-224.5"/>
<text text-anchor="middle" x="120" y="-231.5" font-family="Arial.ttf" font-size="10.00">SLVec2.h</text>
</a>
</g>
</g>
<!-- Node12&#45;&gt;Node13 -->
<g id="edge16" class="edge">
<title>Node12&#45;&gt;Node13</title>
<path fill="none" stroke="midnightblue" d="M215.94,-280.44C197.43,-271.68 168.42,-257.94 147.14,-247.86"/>
<polygon fill="midnightblue" stroke="midnightblue" points="148.51,-244.63 137.98,-243.52 145.52,-250.96 148.51,-244.63"/>
</g>
<!-- Node13&#45;&gt;Node2 -->
<g id="edge17" class="edge">
<title>Node13&#45;&gt;Node2</title>
<path fill="none" stroke="midnightblue" d="M141.23,-224.44C164.17,-215.2 200.8,-200.44 226.06,-190.26"/>
<polygon fill="midnightblue" stroke="midnightblue" points="227.49,-193.46 235.46,-186.47 224.87,-186.96 227.49,-193.46"/>
</g>
<!-- Node13&#45;&gt;Node3 -->
<g id="edge18" class="edge">
<title>Node13&#45;&gt;Node3</title>
<path fill="none" stroke="midnightblue" d="M124.78,-224.49C132.24,-211.57 147.53,-186.54 164,-168 173.79,-156.98 186.23,-146.13 196.48,-137.84"/>
<polygon fill="midnightblue" stroke="midnightblue" points="198.79,-140.47 204.48,-131.53 194.46,-134.98 198.79,-140.47"/>
</g>
<!-- Node14&#45;&gt;Node2 -->
<g id="edge21" class="edge">
<title>Node14&#45;&gt;Node2</title>
<path fill="none" stroke="midnightblue" d="M144.24,-336.08C162.73,-309.61 217.52,-231.21 241.97,-196.21"/>
<polygon fill="midnightblue" stroke="midnightblue" points="245.15,-197.77 248.01,-187.57 239.42,-193.76 245.15,-197.77"/>
</g>
<!-- Node14&#45;&gt;Node3 -->
<g id="edge24" class="edge">
<title>Node14&#45;&gt;Node3</title>
<path fill="none" stroke="midnightblue" d="M128.23,-336.22C107.32,-316.32 61.65,-266.22 81,-224 101.09,-180.17 151.23,-150.92 184.42,-135.64"/>
<polygon fill="midnightblue" stroke="midnightblue" points="185.99,-138.78 193.71,-131.53 183.15,-132.38 185.99,-138.78"/>
</g>
<!-- Node14&#45;&gt;Node12 -->
<g id="edge23" class="edge">
<title>Node14&#45;&gt;Node12</title>
<path fill="none" stroke="midnightblue" d="M153.42,-336.32C168.54,-327.82 191.82,-314.73 209.47,-304.8"/>
<polygon fill="midnightblue" stroke="midnightblue" points="211.61,-307.61 218.61,-299.65 208.18,-301.51 211.61,-307.61"/>
</g>
<!-- Node14&#45;&gt;Node13 -->
<g id="edge22" class="edge">
<title>Node14&#45;&gt;Node13</title>
<path fill="none" stroke="midnightblue" d="M136.59,-336.37C133.68,-318.62 126.98,-277.67 123.04,-253.6"/>
<polygon fill="midnightblue" stroke="midnightblue" points="126.47,-252.89 121.41,-243.59 119.57,-254.03 126.47,-252.89"/>
</g>
<!-- Node15&#45;&gt;Node2 -->
<g id="edge26" class="edge">
<title>Node15&#45;&gt;Node2</title>
<path fill="none" stroke="midnightblue" d="M416.8,-392.2C421.77,-379.33 428.96,-354.86 421,-336 392.28,-267.95 317.41,-216.04 278.42,-192.64"/>
<polygon fill="midnightblue" stroke="midnightblue" points="280.17,-189.61 269.77,-187.57 276.63,-195.65 280.17,-189.61"/>
</g>
<!-- Node15&#45;&gt;Node3 -->
<g id="edge28" class="edge">
<title>Node15&#45;&gt;Node3</title>
<path fill="none" stroke="midnightblue" d="M442.56,-399.66C532.36,-395.35 797.59,-380.64 827,-356 850.07,-336.67 846,-321.1 846,-291 846,-291 846,-291 846,-233 846,-171.78 378.4,-134.4 248.9,-125.22"/>
<polygon fill="midnightblue" stroke="midnightblue" points="249.01,-121.72 238.79,-124.51 248.53,-128.7 249.01,-121.72"/>
</g>
<!-- Node15&#45;&gt;Node12 -->
<g id="edge34" class="edge">
<title>Node15&#45;&gt;Node12</title>
<path fill="none" stroke="midnightblue" d="M383.5,-394.33C357.76,-387.55 320.23,-375.28 292,-356 273.15,-343.13 256.36,-322.84 245.76,-308.35"/>
<polygon fill="midnightblue" stroke="midnightblue" points="248.36,-305.96 239.73,-299.81 242.64,-310 248.36,-305.96"/>
</g>
<!-- Node15&#45;&gt;Node14 -->
<g id="edge35" class="edge">
<title>Node15&#45;&gt;Node14</title>
<path fill="none" stroke="midnightblue" d="M383.31,-395.17C333.49,-385.39 233.09,-365.67 177.42,-354.74"/>
<polygon fill="midnightblue" stroke="midnightblue" points="178.05,-351.3 167.57,-352.81 176.71,-358.17 178.05,-351.3"/>
</g>
<!-- Node16 -->
<g id="node16" class="node">
<title>Node16</title>
<g id="a_node16"><a xlink:title=" ">
<polygon fill="white" stroke="#bfbfbf" points="300.5,-336.5 300.5,-355.5 341.5,-355.5 341.5,-336.5 300.5,-336.5"/>
<text text-anchor="middle" x="321" y="-343.5" font-family="Arial.ttf" font-size="10.00">stack</text>
</a>
</g>
</g>
<!-- Node15&#45;&gt;Node16 -->
<g id="edge27" class="edge">
<title>Node15&#45;&gt;Node16</title>
<path fill="none" stroke="midnightblue" d="M398.22,-392.32C383.73,-383.82 361.43,-370.73 344.51,-360.8"/>
<polygon fill="midnightblue" stroke="midnightblue" points="346.14,-357.7 335.74,-355.65 342.6,-363.74 346.14,-357.7"/>
</g>
<!-- Node17 -->
<g id="node17" class="node">
<title>Node17</title>
<g id="a_node17"><a xlink:href="_s_l_mat3_8h.html" target="_top" xlink:title=" ">
<polygon fill="white" stroke="black" points="468.5,-336.5 468.5,-355.5 527.5,-355.5 527.5,-336.5 468.5,-336.5"/>
<text text-anchor="middle" x="498" y="-343.5" font-family="Arial.ttf" font-size="10.00">SLMat3.h</text>
</a>
</g>
</g>
<!-- Node15&#45;&gt;Node17 -->
<g id="edge29" class="edge">
<title>Node15&#45;&gt;Node17</title>
<path fill="none" stroke="midnightblue" d="M426.66,-392.32C439.92,-383.9 460.27,-370.97 475.85,-361.07"/>
<polygon fill="midnightblue" stroke="midnightblue" points="477.81,-363.97 484.38,-355.65 474.06,-358.06 477.81,-363.97"/>
</g>
<!-- Node19 -->
<g id="node19" class="node">
<title>Node19</title>
<g id="a_node19"><a xlink:title=" ">
<polygon fill="white" stroke="#bfbfbf" points="360,-336.5 360,-355.5 412,-355.5 412,-336.5 360,-336.5"/>
<text text-anchor="middle" x="386" y="-343.5" font-family="Arial.ttf" font-size="10.00">assert.h</text>
</a>
</g>
</g>
<!-- Node15&#45;&gt;Node19 -->
<g id="edge36" class="edge">
<title>Node15&#45;&gt;Node19</title>
<path fill="none" stroke="midnightblue" d="M408.54,-392.08C404.85,-384.69 399.48,-373.95 394.91,-364.81"/>
<polygon fill="midnightblue" stroke="midnightblue" points="397.98,-363.13 390.38,-355.75 391.72,-366.26 397.98,-363.13"/>
</g>
<!-- Node20 -->
<g id="node20" class="node">
<title>Node20</title>
<g id="a_node20"><a xlink:title=" ">
<polygon fill="white" stroke="#bfbfbf" points="545.5,-336.5 545.5,-355.5 672.5,-355.5 672.5,-336.5 545.5,-336.5"/>
<text text-anchor="middle" x="609" y="-343.5" font-family="Arial.ttf" font-size="10.00">Shoemake/Decompose.h</text>
</a>
</g>
</g>
<!-- Node15&#45;&gt;Node20 -->
<g id="edge37" class="edge">
<title>Node15&#45;&gt;Node20</title>
<path fill="none" stroke="midnightblue" d="M442.77,-392.8C476.15,-383.6 530.49,-368.63 567.91,-358.32"/>
<polygon fill="midnightblue" stroke="midnightblue" points="569.27,-361.58 577.98,-355.55 567.41,-354.83 569.27,-361.58"/>
</g>
<!-- Node21 -->
<g id="node21" class="node">
<title>Node21</title>
<g id="a_node21"><a xlink:title=" ">
<polygon fill="white" stroke="#bfbfbf" points="690.5,-336.5 690.5,-355.5 817.5,-355.5 817.5,-336.5 690.5,-336.5"/>
<text text-anchor="middle" x="754" y="-343.5" font-family="Arial.ttf" font-size="10.00">Shoemake/EulerAngles.h</text>
</a>
</g>
</g>
<!-- Node15&#45;&gt;Node21 -->
<g id="edge38" class="edge">
<title>Node15&#45;&gt;Node21</title>
<path fill="none" stroke="midnightblue" d="M442.66,-396.3C497.53,-387.61 615.97,-368.86 689.92,-357.15"/>
<polygon fill="midnightblue" stroke="midnightblue" points="690.72,-360.56 700.05,-355.54 689.62,-353.65 690.72,-360.56"/>
</g>
<!-- Node17&#45;&gt;Node2 -->
<g id="edge30" class="edge">
<title>Node17&#45;&gt;Node2</title>
<path fill="none" stroke="midnightblue" d="M494,-336.19C481.89,-309.65 445.81,-231.77 436,-224 390.99,-188.35 321.58,-180.46 282.78,-179.01"/>
<polygon fill="midnightblue" stroke="midnightblue" points="282.78,-175.51 272.69,-178.75 282.6,-182.5 282.78,-175.51"/>
</g>
<!-- Node17&#45;&gt;Node3 -->
<g id="edge31" class="edge">
<title>Node17&#45;&gt;Node3</title>
<path fill="none" stroke="midnightblue" d="M514.02,-336.44C533.89,-324.63 563.71,-302.25 551,-280 487.51,-168.87 319.88,-135.62 248.71,-126.34"/>
<polygon fill="midnightblue" stroke="midnightblue" points="248.89,-122.84 238.54,-125.09 248.04,-129.78 248.89,-122.84"/>
</g>
<!-- Node17&#45;&gt;Node12 -->
<g id="edge32" class="edge">
<title>Node17&#45;&gt;Node12</title>
<path fill="none" stroke="midnightblue" d="M468.48,-338.96C420.93,-329.24 327.29,-310.08 273.86,-299.15"/>
<polygon fill="midnightblue" stroke="midnightblue" points="274.23,-295.66 263.73,-297.08 272.83,-302.51 274.23,-295.66"/>
</g>
<!-- Node18 -->
<g id="node18" class="node">
<title>Node18</title>
<g id="a_node18"><a xlink:title=" ">
<polygon fill="white" stroke="#bfbfbf" points="488,-280.5 488,-299.5 542,-299.5 542,-280.5 488,-280.5"/>
<text text-anchor="middle" x="515" y="-287.5" font-family="Arial.ttf" font-size="10.00">iostream</text>
</a>
</g>
</g>
<!-- Node17&#45;&gt;Node18 -->
<g id="edge33" class="edge">
<title>Node17&#45;&gt;Node18</title>
<path fill="none" stroke="midnightblue" d="M500.81,-336.08C503.08,-328.85 506.37,-318.41 509.21,-309.4"/>
<polygon fill="midnightblue" stroke="midnightblue" points="512.58,-310.34 512.25,-299.75 505.9,-308.24 512.58,-310.34"/>
</g>
</g>
</svg>
