<?xml version="1.0" encoding="UTF-8" standalone="no"?>
<!DOCTYPE svg PUBLIC "-//W3C//DTD SVG 1.1//EN"
 "http://www.w3.org/Graphics/SVG/1.1/DTD/svg11.dtd">
<!-- Generated by graphviz version 3.0.0 (20220226.1711)
 -->
<!-- Title: SLCamera.h Pages: 1 -->
<svg width="3246pt" height="364pt"
 viewBox="0.00 0.00 3246.00 364.00" xmlns="http://www.w3.org/2000/svg" xmlns:xlink="http://www.w3.org/1999/xlink">
<g id="graph0" class="graph" transform="scale(1 1) rotate(0) translate(4 360)">
<title>SLCamera.h</title>
<polygon fill="white" stroke="transparent" points="-4,4 -4,-360 3242,-360 3242,4 -4,4"/>
<!-- Node1 -->
<g id="node1" class="node">
<title>Node1</title>
<g id="a_node1"><a xlink:title=" ">
<polygon fill="#bfbfbf" stroke="black" points="2848,-336.5 2848,-355.5 2919,-355.5 2919,-336.5 2848,-336.5"/>
<text text-anchor="middle" x="2883.5" y="-343.5" font-family="Arial" font-size="10.00">SLCamera.h</text>
</a>
</g>
</g>
<!-- Node2 -->
<g id="node2" class="node">
<title>Node2</title>
<g id="a_node2"><a xlink:href="_s_l_g_l_oculus_8h.html" target="_top" xlink:title=" ">
<polygon fill="white" stroke="black" points="1044.5,-280.5 1044.5,-299.5 1124.5,-299.5 1124.5,-280.5 1044.5,-280.5"/>
<text text-anchor="middle" x="1084.5" y="-287.5" font-family="Arial" font-size="10.00">SLGLOculus.h</text>
</a>
</g>
</g>
<!-- Node1&#45;&gt;Node2 -->
<g id="edge1" class="edge">
<title>Node1&#45;&gt;Node2</title>
<path fill="none" stroke="midnightblue" d="M2837.68,-343.62C2584.84,-336.04 1362.86,-299.36 1124.76,-292.21"/>
<polygon fill="midnightblue" stroke="midnightblue" points="2837.87,-347.13 2847.97,-343.93 2838.08,-340.13 2837.87,-347.13"/>
</g>
<!-- Node38 -->
<g id="node38" class="node">
<title>Node38</title>
<g id="a_node38"><a xlink:href="_s_l_pathtracer_8cpp.html" target="_top" xlink:title=" ">
<polygon fill="white" stroke="black" points="2912.5,-112.5 2912.5,-131.5 3004.5,-131.5 3004.5,-112.5 2912.5,-112.5"/>
<text text-anchor="middle" x="2958.5" y="-119.5" font-family="Arial" font-size="10.00">SLPathtracer.cpp</text>
</a>
</g>
</g>
<!-- Node1&#45;&gt;Node38 -->
<g id="edge73" class="edge">
<title>Node1&#45;&gt;Node38</title>
<path fill="none" stroke="midnightblue" d="M2881.91,-325.94C2879.95,-292.01 2879.76,-219.85 2907.5,-168 2915.86,-152.38 2931.93,-139.62 2943.81,-131.72"/>
<polygon fill="midnightblue" stroke="midnightblue" points="2878.44,-326.52 2882.63,-336.25 2885.42,-326.03 2878.44,-326.52"/>
</g>
<!-- Node41 -->
<g id="node41" class="node">
<title>Node41</title>
<g id="a_node41"><a xlink:href="_s_l_scene_view_8cpp.html" target="_top" xlink:title=" ">
<polygon fill="white" stroke="black" points="3022.5,-112.5 3022.5,-131.5 3118.5,-131.5 3118.5,-112.5 3022.5,-112.5"/>
<text text-anchor="middle" x="3070.5" y="-119.5" font-family="Arial" font-size="10.00">SLSceneView.cpp</text>
</a>
</g>
</g>
<!-- Node1&#45;&gt;Node41 -->
<g id="edge74" class="edge">
<title>Node1&#45;&gt;Node41</title>
<path fill="none" stroke="midnightblue" d="M2887.92,-326.17C2897.81,-285.45 2922.66,-191.04 2945.5,-168 2965.96,-147.36 2996.56,-136.14 3022.36,-130.06"/>
<polygon fill="midnightblue" stroke="midnightblue" points="2884.46,-325.58 2885.54,-336.12 2891.27,-327.21 2884.46,-325.58"/>
</g>
<!-- Node42 -->
<g id="node42" class="node">
<title>Node42</title>
<g id="a_node42"><a xlink:href="_s_l_shadow_map_8cpp.html" target="_top" xlink:title=" ">
<polygon fill="white" stroke="black" points="3137,-112.5 3137,-131.5 3238,-131.5 3238,-112.5 3137,-112.5"/>
<text text-anchor="middle" x="3187.5" y="-119.5" font-family="Arial" font-size="10.00">SLShadowMap.cpp</text>
</a>
</g>
</g>
<!-- Node1&#45;&gt;Node42 -->
<g id="edge75" class="edge">
<title>Node1&#45;&gt;Node42</title>
<path fill="none" stroke="midnightblue" d="M2903.83,-330.15C2962.3,-287.45 3129.65,-165.25 3175.67,-131.64"/>
<polygon fill="midnightblue" stroke="midnightblue" points="2901.43,-327.57 2895.42,-336.3 2905.56,-333.23 2901.43,-327.57"/>
</g>
<!-- Node49 -->
<g id="node48" class="node">
<title>Node49</title>
<g id="a_node48"><a xlink:href="_s_l_g_l_oculus_f_b_8h.html" target="_top" xlink:title=" ">
<polygon fill="white" stroke="black" points="1895,-224.5 1895,-243.5 1988,-243.5 1988,-224.5 1895,-224.5"/>
<text text-anchor="middle" x="1941.5" y="-231.5" font-family="Arial" font-size="10.00">SLGLOculusFB.h</text>
</a>
</g>
</g>
<!-- Node1&#45;&gt;Node49 -->
<g id="edge64" class="edge">
<title>Node1&#45;&gt;Node49</title>
<path fill="none" stroke="midnightblue" d="M2837.77,-339.66C2678.43,-321.05 2148.62,-259.19 1988.03,-240.43"/>
<polygon fill="midnightblue" stroke="midnightblue" points="2837.38,-343.14 2847.72,-340.82 2838.2,-336.19 2837.38,-343.14"/>
</g>
<!-- Node50 -->
<g id="node49" class="node">
<title>Node50</title>
<g id="a_node49"><a xlink:href="_s_l_g_l_program_generated_8cpp.html" target="_top" xlink:title=" ">
<polygon fill="white" stroke="black" points="2987.5,-280.5 2987.5,-299.5 3129.5,-299.5 3129.5,-280.5 2987.5,-280.5"/>
<text text-anchor="middle" x="3058.5" y="-287.5" font-family="Arial" font-size="10.00">SLGLProgramGenerated.cpp</text>
</a>
</g>
</g>
<!-- Node1&#45;&gt;Node50 -->
<g id="edge67" class="edge">
<title>Node1&#45;&gt;Node50</title>
<path fill="none" stroke="midnightblue" d="M2920.97,-333.44C2953.97,-323.26 3001.26,-308.66 3030.9,-299.52"/>
<polygon fill="midnightblue" stroke="midnightblue" points="2919.75,-330.15 2911.23,-336.44 2921.82,-336.84 2919.75,-330.15"/>
</g>
<!-- Node51 -->
<g id="node50" class="node">
<title>Node51</title>
<g id="a_node50"><a xlink:href="_s_l_keyframe_camera_8h.html" target="_top" xlink:title=" ">
<polygon fill="white" stroke="black" points="2699,-224.5 2699,-243.5 2812,-243.5 2812,-224.5 2699,-224.5"/>
<text text-anchor="middle" x="2755.5" y="-231.5" font-family="Arial" font-size="10.00">SLKeyframeCamera.h</text>
</a>
</g>
</g>
<!-- Node1&#45;&gt;Node51 -->
<g id="edge68" class="edge">
<title>Node1&#45;&gt;Node51</title>
<path fill="none" stroke="midnightblue" d="M2865.83,-329.82C2838.57,-306.39 2787.14,-262.19 2765.5,-243.59"/>
<polygon fill="midnightblue" stroke="midnightblue" points="2863.59,-332.51 2873.46,-336.37 2868.15,-327.2 2863.59,-332.51"/>
</g>
<!-- Node3 -->
<g id="node3" class="node">
<title>Node3</title>
<g id="a_node3"><a xlink:href="_s_l_g_l_o_v_r_workaround_8h.html" target="_top" xlink:title=" ">
<polygon fill="white" stroke="black" points="28.5,-168.5 28.5,-187.5 150.5,-187.5 150.5,-168.5 28.5,-168.5"/>
<text text-anchor="middle" x="89.5" y="-175.5" font-family="Arial" font-size="10.00">SLGLOVRWorkaround.h</text>
</a>
</g>
</g>
<!-- Node2&#45;&gt;Node3 -->
<g id="edge2" class="edge">
<title>Node2&#45;&gt;Node3</title>
<path fill="none" stroke="midnightblue" d="M1033.8,-283.62C894.79,-268.81 495.88,-226.07 164.5,-188 160.07,-187.49 155.49,-186.96 150.89,-186.42"/>
<polygon fill="midnightblue" stroke="midnightblue" points="1033.82,-287.14 1044.13,-284.71 1034.56,-280.18 1033.82,-287.14"/>
</g>
<!-- Node4 -->
<g id="node4" class="node">
<title>Node4</title>
<g id="a_node4"><a xlink:href="_s_l_g_l_oculus_8cpp.html" target="_top" xlink:title=" ">
<polygon fill="white" stroke="black" points="0,-112.5 0,-131.5 91,-131.5 91,-112.5 0,-112.5"/>
<text text-anchor="middle" x="45.5" y="-119.5" font-family="Arial" font-size="10.00">SLGLOculus.cpp</text>
</a>
</g>
</g>
<!-- Node2&#45;&gt;Node4 -->
<g id="edge4" class="edge">
<title>Node2&#45;&gt;Node4</title>
<path fill="none" stroke="midnightblue" d="M1034.47,-288.16C832.87,-284.28 87.68,-264.78 19.5,-188 4.65,-171.28 24.58,-145.01 36.96,-131.56"/>
<polygon fill="midnightblue" stroke="midnightblue" points="1034.42,-291.66 1044.48,-288.35 1034.55,-284.66 1034.42,-291.66"/>
</g>
<!-- Node5 -->
<g id="node5" class="node">
<title>Node5</title>
<g id="a_node5"><a xlink:href="_s_l_scene_8h.html" target="_top" xlink:title=" ">
<polygon fill="white" stroke="black" points="1082,-224.5 1082,-243.5 1147,-243.5 1147,-224.5 1082,-224.5"/>
<text text-anchor="middle" x="1114.5" y="-231.5" font-family="Arial" font-size="10.00">SLScene.h</text>
</a>
</g>
</g>
<!-- Node2&#45;&gt;Node5 -->
<g id="edge5" class="edge">
<title>Node2&#45;&gt;Node5</title>
<path fill="none" stroke="midnightblue" d="M1094.35,-271.27C1099.47,-262.05 1105.52,-251.17 1109.64,-243.75"/>
<polygon fill="midnightblue" stroke="midnightblue" points="1091.25,-269.64 1089.45,-280.08 1097.37,-273.04 1091.25,-269.64"/>
</g>
<!-- Node3&#45;&gt;Node4 -->
<g id="edge3" class="edge">
<title>Node3&#45;&gt;Node4</title>
<path fill="none" stroke="midnightblue" d="M75.77,-160.14C68.1,-150.74 58.87,-139.4 52.63,-131.75"/>
<polygon fill="midnightblue" stroke="midnightblue" points="73.2,-162.54 82.23,-168.08 78.63,-158.12 73.2,-162.54"/>
</g>
<!-- Node5&#45;&gt;Node3 -->
<g id="edge17" class="edge">
<title>Node5&#45;&gt;Node3</title>
<path fill="none" stroke="midnightblue" d="M1071.35,-232.06C936.92,-228.91 513.74,-217.19 164.5,-188 160.06,-187.63 155.47,-187.2 150.86,-186.73"/>
<polygon fill="midnightblue" stroke="midnightblue" points="1071.55,-235.57 1081.63,-232.3 1071.71,-228.57 1071.55,-235.57"/>
</g>
<!-- Node6 -->
<g id="node6" class="node">
<title>Node6</title>
<g id="a_node6"><a xlink:href="_app_demo_gui_8cpp.html" target="_top" xlink:title=" ">
<polygon fill="white" stroke="black" points="356.5,-0.5 356.5,-19.5 450.5,-19.5 450.5,-0.5 356.5,-0.5"/>
<text text-anchor="middle" x="403.5" y="-7.5" font-family="Arial" font-size="10.00">AppDemoGui.cpp</text>
</a>
</g>
</g>
<!-- Node5&#45;&gt;Node6 -->
<g id="edge6" class="edge">
<title>Node5&#45;&gt;Node6</title>
<path fill="none" stroke="midnightblue" d="M1071.66,-232.32C904.39,-229.45 303.13,-217.15 275.5,-188 220.06,-129.51 344.86,-46.16 388.87,-19.53"/>
<polygon fill="midnightblue" stroke="midnightblue" points="1071.75,-235.82 1081.81,-232.49 1071.87,-228.82 1071.75,-235.82"/>
</g>
<!-- Node7 -->
<g id="node7" class="node">
<title>Node7</title>
<g id="a_node7"><a xlink:href="_app_demo_load_8cpp.html" target="_top" xlink:title=" ">
<polygon fill="white" stroke="black" points="468.5,-0.5 468.5,-19.5 568.5,-19.5 568.5,-0.5 468.5,-0.5"/>
<text text-anchor="middle" x="518.5" y="-7.5" font-family="Arial" font-size="10.00">AppDemoLoad.cpp</text>
</a>
</g>
</g>
<!-- Node5&#45;&gt;Node7 -->
<g id="edge7" class="edge">
<title>Node5&#45;&gt;Node7</title>
<path fill="none" stroke="midnightblue" d="M1071.68,-232.27C906.5,-229.26 318.55,-216.56 291.5,-188 220.21,-112.7 413.62,-43.18 489.47,-19.54"/>
<polygon fill="midnightblue" stroke="midnightblue" points="1071.88,-235.78 1081.94,-232.46 1072,-228.78 1071.88,-235.78"/>
</g>
<!-- Node8 -->
<g id="node8" class="node">
<title>Node8</title>
<g id="a_node8"><a xlink:href="_app_demo_main_g_l_f_w_8cpp.html" target="_top" xlink:title=" ">
<polygon fill="white" stroke="black" points="1116.5,-0.5 1116.5,-19.5 1244.5,-19.5 1244.5,-0.5 1116.5,-0.5"/>
<text text-anchor="middle" x="1180.5" y="-7.5" font-family="Arial" font-size="10.00">AppDemoMainGLFW.cpp</text>
</a>
</g>
</g>
<!-- Node5&#45;&gt;Node8 -->
<g id="edge8" class="edge">
<title>Node5&#45;&gt;Node8</title>
<path fill="none" stroke="midnightblue" d="M1157.34,-233.03C1277.03,-232.4 1602.73,-225.45 1547.5,-168 1477.22,-94.89 705.78,-205.11 635.5,-132 566.61,-60.34 958.03,-25.83 1116.32,-14.95"/>
<polygon fill="midnightblue" stroke="midnightblue" points="1157.06,-229.53 1147.08,-233.07 1157.09,-236.53 1157.06,-229.53"/>
</g>
<!-- Node9 -->
<g id="node9" class="node">
<title>Node9</title>
<g id="a_node9"><a xlink:href="_app_demo_video_8cpp.html" target="_top" xlink:title=" ">
<polygon fill="white" stroke="black" points="1736.5,-56.5 1736.5,-75.5 1840.5,-75.5 1840.5,-56.5 1736.5,-56.5"/>
<text text-anchor="middle" x="1788.5" y="-63.5" font-family="Arial" font-size="10.00">AppDemoVideo.cpp</text>
</a>
</g>
</g>
<!-- Node5&#45;&gt;Node9 -->
<g id="edge9" class="edge">
<title>Node5&#45;&gt;Node9</title>
<path fill="none" stroke="midnightblue" d="M1157.27,-233.44C1283.43,-234.05 1641.54,-230.39 1581.5,-168 1509.18,-92.85 715.82,-207.15 643.5,-132 637.34,-125.6 637.34,-118.41 643.5,-112 681.83,-72.14 1517.54,-67.57 1736.41,-67.06"/>
<polygon fill="midnightblue" stroke="midnightblue" points="1157.22,-229.94 1147.2,-233.38 1157.18,-236.94 1157.22,-229.94"/>
</g>
<!-- Node10 -->
<g id="node10" class="node">
<title>Node10</title>
<g id="a_node10"><a xlink:href="_s_l_a_a_b_box_8cpp.html" target="_top" xlink:title=" ">
<polygon fill="white" stroke="black" points="321,-168.5 321,-187.5 406,-187.5 406,-168.5 321,-168.5"/>
<text text-anchor="middle" x="363.5" y="-175.5" font-family="Arial" font-size="10.00">SLAABBox.cpp</text>
</a>
</g>
</g>
<!-- Node5&#45;&gt;Node10 -->
<g id="edge10" class="edge">
<title>Node5&#45;&gt;Node10</title>
<path fill="none" stroke="midnightblue" d="M1071.62,-231.89C961.92,-228.7 662.28,-217.73 414.5,-188 411.73,-187.67 408.89,-187.28 406.02,-186.87"/>
<polygon fill="midnightblue" stroke="midnightblue" points="1071.84,-235.4 1081.94,-232.19 1072.04,-228.4 1071.84,-235.4"/>
</g>
<!-- Node11 -->
<g id="node11" class="node">
<title>Node11</title>
<g id="a_node11"><a xlink:href="_s_l_anim_manager_8cpp.html" target="_top" xlink:title=" ">
<polygon fill="white" stroke="black" points="424,-168.5 424,-187.5 531,-187.5 531,-168.5 424,-168.5"/>
<text text-anchor="middle" x="477.5" y="-175.5" font-family="Arial" font-size="10.00">SLAnimManager.cpp</text>
</a>
</g>
</g>
<!-- Node5&#45;&gt;Node11 -->
<g id="edge11" class="edge">
<title>Node5&#45;&gt;Node11</title>
<path fill="none" stroke="midnightblue" d="M1071.53,-230.61C975.81,-225.07 737.81,-210.13 539.5,-188 536.8,-187.7 534.03,-187.37 531.24,-187.02"/>
<polygon fill="midnightblue" stroke="midnightblue" points="1071.5,-234.11 1081.69,-231.19 1071.91,-227.13 1071.5,-234.11"/>
</g>
<!-- Node12 -->
<g id="node12" class="node">
<title>Node12</title>
<g id="a_node12"><a xlink:href="_s_l_anim_skeleton_8cpp.html" target="_top" xlink:title=" ">
<polygon fill="white" stroke="black" points="652.5,-112.5 652.5,-131.5 760.5,-131.5 760.5,-112.5 652.5,-112.5"/>
<text text-anchor="middle" x="706.5" y="-119.5" font-family="Arial" font-size="10.00">SLAnimSkeleton.cpp</text>
</a>
</g>
</g>
<!-- Node5&#45;&gt;Node12 -->
<g id="edge12" class="edge">
<title>Node5&#45;&gt;Node12</title>
<path fill="none" stroke="midnightblue" d="M1071.6,-232.24C907.47,-229.15 327.21,-216.23 300.5,-188 251.07,-135.76 530.99,-125.49 652.41,-123.48"/>
<polygon fill="midnightblue" stroke="midnightblue" points="1071.74,-235.75 1081.8,-232.43 1071.87,-228.75 1071.74,-235.75"/>
</g>
<!-- Node13 -->
<g id="node13" class="node">
<title>Node13</title>
<g id="a_node13"><a xlink:href="_s_l_animation_8cpp.html" target="_top" xlink:title=" ">
<polygon fill="white" stroke="black" points="549,-168.5 549,-187.5 640,-187.5 640,-168.5 549,-168.5"/>
<text text-anchor="middle" x="594.5" y="-175.5" font-family="Arial" font-size="10.00">SLAnimation.cpp</text>
</a>
</g>
</g>
<!-- Node5&#45;&gt;Node13 -->
<g id="edge13" class="edge">
<title>Node5&#45;&gt;Node13</title>
<path fill="none" stroke="midnightblue" d="M1071.73,-229.86C989.53,-223.61 803.87,-208.42 648.5,-188 645.77,-187.64 642.96,-187.25 640.13,-186.83"/>
<polygon fill="midnightblue" stroke="midnightblue" points="1071.69,-233.37 1081.93,-230.63 1072.22,-226.39 1071.69,-233.37"/>
</g>
<!-- Node14 -->
<g id="node14" class="node">
<title>Node14</title>
<g id="a_node14"><a xlink:href="_s_l_background_8cpp.html" target="_top" xlink:title=" ">
<polygon fill="white" stroke="black" points="658,-168.5 658,-187.5 757,-187.5 757,-168.5 658,-168.5"/>
<text text-anchor="middle" x="707.5" y="-175.5" font-family="Arial" font-size="10.00">SLBackground.cpp</text>
</a>
</g>
</g>
<!-- Node5&#45;&gt;Node14 -->
<g id="edge14" class="edge">
<title>Node5&#45;&gt;Node14</title>
<path fill="none" stroke="midnightblue" d="M1071.74,-227.85C1005.89,-219.83 875.73,-203.66 765.5,-188 762.78,-187.61 759.98,-187.21 757.16,-186.79"/>
<polygon fill="midnightblue" stroke="midnightblue" points="1071.39,-231.33 1081.74,-229.06 1072.24,-224.38 1071.39,-231.33"/>
</g>
<!-- Node15 -->
<g id="node15" class="node">
<title>Node15</title>
<g id="a_node15"><a xlink:href="_s_l_curve_bezier_8cpp.html" target="_top" xlink:title=" ">
<polygon fill="white" stroke="black" points="775,-168.5 775,-187.5 876,-187.5 876,-168.5 775,-168.5"/>
<text text-anchor="middle" x="825.5" y="-175.5" font-family="Arial" font-size="10.00">SLCurveBezier.cpp</text>
</a>
</g>
</g>
<!-- Node5&#45;&gt;Node15 -->
<g id="edge15" class="edge">
<title>Node5&#45;&gt;Node15</title>
<path fill="none" stroke="midnightblue" d="M1072.02,-225.06C1018.28,-215.02 926.13,-197.8 871,-187.5"/>
<polygon fill="midnightblue" stroke="midnightblue" points="1071.44,-228.51 1081.91,-226.91 1072.72,-221.63 1071.44,-228.51"/>
</g>
<!-- Node16 -->
<g id="node16" class="node">
<title>Node16</title>
<g id="a_node16"><a xlink:href="_s_l_g_l_im_gui_8cpp.html" target="_top" xlink:title=" ">
<polygon fill="white" stroke="black" points="778.5,-112.5 778.5,-131.5 864.5,-131.5 864.5,-112.5 778.5,-112.5"/>
<text text-anchor="middle" x="821.5" y="-119.5" font-family="Arial" font-size="10.00">SLGLImGui.cpp</text>
</a>
</g>
</g>
<!-- Node5&#45;&gt;Node16 -->
<g id="edge16" class="edge">
<title>Node5&#45;&gt;Node16</title>
<path fill="none" stroke="midnightblue" d="M1071.64,-232.21C909,-229.01 337.81,-215.83 311.5,-188 241.05,-113.5 667.76,-144.77 769.5,-132 772.41,-131.63 775.4,-131.22 778.42,-130.77"/>
<polygon fill="midnightblue" stroke="midnightblue" points="1071.68,-235.71 1081.75,-232.41 1071.82,-228.71 1071.68,-235.71"/>
</g>
<!-- Node17 -->
<g id="node17" class="node">
<title>Node17</title>
<g id="a_node17"><a xlink:href="_s_l_g_l_oculus_f_b_8cpp.html" target="_top" xlink:title=" ">
<polygon fill="white" stroke="black" points="1889.5,-168.5 1889.5,-187.5 1993.5,-187.5 1993.5,-168.5 1889.5,-168.5"/>
<text text-anchor="middle" x="1941.5" y="-175.5" font-family="Arial" font-size="10.00">SLGLOculusFB.cpp</text>
</a>
</g>
</g>
<!-- Node5&#45;&gt;Node17 -->
<g id="edge18" class="edge">
<title>Node5&#45;&gt;Node17</title>
<path fill="none" stroke="midnightblue" d="M1157.44,-231.61C1273.44,-227.61 1602.79,-214.62 1875.5,-188 1879.99,-187.56 1884.64,-187.05 1889.3,-186.49"/>
<polygon fill="midnightblue" stroke="midnightblue" points="1157.08,-228.12 1147.21,-231.96 1157.32,-235.12 1157.08,-228.12"/>
</g>
<!-- Node18 -->
<g id="node18" class="node">
<title>Node18</title>
<g id="a_node18"><a xlink:href="_s_l_g_l_program_8cpp.html" target="_top" xlink:title=" ">
<polygon fill="white" stroke="black" points="894,-168.5 894,-187.5 991,-187.5 991,-168.5 894,-168.5"/>
<text text-anchor="middle" x="942.5" y="-175.5" font-family="Arial" font-size="10.00">SLGLProgram.cpp</text>
</a>
</g>
</g>
<!-- Node5&#45;&gt;Node18 -->
<g id="edge19" class="edge">
<title>Node5&#45;&gt;Node18</title>
<path fill="none" stroke="midnightblue" d="M1077.67,-221.44C1045.24,-211.26 998.76,-196.66 969.63,-187.52"/>
<polygon fill="midnightblue" stroke="midnightblue" points="1076.66,-224.79 1087.25,-224.44 1078.75,-218.11 1076.66,-224.79"/>
</g>
<!-- Node19 -->
<g id="node19" class="node">
<title>Node19</title>
<g id="a_node19"><a xlink:href="_s_l_g_l_texture_8cpp.html" target="_top" xlink:title=" ">
<polygon fill="white" stroke="black" points="1009.5,-168.5 1009.5,-187.5 1101.5,-187.5 1101.5,-168.5 1009.5,-168.5"/>
<text text-anchor="middle" x="1055.5" y="-175.5" font-family="Arial" font-size="10.00">SLGLTexture.cpp</text>
</a>
</g>
</g>
<!-- Node5&#45;&gt;Node19 -->
<g id="edge20" class="edge">
<title>Node5&#45;&gt;Node19</title>
<path fill="none" stroke="midnightblue" d="M1097.61,-217.54C1087.09,-207.91 1073.93,-195.87 1065.15,-187.83"/>
<polygon fill="midnightblue" stroke="midnightblue" points="1095.28,-220.15 1105.02,-224.32 1100.01,-214.99 1095.28,-220.15"/>
</g>
<!-- Node20 -->
<g id="node20" class="node">
<title>Node20</title>
<g id="a_node20"><a xlink:href="_s_l_g_l_texture_i_b_l_8cpp.html" target="_top" xlink:title=" ">
<polygon fill="white" stroke="black" points="1120,-168.5 1120,-187.5 1227,-187.5 1227,-168.5 1120,-168.5"/>
<text text-anchor="middle" x="1173.5" y="-175.5" font-family="Arial" font-size="10.00">SLGLTextureIBL.cpp</text>
</a>
</g>
</g>
<!-- Node5&#45;&gt;Node20 -->
<g id="edge21" class="edge">
<title>Node5&#45;&gt;Node20</title>
<path fill="none" stroke="midnightblue" d="M1131.39,-217.54C1141.91,-207.91 1155.07,-195.87 1163.85,-187.83"/>
<polygon fill="midnightblue" stroke="midnightblue" points="1128.99,-214.99 1123.98,-224.32 1133.72,-220.15 1128.99,-214.99"/>
</g>
<!-- Node21 -->
<g id="node21" class="node">
<title>Node21</title>
<g id="a_node21"><a xlink:href="_s_l_g_l_vertex_array_8cpp.html" target="_top" xlink:title=" ">
<polygon fill="white" stroke="black" points="1245.5,-168.5 1245.5,-187.5 1355.5,-187.5 1355.5,-168.5 1245.5,-168.5"/>
<text text-anchor="middle" x="1300.5" y="-175.5" font-family="Arial" font-size="10.00">SLGLVertexArray.cpp</text>
</a>
</g>
</g>
<!-- Node5&#45;&gt;Node21 -->
<g id="edge22" class="edge">
<title>Node5&#45;&gt;Node21</title>
<path fill="none" stroke="midnightblue" d="M1153.88,-221.57C1188.97,-211.38 1239.52,-196.7 1271.17,-187.52"/>
<polygon fill="midnightblue" stroke="midnightblue" points="1152.6,-218.29 1143.97,-224.44 1154.55,-225.02 1152.6,-218.29"/>
</g>
<!-- Node22 -->
<g id="node22" class="node">
<title>Node22</title>
<g id="a_node22"><a xlink:href="_s_l_light_direct_8cpp.html" target="_top" xlink:title=" ">
<polygon fill="white" stroke="black" points="883,-112.5 883,-131.5 978,-131.5 978,-112.5 883,-112.5"/>
<text text-anchor="middle" x="930.5" y="-119.5" font-family="Arial" font-size="10.00">SLLightDirect.cpp</text>
</a>
</g>
</g>
<!-- Node5&#45;&gt;Node22 -->
<g id="edge23" class="edge">
<title>Node5&#45;&gt;Node22</title>
<path fill="none" stroke="midnightblue" d="M1157.43,-232.42C1273.78,-230.39 1588.57,-221.81 1619.5,-188 1625.5,-181.44 1625.6,-174.46 1619.5,-168 1571.12,-116.79 1056.54,-139.6 986.5,-132 983.76,-131.7 980.95,-131.36 978.11,-130.99"/>
<polygon fill="midnightblue" stroke="midnightblue" points="1157.07,-228.92 1147.13,-232.59 1157.18,-235.92 1157.07,-228.92"/>
</g>
<!-- Node23 -->
<g id="node23" class="node">
<title>Node23</title>
<g id="a_node23"><a xlink:href="_s_l_light_rect_8cpp.html" target="_top" xlink:title=" ">
<polygon fill="white" stroke="black" points="996,-112.5 996,-131.5 1085,-131.5 1085,-112.5 996,-112.5"/>
<text text-anchor="middle" x="1040.5" y="-119.5" font-family="Arial" font-size="10.00">SLLightRect.cpp</text>
</a>
</g>
</g>
<!-- Node5&#45;&gt;Node23 -->
<g id="edge24" class="edge">
<title>Node5&#45;&gt;Node23</title>
<path fill="none" stroke="midnightblue" d="M1157.32,-232.7C1279.61,-231.42 1623.84,-224.56 1657.5,-188 1663.52,-181.46 1663.58,-174.48 1657.5,-168 1614.54,-122.21 1155.87,-139.27 1093.5,-132 1090.81,-131.69 1088.05,-131.33 1085.27,-130.94"/>
<polygon fill="midnightblue" stroke="midnightblue" points="1157.17,-229.21 1147.2,-232.8 1157.24,-236.21 1157.17,-229.21"/>
</g>
<!-- Node24 -->
<g id="node24" class="node">
<title>Node24</title>
<g id="a_node24"><a xlink:href="_s_l_light_spot_8cpp.html" target="_top" xlink:title=" ">
<polygon fill="white" stroke="black" points="1103,-112.5 1103,-131.5 1192,-131.5 1192,-112.5 1103,-112.5"/>
<text text-anchor="middle" x="1147.5" y="-119.5" font-family="Arial" font-size="10.00">SLLightSpot.cpp</text>
</a>
</g>
</g>
<!-- Node5&#45;&gt;Node24 -->
<g id="edge25" class="edge">
<title>Node5&#45;&gt;Node24</title>
<path fill="none" stroke="midnightblue" d="M1157.23,-232.95C1285.26,-232.38 1659.11,-227.31 1695.5,-188 1769.79,-107.73 1315.19,-144.27 1206.5,-132 1201.87,-131.48 1197.04,-130.86 1192.23,-130.2"/>
<polygon fill="midnightblue" stroke="midnightblue" points="1157.02,-229.46 1147.03,-232.99 1157.04,-236.46 1157.02,-229.46"/>
</g>
<!-- Node25 -->
<g id="node25" class="node">
<title>Node25</title>
<g id="a_node25"><a xlink:href="_s_l_node_8cpp.html" target="_top" xlink:title=" ">
<polygon fill="white" stroke="black" points="2681,-112.5 2681,-131.5 2752,-131.5 2752,-112.5 2681,-112.5"/>
<text text-anchor="middle" x="2716.5" y="-119.5" font-family="Arial" font-size="10.00">SLNode.cpp</text>
</a>
</g>
</g>
<!-- Node5&#45;&gt;Node25 -->
<g id="edge26" class="edge">
<title>Node5&#45;&gt;Node25</title>
<path fill="none" stroke="midnightblue" d="M1157.38,-232.7C1293.17,-231.4 1712.37,-224.45 1842.5,-188 1860.88,-182.85 1862.08,-173 1880.5,-168 2050.32,-121.92 2496.84,-153.32 2671.5,-132 2674.51,-131.63 2677.61,-131.18 2680.72,-130.67"/>
<polygon fill="midnightblue" stroke="midnightblue" points="1157.33,-229.2 1147.36,-232.8 1157.39,-236.2 1157.33,-229.2"/>
</g>
<!-- Node26 -->
<g id="node26" class="node">
<title>Node26</title>
<g id="a_node26"><a xlink:href="_s_l_scene_8cpp.html" target="_top" xlink:title=" ">
<polygon fill="white" stroke="black" points="2360,-168.5 2360,-187.5 2435,-187.5 2435,-168.5 2360,-168.5"/>
<text text-anchor="middle" x="2397.5" y="-175.5" font-family="Arial" font-size="10.00">SLScene.cpp</text>
</a>
</g>
</g>
<!-- Node5&#45;&gt;Node26 -->
<g id="edge27" class="edge">
<title>Node5&#45;&gt;Node26</title>
<path fill="none" stroke="midnightblue" d="M1157.44,-231.19C1354.88,-222.88 2173.87,-188.41 2359.83,-180.59"/>
<polygon fill="midnightblue" stroke="midnightblue" points="1157.02,-227.71 1147.18,-231.62 1157.32,-234.7 1157.02,-227.71"/>
</g>
<!-- Node27 -->
<g id="node27" class="node">
<title>Node27</title>
<g id="a_node27"><a xlink:href="_s_l_scene_view_8h.html" target="_top" xlink:title=" ">
<polygon fill="white" stroke="black" points="1747.5,-168.5 1747.5,-187.5 1833.5,-187.5 1833.5,-168.5 1747.5,-168.5"/>
<text text-anchor="middle" x="1790.5" y="-175.5" font-family="Arial" font-size="10.00">SLSceneView.h</text>
</a>
</g>
</g>
<!-- Node5&#45;&gt;Node27 -->
<g id="edge28" class="edge">
<title>Node5&#45;&gt;Node27</title>
<path fill="none" stroke="midnightblue" d="M1157.22,-231.13C1257.87,-226.46 1517.69,-212.84 1733.5,-188 1737.98,-187.48 1742.64,-186.87 1747.29,-186.21"/>
<polygon fill="midnightblue" stroke="midnightblue" points="1156.97,-227.64 1147.14,-231.6 1157.29,-234.63 1156.97,-227.64"/>
</g>
<!-- Node47 -->
<g id="node46" class="node">
<title>Node47</title>
<g id="a_node46"><a xlink:href="_s_l_tex_font_8cpp.html" target="_top" xlink:title=" ">
<polygon fill="white" stroke="black" points="1373.5,-168.5 1373.5,-187.5 1455.5,-187.5 1455.5,-168.5 1373.5,-168.5"/>
<text text-anchor="middle" x="1414.5" y="-175.5" font-family="Arial" font-size="10.00">SLTexFont.cpp</text>
</a>
</g>
</g>
<!-- Node5&#45;&gt;Node47 -->
<g id="edge62" class="edge">
<title>Node5&#45;&gt;Node47</title>
<path fill="none" stroke="midnightblue" d="M1157.04,-225.34C1214.55,-214.99 1316.43,-196.65 1373.27,-186.42"/>
<polygon fill="midnightblue" stroke="midnightblue" points="1156.4,-221.9 1147.18,-227.12 1157.64,-228.79 1156.4,-221.9"/>
</g>
<!-- Node48 -->
<g id="node47" class="node">
<title>Node48</title>
<g id="a_node47"><a xlink:href="_s_l_text_8cpp.html" target="_top" xlink:title=" ">
<polygon fill="white" stroke="black" points="1474,-168.5 1474,-187.5 1539,-187.5 1539,-168.5 1474,-168.5"/>
<text text-anchor="middle" x="1506.5" y="-175.5" font-family="Arial" font-size="10.00">SLText.cpp</text>
</a>
</g>
</g>
<!-- Node5&#45;&gt;Node48 -->
<g id="edge63" class="edge">
<title>Node5&#45;&gt;Node48</title>
<path fill="none" stroke="midnightblue" d="M1157.51,-228.64C1223.7,-221.66 1354.45,-206.83 1464.5,-188 1467.59,-187.47 1470.79,-186.87 1473.99,-186.25"/>
<polygon fill="midnightblue" stroke="midnightblue" points="1157.03,-225.17 1147.45,-229.69 1157.76,-232.13 1157.03,-225.17"/>
</g>
<!-- Node27&#45;&gt;Node6 -->
<g id="edge29" class="edge">
<title>Node27&#45;&gt;Node6</title>
<path fill="none" stroke="midnightblue" d="M1736.97,-170.37C1729.43,-169.52 1721.77,-168.71 1714.5,-168 1503.77,-147.55 1443.28,-189.44 1239.5,-132 1220.75,-126.72 1219.32,-117.03 1200.5,-112 1042.53,-69.74 614.21,-144.02 465.5,-76 438.84,-63.81 417.9,-34.47 408.66,-19.74"/>
<polygon fill="midnightblue" stroke="midnightblue" points="1736.79,-173.88 1747.13,-171.54 1737.59,-166.92 1736.79,-173.88"/>
</g>
<!-- Node27&#45;&gt;Node7 -->
<g id="edge30" class="edge">
<title>Node27&#45;&gt;Node7</title>
<path fill="none" stroke="midnightblue" d="M1767.57,-163.21C1740.76,-147.83 1694.57,-123.6 1651.5,-112 1442.35,-55.65 759.65,-21.71 568.59,-13.15"/>
<polygon fill="midnightblue" stroke="midnightblue" points="1766.12,-166.42 1776.52,-168.44 1769.65,-160.37 1766.12,-166.42"/>
</g>
<!-- Node27&#45;&gt;Node8 -->
<g id="edge31" class="edge">
<title>Node27&#45;&gt;Node8</title>
<path fill="none" stroke="midnightblue" d="M1778.14,-160C1755.69,-129.63 1708.3,-68.1 1684.5,-56 1609.22,-17.74 1362.77,-11.57 1244.69,-10.86"/>
<polygon fill="midnightblue" stroke="midnightblue" points="1775.52,-162.34 1784.26,-168.34 1781.17,-158.2 1775.52,-162.34"/>
</g>
<!-- Node27&#45;&gt;Node9 -->
<g id="edge36" class="edge">
<title>Node27&#45;&gt;Node9</title>
<path fill="none" stroke="midnightblue" d="M1778.26,-159.83C1773.25,-151.79 1768.05,-141.82 1765.5,-132 1760.16,-111.37 1773.36,-88.01 1781.91,-75.68"/>
<polygon fill="midnightblue" stroke="midnightblue" points="1775.42,-161.89 1783.87,-168.27 1781.25,-158.01 1775.42,-161.89"/>
</g>
<!-- Node27&#45;&gt;Node12 -->
<g id="edge37" class="edge">
<title>Node27&#45;&gt;Node12</title>
<path fill="none" stroke="midnightblue" d="M1737.18,-174.05C1703.45,-172.22 1658.92,-169.87 1619.5,-168 1241.81,-150.06 1146.01,-166.78 769.5,-132 766.64,-131.74 763.71,-131.43 760.76,-131.1"/>
<polygon fill="midnightblue" stroke="midnightblue" points="1737.11,-177.55 1747.28,-174.6 1737.49,-170.56 1737.11,-177.55"/>
</g>
<!-- Node27&#45;&gt;Node16 -->
<g id="edge40" class="edge">
<title>Node27&#45;&gt;Node16</title>
<path fill="none" stroke="midnightblue" d="M1737.18,-174.13C1703.44,-172.34 1658.92,-169.99 1619.5,-168 1287.98,-151.28 1203.44,-168.37 873.5,-132 870.59,-131.68 867.59,-131.3 864.57,-130.88"/>
<polygon fill="midnightblue" stroke="midnightblue" points="1737.11,-177.63 1747.28,-174.67 1737.48,-170.64 1737.11,-177.63"/>
</g>
<!-- Node27&#45;&gt;Node22 -->
<g id="edge43" class="edge">
<title>Node27&#45;&gt;Node22</title>
<path fill="none" stroke="midnightblue" d="M1737.28,-173.23C1712.96,-171.55 1683.78,-169.59 1657.5,-168 1359.4,-149.92 1283.46,-163.74 986.5,-132 983.76,-131.71 980.95,-131.37 978.11,-131"/>
<polygon fill="midnightblue" stroke="midnightblue" points="1737.16,-176.73 1747.38,-173.93 1737.65,-169.75 1737.16,-176.73"/>
</g>
<!-- Node27&#45;&gt;Node23 -->
<g id="edge44" class="edge">
<title>Node27&#45;&gt;Node23</title>
<path fill="none" stroke="midnightblue" d="M1737.31,-171.63C1723.69,-170.35 1709.06,-169.05 1695.5,-168 1428.26,-147.36 1359.79,-162.48 1093.5,-132 1090.81,-131.69 1088.05,-131.34 1085.27,-130.95"/>
<polygon fill="midnightblue" stroke="midnightblue" points="1737.2,-175.14 1747.49,-172.61 1737.87,-168.17 1737.2,-175.14"/>
</g>
<!-- Node27&#45;&gt;Node24 -->
<g id="edge45" class="edge">
<title>Node27&#45;&gt;Node24</title>
<path fill="none" stroke="midnightblue" d="M1737.32,-168.45C1736.03,-168.29 1734.76,-168.14 1733.5,-168 1500.21,-141.67 1439.85,-157.72 1206.5,-132 1201.87,-131.49 1197.04,-130.88 1192.23,-130.22"/>
<polygon fill="midnightblue" stroke="midnightblue" points="1736.92,-171.93 1747.29,-169.77 1737.84,-164.99 1736.92,-171.93"/>
</g>
<!-- Node27&#45;&gt;Node25 -->
<g id="edge48" class="edge">
<title>Node27&#45;&gt;Node25</title>
<path fill="none" stroke="midnightblue" d="M1843.68,-168.41C1844.96,-168.26 1846.24,-168.13 1847.5,-168 2212.24,-131.36 2307.59,-176.08 2671.5,-132 2674.51,-131.64 2677.61,-131.18 2680.72,-130.67"/>
<polygon fill="midnightblue" stroke="midnightblue" points="1843.18,-164.94 1833.69,-169.65 1844.05,-171.89 1843.18,-164.94"/>
</g>
<!-- Node28 -->
<g id="node28" class="node">
<title>Node28</title>
<g id="a_node28"><a xlink:href="_app_demo_scene_view_8h.html" target="_top" xlink:title=" ">
<polygon fill="white" stroke="black" points="1775,-112.5 1775,-131.5 1892,-131.5 1892,-112.5 1775,-112.5"/>
<text text-anchor="middle" x="1833.5" y="-119.5" font-family="Arial" font-size="10.00">AppDemoSceneView.h</text>
</a>
</g>
</g>
<!-- Node27&#45;&gt;Node28 -->
<g id="edge32" class="edge">
<title>Node27&#45;&gt;Node28</title>
<path fill="none" stroke="midnightblue" d="M1803.92,-160.14C1811.41,-150.74 1820.44,-139.4 1826.53,-131.75"/>
<polygon fill="midnightblue" stroke="midnightblue" points="1801.09,-158.08 1797.6,-168.08 1806.57,-162.44 1801.09,-158.08"/>
</g>
<!-- Node30 -->
<g id="node30" class="node">
<title>Node30</title>
<g id="a_node30"><a xlink:href="_s_l_anim_track_8cpp.html" target="_top" xlink:title=" ">
<polygon fill="white" stroke="black" points="1910,-112.5 1910,-131.5 2005,-131.5 2005,-112.5 1910,-112.5"/>
<text text-anchor="middle" x="1957.5" y="-119.5" font-family="Arial" font-size="10.00">SLAnimTrack.cpp</text>
</a>
</g>
</g>
<!-- Node27&#45;&gt;Node30 -->
<g id="edge38" class="edge">
<title>Node27&#45;&gt;Node30</title>
<path fill="none" stroke="midnightblue" d="M1826.67,-165.3C1858.14,-155.13 1902.99,-140.62 1931.16,-131.52"/>
<polygon fill="midnightblue" stroke="midnightblue" points="1825.4,-162.04 1816.96,-168.44 1827.55,-168.7 1825.4,-162.04"/>
</g>
<!-- Node31 -->
<g id="node31" class="node">
<title>Node31</title>
<g id="a_node31"><a xlink:href="_s_l_camera_8cpp.html" target="_top" xlink:title=" ">
<polygon fill="white" stroke="black" points="2023.5,-112.5 2023.5,-131.5 2105.5,-131.5 2105.5,-112.5 2023.5,-112.5"/>
<text text-anchor="middle" x="2064.5" y="-119.5" font-family="Arial" font-size="10.00">SLCamera.cpp</text>
</a>
</g>
</g>
<!-- Node27&#45;&gt;Node31 -->
<g id="edge39" class="edge">
<title>Node27&#45;&gt;Node31</title>
<path fill="none" stroke="midnightblue" d="M1843.75,-166.5C1896.31,-156.15 1975.56,-140.53 2023.43,-131.09"/>
<polygon fill="midnightblue" stroke="midnightblue" points="1842.75,-163.14 1833.61,-168.5 1844.1,-170 1842.75,-163.14"/>
</g>
<!-- Node32 -->
<g id="node32" class="node">
<title>Node32</title>
<g id="a_node32"><a xlink:href="_s_l_input_manager_8cpp.html" target="_top" xlink:title=" ">
<polygon fill="white" stroke="black" points="2124,-112.5 2124,-131.5 2231,-131.5 2231,-112.5 2124,-112.5"/>
<text text-anchor="middle" x="2177.5" y="-119.5" font-family="Arial" font-size="10.00">SLInputManager.cpp</text>
</a>
</g>
</g>
<!-- Node27&#45;&gt;Node32 -->
<g id="edge41" class="edge">
<title>Node27&#45;&gt;Node32</title>
<path fill="none" stroke="midnightblue" d="M1843.69,-168.56C1844.98,-168.37 1846.25,-168.18 1847.5,-168 1965.98,-150.66 1995.9,-148.47 2114.5,-132 2117.56,-131.57 2120.71,-131.13 2123.89,-130.69"/>
<polygon fill="midnightblue" stroke="midnightblue" points="1843.11,-165.11 1833.74,-170.07 1844.16,-172.03 1843.11,-165.11"/>
</g>
<!-- Node33 -->
<g id="node33" class="node">
<title>Node33</title>
<g id="a_node33"><a xlink:href="_s_l_keyframe_camera_8cpp.html" target="_top" xlink:title=" ">
<polygon fill="white" stroke="black" points="2770.5,-112.5 2770.5,-131.5 2894.5,-131.5 2894.5,-112.5 2770.5,-112.5"/>
<text text-anchor="middle" x="2832.5" y="-119.5" font-family="Arial" font-size="10.00">SLKeyframeCamera.cpp</text>
</a>
</g>
</g>
<!-- Node27&#45;&gt;Node33 -->
<g id="edge42" class="edge">
<title>Node27&#45;&gt;Node33</title>
<path fill="none" stroke="midnightblue" d="M1844.22,-171.11C1856.15,-169.94 1868.75,-168.83 1880.5,-168 2271.42,-140.49 2370.98,-164.67 2761.5,-132 2764.35,-131.76 2767.26,-131.49 2770.19,-131.2"/>
<polygon fill="midnightblue" stroke="midnightblue" points="1843.55,-167.66 1833.94,-172.13 1844.24,-174.62 1843.55,-167.66"/>
</g>
<!-- Node34 -->
<g id="node34" class="node">
<title>Node34</title>
<g id="a_node34"><a xlink:href="_s_l_material_8cpp.html" target="_top" xlink:title=" ">
<polygon fill="white" stroke="black" points="2249.5,-112.5 2249.5,-131.5 2331.5,-131.5 2331.5,-112.5 2249.5,-112.5"/>
<text text-anchor="middle" x="2290.5" y="-119.5" font-family="Arial" font-size="10.00">SLMaterial.cpp</text>
</a>
</g>
</g>
<!-- Node27&#45;&gt;Node34 -->
<g id="edge46" class="edge">
<title>Node27&#45;&gt;Node34</title>
<path fill="none" stroke="midnightblue" d="M1843.69,-168.49C1844.97,-168.32 1846.24,-168.16 1847.5,-168 2021.55,-146.31 2066.69,-155.56 2240.5,-132 2243.38,-131.61 2246.36,-131.17 2249.34,-130.7"/>
<polygon fill="midnightblue" stroke="midnightblue" points="1843.14,-165.03 1833.72,-169.87 1844.1,-171.96 1843.14,-165.03"/>
</g>
<!-- Node35 -->
<g id="node35" class="node">
<title>Node35</title>
<g id="a_node35"><a xlink:href="_s_l_mesh_8cpp.html" target="_top" xlink:title=" ">
<polygon fill="white" stroke="black" points="2350,-112.5 2350,-131.5 2421,-131.5 2421,-112.5 2350,-112.5"/>
<text text-anchor="middle" x="2385.5" y="-119.5" font-family="Arial" font-size="10.00">SLMesh.cpp</text>
</a>
</g>
</g>
<!-- Node27&#45;&gt;Node35 -->
<g id="edge47" class="edge">
<title>Node27&#45;&gt;Node35</title>
<path fill="none" stroke="midnightblue" d="M1843.68,-168.46C1844.97,-168.3 1846.24,-168.15 1847.5,-168 2065.75,-142.85 2122.81,-161.6 2340.5,-132 2343.5,-131.59 2346.6,-131.11 2349.71,-130.58"/>
<polygon fill="midnightblue" stroke="midnightblue" points="1843.16,-165 1833.71,-169.79 1844.08,-171.93 1843.16,-165"/>
</g>
<!-- Node36 -->
<g id="node36" class="node">
<title>Node36</title>
<g id="a_node36"><a xlink:href="_s_l_node_l_o_d_8cpp.html" target="_top" xlink:title=" ">
<polygon fill="white" stroke="black" points="2439,-112.5 2439,-131.5 2530,-131.5 2530,-112.5 2439,-112.5"/>
<text text-anchor="middle" x="2484.5" y="-119.5" font-family="Arial" font-size="10.00">SLNodeLOD.cpp</text>
</a>
</g>
</g>
<!-- Node27&#45;&gt;Node36 -->
<g id="edge49" class="edge">
<title>Node27&#45;&gt;Node36</title>
<path fill="none" stroke="midnightblue" d="M1843.68,-168.44C1844.96,-168.28 1846.24,-168.14 1847.5,-168 2105.56,-139.72 2172.56,-161.38 2430.5,-132 2433.24,-131.69 2436.05,-131.33 2438.88,-130.94"/>
<polygon fill="midnightblue" stroke="midnightblue" points="1843.17,-164.98 1833.7,-169.74 1844.07,-171.92 1843.17,-164.98"/>
</g>
<!-- Node37 -->
<g id="node37" class="node">
<title>Node37</title>
<g id="a_node37"><a xlink:href="_s_l_particle_system_8cpp.html" target="_top" xlink:title=" ">
<polygon fill="white" stroke="black" points="2548.5,-112.5 2548.5,-131.5 2662.5,-131.5 2662.5,-112.5 2548.5,-112.5"/>
<text text-anchor="middle" x="2605.5" y="-119.5" font-family="Arial" font-size="10.00">SLParticleSystem.cpp</text>
</a>
</g>
</g>
<!-- Node27&#45;&gt;Node37 -->
<g id="edge50" class="edge">
<title>Node27&#45;&gt;Node37</title>
<path fill="none" stroke="midnightblue" d="M1843.68,-168.42C1844.96,-168.27 1846.24,-168.13 1847.5,-168 2153.8,-135.94 2232.88,-160.83 2539.5,-132 2542.38,-131.73 2545.32,-131.43 2548.3,-131.1"/>
<polygon fill="midnightblue" stroke="midnightblue" points="1843.17,-164.96 1833.7,-169.69 1844.06,-171.9 1843.17,-164.96"/>
</g>
<!-- Node27&#45;&gt;Node38 -->
<g id="edge51" class="edge">
<title>Node27&#45;&gt;Node38</title>
<path fill="none" stroke="midnightblue" d="M1844.22,-171.06C1856.15,-169.9 1868.75,-168.79 1880.5,-168 2334.41,-137.35 2450.77,-176.82 2903.5,-132 2906.39,-131.71 2909.36,-131.37 2912.34,-130.99"/>
<polygon fill="midnightblue" stroke="midnightblue" points="1843.54,-167.61 1833.94,-172.08 1844.24,-174.57 1843.54,-167.61"/>
</g>
<!-- Node39 -->
<g id="node39" class="node">
<title>Node39</title>
<g id="a_node39"><a xlink:href="_s_l_ray_8cpp.html" target="_top" xlink:title=" ">
<polygon fill="white" stroke="black" points="1371,-112.5 1371,-131.5 1436,-131.5 1436,-112.5 1371,-112.5"/>
<text text-anchor="middle" x="1403.5" y="-119.5" font-family="Arial" font-size="10.00">SLRay.cpp</text>
</a>
</g>
</g>
<!-- Node27&#45;&gt;Node39 -->
<g id="edge52" class="edge">
<title>Node27&#45;&gt;Node39</title>
<path fill="none" stroke="midnightblue" d="M1737.31,-168.55C1736.03,-168.36 1734.76,-168.18 1733.5,-168 1605.77,-149.94 1572.69,-153.53 1445.5,-132 1442.41,-131.48 1439.21,-130.88 1436.01,-130.26"/>
<polygon fill="midnightblue" stroke="midnightblue" points="1736.86,-172.02 1747.26,-170.02 1737.88,-165.09 1736.86,-172.02"/>
</g>
<!-- Node40 -->
<g id="node40" class="node">
<title>Node40</title>
<g id="a_node40"><a xlink:href="_s_l_raytracer_8cpp.html" target="_top" xlink:title=" ">
<polygon fill="white" stroke="black" points="1454.5,-112.5 1454.5,-131.5 1544.5,-131.5 1544.5,-112.5 1454.5,-112.5"/>
<text text-anchor="middle" x="1499.5" y="-119.5" font-family="Arial" font-size="10.00">SLRaytracer.cpp</text>
</a>
</g>
</g>
<!-- Node27&#45;&gt;Node40 -->
<g id="edge53" class="edge">
<title>Node27&#45;&gt;Node40</title>
<path fill="none" stroke="midnightblue" d="M1737.32,-167.13C1682.2,-156.9 1596.97,-141.09 1544.91,-131.43"/>
<polygon fill="midnightblue" stroke="midnightblue" points="1736.78,-170.59 1747.25,-168.97 1738.06,-163.71 1736.78,-170.59"/>
</g>
<!-- Node27&#45;&gt;Node41 -->
<g id="edge54" class="edge">
<title>Node27&#45;&gt;Node41</title>
<path fill="none" stroke="midnightblue" d="M1844.22,-171.03C1856.15,-169.87 1868.74,-168.77 1880.5,-168 2383.22,-134.92 2511.92,-179.38 3013.5,-132 3016.39,-131.73 3019.36,-131.4 3022.35,-131.04"/>
<polygon fill="midnightblue" stroke="midnightblue" points="1843.54,-167.58 1833.94,-172.05 1844.24,-174.54 1843.54,-167.58"/>
</g>
<!-- Node27&#45;&gt;Node42 -->
<g id="edge55" class="edge">
<title>Node27&#45;&gt;Node42</title>
<path fill="none" stroke="midnightblue" d="M1844.22,-171C1856.15,-169.84 1868.74,-168.76 1880.5,-168 2433.81,-132.39 2575.24,-181.21 3127.5,-132 3130.54,-131.73 3133.67,-131.4 3136.81,-131.04"/>
<polygon fill="midnightblue" stroke="midnightblue" points="1843.54,-167.55 1833.94,-172.03 1844.24,-174.52 1843.54,-167.55"/>
</g>
<!-- Node43 -->
<g id="node43" class="node">
<title>Node43</title>
<g id="a_node43"><a xlink:href="_s_l_skybox_8cpp.html" target="_top" xlink:title=" ">
<polygon fill="white" stroke="black" points="1562.5,-112.5 1562.5,-131.5 1642.5,-131.5 1642.5,-112.5 1562.5,-112.5"/>
<text text-anchor="middle" x="1602.5" y="-119.5" font-family="Arial" font-size="10.00">SLSkybox.cpp</text>
</a>
</g>
</g>
<!-- Node27&#45;&gt;Node43 -->
<g id="edge56" class="edge">
<title>Node27&#45;&gt;Node43</title>
<path fill="none" stroke="midnightblue" d="M1750.7,-165.57C1715.23,-155.38 1664.13,-140.7 1632.15,-131.52"/>
<polygon fill="midnightblue" stroke="midnightblue" points="1750.13,-169.05 1760.71,-168.44 1752.07,-162.32 1750.13,-169.05"/>
</g>
<!-- Node44 -->
<g id="node44" class="node">
<title>Node44</title>
<g id="a_node44"><a xlink:href="_s_l_transform_node_8h.html" target="_top" xlink:title=" ">
<polygon fill="white" stroke="red" points="1248.5,-112.5 1248.5,-131.5 1352.5,-131.5 1352.5,-112.5 1248.5,-112.5"/>
<text text-anchor="middle" x="1300.5" y="-119.5" font-family="Arial" font-size="10.00">SLTransformNode.h</text>
</a>
</g>
</g>
<!-- Node27&#45;&gt;Node44 -->
<g id="edge57" class="edge">
<title>Node27&#45;&gt;Node44</title>
<path fill="none" stroke="midnightblue" d="M1737.31,-168.5C1736.03,-168.33 1734.76,-168.16 1733.5,-168 1568.72,-147.04 1526.38,-152.13 1361.5,-132 1358.63,-131.65 1355.69,-131.27 1352.72,-130.88"/>
<polygon fill="midnightblue" stroke="midnightblue" points="1736.89,-171.97 1747.28,-169.9 1737.86,-165.04 1736.89,-171.97"/>
</g>
<!-- Node28&#45;&gt;Node8 -->
<g id="edge33" class="edge">
<title>Node28&#45;&gt;Node8</title>
<path fill="none" stroke="midnightblue" d="M1845.43,-103.62C1853.77,-89.11 1861.48,-68.81 1849.5,-56 1808.75,-12.42 1404.27,-9.78 1244.72,-10.46"/>
<polygon fill="midnightblue" stroke="midnightblue" points="1842.41,-101.84 1840.05,-112.17 1848.33,-105.57 1842.41,-101.84"/>
</g>
<!-- Node28&#45;&gt;Node9 -->
<g id="edge35" class="edge">
<title>Node28&#45;&gt;Node9</title>
<path fill="none" stroke="midnightblue" d="M1819.45,-104.14C1811.61,-94.74 1802.17,-83.4 1795.79,-75.75"/>
<polygon fill="midnightblue" stroke="midnightblue" points="1816.98,-106.64 1826.07,-112.08 1822.36,-102.16 1816.98,-106.64"/>
</g>
<!-- Node29 -->
<g id="node29" class="node">
<title>Node29</title>
<g id="a_node29"><a xlink:href="_app_demo_scene_view_8cpp.html" target="_top" xlink:title=" ">
<polygon fill="white" stroke="black" points="1896.5,-56.5 1896.5,-75.5 2024.5,-75.5 2024.5,-56.5 1896.5,-56.5"/>
<text text-anchor="middle" x="1960.5" y="-63.5" font-family="Arial" font-size="10.00">AppDemoSceneView.cpp</text>
</a>
</g>
</g>
<!-- Node28&#45;&gt;Node29 -->
<g id="edge34" class="edge">
<title>Node28&#45;&gt;Node29</title>
<path fill="none" stroke="midnightblue" d="M1862.89,-108.5C1886.7,-98.38 1919.61,-84.39 1940.47,-75.52"/>
<polygon fill="midnightblue" stroke="midnightblue" points="1861.46,-105.31 1853.62,-112.44 1864.2,-111.75 1861.46,-105.31"/>
</g>
<!-- Node45 -->
<g id="node45" class="node">
<title>Node45</title>
<g id="a_node45"><a xlink:href="_app_demo_gui_8h.html" target="_top" xlink:title=" ">
<polygon fill="white" stroke="black" points="475,-56.5 475,-75.5 558,-75.5 558,-56.5 475,-56.5"/>
<text text-anchor="middle" x="516.5" y="-63.5" font-family="Arial" font-size="10.00">AppDemoGui.h</text>
</a>
</g>
</g>
<!-- Node44&#45;&gt;Node45 -->
<g id="edge58" class="edge">
<title>Node44&#45;&gt;Node45</title>
<path fill="none" stroke="midnightblue" d="M1238.32,-112.39C1237.04,-112.26 1235.76,-112.13 1234.5,-112 978.16,-86.52 668.82,-72.89 558.27,-68.55"/>
<polygon fill="midnightblue" stroke="midnightblue" points="1237.97,-115.88 1248.3,-113.52 1238.76,-108.92 1237.97,-115.88"/>
</g>
<!-- Node45&#45;&gt;Node6 -->
<g id="edge59" class="edge">
<title>Node45&#45;&gt;Node6</title>
<path fill="none" stroke="midnightblue" d="M489.5,-52.1C468.39,-42.01 439.64,-28.27 421.32,-19.52"/>
<polygon fill="midnightblue" stroke="midnightblue" points="488.06,-55.29 498.59,-56.44 491.08,-48.97 488.06,-55.29"/>
</g>
<!-- Node45&#45;&gt;Node7 -->
<g id="edge60" class="edge">
<title>Node45&#45;&gt;Node7</title>
<path fill="none" stroke="midnightblue" d="M517.21,-45.8C517.54,-36.91 517.92,-26.78 518.18,-19.75"/>
<polygon fill="midnightblue" stroke="midnightblue" points="513.7,-45.96 516.83,-56.08 520.7,-46.22 513.7,-45.96"/>
</g>
<!-- Node45&#45;&gt;Node8 -->
<g id="edge61" class="edge">
<title>Node45&#45;&gt;Node8</title>
<path fill="none" stroke="midnightblue" d="M568.05,-56.55C569.55,-56.35 571.03,-56.17 572.5,-56 770.14,-32.85 1005.39,-19.43 1116.43,-13.94"/>
<polygon fill="midnightblue" stroke="midnightblue" points="567.47,-53.09 558.03,-57.92 568.42,-60.03 567.47,-53.09"/>
</g>
<!-- Node49&#45;&gt;Node17 -->
<g id="edge65" class="edge">
<title>Node49&#45;&gt;Node17</title>
<path fill="none" stroke="midnightblue" d="M1941.5,-213.8C1941.5,-204.91 1941.5,-194.78 1941.5,-187.75"/>
<polygon fill="midnightblue" stroke="midnightblue" points="1938,-214.08 1941.5,-224.08 1945,-214.08 1938,-214.08"/>
</g>
<!-- Node49&#45;&gt;Node27 -->
<g id="edge66" class="edge">
<title>Node49&#45;&gt;Node27</title>
<path fill="none" stroke="midnightblue" d="M1908.05,-221.04C1879.64,-210.88 1839.56,-196.55 1814.31,-187.52"/>
<polygon fill="midnightblue" stroke="midnightblue" points="1906.98,-224.37 1917.57,-224.44 1909.34,-217.78 1906.98,-224.37"/>
</g>
<!-- Node51&#45;&gt;Node25 -->
<g id="edge71" class="edge">
<title>Node51&#45;&gt;Node25</title>
<path fill="none" stroke="midnightblue" d="M2749,-214.67C2740.48,-190.62 2725.86,-149.39 2719.55,-131.59"/>
<polygon fill="midnightblue" stroke="midnightblue" points="2745.8,-216.11 2752.44,-224.37 2752.4,-213.77 2745.8,-216.11"/>
</g>
<!-- Node51&#45;&gt;Node26 -->
<g id="edge72" class="edge">
<title>Node51&#45;&gt;Node26</title>
<path fill="none" stroke="midnightblue" d="M2688.51,-222.9C2613.66,-211.6 2495.11,-193.72 2435.04,-184.66"/>
<polygon fill="midnightblue" stroke="midnightblue" points="2688.36,-226.41 2698.77,-224.44 2689.41,-219.49 2688.36,-226.41"/>
</g>
<!-- Node51&#45;&gt;Node33 -->
<g id="edge69" class="edge">
<title>Node51&#45;&gt;Node33</title>
<path fill="none" stroke="midnightblue" d="M2767.43,-215.96C2784.12,-192.12 2813.8,-149.71 2826.49,-131.59"/>
<polygon fill="midnightblue" stroke="midnightblue" points="2764.41,-214.17 2761.54,-224.37 2770.14,-218.18 2764.41,-214.17"/>
</g>
<!-- Node51&#45;&gt;Node51 -->
<g id="edge70" class="edge">
<title>Node51&#45;&gt;Node51</title>
<path fill="none" stroke="midnightblue" d="M2797.28,-244.39C2814.95,-245.17 2830,-241.71 2830,-234 2830,-224.87 2808.86,-221.69 2787.27,-224.47"/>
<polygon fill="midnightblue" stroke="midnightblue" points="2797.54,-240.9 2787.27,-243.53 2796.93,-247.88 2797.54,-240.9"/>
</g>
</g>
</svg>
