<?xml version="1.0" encoding="UTF-8" standalone="no"?>
<!DOCTYPE svg PUBLIC "-//W3C//DTD SVG 1.1//EN"
 "http://www.w3.org/Graphics/SVG/1.1/DTD/svg11.dtd">
<!-- Generated by graphviz version 2.44.0 (20200408.0750)
 -->
<!-- Title: SLAssetManager.h Pages: 1 -->
<svg width="806pt" height="84pt"
 viewBox="0.00 0.00 805.50 84.00" xmlns="http://www.w3.org/2000/svg" xmlns:xlink="http://www.w3.org/1999/xlink">
<g id="graph0" class="graph" transform="scale(1 1) rotate(0) translate(4 80)">
<title>SLAssetManager.h</title>
<polygon fill="white" stroke="transparent" points="-4,4 -4,-80 801.5,-80 801.5,4 -4,4"/>
<!-- Node1 -->
<g id="node1" class="node">
<title>Node1</title>
<g id="a_node1"><a xlink:title=" ">
<polygon fill="#bfbfbf" stroke="black" points="365,-56.5 365,-75.5 464,-75.5 464,-56.5 365,-56.5"/>
<text text-anchor="middle" x="414.5" y="-63.5" font-family="Arial.ttf" font-size="10.00">SLAssetManager.h</text>
</a>
</g>
</g>
<!-- Node2 -->
<g id="node2" class="node">
<title>Node2</title>
<g id="a_node2"><a xlink:href="_s_l_g_l_program_8cpp.html" target="_top" xlink:title=" ">
<polygon fill="white" stroke="black" points="0,-0.5 0,-19.5 97,-19.5 97,-0.5 0,-0.5"/>
<text text-anchor="middle" x="48.5" y="-7.5" font-family="Arial.ttf" font-size="10.00">SLGLProgram.cpp</text>
</a>
</g>
</g>
<!-- Node1&#45;&gt;Node2 -->
<g id="edge1" class="edge">
<title>Node1&#45;&gt;Node2</title>
<path fill="none" stroke="midnightblue" d="M354.87,-56.45C292.8,-47.51 192.81,-33 106.5,-20 103.48,-19.54 100.37,-19.07 97.23,-18.59"/>
<polygon fill="midnightblue" stroke="midnightblue" points="354.47,-59.93 364.87,-57.89 355.47,-53 354.47,-59.93"/>
</g>
<!-- Node3 -->
<g id="node3" class="node">
<title>Node3</title>
<g id="a_node3"><a xlink:href="_s_l_g_l_texture_8cpp.html" target="_top" xlink:title=" ">
<polygon fill="white" stroke="black" points="115.5,-0.5 115.5,-19.5 207.5,-19.5 207.5,-0.5 115.5,-0.5"/>
<text text-anchor="middle" x="161.5" y="-7.5" font-family="Arial.ttf" font-size="10.00">SLGLTexture.cpp</text>
</a>
</g>
</g>
<!-- Node1&#45;&gt;Node3 -->
<g id="edge2" class="edge">
<title>Node1&#45;&gt;Node3</title>
<path fill="none" stroke="midnightblue" d="M364.58,-54.35C316.77,-44.14 245.55,-28.94 201.4,-19.52"/>
<polygon fill="midnightblue" stroke="midnightblue" points="363.9,-57.78 374.41,-56.44 365.36,-50.93 363.9,-57.78"/>
</g>
<!-- Node4 -->
<g id="node4" class="node">
<title>Node4</title>
<g id="a_node4"><a xlink:href="_s_l_assimp_importer_8cpp.html" target="_top" xlink:title=" ">
<polygon fill="white" stroke="black" points="225.5,-0.5 225.5,-19.5 341.5,-19.5 341.5,-0.5 225.5,-0.5"/>
<text text-anchor="middle" x="283.5" y="-7.5" font-family="Arial.ttf" font-size="10.00">SLAssimpImporter.cpp</text>
</a>
</g>
</g>
<!-- Node1&#45;&gt;Node4 -->
<g id="edge3" class="edge">
<title>Node1&#45;&gt;Node4</title>
<path fill="none" stroke="midnightblue" d="M384.18,-52.5C359.62,-42.38 325.68,-28.39 304.16,-19.52"/>
<polygon fill="midnightblue" stroke="midnightblue" points="383.16,-55.87 393.74,-56.44 385.83,-49.4 383.16,-55.87"/>
</g>
<!-- Node5 -->
<g id="node5" class="node">
<title>Node5</title>
<g id="a_node5"><a xlink:href="_s_l_asset_manager_8cpp.html" target="_top" xlink:title=" ">
<polygon fill="white" stroke="black" points="359.5,-0.5 359.5,-19.5 469.5,-19.5 469.5,-0.5 359.5,-0.5"/>
<text text-anchor="middle" x="414.5" y="-7.5" font-family="Arial.ttf" font-size="10.00">SLAssetManager.cpp</text>
</a>
</g>
</g>
<!-- Node1&#45;&gt;Node5 -->
<g id="edge4" class="edge">
<title>Node1&#45;&gt;Node5</title>
<path fill="none" stroke="midnightblue" d="M414.5,-45.8C414.5,-36.91 414.5,-26.78 414.5,-19.75"/>
<polygon fill="midnightblue" stroke="midnightblue" points="411,-46.08 414.5,-56.08 418,-46.08 411,-46.08"/>
</g>
<!-- Node6 -->
<g id="node6" class="node">
<title>Node6</title>
<g id="a_node6"><a xlink:href="_s_l_material_8cpp.html" target="_top" xlink:title=" ">
<polygon fill="white" stroke="black" points="487.5,-0.5 487.5,-19.5 569.5,-19.5 569.5,-0.5 487.5,-0.5"/>
<text text-anchor="middle" x="528.5" y="-7.5" font-family="Arial.ttf" font-size="10.00">SLMaterial.cpp</text>
</a>
</g>
</g>
<!-- Node1&#45;&gt;Node6 -->
<g id="edge5" class="edge">
<title>Node1&#45;&gt;Node6</title>
<path fill="none" stroke="midnightblue" d="M441.74,-52.1C463.04,-42.01 492.04,-28.27 510.52,-19.52"/>
<polygon fill="midnightblue" stroke="midnightblue" points="440.1,-49 432.56,-56.44 443.1,-55.33 440.1,-49"/>
</g>
<!-- Node7 -->
<g id="node7" class="node">
<title>Node7</title>
<g id="a_node7"><a xlink:href="_s_l_mesh_8cpp.html" target="_top" xlink:title=" ">
<polygon fill="white" stroke="black" points="588,-0.5 588,-19.5 659,-19.5 659,-0.5 588,-0.5"/>
<text text-anchor="middle" x="623.5" y="-7.5" font-family="Arial.ttf" font-size="10.00">SLMesh.cpp</text>
</a>
</g>
</g>
<!-- Node1&#45;&gt;Node7 -->
<g id="edge6" class="edge">
<title>Node1&#45;&gt;Node7</title>
<path fill="none" stroke="midnightblue" d="M457.48,-53.89C496.95,-43.7 554.6,-28.8 590.54,-19.52"/>
<polygon fill="midnightblue" stroke="midnightblue" points="456.42,-50.55 447.62,-56.44 458.17,-57.33 456.42,-50.55"/>
</g>
<!-- Node8 -->
<g id="node8" class="node">
<title>Node8</title>
<g id="a_node8"><a xlink:href="_s_l_transfer_function_8cpp.html" target="_top" xlink:title=" ">
<polygon fill="white" stroke="black" points="677.5,-0.5 677.5,-19.5 797.5,-19.5 797.5,-0.5 677.5,-0.5"/>
<text text-anchor="middle" x="737.5" y="-7.5" font-family="Arial.ttf" font-size="10.00">SLTransferFunction.cpp</text>
</a>
</g>
</g>
<!-- Node1&#45;&gt;Node8 -->
<g id="edge7" class="edge">
<title>Node1&#45;&gt;Node8</title>
<path fill="none" stroke="midnightblue" d="M474.14,-55.03C535.16,-44.83 628.98,-29.14 686.62,-19.51"/>
<polygon fill="midnightblue" stroke="midnightblue" points="473.55,-51.58 464.26,-56.68 474.7,-58.48 473.55,-51.58"/>
</g>
</g>
</svg>
