<?xml version="1.0" encoding="UTF-8" standalone="no"?>
<!DOCTYPE svg PUBLIC "-//W3C//DTD SVG 1.1//EN"
 "http://www.w3.org/Graphics/SVG/1.1/DTD/svg11.dtd">
<!-- Generated by graphviz version 2.40.1 (20161225.0304)
 -->
<!-- Title: SLGLOculus.h Pages: 1 -->
<svg width="2402pt" height="252pt"
 viewBox="0.00 0.00 2401.50 252.00" xmlns="http://www.w3.org/2000/svg" xmlns:xlink="http://www.w3.org/1999/xlink">
<g id="graph0" class="graph" transform="scale(1 1) rotate(0) translate(4 248)">
<title>SLGLOculus.h</title>
<polygon fill="#ffffff" stroke="transparent" points="-4,4 -4,-248 2397.5,-248 2397.5,4 -4,4"/>
<!-- Node1 -->
<g id="node1" class="node">
<title>Node1</title>
<g id="a_node1"><a xlink:title=" ">
<polygon fill="#bfbfbf" stroke="#000000" points="369,-224.5 369,-243.5 451,-243.5 451,-224.5 369,-224.5"/>
<text text-anchor="middle" x="410" y="-231.5" font-family="Arial.ttf" font-size="10.00" fill="#000000">SLGLOculus.h</text>
</a>
</g>
</g>
<!-- Node2 -->
<g id="node2" class="node">
<title>Node2</title>
<g id="a_node2"><a xlink:href="_s_l_g_l_oculus_8cpp.html" target="_top" xlink:title=" ">
<polygon fill="#ffffff" stroke="#000000" points="0,-56.5 0,-75.5 92,-75.5 92,-56.5 0,-56.5"/>
<text text-anchor="middle" x="46" y="-63.5" font-family="Arial.ttf" font-size="10.00" fill="#000000">SLGLOculus.cpp</text>
</a>
</g>
</g>
<!-- Node1&#45;&gt;Node2 -->
<g id="edge1" class="edge">
<title>Node1&#45;&gt;Node2</title>
<path fill="none" stroke="#191970" d="M380.0066,-220.1569C308.2656,-187.0457 128.1761,-103.9274 66.8382,-75.6177"/>
<polygon fill="#191970" stroke="#191970" points="378.8405,-223.4735 389.3868,-224.4862 381.774,-217.1177 378.8405,-223.4735"/>
</g>
<!-- Node3 -->
<g id="node3" class="node">
<title>Node3</title>
<g id="a_node3"><a xlink:href="_s_l_g_l_o_v_r_workaround_8h.html" target="_top" xlink:title=" ">
<polygon fill="#ffffff" stroke="#000000" points="346.5,-112.5 346.5,-131.5 473.5,-131.5 473.5,-112.5 346.5,-112.5"/>
<text text-anchor="middle" x="410" y="-119.5" font-family="Arial.ttf" font-size="10.00" fill="#000000">SLGLOVRWorkaround.h</text>
</a>
</g>
</g>
<!-- Node1&#45;&gt;Node3 -->
<g id="edge2" class="edge">
<title>Node1&#45;&gt;Node3</title>
<path fill="none" stroke="#191970" d="M410,-214.2702C410,-189.9985 410,-149.7725 410,-131.5249"/>
<polygon fill="#191970" stroke="#191970" points="406.5001,-214.4509 410,-224.4509 413.5001,-214.451 406.5001,-214.4509"/>
</g>
<!-- Node4 -->
<g id="node4" class="node">
<title>Node4</title>
<g id="a_node4"><a xlink:href="_s_l_scene_8h.html" target="_top" xlink:title=" ">
<polygon fill="#ffffff" stroke="#000000" points="1469.5,-168.5 1469.5,-187.5 1534.5,-187.5 1534.5,-168.5 1469.5,-168.5"/>
<text text-anchor="middle" x="1502" y="-175.5" font-family="Arial.ttf" font-size="10.00" fill="#000000">SLScene.h</text>
</a>
</g>
</g>
<!-- Node1&#45;&gt;Node4 -->
<g id="edge4" class="edge">
<title>Node1&#45;&gt;Node4</title>
<path fill="none" stroke="#191970" d="M461.151,-231.3769C651.2602,-221.6277 1314.1372,-187.634 1469.3209,-179.6758"/>
<polygon fill="#191970" stroke="#191970" points="460.9515,-227.8824 451.1439,-231.8901 461.31,-234.8732 460.9515,-227.8824"/>
</g>
<!-- Node3&#45;&gt;Node2 -->
<g id="edge3" class="edge">
<title>Node3&#45;&gt;Node2</title>
<path fill="none" stroke="#191970" d="M336.1049,-111.6786C273.4401,-102.7632 181.2154,-89.2595 101,-76 98.1274,-75.5252 95.1728,-75.0243 92.1948,-74.51"/>
<polygon fill="#191970" stroke="#191970" points="335.8959,-115.1839 346.2885,-113.1241 336.8797,-108.2534 335.8959,-115.1839"/>
</g>
<!-- Node4&#45;&gt;Node3 -->
<g id="edge11" class="edge">
<title>Node4&#45;&gt;Node3</title>
<path fill="none" stroke="#191970" d="M1459.3301,-175.9982C1328.2052,-169.8188 919.5286,-150.3522 581,-132 545.5149,-130.0763 505.8977,-127.7696 473.7383,-125.8566"/>
<polygon fill="#191970" stroke="#191970" points="1459.2121,-179.4964 1469.3656,-176.4707 1459.5414,-172.5041 1459.2121,-179.4964"/>
</g>
<!-- Node5 -->
<g id="node5" class="node">
<title>Node5</title>
<g id="a_node5"><a xlink:href="_s_l_a_a_b_box_8cpp.html" target="_top" xlink:title=" ">
<polygon fill="#ffffff" stroke="#000000" points="1972.5,-112.5 1972.5,-131.5 2057.5,-131.5 2057.5,-112.5 1972.5,-112.5"/>
<text text-anchor="middle" x="2015" y="-119.5" font-family="Arial.ttf" font-size="10.00" fill="#000000">SLAABBox.cpp</text>
</a>
</g>
</g>
<!-- Node4&#45;&gt;Node5 -->
<g id="edge5" class="edge">
<title>Node4&#45;&gt;Node5</title>
<path fill="none" stroke="#191970" d="M1544.9146,-175.0222C1626.5876,-169.0664 1809.8955,-154.3135 1963,-132 1966.093,-131.5492 1969.2817,-131.0418 1972.486,-130.5007"/>
<polygon fill="#191970" stroke="#191970" points="1544.2623,-171.5601 1534.5403,-175.7711 1544.7663,-178.5419 1544.2623,-171.5601"/>
</g>
<!-- Node6 -->
<g id="node6" class="node">
<title>Node6</title>
<g id="a_node6"><a xlink:href="_s_l_animation_8cpp.html" target="_top" xlink:title=" ">
<polygon fill="#ffffff" stroke="#000000" points="2076,-112.5 2076,-131.5 2168,-131.5 2168,-112.5 2076,-112.5"/>
<text text-anchor="middle" x="2122" y="-119.5" font-family="Arial.ttf" font-size="10.00" fill="#000000">SLAnimation.cpp</text>
</a>
</g>
</g>
<!-- Node4&#45;&gt;Node6 -->
<g id="edge6" class="edge">
<title>Node4&#45;&gt;Node6</title>
<path fill="none" stroke="#191970" d="M1544.623,-175.9685C1639.0303,-171.1543 1872.7833,-157.4991 2067,-132 2069.8868,-131.621 2072.8523,-131.1935 2075.8384,-130.734"/>
<polygon fill="#191970" stroke="#191970" points="1544.414,-172.4745 1534.6026,-176.4729 1544.766,-179.4657 1544.414,-172.4745"/>
</g>
<!-- Node7 -->
<g id="node7" class="node">
<title>Node7</title>
<g id="a_node7"><a xlink:href="_s_l_anim_manager_8cpp.html" target="_top" xlink:title=" ">
<polygon fill="#ffffff" stroke="#000000" points="2186,-112.5 2186,-131.5 2296,-131.5 2296,-112.5 2186,-112.5"/>
<text text-anchor="middle" x="2241" y="-119.5" font-family="Arial.ttf" font-size="10.00" fill="#000000">SLAnimManager.cpp</text>
</a>
</g>
</g>
<!-- Node4&#45;&gt;Node7 -->
<g id="edge7" class="edge">
<title>Node4&#45;&gt;Node7</title>
<path fill="none" stroke="#191970" d="M1544.8271,-176.3753C1651.7463,-172.0383 1938.9202,-158.6612 2177,-132 2179.9058,-131.6746 2182.8815,-131.3121 2185.8829,-130.9235"/>
<polygon fill="#191970" stroke="#191970" points="1544.606,-172.8813 1534.7541,-176.7787 1544.8861,-179.8757 1544.606,-172.8813"/>
</g>
<!-- Node8 -->
<g id="node8" class="node">
<title>Node8</title>
<g id="a_node8"><a xlink:href="_s_l_anim_skeleton_8cpp.html" target="_top" xlink:title=" ">
<polygon fill="#ffffff" stroke="#000000" points="1922.5,-56.5 1922.5,-75.5 2031.5,-75.5 2031.5,-56.5 1922.5,-56.5"/>
<text text-anchor="middle" x="1977" y="-63.5" font-family="Arial.ttf" font-size="10.00" fill="#000000">SLAnimSkeleton.cpp</text>
</a>
</g>
</g>
<!-- Node4&#45;&gt;Node8 -->
<g id="edge8" class="edge">
<title>Node4&#45;&gt;Node8</title>
<path fill="none" stroke="#191970" d="M1544.8631,-177.1569C1707.5089,-173.7525 2278.7027,-159.8469 2305,-132 2311.103,-125.5374 2310.8326,-118.7077 2305,-112 2287.3608,-91.7144 2120.4756,-76.5199 2031.7955,-69.8028"/>
<polygon fill="#191970" stroke="#191970" points="1544.6763,-173.66 1534.7509,-177.366 1544.8211,-180.6585 1544.6763,-173.66"/>
</g>
<!-- Node9 -->
<g id="node9" class="node">
<title>Node9</title>
<g id="a_node9"><a xlink:href="_s_l_g_l_im_gui_8cpp.html" target="_top" xlink:title=" ">
<polygon fill="#ffffff" stroke="#000000" points="2145,-56.5 2145,-75.5 2233,-75.5 2233,-56.5 2145,-56.5"/>
<text text-anchor="middle" x="2189" y="-63.5" font-family="Arial.ttf" font-size="10.00" fill="#000000">SLGLImGui.cpp</text>
</a>
</g>
</g>
<!-- Node4&#45;&gt;Node9 -->
<g id="edge9" class="edge">
<title>Node4&#45;&gt;Node9</title>
<path fill="none" stroke="#191970" d="M1545.1631,-177.2008C1710.3001,-173.9363 2294.1346,-160.4166 2321,-132 2351.0112,-100.2558 2282.4944,-81.5198 2233.3797,-72.5457"/>
<polygon fill="#191970" stroke="#191970" points="1544.8314,-173.7065 1534.9016,-177.4011 1544.9681,-180.7052 1544.8314,-173.7065"/>
</g>
<!-- Node10 -->
<g id="node10" class="node">
<title>Node10</title>
<g id="a_node10"><a xlink:href="_s_l_g_l_oculus_f_b_8cpp.html" target="_top" xlink:title=" ">
<polygon fill="#ffffff" stroke="#000000" points="836.5,-112.5 836.5,-131.5 941.5,-131.5 941.5,-112.5 836.5,-112.5"/>
<text text-anchor="middle" x="889" y="-119.5" font-family="Arial.ttf" font-size="10.00" fill="#000000">SLGLOculusFB.cpp</text>
</a>
</g>
</g>
<!-- Node4&#45;&gt;Node10 -->
<g id="edge10" class="edge">
<title>Node4&#45;&gt;Node10</title>
<path fill="none" stroke="#191970" d="M1459.1801,-175.5463C1366.361,-169.9817 1139.771,-155.0688 951,-132 947.9697,-131.6297 944.8606,-131.2207 941.7261,-130.7861"/>
<polygon fill="#191970" stroke="#191970" points="1459.1158,-179.0486 1469.3058,-176.148 1459.5311,-172.0609 1459.1158,-179.0486"/>
</g>
<!-- Node11 -->
<g id="node11" class="node">
<title>Node11</title>
<g id="a_node11"><a xlink:href="_s_l_g_l_program_8cpp.html" target="_top" xlink:title=" ">
<polygon fill="#ffffff" stroke="#000000" points="959.5,-112.5 959.5,-131.5 1058.5,-131.5 1058.5,-112.5 959.5,-112.5"/>
<text text-anchor="middle" x="1009" y="-119.5" font-family="Arial.ttf" font-size="10.00" fill="#000000">SLGLProgram.cpp</text>
</a>
</g>
</g>
<!-- Node4&#45;&gt;Node11 -->
<g id="edge12" class="edge">
<title>Node4&#45;&gt;Node11</title>
<path fill="none" stroke="#191970" d="M1458.8467,-174.3238C1380.7111,-167.4679 1210.6631,-151.6312 1068,-132 1064.9124,-131.5751 1061.7381,-131.1125 1058.54,-130.6268"/>
<polygon fill="#191970" stroke="#191970" points="1458.9832,-177.8489 1469.2495,-175.2311 1459.5914,-170.8754 1458.9832,-177.8489"/>
</g>
<!-- Node12 -->
<g id="node12" class="node">
<title>Node12</title>
<g id="a_node12"><a xlink:href="_s_l_g_l_texture_8cpp.html" target="_top" xlink:title=" ">
<polygon fill="#ffffff" stroke="#000000" points="1076.5,-112.5 1076.5,-131.5 1171.5,-131.5 1171.5,-112.5 1076.5,-112.5"/>
<text text-anchor="middle" x="1124" y="-119.5" font-family="Arial.ttf" font-size="10.00" fill="#000000">SLGLTexture.cpp</text>
</a>
</g>
</g>
<!-- Node4&#45;&gt;Node12 -->
<g id="edge13" class="edge">
<title>Node4&#45;&gt;Node12</title>
<path fill="none" stroke="#191970" d="M1459.0109,-172.2755C1397.3658,-163.9676 1280.3322,-147.8266 1181,-132 1177.9242,-131.5099 1174.7576,-130.9919 1171.5671,-130.4599"/>
<polygon fill="#191970" stroke="#191970" points="1458.7622,-175.7734 1469.1394,-173.6371 1459.6949,-168.8358 1458.7622,-175.7734"/>
</g>
<!-- Node13 -->
<g id="node13" class="node">
<title>Node13</title>
<g id="a_node13"><a xlink:href="_s_l_g_l_texture_i_b_l_8cpp.html" target="_top" xlink:title=" ">
<polygon fill="#ffffff" stroke="#000000" points="1190,-112.5 1190,-131.5 1300,-131.5 1300,-112.5 1190,-112.5"/>
<text text-anchor="middle" x="1245" y="-119.5" font-family="Arial.ttf" font-size="10.00" fill="#000000">SLGLTextureIBL.cpp</text>
</a>
</g>
</g>
<!-- Node4&#45;&gt;Node13 -->
<g id="edge14" class="edge">
<title>Node4&#45;&gt;Node13</title>
<path fill="none" stroke="#191970" d="M1459.5536,-168.751C1412.3905,-158.4742 1336.6089,-141.9615 1288.8765,-131.5606"/>
<polygon fill="#191970" stroke="#191970" points="1458.9348,-172.1982 1469.4508,-170.9076 1460.4252,-165.3587 1458.9348,-172.1982"/>
</g>
<!-- Node14 -->
<g id="node14" class="node">
<title>Node14</title>
<g id="a_node14"><a xlink:href="_s_l_g_l_vertex_array_8cpp.html" target="_top" xlink:title=" ">
<polygon fill="#ffffff" stroke="#000000" points="1318,-112.5 1318,-131.5 1432,-131.5 1432,-112.5 1318,-112.5"/>
<text text-anchor="middle" x="1375" y="-119.5" font-family="Arial.ttf" font-size="10.00" fill="#000000">SLGLVertexArray.cpp</text>
</a>
</g>
</g>
<!-- Node4&#45;&gt;Node14 -->
<g id="edge15" class="edge">
<title>Node4&#45;&gt;Node14</title>
<path fill="none" stroke="#191970" d="M1470.8108,-164.2473C1447.7463,-154.0771 1416.9288,-140.4883 1396.5472,-131.5011"/>
<polygon fill="#191970" stroke="#191970" points="1469.6058,-167.5411 1480.1679,-168.3733 1472.4301,-161.1361 1469.6058,-167.5411"/>
</g>
<!-- Node15 -->
<g id="node15" class="node">
<title>Node15</title>
<g id="a_node15"><a xlink:href="_s_l_curve_bezier_8cpp.html" target="_top" xlink:title=" ">
<polygon fill="#ffffff" stroke="#000000" points="1450.5,-112.5 1450.5,-131.5 1553.5,-131.5 1553.5,-112.5 1450.5,-112.5"/>
<text text-anchor="middle" x="1502" y="-119.5" font-family="Arial.ttf" font-size="10.00" fill="#000000">SLCurveBezier.cpp</text>
</a>
</g>
</g>
<!-- Node4&#45;&gt;Node15 -->
<g id="edge16" class="edge">
<title>Node4&#45;&gt;Node15</title>
<path fill="none" stroke="#191970" d="M1502,-158.1575C1502,-149.155 1502,-138.9199 1502,-131.6427"/>
<polygon fill="#191970" stroke="#191970" points="1498.5001,-158.2455 1502,-168.2455 1505.5001,-158.2456 1498.5001,-158.2455"/>
</g>
<!-- Node16 -->
<g id="node16" class="node">
<title>Node16</title>
<g id="a_node16"><a xlink:href="_s_l_light_direct_8cpp.html" target="_top" xlink:title=" ">
<polygon fill="#ffffff" stroke="#000000" points="2298.5,-56.5 2298.5,-75.5 2393.5,-75.5 2393.5,-56.5 2298.5,-56.5"/>
<text text-anchor="middle" x="2346" y="-63.5" font-family="Arial.ttf" font-size="10.00" fill="#000000">SLLightDirect.cpp</text>
</a>
</g>
</g>
<!-- Node4&#45;&gt;Node16 -->
<g id="edge17" class="edge">
<title>Node4&#45;&gt;Node16</title>
<path fill="none" stroke="#191970" d="M1545.1164,-177.1499C1712.1495,-173.6624 2308.8161,-159.3281 2338,-132 2353.3336,-117.6415 2350.9082,-90.3405 2348.2248,-75.7568"/>
<polygon fill="#191970" stroke="#191970" points="1544.6717,-173.6582 1534.7461,-177.3639 1544.8162,-180.6567 1544.6717,-173.6582"/>
</g>
<!-- Node17 -->
<g id="node17" class="node">
<title>Node17</title>
<g id="a_node17"><a xlink:href="_s_l_light_rect_8cpp.html" target="_top" xlink:title=" ">
<polygon fill="#ffffff" stroke="#000000" points="110,-56.5 110,-75.5 200,-75.5 200,-56.5 110,-56.5"/>
<text text-anchor="middle" x="155" y="-63.5" font-family="Arial.ttf" font-size="10.00" fill="#000000">SLLightRect.cpp</text>
</a>
</g>
</g>
<!-- Node4&#45;&gt;Node17 -->
<g id="edge18" class="edge">
<title>Node4&#45;&gt;Node17</title>
<path fill="none" stroke="#191970" d="M1459.2419,-177.4031C1330.4257,-175.2605 934.8746,-166.1592 609,-132 552.6079,-126.0888 539.114,-120.1383 483,-112 361.4474,-94.371 330.3161,-95.1891 209,-76 206.0806,-75.5382 203.0765,-75.0417 200.0508,-74.5255"/>
<polygon fill="#191970" stroke="#191970" points="1459.4109,-180.9062 1469.466,-177.5677 1459.5237,-173.9071 1459.4109,-180.9062"/>
</g>
<!-- Node18 -->
<g id="node18" class="node">
<title>Node18</title>
<g id="a_node18"><a xlink:href="_s_l_light_spot_8cpp.html" target="_top" xlink:title=" ">
<polygon fill="#ffffff" stroke="#000000" points="218,-56.5 218,-75.5 308,-75.5 308,-56.5 218,-56.5"/>
<text text-anchor="middle" x="263" y="-63.5" font-family="Arial.ttf" font-size="10.00" fill="#000000">SLLightSpot.cpp</text>
</a>
</g>
</g>
<!-- Node4&#45;&gt;Node18 -->
<g id="edge19" class="edge">
<title>Node4&#45;&gt;Node18</title>
<path fill="none" stroke="#191970" d="M1459.1721,-177.1943C1341.3416,-174.6063 1002.5284,-164.664 723,-132 671.9072,-126.0296 659.8768,-119.5941 609,-112 479.6724,-92.6961 446.2351,-95.9141 317,-76 314.0788,-75.5499 311.0733,-75.0621 308.0466,-74.5525"/>
<polygon fill="#191970" stroke="#191970" points="1459.1568,-180.6947 1469.2293,-177.409 1459.3063,-173.6963 1459.1568,-180.6947"/>
</g>
<!-- Node19 -->
<g id="node19" class="node">
<title>Node19</title>
<g id="a_node19"><a xlink:href="_s_l_text_8cpp.html" target="_top" xlink:title=" ">
<polygon fill="#ffffff" stroke="#000000" points="1571.5,-112.5 1571.5,-131.5 1638.5,-131.5 1638.5,-112.5 1571.5,-112.5"/>
<text text-anchor="middle" x="1605" y="-119.5" font-family="Arial.ttf" font-size="10.00" fill="#000000">SLText.cpp</text>
</a>
</g>
</g>
<!-- Node4&#45;&gt;Node19 -->
<g id="edge20" class="edge">
<title>Node4&#45;&gt;Node19</title>
<path fill="none" stroke="#191970" d="M1528.7432,-163.46C1547.175,-153.4388 1571.1584,-140.3993 1587.2644,-131.6427"/>
<polygon fill="#191970" stroke="#191970" points="1527.0549,-160.394 1519.9412,-168.2455 1530.3985,-166.5438 1527.0549,-160.394"/>
</g>
<!-- Node20 -->
<g id="node20" class="node">
<title>Node20</title>
<g id="a_node20"><a xlink:href="_s_l_background_8cpp.html" target="_top" xlink:title=" ">
<polygon fill="#ffffff" stroke="#000000" points="1656.5,-112.5 1656.5,-131.5 1757.5,-131.5 1757.5,-112.5 1656.5,-112.5"/>
<text text-anchor="middle" x="1707" y="-119.5" font-family="Arial.ttf" font-size="10.00" fill="#000000">SLBackground.cpp</text>
</a>
</g>
</g>
<!-- Node4&#45;&gt;Node20 -->
<g id="edge21" class="edge">
<title>Node4&#45;&gt;Node20</title>
<path fill="none" stroke="#191970" d="M1544.6352,-166.3533C1582.3988,-156.0374 1636.8536,-141.1619 1672.0866,-131.5373"/>
<polygon fill="#191970" stroke="#191970" points="1543.661,-162.9911 1534.9368,-169.0026 1545.5057,-169.7437 1543.661,-162.9911"/>
</g>
<!-- Node21 -->
<g id="node21" class="node">
<title>Node21</title>
<g id="a_node21"><a xlink:href="_s_l_scene_8cpp.html" target="_top" xlink:title=" ">
<polygon fill="#ffffff" stroke="#000000" points="1776,-112.5 1776,-131.5 1852,-131.5 1852,-112.5 1776,-112.5"/>
<text text-anchor="middle" x="1814" y="-119.5" font-family="Arial.ttf" font-size="10.00" fill="#000000">SLScene.cpp</text>
</a>
</g>
</g>
<!-- Node4&#45;&gt;Node21 -->
<g id="edge22" class="edge">
<title>Node4&#45;&gt;Node21</title>
<path fill="none" stroke="#191970" d="M1544.6597,-171.1044C1597.1022,-162.5101 1688.7719,-147.1061 1767,-132 1769.8669,-131.4464 1772.8284,-130.8572 1775.805,-130.2526"/>
<polygon fill="#191970" stroke="#191970" points="1544.0145,-167.6633 1534.7099,-172.7303 1545.1435,-174.5717 1544.0145,-167.6633"/>
</g>
<!-- Node22 -->
<g id="node22" class="node">
<title>Node22</title>
<g id="a_node22"><a xlink:href="_s_l_scene_view_8h.html" target="_top" xlink:title=" ">
<polygon fill="#ffffff" stroke="#000000" points="731.5,-112.5 731.5,-131.5 818.5,-131.5 818.5,-112.5 731.5,-112.5"/>
<text text-anchor="middle" x="775" y="-119.5" font-family="Arial.ttf" font-size="10.00" fill="#000000">SLSceneView.h</text>
</a>
</g>
</g>
<!-- Node4&#45;&gt;Node22 -->
<g id="edge23" class="edge">
<title>Node4&#45;&gt;Node22</title>
<path fill="none" stroke="#191970" d="M1459.1808,-176.8356C1352.2932,-173.5476 1065.2786,-162.3735 828,-132 824.935,-131.6077 821.7795,-131.1503 818.6077,-130.6512"/>
<polygon fill="#191970" stroke="#191970" points="1459.1504,-180.3361 1469.251,-177.1382 1459.3607,-173.3393 1459.1504,-180.3361"/>
</g>
<!-- Node38 -->
<g id="node38" class="node">
<title>Node38</title>
<g id="a_node38"><a xlink:href="_s_l_tex_font_8cpp.html" target="_top" xlink:title=" ">
<polygon fill="#ffffff" stroke="#000000" points="1870,-112.5 1870,-131.5 1954,-131.5 1954,-112.5 1870,-112.5"/>
<text text-anchor="middle" x="1912" y="-119.5" font-family="Arial.ttf" font-size="10.00" fill="#000000">SLTexFont.cpp</text>
</a>
</g>
</g>
<!-- Node4&#45;&gt;Node38 -->
<g id="edge44" class="edge">
<title>Node4&#45;&gt;Node38</title>
<path fill="none" stroke="#191970" d="M1545.0162,-173.4198C1612.5203,-166.0225 1747.3651,-150.4002 1861,-132 1863.8502,-131.5385 1866.7847,-131.0361 1869.7379,-130.5103"/>
<polygon fill="#191970" stroke="#191970" points="1544.3361,-169.973 1534.7739,-174.5355 1545.0942,-176.9319 1544.3361,-169.973"/>
</g>
<!-- Node22&#45;&gt;Node8 -->
<g id="edge24" class="edge">
<title>Node22&#45;&gt;Node8</title>
<path fill="none" stroke="#191970" d="M828.7577,-112.1078C1285.4364,-61.9615 1404.6682,-103.1666 1859,-76 1879.7281,-74.7606 1902.4677,-72.9426 1922.4052,-71.1955"/>
<polygon fill="#191970" stroke="#191970" points="828.1481,-108.6538 818.5938,-113.2327 828.9182,-115.6113 828.1481,-108.6538"/>
</g>
<!-- Node22&#45;&gt;Node9 -->
<g id="edge27" class="edge">
<title>Node22&#45;&gt;Node9</title>
<path fill="none" stroke="#191970" d="M828.5369,-112.1389C1365.9021,-54.4091 1505.5755,-102.0246 2041,-76 2075.9828,-74.2996 2115.5659,-71.5836 2144.9884,-69.411"/>
<polygon fill="#191970" stroke="#191970" points="828.1575,-108.6594 818.5918,-113.2144 828.9102,-115.6189 828.1575,-108.6594"/>
</g>
<!-- Node22&#45;&gt;Node16 -->
<g id="edge32" class="edge">
<title>Node22&#45;&gt;Node16</title>
<path fill="none" stroke="#191970" d="M828.7738,-112.1207C1454.8687,-46.2403 1617.8783,-113.9036 2242,-76 2260.4676,-74.8784 2280.7291,-73.0631 2298.4232,-71.2849"/>
<polygon fill="#191970" stroke="#191970" points="828.1658,-108.6654 818.5902,-113.1997 828.9034,-115.6265 828.1658,-108.6654"/>
</g>
<!-- Node22&#45;&gt;Node17 -->
<g id="edge33" class="edge">
<title>Node22&#45;&gt;Node17</title>
<path fill="none" stroke="#191970" d="M721.2596,-118.3366C599.8184,-109.9435 307.1661,-89.0439 209,-76 206.0701,-75.6107 203.0579,-75.169 200.0264,-74.6934"/>
<polygon fill="#191970" stroke="#191970" points="721.2156,-121.8418 731.4327,-119.0381 721.6972,-114.8583 721.2156,-121.8418"/>
</g>
<!-- Node22&#45;&gt;Node18 -->
<g id="edge34" class="edge">
<title>Node22&#45;&gt;Node18</title>
<path fill="none" stroke="#191970" d="M721.2082,-115.1477C712.1313,-114.0521 702.801,-112.9633 694,-112 526.6815,-93.6866 483.6907,-99.347 317,-76 314.0729,-75.59 311.0629,-75.1327 308.0329,-74.6455"/>
<polygon fill="#191970" stroke="#191970" points="720.9562,-118.6429 731.3068,-116.3814 721.805,-111.6946 720.9562,-118.6429"/>
</g>
<!-- Node23 -->
<g id="node23" class="node">
<title>Node23</title>
<g id="a_node23"><a xlink:href="_s_l_anim_track_8cpp.html" target="_top" xlink:title=" ">
<polygon fill="#ffffff" stroke="#000000" points="1754.5,-56.5 1754.5,-75.5 1849.5,-75.5 1849.5,-56.5 1754.5,-56.5"/>
<text text-anchor="middle" x="1802" y="-63.5" font-family="Arial.ttf" font-size="10.00" fill="#000000">SLAnimTrack.cpp</text>
</a>
</g>
</g>
<!-- Node22&#45;&gt;Node23 -->
<g id="edge25" class="edge">
<title>Node22&#45;&gt;Node23</title>
<path fill="none" stroke="#191970" d="M828.5585,-112.1269C1235.0046,-66.9166 1342.7069,-118.9885 1745,-76 1748.0969,-75.6691 1751.2797,-75.2716 1754.482,-74.8287"/>
<polygon fill="#191970" stroke="#191970" points="828.1415,-108.6517 818.5955,-113.2479 828.9242,-115.6078 828.1415,-108.6517"/>
</g>
<!-- Node24 -->
<g id="node24" class="node">
<title>Node24</title>
<g id="a_node24"><a xlink:href="_s_l_g_l_conetracer_8cpp.html" target="_top" xlink:title=" ">
<polygon fill="#ffffff" stroke="#000000" points="326,-56.5 326,-75.5 436,-75.5 436,-56.5 326,-56.5"/>
<text text-anchor="middle" x="381" y="-63.5" font-family="Arial.ttf" font-size="10.00" fill="#000000">SLGLConetracer.cpp</text>
</a>
</g>
</g>
<!-- Node22&#45;&gt;Node24 -->
<g id="edge26" class="edge">
<title>Node22&#45;&gt;Node24</title>
<path fill="none" stroke="#191970" d="M721.2981,-114.722C656.1378,-105.8379 542.9539,-90.2352 446,-76 442.837,-75.5356 439.5883,-75.0532 436.3106,-74.5622"/>
<polygon fill="#191970" stroke="#191970" points="720.9528,-118.2072 731.3337,-116.0889 721.8976,-111.2713 720.9528,-118.2072"/>
</g>
<!-- Node25 -->
<g id="node25" class="node">
<title>Node25</title>
<g id="a_node25"><a xlink:href="_s_l_input_manager_8cpp.html" target="_top" xlink:title=" ">
<polygon fill="#ffffff" stroke="#000000" points="454.5,-56.5 454.5,-75.5 563.5,-75.5 563.5,-56.5 454.5,-56.5"/>
<text text-anchor="middle" x="509" y="-63.5" font-family="Arial.ttf" font-size="10.00" fill="#000000">SLInputManager.cpp</text>
</a>
</g>
</g>
<!-- Node22&#45;&gt;Node25 -->
<g id="edge28" class="edge">
<title>Node22&#45;&gt;Node25</title>
<path fill="none" stroke="#191970" d="M721.5838,-110.7545C672.5704,-100.4359 600.75,-85.3158 554.4325,-75.5647"/>
<polygon fill="#191970" stroke="#191970" points="720.8668,-114.1802 731.3734,-112.8154 722.3089,-107.3303 720.8668,-114.1802"/>
</g>
<!-- Node26 -->
<g id="node26" class="node">
<title>Node26</title>
<g id="a_node26"><a xlink:href="_s_l_mesh_8cpp.html" target="_top" xlink:title=" ">
<polygon fill="#ffffff" stroke="#000000" points="582,-56.5 582,-75.5 654,-75.5 654,-56.5 582,-56.5"/>
<text text-anchor="middle" x="618" y="-63.5" font-family="Arial.ttf" font-size="10.00" fill="#000000">SLMesh.cpp</text>
</a>
</g>
</g>
<!-- Node22&#45;&gt;Node26 -->
<g id="edge29" class="edge">
<title>Node22&#45;&gt;Node26</title>
<path fill="none" stroke="#191970" d="M738.3381,-108.9231C709.6376,-98.686 670.3956,-84.6889 644.6371,-75.5011"/>
<polygon fill="#191970" stroke="#191970" points="737.4161,-112.3102 748.0107,-112.3733 739.7678,-105.7171 737.4161,-112.3102"/>
</g>
<!-- Node27 -->
<g id="node27" class="node">
<title>Node27</title>
<g id="a_node27"><a xlink:href="_s_l_camera_8cpp.html" target="_top" xlink:title=" ">
<polygon fill="#ffffff" stroke="#000000" points="672.5,-56.5 672.5,-75.5 755.5,-75.5 755.5,-56.5 672.5,-56.5"/>
<text text-anchor="middle" x="714" y="-63.5" font-family="Arial.ttf" font-size="10.00" fill="#000000">SLCamera.cpp</text>
</a>
</g>
</g>
<!-- Node22&#45;&gt;Node27 -->
<g id="edge30" class="edge">
<title>Node22&#45;&gt;Node27</title>
<path fill="none" stroke="#191970" d="M756.8751,-105.3607C746.322,-95.6727 733.3888,-83.7995 724.5036,-75.6427"/>
<polygon fill="#191970" stroke="#191970" points="754.6411,-108.0611 764.3746,-112.2455 759.375,-102.9045 754.6411,-108.0611"/>
</g>
<!-- Node28 -->
<g id="node28" class="node">
<title>Node28</title>
<g id="a_node28"><a xlink:href="_s_l_keyframe_camera_8cpp.html" target="_top" xlink:title=" ">
<polygon fill="#ffffff" stroke="#000000" points="774,-56.5 774,-75.5 900,-75.5 900,-56.5 774,-56.5"/>
<text text-anchor="middle" x="837" y="-63.5" font-family="Arial.ttf" font-size="10.00" fill="#000000">SLKeyframeCamera.cpp</text>
</a>
</g>
</g>
<!-- Node22&#45;&gt;Node28 -->
<g id="edge31" class="edge">
<title>Node22&#45;&gt;Node28</title>
<path fill="none" stroke="#191970" d="M793.4221,-105.3607C804.1481,-95.6727 817.2934,-83.7995 826.3242,-75.6427"/>
<polygon fill="#191970" stroke="#191970" points="790.8746,-102.9453 785.7996,-112.2455 795.5666,-108.14 790.8746,-102.9453"/>
</g>
<!-- Node29 -->
<g id="node29" class="node">
<title>Node29</title>
<g id="a_node29"><a xlink:href="_s_l_node_8cpp.html" target="_top" xlink:title=" ">
<polygon fill="#ffffff" stroke="#000000" points="918,-56.5 918,-75.5 990,-75.5 990,-56.5 918,-56.5"/>
<text text-anchor="middle" x="954" y="-63.5" font-family="Arial.ttf" font-size="10.00" fill="#000000">SLNode.cpp</text>
</a>
</g>
</g>
<!-- Node22&#45;&gt;Node29 -->
<g id="edge35" class="edge">
<title>Node22&#45;&gt;Node29</title>
<path fill="none" stroke="#191970" d="M815.5195,-109.3235C848.3466,-99.0536 893.8776,-84.8093 923.6303,-75.5011"/>
<polygon fill="#191970" stroke="#191970" points="814.27,-106.0471 805.7712,-112.3733 816.3601,-112.7278 814.27,-106.0471"/>
</g>
<!-- Node30 -->
<g id="node30" class="node">
<title>Node30</title>
<g id="a_node30"><a xlink:href="_s_l_skybox_8cpp.html" target="_top" xlink:title=" ">
<polygon fill="#ffffff" stroke="#000000" points="1008,-56.5 1008,-75.5 1088,-75.5 1088,-56.5 1008,-56.5"/>
<text text-anchor="middle" x="1048" y="-63.5" font-family="Arial.ttf" font-size="10.00" fill="#000000">SLSkybox.cpp</text>
</a>
</g>
</g>
<!-- Node22&#45;&gt;Node30 -->
<g id="edge36" class="edge">
<title>Node22&#45;&gt;Node30</title>
<path fill="none" stroke="#191970" d="M828.383,-111.0496C880.985,-100.2595 960.1784,-84.0147 1007.7099,-74.2646"/>
<polygon fill="#191970" stroke="#191970" points="827.6522,-107.6266 818.5595,-113.0647 829.0589,-114.4838 827.6522,-107.6266"/>
</g>
<!-- Node31 -->
<g id="node31" class="node">
<title>Node31</title>
<g id="a_node31"><a xlink:href="_s_l_transform_node_8h.html" target="_top" xlink:title=" ">
<polygon fill="#ffffff" stroke="#000000" points="1106.5,-56.5 1106.5,-75.5 1213.5,-75.5 1213.5,-56.5 1106.5,-56.5"/>
<text text-anchor="middle" x="1160" y="-63.5" font-family="Arial.ttf" font-size="10.00" fill="#000000">SLTransformNode.h</text>
</a>
</g>
</g>
<!-- Node22&#45;&gt;Node31 -->
<g id="edge37" class="edge">
<title>Node22&#45;&gt;Node31</title>
<path fill="none" stroke="#191970" d="M828.5998,-111.9762C948.7588,-92.8325 980.7953,-92.9958 1097,-76 1100.0682,-75.5513 1103.2189,-75.081 1106.3973,-74.5994"/>
<polygon fill="#191970" stroke="#191970" points="827.9593,-108.5341 818.6404,-113.5747 829.0687,-115.4456 827.9593,-108.5341"/>
</g>
<!-- Node33 -->
<g id="node33" class="node">
<title>Node33</title>
<g id="a_node33"><a xlink:href="_s_l_pathtracer_8cpp.html" target="_top" xlink:title=" ">
<polygon fill="#ffffff" stroke="#000000" points="1232,-56.5 1232,-75.5 1326,-75.5 1326,-56.5 1232,-56.5"/>
<text text-anchor="middle" x="1279" y="-63.5" font-family="Arial.ttf" font-size="10.00" fill="#000000">SLPathtracer.cpp</text>
</a>
</g>
</g>
<!-- Node22&#45;&gt;Node33 -->
<g id="edge39" class="edge">
<title>Node22&#45;&gt;Node33</title>
<path fill="none" stroke="#191970" d="M828.7179,-112.0305C1004.3309,-88.0589 1051.534,-99.0798 1223,-76 1225.9363,-75.6048 1228.9535,-75.1648 1231.9922,-74.6961"/>
<polygon fill="#191970" stroke="#191970" points="828.0441,-108.5903 818.6183,-113.4281 829.0037,-115.5242 828.0441,-108.5903"/>
</g>
<!-- Node34 -->
<g id="node34" class="node">
<title>Node34</title>
<g id="a_node34"><a xlink:href="_s_l_ray_8cpp.html" target="_top" xlink:title=" ">
<polygon fill="#ffffff" stroke="#000000" points="1344.5,-56.5 1344.5,-75.5 1409.5,-75.5 1409.5,-56.5 1344.5,-56.5"/>
<text text-anchor="middle" x="1377" y="-63.5" font-family="Arial.ttf" font-size="10.00" fill="#000000">SLRay.cpp</text>
</a>
</g>
</g>
<!-- Node22&#45;&gt;Node34 -->
<g id="edge40" class="edge">
<title>Node22&#45;&gt;Node34</title>
<path fill="none" stroke="#191970" d="M828.756,-112.0614C1053.8164,-83.7953 1114.9855,-109.7731 1335,-76 1337.9635,-75.5451 1341.0263,-74.9882 1344.085,-74.3723"/>
<polygon fill="#191970" stroke="#191970" points="828.0845,-108.6187 818.6089,-113.3584 828.972,-115.5622 828.0845,-108.6187"/>
</g>
<!-- Node35 -->
<g id="node35" class="node">
<title>Node35</title>
<g id="a_node35"><a xlink:href="_s_l_raytracer_8cpp.html" target="_top" xlink:title=" ">
<polygon fill="#ffffff" stroke="#000000" points="1427.5,-56.5 1427.5,-75.5 1518.5,-75.5 1518.5,-56.5 1427.5,-56.5"/>
<text text-anchor="middle" x="1473" y="-63.5" font-family="Arial.ttf" font-size="10.00" fill="#000000">SLRaytracer.cpp</text>
</a>
</g>
</g>
<!-- Node22&#45;&gt;Node35 -->
<g id="edge41" class="edge">
<title>Node22&#45;&gt;Node35</title>
<path fill="none" stroke="#191970" d="M828.8114,-112.0665C1090.9182,-80.2539 1161.1176,-107.612 1419,-76 1421.7444,-75.6636 1424.56,-75.2751 1427.3955,-74.8505"/>
<polygon fill="#191970" stroke="#191970" points="828.1018,-108.6274 818.6045,-113.3233 828.9573,-115.5749 828.1018,-108.6274"/>
</g>
<!-- Node36 -->
<g id="node36" class="node">
<title>Node36</title>
<g id="a_node36"><a xlink:href="_s_l_material_8cpp.html" target="_top" xlink:title=" ">
<polygon fill="#ffffff" stroke="#000000" points="1536.5,-56.5 1536.5,-75.5 1619.5,-75.5 1619.5,-56.5 1536.5,-56.5"/>
<text text-anchor="middle" x="1578" y="-63.5" font-family="Arial.ttf" font-size="10.00" fill="#000000">SLMaterial.cpp</text>
</a>
</g>
</g>
<!-- Node22&#45;&gt;Node36 -->
<g id="edge42" class="edge">
<title>Node22&#45;&gt;Node36</title>
<path fill="none" stroke="#191970" d="M828.7902,-112.0843C1139.1001,-75.8784 1222.2053,-114.235 1528,-76 1530.7231,-75.6595 1533.5198,-75.2549 1536.3325,-74.8066"/>
<polygon fill="#191970" stroke="#191970" points="828.1198,-108.6391 818.6005,-113.2903 828.9426,-115.5906 828.1198,-108.6391"/>
</g>
<!-- Node37 -->
<g id="node37" class="node">
<title>Node37</title>
<g id="a_node37"><a xlink:href="_s_l_scene_view_8cpp.html" target="_top" xlink:title=" ">
<polygon fill="#ffffff" stroke="#000000" points="1638,-56.5 1638,-75.5 1736,-75.5 1736,-56.5 1638,-56.5"/>
<text text-anchor="middle" x="1687" y="-63.5" font-family="Arial.ttf" font-size="10.00" fill="#000000">SLSceneView.cpp</text>
</a>
</g>
</g>
<!-- Node22&#45;&gt;Node37 -->
<g id="edge43" class="edge">
<title>Node22&#45;&gt;Node37</title>
<path fill="none" stroke="#191970" d="M828.6419,-112.1095C1183.72,-71.6609 1277.997,-113.994 1629,-76 1631.8444,-75.6921 1634.7605,-75.3319 1637.6985,-74.9346"/>
<polygon fill="#191970" stroke="#191970" points="828.131,-108.6451 818.5978,-113.2677 828.933,-115.599 828.131,-108.6451"/>
</g>
<!-- Node32 -->
<g id="node32" class="node">
<title>Node32</title>
<g id="a_node32"><a xlink:href="_s_l_transform_node_8cpp.html" target="_top" xlink:title=" ">
<polygon fill="#ffffff" stroke="#000000" points="1101.5,-.5 1101.5,-19.5 1218.5,-19.5 1218.5,-.5 1101.5,-.5"/>
<text text-anchor="middle" x="1160" y="-7.5" font-family="Arial.ttf" font-size="10.00" fill="#000000">SLTransformNode.cpp</text>
</a>
</g>
</g>
<!-- Node31&#45;&gt;Node32 -->
<g id="edge38" class="edge">
<title>Node31&#45;&gt;Node32</title>
<path fill="none" stroke="#191970" d="M1160,-46.1575C1160,-37.155 1160,-26.9199 1160,-19.6427"/>
<polygon fill="#191970" stroke="#191970" points="1156.5001,-46.2455 1160,-56.2455 1163.5001,-46.2456 1156.5001,-46.2455"/>
</g>
</g>
</svg>
