<?xml version="1.0" encoding="UTF-8" standalone="no"?>
<!DOCTYPE svg PUBLIC "-//W3C//DTD SVG 1.1//EN"
 "http://www.w3.org/Graphics/SVG/1.1/DTD/svg11.dtd">
<!-- Generated by graphviz version 2.28.0 (20110507.0327)
 -->
<!-- Title: SLScene_onLoad.cpp Pages: 1 -->
<svg width="2679pt" height="700pt"
 viewBox="0.00 0.00 2679.00 700.00" xmlns="http://www.w3.org/2000/svg" xmlns:xlink="http://www.w3.org/1999/xlink">
<g id="graph1" class="graph" transform="scale(1 1) rotate(0) translate(4 696)">
<title>SLScene_onLoad.cpp</title>
<polygon fill="white" stroke="white" points="-4,5 -4,-696 2676,-696 2676,5 -4,5"/>
<!-- Node1 -->
<g id="node1" class="node"><title>Node1</title>
<polygon fill="#bfbfbf" stroke="black" points="1768.5,-672.5 1768.5,-691.5 1887.5,-691.5 1887.5,-672.5 1768.5,-672.5"/>
<text text-anchor="middle" x="1828" y="-679.5" font-family="Arial.ttf" font-size="10.00">SLScene_onLoad.cpp</text>
</g>
<!-- Node2 -->
<g id="node3" class="node"><title>Node2</title>
<polygon fill="white" stroke="#bfbfbf" points="1306.5,-0.5 1306.5,-19.5 1361.5,-19.5 1361.5,-0.5 1306.5,-0.5"/>
<text text-anchor="middle" x="1334" y="-7.5" font-family="Arial.ttf" font-size="10.00">stdafx.h</text>
</g>
<!-- Node1&#45;&gt;Node2 -->
<g id="edge2" class="edge"><title>Node1&#45;&gt;Node2</title>
<path fill="none" stroke="midnightblue" d="M1768.05,-681.199C1483.1,-681.908 272.743,-682.156 111,-636 56.0252,-620.312 0,-628.169 0,-571 0,-571 0,-571 0,-121 0,-67.6185 50.0688,-71.9873 101,-56 217.332,-19.4835 1102.07,-12.3261 1296.36,-11.1896"/>
<polygon fill="midnightblue" stroke="midnightblue" points="1296.39,-14.6895 1306.37,-11.1328 1296.35,-7.68964 1296.39,-14.6895"/>
</g>
<!-- Node3 -->
<g id="node5" class="node"><title>Node3</title>
<a xlink:href="_s_l_scene_8h.html" target="_top" xlink:title="SLScene.h">
<polygon fill="white" stroke="black" points="605,-560.5 605,-579.5 673,-579.5 673,-560.5 605,-560.5"/>
<text text-anchor="middle" x="639" y="-567.5" font-family="Arial.ttf" font-size="10.00">SLScene.h</text>
</a>
</g>
<!-- Node1&#45;&gt;Node3 -->
<g id="edge4" class="edge"><title>Node1&#45;&gt;Node3</title>
<path fill="none" stroke="midnightblue" d="M1768.45,-679.539C1638.2,-675.908 1318.34,-664.612 1052,-636 916.903,-621.487 758.55,-593.443 683.188,-579.417"/>
<polygon fill="midnightblue" stroke="midnightblue" points="683.588,-575.931 673.116,-577.534 682.302,-582.812 683.588,-575.931"/>
</g>
<!-- Node15 -->
<g id="node42" class="node"><title>Node15</title>
<a xlink:href="_s_l_mesh_8h.html" target="_top" xlink:title="SLMesh.h">
<polygon fill="white" stroke="black" points="1836.5,-224.5 1836.5,-243.5 1899.5,-243.5 1899.5,-224.5 1836.5,-224.5"/>
<text text-anchor="middle" x="1868" y="-231.5" font-family="Arial.ttf" font-size="10.00">SLMesh.h</text>
</a>
</g>
<!-- Node1&#45;&gt;Node15 -->
<g id="edge242" class="edge"><title>Node1&#45;&gt;Node15</title>
<path fill="none" stroke="midnightblue" d="M1828,-672.442C1828,-653.936 1828,-608.813 1828,-571 1828,-571 1828,-571 1828,-401 1828,-346.084 1848.95,-283.721 1860.52,-253.445"/>
<polygon fill="midnightblue" stroke="midnightblue" points="1863.91,-254.403 1864.31,-243.816 1857.39,-251.842 1863.91,-254.403"/>
</g>
<!-- Node20 -->
<g id="node64" class="node"><title>Node20</title>
<a xlink:href="_s_l_animation_8h.html" target="_top" xlink:title="SLAnimation.h">
<polygon fill="white" stroke="black" points="333,-392.5 333,-411.5 419,-411.5 419,-392.5 333,-392.5"/>
<text text-anchor="middle" x="376" y="-399.5" font-family="Arial.ttf" font-size="10.00">SLAnimation.h</text>
</a>
</g>
<!-- Node1&#45;&gt;Node20 -->
<g id="edge198" class="edge"><title>Node1&#45;&gt;Node20</title>
<path fill="none" stroke="midnightblue" d="M1768.34,-681.303C1603.02,-681.55 1125.21,-678.249 731,-636 563.682,-618.068 358,-739.276 358,-571 358,-571 358,-571 358,-513 358,-480.537 365.73,-443.384 371.058,-421.628"/>
<polygon fill="midnightblue" stroke="midnightblue" points="374.495,-422.315 373.572,-411.76 367.712,-420.587 374.495,-422.315"/>
</g>
<!-- Node22 -->
<g id="node71" class="node"><title>Node22</title>
<a xlink:href="_s_l_keyframe_8h.html" target="_top" xlink:title="SLKeyframe.h">
<polygon fill="white" stroke="black" points="66.5,-168.5 66.5,-187.5 149.5,-187.5 149.5,-168.5 66.5,-168.5"/>
<text text-anchor="middle" x="108" y="-175.5" font-family="Arial.ttf" font-size="10.00">SLKeyframe.h</text>
</a>
</g>
<!-- Node1&#45;&gt;Node22 -->
<g id="edge196" class="edge"><title>Node1&#45;&gt;Node22</title>
<path fill="none" stroke="midnightblue" d="M1768.14,-680.863C1528.95,-680.054 641.214,-674.467 363,-636 244.583,-619.627 102,-690.543 102,-571 102,-571 102,-571 102,-289 102,-256.9 104.579,-219.61 106.355,-197.732"/>
<polygon fill="midnightblue" stroke="midnightblue" points="109.861,-197.808 107.216,-187.549 102.886,-197.219 109.861,-197.808"/>
</g>
<!-- Node25 -->
<g id="node83" class="node"><title>Node25</title>
<a xlink:href="_s_l_camera_8h.html" target="_top" xlink:title="SLCamera.h">
<polygon fill="white" stroke="black" points="1268,-336.5 1268,-355.5 1344,-355.5 1344,-336.5 1268,-336.5"/>
<text text-anchor="middle" x="1306" y="-343.5" font-family="Arial.ttf" font-size="10.00">SLCamera.h</text>
</a>
</g>
<!-- Node1&#45;&gt;Node25 -->
<g id="edge222" class="edge"><title>Node1&#45;&gt;Node25</title>
<path fill="none" stroke="midnightblue" d="M1785.39,-672.453C1724.36,-659.011 1609.85,-629.257 1523,-580 1418.43,-520.69 1367.44,-518.147 1311,-412 1303.44,-397.791 1302.74,-379.314 1303.61,-365.693"/>
<polygon fill="midnightblue" stroke="midnightblue" points="1307.1,-365.886 1304.59,-355.595 1300.14,-365.209 1307.1,-365.886"/>
</g>
<!-- Node29 -->
<g id="node100" class="node"><title>Node29</title>
<a xlink:href="_s_l_anim_manager_8h.html" target="_top" xlink:title="SLAnimManager.h">
<polygon fill="white" stroke="black" points="412,-504.5 412,-523.5 516,-523.5 516,-504.5 412,-504.5"/>
<text text-anchor="middle" x="464" y="-511.5" font-family="Arial.ttf" font-size="10.00">SLAnimManager.h</text>
</a>
</g>
<!-- Node1&#45;&gt;Node29 -->
<g id="edge200" class="edge"><title>Node1&#45;&gt;Node29</title>
<path fill="none" stroke="midnightblue" d="M1768.33,-680.865C1620.63,-679.933 1226.27,-673.79 900,-636 763.528,-620.193 726.416,-623.199 596,-580 556.007,-566.752 512.756,-543.595 487.046,-528.796"/>
<polygon fill="midnightblue" stroke="midnightblue" points="488.495,-525.589 478.094,-523.571 484.966,-531.635 488.495,-525.589"/>
</g>
<!-- Node31 -->
<g id="node110" class="node"><title>Node31</title>
<a xlink:href="_s_l_scene_view_8h.html" target="_top" xlink:title="SLSceneView.h">
<polygon fill="white" stroke="black" points="1061.5,-616.5 1061.5,-635.5 1150.5,-635.5 1150.5,-616.5 1061.5,-616.5"/>
<text text-anchor="middle" x="1106" y="-623.5" font-family="Arial.ttf" font-size="10.00">SLSceneView.h</text>
</a>
</g>
<!-- Node1&#45;&gt;Node31 -->
<g id="edge158" class="edge"><title>Node1&#45;&gt;Node31</title>
<path fill="none" stroke="midnightblue" d="M1768.3,-676.535C1630.97,-666.263 1294.24,-641.079 1161.29,-631.135"/>
<polygon fill="midnightblue" stroke="midnightblue" points="1161.18,-627.617 1150.94,-630.361 1160.65,-634.598 1161.18,-627.617"/>
</g>
<!-- Node35 -->
<g id="node136" class="node"><title>Node35</title>
<a xlink:href="_s_l_assimp_importer_8h.html" target="_top" xlink:title="SLAssimpImporter.h">
<polygon fill="white" stroke="black" points="1532,-560.5 1532,-579.5 1646,-579.5 1646,-560.5 1532,-560.5"/>
<text text-anchor="middle" x="1589" y="-567.5" font-family="Arial.ttf" font-size="10.00">SLAssimpImporter.h</text>
</a>
</g>
<!-- Node1&#45;&gt;Node35 -->
<g id="edge202" class="edge"><title>Node1&#45;&gt;Node35</title>
<path fill="none" stroke="midnightblue" d="M1803.67,-672.494C1779.96,-663.99 1743.05,-650.169 1712,-636 1676.7,-619.89 1637.26,-598.397 1612.78,-584.625"/>
<polygon fill="midnightblue" stroke="midnightblue" points="1614.29,-581.461 1603.87,-579.579 1610.84,-587.552 1614.29,-581.461"/>
</g>
<!-- Node37 -->
<g id="node149" class="node"><title>Node37</title>
<a xlink:href="_s_l_light_sphere_8h.html" target="_top" xlink:title="SLLightSphere.h">
<polygon fill="white" stroke="black" points="2046.5,-336.5 2046.5,-355.5 2141.5,-355.5 2141.5,-336.5 2046.5,-336.5"/>
<text text-anchor="middle" x="2094" y="-343.5" font-family="Arial.ttf" font-size="10.00">SLLightSphere.h</text>
</a>
</g>
<!-- Node1&#45;&gt;Node37 -->
<g id="edge224" class="edge"><title>Node1&#45;&gt;Node37</title>
<path fill="none" stroke="midnightblue" d="M1887.56,-674.242C1939.82,-667.194 2010.71,-654.562 2032,-636 2055.21,-615.761 2056,-601.795 2056,-571 2056,-571 2056,-571 2056,-457 2056,-422.813 2072.6,-385.764 2083.86,-364.571"/>
<polygon fill="midnightblue" stroke="midnightblue" points="2086.95,-366.215 2088.72,-355.769 2080.82,-362.832 2086.95,-366.215"/>
</g>
<!-- Node38 -->
<g id="node155" class="node"><title>Node38</title>
<a xlink:href="_s_l_light_rect_8h.html" target="_top" xlink:title="SLLightRect.h">
<polygon fill="white" stroke="black" points="2309,-336.5 2309,-355.5 2391,-355.5 2391,-336.5 2309,-336.5"/>
<text text-anchor="middle" x="2350" y="-343.5" font-family="Arial.ttf" font-size="10.00">SLLightRect.h</text>
</a>
</g>
<!-- Node1&#45;&gt;Node38 -->
<g id="edge234" class="edge"><title>Node1&#45;&gt;Node38</title>
<path fill="none" stroke="midnightblue" d="M1887.57,-678.349C1985.56,-670.442 2170,-639.079 2170,-515 2170,-515 2170,-515 2170,-457 2170,-396.274 2245.51,-368.065 2298.72,-355.727"/>
<polygon fill="midnightblue" stroke="midnightblue" points="2299.69,-359.098 2308.7,-353.535 2298.19,-352.261 2299.69,-359.098"/>
</g>
<!-- Node39 -->
<g id="node161" class="node"><title>Node39</title>
<a xlink:href="_s_l_polygon_8h.html" target="_top" xlink:title="SLPolygon.h">
<polygon fill="white" stroke="black" points="2080.5,-280.5 2080.5,-299.5 2155.5,-299.5 2155.5,-280.5 2080.5,-280.5"/>
<text text-anchor="middle" x="2118" y="-287.5" font-family="Arial.ttf" font-size="10.00">SLPolygon.h</text>
</a>
</g>
<!-- Node1&#45;&gt;Node39 -->
<g id="edge244" class="edge"><title>Node1&#45;&gt;Node39</title>
<path fill="none" stroke="midnightblue" d="M1833.28,-672.231C1843.73,-654.043 1866,-610.601 1866,-571 1866,-571 1866,-571 1866,-401 1866,-356.89 1997.33,-319.14 2070.37,-301.556"/>
<polygon fill="midnightblue" stroke="midnightblue" points="2071.35,-304.921 2080.27,-299.21 2069.74,-298.11 2071.35,-304.921"/>
</g>
<!-- Node40 -->
<g id="node165" class="node"><title>Node40</title>
<a xlink:href="_s_l_box_8h.html" target="_top" xlink:title="SLBox.h">
<polygon fill="white" stroke="black" points="1742,-280.5 1742,-299.5 1798,-299.5 1798,-280.5 1742,-280.5"/>
<text text-anchor="middle" x="1770" y="-287.5" font-family="Arial.ttf" font-size="10.00">SLBox.h</text>
</a>
</g>
<!-- Node1&#45;&gt;Node40 -->
<g id="edge250" class="edge"><title>Node1&#45;&gt;Node40</title>
<path fill="none" stroke="midnightblue" d="M1822.72,-672.231C1812.27,-654.043 1790,-610.601 1790,-571 1790,-571 1790,-571 1790,-401 1790,-368.438 1781.41,-331.315 1775.49,-309.592"/>
<polygon fill="midnightblue" stroke="midnightblue" points="1778.79,-308.408 1772.7,-299.742 1772.06,-310.317 1778.79,-308.408"/>
</g>
<!-- Node41 -->
<g id="node170" class="node"><title>Node41</title>
<a xlink:href="_s_l_cone_8h.html" target="_top" xlink:title="SLCone.h">
<polygon fill="white" stroke="black" points="2122,-616.5 2122,-635.5 2184,-635.5 2184,-616.5 2122,-616.5"/>
<text text-anchor="middle" x="2153" y="-623.5" font-family="Arial.ttf" font-size="10.00">SLCone.h</text>
</a>
</g>
<!-- Node1&#45;&gt;Node41 -->
<g id="edge258" class="edge"><title>Node1&#45;&gt;Node41</title>
<path fill="none" stroke="midnightblue" d="M1884.95,-672.496C1941.6,-663.885 2030.96,-649.89 2108,-636 2109.1,-635.802 2110.21,-635.599 2111.33,-635.392"/>
<polygon fill="midnightblue" stroke="midnightblue" points="2112.39,-638.754 2121.56,-633.447 2111.08,-631.877 2112.39,-638.754"/>
</g>
<!-- Node43 -->
<g id="node176" class="node"><title>Node43</title>
<a xlink:href="_s_l_cylinder_8h.html" target="_top" xlink:title="SLCylinder.h">
<polygon fill="white" stroke="black" points="2202,-616.5 2202,-635.5 2278,-635.5 2278,-616.5 2202,-616.5"/>
<text text-anchor="middle" x="2240" y="-623.5" font-family="Arial.ttf" font-size="10.00">SLCylinder.h</text>
</a>
</g>
<!-- Node1&#45;&gt;Node43 -->
<g id="edge266" class="edge"><title>Node1&#45;&gt;Node43</title>
<path fill="none" stroke="midnightblue" d="M1887.6,-674.884C1957.95,-667.388 2078.69,-653.662 2191.94,-636.079"/>
<polygon fill="midnightblue" stroke="midnightblue" points="2192.48,-639.537 2201.82,-634.532 2191.4,-632.621 2192.48,-639.537"/>
</g>
<!-- Node44 -->
<g id="node179" class="node"><title>Node44</title>
<a xlink:href="_s_l_disk_8h.html" target="_top" xlink:title="SLDisk.h">
<polygon fill="white" stroke="black" points="2296,-616.5 2296,-635.5 2354,-635.5 2354,-616.5 2296,-616.5"/>
<text text-anchor="middle" x="2325" y="-623.5" font-family="Arial.ttf" font-size="10.00">SLDisk.h</text>
</a>
</g>
<!-- Node1&#45;&gt;Node44 -->
<g id="edge270" class="edge"><title>Node1&#45;&gt;Node44</title>
<path fill="none" stroke="midnightblue" d="M1887.75,-677.721C1973.69,-672.437 2137.28,-660.256 2285.43,-636.059"/>
<polygon fill="midnightblue" stroke="midnightblue" points="2286.33,-639.458 2295.62,-634.371 2285.18,-632.552 2286.33,-639.458"/>
</g>
<!-- Node45 -->
<g id="node183" class="node"><title>Node45</title>
<a xlink:href="_s_l_sphere_8h.html" target="_top" xlink:title="SLSphere.h">
<polygon fill="white" stroke="black" points="2372,-616.5 2372,-635.5 2444,-635.5 2444,-616.5 2372,-616.5"/>
<text text-anchor="middle" x="2408" y="-623.5" font-family="Arial.ttf" font-size="10.00">SLSphere.h</text>
</a>
</g>
<!-- Node1&#45;&gt;Node45 -->
<g id="edge276" class="edge"><title>Node1&#45;&gt;Node45</title>
<path fill="none" stroke="midnightblue" d="M1887.62,-678.198C1984.86,-673.143 2183.78,-660.775 2361.65,-636.041"/>
<polygon fill="midnightblue" stroke="midnightblue" points="2362.3,-639.485 2371.71,-634.625 2361.32,-632.553 2362.3,-639.485"/>
</g>
<!-- Node46 -->
<g id="node187" class="node"><title>Node46</title>
<a xlink:href="_s_l_rectangle_8h.html" target="_top" xlink:title="SLRectangle.h">
<polygon fill="white" stroke="black" points="2212.5,-280.5 2212.5,-299.5 2297.5,-299.5 2297.5,-280.5 2212.5,-280.5"/>
<text text-anchor="middle" x="2255" y="-287.5" font-family="Arial.ttf" font-size="10.00">SLRectangle.h</text>
</a>
</g>
<!-- Node1&#45;&gt;Node46 -->
<g id="edge282" class="edge"><title>Node1&#45;&gt;Node46</title>
<path fill="none" stroke="midnightblue" d="M1848.64,-672.421C1881.5,-657.231 1942,-622.293 1942,-571 1942,-571 1942,-571 1942,-513 1942,-429.647 1940.55,-390.056 2004,-336 2007.79,-332.774 2130.06,-311.883 2202.52,-299.731"/>
<polygon fill="midnightblue" stroke="midnightblue" points="2203.11,-303.181 2212.4,-298.077 2201.96,-296.277 2203.11,-303.181"/>
</g>
<!-- Node47 -->
<g id="node191" class="node"><title>Node47</title>
<a xlink:href="_s_l_text_8h.html" target="_top" xlink:title="SLText.h">
<polygon fill="white" stroke="black" points="1618,-336.5 1618,-355.5 1676,-355.5 1676,-336.5 1618,-336.5"/>
<text text-anchor="middle" x="1647" y="-343.5" font-family="Arial.ttf" font-size="10.00">SLText.h</text>
</a>
</g>
<!-- Node1&#45;&gt;Node47 -->
<g id="edge288" class="edge"><title>Node1&#45;&gt;Node47</title>
<path fill="none" stroke="midnightblue" d="M1815.03,-672.292C1803.55,-664.048 1786.96,-650.762 1776,-636 1708.54,-545.14 1666.13,-413.421 1652.13,-365.397"/>
<polygon fill="midnightblue" stroke="midnightblue" points="1655.49,-364.411 1649.37,-355.756 1648.76,-366.333 1655.49,-364.411"/>
</g>
<!-- Node49 -->
<g id="node202" class="node"><title>Node49</title>
<a xlink:href="_s_l_grid_8h.html" target="_top" xlink:title="SLGrid.h">
<polygon fill="white" stroke="black" points="2315.5,-280.5 2315.5,-299.5 2372.5,-299.5 2372.5,-280.5 2315.5,-280.5"/>
<text text-anchor="middle" x="2344" y="-287.5" font-family="Arial.ttf" font-size="10.00">SLGrid.h</text>
</a>
</g>
<!-- Node1&#45;&gt;Node49 -->
<g id="edge306" class="edge"><title>Node1&#45;&gt;Node49</title>
<path fill="none" stroke="midnightblue" d="M1885.52,-672.485C1941.44,-660.565 2018,-632.938 2018,-571 2018,-571 2018,-571 2018,-401 2018,-370.902 2014.17,-355.612 2037,-336 2080.6,-298.542 2231.58,-309.744 2305.16,-299.728"/>
<polygon fill="midnightblue" stroke="midnightblue" points="2306.11,-303.121 2315.43,-298.088 2305,-296.209 2306.11,-303.121"/>
</g>
<!-- Node50 -->
<g id="node206" class="node"><title>Node50</title>
<a xlink:href="_s_l_lens_8h.html" target="_top" xlink:title="SLLens.h">
<polygon fill="white" stroke="black" points="2462,-616.5 2462,-635.5 2522,-635.5 2522,-616.5 2462,-616.5"/>
<text text-anchor="middle" x="2492" y="-623.5" font-family="Arial.ttf" font-size="10.00">SLLens.h</text>
</a>
</g>
<!-- Node1&#45;&gt;Node50 -->
<g id="edge312" class="edge"><title>Node1&#45;&gt;Node50</title>
<path fill="none" stroke="midnightblue" d="M1887.8,-679.772C1997.71,-676.846 2239.29,-667.3 2451.76,-635.952"/>
<polygon fill="midnightblue" stroke="midnightblue" points="2452.48,-639.383 2461.85,-634.442 2451.45,-632.46 2452.48,-639.383"/>
</g>
<!-- Node3&#45;&gt;Node2 -->
<g id="edge6" class="edge"><title>Node3&#45;&gt;Node2</title>
<path fill="none" stroke="midnightblue" d="M604.807,-566.947C526.94,-561.914 338.627,-547.622 280,-524 153.661,-473.094 178,-371.21 178,-235 178,-235 178,-235 178,-121 178,-82.2823 200.997,-72.5476 236,-56 333.452,-9.9305 1114.56,-10.1313 1296.31,-10.8111"/>
<polygon fill="midnightblue" stroke="midnightblue" points="1296.43,-14.3115 1306.45,-10.8519 1296.46,-7.31155 1296.43,-14.3115"/>
</g>
<!-- Node4 -->
<g id="node8" class="node"><title>Node4</title>
<a xlink:href="_s_l_background_8h.html" target="_top" xlink:title="SLBackground.h">
<polygon fill="white" stroke="black" points="1058.5,-112.5 1058.5,-131.5 1153.5,-131.5 1153.5,-112.5 1058.5,-112.5"/>
<text text-anchor="middle" x="1106" y="-119.5" font-family="Arial.ttf" font-size="10.00">SLBackground.h</text>
</a>
</g>
<!-- Node3&#45;&gt;Node4 -->
<g id="edge8" class="edge"><title>Node3&#45;&gt;Node4</title>
<path fill="none" stroke="midnightblue" d="M673.168,-565.721C761.757,-556.279 992,-525.358 992,-459 992,-459 992,-459 992,-401 992,-294.793 1064.11,-181.679 1093.63,-139.824"/>
<polygon fill="midnightblue" stroke="midnightblue" points="1096.55,-141.748 1099.54,-131.584 1090.87,-137.665 1096.55,-141.748"/>
</g>
<!-- Node6 -->
<g id="node14" class="node"><title>Node6</title>
<a xlink:href="_s_l_material_8h.html" target="_top" xlink:title="SLMaterial.h">
<polygon fill="white" stroke="black" points="502,-224.5 502,-243.5 578,-243.5 578,-224.5 502,-224.5"/>
<text text-anchor="middle" x="540" y="-231.5" font-family="Arial.ttf" font-size="10.00">SLMaterial.h</text>
</a>
</g>
<!-- Node3&#45;&gt;Node6 -->
<g id="edge16" class="edge"><title>Node3&#45;&gt;Node6</title>
<path fill="none" stroke="midnightblue" d="M604.868,-565.657C547.785,-559.552 435.957,-545.239 403,-524 351.796,-491.003 342.418,-470.064 324,-412 296.092,-324.016 429.161,-269.003 499.206,-246.582"/>
<polygon fill="midnightblue" stroke="midnightblue" points="500.552,-249.829 509.057,-243.511 498.468,-243.146 500.552,-249.829"/>
</g>
<!-- Node11 -->
<g id="node30" class="node"><title>Node11</title>
<a xlink:href="_s_l_event_handler_8h.html" target="_top" xlink:title="SLEventHandler.h">
<polygon fill="white" stroke="black" points="672,-224.5 672,-243.5 774,-243.5 774,-224.5 672,-224.5"/>
<text text-anchor="middle" x="723" y="-231.5" font-family="Arial.ttf" font-size="10.00">SLEventHandler.h</text>
</a>
</g>
<!-- Node3&#45;&gt;Node11 -->
<g id="edge38" class="edge"><title>Node3&#45;&gt;Node11</title>
<path fill="none" stroke="midnightblue" d="M636.438,-560.249C631.251,-541.738 620,-497.179 620,-459 620,-459 620,-459 620,-345 620,-312.8 630.486,-303.958 652,-280 663.918,-266.728 680.64,-255.871 694.862,-248.149"/>
<polygon fill="midnightblue" stroke="midnightblue" points="696.503,-251.241 703.772,-243.533 693.283,-245.026 696.503,-251.241"/>
</g>
<!-- Node13 -->
<g id="node35" class="node"><title>Node13</title>
<a xlink:href="_s_l_light_8h.html" target="_top" xlink:title="SLLight.h">
<polygon fill="white" stroke="black" points="2429.5,-280.5 2429.5,-299.5 2490.5,-299.5 2490.5,-280.5 2429.5,-280.5"/>
<text text-anchor="middle" x="2460" y="-287.5" font-family="Arial.ttf" font-size="10.00">SLLight.h</text>
</a>
</g>
<!-- Node3&#45;&gt;Node13 -->
<g id="edge44" class="edge"><title>Node3&#45;&gt;Node13</title>
<path fill="none" stroke="midnightblue" d="M673.388,-568.328C820.802,-565.296 1399.98,-551.817 1580,-524 1666.16,-510.686 2257.57,-347.221 2419.24,-302.337"/>
<polygon fill="midnightblue" stroke="midnightblue" points="2420.55,-305.603 2429.25,-299.554 2418.68,-298.858 2420.55,-305.603"/>
</g>
<!-- Node14 -->
<g id="node38" class="node"><title>Node14</title>
<a xlink:href="_s_l_node_8h.html" target="_top" xlink:title="SLNode.h">
<polygon fill="white" stroke="black" points="1036.5,-280.5 1036.5,-299.5 1099.5,-299.5 1099.5,-280.5 1036.5,-280.5"/>
<text text-anchor="middle" x="1068" y="-287.5" font-family="Arial.ttf" font-size="10.00">SLNode.h</text>
</a>
</g>
<!-- Node3&#45;&gt;Node14 -->
<g id="edge48" class="edge"><title>Node3&#45;&gt;Node14</title>
<path fill="none" stroke="midnightblue" d="M654.99,-560.481C671.445,-551.631 697.744,-537.247 720,-524 799.671,-476.576 818.952,-463.576 896,-412 951.504,-374.845 1015.52,-329.002 1047.53,-305.861"/>
<polygon fill="midnightblue" stroke="midnightblue" points="1049.99,-308.402 1056.04,-299.703 1045.89,-302.732 1049.99,-308.402"/>
</g>
<!-- Node18 -->
<g id="node57" class="node"><title>Node18</title>
<a xlink:href="_s_l_skeleton_8h.html" target="_top" xlink:title="SLSkeleton.h">
<polygon fill="white" stroke="black" points="512,-448.5 512,-467.5 592,-467.5 592,-448.5 512,-448.5"/>
<text text-anchor="middle" x="552" y="-455.5" font-family="Arial.ttf" font-size="10.00">SLSkeleton.h</text>
</a>
</g>
<!-- Node3&#45;&gt;Node18 -->
<g id="edge78" class="edge"><title>Node3&#45;&gt;Node18</title>
<path fill="none" stroke="midnightblue" d="M632.173,-560.368C617.752,-542.135 583.973,-499.426 565.189,-475.675"/>
<polygon fill="midnightblue" stroke="midnightblue" points="567.744,-473.264 558.795,-467.591 562.253,-477.606 567.744,-473.264"/>
</g>
<!-- Node24 -->
<g id="node80" class="node"><title>Node24</title>
<a xlink:href="_s_l_g_l_oculus_8h.html" target="_top" xlink:title="SLGLOculus.h">
<polygon fill="white" stroke="black" points="804.5,-392.5 804.5,-411.5 887.5,-411.5 887.5,-392.5 804.5,-392.5"/>
<text text-anchor="middle" x="846" y="-399.5" font-family="Arial.ttf" font-size="10.00">SLGLOculus.h</text>
</a>
</g>
<!-- Node3&#45;&gt;Node24 -->
<g id="edge112" class="edge"><title>Node3&#45;&gt;Node24</title>
<path fill="none" stroke="midnightblue" d="M649.838,-560.309C683.303,-533.472 785.28,-451.694 827.448,-417.878"/>
<polygon fill="midnightblue" stroke="midnightblue" points="829.658,-420.592 835.27,-411.605 825.279,-415.131 829.658,-420.592"/>
</g>
<!-- Node3&#45;&gt;Node29 -->
<g id="edge142" class="edge"><title>Node3&#45;&gt;Node29</title>
<path fill="none" stroke="midnightblue" d="M611.271,-560.444C581.574,-551.28 534.284,-536.688 501.331,-526.519"/>
<polygon fill="midnightblue" stroke="midnightblue" points="502.187,-523.121 491.6,-523.516 500.123,-529.809 502.187,-523.121"/>
</g>
<!-- Node30 -->
<g id="node107" class="node"><title>Node30</title>
<a xlink:href="_s_l_average_8h.html" target="_top" xlink:title="SLAverage.h">
<polygon fill="white" stroke="black" points="214.5,-448.5 214.5,-467.5 291.5,-467.5 291.5,-448.5 214.5,-448.5"/>
<text text-anchor="middle" x="253" y="-455.5" font-family="Arial.ttf" font-size="10.00">SLAverage.h</text>
</a>
</g>
<!-- Node3&#45;&gt;Node30 -->
<g id="edge154" class="edge"><title>Node3&#45;&gt;Node30</title>
<path fill="none" stroke="midnightblue" d="M604.918,-567.547C530.643,-563.88 356.772,-552.435 306,-524 286.617,-513.144 271.512,-492.139 262.471,-476.939"/>
<polygon fill="midnightblue" stroke="midnightblue" points="265.371,-474.957 257.421,-467.954 259.269,-478.386 265.371,-474.957"/>
</g>
<!-- Node4&#45;&gt;Node2 -->
<g id="edge10" class="edge"><title>Node4&#45;&gt;Node2</title>
<path fill="none" stroke="midnightblue" d="M1109.13,-112.322C1114.68,-98.2231 1127.62,-70.4642 1148,-56 1192.39,-24.491 1256.16,-14.8819 1296.31,-12.0467"/>
<polygon fill="midnightblue" stroke="midnightblue" points="1296.7,-15.5294 1306.48,-11.4381 1296.29,-8.54191 1296.7,-15.5294"/>
</g>
<!-- Node5 -->
<g id="node11" class="node"><title>Node5</title>
<a xlink:href="_s_l_g_l_vertex_array_8h.html" target="_top" xlink:title="SLGLVertexArray.h">
<polygon fill="white" stroke="red" points="1487.5,-56.5 1487.5,-75.5 1594.5,-75.5 1594.5,-56.5 1487.5,-56.5"/>
<text text-anchor="middle" x="1541" y="-63.5" font-family="Arial.ttf" font-size="10.00">SLGLVertexArray.h</text>
</a>
</g>
<!-- Node4&#45;&gt;Node5 -->
<g id="edge12" class="edge"><title>Node4&#45;&gt;Node5</title>
<path fill="none" stroke="midnightblue" d="M1153.8,-115.067C1232.45,-105.302 1389.22,-85.8422 1477.24,-74.9153"/>
<polygon fill="midnightblue" stroke="midnightblue" points="1477.87,-78.364 1487.36,-73.6586 1477.01,-71.4173 1477.87,-78.364"/>
</g>
<!-- Node5&#45;&gt;Node2 -->
<g id="edge14" class="edge"><title>Node5&#45;&gt;Node2</title>
<path fill="none" stroke="midnightblue" d="M1508.2,-56.4435C1471.05,-46.7521 1410.62,-30.9879 1371.6,-20.8075"/>
<polygon fill="midnightblue" stroke="midnightblue" points="1372.24,-17.3579 1361.68,-18.2203 1370.47,-24.1313 1372.24,-17.3579"/>
</g>
<!-- Node6&#45;&gt;Node2 -->
<g id="edge18" class="edge"><title>Node6&#45;&gt;Node2</title>
<path fill="none" stroke="midnightblue" d="M535.541,-224.325C529.466,-211.182 520.478,-185.866 531,-168 583.096,-79.5473 634.647,-85.403 733,-56 839.327,-24.213 1182.1,-14.2072 1296.46,-11.7112"/>
<polygon fill="midnightblue" stroke="midnightblue" points="1296.57,-15.2099 1306.49,-11.499 1296.42,-8.21142 1296.57,-15.2099"/>
</g>
<!-- Node7 -->
<g id="node17" class="node"><title>Node7</title>
<a xlink:href="_s_l_draw_bits_8h.html" target="_top" xlink:title="SLDrawBits.h">
<polygon fill="white" stroke="black" points="724,-168.5 724,-187.5 804,-187.5 804,-168.5 724,-168.5"/>
<text text-anchor="middle" x="764" y="-175.5" font-family="Arial.ttf" font-size="10.00">SLDrawBits.h</text>
</a>
</g>
<!-- Node6&#45;&gt;Node7 -->
<g id="edge20" class="edge"><title>Node6&#45;&gt;Node7</title>
<path fill="none" stroke="midnightblue" d="M575.493,-224.444C614.324,-215.083 676.656,-200.056 718.918,-189.868"/>
<polygon fill="midnightblue" stroke="midnightblue" points="719.771,-193.263 728.673,-187.516 718.131,-186.458 719.771,-193.263"/>
</g>
<!-- Node8 -->
<g id="node20" class="node"><title>Node8</title>
<a xlink:href="_s_l_g_l_texture_8h.html" target="_top" xlink:title="SLGLTexture.h">
<polygon fill="white" stroke="red" points="1514,-168.5 1514,-187.5 1600,-187.5 1600,-168.5 1514,-168.5"/>
<text text-anchor="middle" x="1557" y="-175.5" font-family="Arial.ttf" font-size="10.00">SLGLTexture.h</text>
</a>
</g>
<!-- Node6&#45;&gt;Node8 -->
<g id="edge24" class="edge"><title>Node6&#45;&gt;Node8</title>
<path fill="none" stroke="midnightblue" d="M578.214,-229.979C602.488,-228.116 634.577,-225.755 663,-224 981.593,-204.328 1364.46,-187.255 1503.37,-181.274"/>
<polygon fill="midnightblue" stroke="midnightblue" points="1503.88,-184.755 1513.72,-180.829 1503.58,-177.761 1503.88,-184.755"/>
</g>
<!-- Node9 -->
<g id="node24" class="node"><title>Node9</title>
<a xlink:href="_s_l_g_l_program_8h.html" target="_top" xlink:title="SLGLProgram.h">
<polygon fill="white" stroke="red" points="650,-112.5 650,-131.5 742,-131.5 742,-112.5 650,-112.5"/>
<text text-anchor="middle" x="696" y="-119.5" font-family="Arial.ttf" font-size="10.00">SLGLProgram.h</text>
</a>
</g>
<!-- Node6&#45;&gt;Node9 -->
<g id="edge30" class="edge"><title>Node6&#45;&gt;Node9</title>
<path fill="none" stroke="midnightblue" d="M578.141,-224.675C613.664,-216.198 663.161,-202.304 677,-188 688.869,-175.733 693.387,-156.473 695.074,-142.098"/>
<polygon fill="midnightblue" stroke="midnightblue" points="698.586,-142.094 695.906,-131.843 691.609,-141.527 698.586,-142.094"/>
</g>
<!-- Node10 -->
<g id="node27" class="node"><title>Node10</title>
<a xlink:href="_s_l_g_l_generic_program_8h.html" target="_top" xlink:title="SLGLGenericProgram.h">
<polygon fill="white" stroke="red" points="540,-168.5 540,-187.5 668,-187.5 668,-168.5 540,-168.5"/>
<text text-anchor="middle" x="604" y="-175.5" font-family="Arial.ttf" font-size="10.00">SLGLGenericProgram.h</text>
</a>
</g>
<!-- Node6&#45;&gt;Node10 -->
<g id="edge34" class="edge"><title>Node6&#45;&gt;Node10</title>
<path fill="none" stroke="midnightblue" d="M550.283,-224.324C559.836,-216.263 574.28,-204.077 585.784,-194.369"/>
<polygon fill="midnightblue" stroke="midnightblue" points="588.144,-196.958 593.53,-187.834 583.63,-191.608 588.144,-196.958"/>
</g>
<!-- Node7&#45;&gt;Node2 -->
<g id="edge22" class="edge"><title>Node7&#45;&gt;Node2</title>
<path fill="none" stroke="midnightblue" d="M764.915,-168.435C767.847,-145.69 779.217,-83.6296 818,-56 856.712,-28.4209 1183.45,-15.702 1296.04,-12.1092"/>
<polygon fill="midnightblue" stroke="midnightblue" points="1296.37,-15.6008 1306.26,-11.7898 1296.15,-8.60426 1296.37,-15.6008"/>
</g>
<!-- Node8&#45;&gt;Node2 -->
<g id="edge26" class="edge"><title>Node8&#45;&gt;Node2</title>
<path fill="none" stroke="midnightblue" d="M1565.59,-168.382C1585.82,-147.051 1632.62,-90.9907 1603,-56 1573.81,-21.5252 1438.72,-13.4422 1371.79,-11.5613"/>
<polygon fill="midnightblue" stroke="midnightblue" points="1371.74,-8.05916 1361.66,-11.3096 1371.57,-15.057 1371.74,-8.05916"/>
</g>
<!-- Node8&#45;&gt;Node5 -->
<g id="edge28" class="edge"><title>Node8&#45;&gt;Node5</title>
<path fill="none" stroke="midnightblue" d="M1561.05,-168.467C1566.44,-155.927 1574.67,-131.861 1569,-112 1566.1,-101.844 1560.17,-91.747 1554.51,-83.6991"/>
<polygon fill="midnightblue" stroke="midnightblue" points="1557.22,-81.4786 1548.41,-75.5891 1551.62,-85.6853 1557.22,-81.4786"/>
</g>
<!-- Node9&#45;&gt;Node2 -->
<g id="edge32" class="edge"><title>Node9&#45;&gt;Node2</title>
<path fill="none" stroke="midnightblue" d="M702.387,-112.33C713.724,-97.7105 738.925,-68.5281 768,-56 863.482,-14.8584 1185.91,-10.9643 1296.45,-10.8679"/>
<polygon fill="midnightblue" stroke="midnightblue" points="1296.47,-14.3678 1306.47,-10.8693 1296.47,-7.36782 1296.47,-14.3678"/>
</g>
<!-- Node10&#45;&gt;Node9 -->
<g id="edge36" class="edge"><title>Node10&#45;&gt;Node9</title>
<path fill="none" stroke="midnightblue" d="M618.781,-168.324C633.267,-159.822 655.573,-146.729 672.493,-136.797"/>
<polygon fill="midnightblue" stroke="midnightblue" points="674.403,-139.735 681.255,-131.655 670.859,-133.698 674.403,-139.735"/>
</g>
<!-- Node11&#45;&gt;Node2 -->
<g id="edge40" class="edge"><title>Node11&#45;&gt;Node2</title>
<path fill="none" stroke="midnightblue" d="M774.245,-224.666C798.729,-218.315 826.805,-207.233 846,-188 890.098,-143.816 844.76,-94.371 894,-56 925.443,-31.4976 1195.37,-17.1373 1296.21,-12.5871"/>
<polygon fill="midnightblue" stroke="midnightblue" points="1296.43,-16.081 1306.26,-12.1408 1296.12,-9.08787 1296.43,-16.081"/>
</g>
<!-- Node12 -->
<g id="node33" class="node"><title>Node12</title>
<a xlink:href="_s_l_enums_8h.html" target="_top" xlink:title="SLEnums.h">
<polygon fill="white" stroke="black" points="974.5,-168.5 974.5,-187.5 1045.5,-187.5 1045.5,-168.5 974.5,-168.5"/>
<text text-anchor="middle" x="1010" y="-175.5" font-family="Arial.ttf" font-size="10.00">SLEnums.h</text>
</a>
</g>
<!-- Node11&#45;&gt;Node12 -->
<g id="edge42" class="edge"><title>Node11&#45;&gt;Node12</title>
<path fill="none" stroke="midnightblue" d="M768.476,-224.444C822.081,-214.358 910.642,-197.695 964.33,-187.593"/>
<polygon fill="midnightblue" stroke="midnightblue" points="965.077,-191.014 974.258,-185.725 963.783,-184.135 965.077,-191.014"/>
</g>
<!-- Node13&#45;&gt;Node2 -->
<g id="edge46" class="edge"><title>Node13&#45;&gt;Node2</title>
<path fill="none" stroke="midnightblue" d="M2458.69,-280.466C2455.98,-262.007 2450,-216.968 2450,-179 2450,-179 2450,-179 2450,-121 2450,-88.1893 2442.81,-73.4072 2415,-56 2369.9,-27.7731 1557.67,-14.259 1371.71,-11.5273"/>
<polygon fill="midnightblue" stroke="midnightblue" points="1371.65,-8.02614 1361.6,-11.3804 1371.55,-15.0254 1371.65,-8.02614"/>
</g>
<!-- Node14&#45;&gt;Node2 -->
<g id="edge50" class="edge"><title>Node14&#45;&gt;Node2</title>
<path fill="none" stroke="midnightblue" d="M1074.49,-280.293C1091.36,-257.284 1136.98,-192.474 1162,-132 1175.31,-99.8267 1156.89,-81.1199 1181,-56 1210.97,-24.7719 1261.39,-14.9026 1296.11,-11.9512"/>
<polygon fill="midnightblue" stroke="midnightblue" points="1296.61,-15.4252 1306.34,-11.2414 1296.12,-8.44202 1296.61,-15.4252"/>
</g>
<!-- Node14&#45;&gt;Node7 -->
<g id="edge74" class="edge"><title>Node14&#45;&gt;Node7</title>
<path fill="none" stroke="midnightblue" d="M1044.4,-280.46C990.747,-261.047 859.487,-213.551 797.482,-191.115"/>
<polygon fill="midnightblue" stroke="midnightblue" points="798.39,-187.722 787.796,-187.61 796.008,-194.304 798.39,-187.722"/>
</g>
<!-- Node14&#45;&gt;Node11 -->
<g id="edge76" class="edge"><title>Node14&#45;&gt;Node11</title>
<path fill="none" stroke="midnightblue" d="M1036.47,-284.065C979.435,-275.138 858.21,-256.163 784.346,-244.602"/>
<polygon fill="midnightblue" stroke="midnightblue" points="784.67,-241.11 774.249,-243.022 783.588,-248.026 784.67,-241.11"/>
</g>
<!-- Node14&#45;&gt;Node12 -->
<g id="edge52" class="edge"><title>Node14&#45;&gt;Node12</title>
<path fill="none" stroke="midnightblue" d="M1063.45,-280.368C1053.96,-262.376 1031.91,-220.55 1019.29,-196.627"/>
<polygon fill="midnightblue" stroke="midnightblue" points="1022.29,-194.805 1014.53,-187.591 1016.1,-198.07 1022.29,-194.805"/>
</g>
<!-- Node14&#45;&gt;Node14 -->
<g id="edge72" class="edge"><title>Node14&#45;&gt;Node14</title>
<path fill="none" stroke="midnightblue" d="M1088.9,-299.525C1103.1,-302.308 1117,-299.133 1117,-290 1117,-283.079 1109.02,-279.579 1098.97,-279.501"/>
<polygon fill="midnightblue" stroke="midnightblue" points="1098.52,-276.029 1088.9,-280.475 1099.19,-282.996 1098.52,-276.029"/>
</g>
<!-- Node14&#45;&gt;Node15 -->
<g id="edge54" class="edge"><title>Node14&#45;&gt;Node15</title>
<path fill="none" stroke="midnightblue" d="M1099.87,-285.811C1118.79,-283.977 1143.25,-281.705 1165,-280 1415.74,-260.347 1717.3,-243.229 1826.22,-237.257"/>
<polygon fill="midnightblue" stroke="midnightblue" points="1826.65,-240.738 1836.45,-236.697 1826.27,-233.748 1826.65,-240.738"/>
</g>
<!-- Node15&#45;&gt;Node2 -->
<g id="edge56" class="edge"><title>Node15&#45;&gt;Node2</title>
<path fill="none" stroke="midnightblue" d="M1873.06,-224.199C1888.74,-195.65 1932.86,-104.653 1888,-56 1853.08,-18.1248 1490.9,-12.1256 1371.76,-11.1774"/>
<polygon fill="midnightblue" stroke="midnightblue" points="1371.68,-7.67679 1361.65,-11.1046 1371.63,-14.6766 1371.68,-7.67679"/>
</g>
<!-- Node15&#45;&gt;Node5 -->
<g id="edge68" class="edge"><title>Node15&#45;&gt;Node5</title>
<path fill="none" stroke="midnightblue" d="M1863.17,-224.235C1855.21,-210.51 1838.08,-183.878 1817,-168 1750.92,-118.235 1657.85,-90.9949 1598.47,-77.7085"/>
<polygon fill="midnightblue" stroke="midnightblue" points="1599.03,-74.2486 1588.51,-75.541 1597.54,-81.0884 1599.03,-74.2486"/>
</g>
<!-- Node15&#45;&gt;Node12 -->
<g id="edge70" class="edge"><title>Node15&#45;&gt;Node12</title>
<path fill="none" stroke="midnightblue" d="M1836.45,-231.014C1706.11,-222.811 1209.36,-191.547 1055.62,-181.871"/>
<polygon fill="midnightblue" stroke="midnightblue" points="1055.78,-178.374 1045.58,-181.239 1055.34,-185.36 1055.78,-178.374"/>
</g>
<!-- Node16 -->
<g id="node45" class="node"><title>Node16</title>
<a xlink:href="_s_l_a_a_b_box_8h.html" target="_top" xlink:title="SLAABBox.h">
<polygon fill="white" stroke="black" points="1732,-168.5 1732,-187.5 1808,-187.5 1808,-168.5 1732,-168.5"/>
<text text-anchor="middle" x="1770" y="-175.5" font-family="Arial.ttf" font-size="10.00">SLAABBox.h</text>
</a>
</g>
<!-- Node15&#45;&gt;Node16 -->
<g id="edge58" class="edge"><title>Node15&#45;&gt;Node16</title>
<path fill="none" stroke="midnightblue" d="M1852.25,-224.324C1836.68,-215.743 1812.62,-202.486 1794.54,-192.522"/>
<polygon fill="midnightblue" stroke="midnightblue" points="1796.15,-189.415 1785.71,-187.655 1792.78,-195.546 1796.15,-189.415"/>
</g>
<!-- Node16&#45;&gt;Node2 -->
<g id="edge60" class="edge"><title>Node16&#45;&gt;Node2</title>
<path fill="none" stroke="midnightblue" d="M1775.88,-168.373C1789.98,-146.53 1822.45,-88.4732 1793,-56 1764.89,-24.9973 1476.56,-14.6197 1371.79,-11.8567"/>
<polygon fill="midnightblue" stroke="midnightblue" points="1371.75,-8.35464 1361.66,-11.5985 1371.57,-15.3524 1371.75,-8.35464"/>
</g>
<!-- Node17 -->
<g id="node48" class="node"><title>Node17</title>
<a xlink:href="_s_l_g_l_vertex_array_ext_8h.html" target="_top" xlink:title="SLGLVertexArrayExt.h">
<polygon fill="white" stroke="black" points="1438,-112.5 1438,-131.5 1560,-131.5 1560,-112.5 1438,-112.5"/>
<text text-anchor="middle" x="1499" y="-119.5" font-family="Arial.ttf" font-size="10.00">SLGLVertexArrayExt.h</text>
</a>
</g>
<!-- Node16&#45;&gt;Node17 -->
<g id="edge62" class="edge"><title>Node16&#45;&gt;Node17</title>
<path fill="none" stroke="midnightblue" d="M1731.75,-169.378C1684.73,-160.01 1604.71,-144.063 1551.84,-133.53"/>
<polygon fill="midnightblue" stroke="midnightblue" points="1552.47,-130.085 1541.98,-131.564 1551.1,-136.95 1552.47,-130.085"/>
</g>
<!-- Node17&#45;&gt;Node2 -->
<g id="edge64" class="edge"><title>Node17&#45;&gt;Node2</title>
<path fill="none" stroke="midnightblue" d="M1486.05,-112.368C1457.74,-93.4924 1390.08,-48.385 1355.36,-25.2367"/>
<polygon fill="midnightblue" stroke="midnightblue" points="1357.15,-22.2263 1346.89,-19.5914 1353.27,-28.0506 1357.15,-22.2263"/>
</g>
<!-- Node17&#45;&gt;Node5 -->
<g id="edge66" class="edge"><title>Node17&#45;&gt;Node5</title>
<path fill="none" stroke="midnightblue" d="M1505.94,-112.083C1511.93,-104.377 1520.75,-93.0333 1528.05,-83.6531"/>
<polygon fill="midnightblue" stroke="midnightblue" points="1530.82,-85.7934 1534.19,-75.7511 1525.29,-81.4958 1530.82,-85.7934"/>
</g>
<!-- Node18&#45;&gt;Node2 -->
<g id="edge80" class="edge"><title>Node18&#45;&gt;Node2</title>
<path fill="none" stroke="midnightblue" d="M588.785,-448.443C660.727,-431.149 816.725,-390.722 859,-356 933.125,-295.119 906.826,-244.268 965,-168 1007.88,-111.777 1015.2,-88.4948 1078,-56 1148.87,-19.3328 1243.97,-11.8497 1296.02,-10.7284"/>
<polygon fill="midnightblue" stroke="midnightblue" points="1296.19,-14.2263 1306.14,-10.5798 1296.09,-7.22707 1296.19,-14.2263"/>
</g>
<!-- Node19 -->
<g id="node60" class="node"><title>Node19</title>
<a xlink:href="_s_l_joint_8h.html" target="_top" xlink:title="SLJoint.h">
<polygon fill="white" stroke="black" points="491,-336.5 491,-355.5 549,-355.5 549,-336.5 491,-336.5"/>
<text text-anchor="middle" x="520" y="-343.5" font-family="Arial.ttf" font-size="10.00">SLJoint.h</text>
</a>
</g>
<!-- Node18&#45;&gt;Node19 -->
<g id="edge82" class="edge"><title>Node18&#45;&gt;Node19</title>
<path fill="none" stroke="midnightblue" d="M553.212,-448.333C554.663,-435.628 556.187,-411.357 550,-392 546.683,-381.623 540.21,-371.408 534.123,-363.34"/>
<polygon fill="midnightblue" stroke="midnightblue" points="536.831,-361.123 527.837,-355.522 531.376,-365.509 536.831,-361.123"/>
</g>
<!-- Node18&#45;&gt;Node20 -->
<g id="edge88" class="edge"><title>Node18&#45;&gt;Node20</title>
<path fill="none" stroke="midnightblue" d="M524.112,-448.444C494.246,-439.28 446.685,-424.688 413.544,-414.519"/>
<polygon fill="midnightblue" stroke="midnightblue" points="414.344,-411.104 403.757,-411.516 412.291,-417.796 414.344,-411.104"/>
</g>
<!-- Node23 -->
<g id="node76" class="node"><title>Node23</title>
<a xlink:href="_s_l_anim_playback_8h.html" target="_top" xlink:title="SLAnimPlayback.h">
<polygon fill="white" stroke="black" points="437,-392.5 437,-411.5 541,-411.5 541,-392.5 437,-392.5"/>
<text text-anchor="middle" x="489" y="-399.5" font-family="Arial.ttf" font-size="10.00">SLAnimPlayback.h</text>
</a>
</g>
<!-- Node18&#45;&gt;Node23 -->
<g id="edge106" class="edge"><title>Node18&#45;&gt;Node23</title>
<path fill="none" stroke="midnightblue" d="M541.878,-448.324C532.474,-440.263 518.256,-428.077 506.931,-418.369"/>
<polygon fill="midnightblue" stroke="midnightblue" points="509.177,-415.684 499.306,-411.834 504.621,-420.999 509.177,-415.684"/>
</g>
<!-- Node19&#45;&gt;Node2 -->
<g id="edge84" class="edge"><title>Node19&#45;&gt;Node2</title>
<path fill="none" stroke="midnightblue" d="M511.946,-336.432C490.921,-313.129 436,-245.859 436,-179 436,-179 436,-179 436,-121 436,-90.2048 435.194,-74.2489 460,-56 494.131,-30.891 1132.57,-15.3692 1296.1,-11.7945"/>
<polygon fill="midnightblue" stroke="midnightblue" points="1296.25,-15.2921 1306.17,-11.5763 1296.1,-8.29376 1296.25,-15.2921"/>
</g>
<!-- Node19&#45;&gt;Node14 -->
<g id="edge86" class="edge"><title>Node19&#45;&gt;Node14</title>
<path fill="none" stroke="midnightblue" d="M549.076,-342.135C640.086,-333.167 919.754,-305.608 1026.24,-295.115"/>
<polygon fill="midnightblue" stroke="midnightblue" points="1026.68,-298.589 1036.29,-294.125 1025.99,-291.622 1026.68,-298.589"/>
</g>
<!-- Node20&#45;&gt;Node2 -->
<g id="edge90" class="edge"><title>Node20&#45;&gt;Node2</title>
<path fill="none" stroke="midnightblue" d="M366.83,-392.242C338.458,-364.154 254,-272.673 254,-179 254,-179 254,-179 254,-121 254,-65.3574 307.778,-72.2338 361,-56 451.557,-28.3782 1128.28,-14.6463 1296.32,-11.6406"/>
<polygon fill="midnightblue" stroke="midnightblue" points="1296.48,-15.1384 1306.42,-11.462 1296.36,-8.13951 1296.48,-15.1384"/>
</g>
<!-- Node20&#45;&gt;Node12 -->
<g id="edge104" class="edge"><title>Node20&#45;&gt;Node12</title>
<path fill="none" stroke="midnightblue" d="M419.086,-393.242C422.098,-392.792 425.092,-392.372 428,-392 523.333,-379.793 773.481,-399.863 859,-356 895.511,-337.274 969.18,-236.783 998.028,-196.108"/>
<polygon fill="midnightblue" stroke="midnightblue" points="1001.01,-197.948 1003.92,-187.758 995.292,-193.914 1001.01,-197.948"/>
</g>
<!-- Node20&#45;&gt;Node19 -->
<g id="edge102" class="edge"><title>Node20&#45;&gt;Node19</title>
<path fill="none" stroke="midnightblue" d="M398.817,-392.444C422.832,-383.438 460.829,-369.189 487.869,-359.049"/>
<polygon fill="midnightblue" stroke="midnightblue" points="489.155,-362.305 497.29,-355.516 486.697,-355.751 489.155,-362.305"/>
</g>
<!-- Node21 -->
<g id="node67" class="node"><title>Node21</title>
<a xlink:href="_s_l_anim_track_8h.html" target="_top" xlink:title="SLAnimTrack.h">
<polygon fill="white" stroke="black" points="282,-224.5 282,-243.5 370,-243.5 370,-224.5 282,-224.5"/>
<text text-anchor="middle" x="326" y="-231.5" font-family="Arial.ttf" font-size="10.00">SLAnimTrack.h</text>
</a>
</g>
<!-- Node20&#45;&gt;Node21 -->
<g id="edge92" class="edge"><title>Node20&#45;&gt;Node21</title>
<path fill="none" stroke="midnightblue" d="M373.312,-392.075C365.441,-365.945 342.328,-289.211 331.595,-253.577"/>
<polygon fill="midnightblue" stroke="midnightblue" points="334.816,-252.134 328.581,-243.568 328.114,-254.153 334.816,-252.134"/>
</g>
<!-- Node21&#45;&gt;Node2 -->
<g id="edge94" class="edge"><title>Node21&#45;&gt;Node2</title>
<path fill="none" stroke="midnightblue" d="M325.735,-224.486C325.342,-195.231 328.426,-98.3118 384,-56 420.874,-27.9251 1123.97,-14.4795 1296.18,-11.5995"/>
<polygon fill="midnightblue" stroke="midnightblue" points="1296.34,-15.0973 1306.28,-11.4325 1296.23,-8.09828 1296.34,-15.0973"/>
</g>
<!-- Node21&#45;&gt;Node12 -->
<g id="edge96" class="edge"><title>Node21&#45;&gt;Node12</title>
<path fill="none" stroke="midnightblue" d="M370.09,-229.519C493.083,-219.809 839.114,-192.491 964.176,-182.618"/>
<polygon fill="midnightblue" stroke="midnightblue" points="964.497,-186.103 974.19,-181.827 963.946,-179.125 964.497,-186.103"/>
</g>
<!-- Node21&#45;&gt;Node22 -->
<g id="edge98" class="edge"><title>Node21&#45;&gt;Node22</title>
<path fill="none" stroke="midnightblue" d="M291.457,-224.444C253.747,-215.102 193.26,-200.119 152.135,-189.933"/>
<polygon fill="midnightblue" stroke="midnightblue" points="152.929,-186.524 142.381,-187.516 151.246,-193.318 152.929,-186.524"/>
</g>
<!-- Node22&#45;&gt;Node2 -->
<g id="edge100" class="edge"><title>Node22&#45;&gt;Node2</title>
<path fill="none" stroke="midnightblue" d="M108.987,-168.319C112.123,-145.286 124.129,-82.5744 164,-56 212.167,-23.8966 1101.11,-13.2947 1296.31,-11.349"/>
<polygon fill="midnightblue" stroke="midnightblue" points="1296.41,-14.8483 1306.37,-11.2503 1296.34,-7.84867 1296.41,-14.8483"/>
</g>
<!-- Node23&#45;&gt;Node2 -->
<g id="edge108" class="edge"><title>Node23&#45;&gt;Node2</title>
<path fill="none" stroke="midnightblue" d="M482.456,-392.232C461.59,-363.381 398,-268.14 398,-179 398,-179 398,-179 398,-121 398,-87.0792 408.813,-73.2843 438,-56 512.591,-11.8275 1135.11,-10.4513 1296.11,-10.8429"/>
<polygon fill="midnightblue" stroke="midnightblue" points="1296.45,-14.3438 1306.46,-10.8722 1296.47,-7.34384 1296.45,-14.3438"/>
</g>
<!-- Node23&#45;&gt;Node12 -->
<g id="edge110" class="edge"><title>Node23&#45;&gt;Node12</title>
<path fill="none" stroke="midnightblue" d="M541.146,-400.56C636.451,-398.889 834.277,-391.152 892,-356 954.012,-318.236 990.37,-234.09 1003.9,-197.07"/>
<polygon fill="midnightblue" stroke="midnightblue" points="1007.23,-198.169 1007.25,-187.575 1000.63,-195.844 1007.23,-198.169"/>
</g>
<!-- Node24&#45;&gt;Node2 -->
<g id="edge114" class="edge"><title>Node24&#45;&gt;Node2</title>
<path fill="none" stroke="midnightblue" d="M804.41,-395.973C707.338,-381.687 474,-331.487 474,-179 474,-179 474,-179 474,-121 474,-36.8617 1130.03,-15.7851 1296.14,-11.7971"/>
<polygon fill="midnightblue" stroke="midnightblue" points="1296.44,-15.291 1306.36,-11.5586 1296.28,-8.29293 1296.44,-15.291"/>
</g>
<!-- Node24&#45;&gt;Node25 -->
<g id="edge116" class="edge"><title>Node24&#45;&gt;Node25</title>
<path fill="none" stroke="midnightblue" d="M887.633,-396.113C972.92,-386.101 1167.07,-363.309 1257.71,-352.668"/>
<polygon fill="midnightblue" stroke="midnightblue" points="1258.2,-356.136 1267.72,-351.494 1257.38,-349.184 1258.2,-356.136"/>
</g>
<!-- Node25&#45;&gt;Node2 -->
<g id="edge118" class="edge"><title>Node25&#45;&gt;Node2</title>
<path fill="none" stroke="midnightblue" d="M1304.69,-336.466C1301.98,-318.007 1296,-272.968 1296,-235 1296,-235 1296,-235 1296,-121 1296,-86.8131 1312.6,-49.7639 1323.86,-28.5707"/>
<polygon fill="midnightblue" stroke="midnightblue" points="1326.95,-30.2151 1328.72,-19.769 1320.82,-26.832 1326.95,-30.2151"/>
</g>
<!-- Node25&#45;&gt;Node12 -->
<g id="edge120" class="edge"><title>Node25&#45;&gt;Node12</title>
<path fill="none" stroke="midnightblue" d="M1267.74,-336.694C1238.52,-329.441 1197.83,-317.339 1165,-300 1108.92,-270.383 1052.6,-220.027 1025.93,-194.632"/>
<polygon fill="midnightblue" stroke="midnightblue" points="1028.26,-192.022 1018.64,-187.602 1023.41,-197.062 1028.26,-192.022"/>
</g>
<!-- Node25&#45;&gt;Node14 -->
<g id="edge122" class="edge"><title>Node25&#45;&gt;Node14</title>
<path fill="none" stroke="midnightblue" d="M1268.29,-336.444C1225.12,-326.649 1154.61,-310.652 1109.8,-300.484"/>
<polygon fill="midnightblue" stroke="midnightblue" points="1110.35,-297.02 1099.82,-298.22 1108.8,-303.846 1110.35,-297.02"/>
</g>
<!-- Node25&#45;&gt;Node17 -->
<g id="edge140" class="edge"><title>Node25&#45;&gt;Node17</title>
<path fill="none" stroke="midnightblue" d="M1313.57,-336.297C1342.44,-303.079 1446.04,-183.918 1484.5,-139.684"/>
<polygon fill="midnightblue" stroke="midnightblue" points="1487.36,-141.727 1491.28,-131.884 1482.07,-137.134 1487.36,-141.727"/>
</g>
<!-- Node26 -->
<g id="node88" class="node"><title>Node26</title>
<a xlink:href="_s_l_g_l_state_8h.html" target="_top" xlink:title="SLGLState.h">
<polygon fill="white" stroke="red" points="1190.5,-56.5 1190.5,-75.5 1267.5,-75.5 1267.5,-56.5 1190.5,-56.5"/>
<text text-anchor="middle" x="1229" y="-63.5" font-family="Arial.ttf" font-size="10.00">SLGLState.h</text>
</a>
</g>
<!-- Node25&#45;&gt;Node26 -->
<g id="edge124" class="edge"><title>Node25&#45;&gt;Node26</title>
<path fill="none" stroke="midnightblue" d="M1299.33,-336.435C1286.14,-318.623 1258,-275.839 1258,-235 1258,-235 1258,-235 1258,-177 1258,-143.716 1245.43,-106.584 1236.84,-85.0939"/>
<polygon fill="midnightblue" stroke="midnightblue" points="1239.98,-83.5254 1232.91,-75.6354 1233.52,-86.2128 1239.98,-83.5254"/>
</g>
<!-- Node27 -->
<g id="node91" class="node"><title>Node27</title>
<a xlink:href="_s_l_samples2_d_8h.html" target="_top" xlink:title="SLSamples2D.h">
<polygon fill="white" stroke="black" points="1892.5,-280.5 1892.5,-299.5 1985.5,-299.5 1985.5,-280.5 1892.5,-280.5"/>
<text text-anchor="middle" x="1939" y="-287.5" font-family="Arial.ttf" font-size="10.00">SLSamples2D.h</text>
</a>
</g>
<!-- Node25&#45;&gt;Node27 -->
<g id="edge128" class="edge"><title>Node25&#45;&gt;Node27</title>
<path fill="none" stroke="midnightblue" d="M1344.17,-341.744C1451.29,-332.606 1755.12,-306.687 1882.11,-295.853"/>
<polygon fill="midnightblue" stroke="midnightblue" points="1882.73,-299.313 1892.39,-294.976 1882.13,-292.339 1882.73,-299.313"/>
</g>
<!-- Node28 -->
<g id="node94" class="node"><title>Node28</title>
<a xlink:href="_s_l_ray_8h.html" target="_top" xlink:title="SLRay.h">
<polygon fill="white" stroke="black" points="1174.5,-280.5 1174.5,-299.5 1229.5,-299.5 1229.5,-280.5 1174.5,-280.5"/>
<text text-anchor="middle" x="1202" y="-287.5" font-family="Arial.ttf" font-size="10.00">SLRay.h</text>
</a>
</g>
<!-- Node25&#45;&gt;Node28 -->
<g id="edge132" class="edge"><title>Node25&#45;&gt;Node28</title>
<path fill="none" stroke="midnightblue" d="M1289.29,-336.324C1272.69,-327.703 1247,-314.364 1227.78,-304.386"/>
<polygon fill="midnightblue" stroke="midnightblue" points="1229.16,-301.156 1218.67,-299.655 1225.93,-307.369 1229.16,-301.156"/>
</g>
<!-- Node26&#45;&gt;Node2 -->
<g id="edge126" class="edge"><title>Node26&#45;&gt;Node2</title>
<path fill="none" stroke="midnightblue" d="M1245.87,-56.324C1262.71,-47.6641 1288.81,-34.2424 1308.24,-24.249"/>
<polygon fill="midnightblue" stroke="midnightblue" points="1309.88,-27.3405 1317.17,-19.6545 1306.68,-21.1155 1309.88,-27.3405"/>
</g>
<!-- Node27&#45;&gt;Node2 -->
<g id="edge130" class="edge"><title>Node27&#45;&gt;Node2</title>
<path fill="none" stroke="midnightblue" d="M1940.44,-280.471C1943.42,-262.022 1950,-217.001 1950,-179 1950,-179 1950,-179 1950,-121 1950,-86.8442 1938.24,-73.6509 1909,-56 1863.18,-28.3423 1492.85,-15.4949 1371.99,-12.0107"/>
<polygon fill="midnightblue" stroke="midnightblue" points="1371.84,-8.50515 1361.75,-11.7207 1371.64,-15.5023 1371.84,-8.50515"/>
</g>
<!-- Node28&#45;&gt;Node2 -->
<g id="edge134" class="edge"><title>Node28&#45;&gt;Node2</title>
<path fill="none" stroke="midnightblue" d="M1190.78,-280.461C1152.31,-250.703 1029.17,-151.244 1049,-112 1067.92,-74.5523 1086.75,-73.2443 1125,-56 1181.58,-30.4921 1253.41,-19.1077 1296.44,-14.2793"/>
<polygon fill="midnightblue" stroke="midnightblue" points="1296.89,-17.7507 1306.46,-13.2144 1296.15,-10.7899 1296.89,-17.7507"/>
</g>
<!-- Node28&#45;&gt;Node6 -->
<g id="edge136" class="edge"><title>Node28&#45;&gt;Node6</title>
<path fill="none" stroke="midnightblue" d="M1174.24,-285.434C1159.85,-283.657 1142,-281.561 1126,-280 1073.16,-274.845 718.958,-248.332 588.295,-238.593"/>
<polygon fill="midnightblue" stroke="midnightblue" points="588.414,-235.093 578.181,-237.84 587.894,-242.073 588.414,-235.093"/>
</g>
<!-- Node28&#45;&gt;Node15 -->
<g id="edge138" class="edge"><title>Node28&#45;&gt;Node15</title>
<path fill="none" stroke="midnightblue" d="M1229.77,-286.748C1333.83,-278.311 1701.05,-248.537 1826.01,-238.405"/>
<polygon fill="midnightblue" stroke="midnightblue" points="1826.62,-241.867 1836.3,-237.57 1826.05,-234.89 1826.62,-241.867"/>
</g>
<!-- Node29&#45;&gt;Node2 -->
<g id="edge144" class="edge"><title>Node29&#45;&gt;Node2</title>
<path fill="none" stroke="midnightblue" d="M442.848,-504.431C371.468,-474.18 139.36,-364.602 57,-188 28.9472,-127.847 60.4279,-97.9689 140,-56 192.305,-28.4128 1098.97,-14.2654 1296.29,-11.5054"/>
<polygon fill="midnightblue" stroke="midnightblue" points="1296.5,-15.0029 1306.45,-11.3646 1296.4,-8.00361 1296.5,-15.0029"/>
</g>
<!-- Node29&#45;&gt;Node18 -->
<g id="edge152" class="edge"><title>Node29&#45;&gt;Node18</title>
<path fill="none" stroke="midnightblue" d="M478.139,-504.324C491.866,-495.9 512.936,-482.971 529.064,-473.074"/>
<polygon fill="midnightblue" stroke="midnightblue" points="531.204,-475.868 537.896,-467.655 527.543,-469.902 531.204,-475.868"/>
</g>
<!-- Node29&#45;&gt;Node20 -->
<g id="edge146" class="edge"><title>Node29&#45;&gt;Node20</title>
<path fill="none" stroke="midnightblue" d="M457.095,-504.368C442.508,-486.135 408.341,-443.426 389.34,-419.675"/>
<polygon fill="midnightblue" stroke="midnightblue" points="391.853,-417.214 382.873,-411.591 386.387,-421.587 391.853,-417.214"/>
</g>
<!-- Node29&#45;&gt;Node23 -->
<g id="edge150" class="edge"><title>Node29&#45;&gt;Node23</title>
<path fill="none" stroke="midnightblue" d="M465.962,-504.368C469.996,-486.617 479.303,-445.666 484.773,-421.597"/>
<polygon fill="midnightblue" stroke="midnightblue" points="488.244,-422.118 487.047,-411.591 481.418,-420.567 488.244,-422.118"/>
</g>
<!-- Node29&#45;&gt;Node29 -->
<g id="edge148" class="edge"><title>Node29&#45;&gt;Node29</title>
<path fill="none" stroke="midnightblue" d="M493.855,-523.525C514.141,-526.308 534,-523.133 534,-514 534,-506.437 520.381,-502.96 504.178,-503.568"/>
<polygon fill="midnightblue" stroke="midnightblue" points="503.51,-500.113 493.855,-504.475 504.123,-507.086 503.51,-500.113"/>
</g>
<!-- Node30&#45;&gt;Node2 -->
<g id="edge156" class="edge"><title>Node30&#45;&gt;Node2</title>
<path fill="none" stroke="midnightblue" d="M251.011,-448.408C243.325,-414.437 216,-286.117 216,-179 216,-179 216,-179 216,-121 216,-80.7686 242.295,-72.4718 279,-56 373.196,-13.7283 1118.55,-11.0067 1296.12,-10.9623"/>
<polygon fill="midnightblue" stroke="midnightblue" points="1296.28,-14.4622 1306.28,-10.9626 1296.28,-7.4622 1296.28,-14.4622"/>
</g>
<!-- Node31&#45;&gt;Node2 -->
<g id="edge160" class="edge"><title>Node31&#45;&gt;Node2</title>
<path fill="none" stroke="midnightblue" d="M1136.65,-616.409C1220.6,-590.812 1448,-506.728 1448,-347 1448,-347 1448,-347 1448,-233 1448,-147.925 1380.93,-62.7498 1349.68,-27.6808"/>
<polygon fill="midnightblue" stroke="midnightblue" points="1351.89,-24.9106 1342.57,-19.875 1346.72,-29.6246 1351.89,-24.9106"/>
</g>
<!-- Node31&#45;&gt;Node3 -->
<g id="edge162" class="edge"><title>Node31&#45;&gt;Node3</title>
<path fill="none" stroke="midnightblue" d="M1061.22,-619.822C971.845,-609.487 772.285,-586.412 683.302,-576.123"/>
<polygon fill="midnightblue" stroke="midnightblue" points="683.602,-572.634 673.266,-574.962 682.797,-579.588 683.602,-572.634"/>
</g>
<!-- Node31&#45;&gt;Node7 -->
<g id="edge184" class="edge"><title>Node31&#45;&gt;Node7</title>
<path fill="none" stroke="midnightblue" d="M1061.25,-622.858C910.525,-615.131 422.866,-585.819 280,-524 241.821,-507.48 223.644,-505.188 205,-468 103.038,-264.619 447.89,-318.159 655,-224 680.859,-212.244 710.707,-200.012 732.623,-191.274"/>
<polygon fill="midnightblue" stroke="midnightblue" points="734.086,-194.459 742.092,-187.519 731.506,-187.952 734.086,-194.459"/>
</g>
<!-- Node31&#45;&gt;Node11 -->
<g id="edge166" class="edge"><title>Node31&#45;&gt;Node11</title>
<path fill="none" stroke="midnightblue" d="M1061.45,-619.053C1005.3,-608.766 916,-581.893 916,-515 916,-515 916,-515 916,-457 916,-426.775 918.168,-412.547 896,-392 842.861,-342.745 799.787,-392.161 737,-356 707.568,-339.049 697.415,-331.614 685,-300 678.036,-282.266 691.319,-263.656 704.052,-250.916"/>
<polygon fill="midnightblue" stroke="midnightblue" points="706.771,-253.168 711.723,-243.802 702.011,-248.036 706.771,-253.168"/>
</g>
<!-- Node31&#45;&gt;Node14 -->
<g id="edge164" class="edge"><title>Node31&#45;&gt;Node14</title>
<path fill="none" stroke="midnightblue" d="M1106,-616.442C1106,-597.936 1106,-552.813 1106,-515 1106,-515 1106,-515 1106,-401 1106,-366.813 1089.4,-329.764 1078.14,-308.571"/>
<polygon fill="midnightblue" stroke="midnightblue" points="1081.18,-306.832 1073.28,-299.769 1075.05,-310.215 1081.18,-306.832"/>
</g>
<!-- Node31&#45;&gt;Node16 -->
<g id="edge182" class="edge"><title>Node31&#45;&gt;Node16</title>
<path fill="none" stroke="midnightblue" d="M1150.85,-624.258C1275.04,-621.801 1616.75,-612.156 1655,-580 1760.45,-491.343 1691.92,-411.5 1733,-280 1742.2,-250.537 1754.95,-217.014 1762.82,-196.958"/>
<polygon fill="midnightblue" stroke="midnightblue" points="1766.12,-198.136 1766.55,-187.55 1759.61,-195.559 1766.12,-198.136"/>
</g>
<!-- Node31&#45;&gt;Node17 -->
<g id="edge194" class="edge"><title>Node31&#45;&gt;Node17</title>
<path fill="none" stroke="midnightblue" d="M1150.56,-621.426C1214.78,-615.58 1329.44,-602.331 1364,-580 1462.18,-516.563 1486,-463.892 1486,-347 1486,-347 1486,-347 1486,-233 1486,-200.576 1491.64,-163.146 1495.49,-141.369"/>
<polygon fill="midnightblue" stroke="midnightblue" points="1498.93,-141.985 1497.3,-131.517 1492.05,-140.72 1498.93,-141.985"/>
</g>
<!-- Node32 -->
<g id="node116" class="node"><title>Node32</title>
<a xlink:href="_s_l_raytracer_8h.html" target="_top" xlink:title="SLRaytracer.h">
<polygon fill="white" stroke="black" points="694.5,-280.5 694.5,-299.5 777.5,-299.5 777.5,-280.5 694.5,-280.5"/>
<text text-anchor="middle" x="736" y="-287.5" font-family="Arial.ttf" font-size="10.00">SLRaytracer.h</text>
</a>
</g>
<!-- Node31&#45;&gt;Node32 -->
<g id="edge168" class="edge"><title>Node31&#45;&gt;Node32</title>
<path fill="none" stroke="midnightblue" d="M1099.57,-616.308C1068.59,-574.485 936.058,-395.817 930,-392 862.081,-349.204 811.308,-411.178 753,-356 740.566,-344.233 736.801,-324.594 735.852,-309.977"/>
<polygon fill="midnightblue" stroke="midnightblue" points="739.341,-309.483 735.583,-299.577 732.343,-309.664 739.341,-309.483"/>
</g>
<!-- Node33 -->
<g id="node121" class="node"><title>Node33</title>
<a xlink:href="_s_l_pathtracer_8h.html" target="_top" xlink:title="SLPathtracer.h">
<polygon fill="white" stroke="black" points="762,-336.5 762,-355.5 850,-355.5 850,-336.5 762,-336.5"/>
<text text-anchor="middle" x="806" y="-343.5" font-family="Arial.ttf" font-size="10.00">SLPathtracer.h</text>
</a>
</g>
<!-- Node31&#45;&gt;Node33 -->
<g id="edge176" class="edge"><title>Node31&#45;&gt;Node33</title>
<path fill="none" stroke="midnightblue" d="M1100.72,-616.231C1090.27,-598.043 1068,-554.601 1068,-515 1068,-515 1068,-515 1068,-457 1068,-367.832 937.392,-349.743 860.607,-346.812"/>
<polygon fill="midnightblue" stroke="midnightblue" points="860.25,-343.3 850.148,-346.494 860.037,-350.297 860.25,-343.3"/>
</g>
<!-- Node34 -->
<g id="node127" class="node"><title>Node34</title>
<a xlink:href="_s_l_g_l_oculus_f_b_8h.html" target="_top" xlink:title="SLGLOculusFB.h">
<polygon fill="white" stroke="black" points="1320.5,-392.5 1320.5,-411.5 1415.5,-411.5 1415.5,-392.5 1320.5,-392.5"/>
<text text-anchor="middle" x="1368" y="-399.5" font-family="Arial.ttf" font-size="10.00">SLGLOculusFB.h</text>
</a>
</g>
<!-- Node31&#45;&gt;Node34 -->
<g id="edge186" class="edge"><title>Node31&#45;&gt;Node34</title>
<path fill="none" stroke="midnightblue" d="M1116.27,-616.297C1155.89,-582.726 1299.1,-461.379 1349.94,-418.301"/>
<polygon fill="midnightblue" stroke="midnightblue" points="1352.43,-420.777 1357.8,-411.643 1347.91,-415.437 1352.43,-420.777"/>
</g>
<!-- Node32&#45;&gt;Node2 -->
<g id="edge170" class="edge"><title>Node32&#45;&gt;Node2</title>
<path fill="none" stroke="midnightblue" d="M712.702,-280.402C685.013,-268.883 644.719,-247.187 663,-224 705.447,-170.16 759.981,-231.468 813,-188 862.979,-147.025 821.315,-93.4307 874,-56 908.151,-31.7373 1192.68,-17.1144 1296.38,-12.5492"/>
<polygon fill="midnightblue" stroke="midnightblue" points="1296.57,-16.0445 1306.41,-12.1145 1296.26,-9.05105 1296.57,-16.0445"/>
</g>
<!-- Node32&#45;&gt;Node8 -->
<g id="edge172" class="edge"><title>Node32&#45;&gt;Node8</title>
<path fill="none" stroke="midnightblue" d="M777.559,-283.432C914.417,-265.095 1350.95,-206.607 1503.65,-186.149"/>
<polygon fill="midnightblue" stroke="midnightblue" points="1504.27,-189.596 1513.72,-184.799 1503.34,-182.658 1504.27,-189.596"/>
</g>
<!-- Node32&#45;&gt;Node11 -->
<g id="edge174" class="edge"><title>Node32&#45;&gt;Node11</title>
<path fill="none" stroke="midnightblue" d="M733.853,-280.083C732.131,-272.927 729.653,-262.635 727.5,-253.691"/>
<polygon fill="midnightblue" stroke="midnightblue" points="730.85,-252.654 725.107,-243.751 724.045,-254.293 730.85,-252.654"/>
</g>
<!-- Node33&#45;&gt;Node2 -->
<g id="edge178" class="edge"><title>Node33&#45;&gt;Node2</title>
<path fill="none" stroke="midnightblue" d="M805.489,-336.431C804.641,-315.678 804.787,-261.659 826,-224 838.066,-202.579 852.988,-207.47 868,-188 907.81,-136.366 878.763,-93.6387 932,-56 990.065,-14.9478 1207.84,-10.6854 1296.3,-10.6963"/>
<polygon fill="midnightblue" stroke="midnightblue" points="1296.42,-14.1964 1306.42,-10.7166 1296.43,-7.19643 1296.42,-14.1964"/>
</g>
<!-- Node33&#45;&gt;Node32 -->
<g id="edge180" class="edge"><title>Node33&#45;&gt;Node32</title>
<path fill="none" stroke="midnightblue" d="M794.753,-336.324C784.203,-328.185 768.199,-315.839 755.558,-306.087"/>
<polygon fill="midnightblue" stroke="midnightblue" points="757.507,-303.171 747.451,-299.834 753.231,-308.713 757.507,-303.171"/>
</g>
<!-- Node34&#45;&gt;Node2 -->
<g id="edge188" class="edge"><title>Node34&#45;&gt;Node2</title>
<path fill="none" stroke="midnightblue" d="M1366.27,-392.102C1359.34,-356.228 1334,-222.085 1334,-179 1334,-179 1334,-179 1334,-121 1334,-88.948 1334,-51.6426 1334,-29.7489"/>
<polygon fill="midnightblue" stroke="midnightblue" points="1337.5,-29.5577 1334,-19.5578 1330.5,-29.5578 1337.5,-29.5577"/>
</g>
<!-- Node34&#45;&gt;Node5 -->
<g id="edge190" class="edge"><title>Node34&#45;&gt;Node5</title>
<path fill="none" stroke="midnightblue" d="M1373.84,-392.308C1385.38,-374.261 1410,-331.066 1410,-291 1410,-291 1410,-291 1410,-177 1410,-146.902 1408.78,-134.296 1429,-112 1443.76,-95.7249 1465.21,-85.2329 1485.41,-78.5168"/>
<polygon fill="midnightblue" stroke="midnightblue" points="1486.65,-81.7961 1495.18,-75.5144 1484.59,-75.1046 1486.65,-81.7961"/>
</g>
<!-- Node34&#45;&gt;Node25 -->
<g id="edge192" class="edge"><title>Node34&#45;&gt;Node25</title>
<path fill="none" stroke="midnightblue" d="M1358.04,-392.324C1348.87,-384.341 1335.06,-372.313 1323.97,-362.653"/>
<polygon fill="midnightblue" stroke="midnightblue" points="1325.98,-359.762 1316.14,-355.834 1321.38,-365.041 1325.98,-359.762"/>
</g>
<!-- Node35&#45;&gt;Node2 -->
<g id="edge204" class="edge"><title>Node35&#45;&gt;Node2</title>
<path fill="none" stroke="midnightblue" d="M1600.08,-560.392C1644.79,-526.123 1817.26,-398.245 1980,-336 2057.83,-306.232 2102.06,-355.74 2164,-300 2186.47,-279.782 2184,-265.225 2184,-235 2184,-235 2184,-235 2184,-121 2184,-71.2977 2139.86,-72.5626 2093,-56 1957.89,-8.24663 1506,-9.1257 1371.85,-10.4942"/>
<polygon fill="midnightblue" stroke="midnightblue" points="1371.63,-6.99635 1361.67,-10.6055 1371.7,-13.9959 1371.63,-6.99635"/>
</g>
<!-- Node35&#45;&gt;Node8 -->
<g id="edge218" class="edge"><title>Node35&#45;&gt;Node8</title>
<path fill="none" stroke="midnightblue" d="M1588.3,-560.492C1584.3,-511.742 1564.27,-267.608 1558.54,-197.72"/>
<polygon fill="midnightblue" stroke="midnightblue" points="1562.02,-197.412 1557.72,-187.732 1555.05,-197.984 1562.02,-197.412"/>
</g>
<!-- Node35&#45;&gt;Node14 -->
<g id="edge216" class="edge"><title>Node35&#45;&gt;Node14</title>
<path fill="none" stroke="midnightblue" d="M1567.25,-560.368C1545.67,-551.659 1511.74,-537.592 1483,-524 1328.08,-450.724 1151.79,-343.244 1090.44,-305.079"/>
<polygon fill="midnightblue" stroke="midnightblue" points="1091.94,-301.889 1081.6,-299.565 1088.23,-307.828 1091.94,-301.889"/>
</g>
<!-- Node35&#45;&gt;Node18 -->
<g id="edge220" class="edge"><title>Node35&#45;&gt;Node18</title>
<path fill="none" stroke="midnightblue" d="M1531.77,-562.929C1348.16,-543.453 775.835,-482.743 602.348,-464.341"/>
<polygon fill="midnightblue" stroke="midnightblue" points="602.536,-460.841 592.222,-463.267 601.797,-467.802 602.536,-460.841"/>
</g>
<!-- Node36 -->
<g id="node139" class="node"><title>Node36</title>
<a xlink:href="_s_l_importer_8h.html" target="_top" xlink:title="SLImporter.h">
<polygon fill="white" stroke="black" points="1492.5,-504.5 1492.5,-523.5 1571.5,-523.5 1571.5,-504.5 1492.5,-504.5"/>
<text text-anchor="middle" x="1532" y="-511.5" font-family="Arial.ttf" font-size="10.00">SLImporter.h</text>
</a>
</g>
<!-- Node35&#45;&gt;Node36 -->
<g id="edge206" class="edge"><title>Node35&#45;&gt;Node36</title>
<path fill="none" stroke="midnightblue" d="M1579.84,-560.324C1571.5,-552.42 1558.97,-540.548 1548.82,-530.938"/>
<polygon fill="midnightblue" stroke="midnightblue" points="1550.99,-528.171 1541.32,-523.834 1546.18,-533.252 1550.99,-528.171"/>
</g>
<!-- Node36&#45;&gt;Node2 -->
<g id="edge208" class="edge"><title>Node36&#45;&gt;Node2</title>
<path fill="none" stroke="midnightblue" d="M1537.96,-504.416C1553.87,-482.162 1599.79,-422.239 1653,-392 1689.17,-371.441 1983.04,-325.399 2016,-300 2042.16,-279.841 2052,-268.024 2052,-235 2052,-235 2052,-235 2052,-121 2052,-76.5533 2017.13,-72.8471 1976,-56 1865.6,-10.7787 1492.63,-9.68956 1371.99,-10.5715"/>
<polygon fill="midnightblue" stroke="midnightblue" points="1371.74,-7.07337 1361.77,-10.6556 1371.8,-14.0731 1371.74,-7.07337"/>
</g>
<!-- Node36&#45;&gt;Node8 -->
<g id="edge212" class="edge"><title>Node36&#45;&gt;Node8</title>
<path fill="none" stroke="midnightblue" d="M1530.95,-504.458C1528.79,-485.982 1524,-440.912 1524,-403 1524,-403 1524,-403 1524,-289 1524,-255.245 1538.43,-218.028 1548.21,-196.691"/>
<polygon fill="midnightblue" stroke="midnightblue" points="1551.41,-198.11 1552.55,-187.576 1545.09,-195.099 1551.41,-198.11"/>
</g>
<!-- Node36&#45;&gt;Node14 -->
<g id="edge210" class="edge"><title>Node36&#45;&gt;Node14</title>
<path fill="none" stroke="midnightblue" d="M1508.46,-504.454C1467,-488.925 1378.9,-453.79 1311,-412 1264.95,-383.659 1263.84,-361.206 1216,-336 1182.17,-318.172 1140.18,-306.254 1109.58,-299.187"/>
<polygon fill="midnightblue" stroke="midnightblue" points="1110.19,-295.737 1099.66,-296.975 1108.66,-302.569 1110.19,-295.737"/>
</g>
<!-- Node36&#45;&gt;Node18 -->
<g id="edge214" class="edge"><title>Node36&#45;&gt;Node18</title>
<path fill="none" stroke="midnightblue" d="M1492.37,-510.816C1337.61,-502.289 774.118,-471.239 602.165,-461.764"/>
<polygon fill="midnightblue" stroke="midnightblue" points="602.302,-458.266 592.124,-461.211 601.916,-465.256 602.302,-458.266"/>
</g>
<!-- Node37&#45;&gt;Node2 -->
<g id="edge226" class="edge"><title>Node37&#45;&gt;Node2</title>
<path fill="none" stroke="midnightblue" d="M2141.73,-340.288C2218.64,-332.289 2363.2,-315.418 2381,-300 2403.84,-280.208 2401,-265.225 2401,-235 2401,-235 2401,-235 2401,-121 2401,-54.0067 2329.96,-72.3842 2265,-56 2091.66,-12.2793 1524.03,-10.5066 1371.83,-10.8409"/>
<polygon fill="midnightblue" stroke="midnightblue" points="1371.6,-7.34143 1361.61,-10.8681 1371.62,-14.3414 1371.6,-7.34143"/>
</g>
<!-- Node37&#45;&gt;Node13 -->
<g id="edge230" class="edge"><title>Node37&#45;&gt;Node13</title>
<path fill="none" stroke="midnightblue" d="M2141.72,-338.043C2146.55,-337.349 2151.37,-336.658 2156,-336 2271.06,-319.652 2300.41,-319.405 2415,-300 2416.28,-299.783 2417.58,-299.557 2418.89,-299.324"/>
<polygon fill="midnightblue" stroke="midnightblue" points="2419.87,-302.704 2429.06,-297.439 2418.59,-295.821 2419.87,-302.704"/>
</g>
<!-- Node37&#45;&gt;Node14 -->
<g id="edge228" class="edge"><title>Node37&#45;&gt;Node14</title>
<path fill="none" stroke="midnightblue" d="M2046.09,-343.426C1908.78,-338.753 1502.05,-323.788 1165,-300 1146.98,-298.728 1127.11,-296.95 1110.07,-295.311"/>
<polygon fill="midnightblue" stroke="midnightblue" points="1110.16,-291.803 1099.86,-294.313 1109.48,-298.77 1110.16,-291.803"/>
</g>
<!-- Node37&#45;&gt;Node27 -->
<g id="edge232" class="edge"><title>Node37&#45;&gt;Node27</title>
<path fill="none" stroke="midnightblue" d="M2069.44,-336.444C2043.48,-327.399 2002.33,-313.064 1973.2,-302.916"/>
<polygon fill="midnightblue" stroke="midnightblue" points="1974.04,-299.501 1963.45,-299.516 1971.74,-306.112 1974.04,-299.501"/>
</g>
<!-- Node38&#45;&gt;Node2 -->
<g id="edge236" class="edge"><title>Node38&#45;&gt;Node2</title>
<path fill="none" stroke="midnightblue" d="M2391.04,-342.909C2424.36,-339.052 2470.36,-328.491 2499,-300 2520.43,-278.683 2519,-265.225 2519,-235 2519,-235 2519,-235 2519,-121 2519,-75.8741 2483.11,-72.2207 2441,-56 2339.59,-16.9364 1554.5,-11.7734 1371.87,-11.0997"/>
<polygon fill="midnightblue" stroke="midnightblue" points="1371.7,-7.59921 1361.68,-11.0646 1371.67,-14.5992 1371.7,-7.59921"/>
</g>
<!-- Node38&#45;&gt;Node13 -->
<g id="edge240" class="edge"><title>Node38&#45;&gt;Node13</title>
<path fill="none" stroke="midnightblue" d="M2367.67,-336.324C2385.39,-327.625 2412.9,-314.12 2433.29,-304.113"/>
<polygon fill="midnightblue" stroke="midnightblue" points="2434.94,-307.203 2442.37,-299.655 2431.85,-300.919 2434.94,-307.203"/>
</g>
<!-- Node38&#45;&gt;Node14 -->
<g id="edge238" class="edge"><title>Node38&#45;&gt;Node14</title>
<path fill="none" stroke="midnightblue" d="M2308.64,-343.037C2268.19,-341.141 2204.87,-338.237 2150,-336 1712.29,-318.153 1602.16,-328.247 1165,-300 1146.97,-298.835 1127.1,-297.075 1110.06,-295.42"/>
<polygon fill="midnightblue" stroke="midnightblue" points="1110.15,-291.912 1099.86,-294.409 1109.46,-298.878 1110.15,-291.912"/>
</g>
<!-- Node39&#45;&gt;Node2 -->
<g id="edge246" class="edge"><title>Node39&#45;&gt;Node2</title>
<path fill="none" stroke="midnightblue" d="M2116.17,-280.489C2112.37,-262.075 2104,-217.118 2104,-179 2104,-179 2104,-179 2104,-121 2104,-87.5366 2094.5,-73.536 2066,-56 2006.68,-19.5032 1514.04,-12.521 1372.12,-11.2625"/>
<polygon fill="midnightblue" stroke="midnightblue" points="1371.79,-7.75965 1361.76,-11.1754 1371.73,-14.7594 1371.79,-7.75965"/>
</g>
<!-- Node39&#45;&gt;Node15 -->
<g id="edge248" class="edge"><title>Node39&#45;&gt;Node15</title>
<path fill="none" stroke="midnightblue" d="M2080.3,-280.857C2034.43,-270.948 1957.21,-254.27 1909.63,-243.992"/>
<polygon fill="midnightblue" stroke="midnightblue" points="1910.17,-240.528 1899.66,-241.838 1908.69,-247.37 1910.17,-240.528"/>
</g>
<!-- Node40&#45;&gt;Node2 -->
<g id="edge252" class="edge"><title>Node40&#45;&gt;Node2</title>
<path fill="none" stroke="midnightblue" d="M1776,-280.378C1798.71,-246.588 1875.11,-121.818 1813,-56 1782.9,-24.1059 1479.84,-14.2567 1371.91,-11.7472"/>
<polygon fill="midnightblue" stroke="midnightblue" points="1371.87,-8.24552 1361.8,-11.5204 1371.72,-15.2438 1371.87,-8.24552"/>
</g>
<!-- Node40&#45;&gt;Node12 -->
<g id="edge256" class="edge"><title>Node40&#45;&gt;Node12</title>
<path fill="none" stroke="midnightblue" d="M1741.59,-284.889C1626.97,-268.299 1197.87,-206.191 1055.92,-185.646"/>
<polygon fill="midnightblue" stroke="midnightblue" points="1056.21,-182.151 1045.81,-184.183 1055.2,-189.079 1056.21,-182.151"/>
</g>
<!-- Node40&#45;&gt;Node15 -->
<g id="edge254" class="edge"><title>Node40&#45;&gt;Node15</title>
<path fill="none" stroke="midnightblue" d="M1785.75,-280.324C1801.32,-271.743 1825.38,-258.486 1843.46,-248.522"/>
<polygon fill="midnightblue" stroke="midnightblue" points="1845.22,-251.546 1852.29,-243.655 1841.85,-245.415 1845.22,-251.546"/>
</g>
<!-- Node41&#45;&gt;Node2 -->
<g id="edge260" class="edge"><title>Node41&#45;&gt;Node2</title>
<path fill="none" stroke="midnightblue" d="M2163.77,-616.337C2217.93,-572.628 2460.43,-375.433 2521,-300 2541.68,-274.251 2557,-268.024 2557,-235 2557,-235 2557,-235 2557,-121 2557,-76.5533 2522.38,-72.2125 2481,-56 2375.88,-14.82 1558.17,-11.2839 1371.75,-11.0148"/>
<polygon fill="midnightblue" stroke="midnightblue" points="1371.62,-7.51477 1361.61,-11.0026 1371.61,-14.5148 1371.62,-7.51477"/>
</g>
<!-- Node42 -->
<g id="node173" class="node"><title>Node42</title>
<a xlink:href="_s_l_revolver_8h.html" target="_top" xlink:title="SLRevolver.h">
<polygon fill="white" stroke="black" points="2244,-560.5 2244,-579.5 2322,-579.5 2322,-560.5 2244,-560.5"/>
<text text-anchor="middle" x="2283" y="-567.5" font-family="Arial.ttf" font-size="10.00">SLRevolver.h</text>
</a>
</g>
<!-- Node41&#45;&gt;Node42 -->
<g id="edge262" class="edge"><title>Node41&#45;&gt;Node42</title>
<path fill="none" stroke="midnightblue" d="M2173.6,-616.444C2194.99,-607.557 2228.68,-593.563 2253.02,-583.451"/>
<polygon fill="midnightblue" stroke="midnightblue" points="2254.61,-586.585 2262.5,-579.516 2251.92,-580.12 2254.61,-586.585"/>
</g>
<!-- Node42&#45;&gt;Node15 -->
<g id="edge264" class="edge"><title>Node42&#45;&gt;Node15</title>
<path fill="none" stroke="midnightblue" d="M2259.55,-560.47C2189.93,-533.88 1983.11,-445.46 1883,-300 1873.66,-286.435 1870.07,-267.887 1868.72,-254.075"/>
<polygon fill="midnightblue" stroke="midnightblue" points="1872.2,-253.547 1868.04,-243.801 1865.21,-254.011 1872.2,-253.547"/>
</g>
<!-- Node43&#45;&gt;Node42 -->
<g id="edge268" class="edge"><title>Node43&#45;&gt;Node42</title>
<path fill="none" stroke="midnightblue" d="M2247.1,-616.083C2253.24,-608.377 2262.27,-597.033 2269.74,-587.653"/>
<polygon fill="midnightblue" stroke="midnightblue" points="2272.54,-589.754 2276.03,-579.751 2267.06,-585.394 2272.54,-589.754"/>
</g>
<!-- Node44&#45;&gt;Node2 -->
<g id="edge272" class="edge"><title>Node44&#45;&gt;Node2</title>
<path fill="none" stroke="midnightblue" d="M2353.89,-616.423C2423.55,-595.338 2595,-540.814 2595,-515 2595,-515 2595,-515 2595,-121 2595,-77.225 2561.66,-72.2092 2521,-56 2412.25,-12.649 1562.45,-10.7983 1371.85,-10.9334"/>
<polygon fill="midnightblue" stroke="midnightblue" points="1371.76,-7.43339 1361.76,-10.9429 1371.76,-14.4334 1371.76,-7.43339"/>
</g>
<!-- Node44&#45;&gt;Node42 -->
<g id="edge274" class="edge"><title>Node44&#45;&gt;Node42</title>
<path fill="none" stroke="midnightblue" d="M2318.06,-616.083C2312.07,-608.377 2303.25,-597.033 2295.95,-587.653"/>
<polygon fill="midnightblue" stroke="midnightblue" points="2298.71,-585.496 2289.81,-579.751 2293.18,-589.793 2298.71,-585.496"/>
</g>
<!-- Node45&#45;&gt;Node2 -->
<g id="edge278" class="edge"><title>Node45&#45;&gt;Node2</title>
<path fill="none" stroke="midnightblue" d="M2440.24,-616.461C2502.45,-599.027 2633,-557.394 2633,-515 2633,-515 2633,-515 2633,-121 2633,-77.225 2599.67,-72.1854 2559,-56 2446.5,-11.2325 1565.97,-10.4967 1371.8,-10.8854"/>
<polygon fill="midnightblue" stroke="midnightblue" points="1371.52,-7.38587 1361.53,-10.9083 1371.54,-14.3859 1371.52,-7.38587"/>
</g>
<!-- Node45&#45;&gt;Node42 -->
<g id="edge280" class="edge"><title>Node45&#45;&gt;Node42</title>
<path fill="none" stroke="midnightblue" d="M2388.19,-616.444C2367.71,-607.596 2335.52,-593.687 2312.14,-583.586"/>
<polygon fill="midnightblue" stroke="midnightblue" points="2313.28,-580.269 2302.71,-579.516 2310.51,-586.695 2313.28,-580.269"/>
</g>
<!-- Node46&#45;&gt;Node2 -->
<g id="edge284" class="edge"><title>Node46&#45;&gt;Node2</title>
<path fill="none" stroke="midnightblue" d="M2252.71,-280.231C2248.07,-261.687 2238,-217.068 2238,-179 2238,-179 2238,-179 2238,-121 2238,-87.0792 2227.17,-73.3114 2198,-56 2126.34,-13.4749 1529.75,-10.8609 1372.09,-10.919"/>
<polygon fill="midnightblue" stroke="midnightblue" points="1371.93,-7.41907 1361.93,-10.9268 1371.93,-14.4191 1371.93,-7.41907"/>
</g>
<!-- Node46&#45;&gt;Node15 -->
<g id="edge286" class="edge"><title>Node46&#45;&gt;Node15</title>
<path fill="none" stroke="midnightblue" d="M2212.48,-283.067C2137.75,-272.639 1983.77,-251.154 1909.66,-240.812"/>
<polygon fill="midnightblue" stroke="midnightblue" points="1910.13,-237.345 1899.74,-239.429 1909.16,-244.278 1910.13,-237.345"/>
</g>
<!-- Node47&#45;&gt;Node2 -->
<g id="edge290" class="edge"><title>Node47&#45;&gt;Node2</title>
<path fill="none" stroke="midnightblue" d="M1676.27,-342.071C1757.73,-333.807 1981.85,-310.244 1994,-300 2017.11,-280.514 2014,-265.225 2014,-235 2014,-235 2014,-235 2014,-121 2014,-76.2146 1978.46,-72.9353 1937,-56 1833.92,-13.8959 1487.64,-10.6709 1371.98,-10.8022"/>
<polygon fill="midnightblue" stroke="midnightblue" points="1371.83,-7.30236 1361.83,-10.8232 1371.84,-14.3023 1371.83,-7.30236"/>
</g>
<!-- Node47&#45;&gt;Node5 -->
<g id="edge296" class="edge"><title>Node47&#45;&gt;Node5</title>
<path fill="none" stroke="midnightblue" d="M1651.85,-336.403C1662.48,-316.462 1685.93,-265.586 1674,-224 1657.82,-167.574 1644.21,-154.767 1604,-112 1592.59,-99.8647 1577.46,-88.9335 1564.89,-80.8842"/>
<polygon fill="midnightblue" stroke="midnightblue" points="1566.63,-77.841 1556.28,-75.5565 1562.94,-83.794 1566.63,-77.841"/>
</g>
<!-- Node47&#45;&gt;Node14 -->
<g id="edge292" class="edge"><title>Node47&#45;&gt;Node14</title>
<path fill="none" stroke="midnightblue" d="M1617.89,-342.285C1522.81,-333.417 1221.11,-305.279 1109.79,-294.897"/>
<polygon fill="midnightblue" stroke="midnightblue" points="1109.9,-291.393 1099.62,-293.949 1109.25,-298.363 1109.9,-291.393"/>
</g>
<!-- Node47&#45;&gt;Node16 -->
<g id="edge294" class="edge"><title>Node47&#45;&gt;Node16</title>
<path fill="none" stroke="midnightblue" d="M1653.61,-336.075C1673.31,-309.493 1731.81,-230.538 1757.58,-195.763"/>
<polygon fill="midnightblue" stroke="midnightblue" points="1760.51,-197.687 1763.65,-187.568 1754.89,-193.519 1760.51,-197.687"/>
</g>
<!-- Node48 -->
<g id="node197" class="node"><title>Node48</title>
<a xlink:href="_s_l_tex_font_8h.html" target="_top" xlink:title="SLTexFont.h">
<polygon fill="white" stroke="black" points="1590.5,-224.5 1590.5,-243.5 1665.5,-243.5 1665.5,-224.5 1590.5,-224.5"/>
<text text-anchor="middle" x="1628" y="-231.5" font-family="Arial.ttf" font-size="10.00">SLTexFont.h</text>
</a>
</g>
<!-- Node47&#45;&gt;Node48 -->
<g id="edge298" class="edge"><title>Node47&#45;&gt;Node48</title>
<path fill="none" stroke="midnightblue" d="M1640.9,-336.191C1635.25,-327.46 1627.24,-313.478 1624,-300 1620.32,-284.697 1621.82,-266.815 1623.96,-253.685"/>
<polygon fill="midnightblue" stroke="midnightblue" points="1627.46,-254.032 1625.89,-243.553 1620.58,-252.722 1627.46,-254.032"/>
</g>
<!-- Node48&#45;&gt;Node2 -->
<g id="edge300" class="edge"><title>Node48&#45;&gt;Node2</title>
<path fill="none" stroke="midnightblue" d="M1631.13,-224.213C1640.67,-195.707 1666.11,-104.826 1622,-56 1589.33,-19.834 1442.79,-12.6158 1372.22,-11.2586"/>
<polygon fill="midnightblue" stroke="midnightblue" points="1372.03,-7.75519 1361.98,-11.0928 1371.92,-14.7543 1372.03,-7.75519"/>
</g>
<!-- Node48&#45;&gt;Node5 -->
<g id="edge304" class="edge"><title>Node48&#45;&gt;Node5</title>
<path fill="none" stroke="midnightblue" d="M1626.38,-224.433C1622.14,-203.684 1609.29,-149.673 1584,-112 1576.79,-101.258 1566.92,-90.7207 1558.45,-82.546"/>
<polygon fill="midnightblue" stroke="midnightblue" points="1560.6,-79.7627 1550.9,-75.503 1555.82,-84.8824 1560.6,-79.7627"/>
</g>
<!-- Node48&#45;&gt;Node8 -->
<g id="edge302" class="edge"><title>Node48&#45;&gt;Node8</title>
<path fill="none" stroke="midnightblue" d="M1616.59,-224.324C1605.89,-216.185 1589.66,-203.839 1576.84,-194.087"/>
<polygon fill="midnightblue" stroke="midnightblue" points="1578.69,-191.102 1568.61,-187.834 1574.46,-196.673 1578.69,-191.102"/>
</g>
<!-- Node49&#45;&gt;Node2 -->
<g id="edge308" class="edge"><title>Node49&#45;&gt;Node2</title>
<path fill="none" stroke="midnightblue" d="M2338.16,-280.308C2326.62,-262.261 2302,-219.066 2302,-179 2302,-179 2302,-179 2302,-121 2302,-76.2146 2266.66,-72.436 2225,-56 2144.9,-24.3973 1531.56,-13.7422 1371.9,-11.4891"/>
<polygon fill="midnightblue" stroke="midnightblue" points="1371.67,-7.98571 1361.62,-11.347 1371.57,-14.985 1371.67,-7.98571"/>
</g>
<!-- Node49&#45;&gt;Node15 -->
<g id="edge310" class="edge"><title>Node49&#45;&gt;Node15</title>
<path fill="none" stroke="midnightblue" d="M2315.45,-281.817C2312.27,-281.143 2309.08,-280.52 2306,-280 2161.67,-255.6 1988.19,-242.524 1909.92,-237.484"/>
<polygon fill="midnightblue" stroke="midnightblue" points="1909.73,-233.965 1899.52,-236.826 1909.28,-240.951 1909.73,-233.965"/>
</g>
<!-- Node50&#45;&gt;Node2 -->
<g id="edge314" class="edge"><title>Node50&#45;&gt;Node2</title>
<path fill="none" stroke="midnightblue" d="M2522.36,-620.506C2573.43,-611.041 2671,-583.938 2671,-515 2671,-515 2671,-515 2671,-121 2671,-77.225 2637.68,-72.1629 2597,-56 2480.75,-9.81214 1569.32,-10.2044 1371.71,-10.8405"/>
<polygon fill="midnightblue" stroke="midnightblue" points="1371.53,-7.34097 1361.54,-10.8755 1371.55,-14.3409 1371.53,-7.34097"/>
</g>
<!-- Node50&#45;&gt;Node42 -->
<g id="edge316" class="edge"><title>Node50&#45;&gt;Node42</title>
<path fill="none" stroke="midnightblue" d="M2461.61,-617.148C2425.92,-607.925 2366.45,-592.562 2326.03,-582.118"/>
<polygon fill="midnightblue" stroke="midnightblue" points="2326.75,-578.689 2316.19,-579.576 2325,-585.466 2326.75,-578.689"/>
</g>
</g>
</svg>
