<?xml version="1.0" encoding="UTF-8" standalone="no"?>
<!DOCTYPE svg PUBLIC "-//W3C//DTD SVG 1.1//EN"
 "http://www.w3.org/Graphics/SVG/1.1/DTD/svg11.dtd">
<!-- Generated by graphviz version 2.50.0 (20211204.2007)
 -->
<!-- Title: SLDeviceRotation.cpp Pages: 1 -->
<svg width="943pt" height="532pt"
 viewBox="0.00 0.00 942.50 532.00" xmlns="http://www.w3.org/2000/svg" xmlns:xlink="http://www.w3.org/1999/xlink">
<g id="graph0" class="graph" transform="scale(1 1) rotate(0) translate(4 528)">
<title>SLDeviceRotation.cpp</title>
<polygon fill="white" stroke="transparent" points="-4,4 -4,-528 938.5,-528 938.5,4 -4,4"/>
<!-- Node1 -->
<g id="node1" class="node">
<title>Node1</title>
<g id="a_node1"><a xlink:title=" ">
<polygon fill="#bfbfbf" stroke="black" points="544,-504.5 544,-523.5 659,-523.5 659,-504.5 544,-504.5"/>
<text text-anchor="middle" x="601.5" y="-511.5" font-family="Arial" font-size="10.00">SLDeviceRotation.cpp</text>
</a>
</g>
</g>
<!-- Node2 -->
<g id="node2" class="node">
<title>Node2</title>
<g id="a_node2"><a xlink:href="_s_l_device_rotation_8h.html" target="_top" xlink:title=" ">
<polygon fill="white" stroke="black" points="549.5,-448.5 549.5,-467.5 653.5,-467.5 653.5,-448.5 549.5,-448.5"/>
<text text-anchor="middle" x="601.5" y="-455.5" font-family="Arial" font-size="10.00">SLDeviceRotation.h</text>
</a>
</g>
</g>
<!-- Node1&#45;&gt;Node2 -->
<g id="edge1" class="edge">
<title>Node1&#45;&gt;Node2</title>
<path fill="none" stroke="midnightblue" d="M601.5,-504.08C601.5,-497.01 601.5,-486.86 601.5,-477.99"/>
<polygon fill="midnightblue" stroke="midnightblue" points="605,-477.75 601.5,-467.75 598,-477.75 605,-477.75"/>
</g>
<!-- Node3 -->
<g id="node3" class="node">
<title>Node3</title>
<g id="a_node3"><a xlink:href="_s_l_8h.html" target="_top" xlink:title=" ">
<polygon fill="white" stroke="black" points="0,-224.5 0,-243.5 37,-243.5 37,-224.5 0,-224.5"/>
<text text-anchor="middle" x="18.5" y="-231.5" font-family="Arial" font-size="10.00">SL.h</text>
</a>
</g>
</g>
<!-- Node2&#45;&gt;Node3 -->
<g id="edge2" class="edge">
<title>Node2&#45;&gt;Node3</title>
<path fill="none" stroke="midnightblue" d="M549.36,-454.41C426.46,-447.25 123.54,-423.06 51.5,-356 22.9,-329.38 18.18,-280.63 17.92,-253.85"/>
<polygon fill="midnightblue" stroke="midnightblue" points="21.42,-253.58 18.03,-243.55 14.42,-253.51 21.42,-253.58"/>
</g>
<!-- Node13 -->
<g id="node13" class="node">
<title>Node13</title>
<g id="a_node13"><a xlink:href="_s_l_mat3_8h.html" target="_top" xlink:title=" ">
<polygon fill="white" stroke="black" points="701,-280.5 701,-299.5 760,-299.5 760,-280.5 701,-280.5"/>
<text text-anchor="middle" x="730.5" y="-287.5" font-family="Arial" font-size="10.00">SLMat3.h</text>
</a>
</g>
</g>
<!-- Node2&#45;&gt;Node13 -->
<g id="edge15" class="edge">
<title>Node2&#45;&gt;Node13</title>
<path fill="none" stroke="midnightblue" d="M608.44,-448.08C629.09,-421.49 690.45,-342.54 717.47,-307.76"/>
<polygon fill="midnightblue" stroke="midnightblue" points="720.47,-309.61 723.84,-299.57 714.94,-305.32 720.47,-309.61"/>
</g>
<!-- Node20 -->
<g id="node20" class="node">
<title>Node20</title>
<g id="a_node20"><a xlink:href="_s_l_quat4_8h.html" target="_top" xlink:title=" ">
<polygon fill="white" stroke="black" points="345,-392.5 345,-411.5 408,-411.5 408,-392.5 345,-392.5"/>
<text text-anchor="middle" x="376.5" y="-399.5" font-family="Arial" font-size="10.00">SLQuat4.h</text>
</a>
</g>
</g>
<!-- Node2&#45;&gt;Node20 -->
<g id="edge29" class="edge">
<title>Node2&#45;&gt;Node20</title>
<path fill="none" stroke="midnightblue" d="M565.85,-448.44C525.7,-438.81 460.53,-423.17 418.09,-412.98"/>
<polygon fill="midnightblue" stroke="midnightblue" points="418.89,-409.57 408.35,-410.64 417.25,-416.38 418.89,-409.57"/>
</g>
<!-- Node27 -->
<g id="node27" class="node">
<title>Node27</title>
<g id="a_node27"><a xlink:href="_averaged_8h.html" target="_top" xlink:title=" ">
<polygon fill="white" stroke="black" points="855.5,-280.5 855.5,-299.5 921.5,-299.5 921.5,-280.5 855.5,-280.5"/>
<text text-anchor="middle" x="888.5" y="-287.5" font-family="Arial" font-size="10.00">Averaged.h</text>
</a>
</g>
</g>
<!-- Node2&#45;&gt;Node27 -->
<g id="edge47" class="edge">
<title>Node2&#45;&gt;Node27</title>
<path fill="none" stroke="midnightblue" d="M616.53,-448.31C663.51,-421.14 807.87,-337.64 864.94,-304.63"/>
<polygon fill="midnightblue" stroke="midnightblue" points="866.72,-307.64 873.62,-299.61 863.21,-301.58 866.72,-307.64"/>
</g>
<!-- Node4 -->
<g id="node4" class="node">
<title>Node4</title>
<g id="a_node4"><a xlink:href="_utils_8h.html" target="_top" xlink:title=" ">
<polygon fill="white" stroke="black" points="230,-112.5 230,-131.5 275,-131.5 275,-112.5 230,-112.5"/>
<text text-anchor="middle" x="252.5" y="-119.5" font-family="Arial" font-size="10.00">Utils.h</text>
</a>
</g>
</g>
<!-- Node3&#45;&gt;Node4 -->
<g id="edge3" class="edge">
<title>Node3&#45;&gt;Node4</title>
<path fill="none" stroke="midnightblue" d="M20.38,-224.32C23.91,-210.21 32.91,-182.44 51.5,-168 100.83,-129.67 176.43,-122.7 219.48,-122.13"/>
<polygon fill="midnightblue" stroke="midnightblue" points="219.7,-125.63 229.69,-122.11 219.68,-118.63 219.7,-125.63"/>
</g>
<!-- Node5 -->
<g id="node5" class="node">
<title>Node5</title>
<g id="a_node5"><a xlink:title=" ">
<polygon fill="white" stroke="#bfbfbf" points="471,-0.5 471,-19.5 512,-19.5 512,-0.5 471,-0.5"/>
<text text-anchor="middle" x="491.5" y="-7.5" font-family="Arial" font-size="10.00">string</text>
</a>
</g>
</g>
<!-- Node4&#45;&gt;Node5 -->
<g id="edge4" class="edge">
<title>Node4&#45;&gt;Node5</title>
<path fill="none" stroke="midnightblue" d="M275.21,-119.07C324.62,-114.42 439.72,-101.14 468.5,-76 481.86,-64.33 487.46,-44.38 489.81,-29.66"/>
<polygon fill="midnightblue" stroke="midnightblue" points="493.29,-29.99 491.04,-19.64 486.35,-29.13 493.29,-29.99"/>
</g>
<!-- Node6 -->
<g id="node6" class="node">
<title>Node6</title>
<g id="a_node6"><a xlink:title=" ">
<polygon fill="white" stroke="#bfbfbf" points="515.5,-56.5 515.5,-75.5 559.5,-75.5 559.5,-56.5 515.5,-56.5"/>
<text text-anchor="middle" x="537.5" y="-63.5" font-family="Arial" font-size="10.00">vector</text>
</a>
</g>
</g>
<!-- Node4&#45;&gt;Node6 -->
<g id="edge5" class="edge">
<title>Node4&#45;&gt;Node6</title>
<path fill="none" stroke="midnightblue" d="M275.26,-117.41C319.18,-110.35 418.61,-93.83 501.5,-76 502.78,-75.73 504.07,-75.44 505.38,-75.14"/>
<polygon fill="midnightblue" stroke="midnightblue" points="506.55,-78.46 515.47,-72.75 504.93,-71.65 506.55,-78.46"/>
</g>
<!-- Node7 -->
<g id="node7" class="node">
<title>Node7</title>
<g id="a_node7"><a xlink:title=" ">
<polygon fill="white" stroke="#bfbfbf" points="135,-56.5 135,-75.5 176,-75.5 176,-56.5 135,-56.5"/>
<text text-anchor="middle" x="155.5" y="-63.5" font-family="Arial" font-size="10.00">cfloat</text>
</a>
</g>
</g>
<!-- Node4&#45;&gt;Node7 -->
<g id="edge6" class="edge">
<title>Node4&#45;&gt;Node7</title>
<path fill="none" stroke="midnightblue" d="M236.92,-112.32C221.5,-103.74 197.69,-90.49 179.79,-80.52"/>
<polygon fill="midnightblue" stroke="midnightblue" points="181.49,-77.46 171.05,-75.65 178.08,-83.58 181.49,-77.46"/>
</g>
<!-- Node8 -->
<g id="node8" class="node">
<title>Node8</title>
<g id="a_node8"><a xlink:title=" ">
<polygon fill="white" stroke="#bfbfbf" points="288.5,-0.5 288.5,-19.5 340.5,-19.5 340.5,-0.5 288.5,-0.5"/>
<text text-anchor="middle" x="314.5" y="-7.5" font-family="Arial" font-size="10.00">memory</text>
</a>
</g>
</g>
<!-- Node4&#45;&gt;Node8 -->
<g id="edge7" class="edge">
<title>Node4&#45;&gt;Node8</title>
<path fill="none" stroke="midnightblue" d="M257.37,-112.37C267.55,-94.3 291.29,-52.18 304.74,-28.31"/>
<polygon fill="midnightblue" stroke="midnightblue" points="307.8,-30.02 309.66,-19.59 301.7,-26.58 307.8,-30.02"/>
</g>
<!-- Node9 -->
<g id="node9" class="node">
<title>Node9</title>
<g id="a_node9"><a xlink:href="_file_log_8h.html" target="_top" xlink:title=" ">
<polygon fill="white" stroke="black" points="403.5,-56.5 403.5,-75.5 459.5,-75.5 459.5,-56.5 403.5,-56.5"/>
<text text-anchor="middle" x="431.5" y="-63.5" font-family="Arial" font-size="10.00">FileLog.h</text>
</a>
</g>
</g>
<!-- Node4&#45;&gt;Node9 -->
<g id="edge8" class="edge">
<title>Node4&#45;&gt;Node9</title>
<path fill="none" stroke="midnightblue" d="M275.17,-114.16C305.01,-105.16 357.87,-89.21 393.78,-78.38"/>
<polygon fill="midnightblue" stroke="midnightblue" points="394.87,-81.71 403.43,-75.47 392.84,-75.01 394.87,-81.71"/>
</g>
<!-- Node11 -->
<g id="node11" class="node">
<title>Node11</title>
<g id="a_node11"><a xlink:href="_custom_log_8h.html" target="_top" xlink:title=" ">
<polygon fill="white" stroke="black" points="310,-56.5 310,-75.5 385,-75.5 385,-56.5 310,-56.5"/>
<text text-anchor="middle" x="347.5" y="-63.5" font-family="Arial" font-size="10.00">CustomLog.h</text>
</a>
</g>
</g>
<!-- Node4&#45;&gt;Node11 -->
<g id="edge11" class="edge">
<title>Node4&#45;&gt;Node11</title>
<path fill="none" stroke="midnightblue" d="M267.76,-112.32C282.72,-103.82 305.75,-90.73 323.23,-80.8"/>
<polygon fill="midnightblue" stroke="midnightblue" points="325.31,-83.64 332.27,-75.65 321.85,-77.55 325.31,-83.64"/>
</g>
<!-- Node12 -->
<g id="node12" class="node">
<title>Node12</title>
<g id="a_node12"><a xlink:title=" ">
<polygon fill="white" stroke="#bfbfbf" points="194,-56.5 194,-75.5 253,-75.5 253,-56.5 194,-56.5"/>
<text text-anchor="middle" x="223.5" y="-63.5" font-family="Arial" font-size="10.00">functional</text>
</a>
</g>
</g>
<!-- Node4&#45;&gt;Node12 -->
<g id="edge14" class="edge">
<title>Node4&#45;&gt;Node12</title>
<path fill="none" stroke="midnightblue" d="M247.71,-112.08C243.74,-104.69 237.97,-93.95 233.07,-84.81"/>
<polygon fill="midnightblue" stroke="midnightblue" points="236.01,-82.91 228.2,-75.75 229.85,-86.22 236.01,-82.91"/>
</g>
<!-- Node9&#45;&gt;Node5 -->
<g id="edge9" class="edge">
<title>Node9&#45;&gt;Node5</title>
<path fill="none" stroke="midnightblue" d="M441.14,-56.32C450.01,-48.34 463.37,-36.31 474.11,-26.65"/>
<polygon fill="midnightblue" stroke="midnightblue" points="476.59,-29.13 481.68,-19.83 471.91,-23.92 476.59,-29.13"/>
</g>
<!-- Node10 -->
<g id="node10" class="node">
<title>Node10</title>
<g id="a_node10"><a xlink:title=" ">
<polygon fill="white" stroke="#bfbfbf" points="402.5,-0.5 402.5,-19.5 452.5,-19.5 452.5,-0.5 402.5,-0.5"/>
<text text-anchor="middle" x="427.5" y="-7.5" font-family="Arial" font-size="10.00">fstream</text>
</a>
</g>
</g>
<!-- Node9&#45;&gt;Node10 -->
<g id="edge10" class="edge">
<title>Node9&#45;&gt;Node10</title>
<path fill="none" stroke="midnightblue" d="M430.84,-56.08C430.32,-49.01 429.56,-38.86 428.91,-29.99"/>
<polygon fill="midnightblue" stroke="midnightblue" points="432.38,-29.47 428.15,-19.75 425.4,-29.98 432.38,-29.47"/>
</g>
<!-- Node11&#45;&gt;Node5 -->
<g id="edge13" class="edge">
<title>Node11&#45;&gt;Node5</title>
<path fill="none" stroke="midnightblue" d="M370.32,-56.44C394.9,-47.23 434.12,-32.52 461.26,-22.34"/>
<polygon fill="midnightblue" stroke="midnightblue" points="462.53,-25.6 470.66,-18.82 460.07,-19.05 462.53,-25.6"/>
</g>
<!-- Node11&#45;&gt;Node8 -->
<g id="edge12" class="edge">
<title>Node11&#45;&gt;Node8</title>
<path fill="none" stroke="midnightblue" d="M342.05,-56.08C337.49,-48.61 330.83,-37.72 325.21,-28.52"/>
<polygon fill="midnightblue" stroke="midnightblue" points="328.05,-26.46 319.85,-19.75 322.08,-30.11 328.05,-26.46"/>
</g>
<!-- Node13&#45;&gt;Node4 -->
<g id="edge19" class="edge">
<title>Node13&#45;&gt;Node4</title>
<path fill="none" stroke="midnightblue" d="M705.81,-280.42C625.92,-252.68 374.45,-165.35 284.72,-134.19"/>
<polygon fill="midnightblue" stroke="midnightblue" points="285.67,-130.82 275.08,-130.84 283.38,-137.43 285.67,-130.82"/>
</g>
<!-- Node14 -->
<g id="node14" class="node">
<title>Node14</title>
<g id="a_node14"><a xlink:href="_s_l_math_8h.html" target="_top" xlink:title=" ">
<polygon fill="white" stroke="black" points="558,-112.5 558,-131.5 617,-131.5 617,-112.5 558,-112.5"/>
<text text-anchor="middle" x="587.5" y="-119.5" font-family="Arial" font-size="10.00">SLMath.h</text>
</a>
</g>
</g>
<!-- Node13&#45;&gt;Node14 -->
<g id="edge16" class="edge">
<title>Node13&#45;&gt;Node14</title>
<path fill="none" stroke="midnightblue" d="M722.81,-280.08C699.82,-253.38 631.32,-173.87 601.56,-139.32"/>
<polygon fill="midnightblue" stroke="midnightblue" points="604.06,-136.86 594.88,-131.57 598.76,-141.43 604.06,-136.86"/>
</g>
<!-- Node15 -->
<g id="node15" class="node">
<title>Node15</title>
<g id="a_node15"><a xlink:href="_s_l_vec3_8h.html" target="_top" xlink:title=" ">
<polygon fill="white" stroke="black" points="265.5,-224.5 265.5,-243.5 323.5,-243.5 323.5,-224.5 265.5,-224.5"/>
<text text-anchor="middle" x="294.5" y="-231.5" font-family="Arial" font-size="10.00">SLVec3.h</text>
</a>
</g>
</g>
<!-- Node13&#45;&gt;Node15 -->
<g id="edge20" class="edge">
<title>Node13&#45;&gt;Node15</title>
<path fill="none" stroke="midnightblue" d="M700.87,-285.33C624.33,-275.85 419.97,-250.54 333.75,-239.86"/>
<polygon fill="midnightblue" stroke="midnightblue" points="333.95,-236.36 323.59,-238.6 333.09,-243.31 333.95,-236.36"/>
</g>
<!-- Node18 -->
<g id="node18" class="node">
<title>Node18</title>
<g id="a_node18"><a xlink:title=" ">
<polygon fill="white" stroke="#bfbfbf" points="706.5,-224.5 706.5,-243.5 760.5,-243.5 760.5,-224.5 706.5,-224.5"/>
<text text-anchor="middle" x="733.5" y="-231.5" font-family="Arial" font-size="10.00">iostream</text>
</a>
</g>
</g>
<!-- Node13&#45;&gt;Node18 -->
<g id="edge27" class="edge">
<title>Node13&#45;&gt;Node18</title>
<path fill="none" stroke="midnightblue" d="M731,-280.08C731.39,-273.01 731.95,-262.86 732.45,-253.99"/>
<polygon fill="midnightblue" stroke="midnightblue" points="735.95,-253.93 733.01,-243.75 728.96,-253.54 735.95,-253.93"/>
</g>
<!-- Node19 -->
<g id="node19" class="node">
<title>Node19</title>
<g id="a_node19"><a xlink:title=" ">
<polygon fill="white" stroke="#bfbfbf" points="816.5,-224.5 816.5,-243.5 868.5,-243.5 868.5,-224.5 816.5,-224.5"/>
<text text-anchor="middle" x="842.5" y="-231.5" font-family="Arial" font-size="10.00">assert.h</text>
</a>
</g>
</g>
<!-- Node13&#45;&gt;Node19 -->
<g id="edge28" class="edge">
<title>Node13&#45;&gt;Node19</title>
<path fill="none" stroke="midnightblue" d="M748.49,-280.32C766.54,-271.62 794.55,-258.12 815.3,-248.11"/>
<polygon fill="midnightblue" stroke="midnightblue" points="817.06,-251.15 824.55,-243.65 814.02,-244.84 817.06,-251.15"/>
</g>
<!-- Node14&#45;&gt;Node5 -->
<g id="edge18" class="edge">
<title>Node14&#45;&gt;Node5</title>
<path fill="none" stroke="midnightblue" d="M586.96,-112.07C585.72,-98.6 581.67,-72.86 568.5,-56 556.5,-40.64 537.69,-29.51 521.66,-22.16"/>
<polygon fill="midnightblue" stroke="midnightblue" points="522.7,-18.79 512.13,-18.06 519.93,-25.22 522.7,-18.79"/>
</g>
<!-- Node14&#45;&gt;Node6 -->
<g id="edge17" class="edge">
<title>Node14&#45;&gt;Node6</title>
<path fill="none" stroke="midnightblue" d="M579.24,-112.08C572.04,-104.3 561.39,-92.8 552.65,-83.37"/>
<polygon fill="midnightblue" stroke="midnightblue" points="554.97,-80.71 545.6,-75.75 549.83,-85.47 554.97,-80.71"/>
</g>
<!-- Node15&#45;&gt;Node4 -->
<g id="edge26" class="edge">
<title>Node15&#45;&gt;Node4</title>
<path fill="none" stroke="midnightblue" d="M292.54,-224.41C289.54,-211.81 283.32,-187.67 275.5,-168 271.81,-158.73 266.86,-148.81 262.5,-140.65"/>
<polygon fill="midnightblue" stroke="midnightblue" points="265.48,-138.81 257.59,-131.74 259.34,-142.18 265.48,-138.81"/>
</g>
<!-- Node15&#45;&gt;Node14 -->
<g id="edge22" class="edge">
<title>Node15&#45;&gt;Node14</title>
<path fill="none" stroke="midnightblue" d="M317.49,-224.37C369.27,-204.93 495.14,-157.67 554.93,-135.23"/>
<polygon fill="midnightblue" stroke="midnightblue" points="556.48,-138.38 564.62,-131.59 554.02,-131.83 556.48,-138.38"/>
</g>
<!-- Node16 -->
<g id="node16" class="node">
<title>Node16</title>
<g id="a_node16"><a xlink:title=" ">
<polygon fill="white" stroke="#bfbfbf" points="323,-168.5 323,-187.5 370,-187.5 370,-168.5 323,-168.5"/>
<text text-anchor="middle" x="346.5" y="-175.5" font-family="Arial" font-size="10.00">math.h</text>
</a>
</g>
</g>
<!-- Node15&#45;&gt;Node16 -->
<g id="edge21" class="edge">
<title>Node15&#45;&gt;Node16</title>
<path fill="none" stroke="midnightblue" d="M303.09,-224.08C310.66,-216.22 321.88,-204.57 331.01,-195.08"/>
<polygon fill="midnightblue" stroke="midnightblue" points="333.66,-197.38 338.07,-187.75 328.62,-192.53 333.66,-197.38"/>
</g>
<!-- Node17 -->
<g id="node17" class="node">
<title>Node17</title>
<g id="a_node17"><a xlink:href="_s_l_vec2_8h.html" target="_top" xlink:title=" ">
<polygon fill="white" stroke="black" points="208.5,-168.5 208.5,-187.5 266.5,-187.5 266.5,-168.5 208.5,-168.5"/>
<text text-anchor="middle" x="237.5" y="-175.5" font-family="Arial" font-size="10.00">SLVec2.h</text>
</a>
</g>
</g>
<!-- Node15&#45;&gt;Node17 -->
<g id="edge23" class="edge">
<title>Node15&#45;&gt;Node17</title>
<path fill="none" stroke="midnightblue" d="M285.34,-224.32C277,-216.42 264.47,-204.55 254.32,-194.94"/>
<polygon fill="midnightblue" stroke="midnightblue" points="256.49,-192.17 246.82,-187.83 251.68,-197.25 256.49,-192.17"/>
</g>
<!-- Node17&#45;&gt;Node4 -->
<g id="edge25" class="edge">
<title>Node17&#45;&gt;Node4</title>
<path fill="none" stroke="midnightblue" d="M239.98,-168.08C241.99,-160.85 244.89,-150.41 247.39,-141.4"/>
<polygon fill="midnightblue" stroke="midnightblue" points="250.76,-142.32 250.07,-131.75 244.02,-140.45 250.76,-142.32"/>
</g>
<!-- Node17&#45;&gt;Node14 -->
<g id="edge24" class="edge">
<title>Node17&#45;&gt;Node14</title>
<path fill="none" stroke="midnightblue" d="M266.74,-172.49C329.38,-162.82 476.58,-140.11 547.68,-129.14"/>
<polygon fill="midnightblue" stroke="midnightblue" points="548.25,-132.6 557.6,-127.61 547.19,-125.68 548.25,-132.6"/>
</g>
<!-- Node20&#45;&gt;Node4 -->
<g id="edge46" class="edge">
<title>Node20&#45;&gt;Node4</title>
<path fill="none" stroke="midnightblue" d="M344.97,-396.72C265.9,-385.1 65.5,-349.85 65.5,-291 65.5,-291 65.5,-291 65.5,-233 65.5,-162.2 166.32,-136.07 219.9,-127.18"/>
<polygon fill="midnightblue" stroke="midnightblue" points="220.6,-130.61 229.94,-125.62 219.53,-123.69 220.6,-130.61"/>
</g>
<!-- Node20&#45;&gt;Node14 -->
<g id="edge30" class="edge">
<title>Node20&#45;&gt;Node14</title>
<path fill="none" stroke="midnightblue" d="M408.14,-399.36C504.62,-393.53 788.5,-369.66 788.5,-291 788.5,-291 788.5,-291 788.5,-233 788.5,-160.2 685.78,-135.27 627.2,-126.97"/>
<polygon fill="midnightblue" stroke="midnightblue" points="627.53,-123.49 617.16,-125.65 626.62,-130.43 627.53,-123.49"/>
</g>
<!-- Node21 -->
<g id="node21" class="node">
<title>Node21</title>
<g id="a_node21"><a xlink:href="_s_l_mat4_8h.html" target="_top" xlink:title=" ">
<polygon fill="white" stroke="black" points="347,-336.5 347,-355.5 406,-355.5 406,-336.5 347,-336.5"/>
<text text-anchor="middle" x="376.5" y="-343.5" font-family="Arial" font-size="10.00">SLMat4.h</text>
</a>
</g>
</g>
<!-- Node20&#45;&gt;Node21 -->
<g id="edge31" class="edge">
<title>Node20&#45;&gt;Node21</title>
<path fill="none" stroke="midnightblue" d="M376.5,-392.08C376.5,-385.01 376.5,-374.86 376.5,-365.99"/>
<polygon fill="midnightblue" stroke="midnightblue" points="380,-365.75 376.5,-355.75 373,-365.75 380,-365.75"/>
</g>
<!-- Node23 -->
<g id="node23" class="node">
<title>Node23</title>
<g id="a_node23"><a xlink:href="_s_l_vec4_8h.html" target="_top" xlink:title=" ">
<polygon fill="white" stroke="black" points="93.5,-280.5 93.5,-299.5 151.5,-299.5 151.5,-280.5 93.5,-280.5"/>
<text text-anchor="middle" x="122.5" y="-287.5" font-family="Arial" font-size="10.00">SLVec4.h</text>
</a>
</g>
</g>
<!-- Node20&#45;&gt;Node23 -->
<g id="edge45" class="edge">
<title>Node20&#45;&gt;Node23</title>
<path fill="none" stroke="midnightblue" d="M356.57,-392.37C311.96,-373.05 203.92,-326.26 151.71,-303.65"/>
<polygon fill="midnightblue" stroke="midnightblue" points="152.91,-300.35 142.34,-299.59 150.12,-306.78 152.91,-300.35"/>
</g>
<!-- Node21&#45;&gt;Node4 -->
<g id="edge34" class="edge">
<title>Node21&#45;&gt;Node4</title>
<path fill="none" stroke="midnightblue" d="M346.83,-344.22C313.39,-341.71 259.64,-332.47 228.5,-300 186.92,-256.65 174.27,-222.51 199.5,-168 205.42,-155.21 216.97,-144.72 227.78,-137.1"/>
<polygon fill="midnightblue" stroke="midnightblue" points="229.71,-140.02 236.17,-131.61 225.88,-134.16 229.71,-140.02"/>
</g>
<!-- Node21&#45;&gt;Node13 -->
<g id="edge35" class="edge">
<title>Node21&#45;&gt;Node13</title>
<path fill="none" stroke="midnightblue" d="M406.08,-341.28C461.34,-334.21 583.91,-317.92 686.5,-300 687.94,-299.75 689.41,-299.49 690.88,-299.21"/>
<polygon fill="midnightblue" stroke="midnightblue" points="691.56,-302.65 700.72,-297.33 690.24,-295.77 691.56,-302.65"/>
</g>
<!-- Node21&#45;&gt;Node14 -->
<g id="edge32" class="edge">
<title>Node21&#45;&gt;Node14</title>
<path fill="none" stroke="midnightblue" d="M406.31,-344.78C471.04,-343.61 621.13,-336.9 652.5,-300 658.26,-293.23 654.23,-288.72 652.5,-280 641.95,-226.91 613.13,-169.28 597.65,-140.88"/>
<polygon fill="midnightblue" stroke="midnightblue" points="600.53,-138.85 592.61,-131.81 594.41,-142.25 600.53,-138.85"/>
</g>
<!-- Node21&#45;&gt;Node15 -->
<g id="edge36" class="edge">
<title>Node21&#45;&gt;Node15</title>
<path fill="none" stroke="midnightblue" d="M346.91,-344.97C313.85,-343.16 261.69,-334.56 236.5,-300 222.7,-281.07 246.83,-261.26 268.04,-248.55"/>
<polygon fill="midnightblue" stroke="midnightblue" points="269.86,-251.55 276.83,-243.57 266.41,-245.46 269.86,-251.55"/>
</g>
<!-- Node22 -->
<g id="node22" class="node">
<title>Node22</title>
<g id="a_node22"><a xlink:title=" ">
<polygon fill="white" stroke="#bfbfbf" points="603,-280.5 603,-299.5 644,-299.5 644,-280.5 603,-280.5"/>
<text text-anchor="middle" x="623.5" y="-287.5" font-family="Arial" font-size="10.00">stack</text>
</a>
</g>
</g>
<!-- Node21&#45;&gt;Node22 -->
<g id="edge33" class="edge">
<title>Node21&#45;&gt;Node22</title>
<path fill="none" stroke="midnightblue" d="M406.17,-339.69C446.33,-332.33 520.39,-318.1 593.12,-299.91"/>
<polygon fill="midnightblue" stroke="midnightblue" points="594.07,-303.28 602.91,-297.43 592.36,-296.49 594.07,-303.28"/>
</g>
<!-- Node21&#45;&gt;Node23 -->
<g id="edge37" class="edge">
<title>Node21&#45;&gt;Node23</title>
<path fill="none" stroke="midnightblue" d="M346.87,-338.7C300.95,-328.94 212.62,-310.16 161.55,-299.3"/>
<polygon fill="midnightblue" stroke="midnightblue" points="162.06,-295.83 151.55,-297.18 160.61,-302.68 162.06,-295.83"/>
</g>
<!-- Node24 -->
<g id="node24" class="node">
<title>Node24</title>
<g id="a_node24"><a xlink:title=" ">
<polygon fill="white" stroke="#bfbfbf" points="246,-280.5 246,-299.5 295,-299.5 295,-280.5 246,-280.5"/>
<text text-anchor="middle" x="270.5" y="-287.5" font-family="Arial" font-size="10.00">cassert</text>
</a>
</g>
</g>
<!-- Node21&#45;&gt;Node24 -->
<g id="edge42" class="edge">
<title>Node21&#45;&gt;Node24</title>
<path fill="none" stroke="midnightblue" d="M359.47,-336.32C342.47,-327.66 316.12,-314.24 296.51,-304.25"/>
<polygon fill="midnightblue" stroke="midnightblue" points="297.99,-301.08 287.49,-299.65 294.81,-307.31 297.99,-301.08"/>
</g>
<!-- Node25 -->
<g id="node25" class="node">
<title>Node25</title>
<g id="a_node25"><a xlink:title=" ">
<polygon fill="white" stroke="#bfbfbf" points="313,-280.5 313,-299.5 440,-299.5 440,-280.5 313,-280.5"/>
<text text-anchor="middle" x="376.5" y="-287.5" font-family="Arial" font-size="10.00">Shoemake/Decompose.h</text>
</a>
</g>
</g>
<!-- Node21&#45;&gt;Node25 -->
<g id="edge43" class="edge">
<title>Node21&#45;&gt;Node25</title>
<path fill="none" stroke="midnightblue" d="M376.5,-336.08C376.5,-329.01 376.5,-318.86 376.5,-309.99"/>
<polygon fill="midnightblue" stroke="midnightblue" points="380,-309.75 376.5,-299.75 373,-309.75 380,-309.75"/>
</g>
<!-- Node26 -->
<g id="node26" class="node">
<title>Node26</title>
<g id="a_node26"><a xlink:title=" ">
<polygon fill="white" stroke="#bfbfbf" points="458,-280.5 458,-299.5 585,-299.5 585,-280.5 458,-280.5"/>
<text text-anchor="middle" x="521.5" y="-287.5" font-family="Arial" font-size="10.00">Shoemake/EulerAngles.h</text>
</a>
</g>
</g>
<!-- Node21&#45;&gt;Node26 -->
<g id="edge44" class="edge">
<title>Node21&#45;&gt;Node26</title>
<path fill="none" stroke="midnightblue" d="M399.48,-336.44C423.66,-327.44 461.92,-313.19 489.15,-303.05"/>
<polygon fill="midnightblue" stroke="midnightblue" points="490.48,-306.29 498.63,-299.52 488.04,-299.73 490.48,-306.29"/>
</g>
<!-- Node23&#45;&gt;Node3 -->
<g id="edge38" class="edge">
<title>Node23&#45;&gt;Node3</title>
<path fill="none" stroke="midnightblue" d="M105.79,-280.32C89.19,-271.7 63.5,-258.36 44.28,-248.39"/>
<polygon fill="midnightblue" stroke="midnightblue" points="45.66,-245.16 35.17,-243.65 42.43,-251.37 45.66,-245.16"/>
</g>
<!-- Node23&#45;&gt;Node4 -->
<g id="edge41" class="edge">
<title>Node23&#45;&gt;Node4</title>
<path fill="none" stroke="midnightblue" d="M123.4,-280.29C126.05,-258.76 135.6,-202.27 165.5,-168 180,-151.38 202.14,-140.05 220.45,-132.92"/>
<polygon fill="midnightblue" stroke="midnightblue" points="221.7,-136.19 229.89,-129.47 219.3,-129.61 221.7,-136.19"/>
</g>
<!-- Node23&#45;&gt;Node15 -->
<g id="edge40" class="edge">
<title>Node23&#45;&gt;Node15</title>
<path fill="none" stroke="midnightblue" d="M149.75,-280.44C178.94,-271.28 225.42,-256.69 257.81,-246.52"/>
<polygon fill="midnightblue" stroke="midnightblue" points="258.88,-249.85 267.37,-243.52 256.78,-243.17 258.88,-249.85"/>
</g>
<!-- Node23&#45;&gt;Node17 -->
<g id="edge39" class="edge">
<title>Node23&#45;&gt;Node17</title>
<path fill="none" stroke="midnightblue" d="M131.52,-280.37C150.84,-261.89 196.42,-218.29 221.04,-194.74"/>
<polygon fill="midnightblue" stroke="midnightblue" points="223.71,-197.03 228.52,-187.59 218.87,-191.97 223.71,-197.03"/>
</g>
<!-- Node27&#45;&gt;Node5 -->
<g id="edge48" class="edge">
<title>Node27&#45;&gt;Node5</title>
<path fill="none" stroke="midnightblue" d="M894.9,-280.39C907.54,-262.5 934.5,-219.57 934.5,-179 934.5,-179 934.5,-179 934.5,-121 934.5,-35.94 622.97,-16.19 522.4,-12.02"/>
<polygon fill="midnightblue" stroke="midnightblue" points="522.4,-8.52 512.27,-11.63 522.13,-15.52 522.4,-8.52"/>
</g>
<!-- Node27&#45;&gt;Node6 -->
<g id="edge49" class="edge">
<title>Node27&#45;&gt;Node6</title>
<path fill="none" stroke="midnightblue" d="M889,-280.3C889.34,-267.13 888.36,-241.77 877.5,-224 855.81,-188.5 838.95,-188.04 802.5,-168 722.99,-124.28 620.61,-91.16 569.5,-76.04"/>
<polygon fill="midnightblue" stroke="midnightblue" points="570.28,-72.62 559.7,-73.17 568.31,-79.34 570.28,-72.62"/>
</g>
<!-- Node27&#45;&gt;Node19 -->
<g id="edge50" class="edge">
<title>Node27&#45;&gt;Node19</title>
<path fill="none" stroke="midnightblue" d="M880.9,-280.08C874.27,-272.3 864.48,-260.8 856.44,-251.37"/>
<polygon fill="midnightblue" stroke="midnightblue" points="859.1,-249.09 849.95,-243.75 853.77,-253.63 859.1,-249.09"/>
</g>
</g>
</svg>
