<?xml version="1.0" encoding="UTF-8" standalone="no"?>
<!DOCTYPE svg PUBLIC "-//W3C//DTD SVG 1.1//EN"
 "http://www.w3.org/Graphics/SVG/1.1/DTD/svg11.dtd">
<!-- Generated by graphviz version 2.28.0 (20110507.0327)
 -->
<!-- Title: SLSkeleton.cpp Pages: 1 -->
<svg width="2625pt" height="700pt"
 viewBox="0.00 0.00 2625.06 700.00" xmlns="http://www.w3.org/2000/svg" xmlns:xlink="http://www.w3.org/1999/xlink">
<g id="graph1" class="graph" transform="scale(1 1) rotate(0) translate(4 696)">
<title>SLSkeleton.cpp</title>
<polygon fill="white" stroke="white" points="-4,5 -4,-696 2622.06,-696 2622.06,5 -4,5"/>
<!-- Node1 -->
<g id="node1" class="node"><title>Node1</title>
<polygon fill="#bfbfbf" stroke="black" points="724.558,-672.5 724.558,-691.5 815.558,-691.5 815.558,-672.5 724.558,-672.5"/>
<text text-anchor="middle" x="770.058" y="-679.5" font-family="Arial.ttf" font-size="10.00">SLSkeleton.cpp</text>
</g>
<!-- Node2 -->
<g id="node3" class="node"><title>Node2</title>
<polygon fill="white" stroke="#bfbfbf" points="1178.56,-0.5 1178.56,-19.5 1233.56,-19.5 1233.56,-0.5 1178.56,-0.5"/>
<text text-anchor="middle" x="1206.06" y="-7.5" font-family="Arial.ttf" font-size="10.00">stdafx.h</text>
</g>
<!-- Node1&#45;&gt;Node2 -->
<g id="edge2" class="edge"><title>Node1&#45;&gt;Node2</title>
<path fill="none" stroke="midnightblue" d="M815.733,-680.308C1076.77,-676.058 2368.06,-650.993 2368.06,-571 2368.06,-571 2368.06,-571 2368.06,-121 2368.06,-75.8741 2332.16,-72.2388 2290.06,-56 2190.87,-17.7455 1423.64,-11.9658 1243.73,-11.1341"/>
<polygon fill="midnightblue" stroke="midnightblue" points="1243.7,-7.634 1233.68,-11.09 1243.67,-14.6339 1243.7,-7.634"/>
</g>
<!-- Node3 -->
<g id="node5" class="node"><title>Node3</title>
<a xlink:href="_s_l_application_8h.html" target="_top" xlink:title="SLApplication.h">
<polygon fill="white" stroke="black" points="98.058,-448.5 98.058,-467.5 188.058,-467.5 188.058,-448.5 98.058,-448.5"/>
<text text-anchor="middle" x="143.058" y="-455.5" font-family="Arial.ttf" font-size="10.00">SLApplication.h</text>
</a>
</g>
<!-- Node1&#45;&gt;Node3 -->
<g id="edge4" class="edge"><title>Node1&#45;&gt;Node3</title>
<path fill="none" stroke="midnightblue" d="M724.374,-677.351C664.351,-671.853 556.008,-659.493 466.058,-636 398.413,-618.333 380.969,-612.479 319.058,-580 258.091,-548.017 192.979,-498.777 161.805,-474.137"/>
<polygon fill="midnightblue" stroke="midnightblue" points="163.603,-471.095 153.602,-467.599 159.241,-476.569 163.603,-471.095"/>
</g>
<!-- Node25 -->
<g id="node74" class="node"><title>Node25</title>
<a xlink:href="_s_l_scene_8h.html" target="_top" xlink:title="SLScene.h">
<polygon fill="white" stroke="black" points="736.058,-560.5 736.058,-579.5 804.058,-579.5 804.058,-560.5 736.058,-560.5"/>
<text text-anchor="middle" x="770.058" y="-567.5" font-family="Arial.ttf" font-size="10.00">SLScene.h</text>
</a>
</g>
<!-- Node1&#45;&gt;Node25 -->
<g id="edge98" class="edge"><title>Node1&#45;&gt;Node25</title>
<path fill="none" stroke="midnightblue" d="M770.058,-672.368C770.058,-654.617 770.058,-613.666 770.058,-589.597"/>
<polygon fill="midnightblue" stroke="midnightblue" points="773.558,-589.591 770.058,-579.591 766.558,-589.591 773.558,-589.591"/>
</g>
<!-- Node33 -->
<g id="node105" class="node"><title>Node33</title>
<a xlink:href="_s_l_skeleton_8h.html" target="_top" xlink:title="SLSkeleton.h">
<polygon fill="white" stroke="black" points="666.058,-448.5 666.058,-467.5 746.058,-467.5 746.058,-448.5 666.058,-448.5"/>
<text text-anchor="middle" x="706.058" y="-455.5" font-family="Arial.ttf" font-size="10.00">SLSkeleton.h</text>
</a>
</g>
<!-- Node1&#45;&gt;Node33 -->
<g id="edge274" class="edge"><title>Node1&#45;&gt;Node33</title>
<path fill="none" stroke="midnightblue" d="M724.45,-673.556C612.211,-654.213 327.748,-598.63 273.058,-524 227.051,-461.219 531.719,-457.286 655.471,-458.225"/>
<polygon fill="midnightblue" stroke="midnightblue" points="655.786,-461.728 665.817,-458.319 655.849,-454.729 655.786,-461.728"/>
</g>
<!-- Node44 -->
<g id="node155" class="node"><title>Node44</title>
<a xlink:href="_s_l_scene_view_8h.html" target="_top" xlink:title="SLSceneView.h">
<polygon fill="white" stroke="black" points="1721.56,-616.5 1721.56,-635.5 1810.56,-635.5 1810.56,-616.5 1721.56,-616.5"/>
<text text-anchor="middle" x="1766.06" y="-623.5" font-family="Arial.ttf" font-size="10.00">SLSceneView.h</text>
</a>
</g>
<!-- Node1&#45;&gt;Node44 -->
<g id="edge222" class="edge"><title>Node1&#45;&gt;Node44</title>
<path fill="none" stroke="midnightblue" d="M815.77,-678.522C979.168,-669.663 1533.98,-639.583 1711.18,-629.976"/>
<polygon fill="midnightblue" stroke="midnightblue" points="1711.51,-633.462 1721.31,-629.426 1711.14,-626.473 1711.51,-633.462"/>
</g>
<!-- Node3&#45;&gt;Node2 -->
<g id="edge6" class="edge"><title>Node3&#45;&gt;Node2</title>
<path fill="none" stroke="midnightblue" d="M112.381,-448.464C70.3628,-434.682 0.0579592,-403.223 0.0579592,-347 0.0579592,-347 0.0579592,-347 0.0579592,-121 0.0579592,-90.2048 -0.869388,-74.0824 24.058,-56 71.4185,-21.6445 971.456,-12.7932 1168.25,-11.2653"/>
<polygon fill="midnightblue" stroke="midnightblue" points="1168.42,-14.7642 1178.39,-11.1883 1168.37,-7.76441 1168.42,-14.7642"/>
</g>
<!-- Node4 -->
<g id="node8" class="node"><title>Node4</title>
<a xlink:href="_s_l_input_manager_8h.html" target="_top" xlink:title="SLInputManager.h">
<polygon fill="white" stroke="black" points="82.058,-280.5 82.058,-299.5 186.058,-299.5 186.058,-280.5 82.058,-280.5"/>
<text text-anchor="middle" x="134.058" y="-287.5" font-family="Arial.ttf" font-size="10.00">SLInputManager.h</text>
</a>
</g>
<!-- Node3&#45;&gt;Node4 -->
<g id="edge8" class="edge"><title>Node3&#45;&gt;Node4</title>
<path fill="none" stroke="midnightblue" d="M136.168,-448.319C129.789,-439.684 120.75,-425.77 117.058,-412 107.482,-376.286 118.827,-333.111 127.044,-309.191"/>
<polygon fill="midnightblue" stroke="midnightblue" points="130.384,-310.247 130.512,-299.653 123.805,-307.855 130.384,-310.247"/>
</g>
<!-- Node8 -->
<g id="node19" class="node"><title>Node8</title>
<a xlink:href="_s_l_c_v_calibration_8h.html" target="_top" xlink:title="SLCVCalibration.h">
<polygon fill="white" stroke="black" points="1756.06,-168.5 1756.06,-187.5 1858.06,-187.5 1858.06,-168.5 1756.06,-168.5"/>
<text text-anchor="middle" x="1807.06" y="-175.5" font-family="Arial.ttf" font-size="10.00">SLCVCalibration.h</text>
</a>
</g>
<!-- Node3&#45;&gt;Node8 -->
<g id="edge22" class="edge"><title>Node3&#45;&gt;Node8</title>
<path fill="none" stroke="midnightblue" d="M188.185,-456.244C406.93,-452.477 1351.69,-434.995 1481.06,-412 1559.38,-398.078 1583.32,-397.702 1651.06,-356 1681.03,-337.548 1683.38,-326.039 1707.06,-300 1739.74,-264.066 1775.39,-219.517 1794.03,-195.767"/>
<polygon fill="midnightblue" stroke="midnightblue" points="1796.9,-197.778 1800.3,-187.744 1791.38,-193.468 1796.9,-197.778"/>
</g>
<!-- Node13 -->
<g id="node32" class="node"><title>Node13</title>
<a xlink:href="_s_l_device_rotation_8h.html" target="_top" xlink:title="SLDeviceRotation.h">
<polygon fill="white" stroke="black" points="126.058,-392.5 126.058,-411.5 236.058,-411.5 236.058,-392.5 126.058,-392.5"/>
<text text-anchor="middle" x="181.058" y="-399.5" font-family="Arial.ttf" font-size="10.00">SLDeviceRotation.h</text>
</a>
</g>
<!-- Node3&#45;&gt;Node13 -->
<g id="edge38" class="edge"><title>Node3&#45;&gt;Node13</title>
<path fill="none" stroke="midnightblue" d="M149.333,-448.083C154.7,-440.455 162.576,-429.264 169.137,-419.941"/>
<polygon fill="midnightblue" stroke="midnightblue" points="172.007,-421.943 174.9,-411.751 166.282,-417.915 172.007,-421.943"/>
</g>
<!-- Node14 -->
<g id="node35" class="node"><title>Node14</title>
<a xlink:href="_s_l_device_location_8h.html" target="_top" xlink:title="SLDeviceLocation.h">
<polygon fill="white" stroke="black" points="444.058,-392.5 444.058,-411.5 554.058,-411.5 554.058,-392.5 444.058,-392.5"/>
<text text-anchor="middle" x="499.058" y="-399.5" font-family="Arial.ttf" font-size="10.00">SLDeviceLocation.h</text>
</a>
</g>
<!-- Node3&#45;&gt;Node14 -->
<g id="edge42" class="edge"><title>Node3&#45;&gt;Node14</title>
<path fill="none" stroke="midnightblue" d="M188.146,-450.161C250.204,-440.748 362.34,-423.738 433.625,-412.925"/>
<polygon fill="midnightblue" stroke="midnightblue" points="434.474,-416.337 443.836,-411.376 433.424,-409.416 434.474,-416.337"/>
</g>
<!-- Node4&#45;&gt;Node2 -->
<g id="edge10" class="edge"><title>Node4&#45;&gt;Node2</title>
<path fill="none" stroke="midnightblue" d="M125.748,-280.411C109.71,-262.887 76.058,-221.099 76.058,-179 76.058,-179 76.058,-179 76.058,-121 76.058,-90.9022 71.3447,-74.5353 95.058,-56 138.229,-22.2553 978.988,-12.9686 1168.38,-11.3011"/>
<polygon fill="midnightblue" stroke="midnightblue" points="1168.45,-14.8008 1178.42,-11.2146 1168.39,-7.80107 1168.45,-14.8008"/>
</g>
<!-- Node5 -->
<g id="node11" class="node"><title>Node5</title>
<a xlink:href="_s_l_input_event_8h.html" target="_top" xlink:title="SLInputEvent.h">
<polygon fill="white" stroke="black" points="406.558,-224.5 406.558,-243.5 495.558,-243.5 495.558,-224.5 406.558,-224.5"/>
<text text-anchor="middle" x="451.058" y="-231.5" font-family="Arial.ttf" font-size="10.00">SLInputEvent.h</text>
</a>
</g>
<!-- Node4&#45;&gt;Node5 -->
<g id="edge12" class="edge"><title>Node4&#45;&gt;Node5</title>
<path fill="none" stroke="midnightblue" d="M184.288,-280.444C242.132,-270.59 336.829,-254.459 396.457,-244.301"/>
<polygon fill="midnightblue" stroke="midnightblue" points="397.169,-247.73 406.44,-242.601 395.994,-240.83 397.169,-247.73"/>
</g>
<!-- Node7 -->
<g id="node16" class="node"><title>Node7</title>
<a xlink:href="_s_l_input_device_8h.html" target="_top" xlink:title="SLInputDevice.h">
<polygon fill="white" stroke="black" points="104.058,-56.5 104.058,-75.5 198.058,-75.5 198.058,-56.5 104.058,-56.5"/>
<text text-anchor="middle" x="151.058" y="-63.5" font-family="Arial.ttf" font-size="10.00">SLInputDevice.h</text>
</a>
</g>
<!-- Node4&#45;&gt;Node7 -->
<g id="edge18" class="edge"><title>Node4&#45;&gt;Node7</title>
<path fill="none" stroke="midnightblue" d="M134.724,-280.297C137.226,-247.633 146.091,-131.866 149.606,-85.9573"/>
<polygon fill="midnightblue" stroke="midnightblue" points="153.104,-86.1218 150.378,-75.8837 146.124,-85.5873 153.104,-86.1218"/>
</g>
<!-- Node5&#45;&gt;Node2 -->
<g id="edge14" class="edge"><title>Node5&#45;&gt;Node2</title>
<path fill="none" stroke="midnightblue" d="M450.869,-224.106C450.777,-194.465 454.906,-98.5224 510.058,-56 562.336,-15.6934 1030.58,-11.4029 1168.19,-11.0164"/>
<polygon fill="midnightblue" stroke="midnightblue" points="1168.27,-14.5163 1178.26,-10.9935 1168.25,-7.51631 1168.27,-14.5163"/>
</g>
<!-- Node6 -->
<g id="node14" class="node"><title>Node6</title>
<a xlink:href="_s_l_enums_8h.html" target="_top" xlink:title="SLEnums.h">
<polygon fill="white" stroke="black" points="936.558,-168.5 936.558,-187.5 1007.56,-187.5 1007.56,-168.5 936.558,-168.5"/>
<text text-anchor="middle" x="972.058" y="-175.5" font-family="Arial.ttf" font-size="10.00">SLEnums.h</text>
</a>
</g>
<!-- Node5&#45;&gt;Node6 -->
<g id="edge16" class="edge"><title>Node5&#45;&gt;Node6</title>
<path fill="none" stroke="midnightblue" d="M495.929,-228.349C594.146,-218.169 827.286,-194.005 926.305,-183.742"/>
<polygon fill="midnightblue" stroke="midnightblue" points="926.716,-187.218 936.302,-182.706 925.994,-180.256 926.716,-187.218"/>
</g>
<!-- Node7&#45;&gt;Node2 -->
<g id="edge20" class="edge"><title>Node7&#45;&gt;Node2</title>
<path fill="none" stroke="midnightblue" d="M198.289,-57.5494C202.934,-56.9617 207.583,-56.4303 212.058,-56 583.728,-20.2612 1036.38,-12.7929 1168.31,-11.3338"/>
<polygon fill="midnightblue" stroke="midnightblue" points="1168.35,-14.8336 1178.32,-11.228 1168.28,-7.83403 1168.35,-14.8336"/>
</g>
<!-- Node8&#45;&gt;Node2 -->
<g id="edge24" class="edge"><title>Node8&#45;&gt;Node2</title>
<path fill="none" stroke="midnightblue" d="M1756.02,-174.529C1715.02,-170.425 1657.48,-159.716 1615.06,-132 1579.71,-108.905 1594.55,-77.2435 1558.06,-56 1505.32,-25.2962 1323.41,-15.1647 1243.83,-12.1525"/>
<polygon fill="midnightblue" stroke="midnightblue" points="1243.87,-8.65182 1233.75,-11.7887 1243.62,-15.6473 1243.87,-8.65182"/>
</g>
<!-- Node8&#45;&gt;Node8 -->
<g id="edge36" class="edge"><title>Node8&#45;&gt;Node8</title>
<path fill="none" stroke="midnightblue" d="M1836.49,-187.525C1856.48,-190.308 1876.06,-187.133 1876.06,-178 1876.06,-170.437 1862.63,-166.96 1846.66,-167.568"/>
<polygon fill="midnightblue" stroke="midnightblue" points="1846.14,-164.101 1836.49,-168.475 1846.76,-171.073 1846.14,-164.101"/>
</g>
<!-- Node9 -->
<g id="node22" class="node"><title>Node9</title>
<a xlink:href="_s_l_c_v_8h.html" target="_top" xlink:title="SLCV.h">
<polygon fill="white" stroke="black" points="2396.56,-56.5 2396.56,-75.5 2447.56,-75.5 2447.56,-56.5 2396.56,-56.5"/>
<text text-anchor="middle" x="2422.06" y="-63.5" font-family="Arial.ttf" font-size="10.00">SLCV.h</text>
</a>
</g>
<!-- Node8&#45;&gt;Node9 -->
<g id="edge26" class="edge"><title>Node8&#45;&gt;Node9</title>
<path fill="none" stroke="midnightblue" d="M1847.36,-168.473C1909.13,-155.523 2031.03,-130.456 2135.06,-112 2225.14,-96.018 2331.67,-80.09 2386.1,-72.1646"/>
<polygon fill="midnightblue" stroke="midnightblue" points="2386.88,-75.5885 2396.27,-70.6886 2385.87,-68.6611 2386.88,-75.5885"/>
</g>
<!-- Node9&#45;&gt;Node2 -->
<g id="edge28" class="edge"><title>Node9&#45;&gt;Node2</title>
<path fill="none" stroke="midnightblue" d="M2396.36,-58.4909C2391.63,-57.5007 2386.72,-56.608 2382.06,-56 2154.23,-26.2654 1419.04,-14.0445 1243.81,-11.5144"/>
<polygon fill="midnightblue" stroke="midnightblue" points="1243.83,-8.01439 1233.78,-11.3714 1243.73,-15.0137 1243.83,-8.01439"/>
</g>
<!-- Node10 -->
<g id="node25" class="node"><title>Node10</title>
<polygon fill="white" stroke="#bfbfbf" points="2364.06,-0.5 2364.06,-19.5 2480.06,-19.5 2480.06,-0.5 2364.06,-0.5"/>
<text text-anchor="middle" x="2422.06" y="-7.5" font-family="Arial.ttf" font-size="10.00">opencv2/opencv.hpp</text>
</g>
<!-- Node9&#45;&gt;Node10 -->
<g id="edge30" class="edge"><title>Node9&#45;&gt;Node10</title>
<path fill="none" stroke="midnightblue" d="M2422.06,-56.083C2422.06,-49.0059 2422.06,-38.8611 2422.06,-29.9865"/>
<polygon fill="midnightblue" stroke="midnightblue" points="2425.56,-29.751 2422.06,-19.7511 2418.56,-29.7511 2425.56,-29.751"/>
</g>
<!-- Node11 -->
<g id="node27" class="node"><title>Node11</title>
<polygon fill="white" stroke="#bfbfbf" points="2498.56,-0.5 2498.56,-19.5 2617.56,-19.5 2617.56,-0.5 2498.56,-0.5"/>
<text text-anchor="middle" x="2558.06" y="-7.5" font-family="Arial.ttf" font-size="10.00">opencv2/core/ocl.hpp</text>
</g>
<!-- Node9&#45;&gt;Node11 -->
<g id="edge32" class="edge"><title>Node9&#45;&gt;Node11</title>
<path fill="none" stroke="midnightblue" d="M2443.61,-56.4435C2466.09,-47.5171 2501.55,-33.4387 2527.04,-23.3168"/>
<polygon fill="midnightblue" stroke="midnightblue" points="2528.61,-26.4598 2536.61,-19.5164 2526.02,-19.9539 2528.61,-26.4598"/>
</g>
<!-- Node12 -->
<g id="node29" class="node"><title>Node12</title>
<polygon fill="white" stroke="#bfbfbf" points="2208.06,-0.5 2208.06,-19.5 2346.06,-19.5 2346.06,-0.5 2208.06,-0.5"/>
<text text-anchor="middle" x="2277.06" y="-7.5" font-family="Arial.ttf" font-size="10.00">opencv2/xfeatures2d.hpp</text>
</g>
<!-- Node9&#45;&gt;Node12 -->
<g id="edge34" class="edge"><title>Node9&#45;&gt;Node12</title>
<path fill="none" stroke="midnightblue" d="M2399.08,-56.4435C2374.9,-47.4381 2336.64,-33.1891 2309.41,-23.049"/>
<polygon fill="midnightblue" stroke="midnightblue" points="2310.52,-19.7265 2299.93,-19.5164 2308.08,-26.2864 2310.52,-19.7265"/>
</g>
<!-- Node13&#45;&gt;Node2 -->
<g id="edge40" class="edge"><title>Node13&#45;&gt;Node2</title>
<path fill="none" stroke="midnightblue" d="M187.315,-392.37C199.68,-374.437 226.058,-331.442 226.058,-291 226.058,-291 226.058,-291 226.058,-121 226.058,-90.2048 225.212,-74.1942 250.058,-56 287.686,-28.4459 994.831,-14.6075 1168.02,-11.6231"/>
<polygon fill="midnightblue" stroke="midnightblue" points="1168.24,-15.1198 1178.18,-11.4499 1168.12,-8.12085 1168.24,-15.1198"/>
</g>
<!-- Node14&#45;&gt;Node2 -->
<g id="edge44" class="edge"><title>Node14&#45;&gt;Node2</title>
<path fill="none" stroke="midnightblue" d="M460.973,-392.462C413.935,-379.404 340.058,-349.573 340.058,-291 340.058,-291 340.058,-291 340.058,-121 340.058,-80.458 367.116,-72.7016 404.058,-56 474.171,-24.3018 1019.48,-13.8126 1168.52,-11.5227"/>
<polygon fill="midnightblue" stroke="midnightblue" points="1168.61,-15.0219 1178.56,-11.3718 1168.5,-8.02268 1168.61,-15.0219"/>
</g>
<!-- Node15 -->
<g id="node38" class="node"><title>Node15</title>
<a xlink:href="_s_l_node_8h.html" target="_top" xlink:title="SLNode.h">
<polygon fill="white" stroke="black" points="962.558,-280.5 962.558,-299.5 1025.56,-299.5 1025.56,-280.5 962.558,-280.5"/>
<text text-anchor="middle" x="994.058" y="-287.5" font-family="Arial.ttf" font-size="10.00">SLNode.h</text>
</a>
</g>
<!-- Node14&#45;&gt;Node15 -->
<g id="edge46" class="edge"><title>Node14&#45;&gt;Node15</title>
<path fill="none" stroke="midnightblue" d="M511.31,-392.306C532.267,-377.922 576.835,-349.429 619.058,-336 680.393,-316.493 868.178,-300.441 952.41,-294.017"/>
<polygon fill="midnightblue" stroke="midnightblue" points="952.684,-297.506 962.392,-293.264 952.157,-290.526 952.684,-297.506"/>
</g>
<!-- Node22 -->
<g id="node64" class="node"><title>Node22</title>
<a xlink:href="_s_l_light_direct_8h.html" target="_top" xlink:title="SLLightDirect.h">
<polygon fill="white" stroke="black" points="444.558,-336.5 444.558,-355.5 533.558,-355.5 533.558,-336.5 444.558,-336.5"/>
<text text-anchor="middle" x="489.058" y="-343.5" font-family="Arial.ttf" font-size="10.00">SLLightDirect.h</text>
</a>
</g>
<!-- Node14&#45;&gt;Node22 -->
<g id="edge84" class="edge"><title>Node14&#45;&gt;Node22</title>
<path fill="none" stroke="midnightblue" d="M497.407,-392.083C496.082,-384.927 494.176,-374.635 492.519,-365.691"/>
<polygon fill="midnightblue" stroke="midnightblue" points="495.941,-364.947 490.679,-355.751 489.058,-366.221 495.941,-364.947"/>
</g>
<!-- Node15&#45;&gt;Node2 -->
<g id="edge48" class="edge"><title>Node15&#45;&gt;Node2</title>
<path fill="none" stroke="midnightblue" d="M966.208,-280.478C926.42,-266.372 858.058,-234.117 858.058,-179 858.058,-179 858.058,-179 858.058,-121 858.058,-56.4694 1078.36,-24.9901 1168.4,-14.819"/>
<polygon fill="midnightblue" stroke="midnightblue" points="1168.9,-18.2847 1178.46,-13.7104 1168.14,-11.3269 1168.9,-18.2847"/>
</g>
<!-- Node15&#45;&gt;Node6 -->
<g id="edge50" class="edge"><title>Node15&#45;&gt;Node6</title>
<path fill="none" stroke="midnightblue" d="M992.332,-280.368C988.781,-262.617 980.591,-221.666 975.777,-197.597"/>
<polygon fill="midnightblue" stroke="midnightblue" points="979.17,-196.711 973.776,-187.591 972.305,-198.084 979.17,-196.711"/>
</g>
<!-- Node15&#45;&gt;Node15 -->
<g id="edge72" class="edge"><title>Node15&#45;&gt;Node15</title>
<path fill="none" stroke="midnightblue" d="M1014.96,-299.525C1029.16,-302.308 1043.06,-299.133 1043.06,-290 1043.06,-283.079 1035.07,-279.579 1025.03,-279.501"/>
<polygon fill="midnightblue" stroke="midnightblue" points="1024.57,-276.029 1014.96,-280.475 1025.25,-282.996 1024.57,-276.029"/>
</g>
<!-- Node16 -->
<g id="node42" class="node"><title>Node16</title>
<a xlink:href="_s_l_mesh_8h.html" target="_top" xlink:title="SLMesh.h">
<polygon fill="white" stroke="black" points="1332.56,-224.5 1332.56,-243.5 1395.56,-243.5 1395.56,-224.5 1332.56,-224.5"/>
<text text-anchor="middle" x="1364.06" y="-231.5" font-family="Arial.ttf" font-size="10.00">SLMesh.h</text>
</a>
</g>
<!-- Node15&#45;&gt;Node16 -->
<g id="edge52" class="edge"><title>Node15&#45;&gt;Node16</title>
<path fill="none" stroke="midnightblue" d="M1025.6,-284.396C1092.28,-274.664 1247.54,-252.005 1322.33,-241.09"/>
<polygon fill="midnightblue" stroke="midnightblue" points="1322.94,-244.538 1332.33,-239.631 1321.93,-237.612 1322.94,-244.538"/>
</g>
<!-- Node20 -->
<g id="node57" class="node"><title>Node20</title>
<a xlink:href="_s_l_draw_bits_8h.html" target="_top" xlink:title="SLDrawBits.h">
<polygon fill="white" stroke="black" points="1076.06,-224.5 1076.06,-243.5 1156.06,-243.5 1156.06,-224.5 1076.06,-224.5"/>
<text text-anchor="middle" x="1116.06" y="-231.5" font-family="Arial.ttf" font-size="10.00">SLDrawBits.h</text>
</a>
</g>
<!-- Node15&#45;&gt;Node20 -->
<g id="edge74" class="edge"><title>Node15&#45;&gt;Node20</title>
<path fill="none" stroke="midnightblue" d="M1013.39,-280.444C1033.38,-271.596 1064.8,-257.687 1087.62,-247.586"/>
<polygon fill="midnightblue" stroke="midnightblue" points="1089.09,-250.764 1096.82,-243.516 1086.26,-244.363 1089.09,-250.764"/>
</g>
<!-- Node21 -->
<g id="node60" class="node"><title>Node21</title>
<a xlink:href="_s_l_event_handler_8h.html" target="_top" xlink:title="SLEventHandler.h">
<polygon fill="white" stroke="black" points="1174.06,-224.5 1174.06,-243.5 1276.06,-243.5 1276.06,-224.5 1174.06,-224.5"/>
<text text-anchor="middle" x="1225.06" y="-231.5" font-family="Arial.ttf" font-size="10.00">SLEventHandler.h</text>
</a>
</g>
<!-- Node15&#45;&gt;Node21 -->
<g id="edge78" class="edge"><title>Node15&#45;&gt;Node21</title>
<path fill="none" stroke="midnightblue" d="M1025.69,-281.605C1065.21,-272.367 1133.15,-256.486 1178.58,-245.865"/>
<polygon fill="midnightblue" stroke="midnightblue" points="1179.54,-249.235 1188.48,-243.551 1177.95,-242.419 1179.54,-249.235"/>
</g>
<!-- Node16&#45;&gt;Node2 -->
<g id="edge54" class="edge"><title>Node16&#45;&gt;Node2</title>
<path fill="none" stroke="midnightblue" d="M1341.12,-224.436C1308.17,-210.713 1248.81,-180.322 1225.06,-132 1208.7,-98.7209 1205.81,-54.6349 1205.63,-29.9068"/>
<polygon fill="midnightblue" stroke="midnightblue" points="1209.13,-29.7603 1205.71,-19.7345 1202.13,-29.7081 1209.13,-29.7603"/>
</g>
<!-- Node16&#45;&gt;Node6 -->
<g id="edge70" class="edge"><title>Node16&#45;&gt;Node6</title>
<path fill="none" stroke="midnightblue" d="M1332.43,-226.537C1327.63,-225.634 1322.72,-224.758 1318.06,-224 1211.08,-206.596 1084.62,-191.538 1018.17,-184.048"/>
<polygon fill="midnightblue" stroke="midnightblue" points="1018.36,-180.547 1008.03,-182.912 1017.58,-187.504 1018.36,-180.547"/>
</g>
<!-- Node17 -->
<g id="node45" class="node"><title>Node17</title>
<a xlink:href="_s_l_a_a_b_box_8h.html" target="_top" xlink:title="SLAABBox.h">
<polygon fill="white" stroke="black" points="1548.06,-168.5 1548.06,-187.5 1624.06,-187.5 1624.06,-168.5 1548.06,-168.5"/>
<text text-anchor="middle" x="1586.06" y="-175.5" font-family="Arial.ttf" font-size="10.00">SLAABBox.h</text>
</a>
</g>
<!-- Node16&#45;&gt;Node17 -->
<g id="edge56" class="edge"><title>Node16&#45;&gt;Node17</title>
<path fill="none" stroke="midnightblue" d="M1395.87,-225.263C1433.94,-216.003 1497.94,-200.434 1541.07,-189.944"/>
<polygon fill="midnightblue" stroke="midnightblue" points="1542.12,-193.289 1551.01,-187.524 1540.47,-186.487 1542.12,-193.289"/>
</g>
<!-- Node19 -->
<g id="node51" class="node"><title>Node19</title>
<a xlink:href="_s_l_g_l_vertex_array_8h.html" target="_top" xlink:title="SLGLVertexArray.h">
<polygon fill="white" stroke="red" points="1663.56,-56.5 1663.56,-75.5 1770.56,-75.5 1770.56,-56.5 1663.56,-56.5"/>
<text text-anchor="middle" x="1717.06" y="-63.5" font-family="Arial.ttf" font-size="10.00">SLGLVertexArray.h</text>
</a>
</g>
<!-- Node16&#45;&gt;Node19 -->
<g id="edge68" class="edge"><title>Node16&#45;&gt;Node19</title>
<path fill="none" stroke="midnightblue" d="M1381.31,-224.436C1421.87,-204.355 1526.55,-152.843 1615.06,-112 1639.37,-100.779 1667.2,-88.5427 1687.64,-79.666"/>
<polygon fill="midnightblue" stroke="midnightblue" points="1689.25,-82.7838 1697.03,-75.5974 1686.47,-76.3605 1689.25,-82.7838"/>
</g>
<!-- Node17&#45;&gt;Node2 -->
<g id="edge58" class="edge"><title>Node17&#45;&gt;Node2</title>
<path fill="none" stroke="midnightblue" d="M1585.17,-168.221C1582.37,-145.494 1571.54,-84.5285 1534.06,-56 1489.12,-21.7945 1319.91,-13.5868 1243.69,-11.6194"/>
<polygon fill="midnightblue" stroke="midnightblue" points="1243.65,-8.11764 1233.57,-11.3811 1243.49,-15.1157 1243.65,-8.11764"/>
</g>
<!-- Node18 -->
<g id="node48" class="node"><title>Node18</title>
<a xlink:href="_s_l_g_l_vertex_array_ext_8h.html" target="_top" xlink:title="SLGLVertexArrayExt.h">
<polygon fill="white" stroke="black" points="1738.06,-112.5 1738.06,-131.5 1860.06,-131.5 1860.06,-112.5 1738.06,-112.5"/>
<text text-anchor="middle" x="1799.06" y="-119.5" font-family="Arial.ttf" font-size="10.00">SLGLVertexArrayExt.h</text>
</a>
</g>
<!-- Node17&#45;&gt;Node18 -->
<g id="edge60" class="edge"><title>Node17&#45;&gt;Node18</title>
<path fill="none" stroke="midnightblue" d="M1619.81,-168.444C1656.58,-159.122 1715.5,-144.183 1755.68,-133.997"/>
<polygon fill="midnightblue" stroke="midnightblue" points="1756.63,-137.367 1765.47,-131.516 1754.91,-130.581 1756.63,-137.367"/>
</g>
<!-- Node18&#45;&gt;Node2 -->
<g id="edge62" class="edge"><title>Node18&#45;&gt;Node2</title>
<path fill="none" stroke="midnightblue" d="M1799.23,-112.157C1798.99,-97.8211 1796.2,-69.7289 1779.06,-56 1737.38,-22.6195 1364.84,-13.6001 1243.83,-11.5402"/>
<polygon fill="midnightblue" stroke="midnightblue" points="1243.64,-8.03658 1233.58,-11.3722 1243.52,-15.0356 1243.64,-8.03658"/>
</g>
<!-- Node18&#45;&gt;Node19 -->
<g id="edge64" class="edge"><title>Node18&#45;&gt;Node19</title>
<path fill="none" stroke="midnightblue" d="M1785.88,-112.324C1773.21,-103.979 1753.82,-91.2122 1738.85,-81.3524"/>
<polygon fill="midnightblue" stroke="midnightblue" points="1740.48,-78.2313 1730.2,-75.6545 1736.63,-84.0776 1740.48,-78.2313"/>
</g>
<!-- Node19&#45;&gt;Node2 -->
<g id="edge66" class="edge"><title>Node19&#45;&gt;Node2</title>
<path fill="none" stroke="midnightblue" d="M1663.26,-57.7258C1658.46,-57.1234 1653.67,-56.5394 1649.06,-56 1499.09,-38.4631 1320.09,-21.4918 1243.66,-14.431"/>
<polygon fill="midnightblue" stroke="midnightblue" points="1243.84,-10.9335 1233.57,-13.5014 1243.2,-17.904 1243.84,-10.9335"/>
</g>
<!-- Node20&#45;&gt;Node2 -->
<g id="edge76" class="edge"><title>Node20&#45;&gt;Node2</title>
<path fill="none" stroke="midnightblue" d="M1119.17,-224.446C1128.56,-198.737 1157.69,-119.984 1185.06,-56 1188.96,-46.8707 1193.6,-36.8477 1197.53,-28.5829"/>
<polygon fill="midnightblue" stroke="midnightblue" points="1200.69,-30.0818 1201.86,-19.552 1194.38,-27.0526 1200.69,-30.0818"/>
</g>
<!-- Node21&#45;&gt;Node2 -->
<g id="edge80" class="edge"><title>Node21&#45;&gt;Node2</title>
<path fill="none" stroke="midnightblue" d="M1216.04,-224.34C1207.99,-215.932 1196.76,-202.363 1192.06,-188 1173.81,-132.245 1183.24,-114.001 1192.06,-56 1193.43,-47.001 1196.25,-37.3251 1199,-29.2601"/>
<polygon fill="midnightblue" stroke="midnightblue" points="1202.32,-30.3722 1202.46,-19.7782 1195.75,-27.9759 1202.32,-30.3722"/>
</g>
<!-- Node21&#45;&gt;Node6 -->
<g id="edge82" class="edge"><title>Node21&#45;&gt;Node6</title>
<path fill="none" stroke="midnightblue" d="M1184.97,-224.444C1139.54,-214.746 1065.62,-198.969 1017.92,-188.789"/>
<polygon fill="midnightblue" stroke="midnightblue" points="1018.38,-185.308 1007.87,-186.643 1016.92,-192.154 1018.38,-185.308"/>
</g>
<!-- Node22&#45;&gt;Node2 -->
<g id="edge86" class="edge"><title>Node22&#45;&gt;Node2</title>
<path fill="none" stroke="midnightblue" d="M500.145,-336.33C520.567,-319.293 562.058,-279.236 562.058,-235 562.058,-235 562.058,-235 562.058,-121 562.058,-90.2048 561.445,-74.5085 586.058,-56 632.568,-21.0248 1040.81,-13.0414 1168.24,-11.3943"/>
<polygon fill="midnightblue" stroke="midnightblue" points="1168.35,-14.8933 1178.3,-11.27 1168.26,-7.89387 1168.35,-14.8933"/>
</g>
<!-- Node22&#45;&gt;Node15 -->
<g id="edge88" class="edge"><title>Node22&#45;&gt;Node15</title>
<path fill="none" stroke="midnightblue" d="M533.802,-337.93C538.61,-337.244 543.432,-336.586 548.058,-336 696.391,-317.216 873.28,-301.281 952.318,-294.498"/>
<polygon fill="midnightblue" stroke="midnightblue" points="952.695,-297.979 962.361,-293.641 952.099,-291.004 952.695,-297.979"/>
</g>
<!-- Node23 -->
<g id="node68" class="node"><title>Node23</title>
<a xlink:href="_s_l_light_8h.html" target="_top" xlink:title="SLLight.h">
<polygon fill="white" stroke="black" points="458.558,-280.5 458.558,-299.5 519.558,-299.5 519.558,-280.5 458.558,-280.5"/>
<text text-anchor="middle" x="489.058" y="-287.5" font-family="Arial.ttf" font-size="10.00">SLLight.h</text>
</a>
</g>
<!-- Node22&#45;&gt;Node23 -->
<g id="edge90" class="edge"><title>Node22&#45;&gt;Node23</title>
<path fill="none" stroke="midnightblue" d="M489.058,-336.083C489.058,-329.006 489.058,-318.861 489.058,-309.986"/>
<polygon fill="midnightblue" stroke="midnightblue" points="492.558,-309.751 489.058,-299.751 485.558,-309.751 492.558,-309.751"/>
</g>
<!-- Node24 -->
<g id="node71" class="node"><title>Node24</title>
<a xlink:href="_s_l_samples2_d_8h.html" target="_top" xlink:title="SLSamples2D.h">
<polygon fill="white" stroke="black" points="774.558,-280.5 774.558,-299.5 867.558,-299.5 867.558,-280.5 774.558,-280.5"/>
<text text-anchor="middle" x="821.058" y="-287.5" font-family="Arial.ttf" font-size="10.00">SLSamples2D.h</text>
</a>
</g>
<!-- Node22&#45;&gt;Node24 -->
<g id="edge94" class="edge"><title>Node22&#45;&gt;Node24</title>
<path fill="none" stroke="midnightblue" d="M533.833,-337.717C593.476,-328.016 699.025,-310.849 764.22,-300.245"/>
<polygon fill="midnightblue" stroke="midnightblue" points="765.015,-303.661 774.323,-298.601 763.891,-296.752 765.015,-303.661"/>
</g>
<!-- Node23&#45;&gt;Node2 -->
<g id="edge92" class="edge"><title>Node23&#45;&gt;Node2</title>
<path fill="none" stroke="midnightblue" d="M493.778,-280.456C503.332,-262.337 524.058,-218.48 524.058,-179 524.058,-179 524.058,-179 524.058,-121 524.058,-90.2048 523.407,-74.4571 548.058,-56 597.754,-18.7909 1035.5,-12.3303 1168.13,-11.2246"/>
<polygon fill="midnightblue" stroke="midnightblue" points="1168.25,-14.7239 1178.22,-11.1461 1168.2,-7.72414 1168.25,-14.7239"/>
</g>
<!-- Node24&#45;&gt;Node2 -->
<g id="edge96" class="edge"><title>Node24&#45;&gt;Node2</title>
<path fill="none" stroke="midnightblue" d="M820.927,-280.442C820.656,-261.937 820.058,-216.814 820.058,-179 820.058,-179 820.058,-179 820.058,-121 820.058,-75.8741 856.852,-74.3968 898.058,-56 988.831,-15.4732 1108.19,-9.95375 1168.17,-10.0568"/>
<polygon fill="midnightblue" stroke="midnightblue" points="1168.29,-13.5577 1178.32,-10.1299 1168.34,-6.55787 1168.29,-13.5577"/>
</g>
<!-- Node25&#45;&gt;Node2 -->
<g id="edge100" class="edge"><title>Node25&#45;&gt;Node2</title>
<path fill="none" stroke="midnightblue" d="M735.912,-569.566C609.786,-570.852 173.117,-567.923 89.058,-468 5.09453,-368.191 38.058,-309.429 38.058,-179 38.058,-179 38.058,-179 38.058,-121 38.058,-87.7586 46.6589,-73.2766 75.058,-56 122.738,-26.9938 976.659,-14.0287 1168.16,-11.479"/>
<polygon fill="midnightblue" stroke="midnightblue" points="1168.35,-14.9769 1178.3,-11.3455 1168.25,-7.97752 1168.35,-14.9769"/>
</g>
<!-- Node25&#45;&gt;Node8 -->
<g id="edge216" class="edge"><title>Node25&#45;&gt;Node8</title>
<path fill="none" stroke="midnightblue" d="M804.211,-569.38C987.065,-570.525 1842.06,-564.262 1842.06,-347 1842.06,-347 1842.06,-347 1842.06,-289 1842.06,-255.072 1826.75,-217.911 1816.38,-196.631"/>
<polygon fill="midnightblue" stroke="midnightblue" points="1819.42,-194.882 1811.78,-187.544 1813.18,-198.046 1819.42,-194.882"/>
</g>
<!-- Node25&#45;&gt;Node13 -->
<g id="edge218" class="edge"><title>Node25&#45;&gt;Node13</title>
<path fill="none" stroke="midnightblue" d="M735.747,-569.428C636.774,-570.117 352.745,-568.105 273.058,-524 230.678,-500.544 201.775,-448.52 188.81,-420.952"/>
<polygon fill="midnightblue" stroke="midnightblue" points="191.934,-419.366 184.626,-411.695 185.555,-422.249 191.934,-419.366"/>
</g>
<!-- Node25&#45;&gt;Node14 -->
<g id="edge220" class="edge"><title>Node25&#45;&gt;Node14</title>
<path fill="none" stroke="midnightblue" d="M735.942,-564.832C702.191,-559.497 650.07,-547.913 611.058,-524 566.283,-496.554 528.16,-446.299 510.153,-420.026"/>
<polygon fill="midnightblue" stroke="midnightblue" points="512.926,-417.878 504.453,-411.518 507.111,-421.774 512.926,-417.878"/>
</g>
<!-- Node25&#45;&gt;Node15 -->
<g id="edge142" class="edge"><title>Node25&#45;&gt;Node15</title>
<path fill="none" stroke="midnightblue" d="M804.382,-561.612C851.395,-549.244 930.058,-519.508 930.058,-459 930.058,-459 930.058,-459 930.058,-401 930.058,-363.327 958.449,-327.04 977.412,-307.005"/>
<polygon fill="midnightblue" stroke="midnightblue" points="980.094,-309.27 984.615,-299.689 975.105,-304.36 980.094,-309.27"/>
</g>
<!-- Node25&#45;&gt;Node21 -->
<g id="edge138" class="edge"><title>Node25&#45;&gt;Node21</title>
<path fill="none" stroke="midnightblue" d="M804.09,-564.104C835.088,-558.392 881.076,-546.679 915.058,-524 978.578,-481.608 970.902,-445.842 1025.06,-392 1052.82,-364.396 1062.4,-360.344 1093.06,-336 1132.48,-304.703 1179.46,-269.164 1205.4,-249.695"/>
<polygon fill="midnightblue" stroke="midnightblue" points="1207.75,-252.309 1213.65,-243.511 1203.55,-246.708 1207.75,-252.309"/>
</g>
<!-- Node25&#45;&gt;Node23 -->
<g id="edge140" class="edge"><title>Node25&#45;&gt;Node23</title>
<path fill="none" stroke="midnightblue" d="M735.793,-565.74C646.953,-556.345 416.058,-525.529 416.058,-459 416.058,-459 416.058,-459 416.058,-401 416.058,-370.902 418.558,-361.172 435.058,-336 443.082,-323.759 455.44,-313.11 466.31,-305.249"/>
<polygon fill="midnightblue" stroke="midnightblue" points="468.331,-308.108 474.598,-299.565 464.371,-302.335 468.331,-308.108"/>
</g>
<!-- Node26 -->
<g id="node77" class="node"><title>Node26</title>
<a xlink:href="_s_l_material_8h.html" target="_top" xlink:title="SLMaterial.h">
<polygon fill="white" stroke="black" points="1416.06,-448.5 1416.06,-467.5 1492.06,-467.5 1492.06,-448.5 1416.06,-448.5"/>
<text text-anchor="middle" x="1454.06" y="-455.5" font-family="Arial.ttf" font-size="10.00">SLMaterial.h</text>
</a>
</g>
<!-- Node25&#45;&gt;Node26 -->
<g id="edge102" class="edge"><title>Node25&#45;&gt;Node26</title>
<path fill="none" stroke="midnightblue" d="M804.289,-564.188C860.61,-556.215 976.324,-539.59 1074.06,-524 1193.44,-504.957 1333.52,-480.429 1405.67,-467.635"/>
<polygon fill="midnightblue" stroke="midnightblue" points="1406.58,-471.029 1415.81,-465.835 1405.35,-464.137 1406.58,-471.029"/>
</g>
<!-- Node25&#45;&gt;Node33 -->
<g id="edge144" class="edge"><title>Node25&#45;&gt;Node33</title>
<path fill="none" stroke="midnightblue" d="M768.947,-560.461C766.967,-547.496 761.965,-522.409 751.058,-504 744.418,-492.793 734.348,-482.363 725.417,-474.372"/>
<polygon fill="midnightblue" stroke="midnightblue" points="727.547,-471.589 717.666,-467.767 723.007,-476.917 727.547,-471.589"/>
</g>
<!-- Node38 -->
<g id="node125" class="node"><title>Node38</title>
<a xlink:href="_s_l_g_l_oculus_8h.html" target="_top" xlink:title="SLGLOculus.h">
<polygon fill="white" stroke="black" points="1034.56,-392.5 1034.56,-411.5 1117.56,-411.5 1117.56,-392.5 1034.56,-392.5"/>
<text text-anchor="middle" x="1076.06" y="-399.5" font-family="Arial.ttf" font-size="10.00">SLGLOculus.h</text>
</a>
</g>
<!-- Node25&#45;&gt;Node38 -->
<g id="edge174" class="edge"><title>Node25&#45;&gt;Node38</title>
<path fill="none" stroke="midnightblue" d="M804.301,-568.806C848.579,-567.058 926.58,-558.762 982.058,-524 1023.23,-498.2 1053.51,-447.614 1067.47,-420.748"/>
<polygon fill="midnightblue" stroke="midnightblue" points="1070.65,-422.221 1072.02,-411.715 1064.4,-419.076 1070.65,-422.221"/>
</g>
<!-- Node42 -->
<g id="node142" class="node"><title>Node42</title>
<a xlink:href="_s_l_anim_manager_8h.html" target="_top" xlink:title="SLAnimManager.h">
<polygon fill="white" stroke="black" points="620.058,-504.5 620.058,-523.5 724.058,-523.5 724.058,-504.5 620.058,-504.5"/>
<text text-anchor="middle" x="672.058" y="-511.5" font-family="Arial.ttf" font-size="10.00">SLAnimManager.h</text>
</a>
</g>
<!-- Node25&#45;&gt;Node42 -->
<g id="edge200" class="edge"><title>Node25&#45;&gt;Node42</title>
<path fill="none" stroke="midnightblue" d="M754.313,-560.324C738.739,-551.743 714.681,-538.486 696.599,-528.522"/>
<polygon fill="midnightblue" stroke="midnightblue" points="698.212,-525.415 687.764,-523.655 694.834,-531.546 698.212,-525.415"/>
</g>
<!-- Node43 -->
<g id="node149" class="node"><title>Node43</title>
<a xlink:href="_s_l_average_8h.html" target="_top" xlink:title="SLAverage.h">
<polygon fill="white" stroke="black" points="282.558,-504.5 282.558,-523.5 359.558,-523.5 359.558,-504.5 282.558,-504.5"/>
<text text-anchor="middle" x="321.058" y="-511.5" font-family="Arial.ttf" font-size="10.00">SLAverage.h</text>
</a>
</g>
<!-- Node25&#45;&gt;Node43 -->
<g id="edge212" class="edge"><title>Node25&#45;&gt;Node43</title>
<path fill="none" stroke="midnightblue" d="M735.941,-564.897C657.021,-555.405 461.619,-531.905 369.976,-520.883"/>
<polygon fill="midnightblue" stroke="midnightblue" points="370.201,-517.385 359.855,-519.666 369.365,-524.335 370.201,-517.385"/>
</g>
<!-- Node26&#45;&gt;Node2 -->
<g id="edge104" class="edge"><title>Node26&#45;&gt;Node2</title>
<path fill="none" stroke="midnightblue" d="M1467.18,-448.463C1490.81,-431.943 1538.06,-393.135 1538.06,-347 1538.06,-347 1538.06,-347 1538.06,-289 1538.06,-216.245 1367.95,-97.3015 1308.06,-56 1287.79,-42.0253 1262.49,-30.8289 1242.15,-23.0997"/>
<polygon fill="midnightblue" stroke="midnightblue" points="1243.2,-19.758 1232.61,-19.5869 1240.79,-26.3268 1243.2,-19.758"/>
</g>
<!-- Node26&#45;&gt;Node20 -->
<g id="edge106" class="edge"><title>Node26&#45;&gt;Node20</title>
<path fill="none" stroke="midnightblue" d="M1423.53,-448.413C1398.76,-440.76 1363.42,-428.261 1335.06,-412 1251.04,-363.823 1165.9,-284.206 1131.7,-250.666"/>
<polygon fill="midnightblue" stroke="midnightblue" points="1134.05,-248.071 1124.48,-243.527 1129.13,-253.048 1134.05,-248.071"/>
</g>
<!-- Node27 -->
<g id="node81" class="node"><title>Node27</title>
<a xlink:href="_s_l_g_l_texture_8h.html" target="_top" xlink:title="SLGLTexture.h">
<polygon fill="white" stroke="black" points="1970.06,-168.5 1970.06,-187.5 2056.06,-187.5 2056.06,-168.5 1970.06,-168.5"/>
<text text-anchor="middle" x="2013.06" y="-175.5" font-family="Arial.ttf" font-size="10.00">SLGLTexture.h</text>
</a>
</g>
<!-- Node26&#45;&gt;Node27 -->
<g id="edge108" class="edge"><title>Node26&#45;&gt;Node27</title>
<path fill="none" stroke="midnightblue" d="M1492.43,-456.739C1549.15,-455.105 1657.75,-447.151 1742.06,-412 1860.47,-362.633 1964.38,-241.026 1999.98,-196.068"/>
<polygon fill="midnightblue" stroke="midnightblue" points="2002.95,-197.951 2006.34,-187.916 1997.43,-193.643 2002.95,-197.951"/>
</g>
<!-- Node29 -->
<g id="node89" class="node"><title>Node29</title>
<a xlink:href="_s_l_g_l_program_8h.html" target="_top" xlink:title="SLGLProgram.h">
<polygon fill="white" stroke="black" points="1389.06,-336.5 1389.06,-355.5 1481.06,-355.5 1481.06,-336.5 1389.06,-336.5"/>
<text text-anchor="middle" x="1435.06" y="-343.5" font-family="Arial.ttf" font-size="10.00">SLGLProgram.h</text>
</a>
</g>
<!-- Node26&#45;&gt;Node29 -->
<g id="edge120" class="edge"><title>Node26&#45;&gt;Node29</title>
<path fill="none" stroke="midnightblue" d="M1462.4,-448.158C1473.14,-435.642 1489.49,-412.049 1481.06,-392 1476.03,-380.053 1466.11,-369.692 1456.77,-361.934"/>
<polygon fill="midnightblue" stroke="midnightblue" points="1458.9,-359.155 1448.84,-355.811 1454.62,-364.694 1458.9,-359.155"/>
</g>
<!-- Node31 -->
<g id="node96" class="node"><title>Node31</title>
<a xlink:href="_s_l_g_l_generic_program_8h.html" target="_top" xlink:title="SLGLGenericProgram.h">
<polygon fill="white" stroke="black" points="1344.06,-392.5 1344.06,-411.5 1472.06,-411.5 1472.06,-392.5 1344.06,-392.5"/>
<text text-anchor="middle" x="1408.06" y="-399.5" font-family="Arial.ttf" font-size="10.00">SLGLGenericProgram.h</text>
</a>
</g>
<!-- Node26&#45;&gt;Node31 -->
<g id="edge130" class="edge"><title>Node26&#45;&gt;Node31</title>
<path fill="none" stroke="midnightblue" d="M1446.46,-448.083C1439.83,-440.298 1430.04,-428.801 1422,-419.367"/>
<polygon fill="midnightblue" stroke="midnightblue" points="1424.66,-417.094 1415.51,-411.751 1419.33,-421.633 1424.66,-417.094"/>
</g>
<!-- Node27&#45;&gt;Node2 -->
<g id="edge110" class="edge"><title>Node27&#45;&gt;Node2</title>
<path fill="none" stroke="midnightblue" d="M2013.6,-168.172C2014.47,-145.329 2013.26,-84.1057 1978.06,-56 1920.35,-9.93201 1391.71,-9.80942 1244.15,-10.6862"/>
<polygon fill="midnightblue" stroke="midnightblue" points="1243.78,-7.18846 1233.8,-10.7532 1243.82,-14.1883 1243.78,-7.18846"/>
</g>
<!-- Node27&#45;&gt;Node19 -->
<g id="edge118" class="edge"><title>Node27&#45;&gt;Node19</title>
<path fill="none" stroke="midnightblue" d="M2001.02,-168.347C1981.27,-154.534 1940.36,-127.484 1902.06,-112 1862.56,-96.0329 1815.94,-84.7373 1779.39,-77.4565"/>
<polygon fill="midnightblue" stroke="midnightblue" points="1779.84,-73.9793 1769.36,-75.5089 1778.51,-80.851 1779.84,-73.9793"/>
</g>
<!-- Node28 -->
<g id="node84" class="node"><title>Node28</title>
<a xlink:href="_s_l_c_v_image_8h.html" target="_top" xlink:title="SLCVImage.h">
<polygon fill="white" stroke="black" points="2144.56,-112.5 2144.56,-131.5 2225.56,-131.5 2225.56,-112.5 2144.56,-112.5"/>
<text text-anchor="middle" x="2185.06" y="-119.5" font-family="Arial.ttf" font-size="10.00">SLCVImage.h</text>
</a>
</g>
<!-- Node27&#45;&gt;Node28 -->
<g id="edge112" class="edge"><title>Node27&#45;&gt;Node28</title>
<path fill="none" stroke="midnightblue" d="M2040.31,-168.444C2069.5,-159.28 2115.98,-144.688 2148.37,-134.519"/>
<polygon fill="midnightblue" stroke="midnightblue" points="2149.44,-137.851 2157.93,-131.516 2147.34,-131.173 2149.44,-137.851"/>
</g>
<!-- Node28&#45;&gt;Node2 -->
<g id="edge114" class="edge"><title>Node28&#45;&gt;Node2</title>
<path fill="none" stroke="midnightblue" d="M2180.75,-112.282C2172.96,-97.5909 2154.98,-68.3029 2130.06,-56 2049.73,-16.3439 1407.64,-11.6303 1243.94,-11.0738"/>
<polygon fill="midnightblue" stroke="midnightblue" points="1243.87,-7.57362 1233.86,-11.0428 1243.84,-14.5736 1243.87,-7.57362"/>
</g>
<!-- Node28&#45;&gt;Node9 -->
<g id="edge116" class="edge"><title>Node28&#45;&gt;Node9</title>
<path fill="none" stroke="midnightblue" d="M2222.61,-112.444C2267.56,-102.202 2342.28,-85.1773 2386.38,-75.1287"/>
<polygon fill="midnightblue" stroke="midnightblue" points="2387.39,-78.4877 2396.37,-72.8536 2385.84,-71.6626 2387.39,-78.4877"/>
</g>
<!-- Node29&#45;&gt;Node2 -->
<g id="edge122" class="edge"><title>Node29&#45;&gt;Node2</title>
<path fill="none" stroke="midnightblue" d="M1437.78,-336.412C1443.83,-315.616 1456.35,-261.508 1436.06,-224 1424.04,-201.777 1409.77,-206.022 1392.06,-188 1338.73,-133.734 1341.72,-104.455 1283.06,-56 1267.83,-43.4243 1248.67,-32.2104 1233.27,-24.1226"/>
<polygon fill="midnightblue" stroke="midnightblue" points="1234.73,-20.9398 1224.23,-19.5065 1231.55,-27.1733 1234.73,-20.9398"/>
</g>
<!-- Node30 -->
<g id="node92" class="node"><title>Node30</title>
<a xlink:href="_s_l_g_l_uniform_8h.html" target="_top" xlink:title="SLGLUniform.h">
<polygon fill="white" stroke="black" points="1344.56,-280.5 1344.56,-299.5 1433.56,-299.5 1433.56,-280.5 1344.56,-280.5"/>
<text text-anchor="middle" x="1389.06" y="-287.5" font-family="Arial.ttf" font-size="10.00">SLGLUniform.h</text>
</a>
</g>
<!-- Node29&#45;&gt;Node30 -->
<g id="edge124" class="edge"><title>Node29&#45;&gt;Node30</title>
<path fill="none" stroke="midnightblue" d="M1427.46,-336.083C1420.83,-328.298 1411.04,-316.801 1403,-307.367"/>
<polygon fill="midnightblue" stroke="midnightblue" points="1405.66,-305.094 1396.51,-299.751 1400.33,-309.633 1405.66,-305.094"/>
</g>
<!-- Node30&#45;&gt;Node2 -->
<g id="edge126" class="edge"><title>Node30&#45;&gt;Node2</title>
<path fill="none" stroke="midnightblue" d="M1398.67,-280.332C1411.55,-267.625 1431.55,-243.351 1420.06,-224 1403,-195.268 1377.87,-211.442 1354.06,-188 1326.4,-160.772 1334.85,-142.663 1311.06,-112 1284.66,-77.977 1246.93,-44.5373 1224.62,-25.9526"/>
<polygon fill="midnightblue" stroke="midnightblue" points="1226.83,-23.2354 1216.88,-19.587 1222.38,-28.642 1226.83,-23.2354"/>
</g>
<!-- Node30&#45;&gt;Node21 -->
<g id="edge128" class="edge"><title>Node30&#45;&gt;Node21</title>
<path fill="none" stroke="midnightblue" d="M1363.07,-280.444C1335.36,-271.32 1291.31,-256.813 1260.44,-246.651"/>
<polygon fill="midnightblue" stroke="midnightblue" points="1261.52,-243.32 1250.92,-243.516 1259.33,-249.968 1261.52,-243.32"/>
</g>
<!-- Node31&#45;&gt;Node29 -->
<g id="edge136" class="edge"><title>Node31&#45;&gt;Node29</title>
<path fill="none" stroke="midnightblue" d="M1412.52,-392.083C1416.21,-384.691 1421.58,-373.953 1426.15,-364.811"/>
<polygon fill="midnightblue" stroke="midnightblue" points="1429.34,-366.261 1430.68,-355.751 1423.08,-363.13 1429.34,-366.261"/>
</g>
<!-- Node32 -->
<g id="node98" class="node"><title>Node32</title>
<a xlink:href="_s_l_object_8h.html" target="_top" xlink:title="SLObject.h">
<polygon fill="white" stroke="black" points="1234.06,-112.5 1234.06,-131.5 1302.06,-131.5 1302.06,-112.5 1234.06,-112.5"/>
<text text-anchor="middle" x="1268.06" y="-119.5" font-family="Arial.ttf" font-size="10.00">SLObject.h</text>
</a>
</g>
<!-- Node31&#45;&gt;Node32 -->
<g id="edge132" class="edge"><title>Node31&#45;&gt;Node32</title>
<path fill="none" stroke="midnightblue" d="M1398.79,-392.377C1382.15,-376.188 1347.78,-339.317 1335.06,-300 1332.32,-291.543 1330.45,-287.601 1335.06,-280 1352.99,-250.421 1386.13,-273.579 1404.06,-244 1408.67,-236.399 1409.01,-231.38 1404.06,-224 1380.5,-188.916 1349.4,-213.959 1316.06,-188 1299.51,-175.116 1285.92,-155.113 1277.48,-140.699"/>
<polygon fill="midnightblue" stroke="midnightblue" points="1280.42,-138.788 1272.48,-131.77 1274.31,-142.206 1280.42,-138.788"/>
</g>
<!-- Node32&#45;&gt;Node2 -->
<g id="edge134" class="edge"><title>Node32&#45;&gt;Node2</title>
<path fill="none" stroke="midnightblue" d="M1263.19,-112.368C1253.01,-94.2957 1229.27,-52.1764 1215.81,-28.3074"/>
<polygon fill="midnightblue" stroke="midnightblue" points="1218.86,-26.5844 1210.9,-19.5914 1212.76,-30.0215 1218.86,-26.5844"/>
</g>
<!-- Node33&#45;&gt;Node2 -->
<g id="edge146" class="edge"><title>Node33&#45;&gt;Node2</title>
<path fill="none" stroke="midnightblue" d="M687.594,-448.393C657.224,-432.812 600.058,-396.86 600.058,-347 600.058,-347 600.058,-347 600.058,-121 600.058,-80.1449 627.994,-73.1868 665.058,-56 754.735,-14.4161 1060.68,-10.7661 1168.27,-10.8041"/>
<polygon fill="midnightblue" stroke="midnightblue" points="1168.34,-14.3041 1178.34,-10.8189 1168.35,-7.3041 1168.34,-14.3041"/>
</g>
<!-- Node34 -->
<g id="node108" class="node"><title>Node34</title>
<a xlink:href="_s_l_joint_8h.html" target="_top" xlink:title="SLJoint.h">
<polygon fill="white" stroke="black" points="844.058,-336.5 844.058,-355.5 902.058,-355.5 902.058,-336.5 844.058,-336.5"/>
<text text-anchor="middle" x="873.058" y="-343.5" font-family="Arial.ttf" font-size="10.00">SLJoint.h</text>
</a>
</g>
<!-- Node33&#45;&gt;Node34 -->
<g id="edge148" class="edge"><title>Node33&#45;&gt;Node34</title>
<path fill="none" stroke="midnightblue" d="M740.254,-448.485C764.172,-441.392 796.011,-429.583 820.058,-412 837.799,-399.028 853.044,-378.757 862.569,-364.303"/>
<polygon fill="midnightblue" stroke="midnightblue" points="865.574,-366.1 867.971,-355.78 859.661,-362.353 865.574,-366.1"/>
</g>
<!-- Node35 -->
<g id="node112" class="node"><title>Node35</title>
<a xlink:href="_s_l_animation_8h.html" target="_top" xlink:title="SLAnimation.h">
<polygon fill="white" stroke="black" points="725.058,-392.5 725.058,-411.5 811.058,-411.5 811.058,-392.5 725.058,-392.5"/>
<text text-anchor="middle" x="768.058" y="-399.5" font-family="Arial.ttf" font-size="10.00">SLAnimation.h</text>
</a>
</g>
<!-- Node33&#45;&gt;Node35 -->
<g id="edge154" class="edge"><title>Node33&#45;&gt;Node35</title>
<path fill="none" stroke="midnightblue" d="M716.019,-448.324C725.185,-440.341 738.995,-428.313 750.086,-418.653"/>
<polygon fill="midnightblue" stroke="midnightblue" points="752.673,-421.041 757.915,-411.834 748.076,-415.762 752.673,-421.041"/>
</g>
<!-- Node37 -->
<g id="node121" class="node"><title>Node37</title>
<a xlink:href="_s_l_anim_playback_8h.html" target="_top" xlink:title="SLAnimPlayback.h">
<polygon fill="white" stroke="black" points="628.058,-336.5 628.058,-355.5 732.058,-355.5 732.058,-336.5 628.058,-336.5"/>
<text text-anchor="middle" x="680.058" y="-343.5" font-family="Arial.ttf" font-size="10.00">SLAnimPlayback.h</text>
</a>
</g>
<!-- Node33&#45;&gt;Node37 -->
<g id="edge168" class="edge"><title>Node33&#45;&gt;Node37</title>
<path fill="none" stroke="midnightblue" d="M704.018,-448.368C699.822,-430.617 690.143,-389.666 684.454,-365.597"/>
<polygon fill="midnightblue" stroke="midnightblue" points="687.795,-364.518 682.089,-355.591 680.983,-366.128 687.795,-364.518"/>
</g>
<!-- Node34&#45;&gt;Node2 -->
<g id="edge150" class="edge"><title>Node34&#45;&gt;Node2</title>
<path fill="none" stroke="midnightblue" d="M844.046,-341.746C818.43,-337.167 782.522,-326.197 765.058,-300 760.127,-292.604 764.318,-288.858 765.058,-280 768.849,-234.638 782.058,-224.52 782.058,-179 782.058,-179 782.058,-179 782.058,-121 782.058,-80.7686 809.054,-73.9514 845.058,-56 901.18,-28.0179 1087.46,-16.37 1168.2,-12.5528"/>
<polygon fill="midnightblue" stroke="midnightblue" points="1168.58,-16.0389 1178.41,-12.0852 1168.26,-9.04619 1168.58,-16.0389"/>
</g>
<!-- Node34&#45;&gt;Node15 -->
<g id="edge152" class="edge"><title>Node34&#45;&gt;Node15</title>
<path fill="none" stroke="midnightblue" d="M892.231,-336.444C911.967,-327.636 942.943,-313.812 965.551,-303.722"/>
<polygon fill="midnightblue" stroke="midnightblue" points="967.269,-306.788 974.975,-299.516 964.417,-300.396 967.269,-306.788"/>
</g>
<!-- Node35&#45;&gt;Node2 -->
<g id="edge156" class="edge"><title>Node35&#45;&gt;Node2</title>
<path fill="none" stroke="midnightblue" d="M724.973,-398.918C646.62,-394.524 484.34,-382.451 435.058,-356 401.203,-337.829 378.058,-329.423 378.058,-291 378.058,-291 378.058,-291 378.058,-121 378.058,-64.5958 433.175,-72.6746 487.058,-56 616.055,-16.0809 1038.97,-11.4881 1168.21,-11.0283"/>
<polygon fill="midnightblue" stroke="midnightblue" points="1168.41,-14.5278 1178.4,-10.9986 1168.39,-7.52787 1168.41,-14.5278"/>
</g>
<!-- Node35&#45;&gt;Node6 -->
<g id="edge166" class="edge"><title>Node35&#45;&gt;Node6</title>
<path fill="none" stroke="midnightblue" d="M775.677,-392.25C787.496,-379.009 811.365,-353.568 835.058,-336 861.585,-316.331 876.348,-322.987 900.058,-300 931.386,-269.628 954.031,-222.783 964.871,-197.203"/>
<polygon fill="midnightblue" stroke="midnightblue" points="968.231,-198.233 968.784,-187.653 961.754,-195.579 968.231,-198.233"/>
</g>
<!-- Node35&#45;&gt;Node34 -->
<g id="edge164" class="edge"><title>Node35&#45;&gt;Node34</title>
<path fill="none" stroke="midnightblue" d="M784.928,-392.324C801.767,-383.664 827.864,-370.242 847.296,-360.249"/>
<polygon fill="midnightblue" stroke="midnightblue" points="848.938,-363.341 856.23,-355.655 845.736,-357.116 848.938,-363.341"/>
</g>
<!-- Node36 -->
<g id="node115" class="node"><title>Node36</title>
<a xlink:href="_s_l_anim_track_8h.html" target="_top" xlink:title="SLAnimTrack.h">
<polygon fill="white" stroke="red" points="666.058,-224.5 666.058,-243.5 754.058,-243.5 754.058,-224.5 666.058,-224.5"/>
<text text-anchor="middle" x="710.058" y="-231.5" font-family="Arial.ttf" font-size="10.00">SLAnimTrack.h</text>
</a>
</g>
<!-- Node35&#45;&gt;Node36 -->
<g id="edge158" class="edge"><title>Node35&#45;&gt;Node36</title>
<path fill="none" stroke="midnightblue" d="M764.929,-392.37C758.623,-374.943 743.971,-334.289 732.058,-300 726.621,-284.35 720.599,-266.523 716.232,-253.501"/>
<polygon fill="midnightblue" stroke="midnightblue" points="719.494,-252.22 713.002,-243.847 712.856,-254.441 719.494,-252.22"/>
</g>
<!-- Node36&#45;&gt;Node2 -->
<g id="edge160" class="edge"><title>Node36&#45;&gt;Node2</title>
<path fill="none" stroke="midnightblue" d="M709.879,-224.191C709.808,-194.818 713.922,-99.6223 768.058,-56 798.958,-31.1012 1067.91,-16.9876 1168.4,-12.5447"/>
<polygon fill="midnightblue" stroke="midnightblue" points="1168.58,-16.0403 1178.41,-12.1093 1168.27,-9.0469 1168.58,-16.0403"/>
</g>
<!-- Node36&#45;&gt;Node6 -->
<g id="edge162" class="edge"><title>Node36&#45;&gt;Node6</title>
<path fill="none" stroke="midnightblue" d="M751.573,-224.444C799.125,-214.643 876.811,-198.631 926.136,-188.465"/>
<polygon fill="midnightblue" stroke="midnightblue" points="927.123,-191.835 936.21,-186.388 925.71,-184.979 927.123,-191.835"/>
</g>
<!-- Node37&#45;&gt;Node2 -->
<g id="edge170" class="edge"><title>Node37&#45;&gt;Node2</title>
<path fill="none" stroke="midnightblue" d="M674.218,-336.308C662.678,-318.261 638.058,-275.066 638.058,-235 638.058,-235 638.058,-235 638.058,-121 638.058,-12.6787 1041.25,-8.80089 1168.24,-10.2658"/>
<polygon fill="midnightblue" stroke="midnightblue" points="1168.23,-13.7659 1178.28,-10.3998 1168.33,-6.76652 1168.23,-13.7659"/>
</g>
<!-- Node37&#45;&gt;Node6 -->
<g id="edge172" class="edge"><title>Node37&#45;&gt;Node6</title>
<path fill="none" stroke="midnightblue" d="M732.222,-344.178C774.673,-341.068 834.204,-330.893 876.058,-300 907.461,-276.822 895.18,-254.074 920.058,-224 929.332,-212.788 941.562,-202.053 951.831,-193.881"/>
<polygon fill="midnightblue" stroke="midnightblue" points="954.107,-196.545 959.887,-187.666 949.832,-191.003 954.107,-196.545"/>
</g>
<!-- Node38&#45;&gt;Node2 -->
<g id="edge176" class="edge"><title>Node38&#45;&gt;Node2</title>
<path fill="none" stroke="midnightblue" d="M1074.13,-392.168C1067.81,-362.338 1048.06,-262.521 1048.06,-179 1048.06,-179 1048.06,-179 1048.06,-121 1048.06,-62.459 1122.02,-32.5321 1168.73,-19.468"/>
<polygon fill="midnightblue" stroke="midnightblue" points="1169.77,-22.8133 1178.54,-16.86 1167.97,-16.0486 1169.77,-22.8133"/>
</g>
<!-- Node39 -->
<g id="node128" class="node"><title>Node39</title>
<a xlink:href="_s_l_camera_8h.html" target="_top" xlink:title="SLCamera.h">
<polygon fill="white" stroke="red" points="1566.06,-336.5 1566.06,-355.5 1642.06,-355.5 1642.06,-336.5 1566.06,-336.5"/>
<text text-anchor="middle" x="1604.06" y="-343.5" font-family="Arial.ttf" font-size="10.00">SLCamera.h</text>
</a>
</g>
<!-- Node38&#45;&gt;Node39 -->
<g id="edge178" class="edge"><title>Node38&#45;&gt;Node39</title>
<path fill="none" stroke="midnightblue" d="M1117.93,-396.718C1214.61,-386.829 1452.97,-362.453 1555.68,-351.948"/>
<polygon fill="midnightblue" stroke="midnightblue" points="1556.18,-355.415 1565.77,-350.916 1555.47,-348.451 1556.18,-355.415"/>
</g>
<!-- Node39&#45;&gt;Node2 -->
<g id="edge180" class="edge"><title>Node39&#45;&gt;Node2</title>
<path fill="none" stroke="midnightblue" d="M1604.78,-336.418C1605.59,-323.818 1606.18,-299.677 1601.06,-280 1594.04,-253.072 1589,-246.804 1573.06,-224 1560.45,-205.964 1550.03,-207.076 1539.06,-188 1508.55,-134.975 1546.14,-96.2311 1500.06,-56 1462.5,-23.215 1314.35,-14.286 1243.79,-11.8774"/>
<polygon fill="midnightblue" stroke="midnightblue" points="1243.67,-8.37191 1233.57,-11.5556 1243.45,-15.3685 1243.67,-8.37191"/>
</g>
<!-- Node39&#45;&gt;Node6 -->
<g id="edge182" class="edge"><title>Node39&#45;&gt;Node6</title>
<path fill="none" stroke="midnightblue" d="M1584.32,-336.427C1554.02,-323.417 1494.1,-298.272 1442.06,-280 1389.92,-261.694 1374.18,-264.963 1323.06,-244 1305.4,-236.759 1303.21,-229.888 1285.06,-224 1193.24,-194.219 1079.9,-184.119 1017.91,-180.714"/>
<polygon fill="midnightblue" stroke="midnightblue" points="1017.85,-177.206 1007.68,-180.187 1017.49,-184.197 1017.85,-177.206"/>
</g>
<!-- Node39&#45;&gt;Node15 -->
<g id="edge184" class="edge"><title>Node39&#45;&gt;Node15</title>
<path fill="none" stroke="midnightblue" d="M1565.9,-341.622C1457.52,-332.028 1148.41,-304.664 1035.77,-294.693"/>
<polygon fill="midnightblue" stroke="midnightblue" points="1036.08,-291.206 1025.81,-293.811 1035.46,-298.179 1036.08,-291.206"/>
</g>
<!-- Node39&#45;&gt;Node18 -->
<g id="edge198" class="edge"><title>Node39&#45;&gt;Node18</title>
<path fill="none" stroke="midnightblue" d="M1627.92,-336.417C1645.59,-329.05 1669.24,-316.927 1685.06,-300 1729.31,-252.637 1707.92,-219.666 1747.06,-168 1755.73,-156.55 1767.74,-145.923 1778.03,-137.875"/>
<polygon fill="midnightblue" stroke="midnightblue" points="1780.27,-140.567 1786.16,-131.759 1776.06,-134.973 1780.27,-140.567"/>
</g>
<!-- Node39&#45;&gt;Node24 -->
<g id="edge190" class="edge"><title>Node39&#45;&gt;Node24</title>
<path fill="none" stroke="midnightblue" d="M1565.81,-341.866C1543.68,-340.082 1515.3,-337.843 1490.06,-336 1251.49,-318.587 1191.72,-316.136 953.058,-300 928.403,-298.333 901.159,-296.478 877.856,-294.887"/>
<polygon fill="midnightblue" stroke="midnightblue" points="878.006,-291.389 867.791,-294.199 877.529,-298.373 878.006,-291.389"/>
</g>
<!-- Node40 -->
<g id="node133" class="node"><title>Node40</title>
<a xlink:href="_s_l_g_l_state_8h.html" target="_top" xlink:title="SLGLState.h">
<polygon fill="white" stroke="red" points="1414.56,-56.5 1414.56,-75.5 1491.56,-75.5 1491.56,-56.5 1414.56,-56.5"/>
<text text-anchor="middle" x="1453.06" y="-63.5" font-family="Arial.ttf" font-size="10.00">SLGLState.h</text>
</a>
</g>
<!-- Node39&#45;&gt;Node40 -->
<g id="edge186" class="edge"><title>Node39&#45;&gt;Node40</title>
<path fill="none" stroke="midnightblue" d="M1601.94,-336.317C1596.48,-315.311 1580.38,-260.772 1552.06,-224 1536.22,-203.433 1521.97,-208.512 1506.06,-188 1481.2,-155.957 1465.4,-110.448 1458,-85.3652"/>
<polygon fill="midnightblue" stroke="midnightblue" points="1461.35,-84.3542 1455.26,-75.6815 1454.61,-86.2563 1461.35,-84.3542"/>
</g>
<!-- Node41 -->
<g id="node137" class="node"><title>Node41</title>
<a xlink:href="_s_l_background_8h.html" target="_top" xlink:title="SLBackground.h">
<polygon fill="white" stroke="black" points="1624.56,-112.5 1624.56,-131.5 1719.56,-131.5 1719.56,-112.5 1624.56,-112.5"/>
<text text-anchor="middle" x="1672.06" y="-119.5" font-family="Arial.ttf" font-size="10.00">SLBackground.h</text>
</a>
</g>
<!-- Node39&#45;&gt;Node41 -->
<g id="edge192" class="edge"><title>Node39&#45;&gt;Node41</title>
<path fill="none" stroke="midnightblue" d="M1624.12,-336.409C1638.58,-329.037 1657.07,-316.913 1666.06,-300 1693.54,-248.284 1683.45,-175.543 1676.48,-141.691"/>
<polygon fill="midnightblue" stroke="midnightblue" points="1679.87,-140.799 1674.3,-131.788 1673.03,-142.307 1679.87,-140.799"/>
</g>
<!-- Node40&#45;&gt;Node2 -->
<g id="edge188" class="edge"><title>Node40&#45;&gt;Node2</title>
<path fill="none" stroke="midnightblue" d="M1414.46,-56.5625C1367.79,-46.3589 1289.76,-29.3 1243.58,-19.2028"/>
<polygon fill="midnightblue" stroke="midnightblue" points="1244.19,-15.7539 1233.67,-17.0373 1242.69,-22.5924 1244.19,-15.7539"/>
</g>
<!-- Node41&#45;&gt;Node2 -->
<g id="edge194" class="edge"><title>Node41&#45;&gt;Node2</title>
<path fill="none" stroke="midnightblue" d="M1666.82,-112.433C1657.45,-97.9693 1636.33,-69.0153 1610.06,-56 1546.18,-24.3521 1331.5,-14.6295 1243.83,-11.9369"/>
<polygon fill="midnightblue" stroke="midnightblue" points="1243.88,-8.43709 1233.79,-11.6424 1243.68,-15.4341 1243.88,-8.43709"/>
</g>
<!-- Node41&#45;&gt;Node19 -->
<g id="edge196" class="edge"><title>Node41&#45;&gt;Node19</title>
<path fill="none" stroke="midnightblue" d="M1679.49,-112.083C1685.91,-104.377 1695.36,-93.0333 1703.18,-83.6531"/>
<polygon fill="midnightblue" stroke="midnightblue" points="1706.05,-85.674 1709.77,-75.7511 1700.67,-81.1927 1706.05,-85.674"/>
</g>
<!-- Node42&#45;&gt;Node2 -->
<g id="edge202" class="edge"><title>Node42&#45;&gt;Node2</title>
<path fill="none" stroke="midnightblue" d="M619.831,-508.449C517.84,-498.114 302.058,-468.507 302.058,-403 302.058,-403 302.058,-403 302.058,-121 302.058,-82.2823 325.156,-72.7604 360.058,-56 433.457,-20.7528 1012.85,-12.8133 1167.97,-11.3119"/>
<polygon fill="midnightblue" stroke="midnightblue" points="1168.43,-14.8078 1178.39,-11.2146 1168.36,-7.80815 1168.43,-14.8078"/>
</g>
<!-- Node42&#45;&gt;Node33 -->
<g id="edge210" class="edge"><title>Node42&#45;&gt;Node33</title>
<path fill="none" stroke="midnightblue" d="M677.672,-504.083C682.425,-496.534 689.376,-485.495 695.21,-476.23"/>
<polygon fill="midnightblue" stroke="midnightblue" points="698.182,-478.078 700.548,-467.751 692.258,-474.349 698.182,-478.078"/>
</g>
<!-- Node42&#45;&gt;Node35 -->
<g id="edge204" class="edge"><title>Node42&#45;&gt;Node35</title>
<path fill="none" stroke="midnightblue" d="M700.948,-504.431C719.225,-497.517 741.822,-485.938 755.058,-468 764.773,-454.833 767.707,-436.241 768.395,-422.311"/>
<polygon fill="midnightblue" stroke="midnightblue" points="771.9,-421.978 768.544,-411.929 764.901,-421.878 771.9,-421.978"/>
</g>
<!-- Node42&#45;&gt;Node37 -->
<g id="edge208" class="edge"><title>Node42&#45;&gt;Node37</title>
<path fill="none" stroke="midnightblue" d="M668.202,-504.249C664.5,-495.333 659.169,-481.006 657.058,-468 651.117,-431.393 663.783,-388.849 672.57,-365.216"/>
<polygon fill="midnightblue" stroke="midnightblue" points="675.879,-366.365 676.254,-355.777 669.358,-363.82 675.879,-366.365"/>
</g>
<!-- Node42&#45;&gt;Node42 -->
<g id="edge206" class="edge"><title>Node42&#45;&gt;Node42</title>
<path fill="none" stroke="midnightblue" d="M701.913,-523.525C722.199,-526.308 742.058,-523.133 742.058,-514 742.058,-506.437 728.439,-502.96 712.236,-503.568"/>
<polygon fill="midnightblue" stroke="midnightblue" points="711.568,-500.113 701.913,-504.475 712.181,-507.086 711.568,-500.113"/>
</g>
<!-- Node43&#45;&gt;Node2 -->
<g id="edge214" class="edge"><title>Node43&#45;&gt;Node2</title>
<path fill="none" stroke="midnightblue" d="M312.891,-504.384C297.13,-486.812 264.058,-444.942 264.058,-403 264.058,-403 264.058,-403 264.058,-121 264.058,-82.8683 285.809,-72.7641 320.058,-56 396.969,-18.3539 1008.88,-12.1553 1168.23,-11.1766"/>
<polygon fill="midnightblue" stroke="midnightblue" points="1168.51,-14.6752 1178.49,-11.1171 1168.47,-7.67528 1168.51,-14.6752"/>
</g>
<!-- Node44&#45;&gt;Node2 -->
<g id="edge224" class="edge"><title>Node44&#45;&gt;Node2</title>
<path fill="none" stroke="midnightblue" d="M1810.69,-624.828C1917.52,-623.805 2184.99,-617.465 2265.06,-580 2302.06,-562.684 2330.06,-555.855 2330.06,-515 2330.06,-515 2330.06,-515 2330.06,-121 2330.06,-74.8419 2292.26,-72.2465 2249.06,-56 2153.57,-20.092 1419.27,-12.5378 1243.69,-11.2386"/>
<polygon fill="midnightblue" stroke="midnightblue" points="1243.66,-7.73842 1233.63,-11.1666 1243.61,-14.7382 1243.66,-7.73842"/>
</g>
<!-- Node44&#45;&gt;Node15 -->
<g id="edge228" class="edge"><title>Node44&#45;&gt;Node15</title>
<path fill="none" stroke="midnightblue" d="M1721.16,-623.29C1601.73,-618.471 1278.24,-603.572 1174.06,-580 1095.97,-562.332 1006.06,-595.06 1006.06,-515 1006.06,-515 1006.06,-515 1006.06,-457 1006.06,-403.451 999.769,-340.438 996.297,-309.727"/>
<polygon fill="midnightblue" stroke="midnightblue" points="999.754,-309.154 995.123,-299.625 992.801,-309.962 999.754,-309.154"/>
</g>
<!-- Node44&#45;&gt;Node17 -->
<g id="edge254" class="edge"><title>Node44&#45;&gt;Node17</title>
<path fill="none" stroke="midnightblue" d="M1766.06,-616.442C1766.06,-597.936 1766.06,-552.813 1766.06,-515 1766.06,-515 1766.06,-515 1766.06,-345 1766.06,-265.726 1670.54,-213.861 1618.67,-191.538"/>
<polygon fill="midnightblue" stroke="midnightblue" points="1619.8,-188.216 1609.22,-187.591 1617.1,-194.675 1619.8,-188.216"/>
</g>
<!-- Node44&#45;&gt;Node18 -->
<g id="edge266" class="edge"><title>Node44&#45;&gt;Node18</title>
<path fill="none" stroke="midnightblue" d="M1786.7,-616.421C1819.55,-601.231 1880.06,-566.293 1880.06,-515 1880.06,-515 1880.06,-515 1880.06,-401 1880.06,-297.421 1938.7,-256.608 1885.06,-168 1875.65,-152.455 1858.91,-142.022 1842.68,-135.151"/>
<polygon fill="midnightblue" stroke="midnightblue" points="1843.83,-131.845 1833.24,-131.507 1841.31,-138.375 1843.83,-131.845"/>
</g>
<!-- Node44&#45;&gt;Node20 -->
<g id="edge256" class="edge"><title>Node44&#45;&gt;Node20</title>
<path fill="none" stroke="midnightblue" d="M1722.57,-616.434C1596.54,-590.379 1240.06,-507.447 1240.06,-403 1240.06,-403 1240.06,-403 1240.06,-345 1240.06,-296.261 1185.78,-263.866 1149.05,-247.521"/>
<polygon fill="midnightblue" stroke="midnightblue" points="1150.24,-244.226 1139.67,-243.524 1147.5,-250.665 1150.24,-244.226"/>
</g>
<!-- Node44&#45;&gt;Node21 -->
<g id="edge238" class="edge"><title>Node44&#45;&gt;Node21</title>
<path fill="none" stroke="midnightblue" d="M1721.46,-624.385C1600.99,-621.527 1278.06,-605.43 1278.06,-515 1278.06,-515 1278.06,-515 1278.06,-345 1278.06,-308.992 1254.72,-272.339 1239.02,-251.75"/>
<polygon fill="midnightblue" stroke="midnightblue" points="1241.61,-249.379 1232.65,-243.719 1236.12,-253.729 1241.61,-249.379"/>
</g>
<!-- Node44&#45;&gt;Node25 -->
<g id="edge226" class="edge"><title>Node44&#45;&gt;Node25</title>
<path fill="none" stroke="midnightblue" d="M1721.33,-622.575C1555.85,-613.603 979.476,-582.354 814.494,-573.409"/>
<polygon fill="midnightblue" stroke="midnightblue" points="814.405,-569.899 804.23,-572.853 814.026,-576.889 814.405,-569.899"/>
</g>
<!-- Node45 -->
<g id="node160" class="node"><title>Node45</title>
<a xlink:href="_s_l_skybox_8h.html" target="_top" xlink:title="SLSkybox.h">
<polygon fill="white" stroke="black" points="1102.06,-336.5 1102.06,-355.5 1174.06,-355.5 1174.06,-336.5 1102.06,-336.5"/>
<text text-anchor="middle" x="1138.06" y="-343.5" font-family="Arial.ttf" font-size="10.00">SLSkybox.h</text>
</a>
</g>
<!-- Node44&#45;&gt;Node45 -->
<g id="edge230" class="edge"><title>Node44&#45;&gt;Node45</title>
<path fill="none" stroke="midnightblue" d="M1721.32,-623.408C1614.83,-619.231 1348.86,-606.41 1264.06,-580 1208,-562.542 1149.06,-573.71 1149.06,-515 1149.06,-515 1149.06,-515 1149.06,-457 1149.06,-424.788 1144.33,-387.532 1141.07,-365.692"/>
<polygon fill="midnightblue" stroke="midnightblue" points="1144.49,-364.874 1139.5,-355.529 1137.57,-365.947 1144.49,-364.874"/>
</g>
<!-- Node46 -->
<g id="node166" class="node"><title>Node46</title>
<a xlink:href="_s_l_raytracer_8h.html" target="_top" xlink:title="SLRaytracer.h">
<polygon fill="white" stroke="black" points="2080.56,-280.5 2080.56,-299.5 2163.56,-299.5 2163.56,-280.5 2080.56,-280.5"/>
<text text-anchor="middle" x="2122.06" y="-287.5" font-family="Arial.ttf" font-size="10.00">SLRaytracer.h</text>
</a>
</g>
<!-- Node44&#45;&gt;Node46 -->
<g id="edge240" class="edge"><title>Node44&#45;&gt;Node46</title>
<path fill="none" stroke="midnightblue" d="M1810.77,-619.346C1899.65,-606.854 2090.06,-573.29 2090.06,-515 2090.06,-515 2090.06,-515 2090.06,-401 2090.06,-367.329 2104.05,-330.085 2113.53,-308.719"/>
<polygon fill="midnightblue" stroke="midnightblue" points="2116.73,-310.138 2117.74,-299.592 2110.38,-307.207 2116.73,-310.138"/>
</g>
<!-- Node47 -->
<g id="node171" class="node"><title>Node47</title>
<a xlink:href="_s_l_pathtracer_8h.html" target="_top" xlink:title="SLPathtracer.h">
<polygon fill="white" stroke="black" points="2118.06,-336.5 2118.06,-355.5 2206.06,-355.5 2206.06,-336.5 2118.06,-336.5"/>
<text text-anchor="middle" x="2162.06" y="-343.5" font-family="Arial.ttf" font-size="10.00">SLPathtracer.h</text>
</a>
</g>
<!-- Node44&#45;&gt;Node47 -->
<g id="edge248" class="edge"><title>Node44&#45;&gt;Node47</title>
<path fill="none" stroke="midnightblue" d="M1810.73,-624.006C1891.42,-621.417 2057.42,-612.22 2104.06,-580 2131.05,-561.349 2139.06,-547.811 2139.06,-515 2139.06,-515 2139.06,-515 2139.06,-457 2139.06,-424.12 2149.03,-386.86 2155.84,-365.235"/>
<polygon fill="midnightblue" stroke="midnightblue" points="2159.17,-366.303 2158.96,-355.711 2152.52,-364.125 2159.17,-366.303"/>
</g>
<!-- Node48 -->
<g id="node177" class="node"><title>Node48</title>
<a xlink:href="_s_l_g_l_oculus_f_b_8h.html" target="_top" xlink:title="SLGLOculusFB.h">
<polygon fill="white" stroke="black" points="1908.56,-392.5 1908.56,-411.5 2003.56,-411.5 2003.56,-392.5 1908.56,-392.5"/>
<text text-anchor="middle" x="1956.06" y="-399.5" font-family="Arial.ttf" font-size="10.00">SLGLOculusFB.h</text>
</a>
</g>
<!-- Node44&#45;&gt;Node48 -->
<g id="edge258" class="edge"><title>Node44&#45;&gt;Node48</title>
<path fill="none" stroke="midnightblue" d="M1810.67,-619.233C1837.98,-613.53 1871.83,-602.249 1894.06,-580 1938.49,-535.516 1951.17,-457.433 1954.72,-421.748"/>
<polygon fill="midnightblue" stroke="midnightblue" points="1958.21,-422.012 1955.58,-411.749 1951.23,-421.412 1958.21,-422.012"/>
</g>
<!-- Node49 -->
<g id="node183" class="node"><title>Node49</title>
<a xlink:href="_s_l_g_l_im_gui_8h.html" target="_top" xlink:title="SLGLImGui.h">
<polygon fill="white" stroke="black" points="2178.06,-560.5 2178.06,-579.5 2256.06,-579.5 2256.06,-560.5 2178.06,-560.5"/>
<text text-anchor="middle" x="2217.06" y="-567.5" font-family="Arial.ttf" font-size="10.00">SLGLImGui.h</text>
</a>
</g>
<!-- Node44&#45;&gt;Node49 -->
<g id="edge268" class="edge"><title>Node44&#45;&gt;Node49</title>
<path fill="none" stroke="midnightblue" d="M1810.79,-620.15C1882.9,-612.254 2029.28,-595.897 2153.06,-580 2157.82,-579.389 2162.77,-578.731 2167.72,-578.059"/>
<polygon fill="midnightblue" stroke="midnightblue" points="2168.39,-581.5 2177.82,-576.67 2167.43,-574.566 2168.39,-581.5"/>
</g>
<!-- Node45&#45;&gt;Node2 -->
<g id="edge232" class="edge"><title>Node45&#45;&gt;Node2</title>
<path fill="none" stroke="midnightblue" d="M1174.27,-342.71C1231.91,-338.386 1347.65,-326.913 1442.06,-300 1584.11,-259.507 1608.19,-218.328 1747.06,-168 1800.21,-148.737 1835.21,-177.28 1869.06,-132 1901.87,-88.1031 1846.96,-74.6626 1800.06,-56 1698.25,-15.4927 1358.05,-11.2121 1243.83,-10.9397"/>
<polygon fill="midnightblue" stroke="midnightblue" points="1243.81,-7.43976 1233.8,-10.9249 1243.8,-14.4398 1243.81,-7.43976"/>
</g>
<!-- Node45&#45;&gt;Node6 -->
<g id="edge234" class="edge"><title>Node45&#45;&gt;Node6</title>
<path fill="none" stroke="midnightblue" d="M1129.13,-336.075C1102.32,-309.267 1022.25,-229.19 987.943,-194.885"/>
<polygon fill="midnightblue" stroke="midnightblue" points="990.172,-192.164 980.626,-187.568 985.222,-197.114 990.172,-192.164"/>
</g>
<!-- Node45&#45;&gt;Node15 -->
<g id="edge236" class="edge"><title>Node45&#45;&gt;Node15</title>
<path fill="none" stroke="midnightblue" d="M1115.24,-336.444C1091.23,-327.438 1053.23,-313.189 1026.19,-303.049"/>
<polygon fill="midnightblue" stroke="midnightblue" points="1027.36,-299.751 1016.77,-299.516 1024.9,-306.305 1027.36,-299.751"/>
</g>
<!-- Node46&#45;&gt;Node2 -->
<g id="edge242" class="edge"><title>Node46&#45;&gt;Node2</title>
<path fill="none" stroke="midnightblue" d="M2122.83,-280.18C2125.39,-244.538 2129.59,-110.469 2054.06,-56 1987.72,-8.16396 1399.24,-9.44612 1243.65,-10.6364"/>
<polygon fill="midnightblue" stroke="midnightblue" points="1243.6,-7.13661 1233.63,-10.7177 1243.65,-14.1364 1243.6,-7.13661"/>
</g>
<!-- Node46&#45;&gt;Node21 -->
<g id="edge246" class="edge"><title>Node46&#45;&gt;Node21</title>
<path fill="none" stroke="midnightblue" d="M2080.43,-287.175C1961.94,-281.868 1612.64,-265.445 1323.06,-244 1311.14,-243.118 1298.43,-242.046 1286.24,-240.954"/>
<polygon fill="midnightblue" stroke="midnightblue" points="1286.42,-237.457 1276.15,-240.036 1285.79,-244.428 1286.42,-237.457"/>
</g>
<!-- Node46&#45;&gt;Node27 -->
<g id="edge244" class="edge"><title>Node46&#45;&gt;Node27</title>
<path fill="none" stroke="midnightblue" d="M2113.5,-280.368C2095.2,-261.894 2051.99,-218.293 2028.66,-194.744"/>
<polygon fill="midnightblue" stroke="midnightblue" points="2031.1,-192.231 2021.57,-187.591 2026.12,-197.158 2031.1,-192.231"/>
</g>
<!-- Node47&#45;&gt;Node2 -->
<g id="edge250" class="edge"><title>Node47&#45;&gt;Node2</title>
<path fill="none" stroke="midnightblue" d="M2177.25,-336.268C2203.38,-319.983 2254.06,-282.303 2254.06,-235 2254.06,-235 2254.06,-235 2254.06,-121 2254.06,-69.1046 2206.34,-72.267 2157.06,-56 2069.42,-27.0706 1410.84,-14.3676 1244.25,-11.5976"/>
<polygon fill="midnightblue" stroke="midnightblue" points="1244.06,-8.09408 1234,-11.4295 1243.94,-15.0931 1244.06,-8.09408"/>
</g>
<!-- Node47&#45;&gt;Node46 -->
<g id="edge252" class="edge"><title>Node47&#45;&gt;Node46</title>
<path fill="none" stroke="midnightblue" d="M2155.45,-336.083C2149.8,-328.455 2141.51,-317.264 2134.61,-307.941"/>
<polygon fill="midnightblue" stroke="midnightblue" points="2137.31,-305.703 2128.54,-299.751 2131.68,-309.87 2137.31,-305.703"/>
</g>
<!-- Node48&#45;&gt;Node2 -->
<g id="edge260" class="edge"><title>Node48&#45;&gt;Node2</title>
<path fill="none" stroke="midnightblue" d="M1962.5,-392.271C1982.64,-364.351 2044.33,-274.017 2065.06,-188 2079.37,-128.6 2003.65,-57.603 2001.06,-56 1936.27,-15.9098 1393.49,-11.4959 1244.03,-11.0431"/>
<polygon fill="midnightblue" stroke="midnightblue" points="1243.97,-7.543 1233.96,-11.0169 1243.95,-14.543 1243.97,-7.543"/>
</g>
<!-- Node48&#45;&gt;Node19 -->
<g id="edge262" class="edge"><title>Node48&#45;&gt;Node19</title>
<path fill="none" stroke="midnightblue" d="M1956.31,-392.465C1956.92,-360.958 1956.14,-248.829 1918.06,-168 1903.96,-138.082 1896.9,-129.844 1869.06,-112 1842.53,-94.998 1809.32,-84.2027 1780.72,-77.4633"/>
<polygon fill="midnightblue" stroke="midnightblue" points="1781.34,-74.0148 1770.81,-75.2451 1779.81,-80.8456 1781.34,-74.0148"/>
</g>
<!-- Node48&#45;&gt;Node39 -->
<g id="edge264" class="edge"><title>Node48&#45;&gt;Node39</title>
<path fill="none" stroke="midnightblue" d="M1908.22,-393.661C1840.99,-383.348 1719.28,-364.675 1651.99,-354.354"/>
<polygon fill="midnightblue" stroke="midnightblue" points="1652.49,-350.89 1642.08,-352.833 1651.43,-357.809 1652.49,-350.89"/>
</g>
<!-- Node49&#45;&gt;Node2 -->
<g id="edge270" class="edge"><title>Node49&#45;&gt;Node2</title>
<path fill="none" stroke="midnightblue" d="M2228.45,-560.398C2249.43,-543.477 2292.06,-503.61 2292.06,-459 2292.06,-459 2292.06,-459 2292.06,-121 2292.06,-72.7333 2250.51,-72.2481 2205.06,-56 2113.38,-23.2272 1415.42,-13.3379 1243.99,-11.3915"/>
<polygon fill="midnightblue" stroke="midnightblue" points="1243.97,-7.89108 1233.93,-11.2795 1243.89,-14.8906 1243.97,-7.89108"/>
</g>
<!-- Node50 -->
<g id="node186" class="node"><title>Node50</title>
<polygon fill="white" stroke="#bfbfbf" points="2191.06,-504.5 2191.06,-523.5 2243.06,-523.5 2243.06,-504.5 2191.06,-504.5"/>
<text text-anchor="middle" x="2217.06" y="-511.5" font-family="Arial.ttf" font-size="10.00">imgui.h</text>
</g>
<!-- Node49&#45;&gt;Node50 -->
<g id="edge272" class="edge"><title>Node49&#45;&gt;Node50</title>
<path fill="none" stroke="midnightblue" d="M2217.06,-560.083C2217.06,-553.006 2217.06,-542.861 2217.06,-533.986"/>
<polygon fill="midnightblue" stroke="midnightblue" points="2220.56,-533.751 2217.06,-523.751 2213.56,-533.751 2220.56,-533.751"/>
</g>
</g>
</svg>
