<?xml version="1.0" encoding="UTF-8" standalone="no"?>
<!DOCTYPE svg PUBLIC "-//W3C//DTD SVG 1.1//EN"
 "http://www.w3.org/Graphics/SVG/1.1/DTD/svg11.dtd">
<!-- Generated by graphviz version 2.40.1 (20161225.0304)
 -->
<!-- Title: SLLight.h Pages: 1 -->
<svg width="3934pt" height="302pt"
 viewBox="0.00 0.00 3933.72 302.00" xmlns="http://www.w3.org/2000/svg" xmlns:xlink="http://www.w3.org/1999/xlink">
<g id="graph0" class="graph" transform="scale(1 1) rotate(0) translate(4 298)">
<title>SLLight.h</title>
<polygon fill="#ffffff" stroke="transparent" points="-4,4 -4,-298 3929.7214,-298 3929.7214,4 -4,4"/>
<!-- Node1 -->
<g id="node1" class="node">
<title>Node1</title>
<g id="a_node1"><a xlink:title=" ">
<polygon fill="#bfbfbf" stroke="#000000" points="330.3374,-275.5 330.3374,-293.5 388.5933,-293.5 388.5933,-275.5 330.3374,-275.5"/>
<text text-anchor="middle" x="359.4653" y="-281.5" font-family="Arial.ttf" font-size="10.00" fill="#000000">SLLight.h</text>
</a>
</g>
</g>
<!-- Node2 -->
<g id="node2" class="node">
<title>Node2</title>
<g id="a_node2"><a xlink:href="_s_l_light_8cpp.html" target="_top" xlink:title=" ">
<polygon fill="#ffffff" stroke="#000000" points="163.0566,-220.5 163.0566,-238.5 231.874,-238.5 231.874,-220.5 163.0566,-220.5"/>
<text text-anchor="middle" x="197.4653" y="-226.5" font-family="Arial.ttf" font-size="10.00" fill="#000000">SLLight.cpp</text>
</a>
</g>
</g>
<!-- Node1&#45;&gt;Node2 -->
<g id="edge1" class="edge">
<title>Node1&#45;&gt;Node2</title>
<path fill="none" stroke="#191970" d="M323.0077,-272.1224C292.9264,-261.9096 250.9502,-247.6584 223.9868,-238.5042"/>
<polygon fill="#191970" stroke="#191970" points="322.12,-275.5172 332.7143,-275.4179 324.3704,-268.8888 322.12,-275.5172"/>
</g>
<!-- Node3 -->
<g id="node3" class="node">
<title>Node3</title>
<g id="a_node3"><a xlink:href="_s_l_scene_view_8cpp.html" target="_top" xlink:title=" ">
<polygon fill="#ffffff" stroke="#000000" points="428.2456,-55.5 428.2456,-73.5 524.6851,-73.5 524.6851,-55.5 428.2456,-55.5"/>
<text text-anchor="middle" x="476.4653" y="-61.5" font-family="Arial.ttf" font-size="10.00" fill="#000000">SLSceneView.cpp</text>
</a>
</g>
</g>
<!-- Node1&#45;&gt;Node3 -->
<g id="edge2" class="edge">
<title>Node1&#45;&gt;Node3</title>
<path fill="none" stroke="#191970" d="M346.6225,-267.1374C323.3908,-233.4383 280.0252,-158.2475 316.4653,-110 323.7755,-100.3212 390.3973,-83.7506 435.336,-73.502"/>
<polygon fill="#191970" stroke="#191970" points="343.9108,-269.3635 352.5581,-275.4851 349.6157,-265.3071 343.9108,-269.3635"/>
</g>
<!-- Node4 -->
<g id="node4" class="node">
<title>Node4</title>
<g id="a_node4"><a xlink:href="_s_l_light_direct_8h.html" target="_top" xlink:title=" ">
<polygon fill="#ffffff" stroke="#000000" points="379.2808,-220.5 379.2808,-238.5 463.6499,-238.5 463.6499,-220.5 379.2808,-220.5"/>
<text text-anchor="middle" x="421.4653" y="-226.5" font-family="Arial.ttf" font-size="10.00" fill="#000000">SLLightDirect.h</text>
</a>
</g>
</g>
<!-- Node1&#45;&gt;Node4 -->
<g id="edge3" class="edge">
<title>Node1&#45;&gt;Node4</title>
<path fill="none" stroke="#191970" d="M377.4068,-268.5841C388.3035,-258.9177 401.8342,-246.9147 411.0049,-238.7795"/>
<polygon fill="#191970" stroke="#191970" points="374.8615,-266.1634 369.7034,-275.4179 379.5068,-271.4 374.8615,-266.1634"/>
</g>
<!-- Node43 -->
<g id="node39" class="node">
<title>Node43</title>
<g id="a_node39"><a xlink:href="_s_l_light_rect_8h.html" target="_top" xlink:title=" ">
<polygon fill="#ffffff" stroke="#000000" points="573.0566,-110.5 573.0566,-128.5 651.874,-128.5 651.874,-110.5 573.0566,-110.5"/>
<text text-anchor="middle" x="612.4653" y="-116.5" font-family="Arial.ttf" font-size="10.00" fill="#000000">SLLightRect.h</text>
</a>
</g>
</g>
<!-- Node1&#45;&gt;Node43 -->
<g id="edge44" class="edge">
<title>Node1&#45;&gt;Node43</title>
<path fill="none" stroke="#191970" d="M398.5738,-272.2791C421.0398,-264.4103 449.3031,-253.0319 472.4653,-239 527.6753,-205.5534 582.9238,-150.4867 603.7752,-128.7436"/>
<polygon fill="#191970" stroke="#191970" points="397.3509,-268.9981 389.0162,-275.539 399.6107,-275.6233 397.3509,-268.9981"/>
</g>
<!-- Node44 -->
<g id="node40" class="node">
<title>Node44</title>
<g id="a_node40"><a xlink:href="_s_l_light_spot_8h.html" target="_top" xlink:title=" ">
<polygon fill="#ffffff" stroke="#000000" points="191.0518,-110.5 191.0518,-128.5 269.8789,-128.5 269.8789,-110.5 191.0518,-110.5"/>
<text text-anchor="middle" x="230.4653" y="-116.5" font-family="Arial.ttf" font-size="10.00" fill="#000000">SLLightSpot.h</text>
</a>
</g>
</g>
<!-- Node1&#45;&gt;Node44 -->
<g id="edge52" class="edge">
<title>Node1&#45;&gt;Node44</title>
<path fill="none" stroke="#191970" d="M327.2404,-270.8016C312.3762,-263.1921 295.4198,-252.5098 283.4653,-239 253.0847,-204.6668 237.6497,-150.1126 232.4898,-128.6252"/>
<polygon fill="#191970" stroke="#191970" points="326.1077,-274.1421 336.6327,-275.3572 329.1627,-267.8439 326.1077,-274.1421"/>
</g>
<!-- Node45 -->
<g id="node41" class="node">
<title>Node45</title>
<g id="a_node41"><a xlink:href="_s_l_scene_8h.html" target="_top" xlink:title=" ">
<polygon fill="#ffffff" stroke="#000000" points="2391.0024,-165.5 2391.0024,-183.5 2455.9282,-183.5 2455.9282,-165.5 2391.0024,-165.5"/>
<text text-anchor="middle" x="2423.4653" y="-171.5" font-family="Arial.ttf" font-size="10.00" fill="#000000">SLScene.h</text>
</a>
</g>
</g>
<!-- Node1&#45;&gt;Node45 -->
<g id="edge57" class="edge">
<title>Node1&#45;&gt;Node45</title>
<path fill="none" stroke="#191970" d="M398.8292,-282.4021C660.9677,-268.4316 2150.9107,-189.0257 2390.8498,-176.2382"/>
<polygon fill="#191970" stroke="#191970" points="398.4422,-278.9177 388.6427,-282.945 398.8148,-285.9078 398.4422,-278.9177"/>
</g>
<!-- Node5 -->
<g id="node5" class="node">
<title>Node5</title>
<g id="a_node5"><a xlink:href="_s_l_light_direct_8cpp.html" target="_top" xlink:title=" ">
<polygon fill="#ffffff" stroke="#000000" points="3818,-55.5 3818,-73.5 3912.9307,-73.5 3912.9307,-55.5 3818,-55.5"/>
<text text-anchor="middle" x="3865.4653" y="-61.5" font-family="Arial.ttf" font-size="10.00" fill="#000000">SLLightDirect.cpp</text>
</a>
</g>
</g>
<!-- Node4&#45;&gt;Node5 -->
<g id="edge4" class="edge">
<title>Node4&#45;&gt;Node5</title>
<path fill="none" stroke="#191970" d="M473.9678,-228.9675C828.9354,-225.1903 2882.3383,-200.4984 3503.4653,-129 3620.7891,-115.4948 3757.5914,-87.8249 3824.4494,-73.5155"/>
<polygon fill="#191970" stroke="#191970" points="473.6872,-225.4702 463.7247,-229.0757 473.7612,-232.4698 473.6872,-225.4702"/>
</g>
<!-- Node6 -->
<g id="node6" class="node">
<title>Node6</title>
<g id="a_node6"><a xlink:href="_s_l_node_8cpp.html" target="_top" xlink:title=" ">
<polygon fill="#ffffff" stroke="#000000" points="231.9458,-55.5 231.9458,-73.5 302.9849,-73.5 302.9849,-55.5 231.9458,-55.5"/>
<text text-anchor="middle" x="267.4653" y="-61.5" font-family="Arial.ttf" font-size="10.00" fill="#000000">SLNode.cpp</text>
</a>
</g>
</g>
<!-- Node4&#45;&gt;Node6 -->
<g id="edge5" class="edge">
<title>Node4&#45;&gt;Node6</title>
<path fill="none" stroke="#191970" d="M450.9858,-215.2918C463.0664,-207.8023 475.7619,-197.3629 482.4653,-184 497.0614,-154.9035 452.4349,-111.478 450.4653,-110 444.5082,-105.5296 354.5273,-84.4184 303.0048,-72.587"/>
<polygon fill="#191970" stroke="#191970" points="448.9202,-212.4411 441.9769,-220.4437 452.3952,-218.5177 448.9202,-212.4411"/>
</g>
<!-- Node7 -->
<g id="node7" class="node">
<title>Node7</title>
<g id="a_node7"><a xlink:href="_s_l_scene_8cpp.html" target="_top" xlink:title=" ">
<polygon fill="#ffffff" stroke="#000000" points="2608.7217,-55.5 2608.7217,-73.5 2684.209,-73.5 2684.209,-55.5 2608.7217,-55.5"/>
<text text-anchor="middle" x="2646.4653" y="-61.5" font-family="Arial.ttf" font-size="10.00" fill="#000000">SLScene.cpp</text>
</a>
</g>
</g>
<!-- Node4&#45;&gt;Node7 -->
<g id="edge6" class="edge">
<title>Node4&#45;&gt;Node7</title>
<path fill="none" stroke="#191970" d="M474.0265,-227.5512C683.7221,-219.5363 1480.7805,-186.7834 2134.4653,-129 2341.7643,-110.6755 2393.9695,-106.8649 2599.4653,-74 2602.4246,-73.5267 2605.4811,-72.9987 2608.5488,-72.4407"/>
<polygon fill="#191970" stroke="#191970" points="473.7717,-224.0583 463.912,-227.936 474.0379,-231.0532 473.7717,-224.0583"/>
</g>
<!-- Node8 -->
<g id="node8" class="node">
<title>Node8</title>
<g id="a_node8"><a xlink:href="_s_l_device_location_8h.html" target="_top" xlink:title=" ">
<polygon fill="#ffffff" stroke="#000000" points="368.9927,-165.5 368.9927,-183.5 473.938,-183.5 473.938,-165.5 368.9927,-165.5"/>
<text text-anchor="middle" x="421.4653" y="-171.5" font-family="Arial.ttf" font-size="10.00" fill="#000000">SLDeviceLocation.h</text>
</a>
</g>
</g>
<!-- Node4&#45;&gt;Node8 -->
<g id="edge7" class="edge">
<title>Node4&#45;&gt;Node8</title>
<path fill="none" stroke="#191970" d="M421.4653,-210.383C421.4653,-201.3738 421.4653,-191.0373 421.4653,-183.7795"/>
<polygon fill="#191970" stroke="#191970" points="417.9654,-210.4178 421.4653,-220.4179 424.9654,-210.4179 417.9654,-210.4178"/>
</g>
<!-- Node38 -->
<g id="node36" class="node">
<title>Node38</title>
<g id="a_node36"><a xlink:href="_app_demo_gui_8cpp.html" target="_top" xlink:title=" ">
<polygon fill="#ffffff" stroke="#000000" points="0,-55.5 0,-73.5 94.9307,-73.5 94.9307,-55.5 0,-55.5"/>
<text text-anchor="middle" x="47.4653" y="-61.5" font-family="Arial.ttf" font-size="10.00" fill="#000000">AppDemoGui.cpp</text>
</a>
</g>
</g>
<!-- Node4&#45;&gt;Node38 -->
<g id="edge42" class="edge">
<title>Node4&#45;&gt;Node38</title>
<path fill="none" stroke="#191970" d="M369.3626,-221.7617C328.9121,-214.7398 271.9153,-202.6023 224.4653,-184 178.6849,-166.0522 169.1499,-156.6177 128.4653,-129 101.8423,-110.9276 72.8485,-86.5938 57.8154,-73.5906"/>
<polygon fill="#191970" stroke="#191970" points="368.8307,-225.2214 379.2743,-223.4376 369.9977,-218.3193 368.8307,-225.2214"/>
</g>
<!-- Node39 -->
<g id="node37" class="node">
<title>Node39</title>
<g id="a_node37"><a xlink:href="_app_demo_load_8cpp.html" target="_top" xlink:title=" ">
<polygon fill="#ffffff" stroke="#000000" points="112.6577,-55.5 112.6577,-73.5 214.2729,-73.5 214.2729,-55.5 112.6577,-55.5"/>
<text text-anchor="middle" x="163.4653" y="-61.5" font-family="Arial.ttf" font-size="10.00" fill="#000000">AppDemoLoad.cpp</text>
</a>
</g>
</g>
<!-- Node4&#45;&gt;Node39 -->
<g id="edge43" class="edge">
<title>Node4&#45;&gt;Node39</title>
<path fill="none" stroke="#191970" d="M369.1157,-220.9996C314.8873,-209.4799 231.3706,-183.6911 182.4653,-129 168.3032,-113.1624 164.6747,-87.2435 163.7602,-73.5825"/>
<polygon fill="#191970" stroke="#191970" points="368.7218,-224.491 379.2186,-223.053 370.1161,-217.6312 368.7218,-224.491"/>
</g>
<!-- Node9 -->
<g id="node9" class="node">
<title>Node9</title>
<g id="a_node9"><a xlink:href="_s_l_device_location_8cpp.html" target="_top" xlink:title=" ">
<polygon fill="#ffffff" stroke="#000000" points="325.7119,-110.5 325.7119,-128.5 441.2188,-128.5 441.2188,-110.5 325.7119,-110.5"/>
<text text-anchor="middle" x="383.4653" y="-116.5" font-family="Arial.ttf" font-size="10.00" fill="#000000">SLDeviceLocation.cpp</text>
</a>
</g>
</g>
<!-- Node8&#45;&gt;Node9 -->
<g id="edge8" class="edge">
<title>Node8&#45;&gt;Node9</title>
<path fill="none" stroke="#191970" d="M409.4756,-157.1465C402.9837,-147.7503 395.2218,-136.5159 389.8766,-128.7795"/>
<polygon fill="#191970" stroke="#191970" points="406.6265,-159.1801 415.1904,-165.4179 412.3856,-155.201 406.6265,-159.1801"/>
</g>
<!-- Node10 -->
<g id="node10" class="node">
<title>Node10</title>
<g id="a_node10"><a xlink:href="_s_l_application_8h.html" target="_top" xlink:title=" ">
<polygon fill="#ffffff" stroke="#ff0000" points="2039.7192,-110.5 2039.7192,-128.5 2125.2114,-128.5 2125.2114,-110.5 2039.7192,-110.5"/>
<text text-anchor="middle" x="2082.4653" y="-116.5" font-family="Arial.ttf" font-size="10.00" fill="#000000">SLApplication.h</text>
</a>
</g>
</g>
<!-- Node8&#45;&gt;Node10 -->
<g id="edge9" class="edge">
<title>Node8&#45;&gt;Node10</title>
<path fill="none" stroke="#191970" d="M484.4121,-172.4157C754.6208,-163.4684 1812.7823,-128.4299 2039.5374,-120.9215"/>
<polygon fill="#191970" stroke="#191970" points="484.2615,-168.9186 474.3829,-172.7478 484.4933,-175.9148 484.2615,-168.9186"/>
</g>
<!-- Node10&#45;&gt;Node3 -->
<g id="edge33" class="edge">
<title>Node10&#45;&gt;Node3</title>
<path fill="none" stroke="#191970" d="M2029.3254,-118.909C1792.6606,-116.1276 833.0952,-103.2333 533.4653,-74 530.6696,-73.7272 527.8035,-73.4005 524.9159,-73.0348"/>
<polygon fill="#191970" stroke="#191970" points="2029.3564,-122.4095 2039.3965,-119.0263 2029.438,-115.4099 2029.3564,-122.4095"/>
</g>
<!-- Node10&#45;&gt;Node5 -->
<g id="edge24" class="edge">
<title>Node10&#45;&gt;Node5</title>
<path fill="none" stroke="#191970" d="M2135.3745,-118.2089C2420.9144,-111.2286 3766.7782,-78.1619 3809.4653,-74 3812.2134,-73.7321 3815.0303,-73.4091 3817.868,-73.0463"/>
<polygon fill="#191970" stroke="#191970" points="2135.1902,-114.7123 2125.2787,-118.4557 2135.3613,-121.7102 2135.1902,-114.7123"/>
</g>
<!-- Node10&#45;&gt;Node6 -->
<g id="edge29" class="edge">
<title>Node10&#45;&gt;Node6</title>
<path fill="none" stroke="#191970" d="M2029.1359,-118.7244C1752.3266,-114.6192 485.3981,-94.8255 311.4653,-74 308.8271,-73.6841 306.1135,-73.2846 303.3912,-72.8292"/>
<polygon fill="#191970" stroke="#191970" points="2029.2677,-122.2267 2039.3184,-118.875 2029.3713,-115.2274 2029.2677,-122.2267"/>
</g>
<!-- Node10&#45;&gt;Node7 -->
<g id="edge32" class="edge">
<title>Node10&#45;&gt;Node7</title>
<path fill="none" stroke="#191970" d="M2135.5545,-111.9856C2141.2575,-111.2708 2146.9784,-110.5928 2152.4653,-110 2350.622,-88.5903 2402.1027,-101.793 2599.4653,-74 2602.433,-73.5821 2605.4954,-73.0939 2608.5673,-72.5633"/>
<polygon fill="#191970" stroke="#191970" points="2134.8321,-108.5498 2125.3627,-113.3017 2135.7286,-115.4921 2134.8321,-108.5498"/>
</g>
<!-- Node12 -->
<g id="node11" class="node">
<title>Node12</title>
<g id="a_node11"><a xlink:href="_s_l_g_l_im_gui_8cpp.html" target="_top" xlink:title=" ">
<polygon fill="#ffffff" stroke="#000000" points="2046.894,-55.5 2046.894,-73.5 2134.0366,-73.5 2134.0366,-55.5 2046.894,-55.5"/>
<text text-anchor="middle" x="2090.4653" y="-61.5" font-family="Arial.ttf" font-size="10.00" fill="#000000">SLGLImGui.cpp</text>
</a>
</g>
</g>
<!-- Node10&#45;&gt;Node12 -->
<g id="edge10" class="edge">
<title>Node10&#45;&gt;Node12</title>
<path fill="none" stroke="#191970" d="M2085.246,-100.383C2086.5564,-91.3738 2088.0599,-81.0373 2089.1156,-73.7795"/>
<polygon fill="#191970" stroke="#191970" points="2081.7623,-100.0182 2083.7864,-110.4179 2088.6894,-101.0258 2081.7623,-100.0182"/>
</g>
<!-- Node13 -->
<g id="node12" class="node">
<title>Node13</title>
<g id="a_node12"><a xlink:href="_s_l_g_l_oculus_f_b_8cpp.html" target="_top" xlink:title=" ">
<polygon fill="#ffffff" stroke="#000000" points="2846.2783,-55.5 2846.2783,-73.5 2950.6523,-73.5 2950.6523,-55.5 2846.2783,-55.5"/>
<text text-anchor="middle" x="2898.4653" y="-61.5" font-family="Arial.ttf" font-size="10.00" fill="#000000">SLGLOculusFB.cpp</text>
</a>
</g>
</g>
<!-- Node10&#45;&gt;Node13 -->
<g id="edge11" class="edge">
<title>Node10&#45;&gt;Node13</title>
<path fill="none" stroke="#191970" d="M2135.8943,-118.0117C2259.6012,-114.1877 2575.1804,-102.2635 2837.4653,-74 2840.3425,-73.69 2843.2913,-73.3396 2846.2647,-72.961"/>
<polygon fill="#191970" stroke="#191970" points="2135.4617,-114.5231 2125.5727,-118.3256 2135.6745,-121.5199 2135.4617,-114.5231"/>
</g>
<!-- Node14 -->
<g id="node13" class="node">
<title>Node14</title>
<g id="a_node13"><a xlink:href="_s_l_g_l_program_8cpp.html" target="_top" xlink:title=" ">
<polygon fill="#ffffff" stroke="#000000" points="2969.0566,-55.5 2969.0566,-73.5 3067.874,-73.5 3067.874,-55.5 2969.0566,-55.5"/>
<text text-anchor="middle" x="3018.4653" y="-61.5" font-family="Arial.ttf" font-size="10.00" fill="#000000">SLGLProgram.cpp</text>
</a>
</g>
</g>
<!-- Node10&#45;&gt;Node14 -->
<g id="edge12" class="edge">
<title>Node10&#45;&gt;Node14</title>
<path fill="none" stroke="#191970" d="M2135.6998,-118.7352C2272.6851,-116.3344 2648.4291,-107.0124 2959.4653,-74 2962.5604,-73.6715 2965.7404,-73.2895 2968.9428,-72.8711"/>
<polygon fill="#191970" stroke="#191970" points="2135.424,-115.2392 2125.4851,-118.909 2135.5432,-122.2382 2135.424,-115.2392"/>
</g>
<!-- Node15 -->
<g id="node14" class="node">
<title>Node15</title>
<g id="a_node14"><a xlink:href="_s_l_g_l_texture_8cpp.html" target="_top" xlink:title=" ">
<polygon fill="#ffffff" stroke="#000000" points="3086.2012,-55.5 3086.2012,-73.5 3178.7295,-73.5 3178.7295,-55.5 3086.2012,-55.5"/>
<text text-anchor="middle" x="3132.4653" y="-61.5" font-family="Arial.ttf" font-size="10.00" fill="#000000">SLGLTexture.cpp</text>
</a>
</g>
</g>
<!-- Node10&#45;&gt;Node15 -->
<g id="edge13" class="edge">
<title>Node10&#45;&gt;Node15</title>
<path fill="none" stroke="#191970" d="M2135.4358,-117.9319C2313.7611,-112.5185 2891.4255,-93.8551 3076.4653,-74 3079.6029,-73.6633 3082.831,-73.2624 3086.0781,-72.8185"/>
<polygon fill="#191970" stroke="#191970" points="2135.1502,-114.4388 2125.2606,-118.2395 2135.3618,-121.4356 2135.1502,-114.4388"/>
</g>
<!-- Node16 -->
<g id="node15" class="node">
<title>Node16</title>
<g id="a_node15"><a xlink:href="_s_l_g_l_vertex_array_8cpp.html" target="_top" xlink:title=" ">
<polygon fill="#ffffff" stroke="#000000" points="3196.8433,-55.5 3196.8433,-73.5 3308.0874,-73.5 3308.0874,-55.5 3196.8433,-55.5"/>
<text text-anchor="middle" x="3252.4653" y="-61.5" font-family="Arial.ttf" font-size="10.00" fill="#000000">SLGLVertexArray.cpp</text>
</a>
</g>
</g>
<!-- Node10&#45;&gt;Node16 -->
<g id="edge14" class="edge">
<title>Node10&#45;&gt;Node16</title>
<path fill="none" stroke="#191970" d="M2135.4991,-118.0489C2326.5785,-112.7061 2979.4516,-93.4306 3187.4653,-74 3190.5312,-73.7136 3193.6735,-73.382 3196.8418,-73.0178"/>
<polygon fill="#191970" stroke="#191970" points="2135.3254,-114.5522 2125.4268,-118.3295 2135.5205,-121.5495 2135.3254,-114.5522"/>
</g>
<!-- Node17 -->
<g id="node16" class="node">
<title>Node17</title>
<g id="a_node16"><a xlink:href="_s_l_g_l_vertex_array_ext_8cpp.html" target="_top" xlink:title=" ">
<polygon fill="#ffffff" stroke="#000000" points="3326.2505,-55.5 3326.2505,-73.5 3452.6802,-73.5 3452.6802,-55.5 3326.2505,-55.5"/>
<text text-anchor="middle" x="3389.4653" y="-61.5" font-family="Arial.ttf" font-size="10.00" fill="#000000">SLGLVertexArrayExt.cpp</text>
</a>
</g>
</g>
<!-- Node10&#45;&gt;Node17 -->
<g id="edge15" class="edge">
<title>Node10&#45;&gt;Node17</title>
<path fill="none" stroke="#191970" d="M2135.4615,-118.215C2340.5709,-113.1379 3082.4972,-93.7853 3317.4653,-74 3320.2294,-73.7673 3323.0501,-73.5044 3325.8973,-73.2182"/>
<polygon fill="#191970" stroke="#191970" points="2135.1657,-114.7211 2125.2551,-118.4668 2135.3384,-121.719 2135.1657,-114.7211"/>
</g>
<!-- Node18 -->
<g id="node17" class="node">
<title>Node18</title>
<g id="a_node17"><a xlink:href="_s_l_application_8cpp.html" target="_top" xlink:title=" ">
<polygon fill="#ffffff" stroke="#000000" points="3470.4385,-55.5 3470.4385,-73.5 3566.4922,-73.5 3566.4922,-55.5 3470.4385,-55.5"/>
<text text-anchor="middle" x="3518.4653" y="-61.5" font-family="Arial.ttf" font-size="10.00" fill="#000000">SLApplication.cpp</text>
</a>
</g>
</g>
<!-- Node10&#45;&gt;Node18 -->
<g id="edge16" class="edge">
<title>Node10&#45;&gt;Node18</title>
<path fill="none" stroke="#191970" d="M2135.3217,-118.1704C2371.9191,-112.1626 3327.9542,-87.2698 3461.4653,-74 3464.3604,-73.7123 3467.3311,-73.3678 3470.323,-72.9831"/>
<polygon fill="#191970" stroke="#191970" points="2135.1599,-114.6733 2125.2518,-118.4257 2135.3374,-121.671 2135.1599,-114.6733"/>
</g>
<!-- Node19 -->
<g id="node18" class="node">
<title>Node19</title>
<g id="a_node18"><a xlink:href="_s_l_assimp_importer_8cpp.html" target="_top" xlink:title=" ">
<polygon fill="#ffffff" stroke="#000000" points="3584.165,-55.5 3584.165,-73.5 3700.7656,-73.5 3700.7656,-55.5 3584.165,-55.5"/>
<text text-anchor="middle" x="3642.4653" y="-61.5" font-family="Arial.ttf" font-size="10.00" fill="#000000">SLAssimpImporter.cpp</text>
</a>
</g>
</g>
<!-- Node10&#45;&gt;Node19 -->
<g id="edge17" class="edge">
<title>Node10&#45;&gt;Node19</title>
<path fill="none" stroke="#191970" d="M2135.5686,-118.2302C2384.5074,-112.2305 3429.9609,-86.4944 3575.4653,-74 3578.2746,-73.7588 3581.146,-73.4793 3584.0431,-73.1708"/>
<polygon fill="#191970" stroke="#191970" points="2135.2525,-114.7367 2125.3397,-118.4764 2135.421,-121.7347 2135.2525,-114.7367"/>
</g>
<!-- Node20 -->
<g id="node19" class="node">
<title>Node20</title>
<g id="a_node19"><a xlink:href="_s_l_interface_8cpp.html" target="_top" xlink:title=" ">
<polygon fill="#ffffff" stroke="#000000" points="2152.4434,-55.5 2152.4434,-73.5 2238.4873,-73.5 2238.4873,-55.5 2152.4434,-55.5"/>
<text text-anchor="middle" x="2195.4653" y="-61.5" font-family="Arial.ttf" font-size="10.00" fill="#000000">SLInterface.cpp</text>
</a>
</g>
</g>
<!-- Node10&#45;&gt;Node20 -->
<g id="edge18" class="edge">
<title>Node10&#45;&gt;Node20</title>
<path fill="none" stroke="#191970" d="M2110.3664,-105.9198C2131.0558,-95.8498 2158.6936,-82.3977 2176.778,-73.5956"/>
<polygon fill="#191970" stroke="#191970" points="2108.5847,-102.8944 2101.125,-110.4179 2111.6483,-109.1884 2108.5847,-102.8944"/>
</g>
<!-- Node21 -->
<g id="node20" class="node">
<title>Node21</title>
<g id="a_node20"><a xlink:href="_s_l_tex_font_8cpp.html" target="_top" xlink:title=" ">
<polygon fill="#ffffff" stroke="#000000" points="3718.4819,-55.5 3718.4819,-73.5 3800.4487,-73.5 3800.4487,-55.5 3718.4819,-55.5"/>
<text text-anchor="middle" x="3759.4653" y="-61.5" font-family="Arial.ttf" font-size="10.00" fill="#000000">SLTexFont.cpp</text>
</a>
</g>
</g>
<!-- Node10&#45;&gt;Node21 -->
<g id="edge19" class="edge">
<title>Node10&#45;&gt;Node21</title>
<path fill="none" stroke="#191970" d="M2135.6388,-118.2522C2407.1912,-111.8492 3629.5885,-82.6491 3709.4653,-74 3712.3642,-73.6861 3715.3466,-73.2953 3718.3427,-72.8526"/>
<polygon fill="#191970" stroke="#191970" points="2135.1841,-114.7618 2125.2693,-118.4965 2135.349,-121.7599 2135.1841,-114.7618"/>
</g>
<!-- Node22 -->
<g id="node21" class="node">
<title>Node22</title>
<g id="a_node21"><a xlink:href="_s_l_animation_8cpp.html" target="_top" xlink:title=" ">
<polygon fill="#ffffff" stroke="#000000" points="1596.665,-55.5 1596.665,-73.5 1688.2656,-73.5 1688.2656,-55.5 1596.665,-55.5"/>
<text text-anchor="middle" x="1642.4653" y="-61.5" font-family="Arial.ttf" font-size="10.00" fill="#000000">SLAnimation.cpp</text>
</a>
</g>
</g>
<!-- Node10&#45;&gt;Node22 -->
<g id="edge20" class="edge">
<title>Node10&#45;&gt;Node22</title>
<path fill="none" stroke="#191970" d="M2029.5948,-114.1551C1955.2851,-106.4373 1815.7865,-91.1978 1697.4653,-74 1694.4927,-73.5679 1691.4334,-73.1012 1688.3522,-72.6145"/>
<polygon fill="#191970" stroke="#191970" points="2029.3316,-117.6464 2039.6386,-115.1936 2030.0517,-110.6836 2029.3316,-117.6464"/>
</g>
<!-- Node23 -->
<g id="node22" class="node">
<title>Node23</title>
<g id="a_node22"><a xlink:href="_s_l_background_8cpp.html" target="_top" xlink:title=" ">
<polygon fill="#ffffff" stroke="#000000" points="1706.2144,-55.5 1706.2144,-73.5 1806.7163,-73.5 1806.7163,-55.5 1706.2144,-55.5"/>
<text text-anchor="middle" x="1756.4653" y="-61.5" font-family="Arial.ttf" font-size="10.00" fill="#000000">SLBackground.cpp</text>
</a>
</g>
</g>
<!-- Node10&#45;&gt;Node23 -->
<g id="edge21" class="edge">
<title>Node10&#45;&gt;Node23</title>
<path fill="none" stroke="#191970" d="M2029.6126,-110.5831C1968.0686,-100.1999 1867.156,-83.1748 1806.7382,-72.9816"/>
<polygon fill="#191970" stroke="#191970" points="2029.0684,-114.0407 2039.5113,-112.2532 2030.2329,-107.1382 2029.0684,-114.0407"/>
</g>
<!-- Node24 -->
<g id="node23" class="node">
<title>Node24</title>
<g id="a_node23"><a xlink:href="_s_l_camera_8cpp.html" target="_top" xlink:title=" ">
<polygon fill="#ffffff" stroke="#000000" points="1305.1157,-55.5 1305.1157,-73.5 1387.8149,-73.5 1387.8149,-55.5 1305.1157,-55.5"/>
<text text-anchor="middle" x="1346.4653" y="-61.5" font-family="Arial.ttf" font-size="10.00" fill="#000000">SLCamera.cpp</text>
</a>
</g>
</g>
<!-- Node10&#45;&gt;Node24 -->
<g id="edge22" class="edge">
<title>Node10&#45;&gt;Node24</title>
<path fill="none" stroke="#191970" d="M2029.0858,-118.0947C1913.5201,-114.5835 1631.6833,-103.489 1397.4653,-74 1394.3378,-73.6062 1391.1121,-73.1426 1387.8736,-72.6354"/>
<polygon fill="#191970" stroke="#191970" points="2029.3169,-121.6031 2039.4165,-118.4017 2029.5249,-114.6062 2029.3169,-121.6031"/>
</g>
<!-- Node26 -->
<g id="node24" class="node">
<title>Node26</title>
<g id="a_node24"><a xlink:href="_s_l_input_manager_8cpp.html" target="_top" xlink:title=" ">
<polygon fill="#ffffff" stroke="#000000" points="2256.3179,-55.5 2256.3179,-73.5 2364.6128,-73.5 2364.6128,-55.5 2256.3179,-55.5"/>
<text text-anchor="middle" x="2310.4653" y="-61.5" font-family="Arial.ttf" font-size="10.00" fill="#000000">SLInputManager.cpp</text>
</a>
</g>
</g>
<!-- Node10&#45;&gt;Node26 -->
<g id="edge23" class="edge">
<title>Node10&#45;&gt;Node26</title>
<path fill="none" stroke="#191970" d="M2129.6946,-108.107C2172.2108,-97.8509 2233.8621,-82.9789 2273.0507,-73.5255"/>
<polygon fill="#191970" stroke="#191970" points="2128.76,-104.732 2119.8596,-110.4795 2130.4015,-111.5368 2128.76,-104.732"/>
</g>
<!-- Node27 -->
<g id="node25" class="node">
<title>Node27</title>
<g id="a_node25"><a xlink:href="_s_l_light_rect_8cpp.html" target="_top" xlink:title=" ">
<polygon fill="#ffffff" stroke="#000000" points="542.7759,-55.5 542.7759,-73.5 632.1548,-73.5 632.1548,-55.5 542.7759,-55.5"/>
<text text-anchor="middle" x="587.4653" y="-61.5" font-family="Arial.ttf" font-size="10.00" fill="#000000">SLLightRect.cpp</text>
</a>
</g>
</g>
<!-- Node10&#45;&gt;Node27 -->
<g id="edge25" class="edge">
<title>Node10&#45;&gt;Node27</title>
<path fill="none" stroke="#191970" d="M2029.4053,-118.8389C1803.2263,-115.8644 918.5649,-102.6018 641.4653,-74 638.4354,-73.6873 635.3191,-73.3043 632.1856,-72.8735"/>
<polygon fill="#191970" stroke="#191970" points="2029.6281,-122.342 2039.6729,-118.9728 2029.7194,-115.3426 2029.6281,-122.342"/>
</g>
<!-- Node28 -->
<g id="node26" class="node">
<title>Node28</title>
<g id="a_node26"><a xlink:href="_s_l_light_spot_8cpp.html" target="_top" xlink:title=" ">
<polygon fill="#ffffff" stroke="#000000" points="320.771,-55.5 320.771,-73.5 410.1597,-73.5 410.1597,-55.5 320.771,-55.5"/>
<text text-anchor="middle" x="365.4653" y="-61.5" font-family="Arial.ttf" font-size="10.00" fill="#000000">SLLightSpot.cpp</text>
</a>
</g>
</g>
<!-- Node10&#45;&gt;Node28 -->
<g id="edge26" class="edge">
<title>Node10&#45;&gt;Node28</title>
<path fill="none" stroke="#191970" d="M2029.4945,-119.0981C1782.5531,-117.0641 742.7697,-106.6831 419.4653,-74 416.4347,-73.6936 413.318,-73.3154 410.1841,-72.8881"/>
<polygon fill="#191970" stroke="#191970" points="2029.612,-122.5991 2039.6402,-119.1807 2029.669,-115.5993 2029.612,-122.5991"/>
</g>
<!-- Node29 -->
<g id="node27" class="node">
<title>Node29</title>
<g id="a_node27"><a xlink:href="_s_l_material_8cpp.html" target="_top" xlink:title=" ">
<polygon fill="#ffffff" stroke="#000000" points="1406.1157,-55.5 1406.1157,-73.5 1488.8149,-73.5 1488.8149,-55.5 1406.1157,-55.5"/>
<text text-anchor="middle" x="1447.4653" y="-61.5" font-family="Arial.ttf" font-size="10.00" fill="#000000">SLMaterial.cpp</text>
</a>
</g>
</g>
<!-- Node10&#45;&gt;Node29 -->
<g id="edge27" class="edge">
<title>Node10&#45;&gt;Node29</title>
<path fill="none" stroke="#191970" d="M2029.2119,-117.324C1926.1665,-112.6791 1692.4635,-100.0276 1497.4653,-74 1494.6627,-73.6259 1491.7795,-73.1969 1488.8796,-72.7326"/>
<polygon fill="#191970" stroke="#191970" points="2029.2141,-120.8275 2039.3595,-117.7745 2029.5246,-113.8343 2029.2141,-120.8275"/>
</g>
<!-- Node30 -->
<g id="node28" class="node">
<title>Node30</title>
<g id="a_node28"><a xlink:href="_s_l_mesh_8cpp.html" target="_top" xlink:title=" ">
<polygon fill="#ffffff" stroke="#000000" points="1506.6724,-55.5 1506.6724,-73.5 1578.2583,-73.5 1578.2583,-55.5 1506.6724,-55.5"/>
<text text-anchor="middle" x="1542.4653" y="-61.5" font-family="Arial.ttf" font-size="10.00" fill="#000000">SLMesh.cpp</text>
</a>
</g>
</g>
<!-- Node10&#45;&gt;Node30 -->
<g id="edge28" class="edge">
<title>Node10&#45;&gt;Node30</title>
<path fill="none" stroke="#191970" d="M2029.5088,-116.6613C1938.675,-111.3398 1747.4834,-98.1613 1587.4653,-74 1584.4652,-73.547 1581.3641,-73.0192 1578.2583,-72.4487"/>
<polygon fill="#191970" stroke="#191970" points="2029.3709,-120.159 2039.5562,-117.2417 2029.7747,-113.1707 2029.3709,-120.159"/>
</g>
<!-- Node31 -->
<g id="node29" class="node">
<title>Node31</title>
<g id="a_node29"><a xlink:href="_s_l_pathtracer_8cpp.html" target="_top" xlink:title=" ">
<polygon fill="#ffffff" stroke="#000000" points="1194.106,-55.5 1194.106,-73.5 1286.8247,-73.5 1286.8247,-55.5 1194.106,-55.5"/>
<text text-anchor="middle" x="1240.4653" y="-61.5" font-family="Arial.ttf" font-size="10.00" fill="#000000">SLPathtracer.cpp</text>
</a>
</g>
</g>
<!-- Node10&#45;&gt;Node31 -->
<g id="edge30" class="edge">
<title>Node10&#45;&gt;Node31</title>
<path fill="none" stroke="#191970" d="M2029.0533,-118.437C1901.8122,-115.4631 1570.9079,-105.1261 1296.4653,-74 1293.3299,-73.6444 1290.1033,-73.2292 1286.8573,-72.775"/>
<polygon fill="#191970" stroke="#191970" points="2029.2186,-121.9416 2039.2958,-118.6707 2029.3783,-114.9435 2029.2186,-121.9416"/>
</g>
<!-- Node32 -->
<g id="node30" class="node">
<title>Node32</title>
<g id="a_node30"><a xlink:href="_s_l_raytracer_8cpp.html" target="_top" xlink:title=" ">
<polygon fill="#ffffff" stroke="#000000" points="1086.5,-55.5 1086.5,-73.5 1176.4307,-73.5 1176.4307,-55.5 1086.5,-55.5"/>
<text text-anchor="middle" x="1131.4653" y="-61.5" font-family="Arial.ttf" font-size="10.00" fill="#000000">SLRaytracer.cpp</text>
</a>
</g>
</g>
<!-- Node10&#45;&gt;Node32 -->
<g id="edge31" class="edge">
<title>Node10&#45;&gt;Node32</title>
<path fill="none" stroke="#191970" d="M2028.9819,-119.0864C1889.6346,-117.5113 1504.0987,-109.97 1185.4653,-74 1182.5331,-73.669 1179.5191,-73.2788 1176.4863,-72.8487"/>
<polygon fill="#191970" stroke="#191970" points="2029.329,-122.5902 2039.3659,-119.1977 2029.4041,-115.5906 2029.329,-122.5902"/>
</g>
<!-- Node33 -->
<g id="node31" class="node">
<title>Node33</title>
<g id="a_node31"><a xlink:href="_s_l_skeleton_8cpp.html" target="_top" xlink:title=" ">
<polygon fill="#ffffff" stroke="#000000" points="2382.4409,-55.5 2382.4409,-73.5 2468.4897,-73.5 2468.4897,-55.5 2382.4409,-55.5"/>
<text text-anchor="middle" x="2425.4653" y="-61.5" font-family="Arial.ttf" font-size="10.00" fill="#000000">SLSkeleton.cpp</text>
</a>
</g>
</g>
<!-- Node10&#45;&gt;Node33 -->
<g id="edge34" class="edge">
<title>Node10&#45;&gt;Node33</title>
<path fill="none" stroke="#191970" d="M2135.5087,-111.6231C2193.8885,-102.8567 2290.4731,-88.0669 2373.4653,-74 2376.3607,-73.5092 2379.3448,-72.9927 2382.3501,-72.4646"/>
<polygon fill="#191970" stroke="#191970" points="2134.7882,-108.1919 2125.4175,-113.1356 2135.8259,-115.1146 2134.7882,-108.1919"/>
</g>
<!-- Node34 -->
<g id="node32" class="node">
<title>Node34</title>
<g id="a_node32"><a xlink:href="_s_l_text_8cpp.html" target="_top" xlink:title=" ">
<polygon fill="#ffffff" stroke="#000000" points="1825.0977,-55.5 1825.0977,-73.5 1889.833,-73.5 1889.833,-55.5 1825.0977,-55.5"/>
<text text-anchor="middle" x="1857.4653" y="-61.5" font-family="Arial.ttf" font-size="10.00" fill="#000000">SLText.cpp</text>
</a>
</g>
</g>
<!-- Node10&#45;&gt;Node34 -->
<g id="edge35" class="edge">
<title>Node10&#45;&gt;Node34</title>
<path fill="none" stroke="#191970" d="M2035.771,-108.0858C1992.1928,-97.4334 1928.299,-81.8149 1890.0006,-72.4531"/>
<polygon fill="#191970" stroke="#191970" points="2035.018,-111.5047 2045.5631,-110.4795 2036.6802,-104.705 2035.018,-111.5047"/>
</g>
<!-- Node35 -->
<g id="node33" class="node">
<title>Node35</title>
<g id="a_node33"><a xlink:href="_s_l_transfer_function_8cpp.html" target="_top" xlink:title=" ">
<polygon fill="#ffffff" stroke="#000000" points="1907.6577,-55.5 1907.6577,-73.5 2029.2729,-73.5 2029.2729,-55.5 1907.6577,-55.5"/>
<text text-anchor="middle" x="1968.4653" y="-61.5" font-family="Arial.ttf" font-size="10.00" fill="#000000">SLTransferFunction.cpp</text>
</a>
</g>
</g>
<!-- Node10&#45;&gt;Node35 -->
<g id="edge36" class="edge">
<title>Node10&#45;&gt;Node35</title>
<path fill="none" stroke="#191970" d="M2054.6003,-106.0563C2033.6974,-95.9716 2005.645,-82.4376 1987.3181,-73.5956"/>
<polygon fill="#191970" stroke="#191970" points="2053.1131,-109.2248 2063.6406,-110.4179 2056.1548,-102.9202 2053.1131,-109.2248"/>
</g>
<!-- Node36 -->
<g id="node34" class="node">
<title>Node36</title>
<g id="a_node34"><a xlink:href="_s_l_g_l_o_v_r_workaround_8h.html" target="_top" xlink:title=" ">
<polygon fill="#ffffff" stroke="#000000" points="2702.6167,-55.5 2702.6167,-73.5 2828.314,-73.5 2828.314,-55.5 2702.6167,-55.5"/>
<text text-anchor="middle" x="2765.4653" y="-61.5" font-family="Arial.ttf" font-size="10.00" fill="#000000">SLGLOVRWorkaround.h</text>
</a>
</g>
</g>
<!-- Node10&#45;&gt;Node36 -->
<g id="edge37" class="edge">
<title>Node10&#45;&gt;Node36</title>
<path fill="none" stroke="#191970" d="M2135.6417,-116.5604C2241.8329,-110.4648 2487.6431,-95.2248 2693.4653,-74 2696.35,-73.7025 2699.2974,-73.3818 2702.2732,-73.0445"/>
<polygon fill="#191970" stroke="#191970" points="2135.2888,-113.0748 2125.5044,-117.1388 2135.6876,-120.0634 2135.2888,-113.0748"/>
</g>
<!-- Node10&#45;&gt;Node38 -->
<g id="edge39" class="edge">
<title>Node10&#45;&gt;Node38</title>
<path fill="none" stroke="#191970" d="M2029.219,-118.738C1733.5289,-114.4448 299.6728,-92.798 103.4653,-74 100.7168,-73.7367 97.8996,-73.4173 95.0616,-73.0573"/>
<polygon fill="#191970" stroke="#191970" points="2029.6057,-122.2439 2039.6554,-118.8892 2029.7071,-115.2446 2029.6057,-122.2439"/>
</g>
<!-- Node10&#45;&gt;Node39 -->
<g id="edge40" class="edge">
<title>Node10&#45;&gt;Node39</title>
<path fill="none" stroke="#191970" d="M2029.2366,-118.628C1744.3872,-113.9039 406.2461,-90.9654 222.4653,-74 219.8826,-73.7616 217.2416,-73.4791 214.5784,-73.1635"/>
<polygon fill="#191970" stroke="#191970" points="2029.2536,-122.1287 2039.3102,-118.7947 2029.3696,-115.1296 2029.2536,-122.1287"/>
</g>
<!-- Node41 -->
<g id="node38" class="node">
<title>Node41</title>
<g id="a_node38"><a xlink:href="_app_demo_video_8cpp.html" target="_top" xlink:title=" ">
<polygon fill="#ffffff" stroke="#000000" points="2486.0806,-55.5 2486.0806,-73.5 2590.8501,-73.5 2590.8501,-55.5 2486.0806,-55.5"/>
<text text-anchor="middle" x="2538.4653" y="-61.5" font-family="Arial.ttf" font-size="10.00" fill="#000000">AppDemoVideo.cpp</text>
</a>
</g>
</g>
<!-- Node10&#45;&gt;Node41 -->
<g id="edge41" class="edge">
<title>Node10&#45;&gt;Node41</title>
<path fill="none" stroke="#191970" d="M2135.5738,-112.153C2141.2732,-111.4062 2146.9879,-110.6749 2152.4653,-110 2296.7023,-92.2267 2333.4095,-93.1864 2477.4653,-74 2480.2276,-73.6321 2483.058,-73.2409 2485.9142,-72.835"/>
<polygon fill="#191970" stroke="#191970" points="2134.8387,-108.7198 2125.3863,-113.5054 2135.7599,-115.6589 2134.8387,-108.7198"/>
</g>
<!-- Node37 -->
<g id="node35" class="node">
<title>Node37</title>
<g id="a_node35"><a xlink:href="_s_l_g_l_oculus_8cpp.html" target="_top" xlink:title=" ">
<polygon fill="#ffffff" stroke="#000000" points="3306.6675,-.5 3306.6675,-18.5 3398.2632,-18.5 3398.2632,-.5 3306.6675,-.5"/>
<text text-anchor="middle" x="3352.4653" y="-6.5" font-family="Arial.ttf" font-size="10.00" fill="#000000">SLGLOculus.cpp</text>
</a>
</g>
</g>
<!-- Node36&#45;&gt;Node37 -->
<g id="edge38" class="edge">
<title>Node36&#45;&gt;Node37</title>
<path fill="none" stroke="#191970" d="M2838.7994,-54.8935C3017.9389,-35.3676 3218.1962,-19.5561 3306.584,-12.8868"/>
<polygon fill="#191970" stroke="#191970" points="2838.2217,-51.4358 2828.6628,-56.0049 2838.9847,-58.3941 2838.2217,-51.4358"/>
</g>
<!-- Node43&#45;&gt;Node3 -->
<g id="edge49" class="edge">
<title>Node43&#45;&gt;Node3</title>
<path fill="none" stroke="#191970" d="M580.5623,-106.598C555.4958,-96.4609 521.214,-82.5969 498.9563,-73.5956"/>
<polygon fill="#191970" stroke="#191970" points="579.4249,-109.9134 590.0077,-110.4179 582.0493,-103.424 579.4249,-109.9134"/>
</g>
<!-- Node43&#45;&gt;Node6 -->
<g id="edge46" class="edge">
<title>Node43&#45;&gt;Node6</title>
<path fill="none" stroke="#191970" d="M562.9669,-112.986C503.1894,-104.8961 399.6737,-90.173 311.4653,-74 308.8518,-73.5208 306.1564,-73.0013 303.4469,-72.4607"/>
<polygon fill="#191970" stroke="#191970" points="562.5132,-116.4564 572.8909,-114.3224 563.4475,-109.519 562.5132,-116.4564"/>
</g>
<!-- Node43&#45;&gt;Node27 -->
<g id="edge45" class="edge">
<title>Node43&#45;&gt;Node27</title>
<path fill="none" stroke="#191970" d="M604.1788,-101.2696C599.992,-92.0587 595.0911,-81.2766 591.6833,-73.7795"/>
<polygon fill="#191970" stroke="#191970" points="601.0127,-102.7625 608.3371,-110.4179 607.3853,-99.8659 601.0127,-102.7625"/>
</g>
<!-- Node43&#45;&gt;Node31 -->
<g id="edge47" class="edge">
<title>Node43&#45;&gt;Node31</title>
<path fill="none" stroke="#191970" d="M662.2685,-117.0873C761.9092,-111.9202 992.7754,-98.2399 1185.4653,-74 1188.2535,-73.6493 1191.1157,-73.2561 1193.9995,-72.8346"/>
<polygon fill="#191970" stroke="#191970" points="661.9981,-113.5965 652.1904,-117.604 662.3566,-120.5873 661.9981,-113.5965"/>
</g>
<!-- Node43&#45;&gt;Node32 -->
<g id="edge48" class="edge">
<title>Node43&#45;&gt;Node32</title>
<path fill="none" stroke="#191970" d="M662.2527,-115.8873C747.5071,-109.4198 926.8307,-94.5892 1077.4653,-74 1080.389,-73.6004 1083.3965,-73.1582 1086.4245,-72.6897"/>
<polygon fill="#191970" stroke="#191970" points="661.794,-112.4118 652.0849,-116.6527 662.3195,-119.3921 661.794,-112.4118"/>
</g>
<!-- Node43&#45;&gt;Node38 -->
<g id="edge50" class="edge">
<title>Node43&#45;&gt;Node38</title>
<path fill="none" stroke="#191970" d="M562.6905,-116.3597C471.4143,-110.3102 271.2162,-95.6922 103.4653,-74 100.727,-73.6459 97.9178,-73.2556 95.0859,-72.8413"/>
<polygon fill="#191970" stroke="#191970" points="562.5422,-119.8574 572.7503,-117.0208 563.0014,-112.8725 562.5422,-119.8574"/>
</g>
<!-- Node43&#45;&gt;Node39 -->
<g id="edge51" class="edge">
<title>Node43&#45;&gt;Node39</title>
<path fill="none" stroke="#191970" d="M562.8165,-114.4071C488.6313,-106.6389 344.5076,-90.9364 222.4653,-74 219.7934,-73.6292 217.0557,-73.2357 214.293,-72.828"/>
<polygon fill="#191970" stroke="#191970" points="562.5014,-117.8931 572.8106,-115.4498 563.2278,-110.9309 562.5014,-117.8931"/>
</g>
<!-- Node44&#45;&gt;Node6 -->
<g id="edge54" class="edge">
<title>Node44&#45;&gt;Node6</title>
<path fill="none" stroke="#191970" d="M242.3354,-101.8553C248.6162,-92.519 256.0719,-81.4361 261.2228,-73.7795"/>
<polygon fill="#191970" stroke="#191970" points="239.2529,-100.167 236.5751,-110.4179 245.061,-104.0743 239.2529,-100.167"/>
</g>
<!-- Node44&#45;&gt;Node28 -->
<g id="edge53" class="edge">
<title>Node44&#45;&gt;Node28</title>
<path fill="none" stroke="#191970" d="M262.1338,-106.598C287.0159,-96.4609 321.0457,-82.5969 343.1397,-73.5956"/>
<polygon fill="#191970" stroke="#191970" points="260.6982,-103.4035 252.7578,-110.4179 263.3393,-109.8862 260.6982,-103.4035"/>
</g>
<!-- Node44&#45;&gt;Node38 -->
<g id="edge55" class="edge">
<title>Node44&#45;&gt;Node38</title>
<path fill="none" stroke="#191970" d="M190.6045,-107.52C156.5408,-97.2822 108.2807,-82.7779 77.4248,-73.5042"/>
<polygon fill="#191970" stroke="#191970" points="189.6624,-110.8914 200.2466,-110.4179 191.6772,-104.1876 189.6624,-110.8914"/>
</g>
<!-- Node44&#45;&gt;Node39 -->
<g id="edge56" class="edge">
<title>Node44&#45;&gt;Node39</title>
<path fill="none" stroke="#191970" d="M211.4224,-103.8678C199.5887,-94.1535 184.7767,-81.9944 174.7694,-73.7795"/>
<polygon fill="#191970" stroke="#191970" points="209.4516,-106.7782 219.4016,-110.4179 213.8931,-101.3676 209.4516,-106.7782"/>
</g>
<!-- Node45&#45;&gt;Node5 -->
<g id="edge76" class="edge">
<title>Node45&#45;&gt;Node5</title>
<path fill="none" stroke="#191970" d="M2466.3867,-173.8981C2603.7785,-171.6759 3045.0148,-162.2511 3408.4653,-129 3558.6764,-115.2576 3735.0906,-86.8483 3817.9455,-72.7739"/>
<polygon fill="#191970" stroke="#191970" points="2466.2177,-170.4002 2456.2741,-174.0574 2466.328,-177.3993 2466.2177,-170.4002"/>
</g>
<!-- Node45&#45;&gt;Node7 -->
<g id="edge79" class="edge">
<title>Node45&#45;&gt;Node7</title>
<path fill="none" stroke="#191970" d="M2425.7388,-155.087C2428.4651,-140.6036 2434.4341,-121.4218 2447.4653,-110 2453.5619,-104.6564 2552.6316,-83.7019 2608.6365,-72.1858"/>
<polygon fill="#191970" stroke="#191970" points="2422.2686,-154.6274 2424.2229,-165.0404 2429.1888,-155.6814 2422.2686,-154.6274"/>
</g>
<!-- Node45&#45;&gt;Node12 -->
<g id="edge58" class="edge">
<title>Node45&#45;&gt;Node12</title>
<path fill="none" stroke="#191970" d="M2386.4417,-162.27C2319.0567,-140.0107 2177.8313,-93.3596 2118.0927,-73.6261"/>
<polygon fill="#191970" stroke="#191970" points="2385.6214,-165.6849 2396.2145,-165.4982 2387.817,-159.0382 2385.6214,-165.6849"/>
</g>
<!-- Node45&#45;&gt;Node13 -->
<g id="edge60" class="edge">
<title>Node45&#45;&gt;Node13</title>
<path fill="none" stroke="#191970" d="M2466.3128,-174.128C2587.8516,-172.631 2928.1846,-165.2142 2961.4653,-129 2980.107,-108.7153 2943.339,-85.8357 2918.5386,-73.5169"/>
<polygon fill="#191970" stroke="#191970" points="2466.2152,-170.6288 2456.2564,-174.2443 2466.2963,-177.6283 2466.2152,-170.6288"/>
</g>
<!-- Node45&#45;&gt;Node14 -->
<g id="edge61" class="edge">
<title>Node45&#45;&gt;Node14</title>
<path fill="none" stroke="#191970" d="M2466.2781,-173.1649C2588.6722,-169.0461 2934.0688,-155.2057 2977.4653,-129 2998.3649,-116.3795 3010.402,-88.5802 3015.5197,-73.9413"/>
<polygon fill="#191970" stroke="#191970" points="2466.0362,-169.6709 2456.1576,-173.5004 2466.2681,-176.6671 2466.0362,-169.6709"/>
</g>
<!-- Node45&#45;&gt;Node15 -->
<g id="edge62" class="edge">
<title>Node45&#45;&gt;Node15</title>
<path fill="none" stroke="#191970" d="M2466.476,-173.1917C2582.4721,-169.3326 2899.7678,-156.5011 3000.4653,-129 3046.2308,-116.5012 3095.1752,-88.1156 3118.5199,-73.5268"/>
<polygon fill="#191970" stroke="#191970" points="2466.0939,-169.7022 2456.2136,-173.5271 2466.3226,-176.6985 2466.0939,-169.7022"/>
</g>
<!-- Node45&#45;&gt;Node16 -->
<g id="edge63" class="edge">
<title>Node45&#45;&gt;Node16</title>
<path fill="none" stroke="#191970" d="M2466.5946,-172.5395C2587.5555,-166.8456 2928.3609,-149.4108 3038.4653,-129 3109.0495,-115.9154 3189.3752,-88.0581 3228.5015,-73.6126"/>
<polygon fill="#191970" stroke="#191970" points="2466.0812,-169.0596 2456.2555,-173.0228 2466.408,-176.052 2466.0812,-169.0596"/>
</g>
<!-- Node45&#45;&gt;Node17 -->
<g id="edge64" class="edge">
<title>Node45&#45;&gt;Node17</title>
<path fill="none" stroke="#191970" d="M2466.2683,-173.7188C2572.4584,-171.3173 2856.3393,-162.062 3090.4653,-129 3187.4793,-115.3002 3299.9612,-87.8453 3355.2252,-73.5778"/>
<polygon fill="#191970" stroke="#191970" points="2466.181,-170.2198 2456.2595,-173.9365 2466.3333,-177.2181 2466.181,-170.2198"/>
</g>
<!-- Node45&#45;&gt;Node18 -->
<g id="edge67" class="edge">
<title>Node45&#45;&gt;Node18</title>
<path fill="none" stroke="#191970" d="M2466.4747,-173.5592C2579.8648,-170.706 2896.197,-160.3332 3157.4653,-129 3274.0936,-115.0131 3410.1213,-87.6849 3477.0076,-73.5106"/>
<polygon fill="#191970" stroke="#191970" points="2466.0549,-170.0683 2456.1436,-173.8123 2466.2264,-177.0662 2466.0549,-170.0683"/>
</g>
<!-- Node45&#45;&gt;Node19 -->
<g id="edge68" class="edge">
<title>Node45&#45;&gt;Node19</title>
<path fill="none" stroke="#191970" d="M2466.527,-173.5716C2587.3273,-170.644 2939.5784,-159.8934 3230.4653,-129 3363.1145,-114.9121 3518.24,-87.6917 3594.7751,-73.54"/>
<polygon fill="#191970" stroke="#191970" points="2466.1441,-170.0796 2456.2299,-173.8156 2466.31,-177.0776 2466.1441,-170.0796"/>
</g>
<!-- Node45&#45;&gt;Node20 -->
<g id="edge69" class="edge">
<title>Node45&#45;&gt;Node20</title>
<path fill="none" stroke="#191970" d="M2395.5068,-161.0112C2348.4235,-138.2956 2254.5276,-92.995 2214.3813,-73.6261"/>
<polygon fill="#191970" stroke="#191970" points="2394.2797,-164.3052 2404.8071,-165.4982 2397.3214,-158.0006 2394.2797,-164.3052"/>
</g>
<!-- Node45&#45;&gt;Node21 -->
<g id="edge70" class="edge">
<title>Node45&#45;&gt;Node21</title>
<path fill="none" stroke="#191970" d="M2466.4464,-173.6184C2595.0657,-170.6972 2988.1049,-159.7108 3312.4653,-129 3489.8019,-112.2096 3533.6885,-102.8562 3709.4653,-74 3712.3426,-73.5276 3715.309,-73.0192 3718.2936,-72.4919"/>
<polygon fill="#191970" stroke="#191970" points="2466.1528,-170.124 2456.2333,-173.8459 2466.3088,-177.1222 2466.1528,-170.124"/>
</g>
<!-- Node45&#45;&gt;Node22 -->
<g id="edge72" class="edge">
<title>Node45&#45;&gt;Node22</title>
<path fill="none" stroke="#191970" d="M2380.5769,-173.7898C2287.1404,-171.6282 2058.4945,-163.0004 1870.4653,-129 1795.5768,-115.4583 1709.8567,-87.8046 1668.0692,-73.5071"/>
<polygon fill="#191970" stroke="#191970" points="2380.6934,-177.293 2390.7674,-174.0119 2380.8461,-170.2947 2380.6934,-177.293"/>
</g>
<!-- Node45&#45;&gt;Node23 -->
<g id="edge74" class="edge">
<title>Node45&#45;&gt;Node23</title>
<path fill="none" stroke="#191970" d="M2380.5076,-173.8345C2295.9042,-171.7786 2102.1385,-163.372 1943.4653,-129 1881.3724,-115.5493 1811.3658,-87.8551 1777.3101,-73.5281"/>
<polygon fill="#191970" stroke="#191970" points="2380.6765,-177.3391 2390.7527,-174.065 2380.834,-170.3409 2380.6765,-177.3391"/>
</g>
<!-- Node45&#45;&gt;Node26 -->
<g id="edge75" class="edge">
<title>Node45&#45;&gt;Node26</title>
<path fill="none" stroke="#191970" d="M2401.8962,-159.6106C2390.3078,-151.1901 2376.0613,-140.1401 2364.4653,-129 2345.7189,-110.9906 2326.9349,-86.8424 2317.2287,-73.799"/>
<polygon fill="#191970" stroke="#191970" points="2399.9773,-162.5409 2410.1519,-165.4952 2404.0403,-156.8407 2399.9773,-162.5409"/>
</g>
<!-- Node45&#45;&gt;Node27 -->
<g id="edge77" class="edge">
<title>Node45&#45;&gt;Node27</title>
<path fill="none" stroke="#191970" d="M2380.7347,-173.9065C2222.5222,-171.5007 1655.0793,-161.0218 1188.4653,-129 944.7017,-112.2715 883.5069,-107.4126 641.4653,-74 638.4479,-73.5835 635.341,-73.1226 632.2143,-72.635"/>
<polygon fill="#191970" stroke="#191970" points="2380.9349,-177.4098 2390.9862,-174.0597 2381.0396,-170.4106 2380.9349,-177.4098"/>
</g>
<!-- Node45&#45;&gt;Node28 -->
<g id="edge78" class="edge">
<title>Node45&#45;&gt;Node28</title>
<path fill="none" stroke="#191970" d="M2380.791,-174.4515C2120.0475,-174.0231 746.8264,-169.8307 564.4653,-129 544.0765,-124.4349 541.0927,-117.163 521.4653,-110 481.0497,-95.2504 433.427,-81.9273 401.5257,-73.5653"/>
<polygon fill="#191970" stroke="#191970" points="2380.981,-177.9517 2390.9865,-174.4672 2380.9919,-170.9517 2380.981,-177.9517"/>
</g>
<!-- Node45&#45;&gt;Node33 -->
<g id="edge80" class="edge">
<title>Node45&#45;&gt;Node33</title>
<path fill="none" stroke="#191970" d="M2398.1745,-159.6725C2380.8852,-147.4606 2362.5812,-129.103 2371.4653,-110 2378.9613,-93.8819 2395.2898,-81.4254 2408.0404,-73.6536"/>
<polygon fill="#191970" stroke="#191970" points="2396.6976,-162.8908 2406.9738,-165.4697 2400.5487,-157.0454 2396.6976,-162.8908"/>
</g>
<!-- Node45&#45;&gt;Node34 -->
<g id="edge81" class="edge">
<title>Node45&#45;&gt;Node34</title>
<path fill="none" stroke="#191970" d="M2380.5481,-171.6124C2287.8181,-165.0924 2071.4109,-148.2869 2000.4653,-129 1951.8453,-115.7824 1898.8172,-87.9844 1873.143,-73.5819"/>
<polygon fill="#191970" stroke="#191970" points="2380.4838,-175.1163 2390.7029,-172.3199 2380.9704,-168.1332 2380.4838,-175.1163"/>
</g>
<!-- Node45&#45;&gt;Node35 -->
<g id="edge82" class="edge">
<title>Node45&#45;&gt;Node35</title>
<path fill="none" stroke="#191970" d="M2380.7612,-173.1758C2292.0923,-169.8458 2091.2266,-159.12 2030.4653,-129 2004.8592,-116.3068 1984.0326,-88.5393 1974.3431,-73.9241"/>
<polygon fill="#191970" stroke="#191970" points="2380.8814,-176.6823 2391.0013,-173.546 2381.1344,-169.6869 2380.8814,-176.6823"/>
</g>
<!-- Node45&#45;&gt;Node36 -->
<g id="edge83" class="edge">
<title>Node45&#45;&gt;Node36</title>
<path fill="none" stroke="#191970" d="M2434.1145,-156.7432C2444.1172,-141.7324 2460.5114,-120.9704 2480.4653,-110 2490.1387,-104.6817 2621.5823,-85.1195 2702.539,-73.4474"/>
<polygon fill="#191970" stroke="#191970" points="2431.1454,-154.8898 2428.7376,-165.2074 2437.054,-158.6433 2431.1454,-154.8898"/>
</g>
<!-- Node45&#45;&gt;Node37 -->
<g id="edge59" class="edge">
<title>Node45&#45;&gt;Node37</title>
<path fill="none" stroke="#191970" d="M2466.5284,-174.0568C2612.4127,-172.263 3101.2719,-163.863 3503.4653,-129 3690.1444,-112.8183 3797.9126,-214.8746 3921.4653,-74 3927.0334,-67.6513 3927.1935,-61.2045 3921.4653,-55 3903.7771,-35.8409 3530.465,-17.4261 3398.323,-11.4854"/>
<polygon fill="#191970" stroke="#191970" points="2466.1848,-170.5605 2456.2272,-174.1794 2466.2681,-177.56 2466.1848,-170.5605"/>
</g>
<!-- Node45&#45;&gt;Node38 -->
<g id="edge107" class="edge">
<title>Node45&#45;&gt;Node38</title>
<path fill="none" stroke="#191970" d="M2380.9329,-174.1475C2081.0343,-171.5982 293.436,-155.3352 182.4653,-129 135.2044,-117.7842 84.9548,-88.5378 61.3005,-73.5869"/>
<polygon fill="#191970" stroke="#191970" points="2380.9391,-177.6475 2390.9684,-174.2324 2380.9984,-170.6478 2380.9391,-177.6475"/>
</g>
<!-- Node45&#45;&gt;Node39 -->
<g id="edge108" class="edge">
<title>Node45&#45;&gt;Node39</title>
<path fill="none" stroke="#191970" d="M2380.6288,-174.1256C2115.8447,-171.7255 707.1109,-157.681 517.4653,-129 486.8614,-124.3716 480.695,-116.6478 450.4653,-110 350.2707,-87.9662 323.7742,-90.1543 222.4653,-74 219.8015,-73.5752 217.0702,-73.1388 214.3125,-72.6973"/>
<polygon fill="#191970" stroke="#191970" points="2380.9428,-177.6285 2390.9739,-174.2187 2381.0059,-170.6288 2380.9428,-177.6285"/>
</g>
<!-- Node45&#45;&gt;Node41 -->
<g id="edge109" class="edge">
<title>Node45&#45;&gt;Node41</title>
<path fill="none" stroke="#191970" d="M2412.4164,-156.2417C2405.6213,-142.4132 2399.8779,-123.5479 2409.4653,-110 2419.9255,-95.2188 2463.7006,-81.9018 2497.3871,-73.5498"/>
<polygon fill="#191970" stroke="#191970" points="2409.4827,-158.1722 2417.3461,-165.2728 2415.6269,-154.8184 2409.4827,-158.1722"/>
</g>
<!-- Node46 -->
<g id="node42" class="node">
<title>Node46</title>
<g id="a_node42"><a xlink:href="_s_l_g_l_vertex_buffer_8cpp.html" target="_top" xlink:title=" ">
<polygon fill="#ffffff" stroke="#000000" points="2489.4419,-110.5 2489.4419,-128.5 2603.4888,-128.5 2603.4888,-110.5 2489.4419,-110.5"/>
<text text-anchor="middle" x="2546.4653" y="-116.5" font-family="Arial.ttf" font-size="10.00" fill="#000000">SLGLVertexBuffer.cpp</text>
</a>
</g>
</g>
<!-- Node45&#45;&gt;Node46 -->
<g id="edge65" class="edge">
<title>Node45&#45;&gt;Node46</title>
<path fill="none" stroke="#191970" d="M2452.9226,-161.328C2475.5371,-151.2159 2506.1722,-137.5172 2526.1242,-128.5956"/>
<polygon fill="#191970" stroke="#191970" points="2451.4765,-158.1407 2443.7763,-165.4179 2454.3339,-164.5309 2451.4765,-158.1407"/>
</g>
<!-- Node47 -->
<g id="node43" class="node">
<title>Node47</title>
<g id="a_node43"><a xlink:href="_s_l_curve_bezier_8cpp.html" target="_top" xlink:title=" ">
<polygon fill="#ffffff" stroke="#000000" points="2621.6626,-110.5 2621.6626,-128.5 2723.2681,-128.5 2723.2681,-110.5 2621.6626,-110.5"/>
<text text-anchor="middle" x="2672.4653" y="-116.5" font-family="Arial.ttf" font-size="10.00" fill="#000000">SLCurveBezier.cpp</text>
</a>
</g>
</g>
<!-- Node45&#45;&gt;Node47 -->
<g id="edge66" class="edge">
<title>Node45&#45;&gt;Node47</title>
<path fill="none" stroke="#191970" d="M2466.0429,-165.0953C2512.3931,-154.8573 2585.9841,-138.6023 2631.6356,-128.5186"/>
<polygon fill="#191970" stroke="#191970" points="2465.0274,-161.7352 2456.0177,-167.3097 2466.5373,-168.5704 2465.0274,-161.7352"/>
</g>
<!-- Node48 -->
<g id="node44" class="node">
<title>Node48</title>
<g id="a_node44"><a xlink:href="_s_l_a_a_b_box_8cpp.html" target="_top" xlink:title=" ">
<polygon fill="#ffffff" stroke="#000000" points="2741.2783,-110.5 2741.2783,-128.5 2825.6523,-128.5 2825.6523,-110.5 2741.2783,-110.5"/>
<text text-anchor="middle" x="2783.4653" y="-116.5" font-family="Arial.ttf" font-size="10.00" fill="#000000">SLAABBox.cpp</text>
</a>
</g>
</g>
<!-- Node45&#45;&gt;Node48 -->
<g id="edge71" class="edge">
<title>Node45&#45;&gt;Node48</title>
<path fill="none" stroke="#191970" d="M2466.1801,-168.7327C2525.8778,-160.5536 2637.6067,-144.8129 2732.4653,-129 2735.3082,-128.5261 2738.2372,-128.0222 2741.1864,-127.5033"/>
<polygon fill="#191970" stroke="#191970" points="2465.439,-165.3014 2456.0047,-170.1226 2466.3864,-172.237 2465.439,-165.3014"/>
</g>
<!-- Node49 -->
<g id="node45" class="node">
<title>Node49</title>
<g id="a_node45"><a xlink:href="_s_l_anim_manager_8cpp.html" target="_top" xlink:title=" ">
<polygon fill="#ffffff" stroke="#000000" points="2844.0469,-110.5 2844.0469,-128.5 2952.8838,-128.5 2952.8838,-110.5 2844.0469,-110.5"/>
<text text-anchor="middle" x="2898.4653" y="-116.5" font-family="Arial.ttf" font-size="10.00" fill="#000000">SLAnimManager.cpp</text>
</a>
</g>
</g>
<!-- Node45&#45;&gt;Node49 -->
<g id="edge73" class="edge">
<title>Node45&#45;&gt;Node49</title>
<path fill="none" stroke="#191970" d="M2465.9761,-170.319C2540.6421,-162.8582 2700.171,-146.3946 2834.4653,-129 2837.5845,-128.596 2840.7869,-128.1667 2844.0172,-127.7225"/>
<polygon fill="#191970" stroke="#191970" points="2465.619,-166.8371 2456.0151,-171.3111 2466.3128,-173.8027 2465.619,-166.8371"/>
</g>
<!-- Node50 -->
<g id="node46" class="node">
<title>Node50</title>
<g id="a_node46"><a xlink:href="_s_l_scene_view_8h.html" target="_top" xlink:title=" ">
<polygon fill="#ffffff" stroke="#ff0000" points="1197.5264,-110.5 1197.5264,-128.5 1283.4043,-128.5 1283.4043,-110.5 1197.5264,-110.5"/>
<text text-anchor="middle" x="1240.4653" y="-116.5" font-family="Arial.ttf" font-size="10.00" fill="#000000">SLSceneView.h</text>
</a>
</g>
</g>
<!-- Node45&#45;&gt;Node50 -->
<g id="edge84" class="edge">
<title>Node45&#45;&gt;Node50</title>
<path fill="none" stroke="#191970" d="M2380.7832,-172.5156C2196.3821,-163.9425 1469.0775,-130.1286 1283.6648,-121.5084"/>
<polygon fill="#191970" stroke="#191970" points="2380.7488,-176.0177 2390.9006,-172.986 2381.074,-169.0253 2380.7488,-176.0177"/>
</g>
<!-- Node50&#45;&gt;Node3 -->
<g id="edge102" class="edge">
<title>Node50&#45;&gt;Node3</title>
<path fill="none" stroke="#191970" d="M1187.0767,-117.9036C1068.9424,-113.9687 776.6136,-102.0141 533.4653,-74 530.6747,-73.6785 527.8127,-73.3137 524.9282,-72.9188"/>
<polygon fill="#191970" stroke="#191970" points="1187.1816,-121.4089 1197.2908,-118.2382 1187.4108,-114.4126 1187.1816,-121.4089"/>
</g>
<!-- Node50&#45;&gt;Node5 -->
<g id="edge92" class="edge">
<title>Node50&#45;&gt;Node5</title>
<path fill="none" stroke="#191970" d="M1293.4634,-118.7878C1649.2469,-113.9783 3679.8224,-86.0755 3809.4653,-74 3812.2145,-73.7439 3815.0323,-73.4302 3817.8707,-73.0746"/>
<polygon fill="#191970" stroke="#191970" points="1293.3811,-115.2885 1283.4293,-118.9233 1293.4757,-122.2878 1293.3811,-115.2885"/>
</g>
<!-- Node50&#45;&gt;Node6 -->
<g id="edge97" class="edge">
<title>Node50&#45;&gt;Node6</title>
<path fill="none" stroke="#191970" d="M1187.2392,-118.0403C1016.3364,-113.1729 482.6883,-96.5231 311.4653,-74 308.831,-73.6535 306.1202,-73.2314 303.3999,-72.76"/>
<polygon fill="#191970" stroke="#191970" points="1187.3951,-121.546 1197.4902,-118.3305 1187.5933,-114.5488 1187.3951,-121.546"/>
</g>
<!-- Node50&#45;&gt;Node7 -->
<g id="edge101" class="edge">
<title>Node50&#45;&gt;Node7</title>
<path fill="none" stroke="#191970" d="M1293.7172,-118.8987C1512.1043,-116.2502 2339.7919,-104.3775 2599.4653,-74 2602.4419,-73.6518 2605.5108,-73.2136 2608.5872,-72.7177"/>
<polygon fill="#191970" stroke="#191970" points="1293.4402,-115.4017 1283.483,-119.0214 1293.5242,-122.4012 1293.4402,-115.4017"/>
</g>
<!-- Node50&#45;&gt;Node12 -->
<g id="edge85" class="edge">
<title>Node50&#45;&gt;Node12</title>
<path fill="none" stroke="#191970" d="M1293.7906,-118.7356C1422.3449,-116.3981 1759.3676,-107.3215 2038.4653,-74 2041.1991,-73.6736 2044.0062,-73.2933 2046.832,-72.8761"/>
<polygon fill="#191970" stroke="#191970" points="1293.3858,-115.2421 1283.4488,-118.9172 1293.5087,-122.241 1293.3858,-115.2421"/>
</g>
<!-- Node50&#45;&gt;Node20 -->
<g id="edge86" class="edge">
<title>Node50&#45;&gt;Node20</title>
<path fill="none" stroke="#191970" d="M1293.6096,-117.734C1461.1792,-112.0218 1977.1851,-93.295 2143.4653,-74 2146.3825,-73.6615 2149.3828,-73.2592 2152.4,-72.8143"/>
<polygon fill="#191970" stroke="#191970" points="1293.4244,-114.2382 1283.5489,-118.0755 1293.6619,-121.2341 1293.4244,-114.2382"/>
</g>
<!-- Node50&#45;&gt;Node24 -->
<g id="edge89" class="edge">
<title>Node50&#45;&gt;Node24</title>
<path fill="none" stroke="#191970" d="M1266.9019,-105.7829C1286.2802,-95.7282 1312.0483,-82.3579 1328.9356,-73.5956"/>
<polygon fill="#191970" stroke="#191970" points="1265.2334,-102.7055 1257.9691,-110.4179 1268.4573,-108.9189 1265.2334,-102.7055"/>
</g>
<!-- Node50&#45;&gt;Node26 -->
<g id="edge90" class="edge">
<title>Node50&#45;&gt;Node26</title>
<path fill="none" stroke="#191970" d="M1294.1067,-119.047C1444.74,-117.3504 1884.317,-109.4864 2247.4653,-74 2250.3276,-73.7203 2253.2583,-73.3994 2256.214,-73.0486"/>
<polygon fill="#191970" stroke="#191970" points="1293.727,-115.5508 1283.7654,-119.1588 1293.8027,-122.5504 1293.727,-115.5508"/>
</g>
<!-- Node50&#45;&gt;Node27 -->
<g id="edge93" class="edge">
<title>Node50&#45;&gt;Node27</title>
<path fill="none" stroke="#191970" d="M1187.468,-117.2272C1082.7927,-112.3514 842.2549,-99.226 641.4653,-74 638.443,-73.6203 635.3325,-73.1871 632.2031,-72.7197"/>
<polygon fill="#191970" stroke="#191970" points="1187.3163,-120.7238 1197.4666,-117.687 1187.6379,-113.7312 1187.3163,-120.7238"/>
</g>
<!-- Node50&#45;&gt;Node28 -->
<g id="edge94" class="edge">
<title>Node50&#45;&gt;Node28</title>
<path fill="none" stroke="#191970" d="M1186.9619,-118.7321C1055.7534,-116.3718 707.6975,-107.2217 419.4653,-74 416.4393,-73.6512 413.326,-73.2412 410.1946,-72.7907"/>
<polygon fill="#191970" stroke="#191970" points="1187.0798,-122.2346 1197.1392,-118.9093 1187.2017,-115.2357 1187.0798,-122.2346"/>
</g>
<!-- Node50&#45;&gt;Node29 -->
<g id="edge95" class="edge">
<title>Node50&#45;&gt;Node29</title>
<path fill="none" stroke="#191970" d="M1284.5652,-107.7826C1323.1463,-97.5316 1378.3745,-82.8575 1413.5768,-73.5042"/>
<polygon fill="#191970" stroke="#191970" points="1283.4131,-104.4673 1274.6472,-110.4179 1285.2106,-111.2325 1283.4131,-104.4673"/>
</g>
<!-- Node50&#45;&gt;Node30 -->
<g id="edge96" class="edge">
<title>Node50&#45;&gt;Node30</title>
<path fill="none" stroke="#191970" d="M1293.749,-110.5914C1345.7912,-101.7666 1427.1971,-87.6336 1497.4653,-74 1500.444,-73.4221 1503.5298,-72.8064 1506.6255,-72.1769"/>
<polygon fill="#191970" stroke="#191970" points="1293.0202,-107.1649 1283.7441,-112.2838 1294.1878,-114.0668 1293.0202,-107.1649"/>
</g>
<!-- Node50&#45;&gt;Node31 -->
<g id="edge98" class="edge">
<title>Node50&#45;&gt;Node31</title>
<path fill="none" stroke="#191970" d="M1240.4653,-100.383C1240.4653,-91.3738 1240.4653,-81.0373 1240.4653,-73.7795"/>
<polygon fill="#191970" stroke="#191970" points="1236.9654,-100.4178 1240.4653,-110.4179 1243.9654,-100.4179 1236.9654,-100.4178"/>
</g>
<!-- Node50&#45;&gt;Node32 -->
<g id="edge100" class="edge">
<title>Node50&#45;&gt;Node32</title>
<path fill="none" stroke="#191970" d="M1213.2806,-105.7829C1193.3539,-95.7282 1166.8565,-82.3579 1149.4912,-73.5956"/>
<polygon fill="#191970" stroke="#191970" points="1211.9616,-109.0377 1222.4662,-110.4179 1215.1151,-102.7882 1211.9616,-109.0377"/>
</g>
<!-- Node50&#45;&gt;Node33 -->
<g id="edge103" class="edge">
<title>Node50&#45;&gt;Node33</title>
<path fill="none" stroke="#191970" d="M1293.878,-118.3524C1488.612,-114.0128 2160.2053,-97.644 2373.4653,-74 2376.3842,-73.6764 2379.3858,-73.2852 2382.4039,-72.8485"/>
<polygon fill="#191970" stroke="#191970" points="1293.5394,-114.8589 1283.6195,-118.5796 1293.6946,-121.8572 1293.5394,-114.8589"/>
</g>
<!-- Node50&#45;&gt;Node38 -->
<g id="edge104" class="edge">
<title>Node50&#45;&gt;Node38</title>
<path fill="none" stroke="#191970" d="M1187.2034,-118.2751C992.245,-113.6502 317.7451,-96.37 103.4653,-74 100.7191,-73.7133 97.9038,-73.3757 95.0672,-73.0017"/>
<polygon fill="#191970" stroke="#191970" points="1187.3917,-121.7804 1197.4715,-118.5175 1187.5569,-114.7824 1187.3917,-121.7804"/>
</g>
<!-- Node50&#45;&gt;Node39 -->
<g id="edge105" class="edge">
<title>Node50&#45;&gt;Node39</title>
<path fill="none" stroke="#191970" d="M1187.4245,-117.9366C1006.223,-112.4693 412.476,-93.4786 222.4653,-74 219.8851,-73.7355 217.2462,-73.432 214.5846,-73.0998"/>
<polygon fill="#191970" stroke="#191970" points="1187.4042,-121.4375 1197.5049,-118.2397 1187.6146,-114.4407 1187.4042,-121.4375"/>
</g>
<!-- Node50&#45;&gt;Node41 -->
<g id="edge106" class="edge">
<title>Node50&#45;&gt;Node41</title>
<path fill="none" stroke="#191970" d="M1293.9072,-118.3734C1499.8895,-113.9008 2242.4949,-96.5393 2477.4653,-74 2480.2393,-73.7339 2483.079,-73.4239 2485.9424,-73.0816"/>
<polygon fill="#191970" stroke="#191970" points="1293.5771,-114.8796 1283.6551,-118.595 1293.7284,-121.878 1293.5771,-114.8796"/>
</g>
<!-- Node51 -->
<g id="node47" class="node">
<title>Node51</title>
<g id="a_node47"><a xlink:href="_s_l_skybox_8cpp.html" target="_top" xlink:title=" ">
<polygon fill="#ffffff" stroke="#000000" points="650.5024,-55.5 650.5024,-73.5 730.4282,-73.5 730.4282,-55.5 650.5024,-55.5"/>
<text text-anchor="middle" x="690.4653" y="-61.5" font-family="Arial.ttf" font-size="10.00" fill="#000000">SLSkybox.cpp</text>
</a>
</g>
</g>
<!-- Node50&#45;&gt;Node51 -->
<g id="edge87" class="edge">
<title>Node50&#45;&gt;Node51</title>
<path fill="none" stroke="#191970" d="M1187.2617,-116.4386C1095.5322,-110.7655 901.8245,-97.0515 739.4653,-74 736.5484,-73.5859 733.5419,-73.1141 730.5212,-72.6075"/>
<polygon fill="#191970" stroke="#191970" points="1187.2104,-119.9419 1197.4053,-117.0587 1187.6376,-112.9549 1187.2104,-119.9419"/>
</g>
<!-- Node52 -->
<g id="node48" class="node">
<title>Node52</title>
<g id="a_node48"><a xlink:href="_s_l_anim_track_8cpp.html" target="_top" xlink:title=" ">
<polygon fill="#ffffff" stroke="#000000" points="748.1904,-55.5 748.1904,-73.5 842.7402,-73.5 842.7402,-55.5 748.1904,-55.5"/>
<text text-anchor="middle" x="795.4653" y="-61.5" font-family="Arial.ttf" font-size="10.00" fill="#000000">SLAnimTrack.cpp</text>
</a>
</g>
</g>
<!-- Node50&#45;&gt;Node52 -->
<g id="edge88" class="edge">
<title>Node50&#45;&gt;Node52</title>
<path fill="none" stroke="#191970" d="M1187.3533,-114.1653C1112.3545,-106.4327 971.1958,-91.1463 851.4653,-74 848.6345,-73.5946 845.7264,-73.1591 842.7948,-72.7056"/>
<polygon fill="#191970" stroke="#191970" points="1187.1826,-117.6661 1197.4878,-115.2057 1187.8975,-110.7027 1187.1826,-117.6661"/>
</g>
<!-- Node53 -->
<g id="node49" class="node">
<title>Node53</title>
<g id="a_node49"><a xlink:href="_s_l_keyframe_camera_8cpp.html" target="_top" xlink:title=" ">
<polygon fill="#ffffff" stroke="#000000" points="860.7192,-55.5 860.7192,-73.5 986.2114,-73.5 986.2114,-55.5 860.7192,-55.5"/>
<text text-anchor="middle" x="923.4653" y="-61.5" font-family="Arial.ttf" font-size="10.00" fill="#000000">SLKeyframeCamera.cpp</text>
</a>
</g>
</g>
<!-- Node50&#45;&gt;Node53 -->
<g id="edge91" class="edge">
<title>Node50&#45;&gt;Node53</title>
<path fill="none" stroke="#191970" d="M1187.5264,-110.315C1128.5852,-100.0886 1033.9343,-83.6665 975.4018,-73.5111"/>
<polygon fill="#191970" stroke="#191970" points="1186.9322,-113.7641 1197.3834,-112.0252 1188.1289,-106.8672 1186.9322,-113.7641"/>
</g>
<!-- Node54 -->
<g id="node50" class="node">
<title>Node54</title>
<g id="a_node50"><a xlink:href="_s_l_ray_8cpp.html" target="_top" xlink:title=" ">
<polygon fill="#ffffff" stroke="#000000" points="1004.376,-55.5 1004.376,-73.5 1068.5547,-73.5 1068.5547,-55.5 1004.376,-55.5"/>
<text text-anchor="middle" x="1036.4653" y="-61.5" font-family="Arial.ttf" font-size="10.00" fill="#000000">SLRay.cpp</text>
</a>
</g>
</g>
<!-- Node50&#45;&gt;Node54 -->
<g id="edge99" class="edge">
<title>Node50&#45;&gt;Node54</title>
<path fill="none" stroke="#191970" d="M1196.9133,-107.758C1158.5244,-97.4081 1103.4638,-82.5633 1068.8531,-73.232"/>
<polygon fill="#191970" stroke="#191970" points="1196.2125,-111.194 1206.7789,-110.4179 1198.0348,-104.4353 1196.2125,-111.194"/>
</g>
</g>
</svg>
