<?xml version="1.0" encoding="UTF-8" standalone="no"?>
<!DOCTYPE svg PUBLIC "-//W3C//DTD SVG 1.1//EN"
 "http://www.w3.org/Graphics/SVG/1.1/DTD/svg11.dtd">
<!-- Generated by graphviz version 2.44.0 (20200408.0750)
 -->
<!-- Title: SLInputDevice.h Pages: 1 -->
<svg width="357pt" height="252pt"
 viewBox="0.00 0.00 357.00 252.00" xmlns="http://www.w3.org/2000/svg" xmlns:xlink="http://www.w3.org/1999/xlink">
<g id="graph0" class="graph" transform="scale(1 1) rotate(0) translate(4 248)">
<title>SLInputDevice.h</title>
<polygon fill="white" stroke="transparent" points="-4,4 -4,-248 353,-248 353,4 -4,4"/>
<!-- Node1 -->
<g id="node1" class="node">
<title>Node1</title>
<g id="a_node1"><a xlink:title=" ">
<polygon fill="#bfbfbf" stroke="black" points="30.5,-224.5 30.5,-243.5 119.5,-243.5 119.5,-224.5 30.5,-224.5"/>
<text text-anchor="middle" x="75" y="-231.5" font-family="Arial.ttf" font-size="10.00">SLInputDevice.h</text>
</a>
</g>
</g>
<!-- Node2 -->
<g id="node2" class="node">
<title>Node2</title>
<g id="a_node2"><a xlink:href="_s_l_8h.html" target="_top" xlink:title=" ">
<polygon fill="white" stroke="black" points="82.5,-168.5 82.5,-187.5 119.5,-187.5 119.5,-168.5 82.5,-168.5"/>
<text text-anchor="middle" x="101" y="-175.5" font-family="Arial.ttf" font-size="10.00">SL.h</text>
</a>
</g>
</g>
<!-- Node1&#45;&gt;Node2 -->
<g id="edge1" class="edge">
<title>Node1&#45;&gt;Node2</title>
<path fill="none" stroke="midnightblue" d="M79.29,-224.08C82.85,-216.69 88.02,-205.95 92.42,-196.81"/>
<polygon fill="midnightblue" stroke="midnightblue" points="95.6,-198.28 96.79,-187.75 89.29,-195.24 95.6,-198.28"/>
</g>
<!-- Node5 -->
<g id="node5" class="node">
<title>Node5</title>
<g id="a_node5"><a xlink:title=" ">
<polygon fill="white" stroke="#bfbfbf" points="0,-56.5 0,-75.5 44,-75.5 44,-56.5 0,-56.5"/>
<text text-anchor="middle" x="22" y="-63.5" font-family="Arial.ttf" font-size="10.00">vector</text>
</a>
</g>
</g>
<!-- Node1&#45;&gt;Node5 -->
<g id="edge13" class="edge">
<title>Node1&#45;&gt;Node5</title>
<path fill="none" stroke="midnightblue" d="M72.15,-224.08C63.77,-197.83 39.1,-120.55 27.78,-85.12"/>
<polygon fill="midnightblue" stroke="midnightblue" points="31.11,-84.03 24.74,-75.57 24.44,-86.16 31.11,-84.03"/>
</g>
<!-- Node3 -->
<g id="node3" class="node">
<title>Node3</title>
<g id="a_node3"><a xlink:href="_utils_8h.html" target="_top" xlink:title=" ">
<polygon fill="white" stroke="black" points="109.5,-112.5 109.5,-131.5 154.5,-131.5 154.5,-112.5 109.5,-112.5"/>
<text text-anchor="middle" x="132" y="-119.5" font-family="Arial.ttf" font-size="10.00">Utils.h</text>
</a>
</g>
</g>
<!-- Node2&#45;&gt;Node3 -->
<g id="edge2" class="edge">
<title>Node2&#45;&gt;Node3</title>
<path fill="none" stroke="midnightblue" d="M106.12,-168.08C110.41,-160.61 116.66,-149.72 121.94,-140.52"/>
<polygon fill="midnightblue" stroke="midnightblue" points="125.03,-142.17 126.98,-131.75 118.96,-138.68 125.03,-142.17"/>
</g>
<!-- Node4 -->
<g id="node4" class="node">
<title>Node4</title>
<g id="a_node4"><a xlink:title=" ">
<polygon fill="white" stroke="#bfbfbf" points="239.5,-0.5 239.5,-19.5 280.5,-19.5 280.5,-0.5 239.5,-0.5"/>
<text text-anchor="middle" x="260" y="-7.5" font-family="Arial.ttf" font-size="10.00">string</text>
</a>
</g>
</g>
<!-- Node3&#45;&gt;Node4 -->
<g id="edge3" class="edge">
<title>Node3&#45;&gt;Node4</title>
<path fill="none" stroke="midnightblue" d="M154.69,-118.25C180.45,-113.89 221.89,-102.92 245,-76 255.95,-63.24 259.31,-44.05 260.16,-29.82"/>
<polygon fill="midnightblue" stroke="midnightblue" points="263.66,-29.78 260.4,-19.7 256.66,-29.61 263.66,-29.78"/>
</g>
<!-- Node3&#45;&gt;Node5 -->
<g id="edge4" class="edge">
<title>Node3&#45;&gt;Node5</title>
<path fill="none" stroke="midnightblue" d="M114.33,-112.32C96.61,-103.62 69.1,-90.12 48.71,-80.11"/>
<polygon fill="midnightblue" stroke="midnightblue" points="50.15,-76.92 39.63,-75.65 47.06,-83.2 50.15,-76.92"/>
</g>
<!-- Node6 -->
<g id="node6" class="node">
<title>Node6</title>
<g id="a_node6"><a xlink:title=" ">
<polygon fill="white" stroke="#bfbfbf" points="62.5,-56.5 62.5,-75.5 103.5,-75.5 103.5,-56.5 62.5,-56.5"/>
<text text-anchor="middle" x="83" y="-63.5" font-family="Arial.ttf" font-size="10.00">cfloat</text>
</a>
</g>
</g>
<!-- Node3&#45;&gt;Node6 -->
<g id="edge5" class="edge">
<title>Node3&#45;&gt;Node6</title>
<path fill="none" stroke="midnightblue" d="M123.91,-112.08C116.84,-104.3 106.41,-92.8 97.85,-83.37"/>
<polygon fill="midnightblue" stroke="midnightblue" points="100.25,-80.8 90.94,-75.75 95.07,-85.51 100.25,-80.8"/>
</g>
<!-- Node7 -->
<g id="node7" class="node">
<title>Node7</title>
<g id="a_node7"><a xlink:title=" ">
<polygon fill="white" stroke="#bfbfbf" points="140,-0.5 140,-19.5 192,-19.5 192,-0.5 140,-0.5"/>
<text text-anchor="middle" x="166" y="-7.5" font-family="Arial.ttf" font-size="10.00">memory</text>
</a>
</g>
</g>
<!-- Node3&#45;&gt;Node7 -->
<g id="edge6" class="edge">
<title>Node3&#45;&gt;Node7</title>
<path fill="none" stroke="midnightblue" d="M134.48,-112.14C138.01,-99.6 144.75,-75.97 151,-56 153.77,-47.15 157,-37.37 159.76,-29.2"/>
<polygon fill="midnightblue" stroke="midnightblue" points="163.12,-30.19 163.03,-19.6 156.49,-27.94 163.12,-30.19"/>
</g>
<!-- Node8 -->
<g id="node8" class="node">
<title>Node8</title>
<g id="a_node8"><a xlink:href="_file_log_8h.html" target="_top" xlink:title=" ">
<polygon fill="white" stroke="black" points="292,-56.5 292,-75.5 348,-75.5 348,-56.5 292,-56.5"/>
<text text-anchor="middle" x="320" y="-63.5" font-family="Arial.ttf" font-size="10.00">FileLog.h</text>
</a>
</g>
</g>
<!-- Node3&#45;&gt;Node8 -->
<g id="edge7" class="edge">
<title>Node3&#45;&gt;Node8</title>
<path fill="none" stroke="midnightblue" d="M154.68,-114.49C186.23,-105.42 243.81,-88.89 281.99,-77.92"/>
<polygon fill="midnightblue" stroke="midnightblue" points="283.08,-81.25 291.73,-75.12 281.15,-74.52 283.08,-81.25"/>
</g>
<!-- Node10 -->
<g id="node10" class="node">
<title>Node10</title>
<g id="a_node10"><a xlink:href="_custom_log_8h.html" target="_top" xlink:title=" ">
<polygon fill="white" stroke="black" points="160.5,-56.5 160.5,-75.5 235.5,-75.5 235.5,-56.5 160.5,-56.5"/>
<text text-anchor="middle" x="198" y="-63.5" font-family="Arial.ttf" font-size="10.00">CustomLog.h</text>
</a>
</g>
</g>
<!-- Node3&#45;&gt;Node10 -->
<g id="edge10" class="edge">
<title>Node3&#45;&gt;Node10</title>
<path fill="none" stroke="midnightblue" d="M142.6,-112.32C152.46,-104.26 167.35,-92.08 179.22,-82.37"/>
<polygon fill="midnightblue" stroke="midnightblue" points="181.68,-84.88 187.2,-75.83 177.25,-79.46 181.68,-84.88"/>
</g>
<!-- Node8&#45;&gt;Node4 -->
<g id="edge8" class="edge">
<title>Node8&#45;&gt;Node4</title>
<path fill="none" stroke="midnightblue" d="M310.36,-56.32C301.49,-48.34 288.13,-36.31 277.39,-26.65"/>
<polygon fill="midnightblue" stroke="midnightblue" points="279.59,-23.92 269.82,-19.83 274.91,-29.13 279.59,-23.92"/>
</g>
<!-- Node9 -->
<g id="node9" class="node">
<title>Node9</title>
<g id="a_node9"><a xlink:title=" ">
<polygon fill="white" stroke="#bfbfbf" points="299,-0.5 299,-19.5 349,-19.5 349,-0.5 299,-0.5"/>
<text text-anchor="middle" x="324" y="-7.5" font-family="Arial.ttf" font-size="10.00">fstream</text>
</a>
</g>
</g>
<!-- Node8&#45;&gt;Node9 -->
<g id="edge9" class="edge">
<title>Node8&#45;&gt;Node9</title>
<path fill="none" stroke="midnightblue" d="M320.66,-56.08C321.18,-49.01 321.94,-38.86 322.59,-29.99"/>
<polygon fill="midnightblue" stroke="midnightblue" points="326.1,-29.98 323.35,-19.75 319.12,-29.47 326.1,-29.98"/>
</g>
<!-- Node10&#45;&gt;Node4 -->
<g id="edge12" class="edge">
<title>Node10&#45;&gt;Node4</title>
<path fill="none" stroke="midnightblue" d="M207.96,-56.32C217.13,-48.34 230.94,-36.31 242.03,-26.65"/>
<polygon fill="midnightblue" stroke="midnightblue" points="244.62,-29.04 249.86,-19.83 240.02,-23.76 244.62,-29.04"/>
</g>
<!-- Node10&#45;&gt;Node7 -->
<g id="edge11" class="edge">
<title>Node10&#45;&gt;Node7</title>
<path fill="none" stroke="midnightblue" d="M192.72,-56.08C188.29,-48.61 181.84,-37.72 176.38,-28.52"/>
<polygon fill="midnightblue" stroke="midnightblue" points="179.29,-26.57 171.19,-19.75 173.27,-30.14 179.29,-26.57"/>
</g>
</g>
</svg>
