<?xml version="1.0" encoding="UTF-8" standalone="no"?>
<!DOCTYPE svg PUBLIC "-//W3C//DTD SVG 1.1//EN"
 "http://www.w3.org/Graphics/SVG/1.1/DTD/svg11.dtd">
<!-- Generated by graphviz version 2.28.0 (20110507.0327)
 -->
<!-- Title: SLBox.h Pages: 1 -->
<svg width="211pt" height="84pt"
 viewBox="0.00 0.00 211.00 84.00" xmlns="http://www.w3.org/2000/svg" xmlns:xlink="http://www.w3.org/1999/xlink">
<g id="graph1" class="graph" transform="scale(1 1) rotate(0) translate(4 80)">
<title>SLBox.h</title>
<polygon fill="white" stroke="white" points="-4,5 -4,-80 208,-80 208,5 -4,5"/>
<!-- Node1 -->
<g id="node1" class="node"><title>Node1</title>
<polygon fill="#bfbfbf" stroke="black" points="60,-56.5 60,-75.5 116,-75.5 116,-56.5 60,-56.5"/>
<text text-anchor="middle" x="88" y="-63.5" font-family="Arial.ttf" font-size="10.00">SLBox.h</text>
</g>
<!-- Node2 -->
<g id="node3" class="node"><title>Node2</title>
<a xlink:href="_s_l_box_8cpp.html" target="_top" xlink:title="SLBox.cpp">
<polygon fill="white" stroke="black" points="-0.5,-0.5 -0.5,-19.5 66.5,-19.5 66.5,-0.5 -0.5,-0.5"/>
<text text-anchor="middle" x="33" y="-7.5" font-family="Arial.ttf" font-size="10.00">SLBox.cpp</text>
</a>
</g>
<!-- Node1&#45;&gt;Node2 -->
<g id="edge2" class="edge"><title>Node1&#45;&gt;Node2</title>
<path fill="none" stroke="midnightblue" d="M71.7062,-49.0024C61.9594,-39.4329 49.947,-27.6389 41.9131,-19.7511"/>
<polygon fill="midnightblue" stroke="midnightblue" points="69.3301,-51.5746 78.9179,-56.083 74.2343,-46.5796 69.3301,-51.5746"/>
</g>
<!-- Node3 -->
<g id="node5" class="node"><title>Node3</title>
<a xlink:href="_s_l_scene__on_load_8cpp.html" target="_top" xlink:title="SLScene_onLoad.cpp">
<polygon fill="white" stroke="black" points="84.5,-0.5 84.5,-19.5 203.5,-19.5 203.5,-0.5 84.5,-0.5"/>
<text text-anchor="middle" x="144" y="-7.5" font-family="Arial.ttf" font-size="10.00">SLScene_onLoad.cpp</text>
</a>
</g>
<!-- Node1&#45;&gt;Node3 -->
<g id="edge4" class="edge"><title>Node1&#45;&gt;Node3</title>
<path fill="none" stroke="midnightblue" d="M104.33,-49.2533C114.265,-39.6731 126.588,-27.7906 134.839,-19.8339"/>
<polygon fill="midnightblue" stroke="midnightblue" points="101.766,-46.8631 96.9974,-56.324 106.625,-51.902 101.766,-46.8631"/>
</g>
</g>
</svg>
