<?xml version="1.0" encoding="UTF-8" standalone="no"?>
<!DOCTYPE svg PUBLIC "-//W3C//DTD SVG 1.1//EN"
 "http://www.w3.org/Graphics/SVG/1.1/DTD/svg11.dtd">
<!-- Generated by graphviz version 2.44.0 (20200408.0750)
 -->
<!-- Title: SLTriangle.h Pages: 1 -->
<svg width="1221pt" height="868pt"
 viewBox="0.00 0.00 1220.50 868.00" xmlns="http://www.w3.org/2000/svg" xmlns:xlink="http://www.w3.org/1999/xlink">
<g id="graph0" class="graph" transform="scale(1 1) rotate(0) translate(4 864)">
<title>SLTriangle.h</title>
<polygon fill="white" stroke="transparent" points="-4,4 -4,-864 1216.5,-864 1216.5,4 -4,4"/>
<!-- Node1 -->
<g id="node1" class="node">
<title>Node1</title>
<g id="a_node1"><a xlink:title=" ">
<polygon fill="#bfbfbf" stroke="black" points="857.5,-840.5 857.5,-859.5 928.5,-859.5 928.5,-840.5 857.5,-840.5"/>
<text text-anchor="middle" x="893" y="-847.5" font-family="Arial.ttf" font-size="10.00">SLTriangle.h</text>
</a>
</g>
</g>
<!-- Node2 -->
<g id="node2" class="node">
<title>Node2</title>
<g id="a_node2"><a xlink:href="_s_l_mesh_8h.html" target="_top" xlink:title=" ">
<polygon fill="white" stroke="black" points="862.5,-784.5 862.5,-803.5 923.5,-803.5 923.5,-784.5 862.5,-784.5"/>
<text text-anchor="middle" x="893" y="-791.5" font-family="Arial.ttf" font-size="10.00">SLMesh.h</text>
</a>
</g>
</g>
<!-- Node1&#45;&gt;Node2 -->
<g id="edge1" class="edge">
<title>Node1&#45;&gt;Node2</title>
<path fill="none" stroke="midnightblue" d="M893,-840.08C893,-833.01 893,-822.86 893,-813.99"/>
<polygon fill="midnightblue" stroke="midnightblue" points="896.5,-813.75 893,-803.75 889.5,-813.75 896.5,-813.75"/>
</g>
<!-- Node3 -->
<g id="node3" class="node">
<title>Node3</title>
<g id="a_node3"><a xlink:href="_s_l_a_a_b_box_8h.html" target="_top" xlink:title=" ">
<polygon fill="white" stroke="black" points="760,-728.5 760,-747.5 834,-747.5 834,-728.5 760,-728.5"/>
<text text-anchor="middle" x="797" y="-735.5" font-family="Arial.ttf" font-size="10.00">SLAABBox.h</text>
</a>
</g>
</g>
<!-- Node2&#45;&gt;Node3 -->
<g id="edge2" class="edge">
<title>Node2&#45;&gt;Node3</title>
<path fill="none" stroke="midnightblue" d="M877.58,-784.32C862.46,-775.82 839.18,-762.73 821.53,-752.8"/>
<polygon fill="midnightblue" stroke="midnightblue" points="822.82,-749.51 812.39,-747.65 819.39,-755.61 822.82,-749.51"/>
</g>
<!-- Node5 -->
<g id="node5" class="node">
<title>Node5</title>
<g id="a_node5"><a xlink:href="_s_l_g_l_vertex_array_8h.html" target="_top" xlink:title=" ">
<polygon fill="white" stroke="black" points="521.5,-616.5 521.5,-635.5 620.5,-635.5 620.5,-616.5 521.5,-616.5"/>
<text text-anchor="middle" x="571" y="-623.5" font-family="Arial.ttf" font-size="10.00">SLGLVertexArray.h</text>
</a>
</g>
</g>
<!-- Node2&#45;&gt;Node5 -->
<g id="edge52" class="edge">
<title>Node2&#45;&gt;Node5</title>
<path fill="none" stroke="midnightblue" d="M862.4,-786C832.98,-778.65 787.69,-765.69 751,-748 687.45,-717.35 620.49,-666.74 589.17,-641.81"/>
<polygon fill="midnightblue" stroke="midnightblue" points="591.3,-639.03 581.31,-635.5 586.91,-644.49 591.3,-639.03"/>
</g>
<!-- Node28 -->
<g id="node28" class="node">
<title>Node28</title>
<g id="a_node28"><a xlink:href="_s_l_enums_8h.html" target="_top" xlink:title=" ">
<polygon fill="white" stroke="black" points="890,-728.5 890,-747.5 958,-747.5 958,-728.5 890,-728.5"/>
<text text-anchor="middle" x="924" y="-735.5" font-family="Arial.ttf" font-size="10.00">SLEnums.h</text>
</a>
</g>
</g>
<!-- Node2&#45;&gt;Node28 -->
<g id="edge51" class="edge">
<title>Node2&#45;&gt;Node28</title>
<path fill="none" stroke="midnightblue" d="M898.12,-784.08C902.41,-776.61 908.66,-765.72 913.94,-756.52"/>
<polygon fill="midnightblue" stroke="midnightblue" points="917.03,-758.17 918.98,-747.75 910.96,-754.68 917.03,-758.17"/>
</g>
<!-- Node29 -->
<g id="node29" class="node">
<title>Node29</title>
<g id="a_node29"><a xlink:href="_s_l_object_8h.html" target="_top" xlink:title=" ">
<polygon fill="white" stroke="black" points="884.5,-672.5 884.5,-691.5 949.5,-691.5 949.5,-672.5 884.5,-672.5"/>
<text text-anchor="middle" x="917" y="-679.5" font-family="Arial.ttf" font-size="10.00">SLObject.h</text>
</a>
</g>
</g>
<!-- Node2&#45;&gt;Node29 -->
<g id="edge53" class="edge">
<title>Node2&#45;&gt;Node29</title>
<path fill="none" stroke="midnightblue" d="M888.65,-784.37C882.87,-771.71 874.16,-747.49 881,-728 884.79,-717.21 892.37,-707.08 899.6,-699.18"/>
<polygon fill="midnightblue" stroke="midnightblue" points="902.33,-701.4 906.84,-691.81 897.33,-696.49 902.33,-701.4"/>
</g>
<!-- Node30 -->
<g id="node30" class="node">
<title>Node30</title>
<g id="a_node30"><a xlink:href="_s_l_optix_accel_struct_8h.html" target="_top" xlink:title=" ">
<polygon fill="white" stroke="black" points="976.5,-728.5 976.5,-747.5 1087.5,-747.5 1087.5,-728.5 976.5,-728.5"/>
<text text-anchor="middle" x="1032" y="-735.5" font-family="Arial.ttf" font-size="10.00">SLOptixAccelStruct.h</text>
</a>
</g>
</g>
<!-- Node2&#45;&gt;Node30 -->
<g id="edge55" class="edge">
<title>Node2&#45;&gt;Node30</title>
<path fill="none" stroke="midnightblue" d="M915.02,-784.44C938.1,-775.48 974.56,-761.31 1000.64,-751.18"/>
<polygon fill="midnightblue" stroke="midnightblue" points="1002.02,-754.4 1010.08,-747.52 999.49,-747.88 1002.02,-754.4"/>
</g>
<!-- Node31 -->
<g id="node31" class="node">
<title>Node31</title>
<g id="a_node31"><a xlink:href="_s_l_optix_definitions_8h.html" target="_top" xlink:title=" ">
<polygon fill="white" stroke="black" points="1105.5,-728.5 1105.5,-747.5 1212.5,-747.5 1212.5,-728.5 1105.5,-728.5"/>
<text text-anchor="middle" x="1159" y="-735.5" font-family="Arial.ttf" font-size="10.00">SLOptixDefinitions.h</text>
</a>
</g>
</g>
<!-- Node2&#45;&gt;Node31 -->
<g id="edge56" class="edge">
<title>Node2&#45;&gt;Node31</title>
<path fill="none" stroke="midnightblue" d="M923.51,-786.81C968.35,-777.7 1052.61,-760.6 1107.24,-749.51"/>
<polygon fill="midnightblue" stroke="midnightblue" points="1107.97,-752.93 1117.08,-747.51 1106.58,-746.07 1107.97,-752.93"/>
</g>
<!-- Node4 -->
<g id="node4" class="node">
<title>Node4</title>
<g id="a_node4"><a xlink:href="_s_l_g_l_vertex_array_ext_8h.html" target="_top" xlink:title=" ">
<polygon fill="white" stroke="black" points="684,-672.5 684,-691.5 800,-691.5 800,-672.5 684,-672.5"/>
<text text-anchor="middle" x="742" y="-679.5" font-family="Arial.ttf" font-size="10.00">SLGLVertexArrayExt.h</text>
</a>
</g>
</g>
<!-- Node3&#45;&gt;Node4 -->
<g id="edge3" class="edge">
<title>Node3&#45;&gt;Node4</title>
<path fill="none" stroke="midnightblue" d="M787.92,-728.08C779.83,-720.14 767.8,-708.34 758.09,-698.8"/>
<polygon fill="midnightblue" stroke="midnightblue" points="760.5,-696.26 750.91,-691.75 755.6,-701.25 760.5,-696.26"/>
</g>
<!-- Node20 -->
<g id="node20" class="node">
<title>Node20</title>
<g id="a_node20"><a xlink:href="_s_l_mat4_8h.html" target="_top" xlink:title=" ">
<polygon fill="white" stroke="black" points="438.5,-392.5 438.5,-411.5 497.5,-411.5 497.5,-392.5 438.5,-392.5"/>
<text text-anchor="middle" x="468" y="-399.5" font-family="Arial.ttf" font-size="10.00">SLMat4.h</text>
</a>
</g>
</g>
<!-- Node3&#45;&gt;Node20 -->
<g id="edge50" class="edge">
<title>Node3&#45;&gt;Node20</title>
<path fill="none" stroke="midnightblue" d="M805.45,-728.44C821.77,-710.96 856,-669.26 856,-627 856,-627 856,-627 856,-513 856,-441.22 607.12,-413.86 508.02,-405.81"/>
<polygon fill="midnightblue" stroke="midnightblue" points="508.05,-402.3 497.8,-405.01 507.5,-409.28 508.05,-402.3"/>
</g>
<!-- Node4&#45;&gt;Node5 -->
<g id="edge4" class="edge">
<title>Node4&#45;&gt;Node5</title>
<path fill="none" stroke="midnightblue" d="M714.9,-672.44C686.01,-663.32 640.08,-648.81 607.89,-638.65"/>
<polygon fill="midnightblue" stroke="midnightblue" points="608.56,-635.19 597.97,-635.52 606.45,-641.87 608.56,-635.19"/>
</g>
<!-- Node6 -->
<g id="node6" class="node">
<title>Node6</title>
<g id="a_node6"><a xlink:href="_s_l_g_l_enums_8h.html" target="_top" xlink:title=" ">
<polygon fill="white" stroke="black" points="248,-504.5 248,-523.5 328,-523.5 328,-504.5 248,-504.5"/>
<text text-anchor="middle" x="288" y="-511.5" font-family="Arial.ttf" font-size="10.00">SLGLEnums.h</text>
</a>
</g>
</g>
<!-- Node5&#45;&gt;Node6 -->
<g id="edge5" class="edge">
<title>Node5&#45;&gt;Node6</title>
<path fill="none" stroke="midnightblue" d="M548.79,-616.37C498.78,-596.93 377.21,-549.67 319.46,-527.23"/>
<polygon fill="midnightblue" stroke="midnightblue" points="320.69,-523.95 310.1,-523.59 318.16,-530.48 320.69,-523.95"/>
</g>
<!-- Node27 -->
<g id="node27" class="node">
<title>Node27</title>
<g id="a_node27"><a xlink:href="_s_l_g_l_vertex_buffer_8h.html" target="_top" xlink:title=" ">
<polygon fill="white" stroke="black" points="102.5,-560.5 102.5,-579.5 205.5,-579.5 205.5,-560.5 102.5,-560.5"/>
<text text-anchor="middle" x="154" y="-567.5" font-family="Arial.ttf" font-size="10.00">SLGLVertexBuffer.h</text>
</a>
</g>
</g>
<!-- Node5&#45;&gt;Node27 -->
<g id="edge45" class="edge">
<title>Node5&#45;&gt;Node27</title>
<path fill="none" stroke="midnightblue" d="M521.11,-618.54C444.64,-608.64 298.6,-589.72 215.62,-578.98"/>
<polygon fill="midnightblue" stroke="midnightblue" points="215.94,-575.49 205.58,-577.68 215.04,-582.43 215.94,-575.49"/>
</g>
<!-- Node7 -->
<g id="node7" class="node">
<title>Node7</title>
<g id="a_node7"><a xlink:href="_s_l_8h.html" target="_top" xlink:title=" ">
<polygon fill="white" stroke="black" points="289.5,-168.5 289.5,-187.5 326.5,-187.5 326.5,-168.5 289.5,-168.5"/>
<text text-anchor="middle" x="308" y="-175.5" font-family="Arial.ttf" font-size="10.00">SL.h</text>
</a>
</g>
</g>
<!-- Node6&#45;&gt;Node7 -->
<g id="edge6" class="edge">
<title>Node6&#45;&gt;Node7</title>
<path fill="none" stroke="midnightblue" d="M328.05,-507.42C441.58,-490.71 761.28,-437.14 822,-356 948.38,-187.11 462.29,-178.21 336.85,-178.67"/>
<polygon fill="midnightblue" stroke="midnightblue" points="336.49,-175.17 326.51,-178.73 336.53,-182.17 336.49,-175.17"/>
</g>
<!-- Node16 -->
<g id="node16" class="node">
<title>Node16</title>
<g id="a_node16"><a xlink:href="_s_l_g_l_state_8h.html" target="_top" xlink:title=" ">
<polygon fill="white" stroke="black" points="193.5,-448.5 193.5,-467.5 266.5,-467.5 266.5,-448.5 193.5,-448.5"/>
<text text-anchor="middle" x="230" y="-455.5" font-family="Arial.ttf" font-size="10.00">SLGLState.h</text>
</a>
</g>
</g>
<!-- Node6&#45;&gt;Node16 -->
<g id="edge18" class="edge">
<title>Node6&#45;&gt;Node16</title>
<path fill="none" stroke="midnightblue" d="M278.68,-504.32C270.11,-496.34 257.19,-484.31 246.81,-474.65"/>
<polygon fill="midnightblue" stroke="midnightblue" points="249.19,-472.09 239.49,-467.83 244.42,-477.21 249.19,-472.09"/>
</g>
<!-- Node8 -->
<g id="node8" class="node">
<title>Node8</title>
<g id="a_node8"><a xlink:href="_utils_8h.html" target="_top" xlink:title=" ">
<polygon fill="white" stroke="black" points="474.5,-112.5 474.5,-131.5 519.5,-131.5 519.5,-112.5 474.5,-112.5"/>
<text text-anchor="middle" x="497" y="-119.5" font-family="Arial.ttf" font-size="10.00">Utils.h</text>
</a>
</g>
</g>
<!-- Node7&#45;&gt;Node8 -->
<g id="edge7" class="edge">
<title>Node7&#45;&gt;Node8</title>
<path fill="none" stroke="midnightblue" d="M326.81,-171.62C359.02,-162.42 425.09,-143.55 464.76,-132.21"/>
<polygon fill="midnightblue" stroke="midnightblue" points="465.83,-135.55 474.49,-129.43 463.91,-128.81 465.83,-135.55"/>
</g>
<!-- Node9 -->
<g id="node9" class="node">
<title>Node9</title>
<g id="a_node9"><a xlink:title=" ">
<polygon fill="white" stroke="#bfbfbf" points="382.5,-0.5 382.5,-19.5 423.5,-19.5 423.5,-0.5 382.5,-0.5"/>
<text text-anchor="middle" x="403" y="-7.5" font-family="Arial.ttf" font-size="10.00">string</text>
</a>
</g>
</g>
<!-- Node8&#45;&gt;Node9 -->
<g id="edge8" class="edge">
<title>Node8&#45;&gt;Node9</title>
<path fill="none" stroke="midnightblue" d="M474.14,-114C455.88,-107.22 431.09,-95.11 417,-76 407.26,-62.79 404.02,-44.2 403.07,-30.28"/>
<polygon fill="midnightblue" stroke="midnightblue" points="406.55,-29.79 402.71,-19.91 399.55,-30.03 406.55,-29.79"/>
</g>
<!-- Node10 -->
<g id="node10" class="node">
<title>Node10</title>
<g id="a_node10"><a xlink:title=" ">
<polygon fill="white" stroke="#bfbfbf" points="558,-56.5 558,-75.5 602,-75.5 602,-56.5 558,-56.5"/>
<text text-anchor="middle" x="580" y="-63.5" font-family="Arial.ttf" font-size="10.00">vector</text>
</a>
</g>
</g>
<!-- Node8&#45;&gt;Node10 -->
<g id="edge9" class="edge">
<title>Node8&#45;&gt;Node10</title>
<path fill="none" stroke="midnightblue" d="M510.34,-112.32C523.16,-103.98 542.78,-91.21 557.94,-81.35"/>
<polygon fill="midnightblue" stroke="midnightblue" points="560.22,-84.04 566.7,-75.65 556.41,-78.17 560.22,-84.04"/>
</g>
<!-- Node11 -->
<g id="node11" class="node">
<title>Node11</title>
<g id="a_node11"><a xlink:title=" ">
<polygon fill="white" stroke="#bfbfbf" points="620.5,-56.5 620.5,-75.5 661.5,-75.5 661.5,-56.5 620.5,-56.5"/>
<text text-anchor="middle" x="641" y="-63.5" font-family="Arial.ttf" font-size="10.00">cfloat</text>
</a>
</g>
</g>
<!-- Node8&#45;&gt;Node11 -->
<g id="edge10" class="edge">
<title>Node8&#45;&gt;Node11</title>
<path fill="none" stroke="midnightblue" d="M519.82,-112.44C544.4,-103.23 583.62,-88.52 610.76,-78.34"/>
<polygon fill="midnightblue" stroke="midnightblue" points="612.03,-81.6 620.16,-74.82 609.57,-75.05 612.03,-81.6"/>
</g>
<!-- Node12 -->
<g id="node12" class="node">
<title>Node12</title>
<g id="a_node12"><a xlink:title=" ">
<polygon fill="white" stroke="#bfbfbf" points="473,-0.5 473,-19.5 525,-19.5 525,-0.5 473,-0.5"/>
<text text-anchor="middle" x="499" y="-7.5" font-family="Arial.ttf" font-size="10.00">memory</text>
</a>
</g>
</g>
<!-- Node8&#45;&gt;Node12 -->
<g id="edge11" class="edge">
<title>Node8&#45;&gt;Node12</title>
<path fill="none" stroke="midnightblue" d="M500.34,-112.2C503.55,-103.24 508.18,-88.88 510,-76 512.23,-60.24 508.79,-42.42 505.19,-29.43"/>
<polygon fill="midnightblue" stroke="midnightblue" points="508.51,-28.34 502.24,-19.81 501.82,-30.39 508.51,-28.34"/>
</g>
<!-- Node13 -->
<g id="node13" class="node">
<title>Node13</title>
<g id="a_node13"><a xlink:href="_file_log_8h.html" target="_top" xlink:title=" ">
<polygon fill="white" stroke="black" points="314,-56.5 314,-75.5 370,-75.5 370,-56.5 314,-56.5"/>
<text text-anchor="middle" x="342" y="-63.5" font-family="Arial.ttf" font-size="10.00">FileLog.h</text>
</a>
</g>
</g>
<!-- Node8&#45;&gt;Node13 -->
<g id="edge12" class="edge">
<title>Node8&#45;&gt;Node13</title>
<path fill="none" stroke="midnightblue" d="M474.46,-113.15C448.66,-104.16 406.12,-89.34 376.23,-78.92"/>
<polygon fill="midnightblue" stroke="midnightblue" points="377.21,-75.56 366.62,-75.58 374.91,-82.17 377.21,-75.56"/>
</g>
<!-- Node15 -->
<g id="node15" class="node">
<title>Node15</title>
<g id="a_node15"><a xlink:href="_custom_log_8h.html" target="_top" xlink:title=" ">
<polygon fill="white" stroke="black" points="426.5,-56.5 426.5,-75.5 501.5,-75.5 501.5,-56.5 426.5,-56.5"/>
<text text-anchor="middle" x="464" y="-63.5" font-family="Arial.ttf" font-size="10.00">CustomLog.h</text>
</a>
</g>
</g>
<!-- Node8&#45;&gt;Node15 -->
<g id="edge15" class="edge">
<title>Node8&#45;&gt;Node15</title>
<path fill="none" stroke="midnightblue" d="M491.55,-112.08C486.99,-104.61 480.33,-93.72 474.71,-84.52"/>
<polygon fill="midnightblue" stroke="midnightblue" points="477.55,-82.46 469.35,-75.75 471.58,-86.11 477.55,-82.46"/>
</g>
<!-- Node13&#45;&gt;Node9 -->
<g id="edge13" class="edge">
<title>Node13&#45;&gt;Node9</title>
<path fill="none" stroke="midnightblue" d="M351.8,-56.32C360.82,-48.34 374.41,-36.31 385.32,-26.65"/>
<polygon fill="midnightblue" stroke="midnightblue" points="387.85,-29.08 393.02,-19.83 383.21,-23.84 387.85,-29.08"/>
</g>
<!-- Node14 -->
<g id="node14" class="node">
<title>Node14</title>
<g id="a_node14"><a xlink:title=" ">
<polygon fill="white" stroke="#bfbfbf" points="314,-0.5 314,-19.5 364,-19.5 364,-0.5 314,-0.5"/>
<text text-anchor="middle" x="339" y="-7.5" font-family="Arial.ttf" font-size="10.00">fstream</text>
</a>
</g>
</g>
<!-- Node13&#45;&gt;Node14 -->
<g id="edge14" class="edge">
<title>Node13&#45;&gt;Node14</title>
<path fill="none" stroke="midnightblue" d="M341.5,-56.08C341.11,-49.01 340.55,-38.86 340.05,-29.99"/>
<polygon fill="midnightblue" stroke="midnightblue" points="343.54,-29.54 339.49,-19.75 336.55,-29.93 343.54,-29.54"/>
</g>
<!-- Node15&#45;&gt;Node9 -->
<g id="edge17" class="edge">
<title>Node15&#45;&gt;Node9</title>
<path fill="none" stroke="midnightblue" d="M454.2,-56.32C445.18,-48.34 431.59,-36.31 420.68,-26.65"/>
<polygon fill="midnightblue" stroke="midnightblue" points="422.79,-23.84 412.98,-19.83 418.15,-29.08 422.79,-23.84"/>
</g>
<!-- Node15&#45;&gt;Node12 -->
<g id="edge16" class="edge">
<title>Node15&#45;&gt;Node12</title>
<path fill="none" stroke="midnightblue" d="M469.78,-56.08C474.67,-48.53 481.83,-37.49 487.83,-28.23"/>
<polygon fill="midnightblue" stroke="midnightblue" points="490.83,-30.05 493.33,-19.75 484.95,-26.24 490.83,-30.05"/>
</g>
<!-- Node16&#45;&gt;Node7 -->
<g id="edge19" class="edge">
<title>Node16&#45;&gt;Node7</title>
<path fill="none" stroke="midnightblue" d="M224.72,-448.23C214.27,-430.04 192,-386.6 192,-347 192,-347 192,-347 192,-289 192,-240.55 245.95,-207.02 280.27,-190.6"/>
<polygon fill="midnightblue" stroke="midnightblue" points="281.74,-193.77 289.36,-186.42 278.81,-187.41 281.74,-193.77"/>
</g>
<!-- Node17 -->
<g id="node17" class="node">
<title>Node17</title>
<g id="a_node17"><a xlink:href="_s_l_vec3_8h.html" target="_top" xlink:title=" ">
<polygon fill="white" stroke="black" points="220.5,-280.5 220.5,-299.5 279.5,-299.5 279.5,-280.5 220.5,-280.5"/>
<text text-anchor="middle" x="250" y="-287.5" font-family="Arial.ttf" font-size="10.00">SLVec3.h</text>
</a>
</g>
</g>
<!-- Node16&#45;&gt;Node17 -->
<g id="edge20" class="edge">
<title>Node16&#45;&gt;Node17</title>
<path fill="none" stroke="midnightblue" d="M231.08,-448.08C234.22,-421.95 243.47,-345.21 247.76,-309.58"/>
<polygon fill="midnightblue" stroke="midnightblue" points="251.25,-309.92 248.97,-299.57 244.3,-309.08 251.25,-309.92"/>
</g>
<!-- Node19 -->
<g id="node19" class="node">
<title>Node19</title>
<g id="a_node19"><a xlink:href="_s_l_vec4_8h.html" target="_top" xlink:title=" ">
<polygon fill="white" stroke="black" points="66.5,-336.5 66.5,-355.5 125.5,-355.5 125.5,-336.5 66.5,-336.5"/>
<text text-anchor="middle" x="96" y="-343.5" font-family="Arial.ttf" font-size="10.00">SLVec4.h</text>
</a>
</g>
</g>
<!-- Node16&#45;&gt;Node19 -->
<g id="edge26" class="edge">
<title>Node16&#45;&gt;Node19</title>
<path fill="none" stroke="midnightblue" d="M219.49,-448.37C196.78,-429.73 142.94,-385.53 114.44,-362.13"/>
<polygon fill="midnightblue" stroke="midnightblue" points="116.42,-359.23 106.47,-355.59 111.97,-364.64 116.42,-359.23"/>
</g>
<!-- Node16&#45;&gt;Node20 -->
<g id="edge31" class="edge">
<title>Node16&#45;&gt;Node20</title>
<path fill="none" stroke="midnightblue" d="M266.67,-448.68C310.46,-438.75 383.42,-422.19 428.45,-411.97"/>
<polygon fill="midnightblue" stroke="midnightblue" points="429.46,-415.33 438.44,-409.71 427.91,-408.51 429.46,-415.33"/>
</g>
<!-- Node17&#45;&gt;Node7 -->
<g id="edge21" class="edge">
<title>Node17&#45;&gt;Node7</title>
<path fill="none" stroke="midnightblue" d="M254.55,-280.37C264.04,-262.38 286.09,-220.55 298.71,-196.63"/>
<polygon fill="midnightblue" stroke="midnightblue" points="301.9,-198.07 303.47,-187.59 295.71,-194.8 301.9,-198.07"/>
</g>
<!-- Node17&#45;&gt;Node8 -->
<g id="edge25" class="edge">
<title>Node17&#45;&gt;Node8</title>
<path fill="none" stroke="midnightblue" d="M262.93,-280.31C303.11,-253.3 426.07,-170.67 475.8,-137.25"/>
<polygon fill="midnightblue" stroke="midnightblue" points="477.85,-140.09 484.2,-131.61 473.94,-134.28 477.85,-140.09"/>
</g>
<!-- Node18 -->
<g id="node18" class="node">
<title>Node18</title>
<g id="a_node18"><a xlink:href="_s_l_vec2_8h.html" target="_top" xlink:title=" ">
<polygon fill="white" stroke="black" points="66.5,-224.5 66.5,-243.5 125.5,-243.5 125.5,-224.5 66.5,-224.5"/>
<text text-anchor="middle" x="96" y="-231.5" font-family="Arial.ttf" font-size="10.00">SLVec2.h</text>
</a>
</g>
</g>
<!-- Node17&#45;&gt;Node18 -->
<g id="edge22" class="edge">
<title>Node17&#45;&gt;Node18</title>
<path fill="none" stroke="midnightblue" d="M225.6,-280.44C199.8,-271.4 158.92,-257.06 129.98,-246.92"/>
<polygon fill="midnightblue" stroke="midnightblue" points="130.88,-243.52 120.29,-243.52 128.57,-250.13 130.88,-243.52"/>
</g>
<!-- Node18&#45;&gt;Node7 -->
<g id="edge23" class="edge">
<title>Node18&#45;&gt;Node7</title>
<path fill="none" stroke="midnightblue" d="M125.92,-225.38C166.79,-214.97 239.53,-196.44 279.58,-186.24"/>
<polygon fill="midnightblue" stroke="midnightblue" points="280.67,-189.57 289.5,-183.71 278.94,-182.79 280.67,-189.57"/>
</g>
<!-- Node18&#45;&gt;Node8 -->
<g id="edge24" class="edge">
<title>Node18&#45;&gt;Node8</title>
<path fill="none" stroke="midnightblue" d="M117.23,-224.44C151.17,-211 219.95,-184.75 280,-168 344.4,-150.04 421.36,-135.73 464.15,-128.39"/>
<polygon fill="midnightblue" stroke="midnightblue" points="464.99,-131.79 474.27,-126.67 463.82,-124.89 464.99,-131.79"/>
</g>
<!-- Node19&#45;&gt;Node7 -->
<g id="edge27" class="edge">
<title>Node19&#45;&gt;Node7</title>
<path fill="none" stroke="midnightblue" d="M99.55,-336.28C108.97,-314.2 136.72,-255.66 178,-224 194.08,-211.67 245.93,-195.92 279.09,-186.7"/>
<polygon fill="midnightblue" stroke="midnightblue" points="280.41,-189.97 289.13,-183.95 278.56,-183.22 280.41,-189.97"/>
</g>
<!-- Node19&#45;&gt;Node8 -->
<g id="edge30" class="edge">
<title>Node19&#45;&gt;Node8</title>
<path fill="none" stroke="midnightblue" d="M88.35,-336.29C70.82,-315.24 31.15,-260.59 57,-224 104.52,-156.74 370.53,-131.85 464.29,-125.09"/>
<polygon fill="midnightblue" stroke="midnightblue" points="464.61,-128.57 474.34,-124.38 464.12,-121.59 464.61,-128.57"/>
</g>
<!-- Node19&#45;&gt;Node17 -->
<g id="edge29" class="edge">
<title>Node19&#45;&gt;Node17</title>
<path fill="none" stroke="midnightblue" d="M120.4,-336.44C146.2,-327.4 187.08,-313.06 216.02,-302.92"/>
<polygon fill="midnightblue" stroke="midnightblue" points="217.43,-306.13 225.71,-299.52 215.12,-299.52 217.43,-306.13"/>
</g>
<!-- Node19&#45;&gt;Node18 -->
<g id="edge28" class="edge">
<title>Node19&#45;&gt;Node18</title>
<path fill="none" stroke="midnightblue" d="M96,-336.37C96,-318.62 96,-277.67 96,-253.6"/>
<polygon fill="midnightblue" stroke="midnightblue" points="99.5,-253.59 96,-243.59 92.5,-253.59 99.5,-253.59"/>
</g>
<!-- Node20&#45;&gt;Node7 -->
<g id="edge32" class="edge">
<title>Node20&#45;&gt;Node7</title>
<path fill="none" stroke="midnightblue" d="M438.38,-400.73C405.19,-398.69 352.44,-389.88 325,-356 287.48,-309.68 296.89,-232.53 303.78,-197.42"/>
<polygon fill="midnightblue" stroke="midnightblue" points="307.21,-198.09 305.86,-187.58 300.37,-196.64 307.21,-198.09"/>
</g>
<!-- Node20&#45;&gt;Node8 -->
<g id="edge34" class="edge">
<title>Node20&#45;&gt;Node8</title>
<path fill="none" stroke="midnightblue" d="M497.6,-399.91C572.19,-396.76 765.86,-385.85 822,-356 855.93,-337.96 879,-329.42 879,-291 879,-291 879,-291 879,-233 879,-160.64 622.69,-133.02 529.97,-125.39"/>
<polygon fill="midnightblue" stroke="midnightblue" points="530,-121.88 519.75,-124.58 529.44,-128.86 530,-121.88"/>
</g>
<!-- Node20&#45;&gt;Node17 -->
<g id="edge40" class="edge">
<title>Node20&#45;&gt;Node17</title>
<path fill="none" stroke="midnightblue" d="M438.46,-399.93C401.09,-397.21 336.29,-387.87 292,-356 275.68,-344.25 264.08,-324.03 257.27,-309.25"/>
<polygon fill="midnightblue" stroke="midnightblue" points="260.31,-307.46 253.15,-299.65 253.88,-310.22 260.31,-307.46"/>
</g>
<!-- Node20&#45;&gt;Node19 -->
<g id="edge41" class="edge">
<title>Node20&#45;&gt;Node19</title>
<path fill="none" stroke="midnightblue" d="M438.5,-396.72C372.03,-387.07 210.51,-363.62 135.5,-352.73"/>
<polygon fill="midnightblue" stroke="midnightblue" points="135.9,-349.26 125.5,-351.28 134.9,-356.18 135.9,-349.26"/>
</g>
<!-- Node21 -->
<g id="node21" class="node">
<title>Node21</title>
<g id="a_node21"><a xlink:title=" ">
<polygon fill="white" stroke="#bfbfbf" points="771.5,-336.5 771.5,-355.5 812.5,-355.5 812.5,-336.5 771.5,-336.5"/>
<text text-anchor="middle" x="792" y="-343.5" font-family="Arial.ttf" font-size="10.00">stack</text>
</a>
</g>
</g>
<!-- Node20&#45;&gt;Node21 -->
<g id="edge33" class="edge">
<title>Node20&#45;&gt;Node21</title>
<path fill="none" stroke="midnightblue" d="M497.58,-397.97C549.37,-392.35 659.88,-378.94 761.4,-356.11"/>
<polygon fill="midnightblue" stroke="midnightblue" points="762.22,-359.51 771.19,-353.87 760.66,-352.68 762.22,-359.51"/>
</g>
<!-- Node22 -->
<g id="node22" class="node">
<title>Node22</title>
<g id="a_node22"><a xlink:href="_s_l_mat3_8h.html" target="_top" xlink:title=" ">
<polygon fill="white" stroke="black" points="694.5,-336.5 694.5,-355.5 753.5,-355.5 753.5,-336.5 694.5,-336.5"/>
<text text-anchor="middle" x="724" y="-343.5" font-family="Arial.ttf" font-size="10.00">SLMat3.h</text>
</a>
</g>
</g>
<!-- Node20&#45;&gt;Node22 -->
<g id="edge35" class="edge">
<title>Node20&#45;&gt;Node22</title>
<path fill="none" stroke="midnightblue" d="M497.53,-395.09C537.53,-387.05 611.4,-372.02 684.38,-356.1"/>
<polygon fill="midnightblue" stroke="midnightblue" points="685.18,-359.5 694.2,-353.95 683.69,-352.67 685.18,-359.5"/>
</g>
<!-- Node24 -->
<g id="node24" class="node">
<title>Node24</title>
<g id="a_node24"><a xlink:title=" ">
<polygon fill="white" stroke="#bfbfbf" points="334,-336.5 334,-355.5 386,-355.5 386,-336.5 334,-336.5"/>
<text text-anchor="middle" x="360" y="-343.5" font-family="Arial.ttf" font-size="10.00">assert.h</text>
</a>
</g>
</g>
<!-- Node20&#45;&gt;Node24 -->
<g id="edge42" class="edge">
<title>Node20&#45;&gt;Node24</title>
<path fill="none" stroke="midnightblue" d="M450.65,-392.32C433.33,-383.66 406.48,-370.24 386.5,-360.25"/>
<polygon fill="midnightblue" stroke="midnightblue" points="387.82,-357 377.31,-355.65 384.69,-363.26 387.82,-357"/>
</g>
<!-- Node25 -->
<g id="node25" class="node">
<title>Node25</title>
<g id="a_node25"><a xlink:title=" ">
<polygon fill="white" stroke="#bfbfbf" points="404.5,-336.5 404.5,-355.5 531.5,-355.5 531.5,-336.5 404.5,-336.5"/>
<text text-anchor="middle" x="468" y="-343.5" font-family="Arial.ttf" font-size="10.00">Shoemake/Decompose.h</text>
</a>
</g>
</g>
<!-- Node20&#45;&gt;Node25 -->
<g id="edge43" class="edge">
<title>Node20&#45;&gt;Node25</title>
<path fill="none" stroke="midnightblue" d="M468,-392.08C468,-385.01 468,-374.86 468,-365.99"/>
<polygon fill="midnightblue" stroke="midnightblue" points="471.5,-365.75 468,-355.75 464.5,-365.75 471.5,-365.75"/>
</g>
<!-- Node26 -->
<g id="node26" class="node">
<title>Node26</title>
<g id="a_node26"><a xlink:title=" ">
<polygon fill="white" stroke="#bfbfbf" points="549.5,-336.5 549.5,-355.5 676.5,-355.5 676.5,-336.5 549.5,-336.5"/>
<text text-anchor="middle" x="613" y="-343.5" font-family="Arial.ttf" font-size="10.00">Shoemake/EulerAngles.h</text>
</a>
</g>
</g>
<!-- Node20&#45;&gt;Node26 -->
<g id="edge44" class="edge">
<title>Node20&#45;&gt;Node26</title>
<path fill="none" stroke="midnightblue" d="M490.98,-392.44C515.16,-383.44 553.42,-369.19 580.65,-359.05"/>
<polygon fill="midnightblue" stroke="midnightblue" points="581.98,-362.29 590.13,-355.52 579.54,-355.73 581.98,-362.29"/>
</g>
<!-- Node22&#45;&gt;Node7 -->
<g id="edge36" class="edge">
<title>Node22&#45;&gt;Node7</title>
<path fill="none" stroke="midnightblue" d="M702.51,-336.42C633.09,-308.72 414.79,-221.61 336.39,-190.33"/>
<polygon fill="midnightblue" stroke="midnightblue" points="337.29,-186.92 326.7,-186.46 334.69,-193.42 337.29,-186.92"/>
</g>
<!-- Node22&#45;&gt;Node8 -->
<g id="edge37" class="edge">
<title>Node22&#45;&gt;Node8</title>
<path fill="none" stroke="midnightblue" d="M724.53,-336.28C724.91,-323.09 723.98,-297.7 713,-280 667.75,-207.01 574.89,-157.45 527.01,-135.63"/>
<polygon fill="midnightblue" stroke="midnightblue" points="528.35,-132.39 517.79,-131.51 525.5,-138.78 528.35,-132.39"/>
</g>
<!-- Node22&#45;&gt;Node17 -->
<g id="edge38" class="edge">
<title>Node22&#45;&gt;Node17</title>
<path fill="none" stroke="midnightblue" d="M694.27,-337.74C691.15,-337.1 688.02,-336.5 685,-336 540.51,-311.95 366.75,-298.59 289.89,-293.47"/>
<polygon fill="midnightblue" stroke="midnightblue" points="289.91,-289.96 279.71,-292.8 289.46,-296.95 289.91,-289.96"/>
</g>
<!-- Node23 -->
<g id="node23" class="node">
<title>Node23</title>
<g id="a_node23"><a xlink:title=" ">
<polygon fill="white" stroke="#bfbfbf" points="650,-280.5 650,-299.5 704,-299.5 704,-280.5 650,-280.5"/>
<text text-anchor="middle" x="677" y="-287.5" font-family="Arial.ttf" font-size="10.00">iostream</text>
</a>
</g>
</g>
<!-- Node22&#45;&gt;Node23 -->
<g id="edge39" class="edge">
<title>Node22&#45;&gt;Node23</title>
<path fill="none" stroke="midnightblue" d="M716.24,-336.08C709.46,-328.3 699.46,-316.8 691.24,-307.37"/>
<polygon fill="midnightblue" stroke="midnightblue" points="693.82,-305 684.62,-299.75 688.54,-309.59 693.82,-305"/>
</g>
<!-- Node27&#45;&gt;Node6 -->
<g id="edge46" class="edge">
<title>Node27&#45;&gt;Node6</title>
<path fill="none" stroke="midnightblue" d="M175.23,-560.44C197.38,-551.52 232.32,-537.44 257.44,-527.32"/>
<polygon fill="midnightblue" stroke="midnightblue" points="258.9,-530.5 266.87,-523.52 256.28,-524.01 258.9,-530.5"/>
</g>
<!-- Node27&#45;&gt;Node17 -->
<g id="edge48" class="edge">
<title>Node27&#45;&gt;Node17</title>
<path fill="none" stroke="midnightblue" d="M154,-560.44C154,-541.94 154,-496.81 154,-459 154,-459 154,-459 154,-401 154,-357.54 197.06,-322.96 225.5,-304.85"/>
<polygon fill="midnightblue" stroke="midnightblue" points="227.44,-307.77 234.15,-299.56 223.79,-301.79 227.44,-307.77"/>
</g>
<!-- Node27&#45;&gt;Node18 -->
<g id="edge47" class="edge">
<title>Node27&#45;&gt;Node18</title>
<path fill="none" stroke="midnightblue" d="M118.28,-560.43C72.79,-547.13 0,-516.83 0,-459 0,-459 0,-459 0,-345 0,-301.54 43.06,-266.96 71.5,-248.85"/>
<polygon fill="midnightblue" stroke="midnightblue" points="73.44,-251.77 80.15,-243.56 69.79,-245.79 73.44,-251.77"/>
</g>
<!-- Node27&#45;&gt;Node19 -->
<g id="edge49" class="edge">
<title>Node27&#45;&gt;Node19</title>
<path fill="none" stroke="midnightblue" d="M151.17,-560.42C148.23,-551.39 143.57,-536.77 140,-524 123.91,-466.44 107.63,-397.54 100.18,-365.31"/>
<polygon fill="midnightblue" stroke="midnightblue" points="103.58,-364.48 97.93,-355.52 96.76,-366.05 103.58,-364.48"/>
</g>
<!-- Node29&#45;&gt;Node7 -->
<g id="edge54" class="edge">
<title>Node29&#45;&gt;Node7</title>
<path fill="none" stroke="midnightblue" d="M917,-672.44C917,-653.94 917,-608.81 917,-571 917,-571 917,-571 917,-289 917,-225.2 850.29,-241.73 789,-224 703.16,-199.17 426.96,-184.5 336.78,-180.28"/>
<polygon fill="midnightblue" stroke="midnightblue" points="336.88,-176.78 326.73,-179.81 336.56,-183.77 336.88,-176.78"/>
</g>
</g>
</svg>
