<?xml version="1.0" encoding="UTF-8" standalone="no"?>
<!DOCTYPE svg PUBLIC "-//W3C//DTD SVG 1.1//EN"
 "http://www.w3.org/Graphics/SVG/1.1/DTD/svg11.dtd">
<!-- Generated by graphviz version 2.44.0 (20200408.0750)
 -->
<!-- Title: SLPlane.h Pages: 1 -->
<svg width="2923pt" height="364pt"
 viewBox="0.00 0.00 2922.50 364.00" xmlns="http://www.w3.org/2000/svg" xmlns:xlink="http://www.w3.org/1999/xlink">
<g id="graph0" class="graph" transform="scale(1 1) rotate(0) translate(4 360)">
<title>SLPlane.h</title>
<polygon fill="white" stroke="transparent" points="-4,4 -4,-360 2918.5,-360 2918.5,4 -4,4"/>
<!-- Node1 -->
<g id="node1" class="node">
<title>Node1</title>
<g id="a_node1"><a xlink:title=" ">
<polygon fill="#bfbfbf" stroke="black" points="1840.5,-336.5 1840.5,-355.5 1902.5,-355.5 1902.5,-336.5 1840.5,-336.5"/>
<text text-anchor="middle" x="1871.5" y="-343.5" font-family="Arial.ttf" font-size="10.00">SLPlane.h</text>
</a>
</g>
</g>
<!-- Node2 -->
<g id="node2" class="node">
<title>Node2</title>
<g id="a_node2"><a xlink:href="_s_l_plane_8cpp.html" target="_top" xlink:title=" ">
<polygon fill="white" stroke="black" points="1790.5,-280.5 1790.5,-299.5 1862.5,-299.5 1862.5,-280.5 1790.5,-280.5"/>
<text text-anchor="middle" x="1826.5" y="-287.5" font-family="Arial.ttf" font-size="10.00">SLPlane.cpp</text>
</a>
</g>
</g>
<!-- Node1&#45;&gt;Node2 -->
<g id="edge1" class="edge">
<title>Node1&#45;&gt;Node2</title>
<path fill="none" stroke="midnightblue" d="M1857.45,-328.14C1849.61,-318.74 1840.17,-307.4 1833.79,-299.75"/>
<polygon fill="midnightblue" stroke="midnightblue" points="1854.98,-330.64 1864.07,-336.08 1860.36,-326.16 1854.98,-330.64"/>
</g>
<!-- Node3 -->
<g id="node3" class="node">
<title>Node3</title>
<g id="a_node3"><a xlink:href="_s_l_camera_8h.html" target="_top" xlink:title=" ">
<polygon fill="white" stroke="black" points="1881,-280.5 1881,-299.5 1952,-299.5 1952,-280.5 1881,-280.5"/>
<text text-anchor="middle" x="1916.5" y="-287.5" font-family="Arial.ttf" font-size="10.00">SLCamera.h</text>
</a>
</g>
</g>
<!-- Node1&#45;&gt;Node3 -->
<g id="edge2" class="edge">
<title>Node1&#45;&gt;Node3</title>
<path fill="none" stroke="midnightblue" d="M1885.55,-328.14C1893.39,-318.74 1902.83,-307.4 1909.21,-299.75"/>
<polygon fill="midnightblue" stroke="midnightblue" points="1882.64,-326.16 1878.93,-336.08 1888.02,-330.64 1882.64,-326.16"/>
</g>
<!-- Node4 -->
<g id="node4" class="node">
<title>Node4</title>
<g id="a_node4"><a xlink:href="_s_l_skybox_8cpp.html" target="_top" xlink:title=" ">
<polygon fill="white" stroke="black" points="178.5,-56.5 178.5,-75.5 258.5,-75.5 258.5,-56.5 178.5,-56.5"/>
<text text-anchor="middle" x="218.5" y="-63.5" font-family="Arial.ttf" font-size="10.00">SLSkybox.cpp</text>
</a>
</g>
</g>
<!-- Node3&#45;&gt;Node4 -->
<g id="edge3" class="edge">
<title>Node3&#45;&gt;Node4</title>
<path fill="none" stroke="midnightblue" d="M1870.76,-280.05C1180.83,-180.55 963.24,-369.41 312.5,-132 277.46,-119.22 243.19,-90.15 227.46,-75.62"/>
<polygon fill="midnightblue" stroke="midnightblue" points="1870.3,-283.52 1880.7,-281.49 1871.31,-276.59 1870.3,-283.52"/>
</g>
<!-- Node5 -->
<g id="node5" class="node">
<title>Node5</title>
<g id="a_node5"><a xlink:href="_s_l_pathtracer_8cpp.html" target="_top" xlink:title=" ">
<polygon fill="white" stroke="black" points="1248.5,-56.5 1248.5,-75.5 1340.5,-75.5 1340.5,-56.5 1248.5,-56.5"/>
<text text-anchor="middle" x="1294.5" y="-63.5" font-family="Arial.ttf" font-size="10.00">SLPathtracer.cpp</text>
</a>
</g>
</g>
<!-- Node3&#45;&gt;Node5 -->
<g id="edge4" class="edge">
<title>Node3&#45;&gt;Node5</title>
<path fill="none" stroke="midnightblue" d="M1903.04,-272.15C1872.68,-235.53 1794.65,-149 1707.5,-112 1560.3,-49.51 1508.04,-96.92 1349.5,-76 1346.62,-75.62 1343.66,-75.21 1340.68,-74.77"/>
<polygon fill="midnightblue" stroke="midnightblue" points="1900.68,-274.79 1909.71,-280.33 1906.1,-270.37 1900.68,-274.79"/>
</g>
<!-- Node6 -->
<g id="node6" class="node">
<title>Node6</title>
<g id="a_node6"><a xlink:href="_s_l_scene_view_8cpp.html" target="_top" xlink:title=" ">
<polygon fill="white" stroke="black" points="2469,-56.5 2469,-75.5 2564,-75.5 2564,-56.5 2469,-56.5"/>
<text text-anchor="middle" x="2516.5" y="-63.5" font-family="Arial.ttf" font-size="10.00">SLSceneView.cpp</text>
</a>
</g>
</g>
<!-- Node3&#45;&gt;Node6 -->
<g id="edge5" class="edge">
<title>Node3&#45;&gt;Node6</title>
<path fill="none" stroke="midnightblue" d="M1945.57,-276.48C2016.43,-246.18 2204.04,-167.33 2364.5,-112 2405.61,-97.83 2453.87,-84.01 2484.8,-75.5"/>
<polygon fill="midnightblue" stroke="midnightblue" points="1944.17,-273.27 1936.36,-280.42 1946.93,-279.7 1944.17,-273.27"/>
</g>
<!-- Node7 -->
<g id="node7" class="node">
<title>Node7</title>
<g id="a_node7"><a xlink:href="_s_l_uniform_grid_8cpp.html" target="_top" xlink:title=" ">
<polygon fill="white" stroke="black" points="2582.5,-56.5 2582.5,-75.5 2682.5,-75.5 2682.5,-56.5 2582.5,-56.5"/>
<text text-anchor="middle" x="2632.5" y="-63.5" font-family="Arial.ttf" font-size="10.00">SLUniformGrid.cpp</text>
</a>
</g>
</g>
<!-- Node3&#45;&gt;Node7 -->
<g id="edge6" class="edge">
<title>Node3&#45;&gt;Node7</title>
<path fill="none" stroke="midnightblue" d="M1958.81,-277.86C2050.39,-253.49 2273.56,-192.76 2457.5,-132 2513.51,-113.5 2578.33,-88.45 2611.13,-75.52"/>
<polygon fill="midnightblue" stroke="midnightblue" points="1957.84,-274.49 1949.07,-280.44 1959.64,-281.26 1957.84,-274.49"/>
</g>
<!-- Node8 -->
<g id="node8" class="node">
<title>Node8</title>
<g id="a_node8"><a xlink:href="_s_l_g_l_oculus_8h.html" target="_top" xlink:title=" ">
<polygon fill="white" stroke="black" points="67.5,-224.5 67.5,-243.5 147.5,-243.5 147.5,-224.5 67.5,-224.5"/>
<text text-anchor="middle" x="107.5" y="-231.5" font-family="Arial.ttf" font-size="10.00">SLGLOculus.h</text>
</a>
</g>
</g>
<!-- Node3&#45;&gt;Node8 -->
<g id="edge7" class="edge">
<title>Node3&#45;&gt;Node8</title>
<path fill="none" stroke="midnightblue" d="M1870.71,-280.16C1116.34,-198.34 918.31,-309 166.5,-244 160.41,-243.47 153.99,-242.71 147.72,-241.85"/>
<polygon fill="midnightblue" stroke="midnightblue" points="1870.41,-283.65 1880.73,-281.25 1871.17,-276.69 1870.41,-283.65"/>
</g>
<!-- Node47 -->
<g id="node47" class="node">
<title>Node47</title>
<g id="a_node47"><a xlink:href="_s_l_g_l_oculus_f_b_8h.html" target="_top" xlink:title=" ">
<polygon fill="white" stroke="black" points="1870,-168.5 1870,-187.5 1963,-187.5 1963,-168.5 1870,-168.5"/>
<text text-anchor="middle" x="1916.5" y="-175.5" font-family="Arial.ttf" font-size="10.00">SLGLOculusFB.h</text>
</a>
</g>
</g>
<!-- Node3&#45;&gt;Node47 -->
<g id="edge61" class="edge">
<title>Node3&#45;&gt;Node47</title>
<path fill="none" stroke="midnightblue" d="M1916.5,-270.35C1916.5,-246.25 1916.5,-205.31 1916.5,-187.59"/>
<polygon fill="midnightblue" stroke="midnightblue" points="1913,-270.37 1916.5,-280.37 1920,-270.37 1913,-270.37"/>
</g>
<!-- Node48 -->
<g id="node48" class="node">
<title>Node48</title>
<g id="a_node48"><a xlink:href="_s_l_keyframe_camera_8h.html" target="_top" xlink:title=" ">
<polygon fill="white" stroke="black" points="2588,-168.5 2588,-187.5 2701,-187.5 2701,-168.5 2588,-168.5"/>
<text text-anchor="middle" x="2644.5" y="-175.5" font-family="Arial.ttf" font-size="10.00">SLKeyframeCamera.h</text>
</a>
</g>
</g>
<!-- Node3&#45;&gt;Node48 -->
<g id="edge64" class="edge">
<title>Node3&#45;&gt;Node48</title>
<path fill="none" stroke="midnightblue" d="M1962.41,-288.52C2087.5,-286.75 2432.13,-278.77 2539.5,-244 2577.85,-231.58 2616.5,-202.35 2634.33,-187.69"/>
<polygon fill="midnightblue" stroke="midnightblue" points="1962.34,-285.02 1952.39,-288.65 1962.44,-292.02 1962.34,-285.02"/>
</g>
<!-- Node9 -->
<g id="node9" class="node">
<title>Node9</title>
<g id="a_node9"><a xlink:href="_s_l_g_l_oculus_8cpp.html" target="_top" xlink:title=" ">
<polygon fill="white" stroke="black" points="0,-56.5 0,-75.5 91,-75.5 91,-56.5 0,-56.5"/>
<text text-anchor="middle" x="45.5" y="-63.5" font-family="Arial.ttf" font-size="10.00">SLGLOculus.cpp</text>
</a>
</g>
</g>
<!-- Node8&#45;&gt;Node9 -->
<g id="edge8" class="edge">
<title>Node8&#45;&gt;Node9</title>
<path fill="none" stroke="midnightblue" d="M87.87,-218.01C66.36,-200.21 33.11,-168.34 19.5,-132 11.91,-111.74 27.45,-88.23 37.62,-75.78"/>
<polygon fill="midnightblue" stroke="midnightblue" points="85.75,-220.79 95.74,-224.33 90.13,-215.34 85.75,-220.79"/>
</g>
<!-- Node10 -->
<g id="node10" class="node">
<title>Node10</title>
<g id="a_node10"><a xlink:href="_s_l_g_l_o_v_r_workaround_8h.html" target="_top" xlink:title=" ">
<polygon fill="white" stroke="black" points="29,-112.5 29,-131.5 152,-131.5 152,-112.5 29,-112.5"/>
<text text-anchor="middle" x="90.5" y="-119.5" font-family="Arial.ttf" font-size="10.00">SLGLOVRWorkaround.h</text>
</a>
</g>
</g>
<!-- Node8&#45;&gt;Node10 -->
<g id="edge9" class="edge">
<title>Node8&#45;&gt;Node10</title>
<path fill="none" stroke="midnightblue" d="M104.62,-214.35C100.89,-190.25 94.57,-149.31 91.83,-131.59"/>
<polygon fill="midnightblue" stroke="midnightblue" points="101.18,-215.02 106.17,-224.37 108.1,-213.95 101.18,-215.02"/>
</g>
<!-- Node11 -->
<g id="node11" class="node">
<title>Node11</title>
<g id="a_node11"><a xlink:href="_s_l_scene_8h.html" target="_top" xlink:title=" ">
<polygon fill="white" stroke="black" points="925,-168.5 925,-187.5 990,-187.5 990,-168.5 925,-168.5"/>
<text text-anchor="middle" x="957.5" y="-175.5" font-family="Arial.ttf" font-size="10.00">SLScene.h</text>
</a>
</g>
</g>
<!-- Node8&#45;&gt;Node11 -->
<g id="edge11" class="edge">
<title>Node8&#45;&gt;Node11</title>
<path fill="none" stroke="midnightblue" d="M157.98,-229.79C315.48,-219.79 795.07,-189.32 924.83,-181.08"/>
<polygon fill="midnightblue" stroke="midnightblue" points="157.4,-226.32 147.64,-230.45 157.84,-233.31 157.4,-226.32"/>
</g>
<!-- Node10&#45;&gt;Node9 -->
<g id="edge10" class="edge">
<title>Node10&#45;&gt;Node9</title>
<path fill="none" stroke="midnightblue" d="M76.45,-104.14C68.61,-94.74 59.17,-83.4 52.79,-75.75"/>
<polygon fill="midnightblue" stroke="midnightblue" points="73.98,-106.64 83.07,-112.08 79.36,-102.16 73.98,-106.64"/>
</g>
<!-- Node11&#45;&gt;Node4 -->
<g id="edge19" class="edge">
<title>Node11&#45;&gt;Node4</title>
<path fill="none" stroke="midnightblue" d="M914.73,-175.5C797.97,-171.11 475.56,-157.01 372.5,-132 319.48,-119.13 261.28,-90.11 234.1,-75.6"/>
<polygon fill="midnightblue" stroke="midnightblue" points="914.61,-178.99 924.73,-175.87 914.87,-172 914.61,-178.99"/>
</g>
<!-- Node11&#45;&gt;Node10 -->
<g id="edge31" class="edge">
<title>Node11&#45;&gt;Node10</title>
<path fill="none" stroke="midnightblue" d="M914.68,-174.73C799.71,-168.57 474.67,-150.74 204.5,-132 187.47,-130.82 169.01,-129.42 152.01,-128.07"/>
<polygon fill="midnightblue" stroke="midnightblue" points="914.65,-178.23 924.83,-175.27 915.03,-171.24 914.65,-178.23"/>
</g>
<!-- Node12 -->
<g id="node12" class="node">
<title>Node12</title>
<g id="a_node12"><a xlink:href="_s_l_g_l_im_gui_8cpp.html" target="_top" xlink:title=" ">
<polygon fill="white" stroke="black" points="1144.5,-56.5 1144.5,-75.5 1230.5,-75.5 1230.5,-56.5 1144.5,-56.5"/>
<text text-anchor="middle" x="1187.5" y="-63.5" font-family="Arial.ttf" font-size="10.00">SLGLImGui.cpp</text>
</a>
</g>
</g>
<!-- Node11&#45;&gt;Node12 -->
<g id="edge12" class="edge">
<title>Node11&#45;&gt;Node12</title>
<path fill="none" stroke="midnightblue" d="M1000.52,-175.97C1153.85,-172.07 1665.78,-157.22 1689.5,-132 1758.54,-58.59 1339.48,-88.62 1239.5,-76 1236.59,-75.63 1233.6,-75.22 1230.58,-74.77"/>
<polygon fill="midnightblue" stroke="midnightblue" points="1000.02,-172.48 990.11,-176.23 1000.19,-179.47 1000.02,-172.48"/>
</g>
<!-- Node13 -->
<g id="node13" class="node">
<title>Node13</title>
<g id="a_node13"><a xlink:href="_s_l_g_l_oculus_f_b_8cpp.html" target="_top" xlink:title=" ">
<polygon fill="white" stroke="black" points="1918.5,-112.5 1918.5,-131.5 2022.5,-131.5 2022.5,-112.5 1918.5,-112.5"/>
<text text-anchor="middle" x="1970.5" y="-119.5" font-family="Arial.ttf" font-size="10.00">SLGLOculusFB.cpp</text>
</a>
</g>
</g>
<!-- Node11&#45;&gt;Node13 -->
<g id="edge13" class="edge">
<title>Node11&#45;&gt;Node13</title>
<path fill="none" stroke="midnightblue" d="M1000.27,-176.45C1134.43,-174.41 1558.88,-165.57 1908.5,-132 1911.75,-131.69 1915.09,-131.33 1918.45,-130.93"/>
<polygon fill="midnightblue" stroke="midnightblue" points="999.96,-172.96 990.01,-176.6 1000.06,-179.95 999.96,-172.96"/>
</g>
<!-- Node14 -->
<g id="node14" class="node">
<title>Node14</title>
<g id="a_node14"><a xlink:href="_s_l_g_l_program_8cpp.html" target="_top" xlink:title=" ">
<polygon fill="white" stroke="black" points="437,-112.5 437,-131.5 534,-131.5 534,-112.5 437,-112.5"/>
<text text-anchor="middle" x="485.5" y="-119.5" font-family="Arial.ttf" font-size="10.00">SLGLProgram.cpp</text>
</a>
</g>
</g>
<!-- Node11&#45;&gt;Node14 -->
<g id="edge14" class="edge">
<title>Node11&#45;&gt;Node14</title>
<path fill="none" stroke="midnightblue" d="M914.95,-173.02C839.84,-165.86 678.88,-149.85 543.5,-132 540.47,-131.6 537.35,-131.17 534.21,-130.72"/>
<polygon fill="midnightblue" stroke="midnightblue" points="914.68,-176.51 924.97,-173.97 915.34,-169.54 914.68,-176.51"/>
</g>
<!-- Node15 -->
<g id="node15" class="node">
<title>Node15</title>
<g id="a_node15"><a xlink:href="_s_l_g_l_texture_8cpp.html" target="_top" xlink:title=" ">
<polygon fill="white" stroke="black" points="552.5,-112.5 552.5,-131.5 644.5,-131.5 644.5,-112.5 552.5,-112.5"/>
<text text-anchor="middle" x="598.5" y="-119.5" font-family="Arial.ttf" font-size="10.00">SLGLTexture.cpp</text>
</a>
</g>
</g>
<!-- Node11&#45;&gt;Node15 -->
<g id="edge15" class="edge">
<title>Node11&#45;&gt;Node15</title>
<path fill="none" stroke="midnightblue" d="M914.58,-170.86C855.68,-162.38 746.5,-146.49 653.5,-132 650.63,-131.55 647.68,-131.09 644.71,-130.61"/>
<polygon fill="midnightblue" stroke="midnightblue" points="914.24,-174.34 924.64,-172.3 915.24,-167.42 914.24,-174.34"/>
</g>
<!-- Node16 -->
<g id="node16" class="node">
<title>Node16</title>
<g id="a_node16"><a xlink:href="_s_l_g_l_vertex_array_8cpp.html" target="_top" xlink:title=" ">
<polygon fill="white" stroke="black" points="662.5,-112.5 662.5,-131.5 772.5,-131.5 772.5,-112.5 662.5,-112.5"/>
<text text-anchor="middle" x="717.5" y="-119.5" font-family="Arial.ttf" font-size="10.00">SLGLVertexArray.cpp</text>
</a>
</g>
</g>
<!-- Node11&#45;&gt;Node16 -->
<g id="edge16" class="edge">
<title>Node11&#45;&gt;Node16</title>
<path fill="none" stroke="midnightblue" d="M915.1,-167.46C869.92,-157.29 799.05,-141.35 755.59,-131.57"/>
<polygon fill="midnightblue" stroke="midnightblue" points="914.36,-170.88 924.88,-169.66 915.89,-164.05 914.36,-170.88"/>
</g>
<!-- Node17 -->
<g id="node17" class="node">
<title>Node17</title>
<g id="a_node17"><a xlink:href="_s_l_curve_bezier_8cpp.html" target="_top" xlink:title=" ">
<polygon fill="white" stroke="black" points="791,-112.5 791,-131.5 892,-131.5 892,-112.5 791,-112.5"/>
<text text-anchor="middle" x="841.5" y="-119.5" font-family="Arial.ttf" font-size="10.00">SLCurveBezier.cpp</text>
</a>
</g>
</g>
<!-- Node11&#45;&gt;Node17 -->
<g id="edge17" class="edge">
<title>Node11&#45;&gt;Node17</title>
<path fill="none" stroke="midnightblue" d="M929.78,-164.1C908.11,-154.01 878.6,-140.27 859.79,-131.52"/>
<polygon fill="midnightblue" stroke="midnightblue" points="928.58,-167.4 939.12,-168.44 931.53,-161.05 928.58,-167.4"/>
</g>
<!-- Node18 -->
<g id="node18" class="node">
<title>Node18</title>
<g id="a_node18"><a xlink:href="_s_l_application_8cpp.html" target="_top" xlink:title=" ">
<polygon fill="white" stroke="black" points="910,-112.5 910,-131.5 1005,-131.5 1005,-112.5 910,-112.5"/>
<text text-anchor="middle" x="957.5" y="-119.5" font-family="Arial.ttf" font-size="10.00">SLApplication.cpp</text>
</a>
</g>
</g>
<!-- Node11&#45;&gt;Node18 -->
<g id="edge18" class="edge">
<title>Node11&#45;&gt;Node18</title>
<path fill="none" stroke="midnightblue" d="M957.5,-157.8C957.5,-148.91 957.5,-138.78 957.5,-131.75"/>
<polygon fill="midnightblue" stroke="midnightblue" points="954,-158.08 957.5,-168.08 961,-158.08 954,-158.08"/>
</g>
<!-- Node19 -->
<g id="node19" class="node">
<title>Node19</title>
<g id="a_node19"><a xlink:href="_s_l_tex_font_8cpp.html" target="_top" xlink:title=" ">
<polygon fill="white" stroke="black" points="1023,-112.5 1023,-131.5 1106,-131.5 1106,-112.5 1023,-112.5"/>
<text text-anchor="middle" x="1064.5" y="-119.5" font-family="Arial.ttf" font-size="10.00">SLTexFont.cpp</text>
</a>
</g>
</g>
<!-- Node11&#45;&gt;Node19 -->
<g id="edge20" class="edge">
<title>Node11&#45;&gt;Node19</title>
<path fill="none" stroke="midnightblue" d="M983.8,-163.73C1003.61,-153.73 1030.21,-140.31 1047.35,-131.65"/>
<polygon fill="midnightblue" stroke="midnightblue" points="982.04,-160.69 974.69,-168.32 985.2,-166.94 982.04,-160.69"/>
</g>
<!-- Node20 -->
<g id="node20" class="node">
<title>Node20</title>
<g id="a_node20"><a xlink:href="_s_l_a_a_b_box_8cpp.html" target="_top" xlink:title=" ">
<polygon fill="white" stroke="black" points="1124,-112.5 1124,-131.5 1209,-131.5 1209,-112.5 1124,-112.5"/>
<text text-anchor="middle" x="1166.5" y="-119.5" font-family="Arial.ttf" font-size="10.00">SLAABBox.cpp</text>
</a>
</g>
</g>
<!-- Node11&#45;&gt;Node20 -->
<g id="edge21" class="edge">
<title>Node11&#45;&gt;Node20</title>
<path fill="none" stroke="midnightblue" d="M1000.01,-166.02C1039.43,-155.83 1097.29,-140.88 1133.38,-131.56"/>
<polygon fill="midnightblue" stroke="midnightblue" points="998.96,-162.67 990.16,-168.56 1000.71,-169.45 998.96,-162.67"/>
</g>
<!-- Node21 -->
<g id="node21" class="node">
<title>Node21</title>
<g id="a_node21"><a xlink:href="_s_l_animation_8cpp.html" target="_top" xlink:title=" ">
<polygon fill="white" stroke="black" points="1227,-112.5 1227,-131.5 1318,-131.5 1318,-112.5 1227,-112.5"/>
<text text-anchor="middle" x="1272.5" y="-119.5" font-family="Arial.ttf" font-size="10.00">SLAnimation.cpp</text>
</a>
</g>
</g>
<!-- Node11&#45;&gt;Node21 -->
<g id="edge22" class="edge">
<title>Node11&#45;&gt;Node21</title>
<path fill="none" stroke="midnightblue" d="M1000.15,-169.69C1059.34,-159.54 1165.95,-141.26 1226.75,-130.84"/>
<polygon fill="midnightblue" stroke="midnightblue" points="999.29,-166.29 990.02,-171.42 1000.47,-173.18 999.29,-166.29"/>
</g>
<!-- Node22 -->
<g id="node22" class="node">
<title>Node22</title>
<g id="a_node22"><a xlink:href="_s_l_anim_manager_8cpp.html" target="_top" xlink:title=" ">
<polygon fill="white" stroke="black" points="1336,-112.5 1336,-131.5 1443,-131.5 1443,-112.5 1336,-112.5"/>
<text text-anchor="middle" x="1389.5" y="-119.5" font-family="Arial.ttf" font-size="10.00">SLAnimManager.cpp</text>
</a>
</g>
</g>
<!-- Node11&#45;&gt;Node22 -->
<g id="edge23" class="edge">
<title>Node11&#45;&gt;Node22</title>
<path fill="none" stroke="midnightblue" d="M1000.12,-172.09C1068.86,-164.11 1208.44,-147.63 1326.5,-132 1329.57,-131.59 1332.72,-131.17 1335.89,-130.73"/>
<polygon fill="midnightblue" stroke="midnightblue" points="999.64,-168.62 990.11,-173.25 1000.44,-175.58 999.64,-168.62"/>
</g>
<!-- Node23 -->
<g id="node23" class="node">
<title>Node23</title>
<g id="a_node23"><a xlink:href="_s_l_background_8cpp.html" target="_top" xlink:title=" ">
<polygon fill="white" stroke="black" points="1461,-112.5 1461,-131.5 1560,-131.5 1560,-112.5 1461,-112.5"/>
<text text-anchor="middle" x="1510.5" y="-119.5" font-family="Arial.ttf" font-size="10.00">SLBackground.cpp</text>
</a>
</g>
</g>
<!-- Node11&#45;&gt;Node23 -->
<g id="edge24" class="edge">
<title>Node11&#45;&gt;Node23</title>
<path fill="none" stroke="midnightblue" d="M1000.37,-173.97C1086.18,-167.72 1285.11,-152.25 1451.5,-132 1454.59,-131.62 1457.76,-131.21 1460.96,-130.78"/>
<polygon fill="midnightblue" stroke="midnightblue" points="999.95,-170.49 990.23,-174.71 1000.46,-177.48 999.95,-170.49"/>
</g>
<!-- Node24 -->
<g id="node24" class="node">
<title>Node24</title>
<g id="a_node24"><a xlink:href="_s_l_light_direct_8cpp.html" target="_top" xlink:title=" ">
<polygon fill="white" stroke="black" points="335,-56.5 335,-75.5 430,-75.5 430,-56.5 335,-56.5"/>
<text text-anchor="middle" x="382.5" y="-63.5" font-family="Arial.ttf" font-size="10.00">SLLightDirect.cpp</text>
</a>
</g>
</g>
<!-- Node11&#45;&gt;Node24 -->
<g id="edge25" class="edge">
<title>Node11&#45;&gt;Node24</title>
<path fill="none" stroke="midnightblue" d="M914.54,-176.85C787.6,-175.98 420.88,-170.15 384.5,-132 370.01,-116.8 375.52,-89.38 379.62,-75.51"/>
<polygon fill="midnightblue" stroke="midnightblue" points="914.64,-180.35 924.66,-176.92 914.68,-173.35 914.64,-180.35"/>
</g>
<!-- Node25 -->
<g id="node25" class="node">
<title>Node25</title>
<g id="a_node25"><a xlink:href="_s_l_light_rect_8cpp.html" target="_top" xlink:title=" ">
<polygon fill="white" stroke="black" points="461,-56.5 461,-75.5 550,-75.5 550,-56.5 461,-56.5"/>
<text text-anchor="middle" x="505.5" y="-63.5" font-family="Arial.ttf" font-size="10.00">SLLightRect.cpp</text>
</a>
</g>
</g>
<!-- Node11&#45;&gt;Node25 -->
<g id="edge26" class="edge">
<title>Node11&#45;&gt;Node25</title>
<path fill="none" stroke="midnightblue" d="M914.42,-176.84C788.81,-175.92 429.56,-169.98 394.5,-132 369.5,-104.93 422.84,-85.75 463.92,-75.54"/>
<polygon fill="midnightblue" stroke="midnightblue" points="914.77,-180.34 924.79,-176.91 914.82,-173.34 914.77,-180.34"/>
</g>
<!-- Node26 -->
<g id="node26" class="node">
<title>Node26</title>
<g id="a_node26"><a xlink:href="_s_l_light_spot_8cpp.html" target="_top" xlink:title=" ">
<polygon fill="white" stroke="black" points="575,-56.5 575,-75.5 664,-75.5 664,-56.5 575,-56.5"/>
<text text-anchor="middle" x="619.5" y="-63.5" font-family="Arial.ttf" font-size="10.00">SLLightSpot.cpp</text>
</a>
</g>
</g>
<!-- Node11&#45;&gt;Node26 -->
<g id="edge27" class="edge">
<title>Node11&#45;&gt;Node26</title>
<path fill="none" stroke="midnightblue" d="M914.6,-176.79C790.38,-175.73 437.01,-169.42 402.5,-132 396.47,-125.47 396.89,-118.89 402.5,-112 407.96,-105.29 513.03,-85.77 574.92,-74.77"/>
<polygon fill="midnightblue" stroke="midnightblue" points="914.84,-180.29 924.87,-176.87 914.89,-173.29 914.84,-180.29"/>
</g>
<!-- Node27 -->
<g id="node27" class="node">
<title>Node27</title>
<g id="a_node27"><a xlink:href="_s_l_scene_8cpp.html" target="_top" xlink:title=" ">
<polygon fill="white" stroke="black" points="2373,-112.5 2373,-131.5 2448,-131.5 2448,-112.5 2373,-112.5"/>
<text text-anchor="middle" x="2410.5" y="-119.5" font-family="Arial.ttf" font-size="10.00">SLScene.cpp</text>
</a>
</g>
</g>
<!-- Node11&#45;&gt;Node27 -->
<g id="edge28" class="edge">
<title>Node11&#45;&gt;Node27</title>
<path fill="none" stroke="midnightblue" d="M1000.47,-175.4C1215.33,-167.42 2170.75,-131.91 2372.86,-124.4"/>
<polygon fill="midnightblue" stroke="midnightblue" points="1000.09,-171.91 990.23,-175.78 1000.35,-178.91 1000.09,-171.91"/>
</g>
<!-- Node28 -->
<g id="node28" class="node">
<title>Node28</title>
<g id="a_node28"><a xlink:href="_s_l_skeleton_8cpp.html" target="_top" xlink:title=" ">
<polygon fill="white" stroke="black" points="1040.5,-56.5 1040.5,-75.5 1126.5,-75.5 1126.5,-56.5 1040.5,-56.5"/>
<text text-anchor="middle" x="1083.5" y="-63.5" font-family="Arial.ttf" font-size="10.00">SLSkeleton.cpp</text>
</a>
</g>
</g>
<!-- Node11&#45;&gt;Node28 -->
<g id="edge29" class="edge">
<title>Node11&#45;&gt;Node28</title>
<path fill="none" stroke="midnightblue" d="M1000.41,-175.9C1150.99,-171.81 1647.47,-156.53 1670.5,-132 1752.32,-44.85 1254.19,-90.23 1135.5,-76 1132.59,-75.65 1129.59,-75.25 1126.58,-74.81"/>
<polygon fill="midnightblue" stroke="midnightblue" points="1000.08,-172.4 990.18,-176.17 1000.27,-179.4 1000.08,-172.4"/>
</g>
<!-- Node29 -->
<g id="node29" class="node">
<title>Node29</title>
<g id="a_node29"><a xlink:href="_s_l_text_8cpp.html" target="_top" xlink:title=" ">
<polygon fill="white" stroke="black" points="1578.5,-112.5 1578.5,-131.5 1644.5,-131.5 1644.5,-112.5 1578.5,-112.5"/>
<text text-anchor="middle" x="1611.5" y="-119.5" font-family="Arial.ttf" font-size="10.00">SLText.cpp</text>
</a>
</g>
</g>
<!-- Node11&#45;&gt;Node29 -->
<g id="edge30" class="edge">
<title>Node11&#45;&gt;Node29</title>
<path fill="none" stroke="midnightblue" d="M1000.12,-175.81C1099.92,-172.59 1356.4,-161.87 1568.5,-132 1571.67,-131.55 1574.96,-131.01 1578.24,-130.42"/>
<polygon fill="midnightblue" stroke="midnightblue" points="1000,-172.31 990.12,-176.12 1000.22,-179.31 1000,-172.31"/>
</g>
<!-- Node30 -->
<g id="node30" class="node">
<title>Node30</title>
<g id="a_node30"><a xlink:href="_s_l_scene_view_8h.html" target="_top" xlink:title=" ">
<polygon fill="white" stroke="black" points="1815,-112.5 1815,-131.5 1900,-131.5 1900,-112.5 1815,-112.5"/>
<text text-anchor="middle" x="1857.5" y="-119.5" font-family="Arial.ttf" font-size="10.00">SLSceneView.h</text>
</a>
</g>
</g>
<!-- Node11&#45;&gt;Node30 -->
<g id="edge32" class="edge">
<title>Node11&#45;&gt;Node30</title>
<path fill="none" stroke="midnightblue" d="M1000.37,-175.19C1120.66,-169.97 1471.53,-153.91 1762.5,-132 1779.68,-130.71 1798.58,-128.98 1814.97,-127.38"/>
<polygon fill="midnightblue" stroke="midnightblue" points="999.96,-171.7 990.12,-175.63 1000.26,-178.7 999.96,-171.7"/>
</g>
<!-- Node43 -->
<g id="node43" class="node">
<title>Node43</title>
<g id="a_node43"><a xlink:href="_app_demo_gui_8cpp.html" target="_top" xlink:title=" ">
<polygon fill="white" stroke="black" points="685.5,-56.5 685.5,-75.5 779.5,-75.5 779.5,-56.5 685.5,-56.5"/>
<text text-anchor="middle" x="732.5" y="-63.5" font-family="Arial.ttf" font-size="10.00">AppDemoGui.cpp</text>
</a>
</g>
</g>
<!-- Node11&#45;&gt;Node43 -->
<g id="edge58" class="edge">
<title>Node11&#45;&gt;Node43</title>
<path fill="none" stroke="midnightblue" d="M914.92,-176.69C793.3,-175.35 450.96,-168.37 417.5,-132 388.85,-100.86 390.76,-117.02 672.5,-76 676.67,-75.39 681,-74.76 685.34,-74.11"/>
<polygon fill="midnightblue" stroke="midnightblue" points="914.94,-180.19 924.98,-176.79 915.01,-173.19 914.94,-180.19"/>
</g>
<!-- Node44 -->
<g id="node44" class="node">
<title>Node44</title>
<g id="a_node44"><a xlink:href="_app_demo_load_8cpp.html" target="_top" xlink:title=" ">
<polygon fill="white" stroke="black" points="799.5,-56.5 799.5,-75.5 899.5,-75.5 899.5,-56.5 799.5,-56.5"/>
<text text-anchor="middle" x="849.5" y="-63.5" font-family="Arial.ttf" font-size="10.00">AppDemoLoad.cpp</text>
</a>
</g>
</g>
<!-- Node11&#45;&gt;Node44 -->
<g id="edge59" class="edge">
<title>Node11&#45;&gt;Node44</title>
<path fill="none" stroke="midnightblue" d="M914.51,-176.61C794.11,-175.07 460.21,-167.6 427.5,-132 372.58,-72.22 707.93,-85.96 788.5,-76 792.01,-75.57 795.62,-75.1 799.26,-74.6"/>
<polygon fill="midnightblue" stroke="midnightblue" points="914.77,-180.11 924.81,-176.73 914.86,-173.11 914.77,-180.11"/>
</g>
<!-- Node45 -->
<g id="node45" class="node">
<title>Node45</title>
<g id="a_node45"><a xlink:href="_app_demo_video_8cpp.html" target="_top" xlink:title=" ">
<polygon fill="white" stroke="black" points="918.5,-56.5 918.5,-75.5 1022.5,-75.5 1022.5,-56.5 918.5,-56.5"/>
<text text-anchor="middle" x="970.5" y="-63.5" font-family="Arial.ttf" font-size="10.00">AppDemoVideo.cpp</text>
</a>
</g>
</g>
<!-- Node11&#45;&gt;Node45 -->
<g id="edge60" class="edge">
<title>Node11&#45;&gt;Node45</title>
<path fill="none" stroke="midnightblue" d="M1000.69,-177.55C1145.73,-178.95 1608.86,-179.62 1653.5,-132 1659.58,-125.52 1659.6,-118.46 1653.5,-112 1605.98,-61.65 1100.37,-83.06 1031.5,-76 1028.62,-75.71 1025.68,-75.37 1022.71,-75.01"/>
<polygon fill="midnightblue" stroke="midnightblue" points="1000.44,-174.05 990.41,-177.44 1000.37,-181.05 1000.44,-174.05"/>
</g>
<!-- Node30&#45;&gt;Node4 -->
<g id="edge35" class="edge">
<title>Node30&#45;&gt;Node4</title>
<path fill="none" stroke="midnightblue" d="M1804.84,-118.43C1763.65,-116.48 1704.94,-113.83 1653.5,-112 1063.43,-90.99 915.03,-108.76 325.5,-76 303.35,-74.77 278.67,-72.74 258.6,-70.92"/>
<polygon fill="midnightblue" stroke="midnightblue" points="1804.76,-121.93 1814.92,-118.91 1805.1,-114.94 1804.76,-121.93"/>
</g>
<!-- Node30&#45;&gt;Node5 -->
<g id="edge46" class="edge">
<title>Node30&#45;&gt;Node5</title>
<path fill="none" stroke="midnightblue" d="M1804.94,-112.55C1803.44,-112.36 1801.96,-112.17 1800.5,-112 1600.82,-88.3 1549.11,-100.26 1349.5,-76 1346.62,-75.65 1343.66,-75.26 1340.67,-74.84"/>
<polygon fill="midnightblue" stroke="midnightblue" points="1804.53,-116.02 1814.91,-113.91 1805.47,-109.09 1804.53,-116.02"/>
</g>
<!-- Node30&#45;&gt;Node6 -->
<g id="edge49" class="edge">
<title>Node30&#45;&gt;Node6</title>
<path fill="none" stroke="midnightblue" d="M1910.27,-112.05C2154.52,-83.61 2219.37,-102.76 2459.5,-76 2462.59,-75.66 2465.76,-75.26 2468.96,-74.84"/>
<polygon fill="midnightblue" stroke="midnightblue" points="1909.53,-108.62 1900.01,-113.26 1910.35,-115.57 1909.53,-108.62"/>
</g>
<!-- Node30&#45;&gt;Node7 -->
<g id="edge51" class="edge">
<title>Node30&#45;&gt;Node7</title>
<path fill="none" stroke="midnightblue" d="M1910.14,-112.09C2204.91,-79.35 2282.82,-105.98 2573.5,-76 2576.39,-75.7 2579.35,-75.36 2582.33,-74.99"/>
<polygon fill="midnightblue" stroke="midnightblue" points="1909.56,-108.63 1900.01,-113.22 1910.34,-115.59 1909.56,-108.63"/>
</g>
<!-- Node30&#45;&gt;Node12 -->
<g id="edge34" class="edge">
<title>Node30&#45;&gt;Node12</title>
<path fill="none" stroke="midnightblue" d="M1804.7,-115.75C1790.96,-114.46 1776.18,-113.12 1762.5,-112 1530.28,-93.01 1470.82,-103.9 1239.5,-76 1236.59,-75.65 1233.59,-75.24 1230.58,-74.81"/>
<polygon fill="midnightblue" stroke="midnightblue" points="1804.67,-119.27 1814.96,-116.73 1805.34,-112.3 1804.67,-119.27"/>
</g>
<!-- Node30&#45;&gt;Node24 -->
<g id="edge40" class="edge">
<title>Node30&#45;&gt;Node24</title>
<path fill="none" stroke="midnightblue" d="M1804.84,-118.47C1763.65,-116.54 1704.94,-113.9 1653.5,-112 1119.4,-92.22 984.26,-118.62 451.5,-76 444.64,-75.45 437.41,-74.7 430.32,-73.86"/>
<polygon fill="midnightblue" stroke="midnightblue" points="1804.77,-121.97 1814.92,-118.95 1805.09,-114.98 1804.77,-121.97"/>
</g>
<!-- Node30&#45;&gt;Node25 -->
<g id="edge41" class="edge">
<title>Node30&#45;&gt;Node25</title>
<path fill="none" stroke="midnightblue" d="M1804.84,-118.52C1763.65,-116.61 1704.94,-113.99 1653.5,-112 1170.04,-93.34 1047.32,-119.96 565.5,-76 560.57,-75.55 555.43,-74.96 550.32,-74.3"/>
<polygon fill="midnightblue" stroke="midnightblue" points="1804.77,-122.02 1814.92,-118.98 1805.09,-115.03 1804.77,-122.02"/>
</g>
<!-- Node30&#45;&gt;Node26 -->
<g id="edge42" class="edge">
<title>Node30&#45;&gt;Node26</title>
<path fill="none" stroke="midnightblue" d="M1804.84,-118.57C1763.64,-116.7 1704.93,-114.08 1653.5,-112 1219.34,-94.42 1108.99,-117.96 676.5,-76 672.51,-75.61 668.38,-75.13 664.24,-74.58"/>
<polygon fill="midnightblue" stroke="midnightblue" points="1804.77,-122.07 1814.92,-119.03 1805.09,-115.08 1804.77,-122.07"/>
</g>
<!-- Node30&#45;&gt;Node28 -->
<g id="edge50" class="edge">
<title>Node30&#45;&gt;Node28</title>
<path fill="none" stroke="midnightblue" d="M1804.84,-117.36C1780.4,-115.69 1750.97,-113.7 1724.5,-112 1462.78,-95.15 1396,-106.41 1135.5,-76 1132.59,-75.66 1129.59,-75.26 1126.58,-74.83"/>
<polygon fill="midnightblue" stroke="midnightblue" points="1804.76,-120.86 1814.98,-118.05 1805.24,-113.88 1804.76,-120.86"/>
</g>
<!-- Node31 -->
<g id="node31" class="node">
<title>Node31</title>
<g id="a_node31"><a xlink:href="_s_l_g_l_conetracer_8cpp.html" target="_top" xlink:title=" ">
<polygon fill="white" stroke="black" points="2130,-56.5 2130,-75.5 2237,-75.5 2237,-56.5 2130,-56.5"/>
<text text-anchor="middle" x="2183.5" y="-63.5" font-family="Arial.ttf" font-size="10.00">SLGLConetracer.cpp</text>
</a>
</g>
</g>
<!-- Node30&#45;&gt;Node31 -->
<g id="edge33" class="edge">
<title>Node30&#45;&gt;Node31</title>
<path fill="none" stroke="midnightblue" d="M1909.94,-111.94C1993.13,-97.93 2077.6,-84.15 2130.69,-75.53"/>
<polygon fill="midnightblue" stroke="midnightblue" points="1909.34,-108.49 1900.06,-113.6 1910.5,-115.39 1909.34,-108.49"/>
</g>
<!-- Node32 -->
<g id="node32" class="node">
<title>Node32</title>
<g id="a_node32"><a xlink:href="_s_l_anim_track_8cpp.html" target="_top" xlink:title=" ">
<polygon fill="white" stroke="black" points="2255,-56.5 2255,-75.5 2350,-75.5 2350,-56.5 2255,-56.5"/>
<text text-anchor="middle" x="2302.5" y="-63.5" font-family="Arial.ttf" font-size="10.00">SLAnimTrack.cpp</text>
</a>
</g>
</g>
<!-- Node30&#45;&gt;Node32 -->
<g id="edge36" class="edge">
<title>Node30&#45;&gt;Node32</title>
<path fill="none" stroke="midnightblue" d="M1910.09,-112.01C2060.39,-91.34 2100.41,-95.53 2246.5,-76 2249.23,-75.63 2252.04,-75.24 2254.87,-74.83"/>
<polygon fill="midnightblue" stroke="midnightblue" points="1909.46,-108.56 1900.03,-113.41 1910.42,-115.5 1909.46,-108.56"/>
</g>
<!-- Node33 -->
<g id="node33" class="node">
<title>Node33</title>
<g id="a_node33"><a xlink:href="_s_l_camera_8cpp.html" target="_top" xlink:title=" ">
<polygon fill="white" stroke="black" points="2368.5,-56.5 2368.5,-75.5 2450.5,-75.5 2450.5,-56.5 2368.5,-56.5"/>
<text text-anchor="middle" x="2409.5" y="-63.5" font-family="Arial.ttf" font-size="10.00">SLCamera.cpp</text>
</a>
</g>
</g>
<!-- Node30&#45;&gt;Node33 -->
<g id="edge37" class="edge">
<title>Node30&#45;&gt;Node33</title>
<path fill="none" stroke="midnightblue" d="M1909.98,-112.07C2110.27,-87.34 2163.73,-101.39 2359.5,-76 2362.39,-75.63 2365.36,-75.2 2368.35,-74.74"/>
<polygon fill="midnightblue" stroke="midnightblue" points="1909.51,-108.6 1900.02,-113.31 1910.38,-115.55 1909.51,-108.6"/>
</g>
<!-- Node34 -->
<g id="node34" class="node">
<title>Node34</title>
<g id="a_node34"><a xlink:href="_s_l_input_manager_8cpp.html" target="_top" xlink:title=" ">
<polygon fill="white" stroke="black" points="1358.5,-56.5 1358.5,-75.5 1464.5,-75.5 1464.5,-56.5 1358.5,-56.5"/>
<text text-anchor="middle" x="1411.5" y="-63.5" font-family="Arial.ttf" font-size="10.00">SLInputManager.cpp</text>
</a>
</g>
</g>
<!-- Node30&#45;&gt;Node34 -->
<g id="edge38" class="edge">
<title>Node30&#45;&gt;Node34</title>
<path fill="none" stroke="midnightblue" d="M1804.93,-112.61C1803.44,-112.4 1801.96,-112.2 1800.5,-112 1655.58,-92.59 1618.54,-94.5 1473.5,-76 1470.59,-75.63 1467.6,-75.23 1464.58,-74.83"/>
<polygon fill="midnightblue" stroke="midnightblue" points="1804.49,-116.08 1814.89,-114.05 1805.5,-109.15 1804.49,-116.08"/>
</g>
<!-- Node35 -->
<g id="node35" class="node">
<title>Node35</title>
<g id="a_node35"><a xlink:href="_s_l_keyframe_camera_8cpp.html" target="_top" xlink:title=" ">
<polygon fill="white" stroke="black" points="2790.5,-56.5 2790.5,-75.5 2914.5,-75.5 2914.5,-56.5 2790.5,-56.5"/>
<text text-anchor="middle" x="2852.5" y="-63.5" font-family="Arial.ttf" font-size="10.00">SLKeyframeCamera.cpp</text>
</a>
</g>
</g>
<!-- Node30&#45;&gt;Node35 -->
<g id="edge39" class="edge">
<title>Node30&#45;&gt;Node35</title>
<path fill="none" stroke="midnightblue" d="M1910.07,-112.11C2296.92,-71.47 2398.27,-108.14 2781.5,-76 2784.35,-75.76 2787.26,-75.49 2790.19,-75.2"/>
<polygon fill="midnightblue" stroke="midnightblue" points="1909.58,-108.64 1900,-113.18 1910.32,-115.61 1909.58,-108.64"/>
</g>
<!-- Node36 -->
<g id="node36" class="node">
<title>Node36</title>
<g id="a_node36"><a xlink:href="_s_l_material_8cpp.html" target="_top" xlink:title=" ">
<polygon fill="white" stroke="black" points="1482.5,-56.5 1482.5,-75.5 1564.5,-75.5 1564.5,-56.5 1482.5,-56.5"/>
<text text-anchor="middle" x="1523.5" y="-63.5" font-family="Arial.ttf" font-size="10.00">SLMaterial.cpp</text>
</a>
</g>
</g>
<!-- Node30&#45;&gt;Node36 -->
<g id="edge43" class="edge">
<title>Node30&#45;&gt;Node36</title>
<path fill="none" stroke="midnightblue" d="M1804.49,-112.63C1725.46,-100.15 1584.78,-77.91 1573.5,-76 1570.63,-75.51 1567.67,-75 1564.69,-74.48"/>
<polygon fill="midnightblue" stroke="midnightblue" points="1804.32,-116.15 1814.74,-114.25 1805.41,-109.23 1804.32,-116.15"/>
</g>
<!-- Node37 -->
<g id="node37" class="node">
<title>Node37</title>
<g id="a_node37"><a xlink:href="_s_l_mesh_8cpp.html" target="_top" xlink:title=" ">
<polygon fill="white" stroke="black" points="1583,-56.5 1583,-75.5 1654,-75.5 1654,-56.5 1583,-56.5"/>
<text text-anchor="middle" x="1618.5" y="-63.5" font-family="Arial.ttf" font-size="10.00">SLMesh.cpp</text>
</a>
</g>
</g>
<!-- Node30&#45;&gt;Node37 -->
<g id="edge44" class="edge">
<title>Node30&#45;&gt;Node37</title>
<path fill="none" stroke="midnightblue" d="M1809.63,-110.18C1763.75,-99.82 1695.56,-84.41 1654.24,-75.08"/>
<polygon fill="midnightblue" stroke="midnightblue" points="1809.1,-113.65 1819.63,-112.44 1810.65,-106.83 1809.1,-113.65"/>
</g>
<!-- Node38 -->
<g id="node38" class="node">
<title>Node38</title>
<g id="a_node38"><a xlink:href="_s_l_node_8cpp.html" target="_top" xlink:title=" ">
<polygon fill="white" stroke="black" points="2701,-56.5 2701,-75.5 2772,-75.5 2772,-56.5 2701,-56.5"/>
<text text-anchor="middle" x="2736.5" y="-63.5" font-family="Arial.ttf" font-size="10.00">SLNode.cpp</text>
</a>
</g>
</g>
<!-- Node30&#45;&gt;Node38 -->
<g id="edge45" class="edge">
<title>Node30&#45;&gt;Node38</title>
<path fill="none" stroke="midnightblue" d="M1910.08,-112.11C2257.12,-75.09 2349.44,-117.84 2691.5,-76 2694.51,-75.63 2697.61,-75.18 2700.72,-74.66"/>
<polygon fill="midnightblue" stroke="midnightblue" points="1909.57,-108.64 1900.01,-113.2 1910.32,-115.6 1909.57,-108.64"/>
</g>
<!-- Node39 -->
<g id="node39" class="node">
<title>Node39</title>
<g id="a_node39"><a xlink:href="_s_l_ray_8cpp.html" target="_top" xlink:title=" ">
<polygon fill="white" stroke="black" points="1672.5,-56.5 1672.5,-75.5 1736.5,-75.5 1736.5,-56.5 1672.5,-56.5"/>
<text text-anchor="middle" x="1704.5" y="-63.5" font-family="Arial.ttf" font-size="10.00">SLRay.cpp</text>
</a>
</g>
</g>
<!-- Node30&#45;&gt;Node39 -->
<g id="edge47" class="edge">
<title>Node30&#45;&gt;Node39</title>
<path fill="none" stroke="midnightblue" d="M1823.61,-109.04C1794.82,-98.88 1754.21,-84.55 1728.63,-75.52"/>
<polygon fill="midnightblue" stroke="midnightblue" points="1822.66,-112.42 1833.26,-112.44 1824.99,-105.81 1822.66,-112.42"/>
</g>
<!-- Node40 -->
<g id="node40" class="node">
<title>Node40</title>
<g id="a_node40"><a xlink:href="_s_l_raytracer_8cpp.html" target="_top" xlink:title=" ">
<polygon fill="white" stroke="black" points="1755,-56.5 1755,-75.5 1844,-75.5 1844,-56.5 1755,-56.5"/>
<text text-anchor="middle" x="1799.5" y="-63.5" font-family="Arial.ttf" font-size="10.00">SLRaytracer.cpp</text>
</a>
</g>
</g>
<!-- Node30&#45;&gt;Node40 -->
<g id="edge48" class="edge">
<title>Node30&#45;&gt;Node40</title>
<path fill="none" stroke="midnightblue" d="M1840.59,-105.25C1830.3,-95.67 1817.53,-83.79 1808.99,-75.83"/>
<polygon fill="midnightblue" stroke="midnightblue" points="1838.48,-108.07 1848.18,-112.32 1843.25,-102.95 1838.48,-108.07"/>
</g>
<!-- Node41 -->
<g id="node41" class="node">
<title>Node41</title>
<g id="a_node41"><a xlink:href="_s_l_transform_node_8h.html" target="_top" xlink:title=" ">
<polygon fill="white" stroke="black" points="1862.5,-56.5 1862.5,-75.5 1966.5,-75.5 1966.5,-56.5 1862.5,-56.5"/>
<text text-anchor="middle" x="1914.5" y="-63.5" font-family="Arial.ttf" font-size="10.00">SLTransformNode.h</text>
</a>
</g>
</g>
<!-- Node30&#45;&gt;Node41 -->
<g id="edge52" class="edge">
<title>Node30&#45;&gt;Node41</title>
<path fill="none" stroke="midnightblue" d="M1874.12,-105.25C1884.23,-95.67 1896.78,-83.79 1905.18,-75.83"/>
<polygon fill="midnightblue" stroke="midnightblue" points="1871.51,-102.91 1866.66,-112.32 1876.32,-107.99 1871.51,-102.91"/>
</g>
<!-- Node30&#45;&gt;Node43 -->
<g id="edge54" class="edge">
<title>Node30&#45;&gt;Node43</title>
<path fill="none" stroke="midnightblue" d="M1804.83,-118.64C1763.64,-116.81 1704.93,-114.21 1653.5,-112 1269.96,-95.54 1172.55,-113.49 790.5,-76 786.95,-75.65 783.29,-75.23 779.61,-74.76"/>
<polygon fill="midnightblue" stroke="midnightblue" points="1804.77,-122.14 1814.91,-119.09 1805.08,-115.15 1804.77,-122.14"/>
</g>
<!-- Node30&#45;&gt;Node44 -->
<g id="edge55" class="edge">
<title>Node30&#45;&gt;Node44</title>
<path fill="none" stroke="midnightblue" d="M1804.62,-118.64C1611.63,-110 954.23,-80.41 909.5,-76 906.25,-75.68 902.91,-75.31 899.54,-74.89"/>
<polygon fill="midnightblue" stroke="midnightblue" points="1804.64,-122.14 1814.79,-119.09 1804.96,-115.15 1804.64,-122.14"/>
</g>
<!-- Node30&#45;&gt;Node45 -->
<g id="edge56" class="edge">
<title>Node30&#45;&gt;Node45</title>
<path fill="none" stroke="midnightblue" d="M1804.59,-118.18C1625.29,-108.63 1050.79,-77.94 1031.5,-76 1028.62,-75.71 1025.68,-75.38 1022.7,-75.02"/>
<polygon fill="midnightblue" stroke="midnightblue" points="1804.65,-121.69 1814.82,-118.73 1805.03,-114.7 1804.65,-121.69"/>
</g>
<!-- Node46 -->
<g id="node46" class="node">
<title>Node46</title>
<g id="a_node46"><a xlink:href="_app_demo_main_g_l_f_w_8cpp.html" target="_top" xlink:title=" ">
<polygon fill="white" stroke="black" points="1985,-56.5 1985,-75.5 2112,-75.5 2112,-56.5 1985,-56.5"/>
<text text-anchor="middle" x="2048.5" y="-63.5" font-family="Arial.ttf" font-size="10.00">AppDemoMainGLFW.cpp</text>
</a>
</g>
</g>
<!-- Node30&#45;&gt;Node46 -->
<g id="edge57" class="edge">
<title>Node30&#45;&gt;Node46</title>
<path fill="none" stroke="midnightblue" d="M1897.47,-109.7C1933.52,-99.51 1985.74,-84.74 2018.38,-75.52"/>
<polygon fill="midnightblue" stroke="midnightblue" points="1896.44,-106.35 1887.76,-112.44 1898.34,-113.09 1896.44,-106.35"/>
</g>
<!-- Node42 -->
<g id="node42" class="node">
<title>Node42</title>
<g id="a_node42"><a xlink:href="_s_l_transform_node_8cpp.html" target="_top" xlink:title=" ">
<polygon fill="white" stroke="black" points="1857.5,-0.5 1857.5,-19.5 1971.5,-19.5 1971.5,-0.5 1857.5,-0.5"/>
<text text-anchor="middle" x="1914.5" y="-7.5" font-family="Arial.ttf" font-size="10.00">SLTransformNode.cpp</text>
</a>
</g>
</g>
<!-- Node41&#45;&gt;Node42 -->
<g id="edge53" class="edge">
<title>Node41&#45;&gt;Node42</title>
<path fill="none" stroke="midnightblue" d="M1914.5,-45.8C1914.5,-36.91 1914.5,-26.78 1914.5,-19.75"/>
<polygon fill="midnightblue" stroke="midnightblue" points="1911,-46.08 1914.5,-56.08 1918,-46.08 1911,-46.08"/>
</g>
<!-- Node47&#45;&gt;Node13 -->
<g id="edge62" class="edge">
<title>Node47&#45;&gt;Node13</title>
<path fill="none" stroke="midnightblue" d="M1932.5,-161C1942.07,-151.43 1953.86,-139.64 1961.75,-131.75"/>
<polygon fill="midnightblue" stroke="midnightblue" points="1930.01,-158.54 1925.42,-168.08 1934.96,-163.49 1930.01,-158.54"/>
</g>
<!-- Node47&#45;&gt;Node30 -->
<g id="edge63" class="edge">
<title>Node47&#45;&gt;Node30</title>
<path fill="none" stroke="midnightblue" d="M1899.61,-161.54C1889.09,-151.91 1875.93,-139.87 1867.15,-131.83"/>
<polygon fill="midnightblue" stroke="midnightblue" points="1897.28,-164.15 1907.02,-168.32 1902.01,-158.99 1897.28,-164.15"/>
</g>
<!-- Node48&#45;&gt;Node27 -->
<g id="edge67" class="edge">
<title>Node48&#45;&gt;Node27</title>
<path fill="none" stroke="midnightblue" d="M2597.5,-166.15C2553.28,-155.95 2487.98,-140.88 2447.4,-131.52"/>
<polygon fill="midnightblue" stroke="midnightblue" points="2596.89,-169.61 2607.42,-168.44 2598.47,-162.78 2596.89,-169.61"/>
</g>
<!-- Node48&#45;&gt;Node35 -->
<g id="edge65" class="edge">
<title>Node48&#45;&gt;Node35</title>
<path fill="none" stroke="midnightblue" d="M2669.86,-163.59C2713.16,-140.69 2800.18,-94.67 2836.25,-75.59"/>
<polygon fill="midnightblue" stroke="midnightblue" points="2668.03,-160.6 2660.82,-168.37 2671.3,-166.79 2668.03,-160.6"/>
</g>
<!-- Node48&#45;&gt;Node38 -->
<g id="edge66" class="edge">
<title>Node48&#45;&gt;Node38</title>
<path fill="none" stroke="midnightblue" d="M2658.23,-160.59C2678.06,-136.87 2714.03,-93.87 2729.31,-75.59"/>
<polygon fill="midnightblue" stroke="midnightblue" points="2655.45,-158.45 2651.72,-168.37 2660.82,-162.94 2655.45,-158.45"/>
</g>
<!-- Node48&#45;&gt;Node48 -->
<g id="edge68" class="edge">
<title>Node48&#45;&gt;Node48</title>
<path fill="none" stroke="midnightblue" d="M2686.28,-188.39C2703.95,-189.17 2719,-185.71 2719,-178 2719,-168.87 2697.86,-165.69 2676.27,-168.47"/>
<polygon fill="midnightblue" stroke="midnightblue" points="2686.54,-184.9 2676.27,-187.53 2685.93,-191.88 2686.54,-184.9"/>
</g>
</g>
</svg>
