<?xml version="1.0" encoding="UTF-8" standalone="no"?>
<!DOCTYPE svg PUBLIC "-//W3C//DTD SVG 1.1//EN"
 "http://www.w3.org/Graphics/SVG/1.1/DTD/svg11.dtd">
<!-- Generated by graphviz version 2.36.0 (20140111.2315)
 -->
<!-- Title: SLVec2.h Pages: 1 -->
<svg width="111pt" height="196pt"
 viewBox="0.00 0.00 111.00 196.00" xmlns="http://www.w3.org/2000/svg" xmlns:xlink="http://www.w3.org/1999/xlink">
<g id="graph0" class="graph" transform="scale(1 1) rotate(0) translate(4 192)">
<title>SLVec2.h</title>
<polygon fill="white" stroke="none" points="-4,4 -4,-192 107,-192 107,4 -4,4"/>
<!-- Node1 -->
<g id="node1" class="node"><title>Node1</title>
<polygon fill="#bfbfbf" stroke="black" points="20,-168.5 20,-187.5 80,-187.5 80,-168.5 20,-168.5"/>
<text text-anchor="middle" x="50" y="-175.5" font-family="Arial.ttf" font-size="10.00">SLVec2.h</text>
</g>
<!-- Node2 -->
<g id="node2" class="node"><title>Node2</title>
<g id="a_node2"><a xlink:href="_s_l_8h.html" target="_top" xlink:title="SL.h">
<polygon fill="white" stroke="black" points="8.5,-112.5 8.5,-131.5 45.5,-131.5 45.5,-112.5 8.5,-112.5"/>
<text text-anchor="middle" x="27" y="-119.5" font-family="Arial.ttf" font-size="10.00">SL.h</text>
</a>
</g>
</g>
<!-- Node1&#45;&gt;Node2 -->
<g id="edge1" class="edge"><title>Node1&#45;&gt;Node2</title>
<path fill="none" stroke="midnightblue" d="M46.202,-168.083C43.0872,-160.77 38.5772,-150.181 34.7107,-141.103"/>
<polygon fill="midnightblue" stroke="midnightblue" points="37.8661,-139.58 30.7273,-131.751 31.4259,-142.323 37.8661,-139.58"/>
</g>
<!-- Node3 -->
<g id="node3" class="node"><title>Node3</title>
<g id="a_node3"><a xlink:href="_utils_8h.html" target="_top" xlink:title="Utils.h">
<polygon fill="white" stroke="black" points="28,-56.5 28,-75.5 72,-75.5 72,-56.5 28,-56.5"/>
<text text-anchor="middle" x="50" y="-63.5" font-family="Arial.ttf" font-size="10.00">Utils.h</text>
</a>
</g>
</g>
<!-- Node1&#45;&gt;Node3 -->
<g id="edge5" class="edge"><title>Node1&#45;&gt;Node3</title>
<path fill="none" stroke="midnightblue" d="M50.9941,-168.388C51.9847,-159.342 53.4369,-144.694 54,-132 54.6898,-116.45 53.4808,-98.8265 52.2158,-85.8568"/>
<polygon fill="midnightblue" stroke="midnightblue" points="55.6864,-85.3942 51.1361,-75.8263 48.7266,-86.1435 55.6864,-85.3942"/>
</g>
<!-- Node2&#45;&gt;Node3 -->
<g id="edge2" class="edge"><title>Node2&#45;&gt;Node3</title>
<path fill="none" stroke="midnightblue" d="M30.798,-112.083C33.9128,-104.77 38.4228,-94.1814 42.2893,-85.1034"/>
<polygon fill="midnightblue" stroke="midnightblue" points="45.5741,-86.3229 46.2727,-75.7511 39.1339,-83.5798 45.5741,-86.3229"/>
</g>
<!-- Node4 -->
<g id="node4" class="node"><title>Node4</title>
<polygon fill="white" stroke="#bfbfbf" points="-0.5,-0.5 -0.5,-19.5 40.5,-19.5 40.5,-0.5 -0.5,-0.5"/>
<text text-anchor="middle" x="20" y="-7.5" font-family="Arial.ttf" font-size="10.00">string</text>
</g>
<!-- Node3&#45;&gt;Node4 -->
<g id="edge3" class="edge"><title>Node3&#45;&gt;Node4</title>
<path fill="none" stroke="midnightblue" d="M45.0461,-56.083C40.8959,-48.6127 34.8469,-37.7244 29.7333,-28.5199"/>
<polygon fill="midnightblue" stroke="midnightblue" points="32.7777,-26.7929 24.8617,-19.7511 26.6586,-30.1924 32.7777,-26.7929"/>
</g>
<!-- Node5 -->
<g id="node5" class="node"><title>Node5</title>
<polygon fill="white" stroke="#bfbfbf" points="59,-0.5 59,-19.5 103,-19.5 103,-0.5 59,-0.5"/>
<text text-anchor="middle" x="81" y="-7.5" font-family="Arial.ttf" font-size="10.00">vector</text>
</g>
<!-- Node3&#45;&gt;Node5 -->
<g id="edge4" class="edge"><title>Node3&#45;&gt;Node5</title>
<path fill="none" stroke="midnightblue" d="M55.119,-56.083C59.4075,-48.6127 65.6582,-37.7244 70.9423,-28.5199"/>
<polygon fill="midnightblue" stroke="midnightblue" points="74.0329,-30.1662 75.9762,-19.7511 67.9621,-26.6811 74.0329,-30.1662"/>
</g>
</g>
</svg>
