<?xml version="1.0" encoding="UTF-8" standalone="no"?>
<!DOCTYPE svg PUBLIC "-//W3C//DTD SVG 1.1//EN"
 "http://www.w3.org/Graphics/SVG/1.1/DTD/svg11.dtd">
<!-- Generated by graphviz version 2.36.0 (20140111.2315)
 -->
<!-- Title: SLCurveBezier.h Pages: 1 -->
<svg width="905pt" height="532pt"
 viewBox="0.00 0.00 905.00 532.00" xmlns="http://www.w3.org/2000/svg" xmlns:xlink="http://www.w3.org/1999/xlink">
<g id="graph0" class="graph" transform="scale(1 1) rotate(0) translate(4 528)">
<title>SLCurveBezier.h</title>
<polygon fill="white" stroke="none" points="-4,4 -4,-528 901,-528 901,4 -4,4"/>
<!-- Node1 -->
<g id="node1" class="node"><title>Node1</title>
<polygon fill="#bfbfbf" stroke="black" points="422,-504.5 422,-523.5 514,-523.5 514,-504.5 422,-504.5"/>
<text text-anchor="middle" x="468" y="-511.5" font-family="Arial.ttf" font-size="10.00">SLCurveBezier.h</text>
</g>
<!-- Node2 -->
<g id="node2" class="node"><title>Node2</title>
<g id="a_node2"><a xlink:href="_s_l_curve_8h.html" target="_top" xlink:title="SLCurve.h">
<polygon fill="white" stroke="black" points="376,-392.5 376,-411.5 440,-411.5 440,-392.5 376,-392.5"/>
<text text-anchor="middle" x="408" y="-399.5" font-family="Arial.ttf" font-size="10.00">SLCurve.h</text>
</a>
</g>
</g>
<!-- Node1&#45;&gt;Node2 -->
<g id="edge1" class="edge"><title>Node1&#45;&gt;Node2</title>
<path fill="none" stroke="midnightblue" d="M463.292,-504.368C453.478,-486.376 430.664,-444.55 417.615,-420.627"/>
<polygon fill="midnightblue" stroke="midnightblue" points="420.547,-418.694 412.686,-411.591 414.402,-422.046 420.547,-418.694"/>
</g>
<!-- Node7 -->
<g id="node7" class="node"><title>Node7</title>
<g id="a_node7"><a xlink:href="_s_l_mat4_8h.html" target="_top" xlink:title="SLMat4.h">
<polygon fill="white" stroke="black" points="274.5,-336.5 274.5,-355.5 333.5,-355.5 333.5,-336.5 274.5,-336.5"/>
<text text-anchor="middle" x="304" y="-343.5" font-family="Arial.ttf" font-size="10.00">SLMat4.h</text>
</a>
</g>
</g>
<!-- Node1&#45;&gt;Node7 -->
<g id="edge40" class="edge"><title>Node1&#45;&gt;Node7</title>
<path fill="none" stroke="midnightblue" d="M469.432,-504.433C472.542,-482.731 477.508,-424.978 449,-392 422.947,-361.861 377.114,-351.625 343.939,-348.295"/>
<polygon fill="midnightblue" stroke="midnightblue" points="343.91,-344.781 333.654,-347.44 343.33,-351.757 343.91,-344.781"/>
</g>
<!-- Node17 -->
<g id="node17" class="node"><title>Node17</title>
<g id="a_node17"><a xlink:href="_s_l_g_l_vertex_array_ext_8h.html" target="_top" xlink:title="SLGLVertexArrayExt.h">
<polygon fill="white" stroke="black" points="635,-448.5 635,-467.5 753,-467.5 753,-448.5 635,-448.5"/>
<text text-anchor="middle" x="694" y="-455.5" font-family="Arial.ttf" font-size="10.00">SLGLVertexArrayExt.h</text>
</a>
</g>
</g>
<!-- Node1&#45;&gt;Node17 -->
<g id="edge31" class="edge"><title>Node1&#45;&gt;Node17</title>
<path fill="none" stroke="midnightblue" d="M503.81,-504.444C542.988,-495.083 605.877,-480.056 648.515,-469.868"/>
<polygon fill="midnightblue" stroke="midnightblue" points="649.444,-473.245 658.357,-467.516 647.818,-466.436 649.444,-473.245"/>
</g>
<!-- Node3 -->
<g id="node3" class="node"><title>Node3</title>
<g id="a_node3"><a xlink:href="_s_l_8h.html" target="_top" xlink:title="SL.h">
<polygon fill="white" stroke="black" points="481.5,-112.5 481.5,-131.5 518.5,-131.5 518.5,-112.5 481.5,-112.5"/>
<text text-anchor="middle" x="500" y="-119.5" font-family="Arial.ttf" font-size="10.00">SL.h</text>
</a>
</g>
</g>
<!-- Node2&#45;&gt;Node3 -->
<g id="edge2" class="edge"><title>Node2&#45;&gt;Node3</title>
<path fill="none" stroke="midnightblue" d="M375.985,-399.26C279.803,-393.168 0,-368.764 0,-291 0,-291 0,-291 0,-233 0,-135.791 365.038,-124.393 471.304,-123.135"/>
<polygon fill="midnightblue" stroke="midnightblue" points="471.346,-126.634 481.312,-123.038 471.279,-119.635 471.346,-126.634"/>
</g>
<!-- Node2&#45;&gt;Node7 -->
<g id="edge6" class="edge"><title>Node2&#45;&gt;Node7</title>
<path fill="none" stroke="midnightblue" d="M391.291,-392.324C374.688,-383.703 348.998,-370.364 329.78,-360.386"/>
<polygon fill="midnightblue" stroke="midnightblue" points="331.156,-357.156 320.668,-355.655 327.93,-363.369 331.156,-357.156"/>
</g>
<!-- Node10 -->
<g id="node10" class="node"><title>Node10</title>
<g id="a_node10"><a xlink:href="_s_l_vec3_8h.html" target="_top" xlink:title="SLVec3.h">
<polygon fill="white" stroke="black" points="507,-224.5 507,-243.5 567,-243.5 567,-224.5 507,-224.5"/>
<text text-anchor="middle" x="537" y="-231.5" font-family="Arial.ttf" font-size="10.00">SLVec3.h</text>
</a>
</g>
</g>
<!-- Node2&#45;&gt;Node10 -->
<g id="edge29" class="edge"><title>Node2&#45;&gt;Node10</title>
<path fill="none" stroke="midnightblue" d="M440.389,-397.348C491.624,-389.632 589.959,-366.499 633,-300 650.121,-273.548 610.404,-255.141 576.96,-244.831"/>
<polygon fill="midnightblue" stroke="midnightblue" points="577.881,-241.454 567.301,-242.015 575.921,-248.174 577.881,-241.454"/>
</g>
<!-- Node13 -->
<g id="node13" class="node"><title>Node13</title>
<g id="a_node13"><a xlink:href="_s_l_vec4_8h.html" target="_top" xlink:title="SLVec4.h">
<polygon fill="white" stroke="black" points="681,-280.5 681,-299.5 741,-299.5 741,-280.5 681,-280.5"/>
<text text-anchor="middle" x="711" y="-287.5" font-family="Arial.ttf" font-size="10.00">SLVec4.h</text>
</a>
</g>
</g>
<!-- Node2&#45;&gt;Node13 -->
<g id="edge30" class="edge"><title>Node2&#45;&gt;Node13</title>
<path fill="none" stroke="midnightblue" d="M440.144,-398.55C500.921,-393.415 629.918,-379.972 667,-356 684.295,-344.82 696.504,-324.188 703.605,-309.159"/>
<polygon fill="midnightblue" stroke="midnightblue" points="706.883,-310.398 707.704,-299.835 700.475,-307.581 706.883,-310.398"/>
</g>
<!-- Node4 -->
<g id="node4" class="node"><title>Node4</title>
<g id="a_node4"><a xlink:href="_utils_8h.html" target="_top" xlink:title="Utils.h">
<polygon fill="white" stroke="black" points="501,-56.5 501,-75.5 545,-75.5 545,-56.5 501,-56.5"/>
<text text-anchor="middle" x="523" y="-63.5" font-family="Arial.ttf" font-size="10.00">Utils.h</text>
</a>
</g>
</g>
<!-- Node3&#45;&gt;Node4 -->
<g id="edge3" class="edge"><title>Node3&#45;&gt;Node4</title>
<path fill="none" stroke="midnightblue" d="M503.798,-112.083C506.913,-104.77 511.423,-94.1814 515.289,-85.1034"/>
<polygon fill="midnightblue" stroke="midnightblue" points="518.574,-86.3229 519.273,-75.7511 512.134,-83.5798 518.574,-86.3229"/>
</g>
<!-- Node5 -->
<g id="node5" class="node"><title>Node5</title>
<polygon fill="white" stroke="#bfbfbf" points="472.5,-0.5 472.5,-19.5 513.5,-19.5 513.5,-0.5 472.5,-0.5"/>
<text text-anchor="middle" x="493" y="-7.5" font-family="Arial.ttf" font-size="10.00">string</text>
</g>
<!-- Node4&#45;&gt;Node5 -->
<g id="edge4" class="edge"><title>Node4&#45;&gt;Node5</title>
<path fill="none" stroke="midnightblue" d="M518.046,-56.083C513.896,-48.6127 507.847,-37.7244 502.733,-28.5199"/>
<polygon fill="midnightblue" stroke="midnightblue" points="505.778,-26.7929 497.862,-19.7511 499.659,-30.1924 505.778,-26.7929"/>
</g>
<!-- Node6 -->
<g id="node6" class="node"><title>Node6</title>
<polygon fill="white" stroke="#bfbfbf" points="532,-0.5 532,-19.5 576,-19.5 576,-0.5 532,-0.5"/>
<text text-anchor="middle" x="554" y="-7.5" font-family="Arial.ttf" font-size="10.00">vector</text>
</g>
<!-- Node4&#45;&gt;Node6 -->
<g id="edge5" class="edge"><title>Node4&#45;&gt;Node6</title>
<path fill="none" stroke="midnightblue" d="M528.119,-56.083C532.408,-48.6127 538.658,-37.7244 543.942,-28.5199"/>
<polygon fill="midnightblue" stroke="midnightblue" points="547.033,-30.1662 548.976,-19.7511 540.962,-26.6811 547.033,-30.1662"/>
</g>
<!-- Node7&#45;&gt;Node3 -->
<g id="edge7" class="edge"><title>Node7&#45;&gt;Node3</title>
<path fill="none" stroke="midnightblue" d="M274.314,-344.031C215.754,-341.428 88.7015,-332.124 62,-300 56.3181,-293.164 57.1843,-287.471 62,-280 153.724,-137.695 388.843,-123.168 471.077,-122.578"/>
<polygon fill="midnightblue" stroke="midnightblue" points="471.204,-126.078 481.203,-122.572 471.201,-119.078 471.204,-126.078"/>
</g>
<!-- Node7&#45;&gt;Node4 -->
<g id="edge9" class="edge"><title>Node7&#45;&gt;Node4</title>
<path fill="none" stroke="midnightblue" d="M274.231,-342.317C222.899,-337.101 120.75,-323.952 95,-300 72.9623,-279.501 76,-265.098 76,-235 76,-235 76,-235 76,-177 76,-91.5145 388.153,-72.0866 490.751,-68.0098"/>
<polygon fill="midnightblue" stroke="midnightblue" points="490.971,-71.5041 500.833,-67.6324 490.709,-64.509 490.971,-71.5041"/>
</g>
<!-- Node8 -->
<g id="node8" class="node"><title>Node8</title>
<polygon fill="white" stroke="#bfbfbf" points="104,-280.5 104,-299.5 144,-299.5 144,-280.5 104,-280.5"/>
<text text-anchor="middle" x="124" y="-287.5" font-family="Arial.ttf" font-size="10.00">stack</text>
</g>
<!-- Node7&#45;&gt;Node8 -->
<g id="edge8" class="edge"><title>Node7&#45;&gt;Node8</title>
<path fill="none" stroke="midnightblue" d="M275.023,-336.47C246.564,-328.069 201.662,-314.754 154.129,-300.321"/>
<polygon fill="midnightblue" stroke="midnightblue" points="154.858,-296.884 144.273,-297.323 152.822,-303.582 154.858,-296.884"/>
</g>
<!-- Node9 -->
<g id="node9" class="node"><title>Node9</title>
<g id="a_node9"><a xlink:href="_s_l_mat3_8h.html" target="_top" xlink:title="SLMat3.h">
<polygon fill="white" stroke="black" points="162.5,-280.5 162.5,-299.5 221.5,-299.5 221.5,-280.5 162.5,-280.5"/>
<text text-anchor="middle" x="192" y="-287.5" font-family="Arial.ttf" font-size="10.00">SLMat3.h</text>
</a>
</g>
</g>
<!-- Node7&#45;&gt;Node9 -->
<g id="edge10" class="edge"><title>Node7&#45;&gt;Node9</title>
<path fill="none" stroke="midnightblue" d="M286.005,-336.324C267.962,-327.625 239.953,-314.12 219.197,-304.113"/>
<polygon fill="midnightblue" stroke="midnightblue" points="220.478,-300.845 209.95,-299.655 217.438,-307.15 220.478,-300.845"/>
</g>
<!-- Node7&#45;&gt;Node10 -->
<g id="edge20" class="edge"><title>Node7&#45;&gt;Node10</title>
<path fill="none" stroke="midnightblue" d="M293.14,-336.31C277.98,-323.148 253.933,-297.808 269,-280 297.637,-246.154 428.676,-237.75 496.322,-235.674"/>
<polygon fill="midnightblue" stroke="midnightblue" points="496.709,-239.165 506.609,-235.392 496.517,-232.167 496.709,-239.165"/>
</g>
<!-- Node7&#45;&gt;Node13 -->
<g id="edge21" class="edge"><title>Node7&#45;&gt;Node13</title>
<path fill="none" stroke="midnightblue" d="M333.598,-341.073C405.375,-331.55 588.795,-307.214 670.58,-296.363"/>
<polygon fill="midnightblue" stroke="midnightblue" points="671.51,-299.77 680.963,-294.985 670.589,-292.831 671.51,-299.77"/>
</g>
<!-- Node14 -->
<g id="node14" class="node"><title>Node14</title>
<polygon fill="white" stroke="#bfbfbf" points="278,-280.5 278,-299.5 330,-299.5 330,-280.5 278,-280.5"/>
<text text-anchor="middle" x="304" y="-287.5" font-family="Arial.ttf" font-size="10.00">assert.h</text>
</g>
<!-- Node7&#45;&gt;Node14 -->
<g id="edge26" class="edge"><title>Node7&#45;&gt;Node14</title>
<path fill="none" stroke="midnightblue" d="M304,-336.083C304,-329.006 304,-318.861 304,-309.986"/>
<polygon fill="midnightblue" stroke="midnightblue" points="307.5,-309.751 304,-299.751 300.5,-309.751 307.5,-309.751"/>
</g>
<!-- Node15 -->
<g id="node15" class="node"><title>Node15</title>
<polygon fill="white" stroke="#bfbfbf" points="348.5,-280.5 348.5,-299.5 477.5,-299.5 477.5,-280.5 348.5,-280.5"/>
<text text-anchor="middle" x="413" y="-287.5" font-family="Arial.ttf" font-size="10.00">Shoemake/Decompose.h</text>
</g>
<!-- Node7&#45;&gt;Node15 -->
<g id="edge27" class="edge"><title>Node7&#45;&gt;Node15</title>
<path fill="none" stroke="midnightblue" d="M321.513,-336.324C339.072,-327.625 366.331,-314.12 386.531,-304.113"/>
<polygon fill="midnightblue" stroke="midnightblue" points="388.124,-307.23 395.531,-299.655 385.016,-300.958 388.124,-307.23"/>
</g>
<!-- Node16 -->
<g id="node16" class="node"><title>Node16</title>
<polygon fill="white" stroke="#bfbfbf" points="495.5,-280.5 495.5,-299.5 624.5,-299.5 624.5,-280.5 495.5,-280.5"/>
<text text-anchor="middle" x="560" y="-287.5" font-family="Arial.ttf" font-size="10.00">Shoemake/EulerAngles.h</text>
</g>
<!-- Node7&#45;&gt;Node16 -->
<g id="edge28" class="edge"><title>Node7&#45;&gt;Node16</title>
<path fill="none" stroke="midnightblue" d="M333.617,-338.753C376.556,-329.695 456.692,-312.792 509.186,-301.719"/>
<polygon fill="midnightblue" stroke="midnightblue" points="510.235,-305.075 519.297,-299.586 508.79,-298.225 510.235,-305.075"/>
</g>
<!-- Node9&#45;&gt;Node3 -->
<g id="edge11" class="edge"><title>Node9&#45;&gt;Node3</title>
<path fill="none" stroke="midnightblue" d="M197.644,-280.258C206.881,-266.564 226.471,-239.973 249,-224 320.934,-173.001 422.34,-142.486 471.313,-129.837"/>
<polygon fill="midnightblue" stroke="midnightblue" points="472.374,-133.18 481.214,-127.341 470.662,-126.392 472.374,-133.18"/>
</g>
<!-- Node9&#45;&gt;Node4 -->
<g id="edge12" class="edge"><title>Node9&#45;&gt;Node4</title>
<path fill="none" stroke="midnightblue" d="M198.235,-280.182C207.966,-266.852 227.856,-241.295 249,-224 329.532,-158.127 441.234,-103.643 493.642,-79.8608"/>
<polygon fill="midnightblue" stroke="midnightblue" points="495.325,-82.9417 503.011,-75.6503 492.455,-76.5568 495.325,-82.9417"/>
</g>
<!-- Node9&#45;&gt;Node10 -->
<g id="edge13" class="edge"><title>Node9&#45;&gt;Node10</title>
<path fill="none" stroke="midnightblue" d="M221.781,-282.684C226.529,-281.742 231.393,-280.815 236,-280 328.82,-263.581 438.445,-248.193 496.378,-240.372"/>
<polygon fill="midnightblue" stroke="midnightblue" points="497.134,-243.802 506.579,-239.001 496.202,-236.864 497.134,-243.802"/>
</g>
<!-- Node12 -->
<g id="node12" class="node"><title>Node12</title>
<polygon fill="white" stroke="#bfbfbf" points="258.5,-224.5 258.5,-243.5 313.5,-243.5 313.5,-224.5 258.5,-224.5"/>
<text text-anchor="middle" x="286" y="-231.5" font-family="Arial.ttf" font-size="10.00">iostream</text>
</g>
<!-- Node9&#45;&gt;Node12 -->
<g id="edge19" class="edge"><title>Node9&#45;&gt;Node12</title>
<path fill="none" stroke="midnightblue" d="M207.103,-280.324C221.903,-271.822 244.694,-258.729 261.982,-248.797"/>
<polygon fill="midnightblue" stroke="midnightblue" points="264.007,-251.671 270.935,-243.655 260.52,-245.601 264.007,-251.671"/>
</g>
<!-- Node10&#45;&gt;Node3 -->
<g id="edge14" class="edge"><title>Node10&#45;&gt;Node3</title>
<path fill="none" stroke="midnightblue" d="M534.097,-224.368C528.099,-206.537 514.227,-165.295 506.146,-141.272"/>
<polygon fill="midnightblue" stroke="midnightblue" points="509.395,-139.954 502.89,-131.591 502.761,-142.185 509.395,-139.954"/>
</g>
<!-- Node10&#45;&gt;Node4 -->
<g id="edge18" class="edge"><title>Node10&#45;&gt;Node4</title>
<path fill="none" stroke="midnightblue" d="M536.561,-224.161C535.915,-211.649 534.61,-188.06 533,-168 530.692,-139.236 527.244,-105.94 525.06,-85.682"/>
<polygon fill="midnightblue" stroke="midnightblue" points="528.528,-85.1986 523.965,-75.6369 521.569,-85.9574 528.528,-85.1986"/>
</g>
<!-- Node11 -->
<g id="node11" class="node"><title>Node11</title>
<g id="a_node11"><a xlink:href="_s_l_vec2_8h.html" target="_top" xlink:title="SLVec2.h">
<polygon fill="white" stroke="black" points="623,-168.5 623,-187.5 683,-187.5 683,-168.5 623,-168.5"/>
<text text-anchor="middle" x="653" y="-175.5" font-family="Arial.ttf" font-size="10.00">SLVec2.h</text>
</a>
</g>
</g>
<!-- Node10&#45;&gt;Node11 -->
<g id="edge15" class="edge"><title>Node10&#45;&gt;Node11</title>
<path fill="none" stroke="midnightblue" d="M555.381,-224.444C574.216,-215.675 603.731,-201.935 625.379,-191.858"/>
<polygon fill="midnightblue" stroke="midnightblue" points="627.117,-194.91 634.705,-187.516 624.162,-188.564 627.117,-194.91"/>
</g>
<!-- Node11&#45;&gt;Node3 -->
<g id="edge16" class="edge"><title>Node11&#45;&gt;Node3</title>
<path fill="none" stroke="midnightblue" d="M628.757,-168.444C601.471,-158.813 557.196,-143.187 528.336,-133.001"/>
<polygon fill="midnightblue" stroke="midnightblue" points="529.419,-129.672 518.824,-129.644 527.089,-136.273 529.419,-129.672"/>
</g>
<!-- Node11&#45;&gt;Node4 -->
<g id="edge17" class="edge"><title>Node11&#45;&gt;Node4</title>
<path fill="none" stroke="midnightblue" d="M642.799,-168.368C620.776,-149.733 568.538,-105.532 540.885,-82.1338"/>
<polygon fill="midnightblue" stroke="midnightblue" points="543.048,-79.379 533.153,-75.5914 538.527,-84.7227 543.048,-79.379"/>
</g>
<!-- Node13&#45;&gt;Node3 -->
<g id="edge22" class="edge"><title>Node13&#45;&gt;Node3</title>
<path fill="none" stroke="midnightblue" d="M699.953,-280.309C665.841,-253.472 561.894,-171.694 518.911,-137.878"/>
<polygon fill="midnightblue" stroke="midnightblue" points="520.961,-135.038 510.938,-131.605 516.633,-140.539 520.961,-135.038"/>
</g>
<!-- Node13&#45;&gt;Node4 -->
<g id="edge25" class="edge"><title>Node13&#45;&gt;Node4</title>
<path fill="none" stroke="midnightblue" d="M711.959,-280.216C713.817,-258.986 715.836,-203.989 692,-168 659.445,-118.846 594.039,-90.0786 554.829,-76.54"/>
<polygon fill="midnightblue" stroke="midnightblue" points="555.817,-73.1803 545.224,-73.3473 553.609,-79.823 555.817,-73.1803"/>
</g>
<!-- Node13&#45;&gt;Node10 -->
<g id="edge24" class="edge"><title>Node13&#45;&gt;Node10</title>
<path fill="none" stroke="midnightblue" d="M683.429,-280.444C653.903,-271.28 606.882,-256.688 574.117,-246.519"/>
<polygon fill="midnightblue" stroke="midnightblue" points="575.03,-243.138 564.442,-243.516 572.955,-249.823 575.03,-243.138"/>
</g>
<!-- Node13&#45;&gt;Node11 -->
<g id="edge23" class="edge"><title>Node13&#45;&gt;Node11</title>
<path fill="none" stroke="midnightblue" d="M706.449,-280.368C696.962,-262.376 674.908,-220.55 662.294,-196.627"/>
<polygon fill="midnightblue" stroke="midnightblue" points="665.29,-194.805 657.53,-187.591 659.098,-198.07 665.29,-194.805"/>
</g>
<!-- Node18 -->
<g id="node18" class="node"><title>Node18</title>
<g id="a_node18"><a xlink:href="_s_l_g_l_vertex_array_8h.html" target="_top" xlink:title="SLGLVertexArray.h">
<polygon fill="white" stroke="black" points="711.5,-392.5 711.5,-411.5 814.5,-411.5 814.5,-392.5 711.5,-392.5"/>
<text text-anchor="middle" x="763" y="-399.5" font-family="Arial.ttf" font-size="10.00">SLGLVertexArray.h</text>
</a>
</g>
</g>
<!-- Node17&#45;&gt;Node18 -->
<g id="edge32" class="edge"><title>Node17&#45;&gt;Node18</title>
<path fill="none" stroke="midnightblue" d="M705.086,-448.324C715.486,-440.185 731.261,-427.839 743.722,-418.087"/>
<polygon fill="midnightblue" stroke="midnightblue" points="745.994,-420.753 751.712,-411.834 741.68,-415.241 745.994,-420.753"/>
</g>
<!-- Node19 -->
<g id="node19" class="node"><title>Node19</title>
<g id="a_node19"><a xlink:href="_s_l_g_l_enums_8h.html" target="_top" xlink:title="SLGLEnums.h">
<polygon fill="white" stroke="black" points="759,-280.5 759,-299.5 841,-299.5 841,-280.5 759,-280.5"/>
<text text-anchor="middle" x="800" y="-287.5" font-family="Arial.ttf" font-size="10.00">SLGLEnums.h</text>
</a>
</g>
</g>
<!-- Node18&#45;&gt;Node19 -->
<g id="edge33" class="edge"><title>Node18&#45;&gt;Node19</title>
<path fill="none" stroke="midnightblue" d="M765.315,-392.084C768.652,-379.479 775.17,-355.782 782,-336 785.128,-326.94 789.036,-317.034 792.411,-308.828"/>
<polygon fill="midnightblue" stroke="midnightblue" points="795.668,-310.11 796.301,-299.534 789.211,-307.407 795.668,-310.11"/>
</g>
<!-- Node20 -->
<g id="node20" class="node"><title>Node20</title>
<g id="a_node20"><a xlink:href="_s_l_g_l_vertex_buffer_8h.html" target="_top" xlink:title="SLGLVertexBuffer.h">
<polygon fill="white" stroke="black" points="791,-336.5 791,-355.5 897,-355.5 897,-336.5 791,-336.5"/>
<text text-anchor="middle" x="844" y="-343.5" font-family="Arial.ttf" font-size="10.00">SLGLVertexBuffer.h</text>
</a>
</g>
</g>
<!-- Node18&#45;&gt;Node20 -->
<g id="edge35" class="edge"><title>Node18&#45;&gt;Node20</title>
<path fill="none" stroke="midnightblue" d="M776.014,-392.324C788.532,-383.979 807.682,-371.212 822.471,-361.352"/>
<polygon fill="midnightblue" stroke="midnightblue" points="824.639,-364.114 831.018,-355.655 820.756,-358.289 824.639,-364.114"/>
</g>
<!-- Node19&#45;&gt;Node3 -->
<g id="edge34" class="edge"><title>Node19&#45;&gt;Node3</title>
<path fill="none" stroke="midnightblue" d="M794.956,-280.347C781.411,-257.925 741.865,-197.631 692,-168 639.943,-137.066 568.168,-127.396 528.771,-124.374"/>
<polygon fill="midnightblue" stroke="midnightblue" points="528.773,-120.866 518.561,-123.686 528.302,-127.85 528.773,-120.866"/>
</g>
<!-- Node20&#45;&gt;Node10 -->
<g id="edge38" class="edge"><title>Node20&#45;&gt;Node10</title>
<path fill="none" stroke="midnightblue" d="M848.397,-336.207C854.582,-322.444 863.655,-295.759 850,-280 815.149,-239.78 653.558,-234.67 577.189,-234.558"/>
<polygon fill="midnightblue" stroke="midnightblue" points="576.995,-231.059 567,-234.573 577.005,-238.059 576.995,-231.059"/>
</g>
<!-- Node20&#45;&gt;Node11 -->
<g id="edge37" class="edge"><title>Node20&#45;&gt;Node11</title>
<path fill="none" stroke="midnightblue" d="M851.799,-336.479C862.655,-323.538 879.737,-298.481 868,-280 829.528,-219.422 744.019,-194.532 693.194,-184.803"/>
<polygon fill="midnightblue" stroke="midnightblue" points="693.673,-181.332 683.21,-183.001 692.43,-188.221 693.673,-181.332"/>
</g>
<!-- Node20&#45;&gt;Node13 -->
<g id="edge39" class="edge"><title>Node20&#45;&gt;Node13</title>
<path fill="none" stroke="midnightblue" d="M822.926,-336.444C800.94,-327.517 766.266,-313.439 741.336,-303.317"/>
<polygon fill="midnightblue" stroke="midnightblue" points="742.558,-300.035 731.976,-299.516 739.924,-306.521 742.558,-300.035"/>
</g>
<!-- Node20&#45;&gt;Node19 -->
<g id="edge36" class="edge"><title>Node20&#45;&gt;Node19</title>
<path fill="none" stroke="midnightblue" d="M836.734,-336.083C830.455,-328.377 821.212,-317.033 813.569,-307.653"/>
<polygon fill="midnightblue" stroke="midnightblue" points="816.161,-305.293 807.131,-299.751 810.734,-309.714 816.161,-305.293"/>
</g>
</g>
</svg>
