<?xml version="1.0" encoding="UTF-8" standalone="no"?>
<!DOCTYPE svg PUBLIC "-//W3C//DTD SVG 1.1//EN"
 "http://www.w3.org/Graphics/SVG/1.1/DTD/svg11.dtd">
<!-- Generated by graphviz version 2.40.1 (20161225.0304)
 -->
<!-- Title: SLGLVertexArrayExt.h Pages: 1 -->
<svg width="3228pt" height="467pt"
 viewBox="0.00 0.00 3228.40 467.00" xmlns="http://www.w3.org/2000/svg" xmlns:xlink="http://www.w3.org/1999/xlink">
<g id="graph0" class="graph" transform="scale(1 1) rotate(0) translate(4 463)">
<title>SLGLVertexArrayExt.h</title>
<polygon fill="#ffffff" stroke="transparent" points="-4,4 -4,-463 3224.397,-463 3224.397,4 -4,4"/>
<!-- Node1 -->
<g id="node1" class="node">
<title>Node1</title>
<g id="a_node1"><a xlink:title=" ">
<polygon fill="#bfbfbf" stroke="#000000" points="1369.2808,-440.5 1369.2808,-458.5 1485.1489,-458.5 1485.1489,-440.5 1369.2808,-440.5"/>
<text text-anchor="middle" x="1427.2148" y="-446.5" font-family="Arial.ttf" font-size="10.00" fill="#000000">SLGLVertexArrayExt.h</text>
</a>
</g>
</g>
<!-- Node2 -->
<g id="node2" class="node">
<title>Node2</title>
<g id="a_node2"><a xlink:href="_s_l_g_l_vertex_array_ext_8cpp.html" target="_top" xlink:title=" ">
<polygon fill="#ffffff" stroke="#000000" points="0,-.5 0,-18.5 126.4297,-18.5 126.4297,-.5 0,-.5"/>
<text text-anchor="middle" x="63.2148" y="-6.5" font-family="Arial.ttf" font-size="10.00" fill="#000000">SLGLVertexArrayExt.cpp</text>
</a>
</g>
</g>
<!-- Node1&#45;&gt;Node2 -->
<g id="edge1" class="edge">
<title>Node1&#45;&gt;Node2</title>
<path fill="none" stroke="#191970" d="M1358.84,-447.5242C1085.1346,-439.1727 83.2148,-404.1835 83.2148,-339.5 83.2148,-339.5 83.2148,-339.5 83.2148,-119.5 83.2148,-81.4558 71.4912,-37.1868 65.9958,-18.5255"/>
<polygon fill="#191970" stroke="#191970" points="1358.932,-451.0285 1369.0335,-447.8332 1359.1441,-444.0317 1358.932,-451.0285"/>
</g>
<!-- Node3 -->
<g id="node3" class="node">
<title>Node3</title>
<g id="a_node3"><a xlink:href="_s_l_curve_bezier_8h.html" target="_top" xlink:title=" ">
<polygon fill="#ffffff" stroke="#000000" points="458.6929,-55.5 458.6929,-73.5 549.7368,-73.5 549.7368,-55.5 458.6929,-55.5"/>
<text text-anchor="middle" x="504.2148" y="-61.5" font-family="Arial.ttf" font-size="10.00" fill="#000000">SLCurveBezier.h</text>
</a>
</g>
</g>
<!-- Node1&#45;&gt;Node3 -->
<g id="edge2" class="edge">
<title>Node1&#45;&gt;Node3</title>
<path fill="none" stroke="#191970" d="M1358.8009,-443.408C1251.119,-431.9055 1054.2148,-402.2882 1054.2148,-339.5 1054.2148,-339.5 1054.2148,-339.5 1054.2148,-174.5 1054.2148,-123.2553 682.3484,-81.9108 550.1615,-68.833"/>
<polygon fill="#191970" stroke="#191970" points="1358.6244,-446.9085 1368.9336,-444.4651 1359.3508,-439.9462 1358.6244,-446.9085"/>
</g>
<!-- Node7 -->
<g id="node7" class="node">
<title>Node7</title>
<g id="a_node7"><a xlink:href="_s_l_a_a_b_box_8h.html" target="_top" xlink:title=" ">
<polygon fill="#ffffff" stroke="#000000" points="1390.3086,-385.5 1390.3086,-403.5 1464.1211,-403.5 1464.1211,-385.5 1390.3086,-385.5"/>
<text text-anchor="middle" x="1427.2148" y="-391.5" font-family="Arial.ttf" font-size="10.00" fill="#000000">SLAABBox.h</text>
</a>
</g>
</g>
<!-- Node1&#45;&gt;Node7 -->
<g id="edge6" class="edge">
<title>Node1&#45;&gt;Node7</title>
<path fill="none" stroke="#191970" d="M1427.2148,-430.383C1427.2148,-421.3738 1427.2148,-411.0373 1427.2148,-403.7795"/>
<polygon fill="#191970" stroke="#191970" points="1423.7149,-430.4178 1427.2148,-440.4179 1430.7149,-430.4179 1423.7149,-430.4178"/>
</g>
<!-- Node19 -->
<g id="node13" class="node">
<title>Node19</title>
<g id="a_node13"><a xlink:href="_s_l_compact_grid_8h.html" target="_top" xlink:title=" ">
<polygon fill="#ffffff" stroke="#000000" points="2773.4761,-110.5 2773.4761,-128.5 2868.9536,-128.5 2868.9536,-110.5 2773.4761,-110.5"/>
<text text-anchor="middle" x="2821.2148" y="-116.5" font-family="Arial.ttf" font-size="10.00" fill="#000000">SLCompactGrid.h</text>
</a>
</g>
</g>
<!-- Node1&#45;&gt;Node19 -->
<g id="edge90" class="edge">
<title>Node1&#45;&gt;Node19</title>
<path fill="none" stroke="#191970" d="M1495.4371,-447.5162C1768.5315,-439.1335 2768.2148,-404.0401 2768.2148,-339.5 2768.2148,-339.5 2768.2148,-339.5 2768.2148,-229.5 2768.2148,-188.5872 2798.3387,-146.842 2813.1653,-128.7733"/>
<polygon fill="#191970" stroke="#191970" points="1495.155,-444.0231 1485.2664,-447.8263 1495.3684,-451.0198 1495.155,-444.0231"/>
</g>
<!-- Node67 -->
<g id="node26" class="node">
<title>Node67</title>
<g id="a_node26"><a xlink:href="_s_l_camera_8h.html" target="_top" xlink:title=" ">
<polygon fill="#ffffff" stroke="#000000" points="2119.146,-220.5 2119.146,-238.5 2191.2837,-238.5 2191.2837,-220.5 2119.146,-220.5"/>
<text text-anchor="middle" x="2155.2148" y="-226.5" font-family="Arial.ttf" font-size="10.00" fill="#000000">SLCamera.h</text>
</a>
</g>
</g>
<!-- Node1&#45;&gt;Node67 -->
<g id="edge89" class="edge">
<title>Node1&#45;&gt;Node67</title>
<path fill="none" stroke="#191970" d="M1466.6851,-437.5722C1596.6958,-398.2832 2009.7724,-273.4524 2125.07,-238.6097"/>
<polygon fill="#191970" stroke="#191970" points="1465.6705,-434.2224 1457.1105,-440.4656 1467.6955,-440.9231 1465.6705,-434.2224"/>
</g>
<!-- Node52 -->
<g id="node38" class="node">
<title>Node52</title>
<g id="a_node38"><a xlink:href="_s_l_scene_view_8h.html" target="_top" xlink:title=" ">
<polygon fill="#ffffff" stroke="#000000" points="1687.2759,-55.5 1687.2759,-73.5 1773.1538,-73.5 1773.1538,-55.5 1687.2759,-55.5"/>
<text text-anchor="middle" x="1730.2148" y="-61.5" font-family="Arial.ttf" font-size="10.00" fill="#000000">SLSceneView.h</text>
</a>
</g>
</g>
<!-- Node1&#45;&gt;Node52 -->
<g id="edge122" class="edge">
<title>Node1&#45;&gt;Node52</title>
<path fill="none" stroke="#191970" d="M1447.355,-433.6732C1456.3939,-425.6429 1466.5089,-415.2211 1473.2148,-404 1488.5454,-378.3473 1492.2148,-369.3846 1492.2148,-339.5 1492.2148,-339.5 1492.2148,-339.5 1492.2148,-174.5 1492.2148,-130.8584 1625.7414,-90.88 1692.7655,-73.5617"/>
<polygon fill="#191970" stroke="#191970" points="1444.8599,-431.1995 1439.4853,-440.33 1449.3806,-436.544 1444.8599,-431.1995"/>
</g>
<!-- Node112 -->
<g id="node49" class="node">
<title>Node112</title>
<g id="a_node49"><a xlink:href="_s_l_rect_8h.html" target="_top" xlink:title=" ">
<polygon fill="#ffffff" stroke="#000000" points="1368.6484,-165.5 1368.6484,-183.5 1425.7813,-183.5 1425.7813,-165.5 1368.6484,-165.5"/>
<text text-anchor="middle" x="1397.2148" y="-171.5" font-family="Arial.ttf" font-size="10.00" fill="#000000">SLRect.h</text>
</a>
</g>
</g>
<!-- Node1&#45;&gt;Node112 -->
<g id="edge91" class="edge">
<title>Node1&#45;&gt;Node112</title>
<path fill="none" stroke="#191970" d="M1383.3107,-437.3303C1339.6766,-422.2417 1279.2148,-391.8832 1279.2148,-339.5 1279.2148,-339.5 1279.2148,-339.5 1279.2148,-284.5 1279.2148,-233.1074 1339.843,-198.8732 1374.1831,-183.6046"/>
<polygon fill="#191970" stroke="#191970" points="1382.2955,-440.6809 1392.8887,-440.4946 1384.4914,-434.0342 1382.2955,-440.6809"/>
</g>
<!-- Node4 -->
<g id="node4" class="node">
<title>Node4</title>
<g id="a_node4"><a xlink:href="_s_l_curve_bezier_8cpp.html" target="_top" xlink:title=" ">
<polygon fill="#ffffff" stroke="#000000" points="144.4121,-.5 144.4121,-18.5 246.0176,-18.5 246.0176,-.5 144.4121,-.5"/>
<text text-anchor="middle" x="195.2148" y="-6.5" font-family="Arial.ttf" font-size="10.00" fill="#000000">SLCurveBezier.cpp</text>
</a>
</g>
</g>
<!-- Node3&#45;&gt;Node4 -->
<g id="edge3" class="edge">
<title>Node3&#45;&gt;Node4</title>
<path fill="none" stroke="#191970" d="M448.5939,-54.5998C390.9472,-44.3391 301.6265,-28.4406 245.8804,-18.5181"/>
<polygon fill="#191970" stroke="#191970" points="448.1622,-58.0779 458.6208,-56.3846 449.3889,-51.1862 448.1622,-58.0779"/>
</g>
<!-- Node5 -->
<g id="node5" class="node">
<title>Node5</title>
<g id="a_node5"><a xlink:href="_s_l_animation_8cpp.html" target="_top" xlink:title=" ">
<polygon fill="#ffffff" stroke="#000000" points="264.4146,-.5 264.4146,-18.5 356.0151,-18.5 356.0151,-.5 264.4146,-.5"/>
<text text-anchor="middle" x="310.2148" y="-6.5" font-family="Arial.ttf" font-size="10.00" fill="#000000">SLAnimation.cpp</text>
</a>
</g>
</g>
<!-- Node3&#45;&gt;Node5 -->
<g id="edge4" class="edge">
<title>Node3&#45;&gt;Node5</title>
<path fill="none" stroke="#191970" d="M462.4221,-52.6515C426.2863,-42.4068 374.8262,-27.8177 341.9751,-18.5042"/>
<polygon fill="#191970" stroke="#191970" points="461.6042,-56.0575 472.1797,-55.4179 463.5135,-49.3229 461.6042,-56.0575"/>
</g>
<!-- Node6 -->
<g id="node6" class="node">
<title>Node6</title>
<g id="a_node6"><a xlink:href="_s_l_anim_track_8cpp.html" target="_top" xlink:title=" ">
<polygon fill="#ffffff" stroke="#000000" points="475.9399,-.5 475.9399,-18.5 570.4897,-18.5 570.4897,-.5 475.9399,-.5"/>
<text text-anchor="middle" x="523.2148" y="-6.5" font-family="Arial.ttf" font-size="10.00" fill="#000000">SLAnimTrack.cpp</text>
</a>
</g>
</g>
<!-- Node3&#45;&gt;Node6 -->
<g id="edge5" class="edge">
<title>Node3&#45;&gt;Node6</title>
<path fill="none" stroke="#191970" d="M510.7165,-45.6796C513.8525,-36.6014 517.4744,-26.1171 520.0092,-18.7795"/>
<polygon fill="#191970" stroke="#191970" points="507.3094,-44.8231 507.3523,-55.4179 513.9257,-47.1088 507.3094,-44.8231"/>
</g>
<!-- Node8 -->
<g id="node8" class="node">
<title>Node8</title>
<g id="a_node8"><a xlink:href="_s_l_a_a_b_box_8cpp.html" target="_top" xlink:title=" ">
<polygon fill="#ffffff" stroke="#000000" points="374.0278,-.5 374.0278,-18.5 458.4019,-18.5 458.4019,-.5 374.0278,-.5"/>
<text text-anchor="middle" x="416.2148" y="-6.5" font-family="Arial.ttf" font-size="10.00" fill="#000000">SLAABBox.cpp</text>
</a>
</g>
</g>
<!-- Node7&#45;&gt;Node8 -->
<g id="edge7" class="edge">
<title>Node7&#45;&gt;Node8</title>
<path fill="none" stroke="#191970" d="M1406.7182,-379.3345C1353.1635,-340.1758 1203.7922,-233.9298 1068.2148,-165 1008.254,-134.5149 991.8036,-128.7867 927.2148,-110 882.0701,-96.8689 572.9457,-38.7301 458.6112,-17.3897"/>
<polygon fill="#191970" stroke="#191970" points="1404.8975,-382.3398 1415.0296,-385.4368 1409.0403,-376.6973 1404.8975,-382.3398"/>
</g>
<!-- Node9 -->
<g id="node9" class="node">
<title>Node9</title>
<g id="a_node9"><a xlink:href="_s_l_mesh_8h.html" target="_top" xlink:title=" ">
<polygon fill="#ffffff" stroke="#ff0000" points="2881.7026,-330.5 2881.7026,-348.5 2942.7271,-348.5 2942.7271,-330.5 2881.7026,-330.5"/>
<text text-anchor="middle" x="2912.2148" y="-336.5" font-family="Arial.ttf" font-size="10.00" fill="#000000">SLMesh.h</text>
</a>
</g>
</g>
<!-- Node7&#45;&gt;Node9 -->
<g id="edge8" class="edge">
<title>Node7&#45;&gt;Node9</title>
<path fill="none" stroke="#191970" d="M1474.2897,-392.7565C1702.9371,-384.2881 2694.2535,-347.5726 2881.6033,-340.6338"/>
<polygon fill="#191970" stroke="#191970" points="1474.157,-389.2589 1464.2934,-393.1267 1474.4161,-396.2541 1474.157,-389.2589"/>
</g>
<!-- Node7&#45;&gt;Node52 -->
<g id="edge88" class="edge">
<title>Node7&#45;&gt;Node52</title>
<path fill="none" stroke="#191970" d="M1434.7622,-375.6948C1442.7502,-354.0632 1454.2148,-317.3029 1454.2148,-284.5 1454.2148,-284.5 1454.2148,-284.5 1454.2148,-174.5 1454.2148,-143.9131 1454.7539,-129.625 1478.2148,-110 1509.2884,-84.007 1623.8376,-71.9632 1687.2587,-67.1811"/>
<polygon fill="#191970" stroke="#191970" points="1431.4023,-374.6811 1431.0833,-385.2711 1437.9367,-377.1914 1431.4023,-374.6811"/>
</g>
<!-- Node10 -->
<g id="node10" class="node">
<title>Node10</title>
<g id="a_node10"><a xlink:href="_s_l_importer_8h.html" target="_top" xlink:title=" ">
<polygon fill="#ffffff" stroke="#ff0000" points="2978.5869,-220.5 2978.5869,-238.5 3051.8428,-238.5 3051.8428,-220.5 2978.5869,-220.5"/>
<text text-anchor="middle" x="3015.2148" y="-226.5" font-family="Arial.ttf" font-size="10.00" fill="#000000">SLImporter.h</text>
</a>
</g>
</g>
<!-- Node9&#45;&gt;Node10 -->
<g id="edge9" class="edge">
<title>Node9&#45;&gt;Node10</title>
<path fill="none" stroke="#191970" d="M2931.781,-323.8407C2941.8697,-315.4112 2954.1375,-304.592 2964.2148,-294 2981.7299,-275.5905 2999.5445,-251.5986 3008.7743,-238.6875"/>
<polygon fill="#191970" stroke="#191970" points="2929.4207,-321.2501 2923.915,-330.302 2933.8639,-326.6592 2929.4207,-321.2501"/>
</g>
<!-- Node17 -->
<g id="node11" class="node">
<title>Node17</title>
<g id="a_node11"><a xlink:href="_app_demo_gui_8cpp.html" target="_top" xlink:title=" ">
<polygon fill="#ffffff" stroke="#000000" points="2976.7495,-.5 2976.7495,-18.5 3071.6802,-18.5 3071.6802,-.5 2976.7495,-.5"/>
<text text-anchor="middle" x="3024.2148" y="-6.5" font-family="Arial.ttf" font-size="10.00" fill="#000000">AppDemoGui.cpp</text>
</a>
</g>
</g>
<!-- Node9&#45;&gt;Node17 -->
<g id="edge87" class="edge">
<title>Node9&#45;&gt;Node17</title>
<path fill="none" stroke="#191970" d="M2918.5906,-320.7144C2939.5442,-258.9761 3005.8147,-63.7147 3021.0644,-18.7826"/>
<polygon fill="#191970" stroke="#191970" points="2915.2269,-319.7351 2915.3273,-330.3295 2921.8555,-321.9849 2915.2269,-319.7351"/>
</g>
<!-- Node18 -->
<g id="node12" class="node">
<title>Node18</title>
<g id="a_node12"><a xlink:href="_s_l_accel_struct_8h.html" target="_top" xlink:title=" ">
<polygon fill="#ffffff" stroke="#ff0000" points="2796.6436,-220.5 2796.6436,-238.5 2883.7861,-238.5 2883.7861,-220.5 2796.6436,-220.5"/>
<text text-anchor="middle" x="2840.2148" y="-226.5" font-family="Arial.ttf" font-size="10.00" fill="#000000">SLAccelStruct.h</text>
</a>
</g>
</g>
<!-- Node9&#45;&gt;Node18 -->
<g id="edge11" class="edge">
<title>Node9&#45;&gt;Node18</title>
<path fill="none" stroke="#191970" d="M2900.8335,-322.1118C2885.342,-298.4442 2858.1765,-256.9414 2846.1883,-238.6261"/>
<polygon fill="#191970" stroke="#191970" points="2897.9177,-324.048 2906.3228,-330.4982 2903.7746,-320.2144 2897.9177,-324.048"/>
</g>
<!-- Node25 -->
<g id="node16" class="node">
<title>Node25</title>
<g id="a_node16"><a xlink:href="_s_l_box_8h.html" target="_top" xlink:title=" ">
<polygon fill="#ffffff" stroke="#ff0000" points="2872.3135,-55.5 2872.3135,-73.5 2926.1162,-73.5 2926.1162,-55.5 2872.3135,-55.5"/>
<text text-anchor="middle" x="2899.2148" y="-61.5" font-family="Arial.ttf" font-size="10.00" fill="#000000">SLBox.h</text>
</a>
</g>
</g>
<!-- Node9&#45;&gt;Node25 -->
<g id="edge15" class="edge">
<title>Node9&#45;&gt;Node25</title>
<path fill="none" stroke="#191970" d="M2912.2148,-320.083C2912.2148,-298.1043 2912.2148,-261.2282 2912.2148,-229.5 2912.2148,-229.5 2912.2148,-229.5 2912.2148,-174.5 2912.2148,-136.809 2904.5945,-92.3523 2901.0224,-73.5837"/>
<polygon fill="#191970" stroke="#191970" points="2908.7149,-320.3733 2912.2148,-330.3733 2915.7149,-320.3734 2908.7149,-320.3733"/>
</g>
<!-- Node28 -->
<g id="node19" class="node">
<title>Node28</title>
<g id="a_node19"><a xlink:href="_s_l_coord_axis_8h.html" target="_top" xlink:title=" ">
<polygon fill="#ffffff" stroke="#ff0000" points="3040.8652,-110.5 3040.8652,-128.5 3123.5645,-128.5 3123.5645,-110.5 3040.8652,-110.5"/>
<text text-anchor="middle" x="3082.2148" y="-116.5" font-family="Arial.ttf" font-size="10.00" fill="#000000">SLCoordAxis.h</text>
</a>
</g>
</g>
<!-- Node9&#45;&gt;Node28 -->
<g id="edge18" class="edge">
<title>Node9&#45;&gt;Node28</title>
<path fill="none" stroke="#191970" d="M2946.1887,-326.4951C2981.2008,-311.1873 3034.3449,-282.2414 3061.2148,-239 3083.5614,-203.038 3083.7628,-149.8794 3082.8178,-128.6977"/>
<polygon fill="#191970" stroke="#191970" points="2944.6787,-323.3335 2936.8312,-330.4516 2947.4048,-329.7809 2944.6787,-323.3335"/>
</g>
<!-- Node30 -->
<g id="node20" class="node">
<title>Node30</title>
<g id="a_node20"><a xlink:href="_s_l_grid_8h.html" target="_top" xlink:title=" ">
<polygon fill="#ffffff" stroke="#ff0000" points="3108.4834,-220.5 3108.4834,-238.5 3163.9463,-238.5 3163.9463,-220.5 3108.4834,-220.5"/>
<text text-anchor="middle" x="3136.2148" y="-226.5" font-family="Arial.ttf" font-size="10.00" fill="#000000">SLGrid.h</text>
</a>
</g>
</g>
<!-- Node9&#45;&gt;Node30 -->
<g id="edge20" class="edge">
<title>Node9&#45;&gt;Node30</title>
<path fill="none" stroke="#191970" d="M2953.0554,-332.8713C2999.4926,-324.7226 3071.7775,-309.9942 3094.2148,-294 3114.2361,-279.7281 3127.1741,-252.6512 3132.868,-238.5495"/>
<polygon fill="#191970" stroke="#191970" points="2952.2558,-329.4574 2942.9955,-334.6049 2953.4447,-336.3557 2952.2558,-329.4574"/>
</g>
<!-- Node32 -->
<g id="node21" class="node">
<title>Node32</title>
<g id="a_node21"><a xlink:href="_s_l_revolver_8h.html" target="_top" xlink:title=" ">
<polygon fill="#ffffff" stroke="#ff0000" points="2473.4736,-275.5 2473.4736,-293.5 2548.9561,-293.5 2548.9561,-275.5 2473.4736,-275.5"/>
<text text-anchor="middle" x="2511.2148" y="-281.5" font-family="Arial.ttf" font-size="10.00" fill="#000000">SLRevolver.h</text>
</a>
</g>
</g>
<!-- Node9&#45;&gt;Node32 -->
<g id="edge22" class="edge">
<title>Node9&#45;&gt;Node32</title>
<path fill="none" stroke="#191970" d="M2871.3257,-335.2074C2805.2732,-328.0571 2671.0863,-312.6364 2558.2148,-294 2555.258,-293.5118 2552.2033,-292.973 2549.1367,-292.4076"/>
<polygon fill="#191970" stroke="#191970" points="2871.011,-338.6937 2881.328,-336.2832 2871.7596,-331.7338 2871.011,-338.6937"/>
</g>
<!-- Node49 -->
<g id="node22" class="node">
<title>Node49</title>
<g id="a_node22"><a xlink:href="_s_l_node_8h.html" target="_top" xlink:title=" ">
<polygon fill="#ffffff" stroke="#ff0000" points="2566.9761,-275.5 2566.9761,-293.5 2627.4536,-293.5 2627.4536,-275.5 2566.9761,-275.5"/>
<text text-anchor="middle" x="2597.2148" y="-281.5" font-family="Arial.ttf" font-size="10.00" fill="#000000">SLNode.h</text>
</a>
</g>
</g>
<!-- Node9&#45;&gt;Node49 -->
<g id="edge23" class="edge">
<title>Node9&#45;&gt;Node49</title>
<path fill="none" stroke="#191970" d="M2871.2992,-332.356C2807.2061,-321.1651 2684.5851,-299.7551 2627.6531,-289.8146"/>
<polygon fill="#191970" stroke="#191970" points="2870.9848,-335.854 2881.4378,-334.1262 2872.1888,-328.9583 2870.9848,-335.854"/>
</g>
<!-- Node71 -->
<g id="node30" class="node">
<title>Node71</title>
<g id="a_node30"><a xlink:href="_s_l_scene_8h.html" target="_top" xlink:title=" ">
<polygon fill="#ffffff" stroke="#ff0000" points="1208.752,-110.5 1208.752,-128.5 1273.6777,-128.5 1273.6777,-110.5 1208.752,-110.5"/>
<text text-anchor="middle" x="1241.2148" y="-116.5" font-family="Arial.ttf" font-size="10.00" fill="#000000">SLScene.h</text>
</a>
</g>
</g>
<!-- Node9&#45;&gt;Node71 -->
<g id="edge86" class="edge">
<title>Node9&#45;&gt;Node71</title>
<path fill="none" stroke="#191970" d="M2871.5188,-338.3617C2629.766,-331.2509 1388.5852,-289.7522 1260.2148,-184 1243.6364,-170.3426 1241.074,-142.9969 1240.9441,-128.6953"/>
<polygon fill="#191970" stroke="#191970" points="2871.5334,-341.8635 2881.6311,-338.6562 2871.7372,-334.8665 2871.5334,-341.8635"/>
</g>
<!-- Node101 -->
<g id="node48" class="node">
<title>Node101</title>
<g id="a_node48"><a xlink:href="_s_l_points_8h.html" target="_top" xlink:title=" ">
<polygon fill="#ffffff" stroke="#ff0000" points="3156.0327,-275.5 3156.0327,-293.5 3220.397,-293.5 3220.397,-275.5 3156.0327,-275.5"/>
<text text-anchor="middle" x="3188.2148" y="-281.5" font-family="Arial.ttf" font-size="10.00" fill="#000000">SLPoints.h</text>
</a>
</g>
</g>
<!-- Node9&#45;&gt;Node101 -->
<g id="edge84" class="edge">
<title>Node9&#45;&gt;Node101</title>
<path fill="none" stroke="#191970" d="M2952.9137,-331.3897C3008.0302,-320.4064 3105.302,-301.0225 3155.7808,-290.9633"/>
<polygon fill="#191970" stroke="#191970" points="2951.9293,-328.017 2942.8062,-333.4039 2953.2974,-334.882 2951.9293,-328.017"/>
</g>
<!-- Node10&#45;&gt;Node17 -->
<g id="edge10" class="edge">
<title>Node10&#45;&gt;Node17</title>
<path fill="none" stroke="#191970" d="M3016.0001,-210.3056C3017.8612,-164.8101 3022.486,-51.7616 3023.838,-18.7122"/>
<polygon fill="#191970" stroke="#191970" points="3012.5019,-210.1922 3015.5901,-220.327 3019.496,-210.4784 3012.5019,-210.1922"/>
</g>
<!-- Node18&#45;&gt;Node19 -->
<g id="edge12" class="edge">
<title>Node18&#45;&gt;Node19</title>
<path fill="none" stroke="#191970" d="M2836.9357,-210.5152C2832.8082,-186.6191 2825.8847,-146.5362 2822.7912,-128.6261"/>
<polygon fill="#191970" stroke="#191970" points="2833.5089,-211.2399 2838.66,-220.4982 2840.4068,-210.0484 2833.5089,-211.2399"/>
</g>
<!-- Node20 -->
<g id="node14" class="node">
<title>Node20</title>
<g id="a_node14"><a xlink:href="_s_l_compact_grid_8cpp.html" target="_top" xlink:title=" ">
<polygon fill="#ffffff" stroke="#000000" points="2853.1953,-.5 2853.1953,-18.5 2959.2344,-18.5 2959.2344,-.5 2853.1953,-.5"/>
<text text-anchor="middle" x="2906.2148" y="-6.5" font-family="Arial.ttf" font-size="10.00" fill="#000000">SLCompactGrid.cpp</text>
</a>
</g>
</g>
<!-- Node19&#45;&gt;Node20 -->
<g id="edge13" class="edge">
<title>Node19&#45;&gt;Node20</title>
<path fill="none" stroke="#191970" d="M2831.5896,-101.7326C2839.6331,-88.4381 2851.3716,-70.0359 2863.2148,-55 2873.7062,-41.6804 2887.3788,-27.6982 2896.4596,-18.807"/>
<polygon fill="#191970" stroke="#191970" points="2828.5442,-100.0061 2826.437,-110.3893 2834.5593,-103.5864 2828.5442,-100.0061"/>
</g>
<!-- Node21 -->
<g id="node15" class="node">
<title>Node21</title>
<g id="a_node15"><a xlink:href="_s_l_mesh_8cpp.html" target="_top" xlink:title=" ">
<polygon fill="#ffffff" stroke="#000000" points="2665.4219,-.5 2665.4219,-18.5 2737.0078,-18.5 2737.0078,-.5 2665.4219,-.5"/>
<text text-anchor="middle" x="2701.2148" y="-6.5" font-family="Arial.ttf" font-size="10.00" fill="#000000">SLMesh.cpp</text>
</a>
</g>
</g>
<!-- Node19&#45;&gt;Node21 -->
<g id="edge14" class="edge">
<title>Node19&#45;&gt;Node21</title>
<path fill="none" stroke="#191970" d="M2803.9306,-103.6561C2778.4424,-80.292 2731.593,-37.3466 2711.1706,-18.6261"/>
<polygon fill="#191970" stroke="#191970" points="2801.6581,-106.321 2811.3947,-110.4982 2806.3882,-101.1609 2801.6581,-106.321"/>
</g>
<!-- Node26 -->
<g id="node17" class="node">
<title>Node26</title>
<g id="a_node17"><a xlink:href="_s_l_skybox_8cpp.html" target="_top" xlink:title=" ">
<polygon fill="#ffffff" stroke="#000000" points="2755.252,-.5 2755.252,-18.5 2835.1777,-18.5 2835.1777,-.5 2755.252,-.5"/>
<text text-anchor="middle" x="2795.2148" y="-6.5" font-family="Arial.ttf" font-size="10.00" fill="#000000">SLSkybox.cpp</text>
</a>
</g>
</g>
<!-- Node25&#45;&gt;Node26 -->
<g id="edge16" class="edge">
<title>Node25&#45;&gt;Node26</title>
<path fill="none" stroke="#191970" d="M2873.0175,-50.6456C2854.0348,-40.6067 2828.9072,-27.3181 2812.4138,-18.5956"/>
<polygon fill="#191970" stroke="#191970" points="2871.5651,-53.8368 2882.0414,-55.4179 2874.8377,-47.6489 2871.5651,-53.8368"/>
</g>
<!-- Node16 -->
<g id="node18" class="node">
<title>Node16</title>
<g id="a_node18"><a xlink:href="_app_demo_load_8cpp.html" target="_top" xlink:title=" ">
<polygon fill="#ffffff" stroke="#000000" points="3089.4072,-.5 3089.4072,-18.5 3191.0225,-18.5 3191.0225,-.5 3089.4072,-.5"/>
<text text-anchor="middle" x="3140.2148" y="-6.5" font-family="Arial.ttf" font-size="10.00" fill="#000000">AppDemoLoad.cpp</text>
</a>
</g>
</g>
<!-- Node25&#45;&gt;Node16 -->
<g id="edge17" class="edge">
<title>Node25&#45;&gt;Node16</title>
<path fill="none" stroke="#191970" d="M2936.1962,-56.0603C2980.5867,-45.9297 3054.7362,-29.0076 3100.3648,-18.5944"/>
<polygon fill="#191970" stroke="#191970" points="2935.3627,-52.6604 2926.3921,-58.2977 2936.9202,-59.485 2935.3627,-52.6604"/>
</g>
<!-- Node28&#45;&gt;Node16 -->
<g id="edge19" class="edge">
<title>Node28&#45;&gt;Node16</title>
<path fill="none" stroke="#191970" d="M3091.7167,-101.4793C3104.2488,-77.7115 3125.8312,-36.7793 3135.4029,-18.6261"/>
<polygon fill="#191970" stroke="#191970" points="3088.5294,-100.0201 3086.9612,-110.4982 3094.7214,-103.285 3088.5294,-100.0201"/>
</g>
<!-- Node30&#45;&gt;Node16 -->
<g id="edge21" class="edge">
<title>Node30&#45;&gt;Node16</title>
<path fill="none" stroke="#191970" d="M3136.5638,-210.3056C3137.391,-164.8101 3139.4465,-51.7616 3140.0473,-18.7122"/>
<polygon fill="#191970" stroke="#191970" points="3133.0641,-210.265 3136.3816,-220.327 3140.0629,-210.3923 3133.0641,-210.265"/>
</g>
<!-- Node49&#45;&gt;Node17 -->
<g id="edge83" class="edge">
<title>Node49&#45;&gt;Node17</title>
<path fill="none" stroke="#191970" d="M2635.016,-271.6979C2674.3343,-255.7022 2730.2148,-224.2222 2730.2148,-174.5 2730.2148,-174.5 2730.2148,-174.5 2730.2148,-119.5 2730.2148,-53.8045 2801.8117,-78.357 2863.2148,-55 2903.8017,-39.5613 2951.8914,-26.6373 2984.8793,-18.5561"/>
<polygon fill="#191970" stroke="#191970" points="2633.4701,-268.5438 2625.4207,-275.4327 2636.0093,-275.0671 2633.4701,-268.5438"/>
</g>
<!-- Node49&#45;&gt;Node20 -->
<g id="edge24" class="edge">
<title>Node49&#45;&gt;Node20</title>
<path fill="none" stroke="#191970" d="M2622.3537,-270.0058C2650.4988,-251.6834 2692.2148,-217.3061 2692.2148,-174.5 2692.2148,-174.5 2692.2148,-174.5 2692.2148,-119.5 2692.2148,-88.9131 2693.3168,-75.2789 2716.2148,-55 2726.8797,-45.5551 2805.3731,-28.9114 2858.0771,-18.5849"/>
<polygon fill="#191970" stroke="#191970" points="2620.3837,-267.1097 2613.7626,-275.3808 2624.0965,-273.0439 2620.3837,-267.1097"/>
</g>
<!-- Node49&#45;&gt;Node21 -->
<g id="edge25" class="edge">
<title>Node49&#45;&gt;Node21</title>
<path fill="none" stroke="#191970" d="M2603.0182,-265.4582C2615.3249,-225.7308 2645.5991,-131.3624 2678.2148,-55 2683.708,-42.1391 2691.1817,-27.8215 2696.0988,-18.7443"/>
<polygon fill="#191970" stroke="#191970" points="2599.6306,-264.567 2600.0366,-275.1541 2606.3214,-266.6246 2599.6306,-264.567"/>
</g>
<!-- Node50 -->
<g id="node23" class="node">
<title>Node50</title>
<g id="a_node23"><a xlink:href="_s_l_node_8cpp.html" target="_top" xlink:title=" ">
<polygon fill="#ffffff" stroke="#000000" points="2457.6953,-.5 2457.6953,-18.5 2528.7344,-18.5 2528.7344,-.5 2457.6953,-.5"/>
<text text-anchor="middle" x="2493.2148" y="-6.5" font-family="Arial.ttf" font-size="10.00" fill="#000000">SLNode.cpp</text>
</a>
</g>
</g>
<!-- Node49&#45;&gt;Node50 -->
<g id="edge26" class="edge">
<title>Node49&#45;&gt;Node50</title>
<path fill="none" stroke="#191970" d="M2559.4137,-271.6979C2520.0954,-255.7022 2464.2148,-224.2222 2464.2148,-174.5 2464.2148,-174.5 2464.2148,-174.5 2464.2148,-119.5 2464.2148,-80.988 2481.0411,-37.3229 2489.0599,-18.7004"/>
<polygon fill="#191970" stroke="#191970" points="2558.4204,-275.0671 2569.009,-275.4327 2560.9595,-268.5438 2558.4204,-275.0671"/>
</g>
<!-- Node24 -->
<g id="node24" class="node">
<title>Node24</title>
<g id="a_node24"><a xlink:href="_s_l_uniform_grid_8cpp.html" target="_top" xlink:title=" ">
<polygon fill="#ffffff" stroke="#000000" points="2546.7002,-.5 2546.7002,-18.5 2647.7295,-18.5 2647.7295,-.5 2546.7002,-.5"/>
<text text-anchor="middle" x="2597.2148" y="-6.5" font-family="Arial.ttf" font-size="10.00" fill="#000000">SLUniformGrid.cpp</text>
</a>
</g>
</g>
<!-- Node49&#45;&gt;Node24 -->
<g id="edge27" class="edge">
<title>Node49&#45;&gt;Node24</title>
<path fill="none" stroke="#191970" d="M2589.078,-266.0869C2572.7626,-226.5041 2539.6345,-130.7575 2564.2148,-55 2568.8527,-40.706 2579.8526,-27.144 2587.8819,-18.606"/>
<polygon fill="#191970" stroke="#191970" points="2585.9474,-267.6687 2593.0842,-275.4992 2592.3883,-264.9273 2585.9474,-267.6687"/>
</g>
<!-- Node63 -->
<g id="node25" class="node">
<title>Node63</title>
<g id="a_node25"><a xlink:href="_s_l_button_8h.html" target="_top" xlink:title=" ">
<polygon fill="#ffffff" stroke="#ff0000" points="1912.4736,-.5 1912.4736,-18.5 1977.9561,-18.5 1977.9561,-.5 1912.4736,-.5"/>
<text text-anchor="middle" x="1945.2148" y="-6.5" font-family="Arial.ttf" font-size="10.00" fill="#000000">SLButton.h</text>
</a>
</g>
</g>
<!-- Node49&#45;&gt;Node63 -->
<g id="edge28" class="edge">
<title>Node49&#45;&gt;Node63</title>
<path fill="none" stroke="#191970" d="M2556.5313,-274.9713C2359.0926,-244.6072 2301.4912,-283.7297 2110.2148,-239 2035.5572,-221.5414 1950.2148,-251.1718 1950.2148,-174.5 1950.2148,-174.5 1950.2148,-174.5 1950.2148,-119.5 1950.2148,-82.0308 1947.2839,-37.4563 1945.9101,-18.6203"/>
<polygon fill="#191970" stroke="#191970" points="2556.228,-278.4667 2566.6516,-276.5692 2557.3198,-271.5523 2556.228,-278.4667"/>
</g>
<!-- Node49&#45;&gt;Node67 -->
<g id="edge29" class="edge">
<title>Node49&#45;&gt;Node67</title>
<path fill="none" stroke="#191970" d="M2556.5691,-274.8896C2416.3593,-250.5139 2260.3944,-237.2175 2191.2865,-232.0332"/>
<polygon fill="#191970" stroke="#191970" points="2556.1798,-278.3749 2566.6355,-276.6639 2557.3949,-271.4811 2556.1798,-278.3749"/>
</g>
<!-- Node49&#45;&gt;Node52 -->
<g id="edge82" class="edge">
<title>Node49&#45;&gt;Node52</title>
<path fill="none" stroke="#191970" d="M2556.5511,-275.1088C2405.3826,-256.0993 2061.8884,-289.2404 1936.2148,-239 1842.6432,-201.593 1760.9431,-103.9367 1737.1737,-73.6156"/>
<polygon fill="#191970" stroke="#191970" points="2556.2773,-278.6041 2566.6618,-276.5034 2557.2338,-271.6698 2556.2773,-278.6041"/>
</g>
<!-- Node67&#45;&gt;Node26 -->
<g id="edge30" class="edge">
<title>Node67&#45;&gt;Node26</title>
<path fill="none" stroke="#191970" d="M2191.3002,-217.0957C2307.1158,-177.284 2667.7596,-53.3127 2768.7139,-18.6097"/>
<polygon fill="#191970" stroke="#191970" points="2189.8158,-213.9048 2181.4968,-220.4656 2192.0914,-220.5246 2189.8158,-213.9048"/>
</g>
<!-- Node67&#45;&gt;Node24 -->
<g id="edge33" class="edge">
<title>Node67&#45;&gt;Node24</title>
<path fill="none" stroke="#191970" d="M2184.1437,-216.1422C2240.9352,-189.7939 2370.8322,-128.91 2478.2148,-74 2515.457,-54.9563 2558.441,-31.2121 2581.177,-18.5109"/>
<polygon fill="#191970" stroke="#191970" points="2182.6417,-212.9807 2175.0398,-220.3605 2185.5847,-219.332 2182.6417,-212.9807"/>
</g>
<!-- Node58 -->
<g id="node27" class="node">
<title>Node58</title>
<g id="a_node27"><a xlink:href="_s_l_pathtracer_8cpp.html" target="_top" xlink:title=" ">
<polygon fill="#ffffff" stroke="#000000" points="1995.8555,-.5 1995.8555,-18.5 2088.5742,-18.5 2088.5742,-.5 1995.8555,-.5"/>
<text text-anchor="middle" x="2042.2148" y="-6.5" font-family="Arial.ttf" font-size="10.00" fill="#000000">SLPathtracer.cpp</text>
</a>
</g>
</g>
<!-- Node67&#45;&gt;Node58 -->
<g id="edge31" class="edge">
<title>Node67&#45;&gt;Node58</title>
<path fill="none" stroke="#191970" d="M2145.7973,-211.1649C2122.7276,-166.2504 2064.0298,-51.9716 2046.9466,-18.7122"/>
<polygon fill="#191970" stroke="#191970" points="2142.8209,-213.0309 2150.5032,-220.327 2149.0476,-209.8326 2142.8209,-213.0309"/>
</g>
<!-- Node61 -->
<g id="node28" class="node">
<title>Node61</title>
<g id="a_node28"><a xlink:href="_s_l_scene_view_8cpp.html" target="_top" xlink:title=" ">
<polygon fill="#ffffff" stroke="#000000" points="2106.9951,-.5 2106.9951,-18.5 2203.4346,-18.5 2203.4346,-.5 2106.9951,-.5"/>
<text text-anchor="middle" x="2155.2148" y="-6.5" font-family="Arial.ttf" font-size="10.00" fill="#000000">SLSceneView.cpp</text>
</a>
</g>
</g>
<!-- Node67&#45;&gt;Node61 -->
<g id="edge32" class="edge">
<title>Node67&#45;&gt;Node61</title>
<path fill="none" stroke="#191970" d="M2155.2148,-210.3056C2155.2148,-164.8101 2155.2148,-51.7616 2155.2148,-18.7122"/>
<polygon fill="#191970" stroke="#191970" points="2151.7149,-210.3269 2155.2148,-220.327 2158.7149,-210.327 2151.7149,-210.3269"/>
</g>
<!-- Node68 -->
<g id="node29" class="node">
<title>Node68</title>
<g id="a_node29"><a xlink:href="_s_l_g_l_oculus_8h.html" target="_top" xlink:title=" ">
<polygon fill="#ffffff" stroke="#ff0000" points="1269.6978,-165.5 1269.6978,-183.5 1350.7319,-183.5 1350.7319,-165.5 1269.6978,-165.5"/>
<text text-anchor="middle" x="1310.2148" y="-171.5" font-family="Arial.ttf" font-size="10.00" fill="#000000">SLGLOculus.h</text>
</a>
</g>
</g>
<!-- Node67&#45;&gt;Node68 -->
<g id="edge34" class="edge">
<title>Node67&#45;&gt;Node68</title>
<path fill="none" stroke="#191970" d="M2108.7896,-229.0228C1985.9639,-227.2901 1642.4884,-219.3934 1359.2148,-184 1356.4633,-183.6562 1353.6341,-183.2499 1350.7895,-182.8022"/>
<polygon fill="#191970" stroke="#191970" points="2108.9139,-232.5246 2118.9599,-229.1591 2109.0078,-225.5253 2108.9139,-232.5246"/>
</g>
<!-- Node84 -->
<g id="node46" class="node">
<title>Node84</title>
<g id="a_node46"><a xlink:href="_s_l_g_l_oculus_f_b_8h.html" target="_top" xlink:title=" ">
<polygon fill="#ffffff" stroke="#ff0000" points="1981.3086,-165.5 1981.3086,-183.5 2075.1211,-183.5 2075.1211,-165.5 1981.3086,-165.5"/>
<text text-anchor="middle" x="2028.2148" y="-171.5" font-family="Arial.ttf" font-size="10.00" fill="#000000">SLGLOculusFB.h</text>
</a>
</g>
</g>
<!-- Node67&#45;&gt;Node84 -->
<g id="edge75" class="edge">
<title>Node67&#45;&gt;Node84</title>
<path fill="none" stroke="#191970" d="M2124.7996,-216.328C2101.4497,-206.2159 2069.8183,-192.5172 2049.2175,-183.5956"/>
<polygon fill="#191970" stroke="#191970" points="2123.676,-219.6555 2134.2434,-220.4179 2126.4579,-213.232 2123.676,-219.6555"/>
</g>
<!-- Node85 -->
<g id="node47" class="node">
<title>Node85</title>
<g id="a_node47"><a xlink:href="_s_l_keyframe_camera_8h.html" target="_top" xlink:title=" ">
<polygon fill="#ffffff" stroke="#000000" points="2259.7495,-55.5 2259.7495,-73.5 2374.6802,-73.5 2374.6802,-55.5 2259.7495,-55.5"/>
<text text-anchor="middle" x="2317.2148" y="-61.5" font-family="Arial.ttf" font-size="10.00" fill="#000000">SLKeyframeCamera.h</text>
</a>
</g>
</g>
<!-- Node67&#45;&gt;Node85 -->
<g id="edge77" class="edge">
<title>Node67&#45;&gt;Node85</title>
<path fill="none" stroke="#191970" d="M2171.6541,-212.7563C2205.4741,-178.31 2281.8715,-100.4979 2308.1415,-73.7414"/>
<polygon fill="#191970" stroke="#191970" points="2168.8973,-210.5684 2164.3888,-220.1561 2173.8922,-215.4725 2168.8973,-210.5684"/>
</g>
<!-- Node68&#45;&gt;Node71 -->
<g id="edge35" class="edge">
<title>Node68&#45;&gt;Node71</title>
<path fill="none" stroke="#191970" d="M1290.9576,-159.15C1278.7131,-149.3899 1263.2625,-137.0742 1252.8563,-128.7795"/>
<polygon fill="#191970" stroke="#191970" points="1288.8195,-161.9216 1298.8209,-165.4179 1293.1827,-156.4478 1288.8195,-161.9216"/>
</g>
<!-- Node71&#45;&gt;Node2 -->
<g id="edge36" class="edge">
<title>Node71&#45;&gt;Node2</title>
<path fill="none" stroke="#191970" d="M1198.3443,-118.2503C1044.4757,-113.6167 520.3857,-96.5174 354.2148,-74 259.0936,-61.1103 149.0317,-33.0343 95.6257,-18.5481"/>
<polygon fill="#191970" stroke="#191970" points="1198.2552,-121.7491 1208.3555,-118.5498 1198.4646,-114.7522 1198.2552,-121.7491"/>
</g>
<!-- Node71&#45;&gt;Node4 -->
<g id="edge37" class="edge">
<title>Node71&#45;&gt;Node4</title>
<path fill="none" stroke="#191970" d="M1198.2704,-118.1171C1055.2107,-113.3402 595.6202,-96.5815 449.2148,-74 365.8046,-61.1349 269.9091,-33.0478 223.4175,-18.5537"/>
<polygon fill="#191970" stroke="#191970" points="1198.2955,-121.6198 1208.406,-118.4531 1198.5275,-114.6236 1198.2955,-121.6198"/>
</g>
<!-- Node71&#45;&gt;Node5 -->
<g id="edge40" class="edge">
<title>Node71&#45;&gt;Node5</title>
<path fill="none" stroke="#191970" d="M1198.4072,-115.4592C1071.1723,-103.2619 684.2993,-64.8232 365.2148,-19 362.2414,-18.573 359.1817,-18.1101 356.1,-17.6263"/>
<polygon fill="#191970" stroke="#191970" points="1198.2274,-118.9578 1208.515,-116.4252 1198.8934,-111.9896 1198.2274,-118.9578"/>
</g>
<!-- Node71&#45;&gt;Node8 -->
<g id="edge39" class="edge">
<title>Node71&#45;&gt;Node8</title>
<path fill="none" stroke="#191970" d="M1198.2796,-111.0534C1162.1568,-103.3222 1109.4658,-90.5712 1065.2148,-74 1047.5317,-67.378 1045.4434,-59.9258 1027.2148,-55 786.448,10.0615 714.697,-49.8914 467.2148,-19 464.355,-18.643 461.4132,-18.2269 458.4547,-17.7719"/>
<polygon fill="#191970" stroke="#191970" points="1197.9624,-114.5632 1208.4686,-113.195 1199.4024,-107.7129 1197.9624,-114.5632"/>
</g>
<!-- Node71&#45;&gt;Node17 -->
<g id="edge72" class="edge">
<title>Node71&#45;&gt;Node17</title>
<path fill="none" stroke="#191970" d="M1284.3383,-118.7028C1436.9676,-115.6909 1965.7736,-103.6346 2401.2148,-74 2653.8133,-56.8091 2717.247,-52.4163 2968.2148,-19 2970.9518,-18.6356 2973.76,-18.2372 2976.591,-17.8167"/>
<polygon fill="#191970" stroke="#191970" points="1283.9354,-115.2099 1274.0056,-118.9042 1284.0719,-122.2086 1283.9354,-115.2099"/>
</g>
<!-- Node71&#45;&gt;Node16 -->
<g id="edge73" class="edge">
<title>Node71&#45;&gt;Node16</title>
<path fill="none" stroke="#191970" d="M1284.0728,-119.0423C1447.684,-117.0744 2048.5482,-107.8283 2542.2148,-74 2782.0099,-57.5681 2841.8687,-50.0282 3080.2148,-19 3083.1431,-18.6188 3086.1486,-18.2073 3089.1794,-17.7768"/>
<polygon fill="#191970" stroke="#191970" points="1283.8922,-115.5441 1273.9341,-119.1616 1283.9746,-122.5436 1283.8922,-115.5441"/>
</g>
<!-- Node14 -->
<g id="node31" class="node">
<title>Node14</title>
<g id="a_node31"><a xlink:href="_s_l_interface_8cpp.html" target="_top" xlink:title=" ">
<polygon fill="#ffffff" stroke="#000000" points="588.1929,-.5 588.1929,-18.5 674.2368,-18.5 674.2368,-.5 588.1929,-.5"/>
<text text-anchor="middle" x="631.2148" y="-6.5" font-family="Arial.ttf" font-size="10.00" fill="#000000">SLInterface.cpp</text>
</a>
</g>
</g>
<!-- Node71&#45;&gt;Node14 -->
<g id="edge38" class="edge">
<title>Node71&#45;&gt;Node14</title>
<path fill="none" stroke="#191970" d="M1199.7455,-107.5497C1172.0426,-99.1485 1134.9953,-87.1032 1103.2148,-74 1085.7581,-66.8025 1083.3681,-60.1966 1065.2148,-55 901.2698,-8.0689 852.1393,-42.3456 683.2148,-19 680.3058,-18.598 677.3115,-18.148 674.2987,-17.6684"/>
<polygon fill="#191970" stroke="#191970" points="1198.918,-110.9555 1209.5019,-110.4752 1200.9286,-104.2504 1198.918,-110.9555"/>
</g>
<!-- Node54 -->
<g id="node32" class="node">
<title>Node54</title>
<g id="a_node32"><a xlink:href="_s_l_input_manager_8cpp.html" target="_top" xlink:title=" ">
<polygon fill="#ffffff" stroke="#000000" points="692.0674,-.5 692.0674,-18.5 800.3623,-18.5 800.3623,-.5 692.0674,-.5"/>
<text text-anchor="middle" x="746.2148" y="-6.5" font-family="Arial.ttf" font-size="10.00" fill="#000000">SLInputManager.cpp</text>
</a>
</g>
</g>
<!-- Node71&#45;&gt;Node54 -->
<g id="edge41" class="edge">
<title>Node71&#45;&gt;Node54</title>
<path fill="none" stroke="#191970" d="M1211.6092,-106.3716C1191.6369,-97.4312 1164.7354,-85.2265 1141.2148,-74 1124.1741,-65.8664 1121.2927,-60.4528 1103.2148,-55 977.6031,-17.1118 940.226,-36.6335 810.2148,-19 807.0982,-18.5773 803.8977,-18.1334 800.6689,-17.678"/>
<polygon fill="#191970" stroke="#191970" points="1210.2538,-109.5994 1220.8121,-110.4796 1213.1073,-103.2073 1210.2538,-109.5994"/>
</g>
<!-- Node35 -->
<g id="node33" class="node">
<title>Node35</title>
<g id="a_node33"><a xlink:href="_s_l_light_direct_8cpp.html" target="_top" xlink:title=" ">
<polygon fill="#ffffff" stroke="#000000" points="818.7495,-.5 818.7495,-18.5 913.6802,-18.5 913.6802,-.5 818.7495,-.5"/>
<text text-anchor="middle" x="866.2148" y="-6.5" font-family="Arial.ttf" font-size="10.00" fill="#000000">SLLightDirect.cpp</text>
</a>
</g>
</g>
<!-- Node71&#45;&gt;Node35 -->
<g id="edge42" class="edge">
<title>Node71&#45;&gt;Node35</title>
<path fill="none" stroke="#191970" d="M1222.4285,-103.9839C1203.2381,-88.9899 1171.9734,-66.8555 1141.2148,-55 1049.1753,-19.5246 1019.5069,-35.249 922.2148,-19 919.4914,-18.5452 916.6939,-18.0762 913.8709,-17.6016"/>
<polygon fill="#191970" stroke="#191970" points="1220.352,-106.8047 1230.3509,-110.308 1224.7191,-101.3339 1220.352,-106.8047"/>
</g>
<!-- Node56 -->
<g id="node34" class="node">
<title>Node56</title>
<g id="a_node34"><a xlink:href="_s_l_light_rect_8cpp.html" target="_top" xlink:title=" ">
<polygon fill="#ffffff" stroke="#000000" points="931.5254,-.5 931.5254,-18.5 1020.9043,-18.5 1020.9043,-.5 931.5254,-.5"/>
<text text-anchor="middle" x="976.2148" y="-6.5" font-family="Arial.ttf" font-size="10.00" fill="#000000">SLLightRect.cpp</text>
</a>
</g>
</g>
<!-- Node71&#45;&gt;Node56 -->
<g id="edge43" class="edge">
<title>Node71&#45;&gt;Node56</title>
<path fill="none" stroke="#191970" d="M1229.1,-102.0587C1217.8759,-87.252 1199.8378,-66.6122 1179.2148,-55 1165.5248,-47.2915 1076.6637,-29.0419 1021.1417,-18.1416"/>
<polygon fill="#191970" stroke="#191970" points="1226.4531,-104.3695 1235.1703,-110.3913 1232.111,-100.2478 1226.4531,-104.3695"/>
</g>
<!-- Node45 -->
<g id="node35" class="node">
<title>Node45</title>
<g id="a_node35"><a xlink:href="_s_l_light_spot_8cpp.html" target="_top" xlink:title=" ">
<polygon fill="#ffffff" stroke="#000000" points="1038.5205,-.5 1038.5205,-18.5 1127.9092,-18.5 1127.9092,-.5 1038.5205,-.5"/>
<text text-anchor="middle" x="1083.2148" y="-6.5" font-family="Arial.ttf" font-size="10.00" fill="#000000">SLLightSpot.cpp</text>
</a>
</g>
</g>
<!-- Node71&#45;&gt;Node45 -->
<g id="edge44" class="edge">
<title>Node71&#45;&gt;Node45</title>
<path fill="none" stroke="#191970" d="M1238.5152,-100.0335C1235.5734,-85.7959 1229.5216,-66.9564 1217.2148,-55 1203.3379,-41.5181 1155.8153,-27.4029 1121.2996,-18.5368"/>
<polygon fill="#191970" stroke="#191970" points="1235.1267,-100.9819 1240.2677,-110.2458 1242.0258,-99.7979 1235.1267,-100.9819"/>
</g>
<!-- Node15 -->
<g id="node36" class="node">
<title>Node15</title>
<g id="a_node36"><a xlink:href="_s_l_scene_8cpp.html" target="_top" xlink:title=" ">
<polygon fill="#ffffff" stroke="#000000" points="2364.4712,-.5 2364.4712,-18.5 2439.9585,-18.5 2439.9585,-.5 2364.4712,-.5"/>
<text text-anchor="middle" x="2402.2148" y="-6.5" font-family="Arial.ttf" font-size="10.00" fill="#000000">SLScene.cpp</text>
</a>
</g>
</g>
<!-- Node71&#45;&gt;Node15 -->
<g id="edge45" class="edge">
<title>Node71&#45;&gt;Node15</title>
<path fill="none" stroke="#191970" d="M1283.8349,-117.4951C1432.3987,-110.1169 1940.9596,-81.5868 2356.2148,-19 2358.8758,-18.5989 2361.6151,-18.1434 2364.3684,-17.6541"/>
<polygon fill="#191970" stroke="#191970" points="1283.5828,-114.0032 1273.7667,-117.99 1283.9265,-120.9948 1283.5828,-114.0032"/>
</g>
<!-- Node62 -->
<g id="node37" class="node">
<title>Node62</title>
<g id="a_node37"><a xlink:href="_s_l_skeleton_8cpp.html" target="_top" xlink:title=" ">
<polygon fill="#ffffff" stroke="#000000" points="1146.1904,-.5 1146.1904,-18.5 1232.2393,-18.5 1232.2393,-.5 1146.1904,-.5"/>
<text text-anchor="middle" x="1189.2148" y="-6.5" font-family="Arial.ttf" font-size="10.00" fill="#000000">SLSkeleton.cpp</text>
</a>
</g>
</g>
<!-- Node71&#45;&gt;Node62 -->
<g id="edge46" class="edge">
<title>Node71&#45;&gt;Node62</title>
<path fill="none" stroke="#191970" d="M1251.592,-101.0455C1257.657,-87.6348 1262.7723,-69.3895 1255.2148,-55 1246.2198,-37.8734 1227.535,-25.9311 1212.3348,-18.5925"/>
<polygon fill="#191970" stroke="#191970" points="1248.3455,-99.7101 1246.9632,-110.2144 1254.5943,-102.8648 1248.3455,-99.7101"/>
</g>
<!-- Node71&#45;&gt;Node52 -->
<g id="edge47" class="edge">
<title>Node71&#45;&gt;Node52</title>
<path fill="none" stroke="#191970" d="M1283.7901,-114.7114C1376.2189,-104.3155 1594.3872,-79.7771 1687.207,-69.3373"/>
<polygon fill="#191970" stroke="#191970" points="1283.2243,-111.2528 1273.6782,-115.8487 1284.0068,-118.209 1283.2243,-111.2528"/>
</g>
<!-- Node65 -->
<g id="node44" class="node">
<title>Node65</title>
<g id="a_node44"><a xlink:href="_app_demo_video_8cpp.html" target="_top" xlink:title=" ">
<polygon fill="#ffffff" stroke="#000000" points="1789.8301,-.5 1789.8301,-18.5 1894.5996,-18.5 1894.5996,-.5 1789.8301,-.5"/>
<text text-anchor="middle" x="1842.2148" y="-6.5" font-family="Arial.ttf" font-size="10.00" fill="#000000">AppDemoVideo.cpp</text>
</a>
</g>
</g>
<!-- Node71&#45;&gt;Node65 -->
<g id="edge74" class="edge">
<title>Node71&#45;&gt;Node65</title>
<path fill="none" stroke="#191970" d="M1283.9927,-113.8046C1342.1505,-105.8759 1449.3397,-90.6037 1540.2148,-74 1635.1468,-56.6551 1745.8849,-31.8137 1803.2688,-18.5927"/>
<polygon fill="#191970" stroke="#191970" points="1283.5001,-110.3392 1274.0615,-115.152 1284.4413,-117.2757 1283.5001,-110.3392"/>
</g>
<!-- Node52&#45;&gt;Node6 -->
<g id="edge50" class="edge">
<title>Node52&#45;&gt;Node6</title>
<path fill="none" stroke="#191970" d="M1676.8679,-61.6539C1638.7907,-59.6662 1586.36,-57.0179 1540.2148,-55 1113.2122,-36.3277 1004.3716,-62.8363 579.2148,-19 576.3702,-18.7067 573.4514,-18.3579 570.5118,-17.97"/>
<polygon fill="#191970" stroke="#191970" points="1677.0404,-65.1677 1687.2099,-62.196 1677.4068,-58.1773 1677.0404,-65.1677"/>
</g>
<!-- Node52&#45;&gt;Node17 -->
<g id="edge68" class="edge">
<title>Node52&#45;&gt;Node17</title>
<path fill="none" stroke="#191970" d="M1783.7095,-63.4704C1989.8936,-59.3568 2733.2125,-43.1462 2968.2148,-19 2970.9615,-18.7178 2973.7772,-18.3837 2976.6141,-18.0123"/>
<polygon fill="#191970" stroke="#191970" points="1783.3759,-59.9763 1773.4473,-63.674 1783.5148,-66.9749 1783.3759,-59.9763"/>
</g>
<!-- Node52&#45;&gt;Node21 -->
<g id="edge58" class="edge">
<title>Node52&#45;&gt;Node21</title>
<path fill="none" stroke="#191970" d="M1783.6196,-63.0287C1954.4709,-58.1408 2486.4585,-41.4709 2657.2148,-19 2659.8492,-18.6533 2662.5599,-18.2312 2665.2803,-17.7597"/>
<polygon fill="#191970" stroke="#191970" points="1783.2662,-59.5373 1773.3697,-63.3202 1783.4652,-66.5344 1783.2662,-59.5373"/>
</g>
<!-- Node52&#45;&gt;Node26 -->
<g id="edge49" class="edge">
<title>Node52&#45;&gt;Node26</title>
<path fill="none" stroke="#191970" d="M1783.4846,-63.1481C1964.7747,-58.3853 2557.0189,-41.4538 2746.2148,-19 2749.1405,-18.6528 2752.1534,-18.2302 2755.1787,-17.7584"/>
<polygon fill="#191970" stroke="#191970" points="1783.3024,-59.6516 1773.3973,-63.4117 1783.4853,-66.6492 1783.3024,-59.6516"/>
</g>
<!-- Node52&#45;&gt;Node16 -->
<g id="edge69" class="edge">
<title>Node52&#45;&gt;Node16</title>
<path fill="none" stroke="#191970" d="M1783.4441,-63.5845C2000.8106,-59.7099 2821.8236,-43.7152 3080.2148,-19 3083.1544,-18.7188 3086.1688,-18.3855 3089.2063,-18.0148"/>
<polygon fill="#191970" stroke="#191970" points="1783.1918,-60.0883 1773.2554,-63.765 1783.3159,-67.0872 1783.1918,-60.0883"/>
</g>
<!-- Node52&#45;&gt;Node50 -->
<g id="edge59" class="edge">
<title>Node52&#45;&gt;Node50</title>
<path fill="none" stroke="#191970" d="M1783.7429,-63.8419C1903.5282,-61.7735 2202.083,-53.3026 2449.2148,-19 2451.8467,-18.6347 2454.5556,-18.1988 2457.2746,-17.7176"/>
<polygon fill="#191970" stroke="#191970" points="1783.333,-60.3481 1773.392,-64.0122 1783.4482,-67.3471 1783.333,-60.3481"/>
</g>
<!-- Node52&#45;&gt;Node24 -->
<g id="edge66" class="edge">
<title>Node52&#45;&gt;Node24</title>
<path fill="none" stroke="#191970" d="M1783.3064,-63.4083C1912.7273,-60.3344 2254.6566,-49.7294 2538.2148,-19 2540.8966,-18.7094 2543.6423,-18.3798 2546.4111,-18.0222"/>
<polygon fill="#191970" stroke="#191970" points="1783.1806,-59.9102 1773.2647,-63.6417 1783.3434,-66.9083 1783.1806,-59.9102"/>
</g>
<!-- Node52&#45;&gt;Node63 -->
<g id="edge67" class="edge">
<title>Node52&#45;&gt;Node63</title>
<path fill="none" stroke="#191970" d="M1775.4316,-52.9329C1816.3074,-42.4763 1875.5239,-27.3279 1912.1326,-17.9629"/>
<polygon fill="#191970" stroke="#191970" points="1774.5383,-49.5487 1765.7177,-55.4179 1776.2732,-56.3303 1774.5383,-49.5487"/>
</g>
<!-- Node52&#45;&gt;Node58 -->
<g id="edge60" class="edge">
<title>Node52&#45;&gt;Node58</title>
<path fill="none" stroke="#191970" d="M1783.249,-55.151C1842.9363,-44.6292 1938.9629,-27.7015 1995.7932,-17.6833"/>
<polygon fill="#191970" stroke="#191970" points="1782.51,-51.7272 1773.2695,-56.9102 1783.7253,-58.621 1782.51,-51.7272"/>
</g>
<!-- Node52&#45;&gt;Node61 -->
<g id="edge64" class="edge">
<title>Node52&#45;&gt;Node61</title>
<path fill="none" stroke="#191970" d="M1783.3286,-58.5734C1854.7798,-50.4502 1985.7656,-35.0297 2097.2148,-19 2100.3457,-18.5497 2103.5689,-18.0691 2106.816,-17.5722"/>
<polygon fill="#191970" stroke="#191970" points="1782.7702,-55.1142 1773.228,-59.7182 1783.5586,-62.0697 1782.7702,-55.1142"/>
</g>
<!-- Node52&#45;&gt;Node14 -->
<g id="edge48" class="edge">
<title>Node52&#45;&gt;Node14</title>
<path fill="none" stroke="#191970" d="M1676.865,-61.7186C1638.7864,-59.7612 1586.3553,-57.1226 1540.2148,-55 1159.3928,-37.4811 1062.0791,-61.3583 683.2148,-19 680.2963,-18.6737 677.2949,-18.2805 674.277,-17.8423"/>
<polygon fill="#191970" stroke="#191970" points="1677.0405,-65.2322 1687.2074,-62.2516 1677.4008,-58.2415 1677.0405,-65.2322"/>
</g>
<!-- Node52&#45;&gt;Node54 -->
<g id="edge52" class="edge">
<title>Node52&#45;&gt;Node54</title>
<path fill="none" stroke="#191970" d="M1676.86,-61.8225C1638.7791,-59.9139 1586.3472,-57.2908 1540.2148,-55 1215.7759,-38.8892 1133.4848,-50.8862 810.2148,-19 807.0848,-18.6913 803.8739,-18.3364 800.6372,-17.9492"/>
<polygon fill="#191970" stroke="#191970" points="1677.0404,-65.3358 1687.2031,-62.341 1677.3909,-58.3446 1677.0404,-65.3358"/>
</g>
<!-- Node52&#45;&gt;Node35 -->
<g id="edge54" class="edge">
<title>Node52&#45;&gt;Node35</title>
<path fill="none" stroke="#191970" d="M1677.0315,-61.8517C1509.0868,-53.4403 996.7459,-27.3937 922.2148,-19 919.4711,-18.691 916.6576,-18.3359 913.8224,-17.9486"/>
<polygon fill="#191970" stroke="#191970" points="1676.9578,-65.3523 1687.1202,-62.3565 1677.3077,-58.361 1676.9578,-65.3523"/>
</g>
<!-- Node52&#45;&gt;Node56 -->
<g id="edge55" class="edge">
<title>Node52&#45;&gt;Node56</title>
<path fill="none" stroke="#191970" d="M1676.9112,-61.8202C1535.7632,-54.5992 1154.5578,-34.2523 1029.2148,-19 1026.5238,-18.6725 1023.7623,-18.2974 1020.9808,-17.8895"/>
<polygon fill="#191970" stroke="#191970" points="1676.8837,-65.3233 1687.0491,-62.3374 1677.2404,-58.3324 1676.8837,-65.3233"/>
</g>
<!-- Node52&#45;&gt;Node45 -->
<g id="edge56" class="edge">
<title>Node52&#45;&gt;Node45</title>
<path fill="none" stroke="#191970" d="M1676.6557,-62.1443C1572.4559,-57.1738 1335.2994,-43.963 1137.2148,-19 1134.1927,-18.6191 1131.0823,-18.1851 1127.953,-17.717"/>
<polygon fill="#191970" stroke="#191970" points="1676.7603,-65.6531 1686.914,-62.6274 1677.0897,-58.6608 1676.7603,-65.6531"/>
</g>
<!-- Node52&#45;&gt;Node15 -->
<g id="edge63" class="edge">
<title>Node52&#45;&gt;Node15</title>
<path fill="none" stroke="#191970" d="M1783.3144,-62.9884C1891.5453,-59.3911 2145.2713,-48.3195 2356.2148,-19 2358.8803,-18.6295 2361.6229,-18.1967 2364.3785,-17.7238"/>
<polygon fill="#191970" stroke="#191970" points="1783.182,-59.4907 1773.3009,-63.3135 1783.4093,-66.4871 1783.182,-59.4907"/>
</g>
<!-- Node52&#45;&gt;Node62 -->
<g id="edge65" class="edge">
<title>Node52&#45;&gt;Node62</title>
<path fill="none" stroke="#191970" d="M1677.0019,-61.0877C1586.9859,-54.9715 1399.0424,-40.7168 1241.2148,-19 1238.3056,-18.5997 1235.3111,-18.151 1232.2982,-17.6723"/>
<polygon fill="#191970" stroke="#191970" points="1677.0131,-64.5963 1687.2256,-61.7759 1677.4833,-57.6121 1677.0131,-64.5963"/>
</g>
<!-- Node53 -->
<g id="node39" class="node">
<title>Node53</title>
<g id="a_node39"><a xlink:href="_s_l_camera_8cpp.html" target="_top" xlink:title=" ">
<polygon fill="#ffffff" stroke="#000000" points="1587.8652,-.5 1587.8652,-18.5 1670.5645,-18.5 1670.5645,-.5 1587.8652,-.5"/>
<text text-anchor="middle" x="1629.2148" y="-6.5" font-family="Arial.ttf" font-size="10.00" fill="#000000">SLCamera.cpp</text>
</a>
</g>
</g>
<!-- Node52&#45;&gt;Node53 -->
<g id="edge51" class="edge">
<title>Node52&#45;&gt;Node53</title>
<path fill="none" stroke="#191970" d="M1704.5203,-50.5079C1686.1154,-40.4854 1661.8622,-27.2783 1645.9177,-18.5956"/>
<polygon fill="#191970" stroke="#191970" points="1703.0806,-53.7092 1713.5367,-55.4179 1706.4283,-47.5616 1703.0806,-53.7092"/>
</g>
<!-- Node55 -->
<g id="node40" class="node">
<title>Node55</title>
<g id="a_node40"><a xlink:href="_s_l_keyframe_camera_8cpp.html" target="_top" xlink:title=" ">
<polygon fill="#ffffff" stroke="#000000" points="2221.4688,-.5 2221.4688,-18.5 2346.9609,-18.5 2346.9609,-.5 2221.4688,-.5"/>
<text text-anchor="middle" x="2284.2148" y="-6.5" font-family="Arial.ttf" font-size="10.00" fill="#000000">SLKeyframeCamera.cpp</text>
</a>
</g>
</g>
<!-- Node52&#45;&gt;Node55 -->
<g id="edge53" class="edge">
<title>Node52&#45;&gt;Node55</title>
<path fill="none" stroke="#191970" d="M1783.589,-60.1124C1872.5571,-52.6528 2056.7591,-36.587 2212.2148,-19 2215.2217,-18.6598 2218.2975,-18.2999 2221.403,-17.927"/>
<polygon fill="#191970" stroke="#191970" points="1783.1506,-56.6367 1773.4769,-60.9575 1783.7336,-63.6124 1783.1506,-56.6367"/>
</g>
<!-- Node57 -->
<g id="node41" class="node">
<title>Node57</title>
<g id="a_node41"><a xlink:href="_s_l_material_8cpp.html" target="_top" xlink:title=" ">
<polygon fill="#ffffff" stroke="#000000" points="1688.8652,-.5 1688.8652,-18.5 1771.5645,-18.5 1771.5645,-.5 1688.8652,-.5"/>
<text text-anchor="middle" x="1730.2148" y="-6.5" font-family="Arial.ttf" font-size="10.00" fill="#000000">SLMaterial.cpp</text>
</a>
</g>
</g>
<!-- Node52&#45;&gt;Node57 -->
<g id="edge57" class="edge">
<title>Node52&#45;&gt;Node57</title>
<path fill="none" stroke="#191970" d="M1730.2148,-45.383C1730.2148,-36.3738 1730.2148,-26.0373 1730.2148,-18.7795"/>
<polygon fill="#191970" stroke="#191970" points="1726.7149,-45.4178 1730.2148,-55.4179 1733.7149,-45.4179 1726.7149,-45.4178"/>
</g>
<!-- Node59 -->
<g id="node42" class="node">
<title>Node59</title>
<g id="a_node42"><a xlink:href="_s_l_ray_8cpp.html" target="_top" xlink:title=" ">
<polygon fill="#ffffff" stroke="#000000" points="1250.1255,-.5 1250.1255,-18.5 1314.3042,-18.5 1314.3042,-.5 1250.1255,-.5"/>
<text text-anchor="middle" x="1282.2148" y="-6.5" font-family="Arial.ttf" font-size="10.00" fill="#000000">SLRay.cpp</text>
</a>
</g>
</g>
<!-- Node52&#45;&gt;Node59 -->
<g id="edge61" class="edge">
<title>Node52&#45;&gt;Node59</title>
<path fill="none" stroke="#191970" d="M1677.1525,-60.551C1599.1982,-54.3017 1449.3056,-40.5808 1323.2148,-19 1320.3341,-18.5069 1317.3526,-17.936 1314.3721,-17.3236"/>
<polygon fill="#191970" stroke="#191970" points="1676.9636,-64.0469 1687.2088,-61.3476 1677.5164,-57.0688 1676.9636,-64.0469"/>
</g>
<!-- Node60 -->
<g id="node43" class="node">
<title>Node60</title>
<g id="a_node43"><a xlink:href="_s_l_raytracer_8cpp.html" target="_top" xlink:title=" ">
<polygon fill="#ffffff" stroke="#000000" points="1332.2495,-.5 1332.2495,-18.5 1422.1802,-18.5 1422.1802,-.5 1332.2495,-.5"/>
<text text-anchor="middle" x="1377.2148" y="-6.5" font-family="Arial.ttf" font-size="10.00" fill="#000000">SLRaytracer.cpp</text>
</a>
</g>
</g>
<!-- Node52&#45;&gt;Node60 -->
<g id="edge62" class="edge">
<title>Node52&#45;&gt;Node60</title>
<path fill="none" stroke="#191970" d="M1677.1202,-56.799C1617.2956,-48.0339 1517.177,-33.1001 1431.2148,-19 1428.3029,-18.5224 1425.3043,-18.0211 1422.2828,-17.5089"/>
<polygon fill="#191970" stroke="#191970" points="1676.6866,-60.2727 1687.0878,-58.2569 1677.6997,-53.3464 1676.6866,-60.2727"/>
</g>
<!-- Node52&#45;&gt;Node65 -->
<g id="edge70" class="edge">
<title>Node52&#45;&gt;Node65</title>
<path fill="none" stroke="#191970" d="M1757.869,-50.9198C1778.3753,-40.8498 1805.7685,-27.3977 1823.6928,-18.5956"/>
<polygon fill="#191970" stroke="#191970" points="1756.1427,-47.8683 1748.7094,-55.4179 1759.2283,-54.1515 1756.1427,-47.8683"/>
</g>
<!-- Node66 -->
<g id="node45" class="node">
<title>Node66</title>
<g id="a_node45"><a xlink:href="_app_demo_main_g_l_f_w_8cpp.html" target="_top" xlink:title=" ">
<polygon fill="#ffffff" stroke="#000000" points="1440.5229,-.5 1440.5229,-18.5 1569.9067,-18.5 1569.9067,-.5 1440.5229,-.5"/>
<text text-anchor="middle" x="1505.2148" y="-6.5" font-family="Arial.ttf" font-size="10.00" fill="#000000">AppDemoMainGLFW.cpp</text>
</a>
</g>
</g>
<!-- Node52&#45;&gt;Node66 -->
<g id="edge71" class="edge">
<title>Node52&#45;&gt;Node66</title>
<path fill="none" stroke="#191970" d="M1683.3412,-53.042C1641.3936,-42.7881 1580.7286,-27.9589 1542.1372,-18.5255"/>
<polygon fill="#191970" stroke="#191970" points="1682.7675,-56.5047 1693.3126,-55.4795 1684.4297,-49.705 1682.7675,-56.5047"/>
</g>
<!-- Node84&#45;&gt;Node52 -->
<g id="edge76" class="edge">
<title>Node84&#45;&gt;Node52</title>
<path fill="none" stroke="#191970" d="M1994.3363,-161.9945C1933.7433,-139.6279 1808.1787,-93.2786 1754.9384,-73.6261"/>
<polygon fill="#191970" stroke="#191970" points="1993.2349,-165.3187 2003.8283,-165.4982 1995.659,-158.7518 1993.2349,-165.3187"/>
</g>
<!-- Node85&#45;&gt;Node50 -->
<g id="edge79" class="edge">
<title>Node85&#45;&gt;Node50</title>
<path fill="none" stroke="#191970" d="M2355.9735,-52.3879C2388.7098,-42.1578 2434.8531,-27.7381 2464.4014,-18.5042"/>
<polygon fill="#191970" stroke="#191970" points="2354.7785,-49.0944 2346.2777,-55.4179 2356.8665,-55.7757 2354.7785,-49.0944"/>
</g>
<!-- Node85&#45;&gt;Node15 -->
<g id="edge80" class="edge">
<title>Node85&#45;&gt;Node15</title>
<path fill="none" stroke="#191970" d="M2339.6965,-49.953C2355.0749,-40.0023 2374.9856,-27.1189 2388.158,-18.5956"/>
<polygon fill="#191970" stroke="#191970" points="2337.7452,-47.0468 2331.2509,-55.4179 2341.548,-52.9238 2337.7452,-47.0468"/>
</g>
<!-- Node85&#45;&gt;Node55 -->
<g id="edge78" class="edge">
<title>Node85&#45;&gt;Node55</title>
<path fill="none" stroke="#191970" d="M2306.4526,-46.563C2300.8879,-37.2885 2294.3287,-26.3564 2289.7825,-18.7795"/>
<polygon fill="#191970" stroke="#191970" points="2303.6193,-48.6437 2311.7656,-55.4179 2309.6218,-45.0422 2303.6193,-48.6437"/>
</g>
<!-- Node85&#45;&gt;Node85 -->
<g id="edge81" class="edge">
<title>Node85&#45;&gt;Node85</title>
<path fill="none" stroke="#191970" d="M2358.317,-74.4648C2376.7392,-75.4207 2392.6802,-72.0991 2392.6802,-64.5 2392.6802,-55.5352 2370.4944,-52.5235 2348.222,-55.4651"/>
<polygon fill="#191970" stroke="#191970" points="2358.5009,-70.967 2348.222,-73.5349 2357.8588,-77.9375 2358.5009,-70.967"/>
</g>
<!-- Node101&#45;&gt;Node16 -->
<g id="edge85" class="edge">
<title>Node101&#45;&gt;Node16</title>
<path fill="none" stroke="#191970" d="M3189.3474,-265.0908C3190.5301,-243.119 3192.2148,-206.2492 3192.2148,-174.5 3192.2148,-174.5 3192.2148,-174.5 3192.2148,-119.5 3192.2148,-78.5203 3162.3523,-36.4797 3147.8876,-18.5199"/>
<polygon fill="#191970" stroke="#191970" points="3185.836,-265.1972 3188.771,-275.3774 3192.8251,-265.5889 3185.836,-265.1972"/>
</g>
<!-- Node112&#45;&gt;Node71 -->
<g id="edge121" class="edge">
<title>Node112&#45;&gt;Node71</title>
<path fill="none" stroke="#191970" d="M1361.729,-161.989C1332.7891,-151.7858 1292.6059,-137.6186 1266.7541,-128.5042"/>
<polygon fill="#191970" stroke="#191970" points="1360.8598,-165.3936 1371.4546,-165.4179 1363.1874,-158.7919 1360.8598,-165.3936"/>
</g>
<!-- Node113 -->
<g id="node50" class="node">
<title>Node113</title>
<g id="a_node50"><a xlink:href="stdafx_8h.html" target="_top" xlink:title=" ">
<polygon fill="#ffffff" stroke="#ff0000" points="1479.7051,-55.5 1479.7051,-73.5 1530.7246,-73.5 1530.7246,-55.5 1479.7051,-55.5"/>
<text text-anchor="middle" x="1505.2148" y="-61.5" font-family="Arial.ttf" font-size="10.00" fill="#000000">stdafx.h</text>
</a>
</g>
</g>
<!-- Node112&#45;&gt;Node113 -->
<g id="edge92" class="edge">
<title>Node112&#45;&gt;Node113</title>
<path fill="none" stroke="#191970" d="M1406.7884,-156.4633C1414.6162,-142.7533 1426.5884,-123.9396 1440.2148,-110 1454.8508,-95.0276 1475.0216,-81.7944 1488.9949,-73.5135"/>
<polygon fill="#191970" stroke="#191970" points="1403.6232,-154.955 1401.8567,-165.4015 1409.7522,-158.3367 1403.6232,-154.955"/>
</g>
<!-- Node113&#45;&gt;Node2 -->
<g id="edge93" class="edge">
<title>Node113&#45;&gt;Node2</title>
<path fill="none" stroke="#191970" d="M1469.5155,-63.7891C1281.6189,-59.9754 405.6803,-41.2806 135.2148,-19 132.4504,-18.7723 129.6293,-18.5135 126.7818,-18.2308"/>
<polygon fill="#191970" stroke="#191970" points="1469.6021,-67.2915 1479.6708,-63.9943 1469.7436,-60.2929 1469.6021,-67.2915"/>
</g>
<!-- Node113&#45;&gt;Node4 -->
<g id="edge94" class="edge">
<title>Node113&#45;&gt;Node4</title>
<path fill="none" stroke="#191970" d="M1469.5691,-63.7844C1291.8381,-60.1278 500.2593,-42.7716 255.2148,-19 252.2756,-18.7149 249.2616,-18.3785 246.2243,-18.0054"/>
<polygon fill="#191970" stroke="#191970" points="1469.6135,-67.286 1479.683,-63.9913 1469.7567,-60.2875 1469.6135,-67.286"/>
</g>
<!-- Node113&#45;&gt;Node5 -->
<g id="edge98" class="edge">
<title>Node113&#45;&gt;Node5</title>
<path fill="none" stroke="#191970" d="M1469.2467,-63.7007C1300.5883,-59.8552 586.9785,-42.4755 365.2148,-19 362.2276,-18.6838 359.1574,-18.3048 356.068,-17.883"/>
<polygon fill="#191970" stroke="#191970" points="1469.2591,-67.2018 1479.3359,-63.9294 1469.4178,-60.2036 1469.2591,-67.2018"/>
</g>
<!-- Node113&#45;&gt;Node6 -->
<g id="edge99" class="edge">
<title>Node113&#45;&gt;Node6</title>
<path fill="none" stroke="#191970" d="M1469.2782,-64.2694C1345.3334,-63.1473 924.3773,-56.6222 579.2148,-19 576.372,-18.6901 573.4545,-18.3286 570.5159,-17.931"/>
<polygon fill="#191970" stroke="#191970" points="1469.3202,-67.7697 1479.3494,-64.3543 1469.3793,-60.77 1469.3202,-67.7697"/>
</g>
<!-- Node113&#45;&gt;Node8 -->
<g id="edge97" class="edge">
<title>Node113&#45;&gt;Node8</title>
<path fill="none" stroke="#191970" d="M1469.197,-63.6009C1309.8827,-59.5195 667.5834,-41.9384 467.2148,-19 464.3515,-18.6722 461.4071,-18.2779 458.4466,-17.8389"/>
<polygon fill="#191970" stroke="#191970" points="1469.3167,-67.105 1479.4026,-63.8608 1469.4949,-60.1073 1469.3167,-67.105"/>
</g>
<!-- Node113&#45;&gt;Node17 -->
<g id="edge118" class="edge">
<title>Node113&#45;&gt;Node17</title>
<path fill="none" stroke="#191970" d="M1541.1928,-62.241C1576.176,-60.1115 1630.8231,-56.9621 1678.2148,-55 2251.2804,-31.2736 2397.4087,-75.1023 2968.2148,-19 2970.9627,-18.7299 2973.7794,-18.4053 2976.617,-18.0412"/>
<polygon fill="#191970" stroke="#191970" points="1540.7639,-58.7607 1530.9971,-62.8667 1541.1927,-65.7475 1540.7639,-58.7607"/>
</g>
<!-- Node113&#45;&gt;Node20 -->
<g id="edge101" class="edge">
<title>Node113&#45;&gt;Node20</title>
<path fill="none" stroke="#191970" d="M1541.1942,-62.2721C1576.1783,-60.1655 1630.826,-57.0324 1678.2148,-55 2196.2078,-32.7844 2327.9124,-66.3501 2844.2148,-19 2847.1427,-18.7315 2850.1427,-18.4139 2853.1669,-18.0607"/>
<polygon fill="#191970" stroke="#191970" points="1540.7678,-58.7915 1530.9981,-62.8906 1541.1917,-65.7786 1540.7678,-58.7915"/>
</g>
<!-- Node113&#45;&gt;Node21 -->
<g id="edge108" class="edge">
<title>Node113&#45;&gt;Node21</title>
<path fill="none" stroke="#191970" d="M1541.1969,-62.3339C1576.183,-60.2727 1630.8322,-57.172 1678.2148,-55 2113.1633,-35.0624 2225.1906,-73.1545 2657.2148,-19 2659.8513,-18.6695 2662.5635,-18.2593 2665.285,-17.7962"/>
<polygon fill="#191970" stroke="#191970" points="1540.7757,-58.8526 1531.0002,-62.938 1541.1897,-65.8403 1540.7757,-58.8526"/>
</g>
<!-- Node113&#45;&gt;Node26 -->
<g id="edge96" class="edge">
<title>Node113&#45;&gt;Node26</title>
<path fill="none" stroke="#191970" d="M1541.1954,-62.3018C1576.1805,-60.217 1630.829,-57.0995 1678.2148,-55 2152.6856,-33.9783 2274.2861,-72.3641 2746.2148,-19 2749.1424,-18.669 2752.1567,-18.2583 2755.1829,-17.795"/>
<polygon fill="#191970" stroke="#191970" points="1540.7716,-58.8208 1530.9991,-62.9134 1541.1907,-65.8083 1540.7716,-58.8208"/>
</g>
<!-- Node113&#45;&gt;Node16 -->
<g id="edge119" class="edge">
<title>Node113&#45;&gt;Node16</title>
<path fill="none" stroke="#191970" d="M1541.1919,-62.2177C1576.1744,-60.071 1630.8209,-56.9094 1678.2148,-55 2301.0261,-29.9089 2459.4973,-75.8613 3080.2148,-19 3083.1555,-18.7306 3086.1707,-18.4065 3089.2089,-18.0429"/>
<polygon fill="#191970" stroke="#191970" points="1540.761,-58.7376 1530.9964,-62.8488 1541.1935,-65.7242 1540.761,-58.7376"/>
</g>
<!-- Node113&#45;&gt;Node50 -->
<g id="edge109" class="edge">
<title>Node113&#45;&gt;Node50</title>
<path fill="none" stroke="#191970" d="M1541.2019,-62.4377C1576.1918,-60.4528 1630.8436,-57.4066 1678.2148,-55 2020.813,-37.5953 2109.054,-63.3513 2449.2148,-19 2451.8496,-18.6565 2454.5606,-18.2366 2457.2812,-17.7668"/>
<polygon fill="#191970" stroke="#191970" points="1540.7891,-58.9554 1531.0041,-63.0177 1541.1867,-65.9441 1540.7891,-58.9554"/>
</g>
<!-- Node113&#45;&gt;Node24 -->
<g id="edge116" class="edge">
<title>Node113&#45;&gt;Node24</title>
<path fill="none" stroke="#191970" d="M1541.1994,-62.3871C1576.1874,-60.3651 1630.8379,-57.2923 1678.2148,-55 2060.3248,-36.5117 2157.5975,-57.4742 2538.2148,-19 2540.8987,-18.7287 2543.6459,-18.4145 2546.416,-18.069"/>
<polygon fill="#191970" stroke="#191970" points="1540.7825,-58.9053 1531.0021,-62.9789 1541.1881,-65.8936 1540.7825,-58.9053"/>
</g>
<!-- Node113&#45;&gt;Node63 -->
<g id="edge117" class="edge">
<title>Node113&#45;&gt;Node63</title>
<path fill="none" stroke="#191970" d="M1541.0063,-61.7208C1610.9402,-56.001 1770.4951,-41.5278 1903.2148,-19 1906.163,-18.4996 1909.2153,-17.9236 1912.2671,-17.3079"/>
<polygon fill="#191970" stroke="#191970" points="1540.6461,-58.2384 1530.9604,-62.5324 1541.2098,-65.2157 1540.6461,-58.2384"/>
</g>
<!-- Node113&#45;&gt;Node58 -->
<g id="edge110" class="edge">
<title>Node113&#45;&gt;Node58</title>
<path fill="none" stroke="#191970" d="M1540.9478,-62.0721C1621.0447,-56.423 1820.9674,-41.1711 1987.2148,-19 1990.0003,-18.6285 1992.8604,-18.2193 1995.7426,-17.7857"/>
<polygon fill="#191970" stroke="#191970" points="1540.6293,-58.5857 1530.8978,-62.7746 1541.1176,-65.5686 1540.6293,-58.5857"/>
</g>
<!-- Node113&#45;&gt;Node61 -->
<g id="edge114" class="edge">
<title>Node113&#45;&gt;Node61</title>
<path fill="none" stroke="#191970" d="M1541.0456,-62.1511C1651.909,-54.8193 1988.4009,-32.0688 2097.2148,-19 2100.3554,-18.6228 2103.5858,-18.1977 2106.8384,-17.7417"/>
<polygon fill="#191970" stroke="#191970" points="1540.7842,-58.6606 1531.0364,-62.8116 1541.2452,-65.6454 1540.7842,-58.6606"/>
</g>
<!-- Node113&#45;&gt;Node14 -->
<g id="edge95" class="edge">
<title>Node113&#45;&gt;Node14</title>
<path fill="none" stroke="#191970" d="M1469.2221,-64.1163C1354.2577,-62.5473 985.7094,-54.8603 683.2148,-19 680.2986,-18.6543 677.2988,-18.2466 674.2821,-17.7977"/>
<polygon fill="#191970" stroke="#191970" points="1469.5008,-67.6201 1479.5453,-64.2498 1469.5914,-60.6207 1469.5008,-67.6201"/>
</g>
<!-- Node113&#45;&gt;Node54 -->
<g id="edge102" class="edge">
<title>Node113&#45;&gt;Node54</title>
<path fill="none" stroke="#191970" d="M1469.4532,-63.1948C1366.7108,-59.222 1061.9159,-45.8743 810.2148,-19 807.0874,-18.6661 803.8785,-18.2916 800.6433,-17.8893"/>
<polygon fill="#191970" stroke="#191970" points="1469.4645,-66.6977 1479.5907,-63.5815 1469.7314,-59.7028 1469.4645,-66.6977"/>
</g>
<!-- Node113&#45;&gt;Node35 -->
<g id="edge104" class="edge">
<title>Node113&#45;&gt;Node35</title>
<path fill="none" stroke="#191970" d="M1469.4622,-62.8341C1378.0881,-58.3328 1128.6525,-44.5133 922.2148,-19 919.4746,-18.6613 916.6638,-18.2831 913.8308,-17.878"/>
<polygon fill="#191970" stroke="#191970" points="1469.4017,-66.3352 1479.5599,-63.3251 1469.7417,-59.3434 1469.4017,-66.3352"/>
</g>
<!-- Node113&#45;&gt;Node56 -->
<g id="edge105" class="edge">
<title>Node113&#45;&gt;Node56</title>
<path fill="none" stroke="#191970" d="M1469.1451,-62.0678C1389.52,-56.4764 1192.7967,-41.4403 1029.2148,-19 1026.5291,-18.6316 1023.7717,-18.2247 1020.9933,-17.7928"/>
<polygon fill="#191970" stroke="#191970" points="1469.369,-65.5917 1479.5877,-62.7939 1469.8546,-58.6086 1469.369,-65.5917"/>
</g>
<!-- Node113&#45;&gt;Node45 -->
<g id="edge106" class="edge">
<title>Node113&#45;&gt;Node45</title>
<path fill="none" stroke="#191970" d="M1468.9858,-60.6425C1402.9052,-53.4682 1258.4354,-37.1447 1137.2148,-19 1134.2023,-18.5491 1131.0992,-18.0624 1127.9752,-17.5561"/>
<polygon fill="#191970" stroke="#191970" points="1468.9574,-64.1597 1479.2756,-61.7543 1469.7095,-57.2002 1468.9574,-64.1597"/>
</g>
<!-- Node113&#45;&gt;Node15 -->
<g id="edge113" class="edge">
<title>Node113&#45;&gt;Node15</title>
<path fill="none" stroke="#191970" d="M1541.2054,-62.5046C1576.1978,-60.5691 1630.8515,-57.5579 1678.2148,-55 1979.5336,-38.7272 2056.9393,-57.6253 2356.2148,-19 2358.8837,-18.6555 2361.6289,-18.242 2364.3864,-17.783"/>
<polygon fill="#191970" stroke="#191970" points="1540.798,-59.0217 1531.0068,-63.0691 1541.1849,-66.011 1540.798,-59.0217"/>
</g>
<!-- Node113&#45;&gt;Node62 -->
<g id="edge115" class="edge">
<title>Node113&#45;&gt;Node62</title>
<path fill="none" stroke="#191970" d="M1469.1971,-58.4101C1418.3575,-49.7872 1322.6578,-33.4574 1241.2148,-19 1238.3233,-18.4867 1235.3422,-17.9533 1232.3391,-17.4128"/>
<polygon fill="#191970" stroke="#191970" points="1468.8993,-61.9094 1479.3436,-60.1297 1470.069,-55.0078 1468.8993,-61.9094"/>
</g>
<!-- Node113&#45;&gt;Node53 -->
<g id="edge100" class="edge">
<title>Node113&#45;&gt;Node53</title>
<path fill="none" stroke="#191970" d="M1534.9116,-51.328C1557.71,-41.2159 1588.5942,-27.5172 1608.7083,-18.5956"/>
<polygon fill="#191970" stroke="#191970" points="1533.413,-48.1639 1525.6909,-55.4179 1536.2512,-54.5627 1533.413,-48.1639"/>
</g>
<!-- Node113&#45;&gt;Node55 -->
<g id="edge103" class="edge">
<title>Node113&#45;&gt;Node55</title>
<path fill="none" stroke="#191970" d="M1541.1531,-62.5068C1665.8904,-55.5385 2079.7416,-31.9876 2212.2148,-19 2215.2264,-18.7047 2218.3061,-18.3814 2221.4147,-18.0377"/>
<polygon fill="#191970" stroke="#191970" points="1540.7869,-59.0217 1530.9973,-63.0731 1541.1767,-66.0108 1540.7869,-59.0217"/>
</g>
<!-- Node113&#45;&gt;Node57 -->
<g id="edge107" class="edge">
<title>Node113&#45;&gt;Node57</title>
<path fill="none" stroke="#191970" d="M1540.9999,-55.7525C1582.6283,-45.5767 1651.0173,-28.8594 1693.1749,-18.5542"/>
<polygon fill="#191970" stroke="#191970" points="1539.9081,-52.4163 1531.0252,-58.1908 1541.5703,-59.2161 1539.9081,-52.4163"/>
</g>
<!-- Node113&#45;&gt;Node59 -->
<g id="edge111" class="edge">
<title>Node113&#45;&gt;Node59</title>
<path fill="none" stroke="#191970" d="M1469.6544,-55.7295C1426.8289,-45.1671 1355.5258,-27.5812 1314.3099,-17.4158"/>
<polygon fill="#191970" stroke="#191970" points="1469.0867,-59.1943 1479.6339,-58.1908 1470.763,-52.3979 1469.0867,-59.1943"/>
</g>
<!-- Node113&#45;&gt;Node60 -->
<g id="edge112" class="edge">
<title>Node113&#45;&gt;Node60</title>
<path fill="none" stroke="#191970" d="M1474.8748,-51.4633C1451.3112,-41.3383 1419.2386,-27.5571 1398.3828,-18.5956"/>
<polygon fill="#191970" stroke="#191970" points="1473.5087,-54.6857 1484.0782,-55.4179 1476.2723,-48.2542 1473.5087,-54.6857"/>
</g>
<!-- Node113&#45;&gt;Node66 -->
<g id="edge120" class="edge">
<title>Node113&#45;&gt;Node66</title>
<path fill="none" stroke="#191970" d="M1505.2148,-45.383C1505.2148,-36.3738 1505.2148,-26.0373 1505.2148,-18.7795"/>
<polygon fill="#191970" stroke="#191970" points="1501.7149,-45.4178 1505.2148,-55.4179 1508.7149,-45.4179 1501.7149,-45.4178"/>
</g>
</g>
</svg>
