<?xml version="1.0" encoding="UTF-8" standalone="no"?>
<!DOCTYPE svg PUBLIC "-//W3C//DTD SVG 1.1//EN"
 "http://www.w3.org/Graphics/SVG/1.1/DTD/svg11.dtd">
<!-- Generated by graphviz version 2.28.0 (20110507.0327)
 -->
<!-- Title: SLScene.h Pages: 1 -->
<svg width="2355pt" height="196pt"
 viewBox="0.00 0.00 2355.00 196.00" xmlns="http://www.w3.org/2000/svg" xmlns:xlink="http://www.w3.org/1999/xlink">
<g id="graph1" class="graph" transform="scale(1 1) rotate(0) translate(4 192)">
<title>SLScene.h</title>
<polygon fill="white" stroke="white" points="-4,5 -4,-192 2352,-192 2352,5 -4,5"/>
<!-- Node1 -->
<g id="node1" class="node"><title>Node1</title>
<polygon fill="#bfbfbf" stroke="black" points="991,-168.5 991,-187.5 1059,-187.5 1059,-168.5 991,-168.5"/>
<text text-anchor="middle" x="1025" y="-175.5" font-family="Arial.ttf" font-size="10.00">SLScene.h</text>
</g>
<!-- Node2 -->
<g id="node3" class="node"><title>Node2</title>
<a xlink:href="_s_l_curve_bezier_8cpp.html" target="_top" xlink:title="SLCurveBezier.cpp">
<polygon fill="white" stroke="black" points="287.5,-112.5 287.5,-131.5 394.5,-131.5 394.5,-112.5 287.5,-112.5"/>
<text text-anchor="middle" x="341" y="-119.5" font-family="Arial.ttf" font-size="10.00">SLCurveBezier.cpp</text>
</a>
</g>
<!-- Node1&#45;&gt;Node2 -->
<g id="edge2" class="edge"><title>Node1&#45;&gt;Node2</title>
<path fill="none" stroke="midnightblue" d="M980.63,-174.888C878.498,-169.788 618.969,-155.457 403,-132 400.297,-131.706 397.53,-131.384 394.738,-131.042"/>
<polygon fill="midnightblue" stroke="midnightblue" points="980.712,-178.397 990.873,-175.395 981.058,-171.405 980.712,-178.397"/>
</g>
<!-- Node3 -->
<g id="node5" class="node"><title>Node3</title>
<a xlink:href="_s_l_assimp_importer_8cpp.html" target="_top" xlink:title="SLAssimpImporter.cpp">
<polygon fill="white" stroke="black" points="412.5,-112.5 412.5,-131.5 537.5,-131.5 537.5,-112.5 412.5,-112.5"/>
<text text-anchor="middle" x="475" y="-119.5" font-family="Arial.ttf" font-size="10.00">SLAssimpImporter.cpp</text>
</a>
</g>
<!-- Node1&#45;&gt;Node3 -->
<g id="edge4" class="edge"><title>Node1&#45;&gt;Node3</title>
<path fill="none" stroke="midnightblue" d="M980.672,-173.103C896.882,-165.666 709.526,-148.697 552,-132 547.316,-131.503 542.473,-130.974 537.602,-130.431"/>
<polygon fill="midnightblue" stroke="midnightblue" points="980.575,-176.608 990.845,-174.004 981.192,-169.635 980.575,-176.608"/>
</g>
<!-- Node4 -->
<g id="node7" class="node"><title>Node4</title>
<a xlink:href="_s_l_interface_8cpp.html" target="_top" xlink:title="SLProject C&#45;functions interface implementation.">
<polygon fill="white" stroke="black" points="-0.5,-56.5 -0.5,-75.5 90.5,-75.5 90.5,-56.5 -0.5,-56.5"/>
<text text-anchor="middle" x="45" y="-63.5" font-family="Arial.ttf" font-size="10.00">SLInterface.cpp</text>
</a>
</g>
<!-- Node1&#45;&gt;Node4 -->
<g id="edge6" class="edge"><title>Node1&#45;&gt;Node4</title>
<path fill="none" stroke="midnightblue" d="M980.624,-174.928C883.256,-169.993 653.698,-156.117 580,-132 563.338,-126.548 562.717,-117.282 546,-112 355.951,-51.9502 296.81,-100.405 99,-76 96.2645,-75.6625 93.4558,-75.286 90.6256,-74.8836"/>
<polygon fill="midnightblue" stroke="midnightblue" points="980.565,-178.43 990.727,-175.432 980.914,-171.438 980.565,-178.43"/>
</g>
<!-- Node5 -->
<g id="node9" class="node"><title>Node5</title>
<a xlink:href="_s_l_tex_font_8cpp.html" target="_top" xlink:title="SLTexFont.cpp">
<polygon fill="white" stroke="black" points="930,-112.5 930,-131.5 1016,-131.5 1016,-112.5 930,-112.5"/>
<text text-anchor="middle" x="973" y="-119.5" font-family="Arial.ttf" font-size="10.00">SLTexFont.cpp</text>
</a>
</g>
<!-- Node1&#45;&gt;Node5 -->
<g id="edge8" class="edge"><title>Node1&#45;&gt;Node5</title>
<path fill="none" stroke="midnightblue" d="M1009.32,-160.718C1000.16,-151.2 988.947,-139.561 981.427,-131.751"/>
<polygon fill="midnightblue" stroke="midnightblue" points="1006.96,-163.308 1016.41,-168.083 1012,-158.452 1006.96,-163.308"/>
</g>
<!-- Node6 -->
<g id="node11" class="node"><title>Node6</title>
<a xlink:href="_s_l_a_a_b_box_8cpp.html" target="_top" xlink:title="SLAABBox.cpp">
<polygon fill="white" stroke="black" points="1034.5,-112.5 1034.5,-131.5 1121.5,-131.5 1121.5,-112.5 1034.5,-112.5"/>
<text text-anchor="middle" x="1078" y="-119.5" font-family="Arial.ttf" font-size="10.00">SLAABBox.cpp</text>
</a>
</g>
<!-- Node1&#45;&gt;Node6 -->
<g id="edge10" class="edge"><title>Node1&#45;&gt;Node6</title>
<path fill="none" stroke="midnightblue" d="M1040.98,-160.718C1050.32,-151.2 1061.75,-139.561 1069.41,-131.751"/>
<polygon fill="midnightblue" stroke="midnightblue" points="1038.26,-158.494 1033.75,-168.083 1043.25,-163.398 1038.26,-158.494"/>
</g>
<!-- Node7 -->
<g id="node13" class="node"><title>Node7</title>
<a xlink:href="_s_l_animation_8cpp.html" target="_top" xlink:title="SLAnimation.cpp">
<polygon fill="white" stroke="black" points="1140,-112.5 1140,-131.5 1238,-131.5 1238,-112.5 1140,-112.5"/>
<text text-anchor="middle" x="1189" y="-119.5" font-family="Arial.ttf" font-size="10.00">SLAnimation.cpp</text>
</a>
</g>
<!-- Node1&#45;&gt;Node7 -->
<g id="edge12" class="edge"><title>Node1&#45;&gt;Node7</title>
<path fill="none" stroke="midnightblue" d="M1060.52,-165.304C1091.42,-155.129 1135.47,-140.625 1163.14,-131.516"/>
<polygon fill="midnightblue" stroke="midnightblue" points="1059.39,-161.992 1050.99,-168.444 1061.58,-168.64 1059.39,-161.992"/>
</g>
<!-- Node8 -->
<g id="node15" class="node"><title>Node8</title>
<a xlink:href="_s_l_anim_manager_8cpp.html" target="_top" xlink:title="SLAnimManager.cpp">
<polygon fill="white" stroke="black" points="1256,-112.5 1256,-131.5 1372,-131.5 1372,-112.5 1256,-112.5"/>
<text text-anchor="middle" x="1314" y="-119.5" font-family="Arial.ttf" font-size="10.00">SLAnimManager.cpp</text>
</a>
</g>
<!-- Node1&#45;&gt;Node8 -->
<g id="edge14" class="edge"><title>Node1&#45;&gt;Node8</title>
<path fill="none" stroke="midnightblue" d="M1068.93,-168.791C1122.78,-158.729 1213.59,-141.761 1268.25,-131.548"/>
<polygon fill="midnightblue" stroke="midnightblue" points="1068.19,-165.369 1059,-170.647 1069.47,-172.25 1068.19,-165.369"/>
</g>
<!-- Node9 -->
<g id="node17" class="node"><title>Node9</title>
<a xlink:href="_s_l_background_8cpp.html" target="_top" xlink:title="SLBackground.cpp">
<polygon fill="white" stroke="black" points="1390,-112.5 1390,-131.5 1496,-131.5 1496,-112.5 1390,-112.5"/>
<text text-anchor="middle" x="1443" y="-119.5" font-family="Arial.ttf" font-size="10.00">SLBackground.cpp</text>
</a>
</g>
<!-- Node1&#45;&gt;Node9 -->
<g id="edge16" class="edge"><title>Node1&#45;&gt;Node9</title>
<path fill="none" stroke="midnightblue" d="M1069.66,-171.623C1137.13,-163.438 1269.08,-147.195 1381,-132 1383.91,-131.605 1386.9,-131.193 1389.91,-130.772"/>
<polygon fill="midnightblue" stroke="midnightblue" points="1068.9,-168.189 1059.39,-172.866 1069.74,-175.138 1068.9,-168.189"/>
</g>
<!-- Node10 -->
<g id="node19" class="node"><title>Node10</title>
<a xlink:href="_s_l_g_l_oculus_8cpp.html" target="_top" xlink:title="SLGLOculus.cpp">
<polygon fill="white" stroke="black" points="1514,-112.5 1514,-131.5 1608,-131.5 1608,-112.5 1514,-112.5"/>
<text text-anchor="middle" x="1561" y="-119.5" font-family="Arial.ttf" font-size="10.00">SLGLOculus.cpp</text>
</a>
</g>
<!-- Node1&#45;&gt;Node10 -->
<g id="edge18" class="edge"><title>Node1&#45;&gt;Node10</title>
<path fill="none" stroke="midnightblue" d="M1069.17,-173.838C1153.88,-167.556 1344.99,-152.336 1505,-132 1507.93,-131.628 1510.94,-131.219 1513.98,-130.787"/>
<polygon fill="midnightblue" stroke="midnightblue" points="1068.85,-170.352 1059.13,-174.577 1069.36,-177.333 1068.85,-170.352"/>
</g>
<!-- Node11 -->
<g id="node21" class="node"><title>Node11</title>
<a xlink:href="_s_l_g_l_oculus_f_b_8cpp.html" target="_top" xlink:title="SLGLOculusFB.cpp">
<polygon fill="white" stroke="black" points="1626,-112.5 1626,-131.5 1732,-131.5 1732,-112.5 1626,-112.5"/>
<text text-anchor="middle" x="1679" y="-119.5" font-family="Arial.ttf" font-size="10.00">SLGLOculusFB.cpp</text>
</a>
</g>
<!-- Node1&#45;&gt;Node11 -->
<g id="edge20" class="edge"><title>Node1&#45;&gt;Node11</title>
<path fill="none" stroke="midnightblue" d="M1069.3,-174.67C1167.9,-169.256 1412.88,-154.547 1617,-132 1619.92,-131.678 1622.91,-131.323 1625.93,-130.947"/>
<polygon fill="midnightblue" stroke="midnightblue" points="1068.91,-171.186 1059.11,-175.224 1069.29,-178.175 1068.91,-171.186"/>
</g>
<!-- Node12 -->
<g id="node23" class="node"><title>Node12</title>
<a xlink:href="_s_l_g_l_program_8cpp.html" target="_top" xlink:title="SLGLProgram.cpp">
<polygon fill="white" stroke="black" points="1750.5,-112.5 1750.5,-131.5 1853.5,-131.5 1853.5,-112.5 1750.5,-112.5"/>
<text text-anchor="middle" x="1802" y="-119.5" font-family="Arial.ttf" font-size="10.00">SLGLProgram.cpp</text>
</a>
</g>
<!-- Node1&#45;&gt;Node12 -->
<g id="edge22" class="edge"><title>Node1&#45;&gt;Node12</title>
<path fill="none" stroke="midnightblue" d="M1069.67,-175.493C1182.46,-171.406 1487.8,-158.588 1741,-132 1744.09,-131.676 1747.26,-131.31 1750.45,-130.915"/>
<polygon fill="midnightblue" stroke="midnightblue" points="1069.23,-172.006 1059.37,-175.862 1069.48,-179.002 1069.23,-172.006"/>
</g>
<!-- Node13 -->
<g id="node25" class="node"><title>Node13</title>
<a xlink:href="_s_l_g_l_texture_8cpp.html" target="_top" xlink:title="SLGLTexture.cpp">
<polygon fill="white" stroke="black" points="1872,-112.5 1872,-131.5 1970,-131.5 1970,-112.5 1872,-112.5"/>
<text text-anchor="middle" x="1921" y="-119.5" font-family="Arial.ttf" font-size="10.00">SLGLTexture.cpp</text>
</a>
</g>
<!-- Node1&#45;&gt;Node13 -->
<g id="edge24" class="edge"><title>Node1&#45;&gt;Node13</title>
<path fill="none" stroke="midnightblue" d="M1069.72,-176.132C1195.05,-173.368 1560.29,-163.048 1862,-132 1865.2,-131.671 1868.48,-131.29 1871.79,-130.874"/>
<polygon fill="midnightblue" stroke="midnightblue" points="1069.3,-172.64 1059.38,-176.355 1069.45,-179.639 1069.3,-172.64"/>
</g>
<!-- Node14 -->
<g id="node27" class="node"><title>Node14</title>
<a xlink:href="_s_l_g_l_vertex_array_8cpp.html" target="_top" xlink:title="SLGLVertexArray.cpp">
<polygon fill="white" stroke="black" points="1988.5,-112.5 1988.5,-131.5 2107.5,-131.5 2107.5,-112.5 1988.5,-112.5"/>
<text text-anchor="middle" x="2048" y="-119.5" font-family="Arial.ttf" font-size="10.00">SLGLVertexArray.cpp</text>
</a>
</g>
<!-- Node1&#45;&gt;Node14 -->
<g id="edge26" class="edge"><title>Node1&#45;&gt;Node14</title>
<path fill="none" stroke="midnightblue" d="M1069.34,-176.21C1205.46,-173.504 1629.3,-163.001 1979,-132 1982.01,-131.733 1985.09,-131.433 1988.19,-131.108"/>
<polygon fill="midnightblue" stroke="midnightblue" points="1069.22,-172.711 1059.29,-176.405 1069.36,-179.71 1069.22,-172.711"/>
</g>
<!-- Node15 -->
<g id="node29" class="node"><title>Node15</title>
<a xlink:href="_s_l_g_l_vertex_array_ext_8cpp.html" target="_top" xlink:title="SLGLVertexArrayExt.cpp">
<polygon fill="white" stroke="black" points="2126,-112.5 2126,-131.5 2260,-131.5 2260,-112.5 2126,-112.5"/>
<text text-anchor="middle" x="2193" y="-119.5" font-family="Arial.ttf" font-size="10.00">SLGLVertexArrayExt.cpp</text>
</a>
</g>
<!-- Node1&#45;&gt;Node15 -->
<g id="edge28" class="edge"><title>Node1&#45;&gt;Node15</title>
<path fill="none" stroke="midnightblue" d="M1069.55,-176.362C1218.17,-173.979 1710.44,-164.02 2116,-132 2119.22,-131.746 2122.51,-131.46 2125.84,-131.151"/>
<polygon fill="midnightblue" stroke="midnightblue" points="1069.39,-172.864 1059.45,-176.521 1069.5,-179.863 1069.39,-172.864"/>
</g>
<!-- Node16 -->
<g id="node31" class="node"><title>Node16</title>
<a xlink:href="_s_l_input_manager_8cpp.html" target="_top" xlink:title="SLInputManager.cpp">
<polygon fill="white" stroke="black" points="108.5,-56.5 108.5,-75.5 223.5,-75.5 223.5,-56.5 108.5,-56.5"/>
<text text-anchor="middle" x="166" y="-63.5" font-family="Arial.ttf" font-size="10.00">SLInputManager.cpp</text>
</a>
</g>
<!-- Node1&#45;&gt;Node16 -->
<g id="edge30" class="edge"><title>Node1&#45;&gt;Node16</title>
<path fill="none" stroke="midnightblue" d="M980.758,-177.447C904.829,-177.047 745.564,-171.083 618,-132 599.752,-126.409 598.268,-117.527 580,-112 431.17,-66.9738 386.387,-94.5069 232,-76 229.244,-75.6697 226.425,-75.3222 223.579,-74.9636"/>
<polygon fill="midnightblue" stroke="midnightblue" points="980.899,-180.947 990.907,-177.469 980.915,-173.947 980.899,-180.947"/>
</g>
<!-- Node17 -->
<g id="node33" class="node"><title>Node17</title>
<a xlink:href="_s_l_light_rect_8cpp.html" target="_top" xlink:title="SLLightRect.cpp">
<polygon fill="white" stroke="black" points="241.5,-56.5 241.5,-75.5 334.5,-75.5 334.5,-56.5 241.5,-56.5"/>
<text text-anchor="middle" x="288" y="-63.5" font-family="Arial.ttf" font-size="10.00">SLLightRect.cpp</text>
</a>
</g>
<!-- Node1&#45;&gt;Node17 -->
<g id="edge32" class="edge"><title>Node1&#45;&gt;Node17</title>
<path fill="none" stroke="midnightblue" d="M980.536,-176.725C910.096,-175.157 769.227,-167.387 656,-132 637.784,-126.307 636.191,-117.773 618,-112 500.51,-74.7113 464.95,-93.9553 343,-76 340.32,-75.6054 337.568,-75.1894 334.792,-74.7615"/>
<polygon fill="midnightblue" stroke="midnightblue" points="980.749,-180.229 990.814,-176.92 980.882,-173.231 980.749,-180.229"/>
</g>
<!-- Node18 -->
<g id="node35" class="node"><title>Node18</title>
<a xlink:href="_s_l_light_sphere_8cpp.html" target="_top" xlink:title="SLLightSphere.cpp">
<polygon fill="white" stroke="black" points="352.5,-56.5 352.5,-75.5 459.5,-75.5 459.5,-56.5 352.5,-56.5"/>
<text text-anchor="middle" x="406" y="-63.5" font-family="Arial.ttf" font-size="10.00">SLLightSphere.cpp</text>
</a>
</g>
<!-- Node1&#45;&gt;Node18 -->
<g id="edge34" class="edge"><title>Node1&#45;&gt;Node18</title>
<path fill="none" stroke="midnightblue" d="M980.56,-175.849C915.997,-173.092 793.147,-163.738 694,-132 675.823,-126.182 674.047,-118.208 656,-112 637.625,-105.68 526.051,-86.7321 458.319,-75.5403"/>
<polygon fill="midnightblue" stroke="midnightblue" points="980.656,-179.355 990.786,-176.251 980.931,-172.361 980.656,-179.355"/>
</g>
<!-- Node19 -->
<g id="node37" class="node"><title>Node19</title>
<a xlink:href="_s_l_scene_8cpp.html" target="_top" xlink:title="SLScene.cpp">
<polygon fill="white" stroke="black" points="1650.5,-0.5 1650.5,-19.5 1729.5,-19.5 1729.5,-0.5 1650.5,-0.5"/>
<text text-anchor="middle" x="1690" y="-7.5" font-family="Arial.ttf" font-size="10.00">SLScene.cpp</text>
</a>
</g>
<!-- Node1&#45;&gt;Node19 -->
<g id="edge36" class="edge"><title>Node1&#45;&gt;Node19</title>
<path fill="none" stroke="midnightblue" d="M980.987,-166.489C943.034,-155.478 897.723,-136.392 921,-112 980.053,-50.1174 1630.95,-137.883 1690,-76 1704.49,-60.8151 1697.92,-33.3827 1693.25,-19.516"/>
<polygon fill="midnightblue" stroke="midnightblue" points="980.36,-169.947 990.932,-169.246 982.23,-163.202 980.36,-169.947"/>
</g>
<!-- Node20 -->
<g id="node39" class="node"><title>Node20</title>
<a xlink:href="_s_l_scene__on_load_8cpp.html" target="_top" xlink:title="SLScene_onLoad.cpp">
<polygon fill="white" stroke="black" points="477.5,-56.5 477.5,-75.5 596.5,-75.5 596.5,-56.5 477.5,-56.5"/>
<text text-anchor="middle" x="537" y="-63.5" font-family="Arial.ttf" font-size="10.00">SLScene_onLoad.cpp</text>
</a>
</g>
<!-- Node1&#45;&gt;Node20 -->
<g id="edge38" class="edge"><title>Node1&#45;&gt;Node20</title>
<path fill="none" stroke="midnightblue" d="M980.333,-174.398C922.357,-170.053 818.6,-158.963 734,-132 715.062,-125.964 712.521,-119.213 694,-112 653.84,-96.3588 606.021,-83.4273 573.796,-75.5018"/>
<polygon fill="midnightblue" stroke="midnightblue" points="980.386,-177.91 990.61,-175.133 980.886,-170.928 980.386,-177.91"/>
</g>
<!-- Node21 -->
<g id="node41" class="node"><title>Node21</title>
<a xlink:href="_s_l_skeleton_8cpp.html" target="_top" xlink:title="SLSkeleton.cpp">
<polygon fill="white" stroke="black" points="614.5,-56.5 614.5,-75.5 705.5,-75.5 705.5,-56.5 614.5,-56.5"/>
<text text-anchor="middle" x="660" y="-63.5" font-family="Arial.ttf" font-size="10.00">SLSkeleton.cpp</text>
</a>
</g>
<!-- Node1&#45;&gt;Node21 -->
<g id="edge40" class="edge"><title>Node1&#45;&gt;Node21</title>
<path fill="none" stroke="midnightblue" d="M980.903,-173.57C930.03,-168.593 844.468,-157.065 775,-132 754.183,-124.489 699.391,-91.3588 673.684,-75.5074"/>
<polygon fill="midnightblue" stroke="midnightblue" points="980.624,-177.059 990.907,-174.507 981.277,-170.089 980.624,-177.059"/>
</g>
<!-- Node22 -->
<g id="node43" class="node"><title>Node22</title>
<a xlink:href="_s_l_text_8cpp.html" target="_top" xlink:title="SLText.cpp">
<polygon fill="white" stroke="black" points="2278.5,-112.5 2278.5,-131.5 2347.5,-131.5 2347.5,-112.5 2278.5,-112.5"/>
<text text-anchor="middle" x="2313" y="-119.5" font-family="Arial.ttf" font-size="10.00">SLText.cpp</text>
</a>
</g>
<!-- Node1&#45;&gt;Node22 -->
<g id="edge42" class="edge"><title>Node1&#45;&gt;Node22</title>
<path fill="none" stroke="midnightblue" d="M1069.06,-176.385C1261.53,-173.55 2029.45,-160.632 2269,-132 2271.94,-131.648 2274.98,-131.203 2278.02,-130.699"/>
<polygon fill="midnightblue" stroke="midnightblue" points="1068.98,-172.886 1059.03,-176.532 1069.08,-179.885 1068.98,-172.886"/>
</g>
<!-- Node23 -->
<g id="node45" class="node"><title>Node23</title>
<a xlink:href="_s_l_scene_view_8h.html" target="_top" xlink:title="SLSceneView.h">
<polygon fill="white" stroke="black" points="784.5,-112.5 784.5,-131.5 873.5,-131.5 873.5,-112.5 784.5,-112.5"/>
<text text-anchor="middle" x="829" y="-119.5" font-family="Arial.ttf" font-size="10.00">SLSceneView.h</text>
</a>
</g>
<!-- Node1&#45;&gt;Node23 -->
<g id="edge44" class="edge"><title>Node1&#45;&gt;Node23</title>
<path fill="none" stroke="midnightblue" d="M983.98,-165.699C946.989,-155.507 893.4,-140.743 859.911,-131.516"/>
<polygon fill="midnightblue" stroke="midnightblue" points="983.373,-169.162 993.943,-168.444 985.232,-162.413 983.373,-169.162"/>
</g>
<!-- Node23&#45;&gt;Node4 -->
<g id="edge46" class="edge"><title>Node23&#45;&gt;Node4</title>
<path fill="none" stroke="midnightblue" d="M773.942,-118.348C627.334,-111.167 229.751,-90.8854 99,-76 96.2614,-75.6882 93.4504,-75.3316 90.6184,-74.9443"/>
<polygon fill="midnightblue" stroke="midnightblue" points="773.898,-121.85 784.057,-118.842 774.239,-114.858 773.898,-121.85"/>
</g>
<!-- Node23&#45;&gt;Node16 -->
<g id="edge52" class="edge"><title>Node23&#45;&gt;Node16</title>
<path fill="none" stroke="midnightblue" d="M774.294,-117.983C669.085,-111.936 431.314,-97.0821 232,-76 229.24,-75.7081 226.417,-75.3918 223.568,-75.0582"/>
<polygon fill="midnightblue" stroke="midnightblue" points="774.173,-121.482 784.357,-118.558 774.572,-114.493 774.173,-121.482"/>
</g>
<!-- Node23&#45;&gt;Node17 -->
<g id="edge54" class="edge"><title>Node23&#45;&gt;Node17</title>
<path fill="none" stroke="midnightblue" d="M774.341,-117.191C684.247,-110.631 498.996,-95.9605 343,-76 340.313,-75.6561 337.555,-75.2799 334.775,-74.8823"/>
<polygon fill="midnightblue" stroke="midnightblue" points="774.1,-120.682 784.327,-117.913 774.605,-113.701 774.1,-120.682"/>
</g>
<!-- Node23&#45;&gt;Node18 -->
<g id="edge56" class="edge"><title>Node23&#45;&gt;Node18</title>
<path fill="none" stroke="midnightblue" d="M774.194,-114.516C703.415,-106.063 576.428,-90.6262 468,-76 465.305,-75.6365 462.546,-75.2582 459.759,-74.8713"/>
<polygon fill="midnightblue" stroke="midnightblue" points="773.877,-118.003 784.221,-115.712 774.705,-111.053 773.877,-118.003"/>
</g>
<!-- Node23&#45;&gt;Node19 -->
<g id="edge68" class="edge"><title>Node23&#45;&gt;Node19</title>
<path fill="none" stroke="midnightblue" d="M884.044,-112.414C885.375,-112.268 886.695,-112.129 888,-112 974.558,-103.43 1601.24,-129.271 1670,-76 1687.36,-62.5503 1690.05,-34.3316 1690.23,-19.9052"/>
<polygon fill="midnightblue" stroke="midnightblue" points="883.219,-108.989 873.715,-113.673 884.065,-115.937 883.219,-108.989"/>
</g>
<!-- Node23&#45;&gt;Node20 -->
<g id="edge70" class="edge"><title>Node23&#45;&gt;Node20</title>
<path fill="none" stroke="midnightblue" d="M774.39,-110.901C719.243,-100.703 635.002,-85.1237 583.108,-75.5268"/>
<polygon fill="midnightblue" stroke="midnightblue" points="773.864,-114.363 784.334,-112.74 775.137,-107.48 773.864,-114.363"/>
</g>
<!-- Node23&#45;&gt;Node21 -->
<g id="edge72" class="edge"><title>Node23&#45;&gt;Node21</title>
<path fill="none" stroke="midnightblue" d="M792.397,-109.304C760.553,-99.1294 715.158,-84.6246 686.653,-75.5164"/>
<polygon fill="midnightblue" stroke="midnightblue" points="791.631,-112.734 802.221,-112.444 793.761,-106.066 791.631,-112.734"/>
</g>
<!-- Node24 -->
<g id="node48" class="node"><title>Node24</title>
<a xlink:href="_s_l_anim_track_8cpp.html" target="_top" xlink:title="SLAnimTrack.cpp">
<polygon fill="white" stroke="black" points="723.5,-56.5 723.5,-75.5 822.5,-75.5 822.5,-56.5 723.5,-56.5"/>
<text text-anchor="middle" x="773" y="-63.5" font-family="Arial.ttf" font-size="10.00">SLAnimTrack.cpp</text>
</a>
</g>
<!-- Node23&#45;&gt;Node24 -->
<g id="edge48" class="edge"><title>Node23&#45;&gt;Node24</title>
<path fill="none" stroke="midnightblue" d="M812.67,-105.253C802.735,-95.6731 790.412,-83.7906 782.161,-75.8339"/>
<polygon fill="midnightblue" stroke="midnightblue" points="810.375,-107.902 820.003,-112.324 815.234,-102.863 810.375,-107.902"/>
</g>
<!-- Node25 -->
<g id="node50" class="node"><title>Node25</title>
<a xlink:href="_s_l_camera_8cpp.html" target="_top" xlink:title="SLCamera.cpp">
<polygon fill="white" stroke="black" points="840.5,-56.5 840.5,-75.5 927.5,-75.5 927.5,-56.5 840.5,-56.5"/>
<text text-anchor="middle" x="884" y="-63.5" font-family="Arial.ttf" font-size="10.00">SLCamera.cpp</text>
</a>
</g>
<!-- Node23&#45;&gt;Node25 -->
<g id="edge50" class="edge"><title>Node23&#45;&gt;Node25</title>
<path fill="none" stroke="midnightblue" d="M845.294,-105.002C855.041,-95.4329 867.053,-83.6389 875.087,-75.7511"/>
<polygon fill="midnightblue" stroke="midnightblue" points="842.766,-102.58 838.082,-112.083 847.67,-107.575 842.766,-102.58"/>
</g>
<!-- Node26 -->
<g id="node55" class="node"><title>Node26</title>
<a xlink:href="_s_l_material_8cpp.html" target="_top" xlink:title="SLMaterial.cpp">
<polygon fill="white" stroke="black" points="1034.5,-56.5 1034.5,-75.5 1121.5,-75.5 1121.5,-56.5 1034.5,-56.5"/>
<text text-anchor="middle" x="1078" y="-63.5" font-family="Arial.ttf" font-size="10.00">SLMaterial.cpp</text>
</a>
</g>
<!-- Node23&#45;&gt;Node26 -->
<g id="edge58" class="edge"><title>Node23&#45;&gt;Node26</title>
<path fill="none" stroke="midnightblue" d="M878.424,-110.281C925.479,-100.077 995.367,-84.9203 1038.73,-75.5164"/>
<polygon fill="midnightblue" stroke="midnightblue" points="877.486,-106.904 868.455,-112.444 878.969,-113.745 877.486,-106.904"/>
</g>
<!-- Node27 -->
<g id="node57" class="node"><title>Node27</title>
<a xlink:href="_s_l_mesh_8cpp.html" target="_top" xlink:title="SLMesh.cpp">
<polygon fill="white" stroke="black" points="1140,-56.5 1140,-75.5 1214,-75.5 1214,-56.5 1140,-56.5"/>
<text text-anchor="middle" x="1177" y="-63.5" font-family="Arial.ttf" font-size="10.00">SLMesh.cpp</text>
</a>
</g>
<!-- Node23&#45;&gt;Node27 -->
<g id="edge60" class="edge"><title>Node23&#45;&gt;Node27</title>
<path fill="none" stroke="midnightblue" d="M884.067,-112.593C885.391,-112.393 886.703,-112.195 888,-112 995.526,-95.8012 1022.8,-94.2293 1130,-76 1133.19,-75.4568 1136.51,-74.8703 1139.83,-74.2661"/>
<polygon fill="midnightblue" stroke="midnightblue" points="883.138,-109.194 873.775,-114.152 884.187,-116.115 883.138,-109.194"/>
</g>
<!-- Node28 -->
<g id="node59" class="node"><title>Node28</title>
<a xlink:href="_s_l_node_8cpp.html" target="_top" xlink:title="SLNode.cpp">
<polygon fill="white" stroke="black" points="1232,-56.5 1232,-75.5 1306,-75.5 1306,-56.5 1232,-56.5"/>
<text text-anchor="middle" x="1269" y="-63.5" font-family="Arial.ttf" font-size="10.00">SLNode.cpp</text>
</a>
</g>
<!-- Node23&#45;&gt;Node28 -->
<g id="edge62" class="edge"><title>Node23&#45;&gt;Node28</title>
<path fill="none" stroke="midnightblue" d="M884.057,-112.522C885.383,-112.343 886.7,-112.169 888,-112 1036.5,-92.7046 1074.94,-98.3973 1223,-76 1225.9,-75.5618 1228.89,-75.0689 1231.89,-74.5453"/>
<polygon fill="midnightblue" stroke="midnightblue" points="883.168,-109.112 873.748,-113.961 884.136,-116.045 883.168,-109.112"/>
</g>
<!-- Node29 -->
<g id="node61" class="node"><title>Node29</title>
<a xlink:href="_s_l_pathtracer_8cpp.html" target="_top" xlink:title="SLPathtracer.cpp">
<polygon fill="white" stroke="black" points="1324.5,-56.5 1324.5,-75.5 1423.5,-75.5 1423.5,-56.5 1324.5,-56.5"/>
<text text-anchor="middle" x="1374" y="-63.5" font-family="Arial.ttf" font-size="10.00">SLPathtracer.cpp</text>
</a>
</g>
<!-- Node23&#45;&gt;Node29 -->
<g id="edge64" class="edge"><title>Node23&#45;&gt;Node29</title>
<path fill="none" stroke="midnightblue" d="M884.051,-112.481C885.38,-112.315 886.698,-112.154 888,-112 1077.13,-89.6275 1125.87,-98.3725 1315,-76 1318.09,-75.6348 1321.26,-75.2317 1324.46,-74.8044"/>
<polygon fill="midnightblue" stroke="midnightblue" points="883.187,-109.066 873.735,-113.853 884.109,-116.004 883.187,-109.066"/>
</g>
<!-- Node30 -->
<g id="node63" class="node"><title>Node30</title>
<a xlink:href="_s_l_raytracer_8cpp.html" target="_top" xlink:title="SLRaytracer.cpp">
<polygon fill="white" stroke="black" points="1441.5,-56.5 1441.5,-75.5 1536.5,-75.5 1536.5,-56.5 1441.5,-56.5"/>
<text text-anchor="middle" x="1489" y="-63.5" font-family="Arial.ttf" font-size="10.00">SLRaytracer.cpp</text>
</a>
</g>
<!-- Node23&#45;&gt;Node30 -->
<g id="edge66" class="edge"><title>Node23&#45;&gt;Node30</title>
<path fill="none" stroke="midnightblue" d="M884.048,-112.45C885.377,-112.293 886.696,-112.142 888,-112 1128.88,-85.7064 1191.19,-102.923 1432,-76 1435.09,-75.6549 1438.26,-75.2614 1441.46,-74.8363"/>
<polygon fill="midnightblue" stroke="midnightblue" points="883.201,-109.029 873.725,-113.768 884.088,-115.973 883.201,-109.029"/>
</g>
<!-- Node31 -->
<g id="node68" class="node"><title>Node31</title>
<a xlink:href="_s_l_uniform_grid_8cpp.html" target="_top" xlink:title="SLUniformGrid.cpp">
<polygon fill="white" stroke="black" points="1554.5,-56.5 1554.5,-75.5 1661.5,-75.5 1661.5,-56.5 1554.5,-56.5"/>
<text text-anchor="middle" x="1608" y="-63.5" font-family="Arial.ttf" font-size="10.00">SLUniformGrid.cpp</text>
</a>
</g>
<!-- Node23&#45;&gt;Node31 -->
<g id="edge74" class="edge"><title>Node23&#45;&gt;Node31</title>
<path fill="none" stroke="midnightblue" d="M884.046,-112.43C885.376,-112.278 886.696,-112.135 888,-112 1178.89,-81.9154 1253.97,-104.706 1545,-76 1548.08,-75.6963 1551.24,-75.3514 1554.42,-74.9779"/>
<polygon fill="midnightblue" stroke="midnightblue" points="883.211,-109.006 873.72,-113.714 884.075,-115.953 883.211,-109.006"/>
</g>
<!-- Node32 -->
<g id="node70" class="node"><title>Node32</title>
<a xlink:href="_s_l_button_8h.html" target="_top" xlink:title="SLButton.h">
<polygon fill="white" stroke="black" points="946,-56.5 946,-75.5 1016,-75.5 1016,-56.5 946,-56.5"/>
<text text-anchor="middle" x="981" y="-63.5" font-family="Arial.ttf" font-size="10.00">SLButton.h</text>
</a>
</g>
<!-- Node23&#45;&gt;Node32 -->
<g id="edge76" class="edge"><title>Node23&#45;&gt;Node32</title>
<path fill="none" stroke="midnightblue" d="M862.668,-109.039C891.268,-98.8786 931.612,-84.5457 957.028,-75.5164"/>
<polygon fill="midnightblue" stroke="midnightblue" points="861.336,-105.798 853.085,-112.444 863.68,-112.394 861.336,-105.798"/>
</g>
<!-- Node32&#45;&gt;Node19 -->
<g id="edge80" class="edge"><title>Node32&#45;&gt;Node19</title>
<path fill="none" stroke="midnightblue" d="M1026.52,-55.9669C1268.72,-23.7728 1548.59,-14.3486 1650.46,-11.8261"/>
<polygon fill="midnightblue" stroke="midnightblue" points="1025.92,-52.5167 1016.47,-57.3188 1026.85,-59.4542 1025.92,-52.5167"/>
</g>
<!-- Node33 -->
<g id="node72" class="node"><title>Node33</title>
<a xlink:href="_s_l_button_8cpp.html" target="_top" xlink:title="SLButton.cpp">
<polygon fill="white" stroke="black" points="885.5,-0.5 885.5,-19.5 966.5,-19.5 966.5,-0.5 885.5,-0.5"/>
<text text-anchor="middle" x="926" y="-7.5" font-family="Arial.ttf" font-size="10.00">SLButton.cpp</text>
</a>
</g>
<!-- Node32&#45;&gt;Node33 -->
<g id="edge78" class="edge"><title>Node32&#45;&gt;Node33</title>
<path fill="none" stroke="midnightblue" d="M964.706,-49.0024C954.959,-39.4329 942.947,-27.6389 934.913,-19.7511"/>
<polygon fill="midnightblue" stroke="midnightblue" points="962.33,-51.5746 971.918,-56.083 967.234,-46.5796 962.33,-51.5746"/>
</g>
<!-- Node34 -->
<g id="node75" class="node"><title>Node34</title>
<a xlink:href="_s_l_scene_view_8cpp.html" target="_top" xlink:title="SLSceneView.cpp">
<polygon fill="white" stroke="black" points="984.5,-0.5 984.5,-19.5 1085.5,-19.5 1085.5,-0.5 984.5,-0.5"/>
<text text-anchor="middle" x="1035" y="-7.5" font-family="Arial.ttf" font-size="10.00">SLSceneView.cpp</text>
</a>
</g>
<!-- Node32&#45;&gt;Node34 -->
<g id="edge82" class="edge"><title>Node32&#45;&gt;Node34</title>
<path fill="none" stroke="midnightblue" d="M996.998,-49.0024C1006.57,-39.4329 1018.36,-27.6389 1026.25,-19.7511"/>
<polygon fill="midnightblue" stroke="midnightblue" points="994.513,-46.537 989.917,-56.083 999.463,-51.4868 994.513,-46.537"/>
</g>
</g>
</svg>
