<?xml version="1.0" encoding="UTF-8" standalone="no"?>
<!DOCTYPE svg PUBLIC "-//W3C//DTD SVG 1.1//EN"
 "http://www.w3.org/Graphics/SVG/1.1/DTD/svg11.dtd">
<!-- Generated by graphviz version 2.40.1 (20161225.0304)
 -->
<!-- Title: SLLight.h Pages: 1 -->
<svg width="194pt" height="357pt"
 viewBox="0.00 0.00 194.35 357.00" xmlns="http://www.w3.org/2000/svg" xmlns:xlink="http://www.w3.org/1999/xlink">
<g id="graph0" class="graph" transform="scale(1 1) rotate(0) translate(4 353)">
<title>SLLight.h</title>
<polygon fill="#ffffff" stroke="transparent" points="-4,4 -4,-353 190.3545,-353 190.3545,4 -4,4"/>
<!-- Node1 -->
<g id="node1" class="node">
<title>Node1</title>
<g id="a_node1"><a xlink:title=" ">
<polygon fill="#bfbfbf" stroke="#000000" points="128.0986,-330.5 128.0986,-348.5 186.3545,-348.5 186.3545,-330.5 128.0986,-330.5"/>
<text text-anchor="middle" x="157.2266" y="-336.5" font-family="Arial.ttf" font-size="10.00" fill="#000000">SLLight.h</text>
</a>
</g>
</g>
<!-- Node2 -->
<g id="node2" class="node">
<title>Node2</title>
<g id="a_node2"><a xlink:href="_s_l_8h.html" target="_top" xlink:title=" ">
<polygon fill="#ffffff" stroke="#000000" points="127.9409,-110.5 127.9409,-128.5 164.5122,-128.5 164.5122,-110.5 127.9409,-110.5"/>
<text text-anchor="middle" x="146.2266" y="-116.5" font-family="Arial.ttf" font-size="10.00" fill="#000000">SL.h</text>
</a>
</g>
</g>
<!-- Node1&#45;&gt;Node2 -->
<g id="edge1" class="edge">
<title>Node1&#45;&gt;Node2</title>
<path fill="none" stroke="#191970" d="M159.0476,-330.3087C163.9177,-304.1639 176.0918,-227.247 164.2266,-165 162.4595,-155.7295 158.8363,-145.9365 155.3007,-137.8202"/>
<polygon fill="#191970" stroke="#191970" points="158.4048,-136.1946 151.0155,-128.6019 152.0572,-139.1455 158.4048,-136.1946"/>
</g>
<!-- Node7 -->
<g id="node7" class="node">
<title>Node7</title>
<g id="a_node7"><a xlink:href="_s_l_vec4_8h.html" target="_top" xlink:title=" ">
<polygon fill="#ffffff" stroke="#000000" points="71.1865,-275.5 71.1865,-293.5 129.2666,-293.5 129.2666,-275.5 71.1865,-275.5"/>
<text text-anchor="middle" x="100.2266" y="-281.5" font-family="Arial.ttf" font-size="10.00" fill="#000000">SLVec4.h</text>
</a>
</g>
</g>
<!-- Node1&#45;&gt;Node7 -->
<g id="edge6" class="edge">
<title>Node1&#45;&gt;Node7</title>
<path fill="none" stroke="#191970" d="M147.8142,-330.4179C139.5306,-322.425 127.2656,-310.5903 117.262,-300.9377"/>
<polygon fill="#191970" stroke="#191970" points="119.47,-298.2045 109.8435,-293.7795 114.6094,-303.2419 119.47,-298.2045"/>
</g>
<!-- Node3 -->
<g id="node3" class="node">
<title>Node3</title>
<g id="a_node3"><a xlink:href="_utils_8h.html" target="_top" xlink:title=" ">
<polygon fill="#ffffff" stroke="#000000" points="58.335,-55.5 58.335,-73.5 102.1182,-73.5 102.1182,-55.5 58.335,-55.5"/>
<text text-anchor="middle" x="80.2266" y="-61.5" font-family="Arial.ttf" font-size="10.00" fill="#000000">Utils.h</text>
</a>
</g>
</g>
<!-- Node2&#45;&gt;Node3 -->
<g id="edge2" class="edge">
<title>Node2&#45;&gt;Node3</title>
<path fill="none" stroke="#191970" d="M135.328,-110.4179C125.5466,-102.2667 110.9707,-90.1201 99.2669,-80.3669"/>
<polygon fill="#191970" stroke="#191970" points="101.2848,-77.4926 91.3619,-73.7795 96.8035,-82.8701 101.2848,-77.4926"/>
</g>
<!-- Node4 -->
<g id="node4" class="node">
<title>Node4</title>
<g id="a_node4"><a xlink:title=" ">
<polygon fill="#ffffff" stroke="#bfbfbf" points="0,-.5 0,-18.5 40.4531,-18.5 40.4531,-.5 0,-.5"/>
<text text-anchor="middle" x="20.2266" y="-6.5" font-family="Arial.ttf" font-size="10.00" fill="#000000">string</text>
</a>
</g>
</g>
<!-- Node3&#45;&gt;Node4 -->
<g id="edge3" class="edge">
<title>Node3&#45;&gt;Node4</title>
<path fill="none" stroke="#191970" d="M70.3188,-55.4179C61.5129,-47.3458 48.4327,-35.3556 37.8466,-25.6517"/>
<polygon fill="#191970" stroke="#191970" points="40.0862,-22.9567 30.3496,-18.7795 35.3561,-28.1168 40.0862,-22.9567"/>
</g>
<!-- Node5 -->
<g id="node5" class="node">
<title>Node5</title>
<g id="a_node5"><a xlink:title=" ">
<polygon fill="#ffffff" stroke="#bfbfbf" points="58.6108,-.5 58.6108,-18.5 101.8423,-18.5 101.8423,-.5 58.6108,-.5"/>
<text text-anchor="middle" x="80.2266" y="-6.5" font-family="Arial.ttf" font-size="10.00" fill="#000000">vector</text>
</a>
</g>
</g>
<!-- Node3&#45;&gt;Node5 -->
<g id="edge4" class="edge">
<title>Node3&#45;&gt;Node5</title>
<path fill="none" stroke="#191970" d="M80.2266,-55.4179C80.2266,-48.2164 80.2266,-37.8962 80.2266,-28.8632"/>
<polygon fill="#191970" stroke="#191970" points="83.7267,-28.7794 80.2266,-18.7795 76.7267,-28.7795 83.7267,-28.7794"/>
</g>
<!-- Node6 -->
<g id="node6" class="node">
<title>Node6</title>
<g id="a_node6"><a xlink:title=" ">
<polygon fill="#ffffff" stroke="#bfbfbf" points="120.2759,-.5 120.2759,-18.5 160.1772,-18.5 160.1772,-.5 120.2759,-.5"/>
<text text-anchor="middle" x="140.2266" y="-6.5" font-family="Arial.ttf" font-size="10.00" fill="#000000">cfloat</text>
</a>
</g>
</g>
<!-- Node3&#45;&gt;Node6 -->
<g id="edge5" class="edge">
<title>Node3&#45;&gt;Node6</title>
<path fill="none" stroke="#191970" d="M90.1343,-55.4179C98.9402,-47.3458 112.0204,-35.3556 122.6065,-25.6517"/>
<polygon fill="#191970" stroke="#191970" points="125.097,-28.1168 130.1035,-18.7795 120.3669,-22.9567 125.097,-28.1168"/>
</g>
<!-- Node7&#45;&gt;Node2 -->
<g id="edge7" class="edge">
<title>Node7&#45;&gt;Node2</title>
<path fill="none" stroke="#191970" d="M111.0629,-275.2625C120.0998,-266.838 132.4047,-253.5199 138.2266,-239 151.5871,-205.6784 150.5649,-162.9469 148.4832,-138.6552"/>
<polygon fill="#191970" stroke="#191970" points="151.956,-138.209 147.4673,-128.612 144.9915,-138.9135 151.956,-138.209"/>
</g>
<!-- Node7&#45;&gt;Node3 -->
<g id="edge15" class="edge">
<title>Node7&#45;&gt;Node3</title>
<path fill="none" stroke="#191970" d="M85.8036,-275.2498C63.1215,-259.688 20.1591,-225.8321 5.2266,-184 -9.3371,-143.2013 32.0183,-101.7394 58.9796,-80.0032"/>
<polygon fill="#191970" stroke="#191970" points="61.3886,-82.5638 67.1384,-73.6649 57.0941,-77.0359 61.3886,-82.5638"/>
</g>
<!-- Node8 -->
<g id="node8" class="node">
<title>Node8</title>
<g id="a_node8"><a xlink:href="_s_l_vec2_8h.html" target="_top" xlink:title=" ">
<polygon fill="#ffffff" stroke="#000000" points="14.1865,-165.5 14.1865,-183.5 72.2666,-183.5 72.2666,-165.5 14.1865,-165.5"/>
<text text-anchor="middle" x="43.2266" y="-171.5" font-family="Arial.ttf" font-size="10.00" fill="#000000">SLVec2.h</text>
</a>
</g>
</g>
<!-- Node7&#45;&gt;Node8 -->
<g id="edge8" class="edge">
<title>Node7&#45;&gt;Node8</title>
<path fill="none" stroke="#191970" d="M90.4961,-275.2425C81.9347,-266.6025 69.7017,-252.976 62.2266,-239 54.5702,-224.6853 49.6254,-206.8897 46.7054,-193.6191"/>
<polygon fill="#191970" stroke="#191970" points="50.1161,-192.8258 44.7139,-183.7117 43.2534,-194.2053 50.1161,-192.8258"/>
</g>
<!-- Node9 -->
<g id="node9" class="node">
<title>Node9</title>
<g id="a_node9"><a xlink:href="_s_l_vec3_8h.html" target="_top" xlink:title=" ">
<polygon fill="#ffffff" stroke="#000000" points="71.1865,-220.5 71.1865,-238.5 129.2666,-238.5 129.2666,-220.5 71.1865,-220.5"/>
<text text-anchor="middle" x="100.2266" y="-226.5" font-family="Arial.ttf" font-size="10.00" fill="#000000">SLVec3.h</text>
</a>
</g>
</g>
<!-- Node7&#45;&gt;Node9 -->
<g id="edge11" class="edge">
<title>Node7&#45;&gt;Node9</title>
<path fill="none" stroke="#191970" d="M100.2266,-275.4179C100.2266,-268.2164 100.2266,-257.8962 100.2266,-248.8632"/>
<polygon fill="#191970" stroke="#191970" points="103.7267,-248.7794 100.2266,-238.7795 96.7267,-248.7795 103.7267,-248.7794"/>
</g>
<!-- Node8&#45;&gt;Node2 -->
<g id="edge9" class="edge">
<title>Node8&#45;&gt;Node2</title>
<path fill="none" stroke="#191970" d="M60.2349,-165.4179C76.5609,-156.7001 101.4456,-143.4122 120.252,-133.3699"/>
<polygon fill="#191970" stroke="#191970" points="122.0204,-136.3934 129.1929,-128.5956 118.7231,-130.2186 122.0204,-136.3934"/>
</g>
<!-- Node8&#45;&gt;Node3 -->
<g id="edge10" class="edge">
<title>Node8&#45;&gt;Node3</title>
<path fill="none" stroke="#191970" d="M46.2544,-165.4982C52.2711,-147.6108 65.8438,-107.2594 73.8938,-83.3271"/>
<polygon fill="#191970" stroke="#191970" points="77.286,-84.2202 77.1569,-73.6261 70.6513,-81.9885 77.286,-84.2202"/>
</g>
<!-- Node9&#45;&gt;Node2 -->
<g id="edge12" class="edge">
<title>Node9&#45;&gt;Node2</title>
<path fill="none" stroke="#191970" d="M103.9909,-220.4982C111.5049,-202.5302 128.4976,-161.8954 138.4883,-138.0046"/>
<polygon fill="#191970" stroke="#191970" points="141.7811,-139.2023 142.4102,-128.6261 135.323,-136.5016 141.7811,-139.2023"/>
</g>
<!-- Node9&#45;&gt;Node3 -->
<g id="edge14" class="edge">
<title>Node9&#45;&gt;Node3</title>
<path fill="none" stroke="#191970" d="M99.094,-220.1561C95.9175,-193.9504 86.8757,-119.3557 82.5662,-83.8021"/>
<polygon fill="#191970" stroke="#191970" points="86.0247,-83.2475 81.3467,-73.7414 79.0756,-84.0899 86.0247,-83.2475"/>
</g>
<!-- Node9&#45;&gt;Node8 -->
<g id="edge13" class="edge">
<title>Node9&#45;&gt;Node8</title>
<path fill="none" stroke="#191970" d="M90.8142,-220.4179C82.5306,-212.425 70.2656,-200.5903 60.262,-190.9377"/>
<polygon fill="#191970" stroke="#191970" points="62.47,-188.2045 52.8435,-183.7795 57.6094,-193.2419 62.47,-188.2045"/>
</g>
</g>
</svg>
