<?xml version="1.0" encoding="UTF-8" standalone="no"?>
<!DOCTYPE svg PUBLIC "-//W3C//DTD SVG 1.1//EN"
 "http://www.w3.org/Graphics/SVG/1.1/DTD/svg11.dtd">
<!-- Generated by graphviz version 2.36.0 (20140111.2315)
 -->
<!-- Title: SLRay.h Pages: 1 -->
<svg width="1997pt" height="644pt"
 viewBox="0.00 0.00 1997.01 644.00" xmlns="http://www.w3.org/2000/svg" xmlns:xlink="http://www.w3.org/1999/xlink">
<g id="graph0" class="graph" transform="scale(1 1) rotate(0) translate(4 640)">
<title>SLRay.h</title>
<polygon fill="white" stroke="none" points="-4,4 -4,-640 1993.01,-640 1993.01,4 -4,4"/>
<!-- Node1 -->
<g id="node1" class="node"><title>Node1</title>
<polygon fill="#bfbfbf" stroke="black" points="689.515,-616.5 689.515,-635.5 744.515,-635.5 744.515,-616.5 689.515,-616.5"/>
<text text-anchor="middle" x="717.015" y="-623.5" font-family="Arial.ttf" font-size="10.00">SLRay.h</text>
</g>
<!-- Node2 -->
<g id="node2" class="node"><title>Node2</title>
<g id="a_node2"><a xlink:href="_s_l_material_8h.html" target="_top" xlink:title="SLMaterial.h">
<polygon fill="white" stroke="black" points="1431.51,-504.5 1431.51,-523.5 1504.51,-523.5 1504.51,-504.5 1431.51,-504.5"/>
<text text-anchor="middle" x="1468.01" y="-511.5" font-family="Arial.ttf" font-size="10.00">SLMaterial.h</text>
</a>
</g>
</g>
<!-- Node1&#45;&gt;Node2 -->
<g id="edge1" class="edge"><title>Node1&#45;&gt;Node2</title>
<path fill="none" stroke="midnightblue" d="M744.634,-620.955C856.808,-604.524 1279.08,-542.674 1421.09,-521.873"/>
<polygon fill="midnightblue" stroke="midnightblue" points="1421.83,-525.303 1431.21,-520.39 1420.81,-518.377 1421.83,-525.303"/>
</g>
<!-- Node38 -->
<g id="node38" class="node"><title>Node38</title>
<g id="a_node38"><a xlink:href="_s_l_mesh_8h.html" target="_top" xlink:title="SLMesh.h">
<polygon fill="white" stroke="black" points="416.015,-560.5 416.015,-579.5 478.015,-579.5 478.015,-560.5 416.015,-560.5"/>
<text text-anchor="middle" x="447.015" y="-567.5" font-family="Arial.ttf" font-size="10.00">SLMesh.h</text>
</a>
</g>
</g>
<!-- Node1&#45;&gt;Node38 -->
<g id="edge61" class="edge"><title>Node1&#45;&gt;Node38</title>
<path fill="none" stroke="midnightblue" d="M689.389,-619.475C641.688,-609.935 543.656,-590.328 487.991,-579.195"/>
<polygon fill="midnightblue" stroke="midnightblue" points="488.604,-575.749 478.112,-577.22 487.232,-582.613 488.604,-575.749"/>
</g>
<!-- Node3 -->
<g id="node3" class="node"><title>Node3</title>
<g id="a_node3"><a xlink:href="_s_l_draw_bits_8h.html" target="_top" xlink:title="SLDrawBits.h">
<polygon fill="white" stroke="black" points="1912.51,-168.5 1912.51,-187.5 1989.51,-187.5 1989.51,-168.5 1912.51,-168.5"/>
<text text-anchor="middle" x="1951.01" y="-175.5" font-family="Arial.ttf" font-size="10.00">SLDrawBits.h</text>
</a>
</g>
</g>
<!-- Node2&#45;&gt;Node3 -->
<g id="edge2" class="edge"><title>Node2&#45;&gt;Node3</title>
<path fill="none" stroke="midnightblue" d="M1504.78,-504.582C1612.86,-479.776 1922.01,-408.354 1922.01,-403 1922.01,-403 1922.01,-403 1922.01,-289 1922.01,-255.716 1934.58,-218.584 1943.17,-197.094"/>
<polygon fill="midnightblue" stroke="midnightblue" points="1946.5,-198.213 1947.1,-187.635 1940.03,-195.525 1946.5,-198.213"/>
</g>
<!-- Node8 -->
<g id="node8" class="node"><title>Node8</title>
<g id="a_node8"><a xlink:href="_s_l_g_l_generic_program_8h.html" target="_top" xlink:title="SLGLGenericProgram.h">
<polygon fill="white" stroke="black" points="1496.01,-448.5 1496.01,-467.5 1620.01,-467.5 1620.01,-448.5 1496.01,-448.5"/>
<text text-anchor="middle" x="1558.01" y="-455.5" font-family="Arial.ttf" font-size="10.00">SLGLGenericProgram.h</text>
</a>
</g>
</g>
<!-- Node2&#45;&gt;Node8 -->
<g id="edge7" class="edge"><title>Node2&#45;&gt;Node8</title>
<path fill="none" stroke="midnightblue" d="M1482.47,-504.324C1496.51,-495.9 1518.06,-482.971 1534.56,-473.074"/>
<polygon fill="midnightblue" stroke="midnightblue" points="1536.82,-475.801 1543.59,-467.655 1533.21,-469.798 1536.82,-475.801"/>
</g>
<!-- Node9 -->
<g id="node9" class="node"><title>Node9</title>
<g id="a_node9"><a xlink:href="_s_l_g_l_program_8h.html" target="_top" xlink:title="SLGLProgram.h">
<polygon fill="white" stroke="black" points="1468.51,-392.5 1468.51,-411.5 1557.51,-411.5 1557.51,-392.5 1468.51,-392.5"/>
<text text-anchor="middle" x="1513.01" y="-399.5" font-family="Arial.ttf" font-size="10.00">SLGLProgram.h</text>
</a>
</g>
</g>
<!-- Node2&#45;&gt;Node9 -->
<g id="edge18" class="edge"><title>Node2&#45;&gt;Node9</title>
<path fill="none" stroke="midnightblue" d="M1469.84,-504.36C1472.68,-491.688 1478.69,-467.458 1487.01,-448 1491.1,-438.46 1496.76,-428.41 1501.75,-420.234"/>
<polygon fill="midnightblue" stroke="midnightblue" points="1504.8,-421.962 1507.18,-411.639 1498.88,-418.224 1504.8,-421.962"/>
</g>
<!-- Node15 -->
<g id="node15" class="node"><title>Node15</title>
<g id="a_node15"><a xlink:href="_s_l_g_l_texture_8h.html" target="_top" xlink:title="SLGLTexture.h">
<polygon fill="white" stroke="black" points="775.015,-448.5 775.015,-467.5 859.015,-467.5 859.015,-448.5 775.015,-448.5"/>
<text text-anchor="middle" x="817.015" y="-455.5" font-family="Arial.ttf" font-size="10.00">SLGLTexture.h</text>
</a>
</g>
</g>
<!-- Node2&#45;&gt;Node15 -->
<g id="edge19" class="edge"><title>Node2&#45;&gt;Node15</title>
<path fill="none" stroke="midnightblue" d="M1431.15,-509.942C1321.53,-500.849 997.313,-473.956 869.583,-463.361"/>
<polygon fill="midnightblue" stroke="midnightblue" points="869.541,-459.845 859.286,-462.506 868.962,-466.821 869.541,-459.845"/>
</g>
<!-- Node4 -->
<g id="node4" class="node"><title>Node4</title>
<g id="a_node4"><a xlink:href="_s_l_8h.html" target="_top" xlink:title="SL.h">
<polygon fill="white" stroke="black" points="429.515,-112.5 429.515,-131.5 466.515,-131.5 466.515,-112.5 429.515,-112.5"/>
<text text-anchor="middle" x="448.015" y="-119.5" font-family="Arial.ttf" font-size="10.00">SL.h</text>
</a>
</g>
</g>
<!-- Node3&#45;&gt;Node4 -->
<g id="edge3" class="edge"><title>Node3&#45;&gt;Node4</title>
<path fill="none" stroke="midnightblue" d="M1912.31,-169.797C1907.51,-169.09 1902.66,-168.464 1898.01,-168 1607.75,-138.989 655.518,-125.635 476.997,-123.357"/>
<polygon fill="midnightblue" stroke="midnightblue" points="476.858,-119.855 466.814,-123.228 476.769,-126.854 476.858,-119.855"/>
</g>
<!-- Node5 -->
<g id="node5" class="node"><title>Node5</title>
<g id="a_node5"><a xlink:href="_utils_8h.html" target="_top" xlink:title="Utils.h">
<polygon fill="white" stroke="black" points="162.015,-56.5 162.015,-75.5 206.015,-75.5 206.015,-56.5 162.015,-56.5"/>
<text text-anchor="middle" x="184.015" y="-63.5" font-family="Arial.ttf" font-size="10.00">Utils.h</text>
</a>
</g>
</g>
<!-- Node4&#45;&gt;Node5 -->
<g id="edge4" class="edge"><title>Node4&#45;&gt;Node5</title>
<path fill="none" stroke="midnightblue" d="M429.451,-117.203C385.016,-108.114 272.094,-85.0162 216.267,-73.5971"/>
<polygon fill="midnightblue" stroke="midnightblue" points="216.717,-70.1167 206.219,-71.5417 215.314,-76.9747 216.717,-70.1167"/>
</g>
<!-- Node6 -->
<g id="node6" class="node"><title>Node6</title>
<polygon fill="white" stroke="#bfbfbf" points="163.515,-0.5 163.515,-19.5 204.515,-19.5 204.515,-0.5 163.515,-0.5"/>
<text text-anchor="middle" x="184.015" y="-7.5" font-family="Arial.ttf" font-size="10.00">string</text>
</g>
<!-- Node5&#45;&gt;Node6 -->
<g id="edge5" class="edge"><title>Node5&#45;&gt;Node6</title>
<path fill="none" stroke="midnightblue" d="M184.015,-56.083C184.015,-49.0059 184.015,-38.8611 184.015,-29.9865"/>
<polygon fill="midnightblue" stroke="midnightblue" points="187.515,-29.751 184.015,-19.7511 180.515,-29.7511 187.515,-29.751"/>
</g>
<!-- Node7 -->
<g id="node7" class="node"><title>Node7</title>
<polygon fill="white" stroke="#bfbfbf" points="1023.01,-0.5 1023.01,-19.5 1067.01,-19.5 1067.01,-0.5 1023.01,-0.5"/>
<text text-anchor="middle" x="1045.01" y="-7.5" font-family="Arial.ttf" font-size="10.00">vector</text>
</g>
<!-- Node5&#45;&gt;Node7 -->
<g id="edge6" class="edge"><title>Node5&#45;&gt;Node7</title>
<path fill="none" stroke="midnightblue" d="M206.163,-63.6109C323.655,-56.2421 873.868,-21.734 1012.99,-13.0084"/>
<polygon fill="midnightblue" stroke="midnightblue" points="1013.25,-16.4991 1023.01,-12.3799 1012.81,-9.51282 1013.25,-16.4991"/>
</g>
<!-- Node8&#45;&gt;Node9 -->
<g id="edge8" class="edge"><title>Node8&#45;&gt;Node9</title>
<path fill="none" stroke="midnightblue" d="M1550.58,-448.083C1544.16,-440.377 1534.71,-429.033 1526.89,-419.653"/>
<polygon fill="midnightblue" stroke="midnightblue" points="1529.4,-417.193 1520.31,-411.751 1524.02,-421.674 1529.4,-417.193"/>
</g>
<!-- Node13 -->
<g id="node13" class="node"><title>Node13</title>
<g id="a_node13"><a xlink:href="_s_l_object_8h.html" target="_top" xlink:title="SLObject.h">
<polygon fill="white" stroke="black" points="1778.01,-336.5 1778.01,-355.5 1844.01,-355.5 1844.01,-336.5 1778.01,-336.5"/>
<text text-anchor="middle" x="1811.01" y="-343.5" font-family="Arial.ttf" font-size="10.00">SLObject.h</text>
</a>
</g>
</g>
<!-- Node8&#45;&gt;Node13 -->
<g id="edge17" class="edge"><title>Node8&#45;&gt;Node13</title>
<path fill="none" stroke="midnightblue" d="M1577.87,-448.368C1622.3,-429.051 1729.92,-382.259 1781.92,-359.648"/>
<polygon fill="midnightblue" stroke="midnightblue" points="1783.48,-362.788 1791.25,-355.591 1780.69,-356.369 1783.48,-362.788"/>
</g>
<!-- Node10 -->
<g id="node10" class="node"><title>Node10</title>
<g id="a_node10"><a xlink:href="_s_l_g_l_uniform_8h.html" target="_top" xlink:title="SLGLUniform.h">
<polygon fill="white" stroke="black" points="943.515,-336.5 943.515,-355.5 1028.51,-355.5 1028.51,-336.5 943.515,-336.5"/>
<text text-anchor="middle" x="986.015" y="-343.5" font-family="Arial.ttf" font-size="10.00">SLGLUniform.h</text>
</a>
</g>
</g>
<!-- Node9&#45;&gt;Node10 -->
<g id="edge9" class="edge"><title>Node9&#45;&gt;Node10</title>
<path fill="none" stroke="midnightblue" d="M1468.08,-396.396C1371.1,-386.459 1142.56,-363.041 1038.85,-352.414"/>
<polygon fill="midnightblue" stroke="midnightblue" points="1038.92,-348.903 1028.62,-351.365 1038.21,-355.867 1038.92,-348.903"/>
</g>
<!-- Node9&#45;&gt;Node13 -->
<g id="edge14" class="edge"><title>Node9&#45;&gt;Node13</title>
<path fill="none" stroke="midnightblue" d="M1557.63,-392.916C1614.34,-382.64 1711.59,-365.017 1767.68,-354.853"/>
<polygon fill="midnightblue" stroke="midnightblue" points="1768.44,-358.272 1777.65,-353.045 1767.19,-351.384 1768.44,-358.272"/>
</g>
<!-- Node14 -->
<g id="node14" class="node"><title>Node14</title>
<polygon fill="white" stroke="#bfbfbf" points="1495.01,-336.5 1495.01,-355.5 1531.01,-355.5 1531.01,-336.5 1495.01,-336.5"/>
<text text-anchor="middle" x="1513.01" y="-343.5" font-family="Arial.ttf" font-size="10.00">map</text>
</g>
<!-- Node9&#45;&gt;Node14 -->
<g id="edge16" class="edge"><title>Node9&#45;&gt;Node14</title>
<path fill="none" stroke="midnightblue" d="M1513.01,-392.083C1513.01,-385.006 1513.01,-374.861 1513.01,-365.986"/>
<polygon fill="midnightblue" stroke="midnightblue" points="1516.51,-365.751 1513.01,-355.751 1509.51,-365.751 1516.51,-365.751"/>
</g>
<!-- Node10&#45;&gt;Node4 -->
<g id="edge10" class="edge"><title>Node10&#45;&gt;Node4</title>
<path fill="none" stroke="midnightblue" d="M983.683,-336.089C980.325,-323.492 973.783,-299.803 967.015,-280 946.716,-220.614 938.543,-193.085 881.015,-168 808.008,-136.166 561.724,-126.248 476.961,-123.737"/>
<polygon fill="midnightblue" stroke="midnightblue" points="476.869,-120.233 466.774,-123.448 476.67,-127.23 476.869,-120.233"/>
</g>
<!-- Node11 -->
<g id="node11" class="node"><title>Node11</title>
<g id="a_node11"><a xlink:href="_s_l_event_handler_8h.html" target="_top" xlink:title="SLEventHandler.h">
<polygon fill="white" stroke="black" points="860.015,-280.5 860.015,-299.5 958.015,-299.5 958.015,-280.5 860.015,-280.5"/>
<text text-anchor="middle" x="909.015" y="-287.5" font-family="Arial.ttf" font-size="10.00">SLEventHandler.h</text>
</a>
</g>
</g>
<!-- Node10&#45;&gt;Node11 -->
<g id="edge11" class="edge"><title>Node10&#45;&gt;Node11</title>
<path fill="none" stroke="midnightblue" d="M973.643,-336.324C961.856,-328.058 943.882,-315.453 929.879,-305.632"/>
<polygon fill="midnightblue" stroke="midnightblue" points="931.552,-302.531 921.355,-299.655 927.533,-308.262 931.552,-302.531"/>
</g>
<!-- Node11&#45;&gt;Node4 -->
<g id="edge12" class="edge"><title>Node11&#45;&gt;Node4</title>
<path fill="none" stroke="midnightblue" d="M915.997,-280.12C925.282,-267.15 939.382,-242.552 929.015,-224 905.849,-182.544 882.891,-183.535 838.015,-168 770.964,-144.789 555.006,-129.567 476.707,-124.693"/>
<polygon fill="midnightblue" stroke="midnightblue" points="476.798,-121.192 466.602,-124.074 476.37,-128.179 476.798,-121.192"/>
</g>
<!-- Node12 -->
<g id="node12" class="node"><title>Node12</title>
<g id="a_node12"><a xlink:href="_s_l_enums_8h.html" target="_top" xlink:title="SLEnums.h">
<polygon fill="white" stroke="black" points="852.015,-224.5 852.015,-243.5 920.015,-243.5 920.015,-224.5 852.015,-224.5"/>
<text text-anchor="middle" x="886.015" y="-231.5" font-family="Arial.ttf" font-size="10.00">SLEnums.h</text>
</a>
</g>
</g>
<!-- Node11&#45;&gt;Node12 -->
<g id="edge13" class="edge"><title>Node11&#45;&gt;Node12</title>
<path fill="none" stroke="midnightblue" d="M905.217,-280.083C902.102,-272.77 897.592,-262.181 893.725,-253.103"/>
<polygon fill="midnightblue" stroke="midnightblue" points="896.881,-251.58 889.742,-243.751 890.441,-254.323 896.881,-251.58"/>
</g>
<!-- Node13&#45;&gt;Node4 -->
<g id="edge15" class="edge"><title>Node13&#45;&gt;Node4</title>
<path fill="none" stroke="midnightblue" d="M1825.54,-336.455C1845.48,-323.696 1877.01,-299.12 1860.01,-280 1719.25,-121.601 1123.71,-190.652 913.015,-168 748.101,-150.27 549.931,-132.151 476.875,-125.578"/>
<polygon fill="midnightblue" stroke="midnightblue" points="476.907,-122.067 466.634,-124.659 476.281,-129.039 476.907,-122.067"/>
</g>
<!-- Node16 -->
<g id="node16" class="node"><title>Node16</title>
<g id="a_node16"><a xlink:href="_c_v_image_8h.html" target="_top" xlink:title="CVImage.h">
<polygon fill="white" stroke="black" points="1033.51,-392.5 1033.51,-411.5 1100.51,-411.5 1100.51,-392.5 1033.51,-392.5"/>
<text text-anchor="middle" x="1067.01" y="-399.5" font-family="Arial.ttf" font-size="10.00">CVImage.h</text>
</a>
</g>
</g>
<!-- Node15&#45;&gt;Node16 -->
<g id="edge20" class="edge"><title>Node15&#45;&gt;Node16</title>
<path fill="none" stroke="midnightblue" d="M856.628,-448.444C902.036,-438.635 976.239,-422.608 1023.3,-412.442"/>
<polygon fill="midnightblue" stroke="midnightblue" points="1024.16,-415.837 1033.2,-410.304 1022.69,-408.994 1024.16,-415.837"/>
</g>
<!-- Node24 -->
<g id="node24" class="node"><title>Node24</title>
<g id="a_node24"><a xlink:href="_s_l_g_l_vertex_array_8h.html" target="_top" xlink:title="SLGLVertexArray.h">
<polygon fill="white" stroke="black" points="183.515,-392.5 183.515,-411.5 286.515,-411.5 286.515,-392.5 183.515,-392.5"/>
<text text-anchor="middle" x="235.015" y="-399.5" font-family="Arial.ttf" font-size="10.00">SLGLVertexArray.h</text>
</a>
</g>
</g>
<!-- Node15&#45;&gt;Node24 -->
<g id="edge29" class="edge"><title>Node15&#45;&gt;Node24</title>
<path fill="none" stroke="midnightblue" d="M774.69,-453.073C673.149,-443.652 415.358,-419.733 296.616,-408.716"/>
<polygon fill="midnightblue" stroke="midnightblue" points="296.876,-405.225 286.595,-407.786 296.229,-412.195 296.876,-405.225"/>
</g>
<!-- Node30 -->
<g id="node30" class="node"><title>Node30</title>
<g id="a_node30"><a xlink:href="_s_l_mat4_8h.html" target="_top" xlink:title="SLMat4.h">
<polygon fill="white" stroke="black" points="399.515,-336.5 399.515,-355.5 458.515,-355.5 458.515,-336.5 399.515,-336.5"/>
<text text-anchor="middle" x="429.015" y="-343.5" font-family="Arial.ttf" font-size="10.00">SLMat4.h</text>
</a>
</g>
</g>
<!-- Node15&#45;&gt;Node30 -->
<g id="edge46" class="edge"><title>Node15&#45;&gt;Node30</title>
<path fill="none" stroke="midnightblue" d="M786.892,-448.46C717.454,-428.774 546.162,-380.212 468.468,-358.185"/>
<polygon fill="midnightblue" stroke="midnightblue" points="469.162,-354.744 458.586,-355.384 467.253,-361.479 469.162,-354.744"/>
</g>
<!-- Node37 -->
<g id="node37" class="node"><title>Node37</title>
<polygon fill="white" stroke="#bfbfbf" points="794.015,-392.5 794.015,-411.5 840.015,-411.5 840.015,-392.5 794.015,-392.5"/>
<text text-anchor="middle" x="817.015" y="-399.5" font-family="Arial.ttf" font-size="10.00">atomic</text>
</g>
<!-- Node15&#45;&gt;Node37 -->
<g id="edge60" class="edge"><title>Node15&#45;&gt;Node37</title>
<path fill="none" stroke="midnightblue" d="M817.015,-448.083C817.015,-441.006 817.015,-430.861 817.015,-421.986"/>
<polygon fill="midnightblue" stroke="midnightblue" points="820.515,-421.751 817.015,-411.751 813.515,-421.751 820.515,-421.751"/>
</g>
<!-- Node17 -->
<g id="node17" class="node"><title>Node17</title>
<g id="a_node17"><a xlink:href="_c_v_typedefs_8h.html" target="_top" xlink:title="CVTypedefs.h">
<polygon fill="white" stroke="black" points="1297.01,-336.5 1297.01,-355.5 1377.01,-355.5 1377.01,-336.5 1297.01,-336.5"/>
<text text-anchor="middle" x="1337.01" y="-343.5" font-family="Arial.ttf" font-size="10.00">CVTypedefs.h</text>
</a>
</g>
</g>
<!-- Node16&#45;&gt;Node17 -->
<g id="edge21" class="edge"><title>Node16&#45;&gt;Node17</title>
<path fill="none" stroke="midnightblue" d="M1100.66,-394.27C1147.41,-384.921 1232.37,-367.929 1286.68,-357.068"/>
<polygon fill="midnightblue" stroke="midnightblue" points="1287.66,-360.441 1296.78,-355.048 1286.28,-353.577 1287.66,-360.441"/>
</g>
<!-- Node17&#45;&gt;Node7 -->
<g id="edge22" class="edge"><title>Node17&#45;&gt;Node7</title>
<path fill="none" stroke="midnightblue" d="M1377.12,-342.544C1491.07,-335.405 1809.71,-314.257 1827.01,-300 1850.25,-280.865 1846.01,-265.098 1846.01,-235 1846.01,-235 1846.01,-235 1846.01,-121 1846.01,-42.0879 1227.96,-16.9338 1077.66,-11.9834"/>
<polygon fill="midnightblue" stroke="midnightblue" points="1077.38,-8.47262 1067.27,-11.6492 1077.16,-15.469 1077.38,-8.47262"/>
</g>
<!-- Node18 -->
<g id="node18" class="node"><title>Node18</title>
<polygon fill="white" stroke="#bfbfbf" points="1700.01,-280.5 1700.01,-299.5 1818.01,-299.5 1818.01,-280.5 1700.01,-280.5"/>
<text text-anchor="middle" x="1759.01" y="-287.5" font-family="Arial.ttf" font-size="10.00">opencv2/core/core.hpp</text>
</g>
<!-- Node17&#45;&gt;Node18 -->
<g id="edge23" class="edge"><title>Node17&#45;&gt;Node18</title>
<path fill="none" stroke="midnightblue" d="M1377.11,-339.972C1440.94,-331.951 1569.9,-315.687 1689.61,-300.178"/>
<polygon fill="midnightblue" stroke="midnightblue" points="1690.21,-303.628 1699.68,-298.872 1689.31,-296.687 1690.21,-303.628"/>
</g>
<!-- Node19 -->
<g id="node19" class="node"><title>Node19</title>
<polygon fill="white" stroke="#bfbfbf" points="1014.01,-280.5 1014.01,-299.5 1126.01,-299.5 1126.01,-280.5 1014.01,-280.5"/>
<text text-anchor="middle" x="1070.01" y="-287.5" font-family="Arial.ttf" font-size="10.00">opencv2/core/ocl.hpp</text>
</g>
<!-- Node17&#45;&gt;Node19 -->
<g id="edge24" class="edge"><title>Node17&#45;&gt;Node19</title>
<path fill="none" stroke="midnightblue" d="M1296.75,-336.857C1250.18,-327.438 1173.37,-311.903 1122.24,-301.562"/>
<polygon fill="midnightblue" stroke="midnightblue" points="1122.87,-298.118 1112.37,-299.567 1121.48,-304.98 1122.87,-298.118"/>
</g>
<!-- Node20 -->
<g id="node20" class="node"><title>Node20</title>
<polygon fill="white" stroke="#bfbfbf" points="1144.51,-280.5 1144.51,-299.5 1239.51,-299.5 1239.51,-280.5 1144.51,-280.5"/>
<text text-anchor="middle" x="1192.01" y="-287.5" font-family="Arial.ttf" font-size="10.00">opencv2/face.hpp</text>
</g>
<!-- Node17&#45;&gt;Node20 -->
<g id="edge25" class="edge"><title>Node17&#45;&gt;Node20</title>
<path fill="none" stroke="midnightblue" d="M1314.04,-336.444C1289.86,-327.438 1251.6,-313.189 1224.37,-303.049"/>
<polygon fill="midnightblue" stroke="midnightblue" points="1225.48,-299.727 1214.88,-299.516 1223.03,-306.286 1225.48,-299.727"/>
</g>
<!-- Node21 -->
<g id="node21" class="node"><title>Node21</title>
<polygon fill="white" stroke="#bfbfbf" points="1257.51,-280.5 1257.51,-299.5 1366.51,-299.5 1366.51,-280.5 1257.51,-280.5"/>
<text text-anchor="middle" x="1312.01" y="-287.5" font-family="Arial.ttf" font-size="10.00">opencv2/opencv.hpp</text>
</g>
<!-- Node17&#45;&gt;Node21 -->
<g id="edge26" class="edge"><title>Node17&#45;&gt;Node21</title>
<path fill="none" stroke="midnightblue" d="M1332.89,-336.083C1329.5,-328.77 1324.6,-318.181 1320.4,-309.103"/>
<polygon fill="midnightblue" stroke="midnightblue" points="1323.44,-307.355 1316.07,-299.751 1317.09,-310.296 1323.44,-307.355"/>
</g>
<!-- Node22 -->
<g id="node22" class="node"><title>Node22</title>
<polygon fill="white" stroke="#bfbfbf" points="1384.51,-280.5 1384.51,-299.5 1513.51,-299.5 1513.51,-280.5 1384.51,-280.5"/>
<text text-anchor="middle" x="1449.01" y="-287.5" font-family="Arial.ttf" font-size="10.00">opencv2/xfeatures2d.hpp</text>
</g>
<!-- Node17&#45;&gt;Node22 -->
<g id="edge27" class="edge"><title>Node17&#45;&gt;Node22</title>
<path fill="none" stroke="midnightblue" d="M1355.01,-336.324C1373.05,-327.625 1401.06,-314.12 1421.82,-304.113"/>
<polygon fill="midnightblue" stroke="midnightblue" points="1423.58,-307.15 1431.06,-299.655 1420.54,-300.845 1423.58,-307.15"/>
</g>
<!-- Node23 -->
<g id="node23" class="node"><title>Node23</title>
<polygon fill="white" stroke="#bfbfbf" points="1532.01,-280.5 1532.01,-299.5 1682.01,-299.5 1682.01,-280.5 1532.01,-280.5"/>
<text text-anchor="middle" x="1607.01" y="-287.5" font-family="Arial.ttf" font-size="10.00">opencv2/imgproc/imgproc.hpp</text>
</g>
<!-- Node17&#45;&gt;Node23 -->
<g id="edge28" class="edge"><title>Node17&#45;&gt;Node23</title>
<path fill="none" stroke="midnightblue" d="M1377.14,-336.974C1424.25,-327.554 1502.5,-311.903 1554.42,-301.519"/>
<polygon fill="midnightblue" stroke="midnightblue" points="1555.31,-304.909 1564.43,-299.516 1553.94,-298.045 1555.31,-304.909"/>
</g>
<!-- Node25 -->
<g id="node25" class="node"><title>Node25</title>
<g id="a_node25"><a xlink:href="_s_l_g_l_enums_8h.html" target="_top" xlink:title="SLGLEnums.h">
<polygon fill="white" stroke="black" points="145.015,-280.5 145.015,-299.5 227.015,-299.5 227.015,-280.5 145.015,-280.5"/>
<text text-anchor="middle" x="186.015" y="-287.5" font-family="Arial.ttf" font-size="10.00">SLGLEnums.h</text>
</a>
</g>
</g>
<!-- Node24&#45;&gt;Node25 -->
<g id="edge30" class="edge"><title>Node24&#45;&gt;Node25</title>
<path fill="none" stroke="midnightblue" d="M231.17,-392.368C223.191,-374.456 204.69,-332.923 194.01,-308.948"/>
<polygon fill="midnightblue" stroke="midnightblue" points="197.108,-307.302 189.842,-299.591 190.714,-310.15 197.108,-307.302"/>
</g>
<!-- Node26 -->
<g id="node26" class="node"><title>Node26</title>
<g id="a_node26"><a xlink:href="_s_l_g_l_vertex_buffer_8h.html" target="_top" xlink:title="SLGLVertexBuffer.h">
<polygon fill="white" stroke="black" points="64.0147,-336.5 64.0147,-355.5 170.015,-355.5 170.015,-336.5 64.0147,-336.5"/>
<text text-anchor="middle" x="117.015" y="-343.5" font-family="Arial.ttf" font-size="10.00">SLGLVertexBuffer.h</text>
</a>
</g>
</g>
<!-- Node24&#45;&gt;Node26 -->
<g id="edge32" class="edge"><title>Node24&#45;&gt;Node26</title>
<path fill="none" stroke="midnightblue" d="M216.317,-392.444C197.07,-383.636 166.862,-369.812 144.815,-359.722"/>
<polygon fill="midnightblue" stroke="midnightblue" points="146.174,-356.495 135.625,-355.516 143.261,-362.86 146.174,-356.495"/>
</g>
<!-- Node25&#45;&gt;Node4 -->
<g id="edge31" class="edge"><title>Node25&#45;&gt;Node4</title>
<path fill="none" stroke="midnightblue" d="M199.732,-280.309C242.442,-253.248 373.323,-170.324 425.854,-137.041"/>
<polygon fill="midnightblue" stroke="midnightblue" points="427.859,-139.914 434.433,-131.605 424.113,-134.001 427.859,-139.914"/>
</g>
<!-- Node26&#45;&gt;Node25 -->
<g id="edge33" class="edge"><title>Node26&#45;&gt;Node25</title>
<path fill="none" stroke="midnightblue" d="M128.101,-336.324C138.501,-328.185 154.275,-315.839 166.736,-306.087"/>
<polygon fill="midnightblue" stroke="midnightblue" points="169.009,-308.753 174.727,-299.834 164.695,-303.241 169.009,-308.753"/>
</g>
<!-- Node27 -->
<g id="node27" class="node"><title>Node27</title>
<g id="a_node27"><a xlink:href="_s_l_vec2_8h.html" target="_top" xlink:title="SLVec2.h">
<polygon fill="white" stroke="black" points="96.0147,-168.5 96.0147,-187.5 156.015,-187.5 156.015,-168.5 96.0147,-168.5"/>
<text text-anchor="middle" x="126.015" y="-175.5" font-family="Arial.ttf" font-size="10.00">SLVec2.h</text>
</a>
</g>
</g>
<!-- Node26&#45;&gt;Node27 -->
<g id="edge34" class="edge"><title>Node26&#45;&gt;Node27</title>
<path fill="none" stroke="midnightblue" d="M79.0918,-336.481C46.8038,-327.074 7.48108,-309.255 20.0147,-280 36.7597,-240.916 76.8799,-209.785 102.678,-192.902"/>
<polygon fill="midnightblue" stroke="midnightblue" points="104.572,-195.845 111.144,-187.534 100.824,-189.933 104.572,-195.845"/>
</g>
<!-- Node28 -->
<g id="node28" class="node"><title>Node28</title>
<g id="a_node28"><a xlink:href="_s_l_vec3_8h.html" target="_top" xlink:title="SLVec3.h">
<polygon fill="white" stroke="black" points="163.015,-224.5 163.015,-243.5 223.015,-243.5 223.015,-224.5 163.015,-224.5"/>
<text text-anchor="middle" x="193.015" y="-231.5" font-family="Arial.ttf" font-size="10.00">SLVec3.h</text>
</a>
</g>
</g>
<!-- Node26&#45;&gt;Node28 -->
<g id="edge37" class="edge"><title>Node26&#45;&gt;Node28</title>
<path fill="none" stroke="midnightblue" d="M117.86,-336.293C119.494,-323.108 124.049,-297.739 136.015,-280 144.415,-267.546 157.344,-256.937 168.765,-249.153"/>
<polygon fill="midnightblue" stroke="midnightblue" points="170.975,-251.893 177.487,-243.535 167.185,-246.008 170.975,-251.893"/>
</g>
<!-- Node29 -->
<g id="node29" class="node"><title>Node29</title>
<g id="a_node29"><a xlink:href="_s_l_vec4_8h.html" target="_top" xlink:title="SLVec4.h">
<polygon fill="white" stroke="black" points="29.0147,-280.5 29.0147,-299.5 89.0147,-299.5 89.0147,-280.5 29.0147,-280.5"/>
<text text-anchor="middle" x="59.0147" y="-287.5" font-family="Arial.ttf" font-size="10.00">SLVec4.h</text>
</a>
</g>
</g>
<!-- Node26&#45;&gt;Node29 -->
<g id="edge41" class="edge"><title>Node26&#45;&gt;Node29</title>
<path fill="none" stroke="midnightblue" d="M107.696,-336.324C99.1221,-328.341 86.2025,-316.313 75.8271,-306.653"/>
<polygon fill="midnightblue" stroke="midnightblue" points="78.2069,-304.086 68.503,-299.834 73.437,-309.21 78.2069,-304.086"/>
</g>
<!-- Node27&#45;&gt;Node4 -->
<g id="edge35" class="edge"><title>Node27&#45;&gt;Node4</title>
<path fill="none" stroke="midnightblue" d="M156.019,-171.968C217.877,-161.594 358.857,-137.952 419.459,-127.789"/>
<polygon fill="midnightblue" stroke="midnightblue" points="420.187,-131.216 429.471,-126.11 419.03,-124.312 420.187,-131.216"/>
</g>
<!-- Node27&#45;&gt;Node5 -->
<g id="edge36" class="edge"><title>Node27&#45;&gt;Node5</title>
<path fill="none" stroke="midnightblue" d="M130.566,-168.368C140.053,-150.376 162.106,-108.55 174.721,-84.6267"/>
<polygon fill="midnightblue" stroke="midnightblue" points="177.917,-86.0696 179.485,-75.5914 171.725,-82.8047 177.917,-86.0696"/>
</g>
<!-- Node28&#45;&gt;Node4 -->
<g id="edge38" class="edge"><title>Node28&#45;&gt;Node4</title>
<path fill="none" stroke="midnightblue" d="M208.604,-224.353C232.56,-211.247 280.063,-185.979 322.015,-168 354.999,-153.864 394.061,-140.401 419.852,-131.947"/>
<polygon fill="midnightblue" stroke="midnightblue" points="420.945,-135.272 429.376,-128.855 418.784,-128.614 420.945,-135.272"/>
</g>
<!-- Node28&#45;&gt;Node5 -->
<g id="edge40" class="edge"><title>Node28&#45;&gt;Node5</title>
<path fill="none" stroke="midnightblue" d="M192.531,-224.075C191.114,-197.945 186.954,-121.211 185.022,-85.577"/>
<polygon fill="midnightblue" stroke="midnightblue" points="188.516,-85.3639 184.479,-75.5681 181.526,-85.743 188.516,-85.3639"/>
</g>
<!-- Node28&#45;&gt;Node27 -->
<g id="edge39" class="edge"><title>Node28&#45;&gt;Node27</title>
<path fill="none" stroke="midnightblue" d="M182.25,-224.324C172.249,-216.263 157.128,-204.077 145.084,-194.369"/>
<polygon fill="midnightblue" stroke="midnightblue" points="146.958,-191.384 136.975,-187.834 142.565,-196.834 146.958,-191.384"/>
</g>
<!-- Node29&#45;&gt;Node4 -->
<g id="edge42" class="edge"><title>Node29&#45;&gt;Node4</title>
<path fill="none" stroke="midnightblue" d="M70.3126,-280.351C87.7171,-267.242 122.393,-241.97 154.015,-224 205.535,-194.723 219.228,-187.983 275.015,-168 324.792,-150.169 384.939,-136.141 419.606,-128.751"/>
<polygon fill="midnightblue" stroke="midnightblue" points="420.438,-132.153 429.507,-126.674 419.001,-125.302 420.438,-132.153"/>
</g>
<!-- Node29&#45;&gt;Node5 -->
<g id="edge45" class="edge"><title>Node29&#45;&gt;Node5</title>
<path fill="none" stroke="midnightblue" d="M59.4582,-280.232C60.8317,-259.495 66.2747,-206.3 87.0147,-168 106.433,-132.141 142.047,-99.9128 164.298,-81.952"/>
<polygon fill="midnightblue" stroke="midnightblue" points="166.696,-84.5179 172.383,-75.5785 162.363,-79.0206 166.696,-84.5179"/>
</g>
<!-- Node29&#45;&gt;Node27 -->
<g id="edge43" class="edge"><title>Node29&#45;&gt;Node27</title>
<path fill="none" stroke="midnightblue" d="M64.2721,-280.368C75.2801,-262.296 100.935,-220.176 115.473,-196.307"/>
<polygon fill="midnightblue" stroke="midnightblue" points="118.569,-197.953 120.782,-187.591 112.591,-194.311 118.569,-197.953"/>
</g>
<!-- Node29&#45;&gt;Node28 -->
<g id="edge44" class="edge"><title>Node29&#45;&gt;Node28</title>
<path fill="none" stroke="midnightblue" d="M80.2474,-280.444C102.398,-271.517 137.333,-257.439 162.451,-247.317"/>
<polygon fill="midnightblue" stroke="midnightblue" points="163.914,-250.501 171.881,-243.516 161.298,-244.008 163.914,-250.501"/>
</g>
<!-- Node30&#45;&gt;Node4 -->
<g id="edge47" class="edge"><title>Node30&#45;&gt;Node4</title>
<path fill="none" stroke="midnightblue" d="M458.562,-343.756C544.457,-339.838 789.508,-326.422 813.015,-300 914.975,-185.393 579.203,-137.676 476.762,-125.99"/>
<polygon fill="midnightblue" stroke="midnightblue" points="476.851,-122.478 466.526,-124.855 476.079,-129.436 476.851,-122.478"/>
</g>
<!-- Node30&#45;&gt;Node5 -->
<g id="edge49" class="edge"><title>Node30&#45;&gt;Node5</title>
<path fill="none" stroke="midnightblue" d="M399.492,-343.625C310.474,-339.225 49.021,-324.333 20.0147,-300 -3.04412,-280.657 1.01471,-265.098 1.01471,-235 1.01471,-235 1.01471,-235 1.01471,-177 1.01471,-107.468 99.2644,-80.774 151.784,-71.4721"/>
<polygon fill="midnightblue" stroke="midnightblue" points="152.647,-74.8768 161.941,-69.7889 151.503,-67.971 152.647,-74.8768"/>
</g>
<!-- Node30&#45;&gt;Node28 -->
<g id="edge55" class="edge"><title>Node30&#45;&gt;Node28</title>
<path fill="none" stroke="midnightblue" d="M399.44,-340.011C367.251,-333.779 314.913,-321.261 274.015,-300 249.178,-287.089 224.676,-265.932 209.236,-251.279"/>
<polygon fill="midnightblue" stroke="midnightblue" points="211.257,-248.362 201.647,-243.901 206.378,-253.381 211.257,-248.362"/>
</g>
<!-- Node30&#45;&gt;Node29 -->
<g id="edge56" class="edge"><title>Node30&#45;&gt;Node29</title>
<path fill="none" stroke="midnightblue" d="M399.362,-340.672C333.276,-331.027 173.856,-307.761 99.0436,-296.842"/>
<polygon fill="midnightblue" stroke="midnightblue" points="99.468,-293.367 89.0673,-295.386 98.457,-300.294 99.468,-293.367"/>
</g>
<!-- Node31 -->
<g id="node31" class="node"><title>Node31</title>
<polygon fill="white" stroke="#bfbfbf" points="764.015,-280.5 764.015,-299.5 804.015,-299.5 804.015,-280.5 764.015,-280.5"/>
<text text-anchor="middle" x="784.015" y="-287.5" font-family="Arial.ttf" font-size="10.00">stack</text>
</g>
<!-- Node30&#45;&gt;Node31 -->
<g id="edge48" class="edge"><title>Node30&#45;&gt;Node31</title>
<path fill="none" stroke="midnightblue" d="M458.859,-342.418C516.424,-337.096 646.598,-323.403 754.015,-300 754.114,-299.978 754.214,-299.956 754.314,-299.934"/>
<polygon fill="midnightblue" stroke="midnightblue" points="754.961,-303.381 763.792,-297.527 753.238,-296.597 754.961,-303.381"/>
</g>
<!-- Node32 -->
<g id="node32" class="node"><title>Node32</title>
<g id="a_node32"><a xlink:href="_s_l_mat3_8h.html" target="_top" xlink:title="SLMat3.h">
<polygon fill="white" stroke="black" points="283.515,-280.5 283.515,-299.5 342.515,-299.5 342.515,-280.5 283.515,-280.5"/>
<text text-anchor="middle" x="313.015" y="-287.5" font-family="Arial.ttf" font-size="10.00">SLMat3.h</text>
</a>
</g>
</g>
<!-- Node30&#45;&gt;Node32 -->
<g id="edge50" class="edge"><title>Node30&#45;&gt;Node32</title>
<path fill="none" stroke="midnightblue" d="M410.634,-336.444C391.798,-327.675 362.283,-313.935 340.635,-303.858"/>
<polygon fill="midnightblue" stroke="midnightblue" points="341.852,-300.564 331.309,-299.516 338.898,-306.91 341.852,-300.564"/>
</g>
<!-- Node34 -->
<g id="node34" class="node"><title>Node34</title>
<polygon fill="white" stroke="#bfbfbf" points="399.015,-280.5 399.015,-299.5 451.015,-299.5 451.015,-280.5 399.015,-280.5"/>
<text text-anchor="middle" x="425.015" y="-287.5" font-family="Arial.ttf" font-size="10.00">assert.h</text>
</g>
<!-- Node30&#45;&gt;Node34 -->
<g id="edge57" class="edge"><title>Node30&#45;&gt;Node34</title>
<path fill="none" stroke="midnightblue" d="M428.354,-336.083C427.83,-329.006 427.078,-318.861 426.421,-309.986"/>
<polygon fill="midnightblue" stroke="midnightblue" points="429.892,-309.465 425.663,-299.751 422.911,-309.982 429.892,-309.465"/>
</g>
<!-- Node35 -->
<g id="node35" class="node"><title>Node35</title>
<polygon fill="white" stroke="#bfbfbf" points="469.515,-280.5 469.515,-299.5 598.515,-299.5 598.515,-280.5 469.515,-280.5"/>
<text text-anchor="middle" x="534.015" y="-287.5" font-family="Arial.ttf" font-size="10.00">Shoemake/Decompose.h</text>
</g>
<!-- Node30&#45;&gt;Node35 -->
<g id="edge58" class="edge"><title>Node30&#45;&gt;Node35</title>
<path fill="none" stroke="midnightblue" d="M445.885,-336.324C462.723,-327.664 488.821,-314.242 508.253,-304.249"/>
<polygon fill="midnightblue" stroke="midnightblue" points="509.894,-307.341 517.187,-299.655 506.693,-301.116 509.894,-307.341"/>
</g>
<!-- Node36 -->
<g id="node36" class="node"><title>Node36</title>
<polygon fill="white" stroke="#bfbfbf" points="616.515,-280.5 616.515,-299.5 745.515,-299.5 745.515,-280.5 616.515,-280.5"/>
<text text-anchor="middle" x="681.015" y="-287.5" font-family="Arial.ttf" font-size="10.00">Shoemake/EulerAngles.h</text>
</g>
<!-- Node30&#45;&gt;Node36 -->
<g id="edge59" class="edge"><title>Node30&#45;&gt;Node36</title>
<path fill="none" stroke="midnightblue" d="M458.912,-338.593C501.447,-329.479 579.956,-312.655 631.322,-301.648"/>
<polygon fill="midnightblue" stroke="midnightblue" points="632.17,-305.046 641.215,-299.529 630.704,-298.202 632.17,-305.046"/>
</g>
<!-- Node32&#45;&gt;Node4 -->
<g id="edge51" class="edge"><title>Node32&#45;&gt;Node4</title>
<path fill="none" stroke="midnightblue" d="M342.609,-281.035C372.865,-272.287 416.949,-257.661 428.015,-244 451.83,-214.599 452.219,-167.712 450.23,-141.782"/>
<polygon fill="midnightblue" stroke="midnightblue" points="453.708,-141.386 449.258,-131.771 446.741,-142.063 453.708,-141.386"/>
</g>
<!-- Node32&#45;&gt;Node5 -->
<g id="edge52" class="edge"><title>Node32&#45;&gt;Node5</title>
<path fill="none" stroke="midnightblue" d="M307.958,-280.297C288.816,-247.356 220.564,-129.898 194.361,-84.8052"/>
<polygon fill="midnightblue" stroke="midnightblue" points="197.227,-82.7715 189.177,-75.8837 191.175,-86.2885 197.227,-82.7715"/>
</g>
<!-- Node32&#45;&gt;Node28 -->
<g id="edge53" class="edge"><title>Node32&#45;&gt;Node28</title>
<path fill="none" stroke="midnightblue" d="M294,-280.444C274.427,-271.636 243.707,-257.812 221.286,-247.722"/>
<polygon fill="midnightblue" stroke="midnightblue" points="222.496,-244.428 211.94,-243.516 219.623,-250.812 222.496,-244.428"/>
</g>
<!-- Node33 -->
<g id="node33" class="node"><title>Node33</title>
<polygon fill="white" stroke="#bfbfbf" points="364.515,-224.5 364.515,-243.5 419.515,-243.5 419.515,-224.5 364.515,-224.5"/>
<text text-anchor="middle" x="392.015" y="-231.5" font-family="Arial.ttf" font-size="10.00">iostream</text>
</g>
<!-- Node32&#45;&gt;Node33 -->
<g id="edge54" class="edge"><title>Node32&#45;&gt;Node33</title>
<path fill="none" stroke="midnightblue" d="M325.707,-280.324C337.916,-271.979 356.593,-259.212 371.018,-249.352"/>
<polygon fill="midnightblue" stroke="midnightblue" points="373.073,-252.187 379.353,-243.655 369.123,-246.408 373.073,-252.187"/>
</g>
<!-- Node38&#45;&gt;Node12 -->
<g id="edge66" class="edge"><title>Node38&#45;&gt;Node12</title>
<path fill="none" stroke="midnightblue" d="M444.556,-560.349C433.984,-523.08 392.797,-377.159 390.015,-356 385.611,-322.51 367.235,-304.94 390.015,-280 420.161,-246.994 725.256,-237.948 841.427,-235.69"/>
<polygon fill="midnightblue" stroke="midnightblue" points="841.807,-239.184 851.74,-235.498 841.677,-232.185 841.807,-239.184"/>
</g>
<!-- Node38&#45;&gt;Node13 -->
<g id="edge68" class="edge"><title>Node38&#45;&gt;Node13</title>
<path fill="none" stroke="midnightblue" d="M478.263,-568.436C643.369,-565.353 1410.5,-549.738 1513.01,-524 1631.75,-494.191 1749.96,-399.982 1793.5,-362.551"/>
<polygon fill="midnightblue" stroke="midnightblue" points="1795.95,-365.064 1801.19,-355.858 1791.35,-359.783 1795.95,-365.064"/>
</g>
<!-- Node38&#45;&gt;Node24 -->
<g id="edge67" class="edge"><title>Node38&#45;&gt;Node24</title>
<path fill="none" stroke="midnightblue" d="M415.931,-561.952C372.299,-550.332 293.787,-522.778 254.015,-468 244.193,-454.473 239.42,-435.92 237.118,-422.098"/>
<polygon fill="midnightblue" stroke="midnightblue" points="240.534,-421.245 235.708,-411.813 233.599,-422.196 240.534,-421.245"/>
</g>
<!-- Node39 -->
<g id="node39" class="node"><title>Node39</title>
<g id="a_node39"><a xlink:href="_s_l_a_a_b_box_8h.html" target="_top" xlink:title="SLAABBox.h">
<polygon fill="white" stroke="black" points="345.015,-504.5 345.015,-523.5 419.015,-523.5 419.015,-504.5 345.015,-504.5"/>
<text text-anchor="middle" x="382.015" y="-511.5" font-family="Arial.ttf" font-size="10.00">SLAABBox.h</text>
</a>
</g>
</g>
<!-- Node38&#45;&gt;Node39 -->
<g id="edge62" class="edge"><title>Node38&#45;&gt;Node39</title>
<path fill="none" stroke="midnightblue" d="M436.571,-560.324C426.868,-552.263 412.199,-540.077 400.515,-530.369"/>
<polygon fill="midnightblue" stroke="midnightblue" points="402.577,-527.532 392.648,-523.834 398.103,-532.916 402.577,-527.532"/>
</g>
<!-- Node39&#45;&gt;Node30 -->
<g id="edge65" class="edge"><title>Node39&#45;&gt;Node30</title>
<path fill="none" stroke="midnightblue" d="M384.542,-504.075C391.94,-477.945 413.666,-401.211 423.755,-365.577"/>
<polygon fill="midnightblue" stroke="midnightblue" points="427.232,-366.143 426.589,-355.568 420.497,-364.236 427.232,-366.143"/>
</g>
<!-- Node40 -->
<g id="node40" class="node"><title>Node40</title>
<g id="a_node40"><a xlink:href="_s_l_g_l_vertex_array_ext_8h.html" target="_top" xlink:title="SLGLVertexArrayExt.h">
<polygon fill="white" stroke="black" points="263.015,-448.5 263.015,-467.5 381.015,-467.5 381.015,-448.5 263.015,-448.5"/>
<text text-anchor="middle" x="322.015" y="-455.5" font-family="Arial.ttf" font-size="10.00">SLGLVertexArrayExt.h</text>
</a>
</g>
</g>
<!-- Node39&#45;&gt;Node40 -->
<g id="edge63" class="edge"><title>Node39&#45;&gt;Node40</title>
<path fill="none" stroke="midnightblue" d="M372.375,-504.324C363.505,-496.341 350.14,-484.313 339.407,-474.653"/>
<polygon fill="midnightblue" stroke="midnightblue" points="341.605,-471.922 331.83,-467.834 336.922,-477.125 341.605,-471.922"/>
</g>
<!-- Node40&#45;&gt;Node24 -->
<g id="edge64" class="edge"><title>Node40&#45;&gt;Node24</title>
<path fill="none" stroke="midnightblue" d="M308.037,-448.324C294.465,-439.9 273.635,-426.971 257.69,-417.074"/>
<polygon fill="midnightblue" stroke="midnightblue" points="259.3,-413.954 248.958,-411.655 255.609,-419.902 259.3,-413.954"/>
</g>
</g>
</svg>
