<?xml version="1.0" encoding="UTF-8" standalone="no"?>
<!DOCTYPE svg PUBLIC "-//W3C//DTD SVG 1.1//EN"
 "http://www.w3.org/Graphics/SVG/1.1/DTD/svg11.dtd">
<!-- Generated by graphviz version 2.44.0 (20200408.0750)
 -->
<!-- Title: SLAnimation.cpp Pages: 1 -->
<svg width="3443pt" height="420pt"
 viewBox="0.00 0.00 3443.21 420.00" xmlns="http://www.w3.org/2000/svg" xmlns:xlink="http://www.w3.org/1999/xlink">
<g id="graph0" class="graph" transform="scale(1 1) rotate(0) translate(4 416)">
<title>SLAnimation.cpp</title>
<polygon fill="white" stroke="transparent" points="-4,4 -4,-416 3439.21,-416 3439.21,4 -4,4"/>
<!-- Node1 -->
<g id="node1" class="node">
<title>Node1</title>
<g id="a_node1"><a xlink:title=" ">
<polygon fill="#bfbfbf" stroke="black" points="399.5,-392.5 399.5,-411.5 490.5,-411.5 490.5,-392.5 399.5,-392.5"/>
<text text-anchor="middle" x="445" y="-399.5" font-family="Arial.ttf" font-size="10.00">SLAnimation.cpp</text>
</a>
</g>
</g>
<!-- Node2 -->
<g id="node2" class="node">
<title>Node2</title>
<g id="a_node2"><a xlink:href="stdafx_8h.html" target="_top" xlink:title=" ">
<polygon fill="white" stroke="black" points="1644,-336.5 1644,-355.5 1696,-355.5 1696,-336.5 1644,-336.5"/>
<text text-anchor="middle" x="1670" y="-343.5" font-family="Arial.ttf" font-size="10.00">stdafx.h</text>
</a>
</g>
</g>
<!-- Node1&#45;&gt;Node2 -->
<g id="edge1" class="edge">
<title>Node1&#45;&gt;Node2</title>
<path fill="none" stroke="midnightblue" d="M490.79,-398.98C687.33,-390.32 1457.55,-356.37 1633.9,-348.59"/>
<polygon fill="midnightblue" stroke="midnightblue" points="1634.11,-352.09 1643.95,-348.15 1633.8,-345.09 1634.11,-352.09"/>
</g>
<!-- Node51 -->
<g id="node44" class="node">
<title>Node51</title>
<g id="a_node44"><a xlink:href="_s_l_curve_bezier_8h.html" target="_top" xlink:title=" ">
<polygon fill="white" stroke="black" points="189,-336.5 189,-355.5 279,-355.5 279,-336.5 189,-336.5"/>
<text text-anchor="middle" x="234" y="-343.5" font-family="Arial.ttf" font-size="10.00">SLCurveBezier.h</text>
</a>
</g>
</g>
<!-- Node1&#45;&gt;Node51 -->
<g id="edge60" class="edge">
<title>Node1&#45;&gt;Node51</title>
<path fill="none" stroke="midnightblue" d="M411.57,-392.44C375.14,-383.12 316.77,-368.18 276.97,-358"/>
<polygon fill="midnightblue" stroke="midnightblue" points="277.83,-354.61 267.28,-355.52 276.1,-361.39 277.83,-354.61"/>
</g>
<!-- Node58 -->
<g id="node47" class="node">
<title>Node58</title>
<g id="a_node47"><a xlink:href="_s_l_scene_8h.html" target="_top" xlink:title=" ">
<polygon fill="white" stroke="red" points="412.5,-336.5 412.5,-355.5 477.5,-355.5 477.5,-336.5 412.5,-336.5"/>
<text text-anchor="middle" x="445" y="-343.5" font-family="Arial.ttf" font-size="10.00">SLScene.h</text>
</a>
</g>
</g>
<!-- Node1&#45;&gt;Node58 -->
<g id="edge68" class="edge">
<title>Node1&#45;&gt;Node58</title>
<path fill="none" stroke="midnightblue" d="M445,-392.08C445,-385.01 445,-374.86 445,-365.99"/>
<polygon fill="midnightblue" stroke="midnightblue" points="448.5,-365.75 445,-355.75 441.5,-365.75 448.5,-365.75"/>
</g>
<!-- Node3 -->
<g id="node3" class="node">
<title>Node3</title>
<g id="a_node3"><a xlink:title=" ">
<polygon fill="white" stroke="#bfbfbf" points="2881,-280.5 2881,-299.5 2937,-299.5 2937,-280.5 2881,-280.5"/>
<text text-anchor="middle" x="2909" y="-287.5" font-family="Arial.ttf" font-size="10.00">algorithm</text>
</a>
</g>
</g>
<!-- Node2&#45;&gt;Node3 -->
<g id="edge2" class="edge">
<title>Node2&#45;&gt;Node3</title>
<path fill="none" stroke="midnightblue" d="M1696.31,-344.74C1848.02,-343.1 2613.06,-333.37 2870.78,-299.83"/>
<polygon fill="midnightblue" stroke="midnightblue" points="2871.39,-303.28 2880.83,-298.47 2870.45,-296.34 2871.39,-303.28"/>
</g>
<!-- Node4 -->
<g id="node4" class="node">
<title>Node4</title>
<g id="a_node4"><a xlink:title=" ">
<polygon fill="white" stroke="#bfbfbf" points="2955,-280.5 2955,-299.5 3001,-299.5 3001,-280.5 2955,-280.5"/>
<text text-anchor="middle" x="2978" y="-287.5" font-family="Arial.ttf" font-size="10.00">atomic</text>
</a>
</g>
</g>
<!-- Node2&#45;&gt;Node4 -->
<g id="edge3" class="edge">
<title>Node2&#45;&gt;Node4</title>
<path fill="none" stroke="midnightblue" d="M1696.11,-344.93C1852.91,-344.37 2671.46,-339.64 2944.47,-299.79"/>
<polygon fill="midnightblue" stroke="midnightblue" points="2945.36,-303.2 2954.72,-298.24 2944.31,-296.28 2945.36,-303.2"/>
</g>
<!-- Node5 -->
<g id="node5" class="node">
<title>Node5</title>
<g id="a_node5"><a xlink:title=" ">
<polygon fill="white" stroke="#bfbfbf" points="3019,-280.5 3019,-299.5 3065,-299.5 3065,-280.5 3019,-280.5"/>
<text text-anchor="middle" x="3042" y="-287.5" font-family="Arial.ttf" font-size="10.00">chrono</text>
</a>
</g>
</g>
<!-- Node2&#45;&gt;Node5 -->
<g id="edge4" class="edge">
<title>Node2&#45;&gt;Node5</title>
<path fill="none" stroke="midnightblue" d="M1696.09,-344.98C1857.53,-344.72 2722.56,-341.46 3008.79,-299.75"/>
<polygon fill="midnightblue" stroke="midnightblue" points="3009.36,-303.2 3018.72,-298.25 3008.31,-296.28 3009.36,-303.2"/>
</g>
<!-- Node6 -->
<g id="node6" class="node">
<title>Node6</title>
<g id="a_node6"><a xlink:title=" ">
<polygon fill="white" stroke="#bfbfbf" points="3083.5,-280.5 3083.5,-299.5 3132.5,-299.5 3132.5,-280.5 3083.5,-280.5"/>
<text text-anchor="middle" x="3108" y="-287.5" font-family="Arial.ttf" font-size="10.00">cstdarg</text>
</a>
</g>
</g>
<!-- Node2&#45;&gt;Node6 -->
<g id="edge5" class="edge">
<title>Node2&#45;&gt;Node6</title>
<path fill="none" stroke="midnightblue" d="M1696.23,-344.97C1862.55,-344.66 2772.72,-341.16 3073.25,-299.67"/>
<polygon fill="midnightblue" stroke="midnightblue" points="3073.85,-303.12 3083.25,-298.24 3072.86,-296.19 3073.85,-303.12"/>
</g>
<!-- Node7 -->
<g id="node7" class="node">
<title>Node7</title>
<g id="a_node7"><a xlink:title=" ">
<polygon fill="white" stroke="#bfbfbf" points="3150.5,-280.5 3150.5,-299.5 3191.5,-299.5 3191.5,-280.5 3150.5,-280.5"/>
<text text-anchor="middle" x="3171" y="-287.5" font-family="Arial.ttf" font-size="10.00">ctime</text>
</a>
</g>
</g>
<!-- Node2&#45;&gt;Node7 -->
<g id="edge6" class="edge">
<title>Node2&#45;&gt;Node7</title>
<path fill="none" stroke="midnightblue" d="M1696.12,-345.16C1866.92,-346.09 2827.12,-349.1 3140.28,-299.8"/>
<polygon fill="midnightblue" stroke="midnightblue" points="3140.95,-303.24 3150.25,-298.18 3139.82,-296.33 3140.95,-303.24"/>
</g>
<!-- Node8 -->
<g id="node8" class="node">
<title>Node8</title>
<g id="a_node8"><a xlink:title=" ">
<polygon fill="white" stroke="#bfbfbf" points="3210,-280.5 3210,-299.5 3260,-299.5 3260,-280.5 3210,-280.5"/>
<text text-anchor="middle" x="3235" y="-287.5" font-family="Arial.ttf" font-size="10.00">fstream</text>
</a>
</g>
</g>
<!-- Node2&#45;&gt;Node8 -->
<g id="edge7" class="edge">
<title>Node2&#45;&gt;Node8</title>
<path fill="none" stroke="midnightblue" d="M1696.28,-345.05C1871.47,-345.27 2872.92,-344.59 3199.94,-299.74"/>
<polygon fill="midnightblue" stroke="midnightblue" points="3200.47,-303.2 3209.88,-298.34 3199.49,-296.27 3200.47,-303.2"/>
</g>
<!-- Node9 -->
<g id="node9" class="node">
<title>Node9</title>
<g id="a_node9"><a xlink:title=" ">
<polygon fill="white" stroke="#bfbfbf" points="3278.5,-280.5 3278.5,-299.5 3337.5,-299.5 3337.5,-280.5 3278.5,-280.5"/>
<text text-anchor="middle" x="3308" y="-287.5" font-family="Arial.ttf" font-size="10.00">functional</text>
</a>
</g>
</g>
<!-- Node2&#45;&gt;Node9 -->
<g id="edge8" class="edge">
<title>Node2&#45;&gt;Node9</title>
<path fill="none" stroke="midnightblue" d="M1696.26,-344.98C1875.85,-344.7 2925.91,-341.37 3268.38,-299.74"/>
<polygon fill="midnightblue" stroke="midnightblue" points="3268.81,-303.21 3278.3,-298.49 3267.94,-296.26 3268.81,-303.21"/>
</g>
<!-- Node10 -->
<g id="node10" class="node">
<title>Node10</title>
<g id="a_node10"><a xlink:title=" ">
<polygon fill="white" stroke="#bfbfbf" points="3356,-280.5 3356,-299.5 3406,-299.5 3406,-280.5 3356,-280.5"/>
<text text-anchor="middle" x="3381" y="-287.5" font-family="Arial.ttf" font-size="10.00">iomanip</text>
</a>
</g>
</g>
<!-- Node2&#45;&gt;Node10 -->
<g id="edge9" class="edge">
<title>Node2&#45;&gt;Node10</title>
<path fill="none" stroke="midnightblue" d="M1696.05,-345.13C1880.11,-345.91 2987.43,-348.57 3345.76,-299.77"/>
<polygon fill="midnightblue" stroke="midnightblue" points="3346.47,-303.2 3355.88,-298.34 3345.49,-296.27 3346.47,-303.2"/>
</g>
<!-- Node11 -->
<g id="node11" class="node">
<title>Node11</title>
<g id="a_node11"><a xlink:title=" ">
<polygon fill="white" stroke="#bfbfbf" points="763,-112.5 763,-131.5 817,-131.5 817,-112.5 763,-112.5"/>
<text text-anchor="middle" x="790" y="-119.5" font-family="Arial.ttf" font-size="10.00">iostream</text>
</a>
</g>
</g>
<!-- Node2&#45;&gt;Node11 -->
<g id="edge10" class="edge">
<title>Node2&#45;&gt;Node11</title>
<path fill="none" stroke="midnightblue" d="M1643.67,-344.71C1522.68,-343.22 1023.5,-334.96 964,-300 903.84,-264.65 930.84,-214.71 879,-168 863.26,-153.82 842.24,-142.92 824.58,-135.39"/>
<polygon fill="midnightblue" stroke="midnightblue" points="825.75,-132.09 815.17,-131.57 823.11,-138.58 825.75,-132.09"/>
</g>
<!-- Node12 -->
<g id="node12" class="node">
<title>Node12</title>
<g id="a_node12"><a xlink:title=" ">
<polygon fill="white" stroke="#bfbfbf" points="1044.5,-280.5 1044.5,-299.5 1073.5,-299.5 1073.5,-280.5 1044.5,-280.5"/>
<text text-anchor="middle" x="1059" y="-287.5" font-family="Arial.ttf" font-size="10.00">list</text>
</a>
</g>
</g>
<!-- Node2&#45;&gt;Node12 -->
<g id="edge11" class="edge">
<title>Node2&#45;&gt;Node12</title>
<path fill="none" stroke="midnightblue" d="M1643.87,-345.6C1561.99,-346.92 1303.3,-347.01 1083.31,-299.35"/>
<polygon fill="midnightblue" stroke="midnightblue" points="1084.04,-295.93 1073.52,-297.19 1082.54,-302.76 1084.04,-295.93"/>
</g>
<!-- Node13 -->
<g id="node13" class="node">
<title>Node13</title>
<g id="a_node13"><a xlink:title=" ">
<polygon fill="white" stroke="#bfbfbf" points="604.5,-280.5 604.5,-299.5 639.5,-299.5 639.5,-280.5 604.5,-280.5"/>
<text text-anchor="middle" x="622" y="-287.5" font-family="Arial.ttf" font-size="10.00">map</text>
</a>
</g>
</g>
<!-- Node2&#45;&gt;Node13 -->
<g id="edge12" class="edge">
<title>Node2&#45;&gt;Node13</title>
<path fill="none" stroke="midnightblue" d="M1643.79,-344.65C1504.8,-342.7 852.95,-331.95 654,-300 652.54,-299.77 651.05,-299.49 649.55,-299.18"/>
<polygon fill="midnightblue" stroke="midnightblue" points="650.32,-295.76 639.78,-296.78 648.66,-302.56 650.32,-295.76"/>
</g>
<!-- Node14 -->
<g id="node14" class="node">
<title>Node14</title>
<g id="a_node14"><a xlink:title=" ">
<polygon fill="white" stroke="#bfbfbf" points="1091.5,-280.5 1091.5,-299.5 1134.5,-299.5 1134.5,-280.5 1091.5,-280.5"/>
<text text-anchor="middle" x="1113" y="-287.5" font-family="Arial.ttf" font-size="10.00">queue</text>
</a>
</g>
</g>
<!-- Node2&#45;&gt;Node14 -->
<g id="edge13" class="edge">
<title>Node2&#45;&gt;Node14</title>
<path fill="none" stroke="midnightblue" d="M1643.76,-344.58C1567.79,-342.98 1341.14,-335.5 1144.48,-299.68"/>
<polygon fill="midnightblue" stroke="midnightblue" points="1145.02,-296.22 1134.55,-297.85 1143.75,-303.11 1145.02,-296.22"/>
</g>
<!-- Node15 -->
<g id="node15" class="node">
<title>Node15</title>
<g id="a_node15"><a xlink:title=" ">
<polygon fill="white" stroke="#bfbfbf" points="1152.5,-280.5 1152.5,-299.5 1201.5,-299.5 1201.5,-280.5 1152.5,-280.5"/>
<text text-anchor="middle" x="1177" y="-287.5" font-family="Arial.ttf" font-size="10.00">random</text>
</a>
</g>
</g>
<!-- Node2&#45;&gt;Node15 -->
<g id="edge14" class="edge">
<title>Node2&#45;&gt;Node15</title>
<path fill="none" stroke="midnightblue" d="M1643.92,-343.92C1574.89,-340.73 1381.67,-329.81 1211.65,-299.82"/>
<polygon fill="midnightblue" stroke="midnightblue" points="1212.24,-296.37 1201.78,-298.05 1211.01,-303.26 1212.24,-296.37"/>
</g>
<!-- Node16 -->
<g id="node16" class="node">
<title>Node16</title>
<g id="a_node16"><a xlink:title=" ">
<polygon fill="white" stroke="#bfbfbf" points="1220,-280.5 1220,-299.5 1272,-299.5 1272,-280.5 1220,-280.5"/>
<text text-anchor="middle" x="1246" y="-287.5" font-family="Arial.ttf" font-size="10.00">sstream</text>
</a>
</g>
</g>
<!-- Node2&#45;&gt;Node16 -->
<g id="edge15" class="edge">
<title>Node2&#45;&gt;Node16</title>
<path fill="none" stroke="midnightblue" d="M1643.95,-343.15C1582.71,-338.56 1424.74,-325.26 1282.47,-299.83"/>
<polygon fill="midnightblue" stroke="midnightblue" points="1282.72,-296.32 1272.26,-297.98 1281.48,-303.21 1282.72,-296.32"/>
</g>
<!-- Node17 -->
<g id="node17" class="node">
<title>Node17</title>
<g id="a_node17"><a xlink:title=" ">
<polygon fill="white" stroke="#bfbfbf" points="1290.5,-280.5 1290.5,-299.5 1331.5,-299.5 1331.5,-280.5 1290.5,-280.5"/>
<text text-anchor="middle" x="1311" y="-287.5" font-family="Arial.ttf" font-size="10.00">string</text>
</a>
</g>
</g>
<!-- Node2&#45;&gt;Node17 -->
<g id="edge16" class="edge">
<title>Node2&#45;&gt;Node17</title>
<path fill="none" stroke="midnightblue" d="M1643.74,-342.81C1589.2,-337.96 1459.61,-324.89 1341.48,-299.77"/>
<polygon fill="midnightblue" stroke="midnightblue" points="1342.06,-296.31 1331.55,-297.62 1340.58,-303.16 1342.06,-296.31"/>
</g>
<!-- Node18 -->
<g id="node18" class="node">
<title>Node18</title>
<g id="a_node18"><a xlink:title=" ">
<polygon fill="white" stroke="#bfbfbf" points="1350,-280.5 1350,-299.5 1394,-299.5 1394,-280.5 1350,-280.5"/>
<text text-anchor="middle" x="1372" y="-287.5" font-family="Arial.ttf" font-size="10.00">thread</text>
</a>
</g>
</g>
<!-- Node2&#45;&gt;Node18 -->
<g id="edge17" class="edge">
<title>Node2&#45;&gt;Node18</title>
<path fill="none" stroke="midnightblue" d="M1643.77,-341.51C1597.48,-335.15 1498.15,-320.59 1404.25,-299.83"/>
<polygon fill="midnightblue" stroke="midnightblue" points="1404.83,-296.37 1394.3,-297.6 1403.3,-303.2 1404.83,-296.37"/>
</g>
<!-- Node19 -->
<g id="node19" class="node">
<title>Node19</title>
<g id="a_node19"><a xlink:title=" ">
<polygon fill="white" stroke="#bfbfbf" points="1412.5,-280.5 1412.5,-299.5 1463.5,-299.5 1463.5,-280.5 1412.5,-280.5"/>
<text text-anchor="middle" x="1438" y="-287.5" font-family="Arial.ttf" font-size="10.00">typeinfo</text>
</a>
</g>
</g>
<!-- Node2&#45;&gt;Node19 -->
<g id="edge18" class="edge">
<title>Node2&#45;&gt;Node19</title>
<path fill="none" stroke="midnightblue" d="M1643.82,-339.26C1607.8,-331.3 1540.7,-316.31 1473.51,-300.07"/>
<polygon fill="midnightblue" stroke="midnightblue" points="1474.14,-296.62 1463.59,-297.67 1472.49,-303.43 1474.14,-296.62"/>
</g>
<!-- Node20 -->
<g id="node20" class="node">
<title>Node20</title>
<g id="a_node20"><a xlink:title=" ">
<polygon fill="white" stroke="#bfbfbf" points="672,-224.5 672,-243.5 716,-243.5 716,-224.5 672,-224.5"/>
<text text-anchor="middle" x="694" y="-231.5" font-family="Arial.ttf" font-size="10.00">vector</text>
</a>
</g>
</g>
<!-- Node2&#45;&gt;Node20 -->
<g id="edge19" class="edge">
<title>Node2&#45;&gt;Node20</title>
<path fill="none" stroke="midnightblue" d="M1643.96,-345.25C1500.44,-346.42 809.51,-349.45 730,-300 713.43,-289.69 703.87,-268.87 698.82,-253.56"/>
<polygon fill="midnightblue" stroke="midnightblue" points="702.08,-252.22 695.91,-243.61 695.36,-254.19 702.08,-252.22"/>
</g>
<!-- Node21 -->
<g id="node21" class="node">
<title>Node21</title>
<g id="a_node21"><a xlink:title=" ">
<polygon fill="white" stroke="#bfbfbf" points="1482,-280.5 1482,-299.5 1534,-299.5 1534,-280.5 1482,-280.5"/>
<text text-anchor="middle" x="1508" y="-287.5" font-family="Arial.ttf" font-size="10.00">memory</text>
</a>
</g>
</g>
<!-- Node2&#45;&gt;Node21 -->
<g id="edge20" class="edge">
<title>Node2&#45;&gt;Node21</title>
<path fill="none" stroke="midnightblue" d="M1644.33,-336.44C1617.08,-327.36 1573.82,-312.94 1543.35,-302.78"/>
<polygon fill="midnightblue" stroke="midnightblue" points="1544.14,-299.36 1533.55,-299.52 1541.93,-306 1544.14,-299.36"/>
</g>
<!-- Node22 -->
<g id="node22" class="node">
<title>Node22</title>
<g id="a_node22"><a xlink:title=" ">
<polygon fill="white" stroke="#bfbfbf" points="1552.5,-280.5 1552.5,-299.5 1601.5,-299.5 1601.5,-280.5 1552.5,-280.5"/>
<text text-anchor="middle" x="1577" y="-287.5" font-family="Arial.ttf" font-size="10.00">cassert</text>
</a>
</g>
</g>
<!-- Node2&#45;&gt;Node22 -->
<g id="edge21" class="edge">
<title>Node2&#45;&gt;Node22</title>
<path fill="none" stroke="midnightblue" d="M1655.06,-336.32C1640.41,-327.82 1617.87,-314.73 1600.76,-304.8"/>
<polygon fill="midnightblue" stroke="midnightblue" points="1602.31,-301.65 1591.9,-299.65 1598.8,-307.7 1602.31,-301.65"/>
</g>
<!-- Node23 -->
<g id="node23" class="node">
<title>Node23</title>
<g id="a_node23"><a xlink:title=" ">
<polygon fill="white" stroke="#bfbfbf" points="1619.5,-280.5 1619.5,-299.5 1660.5,-299.5 1660.5,-280.5 1619.5,-280.5"/>
<text text-anchor="middle" x="1640" y="-287.5" font-family="Arial.ttf" font-size="10.00">cfloat</text>
</a>
</g>
</g>
<!-- Node2&#45;&gt;Node23 -->
<g id="edge22" class="edge">
<title>Node2&#45;&gt;Node23</title>
<path fill="none" stroke="midnightblue" d="M1665.05,-336.08C1660.9,-328.61 1654.85,-317.72 1649.73,-308.52"/>
<polygon fill="midnightblue" stroke="midnightblue" points="1652.78,-306.79 1644.86,-299.75 1646.66,-310.19 1652.78,-306.79"/>
</g>
<!-- Node24 -->
<g id="node24" class="node">
<title>Node24</title>
<g id="a_node24"><a xlink:title=" ">
<polygon fill="white" stroke="#bfbfbf" points="1678.5,-280.5 1678.5,-299.5 1723.5,-299.5 1723.5,-280.5 1678.5,-280.5"/>
<text text-anchor="middle" x="1701" y="-287.5" font-family="Arial.ttf" font-size="10.00">climits</text>
</a>
</g>
</g>
<!-- Node2&#45;&gt;Node24 -->
<g id="edge23" class="edge">
<title>Node2&#45;&gt;Node24</title>
<path fill="none" stroke="midnightblue" d="M1675.12,-336.08C1679.41,-328.61 1685.66,-317.72 1690.94,-308.52"/>
<polygon fill="midnightblue" stroke="midnightblue" points="1694.03,-310.17 1695.98,-299.75 1687.96,-306.68 1694.03,-310.17"/>
</g>
<!-- Node25 -->
<g id="node25" class="node">
<title>Node25</title>
<g id="a_node25"><a xlink:title=" ">
<polygon fill="white" stroke="#bfbfbf" points="1742,-280.5 1742,-299.5 1786,-299.5 1786,-280.5 1742,-280.5"/>
<text text-anchor="middle" x="1764" y="-287.5" font-family="Arial.ttf" font-size="10.00">cmath</text>
</a>
</g>
</g>
<!-- Node2&#45;&gt;Node25 -->
<g id="edge24" class="edge">
<title>Node2&#45;&gt;Node25</title>
<path fill="none" stroke="midnightblue" d="M1685.1,-336.32C1699.9,-327.82 1722.69,-314.73 1739.98,-304.8"/>
<polygon fill="midnightblue" stroke="midnightblue" points="1742.01,-307.67 1748.93,-299.65 1738.52,-301.6 1742.01,-307.67"/>
</g>
<!-- Node26 -->
<g id="node26" class="node">
<title>Node26</title>
<g id="a_node26"><a xlink:title=" ">
<polygon fill="white" stroke="#bfbfbf" points="1804.5,-280.5 1804.5,-299.5 1847.5,-299.5 1847.5,-280.5 1804.5,-280.5"/>
<text text-anchor="middle" x="1826" y="-287.5" font-family="Arial.ttf" font-size="10.00">cstdio</text>
</a>
</g>
</g>
<!-- Node2&#45;&gt;Node26 -->
<g id="edge25" class="edge">
<title>Node2&#45;&gt;Node26</title>
<path fill="none" stroke="midnightblue" d="M1694.72,-336.44C1721.77,-327.08 1765.2,-312.05 1794.63,-301.86"/>
<polygon fill="midnightblue" stroke="midnightblue" points="1796.11,-305.05 1804.41,-298.47 1793.82,-298.44 1796.11,-305.05"/>
</g>
<!-- Node27 -->
<g id="node27" class="node">
<title>Node27</title>
<g id="a_node27"><a xlink:title=" ">
<polygon fill="white" stroke="#bfbfbf" points="1865.5,-280.5 1865.5,-299.5 1910.5,-299.5 1910.5,-280.5 1865.5,-280.5"/>
<text text-anchor="middle" x="1888" y="-287.5" font-family="Arial.ttf" font-size="10.00">cstdlib</text>
</a>
</g>
</g>
<!-- Node2&#45;&gt;Node27 -->
<g id="edge26" class="edge">
<title>Node2&#45;&gt;Node27</title>
<path fill="none" stroke="midnightblue" d="M1696.11,-339.12C1730.51,-331.29 1793.1,-316.73 1855.36,-300.35"/>
<polygon fill="midnightblue" stroke="midnightblue" points="1856.58,-303.65 1865.35,-297.71 1854.78,-296.88 1856.58,-303.65"/>
</g>
<!-- Node28 -->
<g id="node28" class="node">
<title>Node28</title>
<g id="a_node28"><a xlink:title=" ">
<polygon fill="white" stroke="#bfbfbf" points="1929,-280.5 1929,-299.5 1975,-299.5 1975,-280.5 1929,-280.5"/>
<text text-anchor="middle" x="1952" y="-287.5" font-family="Arial.ttf" font-size="10.00">cstring</text>
</a>
</g>
</g>
<!-- Node2&#45;&gt;Node28 -->
<g id="edge27" class="edge">
<title>Node2&#45;&gt;Node28</title>
<path fill="none" stroke="midnightblue" d="M1696.08,-341.15C1740.08,-334.48 1832.03,-319.75 1919.21,-300"/>
<polygon fill="midnightblue" stroke="midnightblue" points="1920.03,-303.4 1929,-297.76 1918.47,-296.58 1920.03,-303.4"/>
</g>
<!-- Node29 -->
<g id="node29" class="node">
<title>Node29</title>
<g id="a_node29"><a xlink:href="_s_l_8h.html" target="_top" xlink:title=" ">
<polygon fill="white" stroke="red" points="777.5,-0.5 777.5,-19.5 814.5,-19.5 814.5,-0.5 777.5,-0.5"/>
<text text-anchor="middle" x="796" y="-7.5" font-family="Arial.ttf" font-size="10.00">SL.h</text>
</a>
</g>
</g>
<!-- Node2&#45;&gt;Node29 -->
<g id="edge28" class="edge">
<title>Node2&#45;&gt;Node29</title>
<path fill="none" stroke="midnightblue" d="M1643.89,-344.86C1530.5,-344.03 1084.21,-338.32 1036,-300 1012.34,-281.19 1016,-265.23 1016,-235 1016,-235 1016,-235 1016,-121 1016,-36.58 884.8,-16.95 825.04,-12.38"/>
<polygon fill="midnightblue" stroke="midnightblue" points="824.97,-8.87 814.76,-11.69 824.5,-15.85 824.97,-8.87"/>
</g>
<!-- Node33 -->
<g id="node30" class="node">
<title>Node33</title>
<g id="a_node30"><a xlink:href="_s_l_enums_8h.html" target="_top" xlink:title=" ">
<polygon fill="white" stroke="black" points="1993,-280.5 1993,-299.5 2061,-299.5 2061,-280.5 1993,-280.5"/>
<text text-anchor="middle" x="2027" y="-287.5" font-family="Arial.ttf" font-size="10.00">SLEnums.h</text>
</a>
</g>
</g>
<!-- Node2&#45;&gt;Node33 -->
<g id="edge29" class="edge">
<title>Node2&#45;&gt;Node33</title>
<path fill="none" stroke="midnightblue" d="M1696.14,-341.83C1748.53,-335.35 1870.28,-319.68 1982.63,-300.15"/>
<polygon fill="midnightblue" stroke="midnightblue" points="1983.53,-303.54 1992.77,-298.37 1982.32,-296.65 1983.53,-303.54"/>
</g>
<!-- Node34 -->
<g id="node31" class="node">
<title>Node34</title>
<g id="a_node31"><a xlink:href="_s_l_mat3_8h.html" target="_top" xlink:title=" ">
<polygon fill="white" stroke="red" points="685.5,-168.5 685.5,-187.5 744.5,-187.5 744.5,-168.5 685.5,-168.5"/>
<text text-anchor="middle" x="715" y="-175.5" font-family="Arial.ttf" font-size="10.00">SLMat3.h</text>
</a>
</g>
</g>
<!-- Node2&#45;&gt;Node34 -->
<g id="edge30" class="edge">
<title>Node2&#45;&gt;Node34</title>
<path fill="none" stroke="midnightblue" d="M1643.72,-344.46C1499.07,-341.42 804.98,-325.51 768,-300 750.26,-287.76 730.01,-228.29 720.49,-197.52"/>
<polygon fill="midnightblue" stroke="midnightblue" points="723.74,-196.18 717.49,-187.63 717.04,-198.21 723.74,-196.18"/>
</g>
<!-- Node35 -->
<g id="node32" class="node">
<title>Node35</title>
<g id="a_node32"><a xlink:href="_s_l_vec3_8h.html" target="_top" xlink:title=" ">
<polygon fill="white" stroke="red" points="685.5,-112.5 685.5,-131.5 744.5,-131.5 744.5,-112.5 685.5,-112.5"/>
<text text-anchor="middle" x="715" y="-119.5" font-family="Arial.ttf" font-size="10.00">SLVec3.h</text>
</a>
</g>
</g>
<!-- Node2&#45;&gt;Node35 -->
<g id="edge52" class="edge">
<title>Node2&#45;&gt;Node35</title>
<path fill="none" stroke="midnightblue" d="M1643.95,-345.12C1509.17,-345.56 894.59,-345.06 824,-300 768.03,-264.27 791.54,-222.78 754,-168 747.07,-157.89 738.2,-147.5 730.67,-139.25"/>
<polygon fill="midnightblue" stroke="midnightblue" points="733.1,-136.72 723.71,-131.81 727.99,-141.51 733.1,-136.72"/>
</g>
<!-- Node36 -->
<g id="node33" class="node">
<title>Node36</title>
<g id="a_node33"><a xlink:href="_s_l_vec2_8h.html" target="_top" xlink:title=" ">
<polygon fill="white" stroke="red" points="783.5,-56.5 783.5,-75.5 842.5,-75.5 842.5,-56.5 783.5,-56.5"/>
<text text-anchor="middle" x="813" y="-63.5" font-family="Arial.ttf" font-size="10.00">SLVec2.h</text>
</a>
</g>
</g>
<!-- Node2&#45;&gt;Node36 -->
<g id="edge51" class="edge">
<title>Node2&#45;&gt;Node36</title>
<path fill="none" stroke="midnightblue" d="M1643.99,-344.51C1527.78,-342.15 1059.36,-330.78 1002,-300 936.91,-265.07 947.73,-225.21 901,-168 876.03,-137.43 845.48,-102.99 827.73,-83.26"/>
<polygon fill="midnightblue" stroke="midnightblue" points="830.26,-80.83 820.96,-75.75 825.06,-85.52 830.26,-80.83"/>
</g>
<!-- Node37 -->
<g id="node34" class="node">
<title>Node37</title>
<g id="a_node34"><a xlink:href="_s_l_mat4_8h.html" target="_top" xlink:title=" ">
<polygon fill="white" stroke="red" points="594.5,-224.5 594.5,-243.5 653.5,-243.5 653.5,-224.5 594.5,-224.5"/>
<text text-anchor="middle" x="624" y="-231.5" font-family="Arial.ttf" font-size="10.00">SLMat4.h</text>
</a>
</g>
</g>
<!-- Node2&#45;&gt;Node37 -->
<g id="edge37" class="edge">
<title>Node2&#45;&gt;Node37</title>
<path fill="none" stroke="midnightblue" d="M1643.6,-344.72C1498.06,-343.07 796.92,-333.39 707,-300 679.53,-289.8 653.96,-266.94 638.65,-251.24"/>
<polygon fill="midnightblue" stroke="midnightblue" points="641.04,-248.66 631.63,-243.79 635.94,-253.46 641.04,-248.66"/>
</g>
<!-- Node39 -->
<g id="node35" class="node">
<title>Node39</title>
<g id="a_node35"><a xlink:href="_s_l_vec4_8h.html" target="_top" xlink:title=" ">
<polygon fill="white" stroke="red" points="810.5,-168.5 810.5,-187.5 869.5,-187.5 869.5,-168.5 810.5,-168.5"/>
<text text-anchor="middle" x="840" y="-175.5" font-family="Arial.ttf" font-size="10.00">SLVec4.h</text>
</a>
</g>
</g>
<!-- Node2&#45;&gt;Node39 -->
<g id="edge53" class="edge">
<title>Node2&#45;&gt;Node39</title>
<path fill="none" stroke="midnightblue" d="M1643.85,-344.58C1505.95,-342.25 868.31,-329.89 840,-300 813.97,-272.52 824.58,-223.78 833.15,-197.33"/>
<polygon fill="midnightblue" stroke="midnightblue" points="836.49,-198.37 836.47,-187.77 829.88,-196.07 836.49,-198.37"/>
</g>
<!-- Node43 -->
<g id="node36" class="node">
<title>Node43</title>
<g id="a_node36"><a xlink:href="_s_l_object_8h.html" target="_top" xlink:title=" ">
<polygon fill="white" stroke="black" points="2222.5,-56.5 2222.5,-75.5 2287.5,-75.5 2287.5,-56.5 2222.5,-56.5"/>
<text text-anchor="middle" x="2255" y="-63.5" font-family="Arial.ttf" font-size="10.00">SLObject.h</text>
</a>
</g>
</g>
<!-- Node2&#45;&gt;Node43 -->
<g id="edge45" class="edge">
<title>Node2&#45;&gt;Node43</title>
<path fill="none" stroke="midnightblue" d="M1696.14,-344.75C1911.04,-342.67 3379.39,-327.41 3415,-300 3438.85,-281.64 3434,-265.1 3434,-235 3434,-235 3434,-235 3434,-177 3434,-118.75 2509.65,-77.41 2297.87,-68.71"/>
<polygon fill="midnightblue" stroke="midnightblue" points="2297.9,-65.2 2287.76,-68.29 2297.61,-72.2 2297.9,-65.2"/>
</g>
<!-- Node44 -->
<g id="node37" class="node">
<title>Node44</title>
<g id="a_node37"><a xlink:href="_s_l_quat4_8h.html" target="_top" xlink:title=" ">
<polygon fill="white" stroke="red" points="848.5,-280.5 848.5,-299.5 911.5,-299.5 911.5,-280.5 848.5,-280.5"/>
<text text-anchor="middle" x="880" y="-287.5" font-family="Arial.ttf" font-size="10.00">SLQuat4.h</text>
</a>
</g>
</g>
<!-- Node2&#45;&gt;Node44 -->
<g id="edge47" class="edge">
<title>Node2&#45;&gt;Node44</title>
<path fill="none" stroke="midnightblue" d="M1643.85,-344.67C1547.81,-343.21 1205.51,-335.64 926,-300 924.54,-299.81 923.05,-299.61 921.55,-299.39"/>
<polygon fill="midnightblue" stroke="midnightblue" points="922.02,-295.92 911.58,-297.75 920.89,-302.83 922.02,-295.92"/>
</g>
<!-- Node45 -->
<g id="node38" class="node">
<title>Node45</title>
<g id="a_node38"><a xlink:title=" ">
<polygon fill="white" stroke="#bfbfbf" points="2079,-280.5 2079,-299.5 2195,-299.5 2195,-280.5 2079,-280.5"/>
<text text-anchor="middle" x="2137" y="-287.5" font-family="Arial.ttf" font-size="10.00">opencv2/core/core.hpp</text>
</a>
</g>
</g>
<!-- Node2&#45;&gt;Node45 -->
<g id="edge54" class="edge">
<title>Node2&#45;&gt;Node45</title>
<path fill="none" stroke="midnightblue" d="M1696.23,-342.25C1758.75,-335.64 1921.67,-318.18 2068.79,-300.13"/>
<polygon fill="midnightblue" stroke="midnightblue" points="2069.41,-303.58 2078.91,-298.88 2068.55,-296.63 2069.41,-303.58"/>
</g>
<!-- Node46 -->
<g id="node39" class="node">
<title>Node46</title>
<g id="a_node39"><a xlink:title=" ">
<polygon fill="white" stroke="#bfbfbf" points="2213.5,-280.5 2213.5,-299.5 2332.5,-299.5 2332.5,-280.5 2213.5,-280.5"/>
<text text-anchor="middle" x="2273" y="-287.5" font-family="Arial.ttf" font-size="10.00">opencv2/core/utility.hpp</text>
</a>
</g>
</g>
<!-- Node2&#45;&gt;Node46 -->
<g id="edge55" class="edge">
<title>Node2&#45;&gt;Node46</title>
<path fill="none" stroke="midnightblue" d="M1696.16,-343.22C1772.44,-337.94 2001.5,-321.45 2203,-300.06"/>
<polygon fill="midnightblue" stroke="midnightblue" points="2203.61,-303.51 2213.18,-298.97 2202.87,-296.55 2203.61,-303.51"/>
</g>
<!-- Node47 -->
<g id="node40" class="node">
<title>Node47</title>
<g id="a_node40"><a xlink:title=" ">
<polygon fill="white" stroke="#bfbfbf" points="2351,-280.5 2351,-299.5 2457,-299.5 2457,-280.5 2351,-280.5"/>
<text text-anchor="middle" x="2404" y="-287.5" font-family="Arial.ttf" font-size="10.00">opencv2/highgui.hpp</text>
</a>
</g>
</g>
<!-- Node2&#45;&gt;Node47 -->
<g id="edge56" class="edge">
<title>Node2&#45;&gt;Node47</title>
<path fill="none" stroke="midnightblue" d="M1696.01,-343.98C1784.63,-340.36 2083.12,-326.93 2340.64,-300.06"/>
<polygon fill="midnightblue" stroke="midnightblue" points="2341.36,-303.51 2350.93,-298.98 2340.62,-296.54 2341.36,-303.51"/>
</g>
<!-- Node48 -->
<g id="node41" class="node">
<title>Node48</title>
<g id="a_node41"><a xlink:title=" ">
<polygon fill="white" stroke="#bfbfbf" points="2475,-280.5 2475,-299.5 2585,-299.5 2585,-280.5 2475,-280.5"/>
<text text-anchor="middle" x="2530" y="-287.5" font-family="Arial.ttf" font-size="10.00">opencv2/imgproc.hpp</text>
</a>
</g>
</g>
<!-- Node2&#45;&gt;Node48 -->
<g id="edge57" class="edge">
<title>Node2&#45;&gt;Node48</title>
<path fill="none" stroke="midnightblue" d="M1696.17,-344.31C1795.19,-341.54 2156.45,-329.94 2464.85,-300.03"/>
<polygon fill="midnightblue" stroke="midnightblue" points="2465.27,-303.51 2474.88,-299.05 2464.58,-296.54 2465.27,-303.51"/>
</g>
<!-- Node49 -->
<g id="node42" class="node">
<title>Node49</title>
<g id="a_node42"><a xlink:title=" ">
<polygon fill="white" stroke="#bfbfbf" points="2603,-280.5 2603,-299.5 2709,-299.5 2709,-280.5 2603,-280.5"/>
<text text-anchor="middle" x="2656" y="-287.5" font-family="Arial.ttf" font-size="10.00">opencv2/calib3d.hpp</text>
</a>
</g>
</g>
<!-- Node2&#45;&gt;Node49 -->
<g id="edge58" class="edge">
<title>Node2&#45;&gt;Node49</title>
<path fill="none" stroke="midnightblue" d="M1696.16,-344.64C1804.83,-342.95 2231.49,-334.44 2592.81,-300.02"/>
<polygon fill="midnightblue" stroke="midnightblue" points="2593.32,-303.48 2602.94,-299.04 2592.65,-296.52 2593.32,-303.48"/>
</g>
<!-- Node50 -->
<g id="node43" class="node">
<title>Node50</title>
<g id="a_node43"><a xlink:title=" ">
<polygon fill="white" stroke="#bfbfbf" points="2727,-280.5 2727,-299.5 2863,-299.5 2863,-280.5 2727,-280.5"/>
<text text-anchor="middle" x="2795" y="-287.5" font-family="Arial.ttf" font-size="10.00">opencv2/video/tracking.hpp</text>
</a>
</g>
</g>
<!-- Node2&#45;&gt;Node50 -->
<g id="edge59" class="edge">
<title>Node2&#45;&gt;Node50</title>
<path fill="none" stroke="midnightblue" d="M1696.37,-344.58C1814.12,-342.56 2303.84,-332.58 2716.55,-300.06"/>
<polygon fill="midnightblue" stroke="midnightblue" points="2716.9,-303.54 2726.59,-299.26 2716.35,-296.56 2716.9,-303.54"/>
</g>
<!-- Node34&#45;&gt;Node11 -->
<g id="edge36" class="edge">
<title>Node34&#45;&gt;Node11</title>
<path fill="none" stroke="midnightblue" d="M727.05,-168.32C738.46,-160.11 755.83,-147.6 769.43,-137.81"/>
<polygon fill="midnightblue" stroke="midnightblue" points="771.66,-140.52 777.73,-131.83 767.57,-134.84 771.66,-140.52"/>
</g>
<!-- Node34&#45;&gt;Node29 -->
<g id="edge31" class="edge">
<title>Node34&#45;&gt;Node29</title>
<path fill="none" stroke="midnightblue" d="M703.84,-168.46C689.42,-156.29 667.23,-133.12 677,-112 695.9,-71.17 740.34,-40.82 769.24,-24.53"/>
<polygon fill="midnightblue" stroke="midnightblue" points="770.92,-27.6 778.03,-19.74 767.57,-21.45 770.92,-27.6"/>
</g>
<!-- Node34&#45;&gt;Node35 -->
<g id="edge32" class="edge">
<title>Node34&#45;&gt;Node35</title>
<path fill="none" stroke="midnightblue" d="M715,-168.08C715,-161.01 715,-150.86 715,-141.99"/>
<polygon fill="midnightblue" stroke="midnightblue" points="718.5,-141.75 715,-131.75 711.5,-141.75 718.5,-141.75"/>
</g>
<!-- Node35&#45;&gt;Node29 -->
<g id="edge33" class="edge">
<title>Node35&#45;&gt;Node29</title>
<path fill="none" stroke="midnightblue" d="M721.36,-112.37C734.78,-94.14 766.23,-51.43 783.72,-27.68"/>
<polygon fill="midnightblue" stroke="midnightblue" points="786.56,-29.72 789.67,-19.59 780.93,-25.57 786.56,-29.72"/>
</g>
<!-- Node35&#45;&gt;Node36 -->
<g id="edge34" class="edge">
<title>Node35&#45;&gt;Node36</title>
<path fill="none" stroke="midnightblue" d="M730.75,-112.32C746.32,-103.74 770.38,-90.49 788.46,-80.52"/>
<polygon fill="midnightblue" stroke="midnightblue" points="790.22,-83.55 797.29,-75.65 786.85,-77.42 790.22,-83.55"/>
</g>
<!-- Node36&#45;&gt;Node29 -->
<g id="edge35" class="edge">
<title>Node36&#45;&gt;Node29</title>
<path fill="none" stroke="midnightblue" d="M810.19,-56.08C807.92,-48.85 804.63,-38.41 801.79,-29.4"/>
<polygon fill="midnightblue" stroke="midnightblue" points="805.1,-28.24 798.75,-19.75 798.42,-30.34 805.1,-28.24"/>
</g>
<!-- Node37&#45;&gt;Node29 -->
<g id="edge38" class="edge">
<title>Node37&#45;&gt;Node29</title>
<path fill="none" stroke="midnightblue" d="M625.19,-224.27C629.48,-195.95 646.77,-105.56 698,-56 717.43,-37.21 746.11,-25.3 767.43,-18.49"/>
<polygon fill="midnightblue" stroke="midnightblue" points="768.66,-21.77 777.23,-15.54 766.65,-15.07 768.66,-21.77"/>
</g>
<!-- Node37&#45;&gt;Node34 -->
<g id="edge39" class="edge">
<title>Node37&#45;&gt;Node34</title>
<path fill="none" stroke="midnightblue" d="M638.62,-224.32C652.95,-215.82 675.01,-202.73 691.75,-192.8"/>
<polygon fill="midnightblue" stroke="midnightblue" points="693.6,-195.77 700.42,-187.65 690.03,-189.75 693.6,-195.77"/>
</g>
<!-- Node37&#45;&gt;Node35 -->
<g id="edge40" class="edge">
<title>Node37&#45;&gt;Node35</title>
<path fill="none" stroke="midnightblue" d="M631.15,-224.13C641.29,-211.58 660.45,-187.95 677,-168 684.93,-158.44 693.9,-147.82 701.12,-139.3"/>
<polygon fill="midnightblue" stroke="midnightblue" points="703.86,-141.48 707.67,-131.59 698.53,-136.94 703.86,-141.48"/>
</g>
<!-- Node37&#45;&gt;Node39 -->
<g id="edge41" class="edge">
<title>Node37&#45;&gt;Node39</title>
<path fill="none" stroke="midnightblue" d="M653.58,-225.6C691.77,-216.06 758.33,-199.42 800.73,-188.82"/>
<polygon fill="midnightblue" stroke="midnightblue" points="801.58,-192.21 810.43,-186.39 799.88,-185.42 801.58,-192.21"/>
</g>
<!-- Node39&#45;&gt;Node29 -->
<g id="edge42" class="edge">
<title>Node39&#45;&gt;Node29</title>
<path fill="none" stroke="midnightblue" d="M843.84,-168.25C852.3,-147.56 870.43,-94.45 852,-56 845.75,-42.95 833.66,-32.49 822.32,-24.95"/>
<polygon fill="midnightblue" stroke="midnightblue" points="823.85,-21.79 813.5,-19.54 820.19,-27.75 823.85,-21.79"/>
</g>
<!-- Node39&#45;&gt;Node35 -->
<g id="edge44" class="edge">
<title>Node39&#45;&gt;Node35</title>
<path fill="none" stroke="midnightblue" d="M820.19,-168.44C799.71,-159.6 767.52,-145.69 744.14,-135.59"/>
<polygon fill="midnightblue" stroke="midnightblue" points="745.28,-132.27 734.71,-131.52 742.51,-138.7 745.28,-132.27"/>
</g>
<!-- Node39&#45;&gt;Node36 -->
<g id="edge43" class="edge">
<title>Node39&#45;&gt;Node36</title>
<path fill="none" stroke="midnightblue" d="M838.29,-168.12C835.83,-155.57 831.02,-131.93 826,-112 823.76,-103.12 820.98,-93.34 818.56,-85.17"/>
<polygon fill="midnightblue" stroke="midnightblue" points="821.91,-84.14 815.67,-75.58 815.2,-86.16 821.91,-84.14"/>
</g>
<!-- Node43&#45;&gt;Node29 -->
<g id="edge46" class="edge">
<title>Node43&#45;&gt;Node29</title>
<path fill="none" stroke="midnightblue" d="M2222.48,-63.8C2026.87,-56.56 1008.96,-18.88 824.64,-12.06"/>
<polygon fill="midnightblue" stroke="midnightblue" points="824.75,-8.56 814.63,-11.69 824.49,-15.56 824.75,-8.56"/>
</g>
<!-- Node44&#45;&gt;Node29 -->
<g id="edge48" class="edge">
<title>Node44&#45;&gt;Node29</title>
<path fill="none" stroke="midnightblue" d="M882.41,-280.09C890.76,-247.25 915.42,-131.09 869,-56 858.82,-39.54 840.15,-28.19 824.24,-21.01"/>
<polygon fill="midnightblue" stroke="midnightblue" points="825.37,-17.68 814.79,-17.06 822.68,-24.14 825.37,-17.68"/>
</g>
<!-- Node44&#45;&gt;Node37 -->
<g id="edge49" class="edge">
<title>Node44&#45;&gt;Node37</title>
<path fill="none" stroke="midnightblue" d="M848.33,-282.66C807.93,-274.53 735.64,-259.81 663.91,-244.16"/>
<polygon fill="midnightblue" stroke="midnightblue" points="664.31,-240.67 653.8,-241.95 662.82,-247.5 664.31,-240.67"/>
</g>
<!-- Node44&#45;&gt;Node39 -->
<g id="edge50" class="edge">
<title>Node44&#45;&gt;Node39</title>
<path fill="none" stroke="midnightblue" d="M876.86,-280.37C870.38,-262.54 855.38,-221.3 846.64,-197.27"/>
<polygon fill="midnightblue" stroke="midnightblue" points="849.83,-195.79 843.12,-187.59 843.25,-198.19 849.83,-195.79"/>
</g>
<!-- Node51&#45;&gt;Node37 -->
<g id="edge67" class="edge">
<title>Node51&#45;&gt;Node37</title>
<path fill="none" stroke="midnightblue" d="M237.89,-336.05C244.72,-321.56 260.29,-293.24 283,-280 289.47,-276.22 495.66,-250.68 584.22,-239.84"/>
<polygon fill="midnightblue" stroke="midnightblue" points="584.92,-243.28 594.42,-238.6 584.07,-236.33 584.92,-243.28"/>
</g>
<!-- Node52 -->
<g id="node45" class="node">
<title>Node52</title>
<g id="a_node45"><a xlink:href="_s_l_curve_8h.html" target="_top" xlink:title=" ">
<polygon fill="white" stroke="black" points="172.5,-280.5 172.5,-299.5 235.5,-299.5 235.5,-280.5 172.5,-280.5"/>
<text text-anchor="middle" x="204" y="-287.5" font-family="Arial.ttf" font-size="10.00">SLCurve.h</text>
</a>
</g>
</g>
<!-- Node51&#45;&gt;Node52 -->
<g id="edge61" class="edge">
<title>Node51&#45;&gt;Node52</title>
<path fill="none" stroke="midnightblue" d="M229.05,-336.08C224.9,-328.61 218.85,-317.72 213.73,-308.52"/>
<polygon fill="midnightblue" stroke="midnightblue" points="216.78,-306.79 208.86,-299.75 210.66,-310.19 216.78,-306.79"/>
</g>
<!-- Node53 -->
<g id="node46" class="node">
<title>Node53</title>
<g id="a_node46"><a xlink:href="_s_l_g_l_vertex_array_ext_8h.html" target="_top" xlink:title=" ">
<polygon fill="white" stroke="red" points="0,-280.5 0,-299.5 116,-299.5 116,-280.5 0,-280.5"/>
<text text-anchor="middle" x="58" y="-287.5" font-family="Arial.ttf" font-size="10.00">SLGLVertexArrayExt.h</text>
</a>
</g>
</g>
<!-- Node51&#45;&gt;Node53 -->
<g id="edge66" class="edge">
<title>Node51&#45;&gt;Node53</title>
<path fill="none" stroke="midnightblue" d="M206.11,-336.44C176.25,-327.28 128.69,-312.69 95.54,-302.52"/>
<polygon fill="midnightblue" stroke="midnightblue" points="96.34,-299.1 85.76,-299.52 94.29,-305.8 96.34,-299.1"/>
</g>
<!-- Node52&#45;&gt;Node29 -->
<g id="edge62" class="edge">
<title>Node52&#45;&gt;Node29</title>
<path fill="none" stroke="midnightblue" d="M234.68,-280.46C276.7,-266.68 347,-235.22 347,-179 347,-179 347,-179 347,-121 347,-34.17 667.8,-15.54 767.08,-11.85"/>
<polygon fill="midnightblue" stroke="midnightblue" points="767.41,-15.34 777.28,-11.49 767.16,-8.34 767.41,-15.34"/>
</g>
<!-- Node52&#45;&gt;Node35 -->
<g id="edge64" class="edge">
<title>Node52&#45;&gt;Node35</title>
<path fill="none" stroke="midnightblue" d="M235.42,-280.5C267.21,-271.77 317.72,-257.59 361,-244 479.57,-206.77 618.66,-157.59 681.36,-135.13"/>
<polygon fill="midnightblue" stroke="midnightblue" points="682.87,-138.31 691.1,-131.63 680.51,-131.72 682.87,-138.31"/>
</g>
<!-- Node52&#45;&gt;Node37 -->
<g id="edge63" class="edge">
<title>Node52&#45;&gt;Node37</title>
<path fill="none" stroke="midnightblue" d="M235.62,-282.5C240.43,-281.6 245.34,-280.74 250,-280 282.47,-274.88 494.59,-250.05 584.18,-239.62"/>
<polygon fill="midnightblue" stroke="midnightblue" points="584.69,-243.09 594.22,-238.45 583.89,-236.13 584.69,-243.09"/>
</g>
<!-- Node52&#45;&gt;Node39 -->
<g id="edge65" class="edge">
<title>Node52&#45;&gt;Node39</title>
<path fill="none" stroke="midnightblue" d="M235.54,-283.55C341.38,-265.24 683.77,-206.02 800.55,-185.82"/>
<polygon fill="midnightblue" stroke="midnightblue" points="801.24,-189.26 810.5,-184.1 800.05,-182.36 801.24,-189.26"/>
</g>
<!-- Node58&#45;&gt;Node13 -->
<g id="edge72" class="edge">
<title>Node58&#45;&gt;Node13</title>
<path fill="none" stroke="midnightblue" d="M474.4,-336.47C502.8,-328.16 547.27,-314.99 594.77,-300"/>
<polygon fill="midnightblue" stroke="midnightblue" points="595.83,-303.34 604.31,-296.98 593.72,-296.67 595.83,-303.34"/>
</g>
<!-- Node58&#45;&gt;Node20 -->
<g id="edge71" class="edge">
<title>Node58&#45;&gt;Node20</title>
<path fill="none" stroke="midnightblue" d="M451.23,-336.33C461.84,-322.23 484.82,-294.48 511,-280 569.02,-247.91 593.63,-260.41 661.77,-244.12"/>
<polygon fill="midnightblue" stroke="midnightblue" points="662.84,-247.46 671.69,-241.62 661.13,-240.67 662.84,-247.46"/>
</g>
<!-- Node58&#45;&gt;Node29 -->
<g id="edge69" class="edge">
<title>Node58&#45;&gt;Node29</title>
<path fill="none" stroke="midnightblue" d="M412.3,-344.06C346.14,-341.48 199.55,-332.2 163,-300 140.42,-280.1 144,-265.1 144,-235 144,-235 144,-235 144,-121 144,-56.86 640.9,-20.88 767.12,-12.77"/>
<polygon fill="midnightblue" stroke="midnightblue" points="767.43,-16.26 777.19,-12.13 766.99,-9.27 767.43,-16.26"/>
</g>
<!-- Node59 -->
<g id="node48" class="node">
<title>Node59</title>
<g id="a_node48"><a xlink:title=" ">
<polygon fill="white" stroke="#bfbfbf" points="292,-280.5 292,-299.5 332,-299.5 332,-280.5 292,-280.5"/>
<text text-anchor="middle" x="312" y="-287.5" font-family="Arial.ttf" font-size="10.00">utility</text>
</a>
</g>
</g>
<!-- Node58&#45;&gt;Node59 -->
<g id="edge70" class="edge">
<title>Node58&#45;&gt;Node59</title>
<path fill="none" stroke="midnightblue" d="M423.93,-336.44C401.68,-327.41 366.45,-313.11 341.46,-302.96"/>
<polygon fill="midnightblue" stroke="midnightblue" points="342.69,-299.68 332.11,-299.16 340.05,-306.17 342.69,-299.68"/>
</g>
<!-- Node60 -->
<g id="node49" class="node">
<title>Node60</title>
<g id="a_node49"><a xlink:href="_s_l_anim_manager_8h.html" target="_top" xlink:title=" ">
<polygon fill="white" stroke="red" points="350,-280.5 350,-299.5 446,-299.5 446,-280.5 350,-280.5"/>
<text text-anchor="middle" x="398" y="-287.5" font-family="Arial.ttf" font-size="10.00">SLAnimManager.h</text>
</a>
</g>
</g>
<!-- Node58&#45;&gt;Node60 -->
<g id="edge73" class="edge">
<title>Node58&#45;&gt;Node60</title>
<path fill="none" stroke="midnightblue" d="M437.24,-336.08C430.46,-328.3 420.46,-316.8 412.24,-307.37"/>
<polygon fill="midnightblue" stroke="midnightblue" points="414.82,-305 405.62,-299.75 409.54,-309.59 414.82,-305"/>
</g>
<!-- Node74 -->
<g id="node50" class="node">
<title>Node74</title>
<g id="a_node50"><a xlink:href="_averaged_8h.html" target="_top" xlink:title=" ">
<polygon fill="white" stroke="black" points="520,-280.5 520,-299.5 586,-299.5 586,-280.5 520,-280.5"/>
<text text-anchor="middle" x="553" y="-287.5" font-family="Arial.ttf" font-size="10.00">Averaged.h</text>
</a>
</g>
</g>
<!-- Node58&#45;&gt;Node74 -->
<g id="edge75" class="edge">
<title>Node58&#45;&gt;Node74</title>
<path fill="none" stroke="midnightblue" d="M462.35,-336.32C479.67,-327.66 506.52,-314.24 526.5,-304.25"/>
<polygon fill="midnightblue" stroke="midnightblue" points="528.31,-307.26 535.69,-299.65 525.18,-301 528.31,-307.26"/>
</g>
<!-- Node60&#45;&gt;Node60 -->
<g id="edge74" class="edge">
<title>Node60&#45;&gt;Node60</title>
<path fill="none" stroke="midnightblue" d="M426.15,-299.53C445.28,-302.31 464,-299.13 464,-290 464,-282.51 451.4,-279.03 436.31,-279.55"/>
<polygon fill="midnightblue" stroke="midnightblue" points="435.79,-276.08 426.15,-280.47 436.42,-283.06 435.79,-276.08"/>
</g>
<!-- Node74&#45;&gt;Node20 -->
<g id="edge76" class="edge">
<title>Node74&#45;&gt;Node20</title>
<path fill="none" stroke="midnightblue" d="M575.34,-280.44C598.75,-271.48 635.74,-257.31 662.19,-247.18"/>
<polygon fill="midnightblue" stroke="midnightblue" points="663.68,-250.36 671.76,-243.52 661.17,-243.82 663.68,-250.36"/>
</g>
</g>
</svg>
