<?xml version="1.0" encoding="UTF-8" standalone="no"?>
<!DOCTYPE svg PUBLIC "-//W3C//DTD SVG 1.1//EN"
 "http://www.w3.org/Graphics/SVG/1.1/DTD/svg11.dtd">
<!-- Generated by graphviz version 2.44.0 (20200408.0750)
 -->
<!-- Title: SLGLOculusFB.cpp Pages: 1 -->
<svg width="3114pt" height="476pt"
 viewBox="0.00 0.00 3113.50 476.00" xmlns="http://www.w3.org/2000/svg" xmlns:xlink="http://www.w3.org/1999/xlink">
<g id="graph0" class="graph" transform="scale(1 1) rotate(0) translate(4 472)">
<title>SLGLOculusFB.cpp</title>
<polygon fill="white" stroke="transparent" points="-4,4 -4,-472 3109.5,-472 3109.5,4 -4,4"/>
<!-- Node1 -->
<g id="node1" class="node">
<title>Node1</title>
<g id="a_node1"><a xlink:title=" ">
<polygon fill="#bfbfbf" stroke="black" points="2672.5,-448.5 2672.5,-467.5 2776.5,-467.5 2776.5,-448.5 2672.5,-448.5"/>
<text text-anchor="middle" x="2724.5" y="-455.5" font-family="Arial.ttf" font-size="10.00">SLGLOculusFB.cpp</text>
</a>
</g>
</g>
<!-- Node2 -->
<g id="node2" class="node">
<title>Node2</title>
<g id="a_node2"><a xlink:href="stdafx_8h.html" target="_top" xlink:title=" ">
<polygon fill="white" stroke="black" points="1683.5,-336.5 1683.5,-355.5 1735.5,-355.5 1735.5,-336.5 1683.5,-336.5"/>
<text text-anchor="middle" x="1709.5" y="-343.5" font-family="Arial.ttf" font-size="10.00">stdafx.h</text>
</a>
</g>
</g>
<!-- Node1&#45;&gt;Node2 -->
<g id="edge1" class="edge">
<title>Node1&#45;&gt;Node2</title>
<path fill="none" stroke="midnightblue" d="M2672.42,-451.36C2492.48,-431.85 1899.63,-367.61 1746.08,-350.96"/>
<polygon fill="midnightblue" stroke="midnightblue" points="1746.11,-347.45 1735.79,-349.85 1745.36,-354.41 1746.11,-347.45"/>
</g>
<!-- Node51 -->
<g id="node44" class="node">
<title>Node51</title>
<g id="a_node44"><a xlink:href="_s_l_g_l_state_8h.html" target="_top" xlink:title=" ">
<polygon fill="white" stroke="black" points="2729,-280.5 2729,-299.5 2802,-299.5 2802,-280.5 2729,-280.5"/>
<text text-anchor="middle" x="2765.5" y="-287.5" font-family="Arial.ttf" font-size="10.00">SLGLState.h</text>
</a>
</g>
</g>
<!-- Node1&#45;&gt;Node51 -->
<g id="edge60" class="edge">
<title>Node1&#45;&gt;Node51</title>
<path fill="none" stroke="midnightblue" d="M2707.77,-448.46C2671.93,-429.04 2593.52,-379.87 2625.5,-336 2631.42,-327.88 2683,-312.73 2721.85,-302.27"/>
<polygon fill="midnightblue" stroke="midnightblue" points="2723.16,-305.54 2731.92,-299.58 2721.35,-298.78 2723.16,-305.54"/>
</g>
<!-- Node52 -->
<g id="node45" class="node">
<title>Node52</title>
<g id="a_node45"><a xlink:href="_s_l_g_l_oculus_f_b_8h.html" target="_top" xlink:title=" ">
<polygon fill="white" stroke="black" points="2678,-392.5 2678,-411.5 2771,-411.5 2771,-392.5 2678,-392.5"/>
<text text-anchor="middle" x="2724.5" y="-399.5" font-family="Arial.ttf" font-size="10.00">SLGLOculusFB.h</text>
</a>
</g>
</g>
<!-- Node1&#45;&gt;Node52 -->
<g id="edge65" class="edge">
<title>Node1&#45;&gt;Node52</title>
<path fill="none" stroke="midnightblue" d="M2724.5,-448.08C2724.5,-441.01 2724.5,-430.86 2724.5,-421.99"/>
<polygon fill="midnightblue" stroke="midnightblue" points="2728,-421.75 2724.5,-411.75 2721,-421.75 2728,-421.75"/>
</g>
<!-- Node70 -->
<g id="node48" class="node">
<title>Node70</title>
<g id="a_node48"><a xlink:href="_s_l_g_l_program_8h.html" target="_top" xlink:title=" ">
<polygon fill="white" stroke="black" points="2860.5,-336.5 2860.5,-355.5 2946.5,-355.5 2946.5,-336.5 2860.5,-336.5"/>
<text text-anchor="middle" x="2903.5" y="-343.5" font-family="Arial.ttf" font-size="10.00">SLGLProgram.h</text>
</a>
</g>
</g>
<!-- Node1&#45;&gt;Node70 -->
<g id="edge70" class="edge">
<title>Node1&#45;&gt;Node70</title>
<path fill="none" stroke="midnightblue" d="M2738.55,-448.37C2769.39,-429.41 2843.29,-384 2880.81,-360.94"/>
<polygon fill="midnightblue" stroke="midnightblue" points="2882.83,-363.81 2889.52,-355.59 2879.17,-357.85 2882.83,-363.81"/>
</g>
<!-- Node82 -->
<g id="node50" class="node">
<title>Node82</title>
<g id="a_node50"><a xlink:href="_s_l_scene_8h.html" target="_top" xlink:title=" ">
<polygon fill="white" stroke="red" points="2975,-336.5 2975,-355.5 3040,-355.5 3040,-336.5 2975,-336.5"/>
<text text-anchor="middle" x="3007.5" y="-343.5" font-family="Arial.ttf" font-size="10.00">SLScene.h</text>
</a>
</g>
</g>
<!-- Node1&#45;&gt;Node82 -->
<g id="edge77" class="edge">
<title>Node1&#45;&gt;Node82</title>
<path fill="none" stroke="midnightblue" d="M2746.71,-448.37C2796.72,-428.93 2918.29,-381.67 2976.04,-359.23"/>
<polygon fill="midnightblue" stroke="midnightblue" points="2977.34,-362.48 2985.4,-355.59 2974.81,-355.95 2977.34,-362.48"/>
</g>
<!-- Node3 -->
<g id="node3" class="node">
<title>Node3</title>
<g id="a_node3"><a xlink:title=" ">
<polygon fill="white" stroke="#bfbfbf" points="1876.5,-280.5 1876.5,-299.5 1932.5,-299.5 1932.5,-280.5 1876.5,-280.5"/>
<text text-anchor="middle" x="1904.5" y="-287.5" font-family="Arial.ttf" font-size="10.00">algorithm</text>
</a>
</g>
</g>
<!-- Node2&#45;&gt;Node3 -->
<g id="edge2" class="edge">
<title>Node2&#45;&gt;Node3</title>
<path fill="none" stroke="midnightblue" d="M1735.8,-337.72C1769.49,-328.39 1828.11,-312.16 1866.61,-301.49"/>
<polygon fill="midnightblue" stroke="midnightblue" points="1867.71,-304.82 1876.41,-298.78 1865.84,-298.07 1867.71,-304.82"/>
</g>
<!-- Node4 -->
<g id="node4" class="node">
<title>Node4</title>
<g id="a_node4"><a xlink:title=" ">
<polygon fill="white" stroke="#bfbfbf" points="1988.5,-280.5 1988.5,-299.5 2034.5,-299.5 2034.5,-280.5 1988.5,-280.5"/>
<text text-anchor="middle" x="2011.5" y="-287.5" font-family="Arial.ttf" font-size="10.00">atomic</text>
</a>
</g>
</g>
<!-- Node2&#45;&gt;Node4 -->
<g id="edge3" class="edge">
<title>Node2&#45;&gt;Node4</title>
<path fill="none" stroke="midnightblue" d="M1735.57,-341.2C1783.2,-334.11 1887.43,-317.96 1974.5,-300 1975.77,-299.74 1977.07,-299.46 1978.38,-299.18"/>
<polygon fill="midnightblue" stroke="midnightblue" points="1979.5,-302.51 1988.46,-296.87 1977.94,-295.69 1979.5,-302.51"/>
</g>
<!-- Node5 -->
<g id="node5" class="node">
<title>Node5</title>
<g id="a_node5"><a xlink:title=" ">
<polygon fill="white" stroke="#bfbfbf" points="2052.5,-280.5 2052.5,-299.5 2098.5,-299.5 2098.5,-280.5 2052.5,-280.5"/>
<text text-anchor="middle" x="2075.5" y="-287.5" font-family="Arial.ttf" font-size="10.00">chrono</text>
</a>
</g>
</g>
<!-- Node2&#45;&gt;Node5 -->
<g id="edge4" class="edge">
<title>Node2&#45;&gt;Node5</title>
<path fill="none" stroke="midnightblue" d="M1735.69,-342.73C1790.75,-337.7 1922.58,-324.24 2042.12,-300.04"/>
<polygon fill="midnightblue" stroke="midnightblue" points="2043.08,-303.41 2052.17,-297.97 2041.67,-296.55 2043.08,-303.41"/>
</g>
<!-- Node6 -->
<g id="node6" class="node">
<title>Node6</title>
<g id="a_node6"><a xlink:title=" ">
<polygon fill="white" stroke="#bfbfbf" points="2117,-280.5 2117,-299.5 2166,-299.5 2166,-280.5 2117,-280.5"/>
<text text-anchor="middle" x="2141.5" y="-287.5" font-family="Arial.ttf" font-size="10.00">cstdarg</text>
</a>
</g>
</g>
<!-- Node2&#45;&gt;Node6 -->
<g id="edge5" class="edge">
<title>Node2&#45;&gt;Node6</title>
<path fill="none" stroke="midnightblue" d="M1735.77,-343.36C1798.36,-339.18 1961.23,-326.64 2106.71,-299.88"/>
<polygon fill="midnightblue" stroke="midnightblue" points="2107.53,-303.29 2116.71,-298.01 2106.24,-296.4 2107.53,-303.29"/>
</g>
<!-- Node7 -->
<g id="node7" class="node">
<title>Node7</title>
<g id="a_node7"><a xlink:title=" ">
<polygon fill="white" stroke="#bfbfbf" points="2184,-280.5 2184,-299.5 2225,-299.5 2225,-280.5 2184,-280.5"/>
<text text-anchor="middle" x="2204.5" y="-287.5" font-family="Arial.ttf" font-size="10.00">ctime</text>
</a>
</g>
</g>
<!-- Node2&#45;&gt;Node7 -->
<g id="edge6" class="edge">
<title>Node2&#45;&gt;Node7</title>
<path fill="none" stroke="midnightblue" d="M1735.54,-344.35C1805.34,-342.21 2002.46,-333.61 2173.78,-299.99"/>
<polygon fill="midnightblue" stroke="midnightblue" points="2174.6,-303.4 2183.72,-298.01 2173.23,-296.53 2174.6,-303.4"/>
</g>
<!-- Node8 -->
<g id="node8" class="node">
<title>Node8</title>
<g id="a_node8"><a xlink:title=" ">
<polygon fill="white" stroke="#bfbfbf" points="2243.5,-280.5 2243.5,-299.5 2293.5,-299.5 2293.5,-280.5 2243.5,-280.5"/>
<text text-anchor="middle" x="2268.5" y="-287.5" font-family="Arial.ttf" font-size="10.00">fstream</text>
</a>
</g>
</g>
<!-- Node2&#45;&gt;Node8 -->
<g id="edge7" class="edge">
<title>Node2&#45;&gt;Node8</title>
<path fill="none" stroke="midnightblue" d="M1735.65,-344.36C1811.37,-342.17 2037.33,-333.25 2233.45,-299.89"/>
<polygon fill="midnightblue" stroke="midnightblue" points="2234.1,-303.33 2243.36,-298.18 2232.91,-296.43 2234.1,-303.33"/>
</g>
<!-- Node9 -->
<g id="node9" class="node">
<title>Node9</title>
<g id="a_node9"><a xlink:title=" ">
<polygon fill="white" stroke="#bfbfbf" points="2312,-280.5 2312,-299.5 2371,-299.5 2371,-280.5 2312,-280.5"/>
<text text-anchor="middle" x="2341.5" y="-287.5" font-family="Arial.ttf" font-size="10.00">functional</text>
</a>
</g>
</g>
<!-- Node2&#45;&gt;Node9 -->
<g id="edge8" class="edge">
<title>Node2&#45;&gt;Node9</title>
<path fill="none" stroke="midnightblue" d="M1735.67,-344.42C1817.73,-342.32 2077.34,-333.41 2301.79,-299.86"/>
<polygon fill="midnightblue" stroke="midnightblue" points="2302.42,-303.3 2311.78,-298.35 2301.37,-296.38 2302.42,-303.3"/>
</g>
<!-- Node10 -->
<g id="node10" class="node">
<title>Node10</title>
<g id="a_node10"><a xlink:title=" ">
<polygon fill="white" stroke="#bfbfbf" points="2389.5,-280.5 2389.5,-299.5 2439.5,-299.5 2439.5,-280.5 2389.5,-280.5"/>
<text text-anchor="middle" x="2414.5" y="-287.5" font-family="Arial.ttf" font-size="10.00">iomanip</text>
</a>
</g>
</g>
<!-- Node2&#45;&gt;Node10 -->
<g id="edge9" class="edge">
<title>Node2&#45;&gt;Node10</title>
<path fill="none" stroke="midnightblue" d="M1735.61,-345.04C1824.56,-344.81 2123.9,-340.95 2379.16,-299.89"/>
<polygon fill="midnightblue" stroke="midnightblue" points="2380.06,-303.29 2389.37,-298.23 2378.93,-296.38 2380.06,-303.29"/>
</g>
<!-- Node11 -->
<g id="node11" class="node">
<title>Node11</title>
<g id="a_node11"><a xlink:title=" ">
<polygon fill="white" stroke="#bfbfbf" points="1698.5,-112.5 1698.5,-131.5 1752.5,-131.5 1752.5,-112.5 1698.5,-112.5"/>
<text text-anchor="middle" x="1725.5" y="-119.5" font-family="Arial.ttf" font-size="10.00">iostream</text>
</a>
</g>
</g>
<!-- Node2&#45;&gt;Node11 -->
<g id="edge10" class="edge">
<title>Node2&#45;&gt;Node11</title>
<path fill="none" stroke="midnightblue" d="M1710.13,-336.3C1712.48,-303.63 1720.82,-187.87 1724.13,-141.96"/>
<polygon fill="midnightblue" stroke="midnightblue" points="1727.63,-142.11 1724.86,-131.88 1720.65,-141.61 1727.63,-142.11"/>
</g>
<!-- Node12 -->
<g id="node12" class="node">
<title>Node12</title>
<g id="a_node12"><a xlink:title=" ">
<polygon fill="white" stroke="#bfbfbf" points="2458,-280.5 2458,-299.5 2487,-299.5 2487,-280.5 2458,-280.5"/>
<text text-anchor="middle" x="2472.5" y="-287.5" font-family="Arial.ttf" font-size="10.00">list</text>
</a>
</g>
</g>
<!-- Node2&#45;&gt;Node12 -->
<g id="edge11" class="edge">
<title>Node2&#45;&gt;Node12</title>
<path fill="none" stroke="midnightblue" d="M1735.8,-344.45C1848.11,-341.92 2288.66,-330.39 2447.91,-299.31"/>
<polygon fill="midnightblue" stroke="midnightblue" points="2448.9,-302.68 2457.98,-297.23 2447.48,-295.82 2448.9,-302.68"/>
</g>
<!-- Node13 -->
<g id="node13" class="node">
<title>Node13</title>
<g id="a_node13"><a xlink:title=" ">
<polygon fill="white" stroke="#bfbfbf" points="2980,-280.5 2980,-299.5 3015,-299.5 3015,-280.5 2980,-280.5"/>
<text text-anchor="middle" x="2997.5" y="-287.5" font-family="Arial.ttf" font-size="10.00">map</text>
</a>
</g>
</g>
<!-- Node2&#45;&gt;Node13 -->
<g id="edge12" class="edge">
<title>Node2&#45;&gt;Node13</title>
<path fill="none" stroke="midnightblue" d="M1735.8,-344.48C1863.38,-341.86 2430.64,-329.06 2894.5,-300 2919.98,-298.4 2948.93,-295.8 2969.64,-293.81"/>
<polygon fill="midnightblue" stroke="midnightblue" points="2970.05,-297.29 2979.66,-292.83 2969.36,-290.32 2970.05,-297.29"/>
</g>
<!-- Node14 -->
<g id="node14" class="node">
<title>Node14</title>
<g id="a_node14"><a xlink:title=" ">
<polygon fill="white" stroke="#bfbfbf" points="2505,-280.5 2505,-299.5 2548,-299.5 2548,-280.5 2505,-280.5"/>
<text text-anchor="middle" x="2526.5" y="-287.5" font-family="Arial.ttf" font-size="10.00">queue</text>
</a>
</g>
</g>
<!-- Node2&#45;&gt;Node14 -->
<g id="edge13" class="edge">
<title>Node2&#45;&gt;Node14</title>
<path fill="none" stroke="midnightblue" d="M1735.84,-344.32C1852.73,-341.19 2325.9,-327.19 2494.73,-299.88"/>
<polygon fill="midnightblue" stroke="midnightblue" points="2495.41,-303.31 2504.69,-298.19 2494.24,-296.41 2495.41,-303.31"/>
</g>
<!-- Node15 -->
<g id="node15" class="node">
<title>Node15</title>
<g id="a_node15"><a xlink:title=" ">
<polygon fill="white" stroke="#bfbfbf" points="0,-280.5 0,-299.5 49,-299.5 49,-280.5 0,-280.5"/>
<text text-anchor="middle" x="24.5" y="-287.5" font-family="Arial.ttf" font-size="10.00">random</text>
</a>
</g>
</g>
<!-- Node2&#45;&gt;Node15 -->
<g id="edge14" class="edge">
<title>Node2&#45;&gt;Node15</title>
<path fill="none" stroke="midnightblue" d="M1683.27,-345.12C1500.3,-345.8 412.1,-347.85 59.22,-299.66"/>
<polygon fill="midnightblue" stroke="midnightblue" points="59.64,-296.19 49.25,-298.26 58.66,-303.12 59.64,-296.19"/>
</g>
<!-- Node16 -->
<g id="node16" class="node">
<title>Node16</title>
<g id="a_node16"><a xlink:title=" ">
<polygon fill="white" stroke="#bfbfbf" points="67.5,-280.5 67.5,-299.5 119.5,-299.5 119.5,-280.5 67.5,-280.5"/>
<text text-anchor="middle" x="93.5" y="-287.5" font-family="Arial.ttf" font-size="10.00">sstream</text>
</a>
</g>
</g>
<!-- Node2&#45;&gt;Node16 -->
<g id="edge15" class="edge">
<title>Node2&#45;&gt;Node16</title>
<path fill="none" stroke="midnightblue" d="M1683.24,-345.05C1504.79,-345.3 467.52,-344.84 129.78,-299.8"/>
<polygon fill="midnightblue" stroke="midnightblue" points="130.13,-296.32 119.75,-298.42 129.18,-303.25 130.13,-296.32"/>
</g>
<!-- Node17 -->
<g id="node17" class="node">
<title>Node17</title>
<g id="a_node17"><a xlink:title=" ">
<polygon fill="white" stroke="#bfbfbf" points="138,-280.5 138,-299.5 179,-299.5 179,-280.5 138,-280.5"/>
<text text-anchor="middle" x="158.5" y="-287.5" font-family="Arial.ttf" font-size="10.00">string</text>
</a>
</g>
</g>
<!-- Node2&#45;&gt;Node17 -->
<g id="edge16" class="edge">
<title>Node2&#45;&gt;Node17</title>
<path fill="none" stroke="midnightblue" d="M1683.37,-345.16C1509.3,-346.09 514.66,-349.23 189.67,-299.64"/>
<polygon fill="midnightblue" stroke="midnightblue" points="189.74,-296.11 179.32,-298.01 188.65,-303.02 189.74,-296.11"/>
</g>
<!-- Node18 -->
<g id="node18" class="node">
<title>Node18</title>
<g id="a_node18"><a xlink:title=" ">
<polygon fill="white" stroke="#bfbfbf" points="197.5,-280.5 197.5,-299.5 241.5,-299.5 241.5,-280.5 197.5,-280.5"/>
<text text-anchor="middle" x="219.5" y="-287.5" font-family="Arial.ttf" font-size="10.00">thread</text>
</a>
</g>
</g>
<!-- Node2&#45;&gt;Node18 -->
<g id="edge17" class="edge">
<title>Node2&#45;&gt;Node18</title>
<path fill="none" stroke="midnightblue" d="M1683.35,-345.09C1513.36,-345.55 562.85,-346.06 251.61,-299.7"/>
<polygon fill="midnightblue" stroke="midnightblue" points="252.12,-296.23 241.7,-298.17 251.05,-303.15 252.12,-296.23"/>
</g>
<!-- Node19 -->
<g id="node19" class="node">
<title>Node19</title>
<g id="a_node19"><a xlink:title=" ">
<polygon fill="white" stroke="#bfbfbf" points="260,-280.5 260,-299.5 311,-299.5 311,-280.5 260,-280.5"/>
<text text-anchor="middle" x="285.5" y="-287.5" font-family="Arial.ttf" font-size="10.00">typeinfo</text>
</a>
</g>
</g>
<!-- Node2&#45;&gt;Node19 -->
<g id="edge18" class="edge">
<title>Node2&#45;&gt;Node19</title>
<path fill="none" stroke="midnightblue" d="M1683.29,-344.93C1518.14,-344.41 619.42,-339.79 321.7,-299.76"/>
<polygon fill="midnightblue" stroke="midnightblue" points="321.75,-296.24 311.37,-298.33 320.79,-303.17 321.75,-296.24"/>
</g>
<!-- Node20 -->
<g id="node20" class="node">
<title>Node20</title>
<g id="a_node20"><a xlink:title=" ">
<polygon fill="white" stroke="#bfbfbf" points="3033.5,-280.5 3033.5,-299.5 3077.5,-299.5 3077.5,-280.5 3033.5,-280.5"/>
<text text-anchor="middle" x="3055.5" y="-287.5" font-family="Arial.ttf" font-size="10.00">vector</text>
</a>
</g>
</g>
<!-- Node2&#45;&gt;Node20 -->
<g id="edge19" class="edge">
<title>Node2&#45;&gt;Node20</title>
<path fill="none" stroke="midnightblue" d="M1735.63,-344.99C1895.34,-344.79 2742.08,-341.82 3023.14,-299.74"/>
<polygon fill="midnightblue" stroke="midnightblue" points="3023.96,-303.15 3033.3,-298.16 3022.88,-296.24 3023.96,-303.15"/>
</g>
<!-- Node21 -->
<g id="node21" class="node">
<title>Node21</title>
<g id="a_node21"><a xlink:title=" ">
<polygon fill="white" stroke="#bfbfbf" points="329.5,-280.5 329.5,-299.5 381.5,-299.5 381.5,-280.5 329.5,-280.5"/>
<text text-anchor="middle" x="355.5" y="-287.5" font-family="Arial.ttf" font-size="10.00">memory</text>
</a>
</g>
</g>
<!-- Node2&#45;&gt;Node21 -->
<g id="edge20" class="edge">
<title>Node2&#45;&gt;Node21</title>
<path fill="none" stroke="midnightblue" d="M1683.31,-344.88C1523.21,-344.05 674.38,-337.96 391.96,-299.83"/>
<polygon fill="midnightblue" stroke="midnightblue" points="392.14,-296.32 381.75,-298.4 391.17,-303.25 392.14,-296.32"/>
</g>
<!-- Node22 -->
<g id="node22" class="node">
<title>Node22</title>
<g id="a_node22"><a xlink:title=" ">
<polygon fill="white" stroke="#bfbfbf" points="400,-280.5 400,-299.5 449,-299.5 449,-280.5 400,-280.5"/>
<text text-anchor="middle" x="424.5" y="-287.5" font-family="Arial.ttf" font-size="10.00">cassert</text>
</a>
</g>
</g>
<!-- Node2&#45;&gt;Node22 -->
<g id="edge21" class="edge">
<title>Node2&#45;&gt;Node22</title>
<path fill="none" stroke="midnightblue" d="M1683.37,-344.88C1528.3,-344.04 726.71,-337.99 459.28,-299.89"/>
<polygon fill="midnightblue" stroke="midnightblue" points="459.64,-296.4 449.23,-298.4 458.62,-303.33 459.64,-296.4"/>
</g>
<!-- Node23 -->
<g id="node23" class="node">
<title>Node23</title>
<g id="a_node23"><a xlink:title=" ">
<polygon fill="white" stroke="#bfbfbf" points="467,-280.5 467,-299.5 508,-299.5 508,-280.5 467,-280.5"/>
<text text-anchor="middle" x="487.5" y="-287.5" font-family="Arial.ttf" font-size="10.00">cfloat</text>
</a>
</g>
</g>
<!-- Node2&#45;&gt;Node23 -->
<g id="edge22" class="edge">
<title>Node2&#45;&gt;Node23</title>
<path fill="none" stroke="midnightblue" d="M1683.36,-344.95C1532.59,-344.51 772.38,-340.36 518.16,-299.8"/>
<polygon fill="midnightblue" stroke="midnightblue" points="518.69,-296.34 508.25,-298.16 517.54,-303.25 518.69,-296.34"/>
</g>
<!-- Node24 -->
<g id="node24" class="node">
<title>Node24</title>
<g id="a_node24"><a xlink:title=" ">
<polygon fill="white" stroke="#bfbfbf" points="526,-280.5 526,-299.5 571,-299.5 571,-280.5 526,-280.5"/>
<text text-anchor="middle" x="548.5" y="-287.5" font-family="Arial.ttf" font-size="10.00">climits</text>
</a>
</g>
</g>
<!-- Node2&#45;&gt;Node24 -->
<g id="edge23" class="edge">
<title>Node2&#45;&gt;Node24</title>
<path fill="none" stroke="midnightblue" d="M1683.34,-344.79C1537.58,-343.49 823.7,-335.47 581.23,-299.62"/>
<polygon fill="midnightblue" stroke="midnightblue" points="581.5,-296.12 571.08,-298.06 580.43,-303.04 581.5,-296.12"/>
</g>
<!-- Node25 -->
<g id="node25" class="node">
<title>Node25</title>
<g id="a_node25"><a xlink:title=" ">
<polygon fill="white" stroke="#bfbfbf" points="589.5,-280.5 589.5,-299.5 633.5,-299.5 633.5,-280.5 589.5,-280.5"/>
<text text-anchor="middle" x="611.5" y="-287.5" font-family="Arial.ttf" font-size="10.00">cmath</text>
</a>
</g>
</g>
<!-- Node2&#45;&gt;Node25 -->
<g id="edge24" class="edge">
<title>Node2&#45;&gt;Node25</title>
<path fill="none" stroke="midnightblue" d="M1683.39,-344.75C1542.58,-343.27 872.05,-334.57 643.6,-299.71"/>
<polygon fill="midnightblue" stroke="midnightblue" points="644.13,-296.25 633.7,-298.14 643.03,-303.17 644.13,-296.25"/>
</g>
<!-- Node26 -->
<g id="node26" class="node">
<title>Node26</title>
<g id="a_node26"><a xlink:title=" ">
<polygon fill="white" stroke="#bfbfbf" points="652,-280.5 652,-299.5 695,-299.5 695,-280.5 652,-280.5"/>
<text text-anchor="middle" x="673.5" y="-287.5" font-family="Arial.ttf" font-size="10.00">cstdio</text>
</a>
</g>
</g>
<!-- Node2&#45;&gt;Node26 -->
<g id="edge25" class="edge">
<title>Node2&#45;&gt;Node26</title>
<path fill="none" stroke="midnightblue" d="M1683.08,-344.7C1546.62,-343.01 920.01,-333.64 705.22,-299.85"/>
<polygon fill="midnightblue" stroke="midnightblue" points="705.74,-296.39 695.31,-298.22 704.61,-303.29 705.74,-296.39"/>
</g>
<!-- Node27 -->
<g id="node27" class="node">
<title>Node27</title>
<g id="a_node27"><a xlink:title=" ">
<polygon fill="white" stroke="#bfbfbf" points="713,-280.5 713,-299.5 758,-299.5 758,-280.5 713,-280.5"/>
<text text-anchor="middle" x="735.5" y="-287.5" font-family="Arial.ttf" font-size="10.00">cstdlib</text>
</a>
</g>
</g>
<!-- Node2&#45;&gt;Node27 -->
<g id="edge26" class="edge">
<title>Node2&#45;&gt;Node27</title>
<path fill="none" stroke="midnightblue" d="M1683.47,-344.55C1553.24,-342.2 970.92,-330.22 768.03,-299.6"/>
<polygon fill="midnightblue" stroke="midnightblue" points="768.51,-296.13 758.08,-298.03 767.42,-303.05 768.51,-296.13"/>
</g>
<!-- Node28 -->
<g id="node28" class="node">
<title>Node28</title>
<g id="a_node28"><a xlink:title=" ">
<polygon fill="white" stroke="#bfbfbf" points="776.5,-280.5 776.5,-299.5 822.5,-299.5 822.5,-280.5 776.5,-280.5"/>
<text text-anchor="middle" x="799.5" y="-287.5" font-family="Arial.ttf" font-size="10.00">cstring</text>
</a>
</g>
</g>
<!-- Node2&#45;&gt;Node28 -->
<g id="edge27" class="edge">
<title>Node2&#45;&gt;Node28</title>
<path fill="none" stroke="midnightblue" d="M1683.17,-344.44C1557.97,-341.67 1021.57,-328.43 832.84,-299.79"/>
<polygon fill="midnightblue" stroke="midnightblue" points="833.21,-296.31 822.78,-298.2 832.11,-303.22 833.21,-296.31"/>
</g>
<!-- Node29 -->
<g id="node29" class="node">
<title>Node29</title>
<g id="a_node29"><a xlink:href="_s_l_8h.html" target="_top" xlink:title=" ">
<polygon fill="white" stroke="red" points="2538,-0.5 2538,-19.5 2575,-19.5 2575,-0.5 2538,-0.5"/>
<text text-anchor="middle" x="2556.5" y="-7.5" font-family="Arial.ttf" font-size="10.00">SL.h</text>
</a>
</g>
</g>
<!-- Node2&#45;&gt;Node29 -->
<g id="edge28" class="edge">
<title>Node2&#45;&gt;Node29</title>
<path fill="none" stroke="midnightblue" d="M1701.33,-336.38C1685.57,-318.81 1652.5,-276.94 1652.5,-235 1652.5,-235 1652.5,-235 1652.5,-121 1652.5,-49.97 1729.49,-72.82 1798.5,-56 1940.71,-21.34 2406.57,-12.95 2527.57,-11.34"/>
<polygon fill="midnightblue" stroke="midnightblue" points="2527.92,-14.83 2537.88,-11.2 2527.83,-7.83 2527.92,-14.83"/>
</g>
<!-- Node33 -->
<g id="node30" class="node">
<title>Node33</title>
<g id="a_node30"><a xlink:href="_s_l_enums_8h.html" target="_top" xlink:title=" ">
<polygon fill="white" stroke="black" points="2642.5,-280.5 2642.5,-299.5 2710.5,-299.5 2710.5,-280.5 2642.5,-280.5"/>
<text text-anchor="middle" x="2676.5" y="-287.5" font-family="Arial.ttf" font-size="10.00">SLEnums.h</text>
</a>
</g>
</g>
<!-- Node2&#45;&gt;Node33 -->
<g id="edge29" class="edge">
<title>Node2&#45;&gt;Node33</title>
<path fill="none" stroke="midnightblue" d="M1735.56,-345.02C1844.82,-344.84 2276.7,-341.4 2628.5,-300 2629.78,-299.85 2631.07,-299.69 2632.38,-299.51"/>
<polygon fill="midnightblue" stroke="midnightblue" points="2633.14,-302.93 2642.5,-297.97 2632.09,-296.01 2633.14,-302.93"/>
</g>
<!-- Node34 -->
<g id="node31" class="node">
<title>Node34</title>
<g id="a_node31"><a xlink:href="_s_l_mat3_8h.html" target="_top" xlink:title=" ">
<polygon fill="white" stroke="red" points="1748,-168.5 1748,-187.5 1807,-187.5 1807,-168.5 1748,-168.5"/>
<text text-anchor="middle" x="1777.5" y="-175.5" font-family="Arial.ttf" font-size="10.00">SLMat3.h</text>
</a>
</g>
</g>
<!-- Node2&#45;&gt;Node34 -->
<g id="edge30" class="edge">
<title>Node2&#45;&gt;Node34</title>
<path fill="none" stroke="midnightblue" d="M1713.16,-336.08C1723.91,-309.83 1755.57,-232.55 1770.08,-197.12"/>
<polygon fill="midnightblue" stroke="midnightblue" points="1773.44,-198.15 1773.99,-187.57 1766.96,-195.5 1773.44,-198.15"/>
</g>
<!-- Node35 -->
<g id="node32" class="node">
<title>Node35</title>
<g id="a_node32"><a xlink:href="_s_l_vec3_8h.html" target="_top" xlink:title=" ">
<polygon fill="white" stroke="red" points="2469,-112.5 2469,-131.5 2528,-131.5 2528,-112.5 2469,-112.5"/>
<text text-anchor="middle" x="2498.5" y="-119.5" font-family="Arial.ttf" font-size="10.00">SLVec3.h</text>
</a>
</g>
</g>
<!-- Node2&#45;&gt;Node35 -->
<g id="edge52" class="edge">
<title>Node2&#45;&gt;Node35</title>
<path fill="none" stroke="midnightblue" d="M1735.55,-342.46C1779.17,-337.66 1869.31,-325.38 1941.5,-300 1959.51,-293.67 1961.84,-287.24 1979.5,-280 2153.14,-208.8 2371.08,-153.28 2459.02,-132.2"/>
<polygon fill="midnightblue" stroke="midnightblue" points="2459.93,-135.58 2468.84,-129.86 2458.3,-128.77 2459.93,-135.58"/>
</g>
<!-- Node36 -->
<g id="node33" class="node">
<title>Node36</title>
<g id="a_node33"><a xlink:href="_s_l_vec2_8h.html" target="_top" xlink:title=" ">
<polygon fill="white" stroke="red" points="2527,-56.5 2527,-75.5 2586,-75.5 2586,-56.5 2527,-56.5"/>
<text text-anchor="middle" x="2556.5" y="-63.5" font-family="Arial.ttf" font-size="10.00">SLVec2.h</text>
</a>
</g>
</g>
<!-- Node2&#45;&gt;Node36 -->
<g id="edge51" class="edge">
<title>Node2&#45;&gt;Node36</title>
<path fill="none" stroke="midnightblue" d="M1735.71,-345.11C1872.73,-345.47 2503.11,-344.67 2576.5,-300 2605.08,-282.6 2614.5,-268.46 2614.5,-235 2614.5,-235 2614.5,-235 2614.5,-177 2614.5,-140.16 2588.73,-103.57 2571.55,-83.25"/>
<polygon fill="midnightblue" stroke="midnightblue" points="2574.04,-80.79 2564.81,-75.59 2568.79,-85.41 2574.04,-80.79"/>
</g>
<!-- Node37 -->
<g id="node34" class="node">
<title>Node37</title>
<g id="a_node34"><a xlink:href="_s_l_mat4_8h.html" target="_top" xlink:title=" ">
<polygon fill="white" stroke="red" points="1864,-224.5 1864,-243.5 1923,-243.5 1923,-224.5 1864,-224.5"/>
<text text-anchor="middle" x="1893.5" y="-231.5" font-family="Arial.ttf" font-size="10.00">SLMat4.h</text>
</a>
</g>
</g>
<!-- Node2&#45;&gt;Node37 -->
<g id="edge37" class="edge">
<title>Node2&#45;&gt;Node37</title>
<path fill="none" stroke="midnightblue" d="M1717.83,-336.46C1731.28,-323.04 1759.05,-296.81 1786.5,-280 1808.75,-266.37 1835.87,-255.01 1857.24,-247.12"/>
<polygon fill="midnightblue" stroke="midnightblue" points="1858.69,-250.32 1866.92,-243.64 1856.32,-243.73 1858.69,-250.32"/>
</g>
<!-- Node39 -->
<g id="node35" class="node">
<title>Node39</title>
<g id="a_node35"><a xlink:href="_s_l_vec4_8h.html" target="_top" xlink:title=" ">
<polygon fill="white" stroke="red" points="2527,-168.5 2527,-187.5 2586,-187.5 2586,-168.5 2527,-168.5"/>
<text text-anchor="middle" x="2556.5" y="-175.5" font-family="Arial.ttf" font-size="10.00">SLVec4.h</text>
</a>
</g>
</g>
<!-- Node2&#45;&gt;Node39 -->
<g id="edge53" class="edge">
<title>Node2&#45;&gt;Node39</title>
<path fill="none" stroke="midnightblue" d="M1735.75,-344.61C1875.68,-342.42 2528.52,-330.55 2557.5,-300 2583.55,-272.54 2572.43,-223.79 2563.57,-197.33"/>
<polygon fill="midnightblue" stroke="midnightblue" points="2566.81,-196 2560.13,-187.77 2560.22,-198.37 2566.81,-196"/>
</g>
<!-- Node43 -->
<g id="node36" class="node">
<title>Node43</title>
<g id="a_node36"><a xlink:href="_s_l_object_8h.html" target="_top" xlink:title=" ">
<polygon fill="white" stroke="black" points="2820,-280.5 2820,-299.5 2885,-299.5 2885,-280.5 2820,-280.5"/>
<text text-anchor="middle" x="2852.5" y="-287.5" font-family="Arial.ttf" font-size="10.00">SLObject.h</text>
</a>
</g>
</g>
<!-- Node2&#45;&gt;Node43 -->
<g id="edge45" class="edge">
<title>Node2&#45;&gt;Node43</title>
<path fill="none" stroke="midnightblue" d="M1735.95,-344.55C1880.13,-342 2573.1,-328.52 2809.67,-299.98"/>
<polygon fill="midnightblue" stroke="midnightblue" points="2810.43,-303.41 2819.92,-298.69 2809.56,-296.46 2810.43,-303.41"/>
</g>
<!-- Node44 -->
<g id="node37" class="node">
<title>Node44</title>
<g id="a_node37"><a xlink:href="_s_l_quat4_8h.html" target="_top" xlink:title=" ">
<polygon fill="white" stroke="red" points="1795,-280.5 1795,-299.5 1858,-299.5 1858,-280.5 1795,-280.5"/>
<text text-anchor="middle" x="1826.5" y="-287.5" font-family="Arial.ttf" font-size="10.00">SLQuat4.h</text>
</a>
</g>
</g>
<!-- Node2&#45;&gt;Node44 -->
<g id="edge47" class="edge">
<title>Node2&#45;&gt;Node44</title>
<path fill="none" stroke="midnightblue" d="M1728.04,-336.44C1747.12,-327.64 1777.07,-313.81 1798.94,-303.72"/>
<polygon fill="midnightblue" stroke="midnightblue" points="1800.43,-306.88 1808.05,-299.52 1797.5,-300.53 1800.43,-306.88"/>
</g>
<!-- Node45 -->
<g id="node38" class="node">
<title>Node45</title>
<g id="a_node38"><a xlink:title=" ">
<polygon fill="white" stroke="#bfbfbf" points="840.5,-280.5 840.5,-299.5 956.5,-299.5 956.5,-280.5 840.5,-280.5"/>
<text text-anchor="middle" x="898.5" y="-287.5" font-family="Arial.ttf" font-size="10.00">opencv2/core/core.hpp</text>
</a>
</g>
</g>
<!-- Node2&#45;&gt;Node45 -->
<g id="edge54" class="edge">
<title>Node2&#45;&gt;Node45</title>
<path fill="none" stroke="midnightblue" d="M1683.42,-344.11C1588.71,-340.75 1253.92,-327.59 966.77,-300.05"/>
<polygon fill="midnightblue" stroke="midnightblue" points="966.87,-296.54 956.57,-299.07 966.19,-303.51 966.87,-296.54"/>
</g>
<!-- Node46 -->
<g id="node39" class="node">
<title>Node46</title>
<g id="a_node39"><a xlink:title=" ">
<polygon fill="white" stroke="#bfbfbf" points="975,-280.5 975,-299.5 1094,-299.5 1094,-280.5 975,-280.5"/>
<text text-anchor="middle" x="1034.5" y="-287.5" font-family="Arial.ttf" font-size="10.00">opencv2/core/utility.hpp</text>
</a>
</g>
</g>
<!-- Node2&#45;&gt;Node46 -->
<g id="edge55" class="edge">
<title>Node2&#45;&gt;Node46</title>
<path fill="none" stroke="midnightblue" d="M1683.47,-343.59C1600.62,-338.98 1335.49,-323.38 1104.59,-300.05"/>
<polygon fill="midnightblue" stroke="midnightblue" points="1104.62,-296.54 1094.32,-299.01 1103.91,-303.5 1104.62,-296.54"/>
</g>
<!-- Node47 -->
<g id="node40" class="node">
<title>Node47</title>
<g id="a_node40"><a xlink:title=" ">
<polygon fill="white" stroke="#bfbfbf" points="1112.5,-280.5 1112.5,-299.5 1218.5,-299.5 1218.5,-280.5 1112.5,-280.5"/>
<text text-anchor="middle" x="1165.5" y="-287.5" font-family="Arial.ttf" font-size="10.00">opencv2/highgui.hpp</text>
</a>
</g>
</g>
<!-- Node2&#45;&gt;Node47 -->
<g id="edge56" class="edge">
<title>Node2&#45;&gt;Node47</title>
<path fill="none" stroke="midnightblue" d="M1683.33,-343.03C1612.14,-337.57 1408.82,-321.31 1228.76,-300.09"/>
<polygon fill="midnightblue" stroke="midnightblue" points="1228.92,-296.59 1218.58,-298.89 1228.09,-303.54 1228.92,-296.59"/>
</g>
<!-- Node48 -->
<g id="node41" class="node">
<title>Node48</title>
<g id="a_node41"><a xlink:title=" ">
<polygon fill="white" stroke="#bfbfbf" points="1236.5,-280.5 1236.5,-299.5 1346.5,-299.5 1346.5,-280.5 1236.5,-280.5"/>
<text text-anchor="middle" x="1291.5" y="-287.5" font-family="Arial.ttf" font-size="10.00">opencv2/imgproc.hpp</text>
</a>
</g>
</g>
<!-- Node2&#45;&gt;Node48 -->
<g id="edge57" class="edge">
<title>Node2&#45;&gt;Node48</title>
<path fill="none" stroke="midnightblue" d="M1683.28,-341.79C1626.05,-334.75 1485.39,-317.31 1356.68,-300.14"/>
<polygon fill="midnightblue" stroke="midnightblue" points="1357.03,-296.66 1346.65,-298.8 1356.1,-303.6 1357.03,-296.66"/>
</g>
<!-- Node49 -->
<g id="node42" class="node">
<title>Node49</title>
<g id="a_node42"><a xlink:title=" ">
<polygon fill="white" stroke="#bfbfbf" points="1364.5,-280.5 1364.5,-299.5 1470.5,-299.5 1470.5,-280.5 1364.5,-280.5"/>
<text text-anchor="middle" x="1417.5" y="-287.5" font-family="Arial.ttf" font-size="10.00">opencv2/calib3d.hpp</text>
</a>
</g>
</g>
<!-- Node2&#45;&gt;Node49 -->
<g id="edge58" class="edge">
<title>Node2&#45;&gt;Node49</title>
<path fill="none" stroke="midnightblue" d="M1683.33,-340.16C1636.39,-331.48 1536.91,-313.08 1473.84,-301.42"/>
<polygon fill="midnightblue" stroke="midnightblue" points="1474.13,-297.91 1463.66,-299.54 1472.86,-304.8 1474.13,-297.91"/>
</g>
<!-- Node50 -->
<g id="node43" class="node">
<title>Node50</title>
<g id="a_node43"><a xlink:title=" ">
<polygon fill="white" stroke="#bfbfbf" points="1488.5,-280.5 1488.5,-299.5 1624.5,-299.5 1624.5,-280.5 1488.5,-280.5"/>
<text text-anchor="middle" x="1556.5" y="-287.5" font-family="Arial.ttf" font-size="10.00">opencv2/video/tracking.hpp</text>
</a>
</g>
</g>
<!-- Node2&#45;&gt;Node50 -->
<g id="edge59" class="edge">
<title>Node2&#45;&gt;Node50</title>
<path fill="none" stroke="midnightblue" d="M1685.26,-336.44C1659.63,-327.4 1619.01,-313.06 1590.26,-302.92"/>
<polygon fill="midnightblue" stroke="midnightblue" points="1591.22,-299.54 1580.63,-299.52 1588.89,-306.15 1591.22,-299.54"/>
</g>
<!-- Node34&#45;&gt;Node11 -->
<g id="edge36" class="edge">
<title>Node34&#45;&gt;Node11</title>
<path fill="none" stroke="midnightblue" d="M1768.91,-168.08C1761.34,-160.22 1750.12,-148.57 1740.99,-139.08"/>
<polygon fill="midnightblue" stroke="midnightblue" points="1743.38,-136.53 1733.93,-131.75 1738.34,-141.38 1743.38,-136.53"/>
</g>
<!-- Node34&#45;&gt;Node29 -->
<g id="edge31" class="edge">
<title>Node34&#45;&gt;Node29</title>
<path fill="none" stroke="midnightblue" d="M1777.64,-168.44C1778.54,-145.71 1784.43,-83.69 1821.5,-56 1878.85,-13.16 2398.44,-10.84 2527.56,-10.93"/>
<polygon fill="midnightblue" stroke="midnightblue" points="2527.83,-14.43 2537.83,-10.94 2527.84,-7.43 2527.83,-14.43"/>
</g>
<!-- Node34&#45;&gt;Node35 -->
<g id="edge32" class="edge">
<title>Node34&#45;&gt;Node35</title>
<path fill="none" stroke="midnightblue" d="M1807.11,-174.78C1920.64,-166.28 2328.33,-135.75 2458.35,-126.01"/>
<polygon fill="midnightblue" stroke="midnightblue" points="2458.93,-129.47 2468.65,-125.24 2458.41,-122.49 2458.93,-129.47"/>
</g>
<!-- Node35&#45;&gt;Node29 -->
<g id="edge33" class="edge">
<title>Node35&#45;&gt;Node29</title>
<path fill="none" stroke="midnightblue" d="M2500.05,-112.15C2502.56,-99.21 2508.31,-74.65 2518.5,-56 2524.31,-45.37 2532.88,-34.93 2540.42,-26.8"/>
<polygon fill="midnightblue" stroke="midnightblue" points="2543.03,-29.13 2547.46,-19.5 2538,-24.26 2543.03,-29.13"/>
</g>
<!-- Node35&#45;&gt;Node36 -->
<g id="edge34" class="edge">
<title>Node35&#45;&gt;Node36</title>
<path fill="none" stroke="midnightblue" d="M2507.82,-112.32C2516.39,-104.34 2529.31,-92.31 2539.69,-82.65"/>
<polygon fill="midnightblue" stroke="midnightblue" points="2542.08,-85.21 2547.01,-75.83 2537.31,-80.09 2542.08,-85.21"/>
</g>
<!-- Node36&#45;&gt;Node29 -->
<g id="edge35" class="edge">
<title>Node36&#45;&gt;Node29</title>
<path fill="none" stroke="midnightblue" d="M2556.5,-56.08C2556.5,-49.01 2556.5,-38.86 2556.5,-29.99"/>
<polygon fill="midnightblue" stroke="midnightblue" points="2560,-29.75 2556.5,-19.75 2553,-29.75 2560,-29.75"/>
</g>
<!-- Node37&#45;&gt;Node29 -->
<g id="edge38" class="edge">
<title>Node37&#45;&gt;Node29</title>
<path fill="none" stroke="midnightblue" d="M1894.16,-224.42C1895.7,-210.46 1900.81,-182.9 1917.5,-168 2011.19,-84.32 2415.51,-28.55 2527.59,-14.49"/>
<polygon fill="midnightblue" stroke="midnightblue" points="2528.3,-17.93 2537.8,-13.22 2527.44,-10.98 2528.3,-17.93"/>
</g>
<!-- Node37&#45;&gt;Node34 -->
<g id="edge39" class="edge">
<title>Node37&#45;&gt;Node34</title>
<path fill="none" stroke="midnightblue" d="M1875.12,-224.44C1856.28,-215.68 1826.77,-201.94 1805.12,-191.86"/>
<polygon fill="midnightblue" stroke="midnightblue" points="1806.34,-188.56 1795.79,-187.52 1803.38,-194.91 1806.34,-188.56"/>
</g>
<!-- Node37&#45;&gt;Node35 -->
<g id="edge40" class="edge">
<title>Node37&#45;&gt;Node35</title>
<path fill="none" stroke="midnightblue" d="M1897.6,-224.37C1905.04,-209.82 1922.27,-180.74 1946.5,-168 1991.52,-144.33 2339.29,-129.04 2458.53,-124.45"/>
<polygon fill="midnightblue" stroke="midnightblue" points="2458.83,-127.95 2468.69,-124.07 2458.56,-120.95 2458.83,-127.95"/>
</g>
<!-- Node37&#45;&gt;Node39 -->
<g id="edge41" class="edge">
<title>Node37&#45;&gt;Node39</title>
<path fill="none" stroke="midnightblue" d="M1923.28,-230.57C2030.27,-221.86 2395.33,-192.13 2516.82,-182.23"/>
<polygon fill="midnightblue" stroke="midnightblue" points="2517.12,-185.72 2526.81,-181.42 2516.56,-178.74 2517.12,-185.72"/>
</g>
<!-- Node39&#45;&gt;Node29 -->
<g id="edge42" class="edge">
<title>Node39&#45;&gt;Node29</title>
<path fill="none" stroke="midnightblue" d="M2563.27,-168.4C2578.12,-148.45 2611.01,-97.57 2595.5,-56 2591.33,-44.81 2582.98,-34.56 2575.08,-26.68"/>
<polygon fill="midnightblue" stroke="midnightblue" points="2577.2,-23.87 2567.49,-19.63 2572.44,-29 2577.2,-23.87"/>
</g>
<!-- Node39&#45;&gt;Node35 -->
<g id="edge44" class="edge">
<title>Node39&#45;&gt;Node35</title>
<path fill="none" stroke="midnightblue" d="M2547.18,-168.32C2538.61,-160.34 2525.69,-148.31 2515.31,-138.65"/>
<polygon fill="midnightblue" stroke="midnightblue" points="2517.69,-136.09 2507.99,-131.83 2512.92,-141.21 2517.69,-136.09"/>
</g>
<!-- Node39&#45;&gt;Node36 -->
<g id="edge43" class="edge">
<title>Node39&#45;&gt;Node36</title>
<path fill="none" stroke="midnightblue" d="M2556.5,-168.37C2556.5,-150.62 2556.5,-109.67 2556.5,-85.6"/>
<polygon fill="midnightblue" stroke="midnightblue" points="2560,-85.59 2556.5,-75.59 2553,-85.59 2560,-85.59"/>
</g>
<!-- Node43&#45;&gt;Node29 -->
<g id="edge46" class="edge">
<title>Node43&#45;&gt;Node29</title>
<path fill="none" stroke="midnightblue" d="M2846.52,-280.33C2834.71,-262.32 2809.5,-219.19 2809.5,-179 2809.5,-179 2809.5,-179 2809.5,-121 2809.5,-24.14 2651.6,-11.67 2585.28,-10.7"/>
<polygon fill="midnightblue" stroke="midnightblue" points="2585.13,-7.2 2575.1,-10.63 2585.08,-14.2 2585.13,-7.2"/>
</g>
<!-- Node44&#45;&gt;Node29 -->
<g id="edge48" class="edge">
<title>Node44&#45;&gt;Node29</title>
<path fill="none" stroke="midnightblue" d="M1827.68,-280.46C1830.12,-261.99 1835.5,-216.94 1835.5,-179 1835.5,-179 1835.5,-179 1835.5,-121 1835.5,-49.72 2393.3,-18.73 2527.65,-12.3"/>
<polygon fill="midnightblue" stroke="midnightblue" points="2528.13,-15.78 2537.95,-11.82 2527.8,-8.79 2528.13,-15.78"/>
</g>
<!-- Node44&#45;&gt;Node37 -->
<g id="edge49" class="edge">
<title>Node44&#45;&gt;Node37</title>
<path fill="none" stroke="midnightblue" d="M1837.26,-280.32C1847.27,-272.26 1862.39,-260.08 1874.43,-250.37"/>
<polygon fill="midnightblue" stroke="midnightblue" points="1876.95,-252.83 1882.54,-243.83 1872.56,-247.38 1876.95,-252.83"/>
</g>
<!-- Node44&#45;&gt;Node39 -->
<g id="edge50" class="edge">
<title>Node44&#45;&gt;Node39</title>
<path fill="none" stroke="midnightblue" d="M1858.24,-281.8C1861.36,-281.16 1864.49,-280.55 1867.5,-280 2112.98,-235.12 2410.53,-196.95 2516.59,-183.85"/>
<polygon fill="midnightblue" stroke="midnightblue" points="2517.33,-187.28 2526.83,-182.59 2516.48,-180.34 2517.33,-187.28"/>
</g>
<!-- Node51&#45;&gt;Node29 -->
<g id="edge61" class="edge">
<title>Node51&#45;&gt;Node29</title>
<path fill="none" stroke="midnightblue" d="M2760.51,-280.49C2750.41,-262.44 2728.5,-218.69 2728.5,-179 2728.5,-179 2728.5,-179 2728.5,-121 2728.5,-53.8 2634.16,-25.8 2585.22,-15.8"/>
<polygon fill="midnightblue" stroke="midnightblue" points="2585.72,-12.33 2575.23,-13.88 2584.39,-19.21 2585.72,-12.33"/>
</g>
<!-- Node51&#45;&gt;Node35 -->
<g id="edge62" class="edge">
<title>Node51&#45;&gt;Node35</title>
<path fill="none" stroke="midnightblue" d="M2735.61,-280.47C2676.58,-263.07 2548.18,-222.2 2518.5,-188 2507.26,-175.05 2502.34,-155.88 2500.18,-141.72"/>
<polygon fill="midnightblue" stroke="midnightblue" points="2503.64,-141.15 2498.98,-131.64 2496.69,-141.98 2503.64,-141.15"/>
</g>
<!-- Node51&#45;&gt;Node37 -->
<g id="edge64" class="edge">
<title>Node51&#45;&gt;Node37</title>
<path fill="none" stroke="midnightblue" d="M2728.92,-281.37C2725.74,-280.85 2722.57,-280.38 2719.5,-280 2418.95,-242.6 2053.05,-236.28 1933.42,-235.22"/>
<polygon fill="midnightblue" stroke="midnightblue" points="1933.29,-231.71 1923.26,-235.13 1933.24,-238.71 1933.29,-231.71"/>
</g>
<!-- Node51&#45;&gt;Node39 -->
<g id="edge63" class="edge">
<title>Node51&#45;&gt;Node39</title>
<path fill="none" stroke="midnightblue" d="M2749.1,-280.37C2712.78,-261.25 2625.34,-215.23 2581.89,-192.36"/>
<polygon fill="midnightblue" stroke="midnightblue" points="2583.3,-189.15 2572.82,-187.59 2580.04,-195.35 2583.3,-189.15"/>
</g>
<!-- Node53 -->
<g id="node46" class="node">
<title>Node53</title>
<g id="a_node46"><a xlink:href="_s_l_camera_8h.html" target="_top" xlink:title=" ">
<polygon fill="white" stroke="red" points="2751,-336.5 2751,-355.5 2822,-355.5 2822,-336.5 2751,-336.5"/>
<text text-anchor="middle" x="2786.5" y="-343.5" font-family="Arial.ttf" font-size="10.00">SLCamera.h</text>
</a>
</g>
</g>
<!-- Node52&#45;&gt;Node53 -->
<g id="edge66" class="edge">
<title>Node52&#45;&gt;Node53</title>
<path fill="none" stroke="midnightblue" d="M2734.46,-392.32C2743.63,-384.34 2757.44,-372.31 2768.53,-362.65"/>
<polygon fill="midnightblue" stroke="midnightblue" points="2771.12,-365.04 2776.36,-355.83 2766.52,-359.76 2771.12,-365.04"/>
</g>
<!-- Node55 -->
<g id="node47" class="node">
<title>Node55</title>
<g id="a_node47"><a xlink:href="_s_l_g_l_vertex_array_8h.html" target="_top" xlink:title=" ">
<polygon fill="white" stroke="red" points="2634,-336.5 2634,-355.5 2733,-355.5 2733,-336.5 2634,-336.5"/>
<text text-anchor="middle" x="2683.5" y="-343.5" font-family="Arial.ttf" font-size="10.00">SLGLVertexArray.h</text>
</a>
</g>
</g>
<!-- Node52&#45;&gt;Node55 -->
<g id="edge69" class="edge">
<title>Node52&#45;&gt;Node55</title>
<path fill="none" stroke="midnightblue" d="M2717.73,-392.08C2711.94,-384.46 2703.44,-373.26 2696.36,-363.94"/>
<polygon fill="midnightblue" stroke="midnightblue" points="2698.98,-361.6 2690.14,-355.75 2693.4,-365.83 2698.98,-361.6"/>
</g>
<!-- Node53&#45;&gt;Node33 -->
<g id="edge67" class="edge">
<title>Node53&#45;&gt;Node33</title>
<path fill="none" stroke="midnightblue" d="M2768.83,-336.32C2751.11,-327.62 2723.6,-314.12 2703.21,-304.11"/>
<polygon fill="midnightblue" stroke="midnightblue" points="2704.65,-300.92 2694.13,-299.65 2701.56,-307.2 2704.65,-300.92"/>
</g>
<!-- Node53&#45;&gt;Node51 -->
<g id="edge68" class="edge">
<title>Node53&#45;&gt;Node51</title>
<path fill="none" stroke="midnightblue" d="M2783.03,-336.08C2780.19,-328.77 2776.07,-318.18 2772.54,-309.1"/>
<polygon fill="midnightblue" stroke="midnightblue" points="2775.79,-307.8 2768.9,-299.75 2769.27,-310.34 2775.79,-307.8"/>
</g>
<!-- Node70&#45;&gt;Node13 -->
<g id="edge71" class="edge">
<title>Node70&#45;&gt;Node13</title>
<path fill="none" stroke="midnightblue" d="M2918.6,-336.32C2933.4,-327.82 2956.19,-314.73 2973.48,-304.8"/>
<polygon fill="midnightblue" stroke="midnightblue" points="2975.51,-307.67 2982.43,-299.65 2972.02,-301.6 2975.51,-307.67"/>
</g>
<!-- Node70&#45;&gt;Node39 -->
<g id="edge73" class="edge">
<title>Node70&#45;&gt;Node39</title>
<path fill="none" stroke="midnightblue" d="M2905,-336.24C2906.83,-322.53 2908.15,-295.91 2894.5,-280 2818.49,-191.39 2668.27,-178.74 2596.5,-178.06"/>
<polygon fill="midnightblue" stroke="midnightblue" points="2596.5,-174.56 2586.5,-178.04 2596.49,-181.56 2596.5,-174.56"/>
</g>
<!-- Node70&#45;&gt;Node43 -->
<g id="edge76" class="edge">
<title>Node70&#45;&gt;Node43</title>
<path fill="none" stroke="midnightblue" d="M2895.08,-336.08C2887.65,-328.22 2876.65,-316.57 2867.69,-307.08"/>
<polygon fill="midnightblue" stroke="midnightblue" points="2870.18,-304.62 2860.76,-299.75 2865.09,-309.42 2870.18,-304.62"/>
</g>
<!-- Node70&#45;&gt;Node51 -->
<g id="edge72" class="edge">
<title>Node70&#45;&gt;Node51</title>
<path fill="none" stroke="midnightblue" d="M2881.63,-336.44C2858.72,-327.48 2822.52,-313.31 2796.63,-303.18"/>
<polygon fill="midnightblue" stroke="midnightblue" points="2797.85,-299.9 2787.26,-299.52 2795.3,-306.42 2797.85,-299.9"/>
</g>
<!-- Node71 -->
<g id="node49" class="node">
<title>Node71</title>
<g id="a_node49"><a xlink:href="_s_l_g_l_uniform_8h.html" target="_top" xlink:title=" ">
<polygon fill="white" stroke="red" points="2941.5,-224.5 2941.5,-243.5 3025.5,-243.5 3025.5,-224.5 2941.5,-224.5"/>
<text text-anchor="middle" x="2983.5" y="-231.5" font-family="Arial.ttf" font-size="10.00">SLGLUniform.h</text>
</a>
</g>
</g>
<!-- Node70&#45;&gt;Node71 -->
<g id="edge74" class="edge">
<title>Node70&#45;&gt;Node71</title>
<path fill="none" stroke="midnightblue" d="M2909.78,-336.37C2922.98,-318.22 2953.83,-275.8 2971.14,-251.99"/>
<polygon fill="midnightblue" stroke="midnightblue" points="2974.2,-253.74 2977.25,-243.59 2968.54,-249.62 2974.2,-253.74"/>
</g>
<!-- Node71&#45;&gt;Node29 -->
<g id="edge75" class="edge">
<title>Node71&#45;&gt;Node29</title>
<path fill="none" stroke="midnightblue" d="M2978.51,-224.13C2961.37,-194.56 2901.6,-98.81 2823.5,-56 2782.75,-33.67 2645.71,-18.99 2585.4,-13.46"/>
<polygon fill="midnightblue" stroke="midnightblue" points="2585.34,-9.95 2575.07,-12.54 2584.72,-16.92 2585.34,-9.95"/>
</g>
<!-- Node82&#45;&gt;Node13 -->
<g id="edge80" class="edge">
<title>Node82&#45;&gt;Node13</title>
<path fill="none" stroke="midnightblue" d="M3005.85,-336.08C3004.52,-328.93 3002.62,-318.64 3000.96,-309.69"/>
<polygon fill="midnightblue" stroke="midnightblue" points="3004.38,-308.95 2999.12,-299.75 2997.5,-310.22 3004.38,-308.95"/>
</g>
<!-- Node82&#45;&gt;Node20 -->
<g id="edge79" class="edge">
<title>Node82&#45;&gt;Node20</title>
<path fill="none" stroke="midnightblue" d="M3015.43,-336.08C3022.35,-328.3 3032.57,-316.8 3040.95,-307.37"/>
<polygon fill="midnightblue" stroke="midnightblue" points="3043.69,-309.55 3047.72,-299.75 3038.46,-304.9 3043.69,-309.55"/>
</g>
<!-- Node82&#45;&gt;Node29 -->
<g id="edge78" class="edge">
<title>Node82&#45;&gt;Node29</title>
<path fill="none" stroke="midnightblue" d="M3032.65,-336.49C3050.14,-329.34 3072.7,-317.46 3086.5,-300 3105.16,-276.38 3105.5,-265.1 3105.5,-235 3105.5,-235 3105.5,-235 3105.5,-121 3105.5,-13.87 2698.54,-9.67 2585.38,-10.58"/>
<polygon fill="midnightblue" stroke="midnightblue" points="2585.05,-7.08 2575.08,-10.68 2585.12,-14.08 2585.05,-7.08"/>
</g>
</g>
</svg>
