<?xml version="1.0" encoding="UTF-8" standalone="no"?>
<!DOCTYPE svg PUBLIC "-//W3C//DTD SVG 1.1//EN"
 "http://www.w3.org/Graphics/SVG/1.1/DTD/svg11.dtd">
<!-- Generated by graphviz version 2.28.0 (20110507.0327)
 -->
<!-- Title: SLVec3.h Pages: 1 -->
<svg width="1691pt" height="196pt"
 viewBox="0.00 0.00 1691.00 196.00" xmlns="http://www.w3.org/2000/svg" xmlns:xlink="http://www.w3.org/1999/xlink">
<g id="graph1" class="graph" transform="scale(1 1) rotate(0) translate(4 192)">
<title>SLVec3.h</title>
<polygon fill="white" stroke="white" points="-4,5 -4,-192 1688,-192 1688,5 -4,5"/>
<!-- Node1 -->
<g id="node1" class="node"><title>Node1</title>
<polygon fill="#bfbfbf" stroke="black" points="849,-168.5 849,-187.5 911,-187.5 911,-168.5 849,-168.5"/>
<text text-anchor="middle" x="880" y="-175.5" font-family="Arial.ttf" font-size="10.00">SLVec3.h</text>
</g>
<!-- Node2 -->
<g id="node3" class="node"><title>Node2</title>
<a xlink:href="_s_l_8h.html" target="_top" xlink:title="SL.h">
<polygon fill="white" stroke="black" points="820,-56.5 820,-75.5 858,-75.5 858,-56.5 820,-56.5"/>
<text text-anchor="middle" x="839" y="-63.5" font-family="Arial.ttf" font-size="10.00">SL.h</text>
</a>
</g>
<!-- Node1&#45;&gt;Node2 -->
<g id="edge2" class="edge"><title>Node1&#45;&gt;Node2</title>
<path fill="none" stroke="midnightblue" d="M868.789,-168.406C859.126,-160.239 845.836,-147.002 840,-132 834.246,-117.209 834.512,-99.0541 835.92,-85.6943"/>
<polygon fill="midnightblue" stroke="midnightblue" points="839.389,-86.1586 837.265,-75.7789 832.452,-85.2179 839.389,-86.1586"/>
</g>
<!-- Node27 -->
<g id="node53" class="node"><title>Node27</title>
<a xlink:href="_s_l_vec2_8h.html" target="_top" xlink:title="SLVec2.h">
<polygon fill="white" stroke="black" points="849,-112.5 849,-131.5 911,-131.5 911,-112.5 849,-112.5"/>
<text text-anchor="middle" x="880" y="-119.5" font-family="Arial.ttf" font-size="10.00">SLVec2.h</text>
</a>
</g>
<!-- Node1&#45;&gt;Node27 -->
<g id="edge52" class="edge"><title>Node1&#45;&gt;Node27</title>
<path fill="none" stroke="midnightblue" d="M880,-168.083C880,-161.006 880,-150.861 880,-141.986"/>
<polygon fill="midnightblue" stroke="midnightblue" points="883.5,-141.751 880,-131.751 876.5,-141.751 883.5,-141.751"/>
</g>
<!-- Node28 -->
<g id="node56" class="node"><title>Node28</title>
<a xlink:href="_s_l_utils_8h.html" target="_top" xlink:title="SLUtils.h">
<polygon fill="white" stroke="black" points="929.5,-112.5 929.5,-131.5 988.5,-131.5 988.5,-112.5 929.5,-112.5"/>
<text text-anchor="middle" x="959" y="-119.5" font-family="Arial.ttf" font-size="10.00">SLUtils.h</text>
</a>
</g>
<!-- Node1&#45;&gt;Node28 -->
<g id="edge56" class="edge"><title>Node1&#45;&gt;Node28</title>
<path fill="none" stroke="midnightblue" d="M892.693,-168.324C904.901,-159.979 923.578,-147.212 938.003,-137.352"/>
<polygon fill="midnightblue" stroke="midnightblue" points="940.058,-140.187 946.339,-131.655 936.108,-134.408 940.058,-140.187"/>
</g>
<!-- Node3 -->
<g id="node5" class="node"><title>Node3</title>
<a xlink:href="_s_l_enums_8h.html" target="_top" xlink:title="SLEnums.h">
<polygon fill="white" stroke="black" points="-0.5,-0.5 -0.5,-19.5 70.5,-19.5 70.5,-0.5 -0.5,-0.5"/>
<text text-anchor="middle" x="35" y="-7.5" font-family="Arial.ttf" font-size="10.00">SLEnums.h</text>
</a>
</g>
<!-- Node2&#45;&gt;Node3 -->
<g id="edge4" class="edge"><title>Node2&#45;&gt;Node3</title>
<path fill="none" stroke="midnightblue" d="M819.816,-64.8691C734.427,-64.0781 380.309,-58.596 81.1207,-20.112"/>
<polygon fill="midnightblue" stroke="midnightblue" points="81.316,-16.608 70.9478,-18.7879 80.4124,-23.5495 81.316,-16.608"/>
</g>
<!-- Node4 -->
<g id="node7" class="node"><title>Node4</title>
<polygon fill="white" stroke="#bfbfbf" points="88.5,-0.5 88.5,-19.5 147.5,-19.5 147.5,-0.5 88.5,-0.5"/>
<text text-anchor="middle" x="118" y="-7.5" font-family="Arial.ttf" font-size="10.00">iostream</text>
</g>
<!-- Node2&#45;&gt;Node4 -->
<g id="edge6" class="edge"><title>Node2&#45;&gt;Node4</title>
<path fill="none" stroke="midnightblue" d="M819.897,-64.8623C740.084,-64.0541 425.423,-58.5498 157.623,-19.8274"/>
<polygon fill="midnightblue" stroke="midnightblue" points="158.118,-16.3627 147.717,-18.3765 157.104,-23.2888 158.118,-16.3627"/>
</g>
<!-- Node5 -->
<g id="node9" class="node"><title>Node5</title>
<polygon fill="white" stroke="#bfbfbf" points="166,-0.5 166,-19.5 222,-19.5 222,-0.5 166,-0.5"/>
<text text-anchor="middle" x="194" y="-7.5" font-family="Arial.ttf" font-size="10.00">sstream</text>
</g>
<!-- Node2&#45;&gt;Node5 -->
<g id="edge8" class="edge"><title>Node2&#45;&gt;Node5</title>
<path fill="none" stroke="midnightblue" d="M819.958,-64.7303C745.782,-63.4431 469.013,-56.4371 232.357,-19.953"/>
<polygon fill="midnightblue" stroke="midnightblue" points="232.606,-16.4494 222.185,-18.3625 231.524,-23.3654 232.606,-16.4494"/>
</g>
<!-- Node6 -->
<g id="node11" class="node"><title>Node6</title>
<polygon fill="white" stroke="#bfbfbf" points="240,-0.5 240,-19.5 294,-19.5 294,-0.5 240,-0.5"/>
<text text-anchor="middle" x="267" y="-7.5" font-family="Arial.ttf" font-size="10.00">fstream</text>
</g>
<!-- Node2&#45;&gt;Node6 -->
<g id="edge10" class="edge"><title>Node2&#45;&gt;Node6</title>
<path fill="none" stroke="midnightblue" d="M819.873,-64.5078C751.295,-62.5116 511.278,-53.5305 304.177,-19.9247"/>
<polygon fill="midnightblue" stroke="midnightblue" points="304.465,-16.4251 294.029,-18.2538 303.327,-23.3321 304.465,-16.4251"/>
</g>
<!-- Node7 -->
<g id="node13" class="node"><title>Node7</title>
<polygon fill="white" stroke="#bfbfbf" points="312.5,-0.5 312.5,-19.5 359.5,-19.5 359.5,-0.5 312.5,-0.5"/>
<text text-anchor="middle" x="336" y="-7.5" font-family="Arial.ttf" font-size="10.00">vector</text>
</g>
<!-- Node2&#45;&gt;Node7 -->
<g id="edge12" class="edge"><title>Node2&#45;&gt;Node7</title>
<path fill="none" stroke="midnightblue" d="M819.985,-64.4029C756.981,-62.1709 549.295,-52.7839 369.546,-19.9955"/>
<polygon fill="midnightblue" stroke="midnightblue" points="370.124,-16.5432 359.654,-18.1618 368.849,-23.4259 370.124,-16.5432"/>
</g>
<!-- Node8 -->
<g id="node15" class="node"><title>Node8</title>
<polygon fill="white" stroke="#bfbfbf" points="377.5,-0.5 377.5,-19.5 424.5,-19.5 424.5,-0.5 377.5,-0.5"/>
<text text-anchor="middle" x="401" y="-7.5" font-family="Arial.ttf" font-size="10.00">queue</text>
</g>
<!-- Node2&#45;&gt;Node8 -->
<g id="edge14" class="edge"><title>Node2&#45;&gt;Node8</title>
<path fill="none" stroke="midnightblue" d="M819.808,-63.9917C762.561,-60.751 587.951,-49.1748 434.722,-20.064"/>
<polygon fill="midnightblue" stroke="midnightblue" points="435.144,-16.5808 424.662,-18.1211 433.817,-23.4539 435.144,-16.5808"/>
</g>
<!-- Node9 -->
<g id="node17" class="node"><title>Node9</title>
<polygon fill="white" stroke="#bfbfbf" points="442.5,-0.5 442.5,-19.5 497.5,-19.5 497.5,-0.5 442.5,-0.5"/>
<text text-anchor="middle" x="470" y="-7.5" font-family="Arial.ttf" font-size="10.00">typeinfo</text>
</g>
<!-- Node2&#45;&gt;Node9 -->
<g id="edge16" class="edge"><title>Node2&#45;&gt;Node9</title>
<path fill="none" stroke="midnightblue" d="M819.8,-63.1035C770.013,-58.0376 632.537,-43.1068 507.908,-19.9895"/>
<polygon fill="midnightblue" stroke="midnightblue" points="508.287,-16.4996 497.813,-18.0934 506.995,-23.3793 508.287,-16.4996"/>
</g>
<!-- Node10 -->
<g id="node19" class="node"><title>Node10</title>
<polygon fill="white" stroke="#bfbfbf" points="516,-0.5 516,-19.5 560,-19.5 560,-0.5 516,-0.5"/>
<text text-anchor="middle" x="538" y="-7.5" font-family="Arial.ttf" font-size="10.00">string</text>
</g>
<!-- Node2&#45;&gt;Node10 -->
<g id="edge18" class="edge"><title>Node2&#45;&gt;Node10</title>
<path fill="none" stroke="midnightblue" d="M819.864,-62.5974C776.897,-57.0373 669.368,-42.2021 570.151,-20.0425"/>
<polygon fill="midnightblue" stroke="midnightblue" points="570.796,-16.5999 560.269,-17.8045 569.249,-23.427 570.796,-16.5999"/>
</g>
<!-- Node11 -->
<g id="node21" class="node"><title>Node11</title>
<polygon fill="white" stroke="#bfbfbf" points="578,-0.5 578,-19.5 640,-19.5 640,-0.5 578,-0.5"/>
<text text-anchor="middle" x="609" y="-7.5" font-family="Arial.ttf" font-size="10.00">algorithm</text>
</g>
<!-- Node2&#45;&gt;Node11 -->
<g id="edge20" class="edge"><title>Node2&#45;&gt;Node11</title>
<path fill="none" stroke="midnightblue" d="M819.786,-60.4889C782.616,-51.7619 700.126,-32.3948 650.071,-20.6428"/>
<polygon fill="midnightblue" stroke="midnightblue" points="650.749,-17.2067 640.213,-18.3283 649.149,-24.0214 650.749,-17.2067"/>
</g>
<!-- Node12 -->
<g id="node23" class="node"><title>Node12</title>
<polygon fill="white" stroke="#bfbfbf" points="658,-0.5 658,-19.5 696,-19.5 696,-0.5 658,-0.5"/>
<text text-anchor="middle" x="677" y="-7.5" font-family="Arial.ttf" font-size="10.00">map</text>
</g>
<!-- Node2&#45;&gt;Node12 -->
<g id="edge22" class="edge"><title>Node2&#45;&gt;Node12</title>
<path fill="none" stroke="midnightblue" d="M819.78,-58.5934C791.525,-49.175 738.576,-31.5254 705.703,-20.5676"/>
<polygon fill="midnightblue" stroke="midnightblue" points="706.788,-17.2402 696.195,-17.3982 704.575,-23.881 706.788,-17.2402"/>
</g>
<!-- Node13 -->
<g id="node25" class="node"><title>Node13</title>
<polygon fill="white" stroke="#bfbfbf" points="714,-0.5 714,-19.5 764,-19.5 764,-0.5 714,-0.5"/>
<text text-anchor="middle" x="739" y="-7.5" font-family="Arial.ttf" font-size="10.00">chrono</text>
</g>
<!-- Node2&#45;&gt;Node13 -->
<g id="edge24" class="edge"><title>Node2&#45;&gt;Node13</title>
<path fill="none" stroke="midnightblue" d="M822.933,-56.324C807.042,-47.7428 782.493,-34.486 764.042,-24.5224"/>
<polygon fill="midnightblue" stroke="midnightblue" points="765.489,-21.3264 755.027,-19.6545 762.163,-27.4857 765.489,-21.3264"/>
</g>
<!-- Node14 -->
<g id="node27" class="node"><title>Node14</title>
<polygon fill="white" stroke="#bfbfbf" points="782,-0.5 782,-19.5 830,-19.5 830,-0.5 782,-0.5"/>
<text text-anchor="middle" x="806" y="-7.5" font-family="Arial.ttf" font-size="10.00">thread</text>
</g>
<!-- Node2&#45;&gt;Node14 -->
<g id="edge26" class="edge"><title>Node2&#45;&gt;Node14</title>
<path fill="none" stroke="midnightblue" d="M833.551,-56.083C828.986,-48.6127 822.332,-37.7244 816.707,-28.5199"/>
<polygon fill="midnightblue" stroke="midnightblue" points="819.549,-26.4588 811.348,-19.7511 813.576,-30.109 819.549,-26.4588"/>
</g>
<!-- Node15 -->
<g id="node29" class="node"><title>Node15</title>
<polygon fill="white" stroke="#bfbfbf" points="848,-0.5 848,-19.5 898,-19.5 898,-0.5 848,-0.5"/>
<text text-anchor="middle" x="873" y="-7.5" font-family="Arial.ttf" font-size="10.00">atomic</text>
</g>
<!-- Node2&#45;&gt;Node15 -->
<g id="edge28" class="edge"><title>Node2&#45;&gt;Node15</title>
<path fill="none" stroke="midnightblue" d="M844.614,-56.083C849.367,-48.5341 856.318,-37.4948 862.152,-28.2298"/>
<polygon fill="midnightblue" stroke="midnightblue" points="865.124,-30.0783 867.49,-19.7511 859.2,-26.3486 865.124,-30.0783"/>
</g>
<!-- Node16 -->
<g id="node31" class="node"><title>Node16</title>
<polygon fill="white" stroke="#bfbfbf" points="916.5,-0.5 916.5,-19.5 979.5,-19.5 979.5,-0.5 916.5,-0.5"/>
<text text-anchor="middle" x="948" y="-7.5" font-family="Arial.ttf" font-size="10.00">functional</text>
</g>
<!-- Node2&#45;&gt;Node16 -->
<g id="edge30" class="edge"><title>Node2&#45;&gt;Node16</title>
<path fill="none" stroke="midnightblue" d="M856.513,-56.324C874.072,-47.6247 901.331,-34.1202 921.531,-24.113"/>
<polygon fill="midnightblue" stroke="midnightblue" points="923.124,-27.23 930.531,-19.6545 920.016,-20.9575 923.124,-27.23"/>
</g>
<!-- Node17 -->
<g id="node33" class="node"><title>Node17</title>
<polygon fill="white" stroke="#bfbfbf" points="998,-0.5 998,-19.5 1052,-19.5 1052,-0.5 998,-0.5"/>
<text text-anchor="middle" x="1025" y="-7.5" font-family="Arial.ttf" font-size="10.00">random</text>
</g>
<!-- Node2&#45;&gt;Node17 -->
<g id="edge32" class="edge"><title>Node2&#45;&gt;Node17</title>
<path fill="none" stroke="midnightblue" d="M858.205,-59.4244C888.773,-50.5499 949.026,-33.0569 988.129,-21.7044"/>
<polygon fill="midnightblue" stroke="midnightblue" points="989.199,-25.0385 997.826,-18.8891 987.247,-18.3161 989.199,-25.0385"/>
</g>
<!-- Node18 -->
<g id="node35" class="node"><title>Node18</title>
<polygon fill="white" stroke="#bfbfbf" points="1070.5,-0.5 1070.5,-19.5 1119.5,-19.5 1119.5,-0.5 1070.5,-0.5"/>
<text text-anchor="middle" x="1095" y="-7.5" font-family="Arial.ttf" font-size="10.00">stdio.h</text>
</g>
<!-- Node2&#45;&gt;Node18 -->
<g id="edge34" class="edge"><title>Node2&#45;&gt;Node18</title>
<path fill="none" stroke="midnightblue" d="M858.264,-61.2465C901.832,-52.7347 1007.65,-31.9271 1060.36,-20.0135"/>
<polygon fill="midnightblue" stroke="midnightblue" points="1061.2,-23.4115 1070.16,-17.7556 1059.63,-16.5902 1061.2,-23.4115"/>
</g>
<!-- Node19 -->
<g id="node37" class="node"><title>Node19</title>
<polygon fill="white" stroke="#bfbfbf" points="1137.5,-0.5 1137.5,-19.5 1188.5,-19.5 1188.5,-0.5 1137.5,-0.5"/>
<text text-anchor="middle" x="1163" y="-7.5" font-family="Arial.ttf" font-size="10.00">stdlib.h</text>
</g>
<!-- Node2&#45;&gt;Node19 -->
<g id="edge36" class="edge"><title>Node2&#45;&gt;Node19</title>
<path fill="none" stroke="midnightblue" d="M858.176,-61.1413C866.684,-59.4775 876.827,-57.5599 886,-56 990.06,-38.3047 1019.7,-41.3657 1127.48,-19.9066"/>
<polygon fill="midnightblue" stroke="midnightblue" points="1128.35,-23.3026 1137.46,-17.8954 1126.96,-16.4407 1128.35,-23.3026"/>
</g>
<!-- Node20 -->
<g id="node39" class="node"><title>Node20</title>
<polygon fill="white" stroke="#bfbfbf" points="1206.5,-0.5 1206.5,-19.5 1253.5,-19.5 1253.5,-0.5 1206.5,-0.5"/>
<text text-anchor="middle" x="1230" y="-7.5" font-family="Arial.ttf" font-size="10.00">float.h</text>
</g>
<!-- Node2&#45;&gt;Node20 -->
<g id="edge38" class="edge"><title>Node2&#45;&gt;Node20</title>
<path fill="none" stroke="midnightblue" d="M858.153,-60.9999C866.657,-59.31 876.803,-57.4109 886,-56 1020.31,-35.3954 1058.6,-45.8607 1196.22,-19.8577"/>
<polygon fill="midnightblue" stroke="midnightblue" points="1197.15,-23.2445 1206.31,-17.9215 1195.83,-16.3701 1197.15,-23.2445"/>
</g>
<!-- Node21 -->
<g id="node41" class="node"><title>Node21</title>
<polygon fill="white" stroke="#bfbfbf" points="1271.5,-0.5 1271.5,-19.5 1322.5,-19.5 1322.5,-0.5 1271.5,-0.5"/>
<text text-anchor="middle" x="1297" y="-7.5" font-family="Arial.ttf" font-size="10.00">limits.h</text>
</g>
<!-- Node2&#45;&gt;Node21 -->
<g id="edge40" class="edge"><title>Node2&#45;&gt;Node21</title>
<path fill="none" stroke="midnightblue" d="M858.14,-60.9135C866.642,-59.2075 876.789,-57.3199 886,-56 1048.93,-32.6526 1094.86,-48.3514 1261.39,-19.8107"/>
<polygon fill="midnightblue" stroke="midnightblue" points="1262.24,-23.216 1271.49,-18.0517 1261.03,-16.3199 1262.24,-23.216"/>
</g>
<!-- Node22 -->
<g id="node43" class="node"><title>Node22</title>
<polygon fill="white" stroke="#bfbfbf" points="1341,-0.5 1341,-19.5 1397,-19.5 1397,-0.5 1341,-0.5"/>
<text text-anchor="middle" x="1369" y="-7.5" font-family="Arial.ttf" font-size="10.00">assert.h</text>
</g>
<!-- Node2&#45;&gt;Node22 -->
<g id="edge42" class="edge"><title>Node2&#45;&gt;Node22</title>
<path fill="none" stroke="midnightblue" d="M858.131,-60.8491C866.631,-59.1312 876.78,-57.252 886,-56 1082.62,-29.3017 1135.01,-50.9542 1331,-20 1331.1,-19.9841 1331.2,-19.9681 1331.3,-19.952"/>
<polygon fill="midnightblue" stroke="midnightblue" points="1331.69,-23.4409 1340.87,-18.164 1330.4,-16.56 1331.69,-23.4409"/>
</g>
<!-- Node23 -->
<g id="node45" class="node"><title>Node23</title>
<polygon fill="white" stroke="#bfbfbf" points="1415.5,-0.5 1415.5,-19.5 1462.5,-19.5 1462.5,-0.5 1415.5,-0.5"/>
<text text-anchor="middle" x="1439" y="-7.5" font-family="Arial.ttf" font-size="10.00">time.h</text>
</g>
<!-- Node2&#45;&gt;Node23 -->
<g id="edge44" class="edge"><title>Node2&#45;&gt;Node23</title>
<path fill="none" stroke="midnightblue" d="M858.124,-60.7983C866.623,-59.071 876.773,-57.1985 886,-56 1112.48,-26.5839 1175.8,-57.7571 1405.34,-19.7366"/>
<polygon fill="midnightblue" stroke="midnightblue" points="1406.05,-23.1657 1415.33,-18.055 1404.89,-16.2627 1406.05,-23.1657"/>
</g>
<!-- Node24 -->
<g id="node47" class="node"><title>Node24</title>
<polygon fill="white" stroke="#bfbfbf" points="1480.5,-0.5 1480.5,-19.5 1543.5,-19.5 1543.5,-0.5 1480.5,-0.5"/>
<text text-anchor="middle" x="1512" y="-7.5" font-family="Arial.ttf" font-size="10.00">sys/stat.h</text>
</g>
<!-- Node2&#45;&gt;Node24 -->
<g id="edge46" class="edge"><title>Node2&#45;&gt;Node24</title>
<path fill="none" stroke="midnightblue" d="M858.12,-60.7647C866.618,-59.0312 876.768,-57.1631 886,-56 1141.17,-23.8513 1211.24,-55.2162 1470.22,-19.8623"/>
<polygon fill="midnightblue" stroke="midnightblue" points="1470.88,-23.3045 1480.3,-18.4652 1469.92,-16.3707 1470.88,-23.3045"/>
</g>
<!-- Node25 -->
<g id="node49" class="node"><title>Node25</title>
<polygon fill="white" stroke="#bfbfbf" points="1561.5,-0.5 1561.5,-19.5 1612.5,-19.5 1612.5,-0.5 1561.5,-0.5"/>
<text text-anchor="middle" x="1587" y="-7.5" font-family="Arial.ttf" font-size="10.00">math.h</text>
</g>
<!-- Node2&#45;&gt;Node25 -->
<g id="edge48" class="edge"><title>Node2&#45;&gt;Node25</title>
<path fill="none" stroke="midnightblue" d="M858.116,-60.732C866.613,-58.9924 876.764,-57.1287 886,-56 1176.94,-20.4464 1257.23,-64.1296 1551.03,-19.806"/>
<polygon fill="midnightblue" stroke="midnightblue" points="1551.77,-23.2337 1561.12,-18.2614 1550.71,-16.3143 1551.77,-23.2337"/>
</g>
<!-- Node26 -->
<g id="node51" class="node"><title>Node26</title>
<polygon fill="white" stroke="#bfbfbf" points="1630.5,-0.5 1630.5,-19.5 1683.5,-19.5 1683.5,-0.5 1630.5,-0.5"/>
<text text-anchor="middle" x="1657" y="-7.5" font-family="Arial.ttf" font-size="10.00">string.h</text>
</g>
<!-- Node2&#45;&gt;Node26 -->
<g id="edge50" class="edge"><title>Node2&#45;&gt;Node26</title>
<path fill="none" stroke="midnightblue" d="M858.113,-60.7098C866.61,-58.9661 876.761,-57.1053 886,-56 1207.41,-17.5476 1295.66,-66.8603 1620.22,-19.7676"/>
<polygon fill="midnightblue" stroke="midnightblue" points="1621,-23.1906 1630.38,-18.2727 1619.98,-16.2651 1621,-23.1906"/>
</g>
<!-- Node27&#45;&gt;Node2 -->
<g id="edge54" class="edge"><title>Node27&#45;&gt;Node2</title>
<path fill="none" stroke="midnightblue" d="M873.23,-112.083C867.438,-104.455 858.942,-93.2645 851.862,-83.9408"/>
<polygon fill="midnightblue" stroke="midnightblue" points="854.479,-81.5991 845.644,-75.7511 848.904,-85.8321 854.479,-81.5991"/>
</g>
<!-- Node29 -->
<g id="node58" class="node"><title>Node29</title>
<polygon fill="white" stroke="#bfbfbf" points="895.5,-56.5 895.5,-75.5 950.5,-75.5 950.5,-56.5 895.5,-56.5"/>
<text text-anchor="middle" x="923" y="-63.5" font-family="Arial.ttf" font-size="10.00">stdafx.h</text>
</g>
<!-- Node28&#45;&gt;Node29 -->
<g id="edge58" class="edge"><title>Node28&#45;&gt;Node29</title>
<path fill="none" stroke="midnightblue" d="M953.055,-112.083C948.023,-104.534 940.663,-93.4948 934.487,-84.2298"/>
<polygon fill="midnightblue" stroke="midnightblue" points="937.293,-82.1301 928.834,-75.7511 931.469,-86.0131 937.293,-82.1301"/>
</g>
<!-- Node30 -->
<g id="node60" class="node"><title>Node30</title>
<polygon fill="white" stroke="#bfbfbf" points="968.5,-56.5 968.5,-75.5 1021.5,-75.5 1021.5,-56.5 968.5,-56.5"/>
<text text-anchor="middle" x="995" y="-63.5" font-family="Arial.ttf" font-size="10.00">dirent.h</text>
</g>
<!-- Node28&#45;&gt;Node30 -->
<g id="edge60" class="edge"><title>Node28&#45;&gt;Node30</title>
<path fill="none" stroke="midnightblue" d="M964.945,-112.083C969.977,-104.534 977.337,-93.4948 983.513,-84.2298"/>
<polygon fill="midnightblue" stroke="midnightblue" points="986.531,-86.0131 989.166,-75.7511 980.707,-82.1301 986.531,-86.0131"/>
</g>
</g>
</svg>
