<?xml version="1.0" encoding="UTF-8" standalone="no"?>
<!DOCTYPE svg PUBLIC "-//W3C//DTD SVG 1.1//EN"
 "http://www.w3.org/Graphics/SVG/1.1/DTD/svg11.dtd">
<!-- Generated by graphviz version 2.28.0 (20110507.0327)
 -->
<!-- Title: SLVec3.h Pages: 1 -->
<svg width="1811pt" height="196pt"
 viewBox="0.00 0.00 1811.00 196.00" xmlns="http://www.w3.org/2000/svg" xmlns:xlink="http://www.w3.org/1999/xlink">
<g id="graph1" class="graph" transform="scale(1 1) rotate(0) translate(4 192)">
<title>SLVec3.h</title>
<polygon fill="white" stroke="white" points="-4,5 -4,-192 1808,-192 1808,5 -4,5"/>
<!-- Node1 -->
<g id="node1" class="node"><title>Node1</title>
<polygon fill="#bfbfbf" stroke="black" points="898,-168.5 898,-187.5 960,-187.5 960,-168.5 898,-168.5"/>
<text text-anchor="middle" x="929" y="-175.5" font-family="Arial.ttf" font-size="10.00">SLVec3.h</text>
</g>
<!-- Node2 -->
<g id="node3" class="node"><title>Node2</title>
<a xlink:href="_s_l_8h.html" target="_top" xlink:title="SL.h">
<polygon fill="white" stroke="black" points="869,-56.5 869,-75.5 907,-75.5 907,-56.5 869,-56.5"/>
<text text-anchor="middle" x="888" y="-63.5" font-family="Arial.ttf" font-size="10.00">SL.h</text>
</a>
</g>
<!-- Node1&#45;&gt;Node2 -->
<g id="edge2" class="edge"><title>Node1&#45;&gt;Node2</title>
<path fill="none" stroke="midnightblue" d="M917.789,-168.406C908.126,-160.239 894.836,-147.002 889,-132 883.246,-117.209 883.512,-99.0541 884.92,-85.6943"/>
<polygon fill="midnightblue" stroke="midnightblue" points="888.389,-86.1586 886.265,-75.7789 881.452,-85.2179 888.389,-86.1586"/>
</g>
<!-- Node29 -->
<g id="node57" class="node"><title>Node29</title>
<a xlink:href="_s_l_vec2_8h.html" target="_top" xlink:title="SLVec2.h">
<polygon fill="white" stroke="black" points="898,-112.5 898,-131.5 960,-131.5 960,-112.5 898,-112.5"/>
<text text-anchor="middle" x="929" y="-119.5" font-family="Arial.ttf" font-size="10.00">SLVec2.h</text>
</a>
</g>
<!-- Node1&#45;&gt;Node29 -->
<g id="edge56" class="edge"><title>Node1&#45;&gt;Node29</title>
<path fill="none" stroke="midnightblue" d="M929,-168.083C929,-161.006 929,-150.861 929,-141.986"/>
<polygon fill="midnightblue" stroke="midnightblue" points="932.5,-141.751 929,-131.751 925.5,-141.751 932.5,-141.751"/>
</g>
<!-- Node30 -->
<g id="node60" class="node"><title>Node30</title>
<a xlink:href="_s_l_utils_8h.html" target="_top" xlink:title="SLUtils.h">
<polygon fill="white" stroke="black" points="978.5,-112.5 978.5,-131.5 1037.5,-131.5 1037.5,-112.5 978.5,-112.5"/>
<text text-anchor="middle" x="1008" y="-119.5" font-family="Arial.ttf" font-size="10.00">SLUtils.h</text>
</a>
</g>
<!-- Node1&#45;&gt;Node30 -->
<g id="edge60" class="edge"><title>Node1&#45;&gt;Node30</title>
<path fill="none" stroke="midnightblue" d="M941.693,-168.324C953.901,-159.979 972.578,-147.212 987.003,-137.352"/>
<polygon fill="midnightblue" stroke="midnightblue" points="989.058,-140.187 995.339,-131.655 985.108,-134.408 989.058,-140.187"/>
</g>
<!-- Node3 -->
<g id="node5" class="node"><title>Node3</title>
<a xlink:href="_s_l_enums_8h.html" target="_top" xlink:title="SLEnums.h">
<polygon fill="white" stroke="black" points="-0.5,-0.5 -0.5,-19.5 70.5,-19.5 70.5,-0.5 -0.5,-0.5"/>
<text text-anchor="middle" x="35" y="-7.5" font-family="Arial.ttf" font-size="10.00">SLEnums.h</text>
</a>
</g>
<!-- Node2&#45;&gt;Node3 -->
<g id="edge4" class="edge"><title>Node2&#45;&gt;Node3</title>
<path fill="none" stroke="midnightblue" d="M868.794,-64.9655C780.057,-64.592 400.81,-60.6515 81.3323,-20.1315"/>
<polygon fill="midnightblue" stroke="midnightblue" points="81.3107,-16.6001 70.9465,-18.7985 80.4195,-23.5431 81.3107,-16.6001"/>
</g>
<!-- Node4 -->
<g id="node7" class="node"><title>Node4</title>
<polygon fill="white" stroke="#bfbfbf" points="88.5,-0.5 88.5,-19.5 147.5,-19.5 147.5,-0.5 88.5,-0.5"/>
<text text-anchor="middle" x="118" y="-7.5" font-family="Arial.ttf" font-size="10.00">iostream</text>
</g>
<!-- Node2&#45;&gt;Node4 -->
<g id="edge6" class="edge"><title>Node2&#45;&gt;Node4</title>
<path fill="none" stroke="midnightblue" d="M868.963,-64.981C785.792,-64.6591 446.013,-60.865 157.94,-19.8645"/>
<polygon fill="midnightblue" stroke="midnightblue" points="158.112,-16.3532 147.715,-18.3902 157.113,-23.2815 158.112,-16.3532"/>
</g>
<!-- Node5 -->
<g id="node9" class="node"><title>Node5</title>
<polygon fill="white" stroke="#bfbfbf" points="166,-0.5 166,-19.5 222,-19.5 222,-0.5 166,-0.5"/>
<text text-anchor="middle" x="194" y="-7.5" font-family="Arial.ttf" font-size="10.00">sstream</text>
</g>
<!-- Node2&#45;&gt;Node5 -->
<g id="edge8" class="edge"><title>Node2&#45;&gt;Node5</title>
<path fill="none" stroke="midnightblue" d="M868.787,-64.8755C790.65,-64.1223 489.078,-58.8182 232.444,-19.9544"/>
<polygon fill="midnightblue" stroke="midnightblue" points="232.598,-16.4372 222.183,-18.3788 231.535,-23.3561 232.598,-16.4372"/>
</g>
<!-- Node6 -->
<g id="node11" class="node"><title>Node6</title>
<polygon fill="white" stroke="#bfbfbf" points="240,-0.5 240,-19.5 294,-19.5 294,-0.5 240,-0.5"/>
<text text-anchor="middle" x="267" y="-7.5" font-family="Arial.ttf" font-size="10.00">fstream</text>
</g>
<!-- Node2&#45;&gt;Node6 -->
<g id="edge10" class="edge"><title>Node2&#45;&gt;Node6</title>
<path fill="none" stroke="midnightblue" d="M868.923,-64.6959C796.467,-63.2993 531.374,-55.9926 304.134,-19.9031"/>
<polygon fill="midnightblue" stroke="midnightblue" points="304.455,-16.4097 294.025,-18.2744 303.341,-23.3206 304.455,-16.4097"/>
</g>
<!-- Node7 -->
<g id="node13" class="node"><title>Node7</title>
<polygon fill="white" stroke="#bfbfbf" points="312.5,-0.5 312.5,-19.5 359.5,-19.5 359.5,-0.5 312.5,-0.5"/>
<text text-anchor="middle" x="336" y="-7.5" font-family="Arial.ttf" font-size="10.00">vector</text>
</g>
<!-- Node2&#45;&gt;Node7 -->
<g id="edge12" class="edge"><title>Node2&#45;&gt;Node7</title>
<path fill="none" stroke="midnightblue" d="M868.987,-64.5826C801.915,-62.8546 570.089,-54.712 369.793,-19.796"/>
<polygon fill="midnightblue" stroke="midnightblue" points="370.134,-16.302 359.677,-18.0047 368.914,-23.1948 370.134,-16.302"/>
</g>
<!-- Node8 -->
<g id="node15" class="node"><title>Node8</title>
<polygon fill="white" stroke="#bfbfbf" points="378,-0.5 378,-19.5 408,-19.5 408,-0.5 378,-0.5"/>
<text text-anchor="middle" x="393" y="-7.5" font-family="Arial.ttf" font-size="10.00">list</text>
</g>
<!-- Node2&#45;&gt;Node8 -->
<g id="edge14" class="edge"><title>Node2&#45;&gt;Node8</title>
<path fill="none" stroke="midnightblue" d="M868.868,-64.9656C805.498,-64.4811 596.805,-59.9178 417.893,-19.5927"/>
<polygon fill="midnightblue" stroke="midnightblue" points="418.579,-16.1592 408.049,-17.3304 417.011,-22.9814 418.579,-16.1592"/>
</g>
<!-- Node9 -->
<g id="node17" class="node"><title>Node9</title>
<polygon fill="white" stroke="#bfbfbf" points="426.5,-0.5 426.5,-19.5 473.5,-19.5 473.5,-0.5 426.5,-0.5"/>
<text text-anchor="middle" x="450" y="-7.5" font-family="Arial.ttf" font-size="10.00">queue</text>
</g>
<!-- Node2&#45;&gt;Node9 -->
<g id="edge16" class="edge"><title>Node2&#45;&gt;Node9</title>
<path fill="none" stroke="midnightblue" d="M868.808,-63.9917C811.561,-60.751 636.951,-49.1748 483.722,-20.064"/>
<polygon fill="midnightblue" stroke="midnightblue" points="484.144,-16.5808 473.662,-18.1211 482.817,-23.4539 484.144,-16.5808"/>
</g>
<!-- Node10 -->
<g id="node19" class="node"><title>Node10</title>
<polygon fill="white" stroke="#bfbfbf" points="491.5,-0.5 491.5,-19.5 546.5,-19.5 546.5,-0.5 491.5,-0.5"/>
<text text-anchor="middle" x="519" y="-7.5" font-family="Arial.ttf" font-size="10.00">typeinfo</text>
</g>
<!-- Node2&#45;&gt;Node10 -->
<g id="edge18" class="edge"><title>Node2&#45;&gt;Node10</title>
<path fill="none" stroke="midnightblue" d="M868.8,-63.1035C819.013,-58.0376 681.537,-43.1068 556.908,-19.9895"/>
<polygon fill="midnightblue" stroke="midnightblue" points="557.287,-16.4996 546.813,-18.0934 555.995,-23.3793 557.287,-16.4996"/>
</g>
<!-- Node11 -->
<g id="node21" class="node"><title>Node11</title>
<polygon fill="white" stroke="#bfbfbf" points="565,-0.5 565,-19.5 609,-19.5 609,-0.5 565,-0.5"/>
<text text-anchor="middle" x="587" y="-7.5" font-family="Arial.ttf" font-size="10.00">string</text>
</g>
<!-- Node2&#45;&gt;Node11 -->
<g id="edge20" class="edge"><title>Node2&#45;&gt;Node11</title>
<path fill="none" stroke="midnightblue" d="M868.864,-62.5974C825.897,-57.0373 718.368,-42.2021 619.151,-20.0425"/>
<polygon fill="midnightblue" stroke="midnightblue" points="619.796,-16.5999 609.269,-17.8045 618.249,-23.427 619.796,-16.5999"/>
</g>
<!-- Node12 -->
<g id="node23" class="node"><title>Node12</title>
<polygon fill="white" stroke="#bfbfbf" points="627,-0.5 627,-19.5 689,-19.5 689,-0.5 627,-0.5"/>
<text text-anchor="middle" x="658" y="-7.5" font-family="Arial.ttf" font-size="10.00">algorithm</text>
</g>
<!-- Node2&#45;&gt;Node12 -->
<g id="edge22" class="edge"><title>Node2&#45;&gt;Node12</title>
<path fill="none" stroke="midnightblue" d="M868.786,-60.4889C831.616,-51.7619 749.126,-32.3948 699.071,-20.6428"/>
<polygon fill="midnightblue" stroke="midnightblue" points="699.749,-17.2067 689.213,-18.3283 698.149,-24.0214 699.749,-17.2067"/>
</g>
<!-- Node13 -->
<g id="node25" class="node"><title>Node13</title>
<polygon fill="white" stroke="#bfbfbf" points="707,-0.5 707,-19.5 745,-19.5 745,-0.5 707,-0.5"/>
<text text-anchor="middle" x="726" y="-7.5" font-family="Arial.ttf" font-size="10.00">map</text>
</g>
<!-- Node2&#45;&gt;Node13 -->
<g id="edge24" class="edge"><title>Node2&#45;&gt;Node13</title>
<path fill="none" stroke="midnightblue" d="M868.78,-58.5934C840.525,-49.175 787.576,-31.5254 754.703,-20.5676"/>
<polygon fill="midnightblue" stroke="midnightblue" points="755.788,-17.2402 745.195,-17.3982 753.575,-23.881 755.788,-17.2402"/>
</g>
<!-- Node14 -->
<g id="node27" class="node"><title>Node14</title>
<polygon fill="white" stroke="#bfbfbf" points="763,-0.5 763,-19.5 813,-19.5 813,-0.5 763,-0.5"/>
<text text-anchor="middle" x="788" y="-7.5" font-family="Arial.ttf" font-size="10.00">chrono</text>
</g>
<!-- Node2&#45;&gt;Node14 -->
<g id="edge26" class="edge"><title>Node2&#45;&gt;Node14</title>
<path fill="none" stroke="midnightblue" d="M871.933,-56.324C856.042,-47.7428 831.493,-34.486 813.042,-24.5224"/>
<polygon fill="midnightblue" stroke="midnightblue" points="814.489,-21.3264 804.027,-19.6545 811.163,-27.4857 814.489,-21.3264"/>
</g>
<!-- Node15 -->
<g id="node29" class="node"><title>Node15</title>
<polygon fill="white" stroke="#bfbfbf" points="831,-0.5 831,-19.5 879,-19.5 879,-0.5 831,-0.5"/>
<text text-anchor="middle" x="855" y="-7.5" font-family="Arial.ttf" font-size="10.00">thread</text>
</g>
<!-- Node2&#45;&gt;Node15 -->
<g id="edge28" class="edge"><title>Node2&#45;&gt;Node15</title>
<path fill="none" stroke="midnightblue" d="M882.551,-56.083C877.986,-48.6127 871.332,-37.7244 865.707,-28.5199"/>
<polygon fill="midnightblue" stroke="midnightblue" points="868.549,-26.4588 860.348,-19.7511 862.576,-30.109 868.549,-26.4588"/>
</g>
<!-- Node16 -->
<g id="node31" class="node"><title>Node16</title>
<polygon fill="white" stroke="#bfbfbf" points="897,-0.5 897,-19.5 947,-19.5 947,-0.5 897,-0.5"/>
<text text-anchor="middle" x="922" y="-7.5" font-family="Arial.ttf" font-size="10.00">atomic</text>
</g>
<!-- Node2&#45;&gt;Node16 -->
<g id="edge30" class="edge"><title>Node2&#45;&gt;Node16</title>
<path fill="none" stroke="midnightblue" d="M893.614,-56.083C898.367,-48.5341 905.318,-37.4948 911.152,-28.2298"/>
<polygon fill="midnightblue" stroke="midnightblue" points="914.124,-30.0783 916.49,-19.7511 908.2,-26.3486 914.124,-30.0783"/>
</g>
<!-- Node17 -->
<g id="node33" class="node"><title>Node17</title>
<polygon fill="white" stroke="#bfbfbf" points="965.5,-0.5 965.5,-19.5 1028.5,-19.5 1028.5,-0.5 965.5,-0.5"/>
<text text-anchor="middle" x="997" y="-7.5" font-family="Arial.ttf" font-size="10.00">functional</text>
</g>
<!-- Node2&#45;&gt;Node17 -->
<g id="edge32" class="edge"><title>Node2&#45;&gt;Node17</title>
<path fill="none" stroke="midnightblue" d="M905.513,-56.324C923.072,-47.6247 950.331,-34.1202 970.531,-24.113"/>
<polygon fill="midnightblue" stroke="midnightblue" points="972.124,-27.23 979.531,-19.6545 969.016,-20.9575 972.124,-27.23"/>
</g>
<!-- Node18 -->
<g id="node35" class="node"><title>Node18</title>
<polygon fill="white" stroke="#bfbfbf" points="1047,-0.5 1047,-19.5 1101,-19.5 1101,-0.5 1047,-0.5"/>
<text text-anchor="middle" x="1074" y="-7.5" font-family="Arial.ttf" font-size="10.00">random</text>
</g>
<!-- Node2&#45;&gt;Node18 -->
<g id="edge34" class="edge"><title>Node2&#45;&gt;Node18</title>
<path fill="none" stroke="midnightblue" d="M907.205,-59.4244C937.773,-50.5499 998.026,-33.0569 1037.13,-21.7044"/>
<polygon fill="midnightblue" stroke="midnightblue" points="1038.2,-25.0385 1046.83,-18.8891 1036.25,-18.3161 1038.2,-25.0385"/>
</g>
<!-- Node19 -->
<g id="node37" class="node"><title>Node19</title>
<polygon fill="white" stroke="#bfbfbf" points="1119.5,-0.5 1119.5,-19.5 1172.5,-19.5 1172.5,-0.5 1119.5,-0.5"/>
<text text-anchor="middle" x="1146" y="-7.5" font-family="Arial.ttf" font-size="10.00">cstdarg</text>
</g>
<!-- Node2&#45;&gt;Node19 -->
<g id="edge36" class="edge"><title>Node2&#45;&gt;Node19</title>
<path fill="none" stroke="midnightblue" d="M907.256,-61.2125C950.807,-52.6291 1056.59,-31.6777 1109.46,-20.0194"/>
<polygon fill="midnightblue" stroke="midnightblue" points="1110.3,-23.418 1119.3,-17.8181 1108.77,-16.587 1110.3,-23.418"/>
</g>
<!-- Node20 -->
<g id="node39" class="node"><title>Node20</title>
<polygon fill="white" stroke="#bfbfbf" points="1190.5,-0.5 1190.5,-19.5 1239.5,-19.5 1239.5,-0.5 1190.5,-0.5"/>
<text text-anchor="middle" x="1215" y="-7.5" font-family="Arial.ttf" font-size="10.00">stdio.h</text>
</g>
<!-- Node2&#45;&gt;Node20 -->
<g id="edge38" class="edge"><title>Node2&#45;&gt;Node20</title>
<path fill="none" stroke="midnightblue" d="M907.174,-61.131C915.682,-59.4653 925.825,-57.549 935,-56 1040.76,-38.1437 1070.99,-41.9255 1180.1,-19.9733"/>
<polygon fill="midnightblue" stroke="midnightblue" points="1181.1,-23.3416 1190.19,-17.914 1179.7,-16.4828 1181.1,-23.3416"/>
</g>
<!-- Node21 -->
<g id="node41" class="node"><title>Node21</title>
<polygon fill="white" stroke="#bfbfbf" points="1257.5,-0.5 1257.5,-19.5 1308.5,-19.5 1308.5,-0.5 1257.5,-0.5"/>
<text text-anchor="middle" x="1283" y="-7.5" font-family="Arial.ttf" font-size="10.00">stdlib.h</text>
</g>
<!-- Node2&#45;&gt;Node21 -->
<g id="edge40" class="edge"><title>Node2&#45;&gt;Node21</title>
<path fill="none" stroke="midnightblue" d="M907.153,-60.9968C915.656,-59.3062 925.802,-57.4076 935,-56 1070.17,-35.314 1108.53,-45.0133 1247.31,-19.8663"/>
<polygon fill="midnightblue" stroke="midnightblue" points="1248.27,-23.2471 1257.48,-17.9946 1247.01,-16.3628 1248.27,-23.2471"/>
</g>
<!-- Node22 -->
<g id="node43" class="node"><title>Node22</title>
<polygon fill="white" stroke="#bfbfbf" points="1326.5,-0.5 1326.5,-19.5 1373.5,-19.5 1373.5,-0.5 1326.5,-0.5"/>
<text text-anchor="middle" x="1350" y="-7.5" font-family="Arial.ttf" font-size="10.00">float.h</text>
</g>
<!-- Node2&#45;&gt;Node22 -->
<g id="edge42" class="edge"><title>Node2&#45;&gt;Node22</title>
<path fill="none" stroke="midnightblue" d="M907.139,-60.907C915.641,-59.1998 925.788,-57.313 935,-56 1100.61,-32.395 1147.45,-49.8546 1316.34,-19.7884"/>
<polygon fill="midnightblue" stroke="midnightblue" points="1317.1,-23.2081 1326.32,-17.983 1315.86,-16.32 1317.1,-23.2081"/>
</g>
<!-- Node23 -->
<g id="node45" class="node"><title>Node23</title>
<polygon fill="white" stroke="#bfbfbf" points="1391.5,-0.5 1391.5,-19.5 1442.5,-19.5 1442.5,-0.5 1391.5,-0.5"/>
<text text-anchor="middle" x="1417" y="-7.5" font-family="Arial.ttf" font-size="10.00">limits.h</text>
</g>
<!-- Node2&#45;&gt;Node23 -->
<g id="edge44" class="edge"><title>Node2&#45;&gt;Node23</title>
<path fill="none" stroke="midnightblue" d="M907.131,-60.8475C915.631,-59.1293 925.779,-57.2503 935,-56 1129.22,-29.6626 1183.63,-52.1653 1381.36,-19.7844"/>
<polygon fill="midnightblue" stroke="midnightblue" points="1382.2,-23.1915 1391.49,-18.097 1381.06,-16.2865 1382.2,-23.1915"/>
</g>
<!-- Node24 -->
<g id="node47" class="node"><title>Node24</title>
<polygon fill="white" stroke="#bfbfbf" points="1461,-0.5 1461,-19.5 1517,-19.5 1517,-0.5 1461,-0.5"/>
<text text-anchor="middle" x="1489" y="-7.5" font-family="Arial.ttf" font-size="10.00">assert.h</text>
</g>
<!-- Node2&#45;&gt;Node24 -->
<g id="edge46" class="edge"><title>Node2&#45;&gt;Node24</title>
<path fill="none" stroke="midnightblue" d="M907.125,-60.8006C915.623,-59.0737 925.773,-57.2009 935,-56 1162.97,-26.329 1223.73,-54.6058 1451,-20 1451.1,-19.9847 1451.2,-19.9693 1451.3,-19.9537"/>
<polygon fill="midnightblue" stroke="midnightblue" points="1451.67,-23.4441 1460.88,-18.1993 1450.41,-16.5587 1451.67,-23.4441"/>
</g>
<!-- Node25 -->
<g id="node49" class="node"><title>Node25</title>
<polygon fill="white" stroke="#bfbfbf" points="1535.5,-0.5 1535.5,-19.5 1582.5,-19.5 1582.5,-0.5 1535.5,-0.5"/>
<text text-anchor="middle" x="1559" y="-7.5" font-family="Arial.ttf" font-size="10.00">time.h</text>
</g>
<!-- Node2&#45;&gt;Node25 -->
<g id="edge48" class="edge"><title>Node2&#45;&gt;Node25</title>
<path fill="none" stroke="midnightblue" d="M907.12,-60.762C915.618,-59.028 925.768,-57.1603 935,-56 1192.78,-23.6031 1264.54,-61.8506 1525.19,-19.7435"/>
<polygon fill="midnightblue" stroke="midnightblue" points="1526.03,-23.1514 1535.34,-18.079 1524.9,-16.2437 1526.03,-23.1514"/>
</g>
<!-- Node26 -->
<g id="node51" class="node"><title>Node26</title>
<polygon fill="white" stroke="#bfbfbf" points="1600.5,-0.5 1600.5,-19.5 1663.5,-19.5 1663.5,-0.5 1600.5,-0.5"/>
<text text-anchor="middle" x="1632" y="-7.5" font-family="Arial.ttf" font-size="10.00">sys/stat.h</text>
</g>
<!-- Node2&#45;&gt;Node26 -->
<g id="edge50" class="edge"><title>Node2&#45;&gt;Node26</title>
<path fill="none" stroke="midnightblue" d="M907.117,-60.7356C915.614,-58.9967 925.764,-57.1325 935,-56 1221.57,-20.8609 1299.93,-58.5651 1590.33,-19.8357"/>
<polygon fill="midnightblue" stroke="midnightblue" points="1590.87,-23.295 1600.31,-18.4863 1589.93,-16.3582 1590.87,-23.295"/>
</g>
<!-- Node27 -->
<g id="node53" class="node"><title>Node27</title>
<polygon fill="white" stroke="#bfbfbf" points="1681.5,-0.5 1681.5,-19.5 1732.5,-19.5 1732.5,-0.5 1681.5,-0.5"/>
<text text-anchor="middle" x="1707" y="-7.5" font-family="Arial.ttf" font-size="10.00">math.h</text>
</g>
<!-- Node2&#45;&gt;Node27 -->
<g id="edge52" class="edge"><title>Node2&#45;&gt;Node27</title>
<path fill="none" stroke="midnightblue" d="M907.113,-60.7093C915.61,-58.9655 925.761,-57.1047 935,-56 1257.29,-17.4646 1345.94,-68.0311 1670.95,-19.8075"/>
<polygon fill="midnightblue" stroke="midnightblue" points="1671.76,-23.2251 1681.13,-18.2767 1670.72,-16.303 1671.76,-23.2251"/>
</g>
<!-- Node28 -->
<g id="node55" class="node"><title>Node28</title>
<polygon fill="white" stroke="#bfbfbf" points="1750.5,-0.5 1750.5,-19.5 1803.5,-19.5 1803.5,-0.5 1750.5,-0.5"/>
<text text-anchor="middle" x="1777" y="-7.5" font-family="Arial.ttf" font-size="10.00">string.h</text>
</g>
<!-- Node2&#45;&gt;Node28 -->
<g id="edge54" class="edge"><title>Node2&#45;&gt;Node28</title>
<path fill="none" stroke="midnightblue" d="M907.111,-60.691C915.607,-58.9438 925.759,-57.0854 935,-56 1287.83,-14.5594 1384.39,-70.6838 1740.31,-19.745"/>
<polygon fill="midnightblue" stroke="midnightblue" points="1740.99,-23.1841 1750.38,-18.2857 1739.98,-16.2565 1740.99,-23.1841"/>
</g>
<!-- Node29&#45;&gt;Node2 -->
<g id="edge58" class="edge"><title>Node29&#45;&gt;Node2</title>
<path fill="none" stroke="midnightblue" d="M922.23,-112.083C916.438,-104.455 907.942,-93.2645 900.862,-83.9408"/>
<polygon fill="midnightblue" stroke="midnightblue" points="903.479,-81.5991 894.644,-75.7511 897.904,-85.8321 903.479,-81.5991"/>
</g>
<!-- Node31 -->
<g id="node62" class="node"><title>Node31</title>
<polygon fill="white" stroke="#bfbfbf" points="944.5,-56.5 944.5,-75.5 999.5,-75.5 999.5,-56.5 944.5,-56.5"/>
<text text-anchor="middle" x="972" y="-63.5" font-family="Arial.ttf" font-size="10.00">stdafx.h</text>
</g>
<!-- Node30&#45;&gt;Node31 -->
<g id="edge62" class="edge"><title>Node30&#45;&gt;Node31</title>
<path fill="none" stroke="midnightblue" d="M1002.06,-112.083C997.023,-104.534 989.663,-93.4948 983.487,-84.2298"/>
<polygon fill="midnightblue" stroke="midnightblue" points="986.293,-82.1301 977.834,-75.7511 980.469,-86.0131 986.293,-82.1301"/>
</g>
<!-- Node32 -->
<g id="node64" class="node"><title>Node32</title>
<polygon fill="white" stroke="#bfbfbf" points="1017.5,-56.5 1017.5,-75.5 1070.5,-75.5 1070.5,-56.5 1017.5,-56.5"/>
<text text-anchor="middle" x="1044" y="-63.5" font-family="Arial.ttf" font-size="10.00">dirent.h</text>
</g>
<!-- Node30&#45;&gt;Node32 -->
<g id="edge64" class="edge"><title>Node30&#45;&gt;Node32</title>
<path fill="none" stroke="midnightblue" d="M1013.94,-112.083C1018.98,-104.534 1026.34,-93.4948 1032.51,-84.2298"/>
<polygon fill="midnightblue" stroke="midnightblue" points="1035.53,-86.0131 1038.17,-75.7511 1029.71,-82.1301 1035.53,-86.0131"/>
</g>
</g>
</svg>
