<?xml version="1.0" encoding="UTF-8" standalone="no"?>
<!DOCTYPE svg PUBLIC "-//W3C//DTD SVG 1.1//EN"
 "http://www.w3.org/Graphics/SVG/1.1/DTD/svg11.dtd">
<!-- Generated by graphviz version 2.44.0 (20200408.0750)
 -->
<!-- Title: SLSkeleton.cpp Pages: 1 -->
<svg width="3262pt" height="420pt"
 viewBox="0.00 0.00 3262.25 420.00" xmlns="http://www.w3.org/2000/svg" xmlns:xlink="http://www.w3.org/1999/xlink">
<g id="graph0" class="graph" transform="scale(1 1) rotate(0) translate(4 416)">
<title>SLSkeleton.cpp</title>
<polygon fill="white" stroke="transparent" points="-4,4 -4,-416 3258.25,-416 3258.25,4 -4,4"/>
<!-- Node1 -->
<g id="node1" class="node">
<title>Node1</title>
<g id="a_node1"><a xlink:title=" ">
<polygon fill="#bfbfbf" stroke="black" points="2903.75,-392.5 2903.75,-411.5 2989.75,-411.5 2989.75,-392.5 2903.75,-392.5"/>
<text text-anchor="middle" x="2946.75" y="-399.5" font-family="Arial.ttf" font-size="10.00">SLSkeleton.cpp</text>
</a>
</g>
</g>
<!-- Node2 -->
<g id="node2" class="node">
<title>Node2</title>
<g id="a_node2"><a xlink:href="stdafx_8h.html" target="_top" xlink:title=" ">
<polygon fill="white" stroke="black" points="1208.75,-336.5 1208.75,-355.5 1260.75,-355.5 1260.75,-336.5 1208.75,-336.5"/>
<text text-anchor="middle" x="1234.75" y="-343.5" font-family="Arial.ttf" font-size="10.00">stdafx.h</text>
</a>
</g>
</g>
<!-- Node1&#45;&gt;Node2 -->
<g id="edge1" class="edge">
<title>Node1&#45;&gt;Node2</title>
<path fill="none" stroke="midnightblue" d="M2903.57,-399.64C2663.25,-392.06 1493.29,-355.15 1271.19,-348.15"/>
<polygon fill="midnightblue" stroke="midnightblue" points="1271.15,-344.65 1261.05,-347.83 1270.93,-351.64 1271.15,-344.65"/>
</g>
<!-- Node51 -->
<g id="node44" class="node">
<title>Node51</title>
<g id="a_node44"><a xlink:href="_s_l_scene_8h.html" target="_top" xlink:title=" ">
<polygon fill="white" stroke="red" points="2915.25,-280.5 2915.25,-299.5 2980.25,-299.5 2980.25,-280.5 2915.25,-280.5"/>
<text text-anchor="middle" x="2947.75" y="-287.5" font-family="Arial.ttf" font-size="10.00">SLScene.h</text>
</a>
</g>
</g>
<!-- Node1&#45;&gt;Node51 -->
<g id="edge60" class="edge">
<title>Node1&#45;&gt;Node51</title>
<path fill="none" stroke="midnightblue" d="M2942.44,-392.23C2936.87,-379.8 2928.24,-356.31 2931.75,-336 2933.32,-326.91 2936.54,-317.22 2939.69,-309.17"/>
<polygon fill="midnightblue" stroke="midnightblue" points="2943.01,-310.3 2943.64,-299.72 2936.55,-307.6 2943.01,-310.3"/>
</g>
<!-- Node71 -->
<g id="node47" class="node">
<title>Node71</title>
<g id="a_node47"><a xlink:href="_s_l_skeleton_8h.html" target="_top" xlink:title=" ">
<polygon fill="white" stroke="red" points="3179.25,-168.5 3179.25,-187.5 3254.25,-187.5 3254.25,-168.5 3179.25,-168.5"/>
<text text-anchor="middle" x="3216.75" y="-175.5" font-family="Arial.ttf" font-size="10.00">SLSkeleton.h</text>
</a>
</g>
</g>
<!-- Node1&#45;&gt;Node71 -->
<g id="edge73" class="edge">
<title>Node1&#45;&gt;Node71</title>
<path fill="none" stroke="midnightblue" d="M2989.96,-392.88C3058.25,-377.45 3189.09,-336.77 3244.75,-244 3254.17,-228.29 3243.13,-208.84 3232.26,-195.33"/>
<polygon fill="midnightblue" stroke="midnightblue" points="3234.89,-193.03 3225.7,-187.77 3229.61,-197.62 3234.89,-193.03"/>
</g>
<!-- Node94 -->
<g id="node50" class="node">
<title>Node94</title>
<g id="a_node50"><a xlink:href="_s_l_scene_view_8h.html" target="_top" xlink:title=" ">
<polygon fill="white" stroke="red" points="2940.25,-336.5 2940.25,-355.5 3025.25,-355.5 3025.25,-336.5 2940.25,-336.5"/>
<text text-anchor="middle" x="2982.75" y="-343.5" font-family="Arial.ttf" font-size="10.00">SLSceneView.h</text>
</a>
</g>
</g>
<!-- Node1&#45;&gt;Node94 -->
<g id="edge71" class="edge">
<title>Node1&#45;&gt;Node94</title>
<path fill="none" stroke="midnightblue" d="M2952.69,-392.08C2957.73,-384.53 2965.09,-373.49 2971.26,-364.23"/>
<polygon fill="midnightblue" stroke="midnightblue" points="2974.28,-366.01 2976.91,-355.75 2968.46,-362.13 2974.28,-366.01"/>
</g>
<!-- Node3 -->
<g id="node3" class="node">
<title>Node3</title>
<g id="a_node3"><a xlink:title=" ">
<polygon fill="white" stroke="#bfbfbf" points="2170.75,-280.5 2170.75,-299.5 2226.75,-299.5 2226.75,-280.5 2170.75,-280.5"/>
<text text-anchor="middle" x="2198.75" y="-287.5" font-family="Arial.ttf" font-size="10.00">algorithm</text>
</a>
</g>
</g>
<!-- Node2&#45;&gt;Node3 -->
<g id="edge2" class="edge">
<title>Node2&#45;&gt;Node3</title>
<path fill="none" stroke="midnightblue" d="M1260.77,-344.41C1389.63,-341.36 1960.76,-326.68 2160.5,-299.85"/>
<polygon fill="midnightblue" stroke="midnightblue" points="2161.16,-303.29 2170.58,-298.44 2160.19,-296.36 2161.16,-303.29"/>
</g>
<!-- Node4 -->
<g id="node4" class="node">
<title>Node4</title>
<g id="a_node4"><a xlink:title=" ">
<polygon fill="white" stroke="#bfbfbf" points="2244.75,-280.5 2244.75,-299.5 2290.75,-299.5 2290.75,-280.5 2244.75,-280.5"/>
<text text-anchor="middle" x="2267.75" y="-287.5" font-family="Arial.ttf" font-size="10.00">atomic</text>
</a>
</g>
</g>
<!-- Node2&#45;&gt;Node4 -->
<g id="edge3" class="edge">
<title>Node2&#45;&gt;Node4</title>
<path fill="none" stroke="midnightblue" d="M1261.03,-344.63C1396.76,-342.62 2020.04,-331.85 2234.57,-299.76"/>
<polygon fill="midnightblue" stroke="midnightblue" points="2235.13,-303.21 2244.47,-298.21 2234.05,-296.3 2235.13,-303.21"/>
</g>
<!-- Node5 -->
<g id="node5" class="node">
<title>Node5</title>
<g id="a_node5"><a xlink:title=" ">
<polygon fill="white" stroke="#bfbfbf" points="2308.75,-280.5 2308.75,-299.5 2354.75,-299.5 2354.75,-280.5 2308.75,-280.5"/>
<text text-anchor="middle" x="2331.75" y="-287.5" font-family="Arial.ttf" font-size="10.00">chrono</text>
</a>
</g>
</g>
<!-- Node2&#45;&gt;Node5 -->
<g id="edge4" class="edge">
<title>Node2&#45;&gt;Node5</title>
<path fill="none" stroke="midnightblue" d="M1260.81,-344.72C1401.25,-343.08 2069.82,-333.67 2298.25,-299.8"/>
<polygon fill="midnightblue" stroke="midnightblue" points="2299.12,-303.21 2308.47,-298.22 2298.05,-296.29 2299.12,-303.21"/>
</g>
<!-- Node6 -->
<g id="node6" class="node">
<title>Node6</title>
<g id="a_node6"><a xlink:title=" ">
<polygon fill="white" stroke="#bfbfbf" points="2373.25,-280.5 2373.25,-299.5 2422.25,-299.5 2422.25,-280.5 2373.25,-280.5"/>
<text text-anchor="middle" x="2397.75" y="-287.5" font-family="Arial.ttf" font-size="10.00">cstdarg</text>
</a>
</g>
</g>
<!-- Node2&#45;&gt;Node6 -->
<g id="edge5" class="edge">
<title>Node2&#45;&gt;Node6</title>
<path fill="none" stroke="midnightblue" d="M1260.9,-344.73C1406.62,-343.14 2120.3,-333.79 2362.84,-299.71"/>
<polygon fill="midnightblue" stroke="midnightblue" points="2363.61,-303.13 2373,-298.22 2362.6,-296.2 2363.61,-303.13"/>
</g>
<!-- Node7 -->
<g id="node7" class="node">
<title>Node7</title>
<g id="a_node7"><a xlink:title=" ">
<polygon fill="white" stroke="#bfbfbf" points="2440.25,-280.5 2440.25,-299.5 2481.25,-299.5 2481.25,-280.5 2440.25,-280.5"/>
<text text-anchor="middle" x="2460.75" y="-287.5" font-family="Arial.ttf" font-size="10.00">ctime</text>
</a>
</g>
</g>
<!-- Node2&#45;&gt;Node7 -->
<g id="edge6" class="edge">
<title>Node2&#45;&gt;Node7</title>
<path fill="none" stroke="midnightblue" d="M1260.98,-344.95C1412.25,-344.53 2175.01,-340.48 2430.05,-299.81"/>
<polygon fill="midnightblue" stroke="midnightblue" points="2430.71,-303.25 2440,-298.16 2429.56,-296.34 2430.71,-303.25"/>
</g>
<!-- Node8 -->
<g id="node8" class="node">
<title>Node8</title>
<g id="a_node8"><a xlink:title=" ">
<polygon fill="white" stroke="#bfbfbf" points="2499.75,-280.5 2499.75,-299.5 2549.75,-299.5 2549.75,-280.5 2499.75,-280.5"/>
<text text-anchor="middle" x="2524.75" y="-287.5" font-family="Arial.ttf" font-size="10.00">fstream</text>
</a>
</g>
</g>
<!-- Node2&#45;&gt;Node8 -->
<g id="edge7" class="edge">
<title>Node2&#45;&gt;Node8</title>
<path fill="none" stroke="midnightblue" d="M1260.96,-344.86C1416.5,-343.88 2220.54,-337.18 2489.52,-299.78"/>
<polygon fill="midnightblue" stroke="midnightblue" points="2490.23,-303.21 2499.63,-298.32 2489.23,-296.28 2490.23,-303.21"/>
</g>
<!-- Node9 -->
<g id="node9" class="node">
<title>Node9</title>
<g id="a_node9"><a xlink:title=" ">
<polygon fill="white" stroke="#bfbfbf" points="2568.25,-280.5 2568.25,-299.5 2627.25,-299.5 2627.25,-280.5 2568.25,-280.5"/>
<text text-anchor="middle" x="2597.75" y="-287.5" font-family="Arial.ttf" font-size="10.00">functional</text>
</a>
</g>
</g>
<!-- Node2&#45;&gt;Node9 -->
<g id="edge8" class="edge">
<title>Node2&#45;&gt;Node9</title>
<path fill="none" stroke="midnightblue" d="M1260.76,-344.8C1420.73,-343.47 2273.19,-334.88 2557.76,-299.79"/>
<polygon fill="midnightblue" stroke="midnightblue" points="2558.57,-303.21 2568.05,-298.48 2557.68,-296.27 2558.57,-303.21"/>
</g>
<!-- Node10 -->
<g id="node10" class="node">
<title>Node10</title>
<g id="a_node10"><a xlink:title=" ">
<polygon fill="white" stroke="#bfbfbf" points="2645.75,-280.5 2645.75,-299.5 2695.75,-299.5 2695.75,-280.5 2645.75,-280.5"/>
<text text-anchor="middle" x="2670.75" y="-287.5" font-family="Arial.ttf" font-size="10.00">iomanip</text>
</a>
</g>
</g>
<!-- Node2&#45;&gt;Node10 -->
<g id="edge9" class="edge">
<title>Node2&#45;&gt;Node10</title>
<path fill="none" stroke="midnightblue" d="M1260.94,-344.97C1427.02,-344.65 2335.89,-341.11 2635.65,-299.75"/>
<polygon fill="midnightblue" stroke="midnightblue" points="2636.22,-303.21 2645.63,-298.33 2635.24,-296.28 2636.22,-303.21"/>
</g>
<!-- Node11 -->
<g id="node11" class="node">
<title>Node11</title>
<g id="a_node11"><a xlink:title=" ">
<polygon fill="white" stroke="#bfbfbf" points="437.75,-112.5 437.75,-131.5 491.75,-131.5 491.75,-112.5 437.75,-112.5"/>
<text text-anchor="middle" x="464.75" y="-119.5" font-family="Arial.ttf" font-size="10.00">iostream</text>
</a>
</g>
</g>
<!-- Node2&#45;&gt;Node11 -->
<g id="edge10" class="edge">
<title>Node2&#45;&gt;Node11</title>
<path fill="none" stroke="midnightblue" d="M1208.49,-345.04C1035.6,-345.21 66.29,-344.15 23.75,-300 -100.13,-171.43 300.6,-133.74 427.49,-125.16"/>
<polygon fill="midnightblue" stroke="midnightblue" points="427.78,-128.65 437.53,-124.51 427.32,-121.67 427.78,-128.65"/>
</g>
<!-- Node12 -->
<g id="node12" class="node">
<title>Node12</title>
<g id="a_node12"><a xlink:title=" ">
<polygon fill="white" stroke="#bfbfbf" points="2752.25,-280.5 2752.25,-299.5 2781.25,-299.5 2781.25,-280.5 2752.25,-280.5"/>
<text text-anchor="middle" x="2766.75" y="-287.5" font-family="Arial.ttf" font-size="10.00">list</text>
</a>
</g>
</g>
<!-- Node2&#45;&gt;Node12 -->
<g id="edge11" class="edge">
<title>Node2&#45;&gt;Node12</title>
<path fill="none" stroke="midnightblue" d="M1260.85,-345.18C1435.57,-346.26 2437.29,-350.16 2737.75,-300 2739.24,-299.75 2740.77,-299.44 2742.3,-299.09"/>
<polygon fill="midnightblue" stroke="midnightblue" points="2743.48,-302.4 2752.18,-296.37 2741.61,-295.65 2743.48,-302.4"/>
</g>
<!-- Node13 -->
<g id="node13" class="node">
<title>Node13</title>
<g id="a_node13"><a xlink:title=" ">
<polygon fill="white" stroke="#bfbfbf" points="2752.25,-224.5 2752.25,-243.5 2787.25,-243.5 2787.25,-224.5 2752.25,-224.5"/>
<text text-anchor="middle" x="2769.75" y="-231.5" font-family="Arial.ttf" font-size="10.00">map</text>
</a>
</g>
</g>
<!-- Node2&#45;&gt;Node13 -->
<g id="edge12" class="edge">
<title>Node2&#45;&gt;Node13</title>
<path fill="none" stroke="midnightblue" d="M1260.93,-344.75C1462.66,-342.73 2762.96,-328.61 2790.75,-300 2803.34,-287.04 2793.5,-266.48 2783.48,-251.96"/>
<polygon fill="midnightblue" stroke="midnightblue" points="2786.19,-249.74 2777.41,-243.82 2780.58,-253.93 2786.19,-249.74"/>
</g>
<!-- Node14 -->
<g id="node14" class="node">
<title>Node14</title>
<g id="a_node14"><a xlink:title=" ">
<polygon fill="white" stroke="#bfbfbf" points="33.25,-280.5 33.25,-299.5 76.25,-299.5 76.25,-280.5 33.25,-280.5"/>
<text text-anchor="middle" x="54.75" y="-287.5" font-family="Arial.ttf" font-size="10.00">queue</text>
</a>
</g>
</g>
<!-- Node2&#45;&gt;Node14 -->
<g id="edge13" class="edge">
<title>Node2&#45;&gt;Node14</title>
<path fill="none" stroke="midnightblue" d="M1208.59,-344.87C1061.1,-344.01 331.73,-337.97 86.47,-299.84"/>
<polygon fill="midnightblue" stroke="midnightblue" points="86.98,-296.38 76.55,-298.24 85.87,-303.29 86.98,-296.38"/>
</g>
<!-- Node15 -->
<g id="node15" class="node">
<title>Node15</title>
<g id="a_node15"><a xlink:title=" ">
<polygon fill="white" stroke="#bfbfbf" points="94.25,-280.5 94.25,-299.5 143.25,-299.5 143.25,-280.5 94.25,-280.5"/>
<text text-anchor="middle" x="118.75" y="-287.5" font-family="Arial.ttf" font-size="10.00">random</text>
</a>
</g>
</g>
<!-- Node2&#45;&gt;Node15 -->
<g id="edge14" class="edge">
<title>Node2&#45;&gt;Node15</title>
<path fill="none" stroke="midnightblue" d="M1208.28,-344.68C1065.57,-342.83 385.92,-332.51 153.56,-299.7"/>
<polygon fill="midnightblue" stroke="midnightblue" points="153.9,-296.21 143.5,-298.22 152.89,-303.13 153.9,-296.21"/>
</g>
<!-- Node16 -->
<g id="node16" class="node">
<title>Node16</title>
<g id="a_node16"><a xlink:title=" ">
<polygon fill="white" stroke="#bfbfbf" points="161.75,-280.5 161.75,-299.5 213.75,-299.5 213.75,-280.5 161.75,-280.5"/>
<text text-anchor="middle" x="187.75" y="-287.5" font-family="Arial.ttf" font-size="10.00">sstream</text>
</a>
</g>
</g>
<!-- Node2&#45;&gt;Node16 -->
<g id="edge15" class="edge">
<title>Node2&#45;&gt;Node16</title>
<path fill="none" stroke="midnightblue" d="M1208.65,-344.57C1072.44,-342.23 441.42,-330 224.04,-299.82"/>
<polygon fill="midnightblue" stroke="midnightblue" points="224.4,-296.34 214,-298.37 223.4,-303.27 224.4,-296.34"/>
</g>
<!-- Node17 -->
<g id="node17" class="node">
<title>Node17</title>
<g id="a_node17"><a xlink:title=" ">
<polygon fill="white" stroke="#bfbfbf" points="232.25,-280.5 232.25,-299.5 273.25,-299.5 273.25,-280.5 232.25,-280.5"/>
<text text-anchor="middle" x="252.75" y="-287.5" font-family="Arial.ttf" font-size="10.00">string</text>
</a>
</g>
</g>
<!-- Node2&#45;&gt;Node17 -->
<g id="edge16" class="edge">
<title>Node2&#45;&gt;Node17</title>
<path fill="none" stroke="midnightblue" d="M1208.44,-344.62C1076.77,-342.61 488.07,-332.05 283.6,-299.62"/>
<polygon fill="midnightblue" stroke="midnightblue" points="284.01,-296.14 273.57,-297.96 282.87,-303.04 284.01,-296.14"/>
</g>
<!-- Node18 -->
<g id="node18" class="node">
<title>Node18</title>
<g id="a_node18"><a xlink:title=" ">
<polygon fill="white" stroke="#bfbfbf" points="291.75,-280.5 291.75,-299.5 335.75,-299.5 335.75,-280.5 291.75,-280.5"/>
<text text-anchor="middle" x="313.75" y="-287.5" font-family="Arial.ttf" font-size="10.00">thread</text>
</a>
</g>
</g>
<!-- Node2&#45;&gt;Node18 -->
<g id="edge17" class="edge">
<title>Node2&#45;&gt;Node18</title>
<path fill="none" stroke="midnightblue" d="M1208.48,-344.49C1082.29,-341.94 536.99,-329.46 345.87,-299.73"/>
<polygon fill="midnightblue" stroke="midnightblue" points="346.39,-296.27 335.96,-298.12 345.26,-303.18 346.39,-296.27"/>
</g>
<!-- Node19 -->
<g id="node19" class="node">
<title>Node19</title>
<g id="a_node19"><a xlink:title=" ">
<polygon fill="white" stroke="#bfbfbf" points="354.25,-280.5 354.25,-299.5 405.25,-299.5 405.25,-280.5 354.25,-280.5"/>
<text text-anchor="middle" x="379.75" y="-287.5" font-family="Arial.ttf" font-size="10.00">typeinfo</text>
</a>
</g>
</g>
<!-- Node2&#45;&gt;Node19 -->
<g id="edge18" class="edge">
<title>Node2&#45;&gt;Node19</title>
<path fill="none" stroke="midnightblue" d="M1208.56,-345.13C1106.77,-345.31 727.83,-342.86 419.75,-300 418.29,-299.8 416.82,-299.57 415.32,-299.32"/>
<polygon fill="midnightblue" stroke="midnightblue" points="415.93,-295.87 405.45,-297.44 414.62,-302.75 415.93,-295.87"/>
</g>
<!-- Node20 -->
<g id="node20" class="node">
<title>Node20</title>
<g id="a_node20"><a xlink:title=" ">
<polygon fill="white" stroke="#bfbfbf" points="2793.75,-168.5 2793.75,-187.5 2837.75,-187.5 2837.75,-168.5 2793.75,-168.5"/>
<text text-anchor="middle" x="2815.75" y="-175.5" font-family="Arial.ttf" font-size="10.00">vector</text>
</a>
</g>
</g>
<!-- Node2&#45;&gt;Node20 -->
<g id="edge19" class="edge">
<title>Node2&#45;&gt;Node20</title>
<path fill="none" stroke="midnightblue" d="M1260.91,-344.95C1453.1,-344.5 2641.28,-340.11 2704.75,-300 2736.84,-279.72 2718.06,-251.96 2743.75,-224 2755.94,-210.73 2772.9,-199.88 2787.3,-192.15"/>
<polygon fill="midnightblue" stroke="midnightblue" points="2789.01,-195.21 2796.32,-187.54 2785.82,-188.98 2789.01,-195.21"/>
</g>
<!-- Node21 -->
<g id="node21" class="node">
<title>Node21</title>
<g id="a_node21"><a xlink:title=" ">
<polygon fill="white" stroke="#bfbfbf" points="461.75,-280.5 461.75,-299.5 513.75,-299.5 513.75,-280.5 461.75,-280.5"/>
<text text-anchor="middle" x="487.75" y="-287.5" font-family="Arial.ttf" font-size="10.00">memory</text>
</a>
</g>
</g>
<!-- Node2&#45;&gt;Node21 -->
<g id="edge20" class="edge">
<title>Node2&#45;&gt;Node21</title>
<path fill="none" stroke="midnightblue" d="M1208.74,-345.05C1116.56,-344.89 796.9,-341.28 524.07,-299.7"/>
<polygon fill="midnightblue" stroke="midnightblue" points="524.4,-296.21 513.98,-298.14 523.33,-303.13 524.4,-296.21"/>
</g>
<!-- Node22 -->
<g id="node22" class="node">
<title>Node22</title>
<g id="a_node22"><a xlink:title=" ">
<polygon fill="white" stroke="#bfbfbf" points="532.25,-280.5 532.25,-299.5 581.25,-299.5 581.25,-280.5 532.25,-280.5"/>
<text text-anchor="middle" x="556.75" y="-287.5" font-family="Arial.ttf" font-size="10.00">cassert</text>
</a>
</g>
</g>
<!-- Node2&#45;&gt;Node22 -->
<g id="edge21" class="edge">
<title>Node2&#45;&gt;Node22</title>
<path fill="none" stroke="midnightblue" d="M1208.47,-344.94C1121.66,-344.36 836.15,-339.5 591.66,-299.8"/>
<polygon fill="midnightblue" stroke="midnightblue" points="591.95,-296.31 581.51,-298.13 590.81,-303.21 591.95,-296.31"/>
</g>
<!-- Node23 -->
<g id="node23" class="node">
<title>Node23</title>
<g id="a_node23"><a xlink:title=" ">
<polygon fill="white" stroke="#bfbfbf" points="599.25,-280.5 599.25,-299.5 640.25,-299.5 640.25,-280.5 599.25,-280.5"/>
<text text-anchor="middle" x="619.75" y="-287.5" font-family="Arial.ttf" font-size="10.00">cfloat</text>
</a>
</g>
</g>
<!-- Node2&#45;&gt;Node23 -->
<g id="edge22" class="edge">
<title>Node2&#45;&gt;Node23</title>
<path fill="none" stroke="midnightblue" d="M1208.54,-344.98C1127.02,-344.49 870.72,-339.82 650.39,-299.66"/>
<polygon fill="midnightblue" stroke="midnightblue" points="650.73,-296.17 640.26,-297.79 649.46,-303.05 650.73,-296.17"/>
</g>
<!-- Node24 -->
<g id="node24" class="node">
<title>Node24</title>
<g id="a_node24"><a xlink:title=" ">
<polygon fill="white" stroke="#bfbfbf" points="658.25,-280.5 658.25,-299.5 703.25,-299.5 703.25,-280.5 658.25,-280.5"/>
<text text-anchor="middle" x="680.75" y="-287.5" font-family="Arial.ttf" font-size="10.00">climits</text>
</a>
</g>
</g>
<!-- Node2&#45;&gt;Node24 -->
<g id="edge23" class="edge">
<title>Node2&#45;&gt;Node24</title>
<path fill="none" stroke="midnightblue" d="M1208.72,-344.48C1133.37,-342.63 908.54,-334.53 713.22,-299.71"/>
<polygon fill="midnightblue" stroke="midnightblue" points="713.81,-296.26 703.35,-297.92 712.57,-303.15 713.81,-296.26"/>
</g>
<!-- Node25 -->
<g id="node25" class="node">
<title>Node25</title>
<g id="a_node25"><a xlink:title=" ">
<polygon fill="white" stroke="#bfbfbf" points="721.75,-280.5 721.75,-299.5 765.75,-299.5 765.75,-280.5 721.75,-280.5"/>
<text text-anchor="middle" x="743.75" y="-287.5" font-family="Arial.ttf" font-size="10.00">cmath</text>
</a>
</g>
</g>
<!-- Node2&#45;&gt;Node25 -->
<g id="edge24" class="edge">
<title>Node2&#45;&gt;Node25</title>
<path fill="none" stroke="midnightblue" d="M1208.64,-344.05C1139.55,-341.21 946.19,-331.04 775.9,-299.65"/>
<polygon fill="midnightblue" stroke="midnightblue" points="776.48,-296.2 766.01,-297.8 775.19,-303.08 776.48,-296.2"/>
</g>
<!-- Node26 -->
<g id="node26" class="node">
<title>Node26</title>
<g id="a_node26"><a xlink:title=" ">
<polygon fill="white" stroke="#bfbfbf" points="784.25,-280.5 784.25,-299.5 827.25,-299.5 827.25,-280.5 784.25,-280.5"/>
<text text-anchor="middle" x="805.75" y="-287.5" font-family="Arial.ttf" font-size="10.00">cstdio</text>
</a>
</g>
</g>
<!-- Node2&#45;&gt;Node26 -->
<g id="edge25" class="edge">
<title>Node2&#45;&gt;Node26</title>
<path fill="none" stroke="midnightblue" d="M1208.43,-343.58C1145.76,-339.85 982.71,-328.25 837.31,-299.76"/>
<polygon fill="midnightblue" stroke="midnightblue" points="837.8,-296.29 827.31,-297.77 836.44,-303.15 837.8,-296.29"/>
</g>
<!-- Node27 -->
<g id="node27" class="node">
<title>Node27</title>
<g id="a_node27"><a xlink:title=" ">
<polygon fill="white" stroke="#bfbfbf" points="845.25,-280.5 845.25,-299.5 890.25,-299.5 890.25,-280.5 845.25,-280.5"/>
<text text-anchor="middle" x="867.75" y="-287.5" font-family="Arial.ttf" font-size="10.00">cstdlib</text>
</a>
</g>
</g>
<!-- Node2&#45;&gt;Node27 -->
<g id="edge26" class="edge">
<title>Node2&#45;&gt;Node27</title>
<path fill="none" stroke="midnightblue" d="M1208.48,-342.74C1153.26,-337.72 1021.03,-324.28 900.51,-299.87"/>
<polygon fill="midnightblue" stroke="midnightblue" points="900.88,-296.38 890.38,-297.79 899.47,-303.23 900.88,-296.38"/>
</g>
<!-- Node28 -->
<g id="node28" class="node">
<title>Node28</title>
<g id="a_node28"><a xlink:title=" ">
<polygon fill="white" stroke="#bfbfbf" points="908.75,-280.5 908.75,-299.5 954.75,-299.5 954.75,-280.5 908.75,-280.5"/>
<text text-anchor="middle" x="931.75" y="-287.5" font-family="Arial.ttf" font-size="10.00">cstring</text>
</a>
</g>
</g>
<!-- Node2&#45;&gt;Node28 -->
<g id="edge27" class="edge">
<title>Node2&#45;&gt;Node28</title>
<path fill="none" stroke="midnightblue" d="M1208.58,-341.2C1160.76,-334.13 1056.14,-318 968.75,-300 967.47,-299.74 966.18,-299.46 964.87,-299.18"/>
<polygon fill="midnightblue" stroke="midnightblue" points="965.31,-295.69 954.78,-296.87 963.75,-302.51 965.31,-295.69"/>
</g>
<!-- Node29 -->
<g id="node29" class="node">
<title>Node29</title>
<g id="a_node29"><a xlink:href="_s_l_8h.html" target="_top" xlink:title=" ">
<polygon fill="white" stroke="red" points="1164.25,-0.5 1164.25,-19.5 1201.25,-19.5 1201.25,-0.5 1164.25,-0.5"/>
<text text-anchor="middle" x="1182.75" y="-7.5" font-family="Arial.ttf" font-size="10.00">SL.h</text>
</a>
</g>
</g>
<!-- Node2&#45;&gt;Node29 -->
<g id="edge28" class="edge">
<title>Node2&#45;&gt;Node29</title>
<path fill="none" stroke="midnightblue" d="M1253.02,-336.43C1267.42,-328.78 1286.96,-316.29 1298.75,-300 1362.65,-211.68 1388.05,-144.02 1323.75,-56 1298.04,-20.8 1244.48,-12.49 1211.28,-10.89"/>
<polygon fill="midnightblue" stroke="midnightblue" points="1211.38,-7.39 1201.28,-10.58 1211.16,-14.39 1211.38,-7.39"/>
</g>
<!-- Node33 -->
<g id="node30" class="node">
<title>Node33</title>
<g id="a_node30"><a xlink:href="_s_l_enums_8h.html" target="_top" xlink:title=" ">
<polygon fill="white" stroke="black" points="1010.75,-280.5 1010.75,-299.5 1078.75,-299.5 1078.75,-280.5 1010.75,-280.5"/>
<text text-anchor="middle" x="1044.75" y="-287.5" font-family="Arial.ttf" font-size="10.00">SLEnums.h</text>
</a>
</g>
</g>
<!-- Node2&#45;&gt;Node33 -->
<g id="edge29" class="edge">
<title>Node2&#45;&gt;Node33</title>
<path fill="none" stroke="midnightblue" d="M1208.73,-337.6C1176.77,-328.52 1122.22,-313.02 1084.88,-302.41"/>
<polygon fill="midnightblue" stroke="midnightblue" points="1085.41,-298.92 1074.84,-299.55 1083.5,-305.65 1085.41,-298.92"/>
</g>
<!-- Node34 -->
<g id="node31" class="node">
<title>Node34</title>
<g id="a_node31"><a xlink:href="_s_l_mat3_8h.html" target="_top" xlink:title=" ">
<polygon fill="white" stroke="red" points="895.25,-168.5 895.25,-187.5 954.25,-187.5 954.25,-168.5 895.25,-168.5"/>
<text text-anchor="middle" x="924.75" y="-175.5" font-family="Arial.ttf" font-size="10.00">SLMat3.h</text>
</a>
</g>
</g>
<!-- Node2&#45;&gt;Node34 -->
<g id="edge30" class="edge">
<title>Node2&#45;&gt;Node34</title>
<path fill="none" stroke="midnightblue" d="M1208.38,-344.49C1074.92,-341.77 479.27,-328.09 452.75,-300 390.75,-234.33 760.55,-194.03 884.96,-182.46"/>
<polygon fill="midnightblue" stroke="midnightblue" points="885.56,-185.92 895.2,-181.53 884.92,-178.95 885.56,-185.92"/>
</g>
<!-- Node35 -->
<g id="node32" class="node">
<title>Node35</title>
<g id="a_node32"><a xlink:href="_s_l_vec3_8h.html" target="_top" xlink:title=" ">
<polygon fill="white" stroke="red" points="1057.25,-112.5 1057.25,-131.5 1116.25,-131.5 1116.25,-112.5 1057.25,-112.5"/>
<text text-anchor="middle" x="1086.75" y="-119.5" font-family="Arial.ttf" font-size="10.00">SLVec3.h</text>
</a>
</g>
</g>
<!-- Node2&#45;&gt;Node35 -->
<g id="edge52" class="edge">
<title>Node2&#45;&gt;Node35</title>
<path fill="none" stroke="midnightblue" d="M1208.7,-343.98C1153.53,-341.22 1027.78,-331.54 1001.75,-300 958.96,-248.16 1032.52,-171.16 1068.58,-138.52"/>
<polygon fill="midnightblue" stroke="midnightblue" points="1071.28,-140.81 1076.45,-131.56 1066.64,-135.57 1071.28,-140.81"/>
</g>
<!-- Node36 -->
<g id="node33" class="node">
<title>Node36</title>
<g id="a_node33"><a xlink:href="_s_l_vec2_8h.html" target="_top" xlink:title=" ">
<polygon fill="white" stroke="red" points="1095.25,-56.5 1095.25,-75.5 1154.25,-75.5 1154.25,-56.5 1095.25,-56.5"/>
<text text-anchor="middle" x="1124.75" y="-63.5" font-family="Arial.ttf" font-size="10.00">SLVec2.h</text>
</a>
</g>
</g>
<!-- Node2&#45;&gt;Node36 -->
<g id="edge51" class="edge">
<title>Node2&#45;&gt;Node36</title>
<path fill="none" stroke="midnightblue" d="M1238.79,-336.38C1246.98,-318.11 1264.75,-274 1264.75,-235 1264.75,-235 1264.75,-235 1264.75,-177 1264.75,-125.35 1205.1,-94.26 1163.67,-78.9"/>
<polygon fill="midnightblue" stroke="midnightblue" points="1164.69,-75.54 1154.1,-75.5 1162.35,-82.14 1164.69,-75.54"/>
</g>
<!-- Node37 -->
<g id="node34" class="node">
<title>Node37</title>
<g id="a_node34"><a xlink:href="_s_l_mat4_8h.html" target="_top" xlink:title=" ">
<polygon fill="white" stroke="red" points="1057.25,-224.5 1057.25,-243.5 1116.25,-243.5 1116.25,-224.5 1057.25,-224.5"/>
<text text-anchor="middle" x="1086.75" y="-231.5" font-family="Arial.ttf" font-size="10.00">SLMat4.h</text>
</a>
</g>
</g>
<!-- Node2&#45;&gt;Node37 -->
<g id="edge37" class="edge">
<title>Node2&#45;&gt;Node37</title>
<path fill="none" stroke="midnightblue" d="M1208.6,-338.2C1186.12,-331.37 1153.77,-319.08 1130.75,-300 1115.21,-287.13 1102.93,-267.4 1095.33,-253.06"/>
<polygon fill="midnightblue" stroke="midnightblue" points="1098.27,-251.1 1090.65,-243.74 1092.01,-254.24 1098.27,-251.1"/>
</g>
<!-- Node39 -->
<g id="node35" class="node">
<title>Node39</title>
<g id="a_node35"><a xlink:href="_s_l_vec4_8h.html" target="_top" xlink:title=" ">
<polygon fill="white" stroke="red" points="1115.25,-168.5 1115.25,-187.5 1174.25,-187.5 1174.25,-168.5 1115.25,-168.5"/>
<text text-anchor="middle" x="1144.75" y="-175.5" font-family="Arial.ttf" font-size="10.00">SLVec4.h</text>
</a>
</g>
</g>
<!-- Node2&#45;&gt;Node39 -->
<g id="edge53" class="edge">
<title>Node2&#45;&gt;Node39</title>
<path fill="none" stroke="midnightblue" d="M1212.17,-336.37C1196.32,-329.11 1176.02,-317.14 1164.75,-300 1144.16,-268.68 1142.43,-223.22 1143.36,-197.87"/>
<polygon fill="midnightblue" stroke="midnightblue" points="1146.86,-197.94 1143.91,-187.77 1139.87,-197.56 1146.86,-197.94"/>
</g>
<!-- Node43 -->
<g id="node36" class="node">
<title>Node43</title>
<g id="a_node36"><a xlink:href="_s_l_object_8h.html" target="_top" xlink:title=" ">
<polygon fill="white" stroke="black" points="1249.25,-56.5 1249.25,-75.5 1314.25,-75.5 1314.25,-56.5 1249.25,-56.5"/>
<text text-anchor="middle" x="1281.75" y="-63.5" font-family="Arial.ttf" font-size="10.00">SLObject.h</text>
</a>
</g>
</g>
<!-- Node2&#45;&gt;Node43 -->
<g id="edge45" class="edge">
<title>Node2&#45;&gt;Node43</title>
<path fill="none" stroke="midnightblue" d="M1245.47,-336.36C1255.29,-327.96 1269.64,-314.41 1278.75,-300 1295.21,-273.97 1302.75,-265.8 1302.75,-235 1302.75,-235 1302.75,-235 1302.75,-177 1302.75,-144.38 1293.73,-107.28 1287.51,-85.57"/>
<polygon fill="midnightblue" stroke="midnightblue" points="1290.79,-84.32 1284.58,-75.73 1284.08,-86.32 1290.79,-84.32"/>
</g>
<!-- Node44 -->
<g id="node37" class="node">
<title>Node44</title>
<g id="a_node37"><a xlink:href="_s_l_quat4_8h.html" target="_top" xlink:title=" ">
<polygon fill="white" stroke="red" points="1173.25,-280.5 1173.25,-299.5 1236.25,-299.5 1236.25,-280.5 1173.25,-280.5"/>
<text text-anchor="middle" x="1204.75" y="-287.5" font-family="Arial.ttf" font-size="10.00">SLQuat4.h</text>
</a>
</g>
</g>
<!-- Node2&#45;&gt;Node44 -->
<g id="edge47" class="edge">
<title>Node2&#45;&gt;Node44</title>
<path fill="none" stroke="midnightblue" d="M1229.79,-336.08C1225.64,-328.61 1219.6,-317.72 1214.48,-308.52"/>
<polygon fill="midnightblue" stroke="midnightblue" points="1217.53,-306.79 1209.61,-299.75 1211.41,-310.19 1217.53,-306.79"/>
</g>
<!-- Node45 -->
<g id="node38" class="node">
<title>Node45</title>
<g id="a_node38"><a xlink:title=" ">
<polygon fill="white" stroke="#bfbfbf" points="1368.75,-280.5 1368.75,-299.5 1484.75,-299.5 1484.75,-280.5 1368.75,-280.5"/>
<text text-anchor="middle" x="1426.75" y="-287.5" font-family="Arial.ttf" font-size="10.00">opencv2/core/core.hpp</text>
</a>
</g>
</g>
<!-- Node2&#45;&gt;Node45 -->
<g id="edge54" class="edge">
<title>Node2&#45;&gt;Node45</title>
<path fill="none" stroke="midnightblue" d="M1261.04,-337.6C1293.47,-328.48 1348.93,-312.89 1386.68,-302.27"/>
<polygon fill="midnightblue" stroke="midnightblue" points="1387.67,-305.63 1396.35,-299.55 1385.77,-298.89 1387.67,-305.63"/>
</g>
<!-- Node46 -->
<g id="node39" class="node">
<title>Node46</title>
<g id="a_node39"><a xlink:title=" ">
<polygon fill="white" stroke="#bfbfbf" points="1503.25,-280.5 1503.25,-299.5 1622.25,-299.5 1622.25,-280.5 1503.25,-280.5"/>
<text text-anchor="middle" x="1562.75" y="-287.5" font-family="Arial.ttf" font-size="10.00">opencv2/core/utility.hpp</text>
</a>
</g>
</g>
<!-- Node2&#45;&gt;Node46 -->
<g id="edge55" class="edge">
<title>Node2&#45;&gt;Node46</title>
<path fill="none" stroke="midnightblue" d="M1260.76,-340.72C1312.35,-332.22 1428.88,-313.04 1501.16,-301.14"/>
<polygon fill="midnightblue" stroke="midnightblue" points="1501.75,-304.59 1511.05,-299.51 1500.61,-297.68 1501.75,-304.59"/>
</g>
<!-- Node47 -->
<g id="node40" class="node">
<title>Node47</title>
<g id="a_node40"><a xlink:title=" ">
<polygon fill="white" stroke="#bfbfbf" points="1640.75,-280.5 1640.75,-299.5 1746.75,-299.5 1746.75,-280.5 1640.75,-280.5"/>
<text text-anchor="middle" x="1693.75" y="-287.5" font-family="Arial.ttf" font-size="10.00">opencv2/highgui.hpp</text>
</a>
</g>
</g>
<!-- Node2&#45;&gt;Node47 -->
<g id="edge56" class="edge">
<title>Node2&#45;&gt;Node47</title>
<path fill="none" stroke="midnightblue" d="M1260.79,-342.33C1322.87,-335.92 1484.61,-318.84 1630.63,-300.11"/>
<polygon fill="midnightblue" stroke="midnightblue" points="1631.19,-303.57 1640.66,-298.82 1630.3,-296.62 1631.19,-303.57"/>
</g>
<!-- Node48 -->
<g id="node41" class="node">
<title>Node48</title>
<g id="a_node41"><a xlink:title=" ">
<polygon fill="white" stroke="#bfbfbf" points="1764.75,-280.5 1764.75,-299.5 1874.75,-299.5 1874.75,-280.5 1764.75,-280.5"/>
<text text-anchor="middle" x="1819.75" y="-287.5" font-family="Arial.ttf" font-size="10.00">opencv2/imgproc.hpp</text>
</a>
</g>
</g>
<!-- Node2&#45;&gt;Node48 -->
<g id="edge57" class="edge">
<title>Node2&#45;&gt;Node48</title>
<path fill="none" stroke="midnightblue" d="M1260.82,-343.24C1335.78,-338.09 1558.52,-322.05 1754.42,-300.09"/>
<polygon fill="midnightblue" stroke="midnightblue" points="1755.07,-303.54 1764.61,-298.94 1754.29,-296.59 1755.07,-303.54"/>
</g>
<!-- Node49 -->
<g id="node42" class="node">
<title>Node49</title>
<g id="a_node42"><a xlink:title=" ">
<polygon fill="white" stroke="#bfbfbf" points="1892.75,-280.5 1892.75,-299.5 1998.75,-299.5 1998.75,-280.5 1892.75,-280.5"/>
<text text-anchor="middle" x="1945.75" y="-287.5" font-family="Arial.ttf" font-size="10.00">opencv2/calib3d.hpp</text>
</a>
</g>
</g>
<!-- Node2&#45;&gt;Node49 -->
<g id="edge58" class="edge">
<title>Node2&#45;&gt;Node49</title>
<path fill="none" stroke="midnightblue" d="M1260.78,-343.9C1347.44,-340.08 1634.31,-326.24 1882.39,-300.07"/>
<polygon fill="midnightblue" stroke="midnightblue" points="1883.11,-303.51 1892.68,-298.97 1882.37,-296.55 1883.11,-303.51"/>
</g>
<!-- Node50 -->
<g id="node43" class="node">
<title>Node50</title>
<g id="a_node43"><a xlink:title=" ">
<polygon fill="white" stroke="#bfbfbf" points="2016.75,-280.5 2016.75,-299.5 2152.75,-299.5 2152.75,-280.5 2016.75,-280.5"/>
<text text-anchor="middle" x="2084.75" y="-287.5" font-family="Arial.ttf" font-size="10.00">opencv2/video/tracking.hpp</text>
</a>
</g>
</g>
<!-- Node2&#45;&gt;Node50 -->
<g id="edge59" class="edge">
<title>Node2&#45;&gt;Node50</title>
<path fill="none" stroke="midnightblue" d="M1260.81,-344.03C1357.8,-340.32 1707.17,-325.92 2006.17,-300.09"/>
<polygon fill="midnightblue" stroke="midnightblue" points="2006.68,-303.56 2016.34,-299.21 2006.07,-296.59 2006.68,-303.56"/>
</g>
<!-- Node34&#45;&gt;Node11 -->
<g id="edge36" class="edge">
<title>Node34&#45;&gt;Node11</title>
<path fill="none" stroke="midnightblue" d="M894.92,-173.5C814.09,-164.01 590.96,-137.82 502.04,-127.38"/>
<polygon fill="midnightblue" stroke="midnightblue" points="502.22,-123.87 491.88,-126.18 501.4,-130.83 502.22,-123.87"/>
</g>
<!-- Node34&#45;&gt;Node29 -->
<g id="edge31" class="edge">
<title>Node34&#45;&gt;Node29</title>
<path fill="none" stroke="midnightblue" d="M928.6,-168.42C939.04,-146.18 970.13,-86.3 1014.75,-56 1057.65,-26.87 1118.59,-16.57 1154.07,-12.95"/>
<polygon fill="midnightblue" stroke="midnightblue" points="1154.57,-16.42 1164.21,-12.03 1153.94,-9.45 1154.57,-16.42"/>
</g>
<!-- Node34&#45;&gt;Node35 -->
<g id="edge32" class="edge">
<title>Node34&#45;&gt;Node35</title>
<path fill="none" stroke="midnightblue" d="M950.42,-168.44C977.67,-159.36 1020.93,-144.94 1051.4,-134.78"/>
<polygon fill="midnightblue" stroke="midnightblue" points="1052.82,-138 1061.2,-131.52 1050.61,-131.36 1052.82,-138"/>
</g>
<!-- Node35&#45;&gt;Node29 -->
<g id="edge33" class="edge">
<title>Node35&#45;&gt;Node29</title>
<path fill="none" stroke="midnightblue" d="M1083.99,-112.19C1080.38,-98.87 1075.73,-73.33 1086.75,-56 1101.48,-32.83 1131.63,-21.38 1154.24,-15.86"/>
<polygon fill="midnightblue" stroke="midnightblue" points="1154.99,-19.28 1164.01,-13.73 1153.49,-12.44 1154.99,-19.28"/>
</g>
<!-- Node35&#45;&gt;Node36 -->
<g id="edge34" class="edge">
<title>Node35&#45;&gt;Node36</title>
<path fill="none" stroke="midnightblue" d="M1093.02,-112.08C1098.39,-104.46 1106.27,-93.26 1112.83,-83.94"/>
<polygon fill="midnightblue" stroke="midnightblue" points="1115.7,-85.94 1118.59,-75.75 1109.97,-81.91 1115.7,-85.94"/>
</g>
<!-- Node36&#45;&gt;Node29 -->
<g id="edge35" class="edge">
<title>Node36&#45;&gt;Node29</title>
<path fill="none" stroke="midnightblue" d="M1134.07,-56.32C1142.64,-48.34 1155.56,-36.31 1165.94,-26.65"/>
<polygon fill="midnightblue" stroke="midnightblue" points="1168.33,-29.21 1173.26,-19.83 1163.56,-24.09 1168.33,-29.21"/>
</g>
<!-- Node37&#45;&gt;Node29 -->
<g id="edge38" class="edge">
<title>Node37&#45;&gt;Node29</title>
<path fill="none" stroke="midnightblue" d="M1080.68,-224.33C1067.65,-204.63 1038.94,-154.93 1048.75,-112 1054.9,-85.06 1055.72,-75.03 1075.75,-56 1097.64,-35.2 1130.56,-23.34 1154.1,-17.07"/>
<polygon fill="midnightblue" stroke="midnightblue" points="1155,-20.45 1163.86,-14.64 1153.32,-13.66 1155,-20.45"/>
</g>
<!-- Node37&#45;&gt;Node34 -->
<g id="edge39" class="edge">
<title>Node37&#45;&gt;Node34</title>
<path fill="none" stroke="midnightblue" d="M1061.08,-224.44C1033.83,-215.36 990.57,-200.94 960.1,-190.78"/>
<polygon fill="midnightblue" stroke="midnightblue" points="960.89,-187.36 950.3,-187.52 958.68,-194 960.89,-187.36"/>
</g>
<!-- Node37&#45;&gt;Node35 -->
<g id="edge40" class="edge">
<title>Node37&#45;&gt;Node35</title>
<path fill="none" stroke="midnightblue" d="M1086.75,-224.37C1086.75,-206.62 1086.75,-165.67 1086.75,-141.6"/>
<polygon fill="midnightblue" stroke="midnightblue" points="1090.25,-141.59 1086.75,-131.59 1083.25,-141.59 1090.25,-141.59"/>
</g>
<!-- Node37&#45;&gt;Node39 -->
<g id="edge41" class="edge">
<title>Node37&#45;&gt;Node39</title>
<path fill="none" stroke="midnightblue" d="M1096.07,-224.32C1104.64,-216.34 1117.56,-204.31 1127.94,-194.65"/>
<polygon fill="midnightblue" stroke="midnightblue" points="1130.33,-197.21 1135.26,-187.83 1125.56,-192.09 1130.33,-197.21"/>
</g>
<!-- Node39&#45;&gt;Node29 -->
<g id="edge42" class="edge">
<title>Node39&#45;&gt;Node29</title>
<path fill="none" stroke="midnightblue" d="M1146.79,-168.08C1152.77,-141.95 1170.34,-65.21 1178.5,-29.58"/>
<polygon fill="midnightblue" stroke="midnightblue" points="1181.97,-30.1 1180.79,-19.57 1175.14,-28.53 1181.97,-30.1"/>
</g>
<!-- Node39&#45;&gt;Node35 -->
<g id="edge44" class="edge">
<title>Node39&#45;&gt;Node35</title>
<path fill="none" stroke="midnightblue" d="M1135.43,-168.32C1126.86,-160.34 1113.94,-148.31 1103.56,-138.65"/>
<polygon fill="midnightblue" stroke="midnightblue" points="1105.94,-136.09 1096.24,-131.83 1101.17,-141.21 1105.94,-136.09"/>
</g>
<!-- Node39&#45;&gt;Node36 -->
<g id="edge43" class="edge">
<title>Node39&#45;&gt;Node36</title>
<path fill="none" stroke="midnightblue" d="M1143.18,-168.37C1139.95,-150.62 1132.51,-109.67 1128.13,-85.6"/>
<polygon fill="midnightblue" stroke="midnightblue" points="1131.54,-84.8 1126.31,-75.59 1124.66,-86.06 1131.54,-84.8"/>
</g>
<!-- Node43&#45;&gt;Node29 -->
<g id="edge46" class="edge">
<title>Node43&#45;&gt;Node29</title>
<path fill="none" stroke="midnightblue" d="M1265.84,-56.32C1250.11,-47.74 1225.81,-34.49 1207.54,-24.52"/>
<polygon fill="midnightblue" stroke="midnightblue" points="1209.07,-21.37 1198.62,-19.65 1205.72,-27.52 1209.07,-21.37"/>
</g>
<!-- Node44&#45;&gt;Node29 -->
<g id="edge48" class="edge">
<title>Node44&#45;&gt;Node29</title>
<path fill="none" stroke="midnightblue" d="M1206.91,-280.22C1211.27,-261.66 1220.75,-217.02 1220.75,-179 1220.75,-179 1220.75,-179 1220.75,-121 1220.75,-86.81 1204.15,-49.76 1192.89,-28.57"/>
<polygon fill="midnightblue" stroke="midnightblue" points="1195.93,-26.83 1188.03,-19.77 1189.8,-30.22 1195.93,-26.83"/>
</g>
<!-- Node44&#45;&gt;Node37 -->
<g id="edge49" class="edge">
<title>Node44&#45;&gt;Node37</title>
<path fill="none" stroke="midnightblue" d="M1186.05,-280.44C1166.8,-271.64 1136.6,-257.81 1114.55,-247.72"/>
<polygon fill="midnightblue" stroke="midnightblue" points="1115.91,-244.5 1105.36,-243.52 1113,-250.86 1115.91,-244.5"/>
</g>
<!-- Node44&#45;&gt;Node39 -->
<g id="edge50" class="edge">
<title>Node44&#45;&gt;Node39</title>
<path fill="none" stroke="midnightblue" d="M1200.04,-280.37C1190.23,-262.38 1167.41,-220.55 1154.36,-196.63"/>
<polygon fill="midnightblue" stroke="midnightblue" points="1157.3,-194.69 1149.44,-187.59 1151.15,-198.05 1157.3,-194.69"/>
</g>
<!-- Node51&#45;&gt;Node13 -->
<g id="edge64" class="edge">
<title>Node51&#45;&gt;Node13</title>
<path fill="none" stroke="midnightblue" d="M2919.54,-280.44C2886.11,-270.3 2830.74,-253.5 2797.5,-243.42"/>
<polygon fill="midnightblue" stroke="midnightblue" points="2798.13,-239.95 2787.55,-240.4 2796.1,-246.65 2798.13,-239.95"/>
</g>
<!-- Node51&#45;&gt;Node20 -->
<g id="edge63" class="edge">
<title>Node51&#45;&gt;Node20</title>
<path fill="none" stroke="midnightblue" d="M2915.1,-283.96C2889.79,-278.39 2855.64,-266.96 2834.75,-244 2823.26,-231.37 2818.69,-212.16 2816.89,-197.9"/>
<polygon fill="midnightblue" stroke="midnightblue" points="2820.36,-197.37 2815.96,-187.74 2813.39,-198.01 2820.36,-197.37"/>
</g>
<!-- Node51&#45;&gt;Node29 -->
<g id="edge61" class="edge">
<title>Node51&#45;&gt;Node29</title>
<path fill="none" stroke="midnightblue" d="M2980.38,-285.73C3009.07,-281.14 3050,-270.18 3074.75,-244 3095.43,-222.13 3093.75,-209.1 3093.75,-179 3093.75,-179 3093.75,-179 3093.75,-121 3093.75,-22.4 1450.94,-12.08 1211.68,-11.1"/>
<polygon fill="midnightblue" stroke="midnightblue" points="1211.37,-7.6 1201.36,-11.06 1211.34,-14.6 1211.37,-7.6"/>
</g>
<!-- Node52 -->
<g id="node45" class="node">
<title>Node52</title>
<g id="a_node45"><a xlink:title=" ">
<polygon fill="white" stroke="#bfbfbf" points="2927.75,-224.5 2927.75,-243.5 2967.75,-243.5 2967.75,-224.5 2927.75,-224.5"/>
<text text-anchor="middle" x="2947.75" y="-231.5" font-family="Arial.ttf" font-size="10.00">utility</text>
</a>
</g>
</g>
<!-- Node51&#45;&gt;Node52 -->
<g id="edge62" class="edge">
<title>Node51&#45;&gt;Node52</title>
<path fill="none" stroke="midnightblue" d="M2947.75,-280.08C2947.75,-273.01 2947.75,-262.86 2947.75,-253.99"/>
<polygon fill="midnightblue" stroke="midnightblue" points="2951.25,-253.75 2947.75,-243.75 2944.25,-253.75 2951.25,-253.75"/>
</g>
<!-- Node53 -->
<g id="node46" class="node">
<title>Node53</title>
<g id="a_node46"><a xlink:href="_s_l_anim_manager_8h.html" target="_top" xlink:title=" ">
<polygon fill="white" stroke="red" points="3121.75,-224.5 3121.75,-243.5 3217.75,-243.5 3217.75,-224.5 3121.75,-224.5"/>
<text text-anchor="middle" x="3169.75" y="-231.5" font-family="Arial.ttf" font-size="10.00">SLAnimManager.h</text>
</a>
</g>
</g>
<!-- Node51&#45;&gt;Node53 -->
<g id="edge65" class="edge">
<title>Node51&#45;&gt;Node53</title>
<path fill="none" stroke="midnightblue" d="M2980.51,-281.03C3018.69,-271.74 3082.02,-256.34 3124.79,-245.94"/>
<polygon fill="midnightblue" stroke="midnightblue" points="3125.77,-249.3 3134.66,-243.54 3124.11,-242.5 3125.77,-249.3"/>
</g>
<!-- Node72 -->
<g id="node48" class="node">
<title>Node72</title>
<g id="a_node48"><a xlink:href="_averaged_8h.html" target="_top" xlink:title=" ">
<polygon fill="white" stroke="black" points="2843.75,-224.5 2843.75,-243.5 2909.75,-243.5 2909.75,-224.5 2843.75,-224.5"/>
<text text-anchor="middle" x="2876.75" y="-231.5" font-family="Arial.ttf" font-size="10.00">Averaged.h</text>
</a>
</g>
</g>
<!-- Node51&#45;&gt;Node72 -->
<g id="edge68" class="edge">
<title>Node51&#45;&gt;Node72</title>
<path fill="none" stroke="midnightblue" d="M2936.34,-280.32C2925.64,-272.18 2909.41,-259.84 2896.59,-250.09"/>
<polygon fill="midnightblue" stroke="midnightblue" points="2898.44,-247.1 2888.36,-243.83 2894.2,-252.67 2898.44,-247.1"/>
</g>
<!-- Node73 -->
<g id="node49" class="node">
<title>Node73</title>
<g id="a_node49"><a xlink:href="_s_l_g_l_oculus_8h.html" target="_top" xlink:title=" ">
<polygon fill="white" stroke="red" points="2985.75,-224.5 2985.75,-243.5 3065.75,-243.5 3065.75,-224.5 2985.75,-224.5"/>
<text text-anchor="middle" x="3025.75" y="-231.5" font-family="Arial.ttf" font-size="10.00">SLGLOculus.h</text>
</a>
</g>
</g>
<!-- Node51&#45;&gt;Node73 -->
<g id="edge70" class="edge">
<title>Node51&#45;&gt;Node73</title>
<path fill="none" stroke="midnightblue" d="M2960.28,-280.32C2972.33,-271.98 2990.78,-259.21 3005.02,-249.35"/>
<polygon fill="midnightblue" stroke="midnightblue" points="3007.02,-252.22 3013.25,-243.65 3003.03,-246.47 3007.02,-252.22"/>
</g>
<!-- Node53&#45;&gt;Node53 -->
<g id="edge66" class="edge">
<title>Node53&#45;&gt;Node53</title>
<path fill="none" stroke="midnightblue" d="M3197.9,-243.53C3217.02,-246.31 3235.75,-243.13 3235.75,-234 3235.75,-226.51 3223.15,-223.03 3208.06,-223.55"/>
<polygon fill="midnightblue" stroke="midnightblue" points="3207.54,-220.08 3197.9,-224.47 3208.17,-227.06 3207.54,-220.08"/>
</g>
<!-- Node53&#45;&gt;Node71 -->
<g id="edge67" class="edge">
<title>Node53&#45;&gt;Node71</title>
<path fill="none" stroke="midnightblue" d="M3177.51,-224.08C3184.29,-216.3 3194.29,-204.8 3202.5,-195.37"/>
<polygon fill="midnightblue" stroke="midnightblue" points="3205.21,-197.59 3209.13,-187.75 3199.93,-193 3205.21,-197.59"/>
</g>
<!-- Node72&#45;&gt;Node20 -->
<g id="edge69" class="edge">
<title>Node72&#45;&gt;Node20</title>
<path fill="none" stroke="midnightblue" d="M2866.95,-224.32C2857.93,-216.34 2844.34,-204.31 2833.43,-194.65"/>
<polygon fill="midnightblue" stroke="midnightblue" points="2835.54,-191.84 2825.73,-187.83 2830.9,-197.08 2835.54,-191.84"/>
</g>
<!-- Node94&#45;&gt;Node51 -->
<g id="edge72" class="edge">
<title>Node94&#45;&gt;Node51</title>
<path fill="none" stroke="midnightblue" d="M2976.97,-336.08C2972.08,-328.53 2964.92,-317.49 2958.92,-308.23"/>
<polygon fill="midnightblue" stroke="midnightblue" points="2961.8,-306.24 2953.42,-299.75 2955.92,-310.05 2961.8,-306.24"/>
</g>
</g>
</svg>
