<?xml version="1.0" encoding="UTF-8" standalone="no"?>
<!DOCTYPE svg PUBLIC "-//W3C//DTD SVG 1.1//EN"
 "http://www.w3.org/Graphics/SVG/1.1/DTD/svg11.dtd">
<!-- Generated by graphviz version 3.0.0 (20220226.1711)
 -->
<!-- Title: SLAnimKeyframe.h Pages: 1 -->
<svg width="2497pt" height="476pt"
 viewBox="0.00 0.00 2496.50 476.00" xmlns="http://www.w3.org/2000/svg" xmlns:xlink="http://www.w3.org/1999/xlink">
<g id="graph0" class="graph" transform="scale(1 1) rotate(0) translate(4 472)">
<title>SLAnimKeyframe.h</title>
<polygon fill="white" stroke="transparent" points="-4,4 -4,-472 2492.5,-472 2492.5,4 -4,4"/>
<!-- Node1 -->
<g id="node1" class="node">
<title>Node1</title>
<g id="a_node1"><a xlink:title=" ">
<polygon fill="#bfbfbf" stroke="black" points="622,-448.5 622,-467.5 723,-467.5 723,-448.5 622,-448.5"/>
<text text-anchor="middle" x="672.5" y="-455.5" font-family="Arial" font-size="10.00">SLAnimKeyframe.h</text>
</a>
</g>
</g>
<!-- Node2 -->
<g id="node2" class="node">
<title>Node2</title>
<g id="a_node2"><a xlink:href="_s_l_anim_keyframe_8cpp.html" target="_top" xlink:title=" ">
<polygon fill="white" stroke="black" points="558.5,-392.5 558.5,-411.5 670.5,-411.5 670.5,-392.5 558.5,-392.5"/>
<text text-anchor="middle" x="614.5" y="-399.5" font-family="Arial" font-size="10.00">SLAnimKeyframe.cpp</text>
</a>
</g>
</g>
<!-- Node1&#45;&gt;Node2 -->
<g id="edge1" class="edge">
<title>Node1&#45;&gt;Node2</title>
<path fill="none" stroke="midnightblue" d="M655.59,-441.25C645.3,-431.67 632.53,-419.79 623.99,-411.83"/>
<polygon fill="midnightblue" stroke="midnightblue" points="653.48,-444.07 663.18,-448.32 658.25,-438.95 653.48,-444.07"/>
</g>
<!-- Node3 -->
<g id="node3" class="node">
<title>Node3</title>
<g id="a_node3"><a xlink:href="_s_l_anim_track_8h.html" target="_top" xlink:title=" ">
<polygon fill="white" stroke="black" points="688.5,-392.5 688.5,-411.5 772.5,-411.5 772.5,-392.5 688.5,-392.5"/>
<text text-anchor="middle" x="730.5" y="-399.5" font-family="Arial" font-size="10.00">SLAnimTrack.h</text>
</a>
</g>
</g>
<!-- Node1&#45;&gt;Node3 -->
<g id="edge2" class="edge">
<title>Node1&#45;&gt;Node3</title>
<path fill="none" stroke="midnightblue" d="M689.41,-441.25C699.7,-431.67 712.47,-419.79 721.01,-411.83"/>
<polygon fill="midnightblue" stroke="midnightblue" points="686.75,-438.95 681.82,-448.32 691.52,-444.07 686.75,-438.95"/>
</g>
<!-- Node4 -->
<g id="node4" class="node">
<title>Node4</title>
<g id="a_node4"><a xlink:href="_s_l_anim_track_8cpp.html" target="_top" xlink:title=" ">
<polygon fill="white" stroke="black" points="0,-56.5 0,-75.5 95,-75.5 95,-56.5 0,-56.5"/>
<text text-anchor="middle" x="47.5" y="-63.5" font-family="Arial" font-size="10.00">SLAnimTrack.cpp</text>
</a>
</g>
</g>
<!-- Node3&#45;&gt;Node4 -->
<g id="edge3" class="edge">
<title>Node3&#45;&gt;Node4</title>
<path fill="none" stroke="midnightblue" d="M678.4,-392.03C518.34,-371.11 47.5,-430.17 47.5,-291 47.5,-291 47.5,-291 47.5,-177 47.5,-139.19 47.5,-94.06 47.5,-75.56"/>
<polygon fill="midnightblue" stroke="midnightblue" points="678.08,-395.52 688.48,-393.53 679.11,-388.6 678.08,-395.52"/>
</g>
<!-- Node5 -->
<g id="node5" class="node">
<title>Node5</title>
<g id="a_node5"><a xlink:href="_s_l_animation_8h.html" target="_top" xlink:title=" ">
<polygon fill="white" stroke="black" points="1374.5,-336.5 1374.5,-355.5 1454.5,-355.5 1454.5,-336.5 1374.5,-336.5"/>
<text text-anchor="middle" x="1414.5" y="-343.5" font-family="Arial" font-size="10.00">SLAnimation.h</text>
</a>
</g>
</g>
<!-- Node3&#45;&gt;Node5 -->
<g id="edge4" class="edge">
<title>Node3&#45;&gt;Node5</title>
<path fill="none" stroke="midnightblue" d="M782.72,-396.88C914.18,-386.5 1256.64,-359.46 1374.19,-350.18"/>
<polygon fill="midnightblue" stroke="midnightblue" points="782.21,-393.41 772.51,-397.68 782.76,-400.39 782.21,-393.41"/>
</g>
<!-- Node5&#45;&gt;Node4 -->
<g id="edge64" class="edge">
<title>Node5&#45;&gt;Node4</title>
<path fill="none" stroke="midnightblue" d="M1364.07,-343.52C1121.4,-336.06 85.5,-300.41 85.5,-235 85.5,-235 85.5,-235 85.5,-177 85.5,-137.4 63.23,-93.96 52.78,-75.77"/>
<polygon fill="midnightblue" stroke="midnightblue" points="1364.26,-347.03 1374.36,-343.83 1364.47,-340.03 1364.26,-347.03"/>
</g>
<!-- Node6 -->
<g id="node6" class="node">
<title>Node6</title>
<g id="a_node6"><a xlink:href="_s_l_anim_manager_8h.html" target="_top" xlink:title=" ">
<polygon fill="white" stroke="black" points="1283,-224.5 1283,-243.5 1380,-243.5 1380,-224.5 1283,-224.5"/>
<text text-anchor="middle" x="1331.5" y="-231.5" font-family="Arial" font-size="10.00">SLAnimManager.h</text>
</a>
</g>
</g>
<!-- Node5&#45;&gt;Node6 -->
<g id="edge5" class="edge">
<title>Node5&#45;&gt;Node6</title>
<path fill="none" stroke="midnightblue" d="M1387.24,-331.44C1374.42,-323.81 1359.91,-313.15 1350.5,-300 1338.05,-282.6 1333.7,-257.09 1332.22,-243.79"/>
<polygon fill="midnightblue" stroke="midnightblue" points="1385.75,-334.62 1396.19,-336.46 1389.18,-328.51 1385.75,-334.62"/>
</g>
<!-- Node29 -->
<g id="node29" class="node">
<title>Node29</title>
<g id="a_node29"><a xlink:href="_s_l_node_8cpp.html" target="_top" xlink:title=" ">
<polygon fill="white" stroke="black" points="2298,-56.5 2298,-75.5 2369,-75.5 2369,-56.5 2298,-56.5"/>
<text text-anchor="middle" x="2333.5" y="-63.5" font-family="Arial" font-size="10.00">SLNode.cpp</text>
</a>
</g>
</g>
<!-- Node5&#45;&gt;Node29 -->
<g id="edge68" class="edge">
<title>Node5&#45;&gt;Node29</title>
<path fill="none" stroke="midnightblue" d="M1464.86,-344.16C1612.15,-341.37 2040.33,-330.77 2176.5,-300 2250.16,-283.35 2333.5,-310.52 2333.5,-235 2333.5,-235 2333.5,-235 2333.5,-177 2333.5,-139.19 2333.5,-94.06 2333.5,-75.56"/>
<polygon fill="midnightblue" stroke="midnightblue" points="1464.68,-340.66 1454.75,-344.35 1464.81,-347.66 1464.68,-340.66"/>
</g>
<!-- Node52 -->
<g id="node45" class="node">
<title>Node52</title>
<g id="a_node45"><a xlink:href="_s_l_anim_playback_8cpp.html" target="_top" xlink:title=" ">
<polygon fill="white" stroke="black" points="1359.5,-280.5 1359.5,-299.5 1469.5,-299.5 1469.5,-280.5 1359.5,-280.5"/>
<text text-anchor="middle" x="1414.5" y="-287.5" font-family="Arial" font-size="10.00">SLAnimPlayback.cpp</text>
</a>
</g>
</g>
<!-- Node5&#45;&gt;Node52 -->
<g id="edge59" class="edge">
<title>Node5&#45;&gt;Node52</title>
<path fill="none" stroke="midnightblue" d="M1414.5,-325.8C1414.5,-316.91 1414.5,-306.78 1414.5,-299.75"/>
<polygon fill="midnightblue" stroke="midnightblue" points="1411,-326.08 1414.5,-336.08 1418,-326.08 1411,-326.08"/>
</g>
<!-- Node53 -->
<g id="node46" class="node">
<title>Node53</title>
<g id="a_node46"><a xlink:href="_s_l_anim_skeleton_8h.html" target="_top" xlink:title=" ">
<polygon fill="white" stroke="black" points="1487.5,-280.5 1487.5,-299.5 1585.5,-299.5 1585.5,-280.5 1487.5,-280.5"/>
<text text-anchor="middle" x="1536.5" y="-287.5" font-family="Arial" font-size="10.00">SLAnimSkeleton.h</text>
</a>
</g>
</g>
<!-- Node5&#45;&gt;Node53 -->
<g id="edge60" class="edge">
<title>Node5&#45;&gt;Node53</title>
<path fill="none" stroke="midnightblue" d="M1443.04,-332.37C1465.89,-322.26 1497.31,-308.35 1517.26,-299.52"/>
<polygon fill="midnightblue" stroke="midnightblue" points="1441.56,-329.2 1433.83,-336.44 1444.39,-335.6 1441.56,-329.2"/>
</g>
<!-- Node55 -->
<g id="node48" class="node">
<title>Node55</title>
<g id="a_node48"><a xlink:href="_s_l_importer_8h.html" target="_top" xlink:title=" ">
<polygon fill="white" stroke="black" points="2094,-280.5 2094,-299.5 2167,-299.5 2167,-280.5 2094,-280.5"/>
<text text-anchor="middle" x="2130.5" y="-287.5" font-family="Arial" font-size="10.00">SLImporter.h</text>
</a>
</g>
</g>
<!-- Node5&#45;&gt;Node55 -->
<g id="edge65" class="edge">
<title>Node5&#45;&gt;Node55</title>
<path fill="none" stroke="midnightblue" d="M1464.68,-341.22C1600.83,-330.95 1974.98,-302.73 2093.78,-293.77"/>
<polygon fill="midnightblue" stroke="midnightblue" points="1464.24,-337.74 1454.53,-341.98 1464.76,-344.72 1464.24,-337.74"/>
</g>
<!-- Node6&#45;&gt;Node6 -->
<g id="edge6" class="edge">
<title>Node6&#45;&gt;Node6</title>
<path fill="none" stroke="midnightblue" d="M1370.1,-244.45C1385.3,-244.97 1398,-241.49 1398,-234 1398,-224.87 1379.13,-221.69 1359.86,-224.47"/>
<polygon fill="midnightblue" stroke="midnightblue" points="1370.14,-240.94 1359.86,-243.53 1369.51,-247.91 1370.14,-240.94"/>
</g>
<!-- Node7 -->
<g id="node7" class="node">
<title>Node7</title>
<g id="a_node7"><a xlink:href="_s_l_scene_8h.html" target="_top" xlink:title=" ">
<polygon fill="white" stroke="black" points="1299,-168.5 1299,-187.5 1364,-187.5 1364,-168.5 1299,-168.5"/>
<text text-anchor="middle" x="1331.5" y="-175.5" font-family="Arial" font-size="10.00">SLScene.h</text>
</a>
</g>
</g>
<!-- Node6&#45;&gt;Node7 -->
<g id="edge7" class="edge">
<title>Node6&#45;&gt;Node7</title>
<path fill="none" stroke="midnightblue" d="M1331.5,-213.8C1331.5,-204.91 1331.5,-194.78 1331.5,-187.75"/>
<polygon fill="midnightblue" stroke="midnightblue" points="1328,-214.08 1331.5,-224.08 1335,-214.08 1328,-214.08"/>
</g>
<!-- Node44 -->
<g id="node42" class="node">
<title>Node44</title>
<g id="a_node42"><a xlink:href="_s_l_scene_view_8cpp.html" target="_top" xlink:title=" ">
<polygon fill="white" stroke="black" points="151.5,-56.5 151.5,-75.5 247.5,-75.5 247.5,-56.5 151.5,-56.5"/>
<text text-anchor="middle" x="199.5" y="-63.5" font-family="Arial" font-size="10.00">SLSceneView.cpp</text>
</a>
</g>
</g>
<!-- Node6&#45;&gt;Node44 -->
<g id="edge58" class="edge">
<title>Node6&#45;&gt;Node44</title>
<path fill="none" stroke="midnightblue" d="M1272.56,-232.38C1048,-229.4 254.86,-213.17 180.5,-132 165.89,-116.05 182.1,-89.45 192.37,-75.75"/>
<polygon fill="midnightblue" stroke="midnightblue" points="1272.77,-235.88 1282.82,-232.51 1272.86,-228.88 1272.77,-235.88"/>
</g>
<!-- Node8 -->
<g id="node8" class="node">
<title>Node8</title>
<g id="a_node8"><a xlink:href="_app_demo_gui_8cpp.html" target="_top" xlink:title=" ">
<polygon fill="white" stroke="black" points="1723.5,-56.5 1723.5,-75.5 1817.5,-75.5 1817.5,-56.5 1723.5,-56.5"/>
<text text-anchor="middle" x="1770.5" y="-63.5" font-family="Arial" font-size="10.00">AppDemoGui.cpp</text>
</a>
</g>
</g>
<!-- Node7&#45;&gt;Node8 -->
<g id="edge8" class="edge">
<title>Node7&#45;&gt;Node8</title>
<path fill="none" stroke="midnightblue" d="M1374.43,-168.98C1412.17,-161.35 1468.28,-148.58 1515.5,-132 1535.39,-125.02 1538.51,-118.68 1558.5,-112 1613.82,-93.53 1679.87,-80.93 1723.37,-73.86"/>
<polygon fill="midnightblue" stroke="midnightblue" points="1373.43,-165.61 1364.3,-171 1374.79,-172.48 1373.43,-165.61"/>
</g>
<!-- Node9 -->
<g id="node9" class="node">
<title>Node9</title>
<g id="a_node9"><a xlink:href="_app_demo_load_8cpp.html" target="_top" xlink:title=" ">
<polygon fill="white" stroke="black" points="1835.5,-56.5 1835.5,-75.5 1935.5,-75.5 1935.5,-56.5 1835.5,-56.5"/>
<text text-anchor="middle" x="1885.5" y="-63.5" font-family="Arial" font-size="10.00">AppDemoLoad.cpp</text>
</a>
</g>
</g>
<!-- Node7&#45;&gt;Node9 -->
<g id="edge9" class="edge">
<title>Node7&#45;&gt;Node9</title>
<path fill="none" stroke="midnightblue" d="M1374.08,-171.09C1418.92,-164.23 1491.22,-151.31 1551.5,-132 1572.34,-125.32 1575.5,-118.18 1596.5,-112 1599.36,-111.16 1753.47,-87.35 1835.44,-74.71"/>
<polygon fill="midnightblue" stroke="midnightblue" points="1373.49,-167.64 1364.12,-172.59 1374.53,-174.56 1373.49,-167.64"/>
</g>
<!-- Node10 -->
<g id="node10" class="node">
<title>Node10</title>
<g id="a_node10"><a xlink:href="_app_demo_main_g_l_f_w_8cpp.html" target="_top" xlink:title=" ">
<polygon fill="white" stroke="black" points="574.5,-0.5 574.5,-19.5 702.5,-19.5 702.5,-0.5 574.5,-0.5"/>
<text text-anchor="middle" x="638.5" y="-7.5" font-family="Arial" font-size="10.00">AppDemoMainGLFW.cpp</text>
</a>
</g>
</g>
<!-- Node7&#45;&gt;Node10 -->
<g id="edge10" class="edge">
<title>Node7&#45;&gt;Node10</title>
<path fill="none" stroke="midnightblue" d="M1351.57,-162.22C1368.22,-148.22 1387.01,-127.16 1372.5,-112 1309.05,-45.72 610.95,-142.28 547.5,-76 524.34,-51.81 573.71,-30.71 608.38,-19.51"/>
<polygon fill="midnightblue" stroke="midnightblue" points="1349.36,-159.5 1343.72,-168.46 1353.72,-164.97 1349.36,-159.5"/>
</g>
<!-- Node11 -->
<g id="node11" class="node">
<title>Node11</title>
<g id="a_node11"><a xlink:href="_app_demo_video_8cpp.html" target="_top" xlink:title=" ">
<polygon fill="white" stroke="black" points="452.5,-0.5 452.5,-19.5 556.5,-19.5 556.5,-0.5 452.5,-0.5"/>
<text text-anchor="middle" x="504.5" y="-7.5" font-family="Arial" font-size="10.00">AppDemoVideo.cpp</text>
</a>
</g>
</g>
<!-- Node7&#45;&gt;Node11 -->
<g id="edge11" class="edge">
<title>Node7&#45;&gt;Node11</title>
<path fill="none" stroke="midnightblue" d="M1288.72,-176.4C1085.99,-173.45 229.8,-159.37 180.5,-132 147.48,-113.67 117.5,-84.3 142.5,-56 162.68,-33.16 357.2,-19.22 452.46,-13.72"/>
<polygon fill="midnightblue" stroke="midnightblue" points="1288.91,-179.91 1298.96,-176.55 1289.01,-172.91 1288.91,-179.91"/>
</g>
<!-- Node12 -->
<g id="node12" class="node">
<title>Node12</title>
<g id="a_node12"><a xlink:href="_s_l_a_a_b_box_8cpp.html" target="_top" xlink:title=" ">
<polygon fill="white" stroke="black" points="1715,-112.5 1715,-131.5 1800,-131.5 1800,-112.5 1715,-112.5"/>
<text text-anchor="middle" x="1757.5" y="-119.5" font-family="Arial" font-size="10.00">SLAABBox.cpp</text>
</a>
</g>
</g>
<!-- Node7&#45;&gt;Node12 -->
<g id="edge12" class="edge">
<title>Node7&#45;&gt;Node12</title>
<path fill="none" stroke="midnightblue" d="M1374.15,-172.29C1442.92,-164.59 1582.56,-148.5 1700.5,-132 1705.16,-131.35 1710.04,-130.63 1714.88,-129.9"/>
<polygon fill="midnightblue" stroke="midnightblue" points="1373.68,-168.82 1364.13,-173.41 1374.46,-175.78 1373.68,-168.82"/>
</g>
<!-- Node13 -->
<g id="node13" class="node">
<title>Node13</title>
<g id="a_node13"><a xlink:href="_s_l_anim_manager_8cpp.html" target="_top" xlink:title=" ">
<polygon fill="white" stroke="black" points="1818,-112.5 1818,-131.5 1925,-131.5 1925,-112.5 1818,-112.5"/>
<text text-anchor="middle" x="1871.5" y="-119.5" font-family="Arial" font-size="10.00">SLAnimManager.cpp</text>
</a>
</g>
</g>
<!-- Node7&#45;&gt;Node13 -->
<g id="edge13" class="edge">
<title>Node7&#45;&gt;Node13</title>
<path fill="none" stroke="midnightblue" d="M1374.36,-173.65C1457.98,-166.96 1648.69,-150.94 1808.5,-132 1811.57,-131.64 1814.73,-131.24 1817.91,-130.83"/>
<polygon fill="midnightblue" stroke="midnightblue" points="1373.92,-170.17 1364.23,-174.46 1374.48,-177.15 1373.92,-170.17"/>
</g>
<!-- Node14 -->
<g id="node14" class="node">
<title>Node14</title>
<g id="a_node14"><a xlink:href="_s_l_anim_skeleton_8cpp.html" target="_top" xlink:title=" ">
<polygon fill="white" stroke="black" points="2171.5,-56.5 2171.5,-75.5 2279.5,-75.5 2279.5,-56.5 2171.5,-56.5"/>
<text text-anchor="middle" x="2225.5" y="-63.5" font-family="Arial" font-size="10.00">SLAnimSkeleton.cpp</text>
</a>
</g>
</g>
<!-- Node7&#45;&gt;Node14 -->
<g id="edge14" class="edge">
<title>Node7&#45;&gt;Node14</title>
<path fill="none" stroke="midnightblue" d="M1374.39,-175.41C1438.52,-172.1 1562.64,-162.05 1663.5,-132 1683.31,-126.1 1685.53,-117.35 1705.5,-112 1902.31,-59.32 1960,-98.42 2162.5,-76 2165.36,-75.68 2168.28,-75.34 2171.23,-74.97"/>
<polygon fill="midnightblue" stroke="midnightblue" points="1374.07,-171.92 1364.25,-175.91 1374.41,-178.92 1374.07,-171.92"/>
</g>
<!-- Node15 -->
<g id="node15" class="node">
<title>Node15</title>
<g id="a_node15"><a xlink:href="_s_l_animation_8cpp.html" target="_top" xlink:title=" ">
<polygon fill="white" stroke="black" points="1943,-112.5 1943,-131.5 2034,-131.5 2034,-112.5 1943,-112.5"/>
<text text-anchor="middle" x="1988.5" y="-119.5" font-family="Arial" font-size="10.00">SLAnimation.cpp</text>
</a>
</g>
</g>
<!-- Node7&#45;&gt;Node15 -->
<g id="edge15" class="edge">
<title>Node7&#45;&gt;Node15</title>
<path fill="none" stroke="midnightblue" d="M1374.42,-175.09C1473.28,-170.39 1724.64,-156.85 1933.5,-132 1936.57,-131.63 1939.74,-131.22 1942.93,-130.77"/>
<polygon fill="midnightblue" stroke="midnightblue" points="1374.05,-171.6 1364.22,-175.56 1374.38,-178.59 1374.05,-171.6"/>
</g>
<!-- Node16 -->
<g id="node16" class="node">
<title>Node16</title>
<g id="a_node16"><a xlink:href="_s_l_background_8cpp.html" target="_top" xlink:title=" ">
<polygon fill="white" stroke="black" points="190,-112.5 190,-131.5 289,-131.5 289,-112.5 190,-112.5"/>
<text text-anchor="middle" x="239.5" y="-119.5" font-family="Arial" font-size="10.00">SLBackground.cpp</text>
</a>
</g>
</g>
<!-- Node7&#45;&gt;Node16 -->
<g id="edge16" class="edge">
<title>Node7&#45;&gt;Node16</title>
<path fill="none" stroke="midnightblue" d="M1288.8,-176.83C1147.28,-175.9 680.84,-169.97 297.5,-132 294.76,-131.73 291.96,-131.41 289.13,-131.07"/>
<polygon fill="midnightblue" stroke="midnightblue" points="1288.79,-180.33 1298.81,-176.89 1288.83,-173.33 1288.79,-180.33"/>
</g>
<!-- Node17 -->
<g id="node17" class="node">
<title>Node17</title>
<g id="a_node17"><a xlink:href="_s_l_curve_bezier_8cpp.html" target="_top" xlink:title=" ">
<polygon fill="white" stroke="black" points="307,-112.5 307,-131.5 408,-131.5 408,-112.5 307,-112.5"/>
<text text-anchor="middle" x="357.5" y="-119.5" font-family="Arial" font-size="10.00">SLCurveBezier.cpp</text>
</a>
</g>
</g>
<!-- Node7&#45;&gt;Node17 -->
<g id="edge17" class="edge">
<title>Node7&#45;&gt;Node17</title>
<path fill="none" stroke="midnightblue" d="M1288.46,-176.22C1157.89,-173.55 754.92,-163.18 422.5,-132 417.85,-131.56 413.02,-131.04 408.19,-130.46"/>
<polygon fill="midnightblue" stroke="midnightblue" points="1288.75,-179.72 1298.82,-176.42 1288.89,-172.72 1288.75,-179.72"/>
</g>
<!-- Node18 -->
<g id="node18" class="node">
<title>Node18</title>
<g id="a_node18"><a xlink:href="_s_l_g_l_im_gui_8cpp.html" target="_top" xlink:title=" ">
<polygon fill="white" stroke="black" points="1953.5,-56.5 1953.5,-75.5 2039.5,-75.5 2039.5,-56.5 1953.5,-56.5"/>
<text text-anchor="middle" x="1996.5" y="-63.5" font-family="Arial" font-size="10.00">SLGLImGui.cpp</text>
</a>
</g>
</g>
<!-- Node7&#45;&gt;Node18 -->
<g id="edge18" class="edge">
<title>Node7&#45;&gt;Node18</title>
<path fill="none" stroke="midnightblue" d="M1374.23,-172.65C1425.82,-166.7 1514.84,-154.12 1588.5,-132 1609.85,-125.59 1612.97,-117.79 1634.5,-112 1768.44,-75.96 1807.22,-95.84 1944.5,-76 1947.4,-75.58 1950.39,-75.13 1953.4,-74.65"/>
<polygon fill="midnightblue" stroke="midnightblue" points="1373.67,-169.2 1364.12,-173.79 1374.45,-176.15 1373.67,-169.2"/>
</g>
<!-- Node19 -->
<g id="node19" class="node">
<title>Node19</title>
<g id="a_node19"><a xlink:href="_s_l_g_l_o_v_r_workaround_8h.html" target="_top" xlink:title=" ">
<polygon fill="white" stroke="black" points="2366.5,-112.5 2366.5,-131.5 2488.5,-131.5 2488.5,-112.5 2366.5,-112.5"/>
<text text-anchor="middle" x="2427.5" y="-119.5" font-family="Arial" font-size="10.00">SLGLOVRWorkaround.h</text>
</a>
</g>
</g>
<!-- Node7&#45;&gt;Node19 -->
<g id="edge19" class="edge">
<title>Node7&#45;&gt;Node19</title>
<path fill="none" stroke="midnightblue" d="M1374.01,-174.91C1543.04,-166.58 2167.92,-135.79 2366.5,-126.01"/>
<polygon fill="midnightblue" stroke="midnightblue" points="1373.82,-171.41 1364,-175.4 1374.16,-178.4 1373.82,-171.41"/>
</g>
<!-- Node21 -->
<g id="node21" class="node">
<title>Node21</title>
<g id="a_node21"><a xlink:href="_s_l_g_l_oculus_f_b_8cpp.html" target="_top" xlink:title=" ">
<polygon fill="white" stroke="black" points="502.5,-112.5 502.5,-131.5 606.5,-131.5 606.5,-112.5 502.5,-112.5"/>
<text text-anchor="middle" x="554.5" y="-119.5" font-family="Arial" font-size="10.00">SLGLOculusFB.cpp</text>
</a>
</g>
</g>
<!-- Node7&#45;&gt;Node21 -->
<g id="edge21" class="edge">
<title>Node7&#45;&gt;Node21</title>
<path fill="none" stroke="midnightblue" d="M1288.81,-175.56C1177.66,-171.56 870.2,-158.75 615.5,-132 612.63,-131.7 609.68,-131.36 606.71,-131"/>
<polygon fill="midnightblue" stroke="midnightblue" points="1288.83,-179.07 1298.95,-175.93 1289.08,-172.07 1288.83,-179.07"/>
</g>
<!-- Node22 -->
<g id="node22" class="node">
<title>Node22</title>
<g id="a_node22"><a xlink:href="_s_l_g_l_program_8cpp.html" target="_top" xlink:title=" ">
<polygon fill="white" stroke="black" points="625,-112.5 625,-131.5 722,-131.5 722,-112.5 625,-112.5"/>
<text text-anchor="middle" x="673.5" y="-119.5" font-family="Arial" font-size="10.00">SLGLProgram.cpp</text>
</a>
</g>
</g>
<!-- Node7&#45;&gt;Node22 -->
<g id="edge22" class="edge">
<title>Node7&#45;&gt;Node22</title>
<path fill="none" stroke="midnightblue" d="M1288.74,-174.96C1190.23,-170 939.77,-155.93 731.5,-132 728.46,-131.65 725.34,-131.26 722.2,-130.84"/>
<polygon fill="midnightblue" stroke="midnightblue" points="1288.73,-178.46 1298.89,-175.46 1289.08,-171.47 1288.73,-178.46"/>
</g>
<!-- Node23 -->
<g id="node23" class="node">
<title>Node23</title>
<g id="a_node23"><a xlink:href="_s_l_g_l_texture_8cpp.html" target="_top" xlink:title=" ">
<polygon fill="white" stroke="black" points="740.5,-112.5 740.5,-131.5 832.5,-131.5 832.5,-112.5 740.5,-112.5"/>
<text text-anchor="middle" x="786.5" y="-119.5" font-family="Arial" font-size="10.00">SLGLTexture.cpp</text>
</a>
</g>
</g>
<!-- Node7&#45;&gt;Node23 -->
<g id="edge23" class="edge">
<title>Node7&#45;&gt;Node23</title>
<path fill="none" stroke="midnightblue" d="M1288.64,-174.09C1203.32,-168.06 1006.23,-153.02 841.5,-132 838.62,-131.63 835.66,-131.23 832.68,-130.8"/>
<polygon fill="midnightblue" stroke="midnightblue" points="1288.51,-177.59 1298.73,-174.79 1289,-170.6 1288.51,-177.59"/>
</g>
<!-- Node24 -->
<g id="node24" class="node">
<title>Node24</title>
<g id="a_node24"><a xlink:href="_s_l_g_l_texture_i_b_l_8cpp.html" target="_top" xlink:title=" ">
<polygon fill="white" stroke="black" points="851,-112.5 851,-131.5 958,-131.5 958,-112.5 851,-112.5"/>
<text text-anchor="middle" x="904.5" y="-119.5" font-family="Arial" font-size="10.00">SLGLTextureIBL.cpp</text>
</a>
</g>
</g>
<!-- Node7&#45;&gt;Node24 -->
<g id="edge24" class="edge">
<title>Node7&#45;&gt;Node24</title>
<path fill="none" stroke="midnightblue" d="M1288.51,-171.95C1220.38,-163.89 1083.43,-147.45 967.5,-132 964.43,-131.59 961.28,-131.16 958.11,-130.73"/>
<polygon fill="midnightblue" stroke="midnightblue" points="1288.5,-175.48 1298.84,-173.17 1289.32,-168.52 1288.5,-175.48"/>
</g>
<!-- Node25 -->
<g id="node25" class="node">
<title>Node25</title>
<g id="a_node25"><a xlink:href="_s_l_g_l_vertex_array_8cpp.html" target="_top" xlink:title=" ">
<polygon fill="white" stroke="black" points="976.5,-112.5 976.5,-131.5 1086.5,-131.5 1086.5,-112.5 976.5,-112.5"/>
<text text-anchor="middle" x="1031.5" y="-119.5" font-family="Arial" font-size="10.00">SLGLVertexArray.cpp</text>
</a>
</g>
</g>
<!-- Node7&#45;&gt;Node25 -->
<g id="edge25" class="edge">
<title>Node7&#45;&gt;Node25</title>
<path fill="none" stroke="midnightblue" d="M1288.96,-169.34C1233.47,-159.35 1136.67,-141.93 1078.89,-131.53"/>
<polygon fill="midnightblue" stroke="midnightblue" points="1288.36,-172.79 1298.82,-171.12 1289.6,-165.9 1288.36,-172.79"/>
</g>
<!-- Node26 -->
<g id="node26" class="node">
<title>Node26</title>
<g id="a_node26"><a xlink:href="_s_l_light_direct_8cpp.html" target="_top" xlink:title=" ">
<polygon fill="white" stroke="black" points="2058,-56.5 2058,-75.5 2153,-75.5 2153,-56.5 2058,-56.5"/>
<text text-anchor="middle" x="2105.5" y="-63.5" font-family="Arial" font-size="10.00">SLLightDirect.cpp</text>
</a>
</g>
</g>
<!-- Node7&#45;&gt;Node26 -->
<g id="edge26" class="edge">
<title>Node7&#45;&gt;Node26</title>
<path fill="none" stroke="midnightblue" d="M1374.5,-173.81C1432.42,-168.75 1538.3,-156.8 1625.5,-132 1647.34,-125.79 1650.5,-117.59 1672.5,-112 1835.2,-70.65 1881.96,-97.1 2048.5,-76 2051.58,-75.61 2054.75,-75.18 2057.95,-74.73"/>
<polygon fill="midnightblue" stroke="midnightblue" points="1373.93,-170.35 1364.26,-174.68 1374.52,-177.32 1373.93,-170.35"/>
</g>
<!-- Node27 -->
<g id="node27" class="node">
<title>Node27</title>
<g id="a_node27"><a xlink:href="_s_l_light_rect_8cpp.html" target="_top" xlink:title=" ">
<polygon fill="white" stroke="black" points="266,-56.5 266,-75.5 355,-75.5 355,-56.5 266,-56.5"/>
<text text-anchor="middle" x="310.5" y="-63.5" font-family="Arial" font-size="10.00">SLLightRect.cpp</text>
</a>
</g>
</g>
<!-- Node7&#45;&gt;Node27 -->
<g id="edge27" class="edge">
<title>Node7&#45;&gt;Node27</title>
<path fill="none" stroke="midnightblue" d="M1288.55,-177.05C1135.48,-176.9 617.33,-173.26 457.5,-132 437.87,-126.93 434.95,-120.41 416.5,-112 387.39,-98.73 353.26,-84.47 331.76,-75.64"/>
<polygon fill="midnightblue" stroke="midnightblue" points="1288.92,-180.55 1298.93,-177.06 1288.93,-173.55 1288.92,-180.55"/>
</g>
<!-- Node28 -->
<g id="node28" class="node">
<title>Node28</title>
<g id="a_node28"><a xlink:href="_s_l_light_spot_8cpp.html" target="_top" xlink:title=" ">
<polygon fill="white" stroke="black" points="373,-56.5 373,-75.5 462,-75.5 462,-56.5 373,-56.5"/>
<text text-anchor="middle" x="417.5" y="-63.5" font-family="Arial" font-size="10.00">SLLightSpot.cpp</text>
</a>
</g>
</g>
<!-- Node7&#45;&gt;Node28 -->
<g id="edge28" class="edge">
<title>Node7&#45;&gt;Node28</title>
<path fill="none" stroke="midnightblue" d="M1288.08,-176.3C1126.77,-173.47 567.47,-161.59 493.5,-132 463.2,-119.87 436.41,-90.5 424.32,-75.76"/>
<polygon fill="midnightblue" stroke="midnightblue" points="1288.5,-179.81 1298.56,-176.48 1288.62,-172.81 1288.5,-179.81"/>
</g>
<!-- Node7&#45;&gt;Node29 -->
<g id="edge29" class="edge">
<title>Node7&#45;&gt;Node29</title>
<path fill="none" stroke="midnightblue" d="M1374.41,-176.62C1485.44,-175.13 1791.02,-167.82 2042.5,-132 2138.59,-118.31 2250.03,-89.81 2302.78,-75.53"/>
<polygon fill="midnightblue" stroke="midnightblue" points="1374.24,-173.12 1364.29,-176.75 1374.33,-180.12 1374.24,-173.12"/>
</g>
<!-- Node30 -->
<g id="node30" class="node">
<title>Node30</title>
<g id="a_node30"><a xlink:href="_s_l_scene_8cpp.html" target="_top" xlink:title=" ">
<polygon fill="white" stroke="black" points="1105,-112.5 1105,-131.5 1180,-131.5 1180,-112.5 1105,-112.5"/>
<text text-anchor="middle" x="1142.5" y="-119.5" font-family="Arial" font-size="10.00">SLScene.cpp</text>
</a>
</g>
</g>
<!-- Node7&#45;&gt;Node30 -->
<g id="edge30" class="edge">
<title>Node7&#45;&gt;Node30</title>
<path fill="none" stroke="midnightblue" d="M1291.49,-165.57C1255.83,-155.38 1204.46,-140.7 1172.31,-131.52"/>
<polygon fill="midnightblue" stroke="midnightblue" points="1290.98,-169.06 1301.55,-168.44 1292.9,-162.33 1290.98,-169.06"/>
</g>
<!-- Node31 -->
<g id="node31" class="node">
<title>Node31</title>
<g id="a_node31"><a xlink:href="_s_l_scene_view_8h.html" target="_top" xlink:title=" ">
<polygon fill="white" stroke="red" points="1420.5,-112.5 1420.5,-131.5 1506.5,-131.5 1506.5,-112.5 1420.5,-112.5"/>
<text text-anchor="middle" x="1463.5" y="-119.5" font-family="Arial" font-size="10.00">SLSceneView.h</text>
</a>
</g>
</g>
<!-- Node7&#45;&gt;Node31 -->
<g id="edge31" class="edge">
<title>Node7&#45;&gt;Node31</title>
<path fill="none" stroke="midnightblue" d="M1361.72,-164.64C1386.49,-154.5 1420.9,-140.43 1442.68,-131.52"/>
<polygon fill="midnightblue" stroke="midnightblue" points="1360.35,-161.42 1352.42,-168.44 1363,-167.9 1360.35,-161.42"/>
</g>
<!-- Node50 -->
<g id="node43" class="node">
<title>Node50</title>
<g id="a_node43"><a xlink:href="_s_l_tex_font_8cpp.html" target="_top" xlink:title=" ">
<polygon fill="white" stroke="black" points="1198.5,-112.5 1198.5,-131.5 1280.5,-131.5 1280.5,-112.5 1198.5,-112.5"/>
<text text-anchor="middle" x="1239.5" y="-119.5" font-family="Arial" font-size="10.00">SLTexFont.cpp</text>
</a>
</g>
</g>
<!-- Node7&#45;&gt;Node50 -->
<g id="edge56" class="edge">
<title>Node7&#45;&gt;Node50</title>
<path fill="none" stroke="midnightblue" d="M1307.95,-163.18C1291.02,-153.24 1268.72,-140.15 1254.24,-131.65"/>
<polygon fill="midnightblue" stroke="midnightblue" points="1306.32,-166.28 1316.72,-168.32 1309.87,-160.24 1306.32,-166.28"/>
</g>
<!-- Node51 -->
<g id="node44" class="node">
<title>Node51</title>
<g id="a_node44"><a xlink:href="_s_l_text_8cpp.html" target="_top" xlink:title=" ">
<polygon fill="white" stroke="black" points="1299,-112.5 1299,-131.5 1364,-131.5 1364,-112.5 1299,-112.5"/>
<text text-anchor="middle" x="1331.5" y="-119.5" font-family="Arial" font-size="10.00">SLText.cpp</text>
</a>
</g>
</g>
<!-- Node7&#45;&gt;Node51 -->
<g id="edge57" class="edge">
<title>Node7&#45;&gt;Node51</title>
<path fill="none" stroke="midnightblue" d="M1331.5,-157.8C1331.5,-148.91 1331.5,-138.78 1331.5,-131.75"/>
<polygon fill="midnightblue" stroke="midnightblue" points="1328,-158.08 1331.5,-168.08 1335,-158.08 1328,-158.08"/>
</g>
<!-- Node20 -->
<g id="node20" class="node">
<title>Node20</title>
<g id="a_node20"><a xlink:href="_s_l_g_l_oculus_8cpp.html" target="_top" xlink:title=" ">
<polygon fill="white" stroke="black" points="2387,-56.5 2387,-75.5 2478,-75.5 2478,-56.5 2387,-56.5"/>
<text text-anchor="middle" x="2432.5" y="-63.5" font-family="Arial" font-size="10.00">SLGLOculus.cpp</text>
</a>
</g>
</g>
<!-- Node19&#45;&gt;Node20 -->
<g id="edge20" class="edge">
<title>Node19&#45;&gt;Node20</title>
<path fill="none" stroke="midnightblue" d="M2429.25,-102.1C2430.08,-93.14 2431.03,-82.86 2431.69,-75.75"/>
<polygon fill="midnightblue" stroke="midnightblue" points="2425.76,-101.8 2428.33,-112.08 2432.73,-102.45 2425.76,-101.8"/>
</g>
<!-- Node31&#45;&gt;Node4 -->
<g id="edge40" class="edge">
<title>Node31&#45;&gt;Node4</title>
<path fill="none" stroke="midnightblue" d="M1410.3,-115.11C1397.91,-113.92 1384.75,-112.78 1372.5,-112 826.72,-77.07 688.35,-109.81 142.5,-76 127.12,-75.05 110.38,-73.6 95.29,-72.14"/>
<polygon fill="midnightblue" stroke="midnightblue" points="1410.2,-118.62 1420.5,-116.13 1410.9,-111.66 1410.2,-118.62"/>
</g>
<!-- Node31&#45;&gt;Node8 -->
<g id="edge32" class="edge">
<title>Node31&#45;&gt;Node8</title>
<path fill="none" stroke="midnightblue" d="M1516.61,-111.66C1574.86,-101.41 1667.44,-85.13 1723.25,-75.31"/>
<polygon fill="midnightblue" stroke="midnightblue" points="1515.75,-108.26 1506.51,-113.43 1516.97,-115.15 1515.75,-108.26"/>
</g>
<!-- Node31&#45;&gt;Node9 -->
<g id="edge33" class="edge">
<title>Node31&#45;&gt;Node9</title>
<path fill="none" stroke="midnightblue" d="M1516.59,-114.89C1587.36,-106.64 1716.48,-91.21 1826.5,-76 1829.37,-75.6 1832.32,-75.18 1835.3,-74.76"/>
<polygon fill="midnightblue" stroke="midnightblue" points="1516.11,-111.42 1506.58,-116.06 1516.92,-118.38 1516.11,-111.42"/>
</g>
<!-- Node31&#45;&gt;Node10 -->
<g id="edge34" class="edge">
<title>Node31&#45;&gt;Node10</title>
<path fill="none" stroke="midnightblue" d="M1516.76,-110.54C1578.73,-98.25 1672.96,-79.13 1675.5,-76 1681.09,-69.09 1681.65,-62.42 1675.5,-56 1641.77,-20.78 923.41,-12.95 702.54,-11.37"/>
<polygon fill="midnightblue" stroke="midnightblue" points="1515.87,-107.15 1506.74,-112.53 1517.23,-114.02 1515.87,-107.15"/>
</g>
<!-- Node31&#45;&gt;Node11 -->
<g id="edge38" class="edge">
<title>Node31&#45;&gt;Node11</title>
<path fill="none" stroke="midnightblue" d="M1410.3,-115.24C1397.9,-114.04 1384.75,-112.87 1372.5,-112 1280.98,-105.48 627.35,-121.19 547.5,-76 525.36,-63.47 512.55,-34.29 507.3,-19.67"/>
<polygon fill="midnightblue" stroke="midnightblue" points="1410.19,-118.75 1420.49,-116.26 1410.89,-111.78 1410.19,-118.75"/>
</g>
<!-- Node31&#45;&gt;Node14 -->
<g id="edge39" class="edge">
<title>Node31&#45;&gt;Node14</title>
<path fill="none" stroke="midnightblue" d="M1516.67,-118.99C1633.65,-114.25 1922.09,-100.87 2162.5,-76 2165.36,-75.7 2168.28,-75.38 2171.24,-75.02"/>
<polygon fill="midnightblue" stroke="midnightblue" points="1516.4,-115.49 1506.55,-119.39 1516.68,-122.49 1516.4,-115.49"/>
</g>
<!-- Node31&#45;&gt;Node18 -->
<g id="edge42" class="edge">
<title>Node31&#45;&gt;Node18</title>
<path fill="none" stroke="midnightblue" d="M1516.85,-117.38C1605.76,-111.03 1789.75,-96.6 1944.5,-76 1947.41,-75.61 1950.4,-75.18 1953.41,-74.72"/>
<polygon fill="midnightblue" stroke="midnightblue" points="1516.47,-113.89 1506.74,-118.09 1516.97,-120.88 1516.47,-113.89"/>
</g>
<!-- Node31&#45;&gt;Node26 -->
<g id="edge45" class="edge">
<title>Node31&#45;&gt;Node26</title>
<path fill="none" stroke="midnightblue" d="M1516.68,-118.33C1619.61,-112.86 1853.12,-98.9 2048.5,-76 2051.58,-75.64 2054.76,-75.23 2057.95,-74.8"/>
<polygon fill="midnightblue" stroke="midnightblue" points="1516.35,-114.85 1506.55,-118.87 1516.72,-121.84 1516.35,-114.85"/>
</g>
<!-- Node31&#45;&gt;Node27 -->
<g id="edge46" class="edge">
<title>Node31&#45;&gt;Node27</title>
<path fill="none" stroke="midnightblue" d="M1410.3,-115.17C1397.91,-113.97 1384.75,-112.82 1372.5,-112 924.78,-81.9 809.9,-121.66 363.5,-76 360.81,-75.72 358.04,-75.4 355.26,-75.03"/>
<polygon fill="midnightblue" stroke="midnightblue" points="1410.2,-118.68 1420.5,-116.19 1410.89,-111.71 1410.2,-118.68"/>
</g>
<!-- Node31&#45;&gt;Node28 -->
<g id="edge47" class="edge">
<title>Node31&#45;&gt;Node28</title>
<path fill="none" stroke="midnightblue" d="M1410.3,-115.23C1397.9,-114.02 1384.75,-112.86 1372.5,-112 991.77,-85.21 895.31,-101.64 514.5,-76 497.46,-74.85 478.76,-73.21 462.37,-71.64"/>
<polygon fill="midnightblue" stroke="midnightblue" points="1410.19,-118.73 1420.49,-116.24 1410.89,-111.77 1410.19,-118.73"/>
</g>
<!-- Node31&#45;&gt;Node29 -->
<g id="edge50" class="edge">
<title>Node31&#45;&gt;Node29</title>
<path fill="none" stroke="midnightblue" d="M1517.04,-119.08C1675.15,-113.26 2138.35,-95.01 2288.5,-76 2291.5,-75.62 2294.61,-75.15 2297.71,-74.64"/>
<polygon fill="midnightblue" stroke="midnightblue" points="1516.49,-115.6 1506.63,-119.46 1516.75,-122.59 1516.49,-115.6"/>
</g>
<!-- Node32 -->
<g id="node32" class="node">
<title>Node32</title>
<g id="a_node32"><a xlink:href="_app_demo_scene_view_8h.html" target="_top" xlink:title=" ">
<polygon fill="white" stroke="red" points="557,-56.5 557,-75.5 674,-75.5 674,-56.5 557,-56.5"/>
<text text-anchor="middle" x="615.5" y="-63.5" font-family="Arial" font-size="10.00">AppDemoSceneView.h</text>
</a>
</g>
</g>
<!-- Node31&#45;&gt;Node32 -->
<g id="edge35" class="edge">
<title>Node31&#45;&gt;Node32</title>
<path fill="none" stroke="midnightblue" d="M1410.32,-112.42C1409.04,-112.27 1407.76,-112.13 1406.5,-112 1086.48,-78.86 1003.91,-105.13 683.5,-76 680.42,-75.72 677.26,-75.4 674.07,-75.06"/>
<polygon fill="midnightblue" stroke="midnightblue" points="1409.94,-115.9 1420.3,-113.68 1410.82,-108.95 1409.94,-115.9"/>
</g>
<!-- Node34 -->
<g id="node33" class="node">
<title>Node34</title>
<g id="a_node33"><a xlink:href="_s_l_camera_8cpp.html" target="_top" xlink:title=" ">
<polygon fill="white" stroke="black" points="692.5,-56.5 692.5,-75.5 774.5,-75.5 774.5,-56.5 692.5,-56.5"/>
<text text-anchor="middle" x="733.5" y="-63.5" font-family="Arial" font-size="10.00">SLCamera.cpp</text>
</a>
</g>
</g>
<!-- Node31&#45;&gt;Node34 -->
<g id="edge41" class="edge">
<title>Node31&#45;&gt;Node34</title>
<path fill="none" stroke="midnightblue" d="M1410.32,-112.43C1409.04,-112.28 1407.76,-112.14 1406.5,-112 1130.74,-82.34 1058.93,-108.63 783.5,-76 780.61,-75.66 777.63,-75.25 774.64,-74.81"/>
<polygon fill="midnightblue" stroke="midnightblue" points="1409.93,-115.91 1420.3,-113.72 1410.83,-108.97 1409.93,-115.91"/>
</g>
<!-- Node35 -->
<g id="node34" class="node">
<title>Node35</title>
<g id="a_node34"><a xlink:href="_s_l_input_manager_8cpp.html" target="_top" xlink:title=" ">
<polygon fill="white" stroke="black" points="793,-56.5 793,-75.5 900,-75.5 900,-56.5 793,-56.5"/>
<text text-anchor="middle" x="846.5" y="-63.5" font-family="Arial" font-size="10.00">SLInputManager.cpp</text>
</a>
</g>
</g>
<!-- Node31&#45;&gt;Node35 -->
<g id="edge43" class="edge">
<title>Node31&#45;&gt;Node35</title>
<path fill="none" stroke="midnightblue" d="M1410.32,-112.46C1409.03,-112.3 1407.76,-112.14 1406.5,-112 1186.48,-86.71 1129.7,-99.67 909.5,-76 906.42,-75.67 903.27,-75.3 900.08,-74.91"/>
<polygon fill="midnightblue" stroke="midnightblue" points="1409.92,-115.93 1420.29,-113.79 1410.84,-109 1409.92,-115.93"/>
</g>
<!-- Node36 -->
<g id="node35" class="node">
<title>Node36</title>
<g id="a_node35"><a xlink:href="_s_l_keyframe_camera_8cpp.html" target="_top" xlink:title=" ">
<polygon fill="white" stroke="black" points="918.5,-56.5 918.5,-75.5 1042.5,-75.5 1042.5,-56.5 918.5,-56.5"/>
<text text-anchor="middle" x="980.5" y="-63.5" font-family="Arial" font-size="10.00">SLKeyframeCamera.cpp</text>
</a>
</g>
</g>
<!-- Node31&#45;&gt;Node36 -->
<g id="edge44" class="edge">
<title>Node31&#45;&gt;Node36</title>
<path fill="none" stroke="midnightblue" d="M1410.31,-112.51C1409.03,-112.33 1407.76,-112.16 1406.5,-112 1249.23,-91.63 1209.07,-93.97 1051.5,-76 1048.66,-75.68 1045.76,-75.34 1042.83,-74.99"/>
<polygon fill="midnightblue" stroke="midnightblue" points="1409.88,-115.98 1420.28,-113.92 1410.87,-109.05 1409.88,-115.98"/>
</g>
<!-- Node37 -->
<g id="node36" class="node">
<title>Node37</title>
<g id="a_node36"><a xlink:href="_s_l_material_8cpp.html" target="_top" xlink:title=" ">
<polygon fill="white" stroke="black" points="1060.5,-56.5 1060.5,-75.5 1142.5,-75.5 1142.5,-56.5 1060.5,-56.5"/>
<text text-anchor="middle" x="1101.5" y="-63.5" font-family="Arial" font-size="10.00">SLMaterial.cpp</text>
</a>
</g>
</g>
<!-- Node31&#45;&gt;Node37 -->
<g id="edge48" class="edge">
<title>Node31&#45;&gt;Node37</title>
<path fill="none" stroke="midnightblue" d="M1410.3,-112.57C1409.02,-112.38 1407.75,-112.19 1406.5,-112 1293.3,-95.07 1264.51,-94.14 1151.5,-76 1148.63,-75.54 1145.66,-75.05 1142.68,-74.54"/>
<polygon fill="midnightblue" stroke="midnightblue" points="1409.84,-116.04 1420.25,-114.1 1410.9,-109.12 1409.84,-116.04"/>
</g>
<!-- Node38 -->
<g id="node37" class="node">
<title>Node38</title>
<g id="a_node37"><a xlink:href="_s_l_mesh_8cpp.html" target="_top" xlink:title=" ">
<polygon fill="white" stroke="black" points="1161,-56.5 1161,-75.5 1232,-75.5 1232,-56.5 1161,-56.5"/>
<text text-anchor="middle" x="1196.5" y="-63.5" font-family="Arial" font-size="10.00">SLMesh.cpp</text>
</a>
</g>
</g>
<!-- Node31&#45;&gt;Node38 -->
<g id="edge49" class="edge">
<title>Node31&#45;&gt;Node38</title>
<path fill="none" stroke="midnightblue" d="M1411.29,-110.51C1366.09,-101.41 1298.97,-87.88 1240.5,-76 1237.75,-75.44 1234.9,-74.86 1232.04,-74.28"/>
<polygon fill="midnightblue" stroke="midnightblue" points="1410.66,-113.95 1421.16,-112.49 1412.04,-107.09 1410.66,-113.95"/>
</g>
<!-- Node39 -->
<g id="node38" class="node">
<title>Node39</title>
<g id="a_node38"><a xlink:href="_s_l_node_l_o_d_8cpp.html" target="_top" xlink:title=" ">
<polygon fill="white" stroke="black" points="1250,-56.5 1250,-75.5 1341,-75.5 1341,-56.5 1250,-56.5"/>
<text text-anchor="middle" x="1295.5" y="-63.5" font-family="Arial" font-size="10.00">SLNodeLOD.cpp</text>
</a>
</g>
</g>
<!-- Node31&#45;&gt;Node39 -->
<g id="edge51" class="edge">
<title>Node31&#45;&gt;Node39</title>
<path fill="none" stroke="midnightblue" d="M1427.11,-109.3C1395.46,-99.13 1350.33,-84.62 1322,-75.52"/>
<polygon fill="midnightblue" stroke="midnightblue" points="1426.29,-112.72 1436.88,-112.44 1428.43,-106.05 1426.29,-112.72"/>
</g>
<!-- Node40 -->
<g id="node39" class="node">
<title>Node40</title>
<g id="a_node39"><a xlink:href="_s_l_particle_system_8cpp.html" target="_top" xlink:title=" ">
<polygon fill="white" stroke="black" points="1359.5,-56.5 1359.5,-75.5 1473.5,-75.5 1473.5,-56.5 1359.5,-56.5"/>
<text text-anchor="middle" x="1416.5" y="-63.5" font-family="Arial" font-size="10.00">SLParticleSystem.cpp</text>
</a>
</g>
</g>
<!-- Node31&#45;&gt;Node40 -->
<g id="edge52" class="edge">
<title>Node31&#45;&gt;Node40</title>
<path fill="none" stroke="midnightblue" d="M1449.08,-104.43C1440.84,-94.97 1430.85,-83.48 1424.12,-75.75"/>
<polygon fill="midnightblue" stroke="midnightblue" points="1446.53,-106.84 1455.74,-112.08 1451.81,-102.24 1446.53,-106.84"/>
</g>
<!-- Node41 -->
<g id="node40" class="node">
<title>Node41</title>
<g id="a_node40"><a xlink:href="_s_l_pathtracer_8cpp.html" target="_top" xlink:title=" ">
<polygon fill="white" stroke="black" points="1491.5,-56.5 1491.5,-75.5 1583.5,-75.5 1583.5,-56.5 1491.5,-56.5"/>
<text text-anchor="middle" x="1537.5" y="-63.5" font-family="Arial" font-size="10.00">SLPathtracer.cpp</text>
</a>
</g>
</g>
<!-- Node31&#45;&gt;Node41 -->
<g id="edge53" class="edge">
<title>Node31&#45;&gt;Node41</title>
<path fill="none" stroke="midnightblue" d="M1483.53,-106.38C1496.91,-96.62 1514.06,-84.11 1525.39,-75.83"/>
<polygon fill="midnightblue" stroke="midnightblue" points="1481.4,-103.6 1475.39,-112.32 1485.53,-109.26 1481.4,-103.6"/>
</g>
<!-- Node42 -->
<g id="node41" class="node">
<title>Node42</title>
<g id="a_node41"><a xlink:href="_s_l_ray_8cpp.html" target="_top" xlink:title=" ">
<polygon fill="white" stroke="black" points="1602,-56.5 1602,-75.5 1667,-75.5 1667,-56.5 1602,-56.5"/>
<text text-anchor="middle" x="1634.5" y="-63.5" font-family="Arial" font-size="10.00">SLRay.cpp</text>
</a>
</g>
</g>
<!-- Node31&#45;&gt;Node42 -->
<g id="edge54" class="edge">
<title>Node31&#45;&gt;Node42</title>
<path fill="none" stroke="midnightblue" d="M1500.54,-109.3C1532.76,-99.13 1578.69,-84.62 1607.53,-75.52"/>
<polygon fill="midnightblue" stroke="midnightblue" points="1499.08,-106.09 1490.6,-112.44 1501.19,-112.77 1499.08,-106.09"/>
</g>
<!-- Node31&#45;&gt;Node44 -->
<g id="edge55" class="edge">
<title>Node31&#45;&gt;Node44</title>
<path fill="none" stroke="midnightblue" d="M1410.3,-115.14C1397.91,-113.94 1384.75,-112.8 1372.5,-112 877.3,-79.56 750.55,-122.79 256.5,-76 253.61,-75.73 250.64,-75.4 247.65,-75.03"/>
<polygon fill="midnightblue" stroke="midnightblue" points="1410.2,-118.65 1420.5,-116.16 1410.89,-111.68 1410.2,-118.65"/>
</g>
<!-- Node32&#45;&gt;Node10 -->
<g id="edge36" class="edge">
<title>Node32&#45;&gt;Node10</title>
<path fill="none" stroke="midnightblue" d="M623.3,-46.69C627.18,-37.59 631.68,-27.01 634.77,-19.75"/>
<polygon fill="midnightblue" stroke="midnightblue" points="620,-45.51 619.3,-56.08 626.44,-48.25 620,-45.51"/>
</g>
<!-- Node32&#45;&gt;Node11 -->
<g id="edge37" class="edge">
<title>Node32&#45;&gt;Node11</title>
<path fill="none" stroke="midnightblue" d="M588.49,-51.86C567.91,-41.85 540.16,-28.35 522.29,-19.65"/>
<polygon fill="midnightblue" stroke="midnightblue" points="587.14,-55.1 597.67,-56.32 590.2,-48.8 587.14,-55.1"/>
</g>
<!-- Node53&#45;&gt;Node6 -->
<g id="edge61" class="edge">
<title>Node53&#45;&gt;Node6</title>
<path fill="none" stroke="midnightblue" d="M1494.09,-277.83C1455.39,-267.63 1399.01,-252.78 1363.83,-243.52"/>
<polygon fill="midnightblue" stroke="midnightblue" points="1493.46,-281.28 1504.02,-280.44 1495.24,-274.51 1493.46,-281.28"/>
</g>
<!-- Node53&#45;&gt;Node14 -->
<g id="edge62" class="edge">
<title>Node53&#45;&gt;Node14</title>
<path fill="none" stroke="midnightblue" d="M1575.17,-277.58C1660.09,-252.39 1869.1,-189.67 2042.5,-132 2100.41,-112.74 2167.91,-88.22 2202.49,-75.51"/>
<polygon fill="midnightblue" stroke="midnightblue" points="1574.03,-274.27 1565.44,-280.47 1576.02,-280.98 1574.03,-274.27"/>
</g>
<!-- Node54 -->
<g id="node47" class="node">
<title>Node54</title>
<g id="a_node47"><a xlink:href="_s_l_joint_8cpp.html" target="_top" xlink:title=" ">
<polygon fill="white" stroke="black" points="1502.5,-224.5 1502.5,-243.5 1570.5,-243.5 1570.5,-224.5 1502.5,-224.5"/>
<text text-anchor="middle" x="1536.5" y="-231.5" font-family="Arial" font-size="10.00">SLJoint.cpp</text>
</a>
</g>
</g>
<!-- Node53&#45;&gt;Node54 -->
<g id="edge63" class="edge">
<title>Node53&#45;&gt;Node54</title>
<path fill="none" stroke="midnightblue" d="M1536.5,-269.8C1536.5,-260.91 1536.5,-250.78 1536.5,-243.75"/>
<polygon fill="midnightblue" stroke="midnightblue" points="1533,-270.08 1536.5,-280.08 1540,-270.08 1533,-270.08"/>
</g>
<!-- Node56 -->
<g id="node49" class="node">
<title>Node56</title>
<g id="a_node49"><a xlink:href="_s_l_device_location_8cpp.html" target="_top" xlink:title=" ">
<polygon fill="white" stroke="black" points="2190,-224.5 2190,-243.5 2305,-243.5 2305,-224.5 2190,-224.5"/>
<text text-anchor="middle" x="2247.5" y="-231.5" font-family="Arial" font-size="10.00">SLDeviceLocation.cpp</text>
</a>
</g>
</g>
<!-- Node55&#45;&gt;Node56 -->
<g id="edge66" class="edge">
<title>Node55&#45;&gt;Node56</title>
<path fill="none" stroke="midnightblue" d="M2158.16,-276.23C2180.05,-266.13 2210,-252.31 2229.05,-243.52"/>
<polygon fill="midnightblue" stroke="midnightblue" points="2156.65,-273.08 2149.04,-280.44 2159.59,-279.43 2156.65,-273.08"/>
</g>
<!-- Node57 -->
<g id="node50" class="node">
<title>Node57</title>
<g id="a_node50"><a xlink:href="_s_l_importer_8cpp.html" target="_top" xlink:title=" ">
<polygon fill="white" stroke="black" points="2089,-224.5 2089,-243.5 2172,-243.5 2172,-224.5 2089,-224.5"/>
<text text-anchor="middle" x="2130.5" y="-231.5" font-family="Arial" font-size="10.00">SLImporter.cpp</text>
</a>
</g>
</g>
<!-- Node55&#45;&gt;Node57 -->
<g id="edge67" class="edge">
<title>Node55&#45;&gt;Node57</title>
<path fill="none" stroke="midnightblue" d="M2130.5,-269.8C2130.5,-260.91 2130.5,-250.78 2130.5,-243.75"/>
<polygon fill="midnightblue" stroke="midnightblue" points="2127,-270.08 2130.5,-280.08 2134,-270.08 2127,-270.08"/>
</g>
</g>
</svg>
