<?xml version="1.0" encoding="UTF-8" standalone="no"?>
<!DOCTYPE svg PUBLIC "-//W3C//DTD SVG 1.1//EN"
 "http://www.w3.org/Graphics/SVG/1.1/DTD/svg11.dtd">
<!-- Generated by graphviz version 2.40.1 (20161225.0304)
 -->
<!-- Title: SLSamples2D.h Pages: 1 -->
<svg width="168pt" height="247pt"
 viewBox="0.00 0.00 168.18 247.00" xmlns="http://www.w3.org/2000/svg" xmlns:xlink="http://www.w3.org/1999/xlink">
<g id="graph0" class="graph" transform="scale(1 1) rotate(0) translate(4 243)">
<title>SLSamples2D.h</title>
<polygon fill="#ffffff" stroke="transparent" points="-4,4 -4,-243 164.1772,-243 164.1772,4 -4,4"/>
<!-- Node1 -->
<g id="node1" class="node">
<title>Node1</title>
<g id="a_node1"><a xlink:title=" ">
<polygon fill="#bfbfbf" stroke="#000000" points="30.0962,-220.5 30.0962,-238.5 118.3569,-238.5 118.3569,-220.5 30.0962,-220.5"/>
<text text-anchor="middle" x="74.2266" y="-226.5" font-family="Arial.ttf" font-size="10.00" fill="#000000">SLSamples2D.h</text>
</a>
</g>
</g>
<!-- Node2 -->
<g id="node2" class="node">
<title>Node2</title>
<g id="a_node2"><a xlink:href="_s_l_8h.html" target="_top" xlink:title=" ">
<polygon fill="#ffffff" stroke="#000000" points="38.9409,-110.5 38.9409,-128.5 75.5122,-128.5 75.5122,-110.5 38.9409,-110.5"/>
<text text-anchor="middle" x="57.2266" y="-116.5" font-family="Arial.ttf" font-size="10.00" fill="#000000">SL.h</text>
</a>
</g>
</g>
<!-- Node1&#45;&gt;Node2 -->
<g id="edge1" class="edge">
<title>Node1&#45;&gt;Node2</title>
<path fill="none" stroke="#191970" d="M72.2413,-220.47C70.2754,-211.3139 67.2708,-196.7206 65.2266,-184 62.7894,-168.8346 60.6822,-151.5602 59.2431,-138.7075"/>
<polygon fill="#191970" stroke="#191970" points="62.7172,-138.2793 58.1589,-128.7153 55.7581,-139.0345 62.7172,-138.2793"/>
</g>
<!-- Node7 -->
<g id="node7" class="node">
<title>Node7</title>
<g id="a_node7"><a xlink:href="_s_l_vec2_8h.html" target="_top" xlink:title=" ">
<polygon fill="#ffffff" stroke="#000000" points="74.1865,-165.5 74.1865,-183.5 132.2666,-183.5 132.2666,-165.5 74.1865,-165.5"/>
<text text-anchor="middle" x="103.2266" y="-171.5" font-family="Arial.ttf" font-size="10.00" fill="#000000">SLVec2.h</text>
</a>
</g>
</g>
<!-- Node1&#45;&gt;Node7 -->
<g id="edge6" class="edge">
<title>Node1&#45;&gt;Node7</title>
<path fill="none" stroke="#191970" d="M79.0153,-220.4179C82.9794,-212.8998 88.7356,-201.9829 93.6408,-192.6799"/>
<polygon fill="#191970" stroke="#191970" points="96.7656,-194.2576 98.3338,-183.7795 90.5736,-190.9927 96.7656,-194.2576"/>
</g>
<!-- Node3 -->
<g id="node3" class="node">
<title>Node3</title>
<g id="a_node3"><a xlink:href="_utils_8h.html" target="_top" xlink:title=" ">
<polygon fill="#ffffff" stroke="#000000" points="58.335,-55.5 58.335,-73.5 102.1182,-73.5 102.1182,-55.5 58.335,-55.5"/>
<text text-anchor="middle" x="80.2266" y="-61.5" font-family="Arial.ttf" font-size="10.00" fill="#000000">Utils.h</text>
</a>
</g>
</g>
<!-- Node2&#45;&gt;Node3 -->
<g id="edge2" class="edge">
<title>Node2&#45;&gt;Node3</title>
<path fill="none" stroke="#191970" d="M61.0245,-110.4179C64.1023,-103.0581 68.5421,-92.441 72.3775,-83.2695"/>
<polygon fill="#191970" stroke="#191970" points="75.717,-84.3556 76.3461,-73.7795 69.2589,-81.6549 75.717,-84.3556"/>
</g>
<!-- Node4 -->
<g id="node4" class="node">
<title>Node4</title>
<g id="a_node4"><a xlink:title=" ">
<polygon fill="#ffffff" stroke="#bfbfbf" points="0,-.5 0,-18.5 40.4531,-18.5 40.4531,-.5 0,-.5"/>
<text text-anchor="middle" x="20.2266" y="-6.5" font-family="Arial.ttf" font-size="10.00" fill="#000000">string</text>
</a>
</g>
</g>
<!-- Node3&#45;&gt;Node4 -->
<g id="edge3" class="edge">
<title>Node3&#45;&gt;Node4</title>
<path fill="none" stroke="#191970" d="M70.3188,-55.4179C61.5129,-47.3458 48.4327,-35.3556 37.8466,-25.6517"/>
<polygon fill="#191970" stroke="#191970" points="40.0862,-22.9567 30.3496,-18.7795 35.3561,-28.1168 40.0862,-22.9567"/>
</g>
<!-- Node5 -->
<g id="node5" class="node">
<title>Node5</title>
<g id="a_node5"><a xlink:title=" ">
<polygon fill="#ffffff" stroke="#bfbfbf" points="58.6108,-.5 58.6108,-18.5 101.8423,-18.5 101.8423,-.5 58.6108,-.5"/>
<text text-anchor="middle" x="80.2266" y="-6.5" font-family="Arial.ttf" font-size="10.00" fill="#000000">vector</text>
</a>
</g>
</g>
<!-- Node3&#45;&gt;Node5 -->
<g id="edge4" class="edge">
<title>Node3&#45;&gt;Node5</title>
<path fill="none" stroke="#191970" d="M80.2266,-55.4179C80.2266,-48.2164 80.2266,-37.8962 80.2266,-28.8632"/>
<polygon fill="#191970" stroke="#191970" points="83.7267,-28.7794 80.2266,-18.7795 76.7267,-28.7795 83.7267,-28.7794"/>
</g>
<!-- Node6 -->
<g id="node6" class="node">
<title>Node6</title>
<g id="a_node6"><a xlink:title=" ">
<polygon fill="#ffffff" stroke="#bfbfbf" points="120.2759,-.5 120.2759,-18.5 160.1772,-18.5 160.1772,-.5 120.2759,-.5"/>
<text text-anchor="middle" x="140.2266" y="-6.5" font-family="Arial.ttf" font-size="10.00" fill="#000000">cfloat</text>
</a>
</g>
</g>
<!-- Node3&#45;&gt;Node6 -->
<g id="edge5" class="edge">
<title>Node3&#45;&gt;Node6</title>
<path fill="none" stroke="#191970" d="M90.1343,-55.4179C98.9402,-47.3458 112.0204,-35.3556 122.6065,-25.6517"/>
<polygon fill="#191970" stroke="#191970" points="125.097,-28.1168 130.1035,-18.7795 120.3669,-22.9567 125.097,-28.1168"/>
</g>
<!-- Node7&#45;&gt;Node2 -->
<g id="edge7" class="edge">
<title>Node7&#45;&gt;Node2</title>
<path fill="none" stroke="#191970" d="M95.6306,-165.4179C89.078,-157.5833 79.4383,-146.0575 71.4562,-136.5137"/>
<polygon fill="#191970" stroke="#191970" points="74.0879,-134.2048 64.9876,-128.7795 68.7184,-138.6957 74.0879,-134.2048"/>
</g>
<!-- Node7&#45;&gt;Node3 -->
<g id="edge8" class="edge">
<title>Node7&#45;&gt;Node3</title>
<path fill="none" stroke="#191970" d="M101.3444,-165.4982C97.6211,-147.6913 89.2431,-107.6225 84.231,-83.6515"/>
<polygon fill="#191970" stroke="#191970" points="87.6074,-82.6981 82.1348,-73.6261 80.7556,-84.1308 87.6074,-82.6981"/>
</g>
</g>
</svg>
