<?xml version="1.0" encoding="UTF-8" standalone="no"?>
<!DOCTYPE svg PUBLIC "-//W3C//DTD SVG 1.1//EN"
 "http://www.w3.org/Graphics/SVG/1.1/DTD/svg11.dtd">
<!-- Generated by graphviz version 2.40.1 (20161225.0304)
 -->
<!-- Title: SLAccelStruct.h Pages: 1 -->
<svg width="206pt" height="140pt"
 viewBox="0.00 0.00 205.50 140.00" xmlns="http://www.w3.org/2000/svg" xmlns:xlink="http://www.w3.org/1999/xlink">
<g id="graph0" class="graph" transform="scale(1 1) rotate(0) translate(4 136)">
<title>SLAccelStruct.h</title>
<polygon fill="#ffffff" stroke="transparent" points="-4,4 -4,-136 201.5,-136 201.5,4 -4,4"/>
<!-- Node1 -->
<g id="node1" class="node">
<title>Node1</title>
<g id="a_node1"><a xlink:title=" ">
<polygon fill="#bfbfbf" stroke="#000000" points="63.5,-112.5 63.5,-131.5 151.5,-131.5 151.5,-112.5 63.5,-112.5"/>
<text text-anchor="middle" x="107.5" y="-119.5" font-family="Arial.ttf" font-size="10.00" fill="#000000">SLAccelStruct.h</text>
</a>
</g>
</g>
<!-- Node2 -->
<g id="node2" class="node">
<title>Node2</title>
<g id="a_node2"><a xlink:href="_s_l_compact_grid_8h.html" target="_top" xlink:title=" ">
<polygon fill="#ffffff" stroke="#000000" points="59.5,-56.5 59.5,-75.5 155.5,-75.5 155.5,-56.5 59.5,-56.5"/>
<text text-anchor="middle" x="107.5" y="-63.5" font-family="Arial.ttf" font-size="10.00" fill="#000000">SLCompactGrid.h</text>
</a>
</g>
</g>
<!-- Node1&#45;&gt;Node2 -->
<g id="edge1" class="edge">
<title>Node1&#45;&gt;Node2</title>
<path fill="none" stroke="#191970" d="M107.5,-102.1575C107.5,-93.155 107.5,-82.9199 107.5,-75.6427"/>
<polygon fill="#191970" stroke="#191970" points="104.0001,-102.2455 107.5,-112.2455 111.0001,-102.2456 104.0001,-102.2455"/>
</g>
<!-- Node3 -->
<g id="node3" class="node">
<title>Node3</title>
<g id="a_node3"><a xlink:href="_s_l_compact_grid_8cpp.html" target="_top" xlink:title=" ">
<polygon fill="#ffffff" stroke="#000000" points="0,-.5 0,-19.5 107,-19.5 107,-.5 0,-.5"/>
<text text-anchor="middle" x="53.5" y="-7.5" font-family="Arial.ttf" font-size="10.00" fill="#000000">SLCompactGrid.cpp</text>
</a>
</g>
</g>
<!-- Node2&#45;&gt;Node3 -->
<g id="edge2" class="edge">
<title>Node2&#45;&gt;Node3</title>
<path fill="none" stroke="#191970" d="M90.9031,-48.7884C81.6653,-39.2085 70.5096,-27.6396 62.7983,-19.6427"/>
<polygon fill="#191970" stroke="#191970" points="88.6331,-51.4766 98.0939,-56.2455 93.672,-46.6176 88.6331,-51.4766"/>
</g>
<!-- Node4 -->
<g id="node4" class="node">
<title>Node4</title>
<g id="a_node4"><a xlink:href="_s_l_mesh_8cpp.html" target="_top" xlink:title=" ">
<polygon fill="#ffffff" stroke="#000000" points="125.5,-.5 125.5,-19.5 197.5,-19.5 197.5,-.5 125.5,-.5"/>
<text text-anchor="middle" x="161.5" y="-7.5" font-family="Arial.ttf" font-size="10.00" fill="#000000">SLMesh.cpp</text>
</a>
</g>
</g>
<!-- Node2&#45;&gt;Node4 -->
<g id="edge3" class="edge">
<title>Node2&#45;&gt;Node4</title>
<path fill="none" stroke="#191970" d="M124.0969,-48.7884C133.3347,-39.2085 144.4904,-27.6396 152.2017,-19.6427"/>
<polygon fill="#191970" stroke="#191970" points="121.328,-46.6176 116.9061,-56.2455 126.3669,-51.4766 121.328,-46.6176"/>
</g>
</g>
</svg>
