<?xml version="1.0" encoding="UTF-8" standalone="no"?>
<!DOCTYPE svg PUBLIC "-//W3C//DTD SVG 1.1//EN"
 "http://www.w3.org/Graphics/SVG/1.1/DTD/svg11.dtd">
<!-- Generated by graphviz version 2.40.1 (20161225.0304)
 -->
<!-- Title: SLMesh.cpp Pages: 1 -->
<svg width="2484pt" height="522pt"
 viewBox="0.00 0.00 2484.26 522.00" xmlns="http://www.w3.org/2000/svg" xmlns:xlink="http://www.w3.org/1999/xlink">
<g id="graph0" class="graph" transform="scale(1 1) rotate(0) translate(4 518)">
<title>SLMesh.cpp</title>
<polygon fill="#ffffff" stroke="transparent" points="-4,4 -4,-518 2480.2559,-518 2480.2559,4 -4,4"/>
<!-- Node1 -->
<g id="node1" class="node">
<title>Node1</title>
<g id="a_node1"><a xlink:title=" ">
<polygon fill="#bfbfbf" stroke="#000000" points="2222.7168,-495.5 2222.7168,-513.5 2294.3027,-513.5 2294.3027,-495.5 2222.7168,-495.5"/>
<text text-anchor="middle" x="2258.5098" y="-501.5" font-family="Arial.ttf" font-size="10.00" fill="#000000">SLMesh.cpp</text>
</a>
</g>
</g>
<!-- Node2 -->
<g id="node2" class="node">
<title>Node2</title>
<g id="a_node2"><a xlink:href="stdafx_8h.html" target="_top" xlink:title=" ">
<polygon fill="#ffffff" stroke="#ff0000" points="1214,-330.5 1214,-348.5 1265.0195,-348.5 1265.0195,-330.5 1214,-330.5"/>
<text text-anchor="middle" x="1239.5098" y="-336.5" font-family="Arial.ttf" font-size="10.00" fill="#000000">stdafx.h</text>
</a>
</g>
</g>
<!-- Node1&#45;&gt;Node2 -->
<g id="edge1" class="edge">
<title>Node1&#45;&gt;Node2</title>
<path fill="none" stroke="#191970" d="M2222.5423,-498.676C2064.4934,-473.0842 1432.5215,-370.7531 1275.1429,-345.2698"/>
<polygon fill="#191970" stroke="#191970" points="1275.4887,-341.7803 1265.0578,-343.6368 1274.3697,-348.6903 1275.4887,-341.7803"/>
</g>
<!-- Node61 -->
<g id="node44" class="node">
<title>Node61</title>
<g id="a_node44"><a xlink:href="_s_l_application_8h.html" target="_top" xlink:title=" ">
<polygon fill="#ffffff" stroke="#ff0000" points="2390.7637,-330.5 2390.7637,-348.5 2476.2559,-348.5 2476.2559,-330.5 2390.7637,-330.5"/>
<text text-anchor="middle" x="2433.5098" y="-336.5" font-family="Arial.ttf" font-size="10.00" fill="#000000">SLApplication.h</text>
</a>
</g>
</g>
<!-- Node1&#45;&gt;Node61 -->
<g id="edge74" class="edge">
<title>Node1&#45;&gt;Node61</title>
<path fill="none" stroke="#191970" d="M2294.4885,-496.4634C2318.6204,-489.6541 2349.9879,-477.9096 2372.5098,-459 2404.3526,-432.2644 2421.4465,-384.714 2428.8781,-358.374"/>
<polygon fill="#191970" stroke="#191970" points="2432.3145,-359.0689 2431.4862,-348.5065 2425.5469,-357.2801 2432.3145,-359.0689"/>
</g>
<!-- Node76 -->
<g id="node45" class="node">
<title>Node76</title>
<g id="a_node45"><a xlink:href="_s_l_compact_grid_8h.html" target="_top" xlink:title=" ">
<polygon fill="#ffffff" stroke="#ff0000" points="2058.771,-330.5 2058.771,-348.5 2154.2485,-348.5 2154.2485,-330.5 2058.771,-330.5"/>
<text text-anchor="middle" x="2106.5098" y="-336.5" font-family="Arial.ttf" font-size="10.00" fill="#000000">SLCompactGrid.h</text>
</a>
</g>
</g>
<!-- Node1&#45;&gt;Node76 -->
<g id="edge77" class="edge">
<title>Node1&#45;&gt;Node76</title>
<path fill="none" stroke="#191970" d="M2222.6719,-496.7412C2199.9234,-490.1508 2171.3297,-478.5491 2152.5098,-459 2125.2461,-430.68 2113.699,-384.4663 2109.1644,-358.5916"/>
<polygon fill="#191970" stroke="#191970" points="2112.5983,-357.8977 2107.5838,-348.5647 2105.6837,-358.9878 2112.5983,-357.8977"/>
</g>
<!-- Node65 -->
<g id="node46" class="node">
<title>Node65</title>
<g id="a_node46"><a xlink:href="_s_l_node_8h.html" target="_top" xlink:title=" ">
<polygon fill="#ffffff" stroke="#ff0000" points="2172.271,-330.5 2172.271,-348.5 2232.7485,-348.5 2232.7485,-330.5 2172.271,-330.5"/>
<text text-anchor="middle" x="2202.5098" y="-336.5" font-family="Arial.ttf" font-size="10.00" fill="#000000">SLNode.h</text>
</a>
</g>
</g>
<!-- Node1&#45;&gt;Node65 -->
<g id="edge81" class="edge">
<title>Node1&#45;&gt;Node65</title>
<path fill="none" stroke="#191970" d="M2222.4038,-497.4388C2201.0243,-491.2012 2175.625,-479.7299 2162.5098,-459 2141.5701,-425.9029 2169.4755,-380.6595 2188.1525,-356.4413"/>
<polygon fill="#191970" stroke="#191970" points="2190.9729,-358.5191 2194.5085,-348.5316 2185.5163,-354.1344 2190.9729,-358.5191"/>
</g>
<!-- Node80 -->
<g id="node47" class="node">
<title>Node80</title>
<g id="a_node47"><a xlink:href="_s_l_ray_8h.html" target="_top" xlink:title=" ">
<polygon fill="#ffffff" stroke="#ff0000" points="2275.7012,-440.5 2275.7012,-458.5 2329.3184,-458.5 2329.3184,-440.5 2275.7012,-440.5"/>
<text text-anchor="middle" x="2302.5098" y="-446.5" font-family="Arial.ttf" font-size="10.00" fill="#000000">SLRay.h</text>
</a>
</g>
</g>
<!-- Node1&#45;&gt;Node80 -->
<g id="edge84" class="edge">
<title>Node1&#45;&gt;Node80</title>
<path fill="none" stroke="#191970" d="M2265.7755,-495.4179C2271.9798,-487.6624 2281.0778,-476.29 2288.667,-466.8035"/>
<polygon fill="#191970" stroke="#191970" points="2291.5723,-468.7746 2295.0862,-458.7795 2286.1062,-464.4017 2291.5723,-468.7746"/>
</g>
<!-- Node93 -->
<g id="node48" class="node">
<title>Node93</title>
<g id="a_node48"><a xlink:href="_s_l_raytracer_8h.html" target="_top" xlink:title=" ">
<polygon fill="#ffffff" stroke="#ff0000" points="2230.8252,-385.5 2230.8252,-403.5 2310.1943,-403.5 2310.1943,-385.5 2230.8252,-385.5"/>
<text text-anchor="middle" x="2270.5098" y="-391.5" font-family="Arial.ttf" font-size="10.00" fill="#000000">SLRaytracer.h</text>
</a>
</g>
</g>
<!-- Node1&#45;&gt;Node93 -->
<g id="edge85" class="edge">
<title>Node1&#45;&gt;Node93</title>
<path fill="none" stroke="#191970" d="M2289.5762,-495.4908C2307.2837,-488.5835 2327.9855,-477.0931 2338.5098,-459 2350.662,-438.1082 2325.8202,-419.746 2302.8223,-408.0112"/>
<polygon fill="#191970" stroke="#191970" points="2304.0531,-404.7197 2293.5231,-403.5489 2301.0247,-411.0307 2304.0531,-404.7197"/>
</g>
<!-- Node94 -->
<g id="node49" class="node">
<title>Node94</title>
<g id="a_node49"><a xlink:href="_s_l_scene_view_8h.html" target="_top" xlink:title=" ">
<polygon fill="#ffffff" stroke="#ff0000" points="2171.5708,-440.5 2171.5708,-458.5 2257.4487,-458.5 2257.4487,-440.5 2171.5708,-440.5"/>
<text text-anchor="middle" x="2214.5098" y="-446.5" font-family="Arial.ttf" font-size="10.00" fill="#000000">SLSceneView.h</text>
</a>
</g>
</g>
<!-- Node1&#45;&gt;Node94 -->
<g id="edge86" class="edge">
<title>Node1&#45;&gt;Node94</title>
<path fill="none" stroke="#191970" d="M2251.2441,-495.4179C2245.0397,-487.6624 2235.9418,-476.29 2228.3526,-466.8035"/>
<polygon fill="#191970" stroke="#191970" points="2230.9134,-464.4017 2221.9333,-458.7795 2225.4473,-468.7746 2230.9134,-464.4017"/>
</g>
<!-- Node110 -->
<g id="node50" class="node">
<title>Node110</title>
<g id="a_node50"><a xlink:href="_s_l_skybox_8h.html" target="_top" xlink:title=" ">
<polygon fill="#ffffff" stroke="#000000" points="2327.8276,-385.5 2327.8276,-403.5 2397.1919,-403.5 2397.1919,-385.5 2327.8276,-385.5"/>
<text text-anchor="middle" x="2362.5098" y="-391.5" font-family="Arial.ttf" font-size="10.00" fill="#000000">SLSkybox.h</text>
</a>
</g>
</g>
<!-- Node1&#45;&gt;Node110 -->
<g id="edge92" class="edge">
<title>Node1&#45;&gt;Node110</title>
<path fill="none" stroke="#191970" d="M2294.6999,-496.5563C2315.5508,-490.0382 2340.3573,-478.5828 2354.5098,-459 2363.8042,-446.1393 2365.3015,-427.945 2364.7632,-414.1575"/>
<polygon fill="#191970" stroke="#191970" points="2368.2246,-413.5243 2363.9588,-403.8262 2361.2457,-414.0678 2368.2246,-413.5243"/>
</g>
<!-- Node3 -->
<g id="node3" class="node">
<title>Node3</title>
<g id="a_node3"><a xlink:title=" ">
<polygon fill="#ffffff" stroke="#bfbfbf" points="1454.9458,-275.5 1454.9458,-293.5 1512.0737,-293.5 1512.0737,-275.5 1454.9458,-275.5"/>
<text text-anchor="middle" x="1483.5098" y="-281.5" font-family="Arial.ttf" font-size="10.00" fill="#000000">algorithm</text>
</a>
</g>
</g>
<!-- Node2&#45;&gt;Node3 -->
<g id="edge2" class="edge">
<title>Node2&#45;&gt;Node3</title>
<path fill="none" stroke="#191970" d="M1265.1609,-333.718C1308.0869,-324.042 1394.7049,-304.5175 1444.9835,-293.1842"/>
<polygon fill="#191970" stroke="#191970" points="1445.8459,-296.5777 1454.8315,-290.9644 1444.3066,-289.749 1445.8459,-296.5777"/>
</g>
<!-- Node4 -->
<g id="node4" class="node">
<title>Node4</title>
<g id="a_node4"><a xlink:title=" ">
<polygon fill="#ffffff" stroke="#bfbfbf" points="2235.7832,-275.5 2235.7832,-293.5 2281.2363,-293.5 2281.2363,-275.5 2235.7832,-275.5"/>
<text text-anchor="middle" x="2258.5098" y="-281.5" font-family="Arial.ttf" font-size="10.00" fill="#000000">atomic</text>
</a>
</g>
</g>
<!-- Node2&#45;&gt;Node4 -->
<g id="edge3" class="edge">
<title>Node2&#45;&gt;Node4</title>
<path fill="none" stroke="#191970" d="M1265.2772,-339.0214C1400.4845,-336.4015 2029.0975,-322.847 2221.5098,-294 2222.801,-293.8064 2224.1125,-293.5864 2225.4334,-293.3452"/>
<polygon fill="#191970" stroke="#191970" points="2226.5255,-296.6905 2235.5669,-291.1675 2225.0547,-289.8468 2226.5255,-296.6905"/>
</g>
<!-- Node5 -->
<g id="node5" class="node">
<title>Node5</title>
<g id="a_node5"><a xlink:title=" ">
<polygon fill="#ffffff" stroke="#bfbfbf" points="1530.2217,-275.5 1530.2217,-293.5 1576.7979,-293.5 1576.7979,-275.5 1530.2217,-275.5"/>
<text text-anchor="middle" x="1553.5098" y="-281.5" font-family="Arial.ttf" font-size="10.00" fill="#000000">chrono</text>
</a>
</g>
</g>
<!-- Node2&#45;&gt;Node5 -->
<g id="edge4" class="edge">
<title>Node2&#45;&gt;Node5</title>
<path fill="none" stroke="#191970" d="M1265.3855,-336.457C1313.6913,-330.5352 1420.9842,-316.2474 1520.2912,-294.0467"/>
<polygon fill="#191970" stroke="#191970" points="1521.2051,-297.4283 1530.1828,-291.8025 1519.6563,-290.6018 1521.2051,-297.4283"/>
</g>
<!-- Node6 -->
<g id="node6" class="node">
<title>Node6</title>
<g id="a_node6"><a xlink:title=" ">
<polygon fill="#ffffff" stroke="#bfbfbf" points="1595.1133,-275.5 1595.1133,-293.5 1643.9063,-293.5 1643.9063,-275.5 1595.1133,-275.5"/>
<text text-anchor="middle" x="1619.5098" y="-281.5" font-family="Arial.ttf" font-size="10.00" fill="#000000">cstdarg</text>
</a>
</g>
</g>
<!-- Node2&#45;&gt;Node6 -->
<g id="edge5" class="edge">
<title>Node2&#45;&gt;Node6</title>
<path fill="none" stroke="#191970" d="M1265.3263,-337.3663C1321.5868,-332.4491 1459.555,-318.9416 1584.9396,-293.8331"/>
<polygon fill="#191970" stroke="#191970" points="1585.9948,-297.1902 1595.0967,-291.7676 1584.5998,-290.3306 1585.9948,-297.1902"/>
</g>
<!-- Node7 -->
<g id="node7" class="node">
<title>Node7</title>
<g id="a_node7"><a xlink:title=" ">
<polygon fill="#ffffff" stroke="#bfbfbf" points="1737.564,-275.5 1737.564,-293.5 1777.4556,-293.5 1777.4556,-275.5 1737.564,-275.5"/>
<text text-anchor="middle" x="1757.5098" y="-281.5" font-family="Arial.ttf" font-size="10.00" fill="#000000">ctime</text>
</a>
</g>
</g>
<!-- Node2&#45;&gt;Node7 -->
<g id="edge6" class="edge">
<title>Node2&#45;&gt;Node7</title>
<path fill="none" stroke="#191970" d="M1265.183,-338.7005C1337.7372,-336.0956 1550.2734,-326.0785 1723.5098,-294 1724.7979,-293.7615 1726.108,-293.4965 1727.4273,-293.2113"/>
<polygon fill="#191970" stroke="#191970" points="1728.6403,-296.5172 1737.5133,-290.7274 1726.9664,-289.7203 1728.6403,-296.5172"/>
</g>
<!-- Node8 -->
<g id="node8" class="node">
<title>Node8</title>
<g id="a_node8"><a xlink:title=" ">
<polygon fill="#ffffff" stroke="#bfbfbf" points="1795.8398,-275.5 1795.8398,-293.5 1845.1797,-293.5 1845.1797,-275.5 1795.8398,-275.5"/>
<text text-anchor="middle" x="1820.5098" y="-281.5" font-family="Arial.ttf" font-size="10.00" fill="#000000">fstream</text>
</a>
</g>
</g>
<!-- Node2&#45;&gt;Node8 -->
<g id="edge7" class="edge">
<title>Node2&#45;&gt;Node8</title>
<path fill="none" stroke="#191970" d="M1265.0876,-339.0892C1342.3427,-337.4887 1580.075,-329.9232 1785.6783,-293.7998"/>
<polygon fill="#191970" stroke="#191970" points="1786.5236,-297.2044 1795.7532,-292.002 1785.2938,-290.3132 1786.5236,-297.2044"/>
</g>
<!-- Node9 -->
<g id="node9" class="node">
<title>Node9</title>
<g id="a_node9"><a xlink:title=" ">
<polygon fill="#ffffff" stroke="#bfbfbf" points="1863.106,-275.5 1863.106,-293.5 1921.9136,-293.5 1921.9136,-275.5 1863.106,-275.5"/>
<text text-anchor="middle" x="1892.5098" y="-281.5" font-family="Arial.ttf" font-size="10.00" fill="#000000">functional</text>
</a>
</g>
</g>
<!-- Node2&#45;&gt;Node9 -->
<g id="edge8" class="edge">
<title>Node2&#45;&gt;Node9</title>
<path fill="none" stroke="#191970" d="M1265.1755,-339.1696C1348.6797,-337.7661 1620.1978,-330.6185 1852.7431,-294.0486"/>
<polygon fill="#191970" stroke="#191970" points="1853.4149,-297.4858 1862.7388,-292.4545 1852.3124,-290.5731 1853.4149,-297.4858"/>
</g>
<!-- Node10 -->
<g id="node10" class="node">
<title>Node10</title>
<g id="a_node10"><a xlink:title=" ">
<polygon fill="#ffffff" stroke="#bfbfbf" points="0,-275.5 0,-293.5 51.0195,-293.5 51.0195,-275.5 0,-275.5"/>
<text text-anchor="middle" x="25.5098" y="-281.5" font-family="Arial.ttf" font-size="10.00" fill="#000000">iomanip</text>
</a>
</g>
</g>
<!-- Node2&#45;&gt;Node10 -->
<g id="edge9" class="edge">
<title>Node2&#45;&gt;Node10</title>
<path fill="none" stroke="#191970" d="M1213.8178,-339.184C1063.6752,-337.2346 298.4187,-325.8625 65.5098,-294 64.0512,-293.8005 62.5681,-293.5714 61.0737,-293.3189"/>
<polygon fill="#191970" stroke="#191970" points="61.679,-289.871 51.1917,-291.3761 60.3286,-296.7395 61.679,-289.871"/>
</g>
<!-- Node11 -->
<g id="node11" class="node">
<title>Node11</title>
<g id="a_node11"><a xlink:title=" ">
<polygon fill="#ffffff" stroke="#bfbfbf" points="790.3374,-110.5 790.3374,-128.5 844.6821,-128.5 844.6821,-110.5 790.3374,-110.5"/>
<text text-anchor="middle" x="817.5098" y="-116.5" font-family="Arial.ttf" font-size="10.00" fill="#000000">iostream</text>
</a>
</g>
</g>
<!-- Node2&#45;&gt;Node11 -->
<g id="edge10" class="edge">
<title>Node2&#45;&gt;Node11</title>
<path fill="none" stroke="#191970" d="M1213.8922,-339.385C1056.063,-338.5544 221.2451,-332.3538 184.5098,-294 97.4002,-203.0526 632.1759,-139.1092 780.2571,-123.3035"/>
<polygon fill="#191970" stroke="#191970" points="780.6599,-126.7805 790.2368,-122.249 779.9243,-119.8193 780.6599,-126.7805"/>
</g>
<!-- Node12 -->
<g id="node12" class="node">
<title>Node12</title>
<g id="a_node12"><a xlink:title=" ">
<polygon fill="#ffffff" stroke="#bfbfbf" points="108.0098,-275.5 108.0098,-293.5 137.0098,-293.5 137.0098,-275.5 108.0098,-275.5"/>
<text text-anchor="middle" x="122.1206" y="-281.5" font-family="Arial.ttf" font-size="10.00" fill="#000000">list</text>
</a>
</g>
</g>
<!-- Node2&#45;&gt;Node12 -->
<g id="edge11" class="edge">
<title>Node2&#45;&gt;Node12</title>
<path fill="none" stroke="#191970" d="M1213.8103,-339.3812C1070.1124,-338.5723 364.976,-332.6641 151.5098,-294 150.011,-293.7285 148.4831,-293.3982 146.9515,-293.0257"/>
<polygon fill="#191970" stroke="#191970" points="147.6412,-289.5808 137.0607,-290.1315 145.6753,-296.2991 147.6412,-289.5808"/>
</g>
<!-- Node13 -->
<g id="node13" class="node">
<title>Node13</title>
<g id="a_node13"><a xlink:title=" ">
<polygon fill="#ffffff" stroke="#bfbfbf" points="1847.7832,-220.5 1847.7832,-238.5 1883.2363,-238.5 1883.2363,-220.5 1847.7832,-220.5"/>
<text text-anchor="middle" x="1865.5098" y="-226.5" font-family="Arial.ttf" font-size="10.00" fill="#000000">map</text>
</a>
</g>
</g>
<!-- Node2&#45;&gt;Node13 -->
<g id="edge12" class="edge">
<title>Node2&#45;&gt;Node13</title>
<path fill="none" stroke="#191970" d="M1265.2031,-338.7816C1387.6843,-335.235 1907.3219,-318.7649 1930.5098,-294 1948.0453,-275.2718 1917.6406,-254.5235 1892.7701,-241.7447"/>
<polygon fill="#191970" stroke="#191970" points="1894.1403,-238.5185 1883.6207,-237.2582 1891.0583,-244.8035 1894.1403,-238.5185"/>
</g>
<!-- Node14 -->
<g id="node14" class="node">
<title>Node14</title>
<g id="a_node14"><a xlink:title=" ">
<polygon fill="#ffffff" stroke="#bfbfbf" points="193.606,-275.5 193.606,-293.5 237.4136,-293.5 237.4136,-275.5 193.606,-275.5"/>
<text text-anchor="middle" x="215.5098" y="-281.5" font-family="Arial.ttf" font-size="10.00" fill="#000000">queue</text>
</a>
</g>
</g>
<!-- Node2&#45;&gt;Node14 -->
<g id="edge13" class="edge">
<title>Node2&#45;&gt;Node14</title>
<path fill="none" stroke="#191970" d="M1213.8762,-339.1974C1080.1602,-337.4886 460.982,-327.9419 247.8393,-293.732"/>
<polygon fill="#191970" stroke="#191970" points="248.1391,-290.2335 237.6979,-292.0313 246.9813,-297.1371 248.1391,-290.2335"/>
</g>
<!-- Node15 -->
<g id="node15" class="node">
<title>Node15</title>
<g id="a_node15"><a xlink:title=" ">
<polygon fill="#ffffff" stroke="#bfbfbf" points="255.5566,-275.5 255.5566,-293.5 305.4629,-293.5 305.4629,-275.5 255.5566,-275.5"/>
<text text-anchor="middle" x="280.5098" y="-281.5" font-family="Arial.ttf" font-size="10.00" fill="#000000">random</text>
</a>
</g>
</g>
<!-- Node2&#45;&gt;Node15 -->
<g id="edge14" class="edge">
<title>Node2&#45;&gt;Node15</title>
<path fill="none" stroke="#191970" d="M1213.6816,-338.8846C1083.5742,-335.6837 499.1329,-320.0783 319.5098,-294 318.2296,-293.8141 316.93,-293.6053 315.6206,-293.3778"/>
<polygon fill="#191970" stroke="#191970" points="316.0435,-289.8924 305.5479,-291.3392 314.6549,-296.7534 316.0435,-289.8924"/>
</g>
<!-- Node16 -->
<g id="node16" class="node">
<title>Node16</title>
<g id="a_node16"><a xlink:title=" ">
<polygon fill="#ffffff" stroke="#bfbfbf" points="347.729,-220.5 347.729,-238.5 399.2905,-238.5 399.2905,-220.5 347.729,-220.5"/>
<text text-anchor="middle" x="373.5098" y="-226.5" font-family="Arial.ttf" font-size="10.00" fill="#000000">sstream</text>
</a>
</g>
</g>
<!-- Node2&#45;&gt;Node16 -->
<g id="edge15" class="edge">
<title>Node2&#45;&gt;Node16</title>
<path fill="none" stroke="#191970" d="M1213.943,-339.1692C1071.6853,-337.2071 382.9768,-326.0699 352.5098,-294 340.2848,-281.1318 349.7336,-261.0588 359.573,-246.7249"/>
<polygon fill="#191970" stroke="#191970" points="362.4111,-248.7736 365.5596,-238.6574 356.7898,-244.6022 362.4111,-248.7736"/>
</g>
<!-- Node17 -->
<g id="node17" class="node">
<title>Node17</title>
<g id="a_node17"><a xlink:title=" ">
<polygon fill="#ffffff" stroke="#bfbfbf" points="616.2832,-220.5 616.2832,-238.5 656.7363,-238.5 656.7363,-220.5 616.2832,-220.5"/>
<text text-anchor="middle" x="636.5098" y="-226.5" font-family="Arial.ttf" font-size="10.00" fill="#000000">string</text>
</a>
</g>
</g>
<!-- Node2&#45;&gt;Node17 -->
<g id="edge16" class="edge">
<title>Node2&#45;&gt;Node17</title>
<path fill="none" stroke="#191970" d="M1213.7062,-339.2807C1121.1669,-338.1848 806.5806,-331.706 714.5098,-294 688.9901,-283.5489 665.4459,-261.6716 651.0458,-246.3051"/>
<polygon fill="#191970" stroke="#191970" points="653.3362,-243.6198 644.032,-238.5519 648.1451,-248.3158 653.3362,-243.6198"/>
</g>
<!-- Node18 -->
<g id="node18" class="node">
<title>Node18</title>
<g id="a_node18"><a xlink:title=" ">
<polygon fill="#ffffff" stroke="#bfbfbf" points="483.3325,-275.5 483.3325,-293.5 527.687,-293.5 527.687,-275.5 483.3325,-275.5"/>
<text text-anchor="middle" x="505.5098" y="-281.5" font-family="Arial.ttf" font-size="10.00" fill="#000000">thread</text>
</a>
</g>
</g>
<!-- Node2&#45;&gt;Node18 -->
<g id="edge17" class="edge">
<title>Node2&#45;&gt;Node18</title>
<path fill="none" stroke="#191970" d="M1213.7936,-338.6376C1106.036,-334.9036 689.7916,-319.2464 537.7613,-293.7524"/>
<polygon fill="#191970" stroke="#191970" points="538.163,-290.2693 527.7071,-291.9796 536.9474,-297.163 538.163,-290.2693"/>
</g>
<!-- Node19 -->
<g id="node19" class="node">
<title>Node19</title>
<g id="a_node19"><a xlink:title=" ">
<polygon fill="#ffffff" stroke="#bfbfbf" points="545.9976,-275.5 545.9976,-293.5 597.022,-293.5 597.022,-275.5 545.9976,-275.5"/>
<text text-anchor="middle" x="571.5098" y="-281.5" font-family="Arial.ttf" font-size="10.00" fill="#000000">typeinfo</text>
</a>
</g>
</g>
<!-- Node2&#45;&gt;Node19 -->
<g id="edge18" class="edge">
<title>Node2&#45;&gt;Node19</title>
<path fill="none" stroke="#191970" d="M1213.9795,-338.3254C1113.5878,-333.6068 745.1442,-315.3289 607.2876,-293.7465"/>
<polygon fill="#191970" stroke="#191970" points="607.814,-290.2861 597.3791,-292.1201 606.6801,-297.1937 607.814,-290.2861"/>
</g>
<!-- Node20 -->
<g id="node20" class="node">
<title>Node20</title>
<g id="a_node20"><a xlink:title=" ">
<polygon fill="#ffffff" stroke="#bfbfbf" points="2015.894,-275.5 2015.894,-293.5 2059.1255,-293.5 2059.1255,-275.5 2015.894,-275.5"/>
<text text-anchor="middle" x="2037.5098" y="-281.5" font-family="Arial.ttf" font-size="10.00" fill="#000000">vector</text>
</a>
</g>
</g>
<!-- Node2&#45;&gt;Node20 -->
<g id="edge19" class="edge">
<title>Node2&#45;&gt;Node20</title>
<path fill="none" stroke="#191970" d="M1265.3818,-338.6453C1381.4629,-334.7048 1854.9473,-317.4753 2001.5098,-294 2002.8022,-293.793 2004.1155,-293.5593 2005.4382,-293.3044"/>
<polygon fill="#191970" stroke="#191970" points="2006.5834,-296.6344 2015.573,-291.0275 2005.049,-289.8046 2006.5834,-296.6344"/>
</g>
<!-- Node21 -->
<g id="node21" class="node">
<title>Node21</title>
<g id="a_node21"><a xlink:title=" ">
<polygon fill="#ffffff" stroke="#bfbfbf" points="615.4531,-275.5 615.4531,-293.5 667.5664,-293.5 667.5664,-275.5 615.4531,-275.5"/>
<text text-anchor="middle" x="641.5098" y="-281.5" font-family="Arial.ttf" font-size="10.00" fill="#000000">memory</text>
</a>
</g>
</g>
<!-- Node2&#45;&gt;Node21 -->
<g id="edge20" class="edge">
<title>Node2&#45;&gt;Node21</title>
<path fill="none" stroke="#191970" d="M1213.7604,-338.7898C1134.1389,-336.2974 885.0233,-326.2732 681.5098,-294 680.2409,-293.7988 678.9526,-293.5789 677.6541,-293.3439"/>
<polygon fill="#191970" stroke="#191970" points="678.1433,-289.8718 667.6463,-291.3083 676.7479,-296.7314 678.1433,-289.8718"/>
</g>
<!-- Node22 -->
<g id="node22" class="node">
<title>Node22</title>
<g id="a_node22"><a xlink:title=" ">
<polygon fill="#ffffff" stroke="#bfbfbf" points="1121.7241,-165.5 1121.7241,-183.5 1173.2954,-183.5 1173.2954,-165.5 1121.7241,-165.5"/>
<text text-anchor="middle" x="1147.5098" y="-171.5" font-family="Arial.ttf" font-size="10.00" fill="#000000">assert.h</text>
</a>
</g>
</g>
<!-- Node2&#45;&gt;Node22 -->
<g id="edge21" class="edge">
<title>Node2&#45;&gt;Node22</title>
<path fill="none" stroke="#191970" d="M1234.2998,-330.1561C1219.5617,-303.7235 1177.3737,-228.0604 1157.7622,-192.8875"/>
<polygon fill="#191970" stroke="#191970" points="1160.5894,-190.771 1152.6625,-183.7414 1154.4756,-194.18 1160.5894,-190.771"/>
</g>
<!-- Node23 -->
<g id="node23" class="node">
<title>Node23</title>
<g id="a_node23"><a xlink:title=" ">
<polygon fill="#ffffff" stroke="#bfbfbf" points="723.8892,-275.5 723.8892,-293.5 767.1304,-293.5 767.1304,-275.5 723.8892,-275.5"/>
<text text-anchor="middle" x="745.5098" y="-281.5" font-family="Arial.ttf" font-size="10.00" fill="#000000">float.h</text>
</a>
</g>
</g>
<!-- Node2&#45;&gt;Node23 -->
<g id="edge22" class="edge">
<title>Node2&#45;&gt;Node23</title>
<path fill="none" stroke="#191970" d="M1213.8298,-338.8594C1144.5274,-336.7367 947.9216,-328.1095 777.2353,-294.0038"/>
<polygon fill="#191970" stroke="#191970" points="777.8223,-290.5516 767.3253,-291.9887 776.4273,-297.4113 777.8223,-290.5516"/>
</g>
<!-- Node24 -->
<g id="node24" class="node">
<title>Node24</title>
<g id="a_node24"><a xlink:title=" ">
<polygon fill="#ffffff" stroke="#bfbfbf" points="784.9531,-275.5 784.9531,-293.5 832.0664,-293.5 832.0664,-275.5 784.9531,-275.5"/>
<text text-anchor="middle" x="808.5098" y="-281.5" font-family="Arial.ttf" font-size="10.00" fill="#000000">limits.h</text>
</a>
</g>
</g>
<!-- Node2&#45;&gt;Node24 -->
<g id="edge23" class="edge">
<title>Node2&#45;&gt;Node24</title>
<path fill="none" stroke="#191970" d="M1213.6704,-338.0403C1151.3633,-334.205 987.8661,-322.2631 842.198,-293.8143"/>
<polygon fill="#191970" stroke="#191970" points="842.6767,-290.3411 832.1866,-291.827 841.3137,-297.2071 842.6767,-290.3411"/>
</g>
<!-- Node25 -->
<g id="node25" class="node">
<title>Node25</title>
<g id="a_node25"><a xlink:title=" ">
<polygon fill="#ffffff" stroke="#bfbfbf" points="850.2241,-275.5 850.2241,-293.5 896.7954,-293.5 896.7954,-275.5 850.2241,-275.5"/>
<text text-anchor="middle" x="873.5098" y="-281.5" font-family="Arial.ttf" font-size="10.00" fill="#000000">math.h</text>
</a>
</g>
</g>
<!-- Node2&#45;&gt;Node25 -->
<g id="edge24" class="edge">
<title>Node2&#45;&gt;Node25</title>
<path fill="none" stroke="#191970" d="M1213.7167,-337.3441C1158.878,-332.4727 1026.5748,-319.1952 906.8842,-294.0214"/>
<polygon fill="#191970" stroke="#191970" points="907.3325,-290.5382 896.8217,-291.87 905.8689,-297.3835 907.3325,-290.5382"/>
</g>
<!-- Node26 -->
<g id="node26" class="node">
<title>Node26</title>
<g id="a_node26"><a xlink:title=" ">
<polygon fill="#ffffff" stroke="#bfbfbf" points="914.7783,-275.5 914.7783,-293.5 960.2412,-293.5 960.2412,-275.5 914.7783,-275.5"/>
<text text-anchor="middle" x="937.5098" y="-281.5" font-family="Arial.ttf" font-size="10.00" fill="#000000">stdio.h</text>
</a>
</g>
</g>
<!-- Node2&#45;&gt;Node26 -->
<g id="edge25" class="edge">
<title>Node2&#45;&gt;Node26</title>
<path fill="none" stroke="#191970" d="M1213.9932,-336.2548C1167.4395,-330.1093 1065.4895,-315.6144 970.2762,-293.945"/>
<polygon fill="#191970" stroke="#191970" points="971.0236,-290.5256 960.4927,-291.687 969.4494,-297.3463 971.0236,-290.5256"/>
</g>
<!-- Node27 -->
<g id="node27" class="node">
<title>Node27</title>
<g id="a_node27"><a xlink:title=" ">
<polygon fill="#ffffff" stroke="#bfbfbf" points="978.6675,-275.5 978.6675,-293.5 1026.3521,-293.5 1026.3521,-275.5 978.6675,-275.5"/>
<text text-anchor="middle" x="1002.5098" y="-281.5" font-family="Arial.ttf" font-size="10.00" fill="#000000">stdlib.h</text>
</a>
</g>
</g>
<!-- Node2&#45;&gt;Node27 -->
<g id="edge26" class="edge">
<title>Node2&#45;&gt;Node27</title>
<path fill="none" stroke="#191970" d="M1213.9486,-334.3204C1176.9356,-326.7081 1106.0666,-311.713 1036.4286,-294.1214"/>
<polygon fill="#191970" stroke="#191970" points="1037.1686,-290.6983 1026.6142,-291.6225 1035.4413,-297.4818 1037.1686,-290.6983"/>
</g>
<!-- Node28 -->
<g id="node28" class="node">
<title>Node28</title>
<g id="a_node28"><a xlink:title=" ">
<polygon fill="#ffffff" stroke="#bfbfbf" points="1044.1133,-275.5 1044.1133,-293.5 1092.9063,-293.5 1092.9063,-275.5 1044.1133,-275.5"/>
<text text-anchor="middle" x="1068.5098" y="-281.5" font-family="Arial.ttf" font-size="10.00" fill="#000000">string.h</text>
</a>
</g>
</g>
<!-- Node2&#45;&gt;Node28 -->
<g id="edge27" class="edge">
<title>Node2&#45;&gt;Node28</title>
<path fill="none" stroke="#191970" d="M1213.9093,-331.2659C1184.3568,-321.7608 1135.6176,-306.0844 1102.8061,-295.531"/>
<polygon fill="#191970" stroke="#191970" points="1103.7649,-292.1628 1093.1735,-292.4328 1101.6215,-298.8266 1103.7649,-292.1628"/>
</g>
<!-- Node29 -->
<g id="node29" class="node">
<title>Node29</title>
<g id="a_node29"><a xlink:title=" ">
<polygon fill="#ffffff" stroke="#bfbfbf" points="1110.894,-275.5 1110.894,-293.5 1154.1255,-293.5 1154.1255,-275.5 1110.894,-275.5"/>
<text text-anchor="middle" x="1132.5098" y="-281.5" font-family="Arial.ttf" font-size="10.00" fill="#000000">time.h</text>
</a>
</g>
</g>
<!-- Node2&#45;&gt;Node29 -->
<g id="edge28" class="edge">
<title>Node2&#45;&gt;Node29</title>
<path fill="none" stroke="#191970" d="M1221.8409,-330.4179C1204.8035,-321.6603 1178.7936,-308.2907 1159.2258,-298.2326"/>
<polygon fill="#191970" stroke="#191970" points="1160.6988,-295.0544 1150.2049,-293.5956 1157.4987,-301.2801 1160.6988,-295.0544"/>
</g>
<!-- Node30 -->
<g id="node30" class="node">
<title>Node30</title>
<g id="a_node30"><a xlink:href="_s_l_8h.html" target="_top" xlink:title=" ">
<polygon fill="#ffffff" stroke="#ff0000" points="1477.2241,-.5 1477.2241,-18.5 1513.7954,-18.5 1513.7954,-.5 1477.2241,-.5"/>
<text text-anchor="middle" x="1495.5098" y="-6.5" font-family="Arial.ttf" font-size="10.00" fill="#000000">SL.h</text>
</a>
</g>
</g>
<!-- Node2&#45;&gt;Node30 -->
<g id="edge29" class="edge">
<title>Node2&#45;&gt;Node30</title>
<path fill="none" stroke="#191970" d="M1213.8457,-339.3176C1048.9593,-338.0421 143.9762,-329.4393 98.5098,-294 74.9396,-275.628 79.5098,-259.3846 79.5098,-229.5 79.5098,-229.5 79.5098,-229.5 79.5098,-119.5 79.5098,-47.2425 1267.0117,-15.0778 1467.0627,-10.1719"/>
<polygon fill="#191970" stroke="#191970" points="1467.1763,-13.6702 1477.0884,-9.9287 1467.0064,-6.6723 1467.1763,-13.6702"/>
</g>
<!-- Node32 -->
<g id="node31" class="node">
<title>Node32</title>
<g id="a_node31"><a xlink:href="_s_l_enums_8h.html" target="_top" xlink:title=" ">
<polygon fill="#ffffff" stroke="#000000" points="2337.6626,-275.5 2337.6626,-293.5 2405.3569,-293.5 2405.3569,-275.5 2337.6626,-275.5"/>
<text text-anchor="middle" x="2371.5098" y="-281.5" font-family="Arial.ttf" font-size="10.00" fill="#000000">SLEnums.h</text>
</a>
</g>
</g>
<!-- Node2&#45;&gt;Node32 -->
<g id="edge30" class="edge">
<title>Node2&#45;&gt;Node32</title>
<path fill="none" stroke="#191970" d="M1265.1597,-339.0845C1382.7752,-337.0331 1882.2583,-326.7332 2290.5098,-294 2302.4082,-293.046 2315.2543,-291.6901 2327.1335,-290.3004"/>
<polygon fill="#191970" stroke="#191970" points="2327.7657,-293.7497 2337.2758,-289.0797 2326.9292,-286.7998 2327.7657,-293.7497"/>
</g>
<!-- Node33 -->
<g id="node32" class="node">
<title>Node33</title>
<g id="a_node32"><a xlink:href="_s_l_g_l_state_8h.html" target="_top" xlink:title=" ">
<polygon fill="#ffffff" stroke="#000000" points="1286.8794,-275.5 1286.8794,-293.5 1360.1401,-293.5 1360.1401,-275.5 1286.8794,-275.5"/>
<text text-anchor="middle" x="1323.5098" y="-281.5" font-family="Arial.ttf" font-size="10.00" fill="#000000">SLGLState.h</text>
</a>
</g>
</g>
<!-- Node2&#45;&gt;Node33 -->
<g id="edge31" class="edge">
<title>Node2&#45;&gt;Node33</title>
<path fill="none" stroke="#191970" d="M1253.3807,-330.4179C1266.2695,-321.9788 1285.6991,-309.257 1300.8411,-299.3426"/>
<polygon fill="#191970" stroke="#191970" points="1303.1693,-302.0017 1309.6183,-293.5956 1299.3348,-296.1454 1303.1693,-302.0017"/>
</g>
<!-- Node34 -->
<g id="node33" class="node">
<title>Node34</title>
<g id="a_node33"><a xlink:href="_s_l_vec3_8h.html" target="_top" xlink:title=" ">
<polygon fill="#ffffff" stroke="#ff0000" points="1438.4697,-110.5 1438.4697,-128.5 1496.5498,-128.5 1496.5498,-110.5 1438.4697,-110.5"/>
<text text-anchor="middle" x="1467.5098" y="-116.5" font-family="Arial.ttf" font-size="10.00" fill="#000000">SLVec3.h</text>
</a>
</g>
</g>
<!-- Node2&#45;&gt;Node34 -->
<g id="edge65" class="edge">
<title>Node2&#45;&gt;Node34</title>
<path fill="none" stroke="#191970" d="M1265.0278,-334.3654C1302.5123,-326.3908 1370.0222,-310.2485 1388.5098,-294 1436.5189,-251.8053 1456.9694,-174.6083 1464.1809,-138.7507"/>
<polygon fill="#191970" stroke="#191970" points="1467.6703,-139.132 1466.0752,-128.658 1460.7905,-137.8407 1467.6703,-139.132"/>
</g>
<!-- Node35 -->
<g id="node34" class="node">
<title>Node35</title>
<g id="a_node34"><a xlink:href="_s_l_vec2_8h.html" target="_top" xlink:title=" ">
<polygon fill="#ffffff" stroke="#ff0000" points="1495.4697,-55.5 1495.4697,-73.5 1553.5498,-73.5 1553.5498,-55.5 1495.4697,-55.5"/>
<text text-anchor="middle" x="1524.5098" y="-61.5" font-family="Arial.ttf" font-size="10.00" fill="#000000">SLVec2.h</text>
</a>
</g>
</g>
<!-- Node2&#45;&gt;Node35 -->
<g id="edge64" class="edge">
<title>Node2&#45;&gt;Node35</title>
<path fill="none" stroke="#191970" d="M1265.3098,-338.3026C1351.052,-334.1006 1622.7461,-318.9187 1652.5098,-294 1675.4239,-274.8159 1671.5098,-259.3846 1671.5098,-229.5 1671.5098,-229.5 1671.5098,-229.5 1671.5098,-174.5 1671.5098,-120.3841 1606.857,-89.6663 1563.305,-75.113"/>
<polygon fill="#191970" stroke="#191970" points="1564.1429,-71.7066 1553.5522,-72.003 1562.0162,-78.3758 1564.1429,-71.7066"/>
</g>
<!-- Node36 -->
<g id="node35" class="node">
<title>Node36</title>
<g id="a_node35"><a xlink:href="_s_l_vec4_8h.html" target="_top" xlink:title=" ">
<polygon fill="#ffffff" stroke="#ff0000" points="1343.4697,-165.5 1343.4697,-183.5 1401.5498,-183.5 1401.5498,-165.5 1343.4697,-165.5"/>
<text text-anchor="middle" x="1372.5098" y="-171.5" font-family="Arial.ttf" font-size="10.00" fill="#000000">SLVec4.h</text>
</a>
</g>
</g>
<!-- Node2&#45;&gt;Node36 -->
<g id="edge66" class="edge">
<title>Node2&#45;&gt;Node36</title>
<path fill="none" stroke="#191970" d="M1265.1594,-334.1274C1299.349,-326.3934 1357.0137,-311.1527 1369.5098,-294 1391.0122,-264.4846 1384.3727,-219.0865 1378.1191,-193.5841"/>
<polygon fill="#191970" stroke="#191970" points="1381.4347,-192.4352 1375.4606,-183.6853 1374.6742,-194.2509 1381.4347,-192.4352"/>
</g>
<!-- Node37 -->
<g id="node36" class="node">
<title>Node37</title>
<g id="a_node36"><a xlink:href="_s_l_mat4_8h.html" target="_top" xlink:title=" ">
<polygon fill="#ffffff" stroke="#ff0000" points="1248.1084,-220.5 1248.1084,-238.5 1306.9111,-238.5 1306.9111,-220.5 1248.1084,-220.5"/>
<text text-anchor="middle" x="1277.5098" y="-226.5" font-family="Arial.ttf" font-size="10.00" fill="#000000">SLMat4.h</text>
</a>
</g>
</g>
<!-- Node2&#45;&gt;Node37 -->
<g id="edge50" class="edge">
<title>Node2&#45;&gt;Node37</title>
<path fill="none" stroke="#191970" d="M1242.6195,-330.4982C1248.7988,-312.6108 1262.7383,-272.2594 1271.0059,-248.3271"/>
<polygon fill="#191970" stroke="#191970" points="1274.4,-249.2209 1274.3571,-238.6261 1267.7837,-246.9352 1274.4,-249.2209"/>
</g>
<!-- Node39 -->
<g id="node37" class="node">
<title>Node39</title>
<g id="a_node37"><a xlink:href="_s_l_mat3_8h.html" target="_top" xlink:title=" ">
<polygon fill="#ffffff" stroke="#ff0000" points="1191.1084,-165.5 1191.1084,-183.5 1249.9111,-183.5 1249.9111,-165.5 1191.1084,-165.5"/>
<text text-anchor="middle" x="1220.5098" y="-171.5" font-family="Arial.ttf" font-size="10.00" fill="#000000">SLMat3.h</text>
</a>
</g>
</g>
<!-- Node2&#45;&gt;Node39 -->
<g id="edge49" class="edge">
<title>Node2&#45;&gt;Node39</title>
<path fill="none" stroke="#191970" d="M1238.4338,-330.1561C1235.4162,-303.9504 1226.8265,-229.3557 1222.7324,-193.8021"/>
<polygon fill="#191970" stroke="#191970" points="1226.195,-193.2753 1221.5739,-183.7414 1219.2409,-194.0762 1226.195,-193.2753"/>
</g>
<!-- Node42 -->
<g id="node38" class="node">
<title>Node42</title>
<g id="a_node38"><a xlink:href="_s_l_object_8h.html" target="_top" xlink:title=" ">
<polygon fill="#ffffff" stroke="#000000" points="2114.7734,-55.5 2114.7734,-73.5 2180.2461,-73.5 2180.2461,-55.5 2114.7734,-55.5"/>
<text text-anchor="middle" x="2147.5098" y="-61.5" font-family="Arial.ttf" font-size="10.00" fill="#000000">SLObject.h</text>
</a>
</g>
</g>
<!-- Node2&#45;&gt;Node42 -->
<g id="edge51" class="edge">
<title>Node2&#45;&gt;Node42</title>
<path fill="none" stroke="#191970" d="M1265.1539,-339.0505C1409.4304,-336.4179 2114.7817,-322.1383 2150.5098,-294 2173.9874,-275.5098 2169.5098,-259.3846 2169.5098,-229.5 2169.5098,-229.5 2169.5098,-229.5 2169.5098,-174.5 2169.5098,-141.8452 2160.0721,-104.7779 2153.5596,-83.0866"/>
<polygon fill="#191970" stroke="#191970" points="2156.8893,-82.0075 2150.5688,-73.5045 2150.2073,-84.0932 2156.8893,-82.0075"/>
</g>
<!-- Node43 -->
<g id="node39" class="node">
<title>Node43</title>
<g id="a_node39"><a xlink:href="_s_l_plane_8h.html" target="_top" xlink:title=" ">
<polygon fill="#ffffff" stroke="#000000" points="1737.436,-165.5 1737.436,-183.5 1799.5835,-183.5 1799.5835,-165.5 1737.436,-165.5"/>
<text text-anchor="middle" x="1768.5098" y="-171.5" font-family="Arial.ttf" font-size="10.00" fill="#000000">SLPlane.h</text>
</a>
</g>
</g>
<!-- Node2&#45;&gt;Node43 -->
<g id="edge53" class="edge">
<title>Node2&#45;&gt;Node43</title>
<path fill="none" stroke="#191970" d="M1265.1853,-338.1298C1354.6466,-333.1854 1649.1781,-315.4192 1685.5098,-294 1724.8899,-270.7835 1750.0717,-220.6706 1761.4491,-193.2923"/>
<polygon fill="#191970" stroke="#191970" points="1764.8173,-194.2933 1765.2511,-183.7073 1758.3105,-191.7122 1764.8173,-194.2933"/>
</g>
<!-- Node44 -->
<g id="node40" class="node">
<title>Node44</title>
<g id="a_node40"><a xlink:href="_s_l_quat4_8h.html" target="_top" xlink:title=" ">
<polygon fill="#ffffff" stroke="#ff0000" points="2077.6035,-275.5 2077.6035,-293.5 2141.416,-293.5 2141.416,-275.5 2077.6035,-275.5"/>
<text text-anchor="middle" x="2109.5098" y="-281.5" font-family="Arial.ttf" font-size="10.00" fill="#000000">SLQuat4.h</text>
</a>
</g>
</g>
<!-- Node2&#45;&gt;Node44 -->
<g id="edge56" class="edge">
<title>Node2&#45;&gt;Node44</title>
<path fill="none" stroke="#191970" d="M1265.1559,-338.6907C1384.6193,-334.8311 1887.9248,-317.5567 2067.3044,-293.8837"/>
<polygon fill="#191970" stroke="#191970" points="2067.95,-297.328 2077.3798,-292.4979 2066.9961,-290.3933 2067.95,-297.328"/>
</g>
<!-- Node45 -->
<g id="node41" class="node">
<title>Node45</title>
<g id="a_node41"><a xlink:href="_s_l_rect_8h.html" target="_top" xlink:title=" ">
<polygon fill="#ffffff" stroke="#ff0000" points="1817.9434,-165.5 1817.9434,-183.5 1875.0762,-183.5 1875.0762,-165.5 1817.9434,-165.5"/>
<text text-anchor="middle" x="1846.5098" y="-171.5" font-family="Arial.ttf" font-size="10.00" fill="#000000">SLRect.h</text>
</a>
</g>
</g>
<!-- Node2&#45;&gt;Node45 -->
<g id="edge60" class="edge">
<title>Node2&#45;&gt;Node45</title>
<path fill="none" stroke="#191970" d="M1265.419,-338.8176C1390.1457,-335.4094 1923.7076,-319.3809 1947.5098,-294 1981.9014,-257.3272 1913.7713,-211.2191 1873.3853,-188.4877"/>
<polygon fill="#191970" stroke="#191970" points="1874.9645,-185.3619 1864.5144,-183.6167 1871.5953,-191.4978 1874.9645,-185.3619"/>
</g>
<!-- Node50 -->
<g id="node42" class="node">
<title>Node50</title>
<g id="a_node42"><a xlink:href="_s_l_vector_8h.html" target="_top" xlink:title=" ">
<polygon fill="#ffffff" stroke="#000000" points="2197.689,-110.5 2197.689,-128.5 2261.3306,-128.5 2261.3306,-110.5 2197.689,-110.5"/>
<text text-anchor="middle" x="2229.5098" y="-116.5" font-family="Arial.ttf" font-size="10.00" fill="#000000">SLVector.h</text>
</a>
</g>
</g>
<!-- Node2&#45;&gt;Node50 -->
<g id="edge67" class="edge">
<title>Node2&#45;&gt;Node50</title>
<path fill="none" stroke="#191970" d="M1265.1272,-339.1135C1412.4816,-336.7851 2146.8076,-323.7164 2183.5098,-294 2230.529,-255.9303 2232.7875,-176.007 2231.0589,-139.0313"/>
<polygon fill="#191970" stroke="#191970" points="2234.5266,-138.4048 2230.4092,-128.6428 2227.5403,-138.8418 2234.5266,-138.4048"/>
</g>
<!-- Node51 -->
<g id="node43" class="node">
<title>Node51</title>
<g id="a_node43"><a xlink:href="_s_l_average_timing_8h.html" target="_top" xlink:title=" ">
<polygon fill="#ffffff" stroke="#ff0000" points="361.8696,-275.5 361.8696,-293.5 465.1499,-293.5 465.1499,-275.5 361.8696,-275.5"/>
<text text-anchor="middle" x="413.5098" y="-281.5" font-family="Arial.ttf" font-size="10.00" fill="#000000">SLAverageTiming.h</text>
</a>
</g>
</g>
<!-- Node2&#45;&gt;Node51 -->
<g id="edge69" class="edge">
<title>Node2&#45;&gt;Node51</title>
<path fill="none" stroke="#191970" d="M1213.6804,-338.8547C1117.5771,-336.2672 771.4517,-325.2831 475.4459,-293.9956"/>
<polygon fill="#191970" stroke="#191970" points="475.6945,-290.5023 465.3796,-292.9216 474.9519,-297.4628 475.6945,-290.5023"/>
</g>
<!-- Node33&#45;&gt;Node34 -->
<g id="edge32" class="edge">
<title>Node33&#45;&gt;Node34</title>
<path fill="none" stroke="#191970" d="M1331.6644,-275.1561C1355.0299,-248.3832 1422.4737,-171.1038 1452.6305,-136.5492"/>
<polygon fill="#191970" stroke="#191970" points="1455.5062,-138.577 1459.4445,-128.7414 1450.2322,-133.9743 1455.5062,-138.577"/>
</g>
<!-- Node33&#45;&gt;Node36 -->
<g id="edge36" class="edge">
<title>Node33&#45;&gt;Node36</title>
<path fill="none" stroke="#191970" d="M1327.5196,-275.4982C1335.5236,-257.5302 1353.6245,-216.8954 1364.2668,-193.0046"/>
<polygon fill="#191970" stroke="#191970" points="1367.5725,-194.185 1368.4445,-183.6261 1361.1782,-191.3366 1367.5725,-194.185"/>
</g>
<!-- Node33&#45;&gt;Node37 -->
<g id="edge40" class="edge">
<title>Node33&#45;&gt;Node37</title>
<path fill="none" stroke="#191970" d="M1315.9138,-275.4179C1309.3612,-267.5833 1299.7215,-256.0575 1291.7394,-246.5137"/>
<polygon fill="#191970" stroke="#191970" points="1294.3711,-244.2048 1285.2708,-238.7795 1289.0016,-248.6957 1294.3711,-244.2048"/>
</g>
<!-- Node34&#45;&gt;Node30 -->
<g id="edge33" class="edge">
<title>Node34&#45;&gt;Node30</title>
<path fill="none" stroke="#191970" d="M1469.8011,-110.4982C1474.3543,-92.6108 1484.6255,-52.2594 1490.7174,-28.3271"/>
<polygon fill="#191970" stroke="#191970" points="1494.1117,-29.1805 1493.1867,-18.6261 1487.328,-27.4537 1494.1117,-29.1805"/>
</g>
<!-- Node34&#45;&gt;Node35 -->
<g id="edge34" class="edge">
<title>Node34&#45;&gt;Node35</title>
<path fill="none" stroke="#191970" d="M1476.9222,-110.4179C1485.2057,-102.425 1497.4707,-90.5903 1507.4743,-80.9377"/>
<polygon fill="#191970" stroke="#191970" points="1510.127,-83.2419 1514.8929,-73.7795 1505.2664,-78.2045 1510.127,-83.2419"/>
</g>
<!-- Node35&#45;&gt;Node30 -->
<g id="edge35" class="edge">
<title>Node35&#45;&gt;Node30</title>
<path fill="none" stroke="#191970" d="M1519.721,-55.4179C1515.7569,-47.8998 1510.0007,-36.9829 1505.0955,-27.6799"/>
<polygon fill="#191970" stroke="#191970" points="1508.1627,-25.9927 1500.4026,-18.7795 1501.9707,-29.2576 1508.1627,-25.9927"/>
</g>
<!-- Node36&#45;&gt;Node30 -->
<g id="edge37" class="edge">
<title>Node36&#45;&gt;Node30</title>
<path fill="none" stroke="#191970" d="M1376.3043,-165.3261C1381.8336,-152.4312 1392.8377,-128.4584 1405.5098,-110 1427.763,-77.5854 1459.5316,-44.467 1478.7672,-25.5062"/>
<polygon fill="#191970" stroke="#191970" points="1481.2246,-27.9986 1485.9466,-18.5142 1476.3407,-22.9838 1481.2246,-27.9986"/>
</g>
<!-- Node36&#45;&gt;Node34 -->
<g id="edge39" class="edge">
<title>Node36&#45;&gt;Node34</title>
<path fill="none" stroke="#191970" d="M1388.1971,-165.4179C1403.0487,-156.8195 1425.5796,-143.7754 1442.8367,-133.7844"/>
<polygon fill="#191970" stroke="#191970" points="1444.8985,-136.635 1451.7991,-128.5956 1441.3912,-130.577 1444.8985,-136.635"/>
</g>
<!-- Node36&#45;&gt;Node35 -->
<g id="edge38" class="edge">
<title>Node36&#45;&gt;Node35</title>
<path fill="none" stroke="#191970" d="M1378.9226,-165.1076C1388.585,-151.5134 1408.0448,-126.2115 1429.5098,-110 1447.6528,-96.2974 1470.5801,-85.1726 1489.3655,-77.3536"/>
<polygon fill="#191970" stroke="#191970" points="1490.7948,-80.5513 1498.7643,-73.57 1488.1806,-74.0577 1490.7948,-80.5513"/>
</g>
<!-- Node37&#45;&gt;Node22 -->
<g id="edge48" class="edge">
<title>Node37&#45;&gt;Node22</title>
<path fill="none" stroke="#191970" d="M1256.0429,-220.4179C1234.8728,-211.4613 1202.3004,-197.6806 1178.3599,-187.552"/>
<polygon fill="#191970" stroke="#191970" points="1179.582,-184.2687 1169.0085,-183.5956 1176.8544,-190.7155 1179.582,-184.2687"/>
</g>
<!-- Node37&#45;&gt;Node30 -->
<g id="edge41" class="edge">
<title>Node37&#45;&gt;Node30</title>
<path fill="none" stroke="#191970" d="M1280.8672,-220.123C1285.8462,-206.9869 1296.0651,-182.7293 1309.5098,-165 1356.8348,-102.5928 1433.635,-48.7513 1472.0559,-23.9963"/>
<polygon fill="#191970" stroke="#191970" points="1473.9604,-26.933 1480.5213,-18.614 1470.2047,-21.0258 1473.9604,-26.933"/>
</g>
<!-- Node37&#45;&gt;Node34 -->
<g id="edge46" class="edge">
<title>Node37&#45;&gt;Node34</title>
<path fill="none" stroke="#191970" d="M1283.3731,-220.2312C1292.62,-206.3267 1311.8847,-180.0943 1334.5098,-165 1363.1674,-145.8811 1400.6609,-134.0124 1428.5319,-127.2114"/>
<polygon fill="#191970" stroke="#191970" points="1429.3843,-130.6066 1438.3307,-124.931 1427.7976,-123.7888 1429.3843,-130.6066"/>
</g>
<!-- Node37&#45;&gt;Node36 -->
<g id="edge47" class="edge">
<title>Node37&#45;&gt;Node36</title>
<path fill="none" stroke="#191970" d="M1293.1971,-220.4179C1308.0487,-211.8195 1330.5796,-198.7754 1347.8367,-188.7844"/>
<polygon fill="#191970" stroke="#191970" points="1349.8985,-191.635 1356.7991,-183.5956 1346.3912,-185.577 1349.8985,-191.635"/>
</g>
<!-- Node37&#45;&gt;Node39 -->
<g id="edge42" class="edge">
<title>Node37&#45;&gt;Node39</title>
<path fill="none" stroke="#191970" d="M1268.0974,-220.4179C1259.8138,-212.425 1247.5488,-200.5903 1237.5453,-190.9377"/>
<polygon fill="#191970" stroke="#191970" points="1239.7532,-188.2045 1230.1267,-183.7795 1234.8926,-193.2419 1239.7532,-188.2045"/>
</g>
<!-- Node39&#45;&gt;Node11 -->
<g id="edge45" class="edge">
<title>Node39&#45;&gt;Node11</title>
<path fill="none" stroke="#191970" d="M1190.7139,-166.6891C1187.9498,-166.074 1185.1837,-165.499 1182.5098,-165 1063.8784,-142.8609 921.4912,-128.6132 855.0684,-122.6705"/>
<polygon fill="#191970" stroke="#191970" points="854.9677,-119.1481 844.6986,-121.7553 854.3522,-126.121 854.9677,-119.1481"/>
</g>
<!-- Node39&#45;&gt;Node30 -->
<g id="edge43" class="edge">
<title>Node39&#45;&gt;Node30</title>
<path fill="none" stroke="#191970" d="M1220.8876,-165.3385C1222.3412,-142.788 1229.3851,-84.303 1263.5098,-55 1293.798,-28.9914 1412.0185,-16.237 1467.0447,-11.6115"/>
<polygon fill="#191970" stroke="#191970" points="1467.4772,-15.088 1477.1626,-10.7933 1466.9129,-8.1108 1467.4772,-15.088"/>
</g>
<!-- Node39&#45;&gt;Node34 -->
<g id="edge44" class="edge">
<title>Node39&#45;&gt;Node34</title>
<path fill="none" stroke="#191970" d="M1250.3037,-167.8657C1294.8652,-157.9431 1378.912,-139.2282 1428.3741,-128.2144"/>
<polygon fill="#191970" stroke="#191970" points="1429.3769,-131.5769 1438.3771,-125.987 1427.8554,-124.7443 1429.3769,-131.5769"/>
</g>
<!-- Node42&#45;&gt;Node30 -->
<g id="edge52" class="edge">
<title>Node42&#45;&gt;Node30</title>
<path fill="none" stroke="#191970" d="M2114.5059,-59.3975C2103.691,-57.8387 2091.6041,-56.2168 2080.5098,-55 1867.3307,-31.6199 1609.1541,-15.9232 1524.1529,-11.0841"/>
<polygon fill="#191970" stroke="#191970" points="1524.1733,-7.5797 1513.9919,-10.5106 1523.7788,-14.5686 1524.1733,-7.5797"/>
</g>
<!-- Node43&#45;&gt;Node30 -->
<g id="edge54" class="edge">
<title>Node43&#45;&gt;Node30</title>
<path fill="none" stroke="#191970" d="M1757.947,-165.3155C1742.5949,-152.1978 1712.9481,-127.726 1685.5098,-110 1630.2653,-74.3103 1561.0299,-40.1266 1523.2543,-22.2922"/>
<polygon fill="#191970" stroke="#191970" points="1524.4534,-18.9889 1513.9133,-17.9133 1521.4821,-25.327 1524.4534,-18.9889"/>
</g>
<!-- Node43&#45;&gt;Node34 -->
<g id="edge55" class="edge">
<title>Node43&#45;&gt;Node34</title>
<path fill="none" stroke="#191970" d="M1737.0647,-167.727C1732.5213,-166.7876 1727.8991,-165.8531 1723.5098,-165 1646.9769,-150.1243 1557.1874,-134.6104 1506.8649,-126.0905"/>
<polygon fill="#191970" stroke="#191970" points="1507.1878,-122.5955 1496.7446,-124.3813 1506.0221,-129.4978 1507.1878,-122.5955"/>
</g>
<!-- Node44&#45;&gt;Node30 -->
<g id="edge57" class="edge">
<title>Node44&#45;&gt;Node30</title>
<path fill="none" stroke="#191970" d="M2103.165,-275.2688C2091.2038,-256.9386 2066.5098,-214.2787 2066.5098,-174.5 2066.5098,-174.5 2066.5098,-174.5 2066.5098,-119.5 2066.5098,-63.6318 1639.5843,-22.1356 1524.0456,-11.9284"/>
<polygon fill="#191970" stroke="#191970" points="1524.1279,-8.4224 1513.8612,-11.0389 1523.5187,-15.3958 1524.1279,-8.4224"/>
</g>
<!-- Node44&#45;&gt;Node36 -->
<g id="edge59" class="edge">
<title>Node44&#45;&gt;Node36</title>
<path fill="none" stroke="#191970" d="M2077.4798,-276.7777C2034.7909,-266.3728 1961.5986,-248.1089 1935.5098,-239 1915.7839,-232.1128 1912.7452,-225.203 1892.5098,-220 1801.5042,-196.6004 1516.7094,-181.2537 1411.8101,-176.2682"/>
<polygon fill="#191970" stroke="#191970" points="1411.8072,-172.7643 1401.654,-175.7913 1411.4788,-179.7566 1411.8072,-172.7643"/>
</g>
<!-- Node44&#45;&gt;Node37 -->
<g id="edge58" class="edge">
<title>Node44&#45;&gt;Node37</title>
<path fill="none" stroke="#191970" d="M2077.3786,-276.5103C2074.3927,-275.9327 2071.4028,-275.4153 2068.5098,-275 1921.0462,-253.8319 1456.8335,-235.911 1317.46,-230.8969"/>
<polygon fill="#191970" stroke="#191970" points="1317.3585,-227.3911 1307.2398,-230.5314 1317.1083,-234.3866 1317.3585,-227.3911"/>
</g>
<!-- Node45&#45;&gt;Node30 -->
<g id="edge61" class="edge">
<title>Node45&#45;&gt;Node30</title>
<path fill="none" stroke="#191970" d="M1831.3367,-165.4702C1795.596,-144.4178 1702.9823,-91.1279 1621.5098,-55 1588.6632,-40.4346 1549.573,-26.8784 1523.7375,-18.4179"/>
<polygon fill="#191970" stroke="#191970" points="1524.7873,-15.079 1514.1954,-15.3276 1522.6305,-21.7385 1524.7873,-15.079"/>
</g>
<!-- Node45&#45;&gt;Node34 -->
<g id="edge63" class="edge">
<title>Node45&#45;&gt;Node34</title>
<path fill="none" stroke="#191970" d="M1817.5381,-166.9009C1814.4999,-166.2108 1811.4487,-165.5616 1808.5098,-165 1700.1464,-144.2929 1570.6259,-129.7794 1506.8978,-123.3023"/>
<polygon fill="#191970" stroke="#191970" points="1507.1812,-119.8132 1496.8812,-122.2956 1506.4811,-126.7781 1507.1812,-119.8132"/>
</g>
<!-- Node45&#45;&gt;Node35 -->
<g id="edge62" class="edge">
<title>Node45&#45;&gt;Node35</title>
<path fill="none" stroke="#191970" d="M1825.9314,-165.441C1795.5688,-152.2621 1736.816,-127.4725 1685.5098,-110 1644.4486,-96.0165 1596.5055,-82.864 1563.6827,-74.3315"/>
<polygon fill="#191970" stroke="#191970" points="1564.1423,-70.8356 1553.5852,-71.7284 1562.3948,-77.614 1564.1423,-70.8356"/>
</g>
<!-- Node50&#45;&gt;Node30 -->
<g id="edge68" class="edge">
<title>Node50&#45;&gt;Node30</title>
<path fill="none" stroke="#191970" d="M2226.8866,-110.4988C2222.1173,-95.9467 2210.5234,-67.6127 2189.5098,-55 2131.788,-20.3545 1647.9368,-11.5416 1524.224,-9.8459"/>
<polygon fill="#191970" stroke="#191970" points="1524.0737,-6.3437 1514.0284,-9.7113 1523.9813,-13.3431 1524.0737,-6.3437"/>
</g>
<!-- Node51&#45;&gt;Node13 -->
<g id="edge71" class="edge">
<title>Node51&#45;&gt;Node13</title>
<path fill="none" stroke="#191970" d="M465.3701,-275.9835C468.4579,-275.6133 471.5219,-275.2805 474.5098,-275 753.0047,-248.8571 1665.5731,-232.7843 1837.4553,-229.951"/>
<polygon fill="#191970" stroke="#191970" points="1837.5371,-233.4502 1847.4785,-229.787 1837.4225,-226.4511 1837.5371,-233.4502"/>
</g>
<!-- Node51&#45;&gt;Node16 -->
<g id="edge73" class="edge">
<title>Node51&#45;&gt;Node16</title>
<path fill="none" stroke="#191970" d="M406.9046,-275.4179C401.3218,-267.7415 393.1619,-256.5217 386.3058,-247.0945"/>
<polygon fill="#191970" stroke="#191970" points="388.9708,-244.8082 380.2585,-238.7795 383.3096,-248.9255 388.9708,-244.8082"/>
</g>
<!-- Node51&#45;&gt;Node17 -->
<g id="edge70" class="edge">
<title>Node51&#45;&gt;Node17</title>
<path fill="none" stroke="#191970" d="M450.3337,-275.4179C493.9196,-264.668 565.6811,-246.969 606.2006,-236.9754"/>
<polygon fill="#191970" stroke="#191970" points="607.1618,-240.3433 616.0327,-234.5504 605.4855,-233.5469 607.1618,-240.3433"/>
</g>
<!-- Node51&#45;&gt;Node30 -->
<g id="edge72" class="edge">
<title>Node51&#45;&gt;Node30</title>
<path fill="none" stroke="#191970" d="M422.3187,-275.3638C438.544,-257.5294 471.5098,-216.1673 471.5098,-174.5 471.5098,-174.5 471.5098,-174.5 471.5098,-119.5 471.5098,-68.0478 1299.5856,-20.1799 1466.427,-11.0576"/>
<polygon fill="#191970" stroke="#191970" points="1467.0669,-14.5281 1476.8622,-10.4906 1466.687,-7.5384 1467.0669,-14.5281"/>
</g>
<!-- Node61&#45;&gt;Node4 -->
<g id="edge75" class="edge">
<title>Node61&#45;&gt;Node4</title>
<path fill="none" stroke="#191970" d="M2404.6121,-330.4179C2373.4267,-320.6167 2323.861,-305.039 2291.255,-294.7914"/>
<polygon fill="#191970" stroke="#191970" points="2291.8988,-291.325 2281.3094,-291.6656 2289.7999,-298.0029 2291.8988,-291.325"/>
</g>
<!-- Node61&#45;&gt;Node13 -->
<g id="edge76" class="edge">
<title>Node61&#45;&gt;Node13</title>
<path fill="none" stroke="#191970" d="M2433.7985,-330.2827C2433.6933,-315.9509 2431.1642,-288.5647 2414.5098,-275 2373.8651,-241.8958 2000.1791,-232.1217 1893.7027,-229.9973"/>
<polygon fill="#191970" stroke="#191970" points="1893.4943,-226.4928 1883.4289,-229.7998 1893.3597,-233.4915 1893.4943,-226.4928"/>
</g>
<!-- Node76&#45;&gt;Node4 -->
<g id="edge78" class="edge">
<title>Node76&#45;&gt;Node4</title>
<path fill="none" stroke="#191970" d="M2131.6095,-330.4179C2157.4057,-321.0837 2197.6815,-306.5102 2225.9233,-296.2912"/>
<polygon fill="#191970" stroke="#191970" points="2227.155,-299.5676 2235.3674,-292.8739 2224.7732,-292.9853 2227.155,-299.5676"/>
</g>
<!-- Node76&#45;&gt;Node20 -->
<g id="edge79" class="edge">
<title>Node76&#45;&gt;Node20</title>
<path fill="none" stroke="#191970" d="M2095.1158,-330.4179C2084.7905,-322.1876 2069.355,-309.8839 2057.06,-300.0836"/>
<polygon fill="#191970" stroke="#191970" points="2059.1526,-297.2757 2049.1513,-293.7795 2054.7894,-302.7495 2059.1526,-297.2757"/>
</g>
<!-- Node76&#45;&gt;Node34 -->
<g id="edge80" class="edge">
<title>Node76&#45;&gt;Node34</title>
<path fill="none" stroke="#191970" d="M2154.6933,-330.7482C2206.3197,-320.8845 2282.0411,-304.8179 2290.5098,-294 2295.7151,-287.3507 2295.9829,-281.4307 2290.5098,-275 2208.5105,-178.6553 1852.4681,-209.3084 1728.5098,-184 1649.1443,-167.7961 1557.4392,-143.9202 1506.5976,-130.2208"/>
<polygon fill="#191970" stroke="#191970" points="1507.256,-126.7731 1496.6889,-127.5401 1505.4279,-133.5302 1507.256,-126.7731"/>
</g>
<!-- Node65&#45;&gt;Node32 -->
<g id="edge82" class="edge">
<title>Node65&#45;&gt;Node32</title>
<path fill="none" stroke="#191970" d="M2230.4167,-330.4179C2258.7563,-321.1949 2302.8137,-306.8567 2334.1509,-296.6582"/>
<polygon fill="#191970" stroke="#191970" points="2335.4163,-299.9271 2343.8423,-293.5042 2333.25,-293.2708 2335.4163,-299.9271"/>
</g>
<!-- Node65&#45;&gt;Node44 -->
<g id="edge83" class="edge">
<title>Node65&#45;&gt;Node44</title>
<path fill="none" stroke="#191970" d="M2187.1527,-330.4179C2172.6137,-321.8195 2150.5572,-308.7754 2133.6634,-298.7844"/>
<polygon fill="#191970" stroke="#191970" points="2135.2787,-295.6735 2124.8896,-293.5956 2131.7154,-301.6987 2135.2787,-295.6735"/>
</g>
<!-- Node94&#45;&gt;Node65 -->
<g id="edge87" class="edge">
<title>Node94&#45;&gt;Node65</title>
<path fill="none" stroke="#191970" d="M2213.5278,-440.4982C2211.5852,-422.6913 2207.214,-382.6225 2204.599,-358.6515"/>
<polygon fill="#191970" stroke="#191970" points="2208.0693,-358.1876 2203.5053,-348.6261 2201.1106,-358.9468 2208.0693,-358.1876"/>
</g>
<!-- Node94&#45;&gt;Node93 -->
<g id="edge88" class="edge">
<title>Node94&#45;&gt;Node93</title>
<path fill="none" stroke="#191970" d="M2223.757,-440.4179C2231.8952,-432.425 2243.9451,-420.5903 2253.7731,-410.9377"/>
<polygon fill="#191970" stroke="#191970" points="2256.3796,-413.2836 2261.0616,-403.7795 2251.4746,-408.2895 2256.3796,-413.2836"/>
</g>
<!-- Node94&#45;&gt;Node110 -->
<g id="edge89" class="edge">
<title>Node94&#45;&gt;Node110</title>
<path fill="none" stroke="#191970" d="M2238.949,-440.4179C2263.3717,-431.3419 2301.1239,-417.3123 2328.473,-407.1488"/>
<polygon fill="#191970" stroke="#191970" points="2329.8798,-410.3599 2338.0343,-403.5956 2327.4414,-403.7984 2329.8798,-410.3599"/>
</g>
<!-- Node110&#45;&gt;Node32 -->
<g id="edge90" class="edge">
<title>Node110&#45;&gt;Node32</title>
<path fill="none" stroke="#191970" d="M2363.2463,-385.4982C2364.7032,-367.6913 2367.9816,-327.6225 2369.9428,-303.6515"/>
<polygon fill="#191970" stroke="#191970" points="2373.4359,-303.8783 2370.7631,-293.6261 2366.4592,-303.3074 2373.4359,-303.8783"/>
</g>
<!-- Node110&#45;&gt;Node65 -->
<g id="edge91" class="edge">
<title>Node110&#45;&gt;Node65</title>
<path fill="none" stroke="#191970" d="M2336.089,-385.4179C2309.3747,-376.2348 2267.9083,-361.9807 2238.2651,-351.7909"/>
<polygon fill="#191970" stroke="#191970" points="2239.2985,-348.4452 2228.7038,-348.5042 2237.0229,-355.065 2239.2985,-348.4452"/>
</g>
</g>
</svg>
