<?xml version="1.0" encoding="UTF-8" standalone="no"?>
<!DOCTYPE svg PUBLIC "-//W3C//DTD SVG 1.1//EN"
 "http://www.w3.org/Graphics/SVG/1.1/DTD/svg11.dtd">
<!-- Generated by graphviz version 2.36.0 (20140111.2315)
 -->
<!-- Title: SLGLImGui.h Pages: 1 -->
<svg width="2622pt" height="196pt"
 viewBox="0.00 0.00 2622.00 196.00" xmlns="http://www.w3.org/2000/svg" xmlns:xlink="http://www.w3.org/1999/xlink">
<g id="graph0" class="graph" transform="scale(1 1) rotate(0) translate(4 192)">
<title>SLGLImGui.h</title>
<polygon fill="white" stroke="none" points="-4,4 -4,-192 2618,-192 2618,4 -4,4"/>
<!-- Node1 -->
<g id="node1" class="node"><title>Node1</title>
<polygon fill="#bfbfbf" stroke="black" points="1205.5,-168.5 1205.5,-187.5 1282.5,-187.5 1282.5,-168.5 1205.5,-168.5"/>
<text text-anchor="middle" x="1244" y="-175.5" font-family="Arial.ttf" font-size="10.00">SLGLImGui.h</text>
</g>
<!-- Node2 -->
<g id="node2" class="node"><title>Node2</title>
<g id="a_node2"><a xlink:href="_s_l_g_l_im_gui_8cpp.html" target="_top" xlink:title="SLGLImGui.cpp">
<polygon fill="white" stroke="black" points="1147,-112.5 1147,-131.5 1235,-131.5 1235,-112.5 1147,-112.5"/>
<text text-anchor="middle" x="1191" y="-119.5" font-family="Arial.ttf" font-size="10.00">SLGLImGui.cpp</text>
</a>
</g>
</g>
<!-- Node1&#45;&gt;Node2 -->
<g id="edge1" class="edge"><title>Node1&#45;&gt;Node2</title>
<path fill="none" stroke="midnightblue" d="M1228.02,-160.718C1218.68,-151.2 1207.25,-139.561 1199.59,-131.751"/>
<polygon fill="midnightblue" stroke="midnightblue" points="1225.75,-163.398 1235.25,-168.083 1230.74,-158.494 1225.75,-163.398"/>
</g>
<!-- Node3 -->
<g id="node3" class="node"><title>Node3</title>
<g id="a_node3"><a xlink:href="_s_l_scene_view_8h.html" target="_top" xlink:title="SLSceneView.h">
<polygon fill="white" stroke="black" points="1253.5,-112.5 1253.5,-131.5 1340.5,-131.5 1340.5,-112.5 1253.5,-112.5"/>
<text text-anchor="middle" x="1297" y="-119.5" font-family="Arial.ttf" font-size="10.00">SLSceneView.h</text>
</a>
</g>
</g>
<!-- Node1&#45;&gt;Node3 -->
<g id="edge2" class="edge"><title>Node1&#45;&gt;Node3</title>
<path fill="none" stroke="midnightblue" d="M1259.98,-160.718C1269.32,-151.2 1280.75,-139.561 1288.41,-131.751"/>
<polygon fill="midnightblue" stroke="midnightblue" points="1257.26,-158.494 1252.75,-168.083 1262.25,-163.398 1257.26,-158.494"/>
</g>
<!-- Node4 -->
<g id="node4" class="node"><title>Node4</title>
<g id="a_node4"><a xlink:href="_s_l_interface_8cpp.html" target="_top" xlink:title="SLProject C&#45;functions interface implementation. ">
<polygon fill="white" stroke="black" points="-0.5,-56.5 -0.5,-75.5 86.5,-75.5 86.5,-56.5 -0.5,-56.5"/>
<text text-anchor="middle" x="43" y="-63.5" font-family="Arial.ttf" font-size="10.00">SLInterface.cpp</text>
</a>
</g>
</g>
<!-- Node3&#45;&gt;Node4 -->
<g id="edge3" class="edge"><title>Node3&#45;&gt;Node4</title>
<path fill="none" stroke="midnightblue" d="M1243.21,-112.096C734.308,-62.0117 600.586,-126.514 96,-76 92.9354,-75.6932 89.7802,-75.3159 86.6087,-74.8915"/>
<polygon fill="midnightblue" stroke="midnightblue" points="1243.09,-115.602 1253.39,-113.108 1243.79,-108.636 1243.09,-115.602"/>
</g>
<!-- Node5 -->
<g id="node5" class="node"><title>Node5</title>
<g id="a_node5"><a xlink:href="_s_l_skybox_8cpp.html" target="_top" xlink:title="SLSkybox.cpp">
<polygon fill="white" stroke="black" points="105,-56.5 105,-75.5 185,-75.5 185,-56.5 105,-56.5"/>
<text text-anchor="middle" x="145" y="-63.5" font-family="Arial.ttf" font-size="10.00">SLSkybox.cpp</text>
</a>
</g>
</g>
<!-- Node3&#45;&gt;Node5 -->
<g id="edge4" class="edge"><title>Node3&#45;&gt;Node5</title>
<path fill="none" stroke="midnightblue" d="M1243.38,-112.109C777.716,-65.6732 654.936,-125.957 194,-76 191.076,-75.6831 188.065,-75.2917 185.041,-74.851"/>
<polygon fill="midnightblue" stroke="midnightblue" points="1243.09,-115.598 1253.39,-113.119 1243.79,-108.633 1243.09,-115.598"/>
</g>
<!-- Node6 -->
<g id="node6" class="node"><title>Node6</title>
<g id="a_node6"><a xlink:href="_s_l_anim_track_8cpp.html" target="_top" xlink:title="SLAnimTrack.cpp">
<polygon fill="white" stroke="black" points="203.5,-56.5 203.5,-75.5 298.5,-75.5 298.5,-56.5 203.5,-56.5"/>
<text text-anchor="middle" x="251" y="-63.5" font-family="Arial.ttf" font-size="10.00">SLAnimTrack.cpp</text>
</a>
</g>
</g>
<!-- Node3&#45;&gt;Node6 -->
<g id="edge5" class="edge"><title>Node3&#45;&gt;Node6</title>
<path fill="none" stroke="midnightblue" d="M1243.21,-112.086C828.159,-69.8209 718.991,-116.208 308,-76 304.909,-75.6976 301.731,-75.3365 298.532,-74.9353"/>
<polygon fill="midnightblue" stroke="midnightblue" points="1243.08,-115.591 1253.39,-113.133 1243.8,-108.627 1243.08,-115.591"/>
</g>
<!-- Node7 -->
<g id="node7" class="node"><title>Node7</title>
<g id="a_node7"><a xlink:href="_s_l_camera_8cpp.html" target="_top" xlink:title="SLCamera.cpp">
<polygon fill="white" stroke="black" points="316.5,-56.5 316.5,-75.5 399.5,-75.5 399.5,-56.5 316.5,-56.5"/>
<text text-anchor="middle" x="358" y="-63.5" font-family="Arial.ttf" font-size="10.00">SLCamera.cpp</text>
</a>
</g>
</g>
<!-- Node3&#45;&gt;Node7 -->
<g id="edge6" class="edge"><title>Node3&#45;&gt;Node7</title>
<path fill="none" stroke="midnightblue" d="M1243.19,-112.077C872.852,-73.6095 774.921,-116 409,-76 405.961,-75.6678 402.83,-75.2651 399.684,-74.8165"/>
<polygon fill="midnightblue" stroke="midnightblue" points="1243.08,-115.584 1253.39,-113.149 1243.81,-108.623 1243.08,-115.584"/>
</g>
<!-- Node8 -->
<g id="node8" class="node"><title>Node8</title>
<g id="a_node8"><a xlink:href="_s_l_input_manager_8cpp.html" target="_top" xlink:title="SLInputManager.cpp">
<polygon fill="white" stroke="black" points="417.5,-56.5 417.5,-75.5 526.5,-75.5 526.5,-56.5 417.5,-56.5"/>
<text text-anchor="middle" x="472" y="-63.5" font-family="Arial.ttf" font-size="10.00">SLInputManager.cpp</text>
</a>
</g>
</g>
<!-- Node3&#45;&gt;Node8 -->
<g id="edge7" class="edge"><title>Node3&#45;&gt;Node8</title>
<path fill="none" stroke="midnightblue" d="M1243.07,-112.051C929.043,-78.1702 846.276,-105.645 536,-76 532.984,-75.7119 529.893,-75.3844 526.775,-75.0291"/>
<polygon fill="midnightblue" stroke="midnightblue" points="1243.06,-115.571 1253.38,-113.176 1243.82,-108.612 1243.06,-115.571"/>
</g>
<!-- Node9 -->
<g id="node9" class="node"><title>Node9</title>
<g id="a_node9"><a xlink:href="_s_l_keyframe_camera_8cpp.html" target="_top" xlink:title="SLKeyframeCamera.cpp">
<polygon fill="white" stroke="black" points="545,-56.5 545,-75.5 671,-75.5 671,-56.5 545,-56.5"/>
<text text-anchor="middle" x="608" y="-63.5" font-family="Arial.ttf" font-size="10.00">SLKeyframeCamera.cpp</text>
</a>
</g>
</g>
<!-- Node3&#45;&gt;Node9 -->
<g id="edge8" class="edge"><title>Node3&#45;&gt;Node9</title>
<path fill="none" stroke="midnightblue" d="M1243.26,-112.05C993.225,-83.3972 927.352,-99.0423 681,-76 677.821,-75.7027 674.568,-75.3776 671.283,-75.0331"/>
<polygon fill="midnightblue" stroke="midnightblue" points="1243.04,-115.548 1253.38,-113.222 1243.85,-108.594 1243.04,-115.548"/>
</g>
<!-- Node10 -->
<g id="node10" class="node"><title>Node10</title>
<g id="a_node10"><a xlink:href="_s_l_light_direct_8cpp.html" target="_top" xlink:title="SLLightDirect.cpp">
<polygon fill="white" stroke="black" points="689.5,-56.5 689.5,-75.5 784.5,-75.5 784.5,-56.5 689.5,-56.5"/>
<text text-anchor="middle" x="737" y="-63.5" font-family="Arial.ttf" font-size="10.00">SLLightDirect.cpp</text>
</a>
</g>
</g>
<!-- Node3&#45;&gt;Node10 -->
<g id="edge9" class="edge"><title>Node3&#45;&gt;Node10</title>
<path fill="none" stroke="midnightblue" d="M1243.42,-112.046C1043.2,-87.5737 990.028,-99.2822 794,-76 790.916,-75.6337 787.743,-75.2242 784.548,-74.7872"/>
<polygon fill="midnightblue" stroke="midnightblue" points="1243.02,-115.523 1253.37,-113.277 1243.88,-108.576 1243.02,-115.523"/>
</g>
<!-- Node11 -->
<g id="node11" class="node"><title>Node11</title>
<g id="a_node11"><a xlink:href="_s_l_light_rect_8cpp.html" target="_top" xlink:title="SLLightRect.cpp">
<polygon fill="white" stroke="black" points="803,-56.5 803,-75.5 893,-75.5 893,-56.5 803,-56.5"/>
<text text-anchor="middle" x="848" y="-63.5" font-family="Arial.ttf" font-size="10.00">SLLightRect.cpp</text>
</a>
</g>
</g>
<!-- Node3&#45;&gt;Node11 -->
<g id="edge10" class="edge"><title>Node3&#45;&gt;Node11</title>
<path fill="none" stroke="midnightblue" d="M1243.16,-111.973C1090.85,-91.4148 1050.2,-96.1307 902,-76 899.08,-75.6034 896.076,-75.1709 893.05,-74.717"/>
<polygon fill="midnightblue" stroke="midnightblue" points="1242.98,-115.48 1253.36,-113.364 1243.93,-108.545 1242.98,-115.48"/>
</g>
<!-- Node12 -->
<g id="node12" class="node"><title>Node12</title>
<g id="a_node12"><a xlink:href="_s_l_light_spot_8cpp.html" target="_top" xlink:title="SLLightSpot.cpp">
<polygon fill="white" stroke="black" points="911,-56.5 911,-75.5 1001,-75.5 1001,-56.5 911,-56.5"/>
<text text-anchor="middle" x="956" y="-63.5" font-family="Arial.ttf" font-size="10.00">SLLightSpot.cpp</text>
</a>
</g>
</g>
<!-- Node3&#45;&gt;Node12 -->
<g id="edge11" class="edge"><title>Node3&#45;&gt;Node12</title>
<path fill="none" stroke="midnightblue" d="M1243.33,-111.912C1138.92,-95.0482 1111.35,-91.9626 1011,-76 1007.75,-75.4832 1004.4,-74.9449 1001.02,-74.4"/>
<polygon fill="midnightblue" stroke="midnightblue" points="1242.9,-115.389 1253.34,-113.532 1244.02,-108.479 1242.9,-115.389"/>
</g>
<!-- Node13 -->
<g id="node13" class="node"><title>Node13</title>
<g id="a_node13"><a xlink:href="_s_l_material_8cpp.html" target="_top" xlink:title="SLMaterial.cpp">
<polygon fill="white" stroke="black" points="1019.5,-56.5 1019.5,-75.5 1102.5,-75.5 1102.5,-56.5 1019.5,-56.5"/>
<text text-anchor="middle" x="1061" y="-63.5" font-family="Arial.ttf" font-size="10.00">SLMaterial.cpp</text>
</a>
</g>
</g>
<!-- Node3&#45;&gt;Node13 -->
<g id="edge12" class="edge"><title>Node3&#45;&gt;Node13</title>
<path fill="none" stroke="midnightblue" d="M1249.59,-110.153C1205,-99.95 1139.15,-84.8809 1098.22,-75.5164"/>
<polygon fill="midnightblue" stroke="midnightblue" points="1249.08,-113.625 1259.61,-112.444 1250.64,-106.801 1249.08,-113.625"/>
</g>
<!-- Node14 -->
<g id="node14" class="node"><title>Node14</title>
<g id="a_node14"><a xlink:href="_s_l_mesh_8cpp.html" target="_top" xlink:title="SLMesh.cpp">
<polygon fill="white" stroke="black" points="1121,-56.5 1121,-75.5 1193,-75.5 1193,-56.5 1121,-56.5"/>
<text text-anchor="middle" x="1157" y="-63.5" font-family="Arial.ttf" font-size="10.00">SLMesh.cpp</text>
</a>
</g>
</g>
<!-- Node3&#45;&gt;Node14 -->
<g id="edge13" class="edge"><title>Node3&#45;&gt;Node14</title>
<path fill="none" stroke="midnightblue" d="M1265.3,-108.772C1239,-98.6287 1202.28,-84.4669 1179.08,-75.5164"/>
<polygon fill="midnightblue" stroke="midnightblue" points="1264.23,-112.11 1274.82,-112.444 1266.75,-105.579 1264.23,-112.11"/>
</g>
<!-- Node15 -->
<g id="node15" class="node"><title>Node15</title>
<g id="a_node15"><a xlink:href="_s_l_node_8cpp.html" target="_top" xlink:title="SLNode.cpp">
<polygon fill="white" stroke="black" points="1211,-56.5 1211,-75.5 1283,-75.5 1283,-56.5 1211,-56.5"/>
<text text-anchor="middle" x="1247" y="-63.5" font-family="Arial.ttf" font-size="10.00">SLNode.cpp</text>
</a>
</g>
</g>
<!-- Node3&#45;&gt;Node15 -->
<g id="edge14" class="edge"><title>Node3&#45;&gt;Node15</title>
<path fill="none" stroke="midnightblue" d="M1281.92,-104.718C1273.11,-95.1997 1262.33,-83.5608 1255.1,-75.7511"/>
<polygon fill="midnightblue" stroke="midnightblue" points="1279.38,-107.123 1288.74,-112.083 1284.52,-102.367 1279.38,-107.123"/>
</g>
<!-- Node16 -->
<g id="node16" class="node"><title>Node16</title>
<g id="a_node16"><a xlink:href="_s_l_pathtracer_8cpp.html" target="_top" xlink:title="SLPathtracer.cpp">
<polygon fill="white" stroke="black" points="1301,-56.5 1301,-75.5 1395,-75.5 1395,-56.5 1301,-56.5"/>
<text text-anchor="middle" x="1348" y="-63.5" font-family="Arial.ttf" font-size="10.00">SLPathtracer.cpp</text>
</a>
</g>
</g>
<!-- Node3&#45;&gt;Node16 -->
<g id="edge15" class="edge"><title>Node3&#45;&gt;Node16</title>
<path fill="none" stroke="midnightblue" d="M1312.38,-104.718C1321.37,-95.1997 1332.36,-83.5608 1339.74,-75.7511"/>
<polygon fill="midnightblue" stroke="midnightblue" points="1309.74,-102.41 1305.42,-112.083 1314.83,-107.216 1309.74,-102.41"/>
</g>
<!-- Node17 -->
<g id="node17" class="node"><title>Node17</title>
<g id="a_node17"><a xlink:href="_s_l_ray_8cpp.html" target="_top" xlink:title="SLRay.cpp">
<polygon fill="white" stroke="black" points="1413.5,-56.5 1413.5,-75.5 1478.5,-75.5 1478.5,-56.5 1413.5,-56.5"/>
<text text-anchor="middle" x="1446" y="-63.5" font-family="Arial.ttf" font-size="10.00">SLRay.cpp</text>
</a>
</g>
</g>
<!-- Node3&#45;&gt;Node17 -->
<g id="edge16" class="edge"><title>Node3&#45;&gt;Node17</title>
<path fill="none" stroke="midnightblue" d="M1330.37,-108.906C1358.38,-98.7536 1397.7,-84.5063 1422.5,-75.5164"/>
<polygon fill="midnightblue" stroke="midnightblue" points="1328.82,-105.746 1320.61,-112.444 1331.2,-112.327 1328.82,-105.746"/>
</g>
<!-- Node18 -->
<g id="node18" class="node"><title>Node18</title>
<g id="a_node18"><a xlink:href="_s_l_raytracer_8cpp.html" target="_top" xlink:title="SLRaytracer.cpp">
<polygon fill="white" stroke="black" points="1496.5,-56.5 1496.5,-75.5 1587.5,-75.5 1587.5,-56.5 1496.5,-56.5"/>
<text text-anchor="middle" x="1542" y="-63.5" font-family="Arial.ttf" font-size="10.00">SLRaytracer.cpp</text>
</a>
</g>
</g>
<!-- Node3&#45;&gt;Node18 -->
<g id="edge17" class="edge"><title>Node3&#45;&gt;Node18</title>
<path fill="none" stroke="midnightblue" d="M1345.63,-110.281C1391.93,-100.077 1460.69,-84.9203 1503.36,-75.5164"/>
<polygon fill="midnightblue" stroke="midnightblue" points="1344.83,-106.873 1335.82,-112.444 1346.34,-113.709 1344.83,-106.873"/>
</g>
<!-- Node19 -->
<g id="node19" class="node"><title>Node19</title>
<g id="a_node19"><a xlink:href="_s_l_scene_8cpp.html" target="_top" xlink:title="SLScene.cpp">
<polygon fill="white" stroke="black" points="1606,-56.5 1606,-75.5 1682,-75.5 1682,-56.5 1606,-56.5"/>
<text text-anchor="middle" x="1644" y="-63.5" font-family="Arial.ttf" font-size="10.00">SLScene.cpp</text>
</a>
</g>
</g>
<!-- Node3&#45;&gt;Node19 -->
<g id="edge18" class="edge"><title>Node3&#45;&gt;Node19</title>
<path fill="none" stroke="midnightblue" d="M1350.64,-113.52C1410.55,-105.028 1510.37,-90.4664 1596,-76 1599.18,-75.4633 1602.47,-74.8876 1605.77,-74.2964"/>
<polygon fill="midnightblue" stroke="midnightblue" points="1350.07,-110.066 1340.65,-114.932 1351.05,-116.998 1350.07,-110.066"/>
</g>
<!-- Node20 -->
<g id="node20" class="node"><title>Node20</title>
<g id="a_node20"><a xlink:href="_s_l_scene_view_8cpp.html" target="_top" xlink:title="SLSceneView.cpp">
<polygon fill="white" stroke="black" points="1700,-56.5 1700,-75.5 1798,-75.5 1798,-56.5 1700,-56.5"/>
<text text-anchor="middle" x="1749" y="-63.5" font-family="Arial.ttf" font-size="10.00">SLSceneView.cpp</text>
</a>
</g>
</g>
<!-- Node3&#45;&gt;Node20 -->
<g id="edge19" class="edge"><title>Node3&#45;&gt;Node20</title>
<path fill="none" stroke="midnightblue" d="M1350.77,-115.552C1426.69,-107.7 1569.63,-92.3413 1691,-76 1693.93,-75.6057 1696.94,-75.1852 1699.97,-74.7496"/>
<polygon fill="midnightblue" stroke="midnightblue" points="1350.09,-112.102 1340.51,-116.609 1350.81,-119.065 1350.09,-112.102"/>
</g>
<!-- Node21 -->
<g id="node21" class="node"><title>Node21</title>
<g id="a_node21"><a xlink:href="_s_l_skeleton_8cpp.html" target="_top" xlink:title="SLSkeleton.cpp">
<polygon fill="white" stroke="black" points="1816.5,-56.5 1816.5,-75.5 1903.5,-75.5 1903.5,-56.5 1816.5,-56.5"/>
<text text-anchor="middle" x="1860" y="-63.5" font-family="Arial.ttf" font-size="10.00">SLSkeleton.cpp</text>
</a>
</g>
</g>
<!-- Node3&#45;&gt;Node21 -->
<g id="edge20" class="edge"><title>Node3&#45;&gt;Node21</title>
<path fill="none" stroke="midnightblue" d="M1350.82,-117.676C1444,-111.603 1641.3,-97.3436 1807,-76 1810.05,-75.6065 1813.2,-75.1649 1816.37,-74.6942"/>
<polygon fill="midnightblue" stroke="midnightblue" points="1350.54,-114.187 1340.79,-118.324 1350.99,-121.172 1350.54,-114.187"/>
</g>
<!-- Node22 -->
<g id="node22" class="node"><title>Node22</title>
<g id="a_node22"><a xlink:href="_s_l_uniform_grid_8cpp.html" target="_top" xlink:title="SLUniformGrid.cpp">
<polygon fill="white" stroke="black" points="1922,-56.5 1922,-75.5 2024,-75.5 2024,-56.5 1922,-56.5"/>
<text text-anchor="middle" x="1973" y="-63.5" font-family="Arial.ttf" font-size="10.00">SLUniformGrid.cpp</text>
</a>
</g>
</g>
<!-- Node3&#45;&gt;Node22 -->
<g id="edge21" class="edge"><title>Node3&#45;&gt;Node22</title>
<path fill="none" stroke="midnightblue" d="M1350.95,-118.387C1458.11,-112.903 1705.26,-98.7836 1912,-76 1915.19,-75.6482 1918.47,-75.2553 1921.78,-74.8357"/>
<polygon fill="midnightblue" stroke="midnightblue" points="1350.53,-114.904 1340.72,-118.906 1350.89,-121.895 1350.53,-114.904"/>
</g>
<!-- Node23 -->
<g id="node23" class="node"><title>Node23</title>
<g id="a_node23"><a xlink:href="_s_l_button_8h.html" target="_top" xlink:title="SLButton.h">
<polygon fill="white" stroke="black" points="2042,-56.5 2042,-75.5 2108,-75.5 2108,-56.5 2042,-56.5"/>
<text text-anchor="middle" x="2075" y="-63.5" font-family="Arial.ttf" font-size="10.00">SLButton.h</text>
</a>
</g>
</g>
<!-- Node3&#45;&gt;Node23 -->
<g id="edge22" class="edge"><title>Node3&#45;&gt;Node23</title>
<path fill="none" stroke="midnightblue" d="M1350.97,-120.466C1473.04,-118.656 1779.43,-110.72 2033,-76 2035.81,-75.6156 2038.71,-75.147 2041.61,-74.6277"/>
<polygon fill="midnightblue" stroke="midnightblue" points="1350.73,-116.969 1340.78,-120.609 1350.82,-123.969 1350.73,-116.969"/>
</g>
<!-- Node25 -->
<g id="node25" class="node"><title>Node25</title>
<g id="a_node25"><a xlink:href="_app_demo_gui_8cpp.html" target="_top" xlink:title="AppDemoGui.cpp">
<polygon fill="white" stroke="black" points="2126.5,-56.5 2126.5,-75.5 2221.5,-75.5 2221.5,-56.5 2126.5,-56.5"/>
<text text-anchor="middle" x="2174" y="-63.5" font-family="Arial.ttf" font-size="10.00">AppDemoGui.cpp</text>
</a>
</g>
</g>
<!-- Node3&#45;&gt;Node25 -->
<g id="edge24" class="edge"><title>Node3&#45;&gt;Node25</title>
<path fill="none" stroke="midnightblue" d="M1350.87,-119.939C1482.2,-116.941 1829.18,-106.54 2117,-76 2120.09,-75.6723 2123.26,-75.292 2126.46,-74.8766"/>
<polygon fill="midnightblue" stroke="midnightblue" points="1350.6,-116.444 1340.68,-120.167 1350.76,-123.443 1350.6,-116.444"/>
</g>
<!-- Node26 -->
<g id="node26" class="node"><title>Node26</title>
<g id="a_node26"><a xlink:href="_app_demo_load_8cpp.html" target="_top" xlink:title="AppDemoLoad.cpp">
<polygon fill="white" stroke="black" points="2240,-56.5 2240,-75.5 2342,-75.5 2342,-56.5 2240,-56.5"/>
<text text-anchor="middle" x="2291" y="-63.5" font-family="Arial.ttf" font-size="10.00">AppDemoLoad.cpp</text>
</a>
</g>
</g>
<!-- Node3&#45;&gt;Node26 -->
<g id="edge25" class="edge"><title>Node3&#45;&gt;Node26</title>
<path fill="none" stroke="midnightblue" d="M1351.12,-120.248C1494.67,-117.851 1896.97,-108.519 2230,-76 2233.2,-75.6879 2236.48,-75.3253 2239.79,-74.9284"/>
<polygon fill="midnightblue" stroke="midnightblue" points="1350.77,-116.753 1340.83,-120.415 1350.89,-123.752 1350.77,-116.753"/>
</g>
<!-- Node27 -->
<g id="node27" class="node"><title>Node27</title>
<g id="a_node27"><a xlink:href="_app_demo_video_8cpp.html" target="_top" xlink:title="AppDemoVideo.cpp">
<polygon fill="white" stroke="black" points="2360.5,-56.5 2360.5,-75.5 2465.5,-75.5 2465.5,-56.5 2360.5,-56.5"/>
<text text-anchor="middle" x="2413" y="-63.5" font-family="Arial.ttf" font-size="10.00">AppDemoVideo.cpp</text>
</a>
</g>
</g>
<!-- Node3&#45;&gt;Node27 -->
<g id="edge26" class="edge"><title>Node3&#45;&gt;Node27</title>
<path fill="none" stroke="midnightblue" d="M1350.74,-120.629C1506.07,-119.143 1968.86,-111.801 2351,-76 2354.03,-75.7159 2357.14,-75.3863 2360.28,-75.0246"/>
<polygon fill="midnightblue" stroke="midnightblue" points="1350.5,-117.131 1340.53,-120.722 1350.56,-124.131 1350.5,-117.131"/>
</g>
<!-- Node28 -->
<g id="node28" class="node"><title>Node28</title>
<g id="a_node28"><a xlink:href="_app_demo_main_g_l_f_w_8cpp.html" target="_top" xlink:title="AppDemoMainGLFW.cpp">
<polygon fill="white" stroke="black" points="2484,-56.5 2484,-75.5 2614,-75.5 2614,-56.5 2484,-56.5"/>
<text text-anchor="middle" x="2549" y="-63.5" font-family="Arial.ttf" font-size="10.00">AppDemoMainGLFW.cpp</text>
</a>
</g>
</g>
<!-- Node3&#45;&gt;Node28 -->
<g id="edge27" class="edge"><title>Node3&#45;&gt;Node28</title>
<path fill="none" stroke="midnightblue" d="M1351.13,-120.493C1518.41,-118.592 2041.89,-110.131 2474,-76 2477.27,-75.7418 2480.61,-75.4483 2483.99,-75.1287"/>
<polygon fill="midnightblue" stroke="midnightblue" points="1350.59,-116.999 1340.63,-120.609 1350.66,-123.999 1350.59,-116.999"/>
</g>
<!-- Node24 -->
<g id="node24" class="node"><title>Node24</title>
<g id="a_node24"><a xlink:href="_s_l_button_8cpp.html" target="_top" xlink:title="SLButton.cpp">
<polygon fill="white" stroke="black" points="2036.5,-0.5 2036.5,-19.5 2113.5,-19.5 2113.5,-0.5 2036.5,-0.5"/>
<text text-anchor="middle" x="2075" y="-7.5" font-family="Arial.ttf" font-size="10.00">SLButton.cpp</text>
</a>
</g>
</g>
<!-- Node23&#45;&gt;Node24 -->
<g id="edge23" class="edge"><title>Node23&#45;&gt;Node24</title>
<path fill="none" stroke="midnightblue" d="M2075,-45.8045C2075,-36.9102 2075,-26.7798 2075,-19.7511"/>
<polygon fill="midnightblue" stroke="midnightblue" points="2071.5,-46.083 2075,-56.083 2078.5,-46.083 2071.5,-46.083"/>
</g>
</g>
</svg>
