<?xml version="1.0" encoding="UTF-8" standalone="no"?>
<!DOCTYPE svg PUBLIC "-//W3C//DTD SVG 1.1//EN"
 "http://www.w3.org/Graphics/SVG/1.1/DTD/svg11.dtd">
<!-- Generated by graphviz version 2.44.0 (20200408.0750)
 -->
<!-- Title: SLShadowMap.h Pages: 1 -->
<svg width="715pt" height="476pt"
 viewBox="0.00 0.00 714.71 476.00" xmlns="http://www.w3.org/2000/svg" xmlns:xlink="http://www.w3.org/1999/xlink">
<g id="graph0" class="graph" transform="scale(1 1) rotate(0) translate(4 472)">
<title>SLShadowMap.h</title>
<polygon fill="white" stroke="transparent" points="-4,4 -4,-472 710.71,-472 710.71,4 -4,4"/>
<!-- Node1 -->
<g id="node1" class="node">
<title>Node1</title>
<g id="a_node1"><a xlink:title=" ">
<polygon fill="#bfbfbf" stroke="black" points="216.16,-448.5 216.16,-467.5 307.16,-467.5 307.16,-448.5 216.16,-448.5"/>
<text text-anchor="middle" x="261.66" y="-455.5" font-family="Arial.ttf" font-size="10.00">SLShadowMap.h</text>
</a>
</g>
</g>
<!-- Node2 -->
<g id="node2" class="node">
<title>Node2</title>
<g id="a_node2"><a xlink:href="_s_l_8h.html" target="_top" xlink:title=" ">
<polygon fill="white" stroke="black" points="151.16,-168.5 151.16,-187.5 188.16,-187.5 188.16,-168.5 151.16,-168.5"/>
<text text-anchor="middle" x="169.66" y="-175.5" font-family="Arial.ttf" font-size="10.00">SL.h</text>
</a>
</g>
</g>
<!-- Node1&#45;&gt;Node2 -->
<g id="edge1" class="edge">
<title>Node1&#45;&gt;Node2</title>
<path fill="none" stroke="midnightblue" d="M216.11,-448.5C148.79,-432.95 27.91,-392.58 2.66,-300 -15.5,-233.43 88.33,-198.51 140.77,-185.32"/>
<polygon fill="midnightblue" stroke="midnightblue" points="141.91,-188.65 150.82,-182.9 140.27,-181.84 141.91,-188.65"/>
</g>
<!-- Node12 -->
<g id="node12" class="node">
<title>Node12</title>
<g id="a_node12"><a xlink:href="_s_l_enums_8h.html" target="_top" xlink:title=" ">
<polygon fill="white" stroke="black" points="309.66,-392.5 309.66,-411.5 377.66,-411.5 377.66,-392.5 309.66,-392.5"/>
<text text-anchor="middle" x="343.66" y="-399.5" font-family="Arial.ttf" font-size="10.00">SLEnums.h</text>
</a>
</g>
</g>
<!-- Node1&#45;&gt;Node12 -->
<g id="edge14" class="edge">
<title>Node1&#45;&gt;Node12</title>
<path fill="none" stroke="midnightblue" d="M274.83,-448.32C287.51,-439.98 306.89,-427.21 321.87,-417.35"/>
<polygon fill="midnightblue" stroke="midnightblue" points="324.09,-420.08 330.52,-411.65 320.24,-414.23 324.09,-420.08"/>
</g>
<!-- Node13 -->
<g id="node13" class="node">
<title>Node13</title>
<g id="a_node13"><a xlink:href="_s_l_mat4_8h.html" target="_top" xlink:title=" ">
<polygon fill="white" stroke="black" points="232.16,-392.5 232.16,-411.5 291.16,-411.5 291.16,-392.5 232.16,-392.5"/>
<text text-anchor="middle" x="261.66" y="-399.5" font-family="Arial.ttf" font-size="10.00">SLMat4.h</text>
</a>
</g>
</g>
<!-- Node1&#45;&gt;Node13 -->
<g id="edge15" class="edge">
<title>Node1&#45;&gt;Node13</title>
<path fill="none" stroke="midnightblue" d="M261.66,-448.08C261.66,-441.01 261.66,-430.86 261.66,-421.99"/>
<polygon fill="midnightblue" stroke="midnightblue" points="265.16,-421.75 261.66,-411.75 258.16,-421.75 265.16,-421.75"/>
</g>
<!-- Node3 -->
<g id="node3" class="node">
<title>Node3</title>
<g id="a_node3"><a xlink:href="_utils_8h.html" target="_top" xlink:title=" ">
<polygon fill="white" stroke="black" points="247.16,-112.5 247.16,-131.5 292.16,-131.5 292.16,-112.5 247.16,-112.5"/>
<text text-anchor="middle" x="269.66" y="-119.5" font-family="Arial.ttf" font-size="10.00">Utils.h</text>
</a>
</g>
</g>
<!-- Node2&#45;&gt;Node3 -->
<g id="edge2" class="edge">
<title>Node2&#45;&gt;Node3</title>
<path fill="none" stroke="midnightblue" d="M185.73,-168.32C201.62,-159.74 226.17,-146.49 244.62,-136.52"/>
<polygon fill="midnightblue" stroke="midnightblue" points="246.5,-139.49 253.63,-131.65 243.17,-133.33 246.5,-139.49"/>
</g>
<!-- Node4 -->
<g id="node4" class="node">
<title>Node4</title>
<g id="a_node4"><a xlink:title=" ">
<polygon fill="white" stroke="#bfbfbf" points="122.16,-0.5 122.16,-19.5 163.16,-19.5 163.16,-0.5 122.16,-0.5"/>
<text text-anchor="middle" x="142.66" y="-7.5" font-family="Arial.ttf" font-size="10.00">string</text>
</a>
</g>
</g>
<!-- Node3&#45;&gt;Node4 -->
<g id="edge3" class="edge">
<title>Node3&#45;&gt;Node4</title>
<path fill="none" stroke="midnightblue" d="M246.71,-118.11C221.14,-113.64 180.41,-102.59 157.66,-76 146.73,-63.22 143.37,-44.03 142.51,-29.81"/>
<polygon fill="midnightblue" stroke="midnightblue" points="146.01,-29.6 142.26,-19.69 139.01,-29.77 146.01,-29.6"/>
</g>
<!-- Node5 -->
<g id="node5" class="node">
<title>Node5</title>
<g id="a_node5"><a xlink:title=" ">
<polygon fill="white" stroke="#bfbfbf" points="297.66,-56.5 297.66,-75.5 341.66,-75.5 341.66,-56.5 297.66,-56.5"/>
<text text-anchor="middle" x="319.66" y="-63.5" font-family="Arial.ttf" font-size="10.00">vector</text>
</a>
</g>
</g>
<!-- Node3&#45;&gt;Node5 -->
<g id="edge4" class="edge">
<title>Node3&#45;&gt;Node5</title>
<path fill="none" stroke="midnightblue" d="M277.92,-112.08C285.12,-104.3 295.77,-92.8 304.51,-83.37"/>
<polygon fill="midnightblue" stroke="midnightblue" points="307.33,-85.47 311.56,-75.75 302.19,-80.71 307.33,-85.47"/>
</g>
<!-- Node6 -->
<g id="node6" class="node">
<title>Node6</title>
<g id="a_node6"><a xlink:title=" ">
<polygon fill="white" stroke="#bfbfbf" points="360.16,-56.5 360.16,-75.5 401.16,-75.5 401.16,-56.5 360.16,-56.5"/>
<text text-anchor="middle" x="380.66" y="-63.5" font-family="Arial.ttf" font-size="10.00">cfloat</text>
</a>
</g>
</g>
<!-- Node3&#45;&gt;Node6 -->
<g id="edge5" class="edge">
<title>Node3&#45;&gt;Node6</title>
<path fill="none" stroke="midnightblue" d="M287.49,-112.32C305.38,-103.62 333.14,-90.12 353.71,-80.11"/>
<polygon fill="midnightblue" stroke="midnightblue" points="355.41,-83.18 362.87,-75.65 352.35,-76.88 355.41,-83.18"/>
</g>
<!-- Node7 -->
<g id="node7" class="node">
<title>Node7</title>
<g id="a_node7"><a xlink:title=" ">
<polygon fill="white" stroke="#bfbfbf" points="212.66,-0.5 212.66,-19.5 264.66,-19.5 264.66,-0.5 212.66,-0.5"/>
<text text-anchor="middle" x="238.66" y="-7.5" font-family="Arial.ttf" font-size="10.00">memory</text>
</a>
</g>
</g>
<!-- Node3&#45;&gt;Node7 -->
<g id="edge6" class="edge">
<title>Node3&#45;&gt;Node7</title>
<path fill="none" stroke="midnightblue" d="M267.23,-112.37C262.2,-94.54 250.58,-53.3 243.81,-29.27"/>
<polygon fill="midnightblue" stroke="midnightblue" points="247.16,-28.27 241.08,-19.59 240.43,-30.17 247.16,-28.27"/>
</g>
<!-- Node8 -->
<g id="node8" class="node">
<title>Node8</title>
<g id="a_node8"><a xlink:href="_file_log_8h.html" target="_top" xlink:title=" ">
<polygon fill="white" stroke="black" points="53.66,-56.5 53.66,-75.5 109.66,-75.5 109.66,-56.5 53.66,-56.5"/>
<text text-anchor="middle" x="81.66" y="-63.5" font-family="Arial.ttf" font-size="10.00">FileLog.h</text>
</a>
</g>
</g>
<!-- Node3&#45;&gt;Node8 -->
<g id="edge7" class="edge">
<title>Node3&#45;&gt;Node8</title>
<path fill="none" stroke="midnightblue" d="M246.98,-114.49C215.43,-105.42 157.85,-88.89 119.67,-77.92"/>
<polygon fill="midnightblue" stroke="midnightblue" points="120.51,-74.52 109.93,-75.12 118.58,-81.25 120.51,-74.52"/>
</g>
<!-- Node10 -->
<g id="node10" class="node">
<title>Node10</title>
<g id="a_node10"><a xlink:href="_custom_log_8h.html" target="_top" xlink:title=" ">
<polygon fill="white" stroke="black" points="166.16,-56.5 166.16,-75.5 241.16,-75.5 241.16,-56.5 166.16,-56.5"/>
<text text-anchor="middle" x="203.66" y="-63.5" font-family="Arial.ttf" font-size="10.00">CustomLog.h</text>
</a>
</g>
</g>
<!-- Node3&#45;&gt;Node10 -->
<g id="edge10" class="edge">
<title>Node3&#45;&gt;Node10</title>
<path fill="none" stroke="midnightblue" d="M259.06,-112.32C249.2,-104.26 234.31,-92.08 222.44,-82.37"/>
<polygon fill="midnightblue" stroke="midnightblue" points="224.41,-79.46 214.46,-75.83 219.98,-84.88 224.41,-79.46"/>
</g>
<!-- Node11 -->
<g id="node11" class="node">
<title>Node11</title>
<g id="a_node11"><a xlink:title=" ">
<polygon fill="white" stroke="#bfbfbf" points="419.16,-56.5 419.16,-75.5 478.16,-75.5 478.16,-56.5 419.16,-56.5"/>
<text text-anchor="middle" x="448.66" y="-63.5" font-family="Arial.ttf" font-size="10.00">functional</text>
</a>
</g>
</g>
<!-- Node3&#45;&gt;Node11 -->
<g id="edge13" class="edge">
<title>Node3&#45;&gt;Node11</title>
<path fill="none" stroke="midnightblue" d="M292.33,-114.16C322.08,-105.19 374.73,-89.3 410.63,-78.47"/>
<polygon fill="midnightblue" stroke="midnightblue" points="411.72,-81.8 420.28,-75.56 409.7,-75.1 411.72,-81.8"/>
</g>
<!-- Node8&#45;&gt;Node4 -->
<g id="edge8" class="edge">
<title>Node8&#45;&gt;Node4</title>
<path fill="none" stroke="midnightblue" d="M91.46,-56.32C100.48,-48.34 114.07,-36.31 124.98,-26.65"/>
<polygon fill="midnightblue" stroke="midnightblue" points="127.51,-29.08 132.68,-19.83 122.87,-23.84 127.51,-29.08"/>
</g>
<!-- Node9 -->
<g id="node9" class="node">
<title>Node9</title>
<g id="a_node9"><a xlink:title=" ">
<polygon fill="white" stroke="#bfbfbf" points="53.66,-0.5 53.66,-19.5 103.66,-19.5 103.66,-0.5 53.66,-0.5"/>
<text text-anchor="middle" x="78.66" y="-7.5" font-family="Arial.ttf" font-size="10.00">fstream</text>
</a>
</g>
</g>
<!-- Node8&#45;&gt;Node9 -->
<g id="edge9" class="edge">
<title>Node8&#45;&gt;Node9</title>
<path fill="none" stroke="midnightblue" d="M81.16,-56.08C80.77,-49.01 80.21,-38.86 79.71,-29.99"/>
<polygon fill="midnightblue" stroke="midnightblue" points="83.2,-29.54 79.15,-19.75 76.21,-29.93 83.2,-29.54"/>
</g>
<!-- Node10&#45;&gt;Node4 -->
<g id="edge12" class="edge">
<title>Node10&#45;&gt;Node4</title>
<path fill="none" stroke="midnightblue" d="M193.86,-56.32C184.84,-48.34 171.25,-36.31 160.34,-26.65"/>
<polygon fill="midnightblue" stroke="midnightblue" points="162.45,-23.84 152.64,-19.83 157.81,-29.08 162.45,-23.84"/>
</g>
<!-- Node10&#45;&gt;Node7 -->
<g id="edge11" class="edge">
<title>Node10&#45;&gt;Node7</title>
<path fill="none" stroke="midnightblue" d="M209.44,-56.08C214.33,-48.53 221.49,-37.49 227.49,-28.23"/>
<polygon fill="midnightblue" stroke="midnightblue" points="230.49,-30.05 232.99,-19.75 224.61,-26.24 230.49,-30.05"/>
</g>
<!-- Node13&#45;&gt;Node2 -->
<g id="edge16" class="edge">
<title>Node13&#45;&gt;Node2</title>
<path fill="none" stroke="midnightblue" d="M237.62,-392.37C219.79,-384.98 195.88,-372.85 179.66,-356 160.36,-335.95 158.05,-327.08 151.66,-300 143.15,-263.97 154.58,-220.91 162.73,-197.1"/>
<polygon fill="midnightblue" stroke="midnightblue" points="166.06,-198.2 166.17,-187.6 159.47,-195.82 166.06,-198.2"/>
</g>
<!-- Node13&#45;&gt;Node3 -->
<g id="edge18" class="edge">
<title>Node13&#45;&gt;Node3</title>
<path fill="none" stroke="midnightblue" d="M291.39,-393.71C294.51,-393.07 297.64,-392.49 300.66,-392 385.71,-378.28 620.2,-410.82 686.66,-356 709.88,-336.85 705.66,-321.1 705.66,-291 705.66,-291 705.66,-291 705.66,-233 705.66,-149.86 403.86,-128.92 302.45,-124.23"/>
<polygon fill="midnightblue" stroke="midnightblue" points="302.33,-120.72 292.18,-123.78 302.02,-127.72 302.33,-120.72"/>
</g>
<!-- Node14 -->
<g id="node14" class="node">
<title>Node14</title>
<g id="a_node14"><a xlink:title=" ">
<polygon fill="white" stroke="#bfbfbf" points="275.16,-336.5 275.16,-355.5 316.16,-355.5 316.16,-336.5 275.16,-336.5"/>
<text text-anchor="middle" x="295.66" y="-343.5" font-family="Arial.ttf" font-size="10.00">stack</text>
</a>
</g>
</g>
<!-- Node13&#45;&gt;Node14 -->
<g id="edge17" class="edge">
<title>Node13&#45;&gt;Node14</title>
<path fill="none" stroke="midnightblue" d="M267.27,-392.08C272.03,-384.53 278.98,-373.49 284.81,-364.23"/>
<polygon fill="midnightblue" stroke="midnightblue" points="287.78,-366.08 290.15,-355.75 281.86,-362.35 287.78,-366.08"/>
</g>
<!-- Node15 -->
<g id="node15" class="node">
<title>Node15</title>
<g id="a_node15"><a xlink:href="_s_l_mat3_8h.html" target="_top" xlink:title=" ">
<polygon fill="white" stroke="black" points="44.16,-336.5 44.16,-355.5 103.16,-355.5 103.16,-336.5 44.16,-336.5"/>
<text text-anchor="middle" x="73.66" y="-343.5" font-family="Arial.ttf" font-size="10.00">SLMat3.h</text>
</a>
</g>
</g>
<!-- Node13&#45;&gt;Node15 -->
<g id="edge19" class="edge">
<title>Node13&#45;&gt;Node15</title>
<path fill="none" stroke="midnightblue" d="M231.87,-392.44C199.83,-383.24 148.73,-368.56 113.31,-358.39"/>
<polygon fill="midnightblue" stroke="midnightblue" points="113.89,-354.91 103.31,-355.52 111.95,-361.64 113.89,-354.91"/>
</g>
<!-- Node16 -->
<g id="node16" class="node">
<title>Node16</title>
<g id="a_node16"><a xlink:href="_s_l_vec3_8h.html" target="_top" xlink:title=" ">
<polygon fill="white" stroke="black" points="160.16,-280.5 160.16,-299.5 219.16,-299.5 219.16,-280.5 160.16,-280.5"/>
<text text-anchor="middle" x="189.66" y="-287.5" font-family="Arial.ttf" font-size="10.00">SLVec3.h</text>
</a>
</g>
</g>
<!-- Node13&#45;&gt;Node16 -->
<g id="edge29" class="edge">
<title>Node13&#45;&gt;Node16</title>
<path fill="none" stroke="midnightblue" d="M236.16,-392.47C219.67,-385.48 199.52,-373.79 189.66,-356 181.88,-341.97 182.74,-323.47 185.05,-309.8"/>
<polygon fill="midnightblue" stroke="midnightblue" points="188.55,-310.15 187.16,-299.65 181.7,-308.73 188.55,-310.15"/>
</g>
<!-- Node19 -->
<g id="node19" class="node">
<title>Node19</title>
<g id="a_node19"><a xlink:href="_s_l_vec4_8h.html" target="_top" xlink:title=" ">
<polygon fill="white" stroke="black" points="198.16,-336.5 198.16,-355.5 257.16,-355.5 257.16,-336.5 198.16,-336.5"/>
<text text-anchor="middle" x="227.66" y="-343.5" font-family="Arial.ttf" font-size="10.00">SLVec4.h</text>
</a>
</g>
</g>
<!-- Node13&#45;&gt;Node19 -->
<g id="edge30" class="edge">
<title>Node13&#45;&gt;Node19</title>
<path fill="none" stroke="midnightblue" d="M256.05,-392.08C251.29,-384.53 244.34,-373.49 238.51,-364.23"/>
<polygon fill="midnightblue" stroke="midnightblue" points="241.46,-362.35 233.17,-355.75 235.54,-366.08 241.46,-362.35"/>
</g>
<!-- Node20 -->
<g id="node20" class="node">
<title>Node20</title>
<g id="a_node20"><a xlink:title=" ">
<polygon fill="white" stroke="#bfbfbf" points="334.66,-336.5 334.66,-355.5 386.66,-355.5 386.66,-336.5 334.66,-336.5"/>
<text text-anchor="middle" x="360.66" y="-343.5" font-family="Arial.ttf" font-size="10.00">assert.h</text>
</a>
</g>
</g>
<!-- Node13&#45;&gt;Node20 -->
<g id="edge35" class="edge">
<title>Node13&#45;&gt;Node20</title>
<path fill="none" stroke="midnightblue" d="M277.57,-392.32C293.3,-383.74 317.6,-370.49 335.87,-360.52"/>
<polygon fill="midnightblue" stroke="midnightblue" points="337.69,-363.52 344.79,-355.65 334.34,-357.37 337.69,-363.52"/>
</g>
<!-- Node21 -->
<g id="node21" class="node">
<title>Node21</title>
<g id="a_node21"><a xlink:title=" ">
<polygon fill="white" stroke="#bfbfbf" points="405.16,-336.5 405.16,-355.5 532.16,-355.5 532.16,-336.5 405.16,-336.5"/>
<text text-anchor="middle" x="468.66" y="-343.5" font-family="Arial.ttf" font-size="10.00">Shoemake/Decompose.h</text>
</a>
</g>
</g>
<!-- Node13&#45;&gt;Node21 -->
<g id="edge36" class="edge">
<title>Node13&#45;&gt;Node21</title>
<path fill="none" stroke="midnightblue" d="M291.32,-393.26C326.67,-384.04 385.99,-368.57 426.2,-358.08"/>
<polygon fill="midnightblue" stroke="midnightblue" points="427.19,-361.44 435.98,-355.52 425.42,-354.66 427.19,-361.44"/>
</g>
<!-- Node22 -->
<g id="node22" class="node">
<title>Node22</title>
<g id="a_node22"><a xlink:title=" ">
<polygon fill="white" stroke="#bfbfbf" points="550.16,-336.5 550.16,-355.5 677.16,-355.5 677.16,-336.5 550.16,-336.5"/>
<text text-anchor="middle" x="613.66" y="-343.5" font-family="Arial.ttf" font-size="10.00">Shoemake/EulerAngles.h</text>
</a>
</g>
</g>
<!-- Node13&#45;&gt;Node22 -->
<g id="edge37" class="edge">
<title>Node13&#45;&gt;Node22</title>
<path fill="none" stroke="midnightblue" d="M291.42,-393.86C294.53,-393.2 297.65,-392.56 300.66,-392 345.14,-383.69 462.12,-367.42 539.79,-356.89"/>
<polygon fill="midnightblue" stroke="midnightblue" points="540.56,-360.32 550,-355.51 539.62,-353.38 540.56,-360.32"/>
</g>
<!-- Node15&#45;&gt;Node2 -->
<g id="edge20" class="edge">
<title>Node15&#45;&gt;Node2</title>
<path fill="none" stroke="midnightblue" d="M75.23,-336.39C79.34,-315.56 91.92,-261.37 117.66,-224 125.81,-212.17 137.78,-201.52 148.19,-193.55"/>
<polygon fill="midnightblue" stroke="midnightblue" points="150.43,-196.25 156.44,-187.53 146.3,-190.6 150.43,-196.25"/>
</g>
<!-- Node15&#45;&gt;Node3 -->
<g id="edge21" class="edge">
<title>Node15&#45;&gt;Node3</title>
<path fill="none" stroke="midnightblue" d="M50.39,-336.4C25.29,-325.63 -9.57,-305.46 2.66,-280 47.58,-186.53 176.34,-144.79 237.13,-129.89"/>
<polygon fill="midnightblue" stroke="midnightblue" points="238.04,-133.27 246.97,-127.56 236.43,-126.45 238.04,-133.27"/>
</g>
<!-- Node15&#45;&gt;Node16 -->
<g id="edge22" class="edge">
<title>Node15&#45;&gt;Node16</title>
<path fill="none" stroke="midnightblue" d="M92.04,-336.44C110.88,-327.68 140.39,-313.94 162.04,-303.86"/>
<polygon fill="midnightblue" stroke="midnightblue" points="163.78,-306.91 171.37,-299.52 160.82,-300.56 163.78,-306.91"/>
</g>
<!-- Node18 -->
<g id="node18" class="node">
<title>Node18</title>
<g id="a_node18"><a xlink:title=" ">
<polygon fill="white" stroke="#bfbfbf" points="11.66,-280.5 11.66,-299.5 65.66,-299.5 65.66,-280.5 11.66,-280.5"/>
<text text-anchor="middle" x="38.66" y="-287.5" font-family="Arial.ttf" font-size="10.00">iostream</text>
</a>
</g>
</g>
<!-- Node15&#45;&gt;Node18 -->
<g id="edge28" class="edge">
<title>Node15&#45;&gt;Node18</title>
<path fill="none" stroke="midnightblue" d="M67.88,-336.08C62.99,-328.53 55.83,-317.49 49.83,-308.23"/>
<polygon fill="midnightblue" stroke="midnightblue" points="52.71,-306.24 44.33,-299.75 46.83,-310.05 52.71,-306.24"/>
</g>
<!-- Node16&#45;&gt;Node2 -->
<g id="edge23" class="edge">
<title>Node16&#45;&gt;Node2</title>
<path fill="none" stroke="midnightblue" d="M188.09,-280.37C184.86,-262.62 177.42,-221.67 173.04,-197.6"/>
<polygon fill="midnightblue" stroke="midnightblue" points="176.45,-196.8 171.22,-187.59 169.57,-198.06 176.45,-196.8"/>
</g>
<!-- Node16&#45;&gt;Node3 -->
<g id="edge27" class="edge">
<title>Node16&#45;&gt;Node3</title>
<path fill="none" stroke="midnightblue" d="M193.96,-280.08C206.66,-253.72 244.18,-175.88 261.15,-140.66"/>
<polygon fill="midnightblue" stroke="midnightblue" points="264.34,-142.1 265.53,-131.57 258.04,-139.06 264.34,-142.1"/>
</g>
<!-- Node17 -->
<g id="node17" class="node">
<title>Node17</title>
<g id="a_node17"><a xlink:href="_s_l_vec2_8h.html" target="_top" xlink:title=" ">
<polygon fill="white" stroke="black" points="274.16,-224.5 274.16,-243.5 333.16,-243.5 333.16,-224.5 274.16,-224.5"/>
<text text-anchor="middle" x="303.66" y="-231.5" font-family="Arial.ttf" font-size="10.00">SLVec2.h</text>
</a>
</g>
</g>
<!-- Node16&#45;&gt;Node17 -->
<g id="edge24" class="edge">
<title>Node16&#45;&gt;Node17</title>
<path fill="none" stroke="midnightblue" d="M207.72,-280.44C226.23,-271.68 255.24,-257.94 276.52,-247.86"/>
<polygon fill="midnightblue" stroke="midnightblue" points="278.14,-250.96 285.68,-243.52 275.15,-244.63 278.14,-250.96"/>
</g>
<!-- Node17&#45;&gt;Node2 -->
<g id="edge25" class="edge">
<title>Node17&#45;&gt;Node2</title>
<path fill="none" stroke="midnightblue" d="M282.43,-224.44C259.49,-215.2 222.86,-200.44 197.6,-190.26"/>
<polygon fill="midnightblue" stroke="midnightblue" points="198.79,-186.96 188.2,-186.47 196.17,-193.46 198.79,-186.96"/>
</g>
<!-- Node17&#45;&gt;Node3 -->
<g id="edge26" class="edge">
<title>Node17&#45;&gt;Node3</title>
<path fill="none" stroke="midnightblue" d="M300.99,-224.37C295.48,-206.54 282.73,-165.3 275.31,-141.27"/>
<polygon fill="midnightblue" stroke="midnightblue" points="278.61,-140.11 272.32,-131.59 271.92,-142.18 278.61,-140.11"/>
</g>
<!-- Node19&#45;&gt;Node2 -->
<g id="edge31" class="edge">
<title>Node19&#45;&gt;Node2</title>
<path fill="none" stroke="midnightblue" d="M229.28,-336.4C231.32,-323.78 233.97,-299.61 228.66,-280 219.87,-247.51 197.73,-214.75 183.21,-195.69"/>
<polygon fill="midnightblue" stroke="midnightblue" points="185.89,-193.44 176.97,-187.72 180.38,-197.76 185.89,-193.44"/>
</g>
<!-- Node19&#45;&gt;Node3 -->
<g id="edge34" class="edge">
<title>Node19&#45;&gt;Node3</title>
<path fill="none" stroke="midnightblue" d="M244.73,-336.39C271.63,-321.71 322.88,-289 342.66,-244 360.38,-203.67 317.33,-160.38 290.04,-138.13"/>
<polygon fill="midnightblue" stroke="midnightblue" points="291.85,-135.11 281.83,-131.68 287.52,-140.61 291.85,-135.11"/>
</g>
<!-- Node19&#45;&gt;Node16 -->
<g id="edge33" class="edge">
<title>Node19&#45;&gt;Node16</title>
<path fill="none" stroke="midnightblue" d="M221.39,-336.08C216.02,-328.46 208.14,-317.26 201.58,-307.94"/>
<polygon fill="midnightblue" stroke="midnightblue" points="204.44,-305.91 195.82,-299.75 198.71,-309.94 204.44,-305.91"/>
</g>
<!-- Node19&#45;&gt;Node17 -->
<g id="edge32" class="edge">
<title>Node19&#45;&gt;Node17</title>
<path fill="none" stroke="midnightblue" d="M234.63,-336.18C241.64,-327.21 252.68,-312.84 261.66,-300 272.81,-284.05 284.79,-265.34 293.09,-252.1"/>
<polygon fill="midnightblue" stroke="midnightblue" points="296.1,-253.88 298.42,-243.55 290.16,-250.18 296.1,-253.88"/>
</g>
</g>
</svg>
