<?xml version="1.0" encoding="UTF-8" standalone="no"?>
<!DOCTYPE svg PUBLIC "-//W3C//DTD SVG 1.1//EN"
 "http://www.w3.org/Graphics/SVG/1.1/DTD/svg11.dtd">
<!-- Generated by graphviz version 2.38.0 (20140413.2041)
 -->
<!-- Title: SLGrid.h Pages: 1 -->
<svg width="196pt" height="84pt"
 viewBox="0.00 0.00 195.50 84.00" xmlns="http://www.w3.org/2000/svg" xmlns:xlink="http://www.w3.org/1999/xlink">
<g id="graph0" class="graph" transform="scale(1 1) rotate(0) translate(4 80)">
<title>SLGrid.h</title>
<polygon fill="white" stroke="none" points="-4,4 -4,-80 191.5,-80 191.5,4 -4,4"/>
<!-- Node1 -->
<g id="node1" class="node"><title>Node1</title>
<polygon fill="#bfbfbf" stroke="black" points="55.5,-56.5 55.5,-75.5 108.5,-75.5 108.5,-56.5 55.5,-56.5"/>
<text text-anchor="middle" x="82" y="-63.5" font-family="Arial.ttf" font-size="10.00">SLGrid.h</text>
</g>
<!-- Node2 -->
<g id="node2" class="node"><title>Node2</title>
<g id="a_node2"><a xlink:href="_s_l_grid_8cpp.html" target="_top" xlink:title="SLGrid.cpp">
<polygon fill="white" stroke="black" points="0,-0.5 0,-19.5 62,-19.5 62,-0.5 0,-0.5"/>
<text text-anchor="middle" x="31" y="-7.5" font-family="Arial.ttf" font-size="10.00">SLGrid.cpp</text>
</a>
</g>
</g>
<!-- Node1&#45;&gt;Node2 -->
<g id="edge1" class="edge"><title>Node1&#45;&gt;Node2</title>
<path fill="none" stroke="midnightblue" d="M66.6221,-48.7175C57.6331,-39.1997 46.6408,-27.5608 39.2649,-19.7511"/>
<polygon fill="midnightblue" stroke="midnightblue" points="64.1676,-51.216 73.5784,-56.083 69.2567,-46.4096 64.1676,-51.216"/>
</g>
<!-- Node3 -->
<g id="node3" class="node"><title>Node3</title>
<g id="a_node3"><a xlink:href="_s_l_scene__on_load_8cpp.html" target="_top" xlink:title="SLScene_onLoad.cpp">
<polygon fill="white" stroke="black" points="80.5,-0.5 80.5,-19.5 187.5,-19.5 187.5,-0.5 80.5,-0.5"/>
<text text-anchor="middle" x="134" y="-7.5" font-family="Arial.ttf" font-size="10.00">SLScene_onLoad.cpp</text>
</a>
</g>
</g>
<!-- Node1&#45;&gt;Node3 -->
<g id="edge2" class="edge"><title>Node1&#45;&gt;Node3</title>
<path fill="none" stroke="midnightblue" d="M97.6794,-48.7175C106.845,-39.1997 118.053,-27.5608 125.573,-19.7511"/>
<polygon fill="midnightblue" stroke="midnightblue" points="95.0021,-46.452 90.5867,-56.083 100.044,-51.3075 95.0021,-46.452"/>
</g>
</g>
</svg>
