<?xml version="1.0" encoding="UTF-8" standalone="no"?>
<!DOCTYPE svg PUBLIC "-//W3C//DTD SVG 1.1//EN"
 "http://www.w3.org/Graphics/SVG/1.1/DTD/svg11.dtd">
<!-- Generated by graphviz version 2.40.1 (20161225.0304)
 -->
<!-- Title: SLDeviceLocation.cpp Pages: 1 -->
<svg width="2763pt" height="476pt"
 viewBox="0.00 0.00 2763.23 476.00" xmlns="http://www.w3.org/2000/svg" xmlns:xlink="http://www.w3.org/1999/xlink">
<g id="graph0" class="graph" transform="scale(1 1) rotate(0) translate(4 472)">
<title>SLDeviceLocation.cpp</title>
<polygon fill="#ffffff" stroke="transparent" points="-4,4 -4,-472 2759.2325,-472 2759.2325,4 -4,4"/>
<!-- Node1 -->
<g id="node1" class="node">
<title>Node1</title>
<g id="a_node1"><a xlink:title=" ">
<polygon fill="#bfbfbf" stroke="#000000" points="1648,-448.5 1648,-467.5 1764,-467.5 1764,-448.5 1648,-448.5"/>
<text text-anchor="middle" x="1706" y="-455.5" font-family="Arial.ttf" font-size="10.00" fill="#000000">SLDeviceLocation.cpp</text>
</a>
</g>
</g>
<!-- Node2 -->
<g id="node2" class="node">
<title>Node2</title>
<g id="a_node2"><a xlink:href="stdafx_8h.html" target="_top" xlink:title=" ">
<polygon fill="#ffffff" stroke="#000000" points="1656,-224.5 1656,-243.5 1708,-243.5 1708,-224.5 1656,-224.5"/>
<text text-anchor="middle" x="1682" y="-231.5" font-family="Arial.ttf" font-size="10.00" fill="#000000">stdafx.h</text>
</a>
</g>
</g>
<!-- Node1&#45;&gt;Node2 -->
<g id="edge1" class="edge">
<title>Node1&#45;&gt;Node2</title>
<path fill="none" stroke="#191970" d="M1704.9604,-448.4858C1703.9453,-439.184 1702.3593,-424.6194 1701,-412 1694.807,-354.5075 1687.5795,-286.5587 1684.0927,-253.7234"/>
<polygon fill="#191970" stroke="#191970" points="1687.5593,-253.2228 1683.0232,-243.6482 1680.5985,-253.9618 1687.5593,-253.2228"/>
</g>
<!-- Node41 -->
<g id="node39" class="node">
<title>Node41</title>
<g id="a_node39"><a xlink:href="_s_l_device_location_8h.html" target="_top" xlink:title=" ">
<polygon fill="#ffffff" stroke="#000000" points="229.5,-392.5 229.5,-411.5 334.5,-411.5 334.5,-392.5 229.5,-392.5"/>
<text text-anchor="middle" x="282" y="-399.5" font-family="Arial.ttf" font-size="10.00" fill="#000000">SLDeviceLocation.h</text>
</a>
</g>
</g>
<!-- Node1&#45;&gt;Node41 -->
<g id="edge44" class="edge">
<title>Node1&#45;&gt;Node41</title>
<path fill="none" stroke="#191970" d="M1647.969,-455.7179C1419.4066,-446.7295 582.2887,-413.8091 345.0486,-404.4794"/>
<polygon fill="#191970" stroke="#191970" points="344.9995,-400.9749 334.8697,-404.0791 344.7244,-407.9695 344.9995,-400.9749"/>
</g>
<!-- Node76 -->
<g id="node48" class="node">
<title>Node76</title>
<g id="a_node48"><a xlink:title=" ">
<polygon fill="#ffffff" stroke="#bfbfbf" points="1710.5,-392.5 1710.5,-411.5 1751.5,-411.5 1751.5,-392.5 1710.5,-392.5"/>
<text text-anchor="middle" x="1731" y="-399.5" font-family="Arial.ttf" font-size="10.00" fill="#000000">spa.h</text>
</a>
</g>
</g>
<!-- Node1&#45;&gt;Node76 -->
<g id="edge62" class="edge">
<title>Node1&#45;&gt;Node76</title>
<path fill="none" stroke="#191970" d="M1710.3547,-448.2455C1713.7244,-440.6973 1718.493,-430.0158 1722.5983,-420.8197"/>
<polygon fill="#191970" stroke="#191970" points="1725.8147,-422.2009 1726.6952,-411.6427 1719.4227,-419.3473 1725.8147,-422.2009"/>
</g>
<!-- Node77 -->
<g id="node49" class="node">
<title>Node77</title>
<g id="a_node49"><a xlink:href="_s_l_importer_8h.html" target="_top" xlink:title=" ">
<polygon fill="#ffffff" stroke="#000000" points="2578,-280.5 2578,-299.5 2652,-299.5 2652,-280.5 2578,-280.5"/>
<text text-anchor="middle" x="2615" y="-287.5" font-family="Arial.ttf" font-size="10.00" fill="#000000">SLImporter.h</text>
</a>
</g>
</g>
<!-- Node1&#45;&gt;Node77 -->
<g id="edge63" class="edge">
<title>Node1&#45;&gt;Node77</title>
<path fill="none" stroke="#191970" d="M1757.4763,-448.4862C1918.6494,-418.6985 2412.0694,-327.5053 2567.555,-298.7687"/>
<polygon fill="#191970" stroke="#191970" points="2568.5321,-302.1475 2577.7294,-296.8883 2567.2598,-295.2641 2568.5321,-302.1475"/>
</g>
<!-- Node3 -->
<g id="node3" class="node">
<title>Node3</title>
<g id="a_node3"><a xlink:title=" ">
<polygon fill="#ffffff" stroke="#bfbfbf" points="1653,-168.5 1653,-187.5 1711,-187.5 1711,-168.5 1653,-168.5"/>
<text text-anchor="middle" x="1682" y="-175.5" font-family="Arial.ttf" font-size="10.00" fill="#000000">algorithm</text>
</a>
</g>
</g>
<!-- Node2&#45;&gt;Node3 -->
<g id="edge2" class="edge">
<title>Node2&#45;&gt;Node3</title>
<path fill="none" stroke="#191970" d="M1682,-224.2455C1682,-216.9382 1682,-206.6944 1682,-197.7046"/>
<polygon fill="#191970" stroke="#191970" points="1685.5001,-197.6426 1682,-187.6427 1678.5001,-197.6427 1685.5001,-197.6426"/>
</g>
<!-- Node4 -->
<g id="node4" class="node">
<title>Node4</title>
<g id="a_node4"><a xlink:title=" ">
<polygon fill="#ffffff" stroke="#bfbfbf" points="1729,-168.5 1729,-187.5 1775,-187.5 1775,-168.5 1729,-168.5"/>
<text text-anchor="middle" x="1752" y="-175.5" font-family="Arial.ttf" font-size="10.00" fill="#000000">atomic</text>
</a>
</g>
</g>
<!-- Node2&#45;&gt;Node4 -->
<g id="edge3" class="edge">
<title>Node2&#45;&gt;Node4</title>
<path fill="none" stroke="#191970" d="M1694.1931,-224.2455C1704.6321,-215.8943 1719.8655,-203.7076 1732.074,-193.9408"/>
<polygon fill="#191970" stroke="#191970" points="1734.3244,-196.6227 1739.9467,-187.6427 1729.9515,-191.1566 1734.3244,-196.6227"/>
</g>
<!-- Node5 -->
<g id="node5" class="node">
<title>Node5</title>
<g id="a_node5"><a xlink:title=" ">
<polygon fill="#ffffff" stroke="#bfbfbf" points="181.5,-168.5 181.5,-187.5 228.5,-187.5 228.5,-168.5 181.5,-168.5"/>
<text text-anchor="middle" x="205" y="-175.5" font-family="Arial.ttf" font-size="10.00" fill="#000000">chrono</text>
</a>
</g>
</g>
<!-- Node2&#45;&gt;Node5 -->
<g id="edge4" class="edge">
<title>Node2&#45;&gt;Node5</title>
<path fill="none" stroke="#191970" d="M1655.9133,-233.5952C1476.2629,-230.7521 424.271,-213.2026 238.6395,-187.6896"/>
<polygon fill="#191970" stroke="#191970" points="239.0048,-184.2049 228.5911,-186.1555 237.9483,-191.1247 239.0048,-184.2049"/>
</g>
<!-- Node6 -->
<g id="node6" class="node">
<title>Node6</title>
<g id="a_node6"><a xlink:title=" ">
<polygon fill="#ffffff" stroke="#bfbfbf" points="1793.5,-168.5 1793.5,-187.5 1842.5,-187.5 1842.5,-168.5 1793.5,-168.5"/>
<text text-anchor="middle" x="1818" y="-175.5" font-family="Arial.ttf" font-size="10.00" fill="#000000">cstdarg</text>
</a>
</g>
</g>
<!-- Node2&#45;&gt;Node6 -->
<g id="edge5" class="edge">
<title>Node2&#45;&gt;Node6</title>
<path fill="none" stroke="#191970" d="M1705.3792,-224.3733C1727.5045,-215.2629 1760.9134,-201.5062 1785.6019,-191.3404"/>
<polygon fill="#191970" stroke="#191970" points="1787.0117,-194.5451 1794.9258,-187.5011 1784.3464,-188.0723 1787.0117,-194.5451"/>
</g>
<!-- Node7 -->
<g id="node7" class="node">
<title>Node7</title>
<g id="a_node7"><a xlink:title=" ">
<polygon fill="#ffffff" stroke="#bfbfbf" points="1861,-168.5 1861,-187.5 1901,-187.5 1901,-168.5 1861,-168.5"/>
<text text-anchor="middle" x="1881" y="-175.5" font-family="Arial.ttf" font-size="10.00" fill="#000000">ctime</text>
</a>
</g>
</g>
<!-- Node2&#45;&gt;Node7 -->
<g id="edge6" class="edge">
<title>Node2&#45;&gt;Node7</title>
<path fill="none" stroke="#191970" d="M1708.1858,-227.3582C1741.5146,-218.7936 1800.7935,-203.1876 1851,-188 1851.0985,-187.9702 1851.1972,-187.9403 1851.2961,-187.9103"/>
<polygon fill="#191970" stroke="#191970" points="1852.2361,-191.2839 1860.716,-184.9323 1850.126,-184.6095 1852.2361,-191.2839"/>
</g>
<!-- Node8 -->
<g id="node8" class="node">
<title>Node8</title>
<g id="a_node8"><a xlink:title=" ">
<polygon fill="#ffffff" stroke="#bfbfbf" points="2632,-168.5 2632,-187.5 2682,-187.5 2682,-168.5 2632,-168.5"/>
<text text-anchor="middle" x="2657" y="-175.5" font-family="Arial.ttf" font-size="10.00" fill="#000000">fstream</text>
</a>
</g>
</g>
<!-- Node2&#45;&gt;Node8 -->
<g id="edge7" class="edge">
<title>Node2&#45;&gt;Node8</title>
<path fill="none" stroke="#191970" d="M1708.0053,-233.5618C1838.1329,-231.2445 2419.9769,-219.3782 2622.002,-187.7225"/>
<polygon fill="#191970" stroke="#191970" points="2622.6012,-191.1711 2631.9049,-186.1023 2621.471,-184.2629 2622.6012,-191.1711"/>
</g>
<!-- Node9 -->
<g id="node9" class="node">
<title>Node9</title>
<g id="a_node9"><a xlink:title=" ">
<polygon fill="#ffffff" stroke="#bfbfbf" points="290.5,-.5 290.5,-19.5 349.5,-19.5 349.5,-.5 290.5,-.5"/>
<text text-anchor="middle" x="320" y="-7.5" font-family="Arial.ttf" font-size="10.00" fill="#000000">functional</text>
</a>
</g>
</g>
<!-- Node2&#45;&gt;Node9 -->
<g id="edge8" class="edge">
<title>Node2&#45;&gt;Node9</title>
<path fill="none" stroke="#191970" d="M1655.8692,-233.5286C1472.6308,-230.17 386.9339,-209.3871 361,-188 313.7737,-149.0535 314.4564,-67.6371 317.6496,-29.9412"/>
<polygon fill="#191970" stroke="#191970" points="321.1571,-30.0405 318.6709,-19.7415 314.1919,-29.343 321.1571,-30.0405"/>
</g>
<!-- Node10 -->
<g id="node10" class="node">
<title>Node10</title>
<g id="a_node10"><a xlink:title=" ">
<polygon fill="#ffffff" stroke="#bfbfbf" points="1919,-168.5 1919,-187.5 1971,-187.5 1971,-168.5 1919,-168.5"/>
<text text-anchor="middle" x="1945" y="-175.5" font-family="Arial.ttf" font-size="10.00" fill="#000000">iomanip</text>
</a>
</g>
</g>
<!-- Node2&#45;&gt;Node10 -->
<g id="edge9" class="edge">
<title>Node2&#45;&gt;Node10</title>
<path fill="none" stroke="#191970" d="M1708.135,-229.4235C1748.9236,-222.1317 1830.3719,-206.9735 1908.6616,-188.1896"/>
<polygon fill="#191970" stroke="#191970" points="1909.792,-191.5171 1918.6861,-185.7599 1908.1431,-184.714 1909.792,-191.5171"/>
</g>
<!-- Node11 -->
<g id="node11" class="node">
<title>Node11</title>
<g id="a_node11"><a xlink:title=" ">
<polygon fill="#ffffff" stroke="#bfbfbf" points="1989.5,-168.5 1989.5,-187.5 2044.5,-187.5 2044.5,-168.5 1989.5,-168.5"/>
<text text-anchor="middle" x="2017" y="-175.5" font-family="Arial.ttf" font-size="10.00" fill="#000000">iostream</text>
</a>
</g>
</g>
<!-- Node2&#45;&gt;Node11 -->
<g id="edge10" class="edge">
<title>Node2&#45;&gt;Node11</title>
<path fill="none" stroke="#191970" d="M1708.0851,-230.9612C1758.5455,-224.8723 1873.1686,-210.0176 1979.2882,-187.9553"/>
<polygon fill="#191970" stroke="#191970" points="1980.1357,-191.3537 1989.1998,-185.868 1978.6932,-184.5039 1980.1357,-191.3537"/>
</g>
<!-- Node12 -->
<g id="node12" class="node">
<title>Node12</title>
<g id="a_node12"><a xlink:title=" ">
<polygon fill="#ffffff" stroke="#bfbfbf" points="2062.5,-168.5 2062.5,-187.5 2091.5,-187.5 2091.5,-168.5 2062.5,-168.5"/>
<text text-anchor="middle" x="2077" y="-175.5" font-family="Arial.ttf" font-size="10.00" fill="#000000">list</text>
</a>
</g>
</g>
<!-- Node2&#45;&gt;Node12 -->
<g id="edge11" class="edge">
<title>Node2&#45;&gt;Node12</title>
<path fill="none" stroke="#191970" d="M1708.0962,-233.1886C1769.3251,-230.7643 1926.5851,-221.504 2053,-188 2053.0982,-187.974 2053.1965,-187.9476 2053.2949,-187.921"/>
<polygon fill="#191970" stroke="#191970" points="2054.1622,-191.3233 2062.4962,-184.7815 2051.9017,-184.6983 2054.1622,-191.3233"/>
</g>
<!-- Node13 -->
<g id="node13" class="node">
<title>Node13</title>
<g id="a_node13"><a xlink:title=" ">
<polygon fill="#ffffff" stroke="#bfbfbf" points="2700,-168.5 2700,-187.5 2736,-187.5 2736,-168.5 2700,-168.5"/>
<text text-anchor="middle" x="2718" y="-175.5" font-family="Arial.ttf" font-size="10.00" fill="#000000">map</text>
</a>
</g>
</g>
<!-- Node2&#45;&gt;Node13 -->
<g id="edge12" class="edge">
<title>Node2&#45;&gt;Node13</title>
<path fill="none" stroke="#191970" d="M1708.0839,-233.8981C1844.2109,-233.204 2474.7289,-227.9523 2689.9902,-187.5134"/>
<polygon fill="#191970" stroke="#191970" points="2690.786,-190.924 2699.9232,-185.561 2689.4359,-184.0555 2690.786,-190.924"/>
</g>
<!-- Node14 -->
<g id="node14" class="node">
<title>Node14</title>
<g id="a_node14"><a xlink:title=" ">
<polygon fill="#ffffff" stroke="#bfbfbf" points="2110,-168.5 2110,-187.5 2154,-187.5 2154,-168.5 2110,-168.5"/>
<text text-anchor="middle" x="2132" y="-175.5" font-family="Arial.ttf" font-size="10.00" fill="#000000">queue</text>
</a>
</g>
</g>
<!-- Node2&#45;&gt;Node14 -->
<g id="edge13" class="edge">
<title>Node2&#45;&gt;Node14</title>
<path fill="none" stroke="#191970" d="M1708.2008,-232.8762C1774.4662,-229.6554 1953.8637,-218.5748 2100,-188 2100.0997,-187.9791 2100.1995,-187.9581 2100.2995,-187.9369"/>
<polygon fill="#191970" stroke="#191970" points="2100.924,-191.389 2109.7656,-185.5516 2099.2135,-184.6012 2100.924,-191.389"/>
</g>
<!-- Node15 -->
<g id="node15" class="node">
<title>Node15</title>
<g id="a_node15"><a xlink:title=" ">
<polygon fill="#ffffff" stroke="#bfbfbf" points="2172,-168.5 2172,-187.5 2222,-187.5 2222,-168.5 2172,-168.5"/>
<text text-anchor="middle" x="2197" y="-175.5" font-family="Arial.ttf" font-size="10.00" fill="#000000">random</text>
</a>
</g>
</g>
<!-- Node2&#45;&gt;Node15 -->
<g id="edge14" class="edge">
<title>Node2&#45;&gt;Node15</title>
<path fill="none" stroke="#191970" d="M1708.0576,-233.2519C1779.3643,-230.8385 1983.6967,-221.4695 2161.808,-187.8986"/>
<polygon fill="#191970" stroke="#191970" points="2162.718,-191.288 2171.8807,-185.9685 2161.4006,-184.413 2162.718,-191.288"/>
</g>
<!-- Node16 -->
<g id="node16" class="node">
<title>Node16</title>
<g id="a_node16"><a xlink:title=" ">
<polygon fill="#ffffff" stroke="#bfbfbf" points="2240,-168.5 2240,-187.5 2292,-187.5 2292,-168.5 2240,-168.5"/>
<text text-anchor="middle" x="2266" y="-175.5" font-family="Arial.ttf" font-size="10.00" fill="#000000">sstream</text>
</a>
</g>
</g>
<!-- Node2&#45;&gt;Node16 -->
<g id="edge15" class="edge">
<title>Node2&#45;&gt;Node16</title>
<path fill="none" stroke="#191970" d="M1708.2421,-233.6079C1786.3936,-232.0613 2024.4067,-224.6074 2229.6976,-187.9176"/>
<polygon fill="#191970" stroke="#191970" points="2230.5428,-191.3214 2239.7567,-186.0913 2229.2923,-184.434 2230.5428,-191.3214"/>
</g>
<!-- Node17 -->
<g id="node17" class="node">
<title>Node17</title>
<g id="a_node17"><a xlink:title=" ">
<polygon fill="#ffffff" stroke="#bfbfbf" points="1294.5,-.5 1294.5,-19.5 1335.5,-19.5 1335.5,-.5 1294.5,-.5"/>
<text text-anchor="middle" x="1315" y="-7.5" font-family="Arial.ttf" font-size="10.00" fill="#000000">string</text>
</a>
</g>
</g>
<!-- Node2&#45;&gt;Node17 -->
<g id="edge16" class="edge">
<title>Node2&#45;&gt;Node17</title>
<path fill="none" stroke="#191970" d="M1655.84,-233.5774C1473.589,-230.5732 400.0523,-211.8792 377,-188 244.5052,-50.7526 1108.6081,-16.4097 1284.2571,-10.8784"/>
<polygon fill="#191970" stroke="#191970" points="1284.4811,-14.3733 1294.3691,-10.5682 1284.2664,-7.3766 1284.4811,-14.3733"/>
</g>
<!-- Node18 -->
<g id="node18" class="node">
<title>Node18</title>
<g id="a_node18"><a xlink:title=" ">
<polygon fill="#ffffff" stroke="#bfbfbf" points="246.5,-168.5 246.5,-187.5 291.5,-187.5 291.5,-168.5 246.5,-168.5"/>
<text text-anchor="middle" x="269" y="-175.5" font-family="Arial.ttf" font-size="10.00" fill="#000000">thread</text>
</a>
</g>
</g>
<!-- Node2&#45;&gt;Node18 -->
<g id="edge17" class="edge">
<title>Node2&#45;&gt;Node18</title>
<path fill="none" stroke="#191970" d="M1655.756,-233.9474C1489.4636,-233.4903 580.502,-229.1194 306,-188 304.5194,-187.7782 303.0132,-187.5181 301.4973,-187.2283"/>
<polygon fill="#191970" stroke="#191970" points="302.0488,-183.7646 291.5229,-184.9719 300.5042,-190.5921 302.0488,-183.7646"/>
</g>
<!-- Node19 -->
<g id="node19" class="node">
<title>Node19</title>
<g id="a_node19"><a xlink:title=" ">
<polygon fill="#ffffff" stroke="#bfbfbf" points="386,-168.5 386,-187.5 438,-187.5 438,-168.5 386,-168.5"/>
<text text-anchor="middle" x="412" y="-175.5" font-family="Arial.ttf" font-size="10.00" fill="#000000">typeinfo</text>
</a>
</g>
</g>
<!-- Node2&#45;&gt;Node19 -->
<g id="edge18" class="edge">
<title>Node2&#45;&gt;Node19</title>
<path fill="none" stroke="#191970" d="M1655.9687,-233.8835C1502.3426,-233.0692 712.1637,-227.0891 448.1417,-187.7592"/>
<polygon fill="#191970" stroke="#191970" points="448.6377,-184.2944 438.2204,-186.2254 447.5682,-191.2122 448.6377,-184.2944"/>
</g>
<!-- Node20 -->
<g id="node20" class="node">
<title>Node20</title>
<g id="a_node20"><a xlink:title=" ">
<polygon fill="#ffffff" stroke="#bfbfbf" points="2280,-.5 2280,-19.5 2324,-19.5 2324,-.5 2280,-.5"/>
<text text-anchor="middle" x="2302" y="-7.5" font-family="Arial.ttf" font-size="10.00" fill="#000000">vector</text>
</a>
</g>
</g>
<!-- Node2&#45;&gt;Node20 -->
<g id="edge19" class="edge">
<title>Node2&#45;&gt;Node20</title>
<path fill="none" stroke="#191970" d="M1708.3309,-232.9987C1825.7543,-228.4203 2296.8922,-208.8061 2320,-188 2363.809,-148.5547 2350.2239,-112.3782 2333,-56 2329.8591,-45.7192 2323.5634,-35.6582 2317.4612,-27.5799"/>
<polygon fill="#191970" stroke="#191970" points="2320.0816,-25.2539 2311.0741,-19.6757 2314.637,-29.6535 2320.0816,-25.2539"/>
</g>
<!-- Node21 -->
<g id="node21" class="node">
<title>Node21</title>
<g id="a_node21"><a xlink:title=" ">
<polygon fill="#ffffff" stroke="#bfbfbf" points="2342.5,-.5 2342.5,-19.5 2395.5,-19.5 2395.5,-.5 2342.5,-.5"/>
<text text-anchor="middle" x="2369" y="-7.5" font-family="Arial.ttf" font-size="10.00" fill="#000000">memory</text>
</a>
</g>
</g>
<!-- Node2&#45;&gt;Node21 -->
<g id="edge20" class="edge">
<title>Node2&#45;&gt;Node21</title>
<path fill="none" stroke="#191970" d="M1708.3461,-233.8419C1824.9148,-232.92 2290.7998,-226.8159 2342,-188 2390.5134,-151.221 2380.835,-67.3689 2373.4305,-29.3635"/>
<polygon fill="#191970" stroke="#191970" points="2376.8471,-28.6029 2371.3624,-19.5383 2369.9972,-30.0448 2376.8471,-28.6029"/>
</g>
<!-- Node22 -->
<g id="node22" class="node">
<title>Node22</title>
<g id="a_node22"><a xlink:title=" ">
<polygon fill="#ffffff" stroke="#bfbfbf" points="456.5,-168.5 456.5,-187.5 505.5,-187.5 505.5,-168.5 456.5,-168.5"/>
<text text-anchor="middle" x="481" y="-175.5" font-family="Arial.ttf" font-size="10.00" fill="#000000">cassert</text>
</a>
</g>
</g>
<!-- Node2&#45;&gt;Node22 -->
<g id="edge21" class="edge">
<title>Node2&#45;&gt;Node22</title>
<path fill="none" stroke="#191970" d="M1655.9454,-233.8453C1507.4371,-232.8333 766.0137,-226.0075 515.8359,-187.6498"/>
<polygon fill="#191970" stroke="#191970" points="516.1449,-184.1549 505.7185,-186.0364 515.0426,-191.0676 516.1449,-184.1549"/>
</g>
<!-- Node23 -->
<g id="node23" class="node">
<title>Node23</title>
<g id="a_node23"><a xlink:title=" ">
<polygon fill="#ffffff" stroke="#bfbfbf" points="2414,-.5 2414,-19.5 2454,-19.5 2454,-.5 2414,-.5"/>
<text text-anchor="middle" x="2434" y="-7.5" font-family="Arial.ttf" font-size="10.00" fill="#000000">cfloat</text>
</a>
</g>
</g>
<!-- Node2&#45;&gt;Node23 -->
<g id="edge22" class="edge">
<title>Node2&#45;&gt;Node23</title>
<path fill="none" stroke="#191970" d="M1708.3383,-233.7907C1827.0735,-232.6391 2309.1554,-225.6612 2364,-188 2417.0883,-151.5449 2429.9142,-68.1683 2433.0129,-29.8846"/>
<polygon fill="#191970" stroke="#191970" points="2436.5286,-29.7622 2433.6961,-19.5531 2429.5438,-29.3003 2436.5286,-29.7622"/>
</g>
<!-- Node24 -->
<g id="node24" class="node">
<title>Node24</title>
<g id="a_node24"><a xlink:title=" ">
<polygon fill="#ffffff" stroke="#bfbfbf" points="524,-168.5 524,-187.5 568,-187.5 568,-168.5 524,-168.5"/>
<text text-anchor="middle" x="546" y="-175.5" font-family="Arial.ttf" font-size="10.00" fill="#000000">climits</text>
</a>
</g>
</g>
<!-- Node2&#45;&gt;Node24 -->
<g id="edge23" class="edge">
<title>Node2&#45;&gt;Node24</title>
<path fill="none" stroke="#191970" d="M1655.9019,-233.8692C1512.0408,-233.0057 814.0573,-226.9319 578.0487,-187.6574"/>
<polygon fill="#191970" stroke="#191970" points="578.6188,-184.2041 568.1678,-185.9444 577.423,-191.1012 578.6188,-184.2041"/>
</g>
<!-- Node25 -->
<g id="node25" class="node">
<title>Node25</title>
<g id="a_node25"><a xlink:title=" ">
<polygon fill="#ffffff" stroke="#bfbfbf" points="586,-168.5 586,-187.5 630,-187.5 630,-168.5 586,-168.5"/>
<text text-anchor="middle" x="608" y="-175.5" font-family="Arial.ttf" font-size="10.00" fill="#000000">cmath</text>
</a>
</g>
</g>
<!-- Node2&#45;&gt;Node25 -->
<g id="edge24" class="edge">
<title>Node2&#45;&gt;Node25</title>
<path fill="none" stroke="#191970" d="M1655.9978,-233.7955C1517.34,-232.5641 863.2572,-224.9536 640.1474,-187.6774"/>
<polygon fill="#191970" stroke="#191970" points="640.6217,-184.2074 630.1691,-185.9376 639.4192,-191.1034 640.6217,-184.2074"/>
</g>
<!-- Node26 -->
<g id="node26" class="node">
<title>Node26</title>
<g id="a_node26"><a xlink:title=" ">
<polygon fill="#ffffff" stroke="#bfbfbf" points="648.5,-168.5 648.5,-187.5 691.5,-187.5 691.5,-168.5 648.5,-168.5"/>
<text text-anchor="middle" x="670" y="-175.5" font-family="Arial.ttf" font-size="10.00" fill="#000000">cstdio</text>
</a>
</g>
</g>
<!-- Node2&#45;&gt;Node26 -->
<g id="edge25" class="edge">
<title>Node2&#45;&gt;Node26</title>
<path fill="none" stroke="#191970" d="M1655.7444,-233.7442C1521.5931,-232.2915 911.1845,-223.8902 701.7357,-187.8219"/>
<polygon fill="#191970" stroke="#191970" points="702.2337,-184.3554 691.7717,-186.0275 700.993,-191.2446 702.2337,-184.3554"/>
</g>
<!-- Node27 -->
<g id="node27" class="node">
<title>Node27</title>
<g id="a_node27"><a xlink:title=" ">
<polygon fill="#ffffff" stroke="#bfbfbf" points="709.5,-168.5 709.5,-187.5 754.5,-187.5 754.5,-168.5 709.5,-168.5"/>
<text text-anchor="middle" x="732" y="-175.5" font-family="Arial.ttf" font-size="10.00" fill="#000000">cstdlib</text>
</a>
</g>
</g>
<!-- Node2&#45;&gt;Node27 -->
<g id="edge26" class="edge">
<title>Node2&#45;&gt;Node27</title>
<path fill="none" stroke="#191970" d="M1655.7611,-233.5796C1527.1438,-231.3851 961.8961,-220.1555 764.5077,-187.5428"/>
<polygon fill="#191970" stroke="#191970" points="764.9995,-184.0759 754.5496,-185.8222 763.8076,-190.9737 764.9995,-184.0759"/>
</g>
<!-- Node28 -->
<g id="node28" class="node">
<title>Node28</title>
<g id="a_node28"><a xlink:title=" ">
<polygon fill="#ffffff" stroke="#bfbfbf" points="773,-168.5 773,-187.5 819,-187.5 819,-168.5 773,-168.5"/>
<text text-anchor="middle" x="796" y="-175.5" font-family="Arial.ttf" font-size="10.00" fill="#000000">cstring</text>
</a>
</g>
</g>
<!-- Node2&#45;&gt;Node28 -->
<g id="edge27" class="edge">
<title>Node2&#45;&gt;Node28</title>
<path fill="none" stroke="#191970" d="M1655.9544,-233.4704C1533.3963,-230.8473 1012.7649,-218.2135 829.2906,-187.7487"/>
<polygon fill="#191970" stroke="#191970" points="829.7031,-184.268 819.251,-186.0017 828.5029,-191.1643 829.7031,-184.268"/>
</g>
<!-- Node29 -->
<g id="node29" class="node">
<title>Node29</title>
<g id="a_node29"><a xlink:href="_s_l_8h.html" target="_top" xlink:title=" ">
<polygon fill="#ffffff" stroke="#000000" points="2283.5,-112.5 2283.5,-131.5 2320.5,-131.5 2320.5,-112.5 2283.5,-112.5"/>
<text text-anchor="middle" x="2302" y="-119.5" font-family="Arial.ttf" font-size="10.00" fill="#000000">SL.h</text>
</a>
</g>
</g>
<!-- Node2&#45;&gt;Node29 -->
<g id="edge28" class="edge">
<title>Node2&#45;&gt;Node29</title>
<path fill="none" stroke="#191970" d="M1708.0114,-233.038C1822.9266,-228.6659 2280.3263,-209.9315 2301,-188 2312.4003,-175.9062 2311.2043,-156.3323 2308.0254,-141.6353"/>
<polygon fill="#191970" stroke="#191970" points="2311.3038,-140.3383 2305.3838,-131.5517 2304.5324,-142.1123 2311.3038,-140.3383"/>
</g>
<!-- Node33 -->
<g id="node31" class="node">
<title>Node33</title>
<g id="a_node31"><a xlink:href="_s_l_enums_8h.html" target="_top" xlink:title=" ">
<polygon fill="#ffffff" stroke="#000000" points="2546,-168.5 2546,-187.5 2614,-187.5 2614,-168.5 2546,-168.5"/>
<text text-anchor="middle" x="2580" y="-175.5" font-family="Arial.ttf" font-size="10.00" fill="#000000">SLEnums.h</text>
</a>
</g>
</g>
<!-- Node2&#45;&gt;Node33 -->
<g id="edge35" class="edge">
<title>Node2&#45;&gt;Node33</title>
<path fill="none" stroke="#191970" d="M1708.0345,-233.2135C1830.5467,-229.4204 2351.0538,-212.2545 2535.7253,-187.902"/>
<polygon fill="#191970" stroke="#191970" points="2536.4037,-191.3418 2545.8342,-186.5132 2535.4508,-184.407 2536.4037,-191.3418"/>
</g>
<!-- Node34 -->
<g id="node32" class="node">
<title>Node34</title>
<g id="a_node32"><a xlink:href="_s_l_object_8h.html" target="_top" xlink:title=" ">
<polygon fill="#ffffff" stroke="#000000" points="2462,-168.5 2462,-187.5 2528,-187.5 2528,-168.5 2462,-168.5"/>
<text text-anchor="middle" x="2495" y="-175.5" font-family="Arial.ttf" font-size="10.00" fill="#000000">SLObject.h</text>
</a>
</g>
</g>
<!-- Node2&#45;&gt;Node34 -->
<g id="edge36" class="edge">
<title>Node2&#45;&gt;Node34</title>
<path fill="none" stroke="#191970" d="M1708.2613,-233.8435C1806.2788,-232.9592 2159.8731,-227.0794 2448,-188 2449.2788,-187.8266 2450.5746,-187.6376 2451.8807,-187.4355"/>
<polygon fill="#191970" stroke="#191970" points="2452.7349,-190.8395 2461.9848,-185.6731 2451.532,-183.9436 2452.7349,-190.8395"/>
</g>
<!-- Node35 -->
<g id="node33" class="node">
<title>Node35</title>
<g id="a_node33"><a xlink:title=" ">
<polygon fill="#ffffff" stroke="#bfbfbf" points="837,-168.5 837,-187.5 955,-187.5 955,-168.5 837,-168.5"/>
<text text-anchor="middle" x="896" y="-175.5" font-family="Arial.ttf" font-size="10.00" fill="#000000">opencv2/core/core.hpp</text>
</a>
</g>
</g>
<!-- Node2&#45;&gt;Node35 -->
<g id="edge38" class="edge">
<title>Node2&#45;&gt;Node35</title>
<path fill="none" stroke="#191970" d="M1655.8541,-233.1004C1563.1746,-229.7486 1241.5428,-216.7302 965.5139,-188.0826"/>
<polygon fill="#191970" stroke="#191970" points="965.612,-184.5738 955.3019,-187.0133 964.883,-191.5357 965.612,-184.5738"/>
</g>
<!-- Node36 -->
<g id="node34" class="node">
<title>Node36</title>
<g id="a_node34"><a xlink:title=" ">
<polygon fill="#ffffff" stroke="#bfbfbf" points="973,-168.5 973,-187.5 1095,-187.5 1095,-168.5 973,-168.5"/>
<text text-anchor="middle" x="1034" y="-175.5" font-family="Arial.ttf" font-size="10.00" fill="#000000">opencv2/core/utility.hpp</text>
</a>
</g>
</g>
<!-- Node2&#45;&gt;Node36 -->
<g id="edge39" class="edge">
<title>Node2&#45;&gt;Node36</title>
<path fill="none" stroke="#191970" d="M1655.7324,-232.4961C1575.143,-227.7583 1324.1103,-212.0794 1105.1282,-188.0643"/>
<polygon fill="#191970" stroke="#191970" points="1105.3788,-184.5708 1095.0548,-186.9512 1104.6098,-191.5285 1105.3788,-184.5708"/>
</g>
<!-- Node37 -->
<g id="node35" class="node">
<title>Node37</title>
<g id="a_node35"><a xlink:title=" ">
<polygon fill="#ffffff" stroke="#bfbfbf" points="1113.5,-168.5 1113.5,-187.5 1222.5,-187.5 1222.5,-168.5 1113.5,-168.5"/>
<text text-anchor="middle" x="1168" y="-175.5" font-family="Arial.ttf" font-size="10.00" fill="#000000">opencv2/highgui.hpp</text>
</a>
</g>
</g>
<!-- Node2&#45;&gt;Node37 -->
<g id="edge40" class="edge">
<title>Node2&#45;&gt;Node37</title>
<path fill="none" stroke="#191970" d="M1655.5684,-231.7924C1587.4159,-225.9953 1399.9595,-209.3863 1232.7526,-188.0376"/>
<polygon fill="#191970" stroke="#191970" points="1233.1501,-184.56 1222.7854,-186.7562 1232.2574,-191.5028 1233.1501,-184.56"/>
</g>
<!-- Node38 -->
<g id="node36" class="node">
<title>Node38</title>
<g id="a_node36"><a xlink:title=" ">
<polygon fill="#ffffff" stroke="#bfbfbf" points="1241,-168.5 1241,-187.5 1353,-187.5 1353,-168.5 1241,-168.5"/>
<text text-anchor="middle" x="1297" y="-175.5" font-family="Arial.ttf" font-size="10.00" fill="#000000">opencv2/imgproc.hpp</text>
</a>
</g>
</g>
<!-- Node2&#45;&gt;Node38 -->
<g id="edge41" class="edge">
<title>Node2&#45;&gt;Node38</title>
<path fill="none" stroke="#191970" d="M1655.8551,-230.3308C1602.7917,-222.8649 1478.3994,-205.2661 1363.0732,-188.1487"/>
<polygon fill="#191970" stroke="#191970" points="1363.4205,-184.662 1353.0145,-186.6535 1362.3912,-191.5859 1363.4205,-184.662"/>
</g>
<!-- Node39 -->
<g id="node37" class="node">
<title>Node39</title>
<g id="a_node37"><a xlink:title=" ">
<polygon fill="#ffffff" stroke="#bfbfbf" points="1371,-168.5 1371,-187.5 1479,-187.5 1479,-168.5 1371,-168.5"/>
<text text-anchor="middle" x="1425" y="-175.5" font-family="Arial.ttf" font-size="10.00" fill="#000000">opencv2/calib3d.hpp</text>
</a>
</g>
</g>
<!-- Node2&#45;&gt;Node39 -->
<g id="edge42" class="edge">
<title>Node2&#45;&gt;Node39</title>
<path fill="none" stroke="#191970" d="M1655.9432,-228.3222C1614.497,-219.2912 1532.7029,-201.4683 1478.4277,-189.6418"/>
<polygon fill="#191970" stroke="#191970" points="1479.1454,-186.2162 1468.6295,-187.5068 1477.6551,-193.0557 1479.1454,-186.2162"/>
</g>
<!-- Node40 -->
<g id="node38" class="node">
<title>Node40</title>
<g id="a_node38"><a xlink:title=" ">
<polygon fill="#ffffff" stroke="#bfbfbf" points="1497,-168.5 1497,-187.5 1635,-187.5 1635,-168.5 1497,-168.5"/>
<text text-anchor="middle" x="1566" y="-175.5" font-family="Arial.ttf" font-size="10.00" fill="#000000">opencv2/video/tracking.hpp</text>
</a>
</g>
</g>
<!-- Node2&#45;&gt;Node40 -->
<g id="edge43" class="edge">
<title>Node2&#45;&gt;Node40</title>
<path fill="none" stroke="#191970" d="M1662.0589,-224.3733C1643.5214,-215.4241 1615.6972,-201.9917 1594.7587,-191.8835"/>
<polygon fill="#191970" stroke="#191970" points="1596.2081,-188.6967 1585.6809,-187.5011 1593.1648,-195.0006 1596.2081,-188.6967"/>
</g>
<!-- Node30 -->
<g id="node30" class="node">
<title>Node30</title>
<g id="a_node30"><a xlink:href="_utils_8h.html" target="_top" xlink:title=" ">
<polygon fill="#ffffff" stroke="#ff0000" points="2280,-56.5 2280,-75.5 2324,-75.5 2324,-56.5 2280,-56.5"/>
<text text-anchor="middle" x="2302" y="-63.5" font-family="Arial.ttf" font-size="10.00" fill="#000000">Utils.h</text>
</a>
</g>
</g>
<!-- Node29&#45;&gt;Node30 -->
<g id="edge29" class="edge">
<title>Node29&#45;&gt;Node30</title>
<path fill="none" stroke="#191970" d="M2302,-112.2455C2302,-104.9382 2302,-94.6944 2302,-85.7046"/>
<polygon fill="#191970" stroke="#191970" points="2305.5001,-85.6426 2302,-75.6427 2298.5001,-85.6427 2305.5001,-85.6426"/>
</g>
<!-- Node30&#45;&gt;Node9 -->
<g id="edge34" class="edge">
<title>Node30&#45;&gt;Node9</title>
<path fill="none" stroke="#191970" d="M2279.7412,-65.3711C2081.5385,-59.771 620.4596,-18.4893 359.7476,-11.123"/>
<polygon fill="#191970" stroke="#191970" points="359.6995,-7.6204 349.6046,-10.8365 359.5017,-14.6176 359.6995,-7.6204"/>
</g>
<!-- Node30&#45;&gt;Node17 -->
<g id="edge30" class="edge">
<title>Node30&#45;&gt;Node17</title>
<path fill="none" stroke="#191970" d="M2279.5307,-64.7251C2149.7792,-57.3634 1496.8865,-20.3198 1346.1051,-11.7648"/>
<polygon fill="#191970" stroke="#191970" points="1345.9269,-8.2492 1335.7446,-11.177 1345.5303,-15.2379 1345.9269,-8.2492"/>
</g>
<!-- Node30&#45;&gt;Node20 -->
<g id="edge31" class="edge">
<title>Node30&#45;&gt;Node20</title>
<path fill="none" stroke="#191970" d="M2302,-56.2455C2302,-48.9382 2302,-38.6944 2302,-29.7046"/>
<polygon fill="#191970" stroke="#191970" points="2305.5001,-29.6426 2302,-19.6427 2298.5001,-29.6427 2305.5001,-29.6426"/>
</g>
<!-- Node30&#45;&gt;Node21 -->
<g id="edge33" class="edge">
<title>Node30&#45;&gt;Node21</title>
<path fill="none" stroke="#191970" d="M2313.6705,-56.2455C2323.5661,-47.9746 2337.9627,-35.9416 2349.5901,-26.2232"/>
<polygon fill="#191970" stroke="#191970" points="2352.035,-28.7413 2357.4632,-19.6427 2347.5458,-23.3703 2352.035,-28.7413"/>
</g>
<!-- Node30&#45;&gt;Node23 -->
<g id="edge32" class="edge">
<title>Node30&#45;&gt;Node23</title>
<path fill="none" stroke="#191970" d="M2324.0938,-56.6269C2346.1547,-47.2677 2380.1933,-32.8271 2404.5422,-22.4972"/>
<polygon fill="#191970" stroke="#191970" points="2406.1591,-25.6133 2413.998,-18.4857 2403.4252,-19.1692 2406.1591,-25.6133"/>
</g>
<!-- Node34&#45;&gt;Node29 -->
<g id="edge37" class="edge">
<title>Node34&#45;&gt;Node29</title>
<path fill="none" stroke="#191970" d="M2461.8221,-168.3733C2424.9019,-157.6607 2365.8414,-140.5239 2330.7946,-130.3549"/>
<polygon fill="#191970" stroke="#191970" points="2331.3193,-126.8629 2320.7401,-127.4375 2329.3686,-133.5856 2331.3193,-126.8629"/>
</g>
<!-- Node42 -->
<g id="node40" class="node">
<title>Node42</title>
<g id="a_node40"><a xlink:href="_s_l_light_direct_8h.html" target="_top" xlink:title=" ">
<polygon fill="#ffffff" stroke="#000000" points="294.5,-336.5 294.5,-355.5 379.5,-355.5 379.5,-336.5 294.5,-336.5"/>
<text text-anchor="middle" x="337" y="-343.5" font-family="Arial.ttf" font-size="10.00" fill="#000000">SLLightDirect.h</text>
</a>
</g>
</g>
<!-- Node41&#45;&gt;Node42 -->
<g id="edge45" class="edge">
<title>Node41&#45;&gt;Node42</title>
<path fill="none" stroke="#191970" d="M291.5803,-392.2455C299.5458,-384.1352 311.0641,-372.4075 320.5079,-362.7919"/>
<polygon fill="#191970" stroke="#191970" points="323.0195,-365.2297 327.5295,-355.6427 318.0253,-360.3247 323.0195,-365.2297"/>
</g>
<!-- Node74 -->
<g id="node46" class="node">
<title>Node74</title>
<g id="a_node46"><a xlink:href="_high_res_timer_8h.html" target="_top" xlink:title=" ">
<polygon fill="#ffffff" stroke="#000000" points="124.5,-224.5 124.5,-243.5 213.5,-243.5 213.5,-224.5 124.5,-224.5"/>
<text text-anchor="middle" x="169" y="-231.5" font-family="Arial.ttf" font-size="10.00" fill="#000000">HighResTimer.h</text>
</a>
</g>
</g>
<!-- Node41&#45;&gt;Node74 -->
<g id="edge57" class="edge">
<title>Node41&#45;&gt;Node74</title>
<path fill="none" stroke="#191970" d="M229.4329,-394.1872C206.5535,-387.89 181.8485,-376.5213 168,-356 147.1618,-325.1209 155.4277,-279.0882 162.6434,-253.2978"/>
<polygon fill="#191970" stroke="#191970" points="166.0354,-254.1725 165.5836,-243.5873 159.3358,-252.1439 166.0354,-254.1725"/>
</g>
<!-- Node75 -->
<g id="node47" class="node">
<title>Node75</title>
<g id="a_node47"><a xlink:href="_c_v_image_geo_tiff_8h.html" target="_top" xlink:title=" ">
<polygon fill="#ffffff" stroke="#ff0000" points="177.5,-336.5 177.5,-355.5 276.5,-355.5 276.5,-336.5 177.5,-336.5"/>
<text text-anchor="middle" x="227" y="-343.5" font-family="Arial.ttf" font-size="10.00" fill="#000000">CVImageGeoTiff.h</text>
</a>
</g>
</g>
<!-- Node41&#45;&gt;Node75 -->
<g id="edge61" class="edge">
<title>Node41&#45;&gt;Node75</title>
<path fill="none" stroke="#191970" d="M272.4197,-392.2455C264.4542,-384.1352 252.9359,-372.4075 243.4921,-362.7919"/>
<polygon fill="#191970" stroke="#191970" points="245.9747,-360.3247 236.4705,-355.6427 240.9805,-365.2297 245.9747,-360.3247"/>
</g>
<!-- Node43 -->
<g id="node41" class="node">
<title>Node43</title>
<g id="a_node41"><a xlink:href="_s_l_light_8h.html" target="_top" xlink:title=" ">
<polygon fill="#ffffff" stroke="#ff0000" points="47.5,-224.5 47.5,-243.5 106.5,-243.5 106.5,-224.5 47.5,-224.5"/>
<text text-anchor="middle" x="77" y="-231.5" font-family="Arial.ttf" font-size="10.00" fill="#000000">SLLight.h</text>
</a>
</g>
</g>
<!-- Node42&#45;&gt;Node43 -->
<g id="edge46" class="edge">
<title>Node42&#45;&gt;Node43</title>
<path fill="none" stroke="#191970" d="M314.8325,-336.4509C268.5894,-316.5308 161.7188,-270.4942 108.4144,-247.5323"/>
<polygon fill="#191970" stroke="#191970" points="109.6802,-244.2667 99.1113,-243.5249 106.9108,-250.6956 109.6802,-244.2667"/>
</g>
<!-- Node49 -->
<g id="node42" class="node">
<title>Node49</title>
<g id="a_node42"><a xlink:href="_s_l_node_8h.html" target="_top" xlink:title=" ">
<polygon fill="#ffffff" stroke="#ff0000" points="2418.5,-280.5 2418.5,-299.5 2479.5,-299.5 2479.5,-280.5 2418.5,-280.5"/>
<text text-anchor="middle" x="2449" y="-287.5" font-family="Arial.ttf" font-size="10.00" fill="#000000">SLNode.h</text>
</a>
</g>
</g>
<!-- Node42&#45;&gt;Node49 -->
<g id="edge48" class="edge">
<title>Node42&#45;&gt;Node49</title>
<path fill="none" stroke="#191970" d="M379.6653,-344.8687C651.7418,-337.6546 2141.3576,-298.1572 2408.101,-291.0844"/>
<polygon fill="#191970" stroke="#191970" points="2408.2276,-294.5824 2418.1312,-290.8185 2408.042,-287.5849 2408.2276,-294.5824"/>
</g>
<!-- Node63 -->
<g id="node44" class="node">
<title>Node63</title>
<g id="a_node44"><a xlink:href="_s_l_samples2_d_8h.html" target="_top" xlink:title=" ">
<polygon fill="#ffffff" stroke="#ff0000" points="254.5,-280.5 254.5,-299.5 343.5,-299.5 343.5,-280.5 254.5,-280.5"/>
<text text-anchor="middle" x="299" y="-287.5" font-family="Arial.ttf" font-size="10.00" fill="#000000">SLSamples2D.h</text>
</a>
</g>
</g>
<!-- Node42&#45;&gt;Node63 -->
<g id="edge53" class="edge">
<title>Node42&#45;&gt;Node63</title>
<path fill="none" stroke="#191970" d="M330.3809,-336.2455C325.0954,-328.4564 317.5459,-317.3308 311.1762,-307.9439"/>
<polygon fill="#191970" stroke="#191970" points="314.0545,-305.9522 305.5432,-299.6427 308.2621,-309.8827 314.0545,-305.9522"/>
</g>
<!-- Node64 -->
<g id="node45" class="node">
<title>Node64</title>
<g id="a_node45"><a xlink:href="_s_l_color_l_u_t_8h.html" target="_top" xlink:title=" ">
<polygon fill="#ffffff" stroke="#ff0000" points="0,-280.5 0,-299.5 80,-299.5 80,-280.5 0,-280.5"/>
<text text-anchor="middle" x="40" y="-287.5" font-family="Arial.ttf" font-size="10.00" fill="#000000">SLColorLUT.h</text>
</a>
</g>
</g>
<!-- Node42&#45;&gt;Node64 -->
<g id="edge55" class="edge">
<title>Node42&#45;&gt;Node64</title>
<path fill="none" stroke="#191970" d="M294.4358,-337.7988C291.243,-337.1885 288.0707,-336.5835 285,-336 217.7192,-323.2146 140.0023,-308.659 90.4592,-299.407"/>
<polygon fill="#191970" stroke="#191970" points="90.8013,-295.9105 80.3288,-297.5158 89.5166,-302.7916 90.8013,-295.9105"/>
</g>
<!-- Node43&#45;&gt;Node29 -->
<g id="edge47" class="edge">
<title>Node43&#45;&gt;Node29</title>
<path fill="none" stroke="#191970" d="M82.6834,-224.067C92.1065,-208.7149 112.5748,-179.7675 139,-168 190.1106,-145.2397 2020.7946,-124.9887 2273.244,-122.3018"/>
<polygon fill="#191970" stroke="#191970" points="2273.4832,-125.7996 2283.4455,-122.1937 2273.4089,-118.8 2273.4832,-125.7996"/>
</g>
<!-- Node49&#45;&gt;Node33 -->
<g id="edge49" class="edge">
<title>Node49&#45;&gt;Node33</title>
<path fill="none" stroke="#191970" d="M2460.169,-280.4509C2482.5983,-261.2747 2533.3357,-217.8962 2561.0532,-194.1988"/>
<polygon fill="#191970" stroke="#191970" points="2563.5329,-196.6835 2568.8593,-187.5249 2558.9841,-191.363 2563.5329,-196.6835"/>
</g>
<!-- Node52 -->
<g id="node43" class="node">
<title>Node52</title>
<g id="a_node43"><a xlink:href="_s_l_mesh_8h.html" target="_top" xlink:title=" ">
<polygon fill="#ffffff" stroke="#ff0000" points="2418,-224.5 2418,-243.5 2480,-243.5 2480,-224.5 2418,-224.5"/>
<text text-anchor="middle" x="2449" y="-231.5" font-family="Arial.ttf" font-size="10.00" fill="#000000">SLMesh.h</text>
</a>
</g>
</g>
<!-- Node49&#45;&gt;Node52 -->
<g id="edge50" class="edge">
<title>Node49&#45;&gt;Node52</title>
<path fill="none" stroke="#191970" d="M2449,-280.2455C2449,-272.9382 2449,-262.6944 2449,-253.7046"/>
<polygon fill="#191970" stroke="#191970" points="2452.5001,-253.6426 2449,-243.6427 2445.5001,-253.6427 2452.5001,-253.6426"/>
</g>
<!-- Node52&#45;&gt;Node33 -->
<g id="edge51" class="edge">
<title>Node52&#45;&gt;Node33</title>
<path fill="none" stroke="#191970" d="M2471.5197,-224.3733C2492.7372,-215.3032 2524.7276,-201.6279 2548.4769,-191.4755"/>
<polygon fill="#191970" stroke="#191970" points="2549.9548,-194.6502 2557.7742,-187.5011 2547.2033,-188.2136 2549.9548,-194.6502"/>
</g>
<!-- Node52&#45;&gt;Node34 -->
<g id="edge52" class="edge">
<title>Node52&#45;&gt;Node34</title>
<path fill="none" stroke="#191970" d="M2457.0126,-224.2455C2463.4768,-216.3761 2472.7385,-205.101 2480.4983,-195.6542"/>
<polygon fill="#191970" stroke="#191970" points="2483.4364,-197.5916 2487.0792,-187.6427 2478.0273,-193.1484 2483.4364,-197.5916"/>
</g>
<!-- Node63&#45;&gt;Node29 -->
<g id="edge54" class="edge">
<title>Node63&#45;&gt;Node29</title>
<path fill="none" stroke="#191970" d="M288.2777,-280.3038C273.6193,-267.1663 246.3596,-243.1537 222,-224 200.4743,-207.0746 184.484,-212.3717 172,-188 167.9475,-180.0886 165.7828,-174.3529 172,-168 210.516,-128.6432 2021.5834,-122.7012 2273.1253,-122.0654"/>
<polygon fill="#191970" stroke="#191970" points="2273.3074,-125.565 2283.2988,-122.0404 2273.2902,-118.5651 2273.3074,-125.565"/>
</g>
<!-- Node64&#45;&gt;Node29 -->
<g id="edge56" class="edge">
<title>Node64&#45;&gt;Node29</title>
<path fill="none" stroke="#191970" d="M37.0944,-280.4745C33.5805,-267.1155 29.1607,-242.3913 38,-224 55.259,-188.0906 70.5446,-181.5812 108,-168 214.6485,-129.3297 2022.4669,-122.7966 2273.2281,-122.0753"/>
<polygon fill="#191970" stroke="#191970" points="2273.3785,-125.575 2283.3687,-122.0469 2273.3589,-118.575 2273.3785,-125.575"/>
</g>
<!-- Node74&#45;&gt;Node5 -->
<g id="edge58" class="edge">
<title>Node74&#45;&gt;Node5</title>
<path fill="none" stroke="#191970" d="M175.2707,-224.2455C180.2264,-216.5367 187.283,-205.5598 193.2776,-196.2348"/>
<polygon fill="#191970" stroke="#191970" points="196.3376,-197.9471 198.8011,-187.6427 190.4494,-194.1618 196.3376,-197.9471"/>
</g>
<!-- Node74&#45;&gt;Node9 -->
<g id="edge59" class="edge">
<title>Node74&#45;&gt;Node9</title>
<path fill="none" stroke="#191970" d="M165.8334,-224.1717C162.1143,-210.8844 157.3579,-186.7026 165,-168 191.5975,-102.9075 259.369,-50.1416 295.8608,-25.3394"/>
<polygon fill="#191970" stroke="#191970" points="298.0326,-28.0984 304.4204,-19.6458 294.1557,-22.2701 298.0326,-28.0984"/>
</g>
<!-- Node74&#45;&gt;Node18 -->
<g id="edge60" class="edge">
<title>Node74&#45;&gt;Node18</title>
<path fill="none" stroke="#191970" d="M186.4187,-224.2455C202.0485,-215.4928 225.2019,-202.527 243.0185,-192.5496"/>
<polygon fill="#191970" stroke="#191970" points="244.766,-195.5825 251.7809,-187.6427 241.3457,-189.475 244.766,-195.5825"/>
</g>
<!-- Node77&#45;&gt;Node8 -->
<g id="edge64" class="edge">
<title>Node77&#45;&gt;Node8</title>
<path fill="none" stroke="#191970" d="M2631.4177,-280.2212C2643.2076,-272.1641 2658.1747,-259.5536 2665,-244 2671.4411,-229.3218 2668.5396,-211.1461 2664.5363,-197.5871"/>
<polygon fill="#191970" stroke="#191970" points="2667.7654,-196.2101 2661.247,-187.8578 2661.1342,-198.452 2667.7654,-196.2101"/>
</g>
<!-- Node77&#45;&gt;Node13 -->
<g id="edge65" class="edge">
<title>Node77&#45;&gt;Node13</title>
<path fill="none" stroke="#191970" d="M2632.5892,-280.4241C2646.6515,-272.1387 2666.2239,-259.1279 2680,-244 2692.7511,-229.9977 2703.1294,-211.0029 2709.7984,-196.9857"/>
<polygon fill="#191970" stroke="#191970" points="2713.0216,-198.3528 2713.9797,-187.8013 2706.6508,-195.4523 2713.0216,-198.3528"/>
</g>
<!-- Node77&#45;&gt;Node29 -->
<g id="edge66" class="edge">
<title>Node77&#45;&gt;Node29</title>
<path fill="none" stroke="#191970" d="M2639.7701,-280.4617C2687.8375,-260.6348 2785.621,-213.0574 2745,-168 2717.2346,-137.2022 2424.9667,-125.7196 2330.953,-122.8064"/>
<polygon fill="#191970" stroke="#191970" points="2330.8476,-119.3017 2320.747,-122.5 2330.6374,-126.2986 2330.8476,-119.3017"/>
</g>
<!-- Node77&#45;&gt;Node33 -->
<g id="edge69" class="edge">
<title>Node77&#45;&gt;Node33</title>
<path fill="none" stroke="#191970" d="M2598.5823,-280.2212C2586.7924,-272.1641 2571.8253,-259.5536 2565,-244 2558.3777,-228.909 2563.5136,-210.5439 2569.5118,-197.0216"/>
<polygon fill="#191970" stroke="#191970" points="2572.7961,-198.2754 2574.0863,-187.7594 2566.5199,-195.1756 2572.7961,-198.2754"/>
</g>
<!-- Node77&#45;&gt;Node52 -->
<g id="edge70" class="edge">
<title>Node77&#45;&gt;Node52</title>
<path fill="none" stroke="#191970" d="M2586.4636,-280.3733C2558.9798,-271.1016 2517.2314,-257.0178 2486.9548,-246.804"/>
<polygon fill="#191970" stroke="#191970" points="2487.7582,-243.3813 2477.164,-243.5011 2485.5206,-250.0141 2487.7582,-243.3813"/>
</g>
<!-- Node78 -->
<g id="node50" class="node">
<title>Node78</title>
<g id="a_node50"><a xlink:href="_s_l_animation_8h.html" target="_top" xlink:title=" ">
<polygon fill="#ffffff" stroke="#ff0000" points="2574,-224.5 2574,-243.5 2656,-243.5 2656,-224.5 2574,-224.5"/>
<text text-anchor="middle" x="2615" y="-231.5" font-family="Arial.ttf" font-size="10.00" fill="#000000">SLAnimation.h</text>
</a>
</g>
</g>
<!-- Node77&#45;&gt;Node78 -->
<g id="edge67" class="edge">
<title>Node77&#45;&gt;Node78</title>
<path fill="none" stroke="#191970" d="M2615,-280.2455C2615,-272.9382 2615,-262.6944 2615,-253.7046"/>
<polygon fill="#191970" stroke="#191970" points="2618.5001,-253.6426 2615,-243.6427 2611.5001,-253.6427 2618.5001,-253.6426"/>
</g>
<!-- Node78&#45;&gt;Node33 -->
<g id="edge68" class="edge">
<title>Node78&#45;&gt;Node33</title>
<path fill="none" stroke="#191970" d="M2608.9035,-224.2455C2604.0855,-216.5367 2597.2249,-205.5598 2591.3968,-196.2348"/>
<polygon fill="#191970" stroke="#191970" points="2594.2947,-194.2677 2586.0267,-187.6427 2588.3587,-197.9777 2594.2947,-194.2677"/>
</g>
</g>
</svg>
