<?xml version="1.0" encoding="UTF-8" standalone="no"?>
<!DOCTYPE svg PUBLIC "-//W3C//DTD SVG 1.1//EN"
 "http://www.w3.org/Graphics/SVG/1.1/DTD/svg11.dtd">
<!-- Generated by graphviz version 2.28.0 (20110507.0327)
 -->
<!-- Title: SLSpheric.h Pages: 1 -->
<svg width="381pt" height="140pt"
 viewBox="0.00 0.00 381.00 140.00" xmlns="http://www.w3.org/2000/svg" xmlns:xlink="http://www.w3.org/1999/xlink">
<g id="graph1" class="graph" transform="scale(1 1) rotate(0) translate(4 136)">
<title>SLSpheric.h</title>
<polygon fill="white" stroke="white" points="-4,5 -4,-136 378,-136 378,5 -4,5"/>
<!-- Node1 -->
<g id="node1" class="node"><title>Node1</title>
<polygon fill="#bfbfbf" stroke="black" points="159,-112.5 159,-131.5 233,-131.5 233,-112.5 159,-112.5"/>
<text text-anchor="middle" x="196" y="-119.5" font-family="Arial.ttf" font-size="10.00">SLSpheric.h</text>
</g>
<!-- Node2 -->
<g id="node3" class="node"><title>Node2</title>
<a xlink:href="_s_l_light_direct_8cpp.html" target="_top" xlink:title="SLLightDirect.cpp">
<polygon fill="white" stroke="black" points="-0.5,-0.5 -0.5,-19.5 100.5,-19.5 100.5,-0.5 -0.5,-0.5"/>
<text text-anchor="middle" x="50" y="-7.5" font-family="Arial.ttf" font-size="10.00">SLLightDirect.cpp</text>
</a>
</g>
<!-- Node1&#45;&gt;Node2 -->
<g id="edge2" class="edge"><title>Node1&#45;&gt;Node2</title>
<path fill="none" stroke="midnightblue" d="M176.247,-106.118C145.257,-82.7688 86.1946,-38.2699 61.4032,-19.5914"/>
<polygon fill="midnightblue" stroke="midnightblue" points="174.451,-109.146 184.544,-112.368 178.663,-103.556 174.451,-109.146"/>
</g>
<!-- Node3 -->
<g id="node5" class="node"><title>Node3</title>
<a xlink:href="_s_l_light_spot_8cpp.html" target="_top" xlink:title="SLLightSpot.cpp">
<polygon fill="white" stroke="black" points="118.5,-0.5 118.5,-19.5 213.5,-19.5 213.5,-0.5 118.5,-0.5"/>
<text text-anchor="middle" x="166" y="-7.5" font-family="Arial.ttf" font-size="10.00">SLLightSpot.cpp</text>
</a>
</g>
<!-- Node1&#45;&gt;Node3 -->
<g id="edge4" class="edge"><title>Node1&#45;&gt;Node3</title>
<path fill="none" stroke="midnightblue" d="M174.834,-106.044C165.667,-98.2572 155.92,-87.879 151,-76 143.022,-56.7405 153.679,-32.4297 160.71,-19.6925"/>
<polygon fill="midnightblue" stroke="midnightblue" points="172.917,-108.99 182.936,-112.436 177.253,-103.494 172.917,-108.99"/>
</g>
<!-- Node4 -->
<g id="node7" class="node"><title>Node4</title>
<a xlink:href="_s_l_scene__on_load_8cpp.html" target="_top" xlink:title="SLScene_onLoad.cpp">
<polygon fill="white" stroke="black" points="231.5,-0.5 231.5,-19.5 350.5,-19.5 350.5,-0.5 231.5,-0.5"/>
<text text-anchor="middle" x="291" y="-7.5" font-family="Arial.ttf" font-size="10.00">SLScene_onLoad.cpp</text>
</a>
</g>
<!-- Node1&#45;&gt;Node4 -->
<g id="edge6" class="edge"><title>Node1&#45;&gt;Node4</title>
<path fill="none" stroke="midnightblue" d="M212.664,-105.348C221.382,-96.9114 232.07,-86.1704 241,-76 257.909,-56.7428 275.759,-32.431 284.867,-19.6931"/>
<polygon fill="midnightblue" stroke="midnightblue" points="210.131,-102.927 205.318,-112.366 214.966,-107.989 210.131,-102.927"/>
</g>
<!-- Node5 -->
<g id="node9" class="node"><title>Node5</title>
<a xlink:href="_s_l_spheric_8cpp.html" target="_top" xlink:title="SLSpheric.cpp">
<polygon fill="white" stroke="black" points="288.5,-56.5 288.5,-75.5 373.5,-75.5 373.5,-56.5 288.5,-56.5"/>
<text text-anchor="middle" x="331" y="-63.5" font-family="Arial.ttf" font-size="10.00">SLSpheric.cpp</text>
</a>
</g>
<!-- Node1&#45;&gt;Node5 -->
<g id="edge8" class="edge"><title>Node1&#45;&gt;Node5</title>
<path fill="none" stroke="midnightblue" d="M226.906,-108.638C252.24,-98.504 287.431,-84.4274 309.709,-75.5164"/>
<polygon fill="midnightblue" stroke="midnightblue" points="225.376,-105.48 217.391,-112.444 227.976,-111.979 225.376,-105.48"/>
</g>
<!-- Node6 -->
<g id="node11" class="node"><title>Node6</title>
<a xlink:href="_s_l_sphere_8h.html" target="_top" xlink:title="SLSphere.h">
<polygon fill="white" stroke="black" points="160,-56.5 160,-75.5 232,-75.5 232,-56.5 160,-56.5"/>
<text text-anchor="middle" x="196" y="-63.5" font-family="Arial.ttf" font-size="10.00">SLSphere.h</text>
</a>
</g>
<!-- Node1&#45;&gt;Node6 -->
<g id="edge10" class="edge"><title>Node1&#45;&gt;Node6</title>
<path fill="none" stroke="midnightblue" d="M196,-101.805C196,-92.9102 196,-82.7798 196,-75.7511"/>
<polygon fill="midnightblue" stroke="midnightblue" points="192.5,-102.083 196,-112.083 199.5,-102.083 192.5,-102.083"/>
</g>
<!-- Node6&#45;&gt;Node2 -->
<g id="edge12" class="edge"><title>Node6&#45;&gt;Node2</title>
<path fill="none" stroke="midnightblue" d="M163.301,-52.9058C135.852,-42.7536 97.3318,-28.5063 73.0259,-19.5164"/>
<polygon fill="midnightblue" stroke="midnightblue" points="162.273,-56.2572 172.866,-56.4435 164.701,-49.6919 162.273,-56.2572"/>
</g>
<!-- Node6&#45;&gt;Node3 -->
<g id="edge14" class="edge"><title>Node6&#45;&gt;Node3</title>
<path fill="none" stroke="midnightblue" d="M186.153,-47.2747C181.025,-38.0454 174.984,-27.1703 170.862,-19.7511"/>
<polygon fill="midnightblue" stroke="midnightblue" points="183.13,-49.0412 191.046,-56.083 189.249,-45.6416 183.13,-49.0412"/>
</g>
<!-- Node6&#45;&gt;Node4 -->
<g id="edge16" class="edge"><title>Node6&#45;&gt;Node4</title>
<path fill="none" stroke="midnightblue" d="M220.318,-51.1774C237.799,-41.2407 260.83,-28.1492 275.774,-19.6545"/>
<polygon fill="midnightblue" stroke="midnightblue" points="218.227,-48.3395 211.263,-56.324 221.687,-54.425 218.227,-48.3395"/>
</g>
</g>
</svg>
