<?xml version="1.0" encoding="UTF-8" standalone="no"?>
<!DOCTYPE svg PUBLIC "-//W3C//DTD SVG 1.1//EN"
 "http://www.w3.org/Graphics/SVG/1.1/DTD/svg11.dtd">
<!-- Generated by graphviz version 2.40.1 (20161225.0304)
 -->
<!-- Title: SLGLVertexArrayExt.h Pages: 1 -->
<svg width="2217pt" height="308pt"
 viewBox="0.00 0.00 2217.00 308.00" xmlns="http://www.w3.org/2000/svg" xmlns:xlink="http://www.w3.org/1999/xlink">
<g id="graph0" class="graph" transform="scale(1 1) rotate(0) translate(4 304)">
<title>SLGLVertexArrayExt.h</title>
<polygon fill="#ffffff" stroke="transparent" points="-4,4 -4,-304 2213,-304 2213,4 -4,4"/>
<!-- Node1 -->
<g id="node1" class="node">
<title>Node1</title>
<g id="a_node1"><a xlink:title=" ">
<polygon fill="#bfbfbf" stroke="#000000" points="1495.5,-280.5 1495.5,-299.5 1613.5,-299.5 1613.5,-280.5 1495.5,-280.5"/>
<text text-anchor="middle" x="1554.5" y="-287.5" font-family="Arial.ttf" font-size="10.00" fill="#000000">SLGLVertexArrayExt.h</text>
</a>
</g>
</g>
<!-- Node2 -->
<g id="node2" class="node">
<title>Node2</title>
<g id="a_node2"><a xlink:href="_s_l_a_a_b_box_8h.html" target="_top" xlink:title=" ">
<polygon fill="#ffffff" stroke="#000000" points="1188.5,-224.5 1188.5,-243.5 1262.5,-243.5 1262.5,-224.5 1188.5,-224.5"/>
<text text-anchor="middle" x="1225.5" y="-231.5" font-family="Arial.ttf" font-size="10.00" fill="#000000">SLAABBox.h</text>
</a>
</g>
</g>
<!-- Node1&#45;&gt;Node2 -->
<g id="edge1" class="edge">
<title>Node1&#45;&gt;Node2</title>
<path fill="none" stroke="#191970" d="M1488.1496,-278.7063C1420.2528,-267.1494 1317.1887,-249.6066 1262.5431,-240.3052"/>
<polygon fill="#191970" stroke="#191970" points="1487.8712,-282.2092 1498.3167,-280.4369 1489.0458,-275.3084 1487.8712,-282.2092"/>
</g>
<!-- Node6 -->
<g id="node6" class="node">
<title>Node6</title>
<g id="a_node6"><a xlink:href="_s_l_compact_grid_8h.html" target="_top" xlink:title=" ">
<polygon fill="#ffffff" stroke="#000000" points="21.5,-56.5 21.5,-75.5 117.5,-75.5 117.5,-56.5 21.5,-56.5"/>
<text text-anchor="middle" x="69.5" y="-63.5" font-family="Arial.ttf" font-size="10.00" fill="#000000">SLCompactGrid.h</text>
</a>
</g>
</g>
<!-- Node1&#45;&gt;Node6 -->
<g id="edge44" class="edge">
<title>Node1&#45;&gt;Node6</title>
<path fill="none" stroke="#191970" d="M1485.2116,-288.1617C1200.0423,-279.8949 127.3904,-241.658 28.5,-132 12.4198,-114.1689 38.5229,-89.2258 55.9224,-75.6815"/>
<polygon fill="#191970" stroke="#191970" points="1485.3235,-291.6662 1495.4198,-288.4545 1485.5243,-284.6691 1485.3235,-291.6662"/>
</g>
<!-- Node25 -->
<g id="node23" class="node">
<title>Node25</title>
<g id="a_node23"><a xlink:href="_s_l_scene_view_8h.html" target="_top" xlink:title=" ">
<polygon fill="#ffffff" stroke="#000000" points="1253,-56.5 1253,-75.5 1340,-75.5 1340,-56.5 1253,-56.5"/>
<text text-anchor="middle" x="1296.5" y="-63.5" font-family="Arial.ttf" font-size="10.00" fill="#000000">SLSceneView.h</text>
</a>
</g>
</g>
<!-- Node1&#45;&gt;Node25 -->
<g id="edge69" class="edge">
<title>Node1&#45;&gt;Node25</title>
<path fill="none" stroke="#191970" d="M1523.297,-276.1703C1485.9428,-258.7583 1422.5417,-226.4278 1375.5,-188 1349.8878,-167.0777 1344.4224,-159.7942 1326.5,-132 1314.4951,-113.3827 1304.8172,-89.1689 1299.9409,-75.8533"/>
<polygon fill="#191970" stroke="#191970" points="1522.1091,-279.4764 1532.6568,-280.4745 1525.0337,-273.1166 1522.1091,-279.4764"/>
</g>
<!-- Node109 -->
<g id="node39" class="node">
<title>Node109</title>
<g id="a_node39"><a xlink:href="_s_l_g_l_vertex_array_ext_8cpp.html" target="_top" xlink:title=" ">
<polygon fill="#ffffff" stroke="#000000" points="1893.5,-224.5 1893.5,-243.5 2021.5,-243.5 2021.5,-224.5 1893.5,-224.5"/>
<text text-anchor="middle" x="1957.5" y="-231.5" font-family="Arial.ttf" font-size="10.00" fill="#000000">SLGLVertexArrayExt.cpp</text>
</a>
</g>
</g>
<!-- Node1&#45;&gt;Node109 -->
<g id="edge45" class="edge">
<title>Node1&#45;&gt;Node109</title>
<path fill="none" stroke="#191970" d="M1623.4432,-280.4198C1699.1058,-269.9059 1819.591,-253.1635 1893.3107,-242.9196"/>
<polygon fill="#191970" stroke="#191970" points="1622.9543,-276.954 1613.5313,-281.7971 1623.9178,-283.8874 1622.9543,-276.954"/>
</g>
<!-- Node110 -->
<g id="node40" class="node">
<title>Node110</title>
<g id="a_node40"><a xlink:href="_s_l_curve_bezier_8h.html" target="_top" xlink:title=" ">
<polygon fill="#ffffff" stroke="#000000" points="1783.5,-224.5 1783.5,-243.5 1875.5,-243.5 1875.5,-224.5 1783.5,-224.5"/>
<text text-anchor="middle" x="1829.5" y="-231.5" font-family="Arial.ttf" font-size="10.00" fill="#000000">SLCurveBezier.h</text>
</a>
</g>
</g>
<!-- Node1&#45;&gt;Node110 -->
<g id="edge46" class="edge">
<title>Node1&#45;&gt;Node110</title>
<path fill="none" stroke="#191970" d="M1611.3154,-278.4303C1662.1757,-268.0733 1735.827,-253.0752 1783.1907,-243.4303"/>
<polygon fill="#191970" stroke="#191970" points="1610.5622,-275.0118 1601.4617,-280.4369 1611.959,-281.871 1610.5622,-275.0118"/>
</g>
<!-- Node111 -->
<g id="node43" class="node">
<title>Node111</title>
<g id="a_node43"><a xlink:href="_s_l_rect_8h.html" target="_top" xlink:title=" ">
<polygon fill="#ffffff" stroke="#000000" points="1497.5,-224.5 1497.5,-243.5 1555.5,-243.5 1555.5,-224.5 1497.5,-224.5"/>
<text text-anchor="middle" x="1526.5" y="-231.5" font-family="Arial.ttf" font-size="10.00" fill="#000000">SLRect.h</text>
</a>
</g>
</g>
<!-- Node1&#45;&gt;Node111 -->
<g id="edge50" class="edge">
<title>Node1&#45;&gt;Node111</title>
<path fill="none" stroke="#191970" d="M1545.0219,-271.0437C1540.4165,-261.8331 1535.0799,-251.1598 1531.3213,-243.6427"/>
<polygon fill="#191970" stroke="#191970" points="1542.0201,-272.8665 1549.6228,-280.2455 1548.2811,-269.736 1542.0201,-272.8665"/>
</g>
<!-- Node78 -->
<g id="node46" class="node">
<title>Node78</title>
<g id="a_node46"><a xlink:href="_s_l_camera_8h.html" target="_top" xlink:title=" ">
<polygon fill="#ffffff" stroke="#000000" points="1598,-168.5 1598,-187.5 1671,-187.5 1671,-168.5 1598,-168.5"/>
<text text-anchor="middle" x="1634.5" y="-175.5" font-family="Arial.ttf" font-size="10.00" fill="#000000">SLCamera.h</text>
</a>
</g>
</g>
<!-- Node1&#45;&gt;Node78 -->
<g id="edge68" class="edge">
<title>Node1&#45;&gt;Node78</title>
<path fill="none" stroke="#191970" d="M1567.2064,-272.2111C1584.3579,-248.1989 1614.3086,-206.2679 1627.6965,-187.5249"/>
<polygon fill="#191970" stroke="#191970" points="1564.2851,-270.2792 1561.3208,-280.4509 1569.9813,-274.3479 1564.2851,-270.2792"/>
</g>
<!-- Node106 -->
<g id="node50" class="node">
<title>Node106</title>
<g id="a_node50"><a xlink:href="_s_l_shadow_map_8cpp.html" target="_top" xlink:title=" ">
<polygon fill="#ffffff" stroke="#000000" points="2040,-224.5 2040,-243.5 2143,-243.5 2143,-224.5 2040,-224.5"/>
<text text-anchor="middle" x="2091.5" y="-231.5" font-family="Arial.ttf" font-size="10.00" fill="#000000">SLShadowMap.cpp</text>
</a>
</g>
</g>
<!-- Node1&#45;&gt;Node106 -->
<g id="edge70" class="edge">
<title>Node1&#45;&gt;Node106</title>
<path fill="none" stroke="#191970" d="M1623.7427,-284.7532C1716.5371,-277.3918 1886.2726,-262.77 2030.5,-244 2033.5862,-243.5984 2036.7559,-243.1594 2039.9507,-242.6967"/>
<polygon fill="#191970" stroke="#191970" points="1623.3304,-281.2747 1613.6366,-285.5503 1623.8809,-288.2531 1623.3304,-281.2747"/>
</g>
<!-- Node3 -->
<g id="node3" class="node">
<title>Node3</title>
<g id="a_node3"><a xlink:href="_s_l_a_a_b_box_8cpp.html" target="_top" xlink:title=" ">
<polygon fill="#ffffff" stroke="#000000" points="1161,-168.5 1161,-187.5 1246,-187.5 1246,-168.5 1161,-168.5"/>
<text text-anchor="middle" x="1203.5" y="-175.5" font-family="Arial.ttf" font-size="10.00" fill="#000000">SLAABBox.cpp</text>
</a>
</g>
</g>
<!-- Node2&#45;&gt;Node3 -->
<g id="edge2" class="edge">
<title>Node2&#45;&gt;Node3</title>
<path fill="none" stroke="#191970" d="M1217.9372,-214.7493C1214.3454,-205.6064 1210.2099,-195.0798 1207.2882,-187.6427"/>
<polygon fill="#191970" stroke="#191970" points="1214.7537,-216.2178 1221.6679,-224.2455 1221.2689,-213.6582 1214.7537,-216.2178"/>
</g>
<!-- Node4 -->
<g id="node4" class="node">
<title>Node4</title>
<g id="a_node4"><a xlink:href="_s_l_mesh_8h.html" target="_top" xlink:title=" ">
<polygon fill="#ffffff" stroke="#ff0000" points="578.5,-168.5 578.5,-187.5 640.5,-187.5 640.5,-168.5 578.5,-168.5"/>
<text text-anchor="middle" x="609.5" y="-175.5" font-family="Arial.ttf" font-size="10.00" fill="#000000">SLMesh.h</text>
</a>
</g>
</g>
<!-- Node2&#45;&gt;Node4 -->
<g id="edge3" class="edge">
<title>Node2&#45;&gt;Node4</title>
<path fill="none" stroke="#191970" d="M1178.3306,-229.7119C1057.8672,-218.7607 741.3066,-189.9824 640.6801,-180.8346"/>
<polygon fill="#191970" stroke="#191970" points="1178.0778,-233.2032 1188.3537,-230.6231 1178.7116,-226.232 1178.0778,-233.2032"/>
</g>
<!-- Node2&#45;&gt;Node25 -->
<g id="edge24" class="edge">
<title>Node2&#45;&gt;Node25</title>
<path fill="none" stroke="#191970" d="M1238.8958,-215.8084C1244.5334,-207.597 1250.8496,-197.6012 1255.5,-188 1274.7859,-148.1824 1288.7654,-96.9766 1294.1098,-75.8178"/>
<polygon fill="#191970" stroke="#191970" points="1235.8716,-214.0225 1232.9442,-224.2049 1241.5825,-218.0705 1235.8716,-214.0225"/>
</g>
<!-- Node5 -->
<g id="node5" class="node">
<title>Node5</title>
<g id="a_node5"><a xlink:href="_s_l_accel_struct_8h.html" target="_top" xlink:title=" ">
<polygon fill="#ffffff" stroke="#000000" points="37.5,-112.5 37.5,-131.5 125.5,-131.5 125.5,-112.5 37.5,-112.5"/>
<text text-anchor="middle" x="81.5" y="-119.5" font-family="Arial.ttf" font-size="10.00" fill="#000000">SLAccelStruct.h</text>
</a>
</g>
</g>
<!-- Node4&#45;&gt;Node5 -->
<g id="edge4" class="edge">
<title>Node4&#45;&gt;Node5</title>
<path fill="none" stroke="#191970" d="M568.1858,-174.9786C486.2207,-168.7586 297.3178,-153.2989 139.5,-132 135.0445,-131.3987 130.4071,-130.7087 125.7821,-129.9782"/>
<polygon fill="#191970" stroke="#191970" points="568.1014,-178.482 578.336,-175.7429 568.6271,-171.5018 568.1014,-178.482"/>
</g>
<!-- Node8 -->
<g id="node8" class="node">
<title>Node8</title>
<g id="a_node8"><a xlink:href="_s_l_mesh_8cpp.html" target="_top" xlink:title=" ">
<polygon fill="#ffffff" stroke="#000000" points="125.5,-.5 125.5,-19.5 197.5,-19.5 197.5,-.5 125.5,-.5"/>
<text text-anchor="middle" x="161.5" y="-7.5" font-family="Arial.ttf" font-size="10.00" fill="#000000">SLMesh.cpp</text>
</a>
</g>
</g>
<!-- Node4&#45;&gt;Node8 -->
<g id="edge18" class="edge">
<title>Node4&#45;&gt;Node8</title>
<path fill="none" stroke="#191970" d="M568.3201,-176.5923C464.8033,-172.6499 199.9979,-159.9122 172.5,-132 142.2027,-101.2461 153.0382,-42.5524 158.8234,-19.5678"/>
<polygon fill="#191970" stroke="#191970" points="568.2753,-180.093 578.3986,-176.9676 568.5358,-173.0978 568.2753,-180.093"/>
</g>
<!-- Node9 -->
<g id="node9" class="node">
<title>Node9</title>
<g id="a_node9"><a xlink:href="_s_l_asset_manager_8h.html" target="_top" xlink:title=" ">
<polygon fill="#ffffff" stroke="#ff0000" points="926.5,-112.5 926.5,-131.5 1028.5,-131.5 1028.5,-112.5 926.5,-112.5"/>
<text text-anchor="middle" x="977.5" y="-119.5" font-family="Arial.ttf" font-size="10.00" fill="#000000">SLAssetManager.h</text>
</a>
</g>
</g>
<!-- Node4&#45;&gt;Node9 -->
<g id="edge8" class="edge">
<title>Node4&#45;&gt;Node9</title>
<path fill="none" stroke="#191970" d="M650.8455,-171.7497C709.1796,-162.9251 818.9717,-146.294 912.5,-132 917.0146,-131.31 921.7053,-130.5915 926.4068,-129.8703"/>
<polygon fill="#191970" stroke="#191970" points="650.2733,-168.2963 640.9093,-173.2526 651.3203,-175.2176 650.2733,-168.2963"/>
</g>
<!-- Node18 -->
<g id="node12" class="node">
<title>Node18</title>
<g id="a_node12"><a xlink:href="_s_l_importer_8h.html" target="_top" xlink:title=" ">
<polygon fill="#ffffff" stroke="#ff0000" points="181.5,-112.5 181.5,-131.5 255.5,-131.5 255.5,-112.5 181.5,-112.5"/>
<text text-anchor="middle" x="218.5" y="-119.5" font-family="Arial.ttf" font-size="10.00" fill="#000000">SLImporter.h</text>
</a>
</g>
</g>
<!-- Node4&#45;&gt;Node18 -->
<g id="edge12" class="edge">
<title>Node4&#45;&gt;Node18</title>
<path fill="none" stroke="#191970" d="M567.8523,-173.4755C502.9988,-166.1949 374.0454,-150.7763 265.5,-132 262.2941,-131.4454 258.9742,-130.8278 255.6494,-130.1791"/>
<polygon fill="#191970" stroke="#191970" points="567.7467,-176.9853 578.0729,-174.6149 568.5223,-170.0284 567.7467,-176.9853"/>
</g>
<!-- Node22 -->
<g id="node13" class="node">
<title>Node22</title>
<g id="a_node13"><a xlink:href="_s_l_box_8h.html" target="_top" xlink:title=" ">
<polygon fill="#ffffff" stroke="#ff0000" points="320.5,-56.5 320.5,-75.5 374.5,-75.5 374.5,-56.5 320.5,-56.5"/>
<text text-anchor="middle" x="347.5" y="-63.5" font-family="Arial.ttf" font-size="10.00" fill="#000000">SLBox.h</text>
</a>
</g>
</g>
<!-- Node4&#45;&gt;Node22 -->
<g id="edge13" class="edge">
<title>Node4&#45;&gt;Node22</title>
<path fill="none" stroke="#191970" d="M650.9041,-175.9033C711.0052,-171.8954 817.8388,-160.8133 841.5,-132 847.1412,-125.1305 847.4869,-118.5703 841.5,-112 825.6367,-94.5909 476.186,-73.3465 374.8263,-67.5326"/>
<polygon fill="#191970" stroke="#191970" points="650.3723,-172.4298 640.6119,-176.551 650.812,-179.4159 650.3723,-172.4298"/>
</g>
<!-- Node44 -->
<g id="node15" class="node">
<title>Node44</title>
<g id="a_node15"><a xlink:href="_s_l_coord_axis_8h.html" target="_top" xlink:title=" ">
<polygon fill="#ffffff" stroke="#ff0000" points="274,-112.5 274,-131.5 357,-131.5 357,-112.5 274,-112.5"/>
<text text-anchor="middle" x="315.5" y="-119.5" font-family="Arial.ttf" font-size="10.00" fill="#000000">SLCoordAxis.h</text>
</a>
</g>
</g>
<!-- Node4&#45;&gt;Node44 -->
<g id="edge15" class="edge">
<title>Node4&#45;&gt;Node44</title>
<path fill="none" stroke="#191970" d="M568.3472,-170.2946C520.0058,-161.2235 437.3987,-145.6613 366.5,-132 363.4877,-131.4196 360.3759,-130.8169 357.2442,-130.2082"/>
<polygon fill="#191970" stroke="#191970" points="567.9429,-173.7797 578.4168,-172.1832 569.2334,-166.8997 567.9429,-173.7797"/>
</g>
<!-- Node46 -->
<g id="node16" class="node">
<title>Node46</title>
<g id="a_node16"><a xlink:href="_s_l_coord_axis_arrow_8h.html" target="_top" xlink:title=" ">
<polygon fill="#ffffff" stroke="#ff0000" points="375,-112.5 375,-131.5 484,-131.5 484,-112.5 375,-112.5"/>
<text text-anchor="middle" x="429.5" y="-119.5" font-family="Arial.ttf" font-size="10.00" fill="#000000">SLCoordAxisArrow.h</text>
</a>
</g>
</g>
<!-- Node4&#45;&gt;Node46 -->
<g id="edge16" class="edge">
<title>Node4&#45;&gt;Node46</title>
<path fill="none" stroke="#191970" d="M568.7541,-165.3235C535.7437,-155.0536 489.9583,-140.8093 460.0393,-131.5011"/>
<polygon fill="#191970" stroke="#191970" points="567.9686,-168.7445 578.5569,-168.3733 570.0481,-162.0605 567.9686,-168.7445"/>
</g>
<!-- Node48 -->
<g id="node17" class="node">
<title>Node48</title>
<g id="a_node17"><a xlink:href="_s_l_grid_8h.html" target="_top" xlink:title=" ">
<polygon fill="#ffffff" stroke="#ff0000" points="502.5,-112.5 502.5,-131.5 558.5,-131.5 558.5,-112.5 502.5,-112.5"/>
<text text-anchor="middle" x="530.5" y="-119.5" font-family="Arial.ttf" font-size="10.00" fill="#000000">SLGrid.h</text>
</a>
</g>
</g>
<!-- Node4&#45;&gt;Node48 -->
<g id="edge17" class="edge">
<title>Node4&#45;&gt;Node48</title>
<path fill="none" stroke="#191970" d="M587.2244,-162.2097C573.3495,-152.3743 555.9485,-140.0394 544.1031,-131.6427"/>
<polygon fill="#191970" stroke="#191970" points="585.5569,-165.3178 595.7393,-168.2455 589.6051,-159.6071 585.5569,-165.3178"/>
</g>
<!-- Node50 -->
<g id="node18" class="node">
<title>Node50</title>
<g id="a_node18"><a xlink:href="_s_l_points_8h.html" target="_top" xlink:title=" ">
<polygon fill="#ffffff" stroke="#ff0000" points="577,-112.5 577,-131.5 642,-131.5 642,-112.5 577,-112.5"/>
<text text-anchor="middle" x="609.5" y="-119.5" font-family="Arial.ttf" font-size="10.00" fill="#000000">SLPoints.h</text>
</a>
</g>
</g>
<!-- Node4&#45;&gt;Node50 -->
<g id="edge19" class="edge">
<title>Node4&#45;&gt;Node50</title>
<path fill="none" stroke="#191970" d="M609.5,-158.1575C609.5,-149.155 609.5,-138.9199 609.5,-131.6427"/>
<polygon fill="#191970" stroke="#191970" points="606.0001,-158.2455 609.5,-168.2455 613.0001,-158.2456 606.0001,-158.2455"/>
</g>
<!-- Node52 -->
<g id="node19" class="node">
<title>Node52</title>
<g id="a_node19"><a xlink:href="_s_l_polygon_8h.html" target="_top" xlink:title=" ">
<polygon fill="#ffffff" stroke="#ff0000" points="757,-56.5 757,-75.5 830,-75.5 830,-56.5 757,-56.5"/>
<text text-anchor="middle" x="793.5" y="-63.5" font-family="Arial.ttf" font-size="10.00" fill="#000000">SLPolygon.h</text>
</a>
</g>
</g>
<!-- Node4&#45;&gt;Node52 -->
<g id="edge20" class="edge">
<title>Node4&#45;&gt;Node52</title>
<path fill="none" stroke="#191970" d="M650.7549,-177.0569C717.9533,-174.5535 846.3922,-165.4073 874.5,-132 894.2365,-108.5424 852.6144,-87.2929 822.0449,-75.5592"/>
<polygon fill="#191970" stroke="#191970" points="650.396,-173.567 640.5206,-177.4044 650.6336,-180.563 650.396,-173.567"/>
</g>
<!-- Node54 -->
<g id="node21" class="node">
<title>Node54</title>
<g id="a_node21"><a xlink:href="_s_l_polyline_8h.html" target="_top" xlink:title=" ">
<polygon fill="#ffffff" stroke="#ff0000" points="660.5,-112.5 660.5,-131.5 732.5,-131.5 732.5,-112.5 660.5,-112.5"/>
<text text-anchor="middle" x="696.5" y="-119.5" font-family="Arial.ttf" font-size="10.00" fill="#000000">SLPolyline.h</text>
</a>
</g>
</g>
<!-- Node4&#45;&gt;Node54 -->
<g id="edge22" class="edge">
<title>Node4&#45;&gt;Node54</title>
<path fill="none" stroke="#191970" d="M633.1625,-162.769C648.5791,-152.8456 668.226,-140.1994 681.5194,-131.6427"/>
<polygon fill="#191970" stroke="#191970" points="631.1685,-159.89 624.6542,-168.2455 634.9573,-165.7761 631.1685,-159.89"/>
</g>
<!-- Node59 -->
<g id="node22" class="node">
<title>Node59</title>
<g id="a_node22"><a xlink:href="_s_l_rectangle_8h.html" target="_top" xlink:title=" ">
<polygon fill="#ffffff" stroke="#ff0000" points="750.5,-112.5 750.5,-131.5 832.5,-131.5 832.5,-112.5 750.5,-112.5"/>
<text text-anchor="middle" x="791.5" y="-119.5" font-family="Arial.ttf" font-size="10.00" fill="#000000">SLRectangle.h</text>
</a>
</g>
</g>
<!-- Node4&#45;&gt;Node59 -->
<g id="edge23" class="edge">
<title>Node4&#45;&gt;Node59</title>
<path fill="none" stroke="#191970" d="M650.6986,-165.3235C684.0758,-155.0536 730.3699,-140.8093 760.6214,-131.5011"/>
<polygon fill="#191970" stroke="#191970" points="649.3154,-162.0871 640.7869,-168.3733 651.374,-168.7776 649.3154,-162.0871"/>
</g>
<!-- Node5&#45;&gt;Node6 -->
<g id="edge5" class="edge">
<title>Node5&#45;&gt;Node6</title>
<path fill="none" stroke="#191970" d="M77.3115,-102.4538C75.3672,-93.3803 73.1428,-82.9998 71.5663,-75.6427"/>
<polygon fill="#191970" stroke="#191970" points="73.8921,-103.2009 79.4098,-112.2455 80.7367,-101.7341 73.8921,-103.2009"/>
</g>
<!-- Node7 -->
<g id="node7" class="node">
<title>Node7</title>
<g id="a_node7"><a xlink:href="_s_l_compact_grid_8cpp.html" target="_top" xlink:title=" ">
<polygon fill="#ffffff" stroke="#000000" points="0,-.5 0,-19.5 107,-19.5 107,-.5 0,-.5"/>
<text text-anchor="middle" x="53.5" y="-7.5" font-family="Arial.ttf" font-size="10.00" fill="#000000">SLCompactGrid.cpp</text>
</a>
</g>
</g>
<!-- Node6&#45;&gt;Node7 -->
<g id="edge6" class="edge">
<title>Node6&#45;&gt;Node7</title>
<path fill="none" stroke="#191970" d="M63.9154,-46.4538C61.323,-37.3803 58.3571,-26.9998 56.255,-19.6427"/>
<polygon fill="#191970" stroke="#191970" points="60.6004,-47.5919 66.713,-56.2455 67.3311,-45.6688 60.6004,-47.5919"/>
</g>
<!-- Node6&#45;&gt;Node8 -->
<g id="edge7" class="edge">
<title>Node6&#45;&gt;Node8</title>
<path fill="none" stroke="#191970" d="M94.5224,-50.769C110.825,-40.8456 131.601,-28.1994 145.6585,-19.6427"/>
<polygon fill="#191970" stroke="#191970" points="92.2473,-48.0563 85.5252,-56.2455 95.887,-54.0357 92.2473,-48.0563"/>
</g>
<!-- Node9&#45;&gt;Node8 -->
<g id="edge10" class="edge">
<title>Node9&#45;&gt;Node8</title>
<path fill="none" stroke="#191970" d="M916.0628,-115.7126C785.0936,-101.9061 468.9603,-66.4324 206.5,-20 203.6629,-19.4981 200.7339,-18.9396 197.7949,-18.3503"/>
<polygon fill="#191970" stroke="#191970" points="915.9803,-119.2231 926.2911,-116.7864 916.7113,-112.2614 915.9803,-119.2231"/>
</g>
<!-- Node11 -->
<g id="node10" class="node">
<title>Node11</title>
<g id="a_node10"><a xlink:href="_s_l_g_l_program_generated_8cpp.html" target="_top" xlink:title=" ">
<polygon fill="#ffffff" stroke="#000000" points="968,-56.5 968,-75.5 1115,-75.5 1115,-56.5 968,-56.5"/>
<text text-anchor="middle" x="1041.5" y="-63.5" font-family="Arial.ttf" font-size="10.00" fill="#000000">SLGLProgramGenerated.cpp</text>
</a>
</g>
</g>
<!-- Node9&#45;&gt;Node11 -->
<g id="edge9" class="edge">
<title>Node9&#45;&gt;Node11</title>
<path fill="none" stroke="#191970" d="M996.1914,-105.645C1007.3219,-95.9058 1021.0663,-83.8795 1030.4798,-75.6427"/>
<polygon fill="#191970" stroke="#191970" points="993.869,-103.0264 988.6479,-112.2455 998.4785,-108.2945 993.869,-103.0264"/>
</g>
<!-- Node16 -->
<g id="node11" class="node">
<title>Node16</title>
<g id="a_node11"><a xlink:href="_s_l_material_8cpp.html" target="_top" xlink:title=" ">
<polygon fill="#ffffff" stroke="#000000" points="422,-.5 422,-19.5 505,-19.5 505,-.5 422,-.5"/>
<text text-anchor="middle" x="463.5" y="-7.5" font-family="Arial.ttf" font-size="10.00" fill="#000000">SLMaterial.cpp</text>
</a>
</g>
</g>
<!-- Node9&#45;&gt;Node16 -->
<g id="edge11" class="edge">
<title>Node9&#45;&gt;Node16</title>
<path fill="none" stroke="#191970" d="M953.3588,-107.3574C926.5609,-91.8557 881.531,-68.0049 839.5,-56 699.7603,-16.0875 658.1529,-42.0007 514.5,-20 511.4676,-19.5356 508.3411,-19.0181 505.199,-18.4699"/>
<polygon fill="#191970" stroke="#191970" points="951.6473,-110.4112 962.0424,-112.4592 955.1933,-104.3758 951.6473,-110.4112"/>
</g>
<!-- Node36 -->
<g id="node14" class="node">
<title>Node36</title>
<g id="a_node14"><a xlink:href="_s_l_skybox_8cpp.html" target="_top" xlink:title=" ">
<polygon fill="#ffffff" stroke="#000000" points="215.5,-.5 215.5,-19.5 295.5,-19.5 295.5,-.5 215.5,-.5"/>
<text text-anchor="middle" x="255.5" y="-7.5" font-family="Arial.ttf" font-size="10.00" fill="#000000">SLSkybox.cpp</text>
</a>
</g>
</g>
<!-- Node22&#45;&gt;Node36 -->
<g id="edge14" class="edge">
<title>Node22&#45;&gt;Node36</title>
<path fill="none" stroke="#191970" d="M322.4776,-50.769C306.175,-40.8456 285.399,-28.1994 271.3415,-19.6427"/>
<polygon fill="#191970" stroke="#191970" points="321.113,-54.0357 331.4748,-56.2455 324.7527,-48.0563 321.113,-54.0357"/>
</g>
<!-- Node33 -->
<g id="node20" class="node">
<title>Node33</title>
<g id="a_node20"><a xlink:href="_s_l_light_rect_8cpp.html" target="_top" xlink:title=" ">
<polygon fill="#ffffff" stroke="#000000" points="313.5,-.5 313.5,-19.5 403.5,-19.5 403.5,-.5 313.5,-.5"/>
<text text-anchor="middle" x="358.5" y="-7.5" font-family="Arial.ttf" font-size="10.00" fill="#000000">SLLightRect.cpp</text>
</a>
</g>
</g>
<!-- Node52&#45;&gt;Node33 -->
<g id="edge21" class="edge">
<title>Node52&#45;&gt;Node33</title>
<path fill="none" stroke="#191970" d="M746.9152,-61.2619C675.1431,-53.7589 533.2724,-38.1214 413.5,-20 410.3333,-19.5209 407.0692,-18.9991 403.7852,-18.4537"/>
<polygon fill="#191970" stroke="#191970" points="746.6765,-64.7559 756.9849,-62.3092 747.4007,-57.7934 746.6765,-64.7559"/>
</g>
<!-- Node25&#45;&gt;Node8 -->
<g id="edge30" class="edge">
<title>Node25&#45;&gt;Node8</title>
<path fill="none" stroke="#191970" d="M1242.5279,-62.6C1208.6444,-60.5305 1164.0299,-57.924 1124.5,-56 716.6692,-36.1495 611.4245,-72.4991 206.5,-20 203.6428,-19.6296 200.6993,-19.1656 197.7503,-18.6416"/>
<polygon fill="#191970" stroke="#191970" points="1242.4857,-66.1039 1252.6815,-63.2237 1242.9149,-59.1171 1242.4857,-66.1039"/>
</g>
<!-- Node25&#45;&gt;Node16 -->
<g id="edge42" class="edge">
<title>Node25&#45;&gt;Node16</title>
<path fill="none" stroke="#191970" d="M1242.719,-62.8603C1066.7362,-52.5836 519.0291,-20.5746 514.5,-20 511.4567,-19.6139 508.3221,-19.154 505.1742,-18.6466"/>
<polygon fill="#191970" stroke="#191970" points="1242.599,-66.3592 1252.7861,-63.4482 1243.0072,-59.3711 1242.599,-66.3592"/>
</g>
<!-- Node25&#45;&gt;Node36 -->
<g id="edge37" class="edge">
<title>Node25&#45;&gt;Node36</title>
<path fill="none" stroke="#191970" d="M1242.5247,-62.6648C1208.6399,-60.6199 1164.0253,-58.0165 1124.5,-56 760.1783,-37.4129 666.5575,-64.6104 304.5,-20 301.5702,-19.639 298.5543,-19.1975 295.5268,-18.7033"/>
<polygon fill="#191970" stroke="#191970" points="1242.4852,-66.1687 1252.6786,-63.2802 1242.9087,-59.1815 1242.4852,-66.1687"/>
</g>
<!-- Node25&#45;&gt;Node33 -->
<g id="edge34" class="edge">
<title>Node25&#45;&gt;Node33</title>
<path fill="none" stroke="#191970" d="M1242.5198,-62.7577C1208.6331,-60.7481 1164.0183,-58.1492 1124.5,-56 808.5621,-38.8176 727.8068,-56.3761 413.5,-20 410.3185,-19.6318 407.0434,-19.1924 403.7515,-18.7062"/>
<polygon fill="#191970" stroke="#191970" points="1242.4843,-66.2617 1252.6744,-63.3613 1242.8997,-59.274 1242.4843,-66.2617"/>
</g>
<!-- Node26 -->
<g id="node24" class="node">
<title>Node26</title>
<g id="a_node24"><a xlink:href="_s_l_anim_skeleton_8cpp.html" target="_top" xlink:title=" ">
<polygon fill="#ffffff" stroke="#000000" points="840,-.5 840,-19.5 949,-19.5 949,-.5 840,-.5"/>
<text text-anchor="middle" x="894.5" y="-7.5" font-family="Arial.ttf" font-size="10.00" fill="#000000">SLAnimSkeleton.cpp</text>
</a>
</g>
</g>
<!-- Node25&#45;&gt;Node26 -->
<g id="edge25" class="edge">
<title>Node25&#45;&gt;Node26</title>
<path fill="none" stroke="#191970" d="M1242.7107,-59.0125C1175.9839,-50.2676 1058.7608,-34.6539 958.5,-20 955.4955,-19.5609 952.4129,-19.1031 949.302,-18.6356"/>
<polygon fill="#191970" stroke="#191970" points="1242.6064,-62.5286 1252.9761,-60.3558 1243.5148,-55.5878 1242.6064,-62.5286"/>
</g>
<!-- Node27 -->
<g id="node25" class="node">
<title>Node27</title>
<g id="a_node25"><a xlink:href="_s_l_anim_track_8cpp.html" target="_top" xlink:title=" ">
<polygon fill="#ffffff" stroke="#000000" points="2114,-.5 2114,-19.5 2209,-19.5 2209,-.5 2114,-.5"/>
<text text-anchor="middle" x="2161.5" y="-7.5" font-family="Arial.ttf" font-size="10.00" fill="#000000">SLAnimTrack.cpp</text>
</a>
</g>
</g>
<!-- Node25&#45;&gt;Node27 -->
<g id="edge26" class="edge">
<title>Node25&#45;&gt;Node27</title>
<path fill="none" stroke="#191970" d="M1350.0869,-65.1104C1479.9248,-62.4851 1821.5042,-52.7663 2104.5,-20 2107.5939,-19.6418 2110.7743,-19.2237 2113.9749,-18.7654"/>
<polygon fill="#191970" stroke="#191970" points="1349.9389,-61.6125 1340.0096,-65.3084 1350.0764,-68.6112 1349.9389,-61.6125"/>
</g>
<!-- Node24 -->
<g id="node26" class="node">
<title>Node24</title>
<g id="a_node26"><a xlink:href="_s_l_g_l_conetracer_8cpp.html" target="_top" xlink:title=" ">
<polygon fill="#ffffff" stroke="#000000" points="967.5,-.5 967.5,-19.5 1077.5,-19.5 1077.5,-.5 967.5,-.5"/>
<text text-anchor="middle" x="1022.5" y="-7.5" font-family="Arial.ttf" font-size="10.00" fill="#000000">SLGLConetracer.cpp</text>
</a>
</g>
</g>
<!-- Node25&#45;&gt;Node24 -->
<g id="edge27" class="edge">
<title>Node25&#45;&gt;Node24</title>
<path fill="none" stroke="#191970" d="M1242.7024,-55.0049C1192.1842,-44.68 1117.371,-29.3897 1069.2739,-19.5596"/>
<polygon fill="#191970" stroke="#191970" points="1242.2826,-58.4913 1252.7809,-57.0647 1243.6843,-51.6331 1242.2826,-58.4913"/>
</g>
<!-- Node28 -->
<g id="node27" class="node">
<title>Node28</title>
<g id="a_node27"><a xlink:href="_s_l_g_l_im_gui_8cpp.html" target="_top" xlink:title=" ">
<polygon fill="#ffffff" stroke="#000000" points="1545.5,-.5 1545.5,-19.5 1633.5,-19.5 1633.5,-.5 1545.5,-.5"/>
<text text-anchor="middle" x="1589.5" y="-7.5" font-family="Arial.ttf" font-size="10.00" fill="#000000">SLGLImGui.cpp</text>
</a>
</g>
</g>
<!-- Node25&#45;&gt;Node28 -->
<g id="edge28" class="edge">
<title>Node25&#45;&gt;Node28</title>
<path fill="none" stroke="#191970" d="M1350.1341,-55.7491C1406.15,-45.043 1492.9864,-28.4463 1545.232,-18.4608"/>
<polygon fill="#191970" stroke="#191970" points="1349.2138,-52.3616 1340.0487,-57.6767 1350.528,-59.2371 1349.2138,-52.3616"/>
</g>
<!-- Node29 -->
<g id="node28" class="node">
<title>Node29</title>
<g id="a_node28"><a xlink:href="_s_l_input_manager_8cpp.html" target="_top" xlink:title=" ">
<polygon fill="#ffffff" stroke="#000000" points="1096,-.5 1096,-19.5 1205,-19.5 1205,-.5 1096,-.5"/>
<text text-anchor="middle" x="1150.5" y="-7.5" font-family="Arial.ttf" font-size="10.00" fill="#000000">SLInputManager.cpp</text>
</a>
</g>
</g>
<!-- Node25&#45;&gt;Node29 -->
<g id="edge29" class="edge">
<title>Node25&#45;&gt;Node29</title>
<path fill="none" stroke="#191970" d="M1262.0565,-52.7888C1235.3987,-42.5639 1199.12,-28.6488 1175.2708,-19.5011"/>
<polygon fill="#191970" stroke="#191970" points="1260.8115,-56.0598 1271.4017,-56.3733 1263.3184,-49.5241 1260.8115,-56.0598"/>
</g>
<!-- Node30 -->
<g id="node29" class="node">
<title>Node30</title>
<g id="a_node29"><a xlink:href="_s_l_camera_8cpp.html" target="_top" xlink:title=" ">
<polygon fill="#ffffff" stroke="#000000" points="1223,-.5 1223,-19.5 1306,-19.5 1306,-.5 1223,-.5"/>
<text text-anchor="middle" x="1264.5" y="-7.5" font-family="Arial.ttf" font-size="10.00" fill="#000000">SLCamera.cpp</text>
</a>
</g>
</g>
<!-- Node25&#45;&gt;Node30 -->
<g id="edge31" class="edge">
<title>Node25&#45;&gt;Node30</title>
<path fill="none" stroke="#191970" d="M1285.8355,-47.3372C1280.5346,-38.0605 1274.3513,-27.2398 1270.0101,-19.6427"/>
<polygon fill="#191970" stroke="#191970" points="1282.9257,-49.2996 1290.926,-56.2455 1289.0034,-45.8266 1282.9257,-49.2996"/>
</g>
<!-- Node31 -->
<g id="node30" class="node">
<title>Node31</title>
<g id="a_node30"><a xlink:href="_s_l_keyframe_camera_8cpp.html" target="_top" xlink:title=" ">
<polygon fill="#ffffff" stroke="#000000" points="1763.5,-.5 1763.5,-19.5 1889.5,-19.5 1889.5,-.5 1763.5,-.5"/>
<text text-anchor="middle" x="1826.5" y="-7.5" font-family="Arial.ttf" font-size="10.00" fill="#000000">SLKeyframeCamera.cpp</text>
</a>
</g>
</g>
<!-- Node25&#45;&gt;Node31 -->
<g id="edge32" class="edge">
<title>Node25&#45;&gt;Node31</title>
<path fill="none" stroke="#191970" d="M1350.1331,-61.2776C1435.7344,-53.5909 1608.4837,-37.4664 1754.5,-20 1757.3821,-19.6553 1760.3274,-19.2917 1763.3014,-18.9156"/>
<polygon fill="#191970" stroke="#191970" points="1349.7817,-57.795 1340.1336,-62.1727 1350.4058,-64.7671 1349.7817,-57.795"/>
</g>
<!-- Node32 -->
<g id="node31" class="node">
<title>Node32</title>
<g id="a_node31"><a xlink:href="_s_l_light_direct_8cpp.html" target="_top" xlink:title=" ">
<polygon fill="#ffffff" stroke="#000000" points="1324,-.5 1324,-19.5 1419,-19.5 1419,-.5 1324,-.5"/>
<text text-anchor="middle" x="1371.5" y="-7.5" font-family="Arial.ttf" font-size="10.00" fill="#000000">SLLightDirect.cpp</text>
</a>
</g>
</g>
<!-- Node25&#45;&gt;Node32 -->
<g id="edge33" class="edge">
<title>Node25&#45;&gt;Node32</title>
<path fill="none" stroke="#191970" d="M1317.6477,-50.2097C1330.8201,-40.3743 1347.34,-28.0394 1358.5857,-19.6427"/>
<polygon fill="#191970" stroke="#191970" points="1315.4828,-47.4581 1309.564,-56.2455 1319.6709,-53.0671 1315.4828,-47.4581"/>
</g>
<!-- Node34 -->
<g id="node32" class="node">
<title>Node34</title>
<g id="a_node32"><a xlink:href="_s_l_light_spot_8cpp.html" target="_top" xlink:title=" ">
<polygon fill="#ffffff" stroke="#000000" points="1437.5,-.5 1437.5,-19.5 1527.5,-19.5 1527.5,-.5 1437.5,-.5"/>
<text text-anchor="middle" x="1482.5" y="-7.5" font-family="Arial.ttf" font-size="10.00" fill="#000000">SLLightSpot.cpp</text>
</a>
</g>
</g>
<!-- Node25&#45;&gt;Node34 -->
<g id="edge35" class="edge">
<title>Node25&#45;&gt;Node34</title>
<path fill="none" stroke="#191970" d="M1338.1637,-53.4561C1372.3067,-43.1765 1419.8931,-28.8494 1450.9427,-19.5011"/>
<polygon fill="#191970" stroke="#191970" points="1337.0409,-50.1389 1328.4745,-56.3733 1339.059,-56.8417 1337.0409,-50.1389"/>
</g>
<!-- Node35 -->
<g id="node33" class="node">
<title>Node35</title>
<g id="a_node33"><a xlink:href="_s_l_node_8cpp.html" target="_top" xlink:title=" ">
<polygon fill="#ffffff" stroke="#000000" points="1907.5,-.5 1907.5,-19.5 1979.5,-19.5 1979.5,-.5 1907.5,-.5"/>
<text text-anchor="middle" x="1943.5" y="-7.5" font-family="Arial.ttf" font-size="10.00" fill="#000000">SLNode.cpp</text>
</a>
</g>
</g>
<!-- Node25&#45;&gt;Node35 -->
<g id="edge36" class="edge">
<title>Node25&#45;&gt;Node35</title>
<path fill="none" stroke="#191970" d="M1350.2655,-64.4588C1455.8632,-60.8661 1697.5699,-49.8471 1898.5,-20 1901.3498,-19.5767 1904.2881,-19.0747 1907.2334,-18.5244"/>
<polygon fill="#191970" stroke="#191970" points="1350.0542,-60.9638 1340.1757,-64.7934 1350.2863,-67.9599 1350.0542,-60.9638"/>
</g>
<!-- Node37 -->
<g id="node34" class="node">
<title>Node37</title>
<g id="a_node34"><a xlink:href="_s_l_transform_node_8h.html" target="_top" xlink:title=" ">
<polygon fill="#ffffff" stroke="#ff0000" points="523,-.5 523,-19.5 630,-19.5 630,-.5 523,-.5"/>
<text text-anchor="middle" x="576.5" y="-7.5" font-family="Arial.ttf" font-size="10.00" fill="#000000">SLTransformNode.h</text>
</a>
</g>
</g>
<!-- Node25&#45;&gt;Node37 -->
<g id="edge38" class="edge">
<title>Node25&#45;&gt;Node37</title>
<path fill="none" stroke="#191970" d="M1242.8355,-62.8513C1107.7296,-54.8262 756.0323,-33.3023 639.5,-20 636.4192,-19.6483 633.2586,-19.2539 630.0726,-18.8304"/>
<polygon fill="#191970" stroke="#191970" points="1242.7563,-66.3527 1252.9459,-63.4507 1243.1706,-59.3649 1242.7563,-66.3527"/>
</g>
<!-- Node39 -->
<g id="node35" class="node">
<title>Node39</title>
<g id="a_node35"><a xlink:href="_s_l_pathtracer_8cpp.html" target="_top" xlink:title=" ">
<polygon fill="#ffffff" stroke="#000000" points="1651.5,-.5 1651.5,-19.5 1745.5,-19.5 1745.5,-.5 1651.5,-.5"/>
<text text-anchor="middle" x="1698.5" y="-7.5" font-family="Arial.ttf" font-size="10.00" fill="#000000">SLPathtracer.cpp</text>
</a>
</g>
</g>
<!-- Node25&#45;&gt;Node39 -->
<g id="edge39" class="edge">
<title>Node25&#45;&gt;Node39</title>
<path fill="none" stroke="#191970" d="M1350.0708,-59.6286C1418.1624,-51.3579 1539.2726,-36.0705 1642.5,-20 1645.4275,-19.5442 1648.438,-19.058 1651.4717,-18.5546"/>
<polygon fill="#191970" stroke="#191970" points="1349.5201,-56.1697 1340.0131,-60.846 1350.3613,-63.1189 1349.5201,-56.1697"/>
</g>
<!-- Node40 -->
<g id="node36" class="node">
<title>Node40</title>
<g id="a_node36"><a xlink:href="_s_l_ray_8cpp.html" target="_top" xlink:title=" ">
<polygon fill="#ffffff" stroke="#000000" points="648,-.5 648,-19.5 713,-19.5 713,-.5 648,-.5"/>
<text text-anchor="middle" x="680.5" y="-7.5" font-family="Arial.ttf" font-size="10.00" fill="#000000">SLRay.cpp</text>
</a>
</g>
</g>
<!-- Node25&#45;&gt;Node40 -->
<g id="edge40" class="edge">
<title>Node25&#45;&gt;Node40</title>
<path fill="none" stroke="#191970" d="M1242.3954,-62.7315C1119.403,-55.1282 821.8066,-35.7058 722.5,-20 719.5386,-19.5316 716.4773,-18.9655 713.4195,-18.3436"/>
<polygon fill="#191970" stroke="#191970" points="1242.499,-66.2445 1252.6953,-63.3659 1242.9294,-59.2577 1242.499,-66.2445"/>
</g>
<!-- Node41 -->
<g id="node37" class="node">
<title>Node41</title>
<g id="a_node37"><a xlink:href="_s_l_raytracer_8cpp.html" target="_top" xlink:title=" ">
<polygon fill="#ffffff" stroke="#000000" points="731,-.5 731,-19.5 822,-19.5 822,-.5 731,-.5"/>
<text text-anchor="middle" x="776.5" y="-7.5" font-family="Arial.ttf" font-size="10.00" fill="#000000">SLRaytracer.cpp</text>
</a>
</g>
</g>
<!-- Node25&#45;&gt;Node41 -->
<g id="edge41" class="edge">
<title>Node25&#45;&gt;Node41</title>
<path fill="none" stroke="#191970" d="M1242.63,-62.1004C1155.824,-55.4958 979.724,-40.7714 831.5,-20 828.4244,-19.569 825.2583,-19.0895 822.0725,-18.5804"/>
<polygon fill="#191970" stroke="#191970" points="1242.5304,-65.6028 1252.7655,-62.8655 1243.0573,-58.6226 1242.5304,-65.6028"/>
</g>
<!-- Node42 -->
<g id="node38" class="node">
<title>Node42</title>
<g id="a_node38"><a xlink:href="_s_l_scene_view_8cpp.html" target="_top" xlink:title=" ">
<polygon fill="#ffffff" stroke="#000000" points="1997.5,-.5 1997.5,-19.5 2095.5,-19.5 2095.5,-.5 1997.5,-.5"/>
<text text-anchor="middle" x="2046.5" y="-7.5" font-family="Arial.ttf" font-size="10.00" fill="#000000">SLSceneView.cpp</text>
</a>
</g>
</g>
<!-- Node25&#45;&gt;Node42 -->
<g id="edge43" class="edge">
<title>Node25&#45;&gt;Node42</title>
<path fill="none" stroke="#191970" d="M1350.4715,-64.3299C1467.2077,-60.2973 1751.7454,-48.2009 1988.5,-20 1991.341,-19.6616 1994.2543,-19.2776 1997.1902,-18.862"/>
<polygon fill="#191970" stroke="#191970" points="1350.2417,-60.8356 1340.3663,-64.6732 1350.4795,-67.8316 1350.2417,-60.8356"/>
</g>
<!-- Node110&#45;&gt;Node27 -->
<g id="edge48" class="edge">
<title>Node110&#45;&gt;Node27</title>
<path fill="none" stroke="#191970" d="M1852.3228,-218.6015C1916.1915,-175.5094 2095.4421,-54.5692 2147.2875,-19.5891"/>
<polygon fill="#191970" stroke="#191970" points="1850.0977,-215.8806 1843.7656,-224.375 1854.0129,-221.6833 1850.0977,-215.8806"/>
</g>
<!-- Node83 -->
<g id="node41" class="node">
<title>Node83</title>
<g id="a_node41"><a xlink:href="_s_l_animation_8cpp.html" target="_top" xlink:title=" ">
<polygon fill="#ffffff" stroke="#000000" points="1980.5,-168.5 1980.5,-187.5 2072.5,-187.5 2072.5,-168.5 1980.5,-168.5"/>
<text text-anchor="middle" x="2026.5" y="-175.5" font-family="Arial.ttf" font-size="10.00" fill="#000000">SLAnimation.cpp</text>
</a>
</g>
</g>
<!-- Node110&#45;&gt;Node83 -->
<g id="edge47" class="edge">
<title>Node110&#45;&gt;Node83</title>
<path fill="none" stroke="#191970" d="M1873.1629,-221.5882C1909.3569,-211.2996 1960.0494,-196.8895 1993.0764,-187.5011"/>
<polygon fill="#191970" stroke="#191970" points="1872.0274,-218.2723 1863.3655,-224.3733 1873.9415,-225.0055 1872.0274,-218.2723"/>
</g>
<!-- Node87 -->
<g id="node42" class="node">
<title>Node87</title>
<g id="a_node42"><a xlink:href="_s_l_curve_bezier_8cpp.html" target="_top" xlink:title=" ">
<polygon fill="#ffffff" stroke="#000000" points="2091,-168.5 2091,-187.5 2194,-187.5 2194,-168.5 2091,-168.5"/>
<text text-anchor="middle" x="2142.5" y="-175.5" font-family="Arial.ttf" font-size="10.00" fill="#000000">SLCurveBezier.cpp</text>
</a>
</g>
</g>
<!-- Node110&#45;&gt;Node87 -->
<g id="edge49" class="edge">
<title>Node110&#45;&gt;Node87</title>
<path fill="none" stroke="#191970" d="M1885.5906,-223.8077C1962.6434,-209.9442 2040.6342,-196.069 2090.6032,-187.1993"/>
<polygon fill="#191970" stroke="#191970" points="1884.9331,-220.3698 1875.7114,-225.5861 1886.1733,-227.259 1884.9331,-220.3698"/>
</g>
<!-- Node111&#45;&gt;Node25 -->
<g id="edge67" class="edge">
<title>Node111&#45;&gt;Node25</title>
<path fill="none" stroke="#191970" d="M1487.3142,-224.4919C1462.1715,-217.1684 1429.6464,-205.3286 1404.5,-188 1357.4491,-155.5768 1317.4075,-98.3619 1302.6084,-75.667"/>
<polygon fill="#191970" stroke="#191970" points="1486.6747,-227.9472 1497.2475,-227.2643 1488.5565,-221.2048 1486.6747,-227.9472"/>
</g>
<!-- Node112 -->
<g id="node44" class="node">
<title>Node112</title>
<g id="a_node44"><a xlink:href="_s_l_g_l_im_gui_8h.html" target="_top" xlink:title=" ">
<polygon fill="#ffffff" stroke="#000000" points="1455,-112.5 1455,-131.5 1532,-131.5 1532,-112.5 1455,-112.5"/>
<text text-anchor="middle" x="1493.5" y="-119.5" font-family="Arial.ttf" font-size="10.00" fill="#000000">SLGLImGui.h</text>
</a>
</g>
</g>
<!-- Node111&#45;&gt;Node112 -->
<g id="edge51" class="edge">
<title>Node111&#45;&gt;Node112</title>
<path fill="none" stroke="#191970" d="M1520.9191,-214.3211C1517.1738,-201.1878 1512.1018,-183.5418 1507.5,-168 1503.7554,-155.3532 1499.3001,-140.795 1496.4378,-131.5021"/>
<polygon fill="#191970" stroke="#191970" points="1517.6114,-215.4855 1523.7137,-224.1465 1524.3444,-213.5704 1517.6114,-215.4855"/>
</g>
<!-- Node113 -->
<g id="node45" class="node">
<title>Node113</title>
<g id="a_node45"><a xlink:href="_s_l_ui_interface_8h.html" target="_top" xlink:title=" ">
<polygon fill="#ffffff" stroke="#000000" points="1413,-168.5 1413,-187.5 1498,-187.5 1498,-168.5 1413,-168.5"/>
<text text-anchor="middle" x="1455.5" y="-175.5" font-family="Arial.ttf" font-size="10.00" fill="#000000">SLUiInterface.h</text>
</a>
</g>
</g>
<!-- Node111&#45;&gt;Node113 -->
<g id="edge53" class="edge">
<title>Node111&#45;&gt;Node113</title>
<path fill="none" stroke="#191970" d="M1506.123,-217.928C1493.7129,-208.1397 1478.27,-195.9595 1467.7255,-187.6427"/>
<polygon fill="#191970" stroke="#191970" points="1504.1136,-220.8007 1514.1327,-224.2455 1508.4486,-215.3046 1504.1136,-220.8007"/>
</g>
<!-- Node111&#45;&gt;Node78 -->
<g id="edge56" class="edge">
<title>Node111&#45;&gt;Node78</title>
<path fill="none" stroke="#191970" d="M1554.2771,-219.5971C1573.6382,-209.558 1598.9385,-196.4393 1615.9034,-187.6427"/>
<polygon fill="#191970" stroke="#191970" points="1552.5786,-216.5352 1545.3122,-224.2455 1555.8008,-222.7495 1552.5786,-216.5352"/>
</g>
<!-- Node112&#45;&gt;Node28 -->
<g id="edge52" class="edge">
<title>Node112&#45;&gt;Node28</title>
<path fill="none" stroke="#191970" d="M1508.2072,-104.8416C1528.6947,-80.9396 1565.1288,-38.433 1581.3358,-19.5249"/>
<polygon fill="#191970" stroke="#191970" points="1505.5354,-102.5806 1501.6849,-112.4509 1510.8503,-107.1361 1505.5354,-102.5806"/>
</g>
<!-- Node113&#45;&gt;Node25 -->
<g id="edge55" class="edge">
<title>Node113&#45;&gt;Node25</title>
<path fill="none" stroke="#191970" d="M1434.4038,-162.3997C1416.0497,-148.8994 1388.6758,-128.9374 1364.5,-112 1346.1729,-99.1602 1324.7494,-84.768 1310.9205,-75.5567"/>
<polygon fill="#191970" stroke="#191970" points="1432.5093,-165.3513 1442.6358,-168.4665 1436.6622,-159.7163 1432.5093,-165.3513"/>
</g>
<!-- Node113&#45;&gt;Node112 -->
<g id="edge54" class="edge">
<title>Node113&#45;&gt;Node112</title>
<path fill="none" stroke="#191970" d="M1467.7679,-159.9209C1474.1488,-150.5176 1481.6931,-139.3997 1486.9568,-131.6427"/>
<polygon fill="#191970" stroke="#191970" points="1464.838,-158.0055 1462.1191,-168.2455 1470.6303,-161.936 1464.838,-158.0055"/>
</g>
<!-- Node78&#45;&gt;Node11 -->
<g id="edge60" class="edge">
<title>Node78&#45;&gt;Node11</title>
<path fill="none" stroke="#191970" d="M1587.7696,-169.174C1478.2019,-148.48 1205.4738,-96.9698 1092.1374,-75.5639"/>
<polygon fill="#191970" stroke="#191970" points="1587.3768,-172.6616 1597.8527,-171.0784 1588.676,-165.7833 1587.3768,-172.6616"/>
</g>
<!-- Node78&#45;&gt;Node39 -->
<g id="edge65" class="edge">
<title>Node78&#45;&gt;Node39</title>
<path fill="none" stroke="#191970" d="M1642.6443,-158.7484C1646.0688,-150.5353 1650.0504,-140.8275 1653.5,-132 1669.7696,-90.3666 1687.7914,-40.1538 1695.1224,-19.5382"/>
<polygon fill="#191970" stroke="#191970" points="1639.3312,-157.5983 1638.6867,-168.1736 1645.7853,-160.3085 1639.3312,-157.5983"/>
</g>
<!-- Node78&#45;&gt;Node42 -->
<g id="edge66" class="edge">
<title>Node78&#45;&gt;Node42</title>
<path fill="none" stroke="#191970" d="M1681.4532,-169.4674C1717.5936,-162.0168 1768.3284,-149.6179 1810.5,-132 1871.5479,-106.4962 1879.4899,-85.9182 1938.5,-56 1966.1293,-41.9919 1999.023,-28.4016 2021.1892,-19.6714"/>
<polygon fill="#191970" stroke="#191970" points="1680.3132,-166.1265 1671.1996,-171.5294 1681.6934,-172.9891 1680.3132,-166.1265"/>
</g>
<!-- Node79 -->
<g id="node47" class="node">
<title>Node79</title>
<g id="a_node47"><a xlink:href="_s_l_g_l_oculus_8h.html" target="_top" xlink:title=" ">
<polygon fill="#ffffff" stroke="#ff0000" points="1700.5,-112.5 1700.5,-131.5 1782.5,-131.5 1782.5,-112.5 1700.5,-112.5"/>
<text text-anchor="middle" x="1741.5" y="-119.5" font-family="Arial.ttf" font-size="10.00" fill="#000000">SLGLOculus.h</text>
</a>
</g>
</g>
<!-- Node78&#45;&gt;Node79 -->
<g id="edge57" class="edge">
<title>Node78&#45;&gt;Node79</title>
<path fill="none" stroke="#191970" d="M1662.0199,-163.5971C1681.2017,-153.558 1706.2678,-140.4393 1723.0756,-131.6427"/>
<polygon fill="#191970" stroke="#191970" points="1660.375,-160.5075 1653.138,-168.2455 1663.6209,-166.7095 1660.375,-160.5075"/>
</g>
<!-- Node92 -->
<g id="node48" class="node">
<title>Node92</title>
<g id="a_node48"><a xlink:href="_s_l_g_l_oculus_f_b_8h.html" target="_top" xlink:title=" ">
<polygon fill="#ffffff" stroke="#ff0000" points="1550.5,-112.5 1550.5,-131.5 1644.5,-131.5 1644.5,-112.5 1550.5,-112.5"/>
<text text-anchor="middle" x="1597.5" y="-119.5" font-family="Arial.ttf" font-size="10.00" fill="#000000">SLGLOculusFB.h</text>
</a>
</g>
</g>
<!-- Node78&#45;&gt;Node92 -->
<g id="edge58" class="edge">
<title>Node78&#45;&gt;Node92</title>
<path fill="none" stroke="#191970" d="M1622.3624,-159.6296C1616.1907,-150.2887 1608.9434,-139.3197 1603.8711,-131.6427"/>
<polygon fill="#191970" stroke="#191970" points="1619.6223,-161.8316 1628.0551,-168.2455 1625.4627,-157.9728 1619.6223,-161.8316"/>
</g>
<!-- Node93 -->
<g id="node49" class="node">
<title>Node93</title>
<g id="a_node49"><a xlink:href="_s_l_keyframe_camera_8h.html" target="_top" xlink:title=" ">
<polygon fill="#ffffff" stroke="#ff0000" points="1753,-56.5 1753,-75.5 1868,-75.5 1868,-56.5 1753,-56.5"/>
<text text-anchor="middle" x="1810.5" y="-63.5" font-family="Arial.ttf" font-size="10.00" fill="#000000">SLKeyframeCamera.h</text>
</a>
</g>
</g>
<!-- Node78&#45;&gt;Node93 -->
<g id="edge61" class="edge">
<title>Node78&#45;&gt;Node93</title>
<path fill="none" stroke="#191970" d="M1681.0168,-169.5086C1721.4568,-161.2327 1775.9381,-147.6354 1791.5,-132 1806.8088,-116.6189 1809.9536,-89.7493 1810.4925,-75.5005"/>
<polygon fill="#191970" stroke="#191970" points="1680.1906,-166.1044 1671.0702,-171.496 1681.5622,-172.9687 1680.1906,-166.1044"/>
</g>
<!-- Node92&#45;&gt;Node25 -->
<g id="edge59" class="edge">
<title>Node92&#45;&gt;Node25</title>
<path fill="none" stroke="#191970" d="M1540.3296,-111.3636C1482.1108,-100.5322 1393.1075,-83.9735 1340.268,-74.1429"/>
<polygon fill="#191970" stroke="#191970" points="1539.9972,-114.8618 1550.4688,-113.25 1541.2777,-107.9799 1539.9972,-114.8618"/>
</g>
<!-- Node93&#45;&gt;Node31 -->
<g id="edge62" class="edge">
<title>Node93&#45;&gt;Node31</title>
<path fill="none" stroke="#191970" d="M1816.0846,-46.4538C1818.677,-37.3803 1821.6429,-26.9998 1823.745,-19.6427"/>
<polygon fill="#191970" stroke="#191970" points="1812.6689,-45.6688 1813.287,-56.2455 1819.3996,-47.5919 1812.6689,-45.6688"/>
</g>
<!-- Node93&#45;&gt;Node35 -->
<g id="edge64" class="edge">
<title>Node93&#45;&gt;Node35</title>
<path fill="none" stroke="#191970" d="M1842.8397,-52.3833C1867.0285,-42.1985 1899.495,-28.5284 1920.9348,-19.5011"/>
<polygon fill="#191970" stroke="#191970" points="1841.2217,-49.2669 1833.3635,-56.3733 1843.9381,-55.7184 1841.2217,-49.2669"/>
</g>
<!-- Node93&#45;&gt;Node93 -->
<g id="edge63" class="edge">
<title>Node93&#45;&gt;Node93</title>
<path fill="none" stroke="#191970" d="M1852.8433,-76.3932C1870.7512,-77.1702 1886,-73.7058 1886,-66 1886,-56.8672 1864.5805,-53.6921 1842.7009,-56.4748"/>
<polygon fill="#191970" stroke="#191970" points="1852.9629,-72.8908 1842.7009,-75.5252 1852.366,-79.8653 1852.9629,-72.8908"/>
</g>
</g>
</svg>
