<?xml version="1.0" encoding="UTF-8" standalone="no"?>
<!DOCTYPE svg PUBLIC "-//W3C//DTD SVG 1.1//EN"
 "http://www.w3.org/Graphics/SVG/1.1/DTD/svg11.dtd">
<!-- Generated by graphviz version 2.40.1 (20161225.0304)
 -->
<!-- Title: SLKeyframeCamera.h Pages: 1 -->
<svg width="315pt" height="83pt"
 viewBox="0.00 0.00 315.49 82.94" xmlns="http://www.w3.org/2000/svg" xmlns:xlink="http://www.w3.org/1999/xlink">
<g id="graph0" class="graph" transform="scale(1 1) rotate(0) translate(4 78.9427)">
<title>SLKeyframeCamera.h</title>
<polygon fill="#ffffff" stroke="transparent" points="-4,4 -4,-78.9427 311.4897,-78.9427 311.4897,4 -4,4"/>
<!-- Node1 -->
<g id="node1" class="node">
<title>Node1</title>
<g id="a_node1"><a xlink:title=" ">
<polygon fill="#bfbfbf" stroke="#000000" points="121.2808,-55.5 121.2808,-73.5 236.2114,-73.5 236.2114,-55.5 121.2808,-55.5"/>
<text text-anchor="middle" x="178.7461" y="-61.5" font-family="Arial.ttf" font-size="10.00" fill="#000000">SLKeyframeCamera.h</text>
</a>
</g>
</g>
<!-- Node1&#45;&gt;Node1 -->
<g id="edge4" class="edge">
<title>Node1&#45;&gt;Node1</title>
<path fill="none" stroke="#191970" d="M219.8483,-74.4648C238.2705,-75.4207 254.2114,-72.0991 254.2114,-64.5 254.2114,-55.5352 232.0257,-52.5235 209.7533,-55.4651"/>
<polygon fill="#191970" stroke="#191970" points="220.0322,-70.967 209.7533,-73.5349 219.39,-77.9375 220.0322,-70.967"/>
</g>
<!-- Node2 -->
<g id="node2" class="node">
<title>Node2</title>
<g id="a_node2"><a xlink:href="_s_l_keyframe_camera_8cpp.html" target="_top" xlink:title=" ">
<polygon fill="#ffffff" stroke="#000000" points="0,-.5 0,-18.5 125.4922,-18.5 125.4922,-.5 0,-.5"/>
<text text-anchor="middle" x="62.7461" y="-6.5" font-family="Arial.ttf" font-size="10.00" fill="#000000">SLKeyframeCamera.cpp</text>
</a>
</g>
</g>
<!-- Node1&#45;&gt;Node2 -->
<g id="edge1" class="edge">
<title>Node1&#45;&gt;Node2</title>
<path fill="none" stroke="#191970" d="M150.3922,-51.0563C129.1226,-40.9716 100.5781,-27.4376 81.9296,-18.5956"/>
<polygon fill="#191970" stroke="#191970" points="149.0558,-54.2961 159.5911,-55.4179 152.0547,-47.9711 149.0558,-54.2961"/>
</g>
<!-- Node3 -->
<g id="node3" class="node">
<title>Node3</title>
<g id="a_node3"><a xlink:href="_s_l_node_8cpp.html" target="_top" xlink:title=" ">
<polygon fill="#ffffff" stroke="#000000" points="143.2266,-.5 143.2266,-18.5 214.2656,-18.5 214.2656,-.5 143.2266,-.5"/>
<text text-anchor="middle" x="178.7461" y="-6.5" font-family="Arial.ttf" font-size="10.00" fill="#000000">SLNode.cpp</text>
</a>
</g>
</g>
<!-- Node1&#45;&gt;Node3 -->
<g id="edge2" class="edge">
<title>Node1&#45;&gt;Node3</title>
<path fill="none" stroke="#191970" d="M178.7461,-45.383C178.7461,-36.3738 178.7461,-26.0373 178.7461,-18.7795"/>
<polygon fill="#191970" stroke="#191970" points="175.2462,-45.4178 178.7461,-55.4179 182.2462,-45.4179 175.2462,-45.4178"/>
</g>
<!-- Node4 -->
<g id="node4" class="node">
<title>Node4</title>
<g id="a_node4"><a xlink:href="_s_l_scene_8cpp.html" target="_top" xlink:title=" ">
<polygon fill="#ffffff" stroke="#000000" points="232.0024,-.5 232.0024,-18.5 307.4897,-18.5 307.4897,-.5 232.0024,-.5"/>
<text text-anchor="middle" x="269.7461" y="-6.5" font-family="Arial.ttf" font-size="10.00" fill="#000000">SLScene.cpp</text>
</a>
</g>
</g>
<!-- Node1&#45;&gt;Node4 -->
<g id="edge3" class="edge">
<title>Node1&#45;&gt;Node4</title>
<path fill="none" stroke="#191970" d="M202.3544,-50.2313C218.8796,-40.2435 240.4629,-27.1986 254.697,-18.5956"/>
<polygon fill="#191970" stroke="#191970" points="200.5208,-47.2498 193.7729,-55.4179 204.1416,-53.2406 200.5208,-47.2498"/>
</g>
</g>
</svg>
