<?xml version="1.0" encoding="UTF-8" standalone="no"?>
<!DOCTYPE svg PUBLIC "-//W3C//DTD SVG 1.1//EN"
 "http://www.w3.org/Graphics/SVG/1.1/DTD/svg11.dtd">
<!-- Generated by graphviz version 2.40.1 (20161225.0304)
 -->
<!-- Title: SLRnd3f.h Pages: 1 -->
<svg width="466pt" height="308pt"
 viewBox="0.00 0.00 466.00 308.00" xmlns="http://www.w3.org/2000/svg" xmlns:xlink="http://www.w3.org/1999/xlink">
<g id="graph0" class="graph" transform="scale(1 1) rotate(0) translate(4 304)">
<title>SLRnd3f.h</title>
<polygon fill="#ffffff" stroke="transparent" points="-4,4 -4,-304 462,-304 462,4 -4,4"/>
<!-- Node1 -->
<g id="node1" class="node">
<title>Node1</title>
<g id="a_node1"><a xlink:title=" ">
<polygon fill="#bfbfbf" stroke="#000000" points="72.5,-280.5 72.5,-299.5 136.5,-299.5 136.5,-280.5 72.5,-280.5"/>
<text text-anchor="middle" x="104.5" y="-287.5" font-family="Arial.ttf" font-size="10.00" fill="#000000">SLRnd3f.h</text>
</a>
</g>
</g>
<!-- Node2 -->
<g id="node2" class="node">
<title>Node2</title>
<g id="a_node2"><a xlink:href="_s_l_vec3_8h.html" target="_top" xlink:title=" ">
<polygon fill="#ffffff" stroke="#000000" points="74.5,-224.5 74.5,-243.5 134.5,-243.5 134.5,-224.5 74.5,-224.5"/>
<text text-anchor="middle" x="104.5" y="-231.5" font-family="Arial.ttf" font-size="10.00" fill="#000000">SLVec3.h</text>
</a>
</g>
</g>
<!-- Node1&#45;&gt;Node2 -->
<g id="edge1" class="edge">
<title>Node1&#45;&gt;Node2</title>
<path fill="none" stroke="#191970" d="M104.5,-280.2455C104.5,-272.9382 104.5,-262.6944 104.5,-253.7046"/>
<polygon fill="#191970" stroke="#191970" points="108.0001,-253.6426 104.5,-243.6427 101.0001,-253.6427 108.0001,-253.6426"/>
</g>
<!-- Node3 -->
<g id="node3" class="node">
<title>Node3</title>
<g id="a_node3"><a xlink:title=" ">
<polygon fill="#ffffff" stroke="#bfbfbf" points="0,-168.5 0,-187.5 47,-187.5 47,-168.5 0,-168.5"/>
<text text-anchor="middle" x="23.5" y="-175.5" font-family="Arial.ttf" font-size="10.00" fill="#000000">math.h</text>
</a>
</g>
</g>
<!-- Node2&#45;&gt;Node3 -->
<g id="edge2" class="edge">
<title>Node2&#45;&gt;Node3</title>
<path fill="none" stroke="#191970" d="M90.3909,-224.2455C78.0791,-215.7337 60.0042,-203.2375 45.7462,-193.3801"/>
<polygon fill="#191970" stroke="#191970" points="47.6634,-190.4506 37.4474,-187.6427 43.6826,-196.2085 47.6634,-190.4506"/>
</g>
<!-- Node4 -->
<g id="node4" class="node">
<title>Node4</title>
<g id="a_node4"><a xlink:href="_s_l_math_8h.html" target="_top" xlink:title=" ">
<polygon fill="#ffffff" stroke="#000000" points="43,-112.5 43,-131.5 102,-131.5 102,-112.5 43,-112.5"/>
<text text-anchor="middle" x="72.5" y="-119.5" font-family="Arial.ttf" font-size="10.00" fill="#000000">SLMath.h</text>
</a>
</g>
</g>
<!-- Node2&#45;&gt;Node4 -->
<g id="edge3" class="edge">
<title>Node2&#45;&gt;Node4</title>
<path fill="none" stroke="#191970" d="M101.7717,-224.4509C96.5289,-206.1013 84.9545,-165.5908 78.0341,-141.3693"/>
<polygon fill="#191970" stroke="#191970" points="81.334,-140.1786 75.2214,-131.5249 74.6033,-142.1017 81.334,-140.1786"/>
</g>
<!-- Node7 -->
<g id="node7" class="node">
<title>Node7</title>
<g id="a_node7"><a xlink:href="_s_l_vec2_8h.html" target="_top" xlink:title=" ">
<polygon fill="#ffffff" stroke="#000000" points="103.5,-168.5 103.5,-187.5 163.5,-187.5 163.5,-168.5 103.5,-168.5"/>
<text text-anchor="middle" x="133.5" y="-175.5" font-family="Arial.ttf" font-size="10.00" fill="#000000">SLVec2.h</text>
</a>
</g>
</g>
<!-- Node2&#45;&gt;Node7 -->
<g id="edge6" class="edge">
<title>Node2&#45;&gt;Node7</title>
<path fill="none" stroke="#191970" d="M109.5514,-224.2455C113.5019,-216.617 119.1097,-205.7881 123.9058,-196.5267"/>
<polygon fill="#191970" stroke="#191970" points="127.0159,-198.1321 128.5065,-187.6427 120.7999,-194.9131 127.0159,-198.1321"/>
</g>
<!-- Node8 -->
<g id="node8" class="node">
<title>Node8</title>
<g id="a_node8"><a xlink:href="_utils_8h.html" target="_top" xlink:title=" ">
<polygon fill="#ffffff" stroke="#000000" points="176.5,-112.5 176.5,-131.5 220.5,-131.5 220.5,-112.5 176.5,-112.5"/>
<text text-anchor="middle" x="198.5" y="-119.5" font-family="Arial.ttf" font-size="10.00" fill="#000000">Utils.h</text>
</a>
</g>
</g>
<!-- Node2&#45;&gt;Node8 -->
<g id="edge20" class="edge">
<title>Node2&#45;&gt;Node8</title>
<path fill="none" stroke="#191970" d="M124.7875,-224.4862C139.7528,-216.5679 159.6639,-204.0151 172.5,-188 183.3179,-174.5029 190.0917,-155.9493 194.0027,-141.9504"/>
<polygon fill="#191970" stroke="#191970" points="197.4898,-142.4366 196.548,-131.8837 190.7034,-140.7206 197.4898,-142.4366"/>
</g>
<!-- Node5 -->
<g id="node5" class="node">
<title>Node5</title>
<g id="a_node5"><a xlink:title=" ">
<polygon fill="#ffffff" stroke="#bfbfbf" points="48.5,-56.5 48.5,-75.5 92.5,-75.5 92.5,-56.5 48.5,-56.5"/>
<text text-anchor="middle" x="70.5" y="-63.5" font-family="Arial.ttf" font-size="10.00" fill="#000000">vector</text>
</a>
</g>
</g>
<!-- Node4&#45;&gt;Node5 -->
<g id="edge4" class="edge">
<title>Node4&#45;&gt;Node5</title>
<path fill="none" stroke="#191970" d="M72.1516,-112.2455C71.8907,-104.9382 71.5248,-94.6944 71.2037,-85.7046"/>
<polygon fill="#191970" stroke="#191970" points="74.6992,-85.5113 70.8444,-75.6427 67.7036,-85.7613 74.6992,-85.5113"/>
</g>
<!-- Node6 -->
<g id="node6" class="node">
<title>Node6</title>
<g id="a_node6"><a xlink:title=" ">
<polygon fill="#ffffff" stroke="#bfbfbf" points="236,-.5 236,-19.5 277,-19.5 277,-.5 236,-.5"/>
<text text-anchor="middle" x="256.5" y="-7.5" font-family="Arial.ttf" font-size="10.00" fill="#000000">string</text>
</a>
</g>
</g>
<!-- Node4&#45;&gt;Node6 -->
<g id="edge5" class="edge">
<title>Node4&#45;&gt;Node6</title>
<path fill="none" stroke="#191970" d="M61.1782,-112.2868C46.7063,-98.7049 25.1446,-73.7175 39.5,-56 62.6264,-27.4574 171.8012,-15.9094 225.9271,-11.8779"/>
<polygon fill="#191970" stroke="#191970" points="226.2476,-15.3641 235.9765,-11.169 225.755,-8.3815 226.2476,-15.3641"/>
</g>
<!-- Node7&#45;&gt;Node4 -->
<g id="edge7" class="edge">
<title>Node7&#45;&gt;Node4</title>
<path fill="none" stroke="#191970" d="M122.8746,-168.2455C113.9527,-160.0549 101.012,-148.1749 90.4808,-138.5069"/>
<polygon fill="#191970" stroke="#191970" points="92.7371,-135.8271 83.0036,-131.6427 88.0032,-140.9837 92.7371,-135.8271"/>
</g>
<!-- Node7&#45;&gt;Node8 -->
<g id="edge8" class="edge">
<title>Node7&#45;&gt;Node8</title>
<path fill="none" stroke="#191970" d="M144.8221,-168.2455C154.4223,-159.9746 168.3892,-147.9416 179.6695,-138.2232"/>
<polygon fill="#191970" stroke="#191970" points="182.016,-140.8214 187.3076,-131.6427 177.447,-135.5182 182.016,-140.8214"/>
</g>
<!-- Node8&#45;&gt;Node5 -->
<g id="edge10" class="edge">
<title>Node8&#45;&gt;Node5</title>
<path fill="none" stroke="#191970" d="M176.496,-112.3733C155.8565,-103.3435 124.7842,-89.7494 101.6111,-79.6111"/>
<polygon fill="#191970" stroke="#191970" points="102.7813,-76.3028 92.2169,-75.5011 99.9755,-82.7159 102.7813,-76.3028"/>
</g>
<!-- Node8&#45;&gt;Node6 -->
<g id="edge9" class="edge">
<title>Node8&#45;&gt;Node6</title>
<path fill="none" stroke="#191970" d="M208.8593,-112.3388C217.6454,-103.6151 229.9855,-90.0286 237.5,-76 245.2415,-61.5477 250.1481,-43.5803 253.0319,-30.043"/>
<polygon fill="#191970" stroke="#191970" points="256.5333,-30.3708 254.9963,-19.888 249.6607,-29.0413 256.5333,-30.3708"/>
</g>
<!-- Node9 -->
<g id="node9" class="node">
<title>Node9</title>
<g id="a_node9"><a xlink:title=" ">
<polygon fill="#ffffff" stroke="#bfbfbf" points="110.5,-56.5 110.5,-75.5 150.5,-75.5 150.5,-56.5 110.5,-56.5"/>
<text text-anchor="middle" x="130.5" y="-63.5" font-family="Arial.ttf" font-size="10.00" fill="#000000">cfloat</text>
</a>
</g>
</g>
<!-- Node8&#45;&gt;Node9 -->
<g id="edge11" class="edge">
<title>Node8&#45;&gt;Node9</title>
<path fill="none" stroke="#191970" d="M186.6553,-112.2455C176.612,-103.9746 162.0005,-91.9416 150.1996,-82.2232"/>
<polygon fill="#191970" stroke="#191970" points="152.1533,-79.298 142.209,-75.6427 147.7033,-84.7015 152.1533,-79.298"/>
</g>
<!-- Node10 -->
<g id="node10" class="node">
<title>Node10</title>
<g id="a_node10"><a xlink:title=" ">
<polygon fill="#ffffff" stroke="#bfbfbf" points="405,-.5 405,-19.5 458,-19.5 458,-.5 405,-.5"/>
<text text-anchor="middle" x="431.5" y="-7.5" font-family="Arial.ttf" font-size="10.00" fill="#000000">memory</text>
</a>
</g>
</g>
<!-- Node8&#45;&gt;Node10 -->
<g id="edge12" class="edge">
<title>Node8&#45;&gt;Node10</title>
<path fill="none" stroke="#191970" d="M220.6008,-121.3447C275.726,-119.1986 416.9257,-110.3871 445.5,-76 456.4483,-62.8245 450.3181,-43.1625 443.0497,-28.7255"/>
<polygon fill="#191970" stroke="#191970" points="445.9532,-26.7452 438.0318,-19.7093 439.8367,-30.1493 445.9532,-26.7452"/>
</g>
<!-- Node11 -->
<g id="node11" class="node">
<title>Node11</title>
<g id="a_node11"><a xlink:href="_file_log_8h.html" target="_top" xlink:title=" ">
<polygon fill="#ffffff" stroke="#000000" points="284.5,-56.5 284.5,-75.5 342.5,-75.5 342.5,-56.5 284.5,-56.5"/>
<text text-anchor="middle" x="313.5" y="-63.5" font-family="Arial.ttf" font-size="10.00" fill="#000000">FileLog.h</text>
</a>
</g>
</g>
<!-- Node8&#45;&gt;Node11 -->
<g id="edge13" class="edge">
<title>Node8&#45;&gt;Node11</title>
<path fill="none" stroke="#191970" d="M218.2692,-112.3733C236.6469,-103.4241 264.2312,-89.9917 284.9893,-79.8835"/>
<polygon fill="#191970" stroke="#191970" points="286.5304,-83.026 293.9888,-75.5011 283.4657,-76.7325 286.5304,-83.026"/>
</g>
<!-- Node13 -->
<g id="node13" class="node">
<title>Node13</title>
<g id="a_node13"><a xlink:href="_custom_log_8h.html" target="_top" xlink:title=" ">
<polygon fill="#ffffff" stroke="#000000" points="360.5,-56.5 360.5,-75.5 436.5,-75.5 436.5,-56.5 360.5,-56.5"/>
<text text-anchor="middle" x="398.5" y="-63.5" font-family="Arial.ttf" font-size="10.00" fill="#000000">CustomLog.h</text>
</a>
</g>
</g>
<!-- Node8&#45;&gt;Node13 -->
<g id="edge16" class="edge">
<title>Node8&#45;&gt;Node13</title>
<path fill="none" stroke="#191970" d="M220.6677,-115.7931C252.8949,-106.7694 313.3465,-89.843 354.7429,-78.252"/>
<polygon fill="#191970" stroke="#191970" points="355.8815,-81.5679 364.5674,-75.5011 353.994,-74.8271 355.8815,-81.5679"/>
</g>
<!-- Node14 -->
<g id="node14" class="node">
<title>Node14</title>
<g id="a_node14"><a xlink:title=" ">
<polygon fill="#ffffff" stroke="#bfbfbf" points="169,-56.5 169,-75.5 228,-75.5 228,-56.5 169,-56.5"/>
<text text-anchor="middle" x="198.5" y="-63.5" font-family="Arial.ttf" font-size="10.00" fill="#000000">functional</text>
</a>
</g>
</g>
<!-- Node8&#45;&gt;Node14 -->
<g id="edge19" class="edge">
<title>Node8&#45;&gt;Node14</title>
<path fill="none" stroke="#191970" d="M198.5,-112.2455C198.5,-104.9382 198.5,-94.6944 198.5,-85.7046"/>
<polygon fill="#191970" stroke="#191970" points="202.0001,-85.6426 198.5,-75.6427 195.0001,-85.6427 202.0001,-85.6426"/>
</g>
<!-- Node11&#45;&gt;Node6 -->
<g id="edge14" class="edge">
<title>Node11&#45;&gt;Node6</title>
<path fill="none" stroke="#191970" d="M303.5714,-56.2455C295.3162,-48.1352 283.3791,-36.4075 273.5918,-26.7919"/>
<polygon fill="#191970" stroke="#191970" points="275.9011,-24.1542 266.3149,-19.6427 270.9954,-29.1476 275.9011,-24.1542"/>
</g>
<!-- Node12 -->
<g id="node12" class="node">
<title>Node12</title>
<g id="a_node12"><a xlink:title=" ">
<polygon fill="#ffffff" stroke="#bfbfbf" points="295.5,-.5 295.5,-19.5 345.5,-19.5 345.5,-.5 295.5,-.5"/>
<text text-anchor="middle" x="320.5" y="-7.5" font-family="Arial.ttf" font-size="10.00" fill="#000000">fstream</text>
</a>
</g>
</g>
<!-- Node11&#45;&gt;Node12 -->
<g id="edge15" class="edge">
<title>Node11&#45;&gt;Node12</title>
<path fill="none" stroke="#191970" d="M314.7193,-56.2455C315.6327,-48.9382 316.9132,-38.6944 318.0369,-29.7046"/>
<polygon fill="#191970" stroke="#191970" points="321.5272,-29.9996 319.2947,-19.6427 314.5813,-29.1313 321.5272,-29.9996"/>
</g>
<!-- Node13&#45;&gt;Node6 -->
<g id="edge18" class="edge">
<title>Node13&#45;&gt;Node6</title>
<path fill="none" stroke="#191970" d="M374.0893,-56.3733C349.9014,-46.8343 312.7975,-32.2018 286.7525,-21.9306"/>
<polygon fill="#191970" stroke="#191970" points="287.9488,-18.6401 277.362,-18.2273 285.3807,-25.152 287.9488,-18.6401"/>
</g>
<!-- Node13&#45;&gt;Node10 -->
<g id="edge17" class="edge">
<title>Node13&#45;&gt;Node10</title>
<path fill="none" stroke="#191970" d="M404.2482,-56.2455C408.7435,-48.617 415.1248,-37.7881 420.5825,-28.5267"/>
<polygon fill="#191970" stroke="#191970" points="423.7561,-30.035 425.8177,-19.6427 417.7253,-26.4811 423.7561,-30.035"/>
</g>
</g>
</svg>
