<?xml version="1.0" encoding="UTF-8" standalone="no"?>
<!DOCTYPE svg PUBLIC "-//W3C//DTD SVG 1.1//EN"
 "http://www.w3.org/Graphics/SVG/1.1/DTD/svg11.dtd">
<!-- Generated by graphviz version 8.0.5 (20230430.1635)
 -->
<!-- Title: SLJoint.h Pages: 1 -->
<svg width="2834pt" height="428pt"
 viewBox="0.00 0.00 2834.00 428.00" xmlns="http://www.w3.org/2000/svg" xmlns:xlink="http://www.w3.org/1999/xlink">
<g id="graph0" class="graph" transform="scale(1 1) rotate(0) translate(4 424)">
<title>SLJoint.h</title>
<polygon fill="white" stroke="none" points="-4,4 -4,-424 2830,-424 2830,4 -4,4"/>
<!-- Node1 -->
<g id="node1" class="node">
<title>Node1</title>
<g id="a_node1"><a xlink:title=" ">
<polygon fill="#bfbfbf" stroke="black" points="74.25,-399.5 74.25,-419.5 131.5,-419.5 131.5,-399.5 74.25,-399.5"/>
<text text-anchor="middle" x="102.88" y="-406" font-family="Arial" font-size="10.00">SLJoint.h</text>
</a>
</g>
</g>
<!-- Node2 -->
<g id="node2" class="node">
<title>Node2</title>
<g id="a_node2"><a xlink:href="_s_l_anim_skeleton_8h.html" target="_top" xlink:title=" ">
<polygon fill="white" stroke="black" points="54.38,-285.5 54.38,-305.5 151.38,-305.5 151.38,-285.5 54.38,-285.5"/>
<text text-anchor="middle" x="102.88" y="-292" font-family="Arial" font-size="10.00">SLAnimSkeleton.h</text>
</a>
</g>
</g>
<!-- Node1&#45;&gt;Node2 -->
<g id="edge1" class="edge">
<title>Node1&#45;&gt;Node2</title>
<path fill="none" stroke="midnightblue" d="M102.88,-388.84C102.88,-364.22 102.88,-323.12 102.88,-305.25"/>
<polygon fill="midnightblue" stroke="midnightblue" points="99.38,-388.71 102.88,-398.71 106.38,-388.71 99.38,-388.71"/>
</g>
<!-- Node50 -->
<g id="node45" class="node">
<title>Node50</title>
<g id="a_node45"><a xlink:href="_s_l_joint_8cpp.html" target="_top" xlink:title=" ">
<polygon fill="white" stroke="black" points="0,-228.5 0,-248.5 67.75,-248.5 67.75,-228.5 0,-228.5"/>
<text text-anchor="middle" x="33.88" y="-235" font-family="Arial" font-size="10.00">SLJoint.cpp</text>
</a>
</g>
</g>
<!-- Node1&#45;&gt;Node50 -->
<g id="edge69" class="edge">
<title>Node1&#45;&gt;Node50</title>
<path fill="none" stroke="midnightblue" d="M90.2,-390.68C76.79,-370.93 56.06,-337.69 44.88,-306 37.86,-286.14 35.27,-261.33 34.35,-248.35"/>
<polygon fill="midnightblue" stroke="midnightblue" points="87.88,-392.47 96.45,-398.69 93.63,-388.48 87.88,-392.47"/>
</g>
<!-- Node51 -->
<g id="node46" class="node">
<title>Node51</title>
<g id="a_node46"><a xlink:href="_s_l_animation_8h.html" target="_top" xlink:title=" ">
<polygon fill="white" stroke="black" points="686,-342.5 686,-362.5 765.75,-362.5 765.75,-342.5 686,-342.5"/>
<text text-anchor="middle" x="725.88" y="-349" font-family="Arial" font-size="10.00">SLAnimation.h</text>
</a>
</g>
</g>
<!-- Node1&#45;&gt;Node51 -->
<g id="edge60" class="edge">
<title>Node1&#45;&gt;Node51</title>
<path fill="none" stroke="midnightblue" d="M142.03,-405.04C253.81,-395.18 573.58,-366.94 686.11,-357.01"/>
<polygon fill="midnightblue" stroke="midnightblue" points="141.92,-401.63 132.26,-405.99 142.53,-408.6 141.92,-401.63"/>
</g>
<!-- Node3 -->
<g id="node3" class="node">
<title>Node3</title>
<g id="a_node3"><a xlink:href="_s_l_anim_manager_8h.html" target="_top" xlink:title=" ">
<polygon fill="white" stroke="black" points="963.75,-228.5 963.75,-248.5 1060,-248.5 1060,-228.5 963.75,-228.5"/>
<text text-anchor="middle" x="1011.88" y="-235" font-family="Arial" font-size="10.00">SLAnimManager.h</text>
</a>
</g>
</g>
<!-- Node2&#45;&gt;Node3 -->
<g id="edge2" class="edge">
<title>Node2&#45;&gt;Node3</title>
<path fill="none" stroke="midnightblue" d="M161.97,-290.92C330.28,-280.74 809.93,-251.72 963.76,-242.41"/>
<polygon fill="midnightblue" stroke="midnightblue" points="161.88,-287.48 152.1,-291.58 162.3,-294.47 161.88,-287.48"/>
</g>
<!-- Node11 -->
<g id="node11" class="node">
<title>Node11</title>
<g id="a_node11"><a xlink:href="_s_l_anim_skeleton_8cpp.html" target="_top" xlink:title=" ">
<polygon fill="white" stroke="black" points="87.12,-57.5 87.12,-77.5 194.62,-77.5 194.62,-57.5 87.12,-57.5"/>
<text text-anchor="middle" x="140.88" y="-64" font-family="Arial" font-size="10.00">SLAnimSkeleton.cpp</text>
</a>
</g>
</g>
<!-- Node2&#45;&gt;Node11 -->
<g id="edge58" class="edge">
<title>Node2&#45;&gt;Node11</title>
<path fill="none" stroke="midnightblue" d="M106.19,-274.81C114.11,-227.66 133.93,-109.8 139.44,-77.06"/>
<polygon fill="midnightblue" stroke="midnightblue" points="102.57,-274.2 104.36,-284.64 109.47,-275.36 102.57,-274.2"/>
</g>
<!-- Node2&#45;&gt;Node50 -->
<g id="edge59" class="edge">
<title>Node2&#45;&gt;Node50</title>
<path fill="none" stroke="midnightblue" d="M83.48,-279.04C71.12,-269.18 55.53,-256.76 45.16,-248.5"/>
<polygon fill="midnightblue" stroke="midnightblue" points="80.79,-282.17 90.79,-285.66 85.15,-276.69 80.79,-282.17"/>
</g>
<!-- Node3&#45;&gt;Node3 -->
<g id="edge3" class="edge">
<title>Node3&#45;&gt;Node3</title>
<path fill="none" stroke="midnightblue" d="M1053.11,-249.19C1066.93,-249.2 1078,-245.64 1078,-238.5 1078,-229.54 1060.56,-226.21 1042.14,-228.52"/>
<polygon fill="midnightblue" stroke="midnightblue" points="1053.35,-245.63 1043.14,-248.48 1052.89,-252.62 1053.35,-245.63"/>
</g>
<!-- Node4 -->
<g id="node4" class="node">
<title>Node4</title>
<g id="a_node4"><a xlink:href="_s_l_scene_8h.html" target="_top" xlink:title=" ">
<polygon fill="white" stroke="black" points="1233.88,-171.5 1233.88,-191.5 1297.88,-191.5 1297.88,-171.5 1233.88,-171.5"/>
<text text-anchor="middle" x="1265.88" y="-178" font-family="Arial" font-size="10.00">SLScene.h</text>
</a>
</g>
</g>
<!-- Node3&#45;&gt;Node4 -->
<g id="edge4" class="edge">
<title>Node3&#45;&gt;Node4</title>
<path fill="none" stroke="midnightblue" d="M1063.76,-226.27C1114.92,-215.19 1191.45,-198.61 1234.16,-189.37"/>
<polygon fill="midnightblue" stroke="midnightblue" points="1063.28,-223 1054.25,-228.54 1064.76,-229.85 1063.28,-223"/>
</g>
<!-- Node42 -->
<g id="node41" class="node">
<title>Node42</title>
<g id="a_node41"><a xlink:href="_s_l_scene_view_8cpp.html" target="_top" xlink:title=" ">
<polygon fill="white" stroke="black" points="2466.12,-57.5 2466.12,-77.5 2561.62,-77.5 2561.62,-57.5 2466.12,-57.5"/>
<text text-anchor="middle" x="2513.88" y="-64" font-family="Arial" font-size="10.00">SLSceneView.cpp</text>
</a>
</g>
</g>
<!-- Node3&#45;&gt;Node42 -->
<g id="edge57" class="edge">
<title>Node3&#45;&gt;Node42</title>
<path fill="none" stroke="midnightblue" d="M1070.85,-235.74C1344.03,-227.29 2475.28,-189.14 2525.88,-135 2540.77,-119.06 2527.69,-91.18 2519.42,-77.12"/>
<polygon fill="midnightblue" stroke="midnightblue" points="1070.88,-232.27 1060.99,-236.07 1071.1,-239.26 1070.88,-232.27"/>
</g>
<!-- Node5 -->
<g id="node5" class="node">
<title>Node5</title>
<g id="a_node5"><a xlink:href="_app_demo_gui_8cpp.html" target="_top" xlink:title=" ">
<polygon fill="white" stroke="black" points="2133.25,-57.5 2133.25,-77.5 2226.5,-77.5 2226.5,-57.5 2133.25,-57.5"/>
<text text-anchor="middle" x="2179.88" y="-64" font-family="Arial" font-size="10.00">AppDemoGui.cpp</text>
</a>
</g>
</g>
<!-- Node4&#45;&gt;Node5 -->
<g id="edge5" class="edge">
<title>Node4&#45;&gt;Node5</title>
<path fill="none" stroke="midnightblue" d="M1308.63,-180.28C1383.08,-178.88 1540.71,-171.43 1667.88,-135 1688.71,-129.03 1690.98,-119.74 1711.88,-114 1881.86,-67.3 1931.66,-97.38 2106.88,-78 2115.51,-77.04 2124.71,-75.93 2133.57,-74.8"/>
<polygon fill="midnightblue" stroke="midnightblue" points="1308.79,-176.79 1298.84,-180.45 1308.9,-183.79 1308.79,-176.79"/>
</g>
<!-- Node6 -->
<g id="node6" class="node">
<title>Node6</title>
<g id="a_node6"><a xlink:href="_app_demo_load_8cpp.html" target="_top" xlink:title=" ">
<polygon fill="white" stroke="black" points="2244.25,-57.5 2244.25,-77.5 2343.5,-77.5 2343.5,-57.5 2244.25,-57.5"/>
<text text-anchor="middle" x="2293.88" y="-64" font-family="Arial" font-size="10.00">AppDemoLoad.cpp</text>
</a>
</g>
</g>
<!-- Node4&#45;&gt;Node6 -->
<g id="edge6" class="edge">
<title>Node4&#45;&gt;Node6</title>
<path fill="none" stroke="midnightblue" d="M1308.38,-180.62C1387.61,-179.85 1562.62,-173.47 1703.88,-135 1725.56,-129.09 1728.11,-119.58 1749.88,-114 1959.67,-60.18 2020.79,-103.53 2235.88,-78 2238.71,-77.66 2241.62,-77.29 2244.56,-76.88"/>
<polygon fill="midnightblue" stroke="midnightblue" points="1308.83,-177.12 1298.85,-180.69 1308.88,-184.12 1308.83,-177.12"/>
</g>
<!-- Node7 -->
<g id="node7" class="node">
<title>Node7</title>
<g id="a_node7"><a xlink:href="_app_demo_main_g_l_f_w_8cpp.html" target="_top" xlink:title=" ">
<polygon fill="white" stroke="black" points="982.38,-0.5 982.38,-20.5 1109.38,-20.5 1109.38,-0.5 982.38,-0.5"/>
<text text-anchor="middle" x="1045.88" y="-7" font-family="Arial" font-size="10.00">AppDemoMainGLFW.cpp</text>
</a>
</g>
</g>
<!-- Node4&#45;&gt;Node7 -->
<g id="edge7" class="edge">
<title>Node4&#45;&gt;Node7</title>
<path fill="none" stroke="midnightblue" d="M1236.4,-167.18C1217.67,-158.49 1193.06,-146.63 1171.88,-135 1156.31,-126.45 1154.84,-119.25 1137.88,-114 1057.01,-88.96 435.3,-139.25 376.88,-78 370.43,-71.25 370.5,-63.82 376.88,-57 417.68,-13.32 823.58,-10.44 982.52,-11.01"/>
<polygon fill="midnightblue" stroke="midnightblue" points="1234.59,-170.66 1245.14,-171.66 1237.52,-164.3 1234.59,-170.66"/>
</g>
<!-- Node8 -->
<g id="node8" class="node">
<title>Node8</title>
<g id="a_node8"><a xlink:href="_app_demo_video_8cpp.html" target="_top" xlink:title=" ">
<polygon fill="white" stroke="black" points="2053.38,-0.5 2053.38,-20.5 2156.38,-20.5 2156.38,-0.5 2053.38,-0.5"/>
<text text-anchor="middle" x="2104.88" y="-7" font-family="Arial" font-size="10.00">AppDemoVideo.cpp</text>
</a>
</g>
</g>
<!-- Node4&#45;&gt;Node8 -->
<g id="edge8" class="edge">
<title>Node4&#45;&gt;Node8</title>
<path fill="none" stroke="midnightblue" d="M1308.17,-178.55C1425.53,-173.04 1765.12,-156.32 2046.88,-135 2080.92,-132.42 2635.88,-103.24 2658.88,-78 2665.16,-71.1 2665.2,-63.86 2658.88,-57 2625.2,-20.45 2286.99,-13.26 2156.17,-11.85"/>
<polygon fill="midnightblue" stroke="midnightblue" points="1308.34,-175.09 1298.52,-179.05 1308.67,-182.08 1308.34,-175.09"/>
</g>
<!-- Node9 -->
<g id="node9" class="node">
<title>Node9</title>
<g id="a_node9"><a xlink:href="_s_l_a_a_b_box_8cpp.html" target="_top" xlink:title=" ">
<polygon fill="white" stroke="black" points="1791.75,-114.5 1791.75,-134.5 1876,-134.5 1876,-114.5 1791.75,-114.5"/>
<text text-anchor="middle" x="1833.88" y="-121" font-family="Arial" font-size="10.00">SLAABBox.cpp</text>
</a>
</g>
</g>
<!-- Node4&#45;&gt;Node9 -->
<g id="edge9" class="edge">
<title>Node4&#45;&gt;Node9</title>
<path fill="none" stroke="midnightblue" d="M1308.6,-177.85C1396.62,-172.15 1604.48,-157.38 1777.88,-135 1782.47,-134.41 1787.27,-133.71 1792.04,-132.97"/>
<polygon fill="midnightblue" stroke="midnightblue" points="1308.48,-174.42 1298.73,-178.55 1308.93,-181.4 1308.48,-174.42"/>
</g>
<!-- Node10 -->
<g id="node10" class="node">
<title>Node10</title>
<g id="a_node10"><a xlink:href="_s_l_anim_manager_8cpp.html" target="_top" xlink:title=" ">
<polygon fill="white" stroke="black" points="1931.5,-114.5 1931.5,-134.5 2038.25,-134.5 2038.25,-114.5 1931.5,-114.5"/>
<text text-anchor="middle" x="1984.88" y="-121" font-family="Arial" font-size="10.00">SLAnimManager.cpp</text>
</a>
</g>
</g>
<!-- Node4&#45;&gt;Node10 -->
<g id="edge10" class="edge">
<title>Node4&#45;&gt;Node10</title>
<path fill="none" stroke="midnightblue" d="M1308.53,-178.58C1412.78,-173.65 1688.69,-159.21 1917.88,-135 1922.31,-134.53 1926.91,-133.99 1931.52,-133.41"/>
<polygon fill="midnightblue" stroke="midnightblue" points="1308.66,-175.11 1298.83,-179.08 1308.98,-182.11 1308.66,-175.11"/>
</g>
<!-- Node4&#45;&gt;Node11 -->
<g id="edge11" class="edge">
<title>Node4&#45;&gt;Node11</title>
<path fill="none" stroke="midnightblue" d="M1223.26,-180.68C1035.98,-181.19 291.16,-180.34 197.88,-135 172.16,-122.5 153.48,-92.5 145.36,-77.44"/>
<polygon fill="midnightblue" stroke="midnightblue" points="1223.04,-184.18 1233.03,-180.64 1223.02,-177.18 1223.04,-184.18"/>
</g>
<!-- Node12 -->
<g id="node12" class="node">
<title>Node12</title>
<g id="a_node12"><a xlink:href="_s_l_animation_8cpp.html" target="_top" xlink:title=" ">
<polygon fill="white" stroke="black" points="206.75,-114.5 206.75,-134.5 297,-134.5 297,-114.5 206.75,-114.5"/>
<text text-anchor="middle" x="251.88" y="-121" font-family="Arial" font-size="10.00">SLAnimation.cpp</text>
</a>
</g>
</g>
<!-- Node4&#45;&gt;Node12 -->
<g id="edge12" class="edge">
<title>Node4&#45;&gt;Node12</title>
<path fill="none" stroke="midnightblue" d="M1223.64,-180.4C1089.17,-179.7 659.12,-174.28 305.88,-135 302.94,-134.67 299.93,-134.29 296.89,-133.86"/>
<polygon fill="midnightblue" stroke="midnightblue" points="1223.25,-183.91 1233.27,-180.45 1223.29,-176.91 1223.25,-183.91"/>
</g>
<!-- Node13 -->
<g id="node13" class="node">
<title>Node13</title>
<g id="a_node13"><a xlink:href="_s_l_background_8cpp.html" target="_top" xlink:title=" ">
<polygon fill="white" stroke="black" points="314.62,-114.5 314.62,-134.5 413.12,-134.5 413.12,-114.5 314.62,-114.5"/>
<text text-anchor="middle" x="363.88" y="-121" font-family="Arial" font-size="10.00">SLBackground.cpp</text>
</a>
</g>
</g>
<!-- Node4&#45;&gt;Node13 -->
<g id="edge13" class="edge">
<title>Node4&#45;&gt;Node13</title>
<path fill="none" stroke="midnightblue" d="M1223.12,-179.79C1099.07,-177.38 728.48,-167.76 422.88,-135 419.68,-134.66 416.39,-134.26 413.08,-133.82"/>
<polygon fill="midnightblue" stroke="midnightblue" points="1222.94,-183.3 1233.01,-179.99 1223.08,-176.31 1222.94,-183.3"/>
</g>
<!-- Node14 -->
<g id="node14" class="node">
<title>Node14</title>
<g id="a_node14"><a xlink:href="_s_l_curve_bezier_8cpp.html" target="_top" xlink:title=" ">
<polygon fill="white" stroke="black" points="431.5,-114.5 431.5,-134.5 532.25,-134.5 532.25,-114.5 431.5,-114.5"/>
<text text-anchor="middle" x="481.88" y="-121" font-family="Arial" font-size="10.00">SLCurveBezier.cpp</text>
</a>
</g>
</g>
<!-- Node4&#45;&gt;Node14 -->
<g id="edge14" class="edge">
<title>Node4&#45;&gt;Node14</title>
<path fill="none" stroke="midnightblue" d="M1223.14,-179.27C1110.97,-175.71 798.98,-163.81 540.88,-135 537.99,-134.68 535.03,-134.31 532.04,-133.92"/>
<polygon fill="midnightblue" stroke="midnightblue" points="1222.87,-182.79 1232.98,-179.6 1223.09,-175.79 1222.87,-182.79"/>
</g>
<!-- Node15 -->
<g id="node15" class="node">
<title>Node15</title>
<g id="a_node15"><a xlink:href="_s_l_g_l_im_gui_8cpp.html" target="_top" xlink:title=" ">
<polygon fill="white" stroke="black" points="2362,-57.5 2362,-77.5 2447.75,-77.5 2447.75,-57.5 2362,-57.5"/>
<text text-anchor="middle" x="2404.88" y="-64" font-family="Arial" font-size="10.00">SLGLImGui.cpp</text>
</a>
</g>
</g>
<!-- Node4&#45;&gt;Node15 -->
<g id="edge15" class="edge">
<title>Node4&#45;&gt;Node15</title>
<path fill="none" stroke="midnightblue" d="M1308.6,-178.42C1409.5,-173.17 1660.18,-158.17 1740.88,-135 1760.93,-129.24 1762.72,-119.43 1782.88,-114 2027.96,-47.92 2100.92,-108.86 2352.88,-78 2355.88,-77.63 2358.98,-77.2 2362.09,-76.73"/>
<polygon fill="midnightblue" stroke="midnightblue" points="1308.42,-174.97 1298.61,-178.98 1308.78,-181.96 1308.42,-174.97"/>
</g>
<!-- Node16 -->
<g id="node16" class="node">
<title>Node16</title>
<g id="a_node16"><a xlink:href="_s_l_g_l_o_v_r_workaround_8h.html" target="_top" xlink:title=" ">
<polygon fill="white" stroke="black" points="2395,-114.5 2395,-134.5 2516.75,-134.5 2516.75,-114.5 2395,-114.5"/>
<text text-anchor="middle" x="2455.88" y="-121" font-family="Arial" font-size="10.00">SLGLOVRWorkaround.h</text>
</a>
</g>
</g>
<!-- Node4&#45;&gt;Node16 -->
<g id="edge16" class="edge">
<title>Node4&#45;&gt;Node16</title>
<path fill="none" stroke="midnightblue" d="M1308.75,-180.06C1457.35,-178.27 1964.1,-169.84 2380.88,-135 2385.58,-134.61 2390.45,-134.14 2395.34,-133.62"/>
<polygon fill="midnightblue" stroke="midnightblue" points="1308.83,-176.57 1298.87,-180.19 1308.91,-183.57 1308.83,-176.57"/>
</g>
<!-- Node18 -->
<g id="node18" class="node">
<title>Node18</title>
<g id="a_node18"><a xlink:href="_s_l_g_l_oculus_f_b_8cpp.html" target="_top" xlink:title=" ">
<polygon fill="white" stroke="black" points="550.38,-114.5 550.38,-134.5 653.38,-134.5 653.38,-114.5 550.38,-114.5"/>
<text text-anchor="middle" x="601.88" y="-121" font-family="Arial" font-size="10.00">SLGLOculusFB.cpp</text>
</a>
</g>
</g>
<!-- Node4&#45;&gt;Node18 -->
<g id="edge18" class="edge">
<title>Node4&#45;&gt;Node18</title>
<path fill="none" stroke="midnightblue" d="M1223.37,-178.45C1124.69,-173.45 872.51,-159.19 662.88,-135 659.68,-134.63 656.4,-134.22 653.09,-133.78"/>
<polygon fill="midnightblue" stroke="midnightblue" points="1222.92,-181.98 1233.08,-178.99 1223.27,-174.99 1222.92,-181.98"/>
</g>
<!-- Node19 -->
<g id="node19" class="node">
<title>Node19</title>
<g id="a_node19"><a xlink:href="_s_l_g_l_program_8cpp.html" target="_top" xlink:title=" ">
<polygon fill="white" stroke="black" points="671.75,-114.5 671.75,-134.5 768,-134.5 768,-114.5 671.75,-114.5"/>
<text text-anchor="middle" x="719.88" y="-121" font-family="Arial" font-size="10.00">SLGLProgram.cpp</text>
</a>
</g>
</g>
<!-- Node4&#45;&gt;Node19 -->
<g id="edge19" class="edge">
<title>Node4&#45;&gt;Node19</title>
<path fill="none" stroke="midnightblue" d="M1223.27,-177.58C1138.2,-171.51 941.35,-156.33 776.88,-135 773.89,-134.61 770.82,-134.19 767.73,-133.73"/>
<polygon fill="midnightblue" stroke="midnightblue" points="1222.81,-181.13 1233.04,-178.34 1223.31,-174.14 1222.81,-181.13"/>
</g>
<!-- Node20 -->
<g id="node20" class="node">
<title>Node20</title>
<g id="a_node20"><a xlink:href="_s_l_g_l_texture_8cpp.html" target="_top" xlink:title=" ">
<polygon fill="white" stroke="black" points="786.38,-114.5 786.38,-134.5 877.38,-134.5 877.38,-114.5 786.38,-114.5"/>
<text text-anchor="middle" x="831.88" y="-121" font-family="Arial" font-size="10.00">SLGLTexture.cpp</text>
</a>
</g>
</g>
<!-- Node4&#45;&gt;Node20 -->
<g id="edge20" class="edge">
<title>Node4&#45;&gt;Node20</title>
<path fill="none" stroke="midnightblue" d="M1223.5,-176.13C1153.35,-168.74 1008.72,-152.82 886.88,-135 883.71,-134.54 880.45,-134.04 877.17,-133.51"/>
<polygon fill="midnightblue" stroke="midnightblue" points="1222.8,-179.68 1233.11,-177.25 1223.53,-172.72 1222.8,-179.68"/>
</g>
<!-- Node21 -->
<g id="node21" class="node">
<title>Node21</title>
<g id="a_node21"><a xlink:href="_s_l_g_l_texture_i_b_l_8cpp.html" target="_top" xlink:title=" ">
<polygon fill="white" stroke="black" points="895.88,-114.5 895.88,-134.5 1001.88,-134.5 1001.88,-114.5 895.88,-114.5"/>
<text text-anchor="middle" x="948.88" y="-121" font-family="Arial" font-size="10.00">SLGLTextureIBL.cpp</text>
</a>
</g>
</g>
<!-- Node4&#45;&gt;Node21 -->
<g id="edge21" class="edge">
<title>Node4&#45;&gt;Node21</title>
<path fill="none" stroke="midnightblue" d="M1223.46,-173.14C1165.77,-163.13 1062.64,-145.24 1000.52,-134.46"/>
<polygon fill="midnightblue" stroke="midnightblue" points="1222.58,-176.71 1233.03,-174.97 1223.77,-169.82 1222.58,-176.71"/>
</g>
<!-- Node22 -->
<g id="node22" class="node">
<title>Node22</title>
<g id="a_node22"><a xlink:href="_s_l_g_l_vertex_array_8cpp.html" target="_top" xlink:title=" ">
<polygon fill="white" stroke="black" points="1020.38,-114.5 1020.38,-134.5 1129.38,-134.5 1129.38,-114.5 1020.38,-114.5"/>
<text text-anchor="middle" x="1074.88" y="-121" font-family="Arial" font-size="10.00">SLGLVertexArray.cpp</text>
</a>
</g>
</g>
<!-- Node4&#45;&gt;Node22 -->
<g id="edge22" class="edge">
<title>Node4&#45;&gt;Node22</title>
<path fill="none" stroke="midnightblue" d="M1224.22,-168.51C1188.61,-158.25 1138.16,-143.72 1105.97,-134.46"/>
<polygon fill="midnightblue" stroke="midnightblue" points="1223.18,-172.14 1233.76,-171.54 1225.12,-165.41 1223.18,-172.14"/>
</g>
<!-- Node23 -->
<g id="node23" class="node">
<title>Node23</title>
<g id="a_node23"><a xlink:href="_s_l_light_direct_8cpp.html" target="_top" xlink:title=" ">
<polygon fill="white" stroke="black" points="385.88,-57.5 385.88,-77.5 479.88,-77.5 479.88,-57.5 385.88,-57.5"/>
<text text-anchor="middle" x="432.88" y="-64" font-family="Arial" font-size="10.00">SLLightDirect.cpp</text>
</a>
</g>
</g>
<!-- Node4&#45;&gt;Node23 -->
<g id="edge23" class="edge">
<title>Node4&#45;&gt;Node23</title>
<path fill="none" stroke="midnightblue" d="M1246.46,-164.8C1223.95,-146.95 1187.89,-119.56 1171.88,-114 1028.29,-64.15 639.94,-94.74 488.88,-78 485.93,-77.67 482.91,-77.29 479.87,-76.88"/>
<polygon fill="midnightblue" stroke="midnightblue" points="1243.91,-168.04 1253.91,-171.55 1248.28,-162.57 1243.91,-168.04"/>
</g>
<!-- Node24 -->
<g id="node24" class="node">
<title>Node24</title>
<g id="a_node24"><a xlink:href="_s_l_light_rect_8cpp.html" target="_top" xlink:title=" ">
<polygon fill="white" stroke="black" points="497.5,-57.5 497.5,-77.5 586.25,-77.5 586.25,-57.5 497.5,-57.5"/>
<text text-anchor="middle" x="541.88" y="-64" font-family="Arial" font-size="10.00">SLLightRect.cpp</text>
</a>
</g>
</g>
<!-- Node4&#45;&gt;Node24 -->
<g id="edge24" class="edge">
<title>Node4&#45;&gt;Node24</title>
<path fill="none" stroke="midnightblue" d="M1256.23,-162.27C1246.74,-146.43 1230.68,-124.43 1209.88,-114 1087.49,-52.65 730.82,-94.11 594.88,-78 592,-77.66 589.04,-77.26 586.06,-76.83"/>
<polygon fill="midnightblue" stroke="midnightblue" points="1253.53,-163.62 1261.49,-170.61 1259.63,-160.18 1253.53,-163.62"/>
</g>
<!-- Node25 -->
<g id="node25" class="node">
<title>Node25</title>
<g id="a_node25"><a xlink:href="_s_l_light_spot_8cpp.html" target="_top" xlink:title=" ">
<polygon fill="white" stroke="black" points="603.88,-57.5 603.88,-77.5 691.88,-77.5 691.88,-57.5 603.88,-57.5"/>
<text text-anchor="middle" x="647.88" y="-64" font-family="Arial" font-size="10.00">SLLightSpot.cpp</text>
</a>
</g>
</g>
<!-- Node4&#45;&gt;Node25 -->
<g id="edge25" class="edge">
<title>Node4&#45;&gt;Node25</title>
<path fill="none" stroke="midnightblue" d="M1308.86,-179.45C1375.64,-176.81 1499.52,-167.53 1526.88,-135 1532.88,-127.86 1533.33,-120.74 1526.88,-114 1495.11,-80.82 746.53,-83.06 700.88,-78 697.9,-77.67 694.84,-77.27 691.77,-76.83"/>
<polygon fill="midnightblue" stroke="midnightblue" points="1308.74,-175.99 1298.87,-179.84 1308.99,-182.98 1308.74,-175.99"/>
</g>
<!-- Node26 -->
<g id="node26" class="node">
<title>Node26</title>
<g id="a_node26"><a xlink:href="_s_l_node_8cpp.html" target="_top" xlink:title=" ">
<polygon fill="white" stroke="black" points="2579.88,-57.5 2579.88,-77.5 2649.88,-77.5 2649.88,-57.5 2579.88,-57.5"/>
<text text-anchor="middle" x="2614.88" y="-64" font-family="Arial" font-size="10.00">SLNode.cpp</text>
</a>
</g>
</g>
<!-- Node4&#45;&gt;Node26 -->
<g id="edge26" class="edge">
<title>Node4&#45;&gt;Node26</title>
<path fill="none" stroke="midnightblue" d="M1308.24,-179.74C1429.55,-177.21 1776.46,-167.25 1884.88,-135 1903.37,-129.5 1904.33,-119.34 1922.88,-114 2061.47,-74.12 2427.95,-97.28 2570.88,-78 2573.82,-77.6 2576.86,-77.11 2579.9,-76.57"/>
<polygon fill="midnightblue" stroke="midnightblue" points="1308.48,-176.26 1298.55,-179.96 1308.62,-183.26 1308.48,-176.26"/>
</g>
<!-- Node27 -->
<g id="node27" class="node">
<title>Node27</title>
<g id="a_node27"><a xlink:href="_s_l_scene_8cpp.html" target="_top" xlink:title=" ">
<polygon fill="white" stroke="black" points="1261.62,-114.5 1261.62,-134.5 1336.12,-134.5 1336.12,-114.5 1261.62,-114.5"/>
<text text-anchor="middle" x="1298.88" y="-121" font-family="Arial" font-size="10.00">SLScene.cpp</text>
</a>
</g>
</g>
<!-- Node4&#45;&gt;Node27 -->
<g id="edge27" class="edge">
<title>Node4&#45;&gt;Node27</title>
<path fill="none" stroke="midnightblue" d="M1276.66,-162.53C1282.36,-153.03 1289.1,-141.8 1293.65,-134.21"/>
<polygon fill="midnightblue" stroke="midnightblue" points="1273.18,-160.53 1271.03,-170.91 1279.18,-164.13 1273.18,-160.53"/>
</g>
<!-- Node28 -->
<g id="node28" class="node">
<title>Node28</title>
<g id="a_node28"><a xlink:href="_s_l_scene_view_8h.html" target="_top" xlink:title=" ">
<polygon fill="white" stroke="red" points="1574.38,-114.5 1574.38,-134.5 1659.38,-134.5 1659.38,-114.5 1574.38,-114.5"/>
<text text-anchor="middle" x="1616.88" y="-121" font-family="Arial" font-size="10.00">SLSceneView.h</text>
</a>
</g>
</g>
<!-- Node4&#45;&gt;Node28 -->
<g id="edge28" class="edge">
<title>Node4&#45;&gt;Node28</title>
<path fill="none" stroke="midnightblue" d="M1308.44,-174.07C1365.64,-165.39 1470.47,-149.37 1559.88,-135 1564.63,-134.24 1569.6,-133.42 1574.55,-132.61"/>
<polygon fill="midnightblue" stroke="midnightblue" points="1308.02,-170.75 1298.65,-175.71 1309.06,-177.67 1308.02,-170.75"/>
</g>
<!-- Node48 -->
<g id="node43" class="node">
<title>Node48</title>
<g id="a_node43"><a xlink:href="_s_l_tex_font_8cpp.html" target="_top" xlink:title=" ">
<polygon fill="white" stroke="black" points="1354.25,-114.5 1354.25,-134.5 1435.5,-134.5 1435.5,-114.5 1354.25,-114.5"/>
<text text-anchor="middle" x="1394.88" y="-121" font-family="Arial" font-size="10.00">SLTexFont.cpp</text>
</a>
</g>
</g>
<!-- Node4&#45;&gt;Node48 -->
<g id="edge55" class="edge">
<title>Node4&#45;&gt;Node48</title>
<path fill="none" stroke="midnightblue" d="M1296.85,-167.29C1320.68,-157.13 1352.98,-143.36 1373.87,-134.46"/>
<polygon fill="midnightblue" stroke="midnightblue" points="1295.71,-164.4 1287.89,-171.54 1298.46,-170.84 1295.71,-164.4"/>
</g>
<!-- Node49 -->
<g id="node44" class="node">
<title>Node49</title>
<g id="a_node44"><a xlink:href="_s_l_text_8cpp.html" target="_top" xlink:title=" ">
<polygon fill="white" stroke="black" points="1453.5,-114.5 1453.5,-134.5 1518.25,-134.5 1518.25,-114.5 1453.5,-114.5"/>
<text text-anchor="middle" x="1485.88" y="-121" font-family="Arial" font-size="10.00">SLText.cpp</text>
</a>
</g>
</g>
<!-- Node4&#45;&gt;Node49 -->
<g id="edge56" class="edge">
<title>Node4&#45;&gt;Node49</title>
<path fill="none" stroke="midnightblue" d="M1308.45,-169.86C1351,-159.22 1415.46,-143.1 1453.85,-133.51"/>
<polygon fill="midnightblue" stroke="midnightblue" points="1307.72,-166.68 1298.86,-172.5 1309.42,-173.47 1307.72,-166.68"/>
</g>
<!-- Node17 -->
<g id="node17" class="node">
<title>Node17</title>
<g id="a_node17"><a xlink:href="_s_l_g_l_oculus_8cpp.html" target="_top" xlink:title=" ">
<polygon fill="white" stroke="black" points="2705.75,-57.5 2705.75,-77.5 2796,-77.5 2796,-57.5 2705.75,-57.5"/>
<text text-anchor="middle" x="2750.88" y="-64" font-family="Arial" font-size="10.00">SLGLOculus.cpp</text>
</a>
</g>
</g>
<!-- Node16&#45;&gt;Node17 -->
<g id="edge17" class="edge">
<title>Node16&#45;&gt;Node17</title>
<path fill="none" stroke="midnightblue" d="M2514.48,-112.57C2570.91,-102.05 2655.03,-86.37 2706.22,-76.82"/>
<polygon fill="midnightblue" stroke="midnightblue" points="2514.12,-109.27 2504.93,-114.54 2515.4,-116.15 2514.12,-109.27"/>
</g>
<!-- Node28&#45;&gt;Node5 -->
<g id="edge29" class="edge">
<title>Node28&#45;&gt;Node5</title>
<path fill="none" stroke="midnightblue" d="M1669.8,-114.52C1671.17,-114.34 1672.53,-114.17 1673.88,-114 1870.8,-89.67 1921.82,-101.28 2118.88,-78 2123.56,-77.45 2128.43,-76.8 2133.3,-76.12"/>
<polygon fill="midnightblue" stroke="midnightblue" points="1669.55,-111.17 1660.15,-116.05 1670.54,-118.1 1669.55,-111.17"/>
</g>
<!-- Node28&#45;&gt;Node6 -->
<g id="edge30" class="edge">
<title>Node28&#45;&gt;Node6</title>
<path fill="none" stroke="midnightblue" d="M1669.68,-117.92C1683.41,-116.56 1698.19,-115.15 1711.88,-114 1944.49,-94.38 2003.99,-104.9 2235.88,-78 2238.71,-77.67 2241.62,-77.3 2244.56,-76.9"/>
<polygon fill="midnightblue" stroke="midnightblue" points="1669.54,-114.52 1659.94,-119.01 1670.24,-121.49 1669.54,-114.52"/>
</g>
<!-- Node28&#45;&gt;Node7 -->
<g id="edge31" class="edge">
<title>Node28&#45;&gt;Node7</title>
<path fill="none" stroke="midnightblue" d="M1563.95,-114.51C1562.58,-114.33 1561.22,-114.16 1559.88,-114 1505.12,-107.46 1107.67,-112.78 1064.88,-78 1047.36,-63.76 1045.32,-34.57 1045.48,-20.07"/>
<polygon fill="midnightblue" stroke="midnightblue" points="1563.21,-118.08 1573.6,-116.01 1564.19,-111.15 1563.21,-118.08"/>
</g>
<!-- Node28&#45;&gt;Node8 -->
<g id="edge35" class="edge">
<title>Node28&#45;&gt;Node8</title>
<path fill="none" stroke="midnightblue" d="M1669.8,-114.54C1671.17,-114.35 1672.53,-114.17 1673.88,-114 1765.05,-102.44 2014.98,-136.49 2085.88,-78 2103.29,-63.63 2105.37,-34.5 2105.25,-20.04"/>
<polygon fill="midnightblue" stroke="midnightblue" points="1669.55,-111.18 1660.15,-116.08 1670.55,-118.11 1669.55,-111.18"/>
</g>
<!-- Node28&#45;&gt;Node11 -->
<g id="edge36" class="edge">
<title>Node28&#45;&gt;Node11</title>
<path fill="none" stroke="midnightblue" d="M1563.9,-117.22C1551.75,-115.97 1538.88,-114.8 1526.88,-114 946.6,-75.45 798.82,-121.2 218.88,-78 210.98,-77.41 202.67,-76.6 194.52,-75.7"/>
<polygon fill="midnightblue" stroke="midnightblue" points="1563.5,-120.8 1573.81,-118.38 1564.24,-113.84 1563.5,-120.8"/>
</g>
<!-- Node28&#45;&gt;Node15 -->
<g id="edge39" class="edge">
<title>Node28&#45;&gt;Node15</title>
<path fill="none" stroke="midnightblue" d="M1669.91,-119.57C1694.27,-117.8 1723.53,-115.73 1749.88,-114 2017.78,-96.44 2086.33,-110.18 2352.88,-78 2355.88,-77.64 2358.98,-77.21 2362.09,-76.74"/>
<polygon fill="midnightblue" stroke="midnightblue" points="1669.81,-116.14 1660.1,-120.36 1670.32,-123.12 1669.81,-116.14"/>
</g>
<!-- Node28&#45;&gt;Node23 -->
<g id="edge42" class="edge">
<title>Node28&#45;&gt;Node23</title>
<path fill="none" stroke="midnightblue" d="M1563.9,-117.28C1551.75,-116.03 1538.87,-114.84 1526.88,-114 1066.39,-81.75 948.12,-124.71 488.88,-78 485.93,-77.7 482.91,-77.34 479.87,-76.94"/>
<polygon fill="midnightblue" stroke="midnightblue" points="1563.49,-120.86 1573.81,-118.44 1564.23,-113.9 1563.49,-120.86"/>
</g>
<!-- Node28&#45;&gt;Node24 -->
<g id="edge43" class="edge">
<title>Node28&#45;&gt;Node24</title>
<path fill="none" stroke="midnightblue" d="M1563.89,-117.31C1551.74,-116.06 1538.87,-114.86 1526.88,-114 1113.41,-84.23 1006.99,-122.68 594.88,-78 591.99,-77.69 589.03,-77.31 586.06,-76.89"/>
<polygon fill="midnightblue" stroke="midnightblue" points="1563.49,-120.9 1573.8,-118.47 1564.23,-113.94 1563.49,-120.9"/>
</g>
<!-- Node28&#45;&gt;Node25 -->
<g id="edge44" class="edge">
<title>Node28&#45;&gt;Node25</title>
<path fill="none" stroke="midnightblue" d="M1563.96,-114.45C1562.59,-114.29 1561.22,-114.14 1559.88,-114 1179.81,-74.52 1080.69,-119.8 700.88,-78 697.9,-77.67 694.84,-77.28 691.77,-76.84"/>
<polygon fill="midnightblue" stroke="midnightblue" points="1563.25,-118.02 1573.62,-115.86 1564.17,-111.08 1563.25,-118.02"/>
</g>
<!-- Node28&#45;&gt;Node26 -->
<g id="edge47" class="edge">
<title>Node28&#45;&gt;Node26</title>
<path fill="none" stroke="midnightblue" d="M1669.82,-120.31C1702.41,-118.39 1745.06,-115.95 1782.88,-114 2133,-95.98 2223.21,-123.15 2570.88,-78 2573.82,-77.62 2576.86,-77.14 2579.9,-76.6"/>
<polygon fill="midnightblue" stroke="midnightblue" points="1669.95,-116.86 1660.17,-120.94 1670.36,-123.85 1669.95,-116.86"/>
</g>
<!-- Node29 -->
<g id="node29" class="node">
<title>Node29</title>
<g id="a_node29"><a xlink:href="_app_demo_scene_view_8h.html" target="_top" xlink:title=" ">
<polygon fill="white" stroke="red" points="1438.62,-57.5 1438.62,-77.5 1555.12,-77.5 1555.12,-57.5 1438.62,-57.5"/>
<text text-anchor="middle" x="1496.88" y="-64" font-family="Arial" font-size="10.00">AppDemoSceneView.h</text>
</a>
</g>
</g>
<!-- Node28&#45;&gt;Node29 -->
<g id="edge32" class="edge">
<title>Node28&#45;&gt;Node29</title>
<path fill="none" stroke="midnightblue" d="M1587.46,-110.02C1565.35,-99.89 1535.67,-86.28 1516.41,-77.46"/>
<polygon fill="midnightblue" stroke="midnightblue" points="1585.78,-113.56 1596.33,-114.54 1588.7,-107.19 1585.78,-113.56"/>
</g>
<!-- Node31 -->
<g id="node30" class="node">
<title>Node31</title>
<g id="a_node30"><a xlink:href="_s_l_anim_track_8cpp.html" target="_top" xlink:title=" ">
<polygon fill="white" stroke="black" points="227.88,-57.5 227.88,-77.5 321.88,-77.5 321.88,-57.5 227.88,-57.5"/>
<text text-anchor="middle" x="274.88" y="-64" font-family="Arial" font-size="10.00">SLAnimTrack.cpp</text>
</a>
</g>
</g>
<!-- Node28&#45;&gt;Node31 -->
<g id="edge37" class="edge">
<title>Node28&#45;&gt;Node31</title>
<path fill="none" stroke="midnightblue" d="M1563.9,-117.25C1551.75,-116 1538.88,-114.82 1526.88,-114 1016.7,-79.14 887.25,-109.73 376.88,-78 358.86,-76.88 339.09,-75.15 321.8,-73.48"/>
<polygon fill="midnightblue" stroke="midnightblue" points="1563.49,-120.83 1573.81,-118.41 1564.23,-113.87 1563.49,-120.83"/>
</g>
<!-- Node32 -->
<g id="node31" class="node">
<title>Node32</title>
<g id="a_node31"><a xlink:href="_s_l_camera_8cpp.html" target="_top" xlink:title=" ">
<polygon fill="white" stroke="black" points="936.25,-57.5 936.25,-77.5 1017.5,-77.5 1017.5,-57.5 936.25,-57.5"/>
<text text-anchor="middle" x="976.88" y="-64" font-family="Arial" font-size="10.00">SLCamera.cpp</text>
</a>
</g>
</g>
<!-- Node28&#45;&gt;Node32 -->
<g id="edge38" class="edge">
<title>Node28&#45;&gt;Node32</title>
<path fill="none" stroke="midnightblue" d="M1563.95,-114.5C1562.58,-114.32 1561.22,-114.16 1559.88,-114 1326.26,-86.63 1265.41,-106.05 1031.88,-78 1027.16,-77.43 1022.24,-76.74 1017.35,-75.98"/>
<polygon fill="midnightblue" stroke="midnightblue" points="1563.22,-118.07 1573.61,-115.99 1564.19,-111.14 1563.22,-118.07"/>
</g>
<!-- Node33 -->
<g id="node32" class="node">
<title>Node33</title>
<g id="a_node32"><a xlink:href="_s_l_input_manager_8cpp.html" target="_top" xlink:title=" ">
<polygon fill="white" stroke="black" points="1073.88,-57.5 1073.88,-77.5 1179.88,-77.5 1179.88,-57.5 1073.88,-57.5"/>
<text text-anchor="middle" x="1126.88" y="-64" font-family="Arial" font-size="10.00">SLInputManager.cpp</text>
</a>
</g>
</g>
<!-- Node28&#45;&gt;Node33 -->
<g id="edge40" class="edge">
<title>Node28&#45;&gt;Node33</title>
<path fill="none" stroke="midnightblue" d="M1563.95,-114.55C1562.58,-114.36 1561.22,-114.18 1559.88,-114 1395.63,-92.37 1353.26,-98.55 1188.88,-78 1185.85,-77.62 1182.74,-77.21 1179.61,-76.78"/>
<polygon fill="midnightblue" stroke="midnightblue" points="1563.19,-118.13 1573.59,-116.12 1564.21,-111.2 1563.19,-118.13"/>
</g>
<!-- Node34 -->
<g id="node33" class="node">
<title>Node34</title>
<g id="a_node33"><a xlink:href="_s_l_keyframe_camera_8cpp.html" target="_top" xlink:title=" ">
<polygon fill="white" stroke="black" points="1198.25,-57.5 1198.25,-77.5 1321.5,-77.5 1321.5,-57.5 1198.25,-57.5"/>
<text text-anchor="middle" x="1259.88" y="-64" font-family="Arial" font-size="10.00">SLKeyframeCamera.cpp</text>
</a>
</g>
</g>
<!-- Node28&#45;&gt;Node34 -->
<g id="edge41" class="edge">
<title>Node28&#45;&gt;Node34</title>
<path fill="none" stroke="midnightblue" d="M1563.93,-114.65C1562.57,-114.43 1561.21,-114.21 1559.88,-114 1477.16,-100.83 1381.46,-86.47 1320.82,-77.48"/>
<polygon fill="midnightblue" stroke="midnightblue" points="1563.12,-118.23 1573.55,-116.38 1564.24,-111.32 1563.12,-118.23"/>
</g>
<!-- Node35 -->
<g id="node34" class="node">
<title>Node35</title>
<g id="a_node34"><a xlink:href="_s_l_material_8cpp.html" target="_top" xlink:title=" ">
<polygon fill="white" stroke="black" points="1339.25,-57.5 1339.25,-77.5 1420.5,-77.5 1420.5,-57.5 1339.25,-57.5"/>
<text text-anchor="middle" x="1379.88" y="-64" font-family="Arial" font-size="10.00">SLMaterial.cpp</text>
</a>
</g>
</g>
<!-- Node28&#45;&gt;Node35 -->
<g id="edge45" class="edge">
<title>Node28&#45;&gt;Node35</title>
<path fill="none" stroke="midnightblue" d="M1567.74,-112.1C1523.44,-101.82 1459.17,-86.9 1418.46,-77.46"/>
<polygon fill="midnightblue" stroke="midnightblue" points="1566.74,-115.69 1577.27,-114.54 1568.32,-108.87 1566.74,-115.69"/>
</g>
<!-- Node36 -->
<g id="node35" class="node">
<title>Node36</title>
<g id="a_node35"><a xlink:href="_s_l_mesh_8cpp.html" target="_top" xlink:title=" ">
<polygon fill="white" stroke="black" points="1573.5,-57.5 1573.5,-77.5 1644.25,-77.5 1644.25,-57.5 1573.5,-57.5"/>
<text text-anchor="middle" x="1608.88" y="-64" font-family="Arial" font-size="10.00">SLMesh.cpp</text>
</a>
</g>
</g>
<!-- Node28&#45;&gt;Node36 -->
<g id="edge46" class="edge">
<title>Node28&#45;&gt;Node36</title>
<path fill="none" stroke="midnightblue" d="M1614.08,-104.31C1612.74,-95.08 1611.2,-84.48 1610.14,-77.21"/>
<polygon fill="midnightblue" stroke="midnightblue" points="1610.72,-104.51 1615.62,-113.91 1617.65,-103.51 1610.72,-104.51"/>
</g>
<!-- Node37 -->
<g id="node36" class="node">
<title>Node37</title>
<g id="a_node36"><a xlink:href="_s_l_node_l_o_d_8cpp.html" target="_top" xlink:title=" ">
<polygon fill="white" stroke="black" points="1662.75,-57.5 1662.75,-77.5 1753,-77.5 1753,-57.5 1662.75,-57.5"/>
<text text-anchor="middle" x="1707.88" y="-64" font-family="Arial" font-size="10.00">SLNodeLOD.cpp</text>
</a>
</g>
</g>
<!-- Node28&#45;&gt;Node37 -->
<g id="edge48" class="edge">
<title>Node28&#45;&gt;Node37</title>
<path fill="none" stroke="midnightblue" d="M1640.58,-109.17C1657.15,-99.16 1678.78,-86.08 1692.99,-77.5"/>
<polygon fill="midnightblue" stroke="midnightblue" points="1639.24,-106.5 1632.5,-114.66 1642.86,-112.49 1639.24,-106.5"/>
</g>
<!-- Node38 -->
<g id="node37" class="node">
<title>Node38</title>
<g id="a_node37"><a xlink:href="_s_l_particle_system_8cpp.html" target="_top" xlink:title=" ">
<polygon fill="white" stroke="black" points="1771.12,-57.5 1771.12,-77.5 1884.62,-77.5 1884.62,-57.5 1771.12,-57.5"/>
<text text-anchor="middle" x="1827.88" y="-64" font-family="Arial" font-size="10.00">SLParticleSystem.cpp</text>
</a>
</g>
</g>
<!-- Node28&#45;&gt;Node38 -->
<g id="edge49" class="edge">
<title>Node28&#45;&gt;Node38</title>
<path fill="none" stroke="midnightblue" d="M1661.87,-111.77C1701.27,-101.5 1757.66,-86.8 1793.52,-77.46"/>
<polygon fill="midnightblue" stroke="midnightblue" points="1661.04,-108.63 1652.25,-114.54 1662.8,-115.41 1661.04,-108.63"/>
</g>
<!-- Node39 -->
<g id="node38" class="node">
<title>Node39</title>
<g id="a_node38"><a xlink:href="_s_l_pathtracer_8cpp.html" target="_top" xlink:title=" ">
<polygon fill="white" stroke="black" points="1903,-57.5 1903,-77.5 1994.75,-77.5 1994.75,-57.5 1903,-57.5"/>
<text text-anchor="middle" x="1948.88" y="-64" font-family="Arial" font-size="10.00">SLPathtracer.cpp</text>
</a>
</g>
</g>
<!-- Node28&#45;&gt;Node39 -->
<g id="edge50" class="edge">
<title>Node28&#45;&gt;Node39</title>
<path fill="none" stroke="midnightblue" d="M1669.82,-114.67C1671.18,-114.44 1672.54,-114.22 1673.88,-114 1771.63,-97.86 1796.17,-94.43 1893.88,-78 1896.93,-77.49 1900.09,-76.95 1903.26,-76.41"/>
<polygon fill="midnightblue" stroke="midnightblue" points="1669.5,-111.34 1660.21,-116.43 1670.64,-118.25 1669.5,-111.34"/>
</g>
<!-- Node40 -->
<g id="node39" class="node">
<title>Node40</title>
<g id="a_node39"><a xlink:href="_s_l_ray_8cpp.html" target="_top" xlink:title=" ">
<polygon fill="white" stroke="black" points="2012.88,-57.5 2012.88,-77.5 2076.88,-77.5 2076.88,-57.5 2012.88,-57.5"/>
<text text-anchor="middle" x="2044.88" y="-64" font-family="Arial" font-size="10.00">SLRay.cpp</text>
</a>
</g>
</g>
<!-- Node28&#45;&gt;Node40 -->
<g id="edge51" class="edge">
<title>Node28&#45;&gt;Node40</title>
<path fill="none" stroke="midnightblue" d="M1669.8,-114.57C1671.17,-114.38 1672.53,-114.18 1673.88,-114 1820.03,-93.86 1858.42,-102.7 2003.88,-78 2006.9,-77.49 2010.04,-76.89 2013.17,-76.24"/>
<polygon fill="midnightblue" stroke="midnightblue" points="1669.53,-111.23 1660.17,-116.18 1670.58,-118.15 1669.53,-111.23"/>
</g>
<!-- Node41 -->
<g id="node40" class="node">
<title>Node41</title>
<g id="a_node40"><a xlink:href="_s_l_raytracer_8cpp.html" target="_top" xlink:title=" ">
<polygon fill="white" stroke="black" points="710.12,-57.5 710.12,-77.5 799.62,-77.5 799.62,-57.5 710.12,-57.5"/>
<text text-anchor="middle" x="754.88" y="-64" font-family="Arial" font-size="10.00">SLRaytracer.cpp</text>
</a>
</g>
</g>
<!-- Node28&#45;&gt;Node41 -->
<g id="edge52" class="edge">
<title>Node28&#45;&gt;Node41</title>
<path fill="none" stroke="midnightblue" d="M1563.96,-114.46C1562.58,-114.3 1561.22,-114.14 1559.88,-114 1227.61,-78.47 1140.98,-115.02 808.88,-78 805.85,-77.66 802.73,-77.26 799.6,-76.82"/>
<polygon fill="midnightblue" stroke="midnightblue" points="1563.24,-118.03 1573.62,-115.89 1564.17,-111.1 1563.24,-118.03"/>
</g>
<!-- Node28&#45;&gt;Node42 -->
<g id="edge53" class="edge">
<title>Node28&#45;&gt;Node42</title>
<path fill="none" stroke="midnightblue" d="M1669.82,-120.42C1702.42,-118.53 1745.07,-116.09 1782.88,-114 2082.4,-97.43 2158.68,-110.71 2456.88,-78 2459.97,-77.66 2463.15,-77.26 2466.34,-76.83"/>
<polygon fill="midnightblue" stroke="midnightblue" points="1669.96,-116.96 1660.17,-121.03 1670.36,-123.95 1669.96,-116.96"/>
</g>
<!-- Node43 -->
<g id="node42" class="node">
<title>Node43</title>
<g id="a_node42"><a xlink:href="_s_l_shadow_map_8cpp.html" target="_top" xlink:title=" ">
<polygon fill="white" stroke="black" points="817.5,-57.5 817.5,-77.5 918.25,-77.5 918.25,-57.5 817.5,-57.5"/>
<text text-anchor="middle" x="867.88" y="-64" font-family="Arial" font-size="10.00">SLShadowMap.cpp</text>
</a>
</g>
</g>
<!-- Node28&#45;&gt;Node43 -->
<g id="edge54" class="edge">
<title>Node28&#45;&gt;Node43</title>
<path fill="none" stroke="midnightblue" d="M1563.96,-114.48C1562.58,-114.31 1561.22,-114.15 1559.88,-114 1279.82,-82.79 1207.01,-108.44 926.88,-78 923.99,-77.69 921.02,-77.33 918.04,-76.94"/>
<polygon fill="midnightblue" stroke="midnightblue" points="1563.23,-118.05 1573.61,-115.93 1564.18,-111.11 1563.23,-118.05"/>
</g>
<!-- Node29&#45;&gt;Node7 -->
<g id="edge33" class="edge">
<title>Node29&#45;&gt;Node7</title>
<path fill="none" stroke="midnightblue" d="M1428.06,-56.79C1309.36,-41.43 1183.05,-26.88 1109.12,-18.54"/>
<polygon fill="midnightblue" stroke="midnightblue" points="1427.41,-60.36 1437.78,-58.18 1428.32,-53.42 1427.41,-60.36"/>
</g>
<!-- Node29&#45;&gt;Node8 -->
<g id="edge34" class="edge">
<title>Node29&#45;&gt;Node8</title>
<path fill="none" stroke="midnightblue" d="M1565.9,-56.95C1752.01,-36.38 1959.1,-21.32 2053.41,-14.89"/>
<polygon fill="midnightblue" stroke="midnightblue" points="1565.64,-53.57 1556.09,-58.15 1566.41,-60.53 1565.64,-53.57"/>
</g>
<!-- Node51&#45;&gt;Node2 -->
<g id="edge63" class="edge">
<title>Node51&#45;&gt;Node2</title>
<path fill="none" stroke="midnightblue" d="M675.26,-348.55C576.9,-342.57 353.17,-327.7 165.88,-306 161.15,-305.45 156.24,-304.82 151.33,-304.15"/>
<polygon fill="midnightblue" stroke="midnightblue" points="674.87,-352.1 685.06,-349.21 675.29,-345.11 674.87,-352.1"/>
</g>
<!-- Node51&#45;&gt;Node3 -->
<g id="edge61" class="edge">
<title>Node51&#45;&gt;Node3</title>
<path fill="none" stroke="midnightblue" d="M726.13,-331.93C727.43,-316.89 731.75,-296.76 744.88,-285 776.44,-256.72 895.92,-245.71 963.87,-241.67"/>
<polygon fill="midnightblue" stroke="midnightblue" points="722.6,-331.49 725.63,-341.65 729.59,-331.82 722.6,-331.49"/>
</g>
<!-- Node51&#45;&gt;Node26 -->
<g id="edge68" class="edge">
<title>Node51&#45;&gt;Node26</title>
<path fill="none" stroke="midnightblue" d="M776.38,-351.17C1073.71,-348.88 2582.88,-332.67 2582.88,-239.5 2582.88,-239.5 2582.88,-239.5 2582.88,-180.5 2582.88,-140.66 2601.82,-95.81 2610.56,-77.26"/>
<polygon fill="midnightblue" stroke="midnightblue" points="776.49,-347.67 766.52,-351.25 776.55,-354.67 776.49,-347.67"/>
</g>
<!-- Node51&#45;&gt;Node31 -->
<g id="edge64" class="edge">
<title>Node51&#45;&gt;Node31</title>
<path fill="none" stroke="midnightblue" d="M675.6,-348.46C566.25,-338.8 307.79,-298.87 197.88,-135 181.05,-109.92 221.06,-88.67 249.48,-77.33"/>
<polygon fill="midnightblue" stroke="midnightblue" points="675.07,-352.01 685.33,-349.35 675.65,-345.03 675.07,-352.01"/>
</g>
<!-- Node52 -->
<g id="node47" class="node">
<title>Node52</title>
<g id="a_node47"><a xlink:href="_s_l_anim_playback_8cpp.html" target="_top" xlink:title=" ">
<polygon fill="white" stroke="black" points="754,-285.5 754,-305.5 863.75,-305.5 863.75,-285.5 754,-285.5"/>
<text text-anchor="middle" x="808.88" y="-292" font-family="Arial" font-size="10.00">SLAnimPlayback.cpp</text>
</a>
</g>
</g>
<!-- Node51&#45;&gt;Node52 -->
<g id="edge62" class="edge">
<title>Node51&#45;&gt;Node52</title>
<path fill="none" stroke="midnightblue" d="M748.35,-336.61C763.35,-326.67 782.58,-313.92 795.3,-305.5"/>
<polygon fill="midnightblue" stroke="midnightblue" points="746.61,-334.22 740.21,-342.66 750.48,-340.06 746.61,-334.22"/>
</g>
<!-- Node53 -->
<g id="node48" class="node">
<title>Node53</title>
<g id="a_node48"><a xlink:href="_s_l_importer_8h.html" target="_top" xlink:title=" ">
<polygon fill="white" stroke="black" points="2615.75,-285.5 2615.75,-305.5 2688,-305.5 2688,-285.5 2615.75,-285.5"/>
<text text-anchor="middle" x="2651.88" y="-292" font-family="Arial" font-size="10.00">SLImporter.h</text>
</a>
</g>
</g>
<!-- Node51&#45;&gt;Node53 -->
<g id="edge65" class="edge">
<title>Node51&#45;&gt;Node53</title>
<path fill="none" stroke="midnightblue" d="M776.24,-351.28C1036.27,-349.97 2228.87,-342.06 2596.88,-306 2603.05,-305.4 2609.57,-304.5 2615.88,-303.5"/>
<polygon fill="midnightblue" stroke="midnightblue" points="776.6,-347.78 766.62,-351.33 776.63,-354.78 776.6,-347.78"/>
</g>
<!-- Node54 -->
<g id="node49" class="node">
<title>Node54</title>
<g id="a_node49"><a xlink:href="_s_l_device_location_8cpp.html" target="_top" xlink:title=" ">
<polygon fill="white" stroke="black" points="2711.75,-228.5 2711.75,-248.5 2826,-248.5 2826,-228.5 2711.75,-228.5"/>
<text text-anchor="middle" x="2768.88" y="-235" font-family="Arial" font-size="10.00">SLDeviceLocation.cpp</text>
</a>
</g>
</g>
<!-- Node53&#45;&gt;Node54 -->
<g id="edge66" class="edge">
<title>Node53&#45;&gt;Node54</title>
<path fill="none" stroke="midnightblue" d="M2680.84,-280.88C2702.37,-270.76 2731.13,-257.24 2749.82,-248.46"/>
<polygon fill="midnightblue" stroke="midnightblue" points="2679.49,-278.12 2671.93,-285.54 2682.47,-284.45 2679.49,-278.12"/>
</g>
<!-- Node55 -->
<g id="node50" class="node">
<title>Node55</title>
<g id="a_node50"><a xlink:href="_s_l_importer_8cpp.html" target="_top" xlink:title=" ">
<polygon fill="white" stroke="black" points="2610.5,-228.5 2610.5,-248.5 2693.25,-248.5 2693.25,-228.5 2610.5,-228.5"/>
<text text-anchor="middle" x="2651.88" y="-235" font-family="Arial" font-size="10.00">SLImporter.cpp</text>
</a>
</g>
</g>
<!-- Node53&#45;&gt;Node55 -->
<g id="edge67" class="edge">
<title>Node53&#45;&gt;Node55</title>
<path fill="none" stroke="midnightblue" d="M2651.88,-275C2651.88,-265.85 2651.88,-255.39 2651.88,-248.21"/>
<polygon fill="midnightblue" stroke="midnightblue" points="2648.38,-274.91 2651.88,-284.91 2655.38,-274.91 2648.38,-274.91"/>
</g>
</g>
</svg>
