<?xml version="1.0" encoding="UTF-8" standalone="no"?>
<!DOCTYPE svg PUBLIC "-//W3C//DTD SVG 1.1//EN"
 "http://www.w3.org/Graphics/SVG/1.1/DTD/svg11.dtd">
<!-- Generated by graphviz version 2.36.0 (20140111.2315)
 -->
<!-- Title: SLAnimTrack.cpp Pages: 1 -->
<svg width="3018pt" height="420pt"
 viewBox="0.00 0.00 3018.00 420.00" xmlns="http://www.w3.org/2000/svg" xmlns:xlink="http://www.w3.org/1999/xlink">
<g id="graph0" class="graph" transform="scale(1 1) rotate(0) translate(4 416)">
<title>SLAnimTrack.cpp</title>
<polygon fill="white" stroke="none" points="-4,4 -4,-416 3014,-416 3014,4 -4,4"/>
<!-- Node1 -->
<g id="node1" class="node"><title>Node1</title>
<polygon fill="#bfbfbf" stroke="black" points="2747.5,-392.5 2747.5,-411.5 2842.5,-411.5 2842.5,-392.5 2747.5,-392.5"/>
<text text-anchor="middle" x="2795" y="-399.5" font-family="Arial.ttf" font-size="10.00">SLAnimTrack.cpp</text>
</g>
<!-- Node2 -->
<g id="node2" class="node"><title>Node2</title>
<g id="a_node2"><a xlink:href="stdafx_8h.html" target="_top" xlink:title="stdafx.h">
<polygon fill="white" stroke="red" points="1353,-336.5 1353,-355.5 1405,-355.5 1405,-336.5 1353,-336.5"/>
<text text-anchor="middle" x="1379" y="-343.5" font-family="Arial.ttf" font-size="10.00">stdafx.h</text>
</a>
</g>
</g>
<!-- Node1&#45;&gt;Node2 -->
<g id="edge1" class="edge"><title>Node1&#45;&gt;Node2</title>
<path fill="none" stroke="midnightblue" d="M2747.48,-399.188C2527.51,-390.799 1610.49,-355.828 1415.54,-348.393"/>
<polygon fill="midnightblue" stroke="midnightblue" points="1415.39,-344.885 1405.27,-348.002 1415.13,-351.88 1415.39,-344.885"/>
</g>
<!-- Node47 -->
<g id="node47" class="node"><title>Node47</title>
<g id="a_node47"><a xlink:href="_s_l_anim_track_8h.html" target="_top" xlink:title="SLAnimTrack.h">
<polygon fill="white" stroke="red" points="2821.5,-280.5 2821.5,-299.5 2906.5,-299.5 2906.5,-280.5 2821.5,-280.5"/>
<text text-anchor="middle" x="2864" y="-287.5" font-family="Arial.ttf" font-size="10.00">SLAnimTrack.h</text>
</a>
</g>
</g>
<!-- Node1&#45;&gt;Node47 -->
<g id="edge77" class="edge"><title>Node1&#45;&gt;Node47</title>
<path fill="none" stroke="midnightblue" d="M2795.99,-392.387C2797.81,-379.326 2802.61,-354.116 2814,-336 2821.31,-324.376 2832.45,-313.938 2842.36,-306.048"/>
<polygon fill="midnightblue" stroke="midnightblue" points="2844.76,-308.625 2850.63,-299.805 2840.54,-303.039 2844.76,-308.625"/>
</g>
<!-- Node48 -->
<g id="node48" class="node"><title>Node48</title>
<g id="a_node48"><a xlink:href="_s_l_animation_8h.html" target="_top" xlink:title="SLAnimation.h">
<polygon fill="white" stroke="red" points="2823,-336.5 2823,-355.5 2905,-355.5 2905,-336.5 2823,-336.5"/>
<text text-anchor="middle" x="2864" y="-343.5" font-family="Arial.ttf" font-size="10.00">SLAnimation.h</text>
</a>
</g>
</g>
<!-- Node1&#45;&gt;Node48 -->
<g id="edge80" class="edge"><title>Node1&#45;&gt;Node48</title>
<path fill="none" stroke="midnightblue" d="M2806.09,-392.324C2816.49,-384.185 2832.26,-371.839 2844.72,-362.087"/>
<polygon fill="midnightblue" stroke="midnightblue" points="2846.99,-364.753 2852.71,-355.834 2842.68,-359.241 2846.99,-364.753"/>
</g>
<!-- Node49 -->
<g id="node49" class="node"><title>Node49</title>
<g id="a_node49"><a xlink:href="_s_l_curve_bezier_8h.html" target="_top" xlink:title="SLCurveBezier.h">
<polygon fill="white" stroke="red" points="797,-336.5 797,-355.5 889,-355.5 889,-336.5 797,-336.5"/>
<text text-anchor="middle" x="843" y="-343.5" font-family="Arial.ttf" font-size="10.00">SLCurveBezier.h</text>
</a>
</g>
</g>
<!-- Node1&#45;&gt;Node49 -->
<g id="edge83" class="edge"><title>Node1&#45;&gt;Node49</title>
<path fill="none" stroke="midnightblue" d="M2747.23,-399.679C2481.43,-392.325 1186.26,-356.496 899.352,-348.559"/>
<polygon fill="midnightblue" stroke="midnightblue" points="899.274,-345.056 889.181,-348.278 899.081,-352.053 899.274,-345.056"/>
</g>
<!-- Node50 -->
<g id="node50" class="node"><title>Node50</title>
<g id="a_node50"><a xlink:href="_s_l_scene_view_8h.html" target="_top" xlink:title="SLSceneView.h">
<polygon fill="white" stroke="red" points="2923.5,-336.5 2923.5,-355.5 3010.5,-355.5 3010.5,-336.5 2923.5,-336.5"/>
<text text-anchor="middle" x="2967" y="-343.5" font-family="Arial.ttf" font-size="10.00">SLSceneView.h</text>
</a>
</g>
</g>
<!-- Node1&#45;&gt;Node50 -->
<g id="edge85" class="edge"><title>Node1&#45;&gt;Node50</title>
<path fill="none" stroke="midnightblue" d="M2822.25,-392.444C2851.44,-383.28 2897.92,-368.688 2930.31,-358.519"/>
<polygon fill="midnightblue" stroke="midnightblue" points="2931.38,-361.851 2939.87,-355.516 2929.28,-355.173 2931.38,-361.851"/>
</g>
<!-- Node3 -->
<g id="node3" class="node"><title>Node3</title>
<polygon fill="white" stroke="#bfbfbf" points="538,-280.5 538,-299.5 596,-299.5 596,-280.5 538,-280.5"/>
<text text-anchor="middle" x="567" y="-287.5" font-family="Arial.ttf" font-size="10.00">algorithm</text>
</g>
<!-- Node2&#45;&gt;Node3 -->
<g id="edge2" class="edge"><title>Node2&#45;&gt;Node3</title>
<path fill="none" stroke="midnightblue" d="M1352.77,-345.128C1255.21,-345.257 904.016,-342.647 606.478,-299.958"/>
<polygon fill="midnightblue" stroke="midnightblue" points="606.76,-296.463 596.361,-298.488 605.753,-303.39 606.76,-296.463"/>
</g>
<!-- Node4 -->
<g id="node4" class="node"><title>Node4</title>
<polygon fill="white" stroke="#bfbfbf" points="614,-280.5 614,-299.5 660,-299.5 660,-280.5 614,-280.5"/>
<text text-anchor="middle" x="637" y="-287.5" font-family="Arial.ttf" font-size="10.00">atomic</text>
</g>
<!-- Node2&#45;&gt;Node4 -->
<g id="edge3" class="edge"><title>Node2&#45;&gt;Node4</title>
<path fill="none" stroke="midnightblue" d="M1352.9,-344.974C1259.98,-344.535 936.801,-340.035 674,-300 672.75,-299.81 671.48,-299.597 670.201,-299.368"/>
<polygon fill="midnightblue" stroke="midnightblue" points="670.866,-295.931 660.365,-297.337 669.451,-302.787 670.866,-295.931"/>
</g>
<!-- Node5 -->
<g id="node5" class="node"><title>Node5</title>
<polygon fill="white" stroke="#bfbfbf" points="2019.5,-280.5 2019.5,-299.5 2066.5,-299.5 2066.5,-280.5 2019.5,-280.5"/>
<text text-anchor="middle" x="2043" y="-287.5" font-family="Arial.ttf" font-size="10.00">chrono</text>
</g>
<!-- Node2&#45;&gt;Node5 -->
<g id="edge4" class="edge"><title>Node2&#45;&gt;Node5</title>
<path fill="none" stroke="midnightblue" d="M1405.06,-344.954C1490.52,-344.426 1769.98,-339.691 2009.4,-299.731"/>
<polygon fill="midnightblue" stroke="midnightblue" points="2010.06,-303.17 2019.33,-298.049 2008.89,-296.268 2010.06,-303.17"/>
</g>
<!-- Node6 -->
<g id="node6" class="node"><title>Node6</title>
<polygon fill="white" stroke="#bfbfbf" points="2161.5,-280.5 2161.5,-299.5 2210.5,-299.5 2210.5,-280.5 2161.5,-280.5"/>
<text text-anchor="middle" x="2186" y="-287.5" font-family="Arial.ttf" font-size="10.00">cstdarg</text>
</g>
<!-- Node2&#45;&gt;Node6 -->
<g id="edge5" class="edge"><title>Node2&#45;&gt;Node6</title>
<path fill="none" stroke="midnightblue" d="M1405.02,-345.057C1502.89,-344.938 1858.13,-341.493 2147,-300 2148.46,-299.79 2149.95,-299.553 2151.45,-299.295"/>
<polygon fill="midnightblue" stroke="midnightblue" points="2152.22,-302.709 2161.36,-297.345 2150.87,-295.841 2152.22,-302.709"/>
</g>
<!-- Node7 -->
<g id="node7" class="node"><title>Node7</title>
<polygon fill="white" stroke="#bfbfbf" points="2389,-280.5 2389,-299.5 2429,-299.5 2429,-280.5 2389,-280.5"/>
<text text-anchor="middle" x="2409" y="-287.5" font-family="Arial.ttf" font-size="10.00">ctime</text>
</g>
<!-- Node2&#45;&gt;Node7 -->
<g id="edge6" class="edge"><title>Node2&#45;&gt;Node7</title>
<path fill="none" stroke="midnightblue" d="M1405.29,-344.727C1541.1,-343.183 2164.72,-334.403 2378.99,-299.641"/>
<polygon fill="midnightblue" stroke="midnightblue" points="2379.61,-303.087 2388.88,-297.966 2378.44,-296.185 2379.61,-303.087"/>
</g>
<!-- Node8 -->
<g id="node8" class="node"><title>Node8</title>
<polygon fill="white" stroke="#bfbfbf" points="2523,-280.5 2523,-299.5 2573,-299.5 2573,-280.5 2523,-280.5"/>
<text text-anchor="middle" x="2548" y="-287.5" font-family="Arial.ttf" font-size="10.00">fstream</text>
</g>
<!-- Node2&#45;&gt;Node8 -->
<g id="edge7" class="edge"><title>Node2&#45;&gt;Node8</title>
<path fill="none" stroke="midnightblue" d="M1405.16,-344.623C1553.01,-342.392 2285.46,-329.976 2509,-300 2510.28,-299.829 2511.58,-299.635 2512.88,-299.422"/>
<polygon fill="midnightblue" stroke="midnightblue" points="2513.78,-302.815 2522.95,-297.507 2512.47,-295.938 2513.78,-302.815"/>
</g>
<!-- Node9 -->
<g id="node9" class="node"><title>Node9</title>
<polygon fill="white" stroke="#bfbfbf" points="2667.5,-280.5 2667.5,-299.5 2726.5,-299.5 2726.5,-280.5 2667.5,-280.5"/>
<text text-anchor="middle" x="2697" y="-287.5" font-family="Arial.ttf" font-size="10.00">functional</text>
</g>
<!-- Node2&#45;&gt;Node9 -->
<g id="edge8" class="edge"><title>Node2&#45;&gt;Node9</title>
<path fill="none" stroke="midnightblue" d="M1405.04,-344.671C1563.4,-342.584 2398.76,-330.278 2653,-300 2654.45,-299.827 2655.93,-299.631 2657.41,-299.417"/>
<polygon fill="midnightblue" stroke="midnightblue" points="2658,-302.868 2667.29,-297.776 2656.85,-295.963 2658,-302.868"/>
</g>
<!-- Node10 -->
<g id="node10" class="node"><title>Node10</title>
<polygon fill="white" stroke="#bfbfbf" points="104,-280.5 104,-299.5 156,-299.5 156,-280.5 104,-280.5"/>
<text text-anchor="middle" x="130" y="-287.5" font-family="Arial.ttf" font-size="10.00">iomanip</text>
</g>
<!-- Node2&#45;&gt;Node10 -->
<g id="edge9" class="edge"><title>Node2&#45;&gt;Node10</title>
<path fill="none" stroke="midnightblue" d="M1352.99,-344.371C1191.53,-340.426 328.099,-318.682 166.643,-299.752"/>
<polygon fill="midnightblue" stroke="midnightblue" points="166.619,-296.22 156.25,-298.394 165.713,-303.161 166.619,-296.22"/>
</g>
<!-- Node11 -->
<g id="node11" class="node"><title>Node11</title>
<polygon fill="white" stroke="#bfbfbf" points="1460.5,-112.5 1460.5,-131.5 1515.5,-131.5 1515.5,-112.5 1460.5,-112.5"/>
<text text-anchor="middle" x="1488" y="-119.5" font-family="Arial.ttf" font-size="10.00">iostream</text>
</g>
<!-- Node2&#45;&gt;Node11 -->
<g id="edge10" class="edge"><title>Node2&#45;&gt;Node11</title>
<path fill="none" stroke="midnightblue" d="M1405.23,-344.899C1564.95,-344.157 2401.15,-338.445 2438,-300 2570.02,-162.253 1717.53,-129.554 1525.74,-123.974"/>
<polygon fill="midnightblue" stroke="midnightblue" points="1525.67,-120.471 1515.58,-123.686 1525.48,-127.468 1525.67,-120.471"/>
</g>
<!-- Node12 -->
<g id="node12" class="node"><title>Node12</title>
<polygon fill="white" stroke="#bfbfbf" points="716.5,-280.5 716.5,-299.5 745.5,-299.5 745.5,-280.5 716.5,-280.5"/>
<text text-anchor="middle" x="731" y="-287.5" font-family="Arial.ttf" font-size="10.00">list</text>
</g>
<!-- Node2&#45;&gt;Node12 -->
<g id="edge11" class="edge"><title>Node2&#45;&gt;Node12</title>
<path fill="none" stroke="midnightblue" d="M1352.73,-344.108C1252.14,-340.542 890.85,-326.312 755.622,-299.338"/>
<polygon fill="midnightblue" stroke="midnightblue" points="756.029,-295.847 745.522,-297.203 754.582,-302.695 756.029,-295.847"/>
</g>
<!-- Node13 -->
<g id="node13" class="node"><title>Node13</title>
<polygon fill="white" stroke="#bfbfbf" points="2485,-224.5 2485,-243.5 2521,-243.5 2521,-224.5 2485,-224.5"/>
<text text-anchor="middle" x="2503" y="-231.5" font-family="Arial.ttf" font-size="10.00">map</text>
</g>
<!-- Node2&#45;&gt;Node13 -->
<g id="edge12" class="edge"><title>Node2&#45;&gt;Node13</title>
<path fill="none" stroke="midnightblue" d="M1405.04,-344.676C1566.43,-342.575 2424.92,-330.013 2471,-300 2486.95,-289.616 2495.22,-268.806 2499.32,-253.518"/>
<polygon fill="midnightblue" stroke="midnightblue" points="2502.77,-254.122 2501.62,-243.591 2495.95,-252.543 2502.77,-254.122"/>
</g>
<!-- Node14 -->
<g id="node14" class="node"><title>Node14</title>
<polygon fill="white" stroke="#bfbfbf" points="764,-280.5 764,-299.5 808,-299.5 808,-280.5 764,-280.5"/>
<text text-anchor="middle" x="786" y="-287.5" font-family="Arial.ttf" font-size="10.00">queue</text>
</g>
<!-- Node2&#45;&gt;Node14 -->
<g id="edge13" class="edge"><title>Node2&#45;&gt;Node14</title>
<path fill="none" stroke="midnightblue" d="M1352.99,-344.784C1273.83,-343.734 1028.93,-337.597 818.228,-299.857"/>
<polygon fill="midnightblue" stroke="midnightblue" points="818.687,-296.383 808.222,-298.036 817.433,-303.27 818.687,-296.383"/>
</g>
<!-- Node15 -->
<g id="node15" class="node"><title>Node15</title>
<polygon fill="white" stroke="#bfbfbf" points="826,-280.5 826,-299.5 876,-299.5 876,-280.5 826,-280.5"/>
<text text-anchor="middle" x="851" y="-287.5" font-family="Arial.ttf" font-size="10.00">random</text>
</g>
<!-- Node2&#45;&gt;Node15 -->
<g id="edge14" class="edge"><title>Node2&#45;&gt;Node15</title>
<path fill="none" stroke="midnightblue" d="M1352.82,-344.162C1280.16,-341.512 1069.82,-331.632 886.25,-299.932"/>
<polygon fill="midnightblue" stroke="midnightblue" points="886.6,-296.44 876.146,-298.16 885.391,-303.335 886.6,-296.44"/>
</g>
<!-- Node16 -->
<g id="node16" class="node"><title>Node16</title>
<polygon fill="white" stroke="#bfbfbf" points="2144,-224.5 2144,-243.5 2196,-243.5 2196,-224.5 2144,-224.5"/>
<text text-anchor="middle" x="2170" y="-231.5" font-family="Arial.ttf" font-size="10.00">sstream</text>
</g>
<!-- Node2&#45;&gt;Node16 -->
<g id="edge15" class="edge"><title>Node2&#45;&gt;Node16</title>
<path fill="none" stroke="midnightblue" d="M1405.27,-344.525C1528.29,-342.145 2044.29,-330.414 2109,-300 2130.81,-289.752 2148.65,-267.928 2159.29,-252.399"/>
<polygon fill="midnightblue" stroke="midnightblue" points="2162.42,-253.993 2164.95,-243.703 2156.56,-250.173 2162.42,-253.993"/>
</g>
<!-- Node17 -->
<g id="node17" class="node"><title>Node17</title>
<polygon fill="white" stroke="#bfbfbf" points="2226.5,-224.5 2226.5,-243.5 2267.5,-243.5 2267.5,-224.5 2226.5,-224.5"/>
<text text-anchor="middle" x="2247" y="-231.5" font-family="Arial.ttf" font-size="10.00">string</text>
</g>
<!-- Node2&#45;&gt;Node17 -->
<g id="edge16" class="edge"><title>Node2&#45;&gt;Node17</title>
<path fill="none" stroke="midnightblue" d="M1405.38,-345.217C1540.45,-346.114 2150.86,-347.501 2219,-300 2234.25,-289.37 2241.25,-268.605 2244.43,-253.395"/>
<polygon fill="midnightblue" stroke="midnightblue" points="2247.88,-253.975 2246.13,-243.526 2240.99,-252.786 2247.88,-253.975"/>
</g>
<!-- Node18 -->
<g id="node18" class="node"><title>Node18</title>
<polygon fill="white" stroke="#bfbfbf" points="894.5,-280.5 894.5,-299.5 939.5,-299.5 939.5,-280.5 894.5,-280.5"/>
<text text-anchor="middle" x="917" y="-287.5" font-family="Arial.ttf" font-size="10.00">thread</text>
</g>
<!-- Node2&#45;&gt;Node18 -->
<g id="edge17" class="edge"><title>Node2&#45;&gt;Node18</title>
<path fill="none" stroke="midnightblue" d="M1352.6,-343.8C1286.34,-340.458 1107.66,-329.409 949.517,-299.76"/>
<polygon fill="midnightblue" stroke="midnightblue" points="950.09,-296.306 939.612,-297.873 948.78,-303.182 950.09,-296.306"/>
</g>
<!-- Node19 -->
<g id="node19" class="node"><title>Node19</title>
<polygon fill="white" stroke="#bfbfbf" points="958,-280.5 958,-299.5 1010,-299.5 1010,-280.5 958,-280.5"/>
<text text-anchor="middle" x="984" y="-287.5" font-family="Arial.ttf" font-size="10.00">typeinfo</text>
</g>
<!-- Node2&#45;&gt;Node19 -->
<g id="edge18" class="edge"><title>Node2&#45;&gt;Node19</title>
<path fill="none" stroke="midnightblue" d="M1352.62,-342.862C1294.39,-337.897 1150.32,-324.263 1020.41,-300.057"/>
<polygon fill="midnightblue" stroke="midnightblue" points="1020.77,-296.562 1010.29,-298.144 1019.47,-303.44 1020.77,-296.562"/>
</g>
<!-- Node20 -->
<g id="node20" class="node"><title>Node20</title>
<polygon fill="white" stroke="#bfbfbf" points="1028,-280.5 1028,-299.5 1072,-299.5 1072,-280.5 1028,-280.5"/>
<text text-anchor="middle" x="1050" y="-287.5" font-family="Arial.ttf" font-size="10.00">vector</text>
</g>
<!-- Node2&#45;&gt;Node20 -->
<g id="edge19" class="edge"><title>Node2&#45;&gt;Node20</title>
<path fill="none" stroke="midnightblue" d="M1352.88,-342.237C1302.35,-336.641 1187.62,-322.71 1082.11,-299.999"/>
<polygon fill="midnightblue" stroke="midnightblue" points="1082.78,-296.561 1072.26,-297.846 1081.28,-303.4 1082.78,-296.561"/>
</g>
<!-- Node21 -->
<g id="node21" class="node"><title>Node21</title>
<polygon fill="white" stroke="#bfbfbf" points="1090.5,-280.5 1090.5,-299.5 1143.5,-299.5 1143.5,-280.5 1090.5,-280.5"/>
<text text-anchor="middle" x="1117" y="-287.5" font-family="Arial.ttf" font-size="10.00">memory</text>
</g>
<!-- Node2&#45;&gt;Node21 -->
<g id="edge20" class="edge"><title>Node2&#45;&gt;Node21</title>
<path fill="none" stroke="midnightblue" d="M1352.81,-340.212C1312.35,-332.722 1231.97,-317.481 1153.73,-300.073"/>
<polygon fill="midnightblue" stroke="midnightblue" points="1154.23,-296.598 1143.7,-297.828 1152.7,-303.429 1154.23,-296.598"/>
</g>
<!-- Node22 -->
<g id="node22" class="node"><title>Node22</title>
<polygon fill="white" stroke="#bfbfbf" points="446,-168.5 446,-187.5 498,-187.5 498,-168.5 446,-168.5"/>
<text text-anchor="middle" x="472" y="-175.5" font-family="Arial.ttf" font-size="10.00">assert.h</text>
</g>
<!-- Node2&#45;&gt;Node22 -->
<g id="edge21" class="edge"><title>Node2&#45;&gt;Node22</title>
<path fill="none" stroke="midnightblue" d="M1352.71,-344.563C1209.58,-342.071 529.237,-328.739 496,-300 466.8,-274.751 466.821,-225.071 469.39,-197.881"/>
<polygon fill="midnightblue" stroke="midnightblue" points="472.891,-198.079 470.57,-187.742 465.938,-197.271 472.891,-198.079"/>
</g>
<!-- Node23 -->
<g id="node23" class="node"><title>Node23</title>
<polygon fill="white" stroke="#bfbfbf" points="1162,-280.5 1162,-299.5 1206,-299.5 1206,-280.5 1162,-280.5"/>
<text text-anchor="middle" x="1184" y="-287.5" font-family="Arial.ttf" font-size="10.00">float.h</text>
</g>
<!-- Node2&#45;&gt;Node23 -->
<g id="edge22" class="edge"><title>Node2&#45;&gt;Node23</title>
<path fill="none" stroke="midnightblue" d="M1352.84,-337.948C1322.27,-329.684 1269.95,-315.449 1215.78,-300.19"/>
<polygon fill="midnightblue" stroke="midnightblue" points="1216.58,-296.78 1206,-297.432 1214.68,-303.516 1216.58,-296.78"/>
</g>
<!-- Node24 -->
<g id="node24" class="node"><title>Node24</title>
<polygon fill="white" stroke="#bfbfbf" points="1224,-280.5 1224,-299.5 1272,-299.5 1272,-280.5 1224,-280.5"/>
<text text-anchor="middle" x="1248" y="-287.5" font-family="Arial.ttf" font-size="10.00">limits.h</text>
</g>
<!-- Node2&#45;&gt;Node24 -->
<g id="edge23" class="edge"><title>Node2&#45;&gt;Node24</title>
<path fill="none" stroke="midnightblue" d="M1358.24,-336.444C1336.68,-327.557 1302.74,-313.563 1278.21,-303.451"/>
<polygon fill="midnightblue" stroke="midnightblue" points="1279.24,-300.092 1268.66,-299.516 1276.57,-306.563 1279.24,-300.092"/>
</g>
<!-- Node25 -->
<g id="node25" class="node"><title>Node25</title>
<polygon fill="white" stroke="#bfbfbf" points="1290.5,-280.5 1290.5,-299.5 1337.5,-299.5 1337.5,-280.5 1290.5,-280.5"/>
<text text-anchor="middle" x="1314" y="-287.5" font-family="Arial.ttf" font-size="10.00">math.h</text>
</g>
<!-- Node2&#45;&gt;Node25 -->
<g id="edge24" class="edge"><title>Node2&#45;&gt;Node25</title>
<path fill="none" stroke="midnightblue" d="M1368.56,-336.324C1358.85,-328.263 1344.18,-316.077 1332.5,-306.369"/>
<polygon fill="midnightblue" stroke="midnightblue" points="1334.56,-303.532 1324.63,-299.834 1330.09,-308.916 1334.56,-303.532"/>
</g>
<!-- Node26 -->
<g id="node26" class="node"><title>Node26</title>
<polygon fill="white" stroke="#bfbfbf" points="1356,-280.5 1356,-299.5 1402,-299.5 1402,-280.5 1356,-280.5"/>
<text text-anchor="middle" x="1379" y="-287.5" font-family="Arial.ttf" font-size="10.00">stdio.h</text>
</g>
<!-- Node2&#45;&gt;Node26 -->
<g id="edge25" class="edge"><title>Node2&#45;&gt;Node26</title>
<path fill="none" stroke="midnightblue" d="M1379,-336.083C1379,-329.006 1379,-318.861 1379,-309.986"/>
<polygon fill="midnightblue" stroke="midnightblue" points="1382.5,-309.751 1379,-299.751 1375.5,-309.751 1382.5,-309.751"/>
</g>
<!-- Node27 -->
<g id="node27" class="node"><title>Node27</title>
<polygon fill="white" stroke="#bfbfbf" points="1420,-280.5 1420,-299.5 1468,-299.5 1468,-280.5 1420,-280.5"/>
<text text-anchor="middle" x="1444" y="-287.5" font-family="Arial.ttf" font-size="10.00">stdlib.h</text>
</g>
<!-- Node2&#45;&gt;Node27 -->
<g id="edge26" class="edge"><title>Node2&#45;&gt;Node27</title>
<path fill="none" stroke="midnightblue" d="M1389.44,-336.324C1399.15,-328.263 1413.82,-316.077 1425.5,-306.369"/>
<polygon fill="midnightblue" stroke="midnightblue" points="1427.91,-308.916 1433.37,-299.834 1423.44,-303.532 1427.91,-308.916"/>
</g>
<!-- Node28 -->
<g id="node28" class="node"><title>Node28</title>
<polygon fill="white" stroke="#bfbfbf" points="1486.5,-280.5 1486.5,-299.5 1535.5,-299.5 1535.5,-280.5 1486.5,-280.5"/>
<text text-anchor="middle" x="1511" y="-287.5" font-family="Arial.ttf" font-size="10.00">string.h</text>
</g>
<!-- Node2&#45;&gt;Node28 -->
<g id="edge27" class="edge"><title>Node2&#45;&gt;Node28</title>
<path fill="none" stroke="midnightblue" d="M1399.92,-336.444C1421.74,-327.517 1456.15,-313.439 1480.89,-303.317"/>
<polygon fill="midnightblue" stroke="midnightblue" points="1482.25,-306.542 1490.18,-299.516 1479.6,-300.063 1482.25,-306.542"/>
</g>
<!-- Node29 -->
<g id="node29" class="node"><title>Node29</title>
<polygon fill="white" stroke="#bfbfbf" points="1554,-280.5 1554,-299.5 1598,-299.5 1598,-280.5 1554,-280.5"/>
<text text-anchor="middle" x="1576" y="-287.5" font-family="Arial.ttf" font-size="10.00">time.h</text>
</g>
<!-- Node2&#45;&gt;Node29 -->
<g id="edge28" class="edge"><title>Node2&#45;&gt;Node29</title>
<path fill="none" stroke="midnightblue" d="M1405.02,-337.971C1437.55,-329.169 1494.93,-313.593 1544,-300 1544.1,-299.972 1544.2,-299.944 1544.3,-299.916"/>
<polygon fill="midnightblue" stroke="midnightblue" points="1545.28,-303.277 1553.97,-297.22 1543.4,-296.534 1545.28,-303.277"/>
</g>
<!-- Node30 -->
<g id="node30" class="node"><title>Node30</title>
<g id="a_node30"><a xlink:href="_s_l_8h.html" target="_top" xlink:title="SL.h">
<polygon fill="white" stroke="red" points="465.5,-0.5 465.5,-19.5 502.5,-19.5 502.5,-0.5 465.5,-0.5"/>
<text text-anchor="middle" x="484" y="-7.5" font-family="Arial.ttf" font-size="10.00">SL.h</text>
</a>
</g>
</g>
<!-- Node2&#45;&gt;Node30 -->
<g id="edge29" class="edge"><title>Node2&#45;&gt;Node30</title>
<path fill="none" stroke="midnightblue" d="M1405.22,-344.988C1589.15,-344.8 2680.18,-341.913 2735,-300 2759.01,-281.642 2755,-265.225 2755,-235 2755,-235 2755,-235 2755,-121 2755,-33.4309 2655.17,-71.5816 2569,-56 2357.8,-17.811 749.162,-11.7601 512.928,-11.0751"/>
<polygon fill="midnightblue" stroke="midnightblue" points="512.737,-7.57463 502.727,-11.0464 512.718,-14.5746 512.737,-7.57463"/>
</g>
<!-- Node31 -->
<g id="node31" class="node"><title>Node31</title>
<g id="a_node31"><a xlink:href="_s_l_enums_8h.html" target="_top" xlink:title="SLEnums.h">
<polygon fill="white" stroke="black" points="2830,-224.5 2830,-243.5 2898,-243.5 2898,-224.5 2830,-224.5"/>
<text text-anchor="middle" x="2864" y="-231.5" font-family="Arial.ttf" font-size="10.00">SLEnums.h</text>
</a>
</g>
</g>
<!-- Node2&#45;&gt;Node31 -->
<g id="edge30" class="edge"><title>Node2&#45;&gt;Node31</title>
<path fill="none" stroke="midnightblue" d="M1405.06,-345.033C1584.57,-345.147 2634.76,-343.922 2769,-300 2799.69,-289.96 2829.48,-266.704 2847.28,-250.911"/>
<polygon fill="midnightblue" stroke="midnightblue" points="2849.99,-253.179 2855.01,-243.849 2845.27,-248.011 2849.99,-253.179"/>
</g>
<!-- Node32 -->
<g id="node32" class="node"><title>Node32</title>
<g id="a_node32"><a xlink:href="_s_l_g_l_state_8h.html" target="_top" xlink:title="SLGLState.h">
<polygon fill="white" stroke="black" points="294,-280.5 294,-299.5 368,-299.5 368,-280.5 294,-280.5"/>
<text text-anchor="middle" x="331" y="-287.5" font-family="Arial.ttf" font-size="10.00">SLGLState.h</text>
</a>
</g>
</g>
<!-- Node2&#45;&gt;Node32 -->
<g id="edge31" class="edge"><title>Node2&#45;&gt;Node32</title>
<path fill="none" stroke="midnightblue" d="M1352.65,-344.285C1240.21,-341.122 789.429,-327.327 420,-300 406.424,-298.996 391.71,-297.624 378.23,-296.254"/>
<polygon fill="midnightblue" stroke="midnightblue" points="378.509,-292.765 368.201,-295.213 377.786,-299.727 378.509,-292.765"/>
</g>
<!-- Node33 -->
<g id="node33" class="node"><title>Node33</title>
<g id="a_node33"><a xlink:href="_s_l_vec3_8h.html" target="_top" xlink:title="SLVec3.h">
<polygon fill="white" stroke="red" points="350,-112.5 350,-131.5 410,-131.5 410,-112.5 350,-112.5"/>
<text text-anchor="middle" x="380" y="-119.5" font-family="Arial.ttf" font-size="10.00">SLVec3.h</text>
</a>
</g>
</g>
<!-- Node2&#45;&gt;Node33 -->
<g id="edge65" class="edge"><title>Node2&#45;&gt;Node33</title>
<path fill="none" stroke="midnightblue" d="M1352.77,-344.527C1212.95,-341.894 560.473,-328.125 529,-300 484.651,-260.37 545.211,-213.577 507,-168 485.585,-142.456 448.66,-131.407 420.127,-126.63"/>
<polygon fill="midnightblue" stroke="midnightblue" points="420.444,-123.139 410.039,-125.139 419.42,-130.063 420.444,-123.139"/>
</g>
<!-- Node34 -->
<g id="node34" class="node"><title>Node34</title>
<g id="a_node34"><a xlink:href="_s_l_vec2_8h.html" target="_top" xlink:title="SLVec2.h">
<polygon fill="white" stroke="red" points="234,-56.5 234,-75.5 294,-75.5 294,-56.5 234,-56.5"/>
<text text-anchor="middle" x="264" y="-63.5" font-family="Arial.ttf" font-size="10.00">SLVec2.h</text>
</a>
</g>
</g>
<!-- Node2&#45;&gt;Node34 -->
<g id="edge64" class="edge"><title>Node2&#45;&gt;Node34</title>
<path fill="none" stroke="midnightblue" d="M1352.84,-344.42C1171.75,-340.365 110.85,-315.957 82,-300 51.4727,-283.116 38,-269.885 38,-235 38,-235 38,-235 38,-177 38,-95.362 158.7,-74.2985 223.684,-68.8742"/>
<polygon fill="midnightblue" stroke="midnightblue" points="224.277,-72.3398 233.989,-68.1059 223.756,-65.3592 224.277,-72.3398"/>
</g>
<!-- Node35 -->
<g id="node35" class="node"><title>Node35</title>
<g id="a_node35"><a xlink:href="_s_l_vec4_8h.html" target="_top" xlink:title="SLVec4.h">
<polygon fill="white" stroke="red" points="178,-168.5 178,-187.5 238,-187.5 238,-168.5 178,-168.5"/>
<text text-anchor="middle" x="208" y="-175.5" font-family="Arial.ttf" font-size="10.00">SLVec4.h</text>
</a>
</g>
</g>
<!-- Node2&#45;&gt;Node35 -->
<g id="edge66" class="edge"><title>Node2&#45;&gt;Node35</title>
<path fill="none" stroke="midnightblue" d="M1352.97,-344.585C1172.82,-341.651 117.671,-323.48 95,-300 57.6131,-261.28 135.385,-214.463 179.846,-192.112"/>
<polygon fill="midnightblue" stroke="midnightblue" points="181.603,-195.149 189.037,-187.6 178.518,-188.865 181.603,-195.149"/>
</g>
<!-- Node36 -->
<g id="node36" class="node"><title>Node36</title>
<g id="a_node36"><a xlink:href="_s_l_mat4_8h.html" target="_top" xlink:title="SLMat4.h">
<polygon fill="white" stroke="red" points="370.5,-224.5 370.5,-243.5 429.5,-243.5 429.5,-224.5 370.5,-224.5"/>
<text text-anchor="middle" x="400" y="-231.5" font-family="Arial.ttf" font-size="10.00">SLMat4.h</text>
</a>
</g>
</g>
<!-- Node2&#45;&gt;Node36 -->
<g id="edge50" class="edge"><title>Node2&#45;&gt;Node36</title>
<path fill="none" stroke="midnightblue" d="M1352.77,-344.289C1206.77,-340.263 499.442,-319.791 458,-300 436.752,-289.853 419.897,-268.007 409.95,-252.445"/>
<polygon fill="midnightblue" stroke="midnightblue" points="412.845,-250.47 404.672,-243.729 406.858,-254.095 412.845,-250.47"/>
</g>
<!-- Node37 -->
<g id="node37" class="node"><title>Node37</title>
<g id="a_node37"><a xlink:href="_s_l_mat3_8h.html" target="_top" xlink:title="SLMat3.h">
<polygon fill="white" stroke="red" points="635.5,-168.5 635.5,-187.5 694.5,-187.5 694.5,-168.5 635.5,-168.5"/>
<text text-anchor="middle" x="665" y="-175.5" font-family="Arial.ttf" font-size="10.00">SLMat3.h</text>
</a>
</g>
</g>
<!-- Node2&#45;&gt;Node37 -->
<g id="edge49" class="edge"><title>Node2&#45;&gt;Node37</title>
<path fill="none" stroke="midnightblue" d="M1405.1,-345.366C1526.08,-346.796 2028.42,-349.691 2075,-300 2081.08,-293.515 2081.06,-286.506 2075,-280 1979.16,-177.052 924.284,-177.49 704.842,-178.706"/>
<polygon fill="midnightblue" stroke="midnightblue" points="704.719,-175.206 694.74,-178.765 704.761,-182.206 704.719,-175.206"/>
</g>
<!-- Node38 -->
<g id="node38" class="node"><title>Node38</title>
<g id="a_node38"><a xlink:href="_s_l_object_8h.html" target="_top" xlink:title="SLObject.h">
<polygon fill="white" stroke="black" points="2454,-56.5 2454,-75.5 2520,-75.5 2520,-56.5 2454,-56.5"/>
<text text-anchor="middle" x="2487" y="-63.5" font-family="Arial.ttf" font-size="10.00">SLObject.h</text>
</a>
</g>
</g>
<!-- Node2&#45;&gt;Node38 -->
<g id="edge51" class="edge"><title>Node2&#45;&gt;Node38</title>
<path fill="none" stroke="midnightblue" d="M1405.22,-344.882C1576.83,-344 2533.98,-337.413 2582,-300 2605.74,-281.501 2601,-265.098 2601,-235 2601,-235 2601,-235 2601,-177 2601,-130.115 2550.45,-96.8944 2516.67,-79.9302"/>
<polygon fill="midnightblue" stroke="midnightblue" points="2518.17,-76.7687 2507.64,-75.5787 2515.13,-83.0742 2518.17,-76.7687"/>
</g>
<!-- Node39 -->
<g id="node39" class="node"><title>Node39</title>
<g id="a_node39"><a xlink:href="_s_l_plane_8h.html" target="_top" xlink:title="SLPlane.h">
<polygon fill="white" stroke="black" points="554.5,-168.5 554.5,-187.5 617.5,-187.5 617.5,-168.5 554.5,-168.5"/>
<text text-anchor="middle" x="586" y="-175.5" font-family="Arial.ttf" font-size="10.00">SLPlane.h</text>
</a>
</g>
</g>
<!-- Node2&#45;&gt;Node39 -->
<g id="edge53" class="edge"><title>Node2&#45;&gt;Node39</title>
<path fill="none" stroke="midnightblue" d="M1352.92,-344.335C1236.41,-341.22 766.624,-327.066 707,-300 656.909,-277.261 615.976,-224.112 597.16,-196.441"/>
<polygon fill="midnightblue" stroke="midnightblue" points="599.884,-194.217 591.447,-187.808 594.046,-198.079 599.884,-194.217"/>
</g>
<!-- Node40 -->
<g id="node40" class="node"><title>Node40</title>
<g id="a_node40"><a xlink:href="_s_l_quat4_8h.html" target="_top" xlink:title="SLQuat4.h">
<polygon fill="white" stroke="red" points="174,-280.5 174,-299.5 238,-299.5 238,-280.5 174,-280.5"/>
<text text-anchor="middle" x="206" y="-287.5" font-family="Arial.ttf" font-size="10.00">SLQuat4.h</text>
</a>
</g>
</g>
<!-- Node2&#45;&gt;Node40 -->
<g id="edge56" class="edge"><title>Node2&#45;&gt;Node40</title>
<path fill="none" stroke="midnightblue" d="M1352.93,-344.503C1205.54,-341.609 475.417,-326.16 252,-300 250.727,-299.851 249.437,-299.686 248.136,-299.508"/>
<polygon fill="midnightblue" stroke="midnightblue" points="248.494,-296.022 238.072,-297.926 247.407,-302.937 248.494,-296.022"/>
</g>
<!-- Node41 -->
<g id="node41" class="node"><title>Node41</title>
<g id="a_node41"><a xlink:href="_s_l_rect_8h.html" target="_top" xlink:title="SLRect.h">
<polygon fill="white" stroke="red" points="256,-168.5 256,-187.5 314,-187.5 314,-168.5 256,-168.5"/>
<text text-anchor="middle" x="285" y="-175.5" font-family="Arial.ttf" font-size="10.00">SLRect.h</text>
</a>
</g>
</g>
<!-- Node2&#45;&gt;Node41 -->
<g id="edge60" class="edge"><title>Node2&#45;&gt;Node41</title>
<path fill="none" stroke="midnightblue" d="M1352.99,-344.424C1188.97,-340.732 304.106,-319.908 285,-300 258.792,-272.692 269.475,-223.886 278.103,-197.37"/>
<polygon fill="midnightblue" stroke="midnightblue" points="281.454,-198.389 281.45,-187.794 274.846,-196.079 281.454,-198.389"/>
</g>
<!-- Node42 -->
<g id="node42" class="node"><title>Node42</title>
<g id="a_node42"><a xlink:href="_s_l_vector_8h.html" target="_top" xlink:title="SLVector.h">
<polygon fill="white" stroke="black" points="2629,-112.5 2629,-131.5 2695,-131.5 2695,-112.5 2629,-112.5"/>
<text text-anchor="middle" x="2662" y="-119.5" font-family="Arial.ttf" font-size="10.00">SLVector.h</text>
</a>
</g>
</g>
<!-- Node2&#45;&gt;Node42 -->
<g id="edge67" class="edge"><title>Node2&#45;&gt;Node42</title>
<path fill="none" stroke="midnightblue" d="M1405.11,-344.924C1579.17,-344.306 2566.05,-339.086 2615,-300 2663.2,-261.512 2665.34,-179.707 2663.55,-142.342"/>
<polygon fill="midnightblue" stroke="midnightblue" points="2667.01,-141.641 2662.88,-131.884 2660.02,-142.086 2667.01,-141.641"/>
</g>
<!-- Node43 -->
<g id="node43" class="node"><title>Node43</title>
<g id="a_node43"><a xlink:href="_s_l_average_timing_8h.html" target="_top" xlink:title="SLAverageTiming.h">
<polygon fill="white" stroke="red" points="2267,-280.5 2267,-299.5 2371,-299.5 2371,-280.5 2267,-280.5"/>
<text text-anchor="middle" x="2319" y="-287.5" font-family="Arial.ttf" font-size="10.00">SLAverageTiming.h</text>
</a>
</g>
</g>
<!-- Node2&#45;&gt;Node43 -->
<g id="edge69" class="edge"><title>Node2&#45;&gt;Node43</title>
<path fill="none" stroke="midnightblue" d="M1405.16,-344.456C1511.16,-342.083 1919.06,-331.309 2253,-300 2254.26,-299.882 2255.54,-299.757 2256.82,-299.626"/>
<polygon fill="midnightblue" stroke="midnightblue" points="2257.25,-303.101 2266.81,-298.529 2256.49,-296.143 2257.25,-303.101"/>
</g>
<!-- Node44 -->
<g id="node44" class="node"><title>Node44</title>
<polygon fill="white" stroke="#bfbfbf" points="1616,-280.5 1616,-299.5 1734,-299.5 1734,-280.5 1616,-280.5"/>
<text text-anchor="middle" x="1675" y="-287.5" font-family="Arial.ttf" font-size="10.00">opencv2/core/core.hpp</text>
</g>
<!-- Node2&#45;&gt;Node44 -->
<g id="edge74" class="edge"><title>Node2&#45;&gt;Node44</title>
<path fill="none" stroke="midnightblue" d="M1405.01,-340.255C1452.48,-331.595 1554.17,-313.043 1618.31,-301.342"/>
<polygon fill="midnightblue" stroke="midnightblue" points="1619.06,-304.763 1628.27,-299.525 1617.8,-297.877 1619.06,-304.763"/>
</g>
<!-- Node45 -->
<g id="node45" class="node"><title>Node45</title>
<polygon fill="white" stroke="#bfbfbf" points="1752,-280.5 1752,-299.5 1874,-299.5 1874,-280.5 1752,-280.5"/>
<text text-anchor="middle" x="1813" y="-287.5" font-family="Arial.ttf" font-size="10.00">opencv2/core/utility.hpp</text>
</g>
<!-- Node2&#45;&gt;Node45 -->
<g id="edge75" class="edge"><title>Node2&#45;&gt;Node45</title>
<path fill="none" stroke="midnightblue" d="M1405.05,-341.824C1463.34,-334.707 1608.99,-316.872 1741.96,-300.126"/>
<polygon fill="midnightblue" stroke="midnightblue" points="1742.44,-303.594 1751.92,-298.871 1741.56,-296.649 1742.44,-303.594"/>
</g>
<!-- Node46 -->
<g id="node46" class="node"><title>Node46</title>
<polygon fill="white" stroke="#bfbfbf" points="1892.5,-280.5 1892.5,-299.5 2001.5,-299.5 2001.5,-280.5 1892.5,-280.5"/>
<text text-anchor="middle" x="1947" y="-287.5" font-family="Arial.ttf" font-size="10.00">opencv2/highgui.hpp</text>
</g>
<!-- Node2&#45;&gt;Node46 -->
<g id="edge76" class="edge"><title>Node2&#45;&gt;Node46</title>
<path fill="none" stroke="midnightblue" d="M1405.01,-343.145C1478.26,-337.823 1692.66,-321.565 1882.07,-300.051"/>
<polygon fill="midnightblue" stroke="midnightblue" points="1882.67,-303.504 1892.21,-298.891 1881.88,-296.55 1882.67,-303.504"/>
</g>
<!-- Node32&#45;&gt;Node33 -->
<g id="edge32" class="edge"><title>Node32&#45;&gt;Node33</title>
<path fill="none" stroke="midnightblue" d="M333.634,-280.075C341.347,-253.945 363.998,-177.211 374.516,-141.577"/>
<polygon fill="midnightblue" stroke="midnightblue" points="377.997,-142.15 377.471,-131.568 371.283,-140.168 377.997,-142.15"/>
</g>
<!-- Node32&#45;&gt;Node35 -->
<g id="edge36" class="edge"><title>Node32&#45;&gt;Node35</title>
<path fill="none" stroke="midnightblue" d="M321.348,-280.368C300.601,-261.814 251.512,-217.913 225.262,-194.438"/>
<polygon fill="midnightblue" stroke="midnightblue" points="227.394,-191.649 217.607,-187.591 222.728,-196.867 227.394,-191.649"/>
</g>
<!-- Node32&#45;&gt;Node36 -->
<g id="edge40" class="edge"><title>Node32&#45;&gt;Node36</title>
<path fill="none" stroke="midnightblue" d="M342.086,-280.324C352.486,-272.185 368.261,-259.839 380.722,-250.087"/>
<polygon fill="midnightblue" stroke="midnightblue" points="382.994,-252.753 388.712,-243.834 378.68,-247.241 382.994,-252.753"/>
</g>
<!-- Node33&#45;&gt;Node30 -->
<g id="edge33" class="edge"><title>Node33&#45;&gt;Node30</title>
<path fill="none" stroke="midnightblue" d="M384.616,-112.348C391.871,-99.2343 406.893,-73.9567 424,-56 435.165,-44.2806 449.635,-33.3319 461.567,-25.1688"/>
<polygon fill="midnightblue" stroke="midnightblue" points="463.706,-27.9501 470.101,-19.5028 459.834,-22.1186 463.706,-27.9501"/>
</g>
<!-- Node33&#45;&gt;Node34 -->
<g id="edge34" class="edge"><title>Node33&#45;&gt;Node34</title>
<path fill="none" stroke="midnightblue" d="M361.619,-112.444C342.784,-103.675 313.269,-89.9355 291.621,-79.8579"/>
<polygon fill="midnightblue" stroke="midnightblue" points="292.838,-76.5637 282.295,-75.5164 289.883,-82.9098 292.838,-76.5637"/>
</g>
<!-- Node34&#45;&gt;Node30 -->
<g id="edge35" class="edge"><title>Node34&#45;&gt;Node30</title>
<path fill="none" stroke="midnightblue" d="M294.129,-57.6048C336.764,-47.1397 414.132,-28.1494 455.73,-17.939"/>
<polygon fill="midnightblue" stroke="midnightblue" points="456.615,-21.3258 465.492,-15.5428 454.946,-14.5275 456.615,-21.3258"/>
</g>
<!-- Node35&#45;&gt;Node30 -->
<g id="edge37" class="edge"><title>Node35&#45;&gt;Node30</title>
<path fill="none" stroke="midnightblue" d="M206.154,-168.227C202.047,-146.04 194.753,-87.2449 225,-56 256.443,-23.5198 394.322,-14.3612 455.077,-11.88"/>
<polygon fill="midnightblue" stroke="midnightblue" points="455.285,-15.3747 465.146,-11.5016 455.022,-8.37966 455.285,-15.3747"/>
</g>
<!-- Node35&#45;&gt;Node33 -->
<g id="edge39" class="edge"><title>Node35&#45;&gt;Node33</title>
<path fill="none" stroke="midnightblue" d="M235.254,-168.444C264.441,-159.28 310.921,-144.688 343.309,-134.519"/>
<polygon fill="midnightblue" stroke="midnightblue" points="344.381,-137.851 352.874,-131.516 342.284,-131.173 344.381,-137.851"/>
</g>
<!-- Node35&#45;&gt;Node34 -->
<g id="edge38" class="edge"><title>Node35&#45;&gt;Node34</title>
<path fill="none" stroke="midnightblue" d="M212.394,-168.368C221.554,-150.376 242.847,-108.55 255.026,-84.6267"/>
<polygon fill="midnightblue" stroke="midnightblue" points="258.208,-86.091 259.626,-75.5914 251.97,-82.9152 258.208,-86.091"/>
</g>
<!-- Node36&#45;&gt;Node22 -->
<g id="edge48" class="edge"><title>Node36&#45;&gt;Node22</title>
<path fill="none" stroke="midnightblue" d="M411.568,-224.324C422.42,-216.185 438.881,-203.839 451.883,-194.087"/>
<polygon fill="midnightblue" stroke="midnightblue" points="454.321,-196.634 460.221,-187.834 450.121,-191.034 454.321,-196.634"/>
</g>
<!-- Node36&#45;&gt;Node30 -->
<g id="edge41" class="edge"><title>Node36&#45;&gt;Node30</title>
<path fill="none" stroke="midnightblue" d="M403.293,-224.297C415.705,-191.494 459.828,-74.8835 477.046,-29.3774"/>
<polygon fill="midnightblue" stroke="midnightblue" points="480.373,-30.4753 480.639,-19.8837 473.826,-27.998 480.373,-30.4753"/>
</g>
<!-- Node36&#45;&gt;Node33 -->
<g id="edge46" class="edge"><title>Node36&#45;&gt;Node33</title>
<path fill="none" stroke="midnightblue" d="M398.431,-224.368C395.203,-206.617 387.758,-165.666 383.381,-141.597"/>
<polygon fill="midnightblue" stroke="midnightblue" points="386.795,-140.804 381.562,-131.591 379.907,-142.056 386.795,-140.804"/>
</g>
<!-- Node36&#45;&gt;Node35 -->
<g id="edge47" class="edge"><title>Node36&#45;&gt;Node35</title>
<path fill="none" stroke="midnightblue" d="M370.421,-224.681C337.633,-215.459 284.571,-200.536 248.072,-190.27"/>
<polygon fill="midnightblue" stroke="midnightblue" points="248.821,-186.845 238.247,-187.507 246.926,-193.584 248.821,-186.845"/>
</g>
<!-- Node36&#45;&gt;Node37 -->
<g id="edge42" class="edge"><title>Node36&#45;&gt;Node37</title>
<path fill="none" stroke="midnightblue" d="M429.674,-227.388C471.154,-219.479 549.061,-204.391 625.424,-188.072"/>
<polygon fill="midnightblue" stroke="midnightblue" points="626.167,-191.493 635.21,-185.972 624.698,-184.648 626.167,-191.493"/>
</g>
<!-- Node37&#45;&gt;Node11 -->
<g id="edge45" class="edge"><title>Node37&#45;&gt;Node11</title>
<path fill="none" stroke="midnightblue" d="M694.777,-175.046C820.743,-166.781 1309.78,-134.694 1450.14,-125.484"/>
<polygon fill="midnightblue" stroke="midnightblue" points="1450.64,-128.959 1460.39,-124.812 1450.18,-121.974 1450.64,-128.959"/>
</g>
<!-- Node37&#45;&gt;Node30 -->
<g id="edge43" class="edge"><title>Node37&#45;&gt;Node30</title>
<path fill="none" stroke="midnightblue" d="M655.269,-168.075C625.914,-141.153 537.988,-60.5135 500.85,-26.4534"/>
<polygon fill="midnightblue" stroke="midnightblue" points="503.078,-23.7478 493.342,-19.5681 498.347,-28.9067 503.078,-23.7478"/>
</g>
<!-- Node37&#45;&gt;Node33 -->
<g id="edge44" class="edge"><title>Node37&#45;&gt;Node33</title>
<path fill="none" stroke="midnightblue" d="M635.22,-169.98C632.111,-169.291 628.994,-168.619 626,-168 553.709,-153.055 468.931,-138.112 420.141,-129.761"/>
<polygon fill="midnightblue" stroke="midnightblue" points="420.448,-126.262 410.002,-128.031 419.271,-133.163 420.448,-126.262"/>
</g>
<!-- Node38&#45;&gt;Node30 -->
<g id="edge52" class="edge"><title>Node38&#45;&gt;Node30</title>
<path fill="none" stroke="midnightblue" d="M2453.82,-62.8543C2421.08,-60.8089 2369.61,-57.784 2325,-56 1588.06,-26.5299 684.35,-13.6314 512.828,-11.3686"/>
<polygon fill="midnightblue" stroke="midnightblue" points="512.643,-7.86594 502.598,-11.2348 512.552,-14.8653 512.643,-7.86594"/>
</g>
<!-- Node39&#45;&gt;Node30 -->
<g id="edge54" class="edge"><title>Node39&#45;&gt;Node30</title>
<path fill="none" stroke="midnightblue" d="M580.516,-168.075C564.252,-141.606 516.08,-63.2089 494.575,-28.2097"/>
<polygon fill="midnightblue" stroke="midnightblue" points="497.482,-26.2559 489.265,-19.5681 491.518,-29.9206 497.482,-26.2559"/>
</g>
<!-- Node39&#45;&gt;Node33 -->
<g id="edge55" class="edge"><title>Node39&#45;&gt;Node33</title>
<path fill="none" stroke="midnightblue" d="M554.264,-168.681C518.134,-159.21 459.057,-143.724 419.853,-133.447"/>
<polygon fill="midnightblue" stroke="midnightblue" points="420.656,-130.039 410.095,-130.889 418.881,-136.81 420.656,-130.039"/>
</g>
<!-- Node40&#45;&gt;Node30 -->
<g id="edge57" class="edge"><title>Node40&#45;&gt;Node30</title>
<path fill="none" stroke="midnightblue" d="M177.789,-280.391C121.37,-262.326 0,-218.834 0,-179 0,-179 0,-179 0,-121 0,-27.0594 351.086,-13.344 455.222,-11.342"/>
<polygon fill="midnightblue" stroke="midnightblue" points="455.384,-14.8399 465.323,-11.1705 455.265,-7.84089 455.384,-14.8399"/>
</g>
<!-- Node40&#45;&gt;Node35 -->
<g id="edge59" class="edge"><title>Node40&#45;&gt;Node35</title>
<path fill="none" stroke="midnightblue" d="M206.157,-280.368C206.48,-262.617 207.224,-221.666 207.662,-197.597"/>
<polygon fill="midnightblue" stroke="midnightblue" points="211.161,-197.653 207.844,-187.591 204.162,-197.526 211.161,-197.653"/>
</g>
<!-- Node40&#45;&gt;Node36 -->
<g id="edge58" class="edge"><title>Node40&#45;&gt;Node36</title>
<path fill="none" stroke="midnightblue" d="M236.74,-280.444C270.237,-271.12 323.928,-256.175 360.522,-245.989"/>
<polygon fill="midnightblue" stroke="midnightblue" points="361.663,-249.304 370.358,-243.251 359.786,-242.561 361.663,-249.304"/>
</g>
<!-- Node41&#45;&gt;Node30 -->
<g id="edge61" class="edge"><title>Node41&#45;&gt;Node30</title>
<path fill="none" stroke="midnightblue" d="M291.902,-168.267C302.145,-155.478 322.189,-131.105 341,-112 367.284,-85.3055 373.499,-77.7524 404,-56 420.761,-44.0466 440.978,-32.6978 456.895,-24.3874"/>
<polygon fill="midnightblue" stroke="midnightblue" points="458.878,-27.3039 466.18,-19.6275 455.685,-21.0747 458.878,-27.3039"/>
</g>
<!-- Node41&#45;&gt;Node33 -->
<g id="edge63" class="edge"><title>Node41&#45;&gt;Node33</title>
<path fill="none" stroke="midnightblue" d="M300.263,-168.324C315.221,-159.822 338.255,-146.729 355.727,-136.797"/>
<polygon fill="midnightblue" stroke="midnightblue" points="357.81,-139.639 364.774,-131.655 354.351,-133.553 357.81,-139.639"/>
</g>
<!-- Node41&#45;&gt;Node34 -->
<g id="edge62" class="edge"><title>Node41&#45;&gt;Node34</title>
<path fill="none" stroke="midnightblue" d="M283.352,-168.368C279.963,-150.617 272.145,-109.666 267.55,-85.5974"/>
<polygon fill="midnightblue" stroke="midnightblue" points="270.953,-84.7577 265.64,-75.5914 264.078,-86.0704 270.953,-84.7577"/>
</g>
<!-- Node42&#45;&gt;Node30 -->
<g id="edge68" class="edge"><title>Node42&#45;&gt;Node30</title>
<path fill="none" stroke="midnightblue" d="M2649.14,-112.33C2626.2,-97.4303 2576.2,-67.4655 2529,-56 2324.55,-6.33666 746.096,-10.0592 512.778,-10.886"/>
<polygon fill="midnightblue" stroke="midnightblue" points="512.682,-7.38621 502.695,-10.9229 512.708,-14.3862 512.682,-7.38621"/>
</g>
<!-- Node43&#45;&gt;Node13 -->
<g id="edge71" class="edge"><title>Node43&#45;&gt;Node13</title>
<path fill="none" stroke="midnightblue" d="M2348.16,-280.444C2382.96,-270.229 2440.75,-253.268 2475.03,-243.21"/>
<polygon fill="midnightblue" stroke="midnightblue" points="2476.25,-246.499 2484.86,-240.325 2474.28,-239.782 2476.25,-246.499"/>
</g>
<!-- Node43&#45;&gt;Node16 -->
<g id="edge73" class="edge"><title>Node43&#45;&gt;Node16</title>
<path fill="none" stroke="midnightblue" d="M2295.39,-280.444C2270.54,-271.438 2231.23,-257.189 2203.25,-247.049"/>
<polygon fill="midnightblue" stroke="midnightblue" points="2204.09,-243.633 2193.5,-243.516 2201.71,-250.214 2204.09,-243.633"/>
</g>
<!-- Node43&#45;&gt;Node17 -->
<g id="edge70" class="edge"><title>Node43&#45;&gt;Node17</title>
<path fill="none" stroke="midnightblue" d="M2307.43,-280.324C2296.58,-272.185 2280.12,-259.839 2267.12,-250.087"/>
<polygon fill="midnightblue" stroke="midnightblue" points="2268.88,-247.034 2258.78,-243.834 2264.68,-252.634 2268.88,-247.034"/>
</g>
<!-- Node43&#45;&gt;Node30 -->
<g id="edge72" class="edge"><title>Node43&#45;&gt;Node30</title>
<path fill="none" stroke="midnightblue" d="M2317.95,-280.458C2315.79,-261.982 2311,-216.912 2311,-179 2311,-179 2311,-179 2311,-121 2311,-26.8677 745.286,-12.7501 512.732,-11.1724"/>
<polygon fill="midnightblue" stroke="midnightblue" points="512.7,-7.67225 502.678,-11.1065 512.654,-14.6721 512.7,-7.67225"/>
</g>
<!-- Node47&#45;&gt;Node13 -->
<g id="edge78" class="edge"><title>Node47&#45;&gt;Node13</title>
<path fill="none" stroke="midnightblue" d="M2821.17,-282.593C2746.49,-271.422 2594.39,-248.671 2531.35,-239.241"/>
<polygon fill="midnightblue" stroke="midnightblue" points="2531.75,-235.761 2521.34,-237.743 2530.71,-242.684 2531.75,-235.761"/>
</g>
<!-- Node47&#45;&gt;Node31 -->
<g id="edge79" class="edge"><title>Node47&#45;&gt;Node31</title>
<path fill="none" stroke="midnightblue" d="M2864,-280.083C2864,-273.006 2864,-262.861 2864,-253.986"/>
<polygon fill="midnightblue" stroke="midnightblue" points="2867.5,-253.751 2864,-243.751 2860.5,-253.751 2867.5,-253.751"/>
</g>
<!-- Node48&#45;&gt;Node31 -->
<g id="edge82" class="edge"><title>Node48&#45;&gt;Node31</title>
<path fill="none" stroke="midnightblue" d="M2879.19,-336.468C2897.7,-324.853 2925.32,-302.88 2915,-280 2909.38,-267.555 2898.44,-257.172 2888.12,-249.527"/>
<polygon fill="midnightblue" stroke="midnightblue" points="2889.96,-246.543 2879.73,-243.764 2885.99,-252.312 2889.96,-246.543"/>
</g>
<!-- Node48&#45;&gt;Node47 -->
<g id="edge81" class="edge"><title>Node48&#45;&gt;Node47</title>
<path fill="none" stroke="midnightblue" d="M2864,-336.083C2864,-329.006 2864,-318.861 2864,-309.986"/>
<polygon fill="midnightblue" stroke="midnightblue" points="2867.5,-309.751 2864,-299.751 2860.5,-309.751 2867.5,-309.751"/>
</g>
<!-- Node49&#45;&gt;Node36 -->
<g id="edge84" class="edge"><title>Node49&#45;&gt;Node36</title>
<path fill="none" stroke="midnightblue" d="M796.781,-342.929C693.074,-337.881 448.642,-323.598 420,-300 406.494,-288.872 401.923,-268.841 400.468,-253.946"/>
<polygon fill="midnightblue" stroke="midnightblue" points="403.952,-253.565 399.867,-243.79 396.964,-253.979 403.952,-253.565"/>
</g>
</g>
</svg>
