<?xml version="1.0" encoding="UTF-8" standalone="no"?>
<!DOCTYPE svg PUBLIC "-//W3C//DTD SVG 1.1//EN"
 "http://www.w3.org/Graphics/SVG/1.1/DTD/svg11.dtd">
<!-- Generated by graphviz version 2.40.1 (20161225.0304)
 -->
<!-- Title: SLScene.h Pages: 1 -->
<svg width="1804pt" height="907pt"
 viewBox="0.00 0.00 1804.39 907.00" xmlns="http://www.w3.org/2000/svg" xmlns:xlink="http://www.w3.org/1999/xlink">
<g id="graph0" class="graph" transform="scale(1 1) rotate(0) translate(4 903)">
<title>SLScene.h</title>
<polygon fill="#ffffff" stroke="transparent" points="-4,4 -4,-903 1800.3916,-903 1800.3916,4 -4,4"/>
<!-- Node1 -->
<g id="node1" class="node">
<title>Node1</title>
<g id="a_node1"><a xlink:title=" ">
<polygon fill="#bfbfbf" stroke="#000000" points="775.5371,-880.5 775.5371,-898.5 840.4629,-898.5 840.4629,-880.5 775.5371,-880.5"/>
<text text-anchor="middle" x="808" y="-886.5" font-family="Arial.ttf" font-size="10.00" fill="#000000">SLScene.h</text>
</a>
</g>
</g>
<!-- Node2 -->
<g id="node2" class="node">
<title>Node2</title>
<g id="a_node2"><a xlink:href="_s_l_8h.html" target="_top" xlink:title=" ">
<polygon fill="#ffffff" stroke="#000000" points="933.7144,-110.5 933.7144,-128.5 970.2856,-128.5 970.2856,-110.5 933.7144,-110.5"/>
<text text-anchor="middle" x="952" y="-116.5" font-family="Arial.ttf" font-size="10.00" fill="#000000">SL.h</text>
</a>
</g>
</g>
<!-- Node1&#45;&gt;Node2 -->
<g id="edge1" class="edge">
<title>Node1&#45;&gt;Node2</title>
<path fill="none" stroke="#191970" d="M775.4878,-889.184C655.6705,-887.7364 243.3708,-880.1477 198,-844 126.1259,-786.7366 112.7342,-455.2848 118,-440 183.8121,-248.9705 284.7331,-216.9072 480,-165 564.6815,-142.4894 834.8925,-125.9547 923.5346,-121.0224"/>
<polygon fill="#191970" stroke="#191970" points="923.8591,-124.5099 933.6519,-120.4662 923.4748,-117.5205 923.8591,-124.5099"/>
</g>
<!-- Node5 -->
<g id="node5" class="node">
<title>Node5</title>
<g id="a_node5"><a xlink:title=" ">
<polygon fill="#ffffff" stroke="#bfbfbf" points="81.3843,-.5 81.3843,-18.5 124.6157,-18.5 124.6157,-.5 81.3843,-.5"/>
<text text-anchor="middle" x="103" y="-6.5" font-family="Arial.ttf" font-size="10.00" fill="#000000">vector</text>
</a>
</g>
</g>
<!-- Node1&#45;&gt;Node5 -->
<g id="edge126" class="edge">
<title>Node1&#45;&gt;Node5</title>
<path fill="none" stroke="#191970" d="M775.3042,-888.5409C642.9875,-884.5099 151.1814,-868.0311 86,-844 41.1718,-827.4727 0,-827.2778 0,-779.5 0,-779.5 0,-779.5 0,-119.5 0,-75.163 45.1374,-41.3221 75.6514,-23.5104"/>
<polygon fill="#191970" stroke="#191970" points="77.5733,-26.4455 84.5857,-18.5033 74.1511,-20.3391 77.5733,-26.4455"/>
</g>
<!-- Node6 -->
<g id="node6" class="node">
<title>Node6</title>
<g id="a_node6"><a xlink:href="_s_l_anim_manager_8h.html" target="_top" xlink:title=" ">
<polygon fill="#ffffff" stroke="#000000" points="206.8623,-825.5 206.8623,-843.5 305.1377,-843.5 305.1377,-825.5 206.8623,-825.5"/>
<text text-anchor="middle" x="256" y="-831.5" font-family="Arial.ttf" font-size="10.00" fill="#000000">SLAnimManager.h</text>
</a>
</g>
</g>
<!-- Node1&#45;&gt;Node6 -->
<g id="edge5" class="edge">
<title>Node1&#45;&gt;Node6</title>
<path fill="none" stroke="#191970" d="M775.5307,-886.2648C685.4614,-877.2905 431.4808,-851.9845 315.3186,-840.4104"/>
<polygon fill="#191970" stroke="#191970" points="315.4836,-836.9096 305.1858,-839.4008 314.7895,-843.8751 315.4836,-836.9096"/>
</g>
<!-- Node17 -->
<g id="node17" class="node">
<title>Node17</title>
<g id="a_node17"><a xlink:href="_s_l_vec3_8h.html" target="_top" xlink:title=" ">
<polygon fill="#ffffff" stroke="#000000" points="1377.96,-220.5 1377.96,-238.5 1436.04,-238.5 1436.04,-220.5 1377.96,-220.5"/>
<text text-anchor="middle" x="1407" y="-226.5" font-family="Arial.ttf" font-size="10.00" fill="#000000">SLVec3.h</text>
</a>
</g>
</g>
<!-- Node1&#45;&gt;Node17 -->
<g id="edge123" class="edge">
<title>Node1&#45;&gt;Node17</title>
<path fill="none" stroke="#191970" d="M840.5666,-887.3815C970.7824,-878.4843 1447,-841.6945 1447,-779.5 1447,-779.5 1447,-779.5 1447,-504.5 1447,-474.6154 1447.1791,-462.9183 1428,-440 1392.921,-398.082 1367.8625,-407.3916 1318,-385 1278.6995,-367.3515 1252.1526,-384.6742 1228,-349 1212.0086,-325.3801 1241.0729,-286.0917 1254,-275 1271.1708,-260.2671 1328.6831,-245.8176 1368.0886,-237.2838"/>
<polygon fill="#191970" stroke="#191970" points="1368.8746,-240.695 1377.9291,-235.1934 1367.4201,-233.8478 1368.8746,-240.695"/>
</g>
<!-- Node20 -->
<g id="node19" class="node">
<title>Node20</title>
<g id="a_node19"><a xlink:href="_s_l_vec4_8h.html" target="_top" xlink:title=" ">
<polygon fill="#ffffff" stroke="#000000" points="1586.96,-275.5 1586.96,-293.5 1645.04,-293.5 1645.04,-275.5 1586.96,-275.5"/>
<text text-anchor="middle" x="1616" y="-281.5" font-family="Arial.ttf" font-size="10.00" fill="#000000">SLVec4.h</text>
</a>
</g>
</g>
<!-- Node1&#45;&gt;Node20 -->
<g id="edge124" class="edge">
<title>Node1&#45;&gt;Node20</title>
<path fill="none" stroke="#191970" d="M840.5109,-889.3487C970.404,-888.4798 1452.1808,-882.6628 1599,-844 1661.7574,-827.4737 1730,-844.3969 1730,-779.5 1730,-779.5 1730,-779.5 1730,-449.5 1730,-384.6175 1669.595,-326.7653 1636.7251,-300.0876"/>
<polygon fill="#191970" stroke="#191970" points="1638.6528,-297.1502 1628.6356,-293.6998 1634.3147,-302.644 1638.6528,-297.1502"/>
</g>
<!-- Node27 -->
<g id="node23" class="node">
<title>Node27</title>
<g id="a_node23"><a xlink:href="_s_l_event_handler_8h.html" target="_top" xlink:title=" ">
<polygon fill="#ffffff" stroke="#000000" points="412.6924,-330.5 412.6924,-348.5 509.3076,-348.5 509.3076,-330.5 412.6924,-330.5"/>
<text text-anchor="middle" x="461" y="-336.5" font-family="Arial.ttf" font-size="10.00" fill="#000000">SLEventHandler.h</text>
</a>
</g>
</g>
<!-- Node1&#45;&gt;Node27 -->
<g id="edge74" class="edge">
<title>Node1&#45;&gt;Node27</title>
<path fill="none" stroke="#191970" d="M775.406,-887.7863C678.1957,-881.795 397,-857.7052 397,-779.5 397,-779.5 397,-779.5 397,-724.5 397,-650.973 385,-633.027 385,-559.5 385,-559.5 385,-559.5 385,-504.5 385,-446.1599 424.6813,-385.9805 446.698,-357.0805"/>
<polygon fill="#191970" stroke="#191970" points="449.7426,-358.8694 453.1529,-348.8385 444.2315,-354.5533 449.7426,-358.8694"/>
</g>
<!-- Node28 -->
<g id="node24" class="node">
<title>Node28</title>
<g id="a_node24"><a xlink:href="_s_l_mesh_8h.html" target="_top" xlink:title=" ">
<polygon fill="#ffffff" stroke="#000000" points="821.4878,-550.5 821.4878,-568.5 882.5122,-568.5 882.5122,-550.5 821.4878,-550.5"/>
<text text-anchor="middle" x="852" y="-556.5" font-family="Arial.ttf" font-size="10.00" fill="#000000">SLMesh.h</text>
</a>
</g>
</g>
<!-- Node1&#45;&gt;Node28 -->
<g id="edge117" class="edge">
<title>Node1&#45;&gt;Node28</title>
<path fill="none" stroke="#191970" d="M818.7813,-880.4281C838.1875,-863.0167 877,-822.7833 877,-779.5 877,-779.5 877,-779.5 877,-669.5 877,-636.8303 866.3846,-600.0296 858.9883,-578.3538"/>
<polygon fill="#191970" stroke="#191970" points="862.225,-577.0089 855.5819,-568.7554 855.6281,-579.3501 862.225,-577.0089"/>
</g>
<!-- Node36 -->
<g id="node32" class="node">
<title>Node36</title>
<g id="a_node32"><a xlink:href="_averaged_8h.html" target="_top" xlink:title=" ">
<polygon fill="#ffffff" stroke="#000000" points="27.5142,-715.5 27.5142,-733.5 94.4858,-733.5 94.4858,-715.5 27.5142,-715.5"/>
<text text-anchor="middle" x="61" y="-721.5" font-family="Arial.ttf" font-size="10.00" fill="#000000">Averaged.h</text>
</a>
</g>
</g>
<!-- Node1&#45;&gt;Node36 -->
<g id="edge72" class="edge">
<title>Node1&#45;&gt;Node36</title>
<path fill="none" stroke="#191970" d="M775.2279,-888.3433C640.521,-883.4648 135.2669,-863.9012 108,-844 75.6994,-820.4248 65.5888,-771.2177 62.4301,-743.8728"/>
<polygon fill="#191970" stroke="#191970" points="65.8872,-743.2549 61.4575,-733.6306 58.9186,-743.9167 65.8872,-743.2549"/>
</g>
<!-- Node37 -->
<g id="node33" class="node">
<title>Node37</title>
<g id="a_node33"><a xlink:href="_s_l_g_l_oculus_8h.html" target="_top" xlink:title=" ">
<polygon fill="#ffffff" stroke="#000000" points="767.4829,-770.5 767.4829,-788.5 848.5171,-788.5 848.5171,-770.5 767.4829,-770.5"/>
<text text-anchor="middle" x="808" y="-776.5" font-family="Arial.ttf" font-size="10.00" fill="#000000">SLGLOculus.h</text>
</a>
</g>
</g>
<!-- Node1&#45;&gt;Node37 -->
<g id="edge75" class="edge">
<title>Node1&#45;&gt;Node37</title>
<path fill="none" stroke="#191970" d="M808,-880.4982C808,-862.6913 808,-822.6225 808,-798.6515"/>
<polygon fill="#191970" stroke="#191970" points="811.5001,-798.6261 808,-788.6261 804.5001,-798.6262 811.5001,-798.6261"/>
</g>
<!-- Node43 -->
<g id="node39" class="node">
<title>Node43</title>
<g id="a_node39"><a xlink:href="_s_l_material_8h.html" target="_top" xlink:title=" ">
<polygon fill="#ffffff" stroke="#000000" points="730.9312,-550.5 730.9312,-568.5 803.0688,-568.5 803.0688,-550.5 730.9312,-550.5"/>
<text text-anchor="middle" x="767" y="-556.5" font-family="Arial.ttf" font-size="10.00" fill="#000000">SLMaterial.h</text>
</a>
</g>
</g>
<!-- Node1&#45;&gt;Node43 -->
<g id="edge116" class="edge">
<title>Node1&#45;&gt;Node43</title>
<path fill="none" stroke="#191970" d="M797.2188,-880.4281C777.8125,-863.0167 739,-822.7833 739,-779.5 739,-779.5 739,-779.5 739,-669.5 739,-636.6268 750.8893,-599.8878 759.1731,-578.2797"/>
<polygon fill="#191970" stroke="#191970" points="762.5342,-579.3 762.9883,-568.7149 756.0324,-576.7065 762.5342,-579.3"/>
</g>
<!-- Node58 -->
<g id="node48" class="node">
<title>Node58</title>
<g id="a_node48"><a xlink:href="_s_l_light_8h.html" target="_top" xlink:title=" ">
<polygon fill="#ffffff" stroke="#000000" points="1548.8721,-330.5 1548.8721,-348.5 1607.1279,-348.5 1607.1279,-330.5 1548.8721,-330.5"/>
<text text-anchor="middle" x="1578" y="-336.5" font-family="Arial.ttf" font-size="10.00" fill="#000000">SLLight.h</text>
</a>
</g>
</g>
<!-- Node1&#45;&gt;Node58 -->
<g id="edge113" class="edge">
<title>Node1&#45;&gt;Node58</title>
<path fill="none" stroke="#191970" d="M840.8533,-888.1721C965.0559,-883.0205 1401.8954,-863.666 1461,-844 1511.1825,-827.3027 1561,-832.3875 1561,-779.5 1561,-779.5 1561,-779.5 1561,-449.5 1561,-417.2471 1568.2263,-380.2923 1573.2561,-358.4766"/>
<polygon fill="#191970" stroke="#191970" points="1576.7072,-359.094 1575.6362,-348.5534 1569.9003,-357.4613 1576.7072,-359.094"/>
</g>
<!-- Node59 -->
<g id="node49" class="node">
<title>Node59</title>
<g id="a_node49"><a xlink:href="_s_l_rect_8h.html" target="_top" xlink:title=" ">
<polygon fill="#ffffff" stroke="#000000" points="1589.4336,-495.5 1589.4336,-513.5 1646.5664,-513.5 1646.5664,-495.5 1589.4336,-495.5"/>
<text text-anchor="middle" x="1618" y="-501.5" font-family="Arial.ttf" font-size="10.00" fill="#000000">SLRect.h</text>
</a>
</g>
</g>
<!-- Node1&#45;&gt;Node59 -->
<g id="edge118" class="edge">
<title>Node1&#45;&gt;Node59</title>
<path fill="none" stroke="#191970" d="M840.9162,-888.456C983.7171,-883.8113 1543.8334,-864.3558 1575,-844 1601.9599,-826.3917 1608,-811.7008 1608,-779.5 1608,-779.5 1608,-779.5 1608,-614.5 1608,-582.4941 1612.2507,-545.4642 1615.2095,-523.5663"/>
<polygon fill="#191970" stroke="#191970" points="1618.6841,-523.991 1616.6095,-513.6012 1611.7522,-523.017 1618.6841,-523.991"/>
</g>
<!-- Node60 -->
<g id="node50" class="node">
<title>Node60</title>
<g id="a_node50"><a xlink:title=" ">
<polygon fill="#ffffff" stroke="#bfbfbf" points="1757.6084,-825.5 1757.6084,-843.5 1796.3916,-843.5 1796.3916,-825.5 1757.6084,-825.5"/>
<text text-anchor="middle" x="1777" y="-831.5" font-family="Arial.ttf" font-size="10.00" fill="#000000">utility</text>
</a>
</g>
</g>
<!-- Node1&#45;&gt;Node60 -->
<g id="edge125" class="edge">
<title>Node1&#45;&gt;Node60</title>
<path fill="none" stroke="#191970" d="M840.7544,-888.9252C985.0311,-886.2372 1564.6443,-873.7613 1744,-844 1745.0881,-843.8195 1746.1912,-843.6154 1747.3016,-843.3921"/>
<polygon fill="#191970" stroke="#191970" points="1748.3787,-846.7327 1757.2773,-840.9825 1746.7351,-839.9284 1748.3787,-846.7327"/>
</g>
<!-- Node3 -->
<g id="node3" class="node">
<title>Node3</title>
<g id="a_node3"><a xlink:href="_utils_8h.html" target="_top" xlink:title=" ">
<polygon fill="#ffffff" stroke="#000000" points="1347.1084,-55.5 1347.1084,-73.5 1390.8916,-73.5 1390.8916,-55.5 1347.1084,-55.5"/>
<text text-anchor="middle" x="1369" y="-61.5" font-family="Arial.ttf" font-size="10.00" fill="#000000">Utils.h</text>
</a>
</g>
</g>
<!-- Node2&#45;&gt;Node3 -->
<g id="edge2" class="edge">
<title>Node2&#45;&gt;Node3</title>
<path fill="none" stroke="#191970" d="M970.456,-117.0658C1035.4625,-108.4918 1254.3373,-79.6234 1337.0153,-68.7186"/>
<polygon fill="#191970" stroke="#191970" points="1337.6214,-72.1691 1347.0778,-67.3914 1336.706,-65.2292 1337.6214,-72.1691"/>
</g>
<!-- Node4 -->
<g id="node4" class="node">
<title>Node4</title>
<g id="a_node4"><a xlink:title=" ">
<polygon fill="#ffffff" stroke="#bfbfbf" points="1348.7734,-.5 1348.7734,-18.5 1389.2266,-18.5 1389.2266,-.5 1348.7734,-.5"/>
<text text-anchor="middle" x="1369" y="-6.5" font-family="Arial.ttf" font-size="10.00" fill="#000000">string</text>
</a>
</g>
</g>
<!-- Node3&#45;&gt;Node4 -->
<g id="edge3" class="edge">
<title>Node3&#45;&gt;Node4</title>
<path fill="none" stroke="#191970" d="M1369,-55.4179C1369,-48.2164 1369,-37.8962 1369,-28.8632"/>
<polygon fill="#191970" stroke="#191970" points="1372.5001,-28.7794 1369,-18.7795 1365.5001,-28.7795 1372.5001,-28.7794"/>
</g>
<!-- Node3&#45;&gt;Node5 -->
<g id="edge4" class="edge">
<title>Node3&#45;&gt;Node5</title>
<path fill="none" stroke="#191970" d="M1347.0262,-63.5454C1196.2771,-56.9962 315.5568,-18.7343 135.2439,-10.9008"/>
<polygon fill="#191970" stroke="#191970" points="135.225,-7.3968 125.0824,-10.4593 134.9211,-14.3902 135.225,-7.3968"/>
</g>
<!-- Node6&#45;&gt;Node6 -->
<g id="edge6" class="edge">
<title>Node6&#45;&gt;Node6</title>
<path fill="none" stroke="#191970" d="M283.5855,-843.5349C303.4002,-846.4765 323.1377,-843.4648 323.1377,-834.5 323.1377,-827.076 309.6019,-823.7346 293.6958,-824.476"/>
<polygon fill="#191970" stroke="#191970" points="293.1972,-821.0079 283.5855,-825.4651 293.8788,-827.9747 293.1972,-821.0079"/>
</g>
<!-- Node7 -->
<g id="node7" class="node">
<title>Node7</title>
<g id="a_node7"><a xlink:href="_s_l_anim_playback_8h.html" target="_top" xlink:title=" ">
<polygon fill="#ffffff" stroke="#000000" points="127.0347,-440.5 127.0347,-458.5 226.9653,-458.5 226.9653,-440.5 127.0347,-440.5"/>
<text text-anchor="middle" x="177" y="-446.5" font-family="Arial.ttf" font-size="10.00" fill="#000000">SLAnimPlayback.h</text>
</a>
</g>
</g>
<!-- Node6&#45;&gt;Node7 -->
<g id="edge7" class="edge">
<title>Node6&#45;&gt;Node7</title>
<path fill="none" stroke="#191970" d="M241.2416,-825.2963C216.4202,-808.5442 169,-770.5183 169,-724.5 169,-724.5 169,-724.5 169,-559.5 169,-527.5414 172.4006,-490.4971 174.7676,-468.5835"/>
<polygon fill="#191970" stroke="#191970" points="178.2496,-468.9386 175.8876,-458.6104 171.2933,-468.1572 178.2496,-468.9386"/>
</g>
<!-- Node10 -->
<g id="node10" class="node">
<title>Node10</title>
<g id="a_node10"><a xlink:href="_s_l_animation_8h.html" target="_top" xlink:title=" ">
<polygon fill="#ffffff" stroke="#000000" points="235.4805,-715.5 235.4805,-733.5 316.5195,-733.5 316.5195,-715.5 235.4805,-715.5"/>
<text text-anchor="middle" x="276" y="-721.5" font-family="Arial.ttf" font-size="10.00" fill="#000000">SLAnimation.h</text>
</a>
</g>
</g>
<!-- Node6&#45;&gt;Node10 -->
<g id="edge12" class="edge">
<title>Node6&#45;&gt;Node10</title>
<path fill="none" stroke="#191970" d="M255.0534,-825.1934C254.0131,-812.5462 252.9772,-789.2958 257,-770 258.9409,-760.6901 262.7754,-750.8919 266.4944,-742.7823"/>
<polygon fill="#191970" stroke="#191970" points="269.7467,-744.0987 270.9923,-733.5773 263.4573,-741.0255 269.7467,-744.0987"/>
</g>
<!-- Node35 -->
<g id="node31" class="node">
<title>Node35</title>
<g id="a_node31"><a xlink:href="_s_l_skeleton_8h.html" target="_top" xlink:title=" ">
<polygon fill="#ffffff" stroke="#000000" points="266.2563,-770.5 266.2563,-788.5 341.7437,-788.5 341.7437,-770.5 266.2563,-770.5"/>
<text text-anchor="middle" x="304" y="-776.5" font-family="Arial.ttf" font-size="10.00" fill="#000000">SLSkeleton.h</text>
</a>
</g>
</g>
<!-- Node6&#45;&gt;Node35 -->
<g id="edge68" class="edge">
<title>Node6&#45;&gt;Node35</title>
<path fill="none" stroke="#191970" d="M263.9262,-825.4179C270.7637,-817.5833 280.8225,-806.0575 289.1517,-796.5137"/>
<polygon fill="#191970" stroke="#191970" points="291.9632,-798.6151 295.9016,-788.7795 286.6892,-794.0123 291.9632,-798.6151"/>
</g>
<!-- Node7&#45;&gt;Node2 -->
<g id="edge10" class="edge">
<title>Node7&#45;&gt;Node2</title>
<path fill="none" stroke="#191970" d="M178.1962,-440.2643C181.448,-418.5381 192.2895,-363.5054 222,-330 283.8894,-260.2055 514.545,-170.2666 533,-165 606.9038,-143.9097 841.6537,-126.7945 923.5125,-121.3318"/>
<polygon fill="#191970" stroke="#191970" points="923.8375,-124.818 933.5853,-120.6671 923.3766,-117.8332 923.8375,-124.818"/>
</g>
<!-- Node7&#45;&gt;Node5 -->
<g id="edge9" class="edge">
<title>Node7&#45;&gt;Node5</title>
<path fill="none" stroke="#191970" d="M169.6341,-440.4772C150.9166,-416.6041 103,-349.1733 103,-284.5 103,-284.5 103,-284.5 103,-119.5 103,-87.7718 103,-50.8957 103,-28.917"/>
<polygon fill="#191970" stroke="#191970" points="106.5001,-28.6266 103,-18.6267 99.5001,-28.6267 106.5001,-28.6266"/>
</g>
<!-- Node8 -->
<g id="node8" class="node">
<title>Node8</title>
<g id="a_node8"><a xlink:title=" ">
<polygon fill="#ffffff" stroke="#bfbfbf" points="321.2734,-385.5 321.2734,-403.5 356.7266,-403.5 356.7266,-385.5 321.2734,-385.5"/>
<text text-anchor="middle" x="339" y="-391.5" font-family="Arial.ttf" font-size="10.00" fill="#000000">map</text>
</a>
</g>
</g>
<!-- Node7&#45;&gt;Node8 -->
<g id="edge8" class="edge">
<title>Node7&#45;&gt;Node8</title>
<path fill="none" stroke="#191970" d="M203.751,-440.4179C233.4953,-430.3195 281.3021,-414.0888 311.3892,-403.874"/>
<polygon fill="#191970" stroke="#191970" points="312.8898,-407.0609 321.2337,-400.5318 310.6393,-400.4325 312.8898,-407.0609"/>
</g>
<!-- Node9 -->
<g id="node9" class="node">
<title>Node9</title>
<g id="a_node9"><a xlink:href="_s_l_enums_8h.html" target="_top" xlink:title=" ">
<polygon fill="#ffffff" stroke="#000000" points="313.1528,-275.5 313.1528,-293.5 380.8472,-293.5 380.8472,-275.5 313.1528,-275.5"/>
<text text-anchor="middle" x="347" y="-281.5" font-family="Arial.ttf" font-size="10.00" fill="#000000">SLEnums.h</text>
</a>
</g>
</g>
<!-- Node7&#45;&gt;Node9 -->
<g id="edge11" class="edge">
<title>Node7&#45;&gt;Node9</title>
<path fill="none" stroke="#191970" d="M181.0039,-440.2169C191.9861,-415.0931 222.963,-346.545 241,-330 258.4543,-313.9894 282.4053,-303.061 303.1248,-295.9362"/>
<polygon fill="#191970" stroke="#191970" points="304.2563,-299.2487 312.6871,-292.8322 302.095,-292.5907 304.2563,-299.2487"/>
</g>
<!-- Node10&#45;&gt;Node9 -->
<g id="edge42" class="edge">
<title>Node10&#45;&gt;Node9</title>
<path fill="none" stroke="#191970" d="M271.5585,-715.3299C262.9867,-696.762 245,-653.1901 245,-614.5 245,-614.5 245,-614.5 245,-559.5 245,-529.682 275.4174,-416.7777 317,-330 321.6344,-320.3287 328.0458,-310.3021 333.7523,-302.1306"/>
<polygon fill="#191970" stroke="#191970" points="336.7438,-303.9664 339.7632,-293.8109 331.0698,-299.8669 336.7438,-303.9664"/>
</g>
<!-- Node11 -->
<g id="node11" class="node">
<title>Node11</title>
<g id="a_node11"><a xlink:href="_s_l_anim_track_8h.html" target="_top" xlink:title=" ">
<polygon fill="#ffffff" stroke="#000000" points="273.0059,-495.5 273.0059,-513.5 356.9941,-513.5 356.9941,-495.5 273.0059,-495.5"/>
<text text-anchor="middle" x="315" y="-501.5" font-family="Arial.ttf" font-size="10.00" fill="#000000">SLAnimTrack.h</text>
</a>
</g>
</g>
<!-- Node10&#45;&gt;Node11 -->
<g id="edge13" class="edge">
<title>Node10&#45;&gt;Node11</title>
<path fill="none" stroke="#191970" d="M277.6261,-715.327C283.4737,-682.3409 303.5132,-569.2972 311.5878,-523.7484"/>
<polygon fill="#191970" stroke="#191970" points="315.0676,-524.1696 313.3669,-513.7122 308.1751,-522.9477 315.0676,-524.1696"/>
</g>
<!-- Node24 -->
<g id="node20" class="node">
<title>Node24</title>
<g id="a_node20"><a xlink:href="_s_l_joint_8h.html" target="_top" xlink:title=" ">
<polygon fill="#ffffff" stroke="#000000" points="311.1528,-660.5 311.1528,-678.5 368.8472,-678.5 368.8472,-660.5 311.1528,-660.5"/>
<text text-anchor="middle" x="340" y="-666.5" font-family="Arial.ttf" font-size="10.00" fill="#000000">SLJoint.h</text>
</a>
</g>
</g>
<!-- Node10&#45;&gt;Node24 -->
<g id="edge43" class="edge">
<title>Node10&#45;&gt;Node24</title>
<path fill="none" stroke="#191970" d="M286.5683,-715.4179C296.0533,-707.2667 310.1875,-695.1201 321.5366,-685.3669"/>
<polygon fill="#191970" stroke="#191970" points="323.8991,-687.9516 329.2021,-678.7795 319.3367,-682.6427 323.8991,-687.9516"/>
</g>
<!-- Node11&#45;&gt;Node8 -->
<g id="edge14" class="edge">
<title>Node11&#45;&gt;Node8</title>
<path fill="none" stroke="#191970" d="M316.964,-495.4982C320.8492,-477.6913 329.5915,-437.6225 334.8215,-413.6515"/>
<polygon fill="#191970" stroke="#191970" points="338.2967,-414.1424 337.0088,-403.6261 331.4575,-412.6502 338.2967,-414.1424"/>
</g>
<!-- Node11&#45;&gt;Node9 -->
<g id="edge15" class="edge">
<title>Node11&#45;&gt;Node9</title>
<path fill="none" stroke="#191970" d="M313.5957,-495.4215C310.7456,-475.3427 305.1123,-425.7202 312,-385 317.0149,-355.3519 329.7993,-322.782 338.4476,-302.9881"/>
<polygon fill="#191970" stroke="#191970" points="341.7393,-304.2015 342.6405,-293.645 335.3529,-301.3354 341.7393,-304.2015"/>
</g>
<!-- Node12 -->
<g id="node12" class="node">
<title>Node12</title>
<g id="a_node12"><a xlink:href="_s_l_anim_keyframe_8h.html" target="_top" xlink:title=" ">
<polygon fill="#ffffff" stroke="#000000" points="784.9263,-440.5 784.9263,-458.5 887.0737,-458.5 887.0737,-440.5 784.9263,-440.5"/>
<text text-anchor="middle" x="836" y="-446.5" font-family="Arial.ttf" font-size="10.00" fill="#000000">SLAnimKeyframe.h</text>
</a>
</g>
</g>
<!-- Node11&#45;&gt;Node12 -->
<g id="edge16" class="edge">
<title>Node11&#45;&gt;Node12</title>
<path fill="none" stroke="#191970" d="M357.1943,-500.0457C449.0715,-490.3466 667.56,-467.2816 774.67,-455.9744"/>
<polygon fill="#191970" stroke="#191970" points="775.1025,-459.4483 784.6798,-454.9177 774.3676,-452.4869 775.1025,-459.4483"/>
</g>
<!-- Node12&#45;&gt;Node2 -->
<g id="edge17" class="edge">
<title>Node12&#45;&gt;Node2</title>
<path fill="none" stroke="#191970" d="M843.6756,-440.4689C850.5239,-431.7727 860.0594,-417.9224 864,-404 866.2998,-395.8748 865.4817,-393.3134 864,-385 855.6482,-338.1409 827,-332.0976 827,-284.5 827,-284.5 827,-284.5 827,-229.5 827,-178.2385 886.9771,-145.2136 923.8404,-129.7569"/>
<polygon fill="#191970" stroke="#191970" points="925.576,-132.832 933.5558,-125.8626 922.9715,-126.3346 925.576,-132.832"/>
</g>
<!-- Node13 -->
<g id="node13" class="node">
<title>Node13</title>
<g id="a_node13"><a xlink:href="_s_l_quat4_8h.html" target="_top" xlink:title=" ">
<polygon fill="#ffffff" stroke="#000000" points="987.0938,-385.5 987.0938,-403.5 1050.9063,-403.5 1050.9063,-385.5 987.0938,-385.5"/>
<text text-anchor="middle" x="1019" y="-391.5" font-family="Arial.ttf" font-size="10.00" fill="#000000">SLQuat4.h</text>
</a>
</g>
</g>
<!-- Node12&#45;&gt;Node13 -->
<g id="edge18" class="edge">
<title>Node12&#45;&gt;Node13</title>
<path fill="none" stroke="#191970" d="M866.2187,-440.4179C897.1718,-431.115 945.4405,-416.608 979.4246,-406.3943"/>
<polygon fill="#191970" stroke="#191970" points="980.4711,-409.7344 989.0405,-403.5042 978.4563,-403.0307 980.4711,-409.7344"/>
</g>
<!-- Node12&#45;&gt;Node17 -->
<g id="edge41" class="edge">
<title>Node12&#45;&gt;Node17</title>
<path fill="none" stroke="#191970" d="M848.8807,-440.425C861.4115,-431.4734 880.8663,-417.246 897,-404 963.1546,-349.6862 962.1498,-310.5776 1040,-275 1097.7602,-248.6035 1285.4115,-235.8325 1367.7098,-231.3915"/>
<polygon fill="#191970" stroke="#191970" points="1368.1026,-234.8758 1377.9048,-230.8551 1367.7347,-227.8854 1368.1026,-234.8758"/>
</g>
<!-- Node13&#45;&gt;Node2 -->
<g id="edge19" class="edge">
<title>Node13&#45;&gt;Node2</title>
<path fill="none" stroke="#191970" d="M987.0911,-387.0209C941.9836,-374.3337 865,-343.9695 865,-284.5 865,-284.5 865,-284.5 865,-229.5 865,-188.1554 903.2771,-153.2622 929.0529,-134.4523"/>
<polygon fill="#191970" stroke="#191970" points="931.068,-137.314 937.2416,-128.7037 927.046,-131.5848 931.068,-137.314"/>
</g>
<!-- Node13&#45;&gt;Node3 -->
<g id="edge40" class="edge">
<title>Node13&#45;&gt;Node3</title>
<path fill="none" stroke="#191970" d="M986.9354,-390.1972C956.7945,-384.8141 911.6957,-373.179 880,-349 804.4287,-291.3506 716.2467,-242.6952 771,-165 812.8664,-105.5914 854.1142,-126.043 925,-110 1076.6295,-75.6829 1263.302,-67.2089 1336.9557,-65.1487"/>
<polygon fill="#191970" stroke="#191970" points="1337.0789,-68.6467 1346.9849,-64.8889 1336.8976,-61.6491 1337.0789,-68.6467"/>
</g>
<!-- Node14 -->
<g id="node14" class="node">
<title>Node14</title>
<g id="a_node14"><a xlink:href="_s_l_mat4_8h.html" target="_top" xlink:title=" ">
<polygon fill="#ffffff" stroke="#ff0000" points="1236.5986,-330.5 1236.5986,-348.5 1295.4014,-348.5 1295.4014,-330.5 1236.5986,-330.5"/>
<text text-anchor="middle" x="1266" y="-336.5" font-family="Arial.ttf" font-size="10.00" fill="#000000">SLMat4.h</text>
</a>
</g>
</g>
<!-- Node13&#45;&gt;Node14 -->
<g id="edge20" class="edge">
<title>Node13&#45;&gt;Node14</title>
<path fill="none" stroke="#191970" d="M1051.0377,-387.3661C1096.0053,-377.3531 1177.7781,-359.1446 1226.47,-348.3022"/>
<polygon fill="#191970" stroke="#191970" points="1227.3329,-351.6959 1236.3331,-346.106 1225.8114,-344.8632 1227.3329,-351.6959"/>
</g>
<!-- Node13&#45;&gt;Node20 -->
<g id="edge39" class="edge">
<title>Node13&#45;&gt;Node20</title>
<path fill="none" stroke="#191970" d="M1051.2685,-390.4596C1065.5762,-388.7094 1082.6198,-386.681 1098,-385 1260.4841,-367.2415 1305.6167,-389.3878 1464,-349 1488.3515,-342.7904 1550.6462,-314.8312 1587.4875,-297.8274"/>
<polygon fill="#191970" stroke="#191970" points="1589.1072,-300.9345 1596.7091,-293.5547 1586.1643,-294.5831 1589.1072,-300.9345"/>
</g>
<!-- Node14&#45;&gt;Node2 -->
<g id="edge21" class="edge">
<title>Node14&#45;&gt;Node2</title>
<path fill="none" stroke="#191970" d="M1250.4988,-330.4584C1227.1213,-317.08 1181.1901,-291.7882 1140,-275 1090.0114,-254.6257 1066.4879,-272.298 1024,-239 989.8185,-212.2117 968.1988,-164.329 958.3119,-138.0404"/>
<polygon fill="#191970" stroke="#191970" points="961.5654,-136.7444 954.8914,-128.5159 954.9774,-139.1104 961.5654,-136.7444"/>
</g>
<!-- Node14&#45;&gt;Node3 -->
<g id="edge23" class="edge">
<title>Node14&#45;&gt;Node3</title>
<path fill="none" stroke="#191970" d="M1295.4355,-334.9102C1369.7363,-322.4985 1559,-285.3969 1559,-229.5 1559,-229.5 1559,-229.5 1559,-174.5 1559,-102.4975 1455.5415,-76.8614 1401.3116,-68.3695"/>
<polygon fill="#191970" stroke="#191970" points="1401.5675,-64.8699 1391.1673,-66.891 1400.5579,-71.7967 1401.5675,-64.8699"/>
</g>
<!-- Node15 -->
<g id="node15" class="node">
<title>Node15</title>
<g id="a_node15"><a xlink:title=" ">
<polygon fill="#ffffff" stroke="#bfbfbf" points="1263.3301,-275.5 1263.3301,-293.5 1302.6699,-293.5 1302.6699,-275.5 1263.3301,-275.5"/>
<text text-anchor="middle" x="1283" y="-281.5" font-family="Arial.ttf" font-size="10.00" fill="#000000">stack</text>
</a>
</g>
</g>
<!-- Node14&#45;&gt;Node15 -->
<g id="edge22" class="edge">
<title>Node14&#45;&gt;Node15</title>
<path fill="none" stroke="#191970" d="M1268.8072,-330.4179C1271.0576,-323.1372 1274.2932,-312.669 1277.1069,-303.5659"/>
<polygon fill="#191970" stroke="#191970" points="1280.5226,-304.3671 1280.1318,-293.7795 1273.8348,-302.2999 1280.5226,-304.3671"/>
</g>
<!-- Node16 -->
<g id="node16" class="node">
<title>Node16</title>
<g id="a_node16"><a xlink:href="_s_l_mat3_8h.html" target="_top" xlink:title=" ">
<polygon fill="#ffffff" stroke="#ff0000" points="1320.5986,-275.5 1320.5986,-293.5 1379.4014,-293.5 1379.4014,-275.5 1320.5986,-275.5"/>
<text text-anchor="middle" x="1350" y="-281.5" font-family="Arial.ttf" font-size="10.00" fill="#000000">SLMat3.h</text>
</a>
</g>
</g>
<!-- Node14&#45;&gt;Node16 -->
<g id="edge24" class="edge">
<title>Node14&#45;&gt;Node16</title>
<path fill="none" stroke="#191970" d="M1279.8709,-330.4179C1292.7597,-321.9788 1312.1894,-309.257 1327.3314,-299.3426"/>
<polygon fill="#191970" stroke="#191970" points="1329.6596,-302.0017 1336.1085,-293.5956 1325.825,-296.1454 1329.6596,-302.0017"/>
</g>
<!-- Node14&#45;&gt;Node17 -->
<g id="edge33" class="edge">
<title>Node14&#45;&gt;Node17</title>
<path fill="none" stroke="#191970" d="M1295.604,-331.753C1327.4221,-322.8736 1375.1701,-307.7679 1388,-294 1399.4291,-281.7353 1404.0145,-262.9333 1405.8378,-248.7882"/>
<polygon fill="#191970" stroke="#191970" points="1409.3389,-248.9389 1406.7859,-238.6563 1402.3694,-248.2867 1409.3389,-248.9389"/>
</g>
<!-- Node14&#45;&gt;Node20 -->
<g id="edge34" class="edge">
<title>Node14&#45;&gt;Node20</title>
<path fill="none" stroke="#191970" d="M1295.7509,-335.7978C1350.7123,-328.8015 1471.7928,-312.6559 1573,-294 1574.2688,-293.7661 1575.5571,-293.5218 1576.8569,-293.2694"/>
<polygon fill="#191970" stroke="#191970" points="1577.8142,-296.6463 1586.9121,-291.2167 1576.4141,-289.7877 1577.8142,-296.6463"/>
</g>
<!-- Node16&#45;&gt;Node2 -->
<g id="edge25" class="edge">
<title>Node16&#45;&gt;Node2</title>
<path fill="none" stroke="#191970" d="M1320.1982,-276.7205C1317.4353,-276.0988 1314.6712,-275.5137 1312,-275 1195.2794,-252.5522 1145.7842,-305.1005 1047,-239 1015.3863,-217.846 1028.1887,-194.3568 1004,-165 994.8223,-153.8615 982.7858,-143.1428 972.6046,-134.9096"/>
<polygon fill="#191970" stroke="#191970" points="974.6204,-132.0424 964.5923,-128.6235 970.2996,-137.5498 974.6204,-132.0424"/>
</g>
<!-- Node16&#45;&gt;Node3 -->
<g id="edge26" class="edge">
<title>Node16&#45;&gt;Node3</title>
<path fill="none" stroke="#191970" d="M1350.7922,-275.327C1353.641,-242.3409 1363.4039,-129.2972 1367.3376,-83.7484"/>
<polygon fill="#191970" stroke="#191970" points="1370.8309,-83.9763 1368.2044,-73.7122 1363.8569,-83.3739 1370.8309,-83.9763"/>
</g>
<!-- Node16&#45;&gt;Node17 -->
<g id="edge27" class="edge">
<title>Node16&#45;&gt;Node17</title>
<path fill="none" stroke="#191970" d="M1359.4124,-275.4179C1367.6959,-267.425 1379.9609,-255.5903 1389.9645,-245.9377"/>
<polygon fill="#191970" stroke="#191970" points="1392.6172,-248.2419 1397.3831,-238.7795 1387.7566,-243.2045 1392.6172,-248.2419"/>
</g>
<!-- Node17&#45;&gt;Node2 -->
<g id="edge28" class="edge">
<title>Node17&#45;&gt;Node2</title>
<path fill="none" stroke="#191970" d="M1378.9654,-220.417C1337.2207,-207.0979 1256.1098,-182.0091 1186,-165 1112.4319,-147.1519 1024.5288,-131.5798 980.3359,-124.1435"/>
<polygon fill="#191970" stroke="#191970" points="980.7682,-120.6673 970.3284,-122.4733 979.6158,-127.5718 980.7682,-120.6673"/>
</g>
<!-- Node17&#45;&gt;Node3 -->
<g id="edge32" class="edge">
<title>Node17&#45;&gt;Node3</title>
<path fill="none" stroke="#191970" d="M1404.8481,-220.1561C1398.8128,-193.9504 1381.6334,-119.3557 1373.4453,-83.8021"/>
<polygon fill="#191970" stroke="#191970" points="1376.7834,-82.7008 1371.1283,-73.7414 1369.962,-84.2718 1376.7834,-82.7008"/>
</g>
<!-- Node18 -->
<g id="node18" class="node">
<title>Node18</title>
<g id="a_node18"><a xlink:href="_s_l_vec2_8h.html" target="_top" xlink:title=" ">
<polygon fill="#ffffff" stroke="#000000" points="1434.96,-165.5 1434.96,-183.5 1493.04,-183.5 1493.04,-165.5 1434.96,-165.5"/>
<text text-anchor="middle" x="1464" y="-171.5" font-family="Arial.ttf" font-size="10.00" fill="#000000">SLVec2.h</text>
</a>
</g>
</g>
<!-- Node17&#45;&gt;Node18 -->
<g id="edge29" class="edge">
<title>Node17&#45;&gt;Node18</title>
<path fill="none" stroke="#191970" d="M1416.4124,-220.4179C1424.6959,-212.425 1436.9609,-200.5903 1446.9645,-190.9377"/>
<polygon fill="#191970" stroke="#191970" points="1449.6172,-193.2419 1454.3831,-183.7795 1444.7566,-188.2045 1449.6172,-193.2419"/>
</g>
<!-- Node18&#45;&gt;Node2 -->
<g id="edge30" class="edge">
<title>Node18&#45;&gt;Node2</title>
<path fill="none" stroke="#191970" d="M1434.7655,-170.9886C1419.3684,-169.1601 1400.1676,-166.9129 1383,-165 1231.4533,-148.1143 1049.7448,-129.4491 980.6006,-122.4038"/>
<polygon fill="#191970" stroke="#191970" points="980.7947,-118.9055 970.4917,-121.3749 980.0859,-125.8696 980.7947,-118.9055"/>
</g>
<!-- Node18&#45;&gt;Node3 -->
<g id="edge31" class="edge">
<title>Node18&#45;&gt;Node3</title>
<path fill="none" stroke="#191970" d="M1458.8561,-165.2013C1451.4143,-152.1581 1436.7957,-128.0102 1421,-110 1411.4836,-99.1494 1399.4267,-88.4481 1389.3191,-80.1523"/>
<polygon fill="#191970" stroke="#191970" points="1391.3792,-77.318 1381.3858,-73.7991 1387.0036,-82.7819 1391.3792,-77.318"/>
</g>
<!-- Node20&#45;&gt;Node2 -->
<g id="edge35" class="edge">
<title>Node20&#45;&gt;Node2</title>
<path fill="none" stroke="#191970" d="M1610.8343,-275.3392C1596.9183,-251.7118 1556.018,-188.8922 1502,-165 1454.1317,-143.8279 1087.2517,-125.6487 980.8418,-120.779"/>
<polygon fill="#191970" stroke="#191970" points="980.6971,-117.2689 970.5488,-120.3125 980.3801,-124.2618 980.6971,-117.2689"/>
</g>
<!-- Node20&#45;&gt;Node3 -->
<g id="edge38" class="edge">
<title>Node20&#45;&gt;Node3</title>
<path fill="none" stroke="#191970" d="M1616.7894,-275.3174C1618.7287,-246.4132 1620.5113,-156.4701 1573,-110 1548.9024,-86.4305 1452.3396,-73.1072 1401.1826,-67.5717"/>
<polygon fill="#191970" stroke="#191970" points="1401.3074,-64.0658 1390.9978,-66.5078 1400.5801,-71.0279 1401.3074,-64.0658"/>
</g>
<!-- Node20&#45;&gt;Node17 -->
<g id="edge37" class="edge">
<title>Node20&#45;&gt;Node17</title>
<path fill="none" stroke="#191970" d="M1586.9394,-276.8525C1550.2323,-267.1927 1486.934,-250.5353 1446.0354,-239.7725"/>
<polygon fill="#191970" stroke="#191970" points="1446.7114,-236.3313 1436.1499,-237.171 1444.9299,-243.1008 1446.7114,-236.3313"/>
</g>
<!-- Node20&#45;&gt;Node18 -->
<g id="edge36" class="edge">
<title>Node20&#45;&gt;Node18</title>
<path fill="none" stroke="#191970" d="M1605.2702,-275.3719C1590.0162,-262.5315 1561.0201,-238.623 1535,-220 1519.6673,-209.0262 1501.7923,-197.5781 1487.8136,-188.9104"/>
<polygon fill="#191970" stroke="#191970" points="1489.6079,-185.905 1479.2561,-183.6489 1485.9415,-191.8681 1489.6079,-185.905"/>
</g>
<!-- Node25 -->
<g id="node21" class="node">
<title>Node25</title>
<g id="a_node21"><a xlink:href="_s_l_node_8h.html" target="_top" xlink:title=" ">
<polygon fill="#ffffff" stroke="#000000" points="534.7612,-605.5 534.7612,-623.5 595.2388,-623.5 595.2388,-605.5 534.7612,-605.5"/>
<text text-anchor="middle" x="565" y="-611.5" font-family="Arial.ttf" font-size="10.00" fill="#000000">SLNode.h</text>
</a>
</g>
</g>
<!-- Node24&#45;&gt;Node25 -->
<g id="edge44" class="edge">
<title>Node24&#45;&gt;Node25</title>
<path fill="none" stroke="#191970" d="M368.9542,-662.4223C408.5946,-652.7324 479.939,-635.2927 524.7581,-624.3369"/>
<polygon fill="#191970" stroke="#191970" points="525.8384,-627.676 534.7212,-621.9015 524.1761,-620.8762 525.8384,-627.676"/>
</g>
<!-- Node25&#45;&gt;Node9 -->
<g id="edge47" class="edge">
<title>Node25&#45;&gt;Node9</title>
<path fill="none" stroke="#191970" d="M550.2757,-605.4315C537.6463,-597.1153 519.5526,-583.8613 507,-569 464.9086,-519.167 468.8964,-496.9002 437,-440 408.8939,-389.8614 374.6179,-331.3337 357.6173,-302.4728"/>
<polygon fill="#191970" stroke="#191970" points="360.4578,-300.3994 352.3629,-293.564 354.4284,-303.9556 360.4578,-300.3994"/>
</g>
<!-- Node25&#45;&gt;Node13 -->
<g id="edge67" class="edge">
<title>Node25&#45;&gt;Node13</title>
<path fill="none" stroke="#191970" d="M585.6473,-605.491C615.4982,-592.5869 672.5564,-568.3728 722,-550 769.4279,-532.3762 784.2829,-535.6783 830,-514 895.0438,-483.1573 965.0215,-434.2985 998.6596,-409.7049"/>
<polygon fill="#191970" stroke="#191970" points="1000.8032,-412.473 1006.7775,-403.7233 996.6507,-406.8377 1000.8032,-412.473"/>
</g>
<!-- Node26 -->
<g id="node22" class="node">
<title>Node26</title>
<g id="a_node22"><a xlink:href="_s_l_draw_bits_8h.html" target="_top" xlink:title=" ">
<polygon fill="#ffffff" stroke="#000000" points="526.7119,-495.5 526.7119,-513.5 603.2881,-513.5 603.2881,-495.5 526.7119,-495.5"/>
<text text-anchor="middle" x="565" y="-501.5" font-family="Arial.ttf" font-size="10.00" fill="#000000">SLDrawBits.h</text>
</a>
</g>
</g>
<!-- Node25&#45;&gt;Node26 -->
<g id="edge45" class="edge">
<title>Node25&#45;&gt;Node26</title>
<path fill="none" stroke="#191970" d="M565,-605.4982C565,-587.6913 565,-547.6225 565,-523.6515"/>
<polygon fill="#191970" stroke="#191970" points="568.5001,-523.6261 565,-513.6261 561.5001,-523.6262 568.5001,-523.6261"/>
</g>
<!-- Node25&#45;&gt;Node27 -->
<g id="edge48" class="edge">
<title>Node25&#45;&gt;Node27</title>
<path fill="none" stroke="#191970" d="M554.6875,-605.3301C536.125,-587.7552 499,-547.2603 499,-504.5 499,-504.5 499,-504.5 499,-449.5 499,-415.4876 482.5685,-378.6418 471.3155,-357.3963"/>
<polygon fill="#191970" stroke="#191970" points="474.3336,-355.6213 466.4445,-348.5493 468.2016,-358.9975 474.3336,-355.6213"/>
</g>
<!-- Node25&#45;&gt;Node28 -->
<g id="edge51" class="edge">
<title>Node25&#45;&gt;Node28</title>
<path fill="none" stroke="#191970" d="M595.5187,-609.394C640.4847,-601.759 727.3986,-586.5765 811.4889,-569.0187"/>
<polygon fill="#191970" stroke="#191970" points="812.3951,-572.4048 821.4612,-566.9223 810.955,-565.5545 812.3951,-572.4048"/>
</g>
<!-- Node26&#45;&gt;Node2 -->
<g id="edge46" class="edge">
<title>Node26&#45;&gt;Node2</title>
<path fill="none" stroke="#191970" d="M566.3905,-495.3988C569.1382,-476.5979 575,-432.0849 575,-394.5 575,-394.5 575,-394.5 575,-229.5 575,-170.8986 634.7836,-184.6284 690,-165 711.7943,-157.2525 860.0282,-133.7511 923.3823,-123.9092"/>
<polygon fill="#191970" stroke="#191970" points="924.1384,-127.334 933.4845,-122.344 923.0665,-120.4165 924.1384,-127.334"/>
</g>
<!-- Node27&#45;&gt;Node2 -->
<g id="edge49" class="edge">
<title>Node27&#45;&gt;Node2</title>
<path fill="none" stroke="#191970" d="M463.1551,-330.2729C470.6544,-300.4399 498.6259,-206.1453 561,-165 591.157,-145.1068 838.2647,-127.0336 923.345,-121.3464"/>
<polygon fill="#191970" stroke="#191970" points="923.5955,-124.8376 933.3428,-120.6855 923.1337,-117.8528 923.5955,-124.8376"/>
</g>
<!-- Node27&#45;&gt;Node9 -->
<g id="edge50" class="edge">
<title>Node27&#45;&gt;Node9</title>
<path fill="none" stroke="#191970" d="M442.1752,-330.4179C423.8582,-321.5807 395.8071,-308.0473 374.897,-297.9591"/>
<polygon fill="#191970" stroke="#191970" points="376.3802,-294.7887 365.8527,-293.5956 373.3385,-301.0933 376.3802,-294.7887"/>
</g>
<!-- Node28&#45;&gt;Node9 -->
<g id="edge63" class="edge">
<title>Node28&#45;&gt;Node9</title>
<path fill="none" stroke="#191970" d="M821.3237,-551.9993C780.8737,-541.9353 712.0173,-524.1548 688,-514 643.4176,-495.1501 628.2779,-493.1751 594,-459 546.8759,-412.0173 571.0054,-370.2302 518,-330 498.1357,-314.9233 434.6906,-300.6695 390.9314,-292.2588"/>
<polygon fill="#191970" stroke="#191970" points="391.5695,-288.8175 381.0939,-290.402 390.2712,-295.696 391.5695,-288.8175"/>
</g>
<!-- Node29 -->
<g id="node25" class="node">
<title>Node29</title>
<g id="a_node25"><a xlink:href="_s_l_a_a_b_box_8h.html" target="_top" xlink:title=" ">
<polygon fill="#ffffff" stroke="#000000" points="1238.0938,-495.5 1238.0938,-513.5 1311.9063,-513.5 1311.9063,-495.5 1238.0938,-495.5"/>
<text text-anchor="middle" x="1275" y="-501.5" font-family="Arial.ttf" font-size="10.00" fill="#000000">SLAABBox.h</text>
</a>
</g>
</g>
<!-- Node28&#45;&gt;Node29 -->
<g id="edge52" class="edge">
<title>Node28&#45;&gt;Node29</title>
<path fill="none" stroke="#191970" d="M882.7618,-555.5002C955.8378,-545.9986 1140.2579,-522.0197 1227.6572,-510.6557"/>
<polygon fill="#191970" stroke="#191970" points="1228.3555,-514.0944 1237.8207,-509.3342 1227.4529,-507.1529 1228.3555,-514.0944"/>
</g>
<!-- Node31 -->
<g id="node27" class="node">
<title>Node31</title>
<g id="a_node27"><a xlink:href="_s_l_g_l_vertex_array_8h.html" target="_top" xlink:title=" ">
<polygon fill="#ffffff" stroke="#000000" points="1208.6587,-385.5 1208.6587,-403.5 1309.3413,-403.5 1309.3413,-385.5 1208.6587,-385.5"/>
<text text-anchor="middle" x="1259" y="-391.5" font-family="Arial.ttf" font-size="10.00" fill="#000000">SLGLVertexArray.h</text>
</a>
</g>
</g>
<!-- Node28&#45;&gt;Node31 -->
<g id="edge64" class="edge">
<title>Node28&#45;&gt;Node31</title>
<path fill="none" stroke="#191970" d="M882.6681,-558.36C949.8733,-554.4259 1112.5317,-536.9171 1218,-459 1233.6298,-447.4531 1244.795,-428.0083 1251.4885,-413.4812"/>
<polygon fill="#191970" stroke="#191970" points="1254.8487,-414.5256 1255.572,-403.9555 1248.4149,-411.7676 1254.8487,-414.5256"/>
</g>
<!-- Node34 -->
<g id="node30" class="node">
<title>Node34</title>
<g id="a_node30"><a xlink:href="_s_l_object_8h.html" target="_top" xlink:title=" ">
<polygon fill="#ffffff" stroke="#000000" points="705.2637,-385.5 705.2637,-403.5 770.7363,-403.5 770.7363,-385.5 705.2637,-385.5"/>
<text text-anchor="middle" x="738" y="-391.5" font-family="Arial.ttf" font-size="10.00" fill="#000000">SLObject.h</text>
</a>
</g>
</g>
<!-- Node28&#45;&gt;Node34 -->
<g id="edge65" class="edge">
<title>Node28&#45;&gt;Node34</title>
<path fill="none" stroke="#191970" d="M850.7678,-550.2842C848.5867,-536.9099 842.9857,-511.8794 830,-495 812.412,-472.1382 795.8212,-479.9551 776,-459 763.1894,-445.4566 752.8048,-426.8409 746.1493,-413.0888"/>
<polygon fill="#191970" stroke="#191970" points="749.1773,-411.2974 741.8083,-403.6851 742.8218,-414.2313 749.1773,-411.2974"/>
</g>
<!-- Node29&#45;&gt;Node14 -->
<g id="edge62" class="edge">
<title>Node29&#45;&gt;Node14</title>
<path fill="none" stroke="#191970" d="M1276.7663,-495.428C1279.4526,-482.6542 1285.2013,-458.8243 1294,-440 1305.2932,-415.8386 1329.0206,-409.2869 1318,-385 1312.3461,-372.54 1301.4074,-362.1506 1291.0156,-354.4602"/>
<polygon fill="#191970" stroke="#191970" points="1292.7695,-351.4191 1282.5432,-348.6489 1288.81,-357.1916 1292.7695,-351.4191"/>
</g>
<!-- Node30 -->
<g id="node26" class="node">
<title>Node30</title>
<g id="a_node26"><a xlink:href="_s_l_g_l_vertex_array_ext_8h.html" target="_top" xlink:title=" ">
<polygon fill="#ffffff" stroke="#000000" points="1303.0659,-440.5 1303.0659,-458.5 1418.9341,-458.5 1418.9341,-440.5 1303.0659,-440.5"/>
<text text-anchor="middle" x="1361" y="-446.5" font-family="Arial.ttf" font-size="10.00" fill="#000000">SLGLVertexArrayExt.h</text>
</a>
</g>
</g>
<!-- Node29&#45;&gt;Node30 -->
<g id="edge53" class="edge">
<title>Node29&#45;&gt;Node30</title>
<path fill="none" stroke="#191970" d="M1289.2012,-495.4179C1302.5213,-486.8992 1322.665,-474.0166 1338.2292,-464.0627"/>
<polygon fill="#191970" stroke="#191970" points="1340.239,-466.932 1346.7778,-458.5956 1336.4675,-461.0348 1340.239,-466.932"/>
</g>
<!-- Node30&#45;&gt;Node31 -->
<g id="edge54" class="edge">
<title>Node30&#45;&gt;Node31</title>
<path fill="none" stroke="#191970" d="M1344.1568,-440.4179C1327.9893,-431.7001 1303.3462,-418.4122 1284.7224,-408.3699"/>
<polygon fill="#191970" stroke="#191970" points="1286.3314,-405.2611 1275.8682,-403.5956 1283.009,-411.4225 1286.3314,-405.2611"/>
</g>
<!-- Node32 -->
<g id="node28" class="node">
<title>Node32</title>
<g id="a_node28"><a xlink:href="_s_l_g_l_enums_8h.html" target="_top" xlink:title=" ">
<polygon fill="#ffffff" stroke="#000000" points="1049.4829,-275.5 1049.4829,-293.5 1130.5171,-293.5 1130.5171,-275.5 1049.4829,-275.5"/>
<text text-anchor="middle" x="1090" y="-281.5" font-family="Arial.ttf" font-size="10.00" fill="#000000">SLGLEnums.h</text>
</a>
</g>
</g>
<!-- Node31&#45;&gt;Node32 -->
<g id="edge55" class="edge">
<title>Node31&#45;&gt;Node32</title>
<path fill="none" stroke="#191970" d="M1226.4598,-385.4424C1203.2419,-377.9974 1172.0072,-365.9122 1148,-349 1129.6196,-336.0517 1112.9513,-316.2688 1102.2495,-302.027"/>
<polygon fill="#191970" stroke="#191970" points="1104.8315,-299.6264 1096.1205,-293.5958 1099.1695,-303.7424 1104.8315,-299.6264"/>
</g>
<!-- Node33 -->
<g id="node29" class="node">
<title>Node33</title>
<g id="a_node29"><a xlink:href="_s_l_g_l_vertex_buffer_8h.html" target="_top" xlink:title=" ">
<polygon fill="#ffffff" stroke="#000000" points="1351.2573,-330.5 1351.2573,-348.5 1454.7427,-348.5 1454.7427,-330.5 1351.2573,-330.5"/>
<text text-anchor="middle" x="1403" y="-336.5" font-family="Arial.ttf" font-size="10.00" fill="#000000">SLGLVertexBuffer.h</text>
</a>
</g>
</g>
<!-- Node31&#45;&gt;Node33 -->
<g id="edge57" class="edge">
<title>Node31&#45;&gt;Node33</title>
<path fill="none" stroke="#191970" d="M1282.7787,-385.4179C1306.4371,-376.3817 1342.9513,-362.4353 1369.5324,-352.2828"/>
<polygon fill="#191970" stroke="#191970" points="1371.093,-355.4334 1379.186,-348.5956 1368.5954,-348.8941 1371.093,-355.4334"/>
</g>
<!-- Node32&#45;&gt;Node2 -->
<g id="edge56" class="edge">
<title>Node32&#45;&gt;Node2</title>
<path fill="none" stroke="#191970" d="M1049.4584,-278.2961C1024.6558,-272.3768 994.2781,-260.9388 976,-239 952.1556,-210.38 949.7557,-164.6138 950.5828,-138.816"/>
<polygon fill="#191970" stroke="#191970" points="954.0952,-138.6712 951.1245,-128.5014 947.1048,-138.3041 954.0952,-138.6712"/>
</g>
<!-- Node33&#45;&gt;Node17 -->
<g id="edge60" class="edge">
<title>Node33&#45;&gt;Node17</title>
<path fill="none" stroke="#191970" d="M1421.3257,-330.3461C1434.4978,-322.6482 1451.2475,-310.2877 1459,-294 1468.0543,-274.9771 1449.7258,-256.6079 1432.3843,-244.3715"/>
<polygon fill="#191970" stroke="#191970" points="1433.8334,-241.1352 1423.5561,-238.5607 1429.9848,-246.9823 1433.8334,-241.1352"/>
</g>
<!-- Node33&#45;&gt;Node18 -->
<g id="edge59" class="edge">
<title>Node33&#45;&gt;Node18</title>
<path fill="none" stroke="#191970" d="M1428.8787,-330.3954C1445.0055,-323.2187 1464.4465,-311.4692 1474,-294 1491.4902,-262.0181 1480.3779,-217.8841 1471.6066,-193.1813"/>
<polygon fill="#191970" stroke="#191970" points="1474.7882,-191.7002 1467.9667,-183.5935 1468.2439,-194.1847 1474.7882,-191.7002"/>
</g>
<!-- Node33&#45;&gt;Node20 -->
<g id="edge61" class="edge">
<title>Node33&#45;&gt;Node20</title>
<path fill="none" stroke="#191970" d="M1438.1726,-330.4179C1476.4343,-320.5381 1537.428,-304.7886 1577.0958,-294.5457"/>
<polygon fill="#191970" stroke="#191970" points="1578.1338,-297.8925 1586.9411,-292.0035 1576.3836,-291.1148 1578.1338,-297.8925"/>
</g>
<!-- Node33&#45;&gt;Node32 -->
<g id="edge58" class="edge">
<title>Node33&#45;&gt;Node32</title>
<path fill="none" stroke="#191970" d="M1351.6649,-330.4795C1293.4202,-320.2448 1199.0047,-303.6542 1140.9288,-293.4491"/>
<polygon fill="#191970" stroke="#191970" points="1141.3315,-289.9664 1130.8766,-291.6828 1140.1199,-296.8607 1141.3315,-289.9664"/>
</g>
<!-- Node34&#45;&gt;Node2 -->
<g id="edge66" class="edge">
<title>Node34&#45;&gt;Node2</title>
<path fill="none" stroke="#191970" d="M736.4705,-385.4041C733.448,-366.6131 727,-322.1172 727,-284.5 727,-284.5 727,-284.5 727,-229.5 727,-186.1364 863.5898,-143.5685 923.9231,-126.881"/>
<polygon fill="#191970" stroke="#191970" points="924.8582,-130.2539 933.5873,-124.2495 923.019,-123.4998 924.8582,-130.2539"/>
</g>
<!-- Node35&#45;&gt;Node7 -->
<g id="edge69" class="edge">
<title>Node35&#45;&gt;Node7</title>
<path fill="none" stroke="#191970" d="M278.4367,-770.4243C261.2802,-763.0934 239.4396,-751.1534 226,-734 207.569,-710.4759 207,-699.3846 207,-669.5 207,-669.5 207,-669.5 207,-559.5 207,-526.3284 194.1449,-489.4498 185.2646,-467.9315"/>
<polygon fill="#191970" stroke="#191970" points="188.4572,-466.4957 181.2983,-458.6855 182.0241,-469.2554 188.4572,-466.4957"/>
</g>
<!-- Node35&#45;&gt;Node10 -->
<g id="edge70" class="edge">
<title>Node35&#45;&gt;Node10</title>
<path fill="none" stroke="#191970" d="M299.3764,-770.4179C295.5893,-762.9789 290.1081,-752.2123 285.405,-742.9742"/>
<polygon fill="#191970" stroke="#191970" points="288.38,-741.1032 280.7241,-733.7795 282.1419,-744.279 288.38,-741.1032"/>
</g>
<!-- Node35&#45;&gt;Node24 -->
<g id="edge71" class="edge">
<title>Node35&#45;&gt;Node24</title>
<path fill="none" stroke="#191970" d="M309.2168,-770.3635C314.1597,-761.3662 321.4807,-747.106 326,-734 331.0848,-719.254 334.7205,-701.9529 337.0104,-688.9834"/>
<polygon fill="#191970" stroke="#191970" points="340.5037,-689.3106 338.679,-678.8741 333.5971,-688.1706 340.5037,-689.3106"/>
</g>
<!-- Node36&#45;&gt;Node5 -->
<g id="edge73" class="edge">
<title>Node36&#45;&gt;Node5</title>
<path fill="none" stroke="#191970" d="M61,-715.3733C61,-696.5256 61,-651.9306 61,-614.5 61,-614.5 61,-614.5 61,-119.5 61,-85.1097 79.1384,-48.4143 91.5753,-27.2955"/>
<polygon fill="#191970" stroke="#191970" points="94.5687,-29.1092 96.8028,-18.7526 88.5979,-25.4556 94.5687,-29.1092"/>
</g>
<!-- Node38 -->
<g id="node34" class="node">
<title>Node38</title>
<g id="a_node34"><a xlink:href="_s_l_camera_8h.html" target="_top" xlink:title=" ">
<polygon fill="#ffffff" stroke="#000000" points="904.9312,-660.5 904.9312,-678.5 977.0688,-678.5 977.0688,-660.5 904.9312,-660.5"/>
<text text-anchor="middle" x="941" y="-666.5" font-family="Arial.ttf" font-size="10.00" fill="#000000">SLCamera.h</text>
</a>
</g>
</g>
<!-- Node37&#45;&gt;Node38 -->
<g id="edge76" class="edge">
<title>Node37&#45;&gt;Node38</title>
<path fill="none" stroke="#191970" d="M818.8839,-770.4982C841.4858,-751.805 893.7504,-708.5786 922.0216,-685.1964"/>
<polygon fill="#191970" stroke="#191970" points="924.4904,-687.6966 929.9657,-678.6261 920.0291,-682.3024 924.4904,-687.6966"/>
</g>
<!-- Node38&#45;&gt;Node9 -->
<g id="edge80" class="edge">
<title>Node38&#45;&gt;Node9</title>
<path fill="none" stroke="#191970" d="M904.9103,-667.6155C817.356,-662.7129 595.7507,-648.2299 526,-624 474.978,-606.2761 423,-613.5128 423,-559.5 423,-559.5 423,-559.5 423,-504.5 423,-499.2184 372.2839,-355.7561 353.7112,-303.3958"/>
<polygon fill="#191970" stroke="#191970" points="356.9089,-301.9413 350.2656,-293.6879 350.3121,-304.2827 356.9089,-301.9413"/>
</g>
<!-- Node38&#45;&gt;Node25 -->
<g id="edge86" class="edge">
<title>Node38&#45;&gt;Node25</title>
<path fill="none" stroke="#191970" d="M904.6059,-664.1764C834.078,-653.8598 679.2613,-631.2138 605.5538,-620.4321"/>
<polygon fill="#191970" stroke="#191970" points="605.6885,-616.9146 595.2872,-618.9303 604.6753,-623.8409 605.6885,-616.9146"/>
</g>
<!-- Node38&#45;&gt;Node30 -->
<g id="edge85" class="edge">
<title>Node38&#45;&gt;Node30</title>
<path fill="none" stroke="#191970" d="M977.1039,-663.6928C1050.6537,-650.1346 1219.459,-609.9644 1321,-514 1334.8708,-500.891 1345.8505,-481.9679 1352.7703,-468.0065"/>
<polygon fill="#191970" stroke="#191970" points="1355.9783,-469.4094 1357.0747,-458.8714 1349.6461,-466.4256 1355.9783,-469.4094"/>
</g>
<!-- Node39 -->
<g id="node35" class="node">
<title>Node39</title>
<g id="a_node35"><a xlink:href="_s_l_background_8h.html" target="_top" xlink:title=" ">
<polygon fill="#ffffff" stroke="#000000" points="981.0298,-440.5 981.0298,-458.5 1070.9702,-458.5 1070.9702,-440.5 981.0298,-440.5"/>
<text text-anchor="middle" x="1026" y="-446.5" font-family="Arial.ttf" font-size="10.00" fill="#000000">SLBackground.h</text>
</a>
</g>
</g>
<!-- Node38&#45;&gt;Node39 -->
<g id="edge77" class="edge">
<title>Node38&#45;&gt;Node39</title>
<path fill="none" stroke="#191970" d="M944.5441,-660.327C957.3428,-627.2011 1001.3354,-513.3378 1018.7854,-468.173"/>
<polygon fill="#191970" stroke="#191970" points="1022.1015,-469.3016 1022.4407,-458.7122 1015.5719,-466.7788 1022.1015,-469.3016"/>
</g>
<!-- Node40 -->
<g id="node36" class="node">
<title>Node40</title>
<g id="a_node36"><a xlink:href="_s_l_g_l_state_8h.html" target="_top" xlink:title=" ">
<polygon fill="#ffffff" stroke="#000000" points="1446.3696,-385.5 1446.3696,-403.5 1519.6304,-403.5 1519.6304,-385.5 1446.3696,-385.5"/>
<text text-anchor="middle" x="1483" y="-391.5" font-family="Arial.ttf" font-size="10.00" fill="#000000">SLGLState.h</text>
</a>
</g>
</g>
<!-- Node38&#45;&gt;Node40 -->
<g id="edge81" class="edge">
<title>Node38&#45;&gt;Node40</title>
<path fill="none" stroke="#191970" d="M977.1147,-666.0517C1098.6147,-653.9721 1485,-611.472 1485,-559.5 1485,-559.5 1485,-559.5 1485,-504.5 1485,-472.7665 1484.1576,-435.892 1483.5663,-413.9151"/>
<polygon fill="#191970" stroke="#191970" points="1487.0568,-413.5237 1483.2781,-403.6256 1480.0595,-413.7197 1487.0568,-413.5237"/>
</g>
<!-- Node41 -->
<g id="node37" class="node">
<title>Node41</title>
<g id="a_node37"><a xlink:href="_s_l_plane_8h.html" target="_top" xlink:title=" ">
<polygon fill="#ffffff" stroke="#000000" points="892.9263,-275.5 892.9263,-293.5 955.0737,-293.5 955.0737,-275.5 892.9263,-275.5"/>
<text text-anchor="middle" x="924" y="-281.5" font-family="Arial.ttf" font-size="10.00" fill="#000000">SLPlane.h</text>
</a>
</g>
</g>
<!-- Node38&#45;&gt;Node41 -->
<g id="edge87" class="edge">
<title>Node38&#45;&gt;Node41</title>
<path fill="none" stroke="#191970" d="M937.2748,-660.2576C930.0856,-641.5597 915,-597.7657 915,-559.5 915,-559.5 915,-559.5 915,-504.5 915,-430.3647 920.1652,-342.2944 922.6696,-303.9494"/>
<polygon fill="#191970" stroke="#191970" points="926.1788,-303.9271 923.3527,-293.7162 919.1943,-303.4608 926.1788,-303.9271"/>
</g>
<!-- Node42 -->
<g id="node38" class="node">
<title>Node42</title>
<g id="a_node38"><a xlink:href="_s_l_ray_8h.html" target="_top" xlink:title=" ">
<polygon fill="#ffffff" stroke="#000000" points="795.1914,-605.5 795.1914,-623.5 848.8086,-623.5 848.8086,-605.5 795.1914,-605.5"/>
<text text-anchor="middle" x="822" y="-611.5" font-family="Arial.ttf" font-size="10.00" fill="#000000">SLRay.h</text>
</a>
</g>
</g>
<!-- Node38&#45;&gt;Node42 -->
<g id="edge90" class="edge">
<title>Node38&#45;&gt;Node42</title>
<path fill="none" stroke="#191970" d="M921.3496,-660.4179C902.143,-651.5409 872.6837,-637.9253 850.826,-627.823"/>
<polygon fill="#191970" stroke="#191970" points="852.2254,-624.614 841.6796,-623.5956 849.2886,-630.9682 852.2254,-624.614"/>
</g>
<!-- Node57 -->
<g id="node47" class="node">
<title>Node57</title>
<g id="a_node47"><a xlink:href="_s_l_samples2_d_8h.html" target="_top" xlink:title=" ">
<polygon fill="#ffffff" stroke="#000000" points="1055.8696,-220.5 1055.8696,-238.5 1144.1304,-238.5 1144.1304,-220.5 1055.8696,-220.5"/>
<text text-anchor="middle" x="1100" y="-226.5" font-family="Arial.ttf" font-size="10.00" fill="#000000">SLSamples2D.h</text>
</a>
</g>
</g>
<!-- Node38&#45;&gt;Node57 -->
<g id="edge110" class="edge">
<title>Node38&#45;&gt;Node57</title>
<path fill="none" stroke="#191970" d="M950.3789,-660.1112C977.2932,-632.4006 1054.4782,-547.3548 1080,-459 1103.2243,-378.5992 1002.7726,-349.9518 1040,-275 1046.5805,-261.7512 1059.0663,-251.325 1070.9513,-243.8148"/>
<polygon fill="#191970" stroke="#191970" points="1072.9426,-246.7051 1079.8149,-238.6415 1069.414,-240.6595 1072.9426,-246.7051"/>
</g>
<!-- Node39&#45;&gt;Node31 -->
<g id="edge78" class="edge">
<title>Node39&#45;&gt;Node31</title>
<path fill="none" stroke="#191970" d="M1064.2143,-440.4795C1104.3388,-431.008 1167.5229,-416.0933 1210.9871,-405.8335"/>
<polygon fill="#191970" stroke="#191970" points="1211.8364,-409.2293 1220.7648,-403.5255 1210.2282,-402.4165 1211.8364,-409.2293"/>
</g>
<!-- Node39&#45;&gt;Node34 -->
<g id="edge79" class="edge">
<title>Node39&#45;&gt;Node34</title>
<path fill="none" stroke="#191970" d="M981.007,-441.7288C933.7258,-433.4397 856.9391,-419.6322 781.1832,-404.1818"/>
<polygon fill="#191970" stroke="#191970" points="781.4876,-400.6715 770.9884,-402.0911 780.0814,-407.5288 781.4876,-400.6715"/>
</g>
<!-- Node40&#45;&gt;Node14 -->
<g id="edge84" class="edge">
<title>Node40&#45;&gt;Node14</title>
<path fill="none" stroke="#191970" d="M1447.1669,-385.4179C1408.1039,-375.5171 1345.7836,-359.7216 1305.3776,-349.4805"/>
<polygon fill="#191970" stroke="#191970" points="1306.158,-346.0677 1295.6046,-347.0035 1304.4382,-352.8531 1306.158,-346.0677"/>
</g>
<!-- Node40&#45;&gt;Node17 -->
<g id="edge82" class="edge">
<title>Node40&#45;&gt;Node17</title>
<path fill="none" stroke="#191970" d="M1446.2681,-387.7012C1408.7896,-379.9289 1354.4148,-366.0514 1342,-349 1314.04,-310.5977 1391.7104,-319.9461 1407,-294 1414.9946,-280.4333 1414.2061,-262.3086 1411.8715,-248.7273"/>
<polygon fill="#191970" stroke="#191970" points="1415.2174,-247.6356 1409.7057,-238.5873 1408.3718,-249.0978 1415.2174,-247.6356"/>
</g>
<!-- Node40&#45;&gt;Node20 -->
<g id="edge83" class="edge">
<title>Node40&#45;&gt;Node20</title>
<path fill="none" stroke="#191970" d="M1489.6177,-385.3662C1499.5354,-372.0941 1519.31,-347.1896 1540,-330 1554.8892,-317.6298 1573.5108,-306.424 1588.5946,-298.2282"/>
<polygon fill="#191970" stroke="#191970" points="1590.2652,-301.3041 1597.4642,-293.5307 1586.9889,-295.1181 1590.2652,-301.3041"/>
</g>
<!-- Node41&#45;&gt;Node2 -->
<g id="edge88" class="edge">
<title>Node41&#45;&gt;Node2</title>
<path fill="none" stroke="#191970" d="M924.4991,-275.4148C925.7257,-255.3229 929.4339,-205.6758 938,-165 939.8711,-156.1152 942.7145,-146.4768 945.3511,-138.3678"/>
<polygon fill="#191970" stroke="#191970" points="948.7052,-139.375 948.5989,-128.7807 942.0753,-137.1289 948.7052,-139.375"/>
</g>
<!-- Node41&#45;&gt;Node17 -->
<g id="edge89" class="edge">
<title>Node41&#45;&gt;Node17</title>
<path fill="none" stroke="#191970" d="M955.3938,-277.4352C959.9447,-276.5386 964.5827,-275.6938 969,-275 1045.5403,-262.9789 1275.4483,-241.4706 1367.8847,-233.0338"/>
<polygon fill="#191970" stroke="#191970" points="1368.3015,-236.5105 1377.9429,-232.1179 1367.6667,-229.5393 1368.3015,-236.5105"/>
</g>
<!-- Node42&#45;&gt;Node28 -->
<g id="edge109" class="edge">
<title>Node42&#45;&gt;Node28</title>
<path fill="none" stroke="#191970" d="M826.9539,-605.4179C831.0546,-597.8998 837.0093,-586.9829 842.0837,-577.6799"/>
<polygon fill="#191970" stroke="#191970" points="845.2225,-579.2344 846.9385,-568.7795 839.0773,-575.8824 845.2225,-579.2344"/>
</g>
<!-- Node42&#45;&gt;Node43 -->
<g id="edge91" class="edge">
<title>Node42&#45;&gt;Node43</title>
<path fill="none" stroke="#191970" d="M812.9179,-605.4179C804.925,-597.425 793.0903,-585.5903 783.4377,-575.9377"/>
<polygon fill="#191970" stroke="#191970" points="785.8254,-573.3757 776.2795,-568.7795 780.8757,-578.3254 785.8254,-573.3757"/>
</g>
<!-- Node43&#45;&gt;Node26 -->
<g id="edge92" class="edge">
<title>Node43&#45;&gt;Node26</title>
<path fill="none" stroke="#191970" d="M733.6438,-550.4179C699.1838,-541.0352 645.2807,-526.3586 607.7219,-516.1322"/>
<polygon fill="#191970" stroke="#191970" points="608.6383,-512.7544 598.07,-513.5042 606.7992,-519.5085 608.6383,-512.7544"/>
</g>
<!-- Node44 -->
<g id="node40" class="node">
<title>Node44</title>
<g id="a_node40"><a xlink:href="_s_l_g_l_generic_program_8h.html" target="_top" xlink:title=" ">
<polygon fill="#ffffff" stroke="#000000" points="697.3647,-495.5 697.3647,-513.5 820.6353,-513.5 820.6353,-495.5 697.3647,-495.5"/>
<text text-anchor="middle" x="759" y="-501.5" font-family="Arial.ttf" font-size="10.00" fill="#000000">SLGLGenericProgram.h</text>
</a>
</g>
</g>
<!-- Node43&#45;&gt;Node44 -->
<g id="edge93" class="edge">
<title>Node43&#45;&gt;Node44</title>
<path fill="none" stroke="#191970" d="M765.679,-550.4179C764.6315,-543.2164 763.1304,-532.8962 761.8165,-523.8632"/>
<polygon fill="#191970" stroke="#191970" points="765.2528,-523.1715 760.3497,-513.7795 758.3257,-524.1791 765.2528,-523.1715"/>
</g>
<!-- Node45 -->
<g id="node41" class="node">
<title>Node45</title>
<g id="a_node41"><a xlink:href="_s_l_g_l_program_8h.html" target="_top" xlink:title=" ">
<polygon fill="#ffffff" stroke="#000000" points="602.8721,-440.5 602.8721,-458.5 691.1279,-458.5 691.1279,-440.5 602.8721,-440.5"/>
<text text-anchor="middle" x="647" y="-446.5" font-family="Arial.ttf" font-size="10.00" fill="#000000">SLGLProgram.h</text>
</a>
</g>
</g>
<!-- Node43&#45;&gt;Node45 -->
<g id="edge101" class="edge">
<title>Node43&#45;&gt;Node45</title>
<path fill="none" stroke="#191970" d="M745.0232,-550.3679C728.0406,-542.5312 704.6928,-529.9791 688,-514 674.1166,-500.7102 662.8184,-481.8109 655.6245,-467.9043"/>
<polygon fill="#191970" stroke="#191970" points="658.7001,-466.2278 651.1332,-458.812 652.424,-469.3279 658.7001,-466.2278"/>
</g>
<!-- Node47 -->
<g id="node43" class="node">
<title>Node47</title>
<g id="a_node43"><a xlink:href="_s_l_g_l_texture_8h.html" target="_top" xlink:title=" ">
<polygon fill="#ffffff" stroke="#000000" points="1127.0166,-440.5 1127.0166,-458.5 1208.9834,-458.5 1208.9834,-440.5 1127.0166,-440.5"/>
<text text-anchor="middle" x="1168" y="-446.5" font-family="Arial.ttf" font-size="10.00" fill="#000000">SLGLTexture.h</text>
</a>
</g>
</g>
<!-- Node43&#45;&gt;Node47 -->
<g id="edge102" class="edge">
<title>Node43&#45;&gt;Node47</title>
<path fill="none" stroke="#191970" d="M803.2852,-551.6419C852.1561,-540.9896 936.5173,-522.3414 967,-514 1025.6571,-497.9489 1092.723,-475.6063 1132.6516,-461.8723"/>
<polygon fill="#191970" stroke="#191970" points="1133.8874,-465.1484 1142.1966,-458.5752 1131.6019,-458.532 1133.8874,-465.1484"/>
</g>
<!-- Node44&#45;&gt;Node34 -->
<g id="edge100" class="edge">
<title>Node44&#45;&gt;Node34</title>
<path fill="none" stroke="#191970" d="M754.9607,-495.293C751.184,-486.2434 745.7289,-471.9456 743,-459 739.8465,-444.0399 738.6329,-426.7524 738.1879,-413.8426"/>
<polygon fill="#191970" stroke="#191970" points="741.686,-413.713 737.9652,-403.793 734.6877,-413.8681 741.686,-413.713"/>
</g>
<!-- Node44&#45;&gt;Node45 -->
<g id="edge94" class="edge">
<title>Node44&#45;&gt;Node45</title>
<path fill="none" stroke="#191970" d="M740.5055,-495.4179C722.5908,-486.6205 695.1989,-473.1691 674.6856,-463.0956"/>
<polygon fill="#191970" stroke="#191970" points="676.0409,-459.8619 665.522,-458.5956 672.9553,-466.1452 676.0409,-459.8619"/>
</g>
<!-- Node45&#45;&gt;Node8 -->
<g id="edge99" class="edge">
<title>Node45&#45;&gt;Node8</title>
<path fill="none" stroke="#191970" d="M602.8711,-441.6198C538.4459,-430.1153 420.4908,-409.0519 366.8619,-399.4753"/>
<polygon fill="#191970" stroke="#191970" points="367.1919,-395.979 356.7323,-397.6665 365.9613,-402.87 367.1919,-395.979"/>
</g>
<!-- Node45&#45;&gt;Node34 -->
<g id="edge98" class="edge">
<title>Node45&#45;&gt;Node34</title>
<path fill="none" stroke="#191970" d="M662.0268,-440.4179C676.2531,-431.8195 697.8353,-418.7754 714.3658,-408.7844"/>
<polygon fill="#191970" stroke="#191970" points="716.203,-411.7637 722.9509,-403.5956 712.5822,-405.7729 716.203,-411.7637"/>
</g>
<!-- Node46 -->
<g id="node42" class="node">
<title>Node46</title>
<g id="a_node42"><a xlink:href="_s_l_g_l_uniform_8h.html" target="_top" xlink:title=" ">
<polygon fill="#ffffff" stroke="#000000" points="602.542,-385.5 602.542,-403.5 687.458,-403.5 687.458,-385.5 602.542,-385.5"/>
<text text-anchor="middle" x="645" y="-391.5" font-family="Arial.ttf" font-size="10.00" fill="#000000">SLGLUniform.h</text>
</a>
</g>
</g>
<!-- Node45&#45;&gt;Node46 -->
<g id="edge95" class="edge">
<title>Node45&#45;&gt;Node46</title>
<path fill="none" stroke="#191970" d="M646.6697,-440.4179C646.4079,-433.2164 646.0326,-422.8962 645.7041,-413.8632"/>
<polygon fill="#191970" stroke="#191970" points="649.1986,-413.6456 645.3374,-403.7795 642.2032,-413.9001 649.1986,-413.6456"/>
</g>
<!-- Node46&#45;&gt;Node2 -->
<g id="edge96" class="edge">
<title>Node46&#45;&gt;Node2</title>
<path fill="none" stroke="#191970" d="M645.8343,-385.3825C647.4829,-366.5516 651,-321.9862 651,-284.5 651,-284.5 651,-284.5 651,-229.5 651,-171.8308 848.3808,-135.4283 923.4707,-123.6662"/>
<polygon fill="#191970" stroke="#191970" points="924.2699,-127.0847 933.6242,-122.11 923.2094,-120.1655 924.2699,-127.0847"/>
</g>
<!-- Node46&#45;&gt;Node27 -->
<g id="edge97" class="edge">
<title>Node46&#45;&gt;Node27</title>
<path fill="none" stroke="#191970" d="M614.6161,-385.4179C583.494,-376.115 534.9614,-361.608 500.7917,-351.3943"/>
<polygon fill="#191970" stroke="#191970" points="501.7067,-348.0148 491.1232,-348.5042 499.7019,-354.7216 501.7067,-348.0148"/>
</g>
<!-- Node47&#45;&gt;Node14 -->
<g id="edge107" class="edge">
<title>Node47&#45;&gt;Node14</title>
<path fill="none" stroke="#191970" d="M1170.891,-440.3178C1175.4321,-426.9854 1185.2672,-402.0065 1200,-385 1210.8527,-372.4724 1225.8915,-361.7536 1238.8729,-353.8719"/>
<polygon fill="#191970" stroke="#191970" points="1240.9804,-356.6956 1247.8725,-348.6489 1237.4667,-350.6413 1240.9804,-356.6956"/>
</g>
<!-- Node47&#45;&gt;Node31 -->
<g id="edge106" class="edge">
<title>Node47&#45;&gt;Node31</title>
<path fill="none" stroke="#191970" d="M1183.0268,-440.4179C1197.2531,-431.8195 1218.8353,-418.7754 1235.3658,-408.7844"/>
<polygon fill="#191970" stroke="#191970" points="1237.203,-411.7637 1243.9509,-403.5956 1233.5822,-405.7729 1237.203,-411.7637"/>
</g>
<!-- Node48 -->
<g id="node44" class="node">
<title>Node48</title>
<g id="a_node44"><a xlink:href="_c_v_image_8h.html" target="_top" xlink:title=" ">
<polygon fill="#ffffff" stroke="#000000" points="788.9878,-385.5 788.9878,-403.5 855.0122,-403.5 855.0122,-385.5 788.9878,-385.5"/>
<text text-anchor="middle" x="822" y="-391.5" font-family="Arial.ttf" font-size="10.00" fill="#000000">CVImage.h</text>
</a>
</g>
</g>
<!-- Node47&#45;&gt;Node48 -->
<g id="edge103" class="edge">
<title>Node47&#45;&gt;Node48</title>
<path fill="none" stroke="#191970" d="M1126.9505,-442.9748C1061.1926,-432.5219 932.8142,-412.115 865.5231,-401.4184"/>
<polygon fill="#191970" stroke="#191970" points="865.6922,-397.9014 855.2667,-399.7881 864.5932,-404.8146 865.6922,-397.9014"/>
</g>
<!-- Node56 -->
<g id="node46" class="node">
<title>Node56</title>
<g id="a_node46"><a xlink:title=" ">
<polygon fill="#ffffff" stroke="#bfbfbf" points="1107.2734,-385.5 1107.2734,-403.5 1152.7266,-403.5 1152.7266,-385.5 1107.2734,-385.5"/>
<text text-anchor="middle" x="1130" y="-391.5" font-family="Arial.ttf" font-size="10.00" fill="#000000">atomic</text>
</a>
</g>
</g>
<!-- Node47&#45;&gt;Node56 -->
<g id="edge108" class="edge">
<title>Node47&#45;&gt;Node56</title>
<path fill="none" stroke="#191970" d="M1161.7251,-440.4179C1156.4214,-432.7415 1148.6695,-421.5217 1142.1562,-412.0945"/>
<polygon fill="#191970" stroke="#191970" points="1144.9752,-410.0173 1136.4113,-403.7795 1139.2161,-413.9963 1144.9752,-410.0173"/>
</g>
<!-- Node49 -->
<g id="node45" class="node">
<title>Node49</title>
<g id="a_node45"><a xlink:href="_c_v_typedefs_8h.html" target="_top" xlink:title=" ">
<polygon fill="#ffffff" stroke="#ff0000" points="130.5913,-165.5 130.5913,-183.5 209.4087,-183.5 209.4087,-165.5 130.5913,-165.5"/>
<text text-anchor="middle" x="170" y="-171.5" font-family="Arial.ttf" font-size="10.00" fill="#000000">CVTypedefs.h</text>
</a>
</g>
</g>
<!-- Node48&#45;&gt;Node49 -->
<g id="edge104" class="edge">
<title>Node48&#45;&gt;Node49</title>
<path fill="none" stroke="#191970" d="M795.2253,-385.4656C692.6586,-350.8572 324.6276,-226.675 206.6623,-186.8707"/>
<polygon fill="#191970" stroke="#191970" points="207.592,-183.4906 196.9978,-183.6097 205.354,-190.1232 207.592,-183.4906"/>
</g>
<!-- Node49&#45;&gt;Node5 -->
<g id="edge105" class="edge">
<title>Node49&#45;&gt;Node5</title>
<path fill="none" stroke="#191970" d="M166.2058,-165.1561C155.5187,-138.837 125.0121,-63.709 110.6512,-28.3426"/>
<polygon fill="#191970" stroke="#191970" points="113.7577,-26.6899 106.7526,-18.7414 107.272,-29.3235 113.7577,-26.6899"/>
</g>
<!-- Node57&#45;&gt;Node2 -->
<g id="edge111" class="edge">
<title>Node57&#45;&gt;Node2</title>
<path fill="none" stroke="#191970" d="M1093.3913,-220.1772C1083.4554,-206.6697 1063.5261,-181.4748 1042,-165 1022.9076,-150.3878 998.4018,-138.3599 979.7837,-130.3483"/>
<polygon fill="#191970" stroke="#191970" points="980.9583,-127.046 970.3816,-126.4262 978.2632,-133.5064 980.9583,-127.046"/>
</g>
<!-- Node57&#45;&gt;Node18 -->
<g id="edge112" class="edge">
<title>Node57&#45;&gt;Node18</title>
<path fill="none" stroke="#191970" d="M1144.2696,-222.8109C1215.9951,-211.9733 1356.4494,-190.7508 1424.7861,-180.4252"/>
<polygon fill="#191970" stroke="#191970" points="1425.3563,-183.8788 1434.7211,-178.924 1424.3104,-176.9574 1425.3563,-183.8788"/>
</g>
<!-- Node58&#45;&gt;Node2 -->
<g id="edge114" class="edge">
<title>Node58&#45;&gt;Node2</title>
<path fill="none" stroke="#191970" d="M1605.3415,-330.3521C1631.5185,-319.875 1665.4645,-300.7734 1654,-275 1624.1933,-207.9916 1598.4913,-193.6966 1531,-165 1480.038,-143.3315 1090.1604,-125.3457 980.5721,-120.6789"/>
<polygon fill="#191970" stroke="#191970" points="980.7183,-117.1821 970.5797,-120.2574 980.4232,-124.1759 980.7183,-117.1821"/>
</g>
<!-- Node58&#45;&gt;Node20 -->
<g id="edge115" class="edge">
<title>Node58&#45;&gt;Node20</title>
<path fill="none" stroke="#191970" d="M1584.2749,-330.4179C1589.5786,-322.7415 1597.3305,-311.5217 1603.8438,-302.0945"/>
<polygon fill="#191970" stroke="#191970" points="1606.7839,-303.9963 1609.5887,-293.7795 1601.0248,-300.0173 1606.7839,-303.9963"/>
</g>
<!-- Node59&#45;&gt;Node2 -->
<g id="edge119" class="edge">
<title>Node59&#45;&gt;Node2</title>
<path fill="none" stroke="#191970" d="M1595.3766,-495.4937C1512.2487,-462.3991 1228.4711,-349.4064 1228,-349 1177.7834,-305.6813 1199.1391,-267.6383 1153,-220 1103.4758,-168.8666 1022.4437,-139.5699 979.9729,-126.9571"/>
<polygon fill="#191970" stroke="#191970" points="980.871,-123.5736 970.2932,-124.1747 978.937,-130.3012 980.871,-123.5736"/>
</g>
<!-- Node59&#45;&gt;Node17 -->
<g id="edge122" class="edge">
<title>Node59&#45;&gt;Node17</title>
<path fill="none" stroke="#191970" d="M1623.8628,-495.2973C1644.5957,-461.4829 1710.2573,-342.567 1654,-275 1628.0873,-243.8779 1509.7344,-233.9647 1446.7337,-230.8676"/>
<polygon fill="#191970" stroke="#191970" points="1446.5331,-227.3549 1436.384,-230.3958 1446.2142,-234.3477 1446.5331,-227.3549"/>
</g>
<!-- Node59&#45;&gt;Node18 -->
<g id="edge121" class="edge">
<title>Node59&#45;&gt;Node18</title>
<path fill="none" stroke="#191970" d="M1629.7338,-495.226C1639.6761,-486.778 1653.6158,-473.4461 1662,-459 1703.1228,-388.1451 1726.217,-337.2853 1673,-275 1628.2887,-222.6697 1550.0894,-195.4132 1503.0676,-183.0789"/>
<polygon fill="#191970" stroke="#191970" points="1503.7984,-179.6537 1493.246,-180.6008 1502.0858,-186.441 1503.7984,-179.6537"/>
</g>
<!-- Node59&#45;&gt;Node30 -->
<g id="edge120" class="edge">
<title>Node59&#45;&gt;Node30</title>
<path fill="none" stroke="#191970" d="M1589.0184,-498.2977C1546.4712,-489.1923 1466.4182,-472.0603 1413.3938,-460.7127"/>
<polygon fill="#191970" stroke="#191970" points="1414.0068,-457.2647 1403.4957,-458.5944 1412.5419,-464.1097 1414.0068,-457.2647"/>
</g>
</g>
</svg>
