<?xml version="1.0" encoding="UTF-8" standalone="no"?>
<!DOCTYPE svg PUBLIC "-//W3C//DTD SVG 1.1//EN"
 "http://www.w3.org/Graphics/SVG/1.1/DTD/svg11.dtd">
<!-- Generated by graphviz version 2.28.0 (20110507.0327)
 -->
<!-- Title: SLRevolver.h Pages: 1 -->
<svg width="1050pt" height="196pt"
 viewBox="0.00 0.00 1050.00 196.00" xmlns="http://www.w3.org/2000/svg" xmlns:xlink="http://www.w3.org/1999/xlink">
<g id="graph1" class="graph" transform="scale(1 1) rotate(0) translate(4 192)">
<title>SLRevolver.h</title>
<polygon fill="white" stroke="white" points="-4,5 -4,-192 1047,-192 1047,5 -4,5"/>
<!-- Node1 -->
<g id="node1" class="node"><title>Node1</title>
<polygon fill="#bfbfbf" stroke="black" points="363,-168.5 363,-187.5 441,-187.5 441,-168.5 363,-168.5"/>
<text text-anchor="middle" x="402" y="-175.5" font-family="Arial.ttf" font-size="10.00">SLRevolver.h</text>
</g>
<!-- Node2 -->
<g id="node3" class="node"><title>Node2</title>
<a xlink:href="_s_l_revolver_8cpp.html" target="_top" xlink:title="SLRevolver.cpp">
<polygon fill="white" stroke="black" points="-0.5,-112.5 -0.5,-131.5 88.5,-131.5 88.5,-112.5 -0.5,-112.5"/>
<text text-anchor="middle" x="44" y="-119.5" font-family="Arial.ttf" font-size="10.00">SLRevolver.cpp</text>
</a>
</g>
<!-- Node1&#45;&gt;Node2 -->
<g id="edge2" class="edge"><title>Node1&#45;&gt;Node2</title>
<path fill="none" stroke="midnightblue" d="M352.628,-169.973C292.448,-161.343 187.68,-146.11 98,-132 94.9956,-131.527 91.8985,-131.032 88.7789,-130.528"/>
<polygon fill="midnightblue" stroke="midnightblue" points="352.218,-173.45 362.613,-171.403 353.21,-166.521 352.218,-173.45"/>
</g>
<!-- Node3 -->
<g id="node5" class="node"><title>Node3</title>
<a xlink:href="_s_l_arrow_8h.html" target="_top" xlink:title="SLArrow.h">
<polygon fill="white" stroke="black" points="860.5,-56.5 860.5,-75.5 925.5,-75.5 925.5,-56.5 860.5,-56.5"/>
<text text-anchor="middle" x="893" y="-63.5" font-family="Arial.ttf" font-size="10.00">SLArrow.h</text>
</a>
</g>
<!-- Node1&#45;&gt;Node3 -->
<g id="edge4" class="edge"><title>Node1&#45;&gt;Node3</title>
<path fill="none" stroke="midnightblue" d="M451.041,-172.485C511.234,-166.306 616.134,-153.463 704,-132 766.528,-116.726 837.675,-89.4586 872.12,-75.5986"/>
<polygon fill="midnightblue" stroke="midnightblue" points="450.654,-169.006 441.055,-173.491 451.356,-175.971 450.654,-169.006"/>
</g>
<!-- Node5 -->
<g id="node9" class="node"><title>Node5</title>
<a xlink:href="_s_l_cone_8h.html" target="_top" xlink:title="SLCone.h">
<polygon fill="white" stroke="black" points="107,-112.5 107,-131.5 169,-131.5 169,-112.5 107,-112.5"/>
<text text-anchor="middle" x="138" y="-119.5" font-family="Arial.ttf" font-size="10.00">SLCone.h</text>
</a>
</g>
<!-- Node1&#45;&gt;Node5 -->
<g id="edge8" class="edge"><title>Node1&#45;&gt;Node5</title>
<path fill="none" stroke="midnightblue" d="M352.766,-166.929C298.993,-155.93 214.501,-138.648 169.186,-129.379"/>
<polygon fill="midnightblue" stroke="midnightblue" points="352.263,-170.399 362.762,-168.974 353.666,-163.541 352.263,-170.399"/>
</g>
<!-- Node8 -->
<g id="node15" class="node"><title>Node8</title>
<a xlink:href="_s_l_cylinder_8h.html" target="_top" xlink:title="SLCylinder.h">
<polygon fill="white" stroke="black" points="198,-112.5 198,-131.5 274,-131.5 274,-112.5 198,-112.5"/>
<text text-anchor="middle" x="236" y="-119.5" font-family="Arial.ttf" font-size="10.00">SLCylinder.h</text>
</a>
</g>
<!-- Node1&#45;&gt;Node8 -->
<g id="edge14" class="edge"><title>Node1&#45;&gt;Node8</title>
<path fill="none" stroke="midnightblue" d="M366.047,-165.304C334.768,-155.129 290.179,-140.625 262.18,-131.516"/>
<polygon fill="midnightblue" stroke="midnightblue" points="365.105,-168.678 375.697,-168.444 367.27,-162.022 365.105,-168.678"/>
</g>
<!-- Node10 -->
<g id="node20" class="node"><title>Node10</title>
<a xlink:href="_s_l_disk_8h.html" target="_top" xlink:title="SLDisk.h">
<polygon fill="white" stroke="black" points="335,-112.5 335,-131.5 393,-131.5 393,-112.5 335,-112.5"/>
<text text-anchor="middle" x="364" y="-119.5" font-family="Arial.ttf" font-size="10.00">SLDisk.h</text>
</a>
</g>
<!-- Node1&#45;&gt;Node10 -->
<g id="edge20" class="edge"><title>Node1&#45;&gt;Node10</title>
<path fill="none" stroke="midnightblue" d="M389.935,-159.855C383.355,-150.505 375.489,-139.327 370.158,-131.751"/>
<polygon fill="midnightblue" stroke="midnightblue" points="387.108,-161.919 395.725,-168.083 392.832,-157.891 387.108,-161.919"/>
</g>
<!-- Node12 -->
<g id="node25" class="node"><title>Node12</title>
<a xlink:href="_s_l_lens_8h.html" target="_top" xlink:title="SLLens.h">
<polygon fill="white" stroke="black" points="411,-112.5 411,-131.5 471,-131.5 471,-112.5 411,-112.5"/>
<text text-anchor="middle" x="441" y="-119.5" font-family="Arial.ttf" font-size="10.00">SLLens.h</text>
</a>
</g>
<!-- Node1&#45;&gt;Node12 -->
<g id="edge26" class="edge"><title>Node1&#45;&gt;Node12</title>
<path fill="none" stroke="midnightblue" d="M414.382,-159.855C421.135,-150.505 429.209,-139.327 434.68,-131.751"/>
<polygon fill="midnightblue" stroke="midnightblue" points="411.458,-157.927 408.44,-168.083 417.132,-162.025 411.458,-157.927"/>
</g>
<!-- Node14 -->
<g id="node30" class="node"><title>Node14</title>
<a xlink:href="_s_l_spheric_8h.html" target="_top" xlink:title="SLSpheric.h">
<polygon fill="white" stroke="black" points="621,-112.5 621,-131.5 695,-131.5 695,-112.5 621,-112.5"/>
<text text-anchor="middle" x="658" y="-119.5" font-family="Arial.ttf" font-size="10.00">SLSpheric.h</text>
</a>
</g>
<!-- Node1&#45;&gt;Node14 -->
<g id="edge32" class="edge"><title>Node1&#45;&gt;Node14</title>
<path fill="none" stroke="midnightblue" d="M451.018,-166.66C500.595,-156.203 576.122,-140.271 620.924,-130.821"/>
<polygon fill="midnightblue" stroke="midnightblue" points="450.222,-163.251 441.16,-168.74 451.667,-170.1 450.222,-163.251"/>
</g>
<!-- Node18 -->
<g id="node43" class="node"><title>Node18</title>
<a xlink:href="_s_l_volume_8h.html" target="_top" xlink:title="SLVolume.h">
<polygon fill="white" stroke="black" points="939,-112.5 939,-131.5 1013,-131.5 1013,-112.5 939,-112.5"/>
<text text-anchor="middle" x="976" y="-119.5" font-family="Arial.ttf" font-size="10.00">SLVolume.h</text>
</a>
</g>
<!-- Node1&#45;&gt;Node18 -->
<g id="edge50" class="edge"><title>Node1&#45;&gt;Node18</title>
<path fill="none" stroke="midnightblue" d="M451.065,-172.384C563.693,-161.788 838.748,-135.912 938.818,-126.498"/>
<polygon fill="midnightblue" stroke="midnightblue" points="450.63,-168.909 441.002,-173.331 451.286,-175.879 450.63,-168.909"/>
</g>
<!-- Node4 -->
<g id="node7" class="node"><title>Node4</title>
<a xlink:href="_s_l_light_direct_8cpp.html" target="_top" xlink:title="SLLightDirect.cpp">
<polygon fill="white" stroke="black" points="781.5,-0.5 781.5,-19.5 882.5,-19.5 882.5,-0.5 781.5,-0.5"/>
<text text-anchor="middle" x="832" y="-7.5" font-family="Arial.ttf" font-size="10.00">SLLightDirect.cpp</text>
</a>
</g>
<!-- Node3&#45;&gt;Node4 -->
<g id="edge6" class="edge"><title>Node3&#45;&gt;Node4</title>
<path fill="none" stroke="midnightblue" d="M875.533,-49.5372C864.656,-39.9087 851.056,-27.8694 841.979,-19.8339"/>
<polygon fill="midnightblue" stroke="midnightblue" points="873.392,-52.3162 883.199,-56.324 878.032,-47.0749 873.392,-52.3162"/>
</g>
<!-- Node6 -->
<g id="node11" class="node"><title>Node6</title>
<a xlink:href="_s_l_cone_8cpp.html" target="_top" xlink:title="SLCone.cpp">
<polygon fill="white" stroke="black" points="24,-56.5 24,-75.5 98,-75.5 98,-56.5 24,-56.5"/>
<text text-anchor="middle" x="61" y="-63.5" font-family="Arial.ttf" font-size="10.00">SLCone.cpp</text>
</a>
</g>
<!-- Node5&#45;&gt;Node6 -->
<g id="edge10" class="edge"><title>Node5&#45;&gt;Node6</title>
<path fill="none" stroke="midnightblue" d="M117.099,-106.342C103.089,-96.5169 85.117,-83.9132 73.3407,-75.6545"/>
<polygon fill="midnightblue" stroke="midnightblue" points="115.432,-109.448 125.629,-112.324 119.451,-103.717 115.432,-109.448"/>
</g>
<!-- Node7 -->
<g id="node13" class="node"><title>Node7</title>
<a xlink:href="_s_l_scene__on_load_8cpp.html" target="_top" xlink:title="SLScene_onLoad.cpp">
<polygon fill="white" stroke="black" points="311.5,-0.5 311.5,-19.5 430.5,-19.5 430.5,-0.5 311.5,-0.5"/>
<text text-anchor="middle" x="371" y="-7.5" font-family="Arial.ttf" font-size="10.00">SLScene_onLoad.cpp</text>
</a>
</g>
<!-- Node5&#45;&gt;Node7 -->
<g id="edge12" class="edge"><title>Node5&#45;&gt;Node7</title>
<path fill="none" stroke="midnightblue" d="M143.776,-102.678C149.398,-87.8532 159.406,-67.5985 175,-56 214.36,-26.7257 269.554,-16.03 311.346,-12.3377"/>
<polygon fill="midnightblue" stroke="midnightblue" points="140.405,-101.716 140.439,-112.311 147.019,-104.007 140.405,-101.716"/>
</g>
<!-- Node8&#45;&gt;Node7 -->
<g id="edge18" class="edge"><title>Node8&#45;&gt;Node7</title>
<path fill="none" stroke="midnightblue" d="M211.588,-107.139C191.668,-94.05 168.938,-73.8248 183,-56 198.85,-35.909 262.53,-23.7857 311.431,-17.2669"/>
<polygon fill="midnightblue" stroke="midnightblue" points="209.78,-110.136 220.119,-112.45 213.479,-104.193 209.78,-110.136"/>
</g>
<!-- Node9 -->
<g id="node17" class="node"><title>Node9</title>
<a xlink:href="_s_l_cylinder_8cpp.html" target="_top" xlink:title="SLCylinder.cpp">
<polygon fill="white" stroke="black" points="192.5,-56.5 192.5,-75.5 279.5,-75.5 279.5,-56.5 192.5,-56.5"/>
<text text-anchor="middle" x="236" y="-63.5" font-family="Arial.ttf" font-size="10.00">SLCylinder.cpp</text>
</a>
</g>
<!-- Node8&#45;&gt;Node9 -->
<g id="edge16" class="edge"><title>Node8&#45;&gt;Node9</title>
<path fill="none" stroke="midnightblue" d="M236,-101.805C236,-92.9102 236,-82.7798 236,-75.7511"/>
<polygon fill="midnightblue" stroke="midnightblue" points="232.5,-102.083 236,-112.083 239.5,-102.083 232.5,-102.083"/>
</g>
<!-- Node10&#45;&gt;Node7 -->
<g id="edge24" class="edge"><title>Node10&#45;&gt;Node7</title>
<path fill="none" stroke="midnightblue" d="M345.348,-104.968C332.84,-92.1643 319.856,-73.5253 327,-56 333.269,-40.6205 347.606,-27.6399 358.219,-19.6314"/>
<polygon fill="midnightblue" stroke="midnightblue" points="343.228,-107.781 352.891,-112.124 348.045,-102.702 343.228,-107.781"/>
</g>
<!-- Node11 -->
<g id="node22" class="node"><title>Node11</title>
<a xlink:href="_s_l_disk_8cpp.html" target="_top" xlink:title="SLDisk.cpp">
<polygon fill="white" stroke="black" points="336.5,-56.5 336.5,-75.5 405.5,-75.5 405.5,-56.5 336.5,-56.5"/>
<text text-anchor="middle" x="371" y="-63.5" font-family="Arial.ttf" font-size="10.00">SLDisk.cpp</text>
</a>
</g>
<!-- Node10&#45;&gt;Node11 -->
<g id="edge22" class="edge"><title>Node10&#45;&gt;Node11</title>
<path fill="none" stroke="midnightblue" d="M366.45,-102.101C367.612,-93.1357 368.944,-82.8579 369.866,-75.7511"/>
<polygon fill="midnightblue" stroke="midnightblue" points="362.971,-101.716 365.156,-112.083 369.912,-102.616 362.971,-101.716"/>
</g>
<!-- Node12&#45;&gt;Node7 -->
<g id="edge30" class="edge"><title>Node12&#45;&gt;Node7</title>
<path fill="none" stroke="midnightblue" d="M435.35,-102.465C430.756,-88.9492 423.485,-70.5345 414,-56 404.788,-41.883 390.835,-28.2609 381.341,-19.7727"/>
<polygon fill="midnightblue" stroke="midnightblue" points="432.053,-103.642 438.452,-112.085 438.715,-101.494 432.053,-103.642"/>
</g>
<!-- Node13 -->
<g id="node27" class="node"><title>Node13</title>
<a xlink:href="_s_l_lens_8cpp.html" target="_top" xlink:title="SLLens.cpp">
<polygon fill="white" stroke="black" points="462.5,-56.5 462.5,-75.5 533.5,-75.5 533.5,-56.5 462.5,-56.5"/>
<text text-anchor="middle" x="498" y="-63.5" font-family="Arial.ttf" font-size="10.00">SLLens.cpp</text>
</a>
</g>
<!-- Node12&#45;&gt;Node13 -->
<g id="edge28" class="edge"><title>Node12&#45;&gt;Node13</title>
<path fill="none" stroke="midnightblue" d="M457.621,-105.253C467.734,-95.6731 480.277,-83.7906 488.675,-75.8339"/>
<polygon fill="midnightblue" stroke="midnightblue" points="455.01,-102.906 450.158,-112.324 459.825,-107.987 455.01,-102.906"/>
</g>
<!-- Node14&#45;&gt;Node4 -->
<g id="edge34" class="edge"><title>Node14&#45;&gt;Node4</title>
<path fill="none" stroke="midnightblue" d="M705.46,-118.721C739.357,-114.62 783.778,-103.824 812,-76 827.47,-60.7479 831.034,-33.8416 831.815,-19.9133"/>
<polygon fill="midnightblue" stroke="midnightblue" points="704.886,-115.262 695.308,-119.79 705.62,-122.223 704.886,-115.262"/>
</g>
<!-- Node14&#45;&gt;Node7 -->
<g id="edge38" class="edge"><title>Node14&#45;&gt;Node7</title>
<path fill="none" stroke="midnightblue" d="M634.235,-107.258C603.134,-89.3409 551.456,-59.8212 542,-56 500.588,-39.2652 451.011,-27.0167 415.928,-19.5607"/>
<polygon fill="midnightblue" stroke="midnightblue" points="632.746,-110.44 643.157,-112.405 636.244,-104.377 632.746,-110.44"/>
</g>
<!-- Node15 -->
<g id="node33" class="node"><title>Node15</title>
<a xlink:href="_s_l_light_spot_8cpp.html" target="_top" xlink:title="SLLightSpot.cpp">
<polygon fill="white" stroke="black" points="610.5,-0.5 610.5,-19.5 705.5,-19.5 705.5,-0.5 610.5,-0.5"/>
<text text-anchor="middle" x="658" y="-7.5" font-family="Arial.ttf" font-size="10.00">SLLightSpot.cpp</text>
</a>
</g>
<!-- Node14&#45;&gt;Node15 -->
<g id="edge36" class="edge"><title>Node14&#45;&gt;Node15</title>
<path fill="none" stroke="midnightblue" d="M665.063,-102.622C669.213,-89.6564 673.243,-71.8456 671,-56 669.176,-43.1173 664.554,-28.7598 661.344,-19.8034"/>
<polygon fill="midnightblue" stroke="midnightblue" points="661.703,-101.628 661.685,-112.223 668.306,-103.952 661.703,-101.628"/>
</g>
<!-- Node16 -->
<g id="node36" class="node"><title>Node16</title>
<a xlink:href="_s_l_spheric_8cpp.html" target="_top" xlink:title="SLSpheric.cpp">
<polygon fill="white" stroke="black" points="718.5,-56.5 718.5,-75.5 803.5,-75.5 803.5,-56.5 718.5,-56.5"/>
<text text-anchor="middle" x="761" y="-63.5" font-family="Arial.ttf" font-size="10.00">SLSpheric.cpp</text>
</a>
</g>
<!-- Node14&#45;&gt;Node16 -->
<g id="edge40" class="edge"><title>Node14&#45;&gt;Node16</title>
<path fill="none" stroke="midnightblue" d="M683.579,-107.59C702.623,-97.6052 728.064,-84.2672 744.492,-75.6545"/>
<polygon fill="midnightblue" stroke="midnightblue" points="681.78,-104.581 674.549,-112.324 685.031,-110.78 681.78,-104.581"/>
</g>
<!-- Node17 -->
<g id="node38" class="node"><title>Node17</title>
<a xlink:href="_s_l_sphere_8h.html" target="_top" xlink:title="SLSphere.h">
<polygon fill="white" stroke="black" points="590,-56.5 590,-75.5 662,-75.5 662,-56.5 590,-56.5"/>
<text text-anchor="middle" x="626" y="-63.5" font-family="Arial.ttf" font-size="10.00">SLSphere.h</text>
</a>
</g>
<!-- Node14&#45;&gt;Node17 -->
<g id="edge42" class="edge"><title>Node14&#45;&gt;Node17</title>
<path fill="none" stroke="midnightblue" d="M647.496,-103.275C642.027,-94.0454 635.582,-83.1703 631.186,-75.7511"/>
<polygon fill="midnightblue" stroke="midnightblue" points="644.607,-105.264 652.716,-112.083 650.629,-101.696 644.607,-105.264"/>
</g>
<!-- Node17&#45;&gt;Node4 -->
<g id="edge44" class="edge"><title>Node17&#45;&gt;Node4</title>
<path fill="none" stroke="midnightblue" d="M668.615,-53.8291C707.51,-43.6333 764.164,-28.7823 799.511,-19.5164"/>
<polygon fill="midnightblue" stroke="midnightblue" points="667.427,-50.5222 658.641,-56.4435 669.202,-57.2934 667.427,-50.5222"/>
</g>
<!-- Node17&#45;&gt;Node7 -->
<g id="edge48" class="edge"><title>Node17&#45;&gt;Node7</title>
<path fill="none" stroke="midnightblue" d="M579.897,-55.237C531.809,-45.0537 457.173,-29.2485 411.347,-19.544"/>
<polygon fill="midnightblue" stroke="midnightblue" points="579.227,-58.6727 589.736,-57.3205 580.678,-51.8246 579.227,-58.6727"/>
</g>
<!-- Node17&#45;&gt;Node15 -->
<g id="edge46" class="edge"><title>Node17&#45;&gt;Node15</title>
<path fill="none" stroke="midnightblue" d="M636.504,-47.2747C641.973,-38.0454 648.418,-27.1703 652.814,-19.7511"/>
<polygon fill="midnightblue" stroke="midnightblue" points="633.371,-45.6957 631.284,-56.083 639.393,-49.2644 633.371,-45.6957"/>
</g>
<!-- Node19 -->
<g id="node45" class="node"><title>Node19</title>
<a xlink:href="_s_l_pathtracer_8cpp.html" target="_top" xlink:title="SLPathtracer.cpp">
<polygon fill="white" stroke="black" points="943.5,-56.5 943.5,-75.5 1042.5,-75.5 1042.5,-56.5 943.5,-56.5"/>
<text text-anchor="middle" x="993" y="-63.5" font-family="Arial.ttf" font-size="10.00">SLPathtracer.cpp</text>
</a>
</g>
<!-- Node18&#45;&gt;Node19 -->
<g id="edge52" class="edge"><title>Node18&#45;&gt;Node19</title>
<path fill="none" stroke="midnightblue" d="M981.857,-102.396C984.701,-93.362 987.983,-82.936 990.245,-75.7511"/>
<polygon fill="midnightblue" stroke="midnightblue" points="978.472,-101.493 978.807,-112.083 985.149,-103.596 978.472,-101.493"/>
</g>
</g>
</svg>
