<?xml version="1.0" encoding="UTF-8" standalone="no"?>
<!DOCTYPE svg PUBLIC "-//W3C//DTD SVG 1.1//EN"
 "http://www.w3.org/Graphics/SVG/1.1/DTD/svg11.dtd">
<!-- Generated by graphviz version 2.28.0 (20110507.0327)
 -->
<!-- Title: SLAverage.h Pages: 1 -->
<svg width="3569pt" height="308pt"
 viewBox="0.00 0.00 3568.64 308.00" xmlns="http://www.w3.org/2000/svg" xmlns:xlink="http://www.w3.org/1999/xlink">
<g id="graph1" class="graph" transform="scale(1 1) rotate(0) translate(4 304)">
<title>SLAverage.h</title>
<polygon fill="white" stroke="white" points="-4,5 -4,-304 3565.64,-304 3565.64,5 -4,5"/>
<!-- Node1 -->
<g id="node1" class="node"><title>Node1</title>
<polygon fill="#bfbfbf" stroke="black" points="1714.14,-280.5 1714.14,-299.5 1791.14,-299.5 1791.14,-280.5 1714.14,-280.5"/>
<text text-anchor="middle" x="1752.64" y="-287.5" font-family="Arial.ttf" font-size="10.00">SLAverage.h</text>
</g>
<!-- Node2 -->
<g id="node3" class="node"><title>Node2</title>
<a xlink:href="_s_l_scene_8h.html" target="_top" xlink:title="SLScene.h">
<polygon fill="white" stroke="black" points="1718.64,-224.5 1718.64,-243.5 1786.64,-243.5 1786.64,-224.5 1718.64,-224.5"/>
<text text-anchor="middle" x="1752.64" y="-231.5" font-family="Arial.ttf" font-size="10.00">SLScene.h</text>
</a>
</g>
<!-- Node1&#45;&gt;Node2 -->
<g id="edge2" class="edge"><title>Node1&#45;&gt;Node2</title>
<path fill="none" stroke="midnightblue" d="M1752.64,-269.805C1752.64,-260.91 1752.64,-250.78 1752.64,-243.751"/>
<polygon fill="midnightblue" stroke="midnightblue" points="1749.14,-270.083 1752.64,-280.083 1756.14,-270.083 1749.14,-270.083"/>
</g>
<!-- Node3 -->
<g id="node5" class="node"><title>Node3</title>
<a xlink:href="_s_l_c_v_capture_8cpp.html" target="_top" xlink:title="SLCVCapture.cpp">
<polygon fill="white" stroke="black" points="21.1358,-112.5 21.1358,-131.5 122.136,-131.5 122.136,-112.5 21.1358,-112.5"/>
<text text-anchor="middle" x="71.6358" y="-119.5" font-family="Arial.ttf" font-size="10.00">SLCVCapture.cpp</text>
</a>
</g>
<!-- Node2&#45;&gt;Node3 -->
<g id="edge4" class="edge"><title>Node2&#45;&gt;Node3</title>
<path fill="none" stroke="midnightblue" d="M1708.12,-233.351C1544.71,-234.231 962.657,-233.751 485.636,-188 349.299,-174.924 189.606,-145.931 114.63,-131.5"/>
<polygon fill="midnightblue" stroke="midnightblue" points="1708.29,-236.85 1718.27,-233.292 1708.25,-229.851 1708.29,-236.85"/>
</g>
<!-- Node4 -->
<g id="node7" class="node"><title>Node4</title>
<a xlink:href="_s_l_c_v_feature_manager_8cpp.html" target="_top" xlink:title="SLCVFeatureManager.cpp">
<polygon fill="white" stroke="black" points="140.136,-112.5 140.136,-131.5 281.136,-131.5 281.136,-112.5 140.136,-112.5"/>
<text text-anchor="middle" x="210.636" y="-119.5" font-family="Arial.ttf" font-size="10.00">SLCVFeatureManager.cpp</text>
</a>
</g>
<!-- Node2&#45;&gt;Node4 -->
<g id="edge6" class="edge"><title>Node2&#45;&gt;Node4</title>
<path fill="none" stroke="midnightblue" d="M1708.41,-232.91C1558.73,-232.241 1057.5,-227.029 645.636,-188 502.911,-174.475 335.559,-145.827 256.472,-131.513"/>
<polygon fill="midnightblue" stroke="midnightblue" points="1708.56,-236.41 1718.57,-232.951 1708.59,-229.41 1708.56,-236.41"/>
</g>
<!-- Node5 -->
<g id="node9" class="node"><title>Node5</title>
<a xlink:href="_s_l_g_l_im_gui_8cpp.html" target="_top" xlink:title="SLGLImGui.cpp">
<polygon fill="white" stroke="black" points="1480.14,-168.5 1480.14,-187.5 1569.14,-187.5 1569.14,-168.5 1480.14,-168.5"/>
<text text-anchor="middle" x="1524.64" y="-175.5" font-family="Arial.ttf" font-size="10.00">SLGLImGui.cpp</text>
</a>
</g>
<!-- Node2&#45;&gt;Node5 -->
<g id="edge8" class="edge"><title>Node2&#45;&gt;Node5</title>
<path fill="none" stroke="midnightblue" d="M1708.6,-222.572C1665.62,-212.391 1601,-197.085 1560.89,-187.587"/>
<polygon fill="midnightblue" stroke="midnightblue" points="1707.96,-226.017 1718.5,-224.916 1709.58,-219.205 1707.96,-226.017"/>
</g>
<!-- Node6 -->
<g id="node11" class="node"><title>Node6</title>
<a xlink:href="_s_l_g_l_oculus_8cpp.html" target="_top" xlink:title="SLGLOculus.cpp">
<polygon fill="white" stroke="black" points="1587.64,-168.5 1587.64,-187.5 1681.64,-187.5 1681.64,-168.5 1587.64,-168.5"/>
<text text-anchor="middle" x="1634.64" y="-175.5" font-family="Arial.ttf" font-size="10.00">SLGLOculus.cpp</text>
</a>
</g>
<!-- Node2&#45;&gt;Node6 -->
<g id="edge10" class="edge"><title>Node2&#45;&gt;Node6</title>
<path fill="none" stroke="midnightblue" d="M1724.74,-220.232C1702.66,-210.131 1672.46,-196.309 1653.25,-187.516"/>
<polygon fill="midnightblue" stroke="midnightblue" points="1723.39,-223.465 1733.94,-224.444 1726.3,-217.1 1723.39,-223.465"/>
</g>
<!-- Node7 -->
<g id="node13" class="node"><title>Node7</title>
<a xlink:href="_s_l_g_l_oculus_f_b_8cpp.html" target="_top" xlink:title="SLGLOculusFB.cpp">
<polygon fill="white" stroke="black" points="1699.64,-168.5 1699.64,-187.5 1805.64,-187.5 1805.64,-168.5 1699.64,-168.5"/>
<text text-anchor="middle" x="1752.64" y="-175.5" font-family="Arial.ttf" font-size="10.00">SLGLOculusFB.cpp</text>
</a>
</g>
<!-- Node2&#45;&gt;Node7 -->
<g id="edge12" class="edge"><title>Node2&#45;&gt;Node7</title>
<path fill="none" stroke="midnightblue" d="M1752.64,-213.805C1752.64,-204.91 1752.64,-194.78 1752.64,-187.751"/>
<polygon fill="midnightblue" stroke="midnightblue" points="1749.14,-214.083 1752.64,-224.083 1756.14,-214.083 1749.14,-214.083"/>
</g>
<!-- Node8 -->
<g id="node15" class="node"><title>Node8</title>
<a xlink:href="_s_l_g_l_program_8cpp.html" target="_top" xlink:title="SLGLProgram.cpp">
<polygon fill="white" stroke="black" points="1824.14,-168.5 1824.14,-187.5 1927.14,-187.5 1927.14,-168.5 1824.14,-168.5"/>
<text text-anchor="middle" x="1875.64" y="-175.5" font-family="Arial.ttf" font-size="10.00">SLGLProgram.cpp</text>
</a>
</g>
<!-- Node2&#45;&gt;Node8 -->
<g id="edge14" class="edge"><title>Node2&#45;&gt;Node8</title>
<path fill="none" stroke="midnightblue" d="M1781.41,-220.368C1804.44,-210.255 1836.12,-196.349 1856.24,-187.516"/>
<polygon fill="midnightblue" stroke="midnightblue" points="1779.87,-217.219 1772.13,-224.444 1782.69,-223.628 1779.87,-217.219"/>
</g>
<!-- Node9 -->
<g id="node17" class="node"><title>Node9</title>
<a xlink:href="_s_l_g_l_texture_8cpp.html" target="_top" xlink:title="SLGLTexture.cpp">
<polygon fill="white" stroke="black" points="1945.64,-168.5 1945.64,-187.5 2043.64,-187.5 2043.64,-168.5 1945.64,-168.5"/>
<text text-anchor="middle" x="1994.64" y="-175.5" font-family="Arial.ttf" font-size="10.00">SLGLTexture.cpp</text>
</a>
</g>
<!-- Node2&#45;&gt;Node9 -->
<g id="edge16" class="edge"><title>Node2&#45;&gt;Node9</title>
<path fill="none" stroke="midnightblue" d="M1796.69,-223.169C1842.31,-212.99 1912.86,-197.248 1956.26,-187.564"/>
<polygon fill="midnightblue" stroke="midnightblue" points="1795.79,-219.784 1786.8,-225.378 1797.32,-226.616 1795.79,-219.784"/>
</g>
<!-- Node10 -->
<g id="node19" class="node"><title>Node10</title>
<a xlink:href="_s_l_g_l_vertex_array_8cpp.html" target="_top" xlink:title="SLGLVertexArray.cpp">
<polygon fill="white" stroke="black" points="2062.14,-168.5 2062.14,-187.5 2181.14,-187.5 2181.14,-168.5 2062.14,-168.5"/>
<text text-anchor="middle" x="2121.64" y="-175.5" font-family="Arial.ttf" font-size="10.00">SLGLVertexArray.cpp</text>
</a>
</g>
<!-- Node2&#45;&gt;Node10 -->
<g id="edge18" class="edge"><title>Node2&#45;&gt;Node10</title>
<path fill="none" stroke="midnightblue" d="M1796.84,-226.531C1863.39,-216.793 1989.36,-198.357 2063.34,-187.53"/>
<polygon fill="midnightblue" stroke="midnightblue" points="1796.08,-223.105 1786.69,-228.017 1797.09,-230.032 1796.08,-223.105"/>
</g>
<!-- Node11 -->
<g id="node21" class="node"><title>Node11</title>
<a xlink:href="_s_l_g_l_vertex_array_ext_8cpp.html" target="_top" xlink:title="SLGLVertexArrayExt.cpp">
<polygon fill="white" stroke="black" points="2199.64,-168.5 2199.64,-187.5 2333.64,-187.5 2333.64,-168.5 2199.64,-168.5"/>
<text text-anchor="middle" x="2266.64" y="-175.5" font-family="Arial.ttf" font-size="10.00">SLGLVertexArrayExt.cpp</text>
</a>
</g>
<!-- Node2&#45;&gt;Node11 -->
<g id="edge20" class="edge"><title>Node2&#45;&gt;Node11</title>
<path fill="none" stroke="midnightblue" d="M1796.71,-228.664C1875.56,-220.861 2045.98,-203.792 2189.64,-188 2192.85,-187.647 2196.13,-187.281 2199.45,-186.908"/>
<polygon fill="midnightblue" stroke="midnightblue" points="1796.26,-225.191 1786.65,-229.658 1796.95,-232.157 1796.26,-225.191"/>
</g>
<!-- Node12 -->
<g id="node23" class="node"><title>Node12</title>
<a xlink:href="_s_l_g_l_vertex_buffer_8cpp.html" target="_top" xlink:title="SLGLVertexBuffer.cpp">
<polygon fill="white" stroke="black" points="2351.64,-168.5 2351.64,-187.5 2473.64,-187.5 2473.64,-168.5 2351.64,-168.5"/>
<text text-anchor="middle" x="2412.64" y="-175.5" font-family="Arial.ttf" font-size="10.00">SLGLVertexBuffer.cpp</text>
</a>
</g>
<!-- Node2&#45;&gt;Node12 -->
<g id="edge22" class="edge"><title>Node2&#45;&gt;Node12</title>
<path fill="none" stroke="midnightblue" d="M1797.11,-230.396C1895.56,-224.461 2139.27,-208.815 2342.64,-188 2345.56,-187.701 2348.55,-187.378 2351.57,-187.04"/>
<polygon fill="midnightblue" stroke="midnightblue" points="1796.71,-226.914 1786.94,-231.006 1797.13,-233.902 1796.71,-226.914"/>
</g>
<!-- Node13 -->
<g id="node25" class="node"><title>Node13</title>
<a xlink:href="_s_l_curve_bezier_8cpp.html" target="_top" xlink:title="SLCurveBezier.cpp">
<polygon fill="white" stroke="black" points="2492.14,-168.5 2492.14,-187.5 2599.14,-187.5 2599.14,-168.5 2492.14,-168.5"/>
<text text-anchor="middle" x="2545.64" y="-175.5" font-family="Arial.ttf" font-size="10.00">SLCurveBezier.cpp</text>
</a>
</g>
<!-- Node2&#45;&gt;Node13 -->
<g id="edge24" class="edge"><title>Node2&#45;&gt;Node13</title>
<path fill="none" stroke="midnightblue" d="M1797.01,-231.507C1911.05,-227.401 2223.56,-214.448 2482.64,-188 2485.71,-187.686 2488.87,-187.333 2492.06,-186.953"/>
<polygon fill="midnightblue" stroke="midnightblue" points="1796.79,-228.013 1786.92,-231.866 1797.04,-235.008 1796.79,-228.013"/>
</g>
<!-- Node14 -->
<g id="node27" class="node"><title>Node14</title>
<a xlink:href="_s_l_assimp_importer_8cpp.html" target="_top" xlink:title="SLAssimpImporter.cpp">
<polygon fill="white" stroke="black" points="2617.14,-168.5 2617.14,-187.5 2742.14,-187.5 2742.14,-168.5 2617.14,-168.5"/>
<text text-anchor="middle" x="2679.64" y="-175.5" font-family="Arial.ttf" font-size="10.00">SLAssimpImporter.cpp</text>
</a>
</g>
<!-- Node2&#45;&gt;Node14 -->
<g id="edge26" class="edge"><title>Node2&#45;&gt;Node14</title>
<path fill="none" stroke="midnightblue" d="M1797,-231.789C1923.7,-228.087 2298.01,-215.464 2607.64,-188 2610.65,-187.733 2613.73,-187.437 2616.84,-187.119"/>
<polygon fill="midnightblue" stroke="midnightblue" points="1796.8,-228.293 1786.91,-232.08 1797,-235.29 1796.8,-228.293"/>
</g>
<!-- Node15 -->
<g id="node29" class="node"><title>Node15</title>
<a xlink:href="_s_l_interface_8cpp.html" target="_top" xlink:title="SLProject C&#45;functions interface implementation.">
<polygon fill="white" stroke="black" points="299.136,-112.5 299.136,-131.5 390.136,-131.5 390.136,-112.5 299.136,-112.5"/>
<text text-anchor="middle" x="344.636" y="-119.5" font-family="Arial.ttf" font-size="10.00">SLInterface.cpp</text>
</a>
</g>
<!-- Node2&#45;&gt;Node15 -->
<g id="edge28" class="edge"><title>Node2&#45;&gt;Node15</title>
<path fill="none" stroke="midnightblue" d="M1707.89,-232.184C1573.21,-229.439 1159.83,-218.91 818.636,-188 660.635,-173.686 474.546,-144.549 390.234,-130.675"/>
<polygon fill="midnightblue" stroke="midnightblue" points="1708.15,-235.689 1718.21,-232.39 1708.29,-228.691 1708.15,-235.689"/>
</g>
<!-- Node16 -->
<g id="node31" class="node"><title>Node16</title>
<a xlink:href="_s_l_tex_font_8cpp.html" target="_top" xlink:title="SLTexFont.cpp">
<polygon fill="white" stroke="black" points="2760.64,-168.5 2760.64,-187.5 2846.64,-187.5 2846.64,-168.5 2760.64,-168.5"/>
<text text-anchor="middle" x="2803.64" y="-175.5" font-family="Arial.ttf" font-size="10.00">SLTexFont.cpp</text>
</a>
</g>
<!-- Node2&#45;&gt;Node16 -->
<g id="edge30" class="edge"><title>Node2&#45;&gt;Node16</title>
<path fill="none" stroke="midnightblue" d="M1797.13,-232.943C1937.57,-232.347 2383.81,-227.265 2750.64,-188 2753.88,-187.652 2757.23,-187.232 2760.6,-186.764"/>
<polygon fill="midnightblue" stroke="midnightblue" points="1796.77,-229.444 1786.79,-232.981 1796.8,-236.444 1796.77,-229.444"/>
</g>
<!-- Node17 -->
<g id="node33" class="node"><title>Node17</title>
<a xlink:href="_s_l_a_a_b_box_8cpp.html" target="_top" xlink:title="SLAABBox.cpp">
<polygon fill="white" stroke="black" points="2865.14,-168.5 2865.14,-187.5 2952.14,-187.5 2952.14,-168.5 2865.14,-168.5"/>
<text text-anchor="middle" x="2908.64" y="-175.5" font-family="Arial.ttf" font-size="10.00">SLAABBox.cpp</text>
</a>
</g>
<!-- Node2&#45;&gt;Node17 -->
<g id="edge32" class="edge"><title>Node2&#45;&gt;Node17</title>
<path fill="none" stroke="midnightblue" d="M1797.24,-233.215C1947.11,-233.503 2446.13,-230.946 2855.64,-188 2858.7,-187.679 2861.85,-187.291 2865.02,-186.859"/>
<polygon fill="midnightblue" stroke="midnightblue" points="1797.07,-229.714 1787.06,-233.19 1797.05,-236.714 1797.07,-229.714"/>
</g>
<!-- Node18 -->
<g id="node35" class="node"><title>Node18</title>
<a xlink:href="_s_l_animation_8cpp.html" target="_top" xlink:title="SLAnimation.cpp">
<polygon fill="white" stroke="black" points="2970.64,-168.5 2970.64,-187.5 3068.64,-187.5 3068.64,-168.5 2970.64,-168.5"/>
<text text-anchor="middle" x="3019.64" y="-175.5" font-family="Arial.ttf" font-size="10.00">SLAnimation.cpp</text>
</a>
</g>
<!-- Node2&#45;&gt;Node18 -->
<g id="edge34" class="edge"><title>Node2&#45;&gt;Node18</title>
<path fill="none" stroke="midnightblue" d="M1797.14,-233.172C1955.7,-233.394 2507.73,-230.838 2960.64,-188 2963.83,-187.698 2967.12,-187.336 2970.43,-186.935"/>
<polygon fill="midnightblue" stroke="midnightblue" points="1796.85,-229.671 1786.84,-233.152 1796.83,-236.671 1796.85,-229.671"/>
</g>
<!-- Node19 -->
<g id="node37" class="node"><title>Node19</title>
<a xlink:href="_s_l_anim_manager_8cpp.html" target="_top" xlink:title="SLAnimManager.cpp">
<polygon fill="white" stroke="black" points="3086.64,-168.5 3086.64,-187.5 3202.64,-187.5 3202.64,-168.5 3086.64,-168.5"/>
<text text-anchor="middle" x="3144.64" y="-175.5" font-family="Arial.ttf" font-size="10.00">SLAnimManager.cpp</text>
</a>
</g>
<!-- Node2&#45;&gt;Node19 -->
<g id="edge36" class="edge"><title>Node2&#45;&gt;Node19</title>
<path fill="none" stroke="midnightblue" d="M1796.91,-233.094C1964.53,-233.111 2576.06,-230.1 3077.64,-188 3080.56,-187.755 3083.55,-187.471 3086.57,-187.16"/>
<polygon fill="midnightblue" stroke="midnightblue" points="1796.75,-229.594 1786.75,-233.089 1796.75,-236.594 1796.75,-229.594"/>
</g>
<!-- Node20 -->
<g id="node39" class="node"><title>Node20</title>
<a xlink:href="_s_l_background_8cpp.html" target="_top" xlink:title="SLBackground.cpp">
<polygon fill="white" stroke="black" points="3220.64,-168.5 3220.64,-187.5 3326.64,-187.5 3326.64,-168.5 3220.64,-168.5"/>
<text text-anchor="middle" x="3273.64" y="-175.5" font-family="Arial.ttf" font-size="10.00">SLBackground.cpp</text>
</a>
</g>
<!-- Node2&#45;&gt;Node20 -->
<g id="edge38" class="edge"><title>Node2&#45;&gt;Node20</title>
<path fill="none" stroke="midnightblue" d="M1796.66,-233.459C1974.19,-234.925 2654.72,-236.852 3211.64,-188 3214.56,-187.743 3217.56,-187.441 3220.58,-187.105"/>
<polygon fill="midnightblue" stroke="midnightblue" points="1796.68,-229.959 1786.65,-233.372 1796.62,-236.959 1796.68,-229.959"/>
</g>
<!-- Node21 -->
<g id="node41" class="node"><title>Node21</title>
<a xlink:href="_s_l_demo_gui_8cpp.html" target="_top" xlink:title="SLDemoGui.cpp">
<polygon fill="white" stroke="black" points="623.636,-0.5 623.636,-19.5 717.636,-19.5 717.636,-0.5 623.636,-0.5"/>
<text text-anchor="middle" x="670.636" y="-7.5" font-family="Arial.ttf" font-size="10.00">SLDemoGui.cpp</text>
</a>
</g>
<!-- Node2&#45;&gt;Node21 -->
<g id="edge40" class="edge"><title>Node2&#45;&gt;Node21</title>
<path fill="none" stroke="midnightblue" d="M1708.16,-232.879C1447.33,-232.034 125.093,-225.894 48.6358,-188 20.0278,-173.821 14.2372,-162.118 3.63575,-132 0.684355,-123.615 -2.16005,-118.74 3.63575,-112 84.2005,-18.3173 485.077,-10.4517 623.52,-10.5811"/>
<polygon fill="midnightblue" stroke="midnightblue" points="1708.38,-236.379 1718.39,-232.911 1708.4,-229.379 1708.38,-236.379"/>
</g>
<!-- Node22 -->
<g id="node43" class="node"><title>Node22</title>
<a xlink:href="_s_l_input_manager_8cpp.html" target="_top" xlink:title="SLInputManager.cpp">
<polygon fill="white" stroke="black" points="408.136,-112.5 408.136,-131.5 523.136,-131.5 523.136,-112.5 408.136,-112.5"/>
<text text-anchor="middle" x="465.636" y="-119.5" font-family="Arial.ttf" font-size="10.00">SLInputManager.cpp</text>
</a>
</g>
<!-- Node2&#45;&gt;Node22 -->
<g id="edge42" class="edge"><title>Node2&#45;&gt;Node22</title>
<path fill="none" stroke="midnightblue" d="M1708.22,-231.137C1593.36,-226.137 1277.19,-211.208 1014.64,-188 799.37,-168.972 746.041,-159.045 531.636,-132 528.882,-131.653 526.065,-131.291 523.22,-130.922"/>
<polygon fill="midnightblue" stroke="midnightblue" points="1708.24,-234.641 1718.38,-231.576 1708.54,-227.648 1708.24,-234.641"/>
</g>
<!-- Node23 -->
<g id="node45" class="node"><title>Node23</title>
<a xlink:href="_s_l_light_direct_8cpp.html" target="_top" xlink:title="SLLightDirect.cpp">
<polygon fill="white" stroke="black" points="541.136,-112.5 541.136,-131.5 642.136,-131.5 642.136,-112.5 541.136,-112.5"/>
<text text-anchor="middle" x="591.636" y="-119.5" font-family="Arial.ttf" font-size="10.00">SLLightDirect.cpp</text>
</a>
</g>
<!-- Node2&#45;&gt;Node23 -->
<g id="edge44" class="edge"><title>Node2&#45;&gt;Node23</title>
<path fill="none" stroke="midnightblue" d="M1708.37,-229.792C1559.63,-218.828 1064.26,-180.805 656.636,-132 651.998,-131.445 647.179,-130.836 642.354,-130.206"/>
<polygon fill="midnightblue" stroke="midnightblue" points="1708.24,-233.292 1718.47,-230.535 1708.76,-226.311 1708.24,-233.292"/>
</g>
<!-- Node24 -->
<g id="node47" class="node"><title>Node24</title>
<a xlink:href="_s_l_light_rect_8cpp.html" target="_top" xlink:title="SLLightRect.cpp">
<polygon fill="white" stroke="black" points="2047.14,-112.5 2047.14,-131.5 2140.14,-131.5 2140.14,-112.5 2047.14,-112.5"/>
<text text-anchor="middle" x="2093.64" y="-119.5" font-family="Arial.ttf" font-size="10.00">SLLightRect.cpp</text>
</a>
</g>
<!-- Node2&#45;&gt;Node24 -->
<g id="edge46" class="edge"><title>Node2&#45;&gt;Node24</title>
<path fill="none" stroke="midnightblue" d="M1708.3,-232.42C1596.05,-230.195 1312.85,-219.469 1361.64,-168 1413,-113.81 1958.35,-139.457 2032.64,-132 2037.32,-131.53 2042.2,-130.955 2047.06,-130.326"/>
<polygon fill="midnightblue" stroke="midnightblue" points="1708.55,-235.926 1718.61,-232.61 1708.68,-228.927 1708.55,-235.926"/>
</g>
<!-- Node25 -->
<g id="node49" class="node"><title>Node25</title>
<a xlink:href="_s_l_light_spot_8cpp.html" target="_top" xlink:title="SLLightSpot.cpp">
<polygon fill="white" stroke="black" points="2158.14,-112.5 2158.14,-131.5 2253.14,-131.5 2253.14,-112.5 2158.14,-112.5"/>
<text text-anchor="middle" x="2205.64" y="-119.5" font-family="Arial.ttf" font-size="10.00">SLLightSpot.cpp</text>
</a>
</g>
<!-- Node2&#45;&gt;Node25 -->
<g id="edge48" class="edge"><title>Node2&#45;&gt;Node25</title>
<path fill="none" stroke="midnightblue" d="M1708.17,-230.566C1617.85,-225.167 1419.74,-210.829 1399.64,-188 1393.76,-181.329 1393.5,-174.435 1399.64,-168 1428.38,-137.844 2107.19,-136.255 2148.64,-132 2151.73,-131.683 2154.9,-131.31 2158.1,-130.901"/>
<polygon fill="midnightblue" stroke="midnightblue" points="1708.18,-234.073 1718.37,-231.165 1708.59,-227.085 1708.18,-234.073"/>
</g>
<!-- Node26 -->
<g id="node51" class="node"><title>Node26</title>
<a xlink:href="_s_l_scene_8cpp.html" target="_top" xlink:title="SLScene.cpp">
<polygon fill="white" stroke="black" points="1871.14,-0.5 1871.14,-19.5 1950.14,-19.5 1950.14,-0.5 1871.14,-0.5"/>
<text text-anchor="middle" x="1910.64" y="-7.5" font-family="Arial.ttf" font-size="10.00">SLScene.cpp</text>
</a>
</g>
<!-- Node2&#45;&gt;Node26 -->
<g id="edge50" class="edge"><title>Node2&#45;&gt;Node26</title>
<path fill="none" stroke="midnightblue" d="M1708.56,-232.636C1637.05,-231.006 1500.69,-223.231 1470.64,-188 1464.87,-181.237 1464.48,-174.41 1470.64,-168 1539.97,-95.8324 2301.3,-204.168 2370.64,-132 2431.57,-68.5827 2072.66,-26.9304 1950.37,-14.727"/>
<polygon fill="midnightblue" stroke="midnightblue" points="1708.55,-236.136 1718.62,-232.834 1708.69,-229.138 1708.55,-236.136"/>
</g>
<!-- Node27 -->
<g id="node53" class="node"><title>Node27</title>
<a xlink:href="_s_l_scene__on_load_8cpp.html" target="_top" xlink:title="SLScene_onLoad.cpp">
<polygon fill="white" stroke="black" points="1039.14,-0.5 1039.14,-19.5 1158.14,-19.5 1158.14,-0.5 1039.14,-0.5"/>
<text text-anchor="middle" x="1098.64" y="-7.5" font-family="Arial.ttf" font-size="10.00">SLScene_onLoad.cpp</text>
</a>
</g>
<!-- Node2&#45;&gt;Node27 -->
<g id="edge52" class="edge"><title>Node2&#45;&gt;Node27</title>
<path fill="none" stroke="midnightblue" d="M1708.32,-232.434C1499.21,-229.635 609.891,-216.261 333.636,-188 189.131,-173.217 105.137,-243.166 11.6358,-132 5.91412,-125.197 5.46122,-118.394 11.6358,-112 91.1043,-29.7026 937.062,-124.585 1040.64,-76 1066.38,-63.9249 1085.59,-34.5302 1093.98,-19.7662"/>
<polygon fill="midnightblue" stroke="midnightblue" points="1708.55,-235.937 1718.6,-232.57 1708.65,-228.938 1708.55,-235.937"/>
</g>
<!-- Node28 -->
<g id="node55" class="node"><title>Node28</title>
<a xlink:href="_s_l_skeleton_8cpp.html" target="_top" xlink:title="SLSkeleton.cpp">
<polygon fill="white" stroke="black" points="2271.14,-112.5 2271.14,-131.5 2362.14,-131.5 2362.14,-112.5 2271.14,-112.5"/>
<text text-anchor="middle" x="2316.64" y="-119.5" font-family="Arial.ttf" font-size="10.00">SLSkeleton.cpp</text>
</a>
</g>
<!-- Node2&#45;&gt;Node28 -->
<g id="edge54" class="edge"><title>Node2&#45;&gt;Node28</title>
<path fill="none" stroke="midnightblue" d="M1708.33,-233.477C1630.02,-233.271 1472.15,-227.79 1437.64,-188 1431.81,-181.285 1431.49,-174.421 1437.64,-168 1469.32,-134.9 2216.06,-136.708 2261.64,-132 2264.72,-131.682 2267.88,-131.303 2271.07,-130.883"/>
<polygon fill="midnightblue" stroke="midnightblue" points="1708.38,-236.977 1718.38,-233.476 1708.38,-229.977 1708.38,-236.977"/>
</g>
<!-- Node29 -->
<g id="node57" class="node"><title>Node29</title>
<a xlink:href="_s_l_text_8cpp.html" target="_top" xlink:title="SLText.cpp">
<polygon fill="white" stroke="black" points="3345.14,-168.5 3345.14,-187.5 3414.14,-187.5 3414.14,-168.5 3345.14,-168.5"/>
<text text-anchor="middle" x="3379.64" y="-175.5" font-family="Arial.ttf" font-size="10.00">SLText.cpp</text>
</a>
</g>
<!-- Node2&#45;&gt;Node29 -->
<g id="edge56" class="edge"><title>Node2&#45;&gt;Node29</title>
<path fill="none" stroke="midnightblue" d="M1796.98,-232.778C2020.55,-231.503 3025.62,-223.839 3335.64,-188 3338.58,-187.66 3341.62,-187.222 3344.66,-186.724"/>
<polygon fill="midnightblue" stroke="midnightblue" points="1796.91,-229.279 1786.93,-232.834 1796.95,-236.278 1796.91,-229.279"/>
</g>
<!-- Node30 -->
<g id="node59" class="node"><title>Node30</title>
<a xlink:href="_s_l_transfer_function_8cpp.html" target="_top" xlink:title="SLTransferFunction.cpp">
<polygon fill="white" stroke="black" points="3432.64,-168.5 3432.64,-187.5 3560.64,-187.5 3560.64,-168.5 3432.64,-168.5"/>
<text text-anchor="middle" x="3496.64" y="-175.5" font-family="Arial.ttf" font-size="10.00">SLTransferFunction.cpp</text>
</a>
</g>
<!-- Node2&#45;&gt;Node30 -->
<g id="edge58" class="edge"><title>Node2&#45;&gt;Node30</title>
<path fill="none" stroke="midnightblue" d="M1796.84,-233.334C1989.86,-234.473 2777.92,-235.786 3422.64,-188 3425.86,-187.761 3429.16,-187.483 3432.5,-187.175"/>
<polygon fill="midnightblue" stroke="midnightblue" points="1796.82,-229.834 1786.79,-233.272 1796.77,-236.834 1796.82,-229.834"/>
</g>
<!-- Node31 -->
<g id="node61" class="node"><title>Node31</title>
<a xlink:href="_s_l_scene_view_8h.html" target="_top" xlink:title="SLSceneView.h">
<polygon fill="white" stroke="black" points="1220.14,-168.5 1220.14,-187.5 1309.14,-187.5 1309.14,-168.5 1220.14,-168.5"/>
<text text-anchor="middle" x="1264.64" y="-175.5" font-family="Arial.ttf" font-size="10.00">SLSceneView.h</text>
</a>
</g>
<!-- Node2&#45;&gt;Node31 -->
<g id="edge60" class="edge"><title>Node2&#45;&gt;Node31</title>
<path fill="none" stroke="midnightblue" d="M1707.95,-229.008C1629.87,-221.878 1463.56,-206.001 1323.64,-188 1319.01,-187.405 1314.19,-186.741 1309.38,-186.051"/>
<polygon fill="midnightblue" stroke="midnightblue" points="1708.1,-232.536 1718.37,-229.956 1708.73,-225.565 1708.1,-232.536"/>
</g>
<!-- Node31&#45;&gt;Node3 -->
<g id="edge62" class="edge"><title>Node31&#45;&gt;Node3</title>
<path fill="none" stroke="midnightblue" d="M1209.61,-176.991C1045.29,-176.498 543.979,-171.602 130.636,-132 127.954,-131.743 125.208,-131.445 122.44,-131.118"/>
<polygon fill="midnightblue" stroke="midnightblue" points="1209.93,-180.492 1219.94,-177.018 1209.95,-173.492 1209.93,-180.492"/>
</g>
<!-- Node31&#45;&gt;Node4 -->
<g id="edge64" class="edge"><title>Node31&#45;&gt;Node4</title>
<path fill="none" stroke="midnightblue" d="M1209.65,-175.759C1061.09,-172.127 639.337,-159.958 289.636,-132 286.884,-131.78 284.08,-131.539 281.248,-131.283"/>
<polygon fill="midnightblue" stroke="midnightblue" points="1209.78,-179.263 1219.86,-176.006 1209.95,-172.265 1209.78,-179.263"/>
</g>
<!-- Node31&#45;&gt;Node15 -->
<g id="edge72" class="edge"><title>Node31&#45;&gt;Node15</title>
<path fill="none" stroke="midnightblue" d="M1209.62,-176.3C1072.36,-174.085 703.857,-165.257 398.636,-132 395.896,-131.701 393.084,-131.355 390.251,-130.975"/>
<polygon fill="midnightblue" stroke="midnightblue" points="1209.82,-179.803 1219.88,-176.46 1209.93,-172.804 1209.82,-179.803"/>
</g>
<!-- Node31&#45;&gt;Node21 -->
<g id="edge78" class="edge"><title>Node31&#45;&gt;Node21</title>
<path fill="none" stroke="midnightblue" d="M1209.69,-173.598C1067.73,-164.693 699.125,-140.78 689.636,-132 657.482,-102.251 664.773,-42.0292 668.847,-19.6398"/>
<polygon fill="midnightblue" stroke="midnightblue" points="1209.71,-177.106 1219.91,-174.238 1210.15,-170.12 1209.71,-177.106"/>
</g>
<!-- Node31&#45;&gt;Node22 -->
<g id="edge80" class="edge"><title>Node31&#45;&gt;Node22</title>
<path fill="none" stroke="midnightblue" d="M1209.71,-175.022C1087.59,-170.32 784.373,-156.955 531.636,-132 528.874,-131.727 526.05,-131.427 523.199,-131.106"/>
<polygon fill="midnightblue" stroke="midnightblue" points="1209.8,-178.528 1219.92,-175.412 1210.06,-171.533 1209.8,-178.528"/>
</g>
<!-- Node31&#45;&gt;Node23 -->
<g id="edge82" class="edge"><title>Node31&#45;&gt;Node23</title>
<path fill="none" stroke="midnightblue" d="M1209.72,-174.111C1102.98,-168.235 860.104,-153.594 656.636,-132 651.991,-131.507 647.167,-130.941 642.34,-130.338"/>
<polygon fill="midnightblue" stroke="midnightblue" points="1209.75,-177.618 1219.92,-174.669 1210.13,-170.628 1209.75,-177.618"/>
</g>
<!-- Node31&#45;&gt;Node24 -->
<g id="edge84" class="edge"><title>Node31&#45;&gt;Node24</title>
<path fill="none" stroke="midnightblue" d="M1319.68,-168.422C1321.01,-168.274 1322.33,-168.132 1323.64,-168 1637.54,-136.17 1718.65,-163.062 2032.64,-132 2037.32,-131.536 2042.2,-130.966 2047.07,-130.34"/>
<polygon fill="midnightblue" stroke="midnightblue" points="1318.85,-164.998 1309.35,-169.695 1319.71,-171.946 1318.85,-164.998"/>
</g>
<!-- Node31&#45;&gt;Node25 -->
<g id="edge86" class="edge"><title>Node31&#45;&gt;Node25</title>
<path fill="none" stroke="midnightblue" d="M1319.75,-171.435C1333.43,-170.179 1348.06,-168.94 1361.64,-168 1710.94,-143.819 1800.28,-167.359 2148.64,-132 2151.73,-131.686 2154.9,-131.317 2158.1,-130.909"/>
<polygon fill="midnightblue" stroke="midnightblue" points="1319.14,-167.977 1309.51,-172.395 1319.8,-174.946 1319.14,-167.977"/>
</g>
<!-- Node31&#45;&gt;Node26 -->
<g id="edge98" class="edge"><title>Node31&#45;&gt;Node26</title>
<path fill="none" stroke="midnightblue" d="M1319.32,-171.011C1330.34,-169.916 1341.85,-168.851 1352.64,-168 1424.3,-162.341 1949.24,-184.228 1998.64,-132 2034.69,-93.8802 1959.06,-40.5812 1925.54,-19.7919"/>
<polygon fill="midnightblue" stroke="midnightblue" points="1318.96,-167.529 1309.37,-172.021 1319.67,-174.493 1318.96,-167.529"/>
</g>
<!-- Node31&#45;&gt;Node27 -->
<g id="edge100" class="edge"><title>Node31&#45;&gt;Node27</title>
<path fill="none" stroke="midnightblue" d="M1209.64,-172.662C1180.11,-167.446 1145.39,-156.176 1123.64,-132 1094.22,-99.3142 1095.88,-41.3854 1097.71,-19.6017"/>
<polygon fill="midnightblue" stroke="midnightblue" points="1209.42,-176.17 1219.84,-174.266 1210.51,-169.255 1209.42,-176.17"/>
</g>
<!-- Node31&#45;&gt;Node28 -->
<g id="edge104" class="edge"><title>Node31&#45;&gt;Node28</title>
<path fill="none" stroke="midnightblue" d="M1319.5,-173.032C1344.01,-171.34 1373.26,-169.43 1399.64,-168 1782.52,-147.245 1880.18,-171.032 2261.64,-132 2264.72,-131.685 2267.89,-131.308 2271.07,-130.889"/>
<polygon fill="midnightblue" stroke="midnightblue" points="1319.04,-169.556 1309.31,-173.742 1319.53,-176.539 1319.04,-169.556"/>
</g>
<!-- Node32 -->
<g id="node65" class="node"><title>Node32</title>
<a xlink:href="_s_l_c_v_tracked_aruco_8cpp.html" target="_top" xlink:title="SLCVTrackedAruco.cpp">
<polygon fill="white" stroke="black" points="1509.64,-0.5 1509.64,-19.5 1637.64,-19.5 1637.64,-0.5 1509.64,-0.5"/>
<text text-anchor="middle" x="1573.64" y="-7.5" font-family="Arial.ttf" font-size="10.00">SLCVTrackedAruco.cpp</text>
</a>
</g>
<!-- Node31&#45;&gt;Node32 -->
<g id="edge66" class="edge"><title>Node31&#45;&gt;Node32</title>
<path fill="none" stroke="midnightblue" d="M1319.55,-171.204C1422.85,-160.201 1636.34,-136.942 1642.64,-132 1670.21,-110.369 1682.06,-85.8098 1663.64,-56 1652.06,-37.2761 1630.08,-26.0823 1610.74,-19.5421"/>
<polygon fill="midnightblue" stroke="midnightblue" points="1318.89,-167.755 1309.31,-172.293 1319.63,-174.715 1318.89,-167.755"/>
</g>
<!-- Node33 -->
<g id="node67" class="node"><title>Node33</title>
<a xlink:href="_s_l_c_v_tracked_features_8cpp.html" target="_top" xlink:title="SLCVTrackedFeatures.cpp">
<polygon fill="white" stroke="black" points="840.636,-0.5 840.636,-19.5 982.636,-19.5 982.636,-0.5 840.636,-0.5"/>
<text text-anchor="middle" x="911.636" y="-7.5" font-family="Arial.ttf" font-size="10.00">SLCVTrackedFeatures.cpp</text>
</a>
</g>
<!-- Node31&#45;&gt;Node33 -->
<g id="edge68" class="edge"><title>Node31&#45;&gt;Node33</title>
<path fill="none" stroke="midnightblue" d="M1223.73,-165.732C1191.98,-156.874 1146.89,-144.056 1107.64,-132 1080.36,-123.623 1074.11,-119.679 1046.64,-112 978.523,-92.9645 935.625,-131.377 891.636,-76 878.27,-59.1742 894.017,-33.4195 904.238,-19.936"/>
<polygon fill="midnightblue" stroke="midnightblue" points="1222.98,-169.155 1233.55,-168.463 1224.86,-162.411 1222.98,-169.155"/>
</g>
<!-- Node34 -->
<g id="node69" class="node"><title>Node34</title>
<a xlink:href="_s_l_8cpp.html" target="_top" xlink:title="SL.cpp">
<polygon fill="white" stroke="black" points="1240.14,-112.5 1240.14,-131.5 1289.14,-131.5 1289.14,-112.5 1240.14,-112.5"/>
<text text-anchor="middle" x="1264.64" y="-119.5" font-family="Arial.ttf" font-size="10.00">SL.cpp</text>
</a>
</g>
<!-- Node31&#45;&gt;Node34 -->
<g id="edge70" class="edge"><title>Node31&#45;&gt;Node34</title>
<path fill="none" stroke="midnightblue" d="M1264.64,-157.805C1264.64,-148.91 1264.64,-138.78 1264.64,-131.751"/>
<polygon fill="midnightblue" stroke="midnightblue" points="1261.14,-158.083 1264.64,-168.083 1268.14,-158.083 1261.14,-158.083"/>
</g>
<!-- Node35 -->
<g id="node72" class="node"><title>Node35</title>
<a xlink:href="_s_l_anim_track_8cpp.html" target="_top" xlink:title="SLAnimTrack.cpp">
<polygon fill="white" stroke="black" points="1307.14,-112.5 1307.14,-131.5 1406.14,-131.5 1406.14,-112.5 1307.14,-112.5"/>
<text text-anchor="middle" x="1356.64" y="-119.5" font-family="Arial.ttf" font-size="10.00">SLAnimTrack.cpp</text>
</a>
</g>
<!-- Node31&#45;&gt;Node35 -->
<g id="edge74" class="edge"><title>Node31&#45;&gt;Node35</title>
<path fill="none" stroke="midnightblue" d="M1288.19,-163.177C1305.11,-153.241 1327.42,-140.149 1341.89,-131.655"/>
<polygon fill="midnightblue" stroke="midnightblue" points="1286.27,-160.243 1279.42,-168.324 1289.81,-166.28 1286.27,-160.243"/>
</g>
<!-- Node36 -->
<g id="node74" class="node"><title>Node36</title>
<a xlink:href="_s_l_camera_8cpp.html" target="_top" xlink:title="SLCamera.cpp">
<polygon fill="white" stroke="black" points="1424.14,-112.5 1424.14,-131.5 1511.14,-131.5 1511.14,-112.5 1424.14,-112.5"/>
<text text-anchor="middle" x="1467.64" y="-119.5" font-family="Arial.ttf" font-size="10.00">SLCamera.cpp</text>
</a>
</g>
<!-- Node31&#45;&gt;Node36 -->
<g id="edge76" class="edge"><title>Node31&#45;&gt;Node36</title>
<path fill="none" stroke="midnightblue" d="M1306.63,-165.829C1344.96,-155.633 1400.79,-140.782 1435.62,-131.516"/>
<polygon fill="midnightblue" stroke="midnightblue" points="1305.57,-162.49 1296.8,-168.444 1307.37,-169.255 1305.57,-162.49"/>
</g>
<!-- Node37 -->
<g id="node81" class="node"><title>Node37</title>
<a xlink:href="_s_l_material_8cpp.html" target="_top" xlink:title="SLMaterial.cpp">
<polygon fill="white" stroke="black" points="1529.14,-112.5 1529.14,-131.5 1616.14,-131.5 1616.14,-112.5 1529.14,-112.5"/>
<text text-anchor="middle" x="1572.64" y="-119.5" font-family="Arial.ttf" font-size="10.00">SLMaterial.cpp</text>
</a>
</g>
<!-- Node31&#45;&gt;Node37 -->
<g id="edge88" class="edge"><title>Node31&#45;&gt;Node37</title>
<path fill="none" stroke="midnightblue" d="M1319.43,-167.393C1379.22,-156.911 1473.72,-140.342 1528.79,-130.687"/>
<polygon fill="midnightblue" stroke="midnightblue" points="1318.67,-163.974 1309.42,-169.148 1319.88,-170.868 1318.67,-163.974"/>
</g>
<!-- Node38 -->
<g id="node83" class="node"><title>Node38</title>
<a xlink:href="_s_l_mesh_8cpp.html" target="_top" xlink:title="SLMesh.cpp">
<polygon fill="white" stroke="black" points="1798.64,-112.5 1798.64,-131.5 1872.64,-131.5 1872.64,-112.5 1798.64,-112.5"/>
<text text-anchor="middle" x="1835.64" y="-119.5" font-family="Arial.ttf" font-size="10.00">SLMesh.cpp</text>
</a>
</g>
<!-- Node31&#45;&gt;Node38 -->
<g id="edge90" class="edge"><title>Node31&#45;&gt;Node38</title>
<path fill="none" stroke="midnightblue" d="M1319.69,-168.469C1321.01,-168.306 1322.33,-168.149 1323.64,-168 1530.01,-144.321 1583.8,-159.99 1789.64,-132 1792.54,-131.605 1795.53,-131.144 1798.54,-130.642"/>
<polygon fill="midnightblue" stroke="midnightblue" points="1318.83,-165.051 1309.37,-169.82 1319.74,-171.992 1318.83,-165.051"/>
</g>
<!-- Node39 -->
<g id="node85" class="node"><title>Node39</title>
<a xlink:href="_s_l_node_8cpp.html" target="_top" xlink:title="SLNode.cpp">
<polygon fill="white" stroke="black" points="1580.64,-56.5 1580.64,-75.5 1654.64,-75.5 1654.64,-56.5 1580.64,-56.5"/>
<text text-anchor="middle" x="1617.64" y="-63.5" font-family="Arial.ttf" font-size="10.00">SLNode.cpp</text>
</a>
</g>
<!-- Node31&#45;&gt;Node39 -->
<g id="edge92" class="edge"><title>Node31&#45;&gt;Node39</title>
<path fill="none" stroke="midnightblue" d="M1319.64,-171.065C1419.22,-160.192 1619.63,-137.672 1624.64,-132 1638.46,-116.344 1628.79,-89.6143 1622.27,-75.8174"/>
<polygon fill="midnightblue" stroke="midnightblue" points="1319.02,-167.611 1309.46,-172.174 1319.78,-174.57 1319.02,-167.611"/>
</g>
<!-- Node40 -->
<g id="node87" class="node"><title>Node40</title>
<a xlink:href="_s_l_pathtracer_8cpp.html" target="_top" xlink:title="SLPathtracer.cpp">
<polygon fill="white" stroke="black" points="1891.14,-112.5 1891.14,-131.5 1990.14,-131.5 1990.14,-112.5 1891.14,-112.5"/>
<text text-anchor="middle" x="1940.64" y="-119.5" font-family="Arial.ttf" font-size="10.00">SLPathtracer.cpp</text>
</a>
</g>
<!-- Node31&#45;&gt;Node40 -->
<g id="edge94" class="edge"><title>Node31&#45;&gt;Node40</title>
<path fill="none" stroke="midnightblue" d="M1319.68,-168.447C1321.01,-168.29 1322.33,-168.141 1323.64,-168 1570.71,-141.237 1634.57,-158.763 1881.64,-132 1884.73,-131.665 1887.9,-131.285 1891.1,-130.875"/>
<polygon fill="midnightblue" stroke="midnightblue" points="1318.84,-165.026 1309.36,-169.76 1319.72,-171.97 1318.84,-165.026"/>
</g>
<!-- Node41 -->
<g id="node89" class="node"><title>Node41</title>
<a xlink:href="_s_l_raytracer_8cpp.html" target="_top" xlink:title="SLRaytracer.cpp">
<polygon fill="white" stroke="black" points="699.136,-112.5 699.136,-131.5 794.136,-131.5 794.136,-112.5 699.136,-112.5"/>
<text text-anchor="middle" x="746.636" y="-119.5" font-family="Arial.ttf" font-size="10.00">SLRaytracer.cpp</text>
</a>
</g>
<!-- Node31&#45;&gt;Node41 -->
<g id="edge96" class="edge"><title>Node31&#45;&gt;Node41</title>
<path fill="none" stroke="midnightblue" d="M1209.81,-172.771C1123.16,-165.838 949.332,-150.914 802.636,-132 799.901,-131.647 797.095,-131.264 794.265,-130.862"/>
<polygon fill="midnightblue" stroke="midnightblue" points="1209.69,-176.273 1219.93,-173.577 1210.24,-169.295 1209.69,-176.273"/>
</g>
<!-- Node42 -->
<g id="node93" class="node"><title>Node42</title>
<a xlink:href="_s_l_scene_view_8cpp.html" target="_top" xlink:title="SLSceneView.cpp">
<polygon fill="white" stroke="black" points="812.136,-112.5 812.136,-131.5 913.136,-131.5 913.136,-112.5 812.136,-112.5"/>
<text text-anchor="middle" x="862.636" y="-119.5" font-family="Arial.ttf" font-size="10.00">SLSceneView.cpp</text>
</a>
</g>
<!-- Node31&#45;&gt;Node42 -->
<g id="edge102" class="edge"><title>Node31&#45;&gt;Node42</title>
<path fill="none" stroke="midnightblue" d="M1209.9,-170.178C1142.16,-161.652 1023.3,-146.422 921.636,-132 918.866,-131.607 916.024,-131.197 913.156,-130.778"/>
<polygon fill="midnightblue" stroke="midnightblue" points="1209.56,-173.663 1219.92,-171.437 1210.44,-166.717 1209.56,-173.663"/>
</g>
<!-- Node43 -->
<g id="node96" class="node"><title>Node43</title>
<a xlink:href="_s_l_uniform_grid_8cpp.html" target="_top" xlink:title="SLUniformGrid.cpp">
<polygon fill="white" stroke="black" points="931.136,-112.5 931.136,-131.5 1038.14,-131.5 1038.14,-112.5 931.136,-112.5"/>
<text text-anchor="middle" x="984.636" y="-119.5" font-family="Arial.ttf" font-size="10.00">SLUniformGrid.cpp</text>
</a>
</g>
<!-- Node31&#45;&gt;Node43 -->
<g id="edge106" class="edge"><title>Node31&#45;&gt;Node43</title>
<path fill="none" stroke="midnightblue" d="M1210.38,-166.537C1157.47,-156.332 1077.96,-140.999 1028.8,-131.516"/>
<polygon fill="midnightblue" stroke="midnightblue" points="1209.79,-169.986 1220.27,-168.444 1211.11,-163.113 1209.79,-169.986"/>
</g>
<!-- Node44 -->
<g id="node98" class="node"><title>Node44</title>
<a xlink:href="_s_l_button_8h.html" target="_top" xlink:title="SLButton.h">
<polygon fill="white" stroke="black" points="1710.64,-112.5 1710.64,-131.5 1780.64,-131.5 1780.64,-112.5 1710.64,-112.5"/>
<text text-anchor="middle" x="1745.64" y="-119.5" font-family="Arial.ttf" font-size="10.00">SLButton.h</text>
</a>
</g>
<!-- Node31&#45;&gt;Node44 -->
<g id="edge108" class="edge"><title>Node31&#45;&gt;Node44</title>
<path fill="none" stroke="midnightblue" d="M1319.69,-168.503C1321.02,-168.33 1322.33,-168.162 1323.64,-168 1488.91,-147.435 1531.69,-155.065 1696.64,-132 1701.18,-131.365 1705.94,-130.607 1710.63,-129.805"/>
<polygon fill="midnightblue" stroke="midnightblue" points="1318.81,-165.09 1309.38,-169.91 1319.76,-172.026 1318.81,-165.09"/>
</g>
<!-- Node46 -->
<g id="node102" class="node"><title>Node46</title>
<a xlink:href="_s_l_c_v_tracked_8h.html" target="_top" xlink:title="SLCVTracked.h">
<polygon fill="white" stroke="black" points="1133.14,-112.5 1133.14,-131.5 1222.14,-131.5 1222.14,-112.5 1133.14,-112.5"/>
<text text-anchor="middle" x="1177.64" y="-119.5" font-family="Arial.ttf" font-size="10.00">SLCVTracked.h</text>
</a>
</g>
<!-- Node31&#45;&gt;Node46 -->
<g id="edge112" class="edge"><title>Node31&#45;&gt;Node46</title>
<path fill="none" stroke="midnightblue" d="M1241.92,-162.901C1225.97,-152.999 1205.14,-140.071 1191.58,-131.655"/>
<polygon fill="midnightblue" stroke="midnightblue" points="1240.32,-166.024 1250.66,-168.324 1244.01,-160.077 1240.32,-166.024"/>
</g>
<!-- Node45 -->
<g id="node100" class="node"><title>Node45</title>
<a xlink:href="_s_l_button_8cpp.html" target="_top" xlink:title="SLButton.cpp">
<polygon fill="white" stroke="black" points="1711.14,-56.5 1711.14,-75.5 1792.14,-75.5 1792.14,-56.5 1711.14,-56.5"/>
<text text-anchor="middle" x="1751.64" y="-63.5" font-family="Arial.ttf" font-size="10.00">SLButton.cpp</text>
</a>
</g>
<!-- Node44&#45;&gt;Node45 -->
<g id="edge110" class="edge"><title>Node44&#45;&gt;Node45</title>
<path fill="none" stroke="midnightblue" d="M1747.74,-102.101C1748.73,-93.1357 1749.87,-82.8579 1750.66,-75.7511"/>
<polygon fill="midnightblue" stroke="midnightblue" points="1744.25,-101.758 1746.63,-112.083 1751.21,-102.531 1744.25,-101.758"/>
</g>
<!-- Node46&#45;&gt;Node26 -->
<g id="edge118" class="edge"><title>Node46&#45;&gt;Node26</title>
<path fill="none" stroke="midnightblue" d="M1232.41,-111.843C1366.83,-93.7569 1407.3,-115.271 1533.64,-76 1551.86,-70.335 1553.45,-61.7898 1571.64,-56 1676.29,-22.6795 1806.73,-14.0171 1871.02,-11.7752"/>
<polygon fill="midnightblue" stroke="midnightblue" points="1231.56,-108.427 1222.14,-113.276 1232.53,-115.36 1231.56,-108.427"/>
</g>
<!-- Node46&#45;&gt;Node39 -->
<g id="edge116" class="edge"><title>Node46&#45;&gt;Node39</title>
<path fill="none" stroke="midnightblue" d="M1232.11,-111.87C1381.11,-91.6486 1421.13,-96.6099 1566.64,-76 1571.18,-75.3569 1575.93,-74.6129 1580.64,-73.8337"/>
<polygon fill="midnightblue" stroke="midnightblue" points="1231.57,-108.412 1222.14,-113.239 1232.52,-115.347 1231.57,-108.412"/>
</g>
<!-- Node47 -->
<g id="node104" class="node"><title>Node47</title>
<a xlink:href="_s_l_c_v_tracked_8cpp.html" target="_top" xlink:title="SLCVTracked.cpp">
<polygon fill="white" stroke="black" points="1126.64,-56.5 1126.64,-75.5 1226.64,-75.5 1226.64,-56.5 1126.64,-56.5"/>
<text text-anchor="middle" x="1176.64" y="-63.5" font-family="Arial.ttf" font-size="10.00">SLCVTracked.cpp</text>
</a>
</g>
<!-- Node46&#45;&gt;Node47 -->
<g id="edge114" class="edge"><title>Node46&#45;&gt;Node47</title>
<path fill="none" stroke="midnightblue" d="M1177.28,-101.805C1177.12,-92.9102 1176.93,-82.7798 1176.8,-75.7511"/>
<polygon fill="midnightblue" stroke="midnightblue" points="1173.79,-102.15 1177.47,-112.083 1180.78,-102.02 1173.79,-102.15"/>
</g>
<!-- Node48 -->
<g id="node108" class="node"><title>Node48</title>
<a xlink:href="_s_l_c_v_tracked_aruco_8h.html" target="_top" xlink:title="SLCVTrackedAruco.h">
<polygon fill="white" stroke="black" points="1408.64,-56.5 1408.64,-75.5 1524.64,-75.5 1524.64,-56.5 1408.64,-56.5"/>
<text text-anchor="middle" x="1466.64" y="-63.5" font-family="Arial.ttf" font-size="10.00">SLCVTrackedAruco.h</text>
</a>
</g>
<!-- Node46&#45;&gt;Node48 -->
<g id="edge120" class="edge"><title>Node46&#45;&gt;Node48</title>
<path fill="none" stroke="midnightblue" d="M1232.01,-110.84C1286.63,-100.634 1369.86,-85.0831 1421.11,-75.5069"/>
<polygon fill="midnightblue" stroke="midnightblue" points="1231.35,-107.404 1222.16,-112.681 1232.63,-114.284 1231.35,-107.404"/>
</g>
<!-- Node49 -->
<g id="node113" class="node"><title>Node49</title>
<a xlink:href="_s_l_c_v_tracked_chessboard_8h.html" target="_top" xlink:title="SLCVTrackedChessboard.h">
<polygon fill="white" stroke="red" points="1244.64,-56.5 1244.64,-75.5 1390.64,-75.5 1390.64,-56.5 1244.64,-56.5"/>
<text text-anchor="middle" x="1317.64" y="-63.5" font-family="Arial.ttf" font-size="10.00">SLCVTrackedChessboard.h</text>
</a>
</g>
<!-- Node46&#45;&gt;Node49 -->
<g id="edge128" class="edge"><title>Node46&#45;&gt;Node49</title>
<path fill="none" stroke="midnightblue" d="M1209.34,-108.772C1235.64,-98.6287 1272.35,-84.4669 1295.56,-75.5164"/>
<polygon fill="midnightblue" stroke="midnightblue" points="1207.89,-105.579 1199.82,-112.444 1210.41,-112.11 1207.89,-105.579"/>
</g>
<!-- Node50 -->
<g id="node116" class="node"><title>Node50</title>
<a xlink:href="_s_l_c_v_tracked_features_8h.html" target="_top" xlink:title="SLCVTrackedFeatures.h">
<polygon fill="white" stroke="black" points="901.136,-56.5 901.136,-75.5 1032.14,-75.5 1032.14,-56.5 901.136,-56.5"/>
<text text-anchor="middle" x="966.636" y="-63.5" font-family="Arial.ttf" font-size="10.00">SLCVTrackedFeatures.h</text>
</a>
</g>
<!-- Node46&#45;&gt;Node50 -->
<g id="edge132" class="edge"><title>Node46&#45;&gt;Node50</title>
<path fill="none" stroke="midnightblue" d="M1134.49,-109.959C1094.64,-99.7598 1036.27,-84.8217 999.913,-75.5164"/>
<polygon fill="midnightblue" stroke="midnightblue" points="1133.65,-113.355 1144.2,-112.444 1135.38,-106.573 1133.65,-113.355"/>
</g>
<!-- Node48&#45;&gt;Node26 -->
<g id="edge124" class="edge"><title>Node48&#45;&gt;Node26</title>
<path fill="none" stroke="midnightblue" d="M1534.8,-56.472C1536.09,-56.3131 1537.37,-56.1557 1538.64,-56 1659.7,-41.1111 1802.98,-23.8922 1870.99,-15.7435"/>
<polygon fill="midnightblue" stroke="midnightblue" points="1534.29,-53.0091 1524.79,-57.7103 1535.15,-59.9562 1534.29,-53.0091"/>
</g>
<!-- Node48&#45;&gt;Node27 -->
<g id="edge126" class="edge"><title>Node48&#45;&gt;Node27</title>
<path fill="none" stroke="midnightblue" d="M1398.35,-54.9794C1328.83,-44.7791 1222.24,-29.1372 1156.67,-19.5164"/>
<polygon fill="midnightblue" stroke="midnightblue" points="1397.92,-58.4545 1408.33,-56.4435 1398.94,-51.5287 1397.92,-58.4545"/>
</g>
<!-- Node48&#45;&gt;Node32 -->
<g id="edge122" class="edge"><title>Node48&#45;&gt;Node32</title>
<path fill="none" stroke="midnightblue" d="M1492.94,-51.7261C1512.75,-41.7271 1539.34,-28.3065 1556.49,-19.6545"/>
<polygon fill="midnightblue" stroke="midnightblue" points="1491.18,-48.6938 1483.83,-56.324 1494.33,-54.9431 1491.18,-48.6938"/>
</g>
<!-- Node49&#45;&gt;Node27 -->
<g id="edge130" class="edge"><title>Node49&#45;&gt;Node27</title>
<path fill="none" stroke="midnightblue" d="M1273.12,-54.0237C1231.75,-43.8232 1170.99,-28.8414 1133.17,-19.5164"/>
<polygon fill="midnightblue" stroke="midnightblue" points="1272.39,-57.4476 1282.93,-56.4435 1274.06,-50.6512 1272.39,-57.4476"/>
</g>
<!-- Node50&#45;&gt;Node21 -->
<g id="edge136" class="edge"><title>Node50&#45;&gt;Node21</title>
<path fill="none" stroke="midnightblue" d="M909.632,-54.6007C853.692,-44.3953 769.406,-29.0189 717.318,-19.5164"/>
<polygon fill="midnightblue" stroke="midnightblue" points="909.268,-58.0919 919.734,-56.4435 910.524,-51.2056 909.268,-58.0919"/>
</g>
<!-- Node50&#45;&gt;Node27 -->
<g id="edge138" class="edge"><title>Node50&#45;&gt;Node27</title>
<path fill="none" stroke="midnightblue" d="M996.855,-52.6377C1021.63,-42.504 1056.04,-28.4274 1077.82,-19.5164"/>
<polygon fill="midnightblue" stroke="midnightblue" points="995.482,-49.4177 987.552,-56.4435 998.132,-55.8966 995.482,-49.4177"/>
</g>
<!-- Node50&#45;&gt;Node33 -->
<g id="edge134" class="edge"><title>Node50&#45;&gt;Node33</title>
<path fill="none" stroke="midnightblue" d="M950.342,-49.0024C940.595,-39.4329 928.583,-27.6389 920.549,-19.7511"/>
<polygon fill="midnightblue" stroke="midnightblue" points="947.966,-51.5746 957.554,-56.083 952.87,-46.5796 947.966,-51.5746"/>
</g>
</g>
</svg>
