<?xml version="1.0" encoding="UTF-8" standalone="no"?>
<!DOCTYPE svg PUBLIC "-//W3C//DTD SVG 1.1//EN"
 "http://www.w3.org/Graphics/SVG/1.1/DTD/svg11.dtd">
<!-- Generated by graphviz version 2.44.0 (20200408.0750)
 -->
<!-- Title: SLGLConetracerTex3D.h Pages: 1 -->
<svg width="1821pt" height="756pt"
 viewBox="0.00 0.00 1821.00 756.00" xmlns="http://www.w3.org/2000/svg" xmlns:xlink="http://www.w3.org/1999/xlink">
<g id="graph0" class="graph" transform="scale(1 1) rotate(0) translate(4 752)">
<title>SLGLConetracerTex3D.h</title>
<polygon fill="white" stroke="transparent" points="-4,4 -4,-752 1817,-752 1817,4 -4,4"/>
<!-- Node1 -->
<g id="node1" class="node">
<title>Node1</title>
<g id="a_node1"><a xlink:title=" ">
<polygon fill="#bfbfbf" stroke="black" points="313,-728.5 313,-747.5 439,-747.5 439,-728.5 313,-728.5"/>
<text text-anchor="middle" x="376" y="-735.5" font-family="Arial.ttf" font-size="10.00">SLGLConetracerTex3D.h</text>
</a>
</g>
</g>
<!-- Node2 -->
<g id="node2" class="node">
<title>Node2</title>
<g id="a_node2"><a xlink:href="_s_l_g_l_texture_8h.html" target="_top" xlink:title=" ">
<polygon fill="white" stroke="black" points="692,-672.5 692,-691.5 774,-691.5 774,-672.5 692,-672.5"/>
<text text-anchor="middle" x="733" y="-679.5" font-family="Arial.ttf" font-size="10.00">SLGLTexture.h</text>
</a>
</g>
</g>
<!-- Node1&#45;&gt;Node2 -->
<g id="edge1" class="edge">
<title>Node1&#45;&gt;Node2</title>
<path fill="none" stroke="midnightblue" d="M432.57,-728.44C501.15,-718.07 615.74,-700.74 681.81,-690.74"/>
<polygon fill="midnightblue" stroke="midnightblue" points="682.62,-694.16 691.98,-689.2 681.57,-687.24 682.62,-694.16"/>
</g>
<!-- Node38 -->
<g id="node38" class="node">
<title>Node38</title>
<g id="a_node38"><a xlink:href="_s_l_vector_8h.html" target="_top" xlink:title=" ">
<polygon fill="white" stroke="black" points="0,-448.5 0,-467.5 64,-467.5 64,-448.5 0,-448.5"/>
<text text-anchor="middle" x="32" y="-455.5" font-family="Arial.ttf" font-size="10.00">SLVector.h</text>
</a>
</g>
</g>
<!-- Node1&#45;&gt;Node38 -->
<g id="edge63" class="edge">
<title>Node1&#45;&gt;Node38</title>
<path fill="none" stroke="midnightblue" d="M312.95,-728.87C217.93,-714.82 49,-682.11 49,-627 49,-627 49,-627 49,-569 49,-536.58 41.7,-499.42 36.67,-477.64"/>
<polygon fill="midnightblue" stroke="midnightblue" points="40.03,-476.67 34.29,-467.77 33.23,-478.31 40.03,-476.67"/>
</g>
<!-- Node3 -->
<g id="node3" class="node">
<title>Node3</title>
<g id="a_node3"><a xlink:href="_s_l_object_8h.html" target="_top" xlink:title=" ">
<polygon fill="white" stroke="black" points="54.5,-392.5 54.5,-411.5 119.5,-411.5 119.5,-392.5 54.5,-392.5"/>
<text text-anchor="middle" x="87" y="-399.5" font-family="Arial.ttf" font-size="10.00">SLObject.h</text>
</a>
</g>
</g>
<!-- Node2&#45;&gt;Node3 -->
<g id="edge2" class="edge">
<title>Node2&#45;&gt;Node3</title>
<path fill="none" stroke="midnightblue" d="M691.73,-678.17C551.79,-668.02 104,-630.86 104,-571 104,-571 104,-571 104,-513 104,-480.58 96.7,-443.42 91.67,-421.64"/>
<polygon fill="midnightblue" stroke="midnightblue" points="95.03,-420.67 89.29,-411.77 88.23,-422.31 95.03,-420.67"/>
</g>
<!-- Node14 -->
<g id="node14" class="node">
<title>Node14</title>
<g id="a_node14"><a xlink:href="_c_v_image_8h.html" target="_top" xlink:title=" ">
<polygon fill="white" stroke="black" points="1152,-616.5 1152,-635.5 1218,-635.5 1218,-616.5 1152,-616.5"/>
<text text-anchor="middle" x="1185" y="-623.5" font-family="Arial.ttf" font-size="10.00">CVImage.h</text>
</a>
</g>
</g>
<!-- Node2&#45;&gt;Node14 -->
<g id="edge16" class="edge">
<title>Node2&#45;&gt;Node14</title>
<path fill="none" stroke="midnightblue" d="M774.31,-676.06C859.65,-665.87 1054.68,-642.57 1141.7,-632.17"/>
<polygon fill="midnightblue" stroke="midnightblue" points="1142.24,-635.63 1151.76,-630.97 1141.41,-628.68 1142.24,-635.63"/>
</g>
<!-- Node22 -->
<g id="node22" class="node">
<title>Node22</title>
<g id="a_node22"><a xlink:href="_s_l_g_l_vertex_array_8h.html" target="_top" xlink:title=" ">
<polygon fill="white" stroke="black" points="683.5,-616.5 683.5,-635.5 782.5,-635.5 782.5,-616.5 683.5,-616.5"/>
<text text-anchor="middle" x="733" y="-623.5" font-family="Arial.ttf" font-size="10.00">SLGLVertexArray.h</text>
</a>
</g>
</g>
<!-- Node2&#45;&gt;Node22 -->
<g id="edge25" class="edge">
<title>Node2&#45;&gt;Node22</title>
<path fill="none" stroke="midnightblue" d="M733,-672.08C733,-665.01 733,-654.86 733,-645.99"/>
<polygon fill="midnightblue" stroke="midnightblue" points="736.5,-645.75 733,-635.75 729.5,-645.75 736.5,-645.75"/>
</g>
<!-- Node28 -->
<g id="node28" class="node">
<title>Node28</title>
<g id="a_node28"><a xlink:href="_s_l_mat4_8h.html" target="_top" xlink:title=" ">
<polygon fill="white" stroke="black" points="619.5,-392.5 619.5,-411.5 678.5,-411.5 678.5,-392.5 619.5,-392.5"/>
<text text-anchor="middle" x="649" y="-399.5" font-family="Arial.ttf" font-size="10.00">SLMat4.h</text>
</a>
</g>
</g>
<!-- Node2&#45;&gt;Node28 -->
<g id="edge60" class="edge">
<title>Node2&#45;&gt;Node28</title>
<path fill="none" stroke="midnightblue" d="M717.36,-672.41C704.33,-664.52 686.16,-651.68 675,-636 657.31,-611.15 653,-601.5 653,-571 653,-571 653,-571 653,-513 653,-480.93 651.28,-443.63 650.1,-421.74"/>
<polygon fill="midnightblue" stroke="midnightblue" points="653.58,-421.34 649.52,-411.55 646.59,-421.73 653.58,-421.34"/>
</g>
<!-- Node36 -->
<g id="node36" class="node">
<title>Node36</title>
<g id="a_node36"><a xlink:title=" ">
<polygon fill="white" stroke="#bfbfbf" points="801,-616.5 801,-635.5 847,-635.5 847,-616.5 801,-616.5"/>
<text text-anchor="middle" x="824" y="-623.5" font-family="Arial.ttf" font-size="10.00">atomic</text>
</a>
</g>
</g>
<!-- Node2&#45;&gt;Node36 -->
<g id="edge61" class="edge">
<title>Node2&#45;&gt;Node36</title>
<path fill="none" stroke="midnightblue" d="M747.62,-672.32C761.95,-663.82 784.01,-650.73 800.75,-640.8"/>
<polygon fill="midnightblue" stroke="midnightblue" points="802.6,-643.77 809.42,-635.65 799.03,-637.75 802.6,-643.77"/>
</g>
<!-- Node37 -->
<g id="node37" class="node">
<title>Node37</title>
<g id="a_node37"><a xlink:title=" ">
<polygon fill="white" stroke="#bfbfbf" points="865,-616.5 865,-635.5 909,-635.5 909,-616.5 865,-616.5"/>
<text text-anchor="middle" x="887" y="-623.5" font-family="Arial.ttf" font-size="10.00">mutex</text>
</a>
</g>
</g>
<!-- Node2&#45;&gt;Node37 -->
<g id="edge62" class="edge">
<title>Node2&#45;&gt;Node37</title>
<path fill="none" stroke="midnightblue" d="M757.4,-672.44C783.8,-663.19 826.01,-648.39 855.04,-638.21"/>
<polygon fill="midnightblue" stroke="midnightblue" points="856.43,-641.43 864.71,-634.82 854.12,-634.82 856.43,-641.43"/>
</g>
<!-- Node4 -->
<g id="node4" class="node">
<title>Node4</title>
<g id="a_node4"><a xlink:href="_s_l_8h.html" target="_top" xlink:title=" ">
<polygon fill="white" stroke="black" points="563.5,-168.5 563.5,-187.5 600.5,-187.5 600.5,-168.5 563.5,-168.5"/>
<text text-anchor="middle" x="582" y="-175.5" font-family="Arial.ttf" font-size="10.00">SL.h</text>
</a>
</g>
</g>
<!-- Node3&#45;&gt;Node4 -->
<g id="edge3" class="edge">
<title>Node3&#45;&gt;Node4</title>
<path fill="none" stroke="midnightblue" d="M84.95,-392.39C78.68,-363.64 62.93,-270.2 111,-224 142.97,-193.27 456.03,-182.37 553.31,-179.7"/>
<polygon fill="midnightblue" stroke="midnightblue" points="553.41,-183.2 563.32,-179.44 553.23,-176.21 553.41,-183.2"/>
</g>
<!-- Node5 -->
<g id="node5" class="node">
<title>Node5</title>
<g id="a_node5"><a xlink:href="_utils_8h.html" target="_top" xlink:title=" ">
<polygon fill="white" stroke="black" points="771.5,-112.5 771.5,-131.5 816.5,-131.5 816.5,-112.5 771.5,-112.5"/>
<text text-anchor="middle" x="794" y="-119.5" font-family="Arial.ttf" font-size="10.00">Utils.h</text>
</a>
</g>
</g>
<!-- Node4&#45;&gt;Node5 -->
<g id="edge4" class="edge">
<title>Node4&#45;&gt;Node5</title>
<path fill="none" stroke="midnightblue" d="M600.81,-172.21C637.01,-162.99 716.72,-142.68 761.62,-131.25"/>
<polygon fill="midnightblue" stroke="midnightblue" points="762.61,-134.61 771.44,-128.75 760.88,-127.82 762.61,-134.61"/>
</g>
<!-- Node6 -->
<g id="node6" class="node">
<title>Node6</title>
<g id="a_node6"><a xlink:title=" ">
<polygon fill="white" stroke="#bfbfbf" points="674.5,-0.5 674.5,-19.5 715.5,-19.5 715.5,-0.5 674.5,-0.5"/>
<text text-anchor="middle" x="695" y="-7.5" font-family="Arial.ttf" font-size="10.00">string</text>
</a>
</g>
</g>
<!-- Node5&#45;&gt;Node6 -->
<g id="edge5" class="edge">
<title>Node5&#45;&gt;Node6</title>
<path fill="none" stroke="midnightblue" d="M771.24,-114.64C752.03,-108.09 725.28,-95.98 710,-76 699.89,-62.78 696.4,-43.91 695.29,-29.9"/>
<polygon fill="midnightblue" stroke="midnightblue" points="698.77,-29.35 694.82,-19.52 691.78,-29.66 698.77,-29.35"/>
</g>
<!-- Node7 -->
<g id="node7" class="node">
<title>Node7</title>
<g id="a_node7"><a xlink:title=" ">
<polygon fill="white" stroke="#bfbfbf" points="1369,-56.5 1369,-75.5 1413,-75.5 1413,-56.5 1369,-56.5"/>
<text text-anchor="middle" x="1391" y="-63.5" font-family="Arial.ttf" font-size="10.00">vector</text>
</a>
</g>
</g>
<!-- Node5&#45;&gt;Node7 -->
<g id="edge6" class="edge">
<title>Node5&#45;&gt;Node7</title>
<path fill="none" stroke="midnightblue" d="M816.67,-118.95C908.31,-110.66 1251.46,-79.62 1358.74,-69.92"/>
<polygon fill="midnightblue" stroke="midnightblue" points="1359.29,-73.38 1368.94,-69 1358.66,-66.41 1359.29,-73.38"/>
</g>
<!-- Node8 -->
<g id="node8" class="node">
<title>Node8</title>
<g id="a_node8"><a xlink:title=" ">
<polygon fill="white" stroke="#bfbfbf" points="811.5,-56.5 811.5,-75.5 852.5,-75.5 852.5,-56.5 811.5,-56.5"/>
<text text-anchor="middle" x="832" y="-63.5" font-family="Arial.ttf" font-size="10.00">cfloat</text>
</a>
</g>
</g>
<!-- Node5&#45;&gt;Node8 -->
<g id="edge7" class="edge">
<title>Node5&#45;&gt;Node8</title>
<path fill="none" stroke="midnightblue" d="M800.27,-112.08C805.64,-104.46 813.52,-93.26 820.08,-83.94"/>
<polygon fill="midnightblue" stroke="midnightblue" points="822.95,-85.94 825.84,-75.75 817.22,-81.91 822.95,-85.94"/>
</g>
<!-- Node9 -->
<g id="node9" class="node">
<title>Node9</title>
<g id="a_node9"><a xlink:title=" ">
<polygon fill="white" stroke="#bfbfbf" points="833,-0.5 833,-19.5 885,-19.5 885,-0.5 833,-0.5"/>
<text text-anchor="middle" x="859" y="-7.5" font-family="Arial.ttf" font-size="10.00">memory</text>
</a>
</g>
</g>
<!-- Node5&#45;&gt;Node9 -->
<g id="edge8" class="edge">
<title>Node5&#45;&gt;Node9</title>
<path fill="none" stroke="midnightblue" d="M816.76,-121.57C849.94,-121 910.7,-114.41 939,-76 955.4,-53.74 922.85,-34.67 894.47,-23.05"/>
<polygon fill="midnightblue" stroke="midnightblue" points="895.67,-19.76 885.08,-19.4 893.14,-26.28 895.67,-19.76"/>
</g>
<!-- Node10 -->
<g id="node10" class="node">
<title>Node10</title>
<g id="a_node10"><a xlink:href="_file_log_8h.html" target="_top" xlink:title=" ">
<polygon fill="white" stroke="black" points="606,-56.5 606,-75.5 662,-75.5 662,-56.5 606,-56.5"/>
<text text-anchor="middle" x="634" y="-63.5" font-family="Arial.ttf" font-size="10.00">FileLog.h</text>
</a>
</g>
</g>
<!-- Node5&#45;&gt;Node10 -->
<g id="edge9" class="edge">
<title>Node5&#45;&gt;Node10</title>
<path fill="none" stroke="midnightblue" d="M771.42,-113.38C744.75,-104.38 700.11,-89.31 668.97,-78.8"/>
<polygon fill="midnightblue" stroke="midnightblue" points="669.97,-75.45 659.37,-75.56 667.73,-82.08 669.97,-75.45"/>
</g>
<!-- Node12 -->
<g id="node12" class="node">
<title>Node12</title>
<g id="a_node12"><a xlink:href="_custom_log_8h.html" target="_top" xlink:title=" ">
<polygon fill="white" stroke="black" points="718.5,-56.5 718.5,-75.5 793.5,-75.5 793.5,-56.5 718.5,-56.5"/>
<text text-anchor="middle" x="756" y="-63.5" font-family="Arial.ttf" font-size="10.00">CustomLog.h</text>
</a>
</g>
</g>
<!-- Node5&#45;&gt;Node12 -->
<g id="edge12" class="edge">
<title>Node5&#45;&gt;Node12</title>
<path fill="none" stroke="midnightblue" d="M787.73,-112.08C782.36,-104.46 774.48,-93.26 767.92,-83.94"/>
<polygon fill="midnightblue" stroke="midnightblue" points="770.78,-81.91 762.16,-75.75 765.05,-85.94 770.78,-81.91"/>
</g>
<!-- Node13 -->
<g id="node13" class="node">
<title>Node13</title>
<g id="a_node13"><a xlink:title=" ">
<polygon fill="white" stroke="#bfbfbf" points="870.5,-56.5 870.5,-75.5 929.5,-75.5 929.5,-56.5 870.5,-56.5"/>
<text text-anchor="middle" x="900" y="-63.5" font-family="Arial.ttf" font-size="10.00">functional</text>
</a>
</g>
</g>
<!-- Node5&#45;&gt;Node13 -->
<g id="edge15" class="edge">
<title>Node5&#45;&gt;Node13</title>
<path fill="none" stroke="midnightblue" d="M811.03,-112.32C828.03,-103.66 854.38,-90.24 873.99,-80.25"/>
<polygon fill="midnightblue" stroke="midnightblue" points="875.69,-83.31 883.01,-75.65 872.51,-77.08 875.69,-83.31"/>
</g>
<!-- Node10&#45;&gt;Node6 -->
<g id="edge10" class="edge">
<title>Node10&#45;&gt;Node6</title>
<path fill="none" stroke="midnightblue" d="M643.8,-56.32C652.82,-48.34 666.41,-36.31 677.32,-26.65"/>
<polygon fill="midnightblue" stroke="midnightblue" points="679.85,-29.08 685.02,-19.83 675.21,-23.84 679.85,-29.08"/>
</g>
<!-- Node11 -->
<g id="node11" class="node">
<title>Node11</title>
<g id="a_node11"><a xlink:title=" ">
<polygon fill="white" stroke="#bfbfbf" points="606,-0.5 606,-19.5 656,-19.5 656,-0.5 606,-0.5"/>
<text text-anchor="middle" x="631" y="-7.5" font-family="Arial.ttf" font-size="10.00">fstream</text>
</a>
</g>
</g>
<!-- Node10&#45;&gt;Node11 -->
<g id="edge11" class="edge">
<title>Node10&#45;&gt;Node11</title>
<path fill="none" stroke="midnightblue" d="M633.5,-56.08C633.11,-49.01 632.55,-38.86 632.05,-29.99"/>
<polygon fill="midnightblue" stroke="midnightblue" points="635.54,-29.54 631.49,-19.75 628.55,-29.93 635.54,-29.54"/>
</g>
<!-- Node12&#45;&gt;Node6 -->
<g id="edge14" class="edge">
<title>Node12&#45;&gt;Node6</title>
<path fill="none" stroke="midnightblue" d="M746.2,-56.32C737.18,-48.34 723.59,-36.31 712.68,-26.65"/>
<polygon fill="midnightblue" stroke="midnightblue" points="714.79,-23.84 704.98,-19.83 710.15,-29.08 714.79,-23.84"/>
</g>
<!-- Node12&#45;&gt;Node9 -->
<g id="edge13" class="edge">
<title>Node12&#45;&gt;Node9</title>
<path fill="none" stroke="midnightblue" d="M772.55,-56.32C788.99,-47.7 814.43,-34.36 833.47,-24.39"/>
<polygon fill="midnightblue" stroke="midnightblue" points="835.26,-27.4 842.49,-19.65 832.01,-21.2 835.26,-27.4"/>
</g>
<!-- Node15 -->
<g id="node15" class="node">
<title>Node15</title>
<g id="a_node15"><a xlink:href="_c_v_typedefs_8h.html" target="_top" xlink:title=" ">
<polygon fill="white" stroke="black" points="1369.5,-560.5 1369.5,-579.5 1448.5,-579.5 1448.5,-560.5 1369.5,-560.5"/>
<text text-anchor="middle" x="1409" y="-567.5" font-family="Arial.ttf" font-size="10.00">CVTypedefs.h</text>
</a>
</g>
</g>
<!-- Node14&#45;&gt;Node15 -->
<g id="edge17" class="edge">
<title>Node14&#45;&gt;Node15</title>
<path fill="none" stroke="midnightblue" d="M1218.05,-617.03C1256.58,-607.74 1320.48,-592.34 1363.64,-581.94"/>
<polygon fill="midnightblue" stroke="midnightblue" points="1364.69,-585.28 1373.59,-579.54 1363.05,-578.48 1364.69,-585.28"/>
</g>
<!-- Node15&#45;&gt;Node7 -->
<g id="edge18" class="edge">
<title>Node15&#45;&gt;Node7</title>
<path fill="none" stroke="midnightblue" d="M1448.73,-569.7C1536.19,-570.42 1741.73,-567.32 1793,-524 1815.99,-504.58 1812,-489.1 1812,-459 1812,-459 1812,-459 1812,-177 1812,-96.72 1521.83,-73.92 1423.29,-68.49"/>
<polygon fill="midnightblue" stroke="midnightblue" points="1423.21,-64.98 1413.04,-67.95 1422.84,-71.98 1423.21,-64.98"/>
</g>
<!-- Node16 -->
<g id="node16" class="node">
<title>Node16</title>
<g id="a_node16"><a xlink:title=" ">
<polygon fill="white" stroke="#bfbfbf" points="1160,-504.5 1160,-523.5 1276,-523.5 1276,-504.5 1160,-504.5"/>
<text text-anchor="middle" x="1218" y="-511.5" font-family="Arial.ttf" font-size="10.00">opencv2/core/core.hpp</text>
</a>
</g>
</g>
<!-- Node15&#45;&gt;Node16 -->
<g id="edge19" class="edge">
<title>Node15&#45;&gt;Node16</title>
<path fill="none" stroke="midnightblue" d="M1378.74,-560.44C1346.04,-551.2 1293.82,-536.44 1257.82,-526.26"/>
<polygon fill="midnightblue" stroke="midnightblue" points="1258.7,-522.87 1248.12,-523.52 1256.79,-529.61 1258.7,-522.87"/>
</g>
<!-- Node17 -->
<g id="node17" class="node">
<title>Node17</title>
<g id="a_node17"><a xlink:title=" ">
<polygon fill="white" stroke="#bfbfbf" points="1294,-504.5 1294,-523.5 1404,-523.5 1404,-504.5 1294,-504.5"/>
<text text-anchor="middle" x="1349" y="-511.5" font-family="Arial.ttf" font-size="10.00">opencv2/core/ocl.hpp</text>
</a>
</g>
</g>
<!-- Node15&#45;&gt;Node17 -->
<g id="edge20" class="edge">
<title>Node15&#45;&gt;Node17</title>
<path fill="none" stroke="midnightblue" d="M1399.36,-560.32C1390.49,-552.34 1377.13,-540.31 1366.39,-530.65"/>
<polygon fill="midnightblue" stroke="midnightblue" points="1368.59,-527.92 1358.82,-523.83 1363.91,-533.13 1368.59,-527.92"/>
</g>
<!-- Node18 -->
<g id="node18" class="node">
<title>Node18</title>
<g id="a_node18"><a xlink:title=" ">
<polygon fill="white" stroke="#bfbfbf" points="1422,-504.5 1422,-523.5 1516,-523.5 1516,-504.5 1422,-504.5"/>
<text text-anchor="middle" x="1469" y="-511.5" font-family="Arial.ttf" font-size="10.00">opencv2/face.hpp</text>
</a>
</g>
</g>
<!-- Node15&#45;&gt;Node18 -->
<g id="edge21" class="edge">
<title>Node15&#45;&gt;Node18</title>
<path fill="none" stroke="midnightblue" d="M1418.64,-560.32C1427.51,-552.34 1440.87,-540.31 1451.61,-530.65"/>
<polygon fill="midnightblue" stroke="midnightblue" points="1454.09,-533.13 1459.18,-523.83 1449.41,-527.92 1454.09,-533.13"/>
</g>
<!-- Node19 -->
<g id="node19" class="node">
<title>Node19</title>
<g id="a_node19"><a xlink:title=" ">
<polygon fill="white" stroke="#bfbfbf" points="1534.5,-504.5 1534.5,-523.5 1639.5,-523.5 1639.5,-504.5 1534.5,-504.5"/>
<text text-anchor="middle" x="1587" y="-511.5" font-family="Arial.ttf" font-size="10.00">opencv2/opencv.hpp</text>
</a>
</g>
</g>
<!-- Node15&#45;&gt;Node19 -->
<g id="edge22" class="edge">
<title>Node15&#45;&gt;Node19</title>
<path fill="none" stroke="midnightblue" d="M1437.2,-560.44C1467.41,-551.28 1515.51,-536.69 1549.03,-526.52"/>
<polygon fill="midnightblue" stroke="midnightblue" points="1550.37,-529.77 1558.93,-523.52 1548.34,-523.07 1550.37,-529.77"/>
</g>
<!-- Node20 -->
<g id="node20" class="node">
<title>Node20</title>
<g id="a_node20"><a xlink:title=" ">
<polygon fill="white" stroke="#bfbfbf" points="1658,-504.5 1658,-523.5 1784,-523.5 1784,-504.5 1658,-504.5"/>
<text text-anchor="middle" x="1721" y="-511.5" font-family="Arial.ttf" font-size="10.00">opencv2/xfeatures2d.hpp</text>
</a>
</g>
</g>
<!-- Node15&#45;&gt;Node20 -->
<g id="edge23" class="edge">
<title>Node15&#45;&gt;Node20</title>
<path fill="none" stroke="midnightblue" d="M1448.52,-562.16C1502.34,-552.85 1599.13,-536.09 1661.69,-525.27"/>
<polygon fill="midnightblue" stroke="midnightblue" points="1662.55,-528.67 1671.8,-523.51 1661.35,-521.77 1662.55,-528.67"/>
</g>
<!-- Node21 -->
<g id="node21" class="node">
<title>Node21</title>
<g id="a_node21"><a xlink:title=" ">
<polygon fill="white" stroke="#bfbfbf" points="994.5,-504.5 994.5,-523.5 1141.5,-523.5 1141.5,-504.5 994.5,-504.5"/>
<text text-anchor="middle" x="1068" y="-511.5" font-family="Arial.ttf" font-size="10.00">opencv2/imgproc/imgproc.hpp</text>
</a>
</g>
</g>
<!-- Node15&#45;&gt;Node21 -->
<g id="edge24" class="edge">
<title>Node15&#45;&gt;Node21</title>
<path fill="none" stroke="midnightblue" d="M1369.22,-562.7C1310.86,-553.46 1201.44,-536.13 1131.78,-525.1"/>
<polygon fill="midnightblue" stroke="midnightblue" points="1132.23,-521.63 1121.8,-523.52 1131.13,-528.54 1132.23,-521.63"/>
</g>
<!-- Node23 -->
<g id="node23" class="node">
<title>Node23</title>
<g id="a_node23"><a xlink:href="_s_l_g_l_enums_8h.html" target="_top" xlink:title=" ">
<polygon fill="white" stroke="black" points="695,-504.5 695,-523.5 775,-523.5 775,-504.5 695,-504.5"/>
<text text-anchor="middle" x="735" y="-511.5" font-family="Arial.ttf" font-size="10.00">SLGLEnums.h</text>
</a>
</g>
</g>
<!-- Node22&#45;&gt;Node23 -->
<g id="edge26" class="edge">
<title>Node22&#45;&gt;Node23</title>
<path fill="none" stroke="midnightblue" d="M733.16,-616.37C733.48,-598.62 734.22,-557.67 734.66,-533.6"/>
<polygon fill="midnightblue" stroke="midnightblue" points="738.16,-533.65 734.84,-523.59 731.16,-533.53 738.16,-533.65"/>
</g>
<!-- Node35 -->
<g id="node35" class="node">
<title>Node35</title>
<g id="a_node35"><a xlink:href="_s_l_g_l_vertex_buffer_8h.html" target="_top" xlink:title=" ">
<polygon fill="white" stroke="black" points="798.5,-560.5 798.5,-579.5 901.5,-579.5 901.5,-560.5 798.5,-560.5"/>
<text text-anchor="middle" x="850" y="-567.5" font-family="Arial.ttf" font-size="10.00">SLGLVertexBuffer.h</text>
</a>
</g>
</g>
<!-- Node22&#45;&gt;Node35 -->
<g id="edge55" class="edge">
<title>Node22&#45;&gt;Node35</title>
<path fill="none" stroke="midnightblue" d="M751.54,-616.44C770.62,-607.64 800.57,-593.81 822.44,-583.72"/>
<polygon fill="midnightblue" stroke="midnightblue" points="823.93,-586.88 831.55,-579.52 821,-580.53 823.93,-586.88"/>
</g>
<!-- Node23&#45;&gt;Node4 -->
<g id="edge27" class="edge">
<title>Node23&#45;&gt;Node4</title>
<path fill="none" stroke="midnightblue" d="M694.72,-507.92C576.36,-492.1 233.65,-439.75 165,-356 123.54,-305.43 169.88,-249.73 230,-224 288.18,-199.09 479.7,-185.18 553.05,-180.66"/>
<polygon fill="midnightblue" stroke="midnightblue" points="553.61,-184.13 563.38,-180.03 553.19,-177.14 553.61,-184.13"/>
</g>
<!-- Node24 -->
<g id="node24" class="node">
<title>Node24</title>
<g id="a_node24"><a xlink:href="_s_l_g_l_state_8h.html" target="_top" xlink:title=" ">
<polygon fill="white" stroke="black" points="699.5,-448.5 699.5,-467.5 772.5,-467.5 772.5,-448.5 699.5,-448.5"/>
<text text-anchor="middle" x="736" y="-455.5" font-family="Arial.ttf" font-size="10.00">SLGLState.h</text>
</a>
</g>
</g>
<!-- Node23&#45;&gt;Node24 -->
<g id="edge28" class="edge">
<title>Node23&#45;&gt;Node24</title>
<path fill="none" stroke="midnightblue" d="M735.17,-504.08C735.3,-497.01 735.48,-486.86 735.65,-477.99"/>
<polygon fill="midnightblue" stroke="midnightblue" points="739.15,-477.81 735.84,-467.75 732.15,-477.68 739.15,-477.81"/>
</g>
<!-- Node24&#45;&gt;Node4 -->
<g id="edge29" class="edge">
<title>Node24&#45;&gt;Node4</title>
<path fill="none" stroke="midnightblue" d="M732.32,-448.33C723.7,-428.22 701.25,-377.03 679,-336 650.6,-283.62 612.27,-224.49 593.43,-196.06"/>
<polygon fill="midnightblue" stroke="midnightblue" points="596.28,-194.03 587.83,-187.65 590.46,-197.91 596.28,-194.03"/>
</g>
<!-- Node25 -->
<g id="node25" class="node">
<title>Node25</title>
<g id="a_node25"><a xlink:href="_s_l_vec3_8h.html" target="_top" xlink:title=" ">
<polygon fill="white" stroke="black" points="764.5,-280.5 764.5,-299.5 823.5,-299.5 823.5,-280.5 764.5,-280.5"/>
<text text-anchor="middle" x="794" y="-287.5" font-family="Arial.ttf" font-size="10.00">SLVec3.h</text>
</a>
</g>
</g>
<!-- Node24&#45;&gt;Node25 -->
<g id="edge30" class="edge">
<title>Node24&#45;&gt;Node25</title>
<path fill="none" stroke="midnightblue" d="M739.12,-448.08C748.29,-421.83 775.29,-344.55 787.67,-309.12"/>
<polygon fill="midnightblue" stroke="midnightblue" points="791.01,-310.16 791.01,-299.57 784.4,-307.85 791.01,-310.16"/>
</g>
<!-- Node27 -->
<g id="node27" class="node">
<title>Node27</title>
<g id="a_node27"><a xlink:href="_s_l_vec4_8h.html" target="_top" xlink:title=" ">
<polygon fill="white" stroke="black" points="878.5,-336.5 878.5,-355.5 937.5,-355.5 937.5,-336.5 878.5,-336.5"/>
<text text-anchor="middle" x="908" y="-343.5" font-family="Arial.ttf" font-size="10.00">SLVec4.h</text>
</a>
</g>
</g>
<!-- Node24&#45;&gt;Node27 -->
<g id="edge36" class="edge">
<title>Node24&#45;&gt;Node27</title>
<path fill="none" stroke="midnightblue" d="M749.5,-448.37C779.01,-429.49 849.54,-384.38 885.74,-361.24"/>
<polygon fill="midnightblue" stroke="midnightblue" points="888.03,-363.93 894.57,-355.59 884.26,-358.03 888.03,-363.93"/>
</g>
<!-- Node24&#45;&gt;Node28 -->
<g id="edge41" class="edge">
<title>Node24&#45;&gt;Node28</title>
<path fill="none" stroke="midnightblue" d="M722.02,-448.32C708.45,-439.9 687.62,-426.97 671.68,-417.07"/>
<polygon fill="midnightblue" stroke="midnightblue" points="673.29,-413.95 662.94,-411.65 669.59,-419.9 673.29,-413.95"/>
</g>
<!-- Node25&#45;&gt;Node4 -->
<g id="edge31" class="edge">
<title>Node25&#45;&gt;Node4</title>
<path fill="none" stroke="midnightblue" d="M777.36,-280.37C740.44,-261.21 651.45,-215.04 607.47,-192.22"/>
<polygon fill="midnightblue" stroke="midnightblue" points="609.05,-189.09 598.56,-187.59 605.82,-195.3 609.05,-189.09"/>
</g>
<!-- Node25&#45;&gt;Node5 -->
<g id="edge35" class="edge">
<title>Node25&#45;&gt;Node5</title>
<path fill="none" stroke="midnightblue" d="M794,-280.08C794,-253.95 794,-177.21 794,-141.58"/>
<polygon fill="midnightblue" stroke="midnightblue" points="797.5,-141.57 794,-131.57 790.5,-141.57 797.5,-141.57"/>
</g>
<!-- Node26 -->
<g id="node26" class="node">
<title>Node26</title>
<g id="a_node26"><a xlink:href="_s_l_vec2_8h.html" target="_top" xlink:title=" ">
<polygon fill="white" stroke="black" points="879.5,-224.5 879.5,-243.5 938.5,-243.5 938.5,-224.5 879.5,-224.5"/>
<text text-anchor="middle" x="909" y="-231.5" font-family="Arial.ttf" font-size="10.00">SLVec2.h</text>
</a>
</g>
</g>
<!-- Node25&#45;&gt;Node26 -->
<g id="edge32" class="edge">
<title>Node25&#45;&gt;Node26</title>
<path fill="none" stroke="midnightblue" d="M812.22,-280.44C830.9,-271.68 860.16,-257.94 881.62,-247.86"/>
<polygon fill="midnightblue" stroke="midnightblue" points="883.3,-250.93 890.86,-243.52 880.32,-244.6 883.3,-250.93"/>
</g>
<!-- Node26&#45;&gt;Node4 -->
<g id="edge33" class="edge">
<title>Node26&#45;&gt;Node4</title>
<path fill="none" stroke="midnightblue" d="M879.21,-226.72C874.47,-225.77 869.6,-224.84 865,-224 772.23,-207.15 661.72,-190.58 610.57,-183.12"/>
<polygon fill="midnightblue" stroke="midnightblue" points="610.99,-179.64 600.59,-181.67 609.98,-186.57 610.99,-179.64"/>
</g>
<!-- Node26&#45;&gt;Node5 -->
<g id="edge34" class="edge">
<title>Node26&#45;&gt;Node5</title>
<path fill="none" stroke="midnightblue" d="M899.98,-224.37C880.66,-205.89 835.08,-162.29 810.46,-138.74"/>
<polygon fill="midnightblue" stroke="midnightblue" points="812.63,-135.97 802.98,-131.59 807.79,-141.03 812.63,-135.97"/>
</g>
<!-- Node27&#45;&gt;Node4 -->
<g id="edge37" class="edge">
<title>Node27&#45;&gt;Node4</title>
<path fill="none" stroke="midnightblue" d="M899.92,-336.45C886.88,-323.02 859.9,-296.78 833,-280 758.37,-233.45 658.62,-200.96 610.43,-186.87"/>
<polygon fill="midnightblue" stroke="midnightblue" points="611.26,-183.47 600.69,-184.06 609.33,-190.19 611.26,-183.47"/>
</g>
<!-- Node27&#45;&gt;Node5 -->
<g id="edge40" class="edge">
<title>Node27&#45;&gt;Node5</title>
<path fill="none" stroke="midnightblue" d="M915.39,-336.39C931.95,-315.99 968.98,-263.46 948,-224 922.62,-176.26 863.57,-147.52 826.41,-133.51"/>
<polygon fill="midnightblue" stroke="midnightblue" points="827.15,-130.06 816.56,-129.95 824.77,-136.64 827.15,-130.06"/>
</g>
<!-- Node27&#45;&gt;Node25 -->
<g id="edge39" class="edge">
<title>Node27&#45;&gt;Node25</title>
<path fill="none" stroke="midnightblue" d="M889.94,-336.44C871.43,-327.68 842.42,-313.94 821.14,-303.86"/>
<polygon fill="midnightblue" stroke="midnightblue" points="822.51,-300.63 811.98,-299.52 819.52,-306.96 822.51,-300.63"/>
</g>
<!-- Node27&#45;&gt;Node26 -->
<g id="edge38" class="edge">
<title>Node27&#45;&gt;Node26</title>
<path fill="none" stroke="midnightblue" d="M908.08,-336.37C908.24,-318.62 908.61,-277.67 908.83,-253.6"/>
<polygon fill="midnightblue" stroke="midnightblue" points="912.33,-253.62 908.92,-243.59 905.33,-253.56 912.33,-253.62"/>
</g>
<!-- Node28&#45;&gt;Node4 -->
<g id="edge42" class="edge">
<title>Node28&#45;&gt;Node4</title>
<path fill="none" stroke="midnightblue" d="M619.17,-400.4C520.82,-398.12 211.44,-388.41 182,-356 69.95,-232.63 443.98,-190.7 553.03,-181.25"/>
<polygon fill="midnightblue" stroke="midnightblue" points="553.63,-184.71 563.3,-180.39 553.04,-177.74 553.63,-184.71"/>
</g>
<!-- Node28&#45;&gt;Node5 -->
<g id="edge44" class="edge">
<title>Node28&#45;&gt;Node5</title>
<path fill="none" stroke="midnightblue" d="M655.81,-392.46C669.28,-374.69 698,-331.98 698,-291 698,-291 698,-291 698,-233 698,-189.54 741.06,-154.96 769.5,-136.85"/>
<polygon fill="midnightblue" stroke="midnightblue" points="771.44,-139.77 778.15,-131.56 767.79,-133.79 771.44,-139.77"/>
</g>
<!-- Node28&#45;&gt;Node25 -->
<g id="edge50" class="edge">
<title>Node28&#45;&gt;Node25</title>
<path fill="none" stroke="midnightblue" d="M661.68,-392.22C674.5,-383.28 694.82,-368.93 712,-356 734.25,-339.25 759.25,-319.26 775.73,-305.91"/>
<polygon fill="midnightblue" stroke="midnightblue" points="777.96,-308.61 783.52,-299.59 773.55,-303.17 777.96,-308.61"/>
</g>
<!-- Node28&#45;&gt;Node27 -->
<g id="edge51" class="edge">
<title>Node28&#45;&gt;Node27</title>
<path fill="none" stroke="midnightblue" d="M678.71,-394.81C725.42,-385.07 816.09,-366.16 868.33,-355.27"/>
<polygon fill="midnightblue" stroke="midnightblue" points="869.16,-358.67 878.24,-353.21 867.73,-351.82 869.16,-358.67"/>
</g>
<!-- Node29 -->
<g id="node29" class="node">
<title>Node29</title>
<g id="a_node29"><a xlink:title=" ">
<polygon fill="white" stroke="#bfbfbf" points="628.5,-336.5 628.5,-355.5 669.5,-355.5 669.5,-336.5 628.5,-336.5"/>
<text text-anchor="middle" x="649" y="-343.5" font-family="Arial.ttf" font-size="10.00">stack</text>
</a>
</g>
</g>
<!-- Node28&#45;&gt;Node29 -->
<g id="edge43" class="edge">
<title>Node28&#45;&gt;Node29</title>
<path fill="none" stroke="midnightblue" d="M649,-392.08C649,-385.01 649,-374.86 649,-365.99"/>
<polygon fill="midnightblue" stroke="midnightblue" points="652.5,-365.75 649,-355.75 645.5,-365.75 652.5,-365.75"/>
</g>
<!-- Node30 -->
<g id="node30" class="node">
<title>Node30</title>
<g id="a_node30"><a xlink:href="_s_l_mat3_8h.html" target="_top" xlink:title=" ">
<polygon fill="white" stroke="black" points="551.5,-336.5 551.5,-355.5 610.5,-355.5 610.5,-336.5 551.5,-336.5"/>
<text text-anchor="middle" x="581" y="-343.5" font-family="Arial.ttf" font-size="10.00">SLMat3.h</text>
</a>
</g>
</g>
<!-- Node28&#45;&gt;Node30 -->
<g id="edge45" class="edge">
<title>Node28&#45;&gt;Node30</title>
<path fill="none" stroke="midnightblue" d="M638.07,-392.32C627.83,-384.18 612.28,-371.84 600,-362.09"/>
<polygon fill="midnightblue" stroke="midnightblue" points="602.13,-359.31 592.12,-355.83 597.78,-364.79 602.13,-359.31"/>
</g>
<!-- Node32 -->
<g id="node32" class="node">
<title>Node32</title>
<g id="a_node32"><a xlink:title=" ">
<polygon fill="white" stroke="#bfbfbf" points="191,-336.5 191,-355.5 243,-355.5 243,-336.5 191,-336.5"/>
<text text-anchor="middle" x="217" y="-343.5" font-family="Arial.ttf" font-size="10.00">assert.h</text>
</a>
</g>
</g>
<!-- Node28&#45;&gt;Node32 -->
<g id="edge52" class="edge">
<title>Node28&#45;&gt;Node32</title>
<path fill="none" stroke="midnightblue" d="M619.41,-399.06C554.72,-394.51 395.77,-381.7 253.5,-356.05"/>
<polygon fill="midnightblue" stroke="midnightblue" points="253.75,-352.53 243.29,-354.18 252.49,-359.42 253.75,-352.53"/>
</g>
<!-- Node33 -->
<g id="node33" class="node">
<title>Node33</title>
<g id="a_node33"><a xlink:title=" ">
<polygon fill="white" stroke="#bfbfbf" points="261.5,-336.5 261.5,-355.5 388.5,-355.5 388.5,-336.5 261.5,-336.5"/>
<text text-anchor="middle" x="325" y="-343.5" font-family="Arial.ttf" font-size="10.00">Shoemake/Decompose.h</text>
</a>
</g>
</g>
<!-- Node28&#45;&gt;Node33 -->
<g id="edge53" class="edge">
<title>Node28&#45;&gt;Node33</title>
<path fill="none" stroke="midnightblue" d="M619.39,-396.06C566.68,-387.28 455.59,-368.77 385.96,-357.16"/>
<polygon fill="midnightblue" stroke="midnightblue" points="386.44,-353.69 376,-355.5 385.29,-360.6 386.44,-353.69"/>
</g>
<!-- Node34 -->
<g id="node34" class="node">
<title>Node34</title>
<g id="a_node34"><a xlink:title=" ">
<polygon fill="white" stroke="#bfbfbf" points="406.5,-336.5 406.5,-355.5 533.5,-355.5 533.5,-336.5 406.5,-336.5"/>
<text text-anchor="middle" x="470" y="-343.5" font-family="Arial.ttf" font-size="10.00">Shoemake/EulerAngles.h</text>
</a>
</g>
</g>
<!-- Node28&#45;&gt;Node34 -->
<g id="edge54" class="edge">
<title>Node28&#45;&gt;Node34</title>
<path fill="none" stroke="midnightblue" d="M620.64,-392.44C590.26,-383.28 541.89,-368.69 508.18,-358.52"/>
<polygon fill="midnightblue" stroke="midnightblue" points="508.82,-355.05 498.23,-355.52 506.79,-361.76 508.82,-355.05"/>
</g>
<!-- Node30&#45;&gt;Node4 -->
<g id="edge46" class="edge">
<title>Node30&#45;&gt;Node4</title>
<path fill="none" stroke="midnightblue" d="M577.91,-336.17C574.95,-327.2 570.68,-312.83 569,-300 564.24,-263.65 571.9,-220.99 577.34,-197.27"/>
<polygon fill="midnightblue" stroke="midnightblue" points="580.75,-198.07 579.69,-187.52 573.94,-196.42 580.75,-198.07"/>
</g>
<!-- Node30&#45;&gt;Node5 -->
<g id="edge47" class="edge">
<title>Node30&#45;&gt;Node5</title>
<path fill="none" stroke="midnightblue" d="M597.5,-336.41C610.99,-328.6 629.63,-315.88 641,-300 676.91,-249.82 642,-213.2 684,-168 704.4,-146.04 737.06,-134.52 761.51,-128.65"/>
<polygon fill="midnightblue" stroke="midnightblue" points="762.4,-132.04 771.42,-126.47 760.9,-125.2 762.4,-132.04"/>
</g>
<!-- Node30&#45;&gt;Node25 -->
<g id="edge48" class="edge">
<title>Node30&#45;&gt;Node25</title>
<path fill="none" stroke="midnightblue" d="M610.62,-337.49C648.11,-327.99 712.81,-311.58 754.48,-301.02"/>
<polygon fill="midnightblue" stroke="midnightblue" points="755.46,-304.38 764.29,-298.53 753.74,-297.6 755.46,-304.38"/>
</g>
<!-- Node31 -->
<g id="node31" class="node">
<title>Node31</title>
<g id="a_node31"><a xlink:title=" ">
<polygon fill="white" stroke="#bfbfbf" points="578,-280.5 578,-299.5 632,-299.5 632,-280.5 578,-280.5"/>
<text text-anchor="middle" x="605" y="-287.5" font-family="Arial.ttf" font-size="10.00">iostream</text>
</a>
</g>
</g>
<!-- Node30&#45;&gt;Node31 -->
<g id="edge49" class="edge">
<title>Node30&#45;&gt;Node31</title>
<path fill="none" stroke="midnightblue" d="M584.96,-336.08C588.21,-328.77 592.92,-318.18 596.95,-309.1"/>
<polygon fill="midnightblue" stroke="midnightblue" points="600.25,-310.31 601.11,-299.75 593.85,-307.47 600.25,-310.31"/>
</g>
<!-- Node35&#45;&gt;Node23 -->
<g id="edge56" class="edge">
<title>Node35&#45;&gt;Node23</title>
<path fill="none" stroke="midnightblue" d="M831.78,-560.44C813.1,-551.68 783.84,-537.94 762.38,-527.86"/>
<polygon fill="midnightblue" stroke="midnightblue" points="763.68,-524.6 753.14,-523.52 760.7,-530.93 763.68,-524.6"/>
</g>
<!-- Node35&#45;&gt;Node25 -->
<g id="edge58" class="edge">
<title>Node35&#45;&gt;Node25</title>
<path fill="none" stroke="midnightblue" d="M850,-560.44C850,-541.94 850,-496.81 850,-459 850,-459 850,-459 850,-401 850,-364.44 825.12,-327.75 808.53,-307.34"/>
<polygon fill="midnightblue" stroke="midnightblue" points="811.15,-305.02 802.02,-299.64 805.8,-309.54 811.15,-305.02"/>
</g>
<!-- Node35&#45;&gt;Node26 -->
<g id="edge57" class="edge">
<title>Node35&#45;&gt;Node26</title>
<path fill="none" stroke="midnightblue" d="M871.28,-560.4C904.76,-545.3 966,-510.62 966,-459 966,-459 966,-459 966,-345 966,-308.3 940.68,-271.66 923.79,-251.3"/>
<polygon fill="midnightblue" stroke="midnightblue" points="926.35,-248.9 917.17,-243.62 921.05,-253.48 926.35,-248.9"/>
</g>
<!-- Node35&#45;&gt;Node27 -->
<g id="edge59" class="edge">
<title>Node35&#45;&gt;Node27</title>
<path fill="none" stroke="midnightblue" d="M852.83,-560.42C855.77,-551.39 860.43,-536.77 864,-524 880.09,-466.44 896.37,-397.54 903.82,-365.31"/>
<polygon fill="midnightblue" stroke="midnightblue" points="907.24,-366.05 906.07,-355.52 900.42,-364.48 907.24,-366.05"/>
</g>
<!-- Node38&#45;&gt;Node4 -->
<g id="edge64" class="edge">
<title>Node38&#45;&gt;Node4</title>
<path fill="none" stroke="midnightblue" d="M31.22,-448.45C29.59,-429.96 26,-384.87 26,-347 26,-347 26,-347 26,-289 26,-247.51 55.31,-241.33 93,-224 175.81,-185.92 461.39,-180.06 553.28,-179.16"/>
<polygon fill="midnightblue" stroke="midnightblue" points="553.53,-182.66 563.5,-179.07 553.47,-175.66 553.53,-182.66"/>
</g>
</g>
</svg>
