<?xml version="1.0" encoding="UTF-8" standalone="no"?>
<!DOCTYPE svg PUBLIC "-//W3C//DTD SVG 1.1//EN"
 "http://www.w3.org/Graphics/SVG/1.1/DTD/svg11.dtd">
<!-- Generated by graphviz version 2.40.1 (20161225.0304)
 -->
<!-- Title: SLLightDirect.h Pages: 1 -->
<svg width="381pt" height="140pt"
 viewBox="0.00 0.00 381.00 140.00" xmlns="http://www.w3.org/2000/svg" xmlns:xlink="http://www.w3.org/1999/xlink">
<g id="graph0" class="graph" transform="scale(1 1) rotate(0) translate(4 136)">
<title>SLLightDirect.h</title>
<polygon fill="#ffffff" stroke="transparent" points="-4,4 -4,-136 377,-136 377,4 -4,4"/>
<!-- Node1 -->
<g id="node1" class="node">
<title>Node1</title>
<g id="a_node1"><a xlink:title=" ">
<polygon fill="#bfbfbf" stroke="#000000" points="192.5,-112.5 192.5,-131.5 277.5,-131.5 277.5,-112.5 192.5,-112.5"/>
<text text-anchor="middle" x="235" y="-119.5" font-family="Arial.ttf" font-size="10.00" fill="#000000">SLLightDirect.h</text>
</a>
</g>
</g>
<!-- Node2 -->
<g id="node2" class="node">
<title>Node2</title>
<g id="a_node2"><a xlink:href="_s_l_device_location_8h.html" target="_top" xlink:title=" ">
<polygon fill="#ffffff" stroke="#000000" points="64.5,-56.5 64.5,-75.5 169.5,-75.5 169.5,-56.5 64.5,-56.5"/>
<text text-anchor="middle" x="117" y="-63.5" font-family="Arial.ttf" font-size="10.00" fill="#000000">SLDeviceLocation.h</text>
</a>
</g>
</g>
<!-- Node1&#45;&gt;Node2 -->
<g id="edge1" class="edge">
<title>Node1&#45;&gt;Node2</title>
<path fill="none" stroke="#191970" d="M205.4453,-107.9741C184.0805,-97.8348 155.7884,-84.408 137.0202,-75.5011"/>
<polygon fill="#191970" stroke="#191970" points="204.1802,-111.2478 214.7151,-112.3733 207.1814,-104.9238 204.1802,-111.2478"/>
</g>
<!-- Node5 -->
<g id="node5" class="node">
<title>Node5</title>
<g id="a_node5"><a xlink:href="_s_l_light_direct_8cpp.html" target="_top" xlink:title=" ">
<polygon fill="#ffffff" stroke="#000000" points="187.5,-56.5 187.5,-75.5 282.5,-75.5 282.5,-56.5 187.5,-56.5"/>
<text text-anchor="middle" x="235" y="-63.5" font-family="Arial.ttf" font-size="10.00" fill="#000000">SLLightDirect.cpp</text>
</a>
</g>
</g>
<!-- Node1&#45;&gt;Node5 -->
<g id="edge4" class="edge">
<title>Node1&#45;&gt;Node5</title>
<path fill="none" stroke="#191970" d="M235,-102.1575C235,-93.155 235,-82.9199 235,-75.6427"/>
<polygon fill="#191970" stroke="#191970" points="231.5001,-102.2455 235,-112.2455 238.5001,-102.2456 231.5001,-102.2455"/>
</g>
<!-- Node6 -->
<g id="node6" class="node">
<title>Node6</title>
<g id="a_node6"><a xlink:href="_s_l_node_8cpp.html" target="_top" xlink:title=" ">
<polygon fill="#ffffff" stroke="#000000" points="301,-56.5 301,-75.5 373,-75.5 373,-56.5 301,-56.5"/>
<text text-anchor="middle" x="337" y="-63.5" font-family="Arial.ttf" font-size="10.00" fill="#000000">SLNode.cpp</text>
</a>
</g>
</g>
<!-- Node1&#45;&gt;Node6 -->
<g id="edge5" class="edge">
<title>Node1&#45;&gt;Node6</title>
<path fill="none" stroke="#191970" d="M261.734,-107.3225C279.9532,-97.3198 303.5598,-84.3593 319.4366,-75.6427"/>
<polygon fill="#191970" stroke="#191970" points="259.8484,-104.3649 252.767,-112.2455 263.2173,-110.5009 259.8484,-104.3649"/>
</g>
<!-- Node3 -->
<g id="node3" class="node">
<title>Node3</title>
<g id="a_node3"><a xlink:href="_s_l_device_location_8cpp.html" target="_top" xlink:title=" ">
<polygon fill="#ffffff" stroke="#000000" points="0,-.5 0,-19.5 116,-19.5 116,-.5 0,-.5"/>
<text text-anchor="middle" x="58" y="-7.5" font-family="Arial.ttf" font-size="10.00" fill="#000000">SLDeviceLocation.cpp</text>
</a>
</g>
</g>
<!-- Node2&#45;&gt;Node3 -->
<g id="edge2" class="edge">
<title>Node2&#45;&gt;Node3</title>
<path fill="none" stroke="#191970" d="M99.4693,-49.3607C89.2623,-39.6727 76.7531,-27.7995 68.1592,-19.6427"/>
<polygon fill="#191970" stroke="#191970" points="97.0604,-51.8998 106.723,-56.2455 101.8794,-46.8227 97.0604,-51.8998"/>
</g>
<!-- Node4 -->
<g id="node4" class="node">
<title>Node4</title>
<g id="a_node4"><a xlink:href="_s_l_camera_8cpp.html" target="_top" xlink:title=" ">
<polygon fill="#ffffff" stroke="#000000" points="134.5,-.5 134.5,-19.5 217.5,-19.5 217.5,-.5 134.5,-.5"/>
<text text-anchor="middle" x="176" y="-7.5" font-family="Arial.ttf" font-size="10.00" fill="#000000">SLCamera.cpp</text>
</a>
</g>
</g>
<!-- Node2&#45;&gt;Node4 -->
<g id="edge3" class="edge">
<title>Node2&#45;&gt;Node4</title>
<path fill="none" stroke="#191970" d="M134.5307,-49.3607C144.7377,-39.6727 157.2469,-27.7995 165.8408,-19.6427"/>
<polygon fill="#191970" stroke="#191970" points="132.1206,-46.8227 127.277,-56.2455 136.9396,-51.8998 132.1206,-46.8227"/>
</g>
</g>
</svg>
