<?xml version="1.0" encoding="UTF-8" standalone="no"?>
<!DOCTYPE svg PUBLIC "-//W3C//DTD SVG 1.1//EN"
 "http://www.w3.org/Graphics/SVG/1.1/DTD/svg11.dtd">
<!-- Generated by graphviz version 2.50.0 (20211204.2007)
 -->
<!-- Title: SLAnimManager.h Pages: 1 -->
<svg width="2797pt" height="309pt"
 viewBox="0.00 0.00 2797.28 308.71" xmlns="http://www.w3.org/2000/svg" xmlns:xlink="http://www.w3.org/1999/xlink">
<g id="graph0" class="graph" transform="scale(1 1) rotate(0) translate(4 304.71)">
<title>SLAnimManager.h</title>
<polygon fill="white" stroke="transparent" points="-4,4 -4,-304.71 2793.28,-304.71 2793.28,4 -4,4"/>
<!-- Node1 -->
<g id="node1" class="node">
<title>Node1</title>
<g id="a_node1"><a xlink:title=" ">
<polygon fill="#bfbfbf" stroke="black" points="1868.18,-280.5 1868.18,-299.5 1965.18,-299.5 1965.18,-280.5 1868.18,-280.5"/>
<text text-anchor="middle" x="1916.68" y="-287.5" font-family="Arial" font-size="10.00">SLAnimManager.h</text>
</a>
</g>
</g>
<!-- Node1&#45;&gt;Node1 -->
<g id="edge1" class="edge">
<title>Node1&#45;&gt;Node1</title>
<path fill="none" stroke="midnightblue" d="M1955.29,-300.45C1970.49,-300.97 1983.18,-297.49 1983.18,-290 1983.18,-280.87 1964.32,-277.69 1945.04,-280.47"/>
<polygon fill="midnightblue" stroke="midnightblue" points="1955.32,-296.94 1945.04,-299.53 1954.69,-303.91 1955.32,-296.94"/>
</g>
<!-- Node2 -->
<g id="node2" class="node">
<title>Node2</title>
<g id="a_node2"><a xlink:href="_s_l_scene_8h.html" target="_top" xlink:title=" ">
<polygon fill="white" stroke="black" points="1025.18,-224.5 1025.18,-243.5 1090.18,-243.5 1090.18,-224.5 1025.18,-224.5"/>
<text text-anchor="middle" x="1057.68" y="-231.5" font-family="Arial" font-size="10.00">SLScene.h</text>
</a>
</g>
</g>
<!-- Node1&#45;&gt;Node2 -->
<g id="edge2" class="edge">
<title>Node1&#45;&gt;Node2</title>
<path fill="none" stroke="midnightblue" d="M1857.97,-285.31C1691.22,-274.83 1218.53,-245.11 1090.18,-237.04"/>
<polygon fill="midnightblue" stroke="midnightblue" points="1857.84,-288.81 1868.04,-285.94 1858.28,-281.82 1857.84,-288.81"/>
</g>
<!-- Node40 -->
<g id="node40" class="node">
<title>Node40</title>
<g id="a_node40"><a xlink:href="_s_l_scene_view_8cpp.html" target="_top" xlink:title=" ">
<polygon fill="white" stroke="black" points="2658.68,-112.5 2658.68,-131.5 2754.68,-131.5 2754.68,-112.5 2658.68,-112.5"/>
<text text-anchor="middle" x="2706.68" y="-119.5" font-family="Arial" font-size="10.00">SLSceneView.cpp</text>
</a>
</g>
</g>
<!-- Node1&#45;&gt;Node40 -->
<g id="edge62" class="edge">
<title>Node1&#45;&gt;Node40</title>
<path fill="none" stroke="midnightblue" d="M1975.35,-286.43C2158.6,-277.79 2711.27,-247.03 2763.68,-188 2781.52,-167.91 2746.54,-144.14 2723.89,-131.65"/>
<polygon fill="midnightblue" stroke="midnightblue" points="1975.18,-282.93 1965.36,-286.89 1975.51,-289.92 1975.18,-282.93"/>
</g>
<!-- Node3 -->
<g id="node3" class="node">
<title>Node3</title>
<g id="a_node3"><a xlink:href="_app_demo_gui_8cpp.html" target="_top" xlink:title=" ">
<polygon fill="white" stroke="black" points="2583.68,-0.5 2583.68,-19.5 2677.68,-19.5 2677.68,-0.5 2583.68,-0.5"/>
<text text-anchor="middle" x="2630.68" y="-7.5" font-family="Arial" font-size="10.00">AppDemoGui.cpp</text>
</a>
</g>
</g>
<!-- Node2&#45;&gt;Node3 -->
<g id="edge3" class="edge">
<title>Node2&#45;&gt;Node3</title>
<path fill="none" stroke="midnightblue" d="M1100.5,-232.57C1361.63,-229.83 2729.8,-214.27 2763.68,-188 2790.96,-166.85 2795.85,-142.5 2779.68,-112 2753.48,-62.58 2691.07,-32.89 2655.9,-19.5"/>
<polygon fill="midnightblue" stroke="midnightblue" points="1100.25,-229.07 1090.28,-232.67 1100.32,-236.07 1100.25,-229.07"/>
</g>
<!-- Node4 -->
<g id="node4" class="node">
<title>Node4</title>
<g id="a_node4"><a xlink:href="_app_demo_load_8cpp.html" target="_top" xlink:title=" ">
<polygon fill="white" stroke="black" points="654.68,-0.5 654.68,-19.5 754.68,-19.5 754.68,-0.5 654.68,-0.5"/>
<text text-anchor="middle" x="704.68" y="-7.5" font-family="Arial" font-size="10.00">AppDemoLoad.cpp</text>
</a>
</g>
</g>
<!-- Node2&#45;&gt;Node4 -->
<g id="edge4" class="edge">
<title>Node2&#45;&gt;Node4</title>
<path fill="none" stroke="midnightblue" d="M1014.99,-232.79C822.83,-231.67 45.96,-224.83 10.68,-188 -1.88,-174.89 -7.32,-137.55 17.68,-112 106.16,-21.59 511.31,-11.54 654.43,-10.85"/>
<polygon fill="midnightblue" stroke="midnightblue" points="1014.97,-236.29 1024.99,-232.85 1015.01,-229.29 1014.97,-236.29"/>
</g>
<!-- Node5 -->
<g id="node5" class="node">
<title>Node5</title>
<g id="a_node5"><a xlink:href="_app_demo_main_g_l_f_w_8cpp.html" target="_top" xlink:title=" ">
<polygon fill="white" stroke="black" points="1701.68,-0.5 1701.68,-19.5 1829.68,-19.5 1829.68,-0.5 1701.68,-0.5"/>
<text text-anchor="middle" x="1765.68" y="-7.5" font-family="Arial" font-size="10.00">AppDemoMainGLFW.cpp</text>
</a>
</g>
</g>
<!-- Node2&#45;&gt;Node5 -->
<g id="edge5" class="edge">
<title>Node2&#45;&gt;Node5</title>
<path fill="none" stroke="midnightblue" d="M1100.45,-232.85C1328.81,-231.9 2399.29,-225.48 2541.68,-188 2560.14,-183.14 2561.68,-174.34 2579.68,-168 2658.27,-140.3 2710.72,-196.33 2763.68,-132 2769.33,-125.14 2769.64,-118.59 2763.68,-112 2700.95,-42.6 2040.42,-18.55 1829.82,-12.61"/>
<polygon fill="midnightblue" stroke="midnightblue" points="1100.21,-229.35 1090.22,-232.89 1100.24,-236.35 1100.21,-229.35"/>
</g>
<!-- Node6 -->
<g id="node6" class="node">
<title>Node6</title>
<g id="a_node6"><a xlink:href="_app_demo_video_8cpp.html" target="_top" xlink:title=" ">
<polygon fill="white" stroke="black" points="1974.68,-56.5 1974.68,-75.5 2078.68,-75.5 2078.68,-56.5 1974.68,-56.5"/>
<text text-anchor="middle" x="2026.68" y="-63.5" font-family="Arial" font-size="10.00">AppDemoVideo.cpp</text>
</a>
</g>
</g>
<!-- Node2&#45;&gt;Node6 -->
<g id="edge6" class="edge">
<title>Node2&#45;&gt;Node6</title>
<path fill="none" stroke="midnightblue" d="M1100.34,-231.78C1341.17,-224.72 2521.91,-187.34 2573.68,-132 2579.75,-125.51 2579.7,-118.54 2573.68,-112 2540.56,-76.04 2208.93,-68.81 2078.74,-67.36"/>
<polygon fill="midnightblue" stroke="midnightblue" points="1100.12,-228.29 1090.23,-232.08 1100.32,-235.29 1100.12,-228.29"/>
</g>
<!-- Node7 -->
<g id="node7" class="node">
<title>Node7</title>
<g id="a_node7"><a xlink:href="_s_l_a_a_b_box_8cpp.html" target="_top" xlink:title=" ">
<polygon fill="white" stroke="black" points="198.18,-168.5 198.18,-187.5 283.18,-187.5 283.18,-168.5 198.18,-168.5"/>
<text text-anchor="middle" x="240.68" y="-175.5" font-family="Arial" font-size="10.00">SLAABBox.cpp</text>
</a>
</g>
</g>
<!-- Node2&#45;&gt;Node7 -->
<g id="edge7" class="edge">
<title>Node2&#45;&gt;Node7</title>
<path fill="none" stroke="midnightblue" d="M1014.87,-232.17C898.48,-229.55 566.63,-219.66 292.68,-188 289.59,-187.64 286.4,-187.22 283.19,-186.76"/>
<polygon fill="midnightblue" stroke="midnightblue" points="1015.06,-235.68 1025.13,-232.4 1015.21,-228.68 1015.06,-235.68"/>
</g>
<!-- Node8 -->
<g id="node8" class="node">
<title>Node8</title>
<g id="a_node8"><a xlink:href="_s_l_anim_manager_8cpp.html" target="_top" xlink:title=" ">
<polygon fill="white" stroke="black" points="301.18,-168.5 301.18,-187.5 408.18,-187.5 408.18,-168.5 301.18,-168.5"/>
<text text-anchor="middle" x="354.68" y="-175.5" font-family="Arial" font-size="10.00">SLAnimManager.cpp</text>
</a>
</g>
</g>
<!-- Node2&#45;&gt;Node8 -->
<g id="edge8" class="edge">
<title>Node2&#45;&gt;Node8</title>
<path fill="none" stroke="midnightblue" d="M1014.64,-230.86C912.01,-225.54 644.9,-210.56 422.68,-188 418.06,-187.53 413.27,-187 408.47,-186.43"/>
<polygon fill="midnightblue" stroke="midnightblue" points="1014.74,-234.37 1024.91,-231.38 1015.1,-227.37 1014.74,-234.37"/>
</g>
<!-- Node9 -->
<g id="node9" class="node">
<title>Node9</title>
<g id="a_node9"><a xlink:href="_s_l_anim_skeleton_8cpp.html" target="_top" xlink:title=" ">
<polygon fill="white" stroke="black" points="136.68,-112.5 136.68,-131.5 244.68,-131.5 244.68,-112.5 136.68,-112.5"/>
<text text-anchor="middle" x="190.68" y="-119.5" font-family="Arial" font-size="10.00">SLAnimSkeleton.cpp</text>
</a>
</g>
</g>
<!-- Node2&#45;&gt;Node9 -->
<g id="edge9" class="edge">
<title>Node2&#45;&gt;Node9</title>
<path fill="none" stroke="midnightblue" d="M1015.05,-232.4C844.4,-229.8 218.38,-218.23 189.68,-188 175.23,-172.78 182.3,-145.36 187.26,-131.51"/>
<polygon fill="midnightblue" stroke="midnightblue" points="1015.11,-235.9 1025.16,-232.55 1015.21,-228.9 1015.11,-235.9"/>
</g>
<!-- Node10 -->
<g id="node10" class="node">
<title>Node10</title>
<g id="a_node10"><a xlink:href="_s_l_animation_8cpp.html" target="_top" xlink:title=" ">
<polygon fill="white" stroke="black" points="465.18,-168.5 465.18,-187.5 556.18,-187.5 556.18,-168.5 465.18,-168.5"/>
<text text-anchor="middle" x="510.68" y="-175.5" font-family="Arial" font-size="10.00">SLAnimation.cpp</text>
</a>
</g>
</g>
<!-- Node2&#45;&gt;Node10 -->
<g id="edge10" class="edge">
<title>Node2&#45;&gt;Node10</title>
<path fill="none" stroke="midnightblue" d="M1014.97,-230.12C929.47,-224.13 731.29,-209.1 565.68,-188 562.61,-187.61 559.45,-187.17 556.26,-186.71"/>
<polygon fill="midnightblue" stroke="midnightblue" points="1014.85,-233.62 1025.07,-230.82 1015.33,-226.64 1014.85,-233.62"/>
</g>
<!-- Node11 -->
<g id="node11" class="node">
<title>Node11</title>
<g id="a_node11"><a xlink:href="_s_l_background_8cpp.html" target="_top" xlink:title=" ">
<polygon fill="white" stroke="black" points="574.18,-168.5 574.18,-187.5 673.18,-187.5 673.18,-168.5 574.18,-168.5"/>
<text text-anchor="middle" x="623.68" y="-175.5" font-family="Arial" font-size="10.00">SLBackground.cpp</text>
</a>
</g>
</g>
<!-- Node2&#45;&gt;Node11 -->
<g id="edge11" class="edge">
<title>Node2&#45;&gt;Node11</title>
<path fill="none" stroke="midnightblue" d="M1014.89,-228.31C945.19,-220.58 802.88,-204.38 682.68,-188 679.6,-187.58 676.43,-187.14 673.24,-186.68"/>
<polygon fill="midnightblue" stroke="midnightblue" points="1014.71,-231.82 1025.03,-229.44 1015.48,-224.86 1014.71,-231.82"/>
</g>
<!-- Node12 -->
<g id="node12" class="node">
<title>Node12</title>
<g id="a_node12"><a xlink:href="_s_l_curve_bezier_8cpp.html" target="_top" xlink:title=" ">
<polygon fill="white" stroke="black" points="691.18,-168.5 691.18,-187.5 792.18,-187.5 792.18,-168.5 691.18,-168.5"/>
<text text-anchor="middle" x="741.68" y="-175.5" font-family="Arial" font-size="10.00">SLCurveBezier.cpp</text>
</a>
</g>
</g>
<!-- Node2&#45;&gt;Node12 -->
<g id="edge12" class="edge">
<title>Node2&#45;&gt;Node12</title>
<path fill="none" stroke="midnightblue" d="M1015.12,-225.73C957.1,-215.81 853.36,-198.09 791.7,-187.55"/>
<polygon fill="midnightblue" stroke="midnightblue" points="1014.61,-229.19 1025.05,-227.42 1015.79,-222.29 1014.61,-229.19"/>
</g>
<!-- Node13 -->
<g id="node13" class="node">
<title>Node13</title>
<g id="a_node13"><a xlink:href="_s_l_g_l_im_gui_8cpp.html" target="_top" xlink:title=" ">
<polygon fill="white" stroke="black" points="262.68,-112.5 262.68,-131.5 348.68,-131.5 348.68,-112.5 262.68,-112.5"/>
<text text-anchor="middle" x="305.68" y="-119.5" font-family="Arial" font-size="10.00">SLGLImGui.cpp</text>
</a>
</g>
</g>
<!-- Node2&#45;&gt;Node13 -->
<g id="edge13" class="edge">
<title>Node2&#45;&gt;Node13</title>
<path fill="none" stroke="midnightblue" d="M1014.89,-232C895.73,-228.86 561.91,-217.61 456.68,-188 437.93,-182.72 435.4,-176.08 417.68,-168 387.37,-154.17 351.5,-140.16 328.68,-131.53"/>
<polygon fill="midnightblue" stroke="midnightblue" points="1015,-235.5 1025.09,-232.26 1015.18,-228.5 1015,-235.5"/>
</g>
<!-- Node14 -->
<g id="node14" class="node">
<title>Node14</title>
<g id="a_node14"><a xlink:href="_s_l_g_l_o_v_r_workaround_8h.html" target="_top" xlink:title=" ">
<polygon fill="white" stroke="black" points="19.68,-168.5 19.68,-187.5 141.68,-187.5 141.68,-168.5 19.68,-168.5"/>
<text text-anchor="middle" x="80.68" y="-175.5" font-family="Arial" font-size="10.00">SLGLOVRWorkaround.h</text>
</a>
</g>
</g>
<!-- Node2&#45;&gt;Node14 -->
<g id="edge14" class="edge">
<title>Node2&#45;&gt;Node14</title>
<path fill="none" stroke="midnightblue" d="M1014.55,-231.91C884.59,-228.41 485.43,-215.98 155.68,-188 151.24,-187.62 146.65,-187.19 142.04,-186.72"/>
<polygon fill="midnightblue" stroke="midnightblue" points="1014.77,-235.42 1024.86,-232.19 1014.96,-228.42 1014.77,-235.42"/>
</g>
<!-- Node16 -->
<g id="node16" class="node">
<title>Node16</title>
<g id="a_node16"><a xlink:href="_s_l_g_l_oculus_f_b_8cpp.html" target="_top" xlink:title=" ">
<polygon fill="white" stroke="black" points="886.68,-168.5 886.68,-187.5 990.68,-187.5 990.68,-168.5 886.68,-168.5"/>
<text text-anchor="middle" x="938.68" y="-175.5" font-family="Arial" font-size="10.00">SLGLOculusFB.cpp</text>
</a>
</g>
</g>
<!-- Node2&#45;&gt;Node16 -->
<g id="edge16" class="edge">
<title>Node2&#45;&gt;Node16</title>
<path fill="none" stroke="midnightblue" d="M1029.55,-220.23C1007.29,-210.13 976.83,-196.31 957.45,-187.52"/>
<polygon fill="midnightblue" stroke="midnightblue" points="1028.27,-223.5 1038.83,-224.44 1031.17,-217.12 1028.27,-223.5"/>
</g>
<!-- Node17 -->
<g id="node17" class="node">
<title>Node17</title>
<g id="a_node17"><a xlink:href="_s_l_g_l_program_8cpp.html" target="_top" xlink:title=" ">
<polygon fill="white" stroke="black" points="1009.18,-168.5 1009.18,-187.5 1106.18,-187.5 1106.18,-168.5 1009.18,-168.5"/>
<text text-anchor="middle" x="1057.68" y="-175.5" font-family="Arial" font-size="10.00">SLGLProgram.cpp</text>
</a>
</g>
</g>
<!-- Node2&#45;&gt;Node17 -->
<g id="edge17" class="edge">
<title>Node2&#45;&gt;Node17</title>
<path fill="none" stroke="midnightblue" d="M1057.68,-213.8C1057.68,-204.91 1057.68,-194.78 1057.68,-187.75"/>
<polygon fill="midnightblue" stroke="midnightblue" points="1054.18,-214.08 1057.68,-224.08 1061.18,-214.08 1054.18,-214.08"/>
</g>
<!-- Node18 -->
<g id="node18" class="node">
<title>Node18</title>
<g id="a_node18"><a xlink:href="_s_l_g_l_texture_8cpp.html" target="_top" xlink:title=" ">
<polygon fill="white" stroke="black" points="1124.68,-168.5 1124.68,-187.5 1216.68,-187.5 1216.68,-168.5 1124.68,-168.5"/>
<text text-anchor="middle" x="1170.68" y="-175.5" font-family="Arial" font-size="10.00">SLGLTexture.cpp</text>
</a>
</g>
</g>
<!-- Node2&#45;&gt;Node18 -->
<g id="edge18" class="edge">
<title>Node2&#45;&gt;Node18</title>
<path fill="none" stroke="midnightblue" d="M1084.68,-220.1C1105.8,-210.01 1134.54,-196.27 1152.86,-187.52"/>
<polygon fill="midnightblue" stroke="midnightblue" points="1083.1,-216.97 1075.59,-224.44 1086.12,-223.29 1083.1,-216.97"/>
</g>
<!-- Node19 -->
<g id="node19" class="node">
<title>Node19</title>
<g id="a_node19"><a xlink:href="_s_l_g_l_texture_i_b_l_8cpp.html" target="_top" xlink:title=" ">
<polygon fill="white" stroke="black" points="1235.18,-168.5 1235.18,-187.5 1342.18,-187.5 1342.18,-168.5 1235.18,-168.5"/>
<text text-anchor="middle" x="1288.68" y="-175.5" font-family="Arial" font-size="10.00">SLGLTextureIBL.cpp</text>
</a>
</g>
</g>
<!-- Node2&#45;&gt;Node19 -->
<g id="edge19" class="edge">
<title>Node2&#45;&gt;Node19</title>
<path fill="none" stroke="midnightblue" d="M1100.29,-223.04C1143.85,-212.86 1210.79,-197.21 1252.05,-187.56"/>
<polygon fill="midnightblue" stroke="midnightblue" points="1099.23,-219.69 1090.29,-225.38 1100.82,-226.51 1099.23,-219.69"/>
</g>
<!-- Node20 -->
<g id="node20" class="node">
<title>Node20</title>
<g id="a_node20"><a xlink:href="_s_l_g_l_vertex_array_8cpp.html" target="_top" xlink:title=" ">
<polygon fill="white" stroke="black" points="1360.68,-168.5 1360.68,-187.5 1470.68,-187.5 1470.68,-168.5 1360.68,-168.5"/>
<text text-anchor="middle" x="1415.68" y="-175.5" font-family="Arial" font-size="10.00">SLGLVertexArray.cpp</text>
</a>
</g>
</g>
<!-- Node2&#45;&gt;Node20 -->
<g id="edge20" class="edge">
<title>Node2&#45;&gt;Node20</title>
<path fill="none" stroke="midnightblue" d="M1100.3,-226.57C1165.24,-216.78 1288.94,-198.12 1360.61,-187.31"/>
<polygon fill="midnightblue" stroke="midnightblue" points="1099.77,-223.11 1090.4,-228.06 1100.81,-230.03 1099.77,-223.11"/>
</g>
<!-- Node21 -->
<g id="node21" class="node">
<title>Node21</title>
<g id="a_node21"><a xlink:href="_s_l_light_direct_8cpp.html" target="_top" xlink:title=" ">
<polygon fill="white" stroke="black" points="367.18,-112.5 367.18,-131.5 462.18,-131.5 462.18,-112.5 367.18,-112.5"/>
<text text-anchor="middle" x="414.68" y="-119.5" font-family="Arial" font-size="10.00">SLLightDirect.cpp</text>
</a>
</g>
</g>
<!-- Node2&#45;&gt;Node21 -->
<g id="edge21" class="edge">
<title>Node2&#45;&gt;Node21</title>
<path fill="none" stroke="midnightblue" d="M1014.76,-228.79C968.92,-223.29 894.76,-211.44 834.68,-188 818.7,-181.77 817.92,-173.5 801.68,-168 661.95,-120.64 617.92,-151.51 471.68,-132 468.6,-131.59 465.43,-131.15 462.24,-130.68"/>
<polygon fill="midnightblue" stroke="midnightblue" points="1014.6,-232.3 1024.93,-229.97 1015.4,-225.34 1014.6,-232.3"/>
</g>
<!-- Node22 -->
<g id="node22" class="node">
<title>Node22</title>
<g id="a_node22"><a xlink:href="_s_l_light_rect_8cpp.html" target="_top" xlink:title=" ">
<polygon fill="white" stroke="black" points="480.18,-112.5 480.18,-131.5 569.18,-131.5 569.18,-112.5 480.18,-112.5"/>
<text text-anchor="middle" x="524.68" y="-119.5" font-family="Arial" font-size="10.00">SLLightRect.cpp</text>
</a>
</g>
</g>
<!-- Node2&#45;&gt;Node22 -->
<g id="edge22" class="edge">
<title>Node2&#45;&gt;Node22</title>
<path fill="none" stroke="midnightblue" d="M1015.02,-224.73C978.12,-217.02 923.62,-204.26 877.68,-188 857.81,-180.97 854.89,-173.98 834.68,-168 724.5,-135.42 692.25,-149.45 578.68,-132 575.68,-131.54 572.58,-131.05 569.46,-130.55"/>
<polygon fill="midnightblue" stroke="midnightblue" points="1014.44,-228.19 1024.94,-226.77 1015.85,-221.33 1014.44,-228.19"/>
</g>
<!-- Node23 -->
<g id="node23" class="node">
<title>Node23</title>
<g id="a_node23"><a xlink:href="_s_l_light_spot_8cpp.html" target="_top" xlink:title=" ">
<polygon fill="white" stroke="black" points="587.18,-112.5 587.18,-131.5 676.18,-131.5 676.18,-112.5 587.18,-112.5"/>
<text text-anchor="middle" x="631.68" y="-119.5" font-family="Arial" font-size="10.00">SLLightSpot.cpp</text>
</a>
</g>
</g>
<!-- Node2&#45;&gt;Node23 -->
<g id="edge23" class="edge">
<title>Node2&#45;&gt;Node23</title>
<path fill="none" stroke="midnightblue" d="M1100.64,-232.89C1218.23,-231.89 1533.18,-223.99 1479.68,-168 1449.37,-136.27 734.35,-136.31 690.68,-132 686.04,-131.54 681.21,-130.97 676.4,-130.33"/>
<polygon fill="midnightblue" stroke="midnightblue" points="1100.52,-229.4 1090.55,-232.97 1100.57,-236.4 1100.52,-229.4"/>
</g>
<!-- Node24 -->
<g id="node24" class="node">
<title>Node24</title>
<g id="a_node24"><a xlink:href="_s_l_scene_8cpp.html" target="_top" xlink:title=" ">
<polygon fill="white" stroke="black" points="2457.18,-168.5 2457.18,-187.5 2532.18,-187.5 2532.18,-168.5 2457.18,-168.5"/>
<text text-anchor="middle" x="2494.68" y="-175.5" font-family="Arial" font-size="10.00">SLScene.cpp</text>
</a>
</g>
</g>
<!-- Node2&#45;&gt;Node24 -->
<g id="edge24" class="edge">
<title>Node2&#45;&gt;Node24</title>
<path fill="none" stroke="midnightblue" d="M1100.58,-232.41C1304.01,-229.49 2172.88,-215.6 2442.68,-188 2447.33,-187.52 2452.19,-186.88 2456.99,-186.16"/>
<polygon fill="midnightblue" stroke="midnightblue" points="1100.25,-228.91 1090.3,-232.56 1100.35,-235.91 1100.25,-228.91"/>
</g>
<!-- Node25 -->
<g id="node25" class="node">
<title>Node25</title>
<g id="a_node25"><a xlink:href="_s_l_scene_view_8h.html" target="_top" xlink:title=" ">
<polygon fill="white" stroke="black" points="1526.68,-168.5 1526.68,-187.5 1612.68,-187.5 1612.68,-168.5 1526.68,-168.5"/>
<text text-anchor="middle" x="1569.68" y="-175.5" font-family="Arial" font-size="10.00">SLSceneView.h</text>
</a>
</g>
</g>
<!-- Node2&#45;&gt;Node25 -->
<g id="edge25" class="edge">
<title>Node2&#45;&gt;Node25</title>
<path fill="none" stroke="midnightblue" d="M1100.58,-229.59C1181.38,-222.99 1361.6,-207.38 1512.68,-188 1517.15,-187.43 1521.81,-186.78 1526.46,-186.09"/>
<polygon fill="midnightblue" stroke="midnightblue" points="1099.99,-226.13 1090.31,-230.43 1100.56,-233.11 1099.99,-226.13"/>
</g>
<!-- Node46 -->
<g id="node46" class="node">
<title>Node46</title>
<g id="a_node46"><a xlink:href="_s_l_tex_font_8cpp.html" target="_top" xlink:title=" ">
<polygon fill="white" stroke="black" points="2588.68,-168.5 2588.68,-187.5 2670.68,-187.5 2670.68,-168.5 2588.68,-168.5"/>
<text text-anchor="middle" x="2629.68" y="-175.5" font-family="Arial" font-size="10.00">SLTexFont.cpp</text>
</a>
</g>
</g>
<!-- Node2&#45;&gt;Node46 -->
<g id="edge60" class="edge">
<title>Node2&#45;&gt;Node46</title>
<path fill="none" stroke="midnightblue" d="M1100.44,-232.5C1315.15,-229.86 2277.11,-216.63 2574.68,-188 2579.21,-187.56 2583.93,-186.99 2588.61,-186.33"/>
<polygon fill="midnightblue" stroke="midnightblue" points="1100.17,-229 1090.21,-232.62 1100.26,-236 1100.17,-229"/>
</g>
<!-- Node47 -->
<g id="node47" class="node">
<title>Node47</title>
<g id="a_node47"><a xlink:href="_s_l_text_8cpp.html" target="_top" xlink:title=" ">
<polygon fill="white" stroke="black" points="2689.18,-168.5 2689.18,-187.5 2754.18,-187.5 2754.18,-168.5 2689.18,-168.5"/>
<text text-anchor="middle" x="2721.68" y="-175.5" font-family="Arial" font-size="10.00">SLText.cpp</text>
</a>
</g>
</g>
<!-- Node2&#45;&gt;Node47 -->
<g id="edge61" class="edge">
<title>Node2&#45;&gt;Node47</title>
<path fill="none" stroke="midnightblue" d="M1100.19,-232.88C1323.29,-232.06 2360.82,-226.26 2679.68,-188 2682.64,-187.64 2685.7,-187.18 2688.76,-186.65"/>
<polygon fill="midnightblue" stroke="midnightblue" points="1100.17,-229.38 1090.19,-232.91 1100.2,-236.38 1100.17,-229.38"/>
</g>
<!-- Node15 -->
<g id="node15" class="node">
<title>Node15</title>
<g id="a_node15"><a xlink:href="_s_l_g_l_oculus_8cpp.html" target="_top" xlink:title=" ">
<polygon fill="white" stroke="black" points="27.18,-112.5 27.18,-131.5 118.18,-131.5 118.18,-112.5 27.18,-112.5"/>
<text text-anchor="middle" x="72.68" y="-119.5" font-family="Arial" font-size="10.00">SLGLOculus.cpp</text>
</a>
</g>
</g>
<!-- Node14&#45;&gt;Node15 -->
<g id="edge15" class="edge">
<title>Node14&#45;&gt;Node15</title>
<path fill="none" stroke="midnightblue" d="M77.88,-158.1C76.55,-149.14 75.03,-138.86 73.98,-131.75"/>
<polygon fill="midnightblue" stroke="midnightblue" points="74.43,-158.7 79.36,-168.08 81.36,-157.68 74.43,-158.7"/>
</g>
<!-- Node25&#45;&gt;Node3 -->
<g id="edge26" class="edge">
<title>Node25&#45;&gt;Node3</title>
<path fill="none" stroke="midnightblue" d="M1622.84,-176.13C1824.63,-172.64 2533.85,-158.53 2573.68,-132 2613.69,-105.35 2626.26,-42.69 2629.61,-19.67"/>
<polygon fill="midnightblue" stroke="midnightblue" points="1622.72,-172.63 1612.78,-176.3 1622.84,-179.63 1622.72,-172.63"/>
</g>
<!-- Node25&#45;&gt;Node4 -->
<g id="edge27" class="edge">
<title>Node25&#45;&gt;Node4</title>
<path fill="none" stroke="midnightblue" d="M1516.26,-169.95C1509.67,-169.22 1503.03,-168.54 1496.68,-168 1414.22,-160.93 820.01,-180.14 752.68,-132 714.63,-104.79 706.73,-42.47 705.1,-19.61"/>
<polygon fill="midnightblue" stroke="midnightblue" points="1516.17,-173.46 1526.5,-171.14 1516.97,-166.51 1516.17,-173.46"/>
</g>
<!-- Node25&#45;&gt;Node5 -->
<g id="edge28" class="edge">
<title>Node25&#45;&gt;Node5</title>
<path fill="none" stroke="midnightblue" d="M1516.26,-169.95C1509.67,-169.22 1503.03,-168.55 1496.68,-168 1455.95,-164.5 789.87,-161.61 761.68,-132 755.55,-125.56 755.72,-118.59 761.68,-112 824.84,-42.16 1490.07,-18.39 1701.53,-12.57"/>
<polygon fill="midnightblue" stroke="midnightblue" points="1516.17,-173.47 1526.5,-171.14 1516.97,-166.51 1516.17,-173.47"/>
</g>
<!-- Node25&#45;&gt;Node6 -->
<g id="edge33" class="edge">
<title>Node25&#45;&gt;Node6</title>
<path fill="none" stroke="midnightblue" d="M1622.88,-177.73C1694.39,-177.06 1824.46,-170.03 1927.68,-132 1946.3,-125.14 1993.11,-91.68 2015.03,-75.63"/>
<polygon fill="midnightblue" stroke="midnightblue" points="1622.74,-174.23 1612.76,-177.78 1622.78,-181.23 1622.74,-174.23"/>
</g>
<!-- Node25&#45;&gt;Node9 -->
<g id="edge34" class="edge">
<title>Node25&#45;&gt;Node9</title>
<path fill="none" stroke="midnightblue" d="M1515.97,-171C1504.03,-169.85 1491.44,-168.76 1479.68,-168 935.69,-132.86 796.81,-178.62 253.68,-132 250.82,-131.75 247.89,-131.47 244.93,-131.15"/>
<polygon fill="midnightblue" stroke="midnightblue" points="1515.95,-174.52 1526.24,-172.03 1516.64,-167.55 1515.95,-174.52"/>
</g>
<!-- Node25&#45;&gt;Node13 -->
<g id="edge38" class="edge">
<title>Node25&#45;&gt;Node13</title>
<path fill="none" stroke="midnightblue" d="M1515.96,-171.03C1504.03,-169.87 1491.44,-168.78 1479.68,-168 982.28,-135.18 854.66,-181.84 358.68,-132 355.43,-131.67 352.08,-131.27 348.71,-130.81"/>
<polygon fill="midnightblue" stroke="midnightblue" points="1515.94,-174.54 1526.24,-172.06 1516.64,-167.58 1515.94,-174.54"/>
</g>
<!-- Node25&#45;&gt;Node21 -->
<g id="edge41" class="edge">
<title>Node25&#45;&gt;Node21</title>
<path fill="none" stroke="midnightblue" d="M1515.96,-171.06C1504.03,-169.9 1491.44,-168.8 1479.68,-168 1032.42,-137.68 917.9,-175.04 471.68,-132 468.59,-131.7 465.41,-131.34 462.21,-130.95"/>
<polygon fill="midnightblue" stroke="midnightblue" points="1515.94,-174.58 1526.24,-172.09 1516.64,-167.61 1515.94,-174.58"/>
</g>
<!-- Node25&#45;&gt;Node22 -->
<g id="edge42" class="edge">
<title>Node25&#45;&gt;Node22</title>
<path fill="none" stroke="midnightblue" d="M1515.96,-171.1C1504.03,-169.93 1491.43,-168.82 1479.68,-168 1079.89,-140.05 977.34,-173.02 578.68,-132 575.66,-131.69 572.54,-131.31 569.41,-130.9"/>
<polygon fill="midnightblue" stroke="midnightblue" points="1515.94,-174.61 1526.24,-172.13 1516.64,-167.65 1515.94,-174.61"/>
</g>
<!-- Node25&#45;&gt;Node23 -->
<g id="edge43" class="edge">
<title>Node25&#45;&gt;Node23</title>
<path fill="none" stroke="midnightblue" d="M1516.51,-168.41C1515.22,-168.26 1513.94,-168.13 1512.68,-168 1148.83,-131.43 1054.63,-167.62 690.68,-132 686.04,-131.55 681.21,-130.97 676.4,-130.34"/>
<polygon fill="midnightblue" stroke="midnightblue" points="1516.13,-171.89 1526.49,-169.66 1517,-164.94 1516.13,-171.89"/>
</g>
<!-- Node26 -->
<g id="node26" class="node">
<title>Node26</title>
<g id="a_node26"><a xlink:href="_app_demo_scene_view_8h.html" target="_top" xlink:title=" ">
<polygon fill="white" stroke="black" points="1801.18,-112.5 1801.18,-131.5 1918.18,-131.5 1918.18,-112.5 1801.18,-112.5"/>
<text text-anchor="middle" x="1859.68" y="-119.5" font-family="Arial" font-size="10.00">AppDemoSceneView.h</text>
</a>
</g>
</g>
<!-- Node25&#45;&gt;Node26 -->
<g id="edge29" class="edge">
<title>Node25&#45;&gt;Node26</title>
<path fill="none" stroke="midnightblue" d="M1622.65,-167.14C1677.4,-156.94 1762.01,-141.19 1813.95,-131.52"/>
<polygon fill="midnightblue" stroke="midnightblue" points="1621.97,-163.7 1612.78,-168.97 1623.26,-170.58 1621.97,-163.7"/>
</g>
<!-- Node28 -->
<g id="node28" class="node">
<title>Node28</title>
<g id="a_node28"><a xlink:href="_s_l_anim_track_8cpp.html" target="_top" xlink:title=" ">
<polygon fill="white" stroke="black" points="1975.18,-112.5 1975.18,-131.5 2070.18,-131.5 2070.18,-112.5 1975.18,-112.5"/>
<text text-anchor="middle" x="2022.68" y="-119.5" font-family="Arial" font-size="10.00">SLAnimTrack.cpp</text>
</a>
</g>
</g>
<!-- Node25&#45;&gt;Node28 -->
<g id="edge35" class="edge">
<title>Node25&#45;&gt;Node28</title>
<path fill="none" stroke="midnightblue" d="M1623.01,-171.37C1698.34,-163.3 1840.15,-147.68 1960.68,-132 1965.32,-131.4 1970.15,-130.74 1974.97,-130.07"/>
<polygon fill="midnightblue" stroke="midnightblue" points="1622.41,-167.91 1612.84,-172.46 1623.15,-174.87 1622.41,-167.91"/>
</g>
<!-- Node29 -->
<g id="node29" class="node">
<title>Node29</title>
<g id="a_node29"><a xlink:href="_s_l_camera_8cpp.html" target="_top" xlink:title=" ">
<polygon fill="white" stroke="black" points="2088.68,-112.5 2088.68,-131.5 2170.68,-131.5 2170.68,-112.5 2088.68,-112.5"/>
<text text-anchor="middle" x="2129.68" y="-119.5" font-family="Arial" font-size="10.00">SLCamera.cpp</text>
</a>
</g>
</g>
<!-- Node25&#45;&gt;Node29 -->
<g id="edge36" class="edge">
<title>Node25&#45;&gt;Node29</title>
<path fill="none" stroke="midnightblue" d="M1622.81,-173.89C1715.73,-168.11 1913.67,-154.22 2079.68,-132 2082.57,-131.61 2085.54,-131.18 2088.53,-130.71"/>
<polygon fill="midnightblue" stroke="midnightblue" points="1622.58,-170.4 1612.81,-174.51 1623.01,-177.39 1622.58,-170.4"/>
</g>
<!-- Node30 -->
<g id="node30" class="node">
<title>Node30</title>
<g id="a_node30"><a xlink:href="_s_l_g_l_conetracer_8cpp.html" target="_top" xlink:title=" ">
<polygon fill="white" stroke="black" points="2188.68,-112.5 2188.68,-131.5 2296.68,-131.5 2296.68,-112.5 2188.68,-112.5"/>
<text text-anchor="middle" x="2242.68" y="-119.5" font-family="Arial" font-size="10.00">SLGLConetracer.cpp</text>
</a>
</g>
</g>
<!-- Node25&#45;&gt;Node30 -->
<g id="edge37" class="edge">
<title>Node25&#45;&gt;Node30</title>
<path fill="none" stroke="midnightblue" d="M1623.19,-174.28C1729.46,-168.62 1974.57,-154.19 2179.68,-132 2182.54,-131.69 2185.46,-131.35 2188.42,-130.99"/>
<polygon fill="midnightblue" stroke="midnightblue" points="1622.84,-170.8 1613.04,-174.82 1623.21,-177.79 1622.84,-170.8"/>
</g>
<!-- Node31 -->
<g id="node31" class="node">
<title>Node31</title>
<g id="a_node31"><a xlink:href="_s_l_input_manager_8cpp.html" target="_top" xlink:title=" ">
<polygon fill="white" stroke="black" points="2315.18,-112.5 2315.18,-131.5 2422.18,-131.5 2422.18,-112.5 2315.18,-112.5"/>
<text text-anchor="middle" x="2368.68" y="-119.5" font-family="Arial" font-size="10.00">SLInputManager.cpp</text>
</a>
</g>
</g>
<!-- Node25&#45;&gt;Node31 -->
<g id="edge39" class="edge">
<title>Node25&#45;&gt;Node31</title>
<path fill="none" stroke="midnightblue" d="M1623.06,-175.22C1744.52,-170.84 2050.75,-157.96 2305.68,-132 2308.76,-131.69 2311.92,-131.33 2315.1,-130.95"/>
<polygon fill="midnightblue" stroke="midnightblue" points="1622.79,-171.72 1612.92,-175.58 1623.04,-178.72 1622.79,-171.72"/>
</g>
<!-- Node32 -->
<g id="node32" class="node">
<title>Node32</title>
<g id="a_node32"><a xlink:href="_s_l_keyframe_camera_8cpp.html" target="_top" xlink:title=" ">
<polygon fill="white" stroke="black" points="2440.68,-112.5 2440.68,-131.5 2564.68,-131.5 2564.68,-112.5 2440.68,-112.5"/>
<text text-anchor="middle" x="2502.68" y="-119.5" font-family="Arial" font-size="10.00">SLKeyframeCamera.cpp</text>
</a>
</g>
</g>
<!-- Node25&#45;&gt;Node32 -->
<g id="edge40" class="edge">
<title>Node25&#45;&gt;Node32</title>
<path fill="none" stroke="midnightblue" d="M1622.91,-175.59C1758.2,-171.71 2126.19,-159.3 2431.68,-132 2434.53,-131.75 2437.44,-131.46 2440.37,-131.16"/>
<polygon fill="midnightblue" stroke="midnightblue" points="1622.71,-172.09 1612.81,-175.88 1622.91,-179.09 1622.71,-172.09"/>
</g>
<!-- Node33 -->
<g id="node33" class="node">
<title>Node33</title>
<g id="a_node33"><a xlink:href="_s_l_material_8cpp.html" target="_top" xlink:title=" ">
<polygon fill="white" stroke="black" points="770.68,-112.5 770.68,-131.5 852.68,-131.5 852.68,-112.5 770.68,-112.5"/>
<text text-anchor="middle" x="811.68" y="-119.5" font-family="Arial" font-size="10.00">SLMaterial.cpp</text>
</a>
</g>
</g>
<!-- Node25&#45;&gt;Node33 -->
<g id="edge44" class="edge">
<title>Node25&#45;&gt;Node33</title>
<path fill="none" stroke="midnightblue" d="M1516.5,-168.43C1515.22,-168.28 1513.94,-168.13 1512.68,-168 1224.97,-137.4 1150.1,-165.2 862.68,-132 859.47,-131.63 856.15,-131.18 852.82,-130.69"/>
<polygon fill="midnightblue" stroke="midnightblue" points="1516.12,-171.91 1526.48,-169.71 1517.01,-164.96 1516.12,-171.91"/>
</g>
<!-- Node34 -->
<g id="node34" class="node">
<title>Node34</title>
<g id="a_node34"><a xlink:href="_s_l_mesh_8cpp.html" target="_top" xlink:title=" ">
<polygon fill="white" stroke="black" points="871.18,-112.5 871.18,-131.5 942.18,-131.5 942.18,-112.5 871.18,-112.5"/>
<text text-anchor="middle" x="906.68" y="-119.5" font-family="Arial" font-size="10.00">SLMesh.cpp</text>
</a>
</g>
</g>
<!-- Node25&#45;&gt;Node34 -->
<g id="edge45" class="edge">
<title>Node25&#45;&gt;Node34</title>
<path fill="none" stroke="midnightblue" d="M1516.5,-168.44C1515.22,-168.29 1513.94,-168.14 1512.68,-168 1264.36,-140.49 1199.4,-164.57 951.68,-132 948.68,-131.61 945.58,-131.13 942.47,-130.61"/>
<polygon fill="midnightblue" stroke="midnightblue" points="1516.11,-171.92 1526.48,-169.75 1517.02,-164.98 1516.11,-171.92"/>
</g>
<!-- Node35 -->
<g id="node35" class="node">
<title>Node35</title>
<g id="a_node35"><a xlink:href="_s_l_node_8cpp.html" target="_top" xlink:title=" ">
<polygon fill="white" stroke="black" points="960.18,-112.5 960.18,-131.5 1031.18,-131.5 1031.18,-112.5 960.18,-112.5"/>
<text text-anchor="middle" x="995.68" y="-119.5" font-family="Arial" font-size="10.00">SLNode.cpp</text>
</a>
</g>
</g>
<!-- Node25&#45;&gt;Node35 -->
<g id="edge46" class="edge">
<title>Node25&#45;&gt;Node35</title>
<path fill="none" stroke="midnightblue" d="M1516.5,-168.46C1515.22,-168.3 1513.94,-168.15 1512.68,-168 1303.72,-143.57 1249.1,-160.68 1040.68,-132 1037.68,-131.59 1034.58,-131.1 1031.48,-130.57"/>
<polygon fill="midnightblue" stroke="midnightblue" points="1516.09,-171.94 1526.47,-169.8 1517.03,-165 1516.09,-171.94"/>
</g>
<!-- Node36 -->
<g id="node36" class="node">
<title>Node36</title>
<g id="a_node36"><a xlink:href="_s_l_node_l_o_d_8cpp.html" target="_top" xlink:title=" ">
<polygon fill="white" stroke="black" points="1049.18,-112.5 1049.18,-131.5 1140.18,-131.5 1140.18,-112.5 1049.18,-112.5"/>
<text text-anchor="middle" x="1094.68" y="-119.5" font-family="Arial" font-size="10.00">SLNodeLOD.cpp</text>
</a>
</g>
</g>
<!-- Node25&#45;&gt;Node36 -->
<g id="edge47" class="edge">
<title>Node25&#45;&gt;Node36</title>
<path fill="none" stroke="midnightblue" d="M1516.49,-168.5C1515.21,-168.33 1513.94,-168.16 1512.68,-168 1351.88,-147.35 1310.43,-153.1 1149.68,-132 1146.61,-131.6 1143.45,-131.15 1140.27,-130.69"/>
<polygon fill="midnightblue" stroke="midnightblue" points="1516.07,-171.98 1526.46,-169.91 1517.05,-165.04 1516.07,-171.98"/>
</g>
<!-- Node37 -->
<g id="node37" class="node">
<title>Node37</title>
<g id="a_node37"><a xlink:href="_s_l_pathtracer_8cpp.html" target="_top" xlink:title=" ">
<polygon fill="white" stroke="black" points="1158.68,-112.5 1158.68,-131.5 1250.68,-131.5 1250.68,-112.5 1158.68,-112.5"/>
<text text-anchor="middle" x="1204.68" y="-119.5" font-family="Arial" font-size="10.00">SLPathtracer.cpp</text>
</a>
</g>
</g>
<!-- Node25&#45;&gt;Node37 -->
<g id="edge48" class="edge">
<title>Node25&#45;&gt;Node37</title>
<path fill="none" stroke="midnightblue" d="M1516.48,-168.57C1515.2,-168.38 1513.94,-168.19 1512.68,-168 1400.8,-151.18 1372.54,-148.98 1260.68,-132 1257.47,-131.51 1254.15,-131 1250.82,-130.48"/>
<polygon fill="midnightblue" stroke="midnightblue" points="1516.02,-172.04 1526.43,-170.1 1517.08,-165.13 1516.02,-172.04"/>
</g>
<!-- Node38 -->
<g id="node38" class="node">
<title>Node38</title>
<g id="a_node38"><a xlink:href="_s_l_ray_8cpp.html" target="_top" xlink:title=" ">
<polygon fill="white" stroke="black" points="1269.18,-112.5 1269.18,-131.5 1334.18,-131.5 1334.18,-112.5 1269.18,-112.5"/>
<text text-anchor="middle" x="1301.68" y="-119.5" font-family="Arial" font-size="10.00">SLRay.cpp</text>
</a>
</g>
</g>
<!-- Node25&#45;&gt;Node38 -->
<g id="edge49" class="edge">
<title>Node25&#45;&gt;Node38</title>
<path fill="none" stroke="midnightblue" d="M1516.31,-166.6C1470.49,-157.62 1402.69,-144.2 1343.68,-132 1340.61,-131.37 1337.42,-130.7 1334.23,-130.02"/>
<polygon fill="midnightblue" stroke="midnightblue" points="1515.83,-170.07 1526.32,-168.56 1517.18,-163.2 1515.83,-170.07"/>
</g>
<!-- Node39 -->
<g id="node39" class="node">
<title>Node39</title>
<g id="a_node39"><a xlink:href="_s_l_raytracer_8cpp.html" target="_top" xlink:title=" ">
<polygon fill="white" stroke="black" points="1352.68,-112.5 1352.68,-131.5 1442.68,-131.5 1442.68,-112.5 1352.68,-112.5"/>
<text text-anchor="middle" x="1397.68" y="-119.5" font-family="Arial" font-size="10.00">SLRaytracer.cpp</text>
</a>
</g>
</g>
<!-- Node25&#45;&gt;Node39 -->
<g id="edge50" class="edge">
<title>Node25&#45;&gt;Node39</title>
<path fill="none" stroke="midnightblue" d="M1532.85,-165.44C1500.42,-155.26 1453.94,-140.66 1424.81,-131.52"/>
<polygon fill="midnightblue" stroke="midnightblue" points="1531.84,-168.79 1542.43,-168.44 1533.94,-162.11 1531.84,-168.79"/>
</g>
<!-- Node25&#45;&gt;Node40 -->
<g id="edge51" class="edge">
<title>Node25&#45;&gt;Node40</title>
<path fill="none" stroke="midnightblue" d="M1623.12,-176.69C1780.17,-175.38 2253.79,-168.46 2644.68,-132 2649.23,-131.58 2653.96,-131.05 2658.68,-130.46"/>
<polygon fill="midnightblue" stroke="midnightblue" points="1622.77,-173.2 1612.8,-176.78 1622.83,-180.2 1622.77,-173.2"/>
</g>
<!-- Node41 -->
<g id="node41" class="node">
<title>Node41</title>
<g id="a_node41"><a xlink:href="_s_l_shadow_map_8cpp.html" target="_top" xlink:title=" ">
<polygon fill="white" stroke="black" points="1461.18,-112.5 1461.18,-131.5 1562.18,-131.5 1562.18,-112.5 1461.18,-112.5"/>
<text text-anchor="middle" x="1511.68" y="-119.5" font-family="Arial" font-size="10.00">SLShadowMap.cpp</text>
</a>
</g>
</g>
<!-- Node25&#45;&gt;Node41 -->
<g id="edge52" class="edge">
<title>Node25&#45;&gt;Node41</title>
<path fill="none" stroke="midnightblue" d="M1552.77,-161.25C1542.48,-151.67 1529.72,-139.79 1521.17,-131.83"/>
<polygon fill="midnightblue" stroke="midnightblue" points="1550.66,-164.07 1560.36,-168.32 1555.43,-158.95 1550.66,-164.07"/>
</g>
<!-- Node42 -->
<g id="node42" class="node">
<title>Node42</title>
<g id="a_node42"><a xlink:href="_s_l_skybox_8cpp.html" target="_top" xlink:title=" ">
<polygon fill="white" stroke="black" points="1580.68,-112.5 1580.68,-131.5 1660.68,-131.5 1660.68,-112.5 1580.68,-112.5"/>
<text text-anchor="middle" x="1620.68" y="-119.5" font-family="Arial" font-size="10.00">SLSkybox.cpp</text>
</a>
</g>
</g>
<!-- Node25&#45;&gt;Node42 -->
<g id="edge53" class="edge">
<title>Node25&#45;&gt;Node42</title>
<path fill="none" stroke="midnightblue" d="M1585.06,-160.72C1594.05,-151.2 1605.04,-139.56 1612.42,-131.75"/>
<polygon fill="midnightblue" stroke="midnightblue" points="1582.43,-158.41 1578.1,-168.08 1587.51,-163.22 1582.43,-158.41"/>
</g>
<!-- Node43 -->
<g id="node43" class="node">
<title>Node43</title>
<g id="a_node43"><a xlink:href="_s_l_transform_node_8h.html" target="_top" xlink:title=" ">
<polygon fill="white" stroke="black" points="1678.68,-112.5 1678.68,-131.5 1782.68,-131.5 1782.68,-112.5 1678.68,-112.5"/>
<text text-anchor="middle" x="1730.68" y="-119.5" font-family="Arial" font-size="10.00">SLTransformNode.h</text>
</a>
</g>
</g>
<!-- Node25&#45;&gt;Node43 -->
<g id="edge54" class="edge">
<title>Node25&#45;&gt;Node43</title>
<path fill="none" stroke="midnightblue" d="M1604.95,-165.17C1635.26,-155 1678.25,-140.59 1705.29,-131.52"/>
<polygon fill="midnightblue" stroke="midnightblue" points="1603.56,-161.95 1595.19,-168.44 1605.79,-168.58 1603.56,-161.95"/>
</g>
<!-- Node26&#45;&gt;Node5 -->
<g id="edge30" class="edge">
<title>Node26&#45;&gt;Node5</title>
<path fill="none" stroke="midnightblue" d="M1845.01,-104.76C1837.39,-96.26 1827.96,-85.63 1819.68,-76 1802.66,-56.19 1783.2,-32.51 1772.93,-19.91"/>
<polygon fill="midnightblue" stroke="midnightblue" points="1842.64,-107.35 1851.93,-112.45 1847.84,-102.67 1842.64,-107.35"/>
</g>
<!-- Node26&#45;&gt;Node6 -->
<g id="edge32" class="edge">
<title>Node26&#45;&gt;Node6</title>
<path fill="none" stroke="midnightblue" d="M1895.85,-109.3C1927.32,-99.13 1972.18,-84.62 2000.34,-75.52"/>
<polygon fill="midnightblue" stroke="midnightblue" points="1894.58,-106.04 1886.14,-112.44 1896.74,-112.7 1894.58,-106.04"/>
</g>
<!-- Node27 -->
<g id="node27" class="node">
<title>Node27</title>
<g id="a_node27"><a xlink:href="_app_demo_scene_view_8cpp.html" target="_top" xlink:title=" ">
<polygon fill="white" stroke="black" points="1828.68,-56.5 1828.68,-75.5 1956.68,-75.5 1956.68,-56.5 1828.68,-56.5"/>
<text text-anchor="middle" x="1892.68" y="-63.5" font-family="Arial" font-size="10.00">AppDemoSceneView.cpp</text>
</a>
</g>
</g>
<!-- Node26&#45;&gt;Node27 -->
<g id="edge31" class="edge">
<title>Node26&#45;&gt;Node27</title>
<path fill="none" stroke="midnightblue" d="M1870.51,-103.27C1876.15,-94.05 1882.8,-83.17 1887.33,-75.75"/>
<polygon fill="midnightblue" stroke="midnightblue" points="1867.36,-101.73 1865.13,-112.08 1873.33,-105.38 1867.36,-101.73"/>
</g>
<!-- Node44 -->
<g id="node44" class="node">
<title>Node44</title>
<g id="a_node44"><a xlink:href="_app_demo_gui_8h.html" target="_top" xlink:title=" ">
<polygon fill="white" stroke="black" points="1689.18,-56.5 1689.18,-75.5 1772.18,-75.5 1772.18,-56.5 1689.18,-56.5"/>
<text text-anchor="middle" x="1730.68" y="-63.5" font-family="Arial" font-size="10.00">AppDemoGui.h</text>
</a>
</g>
</g>
<!-- Node43&#45;&gt;Node44 -->
<g id="edge55" class="edge">
<title>Node43&#45;&gt;Node44</title>
<path fill="none" stroke="midnightblue" d="M1730.68,-101.8C1730.68,-92.91 1730.68,-82.78 1730.68,-75.75"/>
<polygon fill="midnightblue" stroke="midnightblue" points="1727.18,-102.08 1730.68,-112.08 1734.18,-102.08 1727.18,-102.08"/>
</g>
<!-- Node45 -->
<g id="node45" class="node">
<title>Node45</title>
<g id="a_node45"><a xlink:href="_s_l_transform_node_8cpp.html" target="_top" xlink:title=" ">
<polygon fill="white" stroke="black" points="1556.68,-56.5 1556.68,-75.5 1670.68,-75.5 1670.68,-56.5 1556.68,-56.5"/>
<text text-anchor="middle" x="1613.68" y="-63.5" font-family="Arial" font-size="10.00">SLTransformNode.cpp</text>
</a>
</g>
</g>
<!-- Node43&#45;&gt;Node45 -->
<g id="edge59" class="edge">
<title>Node43&#45;&gt;Node45</title>
<path fill="none" stroke="midnightblue" d="M1703.02,-108.23C1681.13,-98.13 1651.18,-84.31 1632.13,-75.52"/>
<polygon fill="midnightblue" stroke="midnightblue" points="1701.6,-111.43 1712.14,-112.44 1704.53,-105.08 1701.6,-111.43"/>
</g>
<!-- Node44&#45;&gt;Node3 -->
<g id="edge56" class="edge">
<title>Node44&#45;&gt;Node3</title>
<path fill="none" stroke="midnightblue" d="M1782.36,-59.37C1794.58,-58.15 1807.59,-56.95 1819.68,-56 2109.64,-33.31 2458.8,-17.97 2583.55,-12.87"/>
<polygon fill="midnightblue" stroke="midnightblue" points="1781.9,-55.9 1772.3,-60.4 1782.61,-62.87 1781.9,-55.9"/>
</g>
<!-- Node44&#45;&gt;Node4 -->
<g id="edge57" class="edge">
<title>Node44&#45;&gt;Node4</title>
<path fill="none" stroke="midnightblue" d="M1678.91,-56.08C1319.14,-16.82 897.71,-11.66 754.84,-11.04"/>
<polygon fill="midnightblue" stroke="midnightblue" points="1678.67,-59.58 1689,-57.19 1679.44,-52.62 1678.67,-59.58"/>
</g>
<!-- Node44&#45;&gt;Node5 -->
<g id="edge58" class="edge">
<title>Node44&#45;&gt;Node5</title>
<path fill="none" stroke="midnightblue" d="M1741.98,-47.57C1748,-38.27 1755.15,-27.25 1760.01,-19.75"/>
<polygon fill="midnightblue" stroke="midnightblue" points="1738.96,-45.79 1736.46,-56.08 1744.84,-49.6 1738.96,-45.79"/>
</g>
</g>
</svg>
