<?xml version="1.0" encoding="UTF-8" standalone="no"?>
<!DOCTYPE svg PUBLIC "-//W3C//DTD SVG 1.1//EN"
 "http://www.w3.org/Graphics/SVG/1.1/DTD/svg11.dtd">
<!-- Generated by graphviz version 2.28.0 (20110507.0327)
 -->
<!-- Title: SLAnimTrack.h Pages: 1 -->
<svg width="3102pt" height="364pt"
 viewBox="0.00 0.00 3102.00 364.00" xmlns="http://www.w3.org/2000/svg" xmlns:xlink="http://www.w3.org/1999/xlink">
<g id="graph1" class="graph" transform="scale(1 1) rotate(0) translate(4 360)">
<title>SLAnimTrack.h</title>
<polygon fill="white" stroke="white" points="-4,5 -4,-360 3099,-360 3099,5 -4,5"/>
<!-- Node1 -->
<g id="node1" class="node"><title>Node1</title>
<polygon fill="#bfbfbf" stroke="black" points="321,-336.5 321,-355.5 409,-355.5 409,-336.5 321,-336.5"/>
<text text-anchor="middle" x="365" y="-343.5" font-family="Arial.ttf" font-size="10.00">SLAnimTrack.h</text>
</g>
<!-- Node2 -->
<g id="node3" class="node"><title>Node2</title>
<a xlink:href="_s_l_anim_track_8cpp.html" target="_top" xlink:title="SLAnimTrack.cpp">
<polygon fill="white" stroke="black" points="499.5,-0.5 499.5,-19.5 598.5,-19.5 598.5,-0.5 499.5,-0.5"/>
<text text-anchor="middle" x="549" y="-7.5" font-family="Arial.ttf" font-size="10.00">SLAnimTrack.cpp</text>
</a>
</g>
<!-- Node1&#45;&gt;Node2 -->
<g id="edge2" class="edge"><title>Node1&#45;&gt;Node2</title>
<path fill="none" stroke="midnightblue" d="M352.118,-328.12C337.6,-307.373 316,-270.534 316,-235 316,-235 316,-235 316,-121 316,-77.558 350.893,-76.8588 389,-56 423.424,-37.1571 466.429,-25.6346 499.182,-18.9725"/>
<polygon fill="midnightblue" stroke="midnightblue" points="349.472,-330.432 358.187,-336.458 355.131,-326.313 349.472,-330.432"/>
</g>
<!-- Node3 -->
<g id="node5" class="node"><title>Node3</title>
<a xlink:href="_s_l_animation_8h.html" target="_top" xlink:title="SLAnimation.h">
<polygon fill="white" stroke="black" points="372,-280.5 372,-299.5 458,-299.5 458,-280.5 372,-280.5"/>
<text text-anchor="middle" x="415" y="-287.5" font-family="Arial.ttf" font-size="10.00">SLAnimation.h</text>
</a>
</g>
<!-- Node1&#45;&gt;Node3 -->
<g id="edge4" class="edge"><title>Node1&#45;&gt;Node3</title>
<path fill="none" stroke="midnightblue" d="M380.076,-328.718C388.889,-319.2 399.666,-307.561 406.897,-299.751"/>
<polygon fill="midnightblue" stroke="midnightblue" points="377.482,-326.367 373.256,-336.083 382.619,-331.123 377.482,-326.367"/>
</g>
<!-- Node3&#45;&gt;Node2 -->
<g id="edge10" class="edge"><title>Node3&#45;&gt;Node2</title>
<path fill="none" stroke="midnightblue" d="M437.635,-274.257C447.38,-266.541 457.732,-256.16 463,-244 466.534,-235.844 464.701,-232.725 463,-224 447.825,-146.18 355.912,-119.788 403,-56 414.815,-39.9955 462.909,-27.2967 500.712,-19.5245"/>
<polygon fill="midnightblue" stroke="midnightblue" points="435.356,-271.588 429.37,-280.33 439.501,-277.229 435.356,-271.588"/>
</g>
<!-- Node4 -->
<g id="node7" class="node"><title>Node4</title>
<a xlink:href="_s_l_assimp_importer_8cpp.html" target="_top" xlink:title="SLAssimpImporter.cpp">
<polygon fill="white" stroke="black" points="2864.5,-56.5 2864.5,-75.5 2989.5,-75.5 2989.5,-56.5 2864.5,-56.5"/>
<text text-anchor="middle" x="2927" y="-63.5" font-family="Arial.ttf" font-size="10.00">SLAssimpImporter.cpp</text>
</a>
</g>
<!-- Node3&#45;&gt;Node4 -->
<g id="edge6" class="edge"><title>Node3&#45;&gt;Node4</title>
<path fill="none" stroke="midnightblue" d="M468.411,-286.751C684.962,-277.473 1518.62,-240.178 2203,-188 2462.55,-168.211 2534.71,-199.889 2786,-132 2834.92,-118.783 2888.03,-89.9238 2912.79,-75.5246"/>
<polygon fill="midnightblue" stroke="midnightblue" points="468.113,-283.261 458.272,-287.185 468.412,-290.255 468.113,-283.261"/>
</g>
<!-- Node5 -->
<g id="node9" class="node"><title>Node5</title>
<a xlink:href="_s_l_anim_playback_8cpp.html" target="_top" xlink:title="SLAnimPlayback.cpp">
<polygon fill="white" stroke="black" points="2835,-224.5 2835,-243.5 2951,-243.5 2951,-224.5 2835,-224.5"/>
<text text-anchor="middle" x="2893" y="-231.5" font-family="Arial.ttf" font-size="10.00">SLAnimPlayback.cpp</text>
</a>
</g>
<!-- Node3&#45;&gt;Node5 -->
<g id="edge8" class="edge"><title>Node3&#45;&gt;Node5</title>
<path fill="none" stroke="midnightblue" d="M468.033,-288.772C776.356,-287.328 2340.98,-278.393 2821,-244 2825.52,-243.676 2830.2,-243.265 2834.89,-242.798"/>
<polygon fill="midnightblue" stroke="midnightblue" points="468.001,-285.272 458.017,-288.818 468.033,-292.272 468.001,-285.272"/>
</g>
<!-- Node6 -->
<g id="node12" class="node"><title>Node6</title>
<a xlink:href="_s_l_node_8cpp.html" target="_top" xlink:title="SLNode.cpp">
<polygon fill="white" stroke="black" points="3020,-0.5 3020,-19.5 3094,-19.5 3094,-0.5 3020,-0.5"/>
<text text-anchor="middle" x="3057" y="-7.5" font-family="Arial.ttf" font-size="10.00">SLNode.cpp</text>
</a>
</g>
<!-- Node3&#45;&gt;Node6 -->
<g id="edge12" class="edge"><title>Node3&#45;&gt;Node6</title>
<path fill="none" stroke="midnightblue" d="M468.245,-289.07C823.452,-289.411 2839.32,-289.341 2960,-244 3001.92,-228.249 3037,-223.785 3037,-179 3037,-179 3037,-179 3037,-121 3037,-82.7617 3048.84,-38.2349 3054.3,-19.7419"/>
<polygon fill="midnightblue" stroke="midnightblue" points="468.227,-285.57 458.223,-289.06 468.22,-292.57 468.227,-285.57"/>
</g>
<!-- Node7 -->
<g id="node14" class="node"><title>Node7</title>
<a xlink:href="_s_l_scene_view_8cpp.html" target="_top" xlink:title="SLSceneView.cpp">
<polygon fill="white" stroke="black" points="-0.5,-0.5 -0.5,-19.5 100.5,-19.5 100.5,-0.5 -0.5,-0.5"/>
<text text-anchor="middle" x="50" y="-7.5" font-family="Arial.ttf" font-size="10.00">SLSceneView.cpp</text>
</a>
</g>
<!-- Node3&#45;&gt;Node7 -->
<g id="edge14" class="edge"><title>Node3&#45;&gt;Node7</title>
<path fill="none" stroke="midnightblue" d="M361.683,-286.047C249.64,-278.381 0,-252.997 0,-179 0,-179 0,-179 0,-121 0,-79.8841 29.3091,-37.2469 43.0477,-19.5193"/>
<polygon fill="midnightblue" stroke="midnightblue" points="361.553,-289.546 371.762,-286.714 362.015,-282.561 361.553,-289.546"/>
</g>
<!-- Node8 -->
<g id="node16" class="node"><title>Node8</title>
<a xlink:href="_s_l_anim_manager_8h.html" target="_top" xlink:title="SLAnimManager.h">
<polygon fill="white" stroke="black" points="28,-168.5 28,-187.5 132,-187.5 132,-168.5 28,-168.5"/>
<text text-anchor="middle" x="80" y="-175.5" font-family="Arial.ttf" font-size="10.00">SLAnimManager.h</text>
</a>
</g>
<!-- Node3&#45;&gt;Node8 -->
<g id="edge16" class="edge"><title>Node3&#45;&gt;Node8</title>
<path fill="none" stroke="midnightblue" d="M379.19,-277.241C311.402,-254.983 165.796,-207.172 106.223,-187.61"/>
<polygon fill="midnightblue" stroke="midnightblue" points="378.399,-280.666 388.992,-280.46 380.583,-274.015 378.399,-280.666"/>
</g>
<!-- Node46 -->
<g id="node109" class="node"><title>Node46</title>
<a xlink:href="_s_l_skeleton_8h.html" target="_top" xlink:title="SLSkeleton.h">
<polygon fill="white" stroke="black" points="374,-224.5 374,-243.5 454,-243.5 454,-224.5 374,-224.5"/>
<text text-anchor="middle" x="414" y="-231.5" font-family="Arial.ttf" font-size="10.00">SLSkeleton.h</text>
</a>
</g>
<!-- Node3&#45;&gt;Node46 -->
<g id="edge126" class="edge"><title>Node3&#45;&gt;Node46</title>
<path fill="none" stroke="midnightblue" d="M414.645,-269.805C414.48,-260.91 414.292,-250.78 414.162,-243.751"/>
<polygon fill="midnightblue" stroke="midnightblue" points="411.15,-270.15 414.835,-280.083 418.149,-270.02 411.15,-270.15"/>
</g>
<!-- Node8&#45;&gt;Node7 -->
<g id="edge18" class="edge"><title>Node8&#45;&gt;Node7</title>
<path fill="none" stroke="midnightblue" d="M76.5535,-157.93C70.0458,-121.92 56.1864,-45.2312 51.5485,-19.5681"/>
<polygon fill="midnightblue" stroke="midnightblue" points="73.1644,-158.857 78.3871,-168.075 80.0528,-157.612 73.1644,-158.857"/>
</g>
<!-- Node8&#45;&gt;Node8 -->
<g id="edge20" class="edge"><title>Node8&#45;&gt;Node8</title>
<path fill="none" stroke="midnightblue" d="M120.178,-188.432C136.381,-189.04 150,-185.563 150,-178 150,-168.867 130.141,-165.692 109.855,-168.475"/>
<polygon fill="midnightblue" stroke="midnightblue" points="120.123,-184.914 109.855,-187.525 119.51,-191.887 120.123,-184.914"/>
</g>
<!-- Node9 -->
<g id="node20" class="node"><title>Node9</title>
<a xlink:href="_s_l_scene_8h.html" target="_top" xlink:title="SLScene.h">
<polygon fill="white" stroke="black" points="1567,-112.5 1567,-131.5 1635,-131.5 1635,-112.5 1567,-112.5"/>
<text text-anchor="middle" x="1601" y="-119.5" font-family="Arial.ttf" font-size="10.00">SLScene.h</text>
</a>
</g>
<!-- Node8&#45;&gt;Node9 -->
<g id="edge22" class="edge"><title>Node8&#45;&gt;Node9</title>
<path fill="none" stroke="midnightblue" d="M142.292,-171.689C159.964,-170.323 179.23,-168.968 197,-168 743.081,-138.261 1409.79,-126.093 1566.77,-123.533"/>
<polygon fill="midnightblue" stroke="midnightblue" points="141.789,-168.217 132.094,-172.491 142.338,-175.196 141.789,-168.217"/>
</g>
<!-- Node9&#45;&gt;Node4 -->
<g id="edge46" class="edge"><title>Node9&#45;&gt;Node4</title>
<path fill="none" stroke="midnightblue" d="M1645.52,-120.004C1804.18,-116.314 2356.7,-102.264 2812,-76 2828.99,-75.0197 2847.38,-73.6982 2864.36,-72.3701"/>
<polygon fill="midnightblue" stroke="midnightblue" points="1645.13,-116.512 1635.22,-120.242 1645.3,-123.51 1645.13,-116.512"/>
</g>
<!-- Node10 -->
<g id="node22" class="node"><title>Node10</title>
<a xlink:href="_s_l_c_v_capture_8cpp.html" target="_top" xlink:title="SLCVCapture.cpp">
<polygon fill="white" stroke="black" points="2557.5,-0.5 2557.5,-19.5 2658.5,-19.5 2658.5,-0.5 2557.5,-0.5"/>
<text text-anchor="middle" x="2608" y="-7.5" font-family="Arial.ttf" font-size="10.00">SLCVCapture.cpp</text>
</a>
</g>
<!-- Node9&#45;&gt;Node10 -->
<g id="edge24" class="edge"><title>Node9&#45;&gt;Node10</title>
<path fill="none" stroke="midnightblue" d="M1645.28,-120.451C1818.42,-118.085 2444.13,-107.42 2527,-76 2558.7,-63.9827 2587.52,-34.5609 2600.6,-19.7784"/>
<polygon fill="midnightblue" stroke="midnightblue" points="1645.2,-116.951 1635.25,-120.585 1645.29,-123.951 1645.2,-116.951"/>
</g>
<!-- Node11 -->
<g id="node24" class="node"><title>Node11</title>
<a xlink:href="_s_l_c_v_feature_manager_8cpp.html" target="_top" xlink:title="SLCVFeatureManager.cpp">
<polygon fill="white" stroke="black" points="340.5,-0.5 340.5,-19.5 481.5,-19.5 481.5,-0.5 340.5,-0.5"/>
<text text-anchor="middle" x="411" y="-7.5" font-family="Arial.ttf" font-size="10.00">SLCVFeatureManager.cpp</text>
</a>
</g>
<!-- Node9&#45;&gt;Node11 -->
<g id="edge26" class="edge"><title>Node9&#45;&gt;Node11</title>
<path fill="none" stroke="midnightblue" d="M1556.65,-121.036C1344.74,-120.992 443.755,-118.314 403,-76 388.329,-60.7681 399.2,-33.357 406.242,-19.5054"/>
<polygon fill="midnightblue" stroke="midnightblue" points="1556.79,-124.535 1566.79,-121.036 1556.79,-117.535 1556.79,-124.535"/>
</g>
<!-- Node12 -->
<g id="node26" class="node"><title>Node12</title>
<a xlink:href="_s_l_g_l_im_gui_8cpp.html" target="_top" xlink:title="SLGLImGui.cpp">
<polygon fill="white" stroke="black" points="420.5,-56.5 420.5,-75.5 509.5,-75.5 509.5,-56.5 420.5,-56.5"/>
<text text-anchor="middle" x="465" y="-63.5" font-family="Arial.ttf" font-size="10.00">SLGLImGui.cpp</text>
</a>
</g>
<!-- Node9&#45;&gt;Node12 -->
<g id="edge28" class="edge"><title>Node9&#45;&gt;Node12</title>
<path fill="none" stroke="midnightblue" d="M1556.75,-121.116C1409.14,-121.086 920.315,-117.627 519,-76 515.975,-75.6862 512.862,-75.3102 509.731,-74.8925"/>
<polygon fill="midnightblue" stroke="midnightblue" points="1556.78,-124.616 1566.78,-121.113 1556.78,-117.616 1556.78,-124.616"/>
</g>
<!-- Node13 -->
<g id="node28" class="node"><title>Node13</title>
<a xlink:href="_s_l_g_l_oculus_8cpp.html" target="_top" xlink:title="SLGLOculus.cpp">
<polygon fill="white" stroke="black" points="528,-56.5 528,-75.5 622,-75.5 622,-56.5 528,-56.5"/>
<text text-anchor="middle" x="575" y="-63.5" font-family="Arial.ttf" font-size="10.00">SLGLOculus.cpp</text>
</a>
</g>
<!-- Node9&#45;&gt;Node13 -->
<g id="edge30" class="edge"><title>Node9&#45;&gt;Node13</title>
<path fill="none" stroke="midnightblue" d="M1556.82,-120.725C1419.32,-119.489 986.88,-112.734 631,-76 628.062,-75.6967 625.043,-75.3409 622.003,-74.949"/>
<polygon fill="midnightblue" stroke="midnightblue" points="1556.93,-124.226 1566.96,-120.811 1556.99,-117.226 1556.93,-124.226"/>
</g>
<!-- Node14 -->
<g id="node30" class="node"><title>Node14</title>
<a xlink:href="_s_l_g_l_oculus_f_b_8cpp.html" target="_top" xlink:title="SLGLOculusFB.cpp">
<polygon fill="white" stroke="black" points="640,-56.5 640,-75.5 746,-75.5 746,-56.5 640,-56.5"/>
<text text-anchor="middle" x="693" y="-63.5" font-family="Arial.ttf" font-size="10.00">SLGLOculusFB.cpp</text>
</a>
</g>
<!-- Node9&#45;&gt;Node14 -->
<g id="edge32" class="edge"><title>Node9&#45;&gt;Node14</title>
<path fill="none" stroke="midnightblue" d="M1556.64,-120.063C1430.77,-117.097 1060.73,-106.258 755,-76 752.078,-75.7108 749.082,-75.3824 746.061,-75.0265"/>
<polygon fill="midnightblue" stroke="midnightblue" points="1556.59,-123.563 1566.67,-120.294 1556.75,-116.564 1556.59,-123.563"/>
</g>
<!-- Node15 -->
<g id="node32" class="node"><title>Node15</title>
<a xlink:href="_s_l_g_l_program_8cpp.html" target="_top" xlink:title="SLGLProgram.cpp">
<polygon fill="white" stroke="black" points="764.5,-56.5 764.5,-75.5 867.5,-75.5 867.5,-56.5 764.5,-56.5"/>
<text text-anchor="middle" x="816" y="-63.5" font-family="Arial.ttf" font-size="10.00">SLGLProgram.cpp</text>
</a>
</g>
<!-- Node9&#45;&gt;Node15 -->
<g id="edge34" class="edge"><title>Node9&#45;&gt;Node15</title>
<path fill="none" stroke="midnightblue" d="M1556.98,-119.559C1443.87,-115.576 1133.89,-102.886 877,-76 873.912,-75.6769 870.742,-75.3114 867.546,-74.9175"/>
<polygon fill="midnightblue" stroke="midnightblue" points="1556.87,-123.057 1566.99,-119.907 1557.12,-116.062 1556.87,-123.057"/>
</g>
<!-- Node16 -->
<g id="node34" class="node"><title>Node16</title>
<a xlink:href="_s_l_g_l_texture_8cpp.html" target="_top" xlink:title="SLGLTexture.cpp">
<polygon fill="white" stroke="black" points="886,-56.5 886,-75.5 984,-75.5 984,-56.5 886,-56.5"/>
<text text-anchor="middle" x="935" y="-63.5" font-family="Arial.ttf" font-size="10.00">SLGLTexture.cpp</text>
</a>
</g>
<!-- Node9&#45;&gt;Node16 -->
<g id="edge36" class="edge"><title>Node9&#45;&gt;Node16</title>
<path fill="none" stroke="midnightblue" d="M1556.89,-118.949C1456.53,-114.016 1203.49,-100.082 993,-76 990.064,-75.6641 987.049,-75.2888 984.01,-74.8874"/>
<polygon fill="midnightblue" stroke="midnightblue" points="1556.8,-122.448 1566.96,-119.439 1557.14,-115.457 1556.8,-122.448"/>
</g>
<!-- Node17 -->
<g id="node36" class="node"><title>Node17</title>
<a xlink:href="_s_l_g_l_vertex_array_8cpp.html" target="_top" xlink:title="SLGLVertexArray.cpp">
<polygon fill="white" stroke="black" points="1002.5,-56.5 1002.5,-75.5 1121.5,-75.5 1121.5,-56.5 1002.5,-56.5"/>
<text text-anchor="middle" x="1062" y="-63.5" font-family="Arial.ttf" font-size="10.00">SLGLVertexArray.cpp</text>
</a>
</g>
<!-- Node9&#45;&gt;Node17 -->
<g id="edge38" class="edge"><title>Node9&#45;&gt;Node17</title>
<path fill="none" stroke="midnightblue" d="M1556.62,-117.261C1473.17,-110.118 1287.22,-93.6618 1131,-76 1128,-75.6607 1124.93,-75.3019 1121.82,-74.9305"/>
<polygon fill="midnightblue" stroke="midnightblue" points="1556.49,-120.763 1566.75,-118.126 1557.09,-113.788 1556.49,-120.763"/>
</g>
<!-- Node18 -->
<g id="node38" class="node"><title>Node18</title>
<a xlink:href="_s_l_g_l_vertex_array_ext_8cpp.html" target="_top" xlink:title="SLGLVertexArrayExt.cpp">
<polygon fill="white" stroke="black" points="1140,-56.5 1140,-75.5 1274,-75.5 1274,-56.5 1140,-56.5"/>
<text text-anchor="middle" x="1207" y="-63.5" font-family="Arial.ttf" font-size="10.00">SLGLVertexArrayExt.cpp</text>
</a>
</g>
<!-- Node9&#45;&gt;Node18 -->
<g id="edge40" class="edge"><title>Node9&#45;&gt;Node18</title>
<path fill="none" stroke="midnightblue" d="M1556.44,-114.893C1486.16,-105.26 1349.33,-86.5078 1269.34,-75.5435"/>
<polygon fill="midnightblue" stroke="midnightblue" points="1556.34,-118.412 1566.72,-116.302 1557.29,-111.477 1556.34,-118.412"/>
</g>
<!-- Node19 -->
<g id="node40" class="node"><title>Node19</title>
<a xlink:href="_s_l_g_l_vertex_buffer_8cpp.html" target="_top" xlink:title="SLGLVertexBuffer.cpp">
<polygon fill="white" stroke="black" points="1292,-56.5 1292,-75.5 1414,-75.5 1414,-56.5 1292,-56.5"/>
<text text-anchor="middle" x="1353" y="-63.5" font-family="Arial.ttf" font-size="10.00">SLGLVertexBuffer.cpp</text>
</a>
</g>
<!-- Node9&#45;&gt;Node19 -->
<g id="edge42" class="edge"><title>Node9&#45;&gt;Node19</title>
<path fill="none" stroke="midnightblue" d="M1556.93,-111.405C1510.17,-101.224 1436.99,-85.2881 1392.18,-75.5313"/>
<polygon fill="midnightblue" stroke="midnightblue" points="1556.26,-114.84 1566.78,-113.548 1557.75,-108.001 1556.26,-114.84"/>
</g>
<!-- Node20 -->
<g id="node42" class="node"><title>Node20</title>
<a xlink:href="_s_l_curve_bezier_8cpp.html" target="_top" xlink:title="SLCurveBezier.cpp">
<polygon fill="white" stroke="black" points="1432.5,-56.5 1432.5,-75.5 1539.5,-75.5 1539.5,-56.5 1432.5,-56.5"/>
<text text-anchor="middle" x="1486" y="-63.5" font-family="Arial.ttf" font-size="10.00">SLCurveBezier.cpp</text>
</a>
</g>
<!-- Node9&#45;&gt;Node20 -->
<g id="edge44" class="edge"><title>Node9&#45;&gt;Node20</title>
<path fill="none" stroke="midnightblue" d="M1573.52,-108.096C1552.03,-98.0073 1522.78,-84.2697 1504.14,-75.5164"/>
<polygon fill="midnightblue" stroke="midnightblue" points="1572.24,-111.361 1582.78,-112.444 1575.21,-105.025 1572.24,-111.361"/>
</g>
<!-- Node21 -->
<g id="node45" class="node"><title>Node21</title>
<a xlink:href="_s_l_interface_8cpp.html" target="_top" xlink:title="SLProject C&#45;functions interface implementation.">
<polygon fill="white" stroke="black" points="2676.5,-0.5 2676.5,-19.5 2767.5,-19.5 2767.5,-0.5 2676.5,-0.5"/>
<text text-anchor="middle" x="2722" y="-7.5" font-family="Arial.ttf" font-size="10.00">SLInterface.cpp</text>
</a>
</g>
<!-- Node9&#45;&gt;Node21 -->
<g id="edge48" class="edge"><title>Node9&#45;&gt;Node21</title>
<path fill="none" stroke="midnightblue" d="M1645.31,-120.863C1809.26,-120.055 2381.25,-114.48 2559,-76 2615.28,-63.8171 2677.3,-34.1942 2705.91,-19.5229"/>
<polygon fill="midnightblue" stroke="midnightblue" points="1645.09,-117.364 1635.11,-120.91 1645.12,-124.364 1645.09,-117.364"/>
</g>
<!-- Node22 -->
<g id="node47" class="node"><title>Node22</title>
<a xlink:href="_s_l_tex_font_8cpp.html" target="_top" xlink:title="SLTexFont.cpp">
<polygon fill="white" stroke="black" points="1558,-56.5 1558,-75.5 1644,-75.5 1644,-56.5 1558,-56.5"/>
<text text-anchor="middle" x="1601" y="-63.5" font-family="Arial.ttf" font-size="10.00">SLTexFont.cpp</text>
</a>
</g>
<!-- Node9&#45;&gt;Node22 -->
<g id="edge50" class="edge"><title>Node9&#45;&gt;Node22</title>
<path fill="none" stroke="midnightblue" d="M1601,-101.805C1601,-92.9102 1601,-82.7798 1601,-75.7511"/>
<polygon fill="midnightblue" stroke="midnightblue" points="1597.5,-102.083 1601,-112.083 1604.5,-102.083 1597.5,-102.083"/>
</g>
<!-- Node23 -->
<g id="node49" class="node"><title>Node23</title>
<a xlink:href="_s_l_a_a_b_box_8cpp.html" target="_top" xlink:title="SLAABBox.cpp">
<polygon fill="white" stroke="black" points="1662.5,-56.5 1662.5,-75.5 1749.5,-75.5 1749.5,-56.5 1662.5,-56.5"/>
<text text-anchor="middle" x="1706" y="-63.5" font-family="Arial.ttf" font-size="10.00">SLAABBox.cpp</text>
</a>
</g>
<!-- Node9&#45;&gt;Node23 -->
<g id="edge52" class="edge"><title>Node9&#45;&gt;Node23</title>
<path fill="none" stroke="midnightblue" d="M1626.81,-107.726C1646.25,-97.7271 1672.35,-84.3065 1689.17,-75.6545"/>
<polygon fill="midnightblue" stroke="midnightblue" points="1625.16,-104.638 1617.87,-112.324 1628.36,-110.863 1625.16,-104.638"/>
</g>
<!-- Node24 -->
<g id="node51" class="node"><title>Node24</title>
<a xlink:href="_s_l_animation_8cpp.html" target="_top" xlink:title="SLAnimation.cpp">
<polygon fill="white" stroke="black" points="1768,-56.5 1768,-75.5 1866,-75.5 1866,-56.5 1768,-56.5"/>
<text text-anchor="middle" x="1817" y="-63.5" font-family="Arial.ttf" font-size="10.00">SLAnimation.cpp</text>
</a>
</g>
<!-- Node9&#45;&gt;Node24 -->
<g id="edge54" class="edge"><title>Node9&#45;&gt;Node24</title>
<path fill="none" stroke="midnightblue" d="M1645.16,-109.959C1685.96,-99.7598 1745.71,-84.8217 1782.93,-75.5164"/>
<polygon fill="midnightblue" stroke="midnightblue" points="1644.08,-106.623 1635.23,-112.444 1645.78,-113.414 1644.08,-106.623"/>
</g>
<!-- Node25 -->
<g id="node53" class="node"><title>Node25</title>
<a xlink:href="_s_l_anim_manager_8cpp.html" target="_top" xlink:title="SLAnimManager.cpp">
<polygon fill="white" stroke="black" points="1884,-56.5 1884,-75.5 2000,-75.5 2000,-56.5 1884,-56.5"/>
<text text-anchor="middle" x="1942" y="-63.5" font-family="Arial.ttf" font-size="10.00">SLAnimManager.cpp</text>
</a>
</g>
<!-- Node9&#45;&gt;Node25 -->
<g id="edge56" class="edge"><title>Node9&#45;&gt;Node25</title>
<path fill="none" stroke="midnightblue" d="M1645.17,-114.005C1707.5,-104.134 1821.14,-86.1399 1888.27,-75.5081"/>
<polygon fill="midnightblue" stroke="midnightblue" points="1644.59,-110.554 1635.26,-115.575 1645.68,-117.468 1644.59,-110.554"/>
</g>
<!-- Node26 -->
<g id="node55" class="node"><title>Node26</title>
<a xlink:href="_s_l_background_8cpp.html" target="_top" xlink:title="SLBackground.cpp">
<polygon fill="white" stroke="black" points="2018,-56.5 2018,-75.5 2124,-75.5 2124,-56.5 2018,-56.5"/>
<text text-anchor="middle" x="2071" y="-63.5" font-family="Arial.ttf" font-size="10.00">SLBackground.cpp</text>
</a>
</g>
<!-- Node9&#45;&gt;Node26 -->
<g id="edge58" class="edge"><title>Node9&#45;&gt;Node26</title>
<path fill="none" stroke="midnightblue" d="M1645.19,-116.628C1720.11,-109.103 1876.84,-92.8751 2009,-76 2011.91,-75.628 2014.9,-75.2344 2017.92,-74.8279"/>
<polygon fill="midnightblue" stroke="midnightblue" points="1644.77,-113.152 1635.17,-117.632 1645.47,-120.118 1644.77,-113.152"/>
</g>
<!-- Node27 -->
<g id="node57" class="node"><title>Node27</title>
<a xlink:href="_s_l_demo_gui_8cpp.html" target="_top" xlink:title="SLDemoGui.cpp">
<polygon fill="white" stroke="black" points="228,-0.5 228,-19.5 322,-19.5 322,-0.5 228,-0.5"/>
<text text-anchor="middle" x="275" y="-7.5" font-family="Arial.ttf" font-size="10.00">SLDemoGui.cpp</text>
</a>
</g>
<!-- Node9&#45;&gt;Node27 -->
<g id="edge60" class="edge"><title>Node9&#45;&gt;Node27</title>
<path fill="none" stroke="midnightblue" d="M1556.68,-120.573C1352.28,-118.438 505.719,-107.736 392,-76 349.699,-64.1949 306.086,-34.3919 286.155,-19.6005"/>
<polygon fill="midnightblue" stroke="midnightblue" points="1556.72,-124.073 1566.75,-120.676 1556.79,-117.074 1556.72,-124.073"/>
</g>
<!-- Node28 -->
<g id="node59" class="node"><title>Node28</title>
<a xlink:href="_s_l_input_manager_8cpp.html" target="_top" xlink:title="SLInputManager.cpp">
<polygon fill="white" stroke="black" points="895.5,-0.5 895.5,-19.5 1010.5,-19.5 1010.5,-0.5 895.5,-0.5"/>
<text text-anchor="middle" x="953" y="-7.5" font-family="Arial.ttf" font-size="10.00">SLInputManager.cpp</text>
</a>
</g>
<!-- Node9&#45;&gt;Node28 -->
<g id="edge62" class="edge"><title>Node9&#45;&gt;Node28</title>
<path fill="none" stroke="midnightblue" d="M1556.61,-121.024C1345.47,-120.924 451.455,-118.014 411,-76 404.835,-69.597 404.98,-62.5403 411,-56 443.292,-20.9162 762.083,-13.1811 895.136,-11.4789"/>
<polygon fill="midnightblue" stroke="midnightblue" points="1556.71,-124.524 1566.71,-121.027 1556.71,-117.524 1556.71,-124.524"/>
</g>
<!-- Node29 -->
<g id="node61" class="node"><title>Node29</title>
<a xlink:href="_s_l_light_direct_8cpp.html" target="_top" xlink:title="SLLightDirect.cpp">
<polygon fill="white" stroke="black" points="2214.5,-0.5 2214.5,-19.5 2315.5,-19.5 2315.5,-0.5 2214.5,-0.5"/>
<text text-anchor="middle" x="2265" y="-7.5" font-family="Arial.ttf" font-size="10.00">SLLightDirect.cpp</text>
</a>
</g>
<!-- Node9&#45;&gt;Node29 -->
<g id="edge64" class="edge"><title>Node9&#45;&gt;Node29</title>
<path fill="none" stroke="midnightblue" d="M1645.06,-120.394C1818.37,-117.796 2445.19,-106.329 2474,-76 2480.12,-69.5549 2479.58,-62.9153 2474,-56 2468.86,-49.6384 2371.73,-30.7064 2311.72,-19.5283"/>
<polygon fill="midnightblue" stroke="midnightblue" points="1644.96,-116.894 1635.01,-120.542 1645.06,-123.894 1644.96,-116.894"/>
</g>
<!-- Node30 -->
<g id="node63" class="node"><title>Node30</title>
<a xlink:href="_s_l_light_rect_8cpp.html" target="_top" xlink:title="SLLightRect.cpp">
<polygon fill="white" stroke="black" points="2333.5,-0.5 2333.5,-19.5 2426.5,-19.5 2426.5,-0.5 2333.5,-0.5"/>
<text text-anchor="middle" x="2380" y="-7.5" font-family="Arial.ttf" font-size="10.00">SLLightRect.cpp</text>
</a>
</g>
<!-- Node9&#45;&gt;Node30 -->
<g id="edge66" class="edge"><title>Node9&#45;&gt;Node30</title>
<path fill="none" stroke="midnightblue" d="M1645.33,-120.435C1821.18,-117.98 2461.59,-106.938 2491,-76 2516.47,-49.2142 2462.61,-29.8954 2421.36,-19.5839"/>
<polygon fill="midnightblue" stroke="midnightblue" points="1645.09,-116.938 1635.14,-120.575 1645.19,-123.937 1645.09,-116.938"/>
</g>
<!-- Node31 -->
<g id="node65" class="node"><title>Node31</title>
<a xlink:href="_s_l_light_spot_8cpp.html" target="_top" xlink:title="SLLightSpot.cpp">
<polygon fill="white" stroke="black" points="2444.5,-0.5 2444.5,-19.5 2539.5,-19.5 2539.5,-0.5 2444.5,-0.5"/>
<text text-anchor="middle" x="2492" y="-7.5" font-family="Arial.ttf" font-size="10.00">SLLightSpot.cpp</text>
</a>
</g>
<!-- Node9&#45;&gt;Node31 -->
<g id="edge68" class="edge"><title>Node9&#45;&gt;Node31</title>
<path fill="none" stroke="midnightblue" d="M1645.06,-120.485C1822.8,-118.194 2478.91,-107.616 2509,-76 2523.8,-60.4528 2508.54,-33.6756 2498.79,-19.8432"/>
<polygon fill="midnightblue" stroke="midnightblue" points="1644.97,-116.985 1635.02,-120.612 1645.06,-123.985 1644.97,-116.985"/>
</g>
<!-- Node32 -->
<g id="node67" class="node"><title>Node32</title>
<a xlink:href="_s_l_scene_8cpp.html" target="_top" xlink:title="SLScene.cpp">
<polygon fill="white" stroke="black" points="2785.5,-0.5 2785.5,-19.5 2864.5,-19.5 2864.5,-0.5 2785.5,-0.5"/>
<text text-anchor="middle" x="2825" y="-7.5" font-family="Arial.ttf" font-size="10.00">SLScene.cpp</text>
</a>
</g>
<!-- Node9&#45;&gt;Node32 -->
<g id="edge70" class="edge"><title>Node9&#45;&gt;Node32</title>
<path fill="none" stroke="midnightblue" d="M1645.15,-120.452C1813.77,-118.14 2417.05,-107.78 2606,-76 2679.72,-63.6001 2763.62,-34.2194 2802.73,-19.5877"/>
<polygon fill="midnightblue" stroke="midnightblue" points="1645.09,-116.953 1635.14,-120.587 1645.19,-123.952 1645.09,-116.953"/>
</g>
<!-- Node33 -->
<g id="node69" class="node"><title>Node33</title>
<a xlink:href="_s_l_scene__on_load_8cpp.html" target="_top" xlink:title="SLScene_onLoad.cpp">
<polygon fill="white" stroke="black" points="2882.5,-0.5 2882.5,-19.5 3001.5,-19.5 3001.5,-0.5 2882.5,-0.5"/>
<text text-anchor="middle" x="2942" y="-7.5" font-family="Arial.ttf" font-size="10.00">SLScene_onLoad.cpp</text>
</a>
</g>
<!-- Node9&#45;&gt;Node33 -->
<g id="edge72" class="edge"><title>Node9&#45;&gt;Node33</title>
<path fill="none" stroke="midnightblue" d="M1645.27,-120.225C1819.95,-116.999 2461.53,-103.492 2663,-76 2755.89,-63.3246 2863.25,-34.0741 2913.41,-19.5302"/>
<polygon fill="midnightblue" stroke="midnightblue" points="1645.1,-116.728 1635.16,-120.41 1645.22,-123.727 1645.1,-116.728"/>
</g>
<!-- Node34 -->
<g id="node71" class="node"><title>Node34</title>
<a xlink:href="_s_l_skeleton_8cpp.html" target="_top" xlink:title="SLSkeleton.cpp">
<polygon fill="white" stroke="black" points="118.5,-0.5 118.5,-19.5 209.5,-19.5 209.5,-0.5 118.5,-0.5"/>
<text text-anchor="middle" x="164" y="-7.5" font-family="Arial.ttf" font-size="10.00">SLSkeleton.cpp</text>
</a>
</g>
<!-- Node9&#45;&gt;Node34 -->
<g id="edge74" class="edge"><title>Node9&#45;&gt;Node34</title>
<path fill="none" stroke="midnightblue" d="M1556.55,-121.288C1361.56,-122.263 580.911,-123.091 341,-76 280.288,-64.0831 212.746,-34.3334 181.55,-19.5776"/>
<polygon fill="midnightblue" stroke="midnightblue" points="1556.73,-124.787 1566.71,-121.234 1556.69,-117.787 1556.73,-124.787"/>
</g>
<!-- Node35 -->
<g id="node73" class="node"><title>Node35</title>
<a xlink:href="_s_l_text_8cpp.html" target="_top" xlink:title="SLText.cpp">
<polygon fill="white" stroke="black" points="2142.5,-56.5 2142.5,-75.5 2211.5,-75.5 2211.5,-56.5 2142.5,-56.5"/>
<text text-anchor="middle" x="2177" y="-63.5" font-family="Arial.ttf" font-size="10.00">SLText.cpp</text>
</a>
</g>
<!-- Node9&#45;&gt;Node35 -->
<g id="edge76" class="edge"><title>Node9&#45;&gt;Node35</title>
<path fill="none" stroke="midnightblue" d="M1645.07,-119.025C1736.44,-114.545 1953.01,-101.929 2133,-76 2136.09,-75.5553 2139.28,-75.0298 2142.48,-74.4597"/>
<polygon fill="midnightblue" stroke="midnightblue" points="1644.9,-115.529 1635.08,-119.507 1645.23,-122.521 1644.9,-115.529"/>
</g>
<!-- Node36 -->
<g id="node75" class="node"><title>Node36</title>
<a xlink:href="_s_l_transfer_function_8cpp.html" target="_top" xlink:title="SLTransferFunction.cpp">
<polygon fill="white" stroke="black" points="2230,-56.5 2230,-75.5 2358,-75.5 2358,-56.5 2230,-56.5"/>
<text text-anchor="middle" x="2294" y="-63.5" font-family="Arial.ttf" font-size="10.00">SLTransferFunction.cpp</text>
</a>
</g>
<!-- Node9&#45;&gt;Node36 -->
<g id="edge78" class="edge"><title>Node9&#45;&gt;Node36</title>
<path fill="none" stroke="midnightblue" d="M1645.49,-118.508C1747.3,-112.642 2005.07,-96.8698 2220,-76 2223.22,-75.6873 2226.52,-75.3498 2229.85,-74.9954"/>
<polygon fill="midnightblue" stroke="midnightblue" points="1645.06,-115.027 1635.27,-119.093 1645.46,-122.015 1645.06,-115.027"/>
</g>
<!-- Node37 -->
<g id="node77" class="node"><title>Node37</title>
<a xlink:href="_s_l_scene_view_8h.html" target="_top" xlink:title="SLSceneView.h">
<polygon fill="white" stroke="red" points="2376.5,-56.5 2376.5,-75.5 2465.5,-75.5 2465.5,-56.5 2376.5,-56.5"/>
<text text-anchor="middle" x="2421" y="-63.5" font-family="Arial.ttf" font-size="10.00">SLSceneView.h</text>
</a>
</g>
<!-- Node9&#45;&gt;Node37 -->
<g id="edge80" class="edge"><title>Node9&#45;&gt;Node37</title>
<path fill="none" stroke="midnightblue" d="M1645.15,-120.05C1762.82,-117.163 2093.61,-106.725 2367,-76 2370.02,-75.6603 2373.13,-75.265 2376.26,-74.8331"/>
<polygon fill="midnightblue" stroke="midnightblue" points="1645,-116.552 1635.09,-120.291 1645.17,-123.55 1645,-116.552"/>
</g>
<!-- Node37&#45;&gt;Node2 -->
<g id="edge94" class="edge"><title>Node37&#45;&gt;Node2</title>
<path fill="none" stroke="midnightblue" d="M2366.09,-56.0819C1709.81,5.83587 1540.83,-36.7027 886,-20 783.902,-17.3958 664.411,-14.1601 598.676,-12.3639"/>
<polygon fill="midnightblue" stroke="midnightblue" points="2365.99,-59.5879 2376.27,-57.0475 2366.65,-52.6192 2365.99,-59.5879"/>
</g>
<!-- Node37&#45;&gt;Node6 -->
<g id="edge112" class="edge"><title>Node37&#45;&gt;Node6</title>
<path fill="none" stroke="midnightblue" d="M2475.8,-62.8822C2580.14,-58.3916 2814.43,-46.1111 3010,-20 3013.21,-19.5712 3016.54,-19.0642 3019.86,-18.5127"/>
<polygon fill="midnightblue" stroke="midnightblue" points="2475.35,-59.3976 2465.51,-63.3175 2475.65,-66.3914 2475.35,-59.3976"/>
</g>
<!-- Node37&#45;&gt;Node7 -->
<g id="edge122" class="edge"><title>Node37&#45;&gt;Node7</title>
<path fill="none" stroke="midnightblue" d="M2365.96,-56.0854C1365.65,33.8097 1105.75,-103.582 109,-20 106.315,-19.7749 103.568,-19.5027 100.797,-19.1952"/>
<polygon fill="midnightblue" stroke="midnightblue" points="2366,-59.6036 2376.28,-57.0184 2366.63,-52.632 2366,-59.6036"/>
</g>
<!-- Node37&#45;&gt;Node10 -->
<g id="edge82" class="edge"><title>Node37&#45;&gt;Node10</title>
<path fill="none" stroke="midnightblue" d="M2460.59,-53.5677C2495.87,-43.381 2546.69,-28.7034 2578.51,-19.5164"/>
<polygon fill="midnightblue" stroke="midnightblue" points="2459.27,-50.3065 2450.63,-56.4435 2461.21,-57.0317 2459.27,-50.3065"/>
</g>
<!-- Node37&#45;&gt;Node11 -->
<g id="edge84" class="edge"><title>Node37&#45;&gt;Node11</title>
<path fill="none" stroke="midnightblue" d="M2366.15,-56.0976C1534.43,20.0181 1319.19,-75.061 490,-20 487.245,-19.8171 484.439,-19.6078 481.605,-19.3774"/>
<polygon fill="midnightblue" stroke="midnightblue" points="2366,-59.5979 2376.28,-57.0296 2366.64,-52.6274 2366,-59.5979"/>
</g>
<!-- Node37&#45;&gt;Node21 -->
<g id="edge92" class="edge"><title>Node37&#45;&gt;Node21</title>
<path fill="none" stroke="midnightblue" d="M2475.71,-55.1848C2533.07,-44.8951 2622.18,-28.9075 2676.03,-19.2475"/>
<polygon fill="midnightblue" stroke="midnightblue" points="2474.96,-51.7631 2465.74,-56.974 2476.2,-58.6531 2474.96,-51.7631"/>
</g>
<!-- Node37&#45;&gt;Node27 -->
<g id="edge98" class="edge"><title>Node37&#45;&gt;Node27</title>
<path fill="none" stroke="midnightblue" d="M2366.3,-56.1139C1464.03,25.6929 1229.19,-99.7119 331,-20 328.156,-19.7476 325.237,-19.4368 322.297,-19.0842"/>
<polygon fill="midnightblue" stroke="midnightblue" points="2366,-59.601 2376.28,-57.0244 2366.64,-52.6299 2366,-59.601"/>
</g>
<!-- Node37&#45;&gt;Node28 -->
<g id="edge100" class="edge"><title>Node37&#45;&gt;Node28</title>
<path fill="none" stroke="midnightblue" d="M2366.25,-56.2772C2234.86,-47.4236 1259.27,-19.6302 1010.55,-12.6166"/>
<polygon fill="midnightblue" stroke="midnightblue" points="2366.03,-59.7707 2376.27,-57.0736 2366.58,-52.7927 2366.03,-59.7707"/>
</g>
<!-- Node37&#45;&gt;Node29 -->
<g id="edge102" class="edge"><title>Node37&#45;&gt;Node29</title>
<path fill="none" stroke="midnightblue" d="M2386.83,-53.172C2357.46,-43.0039 2315.8,-28.5852 2289.6,-19.5164"/>
<polygon fill="midnightblue" stroke="midnightblue" points="2385.69,-56.4798 2396.28,-56.4435 2387.98,-49.8649 2385.69,-56.4798"/>
</g>
<!-- Node37&#45;&gt;Node30 -->
<g id="edge104" class="edge"><title>Node37&#45;&gt;Node30</title>
<path fill="none" stroke="midnightblue" d="M2407.98,-47.8554C2400.88,-38.5048 2392.4,-27.3265 2386.64,-19.7511"/>
<polygon fill="midnightblue" stroke="midnightblue" points="2405.39,-50.235 2414.23,-56.083 2410.97,-46.002 2405.39,-50.235"/>
</g>
<!-- Node37&#45;&gt;Node31 -->
<g id="edge106" class="edge"><title>Node37&#45;&gt;Node31</title>
<path fill="none" stroke="midnightblue" d="M2440.59,-50.1008C2453.37,-40.3824 2469.61,-28.0269 2480.39,-19.8339"/>
<polygon fill="midnightblue" stroke="midnightblue" points="2438.25,-47.4844 2432.41,-56.324 2442.49,-53.0561 2438.25,-47.4844"/>
</g>
<!-- Node37&#45;&gt;Node32 -->
<g id="edge118" class="edge"><title>Node37&#45;&gt;Node32</title>
<path fill="none" stroke="midnightblue" d="M2475.99,-58.9891C2545.88,-51.1293 2670.16,-36.4149 2776,-20 2779.08,-19.5228 2782.26,-19.0018 2785.45,-18.4588"/>
<polygon fill="midnightblue" stroke="midnightblue" points="2475.21,-55.5538 2465.66,-60.1446 2475.99,-62.5104 2475.21,-55.5538"/>
</g>
<!-- Node37&#45;&gt;Node33 -->
<g id="edge120" class="edge"><title>Node37&#45;&gt;Node33</title>
<path fill="none" stroke="midnightblue" d="M2475.84,-60.0837C2560.94,-52.3317 2729.92,-36.45 2873,-20 2876,-19.655 2879.07,-19.2916 2882.17,-18.9167"/>
<polygon fill="midnightblue" stroke="midnightblue" points="2475.28,-56.6201 2465.64,-61.0107 2475.91,-63.5914 2475.28,-56.6201"/>
</g>
<!-- Node37&#45;&gt;Node34 -->
<g id="edge124" class="edge"><title>Node37&#45;&gt;Node34</title>
<path fill="none" stroke="midnightblue" d="M2366.11,-56.0978C1414.39,29.7623 1166.61,-105.018 219,-20 215.916,-19.7233 212.744,-19.3752 209.554,-18.9778"/>
<polygon fill="midnightblue" stroke="midnightblue" points="2366,-59.6025 2376.28,-57.0212 2366.63,-52.6312 2366,-59.6025"/>
</g>
<!-- Node38 -->
<g id="node81" class="node"><title>Node38</title>
<a xlink:href="_s_l_c_v_tracked_aruco_8cpp.html" target="_top" xlink:title="SLCVTrackedAruco.cpp">
<polygon fill="white" stroke="black" points="1631,-0.5 1631,-19.5 1759,-19.5 1759,-0.5 1631,-0.5"/>
<text text-anchor="middle" x="1695" y="-7.5" font-family="Arial.ttf" font-size="10.00">SLCVTrackedAruco.cpp</text>
</a>
</g>
<!-- Node37&#45;&gt;Node38 -->
<g id="edge86" class="edge"><title>Node37&#45;&gt;Node38</title>
<path fill="none" stroke="midnightblue" d="M2366.31,-56.0533C2100.29,-26.4761 2030.35,-44.032 1768,-20 1765.08,-19.7321 1762.09,-19.4397 1759.07,-19.1293"/>
<polygon fill="midnightblue" stroke="midnightblue" points="2365.93,-59.533 2376.26,-57.1716 2366.72,-52.5768 2365.93,-59.533"/>
</g>
<!-- Node39 -->
<g id="node83" class="node"><title>Node39</title>
<a xlink:href="_s_l_c_v_tracked_features_8cpp.html" target="_top" xlink:title="SLCVTrackedFeatures.cpp">
<polygon fill="white" stroke="black" points="1777,-0.5 1777,-19.5 1919,-19.5 1919,-0.5 1777,-0.5"/>
<text text-anchor="middle" x="1848" y="-7.5" font-family="Arial.ttf" font-size="10.00">SLCVTrackedFeatures.cpp</text>
</a>
</g>
<!-- Node37&#45;&gt;Node39 -->
<g id="edge88" class="edge"><title>Node37&#45;&gt;Node39</title>
<path fill="none" stroke="midnightblue" d="M2366.24,-56.0106C2171.03,-32.1144 2119.61,-38.6305 1928,-20 1925.08,-19.716 1922.1,-19.418 1919.09,-19.1102"/>
<polygon fill="midnightblue" stroke="midnightblue" points="2365.9,-59.4948 2376.25,-57.2472 2366.76,-52.5476 2365.9,-59.4948"/>
</g>
<!-- Node40 -->
<g id="node85" class="node"><title>Node40</title>
<a xlink:href="_s_l_8cpp.html" target="_top" xlink:title="SL.cpp">
<polygon fill="white" stroke="black" points="1937.5,-0.5 1937.5,-19.5 1986.5,-19.5 1986.5,-0.5 1937.5,-0.5"/>
<text text-anchor="middle" x="1962" y="-7.5" font-family="Arial.ttf" font-size="10.00">SL.cpp</text>
</a>
</g>
<!-- Node37&#45;&gt;Node40 -->
<g id="edge90" class="edge"><title>Node37&#45;&gt;Node40</title>
<path fill="none" stroke="midnightblue" d="M2366.2,-55.9959C2200.55,-34.9265 2155.19,-49.3754 1995,-20 1992.31,-19.5073 1989.53,-18.9011 1986.76,-18.238"/>
<polygon fill="midnightblue" stroke="midnightblue" points="2365.88,-59.4833 2376.25,-57.2979 2366.78,-52.5414 2365.88,-59.4833"/>
</g>
<!-- Node41 -->
<g id="node89" class="node"><title>Node41</title>
<a xlink:href="_s_l_camera_8cpp.html" target="_top" xlink:title="SLCamera.cpp">
<polygon fill="white" stroke="black" points="2004.5,-0.5 2004.5,-19.5 2091.5,-19.5 2091.5,-0.5 2004.5,-0.5"/>
<text text-anchor="middle" x="2048" y="-7.5" font-family="Arial.ttf" font-size="10.00">SLCamera.cpp</text>
</a>
</g>
<!-- Node37&#45;&gt;Node41 -->
<g id="edge96" class="edge"><title>Node37&#45;&gt;Node41</title>
<path fill="none" stroke="midnightblue" d="M2366.33,-55.9429C2246.94,-38.1456 2215.23,-37.7333 2100,-20 2097.28,-19.5819 2094.49,-19.1382 2091.67,-18.6807"/>
<polygon fill="midnightblue" stroke="midnightblue" points="2365.82,-59.4051 2376.23,-57.4278 2366.86,-52.4826 2365.82,-59.4051"/>
</g>
<!-- Node42 -->
<g id="node96" class="node"><title>Node42</title>
<a xlink:href="_s_l_material_8cpp.html" target="_top" xlink:title="SLMaterial.cpp">
<polygon fill="white" stroke="black" points="2109.5,-0.5 2109.5,-19.5 2196.5,-19.5 2196.5,-0.5 2109.5,-0.5"/>
<text text-anchor="middle" x="2153" y="-7.5" font-family="Arial.ttf" font-size="10.00">SLMaterial.cpp</text>
</a>
</g>
<!-- Node37&#45;&gt;Node42 -->
<g id="edge108" class="edge"><title>Node37&#45;&gt;Node42</title>
<path fill="none" stroke="midnightblue" d="M2368.44,-54.4096C2317.79,-44.2042 2242.13,-28.9597 2195.27,-19.5164"/>
<polygon fill="midnightblue" stroke="midnightblue" points="2368.04,-57.8993 2378.53,-56.4435 2369.42,-51.0372 2368.04,-57.8993"/>
</g>
<!-- Node43 -->
<g id="node98" class="node"><title>Node43</title>
<a xlink:href="_s_l_mesh_8cpp.html" target="_top" xlink:title="SLMesh.cpp">
<polygon fill="white" stroke="black" points="1308,-0.5 1308,-19.5 1382,-19.5 1382,-0.5 1308,-0.5"/>
<text text-anchor="middle" x="1345" y="-7.5" font-family="Arial.ttf" font-size="10.00">SLMesh.cpp</text>
</a>
</g>
<!-- Node37&#45;&gt;Node43 -->
<g id="edge110" class="edge"><title>Node37&#45;&gt;Node43</title>
<path fill="none" stroke="midnightblue" d="M2366.31,-56.0901C1933.41,-13.0951 1818.94,-69.4486 1391,-20 1388.09,-19.6637 1385.09,-19.2441 1382.08,-18.7711"/>
<polygon fill="midnightblue" stroke="midnightblue" points="2365.97,-59.5734 2376.27,-57.0911 2366.67,-52.6085 2365.97,-59.5734"/>
</g>
<!-- Node44 -->
<g id="node101" class="node"><title>Node44</title>
<a xlink:href="_s_l_pathtracer_8cpp.html" target="_top" xlink:title="SLPathtracer.cpp">
<polygon fill="white" stroke="black" points="1400.5,-0.5 1400.5,-19.5 1499.5,-19.5 1499.5,-0.5 1400.5,-0.5"/>
<text text-anchor="middle" x="1450" y="-7.5" font-family="Arial.ttf" font-size="10.00">SLPathtracer.cpp</text>
</a>
</g>
<!-- Node37&#45;&gt;Node44 -->
<g id="edge114" class="edge"><title>Node37&#45;&gt;Node44</title>
<path fill="none" stroke="midnightblue" d="M2366.07,-56.057C1985.18,-17.2274 1884.94,-57.0264 1508,-20 1505.26,-19.731 1502.46,-19.4187 1499.63,-19.0751"/>
<polygon fill="midnightblue" stroke="midnightblue" points="2365.96,-59.5644 2376.27,-57.1086 2366.68,-52.6013 2365.96,-59.5644"/>
</g>
<!-- Node45 -->
<g id="node103" class="node"><title>Node45</title>
<a xlink:href="_s_l_raytracer_8cpp.html" target="_top" xlink:title="SLRaytracer.cpp">
<polygon fill="white" stroke="black" points="1517.5,-0.5 1517.5,-19.5 1612.5,-19.5 1612.5,-0.5 1517.5,-0.5"/>
<text text-anchor="middle" x="1565" y="-7.5" font-family="Arial.ttf" font-size="10.00">SLRaytracer.cpp</text>
</a>
</g>
<!-- Node37&#45;&gt;Node45 -->
<g id="edge116" class="edge"><title>Node37&#45;&gt;Node45</title>
<path fill="none" stroke="midnightblue" d="M2365.92,-56.0317C2035.61,-21.3648 1948.38,-53.5527 1622,-20 1618.91,-19.6824 1615.73,-19.3097 1612.54,-18.9"/>
<polygon fill="midnightblue" stroke="midnightblue" points="2365.95,-59.5546 2376.27,-57.1308 2366.69,-52.5938 2365.95,-59.5546"/>
</g>
<!-- Node46&#45;&gt;Node4 -->
<g id="edge128" class="edge"><title>Node46&#45;&gt;Node4</title>
<path fill="none" stroke="midnightblue" d="M464.73,-232.006C785.056,-225.573 2521.14,-188.308 2750,-132 2770.47,-126.964 2773.42,-119.812 2793,-112 2828.79,-97.7207 2871.08,-84.0307 2898.44,-75.5779"/>
<polygon fill="midnightblue" stroke="midnightblue" points="464.295,-228.514 454.367,-232.214 464.435,-235.513 464.295,-228.514"/>
</g>
<!-- Node46&#45;&gt;Node8 -->
<g id="edge134" class="edge"><title>Node46&#45;&gt;Node8</title>
<path fill="none" stroke="midnightblue" d="M363.712,-224.87C301.33,-214.784 195.494,-197.673 132.227,-187.444"/>
<polygon fill="midnightblue" stroke="midnightblue" points="363.281,-228.345 373.712,-226.486 364.399,-221.435 363.281,-228.345"/>
</g>
<!-- Node46&#45;&gt;Node9 -->
<g id="edge156" class="edge"><title>Node46&#45;&gt;Node9</title>
<path fill="none" stroke="midnightblue" d="M422.69,-215.112C431.311,-199.581 446.108,-178.051 466,-168 516.329,-142.571 1382.94,-126.657 1566.87,-123.557"/>
<polygon fill="midnightblue" stroke="midnightblue" points="419.435,-213.785 417.925,-224.271 425.645,-217.015 419.435,-213.785"/>
</g>
<!-- Node46&#45;&gt;Node34 -->
<g id="edge132" class="edge"><title>Node46&#45;&gt;Node34</title>
<path fill="none" stroke="midnightblue" d="M363.483,-228.693C307.006,-222.845 220.382,-210.454 197,-188 148.525,-141.45 158.197,-48.2448 162.538,-19.5839"/>
<polygon fill="midnightblue" stroke="midnightblue" points="363.357,-232.197 373.655,-229.709 364.053,-225.232 363.357,-232.197"/>
</g>
<!-- Node47 -->
<g id="node112" class="node"><title>Node47</title>
<a xlink:href="_s_l_joint_8cpp.html" target="_top" xlink:title="SLJoint.cpp">
<polygon fill="white" stroke="black" points="344.5,-168.5 344.5,-187.5 413.5,-187.5 413.5,-168.5 344.5,-168.5"/>
<text text-anchor="middle" x="379" y="-175.5" font-family="Arial.ttf" font-size="10.00">SLJoint.cpp</text>
</a>
</g>
<!-- Node46&#45;&gt;Node47 -->
<g id="edge130" class="edge"><title>Node46&#45;&gt;Node47</title>
<path fill="none" stroke="midnightblue" d="M402.7,-215.566C396.678,-206.275 389.531,-195.248 384.672,-187.751"/>
<polygon fill="midnightblue" stroke="midnightblue" points="399.844,-217.595 408.22,-224.083 405.719,-213.788 399.844,-217.595"/>
</g>
<!-- Node48 -->
<g id="node116" class="node"><title>Node48</title>
<a xlink:href="_s_l_assimp_importer_8h.html" target="_top" xlink:title="SLAssimpImporter.h">
<polygon fill="white" stroke="black" points="2627,-112.5 2627,-131.5 2741,-131.5 2741,-112.5 2627,-112.5"/>
<text text-anchor="middle" x="2684" y="-119.5" font-family="Arial.ttf" font-size="10.00">SLAssimpImporter.h</text>
</a>
</g>
<!-- Node46&#45;&gt;Node48 -->
<g id="edge136" class="edge"><title>Node46&#45;&gt;Node48</title>
<path fill="none" stroke="midnightblue" d="M464.503,-230.553C764.421,-216.019 2309.15,-141.164 2626.84,-125.77"/>
<polygon fill="midnightblue" stroke="midnightblue" points="464.182,-227.064 454.364,-231.044 464.521,-234.056 464.182,-227.064"/>
</g>
<!-- Node49 -->
<g id="node122" class="node"><title>Node49</title>
<a xlink:href="_s_l_importer_8h.html" target="_top" xlink:title="SLImporter.h">
<polygon fill="white" stroke="black" points="206.5,-168.5 206.5,-187.5 285.5,-187.5 285.5,-168.5 206.5,-168.5"/>
<text text-anchor="middle" x="246" y="-175.5" font-family="Arial.ttf" font-size="10.00">SLImporter.h</text>
</a>
</g>
<!-- Node46&#45;&gt;Node49 -->
<g id="edge146" class="edge"><title>Node46&#45;&gt;Node49</title>
<path fill="none" stroke="midnightblue" d="M377.614,-221.304C345.958,-211.129 300.832,-196.625 272.496,-187.516"/>
<polygon fill="midnightblue" stroke="midnightblue" points="376.789,-224.715 387.38,-224.444 378.931,-218.051 376.789,-224.715"/>
</g>
<!-- Node48&#45;&gt;Node4 -->
<g id="edge138" class="edge"><title>Node48&#45;&gt;Node4</title>
<path fill="none" stroke="midnightblue" d="M2732.52,-110.217C2778.44,-100.013 2846.45,-84.9006 2888.68,-75.5164"/>
<polygon fill="midnightblue" stroke="midnightblue" points="2731.51,-106.858 2722.5,-112.444 2733.03,-113.691 2731.51,-106.858"/>
</g>
<!-- Node48&#45;&gt;Node21 -->
<g id="edge140" class="edge"><title>Node48&#45;&gt;Node21</title>
<path fill="none" stroke="midnightblue" d="M2690.33,-102.674C2698.64,-78.6248 2712.88,-37.3881 2719.03,-19.5914"/>
<polygon fill="midnightblue" stroke="midnightblue" points="2686.94,-101.774 2686.98,-112.368 2693.56,-104.059 2686.94,-101.774"/>
</g>
<!-- Node48&#45;&gt;Node32 -->
<g id="edge142" class="edge"><title>Node48&#45;&gt;Node32</title>
<path fill="none" stroke="midnightblue" d="M2703.08,-106.118C2733.01,-82.7688 2790.04,-38.2699 2813.99,-19.5914"/>
<polygon fill="midnightblue" stroke="midnightblue" points="2700.8,-103.458 2695.06,-112.368 2705.1,-108.977 2700.8,-103.458"/>
</g>
<!-- Node48&#45;&gt;Node33 -->
<g id="edge144" class="edge"><title>Node48&#45;&gt;Node33</title>
<path fill="none" stroke="midnightblue" d="M2721.1,-109.326C2746.91,-100.875 2781.94,-88.7396 2812,-76 2834.19,-66.5968 2895.63,-35.0423 2925.4,-19.6248"/>
<polygon fill="midnightblue" stroke="midnightblue" points="2719.78,-106.076 2711.35,-112.49 2721.94,-112.735 2719.78,-106.076"/>
</g>
<!-- Node49&#45;&gt;Node7 -->
<g id="edge152" class="edge"><title>Node49&#45;&gt;Node7</title>
<path fill="none" stroke="midnightblue" d="M224.757,-162.756C212.321,-154.19 196.465,-142.871 183,-132 133.938,-92.3886 79.4935,-39.952 58.7078,-19.5928"/>
<polygon fill="midnightblue" stroke="midnightblue" points="222.892,-165.72 233.126,-168.461 226.835,-159.936 222.892,-165.72"/>
</g>
<!-- Node49&#45;&gt;Node27 -->
<g id="edge150" class="edge"><title>Node49&#45;&gt;Node27</title>
<path fill="none" stroke="midnightblue" d="M219.329,-163.221C207.752,-155.697 195.397,-145.2 189,-132 185.124,-124.001 185.93,-120.342 189,-112 204.035,-71.152 243.745,-35.5677 263.501,-19.7394"/>
<polygon fill="midnightblue" stroke="midnightblue" points="217.546,-166.232 227.918,-168.39 221.155,-160.235 217.546,-166.232"/>
</g>
<!-- Node49&#45;&gt;Node48 -->
<g id="edge154" class="edge"><title>Node49&#45;&gt;Node48</title>
<path fill="none" stroke="midnightblue" d="M295.809,-171.239C308.568,-169.963 322.278,-168.764 335,-168 801.319,-140.002 2313.8,-126.08 2626.94,-123.46"/>
<polygon fill="midnightblue" stroke="midnightblue" points="295.404,-167.762 285.818,-172.273 296.125,-174.725 295.404,-167.762"/>
</g>
<!-- Node50 -->
<g id="node124" class="node"><title>Node50</title>
<a xlink:href="_s_l_importer_8cpp.html" target="_top" xlink:title="SLImporter.cpp">
<polygon fill="white" stroke="black" points="198,-112.5 198,-131.5 288,-131.5 288,-112.5 198,-112.5"/>
<text text-anchor="middle" x="243" y="-119.5" font-family="Arial.ttf" font-size="10.00">SLImporter.cpp</text>
</a>
</g>
<!-- Node49&#45;&gt;Node50 -->
<g id="edge148" class="edge"><title>Node49&#45;&gt;Node50</title>
<path fill="none" stroke="midnightblue" d="M244.934,-157.805C244.439,-148.91 243.877,-138.78 243.486,-131.751"/>
<polygon fill="midnightblue" stroke="midnightblue" points="241.455,-158.293 245.505,-168.083 248.444,-157.904 241.455,-158.293"/>
</g>
</g>
</svg>
