<?xml version="1.0" encoding="UTF-8" standalone="no"?>
<!DOCTYPE svg PUBLIC "-//W3C//DTD SVG 1.1//EN"
 "http://www.w3.org/Graphics/SVG/1.1/DTD/svg11.dtd">
<!-- Generated by graphviz version 2.28.0 (20110507.0327)
 -->
<!-- Title: SLSkeleton.h Pages: 1 -->
<svg width="2855pt" height="308pt"
 viewBox="0.00 0.00 2854.71 308.00" xmlns="http://www.w3.org/2000/svg" xmlns:xlink="http://www.w3.org/1999/xlink">
<g id="graph1" class="graph" transform="scale(1 1) rotate(0) translate(4 304)">
<title>SLSkeleton.h</title>
<polygon fill="white" stroke="white" points="-4,5 -4,-304 2851.71,-304 2851.71,5 -4,5"/>
<!-- Node1 -->
<g id="node1" class="node"><title>Node1</title>
<polygon fill="#bfbfbf" stroke="black" points="2448.38,-280.5 2448.38,-299.5 2528.38,-299.5 2528.38,-280.5 2448.38,-280.5"/>
<text text-anchor="middle" x="2488.38" y="-287.5" font-family="Arial.ttf" font-size="10.00">SLSkeleton.h</text>
</g>
<!-- Node2 -->
<g id="node3" class="node"><title>Node2</title>
<a xlink:href="_s_l_assimp_importer_8cpp.html" target="_top" xlink:title="SLAssimpImporter.cpp">
<polygon fill="white" stroke="black" points="2516.88,-112.5 2516.88,-131.5 2641.88,-131.5 2641.88,-112.5 2516.88,-112.5"/>
<text text-anchor="middle" x="2579.38" y="-119.5" font-family="Arial.ttf" font-size="10.00">SLAssimpImporter.cpp</text>
</a>
</g>
<!-- Node1&#45;&gt;Node2 -->
<g id="edge2" class="edge"><title>Node1&#45;&gt;Node2</title>
<path fill="none" stroke="midnightblue" d="M2525.85,-276.495C2541.25,-269.41 2557.7,-258.909 2567.38,-244 2590.72,-208.06 2584.59,-153.034 2581.05,-131.79"/>
<polygon fill="midnightblue" stroke="midnightblue" points="2524.31,-273.346 2516.48,-280.474 2527.05,-279.79 2524.31,-273.346"/>
</g>
<!-- Node3 -->
<g id="node5" class="node"><title>Node3</title>
<a xlink:href="_s_l_joint_8cpp.html" target="_top" xlink:title="SLJoint.cpp">
<polygon fill="white" stroke="black" points="2310.88,-224.5 2310.88,-243.5 2379.88,-243.5 2379.88,-224.5 2310.88,-224.5"/>
<text text-anchor="middle" x="2345.38" y="-231.5" font-family="Arial.ttf" font-size="10.00">SLJoint.cpp</text>
</a>
</g>
<!-- Node1&#45;&gt;Node3 -->
<g id="edge4" class="edge"><title>Node1&#45;&gt;Node3</title>
<path fill="none" stroke="midnightblue" d="M2456.35,-276.906C2429.47,-266.754 2391.74,-252.506 2367.93,-243.516"/>
<polygon fill="midnightblue" stroke="midnightblue" points="2455.13,-280.185 2465.72,-280.444 2457.6,-273.636 2455.13,-280.185"/>
</g>
<!-- Node4 -->
<g id="node7" class="node"><title>Node4</title>
<a xlink:href="_s_l_skeleton_8cpp.html" target="_top" xlink:title="SLSkeleton.cpp">
<polygon fill="white" stroke="black" points="2470.88,-56.5 2470.88,-75.5 2561.88,-75.5 2561.88,-56.5 2470.88,-56.5"/>
<text text-anchor="middle" x="2516.38" y="-63.5" font-family="Arial.ttf" font-size="10.00">SLSkeleton.cpp</text>
</a>
</g>
<!-- Node1&#45;&gt;Node4 -->
<g id="edge6" class="edge"><title>Node1&#45;&gt;Node4</title>
<path fill="none" stroke="midnightblue" d="M2459.38,-275.33C2447.15,-267.917 2434.19,-257.48 2427.38,-244 2423.37,-236.065 2425.11,-232.595 2427.38,-224 2443.76,-161.893 2490.98,-98.578 2509.14,-75.8157"/>
<polygon fill="midnightblue" stroke="midnightblue" points="2458.04,-278.59 2468.48,-280.41 2461.45,-272.479 2458.04,-278.59"/>
</g>
<!-- Node5 -->
<g id="node9" class="node"><title>Node5</title>
<a xlink:href="_s_l_anim_manager_8h.html" target="_top" xlink:title="SLAnimManager.h">
<polygon fill="white" stroke="black" points="2436.38,-224.5 2436.38,-243.5 2540.38,-243.5 2540.38,-224.5 2436.38,-224.5"/>
<text text-anchor="middle" x="2488.38" y="-231.5" font-family="Arial.ttf" font-size="10.00">SLAnimManager.h</text>
</a>
</g>
<!-- Node1&#45;&gt;Node5 -->
<g id="edge8" class="edge"><title>Node1&#45;&gt;Node5</title>
<path fill="none" stroke="midnightblue" d="M2488.38,-269.805C2488.38,-260.91 2488.38,-250.78 2488.38,-243.751"/>
<polygon fill="midnightblue" stroke="midnightblue" points="2484.88,-270.083 2488.38,-280.083 2491.88,-270.083 2484.88,-270.083"/>
</g>
<!-- Node7 -->
<g id="node14" class="node"><title>Node7</title>
<a xlink:href="_s_l_scene_8h.html" target="_top" xlink:title="SLScene.h">
<polygon fill="white" stroke="black" points="1423.38,-168.5 1423.38,-187.5 1491.38,-187.5 1491.38,-168.5 1423.38,-168.5"/>
<text text-anchor="middle" x="1457.38" y="-175.5" font-family="Arial.ttf" font-size="10.00">SLScene.h</text>
</a>
</g>
<!-- Node1&#45;&gt;Node7 -->
<g id="edge142" class="edge"><title>Node1&#45;&gt;Node7</title>
<path fill="none" stroke="midnightblue" d="M2438.26,-283.653C2257.67,-264.385 1642.98,-198.802 1491.39,-182.628"/>
<polygon fill="midnightblue" stroke="midnightblue" points="2437.97,-287.141 2448.28,-284.722 2438.71,-280.18 2437.97,-287.141"/>
</g>
<!-- Node48 -->
<g id="node111" class="node"><title>Node48</title>
<a xlink:href="_s_l_assimp_importer_8h.html" target="_top" xlink:title="SLAssimpImporter.h">
<polygon fill="white" stroke="black" points="2613.38,-168.5 2613.38,-187.5 2727.38,-187.5 2727.38,-168.5 2613.38,-168.5"/>
<text text-anchor="middle" x="2670.38" y="-175.5" font-family="Arial.ttf" font-size="10.00">SLAssimpImporter.h</text>
</a>
</g>
<!-- Node1&#45;&gt;Node48 -->
<g id="edge126" class="edge"><title>Node1&#45;&gt;Node48</title>
<path fill="none" stroke="midnightblue" d="M2527.37,-277.284C2549.71,-269.625 2577.72,-258.372 2600.38,-244 2626.15,-227.656 2651.04,-201.228 2663,-187.654"/>
<polygon fill="midnightblue" stroke="midnightblue" points="2526.24,-273.969 2517.86,-280.446 2528.45,-280.612 2526.24,-273.969"/>
</g>
<!-- Node49 -->
<g id="node116" class="node"><title>Node49</title>
<a xlink:href="_s_l_importer_8h.html" target="_top" xlink:title="SLImporter.h">
<polygon fill="white" stroke="black" points="2724.88,-224.5 2724.88,-243.5 2803.88,-243.5 2803.88,-224.5 2724.88,-224.5"/>
<text text-anchor="middle" x="2764.38" y="-231.5" font-family="Arial.ttf" font-size="10.00">SLImporter.h</text>
</a>
</g>
<!-- Node1&#45;&gt;Node49 -->
<g id="edge134" class="edge"><title>Node1&#45;&gt;Node49</title>
<path fill="none" stroke="midnightblue" d="M2538.46,-279.203C2591.91,-268.744 2675.53,-252.383 2724.65,-242.774"/>
<polygon fill="midnightblue" stroke="midnightblue" points="2537.66,-275.793 2528.51,-281.148 2539,-282.663 2537.66,-275.793"/>
</g>
<!-- Node5&#45;&gt;Node5 -->
<g id="edge12" class="edge"><title>Node5&#45;&gt;Node5</title>
<path fill="none" stroke="midnightblue" d="M2528.56,-244.432C2544.76,-245.04 2558.38,-241.563 2558.38,-234 2558.38,-224.867 2538.52,-221.692 2518.24,-224.475"/>
<polygon fill="midnightblue" stroke="midnightblue" points="2528.5,-240.914 2518.24,-243.525 2527.89,-247.887 2528.5,-240.914"/>
</g>
<!-- Node6 -->
<g id="node11" class="node"><title>Node6</title>
<a xlink:href="_s_l_scene_view_8cpp.html" target="_top" xlink:title="SLSceneView.cpp">
<polygon fill="white" stroke="black" points="2688.88,-56.5 2688.88,-75.5 2789.88,-75.5 2789.88,-56.5 2688.88,-56.5"/>
<text text-anchor="middle" x="2739.38" y="-63.5" font-family="Arial.ttf" font-size="10.00">SLSceneView.cpp</text>
</a>
</g>
<!-- Node5&#45;&gt;Node6 -->
<g id="edge10" class="edge"><title>Node5&#45;&gt;Node6</title>
<path fill="none" stroke="midnightblue" d="M2485.31,-213.99C2482.19,-187.407 2481.02,-139.327 2507.38,-112 2513.69,-105.458 2622.48,-86.4024 2688.82,-75.2978"/>
<polygon fill="midnightblue" stroke="midnightblue" points="2481.89,-214.821 2486.74,-224.242 2488.82,-213.854 2481.89,-214.821"/>
</g>
<!-- Node5&#45;&gt;Node7 -->
<g id="edge14" class="edge"><title>Node5&#45;&gt;Node7</title>
<path fill="none" stroke="midnightblue" d="M2425.96,-226.98C2413.52,-225.894 2400.54,-224.841 2388.38,-224 2038.47,-199.808 1613.68,-184.323 1491.65,-180.143"/>
<polygon fill="midnightblue" stroke="midnightblue" points="2425.98,-230.496 2436.25,-227.896 2426.6,-223.523 2425.98,-230.496"/>
</g>
<!-- Node7&#45;&gt;Node2 -->
<g id="edge40" class="edge"><title>Node7&#45;&gt;Node2</title>
<path fill="none" stroke="midnightblue" d="M1501.65,-174.869C1675.74,-166.491 2313.58,-135.793 2516.76,-126.014"/>
<polygon fill="midnightblue" stroke="midnightblue" points="1501.39,-171.378 1491.57,-175.354 1501.73,-178.37 1501.39,-171.378"/>
</g>
<!-- Node7&#45;&gt;Node4 -->
<g id="edge64" class="edge"><title>Node7&#45;&gt;Node4</title>
<path fill="none" stroke="midnightblue" d="M1501.92,-176.839C1654.66,-175.945 2156.39,-170.109 2312.38,-132 2333.25,-126.902 2336.21,-119.374 2356.38,-112 2397.98,-96.7954 2447.22,-83.6455 2479.98,-75.5529"/>
<polygon fill="midnightblue" stroke="midnightblue" points="1501.52,-173.341 1491.54,-176.895 1501.56,-180.341 1501.52,-173.341"/>
</g>
<!-- Node8 -->
<g id="node16" class="node"><title>Node8</title>
<a xlink:href="_s_l_c_v_capture_8cpp.html" target="_top" xlink:title="SLCVCapture.cpp">
<polygon fill="white" stroke="black" points="2153.88,-56.5 2153.88,-75.5 2254.88,-75.5 2254.88,-56.5 2153.88,-56.5"/>
<text text-anchor="middle" x="2204.38" y="-63.5" font-family="Arial.ttf" font-size="10.00">SLCVCapture.cpp</text>
</a>
</g>
<!-- Node7&#45;&gt;Node8 -->
<g id="edge16" class="edge"><title>Node7&#45;&gt;Node8</title>
<path fill="none" stroke="midnightblue" d="M1501.84,-176.506C1576.45,-174.682 1731.01,-166.625 1856.38,-132 1877.09,-126.281 1879.78,-118.072 1900.38,-112 2005.53,-81.0163 2035.96,-92.1304 2144.38,-76 2147.4,-75.5505 2150.51,-75.0874 2153.64,-74.6194"/>
<polygon fill="midnightblue" stroke="midnightblue" points="1501.35,-173.016 1491.42,-176.732 1501.5,-180.014 1501.35,-173.016"/>
</g>
<!-- Node9 -->
<g id="node18" class="node"><title>Node9</title>
<a xlink:href="_s_l_c_v_feature_manager_8cpp.html" target="_top" xlink:title="SLCVFeatureManager.cpp">
<polygon fill="white" stroke="black" points="2272.88,-56.5 2272.88,-75.5 2413.88,-75.5 2413.88,-56.5 2272.88,-56.5"/>
<text text-anchor="middle" x="2343.38" y="-63.5" font-family="Arial.ttf" font-size="10.00">SLCVFeatureManager.cpp</text>
</a>
</g>
<!-- Node7&#45;&gt;Node9 -->
<g id="edge18" class="edge"><title>Node7&#45;&gt;Node9</title>
<path fill="none" stroke="midnightblue" d="M1501.91,-176.607C1637.11,-175.034 2041.33,-167.413 2167.38,-132 2185.76,-126.838 2187.8,-119.429 2205.38,-112 2241.13,-96.893 2283.81,-83.6771 2312.14,-75.544"/>
<polygon fill="midnightblue" stroke="midnightblue" points="1501.49,-173.112 1491.53,-176.722 1501.56,-180.111 1501.49,-173.112"/>
</g>
<!-- Node10 -->
<g id="node20" class="node"><title>Node10</title>
<a xlink:href="_s_l_g_l_im_gui_8cpp.html" target="_top" xlink:title="SLGLImGui.cpp">
<polygon fill="white" stroke="black" points="2214.88,-112.5 2214.88,-131.5 2303.88,-131.5 2303.88,-112.5 2214.88,-112.5"/>
<text text-anchor="middle" x="2259.38" y="-119.5" font-family="Arial.ttf" font-size="10.00">SLGLImGui.cpp</text>
</a>
</g>
<!-- Node7&#45;&gt;Node10 -->
<g id="edge20" class="edge"><title>Node7&#45;&gt;Node10</title>
<path fill="none" stroke="midnightblue" d="M1501.75,-175.72C1617.16,-172.085 1936.2,-160.091 2200.38,-132 2205.02,-131.507 2209.85,-130.909 2214.66,-130.259"/>
<polygon fill="midnightblue" stroke="midnightblue" points="1501.43,-172.228 1491.54,-176.036 1501.64,-179.225 1501.43,-172.228"/>
</g>
<!-- Node11 -->
<g id="node22" class="node"><title>Node11</title>
<a xlink:href="_s_l_g_l_oculus_8cpp.html" target="_top" xlink:title="SLGLOculus.cpp">
<polygon fill="white" stroke="black" points="30.3813,-112.5 30.3813,-131.5 124.381,-131.5 124.381,-112.5 30.3813,-112.5"/>
<text text-anchor="middle" x="77.3813" y="-119.5" font-family="Arial.ttf" font-size="10.00">SLGLOculus.cpp</text>
</a>
</g>
<!-- Node7&#45;&gt;Node11 -->
<g id="edge22" class="edge"><title>Node7&#45;&gt;Node11</title>
<path fill="none" stroke="midnightblue" d="M1413.15,-176.243C1212.91,-172.702 390.044,-156.887 133.381,-132 130.539,-131.724 127.622,-131.396 124.684,-131.03"/>
<polygon fill="midnightblue" stroke="midnightblue" points="1413.23,-179.745 1423.29,-176.421 1413.35,-172.746 1413.23,-179.745"/>
</g>
<!-- Node12 -->
<g id="node24" class="node"><title>Node12</title>
<a xlink:href="_s_l_g_l_oculus_f_b_8cpp.html" target="_top" xlink:title="SLGLOculusFB.cpp">
<polygon fill="white" stroke="black" points="142.381,-112.5 142.381,-131.5 248.381,-131.5 248.381,-112.5 142.381,-112.5"/>
<text text-anchor="middle" x="195.381" y="-119.5" font-family="Arial.ttf" font-size="10.00">SLGLOculusFB.cpp</text>
</a>
</g>
<!-- Node7&#45;&gt;Node12 -->
<g id="edge24" class="edge"><title>Node7&#45;&gt;Node12</title>
<path fill="none" stroke="midnightblue" d="M1412.65,-177.04C1254.48,-176.818 706.932,-172.94 257.381,-132 254.457,-131.734 251.459,-131.423 248.437,-131.081"/>
<polygon fill="midnightblue" stroke="midnightblue" points="1412.93,-180.541 1422.93,-177.05 1412.93,-173.541 1412.93,-180.541"/>
</g>
<!-- Node13 -->
<g id="node26" class="node"><title>Node13</title>
<a xlink:href="_s_l_g_l_program_8cpp.html" target="_top" xlink:title="SLGLProgram.cpp">
<polygon fill="white" stroke="black" points="266.881,-112.5 266.881,-131.5 369.881,-131.5 369.881,-112.5 266.881,-112.5"/>
<text text-anchor="middle" x="318.381" y="-119.5" font-family="Arial.ttf" font-size="10.00">SLGLProgram.cpp</text>
</a>
</g>
<!-- Node7&#45;&gt;Node13 -->
<g id="edge26" class="edge"><title>Node7&#45;&gt;Node13</title>
<path fill="none" stroke="midnightblue" d="M1412.88,-176.811C1265.37,-175.827 779.182,-169.733 379.381,-132 376.291,-131.708 373.117,-131.367 369.92,-130.992"/>
<polygon fill="midnightblue" stroke="midnightblue" points="1413.29,-180.313 1423.31,-176.875 1413.33,-173.313 1413.29,-180.313"/>
</g>
<!-- Node14 -->
<g id="node28" class="node"><title>Node14</title>
<a xlink:href="_s_l_g_l_texture_8cpp.html" target="_top" xlink:title="SLGLTexture.cpp">
<polygon fill="white" stroke="black" points="388.381,-112.5 388.381,-131.5 486.381,-131.5 486.381,-112.5 388.381,-112.5"/>
<text text-anchor="middle" x="437.381" y="-119.5" font-family="Arial.ttf" font-size="10.00">SLGLTexture.cpp</text>
</a>
</g>
<!-- Node7&#45;&gt;Node14 -->
<g id="edge28" class="edge"><title>Node7&#45;&gt;Node14</title>
<path fill="none" stroke="midnightblue" d="M1413.11,-176.615C1276.25,-175.065 848.018,-167.504 495.381,-132 492.441,-131.704 489.423,-131.36 486.382,-130.981"/>
<polygon fill="midnightblue" stroke="midnightblue" points="1413.17,-180.116 1423.2,-176.725 1413.24,-173.116 1413.17,-180.116"/>
</g>
<!-- Node15 -->
<g id="node30" class="node"><title>Node15</title>
<a xlink:href="_s_l_g_l_vertex_array_8cpp.html" target="_top" xlink:title="SLGLVertexArray.cpp">
<polygon fill="white" stroke="black" points="504.881,-112.5 504.881,-131.5 623.881,-131.5 623.881,-112.5 504.881,-112.5"/>
<text text-anchor="middle" x="564.381" y="-119.5" font-family="Arial.ttf" font-size="10.00">SLGLVertexArray.cpp</text>
</a>
</g>
<!-- Node7&#45;&gt;Node15 -->
<g id="edge30" class="edge"><title>Node7&#45;&gt;Node15</title>
<path fill="none" stroke="midnightblue" d="M1412.96,-175.749C1289.25,-172.01 930.377,-159.44 633.381,-132 630.374,-131.722 627.296,-131.413 624.19,-131.081"/>
<polygon fill="midnightblue" stroke="midnightblue" points="1413.07,-179.253 1423.17,-176.053 1413.28,-172.256 1413.07,-179.253"/>
</g>
<!-- Node16 -->
<g id="node32" class="node"><title>Node16</title>
<a xlink:href="_s_l_g_l_vertex_array_ext_8cpp.html" target="_top" xlink:title="SLGLVertexArrayExt.cpp">
<polygon fill="white" stroke="black" points="642.381,-112.5 642.381,-131.5 776.381,-131.5 776.381,-112.5 642.381,-112.5"/>
<text text-anchor="middle" x="709.381" y="-119.5" font-family="Arial.ttf" font-size="10.00">SLGLVertexArrayExt.cpp</text>
</a>
</g>
<!-- Node7&#45;&gt;Node16 -->
<g id="edge32" class="edge"><title>Node7&#45;&gt;Node16</title>
<path fill="none" stroke="midnightblue" d="M1412.89,-174.807C1305.1,-169.323 1021.44,-153.867 785.381,-132 782.471,-131.73 779.499,-131.441 776.498,-131.136"/>
<polygon fill="midnightblue" stroke="midnightblue" points="1412.9,-178.312 1423.06,-175.322 1413.25,-171.321 1412.9,-178.312"/>
</g>
<!-- Node17 -->
<g id="node34" class="node"><title>Node17</title>
<a xlink:href="_s_l_g_l_vertex_buffer_8cpp.html" target="_top" xlink:title="SLGLVertexBuffer.cpp">
<polygon fill="white" stroke="black" points="794.381,-112.5 794.381,-131.5 916.381,-131.5 916.381,-112.5 794.381,-112.5"/>
<text text-anchor="middle" x="855.381" y="-119.5" font-family="Arial.ttf" font-size="10.00">SLGLVertexBuffer.cpp</text>
</a>
</g>
<!-- Node7&#45;&gt;Node17 -->
<g id="edge34" class="edge"><title>Node7&#45;&gt;Node17</title>
<path fill="none" stroke="midnightblue" d="M1413.11,-173.909C1321.8,-167.391 1105.99,-151.239 925.381,-132 922.457,-131.688 919.466,-131.356 916.446,-131.01"/>
<polygon fill="midnightblue" stroke="midnightblue" points="1412.88,-177.402 1423.1,-174.62 1413.37,-170.419 1412.88,-177.402"/>
</g>
<!-- Node18 -->
<g id="node36" class="node"><title>Node18</title>
<a xlink:href="_s_l_curve_bezier_8cpp.html" target="_top" xlink:title="SLCurveBezier.cpp">
<polygon fill="white" stroke="black" points="934.881,-112.5 934.881,-131.5 1041.88,-131.5 1041.88,-112.5 934.881,-112.5"/>
<text text-anchor="middle" x="988.381" y="-119.5" font-family="Arial.ttf" font-size="10.00">SLCurveBezier.cpp</text>
</a>
</g>
<!-- Node7&#45;&gt;Node18 -->
<g id="edge36" class="edge"><title>Node7&#45;&gt;Node18</title>
<path fill="none" stroke="midnightblue" d="M1412.96,-172.306C1338.96,-164.421 1185.79,-147.823 1056.38,-132 1051.77,-131.436 1046.99,-130.836 1042.19,-130.222"/>
<polygon fill="midnightblue" stroke="midnightblue" points="1412.98,-175.828 1423.29,-173.405 1413.72,-168.867 1412.98,-175.828"/>
</g>
<!-- Node19 -->
<g id="node38" class="node"><title>Node19</title>
<a xlink:href="_s_l_application_8cpp.html" target="_top" xlink:title="SLApplication.cpp">
<polygon fill="white" stroke="black" points="436.881,-0.5 436.881,-19.5 537.881,-19.5 537.881,-0.5 436.881,-0.5"/>
<text text-anchor="middle" x="487.381" y="-7.5" font-family="Arial.ttf" font-size="10.00">SLApplication.cpp</text>
</a>
</g>
<!-- Node7&#45;&gt;Node19 -->
<g id="edge38" class="edge"><title>Node7&#45;&gt;Node19</title>
<path fill="none" stroke="midnightblue" d="M1413.26,-176.464C1173.44,-173.449 36.3986,-157.808 11.3813,-132 -19.0084,-100.65 17.0945,-78.2014 59.3813,-56 123.797,-22.1805 337.901,-13.7741 436.666,-11.6874"/>
<polygon fill="midnightblue" stroke="midnightblue" points="1413.32,-179.965 1423.36,-176.59 1413.4,-172.965 1413.32,-179.965"/>
</g>
<!-- Node20 -->
<g id="node41" class="node"><title>Node20</title>
<a xlink:href="_s_l_interface_8cpp.html" target="_top" xlink:title="SLProject C&#45;functions interface implementation.">
<polygon fill="white" stroke="black" points="2579.88,-56.5 2579.88,-75.5 2670.88,-75.5 2670.88,-56.5 2579.88,-56.5"/>
<text text-anchor="middle" x="2625.38" y="-63.5" font-family="Arial.ttf" font-size="10.00">SLInterface.cpp</text>
</a>
</g>
<!-- Node7&#45;&gt;Node20 -->
<g id="edge42" class="edge"><title>Node7&#45;&gt;Node20</title>
<path fill="none" stroke="midnightblue" d="M1501.58,-177.57C1631.94,-178.65 2025.86,-177.606 2348.38,-132 2440.33,-118.998 2546.62,-90.0376 2596.59,-75.5699"/>
<polygon fill="midnightblue" stroke="midnightblue" points="1501.61,-174.07 1491.58,-177.478 1501.55,-181.07 1501.61,-174.07"/>
</g>
<!-- Node21 -->
<g id="node43" class="node"><title>Node21</title>
<a xlink:href="_s_l_tex_font_8cpp.html" target="_top" xlink:title="SLTexFont.cpp">
<polygon fill="white" stroke="black" points="1136.38,-112.5 1136.38,-131.5 1222.38,-131.5 1222.38,-112.5 1136.38,-112.5"/>
<text text-anchor="middle" x="1179.38" y="-119.5" font-family="Arial.ttf" font-size="10.00">SLTexFont.cpp</text>
</a>
</g>
<!-- Node7&#45;&gt;Node21 -->
<g id="edge44" class="edge"><title>Node7&#45;&gt;Node21</title>
<path fill="none" stroke="midnightblue" d="M1413.31,-168.439C1360.98,-158.274 1274.29,-141.435 1222.42,-131.36"/>
<polygon fill="midnightblue" stroke="midnightblue" points="1412.81,-171.907 1423.29,-170.379 1414.14,-165.036 1412.81,-171.907"/>
</g>
<!-- Node22 -->
<g id="node45" class="node"><title>Node22</title>
<a xlink:href="_s_l_a_a_b_box_8cpp.html" target="_top" xlink:title="SLAABBox.cpp">
<polygon fill="white" stroke="black" points="1240.88,-112.5 1240.88,-131.5 1327.88,-131.5 1327.88,-112.5 1240.88,-112.5"/>
<text text-anchor="middle" x="1284.38" y="-119.5" font-family="Arial.ttf" font-size="10.00">SLAABBox.cpp</text>
</a>
</g>
<!-- Node7&#45;&gt;Node22 -->
<g id="edge46" class="edge"><title>Node7&#45;&gt;Node22</title>
<path fill="none" stroke="midnightblue" d="M1420.33,-165.436C1387.72,-155.255 1340.97,-140.664 1311.67,-131.516"/>
<polygon fill="midnightblue" stroke="midnightblue" points="1419.38,-168.805 1429.97,-168.444 1421.47,-162.123 1419.38,-168.805"/>
</g>
<!-- Node23 -->
<g id="node47" class="node"><title>Node23</title>
<a xlink:href="_s_l_animation_8cpp.html" target="_top" xlink:title="SLAnimation.cpp">
<polygon fill="white" stroke="black" points="1346.38,-112.5 1346.38,-131.5 1444.38,-131.5 1444.38,-112.5 1346.38,-112.5"/>
<text text-anchor="middle" x="1395.38" y="-119.5" font-family="Arial.ttf" font-size="10.00">SLAnimation.cpp</text>
</a>
</g>
<!-- Node7&#45;&gt;Node23 -->
<g id="edge48" class="edge"><title>Node7&#45;&gt;Node23</title>
<path fill="none" stroke="midnightblue" d="M1439.63,-161.537C1428.57,-151.909 1414.75,-139.869 1405.52,-131.834"/>
<polygon fill="midnightblue" stroke="midnightblue" points="1437.58,-164.395 1447.42,-168.324 1442.18,-159.117 1437.58,-164.395"/>
</g>
<!-- Node24 -->
<g id="node49" class="node"><title>Node24</title>
<a xlink:href="_s_l_anim_manager_8cpp.html" target="_top" xlink:title="SLAnimManager.cpp">
<polygon fill="white" stroke="black" points="1462.38,-112.5 1462.38,-131.5 1578.38,-131.5 1578.38,-112.5 1462.38,-112.5"/>
<text text-anchor="middle" x="1520.38" y="-119.5" font-family="Arial.ttf" font-size="10.00">SLAnimManager.cpp</text>
</a>
</g>
<!-- Node7&#45;&gt;Node24 -->
<g id="edge50" class="edge"><title>Node7&#45;&gt;Node24</title>
<path fill="none" stroke="midnightblue" d="M1475.42,-161.537C1486.65,-151.909 1500.7,-139.869 1510.08,-131.834"/>
<polygon fill="midnightblue" stroke="midnightblue" points="1472.82,-159.159 1467.5,-168.324 1477.37,-164.473 1472.82,-159.159"/>
</g>
<!-- Node25 -->
<g id="node51" class="node"><title>Node25</title>
<a xlink:href="_s_l_background_8cpp.html" target="_top" xlink:title="SLBackground.cpp">
<polygon fill="white" stroke="black" points="1596.38,-112.5 1596.38,-131.5 1702.38,-131.5 1702.38,-112.5 1596.38,-112.5"/>
<text text-anchor="middle" x="1649.38" y="-119.5" font-family="Arial.ttf" font-size="10.00">SLBackground.cpp</text>
</a>
</g>
<!-- Node7&#45;&gt;Node25 -->
<g id="edge52" class="edge"><title>Node7&#45;&gt;Node25</title>
<path fill="none" stroke="midnightblue" d="M1497.56,-165.699C1533.8,-155.507 1586.3,-140.743 1619.1,-131.516"/>
<polygon fill="midnightblue" stroke="midnightblue" points="1496.48,-162.367 1487.8,-168.444 1498.38,-169.105 1496.48,-162.367"/>
</g>
<!-- Node26 -->
<g id="node53" class="node"><title>Node26</title>
<a xlink:href="_s_l_input_manager_8cpp.html" target="_top" xlink:title="SLInputManager.cpp">
<polygon fill="white" stroke="black" points="68.8813,-56.5 68.8813,-75.5 183.881,-75.5 183.881,-56.5 68.8813,-56.5"/>
<text text-anchor="middle" x="126.381" y="-63.5" font-family="Arial.ttf" font-size="10.00">SLInputManager.cpp</text>
</a>
</g>
<!-- Node7&#45;&gt;Node26 -->
<g id="edge54" class="edge"><title>Node7&#45;&gt;Node26</title>
<path fill="none" stroke="midnightblue" d="M1413.18,-176.453C1174.19,-173.395 46.2096,-157.619 21.3813,-132 -3.68533,-106.136 49.3677,-86.225 88.8037,-75.5928"/>
<polygon fill="midnightblue" stroke="midnightblue" points="1413.2,-179.954 1423.25,-176.581 1413.29,-172.954 1413.2,-179.954"/>
</g>
<!-- Node27 -->
<g id="node55" class="node"><title>Node27</title>
<a xlink:href="_s_l_light_direct_8cpp.html" target="_top" xlink:title="SLLightDirect.cpp">
<polygon fill="white" stroke="black" points="270.881,-56.5 270.881,-75.5 371.881,-75.5 371.881,-56.5 270.881,-56.5"/>
<text text-anchor="middle" x="321.381" y="-63.5" font-family="Arial.ttf" font-size="10.00">SLLightDirect.cpp</text>
</a>
</g>
<!-- Node7&#45;&gt;Node27 -->
<g id="edge56" class="edge"><title>Node7&#45;&gt;Node27</title>
<path fill="none" stroke="midnightblue" d="M1412.78,-177.444C1341.48,-176.881 1198.26,-170.484 1084.38,-132 1067.77,-126.387 1067.17,-117.059 1050.38,-112 907.619,-68.9776 528.702,-91.2605 380.381,-76 377.701,-75.7243 374.957,-75.4117 372.19,-75.0727"/>
<polygon fill="midnightblue" stroke="midnightblue" points="1413.16,-180.946 1423.18,-177.489 1413.19,-173.946 1413.16,-180.946"/>
</g>
<!-- Node28 -->
<g id="node57" class="node"><title>Node28</title>
<a xlink:href="_s_l_light_rect_8cpp.html" target="_top" xlink:title="SLLightRect.cpp">
<polygon fill="white" stroke="black" points="389.881,-56.5 389.881,-75.5 482.881,-75.5 482.881,-56.5 389.881,-56.5"/>
<text text-anchor="middle" x="436.381" y="-63.5" font-family="Arial.ttf" font-size="10.00">SLLightRect.cpp</text>
</a>
</g>
<!-- Node7&#45;&gt;Node28 -->
<g id="edge58" class="edge"><title>Node7&#45;&gt;Node28</title>
<path fill="none" stroke="midnightblue" d="M1412.77,-175.148C1348.51,-171.537 1226.71,-161.149 1127.38,-132 1107.16,-126.065 1104.81,-117.174 1084.38,-112 828.418,-47.1887 753.785,-105.358 491.381,-76 488.689,-75.6988 485.928,-75.3558 483.145,-74.9838"/>
<polygon fill="midnightblue" stroke="midnightblue" points="1412.78,-178.653 1422.95,-175.69 1413.15,-171.663 1412.78,-178.653"/>
</g>
<!-- Node29 -->
<g id="node59" class="node"><title>Node29</title>
<a xlink:href="_s_l_light_spot_8cpp.html" target="_top" xlink:title="SLLightSpot.cpp">
<polygon fill="white" stroke="black" points="500.881,-56.5 500.881,-75.5 595.881,-75.5 595.881,-56.5 500.881,-56.5"/>
<text text-anchor="middle" x="548.381" y="-63.5" font-family="Arial.ttf" font-size="10.00">SLLightSpot.cpp</text>
</a>
</g>
<!-- Node7&#45;&gt;Node29 -->
<g id="edge60" class="edge"><title>Node7&#45;&gt;Node29</title>
<path fill="none" stroke="midnightblue" d="M1501.44,-175.757C1566.93,-172.875 1685.09,-163.354 1711.38,-132 1717.09,-125.188 1717.56,-118.387 1711.38,-112 1668.82,-68.0241 671.342,-81.4042 610.381,-76 605.723,-75.587 600.88,-75.0588 596.046,-74.4658"/>
<polygon fill="midnightblue" stroke="midnightblue" points="1501.25,-172.261 1491.4,-176.164 1501.53,-179.255 1501.25,-172.261"/>
</g>
<!-- Node30 -->
<g id="node61" class="node"><title>Node30</title>
<a xlink:href="_s_l_scene_8cpp.html" target="_top" xlink:title="SLScene.cpp">
<polygon fill="white" stroke="black" points="2040.88,-0.5 2040.88,-19.5 2119.88,-19.5 2119.88,-0.5 2040.88,-0.5"/>
<text text-anchor="middle" x="2080.38" y="-7.5" font-family="Arial.ttf" font-size="10.00">SLScene.cpp</text>
</a>
</g>
<!-- Node7&#45;&gt;Node30 -->
<g id="edge62" class="edge"><title>Node7&#45;&gt;Node30</title>
<path fill="none" stroke="midnightblue" d="M1501.59,-177.476C1581.3,-177.232 1753.7,-171.646 1892.38,-132 1911.87,-126.427 1913.81,-117.284 1933.38,-112 1985.98,-97.8013 2385.3,-115.913 2422.38,-76 2428.43,-69.488 2428.24,-62.6828 2422.38,-56 2402.69,-33.5444 2205.99,-18.7593 2120.13,-13.3269"/>
<polygon fill="midnightblue" stroke="midnightblue" points="1501.43,-173.976 1491.43,-177.479 1501.43,-180.976 1501.43,-173.976"/>
</g>
<!-- Node31 -->
<g id="node64" class="node"><title>Node31</title>
<a xlink:href="_s_l_text_8cpp.html" target="_top" xlink:title="SLText.cpp">
<polygon fill="white" stroke="black" points="1942.88,-112.5 1942.88,-131.5 2011.88,-131.5 2011.88,-112.5 1942.88,-112.5"/>
<text text-anchor="middle" x="1977.38" y="-119.5" font-family="Arial.ttf" font-size="10.00">SLText.cpp</text>
</a>
</g>
<!-- Node7&#45;&gt;Node31 -->
<g id="edge66" class="edge"><title>Node7&#45;&gt;Node31</title>
<path fill="none" stroke="midnightblue" d="M1501.64,-174.053C1585.27,-168.201 1772.15,-153.77 1928.38,-132 1933.01,-131.355 1937.86,-130.582 1942.64,-129.764"/>
<polygon fill="midnightblue" stroke="midnightblue" points="1501.22,-170.574 1491.49,-174.757 1501.7,-177.557 1501.22,-170.574"/>
</g>
<!-- Node32 -->
<g id="node66" class="node"><title>Node32</title>
<a xlink:href="_s_l_transfer_function_8cpp.html" target="_top" xlink:title="SLTransferFunction.cpp">
<polygon fill="white" stroke="black" points="2030.38,-112.5 2030.38,-131.5 2158.38,-131.5 2158.38,-112.5 2030.38,-112.5"/>
<text text-anchor="middle" x="2094.38" y="-119.5" font-family="Arial.ttf" font-size="10.00">SLTransferFunction.cpp</text>
</a>
</g>
<!-- Node7&#45;&gt;Node32 -->
<g id="edge68" class="edge"><title>Node7&#45;&gt;Node32</title>
<path fill="none" stroke="midnightblue" d="M1501.82,-174.074C1597.01,-167.669 1827.61,-151.418 2020.38,-132 2023.6,-131.676 2026.9,-131.329 2030.22,-130.967"/>
<polygon fill="midnightblue" stroke="midnightblue" points="1501.44,-170.592 1491.7,-174.752 1501.91,-177.576 1501.44,-170.592"/>
</g>
<!-- Node33 -->
<g id="node68" class="node"><title>Node33</title>
<a xlink:href="_s_l_scene_view_8h.html" target="_top" xlink:title="SLSceneView.h">
<polygon fill="white" stroke="black" points="1758.88,-112.5 1758.88,-131.5 1847.88,-131.5 1847.88,-112.5 1758.88,-112.5"/>
<text text-anchor="middle" x="1803.38" y="-119.5" font-family="Arial.ttf" font-size="10.00">SLSceneView.h</text>
</a>
</g>
<!-- Node7&#45;&gt;Node33 -->
<g id="edge70" class="edge"><title>Node7&#45;&gt;Node33</title>
<path fill="none" stroke="midnightblue" d="M1501.62,-170.095C1567.88,-159.754 1692.2,-140.352 1758.71,-129.972"/>
<polygon fill="midnightblue" stroke="midnightblue" points="1500.84,-166.674 1491.5,-171.674 1501.92,-173.591 1500.84,-166.674"/>
</g>
<!-- Node33&#45;&gt;Node4 -->
<g id="edge112" class="edge"><title>Node33&#45;&gt;Node4</title>
<path fill="none" stroke="midnightblue" d="M1858.44,-117.16C1988.8,-108.042 2313.53,-85.1663 2422.38,-76 2438.06,-74.6793 2455.2,-73.0836 2470.5,-71.6047"/>
<polygon fill="midnightblue" stroke="midnightblue" points="1858.02,-113.681 1848.29,-117.87 1858.51,-120.664 1858.02,-113.681"/>
</g>
<!-- Node33&#45;&gt;Node6 -->
<g id="edge110" class="edge"><title>Node33&#45;&gt;Node6</title>
<path fill="none" stroke="midnightblue" d="M1857.91,-116.97C1881.16,-115.318 1908.59,-113.456 1933.38,-112 2264.75,-92.5361 2349.05,-108.662 2679.38,-76 2682.42,-75.6994 2685.54,-75.3515 2688.69,-74.9707"/>
<polygon fill="midnightblue" stroke="midnightblue" points="1857.61,-113.482 1847.89,-117.688 1858.11,-120.465 1857.61,-113.482"/>
</g>
<!-- Node33&#45;&gt;Node8 -->
<g id="edge72" class="edge"><title>Node33&#45;&gt;Node8</title>
<path fill="none" stroke="midnightblue" d="M1858.44,-112.557C1859.77,-112.368 1861.08,-112.182 1862.38,-112 1987.51,-94.472 2019.23,-93.3725 2144.38,-76 2147.41,-75.58 2150.52,-75.1397 2153.65,-74.689"/>
<polygon fill="midnightblue" stroke="midnightblue" points="1857.53,-109.152 1848.14,-114.055 1858.54,-116.079 1857.53,-109.152"/>
</g>
<!-- Node33&#45;&gt;Node9 -->
<g id="edge74" class="edge"><title>Node33&#45;&gt;Node9</title>
<path fill="none" stroke="midnightblue" d="M1858.22,-115.895C1944.47,-107.807 2117.1,-91.3821 2263.38,-76 2266.44,-75.6784 2269.56,-75.3457 2272.72,-75.006"/>
<polygon fill="midnightblue" stroke="midnightblue" points="1857.76,-112.422 1848.13,-116.84 1858.41,-119.392 1857.76,-112.422"/>
</g>
<!-- Node33&#45;&gt;Node20 -->
<g id="edge80" class="edge"><title>Node33&#45;&gt;Node20</title>
<path fill="none" stroke="midnightblue" d="M1857.92,-117.07C1881.17,-115.434 1908.6,-113.558 1933.38,-112 2216.39,-94.2074 2288.51,-106.939 2570.38,-76 2573.46,-75.6622 2576.63,-75.2682 2579.81,-74.8373"/>
<polygon fill="midnightblue" stroke="midnightblue" points="1857.62,-113.582 1847.9,-117.778 1858.12,-120.565 1857.62,-113.582"/>
</g>
<!-- Node33&#45;&gt;Node26 -->
<g id="edge88" class="edge"><title>Node33&#45;&gt;Node26</title>
<path fill="none" stroke="midnightblue" d="M1748.46,-114.968C1736.27,-113.813 1723.4,-112.736 1711.38,-112 1067.94,-72.5923 905.351,-105.447 261.381,-76 236.039,-74.8412 208.052,-73.0583 184.163,-71.3842"/>
<polygon fill="midnightblue" stroke="midnightblue" points="1748.22,-118.461 1758.51,-115.951 1748.9,-111.494 1748.22,-118.461"/>
</g>
<!-- Node33&#45;&gt;Node27 -->
<g id="edge90" class="edge"><title>Node33&#45;&gt;Node27</title>
<path fill="none" stroke="midnightblue" d="M1748.46,-114.988C1736.26,-113.832 1723.39,-112.749 1711.38,-112 1120.76,-75.1693 969.8,-128.721 380.381,-76 377.698,-75.76 374.951,-75.4759 372.181,-75.1592"/>
<polygon fill="midnightblue" stroke="midnightblue" points="1748.22,-118.481 1758.51,-115.971 1748.9,-111.514 1748.22,-118.481"/>
</g>
<!-- Node33&#45;&gt;Node28 -->
<g id="edge92" class="edge"><title>Node33&#45;&gt;Node28</title>
<path fill="none" stroke="midnightblue" d="M1748.46,-115.01C1736.26,-113.853 1723.39,-112.764 1711.38,-112 1170.02,-77.5729 1031.35,-127.915 491.381,-76 488.685,-75.7407 485.92,-75.4305 483.134,-75.0836"/>
<polygon fill="midnightblue" stroke="midnightblue" points="1748.22,-118.503 1758.51,-115.993 1748.9,-111.537 1748.22,-118.503"/>
</g>
<!-- Node33&#45;&gt;Node29 -->
<g id="edge94" class="edge"><title>Node33&#45;&gt;Node29</title>
<path fill="none" stroke="midnightblue" d="M1748.34,-112.389C1747.01,-112.25 1745.69,-112.12 1744.38,-112 1242.24,-65.8973 1112.69,-120.289 610.381,-76 605.722,-75.5892 600.879,-75.0625 596.046,-74.4704"/>
<polygon fill="midnightblue" stroke="midnightblue" points="1748.33,-115.912 1758.67,-113.605 1749.15,-108.96 1748.33,-115.912"/>
</g>
<!-- Node33&#45;&gt;Node30 -->
<g id="edge108" class="edge"><title>Node33&#45;&gt;Node30</title>
<path fill="none" stroke="midnightblue" d="M1773.91,-107.859C1749.31,-95.1139 1720.73,-74.9734 1737.38,-56 1757.16,-33.4553 1954.9,-18.6955 2040.84,-13.2977"/>
<polygon fill="midnightblue" stroke="midnightblue" points="1772.52,-111.079 1783.04,-112.364 1775.62,-104.801 1772.52,-111.079"/>
</g>
<!-- Node34 -->
<g id="node72" class="node"><title>Node34</title>
<a xlink:href="_s_l_c_v_tracked_aruco_8cpp.html" target="_top" xlink:title="SLCVTrackedAruco.cpp">
<polygon fill="white" stroke="black" points="1746.38,-56.5 1746.38,-75.5 1874.38,-75.5 1874.38,-56.5 1746.38,-56.5"/>
<text text-anchor="middle" x="1810.38" y="-63.5" font-family="Arial.ttf" font-size="10.00">SLCVTrackedAruco.cpp</text>
</a>
</g>
<!-- Node33&#45;&gt;Node34 -->
<g id="edge76" class="edge"><title>Node33&#45;&gt;Node34</title>
<path fill="none" stroke="midnightblue" d="M1805.83,-102.101C1806.99,-93.1357 1808.33,-82.8579 1809.25,-75.7511"/>
<polygon fill="midnightblue" stroke="midnightblue" points="1802.35,-101.716 1804.54,-112.083 1809.29,-102.616 1802.35,-101.716"/>
</g>
<!-- Node35 -->
<g id="node74" class="node"><title>Node35</title>
<a xlink:href="_s_l_c_v_tracked_features_8cpp.html" target="_top" xlink:title="SLCVTrackedFeatures.cpp">
<polygon fill="white" stroke="black" points="1892.38,-56.5 1892.38,-75.5 2034.38,-75.5 2034.38,-56.5 1892.38,-56.5"/>
<text text-anchor="middle" x="1963.38" y="-63.5" font-family="Arial.ttf" font-size="10.00">SLCVTrackedFeatures.cpp</text>
</a>
</g>
<!-- Node33&#45;&gt;Node35 -->
<g id="edge78" class="edge"><title>Node33&#45;&gt;Node35</title>
<path fill="none" stroke="midnightblue" d="M1838.43,-109.172C1868.55,-99.0039 1911.28,-84.5852 1938.15,-75.5164"/>
<polygon fill="midnightblue" stroke="midnightblue" points="1837.09,-105.929 1828.73,-112.444 1839.33,-112.562 1837.09,-105.929"/>
</g>
<!-- Node36 -->
<g id="node77" class="node"><title>Node36</title>
<a xlink:href="_s_l_skybox_8cpp.html" target="_top" xlink:title="SLSkybox.cpp">
<polygon fill="white" stroke="black" points="2052.88,-56.5 2052.88,-75.5 2135.88,-75.5 2135.88,-56.5 2052.88,-56.5"/>
<text text-anchor="middle" x="2094.38" y="-63.5" font-family="Arial.ttf" font-size="10.00">SLSkybox.cpp</text>
</a>
</g>
<!-- Node33&#45;&gt;Node36 -->
<g id="edge82" class="edge"><title>Node33&#45;&gt;Node36</title>
<path fill="none" stroke="midnightblue" d="M1858.08,-110.851C1914.58,-100.365 2001.53,-84.2307 2052.7,-74.734"/>
<polygon fill="midnightblue" stroke="midnightblue" points="1857.09,-107.474 1847.89,-112.74 1858.37,-114.356 1857.09,-107.474"/>
</g>
<!-- Node37 -->
<g id="node79" class="node"><title>Node37</title>
<a xlink:href="_s_l_anim_track_8cpp.html" target="_top" xlink:title="SLAnimTrack.cpp">
<polygon fill="white" stroke="black" points="652.881,-56.5 652.881,-75.5 751.881,-75.5 751.881,-56.5 652.881,-56.5"/>
<text text-anchor="middle" x="702.381" y="-63.5" font-family="Arial.ttf" font-size="10.00">SLAnimTrack.cpp</text>
</a>
</g>
<!-- Node33&#45;&gt;Node37 -->
<g id="edge84" class="edge"><title>Node33&#45;&gt;Node37</title>
<path fill="none" stroke="midnightblue" d="M1748.34,-112.397C1747.01,-112.256 1745.69,-112.123 1744.38,-112 1308.69,-70.9358 1196.02,-117.624 760.381,-76 757.643,-75.7383 754.836,-75.4317 752.007,-75.0926"/>
<polygon fill="midnightblue" stroke="midnightblue" points="1748.33,-115.921 1758.67,-113.628 1749.15,-108.97 1748.33,-115.921"/>
</g>
<!-- Node38 -->
<g id="node81" class="node"><title>Node38</title>
<a xlink:href="_s_l_camera_8cpp.html" target="_top" xlink:title="SLCamera.cpp">
<polygon fill="white" stroke="black" points="769.881,-56.5 769.881,-75.5 856.881,-75.5 856.881,-56.5 769.881,-56.5"/>
<text text-anchor="middle" x="813.381" y="-63.5" font-family="Arial.ttf" font-size="10.00">SLCamera.cpp</text>
</a>
</g>
<!-- Node33&#45;&gt;Node38 -->
<g id="edge86" class="edge"><title>Node33&#45;&gt;Node38</title>
<path fill="none" stroke="midnightblue" d="M1748.34,-112.405C1747.01,-112.261 1745.69,-112.126 1744.38,-112 1355.19,-74.4622 1254.17,-117.428 865.381,-76 862.648,-75.7088 859.842,-75.3622 857.016,-74.9773"/>
<polygon fill="midnightblue" stroke="midnightblue" points="1748.32,-115.928 1758.67,-113.649 1749.16,-108.978 1748.32,-115.928"/>
</g>
<!-- Node39 -->
<g id="node87" class="node"><title>Node39</title>
<a xlink:href="_s_l_material_8cpp.html" target="_top" xlink:title="SLMaterial.cpp">
<polygon fill="white" stroke="black" points="874.881,-56.5 874.881,-75.5 961.881,-75.5 961.881,-56.5 874.881,-56.5"/>
<text text-anchor="middle" x="918.381" y="-63.5" font-family="Arial.ttf" font-size="10.00">SLMaterial.cpp</text>
</a>
</g>
<!-- Node33&#45;&gt;Node39 -->
<g id="edge96" class="edge"><title>Node33&#45;&gt;Node39</title>
<path fill="none" stroke="midnightblue" d="M1748.34,-112.415C1747.01,-112.268 1745.69,-112.13 1744.38,-112 1402.14,-78.0215 1313.33,-112.857 971.381,-76 968.319,-75.6699 965.166,-75.2754 961.996,-74.8385"/>
<polygon fill="midnightblue" stroke="midnightblue" points="1748.32,-115.938 1758.67,-113.675 1749.16,-108.99 1748.32,-115.938"/>
</g>
<!-- Node40 -->
<g id="node89" class="node"><title>Node40</title>
<a xlink:href="_s_l_mesh_8cpp.html" target="_top" xlink:title="SLMesh.cpp">
<polygon fill="white" stroke="black" points="980.381,-56.5 980.381,-75.5 1054.38,-75.5 1054.38,-56.5 980.381,-56.5"/>
<text text-anchor="middle" x="1017.38" y="-63.5" font-family="Arial.ttf" font-size="10.00">SLMesh.cpp</text>
</a>
</g>
<!-- Node33&#45;&gt;Node40 -->
<g id="edge98" class="edge"><title>Node33&#45;&gt;Node40</title>
<path fill="none" stroke="midnightblue" d="M1748.34,-112.426C1747.01,-112.276 1745.69,-112.134 1744.38,-112 1442.87,-81.1099 1364.18,-113.19 1063.38,-76 1060.47,-75.6405 1057.47,-75.2042 1054.47,-74.7197"/>
<polygon fill="midnightblue" stroke="midnightblue" points="1748.31,-115.949 1758.66,-113.705 1749.17,-109.002 1748.31,-115.949"/>
</g>
<!-- Node41 -->
<g id="node91" class="node"><title>Node41</title>
<a xlink:href="_s_l_node_8cpp.html" target="_top" xlink:title="SLNode.cpp">
<polygon fill="white" stroke="black" points="833.381,-0.5 833.381,-19.5 907.381,-19.5 907.381,-0.5 833.381,-0.5"/>
<text text-anchor="middle" x="870.381" y="-7.5" font-family="Arial.ttf" font-size="10.00">SLNode.cpp</text>
</a>
</g>
<!-- Node33&#45;&gt;Node41 -->
<g id="edge100" class="edge"><title>Node33&#45;&gt;Node41</title>
<path fill="none" stroke="midnightblue" d="M1748.23,-113.833C1741.55,-113.127 1734.82,-112.492 1728.38,-112 1668.25,-107.403 685.315,-119.348 643.381,-76 586.662,-17.3676 755.291,-10.6131 833.196,-10.512"/>
<polygon fill="midnightblue" stroke="midnightblue" points="1748.3,-117.363 1758.63,-114.989 1749.08,-110.406 1748.3,-117.363"/>
</g>
<!-- Node42 -->
<g id="node93" class="node"><title>Node42</title>
<a xlink:href="_s_l_pathtracer_8cpp.html" target="_top" xlink:title="SLPathtracer.cpp">
<polygon fill="white" stroke="black" points="1179.88,-56.5 1179.88,-75.5 1278.88,-75.5 1278.88,-56.5 1179.88,-56.5"/>
<text text-anchor="middle" x="1229.38" y="-63.5" font-family="Arial.ttf" font-size="10.00">SLPathtracer.cpp</text>
</a>
</g>
<!-- Node33&#45;&gt;Node42 -->
<g id="edge102" class="edge"><title>Node33&#45;&gt;Node42</title>
<path fill="none" stroke="midnightblue" d="M1748.33,-112.472C1747,-112.308 1745.68,-112.151 1744.38,-112 1542.43,-88.6562 1490.33,-99.3438 1288.38,-76 1285.29,-75.6431 1282.12,-75.2462 1278.92,-74.8236"/>
<polygon fill="midnightblue" stroke="midnightblue" points="1748.28,-115.995 1758.65,-113.828 1749.19,-109.055 1748.28,-115.995"/>
</g>
<!-- Node43 -->
<g id="node95" class="node"><title>Node43</title>
<a xlink:href="_s_l_ray_8cpp.html" target="_top" xlink:title="SLRay.cpp">
<polygon fill="white" stroke="black" points="1297.38,-56.5 1297.38,-75.5 1363.38,-75.5 1363.38,-56.5 1297.38,-56.5"/>
<text text-anchor="middle" x="1330.38" y="-63.5" font-family="Arial.ttf" font-size="10.00">SLRay.cpp</text>
</a>
</g>
<!-- Node33&#45;&gt;Node43 -->
<g id="edge104" class="edge"><title>Node33&#45;&gt;Node43</title>
<path fill="none" stroke="midnightblue" d="M1748.33,-112.503C1747,-112.33 1745.68,-112.162 1744.38,-112 1579.55,-91.4681 1536.53,-101.444 1372.38,-76 1369.58,-75.5659 1366.69,-75.0624 1363.79,-74.5197"/>
<polygon fill="midnightblue" stroke="midnightblue" points="1748.26,-116.026 1758.64,-113.911 1749.2,-109.09 1748.26,-116.026"/>
</g>
<!-- Node44 -->
<g id="node97" class="node"><title>Node44</title>
<a xlink:href="_s_l_raytracer_8cpp.html" target="_top" xlink:title="SLRaytracer.cpp">
<polygon fill="white" stroke="black" points="1381.88,-56.5 1381.88,-75.5 1476.88,-75.5 1476.88,-56.5 1381.88,-56.5"/>
<text text-anchor="middle" x="1429.38" y="-63.5" font-family="Arial.ttf" font-size="10.00">SLRaytracer.cpp</text>
</a>
</g>
<!-- Node33&#45;&gt;Node44 -->
<g id="edge106" class="edge"><title>Node33&#45;&gt;Node44</title>
<path fill="none" stroke="midnightblue" d="M1748.32,-112.577C1746.99,-112.382 1745.68,-112.189 1744.38,-112 1629.38,-95.2369 1600.32,-93.2216 1485.38,-76 1482.65,-75.5914 1479.85,-75.1646 1477.03,-74.7283"/>
<polygon fill="midnightblue" stroke="midnightblue" points="1748.21,-116.099 1758.61,-114.107 1749.24,-109.175 1748.21,-116.099"/>
</g>
<!-- Node45 -->
<g id="node102" class="node"><title>Node45</title>
<a xlink:href="_s_l_uniform_grid_8cpp.html" target="_top" xlink:title="SLUniformGrid.cpp">
<polygon fill="white" stroke="black" points="1494.88,-56.5 1494.88,-75.5 1601.88,-75.5 1601.88,-56.5 1494.88,-56.5"/>
<text text-anchor="middle" x="1548.38" y="-63.5" font-family="Arial.ttf" font-size="10.00">SLUniformGrid.cpp</text>
</a>
</g>
<!-- Node33&#45;&gt;Node45 -->
<g id="edge114" class="edge"><title>Node33&#45;&gt;Node45</title>
<path fill="none" stroke="midnightblue" d="M1753.07,-110.346C1704.88,-100.141 1633.1,-84.94 1588.6,-75.5164"/>
<polygon fill="midnightblue" stroke="midnightblue" points="1752.47,-113.796 1762.98,-112.444 1753.92,-106.948 1752.47,-113.796"/>
</g>
<!-- Node46 -->
<g id="node104" class="node"><title>Node46</title>
<a xlink:href="_s_l_button_8h.html" target="_top" xlink:title="SLButton.h">
<polygon fill="white" stroke="red" points="1620.38,-56.5 1620.38,-75.5 1690.38,-75.5 1690.38,-56.5 1620.38,-56.5"/>
<text text-anchor="middle" x="1655.38" y="-63.5" font-family="Arial.ttf" font-size="10.00">SLButton.h</text>
</a>
</g>
<!-- Node33&#45;&gt;Node46 -->
<g id="edge116" class="edge"><title>Node33&#45;&gt;Node46</title>
<path fill="none" stroke="midnightblue" d="M1770.23,-108.906C1742.41,-98.7536 1703.36,-84.5063 1678.72,-75.5164"/>
<polygon fill="midnightblue" stroke="midnightblue" points="1769.34,-112.304 1779.93,-112.444 1771.74,-105.728 1769.34,-112.304"/>
</g>
<!-- Node47 -->
<g id="node106" class="node"><title>Node47</title>
<a xlink:href="_s_l_c_v_tracked_8h.html" target="_top" xlink:title="SLCVTracked.h">
<polygon fill="white" stroke="red" points="1072.88,-56.5 1072.88,-75.5 1161.88,-75.5 1161.88,-56.5 1072.88,-56.5"/>
<text text-anchor="middle" x="1117.38" y="-63.5" font-family="Arial.ttf" font-size="10.00">SLCVTracked.h</text>
</a>
</g>
<!-- Node33&#45;&gt;Node47 -->
<g id="edge118" class="edge"><title>Node33&#45;&gt;Node47</title>
<path fill="none" stroke="midnightblue" d="M1748.33,-112.443C1747,-112.288 1745.69,-112.14 1744.38,-112 1490.23,-84.7002 1424.29,-105.438 1170.38,-76 1167.69,-75.6883 1164.93,-75.3317 1162.15,-74.9444"/>
<polygon fill="midnightblue" stroke="midnightblue" points="1748.3,-115.967 1758.66,-113.751 1749.18,-109.022 1748.3,-115.967"/>
</g>
<!-- Node47&#45;&gt;Node19 -->
<g id="edge120" class="edge"><title>Node47&#45;&gt;Node19</title>
<path fill="none" stroke="midnightblue" d="M1062.52,-56.0049C862.326,-31.9218 636.773,-18.6062 537.995,-13.4677"/>
<polygon fill="midnightblue" stroke="midnightblue" points="1062.29,-59.5023 1072.64,-57.2338 1063.13,-52.5533 1062.29,-59.5023"/>
</g>
<!-- Node47&#45;&gt;Node30 -->
<g id="edge124" class="edge"><title>Node47&#45;&gt;Node30</title>
<path fill="none" stroke="midnightblue" d="M1172.23,-55.9196C1513.65,-19.2366 1915.06,-12.5281 2040.78,-11.2811"/>
<polygon fill="midnightblue" stroke="midnightblue" points="1171.71,-52.4553 1162.15,-57.0136 1172.47,-59.4144 1171.71,-52.4553"/>
</g>
<!-- Node47&#45;&gt;Node41 -->
<g id="edge122" class="edge"><title>Node47&#45;&gt;Node41</title>
<path fill="none" stroke="midnightblue" d="M1068.23,-54.255C1020.97,-43.9218 950.559,-28.5287 907.719,-19.1629"/>
<polygon fill="midnightblue" stroke="midnightblue" points="1067.73,-57.7269 1078.24,-56.4435 1069.22,-50.8884 1067.73,-57.7269"/>
</g>
<!-- Node48&#45;&gt;Node2 -->
<g id="edge128" class="edge"><title>Node48&#45;&gt;Node2</title>
<path fill="none" stroke="midnightblue" d="M2647.09,-163.177C2630.34,-153.241 2608.28,-140.149 2593.97,-131.655"/>
<polygon fill="midnightblue" stroke="midnightblue" points="2645.37,-166.231 2655.76,-168.324 2648.95,-160.211 2645.37,-166.231"/>
</g>
<!-- Node48&#45;&gt;Node20 -->
<g id="edge130" class="edge"><title>Node48&#45;&gt;Node20</title>
<path fill="none" stroke="midnightblue" d="M2665.82,-158.6C2662.28,-145.382 2656.89,-127.275 2650.38,-112 2644.78,-98.8449 2636.41,-84.5556 2630.93,-75.6885"/>
<polygon fill="midnightblue" stroke="midnightblue" points="2662.46,-159.574 2668.34,-168.385 2669.24,-157.828 2662.46,-159.574"/>
</g>
<!-- Node48&#45;&gt;Node30 -->
<g id="edge132" class="edge"><title>Node48&#45;&gt;Node30</title>
<path fill="none" stroke="midnightblue" d="M2701.77,-164.462C2751.16,-143.047 2837.54,-97.6877 2798.38,-56 2775,-31.1073 2267.32,-15.8988 2120.08,-11.9999"/>
<polygon fill="midnightblue" stroke="midnightblue" points="2700.28,-161.294 2692.44,-168.418 2703.01,-167.739 2700.28,-161.294"/>
</g>
<!-- Node49&#45;&gt;Node6 -->
<g id="edge138" class="edge"><title>Node49&#45;&gt;Node6</title>
<path fill="none" stroke="midnightblue" d="M2801.51,-220.695C2827.04,-209.876 2854.64,-192.091 2844.38,-168 2825.86,-124.479 2778.37,-90.6475 2754.12,-75.5718"/>
<polygon fill="midnightblue" stroke="midnightblue" points="2799.91,-217.561 2791.9,-224.498 2802.49,-224.069 2799.91,-217.561"/>
</g>
<!-- Node49&#45;&gt;Node48 -->
<g id="edge140" class="edge"><title>Node49&#45;&gt;Node48</title>
<path fill="none" stroke="midnightblue" d="M2740.32,-219.177C2723.02,-209.241 2700.23,-196.149 2685.45,-187.655"/>
<polygon fill="midnightblue" stroke="midnightblue" points="2738.86,-222.378 2749.28,-224.324 2742.35,-216.308 2738.86,-222.378"/>
</g>
<!-- Node50 -->
<g id="node118" class="node"><title>Node50</title>
<a xlink:href="_s_l_importer_8cpp.html" target="_top" xlink:title="SLImporter.cpp">
<polygon fill="white" stroke="black" points="2745.38,-168.5 2745.38,-187.5 2835.38,-187.5 2835.38,-168.5 2745.38,-168.5"/>
<text text-anchor="middle" x="2790.38" y="-175.5" font-family="Arial.ttf" font-size="10.00">SLImporter.cpp</text>
</a>
</g>
<!-- Node49&#45;&gt;Node50 -->
<g id="edge136" class="edge"><title>Node49&#45;&gt;Node50</title>
<path fill="none" stroke="midnightblue" d="M2773.06,-214.983C2777.47,-205.817 2782.63,-195.092 2786.17,-187.751"/>
<polygon fill="midnightblue" stroke="midnightblue" points="2769.86,-213.555 2768.67,-224.083 2776.17,-216.591 2769.86,-213.555"/>
</g>
</g>
</svg>
