<?xml version="1.0" encoding="UTF-8" standalone="no"?>
<!DOCTYPE svg PUBLIC "-//W3C//DTD SVG 1.1//EN"
 "http://www.w3.org/Graphics/SVG/1.1/DTD/svg11.dtd">
<!-- Generated by graphviz version 2.28.0 (20110507.0327)
 -->
<!-- Title: SLCone.cpp Pages: 1 -->
<svg width="408pt" height="420pt"
 viewBox="0.00 0.00 408.00 420.00" xmlns="http://www.w3.org/2000/svg" xmlns:xlink="http://www.w3.org/1999/xlink">
<g id="graph1" class="graph" transform="scale(1 1) rotate(0) translate(4 416)">
<title>SLCone.cpp</title>
<polygon fill="white" stroke="white" points="-4,5 -4,-416 405,-416 405,5 -4,5"/>
<!-- Node1 -->
<g id="node1" class="node"><title>Node1</title>
<polygon fill="#bfbfbf" stroke="black" points="0,-392.5 0,-411.5 74,-411.5 74,-392.5 0,-392.5"/>
<text text-anchor="middle" x="37" y="-399.5" font-family="Arial.ttf" font-size="10.00">SLCone.cpp</text>
</g>
<!-- Node2 -->
<g id="node3" class="node"><title>Node2</title>
<polygon fill="white" stroke="#bfbfbf" points="94.5,-0.5 94.5,-19.5 149.5,-19.5 149.5,-0.5 94.5,-0.5"/>
<text text-anchor="middle" x="122" y="-7.5" font-family="Arial.ttf" font-size="10.00">stdafx.h</text>
</g>
<!-- Node1&#45;&gt;Node2 -->
<g id="edge2" class="edge"><title>Node1&#45;&gt;Node2</title>
<path fill="none" stroke="midnightblue" d="M33.0889,-392.365C25.1732,-374.073 8,-329.907 8,-291 8,-291 8,-291 8,-121 8,-74.1149 58.5515,-40.8944 92.3292,-23.9302"/>
<polygon fill="midnightblue" stroke="midnightblue" points="93.8676,-27.0742 101.355,-19.5787 90.8277,-20.7687 93.8676,-27.0742"/>
</g>
<!-- Node3 -->
<g id="node5" class="node"><title>Node3</title>
<a xlink:href="_s_l_cone_8h.html" target="_top" xlink:title="SLCone.h">
<polygon fill="white" stroke="black" points="36,-336.5 36,-355.5 98,-355.5 98,-336.5 36,-336.5"/>
<text text-anchor="middle" x="67" y="-343.5" font-family="Arial.ttf" font-size="10.00">SLCone.h</text>
</a>
</g>
<!-- Node1&#45;&gt;Node3 -->
<g id="edge4" class="edge"><title>Node1&#45;&gt;Node3</title>
<path fill="none" stroke="midnightblue" d="M41.9539,-392.083C46.1041,-384.613 52.1531,-373.724 57.2667,-364.52"/>
<polygon fill="midnightblue" stroke="midnightblue" points="60.3414,-366.192 62.1383,-355.751 54.2223,-362.793 60.3414,-366.192"/>
</g>
<!-- Node3&#45;&gt;Node2 -->
<g id="edge6" class="edge"><title>Node3&#45;&gt;Node2</title>
<path fill="none" stroke="midnightblue" d="M64.1678,-336.268C58.4357,-317.794 46,-273.301 46,-235 46,-235 46,-235 46,-121 46,-81.2757 79.9641,-45.5045 102.482,-26.1536"/>
<polygon fill="midnightblue" stroke="midnightblue" points="104.976,-28.6337 110.457,-19.5672 100.518,-23.2364 104.976,-28.6337"/>
</g>
<!-- Node4 -->
<g id="node8" class="node"><title>Node4</title>
<a xlink:href="_s_l_revolver_8h.html" target="_top" xlink:title="SLRevolver.h">
<polygon fill="white" stroke="black" points="107,-280.5 107,-299.5 185,-299.5 185,-280.5 107,-280.5"/>
<text text-anchor="middle" x="146" y="-287.5" font-family="Arial.ttf" font-size="10.00">SLRevolver.h</text>
</a>
</g>
<!-- Node3&#45;&gt;Node4 -->
<g id="edge8" class="edge"><title>Node3&#45;&gt;Node4</title>
<path fill="none" stroke="midnightblue" d="M79.6927,-336.324C91.9011,-327.979 110.578,-315.212 125.003,-305.352"/>
<polygon fill="midnightblue" stroke="midnightblue" points="127.058,-308.187 133.339,-299.655 123.108,-302.408 127.058,-308.187"/>
</g>
<!-- Node5 -->
<g id="node10" class="node"><title>Node5</title>
<a xlink:href="_s_l_mesh_8h.html" target="_top" xlink:title="SLMesh.h">
<polygon fill="white" stroke="black" points="148.5,-224.5 148.5,-243.5 211.5,-243.5 211.5,-224.5 148.5,-224.5"/>
<text text-anchor="middle" x="180" y="-231.5" font-family="Arial.ttf" font-size="10.00">SLMesh.h</text>
</a>
</g>
<!-- Node4&#45;&gt;Node5 -->
<g id="edge10" class="edge"><title>Node4&#45;&gt;Node5</title>
<path fill="none" stroke="midnightblue" d="M151.614,-280.083C156.367,-272.534 163.318,-261.495 169.152,-252.23"/>
<polygon fill="midnightblue" stroke="midnightblue" points="172.124,-254.078 174.49,-243.751 166.2,-250.349 172.124,-254.078"/>
</g>
<!-- Node5&#45;&gt;Node2 -->
<g id="edge12" class="edge"><title>Node5&#45;&gt;Node2</title>
<path fill="none" stroke="midnightblue" d="M166.816,-224.367C155.78,-216.357 140.644,-203.376 133,-188 107.009,-135.717 113.489,-63.764 118.595,-29.9745"/>
<polygon fill="midnightblue" stroke="midnightblue" points="122.114,-30.1454 120.288,-19.7091 115.207,-29.0061 122.114,-30.1454"/>
</g>
<!-- Node6 -->
<g id="node13" class="node"><title>Node6</title>
<a xlink:href="_s_l_a_a_b_box_8h.html" target="_top" xlink:title="SLAABBox.h">
<polygon fill="white" stroke="black" points="142,-168.5 142,-187.5 218,-187.5 218,-168.5 142,-168.5"/>
<text text-anchor="middle" x="180" y="-175.5" font-family="Arial.ttf" font-size="10.00">SLAABBox.h</text>
</a>
</g>
<!-- Node5&#45;&gt;Node6 -->
<g id="edge14" class="edge"><title>Node5&#45;&gt;Node6</title>
<path fill="none" stroke="midnightblue" d="M180,-224.083C180,-217.006 180,-206.861 180,-197.986"/>
<polygon fill="midnightblue" stroke="midnightblue" points="183.5,-197.751 180,-187.751 176.5,-197.751 183.5,-197.751"/>
</g>
<!-- Node8 -->
<g id="node19" class="node"><title>Node8</title>
<a xlink:href="_s_l_g_l_vertex_array_8h.html" target="_top" xlink:title="SLGLVertexArray.h">
<polygon fill="white" stroke="black" points="188.5,-56.5 188.5,-75.5 295.5,-75.5 295.5,-56.5 188.5,-56.5"/>
<text text-anchor="middle" x="242" y="-63.5" font-family="Arial.ttf" font-size="10.00">SLGLVertexArray.h</text>
</a>
</g>
<!-- Node5&#45;&gt;Node8 -->
<g id="edge26" class="edge"><title>Node5&#45;&gt;Node8</title>
<path fill="none" stroke="midnightblue" d="M194.274,-224.315C217.752,-209.073 263.644,-175.002 281,-132 288.247,-114.045 274.283,-95.2593 261.094,-82.5277"/>
<polygon fill="midnightblue" stroke="midnightblue" points="263.364,-79.8614 253.585,-75.7832 258.686,-85.0692 263.364,-79.8614"/>
</g>
<!-- Node9 -->
<g id="node23" class="node"><title>Node9</title>
<a xlink:href="_s_l_enums_8h.html" target="_top" xlink:title="SLEnums.h">
<polygon fill="white" stroke="black" points="328.5,-112.5 328.5,-131.5 399.5,-131.5 399.5,-112.5 328.5,-112.5"/>
<text text-anchor="middle" x="364" y="-119.5" font-family="Arial.ttf" font-size="10.00">SLEnums.h</text>
</a>
</g>
<!-- Node5&#45;&gt;Node9 -->
<g id="edge28" class="edge"><title>Node5&#45;&gt;Node9</title>
<path fill="none" stroke="midnightblue" d="M211.654,-227.828C240.441,-221.925 283.032,-210.087 314,-188 331.329,-175.641 345.47,-155.549 354.237,-140.972"/>
<polygon fill="midnightblue" stroke="midnightblue" points="357.487,-142.34 359.421,-131.923 351.413,-138.86 357.487,-142.34"/>
</g>
<!-- Node6&#45;&gt;Node2 -->
<g id="edge16" class="edge"><title>Node6&#45;&gt;Node2</title>
<path fill="none" stroke="midnightblue" d="M169.907,-168.46C160.791,-160.137 147.795,-146.626 141,-132 125.376,-98.3708 122.222,-54.4116 121.798,-29.8"/>
<polygon fill="midnightblue" stroke="midnightblue" points="125.298,-29.6684 121.764,-19.6804 118.298,-29.6922 125.298,-29.6684"/>
</g>
<!-- Node7 -->
<g id="node16" class="node"><title>Node7</title>
<a xlink:href="_s_l_g_l_vertex_array_ext_8h.html" target="_top" xlink:title="SLGLVertexArrayExt.h">
<polygon fill="white" stroke="black" points="150,-112.5 150,-131.5 272,-131.5 272,-112.5 150,-112.5"/>
<text text-anchor="middle" x="211" y="-119.5" font-family="Arial.ttf" font-size="10.00">SLGLVertexArrayExt.h</text>
</a>
</g>
<!-- Node6&#45;&gt;Node7 -->
<g id="edge18" class="edge"><title>Node6&#45;&gt;Node7</title>
<path fill="none" stroke="midnightblue" d="M185.119,-168.083C189.408,-160.613 195.658,-149.724 200.942,-140.52"/>
<polygon fill="midnightblue" stroke="midnightblue" points="204.033,-142.166 205.976,-131.751 197.962,-138.681 204.033,-142.166"/>
</g>
<!-- Node7&#45;&gt;Node2 -->
<g id="edge20" class="edge"><title>Node7&#45;&gt;Node2</title>
<path fill="none" stroke="midnightblue" d="M204.016,-112.368C189.264,-94.135 154.708,-51.4257 135.492,-27.6752"/>
<polygon fill="midnightblue" stroke="midnightblue" points="137.962,-25.164 128.951,-19.5914 132.52,-29.567 137.962,-25.164"/>
</g>
<!-- Node7&#45;&gt;Node8 -->
<g id="edge22" class="edge"><title>Node7&#45;&gt;Node8</title>
<path fill="none" stroke="midnightblue" d="M216.119,-112.083C220.408,-104.613 226.658,-93.7244 231.942,-84.5199"/>
<polygon fill="midnightblue" stroke="midnightblue" points="235.033,-86.1662 236.976,-75.7511 228.962,-82.6811 235.033,-86.1662"/>
</g>
<!-- Node8&#45;&gt;Node2 -->
<g id="edge24" class="edge"><title>Node8&#45;&gt;Node2</title>
<path fill="none" stroke="midnightblue" d="M222.986,-56.4435C203.412,-47.6356 172.692,-33.8116 150.271,-23.722"/>
<polygon fill="midnightblue" stroke="midnightblue" points="151.481,-20.4284 140.925,-19.5164 148.608,-26.8119 151.481,-20.4284"/>
</g>
<!-- Node9&#45;&gt;Node2 -->
<g id="edge30" class="edge"><title>Node9&#45;&gt;Node2</title>
<path fill="none" stroke="midnightblue" d="M358.511,-112.339C349.121,-98.2625 328.59,-70.5361 304,-56 258.924,-29.3536 198.628,-18.4264 160.041,-13.9849"/>
<polygon fill="midnightblue" stroke="midnightblue" points="160.078,-10.4693 149.765,-12.8965 159.34,-17.4303 160.078,-10.4693"/>
</g>
</g>
</svg>
