<?xml version="1.0" encoding="UTF-8" standalone="no"?>
<!DOCTYPE svg PUBLIC "-//W3C//DTD SVG 1.1//EN"
 "http://www.w3.org/Graphics/SVG/1.1/DTD/svg11.dtd">
<!-- Generated by graphviz version 2.28.0 (20110507.0327)
 -->
<!-- Title: SLCVTrackedFeatures.h Pages: 1 -->
<svg width="2439pt" height="868pt"
 viewBox="0.00 0.00 2439.37 868.00" xmlns="http://www.w3.org/2000/svg" xmlns:xlink="http://www.w3.org/1999/xlink">
<g id="graph1" class="graph" transform="scale(1 1) rotate(0) translate(4 864)">
<title>SLCVTrackedFeatures.h</title>
<polygon fill="white" stroke="white" points="-4,5 -4,-864 2436.37,-864 2436.37,5 -4,5"/>
<!-- Node1 -->
<g id="node1" class="node"><title>Node1</title>
<polygon fill="#bfbfbf" stroke="black" points="261.874,-840.5 261.874,-859.5 392.874,-859.5 392.874,-840.5 261.874,-840.5"/>
<text text-anchor="middle" x="327.374" y="-847.5" font-family="Arial.ttf" font-size="10.00">SLCVTrackedFeatures.h</text>
</g>
<!-- Node2 -->
<g id="node3" class="node"><title>Node2</title>
<a xlink:href="_s_l_c_v_8h.html" target="_top" xlink:title="SLCV.h">
<polygon fill="white" stroke="black" points="254.874,-168.5 254.874,-187.5 305.874,-187.5 305.874,-168.5 254.874,-168.5"/>
<text text-anchor="middle" x="280.374" y="-175.5" font-family="Arial.ttf" font-size="10.00">SLCV.h</text>
</a>
</g>
<!-- Node1&#45;&gt;Node2 -->
<g id="edge2" class="edge"><title>Node1&#45;&gt;Node2</title>
<path fill="none" stroke="midnightblue" d="M324.889,-840.445C318.036,-816.071 299.374,-744.083 299.374,-683 299.374,-683 299.374,-683 299.374,-289 299.374,-256.489 291.215,-219.35 285.59,-197.61"/>
<polygon fill="midnightblue" stroke="midnightblue" points="288.915,-196.498 282.936,-187.751 282.156,-198.317 288.915,-196.498"/>
</g>
<!-- Node7 -->
<g id="node13" class="node"><title>Node7</title>
<a xlink:href="_s_l_c_v_tracked_8h.html" target="_top" xlink:title="SLCVTracked.h">
<polygon fill="white" stroke="black" points="425.874,-784.5 425.874,-803.5 514.874,-803.5 514.874,-784.5 425.874,-784.5"/>
<text text-anchor="middle" x="470.374" y="-791.5" font-family="Arial.ttf" font-size="10.00">SLCVTracked.h</text>
</a>
</g>
<!-- Node1&#45;&gt;Node7 -->
<g id="edge12" class="edge"><title>Node1&#45;&gt;Node7</title>
<path fill="none" stroke="midnightblue" d="M350.032,-840.444C373.776,-831.478 411.283,-817.314 438.112,-807.183"/>
<polygon fill="midnightblue" stroke="midnightblue" points="439.702,-810.324 447.821,-803.516 437.229,-803.775 439.702,-810.324"/>
</g>
<!-- Node8 -->
<g id="node16" class="node"><title>Node8</title>
<a xlink:href="_s_l_node_8h.html" target="_top" xlink:title="SLNode.h">
<polygon fill="white" stroke="black" points="1334.87,-392.5 1334.87,-411.5 1397.87,-411.5 1397.87,-392.5 1334.87,-392.5"/>
<text text-anchor="middle" x="1366.37" y="-399.5" font-family="Arial.ttf" font-size="10.00">SLNode.h</text>
</a>
</g>
<!-- Node1&#45;&gt;Node8 -->
<g id="edge264" class="edge"><title>Node1&#45;&gt;Node8</title>
<path fill="none" stroke="midnightblue" d="M393.224,-849.314C629.316,-849.581 1419.37,-842.727 1419.37,-739 1419.37,-739 1419.37,-739 1419.37,-513 1419.37,-476.992 1396.04,-440.339 1380.34,-419.75"/>
<polygon fill="midnightblue" stroke="midnightblue" points="1382.92,-417.379 1373.97,-411.719 1377.44,-421.729 1382.92,-417.379"/>
</g>
<!-- Node49 -->
<g id="node182" class="node"><title>Node49</title>
<a xlink:href="_s_l_c_v_raul_mur_orb_8h.html" target="_top" xlink:title="SLCVRaulMurOrb.h">
<polygon fill="white" stroke="black" points="106.874,-728.5 106.874,-747.5 213.874,-747.5 213.874,-728.5 106.874,-728.5"/>
<text text-anchor="middle" x="160.374" y="-735.5" font-family="Arial.ttf" font-size="10.00">SLCVRaulMurOrb.h</text>
</a>
</g>
<!-- Node1&#45;&gt;Node49 -->
<g id="edge266" class="edge"><title>Node1&#45;&gt;Node49</title>
<path fill="none" stroke="midnightblue" d="M266.558,-840.475C224.364,-833.17 173.477,-821.102 160.374,-804 150.409,-790.995 151.747,-771.834 154.772,-757.683"/>
<polygon fill="midnightblue" stroke="midnightblue" points="158.259,-758.179 157.377,-747.621 151.482,-756.425 158.259,-758.179"/>
</g>
<!-- Node50 -->
<g id="node185" class="node"><title>Node50</title>
<a xlink:href="_s_l_c_v_feature_manager_8h.html" target="_top" xlink:title="SLCVFeatureManager.h">
<polygon fill="white" stroke="black" points="169.374,-784.5 169.374,-803.5 299.374,-803.5 299.374,-784.5 169.374,-784.5"/>
<text text-anchor="middle" x="234.374" y="-791.5" font-family="Arial.ttf" font-size="10.00">SLCVFeatureManager.h</text>
</a>
</g>
<!-- Node1&#45;&gt;Node50 -->
<g id="edge270" class="edge"><title>Node1&#45;&gt;Node50</title>
<path fill="none" stroke="midnightblue" d="M312.432,-840.324C297.788,-831.822 275.24,-818.729 258.136,-808.797"/>
<polygon fill="midnightblue" stroke="midnightblue" points="259.684,-805.649 249.279,-803.655 256.169,-811.703 259.684,-805.649"/>
</g>
<!-- Node3 -->
<g id="node5" class="node"><title>Node3</title>
<polygon fill="white" stroke="#bfbfbf" points="1285.87,-0.5 1285.87,-19.5 1340.87,-19.5 1340.87,-0.5 1285.87,-0.5"/>
<text text-anchor="middle" x="1313.37" y="-7.5" font-family="Arial.ttf" font-size="10.00">stdafx.h</text>
</g>
<!-- Node2&#45;&gt;Node3 -->
<g id="edge4" class="edge"><title>Node2&#45;&gt;Node3</title>
<path fill="none" stroke="midnightblue" d="M254.807,-176.854C192.667,-175.903 36.4489,-169.729 4.37362,-132 -1.38389,-125.228 -1.49486,-118.676 4.37362,-112 90.5313,-13.982 1070.14,-10.5066 1275.69,-10.8629"/>
<polygon fill="midnightblue" stroke="midnightblue" points="1275.69,-14.3628 1285.7,-10.8844 1275.7,-7.3628 1275.69,-14.3628"/>
</g>
<!-- Node4 -->
<g id="node7" class="node"><title>Node4</title>
<polygon fill="white" stroke="#bfbfbf" points="13.3736,-112.5 13.3736,-131.5 129.374,-131.5 129.374,-112.5 13.3736,-112.5"/>
<text text-anchor="middle" x="71.3736" y="-119.5" font-family="Arial.ttf" font-size="10.00">opencv2/opencv.hpp</text>
</g>
<!-- Node2&#45;&gt;Node4 -->
<g id="edge6" class="edge"><title>Node2&#45;&gt;Node4</title>
<path fill="none" stroke="midnightblue" d="M254.746,-170.379C219.73,-161.331 156.465,-144.985 114.186,-134.061"/>
<polygon fill="midnightblue" stroke="midnightblue" points="115.005,-130.658 104.447,-131.545 113.253,-137.436 115.005,-130.658"/>
</g>
<!-- Node5 -->
<g id="node9" class="node"><title>Node5</title>
<polygon fill="white" stroke="#bfbfbf" points="147.874,-112.5 147.874,-131.5 266.874,-131.5 266.874,-112.5 147.874,-112.5"/>
<text text-anchor="middle" x="207.374" y="-119.5" font-family="Arial.ttf" font-size="10.00">opencv2/core/ocl.hpp</text>
</g>
<!-- Node2&#45;&gt;Node5 -->
<g id="edge8" class="edge"><title>Node2&#45;&gt;Node5</title>
<path fill="none" stroke="midnightblue" d="M268.645,-168.324C257.536,-160.107 240.631,-147.602 227.39,-137.807"/>
<polygon fill="midnightblue" stroke="midnightblue" points="229.437,-134.967 219.316,-131.834 225.274,-140.595 229.437,-134.967"/>
</g>
<!-- Node6 -->
<g id="node11" class="node"><title>Node6</title>
<polygon fill="white" stroke="#bfbfbf" points="285.374,-112.5 285.374,-131.5 423.374,-131.5 423.374,-112.5 285.374,-112.5"/>
<text text-anchor="middle" x="354.374" y="-119.5" font-family="Arial.ttf" font-size="10.00">opencv2/xfeatures2d.hpp</text>
</g>
<!-- Node2&#45;&gt;Node6 -->
<g id="edge10" class="edge"><title>Node2&#45;&gt;Node6</title>
<path fill="none" stroke="midnightblue" d="M292.263,-168.324C303.524,-160.107 320.66,-147.602 334.083,-137.807"/>
<polygon fill="midnightblue" stroke="midnightblue" points="336.253,-140.556 342.268,-131.834 332.127,-134.901 336.253,-140.556"/>
</g>
<!-- Node7&#45;&gt;Node2 -->
<g id="edge256" class="edge"><title>Node7&#45;&gt;Node2</title>
<path fill="none" stroke="midnightblue" d="M443.459,-784.41C404.596,-770.126 337.374,-737.535 337.374,-683 337.374,-683 337.374,-683 337.374,-289 337.374,-252.3 312.053,-215.657 295.164,-195.297"/>
<polygon fill="midnightblue" stroke="midnightblue" points="297.721,-192.904 288.54,-187.616 292.42,-197.475 297.721,-192.904"/>
</g>
<!-- Node7&#45;&gt;Node3 -->
<g id="edge14" class="edge"><title>Node7&#45;&gt;Node3</title>
<path fill="none" stroke="midnightblue" d="M467.811,-784.249C462.625,-765.738 451.374,-721.179 451.374,-683 451.374,-683 451.374,-683 451.374,-121 451.374,-87.0792 462.226,-73.3501 491.374,-56 559.211,-15.6203 1122.26,-11.4216 1275.18,-11.0288"/>
<polygon fill="midnightblue" stroke="midnightblue" points="1275.47,-14.5283 1285.46,-11.0067 1275.46,-7.52831 1275.47,-14.5283"/>
</g>
<!-- Node7&#45;&gt;Node6 -->
<g id="edge262" class="edge"><title>Node7&#45;&gt;Node6</title>
<path fill="none" stroke="midnightblue" d="M462.207,-784.384C446.446,-766.812 413.374,-724.942 413.374,-683 413.374,-683 413.374,-683 413.374,-233 413.374,-196.024 387.164,-159.472 369.683,-139.205"/>
<polygon fill="midnightblue" stroke="midnightblue" points="372.11,-136.669 362.827,-131.562 366.899,-141.343 372.11,-136.669"/>
</g>
<!-- Node7&#45;&gt;Node8 -->
<g id="edge16" class="edge"><title>Node7&#45;&gt;Node8</title>
<path fill="none" stroke="midnightblue" d="M486.585,-784.354C512.016,-771.025 563.065,-745.202 608.374,-728 909.334,-613.738 1054.71,-728.45 1303.37,-524 1336.19,-497.019 1353.95,-448.443 1361.64,-421.78"/>
<polygon fill="midnightblue" stroke="midnightblue" points="1365.1,-422.389 1364.33,-411.822 1358.34,-420.561 1365.1,-422.389"/>
</g>
<!-- Node18 -->
<g id="node50" class="node"><title>Node18</title>
<a xlink:href="_s_l_scene_view_8h.html" target="_top" xlink:title="SLSceneView.h">
<polygon fill="white" stroke="black" points="1301.87,-728.5 1301.87,-747.5 1390.87,-747.5 1390.87,-728.5 1301.87,-728.5"/>
<text text-anchor="middle" x="1346.37" y="-735.5" font-family="Arial.ttf" font-size="10.00">SLSceneView.h</text>
</a>
</g>
<!-- Node7&#45;&gt;Node18 -->
<g id="edge64" class="edge"><title>Node7&#45;&gt;Node18</title>
<path fill="none" stroke="midnightblue" d="M515.019,-790.248C662.061,-781.184 1130.94,-752.28 1291.68,-742.371"/>
<polygon fill="midnightblue" stroke="midnightblue" points="1292.05,-745.855 1301.82,-741.747 1291.62,-738.869 1292.05,-745.855"/>
</g>
<!-- Node38 -->
<g id="node129" class="node"><title>Node38</title>
<a xlink:href="_s_l_c_v_calibration_8h.html" target="_top" xlink:title="SLCVCalibration.h">
<polygon fill="white" stroke="black" points="479.374,-560.5 479.374,-579.5 581.374,-579.5 581.374,-560.5 479.374,-560.5"/>
<text text-anchor="middle" x="530.374" y="-567.5" font-family="Arial.ttf" font-size="10.00">SLCVCalibration.h</text>
</a>
</g>
<!-- Node7&#45;&gt;Node38 -->
<g id="edge258" class="edge"><title>Node7&#45;&gt;Node38</title>
<path fill="none" stroke="midnightblue" d="M472.726,-784.297C481.573,-751.563 512.975,-635.375 525.329,-589.666"/>
<polygon fill="midnightblue" stroke="midnightblue" points="528.742,-590.451 527.973,-579.884 521.985,-588.624 528.742,-590.451"/>
</g>
<!-- Node48 -->
<g id="node178" class="node"><title>Node48</title>
<polygon fill="white" stroke="#bfbfbf" points="617.374,-728.5 617.374,-747.5 725.374,-747.5 725.374,-728.5 617.374,-728.5"/>
<text text-anchor="middle" x="671.374" y="-735.5" font-family="Arial.ttf" font-size="10.00">opencv2/aruco.hpp</text>
</g>
<!-- Node7&#45;&gt;Node48 -->
<g id="edge260" class="edge"><title>Node7&#45;&gt;Node48</title>
<path fill="none" stroke="midnightblue" d="M502.223,-784.444C536.772,-775.162 592.056,-760.309 629.957,-750.127"/>
<polygon fill="midnightblue" stroke="midnightblue" points="630.924,-753.491 639.674,-747.516 629.108,-746.731 630.924,-753.491"/>
</g>
<!-- Node8&#45;&gt;Node3 -->
<g id="edge18" class="edge"><title>Node8&#45;&gt;Node3</title>
<path fill="none" stroke="midnightblue" d="M1365.04,-392.384C1361.37,-367.849 1351.37,-295.478 1351.37,-235 1351.37,-235 1351.37,-235 1351.37,-121 1351.37,-86.8131 1334.77,-49.7639 1323.52,-28.5707"/>
<polygon fill="midnightblue" stroke="midnightblue" points="1326.55,-26.832 1318.66,-19.769 1320.43,-30.2151 1326.55,-26.832"/>
</g>
<!-- Node8&#45;&gt;Node8 -->
<g id="edge52" class="edge"><title>Node8&#45;&gt;Node8</title>
<path fill="none" stroke="midnightblue" d="M1387.27,-411.525C1401.47,-414.308 1415.37,-411.133 1415.37,-402 1415.37,-395.079 1407.39,-391.579 1397.34,-391.501"/>
<polygon fill="midnightblue" stroke="midnightblue" points="1396.89,-388.029 1387.27,-392.475 1397.56,-394.996 1396.89,-388.029"/>
</g>
<!-- Node9 -->
<g id="node19" class="node"><title>Node9</title>
<a xlink:href="_s_l_enums_8h.html" target="_top" xlink:title="SLEnums.h">
<polygon fill="white" stroke="black" points="1251.87,-280.5 1251.87,-299.5 1322.87,-299.5 1322.87,-280.5 1251.87,-280.5"/>
<text text-anchor="middle" x="1287.37" y="-287.5" font-family="Arial.ttf" font-size="10.00">SLEnums.h</text>
</a>
</g>
<!-- Node8&#45;&gt;Node9 -->
<g id="edge20" class="edge"><title>Node8&#45;&gt;Node9</title>
<path fill="none" stroke="midnightblue" d="M1360.17,-392.368C1347.14,-374.215 1316.68,-331.802 1299.58,-307.99"/>
<polygon fill="midnightblue" stroke="midnightblue" points="1302.22,-305.672 1293.54,-299.591 1296.53,-309.755 1302.22,-305.672"/>
</g>
<!-- Node10 -->
<g id="node21" class="node"><title>Node10</title>
<a xlink:href="_s_l_mesh_8h.html" target="_top" xlink:title="SLMesh.h">
<polygon fill="white" stroke="black" points="1055.87,-336.5 1055.87,-355.5 1118.87,-355.5 1118.87,-336.5 1055.87,-336.5"/>
<text text-anchor="middle" x="1087.37" y="-343.5" font-family="Arial.ttf" font-size="10.00">SLMesh.h</text>
</a>
</g>
<!-- Node8&#45;&gt;Node10 -->
<g id="edge22" class="edge"><title>Node8&#45;&gt;Node10</title>
<path fill="none" stroke="midnightblue" d="M1334.64,-394.858C1284.09,-385.073 1185.25,-365.944 1129.05,-355.067"/>
<polygon fill="midnightblue" stroke="midnightblue" points="1129.56,-351.6 1119.08,-353.136 1128.23,-358.473 1129.56,-351.6"/>
</g>
<!-- Node16 -->
<g id="node43" class="node"><title>Node16</title>
<a xlink:href="_s_l_draw_bits_8h.html" target="_top" xlink:title="SLDrawBits.h">
<polygon fill="white" stroke="black" points="1743.37,-280.5 1743.37,-299.5 1823.37,-299.5 1823.37,-280.5 1743.37,-280.5"/>
<text text-anchor="middle" x="1783.37" y="-287.5" font-family="Arial.ttf" font-size="10.00">SLDrawBits.h</text>
</a>
</g>
<!-- Node8&#45;&gt;Node16 -->
<g id="edge54" class="edge"><title>Node8&#45;&gt;Node16</title>
<path fill="none" stroke="midnightblue" d="M1397.97,-396.053C1406.54,-394.724 1415.81,-393.296 1424.37,-392 1532.76,-375.596 1564.69,-391.57 1668.37,-356 1687.18,-349.548 1733.27,-322.015 1761.06,-304.919"/>
<polygon fill="midnightblue" stroke="midnightblue" points="1763.05,-307.804 1769.71,-299.567 1759.36,-301.85 1763.05,-307.804"/>
</g>
<!-- Node17 -->
<g id="node46" class="node"><title>Node17</title>
<a xlink:href="_s_l_event_handler_8h.html" target="_top" xlink:title="SLEventHandler.h">
<polygon fill="white" stroke="black" points="2065.37,-336.5 2065.37,-355.5 2167.37,-355.5 2167.37,-336.5 2065.37,-336.5"/>
<text text-anchor="middle" x="2116.37" y="-343.5" font-family="Arial.ttf" font-size="10.00">SLEventHandler.h</text>
</a>
</g>
<!-- Node8&#45;&gt;Node17 -->
<g id="edge58" class="edge"><title>Node8&#45;&gt;Node17</title>
<path fill="none" stroke="midnightblue" d="M1397.91,-395.584C1406.48,-394.256 1415.76,-392.946 1424.37,-392 1545.77,-378.661 1909.37,-358.202 2055.04,-350.285"/>
<polygon fill="midnightblue" stroke="midnightblue" points="2055.35,-353.774 2065.14,-349.737 2054.97,-346.784 2055.35,-353.774"/>
</g>
<!-- Node10&#45;&gt;Node3 -->
<g id="edge24" class="edge"><title>Node10&#45;&gt;Node3</title>
<path fill="none" stroke="midnightblue" d="M1093.4,-336.359C1116.66,-302.94 1199.37,-183.78 1199.37,-179 1199.37,-179 1199.37,-179 1199.37,-121 1199.37,-90.2048 1202.83,-78.9391 1223.37,-56 1237.34,-40.4092 1257.94,-29.5551 1275.92,-22.419"/>
<polygon fill="midnightblue" stroke="midnightblue" points="1277.42,-25.5952 1285.57,-18.8306 1274.98,-19.0337 1277.42,-25.5952"/>
</g>
<!-- Node10&#45;&gt;Node9 -->
<g id="edge50" class="edge"><title>Node10&#45;&gt;Node9</title>
<path fill="none" stroke="midnightblue" d="M1119.06,-336.444C1153.44,-327.162 1208.45,-312.309 1246.16,-302.127"/>
<polygon fill="midnightblue" stroke="midnightblue" points="1247.09,-305.502 1255.83,-299.516 1245.26,-298.744 1247.09,-305.502"/>
</g>
<!-- Node11 -->
<g id="node24" class="node"><title>Node11</title>
<a xlink:href="_s_l_a_a_b_box_8h.html" target="_top" xlink:title="SLAABBox.h">
<polygon fill="white" stroke="black" points="929.374,-280.5 929.374,-299.5 1005.37,-299.5 1005.37,-280.5 929.374,-280.5"/>
<text text-anchor="middle" x="967.374" y="-287.5" font-family="Arial.ttf" font-size="10.00">SLAABBox.h</text>
</a>
</g>
<!-- Node10&#45;&gt;Node11 -->
<g id="edge26" class="edge"><title>Node10&#45;&gt;Node11</title>
<path fill="none" stroke="midnightblue" d="M1068.36,-336.444C1048.79,-327.636 1018.07,-313.812 995.645,-303.722"/>
<polygon fill="midnightblue" stroke="midnightblue" points="996.855,-300.428 986.299,-299.516 993.982,-306.812 996.855,-300.428"/>
</g>
<!-- Node13 -->
<g id="node30" class="node"><title>Node13</title>
<a xlink:href="_s_l_g_l_vertex_array_8h.html" target="_top" xlink:title="SLGLVertexArray.h">
<polygon fill="white" stroke="black" points="859.874,-168.5 859.874,-187.5 966.874,-187.5 966.874,-168.5 859.874,-168.5"/>
<text text-anchor="middle" x="913.374" y="-175.5" font-family="Arial.ttf" font-size="10.00">SLGLVertexArray.h</text>
</a>
</g>
<!-- Node10&#45;&gt;Node13 -->
<g id="edge48" class="edge"><title>Node10&#45;&gt;Node13</title>
<path fill="none" stroke="midnightblue" d="M1085.47,-336.374C1080.24,-314.534 1063.59,-256.484 1028.37,-224 1010.88,-207.865 986.937,-197.262 965.426,-190.427"/>
<polygon fill="midnightblue" stroke="midnightblue" points="966.328,-187.044 955.745,-187.545 964.331,-193.753 966.328,-187.044"/>
</g>
<!-- Node11&#45;&gt;Node3 -->
<g id="edge28" class="edge"><title>Node11&#45;&gt;Node3</title>
<path fill="none" stroke="midnightblue" d="M984.459,-280.348C998.178,-272.58 1016.97,-259.953 1028.37,-244 1048.97,-215.182 1034.06,-198.32 1052.37,-168 1088.61,-108.012 1103.29,-92.0724 1163.37,-56 1198.35,-35.0034 1243.85,-23.161 1275.53,-16.9548"/>
<polygon fill="midnightblue" stroke="midnightblue" points="1276.51,-20.3315 1285.71,-15.0611 1275.23,-13.4496 1276.51,-20.3315"/>
</g>
<!-- Node12 -->
<g id="node27" class="node"><title>Node12</title>
<a xlink:href="_s_l_g_l_vertex_array_ext_8h.html" target="_top" xlink:title="SLGLVertexArrayExt.h">
<polygon fill="white" stroke="black" points="897.374,-224.5 897.374,-243.5 1019.37,-243.5 1019.37,-224.5 897.374,-224.5"/>
<text text-anchor="middle" x="958.374" y="-231.5" font-family="Arial.ttf" font-size="10.00">SLGLVertexArrayExt.h</text>
</a>
</g>
<!-- Node11&#45;&gt;Node12 -->
<g id="edge30" class="edge"><title>Node11&#45;&gt;Node12</title>
<path fill="none" stroke="midnightblue" d="M965.887,-280.083C964.695,-272.927 962.979,-262.635 961.489,-253.691"/>
<polygon fill="midnightblue" stroke="midnightblue" points="964.929,-253.04 959.832,-243.751 958.024,-254.19 964.929,-253.04"/>
</g>
<!-- Node12&#45;&gt;Node3 -->
<g id="edge32" class="edge"><title>Node12&#45;&gt;Node3</title>
<path fill="none" stroke="midnightblue" d="M965.251,-224.376C979.129,-206.96 1011.46,-166.324 1038.37,-132 1064.76,-98.3506 1061.1,-78.6429 1097.37,-56 1152.69,-21.47 1229.96,-12.9648 1275.52,-11.1414"/>
<polygon fill="midnightblue" stroke="midnightblue" points="1275.67,-14.6382 1285.56,-10.8278 1275.46,-7.64166 1275.67,-14.6382"/>
</g>
<!-- Node12&#45;&gt;Node13 -->
<g id="edge34" class="edge"><title>Node12&#45;&gt;Node13</title>
<path fill="none" stroke="midnightblue" d="M950.943,-224.083C944.521,-216.377 935.068,-205.033 927.251,-195.653"/>
<polygon fill="midnightblue" stroke="midnightblue" points="929.757,-193.193 920.666,-187.751 924.379,-197.674 929.757,-193.193"/>
</g>
<!-- Node13&#45;&gt;Node3 -->
<g id="edge36" class="edge"><title>Node13&#45;&gt;Node3</title>
<path fill="none" stroke="midnightblue" d="M946.582,-168.476C968.419,-161.535 996.522,-149.906 1016.37,-132 1045.19,-106.006 1027.69,-78.4114 1059.37,-56 1093.59,-31.7973 1213.55,-18.9303 1275.58,-13.7609"/>
<polygon fill="midnightblue" stroke="midnightblue" points="1276.06,-17.2344 1285.74,-12.9403 1275.49,-10.2571 1276.06,-17.2344"/>
</g>
<!-- Node14 -->
<g id="node33" class="node"><title>Node14</title>
<a xlink:href="_s_l_g_l_enums_8h.html" target="_top" xlink:title="SLGLEnums.h">
<polygon fill="white" stroke="black" points="885.874,-56.5 885.874,-75.5 968.874,-75.5 968.874,-56.5 885.874,-56.5"/>
<text text-anchor="middle" x="927.374" y="-63.5" font-family="Arial.ttf" font-size="10.00">SLGLEnums.h</text>
</a>
</g>
<!-- Node13&#45;&gt;Node14 -->
<g id="edge38" class="edge"><title>Node13&#45;&gt;Node14</title>
<path fill="none" stroke="midnightblue" d="M905.73,-168.19C895.876,-155.712 880.852,-132.164 888.374,-112 892.547,-100.812 900.893,-90.5598 908.797,-82.6759"/>
<polygon fill="midnightblue" stroke="midnightblue" points="911.435,-85.0029 916.383,-75.6346 906.673,-79.8724 911.435,-85.0029"/>
</g>
<!-- Node15 -->
<g id="node36" class="node"><title>Node15</title>
<a xlink:href="_s_l_g_l_vertex_buffer_8h.html" target="_top" xlink:title="SLGLVertexBuffer.h">
<polygon fill="white" stroke="black" points="897.374,-112.5 897.374,-131.5 1007.37,-131.5 1007.37,-112.5 897.374,-112.5"/>
<text text-anchor="middle" x="952.374" y="-119.5" font-family="Arial.ttf" font-size="10.00">SLGLVertexBuffer.h</text>
</a>
</g>
<!-- Node13&#45;&gt;Node15 -->
<g id="edge42" class="edge"><title>Node13&#45;&gt;Node15</title>
<path fill="none" stroke="midnightblue" d="M919.814,-168.083C925.322,-160.455 933.405,-149.264 940.139,-139.941"/>
<polygon fill="midnightblue" stroke="midnightblue" points="943.036,-141.907 946.053,-131.751 937.361,-137.809 943.036,-141.907"/>
</g>
<!-- Node14&#45;&gt;Node3 -->
<g id="edge40" class="edge"><title>Node14&#45;&gt;Node3</title>
<path fill="none" stroke="midnightblue" d="M968.946,-58.2057C973.808,-57.4447 978.698,-56.6944 983.374,-56 1089.07,-40.3016 1214.14,-23.817 1275.53,-15.8626"/>
<polygon fill="midnightblue" stroke="midnightblue" points="1276.06,-19.3233 1285.53,-14.5695 1275.16,-12.3811 1276.06,-19.3233"/>
</g>
<!-- Node15&#45;&gt;Node3 -->
<g id="edge44" class="edge"><title>Node15&#45;&gt;Node3</title>
<path fill="none" stroke="midnightblue" d="M958.859,-112.091C969.906,-97.6582 993.867,-69.4311 1021.37,-56 1065.45,-34.4768 1206.66,-19.9955 1275.26,-14.0481"/>
<polygon fill="midnightblue" stroke="midnightblue" points="1275.95,-17.502 1285.62,-13.1671 1275.36,-10.5272 1275.95,-17.502"/>
</g>
<!-- Node15&#45;&gt;Node14 -->
<g id="edge46" class="edge"><title>Node15&#45;&gt;Node14</title>
<path fill="none" stroke="midnightblue" d="M948.245,-112.083C944.86,-104.77 939.958,-94.1814 935.755,-85.1034"/>
<polygon fill="midnightblue" stroke="midnightblue" points="938.802,-83.3553 931.425,-75.7511 932.45,-86.2962 938.802,-83.3553"/>
</g>
<!-- Node16&#45;&gt;Node3 -->
<g id="edge56" class="edge"><title>Node16&#45;&gt;Node3</title>
<path fill="none" stroke="midnightblue" d="M1781.41,-280.496C1777.35,-262.095 1768.37,-217.162 1768.37,-179 1768.37,-179 1768.37,-179 1768.37,-121 1768.37,-87.3101 1757.75,-74.1537 1729.37,-56 1667.2,-16.2292 1441.62,-11.2429 1351.22,-10.8778"/>
<polygon fill="midnightblue" stroke="midnightblue" points="1351.15,-7.37771 1341.14,-10.8543 1351.13,-14.3777 1351.15,-7.37771"/>
</g>
<!-- Node17&#45;&gt;Node3 -->
<g id="edge60" class="edge"><title>Node17&#45;&gt;Node3</title>
<path fill="none" stroke="midnightblue" d="M2113.81,-336.249C2108.63,-317.738 2097.37,-273.179 2097.37,-235 2097.37,-235 2097.37,-235 2097.37,-121 2097.37,-86.6051 2085.07,-73.3537 2055.37,-56 1994.29,-20.3072 1493.52,-12.7445 1351.06,-11.309"/>
<polygon fill="midnightblue" stroke="midnightblue" points="1351.08,-7.80919 1341.05,-11.2124 1351.01,-14.8089 1351.08,-7.80919"/>
</g>
<!-- Node17&#45;&gt;Node9 -->
<g id="edge62" class="edge"><title>Node17&#45;&gt;Node9</title>
<path fill="none" stroke="midnightblue" d="M2065.27,-341.941C1948.75,-334.926 1654.43,-316.97 1408.37,-300 1383.5,-298.284 1355.76,-296.231 1333.12,-294.519"/>
<polygon fill="midnightblue" stroke="midnightblue" points="1333.34,-291.026 1323.1,-293.759 1332.81,-298.006 1333.34,-291.026"/>
</g>
<!-- Node18&#45;&gt;Node3 -->
<g id="edge66" class="edge"><title>Node18&#45;&gt;Node3</title>
<path fill="none" stroke="midnightblue" d="M1301.48,-736.498C1159.96,-734.573 729.408,-725.954 677.374,-692 621.934,-655.824 648.28,-612.818 608.374,-560 594.349,-541.438 583.063,-543.499 570.374,-524 539.243,-476.165 527.374,-460.073 527.374,-403 527.374,-403 527.374,-403 527.374,-121 527.374,-85.0879 543.82,-73.1481 575.374,-56 637.066,-22.4724 1132.4,-13.384 1275.06,-11.4506"/>
<polygon fill="midnightblue" stroke="midnightblue" points="1275.52,-14.9449 1285.48,-11.3138 1275.43,-7.94549 1275.52,-14.9449"/>
</g>
<!-- Node18&#45;&gt;Node8 -->
<g id="edge210" class="edge"><title>Node18&#45;&gt;Node8</title>
<path fill="none" stroke="midnightblue" d="M1351.09,-728.456C1360.65,-710.337 1381.37,-666.48 1381.37,-627 1381.37,-627 1381.37,-627 1381.37,-513 1381.37,-480.502 1374.87,-443.095 1370.42,-421.343"/>
<polygon fill="midnightblue" stroke="midnightblue" points="1373.84,-420.559 1368.33,-411.504 1366.99,-422.013 1373.84,-420.559"/>
</g>
<!-- Node18&#45;&gt;Node11 -->
<g id="edge236" class="edge"><title>Node18&#45;&gt;Node11</title>
<path fill="none" stroke="midnightblue" d="M1301.39,-733.583C1161.18,-722.338 741.374,-683.915 741.374,-627 741.374,-627 741.374,-627 741.374,-457 741.374,-431.982 887.084,-340.114 944.507,-304.882"/>
<polygon fill="midnightblue" stroke="midnightblue" points="946.53,-307.747 953.236,-299.545 942.879,-301.775 946.53,-307.747"/>
</g>
<!-- Node18&#45;&gt;Node12 -->
<g id="edge248" class="edge"><title>Node18&#45;&gt;Node12</title>
<path fill="none" stroke="midnightblue" d="M1301.7,-735.076C1194.66,-730.137 925.99,-715.71 839.374,-692 774.757,-674.313 703.374,-693.993 703.374,-627 703.374,-627 703.374,-627 703.374,-457 703.374,-342.311 851.922,-273.369 922.261,-247.153"/>
<polygon fill="midnightblue" stroke="midnightblue" points="923.843,-250.302 932.045,-243.595 921.451,-243.724 923.843,-250.302"/>
</g>
<!-- Node18&#45;&gt;Node16 -->
<g id="edge238" class="edge"><title>Node18&#45;&gt;Node16</title>
<path fill="none" stroke="midnightblue" d="M1390.95,-737.26C1450.33,-736.057 1557.53,-728.408 1640.37,-692 1682.63,-673.429 1721.37,-673.158 1721.37,-627 1721.37,-627 1721.37,-627 1721.37,-457 1721.37,-399.51 1754.41,-337.496 1772.25,-308.198"/>
<polygon fill="midnightblue" stroke="midnightblue" points="1775.31,-309.904 1777.65,-299.57 1769.38,-306.191 1775.31,-309.904"/>
</g>
<!-- Node18&#45;&gt;Node17 -->
<g id="edge220" class="edge"><title>Node18&#45;&gt;Node17</title>
<path fill="none" stroke="midnightblue" d="M1390.93,-735.341C1554.62,-728.662 2113.37,-700.483 2113.37,-627 2113.37,-627 2113.37,-627 2113.37,-457 2113.37,-424.936 2114.66,-387.634 2115.55,-365.745"/>
<polygon fill="midnightblue" stroke="midnightblue" points="2119.06,-365.694 2115.98,-355.556 2112.06,-365.399 2119.06,-365.694"/>
</g>
<!-- Node19 -->
<g id="node53" class="node"><title>Node19</title>
<a xlink:href="_s_l_scene_8h.html" target="_top" xlink:title="SLScene.h">
<polygon fill="white" stroke="black" points="1563.37,-672.5 1563.37,-691.5 1631.37,-691.5 1631.37,-672.5 1563.37,-672.5"/>
<text text-anchor="middle" x="1597.37" y="-679.5" font-family="Arial.ttf" font-size="10.00">SLScene.h</text>
</a>
</g>
<!-- Node18&#45;&gt;Node19 -->
<g id="edge68" class="edge"><title>Node18&#45;&gt;Node19</title>
<path fill="none" stroke="midnightblue" d="M1386.15,-728.444C1431.61,-718.663 1505.81,-702.698 1553.08,-692.529"/>
<polygon fill="midnightblue" stroke="midnightblue" points="1553.99,-695.913 1563.03,-690.388 1552.52,-689.07 1553.99,-695.913"/>
</g>
<!-- Node42 -->
<g id="node148" class="node"><title>Node42</title>
<a xlink:href="_s_l_skybox_8h.html" target="_top" xlink:title="SLSkybox.h">
<polygon fill="white" stroke="black" points="1031.37,-448.5 1031.37,-467.5 1103.37,-467.5 1103.37,-448.5 1031.37,-448.5"/>
<text text-anchor="middle" x="1067.37" y="-455.5" font-family="Arial.ttf" font-size="10.00">SLSkybox.h</text>
</a>
</g>
<!-- Node18&#45;&gt;Node42 -->
<g id="edge212" class="edge"><title>Node18&#45;&gt;Node42</title>
<path fill="none" stroke="midnightblue" d="M1301.82,-732.429C1207.73,-721.539 997.374,-690.132 997.374,-627 997.374,-627 997.374,-627 997.374,-569 997.374,-530.232 1028.7,-494.104 1049.44,-474.434"/>
<polygon fill="midnightblue" stroke="midnightblue" points="1052.01,-476.827 1057.04,-467.504 1047.3,-471.655 1052.01,-476.827"/>
</g>
<!-- Node43 -->
<g id="node154" class="node"><title>Node43</title>
<a xlink:href="_s_l_raytracer_8h.html" target="_top" xlink:title="SLRaytracer.h">
<polygon fill="white" stroke="black" points="2141.87,-392.5 2141.87,-411.5 2224.87,-411.5 2224.87,-392.5 2141.87,-392.5"/>
<text text-anchor="middle" x="2183.37" y="-399.5" font-family="Arial.ttf" font-size="10.00">SLRaytracer.h</text>
</a>
</g>
<!-- Node18&#45;&gt;Node43 -->
<g id="edge222" class="edge"><title>Node18&#45;&gt;Node43</title>
<path fill="none" stroke="midnightblue" d="M1391.11,-737.238C1548.17,-737.692 2068.16,-735.843 2127.37,-692 2152.12,-673.675 2151.37,-657.795 2151.37,-627 2151.37,-627 2151.37,-627 2151.37,-513 2151.37,-479.329 2165.37,-442.085 2174.85,-420.719"/>
<polygon fill="midnightblue" stroke="midnightblue" points="2178.05,-422.138 2179.06,-411.592 2171.69,-419.207 2178.05,-422.138"/>
</g>
<!-- Node44 -->
<g id="node159" class="node"><title>Node44</title>
<a xlink:href="_s_l_pathtracer_8h.html" target="_top" xlink:title="SLPathtracer.h">
<polygon fill="white" stroke="black" points="2299.37,-448.5 2299.37,-467.5 2387.37,-467.5 2387.37,-448.5 2299.37,-448.5"/>
<text text-anchor="middle" x="2343.37" y="-455.5" font-family="Arial.ttf" font-size="10.00">SLPathtracer.h</text>
</a>
</g>
<!-- Node18&#45;&gt;Node44 -->
<g id="edge230" class="edge"><title>Node18&#45;&gt;Node44</title>
<path fill="none" stroke="midnightblue" d="M1390.92,-736.511C1539.32,-734.575 2015.98,-725.813 2165.37,-692 2239.43,-675.237 2323.37,-702.932 2323.37,-627 2323.37,-627 2323.37,-627 2323.37,-569 2323.37,-536.438 2331.96,-499.315 2337.88,-477.592"/>
<polygon fill="midnightblue" stroke="midnightblue" points="2341.32,-478.317 2340.68,-467.742 2334.58,-476.408 2341.32,-478.317"/>
</g>
<!-- Node45 -->
<g id="node165" class="node"><title>Node45</title>
<a xlink:href="_s_l_g_l_oculus_f_b_8h.html" target="_top" xlink:title="SLGLOculusFB.h">
<polygon fill="white" stroke="black" points="579.874,-504.5 579.874,-523.5 674.874,-523.5 674.874,-504.5 579.874,-504.5"/>
<text text-anchor="middle" x="627.374" y="-511.5" font-family="Arial.ttf" font-size="10.00">SLGLOculusFB.h</text>
</a>
</g>
<!-- Node18&#45;&gt;Node45 -->
<g id="edge240" class="edge"><title>Node18&#45;&gt;Node45</title>
<path fill="none" stroke="midnightblue" d="M1301.58,-736.745C1161.46,-735.564 737.855,-728.942 689.374,-692 682.778,-686.974 647.412,-577.844 633.247,-533.492"/>
<polygon fill="midnightblue" stroke="midnightblue" points="636.502,-532.181 630.132,-523.715 629.832,-534.306 636.502,-532.181"/>
</g>
<!-- Node46 -->
<g id="node171" class="node"><title>Node46</title>
<a xlink:href="_s_l_g_l_im_gui_8h.html" target="_top" xlink:title="SLGLImGui.h">
<polygon fill="white" stroke="black" points="2351.37,-672.5 2351.37,-691.5 2429.37,-691.5 2429.37,-672.5 2351.37,-672.5"/>
<text text-anchor="middle" x="2390.37" y="-679.5" font-family="Arial.ttf" font-size="10.00">SLGLImGui.h</text>
</a>
</g>
<!-- Node18&#45;&gt;Node46 -->
<g id="edge250" class="edge"><title>Node18&#45;&gt;Node46</title>
<path fill="none" stroke="midnightblue" d="M1390.97,-736.923C1530.88,-736.263 1973.48,-731.01 2337.37,-692 2338.63,-691.866 2339.89,-691.721 2341.17,-691.566"/>
<polygon fill="midnightblue" stroke="midnightblue" points="2341.65,-695.034 2351.09,-690.224 2340.71,-688.097 2341.65,-695.034"/>
</g>
<!-- Node19&#45;&gt;Node3 -->
<g id="edge70" class="edge"><title>Node19&#45;&gt;Node3</title>
<path fill="none" stroke="midnightblue" d="M1631.38,-681.161C1698.32,-680.563 1851.18,-674.649 1972.37,-636 2143.06,-581.569 2253.37,-526.151 2253.37,-347 2253.37,-347 2253.37,-347 2253.37,-121 2253.37,-62.6761 2195.32,-72.4717 2139.37,-56 1988.82,-11.6773 1493.29,-10.2354 1351.55,-10.7619"/>
<polygon fill="midnightblue" stroke="midnightblue" points="1351.19,-7.26327 1341.21,-10.8063 1351.22,-14.2632 1351.19,-7.26327"/>
</g>
<!-- Node19&#45;&gt;Node8 -->
<g id="edge104" class="edge"><title>Node19&#45;&gt;Node8</title>
<path fill="none" stroke="midnightblue" d="M1592.09,-672.231C1581.65,-654.043 1559.37,-610.601 1559.37,-571 1559.37,-571 1559.37,-571 1559.37,-513 1559.37,-476.981 1456.63,-434.964 1401.07,-414.876"/>
<polygon fill="midnightblue" stroke="midnightblue" points="1402.2,-411.563 1391.6,-411.501 1399.85,-418.156 1402.2,-411.563"/>
</g>
<!-- Node19&#45;&gt;Node17 -->
<g id="edge98" class="edge"><title>Node19&#45;&gt;Node17</title>
<path fill="none" stroke="midnightblue" d="M1631.54,-679.477C1691.9,-676.094 1820.89,-665.738 1925.37,-636 2007.76,-612.553 2075.37,-600.653 2075.37,-515 2075.37,-515 2075.37,-515 2075.37,-457 2075.37,-422.515 2093.28,-385.562 2105.43,-364.468"/>
<polygon fill="midnightblue" stroke="midnightblue" points="2108.54,-366.09 2110.67,-355.712 2102.53,-362.494 2108.54,-366.09"/>
</g>
<!-- Node20 -->
<g id="node56" class="node"><title>Node20</title>
<a xlink:href="_s_l_material_8h.html" target="_top" xlink:title="SLMaterial.h">
<polygon fill="white" stroke="black" points="1583.37,-336.5 1583.37,-355.5 1659.37,-355.5 1659.37,-336.5 1583.37,-336.5"/>
<text text-anchor="middle" x="1621.37" y="-343.5" font-family="Arial.ttf" font-size="10.00">SLMaterial.h</text>
</a>
</g>
<!-- Node19&#45;&gt;Node20 -->
<g id="edge72" class="edge"><title>Node19&#45;&gt;Node20</title>
<path fill="none" stroke="midnightblue" d="M1602.66,-672.231C1613.1,-654.043 1635.37,-610.601 1635.37,-571 1635.37,-571 1635.37,-571 1635.37,-457 1635.37,-424.541 1629.3,-387.121 1625.15,-365.356"/>
<polygon fill="midnightblue" stroke="midnightblue" points="1628.58,-364.64 1623.2,-355.511 1621.71,-366 1628.58,-364.64"/>
</g>
<!-- Node25 -->
<g id="node75" class="node"><title>Node25</title>
<a xlink:href="_s_l_light_8h.html" target="_top" xlink:title="SLLight.h">
<polygon fill="white" stroke="black" points="1433.87,-392.5 1433.87,-411.5 1494.87,-411.5 1494.87,-392.5 1433.87,-392.5"/>
<text text-anchor="middle" x="1464.37" y="-399.5" font-family="Arial.ttf" font-size="10.00">SLLight.h</text>
</a>
</g>
<!-- Node19&#45;&gt;Node25 -->
<g id="edge100" class="edge"><title>Node19&#45;&gt;Node25</title>
<path fill="none" stroke="midnightblue" d="M1597.37,-672.442C1597.37,-653.936 1597.37,-608.813 1597.37,-571 1597.37,-571 1597.37,-571 1597.37,-513 1597.37,-482.205 1594.73,-470.183 1573.37,-448 1555.07,-428.987 1527.55,-417.711 1504.75,-411.202"/>
<polygon fill="midnightblue" stroke="midnightblue" points="1505.55,-407.792 1494.98,-408.615 1503.75,-414.558 1505.55,-407.792"/>
</g>
<!-- Node26 -->
<g id="node79" class="node"><title>Node26</title>
<a xlink:href="_s_l_skeleton_8h.html" target="_top" xlink:title="SLSkeleton.h">
<polygon fill="white" stroke="black" points="1883.37,-560.5 1883.37,-579.5 1963.37,-579.5 1963.37,-560.5 1883.37,-560.5"/>
<text text-anchor="middle" x="1923.37" y="-567.5" font-family="Arial.ttf" font-size="10.00">SLSkeleton.h</text>
</a>
</g>
<!-- Node19&#45;&gt;Node26 -->
<g id="edge106" class="edge"><title>Node19&#45;&gt;Node26</title>
<path fill="none" stroke="midnightblue" d="M1631.58,-680.501C1702.9,-678.76 1864.19,-670.959 1904.37,-636 1917.52,-624.562 1921.81,-604.58 1923.1,-589.781"/>
<polygon fill="midnightblue" stroke="midnightblue" points="1926.6,-589.861 1923.59,-579.703 1919.61,-589.52 1926.6,-589.861"/>
</g>
<!-- Node30 -->
<g id="node95" class="node"><title>Node30</title>
<a xlink:href="_s_l_g_l_oculus_8h.html" target="_top" xlink:title="SLGLOculus.h">
<polygon fill="white" stroke="black" points="1447.87,-504.5 1447.87,-523.5 1530.87,-523.5 1530.87,-504.5 1447.87,-504.5"/>
<text text-anchor="middle" x="1489.37" y="-511.5" font-family="Arial.ttf" font-size="10.00">SLGLOculus.h</text>
</a>
</g>
<!-- Node19&#45;&gt;Node30 -->
<g id="edge130" class="edge"><title>Node19&#45;&gt;Node30</title>
<path fill="none" stroke="midnightblue" d="M1584.45,-672.256C1573,-663.988 1556.43,-650.687 1545.37,-636 1520.75,-603.302 1503.42,-558.043 1495.06,-533.177"/>
<polygon fill="midnightblue" stroke="midnightblue" points="1498.37,-532.013 1491.95,-523.585 1491.71,-534.177 1498.37,-532.013"/>
</g>
<!-- Node36 -->
<g id="node119" class="node"><title>Node36</title>
<a xlink:href="_s_l_anim_manager_8h.html" target="_top" xlink:title="SLAnimManager.h">
<polygon fill="white" stroke="black" points="1773.37,-616.5 1773.37,-635.5 1877.37,-635.5 1877.37,-616.5 1773.37,-616.5"/>
<text text-anchor="middle" x="1825.37" y="-623.5" font-family="Arial.ttf" font-size="10.00">SLAnimManager.h</text>
</a>
</g>
<!-- Node19&#45;&gt;Node36 -->
<g id="edge166" class="edge"><title>Node19&#45;&gt;Node36</title>
<path fill="none" stroke="midnightblue" d="M1631.51,-672.916C1670.81,-663.608 1735.56,-648.272 1779.3,-637.912"/>
<polygon fill="midnightblue" stroke="midnightblue" points="1780.2,-641.297 1789.12,-635.587 1778.58,-634.485 1780.2,-641.297"/>
</g>
<!-- Node37 -->
<g id="node126" class="node"><title>Node37</title>
<a xlink:href="_s_l_average_8h.html" target="_top" xlink:title="SLAverage.h">
<polygon fill="white" stroke="black" points="2217.87,-560.5 2217.87,-579.5 2294.87,-579.5 2294.87,-560.5 2217.87,-560.5"/>
<text text-anchor="middle" x="2256.37" y="-567.5" font-family="Arial.ttf" font-size="10.00">SLAverage.h</text>
</a>
</g>
<!-- Node19&#45;&gt;Node37 -->
<g id="edge178" class="edge"><title>Node19&#45;&gt;Node37</title>
<path fill="none" stroke="midnightblue" d="M1631.6,-681.136C1712.41,-680.754 1920.93,-675.652 2089.37,-636 2140.7,-623.919 2197.25,-599.348 2229.62,-584.118"/>
<polygon fill="midnightblue" stroke="midnightblue" points="2231.34,-587.177 2238.86,-579.715 2228.33,-580.858 2231.34,-587.177"/>
</g>
<!-- Node19&#45;&gt;Node38 -->
<g id="edge182" class="edge"><title>Node19&#45;&gt;Node38</title>
<path fill="none" stroke="midnightblue" d="M1563.34,-678.614C1478.28,-672.551 1249.57,-655.632 1059.37,-636 889.805,-618.497 690.329,-592.523 591.811,-579.335"/>
<polygon fill="midnightblue" stroke="midnightblue" points="592.113,-575.844 581.737,-577.984 591.183,-582.782 592.113,-575.844"/>
</g>
<!-- Node39 -->
<g id="node134" class="node"><title>Node39</title>
<a xlink:href="_s_l_device_rotation_8h.html" target="_top" xlink:title="SLDeviceRotation.h">
<polygon fill="white" stroke="black" points="1061.37,-168.5 1061.37,-187.5 1171.37,-187.5 1171.37,-168.5 1061.37,-168.5"/>
<text text-anchor="middle" x="1116.37" y="-175.5" font-family="Arial.ttf" font-size="10.00">SLDeviceRotation.h</text>
</a>
</g>
<!-- Node19&#45;&gt;Node39 -->
<g id="edge190" class="edge"><title>Node19&#45;&gt;Node39</title>
<path fill="none" stroke="midnightblue" d="M1563.27,-676.466C1467.67,-662.206 1192.96,-610.429 1022.37,-468 993.969,-444.283 978.484,-427.658 988.374,-392 1010.92,-310.713 1073.69,-229.341 1102.09,-195.434"/>
<polygon fill="midnightblue" stroke="midnightblue" points="1105.02,-197.399 1108.83,-187.515 1099.69,-192.864 1105.02,-197.399"/>
</g>
<!-- Node40 -->
<g id="node137" class="node"><title>Node40</title>
<a xlink:href="_s_l_device_location_8h.html" target="_top" xlink:title="SLDeviceLocation.h">
<polygon fill="white" stroke="black" points="1184.37,-504.5 1184.37,-523.5 1294.37,-523.5 1294.37,-504.5 1184.37,-504.5"/>
<text text-anchor="middle" x="1239.37" y="-511.5" font-family="Arial.ttf" font-size="10.00">SLDeviceLocation.h</text>
</a>
</g>
<!-- Node19&#45;&gt;Node40 -->
<g id="edge194" class="edge"><title>Node19&#45;&gt;Node40</title>
<path fill="none" stroke="midnightblue" d="M1578.63,-672.309C1519.55,-644.912 1336.97,-560.255 1267.03,-527.823"/>
<polygon fill="midnightblue" stroke="midnightblue" points="1268.48,-524.637 1257.93,-523.605 1265.53,-530.987 1268.48,-524.637"/>
</g>
<!-- Node20&#45;&gt;Node3 -->
<g id="edge74" class="edge"><title>Node20&#45;&gt;Node3</title>
<path fill="none" stroke="midnightblue" d="M1644.56,-336.484C1661.26,-329.216 1683.11,-317.189 1696.37,-300 1714.76,-276.175 1715.37,-265.098 1715.37,-235 1715.37,-235 1715.37,-235 1715.37,-121 1715.37,-45.9505 1451.41,-20.3012 1351.28,-13.2711"/>
<polygon fill="midnightblue" stroke="midnightblue" points="1351.22,-9.75912 1341,-12.5753 1350.75,-16.7431 1351.22,-9.75912"/>
</g>
<!-- Node20&#45;&gt;Node16 -->
<g id="edge76" class="edge"><title>Node20&#45;&gt;Node16</title>
<path fill="none" stroke="midnightblue" d="M1647.04,-336.444C1674.3,-327.359 1717.56,-312.939 1748.02,-302.783"/>
<polygon fill="midnightblue" stroke="midnightblue" points="1749.44,-305.999 1757.82,-299.516 1747.23,-299.358 1749.44,-305.999"/>
</g>
<!-- Node21 -->
<g id="node60" class="node"><title>Node21</title>
<a xlink:href="_s_l_g_l_texture_8h.html" target="_top" xlink:title="SLGLTexture.h">
<polygon fill="white" stroke="black" points="1417.37,-280.5 1417.37,-299.5 1503.37,-299.5 1503.37,-280.5 1417.37,-280.5"/>
<text text-anchor="middle" x="1460.37" y="-287.5" font-family="Arial.ttf" font-size="10.00">SLGLTexture.h</text>
</a>
</g>
<!-- Node20&#45;&gt;Node21 -->
<g id="edge78" class="edge"><title>Node20&#45;&gt;Node21</title>
<path fill="none" stroke="midnightblue" d="M1595.86,-336.444C1568.78,-327.359 1525.78,-312.939 1495.5,-302.783"/>
<polygon fill="midnightblue" stroke="midnightblue" points="1496.36,-299.378 1485.77,-299.516 1494.13,-306.015 1496.36,-299.378"/>
</g>
<!-- Node23 -->
<g id="node68" class="node"><title>Node23</title>
<a xlink:href="_s_l_g_l_program_8h.html" target="_top" xlink:title="SLGLProgram.h">
<polygon fill="white" stroke="red" points="1555.37,-224.5 1555.37,-243.5 1647.37,-243.5 1647.37,-224.5 1555.37,-224.5"/>
<text text-anchor="middle" x="1601.37" y="-231.5" font-family="Arial.ttf" font-size="10.00">SLGLProgram.h</text>
</a>
</g>
<!-- Node20&#45;&gt;Node23 -->
<g id="edge90" class="edge"><title>Node20&#45;&gt;Node23</title>
<path fill="none" stroke="midnightblue" d="M1596.21,-336.378C1579.95,-329.343 1560.08,-317.645 1550.37,-300 1539.92,-280.992 1559.62,-261.755 1577.49,-249.195"/>
<polygon fill="midnightblue" stroke="midnightblue" points="1579.56,-252.024 1585.98,-243.596 1575.71,-246.181 1579.56,-252.024"/>
</g>
<!-- Node24 -->
<g id="node71" class="node"><title>Node24</title>
<a xlink:href="_s_l_g_l_generic_program_8h.html" target="_top" xlink:title="SLGLGenericProgram.h">
<polygon fill="white" stroke="red" points="1559.37,-280.5 1559.37,-299.5 1687.37,-299.5 1687.37,-280.5 1559.37,-280.5"/>
<text text-anchor="middle" x="1623.37" y="-287.5" font-family="Arial.ttf" font-size="10.00">SLGLGenericProgram.h</text>
</a>
</g>
<!-- Node20&#45;&gt;Node24 -->
<g id="edge94" class="edge"><title>Node20&#45;&gt;Node24</title>
<path fill="none" stroke="midnightblue" d="M1621.7,-336.083C1621.97,-329.006 1622.34,-318.861 1622.67,-309.986"/>
<polygon fill="midnightblue" stroke="midnightblue" points="1626.18,-309.874 1623.05,-299.751 1619.18,-309.615 1626.18,-309.874"/>
</g>
<!-- Node21&#45;&gt;Node3 -->
<g id="edge80" class="edge"><title>Node21&#45;&gt;Node3</title>
<path fill="none" stroke="midnightblue" d="M1472.46,-280.312C1483.09,-272.083 1498.24,-258.806 1507.37,-244 1523.24,-218.277 1527.37,-209.225 1527.37,-179 1527.37,-179 1527.37,-179 1527.37,-121 1527.37,-42.6141 1412.4,-20.0402 1351,-13.5738"/>
<polygon fill="midnightblue" stroke="midnightblue" points="1351.2,-10.0772 1340.91,-12.6055 1350.53,-17.0452 1351.2,-10.0772"/>
</g>
<!-- Node21&#45;&gt;Node13 -->
<g id="edge88" class="edge"><title>Node21&#45;&gt;Node13</title>
<path fill="none" stroke="midnightblue" d="M1417.91,-280.46C1319.06,-260.582 1073.8,-211.261 965.825,-189.548"/>
<polygon fill="midnightblue" stroke="midnightblue" points="966.307,-186.075 955.814,-187.535 964.927,-192.937 966.307,-186.075"/>
</g>
<!-- Node22 -->
<g id="node63" class="node"><title>Node22</title>
<a xlink:href="_s_l_c_v_image_8h.html" target="_top" xlink:title="SLCVImage.h">
<polygon fill="white" stroke="black" points="1417.87,-224.5 1417.87,-243.5 1498.87,-243.5 1498.87,-224.5 1417.87,-224.5"/>
<text text-anchor="middle" x="1458.37" y="-231.5" font-family="Arial.ttf" font-size="10.00">SLCVImage.h</text>
</a>
</g>
<!-- Node21&#45;&gt;Node22 -->
<g id="edge82" class="edge"><title>Node21&#45;&gt;Node22</title>
<path fill="none" stroke="midnightblue" d="M1460.04,-280.083C1459.78,-273.006 1459.41,-262.861 1459.08,-253.986"/>
<polygon fill="midnightblue" stroke="midnightblue" points="1462.57,-253.615 1458.7,-243.751 1455.57,-253.874 1462.57,-253.615"/>
</g>
<!-- Node22&#45;&gt;Node2 -->
<g id="edge86" class="edge"><title>Node22&#45;&gt;Node2</title>
<path fill="none" stroke="midnightblue" d="M1417.82,-231.141C1234.94,-222.758 488.366,-188.534 315.999,-180.633"/>
<polygon fill="midnightblue" stroke="midnightblue" points="316.088,-177.134 305.938,-180.172 315.768,-184.126 316.088,-177.134"/>
</g>
<!-- Node22&#45;&gt;Node3 -->
<g id="edge84" class="edge"><title>Node22&#45;&gt;Node3</title>
<path fill="none" stroke="midnightblue" d="M1458,-224.118C1456.36,-196.081 1447.75,-108.236 1403.37,-56 1389.66,-39.8618 1368.76,-28.9174 1350.55,-21.8665"/>
<polygon fill="midnightblue" stroke="midnightblue" points="1351.64,-18.5401 1341.05,-18.4346 1349.26,-25.1237 1351.64,-18.5401"/>
</g>
<!-- Node23&#45;&gt;Node3 -->
<g id="edge92" class="edge"><title>Node23&#45;&gt;Node3</title>
<path fill="none" stroke="midnightblue" d="M1601.29,-224.371C1600.5,-195.569 1593.85,-101.968 1541.37,-56 1513.52,-31.5971 1408.37,-19.0526 1351.11,-13.9078"/>
<polygon fill="midnightblue" stroke="midnightblue" points="1351.27,-10.4085 1341,-13.032 1350.66,-17.3824 1351.27,-10.4085"/>
</g>
<!-- Node24&#45;&gt;Node23 -->
<g id="edge96" class="edge"><title>Node24&#45;&gt;Node23</title>
<path fill="none" stroke="midnightblue" d="M1619.74,-280.083C1616.76,-272.77 1612.45,-262.181 1608.75,-253.103"/>
<polygon fill="midnightblue" stroke="midnightblue" points="1611.95,-251.691 1604.94,-243.751 1605.47,-254.333 1611.95,-251.691"/>
</g>
<!-- Node25&#45;&gt;Node3 -->
<g id="edge102" class="edge"><title>Node25&#45;&gt;Node3</title>
<path fill="none" stroke="midnightblue" d="M1457.18,-392.278C1438.41,-368.595 1389.37,-300.463 1389.37,-235 1389.37,-235 1389.37,-235 1389.37,-121 1389.37,-81.2757 1355.41,-45.5045 1332.89,-26.1536"/>
<polygon fill="midnightblue" stroke="midnightblue" points="1334.86,-23.2364 1324.92,-19.5672 1330.4,-28.6337 1334.86,-23.2364"/>
</g>
<!-- Node26&#45;&gt;Node3 -->
<g id="edge108" class="edge"><title>Node26&#45;&gt;Node3</title>
<path fill="none" stroke="midnightblue" d="M1934.92,-560.433C1956.18,-543.571 1999.37,-503.799 1999.37,-459 1999.37,-459 1999.37,-459 1999.37,-401 1999.37,-327.201 2003.37,-308.799 2003.37,-235 2003.37,-235 2003.37,-235 2003.37,-121 2003.37,-87.3101 1993.1,-73.6006 1964.37,-56 1912.11,-23.9779 1482.97,-13.9375 1351.51,-11.5981"/>
<polygon fill="midnightblue" stroke="midnightblue" points="1351.2,-8.09239 1341.14,-11.4188 1351.08,-15.0913 1351.2,-8.09239"/>
</g>
<!-- Node27 -->
<g id="node82" class="node"><title>Node27</title>
<a xlink:href="_s_l_joint_8h.html" target="_top" xlink:title="SLJoint.h">
<polygon fill="white" stroke="black" points="1875.37,-448.5 1875.37,-467.5 1933.37,-467.5 1933.37,-448.5 1875.37,-448.5"/>
<text text-anchor="middle" x="1904.37" y="-455.5" font-family="Arial.ttf" font-size="10.00">SLJoint.h</text>
</a>
</g>
<!-- Node26&#45;&gt;Node27 -->
<g id="edge110" class="edge"><title>Node26&#45;&gt;Node27</title>
<path fill="none" stroke="midnightblue" d="M1921.88,-560.368C1918.82,-542.617 1911.74,-501.666 1907.59,-477.597"/>
<polygon fill="midnightblue" stroke="midnightblue" points="1911.01,-476.85 1905.86,-467.591 1904.11,-478.041 1911.01,-476.85"/>
</g>
<!-- Node28 -->
<g id="node86" class="node"><title>Node28</title>
<a xlink:href="_s_l_animation_8h.html" target="_top" xlink:title="SLAnimation.h">
<polygon fill="white" stroke="red" points="1809.37,-504.5 1809.37,-523.5 1895.37,-523.5 1895.37,-504.5 1809.37,-504.5"/>
<text text-anchor="middle" x="1852.37" y="-511.5" font-family="Arial.ttf" font-size="10.00">SLAnimation.h</text>
</a>
</g>
<!-- Node26&#45;&gt;Node28 -->
<g id="edge116" class="edge"><title>Node26&#45;&gt;Node28</title>
<path fill="none" stroke="midnightblue" d="M1911.97,-560.324C1901.26,-552.185 1885.03,-539.839 1872.21,-530.087"/>
<polygon fill="midnightblue" stroke="midnightblue" points="1874.07,-527.102 1863.99,-523.834 1869.83,-532.673 1874.07,-527.102"/>
</g>
<!-- Node29 -->
<g id="node91" class="node"><title>Node29</title>
<a xlink:href="_s_l_anim_playback_8h.html" target="_top" xlink:title="SLAnimPlayback.h">
<polygon fill="white" stroke="black" points="1791.37,-336.5 1791.37,-355.5 1895.37,-355.5 1895.37,-336.5 1791.37,-336.5"/>
<text text-anchor="middle" x="1843.37" y="-343.5" font-family="Arial.ttf" font-size="10.00">SLAnimPlayback.h</text>
</a>
</g>
<!-- Node26&#45;&gt;Node29 -->
<g id="edge124" class="edge"><title>Node26&#45;&gt;Node29</title>
<path fill="none" stroke="midnightblue" d="M1927.72,-560.428C1937.39,-540.113 1958.61,-487.766 1942.37,-448 1926.9,-410.106 1889.6,-378.736 1865.46,-361.462"/>
<polygon fill="midnightblue" stroke="midnightblue" points="1867.14,-358.367 1856.92,-355.547 1863.15,-364.12 1867.14,-358.367"/>
</g>
<!-- Node27&#45;&gt;Node3 -->
<g id="edge112" class="edge"><title>Node27&#45;&gt;Node3</title>
<path fill="none" stroke="midnightblue" d="M1908.57,-448.354C1922.35,-419.111 1965.37,-320.936 1965.37,-235 1965.37,-235 1965.37,-235 1965.37,-121 1965.37,-90.2048 1965.99,-74.4971 1941.37,-56 1894.2,-20.5576 1479.81,-12.8895 1351.25,-11.3573"/>
<polygon fill="midnightblue" stroke="midnightblue" points="1351.14,-7.85595 1341.1,-11.2422 1351.06,-14.8555 1351.14,-7.85595"/>
</g>
<!-- Node27&#45;&gt;Node8 -->
<g id="edge114" class="edge"><title>Node27&#45;&gt;Node8</title>
<path fill="none" stroke="midnightblue" d="M1875.36,-454.895C1800.52,-449.331 1594.85,-433.198 1424.37,-412 1419.14,-411.349 1413.64,-410.593 1408.21,-409.801"/>
<polygon fill="midnightblue" stroke="midnightblue" points="1408.34,-406.281 1397.93,-408.252 1407.3,-413.202 1408.34,-406.281"/>
</g>
<!-- Node28&#45;&gt;Node3 -->
<g id="edge118" class="edge"><title>Node28&#45;&gt;Node3</title>
<path fill="none" stroke="midnightblue" d="M1853.71,-504.461C1855.78,-491.914 1860.2,-467.838 1866.37,-448 1879.53,-405.762 1891.73,-398.395 1904.37,-356 1920.01,-303.541 1927.37,-289.741 1927.37,-235 1927.37,-235 1927.37,-235 1927.37,-121 1927.37,-87.3101 1917.02,-73.7309 1888.37,-56 1842.87,-27.8328 1472.32,-15.3269 1351.39,-11.9692"/>
<polygon fill="midnightblue" stroke="midnightblue" points="1351.23,-8.4636 1341.14,-11.69 1351.04,-15.461 1351.23,-8.4636"/>
</g>
<!-- Node28&#45;&gt;Node9 -->
<g id="edge122" class="edge"><title>Node28&#45;&gt;Node9</title>
<path fill="none" stroke="midnightblue" d="M1830.57,-504.433C1743.53,-470.232 1420.69,-343.384 1318.56,-303.255"/>
<polygon fill="midnightblue" stroke="midnightblue" points="1319.7,-299.941 1309.11,-299.541 1317.14,-306.456 1319.7,-299.941"/>
</g>
<!-- Node28&#45;&gt;Node27 -->
<g id="edge120" class="edge"><title>Node28&#45;&gt;Node27</title>
<path fill="none" stroke="midnightblue" d="M1860.96,-504.083C1868.53,-496.22 1879.75,-484.569 1888.89,-475.081"/>
<polygon fill="midnightblue" stroke="midnightblue" points="1891.53,-477.382 1895.95,-467.751 1886.49,-472.527 1891.53,-477.382"/>
</g>
<!-- Node29&#45;&gt;Node3 -->
<g id="edge126" class="edge"><title>Node29&#45;&gt;Node3</title>
<path fill="none" stroke="midnightblue" d="M1849.77,-336.391C1862.41,-318.498 1889.37,-275.572 1889.37,-235 1889.37,-235 1889.37,-235 1889.37,-121 1889.37,-90.2048 1889.9,-74.6177 1865.37,-56 1824.57,-25.0319 1469.21,-14.4393 1351.25,-11.7587"/>
<polygon fill="midnightblue" stroke="midnightblue" points="1350.99,-8.25213 1340.91,-11.5304 1350.83,-15.2504 1350.99,-8.25213"/>
</g>
<!-- Node29&#45;&gt;Node9 -->
<g id="edge128" class="edge"><title>Node29&#45;&gt;Node9</title>
<path fill="none" stroke="midnightblue" d="M1791.07,-339.92C1682.74,-329.398 1435.42,-305.379 1333.05,-295.436"/>
<polygon fill="midnightblue" stroke="midnightblue" points="1333.32,-291.946 1323.02,-294.462 1332.64,-298.913 1333.32,-291.946"/>
</g>
<!-- Node30&#45;&gt;Node3 -->
<g id="edge132" class="edge"><title>Node30&#45;&gt;Node3</title>
<path fill="none" stroke="midnightblue" d="M1503.98,-504.327C1567.93,-466.31 1820.53,-315.593 1832.37,-300 1850.58,-276.035 1851.37,-265.098 1851.37,-235 1851.37,-235 1851.37,-235 1851.37,-121 1851.37,-18.7539 1473.67,-10.6231 1351.21,-10.674"/>
<polygon fill="midnightblue" stroke="midnightblue" points="1351.16,-7.17401 1341.17,-10.6972 1351.17,-14.174 1351.16,-7.17401"/>
</g>
<!-- Node31 -->
<g id="node98" class="node"><title>Node31</title>
<a xlink:href="_s_l_camera_8h.html" target="_top" xlink:title="SLCamera.h">
<polygon fill="white" stroke="black" points="855.374,-448.5 855.374,-467.5 931.374,-467.5 931.374,-448.5 855.374,-448.5"/>
<text text-anchor="middle" x="893.374" y="-455.5" font-family="Arial.ttf" font-size="10.00">SLCamera.h</text>
</a>
</g>
<!-- Node30&#45;&gt;Node31 -->
<g id="edge134" class="edge"><title>Node30&#45;&gt;Node31</title>
<path fill="none" stroke="midnightblue" d="M1447.46,-509.203C1340.19,-499.483 1056.11,-473.744 941.915,-463.398"/>
<polygon fill="midnightblue" stroke="midnightblue" points="942.003,-459.892 931.728,-462.475 941.371,-466.863 942.003,-459.892"/>
</g>
<!-- Node31&#45;&gt;Node3 -->
<g id="edge136" class="edge"><title>Node31&#45;&gt;Node3</title>
<path fill="none" stroke="midnightblue" d="M871.099,-448.485C803.192,-420.917 603.374,-327.206 603.374,-179 603.374,-179 603.374,-179 603.374,-121 603.374,-90.9022 598.89,-74.825 622.374,-56 673.512,-15.0072 1138.93,-11.1995 1275.73,-10.9712"/>
<polygon fill="midnightblue" stroke="midnightblue" points="1275.74,-14.4712 1285.74,-10.96 1275.73,-7.47125 1275.74,-14.4712"/>
</g>
<!-- Node31&#45;&gt;Node8 -->
<g id="edge140" class="edge"><title>Node31&#45;&gt;Node8</title>
<path fill="none" stroke="midnightblue" d="M931.681,-452.627C1019.26,-442.628 1233.58,-418.16 1324.5,-407.781"/>
<polygon fill="midnightblue" stroke="midnightblue" points="1325.16,-411.228 1334.7,-406.616 1324.37,-404.273 1325.16,-411.228"/>
</g>
<!-- Node31&#45;&gt;Node9 -->
<g id="edge138" class="edge"><title>Node31&#45;&gt;Node9</title>
<path fill="none" stroke="midnightblue" d="M931.486,-453.882C997.783,-447.963 1131.2,-433.717 1172.37,-412 1219.63,-387.074 1258.47,-335.296 1276.5,-308.268"/>
<polygon fill="midnightblue" stroke="midnightblue" points="1279.67,-309.818 1282.18,-299.526 1273.8,-306.005 1279.67,-309.818"/>
</g>
<!-- Node31&#45;&gt;Node12 -->
<g id="edge164" class="edge"><title>Node31&#45;&gt;Node12</title>
<path fill="none" stroke="midnightblue" d="M893.077,-448.429C892.49,-422.01 893.123,-340.001 920.374,-280 925.321,-269.107 933.683,-258.772 941.306,-250.759"/>
<polygon fill="midnightblue" stroke="midnightblue" points="943.899,-253.117 948.528,-243.586 938.966,-248.15 943.899,-253.117"/>
</g>
<!-- Node32 -->
<g id="node103" class="node"><title>Node32</title>
<a xlink:href="_s_l_g_l_state_8h.html" target="_top" xlink:title="SLGLState.h">
<polygon fill="white" stroke="red" points="631.874,-56.5 631.874,-75.5 708.874,-75.5 708.874,-56.5 631.874,-56.5"/>
<text text-anchor="middle" x="670.374" y="-63.5" font-family="Arial.ttf" font-size="10.00">SLGLState.h</text>
</a>
</g>
<!-- Node31&#45;&gt;Node32 -->
<g id="edge142" class="edge"><title>Node31&#45;&gt;Node32</title>
<path fill="none" stroke="midnightblue" d="M881.943,-448.347C839.06,-415.606 689.001,-298.406 665.374,-244 642.05,-190.293 656.201,-118.523 664.974,-85.299"/>
<polygon fill="midnightblue" stroke="midnightblue" points="668.366,-86.1638 667.681,-75.5912 661.623,-84.2835 668.366,-86.1638"/>
</g>
<!-- Node33 -->
<g id="node106" class="node"><title>Node33</title>
<a xlink:href="_s_l_samples2_d_8h.html" target="_top" xlink:title="SLSamples2D.h">
<polygon fill="white" stroke="black" points="1070.87,-392.5 1070.87,-411.5 1163.87,-411.5 1163.87,-392.5 1070.87,-392.5"/>
<text text-anchor="middle" x="1117.37" y="-399.5" font-family="Arial.ttf" font-size="10.00">SLSamples2D.h</text>
</a>
</g>
<!-- Node31&#45;&gt;Node33 -->
<g id="edge146" class="edge"><title>Node31&#45;&gt;Node33</title>
<path fill="none" stroke="midnightblue" d="M928.867,-448.444C967.698,-439.083 1030.03,-424.056 1072.29,-413.868"/>
<polygon fill="midnightblue" stroke="midnightblue" points="1073.14,-417.263 1082.05,-411.516 1071.5,-410.458 1073.14,-417.263"/>
</g>
<!-- Node34 -->
<g id="node109" class="node"><title>Node34</title>
<a xlink:href="_s_l_background_8h.html" target="_top" xlink:title="SLBackground.h">
<polygon fill="white" stroke="black" points="745.874,-224.5 745.874,-243.5 840.874,-243.5 840.874,-224.5 745.874,-224.5"/>
<text text-anchor="middle" x="793.374" y="-231.5" font-family="Arial.ttf" font-size="10.00">SLBackground.h</text>
</a>
</g>
<!-- Node31&#45;&gt;Node34 -->
<g id="edge150" class="edge"><title>Node31&#45;&gt;Node34</title>
<path fill="none" stroke="midnightblue" d="M888.078,-448.454C873.929,-425.318 834.732,-359.213 811.374,-300 805.331,-284.682 800.496,-266.58 797.364,-253.373"/>
<polygon fill="midnightblue" stroke="midnightblue" points="800.773,-252.578 795.146,-243.601 793.947,-254.127 800.773,-252.578"/>
</g>
<!-- Node35 -->
<g id="node113" class="node"><title>Node35</title>
<a xlink:href="_s_l_ray_8h.html" target="_top" xlink:title="SLRay.h">
<polygon fill="white" stroke="black" points="997.874,-392.5 997.874,-411.5 1052.87,-411.5 1052.87,-392.5 997.874,-392.5"/>
<text text-anchor="middle" x="1025.37" y="-399.5" font-family="Arial.ttf" font-size="10.00">SLRay.h</text>
</a>
</g>
<!-- Node31&#45;&gt;Node35 -->
<g id="edge156" class="edge"><title>Node31&#45;&gt;Node35</title>
<path fill="none" stroke="midnightblue" d="M914.289,-448.444C936.11,-439.517 970.523,-425.439 995.266,-415.317"/>
<polygon fill="midnightblue" stroke="midnightblue" points="996.625,-418.542 1004.56,-411.516 993.975,-412.063 996.625,-418.542"/>
</g>
<!-- Node32&#45;&gt;Node3 -->
<g id="edge144" class="edge"><title>Node32&#45;&gt;Node3</title>
<path fill="none" stroke="midnightblue" d="M709.1,-58.0005C713.898,-57.2585 718.742,-56.5687 723.374,-56 931.022,-30.5057 1181.67,-17.0956 1275.5,-12.6773"/>
<polygon fill="midnightblue" stroke="midnightblue" points="1275.81,-16.1667 1285.64,-12.2064 1275.49,-9.17429 1275.81,-16.1667"/>
</g>
<!-- Node33&#45;&gt;Node3 -->
<g id="edge148" class="edge"><title>Node33&#45;&gt;Node3</title>
<path fill="none" stroke="midnightblue" d="M1120.71,-392.266C1128.57,-372.035 1149.24,-320.594 1171.37,-280 1197.05,-232.923 1237.37,-232.623 1237.37,-179 1237.37,-179 1237.37,-179 1237.37,-121 1237.37,-90.2048 1243.84,-81.3191 1261.37,-56 1269.55,-44.1903 1281.53,-33.5418 1291.93,-25.5714"/>
<polygon fill="midnightblue" stroke="midnightblue" points="1294.17,-28.2685 1300.17,-19.5395 1290.03,-22.6188 1294.17,-28.2685"/>
</g>
<!-- Node34&#45;&gt;Node3 -->
<g id="edge152" class="edge"><title>Node34&#45;&gt;Node3</title>
<path fill="none" stroke="midnightblue" d="M791.316,-224.381C785.014,-195.608 769.197,-102.089 817.374,-56 850.289,-24.5108 1165.11,-14.3711 1275.42,-11.7697"/>
<polygon fill="midnightblue" stroke="midnightblue" points="1275.82,-15.2615 1285.74,-11.5344 1275.66,-8.26336 1275.82,-15.2615"/>
</g>
<!-- Node34&#45;&gt;Node13 -->
<g id="edge154" class="edge"><title>Node34&#45;&gt;Node13</title>
<path fill="none" stroke="midnightblue" d="M812.388,-224.444C831.961,-215.636 862.681,-201.812 885.103,-191.722"/>
<polygon fill="midnightblue" stroke="midnightblue" points="886.765,-194.812 894.448,-187.516 883.893,-188.428 886.765,-194.812"/>
</g>
<!-- Node35&#45;&gt;Node3 -->
<g id="edge158" class="edge"><title>Node35&#45;&gt;Node3</title>
<path fill="none" stroke="midnightblue" d="M1017.82,-392.243C1006.62,-379.426 984.729,-355.017 964.374,-336 945.911,-318.751 937.069,-318.965 920.374,-300 881.587,-255.94 866.556,-244.426 850.374,-188 837.575,-143.374 839.472,-88.5386 876.374,-56 906.071,-29.8137 1175.11,-16.5013 1275.68,-12.4069"/>
<polygon fill="midnightblue" stroke="midnightblue" points="1275.85,-15.9029 1285.7,-12.0067 1275.57,-8.90845 1275.85,-15.9029"/>
</g>
<!-- Node35&#45;&gt;Node10 -->
<g id="edge162" class="edge"><title>Node35&#45;&gt;Node10</title>
<path fill="none" stroke="midnightblue" d="M1035.33,-392.324C1044.5,-384.341 1058.31,-372.313 1069.4,-362.653"/>
<polygon fill="midnightblue" stroke="midnightblue" points="1071.99,-365.041 1077.23,-355.834 1067.39,-359.762 1071.99,-365.041"/>
</g>
<!-- Node35&#45;&gt;Node20 -->
<g id="edge160" class="edge"><title>Node35&#45;&gt;Node20</title>
<path fill="none" stroke="midnightblue" d="M1053.19,-393.565C1055.94,-392.974 1058.7,-392.438 1061.37,-392 1248.96,-361.23 1475.5,-351.229 1572.96,-348.208"/>
<polygon fill="midnightblue" stroke="midnightblue" points="1573.2,-351.703 1583.09,-347.905 1572.99,-344.706 1573.2,-351.703"/>
</g>
<!-- Node36&#45;&gt;Node3 -->
<g id="edge168" class="edge"><title>Node36&#45;&gt;Node3</title>
<path fill="none" stroke="midnightblue" d="M1877.51,-620.468C1940.28,-611.822 2037.37,-586.838 2037.37,-515 2037.37,-515 2037.37,-515 2037.37,-401 2037.37,-327.201 2041.37,-308.799 2041.37,-235 2041.37,-235 2041.37,-235 2041.37,-121 2041.37,-84.5528 2023.52,-73.1751 1991.37,-56 1934.83,-25.7919 1485.52,-14.4399 1351.18,-11.7014"/>
<polygon fill="midnightblue" stroke="midnightblue" points="1351.04,-8.19801 1340.97,-11.4977 1350.9,-15.1966 1351.04,-8.19801"/>
</g>
<!-- Node36&#45;&gt;Node26 -->
<g id="edge176" class="edge"><title>Node36&#45;&gt;Node26</title>
<path fill="none" stroke="midnightblue" d="M1841.12,-616.324C1856.69,-607.743 1880.75,-594.486 1898.83,-584.522"/>
<polygon fill="midnightblue" stroke="midnightblue" points="1900.6,-587.546 1907.67,-579.655 1897.22,-581.415 1900.6,-587.546"/>
</g>
<!-- Node36&#45;&gt;Node28 -->
<g id="edge170" class="edge"><title>Node36&#45;&gt;Node28</title>
<path fill="none" stroke="midnightblue" d="M1827.49,-616.368C1831.85,-598.617 1841.9,-557.666 1847.81,-533.597"/>
<polygon fill="midnightblue" stroke="midnightblue" points="1851.28,-534.137 1850.26,-523.591 1844.48,-532.469 1851.28,-534.137"/>
</g>
<!-- Node36&#45;&gt;Node29 -->
<g id="edge174" class="edge"><title>Node36&#45;&gt;Node29</title>
<path fill="none" stroke="midnightblue" d="M1822.52,-616.485C1816.91,-599.265 1804.64,-558.966 1800.37,-524 1793.15,-464.775 1819.93,-396.707 1834.52,-364.999"/>
<polygon fill="midnightblue" stroke="midnightblue" points="1837.8,-366.24 1838.93,-355.706 1831.48,-363.238 1837.8,-366.24"/>
</g>
<!-- Node36&#45;&gt;Node36 -->
<g id="edge172" class="edge"><title>Node36&#45;&gt;Node36</title>
<path fill="none" stroke="midnightblue" d="M1855.23,-635.525C1875.51,-638.308 1895.37,-635.133 1895.37,-626 1895.37,-618.437 1881.75,-614.96 1865.55,-615.568"/>
<polygon fill="midnightblue" stroke="midnightblue" points="1864.88,-612.113 1855.23,-616.475 1865.5,-619.086 1864.88,-612.113"/>
</g>
<!-- Node37&#45;&gt;Node3 -->
<g id="edge180" class="edge"><title>Node37&#45;&gt;Node3</title>
<path fill="none" stroke="midnightblue" d="M2258.78,-560.196C2266.69,-530.455 2291.37,-430.888 2291.37,-347 2291.37,-347 2291.37,-347 2291.37,-121 2291.37,-90.2048 2292.22,-74.1954 2267.37,-56 2229.83,-28.5016 1524.16,-14.6212 1351.33,-11.6256"/>
<polygon fill="midnightblue" stroke="midnightblue" points="1351.25,-8.12373 1341.19,-11.4517 1351.13,-15.1227 1351.25,-8.12373"/>
</g>
<!-- Node38&#45;&gt;Node2 -->
<g id="edge186" class="edge"><title>Node38&#45;&gt;Node2</title>
<path fill="none" stroke="midnightblue" d="M494.033,-560.389C448.22,-547.118 375.374,-516.911 375.374,-459 375.374,-459 375.374,-459 375.374,-289 375.374,-258.205 370.733,-247.949 351.374,-224 340.386,-210.407 324.14,-199.684 309.96,-192.12"/>
<polygon fill="midnightblue" stroke="midnightblue" points="311.52,-188.987 301.016,-187.607 308.367,-195.237 311.52,-188.987"/>
</g>
<!-- Node38&#45;&gt;Node3 -->
<g id="edge184" class="edge"><title>Node38&#45;&gt;Node3</title>
<path fill="none" stroke="midnightblue" d="M524.673,-560.288C513.407,-542.205 489.374,-498.946 489.374,-459 489.374,-459 489.374,-459 489.374,-121 489.374,-90.2048 488.611,-74.3077 513.374,-56 575.091,-10.3698 1125,-9.97073 1275.46,-10.7282"/>
<polygon fill="midnightblue" stroke="midnightblue" points="1275.57,-14.2287 1285.59,-10.7841 1275.61,-7.22883 1275.57,-14.2287"/>
</g>
<!-- Node38&#45;&gt;Node38 -->
<g id="edge188" class="edge"><title>Node38&#45;&gt;Node38</title>
<path fill="none" stroke="midnightblue" d="M559.802,-579.525C579.798,-582.308 599.374,-579.133 599.374,-570 599.374,-562.437 585.949,-558.96 569.978,-559.568"/>
<polygon fill="midnightblue" stroke="midnightblue" points="569.452,-556.101 559.802,-560.475 570.073,-563.073 569.452,-556.101"/>
</g>
<!-- Node39&#45;&gt;Node3 -->
<g id="edge192" class="edge"><title>Node39&#45;&gt;Node3</title>
<path fill="none" stroke="midnightblue" d="M1118.97,-168.288C1125.96,-146.245 1147.31,-87.7581 1185.37,-56 1211.28,-34.3902 1248.25,-22.8757 1275.81,-16.9242"/>
<polygon fill="midnightblue" stroke="midnightblue" points="1276.75,-20.3052 1285.87,-14.9061 1275.37,-13.442 1276.75,-20.3052"/>
</g>
<!-- Node40&#45;&gt;Node3 -->
<g id="edge196" class="edge"><title>Node40&#45;&gt;Node3</title>
<path fill="none" stroke="midnightblue" d="M1219.47,-504.41C1205.15,-497.04 1186.92,-484.916 1178.37,-468 1174.37,-460.065 1177.02,-456.785 1178.37,-448 1190.29,-370.618 1203.92,-353.324 1231.37,-280 1248.54,-234.145 1275.37,-227.964 1275.37,-179 1275.37,-179 1275.37,-179 1275.37,-121 1275.37,-86.8131 1291.97,-49.7639 1303.23,-28.5707"/>
<polygon fill="midnightblue" stroke="midnightblue" points="1306.32,-30.2151 1308.09,-19.769 1300.19,-26.832 1306.32,-30.2151"/>
</g>
<!-- Node40&#45;&gt;Node8 -->
<g id="edge198" class="edge"><title>Node40&#45;&gt;Node8</title>
<path fill="none" stroke="midnightblue" d="M1249.34,-504.368C1270.76,-485.814 1321.45,-441.913 1348.55,-418.438"/>
<polygon fill="midnightblue" stroke="midnightblue" points="1351.19,-420.784 1356.45,-411.591 1346.6,-415.493 1351.19,-420.784"/>
</g>
<!-- Node41 -->
<g id="node141" class="node"><title>Node41</title>
<a xlink:href="_s_l_light_direct_8h.html" target="_top" xlink:title="SLLightDirect.h">
<polygon fill="white" stroke="black" points="1187.87,-448.5 1187.87,-467.5 1276.87,-467.5 1276.87,-448.5 1187.87,-448.5"/>
<text text-anchor="middle" x="1232.37" y="-455.5" font-family="Arial.ttf" font-size="10.00">SLLightDirect.h</text>
</a>
</g>
<!-- Node40&#45;&gt;Node41 -->
<g id="edge200" class="edge"><title>Node40&#45;&gt;Node41</title>
<path fill="none" stroke="midnightblue" d="M1238.22,-504.083C1237.29,-496.927 1235.96,-486.635 1234.8,-477.691"/>
<polygon fill="midnightblue" stroke="midnightblue" points="1238.26,-477.218 1233.51,-467.751 1231.32,-478.118 1238.26,-477.218"/>
</g>
<!-- Node41&#45;&gt;Node3 -->
<g id="edge202" class="edge"><title>Node41&#45;&gt;Node3</title>
<path fill="none" stroke="midnightblue" d="M1235.46,-448.173C1238.43,-439.198 1242.69,-424.827 1244.37,-412 1252,-353.824 1216.4,-332.611 1242.37,-280 1254.02,-256.406 1273.76,-265.177 1289.37,-244 1307.65,-219.216 1313.37,-209.795 1313.37,-179 1313.37,-179 1313.37,-179 1313.37,-121 1313.37,-88.948 1313.37,-51.6426 1313.37,-29.7489"/>
<polygon fill="midnightblue" stroke="midnightblue" points="1316.87,-29.5577 1313.37,-19.5578 1309.87,-29.5578 1316.87,-29.5577"/>
</g>
<!-- Node41&#45;&gt;Node8 -->
<g id="edge204" class="edge"><title>Node41&#45;&gt;Node8</title>
<path fill="none" stroke="midnightblue" d="M1253.61,-448.444C1275.76,-439.517 1310.69,-425.439 1335.81,-415.317"/>
<polygon fill="midnightblue" stroke="midnightblue" points="1337.27,-418.501 1345.24,-411.516 1334.66,-412.008 1337.27,-418.501"/>
</g>
<!-- Node41&#45;&gt;Node25 -->
<g id="edge206" class="edge"><title>Node41&#45;&gt;Node25</title>
<path fill="none" stroke="midnightblue" d="M1269.13,-448.444C1311.24,-438.642 1380.04,-422.629 1423.72,-412.463"/>
<polygon fill="midnightblue" stroke="midnightblue" points="1424.77,-415.813 1433.71,-410.137 1423.18,-408.995 1424.77,-415.813"/>
</g>
<!-- Node41&#45;&gt;Node33 -->
<g id="edge208" class="edge"><title>Node41&#45;&gt;Node33</title>
<path fill="none" stroke="midnightblue" d="M1214.15,-448.444C1195.48,-439.675 1166.22,-425.935 1144.76,-415.858"/>
<polygon fill="midnightblue" stroke="midnightblue" points="1146.05,-412.599 1135.51,-411.516 1143.07,-418.935 1146.05,-412.599"/>
</g>
<!-- Node42&#45;&gt;Node3 -->
<g id="edge214" class="edge"><title>Node42&#45;&gt;Node3</title>
<path fill="none" stroke="midnightblue" d="M1037.08,-448.499C968.274,-427.344 801.185,-365.102 736.374,-244 702.932,-181.514 586.483,-217.732 799.374,-56 837.076,-27.3577 1163.1,-15.3318 1275.49,-12.0125"/>
<polygon fill="midnightblue" stroke="midnightblue" points="1275.78,-15.5055 1285.68,-11.7182 1275.58,-8.50842 1275.78,-15.5055"/>
</g>
<!-- Node42&#45;&gt;Node8 -->
<g id="edge218" class="edge"><title>Node42&#45;&gt;Node8</title>
<path fill="none" stroke="midnightblue" d="M1103.44,-450.486C1159.12,-440.431 1265.72,-421.178 1324.65,-410.536"/>
<polygon fill="midnightblue" stroke="midnightblue" points="1325.51,-413.937 1334.72,-408.716 1324.26,-407.049 1325.51,-413.937"/>
</g>
<!-- Node42&#45;&gt;Node9 -->
<g id="edge216" class="edge"><title>Node42&#45;&gt;Node9</title>
<path fill="none" stroke="midnightblue" d="M1103.4,-449.222C1132.36,-442.072 1173.49,-429.853 1206.37,-412 1241.08,-393.154 1255.21,-389.961 1275.37,-356 1283.7,-341.97 1286.48,-323.473 1287.31,-309.799"/>
<polygon fill="midnightblue" stroke="midnightblue" points="1290.81,-309.755 1287.62,-299.652 1283.81,-309.54 1290.81,-309.755"/>
</g>
<!-- Node43&#45;&gt;Node3 -->
<g id="edge224" class="edge"><title>Node43&#45;&gt;Node3</title>
<path fill="none" stroke="midnightblue" d="M2184.94,-392.477C2188.2,-374.038 2195.37,-329.037 2195.37,-291 2195.37,-291 2195.37,-291 2195.37,-121 2195.37,-63.4466 2138.49,-72.574 2083.37,-56 1944,-14.0896 1486.19,-10.9076 1351.17,-10.9017"/>
<polygon fill="midnightblue" stroke="midnightblue" points="1350.92,-7.40177 1340.93,-10.9075 1350.93,-14.4018 1350.92,-7.40177"/>
</g>
<!-- Node43&#45;&gt;Node17 -->
<g id="edge228" class="edge"><title>Node43&#45;&gt;Node17</title>
<path fill="none" stroke="midnightblue" d="M2172.61,-392.324C2162.61,-384.263 2147.49,-372.077 2135.44,-362.369"/>
<polygon fill="midnightblue" stroke="midnightblue" points="2137.32,-359.384 2127.33,-355.834 2132.92,-364.834 2137.32,-359.384"/>
</g>
<!-- Node43&#45;&gt;Node21 -->
<g id="edge226" class="edge"><title>Node43&#45;&gt;Node21</title>
<path fill="none" stroke="midnightblue" d="M2141.76,-400.308C2022.44,-397.95 1680.85,-388.469 1574.37,-356 1555.48,-350.239 1509.88,-322.461 1482.42,-305.135"/>
<polygon fill="midnightblue" stroke="midnightblue" points="1484.19,-302.111 1473.87,-299.707 1480.43,-308.021 1484.19,-302.111"/>
</g>
<!-- Node44&#45;&gt;Node3 -->
<g id="edge232" class="edge"><title>Node44&#45;&gt;Node3</title>
<path fill="none" stroke="midnightblue" d="M2342.46,-448.454C2340.56,-429.971 2336.37,-384.889 2336.37,-347 2336.37,-347 2336.37,-347 2336.37,-121 2336.37,-88.9938 2332.05,-73.6886 2305.37,-56 2264.92,-29.1704 1527.5,-14.7136 1351.07,-11.6297"/>
<polygon fill="midnightblue" stroke="midnightblue" points="1351.03,-8.12856 1340.97,-11.4549 1350.91,-15.1275 1351.03,-8.12856"/>
</g>
<!-- Node44&#45;&gt;Node43 -->
<g id="edge234" class="edge"><title>Node44&#45;&gt;Node43</title>
<path fill="none" stroke="midnightblue" d="M2318.02,-448.444C2291.1,-439.359 2248.38,-424.939 2218.29,-414.783"/>
<polygon fill="midnightblue" stroke="midnightblue" points="2219.2,-411.398 2208.61,-411.516 2216.96,-418.031 2219.2,-411.398"/>
</g>
<!-- Node45&#45;&gt;Node3 -->
<g id="edge242" class="edge"><title>Node45&#45;&gt;Node3</title>
<path fill="none" stroke="midnightblue" d="M618.225,-504.253C600.979,-486.77 565.374,-445.528 565.374,-403 565.374,-403 565.374,-403 565.374,-121 565.374,-87.5366 574.89,-73.5631 603.374,-56 660.753,-20.6203 1136.61,-12.8573 1275.47,-11.3383"/>
<polygon fill="midnightblue" stroke="midnightblue" points="1275.66,-14.8366 1285.63,-11.232 1275.59,-7.83702 1275.66,-14.8366"/>
</g>
<!-- Node45&#45;&gt;Node13 -->
<g id="edge244" class="edge"><title>Node45&#45;&gt;Node13</title>
<path fill="none" stroke="midnightblue" d="M628.419,-504.458C630.588,-485.982 635.374,-440.912 635.374,-403 635.374,-403 635.374,-403 635.374,-345 635.374,-245.708 767.719,-204.407 849.78,-188.342"/>
<polygon fill="midnightblue" stroke="midnightblue" points="850.592,-191.751 859.772,-186.461 849.298,-184.872 850.592,-191.751"/>
</g>
<!-- Node45&#45;&gt;Node31 -->
<g id="edge246" class="edge"><title>Node45&#45;&gt;Node31</title>
<path fill="none" stroke="midnightblue" d="M669.522,-504.444C717.353,-494.733 795.214,-478.927 845.352,-468.749"/>
<polygon fill="midnightblue" stroke="midnightblue" points="846.197,-472.149 855.301,-466.729 844.805,-465.289 846.197,-472.149"/>
</g>
<!-- Node46&#45;&gt;Node3 -->
<g id="edge252" class="edge"><title>Node46&#45;&gt;Node3</title>
<path fill="none" stroke="midnightblue" d="M2396.07,-672.288C2407.34,-654.205 2431.37,-610.946 2431.37,-571 2431.37,-571 2431.37,-571 2431.37,-121 2431.37,-67.2443 2380.64,-72.1842 2329.37,-56 2234.86,-26.1591 1524.46,-14.0456 1351.33,-11.5195"/>
<polygon fill="midnightblue" stroke="midnightblue" points="1351.22,-8.01771 1341.17,-11.3734 1351.12,-15.017 1351.22,-8.01771"/>
</g>
<!-- Node47 -->
<g id="node174" class="node"><title>Node47</title>
<polygon fill="white" stroke="#bfbfbf" points="2351.37,-616.5 2351.37,-635.5 2403.37,-635.5 2403.37,-616.5 2351.37,-616.5"/>
<text text-anchor="middle" x="2377.37" y="-623.5" font-family="Arial.ttf" font-size="10.00">imgui.h</text>
</g>
<!-- Node46&#45;&gt;Node47 -->
<g id="edge254" class="edge"><title>Node46&#45;&gt;Node47</title>
<path fill="none" stroke="midnightblue" d="M2388.23,-672.083C2386.5,-664.927 2384.03,-654.635 2381.87,-645.691"/>
<polygon fill="midnightblue" stroke="midnightblue" points="2385.22,-644.654 2379.48,-635.751 2378.42,-646.293 2385.22,-644.654"/>
</g>
<!-- Node49&#45;&gt;Node2 -->
<g id="edge268" class="edge"><title>Node49&#45;&gt;Node2</title>
<path fill="none" stroke="midnightblue" d="M164.689,-728.408C173.424,-710.2 192.374,-666.181 192.374,-627 192.374,-627 192.374,-627 192.374,-289 192.374,-247.032 231.914,-211.902 257.986,-193.3"/>
<polygon fill="midnightblue" stroke="midnightblue" points="259.97,-196.183 266.235,-187.639 256.009,-190.412 259.97,-196.183"/>
</g>
<!-- Node50&#45;&gt;Node2 -->
<g id="edge272" class="edge"><title>Node50&#45;&gt;Node2</title>
<path fill="none" stroke="midnightblue" d="M238.015,-784.338C245.385,-765.996 261.374,-721.738 261.374,-683 261.374,-683 261.374,-683 261.374,-289 261.374,-256.489 269.533,-219.35 275.157,-197.61"/>
<polygon fill="midnightblue" stroke="midnightblue" points="278.592,-198.317 277.811,-187.751 271.832,-196.498 278.592,-198.317"/>
</g>
</g>
</svg>
