<?xml version="1.0" encoding="UTF-8" standalone="no"?>
<!DOCTYPE svg PUBLIC "-//W3C//DTD SVG 1.1//EN"
 "http://www.w3.org/Graphics/SVG/1.1/DTD/svg11.dtd">
<!-- Generated by graphviz version 2.36.0 (20140111.2315)
 -->
<!-- Title: SLInterface.h Pages: 1 -->
<svg width="188pt" height="252pt"
 viewBox="0.00 0.00 188.00 252.00" xmlns="http://www.w3.org/2000/svg" xmlns:xlink="http://www.w3.org/1999/xlink">
<g id="graph0" class="graph" transform="scale(1 1) rotate(0) translate(4 248)">
<title>SLInterface.h</title>
<polygon fill="white" stroke="none" points="-4,4 -4,-248 184,-248 184,4 -4,4"/>
<!-- Node1 -->
<g id="node1" class="node"><title>Node1</title>
<polygon fill="#bfbfbf" stroke="black" points="42,-224.5 42,-243.5 118,-243.5 118,-224.5 42,-224.5"/>
<text text-anchor="middle" x="80" y="-231.5" font-family="Arial.ttf" font-size="10.00">SLInterface.h</text>
</g>
<!-- Node2 -->
<g id="node2" class="node"><title>Node2</title>
<g id="a_node2"><a xlink:href="_s_l_enums_8h.html" target="_top" xlink:title="SLEnums.h">
<polygon fill="white" stroke="black" points="0,-168.5 0,-187.5 68,-187.5 68,-168.5 0,-168.5"/>
<text text-anchor="middle" x="34" y="-175.5" font-family="Arial.ttf" font-size="10.00">SLEnums.h</text>
</a>
</g>
</g>
<!-- Node1&#45;&gt;Node2 -->
<g id="edge1" class="edge"><title>Node1&#45;&gt;Node2</title>
<path fill="none" stroke="midnightblue" d="M72.404,-224.083C65.7725,-216.298 55.979,-204.801 47.9419,-195.367"/>
<polygon fill="midnightblue" stroke="midnightblue" points="50.6037,-193.094 41.4546,-187.751 45.275,-197.633 50.6037,-193.094"/>
</g>
<!-- Node3 -->
<g id="node3" class="node"><title>Node3</title>
<g id="a_node3"><a xlink:href="_s_l_g_l_enums_8h.html" target="_top" xlink:title="SLGLEnums.h">
<polygon fill="white" stroke="black" points="86,-168.5 86,-187.5 168,-187.5 168,-168.5 86,-168.5"/>
<text text-anchor="middle" x="127" y="-175.5" font-family="Arial.ttf" font-size="10.00">SLGLEnums.h</text>
</a>
</g>
</g>
<!-- Node1&#45;&gt;Node3 -->
<g id="edge2" class="edge"><title>Node1&#45;&gt;Node3</title>
<path fill="none" stroke="midnightblue" d="M87.7611,-224.083C94.5368,-216.298 104.543,-204.801 112.755,-195.367"/>
<polygon fill="midnightblue" stroke="midnightblue" points="115.458,-197.592 119.383,-187.751 110.178,-192.996 115.458,-197.592"/>
</g>
<!-- Node4 -->
<g id="node4" class="node"><title>Node4</title>
<g id="a_node4"><a xlink:href="_s_l_8h.html" target="_top" xlink:title="SL.h">
<polygon fill="white" stroke="black" points="108.5,-112.5 108.5,-131.5 145.5,-131.5 145.5,-112.5 108.5,-112.5"/>
<text text-anchor="middle" x="127" y="-119.5" font-family="Arial.ttf" font-size="10.00">SL.h</text>
</a>
</g>
</g>
<!-- Node3&#45;&gt;Node4 -->
<g id="edge3" class="edge"><title>Node3&#45;&gt;Node4</title>
<path fill="none" stroke="midnightblue" d="M127,-168.083C127,-161.006 127,-150.861 127,-141.986"/>
<polygon fill="midnightblue" stroke="midnightblue" points="130.5,-141.751 127,-131.751 123.5,-141.751 130.5,-141.751"/>
</g>
<!-- Node5 -->
<g id="node5" class="node"><title>Node5</title>
<g id="a_node5"><a xlink:href="_utils_8h.html" target="_top" xlink:title="Utils.h">
<polygon fill="white" stroke="black" points="105,-56.5 105,-75.5 149,-75.5 149,-56.5 105,-56.5"/>
<text text-anchor="middle" x="127" y="-63.5" font-family="Arial.ttf" font-size="10.00">Utils.h</text>
</a>
</g>
</g>
<!-- Node4&#45;&gt;Node5 -->
<g id="edge4" class="edge"><title>Node4&#45;&gt;Node5</title>
<path fill="none" stroke="midnightblue" d="M127,-112.083C127,-105.006 127,-94.8611 127,-85.9865"/>
<polygon fill="midnightblue" stroke="midnightblue" points="130.5,-85.751 127,-75.7511 123.5,-85.7511 130.5,-85.751"/>
</g>
<!-- Node6 -->
<g id="node6" class="node"><title>Node6</title>
<polygon fill="white" stroke="#bfbfbf" points="76.5,-0.5 76.5,-19.5 117.5,-19.5 117.5,-0.5 76.5,-0.5"/>
<text text-anchor="middle" x="97" y="-7.5" font-family="Arial.ttf" font-size="10.00">string</text>
</g>
<!-- Node5&#45;&gt;Node6 -->
<g id="edge5" class="edge"><title>Node5&#45;&gt;Node6</title>
<path fill="none" stroke="midnightblue" d="M122.046,-56.083C117.896,-48.6127 111.847,-37.7244 106.733,-28.5199"/>
<polygon fill="midnightblue" stroke="midnightblue" points="109.778,-26.7929 101.862,-19.7511 103.659,-30.1924 109.778,-26.7929"/>
</g>
<!-- Node7 -->
<g id="node7" class="node"><title>Node7</title>
<polygon fill="white" stroke="#bfbfbf" points="136,-0.5 136,-19.5 180,-19.5 180,-0.5 136,-0.5"/>
<text text-anchor="middle" x="158" y="-7.5" font-family="Arial.ttf" font-size="10.00">vector</text>
</g>
<!-- Node5&#45;&gt;Node7 -->
<g id="edge6" class="edge"><title>Node5&#45;&gt;Node7</title>
<path fill="none" stroke="midnightblue" d="M132.119,-56.083C136.408,-48.6127 142.658,-37.7244 147.942,-28.5199"/>
<polygon fill="midnightblue" stroke="midnightblue" points="151.033,-30.1662 152.976,-19.7511 144.962,-26.6811 151.033,-30.1662"/>
</g>
</g>
</svg>
