<?xml version="1.0" encoding="UTF-8" standalone="no"?>
<!DOCTYPE svg PUBLIC "-//W3C//DTD SVG 1.1//EN"
 "http://www.w3.org/Graphics/SVG/1.1/DTD/svg11.dtd">
<!-- Generated by graphviz version 2.40.1 (20161225.0304)
 -->
<!-- Title: SLInputEvent.h Pages: 1 -->
<svg width="224pt" height="192pt"
 viewBox="0.00 0.00 224.13 192.00" xmlns="http://www.w3.org/2000/svg" xmlns:xlink="http://www.w3.org/1999/xlink">
<g id="graph0" class="graph" transform="scale(1 1) rotate(0) translate(4 188)">
<title>SLInputEvent.h</title>
<polygon fill="#ffffff" stroke="transparent" points="-4,4 -4,-188 220.1304,-188 220.1304,4 -4,4"/>
<!-- Node1 -->
<g id="node1" class="node">
<title>Node1</title>
<g id="a_node1"><a xlink:title=" ">
<polygon fill="#bfbfbf" stroke="#000000" points="78.0347,-165.5 78.0347,-183.5 162.4185,-183.5 162.4185,-165.5 78.0347,-165.5"/>
<text text-anchor="middle" x="120.2266" y="-171.5" font-family="Arial.ttf" font-size="10.00" fill="#000000">SLInputEvent.h</text>
</a>
</g>
</g>
<!-- Node2 -->
<g id="node2" class="node">
<title>Node2</title>
<g id="a_node2"><a xlink:href="_s_l_8h.html" target="_top" xlink:title=" ">
<polygon fill="#ffffff" stroke="#000000" points="31.9409,-110.5 31.9409,-128.5 68.5122,-128.5 68.5122,-110.5 31.9409,-110.5"/>
<text text-anchor="middle" x="50.2266" y="-116.5" font-family="Arial.ttf" font-size="10.00" fill="#000000">SL.h</text>
</a>
</g>
</g>
<!-- Node1&#45;&gt;Node2 -->
<g id="edge1" class="edge">
<title>Node1&#45;&gt;Node2</title>
<path fill="none" stroke="#191970" d="M108.6675,-165.4179C98.1926,-157.1876 82.5333,-144.8839 70.0602,-135.0836"/>
<polygon fill="#191970" stroke="#191970" points="72.0624,-132.2056 62.0368,-128.7795 67.7376,-137.7098 72.0624,-132.2056"/>
</g>
<!-- Node6 -->
<g id="node6" class="node">
<title>Node6</title>
<g id="a_node6"><a xlink:href="_s_l_enums_8h.html" target="_top" xlink:title=" ">
<polygon fill="#ffffff" stroke="#000000" points="86.3794,-110.5 86.3794,-128.5 154.0737,-128.5 154.0737,-110.5 86.3794,-110.5"/>
<text text-anchor="middle" x="120.2266" y="-116.5" font-family="Arial.ttf" font-size="10.00" fill="#000000">SLEnums.h</text>
</a>
</g>
</g>
<!-- Node1&#45;&gt;Node6 -->
<g id="edge5" class="edge">
<title>Node1&#45;&gt;Node6</title>
<path fill="none" stroke="#191970" d="M120.2266,-165.4179C120.2266,-158.2164 120.2266,-147.8962 120.2266,-138.8632"/>
<polygon fill="#191970" stroke="#191970" points="123.7267,-138.7794 120.2266,-128.7795 116.7267,-138.7795 123.7267,-138.7794"/>
</g>
<!-- Node7 -->
<g id="node7" class="node">
<title>Node7</title>
<g id="a_node7"><a xlink:title=" ">
<polygon fill="#ffffff" stroke="#bfbfbf" points="172.3228,-110.5 172.3228,-128.5 216.1304,-128.5 216.1304,-110.5 172.3228,-110.5"/>
<text text-anchor="middle" x="194.2266" y="-116.5" font-family="Arial.ttf" font-size="10.00" fill="#000000">queue</text>
</a>
</g>
</g>
<!-- Node1&#45;&gt;Node7 -->
<g id="edge6" class="edge">
<title>Node1&#45;&gt;Node7</title>
<path fill="none" stroke="#191970" d="M132.4462,-165.4179C143.6935,-157.0584 160.5947,-144.4966 173.878,-134.6239"/>
<polygon fill="#191970" stroke="#191970" points="176.0507,-137.37 181.9888,-128.5956 171.875,-131.7518 176.0507,-137.37"/>
</g>
<!-- Node3 -->
<g id="node3" class="node">
<title>Node3</title>
<g id="a_node3"><a xlink:href="_utils_8h.html" target="_top" xlink:title=" ">
<polygon fill="#ffffff" stroke="#000000" points="28.335,-55.5 28.335,-73.5 72.1182,-73.5 72.1182,-55.5 28.335,-55.5"/>
<text text-anchor="middle" x="50.2266" y="-61.5" font-family="Arial.ttf" font-size="10.00" fill="#000000">Utils.h</text>
</a>
</g>
</g>
<!-- Node2&#45;&gt;Node3 -->
<g id="edge2" class="edge">
<title>Node2&#45;&gt;Node3</title>
<path fill="none" stroke="#191970" d="M50.2266,-110.4179C50.2266,-103.2164 50.2266,-92.8962 50.2266,-83.8632"/>
<polygon fill="#191970" stroke="#191970" points="53.7267,-83.7794 50.2266,-73.7795 46.7267,-83.7795 53.7267,-83.7794"/>
</g>
<!-- Node4 -->
<g id="node4" class="node">
<title>Node4</title>
<g id="a_node4"><a xlink:title=" ">
<polygon fill="#ffffff" stroke="#bfbfbf" points="0,-.5 0,-18.5 40.4531,-18.5 40.4531,-.5 0,-.5"/>
<text text-anchor="middle" x="20.2266" y="-6.5" font-family="Arial.ttf" font-size="10.00" fill="#000000">string</text>
</a>
</g>
</g>
<!-- Node3&#45;&gt;Node4 -->
<g id="edge3" class="edge">
<title>Node3&#45;&gt;Node4</title>
<path fill="none" stroke="#191970" d="M45.2727,-55.4179C41.1719,-47.8998 35.2172,-36.9829 30.1428,-27.6799"/>
<polygon fill="#191970" stroke="#191970" points="33.1493,-25.8824 25.2881,-18.7795 27.004,-29.2344 33.1493,-25.8824"/>
</g>
<!-- Node5 -->
<g id="node5" class="node">
<title>Node5</title>
<g id="a_node5"><a xlink:title=" ">
<polygon fill="#ffffff" stroke="#bfbfbf" points="58.6108,-.5 58.6108,-18.5 101.8423,-18.5 101.8423,-.5 58.6108,-.5"/>
<text text-anchor="middle" x="80.2266" y="-6.5" font-family="Arial.ttf" font-size="10.00" fill="#000000">vector</text>
</a>
</g>
</g>
<!-- Node3&#45;&gt;Node5 -->
<g id="edge4" class="edge">
<title>Node3&#45;&gt;Node5</title>
<path fill="none" stroke="#191970" d="M55.1805,-55.4179C59.2812,-47.8998 65.2359,-36.9829 70.3103,-27.6799"/>
<polygon fill="#191970" stroke="#191970" points="73.4491,-29.2344 75.165,-18.7795 67.3038,-25.8824 73.4491,-29.2344"/>
</g>
</g>
</svg>
