<?xml version="1.0" encoding="UTF-8" standalone="no"?>
<!DOCTYPE svg PUBLIC "-//W3C//DTD SVG 1.1//EN"
 "http://www.w3.org/Graphics/SVG/1.1/DTD/svg11.dtd">
<!-- Generated by graphviz version 8.0.5 (20230430.1635)
 -->
<!-- Title: SLCoordAxis.h Pages: 1 -->
<svg width="218pt" height="86pt"
 viewBox="0.00 0.00 217.88 86.00" xmlns="http://www.w3.org/2000/svg" xmlns:xlink="http://www.w3.org/1999/xlink">
<g id="graph0" class="graph" transform="scale(1 1) rotate(0) translate(4 82)">
<title>SLCoordAxis.h</title>
<polygon fill="white" stroke="none" points="-4,4 -4,-82 213.88,-82 213.88,4 -4,4"/>
<!-- Node1 -->
<g id="node1" class="node">
<title>Node1</title>
<g id="a_node1"><a xlink:title=" ">
<polygon fill="#bfbfbf" stroke="black" points="65.62,-57.5 65.62,-77.5 147.62,-77.5 147.62,-57.5 65.62,-57.5"/>
<text text-anchor="middle" x="106.62" y="-64" font-family="Arial" font-size="10.00">SLCoordAxis.h</text>
</a>
</g>
</g>
<!-- Node2 -->
<g id="node2" class="node">
<title>Node2</title>
<g id="a_node2"><a xlink:href="_app_demo_load_8cpp.html" target="_top" xlink:title=" ">
<polygon fill="white" stroke="black" points="0,-0.5 0,-20.5 99.25,-20.5 99.25,-0.5 0,-0.5"/>
<text text-anchor="middle" x="49.62" y="-7" font-family="Arial" font-size="10.00">AppDemoLoad.cpp</text>
</a>
</g>
</g>
<!-- Node1&#45;&gt;Node2 -->
<g id="edge1" class="edge">
<title>Node1&#45;&gt;Node2</title>
<path fill="none" stroke="midnightblue" d="M89.7,-50.17C79.64,-40.46 67.27,-28.52 58.95,-20.5"/>
<polygon fill="midnightblue" stroke="midnightblue" points="86.84,-52.24 96.47,-56.66 91.7,-47.2 86.84,-52.24"/>
</g>
<!-- Node3 -->
<g id="node3" class="node">
<title>Node3</title>
<g id="a_node3"><a xlink:href="_s_l_coord_axis_8cpp.html" target="_top" xlink:title=" ">
<polygon fill="white" stroke="black" points="117.38,-0.5 117.38,-20.5 209.88,-20.5 209.88,-0.5 117.38,-0.5"/>
<text text-anchor="middle" x="163.62" y="-7" font-family="Arial" font-size="10.00">SLCoordAxis.cpp</text>
</a>
</g>
</g>
<!-- Node1&#45;&gt;Node3 -->
<g id="edge2" class="edge">
<title>Node1&#45;&gt;Node3</title>
<path fill="none" stroke="midnightblue" d="M123.55,-50.17C133.61,-40.46 145.98,-28.52 154.3,-20.5"/>
<polygon fill="midnightblue" stroke="midnightblue" points="121.55,-47.2 116.78,-56.66 126.41,-52.24 121.55,-47.2"/>
</g>
</g>
</svg>
