<?xml version="1.0" encoding="UTF-8" standalone="no"?>
<!DOCTYPE svg PUBLIC "-//W3C//DTD SVG 1.1//EN"
 "http://www.w3.org/Graphics/SVG/1.1/DTD/svg11.dtd">
<!-- Generated by graphviz version 2.28.0 (20110507.0327)
 -->
<!-- Title: SLCVFeatureMap2D.h Pages: 1 -->
<svg width="156pt" height="140pt"
 viewBox="0.00 0.00 156.00 140.00" xmlns="http://www.w3.org/2000/svg" xmlns:xlink="http://www.w3.org/1999/xlink">
<g id="graph1" class="graph" transform="scale(1 1) rotate(0) translate(4 136)">
<title>SLCVFeatureMap2D.h</title>
<polygon fill="white" stroke="white" points="-4,5 -4,-136 153,-136 153,5 -4,5"/>
<!-- Node1 -->
<g id="node1" class="node"><title>Node1</title>
<polygon fill="#bfbfbf" stroke="black" points="13,-112.5 13,-131.5 135,-131.5 135,-112.5 13,-112.5"/>
<text text-anchor="middle" x="74" y="-119.5" font-family="Arial.ttf" font-size="10.00">SLCVFeatureMap2D.h</text>
</g>
<!-- Node2 -->
<g id="node3" class="node"><title>Node2</title>
<a xlink:href="_s_l_c_v_feature_mapper2_d_8h.html" target="_top" xlink:title="SLCVFeatureMapper2D.h">
<polygon fill="white" stroke="black" points="5.5,-56.5 5.5,-75.5 142.5,-75.5 142.5,-56.5 5.5,-56.5"/>
<text text-anchor="middle" x="74" y="-63.5" font-family="Arial.ttf" font-size="10.00">SLCVFeatureMapper2D.h</text>
</a>
</g>
<!-- Node1&#45;&gt;Node2 -->
<g id="edge2" class="edge"><title>Node1&#45;&gt;Node2</title>
<path fill="none" stroke="midnightblue" d="M74,-101.805C74,-92.9102 74,-82.7798 74,-75.7511"/>
<polygon fill="midnightblue" stroke="midnightblue" points="70.5001,-102.083 74,-112.083 77.5001,-102.083 70.5001,-102.083"/>
</g>
<!-- Node3 -->
<g id="node5" class="node"><title>Node3</title>
<a xlink:href="_s_l_c_v_feature_mapper2_d_8cpp.html" target="_top" xlink:title="SLCVFeatureMapper2D.cpp">
<polygon fill="white" stroke="black" points="-0.5,-0.5 -0.5,-19.5 148.5,-19.5 148.5,-0.5 -0.5,-0.5"/>
<text text-anchor="middle" x="74" y="-7.5" font-family="Arial.ttf" font-size="10.00">SLCVFeatureMapper2D.cpp</text>
</a>
</g>
<!-- Node2&#45;&gt;Node3 -->
<g id="edge4" class="edge"><title>Node2&#45;&gt;Node3</title>
<path fill="none" stroke="midnightblue" d="M74,-45.8045C74,-36.9102 74,-26.7798 74,-19.7511"/>
<polygon fill="midnightblue" stroke="midnightblue" points="70.5001,-46.083 74,-56.083 77.5001,-46.083 70.5001,-46.083"/>
</g>
</g>
</svg>
