<?xml version="1.0" encoding="UTF-8" standalone="no"?>
<!DOCTYPE svg PUBLIC "-//W3C//DTD SVG 1.1//EN"
 "http://www.w3.org/Graphics/SVG/1.1/DTD/svg11.dtd">
<!-- Generated by graphviz version 2.40.1 (20161225.0304)
 -->
<!-- Title: SLAssetManager.cpp Pages: 1 -->
<svg width="3138pt" height="476pt"
 viewBox="0.00 0.00 3138.03 476.00" xmlns="http://www.w3.org/2000/svg" xmlns:xlink="http://www.w3.org/1999/xlink">
<g id="graph0" class="graph" transform="scale(1 1) rotate(0) translate(4 472)">
<title>SLAssetManager.cpp</title>
<polygon fill="#ffffff" stroke="transparent" points="-4,4 -4,-472 3134.0328,-472 3134.0328,4 -4,4"/>
<!-- Node1 -->
<g id="node1" class="node">
<title>Node1</title>
<g id="a_node1"><a xlink:title=" ">
<polygon fill="#bfbfbf" stroke="#000000" points="2018,-448.5 2018,-467.5 2130,-467.5 2130,-448.5 2018,-448.5"/>
<text text-anchor="middle" x="2074" y="-455.5" font-family="Arial.ttf" font-size="10.00" fill="#000000">SLAssetManager.cpp</text>
</a>
</g>
</g>
<!-- Node2 -->
<g id="node2" class="node">
<title>Node2</title>
<g id="a_node2"><a xlink:href="stdafx_8h.html" target="_top" xlink:title=" ">
<polygon fill="#ffffff" stroke="#000000" points="1467,-224.5 1467,-243.5 1519,-243.5 1519,-224.5 1467,-224.5"/>
<text text-anchor="middle" x="1493" y="-231.5" font-family="Arial.ttf" font-size="10.00" fill="#000000">stdafx.h</text>
</a>
</g>
</g>
<!-- Node1&#45;&gt;Node2 -->
<g id="edge1" class="edge">
<title>Node1&#45;&gt;Node2</title>
<path fill="none" stroke="#191970" d="M2049.0352,-448.375C1956.6635,-412.7618 1634.1127,-288.4049 1527.5001,-247.3012"/>
<polygon fill="#191970" stroke="#191970" points="1528.4615,-243.9208 1517.8718,-243.5891 1525.9433,-250.4522 1528.4615,-243.9208"/>
</g>
<!-- Node41 -->
<g id="node39" class="node">
<title>Node41</title>
<g id="a_node39"><a xlink:href="_s_l_asset_manager_8h.html" target="_top" xlink:title=" ">
<polygon fill="#ffffff" stroke="#000000" points="2645,-392.5 2645,-411.5 2747,-411.5 2747,-392.5 2645,-392.5"/>
<text text-anchor="middle" x="2696" y="-399.5" font-family="Arial.ttf" font-size="10.00" fill="#000000">SLAssetManager.h</text>
</a>
</g>
</g>
<!-- Node1&#45;&gt;Node41 -->
<g id="edge44" class="edge">
<title>Node1&#45;&gt;Node41</title>
<path fill="none" stroke="#191970" d="M2130.0203,-452.9564C2246.3739,-442.4808 2513.4222,-418.4379 2634.4143,-407.5447"/>
<polygon fill="#191970" stroke="#191970" points="2634.9681,-411.0091 2644.614,-406.6264 2634.3404,-404.0373 2634.9681,-411.0091"/>
</g>
<!-- Node3 -->
<g id="node3" class="node">
<title>Node3</title>
<g id="a_node3"><a xlink:title=" ">
<polygon fill="#ffffff" stroke="#bfbfbf" points="1381,-168.5 1381,-187.5 1439,-187.5 1439,-168.5 1381,-168.5"/>
<text text-anchor="middle" x="1410" y="-175.5" font-family="Arial.ttf" font-size="10.00" fill="#000000">algorithm</text>
</a>
</g>
</g>
<!-- Node2&#45;&gt;Node3 -->
<g id="edge2" class="edge">
<title>Node2&#45;&gt;Node3</title>
<path fill="none" stroke="#191970" d="M1478.5425,-224.2455C1465.9268,-215.7337 1447.4056,-203.2375 1432.7955,-193.3801"/>
<polygon fill="#191970" stroke="#191970" points="1434.5391,-190.3343 1424.2918,-187.6427 1430.6239,-196.1371 1434.5391,-190.3343"/>
</g>
<!-- Node4 -->
<g id="node4" class="node">
<title>Node4</title>
<g id="a_node4"><a xlink:title=" ">
<polygon fill="#ffffff" stroke="#bfbfbf" points="2340,-168.5 2340,-187.5 2386,-187.5 2386,-168.5 2340,-168.5"/>
<text text-anchor="middle" x="2363" y="-175.5" font-family="Arial.ttf" font-size="10.00" fill="#000000">atomic</text>
</a>
</g>
</g>
<!-- Node2&#45;&gt;Node4 -->
<g id="edge3" class="edge">
<title>Node2&#45;&gt;Node4</title>
<path fill="none" stroke="#191970" d="M1519.378,-233.432C1641.0696,-230.68 2149.6268,-217.7027 2329.6414,-187.7617"/>
<polygon fill="#191970" stroke="#191970" points="2330.4986,-191.1652 2339.7484,-185.9988 2329.2957,-184.2693 2330.4986,-191.1652"/>
</g>
<!-- Node5 -->
<g id="node5" class="node">
<title>Node5</title>
<g id="a_node5"><a xlink:title=" ">
<polygon fill="#ffffff" stroke="#bfbfbf" points="1495.5,-168.5 1495.5,-187.5 1542.5,-187.5 1542.5,-168.5 1495.5,-168.5"/>
<text text-anchor="middle" x="1519" y="-175.5" font-family="Arial.ttf" font-size="10.00" fill="#000000">chrono</text>
</a>
</g>
</g>
<!-- Node2&#45;&gt;Node5 -->
<g id="edge4" class="edge">
<title>Node2&#45;&gt;Node5</title>
<path fill="none" stroke="#191970" d="M1497.5289,-224.2455C1501.0334,-216.6973 1505.9927,-206.0158 1510.2623,-196.8197"/>
<polygon fill="#191970" stroke="#191970" points="1513.4864,-198.1867 1514.523,-187.6427 1507.1373,-195.2389 1513.4864,-198.1867"/>
</g>
<!-- Node6 -->
<g id="node6" class="node">
<title>Node6</title>
<g id="a_node6"><a xlink:title=" ">
<polygon fill="#ffffff" stroke="#bfbfbf" points="1599.5,-168.5 1599.5,-187.5 1648.5,-187.5 1648.5,-168.5 1599.5,-168.5"/>
<text text-anchor="middle" x="1624" y="-175.5" font-family="Arial.ttf" font-size="10.00" fill="#000000">cstdarg</text>
</a>
</g>
</g>
<!-- Node2&#45;&gt;Node6 -->
<g id="edge5" class="edge">
<title>Node2&#45;&gt;Node6</title>
<path fill="none" stroke="#191970" d="M1515.5197,-224.3733C1536.7372,-215.3032 1568.7276,-201.6279 1592.4769,-191.4755"/>
<polygon fill="#191970" stroke="#191970" points="1593.9548,-194.6502 1601.7742,-187.5011 1591.2033,-188.2136 1593.9548,-194.6502"/>
</g>
<!-- Node7 -->
<g id="node7" class="node">
<title>Node7</title>
<g id="a_node7"><a xlink:title=" ">
<polygon fill="#ffffff" stroke="#bfbfbf" points="1667,-168.5 1667,-187.5 1707,-187.5 1707,-168.5 1667,-168.5"/>
<text text-anchor="middle" x="1687" y="-175.5" font-family="Arial.ttf" font-size="10.00" fill="#000000">ctime</text>
</a>
</g>
</g>
<!-- Node2&#45;&gt;Node7 -->
<g id="edge6" class="edge">
<title>Node2&#45;&gt;Node7</title>
<path fill="none" stroke="#191970" d="M1519.1477,-227.2309C1549.9539,-219.1434 1602.8723,-204.9004 1657.0096,-188.1863"/>
<polygon fill="#191970" stroke="#191970" points="1658.261,-191.4625 1666.7697,-185.1497 1656.1814,-184.7785 1658.261,-191.4625"/>
</g>
<!-- Node8 -->
<g id="node8" class="node">
<title>Node8</title>
<g id="a_node8"><a xlink:title=" ">
<polygon fill="#ffffff" stroke="#bfbfbf" points="1763,-168.5 1763,-187.5 1813,-187.5 1813,-168.5 1763,-168.5"/>
<text text-anchor="middle" x="1788" y="-175.5" font-family="Arial.ttf" font-size="10.00" fill="#000000">fstream</text>
</a>
</g>
</g>
<!-- Node2&#45;&gt;Node8 -->
<g id="edge7" class="edge">
<title>Node2&#45;&gt;Node8</title>
<path fill="none" stroke="#191970" d="M1519.2908,-229.928C1565.8147,-222.5772 1665.6087,-206.1579 1749,-188 1750.2678,-187.7239 1751.5568,-187.4354 1752.8572,-187.1375"/>
<polygon fill="#191970" stroke="#191970" points="1753.9838,-190.4665 1762.8891,-184.7267 1752.3481,-183.6602 1753.9838,-190.4665"/>
</g>
<!-- Node9 -->
<g id="node9" class="node">
<title>Node9</title>
<g id="a_node9"><a xlink:title=" ">
<polygon fill="#ffffff" stroke="#bfbfbf" points="1442.5,-.5 1442.5,-19.5 1501.5,-19.5 1501.5,-.5 1442.5,-.5"/>
<text text-anchor="middle" x="1472" y="-7.5" font-family="Arial.ttf" font-size="10.00" fill="#000000">functional</text>
</a>
</g>
</g>
<!-- Node2&#45;&gt;Node9 -->
<g id="edge8" class="edge">
<title>Node2&#45;&gt;Node9</title>
<path fill="none" stroke="#191970" d="M1513.1561,-224.4543C1526.8815,-216.7394 1543.9635,-204.4561 1552,-188 1555.9007,-180.0127 1554.0641,-176.6459 1552,-168 1538.9786,-113.4568 1503.9061,-56.4358 1484.8115,-28.1514"/>
<polygon fill="#191970" stroke="#191970" points="1487.5539,-25.9624 1479.0034,-19.7061 1481.7862,-29.929 1487.5539,-25.9624"/>
</g>
<!-- Node10 -->
<g id="node10" class="node">
<title>Node10</title>
<g id="a_node10"><a xlink:title=" ">
<polygon fill="#ffffff" stroke="#bfbfbf" points="1831,-168.5 1831,-187.5 1883,-187.5 1883,-168.5 1831,-168.5"/>
<text text-anchor="middle" x="1857" y="-175.5" font-family="Arial.ttf" font-size="10.00" fill="#000000">iomanip</text>
</a>
</g>
</g>
<!-- Node2&#45;&gt;Node10 -->
<g id="edge9" class="edge">
<title>Node2&#45;&gt;Node10</title>
<path fill="none" stroke="#191970" d="M1519.2313,-231.5871C1573.7215,-226.3083 1703.2235,-212.3796 1820.8363,-188.012"/>
<polygon fill="#191970" stroke="#191970" points="1821.6598,-191.4154 1830.7253,-185.9321 1820.219,-184.5653 1821.6598,-191.4154"/>
</g>
<!-- Node11 -->
<g id="node11" class="node">
<title>Node11</title>
<g id="a_node11"><a xlink:title=" ">
<polygon fill="#ffffff" stroke="#bfbfbf" points="1901.5,-168.5 1901.5,-187.5 1956.5,-187.5 1956.5,-168.5 1901.5,-168.5"/>
<text text-anchor="middle" x="1929" y="-175.5" font-family="Arial.ttf" font-size="10.00" fill="#000000">iostream</text>
</a>
</g>
</g>
<!-- Node2&#45;&gt;Node11 -->
<g id="edge10" class="edge">
<title>Node2&#45;&gt;Node11</title>
<path fill="none" stroke="#191970" d="M1519.3484,-232.3277C1582.1039,-228.056 1745.4212,-215.2395 1891.2035,-187.8924"/>
<polygon fill="#191970" stroke="#191970" points="1892.0546,-191.2933 1901.2232,-185.9842 1890.745,-184.4169 1892.0546,-191.2933"/>
</g>
<!-- Node12 -->
<g id="node12" class="node">
<title>Node12</title>
<g id="a_node12"><a xlink:title=" ">
<polygon fill="#ffffff" stroke="#bfbfbf" points="1974.5,-168.5 1974.5,-187.5 2003.5,-187.5 2003.5,-168.5 1974.5,-168.5"/>
<text text-anchor="middle" x="1989" y="-175.5" font-family="Arial.ttf" font-size="10.00" fill="#000000">list</text>
</a>
</g>
</g>
<!-- Node2&#45;&gt;Node12 -->
<g id="edge11" class="edge">
<title>Node2&#45;&gt;Node12</title>
<path fill="none" stroke="#191970" d="M1519.2051,-232.5327C1602.6482,-227.6973 1862.2059,-211.357 1964.2076,-187.7191"/>
<polygon fill="#191970" stroke="#191970" points="1965.2804,-191.0592 1974.1459,-185.258 1963.5978,-184.2644 1965.2804,-191.0592"/>
</g>
<!-- Node13 -->
<g id="node13" class="node">
<title>Node13</title>
<g id="a_node13"><a xlink:title=" ">
<polygon fill="#ffffff" stroke="#bfbfbf" points="2286,-168.5 2286,-187.5 2322,-187.5 2322,-168.5 2286,-168.5"/>
<text text-anchor="middle" x="2304" y="-175.5" font-family="Arial.ttf" font-size="10.00" fill="#000000">map</text>
</a>
</g>
</g>
<!-- Node2&#45;&gt;Node13 -->
<g id="edge12" class="edge">
<title>Node2&#45;&gt;Node13</title>
<path fill="none" stroke="#191970" d="M1519.2823,-233.5003C1635.913,-231.1268 2107.9418,-219.8337 2276.0027,-187.5333"/>
<polygon fill="#191970" stroke="#191970" points="2276.8091,-190.9411 2285.9162,-185.5273 2275.4207,-184.0802 2276.8091,-190.9411"/>
</g>
<!-- Node14 -->
<g id="node14" class="node">
<title>Node14</title>
<g id="a_node14"><a xlink:title=" ">
<polygon fill="#ffffff" stroke="#bfbfbf" points="2022,-168.5 2022,-187.5 2066,-187.5 2066,-168.5 2022,-168.5"/>
<text text-anchor="middle" x="2044" y="-175.5" font-family="Arial.ttf" font-size="10.00" fill="#000000">queue</text>
</a>
</g>
</g>
<!-- Node2&#45;&gt;Node14 -->
<g id="edge13" class="edge">
<title>Node2&#45;&gt;Node14</title>
<path fill="none" stroke="#191970" d="M1519.1344,-232.4646C1607.9398,-227.13 1898.4075,-208.6907 2011.7244,-187.7813"/>
<polygon fill="#191970" stroke="#191970" points="2012.6619,-191.1645 2021.8077,-185.8161 2011.3228,-184.2938 2012.6619,-191.1645"/>
</g>
<!-- Node15 -->
<g id="node15" class="node">
<title>Node15</title>
<g id="a_node15"><a xlink:title=" ">
<polygon fill="#ffffff" stroke="#bfbfbf" points="2084,-168.5 2084,-187.5 2134,-187.5 2134,-168.5 2084,-168.5"/>
<text text-anchor="middle" x="2109" y="-175.5" font-family="Arial.ttf" font-size="10.00" fill="#000000">random</text>
</a>
</g>
</g>
<!-- Node2&#45;&gt;Node15 -->
<g id="edge14" class="edge">
<title>Node2&#45;&gt;Node15</title>
<path fill="none" stroke="#191970" d="M1519.1186,-232.6571C1614.8367,-227.6267 1946.9943,-209.186 2073.7005,-187.8241"/>
<polygon fill="#191970" stroke="#191970" points="2074.6551,-191.2095 2083.8896,-186.0158 2073.4318,-184.3172 2074.6551,-191.2095"/>
</g>
<!-- Node16 -->
<g id="node16" class="node">
<title>Node16</title>
<g id="a_node16"><a xlink:title=" ">
<polygon fill="#ffffff" stroke="#bfbfbf" points="2152,-168.5 2152,-187.5 2204,-187.5 2204,-168.5 2152,-168.5"/>
<text text-anchor="middle" x="2178" y="-175.5" font-family="Arial.ttf" font-size="10.00" fill="#000000">sstream</text>
</a>
</g>
</g>
<!-- Node2&#45;&gt;Node16 -->
<g id="edge15" class="edge">
<title>Node2&#45;&gt;Node16</title>
<path fill="none" stroke="#191970" d="M1519.2237,-232.8725C1622.3411,-228.3291 2000.7767,-210.5962 2141.6423,-187.846"/>
<polygon fill="#191970" stroke="#191970" points="2142.4898,-191.2523 2151.7634,-186.1287 2141.3188,-184.3509 2142.4898,-191.2523"/>
</g>
<!-- Node17 -->
<g id="node17" class="node">
<title>Node17</title>
<g id="a_node17"><a xlink:title=" ">
<polygon fill="#ffffff" stroke="#bfbfbf" points="1201.5,-.5 1201.5,-19.5 1242.5,-19.5 1242.5,-.5 1201.5,-.5"/>
<text text-anchor="middle" x="1222" y="-7.5" font-family="Arial.ttf" font-size="10.00" fill="#000000">string</text>
</a>
</g>
</g>
<!-- Node2&#45;&gt;Node17 -->
<g id="edge16" class="edge">
<title>Node2&#45;&gt;Node17</title>
<path fill="none" stroke="#191970" d="M1466.7426,-233.7641C1364.1852,-232.5747 994.5727,-225.685 960,-188 882.1142,-103.1028 1107.1963,-37.9443 1191.5127,-17.0789"/>
<polygon fill="#191970" stroke="#191970" points="1192.4057,-20.4638 1201.2961,-14.701 1190.7524,-13.6618 1192.4057,-20.4638"/>
</g>
<!-- Node18 -->
<g id="node18" class="node">
<title>Node18</title>
<g id="a_node18"><a xlink:title=" ">
<polygon fill="#ffffff" stroke="#bfbfbf" points="2222.5,-168.5 2222.5,-187.5 2267.5,-187.5 2267.5,-168.5 2222.5,-168.5"/>
<text text-anchor="middle" x="2245" y="-175.5" font-family="Arial.ttf" font-size="10.00" fill="#000000">thread</text>
</a>
</g>
</g>
<!-- Node2&#45;&gt;Node18 -->
<g id="edge17" class="edge">
<title>Node2&#45;&gt;Node18</title>
<path fill="none" stroke="#191970" d="M1519.3414,-233.1608C1629.8287,-229.5137 2056.928,-214.1157 2212.5889,-187.5486"/>
<polygon fill="#191970" stroke="#191970" points="2213.2175,-190.9918 2222.4432,-185.7825 2211.9826,-184.1016 2213.2175,-190.9918"/>
</g>
<!-- Node19 -->
<g id="node19" class="node">
<title>Node19</title>
<g id="a_node19"><a xlink:title=" ">
<polygon fill="#ffffff" stroke="#bfbfbf" points="0,-168.5 0,-187.5 52,-187.5 52,-168.5 0,-168.5"/>
<text text-anchor="middle" x="26" y="-175.5" font-family="Arial.ttf" font-size="10.00" fill="#000000">typeinfo</text>
</a>
</g>
</g>
<!-- Node2&#45;&gt;Node19 -->
<g id="edge18" class="edge">
<title>Node2&#45;&gt;Node19</title>
<path fill="none" stroke="#191970" d="M1466.8629,-233.5479C1288.0257,-230.4045 246.7446,-211.2859 62.2123,-187.6576"/>
<polygon fill="#191970" stroke="#191970" points="62.6104,-184.1791 52.218,-186.2402 61.6275,-191.1097 62.6104,-184.1791"/>
</g>
<!-- Node20 -->
<g id="node20" class="node">
<title>Node20</title>
<g id="a_node20"><a xlink:title=" ">
<polygon fill="#ffffff" stroke="#bfbfbf" points="1713,-.5 1713,-19.5 1757,-19.5 1757,-.5 1713,-.5"/>
<text text-anchor="middle" x="1735" y="-7.5" font-family="Arial.ttf" font-size="10.00" fill="#000000">vector</text>
</a>
</g>
</g>
<!-- Node2&#45;&gt;Node20 -->
<g id="edge19" class="edge">
<title>Node2&#45;&gt;Node20</title>
<path fill="none" stroke="#191970" d="M1519.3102,-232.3617C1572.4822,-228.4725 1689.9019,-216.7633 1716,-188 1756.1224,-143.7802 1746.7234,-65.6779 1739.5353,-29.4559"/>
<polygon fill="#191970" stroke="#191970" points="1742.9502,-28.6878 1737.4327,-19.6431 1736.1056,-30.1544 1742.9502,-28.6878"/>
</g>
<!-- Node21 -->
<g id="node21" class="node">
<title>Node21</title>
<g id="a_node21"><a xlink:title=" ">
<polygon fill="#ffffff" stroke="#bfbfbf" points="721.5,-.5 721.5,-19.5 774.5,-19.5 774.5,-.5 721.5,-.5"/>
<text text-anchor="middle" x="748" y="-7.5" font-family="Arial.ttf" font-size="10.00" fill="#000000">memory</text>
</a>
</g>
</g>
<!-- Node2&#45;&gt;Node21 -->
<g id="edge20" class="edge">
<title>Node2&#45;&gt;Node21</title>
<path fill="none" stroke="#191970" d="M1466.8484,-233.8937C1305.7292,-233.1141 453.5089,-227.1451 416,-188 320.7446,-88.5893 606.6694,-32.3058 711.2684,-15.4451"/>
<polygon fill="#191970" stroke="#191970" points="712.0497,-18.8652 721.3809,-13.8473 710.9571,-11.9509 712.0497,-18.8652"/>
</g>
<!-- Node22 -->
<g id="node22" class="node">
<title>Node22</title>
<g id="a_node22"><a xlink:title=" ">
<polygon fill="#ffffff" stroke="#bfbfbf" points="70.5,-168.5 70.5,-187.5 119.5,-187.5 119.5,-168.5 70.5,-168.5"/>
<text text-anchor="middle" x="95" y="-175.5" font-family="Arial.ttf" font-size="10.00" fill="#000000">cassert</text>
</a>
</g>
</g>
<!-- Node2&#45;&gt;Node22 -->
<g id="edge21" class="edge">
<title>Node2&#45;&gt;Node22</title>
<path fill="none" stroke="#191970" d="M1466.9777,-233.5175C1293.5939,-230.2515 307.3506,-210.8623 129.7902,-187.5242"/>
<polygon fill="#191970" stroke="#191970" points="130.1165,-184.0348 119.7158,-186.0532 129.1051,-190.9614 130.1165,-184.0348"/>
</g>
<!-- Node23 -->
<g id="node23" class="node">
<title>Node23</title>
<g id="a_node23"><a xlink:title=" ">
<polygon fill="#ffffff" stroke="#bfbfbf" points="879,-.5 879,-19.5 919,-19.5 919,-.5 879,-.5"/>
<text text-anchor="middle" x="899" y="-7.5" font-family="Arial.ttf" font-size="10.00" fill="#000000">cfloat</text>
</a>
</g>
</g>
<!-- Node2&#45;&gt;Node23 -->
<g id="edge22" class="edge">
<title>Node2&#45;&gt;Node23</title>
<path fill="none" stroke="#191970" d="M1466.5706,-233.5611C1327.1692,-231.1206 682.6135,-218.2253 654,-188 578.7635,-108.5255 787.8553,-40.6107 868.6408,-18.0005"/>
<polygon fill="#191970" stroke="#191970" points="869.9947,-21.2582 878.7088,-15.2321 868.1387,-14.5088 869.9947,-21.2582"/>
</g>
<!-- Node24 -->
<g id="node24" class="node">
<title>Node24</title>
<g id="a_node24"><a xlink:title=" ">
<polygon fill="#ffffff" stroke="#bfbfbf" points="138,-168.5 138,-187.5 182,-187.5 182,-168.5 138,-168.5"/>
<text text-anchor="middle" x="160" y="-175.5" font-family="Arial.ttf" font-size="10.00" fill="#000000">climits</text>
</a>
</g>
</g>
<!-- Node2&#45;&gt;Node24 -->
<g id="edge23" class="edge">
<title>Node2&#45;&gt;Node24</title>
<path fill="none" stroke="#191970" d="M1466.7808,-233.5094C1297.6315,-230.2883 362.2815,-211.6075 192.242,-187.5538"/>
<polygon fill="#191970" stroke="#191970" points="192.5885,-184.0652 182.1648,-185.9618 191.4961,-190.9795 192.5885,-184.0652"/>
</g>
<!-- Node25 -->
<g id="node25" class="node">
<title>Node25</title>
<g id="a_node25"><a xlink:title=" ">
<polygon fill="#ffffff" stroke="#bfbfbf" points="200,-168.5 200,-187.5 244,-187.5 244,-168.5 200,-168.5"/>
<text text-anchor="middle" x="222" y="-175.5" font-family="Arial.ttf" font-size="10.00" fill="#000000">cmath</text>
</a>
</g>
</g>
<!-- Node2&#45;&gt;Node25 -->
<g id="edge24" class="edge">
<title>Node2&#45;&gt;Node25</title>
<path fill="none" stroke="#191970" d="M1466.9593,-233.4637C1303.1871,-230.0354 417.4634,-210.6576 254.254,-187.5551"/>
<polygon fill="#191970" stroke="#191970" points="254.5901,-184.0648 244.1656,-185.9569 253.4948,-190.9786 254.5901,-184.0648"/>
</g>
<!-- Node26 -->
<g id="node26" class="node">
<title>Node26</title>
<g id="a_node26"><a xlink:title=" ">
<polygon fill="#ffffff" stroke="#bfbfbf" points="262.5,-168.5 262.5,-187.5 305.5,-187.5 305.5,-168.5 262.5,-168.5"/>
<text text-anchor="middle" x="284" y="-175.5" font-family="Arial.ttf" font-size="10.00" fill="#000000">cstdio</text>
</a>
</g>
</g>
<!-- Node2&#45;&gt;Node26 -->
<g id="edge25" class="edge">
<title>Node2&#45;&gt;Node26</title>
<path fill="none" stroke="#191970" d="M1466.9379,-233.4249C1308.0289,-229.8612 471.4288,-210.2639 315.7792,-187.6791"/>
<polygon fill="#191970" stroke="#191970" points="316.2006,-184.2017 305.7679,-186.048 315.0749,-191.1106 316.2006,-184.2017"/>
</g>
<!-- Node27 -->
<g id="node27" class="node">
<title>Node27</title>
<g id="a_node27"><a xlink:title=" ">
<polygon fill="#ffffff" stroke="#bfbfbf" points="323.5,-168.5 323.5,-187.5 368.5,-187.5 368.5,-168.5 323.5,-168.5"/>
<text text-anchor="middle" x="346" y="-175.5" font-family="Arial.ttf" font-size="10.00" fill="#000000">cstdlib</text>
</a>
</g>
</g>
<!-- Node2&#45;&gt;Node27 -->
<g id="edge26" class="edge">
<title>Node2&#45;&gt;Node27</title>
<path fill="none" stroke="#191970" d="M1466.8119,-233.7054C1320.3771,-231.9387 601.7476,-221.6628 383,-188 381.5202,-187.7723 380.0148,-187.5073 378.4996,-187.2135"/>
<polygon fill="#191970" stroke="#191970" points="379.0549,-183.7504 368.5274,-184.9426 377.5006,-190.5757 379.0549,-183.7504"/>
</g>
<!-- Node28 -->
<g id="node28" class="node">
<title>Node28</title>
<g id="a_node28"><a xlink:title=" ">
<polygon fill="#ffffff" stroke="#bfbfbf" points="425,-168.5 425,-187.5 471,-187.5 471,-168.5 425,-168.5"/>
<text text-anchor="middle" x="448" y="-175.5" font-family="Arial.ttf" font-size="10.00" fill="#000000">cstring</text>
</a>
</g>
</g>
<!-- Node2&#45;&gt;Node28 -->
<g id="edge27" class="edge">
<title>Node2&#45;&gt;Node28</title>
<path fill="none" stroke="#191970" d="M1466.8469,-233.7227C1330.3536,-232.1395 698.0751,-223.0983 481.254,-187.7293"/>
<polygon fill="#191970" stroke="#191970" points="481.6926,-184.2537 471.2469,-186.0251 480.5173,-191.1544 481.6926,-184.2537"/>
</g>
<!-- Node29 -->
<g id="node29" class="node">
<title>Node29</title>
<g id="a_node29"><a xlink:href="_s_l_8h.html" target="_top" xlink:title=" ">
<polygon fill="#ffffff" stroke="#000000" points="2504.5,-112.5 2504.5,-131.5 2541.5,-131.5 2541.5,-112.5 2504.5,-112.5"/>
<text text-anchor="middle" x="2523" y="-119.5" font-family="Arial.ttf" font-size="10.00" fill="#000000">SL.h</text>
</a>
</g>
</g>
<!-- Node2&#45;&gt;Node29 -->
<g id="edge28" class="edge">
<title>Node2&#45;&gt;Node29</title>
<path fill="none" stroke="#191970" d="M1488.1574,-224.437C1481.6643,-210.1066 1472.5252,-183.1318 1487,-168 1522.7743,-130.602 2330.2782,-123.2738 2494.1465,-122.1701"/>
<polygon fill="#191970" stroke="#191970" points="2494.4285,-125.6685 2504.4055,-122.1036 2494.383,-118.6686 2494.4285,-125.6685"/>
</g>
<!-- Node33 -->
<g id="node31" class="node">
<title>Node33</title>
<g id="a_node31"><a xlink:href="_s_l_enums_8h.html" target="_top" xlink:title=" ">
<polygon fill="#ffffff" stroke="#000000" points="2404,-168.5 2404,-187.5 2472,-187.5 2472,-168.5 2404,-168.5"/>
<text text-anchor="middle" x="2438" y="-175.5" font-family="Arial.ttf" font-size="10.00" fill="#000000">SLEnums.h</text>
</a>
</g>
</g>
<!-- Node2&#45;&gt;Node33 -->
<g id="edge35" class="edge">
<title>Node2&#45;&gt;Node33</title>
<path fill="none" stroke="#191970" d="M1519.1672,-233.2935C1646.1068,-229.7721 2199.2239,-213.324 2393.7429,-187.8955"/>
<polygon fill="#191970" stroke="#191970" points="2394.3988,-191.3386 2403.8354,-186.522 2393.4547,-184.4026 2394.3988,-191.3386"/>
</g>
<!-- Node34 -->
<g id="node32" class="node">
<title>Node34</title>
<g id="a_node32"><a xlink:href="_s_l_object_8h.html" target="_top" xlink:title=" ">
<polygon fill="#ffffff" stroke="#000000" points="2490,-168.5 2490,-187.5 2556,-187.5 2556,-168.5 2490,-168.5"/>
<text text-anchor="middle" x="2523" y="-175.5" font-family="Arial.ttf" font-size="10.00" fill="#000000">SLObject.h</text>
</a>
</g>
</g>
<!-- Node2&#45;&gt;Node34 -->
<g id="edge36" class="edge">
<title>Node2&#45;&gt;Node34</title>
<path fill="none" stroke="#191970" d="M1519.3652,-233.4409C1654.084,-230.4841 2267.1685,-215.7963 2479.5298,-187.9192"/>
<polygon fill="#191970" stroke="#191970" points="2480.2027,-191.3599 2489.6372,-186.5389 2479.2555,-184.4242 2480.2027,-191.3599"/>
</g>
<!-- Node35 -->
<g id="node33" class="node">
<title>Node35</title>
<g id="a_node33"><a xlink:title=" ">
<polygon fill="#ffffff" stroke="#bfbfbf" points="489,-168.5 489,-187.5 607,-187.5 607,-168.5 489,-168.5"/>
<text text-anchor="middle" x="548" y="-175.5" font-family="Arial.ttf" font-size="10.00" fill="#000000">opencv2/core/core.hpp</text>
</a>
</g>
</g>
<!-- Node2&#45;&gt;Node35 -->
<g id="edge38" class="edge">
<title>Node2&#45;&gt;Node35</title>
<path fill="none" stroke="#191970" d="M1466.9041,-233.4184C1361.143,-230.8932 954.165,-219.5517 621,-188 619.8857,-187.8945 618.7623,-187.7845 617.6317,-187.6704"/>
<polygon fill="#191970" stroke="#191970" points="617.6344,-184.1501 607.3142,-186.5466 616.8764,-191.109 617.6344,-184.1501"/>
</g>
<!-- Node36 -->
<g id="node34" class="node">
<title>Node36</title>
<g id="a_node34"><a xlink:title=" ">
<polygon fill="#ffffff" stroke="#bfbfbf" points="663,-168.5 663,-187.5 785,-187.5 785,-168.5 663,-168.5"/>
<text text-anchor="middle" x="724" y="-175.5" font-family="Arial.ttf" font-size="10.00" fill="#000000">opencv2/core/utility.hpp</text>
</a>
</g>
</g>
<!-- Node2&#45;&gt;Node36 -->
<g id="edge39" class="edge">
<title>Node2&#45;&gt;Node36</title>
<path fill="none" stroke="#191970" d="M1466.9154,-233.0011C1375.9199,-229.3659 1063.9424,-215.6376 795.3871,-188.0709"/>
<polygon fill="#191970" stroke="#191970" points="795.3568,-184.5491 785.0495,-187.0006 794.6359,-191.5119 795.3568,-184.5491"/>
</g>
<!-- Node37 -->
<g id="node35" class="node">
<title>Node37</title>
<g id="a_node35"><a xlink:title=" ">
<polygon fill="#ffffff" stroke="#bfbfbf" points="803.5,-168.5 803.5,-187.5 912.5,-187.5 912.5,-168.5 803.5,-168.5"/>
<text text-anchor="middle" x="858" y="-175.5" font-family="Arial.ttf" font-size="10.00" fill="#000000">opencv2/highgui.hpp</text>
</a>
</g>
</g>
<!-- Node2&#45;&gt;Node37 -->
<g id="edge40" class="edge">
<title>Node2&#45;&gt;Node37</title>
<path fill="none" stroke="#191970" d="M1466.9926,-232.4701C1386.5494,-227.6127 1134.6849,-211.4656 927,-188 925.5341,-187.8344 924.0514,-187.6619 922.5568,-187.4835"/>
<polygon fill="#191970" stroke="#191970" points="922.93,-184.0029 912.5723,-186.232 922.0594,-190.9486 922.93,-184.0029"/>
</g>
<!-- Node38 -->
<g id="node36" class="node">
<title>Node38</title>
<g id="a_node36"><a xlink:title=" ">
<polygon fill="#ffffff" stroke="#bfbfbf" points="969,-168.5 969,-187.5 1081,-187.5 1081,-168.5 969,-168.5"/>
<text text-anchor="middle" x="1025" y="-175.5" font-family="Arial.ttf" font-size="10.00" fill="#000000">opencv2/imgproc.hpp</text>
</a>
</g>
</g>
<!-- Node2&#45;&gt;Node38 -->
<g id="edge41" class="edge">
<title>Node2&#45;&gt;Node38</title>
<path fill="none" stroke="#191970" d="M1466.551,-231.3417C1403.5214,-224.9301 1239.2871,-207.7721 1091.5098,-188.1624"/>
<polygon fill="#191970" stroke="#191970" points="1091.7259,-184.6603 1081.3508,-186.8069 1090.8001,-191.5988 1091.7259,-184.6603"/>
</g>
<!-- Node39 -->
<g id="node37" class="node">
<title>Node39</title>
<g id="a_node37"><a xlink:title=" ">
<polygon fill="#ffffff" stroke="#bfbfbf" points="1099,-168.5 1099,-187.5 1207,-187.5 1207,-168.5 1099,-168.5"/>
<text text-anchor="middle" x="1153" y="-175.5" font-family="Arial.ttf" font-size="10.00" fill="#000000">opencv2/calib3d.hpp</text>
</a>
</g>
</g>
<!-- Node2&#45;&gt;Node39 -->
<g id="edge42" class="edge">
<title>Node2&#45;&gt;Node39</title>
<path fill="none" stroke="#191970" d="M1466.8853,-229.6988C1414.0146,-220.9906 1292.9412,-201.0491 1217.5649,-188.6342"/>
<polygon fill="#191970" stroke="#191970" points="1217.68,-185.1061 1207.2441,-186.9343 1216.5423,-192.013 1217.68,-185.1061"/>
</g>
<!-- Node40 -->
<g id="node38" class="node">
<title>Node40</title>
<g id="a_node38"><a xlink:title=" ">
<polygon fill="#ffffff" stroke="#bfbfbf" points="1225,-168.5 1225,-187.5 1363,-187.5 1363,-168.5 1225,-168.5"/>
<text text-anchor="middle" x="1294" y="-175.5" font-family="Arial.ttf" font-size="10.00" fill="#000000">opencv2/video/tracking.hpp</text>
</a>
</g>
</g>
<!-- Node2&#45;&gt;Node40 -->
<g id="edge43" class="edge">
<title>Node2&#45;&gt;Node40</title>
<path fill="none" stroke="#191970" d="M1466.9842,-226.679C1434.1565,-217.441 1377.2171,-201.4179 1337.6722,-190.2897"/>
<polygon fill="#191970" stroke="#191970" points="1338.5927,-186.9128 1328.0185,-187.573 1336.6965,-193.6511 1338.5927,-186.9128"/>
</g>
<!-- Node30 -->
<g id="node30" class="node">
<title>Node30</title>
<g id="a_node30"><a xlink:href="_utils_8h.html" target="_top" xlink:title=" ">
<polygon fill="#ffffff" stroke="#ff0000" points="1350,-56.5 1350,-75.5 1394,-75.5 1394,-56.5 1350,-56.5"/>
<text text-anchor="middle" x="1372" y="-63.5" font-family="Arial.ttf" font-size="10.00" fill="#000000">Utils.h</text>
</a>
</g>
</g>
<!-- Node29&#45;&gt;Node30 -->
<g id="edge29" class="edge">
<title>Node29&#45;&gt;Node30</title>
<path fill="none" stroke="#191970" d="M2504.4543,-121.0977C2372.3971,-114.6727 1574.8723,-75.8704 1404.1513,-67.5643"/>
<polygon fill="#191970" stroke="#191970" points="1404.2032,-64.0627 1394.0449,-67.0726 1403.863,-71.0545 1404.2032,-64.0627"/>
</g>
<!-- Node30&#45;&gt;Node9 -->
<g id="edge34" class="edge">
<title>Node30&#45;&gt;Node9</title>
<path fill="none" stroke="#191970" d="M1389.4187,-56.2455C1405.0485,-47.4928 1428.2019,-34.527 1446.0185,-24.5496"/>
<polygon fill="#191970" stroke="#191970" points="1447.766,-27.5825 1454.7809,-19.6427 1444.3457,-21.475 1447.766,-27.5825"/>
</g>
<!-- Node30&#45;&gt;Node17 -->
<g id="edge30" class="edge">
<title>Node30&#45;&gt;Node17</title>
<path fill="none" stroke="#191970" d="M1349.867,-57.737C1324.0607,-48.1027 1281.2639,-32.1252 1252.3649,-21.3362"/>
<polygon fill="#191970" stroke="#191970" points="1253.3657,-17.974 1242.7731,-17.7553 1250.9174,-24.5319 1253.3657,-17.974"/>
</g>
<!-- Node30&#45;&gt;Node20 -->
<g id="edge31" class="edge">
<title>Node30&#45;&gt;Node20</title>
<path fill="none" stroke="#191970" d="M1394.1608,-62.5812C1455.928,-53.0524 1630.2289,-26.163 1702.7345,-14.9776"/>
<polygon fill="#191970" stroke="#191970" points="1703.3185,-18.429 1712.668,-13.4452 1702.2512,-11.5108 1703.3185,-18.429"/>
</g>
<!-- Node30&#45;&gt;Node21 -->
<g id="edge33" class="edge">
<title>Node30&#45;&gt;Node21</title>
<path fill="none" stroke="#191970" d="M1349.7915,-64.0069C1257.1562,-55.6935 900.9815,-23.7291 784.8471,-13.3068"/>
<polygon fill="#191970" stroke="#191970" points="784.9605,-9.803 774.6877,-12.395 784.3348,-16.775 784.9605,-9.803"/>
</g>
<!-- Node30&#45;&gt;Node23 -->
<g id="edge32" class="edge">
<title>Node30&#45;&gt;Node23</title>
<path fill="none" stroke="#191970" d="M1349.8206,-63.3741C1272.9378,-54.2717 1017.7476,-24.0589 929.4102,-13.6004"/>
<polygon fill="#191970" stroke="#191970" points="929.5948,-10.0979 919.2526,-12.3978 928.7717,-17.0493 929.5948,-10.0979"/>
</g>
<!-- Node34&#45;&gt;Node29 -->
<g id="edge37" class="edge">
<title>Node34&#45;&gt;Node29</title>
<path fill="none" stroke="#191970" d="M2523,-168.2455C2523,-160.9382 2523,-150.6944 2523,-141.7046"/>
<polygon fill="#191970" stroke="#191970" points="2526.5001,-141.6426 2523,-131.6427 2519.5001,-141.6427 2526.5001,-141.6426"/>
</g>
<!-- Node41&#45;&gt;Node20 -->
<g id="edge67" class="edge">
<title>Node41&#45;&gt;Node20</title>
<path fill="none" stroke="#191970" d="M2747.3641,-398.2849C2854.512,-389.1211 3092,-360.8217 3092,-290 3092,-290 3092,-290 3092,-122 3092,-53.3089 1973.0332,-17.0163 1767.2969,-10.924"/>
<polygon fill="#191970" stroke="#191970" points="1767.2406,-7.421 1757.1422,-10.626 1767.0351,-14.4179 1767.2406,-7.421"/>
</g>
<!-- Node41&#45;&gt;Node29 -->
<g id="edge45" class="edge">
<title>Node41&#45;&gt;Node29</title>
<path fill="none" stroke="#191970" d="M2747.2724,-399.2503C2851.0083,-393.2584 3078.3165,-377.792 3106,-356 3130.5255,-336.694 3130,-321.2125 3130,-290 3130,-290 3130,-290 3130,-234 3130,-195.2415 3107.5393,-185.5857 3073,-168 3026.3056,-144.2256 2657.8653,-127.4955 2551.5975,-123.1289"/>
<polygon fill="#191970" stroke="#191970" points="2551.7339,-119.6317 2541.6001,-122.723 2551.4498,-126.6259 2551.7339,-119.6317"/>
</g>
<!-- Node42 -->
<g id="node40" class="node">
<title>Node42</title>
<g id="a_node40"><a xlink:href="_s_l_material_8h.html" target="_top" xlink:title=" ">
<polygon fill="#ffffff" stroke="#000000" points="2591.5,-336.5 2591.5,-355.5 2664.5,-355.5 2664.5,-336.5 2591.5,-336.5"/>
<text text-anchor="middle" x="2628" y="-343.5" font-family="Arial.ttf" font-size="10.00" fill="#000000">SLMaterial.h</text>
</a>
</g>
</g>
<!-- Node41&#45;&gt;Node42 -->
<g id="edge46" class="edge">
<title>Node41&#45;&gt;Node42</title>
<path fill="none" stroke="#191970" d="M2684.1553,-392.2455C2674.112,-383.9746 2659.5005,-371.9416 2647.6996,-362.2232"/>
<polygon fill="#191970" stroke="#191970" points="2649.6533,-359.298 2639.709,-355.6427 2645.2033,-364.7015 2649.6533,-359.298"/>
</g>
<!-- Node44 -->
<g id="node42" class="node">
<title>Node44</title>
<g id="a_node42"><a xlink:href="_s_l_g_l_program_generic_8h.html" target="_top" xlink:title=" ">
<polygon fill="#ffffff" stroke="#000000" points="2438,-280.5 2438,-299.5 2562,-299.5 2562,-280.5 2438,-280.5"/>
<text text-anchor="middle" x="2500" y="-287.5" font-family="Arial.ttf" font-size="10.00" fill="#000000">SLGLProgramGeneric.h</text>
</a>
</g>
</g>
<!-- Node41&#45;&gt;Node44 -->
<g id="edge68" class="edge">
<title>Node41&#45;&gt;Node44</title>
<path fill="none" stroke="#191970" d="M2666.1254,-392.467C2642.6946,-384.3783 2609.6946,-371.612 2583,-356 2558.6407,-341.7538 2533.6958,-320.9061 2517.5995,-306.4696"/>
<polygon fill="#191970" stroke="#191970" points="2519.7858,-303.7265 2510.0388,-299.5736 2515.0686,-308.8984 2519.7858,-303.7265"/>
</g>
<!-- Node71 -->
<g id="node47" class="node">
<title>Node71</title>
<g id="a_node47"><a xlink:href="_s_l_mesh_8h.html" target="_top" xlink:title=" ">
<polygon fill="#ffffff" stroke="#000000" points="2734,-224.5 2734,-243.5 2796,-243.5 2796,-224.5 2734,-224.5"/>
<text text-anchor="middle" x="2765" y="-231.5" font-family="Arial.ttf" font-size="10.00" fill="#000000">SLMesh.h</text>
</a>
</g>
</g>
<!-- Node41&#45;&gt;Node71 -->
<g id="edge60" class="edge">
<title>Node41&#45;&gt;Node71</title>
<path fill="none" stroke="#191970" d="M2701.0711,-392.342C2710.3463,-374.4495 2730.345,-334.7976 2744,-300 2750.0396,-284.6091 2755.6495,-266.7113 2759.5491,-253.4396"/>
<polygon fill="#191970" stroke="#191970" points="2762.9969,-254.1137 2762.3942,-243.536 2756.269,-252.1808 2762.9969,-254.1137"/>
</g>
<!-- Node43 -->
<g id="node41" class="node">
<title>Node43</title>
<g id="a_node41"><a xlink:href="_s_l_draw_bits_8h.html" target="_top" xlink:title=" ">
<polygon fill="#ffffff" stroke="#000000" points="2657.5,-280.5 2657.5,-299.5 2734.5,-299.5 2734.5,-280.5 2657.5,-280.5"/>
<text text-anchor="middle" x="2696" y="-287.5" font-family="Arial.ttf" font-size="10.00" fill="#000000">SLDrawBits.h</text>
</a>
</g>
</g>
<!-- Node42&#45;&gt;Node43 -->
<g id="edge47" class="edge">
<title>Node42&#45;&gt;Node43</title>
<path fill="none" stroke="#191970" d="M2639.8447,-336.2455C2649.888,-327.9746 2664.4995,-315.9416 2676.3004,-306.2232"/>
<polygon fill="#191970" stroke="#191970" points="2678.7967,-308.7015 2684.291,-299.6427 2674.3467,-303.298 2678.7967,-308.7015"/>
</g>
<!-- Node42&#45;&gt;Node44 -->
<g id="edge49" class="edge">
<title>Node42&#45;&gt;Node44</title>
<path fill="none" stroke="#191970" d="M2605.996,-336.3733C2585.3565,-327.3435 2554.2842,-313.7494 2531.1111,-303.6111"/>
<polygon fill="#191970" stroke="#191970" points="2532.2813,-300.3028 2521.7169,-299.5011 2529.4755,-306.7159 2532.2813,-300.3028"/>
</g>
<!-- Node45 -->
<g id="node43" class="node">
<title>Node45</title>
<g id="a_node43"><a xlink:href="_s_l_g_l_program_8h.html" target="_top" xlink:title=" ">
<polygon fill="#ffffff" stroke="#ff0000" points="2478.5,-224.5 2478.5,-243.5 2567.5,-243.5 2567.5,-224.5 2478.5,-224.5"/>
<text text-anchor="middle" x="2523" y="-231.5" font-family="Arial.ttf" font-size="10.00" fill="#000000">SLGLProgram.h</text>
</a>
</g>
</g>
<!-- Node42&#45;&gt;Node45 -->
<g id="edge55" class="edge">
<title>Node42&#45;&gt;Node45</title>
<path fill="none" stroke="#191970" d="M2620.1552,-336.3535C2609.4089,-323.2723 2589.348,-299.3232 2571,-280 2561.4107,-269.901 2550.198,-259.1033 2541.0223,-250.5089"/>
<polygon fill="#191970" stroke="#191970" points="2543.2855,-247.8342 2533.5751,-243.5963 2538.5233,-252.9647 2543.2855,-247.8342"/>
</g>
<!-- Node58 -->
<g id="node45" class="node">
<title>Node58</title>
<g id="a_node45"><a xlink:href="_s_l_g_l_texture_8h.html" target="_top" xlink:title=" ">
<polygon fill="#ffffff" stroke="#ff0000" points="2586,-224.5 2586,-243.5 2670,-243.5 2670,-224.5 2586,-224.5"/>
<text text-anchor="middle" x="2628" y="-231.5" font-family="Arial.ttf" font-size="10.00" fill="#000000">SLGLTexture.h</text>
</a>
</g>
</g>
<!-- Node42&#45;&gt;Node58 -->
<g id="edge56" class="edge">
<title>Node42&#45;&gt;Node58</title>
<path fill="none" stroke="#191970" d="M2628,-336.4509C2628,-318.184 2628,-277.9553 2628,-253.6976"/>
<polygon fill="#191970" stroke="#191970" points="2631.5001,-253.5249 2628,-243.5249 2624.5001,-253.5249 2631.5001,-253.5249"/>
</g>
<!-- Node43&#45;&gt;Node29 -->
<g id="edge48" class="edge">
<title>Node43&#45;&gt;Node29</title>
<path fill="none" stroke="#191970" d="M2698.5928,-280.4381C2704.061,-257.9701 2714.1584,-201.2101 2687,-168 2669.9151,-147.1081 2593.8182,-132.6228 2551.5477,-126.0293"/>
<polygon fill="#191970" stroke="#191970" points="2551.997,-122.5575 2541.5863,-124.5239 2550.951,-129.4789 2551.997,-122.5575"/>
</g>
<!-- Node44&#45;&gt;Node34 -->
<g id="edge54" class="edge">
<title>Node44&#45;&gt;Node34</title>
<path fill="none" stroke="#191970" d="M2489.94,-280.1562C2478.0361,-267.2549 2460.9103,-243.9251 2470,-224 2475.6889,-211.5296 2486.6131,-201.1361 2497.0726,-193.4023"/>
<polygon fill="#191970" stroke="#191970" points="2499.3523,-196.0832 2505.6242,-187.5442 2495.3963,-190.3082 2499.3523,-196.0832"/>
</g>
<!-- Node44&#45;&gt;Node45 -->
<g id="edge50" class="edge">
<title>Node44&#45;&gt;Node45</title>
<path fill="none" stroke="#191970" d="M2504.0063,-280.2455C2507.0735,-272.7776 2511.4003,-262.2427 2515.1497,-253.1137"/>
<polygon fill="#191970" stroke="#191970" points="2518.4779,-254.2226 2519.0396,-243.6427 2512.0028,-251.5631 2518.4779,-254.2226"/>
</g>
<!-- Node57 -->
<g id="node44" class="node">
<title>Node57</title>
<g id="a_node44"><a xlink:href="_s_l_g_l_program_manager_8h.html" target="_top" xlink:title=" ">
<polygon fill="#ffffff" stroke="#000000" points="2294,-224.5 2294,-243.5 2422,-243.5 2422,-224.5 2294,-224.5"/>
<text text-anchor="middle" x="2358" y="-231.5" font-family="Arial.ttf" font-size="10.00" fill="#000000">SLGLProgramManager.h</text>
</a>
</g>
</g>
<!-- Node44&#45;&gt;Node57 -->
<g id="edge53" class="edge">
<title>Node44&#45;&gt;Node57</title>
<path fill="none" stroke="#191970" d="M2475.5893,-280.3733C2452.3858,-271.2226 2417.2962,-257.3844 2391.4858,-247.2057"/>
<polygon fill="#191970" stroke="#191970" points="2392.6789,-243.9139 2382.0921,-243.5011 2390.1108,-250.4258 2392.6789,-243.9139"/>
</g>
<!-- Node45&#45;&gt;Node13 -->
<g id="edge51" class="edge">
<title>Node45&#45;&gt;Node13</title>
<path fill="none" stroke="#191970" d="M2478.3657,-224.8911C2441.3338,-216.9791 2387.1746,-204.5923 2331.8159,-187.9986"/>
<polygon fill="#191970" stroke="#191970" points="2332.7849,-184.635 2322.1993,-185.0765 2330.7497,-191.3327 2332.7849,-184.635"/>
</g>
<!-- Node45&#45;&gt;Node34 -->
<g id="edge52" class="edge">
<title>Node45&#45;&gt;Node34</title>
<path fill="none" stroke="#191970" d="M2523,-224.2455C2523,-216.9382 2523,-206.6944 2523,-197.7046"/>
<polygon fill="#191970" stroke="#191970" points="2526.5001,-197.6426 2523,-187.6427 2519.5001,-197.6427 2526.5001,-197.6426"/>
</g>
<!-- Node58&#45;&gt;Node4 -->
<g id="edge59" class="edge">
<title>Node58&#45;&gt;Node4</title>
<path fill="none" stroke="#191970" d="M2585.7747,-225.7235C2528.3834,-214.467 2429.7334,-195.0903 2396.4644,-187.9249"/>
<polygon fill="#191970" stroke="#191970" points="2396.8638,-184.4261 2386.3356,-185.612 2395.3054,-191.2504 2396.8638,-184.4261"/>
</g>
<!-- Node58&#45;&gt;Node34 -->
<g id="edge57" class="edge">
<title>Node58&#45;&gt;Node34</title>
<path fill="none" stroke="#191970" d="M2609.7104,-224.2455C2593.2238,-215.4527 2568.7648,-202.4079 2550.0235,-192.4125"/>
<polygon fill="#191970" stroke="#191970" points="2551.5506,-189.2604 2541.08,-187.6427 2548.2565,-195.4368 2551.5506,-189.2604"/>
</g>
<!-- Node66 -->
<g id="node46" class="node">
<title>Node66</title>
<g id="a_node46"><a xlink:href="_s_l_g_l_vertex_array_8h.html" target="_top" xlink:title=" ">
<polygon fill="#ffffff" stroke="#ff0000" points="2574.5,-168.5 2574.5,-187.5 2677.5,-187.5 2677.5,-168.5 2574.5,-168.5"/>
<text text-anchor="middle" x="2626" y="-175.5" font-family="Arial.ttf" font-size="10.00" fill="#000000">SLGLVertexArray.h</text>
</a>
</g>
</g>
<!-- Node58&#45;&gt;Node66 -->
<g id="edge58" class="edge">
<title>Node58&#45;&gt;Node66</title>
<path fill="none" stroke="#191970" d="M2627.6516,-224.2455C2627.3907,-216.9382 2627.0248,-206.6944 2626.7037,-197.7046"/>
<polygon fill="#191970" stroke="#191970" points="2630.1992,-197.5113 2626.3444,-187.6427 2623.2036,-197.7613 2630.1992,-197.5113"/>
</g>
<!-- Node71&#45;&gt;Node33 -->
<g id="edge62" class="edge">
<title>Node71&#45;&gt;Node33</title>
<path fill="none" stroke="#191970" d="M2733.7785,-229.6514C2683.0946,-222.4391 2579.5693,-207.0728 2482.2273,-188.1424"/>
<polygon fill="#191970" stroke="#191970" points="2482.7091,-184.6703 2472.2224,-186.1796 2481.3615,-191.5393 2482.7091,-184.6703"/>
</g>
<!-- Node71&#45;&gt;Node34 -->
<g id="edge64" class="edge">
<title>Node71&#45;&gt;Node34</title>
<path fill="none" stroke="#191970" d="M2733.9747,-226.8418C2696.7342,-218.2466 2632.1205,-203.3244 2566.4516,-188.1024"/>
<polygon fill="#191970" stroke="#191970" points="2566.8657,-184.6056 2556.3335,-185.7566 2565.2846,-191.4248 2566.8657,-184.6056"/>
</g>
<!-- Node71&#45;&gt;Node66 -->
<g id="edge63" class="edge">
<title>Node71&#45;&gt;Node66</title>
<path fill="none" stroke="#191970" d="M2741.105,-224.3733C2718.4918,-215.2629 2684.3458,-201.5062 2659.1127,-191.3404"/>
<polygon fill="#191970" stroke="#191970" points="2660.1666,-187.9917 2649.5831,-187.5011 2657.5507,-194.4845 2660.1666,-187.9917"/>
</g>
<!-- Node72 -->
<g id="node48" class="node">
<title>Node72</title>
<g id="a_node48"><a xlink:href="_s_l_a_a_b_box_8h.html" target="_top" xlink:title=" ">
<polygon fill="#ffffff" stroke="#ff0000" points="2860,-168.5 2860,-187.5 2934,-187.5 2934,-168.5 2860,-168.5"/>
<text text-anchor="middle" x="2897" y="-175.5" font-family="Arial.ttf" font-size="10.00" fill="#000000">SLAABBox.h</text>
</a>
</g>
</g>
<!-- Node71&#45;&gt;Node72 -->
<g id="edge61" class="edge">
<title>Node71&#45;&gt;Node72</title>
<path fill="none" stroke="#191970" d="M2787.6916,-224.3733C2809.0711,-215.3032 2841.3057,-201.6279 2865.2362,-191.4755"/>
<polygon fill="#191970" stroke="#191970" points="2866.7656,-194.6287 2874.6045,-187.5011 2864.0317,-188.1846 2866.7656,-194.6287"/>
</g>
<!-- Node74 -->
<g id="node49" class="node">
<title>Node74</title>
<g id="a_node49"><a xlink:href="_s_l_optix_accel_struct_8h.html" target="_top" xlink:title=" ">
<polygon fill="#ffffff" stroke="#000000" points="2952.5,-168.5 2952.5,-187.5 3063.5,-187.5 3063.5,-168.5 2952.5,-168.5"/>
<text text-anchor="middle" x="3008" y="-175.5" font-family="Arial.ttf" font-size="10.00" fill="#000000">SLOptixAccelStruct.h</text>
</a>
</g>
</g>
<!-- Node71&#45;&gt;Node74 -->
<g id="edge65" class="edge">
<title>Node71&#45;&gt;Node74</title>
<path fill="none" stroke="#191970" d="M2796.2705,-226.7936C2836.8394,-217.4444 2908.1552,-201.0095 2956.7048,-189.8211"/>
<polygon fill="#191970" stroke="#191970" points="2957.7413,-193.1741 2966.6999,-187.5177 2956.1693,-186.3529 2957.7413,-193.1741"/>
</g>
<!-- Node53 -->
<g id="node50" class="node">
<title>Node53</title>
<g id="a_node50"><a xlink:href="_s_l_optix_definitions_8h.html" target="_top" xlink:title=" ">
<polygon fill="#ffffff" stroke="#000000" points="2734.5,-168.5 2734.5,-187.5 2841.5,-187.5 2841.5,-168.5 2734.5,-168.5"/>
<text text-anchor="middle" x="2788" y="-175.5" font-family="Arial.ttf" font-size="10.00" fill="#000000">SLOptixDefinitions.h</text>
</a>
</g>
</g>
<!-- Node71&#45;&gt;Node53 -->
<g id="edge66" class="edge">
<title>Node71&#45;&gt;Node53</title>
<path fill="none" stroke="#191970" d="M2769.0063,-224.2455C2772.0735,-216.7776 2776.4003,-206.2427 2780.1497,-197.1137"/>
<polygon fill="#191970" stroke="#191970" points="2783.4779,-198.2226 2784.0396,-187.6427 2777.0028,-195.5631 2783.4779,-198.2226"/>
</g>
</g>
</svg>
