<?xml version="1.0" encoding="UTF-8" standalone="no"?>
<!DOCTYPE svg PUBLIC "-//W3C//DTD SVG 1.1//EN"
 "http://www.w3.org/Graphics/SVG/1.1/DTD/svg11.dtd">
<!-- Generated by graphviz version 2.36.0 (20140111.2315)
 -->
<!-- Title: SLAverageTiming.h Pages: 1 -->
<svg width="5326pt" height="140pt"
 viewBox="0.00 0.00 5326.00 140.00" xmlns="http://www.w3.org/2000/svg" xmlns:xlink="http://www.w3.org/1999/xlink">
<g id="graph0" class="graph" transform="scale(1 1) rotate(0) translate(4 136)">
<title>SLAverageTiming.h</title>
<polygon fill="white" stroke="none" points="-4,4 -4,-136 5322,-136 5322,4 -4,4"/>
<!-- Node1 -->
<g id="node1" class="node"><title>Node1</title>
<polygon fill="#bfbfbf" stroke="black" points="1995,-112.5 1995,-131.5 2099,-131.5 2099,-112.5 1995,-112.5"/>
<text text-anchor="middle" x="2047" y="-119.5" font-family="Arial.ttf" font-size="10.00">SLAverageTiming.h</text>
</g>
<!-- Node2 -->
<g id="node2" class="node"><title>Node2</title>
<g id="a_node2"><a xlink:href="_s_l_average_timing_8cpp.html" target="_top" xlink:title="SLAverageTiming.cpp">
<polygon fill="white" stroke="black" points="-0.5,-0.5 -0.5,-19.5 114.5,-19.5 114.5,-0.5 -0.5,-0.5"/>
<text text-anchor="middle" x="57" y="-7.5" font-family="Arial.ttf" font-size="10.00">SLAverageTiming.cpp</text>
</a>
</g>
</g>
<!-- Node1&#45;&gt;Node2 -->
<g id="edge1" class="edge"><title>Node1&#45;&gt;Node2</title>
<path fill="none" stroke="midnightblue" d="M1984.58,-119.561C1743.98,-113.625 853.786,-88.0675 124,-20 120.962,-19.7166 117.849,-19.398 114.71,-19.0541"/>
<polygon fill="midnightblue" stroke="midnightblue" points="1984.79,-123.067 1994.88,-119.813 1984.97,-116.069 1984.79,-123.067"/>
</g>
<!-- Node3 -->
<g id="node3" class="node"><title>Node3</title>
<g id="a_node3"><a xlink:href="stdafx_8h.html" target="_top" xlink:title="stdafx.h">
<polygon fill="white" stroke="red" points="2685,-56.5 2685,-75.5 2737,-75.5 2737,-56.5 2685,-56.5"/>
<text text-anchor="middle" x="2711" y="-63.5" font-family="Arial.ttf" font-size="10.00">stdafx.h</text>
</a>
</g>
</g>
<!-- Node1&#45;&gt;Node3 -->
<g id="edge2" class="edge"><title>Node1&#45;&gt;Node3</title>
<path fill="none" stroke="midnightblue" d="M2109.29,-115.934C2250.08,-104.485 2588.03,-77.0003 2684.74,-69.1356"/>
<polygon fill="midnightblue" stroke="midnightblue" points="2108.79,-112.464 2099.1,-116.763 2109.35,-119.441 2108.79,-112.464"/>
</g>
<!-- Node3&#45;&gt;Node2 -->
<g id="edge17" class="edge"><title>Node3&#45;&gt;Node2</title>
<path fill="none" stroke="midnightblue" d="M2674.4,-64.9483C2399.25,-64.4719 651.657,-59.8933 124,-20 120.957,-19.77 117.841,-19.4938 114.699,-19.1833"/>
<polygon fill="midnightblue" stroke="midnightblue" points="2674.62,-68.4485 2684.63,-64.9652 2674.63,-61.4486 2674.62,-68.4485"/>
</g>
<!-- Node4 -->
<g id="node4" class="node"><title>Node4</title>
<g id="a_node4"><a xlink:href="_s_l_g_l_im_gui_8cpp.html" target="_top" xlink:title="SLGLImGui.cpp">
<polygon fill="white" stroke="black" points="133,-0.5 133,-19.5 221,-19.5 221,-0.5 133,-0.5"/>
<text text-anchor="middle" x="177" y="-7.5" font-family="Arial.ttf" font-size="10.00">SLGLImGui.cpp</text>
</a>
</g>
</g>
<!-- Node3&#45;&gt;Node4 -->
<g id="edge3" class="edge"><title>Node3&#45;&gt;Node4</title>
<path fill="none" stroke="midnightblue" d="M2674.65,-65.0903C2406.74,-65.6434 734.508,-67.1421 230,-20 227.119,-19.7308 224.159,-19.3949 221.181,-19.0122"/>
<polygon fill="midnightblue" stroke="midnightblue" points="2674.98,-68.5897 2684.97,-65.0679 2674.97,-61.5897 2674.98,-68.5897"/>
</g>
<!-- Node5 -->
<g id="node5" class="node"><title>Node5</title>
<g id="a_node5"><a xlink:href="_s_l_g_l_oculus_8cpp.html" target="_top" xlink:title="SLGLOculus.cpp">
<polygon fill="white" stroke="black" points="239,-0.5 239,-19.5 331,-19.5 331,-0.5 239,-0.5"/>
<text text-anchor="middle" x="285" y="-7.5" font-family="Arial.ttf" font-size="10.00">SLGLOculus.cpp</text>
</a>
</g>
</g>
<!-- Node3&#45;&gt;Node5 -->
<g id="edge4" class="edge"><title>Node3&#45;&gt;Node5</title>
<path fill="none" stroke="midnightblue" d="M2674.64,-65.0249C2413.56,-65.0968 821.251,-63.7151 340,-20 337.109,-19.7374 334.141,-19.4128 331.152,-19.0442"/>
<polygon fill="midnightblue" stroke="midnightblue" points="2674.72,-68.525 2684.72,-65.0212 2674.72,-61.525 2674.72,-68.525"/>
</g>
<!-- Node6 -->
<g id="node6" class="node"><title>Node6</title>
<g id="a_node6"><a xlink:href="_s_l_g_l_oculus_f_b_8cpp.html" target="_top" xlink:title="SLGLOculusFB.cpp">
<polygon fill="white" stroke="black" points="349.5,-0.5 349.5,-19.5 454.5,-19.5 454.5,-0.5 349.5,-0.5"/>
<text text-anchor="middle" x="402" y="-7.5" font-family="Arial.ttf" font-size="10.00">SLGLOculusFB.cpp</text>
</a>
</g>
</g>
<!-- Node3&#45;&gt;Node6 -->
<g id="edge5" class="edge"><title>Node3&#45;&gt;Node6</title>
<path fill="none" stroke="midnightblue" d="M2674.58,-64.9029C2421.21,-64.1325 918.401,-57.9998 463,-20 460.226,-19.7686 457.387,-19.4913 454.524,-19.1799"/>
<polygon fill="midnightblue" stroke="midnightblue" points="2674.7,-68.4032 2684.71,-64.9328 2674.73,-61.4032 2674.7,-68.4032"/>
</g>
<!-- Node7 -->
<g id="node7" class="node"><title>Node7</title>
<g id="a_node7"><a xlink:href="_s_l_g_l_program_8cpp.html" target="_top" xlink:title="SLGLProgram.cpp">
<polygon fill="white" stroke="black" points="472.5,-0.5 472.5,-19.5 571.5,-19.5 571.5,-0.5 472.5,-0.5"/>
<text text-anchor="middle" x="522" y="-7.5" font-family="Arial.ttf" font-size="10.00">SLGLProgram.cpp</text>
</a>
</g>
</g>
<!-- Node3&#45;&gt;Node7 -->
<g id="edge6" class="edge"><title>Node3&#45;&gt;Node7</title>
<path fill="none" stroke="midnightblue" d="M2674.57,-64.8938C2428.87,-64.0777 1010.43,-57.7716 580,-20 577.259,-19.7595 574.451,-19.4696 571.621,-19.1434"/>
<polygon fill="midnightblue" stroke="midnightblue" points="2674.73,-68.3942 2684.75,-64.9266 2674.76,-61.3943 2674.73,-68.3942"/>
</g>
<!-- Node8 -->
<g id="node8" class="node"><title>Node8</title>
<g id="a_node8"><a xlink:href="_s_l_g_l_shader_8cpp.html" target="_top" xlink:title="SLGLShader.cpp">
<polygon fill="white" stroke="black" points="589.5,-0.5 589.5,-19.5 682.5,-19.5 682.5,-0.5 589.5,-0.5"/>
<text text-anchor="middle" x="636" y="-7.5" font-family="Arial.ttf" font-size="10.00">SLGLShader.cpp</text>
</a>
</g>
</g>
<!-- Node3&#45;&gt;Node8 -->
<g id="edge7" class="edge"><title>Node3&#45;&gt;Node8</title>
<path fill="none" stroke="midnightblue" d="M2674.62,-64.8862C2436.54,-64.0363 1097.78,-57.627 691,-20 688.302,-19.7505 685.537,-19.4479 682.751,-19.1068"/>
<polygon fill="midnightblue" stroke="midnightblue" points="2674.8,-68.3867 2684.81,-64.9215 2674.83,-61.3867 2674.8,-68.3867"/>
</g>
<!-- Node9 -->
<g id="node9" class="node"><title>Node9</title>
<g id="a_node9"><a xlink:href="_s_l_g_l_texture_8cpp.html" target="_top" xlink:title="SLGLTexture.cpp">
<polygon fill="white" stroke="black" points="700.5,-0.5 700.5,-19.5 795.5,-19.5 795.5,-0.5 700.5,-0.5"/>
<text text-anchor="middle" x="748" y="-7.5" font-family="Arial.ttf" font-size="10.00">SLGLTexture.cpp</text>
</a>
</g>
</g>
<!-- Node3&#45;&gt;Node9 -->
<g id="edge8" class="edge"><title>Node3&#45;&gt;Node9</title>
<path fill="none" stroke="midnightblue" d="M2674.53,-64.8019C2444.13,-63.4504 1187.71,-54.5771 805,-20 801.907,-19.7205 798.727,-19.3768 795.527,-18.9884"/>
<polygon fill="midnightblue" stroke="midnightblue" points="2674.7,-68.3028 2684.72,-64.8607 2674.74,-61.303 2674.7,-68.3028"/>
</g>
<!-- Node10 -->
<g id="node10" class="node"><title>Node10</title>
<g id="a_node10"><a xlink:href="_s_l_g_l_vertex_array_8cpp.html" target="_top" xlink:title="SLGLVertexArray.cpp">
<polygon fill="white" stroke="black" points="814,-0.5 814,-19.5 928,-19.5 928,-0.5 814,-0.5"/>
<text text-anchor="middle" x="871" y="-7.5" font-family="Arial.ttf" font-size="10.00">SLGLVertexArray.cpp</text>
</a>
</g>
</g>
<!-- Node3&#45;&gt;Node10 -->
<g id="edge9" class="edge"><title>Node3&#45;&gt;Node10</title>
<path fill="none" stroke="midnightblue" d="M2674.67,-64.6248C2454.09,-62.2646 1292.2,-48.636 937,-20 934.118,-19.7677 931.17,-19.4949 928.196,-19.1918"/>
<polygon fill="midnightblue" stroke="midnightblue" points="2674.7,-68.1253 2684.74,-64.7317 2674.78,-61.1257 2674.7,-68.1253"/>
</g>
<!-- Node11 -->
<g id="node11" class="node"><title>Node11</title>
<g id="a_node11"><a xlink:href="_s_l_g_l_vertex_array_ext_8cpp.html" target="_top" xlink:title="SLGLVertexArrayExt.cpp">
<polygon fill="white" stroke="black" points="946,-0.5 946,-19.5 1074,-19.5 1074,-0.5 946,-0.5"/>
<text text-anchor="middle" x="1010" y="-7.5" font-family="Arial.ttf" font-size="10.00">SLGLVertexArrayExt.cpp</text>
</a>
</g>
</g>
<!-- Node3&#45;&gt;Node11 -->
<g id="edge10" class="edge"><title>Node3&#45;&gt;Node11</title>
<path fill="none" stroke="midnightblue" d="M2674.58,-65.2725C2498.66,-66.3209 1719.19,-67.9009 1083,-20 1080.07,-19.7795 1077.08,-19.526 1074.06,-19.2471"/>
<polygon fill="midnightblue" stroke="midnightblue" points="2674.63,-68.7724 2684.6,-65.2093 2674.58,-61.7725 2674.63,-68.7724"/>
</g>
<!-- Node12 -->
<g id="node12" class="node"><title>Node12</title>
<g id="a_node12"><a xlink:href="_s_l_g_l_vertex_buffer_8cpp.html" target="_top" xlink:title="SLGLVertexBuffer.cpp">
<polygon fill="white" stroke="black" points="1092.5,-0.5 1092.5,-19.5 1209.5,-19.5 1209.5,-0.5 1092.5,-0.5"/>
<text text-anchor="middle" x="1151" y="-7.5" font-family="Arial.ttf" font-size="10.00">SLGLVertexBuffer.cpp</text>
</a>
</g>
</g>
<!-- Node3&#45;&gt;Node12 -->
<g id="edge11" class="edge"><title>Node3&#45;&gt;Node12</title>
<path fill="none" stroke="midnightblue" d="M2674.71,-65.2876C2507.87,-66.3197 1797.77,-67.5489 1218,-20 1215.31,-19.7794 1212.56,-19.5257 1209.79,-19.2468"/>
<polygon fill="midnightblue" stroke="midnightblue" points="2674.93,-68.7863 2684.91,-65.2204 2674.89,-61.7864 2674.93,-68.7863"/>
</g>
<!-- Node13 -->
<g id="node13" class="node"><title>Node13</title>
<g id="a_node13"><a xlink:href="gl_utils_8cpp.html" target="_top" xlink:title="glUtils.cpp">
<polygon fill="white" stroke="black" points="1227.5,-0.5 1227.5,-19.5 1290.5,-19.5 1290.5,-0.5 1227.5,-0.5"/>
<text text-anchor="middle" x="1259" y="-7.5" font-family="Arial.ttf" font-size="10.00">glUtils.cpp</text>
</a>
</g>
</g>
<!-- Node3&#45;&gt;Node13 -->
<g id="edge12" class="edge"><title>Node3&#45;&gt;Node13</title>
<path fill="none" stroke="midnightblue" d="M2674.76,-64.7751C2482.14,-63.4382 1576.74,-55.347 1299,-20 1296.32,-19.6585 1293.55,-19.2201 1290.78,-18.7211"/>
<polygon fill="midnightblue" stroke="midnightblue" points="2674.89,-68.2759 2684.91,-64.8438 2674.94,-61.2761 2674.89,-68.2759"/>
</g>
<!-- Node14 -->
<g id="node14" class="node"><title>Node14</title>
<g id="a_node14"><a xlink:href="_s_l_curve_bezier_8cpp.html" target="_top" xlink:title="SLCurveBezier.cpp">
<polygon fill="white" stroke="black" points="1308.5,-0.5 1308.5,-19.5 1411.5,-19.5 1411.5,-0.5 1308.5,-0.5"/>
<text text-anchor="middle" x="1360" y="-7.5" font-family="Arial.ttf" font-size="10.00">SLCurveBezier.cpp</text>
</a>
</g>
</g>
<!-- Node3&#45;&gt;Node14 -->
<g id="edge13" class="edge"><title>Node3&#45;&gt;Node14</title>
<path fill="none" stroke="midnightblue" d="M2674.3,-65.2496C2520.79,-65.9717 1915.06,-65.6077 1420,-20 1417.27,-19.7488 1414.48,-19.4557 1411.67,-19.132"/>
<polygon fill="midnightblue" stroke="midnightblue" points="2674.59,-68.7483 2684.57,-65.1964 2674.55,-61.7484 2674.59,-68.7483"/>
</g>
<!-- Node15 -->
<g id="node15" class="node"><title>Node15</title>
<g id="a_node15"><a xlink:href="_s_l_plane_8cpp.html" target="_top" xlink:title="SLPlane.cpp">
<polygon fill="white" stroke="black" points="1429.5,-0.5 1429.5,-19.5 1502.5,-19.5 1502.5,-0.5 1429.5,-0.5"/>
<text text-anchor="middle" x="1466" y="-7.5" font-family="Arial.ttf" font-size="10.00">SLPlane.cpp</text>
</a>
</g>
</g>
<!-- Node3&#45;&gt;Node15 -->
<g id="edge14" class="edge"><title>Node3&#45;&gt;Node15</title>
<path fill="none" stroke="midnightblue" d="M2674.54,-64.4194C2499.55,-61.5125 1744.72,-47.5752 1511,-20 1508.31,-19.6826 1505.54,-19.2908 1502.76,-18.8499"/>
<polygon fill="midnightblue" stroke="midnightblue" points="2674.7,-67.9224 2684.76,-64.5875 2674.81,-60.9234 2674.7,-67.9224"/>
</g>
<!-- Node16 -->
<g id="node16" class="node"><title>Node16</title>
<g id="a_node16"><a xlink:href="_s_l_application_8cpp.html" target="_top" xlink:title="SLApplication.cpp">
<polygon fill="white" stroke="black" points="1520.5,-0.5 1520.5,-19.5 1617.5,-19.5 1617.5,-0.5 1520.5,-0.5"/>
<text text-anchor="middle" x="1569" y="-7.5" font-family="Arial.ttf" font-size="10.00">SLApplication.cpp</text>
</a>
</g>
</g>
<!-- Node3&#45;&gt;Node16 -->
<g id="edge15" class="edge"><title>Node3&#45;&gt;Node16</title>
<path fill="none" stroke="midnightblue" d="M2674.55,-64.9713C2537.05,-64.5486 2036.75,-60.1671 1627,-20 1623.96,-19.7018 1620.83,-19.3498 1617.68,-18.9609"/>
<polygon fill="midnightblue" stroke="midnightblue" points="2674.91,-68.4721 2684.92,-64.9976 2674.93,-61.4721 2674.91,-68.4721"/>
</g>
<!-- Node17 -->
<g id="node17" class="node"><title>Node17</title>
<g id="a_node17"><a xlink:href="_s_l_assimp_importer_8cpp.html" target="_top" xlink:title="SLAssimpImporter.cpp">
<polygon fill="white" stroke="black" points="1636,-0.5 1636,-19.5 1754,-19.5 1754,-0.5 1636,-0.5"/>
<text text-anchor="middle" x="1695" y="-7.5" font-family="Arial.ttf" font-size="10.00">SLAssimpImporter.cpp</text>
</a>
</g>
</g>
<!-- Node3&#45;&gt;Node17 -->
<g id="edge16" class="edge"><title>Node3&#45;&gt;Node17</title>
<path fill="none" stroke="midnightblue" d="M2674.68,-64.3761C2548.49,-61.9739 2117.4,-51.8078 1763,-20 1760.15,-19.7445 1757.24,-19.4578 1754.31,-19.1481"/>
<polygon fill="midnightblue" stroke="midnightblue" points="2674.87,-67.88 2684.93,-64.5667 2675,-60.8812 2674.87,-67.88"/>
</g>
<!-- Node18 -->
<g id="node18" class="node"><title>Node18</title>
<g id="a_node18"><a xlink:href="_s_l_importer_8cpp.html" target="_top" xlink:title="SLImporter.cpp">
<polygon fill="white" stroke="black" points="1772.5,-0.5 1772.5,-19.5 1857.5,-19.5 1857.5,-0.5 1772.5,-0.5"/>
<text text-anchor="middle" x="1815" y="-7.5" font-family="Arial.ttf" font-size="10.00">SLImporter.cpp</text>
</a>
</g>
</g>
<!-- Node3&#45;&gt;Node18 -->
<g id="edge18" class="edge"><title>Node3&#45;&gt;Node18</title>
<path fill="none" stroke="midnightblue" d="M2674.77,-64.6412C2557.48,-63.1447 2177.74,-55.6733 1866,-20 1863.23,-19.6831 1860.38,-19.311 1857.52,-18.9017"/>
<polygon fill="midnightblue" stroke="midnightblue" points="2674.93,-68.1434 2684.97,-64.7646 2675.02,-61.1439 2674.93,-68.1434"/>
</g>
<!-- Node19 -->
<g id="node19" class="node"><title>Node19</title>
<g id="a_node19"><a xlink:href="_s_l_interface_8cpp.html" target="_top" xlink:title="SLProject C&#45;functions interface implementation. ">
<polygon fill="white" stroke="black" points="1875.5,-0.5 1875.5,-19.5 1962.5,-19.5 1962.5,-0.5 1875.5,-0.5"/>
<text text-anchor="middle" x="1919" y="-7.5" font-family="Arial.ttf" font-size="10.00">SLInterface.cpp</text>
</a>
</g>
</g>
<!-- Node3&#45;&gt;Node19 -->
<g id="edge19" class="edge"><title>Node3&#45;&gt;Node19</title>
<path fill="none" stroke="midnightblue" d="M2674.72,-64.1702C2567.17,-61.4141 2240.78,-50.9144 1972,-20 1968.94,-19.6481 1965.79,-19.2373 1962.62,-18.7888"/>
<polygon fill="midnightblue" stroke="midnightblue" points="2674.65,-67.6692 2684.73,-64.4202 2674.82,-60.6714 2674.65,-67.6692"/>
</g>
<!-- Node20 -->
<g id="node20" class="node"><title>Node20</title>
<g id="a_node20"><a xlink:href="_s_l_skybox_8cpp.html" target="_top" xlink:title="SLSkybox.cpp">
<polygon fill="white" stroke="black" points="1981,-0.5 1981,-19.5 2061,-19.5 2061,-0.5 1981,-0.5"/>
<text text-anchor="middle" x="2021" y="-7.5" font-family="Arial.ttf" font-size="10.00">SLSkybox.cpp</text>
</a>
</g>
</g>
<!-- Node3&#45;&gt;Node20 -->
<g id="edge20" class="edge"><title>Node3&#45;&gt;Node20</title>
<path fill="none" stroke="midnightblue" d="M2674.7,-63.871C2576.78,-60.5186 2299.09,-48.9883 2070,-20 2067.08,-19.6308 2064.08,-19.201 2061.05,-18.733"/>
<polygon fill="midnightblue" stroke="midnightblue" points="2674.84,-67.3772 2684.95,-64.214 2675.07,-60.3812 2674.84,-67.3772"/>
</g>
<!-- Node21 -->
<g id="node21" class="node"><title>Node21</title>
<g id="a_node21"><a xlink:href="_s_l_tex_font_8cpp.html" target="_top" xlink:title="SLTexFont.cpp">
<polygon fill="white" stroke="black" points="2079,-0.5 2079,-19.5 2163,-19.5 2163,-0.5 2079,-0.5"/>
<text text-anchor="middle" x="2121" y="-7.5" font-family="Arial.ttf" font-size="10.00">SLTexFont.cpp</text>
</a>
</g>
</g>
<!-- Node3&#45;&gt;Node21 -->
<g id="edge21" class="edge"><title>Node3&#45;&gt;Node21</title>
<path fill="none" stroke="midnightblue" d="M2674.68,-63.1168C2587.65,-58.3537 2360.4,-44.4357 2172,-20 2169.15,-19.6299 2166.21,-19.2117 2163.26,-18.7633"/>
<polygon fill="midnightblue" stroke="midnightblue" points="2674.65,-66.6202 2684.83,-63.6651 2675.03,-59.6304 2674.65,-66.6202"/>
</g>
<!-- Node22 -->
<g id="node22" class="node"><title>Node22</title>
<g id="a_node22"><a xlink:href="_s_l_a_a_b_box_8cpp.html" target="_top" xlink:title="SLAABBox.cpp">
<polygon fill="white" stroke="black" points="2181.5,-0.5 2181.5,-19.5 2266.5,-19.5 2266.5,-0.5 2181.5,-0.5"/>
<text text-anchor="middle" x="2224" y="-7.5" font-family="Arial.ttf" font-size="10.00">SLAABBox.cpp</text>
</a>
</g>
</g>
<!-- Node3&#45;&gt;Node22 -->
<g id="edge22" class="edge"><title>Node3&#45;&gt;Node22</title>
<path fill="none" stroke="midnightblue" d="M2674.66,-62.0852C2599.85,-55.8996 2423.31,-40.3435 2276,-20 2272.91,-19.5739 2269.73,-19.1022 2266.53,-18.6045"/>
<polygon fill="midnightblue" stroke="midnightblue" points="2674.69,-65.5993 2684.94,-62.9292 2675.26,-58.6228 2674.69,-65.5993"/>
</g>
<!-- Node23 -->
<g id="node23" class="node"><title>Node23</title>
<g id="a_node23"><a xlink:href="_s_l_animation_8cpp.html" target="_top" xlink:title="SLAnimation.cpp">
<polygon fill="white" stroke="black" points="2285,-0.5 2285,-19.5 2377,-19.5 2377,-0.5 2285,-0.5"/>
<text text-anchor="middle" x="2331" y="-7.5" font-family="Arial.ttf" font-size="10.00">SLAnimation.cpp</text>
</a>
</g>
</g>
<!-- Node3&#45;&gt;Node23 -->
<g id="edge23" class="edge"><title>Node3&#45;&gt;Node23</title>
<path fill="none" stroke="midnightblue" d="M2674.74,-60.275C2614.65,-52.3794 2490.67,-35.8082 2386,-20 2383.13,-19.5665 2380.18,-19.1111 2377.2,-18.6447"/>
<polygon fill="midnightblue" stroke="midnightblue" points="2674.48,-63.7714 2684.85,-61.6013 2675.39,-56.8308 2674.48,-63.7714"/>
</g>
<!-- Node24 -->
<g id="node24" class="node"><title>Node24</title>
<g id="a_node24"><a xlink:href="_s_l_anim_keyframe_8cpp.html" target="_top" xlink:title="SLAnimKeyframe.cpp">
<polygon fill="white" stroke="black" points="2395.5,-0.5 2395.5,-19.5 2508.5,-19.5 2508.5,-0.5 2395.5,-0.5"/>
<text text-anchor="middle" x="2452" y="-7.5" font-family="Arial.ttf" font-size="10.00">SLAnimKeyframe.cpp</text>
</a>
</g>
</g>
<!-- Node3&#45;&gt;Node24 -->
<g id="edge24" class="edge"><title>Node3&#45;&gt;Node24</title>
<path fill="none" stroke="midnightblue" d="M2674.84,-57.4619C2627.12,-47.511 2543.29,-30.0339 2493.18,-19.5851"/>
<polygon fill="midnightblue" stroke="midnightblue" points="2674.24,-60.9102 2684.74,-59.525 2675.67,-54.0576 2674.24,-60.9102"/>
</g>
<!-- Node25 -->
<g id="node25" class="node"><title>Node25</title>
<g id="a_node25"><a xlink:href="_s_l_anim_manager_8cpp.html" target="_top" xlink:title="SLAnimManager.cpp">
<polygon fill="white" stroke="black" points="2527,-0.5 2527,-19.5 2637,-19.5 2637,-0.5 2527,-0.5"/>
<text text-anchor="middle" x="2582" y="-7.5" font-family="Arial.ttf" font-size="10.00">SLAnimManager.cpp</text>
</a>
</g>
</g>
<!-- Node3&#45;&gt;Node25 -->
<g id="edge25" class="edge"><title>Node3&#45;&gt;Node25</title>
<path fill="none" stroke="midnightblue" d="M2681.15,-52.503C2656.96,-42.3795 2623.54,-28.388 2602.34,-19.5164"/>
<polygon fill="midnightblue" stroke="midnightblue" points="2679.98,-55.8106 2690.56,-56.4435 2682.69,-49.3536 2679.98,-55.8106"/>
</g>
<!-- Node26 -->
<g id="node26" class="node"><title>Node26</title>
<g id="a_node26"><a xlink:href="_s_l_anim_playback_8cpp.html" target="_top" xlink:title="SLAnimPlayback.cpp">
<polygon fill="white" stroke="black" points="2655.5,-0.5 2655.5,-19.5 2766.5,-19.5 2766.5,-0.5 2655.5,-0.5"/>
<text text-anchor="middle" x="2711" y="-7.5" font-family="Arial.ttf" font-size="10.00">SLAnimPlayback.cpp</text>
</a>
</g>
</g>
<!-- Node3&#45;&gt;Node26 -->
<g id="edge26" class="edge"><title>Node3&#45;&gt;Node26</title>
<path fill="none" stroke="midnightblue" d="M2711,-45.8045C2711,-36.9102 2711,-26.7798 2711,-19.7511"/>
<polygon fill="midnightblue" stroke="midnightblue" points="2707.5,-46.083 2711,-56.083 2714.5,-46.083 2707.5,-46.083"/>
</g>
<!-- Node27 -->
<g id="node27" class="node"><title>Node27</title>
<g id="a_node27"><a xlink:href="_s_l_anim_track_8cpp.html" target="_top" xlink:title="SLAnimTrack.cpp">
<polygon fill="white" stroke="black" points="2784.5,-0.5 2784.5,-19.5 2879.5,-19.5 2879.5,-0.5 2784.5,-0.5"/>
<text text-anchor="middle" x="2832" y="-7.5" font-family="Arial.ttf" font-size="10.00">SLAnimTrack.cpp</text>
</a>
</g>
</g>
<!-- Node3&#45;&gt;Node27 -->
<g id="edge27" class="edge"><title>Node3&#45;&gt;Node27</title>
<path fill="none" stroke="midnightblue" d="M2739.31,-52.3678C2761.97,-42.2553 2793.13,-28.3486 2812.92,-19.5164"/>
<polygon fill="midnightblue" stroke="midnightblue" points="2737.88,-49.1719 2730.17,-56.4435 2740.73,-55.5643 2737.88,-49.1719"/>
</g>
<!-- Node28 -->
<g id="node28" class="node"><title>Node28</title>
<g id="a_node28"><a xlink:href="_s_l_background_8cpp.html" target="_top" xlink:title="SLBackground.cpp">
<polygon fill="white" stroke="black" points="2897.5,-0.5 2897.5,-19.5 2998.5,-19.5 2998.5,-0.5 2897.5,-0.5"/>
<text text-anchor="middle" x="2948" y="-7.5" font-family="Arial.ttf" font-size="10.00">SLBackground.cpp</text>
</a>
</g>
</g>
<!-- Node3&#45;&gt;Node28 -->
<g id="edge28" class="edge"><title>Node3&#45;&gt;Node28</title>
<path fill="none" stroke="midnightblue" d="M2747.27,-56.7351C2791.41,-46.6794 2865.55,-29.7858 2910.31,-19.5868"/>
<polygon fill="midnightblue" stroke="midnightblue" points="2746.24,-53.3806 2737.27,-59.0147 2747.8,-60.2057 2746.24,-53.3806"/>
</g>
<!-- Node29 -->
<g id="node29" class="node"><title>Node29</title>
<g id="a_node29"><a xlink:href="_s_l_box_8cpp.html" target="_top" xlink:title="SLBox.cpp">
<polygon fill="white" stroke="black" points="3016.5,-0.5 3016.5,-19.5 3081.5,-19.5 3081.5,-0.5 3016.5,-0.5"/>
<text text-anchor="middle" x="3049" y="-7.5" font-family="Arial.ttf" font-size="10.00">SLBox.cpp</text>
</a>
</g>
</g>
<!-- Node3&#45;&gt;Node29 -->
<g id="edge29" class="edge"><title>Node3&#45;&gt;Node29</title>
<path fill="none" stroke="midnightblue" d="M2747.34,-60.1937C2803.29,-52.6322 2913.81,-37.0518 3007,-20 3010.08,-19.4362 3013.28,-18.8152 3016.48,-18.1709"/>
<polygon fill="midnightblue" stroke="midnightblue" points="2746.67,-56.7526 2737.22,-61.554 2747.6,-63.6902 2746.67,-56.7526"/>
</g>
<!-- Node30 -->
<g id="node30" class="node"><title>Node30</title>
<g id="a_node30"><a xlink:href="_s_l_button_8cpp.html" target="_top" xlink:title="SLButton.cpp">
<polygon fill="white" stroke="black" points="3099.5,-0.5 3099.5,-19.5 3176.5,-19.5 3176.5,-0.5 3099.5,-0.5"/>
<text text-anchor="middle" x="3138" y="-7.5" font-family="Arial.ttf" font-size="10.00">SLButton.cpp</text>
</a>
</g>
</g>
<!-- Node3&#45;&gt;Node30 -->
<g id="edge30" class="edge"><title>Node3&#45;&gt;Node30</title>
<path fill="none" stroke="midnightblue" d="M2747.41,-61.4986C2815.08,-54.8095 2964.72,-39.1601 3090,-20 3093.02,-19.5385 3096.14,-19.0289 3099.27,-18.4937"/>
<polygon fill="midnightblue" stroke="midnightblue" points="2746.88,-58.0337 2737.27,-62.4944 2747.57,-65.0002 2746.88,-58.0337"/>
</g>
<!-- Node31 -->
<g id="node31" class="node"><title>Node31</title>
<g id="a_node31"><a xlink:href="_s_l_camera_8cpp.html" target="_top" xlink:title="SLCamera.cpp">
<polygon fill="white" stroke="black" points="3194.5,-0.5 3194.5,-19.5 3277.5,-19.5 3277.5,-0.5 3194.5,-0.5"/>
<text text-anchor="middle" x="3236" y="-7.5" font-family="Arial.ttf" font-size="10.00">SLCamera.cpp</text>
</a>
</g>
</g>
<!-- Node3&#45;&gt;Node31 -->
<g id="edge31" class="edge"><title>Node3&#45;&gt;Node31</title>
<path fill="none" stroke="midnightblue" d="M2747.49,-62.5363C2827.14,-56.9389 3022.47,-42.02 3185,-20 3188.03,-19.5896 3191.15,-19.1294 3194.29,-18.64"/>
<polygon fill="midnightblue" stroke="midnightblue" points="2746.76,-59.078 2737.03,-63.264 2747.25,-66.0611 2746.76,-59.078"/>
</g>
<!-- Node32 -->
<g id="node32" class="node"><title>Node32</title>
<g id="a_node32"><a xlink:href="_s_l_compact_grid_8cpp.html" target="_top" xlink:title="SLCompactGrid.cpp">
<polygon fill="white" stroke="black" points="3295.5,-0.5 3295.5,-19.5 3402.5,-19.5 3402.5,-0.5 3295.5,-0.5"/>
<text text-anchor="middle" x="3349" y="-7.5" font-family="Arial.ttf" font-size="10.00">SLCompactGrid.cpp</text>
</a>
</g>
</g>
<!-- Node3&#45;&gt;Node32 -->
<g id="edge32" class="edge"><title>Node3&#45;&gt;Node32</title>
<path fill="none" stroke="midnightblue" d="M2747.18,-62.9727C2837.99,-57.7101 3082.8,-42.4424 3286,-20 3289.07,-19.6604 3292.23,-19.2874 3295.41,-18.8924"/>
<polygon fill="midnightblue" stroke="midnightblue" points="2746.91,-59.4822 2737.13,-63.5506 2747.32,-66.4707 2746.91,-59.4822"/>
</g>
<!-- Node33 -->
<g id="node33" class="node"><title>Node33</title>
<g id="a_node33"><a xlink:href="_s_l_cone_8cpp.html" target="_top" xlink:title="SLCone.cpp">
<polygon fill="white" stroke="black" points="3421,-0.5 3421,-19.5 3493,-19.5 3493,-0.5 3421,-0.5"/>
<text text-anchor="middle" x="3457" y="-7.5" font-family="Arial.ttf" font-size="10.00">SLCone.cpp</text>
</a>
</g>
</g>
<!-- Node3&#45;&gt;Node33 -->
<g id="edge33" class="edge"><title>Node3&#45;&gt;Node33</title>
<path fill="none" stroke="midnightblue" d="M2747.45,-64.3132C2851.46,-61.9973 3158.47,-52.6828 3411,-20 3414.23,-19.5822 3417.57,-19.0753 3420.91,-18.5172"/>
<polygon fill="midnightblue" stroke="midnightblue" points="2747.1,-60.8197 2737.18,-64.5335 2747.25,-67.8181 2747.1,-60.8197"/>
</g>
<!-- Node34 -->
<g id="node34" class="node"><title>Node34</title>
<g id="a_node34"><a xlink:href="_s_l_coord_axis_8cpp.html" target="_top" xlink:title="SLCoordAxis.cpp">
<polygon fill="white" stroke="black" points="3511,-0.5 3511,-19.5 3605,-19.5 3605,-0.5 3511,-0.5"/>
<text text-anchor="middle" x="3558" y="-7.5" font-family="Arial.ttf" font-size="10.00">SLCoordAxis.cpp</text>
</a>
</g>
</g>
<!-- Node3&#45;&gt;Node34 -->
<g id="edge34" class="edge"><title>Node3&#45;&gt;Node34</title>
<path fill="none" stroke="midnightblue" d="M2747.13,-64.2625C2859.37,-61.6893 3211.89,-51.4812 3502,-20 3504.94,-19.6813 3507.95,-19.3137 3510.99,-18.9131"/>
<polygon fill="midnightblue" stroke="midnightblue" points="2746.95,-60.7656 2737.03,-64.4882 2747.1,-67.7639 2746.95,-60.7656"/>
</g>
<!-- Node35 -->
<g id="node35" class="node"><title>Node35</title>
<g id="a_node35"><a xlink:href="_s_l_cylinder_8cpp.html" target="_top" xlink:title="SLCylinder.cpp">
<polygon fill="white" stroke="black" points="3623,-0.5 3623,-19.5 3707,-19.5 3707,-0.5 3623,-0.5"/>
<text text-anchor="middle" x="3665" y="-7.5" font-family="Arial.ttf" font-size="10.00">SLCylinder.cpp</text>
</a>
</g>
</g>
<!-- Node3&#45;&gt;Node35 -->
<g id="edge35" class="edge"><title>Node3&#45;&gt;Node35</title>
<path fill="none" stroke="midnightblue" d="M2747.66,-64.8122C2870.54,-63.8337 3279.01,-57.7555 3614,-20 3616.86,-19.6778 3619.8,-19.2955 3622.76,-18.8732"/>
<polygon fill="midnightblue" stroke="midnightblue" points="2747.3,-61.3147 2737.32,-64.8876 2747.35,-68.3145 2747.3,-61.3147"/>
</g>
<!-- Node36 -->
<g id="node36" class="node"><title>Node36</title>
<g id="a_node36"><a xlink:href="_s_l_device_location_8cpp.html" target="_top" xlink:title="SLDeviceLocation.cpp">
<polygon fill="white" stroke="black" points="3725,-0.5 3725,-19.5 3841,-19.5 3841,-0.5 3725,-0.5"/>
<text text-anchor="middle" x="3783" y="-7.5" font-family="Arial.ttf" font-size="10.00">SLDeviceLocation.cpp</text>
</a>
</g>
</g>
<!-- Node3&#45;&gt;Node36 -->
<g id="edge36" class="edge"><title>Node3&#45;&gt;Node36</title>
<path fill="none" stroke="midnightblue" d="M2747.32,-64.538C2878.25,-62.625 3338.25,-53.761 3716,-20 3718.92,-19.7388 3721.91,-19.4428 3724.93,-19.1213"/>
<polygon fill="midnightblue" stroke="midnightblue" points="2747.02,-61.0418 2737.07,-64.6832 2747.12,-68.0411 2747.02,-61.0418"/>
</g>
<!-- Node37 -->
<g id="node37" class="node"><title>Node37</title>
<g id="a_node37"><a xlink:href="_s_l_device_rotation_8cpp.html" target="_top" xlink:title="SLDeviceRotation.cpp">
<polygon fill="white" stroke="black" points="3859.5,-0.5 3859.5,-19.5 3974.5,-19.5 3974.5,-0.5 3859.5,-0.5"/>
<text text-anchor="middle" x="3917" y="-7.5" font-family="Arial.ttf" font-size="10.00">SLDeviceRotation.cpp</text>
</a>
</g>
</g>
<!-- Node3&#45;&gt;Node37 -->
<g id="edge37" class="edge"><title>Node3&#45;&gt;Node37</title>
<path fill="none" stroke="midnightblue" d="M2747.41,-64.8058C2889.09,-63.7867 3417.18,-57.5363 3850,-20 3853.04,-19.7364 3856.15,-19.4334 3859.29,-19.1019"/>
<polygon fill="midnightblue" stroke="midnightblue" points="2747.11,-61.3077 2737.13,-64.8752 2747.15,-68.3075 2747.11,-61.3077"/>
</g>
<!-- Node38 -->
<g id="node38" class="node"><title>Node38</title>
<g id="a_node38"><a xlink:href="_s_l_disk_8cpp.html" target="_top" xlink:title="SLDisk.cpp">
<polygon fill="white" stroke="black" points="3992.5,-0.5 3992.5,-19.5 4059.5,-19.5 4059.5,-0.5 3992.5,-0.5"/>
<text text-anchor="middle" x="4026" y="-7.5" font-family="Arial.ttf" font-size="10.00">SLDisk.cpp</text>
</a>
</g>
</g>
<!-- Node3&#45;&gt;Node38 -->
<g id="edge38" class="edge"><title>Node3&#45;&gt;Node38</title>
<path fill="none" stroke="midnightblue" d="M2747.03,-64.5579C2927.48,-62.2168 3734.18,-50.2149 3983,-20 3986.03,-19.6322 3989.16,-19.1597 3992.29,-18.624"/>
<polygon fill="midnightblue" stroke="midnightblue" points="2746.95,-61.0585 2737,-64.6864 2747.04,-68.0579 2746.95,-61.0585"/>
</g>
<!-- Node39 -->
<g id="node39" class="node"><title>Node39</title>
<g id="a_node39"><a xlink:href="_s_l_grid_8cpp.html" target="_top" xlink:title="SLGrid.cpp">
<polygon fill="white" stroke="black" points="4077.5,-0.5 4077.5,-19.5 4144.5,-19.5 4144.5,-0.5 4077.5,-0.5"/>
<text text-anchor="middle" x="4111" y="-7.5" font-family="Arial.ttf" font-size="10.00">SLGrid.cpp</text>
</a>
</g>
</g>
<!-- Node3&#45;&gt;Node39 -->
<g id="edge39" class="edge"><title>Node3&#45;&gt;Node39</title>
<path fill="none" stroke="midnightblue" d="M2747.3,-64.6472C2935.5,-62.6887 3801.55,-52.0573 4068,-20 4071.03,-19.6356 4074.16,-19.1653 4077.29,-18.6312"/>
<polygon fill="midnightblue" stroke="midnightblue" points="2747.08,-61.1492 2737.12,-64.7515 2747.15,-68.1488 2747.08,-61.1492"/>
</g>
<!-- Node40 -->
<g id="node40" class="node"><title>Node40</title>
<g id="a_node40"><a xlink:href="_s_l_input_device_8cpp.html" target="_top" xlink:title="SLInputDevice.cpp">
<polygon fill="white" stroke="black" points="4163,-0.5 4163,-19.5 4263,-19.5 4263,-0.5 4163,-0.5"/>
<text text-anchor="middle" x="4213" y="-7.5" font-family="Arial.ttf" font-size="10.00">SLInputDevice.cpp</text>
</a>
</g>
</g>
<!-- Node3&#45;&gt;Node40 -->
<g id="edge40" class="edge"><title>Node3&#45;&gt;Node40</title>
<path fill="none" stroke="midnightblue" d="M2747.34,-64.4467C2942.5,-61.3871 3867.93,-45.7381 4153,-20 4156.25,-19.7064 4159.6,-19.3519 4162.96,-18.9556"/>
<polygon fill="midnightblue" stroke="midnightblue" points="2747.01,-60.9514 2737.06,-64.6067 2747.12,-67.9505 2747.01,-60.9514"/>
</g>
<!-- Node41 -->
<g id="node41" class="node"><title>Node41</title>
<g id="a_node41"><a xlink:href="_s_l_input_manager_8cpp.html" target="_top" xlink:title="SLInputManager.cpp">
<polygon fill="white" stroke="black" points="4281.5,-0.5 4281.5,-19.5 4390.5,-19.5 4390.5,-0.5 4281.5,-0.5"/>
<text text-anchor="middle" x="4336" y="-7.5" font-family="Arial.ttf" font-size="10.00">SLInputManager.cpp</text>
</a>
</g>
</g>
<!-- Node3&#45;&gt;Node41 -->
<g id="edge41" class="edge"><title>Node3&#45;&gt;Node41</title>
<path fill="none" stroke="midnightblue" d="M2747.37,-64.5003C2952.03,-61.6057 3961.8,-46.2005 4272,-20 4275.02,-19.745 4278.11,-19.4437 4281.23,-19.1087"/>
<polygon fill="midnightblue" stroke="midnightblue" points="2747.12,-61.0034 2737.17,-64.6437 2747.22,-68.0028 2747.12,-61.0034"/>
</g>
<!-- Node42 -->
<g id="node42" class="node"><title>Node42</title>
<g id="a_node42"><a xlink:href="_s_l_joint_8cpp.html" target="_top" xlink:title="SLJoint.cpp">
<polygon fill="white" stroke="black" points="4408.5,-0.5 4408.5,-19.5 4477.5,-19.5 4477.5,-0.5 4408.5,-0.5"/>
<text text-anchor="middle" x="4443" y="-7.5" font-family="Arial.ttf" font-size="10.00">SLJoint.cpp</text>
</a>
</g>
</g>
<!-- Node3&#45;&gt;Node42 -->
<g id="edge42" class="edge"><title>Node3&#45;&gt;Node42</title>
<path fill="none" stroke="midnightblue" d="M2747.27,-64.8978C2961.47,-64.1634 4063,-58.5414 4399,-20 4401.94,-19.6624 4404.98,-19.2266 4408.02,-18.7294"/>
<polygon fill="midnightblue" stroke="midnightblue" points="2747.18,-61.398 2737.19,-64.9309 2747.2,-68.3979 2747.18,-61.398"/>
</g>
<!-- Node43 -->
<g id="node43" class="node"><title>Node43</title>
<g id="a_node43"><a xlink:href="_s_l_keyframe_camera_8cpp.html" target="_top" xlink:title="SLKeyframeCamera.cpp">
<polygon fill="white" stroke="black" points="4496,-0.5 4496,-19.5 4622,-19.5 4622,-0.5 4496,-0.5"/>
<text text-anchor="middle" x="4559" y="-7.5" font-family="Arial.ttf" font-size="10.00">SLKeyframeCamera.cpp</text>
</a>
</g>
</g>
<!-- Node3&#45;&gt;Node43 -->
<g id="edge43" class="edge"><title>Node3&#45;&gt;Node43</title>
<path fill="none" stroke="midnightblue" d="M2747.35,-64.5615C2968.02,-61.8268 4130.42,-46.3639 4486,-20 4489.18,-19.764 4492.44,-19.4882 4495.73,-19.1827"/>
<polygon fill="midnightblue" stroke="midnightblue" points="2747.23,-61.0627 2737.27,-64.6857 2747.32,-68.0621 2747.23,-61.0627"/>
</g>
<!-- Node44 -->
<g id="node44" class="node"><title>Node44</title>
<g id="a_node44"><a xlink:href="_s_l_lens_8cpp.html" target="_top" xlink:title="SLLens.cpp">
<polygon fill="white" stroke="black" points="4640.5,-0.5 4640.5,-19.5 4709.5,-19.5 4709.5,-0.5 4640.5,-0.5"/>
<text text-anchor="middle" x="4675" y="-7.5" font-family="Arial.ttf" font-size="10.00">SLLens.cpp</text>
</a>
</g>
</g>
<!-- Node3&#45;&gt;Node44 -->
<g id="edge44" class="edge"><title>Node3&#45;&gt;Node44</title>
<path fill="none" stroke="midnightblue" d="M2747.39,-65.0332C2978.66,-65.1107 4246.16,-63.5163 4631,-20 4633.94,-19.6671 4636.98,-19.2347 4640.03,-18.7397"/>
<polygon fill="midnightblue" stroke="midnightblue" points="2747.17,-61.5332 2737.17,-65.0284 2747.17,-68.5332 2747.17,-61.5332"/>
</g>
<!-- Node45 -->
<g id="node45" class="node"><title>Node45</title>
<g id="a_node45"><a xlink:href="_s_l_light_8cpp.html" target="_top" xlink:title="SLLight.cpp">
<polygon fill="white" stroke="black" points="4727.5,-0.5 4727.5,-19.5 4796.5,-19.5 4796.5,-0.5 4727.5,-0.5"/>
<text text-anchor="middle" x="4762" y="-7.5" font-family="Arial.ttf" font-size="10.00">SLLight.cpp</text>
</a>
</g>
</g>
<!-- Node3&#45;&gt;Node45 -->
<g id="edge45" class="edge"><title>Node3&#45;&gt;Node45</title>
<path fill="none" stroke="midnightblue" d="M2747.16,-65.0757C2983.84,-65.4381 4314.65,-65.4013 4718,-20 4720.94,-19.6686 4723.98,-19.2373 4727.03,-18.743"/>
<polygon fill="midnightblue" stroke="midnightblue" points="2747.04,-61.5756 2737.03,-65.0589 2747.03,-68.5756 2747.04,-61.5756"/>
</g>
<!-- Node46 -->
<g id="node46" class="node"><title>Node46</title>
<g id="a_node46"><a xlink:href="_s_l_light_direct_8cpp.html" target="_top" xlink:title="SLLightDirect.cpp">
<polygon fill="white" stroke="black" points="4814.5,-0.5 4814.5,-19.5 4909.5,-19.5 4909.5,-0.5 4814.5,-0.5"/>
<text text-anchor="middle" x="4862" y="-7.5" font-family="Arial.ttf" font-size="10.00">SLLightDirect.cpp</text>
</a>
</g>
</g>
<!-- Node3&#45;&gt;Node46 -->
<g id="edge46" class="edge"><title>Node3&#45;&gt;Node46</title>
<path fill="none" stroke="midnightblue" d="M2747.18,-64.8921C2989.71,-64.0685 4382.32,-57.737 4805,-20 4808.09,-19.7238 4811.27,-19.3826 4814.47,-18.996"/>
<polygon fill="midnightblue" stroke="midnightblue" points="2747.12,-61.3922 2737.13,-64.9253 2747.14,-68.3922 2747.12,-61.3922"/>
</g>
<!-- Node47 -->
<g id="node47" class="node"><title>Node47</title>
<g id="a_node47"><a xlink:href="_s_l_light_rect_8cpp.html" target="_top" xlink:title="SLLightRect.cpp">
<polygon fill="white" stroke="black" points="4928,-0.5 4928,-19.5 5018,-19.5 5018,-0.5 4928,-0.5"/>
<text text-anchor="middle" x="4973" y="-7.5" font-family="Arial.ttf" font-size="10.00">SLLightRect.cpp</text>
</a>
</g>
</g>
<!-- Node3&#45;&gt;Node47 -->
<g id="edge47" class="edge"><title>Node3&#45;&gt;Node47</title>
<path fill="none" stroke="midnightblue" d="M2747.16,-64.9659C2997.11,-64.6243 4471.45,-60.8804 4918,-20 4921.18,-19.7089 4924.45,-19.3433 4927.74,-18.9273"/>
<polygon fill="midnightblue" stroke="midnightblue" points="2747.15,-61.4658 2737.15,-64.9786 2747.16,-68.4658 2747.15,-61.4658"/>
</g>
<!-- Node48 -->
<g id="node48" class="node"><title>Node48</title>
<g id="a_node48"><a xlink:href="_s_l_light_spot_8cpp.html" target="_top" xlink:title="SLLightSpot.cpp">
<polygon fill="white" stroke="black" points="5036,-0.5 5036,-19.5 5126,-19.5 5126,-0.5 5036,-0.5"/>
<text text-anchor="middle" x="5081" y="-7.5" font-family="Arial.ttf" font-size="10.00">SLLightSpot.cpp</text>
</a>
</g>
</g>
<!-- Node3&#45;&gt;Node48 -->
<g id="edge48" class="edge"><title>Node3&#45;&gt;Node48</title>
<path fill="none" stroke="midnightblue" d="M2747.31,-65.0206C3004.73,-65.058 4557.46,-63.4563 5027,-20 5029.93,-19.7285 5032.95,-19.3907 5035.98,-19.0068"/>
<polygon fill="midnightblue" stroke="midnightblue" points="2747.02,-61.5206 2737.02,-65.0181 2747.02,-68.5206 2747.02,-61.5206"/>
</g>
<!-- Node49 -->
<g id="node49" class="node"><title>Node49</title>
<g id="a_node49"><a xlink:href="_s_l_material_8cpp.html" target="_top" xlink:title="SLMaterial.cpp">
<polygon fill="white" stroke="black" points="5144.5,-0.5 5144.5,-19.5 5227.5,-19.5 5227.5,-0.5 5144.5,-0.5"/>
<text text-anchor="middle" x="5186" y="-7.5" font-family="Arial.ttf" font-size="10.00">SLMaterial.cpp</text>
</a>
</g>
</g>
<!-- Node3&#45;&gt;Node49 -->
<g id="edge49" class="edge"><title>Node3&#45;&gt;Node49</title>
<path fill="none" stroke="midnightblue" d="M2747.35,-65.1044C3011.72,-65.7474 4642.76,-67.7076 5135,-20 5138.04,-19.7051 5141.18,-19.3298 5144.32,-18.9006"/>
<polygon fill="midnightblue" stroke="midnightblue" points="2747.16,-61.604 2737.15,-65.0786 2747.14,-68.604 2747.16,-61.604"/>
</g>
<!-- Node50 -->
<g id="node50" class="node"><title>Node50</title>
<g id="a_node50"><a xlink:href="_s_l_mesh_8cpp.html" target="_top" xlink:title="SLMesh.cpp">
<polygon fill="white" stroke="black" points="5246,-0.5 5246,-19.5 5318,-19.5 5318,-0.5 5246,-0.5"/>
<text text-anchor="middle" x="5282" y="-7.5" font-family="Arial.ttf" font-size="10.00">SLMesh.cpp</text>
</a>
</g>
</g>
<!-- Node3&#45;&gt;Node50 -->
<g id="edge50" class="edge"><title>Node3&#45;&gt;Node50</title>
<path fill="none" stroke="midnightblue" d="M2747.47,-64.7374C3038.37,-62.5915 4977.99,-47.3255 5236,-20 5239.24,-19.6572 5242.59,-19.2018 5245.93,-18.6773"/>
<polygon fill="midnightblue" stroke="midnightblue" points="2747.05,-61.2403 2737.07,-64.8136 2747.1,-68.2401 2747.05,-61.2403"/>
</g>
</g>
</svg>
