<?xml version="1.0" encoding="UTF-8" standalone="no"?>
<!DOCTYPE svg PUBLIC "-//W3C//DTD SVG 1.1//EN"
 "http://www.w3.org/Graphics/SVG/1.1/DTD/svg11.dtd">
<!-- Generated by graphviz version 2.40.1 (20161225.0304)
 -->
<!-- Title: SLVec3.h Pages: 1 -->
<svg width="168pt" height="247pt"
 viewBox="0.00 0.00 168.18 247.00" xmlns="http://www.w3.org/2000/svg" xmlns:xlink="http://www.w3.org/1999/xlink">
<g id="graph0" class="graph" transform="scale(1 1) rotate(0) translate(4 243)">
<title>SLVec3.h</title>
<polygon fill="#ffffff" stroke="transparent" points="-4,4 -4,-243 164.1772,-243 164.1772,4 -4,4"/>
<!-- Node1 -->
<g id="node1" class="node">
<title>Node1</title>
<g id="a_node1"><a xlink:title=" ">
<polygon fill="#bfbfbf" stroke="#000000" points="42.1865,-220.5 42.1865,-238.5 100.2666,-238.5 100.2666,-220.5 42.1865,-220.5"/>
<text text-anchor="middle" x="71.2266" y="-226.5" font-family="Arial.ttf" font-size="10.00" fill="#000000">SLVec3.h</text>
</a>
</g>
</g>
<!-- Node2 -->
<g id="node2" class="node">
<title>Node2</title>
<g id="a_node2"><a xlink:href="_s_l_8h.html" target="_top" xlink:title=" ">
<polygon fill="#ffffff" stroke="#000000" points="61.9409,-110.5 61.9409,-128.5 98.5122,-128.5 98.5122,-110.5 61.9409,-110.5"/>
<text text-anchor="middle" x="80.2266" y="-116.5" font-family="Arial.ttf" font-size="10.00" fill="#000000">SL.h</text>
</a>
</g>
</g>
<!-- Node1&#45;&gt;Node2 -->
<g id="edge1" class="edge">
<title>Node1&#45;&gt;Node2</title>
<path fill="none" stroke="#191970" d="M71.9631,-220.4982C73.42,-202.6913 76.6984,-162.6225 78.6596,-138.6515"/>
<polygon fill="#191970" stroke="#191970" points="82.1527,-138.8783 79.4799,-128.6261 75.176,-138.3074 82.1527,-138.8783"/>
</g>
<!-- Node3 -->
<g id="node3" class="node">
<title>Node3</title>
<g id="a_node3"><a xlink:href="_utils_8h.html" target="_top" xlink:title=" ">
<polygon fill="#ffffff" stroke="#000000" points="58.335,-55.5 58.335,-73.5 102.1182,-73.5 102.1182,-55.5 58.335,-55.5"/>
<text text-anchor="middle" x="80.2266" y="-61.5" font-family="Arial.ttf" font-size="10.00" fill="#000000">Utils.h</text>
</a>
</g>
</g>
<!-- Node1&#45;&gt;Node3 -->
<g id="edge9" class="edge">
<title>Node1&#45;&gt;Node3</title>
<path fill="none" stroke="#191970" d="M67.3039,-220.3535C59.1839,-200.1392 42.1796,-150.2633 53.2266,-110 55.9812,-99.96 61.5894,-89.8911 66.9842,-81.7871"/>
<polygon fill="#191970" stroke="#191970" points="69.8785,-83.7566 72.8211,-73.5786 64.1737,-79.7 69.8785,-83.7566"/>
</g>
<!-- Node7 -->
<g id="node7" class="node">
<title>Node7</title>
<g id="a_node7"><a xlink:href="_s_l_vec2_8h.html" target="_top" xlink:title=" ">
<polygon fill="#ffffff" stroke="#000000" points="99.1865,-165.5 99.1865,-183.5 157.2666,-183.5 157.2666,-165.5 99.1865,-165.5"/>
<text text-anchor="middle" x="128.2266" y="-171.5" font-family="Arial.ttf" font-size="10.00" fill="#000000">SLVec2.h</text>
</a>
</g>
</g>
<!-- Node1&#45;&gt;Node7 -->
<g id="edge6" class="edge">
<title>Node1&#45;&gt;Node7</title>
<path fill="none" stroke="#191970" d="M80.639,-220.4179C88.9225,-212.425 101.1875,-200.5903 111.1911,-190.9377"/>
<polygon fill="#191970" stroke="#191970" points="113.8438,-193.2419 118.6097,-183.7795 108.9832,-188.2045 113.8438,-193.2419"/>
</g>
<!-- Node2&#45;&gt;Node3 -->
<g id="edge2" class="edge">
<title>Node2&#45;&gt;Node3</title>
<path fill="none" stroke="#191970" d="M80.2266,-110.4179C80.2266,-103.2164 80.2266,-92.8962 80.2266,-83.8632"/>
<polygon fill="#191970" stroke="#191970" points="83.7267,-83.7794 80.2266,-73.7795 76.7267,-83.7795 83.7267,-83.7794"/>
</g>
<!-- Node4 -->
<g id="node4" class="node">
<title>Node4</title>
<g id="a_node4"><a xlink:title=" ">
<polygon fill="#ffffff" stroke="#bfbfbf" points="0,-.5 0,-18.5 40.4531,-18.5 40.4531,-.5 0,-.5"/>
<text text-anchor="middle" x="20.2266" y="-6.5" font-family="Arial.ttf" font-size="10.00" fill="#000000">string</text>
</a>
</g>
</g>
<!-- Node3&#45;&gt;Node4 -->
<g id="edge3" class="edge">
<title>Node3&#45;&gt;Node4</title>
<path fill="none" stroke="#191970" d="M70.3188,-55.4179C61.5129,-47.3458 48.4327,-35.3556 37.8466,-25.6517"/>
<polygon fill="#191970" stroke="#191970" points="40.0862,-22.9567 30.3496,-18.7795 35.3561,-28.1168 40.0862,-22.9567"/>
</g>
<!-- Node5 -->
<g id="node5" class="node">
<title>Node5</title>
<g id="a_node5"><a xlink:title=" ">
<polygon fill="#ffffff" stroke="#bfbfbf" points="58.6108,-.5 58.6108,-18.5 101.8423,-18.5 101.8423,-.5 58.6108,-.5"/>
<text text-anchor="middle" x="80.2266" y="-6.5" font-family="Arial.ttf" font-size="10.00" fill="#000000">vector</text>
</a>
</g>
</g>
<!-- Node3&#45;&gt;Node5 -->
<g id="edge4" class="edge">
<title>Node3&#45;&gt;Node5</title>
<path fill="none" stroke="#191970" d="M80.2266,-55.4179C80.2266,-48.2164 80.2266,-37.8962 80.2266,-28.8632"/>
<polygon fill="#191970" stroke="#191970" points="83.7267,-28.7794 80.2266,-18.7795 76.7267,-28.7795 83.7267,-28.7794"/>
</g>
<!-- Node6 -->
<g id="node6" class="node">
<title>Node6</title>
<g id="a_node6"><a xlink:title=" ">
<polygon fill="#ffffff" stroke="#bfbfbf" points="120.2759,-.5 120.2759,-18.5 160.1772,-18.5 160.1772,-.5 120.2759,-.5"/>
<text text-anchor="middle" x="140.2266" y="-6.5" font-family="Arial.ttf" font-size="10.00" fill="#000000">cfloat</text>
</a>
</g>
</g>
<!-- Node3&#45;&gt;Node6 -->
<g id="edge5" class="edge">
<title>Node3&#45;&gt;Node6</title>
<path fill="none" stroke="#191970" d="M90.1343,-55.4179C98.9402,-47.3458 112.0204,-35.3556 122.6065,-25.6517"/>
<polygon fill="#191970" stroke="#191970" points="125.097,-28.1168 130.1035,-18.7795 120.3669,-22.9567 125.097,-28.1168"/>
</g>
<!-- Node7&#45;&gt;Node2 -->
<g id="edge7" class="edge">
<title>Node7&#45;&gt;Node2</title>
<path fill="none" stroke="#191970" d="M120.3003,-165.4179C113.4629,-157.5833 103.404,-146.0575 95.0749,-136.5137"/>
<polygon fill="#191970" stroke="#191970" points="97.5374,-134.0123 88.325,-128.7795 92.2634,-138.6151 97.5374,-134.0123"/>
</g>
<!-- Node7&#45;&gt;Node3 -->
<g id="edge8" class="edge">
<title>Node7&#45;&gt;Node3</title>
<path fill="none" stroke="#191970" d="M125.8605,-165.0719C122.4955,-152.2872 115.7755,-128.8814 107.2266,-110 102.9241,-100.4975 97.1256,-90.472 92.0051,-82.2574"/>
<polygon fill="#191970" stroke="#191970" points="94.7847,-80.1086 86.4357,-73.586 88.8949,-83.8915 94.7847,-80.1086"/>
</g>
</g>
</svg>
