<?xml version="1.0" encoding="UTF-8" standalone="no"?>
<!DOCTYPE svg PUBLIC "-//W3C//DTD SVG 1.1//EN"
 "http://www.w3.org/Graphics/SVG/1.1/DTD/svg11.dtd">
<!-- Generated by graphviz version 2.44.0 (20200408.0750)
 -->
<!-- Title: SLText.h Pages: 1 -->
<svg width="1905pt" height="924pt"
 viewBox="0.00 0.00 1904.99 924.00" xmlns="http://www.w3.org/2000/svg" xmlns:xlink="http://www.w3.org/1999/xlink">
<g id="graph0" class="graph" transform="scale(1 1) rotate(0) translate(4 920)">
<title>SLText.h</title>
<polygon fill="white" stroke="transparent" points="-4,4 -4,-920 1900.99,-920 1900.99,4 -4,4"/>
<!-- Node1 -->
<g id="node1" class="node">
<title>Node1</title>
<g id="a_node1"><a xlink:title=" ">
<polygon fill="#bfbfbf" stroke="black" points="1084.99,-896.5 1084.99,-915.5 1140.99,-915.5 1140.99,-896.5 1084.99,-896.5"/>
<text text-anchor="middle" x="1112.99" y="-903.5" font-family="Arial.ttf" font-size="10.00">SLText.h</text>
</a>
</g>
</g>
<!-- Node2 -->
<g id="node2" class="node">
<title>Node2</title>
<g id="a_node2"><a xlink:href="_s_l_g_l_vertex_array_8h.html" target="_top" xlink:title=" ">
<polygon fill="white" stroke="black" points="1468.49,-616.5 1468.49,-635.5 1567.49,-635.5 1567.49,-616.5 1468.49,-616.5"/>
<text text-anchor="middle" x="1517.99" y="-623.5" font-family="Arial.ttf" font-size="10.00">SLGLVertexArray.h</text>
</a>
</g>
</g>
<!-- Node1&#45;&gt;Node2 -->
<g id="edge1" class="edge">
<title>Node1&#45;&gt;Node2</title>
<path fill="none" stroke="midnightblue" d="M1141.27,-903.89C1237.16,-899.37 1543.99,-878.4 1543.99,-795 1543.99,-795 1543.99,-795 1543.99,-737 1543.99,-703.93 1532.72,-666.73 1525.02,-645.17"/>
<polygon fill="midnightblue" stroke="midnightblue" points="1528.26,-643.83 1521.5,-635.68 1521.7,-646.27 1528.26,-643.83"/>
</g>
<!-- Node25 -->
<g id="node25" class="node">
<title>Node25</title>
<g id="a_node25"><a xlink:href="_s_l_node_8h.html" target="_top" xlink:title=" ">
<polygon fill="white" stroke="black" points="1082.99,-840.5 1082.99,-859.5 1142.99,-859.5 1142.99,-840.5 1082.99,-840.5"/>
<text text-anchor="middle" x="1112.99" y="-847.5" font-family="Arial.ttf" font-size="10.00">SLNode.h</text>
</a>
</g>
</g>
<!-- Node1&#45;&gt;Node25 -->
<g id="edge47" class="edge">
<title>Node1&#45;&gt;Node25</title>
<path fill="none" stroke="midnightblue" d="M1112.99,-896.08C1112.99,-889.01 1112.99,-878.86 1112.99,-869.99"/>
<polygon fill="midnightblue" stroke="midnightblue" points="1116.49,-869.75 1112.99,-859.75 1109.49,-869.75 1116.49,-869.75"/>
</g>
<!-- Node36 -->
<g id="node36" class="node">
<title>Node36</title>
<g id="a_node36"><a xlink:href="_s_l_tex_font_8h.html" target="_top" xlink:title=" ">
<polygon fill="white" stroke="black" points="946.99,-840.5 946.99,-859.5 1018.99,-859.5 1018.99,-840.5 946.99,-840.5"/>
<text text-anchor="middle" x="982.99" y="-847.5" font-family="Arial.ttf" font-size="10.00">SLTexFont.h</text>
</a>
</g>
</g>
<!-- Node1&#45;&gt;Node36 -->
<g id="edge70" class="edge">
<title>Node1&#45;&gt;Node36</title>
<path fill="none" stroke="midnightblue" d="M1092.39,-896.44C1071,-887.56 1037.31,-873.56 1012.97,-863.45"/>
<polygon fill="midnightblue" stroke="midnightblue" points="1014.07,-860.12 1003.49,-859.52 1011.39,-866.58 1014.07,-860.12"/>
</g>
<!-- Node3 -->
<g id="node3" class="node">
<title>Node3</title>
<g id="a_node3"><a xlink:href="_s_l_g_l_enums_8h.html" target="_top" xlink:title=" ">
<polygon fill="white" stroke="black" points="1513.99,-504.5 1513.99,-523.5 1593.99,-523.5 1593.99,-504.5 1513.99,-504.5"/>
<text text-anchor="middle" x="1553.99" y="-511.5" font-family="Arial.ttf" font-size="10.00">SLGLEnums.h</text>
</a>
</g>
</g>
<!-- Node2&#45;&gt;Node3 -->
<g id="edge2" class="edge">
<title>Node2&#45;&gt;Node3</title>
<path fill="none" stroke="midnightblue" d="M1520.82,-616.37C1526.65,-598.54 1540.15,-557.3 1548.01,-533.27"/>
<polygon fill="midnightblue" stroke="midnightblue" points="1551.4,-534.18 1551.18,-523.59 1544.74,-532.01 1551.4,-534.18"/>
</g>
<!-- Node24 -->
<g id="node24" class="node">
<title>Node24</title>
<g id="a_node24"><a xlink:href="_s_l_g_l_vertex_buffer_8h.html" target="_top" xlink:title=" ">
<polygon fill="white" stroke="black" points="1649.49,-560.5 1649.49,-579.5 1752.49,-579.5 1752.49,-560.5 1649.49,-560.5"/>
<text text-anchor="middle" x="1700.99" y="-567.5" font-family="Arial.ttf" font-size="10.00">SLGLVertexBuffer.h</text>
</a>
</g>
</g>
<!-- Node2&#45;&gt;Node24 -->
<g id="edge42" class="edge">
<title>Node2&#45;&gt;Node24</title>
<path fill="none" stroke="midnightblue" d="M1546.99,-616.44C1578.18,-607.24 1627.92,-592.56 1662.4,-582.39"/>
<polygon fill="midnightblue" stroke="midnightblue" points="1663.53,-585.7 1672.13,-579.52 1661.55,-578.99 1663.53,-585.7"/>
</g>
<!-- Node4 -->
<g id="node4" class="node">
<title>Node4</title>
<g id="a_node4"><a xlink:href="_s_l_8h.html" target="_top" xlink:title=" ">
<polygon fill="white" stroke="black" points="1514.49,-168.5 1514.49,-187.5 1551.49,-187.5 1551.49,-168.5 1514.49,-168.5"/>
<text text-anchor="middle" x="1532.99" y="-175.5" font-family="Arial.ttf" font-size="10.00">SL.h</text>
</a>
</g>
</g>
<!-- Node3&#45;&gt;Node4 -->
<g id="edge3" class="edge">
<title>Node3&#45;&gt;Node4</title>
<path fill="none" stroke="midnightblue" d="M1513.71,-507.08C1401.87,-489.74 1091.87,-435.24 1032.99,-356 968.1,-268.66 1378.28,-225.25 1504.64,-188.53"/>
<polygon fill="midnightblue" stroke="midnightblue" points="1505.75,-191.85 1514.27,-185.56 1503.68,-185.16 1505.75,-191.85"/>
</g>
<!-- Node13 -->
<g id="node13" class="node">
<title>Node13</title>
<g id="a_node13"><a xlink:href="_s_l_g_l_state_8h.html" target="_top" xlink:title=" ">
<polygon fill="white" stroke="black" points="1550.49,-448.5 1550.49,-467.5 1623.49,-467.5 1623.49,-448.5 1550.49,-448.5"/>
<text text-anchor="middle" x="1586.99" y="-455.5" font-family="Arial.ttf" font-size="10.00">SLGLState.h</text>
</a>
</g>
</g>
<!-- Node3&#45;&gt;Node13 -->
<g id="edge15" class="edge">
<title>Node3&#45;&gt;Node13</title>
<path fill="none" stroke="midnightblue" d="M1559.44,-504.08C1564.01,-496.61 1570.66,-485.72 1576.29,-476.52"/>
<polygon fill="midnightblue" stroke="midnightblue" points="1579.42,-478.11 1581.64,-467.75 1573.44,-474.46 1579.42,-478.11"/>
</g>
<!-- Node5 -->
<g id="node5" class="node">
<title>Node5</title>
<g id="a_node5"><a xlink:href="_utils_8h.html" target="_top" xlink:title=" ">
<polygon fill="white" stroke="black" points="1586.49,-112.5 1586.49,-131.5 1631.49,-131.5 1631.49,-112.5 1586.49,-112.5"/>
<text text-anchor="middle" x="1608.99" y="-119.5" font-family="Arial.ttf" font-size="10.00">Utils.h</text>
</a>
</g>
</g>
<!-- Node4&#45;&gt;Node5 -->
<g id="edge4" class="edge">
<title>Node4&#45;&gt;Node5</title>
<path fill="none" stroke="midnightblue" d="M1545.2,-168.32C1556.77,-160.11 1574.37,-147.6 1588.15,-137.81"/>
<polygon fill="midnightblue" stroke="midnightblue" points="1590.43,-140.48 1596.56,-131.83 1586.38,-134.77 1590.43,-140.48"/>
</g>
<!-- Node6 -->
<g id="node6" class="node">
<title>Node6</title>
<g id="a_node6"><a xlink:title=" ">
<polygon fill="white" stroke="#bfbfbf" points="1522.49,-0.5 1522.49,-19.5 1563.49,-19.5 1563.49,-0.5 1522.49,-0.5"/>
<text text-anchor="middle" x="1542.99" y="-7.5" font-family="Arial.ttf" font-size="10.00">string</text>
</a>
</g>
</g>
<!-- Node5&#45;&gt;Node6 -->
<g id="edge5" class="edge">
<title>Node5&#45;&gt;Node6</title>
<path fill="none" stroke="midnightblue" d="M1597.17,-112.26C1586.77,-103.99 1571.95,-90.69 1562.99,-76 1554.25,-61.67 1549.05,-43.2 1546.16,-29.62"/>
<polygon fill="midnightblue" stroke="midnightblue" points="1549.55,-28.72 1544.24,-19.55 1542.67,-30.03 1549.55,-28.72"/>
</g>
<!-- Node7 -->
<g id="node7" class="node">
<title>Node7</title>
<g id="a_node7"><a xlink:title=" ">
<polygon fill="white" stroke="#bfbfbf" points="742.99,-56.5 742.99,-75.5 786.99,-75.5 786.99,-56.5 742.99,-56.5"/>
<text text-anchor="middle" x="764.99" y="-63.5" font-family="Arial.ttf" font-size="10.00">vector</text>
</a>
</g>
</g>
<!-- Node5&#45;&gt;Node7 -->
<g id="edge6" class="edge">
<title>Node5&#45;&gt;Node7</title>
<path fill="none" stroke="midnightblue" d="M1586.42,-119.56C1469.77,-112.09 935.5,-77.91 797.56,-69.08"/>
<polygon fill="midnightblue" stroke="midnightblue" points="797.45,-65.57 787.24,-68.42 797,-72.56 797.45,-65.57"/>
</g>
<!-- Node8 -->
<g id="node8" class="node">
<title>Node8</title>
<g id="a_node8"><a xlink:title=" ">
<polygon fill="white" stroke="#bfbfbf" points="1664.49,-56.5 1664.49,-75.5 1705.49,-75.5 1705.49,-56.5 1664.49,-56.5"/>
<text text-anchor="middle" x="1684.99" y="-63.5" font-family="Arial.ttf" font-size="10.00">cfloat</text>
</a>
</g>
</g>
<!-- Node5&#45;&gt;Node8 -->
<g id="edge7" class="edge">
<title>Node5&#45;&gt;Node8</title>
<path fill="none" stroke="midnightblue" d="M1621.2,-112.32C1632.77,-104.11 1650.37,-91.6 1664.15,-81.81"/>
<polygon fill="midnightblue" stroke="midnightblue" points="1666.43,-84.48 1672.56,-75.83 1662.38,-78.77 1666.43,-84.48"/>
</g>
<!-- Node9 -->
<g id="node9" class="node">
<title>Node9</title>
<g id="a_node9"><a xlink:title=" ">
<polygon fill="white" stroke="#bfbfbf" points="1644.99,-0.5 1644.99,-19.5 1696.99,-19.5 1696.99,-0.5 1644.99,-0.5"/>
<text text-anchor="middle" x="1670.99" y="-7.5" font-family="Arial.ttf" font-size="10.00">memory</text>
</a>
</g>
</g>
<!-- Node5&#45;&gt;Node9 -->
<g id="edge8" class="edge">
<title>Node5&#45;&gt;Node9</title>
<path fill="none" stroke="midnightblue" d="M1631.84,-118.56C1657.07,-114.51 1696.57,-103.84 1714.99,-76 1726.46,-58.68 1708.67,-38.94 1692.4,-25.8"/>
<polygon fill="midnightblue" stroke="midnightblue" points="1694.28,-22.83 1684.19,-19.58 1690.05,-28.41 1694.28,-22.83"/>
</g>
<!-- Node10 -->
<g id="node10" class="node">
<title>Node10</title>
<g id="a_node10"><a xlink:href="_file_log_8h.html" target="_top" xlink:title=" ">
<polygon fill="white" stroke="black" points="1458.99,-56.5 1458.99,-75.5 1514.99,-75.5 1514.99,-56.5 1458.99,-56.5"/>
<text text-anchor="middle" x="1486.99" y="-63.5" font-family="Arial.ttf" font-size="10.00">FileLog.h</text>
</a>
</g>
</g>
<!-- Node5&#45;&gt;Node10 -->
<g id="edge9" class="edge">
<title>Node5&#45;&gt;Node10</title>
<path fill="none" stroke="midnightblue" d="M1589.66,-112.44C1569.67,-103.6 1538.25,-89.69 1515.43,-79.59"/>
<polygon fill="midnightblue" stroke="midnightblue" points="1516.79,-76.36 1506.23,-75.52 1513.96,-82.76 1516.79,-76.36"/>
</g>
<!-- Node12 -->
<g id="node12" class="node">
<title>Node12</title>
<g id="a_node12"><a xlink:href="_custom_log_8h.html" target="_top" xlink:title=" ">
<polygon fill="white" stroke="black" points="1571.49,-56.5 1571.49,-75.5 1646.49,-75.5 1646.49,-56.5 1571.49,-56.5"/>
<text text-anchor="middle" x="1608.99" y="-63.5" font-family="Arial.ttf" font-size="10.00">CustomLog.h</text>
</a>
</g>
</g>
<!-- Node5&#45;&gt;Node12 -->
<g id="edge12" class="edge">
<title>Node5&#45;&gt;Node12</title>
<path fill="none" stroke="midnightblue" d="M1608.99,-112.08C1608.99,-105.01 1608.99,-94.86 1608.99,-85.99"/>
<polygon fill="midnightblue" stroke="midnightblue" points="1612.49,-85.75 1608.99,-75.75 1605.49,-85.75 1612.49,-85.75"/>
</g>
<!-- Node10&#45;&gt;Node6 -->
<g id="edge10" class="edge">
<title>Node10&#45;&gt;Node6</title>
<path fill="none" stroke="midnightblue" d="M1495.99,-56.32C1504.19,-48.42 1516.5,-36.55 1526.46,-26.94"/>
<polygon fill="midnightblue" stroke="midnightblue" points="1529.06,-29.29 1533.83,-19.83 1524.2,-24.26 1529.06,-29.29"/>
</g>
<!-- Node11 -->
<g id="node11" class="node">
<title>Node11</title>
<g id="a_node11"><a xlink:title=" ">
<polygon fill="white" stroke="#bfbfbf" points="1453.99,-0.5 1453.99,-19.5 1503.99,-19.5 1503.99,-0.5 1453.99,-0.5"/>
<text text-anchor="middle" x="1478.99" y="-7.5" font-family="Arial.ttf" font-size="10.00">fstream</text>
</a>
</g>
</g>
<!-- Node10&#45;&gt;Node11 -->
<g id="edge11" class="edge">
<title>Node10&#45;&gt;Node11</title>
<path fill="none" stroke="midnightblue" d="M1485.67,-56.08C1484.61,-48.93 1483.09,-38.64 1481.76,-29.69"/>
<polygon fill="midnightblue" stroke="midnightblue" points="1485.22,-29.13 1480.29,-19.75 1478.29,-30.16 1485.22,-29.13"/>
</g>
<!-- Node12&#45;&gt;Node6 -->
<g id="edge14" class="edge">
<title>Node12&#45;&gt;Node6</title>
<path fill="none" stroke="midnightblue" d="M1598.39,-56.32C1588.54,-48.26 1573.64,-36.08 1561.78,-26.37"/>
<polygon fill="midnightblue" stroke="midnightblue" points="1563.75,-23.46 1553.79,-19.83 1559.31,-28.88 1563.75,-23.46"/>
</g>
<!-- Node12&#45;&gt;Node9 -->
<g id="edge13" class="edge">
<title>Node12&#45;&gt;Node9</title>
<path fill="none" stroke="midnightblue" d="M1618.95,-56.32C1628.12,-48.34 1641.93,-36.31 1653.02,-26.65"/>
<polygon fill="midnightblue" stroke="midnightblue" points="1655.61,-29.04 1660.85,-19.83 1651.01,-23.76 1655.61,-29.04"/>
</g>
<!-- Node13&#45;&gt;Node4 -->
<g id="edge16" class="edge">
<title>Node13&#45;&gt;Node4</title>
<path fill="none" stroke="midnightblue" d="M1585.84,-448.46C1583.13,-428.64 1575.96,-377.99 1567.99,-336 1558.48,-285.86 1544.71,-227.3 1537.61,-197.89"/>
<polygon fill="midnightblue" stroke="midnightblue" points="1540.93,-196.7 1535.16,-187.81 1534.12,-198.36 1540.93,-196.7"/>
</g>
<!-- Node14 -->
<g id="node14" class="node">
<title>Node14</title>
<g id="a_node14"><a xlink:href="_s_l_vec3_8h.html" target="_top" xlink:title=" ">
<polygon fill="white" stroke="black" points="1581.49,-280.5 1581.49,-299.5 1640.49,-299.5 1640.49,-280.5 1581.49,-280.5"/>
<text text-anchor="middle" x="1610.99" y="-287.5" font-family="Arial.ttf" font-size="10.00">SLVec3.h</text>
</a>
</g>
</g>
<!-- Node13&#45;&gt;Node14 -->
<g id="edge17" class="edge">
<title>Node13&#45;&gt;Node14</title>
<path fill="none" stroke="midnightblue" d="M1593.26,-448.38C1605.02,-431.61 1630.03,-392.99 1638.99,-356 1641.09,-347.36 1641.43,-344.55 1638.99,-336 1636.09,-325.84 1630.16,-315.75 1624.5,-307.7"/>
<polygon fill="midnightblue" stroke="midnightblue" points="1627.21,-305.48 1618.4,-299.59 1621.62,-309.69 1627.21,-305.48"/>
</g>
<!-- Node16 -->
<g id="node16" class="node">
<title>Node16</title>
<g id="a_node16"><a xlink:href="_s_l_vec4_8h.html" target="_top" xlink:title=" ">
<polygon fill="white" stroke="black" points="1729.49,-336.5 1729.49,-355.5 1788.49,-355.5 1788.49,-336.5 1729.49,-336.5"/>
<text text-anchor="middle" x="1758.99" y="-343.5" font-family="Arial.ttf" font-size="10.00">SLVec4.h</text>
</a>
</g>
</g>
<!-- Node13&#45;&gt;Node16 -->
<g id="edge23" class="edge">
<title>Node13&#45;&gt;Node16</title>
<path fill="none" stroke="midnightblue" d="M1600.49,-448.37C1630,-429.49 1700.54,-384.38 1736.73,-361.24"/>
<polygon fill="midnightblue" stroke="midnightblue" points="1739.02,-363.93 1745.56,-355.59 1735.25,-358.03 1739.02,-363.93"/>
</g>
<!-- Node17 -->
<g id="node17" class="node">
<title>Node17</title>
<g id="a_node17"><a xlink:href="_s_l_mat4_8h.html" target="_top" xlink:title=" ">
<polygon fill="white" stroke="black" points="1361.49,-392.5 1361.49,-411.5 1420.49,-411.5 1420.49,-392.5 1361.49,-392.5"/>
<text text-anchor="middle" x="1390.99" y="-399.5" font-family="Arial.ttf" font-size="10.00">SLMat4.h</text>
</a>
</g>
</g>
<!-- Node13&#45;&gt;Node17 -->
<g id="edge28" class="edge">
<title>Node13&#45;&gt;Node17</title>
<path fill="none" stroke="midnightblue" d="M1555.94,-448.44C1521.99,-439.09 1467.53,-424.09 1430.55,-413.9"/>
<polygon fill="midnightblue" stroke="midnightblue" points="1431.19,-410.44 1420.62,-411.16 1429.33,-417.19 1431.19,-410.44"/>
</g>
<!-- Node14&#45;&gt;Node4 -->
<g id="edge18" class="edge">
<title>Node14&#45;&gt;Node4</title>
<path fill="none" stroke="midnightblue" d="M1605.43,-280.49C1597.22,-267.98 1581.27,-243.95 1566.99,-224 1560.14,-214.43 1552.23,-203.92 1545.76,-195.47"/>
<polygon fill="midnightblue" stroke="midnightblue" points="1548.52,-193.32 1539.64,-187.53 1542.97,-197.59 1548.52,-193.32"/>
</g>
<!-- Node14&#45;&gt;Node5 -->
<g id="edge22" class="edge">
<title>Node14&#45;&gt;Node5</title>
<path fill="none" stroke="midnightblue" d="M1610.88,-280.08C1610.57,-253.95 1609.65,-177.21 1609.22,-141.58"/>
<polygon fill="midnightblue" stroke="midnightblue" points="1612.72,-141.53 1609.1,-131.57 1605.72,-141.61 1612.72,-141.53"/>
</g>
<!-- Node15 -->
<g id="node15" class="node">
<title>Node15</title>
<g id="a_node15"><a xlink:href="_s_l_vec2_8h.html" target="_top" xlink:title=" ">
<polygon fill="white" stroke="black" points="1733.49,-224.5 1733.49,-243.5 1792.49,-243.5 1792.49,-224.5 1733.49,-224.5"/>
<text text-anchor="middle" x="1762.99" y="-231.5" font-family="Arial.ttf" font-size="10.00">SLVec2.h</text>
</a>
</g>
</g>
<!-- Node14&#45;&gt;Node15 -->
<g id="edge19" class="edge">
<title>Node14&#45;&gt;Node15</title>
<path fill="none" stroke="midnightblue" d="M1635.08,-280.44C1660.54,-271.4 1700.89,-257.06 1729.45,-246.92"/>
<polygon fill="midnightblue" stroke="midnightblue" points="1730.77,-250.16 1739.02,-243.52 1728.43,-243.57 1730.77,-250.16"/>
</g>
<!-- Node15&#45;&gt;Node4 -->
<g id="edge20" class="edge">
<title>Node15&#45;&gt;Node4</title>
<path fill="none" stroke="midnightblue" d="M1733.39,-226.05C1688.92,-215.61 1605.39,-196 1561.53,-185.7"/>
<polygon fill="midnightblue" stroke="midnightblue" points="1562.33,-182.29 1551.79,-183.41 1560.73,-189.11 1562.33,-182.29"/>
</g>
<!-- Node15&#45;&gt;Node5 -->
<g id="edge21" class="edge">
<title>Node15&#45;&gt;Node5</title>
<path fill="none" stroke="midnightblue" d="M1752.92,-224.41C1737.73,-211.6 1707.86,-186.96 1680.99,-168 1665.18,-156.85 1646.66,-145.3 1632.36,-136.7"/>
<polygon fill="midnightblue" stroke="midnightblue" points="1634.03,-133.62 1623.64,-131.5 1630.44,-139.63 1634.03,-133.62"/>
</g>
<!-- Node16&#45;&gt;Node4 -->
<g id="edge24" class="edge">
<title>Node16&#45;&gt;Node4</title>
<path fill="none" stroke="midnightblue" d="M1747.16,-336.31C1710.55,-309.42 1598.82,-227.35 1552.96,-193.67"/>
<polygon fill="midnightblue" stroke="midnightblue" points="1554.84,-190.7 1544.71,-187.61 1550.7,-196.35 1554.84,-190.7"/>
</g>
<!-- Node16&#45;&gt;Node5 -->
<g id="edge27" class="edge">
<title>Node16&#45;&gt;Node5</title>
<path fill="none" stroke="midnightblue" d="M1766.91,-336.34C1784.64,-315.83 1824.33,-263.1 1801.99,-224 1768.4,-165.21 1687.38,-139.25 1641.72,-128.95"/>
<polygon fill="midnightblue" stroke="midnightblue" points="1642.24,-125.49 1631.73,-126.83 1640.78,-132.33 1642.24,-125.49"/>
</g>
<!-- Node16&#45;&gt;Node14 -->
<g id="edge26" class="edge">
<title>Node16&#45;&gt;Node14</title>
<path fill="none" stroke="midnightblue" d="M1735.54,-336.44C1710.86,-327.44 1671.81,-313.19 1644.02,-303.05"/>
<polygon fill="midnightblue" stroke="midnightblue" points="1644.93,-299.66 1634.33,-299.52 1642.53,-306.23 1644.93,-299.66"/>
</g>
<!-- Node16&#45;&gt;Node15 -->
<g id="edge25" class="edge">
<title>Node16&#45;&gt;Node15</title>
<path fill="none" stroke="midnightblue" d="M1759.31,-336.37C1759.95,-318.62 1761.44,-277.67 1762.32,-253.6"/>
<polygon fill="midnightblue" stroke="midnightblue" points="1765.81,-253.71 1762.68,-243.59 1758.82,-253.46 1765.81,-253.71"/>
</g>
<!-- Node17&#45;&gt;Node4 -->
<g id="edge29" class="edge">
<title>Node17&#45;&gt;Node4</title>
<path fill="none" stroke="midnightblue" d="M1382.09,-392.18C1370.62,-379.7 1353.14,-356.14 1361.99,-336 1392.09,-267.51 1468.44,-215.8 1508.15,-192.55"/>
<polygon fill="midnightblue" stroke="midnightblue" points="1510.01,-195.51 1516.95,-187.51 1506.53,-189.44 1510.01,-195.51"/>
</g>
<!-- Node17&#45;&gt;Node5 -->
<g id="edge31" class="edge">
<title>Node17&#45;&gt;Node5</title>
<path fill="none" stroke="midnightblue" d="M1361.41,-399.49C1279.56,-395.01 1054.64,-380.54 1032.99,-356 1027.11,-349.33 1027.94,-343.31 1032.99,-336 1161.9,-149.4 1474.29,-125.84 1576.23,-123.2"/>
<polygon fill="midnightblue" stroke="midnightblue" points="1576.31,-126.7 1586.24,-123 1576.17,-119.71 1576.31,-126.7"/>
</g>
<!-- Node17&#45;&gt;Node14 -->
<g id="edge37" class="edge">
<title>Node17&#45;&gt;Node14</title>
<path fill="none" stroke="midnightblue" d="M1420.64,-399.89C1458.16,-397.15 1523.27,-387.77 1567.99,-356 1584.66,-344.16 1596.64,-323.65 1603.65,-308.83"/>
<polygon fill="midnightblue" stroke="midnightblue" points="1606.86,-310.21 1607.71,-299.65 1600.46,-307.38 1606.86,-310.21"/>
</g>
<!-- Node17&#45;&gt;Node16 -->
<g id="edge38" class="edge">
<title>Node17&#45;&gt;Node16</title>
<path fill="none" stroke="midnightblue" d="M1420.8,-396.63C1486.68,-386.96 1644.76,-363.76 1719.09,-352.86"/>
<polygon fill="midnightblue" stroke="midnightblue" points="1720.04,-356.25 1729.42,-351.34 1719.02,-349.33 1720.04,-356.25"/>
</g>
<!-- Node18 -->
<g id="node18" class="node">
<title>Node18</title>
<g id="a_node18"><a xlink:title=" ">
<polygon fill="white" stroke="#bfbfbf" points="1370.49,-336.5 1370.49,-355.5 1411.49,-355.5 1411.49,-336.5 1370.49,-336.5"/>
<text text-anchor="middle" x="1390.99" y="-343.5" font-family="Arial.ttf" font-size="10.00">stack</text>
</a>
</g>
</g>
<!-- Node17&#45;&gt;Node18 -->
<g id="edge30" class="edge">
<title>Node17&#45;&gt;Node18</title>
<path fill="none" stroke="midnightblue" d="M1390.99,-392.08C1390.99,-385.01 1390.99,-374.86 1390.99,-365.99"/>
<polygon fill="midnightblue" stroke="midnightblue" points="1394.49,-365.75 1390.99,-355.75 1387.49,-365.75 1394.49,-365.75"/>
</g>
<!-- Node19 -->
<g id="node19" class="node">
<title>Node19</title>
<g id="a_node19"><a xlink:href="_s_l_mat3_8h.html" target="_top" xlink:title=" ">
<polygon fill="white" stroke="black" points="1429.49,-336.5 1429.49,-355.5 1488.49,-355.5 1488.49,-336.5 1429.49,-336.5"/>
<text text-anchor="middle" x="1458.99" y="-343.5" font-family="Arial.ttf" font-size="10.00">SLMat3.h</text>
</a>
</g>
</g>
<!-- Node17&#45;&gt;Node19 -->
<g id="edge32" class="edge">
<title>Node17&#45;&gt;Node19</title>
<path fill="none" stroke="midnightblue" d="M1401.92,-392.32C1412.17,-384.18 1427.71,-371.84 1439.99,-362.09"/>
<polygon fill="midnightblue" stroke="midnightblue" points="1442.21,-364.79 1447.87,-355.83 1437.86,-359.31 1442.21,-364.79"/>
</g>
<!-- Node21 -->
<g id="node21" class="node">
<title>Node21</title>
<g id="a_node21"><a xlink:title=" ">
<polygon fill="white" stroke="#bfbfbf" points="1506.99,-336.5 1506.99,-355.5 1558.99,-355.5 1558.99,-336.5 1506.99,-336.5"/>
<text text-anchor="middle" x="1532.99" y="-343.5" font-family="Arial.ttf" font-size="10.00">assert.h</text>
</a>
</g>
</g>
<!-- Node17&#45;&gt;Node21 -->
<g id="edge39" class="edge">
<title>Node17&#45;&gt;Node21</title>
<path fill="none" stroke="midnightblue" d="M1413.49,-392.44C1437.07,-383.48 1474.31,-369.31 1500.96,-359.18"/>
<polygon fill="midnightblue" stroke="midnightblue" points="1502.49,-362.34 1510.6,-355.52 1500.01,-355.8 1502.49,-362.34"/>
</g>
<!-- Node22 -->
<g id="node22" class="node">
<title>Node22</title>
<g id="a_node22"><a xlink:title=" ">
<polygon fill="white" stroke="#bfbfbf" points="1041.49,-336.5 1041.49,-355.5 1168.49,-355.5 1168.49,-336.5 1041.49,-336.5"/>
<text text-anchor="middle" x="1104.99" y="-343.5" font-family="Arial.ttf" font-size="10.00">Shoemake/Decompose.h</text>
</a>
</g>
</g>
<!-- Node17&#45;&gt;Node22 -->
<g id="edge40" class="edge">
<title>Node17&#45;&gt;Node22</title>
<path fill="none" stroke="midnightblue" d="M1361.46,-395.42C1314.11,-386.48 1220.42,-368.79 1160.34,-357.45"/>
<polygon fill="midnightblue" stroke="midnightblue" points="1160.74,-353.96 1150.26,-355.55 1159.44,-360.84 1160.74,-353.96"/>
</g>
<!-- Node23 -->
<g id="node23" class="node">
<title>Node23</title>
<g id="a_node23"><a xlink:title=" ">
<polygon fill="white" stroke="#bfbfbf" points="1186.49,-336.5 1186.49,-355.5 1313.49,-355.5 1313.49,-336.5 1186.49,-336.5"/>
<text text-anchor="middle" x="1249.99" y="-343.5" font-family="Arial.ttf" font-size="10.00">Shoemake/EulerAngles.h</text>
</a>
</g>
</g>
<!-- Node17&#45;&gt;Node23 -->
<g id="edge41" class="edge">
<title>Node17&#45;&gt;Node23</title>
<path fill="none" stroke="midnightblue" d="M1368.65,-392.44C1345.24,-383.48 1308.26,-369.31 1281.8,-359.18"/>
<polygon fill="midnightblue" stroke="midnightblue" points="1282.82,-355.82 1272.23,-355.52 1280.32,-362.36 1282.82,-355.82"/>
</g>
<!-- Node19&#45;&gt;Node4 -->
<g id="edge33" class="edge">
<title>Node19&#45;&gt;Node4</title>
<path fill="none" stroke="midnightblue" d="M1467.51,-336.4C1475.59,-327.82 1487.56,-313.95 1494.99,-300 1513.05,-266.11 1524.14,-222.25 1529.37,-197.72"/>
<polygon fill="midnightblue" stroke="midnightblue" points="1532.86,-198.14 1531.42,-187.64 1526,-196.74 1532.86,-198.14"/>
</g>
<!-- Node19&#45;&gt;Node5 -->
<g id="edge34" class="edge">
<title>Node19&#45;&gt;Node5</title>
<path fill="none" stroke="midnightblue" d="M1448.83,-336.19C1440.08,-327.87 1428.09,-314.54 1422.99,-300 1420.05,-291.61 1420.21,-288.44 1422.99,-280 1442.42,-221.17 1457.52,-206.59 1505.99,-168 1526.95,-151.31 1555.04,-139.59 1576.6,-132.29"/>
<polygon fill="midnightblue" stroke="midnightblue" points="1577.85,-135.57 1586.29,-129.16 1575.7,-128.91 1577.85,-135.57"/>
</g>
<!-- Node19&#45;&gt;Node14 -->
<g id="edge35" class="edge">
<title>Node19&#45;&gt;Node14</title>
<path fill="none" stroke="midnightblue" d="M1483.08,-336.44C1508.54,-327.4 1548.89,-313.06 1577.45,-302.92"/>
<polygon fill="midnightblue" stroke="midnightblue" points="1578.77,-306.16 1587.02,-299.52 1576.43,-299.57 1578.77,-306.16"/>
</g>
<!-- Node20 -->
<g id="node20" class="node">
<title>Node20</title>
<g id="a_node20"><a xlink:title=" ">
<polygon fill="white" stroke="#bfbfbf" points="1431.99,-280.5 1431.99,-299.5 1485.99,-299.5 1485.99,-280.5 1431.99,-280.5"/>
<text text-anchor="middle" x="1458.99" y="-287.5" font-family="Arial.ttf" font-size="10.00">iostream</text>
</a>
</g>
</g>
<!-- Node19&#45;&gt;Node20 -->
<g id="edge36" class="edge">
<title>Node19&#45;&gt;Node20</title>
<path fill="none" stroke="midnightblue" d="M1458.99,-336.08C1458.99,-329.01 1458.99,-318.86 1458.99,-309.99"/>
<polygon fill="midnightblue" stroke="midnightblue" points="1462.49,-309.75 1458.99,-299.75 1455.49,-309.75 1462.49,-309.75"/>
</g>
<!-- Node24&#45;&gt;Node3 -->
<g id="edge43" class="edge">
<title>Node24&#45;&gt;Node3</title>
<path fill="none" stroke="midnightblue" d="M1677.7,-560.44C1653.18,-551.44 1614.4,-537.19 1586.79,-527.05"/>
<polygon fill="midnightblue" stroke="midnightblue" points="1587.77,-523.68 1577.18,-523.52 1585.36,-530.25 1587.77,-523.68"/>
</g>
<!-- Node24&#45;&gt;Node14 -->
<g id="edge45" class="edge">
<title>Node24&#45;&gt;Node14</title>
<path fill="none" stroke="midnightblue" d="M1700.99,-560.44C1700.99,-541.94 1700.99,-496.81 1700.99,-459 1700.99,-459 1700.99,-459 1700.99,-401 1700.99,-358.66 1660.55,-323.66 1633.89,-305.18"/>
<polygon fill="midnightblue" stroke="midnightblue" points="1635.72,-302.19 1625.45,-299.56 1631.83,-308.02 1635.72,-302.19"/>
</g>
<!-- Node24&#45;&gt;Node15 -->
<g id="edge44" class="edge">
<title>Node24&#45;&gt;Node15</title>
<path fill="none" stroke="midnightblue" d="M1738.44,-560.5C1785.16,-547.42 1858.99,-517.49 1858.99,-459 1858.99,-459 1858.99,-459 1858.99,-345 1858.99,-301.54 1815.94,-266.96 1787.49,-248.85"/>
<polygon fill="midnightblue" stroke="midnightblue" points="1789.2,-245.79 1778.84,-243.56 1785.55,-251.77 1789.2,-245.79"/>
</g>
<!-- Node24&#45;&gt;Node16 -->
<g id="edge46" class="edge">
<title>Node24&#45;&gt;Node16</title>
<path fill="none" stroke="midnightblue" d="M1703.83,-560.42C1706.77,-551.39 1711.42,-536.77 1714.99,-524 1731.09,-466.44 1747.37,-397.54 1754.81,-365.31"/>
<polygon fill="midnightblue" stroke="midnightblue" points="1758.23,-366.05 1757.06,-355.52 1751.41,-364.48 1758.23,-366.05"/>
</g>
<!-- Node26 -->
<g id="node26" class="node">
<title>Node26</title>
<g id="a_node26"><a xlink:href="_s_l_draw_bits_8h.html" target="_top" xlink:title=" ">
<polygon fill="white" stroke="black" points="793.49,-392.5 793.49,-411.5 870.49,-411.5 870.49,-392.5 793.49,-392.5"/>
<text text-anchor="middle" x="831.99" y="-399.5" font-family="Arial.ttf" font-size="10.00">SLDrawBits.h</text>
</a>
</g>
</g>
<!-- Node25&#45;&gt;Node26 -->
<g id="edge48" class="edge">
<title>Node25&#45;&gt;Node26</title>
<path fill="none" stroke="midnightblue" d="M1082.74,-843.17C1013.02,-828.88 846.99,-789.54 846.99,-739 846.99,-739 846.99,-739 846.99,-513 846.99,-480.5 840.49,-443.1 836.04,-421.34"/>
<polygon fill="midnightblue" stroke="midnightblue" points="839.45,-420.56 833.95,-411.5 832.61,-422.01 839.45,-420.56"/>
</g>
<!-- Node27 -->
<g id="node27" class="node">
<title>Node27</title>
<g id="a_node27"><a xlink:href="_s_l_enums_8h.html" target="_top" xlink:title=" ">
<polygon fill="white" stroke="black" points="1014.99,-728.5 1014.99,-747.5 1082.99,-747.5 1082.99,-728.5 1014.99,-728.5"/>
<text text-anchor="middle" x="1048.99" y="-735.5" font-family="Arial.ttf" font-size="10.00">SLEnums.h</text>
</a>
</g>
</g>
<!-- Node25&#45;&gt;Node27 -->
<g id="edge50" class="edge">
<title>Node25&#45;&gt;Node27</title>
<path fill="none" stroke="midnightblue" d="M1111.88,-840.46C1109.9,-827.5 1104.9,-802.41 1093.99,-784 1087.35,-772.79 1077.28,-762.36 1068.35,-754.37"/>
<polygon fill="midnightblue" stroke="midnightblue" points="1070.48,-751.59 1060.6,-747.77 1065.94,-756.92 1070.48,-751.59"/>
</g>
<!-- Node28 -->
<g id="node28" class="node">
<title>Node28</title>
<g id="a_node28"><a xlink:href="_s_l_event_handler_8h.html" target="_top" xlink:title=" ">
<polygon fill="white" stroke="black" points="989.49,-784.5 989.49,-803.5 1084.49,-803.5 1084.49,-784.5 989.49,-784.5"/>
<text text-anchor="middle" x="1036.99" y="-791.5" font-family="Arial.ttf" font-size="10.00">SLEventHandler.h</text>
</a>
</g>
</g>
<!-- Node25&#45;&gt;Node28 -->
<g id="edge51" class="edge">
<title>Node25&#45;&gt;Node28</title>
<path fill="none" stroke="midnightblue" d="M1100.78,-840.32C1089.22,-832.11 1071.62,-819.6 1057.83,-809.81"/>
<polygon fill="midnightblue" stroke="midnightblue" points="1059.6,-806.77 1049.43,-803.83 1055.55,-812.48 1059.6,-806.77"/>
</g>
<!-- Node29 -->
<g id="node29" class="node">
<title>Node29</title>
<g id="a_node29"><a xlink:href="_s_l_mesh_8h.html" target="_top" xlink:title=" ">
<polygon fill="white" stroke="black" points="1164.49,-784.5 1164.49,-803.5 1225.49,-803.5 1225.49,-784.5 1164.49,-784.5"/>
<text text-anchor="middle" x="1194.99" y="-791.5" font-family="Arial.ttf" font-size="10.00">SLMesh.h</text>
</a>
</g>
</g>
<!-- Node25&#45;&gt;Node29 -->
<g id="edge54" class="edge">
<title>Node25&#45;&gt;Node29</title>
<path fill="none" stroke="midnightblue" d="M1126.17,-840.32C1138.84,-831.98 1158.23,-819.21 1173.2,-809.35"/>
<polygon fill="midnightblue" stroke="midnightblue" points="1175.42,-812.08 1181.85,-803.65 1171.57,-806.23 1175.42,-812.08"/>
</g>
<!-- Node35 -->
<g id="node35" class="node">
<title>Node35</title>
<g id="a_node35"><a xlink:href="_s_l_quat4_8h.html" target="_top" xlink:title=" ">
<polygon fill="white" stroke="black" points="1767.49,-448.5 1767.49,-467.5 1830.49,-467.5 1830.49,-448.5 1767.49,-448.5"/>
<text text-anchor="middle" x="1798.99" y="-455.5" font-family="Arial.ttf" font-size="10.00">SLQuat4.h</text>
</a>
</g>
</g>
<!-- Node25&#45;&gt;Node35 -->
<g id="edge65" class="edge">
<title>Node25&#45;&gt;Node35</title>
<path fill="none" stroke="midnightblue" d="M1143.4,-847.32C1275.13,-839.66 1789.99,-805.46 1789.99,-739 1789.99,-739 1789.99,-739 1789.99,-569 1789.99,-536.84 1793.86,-499.57 1796.53,-477.71"/>
<polygon fill="midnightblue" stroke="midnightblue" points="1800.03,-477.9 1797.82,-467.54 1793.08,-477.02 1800.03,-477.9"/>
</g>
<!-- Node26&#45;&gt;Node4 -->
<g id="edge49" class="edge">
<title>Node26&#45;&gt;Node4</title>
<path fill="none" stroke="midnightblue" d="M834.13,-392.26C839.63,-371.14 855.93,-316.37 884.99,-280 911.19,-247.23 921.68,-238.65 960.99,-224 1062.31,-186.24 1403.13,-180.16 1504.39,-179.19"/>
<polygon fill="midnightblue" stroke="midnightblue" points="1504.51,-182.68 1514.48,-179.1 1504.45,-175.69 1504.51,-182.68"/>
</g>
<!-- Node28&#45;&gt;Node4 -->
<g id="edge52" class="edge">
<title>Node28&#45;&gt;Node4</title>
<path fill="none" stroke="midnightblue" d="M1028.51,-784.23C1020.94,-775.75 1010.39,-762.13 1005.99,-748 1003.35,-739.51 1003.95,-736.65 1005.99,-728 1018.36,-675.63 1068.72,-667.15 1051.99,-616 1025.1,-533.79 936.99,-545.49 936.99,-459 936.99,-459 936.99,-459 936.99,-345 936.99,-225.87 1384.49,-188.56 1503.96,-180.72"/>
<polygon fill="midnightblue" stroke="midnightblue" points="1504.41,-184.19 1514.17,-180.07 1503.97,-177.21 1504.41,-184.19"/>
</g>
<!-- Node28&#45;&gt;Node27 -->
<g id="edge53" class="edge">
<title>Node28&#45;&gt;Node27</title>
<path fill="none" stroke="midnightblue" d="M1038.97,-784.08C1040.56,-776.93 1042.85,-766.64 1044.84,-757.69"/>
<polygon fill="midnightblue" stroke="midnightblue" points="1048.29,-758.27 1047.05,-747.75 1041.46,-756.75 1048.29,-758.27"/>
</g>
<!-- Node29&#45;&gt;Node2 -->
<g id="edge60" class="edge">
<title>Node29&#45;&gt;Node2</title>
<path fill="none" stroke="midnightblue" d="M1225.59,-792.01C1290.56,-789.32 1439.39,-779.74 1476.99,-748 1507.54,-722.21 1515.4,-672.75 1517.37,-645.74"/>
<polygon fill="midnightblue" stroke="midnightblue" points="1520.87,-645.84 1517.91,-635.67 1513.88,-645.47 1520.87,-645.84"/>
</g>
<!-- Node29&#45;&gt;Node27 -->
<g id="edge59" class="edge">
<title>Node29&#45;&gt;Node27</title>
<path fill="none" stroke="midnightblue" d="M1171.86,-784.44C1147.51,-775.44 1108.99,-761.19 1081.57,-751.05"/>
<polygon fill="midnightblue" stroke="midnightblue" points="1082.61,-747.7 1072.02,-747.52 1080.18,-754.27 1082.61,-747.7"/>
</g>
<!-- Node30 -->
<g id="node30" class="node">
<title>Node30</title>
<g id="a_node30"><a xlink:href="_s_l_a_a_b_box_8h.html" target="_top" xlink:title=" ">
<polygon fill="white" stroke="black" points="1393.99,-728.5 1393.99,-747.5 1467.99,-747.5 1467.99,-728.5 1393.99,-728.5"/>
<text text-anchor="middle" x="1430.99" y="-735.5" font-family="Arial.ttf" font-size="10.00">SLAABBox.h</text>
</a>
</g>
</g>
<!-- Node29&#45;&gt;Node30 -->
<g id="edge55" class="edge">
<title>Node29&#45;&gt;Node30</title>
<path fill="none" stroke="midnightblue" d="M1225.85,-785.94C1266.12,-776.72 1337,-760.51 1383.98,-749.76"/>
<polygon fill="midnightblue" stroke="midnightblue" points="1384.95,-753.13 1393.91,-747.48 1383.39,-746.3 1384.95,-753.13"/>
</g>
<!-- Node32 -->
<g id="node32" class="node">
<title>Node32</title>
<g id="a_node32"><a xlink:href="_s_l_object_8h.html" target="_top" xlink:title=" ">
<polygon fill="white" stroke="black" points="977.49,-616.5 977.49,-635.5 1042.49,-635.5 1042.49,-616.5 977.49,-616.5"/>
<text text-anchor="middle" x="1009.99" y="-623.5" font-family="Arial.ttf" font-size="10.00">SLObject.h</text>
</a>
</g>
</g>
<!-- Node29&#45;&gt;Node32 -->
<g id="edge61" class="edge">
<title>Node29&#45;&gt;Node32</title>
<path fill="none" stroke="midnightblue" d="M1181.26,-784.34C1167.95,-775.72 1147.42,-761.81 1130.99,-748 1089.9,-713.45 1046.54,-667.39 1024.58,-643.28"/>
<polygon fill="midnightblue" stroke="midnightblue" points="1027.04,-640.79 1017.74,-635.73 1021.85,-645.49 1027.04,-640.79"/>
</g>
<!-- Node33 -->
<g id="node33" class="node">
<title>Node33</title>
<g id="a_node33"><a xlink:href="_s_l_optix_accel_struct_8h.html" target="_top" xlink:title=" ">
<polygon fill="white" stroke="black" points="1139.49,-728.5 1139.49,-747.5 1250.49,-747.5 1250.49,-728.5 1139.49,-728.5"/>
<text text-anchor="middle" x="1194.99" y="-735.5" font-family="Arial.ttf" font-size="10.00">SLOptixAccelStruct.h</text>
</a>
</g>
</g>
<!-- Node29&#45;&gt;Node33 -->
<g id="edge63" class="edge">
<title>Node29&#45;&gt;Node33</title>
<path fill="none" stroke="midnightblue" d="M1194.99,-784.08C1194.99,-777.01 1194.99,-766.86 1194.99,-757.99"/>
<polygon fill="midnightblue" stroke="midnightblue" points="1198.49,-757.75 1194.99,-747.75 1191.49,-757.75 1198.49,-757.75"/>
</g>
<!-- Node34 -->
<g id="node34" class="node">
<title>Node34</title>
<g id="a_node34"><a xlink:href="_s_l_optix_definitions_8h.html" target="_top" xlink:title=" ">
<polygon fill="white" stroke="black" points="1268.49,-728.5 1268.49,-747.5 1375.49,-747.5 1375.49,-728.5 1268.49,-728.5"/>
<text text-anchor="middle" x="1321.99" y="-735.5" font-family="Arial.ttf" font-size="10.00">SLOptixDefinitions.h</text>
</a>
</g>
</g>
<!-- Node29&#45;&gt;Node34 -->
<g id="edge64" class="edge">
<title>Node29&#45;&gt;Node34</title>
<path fill="none" stroke="midnightblue" d="M1215.12,-784.44C1236.02,-775.56 1268.93,-761.56 1292.71,-751.45"/>
<polygon fill="midnightblue" stroke="midnightblue" points="1294.13,-754.65 1301.96,-747.52 1291.39,-748.21 1294.13,-754.65"/>
</g>
<!-- Node30&#45;&gt;Node17 -->
<g id="edge58" class="edge">
<title>Node30&#45;&gt;Node17</title>
<path fill="none" stroke="midnightblue" d="M1394.37,-728.44C1309.97,-708.2 1108.99,-656.87 1108.99,-627 1108.99,-627 1108.99,-627 1108.99,-513 1108.99,-461.58 1273.81,-424.49 1351.44,-409.87"/>
<polygon fill="midnightblue" stroke="midnightblue" points="1352.15,-413.3 1361.35,-408.04 1350.88,-406.42 1352.15,-413.3"/>
</g>
<!-- Node31 -->
<g id="node31" class="node">
<title>Node31</title>
<g id="a_node31"><a xlink:href="_s_l_g_l_vertex_array_ext_8h.html" target="_top" xlink:title=" ">
<polygon fill="white" stroke="black" points="1361.99,-672.5 1361.99,-691.5 1477.99,-691.5 1477.99,-672.5 1361.99,-672.5"/>
<text text-anchor="middle" x="1419.99" y="-679.5" font-family="Arial.ttf" font-size="10.00">SLGLVertexArrayExt.h</text>
</a>
</g>
</g>
<!-- Node30&#45;&gt;Node31 -->
<g id="edge56" class="edge">
<title>Node30&#45;&gt;Node31</title>
<path fill="none" stroke="midnightblue" d="M1429.18,-728.08C1427.72,-720.93 1425.62,-710.64 1423.8,-701.69"/>
<polygon fill="midnightblue" stroke="midnightblue" points="1427.2,-700.85 1421.77,-691.75 1420.34,-702.25 1427.2,-700.85"/>
</g>
<!-- Node31&#45;&gt;Node2 -->
<g id="edge57" class="edge">
<title>Node31&#45;&gt;Node2</title>
<path fill="none" stroke="midnightblue" d="M1435.74,-672.32C1451.31,-663.74 1475.37,-650.49 1493.45,-640.52"/>
<polygon fill="midnightblue" stroke="midnightblue" points="1495.22,-643.55 1502.29,-635.65 1491.84,-637.42 1495.22,-643.55"/>
</g>
<!-- Node32&#45;&gt;Node4 -->
<g id="edge62" class="edge">
<title>Node32&#45;&gt;Node4</title>
<path fill="none" stroke="midnightblue" d="M990.15,-616.39C958.22,-601.04 898.99,-565.73 898.99,-515 898.99,-515 898.99,-515 898.99,-345 898.99,-263.43 958.45,-246.04 1036.99,-224 1125.89,-199.06 1411.67,-184.41 1503.96,-180.24"/>
<polygon fill="midnightblue" stroke="midnightblue" points="1504.39,-183.73 1514.23,-179.79 1504.08,-176.73 1504.39,-183.73"/>
</g>
<!-- Node35&#45;&gt;Node4 -->
<g id="edge66" class="edge">
<title>Node35&#45;&gt;Node4</title>
<path fill="none" stroke="midnightblue" d="M1801.56,-448.37C1807.24,-427.5 1818.81,-373.22 1797.99,-336 1746.88,-244.61 1618.92,-201.17 1561.57,-185.8"/>
<polygon fill="midnightblue" stroke="midnightblue" points="1562.28,-182.37 1551.72,-183.25 1560.53,-189.14 1562.28,-182.37"/>
</g>
<!-- Node35&#45;&gt;Node5 -->
<g id="edge69" class="edge">
<title>Node35&#45;&gt;Node5</title>
<path fill="none" stroke="midnightblue" d="M1815.62,-448.27C1843.58,-432.26 1896.99,-395.34 1896.99,-347 1896.99,-347 1896.99,-347 1896.99,-233 1896.99,-178.81 1716.83,-141.53 1641.5,-128.31"/>
<polygon fill="midnightblue" stroke="midnightblue" points="1642.04,-124.85 1631.59,-126.6 1640.85,-131.75 1642.04,-124.85"/>
</g>
<!-- Node35&#45;&gt;Node16 -->
<g id="edge68" class="edge">
<title>Node35&#45;&gt;Node16</title>
<path fill="none" stroke="midnightblue" d="M1795.85,-448.37C1789.37,-430.54 1774.37,-389.3 1765.64,-365.27"/>
<polygon fill="midnightblue" stroke="midnightblue" points="1768.82,-363.79 1762.12,-355.59 1762.24,-366.19 1768.82,-363.79"/>
</g>
<!-- Node35&#45;&gt;Node17 -->
<g id="edge67" class="edge">
<title>Node35&#45;&gt;Node17</title>
<path fill="none" stroke="midnightblue" d="M1767.32,-452.81C1693.85,-443.08 1511.96,-419.01 1430.99,-408.29"/>
<polygon fill="midnightblue" stroke="midnightblue" points="1431.08,-404.78 1420.71,-406.93 1430.16,-411.71 1431.08,-404.78"/>
</g>
<!-- Node37 -->
<g id="node37" class="node">
<title>Node37</title>
<g id="a_node37"><a xlink:href="_s_l_g_l_texture_8h.html" target="_top" xlink:title=" ">
<polygon fill="white" stroke="black" points="907.99,-672.5 907.99,-691.5 989.99,-691.5 989.99,-672.5 907.99,-672.5"/>
<text text-anchor="middle" x="948.99" y="-679.5" font-family="Arial.ttf" font-size="10.00">SLGLTexture.h</text>
</a>
</g>
</g>
<!-- Node36&#45;&gt;Node37 -->
<g id="edge71" class="edge">
<title>Node36&#45;&gt;Node37</title>
<path fill="none" stroke="midnightblue" d="M981.16,-840.08C975.81,-813.95 960.1,-737.21 952.8,-701.58"/>
<polygon fill="midnightblue" stroke="midnightblue" points="956.18,-700.66 950.75,-691.57 949.33,-702.07 956.18,-700.66"/>
</g>
<!-- Node37&#45;&gt;Node2 -->
<g id="edge82" class="edge">
<title>Node37&#45;&gt;Node2</title>
<path fill="none" stroke="midnightblue" d="M990.37,-677.07C1089.79,-667.64 1342.43,-643.66 1458.29,-632.67"/>
<polygon fill="midnightblue" stroke="midnightblue" points="1458.77,-636.14 1468.4,-631.71 1458.11,-629.17 1458.77,-636.14"/>
</g>
<!-- Node37&#45;&gt;Node17 -->
<g id="edge83" class="edge">
<title>Node37&#45;&gt;Node17</title>
<path fill="none" stroke="midnightblue" d="M950.68,-672.22C953.38,-659.38 959.35,-634.94 968.99,-616 1011.34,-532.83 1014.9,-495.91 1094.99,-448 1137.42,-422.62 1280.24,-410.11 1350.83,-405.36"/>
<polygon fill="midnightblue" stroke="midnightblue" points="1351.35,-408.83 1361.1,-404.69 1350.89,-401.85 1351.35,-408.83"/>
</g>
<!-- Node37&#45;&gt;Node32 -->
<g id="edge72" class="edge">
<title>Node37&#45;&gt;Node32</title>
<path fill="none" stroke="midnightblue" d="M958.79,-672.32C967.81,-664.34 981.4,-652.31 992.31,-642.65"/>
<polygon fill="midnightblue" stroke="midnightblue" points="994.85,-645.08 1000.01,-635.83 990.21,-639.84 994.85,-645.08"/>
</g>
<!-- Node38 -->
<g id="node38" class="node">
<title>Node38</title>
<g id="a_node38"><a xlink:href="_c_v_image_8h.html" target="_top" xlink:title=" ">
<polygon fill="white" stroke="black" points="558.99,-616.5 558.99,-635.5 624.99,-635.5 624.99,-616.5 558.99,-616.5"/>
<text text-anchor="middle" x="591.99" y="-623.5" font-family="Arial.ttf" font-size="10.00">CVImage.h</text>
</a>
</g>
</g>
<!-- Node37&#45;&gt;Node38 -->
<g id="edge73" class="edge">
<title>Node37&#45;&gt;Node38</title>
<path fill="none" stroke="midnightblue" d="M907.69,-674.75C839.61,-664.45 704.46,-644.01 635.16,-633.53"/>
<polygon fill="midnightblue" stroke="midnightblue" points="635.44,-630.03 625.03,-632 634.4,-636.95 635.44,-630.03"/>
</g>
<!-- Node46 -->
<g id="node46" class="node">
<title>Node46</title>
<g id="a_node46"><a xlink:title=" ">
<polygon fill="white" stroke="#bfbfbf" points="874.99,-616.5 874.99,-635.5 920.99,-635.5 920.99,-616.5 874.99,-616.5"/>
<text text-anchor="middle" x="897.99" y="-623.5" font-family="Arial.ttf" font-size="10.00">atomic</text>
</a>
</g>
</g>
<!-- Node37&#45;&gt;Node46 -->
<g id="edge84" class="edge">
<title>Node37&#45;&gt;Node46</title>
<path fill="none" stroke="midnightblue" d="M940.57,-672.08C933.14,-664.22 922.14,-652.57 913.18,-643.08"/>
<polygon fill="midnightblue" stroke="midnightblue" points="915.67,-640.62 906.26,-635.75 910.58,-645.42 915.67,-640.62"/>
</g>
<!-- Node39 -->
<g id="node39" class="node">
<title>Node39</title>
<g id="a_node39"><a xlink:href="_c_v_typedefs_8h.html" target="_top" xlink:title=" ">
<polygon fill="white" stroke="black" points="357.49,-560.5 357.49,-579.5 436.49,-579.5 436.49,-560.5 357.49,-560.5"/>
<text text-anchor="middle" x="396.99" y="-567.5" font-family="Arial.ttf" font-size="10.00">CVTypedefs.h</text>
</a>
</g>
</g>
<!-- Node38&#45;&gt;Node39 -->
<g id="edge74" class="edge">
<title>Node38&#45;&gt;Node39</title>
<path fill="none" stroke="midnightblue" d="M561.09,-616.44C527.72,-607.2 474.4,-592.44 437.64,-582.26"/>
<polygon fill="midnightblue" stroke="midnightblue" points="438.32,-578.81 427.75,-579.52 436.45,-585.56 438.32,-578.81"/>
</g>
<!-- Node39&#45;&gt;Node7 -->
<g id="edge75" class="edge">
<title>Node39&#45;&gt;Node7</title>
<path fill="none" stroke="midnightblue" d="M357.34,-569.6C271.1,-570.08 70.17,-566.49 19.99,-524 -2.98,-504.55 0.99,-489.1 0.99,-459 0.99,-459 0.99,-459 0.99,-177 0.99,-101.83 587.94,-73.92 732.91,-68.18"/>
<polygon fill="midnightblue" stroke="midnightblue" points="733.09,-71.67 742.95,-67.79 732.82,-64.68 733.09,-71.67"/>
</g>
<!-- Node40 -->
<g id="node40" class="node">
<title>Node40</title>
<g id="a_node40"><a xlink:title=" ">
<polygon fill="white" stroke="#bfbfbf" points="28.99,-504.5 28.99,-523.5 144.99,-523.5 144.99,-504.5 28.99,-504.5"/>
<text text-anchor="middle" x="86.99" y="-511.5" font-family="Arial.ttf" font-size="10.00">opencv2/core/core.hpp</text>
</a>
</g>
</g>
<!-- Node39&#45;&gt;Node40 -->
<g id="edge76" class="edge">
<title>Node39&#45;&gt;Node40</title>
<path fill="none" stroke="midnightblue" d="M357.42,-562.11C303.92,-552.79 208.1,-536.1 146.06,-525.29"/>
<polygon fill="midnightblue" stroke="midnightblue" points="146.48,-521.81 136.03,-523.54 145.28,-528.71 146.48,-521.81"/>
</g>
<!-- Node41 -->
<g id="node41" class="node">
<title>Node41</title>
<g id="a_node41"><a xlink:title=" ">
<polygon fill="white" stroke="#bfbfbf" points="162.99,-504.5 162.99,-523.5 272.99,-523.5 272.99,-504.5 162.99,-504.5"/>
<text text-anchor="middle" x="217.99" y="-511.5" font-family="Arial.ttf" font-size="10.00">opencv2/core/ocl.hpp</text>
</a>
</g>
</g>
<!-- Node39&#45;&gt;Node41 -->
<g id="edge77" class="edge">
<title>Node39&#45;&gt;Node41</title>
<path fill="none" stroke="midnightblue" d="M368.63,-560.44C338.25,-551.28 289.88,-536.69 256.18,-526.52"/>
<polygon fill="midnightblue" stroke="midnightblue" points="256.81,-523.05 246.22,-523.52 254.79,-529.76 256.81,-523.05"/>
</g>
<!-- Node42 -->
<g id="node42" class="node">
<title>Node42</title>
<g id="a_node42"><a xlink:title=" ">
<polygon fill="white" stroke="#bfbfbf" points="290.99,-504.5 290.99,-523.5 384.99,-523.5 384.99,-504.5 290.99,-504.5"/>
<text text-anchor="middle" x="337.99" y="-511.5" font-family="Arial.ttf" font-size="10.00">opencv2/face.hpp</text>
</a>
</g>
</g>
<!-- Node39&#45;&gt;Node42 -->
<g id="edge78" class="edge">
<title>Node39&#45;&gt;Node42</title>
<path fill="none" stroke="midnightblue" d="M387.51,-560.32C378.79,-552.34 365.65,-540.31 355.09,-530.65"/>
<polygon fill="midnightblue" stroke="midnightblue" points="357.38,-528 347.64,-523.83 352.66,-533.17 357.38,-528"/>
</g>
<!-- Node43 -->
<g id="node43" class="node">
<title>Node43</title>
<g id="a_node43"><a xlink:title=" ">
<polygon fill="white" stroke="#bfbfbf" points="403.49,-504.5 403.49,-523.5 508.49,-523.5 508.49,-504.5 403.49,-504.5"/>
<text text-anchor="middle" x="455.99" y="-511.5" font-family="Arial.ttf" font-size="10.00">opencv2/opencv.hpp</text>
</a>
</g>
</g>
<!-- Node39&#45;&gt;Node43 -->
<g id="edge79" class="edge">
<title>Node39&#45;&gt;Node43</title>
<path fill="none" stroke="midnightblue" d="M406.47,-560.32C415.19,-552.34 428.34,-540.31 438.89,-530.65"/>
<polygon fill="midnightblue" stroke="midnightblue" points="441.33,-533.17 446.34,-523.83 436.6,-528 441.33,-533.17"/>
</g>
<!-- Node44 -->
<g id="node44" class="node">
<title>Node44</title>
<g id="a_node44"><a xlink:title=" ">
<polygon fill="white" stroke="#bfbfbf" points="526.99,-504.5 526.99,-523.5 652.99,-523.5 652.99,-504.5 526.99,-504.5"/>
<text text-anchor="middle" x="589.99" y="-511.5" font-family="Arial.ttf" font-size="10.00">opencv2/xfeatures2d.hpp</text>
</a>
</g>
</g>
<!-- Node39&#45;&gt;Node44 -->
<g id="edge80" class="edge">
<title>Node39&#45;&gt;Node44</title>
<path fill="none" stroke="midnightblue" d="M427.57,-560.44C460.61,-551.2 513.38,-536.44 549.76,-526.26"/>
<polygon fill="midnightblue" stroke="midnightblue" points="550.87,-529.58 559.55,-523.52 548.98,-522.84 550.87,-529.58"/>
</g>
<!-- Node45 -->
<g id="node45" class="node">
<title>Node45</title>
<g id="a_node45"><a xlink:title=" ">
<polygon fill="white" stroke="#bfbfbf" points="671.49,-504.5 671.49,-523.5 818.49,-523.5 818.49,-504.5 671.49,-504.5"/>
<text text-anchor="middle" x="744.99" y="-511.5" font-family="Arial.ttf" font-size="10.00">opencv2/imgproc/imgproc.hpp</text>
</a>
</g>
</g>
<!-- Node39&#45;&gt;Node45 -->
<g id="edge81" class="edge">
<title>Node39&#45;&gt;Node45</title>
<path fill="none" stroke="midnightblue" d="M436.57,-562.86C495.83,-553.66 608.27,-536.21 679.78,-525.12"/>
<polygon fill="midnightblue" stroke="midnightblue" points="680.68,-528.52 690.02,-523.53 679.6,-521.6 680.68,-528.52"/>
</g>
</g>
</svg>
