<?xml version="1.0" encoding="UTF-8" standalone="no"?>
<!DOCTYPE svg PUBLIC "-//W3C//DTD SVG 1.1//EN"
 "http://www.w3.org/Graphics/SVG/1.1/DTD/svg11.dtd">
<!-- Generated by graphviz version 2.28.0 (20110507.0327)
 -->
<!-- Title: SLRaytracer.cpp Pages: 1 -->
<svg width="2660pt" height="812pt"
 viewBox="0.00 0.00 2660.00 812.00" xmlns="http://www.w3.org/2000/svg" xmlns:xlink="http://www.w3.org/1999/xlink">
<g id="graph1" class="graph" transform="scale(1 1) rotate(0) translate(4 808)">
<title>SLRaytracer.cpp</title>
<polygon fill="white" stroke="white" points="-4,5 -4,-808 2657,-808 2657,5 -4,5"/>
<!-- Node1 -->
<g id="node1" class="node"><title>Node1</title>
<polygon fill="#bfbfbf" stroke="black" points="438.5,-784.5 438.5,-803.5 533.5,-803.5 533.5,-784.5 438.5,-784.5"/>
<text text-anchor="middle" x="486" y="-791.5" font-family="Arial.ttf" font-size="10.00">SLRaytracer.cpp</text>
</g>
<!-- Node2 -->
<g id="node3" class="node"><title>Node2</title>
<polygon fill="white" stroke="#bfbfbf" points="935.5,-0.5 935.5,-19.5 990.5,-19.5 990.5,-0.5 935.5,-0.5"/>
<text text-anchor="middle" x="963" y="-7.5" font-family="Arial.ttf" font-size="10.00">stdafx.h</text>
</g>
<!-- Node1&#45;&gt;Node2 -->
<g id="edge2" class="edge"><title>Node1&#45;&gt;Node2</title>
<path fill="none" stroke="midnightblue" d="M533.509,-793.148C850.975,-793.831 2652,-792.869 2652,-683 2652,-683 2652,-683 2652,-121 2652,-81.985 2628.45,-72.2881 2593,-56 2518.34,-21.699 1238.31,-12.6013 1000.77,-11.2054"/>
<polygon fill="midnightblue" stroke="midnightblue" points="1000.58,-7.70433 990.561,-11.1464 1000.54,-14.7042 1000.58,-7.70433"/>
</g>
<!-- Node3 -->
<g id="node5" class="node"><title>Node3</title>
<a xlink:href="_s_l_ray_8h.html" target="_top" xlink:title="SLRay.h">
<polygon fill="white" stroke="black" points="725.5,-392.5 725.5,-411.5 780.5,-411.5 780.5,-392.5 725.5,-392.5"/>
<text text-anchor="middle" x="753" y="-399.5" font-family="Arial.ttf" font-size="10.00">SLRay.h</text>
</a>
</g>
<!-- Node1&#45;&gt;Node3 -->
<g id="edge4" class="edge"><title>Node1&#45;&gt;Node3</title>
<path fill="none" stroke="midnightblue" d="M491.825,-784.492C525.475,-735.34 695.104,-487.568 741.343,-420.026"/>
<polygon fill="midnightblue" stroke="midnightblue" points="744.261,-421.96 747.022,-411.732 738.485,-418.006 744.261,-421.96"/>
</g>
<!-- Node6 -->
<g id="node14" class="node"><title>Node6</title>
<a xlink:href="_s_l_g_l_texture_8h.html" target="_top" xlink:title="SLGLTexture.h">
<polygon fill="white" stroke="black" points="299,-224.5 299,-243.5 385,-243.5 385,-224.5 299,-224.5"/>
<text text-anchor="middle" x="342" y="-231.5" font-family="Arial.ttf" font-size="10.00">SLGLTexture.h</text>
</a>
</g>
<!-- Node1&#45;&gt;Node6 -->
<g id="edge286" class="edge"><title>Node1&#45;&gt;Node6</title>
<path fill="none" stroke="midnightblue" d="M439.371,-784.449C387.83,-771.991 312,-743.398 312,-683 312,-683 312,-683 312,-513 312,-406.066 195.782,-370.963 252,-280 261.673,-264.348 278.622,-253.958 295.222,-247.15"/>
<polygon fill="midnightblue" stroke="midnightblue" points="296.751,-250.315 304.898,-243.542 294.305,-243.756 296.751,-250.315"/>
</g>
<!-- Node11 -->
<g id="node30" class="node"><title>Node11</title>
<a xlink:href="_s_l_g_l_program_8h.html" target="_top" xlink:title="SLGLProgram.h">
<polygon fill="white" stroke="black" points="1075,-224.5 1075,-243.5 1167,-243.5 1167,-224.5 1075,-224.5"/>
<text text-anchor="middle" x="1121" y="-231.5" font-family="Arial.ttf" font-size="10.00">SLGLProgram.h</text>
</a>
</g>
<!-- Node1&#45;&gt;Node11 -->
<g id="edge290" class="edge"><title>Node1&#45;&gt;Node11</title>
<path fill="none" stroke="midnightblue" d="M533.934,-793.545C667.989,-793.789 1037,-785.181 1037,-683 1037,-683 1037,-683 1037,-569 1037,-437.906 1050.53,-402.954 1096,-280 1099.57,-270.36 1104.97,-260.3 1109.85,-252.143"/>
<polygon fill="midnightblue" stroke="midnightblue" points="1112.86,-253.918 1115.18,-243.58 1106.92,-250.216 1112.86,-253.918"/>
</g>
<!-- Node17 -->
<g id="node47" class="node"><title>Node17</title>
<a xlink:href="_s_l_mesh_8h.html" target="_top" xlink:title="SLMesh.h">
<polygon fill="white" stroke="black" points="491.5,-336.5 491.5,-355.5 554.5,-355.5 554.5,-336.5 491.5,-336.5"/>
<text text-anchor="middle" x="523" y="-343.5" font-family="Arial.ttf" font-size="10.00">SLMesh.h</text>
</a>
</g>
<!-- Node1&#45;&gt;Node17 -->
<g id="edge266" class="edge"><title>Node1&#45;&gt;Node17</title>
<path fill="none" stroke="midnightblue" d="M477.403,-784.465C460.813,-767.039 426,-725.419 426,-683 426,-683 426,-683 426,-457 426,-413.347 469.505,-378.828 498.244,-360.787"/>
<polygon fill="midnightblue" stroke="midnightblue" points="500.226,-363.679 506.982,-355.518 496.611,-357.684 500.226,-363.679"/>
</g>
<!-- Node20 -->
<g id="node59" class="node"><title>Node20</title>
<a xlink:href="_s_l_raytracer_8h.html" target="_top" xlink:title="SLRaytracer.h">
<polygon fill="white" stroke="black" points="737.5,-280.5 737.5,-299.5 820.5,-299.5 820.5,-280.5 737.5,-280.5"/>
<text text-anchor="middle" x="779" y="-287.5" font-family="Arial.ttf" font-size="10.00">SLRaytracer.h</text>
</a>
</g>
<!-- Node1&#45;&gt;Node20 -->
<g id="edge78" class="edge"><title>Node1&#45;&gt;Node20</title>
<path fill="none" stroke="midnightblue" d="M533.703,-784.761C614.835,-769.382 771,-733.252 771,-683 771,-683 771,-683 771,-513 771,-467.404 784.984,-457.419 789,-412 789.783,-403.146 789.438,-400.878 789,-392 787.577,-363.178 783.882,-329.898 781.404,-309.66"/>
<polygon fill="midnightblue" stroke="midnightblue" points="784.863,-309.111 780.144,-299.625 777.918,-309.984 784.863,-309.111"/>
</g>
<!-- Node21 -->
<g id="node64" class="node"><title>Node21</title>
<a xlink:href="_s_l_camera_8h.html" target="_top" xlink:title="SLCamera.h">
<polygon fill="white" stroke="black" points="1255,-448.5 1255,-467.5 1331,-467.5 1331,-448.5 1255,-448.5"/>
<text text-anchor="middle" x="1293" y="-455.5" font-family="Arial.ttf" font-size="10.00">SLCamera.h</text>
</a>
</g>
<!-- Node1&#45;&gt;Node21 -->
<g id="edge86" class="edge"><title>Node1&#45;&gt;Node21</title>
<path fill="none" stroke="midnightblue" d="M533.591,-791.408C651.336,-787.116 953.762,-773.85 1051,-748 1116.52,-730.582 1189,-750.796 1189,-683 1189,-683 1189,-683 1189,-569 1189,-524.223 1235.06,-490.325 1265.88,-472.658"/>
<polygon fill="midnightblue" stroke="midnightblue" points="1267.81,-475.59 1274.88,-467.702 1264.44,-469.457 1267.81,-475.59"/>
</g>
<!-- Node22 -->
<g id="node68" class="node"><title>Node22</title>
<a xlink:href="_s_l_node_8h.html" target="_top" xlink:title="SLNode.h">
<polygon fill="white" stroke="black" points="511.5,-392.5 511.5,-411.5 574.5,-411.5 574.5,-392.5 511.5,-392.5"/>
<text text-anchor="middle" x="543" y="-399.5" font-family="Arial.ttf" font-size="10.00">SLNode.h</text>
</a>
</g>
<!-- Node1&#45;&gt;Node22 -->
<g id="edge264" class="edge"><title>Node1&#45;&gt;Node22</title>
<path fill="none" stroke="midnightblue" d="M485.607,-784.474C484.56,-758.843 482.344,-680.284 491,-616 500.851,-542.838 525.62,-458.283 537.05,-421.586"/>
<polygon fill="midnightblue" stroke="midnightblue" points="540.467,-422.389 540.138,-411.799 533.791,-420.283 540.467,-422.389"/>
</g>
<!-- Node32 -->
<g id="node99" class="node"><title>Node32</title>
<a xlink:href="_s_l_samples2_d_8h.html" target="_top" xlink:title="SLSamples2D.h">
<polygon fill="white" stroke="black" points="1387.5,-392.5 1387.5,-411.5 1480.5,-411.5 1480.5,-392.5 1387.5,-392.5"/>
<text text-anchor="middle" x="1434" y="-399.5" font-family="Arial.ttf" font-size="10.00">SLSamples2D.h</text>
</a>
</g>
<!-- Node1&#45;&gt;Node32 -->
<g id="edge288" class="edge"><title>Node1&#45;&gt;Node32</title>
<path fill="none" stroke="midnightblue" d="M533.545,-793.087C738.602,-792.846 1537,-785.337 1537,-683 1537,-683 1537,-683 1537,-569 1537,-505.136 1481.28,-445.413 1451.8,-418.29"/>
<polygon fill="midnightblue" stroke="midnightblue" points="1454.04,-415.593 1444.25,-411.528 1449.37,-420.807 1454.04,-415.593"/>
</g>
<!-- Node33 -->
<g id="node104" class="node"><title>Node33</title>
<a xlink:href="_s_l_scene_view_8h.html" target="_top" xlink:title="SLSceneView.h">
<polygon fill="white" stroke="black" points="802.5,-728.5 802.5,-747.5 891.5,-747.5 891.5,-728.5 802.5,-728.5"/>
<text text-anchor="middle" x="847" y="-735.5" font-family="Arial.ttf" font-size="10.00">SLSceneView.h</text>
</a>
</g>
<!-- Node1&#45;&gt;Node33 -->
<g id="edge142" class="edge"><title>Node1&#45;&gt;Node33</title>
<path fill="none" stroke="midnightblue" d="M533.566,-785.885C600.446,-775.881 721.966,-757.703 792.436,-747.162"/>
<polygon fill="midnightblue" stroke="midnightblue" points="793.078,-750.605 802.45,-745.664 792.042,-743.682 793.078,-750.605"/>
</g>
<!-- Node36 -->
<g id="node116" class="node"><title>Node36</title>
<a xlink:href="_s_l_light_8h.html" target="_top" xlink:title="SLLight.h">
<polygon fill="white" stroke="black" points="28.5,-392.5 28.5,-411.5 89.5,-411.5 89.5,-392.5 28.5,-392.5"/>
<text text-anchor="middle" x="59" y="-399.5" font-family="Arial.ttf" font-size="10.00">SLLight.h</text>
</a>
</g>
<!-- Node1&#45;&gt;Node36 -->
<g id="edge262" class="edge"><title>Node1&#45;&gt;Node36</title>
<path fill="none" stroke="midnightblue" d="M438.413,-788.684C339.747,-778.417 122,-748.357 122,-683 122,-683 122,-683 122,-513 122,-482.902 118.197,-473.98 103,-448 96.4953,-436.88 86.6488,-426.457 77.9186,-418.448"/>
<polygon fill="midnightblue" stroke="midnightblue" points="80.1739,-415.771 70.3428,-411.821 75.5651,-421.04 80.1739,-415.771"/>
</g>
<!-- Node47 -->
<g id="node169" class="node"><title>Node47</title>
<a xlink:href="_s_l_light_sphere_8h.html" target="_top" xlink:title="SLLightSphere.h">
<polygon fill="white" stroke="black" points="188.5,-448.5 188.5,-467.5 283.5,-467.5 283.5,-448.5 188.5,-448.5"/>
<text text-anchor="middle" x="236" y="-455.5" font-family="Arial.ttf" font-size="10.00">SLLightSphere.h</text>
</a>
</g>
<!-- Node1&#45;&gt;Node47 -->
<g id="edge244" class="edge"><title>Node1&#45;&gt;Node47</title>
<path fill="none" stroke="midnightblue" d="M438.417,-790.934C370.795,-785.157 255,-763.509 255,-683 255,-683 255,-683 255,-569 255,-536.489 246.841,-499.35 241.216,-477.61"/>
<polygon fill="midnightblue" stroke="midnightblue" points="244.541,-476.498 238.562,-467.751 237.782,-478.317 244.541,-476.498"/>
</g>
<!-- Node48 -->
<g id="node175" class="node"><title>Node48</title>
<a xlink:href="_s_l_light_rect_8h.html" target="_top" xlink:title="SLLightRect.h">
<polygon fill="white" stroke="black" points="12,-448.5 12,-467.5 94,-467.5 94,-448.5 12,-448.5"/>
<text text-anchor="middle" x="53" y="-455.5" font-family="Arial.ttf" font-size="10.00">SLLightRect.h</text>
</a>
</g>
<!-- Node1&#45;&gt;Node48 -->
<g id="edge254" class="edge"><title>Node1&#45;&gt;Node48</title>
<path fill="none" stroke="midnightblue" d="M438.317,-792.461C349.197,-790.633 161.539,-782.653 108,-748 79.7173,-729.694 69,-716.69 69,-683 69,-683 69,-683 69,-569 69,-536.626 62.1292,-499.445 57.3926,-477.659"/>
<polygon fill="midnightblue" stroke="midnightblue" points="60.7774,-476.759 55.1578,-467.777 53.9498,-478.303 60.7774,-476.759"/>
</g>
<!-- Node49 -->
<g id="node183" class="node"><title>Node49</title>
<a xlink:href="_s_l_text_8h.html" target="_top" xlink:title="SLText.h">
<polygon fill="white" stroke="black" points="340,-448.5 340,-467.5 398,-467.5 398,-448.5 340,-448.5"/>
<text text-anchor="middle" x="369" y="-455.5" font-family="Arial.ttf" font-size="10.00">SLText.h</text>
</a>
</g>
<!-- Node1&#45;&gt;Node49 -->
<g id="edge268" class="edge"><title>Node1&#45;&gt;Node49</title>
<path fill="none" stroke="midnightblue" d="M465.728,-784.399C449.575,-776.738 427.221,-764.234 412,-748 389.701,-724.216 378,-715.602 378,-683 378,-683 378,-683 378,-569 378,-536.841 374.132,-499.569 371.467,-477.711"/>
<polygon fill="midnightblue" stroke="midnightblue" points="374.907,-477.018 370.177,-467.538 367.963,-477.899 374.907,-477.018"/>
</g>
<!-- Node3&#45;&gt;Node2 -->
<g id="edge6" class="edge"><title>Node3&#45;&gt;Node2</title>
<path fill="none" stroke="midnightblue" d="M747.995,-392.494C736.812,-372.324 711.992,-320.265 728,-280 736.131,-259.549 751.053,-263.092 762,-244 776.971,-217.89 781,-209.098 781,-179 781,-179 781,-179 781,-121 781,-54.1978 871.918,-26.8752 925.234,-16.5957"/>
<polygon fill="midnightblue" stroke="midnightblue" points="926.143,-19.9882 935.358,-14.7604 924.894,-13.1004 926.143,-19.9882"/>
</g>
<!-- Node4 -->
<g id="node8" class="node"><title>Node4</title>
<a xlink:href="_s_l_material_8h.html" target="_top" xlink:title="SLMaterial.h">
<polygon fill="white" stroke="black" points="947,-336.5 947,-355.5 1023,-355.5 1023,-336.5 947,-336.5"/>
<text text-anchor="middle" x="985" y="-343.5" font-family="Arial.ttf" font-size="10.00">SLMaterial.h</text>
</a>
</g>
<!-- Node3&#45;&gt;Node4 -->
<g id="edge8" class="edge"><title>Node3&#45;&gt;Node4</title>
<path fill="none" stroke="midnightblue" d="M780.524,-394.593C819.439,-385.536 891.059,-368.865 938.362,-357.855"/>
<polygon fill="midnightblue" stroke="midnightblue" points="939.413,-361.204 948.359,-355.529 937.826,-354.387 939.413,-361.204"/>
</g>
<!-- Node3&#45;&gt;Node17 -->
<g id="edge60" class="edge"><title>Node3&#45;&gt;Node17</title>
<path fill="none" stroke="midnightblue" d="M725.257,-394.486C685.185,-385.078 610.823,-367.619 564.29,-356.694"/>
<polygon fill="midnightblue" stroke="midnightblue" points="565.056,-353.279 554.521,-354.401 563.456,-360.094 565.056,-353.279"/>
</g>
<!-- Node4&#45;&gt;Node2 -->
<g id="edge10" class="edge"><title>Node4&#45;&gt;Node2</title>
<path fill="none" stroke="midnightblue" d="M976.041,-336.205C953.277,-312.868 895,-246.532 895,-179 895,-179 895,-179 895,-121 895,-82.5481 925.435,-46.3127 945.582,-26.538"/>
<polygon fill="midnightblue" stroke="midnightblue" points="948.098,-28.9765 952.966,-19.5666 943.292,-23.8865 948.098,-28.9765"/>
</g>
<!-- Node5 -->
<g id="node11" class="node"><title>Node5</title>
<a xlink:href="_s_l_draw_bits_8h.html" target="_top" xlink:title="SLDrawBits.h">
<polygon fill="white" stroke="black" points="563,-280.5 563,-299.5 643,-299.5 643,-280.5 563,-280.5"/>
<text text-anchor="middle" x="603" y="-287.5" font-family="Arial.ttf" font-size="10.00">SLDrawBits.h</text>
</a>
</g>
<!-- Node4&#45;&gt;Node5 -->
<g id="edge12" class="edge"><title>Node4&#45;&gt;Node5</title>
<path fill="none" stroke="midnightblue" d="M946.812,-337.503C943.834,-336.975 940.87,-336.467 938,-336 837.252,-319.6 718.752,-304.711 653.137,-296.851"/>
<polygon fill="midnightblue" stroke="midnightblue" points="653.415,-293.36 643.071,-295.651 652.586,-300.311 653.415,-293.36"/>
</g>
<!-- Node4&#45;&gt;Node6 -->
<g id="edge16" class="edge"><title>Node4&#45;&gt;Node6</title>
<path fill="none" stroke="midnightblue" d="M969.158,-336.492C941.571,-322.119 882.533,-293.297 829,-280 674.671,-241.666 485.506,-235.336 395.072,-234.7"/>
<polygon fill="midnightblue" stroke="midnightblue" points="395.081,-231.2 385.064,-234.65 395.046,-238.2 395.081,-231.2"/>
</g>
<!-- Node4&#45;&gt;Node11 -->
<g id="edge38" class="edge"><title>Node4&#45;&gt;Node11</title>
<path fill="none" stroke="midnightblue" d="M995.004,-336.473C1009.76,-323.941 1038.27,-299.884 1063,-280 1075.82,-269.689 1090.46,-258.334 1101.82,-249.61"/>
<polygon fill="midnightblue" stroke="midnightblue" points="1103.98,-252.37 1109.79,-243.512 1099.72,-246.811 1103.98,-252.37"/>
</g>
<!-- Node15 -->
<g id="node41" class="node"><title>Node15</title>
<a xlink:href="_s_l_g_l_generic_program_8h.html" target="_top" xlink:title="SLGLGenericProgram.h">
<polygon fill="white" stroke="black" points="1105,-280.5 1105,-299.5 1233,-299.5 1233,-280.5 1105,-280.5"/>
<text text-anchor="middle" x="1169" y="-287.5" font-family="Arial.ttf" font-size="10.00">SLGLGenericProgram.h</text>
</a>
</g>
<!-- Node4&#45;&gt;Node15 -->
<g id="edge52" class="edge"><title>Node4&#45;&gt;Node15</title>
<path fill="none" stroke="midnightblue" d="M1014.16,-336.444C1045.51,-327.241 1095.53,-312.562 1130.2,-302.388"/>
<polygon fill="midnightblue" stroke="midnightblue" points="1131.37,-305.691 1139.98,-299.516 1129.4,-298.974 1131.37,-305.691"/>
</g>
<!-- Node5&#45;&gt;Node2 -->
<g id="edge14" class="edge"><title>Node5&#45;&gt;Node2</title>
<path fill="none" stroke="midnightblue" d="M604.554,-280.234C607.049,-267.404 612.639,-242.98 622,-224 662.932,-141.005 667.151,-106.03 745,-56 800.496,-20.3351 878.912,-12.225 925.006,-10.78"/>
<polygon fill="midnightblue" stroke="midnightblue" points="925.243,-14.2757 935.163,-10.5537 925.087,-7.27739 925.243,-14.2757"/>
</g>
<!-- Node6&#45;&gt;Node2 -->
<g id="edge18" class="edge"><title>Node6&#45;&gt;Node2</title>
<path fill="none" stroke="midnightblue" d="M345.046,-224.36C356.014,-194.697 396.612,-96.6007 467,-56 544.854,-11.0929 823.361,-9.44582 925.284,-10.4126"/>
<polygon fill="midnightblue" stroke="midnightblue" points="925.388,-13.9138 935.425,-10.5233 925.464,-6.91425 925.388,-13.9138"/>
</g>
<!-- Node7 -->
<g id="node17" class="node"><title>Node7</title>
<a xlink:href="_s_l_image_8h.html" target="_top" xlink:title="SLImage.h">
<polygon fill="white" stroke="black" points="303,-56.5 303,-75.5 371,-75.5 371,-56.5 303,-56.5"/>
<text text-anchor="middle" x="337" y="-63.5" font-family="Arial.ttf" font-size="10.00">SLImage.h</text>
</a>
</g>
<!-- Node6&#45;&gt;Node7 -->
<g id="edge20" class="edge"><title>Node6&#45;&gt;Node7</title>
<path fill="none" stroke="midnightblue" d="M341.731,-224.075C340.944,-197.945 338.633,-121.211 337.56,-85.577"/>
<polygon fill="midnightblue" stroke="midnightblue" points="341.058,-85.4582 337.258,-75.5681 334.061,-85.669 341.058,-85.4582"/>
</g>
<!-- Node8 -->
<g id="node20" class="node"><title>Node8</title>
<a xlink:href="_s_l_g_l_vertex_array_8h.html" target="_top" xlink:title="SLGLVertexArray.h">
<polygon fill="white" stroke="black" points="431.5,-168.5 431.5,-187.5 538.5,-187.5 538.5,-168.5 431.5,-168.5"/>
<text text-anchor="middle" x="485" y="-175.5" font-family="Arial.ttf" font-size="10.00">SLGLVertexArray.h</text>
</a>
</g>
<!-- Node6&#45;&gt;Node8 -->
<g id="edge24" class="edge"><title>Node6&#45;&gt;Node8</title>
<path fill="none" stroke="midnightblue" d="M364.659,-224.444C388.402,-215.478 425.909,-201.314 452.738,-191.183"/>
<polygon fill="midnightblue" stroke="midnightblue" points="454.329,-194.324 462.447,-187.516 451.856,-187.775 454.329,-194.324"/>
</g>
<!-- Node7&#45;&gt;Node2 -->
<g id="edge22" class="edge"><title>Node7&#45;&gt;Node2</title>
<path fill="none" stroke="midnightblue" d="M371.016,-58.1539C375.701,-57.348 380.461,-56.6004 385,-56 587.726,-29.182 832.727,-16.5879 925.214,-12.532"/>
<polygon fill="midnightblue" stroke="midnightblue" points="925.376,-16.0283 935.216,-12.1008 925.075,-9.03484 925.376,-16.0283"/>
</g>
<!-- Node8&#45;&gt;Node2 -->
<g id="edge26" class="edge"><title>Node8&#45;&gt;Node2</title>
<path fill="none" stroke="midnightblue" d="M481.237,-168.299C472.366,-146.281 452.993,-87.8475 482,-56 511.685,-23.4079 817.049,-13.9977 925.247,-11.6752"/>
<polygon fill="midnightblue" stroke="midnightblue" points="925.457,-15.1717 935.383,-11.4661 925.313,-8.17317 925.457,-15.1717"/>
</g>
<!-- Node9 -->
<g id="node23" class="node"><title>Node9</title>
<a xlink:href="_s_l_g_l_enums_8h.html" target="_top" xlink:title="SLGLEnums.h">
<polygon fill="white" stroke="black" points="491.5,-56.5 491.5,-75.5 574.5,-75.5 574.5,-56.5 491.5,-56.5"/>
<text text-anchor="middle" x="533" y="-63.5" font-family="Arial.ttf" font-size="10.00">SLGLEnums.h</text>
</a>
</g>
<!-- Node8&#45;&gt;Node9 -->
<g id="edge28" class="edge"><title>Node8&#45;&gt;Node9</title>
<path fill="none" stroke="midnightblue" d="M484.669,-168.153C484.521,-155.223 485.529,-130.675 494,-112 498.997,-100.984 507.572,-90.6384 515.412,-82.6506"/>
<polygon fill="midnightblue" stroke="midnightblue" points="518.057,-84.9625 522.846,-75.5116 513.209,-79.9135 518.057,-84.9625"/>
</g>
<!-- Node10 -->
<g id="node26" class="node"><title>Node10</title>
<a xlink:href="_s_l_g_l_vertex_buffer_8h.html" target="_top" xlink:title="SLGLVertexBuffer.h">
<polygon fill="white" stroke="black" points="503,-112.5 503,-131.5 613,-131.5 613,-112.5 503,-112.5"/>
<text text-anchor="middle" x="558" y="-119.5" font-family="Arial.ttf" font-size="10.00">SLGLVertexBuffer.h</text>
</a>
</g>
<!-- Node8&#45;&gt;Node10 -->
<g id="edge32" class="edge"><title>Node8&#45;&gt;Node10</title>
<path fill="none" stroke="midnightblue" d="M496.729,-168.324C507.837,-160.107 524.742,-147.602 537.983,-137.807"/>
<polygon fill="midnightblue" stroke="midnightblue" points="540.1,-140.595 546.058,-131.834 535.937,-134.967 540.1,-140.595"/>
</g>
<!-- Node9&#45;&gt;Node2 -->
<g id="edge30" class="edge"><title>Node9&#45;&gt;Node2</title>
<path fill="none" stroke="midnightblue" d="M574.562,-58.1326C579.425,-57.3848 584.319,-56.6574 589,-56 711.641,-38.7736 857.491,-22.4092 925.105,-15.0576"/>
<polygon fill="midnightblue" stroke="midnightblue" points="925.704,-18.5132 935.269,-13.9563 924.95,-11.5539 925.704,-18.5132"/>
</g>
<!-- Node10&#45;&gt;Node2 -->
<g id="edge34" class="edge"><title>Node10&#45;&gt;Node2</title>
<path fill="none" stroke="midnightblue" d="M564.106,-112.493C574.947,-98.1206 599.065,-69.3001 627,-56 679.148,-31.1725 848.832,-17.9637 925.176,-13.1514"/>
<polygon fill="midnightblue" stroke="midnightblue" points="925.542,-16.6357 935.308,-12.5278 925.111,-9.64888 925.542,-16.6357"/>
</g>
<!-- Node10&#45;&gt;Node9 -->
<g id="edge36" class="edge"><title>Node10&#45;&gt;Node9</title>
<path fill="none" stroke="midnightblue" d="M553.872,-112.083C550.486,-104.77 545.584,-94.1814 541.381,-85.1034"/>
<polygon fill="midnightblue" stroke="midnightblue" points="544.429,-83.3553 537.051,-75.7511 538.077,-86.2962 544.429,-83.3553"/>
</g>
<!-- Node11&#45;&gt;Node2 -->
<g id="edge40" class="edge"><title>Node11&#45;&gt;Node2</title>
<path fill="none" stroke="midnightblue" d="M1104.94,-224.348C1091.18,-216.327 1071.5,-203.339 1058,-188 1013.72,-137.676 982.381,-63.1469 969.51,-29.1243"/>
<polygon fill="midnightblue" stroke="midnightblue" points="972.734,-27.7518 965.987,-19.5833 966.168,-30.1766 972.734,-27.7518"/>
</g>
<!-- Node12 -->
<g id="node33" class="node"><title>Node12</title>
<a xlink:href="_s_l_g_l_uniform_8h.html" target="_top" xlink:title="SLGLUniform.h">
<polygon fill="white" stroke="black" points="1067.5,-168.5 1067.5,-187.5 1156.5,-187.5 1156.5,-168.5 1067.5,-168.5"/>
<text text-anchor="middle" x="1112" y="-175.5" font-family="Arial.ttf" font-size="10.00">SLGLUniform.h</text>
</a>
</g>
<!-- Node11&#45;&gt;Node12 -->
<g id="edge42" class="edge"><title>Node11&#45;&gt;Node12</title>
<path fill="none" stroke="midnightblue" d="M1119.51,-224.083C1118.32,-216.927 1116.61,-206.635 1115.12,-197.691"/>
<polygon fill="midnightblue" stroke="midnightblue" points="1118.55,-197.04 1113.46,-187.751 1111.65,-198.19 1118.55,-197.04"/>
</g>
<!-- Node12&#45;&gt;Node2 -->
<g id="edge44" class="edge"><title>Node12&#45;&gt;Node2</title>
<path fill="none" stroke="midnightblue" d="M1105.91,-168.349C1091.31,-147.863 1052.73,-95.173 1015,-56 1004.78,-45.3853 992.323,-34.5446 982.166,-26.1638"/>
<polygon fill="midnightblue" stroke="midnightblue" points="984.245,-23.3434 974.274,-19.7614 979.835,-28.7796 984.245,-23.3434"/>
</g>
<!-- Node13 -->
<g id="node36" class="node"><title>Node13</title>
<a xlink:href="_s_l_event_handler_8h.html" target="_top" xlink:title="SLEventHandler.h">
<polygon fill="white" stroke="black" points="1209,-112.5 1209,-131.5 1311,-131.5 1311,-112.5 1209,-112.5"/>
<text text-anchor="middle" x="1260" y="-119.5" font-family="Arial.ttf" font-size="10.00">SLEventHandler.h</text>
</a>
</g>
<!-- Node12&#45;&gt;Node13 -->
<g id="edge46" class="edge"><title>Node12&#45;&gt;Node13</title>
<path fill="none" stroke="midnightblue" d="M1135.45,-168.444C1160.13,-159.438 1199.19,-145.189 1226.98,-135.049"/>
<polygon fill="midnightblue" stroke="midnightblue" points="1228.46,-138.232 1236.66,-131.516 1226.06,-131.656 1228.46,-138.232"/>
</g>
<!-- Node13&#45;&gt;Node2 -->
<g id="edge48" class="edge"><title>Node13&#45;&gt;Node2</title>
<path fill="none" stroke="midnightblue" d="M1254.86,-112.181C1246.01,-97.8792 1226.49,-69.8353 1202,-56 1137.95,-19.8228 1050.39,-12.0446 1000.98,-10.767"/>
<polygon fill="midnightblue" stroke="midnightblue" points="1000.81,-7.26333 990.746,-10.5821 1000.68,-14.2622 1000.81,-7.26333"/>
</g>
<!-- Node14 -->
<g id="node39" class="node"><title>Node14</title>
<a xlink:href="_s_l_enums_8h.html" target="_top" xlink:title="SLEnums.h">
<polygon fill="white" stroke="black" points="2017.5,-56.5 2017.5,-75.5 2088.5,-75.5 2088.5,-56.5 2017.5,-56.5"/>
<text text-anchor="middle" x="2053" y="-63.5" font-family="Arial.ttf" font-size="10.00">SLEnums.h</text>
</a>
</g>
<!-- Node13&#45;&gt;Node14 -->
<g id="edge50" class="edge"><title>Node13&#45;&gt;Node14</title>
<path fill="none" stroke="midnightblue" d="M1311.12,-117.519C1456.17,-107.642 1868.78,-79.5447 2007.14,-70.1231"/>
<polygon fill="midnightblue" stroke="midnightblue" points="2007.64,-73.5969 2017.38,-69.4255 2007.17,-66.613 2007.64,-73.5969"/>
</g>
<!-- Node15&#45;&gt;Node11 -->
<g id="edge58" class="edge"><title>Node15&#45;&gt;Node11</title>
<path fill="none" stroke="midnightblue" d="M1161.07,-280.083C1154.15,-272.298 1143.93,-260.801 1135.55,-251.367"/>
<polygon fill="midnightblue" stroke="midnightblue" points="1138.04,-248.9 1128.78,-243.751 1132.81,-253.55 1138.04,-248.9"/>
</g>
<!-- Node16 -->
<g id="node43" class="node"><title>Node16</title>
<a xlink:href="_s_l_object_8h.html" target="_top" xlink:title="SLObject.h">
<polygon fill="white" stroke="black" points="1125,-56.5 1125,-75.5 1193,-75.5 1193,-56.5 1125,-56.5"/>
<text text-anchor="middle" x="1159" y="-63.5" font-family="Arial.ttf" font-size="10.00">SLObject.h</text>
</a>
</g>
<!-- Node15&#45;&gt;Node16 -->
<g id="edge54" class="edge"><title>Node15&#45;&gt;Node16</title>
<path fill="none" stroke="midnightblue" d="M1170.74,-280.419C1172.47,-271.399 1175.01,-256.77 1176,-244 1180.47,-186.182 1169.23,-117.91 1162.92,-85.6594"/>
<polygon fill="midnightblue" stroke="midnightblue" points="1166.35,-84.937 1160.93,-75.8302 1159.49,-86.3258 1166.35,-84.937"/>
</g>
<!-- Node16&#45;&gt;Node2 -->
<g id="edge56" class="edge"><title>Node16&#45;&gt;Node2</title>
<path fill="none" stroke="midnightblue" d="M1127.94,-56.4435C1093.41,-46.9293 1037.63,-31.5622 1000.64,-21.3713"/>
<polygon fill="midnightblue" stroke="midnightblue" points="1001.31,-17.9253 990.742,-18.6433 999.454,-24.6738 1001.31,-17.9253"/>
</g>
<!-- Node17&#45;&gt;Node2 -->
<g id="edge62" class="edge"><title>Node17&#45;&gt;Node2</title>
<path fill="none" stroke="midnightblue" d="M491.353,-338.659C486.549,-337.74 481.647,-336.826 477,-336 427.146,-327.137 289.984,-333.485 252,-300 229.423,-280.097 233,-265.098 233,-235 233,-235 233,-235 233,-121 233,-87.0792 243.943,-73.5019 273,-56 328.943,-22.3038 788.337,-13.3784 924.872,-11.4591"/>
<polygon fill="midnightblue" stroke="midnightblue" points="925.288,-14.9539 935.239,-11.3183 925.193,-7.95455 925.288,-14.9539"/>
</g>
<!-- Node17&#45;&gt;Node8 -->
<g id="edge74" class="edge"><title>Node17&#45;&gt;Node8</title>
<path fill="none" stroke="midnightblue" d="M520.957,-336.075C514.975,-309.945 497.41,-233.211 489.253,-197.577"/>
<polygon fill="midnightblue" stroke="midnightblue" points="492.605,-196.535 486.961,-187.568 485.781,-198.097 492.605,-196.535"/>
</g>
<!-- Node17&#45;&gt;Node14 -->
<g id="edge76" class="edge"><title>Node17&#45;&gt;Node14</title>
<path fill="none" stroke="midnightblue" d="M554.692,-344.141C685.212,-340.45 1177.32,-324.984 1242,-300 1366.77,-251.804 1352.61,-161.159 1477,-112 1573.21,-73.9783 1888.34,-68.0131 2007.14,-67.1303"/>
<polygon fill="midnightblue" stroke="midnightblue" points="2007.37,-70.6289 2017.34,-67.0635 2007.32,-63.6291 2007.37,-70.6289"/>
</g>
<!-- Node18 -->
<g id="node50" class="node"><title>Node18</title>
<a xlink:href="_s_l_a_a_b_box_8h.html" target="_top" xlink:title="SLAABBox.h">
<polygon fill="white" stroke="black" points="393,-280.5 393,-299.5 469,-299.5 469,-280.5 393,-280.5"/>
<text text-anchor="middle" x="431" y="-287.5" font-family="Arial.ttf" font-size="10.00">SLAABBox.h</text>
</a>
</g>
<!-- Node17&#45;&gt;Node18 -->
<g id="edge64" class="edge"><title>Node17&#45;&gt;Node18</title>
<path fill="none" stroke="midnightblue" d="M508.219,-336.324C493.733,-327.822 471.427,-314.729 454.507,-304.797"/>
<polygon fill="midnightblue" stroke="midnightblue" points="456.141,-301.698 445.745,-299.655 452.597,-307.735 456.141,-301.698"/>
</g>
<!-- Node18&#45;&gt;Node2 -->
<g id="edge66" class="edge"><title>Node18&#45;&gt;Node2</title>
<path fill="none" stroke="midnightblue" d="M441.794,-280.177C470.928,-256.352 553.58,-188.69 622,-132 662.576,-98.3805 665.257,-78.2993 713,-56 783.13,-23.2444 874.611,-14.2512 925.201,-11.834"/>
<polygon fill="midnightblue" stroke="midnightblue" points="925.508,-15.3244 935.354,-11.4119 925.217,-8.33045 925.508,-15.3244"/>
</g>
<!-- Node19 -->
<g id="node53" class="node"><title>Node19</title>
<a xlink:href="_s_l_g_l_vertex_array_ext_8h.html" target="_top" xlink:title="SLGLVertexArrayExt.h">
<polygon fill="white" stroke="black" points="631,-224.5 631,-243.5 753,-243.5 753,-224.5 631,-224.5"/>
<text text-anchor="middle" x="692" y="-231.5" font-family="Arial.ttf" font-size="10.00">SLGLVertexArrayExt.h</text>
</a>
</g>
<!-- Node18&#45;&gt;Node19 -->
<g id="edge68" class="edge"><title>Node18&#45;&gt;Node19</title>
<path fill="none" stroke="midnightblue" d="M469.231,-281.09C514.535,-271.717 590.212,-256.06 640.609,-245.633"/>
<polygon fill="midnightblue" stroke="midnightblue" points="641.564,-249.009 650.647,-243.556 640.145,-242.154 641.564,-249.009"/>
</g>
<!-- Node19&#45;&gt;Node2 -->
<g id="edge70" class="edge"><title>Node19&#45;&gt;Node2</title>
<path fill="none" stroke="midnightblue" d="M692.924,-224.382C696.489,-195.613 712.02,-102.107 767,-56 790.664,-36.1554 875.228,-22.2476 925.217,-15.5486"/>
<polygon fill="midnightblue" stroke="midnightblue" points="925.862,-18.9942 935.325,-14.229 924.956,-12.0531 925.862,-18.9942"/>
</g>
<!-- Node19&#45;&gt;Node8 -->
<g id="edge72" class="edge"><title>Node19&#45;&gt;Node8</title>
<path fill="none" stroke="midnightblue" d="M659.2,-224.444C623.62,-215.162 566.686,-200.309 527.653,-190.127"/>
<polygon fill="midnightblue" stroke="midnightblue" points="528.206,-186.654 517.646,-187.516 526.439,-193.427 528.206,-186.654"/>
</g>
<!-- Node20&#45;&gt;Node2 -->
<g id="edge80" class="edge"><title>Node20&#45;&gt;Node2</title>
<path fill="none" stroke="midnightblue" d="M784.562,-280.269C795.553,-262.15 819,-218.828 819,-179 819,-179 819,-179 819,-121 819,-90.2048 821.28,-77.8306 843,-56 865.097,-33.7903 899.191,-22.3986 925.398,-16.6436"/>
<polygon fill="midnightblue" stroke="midnightblue" points="926.258,-20.0409 935.371,-14.6377 924.878,-13.1783 926.258,-20.0409"/>
</g>
<!-- Node20&#45;&gt;Node6 -->
<g id="edge82" class="edge"><title>Node20&#45;&gt;Node6</title>
<path fill="none" stroke="midnightblue" d="M737.494,-283.871C657.773,-274.02 483.339,-252.465 395.21,-241.575"/>
<polygon fill="midnightblue" stroke="midnightblue" points="395.513,-238.086 385.159,-240.333 394.654,-245.033 395.513,-238.086"/>
</g>
<!-- Node20&#45;&gt;Node13 -->
<g id="edge84" class="edge"><title>Node20&#45;&gt;Node13</title>
<path fill="none" stroke="midnightblue" d="M820.666,-286.242C882.847,-281.347 995.947,-269.189 1027,-244 1055.33,-221.019 1030.13,-191.538 1058,-168 1079.04,-150.232 1147.3,-137.609 1198.69,-130.339"/>
<polygon fill="midnightblue" stroke="midnightblue" points="1199.3,-133.789 1208.73,-128.957 1198.35,-126.854 1199.3,-133.789"/>
</g>
<!-- Node21&#45;&gt;Node2 -->
<g id="edge88" class="edge"><title>Node21&#45;&gt;Node2</title>
<path fill="none" stroke="midnightblue" d="M1300.8,-448.296C1320.37,-425.796 1371.25,-363.044 1389,-300 1418.7,-194.483 1437.73,-125.551 1353,-56 1299.84,-12.3592 1088.08,-9.56046 1000.85,-10.3299"/>
<polygon fill="midnightblue" stroke="midnightblue" points="1000.57,-6.83274 990.609,-10.4421 1000.65,-13.8323 1000.57,-6.83274"/>
</g>
<!-- Node21&#45;&gt;Node3 -->
<g id="edge138" class="edge"><title>Node21&#45;&gt;Node3</title>
<path fill="none" stroke="midnightblue" d="M1254.6,-453.16C1155.1,-443.21 889.8,-416.68 790.88,-406.788"/>
<polygon fill="midnightblue" stroke="midnightblue" points="791.045,-403.287 780.746,-405.775 790.348,-410.252 791.045,-403.287"/>
</g>
<!-- Node21&#45;&gt;Node14 -->
<g id="edge90" class="edge"><title>Node21&#45;&gt;Node14</title>
<path fill="none" stroke="midnightblue" d="M1331.15,-456.207C1497.97,-452.247 2155,-431.297 2155,-347 2155,-347 2155,-347 2155,-233 2155,-202.902 2150.06,-194.611 2136,-168 2118.19,-134.288 2088.01,-101.326 2069.37,-82.6481"/>
<polygon fill="midnightblue" stroke="midnightblue" points="2071.74,-80.0714 2062.15,-75.5573 2066.83,-85.0635 2071.74,-80.0714"/>
</g>
<!-- Node21&#45;&gt;Node19 -->
<g id="edge140" class="edge"><title>Node21&#45;&gt;Node19</title>
<path fill="none" stroke="midnightblue" d="M1280.21,-448.416C1260.11,-435.169 1219.65,-409.453 1183,-392 1028.37,-318.365 830.537,-267.084 740.51,-245.886"/>
<polygon fill="midnightblue" stroke="midnightblue" points="741.124,-242.436 730.59,-243.57 739.532,-249.252 741.124,-242.436"/>
</g>
<!-- Node21&#45;&gt;Node22 -->
<g id="edge92" class="edge"><title>Node21&#45;&gt;Node22</title>
<path fill="none" stroke="midnightblue" d="M1254.78,-454.248C1127.33,-445.072 717.512,-415.565 584.857,-406.014"/>
<polygon fill="midnightblue" stroke="midnightblue" points="584.926,-402.51 574.701,-405.282 584.424,-409.492 584.926,-402.51"/>
</g>
<!-- Node23 -->
<g id="node76" class="node"><title>Node23</title>
<a xlink:href="_s_l_g_l_state_8h.html" target="_top" xlink:title="SLGLState.h">
<polygon fill="white" stroke="black" points="1575.5,-336.5 1575.5,-355.5 1652.5,-355.5 1652.5,-336.5 1575.5,-336.5"/>
<text text-anchor="middle" x="1614" y="-343.5" font-family="Arial.ttf" font-size="10.00">SLGLState.h</text>
</a>
</g>
<!-- Node21&#45;&gt;Node23 -->
<g id="edge106" class="edge"><title>Node21&#45;&gt;Node23</title>
<path fill="none" stroke="midnightblue" d="M1331.03,-451.217C1371.13,-444.443 1435.76,-431.592 1489,-412 1526.49,-398.204 1567.02,-375.556 1591.45,-360.965"/>
<polygon fill="midnightblue" stroke="midnightblue" points="1593.54,-363.791 1600.29,-355.62 1589.92,-357.802 1593.54,-363.791"/>
</g>
<!-- Node21&#45;&gt;Node32 -->
<g id="edge134" class="edge"><title>Node21&#45;&gt;Node32</title>
<path fill="none" stroke="midnightblue" d="M1315.34,-448.444C1338.75,-439.478 1375.74,-425.314 1402.19,-415.183"/>
<polygon fill="midnightblue" stroke="midnightblue" points="1403.68,-418.361 1411.76,-411.516 1401.17,-411.824 1403.68,-418.361"/>
</g>
<!-- Node22&#45;&gt;Node2 -->
<g id="edge94" class="edge"><title>Node22&#45;&gt;Node2</title>
<path fill="none" stroke="midnightblue" d="M511.195,-400.378C425.287,-396.852 195,-374.399 195,-235 195,-235 195,-235 195,-121 195,-84.8221 212.142,-73.1433 244,-56 304.178,-23.6175 785.657,-13.7283 925.216,-11.5282"/>
<polygon fill="midnightblue" stroke="midnightblue" points="925.469,-15.0248 935.414,-11.3716 925.361,-8.02563 925.469,-15.0248"/>
</g>
<!-- Node22&#45;&gt;Node5 -->
<g id="edge102" class="edge"><title>Node22&#45;&gt;Node5</title>
<path fill="none" stroke="midnightblue" d="M547.708,-392.368C557.522,-374.376 580.336,-332.55 593.385,-308.627"/>
<polygon fill="midnightblue" stroke="midnightblue" points="596.598,-310.046 598.314,-299.591 590.453,-306.694 596.598,-310.046"/>
</g>
<!-- Node22&#45;&gt;Node13 -->
<g id="edge104" class="edge"><title>Node22&#45;&gt;Node13</title>
<path fill="none" stroke="midnightblue" d="M574.633,-399.506C668.622,-394.844 945.059,-379.46 1032,-356 1052.35,-350.509 1055.02,-342.707 1075,-336 1146.98,-311.84 1193.19,-358.162 1242,-300 1279.74,-255.028 1237.67,-225.963 1247,-168 1248.44,-159.068 1251.08,-149.401 1253.61,-141.324"/>
<polygon fill="midnightblue" stroke="midnightblue" points="1256.94,-142.412 1256.76,-131.819 1250.29,-140.211 1256.94,-142.412"/>
</g>
<!-- Node22&#45;&gt;Node14 -->
<g id="edge96" class="edge"><title>Node22&#45;&gt;Node14</title>
<path fill="none" stroke="midnightblue" d="M574.685,-399.025C673.025,-392.78 972.162,-372.871 1068,-356 1162.29,-339.402 1186.36,-333.623 1276,-300 1401.06,-253.089 1419.45,-210.737 1546,-168 1711.02,-112.272 1917.2,-82.9939 2007.31,-72.089"/>
<polygon fill="midnightblue" stroke="midnightblue" points="2007.94,-75.5386 2017.46,-70.8796 2007.11,-68.5878 2007.94,-75.5386"/>
</g>
<!-- Node22&#45;&gt;Node17 -->
<g id="edge98" class="edge"><title>Node22&#45;&gt;Node17</title>
<path fill="none" stroke="midnightblue" d="M539.697,-392.083C537.018,-384.849 533.151,-374.409 529.814,-365.397"/>
<polygon fill="midnightblue" stroke="midnightblue" points="532.996,-363.913 526.241,-355.751 526.432,-366.344 532.996,-363.913"/>
</g>
<!-- Node22&#45;&gt;Node22 -->
<g id="edge100" class="edge"><title>Node22&#45;&gt;Node22</title>
<path fill="none" stroke="midnightblue" d="M563.899,-411.525C578.099,-414.308 592,-411.133 592,-402 592,-395.079 584.017,-391.579 573.97,-391.501"/>
<polygon fill="midnightblue" stroke="midnightblue" points="573.515,-388.029 563.899,-392.475 574.189,-394.996 573.515,-388.029"/>
</g>
<!-- Node23&#45;&gt;Node2 -->
<g id="edge108" class="edge"><title>Node23&#45;&gt;Node2</title>
<path fill="none" stroke="midnightblue" d="M1609.79,-336.346C1588.05,-291.986 1487.14,-90.8129 1429,-56 1357.09,-12.9424 1098.61,-10.0547 1000.83,-10.5591"/>
<polygon fill="midnightblue" stroke="midnightblue" points="1000.78,-7.05926 990.799,-10.6259 1000.82,-14.0591 1000.78,-7.05926"/>
</g>
<!-- Node24 -->
<g id="node79" class="node"><title>Node24</title>
<a xlink:href="_s_l_stack_8h.html" target="_top" xlink:title="SLStack.h">
<polygon fill="white" stroke="black" points="1719.5,-280.5 1719.5,-299.5 1784.5,-299.5 1784.5,-280.5 1719.5,-280.5"/>
<text text-anchor="middle" x="1752" y="-287.5" font-family="Arial.ttf" font-size="10.00">SLStack.h</text>
</a>
</g>
<!-- Node23&#45;&gt;Node24 -->
<g id="edge110" class="edge"><title>Node23&#45;&gt;Node24</title>
<path fill="none" stroke="midnightblue" d="M1635.87,-336.444C1658.78,-327.478 1694.98,-313.314 1720.87,-303.183"/>
<polygon fill="midnightblue" stroke="midnightblue" points="1722.2,-306.42 1730.24,-299.516 1719.65,-299.901 1722.2,-306.42"/>
</g>
<!-- Node25 -->
<g id="node81" class="node"><title>Node25</title>
<a xlink:href="_s_l_mat4_8h.html" target="_top" xlink:title="SLMat4.h">
<polygon fill="white" stroke="black" points="1846,-224.5 1846,-243.5 1908,-243.5 1908,-224.5 1846,-224.5"/>
<text text-anchor="middle" x="1877" y="-231.5" font-family="Arial.ttf" font-size="10.00">SLMat4.h</text>
</a>
</g>
<!-- Node24&#45;&gt;Node25 -->
<g id="edge112" class="edge"><title>Node24&#45;&gt;Node25</title>
<path fill="none" stroke="midnightblue" d="M1771.81,-280.444C1792.29,-271.596 1824.48,-257.687 1847.86,-247.586"/>
<polygon fill="midnightblue" stroke="midnightblue" points="1849.49,-250.695 1857.29,-243.516 1846.72,-244.269 1849.49,-250.695"/>
</g>
<!-- Node26 -->
<g id="node83" class="node"><title>Node26</title>
<a xlink:href="_s_l_8h.html" target="_top" xlink:title="SL.h">
<polygon fill="white" stroke="red" points="1997,-112.5 1997,-131.5 2035,-131.5 2035,-112.5 1997,-112.5"/>
<text text-anchor="middle" x="2016" y="-119.5" font-family="Arial.ttf" font-size="10.00">SL.h</text>
</a>
</g>
<!-- Node25&#45;&gt;Node26 -->
<g id="edge114" class="edge"><title>Node25&#45;&gt;Node26</title>
<path fill="none" stroke="midnightblue" d="M1877.17,-224.23C1877.91,-210.497 1881.28,-183.855 1896,-168 1919.79,-142.375 1959.59,-131.253 1986.78,-126.485"/>
<polygon fill="midnightblue" stroke="midnightblue" points="1987.53,-129.909 1996.87,-124.903 1986.45,-122.993 1987.53,-129.909"/>
</g>
<!-- Node27 -->
<g id="node86" class="node"><title>Node27</title>
<a xlink:href="_s_l_math_8h.html" target="_top" xlink:title="SLMath.h">
<polygon fill="white" stroke="black" points="1905,-168.5 1905,-187.5 1967,-187.5 1967,-168.5 1905,-168.5"/>
<text text-anchor="middle" x="1936" y="-175.5" font-family="Arial.ttf" font-size="10.00">SLMath.h</text>
</a>
</g>
<!-- Node25&#45;&gt;Node27 -->
<g id="edge118" class="edge"><title>Node25&#45;&gt;Node27</title>
<path fill="none" stroke="midnightblue" d="M1886.48,-224.324C1895.2,-216.341 1908.34,-204.313 1918.9,-194.653"/>
<polygon fill="midnightblue" stroke="midnightblue" points="1921.33,-197.167 1926.35,-187.834 1916.61,-192.004 1921.33,-197.167"/>
</g>
<!-- Node28 -->
<g id="node89" class="node"><title>Node28</title>
<a xlink:href="_s_l_mat3_8h.html" target="_top" xlink:title="SLMat3.h">
<polygon fill="white" stroke="black" points="1985,-168.5 1985,-187.5 2047,-187.5 2047,-168.5 1985,-168.5"/>
<text text-anchor="middle" x="2016" y="-175.5" font-family="Arial.ttf" font-size="10.00">SLMat3.h</text>
</a>
</g>
<!-- Node25&#45;&gt;Node28 -->
<g id="edge122" class="edge"><title>Node25&#45;&gt;Node28</title>
<path fill="none" stroke="midnightblue" d="M1899.02,-224.444C1922.1,-215.478 1958.56,-201.314 1984.64,-191.183"/>
<polygon fill="midnightblue" stroke="midnightblue" points="1986.02,-194.4 1994.08,-187.516 1983.49,-187.875 1986.02,-194.4"/>
</g>
<!-- Node29 -->
<g id="node92" class="node"><title>Node29</title>
<a xlink:href="_s_l_vec4_8h.html" target="_top" xlink:title="SLVec4.h">
<polygon fill="white" stroke="red" points="2065,-168.5 2065,-187.5 2127,-187.5 2127,-168.5 2065,-168.5"/>
<text text-anchor="middle" x="2096" y="-175.5" font-family="Arial.ttf" font-size="10.00">SLVec4.h</text>
</a>
</g>
<!-- Node25&#45;&gt;Node29 -->
<g id="edge126" class="edge"><title>Node25&#45;&gt;Node29</title>
<path fill="none" stroke="midnightblue" d="M1908.38,-225.263C1946.92,-215.76 2012.41,-199.612 2054.92,-189.128"/>
<polygon fill="midnightblue" stroke="midnightblue" points="2055.81,-192.515 2064.68,-186.723 2054.13,-185.718 2055.81,-192.515"/>
</g>
<!-- Node30 -->
<g id="node95" class="node"><title>Node30</title>
<polygon fill="white" stroke="#bfbfbf" points="1555.5,-168.5 1555.5,-187.5 1692.5,-187.5 1692.5,-168.5 1555.5,-168.5"/>
<text text-anchor="middle" x="1624" y="-175.5" font-family="Arial.ttf" font-size="10.00">Shoemake/EulerAngles.h</text>
</g>
<!-- Node25&#45;&gt;Node30 -->
<g id="edge130" class="edge"><title>Node25&#45;&gt;Node30</title>
<path fill="none" stroke="midnightblue" d="M1845.98,-226.379C1803.05,-217.217 1725.06,-200.57 1673.89,-189.649"/>
<polygon fill="midnightblue" stroke="midnightblue" points="1674.55,-186.21 1664.04,-187.545 1673.09,-193.056 1674.55,-186.21"/>
</g>
<!-- Node31 -->
<g id="node97" class="node"><title>Node31</title>
<polygon fill="white" stroke="#bfbfbf" points="1711,-168.5 1711,-187.5 1849,-187.5 1849,-168.5 1711,-168.5"/>
<text text-anchor="middle" x="1780" y="-175.5" font-family="Arial.ttf" font-size="10.00">Shoemake/Decompose.h</text>
</g>
<!-- Node25&#45;&gt;Node31 -->
<g id="edge132" class="edge"><title>Node25&#45;&gt;Node31</title>
<path fill="none" stroke="midnightblue" d="M1861.42,-224.324C1846,-215.743 1822.19,-202.486 1804.29,-192.522"/>
<polygon fill="midnightblue" stroke="midnightblue" points="1805.99,-189.461 1795.55,-187.655 1802.58,-195.577 1805.99,-189.461"/>
</g>
<!-- Node26&#45;&gt;Node14 -->
<g id="edge116" class="edge"><title>Node26&#45;&gt;Node14</title>
<path fill="none" stroke="midnightblue" d="M2022.11,-112.083C2027.28,-104.534 2034.85,-93.4948 2041.19,-84.2298"/>
<polygon fill="midnightblue" stroke="midnightblue" points="2044.24,-85.9787 2047,-75.7511 2038.46,-82.0221 2044.24,-85.9787"/>
</g>
<!-- Node27&#45;&gt;Node26 -->
<g id="edge120" class="edge"><title>Node27&#45;&gt;Node26</title>
<path fill="none" stroke="midnightblue" d="M1948.85,-168.324C1961.22,-159.979 1980.13,-147.212 1994.74,-137.352"/>
<polygon fill="midnightblue" stroke="midnightblue" points="1996.85,-140.15 2003.18,-131.655 1992.93,-134.348 1996.85,-140.15"/>
</g>
<!-- Node28&#45;&gt;Node26 -->
<g id="edge124" class="edge"><title>Node28&#45;&gt;Node26</title>
<path fill="none" stroke="midnightblue" d="M2016,-168.083C2016,-161.006 2016,-150.861 2016,-141.986"/>
<polygon fill="midnightblue" stroke="midnightblue" points="2019.5,-141.751 2016,-131.751 2012.5,-141.751 2019.5,-141.751"/>
</g>
<!-- Node29&#45;&gt;Node26 -->
<g id="edge128" class="edge"><title>Node29&#45;&gt;Node26</title>
<path fill="none" stroke="midnightblue" d="M2083.15,-168.324C2070.78,-159.979 2051.87,-147.212 2037.26,-137.352"/>
<polygon fill="midnightblue" stroke="midnightblue" points="2039.07,-134.348 2028.82,-131.655 2035.15,-140.15 2039.07,-134.348"/>
</g>
<!-- Node32&#45;&gt;Node2 -->
<g id="edge136" class="edge"><title>Node32&#45;&gt;Node2</title>
<path fill="none" stroke="midnightblue" d="M1436.21,-392.226C1442.04,-368.523 1457.77,-301.137 1463,-244 1471.16,-154.899 1463.02,-109.098 1391,-56 1359.89,-33.059 1099.35,-17.8001 1000.68,-12.7958"/>
<polygon fill="midnightblue" stroke="midnightblue" points="1000.72,-9.29353 990.554,-12.2898 1000.37,-16.2848 1000.72,-9.29353"/>
</g>
<!-- Node33&#45;&gt;Node2 -->
<g id="edge144" class="edge"><title>Node33&#45;&gt;Node2</title>
<path fill="none" stroke="midnightblue" d="M891.563,-736.623C1165.91,-734.016 2614,-716.04 2614,-627 2614,-627 2614,-627 2614,-121 2614,-84.2802 2595.79,-72.5255 2563,-56 2491.05,-19.7424 1236.14,-12.246 1000.85,-11.157"/>
<polygon fill="midnightblue" stroke="midnightblue" points="1000.75,-7.6566 990.732,-11.1112 1000.72,-14.6565 1000.75,-7.6566"/>
</g>
<!-- Node33&#45;&gt;Node5 -->
<g id="edge232" class="edge"><title>Node33&#45;&gt;Node5</title>
<path fill="none" stroke="midnightblue" d="M802.498,-734.934C736.146,-729.197 619,-707.647 619,-627 619,-627 619,-627 619,-569 619,-471.161 609,-354.272 604.812,-309.601"/>
<polygon fill="midnightblue" stroke="midnightblue" points="608.295,-309.259 603.86,-299.637 601.327,-309.924 608.295,-309.259"/>
</g>
<!-- Node33&#45;&gt;Node13 -->
<g id="edge220" class="edge"><title>Node33&#45;&gt;Node13</title>
<path fill="none" stroke="midnightblue" d="M871.628,-728.419C889.523,-721.118 913.265,-709.078 929,-692 1009.48,-604.652 961.072,-538.494 1038,-448 1115.52,-356.804 1201.56,-402.724 1263,-300 1293.19,-249.525 1276.57,-175.606 1266.25,-141.498"/>
<polygon fill="midnightblue" stroke="midnightblue" points="1269.45,-140.008 1263.07,-131.549 1262.78,-142.139 1269.45,-140.008"/>
</g>
<!-- Node33&#45;&gt;Node18 -->
<g id="edge230" class="edge"><title>Node33&#45;&gt;Node18</title>
<path fill="none" stroke="midnightblue" d="M802.443,-734.332C736.615,-729.58 617.533,-717.64 584,-692 455.847,-594.012 435.025,-374.959 431.651,-309.695"/>
<polygon fill="midnightblue" stroke="midnightblue" points="435.145,-309.5 431.212,-299.662 428.152,-309.805 435.145,-309.5"/>
</g>
<!-- Node33&#45;&gt;Node19 -->
<g id="edge242" class="edge"><title>Node33&#45;&gt;Node19</title>
<path fill="none" stroke="midnightblue" d="M840.788,-728.251C824.653,-705.14 781.003,-640.105 757,-580 709.822,-461.861 696.366,-307.036 693.005,-253.871"/>
<polygon fill="midnightblue" stroke="midnightblue" points="696.483,-253.392 692.405,-243.613 689.495,-253.8 696.483,-253.392"/>
</g>
<!-- Node33&#45;&gt;Node20 -->
<g id="edge222" class="edge"><title>Node33&#45;&gt;Node20</title>
<path fill="none" stroke="midnightblue" d="M847,-728.442C847,-709.936 847,-664.813 847,-627 847,-627 847,-627 847,-457 847,-398.828 810.8,-337.172 791.225,-308.085"/>
<polygon fill="midnightblue" stroke="midnightblue" points="794.085,-306.068 785.52,-299.831 788.326,-310.048 794.085,-306.068"/>
</g>
<!-- Node33&#45;&gt;Node22 -->
<g id="edge218" class="edge"><title>Node33&#45;&gt;Node22</title>
<path fill="none" stroke="midnightblue" d="M802.43,-734.531C740.365,-730.152 632.42,-718.818 605,-692 525.796,-614.535 578.49,-556.047 554,-448 552.02,-439.264 549.681,-429.612 547.67,-421.495"/>
<polygon fill="midnightblue" stroke="midnightblue" points="551.018,-420.458 545.195,-411.606 544.228,-422.157 551.018,-420.458"/>
</g>
<!-- Node34 -->
<g id="node107" class="node"><title>Node34</title>
<a xlink:href="_s_l_scene_8h.html" target="_top" xlink:title="SLScene.h">
<polygon fill="white" stroke="black" points="1363,-672.5 1363,-691.5 1431,-691.5 1431,-672.5 1363,-672.5"/>
<text text-anchor="middle" x="1397" y="-679.5" font-family="Arial.ttf" font-size="10.00">SLScene.h</text>
</a>
</g>
<!-- Node33&#45;&gt;Node34 -->
<g id="edge146" class="edge"><title>Node33&#45;&gt;Node34</title>
<path fill="none" stroke="midnightblue" d="M891.543,-732.627C994.891,-722.48 1249.99,-697.434 1352.9,-687.33"/>
<polygon fill="midnightblue" stroke="midnightblue" points="1353.34,-690.803 1362.95,-686.343 1352.66,-683.837 1353.34,-690.803"/>
</g>
<!-- Node45 -->
<g id="node157" class="node"><title>Node45</title>
<a xlink:href="_s_l_pathtracer_8h.html" target="_top" xlink:title="SLPathtracer.h">
<polygon fill="white" stroke="black" points="841,-336.5 841,-355.5 929,-355.5 929,-336.5 841,-336.5"/>
<text text-anchor="middle" x="885" y="-343.5" font-family="Arial.ttf" font-size="10.00">SLPathtracer.h</text>
</a>
</g>
<!-- Node33&#45;&gt;Node45 -->
<g id="edge224" class="edge"><title>Node33&#45;&gt;Node45</title>
<path fill="none" stroke="midnightblue" d="M852.284,-728.231C862.725,-710.043 885,-666.601 885,-627 885,-627 885,-627 885,-457 885,-424.948 885,-387.643 885,-365.749"/>
<polygon fill="midnightblue" stroke="midnightblue" points="888.5,-365.558 885,-355.558 881.5,-365.558 888.5,-365.558"/>
</g>
<!-- Node46 -->
<g id="node163" class="node"><title>Node46</title>
<a xlink:href="_s_l_g_l_oculus_f_b_8h.html" target="_top" xlink:title="SLGLOculusFB.h">
<polygon fill="white" stroke="black" points="1065.5,-504.5 1065.5,-523.5 1160.5,-523.5 1160.5,-504.5 1065.5,-504.5"/>
<text text-anchor="middle" x="1113" y="-511.5" font-family="Arial.ttf" font-size="10.00">SLGLOculusFB.h</text>
</a>
</g>
<!-- Node33&#45;&gt;Node46 -->
<g id="edge234" class="edge"><title>Node33&#45;&gt;Node46</title>
<path fill="none" stroke="midnightblue" d="M857.428,-728.297C897.652,-694.726 1043.05,-573.379 1094.67,-530.301"/>
<polygon fill="midnightblue" stroke="midnightblue" points="1097.21,-532.737 1102.64,-523.643 1092.72,-527.363 1097.21,-532.737"/>
</g>
<!-- Node34&#45;&gt;Node2 -->
<g id="edge148" class="edge"><title>Node34&#45;&gt;Node2</title>
<path fill="none" stroke="midnightblue" d="M1431.1,-680.4C1600.56,-677.302 2347.85,-662.249 2448,-636 2509.72,-619.823 2576,-634.804 2576,-571 2576,-571 2576,-571 2576,-121 2576,-87.3101 2566.08,-73.0163 2537,-56 2468.63,-15.9899 1233.46,-11.5412 1000.67,-11.0577"/>
<polygon fill="midnightblue" stroke="midnightblue" points="1000.66,-7.5578 990.652,-11.0381 1000.65,-14.5578 1000.66,-7.5578"/>
</g>
<!-- Node34&#45;&gt;Node4 -->
<g id="edge156" class="edge"><title>Node34&#45;&gt;Node4</title>
<path fill="none" stroke="midnightblue" d="M1362.6,-674.778C1312.92,-663.586 1227,-634.979 1227,-571 1227,-571 1227,-571 1227,-513 1227,-419.886 1103.66,-375.117 1033.09,-357.122"/>
<polygon fill="midnightblue" stroke="midnightblue" points="1033.63,-353.651 1023.08,-354.659 1031.95,-360.448 1033.63,-353.651"/>
</g>
<!-- Node34&#45;&gt;Node13 -->
<g id="edge158" class="edge"><title>Node34&#45;&gt;Node13</title>
<path fill="none" stroke="midnightblue" d="M1396.29,-672.484C1394.43,-646.226 1391.16,-564.629 1416,-504 1438.53,-449.018 1509.52,-447.762 1489,-392 1446.02,-275.201 1327.29,-174.55 1279.91,-137.833"/>
<polygon fill="midnightblue" stroke="midnightblue" points="1281.75,-134.833 1271.67,-131.544 1277.5,-140.396 1281.75,-134.833"/>
</g>
<!-- Node34&#45;&gt;Node22 -->
<g id="edge164" class="edge"><title>Node34&#45;&gt;Node22</title>
<path fill="none" stroke="midnightblue" d="M1362.83,-673.663C1325.69,-665.451 1264.72,-651.281 1213,-636 963.474,-562.28 669.474,-451.545 574.359,-415.101"/>
<polygon fill="midnightblue" stroke="midnightblue" points="575.608,-411.832 565.018,-411.516 573.1,-418.367 575.608,-411.832"/>
</g>
<!-- Node35 -->
<g id="node110" class="node"><title>Node35</title>
<a xlink:href="_s_l_background_8h.html" target="_top" xlink:title="SLBackground.h">
<polygon fill="white" stroke="black" points="923.5,-224.5 923.5,-243.5 1018.5,-243.5 1018.5,-224.5 923.5,-224.5"/>
<text text-anchor="middle" x="971" y="-231.5" font-family="Arial.ttf" font-size="10.00">SLBackground.h</text>
</a>
</g>
<!-- Node34&#45;&gt;Node35 -->
<g id="edge150" class="edge"><title>Node34&#45;&gt;Node35</title>
<path fill="none" stroke="midnightblue" d="M1391.72,-672.231C1381.27,-654.043 1359,-610.601 1359,-571 1359,-571 1359,-571 1359,-457 1359,-446.504 1081.78,-295.138 995.994,-248.547"/>
<polygon fill="midnightblue" stroke="midnightblue" points="997.636,-245.456 987.178,-243.762 994.297,-251.608 997.636,-245.456"/>
</g>
<!-- Node34&#45;&gt;Node36 -->
<g id="edge160" class="edge"><title>Node34&#45;&gt;Node36</title>
<path fill="none" stroke="midnightblue" d="M1362.57,-679.043C1215.83,-669.871 629.612,-624.754 179,-468 159.514,-461.221 111.006,-433.585 81.9799,-416.605"/>
<polygon fill="midnightblue" stroke="midnightblue" points="83.697,-413.555 73.3019,-411.507 80.1512,-419.59 83.697,-413.555"/>
</g>
<!-- Node37 -->
<g id="node120" class="node"><title>Node37</title>
<a xlink:href="_s_l_skeleton_8h.html" target="_top" xlink:title="SLSkeleton.h">
<polygon fill="white" stroke="black" points="2296,-560.5 2296,-579.5 2376,-579.5 2376,-560.5 2296,-560.5"/>
<text text-anchor="middle" x="2336" y="-567.5" font-family="Arial.ttf" font-size="10.00">SLSkeleton.h</text>
</a>
</g>
<!-- Node34&#45;&gt;Node37 -->
<g id="edge166" class="edge"><title>Node34&#45;&gt;Node37</title>
<path fill="none" stroke="midnightblue" d="M1431.25,-676.987C1573.41,-660.335 2117.3,-596.62 2285.88,-576.872"/>
<polygon fill="midnightblue" stroke="midnightblue" points="2286.44,-580.33 2295.97,-575.69 2285.63,-573.377 2286.44,-580.33"/>
</g>
<!-- Node42 -->
<g id="node140" class="node"><title>Node42</title>
<a xlink:href="_s_l_g_l_oculus_8h.html" target="_top" xlink:title="SLGLOculus.h">
<polygon fill="white" stroke="black" points="1425.5,-504.5 1425.5,-523.5 1508.5,-523.5 1508.5,-504.5 1425.5,-504.5"/>
<text text-anchor="middle" x="1467" y="-511.5" font-family="Arial.ttf" font-size="10.00">SLGLOculus.h</text>
</a>
</g>
<!-- Node34&#45;&gt;Node42 -->
<g id="edge196" class="edge"><title>Node34&#45;&gt;Node42</title>
<path fill="none" stroke="midnightblue" d="M1400.76,-672.075C1411.83,-645.832 1444.42,-568.545 1459.36,-533.117"/>
<polygon fill="midnightblue" stroke="midnightblue" points="1462.73,-534.142 1463.39,-523.568 1456.28,-531.422 1462.73,-534.142"/>
</g>
<!-- Node43 -->
<g id="node144" class="node"><title>Node43</title>
<a xlink:href="_s_l_anim_manager_8h.html" target="_top" xlink:title="SLAnimManager.h">
<polygon fill="white" stroke="black" points="2284,-616.5 2284,-635.5 2388,-635.5 2388,-616.5 2284,-616.5"/>
<text text-anchor="middle" x="2336" y="-623.5" font-family="Arial.ttf" font-size="10.00">SLAnimManager.h</text>
</a>
</g>
<!-- Node34&#45;&gt;Node43 -->
<g id="edge202" class="edge"><title>Node34&#45;&gt;Node43</title>
<path fill="none" stroke="midnightblue" d="M1431.25,-679.03C1570.14,-671.043 2092.52,-641.002 2273.68,-630.584"/>
<polygon fill="midnightblue" stroke="midnightblue" points="2274.05,-634.068 2283.83,-630 2273.65,-627.08 2274.05,-634.068"/>
</g>
<!-- Node44 -->
<g id="node151" class="node"><title>Node44</title>
<a xlink:href="_s_l_average_8h.html" target="_top" xlink:title="SLAverage.h">
<polygon fill="white" stroke="black" points="2470.5,-560.5 2470.5,-579.5 2547.5,-579.5 2547.5,-560.5 2470.5,-560.5"/>
<text text-anchor="middle" x="2509" y="-567.5" font-family="Arial.ttf" font-size="10.00">SLAverage.h</text>
</a>
</g>
<!-- Node34&#45;&gt;Node44 -->
<g id="edge214" class="edge"><title>Node34&#45;&gt;Node44</title>
<path fill="none" stroke="midnightblue" d="M1431.21,-680.611C1597.81,-678.566 2320.16,-667.912 2415,-636 2445.38,-625.777 2474.85,-602.569 2492.47,-586.837"/>
<polygon fill="midnightblue" stroke="midnightblue" points="2495.12,-589.15 2500.11,-579.804 2490.38,-583.999 2495.12,-589.15"/>
</g>
<!-- Node35&#45;&gt;Node2 -->
<g id="edge152" class="edge"><title>Node35&#45;&gt;Node2</title>
<path fill="none" stroke="midnightblue" d="M970.686,-224.297C969.509,-191.633 965.338,-75.8661 963.683,-29.9573"/>
<polygon fill="midnightblue" stroke="midnightblue" points="967.178,-29.7512 963.32,-19.8837 960.183,-30.0033 967.178,-29.7512"/>
</g>
<!-- Node35&#45;&gt;Node8 -->
<g id="edge154" class="edge"><title>Node35&#45;&gt;Node8</title>
<path fill="none" stroke="midnightblue" d="M923.07,-227.674C835.065,-217.896 647.707,-197.079 548.958,-186.106"/>
<polygon fill="midnightblue" stroke="midnightblue" points="549.141,-182.605 538.816,-184.98 548.368,-189.563 549.141,-182.605"/>
</g>
<!-- Node36&#45;&gt;Node2 -->
<g id="edge162" class="edge"><title>Node36&#45;&gt;Node2</title>
<path fill="none" stroke="midnightblue" d="M56.8422,-392.223C52.4749,-373.663 43,-329.017 43,-291 43,-291 43,-291 43,-121 43,-90.2048 42.1828,-74.2332 67,-56 102.081,-30.2263 759.378,-15.1468 925.242,-11.7418"/>
<polygon fill="midnightblue" stroke="midnightblue" points="925.518,-15.237 935.444,-11.5344 925.375,-8.23848 925.518,-15.237"/>
</g>
<!-- Node37&#45;&gt;Node2 -->
<g id="edge168" class="edge"><title>Node37&#45;&gt;Node2</title>
<path fill="none" stroke="midnightblue" d="M2338.37,-560.33C2342,-547.621 2349.51,-523.345 2359,-504 2382.51,-456.072 2424,-456.381 2424,-403 2424,-403 2424,-403 2424,-121 2424,-66.4926 2372.14,-71.8931 2320,-56 2190.9,-16.6488 1206.76,-11.6909 1000.74,-11.0829"/>
<polygon fill="midnightblue" stroke="midnightblue" points="1000.72,-7.5829 990.712,-11.055 1000.7,-14.5829 1000.72,-7.5829"/>
</g>
<!-- Node38 -->
<g id="node123" class="node"><title>Node38</title>
<a xlink:href="_s_l_joint_8h.html" target="_top" xlink:title="SLJoint.h">
<polygon fill="white" stroke="black" points="2183,-448.5 2183,-467.5 2241,-467.5 2241,-448.5 2183,-448.5"/>
<text text-anchor="middle" x="2212" y="-455.5" font-family="Arial.ttf" font-size="10.00">SLJoint.h</text>
</a>
</g>
<!-- Node37&#45;&gt;Node38 -->
<g id="edge170" class="edge"><title>Node37&#45;&gt;Node38</title>
<path fill="none" stroke="midnightblue" d="M2295.98,-564.844C2269.15,-559.805 2235.48,-548.659 2217,-524 2207.15,-510.849 2206.86,-491.708 2208.46,-477.601"/>
<polygon fill="midnightblue" stroke="midnightblue" points="2211.94,-477.993 2210,-467.578 2205.02,-476.93 2211.94,-477.993"/>
</g>
<!-- Node39 -->
<g id="node127" class="node"><title>Node39</title>
<a xlink:href="_s_l_animation_8h.html" target="_top" xlink:title="SLAnimation.h">
<polygon fill="white" stroke="black" points="2226,-504.5 2226,-523.5 2312,-523.5 2312,-504.5 2226,-504.5"/>
<text text-anchor="middle" x="2269" y="-511.5" font-family="Arial.ttf" font-size="10.00">SLAnimation.h</text>
</a>
</g>
<!-- Node37&#45;&gt;Node39 -->
<g id="edge176" class="edge"><title>Node37&#45;&gt;Node39</title>
<path fill="none" stroke="midnightblue" d="M2325.24,-560.324C2315.23,-552.263 2300.11,-540.077 2288.07,-530.369"/>
<polygon fill="midnightblue" stroke="midnightblue" points="2289.94,-527.384 2279.96,-523.834 2285.55,-532.834 2289.94,-527.384"/>
</g>
<!-- Node41 -->
<g id="node136" class="node"><title>Node41</title>
<a xlink:href="_s_l_anim_playback_8h.html" target="_top" xlink:title="SLAnimPlayback.h">
<polygon fill="white" stroke="black" points="2368,-504.5 2368,-523.5 2472,-523.5 2472,-504.5 2368,-504.5"/>
<text text-anchor="middle" x="2420" y="-511.5" font-family="Arial.ttf" font-size="10.00">SLAnimPlayback.h</text>
</a>
</g>
<!-- Node37&#45;&gt;Node41 -->
<g id="edge190" class="edge"><title>Node37&#45;&gt;Node41</title>
<path fill="none" stroke="midnightblue" d="M2349.5,-560.324C2362.6,-551.9 2382.71,-538.971 2398.11,-529.074"/>
<polygon fill="midnightblue" stroke="midnightblue" points="2400.02,-532.006 2406.54,-523.655 2396.23,-526.118 2400.02,-532.006"/>
</g>
<!-- Node38&#45;&gt;Node2 -->
<g id="edge172" class="edge"><title>Node38&#45;&gt;Node2</title>
<path fill="none" stroke="midnightblue" d="M2217.26,-448.365C2231.37,-424.353 2269,-354.38 2269,-291 2269,-291 2269,-291 2269,-233 2269,-144.948 2255.48,-101.342 2180,-56 2128.28,-24.9296 1200.93,-13.4876 1000.85,-11.3753"/>
<polygon fill="midnightblue" stroke="midnightblue" points="1000.59,-7.87246 990.551,-11.2681 1000.51,-14.8721 1000.59,-7.87246"/>
</g>
<!-- Node38&#45;&gt;Node22 -->
<g id="edge174" class="edge"><title>Node38&#45;&gt;Node22</title>
<path fill="none" stroke="midnightblue" d="M2182.97,-456.364C2030.54,-452.973 1307.29,-436.27 716,-412 671.202,-410.161 619.912,-407.412 584.883,-405.436"/>
<polygon fill="midnightblue" stroke="midnightblue" points="584.741,-401.923 574.559,-404.85 584.344,-408.911 584.741,-401.923"/>
</g>
<!-- Node39&#45;&gt;Node2 -->
<g id="edge178" class="edge"><title>Node39&#45;&gt;Node2</title>
<path fill="none" stroke="midnightblue" d="M2290.46,-504.456C2324.24,-489.428 2386,-454.857 2386,-403 2386,-403 2386,-403 2386,-121 2386,-54.8076 2316.24,-71.944 2252,-56 2128.03,-25.2322 1201.01,-13.5621 1000.98,-11.3888"/>
<polygon fill="midnightblue" stroke="midnightblue" points="1000.72,-7.88594 990.682,-11.2784 1000.64,-14.8855 1000.72,-7.88594"/>
</g>
<!-- Node39&#45;&gt;Node14 -->
<g id="edge188" class="edge"><title>Node39&#45;&gt;Node14</title>
<path fill="none" stroke="midnightblue" d="M2267.21,-504.322C2258.75,-464.241 2220.34,-293.644 2155,-168 2140.77,-140.633 2135.77,-133.851 2114,-112 2102.45,-100.411 2087.74,-89.4661 2075.65,-81.2723"/>
<polygon fill="midnightblue" stroke="midnightblue" points="2077.29,-78.1627 2067.02,-75.5777 2073.44,-84.0058 2077.29,-78.1627"/>
</g>
<!-- Node39&#45;&gt;Node38 -->
<g id="edge186" class="edge"><title>Node39&#45;&gt;Node38</title>
<path fill="none" stroke="midnightblue" d="M2259.84,-504.324C2251.5,-496.42 2238.97,-484.548 2228.82,-474.938"/>
<polygon fill="midnightblue" stroke="midnightblue" points="2230.99,-472.171 2221.32,-467.834 2226.18,-477.252 2230.99,-472.171"/>
</g>
<!-- Node40 -->
<g id="node130" class="node"><title>Node40</title>
<a xlink:href="_s_l_anim_track_8h.html" target="_top" xlink:title="SLAnimTrack.h">
<polygon fill="white" stroke="red" points="2270,-112.5 2270,-131.5 2358,-131.5 2358,-112.5 2270,-112.5"/>
<text text-anchor="middle" x="2314" y="-119.5" font-family="Arial.ttf" font-size="10.00">SLAnimTrack.h</text>
</a>
</g>
<!-- Node39&#45;&gt;Node40 -->
<g id="edge180" class="edge"><title>Node39&#45;&gt;Node40</title>
<path fill="none" stroke="midnightblue" d="M2280.54,-504.433C2301.8,-487.571 2345,-447.799 2345,-403 2345,-403 2345,-403 2345,-233 2345,-199.41 2331.44,-162.14 2322.26,-140.747"/>
<polygon fill="midnightblue" stroke="midnightblue" points="2325.45,-139.313 2318.18,-131.607 2319.06,-142.165 2325.45,-139.313"/>
</g>
<!-- Node40&#45;&gt;Node2 -->
<g id="edge182" class="edge"><title>Node40&#45;&gt;Node2</title>
<path fill="none" stroke="midnightblue" d="M2305.15,-112.399C2289.26,-97.6076 2254.16,-67.8043 2218,-56 2099.9,-17.4496 1197.22,-11.8733 1000.69,-11.114"/>
<polygon fill="midnightblue" stroke="midnightblue" points="1000.59,-7.61365 990.573,-11.0768 1000.56,-14.6136 1000.59,-7.61365"/>
</g>
<!-- Node40&#45;&gt;Node14 -->
<g id="edge184" class="edge"><title>Node40&#45;&gt;Node14</title>
<path fill="none" stroke="midnightblue" d="M2272.64,-112.444C2225.27,-102.643 2147.88,-86.6311 2098.75,-76.4647"/>
<polygon fill="midnightblue" stroke="midnightblue" points="2099.21,-72.9871 2088.71,-74.3884 2097.79,-79.842 2099.21,-72.9871"/>
</g>
<!-- Node41&#45;&gt;Node2 -->
<g id="edge192" class="edge"><title>Node41&#45;&gt;Node2</title>
<path fill="none" stroke="midnightblue" d="M2425.84,-504.308C2437.38,-486.261 2462,-443.066 2462,-403 2462,-403 2462,-403 2462,-121 2462,-90.2048 2463,-73.9881 2438,-56 2377.96,-12.7949 1225.62,-10.9208 1000.83,-10.9673"/>
<polygon fill="midnightblue" stroke="midnightblue" points="1000.54,-7.46735 990.541,-10.971 1000.54,-14.4673 1000.54,-7.46735"/>
</g>
<!-- Node41&#45;&gt;Node14 -->
<g id="edge194" class="edge"><title>Node41&#45;&gt;Node14</title>
<path fill="none" stroke="midnightblue" d="M2399.8,-504.492C2367.3,-489.293 2307,-454.197 2307,-403 2307,-403 2307,-403 2307,-233 2307,-134.512 2171.53,-91.3417 2098.46,-75.2192"/>
<polygon fill="midnightblue" stroke="midnightblue" points="2099.09,-71.7756 2088.59,-73.1208 2097.64,-78.6228 2099.09,-71.7756"/>
</g>
<!-- Node42&#45;&gt;Node2 -->
<g id="edge198" class="edge"><title>Node42&#45;&gt;Node2</title>
<path fill="none" stroke="midnightblue" d="M1508.51,-510.836C1647.77,-502.57 2093.84,-467.618 2169,-356 2215.69,-286.668 2197.55,-248.198 2174,-168 2156.98,-110.041 2150.32,-84.3886 2097,-56 2047.58,-29.6881 1191.73,-14.6217 1000.63,-11.5769"/>
<polygon fill="midnightblue" stroke="midnightblue" points="1000.57,-8.07554 990.515,-11.4171 1000.46,-15.0747 1000.57,-8.07554"/>
</g>
<!-- Node42&#45;&gt;Node21 -->
<g id="edge200" class="edge"><title>Node42&#45;&gt;Node21</title>
<path fill="none" stroke="midnightblue" d="M1439.43,-504.444C1409.9,-495.28 1362.88,-480.688 1330.12,-470.519"/>
<polygon fill="midnightblue" stroke="midnightblue" points="1331.03,-467.138 1320.44,-467.516 1328.96,-473.823 1331.03,-467.138"/>
</g>
<!-- Node43&#45;&gt;Node2 -->
<g id="edge204" class="edge"><title>Node43&#45;&gt;Node2</title>
<path fill="none" stroke="midnightblue" d="M2349.64,-616.43C2363.67,-607.539 2386.08,-593.124 2405,-580 2439.47,-556.086 2456.96,-558.388 2481,-524 2498.24,-499.332 2500,-489.098 2500,-459 2500,-459 2500,-459 2500,-121 2500,-87.3101 2490.06,-73.0373 2461,-56 2396.13,-17.9729 1226.56,-11.9286 1000.61,-11.1145"/>
<polygon fill="midnightblue" stroke="midnightblue" points="1000.58,-7.61445 990.572,-11.0795 1000.56,-14.6144 1000.58,-7.61445"/>
</g>
<!-- Node43&#45;&gt;Node37 -->
<g id="edge212" class="edge"><title>Node43&#45;&gt;Node37</title>
<path fill="none" stroke="midnightblue" d="M2336,-616.083C2336,-609.006 2336,-598.861 2336,-589.986"/>
<polygon fill="midnightblue" stroke="midnightblue" points="2339.5,-589.751 2336,-579.751 2332.5,-589.751 2339.5,-589.751"/>
</g>
<!-- Node43&#45;&gt;Node39 -->
<g id="edge206" class="edge"><title>Node43&#45;&gt;Node39</title>
<path fill="none" stroke="midnightblue" d="M2323.28,-616.487C2312.13,-608.375 2296.28,-595.173 2287,-580 2278.31,-565.798 2273.72,-547.32 2271.36,-533.697"/>
<polygon fill="midnightblue" stroke="midnightblue" points="2274.79,-532.973 2269.85,-523.597 2267.86,-534.003 2274.79,-532.973"/>
</g>
<!-- Node43&#45;&gt;Node41 -->
<g id="edge210" class="edge"><title>Node43&#45;&gt;Node41</title>
<path fill="none" stroke="midnightblue" d="M2347.53,-616.276C2358.16,-607.823 2373.94,-594.224 2385,-580 2396.41,-565.326 2406.13,-546.417 2412.4,-532.78"/>
<polygon fill="midnightblue" stroke="midnightblue" points="2415.65,-534.098 2416.51,-523.538 2409.25,-531.258 2415.65,-534.098"/>
</g>
<!-- Node43&#45;&gt;Node43 -->
<g id="edge208" class="edge"><title>Node43&#45;&gt;Node43</title>
<path fill="none" stroke="midnightblue" d="M2365.86,-635.525C2386.14,-638.308 2406,-635.133 2406,-626 2406,-618.437 2392.38,-614.96 2376.18,-615.568"/>
<polygon fill="midnightblue" stroke="midnightblue" points="2375.51,-612.113 2365.86,-616.475 2376.12,-619.086 2375.51,-612.113"/>
</g>
<!-- Node44&#45;&gt;Node2 -->
<g id="edge216" class="edge"><title>Node44&#45;&gt;Node2</title>
<path fill="none" stroke="midnightblue" d="M2512.91,-560.365C2520.83,-542.073 2538,-497.907 2538,-459 2538,-459 2538,-459 2538,-121 2538,-90.2048 2539.01,-73.9694 2514,-56 2450.67,-10.4987 1232.77,-10.4947 1000.94,-10.9081"/>
<polygon fill="midnightblue" stroke="midnightblue" points="1000.64,-7.40859 990.65,-10.928 1000.66,-14.4086 1000.64,-7.40859"/>
</g>
<!-- Node45&#45;&gt;Node2 -->
<g id="edge226" class="edge"><title>Node45&#45;&gt;Node2</title>
<path fill="none" stroke="midnightblue" d="M882.515,-336.445C875.663,-312.071 857,-240.083 857,-179 857,-179 857,-179 857,-121 857,-75.8148 903.95,-42.0516 935.357,-24.5209"/>
<polygon fill="midnightblue" stroke="midnightblue" points="937.372,-27.4123 944.536,-19.6068 934.068,-21.2411 937.372,-27.4123"/>
</g>
<!-- Node45&#45;&gt;Node20 -->
<g id="edge228" class="edge"><title>Node45&#45;&gt;Node20</title>
<path fill="none" stroke="midnightblue" d="M867.969,-336.324C850.97,-327.664 824.624,-314.242 805.007,-304.249"/>
<polygon fill="midnightblue" stroke="midnightblue" points="806.488,-301.075 795.988,-299.655 803.31,-307.312 806.488,-301.075"/>
</g>
<!-- Node46&#45;&gt;Node2 -->
<g id="edge236" class="edge"><title>Node46&#45;&gt;Node2</title>
<path fill="none" stroke="midnightblue" d="M1130,-504.449C1176.23,-480.099 1303.93,-405.295 1351,-300 1373.37,-249.959 1468.14,-328.155 1320,-112 1293.15,-72.8272 1273.45,-72.7123 1229,-56 1151.28,-26.7784 1053.63,-16.4486 1000.94,-12.8589"/>
<polygon fill="midnightblue" stroke="midnightblue" points="1000.91,-9.35012 990.705,-12.209 1000.46,-16.336 1000.91,-9.35012"/>
</g>
<!-- Node46&#45;&gt;Node8 -->
<g id="edge238" class="edge"><title>Node46&#45;&gt;Node8</title>
<path fill="none" stroke="midnightblue" d="M1065.34,-506.482C988.921,-494.816 835.433,-466.343 716,-412 636.328,-375.748 612.722,-364.912 554,-300 528.11,-271.381 531.264,-257.441 512,-224 506.705,-214.808 500.641,-204.668 495.603,-196.344"/>
<polygon fill="midnightblue" stroke="midnightblue" points="498.455,-194.298 490.268,-187.573 492.474,-197.936 498.455,-194.298"/>
</g>
<!-- Node46&#45;&gt;Node21 -->
<g id="edge240" class="edge"><title>Node46&#45;&gt;Node21</title>
<path fill="none" stroke="midnightblue" d="M1141.52,-504.444C1172.07,-495.28 1220.71,-480.688 1254.6,-470.519"/>
<polygon fill="midnightblue" stroke="midnightblue" points="1256.04,-473.742 1264.61,-467.516 1254.03,-467.038 1256.04,-473.742"/>
</g>
<!-- Node47&#45;&gt;Node2 -->
<g id="edge246" class="edge"><title>Node47&#45;&gt;Node2</title>
<path fill="none" stroke="midnightblue" d="M207.082,-448.466C187.088,-441.365 160.958,-429.552 143,-412 99.7866,-369.763 81,-351.426 81,-291 81,-291 81,-291 81,-121 81,-80.458 108.049,-72.6813 145,-56 216.604,-23.6748 773.936,-13.6273 925.219,-11.4819"/>
<polygon fill="midnightblue" stroke="midnightblue" points="925.446,-14.9791 935.397,-11.3408 925.349,-7.9798 925.446,-14.9791"/>
</g>
<!-- Node47&#45;&gt;Node22 -->
<g id="edge248" class="edge"><title>Node47&#45;&gt;Node22</title>
<path fill="none" stroke="midnightblue" d="M283.632,-448.622C343.247,-438.136 444.4,-420.343 501.163,-410.359"/>
<polygon fill="midnightblue" stroke="midnightblue" points="501.983,-413.768 511.226,-408.589 500.77,-406.874 501.983,-413.768"/>
</g>
<!-- Node47&#45;&gt;Node32 -->
<g id="edge252" class="edge"><title>Node47&#45;&gt;Node32</title>
<path fill="none" stroke="midnightblue" d="M283.801,-451.966C298.887,-450.513 315.628,-449.041 331,-448 731.174,-420.901 1214.21,-408.035 1377.18,-404.242"/>
<polygon fill="midnightblue" stroke="midnightblue" points="1377.53,-407.735 1387.45,-404.005 1377.37,-400.736 1377.53,-407.735"/>
</g>
<!-- Node47&#45;&gt;Node36 -->
<g id="edge250" class="edge"><title>Node47&#45;&gt;Node36</title>
<path fill="none" stroke="midnightblue" d="M207.954,-448.444C177.918,-439.28 130.087,-424.688 96.7573,-414.519"/>
<polygon fill="midnightblue" stroke="midnightblue" points="97.5011,-411.087 86.915,-411.516 95.4584,-417.782 97.5011,-411.087"/>
</g>
<!-- Node48&#45;&gt;Node2 -->
<g id="edge256" class="edge"><title>Node48&#45;&gt;Node2</title>
<path fill="none" stroke="midnightblue" d="M44.9215,-448.343C37.2704,-439.725 25.9474,-425.823 19,-412 5.48421,-385.108 0,-377.098 0,-347 0,-347 0,-347 0,-121 0,-85.8636 14.2855,-73.0643 45,-56 122.798,-12.777 762.213,-10.7136 925.269,-10.897"/>
<polygon fill="midnightblue" stroke="midnightblue" points="925.305,-14.397 935.31,-10.912 925.315,-7.397 925.305,-14.397"/>
</g>
<!-- Node48&#45;&gt;Node22 -->
<g id="edge258" class="edge"><title>Node48&#45;&gt;Node22</title>
<path fill="none" stroke="midnightblue" d="M94.3548,-452.443C186.665,-442.27 408.653,-417.806 501.292,-407.596"/>
<polygon fill="midnightblue" stroke="midnightblue" points="501.856,-411.056 511.412,-406.481 501.089,-404.098 501.856,-411.056"/>
</g>
<!-- Node48&#45;&gt;Node36 -->
<g id="edge260" class="edge"><title>Node48&#45;&gt;Node36</title>
<path fill="none" stroke="midnightblue" d="M53.9908,-448.083C54.7859,-440.927 55.9294,-430.635 56.9232,-421.691"/>
<polygon fill="midnightblue" stroke="midnightblue" points="60.4018,-422.076 58.0277,-411.751 53.4447,-421.303 60.4018,-422.076"/>
</g>
<!-- Node49&#45;&gt;Node2 -->
<g id="edge270" class="edge"><title>Node49&#45;&gt;Node2</title>
<path fill="none" stroke="midnightblue" d="M339.833,-451.907C273.885,-438.543 119,-395.981 119,-291 119,-291 119,-291 119,-121 119,-71.6587 162.525,-72.5732 209,-56 342.94,-8.23623 791.088,-9.10425 924.937,-10.4851"/>
<polygon fill="midnightblue" stroke="midnightblue" points="925.069,-13.9867 935.107,-10.5975 925.147,-6.98712 925.069,-13.9867"/>
</g>
<!-- Node49&#45;&gt;Node8 -->
<g id="edge276" class="edge"><title>Node49&#45;&gt;Node8</title>
<path fill="none" stroke="midnightblue" d="M367.598,-448.3C363.71,-421.51 354.901,-338.547 384,-280 394.645,-258.582 406.912,-260.735 424,-244 440.481,-227.859 458.451,-208.477 470.588,-195.101"/>
<polygon fill="midnightblue" stroke="midnightblue" points="473.227,-197.401 477.326,-187.631 468.029,-192.713 473.227,-197.401"/>
</g>
<!-- Node49&#45;&gt;Node18 -->
<g id="edge274" class="edge"><title>Node49&#45;&gt;Node18</title>
<path fill="none" stroke="midnightblue" d="M371.709,-448.401C378.053,-428.455 394.581,-377.57 411,-336 414.577,-326.943 418.931,-317.036 422.661,-308.83"/>
<polygon fill="midnightblue" stroke="midnightblue" points="425.938,-310.082 426.949,-299.536 419.582,-307.15 425.938,-310.082"/>
</g>
<!-- Node49&#45;&gt;Node22 -->
<g id="edge272" class="edge"><title>Node49&#45;&gt;Node22</title>
<path fill="none" stroke="midnightblue" d="M396.571,-448.444C426.097,-439.28 473.118,-424.688 505.883,-414.519"/>
<polygon fill="midnightblue" stroke="midnightblue" points="507.045,-417.823 515.558,-411.516 504.97,-411.138 507.045,-417.823"/>
</g>
<!-- Node50 -->
<g id="node189" class="node"><title>Node50</title>
<a xlink:href="_s_l_tex_font_8h.html" target="_top" xlink:title="SLTexFont.h">
<polygon fill="white" stroke="black" points="261.5,-280.5 261.5,-299.5 336.5,-299.5 336.5,-280.5 261.5,-280.5"/>
<text text-anchor="middle" x="299" y="-287.5" font-family="Arial.ttf" font-size="10.00">SLTexFont.h</text>
</a>
</g>
<!-- Node49&#45;&gt;Node50 -->
<g id="edge278" class="edge"><title>Node49&#45;&gt;Node50</title>
<path fill="none" stroke="midnightblue" d="M360.936,-448.335C353.296,-439.712 341.981,-425.807 335,-412 317.755,-377.892 307.3,-334.106 302.386,-309.654"/>
<polygon fill="midnightblue" stroke="midnightblue" points="305.78,-308.77 300.463,-299.606 298.905,-310.086 305.78,-308.77"/>
</g>
<!-- Node50&#45;&gt;Node2 -->
<g id="edge280" class="edge"><title>Node50&#45;&gt;Node2</title>
<path fill="none" stroke="midnightblue" d="M295.224,-280.351C287.581,-262.034 271,-217.821 271,-179 271,-179 271,-179 271,-121 271,-90.3559 269.585,-74.5193 294,-56 344.399,-17.7714 791.515,-12.0189 925.328,-11.1533"/>
<polygon fill="midnightblue" stroke="midnightblue" points="925.517,-14.6524 935.496,-11.0932 925.476,-7.65248 925.517,-14.6524"/>
</g>
<!-- Node50&#45;&gt;Node6 -->
<g id="edge282" class="edge"><title>Node50&#45;&gt;Node6</title>
<path fill="none" stroke="midnightblue" d="M306.101,-280.083C312.237,-272.377 321.27,-261.033 328.739,-251.653"/>
<polygon fill="midnightblue" stroke="midnightblue" points="331.54,-253.754 335.032,-243.751 326.064,-249.394 331.54,-253.754"/>
</g>
<!-- Node50&#45;&gt;Node8 -->
<g id="edge284" class="edge"><title>Node50&#45;&gt;Node8</title>
<path fill="none" stroke="midnightblue" d="M319.927,-280.368C339.547,-271.979 369.455,-258.425 394,-244 420.18,-228.615 448.338,-207.766 466.285,-193.873"/>
<polygon fill="midnightblue" stroke="midnightblue" points="468.5,-196.583 474.221,-187.666 464.188,-191.07 468.5,-196.583"/>
</g>
</g>
</svg>
