<?xml version="1.0" encoding="UTF-8" standalone="no"?>
<!DOCTYPE svg PUBLIC "-//W3C//DTD SVG 1.1//EN"
 "http://www.w3.org/Graphics/SVG/1.1/DTD/svg11.dtd">
<!-- Generated by graphviz version 2.40.1 (20161225.0304)
 -->
<!-- Title: SLInterface.cpp Pages: 1 -->
<svg width="2838pt" height="412pt"
 viewBox="0.00 0.00 2837.89 412.00" xmlns="http://www.w3.org/2000/svg" xmlns:xlink="http://www.w3.org/1999/xlink">
<g id="graph0" class="graph" transform="scale(1 1) rotate(0) translate(4 408)">
<title>SLInterface.cpp</title>
<polygon fill="#ffffff" stroke="transparent" points="-4,4 -4,-408 2833.8862,-408 2833.8862,4 -4,4"/>
<!-- Node1 -->
<g id="node1" class="node">
<title>Node1</title>
<g id="a_node1"><a xlink:title=" ">
<polygon fill="#bfbfbf" stroke="#000000" points="2482.8447,-385.5 2482.8447,-403.5 2568.8887,-403.5 2568.8887,-385.5 2482.8447,-385.5"/>
<text text-anchor="middle" x="2525.8667" y="-391.5" font-family="Arial.ttf" font-size="10.00" fill="#000000">SLInterface.cpp</text>
</a>
</g>
</g>
<!-- Node2 -->
<g id="node2" class="node">
<title>Node2</title>
<g id="a_node2"><a xlink:href="stdafx_8h.html" target="_top" xlink:title=" ">
<polygon fill="#ffffff" stroke="#ff0000" points="1488.3569,-330.5 1488.3569,-348.5 1539.3765,-348.5 1539.3765,-330.5 1488.3569,-330.5"/>
<text text-anchor="middle" x="1513.8667" y="-336.5" font-family="Arial.ttf" font-size="10.00" fill="#000000">stdafx.h</text>
</a>
</g>
</g>
<!-- Node1&#45;&gt;Node2 -->
<g id="edge1" class="edge">
<title>Node1&#45;&gt;Node2</title>
<path fill="none" stroke="#191970" d="M2482.7061,-392.1543C2314.5191,-383.0137 1704.7116,-349.872 1549.8327,-341.4547"/>
<polygon fill="#191970" stroke="#191970" points="1549.6551,-337.9399 1539.4799,-340.892 1549.2752,-344.9296 1549.6551,-337.9399"/>
</g>
<!-- Node61 -->
<g id="node45" class="node">
<title>Node61</title>
<g id="a_node45"><a xlink:href="_s_l_interface_8h.html" target="_top" xlink:title=" ">
<polygon fill="#ffffff" stroke="#ff0000" points="2488.1255,-330.5 2488.1255,-348.5 2563.6079,-348.5 2563.6079,-330.5 2488.1255,-330.5"/>
<text text-anchor="middle" x="2525.8667" y="-336.5" font-family="Arial.ttf" font-size="10.00" fill="#000000">SLInterface.h</text>
</a>
</g>
</g>
<!-- Node1&#45;&gt;Node61 -->
<g id="edge75" class="edge">
<title>Node1&#45;&gt;Node61</title>
<path fill="none" stroke="#191970" d="M2525.8667,-385.4179C2525.8667,-378.2164 2525.8667,-367.8962 2525.8667,-358.8632"/>
<polygon fill="#191970" stroke="#191970" points="2529.3668,-358.7794 2525.8667,-348.7795 2522.3668,-358.7795 2529.3668,-358.7794"/>
</g>
<!-- Node62 -->
<g id="node46" class="node">
<title>Node62</title>
<g id="a_node46"><a xlink:href="_s_l_application_8h.html" target="_top" xlink:title=" ">
<polygon fill="#ffffff" stroke="#ff0000" points="120.1206,-330.5 120.1206,-348.5 205.6128,-348.5 205.6128,-330.5 120.1206,-330.5"/>
<text text-anchor="middle" x="162.8667" y="-336.5" font-family="Arial.ttf" font-size="10.00" fill="#000000">SLApplication.h</text>
</a>
</g>
</g>
<!-- Node1&#45;&gt;Node62 -->
<g id="edge77" class="edge">
<title>Node1&#45;&gt;Node62</title>
<path fill="none" stroke="#191970" d="M2482.8353,-393.4984C2193.6899,-386.7684 535.6261,-348.1762 216.1332,-340.7398"/>
<polygon fill="#191970" stroke="#191970" points="215.8475,-337.2323 205.7688,-340.4986 215.6846,-344.2304 215.8475,-337.2323"/>
</g>
<!-- Node73 -->
<g id="node47" class="node">
<title>Node73</title>
<g id="a_node47"><a xlink:href="_s_l_input_manager_8h.html" target="_top" xlink:title=" ">
<polygon fill="#ffffff" stroke="#ff0000" points="0,-275.5 0,-293.5 97.7334,-293.5 97.7334,-275.5 0,-275.5"/>
<text text-anchor="middle" x="48.8667" y="-281.5" font-family="Arial.ttf" font-size="10.00" fill="#000000">SLInputManager.h</text>
</a>
</g>
</g>
<!-- Node1&#45;&gt;Node73 -->
<g id="edge82" class="edge">
<title>Node1&#45;&gt;Node73</title>
<path fill="none" stroke="#191970" d="M2482.7217,-394.1448C2162.5742,-391.4537 167.4093,-373.7096 110.8667,-349 88.944,-339.4196 70.9569,-318.0174 60.1059,-302.4877"/>
<polygon fill="#191970" stroke="#191970" points="62.7448,-300.1341 54.3005,-293.7354 56.9114,-304.0035 62.7448,-300.1341"/>
</g>
<!-- Node77 -->
<g id="node48" class="node">
<title>Node77</title>
<g id="a_node48"><a xlink:href="_s_l_assimp_importer_8h.html" target="_top" xlink:title=" ">
<polygon fill="#ffffff" stroke="#ff0000" points="2723.8472,-330.5 2723.8472,-348.5 2829.8862,-348.5 2829.8862,-330.5 2723.8472,-330.5"/>
<text text-anchor="middle" x="2776.8667" y="-336.5" font-family="Arial.ttf" font-size="10.00" fill="#000000">SLAssimpImporter.h</text>
</a>
</g>
</g>
<!-- Node1&#45;&gt;Node77 -->
<g id="edge81" class="edge">
<title>Node1&#45;&gt;Node77</title>
<path fill="none" stroke="#191970" d="M2567.0332,-385.4795C2610.4394,-375.9681 2678.8963,-360.9676 2725.735,-350.7042"/>
<polygon fill="#191970" stroke="#191970" points="2726.6587,-354.0849 2735.6777,-348.5255 2725.1603,-347.2471 2726.6587,-354.0849"/>
</g>
<!-- Node91 -->
<g id="node49" class="node">
<title>Node91</title>
<g id="a_node49"><a xlink:href="_s_l_scene_8h.html" target="_top" xlink:title=" ">
<polygon fill="#ffffff" stroke="#ff0000" points="2517.4038,-220.5 2517.4038,-238.5 2582.3296,-238.5 2582.3296,-220.5 2517.4038,-220.5"/>
<text text-anchor="middle" x="2549.8667" y="-226.5" font-family="Arial.ttf" font-size="10.00" fill="#000000">SLScene.h</text>
</a>
</g>
</g>
<!-- Node1&#45;&gt;Node91 -->
<g id="edge83" class="edge">
<title>Node1&#45;&gt;Node91</title>
<path fill="none" stroke="#191970" d="M2569.2603,-387.3063C2609.1251,-379.708 2663.9249,-366.4163 2676.8667,-349 2692.1703,-328.4054 2670.1096,-290.6821 2654.8667,-275 2638.0115,-257.6591 2613.4464,-246.522 2592.3139,-239.6096"/>
<polygon fill="#191970" stroke="#191970" points="2593.1623,-236.2092 2582.5761,-236.6355 2591.1176,-242.9039 2593.1623,-236.2092"/>
</g>
<!-- Node103 -->
<g id="node50" class="node">
<title>Node103</title>
<g id="a_node50"><a xlink:href="_s_l_scene_view_8h.html" target="_top" xlink:title=" ">
<polygon fill="#ffffff" stroke="#ff0000" points="2581.9277,-330.5 2581.9277,-348.5 2667.8057,-348.5 2667.8057,-330.5 2581.9277,-330.5"/>
<text text-anchor="middle" x="2624.8667" y="-336.5" font-family="Arial.ttf" font-size="10.00" fill="#000000">SLSceneView.h</text>
</a>
</g>
</g>
<!-- Node1&#45;&gt;Node103 -->
<g id="edge89" class="edge">
<title>Node1&#45;&gt;Node103</title>
<path fill="none" stroke="#191970" d="M2542.2145,-385.4179C2557.8348,-376.7399 2581.6065,-363.5334 2599.6529,-353.5077"/>
<polygon fill="#191970" stroke="#191970" points="2601.4528,-356.5117 2608.4946,-348.5956 2598.0532,-350.3925 2601.4528,-356.5117"/>
</g>
<!-- Node3 -->
<g id="node3" class="node">
<title>Node3</title>
<g id="a_node3"><a xlink:title=" ">
<polygon fill="#ffffff" stroke="#bfbfbf" points="1818.3027,-275.5 1818.3027,-293.5 1875.4307,-293.5 1875.4307,-275.5 1818.3027,-275.5"/>
<text text-anchor="middle" x="1846.8667" y="-281.5" font-family="Arial.ttf" font-size="10.00" fill="#000000">algorithm</text>
</a>
</g>
</g>
<!-- Node2&#45;&gt;Node3 -->
<g id="edge2" class="edge">
<title>Node2&#45;&gt;Node3</title>
<path fill="none" stroke="#191970" d="M1539.7548,-336.3954C1589.7882,-330.2087 1703.4,-315.2551 1808.1421,-294.202"/>
<polygon fill="#191970" stroke="#191970" points="1809.147,-297.5694 1818.2483,-292.1457 1807.7512,-290.7099 1809.147,-297.5694"/>
</g>
<!-- Node4 -->
<g id="node4" class="node">
<title>Node4</title>
<g id="a_node4"><a xlink:title=" ">
<polygon fill="#ffffff" stroke="#bfbfbf" points="154.1401,-275.5 154.1401,-293.5 199.5933,-293.5 199.5933,-275.5 154.1401,-275.5"/>
<text text-anchor="middle" x="176.8667" y="-281.5" font-family="Arial.ttf" font-size="10.00" fill="#000000">atomic</text>
</a>
</g>
</g>
<!-- Node2&#45;&gt;Node4 -->
<g id="edge3" class="edge">
<title>Node2&#45;&gt;Node4</title>
<path fill="none" stroke="#191970" d="M1488.3117,-339.3591C1329.2353,-338.3688 473.0131,-331.3541 213.8667,-294 212.5744,-293.8137 211.262,-293.5999 209.9403,-293.3639"/>
<polygon fill="#191970" stroke="#191970" points="210.3128,-289.8649 199.8035,-291.2087 208.8569,-296.7119 210.3128,-289.8649"/>
</g>
<!-- Node5 -->
<g id="node5" class="node">
<title>Node5</title>
<g id="a_node5"><a xlink:title=" ">
<polygon fill="#ffffff" stroke="#bfbfbf" points="453.5786,-275.5 453.5786,-293.5 500.1548,-293.5 500.1548,-275.5 453.5786,-275.5"/>
<text text-anchor="middle" x="476.8667" y="-281.5" font-family="Arial.ttf" font-size="10.00" fill="#000000">chrono</text>
</a>
</g>
</g>
<!-- Node2&#45;&gt;Node5 -->
<g id="edge4" class="edge">
<title>Node2&#45;&gt;Node5</title>
<path fill="none" stroke="#191970" d="M1487.9593,-339.1497C1352.7462,-337.1983 726.3729,-326.6124 510.4743,-293.6145"/>
<polygon fill="#191970" stroke="#191970" points="510.9335,-290.1436 500.5073,-292.0261 509.8319,-297.0563 510.9335,-290.1436"/>
</g>
<!-- Node6 -->
<g id="node6" class="node">
<title>Node6</title>
<g id="a_node6"><a xlink:title=" ">
<polygon fill="#ffffff" stroke="#bfbfbf" points="518.4702,-275.5 518.4702,-293.5 567.2632,-293.5 567.2632,-275.5 518.4702,-275.5"/>
<text text-anchor="middle" x="542.8667" y="-281.5" font-family="Arial.ttf" font-size="10.00" fill="#000000">cstdarg</text>
</a>
</g>
</g>
<!-- Node2&#45;&gt;Node6 -->
<g id="edge5" class="edge">
<title>Node2&#45;&gt;Node6</title>
<path fill="none" stroke="#191970" d="M1487.9477,-339.0544C1358.316,-336.7042 778.9064,-324.7349 577.7373,-293.9091"/>
<polygon fill="#191970" stroke="#191970" points="578.0192,-290.4097 567.5915,-292.284 576.9121,-297.3216 578.0192,-290.4097"/>
</g>
<!-- Node7 -->
<g id="node7" class="node">
<title>Node7</title>
<g id="a_node7"><a xlink:title=" ">
<polygon fill="#ffffff" stroke="#bfbfbf" points="584.9209,-275.5 584.9209,-293.5 624.8125,-293.5 624.8125,-275.5 584.9209,-275.5"/>
<text text-anchor="middle" x="604.8667" y="-281.5" font-family="Arial.ttf" font-size="10.00" fill="#000000">ctime</text>
</a>
</g>
</g>
<!-- Node2&#45;&gt;Node7 -->
<g id="edge6" class="edge">
<title>Node2&#45;&gt;Node7</title>
<path fill="none" stroke="#191970" d="M1488.2886,-339.0902C1364.2757,-336.967 824.2047,-326.1203 635.0496,-293.6546"/>
<polygon fill="#191970" stroke="#191970" points="635.4319,-290.1672 624.97,-291.8406 634.192,-297.0566 635.4319,-290.1672"/>
</g>
<!-- Node8 -->
<g id="node8" class="node">
<title>Node8</title>
<g id="a_node8"><a xlink:title=" ">
<polygon fill="#ffffff" stroke="#bfbfbf" points="643.1968,-275.5 643.1968,-293.5 692.5366,-293.5 692.5366,-275.5 643.1968,-275.5"/>
<text text-anchor="middle" x="667.8667" y="-281.5" font-family="Arial.ttf" font-size="10.00" fill="#000000">fstream</text>
</a>
</g>
</g>
<!-- Node2&#45;&gt;Node8 -->
<g id="edge7" class="edge">
<title>Node2&#45;&gt;Node8</title>
<path fill="none" stroke="#191970" d="M1488.3247,-338.8135C1370.5461,-335.5364 878.4983,-320.5967 702.7316,-293.7026"/>
<polygon fill="#191970" stroke="#191970" points="703.0373,-290.2071 692.6096,-292.0812 701.9301,-297.1189 703.0373,-290.2071"/>
</g>
<!-- Node9 -->
<g id="node9" class="node">
<title>Node9</title>
<g id="a_node9"><a xlink:title=" ">
<polygon fill="#ffffff" stroke="#bfbfbf" points="710.4629,-275.5 710.4629,-293.5 769.2705,-293.5 769.2705,-275.5 710.4629,-275.5"/>
<text text-anchor="middle" x="739.8667" y="-281.5" font-family="Arial.ttf" font-size="10.00" fill="#000000">functional</text>
</a>
</g>
</g>
<!-- Node2&#45;&gt;Node9 -->
<g id="edge8" class="edge">
<title>Node2&#45;&gt;Node9</title>
<path fill="none" stroke="#191970" d="M1488.1282,-338.5429C1377.1883,-334.3223 938.6662,-316.6376 779.6928,-293.9882"/>
<polygon fill="#191970" stroke="#191970" points="780.0388,-290.5012 769.6322,-292.4892 779.0072,-297.4248 780.0388,-290.5012"/>
</g>
<!-- Node10 -->
<g id="node10" class="node">
<title>Node10</title>
<g id="a_node10"><a xlink:title=" ">
<polygon fill="#ffffff" stroke="#bfbfbf" points="787.3569,-275.5 787.3569,-293.5 838.3765,-293.5 838.3765,-275.5 787.3569,-275.5"/>
<text text-anchor="middle" x="812.8667" y="-281.5" font-family="Arial.ttf" font-size="10.00" fill="#000000">iomanip</text>
</a>
</g>
</g>
<!-- Node2&#45;&gt;Node10 -->
<g id="edge9" class="edge">
<title>Node2&#45;&gt;Node10</title>
<path fill="none" stroke="#191970" d="M1488.0549,-338.4457C1383.7705,-334.0799 992.6352,-316.6525 848.6625,-293.9574"/>
<polygon fill="#191970" stroke="#191970" points="849.1681,-290.4935 838.7309,-292.3143 848.0255,-297.3997 849.1681,-290.4935"/>
</g>
<!-- Node11 -->
<g id="node11" class="node">
<title>Node11</title>
<g id="a_node11"><a xlink:title=" ">
<polygon fill="#ffffff" stroke="#bfbfbf" points="1970.6943,-110.5 1970.6943,-128.5 2025.0391,-128.5 2025.0391,-110.5 1970.6943,-110.5"/>
<text text-anchor="middle" x="1997.8667" y="-116.5" font-family="Arial.ttf" font-size="10.00" fill="#000000">iostream</text>
</a>
</g>
</g>
<!-- Node2&#45;&gt;Node11 -->
<g id="edge10" class="edge">
<title>Node2&#45;&gt;Node11</title>
<path fill="none" stroke="#191970" d="M1539.4165,-339.0186C1634.3145,-336.9732 1962.6765,-327.5071 1993.8667,-294 1999.0788,-288.4007 1998.5568,-183.039 1998.1041,-138.8006"/>
<polygon fill="#191970" stroke="#191970" points="2001.6008,-138.48 1997.9885,-128.52 1994.6012,-138.5588 2001.6008,-138.48"/>
</g>
<!-- Node12 -->
<g id="node12" class="node">
<title>Node12</title>
<g id="a_node12"><a xlink:title=" ">
<polygon fill="#ffffff" stroke="#bfbfbf" points="856.3667,-275.5 856.3667,-293.5 885.3667,-293.5 885.3667,-275.5 856.3667,-275.5"/>
<text text-anchor="middle" x="870.4775" y="-281.5" font-family="Arial.ttf" font-size="10.00" fill="#000000">list</text>
</a>
</g>
</g>
<!-- Node2&#45;&gt;Node12 -->
<g id="edge11" class="edge">
<title>Node2&#45;&gt;Node12</title>
<path fill="none" stroke="#191970" d="M1488.0856,-338.6993C1388.543,-335.4438 1028.5886,-322.1156 895.6516,-293.6929"/>
<polygon fill="#191970" stroke="#191970" points="896.2594,-290.2419 885.7326,-291.4407 894.7093,-297.0681 896.2594,-290.2419"/>
</g>
<!-- Node13 -->
<g id="node13" class="node">
<title>Node13</title>
<g id="a_node13"><a xlink:title=" ">
<polygon fill="#ffffff" stroke="#bfbfbf" points="256.1401,-220.5 256.1401,-238.5 291.5933,-238.5 291.5933,-220.5 256.1401,-220.5"/>
<text text-anchor="middle" x="273.8667" y="-226.5" font-family="Arial.ttf" font-size="10.00" fill="#000000">map</text>
</a>
</g>
</g>
<!-- Node2&#45;&gt;Node13 -->
<g id="edge12" class="edge">
<title>Node2&#45;&gt;Node13</title>
<path fill="none" stroke="#191970" d="M1488.2796,-339.4145C1316.6325,-338.734 338.034,-333.1425 289.8667,-294 276.7384,-283.3314 273.3999,-263.7248 272.9436,-248.9184"/>
<polygon fill="#191970" stroke="#191970" points="276.4449,-248.7927 273.0421,-238.7592 269.4453,-248.7248 276.4449,-248.7927"/>
</g>
<!-- Node14 -->
<g id="node14" class="node">
<title>Node14</title>
<g id="a_node14"><a xlink:title=" ">
<polygon fill="#ffffff" stroke="#bfbfbf" points="902.9629,-275.5 902.9629,-293.5 946.7705,-293.5 946.7705,-275.5 902.9629,-275.5"/>
<text text-anchor="middle" x="924.8667" y="-281.5" font-family="Arial.ttf" font-size="10.00" fill="#000000">queue</text>
</a>
</g>
</g>
<!-- Node2&#45;&gt;Node14 -->
<g id="edge13" class="edge">
<title>Node2&#45;&gt;Node14</title>
<path fill="none" stroke="#191970" d="M1488.1678,-338.1437C1395.6145,-333.1477 1078.813,-315.0538 957.1985,-293.7999"/>
<polygon fill="#191970" stroke="#191970" points="957.5414,-290.3042 947.0727,-291.9337 956.2727,-297.1883 957.5414,-290.3042"/>
</g>
<!-- Node15 -->
<g id="node15" class="node">
<title>Node15</title>
<g id="a_node15"><a xlink:title=" ">
<polygon fill="#ffffff" stroke="#bfbfbf" points="964.9136,-275.5 964.9136,-293.5 1014.8198,-293.5 1014.8198,-275.5 964.9136,-275.5"/>
<text text-anchor="middle" x="989.8667" y="-281.5" font-family="Arial.ttf" font-size="10.00" fill="#000000">random</text>
</a>
</g>
</g>
<!-- Node2&#45;&gt;Node15 -->
<g id="edge14" class="edge">
<title>Node2&#45;&gt;Node15</title>
<path fill="none" stroke="#191970" d="M1488.1385,-338.7396C1416.2594,-336.2731 1207.1998,-326.7637 1025.0265,-293.9033"/>
<polygon fill="#191970" stroke="#191970" points="1025.4667,-290.4258 1014.9995,-292.0657 1024.2048,-297.3111 1025.4667,-290.4258"/>
</g>
<!-- Node16 -->
<g id="node16" class="node">
<title>Node16</title>
<g id="a_node16"><a xlink:title=" ">
<polygon fill="#ffffff" stroke="#bfbfbf" points="1265.0859,-220.5 1265.0859,-238.5 1316.6475,-238.5 1316.6475,-220.5 1265.0859,-220.5"/>
<text text-anchor="middle" x="1290.8667" y="-226.5" font-family="Arial.ttf" font-size="10.00" fill="#000000">sstream</text>
</a>
</g>
</g>
<!-- Node2&#45;&gt;Node16 -->
<g id="edge15" class="edge">
<title>Node2&#45;&gt;Node16</title>
<path fill="none" stroke="#191970" d="M1539.4785,-339.1077C1630.9039,-337.2695 1933.237,-327.2171 1884.8667,-275 1865.8294,-254.4487 1453.4577,-236.0899 1327.246,-230.9357"/>
<polygon fill="#191970" stroke="#191970" points="1327.09,-227.4266 1316.9565,-230.5189 1326.8066,-234.4208 1327.09,-227.4266"/>
</g>
<!-- Node17 -->
<g id="node17" class="node">
<title>Node17</title>
<g id="a_node17"><a xlink:title=" ">
<polygon fill="#ffffff" stroke="#bfbfbf" points="1706.6401,-220.5 1706.6401,-238.5 1747.0933,-238.5 1747.0933,-220.5 1706.6401,-220.5"/>
<text text-anchor="middle" x="1726.8667" y="-226.5" font-family="Arial.ttf" font-size="10.00" fill="#000000">string</text>
</a>
</g>
</g>
<!-- Node2&#45;&gt;Node17 -->
<g id="edge16" class="edge">
<title>Node2&#45;&gt;Node17</title>
<path fill="none" stroke="#191970" d="M1539.3937,-338.5611C1624.1896,-335.1836 1892.5568,-322.3204 1917.8667,-294 1923.4938,-287.7036 1923.1004,-281.627 1917.8667,-275 1898.184,-250.0777 1805.9695,-237.3305 1757.234,-232.2381"/>
<polygon fill="#191970" stroke="#191970" points="1757.5531,-228.7526 1747.2542,-231.239 1756.8557,-235.7178 1757.5531,-228.7526"/>
</g>
<!-- Node18 -->
<g id="node18" class="node">
<title>Node18</title>
<g id="a_node18"><a xlink:title=" ">
<polygon fill="#ffffff" stroke="#bfbfbf" points="1032.6895,-275.5 1032.6895,-293.5 1077.0439,-293.5 1077.0439,-275.5 1032.6895,-275.5"/>
<text text-anchor="middle" x="1054.8667" y="-281.5" font-family="Arial.ttf" font-size="10.00" fill="#000000">thread</text>
</a>
</g>
</g>
<!-- Node2&#45;&gt;Node18 -->
<g id="edge17" class="edge">
<title>Node2&#45;&gt;Node18</title>
<path fill="none" stroke="#191970" d="M1488.0358,-338.4771C1422.3929,-335.5148 1243.8402,-325.1894 1086.9131,-293.862"/>
<polygon fill="#191970" stroke="#191970" points="1087.5825,-290.4266 1077.086,-291.8666 1086.1895,-297.2866 1087.5825,-290.4266"/>
</g>
<!-- Node19 -->
<g id="node19" class="node">
<title>Node19</title>
<g id="a_node19"><a xlink:title=" ">
<polygon fill="#ffffff" stroke="#bfbfbf" points="1095.3545,-275.5 1095.3545,-293.5 1146.3789,-293.5 1146.3789,-275.5 1095.3545,-275.5"/>
<text text-anchor="middle" x="1120.8667" y="-281.5" font-family="Arial.ttf" font-size="10.00" fill="#000000">typeinfo</text>
</a>
</g>
</g>
<!-- Node2&#45;&gt;Node19 -->
<g id="edge18" class="edge">
<title>Node2&#45;&gt;Node19</title>
<path fill="none" stroke="#191970" d="M1488.0579,-337.4564C1430.3962,-332.6288 1286.6358,-319.1394 1156.5237,-293.8645"/>
<polygon fill="#191970" stroke="#191970" points="1156.8724,-290.3659 1146.3841,-291.865 1155.518,-297.2337 1156.8724,-290.3659"/>
</g>
<!-- Node20 -->
<g id="node20" class="node">
<title>Node20</title>
<g id="a_node20"><a xlink:title=" ">
<polygon fill="#ffffff" stroke="#bfbfbf" points="2122.251,-165.5 2122.251,-183.5 2165.4824,-183.5 2165.4824,-165.5 2122.251,-165.5"/>
<text text-anchor="middle" x="2143.8667" y="-171.5" font-family="Arial.ttf" font-size="10.00" fill="#000000">vector</text>
</a>
</g>
</g>
<!-- Node2&#45;&gt;Node20 -->
<g id="edge19" class="edge">
<title>Node2&#45;&gt;Node20</title>
<path fill="none" stroke="#191970" d="M1539.4167,-339.2187C1647.4226,-337.8073 2063.0351,-330.0552 2107.8667,-294 2138.1533,-269.6424 2143.6717,-220.7493 2144.2619,-193.6625"/>
<polygon fill="#191970" stroke="#191970" points="2147.7619,-193.5272 2144.2709,-183.5241 2140.7619,-193.5209 2147.7619,-193.5272"/>
</g>
<!-- Node21 -->
<g id="node21" class="node">
<title>Node21</title>
<g id="a_node21"><a xlink:title=" ">
<polygon fill="#ffffff" stroke="#bfbfbf" points="1164.8101,-275.5 1164.8101,-293.5 1216.9233,-293.5 1216.9233,-275.5 1164.8101,-275.5"/>
<text text-anchor="middle" x="1190.8667" y="-281.5" font-family="Arial.ttf" font-size="10.00" fill="#000000">memory</text>
</a>
</g>
</g>
<!-- Node2&#45;&gt;Node21 -->
<g id="edge20" class="edge">
<title>Node2&#45;&gt;Node21</title>
<path fill="none" stroke="#191970" d="M1488.2688,-336.4032C1439.3508,-330.2833 1329.0731,-315.5164 1227.014,-294.0632"/>
<polygon fill="#191970" stroke="#191970" points="1227.675,-290.6255 1217.1653,-291.9663 1226.2172,-297.4721 1227.675,-290.6255"/>
</g>
<!-- Node22 -->
<g id="node22" class="node">
<title>Node22</title>
<g id="a_node22"><a xlink:title=" ">
<polygon fill="#ffffff" stroke="#bfbfbf" points="2487.0811,-165.5 2487.0811,-183.5 2538.6523,-183.5 2538.6523,-165.5 2487.0811,-165.5"/>
<text text-anchor="middle" x="2512.8667" y="-171.5" font-family="Arial.ttf" font-size="10.00" fill="#000000">assert.h</text>
</a>
</g>
</g>
<!-- Node2&#45;&gt;Node22 -->
<g id="edge21" class="edge">
<title>Node2&#45;&gt;Node22</title>
<path fill="none" stroke="#191970" d="M1539.4963,-339.1187C1688.5857,-336.7978 2438.8496,-323.6701 2476.8667,-294 2492.7642,-281.5929 2504.5761,-224.0498 2509.8389,-193.5681"/>
<polygon fill="#191970" stroke="#191970" points="2513.2927,-194.1342 2511.4769,-183.6961 2506.3871,-192.9883 2513.2927,-194.1342"/>
</g>
<!-- Node23 -->
<g id="node23" class="node">
<title>Node23</title>
<g id="a_node23"><a xlink:title=" ">
<polygon fill="#ffffff" stroke="#bfbfbf" points="1235.2461,-275.5 1235.2461,-293.5 1278.4873,-293.5 1278.4873,-275.5 1235.2461,-275.5"/>
<text text-anchor="middle" x="1256.8667" y="-281.5" font-family="Arial.ttf" font-size="10.00" fill="#000000">float.h</text>
</a>
</g>
</g>
<!-- Node2&#45;&gt;Node23 -->
<g id="edge22" class="edge">
<title>Node2&#45;&gt;Node23</title>
<path fill="none" stroke="#191970" d="M1488.1286,-335.2823C1447.5565,-328.4324 1366.1082,-313.8685 1288.6547,-294.2718"/>
<polygon fill="#191970" stroke="#191970" points="1289.2981,-290.8237 1278.7421,-291.73 1287.5593,-297.6043 1289.2981,-290.8237"/>
</g>
<!-- Node24 -->
<g id="node24" class="node">
<title>Node24</title>
<g id="a_node24"><a xlink:title=" ">
<polygon fill="#ffffff" stroke="#bfbfbf" points="1296.3101,-275.5 1296.3101,-293.5 1343.4233,-293.5 1343.4233,-275.5 1296.3101,-275.5"/>
<text text-anchor="middle" x="1319.8667" y="-281.5" font-family="Arial.ttf" font-size="10.00" fill="#000000">limits.h</text>
</a>
</g>
</g>
<!-- Node2&#45;&gt;Node24 -->
<g id="edge23" class="edge">
<title>Node2&#45;&gt;Node24</title>
<path fill="none" stroke="#191970" d="M1488.2023,-332.2886C1458.2204,-323.855 1406.8734,-309.3838 1353.3215,-294.1201"/>
<polygon fill="#191970" stroke="#191970" points="1354.2323,-290.7404 1343.6558,-291.3633 1352.3123,-297.4719 1354.2323,-290.7404"/>
</g>
<!-- Node25 -->
<g id="node25" class="node">
<title>Node25</title>
<g id="a_node25"><a xlink:title=" ">
<polygon fill="#ffffff" stroke="#bfbfbf" points="1361.5811,-275.5 1361.5811,-293.5 1408.1523,-293.5 1408.1523,-275.5 1361.5811,-275.5"/>
<text text-anchor="middle" x="1384.8667" y="-281.5" font-family="Arial.ttf" font-size="10.00" fill="#000000">math.h</text>
</a>
</g>
</g>
<!-- Node2&#45;&gt;Node25 -->
<g id="edge24" class="edge">
<title>Node2&#45;&gt;Node25</title>
<path fill="none" stroke="#191970" d="M1492.565,-330.4179C1471.5577,-321.4613 1439.2359,-307.6806 1415.4796,-297.552"/>
<polygon fill="#191970" stroke="#191970" points="1416.7716,-294.2981 1406.2001,-293.5956 1414.0262,-300.7372 1416.7716,-294.2981"/>
</g>
<!-- Node26 -->
<g id="node26" class="node">
<title>Node26</title>
<g id="a_node26"><a xlink:title=" ">
<polygon fill="#ffffff" stroke="#bfbfbf" points="1426.1353,-275.5 1426.1353,-293.5 1471.5981,-293.5 1471.5981,-275.5 1426.1353,-275.5"/>
<text text-anchor="middle" x="1448.8667" y="-281.5" font-family="Arial.ttf" font-size="10.00" fill="#000000">stdio.h</text>
</a>
</g>
</g>
<!-- Node2&#45;&gt;Node26 -->
<g id="edge25" class="edge">
<title>Node2&#45;&gt;Node26</title>
<path fill="none" stroke="#191970" d="M1503.1333,-330.4179C1493.5001,-322.2667 1479.145,-310.1201 1467.6185,-300.3669"/>
<polygon fill="#191970" stroke="#191970" points="1469.728,-297.5671 1459.8333,-293.7795 1465.2064,-302.9108 1469.728,-297.5671"/>
</g>
<!-- Node27 -->
<g id="node27" class="node">
<title>Node27</title>
<g id="a_node27"><a xlink:title=" ">
<polygon fill="#ffffff" stroke="#bfbfbf" points="1490.0244,-275.5 1490.0244,-293.5 1537.709,-293.5 1537.709,-275.5 1490.0244,-275.5"/>
<text text-anchor="middle" x="1513.8667" y="-281.5" font-family="Arial.ttf" font-size="10.00" fill="#000000">stdlib.h</text>
</a>
</g>
</g>
<!-- Node2&#45;&gt;Node27 -->
<g id="edge26" class="edge">
<title>Node2&#45;&gt;Node27</title>
<path fill="none" stroke="#191970" d="M1513.8667,-330.4179C1513.8667,-323.2164 1513.8667,-312.8962 1513.8667,-303.8632"/>
<polygon fill="#191970" stroke="#191970" points="1517.3668,-303.7794 1513.8667,-293.7795 1510.3668,-303.7795 1517.3668,-303.7794"/>
</g>
<!-- Node28 -->
<g id="node28" class="node">
<title>Node28</title>
<g id="a_node28"><a xlink:title=" ">
<polygon fill="#ffffff" stroke="#bfbfbf" points="1555.4702,-275.5 1555.4702,-293.5 1604.2632,-293.5 1604.2632,-275.5 1555.4702,-275.5"/>
<text text-anchor="middle" x="1579.8667" y="-281.5" font-family="Arial.ttf" font-size="10.00" fill="#000000">string.h</text>
</a>
</g>
</g>
<!-- Node2&#45;&gt;Node28 -->
<g id="edge27" class="edge">
<title>Node2&#45;&gt;Node28</title>
<path fill="none" stroke="#191970" d="M1524.7653,-330.4179C1534.5466,-322.2667 1549.1225,-310.1201 1560.8264,-300.3669"/>
<polygon fill="#191970" stroke="#191970" points="1563.2898,-302.8701 1568.7314,-293.7795 1558.8085,-297.4926 1563.2898,-302.8701"/>
</g>
<!-- Node29 -->
<g id="node29" class="node">
<title>Node29</title>
<g id="a_node29"><a xlink:title=" ">
<polygon fill="#ffffff" stroke="#bfbfbf" points="1622.251,-275.5 1622.251,-293.5 1665.4824,-293.5 1665.4824,-275.5 1622.251,-275.5"/>
<text text-anchor="middle" x="1643.8667" y="-281.5" font-family="Arial.ttf" font-size="10.00" fill="#000000">time.h</text>
</a>
</g>
</g>
<!-- Node2&#45;&gt;Node29 -->
<g id="edge28" class="edge">
<title>Node2&#45;&gt;Node29</title>
<path fill="none" stroke="#191970" d="M1535.3336,-330.4179C1556.5037,-321.4613 1589.0761,-307.6806 1613.0165,-297.552"/>
<polygon fill="#191970" stroke="#191970" points="1614.522,-300.7155 1622.368,-293.5956 1611.7945,-294.2687 1614.522,-300.7155"/>
</g>
<!-- Node30 -->
<g id="node30" class="node">
<title>Node30</title>
<g id="a_node30"><a xlink:href="_s_l_8h.html" target="_top" xlink:title=" ">
<polygon fill="#ffffff" stroke="#ff0000" points="2231.5811,-.5 2231.5811,-18.5 2268.1523,-18.5 2268.1523,-.5 2231.5811,-.5"/>
<text text-anchor="middle" x="2249.8667" y="-6.5" font-family="Arial.ttf" font-size="10.00" fill="#000000">SL.h</text>
</a>
</g>
</g>
<!-- Node2&#45;&gt;Node30 -->
<g id="edge29" class="edge">
<title>Node2&#45;&gt;Node30</title>
<path fill="none" stroke="#191970" d="M1539.395,-338.5311C1626.2134,-334.9959 1906.2667,-321.5322 1934.8667,-294 1994.4126,-236.6773 1909.2308,-173.7265 1961.8667,-110 1995.8891,-68.809 2155.1837,-30.1184 2221.1485,-15.5741"/>
<polygon fill="#191970" stroke="#191970" points="2222.233,-18.9201 2231.2599,-13.3733 2220.7442,-12.0802 2222.233,-18.9201"/>
</g>
<!-- Node32 -->
<g id="node31" class="node">
<title>Node32</title>
<g id="a_node31"><a xlink:href="_s_l_enums_8h.html" target="_top" xlink:title=" ">
<polygon fill="#ffffff" stroke="#000000" points="2562.0195,-275.5 2562.0195,-293.5 2629.7139,-293.5 2629.7139,-275.5 2562.0195,-275.5"/>
<text text-anchor="middle" x="2595.8667" y="-281.5" font-family="Arial.ttf" font-size="10.00" fill="#000000">SLEnums.h</text>
</a>
</g>
</g>
<!-- Node2&#45;&gt;Node32 -->
<g id="edge30" class="edge">
<title>Node2&#45;&gt;Node32</title>
<path fill="none" stroke="#191970" d="M1539.5841,-338.8972C1678.84,-335.553 2343.8192,-318.5384 2547.8667,-294 2549.1476,-293.846 2550.4455,-293.6768 2551.7539,-293.4947"/>
<polygon fill="#191970" stroke="#191970" points="2552.5525,-296.9119 2561.88,-291.8872 2551.4549,-289.9984 2552.5525,-296.9119"/>
</g>
<!-- Node33 -->
<g id="node32" class="node">
<title>Node33</title>
<g id="a_node32"><a xlink:href="_s_l_g_l_state_8h.html" target="_top" xlink:title=" ">
<polygon fill="#ffffff" stroke="#000000" points="2236.2363,-275.5 2236.2363,-293.5 2309.4971,-293.5 2309.4971,-275.5 2236.2363,-275.5"/>
<text text-anchor="middle" x="2272.8667" y="-281.5" font-family="Arial.ttf" font-size="10.00" fill="#000000">SLGLState.h</text>
</a>
</g>
</g>
<!-- Node2&#45;&gt;Node33 -->
<g id="edge31" class="edge">
<title>Node2&#45;&gt;Node33</title>
<path fill="none" stroke="#191970" d="M1539.689,-338.9586C1632.3441,-336.7788 1956.6452,-327.103 2221.8667,-294 2223.319,-293.8187 2224.7924,-293.6222 2226.2784,-293.4131"/>
<polygon fill="#191970" stroke="#191970" points="2226.8321,-296.8691 2236.1778,-291.8783 2225.7597,-289.9518 2226.8321,-296.8691"/>
</g>
<!-- Node34 -->
<g id="node33" class="node">
<title>Node34</title>
<g id="a_node33"><a xlink:href="_s_l_vec3_8h.html" target="_top" xlink:title=" ">
<polygon fill="#ffffff" stroke="#ff0000" points="2277.8267,-110.5 2277.8267,-128.5 2335.9067,-128.5 2335.9067,-110.5 2277.8267,-110.5"/>
<text text-anchor="middle" x="2306.8667" y="-116.5" font-family="Arial.ttf" font-size="10.00" fill="#000000">SLVec3.h</text>
</a>
</g>
</g>
<!-- Node2&#45;&gt;Node34 -->
<g id="edge65" class="edge">
<title>Node2&#45;&gt;Node34</title>
<path fill="none" stroke="#191970" d="M1539.6238,-338.8439C1652.5791,-335.8101 2100.9954,-322.0791 2156.8667,-294 2227.0161,-258.7451 2277.8599,-174.7827 2297.6985,-137.6716"/>
<polygon fill="#191970" stroke="#191970" points="2300.9466,-139.0121 2302.4621,-128.5262 2294.7383,-135.7783 2300.9466,-139.0121"/>
</g>
<!-- Node35 -->
<g id="node34" class="node">
<title>Node35</title>
<g id="a_node34"><a xlink:href="_s_l_vec2_8h.html" target="_top" xlink:title=" ">
<polygon fill="#ffffff" stroke="#ff0000" points="2220.8267,-55.5 2220.8267,-73.5 2278.9067,-73.5 2278.9067,-55.5 2220.8267,-55.5"/>
<text text-anchor="middle" x="2249.8667" y="-61.5" font-family="Arial.ttf" font-size="10.00" fill="#000000">SLVec2.h</text>
</a>
</g>
</g>
<!-- Node2&#45;&gt;Node35 -->
<g id="edge64" class="edge">
<title>Node2&#45;&gt;Node35</title>
<path fill="none" stroke="#191970" d="M1539.4761,-338.6478C1640.4327,-335.1114 2007.5202,-320.5216 2051.8667,-294 2081.2254,-276.4419 2093.8667,-263.7085 2093.8667,-229.5 2093.8667,-229.5 2093.8667,-229.5 2093.8667,-174.5 2093.8667,-117.3833 2164.5774,-87.3148 2210.786,-73.7633"/>
<polygon fill="#191970" stroke="#191970" points="2211.8347,-77.1044 2220.5243,-71.0429 2209.9513,-70.3625 2211.8347,-77.1044"/>
</g>
<!-- Node36 -->
<g id="node35" class="node">
<title>Node36</title>
<g id="a_node35"><a xlink:href="_s_l_vec4_8h.html" target="_top" xlink:title=" ">
<polygon fill="#ffffff" stroke="#ff0000" points="2372.8267,-165.5 2372.8267,-183.5 2430.9067,-183.5 2430.9067,-165.5 2372.8267,-165.5"/>
<text text-anchor="middle" x="2401.8667" y="-171.5" font-family="Arial.ttf" font-size="10.00" fill="#000000">SLVec4.h</text>
</a>
</g>
</g>
<!-- Node2&#45;&gt;Node36 -->
<g id="edge66" class="edge">
<title>Node2&#45;&gt;Node36</title>
<path fill="none" stroke="#191970" d="M1539.4501,-338.7665C1673.0136,-334.8476 2285.4187,-315.7437 2318.8667,-294 2349.8644,-273.8491 2335.1706,-249.9365 2356.8667,-220 2364.5539,-209.3932 2374.7057,-198.905 2383.4213,-190.6762"/>
<polygon fill="#191970" stroke="#191970" points="2385.9005,-193.1516 2390.9097,-183.8157 2381.1719,-187.9902 2385.9005,-193.1516"/>
</g>
<!-- Node37 -->
<g id="node36" class="node">
<title>Node37</title>
<g id="a_node36"><a xlink:href="_s_l_mat4_8h.html" target="_top" xlink:title=" ">
<polygon fill="#ffffff" stroke="#ff0000" points="2365.4653,-220.5 2365.4653,-238.5 2424.2681,-238.5 2424.2681,-220.5 2365.4653,-220.5"/>
<text text-anchor="middle" x="2394.8667" y="-226.5" font-family="Arial.ttf" font-size="10.00" fill="#000000">SLMat4.h</text>
</a>
</g>
</g>
<!-- Node2&#45;&gt;Node37 -->
<g id="edge50" class="edge">
<title>Node2&#45;&gt;Node37</title>
<path fill="none" stroke="#191970" d="M1539.548,-338.7517C1676.4701,-334.6807 2315.7212,-314.6245 2351.8667,-294 2369.532,-283.9203 2381.3257,-263.2636 2388.0239,-248.0305"/>
<polygon fill="#191970" stroke="#191970" points="2391.3543,-249.1305 2391.8566,-238.5476 2384.8644,-246.5074 2391.3543,-249.1305"/>
</g>
<!-- Node39 -->
<g id="node37" class="node">
<title>Node39</title>
<g id="a_node37"><a xlink:href="_s_l_mat3_8h.html" target="_top" xlink:title=" ">
<polygon fill="#ffffff" stroke="#ff0000" points="2007.4653,-165.5 2007.4653,-183.5 2066.2681,-183.5 2066.2681,-165.5 2007.4653,-165.5"/>
<text text-anchor="middle" x="2036.8667" y="-171.5" font-family="Arial.ttf" font-size="10.00" fill="#000000">SLMat3.h</text>
</a>
</g>
</g>
<!-- Node2&#45;&gt;Node39 -->
<g id="edge49" class="edge">
<title>Node2&#45;&gt;Node39</title>
<path fill="none" stroke="#191970" d="M1539.682,-339.1838C1639.6647,-337.7009 1997.5703,-329.9041 2031.8667,-294 2057.3431,-267.3293 2049.8732,-220.1392 2042.9114,-193.7443"/>
<polygon fill="#191970" stroke="#191970" points="2046.186,-192.4674 2040.0564,-183.8258 2039.4592,-194.4038 2046.186,-192.4674"/>
</g>
<!-- Node42 -->
<g id="node38" class="node">
<title>Node42</title>
<g id="a_node38"><a xlink:href="_s_l_object_8h.html" target="_top" xlink:title=" ">
<polygon fill="#ffffff" stroke="#000000" points="938.1304,-55.5 938.1304,-73.5 1003.603,-73.5 1003.603,-55.5 938.1304,-55.5"/>
<text text-anchor="middle" x="970.8667" y="-61.5" font-family="Arial.ttf" font-size="10.00" fill="#000000">SLObject.h</text>
</a>
</g>
</g>
<!-- Node2&#45;&gt;Node42 -->
<g id="edge51" class="edge">
<title>Node2&#45;&gt;Node42</title>
<path fill="none" stroke="#191970" d="M1488.0973,-339.1982C1315.2079,-337.0938 329.2265,-323.8118 273.8667,-294 242.8658,-277.3057 227.8667,-264.7101 227.8667,-229.5 227.8667,-229.5 227.8667,-229.5 227.8667,-174.5 227.8667,-103.276 769.0348,-73.5034 927.6648,-66.3062"/>
<polygon fill="#191970" stroke="#191970" points="928.1483,-69.7882 937.9822,-65.8456 927.836,-62.7951 928.1483,-69.7882"/>
</g>
<!-- Node43 -->
<g id="node39" class="node">
<title>Node43</title>
<g id="a_node39"><a xlink:href="_s_l_plane_8h.html" target="_top" xlink:title=" ">
<polygon fill="#ffffff" stroke="#000000" points="2632.793,-165.5 2632.793,-183.5 2694.9404,-183.5 2694.9404,-165.5 2632.793,-165.5"/>
<text text-anchor="middle" x="2663.8667" y="-171.5" font-family="Arial.ttf" font-size="10.00" fill="#000000">SLPlane.h</text>
</a>
</g>
</g>
<!-- Node2&#45;&gt;Node43 -->
<g id="edge53" class="edge">
<title>Node2&#45;&gt;Node43</title>
<path fill="none" stroke="#191970" d="M1539.7382,-338.8609C1685.5175,-335.1855 2401.2668,-316.1291 2496.8667,-294 2511.8481,-290.5322 2612.2269,-249.0491 2623.8667,-239 2638.4735,-226.3894 2649.4588,-207.0979 2656.1858,-192.8968"/>
<polygon fill="#191970" stroke="#191970" points="2659.4446,-194.1826 2660.3223,-183.6242 2653.0519,-191.3307 2659.4446,-194.1826"/>
</g>
<!-- Node44 -->
<g id="node40" class="node">
<title>Node44</title>
<g id="a_node40"><a xlink:href="_s_l_quat4_8h.html" target="_top" xlink:title=" ">
<polygon fill="#ffffff" stroke="#ff0000" points="2403.9604,-275.5 2403.9604,-293.5 2467.7729,-293.5 2467.7729,-275.5 2403.9604,-275.5"/>
<text text-anchor="middle" x="2435.8667" y="-281.5" font-family="Arial.ttf" font-size="10.00" fill="#000000">SLQuat4.h</text>
</a>
</g>
</g>
<!-- Node2&#45;&gt;Node44 -->
<g id="edge56" class="edge">
<title>Node2&#45;&gt;Node44</title>
<path fill="none" stroke="#191970" d="M1539.6853,-338.6888C1665.9236,-334.6416 2218.995,-315.953 2389.8667,-294 2391.1406,-293.8363 2392.4318,-293.6569 2393.7335,-293.4641"/>
<polygon fill="#191970" stroke="#191970" points="2394.5204,-296.881 2403.8007,-291.7696 2393.3585,-289.9781 2394.5204,-296.881"/>
</g>
<!-- Node45 -->
<g id="node41" class="node">
<title>Node45</title>
<g id="a_node41"><a xlink:href="_s_l_rect_8h.html" target="_top" xlink:title=" ">
<polygon fill="#ffffff" stroke="#ff0000" points="2183.3003,-165.5 2183.3003,-183.5 2240.4331,-183.5 2240.4331,-165.5 2183.3003,-165.5"/>
<text text-anchor="middle" x="2211.8667" y="-171.5" font-family="Arial.ttf" font-size="10.00" fill="#000000">SLRect.h</text>
</a>
</g>
</g>
<!-- Node2&#45;&gt;Node45 -->
<g id="edge60" class="edge">
<title>Node2&#45;&gt;Node45</title>
<path fill="none" stroke="#191970" d="M1539.7219,-338.9025C1650.0408,-336.1771 2078.0897,-323.7531 2129.8667,-294 2169.3482,-271.3124 2193.9882,-220.9806 2205.0394,-193.4285"/>
<polygon fill="#191970" stroke="#191970" points="2208.4267,-194.3693 2208.7249,-183.7786 2201.8874,-191.8717 2208.4267,-194.3693"/>
</g>
<!-- Node50 -->
<g id="node42" class="node">
<title>Node50</title>
<g id="a_node42"><a xlink:href="_s_l_vector_8h.html" target="_top" xlink:title=" ">
<polygon fill="#ffffff" stroke="#000000" points="661.0459,-110.5 661.0459,-128.5 724.6875,-128.5 724.6875,-110.5 661.0459,-110.5"/>
<text text-anchor="middle" x="692.8667" y="-116.5" font-family="Arial.ttf" font-size="10.00" fill="#000000">SLVector.h</text>
</a>
</g>
</g>
<!-- Node2&#45;&gt;Node50 -->
<g id="edge67" class="edge">
<title>Node2&#45;&gt;Node50</title>
<path fill="none" stroke="#191970" d="M1488.0934,-339.0062C1316.3504,-335.6565 343.7969,-315.7451 322.8667,-294 219.5992,-186.712 533.6904,-138.1117 650.7541,-124.0351"/>
<polygon fill="#191970" stroke="#191970" points="651.2753,-127.4981 660.7981,-122.8543 650.4578,-120.5459 651.2753,-127.4981"/>
</g>
<!-- Node51 -->
<g id="node43" class="node">
<title>Node51</title>
<g id="a_node43"><a xlink:href="_s_l_average_timing_8h.html" target="_top" xlink:title=" ">
<polygon fill="#ffffff" stroke="#ff0000" points="332.2266,-275.5 332.2266,-293.5 435.5068,-293.5 435.5068,-275.5 332.2266,-275.5"/>
<text text-anchor="middle" x="383.8667" y="-281.5" font-family="Arial.ttf" font-size="10.00" fill="#000000">SLAverageTiming.h</text>
</a>
</g>
</g>
<!-- Node2&#45;&gt;Node51 -->
<g id="edge69" class="edge">
<title>Node2&#45;&gt;Node51</title>
<path fill="none" stroke="#191970" d="M1488.2307,-338.7994C1348.4941,-334.9224 676.847,-315.5231 445.7421,-293.9453"/>
<polygon fill="#191970" stroke="#191970" points="446.0198,-290.4559 435.7304,-292.9815 445.349,-297.4237 446.0198,-290.4559"/>
</g>
<!-- Node55 -->
<g id="node44" class="node">
<title>Node55</title>
<g id="a_node44"><a xlink:title=" ">
<polygon fill="#ffffff" stroke="#bfbfbf" points="1683,-275.5 1683,-293.5 1800.7334,-293.5 1800.7334,-275.5 1683,-275.5"/>
<text text-anchor="middle" x="1741.8667" y="-281.5" font-family="Arial.ttf" font-size="10.00" fill="#000000">opencv2/core/core.hpp</text>
</a>
</g>
</g>
<!-- Node2&#45;&gt;Node55 -->
<g id="edge74" class="edge">
<title>Node2&#45;&gt;Node55</title>
<path fill="none" stroke="#191970" d="M1539.578,-333.2977C1577.0103,-324.268 1647.1651,-307.3447 1694.2065,-295.997"/>
<polygon fill="#191970" stroke="#191970" points="1695.2658,-299.3419 1704.1662,-293.5944 1693.6243,-292.5371 1695.2658,-299.3419"/>
</g>
<!-- Node33&#45;&gt;Node34 -->
<g id="edge32" class="edge">
<title>Node33&#45;&gt;Node34</title>
<path fill="none" stroke="#191970" d="M2274.7921,-275.1561C2280.1921,-248.9504 2295.5631,-174.3557 2302.8893,-138.8021"/>
<polygon fill="#191970" stroke="#191970" points="2306.3721,-139.242 2304.9624,-128.7414 2299.5162,-137.8292 2306.3721,-139.242"/>
</g>
<!-- Node33&#45;&gt;Node36 -->
<g id="edge36" class="edge">
<title>Node33&#45;&gt;Node36</title>
<path fill="none" stroke="#191970" d="M2278.5519,-275.2751C2287.1318,-261.8895 2304.4625,-236.845 2323.8667,-220 2338.5725,-207.2337 2357.3719,-196.1437 2372.8297,-188.109"/>
<polygon fill="#191970" stroke="#191970" points="2374.5986,-191.137 2381.9561,-183.5135 2371.4504,-184.8849 2374.5986,-191.137"/>
</g>
<!-- Node33&#45;&gt;Node37 -->
<g id="edge40" class="edge">
<title>Node33&#45;&gt;Node37</title>
<path fill="none" stroke="#191970" d="M2293.0125,-275.4179C2312.7033,-266.5409 2342.9052,-252.9253 2365.314,-242.823"/>
<polygon fill="#191970" stroke="#191970" points="2367.013,-245.8963 2374.691,-238.5956 2364.1361,-239.5148 2367.013,-245.8963"/>
</g>
<!-- Node34&#45;&gt;Node30 -->
<g id="edge33" class="edge">
<title>Node34&#45;&gt;Node30</title>
<path fill="none" stroke="#191970" d="M2305.3794,-110.2883C2303.0244,-97.3486 2297.6669,-73.3229 2287.8667,-55 2282.2603,-44.518 2273.9777,-34.2326 2266.5749,-26.1"/>
<polygon fill="#191970" stroke="#191970" points="2269.023,-23.5953 2259.5972,-18.7575 2263.9488,-28.4174 2269.023,-23.5953"/>
</g>
<!-- Node34&#45;&gt;Node35 -->
<g id="edge34" class="edge">
<title>Node34&#45;&gt;Node35</title>
<path fill="none" stroke="#191970" d="M2297.4543,-110.4179C2289.1708,-102.425 2276.9058,-90.5903 2266.9022,-80.9377"/>
<polygon fill="#191970" stroke="#191970" points="2269.1101,-78.2045 2259.4836,-73.7795 2264.2495,-83.2419 2269.1101,-78.2045"/>
</g>
<!-- Node35&#45;&gt;Node30 -->
<g id="edge35" class="edge">
<title>Node35&#45;&gt;Node30</title>
<path fill="none" stroke="#191970" d="M2249.8667,-55.4179C2249.8667,-48.2164 2249.8667,-37.8962 2249.8667,-28.8632"/>
<polygon fill="#191970" stroke="#191970" points="2253.3668,-28.7794 2249.8667,-18.7795 2246.3668,-28.7795 2253.3668,-28.7794"/>
</g>
<!-- Node36&#45;&gt;Node30 -->
<g id="edge37" class="edge">
<title>Node36&#45;&gt;Node30</title>
<path fill="none" stroke="#191970" d="M2398.3808,-165.0999C2393.2183,-151.9364 2382.6471,-127.6464 2368.8667,-110 2340.8766,-74.1577 2298.3072,-42.0362 2272.3924,-24.2145"/>
<polygon fill="#191970" stroke="#191970" points="2274.2171,-21.2234 2263.9717,-18.5245 2270.2978,-27.0234 2274.2171,-21.2234"/>
</g>
<!-- Node36&#45;&gt;Node34 -->
<g id="edge39" class="edge">
<title>Node36&#45;&gt;Node34</title>
<path fill="none" stroke="#191970" d="M2386.1794,-165.4179C2371.3277,-156.8195 2348.7969,-143.7754 2331.5398,-133.7844"/>
<polygon fill="#191970" stroke="#191970" points="2332.9852,-130.577 2322.5773,-128.5956 2329.478,-136.635 2332.9852,-130.577"/>
</g>
<!-- Node36&#45;&gt;Node35 -->
<g id="edge38" class="edge">
<title>Node36&#45;&gt;Node35</title>
<path fill="none" stroke="#191970" d="M2395.4539,-165.1076C2385.7915,-151.5134 2366.3317,-126.2115 2344.8667,-110 2326.7237,-96.2974 2303.7963,-85.1726 2285.0109,-77.3536"/>
<polygon fill="#191970" stroke="#191970" points="2286.1958,-74.0577 2275.6122,-73.57 2283.5817,-80.5513 2286.1958,-74.0577"/>
</g>
<!-- Node37&#45;&gt;Node22 -->
<g id="edge48" class="edge">
<title>Node37&#45;&gt;Node22</title>
<path fill="none" stroke="#191970" d="M2414.352,-220.4179C2433.3972,-211.5409 2462.6089,-197.9253 2484.2829,-187.823"/>
<polygon fill="#191970" stroke="#191970" points="2485.7673,-190.9927 2493.3525,-183.5956 2482.81,-184.648 2485.7673,-190.9927"/>
</g>
<!-- Node37&#45;&gt;Node30 -->
<g id="edge41" class="edge">
<title>Node37&#45;&gt;Node30</title>
<path fill="none" stroke="#191970" d="M2408.7106,-220.4907C2424.9097,-208.7149 2448.493,-186.9897 2439.8667,-165 2410.7897,-90.8782 2322.9878,-42.1348 2277.6407,-21.1975"/>
<polygon fill="#191970" stroke="#191970" points="2278.9404,-17.9444 2268.3844,-17.0387 2276.0716,-24.3296 2278.9404,-17.9444"/>
</g>
<!-- Node37&#45;&gt;Node34 -->
<g id="edge46" class="edge">
<title>Node37&#45;&gt;Node34</title>
<path fill="none" stroke="#191970" d="M2387.6653,-220.4982C2373.033,-202.2079 2339.611,-160.4304 2320.655,-136.7354"/>
<polygon fill="#191970" stroke="#191970" points="2323.1476,-134.2484 2314.1676,-128.6261 2317.6816,-138.6213 2323.1476,-134.2484"/>
</g>
<!-- Node37&#45;&gt;Node36 -->
<g id="edge47" class="edge">
<title>Node37&#45;&gt;Node36</title>
<path fill="none" stroke="#191970" d="M2396.0226,-220.4179C2396.9392,-213.2164 2398.2526,-202.8962 2399.4023,-193.8632"/>
<polygon fill="#191970" stroke="#191970" points="2402.895,-194.1414 2400.6857,-183.7795 2395.9511,-193.2575 2402.895,-194.1414"/>
</g>
<!-- Node37&#45;&gt;Node39 -->
<g id="edge42" class="edge">
<title>Node37&#45;&gt;Node39</title>
<path fill="none" stroke="#191970" d="M2365.2655,-224.9523C2301.0776,-215.0911 2149.0466,-191.7343 2076.5948,-180.6035"/>
<polygon fill="#191970" stroke="#191970" points="2076.918,-177.1122 2066.5025,-179.053 2075.855,-184.031 2076.918,-177.1122"/>
</g>
<!-- Node39&#45;&gt;Node11 -->
<g id="edge45" class="edge">
<title>Node39&#45;&gt;Node11</title>
<path fill="none" stroke="#191970" d="M2030.4266,-165.4179C2024.9834,-157.7415 2017.0275,-146.5217 2010.3428,-137.0945"/>
<polygon fill="#191970" stroke="#191970" points="2013.0861,-134.9123 2004.4467,-128.7795 2007.3759,-138.9613 2013.0861,-134.9123"/>
</g>
<!-- Node39&#45;&gt;Node30 -->
<g id="edge43" class="edge">
<title>Node39&#45;&gt;Node30</title>
<path fill="none" stroke="#191970" d="M2041.3359,-165.2262C2048.1662,-151.7797 2062.2802,-126.66 2079.8667,-110 2123.208,-68.9421 2186.2407,-37.2413 2222.1248,-21.1642"/>
<polygon fill="#191970" stroke="#191970" points="2223.7407,-24.2772 2231.4871,-17.0492 2220.924,-17.8689 2223.7407,-24.2772"/>
</g>
<!-- Node39&#45;&gt;Node34 -->
<g id="edge44" class="edge">
<title>Node39&#45;&gt;Node34</title>
<path fill="none" stroke="#191970" d="M2066.2754,-168.5093C2115.0676,-158.5702 2212.7845,-138.6649 2267.4798,-127.5233"/>
<polygon fill="#191970" stroke="#191970" points="2268.3941,-130.909 2277.4942,-125.4833 2266.9968,-124.0498 2268.3941,-130.909"/>
</g>
<!-- Node42&#45;&gt;Node30 -->
<g id="edge52" class="edge">
<title>Node42&#45;&gt;Node30</title>
<path fill="none" stroke="#191970" d="M1003.6582,-59.7095C1016.7592,-57.9623 1032.0009,-56.1379 1045.8667,-55 1514.2783,-16.5585 2087.9154,-10.546 2221.2515,-9.6503"/>
<polygon fill="#191970" stroke="#191970" points="2221.4629,-13.1491 2231.4407,-9.5863 2221.4189,-6.1493 2221.4629,-13.1491"/>
</g>
<!-- Node43&#45;&gt;Node30 -->
<g id="edge54" class="edge">
<title>Node43&#45;&gt;Node30</title>
<path fill="none" stroke="#191970" d="M2663.4502,-165.1729C2661.8807,-142.2446 2654.4078,-82.9654 2618.8667,-55 2592.2263,-34.0381 2360.8406,-16.8406 2278.6675,-11.3442"/>
<polygon fill="#191970" stroke="#191970" points="2278.7426,-7.8416 2268.5337,-10.6753 2278.2815,-14.8264 2278.7426,-7.8416"/>
</g>
<!-- Node43&#45;&gt;Node34 -->
<g id="edge55" class="edge">
<title>Node43&#45;&gt;Node34</title>
<path fill="none" stroke="#191970" d="M2632.4982,-169.6673C2567.3058,-159.6237 2417.3235,-136.5172 2345.9664,-125.5238"/>
<polygon fill="#191970" stroke="#191970" points="2346.4446,-122.0562 2336.0283,-123.9927 2345.3787,-128.9746 2346.4446,-122.0562"/>
</g>
<!-- Node44&#45;&gt;Node30 -->
<g id="edge57" class="edge">
<title>Node44&#45;&gt;Node30</title>
<path fill="none" stroke="#191970" d="M2467.8199,-277.2694C2510.9676,-267.1871 2583.3663,-249.0186 2590.8667,-239 2607.0959,-217.322 2580.6437,-180.9823 2565.8667,-165 2483.6351,-76.0606 2339.4389,-31.6525 2278.4244,-16.1154"/>
<polygon fill="#191970" stroke="#191970" points="2278.9133,-12.6309 2268.3653,-13.6257 2277.2314,-19.4258 2278.9133,-12.6309"/>
</g>
<!-- Node44&#45;&gt;Node36 -->
<g id="edge59" class="edge">
<title>Node44&#45;&gt;Node36</title>
<path fill="none" stroke="#191970" d="M2436.961,-275.4565C2438.1683,-262.7165 2439.1866,-238.9265 2432.8667,-220 2429.4429,-209.7465 2422.9941,-199.6725 2416.8612,-191.6205"/>
<polygon fill="#191970" stroke="#191970" points="2419.5064,-189.3256 2410.4886,-183.7641 2414.0699,-193.7353 2419.5064,-189.3256"/>
</g>
<!-- Node44&#45;&gt;Node37 -->
<g id="edge58" class="edge">
<title>Node44&#45;&gt;Node37</title>
<path fill="none" stroke="#191970" d="M2429.0964,-275.4179C2423.315,-267.6624 2414.8374,-256.29 2407.7657,-246.8035"/>
<polygon fill="#191970" stroke="#191970" points="2410.5669,-244.7051 2401.7841,-238.7795 2404.9547,-248.8888 2410.5669,-244.7051"/>
</g>
<!-- Node45&#45;&gt;Node30 -->
<g id="edge61" class="edge">
<title>Node45&#45;&gt;Node30</title>
<path fill="none" stroke="#191970" d="M2209.8359,-165.4466C2205.6777,-145.0026 2197.7204,-94.0071 2211.8667,-55 2215.8668,-43.9702 2223.8398,-33.741 2231.4541,-25.7867"/>
<polygon fill="#191970" stroke="#191970" points="2234.0655,-28.1291 2238.7885,-18.6452 2229.1821,-23.1138 2234.0655,-28.1291"/>
</g>
<!-- Node45&#45;&gt;Node34 -->
<g id="edge63" class="edge">
<title>Node45&#45;&gt;Node34</title>
<path fill="none" stroke="#191970" d="M2227.554,-165.4179C2242.4057,-156.8195 2264.9365,-143.7754 2282.1936,-133.7844"/>
<polygon fill="#191970" stroke="#191970" points="2284.2554,-136.635 2291.1561,-128.5956 2280.7482,-130.577 2284.2554,-136.635"/>
</g>
<!-- Node45&#45;&gt;Node35 -->
<g id="edge62" class="edge">
<title>Node45&#45;&gt;Node35</title>
<path fill="none" stroke="#191970" d="M2214.9764,-165.4982C2221.1557,-147.6108 2235.0953,-107.2594 2243.3628,-83.3271"/>
<polygon fill="#191970" stroke="#191970" points="2246.7569,-84.2209 2246.714,-73.6261 2240.1406,-81.9352 2246.7569,-84.2209"/>
</g>
<!-- Node50&#45;&gt;Node30 -->
<g id="edge68" class="edge">
<title>Node50&#45;&gt;Node30</title>
<path fill="none" stroke="#191970" d="M724.8767,-114.85C818.0301,-101.3792 1087.9864,-62.7908 1176.8667,-55 1590.6514,-18.7297 2096.8333,-11.1293 2221.2484,-9.7675"/>
<polygon fill="#191970" stroke="#191970" points="2221.4943,-13.2652 2231.4571,-9.6606 2221.421,-6.2655 2221.4943,-13.2652"/>
</g>
<!-- Node51&#45;&gt;Node13 -->
<g id="edge71" class="edge">
<title>Node51&#45;&gt;Node13</title>
<path fill="none" stroke="#191970" d="M365.7024,-275.4179C348.0023,-266.5678 320.8824,-253.0078 300.6967,-242.915"/>
<polygon fill="#191970" stroke="#191970" points="302.2025,-239.7548 291.693,-238.4131 299.072,-246.0158 302.2025,-239.7548"/>
</g>
<!-- Node51&#45;&gt;Node16 -->
<g id="edge73" class="edge">
<title>Node51&#45;&gt;Node16</title>
<path fill="none" stroke="#191970" d="M435.7321,-276.0355C438.8186,-275.6522 441.8809,-275.3023 444.8667,-275 781.3028,-240.9329 867.7562,-265.5774 1204.8667,-239 1221.2923,-237.705 1239.4305,-235.7757 1254.7982,-233.9934"/>
<polygon fill="#191970" stroke="#191970" points="1255.4206,-237.4442 1264.9396,-232.7925 1254.5974,-230.4928 1255.4206,-237.4442"/>
</g>
<!-- Node51&#45;&gt;Node17 -->
<g id="edge70" class="edge">
<title>Node51&#45;&gt;Node17</title>
<path fill="none" stroke="#191970" d="M435.728,-275.9934C438.8155,-275.6206 441.8792,-275.2846 444.8667,-275 572.9186,-262.8001 1513.9566,-235.5631 1696.3114,-230.366"/>
<polygon fill="#191970" stroke="#191970" points="1696.6275,-233.8585 1706.5239,-230.0754 1696.4283,-226.8613 1696.6275,-233.8585"/>
</g>
<!-- Node51&#45;&gt;Node30 -->
<g id="edge72" class="edge">
<title>Node51&#45;&gt;Node30</title>
<path fill="none" stroke="#191970" d="M435.7699,-276.3423C438.8469,-275.8818 441.8968,-275.4313 444.8667,-275 527.6363,-262.9808 1190.8667,-258.1377 1190.8667,-174.5 1190.8667,-174.5 1190.8667,-174.5 1190.8667,-119.5 1190.8667,-66.1427 2052.6053,-19.5392 2221.387,-10.9231"/>
<polygon fill="#191970" stroke="#191970" points="2221.676,-14.413 2231.4858,-10.4108 2221.3213,-7.422 2221.676,-14.413"/>
</g>
<!-- Node61&#45;&gt;Node32 -->
<g id="edge76" class="edge">
<title>Node61&#45;&gt;Node32</title>
<path fill="none" stroke="#191970" d="M2537.4258,-330.4179C2547.9007,-322.1876 2563.5599,-309.8839 2576.0331,-300.0836"/>
<polygon fill="#191970" stroke="#191970" points="2578.3557,-302.7098 2584.0565,-293.7795 2574.0309,-297.2056 2578.3557,-302.7098"/>
</g>
<!-- Node62&#45;&gt;Node4 -->
<g id="edge79" class="edge">
<title>Node62&#45;&gt;Node4</title>
<path fill="none" stroke="#191970" d="M165.1785,-330.4179C167.0318,-323.1372 169.6964,-312.669 172.0136,-303.5659"/>
<polygon fill="#191970" stroke="#191970" points="175.4296,-304.3338 174.5047,-293.7795 168.6459,-302.607 175.4296,-304.3338"/>
</g>
<!-- Node62&#45;&gt;Node13 -->
<g id="edge80" class="edge">
<title>Node62&#45;&gt;Node13</title>
<path fill="none" stroke="#191970" d="M155.8532,-330.3377C146.5882,-317.0302 132.7784,-292.0818 144.8667,-275 156.7705,-258.1789 211.8195,-243.2539 246.0453,-235.3847"/>
<polygon fill="#191970" stroke="#191970" points="246.9326,-238.7728 255.9277,-233.1748 245.4049,-231.9415 246.9326,-238.7728"/>
</g>
<!-- Node62&#45;&gt;Node73 -->
<g id="edge78" class="edge">
<title>Node62&#45;&gt;Node73</title>
<path fill="none" stroke="#191970" d="M144.0419,-330.4179C125.7249,-321.5807 97.6738,-308.0473 76.7637,-297.9591"/>
<polygon fill="#191970" stroke="#191970" points="78.2469,-294.7887 67.7194,-293.5956 75.2052,-301.0933 78.2469,-294.7887"/>
</g>
<!-- Node91&#45;&gt;Node20 -->
<g id="edge88" class="edge">
<title>Node91&#45;&gt;Node20</title>
<path fill="none" stroke="#191970" d="M2517.162,-226.3331C2441.6689,-218.9009 2256.1337,-199.908 2175.8521,-184.046"/>
<polygon fill="#191970" stroke="#191970" points="2176.1984,-180.5431 2165.6947,-181.9298 2174.7706,-187.3959 2176.1984,-180.5431"/>
</g>
<!-- Node91&#45;&gt;Node30 -->
<g id="edge84" class="edge">
<title>Node91&#45;&gt;Node30</title>
<path fill="none" stroke="#191970" d="M2582.6769,-224.4659C2623.4214,-217.4665 2689.3479,-203.4289 2703.8667,-184 2737.5569,-138.9162 2777.443,-145.1181 2640.8667,-55 2610.7123,-35.103 2363.6029,-17.0323 2278.5219,-11.3461"/>
<polygon fill="#191970" stroke="#191970" points="2278.7331,-7.8525 2268.524,-10.6853 2278.2714,-14.8372 2278.7331,-7.8525"/>
</g>
<!-- Node91&#45;&gt;Node34 -->
<g id="edge86" class="edge">
<title>Node91&#45;&gt;Node34</title>
<path fill="none" stroke="#191970" d="M2552.7843,-220.3316C2556.5399,-206.5584 2561.1204,-180.4949 2547.8667,-165 2522.2265,-135.0241 2407.4599,-124.6047 2346.009,-121.1357"/>
<polygon fill="#191970" stroke="#191970" points="2346.078,-117.6345 2335.9069,-120.6009 2345.7079,-124.6247 2346.078,-117.6345"/>
</g>
<!-- Node91&#45;&gt;Node36 -->
<g id="edge87" class="edge">
<title>Node91&#45;&gt;Node36</title>
<path fill="none" stroke="#191970" d="M2525.4275,-220.4179C2501.0048,-211.3419 2463.2525,-197.3123 2435.9035,-187.1488"/>
<polygon fill="#191970" stroke="#191970" points="2436.9351,-183.7984 2426.3422,-183.5956 2434.4966,-190.3599 2436.9351,-183.7984"/>
</g>
<!-- Node91&#45;&gt;Node45 -->
<g id="edge85" class="edge">
<title>Node91&#45;&gt;Node45</title>
<path fill="none" stroke="#191970" d="M2517.1507,-224.1764C2454.5609,-213.9917 2318.1251,-191.7906 2250.8978,-180.8512"/>
<polygon fill="#191970" stroke="#191970" points="2251.1567,-177.3474 2240.7243,-179.1958 2250.0323,-184.2565 2251.1567,-177.3474"/>
</g>
<!-- Node103&#45;&gt;Node91 -->
<g id="edge90" class="edge">
<title>Node103&#45;&gt;Node91</title>
<path fill="none" stroke="#191970" d="M2630.682,-330.473C2638.337,-317.334 2649.6316,-292.5935 2638.8667,-275 2628.55,-258.1391 2609.7941,-247.2746 2592.1515,-240.4085"/>
<polygon fill="#191970" stroke="#191970" points="2593.1199,-237.0383 2582.5252,-236.9926 2590.7789,-243.6353 2593.1199,-237.0383"/>
</g>
</g>
</svg>
