<?xml version="1.0" encoding="UTF-8" standalone="no"?>
<!DOCTYPE svg PUBLIC "-//W3C//DTD SVG 1.1//EN"
 "http://www.w3.org/Graphics/SVG/1.1/DTD/svg11.dtd">
<!-- Generated by graphviz version 2.44.0 (20200408.0750)
 -->
<!-- Title: SLPathtracer.h Pages: 1 -->
<svg width="2293pt" height="812pt"
 viewBox="0.00 0.00 2292.80 812.00" xmlns="http://www.w3.org/2000/svg" xmlns:xlink="http://www.w3.org/1999/xlink">
<g id="graph0" class="graph" transform="scale(1 1) rotate(0) translate(4 808)">
<title>SLPathtracer.h</title>
<polygon fill="white" stroke="transparent" points="-4,4 -4,-808 2288.8,-808 2288.8,4 -4,4"/>
<!-- Node1 -->
<g id="node1" class="node">
<title>Node1</title>
<g id="a_node1"><a xlink:title=" ">
<polygon fill="#bfbfbf" stroke="black" points="1180.5,-784.5 1180.5,-803.5 1261.5,-803.5 1261.5,-784.5 1180.5,-784.5"/>
<text text-anchor="middle" x="1221" y="-791.5" font-family="Arial.ttf" font-size="10.00">SLPathtracer.h</text>
</a>
</g>
</g>
<!-- Node2 -->
<g id="node2" class="node">
<title>Node2</title>
<g id="a_node2"><a xlink:href="_s_l_raytracer_8h.html" target="_top" xlink:title=" ">
<polygon fill="white" stroke="black" points="1181.5,-728.5 1181.5,-747.5 1260.5,-747.5 1260.5,-728.5 1181.5,-728.5"/>
<text text-anchor="middle" x="1221" y="-735.5" font-family="Arial.ttf" font-size="10.00">SLRaytracer.h</text>
</a>
</g>
</g>
<!-- Node1&#45;&gt;Node2 -->
<g id="edge1" class="edge">
<title>Node1&#45;&gt;Node2</title>
<path fill="none" stroke="midnightblue" d="M1221,-784.08C1221,-777.01 1221,-766.86 1221,-757.99"/>
<polygon fill="midnightblue" stroke="midnightblue" points="1224.5,-757.75 1221,-747.75 1217.5,-757.75 1224.5,-757.75"/>
</g>
<!-- Node3 -->
<g id="node3" class="node">
<title>Node3</title>
<g id="a_node3"><a xlink:href="_s_l_event_handler_8h.html" target="_top" xlink:title=" ">
<polygon fill="white" stroke="black" points="1820.5,-448.5 1820.5,-467.5 1915.5,-467.5 1915.5,-448.5 1820.5,-448.5"/>
<text text-anchor="middle" x="1868" y="-455.5" font-family="Arial.ttf" font-size="10.00">SLEventHandler.h</text>
</a>
</g>
</g>
<!-- Node2&#45;&gt;Node3 -->
<g id="edge2" class="edge">
<title>Node2&#45;&gt;Node3</title>
<path fill="none" stroke="midnightblue" d="M1260.73,-734.18C1397.57,-723.93 1841,-686.17 1841,-627 1841,-627 1841,-627 1841,-569 1841,-535.86 1852.7,-498.68 1860.7,-477.14"/>
<polygon fill="midnightblue" stroke="midnightblue" points="1864.02,-478.25 1864.36,-467.66 1857.49,-475.73 1864.02,-478.25"/>
</g>
<!-- Node15 -->
<g id="node15" class="node">
<title>Node15</title>
<g id="a_node15"><a xlink:href="_s_l_g_l_texture_8h.html" target="_top" xlink:title=" ">
<polygon fill="white" stroke="black" points="1180,-672.5 1180,-691.5 1262,-691.5 1262,-672.5 1180,-672.5"/>
<text text-anchor="middle" x="1221" y="-679.5" font-family="Arial.ttf" font-size="10.00">SLGLTexture.h</text>
</a>
</g>
</g>
<!-- Node2&#45;&gt;Node15 -->
<g id="edge17" class="edge">
<title>Node2&#45;&gt;Node15</title>
<path fill="none" stroke="midnightblue" d="M1221,-728.08C1221,-721.01 1221,-710.86 1221,-701.99"/>
<polygon fill="midnightblue" stroke="midnightblue" points="1224.5,-701.75 1221,-691.75 1217.5,-701.75 1224.5,-701.75"/>
</g>
<!-- Node30 -->
<g id="node30" class="node">
<title>Node30</title>
<g id="a_node30"><a xlink:href="_s_l_vec4_8h.html" target="_top" xlink:title=" ">
<polygon fill="white" stroke="black" points="1080.5,-336.5 1080.5,-355.5 1139.5,-355.5 1139.5,-336.5 1080.5,-336.5"/>
<text text-anchor="middle" x="1110" y="-343.5" font-family="Arial.ttf" font-size="10.00">SLVec4.h</text>
</a>
</g>
</g>
<!-- Node2&#45;&gt;Node30 -->
<g id="edge67" class="edge">
<title>Node2&#45;&gt;Node30</title>
<path fill="none" stroke="midnightblue" d="M1181.42,-736.41C1112.56,-733.05 978,-715.22 978,-627 978,-627 978,-627 978,-569 978,-480.58 1056.32,-396.66 1092.3,-362.77"/>
<polygon fill="midnightblue" stroke="midnightblue" points="1095.09,-364.95 1100.08,-355.6 1090.35,-359.8 1095.09,-364.95"/>
</g>
<!-- Node41 -->
<g id="node41" class="node">
<title>Node41</title>
<g id="a_node41"><a xlink:href="_s_l_light_8h.html" target="_top" xlink:title=" ">
<polygon fill="white" stroke="black" points="2008,-504.5 2008,-523.5 2066,-523.5 2066,-504.5 2008,-504.5"/>
<text text-anchor="middle" x="2037" y="-511.5" font-family="Arial.ttf" font-size="10.00">SLLight.h</text>
</a>
</g>
</g>
<!-- Node2&#45;&gt;Node41 -->
<g id="edge68" class="edge">
<title>Node2&#45;&gt;Node41</title>
<path fill="none" stroke="midnightblue" d="M1260.87,-735.76C1391.43,-731.47 1800.93,-716.22 1855,-692 1934.76,-656.27 2000.15,-569.71 2025.58,-532.49"/>
<polygon fill="midnightblue" stroke="midnightblue" points="2028.77,-534.02 2031.42,-523.76 2022.95,-530.12 2028.77,-534.02"/>
</g>
<!-- Node45 -->
<g id="node45" class="node">
<title>Node45</title>
<g id="a_node45"><a xlink:href="_averaged_8h.html" target="_top" xlink:title=" ">
<polygon fill="white" stroke="black" points="0,-224.5 0,-243.5 66,-243.5 66,-224.5 0,-224.5"/>
<text text-anchor="middle" x="33" y="-231.5" font-family="Arial.ttf" font-size="10.00">Averaged.h</text>
</a>
</g>
</g>
<!-- Node2&#45;&gt;Node45 -->
<g id="edge77" class="edge">
<title>Node2&#45;&gt;Node45</title>
<path fill="none" stroke="midnightblue" d="M1181.2,-735.41C975.77,-726.95 45,-685.38 45,-627 45,-627 45,-627 45,-345 45,-312.76 39.84,-275.51 36.29,-253.68"/>
<polygon fill="midnightblue" stroke="midnightblue" points="39.69,-252.8 34.57,-243.52 32.79,-253.97 39.69,-252.8"/>
</g>
<!-- Node4 -->
<g id="node4" class="node">
<title>Node4</title>
<g id="a_node4"><a xlink:href="_s_l_8h.html" target="_top" xlink:title=" ">
<polygon fill="white" stroke="black" points="1282.5,-168.5 1282.5,-187.5 1319.5,-187.5 1319.5,-168.5 1282.5,-168.5"/>
<text text-anchor="middle" x="1301" y="-175.5" font-family="Arial.ttf" font-size="10.00">SL.h</text>
</a>
</g>
</g>
<!-- Node3&#45;&gt;Node4 -->
<g id="edge3" class="edge">
<title>Node3&#45;&gt;Node4</title>
<path fill="none" stroke="midnightblue" d="M1871.64,-448.34C1879.01,-430 1895,-385.74 1895,-347 1895,-347 1895,-347 1895,-289 1895,-258.2 1895.55,-242.59 1871,-224 1827.57,-191.13 1439.7,-181.55 1329.86,-179.48"/>
<polygon fill="midnightblue" stroke="midnightblue" points="1329.62,-175.97 1319.56,-179.29 1329.49,-182.97 1329.62,-175.97"/>
</g>
<!-- Node14 -->
<g id="node14" class="node">
<title>Node14</title>
<g id="a_node14"><a xlink:href="_s_l_enums_8h.html" target="_top" xlink:title=" ">
<polygon fill="white" stroke="black" points="1923,-392.5 1923,-411.5 1991,-411.5 1991,-392.5 1923,-392.5"/>
<text text-anchor="middle" x="1957" y="-399.5" font-family="Arial.ttf" font-size="10.00">SLEnums.h</text>
</a>
</g>
</g>
<!-- Node3&#45;&gt;Node14 -->
<g id="edge16" class="edge">
<title>Node3&#45;&gt;Node14</title>
<path fill="none" stroke="midnightblue" d="M1882.3,-448.32C1896.18,-439.9 1917.49,-426.97 1933.8,-417.07"/>
<polygon fill="midnightblue" stroke="midnightblue" points="1936,-419.83 1942.74,-411.65 1932.37,-413.85 1936,-419.83"/>
</g>
<!-- Node5 -->
<g id="node5" class="node">
<title>Node5</title>
<g id="a_node5"><a xlink:href="_utils_8h.html" target="_top" xlink:title=" ">
<polygon fill="white" stroke="black" points="1071.5,-112.5 1071.5,-131.5 1116.5,-131.5 1116.5,-112.5 1071.5,-112.5"/>
<text text-anchor="middle" x="1094" y="-119.5" font-family="Arial.ttf" font-size="10.00">Utils.h</text>
</a>
</g>
</g>
<!-- Node4&#45;&gt;Node5 -->
<g id="edge4" class="edge">
<title>Node4&#45;&gt;Node5</title>
<path fill="none" stroke="midnightblue" d="M1282.27,-172.11C1246.98,-162.91 1170.27,-142.9 1126.44,-131.46"/>
<polygon fill="midnightblue" stroke="midnightblue" points="1127.13,-128.03 1116.57,-128.89 1125.36,-134.8 1127.13,-128.03"/>
</g>
<!-- Node6 -->
<g id="node6" class="node">
<title>Node6</title>
<g id="a_node6"><a xlink:title=" ">
<polygon fill="white" stroke="#bfbfbf" points="1102.5,-0.5 1102.5,-19.5 1143.5,-19.5 1143.5,-0.5 1102.5,-0.5"/>
<text text-anchor="middle" x="1123" y="-7.5" font-family="Arial.ttf" font-size="10.00">string</text>
</a>
</g>
</g>
<!-- Node5&#45;&gt;Node6 -->
<g id="edge5" class="edge">
<title>Node5&#45;&gt;Node6</title>
<path fill="none" stroke="midnightblue" d="M1096.88,-112.43C1099.85,-103.42 1104.54,-88.79 1108,-76 1112.16,-60.61 1116.19,-42.97 1119.02,-29.96"/>
<polygon fill="midnightblue" stroke="midnightblue" points="1122.5,-30.39 1121.17,-19.88 1115.66,-28.93 1122.5,-30.39"/>
</g>
<!-- Node7 -->
<g id="node7" class="node">
<title>Node7</title>
<g id="a_node7"><a xlink:title=" ">
<polygon fill="white" stroke="#bfbfbf" points="72,-56.5 72,-75.5 116,-75.5 116,-56.5 72,-56.5"/>
<text text-anchor="middle" x="94" y="-63.5" font-family="Arial.ttf" font-size="10.00">vector</text>
</a>
</g>
</g>
<!-- Node5&#45;&gt;Node7 -->
<g id="edge6" class="edge">
<title>Node5&#45;&gt;Node7</title>
<path fill="none" stroke="midnightblue" d="M1071.23,-119.77C940.07,-112.69 281.24,-77.11 126.55,-68.76"/>
<polygon fill="midnightblue" stroke="midnightblue" points="126.47,-65.25 116.3,-68.2 126.09,-72.24 126.47,-65.25"/>
</g>
<!-- Node8 -->
<g id="node8" class="node">
<title>Node8</title>
<g id="a_node8"><a xlink:title=" ">
<polygon fill="white" stroke="#bfbfbf" points="964.5,-56.5 964.5,-75.5 1005.5,-75.5 1005.5,-56.5 964.5,-56.5"/>
<text text-anchor="middle" x="985" y="-63.5" font-family="Arial.ttf" font-size="10.00">cfloat</text>
</a>
</g>
</g>
<!-- Node5&#45;&gt;Node8 -->
<g id="edge7" class="edge">
<title>Node5&#45;&gt;Node8</title>
<path fill="none" stroke="midnightblue" d="M1076.49,-112.32C1058.93,-103.62 1031.67,-90.12 1011.47,-80.11"/>
<polygon fill="midnightblue" stroke="midnightblue" points="1012.98,-76.96 1002.47,-75.65 1009.88,-83.23 1012.98,-76.96"/>
</g>
<!-- Node9 -->
<g id="node9" class="node">
<title>Node9</title>
<g id="a_node9"><a xlink:title=" ">
<polygon fill="white" stroke="#bfbfbf" points="973,-0.5 973,-19.5 1025,-19.5 1025,-0.5 973,-0.5"/>
<text text-anchor="middle" x="999" y="-7.5" font-family="Arial.ttf" font-size="10.00">memory</text>
</a>
</g>
</g>
<!-- Node5&#45;&gt;Node9 -->
<g id="edge8" class="edge">
<title>Node5&#45;&gt;Node9</title>
<path fill="none" stroke="midnightblue" d="M1071.25,-121.14C1039.41,-119.96 982.49,-112.51 956,-76 943.82,-59.21 961.64,-39.23 977.9,-25.89"/>
<polygon fill="midnightblue" stroke="midnightblue" points="980.31,-28.45 986.1,-19.57 976.04,-22.91 980.31,-28.45"/>
</g>
<!-- Node10 -->
<g id="node10" class="node">
<title>Node10</title>
<g id="a_node10"><a xlink:href="_file_log_8h.html" target="_top" xlink:title=" ">
<polygon fill="white" stroke="black" points="1155,-56.5 1155,-75.5 1211,-75.5 1211,-56.5 1155,-56.5"/>
<text text-anchor="middle" x="1183" y="-63.5" font-family="Arial.ttf" font-size="10.00">FileLog.h</text>
</a>
</g>
</g>
<!-- Node5&#45;&gt;Node10 -->
<g id="edge9" class="edge">
<title>Node5&#45;&gt;Node10</title>
<path fill="none" stroke="midnightblue" d="M1108.3,-112.32C1122.18,-103.9 1143.49,-90.97 1159.8,-81.07"/>
<polygon fill="midnightblue" stroke="midnightblue" points="1162,-83.83 1168.74,-75.65 1158.37,-77.85 1162,-83.83"/>
</g>
<!-- Node12 -->
<g id="node12" class="node">
<title>Node12</title>
<g id="a_node12"><a xlink:href="_custom_log_8h.html" target="_top" xlink:title=" ">
<polygon fill="white" stroke="black" points="1023.5,-56.5 1023.5,-75.5 1098.5,-75.5 1098.5,-56.5 1023.5,-56.5"/>
<text text-anchor="middle" x="1061" y="-63.5" font-family="Arial.ttf" font-size="10.00">CustomLog.h</text>
</a>
</g>
</g>
<!-- Node5&#45;&gt;Node12 -->
<g id="edge12" class="edge">
<title>Node5&#45;&gt;Node12</title>
<path fill="none" stroke="midnightblue" d="M1088.55,-112.08C1083.99,-104.61 1077.33,-93.72 1071.71,-84.52"/>
<polygon fill="midnightblue" stroke="midnightblue" points="1074.55,-82.46 1066.35,-75.75 1068.58,-86.11 1074.55,-82.46"/>
</g>
<!-- Node13 -->
<g id="node13" class="node">
<title>Node13</title>
<g id="a_node13"><a xlink:title=" ">
<polygon fill="white" stroke="#bfbfbf" points="1229.5,-56.5 1229.5,-75.5 1288.5,-75.5 1288.5,-56.5 1229.5,-56.5"/>
<text text-anchor="middle" x="1259" y="-63.5" font-family="Arial.ttf" font-size="10.00">functional</text>
</a>
</g>
</g>
<!-- Node5&#45;&gt;Node13 -->
<g id="edge15" class="edge">
<title>Node5&#45;&gt;Node13</title>
<path fill="none" stroke="midnightblue" d="M1116.6,-113.6C1144.11,-104.6 1190.91,-89.28 1223.32,-78.68"/>
<polygon fill="midnightblue" stroke="midnightblue" points="1224.46,-81.99 1232.87,-75.55 1222.28,-75.33 1224.46,-81.99"/>
</g>
<!-- Node10&#45;&gt;Node6 -->
<g id="edge10" class="edge">
<title>Node10&#45;&gt;Node6</title>
<path fill="none" stroke="midnightblue" d="M1173.36,-56.32C1164.49,-48.34 1151.13,-36.31 1140.39,-26.65"/>
<polygon fill="midnightblue" stroke="midnightblue" points="1142.59,-23.92 1132.82,-19.83 1137.91,-29.13 1142.59,-23.92"/>
</g>
<!-- Node11 -->
<g id="node11" class="node">
<title>Node11</title>
<g id="a_node11"><a xlink:title=" ">
<polygon fill="white" stroke="#bfbfbf" points="1162,-0.5 1162,-19.5 1212,-19.5 1212,-0.5 1162,-0.5"/>
<text text-anchor="middle" x="1187" y="-7.5" font-family="Arial.ttf" font-size="10.00">fstream</text>
</a>
</g>
</g>
<!-- Node10&#45;&gt;Node11 -->
<g id="edge11" class="edge">
<title>Node10&#45;&gt;Node11</title>
<path fill="none" stroke="midnightblue" d="M1183.66,-56.08C1184.18,-49.01 1184.94,-38.86 1185.59,-29.99"/>
<polygon fill="midnightblue" stroke="midnightblue" points="1189.1,-29.98 1186.35,-19.75 1182.12,-29.47 1189.1,-29.98"/>
</g>
<!-- Node12&#45;&gt;Node6 -->
<g id="edge14" class="edge">
<title>Node12&#45;&gt;Node6</title>
<path fill="none" stroke="midnightblue" d="M1070.96,-56.32C1080.13,-48.34 1093.94,-36.31 1105.03,-26.65"/>
<polygon fill="midnightblue" stroke="midnightblue" points="1107.62,-29.04 1112.86,-19.83 1103.02,-23.76 1107.62,-29.04"/>
</g>
<!-- Node12&#45;&gt;Node9 -->
<g id="edge13" class="edge">
<title>Node12&#45;&gt;Node9</title>
<path fill="none" stroke="midnightblue" d="M1051.04,-56.32C1041.87,-48.34 1028.06,-36.31 1016.97,-26.65"/>
<polygon fill="midnightblue" stroke="midnightblue" points="1018.98,-23.76 1009.14,-19.83 1014.38,-29.04 1018.98,-23.76"/>
</g>
<!-- Node16 -->
<g id="node16" class="node">
<title>Node16</title>
<g id="a_node16"><a xlink:href="_s_l_object_8h.html" target="_top" xlink:title=" ">
<polygon fill="white" stroke="black" points="1560.5,-560.5 1560.5,-579.5 1625.5,-579.5 1625.5,-560.5 1560.5,-560.5"/>
<text text-anchor="middle" x="1593" y="-567.5" font-family="Arial.ttf" font-size="10.00">SLObject.h</text>
</a>
</g>
</g>
<!-- Node15&#45;&gt;Node16 -->
<g id="edge18" class="edge">
<title>Node15&#45;&gt;Node16</title>
<path fill="none" stroke="midnightblue" d="M1249.88,-672.46C1316.16,-652.86 1479.21,-604.65 1554.17,-582.48"/>
<polygon fill="midnightblue" stroke="midnightblue" points="1555.54,-585.73 1564.14,-579.53 1553.56,-579.01 1555.54,-585.73"/>
</g>
<!-- Node17 -->
<g id="node17" class="node">
<title>Node17</title>
<g id="a_node17"><a xlink:href="_c_v_image_8h.html" target="_top" xlink:title=" ">
<polygon fill="white" stroke="black" points="1006,-616.5 1006,-635.5 1072,-635.5 1072,-616.5 1006,-616.5"/>
<text text-anchor="middle" x="1039" y="-623.5" font-family="Arial.ttf" font-size="10.00">CVImage.h</text>
</a>
</g>
</g>
<!-- Node15&#45;&gt;Node17 -->
<g id="edge20" class="edge">
<title>Node15&#45;&gt;Node17</title>
<path fill="none" stroke="midnightblue" d="M1192.16,-672.44C1161.14,-663.24 1111.67,-648.56 1077.38,-638.39"/>
<polygon fill="midnightblue" stroke="midnightblue" points="1078.29,-635.01 1067.7,-635.52 1076.29,-641.72 1078.29,-635.01"/>
</g>
<!-- Node25 -->
<g id="node25" class="node">
<title>Node25</title>
<g id="a_node25"><a xlink:href="_s_l_g_l_vertex_array_8h.html" target="_top" xlink:title=" ">
<polygon fill="white" stroke="black" points="1216.5,-616.5 1216.5,-635.5 1315.5,-635.5 1315.5,-616.5 1216.5,-616.5"/>
<text text-anchor="middle" x="1266" y="-623.5" font-family="Arial.ttf" font-size="10.00">SLGLVertexArray.h</text>
</a>
</g>
</g>
<!-- Node15&#45;&gt;Node25 -->
<g id="edge29" class="edge">
<title>Node15&#45;&gt;Node25</title>
<path fill="none" stroke="midnightblue" d="M1228.43,-672.08C1234.85,-664.38 1244.31,-653.03 1252.12,-643.65"/>
<polygon fill="midnightblue" stroke="midnightblue" points="1254.99,-645.67 1258.71,-635.75 1249.62,-641.19 1254.99,-645.67"/>
</g>
<!-- Node31 -->
<g id="node31" class="node">
<title>Node31</title>
<g id="a_node31"><a xlink:href="_s_l_mat4_8h.html" target="_top" xlink:title=" ">
<polygon fill="white" stroke="black" points="1354.5,-392.5 1354.5,-411.5 1413.5,-411.5 1413.5,-392.5 1354.5,-392.5"/>
<text text-anchor="middle" x="1384" y="-399.5" font-family="Arial.ttf" font-size="10.00">SLMat4.h</text>
</a>
</g>
</g>
<!-- Node15&#45;&gt;Node31 -->
<g id="edge64" class="edge">
<title>Node15&#45;&gt;Node31</title>
<path fill="none" stroke="midnightblue" d="M1257.98,-672.5C1279.9,-665.8 1306.84,-654.43 1325,-636 1346.96,-613.72 1352,-602.28 1352,-571 1352,-571 1352,-571 1352,-513 1352,-479.33 1365.99,-442.08 1375.47,-420.72"/>
<polygon fill="midnightblue" stroke="midnightblue" points="1378.67,-422.14 1379.68,-411.59 1372.32,-419.21 1378.67,-422.14"/>
</g>
<!-- Node39 -->
<g id="node39" class="node">
<title>Node39</title>
<g id="a_node39"><a xlink:title=" ">
<polygon fill="white" stroke="#bfbfbf" points="1090,-616.5 1090,-635.5 1136,-635.5 1136,-616.5 1090,-616.5"/>
<text text-anchor="middle" x="1113" y="-623.5" font-family="Arial.ttf" font-size="10.00">atomic</text>
</a>
</g>
</g>
<!-- Node15&#45;&gt;Node39 -->
<g id="edge65" class="edge">
<title>Node15&#45;&gt;Node39</title>
<path fill="none" stroke="midnightblue" d="M1203.65,-672.32C1186.33,-663.66 1159.48,-650.24 1139.5,-640.25"/>
<polygon fill="midnightblue" stroke="midnightblue" points="1140.82,-637 1130.31,-635.65 1137.69,-643.26 1140.82,-637"/>
</g>
<!-- Node40 -->
<g id="node40" class="node">
<title>Node40</title>
<g id="a_node40"><a xlink:title=" ">
<polygon fill="white" stroke="#bfbfbf" points="1154,-616.5 1154,-635.5 1198,-635.5 1198,-616.5 1154,-616.5"/>
<text text-anchor="middle" x="1176" y="-623.5" font-family="Arial.ttf" font-size="10.00">mutex</text>
</a>
</g>
</g>
<!-- Node15&#45;&gt;Node40 -->
<g id="edge66" class="edge">
<title>Node15&#45;&gt;Node40</title>
<path fill="none" stroke="midnightblue" d="M1213.57,-672.08C1207.15,-664.38 1197.69,-653.03 1189.88,-643.65"/>
<polygon fill="midnightblue" stroke="midnightblue" points="1192.38,-641.19 1183.29,-635.75 1187.01,-645.67 1192.38,-641.19"/>
</g>
<!-- Node16&#45;&gt;Node4 -->
<g id="edge19" class="edge">
<title>Node16&#45;&gt;Node4</title>
<path fill="none" stroke="midnightblue" d="M1614.74,-560.3C1684.4,-531.18 1893.38,-433.46 1821,-336 1760.04,-253.91 1429.24,-198.24 1329.49,-183.13"/>
<polygon fill="midnightblue" stroke="midnightblue" points="1329.94,-179.66 1319.53,-181.64 1328.9,-186.58 1329.94,-179.66"/>
</g>
<!-- Node18 -->
<g id="node18" class="node">
<title>Node18</title>
<g id="a_node18"><a xlink:href="_c_v_typedefs_8h.html" target="_top" xlink:title=" ">
<polygon fill="white" stroke="black" points="458.5,-560.5 458.5,-579.5 537.5,-579.5 537.5,-560.5 458.5,-560.5"/>
<text text-anchor="middle" x="498" y="-567.5" font-family="Arial.ttf" font-size="10.00">CVTypedefs.h</text>
</a>
</g>
</g>
<!-- Node17&#45;&gt;Node18 -->
<g id="edge21" class="edge">
<title>Node17&#45;&gt;Node18</title>
<path fill="none" stroke="midnightblue" d="M1005.97,-621.7C914.41,-612.56 656.91,-586.86 547.83,-575.97"/>
<polygon fill="midnightblue" stroke="midnightblue" points="548.04,-572.48 537.75,-574.97 547.35,-579.44 548.04,-572.48"/>
</g>
<!-- Node18&#45;&gt;Node7 -->
<g id="edge22" class="edge">
<title>Node18&#45;&gt;Node7</title>
<path fill="none" stroke="midnightblue" d="M458.5,-569.71C370.99,-570.47 164.47,-567.48 113,-524 90.01,-504.58 94,-489.1 94,-459 94,-459 94,-459 94,-177 94,-144.95 94,-107.64 94,-85.75"/>
<polygon fill="midnightblue" stroke="midnightblue" points="97.5,-85.56 94,-75.56 90.5,-85.56 97.5,-85.56"/>
</g>
<!-- Node19 -->
<g id="node19" class="node">
<title>Node19</title>
<g id="a_node19"><a xlink:title=" ">
<polygon fill="white" stroke="#bfbfbf" points="668,-504.5 668,-523.5 784,-523.5 784,-504.5 668,-504.5"/>
<text text-anchor="middle" x="726" y="-511.5" font-family="Arial.ttf" font-size="10.00">opencv2/core/core.hpp</text>
</a>
</g>
</g>
<!-- Node18&#45;&gt;Node19 -->
<g id="edge23" class="edge">
<title>Node18&#45;&gt;Node19</title>
<path fill="none" stroke="midnightblue" d="M534.13,-560.44C573.65,-551.08 637.1,-536.06 680.11,-525.87"/>
<polygon fill="midnightblue" stroke="midnightblue" points="681.12,-529.23 690.04,-523.52 679.5,-522.42 681.12,-529.23"/>
</g>
<!-- Node20 -->
<g id="node20" class="node">
<title>Node20</title>
<g id="a_node20"><a xlink:title=" ">
<polygon fill="white" stroke="#bfbfbf" points="802,-504.5 802,-523.5 912,-523.5 912,-504.5 802,-504.5"/>
<text text-anchor="middle" x="857" y="-511.5" font-family="Arial.ttf" font-size="10.00">opencv2/core/ocl.hpp</text>
</a>
</g>
</g>
<!-- Node18&#45;&gt;Node20 -->
<g id="edge24" class="edge">
<title>Node18&#45;&gt;Node20</title>
<path fill="none" stroke="midnightblue" d="M537.79,-563.01C599.16,-553.78 717.57,-535.97 791.64,-524.83"/>
<polygon fill="midnightblue" stroke="midnightblue" points="792.42,-528.25 801.79,-523.3 791.38,-521.33 792.42,-528.25"/>
</g>
<!-- Node21 -->
<g id="node21" class="node">
<title>Node21</title>
<g id="a_node21"><a xlink:title=" ">
<polygon fill="white" stroke="#bfbfbf" points="122,-504.5 122,-523.5 216,-523.5 216,-504.5 122,-504.5"/>
<text text-anchor="middle" x="169" y="-511.5" font-family="Arial.ttf" font-size="10.00">opencv2/face.hpp</text>
</a>
</g>
</g>
<!-- Node18&#45;&gt;Node21 -->
<g id="edge25" class="edge">
<title>Node18&#45;&gt;Node21</title>
<path fill="none" stroke="midnightblue" d="M458.31,-562.49C400.44,-552.99 292.57,-535.28 226.15,-524.38"/>
<polygon fill="midnightblue" stroke="midnightblue" points="226.7,-520.92 216.26,-522.76 225.56,-527.83 226.7,-520.92"/>
</g>
<!-- Node22 -->
<g id="node22" class="node">
<title>Node22</title>
<g id="a_node22"><a xlink:title=" ">
<polygon fill="white" stroke="#bfbfbf" points="234.5,-504.5 234.5,-523.5 339.5,-523.5 339.5,-504.5 234.5,-504.5"/>
<text text-anchor="middle" x="287" y="-511.5" font-family="Arial.ttf" font-size="10.00">opencv2/opencv.hpp</text>
</a>
</g>
</g>
<!-- Node18&#45;&gt;Node22 -->
<g id="edge26" class="edge">
<title>Node18&#45;&gt;Node22</title>
<path fill="none" stroke="midnightblue" d="M464.57,-560.44C428.14,-551.12 369.77,-536.18 329.97,-526"/>
<polygon fill="midnightblue" stroke="midnightblue" points="330.83,-522.61 320.28,-523.52 329.1,-529.39 330.83,-522.61"/>
</g>
<!-- Node23 -->
<g id="node23" class="node">
<title>Node23</title>
<g id="a_node23"><a xlink:title=" ">
<polygon fill="white" stroke="#bfbfbf" points="358,-504.5 358,-523.5 484,-523.5 484,-504.5 358,-504.5"/>
<text text-anchor="middle" x="421" y="-511.5" font-family="Arial.ttf" font-size="10.00">opencv2/xfeatures2d.hpp</text>
</a>
</g>
</g>
<!-- Node18&#45;&gt;Node23 -->
<g id="edge27" class="edge">
<title>Node18&#45;&gt;Node23</title>
<path fill="none" stroke="midnightblue" d="M485.63,-560.32C473.84,-552.06 455.87,-539.45 441.86,-529.63"/>
<polygon fill="midnightblue" stroke="midnightblue" points="443.54,-526.53 433.34,-523.65 439.52,-532.26 443.54,-526.53"/>
</g>
<!-- Node24 -->
<g id="node24" class="node">
<title>Node24</title>
<g id="a_node24"><a xlink:title=" ">
<polygon fill="white" stroke="#bfbfbf" points="502.5,-504.5 502.5,-523.5 649.5,-523.5 649.5,-504.5 502.5,-504.5"/>
<text text-anchor="middle" x="576" y="-511.5" font-family="Arial.ttf" font-size="10.00">opencv2/imgproc/imgproc.hpp</text>
</a>
</g>
</g>
<!-- Node18&#45;&gt;Node24 -->
<g id="edge28" class="edge">
<title>Node18&#45;&gt;Node24</title>
<path fill="none" stroke="midnightblue" d="M510.53,-560.32C522.59,-551.98 541.03,-539.21 555.27,-529.35"/>
<polygon fill="midnightblue" stroke="midnightblue" points="557.27,-532.22 563.5,-523.65 553.28,-526.47 557.27,-532.22"/>
</g>
<!-- Node26 -->
<g id="node26" class="node">
<title>Node26</title>
<g id="a_node26"><a xlink:href="_s_l_g_l_enums_8h.html" target="_top" xlink:title=" ">
<polygon fill="white" stroke="black" points="1153,-504.5 1153,-523.5 1233,-523.5 1233,-504.5 1153,-504.5"/>
<text text-anchor="middle" x="1193" y="-511.5" font-family="Arial.ttf" font-size="10.00">SLGLEnums.h</text>
</a>
</g>
</g>
<!-- Node25&#45;&gt;Node26 -->
<g id="edge30" class="edge">
<title>Node25&#45;&gt;Node26</title>
<path fill="none" stroke="midnightblue" d="M1260.27,-616.37C1248.22,-598.22 1220.08,-555.8 1204.28,-531.99"/>
<polygon fill="midnightblue" stroke="midnightblue" points="1207.15,-529.99 1198.7,-523.59 1201.31,-533.86 1207.15,-529.99"/>
</g>
<!-- Node38 -->
<g id="node38" class="node">
<title>Node38</title>
<g id="a_node38"><a xlink:href="_s_l_g_l_vertex_buffer_8h.html" target="_top" xlink:title=" ">
<polygon fill="white" stroke="black" points="1006.5,-560.5 1006.5,-579.5 1109.5,-579.5 1109.5,-560.5 1006.5,-560.5"/>
<text text-anchor="middle" x="1058" y="-567.5" font-family="Arial.ttf" font-size="10.00">SLGLVertexBuffer.h</text>
</a>
</g>
</g>
<!-- Node25&#45;&gt;Node38 -->
<g id="edge59" class="edge">
<title>Node25&#45;&gt;Node38</title>
<path fill="none" stroke="midnightblue" d="M1233.04,-616.44C1197.21,-607.14 1139.84,-592.25 1100.61,-582.06"/>
<polygon fill="midnightblue" stroke="midnightblue" points="1101.36,-578.64 1090.8,-579.52 1099.6,-585.42 1101.36,-578.64"/>
</g>
<!-- Node26&#45;&gt;Node4 -->
<g id="edge31" class="edge">
<title>Node26&#45;&gt;Node4</title>
<path fill="none" stroke="midnightblue" d="M1195.49,-504.49C1204.43,-473.98 1236.01,-367.18 1265,-280 1274.71,-250.8 1286.89,-217.2 1294.3,-197.06"/>
<polygon fill="midnightblue" stroke="midnightblue" points="1297.61,-198.2 1297.79,-187.6 1291.04,-195.77 1297.61,-198.2"/>
</g>
<!-- Node27 -->
<g id="node27" class="node">
<title>Node27</title>
<g id="a_node27"><a xlink:href="_s_l_g_l_state_8h.html" target="_top" xlink:title=" ">
<polygon fill="white" stroke="black" points="1104.5,-448.5 1104.5,-467.5 1177.5,-467.5 1177.5,-448.5 1104.5,-448.5"/>
<text text-anchor="middle" x="1141" y="-455.5" font-family="Arial.ttf" font-size="10.00">SLGLState.h</text>
</a>
</g>
</g>
<!-- Node26&#45;&gt;Node27 -->
<g id="edge32" class="edge">
<title>Node26&#45;&gt;Node27</title>
<path fill="none" stroke="midnightblue" d="M1184.41,-504.08C1176.84,-496.22 1165.62,-484.57 1156.49,-475.08"/>
<polygon fill="midnightblue" stroke="midnightblue" points="1158.88,-472.53 1149.43,-467.75 1153.84,-477.38 1158.88,-472.53"/>
</g>
<!-- Node27&#45;&gt;Node4 -->
<g id="edge33" class="edge">
<title>Node27&#45;&gt;Node4</title>
<path fill="none" stroke="midnightblue" d="M1142.39,-448.43C1148.06,-415.85 1172.01,-297.79 1232,-224 1243,-210.48 1259.16,-199.63 1273.08,-191.98"/>
<polygon fill="midnightblue" stroke="midnightblue" points="1275.01,-194.92 1282.27,-187.19 1271.78,-188.71 1275.01,-194.92"/>
</g>
<!-- Node28 -->
<g id="node28" class="node">
<title>Node28</title>
<g id="a_node28"><a xlink:href="_s_l_vec3_8h.html" target="_top" xlink:title=" ">
<polygon fill="white" stroke="black" points="1006.5,-280.5 1006.5,-299.5 1065.5,-299.5 1065.5,-280.5 1006.5,-280.5"/>
<text text-anchor="middle" x="1036" y="-287.5" font-family="Arial.ttf" font-size="10.00">SLVec3.h</text>
</a>
</g>
</g>
<!-- Node27&#45;&gt;Node28 -->
<g id="edge34" class="edge">
<title>Node27&#45;&gt;Node28</title>
<path fill="none" stroke="midnightblue" d="M1134.62,-448.27C1122.1,-430.99 1093.62,-391.07 1072,-356 1062.29,-340.25 1052.16,-321.74 1045.13,-308.51"/>
<polygon fill="midnightblue" stroke="midnightblue" points="1048.17,-306.78 1040.41,-299.56 1041.97,-310.04 1048.17,-306.78"/>
</g>
<!-- Node27&#45;&gt;Node30 -->
<g id="edge40" class="edge">
<title>Node27&#45;&gt;Node30</title>
<path fill="none" stroke="midnightblue" d="M1138.57,-448.37C1133.54,-430.54 1121.92,-389.3 1115.15,-365.27"/>
<polygon fill="midnightblue" stroke="midnightblue" points="1118.5,-364.27 1112.42,-355.59 1111.77,-366.17 1118.5,-364.27"/>
</g>
<!-- Node27&#45;&gt;Node31 -->
<g id="edge45" class="edge">
<title>Node27&#45;&gt;Node31</title>
<path fill="none" stroke="midnightblue" d="M1177.64,-448.86C1222.51,-438.89 1298.22,-422.06 1344.39,-411.8"/>
<polygon fill="midnightblue" stroke="midnightblue" points="1345.34,-415.18 1354.34,-409.59 1343.82,-408.34 1345.34,-415.18"/>
</g>
<!-- Node28&#45;&gt;Node4 -->
<g id="edge35" class="edge">
<title>Node28&#45;&gt;Node4</title>
<path fill="none" stroke="midnightblue" d="M1049.6,-280.48C1071.41,-267.1 1115.82,-240.92 1156,-224 1195.33,-207.43 1242.91,-193.82 1272.57,-186.05"/>
<polygon fill="midnightblue" stroke="midnightblue" points="1273.47,-189.44 1282.28,-183.56 1271.72,-182.66 1273.47,-189.44"/>
</g>
<!-- Node28&#45;&gt;Node5 -->
<g id="edge39" class="edge">
<title>Node28&#45;&gt;Node5</title>
<path fill="none" stroke="midnightblue" d="M1039.12,-280.08C1048.29,-253.83 1075.29,-176.55 1087.67,-141.12"/>
<polygon fill="midnightblue" stroke="midnightblue" points="1091.01,-142.16 1091.01,-131.57 1084.4,-139.85 1091.01,-142.16"/>
</g>
<!-- Node29 -->
<g id="node29" class="node">
<title>Node29</title>
<g id="a_node29"><a xlink:href="_s_l_vec2_8h.html" target="_top" xlink:title=" ">
<polygon fill="white" stroke="black" points="930.5,-224.5 930.5,-243.5 989.5,-243.5 989.5,-224.5 930.5,-224.5"/>
<text text-anchor="middle" x="960" y="-231.5" font-family="Arial.ttf" font-size="10.00">SLVec2.h</text>
</a>
</g>
</g>
<!-- Node28&#45;&gt;Node29 -->
<g id="edge36" class="edge">
<title>Node28&#45;&gt;Node29</title>
<path fill="none" stroke="midnightblue" d="M1023.79,-280.32C1012.22,-272.11 994.62,-259.6 980.84,-249.81"/>
<polygon fill="midnightblue" stroke="midnightblue" points="982.61,-246.77 972.43,-243.83 978.56,-252.48 982.61,-246.77"/>
</g>
<!-- Node29&#45;&gt;Node4 -->
<g id="edge37" class="edge">
<title>Node29&#45;&gt;Node4</title>
<path fill="none" stroke="midnightblue" d="M989.66,-228.3C1054.46,-218.04 1207.94,-193.74 1272.06,-183.58"/>
<polygon fill="midnightblue" stroke="midnightblue" points="1272.93,-186.99 1282.26,-181.97 1271.84,-180.07 1272.93,-186.99"/>
</g>
<!-- Node29&#45;&gt;Node5 -->
<g id="edge38" class="edge">
<title>Node29&#45;&gt;Node5</title>
<path fill="none" stroke="midnightblue" d="M964.01,-224.39C970.66,-210.88 985.14,-184.53 1004,-168 1020.93,-153.16 1043.61,-141.86 1061.97,-134.3"/>
<polygon fill="midnightblue" stroke="midnightblue" points="1063.38,-137.51 1071.39,-130.58 1060.81,-130.99 1063.38,-137.51"/>
</g>
<!-- Node30&#45;&gt;Node4 -->
<g id="edge41" class="edge">
<title>Node30&#45;&gt;Node4</title>
<path fill="none" stroke="midnightblue" d="M1113.82,-336.44C1123.91,-314.74 1153.27,-257.01 1194,-224 1217.22,-205.19 1249.44,-193.07 1272.44,-186.2"/>
<polygon fill="midnightblue" stroke="midnightblue" points="1273.63,-189.5 1282.3,-183.41 1271.72,-182.77 1273.63,-189.5"/>
</g>
<!-- Node30&#45;&gt;Node5 -->
<g id="edge44" class="edge">
<title>Node30&#45;&gt;Node5</title>
<path fill="none" stroke="midnightblue" d="M1109.37,-336.3C1107.02,-303.63 1098.68,-187.87 1095.37,-141.96"/>
<polygon fill="midnightblue" stroke="midnightblue" points="1098.85,-141.61 1094.64,-131.88 1091.87,-142.11 1098.85,-141.61"/>
</g>
<!-- Node30&#45;&gt;Node28 -->
<g id="edge43" class="edge">
<title>Node30&#45;&gt;Node28</title>
<path fill="none" stroke="midnightblue" d="M1098.11,-336.32C1086.85,-328.11 1069.71,-315.6 1056.29,-305.81"/>
<polygon fill="midnightblue" stroke="midnightblue" points="1058.25,-302.9 1048.11,-299.83 1054.12,-308.56 1058.25,-302.9"/>
</g>
<!-- Node30&#45;&gt;Node29 -->
<g id="edge42" class="edge">
<title>Node30&#45;&gt;Node29</title>
<path fill="none" stroke="midnightblue" d="M1080.05,-338.68C1055.7,-332.3 1021.64,-320.4 998,-300 983.35,-287.36 972.93,-267.59 966.75,-253.18"/>
<polygon fill="midnightblue" stroke="midnightblue" points="969.97,-251.79 963.01,-243.8 963.47,-254.39 969.97,-251.79"/>
</g>
<!-- Node31&#45;&gt;Node4 -->
<g id="edge46" class="edge">
<title>Node31&#45;&gt;Node4</title>
<path fill="none" stroke="midnightblue" d="M1382.76,-392.45C1378.12,-361.31 1361.31,-254.17 1345,-224 1338.87,-212.67 1329.06,-202.23 1320.25,-194.26"/>
<polygon fill="midnightblue" stroke="midnightblue" points="1322.45,-191.54 1312.58,-187.69 1317.89,-196.85 1322.45,-191.54"/>
</g>
<!-- Node31&#45;&gt;Node5 -->
<g id="edge48" class="edge">
<title>Node31&#45;&gt;Node5</title>
<path fill="none" stroke="midnightblue" d="M1413.71,-399.67C1503.94,-395.39 1770.45,-380.75 1800,-356 1823.08,-336.68 1819,-321.1 1819,-291 1819,-291 1819,-291 1819,-233 1819,-162.04 1269.15,-131.25 1127.15,-124.48"/>
<polygon fill="midnightblue" stroke="midnightblue" points="1127.05,-120.97 1116.9,-124 1126.72,-127.96 1127.05,-120.97"/>
</g>
<!-- Node31&#45;&gt;Node28 -->
<g id="edge54" class="edge">
<title>Node31&#45;&gt;Node28</title>
<path fill="none" stroke="midnightblue" d="M1356.98,-392.46C1295.19,-372.93 1143.45,-324.96 1073.02,-302.7"/>
<polygon fill="midnightblue" stroke="midnightblue" points="1073.83,-299.29 1063.24,-299.61 1071.72,-305.96 1073.83,-299.29"/>
</g>
<!-- Node31&#45;&gt;Node30 -->
<g id="edge55" class="edge">
<title>Node31&#45;&gt;Node30</title>
<path fill="none" stroke="midnightblue" d="M1354.42,-395.17C1304.91,-385.41 1205.27,-365.78 1149.71,-354.83"/>
<polygon fill="midnightblue" stroke="midnightblue" points="1150.36,-351.39 1139.88,-352.89 1149.01,-358.26 1150.36,-351.39"/>
</g>
<!-- Node32 -->
<g id="node32" class="node">
<title>Node32</title>
<g id="a_node32"><a xlink:title=" ">
<polygon fill="white" stroke="#bfbfbf" points="1388.5,-336.5 1388.5,-355.5 1429.5,-355.5 1429.5,-336.5 1388.5,-336.5"/>
<text text-anchor="middle" x="1409" y="-343.5" font-family="Arial.ttf" font-size="10.00">stack</text>
</a>
</g>
</g>
<!-- Node31&#45;&gt;Node32 -->
<g id="edge47" class="edge">
<title>Node31&#45;&gt;Node32</title>
<path fill="none" stroke="midnightblue" d="M1388.13,-392.08C1391.51,-384.77 1396.42,-374.18 1400.62,-365.1"/>
<polygon fill="midnightblue" stroke="midnightblue" points="1403.92,-366.3 1404.95,-355.75 1397.57,-363.36 1403.92,-366.3"/>
</g>
<!-- Node33 -->
<g id="node33" class="node">
<title>Node33</title>
<g id="a_node33"><a xlink:href="_s_l_mat3_8h.html" target="_top" xlink:title=" ">
<polygon fill="white" stroke="black" points="1272.5,-336.5 1272.5,-355.5 1331.5,-355.5 1331.5,-336.5 1272.5,-336.5"/>
<text text-anchor="middle" x="1302" y="-343.5" font-family="Arial.ttf" font-size="10.00">SLMat3.h</text>
</a>
</g>
</g>
<!-- Node31&#45;&gt;Node33 -->
<g id="edge49" class="edge">
<title>Node31&#45;&gt;Node33</title>
<path fill="none" stroke="midnightblue" d="M1370.83,-392.32C1358.15,-383.98 1338.77,-371.21 1323.79,-361.35"/>
<polygon fill="midnightblue" stroke="midnightblue" points="1325.42,-358.23 1315.14,-355.65 1321.57,-364.08 1325.42,-358.23"/>
</g>
<!-- Node35 -->
<g id="node35" class="node">
<title>Node35</title>
<g id="a_node35"><a xlink:title=" ">
<polygon fill="white" stroke="#bfbfbf" points="1448,-336.5 1448,-355.5 1500,-355.5 1500,-336.5 1448,-336.5"/>
<text text-anchor="middle" x="1474" y="-343.5" font-family="Arial.ttf" font-size="10.00">assert.h</text>
</a>
</g>
</g>
<!-- Node31&#45;&gt;Node35 -->
<g id="edge56" class="edge">
<title>Node31&#45;&gt;Node35</title>
<path fill="none" stroke="midnightblue" d="M1398.46,-392.32C1412.5,-383.9 1434.05,-370.97 1450.54,-361.07"/>
<polygon fill="midnightblue" stroke="midnightblue" points="1452.8,-363.8 1459.58,-355.65 1449.2,-357.8 1452.8,-363.8"/>
</g>
<!-- Node36 -->
<g id="node36" class="node">
<title>Node36</title>
<g id="a_node36"><a xlink:title=" ">
<polygon fill="white" stroke="#bfbfbf" points="1518.5,-336.5 1518.5,-355.5 1645.5,-355.5 1645.5,-336.5 1518.5,-336.5"/>
<text text-anchor="middle" x="1582" y="-343.5" font-family="Arial.ttf" font-size="10.00">Shoemake/Decompose.h</text>
</a>
</g>
</g>
<!-- Node31&#45;&gt;Node36 -->
<g id="edge57" class="edge">
<title>Node31&#45;&gt;Node36</title>
<path fill="none" stroke="midnightblue" d="M1413.64,-392.92C1447.41,-383.71 1502.82,-368.59 1540.78,-358.24"/>
<polygon fill="midnightblue" stroke="midnightblue" points="1541.79,-361.59 1550.52,-355.59 1539.95,-354.84 1541.79,-361.59"/>
</g>
<!-- Node37 -->
<g id="node37" class="node">
<title>Node37</title>
<g id="a_node37"><a xlink:title=" ">
<polygon fill="white" stroke="#bfbfbf" points="1663.5,-336.5 1663.5,-355.5 1790.5,-355.5 1790.5,-336.5 1663.5,-336.5"/>
<text text-anchor="middle" x="1727" y="-343.5" font-family="Arial.ttf" font-size="10.00">Shoemake/EulerAngles.h</text>
</a>
</g>
</g>
<!-- Node31&#45;&gt;Node37 -->
<g id="edge58" class="edge">
<title>Node31&#45;&gt;Node37</title>
<path fill="none" stroke="midnightblue" d="M1413.54,-396.35C1468.64,-387.68 1588.22,-368.85 1662.72,-357.12"/>
<polygon fill="midnightblue" stroke="midnightblue" points="1663.59,-360.53 1672.93,-355.51 1662.5,-353.61 1663.59,-360.53"/>
</g>
<!-- Node33&#45;&gt;Node4 -->
<g id="edge50" class="edge">
<title>Node33&#45;&gt;Node4</title>
<path fill="none" stroke="midnightblue" d="M1311.56,-336.45C1320.09,-328.12 1331.99,-314.6 1337,-300 1349.57,-263.38 1327.65,-219.68 1312.85,-196.11"/>
<polygon fill="midnightblue" stroke="midnightblue" points="1315.67,-194.02 1307.25,-187.59 1309.82,-197.86 1315.67,-194.02"/>
</g>
<!-- Node33&#45;&gt;Node5 -->
<g id="edge51" class="edge">
<title>Node33&#45;&gt;Node5</title>
<path fill="none" stroke="midnightblue" d="M1293.85,-336.3C1262.66,-303.01 1150.61,-183.42 1109.37,-139.41"/>
<polygon fill="midnightblue" stroke="midnightblue" points="1111.71,-136.79 1102.32,-131.88 1106.61,-141.57 1111.71,-136.79"/>
</g>
<!-- Node33&#45;&gt;Node28 -->
<g id="edge52" class="edge">
<title>Node33&#45;&gt;Node28</title>
<path fill="none" stroke="midnightblue" d="M1272.26,-338.96C1224.12,-329.19 1129.1,-309.9 1075.39,-299"/>
<polygon fill="midnightblue" stroke="midnightblue" points="1076.04,-295.56 1065.55,-297 1074.65,-302.42 1076.04,-295.56"/>
</g>
<!-- Node34 -->
<g id="node34" class="node">
<title>Node34</title>
<g id="a_node34"><a xlink:title=" ">
<polygon fill="white" stroke="#bfbfbf" points="1274,-280.5 1274,-299.5 1328,-299.5 1328,-280.5 1274,-280.5"/>
<text text-anchor="middle" x="1301" y="-287.5" font-family="Arial.ttf" font-size="10.00">iostream</text>
</a>
</g>
</g>
<!-- Node33&#45;&gt;Node34 -->
<g id="edge53" class="edge">
<title>Node33&#45;&gt;Node34</title>
<path fill="none" stroke="midnightblue" d="M1301.83,-336.08C1301.7,-329.01 1301.52,-318.86 1301.35,-309.99"/>
<polygon fill="midnightblue" stroke="midnightblue" points="1304.85,-309.68 1301.16,-299.75 1297.85,-309.81 1304.85,-309.68"/>
</g>
<!-- Node38&#45;&gt;Node26 -->
<g id="edge60" class="edge">
<title>Node38&#45;&gt;Node26</title>
<path fill="none" stroke="midnightblue" d="M1079.39,-560.44C1101.71,-551.52 1136.9,-537.44 1162.21,-527.32"/>
<polygon fill="midnightblue" stroke="midnightblue" points="1163.72,-530.48 1171.71,-523.52 1161.12,-523.98 1163.72,-530.48"/>
</g>
<!-- Node38&#45;&gt;Node28 -->
<g id="edge62" class="edge">
<title>Node38&#45;&gt;Node28</title>
<path fill="none" stroke="midnightblue" d="M1057.32,-560.38C1054.26,-521.78 1041.81,-364.45 1037.49,-309.81"/>
<polygon fill="midnightblue" stroke="midnightblue" points="1040.95,-309.22 1036.67,-299.52 1033.97,-309.77 1040.95,-309.22"/>
</g>
<!-- Node38&#45;&gt;Node29 -->
<g id="edge61" class="edge">
<title>Node38&#45;&gt;Node29</title>
<path fill="none" stroke="midnightblue" d="M1036.08,-560.39C1001.96,-545.37 940,-510.95 940,-459 940,-459 940,-459 940,-345 940,-312.44 948.59,-275.32 954.51,-253.59"/>
<polygon fill="midnightblue" stroke="midnightblue" points="957.94,-254.32 957.3,-243.74 951.21,-252.41 957.94,-254.32"/>
</g>
<!-- Node38&#45;&gt;Node30 -->
<g id="edge63" class="edge">
<title>Node38&#45;&gt;Node30</title>
<path fill="none" stroke="midnightblue" d="M1060.04,-560.3C1067.71,-527.56 1094.92,-411.38 1105.63,-365.67"/>
<polygon fill="midnightblue" stroke="midnightblue" points="1109.05,-366.42 1107.92,-355.88 1102.23,-364.82 1109.05,-366.42"/>
</g>
<!-- Node41&#45;&gt;Node4 -->
<g id="edge69" class="edge">
<title>Node41&#45;&gt;Node4</title>
<path fill="none" stroke="midnightblue" d="M2066.41,-510.94C2121.27,-506.51 2236.26,-494.27 2265,-468 2287.21,-447.69 2284,-433.1 2284,-403 2284,-403 2284,-403 2284,-289 2284,-190.38 1492.45,-180.18 1329.95,-179.12"/>
<polygon fill="midnightblue" stroke="midnightblue" points="1329.78,-175.62 1319.76,-179.06 1329.74,-182.62 1329.78,-175.62"/>
</g>
<!-- Node41&#45;&gt;Node30 -->
<g id="edge70" class="edge">
<title>Node41&#45;&gt;Node30</title>
<path fill="none" stroke="midnightblue" d="M2007.81,-510.04C1912.18,-500.07 1599.92,-465.31 1346,-412 1274.51,-396.99 1192.63,-372.83 1146.54,-358.58"/>
<polygon fill="midnightblue" stroke="midnightblue" points="1147.58,-355.24 1136.99,-355.61 1145.5,-361.92 1147.58,-355.24"/>
</g>
<!-- Node42 -->
<g id="node42" class="node">
<title>Node42</title>
<g id="a_node42"><a xlink:href="_s_l_optix_definitions_8h.html" target="_top" xlink:title=" ">
<polygon fill="white" stroke="black" points="2042.5,-448.5 2042.5,-467.5 2149.5,-467.5 2149.5,-448.5 2042.5,-448.5"/>
<text text-anchor="middle" x="2096" y="-455.5" font-family="Arial.ttf" font-size="10.00">SLOptixDefinitions.h</text>
</a>
</g>
</g>
<!-- Node41&#45;&gt;Node42 -->
<g id="edge71" class="edge">
<title>Node41&#45;&gt;Node42</title>
<path fill="none" stroke="midnightblue" d="M2046.48,-504.32C2055.2,-496.34 2068.34,-484.31 2078.9,-474.65"/>
<polygon fill="midnightblue" stroke="midnightblue" points="2081.33,-477.17 2086.35,-467.83 2076.61,-472 2081.33,-477.17"/>
</g>
<!-- Node43 -->
<g id="node43" class="node">
<title>Node43</title>
<g id="a_node43"><a xlink:href="_s_l_optix_helper_8h.html" target="_top" xlink:title=" ">
<polygon fill="white" stroke="black" points="2168,-448.5 2168,-467.5 2256,-467.5 2256,-448.5 2168,-448.5"/>
<text text-anchor="middle" x="2212" y="-455.5" font-family="Arial.ttf" font-size="10.00">SLOptixHelper.h</text>
</a>
</g>
</g>
<!-- Node41&#45;&gt;Node43 -->
<g id="edge72" class="edge">
<title>Node41&#45;&gt;Node43</title>
<path fill="none" stroke="midnightblue" d="M2064.73,-504.44C2094.43,-495.28 2141.72,-480.69 2174.67,-470.52"/>
<polygon fill="midnightblue" stroke="midnightblue" points="2175.88,-473.81 2184.4,-467.52 2173.81,-467.12 2175.88,-473.81"/>
</g>
<!-- Node44 -->
<g id="node44" class="node">
<title>Node44</title>
<g id="a_node44"><a xlink:href="_s_l_shadow_map_8h.html" target="_top" xlink:title=" ">
<polygon fill="white" stroke="black" points="1933.5,-448.5 1933.5,-467.5 2024.5,-467.5 2024.5,-448.5 1933.5,-448.5"/>
<text text-anchor="middle" x="1979" y="-455.5" font-family="Arial.ttf" font-size="10.00">SLShadowMap.h</text>
</a>
</g>
</g>
<!-- Node41&#45;&gt;Node44 -->
<g id="edge73" class="edge">
<title>Node41&#45;&gt;Node44</title>
<path fill="none" stroke="midnightblue" d="M2027.68,-504.32C2019.11,-496.34 2006.19,-484.31 1995.81,-474.65"/>
<polygon fill="midnightblue" stroke="midnightblue" points="1998.19,-472.09 1988.49,-467.83 1993.42,-477.21 1998.19,-472.09"/>
</g>
<!-- Node44&#45;&gt;Node4 -->
<g id="edge74" class="edge">
<title>Node44&#45;&gt;Node4</title>
<path fill="none" stroke="midnightblue" d="M1984.56,-448.27C1995.55,-430.15 2019,-386.83 2019,-347 2019,-347 2019,-347 2019,-289 2019,-225.99 1953.63,-241.18 1893,-224 1785.13,-193.44 1433.07,-182.32 1329.75,-179.67"/>
<polygon fill="midnightblue" stroke="midnightblue" points="1329.82,-176.17 1319.74,-179.42 1329.65,-183.17 1329.82,-176.17"/>
</g>
<!-- Node44&#45;&gt;Node14 -->
<g id="edge75" class="edge">
<title>Node44&#45;&gt;Node14</title>
<path fill="none" stroke="midnightblue" d="M1975.37,-448.08C1972.39,-440.77 1968.07,-430.18 1964.38,-421.1"/>
<polygon fill="midnightblue" stroke="midnightblue" points="1967.58,-419.69 1960.57,-411.75 1961.1,-422.33 1967.58,-419.69"/>
</g>
<!-- Node44&#45;&gt;Node31 -->
<g id="edge76" class="edge">
<title>Node44&#45;&gt;Node31</title>
<path fill="none" stroke="midnightblue" d="M1933.37,-449.12C1930.54,-448.72 1927.74,-448.34 1925,-448 1738.1,-424.69 1513.33,-410.35 1423.7,-405.18"/>
<polygon fill="midnightblue" stroke="midnightblue" points="1423.89,-401.69 1413.7,-404.61 1423.49,-408.68 1423.89,-401.69"/>
</g>
<!-- Node45&#45;&gt;Node7 -->
<g id="edge78" class="edge">
<title>Node45&#45;&gt;Node7</title>
<path fill="none" stroke="midnightblue" d="M36.28,-224.08C45.92,-197.83 74.32,-120.55 87.34,-85.12"/>
<polygon fill="midnightblue" stroke="midnightblue" points="90.69,-86.16 90.85,-75.57 84.12,-83.75 90.69,-86.16"/>
</g>
</g>
</svg>
