<?xml version="1.0" encoding="UTF-8" standalone="no"?>
<!DOCTYPE svg PUBLIC "-//W3C//DTD SVG 1.1//EN"
 "http://www.w3.org/Graphics/SVG/1.1/DTD/svg11.dtd">
<!-- Generated by graphviz version 2.28.0 (20110507.0327)
 -->
<!-- Title: SLQuat4.h Pages: 1 -->
<svg width="1947pt" height="364pt"
 viewBox="0.00 0.00 1947.00 364.00" xmlns="http://www.w3.org/2000/svg" xmlns:xlink="http://www.w3.org/1999/xlink">
<g id="graph1" class="graph" transform="scale(1 1) rotate(0) translate(4 360)">
<title>SLQuat4.h</title>
<polygon fill="white" stroke="white" points="-4,5 -4,-360 1944,-360 1944,5 -4,5"/>
<!-- Node1 -->
<g id="node1" class="node"><title>Node1</title>
<polygon fill="#bfbfbf" stroke="black" points="908.5,-336.5 908.5,-355.5 975.5,-355.5 975.5,-336.5 908.5,-336.5"/>
<text text-anchor="middle" x="942" y="-343.5" font-family="Arial.ttf" font-size="10.00">SLQuat4.h</text>
</g>
<!-- Node2 -->
<g id="node3" class="node"><title>Node2</title>
<a xlink:href="_s_l_8h.html" target="_top" xlink:title="SL.h">
<polygon fill="white" stroke="black" points="942,-56.5 942,-75.5 980,-75.5 980,-56.5 942,-56.5"/>
<text text-anchor="middle" x="961" y="-63.5" font-family="Arial.ttf" font-size="10.00">SL.h</text>
</a>
</g>
<!-- Node1&#45;&gt;Node2 -->
<g id="edge2" class="edge"><title>Node1&#45;&gt;Node2</title>
<path fill="none" stroke="midnightblue" d="M909.376,-336.389C866.069,-322.755 795,-291.738 795,-235 795,-235 795,-235 795,-177 795,-112.074 884.332,-83.2093 931.931,-72.4376"/>
<polygon fill="midnightblue" stroke="midnightblue" points="932.909,-75.8077 941.958,-70.2963 931.447,-68.962 932.909,-75.8077"/>
</g>
<!-- Node31 -->
<g id="node61" class="node"><title>Node31</title>
<a xlink:href="_s_l_math_8h.html" target="_top" xlink:title="SLMath.h">
<polygon fill="white" stroke="black" points="823,-224.5 823,-243.5 885,-243.5 885,-224.5 823,-224.5"/>
<text text-anchor="middle" x="854" y="-231.5" font-family="Arial.ttf" font-size="10.00">SLMath.h</text>
</a>
</g>
<!-- Node1&#45;&gt;Node31 -->
<g id="edge60" class="edge"><title>Node1&#45;&gt;Node31</title>
<path fill="none" stroke="midnightblue" d="M935.095,-336.368C920.508,-318.135 886.341,-275.426 867.34,-251.675"/>
<polygon fill="midnightblue" stroke="midnightblue" points="869.853,-249.214 860.873,-243.591 864.387,-253.587 869.853,-249.214"/>
</g>
<!-- Node32 -->
<g id="node64" class="node"><title>Node32</title>
<a xlink:href="_s_l_mat4_8h.html" target="_top" xlink:title="SLMat4.h">
<polygon fill="white" stroke="black" points="941,-280.5 941,-299.5 1003,-299.5 1003,-280.5 941,-280.5"/>
<text text-anchor="middle" x="972" y="-287.5" font-family="Arial.ttf" font-size="10.00">SLMat4.h</text>
</a>
</g>
<!-- Node1&#45;&gt;Node32 -->
<g id="edge64" class="edge"><title>Node1&#45;&gt;Node32</title>
<path fill="none" stroke="midnightblue" d="M946.954,-336.083C951.104,-328.613 957.153,-317.724 962.267,-308.52"/>
<polygon fill="midnightblue" stroke="midnightblue" points="965.341,-310.192 967.138,-299.751 959.222,-306.793 965.341,-310.192"/>
</g>
<!-- Node39 -->
<g id="node83" class="node"><title>Node39</title>
<a xlink:href="_s_l_vec4_8h.html" target="_top" xlink:title="SLVec4.h">
<polygon fill="white" stroke="black" points="1333,-224.5 1333,-243.5 1395,-243.5 1395,-224.5 1333,-224.5"/>
<text text-anchor="middle" x="1364" y="-231.5" font-family="Arial.ttf" font-size="10.00">SLVec4.h</text>
</a>
</g>
<!-- Node1&#45;&gt;Node39 -->
<g id="edge100" class="edge"><title>Node1&#45;&gt;Node39</title>
<path fill="none" stroke="midnightblue" d="M974.762,-336.46C1050.89,-316.617 1239.57,-267.435 1323.09,-245.663"/>
<polygon fill="midnightblue" stroke="midnightblue" points="1324.19,-248.995 1332.98,-243.086 1322.42,-242.221 1324.19,-248.995"/>
</g>
<!-- Node3 -->
<g id="node5" class="node"><title>Node3</title>
<a xlink:href="_s_l_enums_8h.html" target="_top" xlink:title="SLEnums.h">
<polygon fill="white" stroke="black" points="-0.5,-0.5 -0.5,-19.5 70.5,-19.5 70.5,-0.5 -0.5,-0.5"/>
<text text-anchor="middle" x="35" y="-7.5" font-family="Arial.ttf" font-size="10.00">SLEnums.h</text>
</a>
</g>
<!-- Node2&#45;&gt;Node3 -->
<g id="edge4" class="edge"><title>Node2&#45;&gt;Node3</title>
<path fill="none" stroke="midnightblue" d="M941.977,-65.0894C848.794,-65.3082 431.189,-63.7505 81.0241,-20.0832"/>
<polygon fill="midnightblue" stroke="midnightblue" points="81.3041,-16.5908 70.9447,-18.8121 80.4282,-23.5358 81.3041,-16.5908"/>
</g>
<!-- Node4 -->
<g id="node7" class="node"><title>Node4</title>
<polygon fill="white" stroke="#bfbfbf" points="88.5,-0.5 88.5,-19.5 147.5,-19.5 147.5,-0.5 88.5,-0.5"/>
<text text-anchor="middle" x="118" y="-7.5" font-family="Arial.ttf" font-size="10.00">iostream</text>
</g>
<!-- Node2&#45;&gt;Node4 -->
<g id="edge6" class="edge"><title>Node2&#45;&gt;Node4</title>
<path fill="none" stroke="midnightblue" d="M941.86,-65.173C853.431,-65.7153 475.569,-65.2183 158.095,-20.064"/>
<polygon fill="midnightblue" stroke="midnightblue" points="158.172,-16.539 147.775,-18.5772 157.174,-23.4674 158.172,-16.539"/>
</g>
<!-- Node5 -->
<g id="node9" class="node"><title>Node5</title>
<polygon fill="white" stroke="#bfbfbf" points="165.5,-0.5 165.5,-19.5 220.5,-19.5 220.5,-0.5 165.5,-0.5"/>
<text text-anchor="middle" x="193" y="-7.5" font-family="Arial.ttf" font-size="10.00">iomanip</text>
</g>
<!-- Node2&#45;&gt;Node5 -->
<g id="edge8" class="edge"><title>Node2&#45;&gt;Node5</title>
<path fill="none" stroke="midnightblue" d="M941.951,-65.0624C858.73,-65.0794 518.771,-62.4943 230.99,-19.849"/>
<polygon fill="midnightblue" stroke="midnightblue" points="231.184,-16.339 220.775,-18.315 230.145,-23.2613 231.184,-16.339"/>
</g>
<!-- Node6 -->
<g id="node11" class="node"><title>Node6</title>
<polygon fill="white" stroke="#bfbfbf" points="239,-0.5 239,-19.5 295,-19.5 295,-0.5 239,-0.5"/>
<text text-anchor="middle" x="267" y="-7.5" font-family="Arial.ttf" font-size="10.00">sstream</text>
</g>
<!-- Node2&#45;&gt;Node6 -->
<g id="edge10" class="edge"><title>Node2&#45;&gt;Node6</title>
<path fill="none" stroke="midnightblue" d="M941.787,-64.8755C863.65,-64.1223 562.078,-58.8182 305.444,-19.9544"/>
<polygon fill="midnightblue" stroke="midnightblue" points="305.598,-16.4372 295.183,-18.3788 304.535,-23.3561 305.598,-16.4372"/>
</g>
<!-- Node7 -->
<g id="node13" class="node"><title>Node7</title>
<polygon fill="white" stroke="#bfbfbf" points="313,-0.5 313,-19.5 367,-19.5 367,-0.5 313,-0.5"/>
<text text-anchor="middle" x="340" y="-7.5" font-family="Arial.ttf" font-size="10.00">fstream</text>
</g>
<!-- Node2&#45;&gt;Node7 -->
<g id="edge12" class="edge"><title>Node2&#45;&gt;Node7</title>
<path fill="none" stroke="midnightblue" d="M941.923,-64.6959C869.467,-63.2993 604.374,-55.9926 377.134,-19.9031"/>
<polygon fill="midnightblue" stroke="midnightblue" points="377.455,-16.4097 367.025,-18.2744 376.341,-23.3206 377.455,-16.4097"/>
</g>
<!-- Node8 -->
<g id="node15" class="node"><title>Node8</title>
<polygon fill="white" stroke="#bfbfbf" points="385.5,-0.5 385.5,-19.5 432.5,-19.5 432.5,-0.5 385.5,-0.5"/>
<text text-anchor="middle" x="409" y="-7.5" font-family="Arial.ttf" font-size="10.00">vector</text>
</g>
<!-- Node2&#45;&gt;Node8 -->
<g id="edge14" class="edge"><title>Node2&#45;&gt;Node8</title>
<path fill="none" stroke="midnightblue" d="M941.987,-64.5826C874.915,-62.8546 643.089,-54.712 442.793,-19.796"/>
<polygon fill="midnightblue" stroke="midnightblue" points="443.134,-16.302 432.677,-18.0047 441.914,-23.1948 443.134,-16.302"/>
</g>
<!-- Node9 -->
<g id="node17" class="node"><title>Node9</title>
<polygon fill="white" stroke="#bfbfbf" points="451,-0.5 451,-19.5 481,-19.5 481,-0.5 451,-0.5"/>
<text text-anchor="middle" x="466" y="-7.5" font-family="Arial.ttf" font-size="10.00">list</text>
</g>
<!-- Node2&#45;&gt;Node9 -->
<g id="edge16" class="edge"><title>Node2&#45;&gt;Node9</title>
<path fill="none" stroke="midnightblue" d="M941.868,-64.9656C878.498,-64.4811 669.805,-59.9178 490.893,-19.5927"/>
<polygon fill="midnightblue" stroke="midnightblue" points="491.579,-16.1592 481.049,-17.3304 490.011,-22.9814 491.579,-16.1592"/>
</g>
<!-- Node10 -->
<g id="node19" class="node"><title>Node10</title>
<polygon fill="white" stroke="#bfbfbf" points="499.5,-0.5 499.5,-19.5 546.5,-19.5 546.5,-0.5 499.5,-0.5"/>
<text text-anchor="middle" x="523" y="-7.5" font-family="Arial.ttf" font-size="10.00">queue</text>
</g>
<!-- Node2&#45;&gt;Node10 -->
<g id="edge18" class="edge"><title>Node2&#45;&gt;Node10</title>
<path fill="none" stroke="midnightblue" d="M941.808,-63.9917C884.561,-60.751 709.951,-49.1748 556.722,-20.064"/>
<polygon fill="midnightblue" stroke="midnightblue" points="557.144,-16.5808 546.662,-18.1211 555.817,-23.4539 557.144,-16.5808"/>
</g>
<!-- Node11 -->
<g id="node21" class="node"><title>Node11</title>
<polygon fill="white" stroke="#bfbfbf" points="564.5,-0.5 564.5,-19.5 619.5,-19.5 619.5,-0.5 564.5,-0.5"/>
<text text-anchor="middle" x="592" y="-7.5" font-family="Arial.ttf" font-size="10.00">typeinfo</text>
</g>
<!-- Node2&#45;&gt;Node11 -->
<g id="edge20" class="edge"><title>Node2&#45;&gt;Node11</title>
<path fill="none" stroke="midnightblue" d="M941.8,-63.1035C892.013,-58.0376 754.537,-43.1068 629.908,-19.9895"/>
<polygon fill="midnightblue" stroke="midnightblue" points="630.287,-16.4996 619.813,-18.0934 628.995,-23.3793 630.287,-16.4996"/>
</g>
<!-- Node12 -->
<g id="node23" class="node"><title>Node12</title>
<polygon fill="white" stroke="#bfbfbf" points="638,-0.5 638,-19.5 682,-19.5 682,-0.5 638,-0.5"/>
<text text-anchor="middle" x="660" y="-7.5" font-family="Arial.ttf" font-size="10.00">string</text>
</g>
<!-- Node2&#45;&gt;Node12 -->
<g id="edge22" class="edge"><title>Node2&#45;&gt;Node12</title>
<path fill="none" stroke="midnightblue" d="M941.864,-62.5974C898.897,-57.0373 791.368,-42.2021 692.151,-20.0425"/>
<polygon fill="midnightblue" stroke="midnightblue" points="692.796,-16.5999 682.269,-17.8045 691.249,-23.427 692.796,-16.5999"/>
</g>
<!-- Node13 -->
<g id="node25" class="node"><title>Node13</title>
<polygon fill="white" stroke="#bfbfbf" points="700,-0.5 700,-19.5 762,-19.5 762,-0.5 700,-0.5"/>
<text text-anchor="middle" x="731" y="-7.5" font-family="Arial.ttf" font-size="10.00">algorithm</text>
</g>
<!-- Node2&#45;&gt;Node13 -->
<g id="edge24" class="edge"><title>Node2&#45;&gt;Node13</title>
<path fill="none" stroke="midnightblue" d="M941.786,-60.4889C904.616,-51.7619 822.126,-32.3948 772.071,-20.6428"/>
<polygon fill="midnightblue" stroke="midnightblue" points="772.749,-17.2067 762.213,-18.3283 771.149,-24.0214 772.749,-17.2067"/>
</g>
<!-- Node14 -->
<g id="node27" class="node"><title>Node14</title>
<polygon fill="white" stroke="#bfbfbf" points="780,-0.5 780,-19.5 818,-19.5 818,-0.5 780,-0.5"/>
<text text-anchor="middle" x="799" y="-7.5" font-family="Arial.ttf" font-size="10.00">map</text>
</g>
<!-- Node2&#45;&gt;Node14 -->
<g id="edge26" class="edge"><title>Node2&#45;&gt;Node14</title>
<path fill="none" stroke="midnightblue" d="M941.78,-58.5934C913.525,-49.175 860.576,-31.5254 827.703,-20.5676"/>
<polygon fill="midnightblue" stroke="midnightblue" points="828.788,-17.2402 818.195,-17.3982 826.575,-23.881 828.788,-17.2402"/>
</g>
<!-- Node15 -->
<g id="node29" class="node"><title>Node15</title>
<polygon fill="white" stroke="#bfbfbf" points="836,-0.5 836,-19.5 886,-19.5 886,-0.5 836,-0.5"/>
<text text-anchor="middle" x="861" y="-7.5" font-family="Arial.ttf" font-size="10.00">chrono</text>
</g>
<!-- Node2&#45;&gt;Node15 -->
<g id="edge28" class="edge"><title>Node2&#45;&gt;Node15</title>
<path fill="none" stroke="midnightblue" d="M944.933,-56.324C929.042,-47.7428 904.493,-34.486 886.042,-24.5224"/>
<polygon fill="midnightblue" stroke="midnightblue" points="887.489,-21.3264 877.027,-19.6545 884.163,-27.4857 887.489,-21.3264"/>
</g>
<!-- Node16 -->
<g id="node31" class="node"><title>Node16</title>
<polygon fill="white" stroke="#bfbfbf" points="904,-0.5 904,-19.5 952,-19.5 952,-0.5 904,-0.5"/>
<text text-anchor="middle" x="928" y="-7.5" font-family="Arial.ttf" font-size="10.00">thread</text>
</g>
<!-- Node2&#45;&gt;Node16 -->
<g id="edge30" class="edge"><title>Node2&#45;&gt;Node16</title>
<path fill="none" stroke="midnightblue" d="M955.551,-56.083C950.986,-48.6127 944.332,-37.7244 938.707,-28.5199"/>
<polygon fill="midnightblue" stroke="midnightblue" points="941.549,-26.4588 933.348,-19.7511 935.576,-30.109 941.549,-26.4588"/>
</g>
<!-- Node17 -->
<g id="node33" class="node"><title>Node17</title>
<polygon fill="white" stroke="#bfbfbf" points="970,-0.5 970,-19.5 1020,-19.5 1020,-0.5 970,-0.5"/>
<text text-anchor="middle" x="995" y="-7.5" font-family="Arial.ttf" font-size="10.00">atomic</text>
</g>
<!-- Node2&#45;&gt;Node17 -->
<g id="edge32" class="edge"><title>Node2&#45;&gt;Node17</title>
<path fill="none" stroke="midnightblue" d="M966.614,-56.083C971.367,-48.5341 978.318,-37.4948 984.152,-28.2298"/>
<polygon fill="midnightblue" stroke="midnightblue" points="987.124,-30.0783 989.49,-19.7511 981.2,-26.3486 987.124,-30.0783"/>
</g>
<!-- Node18 -->
<g id="node35" class="node"><title>Node18</title>
<polygon fill="white" stroke="#bfbfbf" points="1038.5,-0.5 1038.5,-19.5 1101.5,-19.5 1101.5,-0.5 1038.5,-0.5"/>
<text text-anchor="middle" x="1070" y="-7.5" font-family="Arial.ttf" font-size="10.00">functional</text>
</g>
<!-- Node2&#45;&gt;Node18 -->
<g id="edge34" class="edge"><title>Node2&#45;&gt;Node18</title>
<path fill="none" stroke="midnightblue" d="M978.513,-56.324C996.072,-47.6247 1023.33,-34.1202 1043.53,-24.113"/>
<polygon fill="midnightblue" stroke="midnightblue" points="1045.12,-27.23 1052.53,-19.6545 1042.02,-20.9575 1045.12,-27.23"/>
</g>
<!-- Node19 -->
<g id="node37" class="node"><title>Node19</title>
<polygon fill="white" stroke="#bfbfbf" points="1120,-0.5 1120,-19.5 1174,-19.5 1174,-0.5 1120,-0.5"/>
<text text-anchor="middle" x="1147" y="-7.5" font-family="Arial.ttf" font-size="10.00">random</text>
</g>
<!-- Node2&#45;&gt;Node19 -->
<g id="edge36" class="edge"><title>Node2&#45;&gt;Node19</title>
<path fill="none" stroke="midnightblue" d="M980.205,-59.4244C1010.77,-50.5499 1071.03,-33.0569 1110.13,-21.7044"/>
<polygon fill="midnightblue" stroke="midnightblue" points="1111.2,-25.0385 1119.83,-18.8891 1109.25,-18.3161 1111.2,-25.0385"/>
</g>
<!-- Node20 -->
<g id="node39" class="node"><title>Node20</title>
<polygon fill="white" stroke="#bfbfbf" points="1192.5,-0.5 1192.5,-19.5 1245.5,-19.5 1245.5,-0.5 1192.5,-0.5"/>
<text text-anchor="middle" x="1219" y="-7.5" font-family="Arial.ttf" font-size="10.00">cstdarg</text>
</g>
<!-- Node2&#45;&gt;Node20 -->
<g id="edge38" class="edge"><title>Node2&#45;&gt;Node20</title>
<path fill="none" stroke="midnightblue" d="M980.067,-61.4348C1017.04,-54.4572 1101.28,-38.2535 1182.42,-20.0477"/>
<polygon fill="midnightblue" stroke="midnightblue" points="1183.31,-23.4344 1192.3,-17.8181 1181.77,-16.6062 1183.31,-23.4344"/>
</g>
<!-- Node21 -->
<g id="node41" class="node"><title>Node21</title>
<polygon fill="white" stroke="#bfbfbf" points="1264,-0.5 1264,-19.5 1308,-19.5 1308,-0.5 1264,-0.5"/>
<text text-anchor="middle" x="1286" y="-7.5" font-family="Arial.ttf" font-size="10.00">ctime</text>
</g>
<!-- Node2&#45;&gt;Node21 -->
<g id="edge40" class="edge"><title>Node2&#45;&gt;Node21</title>
<path fill="none" stroke="midnightblue" d="M980.346,-62.8558C1026.1,-57.6106 1144.67,-43.0037 1253.85,-19.771"/>
<polygon fill="midnightblue" stroke="midnightblue" points="1254.67,-23.1745 1263.71,-17.6439 1253.19,-16.332 1254.67,-23.1745"/>
</g>
<!-- Node22 -->
<g id="node43" class="node"><title>Node22</title>
<polygon fill="white" stroke="#bfbfbf" points="1326.5,-0.5 1326.5,-19.5 1375.5,-19.5 1375.5,-0.5 1326.5,-0.5"/>
<text text-anchor="middle" x="1351" y="-7.5" font-family="Arial.ttf" font-size="10.00">stdio.h</text>
</g>
<!-- Node2&#45;&gt;Node22 -->
<g id="edge42" class="edge"><title>Node2&#45;&gt;Node22</title>
<path fill="none" stroke="midnightblue" d="M980.052,-63.4905C1032.23,-59.1681 1181.95,-45.5079 1316.16,-19.9148"/>
<polygon fill="midnightblue" stroke="midnightblue" points="1317.05,-23.3072 1326.21,-17.9709 1315.72,-16.4347 1317.05,-23.3072"/>
</g>
<!-- Node23 -->
<g id="node45" class="node"><title>Node23</title>
<polygon fill="white" stroke="#bfbfbf" points="1393.5,-0.5 1393.5,-19.5 1444.5,-19.5 1444.5,-0.5 1393.5,-0.5"/>
<text text-anchor="middle" x="1419" y="-7.5" font-family="Arial.ttf" font-size="10.00">stdlib.h</text>
</g>
<!-- Node2&#45;&gt;Node23 -->
<g id="edge44" class="edge"><title>Node2&#45;&gt;Node23</title>
<path fill="none" stroke="midnightblue" d="M980.113,-63.9618C1038.83,-60.5647 1221.85,-48.4285 1383.37,-19.8377"/>
<polygon fill="midnightblue" stroke="midnightblue" points="1384.26,-23.2335 1393.48,-18.0201 1383.02,-16.3439 1384.26,-23.2335"/>
</g>
<!-- Node24 -->
<g id="node47" class="node"><title>Node24</title>
<polygon fill="white" stroke="#bfbfbf" points="1462.5,-0.5 1462.5,-19.5 1509.5,-19.5 1509.5,-0.5 1462.5,-0.5"/>
<text text-anchor="middle" x="1486" y="-7.5" font-family="Arial.ttf" font-size="10.00">float.h</text>
</g>
<!-- Node2&#45;&gt;Node24 -->
<g id="edge46" class="edge"><title>Node2&#45;&gt;Node24</title>
<path fill="none" stroke="midnightblue" d="M980.388,-64.4449C1045.64,-62.3234 1263.27,-53.1903 1452.21,-19.8064"/>
<polygon fill="midnightblue" stroke="midnightblue" points="1453.1,-23.2028 1462.32,-17.991 1451.86,-16.3129 1453.1,-23.2028"/>
</g>
<!-- Node25 -->
<g id="node49" class="node"><title>Node25</title>
<polygon fill="white" stroke="#bfbfbf" points="1527.5,-0.5 1527.5,-19.5 1578.5,-19.5 1578.5,-0.5 1527.5,-0.5"/>
<text text-anchor="middle" x="1553" y="-7.5" font-family="Arial.ttf" font-size="10.00">limits.h</text>
</g>
<!-- Node2&#45;&gt;Node25 -->
<g id="edge48" class="edge"><title>Node2&#45;&gt;Node25</title>
<path fill="none" stroke="midnightblue" d="M980.387,-64.632C1051.08,-63.041 1301.67,-55.2209 1517.56,-19.7514"/>
<polygon fill="midnightblue" stroke="midnightblue" points="1518.21,-23.193 1527.49,-18.0963 1517.05,-16.2882 1518.21,-23.193"/>
</g>
<!-- Node26 -->
<g id="node51" class="node"><title>Node26</title>
<polygon fill="white" stroke="#bfbfbf" points="1597,-0.5 1597,-19.5 1653,-19.5 1653,-0.5 1597,-0.5"/>
<text text-anchor="middle" x="1625" y="-7.5" font-family="Arial.ttf" font-size="10.00">assert.h</text>
</g>
<!-- Node2&#45;&gt;Node26 -->
<g id="edge50" class="edge"><title>Node2&#45;&gt;Node26</title>
<path fill="none" stroke="midnightblue" d="M980.075,-64.7448C1056.71,-63.4848 1349.52,-56.4167 1587,-20 1587.1,-19.9846 1587.2,-19.969 1587.3,-19.9534"/>
<polygon fill="midnightblue" stroke="midnightblue" points="1587.68,-23.4435 1596.88,-18.1925 1586.41,-16.5589 1587.68,-23.4435"/>
</g>
<!-- Node27 -->
<g id="node53" class="node"><title>Node27</title>
<polygon fill="white" stroke="#bfbfbf" points="1671.5,-0.5 1671.5,-19.5 1718.5,-19.5 1718.5,-0.5 1671.5,-0.5"/>
<text text-anchor="middle" x="1695" y="-7.5" font-family="Arial.ttf" font-size="10.00">time.h</text>
</g>
<!-- Node2&#45;&gt;Node27 -->
<g id="edge52" class="edge"><title>Node2&#45;&gt;Node27</title>
<path fill="none" stroke="midnightblue" d="M980.042,-64.2991C1075.73,-60.6996 1505.25,-43.6024 1661.04,-19.726"/>
<polygon fill="midnightblue" stroke="midnightblue" points="1662.02,-23.1134 1671.33,-18.0696 1660.91,-16.2023 1662.02,-23.1134"/>
</g>
<!-- Node28 -->
<g id="node55" class="node"><title>Node28</title>
<polygon fill="white" stroke="#bfbfbf" points="1736.5,-0.5 1736.5,-19.5 1799.5,-19.5 1799.5,-0.5 1736.5,-0.5"/>
<text text-anchor="middle" x="1768" y="-7.5" font-family="Arial.ttf" font-size="10.00">sys/stat.h</text>
</g>
<!-- Node2&#45;&gt;Node28 -->
<g id="edge54" class="edge"><title>Node2&#45;&gt;Node28</title>
<path fill="none" stroke="midnightblue" d="M980.06,-64.2882C1081.2,-60.4505 1556.5,-41.6412 1726.29,-19.8153"/>
<polygon fill="midnightblue" stroke="midnightblue" points="1726.86,-23.2702 1736.3,-18.474 1725.93,-16.3321 1726.86,-23.2702"/>
</g>
<!-- Node29 -->
<g id="node57" class="node"><title>Node29</title>
<polygon fill="white" stroke="#bfbfbf" points="1817.5,-0.5 1817.5,-19.5 1868.5,-19.5 1868.5,-0.5 1817.5,-0.5"/>
<text text-anchor="middle" x="1843" y="-7.5" font-family="Arial.ttf" font-size="10.00">math.h</text>
</g>
<!-- Node2&#45;&gt;Node29 -->
<g id="edge56" class="edge"><title>Node2&#45;&gt;Node29</title>
<path fill="none" stroke="midnightblue" d="M980.091,-64.2138C1094.32,-59.4797 1686.25,-34.5282 1807.2,-19.6292"/>
<polygon fill="midnightblue" stroke="midnightblue" points="1807.7,-23.0944 1817.13,-18.2641 1806.74,-16.1598 1807.7,-23.0944"/>
</g>
<!-- Node30 -->
<g id="node59" class="node"><title>Node30</title>
<polygon fill="white" stroke="#bfbfbf" points="1886.5,-0.5 1886.5,-19.5 1939.5,-19.5 1939.5,-0.5 1886.5,-0.5"/>
<text text-anchor="middle" x="1913" y="-7.5" font-family="Arial.ttf" font-size="10.00">string.h</text>
</g>
<!-- Node2&#45;&gt;Node30 -->
<g id="edge58" class="edge"><title>Node2&#45;&gt;Node30</title>
<path fill="none" stroke="midnightblue" d="M980.026,-64.2898C1099.69,-59.7938 1747.16,-35.0335 1876.42,-19.5974"/>
<polygon fill="midnightblue" stroke="midnightblue" points="1876.93,-23.0611 1886.38,-18.2722 1876.01,-16.1223 1876.93,-23.0611"/>
</g>
<!-- Node31&#45;&gt;Node2 -->
<g id="edge62" class="edge"><title>Node31&#45;&gt;Node2</title>
<path fill="none" stroke="midnightblue" d="M855.449,-224.248C859.31,-203.088 871.483,-148.234 899,-112 908.709,-99.215 923.046,-88.4823 935.488,-80.7088"/>
<polygon fill="midnightblue" stroke="midnightblue" points="937.307,-83.6989 944.119,-75.5844 933.734,-77.6798 937.307,-83.6989"/>
</g>
<!-- Node32&#45;&gt;Node2 -->
<g id="edge66" class="edge"><title>Node32&#45;&gt;Node2</title>
<path fill="none" stroke="midnightblue" d="M960.734,-280.427C951.034,-272.275 937.721,-259.046 932,-244 910.931,-188.583 937.242,-117.692 952.111,-84.9969"/>
<polygon fill="midnightblue" stroke="midnightblue" points="955.353,-86.3284 956.462,-75.7917 949.025,-83.3369 955.353,-86.3284"/>
</g>
<!-- Node32&#45;&gt;Node31 -->
<g id="edge68" class="edge"><title>Node32&#45;&gt;Node31</title>
<path fill="none" stroke="midnightblue" d="M953.303,-280.444C934.056,-271.636 903.848,-257.812 881.8,-247.722"/>
<polygon fill="midnightblue" stroke="midnightblue" points="883.16,-244.495 872.61,-243.516 880.247,-250.86 883.16,-244.495"/>
</g>
<!-- Node33 -->
<g id="node68" class="node"><title>Node33</title>
<a xlink:href="_s_l_mat3_8h.html" target="_top" xlink:title="SLMat3.h">
<polygon fill="white" stroke="black" points="941,-224.5 941,-243.5 1003,-243.5 1003,-224.5 941,-224.5"/>
<text text-anchor="middle" x="972" y="-231.5" font-family="Arial.ttf" font-size="10.00">SLMat3.h</text>
</a>
</g>
<!-- Node32&#45;&gt;Node33 -->
<g id="edge70" class="edge"><title>Node32&#45;&gt;Node33</title>
<path fill="none" stroke="midnightblue" d="M972,-280.083C972,-273.006 972,-262.861 972,-253.986"/>
<polygon fill="midnightblue" stroke="midnightblue" points="975.5,-253.751 972,-243.751 968.5,-253.751 975.5,-253.751"/>
</g>
<!-- Node32&#45;&gt;Node39 -->
<g id="edge88" class="edge"><title>Node32&#45;&gt;Node39</title>
<path fill="none" stroke="midnightblue" d="M1003.23,-286.006C1063.21,-280.04 1198.89,-265.512 1322.59,-244.109"/>
<polygon fill="midnightblue" stroke="midnightblue" points="1323.37,-247.527 1332.61,-242.355 1322.16,-240.632 1323.37,-247.527"/>
</g>
<!-- Node40 -->
<g id="node88" class="node"><title>Node40</title>
<polygon fill="white" stroke="#bfbfbf" points="1021.5,-224.5 1021.5,-243.5 1158.5,-243.5 1158.5,-224.5 1021.5,-224.5"/>
<text text-anchor="middle" x="1090" y="-231.5" font-family="Arial.ttf" font-size="10.00">Shoemake/EulerAngles.h</text>
</g>
<!-- Node32&#45;&gt;Node40 -->
<g id="edge96" class="edge"><title>Node32&#45;&gt;Node40</title>
<path fill="none" stroke="midnightblue" d="M990.697,-280.444C1009.94,-271.636 1040.15,-257.812 1062.2,-247.722"/>
<polygon fill="midnightblue" stroke="midnightblue" points="1063.75,-250.86 1071.39,-243.516 1060.84,-244.495 1063.75,-250.86"/>
</g>
<!-- Node41 -->
<g id="node90" class="node"><title>Node41</title>
<polygon fill="white" stroke="#bfbfbf" points="1177,-224.5 1177,-243.5 1315,-243.5 1315,-224.5 1177,-224.5"/>
<text text-anchor="middle" x="1246" y="-231.5" font-family="Arial.ttf" font-size="10.00">Shoemake/Decompose.h</text>
</g>
<!-- Node32&#45;&gt;Node41 -->
<g id="edge98" class="edge"><title>Node32&#45;&gt;Node41</title>
<path fill="none" stroke="midnightblue" d="M1003.16,-282.858C1049.25,-273.776 1136.18,-256.643 1192.56,-245.531"/>
<polygon fill="midnightblue" stroke="midnightblue" points="1193.58,-248.897 1202.72,-243.53 1192.23,-242.03 1193.58,-248.897"/>
</g>
<!-- Node33&#45;&gt;Node2 -->
<g id="edge72" class="edge"><title>Node33&#45;&gt;Node2</title>
<path fill="none" stroke="midnightblue" d="M971.409,-224.075C969.677,-197.945 964.592,-121.211 962.231,-85.577"/>
<polygon fill="midnightblue" stroke="midnightblue" points="965.721,-85.3148 961.568,-75.5681 958.737,-85.7777 965.721,-85.3148"/>
</g>
<!-- Node34 -->
<g id="node71" class="node"><title>Node34</title>
<a xlink:href="_s_l_vec3_8h.html" target="_top" xlink:title="SLVec3.h">
<polygon fill="white" stroke="black" points="1027,-168.5 1027,-187.5 1089,-187.5 1089,-168.5 1027,-168.5"/>
<text text-anchor="middle" x="1058" y="-175.5" font-family="Arial.ttf" font-size="10.00">SLVec3.h</text>
</a>
</g>
<!-- Node33&#45;&gt;Node34 -->
<g id="edge74" class="edge"><title>Node33&#45;&gt;Node34</title>
<path fill="none" stroke="midnightblue" d="M985.817,-224.324C999.233,-215.9 1019.82,-202.971 1035.59,-193.074"/>
<polygon fill="midnightblue" stroke="midnightblue" points="1037.61,-195.936 1044.22,-187.655 1033.89,-190.008 1037.61,-195.936"/>
</g>
<!-- Node34&#45;&gt;Node2 -->
<g id="edge76" class="edge"><title>Node34&#45;&gt;Node2</title>
<path fill="none" stroke="midnightblue" d="M1050.31,-168.388C1042.25,-159.342 1029.21,-144.694 1018,-132 1003.5,-115.571 986.993,-96.7373 975.491,-83.5867"/>
<polygon fill="midnightblue" stroke="midnightblue" points="977.942,-81.073 968.726,-75.8479 972.672,-85.6802 977.942,-81.073"/>
</g>
<!-- Node35 -->
<g id="node74" class="node"><title>Node35</title>
<a xlink:href="_s_l_vec2_8h.html" target="_top" xlink:title="SLVec2.h">
<polygon fill="white" stroke="black" points="1027,-112.5 1027,-131.5 1089,-131.5 1089,-112.5 1027,-112.5"/>
<text text-anchor="middle" x="1058" y="-119.5" font-family="Arial.ttf" font-size="10.00">SLVec2.h</text>
</a>
</g>
<!-- Node34&#45;&gt;Node35 -->
<g id="edge78" class="edge"><title>Node34&#45;&gt;Node35</title>
<path fill="none" stroke="midnightblue" d="M1058,-168.083C1058,-161.006 1058,-150.861 1058,-141.986"/>
<polygon fill="midnightblue" stroke="midnightblue" points="1061.5,-141.751 1058,-131.751 1054.5,-141.751 1061.5,-141.751"/>
</g>
<!-- Node36 -->
<g id="node77" class="node"><title>Node36</title>
<a xlink:href="_s_l_utils_8h.html" target="_top" xlink:title="SLUtils.h">
<polygon fill="white" stroke="black" points="1269.5,-112.5 1269.5,-131.5 1328.5,-131.5 1328.5,-112.5 1269.5,-112.5"/>
<text text-anchor="middle" x="1299" y="-119.5" font-family="Arial.ttf" font-size="10.00">SLUtils.h</text>
</a>
</g>
<!-- Node34&#45;&gt;Node36 -->
<g id="edge82" class="edge"><title>Node34&#45;&gt;Node36</title>
<path fill="none" stroke="midnightblue" d="M1089.01,-170.051C1132.48,-160.311 1211.54,-142.597 1259.27,-131.903"/>
<polygon fill="midnightblue" stroke="midnightblue" points="1260.25,-135.27 1269.24,-129.668 1258.72,-128.439 1260.25,-135.27"/>
</g>
<!-- Node35&#45;&gt;Node2 -->
<g id="edge80" class="edge"><title>Node35&#45;&gt;Node2</title>
<path fill="none" stroke="midnightblue" d="M1042.42,-112.324C1027,-103.743 1003.19,-90.486 985.29,-80.5224"/>
<polygon fill="midnightblue" stroke="midnightblue" points="986.986,-77.4606 976.546,-75.6545 983.581,-83.5767 986.986,-77.4606"/>
</g>
<!-- Node37 -->
<g id="node79" class="node"><title>Node37</title>
<polygon fill="white" stroke="#bfbfbf" points="1235.5,-56.5 1235.5,-75.5 1290.5,-75.5 1290.5,-56.5 1235.5,-56.5"/>
<text text-anchor="middle" x="1263" y="-63.5" font-family="Arial.ttf" font-size="10.00">stdafx.h</text>
</g>
<!-- Node36&#45;&gt;Node37 -->
<g id="edge84" class="edge"><title>Node36&#45;&gt;Node37</title>
<path fill="none" stroke="midnightblue" d="M1293.06,-112.083C1288.02,-104.534 1280.66,-93.4948 1274.49,-84.2298"/>
<polygon fill="midnightblue" stroke="midnightblue" points="1277.29,-82.1301 1268.83,-75.7511 1271.47,-86.0131 1277.29,-82.1301"/>
</g>
<!-- Node38 -->
<g id="node81" class="node"><title>Node38</title>
<polygon fill="white" stroke="#bfbfbf" points="1308.5,-56.5 1308.5,-75.5 1361.5,-75.5 1361.5,-56.5 1308.5,-56.5"/>
<text text-anchor="middle" x="1335" y="-63.5" font-family="Arial.ttf" font-size="10.00">dirent.h</text>
</g>
<!-- Node36&#45;&gt;Node38 -->
<g id="edge86" class="edge"><title>Node36&#45;&gt;Node38</title>
<path fill="none" stroke="midnightblue" d="M1304.94,-112.083C1309.98,-104.534 1317.34,-93.4948 1323.51,-84.2298"/>
<polygon fill="midnightblue" stroke="midnightblue" points="1326.53,-86.0131 1329.17,-75.7511 1320.71,-82.1301 1326.53,-86.0131"/>
</g>
<!-- Node39&#45;&gt;Node2 -->
<g id="edge90" class="edge"><title>Node39&#45;&gt;Node2</title>
<path fill="none" stroke="midnightblue" d="M1346.85,-224.404C1304.99,-203.591 1193.94,-149.448 1098,-112 1061.4,-97.7131 1018.18,-84.0301 990.219,-75.5806"/>
<polygon fill="midnightblue" stroke="midnightblue" points="990.878,-72.1245 980.294,-72.6081 988.87,-78.8302 990.878,-72.1245"/>
</g>
<!-- Node39&#45;&gt;Node34 -->
<g id="edge92" class="edge"><title>Node39&#45;&gt;Node34</title>
<path fill="none" stroke="midnightblue" d="M1332.59,-225.766C1329.69,-225.148 1326.79,-224.55 1324,-224 1244.73,-208.389 1151.51,-193.384 1099.14,-185.257"/>
<polygon fill="midnightblue" stroke="midnightblue" points="1099.64,-181.793 1089.22,-183.725 1098.57,-188.711 1099.64,-181.793"/>
</g>
<!-- Node39&#45;&gt;Node36 -->
<g id="edge94" class="edge"><title>Node39&#45;&gt;Node36</title>
<path fill="none" stroke="midnightblue" d="M1358.9,-224.368C1348.22,-206.296 1323.33,-164.176 1309.23,-140.307"/>
<polygon fill="midnightblue" stroke="midnightblue" points="1312.18,-138.42 1304.08,-131.591 1306.15,-141.981 1312.18,-138.42"/>
</g>
</g>
</svg>
