<?xml version="1.0" encoding="UTF-8" standalone="no"?>
<!DOCTYPE svg PUBLIC "-//W3C//DTD SVG 1.1//EN"
 "http://www.w3.org/Graphics/SVG/1.1/DTD/svg11.dtd">
<!-- Generated by graphviz version 2.28.0 (20110507.0327)
 -->
<!-- Title: SLRaytracer.h Pages: 1 -->
<svg width="2078pt" height="308pt"
 viewBox="0.00 0.00 2078.38 308.00" xmlns="http://www.w3.org/2000/svg" xmlns:xlink="http://www.w3.org/1999/xlink">
<g id="graph1" class="graph" transform="scale(1 1) rotate(0) translate(4 304)">
<title>SLRaytracer.h</title>
<polygon fill="white" stroke="white" points="-4,5 -4,-304 2075.38,-304 2075.38,5 -4,5"/>
<!-- Node1 -->
<g id="node1" class="node"><title>Node1</title>
<polygon fill="#bfbfbf" stroke="black" points="217.5,-280.5 217.5,-299.5 300.5,-299.5 300.5,-280.5 217.5,-280.5"/>
<text text-anchor="middle" x="259" y="-287.5" font-family="Arial.ttf" font-size="10.00">SLRaytracer.h</text>
</g>
<!-- Node2 -->
<g id="node3" class="node"><title>Node2</title>
<a xlink:href="_s_l_mesh_8cpp.html" target="_top" xlink:title="SLMesh.cpp">
<polygon fill="white" stroke="black" points="0,-112.5 0,-131.5 74,-131.5 74,-112.5 0,-112.5"/>
<text text-anchor="middle" x="37" y="-119.5" font-family="Arial.ttf" font-size="10.00">SLMesh.cpp</text>
</a>
</g>
<!-- Node1&#45;&gt;Node2 -->
<g id="edge2" class="edge"><title>Node1&#45;&gt;Node2</title>
<path fill="none" stroke="midnightblue" d="M239.241,-274.225C194.054,-240.437 84.315,-158.38 48.5081,-131.605"/>
<polygon fill="midnightblue" stroke="midnightblue" points="237.272,-277.123 247.377,-280.309 241.464,-271.517 237.272,-277.123"/>
</g>
<!-- Node3 -->
<g id="node5" class="node"><title>Node3</title>
<a xlink:href="_s_l_raytracer_8cpp.html" target="_top" xlink:title="SLRaytracer.cpp">
<polygon fill="white" stroke="black" points="92.5,-112.5 92.5,-131.5 187.5,-131.5 187.5,-112.5 92.5,-112.5"/>
<text text-anchor="middle" x="140" y="-119.5" font-family="Arial.ttf" font-size="10.00">SLRaytracer.cpp</text>
</a>
</g>
<!-- Node1&#45;&gt;Node3 -->
<g id="edge4" class="edge"><title>Node1&#45;&gt;Node3</title>
<path fill="none" stroke="midnightblue" d="M246.643,-271.763C221.43,-236.592 164.858,-157.676 146.142,-131.568"/>
<polygon fill="midnightblue" stroke="midnightblue" points="243.931,-273.987 252.602,-280.075 249.62,-269.908 243.931,-273.987"/>
</g>
<!-- Node4 -->
<g id="node7" class="node"><title>Node4</title>
<a xlink:href="_s_l_uniform_grid_8cpp.html" target="_top" xlink:title="SLUniformGrid.cpp">
<polygon fill="white" stroke="black" points="205.5,-112.5 205.5,-131.5 312.5,-131.5 312.5,-112.5 205.5,-112.5"/>
<text text-anchor="middle" x="259" y="-119.5" font-family="Arial.ttf" font-size="10.00">SLUniformGrid.cpp</text>
</a>
</g>
<!-- Node1&#45;&gt;Node4 -->
<g id="edge6" class="edge"><title>Node1&#45;&gt;Node4</title>
<path fill="none" stroke="midnightblue" d="M259,-269.93C259,-233.92 259,-157.231 259,-131.568"/>
<polygon fill="midnightblue" stroke="midnightblue" points="255.5,-270.075 259,-280.075 262.5,-270.075 255.5,-270.075"/>
</g>
<!-- Node5 -->
<g id="node9" class="node"><title>Node5</title>
<a xlink:href="_s_l_pathtracer_8h.html" target="_top" xlink:title="SLPathtracer.h">
<polygon fill="white" stroke="black" points="336,-224.5 336,-243.5 424,-243.5 424,-224.5 336,-224.5"/>
<text text-anchor="middle" x="380" y="-231.5" font-family="Arial.ttf" font-size="10.00">SLPathtracer.h</text>
</a>
</g>
<!-- Node1&#45;&gt;Node5 -->
<g id="edge8" class="edge"><title>Node1&#45;&gt;Node5</title>
<path fill="none" stroke="midnightblue" d="M287.306,-276.368C309.965,-266.255 341.126,-252.349 360.917,-243.516"/>
<polygon fill="midnightblue" stroke="midnightblue" points="285.878,-273.172 278.173,-280.444 288.731,-279.564 285.878,-273.172"/>
</g>
<!-- Node7 -->
<g id="node13" class="node"><title>Node7</title>
<a xlink:href="_s_l_scene_view_8h.html" target="_top" xlink:title="SLSceneView.h">
<polygon fill="white" stroke="black" points="809.5,-168.5 809.5,-187.5 898.5,-187.5 898.5,-168.5 809.5,-168.5"/>
<text text-anchor="middle" x="854" y="-175.5" font-family="Arial.ttf" font-size="10.00">SLSceneView.h</text>
</a>
</g>
<!-- Node1&#45;&gt;Node7 -->
<g id="edge82" class="edge"><title>Node1&#45;&gt;Node7</title>
<path fill="none" stroke="midnightblue" d="M310.816,-279.421C425.936,-258.138 701.322,-207.226 809.391,-187.247"/>
<polygon fill="midnightblue" stroke="midnightblue" points="310.036,-276.005 300.839,-281.265 311.309,-282.889 310.036,-276.005"/>
</g>
<!-- Node6 -->
<g id="node11" class="node"><title>Node6</title>
<a xlink:href="_s_l_pathtracer_8cpp.html" target="_top" xlink:title="SLPathtracer.cpp">
<polygon fill="white" stroke="black" points="330.5,-112.5 330.5,-131.5 429.5,-131.5 429.5,-112.5 330.5,-112.5"/>
<text text-anchor="middle" x="380" y="-119.5" font-family="Arial.ttf" font-size="10.00">SLPathtracer.cpp</text>
</a>
</g>
<!-- Node5&#45;&gt;Node6 -->
<g id="edge10" class="edge"><title>Node5&#45;&gt;Node6</title>
<path fill="none" stroke="midnightblue" d="M380,-214.348C380,-190.254 380,-149.308 380,-131.591"/>
<polygon fill="midnightblue" stroke="midnightblue" points="376.5,-214.368 380,-224.368 383.5,-214.369 376.5,-214.368"/>
</g>
<!-- Node5&#45;&gt;Node7 -->
<g id="edge12" class="edge"><title>Node5&#45;&gt;Node7</title>
<path fill="none" stroke="midnightblue" d="M434.382,-226.805C529.003,-216.025 722.15,-194.021 809.427,-184.078"/>
<polygon fill="midnightblue" stroke="midnightblue" points="433.707,-223.359 424.167,-227.968 434.499,-230.314 433.707,-223.359"/>
</g>
<!-- Node7&#45;&gt;Node2 -->
<g id="edge36" class="edge"><title>Node7&#45;&gt;Node2</title>
<path fill="none" stroke="midnightblue" d="M799.276,-176.337C672.716,-174.253 350.182,-165.778 83,-132 80.0936,-131.633 77.095,-131.19 74.0875,-130.702"/>
<polygon fill="midnightblue" stroke="midnightblue" points="799.426,-179.84 809.48,-176.498 799.537,-172.841 799.426,-179.84"/>
</g>
<!-- Node7&#45;&gt;Node3 -->
<g id="edge42" class="edge"><title>Node7&#45;&gt;Node3</title>
<path fill="none" stroke="midnightblue" d="M799.053,-174.935C685.912,-170.311 418.843,-157.473 196,-132 193.261,-131.687 190.451,-131.335 187.618,-130.955"/>
<polygon fill="midnightblue" stroke="midnightblue" points="799.061,-178.438 809.194,-175.344 799.343,-171.444 799.061,-178.438"/>
</g>
<!-- Node7&#45;&gt;Node4 -->
<g id="edge50" class="edge"><title>Node7&#45;&gt;Node4</title>
<path fill="none" stroke="midnightblue" d="M799.213,-173.462C702.499,-166.975 495.248,-151.985 321,-132 318.299,-131.69 315.533,-131.355 312.743,-131.002"/>
<polygon fill="midnightblue" stroke="midnightblue" points="799.127,-176.964 809.337,-174.137 799.593,-169.98 799.127,-176.964"/>
</g>
<!-- Node7&#45;&gt;Node6 -->
<g id="edge40" class="edge"><title>Node7&#45;&gt;Node6</title>
<path fill="none" stroke="midnightblue" d="M799.193,-171.519C720.503,-163.529 570.991,-147.894 444,-132 439.324,-131.415 434.459,-130.779 429.594,-130.126"/>
<polygon fill="midnightblue" stroke="midnightblue" points="799.054,-175.023 809.356,-172.549 799.759,-168.059 799.054,-175.023"/>
</g>
<!-- Node8 -->
<g id="node15" class="node"><title>Node8</title>
<a xlink:href="_s_l_c_v_capture_8cpp.html" target="_top" xlink:title="SLCVCapture.cpp">
<polygon fill="white" stroke="black" points="1716.5,-112.5 1716.5,-131.5 1817.5,-131.5 1817.5,-112.5 1716.5,-112.5"/>
<text text-anchor="middle" x="1767" y="-119.5" font-family="Arial.ttf" font-size="10.00">SLCVCapture.cpp</text>
</a>
</g>
<!-- Node7&#45;&gt;Node8 -->
<g id="edge14" class="edge"><title>Node7&#45;&gt;Node8</title>
<path fill="none" stroke="midnightblue" d="M908.64,-175.939C1044.15,-172.911 1406.46,-162.396 1707,-132 1710.04,-131.693 1713.16,-131.339 1716.3,-130.955"/>
<polygon fill="midnightblue" stroke="midnightblue" points="908.437,-172.442 898.516,-176.16 908.59,-179.441 908.437,-172.442"/>
</g>
<!-- Node9 -->
<g id="node17" class="node"><title>Node9</title>
<a xlink:href="_s_l_c_v_tracker_aruco_8cpp.html" target="_top" xlink:title="SLCVTrackerAruco.cpp">
<polygon fill="white" stroke="black" points="1285.5,-0.5 1285.5,-19.5 1410.5,-19.5 1410.5,-0.5 1285.5,-0.5"/>
<text text-anchor="middle" x="1348" y="-7.5" font-family="Arial.ttf" font-size="10.00">SLCVTrackerAruco.cpp</text>
</a>
</g>
<!-- Node7&#45;&gt;Node9 -->
<g id="edge16" class="edge"><title>Node7&#45;&gt;Node9</title>
<path fill="none" stroke="midnightblue" d="M908.542,-176.533C1108.88,-174.555 1794.15,-165.364 1826,-132 1885.74,-69.4274 1553.17,-30.233 1410.54,-16.5075"/>
<polygon fill="midnightblue" stroke="midnightblue" points="908.503,-173.033 898.538,-176.63 908.571,-180.033 908.503,-173.033"/>
</g>
<!-- Node10 -->
<g id="node19" class="node"><title>Node10</title>
<a xlink:href="_s_l_8cpp.html" target="_top" xlink:title="SL.cpp">
<polygon fill="white" stroke="black" points="628.5,-112.5 628.5,-131.5 677.5,-131.5 677.5,-112.5 628.5,-112.5"/>
<text text-anchor="middle" x="653" y="-119.5" font-family="Arial.ttf" font-size="10.00">SL.cpp</text>
</a>
</g>
<!-- Node7&#45;&gt;Node10 -->
<g id="edge18" class="edge"><title>Node7&#45;&gt;Node10</title>
<path fill="none" stroke="midnightblue" d="M812.277,-165.791C771.652,-154.877 711.271,-138.655 677.73,-129.644"/>
<polygon fill="midnightblue" stroke="midnightblue" points="811.585,-169.229 822.151,-168.444 813.402,-162.469 811.585,-169.229"/>
</g>
<!-- Node11 -->
<g id="node21" class="node"><title>Node11</title>
<a xlink:href="_s_l_interface_8cpp.html" target="_top" xlink:title="SLProject C&#45;functions interface implementation.">
<polygon fill="white" stroke="black" points="695.5,-112.5 695.5,-131.5 786.5,-131.5 786.5,-112.5 695.5,-112.5"/>
<text text-anchor="middle" x="741" y="-119.5" font-family="Arial.ttf" font-size="10.00">SLInterface.cpp</text>
</a>
</g>
<!-- Node7&#45;&gt;Node11 -->
<g id="edge20" class="edge"><title>Node7&#45;&gt;Node11</title>
<path fill="none" stroke="midnightblue" d="M826.997,-164.096C805.886,-154.007 777.138,-140.27 758.821,-131.516"/>
<polygon fill="midnightblue" stroke="midnightblue" points="825.563,-167.29 836.095,-168.444 828.581,-160.974 825.563,-167.29"/>
</g>
<!-- Node12 -->
<g id="node23" class="node"><title>Node12</title>
<a xlink:href="_s_l_anim_track_8cpp.html" target="_top" xlink:title="SLAnimTrack.cpp">
<polygon fill="white" stroke="black" points="804.5,-112.5 804.5,-131.5 903.5,-131.5 903.5,-112.5 804.5,-112.5"/>
<text text-anchor="middle" x="854" y="-119.5" font-family="Arial.ttf" font-size="10.00">SLAnimTrack.cpp</text>
</a>
</g>
<!-- Node7&#45;&gt;Node12 -->
<g id="edge22" class="edge"><title>Node7&#45;&gt;Node12</title>
<path fill="none" stroke="midnightblue" d="M854,-157.805C854,-148.91 854,-138.78 854,-131.751"/>
<polygon fill="midnightblue" stroke="midnightblue" points="850.5,-158.083 854,-168.083 857.5,-158.083 850.5,-158.083"/>
</g>
<!-- Node13 -->
<g id="node25" class="node"><title>Node13</title>
<a xlink:href="_s_l_camera_8cpp.html" target="_top" xlink:title="SLCamera.cpp">
<polygon fill="white" stroke="black" points="921.5,-112.5 921.5,-131.5 1008.5,-131.5 1008.5,-112.5 921.5,-112.5"/>
<text text-anchor="middle" x="965" y="-119.5" font-family="Arial.ttf" font-size="10.00">SLCamera.cpp</text>
</a>
</g>
<!-- Node7&#45;&gt;Node13 -->
<g id="edge24" class="edge"><title>Node7&#45;&gt;Node13</title>
<path fill="none" stroke="midnightblue" d="M881.005,-163.862C901.588,-153.849 929.345,-140.346 947.21,-131.655"/>
<polygon fill="midnightblue" stroke="midnightblue" points="879.295,-160.802 871.834,-168.324 882.358,-167.097 879.295,-160.802"/>
</g>
<!-- Node14 -->
<g id="node27" class="node"><title>Node14</title>
<a xlink:href="_s_l_input_manager_8cpp.html" target="_top" xlink:title="SLInputManager.cpp">
<polygon fill="white" stroke="black" points="1026.5,-112.5 1026.5,-131.5 1141.5,-131.5 1141.5,-112.5 1026.5,-112.5"/>
<text text-anchor="middle" x="1084" y="-119.5" font-family="Arial.ttf" font-size="10.00">SLInputManager.cpp</text>
</a>
</g>
<!-- Node7&#45;&gt;Node14 -->
<g id="edge26" class="edge"><title>Node7&#45;&gt;Node14</title>
<path fill="none" stroke="midnightblue" d="M900.201,-166.153C943.658,-155.95 1007.84,-140.881 1047.73,-131.516"/>
<polygon fill="midnightblue" stroke="midnightblue" points="899.379,-162.75 890.444,-168.444 900.979,-169.565 899.379,-162.75"/>
</g>
<!-- Node15 -->
<g id="node29" class="node"><title>Node15</title>
<a xlink:href="_s_l_light_direct_8cpp.html" target="_top" xlink:title="SLLightDirect.cpp">
<polygon fill="white" stroke="black" points="1159.5,-112.5 1159.5,-131.5 1260.5,-131.5 1260.5,-112.5 1159.5,-112.5"/>
<text text-anchor="middle" x="1210" y="-119.5" font-family="Arial.ttf" font-size="10.00">SLLightDirect.cpp</text>
</a>
</g>
<!-- Node7&#45;&gt;Node15 -->
<g id="edge28" class="edge"><title>Node7&#45;&gt;Node15</title>
<path fill="none" stroke="midnightblue" d="M908.868,-168.677C977.238,-158.307 1093.13,-140.727 1159.43,-130.67"/>
<polygon fill="midnightblue" stroke="midnightblue" points="908.089,-165.255 898.727,-170.216 909.139,-172.176 908.089,-165.255"/>
</g>
<!-- Node16 -->
<g id="node31" class="node"><title>Node16</title>
<a xlink:href="_s_l_light_rect_8cpp.html" target="_top" xlink:title="SLLightRect.cpp">
<polygon fill="white" stroke="black" points="1278.5,-112.5 1278.5,-131.5 1371.5,-131.5 1371.5,-112.5 1278.5,-112.5"/>
<text text-anchor="middle" x="1325" y="-119.5" font-family="Arial.ttf" font-size="10.00">SLLightRect.cpp</text>
</a>
</g>
<!-- Node7&#45;&gt;Node16 -->
<g id="edge30" class="edge"><title>Node7&#45;&gt;Node16</title>
<path fill="none" stroke="midnightblue" d="M908.883,-171.954C988.418,-164.436 1140.29,-149.31 1269,-132 1272.03,-131.593 1275.14,-131.153 1278.28,-130.693"/>
<polygon fill="midnightblue" stroke="midnightblue" points="908.244,-168.499 898.616,-172.92 908.9,-175.468 908.244,-168.499"/>
</g>
<!-- Node17 -->
<g id="node33" class="node"><title>Node17</title>
<a xlink:href="_s_l_light_spot_8cpp.html" target="_top" xlink:title="SLLightSpot.cpp">
<polygon fill="white" stroke="black" points="1389.5,-112.5 1389.5,-131.5 1484.5,-131.5 1484.5,-112.5 1389.5,-112.5"/>
<text text-anchor="middle" x="1437" y="-119.5" font-family="Arial.ttf" font-size="10.00">SLLightSpot.cpp</text>
</a>
</g>
<!-- Node7&#45;&gt;Node17 -->
<g id="edge32" class="edge"><title>Node7&#45;&gt;Node17</title>
<path fill="none" stroke="midnightblue" d="M908.827,-173.601C1004.62,-167.375 1208.6,-152.836 1380,-132 1383.08,-131.625 1386.26,-131.209 1389.45,-130.767"/>
<polygon fill="midnightblue" stroke="midnightblue" points="908.547,-170.112 898.793,-174.249 908.998,-177.098 908.547,-170.112"/>
</g>
<!-- Node18 -->
<g id="node35" class="node"><title>Node18</title>
<a xlink:href="_s_l_material_8cpp.html" target="_top" xlink:title="SLMaterial.cpp">
<polygon fill="white" stroke="black" points="1502.5,-112.5 1502.5,-131.5 1589.5,-131.5 1589.5,-112.5 1502.5,-112.5"/>
<text text-anchor="middle" x="1546" y="-119.5" font-family="Arial.ttf" font-size="10.00">SLMaterial.cpp</text>
</a>
</g>
<!-- Node7&#45;&gt;Node18 -->
<g id="edge34" class="edge"><title>Node7&#45;&gt;Node18</title>
<path fill="none" stroke="midnightblue" d="M908.943,-174.945C1019.73,-170.401 1277.72,-157.796 1493,-132 1496.06,-131.634 1499.21,-131.212 1502.38,-130.756"/>
<polygon fill="midnightblue" stroke="midnightblue" points="908.538,-171.458 898.687,-175.359 908.821,-178.452 908.538,-171.458"/>
</g>
<!-- Node19 -->
<g id="node38" class="node"><title>Node19</title>
<a xlink:href="_s_l_node_8cpp.html" target="_top" xlink:title="SLNode.cpp">
<polygon fill="white" stroke="black" points="934,-56.5 934,-75.5 1008,-75.5 1008,-56.5 934,-56.5"/>
<text text-anchor="middle" x="971" y="-63.5" font-family="Arial.ttf" font-size="10.00">SLNode.cpp</text>
</a>
</g>
<!-- Node7&#45;&gt;Node19 -->
<g id="edge38" class="edge"><title>Node7&#45;&gt;Node19</title>
<path fill="none" stroke="midnightblue" d="M799.391,-174.357C737.248,-170.072 641.439,-159.144 619,-132 613.336,-125.149 613.1,-118.648 619,-112 663.717,-61.6162 853.36,-85.8574 920,-76 924.536,-75.329 929.289,-74.5682 933.992,-73.78"/>
<polygon fill="midnightblue" stroke="midnightblue" points="799.231,-177.854 809.438,-175.013 799.687,-170.869 799.231,-177.854"/>
</g>
<!-- Node20 -->
<g id="node42" class="node"><title>Node20</title>
<a xlink:href="_s_l_scene_8cpp.html" target="_top" xlink:title="SLScene.cpp">
<polygon fill="white" stroke="black" points="1647.5,-0.5 1647.5,-19.5 1726.5,-19.5 1726.5,-0.5 1647.5,-0.5"/>
<text text-anchor="middle" x="1687" y="-7.5" font-family="Arial.ttf" font-size="10.00">SLScene.cpp</text>
</a>
</g>
<!-- Node7&#45;&gt;Node20 -->
<g id="edge44" class="edge"><title>Node7&#45;&gt;Node20</title>
<path fill="none" stroke="midnightblue" d="M908.684,-176.086C1116.62,-172.429 1851.47,-157.79 1953,-132 2007.71,-118.102 2037.15,-123.914 2067,-76 2103.71,-17.0595 1831.26,-10.963 1726.7,-10.7685"/>
<polygon fill="midnightblue" stroke="midnightblue" points="908.546,-172.588 898.609,-176.262 908.668,-179.587 908.546,-172.588"/>
</g>
<!-- Node21 -->
<g id="node44" class="node"><title>Node21</title>
<a xlink:href="_s_l_scene__on_load_8cpp.html" target="_top" xlink:title="SLScene_onLoad.cpp">
<polygon fill="white" stroke="black" points="536.5,-0.5 536.5,-19.5 655.5,-19.5 655.5,-0.5 536.5,-0.5"/>
<text text-anchor="middle" x="596" y="-7.5" font-family="Arial.ttf" font-size="10.00">SLScene_onLoad.cpp</text>
</a>
</g>
<!-- Node7&#45;&gt;Node21 -->
<g id="edge46" class="edge"><title>Node7&#45;&gt;Node21</title>
<path fill="none" stroke="midnightblue" d="M799.34,-174.422C699.981,-169.171 498.027,-155.686 477,-132 454.576,-106.74 457.799,-83.7893 477,-56 490.56,-36.3746 513.859,-25.2991 536.265,-19.0524"/>
<polygon fill="midnightblue" stroke="midnightblue" points="799.323,-177.925 809.491,-174.948 799.685,-170.935 799.323,-177.925"/>
</g>
<!-- Node22 -->
<g id="node46" class="node"><title>Node22</title>
<a xlink:href="_s_l_skeleton_8cpp.html" target="_top" xlink:title="SLSkeleton.cpp">
<polygon fill="white" stroke="black" points="1607.5,-112.5 1607.5,-131.5 1698.5,-131.5 1698.5,-112.5 1607.5,-112.5"/>
<text text-anchor="middle" x="1653" y="-119.5" font-family="Arial.ttf" font-size="10.00">SLSkeleton.cpp</text>
</a>
</g>
<!-- Node7&#45;&gt;Node22 -->
<g id="edge48" class="edge"><title>Node7&#45;&gt;Node22</title>
<path fill="none" stroke="midnightblue" d="M908.898,-175.592C1032.36,-172.006 1341.21,-160.701 1598,-132 1601.08,-131.656 1604.24,-131.258 1607.43,-130.823"/>
<polygon fill="midnightblue" stroke="midnightblue" points="908.477,-172.102 898.581,-175.886 908.677,-179.099 908.477,-172.102"/>
</g>
<!-- Node23 -->
<g id="node49" class="node"><title>Node23</title>
<a xlink:href="_s_l_button_8h.html" target="_top" xlink:title="SLButton.h">
<polygon fill="white" stroke="black" points="1874,-112.5 1874,-131.5 1944,-131.5 1944,-112.5 1874,-112.5"/>
<text text-anchor="middle" x="1909" y="-119.5" font-family="Arial.ttf" font-size="10.00">SLButton.h</text>
</a>
</g>
<!-- Node7&#45;&gt;Node23 -->
<g id="edge52" class="edge"><title>Node7&#45;&gt;Node23</title>
<path fill="none" stroke="midnightblue" d="M908.982,-177.178C1060.87,-177.103 1498.88,-173.045 1860,-132 1864.47,-131.492 1869.14,-130.819 1873.76,-130.069"/>
<polygon fill="midnightblue" stroke="midnightblue" points="908.545,-173.678 898.545,-177.177 908.545,-180.678 908.545,-173.678"/>
</g>
<!-- Node26 -->
<g id="node56" class="node"><title>Node26</title>
<a xlink:href="_s_l_c_v_tracker_8h.html" target="_top" xlink:title="SLCVTracker.h">
<polygon fill="white" stroke="black" points="486,-112.5 486,-131.5 572,-131.5 572,-112.5 486,-112.5"/>
<text text-anchor="middle" x="529" y="-119.5" font-family="Arial.ttf" font-size="10.00">SLCVTracker.h</text>
</a>
</g>
<!-- Node7&#45;&gt;Node26 -->
<g id="edge60" class="edge"><title>Node7&#45;&gt;Node26</title>
<path fill="none" stroke="midnightblue" d="M799.593,-167.96C735.648,-157.335 630.838,-139.921 572.195,-130.177"/>
<polygon fill="midnightblue" stroke="midnightblue" points="799.053,-171.418 809.492,-169.605 800.201,-164.513 799.053,-171.418"/>
</g>
<!-- Node23&#45;&gt;Node20 -->
<g id="edge56" class="edge"><title>Node23&#45;&gt;Node20</title>
<path fill="none" stroke="midnightblue" d="M1888.69,-106.452C1868.41,-92.3541 1836.03,-70.9645 1806,-56 1775.55,-40.8309 1738.68,-27.6277 1714.12,-19.5144"/>
<polygon fill="midnightblue" stroke="midnightblue" points="1886.91,-109.478 1897.1,-112.368 1890.93,-103.752 1886.91,-109.478"/>
</g>
<!-- Node24 -->
<g id="node51" class="node"><title>Node24</title>
<a xlink:href="_s_l_button_8cpp.html" target="_top" xlink:title="SLButton.cpp">
<polygon fill="white" stroke="black" points="1977.5,-56.5 1977.5,-75.5 2058.5,-75.5 2058.5,-56.5 1977.5,-56.5"/>
<text text-anchor="middle" x="2018" y="-63.5" font-family="Arial.ttf" font-size="10.00">SLButton.cpp</text>
</a>
</g>
<!-- Node23&#45;&gt;Node24 -->
<g id="edge54" class="edge"><title>Node23&#45;&gt;Node24</title>
<path fill="none" stroke="midnightblue" d="M1935.52,-107.862C1955.73,-97.8492 1982.99,-84.3458 2000.53,-75.6545"/>
<polygon fill="midnightblue" stroke="midnightblue" points="1933.92,-104.748 1926.51,-112.324 1937.03,-111.021 1933.92,-104.748"/>
</g>
<!-- Node25 -->
<g id="node54" class="node"><title>Node25</title>
<a xlink:href="_s_l_scene_view_8cpp.html" target="_top" xlink:title="SLSceneView.cpp">
<polygon fill="white" stroke="black" points="1858.5,-56.5 1858.5,-75.5 1959.5,-75.5 1959.5,-56.5 1858.5,-56.5"/>
<text text-anchor="middle" x="1909" y="-63.5" font-family="Arial.ttf" font-size="10.00">SLSceneView.cpp</text>
</a>
</g>
<!-- Node23&#45;&gt;Node25 -->
<g id="edge58" class="edge"><title>Node23&#45;&gt;Node25</title>
<path fill="none" stroke="midnightblue" d="M1909,-101.805C1909,-92.9102 1909,-82.7798 1909,-75.7511"/>
<polygon fill="midnightblue" stroke="midnightblue" points="1905.5,-102.083 1909,-112.083 1912.5,-102.083 1905.5,-102.083"/>
</g>
<!-- Node26&#45;&gt;Node19 -->
<g id="edge64" class="edge"><title>Node26&#45;&gt;Node19</title>
<path fill="none" stroke="midnightblue" d="M582.189,-112.516C583.471,-112.339 584.743,-112.167 586,-112 734.006,-92.3511 772.178,-96.9853 920,-76 924.54,-75.3555 929.295,-74.6106 933.999,-73.8309"/>
<polygon fill="midnightblue" stroke="midnightblue" points="581.629,-109.061 572.227,-113.946 582.623,-115.99 581.629,-109.061"/>
</g>
<!-- Node26&#45;&gt;Node20 -->
<g id="edge66" class="edge"><title>Node26&#45;&gt;Node20</title>
<path fill="none" stroke="midnightblue" d="M582.243,-114.815C678.446,-103.569 872.658,-80.5113 887,-76 905.206,-70.2732 906.615,-61.1225 925,-56 994.774,-36.5593 1501.12,-17.5039 1647.48,-12.3543"/>
<polygon fill="midnightblue" stroke="midnightblue" points="581.657,-111.36 572.13,-115.996 582.469,-118.313 581.657,-111.36"/>
</g>
<!-- Node27 -->
<g id="node58" class="node"><title>Node27</title>
<a xlink:href="_s_l_c_v_tracker_8cpp.html" target="_top" xlink:title="SLCVTracker.cpp">
<polygon fill="white" stroke="black" points="486,-56.5 486,-75.5 584,-75.5 584,-56.5 486,-56.5"/>
<text text-anchor="middle" x="535" y="-63.5" font-family="Arial.ttf" font-size="10.00">SLCVTracker.cpp</text>
</a>
</g>
<!-- Node26&#45;&gt;Node27 -->
<g id="edge62" class="edge"><title>Node26&#45;&gt;Node27</title>
<path fill="none" stroke="midnightblue" d="M531.1,-102.101C532.096,-93.1357 533.238,-82.8579 534.028,-75.7511"/>
<polygon fill="midnightblue" stroke="midnightblue" points="527.617,-101.758 529.991,-112.083 534.574,-102.531 527.617,-101.758"/>
</g>
<!-- Node28 -->
<g id="node62" class="node"><title>Node28</title>
<a xlink:href="_s_l_c_v_tracker_aruco_8h.html" target="_top" xlink:title="SLCVTrackerAruco.h">
<polygon fill="white" stroke="black" points="764,-56.5 764,-75.5 878,-75.5 878,-56.5 764,-56.5"/>
<text text-anchor="middle" x="821" y="-63.5" font-family="Arial.ttf" font-size="10.00">SLCVTrackerAruco.h</text>
</a>
</g>
<!-- Node26&#45;&gt;Node28 -->
<g id="edge68" class="edge"><title>Node26&#45;&gt;Node28</title>
<path fill="none" stroke="midnightblue" d="M582.005,-111.198C637.093,-101.01 722.438,-85.2273 774.843,-75.536"/>
<polygon fill="midnightblue" stroke="midnightblue" points="581.282,-107.772 572.086,-113.032 582.555,-114.655 581.282,-107.772"/>
</g>
<!-- Node29 -->
<g id="node67" class="node"><title>Node29</title>
<a xlink:href="_s_l_c_v_tracker_chessboard_8h.html" target="_top" xlink:title="SLCVTrackerChessboard.h">
<polygon fill="white" stroke="black" points="602.5,-56.5 602.5,-75.5 745.5,-75.5 745.5,-56.5 602.5,-56.5"/>
<text text-anchor="middle" x="674" y="-63.5" font-family="Arial.ttf" font-size="10.00">SLCVTrackerChessboard.h</text>
</a>
</g>
<!-- Node26&#45;&gt;Node29 -->
<g id="edge76" class="edge"><title>Node26&#45;&gt;Node29</title>
<path fill="none" stroke="midnightblue" d="M561.475,-108.906C588.736,-98.7536 626.992,-84.5063 651.132,-75.5164"/>
<polygon fill="midnightblue" stroke="midnightblue" points="560.125,-105.674 551.976,-112.444 562.568,-112.233 560.125,-105.674"/>
</g>
<!-- Node28&#45;&gt;Node9 -->
<g id="edge70" class="edge"><title>Node28&#45;&gt;Node9</title>
<path fill="none" stroke="midnightblue" d="M888.64,-56.3823C889.768,-56.2528 890.889,-56.1252 892,-56 1032.32,-40.1864 1197.27,-24.6682 1285.25,-16.6381"/>
<polygon fill="midnightblue" stroke="midnightblue" points="887.858,-52.9501 878.335,-57.5937 888.675,-59.9022 887.858,-52.9501"/>
</g>
<!-- Node28&#45;&gt;Node20 -->
<g id="edge72" class="edge"><title>Node28&#45;&gt;Node20</title>
<path fill="none" stroke="midnightblue" d="M888.633,-56.3174C889.763,-56.2079 890.886,-56.102 892,-56 1181.1,-29.5272 1530.86,-16.2053 1647.22,-12.2724"/>
<polygon fill="midnightblue" stroke="midnightblue" points="887.899,-52.8746 878.314,-57.3876 888.621,-59.8372 887.899,-52.8746"/>
</g>
<!-- Node28&#45;&gt;Node21 -->
<g id="edge74" class="edge"><title>Node28&#45;&gt;Node21</title>
<path fill="none" stroke="midnightblue" d="M775.535,-54.0884C733.027,-43.8865 670.421,-28.8612 631.485,-19.5164"/>
<polygon fill="midnightblue" stroke="midnightblue" points="774.807,-57.5131 785.348,-56.4435 776.441,-50.7064 774.807,-57.5131"/>
</g>
<!-- Node29&#45;&gt;Node21 -->
<g id="edge80" class="edge"><title>Node29&#45;&gt;Node21</title>
<path fill="none" stroke="midnightblue" d="M653.232,-50.6221C638.983,-40.7574 620.544,-27.9919 608.501,-19.6545"/>
<polygon fill="midnightblue" stroke="midnightblue" points="651.254,-53.5095 661.468,-56.324 655.238,-47.7541 651.254,-53.5095"/>
</g>
<!-- Node30 -->
<g id="node69" class="node"><title>Node30</title>
<a xlink:href="_s_l_c_v_tracker_chessboard_8cpp.html" target="_top" xlink:title="SLCVTrackerChessboard.cpp">
<polygon fill="white" stroke="black" points="673.5,-0.5 673.5,-19.5 828.5,-19.5 828.5,-0.5 673.5,-0.5"/>
<text text-anchor="middle" x="751" y="-7.5" font-family="Arial.ttf" font-size="10.00">SLCVTrackerChessboard.cpp</text>
</a>
</g>
<!-- Node29&#45;&gt;Node30 -->
<g id="edge78" class="edge"><title>Node29&#45;&gt;Node30</title>
<path fill="none" stroke="midnightblue" d="M694.901,-50.3422C708.911,-40.5169 726.883,-27.9132 738.659,-19.6545"/>
<polygon fill="midnightblue" stroke="midnightblue" points="692.549,-47.7166 686.371,-56.324 696.568,-53.4477 692.549,-47.7166"/>
</g>
</g>
</svg>
