<?xml version="1.0" encoding="UTF-8" standalone="no"?>
<!DOCTYPE svg PUBLIC "-//W3C//DTD SVG 1.1//EN"
 "http://www.w3.org/Graphics/SVG/1.1/DTD/svg11.dtd">
<!-- Generated by graphviz version 2.28.0 (20110507.0327)
 -->
<!-- Title: SLInputManager.h Pages: 1 -->
<svg width="221pt" height="140pt"
 viewBox="0.00 0.00 220.92 140.00" xmlns="http://www.w3.org/2000/svg" xmlns:xlink="http://www.w3.org/1999/xlink">
<g id="graph1" class="graph" transform="scale(1 1) rotate(0) translate(4 136)">
<title>SLInputManager.h</title>
<polygon fill="white" stroke="white" points="-4,5 -4,-136 217.921,-136 217.921,5 -4,5"/>
<!-- Node1 -->
<g id="node1" class="node"><title>Node1</title>
<polygon fill="#bfbfbf" stroke="black" points="6.92088,-112.5 6.92088,-131.5 110.921,-131.5 110.921,-112.5 6.92088,-112.5"/>
<text text-anchor="middle" x="58.9209" y="-119.5" font-family="Arial.ttf" font-size="10.00">SLInputManager.h</text>
</g>
<!-- Node2 -->
<g id="node3" class="node"><title>Node2</title>
<polygon fill="white" stroke="#bfbfbf" points="31.4209,-0.5 31.4209,-19.5 86.4209,-19.5 86.4209,-0.5 31.4209,-0.5"/>
<text text-anchor="middle" x="58.9209" y="-7.5" font-family="Arial.ttf" font-size="10.00">stdafx.h</text>
</g>
<!-- Node1&#45;&gt;Node2 -->
<g id="edge2" class="edge"><title>Node1&#45;&gt;Node2</title>
<path fill="none" stroke="midnightblue" d="M41.4192,-112.465C28.1336,-104.917 10.8451,-92.5333 2.92088,-76 -6.74945,-55.8235 14.2088,-36.9458 33.1816,-24.7893"/>
<polygon fill="midnightblue" stroke="midnightblue" points="35.1477,-27.6912 41.9169,-19.5408 31.5425,-21.691 35.1477,-27.6912"/>
</g>
<!-- Node3 -->
<g id="node5" class="node"><title>Node3</title>
<a xlink:href="_s_l_input_event_8h.html" target="_top" xlink:title="SLInputEvent.h">
<polygon fill="white" stroke="black" points="124.421,-56.5 124.421,-75.5 213.421,-75.5 213.421,-56.5 124.421,-56.5"/>
<text text-anchor="middle" x="168.921" y="-63.5" font-family="Arial.ttf" font-size="10.00">SLInputEvent.h</text>
</a>
</g>
<!-- Node1&#45;&gt;Node3 -->
<g id="edge4" class="edge"><title>Node1&#45;&gt;Node3</title>
<path fill="none" stroke="midnightblue" d="M76.5943,-112.324C94.315,-103.625 121.824,-90.1202 142.209,-80.113"/>
<polygon fill="midnightblue" stroke="midnightblue" points="143.857,-83.2031 151.291,-75.6545 140.772,-76.9195 143.857,-83.2031"/>
</g>
<!-- Node5 -->
<g id="node10" class="node"><title>Node5</title>
<a xlink:href="_s_l_input_device_8h.html" target="_top" xlink:title="SLInputDevice.h">
<polygon fill="white" stroke="black" points="11.9209,-56.5 11.9209,-75.5 105.921,-75.5 105.921,-56.5 11.9209,-56.5"/>
<text text-anchor="middle" x="58.9209" y="-63.5" font-family="Arial.ttf" font-size="10.00">SLInputDevice.h</text>
</a>
</g>
<!-- Node1&#45;&gt;Node5 -->
<g id="edge10" class="edge"><title>Node1&#45;&gt;Node5</title>
<path fill="none" stroke="midnightblue" d="M58.9209,-112.083C58.9209,-105.006 58.9209,-94.8611 58.9209,-85.9865"/>
<polygon fill="midnightblue" stroke="midnightblue" points="62.421,-85.751 58.9209,-75.7511 55.421,-85.7511 62.421,-85.751"/>
</g>
<!-- Node3&#45;&gt;Node2 -->
<g id="edge6" class="edge"><title>Node3&#45;&gt;Node2</title>
<path fill="none" stroke="midnightblue" d="M151.247,-56.324C133.527,-47.6247 106.018,-34.1202 85.6325,-24.113"/>
<polygon fill="midnightblue" stroke="midnightblue" points="87.0695,-20.9195 76.5504,-19.6545 83.9847,-27.2031 87.0695,-20.9195"/>
</g>
<!-- Node4 -->
<g id="node8" class="node"><title>Node4</title>
<a xlink:href="_s_l_enums_8h.html" target="_top" xlink:title="SLEnums.h">
<polygon fill="white" stroke="black" points="133.421,-0.5 133.421,-19.5 204.421,-19.5 204.421,-0.5 133.421,-0.5"/>
<text text-anchor="middle" x="168.921" y="-7.5" font-family="Arial.ttf" font-size="10.00">SLEnums.h</text>
</a>
</g>
<!-- Node3&#45;&gt;Node4 -->
<g id="edge8" class="edge"><title>Node3&#45;&gt;Node4</title>
<path fill="none" stroke="midnightblue" d="M168.921,-56.083C168.921,-49.0059 168.921,-38.8611 168.921,-29.9865"/>
<polygon fill="midnightblue" stroke="midnightblue" points="172.421,-29.751 168.921,-19.7511 165.421,-29.7511 172.421,-29.751"/>
</g>
<!-- Node5&#45;&gt;Node2 -->
<g id="edge12" class="edge"><title>Node5&#45;&gt;Node2</title>
<path fill="none" stroke="midnightblue" d="M58.9209,-56.083C58.9209,-49.0059 58.9209,-38.8611 58.9209,-29.9865"/>
<polygon fill="midnightblue" stroke="midnightblue" points="62.421,-29.751 58.9209,-19.7511 55.421,-29.7511 62.421,-29.751"/>
</g>
</g>
</svg>
