<?xml version="1.0" encoding="UTF-8" standalone="no"?>
<!DOCTYPE svg PUBLIC "-//W3C//DTD SVG 1.1//EN"
 "http://www.w3.org/Graphics/SVG/1.1/DTD/svg11.dtd">
<!-- Generated by graphviz version 8.0.5 (20230430.1635)
 -->
<!-- Title: SLTexColorLUT.h Pages: 1 -->
<svg width="1005pt" height="713pt"
 viewBox="0.00 0.00 1004.71 713.00" xmlns="http://www.w3.org/2000/svg" xmlns:xlink="http://www.w3.org/1999/xlink">
<g id="graph0" class="graph" transform="scale(1 1) rotate(0) translate(4 709)">
<title>SLTexColorLUT.h</title>
<polygon fill="white" stroke="none" points="-4,4 -4,-709 1000.71,-709 1000.71,4 -4,4"/>
<!-- Node1 -->
<g id="node1" class="node">
<title>Node1</title>
<g id="a_node1"><a xlink:title=" ">
<polygon fill="#bfbfbf" stroke="black" points="146.75,-684.5 146.75,-704.5 239.25,-704.5 239.25,-684.5 146.75,-684.5"/>
<text text-anchor="middle" x="193" y="-691" font-family="Arial" font-size="10.00">SLTexColorLUT.h</text>
</a>
</g>
</g>
<!-- Node2 -->
<g id="node2" class="node">
<title>Node2</title>
<g id="a_node2"><a xlink:href="_s_l_8h.html" target="_top" xlink:title=" ">
<polygon fill="white" stroke="black" points="144.88,-228.5 144.88,-248.5 181.12,-248.5 181.12,-228.5 144.88,-228.5"/>
<text text-anchor="middle" x="163" y="-235" font-family="Arial" font-size="10.00">SL.h</text>
</a>
</g>
</g>
<!-- Node1&#45;&gt;Node2 -->
<g id="edge1" class="edge">
<title>Node1&#45;&gt;Node2</title>
<path fill="none" stroke="midnightblue" d="M146.77,-687.23C89.67,-676.58 0,-649.1 0,-581.5 0,-581.5 0,-581.5 0,-351.5 0,-287.11 87.47,-256.95 134.26,-245.43"/>
<polygon fill="midnightblue" stroke="midnightblue" points="134.98,-248.62 143.93,-242.95 133.4,-241.81 134.98,-248.62"/>
</g>
<!-- Node12 -->
<g id="node12" class="node">
<title>Node12</title>
<g id="a_node12"><a xlink:href="_s_l_event_handler_8h.html" target="_top" xlink:title=" ">
<polygon fill="white" stroke="black" points="52.25,-627.5 52.25,-647.5 147.75,-647.5 147.75,-627.5 52.25,-627.5"/>
<text text-anchor="middle" x="100" y="-634" font-family="Arial" font-size="10.00">SLEventHandler.h</text>
</a>
</g>
</g>
<!-- Node1&#45;&gt;Node12 -->
<g id="edge14" class="edge">
<title>Node1&#45;&gt;Node12</title>
<path fill="none" stroke="midnightblue" d="M178.06,-684.66C163.64,-676.13 141.55,-663.07 124.54,-653.01"/>
<polygon fill="midnightblue" stroke="midnightblue" points="126.6,-649.58 116.21,-647.5 123.04,-655.6 126.6,-649.58"/>
</g>
<!-- Node14 -->
<g id="node14" class="node">
<title>Node14</title>
<g id="a_node14"><a xlink:href="_s_l_g_l_texture_8h.html" target="_top" xlink:title=" ">
<polygon fill="white" stroke="black" points="245.75,-627.5 245.75,-647.5 326.25,-647.5 326.25,-627.5 245.75,-627.5"/>
<text text-anchor="middle" x="286" y="-634" font-family="Arial" font-size="10.00">SLGLTexture.h</text>
</a>
</g>
</g>
<!-- Node1&#45;&gt;Node14 -->
<g id="edge17" class="edge">
<title>Node1&#45;&gt;Node14</title>
<path fill="none" stroke="midnightblue" d="M207.94,-684.66C222.36,-676.13 244.45,-663.07 261.46,-653.01"/>
<polygon fill="midnightblue" stroke="midnightblue" points="262.96,-655.6 269.79,-647.5 259.4,-649.58 262.96,-655.6"/>
</g>
<!-- Node20 -->
<g id="node20" class="node">
<title>Node20</title>
<g id="a_node20"><a xlink:href="_s_l_vec3_8h.html" target="_top" xlink:title=" ">
<polygon fill="white" stroke="black" points="423.38,-228.5 423.38,-248.5 480.62,-248.5 480.62,-228.5 423.38,-228.5"/>
<text text-anchor="middle" x="452" y="-235" font-family="Arial" font-size="10.00">SLVec3.h</text>
</a>
</g>
</g>
<!-- Node1&#45;&gt;Node20 -->
<g id="edge63" class="edge">
<title>Node1&#45;&gt;Node20</title>
<path fill="none" stroke="midnightblue" d="M239.08,-690.86C392.89,-681.44 879,-646.51 879,-581.5 879,-581.5 879,-581.5 879,-351.5 879,-320.76 883.47,-304.84 860,-285 832.15,-261.46 588.1,-246.48 491.3,-241.42"/>
<polygon fill="midnightblue" stroke="midnightblue" points="491.69,-237.88 481.52,-240.86 491.33,-244.87 491.69,-237.88"/>
</g>
<!-- Node3 -->
<g id="node3" class="node">
<title>Node3</title>
<g id="a_node3"><a xlink:href="_utils_8h.html" target="_top" xlink:title=" ">
<polygon fill="white" stroke="black" points="424.75,-114.5 424.75,-134.5 469.25,-134.5 469.25,-114.5 424.75,-114.5"/>
<text text-anchor="middle" x="447" y="-121" font-family="Arial" font-size="10.00">Utils.h</text>
</a>
</g>
</g>
<!-- Node2&#45;&gt;Node3 -->
<g id="edge2" class="edge">
<title>Node2&#45;&gt;Node3</title>
<path fill="none" stroke="midnightblue" d="M168.63,-228.53C178.27,-213.96 199.4,-185.37 225,-171 285.76,-136.91 368.69,-128.21 414.04,-126.09"/>
<polygon fill="midnightblue" stroke="midnightblue" points="414.13,-129.55 423.99,-125.67 413.86,-122.55 414.13,-129.55"/>
</g>
<!-- Node4 -->
<g id="node4" class="node">
<title>Node4</title>
<g id="a_node4"><a xlink:title=" ">
<polygon fill="white" stroke="#bfbfbf" points="449,-0.5 449,-20.5 489,-20.5 489,-0.5 449,-0.5"/>
<text text-anchor="middle" x="469" y="-7" font-family="Arial" font-size="10.00">string</text>
</a>
</g>
</g>
<!-- Node3&#45;&gt;Node4 -->
<g id="edge3" class="edge">
<title>Node3&#45;&gt;Node4</title>
<path fill="none" stroke="midnightblue" d="M457.72,-114.68C466.94,-106.34 479.6,-92.9 485,-78 490.75,-62.14 485.19,-43.41 479.11,-29.88"/>
<polygon fill="midnightblue" stroke="midnightblue" points="481.92,-28.67 474.32,-21.29 475.66,-31.8 481.92,-28.67"/>
</g>
<!-- Node5 -->
<g id="node5" class="node">
<title>Node5</title>
<g id="a_node5"><a xlink:title=" ">
<polygon fill="white" stroke="#bfbfbf" points="590.5,-57.5 590.5,-77.5 633.5,-77.5 633.5,-57.5 590.5,-57.5"/>
<text text-anchor="middle" x="612" y="-64" font-family="Arial" font-size="10.00">vector</text>
</a>
</g>
</g>
<!-- Node3&#45;&gt;Node5 -->
<g id="edge4" class="edge">
<title>Node3&#45;&gt;Node5</title>
<path fill="none" stroke="midnightblue" d="M468.91,-116.2C497.42,-106.69 547.45,-90.02 580.15,-79.12"/>
<polygon fill="midnightblue" stroke="midnightblue" points="581.14,-82.14 589.52,-75.66 578.93,-75.5 581.14,-82.14"/>
</g>
<!-- Node6 -->
<g id="node6" class="node">
<title>Node6</title>
<g id="a_node6"><a xlink:title=" ">
<polygon fill="white" stroke="#bfbfbf" points="532,-57.5 532,-77.5 572,-77.5 572,-57.5 532,-57.5"/>
<text text-anchor="middle" x="552" y="-64" font-family="Arial" font-size="10.00">cfloat</text>
</a>
</g>
</g>
<!-- Node3&#45;&gt;Node6 -->
<g id="edge5" class="edge">
<title>Node3&#45;&gt;Node6</title>
<path fill="none" stroke="midnightblue" d="M463.87,-114.66C480.38,-106.01 505.79,-92.7 525.1,-82.59"/>
<polygon fill="midnightblue" stroke="midnightblue" points="526.59,-85.24 533.82,-77.5 523.34,-79.04 526.59,-85.24"/>
</g>
<!-- Node7 -->
<g id="node7" class="node">
<title>Node7</title>
<g id="a_node7"><a xlink:title=" ">
<polygon fill="white" stroke="#bfbfbf" points="231.38,-0.5 231.38,-20.5 282.62,-20.5 282.62,-0.5 231.38,-0.5"/>
<text text-anchor="middle" x="257" y="-7" font-family="Arial" font-size="10.00">memory</text>
</a>
</g>
</g>
<!-- Node3&#45;&gt;Node7 -->
<g id="edge6" class="edge">
<title>Node3&#45;&gt;Node7</title>
<path fill="none" stroke="midnightblue" d="M424.88,-121.96C376.88,-118.1 265.64,-106.24 243,-78 232.07,-64.37 238.47,-44.26 245.81,-29.73"/>
<polygon fill="midnightblue" stroke="midnightblue" points="249.25,-31.74 251.08,-21.3 243.14,-28.32 249.25,-31.74"/>
</g>
<!-- Node8 -->
<g id="node8" class="node">
<title>Node8</title>
<g id="a_node8"><a xlink:href="_file_log_8h.html" target="_top" xlink:title=" ">
<polygon fill="white" stroke="black" points="344.12,-57.5 344.12,-77.5 399.88,-77.5 399.88,-57.5 344.12,-57.5"/>
<text text-anchor="middle" x="372" y="-64" font-family="Arial" font-size="10.00">FileLog.h</text>
</a>
</g>
</g>
<!-- Node3&#45;&gt;Node8 -->
<g id="edge7" class="edge">
<title>Node3&#45;&gt;Node8</title>
<path fill="none" stroke="midnightblue" d="M434.95,-114.66C423.65,-106.37 406.5,-93.8 392.95,-83.87"/>
<polygon fill="midnightblue" stroke="midnightblue" points="395.4,-80.59 385.27,-77.5 391.26,-86.23 395.4,-80.59"/>
</g>
<!-- Node10 -->
<g id="node10" class="node">
<title>Node10</title>
<g id="a_node10"><a xlink:href="_custom_log_8h.html" target="_top" xlink:title=" ">
<polygon fill="white" stroke="black" points="251.75,-57.5 251.75,-77.5 326.25,-77.5 326.25,-57.5 251.75,-57.5"/>
<text text-anchor="middle" x="289" y="-64" font-family="Arial" font-size="10.00">CustomLog.h</text>
</a>
</g>
</g>
<!-- Node3&#45;&gt;Node10 -->
<g id="edge10" class="edge">
<title>Node3&#45;&gt;Node10</title>
<path fill="none" stroke="midnightblue" d="M425.03,-115.85C399.17,-106.85 355.84,-91.77 325.03,-81.04"/>
<polygon fill="midnightblue" stroke="midnightblue" points="326.3,-77.43 315.71,-77.45 324,-84.04 326.3,-77.43"/>
</g>
<!-- Node11 -->
<g id="node11" class="node">
<title>Node11</title>
<g id="a_node11"><a xlink:title=" ">
<polygon fill="white" stroke="#bfbfbf" points="418,-57.5 418,-77.5 476,-77.5 476,-57.5 418,-57.5"/>
<text text-anchor="middle" x="447" y="-64" font-family="Arial" font-size="10.00">functional</text>
</a>
</g>
</g>
<!-- Node3&#45;&gt;Node11 -->
<g id="edge13" class="edge">
<title>Node3&#45;&gt;Node11</title>
<path fill="none" stroke="midnightblue" d="M447,-114.91C447,-107.76 447,-97.32 447,-88.15"/>
<polygon fill="midnightblue" stroke="midnightblue" points="450.5,-88.21 447,-78.21 443.5,-88.21 450.5,-88.21"/>
</g>
<!-- Node8&#45;&gt;Node4 -->
<g id="edge8" class="edge">
<title>Node8&#45;&gt;Node4</title>
<path fill="none" stroke="midnightblue" d="M387.58,-57.66C402.77,-49.05 426.1,-35.83 443.9,-25.73"/>
<polygon fill="midnightblue" stroke="midnightblue" points="445.16,-28.47 452.13,-20.5 441.71,-22.39 445.16,-28.47"/>
</g>
<!-- Node9 -->
<g id="node9" class="node">
<title>Node9</title>
<g id="a_node9"><a xlink:title=" ">
<polygon fill="white" stroke="#bfbfbf" points="347.5,-0.5 347.5,-20.5 396.5,-20.5 396.5,-0.5 347.5,-0.5"/>
<text text-anchor="middle" x="372" y="-7" font-family="Arial" font-size="10.00">fstream</text>
</a>
</g>
</g>
<!-- Node8&#45;&gt;Node9 -->
<g id="edge9" class="edge">
<title>Node8&#45;&gt;Node9</title>
<path fill="none" stroke="midnightblue" d="M372,-57.91C372,-50.76 372,-40.32 372,-31.15"/>
<polygon fill="midnightblue" stroke="midnightblue" points="375.5,-31.21 372,-21.21 368.5,-31.21 375.5,-31.21"/>
</g>
<!-- Node10&#45;&gt;Node4 -->
<g id="edge12" class="edge">
<title>Node10&#45;&gt;Node4</title>
<path fill="none" stroke="midnightblue" d="M318.32,-57.54C351.58,-47.38 405.53,-30.89 439.05,-20.65"/>
<polygon fill="midnightblue" stroke="midnightblue" points="439.62,-23.83 448.16,-17.56 437.58,-17.14 439.62,-23.83"/>
</g>
<!-- Node10&#45;&gt;Node7 -->
<g id="edge11" class="edge">
<title>Node10&#45;&gt;Node7</title>
<path fill="none" stroke="midnightblue" d="M284,-57.91C279.61,-50.36 273.08,-39.14 267.54,-29.62"/>
<polygon fill="midnightblue" stroke="midnightblue" points="270.12,-28.1 262.07,-21.21 264.07,-31.62 270.12,-28.1"/>
</g>
<!-- Node12&#45;&gt;Node2 -->
<g id="edge15" class="edge">
<title>Node12&#45;&gt;Node2</title>
<path fill="none" stroke="midnightblue" d="M88.91,-627.51C79.16,-619.06 65.28,-605.54 57,-591 41.79,-564.29 38,-555.24 38,-524.5 38,-524.5 38,-524.5 38,-351.5 38,-299.79 98.08,-265.94 134.94,-250.05"/>
<polygon fill="midnightblue" stroke="midnightblue" points="136.18,-252.91 144.09,-245.87 133.51,-246.44 136.18,-252.91"/>
</g>
<!-- Node13 -->
<g id="node13" class="node">
<title>Node13</title>
<g id="a_node13"><a xlink:href="_s_l_enums_8h.html" target="_top" xlink:title=" ">
<polygon fill="white" stroke="black" points="66.5,-570.5 66.5,-590.5 133.5,-590.5 133.5,-570.5 66.5,-570.5"/>
<text text-anchor="middle" x="100" y="-577" font-family="Arial" font-size="10.00">SLEnums.h</text>
</a>
</g>
</g>
<!-- Node12&#45;&gt;Node13 -->
<g id="edge16" class="edge">
<title>Node12&#45;&gt;Node13</title>
<path fill="none" stroke="midnightblue" d="M100,-627.91C100,-620.76 100,-610.32 100,-601.15"/>
<polygon fill="midnightblue" stroke="midnightblue" points="103.5,-601.21 100,-591.21 96.5,-601.21 103.5,-601.21"/>
</g>
<!-- Node15 -->
<g id="node15" class="node">
<title>Node15</title>
<g id="a_node15"><a xlink:href="_s_l_object_8h.html" target="_top" xlink:title=" ">
<polygon fill="white" stroke="black" points="154.62,-513.5 154.62,-533.5 219.38,-533.5 219.38,-513.5 154.62,-513.5"/>
<text text-anchor="middle" x="187" y="-520" font-family="Arial" font-size="10.00">SLObject.h</text>
</a>
</g>
</g>
<!-- Node14&#45;&gt;Node15 -->
<g id="edge18" class="edge">
<title>Node14&#45;&gt;Node15</title>
<path fill="none" stroke="midnightblue" d="M285.58,-627.8C284.49,-614.13 280.65,-587.37 267,-570 255.74,-555.67 238.64,-545.08 223.14,-537.74"/>
<polygon fill="midnightblue" stroke="midnightblue" points="224.82,-534.22 214.26,-533.38 221.99,-540.62 224.82,-534.22"/>
</g>
<!-- Node16 -->
<g id="node16" class="node">
<title>Node16</title>
<g id="a_node16"><a xlink:title=" ">
<polygon fill="white" stroke="#bfbfbf" points="314.25,-570.5 314.25,-590.5 379.75,-590.5 379.75,-570.5 314.25,-570.5"/>
<text text-anchor="middle" x="347" y="-577" font-family="Arial" font-size="10.00">CVImage.h</text>
</a>
</g>
</g>
<!-- Node14&#45;&gt;Node16 -->
<g id="edge20" class="edge">
<title>Node14&#45;&gt;Node16</title>
<path fill="none" stroke="midnightblue" d="M295.8,-627.66C304.73,-619.61 318.14,-607.52 329,-597.73"/>
<polygon fill="midnightblue" stroke="midnightblue" points="330.94,-600.79 336.02,-591.5 326.25,-595.59 330.94,-600.79"/>
</g>
<!-- Node17 -->
<g id="node17" class="node">
<title>Node17</title>
<g id="a_node17"><a xlink:href="_s_l_g_l_vertex_array_8h.html" target="_top" xlink:title=" ">
<polygon fill="white" stroke="black" points="397.75,-570.5 397.75,-590.5 496.25,-590.5 496.25,-570.5 397.75,-570.5"/>
<text text-anchor="middle" x="447" y="-577" font-family="Arial" font-size="10.00">SLGLVertexArray.h</text>
</a>
</g>
</g>
<!-- Node14&#45;&gt;Node17 -->
<g id="edge21" class="edge">
<title>Node14&#45;&gt;Node17</title>
<path fill="none" stroke="midnightblue" d="M312.23,-627.54C339.01,-618.39 380.79,-604.12 410.73,-593.89"/>
<polygon fill="midnightblue" stroke="midnightblue" points="411.45,-597 419.79,-590.46 409.19,-590.38 411.45,-597"/>
</g>
<!-- Node25 -->
<g id="node25" class="node">
<title>Node25</title>
<g id="a_node25"><a xlink:href="_s_l_mat4_8h.html" target="_top" xlink:title=" ">
<polygon fill="white" stroke="black" points="495,-342.5 495,-362.5 553,-362.5 553,-342.5 495,-342.5"/>
<text text-anchor="middle" x="524" y="-349" font-family="Arial" font-size="10.00">SLMat4.h</text>
</a>
</g>
</g>
<!-- Node14&#45;&gt;Node25 -->
<g id="edge60" class="edge">
<title>Node14&#45;&gt;Node25</title>
<path fill="none" stroke="midnightblue" d="M326.14,-633.09C382.07,-627.55 479.47,-614.72 505,-591 527.52,-570.08 524,-555.24 524,-524.5 524,-524.5 524,-524.5 524,-465.5 524,-433.17 524,-395.58 524,-373.21"/>
<polygon fill="midnightblue" stroke="midnightblue" points="527.5,-373.21 524,-363.21 520.5,-373.21 527.5,-373.21"/>
</g>
<!-- Node34 -->
<g id="node34" class="node">
<title>Node34</title>
<g id="a_node34"><a xlink:title=" ">
<polygon fill="white" stroke="#bfbfbf" points="151.38,-570.5 151.38,-590.5 196.62,-590.5 196.62,-570.5 151.38,-570.5"/>
<text text-anchor="middle" x="174" y="-577" font-family="Arial" font-size="10.00">atomic</text>
</a>
</g>
</g>
<!-- Node14&#45;&gt;Node34 -->
<g id="edge61" class="edge">
<title>Node14&#45;&gt;Node34</title>
<path fill="none" stroke="midnightblue" d="M268.01,-627.66C250.23,-618.94 222.79,-605.46 202.13,-595.31"/>
<polygon fill="midnightblue" stroke="midnightblue" points="203.84,-591.76 193.32,-590.5 200.76,-598.05 203.84,-591.76"/>
</g>
<!-- Node35 -->
<g id="node35" class="node">
<title>Node35</title>
<g id="a_node35"><a xlink:title=" ">
<polygon fill="white" stroke="#bfbfbf" points="214.5,-570.5 214.5,-590.5 257.5,-590.5 257.5,-570.5 214.5,-570.5"/>
<text text-anchor="middle" x="236" y="-577" font-family="Arial" font-size="10.00">mutex</text>
</a>
</g>
</g>
<!-- Node14&#45;&gt;Node35 -->
<g id="edge62" class="edge">
<title>Node14&#45;&gt;Node35</title>
<path fill="none" stroke="midnightblue" d="M278.19,-627.91C270.96,-619.96 260.03,-607.94 251.11,-598.12"/>
<polygon fill="midnightblue" stroke="midnightblue" points="254.24,-596.26 244.92,-591.21 249.06,-600.97 254.24,-596.26"/>
</g>
<!-- Node15&#45;&gt;Node2 -->
<g id="edge19" class="edge">
<title>Node15&#45;&gt;Node2</title>
<path fill="none" stroke="midnightblue" d="M177.85,-513.56C160.61,-495.7 125,-453.62 125,-410.5 125,-410.5 125,-410.5 125,-351.5 125,-317.07 141.3,-279.7 152.55,-258"/>
<polygon fill="midnightblue" stroke="midnightblue" points="156.04,-259.9 157.72,-249.44 149.88,-256.58 156.04,-259.9"/>
</g>
<!-- Node18 -->
<g id="node18" class="node">
<title>Node18</title>
<g id="a_node18"><a xlink:href="_s_l_g_l_enums_8h.html" target="_top" xlink:title=" ">
<polygon fill="white" stroke="black" points="269.12,-456.5 269.12,-476.5 348.88,-476.5 348.88,-456.5 269.12,-456.5"/>
<text text-anchor="middle" x="309" y="-463" font-family="Arial" font-size="10.00">SLGLEnums.h</text>
</a>
</g>
</g>
<!-- Node17&#45;&gt;Node18 -->
<g id="edge22" class="edge">
<title>Node17&#45;&gt;Node18</title>
<path fill="none" stroke="midnightblue" d="M420.73,-570.63C401.1,-563.07 374.42,-550.77 355,-534 339.27,-520.41 326.35,-500.3 318.25,-485.75"/>
<polygon fill="midnightblue" stroke="midnightblue" points="321.02,-484.5 313.23,-477.31 314.84,-487.79 321.02,-484.5"/>
</g>
<!-- Node33 -->
<g id="node33" class="node">
<title>Node33</title>
<g id="a_node33"><a xlink:href="_s_l_g_l_vertex_buffer_8h.html" target="_top" xlink:title=" ">
<polygon fill="white" stroke="black" points="364.25,-513.5 364.25,-533.5 465.75,-533.5 465.75,-513.5 364.25,-513.5"/>
<text text-anchor="middle" x="415" y="-520" font-family="Arial" font-size="10.00">SLGLVertexBuffer.h</text>
</a>
</g>
</g>
<!-- Node17&#45;&gt;Node33 -->
<g id="edge55" class="edge">
<title>Node17&#45;&gt;Node33</title>
<path fill="none" stroke="midnightblue" d="M442,-570.91C437.61,-563.36 431.08,-552.14 425.54,-542.62"/>
<polygon fill="midnightblue" stroke="midnightblue" points="428.12,-541.1 420.07,-534.21 422.07,-544.62 428.12,-541.1"/>
</g>
<!-- Node18&#45;&gt;Node2 -->
<g id="edge23" class="edge">
<title>Node18&#45;&gt;Node2</title>
<path fill="none" stroke="midnightblue" d="M298.95,-456.73C289.3,-448.01 274.66,-433.95 264,-420 222.48,-365.65 186.83,-292.26 171.3,-258.24"/>
<polygon fill="midnightblue" stroke="midnightblue" points="174.13,-256.98 166.83,-249.3 167.74,-259.86 174.13,-256.98"/>
</g>
<!-- Node19 -->
<g id="node19" class="node">
<title>Node19</title>
<g id="a_node19"><a xlink:href="_s_l_g_l_state_8h.html" target="_top" xlink:title=" ">
<polygon fill="white" stroke="black" points="272.88,-399.5 272.88,-419.5 345.12,-419.5 345.12,-399.5 272.88,-399.5"/>
<text text-anchor="middle" x="309" y="-406" font-family="Arial" font-size="10.00">SLGLState.h</text>
</a>
</g>
</g>
<!-- Node18&#45;&gt;Node19 -->
<g id="edge24" class="edge">
<title>Node18&#45;&gt;Node19</title>
<path fill="none" stroke="midnightblue" d="M309,-456.91C309,-449.76 309,-439.32 309,-430.15"/>
<polygon fill="midnightblue" stroke="midnightblue" points="312.5,-430.21 309,-420.21 305.5,-430.21 312.5,-430.21"/>
</g>
<!-- Node19&#45;&gt;Node2 -->
<g id="edge25" class="edge">
<title>Node19&#45;&gt;Node2</title>
<path fill="none" stroke="midnightblue" d="M301.36,-399.74C285.95,-382.05 250.02,-340.8 220,-306 205.47,-289.16 188.94,-269.86 177.44,-256.4"/>
<polygon fill="midnightblue" stroke="midnightblue" points="179.52,-254.45 170.36,-249.12 174.2,-259 179.52,-254.45"/>
</g>
<!-- Node19&#45;&gt;Node20 -->
<g id="edge26" class="edge">
<title>Node19&#45;&gt;Node20</title>
<path fill="none" stroke="midnightblue" d="M312,-399.74C319.78,-378.07 342.44,-321.04 377,-285 389.59,-271.87 406.76,-261.09 421.49,-253.32"/>
<polygon fill="midnightblue" stroke="midnightblue" points="422.85,-256.05 430.22,-248.43 419.71,-249.8 422.85,-256.05"/>
</g>
<!-- Node24 -->
<g id="node24" class="node">
<title>Node24</title>
<g id="a_node24"><a xlink:href="_s_l_vec4_8h.html" target="_top" xlink:title=" ">
<polygon fill="white" stroke="black" points="229.38,-285.5 229.38,-305.5 286.62,-305.5 286.62,-285.5 229.38,-285.5"/>
<text text-anchor="middle" x="258" y="-292" font-family="Arial" font-size="10.00">SLVec4.h</text>
</a>
</g>
</g>
<!-- Node19&#45;&gt;Node24 -->
<g id="edge35" class="edge">
<title>Node19&#45;&gt;Node24</title>
<path fill="none" stroke="midnightblue" d="M305,-399.71C296.73,-381.56 277.61,-339.56 266.47,-315.1"/>
<polygon fill="midnightblue" stroke="midnightblue" points="269.31,-313.9 261.98,-306.25 262.94,-316.8 269.31,-313.9"/>
</g>
<!-- Node19&#45;&gt;Node25 -->
<g id="edge40" class="edge">
<title>Node19&#45;&gt;Node25</title>
<path fill="none" stroke="midnightblue" d="M344.02,-399.54C382.61,-389.67 444.51,-373.83 484.72,-363.55"/>
<polygon fill="midnightblue" stroke="midnightblue" points="485.37,-366.74 494.19,-360.87 483.64,-359.96 485.37,-366.74"/>
</g>
<!-- Node20&#45;&gt;Node3 -->
<g id="edge34" class="edge">
<title>Node20&#45;&gt;Node3</title>
<path fill="none" stroke="midnightblue" d="M451.61,-228.71C450.81,-210.8 448.97,-169.69 447.88,-145.11"/>
<polygon fill="midnightblue" stroke="midnightblue" points="451.33,-145.08 447.39,-135.25 444.34,-145.39 451.33,-145.08"/>
</g>
<!-- Node21 -->
<g id="node21" class="node">
<title>Node21</title>
<g id="a_node21"><a xlink:title=" ">
<polygon fill="white" stroke="#bfbfbf" points="378,-171.5 378,-191.5 424,-191.5 424,-171.5 378,-171.5"/>
<text text-anchor="middle" x="401" y="-178" font-family="Arial" font-size="10.00">math.h</text>
</a>
</g>
</g>
<!-- Node20&#45;&gt;Node21 -->
<g id="edge27" class="edge">
<title>Node20&#45;&gt;Node21</title>
<path fill="none" stroke="midnightblue" d="M444.03,-228.91C436.66,-220.96 425.51,-208.94 416.41,-199.12"/>
<polygon fill="midnightblue" stroke="midnightblue" points="419.45,-197.17 410.08,-192.21 414.31,-201.93 419.45,-197.17"/>
</g>
<!-- Node22 -->
<g id="node22" class="node">
<title>Node22</title>
<g id="a_node22"><a xlink:href="_s_l_math_8h.html" target="_top" xlink:title=" ">
<polygon fill="white" stroke="black" points="627,-114.5 627,-134.5 685,-134.5 685,-114.5 627,-114.5"/>
<text text-anchor="middle" x="656" y="-121" font-family="Arial" font-size="10.00">SLMath.h</text>
</a>
</g>
</g>
<!-- Node20&#45;&gt;Node22 -->
<g id="edge28" class="edge">
<title>Node20&#45;&gt;Node22</title>
<path fill="none" stroke="midnightblue" d="M480.56,-234.23C512.9,-229.4 566.01,-217.94 604,-192 622.29,-179.51 637.11,-158.59 646.18,-143.55"/>
<polygon fill="midnightblue" stroke="midnightblue" points="649.57,-145.67 651.51,-135.25 643.5,-142.18 649.57,-145.67"/>
</g>
<!-- Node23 -->
<g id="node23" class="node">
<title>Node23</title>
<g id="a_node23"><a xlink:href="_s_l_vec2_8h.html" target="_top" xlink:title=" ">
<polygon fill="white" stroke="black" points="537.38,-171.5 537.38,-191.5 594.62,-191.5 594.62,-171.5 537.38,-171.5"/>
<text text-anchor="middle" x="566" y="-178" font-family="Arial" font-size="10.00">SLVec2.h</text>
</a>
</g>
</g>
<!-- Node20&#45;&gt;Node23 -->
<g id="edge31" class="edge">
<title>Node20&#45;&gt;Node23</title>
<path fill="none" stroke="midnightblue" d="M470.57,-228.54C488.79,-219.75 516.81,-206.23 537.78,-196.11"/>
<polygon fill="midnightblue" stroke="midnightblue" points="538.95,-198.95 546.44,-191.46 535.91,-192.65 538.95,-198.95"/>
</g>
<!-- Node22&#45;&gt;Node4 -->
<g id="edge30" class="edge">
<title>Node22&#45;&gt;Node4</title>
<path fill="none" stroke="midnightblue" d="M656.98,-114.88C658.05,-100.83 657.98,-72.95 643,-57 623.58,-36.32 544.09,-22.08 499.57,-15.55"/>
<polygon fill="midnightblue" stroke="midnightblue" points="500.19,-11.96 489.8,-14.02 499.21,-18.89 500.19,-11.96"/>
</g>
<!-- Node22&#45;&gt;Node5 -->
<g id="edge29" class="edge">
<title>Node22&#45;&gt;Node5</title>
<path fill="none" stroke="midnightblue" d="M649.12,-114.91C642.9,-107.12 633.54,-95.42 625.77,-85.71"/>
<polygon fill="midnightblue" stroke="midnightblue" points="627.95,-83.84 618.97,-78.21 622.49,-88.21 627.95,-83.84"/>
</g>
<!-- Node23&#45;&gt;Node3 -->
<g id="edge33" class="edge">
<title>Node23&#45;&gt;Node3</title>
<path fill="none" stroke="midnightblue" d="M546.62,-171.54C527.51,-162.71 498.08,-149.11 476.16,-138.98"/>
<polygon fill="midnightblue" stroke="midnightblue" points="477.92,-135.47 467.38,-134.46 474.98,-141.83 477.92,-135.47"/>
</g>
<!-- Node23&#45;&gt;Node22 -->
<g id="edge32" class="edge">
<title>Node23&#45;&gt;Node22</title>
<path fill="none" stroke="midnightblue" d="M580.46,-171.66C594.42,-163.13 615.79,-150.07 632.25,-140.01"/>
<polygon fill="midnightblue" stroke="midnightblue" points="633.57,-142.7 640.28,-134.5 629.92,-136.73 633.57,-142.7"/>
</g>
<!-- Node24&#45;&gt;Node2 -->
<g id="edge36" class="edge">
<title>Node24&#45;&gt;Node2</title>
<path fill="none" stroke="midnightblue" d="M242.74,-285.66C227.87,-277.05 205.02,-263.83 187.58,-253.73"/>
<polygon fill="midnightblue" stroke="midnightblue" points="189.95,-250.48 179.54,-248.5 186.44,-256.54 189.95,-250.48"/>
</g>
<!-- Node24&#45;&gt;Node3 -->
<g id="edge39" class="edge">
<title>Node24&#45;&gt;Node3</title>
<path fill="none" stroke="midnightblue" d="M258.46,-285.6C260.1,-263.09 267.55,-203.36 301,-171 331.64,-141.36 381.28,-131 414.03,-127.4"/>
<polygon fill="midnightblue" stroke="midnightblue" points="414.22,-130.8 423.85,-126.38 413.57,-123.83 414.22,-130.8"/>
</g>
<!-- Node24&#45;&gt;Node20 -->
<g id="edge38" class="edge">
<title>Node24&#45;&gt;Node20</title>
<path fill="none" stroke="midnightblue" d="M286.21,-286.5C319.59,-277.04 375.36,-261.23 412.9,-250.59"/>
<polygon fill="midnightblue" stroke="midnightblue" points="413.77,-253.69 422.44,-247.6 411.87,-246.96 413.77,-253.69"/>
</g>
<!-- Node24&#45;&gt;Node23 -->
<g id="edge37" class="edge">
<title>Node24&#45;&gt;Node23</title>
<path fill="none" stroke="midnightblue" d="M276.94,-285.61C306.02,-272.14 363.61,-246.22 414,-228 451.89,-214.3 496.1,-201.41 527.04,-192.86"/>
<polygon fill="midnightblue" stroke="midnightblue" points="527.67,-196.05 536.4,-190.03 525.83,-189.29 527.67,-196.05"/>
</g>
<!-- Node25&#45;&gt;Node3 -->
<g id="edge43" class="edge">
<title>Node25&#45;&gt;Node3</title>
<path fill="none" stroke="midnightblue" d="M495.48,-346.93C469.9,-341.42 432.95,-329.76 410,-306 372.59,-267.28 378.25,-245.04 369,-192 367.4,-182.81 364.35,-179.09 369,-171 378.89,-153.78 398.1,-142.46 414.98,-135.41"/>
<polygon fill="midnightblue" stroke="midnightblue" points="415.98,-138.4 424.08,-131.57 413.49,-131.85 415.98,-138.4"/>
</g>
<!-- Node25&#45;&gt;Node20 -->
<g id="edge50" class="edge">
<title>Node25&#45;&gt;Node20</title>
<path fill="none" stroke="midnightblue" d="M518.35,-342.71C506.57,-324.39 479.2,-281.81 463.54,-257.45"/>
<polygon fill="midnightblue" stroke="midnightblue" points="465.98,-255.77 457.62,-249.25 460.09,-259.55 465.98,-255.77"/>
</g>
<!-- Node25&#45;&gt;Node22 -->
<g id="edge41" class="edge">
<title>Node25&#45;&gt;Node22</title>
<path fill="none" stroke="midnightblue" d="M552.83,-350.51C647.15,-347.01 942.41,-333.91 974,-306 1021.09,-264.39 987.64,-200.2 932,-171 891.55,-149.77 761.52,-135.17 695.4,-128.92"/>
<polygon fill="midnightblue" stroke="midnightblue" points="695.87,-125.36 685.59,-127.92 695.23,-132.33 695.87,-125.36"/>
</g>
<!-- Node25&#45;&gt;Node24 -->
<g id="edge51" class="edge">
<title>Node25&#45;&gt;Node24</title>
<path fill="none" stroke="midnightblue" d="M495.1,-345.76C452.56,-337.27 370.57,-320.78 301,-306 299.65,-305.71 298.28,-305.42 296.9,-305.12"/>
<polygon fill="midnightblue" stroke="midnightblue" points="297.72,-301.5 287.2,-302.8 296.23,-308.34 297.72,-301.5"/>
</g>
<!-- Node26 -->
<g id="node26" class="node">
<title>Node26</title>
<g id="a_node26"><a xlink:title=" ">
<polygon fill="white" stroke="#bfbfbf" points="419,-285.5 419,-305.5 459,-305.5 459,-285.5 419,-285.5"/>
<text text-anchor="middle" x="439" y="-292" font-family="Arial" font-size="10.00">stack</text>
</a>
</g>
</g>
<!-- Node25&#45;&gt;Node26 -->
<g id="edge42" class="edge">
<title>Node25&#45;&gt;Node26</title>
<path fill="none" stroke="midnightblue" d="M510.34,-342.66C497.29,-334.21 477.35,-321.31 461.87,-311.3"/>
<polygon fill="midnightblue" stroke="midnightblue" points="464.2,-307.99 453.91,-305.5 460.4,-313.87 464.2,-307.99"/>
</g>
<!-- Node27 -->
<g id="node27" class="node">
<title>Node27</title>
<g id="a_node27"><a xlink:href="_s_l_mat3_8h.html" target="_top" xlink:title=" ">
<polygon fill="white" stroke="black" points="907,-285.5 907,-305.5 965,-305.5 965,-285.5 907,-285.5"/>
<text text-anchor="middle" x="936" y="-292" font-family="Arial" font-size="10.00">SLMat3.h</text>
</a>
</g>
</g>
<!-- Node25&#45;&gt;Node27 -->
<g id="edge44" class="edge">
<title>Node25&#45;&gt;Node27</title>
<path fill="none" stroke="midnightblue" d="M552.97,-347.63C625.29,-337.98 813.87,-312.8 896.38,-301.79"/>
<polygon fill="midnightblue" stroke="midnightblue" points="896.61,-305.16 906.06,-300.36 895.69,-298.22 896.61,-305.16"/>
</g>
<!-- Node30 -->
<g id="node30" class="node">
<title>Node30</title>
<g id="a_node30"><a xlink:title=" ">
<polygon fill="white" stroke="#bfbfbf" points="514.88,-285.5 514.88,-305.5 563.12,-305.5 563.12,-285.5 514.88,-285.5"/>
<text text-anchor="middle" x="539" y="-292" font-family="Arial" font-size="10.00">cassert</text>
</a>
</g>
</g>
<!-- Node25&#45;&gt;Node30 -->
<g id="edge52" class="edge">
<title>Node25&#45;&gt;Node30</title>
<path fill="none" stroke="midnightblue" d="M526.34,-342.91C528.34,-335.6 531.27,-324.85 533.81,-315.54"/>
<polygon fill="midnightblue" stroke="midnightblue" points="537.37,-316.78 536.62,-306.21 530.62,-314.94 537.37,-316.78"/>
</g>
<!-- Node31 -->
<g id="node31" class="node">
<title>Node31</title>
<g id="a_node31"><a xlink:title=" ">
<polygon fill="white" stroke="#bfbfbf" points="580.88,-285.5 580.88,-305.5 707.12,-305.5 707.12,-285.5 580.88,-285.5"/>
<text text-anchor="middle" x="644" y="-292" font-family="Arial" font-size="10.00">Shoemake/Decompose.h</text>
</a>
</g>
</g>
<!-- Node25&#45;&gt;Node31 -->
<g id="edge53" class="edge">
<title>Node25&#45;&gt;Node31</title>
<path fill="none" stroke="midnightblue" d="M543.55,-342.54C562.81,-333.71 592.49,-320.11 614.6,-309.98"/>
<polygon fill="midnightblue" stroke="midnightblue" points="615.83,-312.8 623.46,-305.46 612.91,-306.44 615.83,-312.8"/>
</g>
<!-- Node32 -->
<g id="node32" class="node">
<title>Node32</title>
<g id="a_node32"><a xlink:title=" ">
<polygon fill="white" stroke="#bfbfbf" points="724.88,-285.5 724.88,-305.5 851.12,-305.5 851.12,-285.5 724.88,-285.5"/>
<text text-anchor="middle" x="788" y="-292" font-family="Arial" font-size="10.00">Shoemake/EulerAngles.h</text>
</a>
</g>
</g>
<!-- Node25&#45;&gt;Node32 -->
<g id="edge54" class="edge">
<title>Node25&#45;&gt;Node32</title>
<path fill="none" stroke="midnightblue" d="M552.76,-345.51C596.23,-336.45 679.43,-319.12 734.32,-307.68"/>
<polygon fill="midnightblue" stroke="midnightblue" points="734.82,-310.95 743.9,-305.48 733.4,-304.09 734.82,-310.95"/>
</g>
<!-- Node27&#45;&gt;Node3 -->
<g id="edge46" class="edge">
<title>Node27&#45;&gt;Node3</title>
<path fill="none" stroke="midnightblue" d="M907.05,-288C819.69,-268.28 562.57,-209.42 528,-192 502.5,-179.15 477.82,-157.06 462.55,-141.89"/>
<polygon fill="midnightblue" stroke="midnightblue" points="465.58,-139.97 456.08,-135.28 460.58,-144.87 465.58,-139.97"/>
</g>
<!-- Node27&#45;&gt;Node20 -->
<g id="edge47" class="edge">
<title>Node27&#45;&gt;Node20</title>
<path fill="none" stroke="midnightblue" d="M907.41,-287.65C902.62,-286.66 897.68,-285.73 893,-285 717.49,-257.79 670.51,-276.21 495,-249 493.68,-248.8 492.35,-248.58 491,-248.34"/>
<polygon fill="midnightblue" stroke="midnightblue" points="492.07,-244.79 481.59,-246.35 490.75,-251.67 492.07,-244.79"/>
</g>
<!-- Node27&#45;&gt;Node22 -->
<g id="edge45" class="edge">
<title>Node27&#45;&gt;Node22</title>
<path fill="none" stroke="midnightblue" d="M946.58,-285.86C961.38,-272.72 984.95,-247.21 971,-228 906.98,-139.84 765.2,-126.03 695.81,-124.81"/>
<polygon fill="midnightblue" stroke="midnightblue" points="695.95,-121.3 685.92,-124.71 695.89,-128.3 695.95,-121.3"/>
</g>
<!-- Node28 -->
<g id="node28" class="node">
<title>Node28</title>
<g id="a_node28"><a xlink:title=" ">
<polygon fill="white" stroke="#bfbfbf" points="839.25,-228.5 839.25,-248.5 892.75,-248.5 892.75,-228.5 839.25,-228.5"/>
<text text-anchor="middle" x="866" y="-235" font-family="Arial" font-size="10.00">iostream</text>
</a>
</g>
</g>
<!-- Node27&#45;&gt;Node28 -->
<g id="edge48" class="edge">
<title>Node27&#45;&gt;Node28</title>
<path fill="none" stroke="midnightblue" d="M924.75,-285.66C914.3,-277.45 898.51,-265.04 885.92,-255.15"/>
<polygon fill="midnightblue" stroke="midnightblue" points="888.48,-251.92 878.45,-248.5 884.15,-257.43 888.48,-251.92"/>
</g>
<!-- Node29 -->
<g id="node29" class="node">
<title>Node29</title>
<g id="a_node29"><a xlink:title=" ">
<polygon fill="white" stroke="#bfbfbf" points="910.38,-228.5 910.38,-248.5 961.62,-248.5 961.62,-228.5 910.38,-228.5"/>
<text text-anchor="middle" x="936" y="-235" font-family="Arial" font-size="10.00">assert.h</text>
</a>
</g>
</g>
<!-- Node27&#45;&gt;Node29 -->
<g id="edge49" class="edge">
<title>Node27&#45;&gt;Node29</title>
<path fill="none" stroke="midnightblue" d="M936,-285.91C936,-278.76 936,-268.32 936,-259.15"/>
<polygon fill="midnightblue" stroke="midnightblue" points="939.5,-259.21 936,-249.21 932.5,-259.21 939.5,-259.21"/>
</g>
<!-- Node33&#45;&gt;Node18 -->
<g id="edge56" class="edge">
<title>Node33&#45;&gt;Node18</title>
<path fill="none" stroke="midnightblue" d="M397.97,-513.66C381.22,-504.97 355.41,-491.58 335.89,-481.45"/>
<polygon fill="midnightblue" stroke="midnightblue" points="337.83,-478 327.34,-476.5 334.6,-484.21 337.83,-478"/>
</g>
<!-- Node33&#45;&gt;Node20 -->
<g id="edge58" class="edge">
<title>Node33&#45;&gt;Node20</title>
<path fill="none" stroke="midnightblue" d="M413.91,-513.56C409.4,-475.59 393.29,-327.73 410,-285 414.46,-273.59 423.28,-263.31 431.69,-255.43"/>
<polygon fill="midnightblue" stroke="midnightblue" points="433.53,-257.59 438.78,-248.39 428.94,-252.31 433.53,-257.59"/>
</g>
<!-- Node33&#45;&gt;Node23 -->
<g id="edge57" class="edge">
<title>Node33&#45;&gt;Node23</title>
<path fill="none" stroke="midnightblue" d="M465.37,-520.68C579.28,-513.53 855.92,-478.36 974,-306 983.41,-292.26 992.1,-250.39 971,-228 946.17,-201.66 702.23,-188.35 605.36,-184.08"/>
<polygon fill="midnightblue" stroke="midnightblue" points="605.7,-180.55 595.56,-183.61 605.4,-187.54 605.7,-180.55"/>
</g>
<!-- Node33&#45;&gt;Node24 -->
<g id="edge59" class="edge">
<title>Node33&#45;&gt;Node24</title>
<path fill="none" stroke="midnightblue" d="M411.67,-513.63C403.58,-492.65 381.5,-438.71 354,-399 330.68,-365.33 296.62,-331.71 275.97,-312.57"/>
<polygon fill="midnightblue" stroke="midnightblue" points="278.75,-310.46 269,-306.3 274.03,-315.63 278.75,-310.46"/>
</g>
</g>
</svg>
