<?xml version="1.0" encoding="UTF-8" standalone="no"?>
<!DOCTYPE svg PUBLIC "-//W3C//DTD SVG 1.1//EN"
 "http://www.w3.org/Graphics/SVG/1.1/DTD/svg11.dtd">
<!-- Generated by graphviz version 2.28.0 (20110507.0327)
 -->
<!-- Title: SLAnimManager.h Pages: 1 -->
<svg width="767pt" height="533pt"
 viewBox="0.00 0.00 766.98 532.92" xmlns="http://www.w3.org/2000/svg" xmlns:xlink="http://www.w3.org/1999/xlink">
<g id="graph1" class="graph" transform="scale(1 1) rotate(0) translate(4 528.917)">
<title>SLAnimManager.h</title>
<polygon fill="white" stroke="white" points="-4,5 -4,-528.917 763.982,-528.917 763.982,5 -4,5"/>
<!-- Node1 -->
<g id="node1" class="node"><title>Node1</title>
<polygon fill="#bfbfbf" stroke="black" points="167.975,-504.5 167.975,-523.5 271.975,-523.5 271.975,-504.5 167.975,-504.5"/>
<text text-anchor="middle" x="219.975" y="-511.5" font-family="Arial.ttf" font-size="10.00">SLAnimManager.h</text>
</g>
<!-- Node1&#45;&gt;Node1 -->
<g id="edge64" class="edge"><title>Node1&#45;&gt;Node1</title>
<path fill="none" stroke="midnightblue" d="M249.83,-523.525C270.115,-526.308 289.975,-523.133 289.975,-514 289.975,-506.437 276.355,-502.96 260.153,-503.568"/>
<polygon fill="midnightblue" stroke="midnightblue" points="259.485,-500.113 249.83,-504.475 260.098,-507.086 259.485,-500.113"/>
</g>
<!-- Node2 -->
<g id="node3" class="node"><title>Node2</title>
<polygon fill="white" stroke="#bfbfbf" points="347.475,-0.5 347.475,-19.5 402.475,-19.5 402.475,-0.5 347.475,-0.5"/>
<text text-anchor="middle" x="374.975" y="-7.5" font-family="Arial.ttf" font-size="10.00">stdafx.h</text>
</g>
<!-- Node1&#45;&gt;Node2 -->
<g id="edge2" class="edge"><title>Node1&#45;&gt;Node2</title>
<path fill="none" stroke="midnightblue" d="M167.797,-509.261C103.021,-501.452 0.974606,-477.352 0.974606,-403 0.974606,-403 0.974606,-403 0.974606,-121 0.974606,-90.9022 -2.92382,-75.533 19.9746,-56 67.0179,-15.8707 255.549,-10.9406 337.085,-10.7326"/>
<polygon fill="midnightblue" stroke="midnightblue" points="337.399,-14.2327 347.398,-10.7304 337.397,-7.23266 337.399,-14.2327"/>
</g>
<!-- Node3 -->
<g id="node5" class="node"><title>Node3</title>
<a xlink:href="_s_l_animation_8h.html" target="_top" xlink:title="SLAnimation.h">
<polygon fill="white" stroke="black" points="140.975,-392.5 140.975,-411.5 226.975,-411.5 226.975,-392.5 140.975,-392.5"/>
<text text-anchor="middle" x="183.975" y="-399.5" font-family="Arial.ttf" font-size="10.00">SLAnimation.h</text>
</a>
</g>
<!-- Node1&#45;&gt;Node3 -->
<g id="edge4" class="edge"><title>Node1&#45;&gt;Node3</title>
<path fill="none" stroke="midnightblue" d="M217.15,-504.368C211.314,-486.537 197.817,-445.295 189.954,-421.272"/>
<polygon fill="midnightblue" stroke="midnightblue" points="193.223,-420.007 186.786,-411.591 186.57,-422.184 193.223,-420.007"/>
</g>
<!-- Node15 -->
<g id="node48" class="node"><title>Node15</title>
<a xlink:href="_s_l_anim_playback_8h.html" target="_top" xlink:title="SLAnimPlayback.h">
<polygon fill="white" stroke="black" points="358.975,-336.5 358.975,-355.5 462.975,-355.5 462.975,-336.5 358.975,-336.5"/>
<text text-anchor="middle" x="410.975" y="-343.5" font-family="Arial.ttf" font-size="10.00">SLAnimPlayback.h</text>
</a>
</g>
<!-- Node1&#45;&gt;Node15 -->
<g id="edge66" class="edge"><title>Node1&#45;&gt;Node15</title>
<path fill="none" stroke="midnightblue" d="M240.536,-504.479C258.337,-496.541 284.252,-483.602 303.975,-468 343.758,-436.529 380.743,-389.119 399.021,-364.008"/>
<polygon fill="midnightblue" stroke="midnightblue" points="402.098,-365.723 405.077,-355.556 396.408,-361.646 402.098,-365.723"/>
</g>
<!-- Node16 -->
<g id="node52" class="node"><title>Node16</title>
<a xlink:href="_s_l_skeleton_8h.html" target="_top" xlink:title="SLSkeleton.h">
<polygon fill="white" stroke="black" points="214.975,-448.5 214.975,-467.5 294.975,-467.5 294.975,-448.5 214.975,-448.5"/>
<text text-anchor="middle" x="254.975" y="-455.5" font-family="Arial.ttf" font-size="10.00">SLSkeleton.h</text>
</a>
</g>
<!-- Node1&#45;&gt;Node16 -->
<g id="edge72" class="edge"><title>Node1&#45;&gt;Node16</title>
<path fill="none" stroke="midnightblue" d="M225.754,-504.083C230.647,-496.534 237.802,-485.495 243.807,-476.23"/>
<polygon fill="midnightblue" stroke="midnightblue" points="246.801,-478.046 249.303,-467.751 240.927,-474.239 246.801,-478.046"/>
</g>
<!-- Node3&#45;&gt;Node2 -->
<g id="edge6" class="edge"><title>Node3&#45;&gt;Node2</title>
<path fill="none" stroke="midnightblue" d="M183.321,-392.448C181.966,-373.954 178.975,-328.852 178.975,-291 178.975,-291 178.975,-291 178.975,-121 178.975,-90.2048 180.161,-76.685 202.975,-56 239.866,-22.5516 298.57,-13.3898 336.942,-11.1878"/>
<polygon fill="midnightblue" stroke="midnightblue" points="337.355,-14.6731 347.191,-10.7369 337.047,-7.67989 337.355,-14.6731"/>
</g>
<!-- Node4 -->
<g id="node8" class="node"><title>Node4</title>
<a xlink:href="_s_l_anim_track_8h.html" target="_top" xlink:title="SLAnimTrack.h">
<polygon fill="white" stroke="black" points="62.9746,-224.5 62.9746,-243.5 150.975,-243.5 150.975,-224.5 62.9746,-224.5"/>
<text text-anchor="middle" x="106.975" y="-231.5" font-family="Arial.ttf" font-size="10.00">SLAnimTrack.h</text>
</a>
</g>
<!-- Node3&#45;&gt;Node4 -->
<g id="edge8" class="edge"><title>Node3&#45;&gt;Node4</title>
<path fill="none" stroke="midnightblue" d="M179.835,-392.075C167.609,-365.719 131.502,-287.878 115.167,-252.661"/>
<polygon fill="midnightblue" stroke="midnightblue" points="118.332,-251.167 110.949,-243.568 111.982,-254.112 118.332,-251.167"/>
</g>
<!-- Node5 -->
<g id="node11" class="node"><title>Node5</title>
<a xlink:href="_s_l_enums_8h.html" target="_top" xlink:title="SLEnums.h">
<polygon fill="white" stroke="black" points="245.475,-168.5 245.475,-187.5 316.475,-187.5 316.475,-168.5 245.475,-168.5"/>
<text text-anchor="middle" x="280.975" y="-175.5" font-family="Arial.ttf" font-size="10.00">SLEnums.h</text>
</a>
</g>
<!-- Node3&#45;&gt;Node5 -->
<g id="edge62" class="edge"><title>Node3&#45;&gt;Node5</title>
<path fill="none" stroke="midnightblue" d="M187.777,-392.297C202.14,-359.425 253.277,-242.391 273.07,-197.09"/>
<polygon fill="midnightblue" stroke="midnightblue" points="276.296,-198.449 277.093,-187.884 269.882,-195.646 276.296,-198.449"/>
</g>
<!-- Node7 -->
<g id="node17" class="node"><title>Node7</title>
<a xlink:href="_s_l_joint_8h.html" target="_top" xlink:title="SLJoint.h">
<polygon fill="white" stroke="black" points="282.975,-336.5 282.975,-355.5 340.975,-355.5 340.975,-336.5 282.975,-336.5"/>
<text text-anchor="middle" x="311.975" y="-343.5" font-family="Arial.ttf" font-size="10.00">SLJoint.h</text>
</a>
</g>
<!-- Node3&#45;&gt;Node7 -->
<g id="edge20" class="edge"><title>Node3&#45;&gt;Node7</title>
<path fill="none" stroke="midnightblue" d="M204.257,-392.444C225.322,-383.557 258.491,-369.563 282.46,-359.451"/>
<polygon fill="midnightblue" stroke="midnightblue" points="283.934,-362.628 291.788,-355.516 281.213,-356.179 283.934,-362.628"/>
</g>
<!-- Node4&#45;&gt;Node2 -->
<g id="edge10" class="edge"><title>Node4&#45;&gt;Node2</title>
<path fill="none" stroke="midnightblue" d="M108.609,-224.461C114.919,-192.379 138.651,-79.6821 164.975,-56 189.922,-33.5562 283.608,-20.4267 337.035,-14.6091"/>
<polygon fill="midnightblue" stroke="midnightblue" points="337.574,-18.0718 347.152,-13.5425 336.84,-11.1104 337.574,-18.0718"/>
</g>
<!-- Node4&#45;&gt;Node5 -->
<g id="edge12" class="edge"><title>Node4&#45;&gt;Node5</title>
<path fill="none" stroke="midnightblue" d="M134.545,-224.444C164.072,-215.28 211.092,-200.688 243.857,-190.519"/>
<polygon fill="midnightblue" stroke="midnightblue" points="245.02,-193.823 253.533,-187.516 242.945,-187.138 245.02,-193.823"/>
</g>
<!-- Node6 -->
<g id="node14" class="node"><title>Node6</title>
<a xlink:href="_s_l_keyframe_8h.html" target="_top" xlink:title="SLKeyframe.h">
<polygon fill="white" stroke="black" points="29.4746,-56.5 29.4746,-75.5 112.475,-75.5 112.475,-56.5 29.4746,-56.5"/>
<text text-anchor="middle" x="70.9746" y="-63.5" font-family="Arial.ttf" font-size="10.00">SLKeyframe.h</text>
</a>
</g>
<!-- Node4&#45;&gt;Node6 -->
<g id="edge16" class="edge"><title>Node4&#45;&gt;Node6</title>
<path fill="none" stroke="midnightblue" d="M105.039,-224.075C99.3724,-197.945 82.7311,-121.211 75.0034,-85.577"/>
<polygon fill="midnightblue" stroke="midnightblue" points="78.3727,-84.5991 72.8328,-75.5681 71.5317,-86.0828 78.3727,-84.5991"/>
</g>
<!-- Node5&#45;&gt;Node2 -->
<g id="edge14" class="edge"><title>Node5&#45;&gt;Node2</title>
<path fill="none" stroke="midnightblue" d="M277.811,-168.217C270.759,-146.988 256.095,-91.9935 278.975,-56 291.846,-35.7504 316.501,-24.4552 337.601,-18.2456"/>
<polygon fill="midnightblue" stroke="midnightblue" points="338.536,-21.6188 347.298,-15.6627 336.734,-14.8547 338.536,-21.6188"/>
</g>
<!-- Node6&#45;&gt;Node2 -->
<g id="edge18" class="edge"><title>Node6&#45;&gt;Node2</title>
<path fill="none" stroke="midnightblue" d="M112.607,-57.6048C172.004,-47.054 280.185,-27.8376 337.314,-17.6897"/>
<polygon fill="midnightblue" stroke="midnightblue" points="338.13,-21.0997 347.364,-15.9046 336.906,-14.2075 338.13,-21.0997"/>
</g>
<!-- Node7&#45;&gt;Node2 -->
<g id="edge22" class="edge"><title>Node7&#45;&gt;Node2</title>
<path fill="none" stroke="midnightblue" d="M341.338,-338.017C390.068,-326.416 483.81,-304.042 498.975,-300 598.315,-273.521 720.975,-337.809 720.975,-235 720.975,-235 720.975,-235 720.975,-121 720.975,-56.8823 502.455,-25.2027 412.734,-14.8977"/>
<polygon fill="midnightblue" stroke="midnightblue" points="413.032,-11.4092 402.704,-13.7735 412.252,-18.3657 413.032,-11.4092"/>
</g>
<!-- Node8 -->
<g id="node20" class="node"><title>Node8</title>
<a xlink:href="_s_l_node_8h.html" target="_top" xlink:title="SLNode.h">
<polygon fill="white" stroke="black" points="409.475,-280.5 409.475,-299.5 472.475,-299.5 472.475,-280.5 409.475,-280.5"/>
<text text-anchor="middle" x="440.975" y="-287.5" font-family="Arial.ttf" font-size="10.00">SLNode.h</text>
</a>
</g>
<!-- Node7&#45;&gt;Node8 -->
<g id="edge24" class="edge"><title>Node7&#45;&gt;Node8</title>
<path fill="none" stroke="midnightblue" d="M332.415,-336.444C353.645,-327.557 387.074,-313.563 411.23,-303.451"/>
<polygon fill="midnightblue" stroke="midnightblue" points="412.757,-306.606 420.63,-299.516 410.054,-300.149 412.757,-306.606"/>
</g>
<!-- Node8&#45;&gt;Node2 -->
<g id="edge26" class="edge"><title>Node8&#45;&gt;Node2</title>
<path fill="none" stroke="midnightblue" d="M472.96,-282.462C497.11,-276.127 529.771,-264.399 551.975,-244 575.833,-222.08 584.975,-211.399 584.975,-179 584.975,-179 584.975,-179 584.975,-121 584.975,-44.1599 473.282,-20.8922 412.81,-13.9257"/>
<polygon fill="midnightblue" stroke="midnightblue" points="413.174,-10.4447 402.861,-12.8731 412.437,-17.4059 413.174,-10.4447"/>
</g>
<!-- Node8&#45;&gt;Node5 -->
<g id="edge28" class="edge"><title>Node8&#45;&gt;Node5</title>
<path fill="none" stroke="midnightblue" d="M419.389,-280.482C400.297,-272.458 372.117,-259.39 349.975,-244 329.415,-229.71 308.922,-209.447 295.678,-195.359"/>
<polygon fill="midnightblue" stroke="midnightblue" points="298.124,-192.848 288.773,-187.869 292.978,-197.593 298.124,-192.848"/>
</g>
<!-- Node8&#45;&gt;Node8 -->
<g id="edge50" class="edge"><title>Node8&#45;&gt;Node8</title>
<path fill="none" stroke="midnightblue" d="M461.873,-299.525C476.073,-302.308 489.975,-299.133 489.975,-290 489.975,-283.079 481.991,-279.579 471.945,-279.501"/>
<polygon fill="midnightblue" stroke="midnightblue" points="471.49,-276.029 461.873,-280.475 472.164,-282.996 471.49,-276.029"/>
</g>
<!-- Node9 -->
<g id="node24" class="node"><title>Node9</title>
<a xlink:href="_s_l_mesh_8h.html" target="_top" xlink:title="SLMesh.h">
<polygon fill="white" stroke="black" points="359.475,-224.5 359.475,-243.5 422.475,-243.5 422.475,-224.5 359.475,-224.5"/>
<text text-anchor="middle" x="390.975" y="-231.5" font-family="Arial.ttf" font-size="10.00">SLMesh.h</text>
</a>
</g>
<!-- Node8&#45;&gt;Node9 -->
<g id="edge30" class="edge"><title>Node8&#45;&gt;Node9</title>
<path fill="none" stroke="midnightblue" d="M432.718,-280.083C425.51,-272.298 414.865,-260.801 406.129,-251.367"/>
<polygon fill="midnightblue" stroke="midnightblue" points="408.44,-248.711 399.077,-243.751 403.303,-253.467 408.44,-248.711"/>
</g>
<!-- Node13 -->
<g id="node39" class="node"><title>Node13</title>
<a xlink:href="_s_l_draw_bits_8h.html" target="_top" xlink:title="SLDrawBits.h">
<polygon fill="white" stroke="black" points="612.975,-112.5 612.975,-131.5 692.975,-131.5 692.975,-112.5 612.975,-112.5"/>
<text text-anchor="middle" x="652.975" y="-119.5" font-family="Arial.ttf" font-size="10.00">SLDrawBits.h</text>
</a>
</g>
<!-- Node8&#45;&gt;Node13 -->
<g id="edge52" class="edge"><title>Node8&#45;&gt;Node13</title>
<path fill="none" stroke="midnightblue" d="M472.564,-287.725C507.387,-284.728 563.201,-275.014 598.975,-244 630.153,-216.97 644.15,-168.413 649.737,-141.767"/>
<polygon fill="midnightblue" stroke="midnightblue" points="653.199,-142.295 651.642,-131.815 646.324,-140.979 653.199,-142.295"/>
</g>
<!-- Node14 -->
<g id="node42" class="node"><title>Node14</title>
<a xlink:href="_s_l_event_handler_8h.html" target="_top" xlink:title="SLEventHandler.h">
<polygon fill="white" stroke="black" points="440.975,-224.5 440.975,-243.5 542.975,-243.5 542.975,-224.5 440.975,-224.5"/>
<text text-anchor="middle" x="491.975" y="-231.5" font-family="Arial.ttf" font-size="10.00">SLEventHandler.h</text>
</a>
</g>
<!-- Node8&#45;&gt;Node14 -->
<g id="edge56" class="edge"><title>Node8&#45;&gt;Node14</title>
<path fill="none" stroke="midnightblue" d="M449.396,-280.083C456.823,-272.22 467.826,-260.569 476.787,-251.081"/>
<polygon fill="midnightblue" stroke="midnightblue" points="479.388,-253.424 483.71,-243.751 474.299,-248.618 479.388,-253.424"/>
</g>
<!-- Node9&#45;&gt;Node2 -->
<g id="edge32" class="edge"><title>Node9&#45;&gt;Node2</title>
<path fill="none" stroke="midnightblue" d="M383.996,-224.416C377.068,-215.631 366.432,-201.403 358.975,-188 332.728,-140.827 322.629,-128.921 311.975,-76 310.22,-67.2859 307.907,-63.9037 311.975,-56 319.052,-42.2475 332.496,-31.7663 345.152,-24.3942"/>
<polygon fill="midnightblue" stroke="midnightblue" points="346.974,-27.3888 354.127,-19.5733 343.661,-21.2221 346.974,-27.3888"/>
</g>
<!-- Node9&#45;&gt;Node5 -->
<g id="edge48" class="edge"><title>Node9&#45;&gt;Node5</title>
<path fill="none" stroke="midnightblue" d="M373.301,-224.324C355.58,-215.625 328.071,-202.12 307.686,-192.113"/>
<polygon fill="midnightblue" stroke="midnightblue" points="309.123,-188.919 298.604,-187.655 306.038,-195.203 309.123,-188.919"/>
</g>
<!-- Node10 -->
<g id="node27" class="node"><title>Node10</title>
<a xlink:href="_s_l_a_a_b_box_8h.html" target="_top" xlink:title="SLAABBox.h">
<polygon fill="white" stroke="black" points="410.975,-168.5 410.975,-187.5 486.975,-187.5 486.975,-168.5 410.975,-168.5"/>
<text text-anchor="middle" x="448.975" y="-175.5" font-family="Arial.ttf" font-size="10.00">SLAABBox.h</text>
</a>
</g>
<!-- Node9&#45;&gt;Node10 -->
<g id="edge34" class="edge"><title>Node9&#45;&gt;Node10</title>
<path fill="none" stroke="midnightblue" d="M400.293,-224.324C408.867,-216.341 421.787,-204.313 432.162,-194.653"/>
<polygon fill="midnightblue" stroke="midnightblue" points="434.552,-197.21 439.486,-187.834 429.782,-192.086 434.552,-197.21"/>
</g>
<!-- Node12 -->
<g id="node33" class="node"><title>Node12</title>
<a xlink:href="_s_l_g_l_vertex_array_8h.html" target="_top" xlink:title="SLGLVertexArray.h">
<polygon fill="white" stroke="black" points="321.475,-56.5 321.475,-75.5 428.475,-75.5 428.475,-56.5 321.475,-56.5"/>
<text text-anchor="middle" x="374.975" y="-63.5" font-family="Arial.ttf" font-size="10.00">SLGLVertexArray.h</text>
</a>
</g>
<!-- Node9&#45;&gt;Node12 -->
<g id="edge46" class="edge"><title>Node9&#45;&gt;Node12</title>
<path fill="none" stroke="midnightblue" d="M386.163,-224.438C376.928,-207.456 357.009,-168.033 349.975,-132 348.271,-123.276 347.745,-120.605 349.975,-112 352.52,-102.175 357.727,-92.2118 362.733,-84.166"/>
<polygon fill="midnightblue" stroke="midnightblue" points="365.723,-85.9903 368.346,-75.7252 359.894,-82.1143 365.723,-85.9903"/>
</g>
<!-- Node10&#45;&gt;Node2 -->
<g id="edge36" class="edge"><title>Node10&#45;&gt;Node2</title>
<path fill="none" stroke="midnightblue" d="M460.515,-168.49C470.454,-160.379 484.097,-147.178 489.975,-132 493.184,-123.711 492.533,-120.513 489.975,-112 481.389,-83.4314 474.697,-76.4449 452.975,-56 438.927,-42.779 420.301,-31.8486 404.772,-24.0721"/>
<polygon fill="midnightblue" stroke="midnightblue" points="406.102,-20.8276 395.573,-19.6454 403.066,-27.1354 406.102,-20.8276"/>
</g>
<!-- Node11 -->
<g id="node30" class="node"><title>Node11</title>
<a xlink:href="_s_l_g_l_vertex_array_ext_8h.html" target="_top" xlink:title="SLGLVertexArrayExt.h">
<polygon fill="white" stroke="black" points="358.975,-112.5 358.975,-131.5 480.975,-131.5 480.975,-112.5 358.975,-112.5"/>
<text text-anchor="middle" x="419.975" y="-119.5" font-family="Arial.ttf" font-size="10.00">SLGLVertexArrayExt.h</text>
</a>
</g>
<!-- Node10&#45;&gt;Node11 -->
<g id="edge38" class="edge"><title>Node10&#45;&gt;Node11</title>
<path fill="none" stroke="midnightblue" d="M444.186,-168.083C440.216,-160.691 434.45,-149.953 429.54,-140.811"/>
<polygon fill="midnightblue" stroke="midnightblue" points="432.489,-138.905 424.674,-131.751 426.322,-142.217 432.489,-138.905"/>
</g>
<!-- Node11&#45;&gt;Node2 -->
<g id="edge40" class="edge"><title>Node11&#45;&gt;Node2</title>
<path fill="none" stroke="midnightblue" d="M426.101,-112.161C434.232,-99.2411 446.511,-74.705 436.975,-56 429.975,-42.2698 416.609,-31.7496 404.074,-24.3465"/>
<polygon fill="midnightblue" stroke="midnightblue" points="405.652,-21.2204 395.197,-19.5055 402.301,-27.366 405.652,-21.2204"/>
</g>
<!-- Node11&#45;&gt;Node12 -->
<g id="edge42" class="edge"><title>Node11&#45;&gt;Node12</title>
<path fill="none" stroke="midnightblue" d="M412.544,-112.083C406.122,-104.377 396.669,-93.0333 388.852,-83.6531"/>
<polygon fill="midnightblue" stroke="midnightblue" points="391.358,-81.1927 382.267,-75.7511 385.98,-85.674 391.358,-81.1927"/>
</g>
<!-- Node12&#45;&gt;Node2 -->
<g id="edge44" class="edge"><title>Node12&#45;&gt;Node2</title>
<path fill="none" stroke="midnightblue" d="M374.975,-56.083C374.975,-49.0059 374.975,-38.8611 374.975,-29.9865"/>
<polygon fill="midnightblue" stroke="midnightblue" points="378.475,-29.751 374.975,-19.7511 371.475,-29.7511 378.475,-29.751"/>
</g>
<!-- Node13&#45;&gt;Node2 -->
<g id="edge54" class="edge"><title>Node13&#45;&gt;Node2</title>
<path fill="none" stroke="midnightblue" d="M648.327,-112.214C640.296,-97.9588 622.409,-69.9808 598.975,-56 540.387,-21.0467 459.415,-12.7479 412.581,-11.0653"/>
<polygon fill="midnightblue" stroke="midnightblue" points="412.658,-7.56615 402.565,-10.7884 412.465,-14.5635 412.658,-7.56615"/>
</g>
<!-- Node14&#45;&gt;Node2 -->
<g id="edge58" class="edge"><title>Node14&#45;&gt;Node2</title>
<path fill="none" stroke="midnightblue" d="M495.028,-224.363C501.666,-204.338 516.034,-153.298 505.975,-112 499.342,-84.7679 497.402,-75.1917 476.975,-56 458.83,-38.9529 433.168,-27.6758 412.124,-20.6742"/>
<polygon fill="midnightblue" stroke="midnightblue" points="413.11,-17.3155 402.521,-17.6633 411.016,-23.9949 413.11,-17.3155"/>
</g>
<!-- Node14&#45;&gt;Node5 -->
<g id="edge60" class="edge"><title>Node14&#45;&gt;Node5</title>
<path fill="none" stroke="midnightblue" d="M458.541,-224.444C422.118,-215.122 363.744,-200.183 323.945,-189.997"/>
<polygon fill="midnightblue" stroke="midnightblue" points="324.807,-186.605 314.252,-187.516 323.072,-193.387 324.807,-186.605"/>
</g>
<!-- Node15&#45;&gt;Node2 -->
<g id="edge68" class="edge"><title>Node15&#45;&gt;Node2</title>
<path fill="none" stroke="midnightblue" d="M463.127,-344.116C543.885,-341.719 694.158,-332.842 734.975,-300 758.968,-280.695 758.975,-265.795 758.975,-235 758.975,-235 758.975,-235 758.975,-121 758.975,-90.2048 759.099,-75.1409 734.975,-56 685.755,-16.9475 494.61,-11.4335 412.642,-10.9017"/>
<polygon fill="midnightblue" stroke="midnightblue" points="412.529,-7.40125 402.514,-10.8581 412.499,-14.4012 412.529,-7.40125"/>
</g>
<!-- Node15&#45;&gt;Node5 -->
<g id="edge70" class="edge"><title>Node15&#45;&gt;Node5</title>
<path fill="none" stroke="midnightblue" d="M402.623,-336.484C386.245,-319.584 349.143,-280.298 321.975,-244 310.394,-228.529 298.793,-209.756 290.902,-196.371"/>
<polygon fill="midnightblue" stroke="midnightblue" points="293.915,-194.59 285.865,-187.701 287.862,-198.106 293.915,-194.59"/>
</g>
<!-- Node16&#45;&gt;Node2 -->
<g id="edge74" class="edge"><title>Node16&#45;&gt;Node2</title>
<path fill="none" stroke="midnightblue" d="M252.932,-448.411C245.039,-414.451 216.975,-286.168 216.975,-179 216.975,-179 216.975,-179 216.975,-121 216.975,-62.459 290.933,-32.5321 337.65,-19.468"/>
<polygon fill="midnightblue" stroke="midnightblue" points="338.689,-22.8133 347.453,-16.86 336.889,-16.0486 338.689,-22.8133"/>
</g>
<!-- Node16&#45;&gt;Node3 -->
<g id="edge78" class="edge"><title>Node16&#45;&gt;Node3</title>
<path fill="none" stroke="midnightblue" d="M243.567,-448.324C232.866,-440.185 216.634,-427.839 203.812,-418.087"/>
<polygon fill="midnightblue" stroke="midnightblue" points="205.668,-415.102 195.59,-411.834 201.43,-420.673 205.668,-415.102"/>
</g>
<!-- Node16&#45;&gt;Node7 -->
<g id="edge76" class="edge"><title>Node16&#45;&gt;Node7</title>
<path fill="none" stroke="midnightblue" d="M259.447,-448.368C268.771,-430.376 290.444,-388.55 302.841,-364.627"/>
<polygon fill="midnightblue" stroke="midnightblue" points="306.029,-366.081 307.523,-355.591 299.814,-362.86 306.029,-366.081"/>
</g>
<!-- Node16&#45;&gt;Node15 -->
<g id="edge80" class="edge"><title>Node16&#45;&gt;Node15</title>
<path fill="none" stroke="midnightblue" d="M267.216,-448.368C293.871,-429.573 357.412,-384.768 390.364,-361.533"/>
<polygon fill="midnightblue" stroke="midnightblue" points="392.635,-364.215 398.79,-355.591 388.601,-358.494 392.635,-364.215"/>
</g>
</g>
</svg>
