<?xml version="1.0" encoding="UTF-8" standalone="no"?>
<!DOCTYPE svg PUBLIC "-//W3C//DTD SVG 1.1//EN"
 "http://www.w3.org/Graphics/SVG/1.1/DTD/svg11.dtd">
<!-- Generated by graphviz version 2.50.0 (20211204.2007)
 -->
<!-- Title: SLCone.h Pages: 1 -->
<svg width="198pt" height="84pt"
 viewBox="0.00 0.00 197.50 84.00" xmlns="http://www.w3.org/2000/svg" xmlns:xlink="http://www.w3.org/1999/xlink">
<g id="graph0" class="graph" transform="scale(1 1) rotate(0) translate(4 80)">
<title>SLCone.h</title>
<polygon fill="white" stroke="transparent" points="-4,4 -4,-80 193.5,-80 193.5,4 -4,4"/>
<!-- Node1 -->
<g id="node1" class="node">
<title>Node1</title>
<g id="a_node1"><a xlink:title=" ">
<polygon fill="#bfbfbf" stroke="black" points="72,-56.5 72,-75.5 132,-75.5 132,-56.5 72,-56.5"/>
<text text-anchor="middle" x="102" y="-63.5" font-family="Arial" font-size="10.00">SLCone.h</text>
</a>
</g>
</g>
<!-- Node2 -->
<g id="node2" class="node">
<title>Node2</title>
<g id="a_node2"><a xlink:href="_app_demo_load_8cpp.html" target="_top" xlink:title=" ">
<polygon fill="white" stroke="black" points="0,-0.5 0,-19.5 100,-19.5 100,-0.5 0,-0.5"/>
<text text-anchor="middle" x="50" y="-7.5" font-family="Arial" font-size="10.00">AppDemoLoad.cpp</text>
</a>
</g>
</g>
<!-- Node1&#45;&gt;Node2 -->
<g id="edge1" class="edge">
<title>Node1&#45;&gt;Node2</title>
<path fill="none" stroke="midnightblue" d="M86.32,-48.72C77.16,-39.2 65.95,-27.56 58.43,-19.75"/>
<polygon fill="midnightblue" stroke="midnightblue" points="83.96,-51.31 93.41,-56.08 89,-46.45 83.96,-51.31"/>
</g>
<!-- Node3 -->
<g id="node3" class="node">
<title>Node3</title>
<g id="a_node3"><a xlink:href="_s_l_cone_8cpp.html" target="_top" xlink:title=" ">
<polygon fill="white" stroke="black" points="118.5,-0.5 118.5,-19.5 189.5,-19.5 189.5,-0.5 118.5,-0.5"/>
<text text-anchor="middle" x="154" y="-7.5" font-family="Arial" font-size="10.00">SLCone.cpp</text>
</a>
</g>
</g>
<!-- Node1&#45;&gt;Node3 -->
<g id="edge2" class="edge">
<title>Node1&#45;&gt;Node3</title>
<path fill="none" stroke="midnightblue" d="M117.68,-48.72C126.84,-39.2 138.05,-27.56 145.57,-19.75"/>
<polygon fill="midnightblue" stroke="midnightblue" points="115,-46.45 110.59,-56.08 120.04,-51.31 115,-46.45"/>
</g>
</g>
</svg>
