<?xml version="1.0" encoding="UTF-8" standalone="no"?>
<!DOCTYPE svg PUBLIC "-//W3C//DTD SVG 1.1//EN"
 "http://www.w3.org/Graphics/SVG/1.1/DTD/svg11.dtd">
<!-- Generated by graphviz version 2.38.0 (20140413.2041)
 -->
<!-- Title: SLJoint.cpp Pages: 1 -->
<svg width="726pt" height="476pt"
 viewBox="0.00 0.00 726.00 476.00" xmlns="http://www.w3.org/2000/svg" xmlns:xlink="http://www.w3.org/1999/xlink">
<g id="graph0" class="graph" transform="scale(1 1) rotate(0) translate(4 472)">
<title>SLJoint.cpp</title>
<polygon fill="white" stroke="none" points="-4,4 -4,-472 722,-472 722,4 -4,4"/>
<!-- Node1 -->
<g id="node1" class="node"><title>Node1</title>
<polygon fill="#bfbfbf" stroke="black" points="277.5,-448.5 277.5,-467.5 342.5,-467.5 342.5,-448.5 277.5,-448.5"/>
<text text-anchor="middle" x="310" y="-455.5" font-family="Arial.ttf" font-size="10.00">SLJoint.cpp</text>
</g>
<!-- Node2 -->
<g id="node2" class="node"><title>Node2</title>
<polygon fill="white" stroke="#bfbfbf" points="328,-0.5 328,-19.5 378,-19.5 378,-0.5 328,-0.5"/>
<text text-anchor="middle" x="353" y="-7.5" font-family="Arial.ttf" font-size="10.00">stdafx.h</text>
</g>
<!-- Node1&#45;&gt;Node2 -->
<g id="edge1" class="edge"><title>Node1&#45;&gt;Node2</title>
<path fill="none" stroke="midnightblue" d="M277.41,-452.525C197.819,-440.688 0,-405.392 0,-347 0,-347 0,-347 0,-121 0,-79.5116 29.8826,-74.5359 67,-56 110.432,-34.3109 251.155,-19.7321 317.618,-13.8822"/>
<polygon fill="midnightblue" stroke="midnightblue" points="317.96,-17.3658 327.622,-13.0185 317.357,-10.3918 317.96,-17.3658"/>
</g>
<!-- Node3 -->
<g id="node3" class="node"><title>Node3</title>
<g id="a_node3"><a xlink:href="_s_l_joint_8h.html" target="_top" xlink:title="SLJoint.h">
<polygon fill="white" stroke="black" points="282.5,-280.5 282.5,-299.5 337.5,-299.5 337.5,-280.5 282.5,-280.5"/>
<text text-anchor="middle" x="310" y="-287.5" font-family="Arial.ttf" font-size="10.00">SLJoint.h</text>
</a>
</g>
</g>
<!-- Node1&#45;&gt;Node3 -->
<g id="edge2" class="edge"><title>Node1&#45;&gt;Node3</title>
<path fill="none" stroke="midnightblue" d="M310,-448.075C310,-421.945 310,-345.211 310,-309.577"/>
<polygon fill="midnightblue" stroke="midnightblue" points="313.5,-309.568 310,-299.568 306.5,-309.568 313.5,-309.568"/>
</g>
<!-- Node11 -->
<g id="node11" class="node"><title>Node11</title>
<g id="a_node11"><a xlink:href="_s_l_skeleton_8h.html" target="_top" xlink:title="SLSkeleton.h">
<polygon fill="white" stroke="black" points="428,-392.5 428,-411.5 500,-411.5 500,-392.5 428,-392.5"/>
<text text-anchor="middle" x="464" y="-399.5" font-family="Arial.ttf" font-size="10.00">SLSkeleton.h</text>
</a>
</g>
</g>
<!-- Node1&#45;&gt;Node11 -->
<g id="edge22" class="edge"><title>Node1&#45;&gt;Node11</title>
<path fill="none" stroke="midnightblue" d="M334.402,-448.444C360.197,-439.399 401.077,-425.064 430.018,-414.916"/>
<polygon fill="midnightblue" stroke="midnightblue" points="431.434,-418.128 439.712,-411.516 429.118,-411.523 431.434,-418.128"/>
</g>
<!-- Node3&#45;&gt;Node2 -->
<g id="edge3" class="edge"><title>Node3&#45;&gt;Node2</title>
<path fill="none" stroke="midnightblue" d="M282.422,-283.957C213.272,-270.531 38,-231.338 38,-179 38,-179 38,-179 38,-121 38,-71.2977 83.4022,-75.7777 129,-56 191.999,-28.6746 272.231,-17.7277 317.578,-13.5036"/>
<polygon fill="midnightblue" stroke="midnightblue" points="318.127,-16.9691 327.784,-12.6123 317.518,-9.99561 318.127,-16.9691"/>
</g>
<!-- Node4 -->
<g id="node4" class="node"><title>Node4</title>
<g id="a_node4"><a xlink:href="_s_l_node_8h.html" target="_top" xlink:title="SLNode.h">
<polygon fill="white" stroke="black" points="240.5,-224.5 240.5,-243.5 297.5,-243.5 297.5,-224.5 240.5,-224.5"/>
<text text-anchor="middle" x="269" y="-231.5" font-family="Arial.ttf" font-size="10.00">SLNode.h</text>
</a>
</g>
</g>
<!-- Node3&#45;&gt;Node4 -->
<g id="edge4" class="edge"><title>Node3&#45;&gt;Node4</title>
<path fill="none" stroke="midnightblue" d="M303.23,-280.083C297.438,-272.455 288.942,-261.264 281.862,-251.941"/>
<polygon fill="midnightblue" stroke="midnightblue" points="284.479,-249.599 275.644,-243.751 278.904,-253.832 284.479,-249.599"/>
</g>
<!-- Node4&#45;&gt;Node2 -->
<g id="edge5" class="edge"><title>Node4&#45;&gt;Node2</title>
<path fill="none" stroke="midnightblue" d="M240.477,-225.565C221.684,-219.022 198.497,-207.424 187,-188 166.388,-153.177 131.182,-144.898 213,-56 239.872,-26.8023 285.722,-16.4709 317.598,-12.8597"/>
<polygon fill="midnightblue" stroke="midnightblue" points="318.207,-16.3174 327.826,-11.8751 317.536,-9.34963 318.207,-16.3174"/>
</g>
<!-- Node4&#45;&gt;Node4 -->
<g id="edge16" class="edge"><title>Node4&#45;&gt;Node4</title>
<path fill="none" stroke="midnightblue" d="M289.074,-243.575C302.465,-246.27 315.5,-243.078 315.5,-234 315.5,-227.262 308.32,-223.767 299.143,-223.515"/>
<polygon fill="midnightblue" stroke="midnightblue" points="298.718,-220.039 289.074,-224.425 299.349,-227.01 298.718,-220.039"/>
</g>
<!-- Node5 -->
<g id="node5" class="node"><title>Node5</title>
<g id="a_node5"><a xlink:href="_s_l_enums_8h.html" target="_top" xlink:title="SLEnums.h">
<polygon fill="white" stroke="black" points="397,-112.5 397,-131.5 461,-131.5 461,-112.5 397,-112.5"/>
<text text-anchor="middle" x="429" y="-119.5" font-family="Arial.ttf" font-size="10.00">SLEnums.h</text>
</a>
</g>
</g>
<!-- Node4&#45;&gt;Node5 -->
<g id="edge6" class="edge"><title>Node4&#45;&gt;Node5</title>
<path fill="none" stroke="midnightblue" d="M297.739,-224.487C319.705,-217.091 350.017,-204.898 373,-188 391.113,-174.682 407.334,-154.473 417.598,-140.128"/>
<polygon fill="midnightblue" stroke="midnightblue" points="420.632,-141.895 423.443,-131.68 414.875,-137.913 420.632,-141.895"/>
</g>
<!-- Node6 -->
<g id="node6" class="node"><title>Node6</title>
<g id="a_node6"><a xlink:href="_s_l_mesh_8h.html" target="_top" xlink:title="SLMesh.h">
<polygon fill="white" stroke="black" points="306,-168.5 306,-187.5 364,-187.5 364,-168.5 306,-168.5"/>
<text text-anchor="middle" x="335" y="-175.5" font-family="Arial.ttf" font-size="10.00">SLMesh.h</text>
</a>
</g>
</g>
<!-- Node4&#45;&gt;Node6 -->
<g id="edge8" class="edge"><title>Node4&#45;&gt;Node6</title>
<path fill="none" stroke="midnightblue" d="M279.604,-224.324C289.456,-216.263 304.351,-204.077 316.215,-194.369"/>
<polygon fill="midnightblue" stroke="midnightblue" points="318.68,-196.875 324.203,-187.834 314.247,-191.457 318.68,-196.875"/>
</g>
<!-- Node9 -->
<g id="node9" class="node"><title>Node9</title>
<g id="a_node9"><a xlink:href="_s_l_draw_bits_8h.html" target="_top" xlink:title="SLDrawBits.h">
<polygon fill="white" stroke="black" points="66.5,-112.5 66.5,-131.5 139.5,-131.5 139.5,-112.5 66.5,-112.5"/>
<text text-anchor="middle" x="103" y="-119.5" font-family="Arial.ttf" font-size="10.00">SLDrawBits.h</text>
</a>
</g>
</g>
<!-- Node4&#45;&gt;Node9 -->
<g id="edge17" class="edge"><title>Node4&#45;&gt;Node9</title>
<path fill="none" stroke="midnightblue" d="M240.431,-226.38C215.791,-219.661 180.153,-207.442 154,-188 136.79,-175.207 122.288,-155.188 113.2,-140.746"/>
<polygon fill="midnightblue" stroke="midnightblue" points="115.966,-138.555 107.807,-131.796 109.971,-142.168 115.966,-138.555"/>
</g>
<!-- Node10 -->
<g id="node10" class="node"><title>Node10</title>
<g id="a_node10"><a xlink:href="_s_l_event_handler_8h.html" target="_top" xlink:title="SLEventHandler.h">
<polygon fill="white" stroke="black" points="196,-168.5 196,-187.5 288,-187.5 288,-168.5 196,-168.5"/>
<text text-anchor="middle" x="242" y="-175.5" font-family="Arial.ttf" font-size="10.00">SLEventHandler.h</text>
</a>
</g>
</g>
<!-- Node4&#45;&gt;Node10 -->
<g id="edge19" class="edge"><title>Node4&#45;&gt;Node10</title>
<path fill="none" stroke="midnightblue" d="M264.541,-224.083C260.846,-216.691 255.477,-205.953 250.906,-196.811"/>
<polygon fill="midnightblue" stroke="midnightblue" points="253.978,-195.13 246.376,-187.751 247.717,-198.261 253.978,-195.13"/>
</g>
<!-- Node5&#45;&gt;Node2 -->
<g id="edge7" class="edge"><title>Node5&#45;&gt;Node2</title>
<path fill="none" stroke="midnightblue" d="M423.562,-112.499C415.526,-99.9994 399.924,-75.9821 386,-56 379.411,-46.5437 371.819,-36.158 365.579,-27.749"/>
<polygon fill="midnightblue" stroke="midnightblue" points="368.237,-25.4584 359.451,-19.5376 362.627,-29.6452 368.237,-25.4584"/>
</g>
<!-- Node6&#45;&gt;Node2 -->
<g id="edge9" class="edge"><title>Node6&#45;&gt;Node2</title>
<path fill="none" stroke="midnightblue" d="M338.788,-168.237C342.437,-159.312 347.728,-144.979 350,-132 356.258,-96.2461 355.437,-53.6529 354.24,-29.7279"/>
<polygon fill="midnightblue" stroke="midnightblue" points="357.726,-29.3748 353.652,-19.5943 350.738,-29.7803 357.726,-29.3748"/>
</g>
<!-- Node6&#45;&gt;Node5 -->
<g id="edge15" class="edge"><title>Node6&#45;&gt;Node5</title>
<path fill="none" stroke="midnightblue" d="M350.103,-168.324C364.903,-159.822 387.694,-146.729 404.982,-136.797"/>
<polygon fill="midnightblue" stroke="midnightblue" points="407.007,-139.671 413.935,-131.655 403.52,-133.601 407.007,-139.671"/>
</g>
<!-- Node7 -->
<g id="node7" class="node"><title>Node7</title>
<g id="a_node7"><a xlink:href="_s_l_a_a_b_box_8h.html" target="_top" xlink:title="SLAABBox.h">
<polygon fill="white" stroke="black" points="273,-112.5 273,-131.5 341,-131.5 341,-112.5 273,-112.5"/>
<text text-anchor="middle" x="307" y="-119.5" font-family="Arial.ttf" font-size="10.00">SLAABBox.h</text>
</a>
</g>
</g>
<!-- Node6&#45;&gt;Node7 -->
<g id="edge10" class="edge"><title>Node6&#45;&gt;Node7</title>
<path fill="none" stroke="midnightblue" d="M330.376,-168.083C326.544,-160.691 320.976,-149.953 316.235,-140.811"/>
<polygon fill="midnightblue" stroke="midnightblue" points="319.248,-139.018 311.538,-131.751 313.034,-142.24 319.248,-139.018"/>
</g>
<!-- Node8 -->
<g id="node8" class="node"><title>Node8</title>
<g id="a_node8"><a xlink:href="_s_l_g_l_buffer_8h.html" target="_top" xlink:title="SLGLBuffer.h">
<polygon fill="white" stroke="black" points="234.5,-56.5 234.5,-75.5 305.5,-75.5 305.5,-56.5 234.5,-56.5"/>
<text text-anchor="middle" x="270" y="-63.5" font-family="Arial.ttf" font-size="10.00">SLGLBuffer.h</text>
</a>
</g>
</g>
<!-- Node6&#45;&gt;Node8 -->
<g id="edge14" class="edge"><title>Node6&#45;&gt;Node8</title>
<path fill="none" stroke="midnightblue" d="M309.839,-168.378C293.581,-161.343 273.707,-149.645 264,-132 256.155,-117.741 259,-99.0245 263.01,-85.3392"/>
<polygon fill="midnightblue" stroke="midnightblue" points="266.408,-86.218 266.294,-75.6237 259.776,-83.9766 266.408,-86.218"/>
</g>
<!-- Node7&#45;&gt;Node2 -->
<g id="edge11" class="edge"><title>Node7&#45;&gt;Node2</title>
<path fill="none" stroke="midnightblue" d="M310.61,-112.368C318.1,-94.4563 335.468,-52.9233 345.494,-28.9482"/>
<polygon fill="midnightblue" stroke="midnightblue" points="348.778,-30.1676 349.407,-19.5914 342.32,-27.4669 348.778,-30.1676"/>
</g>
<!-- Node7&#45;&gt;Node8 -->
<g id="edge12" class="edge"><title>Node7&#45;&gt;Node8</title>
<path fill="none" stroke="midnightblue" d="M300.89,-112.083C295.718,-104.534 288.154,-93.4948 281.806,-84.2298"/>
<polygon fill="midnightblue" stroke="midnightblue" points="284.536,-82.0221 275.996,-75.7511 278.761,-85.9787 284.536,-82.0221"/>
</g>
<!-- Node8&#45;&gt;Node2 -->
<g id="edge13" class="edge"><title>Node8&#45;&gt;Node2</title>
<path fill="none" stroke="midnightblue" d="M283.335,-56.324C296.162,-47.979 315.785,-35.2122 330.94,-25.3524"/>
<polygon fill="midnightblue" stroke="midnightblue" points="333.224,-28.0417 339.698,-19.6545 329.407,-22.1742 333.224,-28.0417"/>
</g>
<!-- Node9&#45;&gt;Node2 -->
<g id="edge18" class="edge"><title>Node9&#45;&gt;Node2</title>
<path fill="none" stroke="midnightblue" d="M107.297,-112.277C114.747,-98.1119 131.452,-70.2608 154,-56 204.779,-23.8841 275.634,-14.5715 317.667,-11.9433"/>
<polygon fill="midnightblue" stroke="midnightblue" points="317.902,-15.4358 327.702,-11.4093 317.53,-8.4457 317.902,-15.4358"/>
</g>
<!-- Node10&#45;&gt;Node2 -->
<g id="edge20" class="edge"><title>Node10&#45;&gt;Node2</title>
<path fill="none" stroke="midnightblue" d="M237.084,-168.422C225.632,-147.182 199.984,-91.3118 225,-56 245.829,-26.5987 287.466,-16.2668 317.609,-12.7127"/>
<polygon fill="midnightblue" stroke="midnightblue" points="318.128,-16.1786 327.738,-11.7181 317.444,-9.21214 318.128,-16.1786"/>
</g>
<!-- Node10&#45;&gt;Node5 -->
<g id="edge21" class="edge"><title>Node10&#45;&gt;Node5</title>
<path fill="none" stroke="midnightblue" d="M271.631,-168.444C303.5,-159.241 354.333,-144.562 389.564,-134.388"/>
<polygon fill="midnightblue" stroke="midnightblue" points="390.872,-137.653 399.508,-131.516 388.929,-130.928 390.872,-137.653"/>
</g>
<!-- Node11&#45;&gt;Node2 -->
<g id="edge23" class="edge"><title>Node11&#45;&gt;Node2</title>
<path fill="none" stroke="midnightblue" d="M500.122,-401.208C570.247,-399.519 718,-384.827 718,-291 718,-291 718,-291 718,-121 718,-52.5628 479.789,-22.9109 388.248,-14.0427"/>
<polygon fill="midnightblue" stroke="midnightblue" points="388.372,-10.539 378.088,-13.086 387.716,-17.5082 388.372,-10.539"/>
</g>
<!-- Node11&#45;&gt;Node3 -->
<g id="edge24" class="edge"><title>Node11&#45;&gt;Node3</title>
<path fill="none" stroke="midnightblue" d="M451.916,-392.368C425.602,-373.573 362.876,-328.768 330.347,-305.533"/>
<polygon fill="midnightblue" stroke="midnightblue" points="332.2,-302.556 322.028,-299.591 328.131,-308.252 332.2,-302.556"/>
</g>
<!-- Node12 -->
<g id="node12" class="node"><title>Node12</title>
<g id="a_node12"><a xlink:href="_s_l_animation_8h.html" target="_top" xlink:title="SLAnimation.h">
<polygon fill="white" stroke="black" points="425,-336.5 425,-355.5 503,-355.5 503,-336.5 425,-336.5"/>
<text text-anchor="middle" x="464" y="-343.5" font-family="Arial.ttf" font-size="10.00">SLAnimation.h</text>
</a>
</g>
</g>
<!-- Node11&#45;&gt;Node12 -->
<g id="edge25" class="edge"><title>Node11&#45;&gt;Node12</title>
<path fill="none" stroke="midnightblue" d="M464,-392.083C464,-385.006 464,-374.861 464,-365.986"/>
<polygon fill="midnightblue" stroke="midnightblue" points="467.5,-365.751 464,-355.751 460.5,-365.751 467.5,-365.751"/>
</g>
<!-- Node15 -->
<g id="node15" class="node"><title>Node15</title>
<g id="a_node15"><a xlink:href="_s_l_anim_playback_8h.html" target="_top" xlink:title="SLAnimPlayback.h">
<polygon fill="white" stroke="black" points="596,-168.5 596,-187.5 690,-187.5 690,-168.5 596,-168.5"/>
<text text-anchor="middle" x="643" y="-175.5" font-family="Arial.ttf" font-size="10.00">SLAnimPlayback.h</text>
</a>
</g>
</g>
<!-- Node11&#45;&gt;Node15 -->
<g id="edge34" class="edge"><title>Node11&#45;&gt;Node15</title>
<path fill="none" stroke="midnightblue" d="M477.182,-392.362C500.701,-376.425 550.389,-340.32 582,-300 607.667,-267.262 626.98,-222.018 636.471,-197.166"/>
<polygon fill="midnightblue" stroke="midnightblue" points="639.831,-198.172 640.028,-187.579 633.268,-195.737 639.831,-198.172"/>
</g>
<!-- Node12&#45;&gt;Node2 -->
<g id="edge26" class="edge"><title>Node12&#45;&gt;Node2</title>
<path fill="none" stroke="midnightblue" d="M472.114,-336.41C506.502,-298.976 635.107,-147.854 561,-56 539.686,-29.5814 441.808,-17.904 388.258,-13.4169"/>
<polygon fill="midnightblue" stroke="midnightblue" points="388.421,-9.91895 378.175,-12.6132 387.865,-16.8968 388.421,-9.91895"/>
</g>
<!-- Node12&#45;&gt;Node3 -->
<g id="edge32" class="edge"><title>Node12&#45;&gt;Node3</title>
<path fill="none" stroke="midnightblue" d="M439.598,-336.444C413.803,-327.399 372.923,-313.064 343.982,-302.916"/>
<polygon fill="midnightblue" stroke="midnightblue" points="344.882,-299.523 334.288,-299.516 342.566,-306.128 344.882,-299.523"/>
</g>
<!-- Node12&#45;&gt;Node5 -->
<g id="edge33" class="edge"><title>Node12&#45;&gt;Node5</title>
<path fill="none" stroke="midnightblue" d="M462.628,-336.297C457.478,-303.633 439.227,-187.866 431.989,-141.957"/>
<polygon fill="midnightblue" stroke="midnightblue" points="435.415,-141.217 430.401,-131.884 428.501,-142.307 435.415,-141.217"/>
</g>
<!-- Node13 -->
<g id="node13" class="node"><title>Node13</title>
<g id="a_node13"><a xlink:href="_s_l_anim_track_8h.html" target="_top" xlink:title="SLAnimTrack.h">
<polygon fill="white" stroke="black" points="458.5,-168.5 458.5,-187.5 539.5,-187.5 539.5,-168.5 458.5,-168.5"/>
<text text-anchor="middle" x="499" y="-175.5" font-family="Arial.ttf" font-size="10.00">SLAnimTrack.h</text>
</a>
</g>
</g>
<!-- Node12&#45;&gt;Node13 -->
<g id="edge27" class="edge"><title>Node12&#45;&gt;Node13</title>
<path fill="none" stroke="midnightblue" d="M465.882,-336.075C471.391,-309.945 487.57,-233.211 495.083,-197.577"/>
<polygon fill="midnightblue" stroke="midnightblue" points="498.555,-198.075 497.193,-187.568 491.706,-196.631 498.555,-198.075"/>
</g>
<!-- Node13&#45;&gt;Node2 -->
<g id="edge28" class="edge"><title>Node13&#45;&gt;Node2</title>
<path fill="none" stroke="midnightblue" d="M496.461,-168.395C492.337,-155.344 483.284,-130.147 470,-112 443.202,-75.3929 400.77,-43.0866 375.042,-25.3666"/>
<polygon fill="midnightblue" stroke="midnightblue" points="376.937,-22.4227 366.692,-19.724 373.018,-28.2227 376.937,-22.4227"/>
</g>
<!-- Node13&#45;&gt;Node5 -->
<g id="edge29" class="edge"><title>Node13&#45;&gt;Node5</title>
<path fill="none" stroke="midnightblue" d="M487.753,-168.324C477.203,-160.185 461.199,-147.839 448.558,-138.087"/>
<polygon fill="midnightblue" stroke="midnightblue" points="450.507,-135.171 440.451,-131.834 446.231,-140.713 450.507,-135.171"/>
</g>
<!-- Node14 -->
<g id="node14" class="node"><title>Node14</title>
<g id="a_node14"><a xlink:href="_s_l_keyframe_8h.html" target="_top" xlink:title="SLKeyframe.h">
<polygon fill="white" stroke="black" points="476,-56.5 476,-75.5 552,-75.5 552,-56.5 476,-56.5"/>
<text text-anchor="middle" x="514" y="-63.5" font-family="Arial.ttf" font-size="10.00">SLKeyframe.h</text>
</a>
</g>
</g>
<!-- Node13&#45;&gt;Node14 -->
<g id="edge30" class="edge"><title>Node13&#45;&gt;Node14</title>
<path fill="none" stroke="midnightblue" d="M500.177,-168.368C502.598,-150.617 508.182,-109.666 511.464,-85.5974"/>
<polygon fill="midnightblue" stroke="midnightblue" points="514.945,-85.9726 512.828,-75.5914 508.009,-85.0268 514.945,-85.9726"/>
</g>
<!-- Node14&#45;&gt;Node2 -->
<g id="edge31" class="edge"><title>Node14&#45;&gt;Node2</title>
<path fill="none" stroke="midnightblue" d="M488.489,-56.4435C461.324,-47.3324 418.157,-32.8539 387.864,-22.6936"/>
<polygon fill="midnightblue" stroke="midnightblue" points="388.72,-19.2892 378.127,-19.4275 386.494,-25.9259 388.72,-19.2892"/>
</g>
<!-- Node15&#45;&gt;Node2 -->
<g id="edge35" class="edge"><title>Node15&#45;&gt;Node2</title>
<path fill="none" stroke="midnightblue" d="M642.259,-168.337C639.848,-145.893 630.147,-85.5494 594,-56 562.991,-30.6505 447.325,-18.2522 388.233,-13.4631"/>
<polygon fill="midnightblue" stroke="midnightblue" points="388.474,-9.97131 378.232,-12.6816 387.929,-16.95 388.474,-9.97131"/>
</g>
<!-- Node15&#45;&gt;Node5 -->
<g id="edge36" class="edge"><title>Node15&#45;&gt;Node5</title>
<path fill="none" stroke="midnightblue" d="M609.091,-168.444C571.607,-158.985 511.2,-143.742 470.813,-133.551"/>
<polygon fill="midnightblue" stroke="midnightblue" points="471.555,-130.129 461.003,-131.075 469.842,-136.916 471.555,-130.129"/>
</g>
</g>
</svg>
