<?xml version="1.0" encoding="UTF-8" standalone="no"?>
<!DOCTYPE svg PUBLIC "-//W3C//DTD SVG 1.1//EN"
 "http://www.w3.org/Graphics/SVG/1.1/DTD/svg11.dtd">
<!-- Generated by graphviz version 2.28.0 (20110507.0327)
 -->
<!-- Title: SLAssimpImporter.h Pages: 1 -->
<svg width="475pt" height="84pt"
 viewBox="0.00 0.00 475.00 84.00" xmlns="http://www.w3.org/2000/svg" xmlns:xlink="http://www.w3.org/1999/xlink">
<g id="graph1" class="graph" transform="scale(1 1) rotate(0) translate(4 80)">
<title>SLAssimpImporter.h</title>
<polygon fill="white" stroke="white" points="-4,5 -4,-80 472,-80 472,5 -4,5"/>
<!-- Node1 -->
<g id="node1" class="node"><title>Node1</title>
<polygon fill="#bfbfbf" stroke="black" points="182,-56.5 182,-75.5 296,-75.5 296,-56.5 182,-56.5"/>
<text text-anchor="middle" x="239" y="-63.5" font-family="Arial.ttf" font-size="10.00">SLAssimpImporter.h</text>
</g>
<!-- Node2 -->
<g id="node3" class="node"><title>Node2</title>
<a xlink:href="_s_l_assimp_importer_8cpp.html" target="_top" xlink:title="SLAssimpImporter.cpp">
<polygon fill="white" stroke="black" points="-0.5,-0.5 -0.5,-19.5 124.5,-19.5 124.5,-0.5 -0.5,-0.5"/>
<text text-anchor="middle" x="62" y="-7.5" font-family="Arial.ttf" font-size="10.00">SLAssimpImporter.cpp</text>
</a>
</g>
<!-- Node1&#45;&gt;Node2 -->
<g id="edge2" class="edge"><title>Node1&#45;&gt;Node2</title>
<path fill="none" stroke="midnightblue" d="M201.097,-53.4363C167.725,-43.2551 119.899,-28.664 89.915,-19.5164"/>
<polygon fill="midnightblue" stroke="midnightblue" points="200.368,-56.8731 210.954,-56.4435 202.41,-50.1777 200.368,-56.8731"/>
</g>
<!-- Node3 -->
<g id="node5" class="node"><title>Node3</title>
<a xlink:href="_s_l_interface_8cpp.html" target="_top" xlink:title="SLProject C&#45;functions interface implementation.">
<polygon fill="white" stroke="black" points="142.5,-0.5 142.5,-19.5 233.5,-19.5 233.5,-0.5 142.5,-0.5"/>
<text text-anchor="middle" x="188" y="-7.5" font-family="Arial.ttf" font-size="10.00">SLInterface.cpp</text>
</a>
</g>
<!-- Node1&#45;&gt;Node3 -->
<g id="edge4" class="edge"><title>Node1&#45;&gt;Node3</title>
<path fill="none" stroke="midnightblue" d="M223.622,-48.7175C214.633,-39.1997 203.641,-27.5608 196.265,-19.7511"/>
<polygon fill="midnightblue" stroke="midnightblue" points="221.168,-51.216 230.578,-56.083 226.257,-46.4096 221.168,-51.216"/>
</g>
<!-- Node4 -->
<g id="node7" class="node"><title>Node4</title>
<a xlink:href="_s_l_scene_8cpp.html" target="_top" xlink:title="SLScene.cpp">
<polygon fill="white" stroke="black" points="251.5,-0.5 251.5,-19.5 330.5,-19.5 330.5,-0.5 251.5,-0.5"/>
<text text-anchor="middle" x="291" y="-7.5" font-family="Arial.ttf" font-size="10.00">SLScene.cpp</text>
</a>
</g>
<!-- Node1&#45;&gt;Node4 -->
<g id="edge6" class="edge"><title>Node1&#45;&gt;Node4</title>
<path fill="none" stroke="midnightblue" d="M254.679,-48.7175C263.845,-39.1997 275.053,-27.5608 282.573,-19.7511"/>
<polygon fill="midnightblue" stroke="midnightblue" points="252.002,-46.452 247.587,-56.083 257.044,-51.3075 252.002,-46.452"/>
</g>
<!-- Node5 -->
<g id="node9" class="node"><title>Node5</title>
<a xlink:href="_s_l_scene__on_load_8cpp.html" target="_top" xlink:title="SLScene_onLoad.cpp">
<polygon fill="white" stroke="black" points="348.5,-0.5 348.5,-19.5 467.5,-19.5 467.5,-0.5 348.5,-0.5"/>
<text text-anchor="middle" x="408" y="-7.5" font-family="Arial.ttf" font-size="10.00">SLScene_onLoad.cpp</text>
</a>
</g>
<!-- Node1&#45;&gt;Node5 -->
<g id="edge8" class="edge"><title>Node1&#45;&gt;Node5</title>
<path fill="none" stroke="midnightblue" d="M275.603,-53.3044C307.447,-43.1294 352.842,-28.6246 381.347,-19.5164"/>
<polygon fill="midnightblue" stroke="midnightblue" points="274.239,-50.0659 265.779,-56.4435 276.369,-56.7337 274.239,-50.0659"/>
</g>
</g>
</svg>
