<?xml version="1.0" encoding="UTF-8" standalone="no"?>
<!DOCTYPE svg PUBLIC "-//W3C//DTD SVG 1.1//EN"
 "http://www.w3.org/Graphics/SVG/1.1/DTD/svg11.dtd">
<!-- Generated by graphviz version 2.28.0 (20110507.0327)
 -->
<!-- Title: SLGLUniform.h Pages: 1 -->
<svg width="165pt" height="140pt"
 viewBox="0.00 0.00 165.00 140.00" xmlns="http://www.w3.org/2000/svg" xmlns:xlink="http://www.w3.org/1999/xlink">
<g id="graph1" class="graph" transform="scale(1 1) rotate(0) translate(4 136)">
<title>SLGLUniform.h</title>
<polygon fill="white" stroke="white" points="-4,5 -4,-136 162,-136 162,5 -4,5"/>
<!-- Node1 -->
<g id="node1" class="node"><title>Node1</title>
<polygon fill="#bfbfbf" stroke="black" points="21.5,-112.5 21.5,-131.5 110.5,-131.5 110.5,-112.5 21.5,-112.5"/>
<text text-anchor="middle" x="66" y="-119.5" font-family="Arial.ttf" font-size="10.00">SLGLUniform.h</text>
</g>
<!-- Node2 -->
<g id="node3" class="node"><title>Node2</title>
<polygon fill="white" stroke="#bfbfbf" points="-0.5,-0.5 -0.5,-19.5 54.5,-19.5 54.5,-0.5 -0.5,-0.5"/>
<text text-anchor="middle" x="27" y="-7.5" font-family="Arial.ttf" font-size="10.00">stdafx.h</text>
</g>
<!-- Node1&#45;&gt;Node2 -->
<g id="edge2" class="edge"><title>Node1&#45;&gt;Node2</title>
<path fill="none" stroke="midnightblue" d="M61.6577,-112.18C57.3429,-103.211 50.7072,-88.8435 46,-76 40.3105,-60.4766 35.1385,-42.394 31.6322,-29.2481"/>
<polygon fill="midnightblue" stroke="midnightblue" points="35.0093,-28.3275 29.1039,-19.5311 28.2348,-30.0902 35.0093,-28.3275"/>
</g>
<!-- Node3 -->
<g id="node5" class="node"><title>Node3</title>
<a xlink:href="_s_l_event_handler_8h.html" target="_top" xlink:title="SLEventHandler.h">
<polygon fill="white" stroke="black" points="55,-56.5 55,-75.5 157,-75.5 157,-56.5 55,-56.5"/>
<text text-anchor="middle" x="106" y="-63.5" font-family="Arial.ttf" font-size="10.00">SLEventHandler.h</text>
</a>
</g>
<!-- Node1&#45;&gt;Node3 -->
<g id="edge4" class="edge"><title>Node1&#45;&gt;Node3</title>
<path fill="none" stroke="midnightblue" d="M72.6052,-112.083C78.2552,-104.455 86.5448,-93.2645 93.4512,-83.9408"/>
<polygon fill="midnightblue" stroke="midnightblue" points="96.3779,-85.87 99.5177,-75.7511 90.7529,-81.7034 96.3779,-85.87"/>
</g>
<!-- Node3&#45;&gt;Node2 -->
<g id="edge6" class="edge"><title>Node3&#45;&gt;Node2</title>
<path fill="none" stroke="midnightblue" d="M93.3073,-56.324C81.0989,-47.979 62.4215,-35.2122 47.9971,-25.3524"/>
<polygon fill="midnightblue" stroke="midnightblue" points="49.892,-22.4082 39.6612,-19.6545 45.9418,-28.1871 49.892,-22.4082"/>
</g>
<!-- Node4 -->
<g id="node8" class="node"><title>Node4</title>
<a xlink:href="_s_l_enums_8h.html" target="_top" xlink:title="SLEnums.h">
<polygon fill="white" stroke="black" points="72.5,-0.5 72.5,-19.5 143.5,-19.5 143.5,-0.5 72.5,-0.5"/>
<text text-anchor="middle" x="108" y="-7.5" font-family="Arial.ttf" font-size="10.00">SLEnums.h</text>
</a>
</g>
<!-- Node3&#45;&gt;Node4 -->
<g id="edge8" class="edge"><title>Node3&#45;&gt;Node4</title>
<path fill="none" stroke="midnightblue" d="M106.33,-56.083C106.592,-49.0059 106.968,-38.8611 107.297,-29.9865"/>
<polygon fill="midnightblue" stroke="midnightblue" points="110.803,-29.8738 107.676,-19.7511 103.808,-29.6147 110.803,-29.8738"/>
</g>
</g>
</svg>
