<?xml version="1.0" encoding="UTF-8" standalone="no"?>
<!DOCTYPE svg PUBLIC "-//W3C//DTD SVG 1.1//EN"
 "http://www.w3.org/Graphics/SVG/1.1/DTD/svg11.dtd">
<!-- Generated by graphviz version 2.36.0 (20140111.2315)
 -->
<!-- Title: SLText.h Pages: 1 -->
<svg width="374pt" height="140pt"
 viewBox="0.00 0.00 374.00 140.00" xmlns="http://www.w3.org/2000/svg" xmlns:xlink="http://www.w3.org/1999/xlink">
<g id="graph0" class="graph" transform="scale(1 1) rotate(0) translate(4 136)">
<title>SLText.h</title>
<polygon fill="white" stroke="none" points="-4,4 -4,-136 370,-136 370,4 -4,4"/>
<!-- Node1 -->
<g id="node1" class="node"><title>Node1</title>
<polygon fill="#bfbfbf" stroke="black" points="141.5,-112.5 141.5,-131.5 198.5,-131.5 198.5,-112.5 141.5,-112.5"/>
<text text-anchor="middle" x="170" y="-119.5" font-family="Arial.ttf" font-size="10.00">SLText.h</text>
</g>
<!-- Node2 -->
<g id="node2" class="node"><title>Node2</title>
<g id="a_node2"><a xlink:href="_s_l_scene_8cpp.html" target="_top" xlink:title="SLScene.cpp">
<polygon fill="white" stroke="black" points="0,-56.5 0,-75.5 76,-75.5 76,-56.5 0,-56.5"/>
<text text-anchor="middle" x="38" y="-63.5" font-family="Arial.ttf" font-size="10.00">SLScene.cpp</text>
</a>
</g>
</g>
<!-- Node1&#45;&gt;Node2 -->
<g id="edge1" class="edge"><title>Node1&#45;&gt;Node2</title>
<path fill="none" stroke="midnightblue" d="M139.781,-108.638C115.01,-98.504 80.6004,-84.4274 58.8179,-75.5164"/>
<polygon fill="midnightblue" stroke="midnightblue" points="138.503,-111.897 149.084,-112.444 141.154,-105.418 138.503,-111.897"/>
</g>
<!-- Node3 -->
<g id="node3" class="node"><title>Node3</title>
<g id="a_node3"><a xlink:href="_s_l_text_8cpp.html" target="_top" xlink:title="SLText.cpp">
<polygon fill="white" stroke="black" points="94.5,-56.5 94.5,-75.5 161.5,-75.5 161.5,-56.5 94.5,-56.5"/>
<text text-anchor="middle" x="128" y="-63.5" font-family="Arial.ttf" font-size="10.00">SLText.cpp</text>
</a>
</g>
</g>
<!-- Node1&#45;&gt;Node3 -->
<g id="edge2" class="edge"><title>Node1&#45;&gt;Node3</title>
<path fill="none" stroke="midnightblue" d="M156.89,-104.144C149.572,-94.7357 140.759,-83.4046 134.806,-75.7511"/>
<polygon fill="midnightblue" stroke="midnightblue" points="154.162,-106.338 163.065,-112.083 159.688,-102.041 154.162,-106.338"/>
</g>
<!-- Node4 -->
<g id="node4" class="node"><title>Node4</title>
<g id="a_node4"><a xlink:href="_s_l_button_8h.html" target="_top" xlink:title="SLButton.h">
<polygon fill="white" stroke="black" points="180,-56.5 180,-75.5 246,-75.5 246,-56.5 180,-56.5"/>
<text text-anchor="middle" x="213" y="-63.5" font-family="Arial.ttf" font-size="10.00">SLButton.h</text>
</a>
</g>
</g>
<!-- Node1&#45;&gt;Node4 -->
<g id="edge3" class="edge"><title>Node1&#45;&gt;Node4</title>
<path fill="none" stroke="midnightblue" d="M183.422,-104.144C190.914,-94.7357 199.937,-83.4046 206.032,-75.7511"/>
<polygon fill="midnightblue" stroke="midnightblue" points="180.592,-102.08 177.101,-112.083 186.068,-106.44 180.592,-102.08"/>
</g>
<!-- Node6 -->
<g id="node6" class="node"><title>Node6</title>
<g id="a_node6"><a xlink:href="_app_demo_load_8cpp.html" target="_top" xlink:title="AppDemoLoad.cpp">
<polygon fill="white" stroke="black" points="264,-56.5 264,-75.5 366,-75.5 366,-56.5 264,-56.5"/>
<text text-anchor="middle" x="315" y="-63.5" font-family="Arial.ttf" font-size="10.00">AppDemoLoad.cpp</text>
</a>
</g>
</g>
<!-- Node1&#45;&gt;Node6 -->
<g id="edge5" class="edge"><title>Node1&#45;&gt;Node6</title>
<path fill="none" stroke="midnightblue" d="M202.475,-108.906C229.736,-98.7536 267.992,-84.5063 292.132,-75.5164"/>
<polygon fill="midnightblue" stroke="midnightblue" points="201.125,-105.674 192.976,-112.444 203.568,-112.233 201.125,-105.674"/>
</g>
<!-- Node5 -->
<g id="node5" class="node"><title>Node5</title>
<g id="a_node5"><a xlink:href="_s_l_button_8cpp.html" target="_top" xlink:title="SLButton.cpp">
<polygon fill="white" stroke="black" points="174.5,-0.5 174.5,-19.5 251.5,-19.5 251.5,-0.5 174.5,-0.5"/>
<text text-anchor="middle" x="213" y="-7.5" font-family="Arial.ttf" font-size="10.00">SLButton.cpp</text>
</a>
</g>
</g>
<!-- Node4&#45;&gt;Node5 -->
<g id="edge4" class="edge"><title>Node4&#45;&gt;Node5</title>
<path fill="none" stroke="midnightblue" d="M213,-45.8045C213,-36.9102 213,-26.7798 213,-19.7511"/>
<polygon fill="midnightblue" stroke="midnightblue" points="209.5,-46.083 213,-56.083 216.5,-46.083 209.5,-46.083"/>
</g>
</g>
</svg>
