<?xml version="1.0" encoding="UTF-8" standalone="no"?>
<!DOCTYPE svg PUBLIC "-//W3C//DTD SVG 1.1//EN"
 "http://www.w3.org/Graphics/SVG/1.1/DTD/svg11.dtd">
<!-- Generated by graphviz version 2.50.0 (20211204.2007)
 -->
<!-- Title: SLDeviceLocation.h Pages: 1 -->
<svg width="342pt" height="84pt"
 viewBox="0.00 0.00 341.50 84.00" xmlns="http://www.w3.org/2000/svg" xmlns:xlink="http://www.w3.org/1999/xlink">
<g id="graph0" class="graph" transform="scale(1 1) rotate(0) translate(4 80)">
<title>SLDeviceLocation.h</title>
<polygon fill="white" stroke="transparent" points="-4,4 -4,-80 337.5,-80 337.5,4 -4,4"/>
<!-- Node1 -->
<g id="node1" class="node">
<title>Node1</title>
<g id="a_node1"><a xlink:title=" ">
<polygon fill="#bfbfbf" stroke="black" points="107,-56.5 107,-75.5 211,-75.5 211,-56.5 107,-56.5"/>
<text text-anchor="middle" x="159" y="-63.5" font-family="Arial" font-size="10.00">SLDeviceLocation.h</text>
</a>
</g>
</g>
<!-- Node2 -->
<g id="node2" class="node">
<title>Node2</title>
<g id="a_node2"><a xlink:href="_app_demo_load_8cpp.html" target="_top" xlink:title=" ">
<polygon fill="white" stroke="black" points="0,-0.5 0,-19.5 100,-19.5 100,-0.5 0,-0.5"/>
<text text-anchor="middle" x="50" y="-7.5" font-family="Arial" font-size="10.00">AppDemoLoad.cpp</text>
</a>
</g>
</g>
<!-- Node1&#45;&gt;Node2 -->
<g id="edge1" class="edge">
<title>Node1&#45;&gt;Node2</title>
<path fill="none" stroke="midnightblue" d="M132.48,-51.86C112.27,-41.85 85.01,-28.35 67.47,-19.65"/>
<polygon fill="midnightblue" stroke="midnightblue" points="130.97,-55.02 141.49,-56.32 134.08,-48.75 130.97,-55.02"/>
</g>
<!-- Node3 -->
<g id="node3" class="node">
<title>Node3</title>
<g id="a_node3"><a xlink:href="_s_l_camera_8cpp.html" target="_top" xlink:title=" ">
<polygon fill="white" stroke="black" points="118,-0.5 118,-19.5 200,-19.5 200,-0.5 118,-0.5"/>
<text text-anchor="middle" x="159" y="-7.5" font-family="Arial" font-size="10.00">SLCamera.cpp</text>
</a>
</g>
</g>
<!-- Node1&#45;&gt;Node3 -->
<g id="edge2" class="edge">
<title>Node1&#45;&gt;Node3</title>
<path fill="none" stroke="midnightblue" d="M159,-45.8C159,-36.91 159,-26.78 159,-19.75"/>
<polygon fill="midnightblue" stroke="midnightblue" points="155.5,-46.08 159,-56.08 162.5,-46.08 155.5,-46.08"/>
</g>
<!-- Node4 -->
<g id="node4" class="node">
<title>Node4</title>
<g id="a_node4"><a xlink:href="_s_l_device_location_8cpp.html" target="_top" xlink:title=" ">
<polygon fill="white" stroke="black" points="218.5,-0.5 218.5,-19.5 333.5,-19.5 333.5,-0.5 218.5,-0.5"/>
<text text-anchor="middle" x="276" y="-7.5" font-family="Arial" font-size="10.00">SLDeviceLocation.cpp</text>
</a>
</g>
</g>
<!-- Node1&#45;&gt;Node4 -->
<g id="edge3" class="edge">
<title>Node1&#45;&gt;Node4</title>
<path fill="none" stroke="midnightblue" d="M186.66,-52.23C208.55,-42.13 238.5,-28.31 257.55,-19.52"/>
<polygon fill="midnightblue" stroke="midnightblue" points="185.15,-49.08 177.54,-56.44 188.09,-55.43 185.15,-49.08"/>
</g>
</g>
</svg>
