<?xml version="1.0" encoding="UTF-8" standalone="no"?>
<!DOCTYPE svg PUBLIC "-//W3C//DTD SVG 1.1//EN"
 "http://www.w3.org/Graphics/SVG/1.1/DTD/svg11.dtd">
<!-- Generated by graphviz version 2.38.0 (20140413.2041)
 -->
<!-- Title: SLSkeleton.h Pages: 1 -->
<svg width="2038pt" height="308pt"
 viewBox="0.00 0.00 2037.50 308.00" xmlns="http://www.w3.org/2000/svg" xmlns:xlink="http://www.w3.org/1999/xlink">
<g id="graph0" class="graph" transform="scale(1 1) rotate(0) translate(4 304)">
<title>SLSkeleton.h</title>
<polygon fill="white" stroke="none" points="-4,4 -4,-304 2033.5,-304 2033.5,4 -4,4"/>
<!-- Node1 -->
<g id="node1" class="node"><title>Node1</title>
<polygon fill="#bfbfbf" stroke="black" points="1567,-280.5 1567,-299.5 1639,-299.5 1639,-280.5 1567,-280.5"/>
<text text-anchor="middle" x="1603" y="-287.5" font-family="Arial.ttf" font-size="10.00">SLSkeleton.h</text>
</g>
<!-- Node2 -->
<g id="node2" class="node"><title>Node2</title>
<g id="a_node2"><a xlink:href="_s_l_assimp_importer_8cpp.html" target="_top" xlink:title="SLAssimpImporter.cpp">
<polygon fill="white" stroke="black" points="99.5,-112.5 99.5,-131.5 212.5,-131.5 212.5,-112.5 99.5,-112.5"/>
<text text-anchor="middle" x="156" y="-119.5" font-family="Arial.ttf" font-size="10.00">SLAssimpImporter.cpp</text>
</a>
</g>
</g>
<!-- Node1&#45;&gt;Node2 -->
<g id="edge1" class="edge"><title>Node1&#45;&gt;Node2</title>
<path fill="none" stroke="midnightblue" d="M1556.31,-287.501C1397.29,-281.863 862.522,-258.526 427,-188 337.926,-173.576 234.806,-145.67 185.381,-131.582"/>
<polygon fill="midnightblue" stroke="midnightblue" points="1556.55,-291.012 1566.67,-287.862 1556.8,-284.016 1556.55,-291.012"/>
</g>
<!-- Node3 -->
<g id="node3" class="node"><title>Node3</title>
<g id="a_node3"><a xlink:href="_s_l_animation_8cpp.html" target="_top" xlink:title="SLAnimation.cpp">
<polygon fill="white" stroke="black" points="1820,-112.5 1820,-131.5 1908,-131.5 1908,-112.5 1820,-112.5"/>
<text text-anchor="middle" x="1864" y="-119.5" font-family="Arial.ttf" font-size="10.00">SLAnimation.cpp</text>
</a>
</g>
</g>
<!-- Node1&#45;&gt;Node3 -->
<g id="edge2" class="edge"><title>Node1&#45;&gt;Node3</title>
<path fill="none" stroke="midnightblue" d="M1625.24,-274.853C1677.74,-241.465 1808.11,-158.547 1850.47,-131.605"/>
<polygon fill="midnightblue" stroke="midnightblue" points="1623.22,-271.989 1616.67,-280.309 1626.98,-277.895 1623.22,-271.989"/>
</g>
<!-- Node4 -->
<g id="node4" class="node"><title>Node4</title>
<g id="a_node4"><a xlink:href="_s_l_anim_manager_8cpp.html" target="_top" xlink:title="SLAnimManager.cpp">
<polygon fill="white" stroke="black" points="1598,-112.5 1598,-131.5 1702,-131.5 1702,-112.5 1598,-112.5"/>
<text text-anchor="middle" x="1650" y="-119.5" font-family="Arial.ttf" font-size="10.00">SLAnimManager.cpp</text>
</a>
</g>
</g>
<!-- Node1&#45;&gt;Node4 -->
<g id="edge3" class="edge"><title>Node1&#45;&gt;Node4</title>
<path fill="none" stroke="midnightblue" d="M1615.46,-271.729C1620.72,-263.662 1626.43,-253.712 1630,-244 1644.76,-203.829 1648.67,-152.146 1649.67,-131.793"/>
<polygon fill="midnightblue" stroke="midnightblue" points="1612.42,-269.977 1609.66,-280.206 1618.19,-273.931 1612.42,-269.977"/>
</g>
<!-- Node5 -->
<g id="node5" class="node"><title>Node5</title>
<g id="a_node5"><a xlink:href="_s_l_joint_8cpp.html" target="_top" xlink:title="SLJoint.cpp">
<polygon fill="white" stroke="black" points="1964.5,-224.5 1964.5,-243.5 2029.5,-243.5 2029.5,-224.5 1964.5,-224.5"/>
<text text-anchor="middle" x="1997" y="-231.5" font-family="Arial.ttf" font-size="10.00">SLJoint.cpp</text>
</a>
</g>
</g>
<!-- Node1&#45;&gt;Node5 -->
<g id="edge4" class="edge"><title>Node1&#45;&gt;Node5</title>
<path fill="none" stroke="midnightblue" d="M1649.23,-283.902C1715.86,-276.351 1842.68,-261.218 1950,-244 1954.68,-243.25 1959.6,-242.388 1964.43,-241.5"/>
<polygon fill="midnightblue" stroke="midnightblue" points="1648.61,-280.449 1639.07,-285.048 1649.4,-287.405 1648.61,-280.449"/>
</g>
<!-- Node6 -->
<g id="node6" class="node"><title>Node6</title>
<g id="a_node6"><a xlink:href="_s_l_mesh_8cpp.html" target="_top" xlink:title="SLMesh.cpp">
<polygon fill="white" stroke="black" points="1854,-56.5 1854,-75.5 1922,-75.5 1922,-56.5 1854,-56.5"/>
<text text-anchor="middle" x="1888" y="-63.5" font-family="Arial.ttf" font-size="10.00">SLMesh.cpp</text>
</a>
</g>
</g>
<!-- Node1&#45;&gt;Node6 -->
<g id="edge5" class="edge"><title>Node1&#45;&gt;Node6</title>
<path fill="none" stroke="midnightblue" d="M1649.23,-281.583C1721.43,-267.223 1858.7,-228.106 1917,-132 1928.54,-112.983 1909.51,-88.5737 1897.2,-75.7567"/>
<polygon fill="midnightblue" stroke="midnightblue" points="1648.24,-278.21 1639.07,-283.526 1649.55,-285.086 1648.24,-278.21"/>
</g>
<!-- Node7 -->
<g id="node7" class="node"><title>Node7</title>
<g id="a_node7"><a xlink:href="_s_l_skeleton_8cpp.html" target="_top" xlink:title="SLSkeleton.cpp">
<polygon fill="white" stroke="black" points="1720,-112.5 1720,-131.5 1802,-131.5 1802,-112.5 1720,-112.5"/>
<text text-anchor="middle" x="1761" y="-119.5" font-family="Arial.ttf" font-size="10.00">SLSkeleton.cpp</text>
</a>
</g>
</g>
<!-- Node1&#45;&gt;Node7 -->
<g id="edge6" class="edge"><title>Node1&#45;&gt;Node7</title>
<path fill="none" stroke="midnightblue" d="M1618.54,-273.249C1627,-264.644 1637.62,-253.777 1647,-244 1687.17,-202.147 1734.54,-151.423 1753.04,-131.56"/>
<polygon fill="midnightblue" stroke="midnightblue" points="1616,-270.837 1611.48,-280.419 1620.99,-275.748 1616,-270.837"/>
</g>
<!-- Node8 -->
<g id="node8" class="node"><title>Node8</title>
<g id="a_node8"><a xlink:href="_s_l_anim_manager_8h.html" target="_top" xlink:title="SLAnimManager.h">
<polygon fill="white" stroke="black" points="1508.5,-224.5 1508.5,-243.5 1603.5,-243.5 1603.5,-224.5 1508.5,-224.5"/>
<text text-anchor="middle" x="1556" y="-231.5" font-family="Arial.ttf" font-size="10.00">SLAnimManager.h</text>
</a>
</g>
</g>
<!-- Node1&#45;&gt;Node8 -->
<g id="edge7" class="edge"><title>Node1&#45;&gt;Node8</title>
<path fill="none" stroke="midnightblue" d="M1588.58,-272.431C1580.34,-262.967 1570.35,-251.483 1563.62,-243.751"/>
<polygon fill="midnightblue" stroke="midnightblue" points="1586.03,-274.838 1595.24,-280.083 1591.31,-270.242 1586.03,-274.838"/>
</g>
<!-- Node12 -->
<g id="node12" class="node"><title>Node12</title>
<g id="a_node12"><a xlink:href="_s_l_scene_8h.html" target="_top" xlink:title="SLScene.h">
<polygon fill="white" stroke="black" points="1075,-168.5 1075,-187.5 1137,-187.5 1137,-168.5 1075,-168.5"/>
<text text-anchor="middle" x="1106" y="-175.5" font-family="Arial.ttf" font-size="10.00">SLScene.h</text>
</a>
</g>
</g>
<!-- Node1&#45;&gt;Node12 -->
<g id="edge61" class="edge"><title>Node1&#45;&gt;Node12</title>
<path fill="none" stroke="midnightblue" d="M1557.04,-278.829C1457.05,-256.696 1221.9,-204.651 1137.14,-185.892"/>
<polygon fill="midnightblue" stroke="midnightblue" points="1556.34,-282.257 1566.86,-281 1557.85,-275.422 1556.34,-282.257"/>
</g>
<!-- Node37 -->
<g id="node37" class="node"><title>Node37</title>
<g id="a_node37"><a xlink:href="_s_l_assimp_importer_8h.html" target="_top" xlink:title="SLAssimpImporter.h">
<polygon fill="white" stroke="black" points="0,-168.5 0,-187.5 104,-187.5 104,-168.5 0,-168.5"/>
<text text-anchor="middle" x="52" y="-175.5" font-family="Arial.ttf" font-size="10.00">SLAssimpImporter.h</text>
</a>
</g>
</g>
<!-- Node1&#45;&gt;Node37 -->
<g id="edge54" class="edge"><title>Node1&#45;&gt;Node37</title>
<path fill="none" stroke="midnightblue" d="M1556.37,-288.544C1311.78,-286.029 185.624,-272.913 118,-244 90.1997,-232.114 67.6369,-202.631 57.6118,-187.806"/>
<polygon fill="midnightblue" stroke="midnightblue" points="1556.65,-292.046 1566.69,-288.649 1556.72,-285.047 1556.65,-292.046"/>
</g>
<!-- Node38 -->
<g id="node38" class="node"><title>Node38</title>
<g id="a_node38"><a xlink:href="_s_l_importer_8h.html" target="_top" xlink:title="SLImporter.h">
<polygon fill="white" stroke="black" points="127.5,-224.5 127.5,-243.5 200.5,-243.5 200.5,-224.5 127.5,-224.5"/>
<text text-anchor="middle" x="164" y="-231.5" font-family="Arial.ttf" font-size="10.00">SLImporter.h</text>
</a>
</g>
</g>
<!-- Node1&#45;&gt;Node38 -->
<g id="edge58" class="edge"><title>Node1&#45;&gt;Node38</title>
<path fill="none" stroke="midnightblue" d="M1556.73,-288.284C1347.46,-284.926 488.079,-269.798 220,-244 213.727,-243.396 207.09,-242.532 200.664,-241.575"/>
<polygon fill="midnightblue" stroke="midnightblue" points="1556.71,-291.784 1566.77,-288.444 1556.83,-284.785 1556.71,-291.784"/>
</g>
<!-- Node8&#45;&gt;Node3 -->
<g id="edge8" class="edge"><title>Node8&#45;&gt;Node3</title>
<path fill="none" stroke="midnightblue" d="M1589.7,-220.966C1652.35,-198.59 1785.34,-151.092 1839.89,-131.61"/>
<polygon fill="midnightblue" stroke="midnightblue" points="1588.15,-217.8 1579.91,-224.46 1590.51,-224.393 1588.15,-217.8"/>
</g>
<!-- Node8&#45;&gt;Node4 -->
<g id="edge9" class="edge"><title>Node8&#45;&gt;Node4</title>
<path fill="none" stroke="midnightblue" d="M1570.03,-216.586C1590.29,-192.871 1627.04,-149.869 1642.66,-131.591"/>
<polygon fill="midnightblue" stroke="midnightblue" points="1567.21,-214.492 1563.38,-224.368 1572.53,-219.04 1567.21,-214.492"/>
</g>
<!-- Node8&#45;&gt;Node8 -->
<g id="edge13" class="edge"><title>Node8&#45;&gt;Node8</title>
<path fill="none" stroke="midnightblue" d="M1594.02,-244.448C1609,-244.974 1621.5,-241.492 1621.5,-234 1621.5,-224.867 1602.92,-221.692 1583.94,-224.475"/>
<polygon fill="midnightblue" stroke="midnightblue" points="1594.21,-240.951 1583.94,-243.525 1593.58,-247.922 1594.21,-240.951"/>
</g>
<!-- Node9 -->
<g id="node9" class="node"><title>Node9</title>
<g id="a_node9"><a xlink:href="_s_l_scene_8cpp.html" target="_top" xlink:title="SLScene.cpp">
<polygon fill="white" stroke="black" points="1409.5,-0.5 1409.5,-19.5 1480.5,-19.5 1480.5,-0.5 1409.5,-0.5"/>
<text text-anchor="middle" x="1445" y="-7.5" font-family="Arial.ttf" font-size="10.00">SLScene.cpp</text>
</a>
</g>
</g>
<!-- Node8&#45;&gt;Node9 -->
<g id="edge10" class="edge"><title>Node8&#45;&gt;Node9</title>
<path fill="none" stroke="midnightblue" d="M1550.2,-214.689C1543.35,-189.314 1535.32,-143.078 1556,-112 1578.96,-77.5043 1619.04,-110.496 1642,-76 1646.92,-68.5999 1647.54,-62.9501 1642,-56 1622.21,-31.1755 1531.92,-18.9592 1480.72,-13.9319"/>
<polygon fill="midnightblue" stroke="midnightblue" points="1546.89,-215.854 1553.06,-224.467 1553.61,-213.886 1546.89,-215.854"/>
</g>
<!-- Node10 -->
<g id="node10" class="node"><title>Node10</title>
<g id="a_node10"><a xlink:href="_s_l_scene__on_load_8cpp.html" target="_top" xlink:title="SLScene_onLoad.cpp">
<polygon fill="white" stroke="black" points="181.5,-56.5 181.5,-75.5 288.5,-75.5 288.5,-56.5 181.5,-56.5"/>
<text text-anchor="middle" x="235" y="-63.5" font-family="Arial.ttf" font-size="10.00">SLScene_onLoad.cpp</text>
</a>
</g>
</g>
<!-- Node8&#45;&gt;Node10 -->
<g id="edge11" class="edge"><title>Node8&#45;&gt;Node10</title>
<path fill="none" stroke="midnightblue" d="M1498.15,-231.687C1261.39,-225.882 373.932,-199.739 270,-132 249.814,-118.843 240.4,-89.9555 236.824,-75.5372"/>
<polygon fill="midnightblue" stroke="midnightblue" points="1498.19,-235.189 1508.27,-231.933 1498.36,-228.191 1498.19,-235.189"/>
</g>
<!-- Node11 -->
<g id="node11" class="node"><title>Node11</title>
<g id="a_node11"><a xlink:href="_s_l_scene_view_8cpp.html" target="_top" xlink:title="SLSceneView.cpp">
<polygon fill="white" stroke="black" points="1733,-0.5 1733,-19.5 1825,-19.5 1825,-0.5 1733,-0.5"/>
<text text-anchor="middle" x="1779" y="-7.5" font-family="Arial.ttf" font-size="10.00">SLSceneView.cpp</text>
</a>
</g>
</g>
<!-- Node8&#45;&gt;Node11 -->
<g id="edge12" class="edge"><title>Node8&#45;&gt;Node11</title>
<path fill="none" stroke="midnightblue" d="M1555.46,-214.201C1555.78,-187.484 1560.57,-138.805 1589,-112 1645.51,-58.7187 1703.01,-128.767 1760,-76 1776.05,-61.1428 1778.81,-33.5619 1779.11,-19.5895"/>
<polygon fill="midnightblue" stroke="midnightblue" points="1551.96,-214.508 1555.55,-224.477 1558.96,-214.447 1551.96,-214.508"/>
</g>
<!-- Node8&#45;&gt;Node12 -->
<g id="edge14" class="edge"><title>Node8&#45;&gt;Node12</title>
<path fill="none" stroke="midnightblue" d="M1498.12,-226.054C1401.75,-214.489 1211.63,-191.676 1137.06,-182.727"/>
<polygon fill="midnightblue" stroke="midnightblue" points="1497.92,-229.556 1508.27,-227.272 1498.76,-222.606 1497.92,-229.556"/>
</g>
<!-- Node12&#45;&gt;Node2 -->
<g id="edge16" class="edge"><title>Node12&#45;&gt;Node2</title>
<path fill="none" stroke="midnightblue" d="M1064.62,-175.21C942.31,-169.829 571.883,-152.875 265,-132 247.95,-130.84 229.417,-129.384 212.55,-127.982"/>
<polygon fill="midnightblue" stroke="midnightblue" points="1064.53,-178.71 1074.67,-175.651 1064.83,-171.716 1064.53,-178.71"/>
</g>
<!-- Node12&#45;&gt;Node3 -->
<g id="edge20" class="edge"><title>Node12&#45;&gt;Node3</title>
<path fill="none" stroke="midnightblue" d="M1147.24,-175.873C1256.07,-172.573 1559.88,-161.255 1811,-132 1813.87,-131.665 1816.83,-131.28 1819.8,-130.86"/>
<polygon fill="midnightblue" stroke="midnightblue" points="1146.92,-172.381 1137.03,-176.176 1147.13,-179.378 1146.92,-172.381"/>
</g>
<!-- Node12&#45;&gt;Node4 -->
<g id="edge21" class="edge"><title>Node12&#45;&gt;Node4</title>
<path fill="none" stroke="midnightblue" d="M1147.28,-172.902C1245.01,-163.202 1490.35,-138.848 1598,-128.162"/>
<polygon fill="midnightblue" stroke="midnightblue" points="1146.81,-169.432 1137.2,-173.903 1147.5,-176.398 1146.81,-169.432"/>
</g>
<!-- Node12&#45;&gt;Node7 -->
<g id="edge32" class="edge"><title>Node12&#45;&gt;Node7</title>
<path fill="none" stroke="midnightblue" d="M1147.38,-175.405C1245.54,-171.299 1500.05,-158.758 1711,-132 1713.89,-131.634 1716.86,-131.212 1719.85,-130.756"/>
<polygon fill="midnightblue" stroke="midnightblue" points="1147.13,-171.912 1137.29,-175.821 1147.42,-178.906 1147.13,-171.912"/>
</g>
<!-- Node12&#45;&gt;Node9 -->
<g id="edge30" class="edge"><title>Node12&#45;&gt;Node9</title>
<path fill="none" stroke="midnightblue" d="M1064.73,-176.878C917.346,-176.119 422.557,-170.689 364,-132 333.966,-112.157 311.067,-81.9648 336,-56 374.037,-16.388 1223.99,-11.6403 1409.47,-11.0756"/>
<polygon fill="midnightblue" stroke="midnightblue" points="1064.72,-180.378 1074.73,-176.925 1064.75,-173.378 1064.72,-180.378"/>
</g>
<!-- Node12&#45;&gt;Node10 -->
<g id="edge31" class="edge"><title>Node12&#45;&gt;Node10</title>
<path fill="none" stroke="midnightblue" d="M1064.86,-176.358C910.775,-173.725 373.119,-162.427 303,-132 274.834,-119.778 251.364,-90.4521 240.883,-75.7351"/>
<polygon fill="midnightblue" stroke="midnightblue" points="1064.8,-179.857 1074.86,-176.525 1064.92,-172.858 1064.8,-179.857"/>
</g>
<!-- Node13 -->
<g id="node13" class="node"><title>Node13</title>
<g id="a_node13"><a xlink:href="_s_l_curve_bezier_8cpp.html" target="_top" xlink:title="SLCurveBezier.cpp">
<polygon fill="white" stroke="black" points="383,-112.5 383,-131.5 479,-131.5 479,-112.5 383,-112.5"/>
<text text-anchor="middle" x="431" y="-119.5" font-family="Arial.ttf" font-size="10.00">SLCurveBezier.cpp</text>
</a>
</g>
</g>
<!-- Node12&#45;&gt;Node13 -->
<g id="edge15" class="edge"><title>Node12&#45;&gt;Node13</title>
<path fill="none" stroke="midnightblue" d="M1064.48,-175.182C964.82,-170.556 704.278,-156.904 488,-132 485.114,-131.668 482.15,-131.295 479.163,-130.896"/>
<polygon fill="midnightblue" stroke="midnightblue" points="1064.57,-178.69 1074.72,-175.652 1064.9,-171.697 1064.57,-178.69"/>
</g>
<!-- Node14 -->
<g id="node14" class="node"><title>Node14</title>
<g id="a_node14"><a xlink:href="_s_l_interface_8cpp.html" target="_top" xlink:title="SLProject C&#45;functions interface implementation. ">
<polygon fill="white" stroke="black" points="345.5,-56.5 345.5,-75.5 428.5,-75.5 428.5,-56.5 345.5,-56.5"/>
<text text-anchor="middle" x="387" y="-63.5" font-family="Arial.ttf" font-size="10.00">SLInterface.cpp</text>
</a>
</g>
</g>
<!-- Node12&#45;&gt;Node14 -->
<g id="edge17" class="edge"><title>Node12&#45;&gt;Node14</title>
<path fill="none" stroke="midnightblue" d="M1147.51,-175.807C1216.5,-172.477 1342.89,-159.853 1297,-112 1263.94,-77.5258 485.484,-81.1617 438,-76 434.961,-75.6696 431.83,-75.2683 428.684,-74.8206"/>
<polygon fill="midnightblue" stroke="midnightblue" points="1147.2,-172.317 1137.37,-176.25 1147.51,-179.31 1147.2,-172.317"/>
</g>
<!-- Node15 -->
<g id="node15" class="node"><title>Node15</title>
<g id="a_node15"><a xlink:href="_s_l_tex_font_8cpp.html" target="_top" xlink:title="SLTexFont.cpp">
<polygon fill="white" stroke="black" points="497,-112.5 497,-131.5 577,-131.5 577,-112.5 497,-112.5"/>
<text text-anchor="middle" x="537" y="-119.5" font-family="Arial.ttf" font-size="10.00">SLTexFont.cpp</text>
</a>
</g>
</g>
<!-- Node12&#45;&gt;Node15 -->
<g id="edge18" class="edge"><title>Node12&#45;&gt;Node15</title>
<path fill="none" stroke="midnightblue" d="M1064.7,-174.767C976.498,-169.706 763.336,-155.904 586,-132 583.086,-131.607 580.081,-131.16 577.062,-130.68"/>
<polygon fill="midnightblue" stroke="midnightblue" points="1064.64,-178.27 1074.82,-175.342 1065.04,-171.281 1064.64,-178.27"/>
</g>
<!-- Node16 -->
<g id="node16" class="node"><title>Node16</title>
<g id="a_node16"><a xlink:href="_s_l_a_a_b_box_8cpp.html" target="_top" xlink:title="SLAABBox.cpp">
<polygon fill="white" stroke="black" points="595.5,-112.5 595.5,-131.5 672.5,-131.5 672.5,-112.5 595.5,-112.5"/>
<text text-anchor="middle" x="634" y="-119.5" font-family="Arial.ttf" font-size="10.00">SLAABBox.cpp</text>
</a>
</g>
</g>
<!-- Node12&#45;&gt;Node16 -->
<g id="edge19" class="edge"><title>Node12&#45;&gt;Node16</title>
<path fill="none" stroke="midnightblue" d="M1064.85,-173.795C988.792,-167.617 821.192,-152.807 681,-132 678.288,-131.597 675.494,-131.149 672.685,-130.674"/>
<polygon fill="midnightblue" stroke="midnightblue" points="1064.71,-177.296 1074.96,-174.61 1065.27,-170.318 1064.71,-177.296"/>
</g>
<!-- Node17 -->
<g id="node17" class="node"><title>Node17</title>
<g id="a_node17"><a xlink:href="_s_l_g_l_buffer_8cpp.html" target="_top" xlink:title="SLGLBuffer.cpp">
<polygon fill="white" stroke="black" points="690.5,-112.5 690.5,-131.5 771.5,-131.5 771.5,-112.5 690.5,-112.5"/>
<text text-anchor="middle" x="731" y="-119.5" font-family="Arial.ttf" font-size="10.00">SLGLBuffer.cpp</text>
</a>
</g>
</g>
<!-- Node12&#45;&gt;Node17 -->
<g id="edge22" class="edge"><title>Node12&#45;&gt;Node17</title>
<path fill="none" stroke="midnightblue" d="M1064.42,-171.791C1002.53,-163.913 882.569,-148.166 781,-132 777.951,-131.515 774.802,-130.994 771.636,-130.456"/>
<polygon fill="midnightblue" stroke="midnightblue" points="1064.2,-175.291 1074.56,-173.077 1065.08,-168.347 1064.2,-175.291"/>
</g>
<!-- Node18 -->
<g id="node18" class="node"><title>Node18</title>
<g id="a_node18"><a xlink:href="_s_l_g_l_oculus_8cpp.html" target="_top" xlink:title="SLGLOculus.cpp">
<polygon fill="white" stroke="black" points="790,-112.5 790,-131.5 874,-131.5 874,-112.5 790,-112.5"/>
<text text-anchor="middle" x="832" y="-119.5" font-family="Arial.ttf" font-size="10.00">SLGLOculus.cpp</text>
</a>
</g>
</g>
<!-- Node12&#45;&gt;Node18 -->
<g id="edge23" class="edge"><title>Node12&#45;&gt;Node18</title>
<path fill="none" stroke="midnightblue" d="M1064.76,-168.872C1013.41,-158.753 926.174,-141.56 874.33,-131.342"/>
<polygon fill="midnightblue" stroke="midnightblue" points="1064.35,-172.358 1074.84,-170.858 1065.7,-165.49 1064.35,-172.358"/>
</g>
<!-- Node19 -->
<g id="node19" class="node"><title>Node19</title>
<g id="a_node19"><a xlink:href="_s_l_g_l_oculus_f_b_8cpp.html" target="_top" xlink:title="SLGLOculusFB.cpp">
<polygon fill="white" stroke="black" points="892.5,-112.5 892.5,-131.5 987.5,-131.5 987.5,-112.5 892.5,-112.5"/>
<text text-anchor="middle" x="940" y="-119.5" font-family="Arial.ttf" font-size="10.00">SLGLOculusFB.cpp</text>
</a>
</g>
</g>
<!-- Node12&#45;&gt;Node19 -->
<g id="edge24" class="edge"><title>Node12&#45;&gt;Node19</title>
<path fill="none" stroke="midnightblue" d="M1070.05,-165.304C1038.77,-155.129 994.179,-140.625 966.18,-131.516"/>
<polygon fill="midnightblue" stroke="midnightblue" points="1069.1,-168.678 1079.7,-168.444 1071.27,-162.022 1069.1,-168.678"/>
</g>
<!-- Node20 -->
<g id="node20" class="node"><title>Node20</title>
<g id="a_node20"><a xlink:href="_s_l_g_l_program_8cpp.html" target="_top" xlink:title="SLGLProgram.cpp">
<polygon fill="white" stroke="black" points="1006,-112.5 1006,-131.5 1098,-131.5 1098,-112.5 1006,-112.5"/>
<text text-anchor="middle" x="1052" y="-119.5" font-family="Arial.ttf" font-size="10.00">SLGLProgram.cpp</text>
</a>
</g>
</g>
<!-- Node12&#45;&gt;Node20 -->
<g id="edge25" class="edge"><title>Node12&#45;&gt;Node20</title>
<path fill="none" stroke="midnightblue" d="M1090,-161.002C1080.43,-151.433 1068.64,-139.639 1060.75,-131.751"/>
<polygon fill="midnightblue" stroke="midnightblue" points="1087.54,-163.487 1097.08,-168.083 1092.49,-158.537 1087.54,-163.487"/>
</g>
<!-- Node21 -->
<g id="node21" class="node"><title>Node21</title>
<g id="a_node21"><a xlink:href="_s_l_g_l_texture_8cpp.html" target="_top" xlink:title="SLGLTexture.cpp">
<polygon fill="white" stroke="black" points="1116.5,-112.5 1116.5,-131.5 1205.5,-131.5 1205.5,-112.5 1116.5,-112.5"/>
<text text-anchor="middle" x="1161" y="-119.5" font-family="Arial.ttf" font-size="10.00">SLGLTexture.cpp</text>
</a>
</g>
</g>
<!-- Node12&#45;&gt;Node21 -->
<g id="edge26" class="edge"><title>Node12&#45;&gt;Node21</title>
<path fill="none" stroke="midnightblue" d="M1122.29,-161.002C1132.04,-151.433 1144.05,-139.639 1152.09,-131.751"/>
<polygon fill="midnightblue" stroke="midnightblue" points="1119.77,-158.58 1115.08,-168.083 1124.67,-163.575 1119.77,-158.58"/>
</g>
<!-- Node22 -->
<g id="node22" class="node"><title>Node22</title>
<g id="a_node22"><a xlink:href="_s_l_input_manager_8cpp.html" target="_top" xlink:title="SLInputManager.cpp">
<polygon fill="white" stroke="black" points="1427,-56.5 1427,-75.5 1531,-75.5 1531,-56.5 1427,-56.5"/>
<text text-anchor="middle" x="1479" y="-63.5" font-family="Arial.ttf" font-size="10.00">SLInputManager.cpp</text>
</a>
</g>
</g>
<!-- Node12&#45;&gt;Node22 -->
<g id="edge27" class="edge"><title>Node12&#45;&gt;Node22</title>
<path fill="none" stroke="midnightblue" d="M1147.63,-175.555C1225.31,-172.179 1388.77,-161.672 1436,-132 1457.31,-118.612 1470.35,-90.3652 1475.89,-75.919"/>
<polygon fill="midnightblue" stroke="midnightblue" points="1147.1,-172.073 1137.25,-175.985 1147.39,-179.067 1147.1,-172.073"/>
</g>
<!-- Node23 -->
<g id="node23" class="node"><title>Node23</title>
<g id="a_node23"><a xlink:href="_s_l_light_rect_8cpp.html" target="_top" xlink:title="SLLightRect.cpp">
<polygon fill="white" stroke="black" points="1549,-56.5 1549,-75.5 1633,-75.5 1633,-56.5 1549,-56.5"/>
<text text-anchor="middle" x="1591" y="-63.5" font-family="Arial.ttf" font-size="10.00">SLLightRect.cpp</text>
</a>
</g>
</g>
<!-- Node12&#45;&gt;Node23 -->
<g id="edge28" class="edge"><title>Node12&#45;&gt;Node23</title>
<path fill="none" stroke="midnightblue" d="M1147.16,-176.191C1214.13,-173.903 1350.23,-165.177 1460,-132 1505.45,-118.264 1554.4,-89.9124 1577.48,-75.6271"/>
<polygon fill="midnightblue" stroke="midnightblue" points="1146.91,-172.697 1137.02,-176.506 1147.13,-179.694 1146.91,-172.697"/>
</g>
<!-- Node24 -->
<g id="node24" class="node"><title>Node24</title>
<g id="a_node24"><a xlink:href="_s_l_light_sphere_8cpp.html" target="_top" xlink:title="SLLightSphere.cpp">
<polygon fill="white" stroke="black" points="447,-56.5 447,-75.5 543,-75.5 543,-56.5 447,-56.5"/>
<text text-anchor="middle" x="495" y="-63.5" font-family="Arial.ttf" font-size="10.00">SLLightSphere.cpp</text>
</a>
</g>
</g>
<!-- Node12&#45;&gt;Node24 -->
<g id="edge29" class="edge"><title>Node12&#45;&gt;Node24</title>
<path fill="none" stroke="midnightblue" d="M1064.52,-176.004C913.108,-172.171 397.797,-157.305 374,-132 347.617,-103.945 402.678,-85.4188 446.923,-75.5639"/>
<polygon fill="midnightblue" stroke="midnightblue" points="1064.7,-179.51 1074.78,-176.261 1064.87,-172.512 1064.7,-179.51"/>
</g>
<!-- Node25 -->
<g id="node25" class="node"><title>Node25</title>
<g id="a_node25"><a xlink:href="_s_l_text_8cpp.html" target="_top" xlink:title="SLText.cpp">
<polygon fill="white" stroke="black" points="1224,-112.5 1224,-131.5 1288,-131.5 1288,-112.5 1224,-112.5"/>
<text text-anchor="middle" x="1256" y="-119.5" font-family="Arial.ttf" font-size="10.00">SLText.cpp</text>
</a>
</g>
</g>
<!-- Node12&#45;&gt;Node25 -->
<g id="edge33" class="edge"><title>Node12&#45;&gt;Node25</title>
<path fill="none" stroke="midnightblue" d="M1139.22,-165.039C1167.45,-154.879 1207.26,-140.546 1232.34,-131.516"/>
<polygon fill="midnightblue" stroke="midnightblue" points="1137.99,-161.763 1129.77,-168.444 1140.36,-168.349 1137.99,-161.763"/>
</g>
<!-- Node26 -->
<g id="node26" class="node"><title>Node26</title>
<g id="a_node26"><a xlink:href="_s_l_scene_view_8h.html" target="_top" xlink:title="SLSceneView.h">
<polygon fill="white" stroke="black" points="1344.5,-112.5 1344.5,-131.5 1427.5,-131.5 1427.5,-112.5 1344.5,-112.5"/>
<text text-anchor="middle" x="1386" y="-119.5" font-family="Arial.ttf" font-size="10.00">SLSceneView.h</text>
</a>
</g>
</g>
<!-- Node12&#45;&gt;Node26 -->
<g id="edge34" class="edge"><title>Node12&#45;&gt;Node26</title>
<path fill="none" stroke="midnightblue" d="M1147.07,-169.079C1199.93,-158.885 1291.26,-141.27 1344.39,-131.026"/>
<polygon fill="midnightblue" stroke="midnightblue" points="1146.19,-165.684 1137.03,-171.015 1147.52,-172.558 1146.19,-165.684"/>
</g>
<!-- Node26&#45;&gt;Node6 -->
<g id="edge42" class="edge"><title>Node26&#45;&gt;Node6</title>
<path fill="none" stroke="midnightblue" d="M1437.63,-115.446C1540.3,-104.402 1767.62,-79.9496 1853.89,-70.6693"/>
<polygon fill="midnightblue" stroke="midnightblue" points="1437.08,-111.985 1427.51,-116.535 1437.82,-118.945 1437.08,-111.985"/>
</g>
<!-- Node26&#45;&gt;Node9 -->
<g id="edge47" class="edge"><title>Node26&#45;&gt;Node9</title>
<path fill="none" stroke="midnightblue" d="M1355.95,-107.823C1332.4,-95.5704 1305.79,-76.2113 1320,-56 1340.03,-27.5058 1379.92,-16.9696 1409.27,-13.1202"/>
<polygon fill="midnightblue" stroke="midnightblue" points="1354.55,-111.034 1365.07,-112.312 1357.65,-104.754 1354.55,-111.034"/>
</g>
<!-- Node26&#45;&gt;Node10 -->
<g id="edge48" class="edge"><title>Node26&#45;&gt;Node10</title>
<path fill="none" stroke="midnightblue" d="M1334.34,-115.217C1322.11,-114.003 1309.1,-112.838 1297,-112 870.61,-82.4842 762.558,-102.977 336,-76 320.627,-75.0278 303.964,-73.6687 288.688,-72.3009"/>
<polygon fill="midnightblue" stroke="midnightblue" points="1334.09,-118.709 1344.39,-116.242 1334.8,-111.745 1334.09,-118.709"/>
</g>
<!-- Node26&#45;&gt;Node14 -->
<g id="edge35" class="edge"><title>Node26&#45;&gt;Node14</title>
<path fill="none" stroke="midnightblue" d="M1334.46,-112.481C1332.96,-112.308 1331.47,-112.147 1330,-112 935.209,-72.4509 832.477,-118.572 438,-76 434.961,-75.672 431.829,-75.2724 428.683,-74.8259"/>
<polygon fill="midnightblue" stroke="midnightblue" points="1334.12,-115.965 1344.48,-113.764 1335.01,-109.022 1334.12,-115.965"/>
</g>
<!-- Node26&#45;&gt;Node22 -->
<g id="edge37" class="edge"><title>Node26&#45;&gt;Node22</title>
<path fill="none" stroke="midnightblue" d="M1409.81,-107.177C1426.92,-97.2407 1449.47,-84.1492 1464.1,-75.6545"/>
<polygon fill="midnightblue" stroke="midnightblue" points="1407.83,-104.276 1400.94,-112.324 1411.35,-110.329 1407.83,-104.276"/>
</g>
<!-- Node26&#45;&gt;Node23 -->
<g id="edge39" class="edge"><title>Node26&#45;&gt;Node23</title>
<path fill="none" stroke="midnightblue" d="M1428.41,-109.829C1467.11,-99.6333 1523.49,-84.7823 1558.67,-75.5164"/>
<polygon fill="midnightblue" stroke="midnightblue" points="1427.26,-106.512 1418.48,-112.444 1429.04,-113.281 1427.26,-106.512"/>
</g>
<!-- Node26&#45;&gt;Node24 -->
<g id="edge40" class="edge"><title>Node26&#45;&gt;Node24</title>
<path fill="none" stroke="midnightblue" d="M1334.46,-112.492C1332.96,-112.316 1331.47,-112.152 1330,-112 985.679,-76.4802 896.369,-111.046 552,-76 549.11,-75.7058 546.143,-75.3628 543.153,-74.9858"/>
<polygon fill="midnightblue" stroke="midnightblue" points="1334.11,-115.976 1344.48,-113.791 1335.01,-109.034 1334.11,-115.976"/>
</g>
<!-- Node27 -->
<g id="node27" class="node"><title>Node27</title>
<g id="a_node27"><a xlink:href="_s_l_camera_8cpp.html" target="_top" xlink:title="SLCamera.cpp">
<polygon fill="white" stroke="black" points="1329.5,-56.5 1329.5,-75.5 1408.5,-75.5 1408.5,-56.5 1329.5,-56.5"/>
<text text-anchor="middle" x="1369" y="-63.5" font-family="Arial.ttf" font-size="10.00">SLCamera.cpp</text>
</a>
</g>
</g>
<!-- Node26&#45;&gt;Node27 -->
<g id="edge36" class="edge"><title>Node26&#45;&gt;Node27</title>
<path fill="none" stroke="midnightblue" d="M1380.14,-102.396C1377.3,-93.362 1374.02,-82.936 1371.75,-75.7511"/>
<polygon fill="midnightblue" stroke="midnightblue" points="1376.85,-103.596 1383.19,-112.083 1383.53,-101.493 1376.85,-103.596"/>
</g>
<!-- Node28 -->
<g id="node28" class="node"><title>Node28</title>
<g id="a_node28"><a xlink:href="_s_l_k_d_tree_8cpp.html" target="_top" xlink:title="SLKDTree.cpp">
<polygon fill="white" stroke="black" points="561.5,-56.5 561.5,-75.5 638.5,-75.5 638.5,-56.5 561.5,-56.5"/>
<text text-anchor="middle" x="600" y="-63.5" font-family="Arial.ttf" font-size="10.00">SLKDTree.cpp</text>
</a>
</g>
</g>
<!-- Node26&#45;&gt;Node28 -->
<g id="edge38" class="edge"><title>Node26&#45;&gt;Node28</title>
<path fill="none" stroke="midnightblue" d="M1334.46,-112.505C1332.96,-112.325 1331.47,-112.156 1330,-112 1028.17,-79.8723 949.385,-112.048 648,-76 644.969,-75.6375 641.842,-75.199 638.705,-74.713"/>
<polygon fill="midnightblue" stroke="midnightblue" points="1334.11,-115.988 1344.48,-113.821 1335.02,-109.048 1334.11,-115.988"/>
</g>
<!-- Node29 -->
<g id="node29" class="node"><title>Node29</title>
<g id="a_node29"><a xlink:href="_s_l_material_8cpp.html" target="_top" xlink:title="SLMaterial.cpp">
<polygon fill="white" stroke="black" points="657,-56.5 657,-75.5 737,-75.5 737,-56.5 657,-56.5"/>
<text text-anchor="middle" x="697" y="-63.5" font-family="Arial.ttf" font-size="10.00">SLMaterial.cpp</text>
</a>
</g>
</g>
<!-- Node26&#45;&gt;Node29 -->
<g id="edge41" class="edge"><title>Node26&#45;&gt;Node29</title>
<path fill="none" stroke="midnightblue" d="M1334.46,-112.522C1332.96,-112.337 1331.47,-112.163 1330,-112 1071.54,-83.3338 1004.13,-107.546 746,-76 743.081,-75.6433 740.073,-75.2225 737.051,-74.7611"/>
<polygon fill="midnightblue" stroke="midnightblue" points="1334.1,-116.005 1344.47,-113.862 1335.02,-109.067 1334.1,-116.005"/>
</g>
<!-- Node30 -->
<g id="node30" class="node"><title>Node30</title>
<g id="a_node30"><a xlink:href="_s_l_node_8cpp.html" target="_top" xlink:title="SLNode.cpp">
<polygon fill="white" stroke="black" points="755.5,-56.5 755.5,-75.5 822.5,-75.5 822.5,-56.5 755.5,-56.5"/>
<text text-anchor="middle" x="789" y="-63.5" font-family="Arial.ttf" font-size="10.00">SLNode.cpp</text>
</a>
</g>
</g>
<!-- Node26&#45;&gt;Node30 -->
<g id="edge43" class="edge"><title>Node26&#45;&gt;Node30</title>
<path fill="none" stroke="midnightblue" d="M1334.46,-112.542C1332.95,-112.352 1331.47,-112.17 1330,-112 1109.13,-86.3342 1051.13,-107.371 831,-76 828.342,-75.6212 825.601,-75.171 822.853,-74.677"/>
<polygon fill="midnightblue" stroke="midnightblue" points="1334.08,-116.024 1344.47,-113.911 1335.03,-109.089 1334.08,-116.024"/>
</g>
<!-- Node31 -->
<g id="node31" class="node"><title>Node31</title>
<g id="a_node31"><a xlink:href="_s_l_pathtracer_8cpp.html" target="_top" xlink:title="SLPathtracer.cpp">
<polygon fill="white" stroke="black" points="840.5,-56.5 840.5,-75.5 929.5,-75.5 929.5,-56.5 840.5,-56.5"/>
<text text-anchor="middle" x="885" y="-63.5" font-family="Arial.ttf" font-size="10.00">SLPathtracer.cpp</text>
</a>
</g>
</g>
<!-- Node26&#45;&gt;Node31 -->
<g id="edge44" class="edge"><title>Node26&#45;&gt;Node31</title>
<path fill="none" stroke="midnightblue" d="M1334.45,-112.58C1332.95,-112.379 1331.47,-112.185 1330,-112 1156.42,-90.1066 1111.48,-98.6617 938,-76 935.316,-75.6494 932.56,-75.2628 929.783,-74.8527"/>
<polygon fill="midnightblue" stroke="midnightblue" points="1334.06,-116.06 1344.46,-114.002 1335.05,-109.13 1334.06,-116.06"/>
</g>
<!-- Node32 -->
<g id="node32" class="node"><title>Node32</title>
<g id="a_node32"><a xlink:href="_s_l_photon_mapper_8cpp.html" target="_top" xlink:title="SLPhotonMapper.cpp">
<polygon fill="white" stroke="black" points="947.5,-56.5 947.5,-75.5 1054.5,-75.5 1054.5,-56.5 947.5,-56.5"/>
<text text-anchor="middle" x="1001" y="-63.5" font-family="Arial.ttf" font-size="10.00">SLPhotonMapper.cpp</text>
</a>
</g>
</g>
<!-- Node26&#45;&gt;Node32 -->
<g id="edge45" class="edge"><title>Node26&#45;&gt;Node32</title>
<path fill="none" stroke="midnightblue" d="M1334.44,-112.664C1332.94,-112.438 1331.46,-112.216 1330,-112 1211.99,-94.5335 1182.16,-92.4359 1064,-76 1060.94,-75.5738 1057.79,-75.1332 1054.61,-74.6863"/>
<polygon fill="midnightblue" stroke="midnightblue" points="1334.01,-116.139 1344.43,-114.201 1335.08,-109.221 1334.01,-116.139"/>
</g>
<!-- Node33 -->
<g id="node33" class="node"><title>Node33</title>
<g id="a_node33"><a xlink:href="_s_l_raytracer_8cpp.html" target="_top" xlink:title="SLRaytracer.cpp">
<polygon fill="white" stroke="black" points="1073,-56.5 1073,-75.5 1159,-75.5 1159,-56.5 1073,-56.5"/>
<text text-anchor="middle" x="1116" y="-63.5" font-family="Arial.ttf" font-size="10.00">SLRaytracer.cpp</text>
</a>
</g>
</g>
<!-- Node26&#45;&gt;Node33 -->
<g id="edge46" class="edge"><title>Node26&#45;&gt;Node33</title>
<path fill="none" stroke="midnightblue" d="M1334.56,-110.713C1283.52,-100.505 1206.22,-85.0434 1158.53,-75.5069"/>
<polygon fill="midnightblue" stroke="midnightblue" points="1333.91,-114.152 1344.4,-112.681 1335.28,-107.288 1333.91,-114.152"/>
</g>
<!-- Node34 -->
<g id="node34" class="node"><title>Node34</title>
<g id="a_node34"><a xlink:href="_s_l_uniform_grid_8cpp.html" target="_top" xlink:title="SLUniformGrid.cpp">
<polygon fill="white" stroke="black" points="1177,-56.5 1177,-75.5 1273,-75.5 1273,-56.5 1177,-56.5"/>
<text text-anchor="middle" x="1225" y="-63.5" font-family="Arial.ttf" font-size="10.00">SLUniformGrid.cpp</text>
</a>
</g>
</g>
<!-- Node26&#45;&gt;Node34 -->
<g id="edge49" class="edge"><title>Node26&#45;&gt;Node34</title>
<path fill="none" stroke="midnightblue" d="M1350.74,-109.172C1320.42,-99.0039 1277.43,-84.5852 1250.39,-75.5164"/>
<polygon fill="midnightblue" stroke="midnightblue" points="1349.9,-112.582 1360.49,-112.444 1352.12,-105.945 1349.9,-112.582"/>
</g>
<!-- Node35 -->
<g id="node35" class="node"><title>Node35</title>
<g id="a_node35"><a xlink:href="_s_l_button_8h.html" target="_top" xlink:title="SLButton.h">
<polygon fill="white" stroke="black" points="1689,-56.5 1689,-75.5 1751,-75.5 1751,-56.5 1689,-56.5"/>
<text text-anchor="middle" x="1720" y="-63.5" font-family="Arial.ttf" font-size="10.00">SLButton.h</text>
</a>
</g>
</g>
<!-- Node26&#45;&gt;Node35 -->
<g id="edge50" class="edge"><title>Node26&#45;&gt;Node35</title>
<path fill="none" stroke="midnightblue" d="M1437.58,-112.66C1507.78,-101.311 1631.23,-81.3525 1688.8,-72.0446"/>
<polygon fill="midnightblue" stroke="midnightblue" points="1436.94,-109.219 1427.63,-114.27 1438.06,-116.129 1436.94,-109.219"/>
</g>
<!-- Node35&#45;&gt;Node9 -->
<g id="edge52" class="edge"><title>Node35&#45;&gt;Node9</title>
<path fill="none" stroke="midnightblue" d="M1678.32,-56.6581C1677.2,-56.4362 1676.09,-56.2165 1675,-56 1606.35,-42.4188 1526.12,-26.7736 1480.86,-17.9687"/>
<polygon fill="midnightblue" stroke="midnightblue" points="1678.04,-60.1707 1688.53,-58.689 1679.41,-53.3052 1678.04,-60.1707"/>
</g>
<!-- Node35&#45;&gt;Node11 -->
<g id="edge53" class="edge"><title>Node35&#45;&gt;Node11</title>
<path fill="none" stroke="midnightblue" d="M1736.89,-49.5372C1747.41,-39.9087 1760.57,-27.8694 1769.35,-19.8339"/>
<polygon fill="midnightblue" stroke="midnightblue" points="1734.49,-46.9905 1729.48,-56.324 1739.22,-52.1542 1734.49,-46.9905"/>
</g>
<!-- Node36 -->
<g id="node36" class="node"><title>Node36</title>
<g id="a_node36"><a xlink:href="_s_l_button_8cpp.html" target="_top" xlink:title="SLButton.cpp">
<polygon fill="white" stroke="black" points="1643,-0.5 1643,-19.5 1715,-19.5 1715,-0.5 1643,-0.5"/>
<text text-anchor="middle" x="1679" y="-7.5" font-family="Arial.ttf" font-size="10.00">SLButton.cpp</text>
</a>
</g>
</g>
<!-- Node35&#45;&gt;Node36 -->
<g id="edge51" class="edge"><title>Node35&#45;&gt;Node36</title>
<path fill="none" stroke="midnightblue" d="M1706.98,-47.8554C1699.88,-38.5048 1691.4,-27.3265 1685.64,-19.7511"/>
<polygon fill="midnightblue" stroke="midnightblue" points="1704.39,-50.235 1713.23,-56.083 1709.97,-46.002 1704.39,-50.235"/>
</g>
<!-- Node37&#45;&gt;Node2 -->
<g id="edge55" class="edge"><title>Node37&#45;&gt;Node2</title>
<path fill="none" stroke="midnightblue" d="M77.8275,-163.59C97.0567,-153.605 122.745,-140.267 139.332,-131.655"/>
<polygon fill="midnightblue" stroke="midnightblue" points="75.9715,-160.61 68.7094,-168.324 79.1972,-166.822 75.9715,-160.61"/>
</g>
<!-- Node37&#45;&gt;Node10 -->
<g id="edge57" class="edge"><title>Node37&#45;&gt;Node10</title>
<path fill="none" stroke="midnightblue" d="M48.0492,-158.072C46.2275,-143.788 46.4143,-124.568 57,-112 72.9137,-93.1056 134.81,-80.5945 181.174,-73.6634"/>
<polygon fill="midnightblue" stroke="midnightblue" points="44.6527,-158.976 49.7805,-168.247 51.5535,-157.802 44.6527,-158.976"/>
</g>
<!-- Node37&#45;&gt;Node14 -->
<g id="edge56" class="edge"><title>Node37&#45;&gt;Node14</title>
<path fill="none" stroke="midnightblue" d="M57.8415,-158.359C63.5614,-143.342 73.8093,-122.983 90,-112 110.797,-97.892 268.647,-79.518 345.377,-71.2999"/>
<polygon fill="midnightblue" stroke="midnightblue" points="54.4198,-157.545 54.4567,-168.14 61.0348,-159.834 54.4198,-157.545"/>
</g>
<!-- Node38&#45;&gt;Node37 -->
<g id="edge60" class="edge"><title>Node38&#45;&gt;Node37</title>
<path fill="none" stroke="midnightblue" d="M136.751,-219.862C115.984,-209.849 87.9766,-196.346 69.9501,-187.655"/>
<polygon fill="midnightblue" stroke="midnightblue" points="135.477,-223.134 146.005,-224.324 138.518,-216.828 135.477,-223.134"/>
</g>
<!-- Node39 -->
<g id="node39" class="node"><title>Node39</title>
<g id="a_node39"><a xlink:href="_s_l_importer_8cpp.html" target="_top" xlink:title="SLImporter.cpp">
<polygon fill="white" stroke="black" points="122.5,-168.5 122.5,-187.5 205.5,-187.5 205.5,-168.5 122.5,-168.5"/>
<text text-anchor="middle" x="164" y="-175.5" font-family="Arial.ttf" font-size="10.00">SLImporter.cpp</text>
</a>
</g>
</g>
<!-- Node38&#45;&gt;Node39 -->
<g id="edge59" class="edge"><title>Node38&#45;&gt;Node39</title>
<path fill="none" stroke="midnightblue" d="M164,-213.805C164,-204.91 164,-194.78 164,-187.751"/>
<polygon fill="midnightblue" stroke="midnightblue" points="160.5,-214.083 164,-224.083 167.5,-214.083 160.5,-214.083"/>
</g>
</g>
</svg>
