<?xml version="1.0" encoding="UTF-8" standalone="no"?>
<!DOCTYPE svg PUBLIC "-//W3C//DTD SVG 1.1//EN"
 "http://www.w3.org/Graphics/SVG/1.1/DTD/svg11.dtd">
<!-- Generated by graphviz version 2.50.0 (20211204.2007)
 -->
<!-- Title: WAIOrbVocabulary.h Pages: 1 -->
<svg width="1197pt" height="476pt"
 viewBox="0.00 0.00 1197.00 476.00" xmlns="http://www.w3.org/2000/svg" xmlns:xlink="http://www.w3.org/1999/xlink">
<g id="graph0" class="graph" transform="scale(1 1) rotate(0) translate(4 472)">
<title>WAIOrbVocabulary.h</title>
<polygon fill="white" stroke="transparent" points="-4,4 -4,-472 1193,-472 1193,4 -4,4"/>
<!-- Node1 -->
<g id="node1" class="node">
<title>Node1</title>
<g id="a_node1"><a xlink:title=" ">
<polygon fill="#bfbfbf" stroke="black" points="504.5,-448.5 504.5,-467.5 611.5,-467.5 611.5,-448.5 504.5,-448.5"/>
<text text-anchor="middle" x="558" y="-455.5" font-family="Arial" font-size="10.00">WAIOrbVocabulary.h</text>
</a>
</g>
</g>
<!-- Node2 -->
<g id="node2" class="node">
<title>Node2</title>
<g id="a_node2"><a xlink:href="_c_v_tracked_w_a_i_8h.html" target="_top" xlink:title=" ">
<polygon fill="white" stroke="black" points="5.5,-56.5 5.5,-75.5 98.5,-75.5 98.5,-56.5 5.5,-56.5"/>
<text text-anchor="middle" x="52" y="-63.5" font-family="Arial" font-size="10.00">CVTrackedWAI.h</text>
</a>
</g>
</g>
<!-- Node1&#45;&gt;Node2 -->
<g id="edge1" class="edge">
<title>Node1&#45;&gt;Node2</title>
<path fill="none" stroke="midnightblue" d="M494.05,-456.37C357.95,-453.31 52,-436.48 52,-347 52,-347 52,-347 52,-177 52,-139.19 52,-94.06 52,-75.56"/>
<polygon fill="midnightblue" stroke="midnightblue" points="494.26,-459.88 504.33,-456.59 494.4,-452.88 494.26,-459.88"/>
</g>
<!-- Node4 -->
<g id="node4" class="node">
<title>Node4</title>
<g id="a_node4"><a xlink:href="_w_a_i_frame_8h.html" target="_top" xlink:title=" ">
<polygon fill="white" stroke="black" points="629.5,-392.5 629.5,-411.5 700.5,-411.5 700.5,-392.5 629.5,-392.5"/>
<text text-anchor="middle" x="665" y="-399.5" font-family="Arial" font-size="10.00">WAIFrame.h</text>
</a>
</g>
</g>
<!-- Node1&#45;&gt;Node4 -->
<g id="edge3" class="edge">
<title>Node1&#45;&gt;Node4</title>
<path fill="none" stroke="midnightblue" d="M584.3,-443.73C604.11,-433.73 630.71,-420.31 647.85,-411.65"/>
<polygon fill="midnightblue" stroke="midnightblue" points="582.54,-440.69 575.19,-448.32 585.7,-446.94 582.54,-440.69"/>
</g>
<!-- Node9 -->
<g id="node9" class="node">
<title>Node9</title>
<g id="a_node9"><a xlink:href="_w_a_i_key_frame_8h.html" target="_top" xlink:title=" ">
<polygon fill="white" stroke="black" points="583.5,-336.5 583.5,-355.5 672.5,-355.5 672.5,-336.5 583.5,-336.5"/>
<text text-anchor="middle" x="628" y="-343.5" font-family="Arial" font-size="10.00">WAIKeyFrame.h</text>
</a>
</g>
</g>
<!-- Node1&#45;&gt;Node9 -->
<g id="edge38" class="edge">
<title>Node1&#45;&gt;Node9</title>
<path fill="none" stroke="midnightblue" d="M569.05,-439.64C584.25,-415.74 611.05,-373.63 622.53,-355.59"/>
<polygon fill="midnightblue" stroke="midnightblue" points="565.91,-438.05 563.49,-448.37 571.81,-441.81 565.91,-438.05"/>
</g>
<!-- Node11 -->
<g id="node11" class="node">
<title>Node11</title>
<g id="a_node11"><a xlink:href="_w_a_i_key_frame_d_b_8h.html" target="_top" xlink:title=" ">
<polygon fill="white" stroke="black" points="453.5,-280.5 453.5,-299.5 556.5,-299.5 556.5,-280.5 453.5,-280.5"/>
<text text-anchor="middle" x="505" y="-287.5" font-family="Arial" font-size="10.00">WAIKeyFrameDB.h</text>
</a>
</g>
</g>
<!-- Node1&#45;&gt;Node11 -->
<g id="edge39" class="edge">
<title>Node1&#45;&gt;Node11</title>
<path fill="none" stroke="midnightblue" d="M552.06,-438.39C540.63,-402.59 515.96,-325.34 507.74,-299.57"/>
<polygon fill="midnightblue" stroke="midnightblue" points="548.77,-439.61 555.15,-448.08 555.44,-437.48 548.77,-439.61"/>
</g>
<!-- Node21 -->
<g id="node21" class="node">
<title>Node21</title>
<g id="a_node21"><a xlink:href="_w_a_i_slam_tools_8h.html" target="_top" xlink:title=" ">
<polygon fill="white" stroke="black" points="213.5,-168.5 213.5,-187.5 302.5,-187.5 302.5,-168.5 213.5,-168.5"/>
<text text-anchor="middle" x="258" y="-175.5" font-family="Arial" font-size="10.00">WAISlamTools.h</text>
</a>
</g>
</g>
<!-- Node1&#45;&gt;Node21 -->
<g id="edge41" class="edge">
<title>Node1&#45;&gt;Node21</title>
<path fill="none" stroke="midnightblue" d="M494.47,-446.89C406.42,-431.05 258,-396.94 258,-347 258,-347 258,-347 258,-289 258,-251.19 258,-206.06 258,-187.56"/>
<polygon fill="midnightblue" stroke="midnightblue" points="493.91,-450.34 504.37,-448.64 495.13,-443.45 493.91,-450.34"/>
</g>
<!-- Node25 -->
<g id="node25" class="node">
<title>Node25</title>
<g id="a_node25"><a xlink:href="_w_a_i_orb_vocabulary_8cpp.html" target="_top" xlink:title=" ">
<polygon fill="white" stroke="black" points="718.5,-392.5 718.5,-411.5 835.5,-411.5 835.5,-392.5 718.5,-392.5"/>
<text text-anchor="middle" x="777" y="-399.5" font-family="Arial" font-size="10.00">WAIOrbVocabulary.cpp</text>
</a>
</g>
</g>
<!-- Node1&#45;&gt;Node25 -->
<g id="edge40" class="edge">
<title>Node1&#45;&gt;Node25</title>
<path fill="none" stroke="midnightblue" d="M602.51,-446.02C643.88,-435.82 704.64,-420.84 742.46,-411.52"/>
<polygon fill="midnightblue" stroke="midnightblue" points="601.57,-442.65 592.7,-448.44 603.25,-449.45 601.57,-442.65"/>
</g>
<!-- Node3 -->
<g id="node3" class="node">
<title>Node3</title>
<g id="a_node3"><a xlink:href="_c_v_tracked_w_a_i_8cpp.html" target="_top" xlink:title=" ">
<polygon fill="white" stroke="black" points="0,-0.5 0,-19.5 104,-19.5 104,-0.5 0,-0.5"/>
<text text-anchor="middle" x="52" y="-7.5" font-family="Arial" font-size="10.00">CVTrackedWAI.cpp</text>
</a>
</g>
</g>
<!-- Node2&#45;&gt;Node3 -->
<g id="edge2" class="edge">
<title>Node2&#45;&gt;Node3</title>
<path fill="none" stroke="midnightblue" d="M52,-45.8C52,-36.91 52,-26.78 52,-19.75"/>
<polygon fill="midnightblue" stroke="midnightblue" points="48.5,-46.08 52,-56.08 55.5,-46.08 48.5,-46.08"/>
</g>
<!-- Node5 -->
<g id="node5" class="node">
<title>Node5</title>
<g id="a_node5"><a xlink:href="_f2_f_transform_8h.html" target="_top" xlink:title=" ">
<polygon fill="white" stroke="black" points="880,-336.5 880,-355.5 966,-355.5 966,-336.5 880,-336.5"/>
<text text-anchor="middle" x="923" y="-343.5" font-family="Arial" font-size="10.00">F2FTransform.h</text>
</a>
</g>
</g>
<!-- Node4&#45;&gt;Node5 -->
<g id="edge4" class="edge">
<title>Node4&#45;&gt;Node5</title>
<path fill="none" stroke="midnightblue" d="M710.54,-391.47C759.17,-381.29 835.53,-365.31 882.24,-355.53"/>
<polygon fill="midnightblue" stroke="midnightblue" points="709.67,-388.07 700.6,-393.55 711.11,-394.93 709.67,-388.07"/>
</g>
<!-- Node8 -->
<g id="node8" class="node">
<title>Node8</title>
<g id="a_node8"><a xlink:href="_w_a_i_frame_8cpp.html" target="_top" xlink:title=" ">
<polygon fill="white" stroke="black" points="786,-112.5 786,-131.5 868,-131.5 868,-112.5 786,-112.5"/>
<text text-anchor="middle" x="827" y="-119.5" font-family="Arial" font-size="10.00">WAIFrame.cpp</text>
</a>
</g>
</g>
<!-- Node4&#45;&gt;Node8 -->
<g id="edge7" class="edge">
<title>Node4&#45;&gt;Node8</title>
<path fill="none" stroke="midnightblue" d="M697.79,-388.66C749.96,-367.99 846,-325.29 846,-291 846,-291 846,-291 846,-233 846,-194.82 834.75,-150.26 829.56,-131.75"/>
<polygon fill="midnightblue" stroke="midnightblue" points="696.33,-385.47 688.29,-392.37 698.88,-391.99 696.33,-385.47"/>
</g>
<!-- Node4&#45;&gt;Node9 -->
<g id="edge8" class="edge">
<title>Node4&#45;&gt;Node9</title>
<path fill="none" stroke="midnightblue" d="M653.05,-383.57C646.69,-374.27 639.13,-363.25 634,-355.75"/>
<polygon fill="midnightblue" stroke="midnightblue" points="650.35,-385.81 658.89,-392.08 656.13,-381.86 650.35,-385.81"/>
</g>
<!-- Node16 -->
<g id="node16" class="node">
<title>Node16</title>
<g id="a_node16"><a xlink:href="_w_a_i_map_point_8cpp.html" target="_top" xlink:title=" ">
<polygon fill="white" stroke="black" points="886.5,-112.5 886.5,-131.5 981.5,-131.5 981.5,-112.5 886.5,-112.5"/>
<text text-anchor="middle" x="934" y="-119.5" font-family="Arial" font-size="10.00">WAIMapPoint.cpp</text>
</a>
</g>
</g>
<!-- Node4&#45;&gt;Node16 -->
<g id="edge37" class="edge">
<title>Node4&#45;&gt;Node16</title>
<path fill="none" stroke="midnightblue" d="M710.94,-392.11C837.34,-375.31 1189,-396.81 1189,-291 1189,-291 1189,-291 1189,-233 1189,-143.68 1055.47,-126.03 981.66,-123.1"/>
<polygon fill="midnightblue" stroke="midnightblue" points="710.2,-388.69 700.82,-393.63 711.23,-395.61 710.2,-388.69"/>
</g>
<!-- Node6 -->
<g id="node6" class="node">
<title>Node6</title>
<g id="a_node6"><a xlink:href="_f2_f_transform_8cpp.html" target="_top" xlink:title=" ">
<polygon fill="white" stroke="black" points="874.5,-280.5 874.5,-299.5 971.5,-299.5 971.5,-280.5 874.5,-280.5"/>
<text text-anchor="middle" x="923" y="-287.5" font-family="Arial" font-size="10.00">F2FTransform.cpp</text>
</a>
</g>
</g>
<!-- Node5&#45;&gt;Node6 -->
<g id="edge5" class="edge">
<title>Node5&#45;&gt;Node6</title>
<path fill="none" stroke="midnightblue" d="M923,-325.8C923,-316.91 923,-306.78 923,-299.75"/>
<polygon fill="midnightblue" stroke="midnightblue" points="919.5,-326.08 923,-336.08 926.5,-326.08 919.5,-326.08"/>
</g>
<!-- Node7 -->
<g id="node7" class="node">
<title>Node7</title>
<g id="a_node7"><a xlink:href="_w_a_i_image_stabilized_orientation_8cpp.html" target="_top" xlink:title=" ">
<polygon fill="white" stroke="black" points="989.5,-280.5 989.5,-299.5 1160.5,-299.5 1160.5,-280.5 989.5,-280.5"/>
<text text-anchor="middle" x="1075" y="-287.5" font-family="Arial" font-size="10.00">WAIImageStabilizedOrientation.cpp</text>
</a>
</g>
</g>
<!-- Node5&#45;&gt;Node7 -->
<g id="edge6" class="edge">
<title>Node5&#45;&gt;Node7</title>
<path fill="none" stroke="midnightblue" d="M956.67,-333.04C985.27,-322.88 1025.61,-308.55 1051.03,-299.52"/>
<polygon fill="midnightblue" stroke="midnightblue" points="955.34,-329.8 947.08,-336.44 957.68,-336.39 955.34,-329.8"/>
</g>
<!-- Node10 -->
<g id="node10" class="node">
<title>Node10</title>
<g id="a_node10"><a xlink:href="_w_a_i_key_frame_8cpp.html" target="_top" xlink:title=" ">
<polygon fill="white" stroke="black" points="668.5,-112.5 668.5,-131.5 767.5,-131.5 767.5,-112.5 668.5,-112.5"/>
<text text-anchor="middle" x="718" y="-119.5" font-family="Arial" font-size="10.00">WAIKeyFrame.cpp</text>
</a>
</g>
</g>
<!-- Node9&#45;&gt;Node10 -->
<g id="edge9" class="edge">
<title>Node9&#45;&gt;Node10</title>
<path fill="none" stroke="midnightblue" d="M648.2,-330.19C680.43,-305.16 742.24,-251.01 766,-188 769.14,-179.68 769.53,-176.16 766,-168 759.19,-152.28 743.88,-139.53 732.37,-131.67"/>
<polygon fill="midnightblue" stroke="midnightblue" points="645.8,-327.62 639.95,-336.46 650.03,-333.2 645.8,-327.62"/>
</g>
<!-- Node9&#45;&gt;Node11 -->
<g id="edge10" class="edge">
<title>Node9&#45;&gt;Node11</title>
<path fill="none" stroke="midnightblue" d="M599.23,-332.37C576.19,-322.26 544.52,-308.35 524.4,-299.52"/>
<polygon fill="midnightblue" stroke="midnightblue" points="597.95,-335.63 608.51,-336.44 600.76,-329.22 597.95,-335.63"/>
</g>
<!-- Node13 -->
<g id="node13" class="node">
<title>Node13</title>
<g id="a_node13"><a xlink:href="_w_a_i_map_8h.html" target="_top" xlink:title=" ">
<polygon fill="white" stroke="black" points="532,-224.5 532,-243.5 594,-243.5 594,-224.5 532,-224.5"/>
<text text-anchor="middle" x="563" y="-231.5" font-family="Arial" font-size="10.00">WAIMap.h</text>
</a>
</g>
</g>
<!-- Node9&#45;&gt;Node13 -->
<g id="edge34" class="edge">
<title>Node9&#45;&gt;Node13</title>
<path fill="none" stroke="midnightblue" d="M617.74,-327.64C603.62,-303.74 578.74,-261.63 568.08,-243.59"/>
<polygon fill="midnightblue" stroke="midnightblue" points="614.8,-329.54 622.9,-336.37 620.83,-325.98 614.8,-329.54"/>
</g>
<!-- Node9&#45;&gt;Node16 -->
<g id="edge35" class="edge">
<title>Node9&#45;&gt;Node16</title>
<path fill="none" stroke="midnightblue" d="M653.88,-331.49C669.58,-322.99 689.84,-311.49 707,-300 795.03,-241.05 892.94,-158.35 923.99,-131.66"/>
<polygon fill="midnightblue" stroke="midnightblue" points="651.93,-328.56 644.76,-336.37 655.23,-334.74 651.93,-328.56"/>
</g>
<!-- Node17 -->
<g id="node17" class="node">
<title>Node17</title>
<g id="a_node17"><a xlink:href="_w_a_i_slam_8h.html" target="_top" xlink:title=" ">
<polygon fill="white" stroke="black" points="466,-112.5 466,-131.5 532,-131.5 532,-112.5 466,-112.5"/>
<text text-anchor="middle" x="499" y="-119.5" font-family="Arial" font-size="10.00">WAISlam.h</text>
</a>
</g>
</g>
<!-- Node9&#45;&gt;Node17 -->
<g id="edge36" class="edge">
<title>Node9&#45;&gt;Node17</title>
<path fill="none" stroke="midnightblue" d="M631.77,-325.89C637.56,-290.78 644.54,-215.27 609,-168 590.83,-143.84 557.44,-132.59 532.19,-127.4"/>
<polygon fill="midnightblue" stroke="midnightblue" points="628.26,-325.69 629.92,-336.15 635.14,-326.93 628.26,-325.69"/>
</g>
<!-- Node11&#45;&gt;Node10 -->
<g id="edge11" class="edge">
<title>Node11&#45;&gt;Node10</title>
<path fill="none" stroke="midnightblue" d="M566.89,-282.7C625.43,-273.08 710.19,-248.86 751,-188 763.69,-169.08 742.22,-144.63 728.35,-131.78"/>
<polygon fill="midnightblue" stroke="midnightblue" points="566,-279.29 556.65,-284.28 567.07,-286.21 566,-279.29"/>
</g>
<!-- Node12 -->
<g id="node12" class="node">
<title>Node12</title>
<g id="a_node12"><a xlink:href="_w_a_i_key_frame_d_b_8cpp.html" target="_top" xlink:title=" ">
<polygon fill="white" stroke="black" points="362.5,-224.5 362.5,-243.5 475.5,-243.5 475.5,-224.5 362.5,-224.5"/>
<text text-anchor="middle" x="419" y="-231.5" font-family="Arial" font-size="10.00">WAIKeyFrameDB.cpp</text>
</a>
</g>
</g>
<!-- Node11&#45;&gt;Node12 -->
<g id="edge12" class="edge">
<title>Node11&#45;&gt;Node12</title>
<path fill="none" stroke="midnightblue" d="M482.55,-274.9C466.78,-265 446.19,-252.07 432.78,-243.65"/>
<polygon fill="midnightblue" stroke="midnightblue" points="480.85,-277.97 491.18,-280.32 484.57,-272.04 480.85,-277.97"/>
</g>
<!-- Node11&#45;&gt;Node13 -->
<g id="edge13" class="edge">
<title>Node11&#45;&gt;Node13</title>
<path fill="none" stroke="midnightblue" d="M521.91,-273.25C532.2,-263.67 544.97,-251.79 553.51,-243.83"/>
<polygon fill="midnightblue" stroke="midnightblue" points="519.25,-270.95 514.32,-280.32 524.02,-276.07 519.25,-270.95"/>
</g>
<!-- Node11&#45;&gt;Node17 -->
<g id="edge32" class="edge">
<title>Node11&#45;&gt;Node17</title>
<path fill="none" stroke="midnightblue" d="M504.31,-269.93C503.01,-233.92 500.24,-157.23 499.31,-131.57"/>
<polygon fill="midnightblue" stroke="midnightblue" points="500.82,-270.21 504.68,-280.08 507.81,-269.96 500.82,-270.21"/>
</g>
<!-- Node19 -->
<g id="node19" class="node">
<title>Node19</title>
<g id="a_node19"><a xlink:href="_w_a_i_mode_orb_slam2_8h.html" target="_top" xlink:title=" ">
<polygon fill="white" stroke="black" points="320.5,-168.5 320.5,-187.5 431.5,-187.5 431.5,-168.5 320.5,-168.5"/>
<text text-anchor="middle" x="376" y="-175.5" font-family="Arial" font-size="10.00">WAIModeOrbSlam2.h</text>
</a>
</g>
</g>
<!-- Node11&#45;&gt;Node19 -->
<g id="edge31" class="edge">
<title>Node11&#45;&gt;Node19</title>
<path fill="none" stroke="midnightblue" d="M443.18,-287.45C410.82,-283.1 373.73,-271.76 353,-244 339.96,-226.54 357.09,-201.06 368.08,-187.78"/>
<polygon fill="midnightblue" stroke="midnightblue" points="443.15,-290.97 453.49,-288.63 443.95,-284.02 443.15,-290.97"/>
</g>
<!-- Node11&#45;&gt;Node21 -->
<g id="edge33" class="edge">
<title>Node11&#45;&gt;Node21</title>
<path fill="none" stroke="midnightblue" d="M447.58,-278.23C416.24,-271.04 377.35,-259.94 345,-244 313.88,-228.66 282.55,-201.79 267.39,-187.89"/>
<polygon fill="midnightblue" stroke="midnightblue" points="446.96,-281.68 457.48,-280.43 448.47,-274.84 446.96,-281.68"/>
</g>
<!-- Node14 -->
<g id="node14" class="node">
<title>Node14</title>
<g id="a_node14"><a xlink:href="_w_a_i_map_8cpp.html" target="_top" xlink:title=" ">
<polygon fill="white" stroke="black" points="526.5,-168.5 526.5,-187.5 599.5,-187.5 599.5,-168.5 526.5,-168.5"/>
<text text-anchor="middle" x="563" y="-175.5" font-family="Arial" font-size="10.00">WAIMap.cpp</text>
</a>
</g>
</g>
<!-- Node13&#45;&gt;Node14 -->
<g id="edge14" class="edge">
<title>Node13&#45;&gt;Node14</title>
<path fill="none" stroke="midnightblue" d="M563,-213.8C563,-204.91 563,-194.78 563,-187.75"/>
<polygon fill="midnightblue" stroke="midnightblue" points="559.5,-214.08 563,-224.08 566.5,-214.08 559.5,-214.08"/>
</g>
<!-- Node15 -->
<g id="node15" class="node">
<title>Node15</title>
<g id="a_node15"><a xlink:href="_w_a_i_map_point_8h.html" target="_top" xlink:title=" ">
<polygon fill="white" stroke="black" points="656.5,-168.5 656.5,-187.5 741.5,-187.5 741.5,-168.5 656.5,-168.5"/>
<text text-anchor="middle" x="699" y="-175.5" font-family="Arial" font-size="10.00">WAIMapPoint.h</text>
</a>
</g>
</g>
<!-- Node13&#45;&gt;Node15 -->
<g id="edge15" class="edge">
<title>Node13&#45;&gt;Node15</title>
<path fill="none" stroke="midnightblue" d="M588.68,-220.5C612.7,-210.38 648.17,-196.39 672.47,-187.52"/>
<polygon fill="midnightblue" stroke="midnightblue" points="587.28,-217.29 579.46,-224.44 590.03,-223.73 587.28,-217.29"/>
</g>
<!-- Node13&#45;&gt;Node17 -->
<g id="edge25" class="edge">
<title>Node13&#45;&gt;Node17</title>
<path fill="none" stroke="midnightblue" d="M543.13,-217.75C533.98,-209.78 523.7,-199.34 517,-188 506.17,-169.65 501.64,-144.54 499.93,-131.55"/>
<polygon fill="midnightblue" stroke="midnightblue" points="541.14,-220.64 551.08,-224.32 545.6,-215.25 541.14,-220.64"/>
</g>
<!-- Node13&#45;&gt;Node19 -->
<g id="edge23" class="edge">
<title>Node13&#45;&gt;Node19</title>
<path fill="none" stroke="midnightblue" d="M523.41,-221.57C488.13,-211.38 437.31,-196.7 405.49,-187.52"/>
<polygon fill="midnightblue" stroke="midnightblue" points="522.79,-225.03 533.37,-224.44 524.73,-218.31 522.79,-225.03"/>
</g>
<!-- Node13&#45;&gt;Node21 -->
<g id="edge26" class="edge">
<title>Node13&#45;&gt;Node21</title>
<path fill="none" stroke="midnightblue" d="M521.66,-225.68C464.46,-215.55 361.57,-197.34 302.66,-186.91"/>
<polygon fill="midnightblue" stroke="midnightblue" points="521.34,-229.18 531.79,-227.47 522.56,-222.28 521.34,-229.18"/>
</g>
<!-- Node15&#45;&gt;Node8 -->
<g id="edge16" class="edge">
<title>Node15&#45;&gt;Node8</title>
<path fill="none" stroke="midnightblue" d="M728.62,-164.5C752.62,-154.38 785.78,-140.39 806.81,-131.52"/>
<polygon fill="midnightblue" stroke="midnightblue" points="727.14,-161.33 719.28,-168.44 729.86,-167.78 727.14,-161.33"/>
</g>
<!-- Node15&#45;&gt;Node10 -->
<g id="edge17" class="edge">
<title>Node15&#45;&gt;Node10</title>
<path fill="none" stroke="midnightblue" d="M705.55,-158.4C708.72,-149.36 712.39,-138.94 714.92,-131.75"/>
<polygon fill="midnightblue" stroke="midnightblue" points="702.15,-157.49 702.14,-168.08 708.76,-159.81 702.15,-157.49"/>
</g>
<!-- Node15&#45;&gt;Node13 -->
<g id="edge18" class="edge">
<title>Node15&#45;&gt;Node13</title>
<path fill="none" stroke="midnightblue" d="M673.43,-191.45C649.45,-201.56 613.97,-215.56 589.64,-224.44"/>
<polygon fill="midnightblue" stroke="midnightblue" points="674.81,-194.67 682.63,-187.52 672.06,-188.23 674.81,-194.67"/>
</g>
<!-- Node15&#45;&gt;Node16 -->
<g id="edge19" class="edge">
<title>Node15&#45;&gt;Node16</title>
<path fill="none" stroke="midnightblue" d="M746.21,-166.15C790.61,-155.95 856.19,-140.88 896.94,-131.52"/>
<polygon fill="midnightblue" stroke="midnightblue" points="745.2,-162.79 736.24,-168.44 746.77,-169.62 745.2,-162.79"/>
</g>
<!-- Node15&#45;&gt;Node17 -->
<g id="edge20" class="edge">
<title>Node15&#45;&gt;Node17</title>
<path fill="none" stroke="midnightblue" d="M657.63,-165.83C619.86,-155.63 564.86,-140.78 530.54,-131.52"/>
<polygon fill="midnightblue" stroke="midnightblue" points="656.74,-169.22 667.31,-168.44 658.57,-162.46 656.74,-169.22"/>
</g>
<!-- Node17&#45;&gt;Node2 -->
<g id="edge21" class="edge">
<title>Node17&#45;&gt;Node2</title>
<path fill="none" stroke="midnightblue" d="M455.25,-111.88C300.75,-87.96 258.68,-96.19 107,-76 104.31,-75.64 101.56,-75.26 98.78,-74.85"/>
<polygon fill="midnightblue" stroke="midnightblue" points="455.17,-115.41 465.59,-113.5 456.25,-108.49 455.17,-115.41"/>
</g>
<!-- Node18 -->
<g id="node18" class="node">
<title>Node18</title>
<g id="a_node18"><a xlink:href="_w_a_i_slam_8cpp.html" target="_top" xlink:title=" ">
<polygon fill="white" stroke="black" points="460.5,-56.5 460.5,-75.5 537.5,-75.5 537.5,-56.5 460.5,-56.5"/>
<text text-anchor="middle" x="499" y="-63.5" font-family="Arial" font-size="10.00">WAISlam.cpp</text>
</a>
</g>
</g>
<!-- Node17&#45;&gt;Node18 -->
<g id="edge22" class="edge">
<title>Node17&#45;&gt;Node18</title>
<path fill="none" stroke="midnightblue" d="M499,-101.8C499,-92.91 499,-82.78 499,-75.75"/>
<polygon fill="midnightblue" stroke="midnightblue" points="495.5,-102.08 499,-112.08 502.5,-102.08 495.5,-102.08"/>
</g>
<!-- Node20 -->
<g id="node20" class="node">
<title>Node20</title>
<g id="a_node20"><a xlink:href="_w_a_i_mode_orb_slam2_8cpp.html" target="_top" xlink:title=" ">
<polygon fill="white" stroke="black" points="326,-112.5 326,-131.5 448,-131.5 448,-112.5 326,-112.5"/>
<text text-anchor="middle" x="387" y="-119.5" font-family="Arial" font-size="10.00">WAIModeOrbSlam2.cpp</text>
</a>
</g>
</g>
<!-- Node19&#45;&gt;Node20 -->
<g id="edge24" class="edge">
<title>Node19&#45;&gt;Node20</title>
<path fill="none" stroke="midnightblue" d="M379.85,-158.1C381.68,-149.14 383.77,-138.86 385.22,-131.75"/>
<polygon fill="midnightblue" stroke="midnightblue" points="376.38,-157.59 377.82,-168.08 383.24,-158.98 376.38,-157.59"/>
</g>
<!-- Node21&#45;&gt;Node17 -->
<g id="edge27" class="edge">
<title>Node21&#45;&gt;Node17</title>
<path fill="none" stroke="midnightblue" d="M306.19,-166.2C353.46,-155.61 424.28,-139.74 465.65,-130.47"/>
<polygon fill="midnightblue" stroke="midnightblue" points="305.18,-162.84 296.19,-168.44 306.71,-169.67 305.18,-162.84"/>
</g>
<!-- Node22 -->
<g id="node22" class="node">
<title>Node22</title>
<g id="a_node22"><a xlink:href="_w_a_i_slam_tools_8cpp.html" target="_top" xlink:title=" ">
<polygon fill="white" stroke="black" points="208,-112.5 208,-131.5 308,-131.5 308,-112.5 208,-112.5"/>
<text text-anchor="middle" x="258" y="-119.5" font-family="Arial" font-size="10.00">WAISlamTools.cpp</text>
</a>
</g>
</g>
<!-- Node21&#45;&gt;Node22 -->
<g id="edge28" class="edge">
<title>Node21&#45;&gt;Node22</title>
<path fill="none" stroke="midnightblue" d="M258,-157.8C258,-148.91 258,-138.78 258,-131.75"/>
<polygon fill="midnightblue" stroke="midnightblue" points="254.5,-158.08 258,-168.08 261.5,-158.08 254.5,-158.08"/>
</g>
<!-- Node23 -->
<g id="node23" class="node">
<title>Node23</title>
<g id="a_node23"><a xlink:href="_w_a_i_slam_track_pool_8h.html" target="_top" xlink:title=" ">
<polygon fill="white" stroke="black" points="80,-112.5 80,-131.5 190,-131.5 190,-112.5 80,-112.5"/>
<text text-anchor="middle" x="135" y="-119.5" font-family="Arial" font-size="10.00">WAISlamTrackPool.h</text>
</a>
</g>
</g>
<!-- Node21&#45;&gt;Node23 -->
<g id="edge29" class="edge">
<title>Node21&#45;&gt;Node23</title>
<path fill="none" stroke="midnightblue" d="M229.23,-164.37C206.19,-154.26 174.52,-140.35 154.4,-131.52"/>
<polygon fill="midnightblue" stroke="midnightblue" points="227.95,-167.63 238.51,-168.44 230.76,-161.22 227.95,-167.63"/>
</g>
<!-- Node24 -->
<g id="node24" class="node">
<title>Node24</title>
<g id="a_node24"><a xlink:href="_w_a_i_slam_track_pool_8cpp.html" target="_top" xlink:title=" ">
<polygon fill="white" stroke="black" points="116.5,-56.5 116.5,-75.5 237.5,-75.5 237.5,-56.5 116.5,-56.5"/>
<text text-anchor="middle" x="177" y="-63.5" font-family="Arial" font-size="10.00">WAISlamTrackPool.cpp</text>
</a>
</g>
</g>
<!-- Node23&#45;&gt;Node24 -->
<g id="edge30" class="edge">
<title>Node23&#45;&gt;Node24</title>
<path fill="none" stroke="midnightblue" d="M148.11,-104.14C155.43,-94.74 164.24,-83.4 170.19,-75.75"/>
<polygon fill="midnightblue" stroke="midnightblue" points="145.31,-102.04 141.94,-112.08 150.84,-106.34 145.31,-102.04"/>
</g>
</g>
</svg>
