<?xml version="1.0" encoding="UTF-8" standalone="no"?>
<!DOCTYPE svg PUBLIC "-//W3C//DTD SVG 1.1//EN"
 "http://www.w3.org/Graphics/SVG/1.1/DTD/svg11.dtd">
<!-- Generated by graphviz version 2.40.1 (20161225.0304)
 -->
<!-- Title: WAIKeyFrameDB.h Pages: 1 -->
<svg width="1170pt" height="420pt"
 viewBox="0.00 0.00 1170.00 420.00" xmlns="http://www.w3.org/2000/svg" xmlns:xlink="http://www.w3.org/1999/xlink">
<g id="graph0" class="graph" transform="scale(1 1) rotate(0) translate(4 416)">
<title>WAIKeyFrameDB.h</title>
<polygon fill="#ffffff" stroke="transparent" points="-4,4 -4,-416 1166,-416 1166,4 -4,4"/>
<!-- Node1 -->
<g id="node1" class="node">
<title>Node1</title>
<g id="a_node1"><a xlink:title=" ">
<polygon fill="#bfbfbf" stroke="#000000" points="396,-392.5 396,-411.5 500,-411.5 500,-392.5 396,-392.5"/>
<text text-anchor="middle" x="448" y="-399.5" font-family="Arial.ttf" font-size="10.00" fill="#000000">WAIKeyFrameDB.h</text>
</a>
</g>
</g>
<!-- Node2 -->
<g id="node2" class="node">
<title>Node2</title>
<g id="a_node2"><a xlink:title=" ">
<polygon fill="#ffffff" stroke="#bfbfbf" points="245,-56.5 245,-75.5 289,-75.5 289,-56.5 245,-56.5"/>
<text text-anchor="middle" x="267" y="-63.5" font-family="Arial.ttf" font-size="10.00" fill="#000000">vector</text>
</a>
</g>
</g>
<!-- Node1&#45;&gt;Node2 -->
<g id="edge1" class="edge">
<title>Node1&#45;&gt;Node2</title>
<path fill="none" stroke="#191970" d="M395.7319,-399.9154C277.5544,-393.7801 0,-370.7728 0,-290 0,-290 0,-290 0,-178 0,-127.677 163.3253,-87.5599 234.4973,-72.4671"/>
<polygon fill="#191970" stroke="#191970" points="235.619,-75.8086 244.695,-70.3426 234.1913,-68.9557 235.619,-75.8086"/>
</g>
<!-- Node3 -->
<g id="node3" class="node">
<title>Node3</title>
<g id="a_node3"><a xlink:title=" ">
<polygon fill="#ffffff" stroke="#bfbfbf" points="336.5,-56.5 336.5,-75.5 365.5,-75.5 365.5,-56.5 336.5,-56.5"/>
<text text-anchor="middle" x="351" y="-63.5" font-family="Arial.ttf" font-size="10.00" fill="#000000">list</text>
</a>
</g>
</g>
<!-- Node1&#45;&gt;Node3 -->
<g id="edge2" class="edge">
<title>Node1&#45;&gt;Node3</title>
<path fill="none" stroke="#191970" d="M395.8755,-396.4371C298.9019,-384.871 96.9591,-354.6474 57,-300 51.7533,-292.8247 52.968,-287.9218 57,-280 86.8256,-221.4 262.7718,-116.4751 327.2949,-79.4135"/>
<polygon fill="#191970" stroke="#191970" points="329.3705,-82.2586 336.316,-74.2579 325.8971,-76.1811 329.3705,-82.2586"/>
</g>
<!-- Node4 -->
<g id="node4" class="node">
<title>Node4</title>
<g id="a_node4"><a xlink:href="_w_a_i_helper_8h.html" target="_top" xlink:title=" ">
<polygon fill="#ffffff" stroke="#000000" points="735.5,-56.5 735.5,-75.5 808.5,-75.5 808.5,-56.5 735.5,-56.5"/>
<text text-anchor="middle" x="772" y="-63.5" font-family="Arial.ttf" font-size="10.00" fill="#000000">WAIHelper.h</text>
</a>
</g>
</g>
<!-- Node1&#45;&gt;Node4 -->
<g id="edge3" class="edge">
<title>Node1&#45;&gt;Node4</title>
<path fill="none" stroke="#191970" d="M500.0997,-397.5925C644.2832,-384.701 1038,-344.5083 1038,-290 1038,-290 1038,-290 1038,-178 1038,-129.8193 995.3341,-133.0604 952,-112 909.3081,-91.2517 856.2164,-79.1568 818.79,-72.6229"/>
<polygon fill="#191970" stroke="#191970" points="819.1122,-69.1281 808.6708,-70.9249 817.9537,-76.0316 819.1122,-69.1281"/>
</g>
<!-- Node7 -->
<g id="node7" class="node">
<title>Node7</title>
<g id="a_node7"><a xlink:href="_w_a_i_key_frame_8h.html" target="_top" xlink:title=" ">
<polygon fill="#ffffff" stroke="#000000" points="403,-336.5 403,-355.5 493,-355.5 493,-336.5 403,-336.5"/>
<text text-anchor="middle" x="448" y="-343.5" font-family="Arial.ttf" font-size="10.00" fill="#000000">WAIKeyFrame.h</text>
</a>
</g>
</g>
<!-- Node1&#45;&gt;Node7 -->
<g id="edge6" class="edge">
<title>Node1&#45;&gt;Node7</title>
<path fill="none" stroke="#191970" d="M448,-392.2455C448,-384.9382 448,-374.6944 448,-365.7046"/>
<polygon fill="#191970" stroke="#191970" points="451.5001,-365.6426 448,-355.6427 444.5001,-365.6427 451.5001,-365.6426"/>
</g>
<!-- Node8 -->
<g id="node8" class="node">
<title>Node8</title>
<g id="a_node8"><a xlink:title=" ">
<polygon fill="#ffffff" stroke="#bfbfbf" points="66,-280.5 66,-299.5 110,-299.5 110,-280.5 66,-280.5"/>
<text text-anchor="middle" x="88" y="-287.5" font-family="Arial.ttf" font-size="10.00" fill="#000000">mutex</text>
</a>
</g>
</g>
<!-- Node1&#45;&gt;Node8 -->
<g id="edge44" class="edge">
<title>Node1&#45;&gt;Node8</title>
<path fill="none" stroke="#191970" d="M416.6624,-392.4147C359.7201,-374.9693 235.2382,-336.7028 119.7247,-300.2061"/>
<polygon fill="#191970" stroke="#191970" points="120.5955,-296.8107 110.0055,-297.1327 118.4849,-303.485 120.5955,-296.8107"/>
</g>
<!-- Node13 -->
<g id="node13" class="node">
<title>Node13</title>
<g id="a_node13"><a xlink:href="_w_a_i_orb_vocabulary_8h.html" target="_top" xlink:title=" ">
<polygon fill="#ffffff" stroke="#000000" points="760,-224.5 760,-243.5 870,-243.5 870,-224.5 760,-224.5"/>
<text text-anchor="middle" x="815" y="-231.5" font-family="Arial.ttf" font-size="10.00" fill="#000000">WAIOrbVocabulary.h</text>
</a>
</g>
</g>
<!-- Node1&#45;&gt;Node13 -->
<g id="edge42" class="edge">
<title>Node1&#45;&gt;Node13</title>
<path fill="none" stroke="#191970" d="M500.1419,-393.6472C588.0159,-378.517 760.0496,-344.0221 801,-300 812.4433,-287.6983 815.4584,-268.462 815.8974,-253.924"/>
<polygon fill="#191970" stroke="#191970" points="819.3973,-253.8906 815.8279,-243.9152 812.3975,-253.9393 819.3973,-253.8906"/>
</g>
<!-- Node23 -->
<g id="node23" class="node">
<title>Node23</title>
<g id="a_node23"><a xlink:title=" ">
<polygon fill="#ffffff" stroke="#bfbfbf" points="1066,-336.5 1066,-355.5 1162,-355.5 1162,-336.5 1066,-336.5"/>
<text text-anchor="middle" x="1114" y="-343.5" font-family="Arial.ttf" font-size="10.00" fill="#000000">opencv2/core.hpp</text>
</a>
</g>
</g>
<!-- Node1&#45;&gt;Node23 -->
<g id="edge43" class="edge">
<title>Node1&#45;&gt;Node23</title>
<path fill="none" stroke="#191970" d="M500.2538,-399.4997C605.1249,-394.1555 848.6149,-380.1038 1052,-356 1053.279,-355.8484 1054.5719,-355.6895 1055.8748,-355.5244"/>
<polygon fill="#191970" stroke="#191970" points="1056.5537,-358.9644 1065.992,-354.151 1055.6121,-352.028 1056.5537,-358.9644"/>
</g>
<!-- Node5 -->
<g id="node5" class="node">
<title>Node5</title>
<g id="a_node5"><a xlink:title=" ">
<polygon fill="#ffffff" stroke="#bfbfbf" points="715.5,-.5 715.5,-19.5 764.5,-19.5 764.5,-.5 715.5,-.5"/>
<text text-anchor="middle" x="740" y="-7.5" font-family="Arial.ttf" font-size="10.00" fill="#000000">cstdarg</text>
</a>
</g>
</g>
<!-- Node4&#45;&gt;Node5 -->
<g id="edge4" class="edge">
<title>Node4&#45;&gt;Node5</title>
<path fill="none" stroke="#191970" d="M766.426,-56.2455C762.0669,-48.617 755.8789,-37.7881 750.5867,-28.5267"/>
<polygon fill="#191970" stroke="#191970" points="753.5104,-26.5886 745.5101,-19.6427 747.4327,-30.0616 753.5104,-26.5886"/>
</g>
<!-- Node6 -->
<g id="node6" class="node">
<title>Node6</title>
<g id="a_node6"><a xlink:title=" ">
<polygon fill="#ffffff" stroke="#bfbfbf" points="782.5,-.5 782.5,-19.5 825.5,-19.5 825.5,-.5 782.5,-.5"/>
<text text-anchor="middle" x="804" y="-7.5" font-family="Arial.ttf" font-size="10.00" fill="#000000">cstdio</text>
</a>
</g>
</g>
<!-- Node4&#45;&gt;Node6 -->
<g id="edge5" class="edge">
<title>Node4&#45;&gt;Node6</title>
<path fill="none" stroke="#191970" d="M777.574,-56.2455C781.9331,-48.617 788.1211,-37.7881 793.4133,-28.5267"/>
<polygon fill="#191970" stroke="#191970" points="796.5673,-30.0616 798.4899,-19.6427 790.4896,-26.5886 796.5673,-30.0616"/>
</g>
<!-- Node7&#45;&gt;Node2 -->
<g id="edge7" class="edge">
<title>Node7&#45;&gt;Node2</title>
<path fill="none" stroke="#191970" d="M402.7793,-340.0677C375.4052,-334.229 341.7042,-322.6997 320,-300 262.2712,-239.6233 262.464,-130.2425 265.2567,-85.6858"/>
<polygon fill="#191970" stroke="#191970" points="268.7554,-85.8312 266.0086,-75.5986 261.7748,-85.3108 268.7554,-85.8312"/>
</g>
<!-- Node7&#45;&gt;Node4 -->
<g id="edge13" class="edge">
<title>Node7&#45;&gt;Node4</title>
<path fill="none" stroke="#191970" d="M493.1725,-341.6161C625.0062,-328.22 1000,-285.5821 1000,-234 1000,-234 1000,-234 1000,-178 1000,-137.73 883.9686,-97.9177 817.4546,-78.4038"/>
<polygon fill="#191970" stroke="#191970" points="818.2037,-74.9771 807.625,-75.5618 816.2593,-81.7017 818.2037,-74.9771"/>
</g>
<!-- Node7&#45;&gt;Node8 -->
<g id="edge8" class="edge">
<title>Node7&#45;&gt;Node8</title>
<path fill="none" stroke="#191970" d="M402.8514,-342.1833C340.9645,-336.4058 226.273,-323.7489 120.1358,-299.9399"/>
<polygon fill="#191970" stroke="#191970" points="120.7504,-296.4903 110.2223,-297.6774 119.1928,-303.3148 120.7504,-296.4903"/>
</g>
<!-- Node9 -->
<g id="node9" class="node">
<title>Node9</title>
<g id="a_node9"><a xlink:title=" ">
<polygon fill="#ffffff" stroke="#bfbfbf" points="358.5,-168.5 358.5,-187.5 399.5,-187.5 399.5,-168.5 358.5,-168.5"/>
<text text-anchor="middle" x="379" y="-175.5" font-family="Arial.ttf" font-size="10.00" fill="#000000">string</text>
</a>
</g>
</g>
<!-- Node7&#45;&gt;Node9 -->
<g id="edge9" class="edge">
<title>Node7&#45;&gt;Node9</title>
<path fill="none" stroke="#191970" d="M411.2865,-336.44C380.6184,-327.6241 340.4323,-313.8435 331,-300 324.938,-291.103 316.5159,-259.92 332,-224 337.1037,-212.1604 346.8498,-201.8154 356.1496,-193.9503"/>
<polygon fill="#191970" stroke="#191970" points="358.3912,-196.6399 364.0794,-187.7015 354.0586,-191.1418 358.3912,-196.6399"/>
</g>
<!-- Node10 -->
<g id="node10" class="node">
<title>Node10</title>
<g id="a_node10"><a xlink:title=" ">
<polygon fill="#ffffff" stroke="#bfbfbf" points="340,-280.5 340,-299.5 450,-299.5 450,-280.5 340,-280.5"/>
<text text-anchor="middle" x="395" y="-287.5" font-family="Arial.ttf" font-size="10.00" fill="#000000">DBoW2/BowVector.h</text>
</a>
</g>
</g>
<!-- Node7&#45;&gt;Node10 -->
<g id="edge10" class="edge">
<title>Node7&#45;&gt;Node10</title>
<path fill="none" stroke="#191970" d="M438.7681,-336.2455C431.1683,-328.2155 420.2123,-316.6394 411.1632,-307.0781"/>
<polygon fill="#191970" stroke="#191970" points="413.542,-304.4998 404.1261,-299.6427 408.4579,-309.3115 413.542,-304.4998"/>
</g>
<!-- Node11 -->
<g id="node11" class="node">
<title>Node11</title>
<g id="a_node11"><a xlink:title=" ">
<polygon fill="#ffffff" stroke="#bfbfbf" points="552.5,-280.5 552.5,-299.5 677.5,-299.5 677.5,-280.5 552.5,-280.5"/>
<text text-anchor="middle" x="615" y="-287.5" font-family="Arial.ttf" font-size="10.00" fill="#000000">DBoW2/FeatureVector.h</text>
</a>
</g>
</g>
<!-- Node7&#45;&gt;Node11 -->
<g id="edge11" class="edge">
<title>Node7&#45;&gt;Node11</title>
<path fill="none" stroke="#191970" d="M476.7083,-336.3733C504.3577,-327.1016 546.3576,-313.0178 576.8166,-302.804"/>
<polygon fill="#191970" stroke="#191970" points="578.2979,-305.9989 586.6663,-299.5011 576.0724,-299.3621 578.2979,-305.9989"/>
</g>
<!-- Node12 -->
<g id="node12" class="node">
<title>Node12</title>
<g id="a_node12"><a xlink:title=" ">
<polygon fill="#ffffff" stroke="#bfbfbf" points="128,-280.5 128,-299.5 246,-299.5 246,-280.5 128,-280.5"/>
<text text-anchor="middle" x="187" y="-287.5" font-family="Arial.ttf" font-size="10.00" fill="#000000">opencv2/core/core.hpp</text>
</a>
</g>
</g>
<!-- Node7&#45;&gt;Node12 -->
<g id="edge12" class="edge">
<title>Node7&#45;&gt;Node12</title>
<path fill="none" stroke="#191970" d="M403.4291,-336.4369C358.5732,-326.8127 289.3351,-311.957 241.2992,-301.6504"/>
<polygon fill="#191970" stroke="#191970" points="241.8989,-298.1995 231.3871,-299.5237 240.4303,-305.0437 241.8989,-298.1995"/>
</g>
<!-- Node7&#45;&gt;Node13 -->
<g id="edge14" class="edge">
<title>Node7&#45;&gt;Node13</title>
<path fill="none" stroke="#191970" d="M493.1309,-344.5967C572.402,-341.3459 732.5597,-331.0323 778,-300 794.0412,-289.0451 803.896,-268.7243 809.359,-253.513"/>
<polygon fill="#191970" stroke="#191970" points="812.6961,-254.5685 812.4615,-243.9763 806.0395,-252.4029 812.6961,-254.5685"/>
</g>
<!-- Node16 -->
<g id="node16" class="node">
<title>Node16</title>
<g id="a_node16"><a xlink:href="_w_a_i_frame_8h.html" target="_top" xlink:title=" ">
<polygon fill="#ffffff" stroke="#000000" points="695.5,-280.5 695.5,-299.5 768.5,-299.5 768.5,-280.5 695.5,-280.5"/>
<text text-anchor="middle" x="732" y="-287.5" font-family="Arial.ttf" font-size="10.00" fill="#000000">WAIFrame.h</text>
</a>
</g>
</g>
<!-- Node7&#45;&gt;Node16 -->
<g id="edge19" class="edge">
<title>Node7&#45;&gt;Node16</title>
<path fill="none" stroke="#191970" d="M493.0066,-337.7337C538.9459,-329.2077 612.5717,-315.3008 684.976,-300.3828"/>
<polygon fill="#191970" stroke="#191970" points="686.0979,-303.7249 695.1814,-298.2716 684.6797,-296.8701 686.0979,-303.7249"/>
</g>
<!-- Node21 -->
<g id="node21" class="node">
<title>Node21</title>
<g id="a_node21"><a xlink:href="_w_a_i_math_8h.html" target="_top" xlink:title=" ">
<polygon fill="#ffffff" stroke="#000000" points="468,-280.5 468,-299.5 534,-299.5 534,-280.5 468,-280.5"/>
<text text-anchor="middle" x="501" y="-287.5" font-family="Arial.ttf" font-size="10.00" fill="#000000">WAIMath.h</text>
</a>
</g>
</g>
<!-- Node7&#45;&gt;Node21 -->
<g id="edge40" class="edge">
<title>Node7&#45;&gt;Node21</title>
<path fill="none" stroke="#191970" d="M457.2319,-336.2455C464.8317,-328.2155 475.7877,-316.6394 484.8368,-307.0781"/>
<polygon fill="#191970" stroke="#191970" points="487.5421,-309.3115 491.8739,-299.6427 482.458,-304.4998 487.5421,-309.3115"/>
</g>
<!-- Node13&#45;&gt;Node4 -->
<g id="edge16" class="edge">
<title>Node13&#45;&gt;Node4</title>
<path fill="none" stroke="#191970" d="M870.0824,-226.6172C912.8025,-218.2301 961.8288,-201.1553 943,-168 916.2132,-120.8317 858.0154,-93.1642 816.9792,-78.8134"/>
<polygon fill="#191970" stroke="#191970" points="818.0597,-75.4842 807.4656,-75.6155 815.8293,-82.1194 818.0597,-75.4842"/>
</g>
<!-- Node13&#45;&gt;Node9 -->
<g id="edge15" class="edge">
<title>Node13&#45;&gt;Node9</title>
<path fill="none" stroke="#191970" d="M759.739,-231.2121C681.2458,-226.4661 533.2988,-214.6115 410,-188 409.7858,-187.9538 409.571,-187.9066 409.3556,-187.8587"/>
<polygon fill="#191970" stroke="#191970" points="410.0844,-184.431 399.5213,-185.2501 408.2897,-191.197 410.0844,-184.431"/>
</g>
<!-- Node14 -->
<g id="node14" class="node">
<title>Node14</title>
<g id="a_node14"><a xlink:title=" ">
<polygon fill="#ffffff" stroke="#bfbfbf" points="888,-168.5 888,-187.5 934,-187.5 934,-168.5 888,-168.5"/>
<text text-anchor="middle" x="911" y="-175.5" font-family="Arial.ttf" font-size="10.00" fill="#000000">fbow.h</text>
</a>
</g>
</g>
<!-- Node13&#45;&gt;Node14 -->
<g id="edge17" class="edge">
<title>Node13&#45;&gt;Node14</title>
<path fill="none" stroke="#191970" d="M831.7219,-224.2455C846.5889,-215.5731 868.5466,-202.7645 885.5858,-192.825"/>
<polygon fill="#191970" stroke="#191970" points="887.5955,-195.7047 894.4697,-187.6427 884.0683,-189.6582 887.5955,-195.7047"/>
</g>
<!-- Node15 -->
<g id="node15" class="node">
<title>Node15</title>
<g id="a_node15"><a xlink:title=" ">
<polygon fill="#ffffff" stroke="#bfbfbf" points="760,-168.5 760,-187.5 870,-187.5 870,-168.5 760,-168.5"/>
<text text-anchor="middle" x="815" y="-175.5" font-family="Arial.ttf" font-size="10.00" fill="#000000">vocabulary_creator.h</text>
</a>
</g>
</g>
<!-- Node13&#45;&gt;Node15 -->
<g id="edge18" class="edge">
<title>Node13&#45;&gt;Node15</title>
<path fill="none" stroke="#191970" d="M815,-224.2455C815,-216.9382 815,-206.6944 815,-197.7046"/>
<polygon fill="#191970" stroke="#191970" points="818.5001,-197.6426 815,-187.6427 811.5001,-197.6427 818.5001,-197.6426"/>
</g>
<!-- Node16&#45;&gt;Node2 -->
<g id="edge39" class="edge">
<title>Node16&#45;&gt;Node2</title>
<path fill="none" stroke="#191970" d="M695.1769,-281.7502C692.4113,-281.1511 689.6624,-280.562 687,-280 607.1747,-263.15 586.2875,-263.2222 507,-244 462.9768,-233.3272 346.8327,-215.7122 311,-188 279.0656,-163.3026 270.2802,-113.3556 267.8825,-85.6424"/>
<polygon fill="#191970" stroke="#191970" points="271.369,-85.3229 267.2113,-75.5779 264.3845,-85.7887 271.369,-85.3229"/>
</g>
<!-- Node16&#45;&gt;Node4 -->
<g id="edge20" class="edge">
<title>Node16&#45;&gt;Node4</title>
<path fill="none" stroke="#191970" d="M733.3217,-280.4823C736.2143,-259.9066 743.4528,-209.7666 751,-168 756.2082,-139.1776 763.2343,-105.9875 767.6918,-85.4995"/>
<polygon fill="#191970" stroke="#191970" points="771.1542,-86.05 769.8761,-75.5325 764.3164,-84.5514 771.1542,-86.05"/>
</g>
<!-- Node16&#45;&gt;Node13 -->
<g id="edge22" class="edge">
<title>Node16&#45;&gt;Node13</title>
<path fill="none" stroke="#191970" d="M746.4575,-280.2455C759.0732,-271.7337 777.5944,-259.2375 792.2045,-249.3801"/>
<polygon fill="#191970" stroke="#191970" points="794.3761,-252.1371 800.7082,-243.6427 790.4609,-246.3343 794.3761,-252.1371"/>
</g>
<!-- Node17 -->
<g id="node17" class="node">
<title>Node17</title>
<g id="a_node17"><a xlink:title=" ">
<polygon fill="#ffffff" stroke="#bfbfbf" points="546.5,-56.5 546.5,-75.5 655.5,-75.5 655.5,-56.5 546.5,-56.5"/>
<text text-anchor="middle" x="601" y="-63.5" font-family="Arial.ttf" font-size="10.00" fill="#000000">opencv2/opencv.hpp</text>
</a>
</g>
</g>
<!-- Node16&#45;&gt;Node17 -->
<g id="edge21" class="edge">
<title>Node16&#45;&gt;Node17</title>
<path fill="none" stroke="#191970" d="M726.3711,-280.375C706.3416,-246.1261 638.3128,-129.802 611.75,-84.3817"/>
<polygon fill="#191970" stroke="#191970" points="614.6775,-82.4544 606.6079,-75.5891 608.635,-85.9883 614.6775,-82.4544"/>
</g>
<!-- Node18 -->
<g id="node18" class="node">
<title>Node18</title>
<g id="a_node18"><a xlink:href="_o_r_bextractor_8h.html" target="_top" xlink:title=" ">
<polygon fill="#ffffff" stroke="#000000" points="515.5,-224.5 515.5,-243.5 644.5,-243.5 644.5,-224.5 515.5,-224.5"/>
<text text-anchor="middle" x="580" y="-231.5" font-family="Arial.ttf" font-size="10.00" fill="#000000">orb_slam/ORBextractor.h</text>
</a>
</g>
</g>
<!-- Node16&#45;&gt;Node18 -->
<g id="edge23" class="edge">
<title>Node16&#45;&gt;Node18</title>
<path fill="none" stroke="#191970" d="M705.8703,-280.3733C680.9232,-271.1822 643.1408,-257.2624 615.4794,-247.0713"/>
<polygon fill="#191970" stroke="#191970" points="616.3822,-243.674 605.7888,-243.5011 613.9622,-250.2424 616.3822,-243.674"/>
</g>
<!-- Node18&#45;&gt;Node2 -->
<g id="edge24" class="edge">
<title>Node18&#45;&gt;Node2</title>
<path fill="none" stroke="#191970" d="M515.2126,-228.0748C452.6098,-221.2606 363.2304,-208.3228 335,-188 299.7322,-162.6111 280.5183,-112.9815 272.1648,-85.4924"/>
<polygon fill="#191970" stroke="#191970" points="275.5146,-84.4766 269.4001,-75.8243 268.7844,-86.4012 275.5146,-84.4766"/>
</g>
<!-- Node18&#45;&gt;Node3 -->
<g id="edge25" class="edge">
<title>Node18&#45;&gt;Node3</title>
<path fill="none" stroke="#191970" d="M515.3709,-230.0247C454.8052,-224.7906 370.589,-213.1145 350,-188 326.1588,-158.9185 335.8669,-111.4967 344.0572,-85.1601"/>
<polygon fill="#191970" stroke="#191970" points="347.4093,-86.172 347.2644,-75.5782 340.7713,-83.9502 347.4093,-86.172"/>
</g>
<!-- Node18&#45;&gt;Node4 -->
<g id="edge27" class="edge">
<title>Node18&#45;&gt;Node4</title>
<path fill="none" stroke="#191970" d="M590.8729,-224.4862C622.2747,-197.0096 713.3868,-117.2866 753.1113,-82.5276"/>
<polygon fill="#191970" stroke="#191970" points="755.5471,-85.047 760.7681,-75.8279 750.9376,-79.7789 755.5471,-85.047"/>
</g>
<!-- Node18&#45;&gt;Node17 -->
<g id="edge26" class="edge">
<title>Node18&#45;&gt;Node17</title>
<path fill="none" stroke="#191970" d="M581.1892,-224.4862C584.5088,-197.9293 593.9294,-122.5651 598.4793,-86.1655"/>
<polygon fill="#191970" stroke="#191970" points="602.0041,-86.1848 599.7715,-75.8279 595.0581,-85.3165 602.0041,-86.1848"/>
</g>
<!-- Node19 -->
<g id="node19" class="node">
<title>Node19</title>
<g id="a_node19"><a xlink:href="_k_pextractor_8h.html" target="_top" xlink:title=" ">
<polygon fill="#ffffff" stroke="#000000" points="432.5,-112.5 432.5,-131.5 553.5,-131.5 553.5,-112.5 432.5,-112.5"/>
<text text-anchor="middle" x="493" y="-119.5" font-family="Arial.ttf" font-size="10.00" fill="#000000">orb_slam/KPextractor.h</text>
</a>
</g>
</g>
<!-- Node18&#45;&gt;Node19 -->
<g id="edge28" class="edge">
<title>Node18&#45;&gt;Node19</title>
<path fill="none" stroke="#191970" d="M579.257,-224.1351C577.7863,-210.3729 573.4727,-185.1726 561,-168 551.4043,-154.7884 536.7789,-144.1893 523.5472,-136.5102"/>
<polygon fill="#191970" stroke="#191970" points="525.1412,-133.3928 514.6883,-131.6642 521.7818,-139.534 525.1412,-133.3928"/>
</g>
<!-- Node20 -->
<g id="node20" class="node">
<title>Node20</title>
<g id="a_node20"><a xlink:href="_extractor_node_8h.html" target="_top" xlink:title=" ">
<polygon fill="#ffffff" stroke="#000000" points="418.5,-168.5 418.5,-187.5 551.5,-187.5 551.5,-168.5 418.5,-168.5"/>
<text text-anchor="middle" x="485" y="-175.5" font-family="Arial.ttf" font-size="10.00" fill="#000000">orb_slam/ExtractorNode.h</text>
</a>
</g>
</g>
<!-- Node18&#45;&gt;Node20 -->
<g id="edge33" class="edge">
<title>Node18&#45;&gt;Node20</title>
<path fill="none" stroke="#191970" d="M563.4523,-224.2455C548.7401,-215.5731 527.0112,-202.7645 510.1495,-192.825"/>
<polygon fill="#191970" stroke="#191970" points="511.7502,-189.7057 501.3581,-187.6427 508.1954,-195.736 511.7502,-189.7057"/>
</g>
<!-- Node19&#45;&gt;Node2 -->
<g id="edge29" class="edge">
<title>Node19&#45;&gt;Node2</title>
<path fill="none" stroke="#191970" d="M454.406,-112.4369C410.5905,-101.5799 339.9075,-84.0656 299.0215,-73.9345"/>
<polygon fill="#191970" stroke="#191970" points="299.8515,-70.5344 289.3032,-71.5265 298.1679,-77.3289 299.8515,-70.5344"/>
</g>
<!-- Node19&#45;&gt;Node3 -->
<g id="edge30" class="edge">
<title>Node19&#45;&gt;Node3</title>
<path fill="none" stroke="#191970" d="M468.5893,-112.3733C442.4078,-102.0481 401.0936,-85.7552 375.0515,-75.4851"/>
<polygon fill="#191970" stroke="#191970" points="376.1459,-72.1544 365.5591,-71.7416 373.5778,-78.6663 376.1459,-72.1544"/>
</g>
<!-- Node19&#45;&gt;Node4 -->
<g id="edge32" class="edge">
<title>Node19&#45;&gt;Node4</title>
<path fill="none" stroke="#191970" d="M540.6448,-112.4369C592.2966,-102.0695 674.1926,-85.6316 725.4229,-75.3488"/>
<polygon fill="#191970" stroke="#191970" points="726.1264,-78.7775 735.2421,-73.3779 724.7488,-71.9144 726.1264,-78.7775"/>
</g>
<!-- Node19&#45;&gt;Node17 -->
<g id="edge31" class="edge">
<title>Node19&#45;&gt;Node17</title>
<path fill="none" stroke="#191970" d="M511.8122,-112.2455C528.8473,-103.4125 554.1575,-90.2887 573.4681,-80.2758"/>
<polygon fill="#191970" stroke="#191970" points="575.137,-83.353 582.4034,-75.6427 571.9147,-77.1388 575.137,-83.353"/>
</g>
<!-- Node20&#45;&gt;Node2 -->
<g id="edge34" class="edge">
<title>Node20&#45;&gt;Node2</title>
<path fill="none" stroke="#191970" d="M466.4134,-168.4509C427.9621,-148.6961 339.5172,-103.2565 294.4617,-80.1088"/>
<polygon fill="#191970" stroke="#191970" points="296.0337,-76.9816 285.5395,-75.5249 292.8349,-83.2079 296.0337,-76.9816"/>
</g>
<!-- Node20&#45;&gt;Node3 -->
<g id="edge35" class="edge">
<title>Node20&#45;&gt;Node3</title>
<path fill="none" stroke="#191970" d="M471.6497,-168.4601C459.113,-159.3789 439.9505,-145.1806 424,-132 404.4417,-115.8381 383.0103,-96.2181 368.46,-82.5903"/>
<polygon fill="#191970" stroke="#191970" points="370.8193,-80.0044 361.1401,-75.6958 366.0198,-85.1 370.8193,-80.0044"/>
</g>
<!-- Node20&#45;&gt;Node4 -->
<g id="edge37" class="edge">
<title>Node20&#45;&gt;Node4</title>
<path fill="none" stroke="#191970" d="M509.4695,-168.4509C560.7265,-148.4482 679.4637,-102.1117 738.0527,-79.2477"/>
<polygon fill="#191970" stroke="#191970" points="739.5491,-82.4209 747.5925,-75.5249 737.0043,-75.8999 739.5491,-82.4209"/>
</g>
<!-- Node20&#45;&gt;Node17 -->
<g id="edge36" class="edge">
<title>Node20&#45;&gt;Node17</title>
<path fill="none" stroke="#191970" d="M507.9327,-168.3647C524.7016,-160.4601 547.1866,-147.9794 563,-132 576.4709,-118.3877 586.863,-99.0507 593.3479,-84.8247"/>
<polygon fill="#191970" stroke="#191970" points="596.6129,-86.0921 597.3675,-75.5242 590.1874,-83.315 596.6129,-86.0921"/>
</g>
<!-- Node20&#45;&gt;Node19 -->
<g id="edge38" class="edge">
<title>Node20&#45;&gt;Node19</title>
<path fill="none" stroke="#191970" d="M486.3935,-168.2455C487.4374,-160.9382 488.9008,-150.6944 490.1851,-141.7046"/>
<polygon fill="#191970" stroke="#191970" points="493.673,-142.0372 491.6225,-131.6427 486.7434,-141.0472 493.673,-142.0372"/>
</g>
<!-- Node22 -->
<g id="node22" class="node">
<title>Node22</title>
<g id="a_node22"><a xlink:title=" ">
<polygon fill="#ffffff" stroke="#bfbfbf" points="340.5,-224.5 340.5,-243.5 387.5,-243.5 387.5,-224.5 340.5,-224.5"/>
<text text-anchor="middle" x="364" y="-231.5" font-family="Arial.ttf" font-size="10.00" fill="#000000">math.h</text>
</a>
</g>
</g>
<!-- Node21&#45;&gt;Node22 -->
<g id="edge41" class="edge">
<title>Node21&#45;&gt;Node22</title>
<path fill="none" stroke="#191970" d="M477.4489,-280.3733C455.1609,-271.2629 421.5063,-257.5062 396.6363,-247.3404"/>
<polygon fill="#191970" stroke="#191970" points="397.8247,-244.0451 387.2438,-243.5011 395.1761,-250.5247 397.8247,-244.0451"/>
</g>
</g>
</svg>
