<?xml version="1.0" encoding="UTF-8" standalone="no"?>
<!DOCTYPE svg PUBLIC "-//W3C//DTD SVG 1.1//EN"
 "http://www.w3.org/Graphics/SVG/1.1/DTD/svg11.dtd">
<!-- Generated by graphviz version 2.40.1 (20161225.0304)
 -->
<!-- Title: WAISlam.h Pages: 1 -->
<svg width="203pt" height="140pt"
 viewBox="0.00 0.00 202.50 140.00" xmlns="http://www.w3.org/2000/svg" xmlns:xlink="http://www.w3.org/1999/xlink">
<g id="graph0" class="graph" transform="scale(1 1) rotate(0) translate(4 136)">
<title>WAISlam.h</title>
<polygon fill="#ffffff" stroke="transparent" points="-4,4 -4,-136 198.5,-136 198.5,4 -4,4"/>
<!-- Node1 -->
<g id="node1" class="node">
<title>Node1</title>
<g id="a_node1"><a xlink:title=" ">
<polygon fill="#bfbfbf" stroke="#000000" points="70.5,-112.5 70.5,-131.5 137.5,-131.5 137.5,-112.5 70.5,-112.5"/>
<text text-anchor="middle" x="104" y="-119.5" font-family="Arial.ttf" font-size="10.00" fill="#000000">WAISlam.h</text>
</a>
</g>
</g>
<!-- Node2 -->
<g id="node2" class="node">
<title>Node2</title>
<g id="a_node2"><a xlink:href="_c_v_tracked_w_a_i_8h.html" target="_top" xlink:title=" ">
<polygon fill="#ffffff" stroke="#000000" points="5,-56.5 5,-75.5 99,-75.5 99,-56.5 5,-56.5"/>
<text text-anchor="middle" x="52" y="-63.5" font-family="Arial.ttf" font-size="10.00" fill="#000000">CVTrackedWAI.h</text>
</a>
</g>
</g>
<!-- Node1&#45;&gt;Node2 -->
<g id="edge1" class="edge">
<title>Node1&#45;&gt;Node2</title>
<path fill="none" stroke="#191970" d="M88.0178,-104.7884C79.1222,-95.2085 68.3796,-83.6396 60.9539,-75.6427"/>
<polygon fill="#191970" stroke="#191970" points="85.573,-107.2992 94.9423,-112.2455 90.7025,-102.536 85.573,-107.2992"/>
</g>
<!-- Node4 -->
<g id="node4" class="node">
<title>Node4</title>
<g id="a_node4"><a xlink:href="_w_a_i_slam_8cpp.html" target="_top" xlink:title=" ">
<polygon fill="#ffffff" stroke="#000000" points="117.5,-56.5 117.5,-75.5 194.5,-75.5 194.5,-56.5 117.5,-56.5"/>
<text text-anchor="middle" x="156" y="-63.5" font-family="Arial.ttf" font-size="10.00" fill="#000000">WAISlam.cpp</text>
</a>
</g>
</g>
<!-- Node1&#45;&gt;Node4 -->
<g id="edge3" class="edge">
<title>Node1&#45;&gt;Node4</title>
<path fill="none" stroke="#191970" d="M119.9822,-104.7884C128.8778,-95.2085 139.6204,-83.6396 147.0461,-75.6427"/>
<polygon fill="#191970" stroke="#191970" points="117.2975,-102.536 113.0577,-112.2455 122.427,-107.2992 117.2975,-102.536"/>
</g>
<!-- Node3 -->
<g id="node3" class="node">
<title>Node3</title>
<g id="a_node3"><a xlink:href="_c_v_tracked_w_a_i_8cpp.html" target="_top" xlink:title=" ">
<polygon fill="#ffffff" stroke="#000000" points="0,-.5 0,-19.5 104,-19.5 104,-.5 0,-.5"/>
<text text-anchor="middle" x="52" y="-7.5" font-family="Arial.ttf" font-size="10.00" fill="#000000">CVTrackedWAI.cpp</text>
</a>
</g>
</g>
<!-- Node2&#45;&gt;Node3 -->
<g id="edge2" class="edge">
<title>Node2&#45;&gt;Node3</title>
<path fill="none" stroke="#191970" d="M52,-46.1575C52,-37.155 52,-26.9199 52,-19.6427"/>
<polygon fill="#191970" stroke="#191970" points="48.5001,-46.2455 52,-56.2455 55.5001,-46.2456 48.5001,-46.2455"/>
</g>
</g>
</svg>
