<?xml version="1.0" encoding="UTF-8" standalone="no"?>
<!DOCTYPE svg PUBLIC "-//W3C//DTD SVG 1.1//EN"
 "http://www.w3.org/Graphics/SVG/1.1/DTD/svg11.dtd">
<!-- Generated by graphviz version 8.0.5 (20230430.1635)
 -->
<!-- Title: WAIFrame.cpp Pages: 1 -->
<svg width="1513pt" height="485pt"
 viewBox="0.00 0.00 1512.62 485.00" xmlns="http://www.w3.org/2000/svg" xmlns:xlink="http://www.w3.org/1999/xlink">
<g id="graph0" class="graph" transform="scale(1 1) rotate(0) translate(4 481)">
<title>WAIFrame.cpp</title>
<polygon fill="white" stroke="none" points="-4,4 -4,-481 1508.62,-481 1508.62,4 -4,4"/>
<!-- Node1 -->
<g id="node1" class="node">
<title>Node1</title>
<g id="a_node1"><a xlink:title=" ">
<polygon fill="#bfbfbf" stroke="black" points="586,-456.5 586,-476.5 667.25,-476.5 667.25,-456.5 586,-456.5"/>
<text text-anchor="middle" x="626.62" y="-463" font-family="Arial" font-size="10.00">WAIFrame.cpp</text>
</a>
</g>
</g>
<!-- Node2 -->
<g id="node2" class="node">
<title>Node2</title>
<g id="a_node2"><a xlink:href="_w_a_i_frame_8h.html" target="_top" xlink:title=" ">
<polygon fill="white" stroke="black" points="633.25,-171.5 633.25,-191.5 704,-191.5 704,-171.5 633.25,-171.5"/>
<text text-anchor="middle" x="668.62" y="-178" font-family="Arial" font-size="10.00">WAIFrame.h</text>
</a>
</g>
</g>
<!-- Node1&#45;&gt;Node2 -->
<g id="edge1" class="edge">
<title>Node1&#45;&gt;Node2</title>
<path fill="none" stroke="midnightblue" d="M598.45,-456.55C558.61,-441.93 490.62,-408.86 490.62,-353.5 490.62,-353.5 490.62,-353.5 490.62,-294.5 490.62,-231.99 570.24,-203 622.98,-190.65"/>
<polygon fill="midnightblue" stroke="midnightblue" points="623.45,-193.91 632.46,-188.33 621.94,-187.07 623.45,-193.91"/>
</g>
<!-- Node13 -->
<g id="node13" class="node">
<title>Node13</title>
<g id="a_node13"><a xlink:href="_w_a_i_map_point_8h.html" target="_top" xlink:title=" ">
<polygon fill="white" stroke="black" points="762.5,-399.5 762.5,-419.5 846.75,-419.5 846.75,-399.5 762.5,-399.5"/>
<text text-anchor="middle" x="804.62" y="-406" font-family="Arial" font-size="10.00">WAIMapPoint.h</text>
</a>
</g>
</g>
<!-- Node1&#45;&gt;Node13 -->
<g id="edge13" class="edge">
<title>Node1&#45;&gt;Node13</title>
<path fill="none" stroke="midnightblue" d="M655.62,-456.54C685.49,-447.31 732.23,-432.87 765.39,-422.62"/>
<polygon fill="midnightblue" stroke="midnightblue" points="766.12,-425.75 774.64,-419.46 764.05,-419.06 766.12,-425.75"/>
</g>
<!-- Node27 -->
<g id="node27" class="node">
<title>Node27</title>
<g id="a_node27"><a xlink:title=" ">
<polygon fill="white" stroke="#bfbfbf" points="864.75,-399.5 864.75,-419.5 974.5,-419.5 974.5,-399.5 864.75,-399.5"/>
<text text-anchor="middle" x="919.62" y="-406" font-family="Arial" font-size="10.00">orb_slam/Converter.h</text>
</a>
</g>
</g>
<!-- Node1&#45;&gt;Node27 -->
<g id="edge48" class="edge">
<title>Node1&#45;&gt;Node27</title>
<path fill="none" stroke="midnightblue" d="M667.06,-457.91C717.35,-448.47 803.58,-432.28 861.09,-421.49"/>
<polygon fill="midnightblue" stroke="midnightblue" points="861.66,-424.75 870.84,-419.47 860.37,-417.88 861.66,-424.75"/>
</g>
<!-- Node28 -->
<g id="node28" class="node">
<title>Node28</title>
<g id="a_node28"><a xlink:href="_average_timing_8h.html" target="_top" xlink:title=" ">
<polygon fill="white" stroke="black" points="225.88,-228.5 225.88,-248.5 315.38,-248.5 315.38,-228.5 225.88,-228.5"/>
<text text-anchor="middle" x="270.62" y="-235" font-family="Arial" font-size="10.00">AverageTiming.h</text>
</a>
</g>
</g>
<!-- Node1&#45;&gt;Node28 -->
<g id="edge49" class="edge">
<title>Node1&#45;&gt;Node28</title>
<path fill="none" stroke="midnightblue" d="M586.2,-458.61C529.91,-447.24 427.23,-419.93 359.62,-363 323.38,-332.48 294.25,-284.13 280.04,-257.9"/>
<polygon fill="midnightblue" stroke="midnightblue" points="282.81,-256.63 275.04,-249.42 276.61,-259.9 282.81,-256.63"/>
</g>
<!-- Node3 -->
<g id="node3" class="node">
<title>Node3</title>
<g id="a_node3"><a xlink:href="_w_a_i_helper_8h.html" target="_top" xlink:title=" ">
<polygon fill="white" stroke="black" points="1096.88,-57.5 1096.88,-77.5 1168.38,-77.5 1168.38,-57.5 1096.88,-57.5"/>
<text text-anchor="middle" x="1132.62" y="-64" font-family="Arial" font-size="10.00">WAIHelper.h</text>
</a>
</g>
</g>
<!-- Node2&#45;&gt;Node3 -->
<g id="edge2" class="edge">
<title>Node2&#45;&gt;Node3</title>
<path fill="none" stroke="midnightblue" d="M703.78,-175.23C751.59,-167.78 839.65,-153.04 913.62,-135 978.75,-119.12 1053.15,-95.29 1096.31,-80.88"/>
<polygon fill="midnightblue" stroke="midnightblue" points="1097.22,-83.93 1105.59,-77.44 1095,-77.3 1097.22,-83.93"/>
</g>
<!-- Node6 -->
<g id="node6" class="node">
<title>Node6</title>
<g id="a_node6"><a xlink:title=" ">
<polygon fill="white" stroke="#bfbfbf" points="637,-114.5 637,-134.5 742.25,-134.5 742.25,-114.5 637,-114.5"/>
<text text-anchor="middle" x="689.62" y="-121" font-family="Arial" font-size="10.00">opencv2/opencv.hpp</text>
</a>
</g>
</g>
<!-- Node2&#45;&gt;Node6 -->
<g id="edge5" class="edge">
<title>Node2&#45;&gt;Node6</title>
<path fill="none" stroke="midnightblue" d="M671.91,-171.91C674.73,-164.52 678.89,-153.62 682.47,-144.23"/>
<polygon fill="midnightblue" stroke="midnightblue" points="686,-145.81 686.3,-135.21 679.46,-143.31 686,-145.81"/>
</g>
<!-- Node7 -->
<g id="node7" class="node">
<title>Node7</title>
<g id="a_node7"><a xlink:href="_w_a_i_orb_vocabulary_8h.html" target="_top" xlink:title=" ">
<polygon fill="white" stroke="black" points="798.62,-114.5 798.62,-134.5 904.62,-134.5 904.62,-114.5 798.62,-114.5"/>
<text text-anchor="middle" x="851.62" y="-121" font-family="Arial" font-size="10.00">WAIOrbVocabulary.h</text>
</a>
</g>
</g>
<!-- Node2&#45;&gt;Node7 -->
<g id="edge6" class="edge">
<title>Node2&#45;&gt;Node7</title>
<path fill="none" stroke="midnightblue" d="M698.43,-171.54C729.27,-162.27 777.61,-147.74 811.73,-137.49"/>
<polygon fill="midnightblue" stroke="midnightblue" points="812.26,-140.69 820.83,-134.46 810.24,-133.98 812.26,-140.69"/>
</g>
<!-- Node11 -->
<g id="node11" class="node">
<title>Node11</title>
<g id="a_node11"><a xlink:title=" ">
<polygon fill="white" stroke="#bfbfbf" points="492.12,-114.5 492.12,-134.5 619.12,-134.5 619.12,-114.5 492.12,-114.5"/>
<text text-anchor="middle" x="555.62" y="-121" font-family="Arial" font-size="10.00">orb_slam/ORBextractor.h</text>
</a>
</g>
</g>
<!-- Node2&#45;&gt;Node11 -->
<g id="edge11" class="edge">
<title>Node2&#45;&gt;Node11</title>
<path fill="none" stroke="midnightblue" d="M650.22,-171.54C632.24,-162.79 604.64,-149.36 583.88,-139.25"/>
<polygon fill="midnightblue" stroke="midnightblue" points="585.55,-135.68 575.02,-134.46 582.48,-141.98 585.55,-135.68"/>
</g>
<!-- Node12 -->
<g id="node12" class="node">
<title>Node12</title>
<g id="a_node12"><a xlink:title=" ">
<polygon fill="white" stroke="#bfbfbf" points="431.12,-114.5 431.12,-134.5 474.12,-134.5 474.12,-114.5 431.12,-114.5"/>
<text text-anchor="middle" x="452.62" y="-121" font-family="Arial" font-size="10.00">vector</text>
</a>
</g>
</g>
<!-- Node2&#45;&gt;Node12 -->
<g id="edge12" class="edge">
<title>Node2&#45;&gt;Node12</title>
<path fill="none" stroke="midnightblue" d="M633.35,-172.45C598.13,-164.27 542.22,-150.92 484.36,-135.08"/>
<polygon fill="midnightblue" stroke="midnightblue" points="485.5,-131.48 474.92,-132.2 483.63,-138.23 485.5,-131.48"/>
</g>
<!-- Node4 -->
<g id="node4" class="node">
<title>Node4</title>
<g id="a_node4"><a xlink:title=" ">
<polygon fill="white" stroke="#bfbfbf" points="1076.5,-0.5 1076.5,-20.5 1124.75,-20.5 1124.75,-0.5 1076.5,-0.5"/>
<text text-anchor="middle" x="1100.62" y="-7" font-family="Arial" font-size="10.00">cstdarg</text>
</a>
</g>
</g>
<!-- Node3&#45;&gt;Node4 -->
<g id="edge3" class="edge">
<title>Node3&#45;&gt;Node4</title>
<path fill="none" stroke="midnightblue" d="M1127.62,-57.91C1123.24,-50.36 1116.71,-39.14 1111.17,-29.62"/>
<polygon fill="midnightblue" stroke="midnightblue" points="1113.75,-28.1 1105.7,-21.21 1107.7,-31.62 1113.75,-28.1"/>
</g>
<!-- Node5 -->
<g id="node5" class="node">
<title>Node5</title>
<g id="a_node5"><a xlink:title=" ">
<polygon fill="white" stroke="#bfbfbf" points="1142.5,-0.5 1142.5,-20.5 1184.75,-20.5 1184.75,-0.5 1142.5,-0.5"/>
<text text-anchor="middle" x="1163.62" y="-7" font-family="Arial" font-size="10.00">cstdio</text>
</a>
</g>
</g>
<!-- Node3&#45;&gt;Node5 -->
<g id="edge4" class="edge">
<title>Node3&#45;&gt;Node5</title>
<path fill="none" stroke="midnightblue" d="M1137.47,-57.91C1141.72,-50.36 1148.05,-39.14 1153.41,-29.62"/>
<polygon fill="midnightblue" stroke="midnightblue" points="1156.85,-31.65 1158.71,-21.21 1150.75,-28.21 1156.85,-31.65"/>
</g>
<!-- Node7&#45;&gt;Node3 -->
<g id="edge8" class="edge">
<title>Node7&#45;&gt;Node3</title>
<path fill="none" stroke="midnightblue" d="M897.4,-114.54C949.52,-104.34 1034.2,-87.76 1086.48,-77.53"/>
<polygon fill="midnightblue" stroke="midnightblue" points="1086.98,-80.81 1096.12,-75.45 1085.63,-73.94 1086.98,-80.81"/>
</g>
<!-- Node8 -->
<g id="node8" class="node">
<title>Node8</title>
<g id="a_node8"><a xlink:title=" ">
<polygon fill="white" stroke="#bfbfbf" points="382.62,-57.5 382.62,-77.5 422.62,-77.5 422.62,-57.5 382.62,-57.5"/>
<text text-anchor="middle" x="402.62" y="-64" font-family="Arial" font-size="10.00">string</text>
</a>
</g>
</g>
<!-- Node7&#45;&gt;Node8 -->
<g id="edge7" class="edge">
<title>Node7&#45;&gt;Node8</title>
<path fill="none" stroke="midnightblue" d="M798.97,-115.92C794.12,-115.26 789.28,-114.61 784.62,-114 654.05,-96.97 498.02,-79.18 433.19,-71.91"/>
<polygon fill="midnightblue" stroke="midnightblue" points="433.86,-68.35 423.53,-70.71 433.08,-75.3 433.86,-68.35"/>
</g>
<!-- Node9 -->
<g id="node9" class="node">
<title>Node9</title>
<g id="a_node9"><a xlink:title=" ">
<polygon fill="white" stroke="#bfbfbf" points="782.38,-57.5 782.38,-77.5 826.88,-77.5 826.88,-57.5 782.38,-57.5"/>
<text text-anchor="middle" x="804.62" y="-64" font-family="Arial" font-size="10.00">fbow.h</text>
</a>
</g>
</g>
<!-- Node7&#45;&gt;Node9 -->
<g id="edge9" class="edge">
<title>Node7&#45;&gt;Node9</title>
<path fill="none" stroke="midnightblue" d="M844.28,-114.91C837.56,-107.04 827.42,-95.18 819.08,-85.42"/>
<polygon fill="midnightblue" stroke="midnightblue" points="821.23,-83.54 812.07,-78.21 815.91,-88.09 821.23,-83.54"/>
</g>
<!-- Node10 -->
<g id="node10" class="node">
<title>Node10</title>
<g id="a_node10"><a xlink:title=" ">
<polygon fill="white" stroke="#bfbfbf" points="845.25,-57.5 845.25,-77.5 952,-77.5 952,-57.5 845.25,-57.5"/>
<text text-anchor="middle" x="898.62" y="-64" font-family="Arial" font-size="10.00">vocabulary_creator.h</text>
</a>
</g>
</g>
<!-- Node7&#45;&gt;Node10 -->
<g id="edge10" class="edge">
<title>Node7&#45;&gt;Node10</title>
<path fill="none" stroke="midnightblue" d="M858.97,-114.91C865.69,-107.04 875.83,-95.18 884.17,-85.42"/>
<polygon fill="midnightblue" stroke="midnightblue" points="887.34,-88.09 891.18,-78.21 882.02,-83.54 887.34,-88.09"/>
</g>
<!-- Node13&#45;&gt;Node3 -->
<g id="edge14" class="edge">
<title>Node13&#45;&gt;Node3</title>
<path fill="none" stroke="midnightblue" d="M846.62,-400.52C849.67,-399.99 852.69,-399.48 855.62,-399 999.74,-375.57 1504.62,-442.51 1504.62,-296.5 1504.62,-296.5 1504.62,-296.5 1504.62,-180.5 1504.62,-148.43 1502.12,-133.46 1476.62,-114 1430.9,-79.1 1261.96,-70.95 1179.09,-69.06"/>
<polygon fill="midnightblue" stroke="midnightblue" points="1179.29,-65.54 1169.22,-68.84 1179.15,-72.54 1179.29,-65.54"/>
</g>
<!-- Node13&#45;&gt;Node12 -->
<g id="edge45" class="edge">
<title>Node13&#45;&gt;Node12</title>
<path fill="none" stroke="midnightblue" d="M762.52,-404.1C669.08,-393.16 452.62,-360.87 452.62,-296.5 452.62,-296.5 452.62,-296.5 452.62,-237.5 452.62,-205.17 452.62,-167.58 452.62,-145.21"/>
<polygon fill="midnightblue" stroke="midnightblue" points="456.13,-145.21 452.62,-135.21 449.13,-145.21 456.13,-145.21"/>
</g>
<!-- Node14 -->
<g id="node14" class="node">
<title>Node14</title>
<g id="a_node14"><a xlink:href="_w_a_i_map_8h.html" target="_top" xlink:title=" ">
<polygon fill="white" stroke="black" points="773.75,-342.5 773.75,-362.5 835.5,-362.5 835.5,-342.5 773.75,-342.5"/>
<text text-anchor="middle" x="804.62" y="-349" font-family="Arial" font-size="10.00">WAIMap.h</text>
</a>
</g>
</g>
<!-- Node13&#45;&gt;Node14 -->
<g id="edge15" class="edge">
<title>Node13&#45;&gt;Node14</title>
<path fill="none" stroke="midnightblue" d="M799.56,-399.91C797.99,-392.68 797.51,-382.09 798.15,-372.85"/>
<polygon fill="midnightblue" stroke="midnightblue" points="801.71,-373.58 799.54,-363.21 794.77,-372.68 801.71,-373.58"/>
</g>
<!-- Node15 -->
<g id="node15" class="node">
<title>Node15</title>
<g id="a_node15"><a xlink:title=" ">
<polygon fill="white" stroke="#bfbfbf" points="1180.12,-171.5 1180.12,-191.5 1223.12,-191.5 1223.12,-171.5 1180.12,-171.5"/>
<text text-anchor="middle" x="1201.62" y="-178" font-family="Arial" font-size="10.00">mutex</text>
</a>
</g>
</g>
<!-- Node13&#45;&gt;Node15 -->
<g id="edge44" class="edge">
<title>Node13&#45;&gt;Node15</title>
<path fill="none" stroke="midnightblue" d="M842.98,-399.52C902.65,-384.72 1020.41,-352.19 1112.62,-306 1152.31,-286.12 1172.03,-287.2 1194.62,-249 1202.94,-234.93 1204.23,-216.23 1203.7,-202.24"/>
<polygon fill="midnightblue" stroke="midnightblue" points="1207.13,-202.11 1202.9,-192.4 1200.15,-202.63 1207.13,-202.11"/>
</g>
<!-- Node23 -->
<g id="node23" class="node">
<title>Node23</title>
<g id="a_node23"><a xlink:title=" ">
<polygon fill="white" stroke="#bfbfbf" points="1241.12,-171.5 1241.12,-191.5 1356.12,-191.5 1356.12,-171.5 1241.12,-171.5"/>
<text text-anchor="middle" x="1298.62" y="-178" font-family="Arial" font-size="10.00">opencv2/core/core.hpp</text>
</a>
</g>
</g>
<!-- Node13&#45;&gt;Node23 -->
<g id="edge46" class="edge">
<title>Node13&#45;&gt;Node23</title>
<path fill="none" stroke="midnightblue" d="M846.43,-400.29C897.87,-390.03 982.14,-372.64 1012.62,-363 1075.12,-343.25 1092.51,-339.86 1148.62,-306 1201.56,-274.06 1255.59,-224.55 1282.01,-199"/>
<polygon fill="midnightblue" stroke="midnightblue" points="1284.16,-201.81 1288.87,-192.32 1279.27,-196.81 1284.16,-201.81"/>
</g>
<!-- Node24 -->
<g id="node24" class="node">
<title>Node24</title>
<g id="a_node24"><a xlink:href="_w_a_i_math_8h.html" target="_top" xlink:title=" ">
<polygon fill="white" stroke="black" points="1412.25,-171.5 1412.25,-191.5 1477,-191.5 1477,-171.5 1412.25,-171.5"/>
<text text-anchor="middle" x="1444.62" y="-178" font-family="Arial" font-size="10.00">WAIMath.h</text>
</a>
</g>
</g>
<!-- Node13&#45;&gt;Node24 -->
<g id="edge47" class="edge">
<title>Node13&#45;&gt;Node24</title>
<path fill="none" stroke="midnightblue" d="M846.64,-400.65C849.68,-400.09 852.7,-399.53 855.62,-399 945.34,-382.65 969.41,-386.12 1057.62,-363 1206.1,-324.08 1255.44,-333.43 1383.62,-249 1403.59,-235.85 1421.42,-214.75 1432.58,-199.85"/>
<polygon fill="midnightblue" stroke="midnightblue" points="1435.88,-202.26 1438.9,-192.1 1430.2,-198.16 1435.88,-202.26"/>
</g>
<!-- Node26 -->
<g id="node26" class="node">
<title>Node26</title>
<g id="a_node26"><a xlink:title=" ">
<polygon fill="white" stroke="#bfbfbf" points="352.25,-171.5 352.25,-191.5 387,-191.5 387,-171.5 352.25,-171.5"/>
<text text-anchor="middle" x="369.62" y="-178" font-family="Arial" font-size="10.00">map</text>
</a>
</g>
</g>
<!-- Node13&#45;&gt;Node26 -->
<g id="edge43" class="edge">
<title>Node13&#45;&gt;Node26</title>
<path fill="none" stroke="midnightblue" d="M762.53,-408.56C677.28,-407.84 488.14,-401.8 438.62,-363 387.4,-322.86 374.19,-239.89 370.79,-202.07"/>
<polygon fill="midnightblue" stroke="midnightblue" points="374.24,-202.19 370,-192.48 367.26,-202.72 374.24,-202.19"/>
</g>
<!-- Node14&#45;&gt;Node3 -->
<g id="edge42" class="edge">
<title>Node14&#45;&gt;Node3</title>
<path fill="none" stroke="midnightblue" d="M835.39,-349.77C891.51,-346.01 1013.81,-334.95 1112.62,-306 1230.98,-271.32 1298.68,-295.58 1365.62,-192 1413.09,-118.55 1260,-85.95 1179.22,-74.14"/>
<polygon fill="midnightblue" stroke="midnightblue" points="1179.72,-70.53 1169.33,-72.6 1178.74,-77.46 1179.72,-70.53"/>
</g>
<!-- Node14&#45;&gt;Node8 -->
<g id="edge17" class="edge">
<title>Node14&#45;&gt;Node8</title>
<path fill="none" stroke="midnightblue" d="M774.06,-348.72C732.71,-344.09 657.37,-332.53 598.62,-306 499.23,-261.11 475.02,-230.65 422.62,-135 414.47,-120.12 409.24,-101.49 406.18,-87.74"/>
<polygon fill="midnightblue" stroke="midnightblue" points="409.44,-87.24 404.03,-78.13 402.58,-88.63 409.44,-87.24"/>
</g>
<!-- Node14&#45;&gt;Node12 -->
<g id="edge16" class="edge">
<title>Node14&#45;&gt;Node12</title>
<path fill="none" stroke="midnightblue" d="M773.85,-345.55C722.28,-334.3 617.23,-305.78 547.62,-249 510.04,-218.34 478.5,-170.05 462.98,-143.86"/>
<polygon fill="midnightblue" stroke="midnightblue" points="465.54,-142.3 457.5,-135.4 459.48,-145.81 465.54,-142.3"/>
</g>
<!-- Node14&#45;&gt;Node13 -->
<g id="edge21" class="edge">
<title>Node14&#45;&gt;Node13</title>
<path fill="none" stroke="midnightblue" d="M809.71,-362.21C811.26,-369.39 811.73,-379.85 811.11,-389"/>
<polygon fill="midnightblue" stroke="midnightblue" points="807.51,-388.54 809.69,-398.91 814.46,-389.44 807.51,-388.54"/>
</g>
<!-- Node14&#45;&gt;Node15 -->
<g id="edge18" class="edge">
<title>Node14&#45;&gt;Node15</title>
<path fill="none" stroke="midnightblue" d="M835.28,-351.55C904.31,-350.03 1073.67,-336.95 1173.62,-249 1187.43,-236.85 1194.61,-216.78 1198.22,-201.86"/>
<polygon fill="midnightblue" stroke="midnightblue" points="1201.82,-202.75 1200.41,-192.24 1194.96,-201.33 1201.82,-202.75"/>
</g>
<!-- Node16 -->
<g id="node16" class="node">
<title>Node16</title>
<g id="a_node16"><a xlink:title=" ">
<polygon fill="white" stroke="#bfbfbf" points="831.88,-285.5 831.88,-305.5 861.38,-305.5 861.38,-285.5 831.88,-285.5"/>
<text text-anchor="middle" x="846.62" y="-292" font-family="Arial" font-size="10.00">set</text>
</a>
</g>
</g>
<!-- Node14&#45;&gt;Node16 -->
<g id="edge19" class="edge">
<title>Node14&#45;&gt;Node16</title>
<path fill="none" stroke="midnightblue" d="M811.19,-342.91C817.13,-335.12 826.07,-323.42 833.48,-313.71"/>
<polygon fill="midnightblue" stroke="midnightblue" points="836.68,-316.29 839.97,-306.21 831.12,-312.04 836.68,-316.29"/>
</g>
<!-- Node17 -->
<g id="node17" class="node">
<title>Node17</title>
<g id="a_node17"><a xlink:title=" ">
<polygon fill="white" stroke="#bfbfbf" points="557,-228.5 557,-248.5 650.25,-248.5 650.25,-228.5 557,-228.5"/>
<text text-anchor="middle" x="603.62" y="-235" font-family="Arial" font-size="10.00">opencv2/core.hpp</text>
</a>
</g>
</g>
<!-- Node14&#45;&gt;Node17 -->
<g id="edge20" class="edge">
<title>Node14&#45;&gt;Node17</title>
<path fill="none" stroke="midnightblue" d="M781.8,-342.64C760.77,-334.16 728.92,-320.56 702.62,-306 674.29,-290.32 643.63,-268.97 624.05,-254.74"/>
<polygon fill="midnightblue" stroke="midnightblue" points="626.53,-251.48 616.39,-248.38 622.38,-257.12 626.53,-251.48"/>
</g>
<!-- Node18 -->
<g id="node18" class="node">
<title>Node18</title>
<g id="a_node18"><a xlink:href="_w_a_i_key_frame_d_b_8h.html" target="_top" xlink:title=" ">
<polygon fill="white" stroke="black" points="711.5,-285.5 711.5,-305.5 813.75,-305.5 813.75,-285.5 711.5,-285.5"/>
<text text-anchor="middle" x="762.62" y="-292" font-family="Arial" font-size="10.00">WAIKeyFrameDB.h</text>
</a>
</g>
</g>
<!-- Node14&#45;&gt;Node18 -->
<g id="edge22" class="edge">
<title>Node14&#45;&gt;Node18</title>
<path fill="none" stroke="midnightblue" d="M798.06,-342.91C792.12,-335.12 783.18,-323.42 775.77,-313.71"/>
<polygon fill="midnightblue" stroke="midnightblue" points="778.13,-312.04 769.28,-306.21 772.57,-316.29 778.13,-312.04"/>
</g>
<!-- Node20 -->
<g id="node20" class="node">
<title>Node20</title>
<g id="a_node20"><a xlink:href="_w_a_i_key_frame_8h.html" target="_top" xlink:title=" ">
<polygon fill="white" stroke="black" points="845.62,-228.5 845.62,-248.5 933.62,-248.5 933.62,-228.5 845.62,-228.5"/>
<text text-anchor="middle" x="889.62" y="-235" font-family="Arial" font-size="10.00">WAIKeyFrame.h</text>
</a>
</g>
</g>
<!-- Node14&#45;&gt;Node20 -->
<g id="edge41" class="edge">
<title>Node14&#45;&gt;Node20</title>
<path fill="none" stroke="midnightblue" d="M824.45,-342.5C839.24,-334.81 858.85,-322.39 870.62,-306 880.69,-291.98 885.44,-272.74 887.68,-258.56"/>
<polygon fill="midnightblue" stroke="midnightblue" points="891.22,-259.43 889.02,-249.06 884.28,-258.54 891.22,-259.43"/>
</g>
<!-- Node18&#45;&gt;Node3 -->
<g id="edge25" class="edge">
<title>Node18&#45;&gt;Node3</title>
<path fill="none" stroke="midnightblue" d="M813.53,-285.65C900.35,-269.62 1071.93,-233.56 1115.62,-192 1143.77,-165.23 1140.81,-115.31 1136.52,-87.85"/>
<polygon fill="midnightblue" stroke="midnightblue" points="1139.84,-87.5 1134.63,-78.28 1132.95,-88.74 1139.84,-87.5"/>
</g>
<!-- Node18&#45;&gt;Node7 -->
<g id="edge38" class="edge">
<title>Node18&#45;&gt;Node7</title>
<path fill="none" stroke="midnightblue" d="M766.11,-285.54C774.31,-264.81 795.93,-212.13 819.62,-171 825.17,-161.38 832.19,-151.22 838.24,-142.95"/>
<polygon fill="midnightblue" stroke="midnightblue" points="841.56,-145.35 844.75,-135.25 835.96,-141.16 841.56,-145.35"/>
</g>
<!-- Node18&#45;&gt;Node12 -->
<g id="edge23" class="edge">
<title>Node18&#45;&gt;Node12</title>
<path fill="none" stroke="midnightblue" d="M749.98,-285.5C730.89,-272.12 693.38,-246.57 659.62,-228 626.17,-209.6 615.78,-209.06 581.62,-192 564.01,-183.2 560.08,-180.11 542.62,-171 521.86,-160.17 498.23,-148.23 480.39,-139.31"/>
<polygon fill="midnightblue" stroke="midnightblue" points="482.13,-135.76 471.62,-134.43 479.01,-142.03 482.13,-135.76"/>
</g>
<!-- Node18&#45;&gt;Node15 -->
<g id="edge40" class="edge">
<title>Node18&#45;&gt;Node15</title>
<path fill="none" stroke="midnightblue" d="M813.66,-286.25C816.69,-285.81 819.7,-285.39 822.62,-285 894.64,-275.32 1083.84,-283.81 1147.62,-249 1167.76,-238.01 1183.23,-216.13 1192.35,-200.47"/>
<polygon fill="midnightblue" stroke="midnightblue" points="1195.67,-202.7 1197.41,-192.25 1189.53,-199.33 1195.67,-202.7"/>
</g>
<!-- Node18&#45;&gt;Node17 -->
<g id="edge39" class="edge">
<title>Node18&#45;&gt;Node17</title>
<path fill="none" stroke="midnightblue" d="M736.73,-285.54C710.39,-276.43 669.37,-262.24 639.83,-252.02"/>
<polygon fill="midnightblue" stroke="midnightblue" points="641.11,-248.42 630.51,-248.46 638.82,-255.03 641.11,-248.42"/>
</g>
<!-- Node19 -->
<g id="node19" class="node">
<title>Node19</title>
<g id="a_node19"><a xlink:title=" ">
<polygon fill="white" stroke="#bfbfbf" points="706.23,-228.5 706.23,-248.5 735.02,-248.5 735.02,-228.5 706.23,-228.5"/>
<text text-anchor="middle" x="720.6" y="-235" font-family="Arial" font-size="10.00">list</text>
</a>
</g>
</g>
<!-- Node18&#45;&gt;Node19 -->
<g id="edge24" class="edge">
<title>Node18&#45;&gt;Node19</title>
<path fill="none" stroke="midnightblue" d="M756.06,-285.91C750.12,-278.12 741.18,-266.42 733.77,-256.71"/>
<polygon fill="midnightblue" stroke="midnightblue" points="736.13,-255.04 727.28,-249.21 730.57,-259.29 736.13,-255.04"/>
</g>
<!-- Node18&#45;&gt;Node20 -->
<g id="edge26" class="edge">
<title>Node18&#45;&gt;Node20</title>
<path fill="none" stroke="midnightblue" d="M783.31,-285.54C803.88,-276.63 835.68,-262.86 859.14,-252.7"/>
<polygon fill="midnightblue" stroke="midnightblue" points="860.16,-255.64 867.95,-248.46 857.38,-249.22 860.16,-255.64"/>
</g>
<!-- Node20&#45;&gt;Node2 -->
<g id="edge35" class="edge">
<title>Node20&#45;&gt;Node2</title>
<path fill="none" stroke="midnightblue" d="M853.63,-228.54C815.68,-219.1 755.78,-204.19 714.48,-193.91"/>
<polygon fill="midnightblue" stroke="midnightblue" points="715.43,-190.29 704.88,-191.27 713.74,-197.08 715.43,-190.29"/>
</g>
<!-- Node20&#45;&gt;Node3 -->
<g id="edge33" class="edge">
<title>Node20&#45;&gt;Node3</title>
<path fill="none" stroke="midnightblue" d="M933.45,-232.94C986.47,-226.57 1071.52,-213.33 1094.62,-192 1124.07,-164.82 1130.93,-115.44 1132.38,-88.07"/>
<polygon fill="midnightblue" stroke="midnightblue" points="1135.91,-88.31 1132.73,-78.21 1128.91,-88.09 1135.91,-88.31"/>
</g>
<!-- Node20&#45;&gt;Node7 -->
<g id="edge34" class="edge">
<title>Node20&#45;&gt;Node7</title>
<path fill="none" stroke="midnightblue" d="M868.79,-228.53C854.33,-221.06 836.19,-208.91 827.62,-192 819.59,-176.14 828.33,-156.94 837.44,-143.25"/>
<polygon fill="midnightblue" stroke="midnightblue" points="840.83,-145.53 843.9,-135.39 835.18,-141.41 840.83,-145.53"/>
</g>
<!-- Node20&#45;&gt;Node8 -->
<g id="edge29" class="edge">
<title>Node20&#45;&gt;Node8</title>
<path fill="none" stroke="midnightblue" d="M873.17,-228.56C858.39,-220.13 836.48,-206.64 819.62,-192 784.9,-161.84 792.17,-135.71 751.62,-114 696.68,-84.57 507.64,-73.15 433.14,-69.73"/>
<polygon fill="midnightblue" stroke="midnightblue" points="433.76,-66.21 423.61,-69.26 433.45,-73.2 433.76,-66.21"/>
</g>
<!-- Node20&#45;&gt;Node12 -->
<g id="edge27" class="edge">
<title>Node20&#45;&gt;Node12</title>
<path fill="none" stroke="midnightblue" d="M846.04,-233.84C792.77,-228.51 700.37,-216.44 624.62,-192 604.38,-185.47 601.24,-179.22 581.62,-171 548.9,-157.29 510.43,-144.08 484.07,-135.46"/>
<polygon fill="midnightblue" stroke="midnightblue" points="485.5,-131.93 474.91,-132.17 483.35,-138.59 485.5,-131.93"/>
</g>
<!-- Node20&#45;&gt;Node15 -->
<g id="edge28" class="edge">
<title>Node20&#45;&gt;Node15</title>
<path fill="none" stroke="midnightblue" d="M933.34,-229.79C996.88,-218.59 1113.3,-198.07 1169.54,-188.16"/>
<polygon fill="midnightblue" stroke="midnightblue" points="1170.03,-191.45 1179.27,-186.26 1168.81,-184.55 1170.03,-191.45"/>
</g>
<!-- Node21 -->
<g id="node21" class="node">
<title>Node21</title>
<g id="a_node21"><a xlink:title=" ">
<polygon fill="white" stroke="#bfbfbf" points="836.12,-171.5 836.12,-191.5 945.12,-191.5 945.12,-171.5 836.12,-171.5"/>
<text text-anchor="middle" x="890.62" y="-178" font-family="Arial" font-size="10.00">DBoW2/BowVector.h</text>
</a>
</g>
</g>
<!-- Node20&#45;&gt;Node21 -->
<g id="edge30" class="edge">
<title>Node20&#45;&gt;Node21</title>
<path fill="none" stroke="midnightblue" d="M889.78,-228.91C889.91,-221.76 890.1,-211.32 890.27,-202.15"/>
<polygon fill="midnightblue" stroke="midnightblue" points="893.78,-202.28 890.47,-192.21 886.79,-202.15 893.78,-202.28"/>
</g>
<!-- Node22 -->
<g id="node22" class="node">
<title>Node22</title>
<g id="a_node22"><a xlink:title=" ">
<polygon fill="white" stroke="#bfbfbf" points="963.38,-171.5 963.38,-191.5 1085.88,-191.5 1085.88,-171.5 963.38,-171.5"/>
<text text-anchor="middle" x="1024.62" y="-178" font-family="Arial" font-size="10.00">DBoW2/FeatureVector.h</text>
</a>
</g>
</g>
<!-- Node20&#45;&gt;Node22 -->
<g id="edge31" class="edge">
<title>Node20&#45;&gt;Node22</title>
<path fill="none" stroke="midnightblue" d="M911.62,-228.54C933.58,-219.59 967.58,-205.74 992.56,-195.57"/>
<polygon fill="midnightblue" stroke="midnightblue" points="993.7,-198.47 1001.64,-191.46 991.06,-191.99 993.7,-198.47"/>
</g>
<!-- Node20&#45;&gt;Node23 -->
<g id="edge32" class="edge">
<title>Node20&#45;&gt;Node23</title>
<path fill="none" stroke="midnightblue" d="M933.5,-231.84C996.78,-223.64 1117.62,-207.85 1230.82,-192.24"/>
<polygon fill="midnightblue" stroke="midnightblue" points="1230.97,-195.61 1240.39,-190.78 1230.01,-188.68 1230.97,-195.61"/>
</g>
<!-- Node20&#45;&gt;Node24 -->
<g id="edge36" class="edge">
<title>Node20&#45;&gt;Node24</title>
<path fill="none" stroke="midnightblue" d="M933.3,-233.68C1017.17,-226.28 1206.54,-209.17 1365.62,-192 1377.28,-190.74 1389.89,-189.27 1401.54,-187.87"/>
<polygon fill="midnightblue" stroke="midnightblue" points="1401.85,-191.24 1411.36,-186.56 1401.01,-184.29 1401.85,-191.24"/>
</g>
<!-- Node25 -->
<g id="node25" class="node">
<title>Node25</title>
<g id="a_node25"><a xlink:title=" ">
<polygon fill="white" stroke="#bfbfbf" points="1421.62,-114.5 1421.62,-134.5 1467.62,-134.5 1467.62,-114.5 1421.62,-114.5"/>
<text text-anchor="middle" x="1444.62" y="-121" font-family="Arial" font-size="10.00">math.h</text>
</a>
</g>
</g>
<!-- Node24&#45;&gt;Node25 -->
<g id="edge37" class="edge">
<title>Node24&#45;&gt;Node25</title>
<path fill="none" stroke="midnightblue" d="M1444.62,-171.91C1444.62,-164.76 1444.62,-154.32 1444.62,-145.15"/>
<polygon fill="midnightblue" stroke="midnightblue" points="1448.13,-145.21 1444.62,-135.21 1441.13,-145.21 1448.13,-145.21"/>
</g>
<!-- Node28&#45;&gt;Node8 -->
<g id="edge50" class="edge">
<title>Node28&#45;&gt;Node8</title>
<path fill="none" stroke="midnightblue" d="M277.35,-228.89C298.09,-202.34 361.31,-121.4 389.18,-85.71"/>
<polygon fill="midnightblue" stroke="midnightblue" points="392.36,-88.33 395.75,-78.3 386.84,-84.02 392.36,-88.33"/>
</g>
<!-- Node28&#45;&gt;Node26 -->
<g id="edge51" class="edge">
<title>Node28&#45;&gt;Node26</title>
<path fill="none" stroke="midnightblue" d="M286.53,-228.66C302.03,-220.05 325.84,-206.83 344.01,-196.73"/>
<polygon fill="midnightblue" stroke="midnightblue" points="345.39,-199.41 352.43,-191.5 341.99,-193.29 345.39,-199.41"/>
</g>
<!-- Node29 -->
<g id="node29" class="node">
<title>Node29</title>
<g id="a_node29"><a xlink:href="_high_res_timer_8h.html" target="_top" xlink:title=" ">
<polygon fill="white" stroke="black" points="140,-171.5 140,-191.5 227.25,-191.5 227.25,-171.5 140,-171.5"/>
<text text-anchor="middle" x="183.62" y="-178" font-family="Arial" font-size="10.00">HighResTimer.h</text>
</a>
</g>
</g>
<!-- Node28&#45;&gt;Node29 -->
<g id="edge52" class="edge">
<title>Node28&#45;&gt;Node29</title>
<path fill="none" stroke="midnightblue" d="M256.65,-228.66C243.28,-220.21 222.88,-207.31 207.03,-197.3"/>
<polygon fill="midnightblue" stroke="midnightblue" points="209.18,-193.88 198.86,-191.5 205.44,-199.8 209.18,-193.88"/>
</g>
<!-- Node33 -->
<g id="node33" class="node">
<title>Node33</title>
<g id="a_node33"><a xlink:href="_averaged_8h.html" target="_top" xlink:title=" ">
<polygon fill="white" stroke="black" points="56.88,-171.5 56.88,-191.5 122.38,-191.5 122.38,-171.5 56.88,-171.5"/>
<text text-anchor="middle" x="89.62" y="-178" font-family="Arial" font-size="10.00">Averaged.h</text>
</a>
</g>
</g>
<!-- Node28&#45;&gt;Node33 -->
<g id="edge56" class="edge">
<title>Node28&#45;&gt;Node33</title>
<path fill="none" stroke="midnightblue" d="M241.14,-228.54C210.77,-219.31 163.24,-204.87 129.52,-194.62"/>
<polygon fill="midnightblue" stroke="midnightblue" points="130.68,-191.01 120.1,-191.46 128.65,-197.71 130.68,-191.01"/>
</g>
<!-- Node35 -->
<g id="node35" class="node">
<title>Node35</title>
<g id="a_node35"><a xlink:title=" ">
<polygon fill="white" stroke="#bfbfbf" points="245,-171.5 245,-191.5 296.25,-191.5 296.25,-171.5 245,-171.5"/>
<text text-anchor="middle" x="270.62" y="-178" font-family="Arial" font-size="10.00">sstream</text>
</a>
</g>
</g>
<!-- Node28&#45;&gt;Node35 -->
<g id="edge60" class="edge">
<title>Node28&#45;&gt;Node35</title>
<path fill="none" stroke="midnightblue" d="M270.62,-228.91C270.62,-221.76 270.62,-211.32 270.62,-202.15"/>
<polygon fill="midnightblue" stroke="midnightblue" points="274.13,-202.21 270.62,-192.21 267.13,-202.21 274.13,-202.21"/>
</g>
<!-- Node36 -->
<g id="node36" class="node">
<title>Node36</title>
<g id="a_node36"><a xlink:title=" ">
<polygon fill="white" stroke="#bfbfbf" points="0,-171.5 0,-191.5 39.25,-191.5 39.25,-171.5 0,-171.5"/>
<text text-anchor="middle" x="19.62" y="-178" font-family="Arial" font-size="10.00">utility</text>
</a>
</g>
</g>
<!-- Node28&#45;&gt;Node36 -->
<g id="edge61" class="edge">
<title>Node28&#45;&gt;Node36</title>
<path fill="none" stroke="midnightblue" d="M226.24,-230.14C183.17,-222.63 115.82,-209.88 49.34,-192.22"/>
<polygon fill="midnightblue" stroke="midnightblue" points="50.68,-188.69 40.11,-189.46 48.85,-195.44 50.68,-188.69"/>
</g>
<!-- Node30 -->
<g id="node30" class="node">
<title>Node30</title>
<g id="a_node30"><a xlink:title=" ">
<polygon fill="white" stroke="#bfbfbf" points="175,-114.5 175,-134.5 220.25,-134.5 220.25,-114.5 175,-114.5"/>
<text text-anchor="middle" x="197.62" y="-121" font-family="Arial" font-size="10.00">chrono</text>
</a>
</g>
</g>
<!-- Node29&#45;&gt;Node30 -->
<g id="edge53" class="edge">
<title>Node29&#45;&gt;Node30</title>
<path fill="none" stroke="midnightblue" d="M185.81,-171.91C187.65,-164.68 190.35,-154.09 192.7,-144.85"/>
<polygon fill="midnightblue" stroke="midnightblue" points="196.33,-145.77 195.41,-135.21 189.55,-144.04 196.33,-145.77"/>
</g>
<!-- Node31 -->
<g id="node31" class="node">
<title>Node31</title>
<g id="a_node31"><a xlink:title=" ">
<polygon fill="white" stroke="#bfbfbf" points="238.62,-114.5 238.62,-134.5 296.62,-134.5 296.62,-114.5 238.62,-114.5"/>
<text text-anchor="middle" x="267.62" y="-121" font-family="Arial" font-size="10.00">functional</text>
</a>
</g>
</g>
<!-- Node29&#45;&gt;Node31 -->
<g id="edge54" class="edge">
<title>Node29&#45;&gt;Node31</title>
<path fill="none" stroke="midnightblue" d="M197.12,-171.66C210.03,-163.21 229.73,-150.31 245.03,-140.3"/>
<polygon fill="midnightblue" stroke="midnightblue" points="246.43,-142.9 252.88,-134.5 242.6,-137.05 246.43,-142.9"/>
</g>
<!-- Node32 -->
<g id="node32" class="node">
<title>Node32</title>
<g id="a_node32"><a xlink:title=" ">
<polygon fill="white" stroke="#bfbfbf" points="114.12,-114.5 114.12,-134.5 157.12,-134.5 157.12,-114.5 114.12,-114.5"/>
<text text-anchor="middle" x="135.62" y="-121" font-family="Arial" font-size="10.00">thread</text>
</a>
</g>
</g>
<!-- Node29&#45;&gt;Node32 -->
<g id="edge55" class="edge">
<title>Node29&#45;&gt;Node32</title>
<path fill="none" stroke="midnightblue" d="M176.12,-171.91C169.26,-164.04 158.91,-152.18 150.39,-142.42"/>
<polygon fill="midnightblue" stroke="midnightblue" points="152.44,-140.45 143.23,-135.21 147.17,-145.05 152.44,-140.45"/>
</g>
<!-- Node33&#45;&gt;Node8 -->
<g id="edge57" class="edge">
<title>Node33&#45;&gt;Node8</title>
<path fill="none" stroke="midnightblue" d="M88.76,-171.67C87.9,-157.31 88.52,-129.01 104.62,-114 142.99,-78.24 303.91,-70.59 372,-68.95"/>
<polygon fill="midnightblue" stroke="midnightblue" points="371.91,-72.43 381.84,-68.72 371.77,-65.43 371.91,-72.43"/>
</g>
<!-- Node33&#45;&gt;Node12 -->
<g id="edge58" class="edge">
<title>Node33&#45;&gt;Node12</title>
<path fill="none" stroke="midnightblue" d="M122.24,-172.67C125.07,-172.07 127.9,-171.51 130.62,-171 236.26,-151.34 362.79,-135.76 420.77,-129.07"/>
<polygon fill="midnightblue" stroke="midnightblue" points="420.89,-132.46 430.42,-127.85 420.09,-125.51 420.89,-132.46"/>
</g>
<!-- Node34 -->
<g id="node34" class="node">
<title>Node34</title>
<g id="a_node34"><a xlink:title=" ">
<polygon fill="white" stroke="#bfbfbf" points="6,-114.5 6,-134.5 57.25,-134.5 57.25,-114.5 6,-114.5"/>
<text text-anchor="middle" x="31.62" y="-121" font-family="Arial" font-size="10.00">assert.h</text>
</a>
</g>
</g>
<!-- Node33&#45;&gt;Node34 -->
<g id="edge59" class="edge">
<title>Node33&#45;&gt;Node34</title>
<path fill="none" stroke="midnightblue" d="M80.31,-171.66C71.9,-163.69 59.32,-151.76 49.05,-142.02"/>
<polygon fill="midnightblue" stroke="midnightblue" points="51.78,-139.84 42.11,-135.5 46.96,-144.92 51.78,-139.84"/>
</g>
</g>
</svg>
