<?xml version="1.0" encoding="UTF-8" standalone="no"?>
<!DOCTYPE svg PUBLIC "-//W3C//DTD SVG 1.1//EN"
 "http://www.w3.org/Graphics/SVG/1.1/DTD/svg11.dtd">
<!-- Generated by graphviz version 2.28.0 (20110507.0327)
 -->
<!-- Title: SLGLGenericProgram Pages: 1 -->
<svg width="126pt" height="140pt"
 viewBox="0.00 0.00 126.00 140.00" xmlns="http://www.w3.org/2000/svg" xmlns:xlink="http://www.w3.org/1999/xlink">
<g id="graph1" class="graph" transform="scale(1 1) rotate(0) translate(4 136)">
<title>SLGLGenericProgram</title>
<polygon fill="white" stroke="white" points="-4,5 -4,-136 123,-136 123,5 -4,5"/>
<!-- Node1 -->
<g id="node1" class="node"><title>Node1</title>
<polygon fill="#bfbfbf" stroke="black" points="-0.5,-0.5 -0.5,-19.5 118.5,-19.5 118.5,-0.5 -0.5,-0.5"/>
<text text-anchor="middle" x="59" y="-7.5" font-family="Arial.ttf" font-size="10.00">SLGLGenericProgram</text>
</g>
<!-- Node2 -->
<g id="node2" class="node"><title>Node2</title>
<a xlink:href="class_s_l_g_l_program.html" target="_top" xlink:title="Encapsulation of an OpenGL shader program object.">
<polygon fill="white" stroke="black" points="17.5,-56.5 17.5,-75.5 100.5,-75.5 100.5,-56.5 17.5,-56.5"/>
<text text-anchor="middle" x="59" y="-63.5" font-family="Arial.ttf" font-size="10.00">SLGLProgram</text>
</a>
</g>
<!-- Node2&#45;&gt;Node1 -->
<g id="edge2" class="edge"><title>Node2&#45;&gt;Node1</title>
<path fill="none" stroke="midnightblue" d="M59,-45.8045C59,-36.9102 59,-26.7798 59,-19.7511"/>
<polygon fill="midnightblue" stroke="midnightblue" points="55.5001,-46.083 59,-56.083 62.5001,-46.083 55.5001,-46.083"/>
</g>
<!-- Node3 -->
<g id="node4" class="node"><title>Node3</title>
<a xlink:href="class_s_l_object.html" target="_top" xlink:title="Base class for all other classes.">
<polygon fill="white" stroke="black" points="29.5,-112.5 29.5,-131.5 88.5,-131.5 88.5,-112.5 29.5,-112.5"/>
<text text-anchor="middle" x="59" y="-119.5" font-family="Arial.ttf" font-size="10.00">SLObject</text>
</a>
</g>
<!-- Node3&#45;&gt;Node2 -->
<g id="edge4" class="edge"><title>Node3&#45;&gt;Node2</title>
<path fill="none" stroke="midnightblue" d="M59,-101.805C59,-92.9102 59,-82.7798 59,-75.7511"/>
<polygon fill="midnightblue" stroke="midnightblue" points="55.5001,-102.083 59,-112.083 62.5001,-102.083 55.5001,-102.083"/>
</g>
</g>
</svg>
