<?xml version="1.0" encoding="UTF-8" standalone="no"?>
<!DOCTYPE svg PUBLIC "-//W3C//DTD SVG 1.1//EN"
 "http://www.w3.org/Graphics/SVG/1.1/DTD/svg11.dtd">
<!-- Generated by graphviz version 2.36.0 (20140111.2315)
 -->
<!-- Title: SLNode Pages: 1 -->
<svg width="572pt" height="140pt"
 viewBox="0.00 0.00 572.00 140.00" xmlns="http://www.w3.org/2000/svg" xmlns:xlink="http://www.w3.org/1999/xlink">
<g id="graph0" class="graph" transform="scale(1 1) rotate(0) translate(4 136)">
<title>SLNode</title>
<polygon fill="white" stroke="none" points="-4,4 -4,-136 568,-136 568,4 -4,4"/>
<!-- Node1 -->
<g id="node1" class="node"><title>Node1</title>
<polygon fill="#bfbfbf" stroke="black" points="235.5,-56.5 235.5,-75.5 288.5,-75.5 288.5,-56.5 235.5,-56.5"/>
<text text-anchor="middle" x="262" y="-63.5" font-family="Arial.ttf" font-size="10.00">SLNode</text>
</g>
<!-- Node4 -->
<g id="node4" class="node"><title>Node4</title>
<g id="a_node4"><a xlink:href="class_s_l_button.html" target="_top" xlink:title="Defines a 2D&#45;GUI button with optional submenus as children of the group. ">
<polygon fill="white" stroke="black" points="0,-0.5 0,-19.5 58,-19.5 58,-0.5 0,-0.5"/>
<text text-anchor="middle" x="29" y="-7.5" font-family="Arial.ttf" font-size="10.00">SLButton</text>
</a>
</g>
</g>
<!-- Node1&#45;&gt;Node4 -->
<g id="edge3" class="edge"><title>Node1&#45;&gt;Node4</title>
<path fill="none" stroke="midnightblue" d="M225.614,-56.669C186.434,-47.6832 122.28,-32.9247 67,-20 64.0953,-19.3209 61.0665,-18.6093 58.0421,-17.8965"/>
<polygon fill="midnightblue" stroke="midnightblue" points="224.965,-60.1111 235.495,-58.9343 226.53,-53.2881 224.965,-60.1111"/>
</g>
<!-- Node5 -->
<g id="node5" class="node"><title>Node5</title>
<g id="a_node5"><a xlink:href="class_s_l_camera.html" target="_top" xlink:title="Active or visible camera node class. ">
<polygon fill="white" stroke="black" points="76,-0.5 76,-19.5 140,-19.5 140,-0.5 76,-0.5"/>
<text text-anchor="middle" x="108" y="-7.5" font-family="Arial.ttf" font-size="10.00">SLCamera</text>
</a>
</g>
</g>
<!-- Node1&#45;&gt;Node5 -->
<g id="edge4" class="edge"><title>Node1&#45;&gt;Node5</title>
<path fill="none" stroke="midnightblue" d="M227.889,-53.0392C198.913,-42.8786 158.038,-28.5457 132.288,-19.5164"/>
<polygon fill="midnightblue" stroke="midnightblue" points="227.003,-56.4373 237.598,-56.4435 229.32,-49.8317 227.003,-56.4373"/>
</g>
<!-- Node6 -->
<g id="node6" class="node"><title>Node6</title>
<g id="a_node6"><a xlink:href="class_s_l_joint.html" target="_top" xlink:title="Specialized SLNode that represents a single joint (or bone) in a skeleton. ">
<polygon fill="white" stroke="black" points="158,-0.5 158,-19.5 208,-19.5 208,-0.5 158,-0.5"/>
<text text-anchor="middle" x="183" y="-7.5" font-family="Arial.ttf" font-size="10.00">SLJoint</text>
</a>
</g>
</g>
<!-- Node1&#45;&gt;Node6 -->
<g id="edge5" class="edge"><title>Node1&#45;&gt;Node6</title>
<path fill="none" stroke="midnightblue" d="M240.966,-50.6221C226.534,-40.7574 207.859,-27.9919 195.661,-19.6545"/>
<polygon fill="midnightblue" stroke="midnightblue" points="239.077,-53.5703 249.307,-56.324 243.027,-47.7914 239.077,-53.5703"/>
</g>
<!-- Node7 -->
<g id="node7" class="node"><title>Node7</title>
<g id="a_node7"><a xlink:href="class_s_l_light_rect.html" target="_top" xlink:title="Light node class for a rectangular light source. ">
<polygon fill="white" stroke="black" points="226.5,-0.5 226.5,-19.5 297.5,-19.5 297.5,-0.5 226.5,-0.5"/>
<text text-anchor="middle" x="262" y="-7.5" font-family="Arial.ttf" font-size="10.00">SLLightRect</text>
</a>
</g>
</g>
<!-- Node1&#45;&gt;Node7 -->
<g id="edge6" class="edge"><title>Node1&#45;&gt;Node7</title>
<path fill="none" stroke="midnightblue" d="M262,-45.8045C262,-36.9102 262,-26.7798 262,-19.7511"/>
<polygon fill="midnightblue" stroke="midnightblue" points="258.5,-46.083 262,-56.083 265.5,-46.083 258.5,-46.083"/>
</g>
<!-- Node8 -->
<g id="node8" class="node"><title>Node8</title>
<g id="a_node8"><a xlink:href="class_s_l_light_sphere.html" target="_top" xlink:title="SLLightSphere class for a spherical light source. ">
<polygon fill="white" stroke="black" points="315.5,-0.5 315.5,-19.5 398.5,-19.5 398.5,-0.5 315.5,-0.5"/>
<text text-anchor="middle" x="357" y="-7.5" font-family="Arial.ttf" font-size="10.00">SLLightSphere</text>
</a>
</g>
</g>
<!-- Node1&#45;&gt;Node8 -->
<g id="edge7" class="edge"><title>Node1&#45;&gt;Node8</title>
<path fill="none" stroke="midnightblue" d="M286.318,-51.1774C303.799,-41.2407 326.83,-28.1492 341.774,-19.6545"/>
<polygon fill="midnightblue" stroke="midnightblue" points="284.227,-48.3395 277.263,-56.324 287.687,-54.425 284.227,-48.3395"/>
</g>
<!-- Node9 -->
<g id="node9" class="node"><title>Node9</title>
<g id="a_node9"><a xlink:href="class_s_l_scene_node.html" target="_top" xlink:title="SLSceneNode represents a node in the scene graph and is a specialization of SLNode. ">
<polygon fill="white" stroke="black" points="416.5,-0.5 416.5,-19.5 497.5,-19.5 497.5,-0.5 416.5,-0.5"/>
<text text-anchor="middle" x="457" y="-7.5" font-family="Arial.ttf" font-size="10.00">SLSceneNode</text>
</a>
</g>
</g>
<!-- Node1&#45;&gt;Node9 -->
<g id="edge8" class="edge"><title>Node1&#45;&gt;Node9</title>
<path fill="none" stroke="midnightblue" d="M298.537,-54.8821C335.334,-44.692 391.48,-29.1439 426.122,-19.5509"/>
<polygon fill="midnightblue" stroke="midnightblue" points="297.408,-51.5628 288.705,-57.6048 299.276,-58.3089 297.408,-51.5628"/>
</g>
<!-- Node10 -->
<g id="node10" class="node"><title>Node10</title>
<g id="a_node10"><a xlink:href="class_s_l_text.html" target="_top" xlink:title="SLText creates a mesh using a textured font from SLTexFont. ">
<polygon fill="white" stroke="black" points="516,-0.5 516,-19.5 564,-19.5 564,-0.5 516,-0.5"/>
<text text-anchor="middle" x="540" y="-7.5" font-family="Arial.ttf" font-size="10.00">SLText</text>
</a>
</g>
</g>
<!-- Node1&#45;&gt;Node10 -->
<g id="edge9" class="edge"><title>Node1&#45;&gt;Node10</title>
<path fill="none" stroke="midnightblue" d="M298.76,-59.1205C346.673,-51.2516 432.969,-36.3751 506,-20 509.217,-19.2786 512.59,-18.4611 515.91,-17.6201"/>
<polygon fill="midnightblue" stroke="midnightblue" points="298.159,-55.6721 288.854,-60.7372 299.287,-62.5807 298.159,-55.6721"/>
</g>
<!-- Node2 -->
<g id="node2" class="node"><title>Node2</title>
<g id="a_node2"><a xlink:href="class_s_l_object.html" target="_top" xlink:title="Base class for all other classes. ">
<polygon fill="white" stroke="black" points="187,-112.5 187,-131.5 245,-131.5 245,-112.5 187,-112.5"/>
<text text-anchor="middle" x="216" y="-119.5" font-family="Arial.ttf" font-size="10.00">SLObject</text>
</a>
</g>
</g>
<!-- Node2&#45;&gt;Node1 -->
<g id="edge1" class="edge"><title>Node2&#45;&gt;Node1</title>
<path fill="none" stroke="midnightblue" d="M230.114,-104.431C238.176,-94.9673 247.959,-83.4827 254.545,-75.7511"/>
<polygon fill="midnightblue" stroke="midnightblue" points="227.416,-102.201 223.596,-112.083 232.745,-106.74 227.416,-102.201"/>
</g>
<!-- Node3 -->
<g id="node3" class="node"><title>Node3</title>
<g id="a_node3"><a xlink:href="class_s_l_event_handler.html" target="_top" xlink:title="Virtual Eventhandler class. ">
<polygon fill="white" stroke="black" points="263.5,-112.5 263.5,-131.5 352.5,-131.5 352.5,-112.5 263.5,-112.5"/>
<text text-anchor="middle" x="308" y="-119.5" font-family="Arial.ttf" font-size="10.00">SLEventHandler</text>
</a>
</g>
</g>
<!-- Node3&#45;&gt;Node1 -->
<g id="edge2" class="edge"><title>Node3&#45;&gt;Node1</title>
<path fill="none" stroke="midnightblue" d="M293.886,-104.431C285.824,-94.9673 276.041,-83.4827 269.455,-75.7511"/>
<polygon fill="midnightblue" stroke="midnightblue" points="291.255,-106.74 300.404,-112.083 296.584,-102.201 291.255,-106.74"/>
</g>
</g>
</svg>
