<?xml version="1.0" encoding="UTF-8" standalone="no"?>
<!DOCTYPE svg PUBLIC "-//W3C//DTD SVG 1.1//EN"
 "http://www.w3.org/Graphics/SVG/1.1/DTD/svg11.dtd">
<!-- Generated by graphviz version 8.0.5 (20230430.1635)
 -->
<!-- Title: SLRnd3f Pages: 1 -->
<svg width="200pt" height="86pt"
 viewBox="0.00 0.00 200.25 86.00" xmlns="http://www.w3.org/2000/svg" xmlns:xlink="http://www.w3.org/1999/xlink">
<g id="graph0" class="graph" transform="scale(1 1) rotate(0) translate(4 82)">
<title>SLRnd3f</title>
<polygon fill="white" stroke="none" points="-4,4 -4,-82 196.25,-82 196.25,4 -4,4"/>
<!-- Node1 -->
<g id="node1" class="node">
<title>Node1</title>
<g id="a_node1"><a xlink:title="Abstract base class for random 3D point generator.">
<polygon fill="#bfbfbf" stroke="black" points="67.75,-57.5 67.75,-77.5 122,-77.5 122,-57.5 67.75,-57.5"/>
<text text-anchor="middle" x="94.88" y="-64" font-family="Arial" font-size="10.00">SLRnd3f</text>
</a>
</g>
</g>
<!-- Node2 -->
<g id="node2" class="node">
<title>Node2</title>
<g id="a_node2"><a xlink:href="class_s_l_rnd3f_normal.html" target="_top" xlink:title="Class for random generator for normal distributed 3D points.">
<polygon fill="white" stroke="black" points="0,-0.5 0,-20.5 85.75,-20.5 85.75,-0.5 0,-0.5"/>
<text text-anchor="middle" x="42.88" y="-7" font-family="Arial" font-size="10.00">SLRnd3fNormal</text>
</a>
</g>
</g>
<!-- Node1&#45;&gt;Node2 -->
<g id="edge1" class="edge">
<title>Node1&#45;&gt;Node2</title>
<path fill="none" stroke="midnightblue" d="M79.31,-50.03C70.04,-40.24 58.67,-28.2 51.11,-20.21"/>
<polygon fill="midnightblue" stroke="midnightblue" points="76.34,-52.04 85.75,-56.91 81.42,-47.24 76.34,-52.04"/>
</g>
<!-- Node3 -->
<g id="node3" class="node">
<title>Node3</title>
<g id="a_node3"><a xlink:href="class_s_l_rnd3f_uniform.html" target="_top" xlink:title="Class for random generator for uniform distributed 3D points.">
<polygon fill="white" stroke="black" points="103.5,-0.5 103.5,-20.5 192.25,-20.5 192.25,-0.5 103.5,-0.5"/>
<text text-anchor="middle" x="147.88" y="-7" font-family="Arial" font-size="10.00">SLRnd3fUniform</text>
</a>
</g>
</g>
<!-- Node1&#45;&gt;Node3 -->
<g id="edge2" class="edge">
<title>Node1&#45;&gt;Node3</title>
<path fill="none" stroke="midnightblue" d="M110.74,-50.03C120.18,-40.24 131.78,-28.2 139.48,-20.21"/>
<polygon fill="midnightblue" stroke="midnightblue" points="108.57,-47.28 104.16,-56.91 113.62,-52.13 108.57,-47.28"/>
</g>
</g>
</svg>
