<?xml version="1.0" encoding="UTF-8" standalone="no"?>
<!DOCTYPE svg PUBLIC "-//W3C//DTD SVG 1.1//EN"
 "http://www.w3.org/Graphics/SVG/1.1/DTD/svg11.dtd">
<!-- Generated by graphviz version 2.36.0 (20140111.2315)
 -->
<!-- Title: SLLight Pages: 1 -->
<svg width="262pt" height="84pt"
 viewBox="0.00 0.00 262.00 84.00" xmlns="http://www.w3.org/2000/svg" xmlns:xlink="http://www.w3.org/1999/xlink">
<g id="graph0" class="graph" transform="scale(1 1) rotate(0) translate(4 80)">
<title>SLLight</title>
<polygon fill="white" stroke="none" points="-4,4 -4,-80 258,-80 258,4 -4,4"/>
<!-- Node1 -->
<g id="node1" class="node"><title>Node1</title>
<polygon fill="#bfbfbf" stroke="black" points="105,-56.5 105,-75.5 155,-75.5 155,-56.5 105,-56.5"/>
<text text-anchor="middle" x="130" y="-63.5" font-family="Arial.ttf" font-size="10.00">SLLight</text>
</g>
<!-- Node2 -->
<g id="node2" class="node"><title>Node2</title>
<g id="a_node2"><a xlink:href="class_s_l_light_direct.html" target="_top" xlink:title="SLLightDirect class for a directional light source. ">
<polygon fill="white" stroke="black" points="-0.5,-0.5 -0.5,-19.5 76.5,-19.5 76.5,-0.5 -0.5,-0.5"/>
<text text-anchor="middle" x="38" y="-7.5" font-family="Arial.ttf" font-size="10.00">SLLightDirect</text>
</a>
</g>
</g>
<!-- Node1&#45;&gt;Node2 -->
<g id="edge1" class="edge"><title>Node1&#45;&gt;Node2</title>
<path fill="none" stroke="midnightblue" d="M106.45,-51.1774C89.5211,-41.2407 67.2172,-28.1492 52.7447,-19.6545"/>
<polygon fill="midnightblue" stroke="midnightblue" points="104.823,-54.2804 115.219,-56.324 108.366,-48.2435 104.823,-54.2804"/>
</g>
<!-- Node3 -->
<g id="node3" class="node"><title>Node3</title>
<g id="a_node3"><a xlink:href="class_s_l_light_rect.html" target="_top" xlink:title="Light node class for a rectangular light source. ">
<polygon fill="white" stroke="black" points="94.5,-0.5 94.5,-19.5 165.5,-19.5 165.5,-0.5 94.5,-0.5"/>
<text text-anchor="middle" x="130" y="-7.5" font-family="Arial.ttf" font-size="10.00">SLLightRect</text>
</a>
</g>
</g>
<!-- Node1&#45;&gt;Node3 -->
<g id="edge2" class="edge"><title>Node1&#45;&gt;Node3</title>
<path fill="none" stroke="midnightblue" d="M130,-45.8045C130,-36.9102 130,-26.7798 130,-19.7511"/>
<polygon fill="midnightblue" stroke="midnightblue" points="126.5,-46.083 130,-56.083 133.5,-46.083 126.5,-46.083"/>
</g>
<!-- Node4 -->
<g id="node4" class="node"><title>Node4</title>
<g id="a_node4"><a xlink:href="class_s_l_light_spot.html" target="_top" xlink:title="SLLightSpot class for a spot light source. ">
<polygon fill="white" stroke="black" points="183.5,-0.5 183.5,-19.5 254.5,-19.5 254.5,-0.5 183.5,-0.5"/>
<text text-anchor="middle" x="219" y="-7.5" font-family="Arial.ttf" font-size="10.00">SLLightSpot</text>
</a>
</g>
</g>
<!-- Node1&#45;&gt;Node4 -->
<g id="edge3" class="edge"><title>Node1&#45;&gt;Node4</title>
<path fill="none" stroke="midnightblue" d="M153.238,-50.9005C169.558,-40.9986 190.865,-28.0705 204.736,-19.6545"/>
<polygon fill="midnightblue" stroke="midnightblue" points="151.033,-48.1444 144.299,-56.324 154.664,-54.1289 151.033,-48.1444"/>
</g>
</g>
</svg>
