<?xml version="1.0" encoding="UTF-8" standalone="no"?>
<!DOCTYPE svg PUBLIC "-//W3C//DTD SVG 1.1//EN"
 "http://www.w3.org/Graphics/SVG/1.1/DTD/svg11.dtd">
<!-- Generated by graphviz version 2.28.0 (20110507.0327)
 -->
<!-- Title: SLRevolver Pages: 1 -->
<svg width="445pt" height="196pt"
 viewBox="0.00 0.00 445.00 196.00" xmlns="http://www.w3.org/2000/svg" xmlns:xlink="http://www.w3.org/1999/xlink">
<g id="graph1" class="graph" transform="scale(1 1) rotate(0) translate(4 192)">
<title>SLRevolver</title>
<polygon fill="white" stroke="white" points="-4,5 -4,-192 442,-192 442,5 -4,5"/>
<!-- Node1 -->
<g id="node1" class="node"><title>Node1</title>
<polygon fill="#bfbfbf" stroke="black" points="179.5,-56.5 179.5,-75.5 248.5,-75.5 248.5,-56.5 179.5,-56.5"/>
<text text-anchor="middle" x="214" y="-63.5" font-family="Arial.ttf" font-size="10.00">SLRevolver</text>
</g>
<!-- Node4 -->
<g id="node7" class="node"><title>Node4</title>
<a xlink:href="class_s_l_cone.html" target="_top" xlink:title="SLCone creates a cone mesh based on SLRevolver.">
<polygon fill="white" stroke="black" points="-0.5,-0.5 -0.5,-19.5 52.5,-19.5 52.5,-0.5 -0.5,-0.5"/>
<text text-anchor="middle" x="26" y="-7.5" font-family="Arial.ttf" font-size="10.00">SLCone</text>
</a>
</g>
<!-- Node1&#45;&gt;Node4 -->
<g id="edge6" class="edge"><title>Node1&#45;&gt;Node4</title>
<path fill="none" stroke="midnightblue" d="M174.36,-53.614C137.744,-43.0967 84.3618,-27.7635 52.6101,-18.6433"/>
<polygon fill="midnightblue" stroke="midnightblue" points="173.633,-57.0467 184.211,-56.4435 175.566,-50.3188 173.633,-57.0467"/>
</g>
<!-- Node5 -->
<g id="node9" class="node"><title>Node5</title>
<a xlink:href="class_s_l_cylinder.html" target="_top" xlink:title="SLCylinder is creates sphere mesh based on its SLRevolver methods.">
<polygon fill="white" stroke="black" points="70.5,-0.5 70.5,-19.5 137.5,-19.5 137.5,-0.5 70.5,-0.5"/>
<text text-anchor="middle" x="104" y="-7.5" font-family="Arial.ttf" font-size="10.00">SLCylinder</text>
</a>
</g>
<!-- Node1&#45;&gt;Node5 -->
<g id="edge8" class="edge"><title>Node1&#45;&gt;Node5</title>
<path fill="none" stroke="midnightblue" d="M187.238,-51.8622C166.841,-41.8492 139.334,-28.3458 121.63,-19.6545"/>
<polygon fill="midnightblue" stroke="midnightblue" points="185.808,-55.059 196.327,-56.324 188.892,-48.7753 185.808,-55.059"/>
</g>
<!-- Node6 -->
<g id="node11" class="node"><title>Node6</title>
<a xlink:href="class_s_l_disk.html" target="_top" xlink:title="SLDisk creates a disk mesh based on SLRevolver.">
<polygon fill="white" stroke="black" points="155.5,-0.5 155.5,-19.5 204.5,-19.5 204.5,-0.5 155.5,-0.5"/>
<text text-anchor="middle" x="180" y="-7.5" font-family="Arial.ttf" font-size="10.00">SLDisk</text>
</a>
</g>
<!-- Node1&#45;&gt;Node6 -->
<g id="edge10" class="edge"><title>Node1&#45;&gt;Node6</title>
<path fill="none" stroke="midnightblue" d="M203.023,-47.5656C197.173,-38.2747 190.23,-27.2484 185.51,-19.7511"/>
<polygon fill="midnightblue" stroke="midnightblue" points="200.096,-49.4855 208.386,-56.083 206.019,-45.7558 200.096,-49.4855"/>
</g>
<!-- Node7 -->
<g id="node13" class="node"><title>Node7</title>
<a xlink:href="class_s_l_lens.html" target="_top" xlink:title="SLLens creates a lens mesh based on SLRevolver.">
<polygon fill="white" stroke="black" points="222.5,-0.5 222.5,-19.5 273.5,-19.5 273.5,-0.5 222.5,-0.5"/>
<text text-anchor="middle" x="248" y="-7.5" font-family="Arial.ttf" font-size="10.00">SLLens</text>
</a>
</g>
<!-- Node1&#45;&gt;Node7 -->
<g id="edge12" class="edge"><title>Node1&#45;&gt;Node7</title>
<path fill="none" stroke="midnightblue" d="M224.977,-47.5656C230.827,-38.2747 237.77,-27.2484 242.49,-19.7511"/>
<polygon fill="midnightblue" stroke="midnightblue" points="221.981,-45.7558 219.614,-56.083 227.904,-49.4855 221.981,-45.7558"/>
</g>
<!-- Node8 -->
<g id="node15" class="node"><title>Node8</title>
<a xlink:href="class_s_l_sphere.html" target="_top" xlink:title="SLSphere creates a sphere mesh based on SLRevolver.">
<polygon fill="white" stroke="black" points="291.5,-0.5 291.5,-19.5 354.5,-19.5 354.5,-0.5 291.5,-0.5"/>
<text text-anchor="middle" x="323" y="-7.5" font-family="Arial.ttf" font-size="10.00">SLSphere</text>
</a>
</g>
<!-- Node1&#45;&gt;Node8 -->
<g id="edge14" class="edge"><title>Node1&#45;&gt;Node8</title>
<path fill="none" stroke="midnightblue" d="M240.519,-51.8622C260.73,-41.8492 287.987,-28.3458 305.531,-19.6545"/>
<polygon fill="midnightblue" stroke="midnightblue" points="238.92,-48.7485 231.513,-56.324 242.027,-55.0209 238.92,-48.7485"/>
</g>
<!-- Node9 -->
<g id="node17" class="node"><title>Node9</title>
<a xlink:href="class_s_l_volume.html" target="_top" xlink:title="SLSphere creates a sphere mesh based on SLRevolver.">
<polygon fill="white" stroke="black" points="372.5,-0.5 372.5,-19.5 437.5,-19.5 437.5,-0.5 372.5,-0.5"/>
<text text-anchor="middle" x="405" y="-7.5" font-family="Arial.ttf" font-size="10.00">SLVolume</text>
</a>
</g>
<!-- Node1&#45;&gt;Node9 -->
<g id="edge16" class="edge"><title>Node1&#45;&gt;Node9</title>
<path fill="none" stroke="midnightblue" d="M253.973,-53.6986C290.021,-43.507 342.243,-28.7429 374.877,-19.5164"/>
<polygon fill="midnightblue" stroke="midnightblue" points="252.935,-50.3549 244.265,-56.4435 254.84,-57.0909 252.935,-50.3549"/>
</g>
<!-- Node2 -->
<g id="node2" class="node"><title>Node2</title>
<a xlink:href="class_s_l_mesh.html" target="_top" xlink:title="An SLMesh object is a triangulated mesh that is drawn with one draw call.">
<polygon fill="white" stroke="black" points="187,-112.5 187,-131.5 241,-131.5 241,-112.5 187,-112.5"/>
<text text-anchor="middle" x="214" y="-119.5" font-family="Arial.ttf" font-size="10.00">SLMesh</text>
</a>
</g>
<!-- Node2&#45;&gt;Node1 -->
<g id="edge2" class="edge"><title>Node2&#45;&gt;Node1</title>
<path fill="none" stroke="midnightblue" d="M214,-101.805C214,-92.9102 214,-82.7798 214,-75.7511"/>
<polygon fill="midnightblue" stroke="midnightblue" points="210.5,-102.083 214,-112.083 217.5,-102.083 210.5,-102.083"/>
</g>
<!-- Node3 -->
<g id="node4" class="node"><title>Node3</title>
<a xlink:href="class_s_l_object.html" target="_top" xlink:title="Base class for all other classes.">
<polygon fill="white" stroke="black" points="184.5,-168.5 184.5,-187.5 243.5,-187.5 243.5,-168.5 184.5,-168.5"/>
<text text-anchor="middle" x="214" y="-175.5" font-family="Arial.ttf" font-size="10.00">SLObject</text>
</a>
</g>
<!-- Node3&#45;&gt;Node2 -->
<g id="edge4" class="edge"><title>Node3&#45;&gt;Node2</title>
<path fill="none" stroke="midnightblue" d="M214,-157.805C214,-148.91 214,-138.78 214,-131.751"/>
<polygon fill="midnightblue" stroke="midnightblue" points="210.5,-158.083 214,-168.083 217.5,-158.083 210.5,-158.083"/>
</g>
</g>
</svg>
