<?xml version="1.0" encoding="UTF-8" standalone="no"?>
<!DOCTYPE svg PUBLIC "-//W3C//DTD SVG 1.1//EN"
 "http://www.w3.org/Graphics/SVG/1.1/DTD/svg11.dtd">
<!-- Generated by graphviz version 2.40.1 (20161225.0304)
 -->
<!-- Title: SLTransferFunction Pages: 1 -->
<svg width="188pt" height="137pt"
 viewBox="0.00 0.00 188.22 137.00" xmlns="http://www.w3.org/2000/svg" xmlns:xlink="http://www.w3.org/1999/xlink">
<g id="graph0" class="graph" transform="scale(1 1) rotate(0) translate(4 133)">
<title>SLTransferFunction</title>
<polygon fill="#ffffff" stroke="transparent" points="-4,4 -4,-133 184.2246,-133 184.2246,4 -4,4"/>
<!-- Node1 -->
<g id="node1" class="node">
<title>Node1</title>
<g id="a_node1"><a xlink:title="A transfer function defines a 1D texture of 256 RGBA values.">
<polygon fill="#bfbfbf" stroke="#000000" points="34.4565,-.5 34.4565,-18.5 137.1704,-18.5 137.1704,-.5 34.4565,-.5"/>
<text text-anchor="middle" x="85.8135" y="-6.5" font-family="Arial.ttf" font-size="10.00" fill="#000000">SLTransferFunction</text>
</a>
</g>
</g>
<!-- Node2 -->
<g id="node2" class="node">
<title>Node2</title>
<g id="a_node2"><a xlink:href="class_s_l_g_l_texture.html" target="_top" xlink:title="Texture object for OpenGL texturing.">
<polygon fill="#ffffff" stroke="#000000" points="0,-55.5 0,-73.5 73.627,-73.5 73.627,-55.5 0,-55.5"/>
<text text-anchor="middle" x="36.8135" y="-61.5" font-family="Arial.ttf" font-size="10.00" fill="#000000">SLGLTexture</text>
</a>
</g>
</g>
<!-- Node2&#45;&gt;Node1 -->
<g id="edge1" class="edge">
<title>Node2&#45;&gt;Node1</title>
<path fill="none" stroke="#191970" d="M51.7582,-47.7253C60.231,-38.215 70.5118,-26.6754 77.5463,-18.7795"/>
<polygon fill="#191970" stroke="#191970" points="48.9436,-45.623 44.9048,-55.4179 54.1702,-50.2795 48.9436,-45.623"/>
</g>
<!-- Node3 -->
<g id="node3" class="node">
<title>Node3</title>
<g id="a_node3"><a xlink:href="class_s_l_object.html" target="_top" xlink:title="Base class for all other classes.">
<polygon fill="#ffffff" stroke="#000000" points="8.2471,-110.5 8.2471,-128.5 65.3799,-128.5 65.3799,-110.5 8.2471,-110.5"/>
<text text-anchor="middle" x="36.8135" y="-116.5" font-family="Arial.ttf" font-size="10.00" fill="#000000">SLObject</text>
</a>
</g>
</g>
<!-- Node3&#45;&gt;Node2 -->
<g id="edge2" class="edge">
<title>Node3&#45;&gt;Node2</title>
<path fill="none" stroke="#191970" d="M36.8135,-100.383C36.8135,-91.3738 36.8135,-81.0373 36.8135,-73.7795"/>
<polygon fill="#191970" stroke="#191970" points="33.3136,-100.4178 36.8135,-110.4179 40.3136,-100.4179 33.3136,-100.4178"/>
</g>
<!-- Node4 -->
<g id="node4" class="node">
<title>Node4</title>
<g id="a_node4"><a xlink:href="class_s_l_event_handler.html" target="_top" xlink:title="Virtual Eventhandler class.">
<polygon fill="#ffffff" stroke="#000000" points="91.4023,-55.5 91.4023,-73.5 180.2246,-73.5 180.2246,-55.5 91.4023,-55.5"/>
<text text-anchor="middle" x="135.8135" y="-61.5" font-family="Arial.ttf" font-size="10.00" fill="#000000">SLEventHandler</text>
</a>
</g>
</g>
<!-- Node4&#45;&gt;Node1 -->
<g id="edge3" class="edge">
<title>Node4&#45;&gt;Node1</title>
<path fill="none" stroke="#191970" d="M120.8252,-48.0129C112.1303,-38.4485 101.5,-26.7552 94.2493,-18.7795"/>
<polygon fill="#191970" stroke="#191970" points="118.2404,-50.3728 127.557,-55.4179 123.42,-45.6641 118.2404,-50.3728"/>
</g>
</g>
</svg>
