<?xml version="1.0" encoding="UTF-8" standalone="no"?>
<!DOCTYPE svg PUBLIC "-//W3C//DTD SVG 1.1//EN"
 "http://www.w3.org/Graphics/SVG/1.1/DTD/svg11.dtd">
<!-- Generated by graphviz version 2.36.0 (20140111.2315)
 -->
<!-- Title: SLTouchEvent Pages: 1 -->
<svg width="104pt" height="206pt"
 viewBox="0.00 0.00 104.00 206.00" xmlns="http://www.w3.org/2000/svg" xmlns:xlink="http://www.w3.org/1999/xlink">
<g id="graph0" class="graph" transform="scale(1 1) rotate(0) translate(4 202)">
<title>SLTouchEvent</title>
<polygon fill="white" stroke="none" points="-4,4 -4,-202 100,-202 100,4 -4,4"/>
<!-- Node1 -->
<g id="node1" class="node"><title>Node1</title>
<polygon fill="#bfbfbf" stroke="black" points="-0.5,-1 -0.5,-91 96.5,-91 96.5,-1 -0.5,-1"/>
<text text-anchor="middle" x="48" y="-79" font-family="Arial.ttf" font-size="10.00">SLTouchEvent</text>
<polyline fill="none" stroke="black" points="-0.5,-72 96.5,-72 "/>
<text text-anchor="start" x="7.5" y="-60" font-family="Arial.ttf" font-size="10.00">+ x1</text>
<text text-anchor="start" x="7.5" y="-49" font-family="Arial.ttf" font-size="10.00">+ y1</text>
<text text-anchor="start" x="7.5" y="-38" font-family="Arial.ttf" font-size="10.00">+ x2</text>
<text text-anchor="start" x="7.5" y="-27" font-family="Arial.ttf" font-size="10.00">+ y2</text>
<polyline fill="none" stroke="black" points="-0.5,-20 96.5,-20 "/>
<text text-anchor="start" x="7.5" y="-8" font-family="Arial.ttf" font-size="10.00">+ SLTouchEvent()</text>
</g>
<!-- Node2 -->
<g id="node2" class="node"><title>Node2</title>
<g id="a_node2"><a xlink:href="class_s_l_input_event.html" target="_top" xlink:title="Baseclass for all system input events. ">
<polygon fill="white" stroke="black" points="2,-129 2,-197 94,-197 94,-129 2,-129"/>
<text text-anchor="middle" x="48" y="-185" font-family="Arial.ttf" font-size="10.00">SLInputEvent</text>
<polyline fill="none" stroke="black" points="2,-178 94,-178 "/>
<text text-anchor="start" x="10" y="-166" font-family="Arial.ttf" font-size="10.00">+ type</text>
<text text-anchor="start" x="10" y="-155" font-family="Arial.ttf" font-size="10.00">+ svIndex</text>
<polyline fill="none" stroke="black" points="2,-148 94,-148 "/>
<text text-anchor="start" x="10" y="-136" font-family="Arial.ttf" font-size="10.00">+ SLInputEvent()</text>
</a>
</g>
</g>
<!-- Node2&#45;&gt;Node1 -->
<g id="edge1" class="edge"><title>Node2&#45;&gt;Node1</title>
<path fill="none" stroke="midnightblue" d="M48,-118.555C48,-109.646 48,-100.257 48,-91.3181"/>
<polygon fill="none" stroke="midnightblue" points="44.5001,-118.737 48,-128.737 51.5001,-118.737 44.5001,-118.737"/>
</g>
</g>
</svg>
