<?xml version="1.0" encoding="UTF-8" standalone="no"?>
<!DOCTYPE svg PUBLIC "-//W3C//DTD SVG 1.1//EN"
 "http://www.w3.org/Graphics/SVG/1.1/DTD/svg11.dtd">
<!-- Generated by graphviz version 2.36.0 (20140111.2315)
 -->
<!-- Title: SLCurve Pages: 1 -->
<svg width="162pt" height="492pt"
 viewBox="0.00 0.00 162.00 492.00" xmlns="http://www.w3.org/2000/svg" xmlns:xlink="http://www.w3.org/1999/xlink">
<g id="graph0" class="graph" transform="scale(1 1) rotate(0) translate(4 488)">
<title>SLCurve</title>
<polygon fill="white" stroke="none" points="-4,4 -4,-488 158,-488 158,4 -4,4"/>
<!-- Node1 -->
<g id="node1" class="node"><title>Node1</title>
<polygon fill="#bfbfbf" stroke="black" points="0,-1 0,-135 80,-135 80,-1 0,-1"/>
<text text-anchor="middle" x="40" y="-123" font-family="Arial.ttf" font-size="10.00">SLCurve</text>
<polyline fill="none" stroke="black" points="0,-116 80,-116 "/>
<text text-anchor="start" x="8" y="-104" font-family="Arial.ttf" font-size="10.00"># _times</text>
<text text-anchor="start" x="8" y="-93" font-family="Arial.ttf" font-size="10.00"># _count</text>
<text text-anchor="start" x="8" y="-82" font-family="Arial.ttf" font-size="10.00"># _lengths</text>
<text text-anchor="start" x="8" y="-71" font-family="Arial.ttf" font-size="10.00"># _totalLength</text>
<polyline fill="none" stroke="black" points="0,-64 80,-64 "/>
<text text-anchor="start" x="8" y="-52" font-family="Arial.ttf" font-size="10.00">+ SLCurve()</text>
<text text-anchor="start" x="8" y="-41" font-family="Arial.ttf" font-size="10.00">+ ~SLCurve()</text>
<text text-anchor="start" x="8" y="-30" font-family="Arial.ttf" font-size="10.00">+ dispose()</text>
<text text-anchor="start" x="8" y="-19" font-family="Arial.ttf" font-size="10.00">+ evaluate()</text>
<text text-anchor="start" x="8" y="-8" font-family="Arial.ttf" font-size="10.00">+ draw()</text>
</g>
<!-- Node2 -->
<g id="node2" class="node"><title>Node2</title>
<g id="a_node2"><a xlink:href="class_s_l_vec3.html" target="_top" xlink:title="3D vector template class for standard 3D vector algebra. ">
<polygon fill="white" stroke="black" points="-0.5,-184.5 -0.5,-483.5 80.5,-483.5 80.5,-184.5 -0.5,-184.5"/>
<text text-anchor="middle" x="40" y="-471.5" font-family="Arial.ttf" font-size="10.00">SLVec3&lt; T &gt;</text>
<polyline fill="none" stroke="black" points="-0.5,-464.5 80.5,-464.5 "/>
<text text-anchor="start" x="7.5" y="-452.5" font-family="Arial.ttf" font-size="10.00">+ x</text>
<text text-anchor="start" x="7.5" y="-441.5" font-family="Arial.ttf" font-size="10.00">+ y</text>
<text text-anchor="start" x="7.5" y="-430.5" font-family="Arial.ttf" font-size="10.00">+ z</text>
<text text-anchor="start" x="7.5" y="-419.5" font-family="Arial.ttf" font-size="10.00">+ r</text>
<text text-anchor="start" x="7.5" y="-408.5" font-family="Arial.ttf" font-size="10.00">+ g</text>
<text text-anchor="start" x="7.5" y="-397.5" font-family="Arial.ttf" font-size="10.00">+ b</text>
<text text-anchor="start" x="7.5" y="-386.5" font-family="Arial.ttf" font-size="10.00">+ comp</text>
<text text-anchor="start" x="7.5" y="-375.5" font-family="Arial.ttf" font-size="10.00">+ @8</text>
<text text-anchor="start" x="7.5" y="-364.5" font-family="Arial.ttf" font-size="10.00">+ WHITE</text>
<text text-anchor="start" x="7.5" y="-353.5" font-family="Arial.ttf" font-size="10.00">+ YELLOW</text>
<text text-anchor="start" x="7.5" y="-342.5" font-family="Arial.ttf" font-size="10.00">+ ORANGE</text>
<text text-anchor="start" x="7.5" y="-331.5" font-family="Arial.ttf" font-size="10.00">+ AXISY</text>
<text text-anchor="start" x="7.5" y="-320.5" font-family="Arial.ttf" font-size="10.00">+ AXISZ</text>
<polyline fill="none" stroke="black" points="-0.5,-313.5 80.5,-313.5 "/>
<text text-anchor="start" x="7.5" y="-301.5" font-family="Arial.ttf" font-size="10.00">+ SLVec3()</text>
<text text-anchor="start" x="7.5" y="-290.5" font-family="Arial.ttf" font-size="10.00">+ SLVec3()</text>
<text text-anchor="start" x="7.5" y="-279.5" font-family="Arial.ttf" font-size="10.00">+ SLVec3()</text>
<text text-anchor="start" x="7.5" y="-268.5" font-family="Arial.ttf" font-size="10.00">+ SLVec3()</text>
<text text-anchor="start" x="7.5" y="-257.5" font-family="Arial.ttf" font-size="10.00">+ SLVec3()</text>
<text text-anchor="start" x="7.5" y="-246.5" font-family="Arial.ttf" font-size="10.00">+ SLVec3()</text>
<text text-anchor="start" x="7.5" y="-235.5" font-family="Arial.ttf" font-size="10.00">+ set()</text>
<text text-anchor="start" x="7.5" y="-224.5" font-family="Arial.ttf" font-size="10.00">+ set()</text>
<text text-anchor="start" x="7.5" y="-213.5" font-family="Arial.ttf" font-size="10.00">+ set()</text>
<text text-anchor="start" x="7.5" y="-202.5" font-family="Arial.ttf" font-size="10.00">+ set()</text>
<text text-anchor="start" x="7.5" y="-191.5" font-family="Arial.ttf" font-size="10.00">and 49 more...</text>
</a>
</g>
</g>
<!-- Node2&#45;&gt;Node1 -->
<g id="edge1" class="edge"><title>Node2&#45;&gt;Node1</title>
<path fill="none" stroke="#404040" d="M40,-184.41C40,-171.618 40,-159.038 40,-147.159"/>
<polygon fill="none" stroke="#404040" points="40.0001,-147.055 36,-141.055 40,-135.055 44,-141.055 40.0001,-147.055"/>
<text text-anchor="middle" x="60.5" y="-157.5" font-family="Arial.ttf" font-size="10.00"> #_points</text>
</g>
<!-- Node2&#45;&gt;Node2 -->
<g id="edge2" class="edge"><title>Node2&#45;&gt;Node2</title>
<path fill="none" stroke="#404040" d="M80.6538,-366.115C90.599,-363.736 98,-353.031 98,-334 98,-322.403 95.2517,-313.897 90.8542,-308.484"/>
<polygon fill="none" stroke="#404040" points="90.7291,-308.403 83.5187,-308.502 80.6538,-301.885 87.8643,-301.785 90.7291,-308.403"/>
<text text-anchor="middle" x="126" y="-386.5" font-family="Arial.ttf" font-size="10.00"> +COLBFH</text>
<text text-anchor="middle" x="126" y="-375.5" font-family="Arial.ttf" font-size="10.00">+ZERO</text>
<text text-anchor="middle" x="126" y="-364.5" font-family="Arial.ttf" font-size="10.00">+BLUE</text>
<text text-anchor="middle" x="126" y="-353.5" font-family="Arial.ttf" font-size="10.00">+BLACK</text>
<text text-anchor="middle" x="126" y="-342.5" font-family="Arial.ttf" font-size="10.00">+RED</text>
<text text-anchor="middle" x="126" y="-331.5" font-family="Arial.ttf" font-size="10.00">+MAGENTA</text>
<text text-anchor="middle" x="126" y="-320.5" font-family="Arial.ttf" font-size="10.00">+GREEN</text>
<text text-anchor="middle" x="126" y="-309.5" font-family="Arial.ttf" font-size="10.00">+CYAN</text>
<text text-anchor="middle" x="126" y="-298.5" font-family="Arial.ttf" font-size="10.00">+GRAY</text>
<text text-anchor="middle" x="126" y="-287.5" font-family="Arial.ttf" font-size="10.00">+AXISX</text>
<text text-anchor="middle" x="126" y="-276.5" font-family="Arial.ttf" font-size="10.00">...</text>
</g>
</g>
</svg>
