<?xml version="1.0" encoding="UTF-8" standalone="no"?>
<!DOCTYPE svg PUBLIC "-//W3C//DTD SVG 1.1//EN"
 "http://www.w3.org/Graphics/SVG/1.1/DTD/svg11.dtd">
<!-- Generated by graphviz version 2.44.0 (20200408.0750)
 -->
<!-- Title: SLEventHandler Pages: 1 -->
<svg width="505pt" height="370pt"
 viewBox="0.00 0.00 505.00 370.00" xmlns="http://www.w3.org/2000/svg" xmlns:xlink="http://www.w3.org/1999/xlink">
<g id="graph0" class="graph" transform="scale(1 1) rotate(0) translate(4 366)">
<title>SLEventHandler</title>
<polygon fill="white" stroke="transparent" points="-4,4 -4,-366 501,-366 501,4 -4,4"/>
<!-- Node1 -->
<g id="node1" class="node">
<title>Node1</title>
<g id="a_node1"><a xlink:title="Virtual Eventhandler class.">
<polygon fill="#bfbfbf" stroke="black" points="0,-114.5 0,-133.5 88,-133.5 88,-114.5 0,-114.5"/>
<text text-anchor="middle" x="44" y="-121.5" font-family="Arial.ttf" font-size="10.00">SLEventHandler</text>
</a>
</g>
</g>
<!-- Node2 -->
<g id="node2" class="node">
<title>Node2</title>
<g id="a_node2"><a xlink:href="class_s_l_g_l_uniform.html" target="_top" xlink:title="Template for a single GLSL uniform variable.">
<polygon fill="white" stroke="black" points="124.5,-209.5 124.5,-228.5 224.5,-228.5 224.5,-209.5 124.5,-209.5"/>
<text text-anchor="middle" x="174.5" y="-216.5" font-family="Arial.ttf" font-size="10.00">SLGLUniform&lt; T &gt;</text>
</a>
</g>
</g>
<!-- Node1&#45;&gt;Node2 -->
<g id="edge1" class="edge">
<title>Node1&#45;&gt;Node2</title>
<path fill="none" stroke="midnightblue" d="M59.6,-141.67C74.36,-158.57 98.56,-183.83 124,-200 129.83,-203.7 136.49,-206.87 142.99,-209.49"/>
<polygon fill="midnightblue" stroke="midnightblue" points="61.94,-139.02 52.79,-133.68 56.62,-143.56 61.94,-139.02"/>
</g>
<!-- Node3 -->
<g id="node3" class="node">
<title>Node3</title>
<g id="a_node3"><a xlink:href="class_s_l_node.html" target="_top" xlink:title="SLNode represents a node in a hierarchical scene graph.">
<polygon fill="white" stroke="black" points="148.5,-171.5 148.5,-190.5 200.5,-190.5 200.5,-171.5 148.5,-171.5"/>
<text text-anchor="middle" x="174.5" y="-178.5" font-family="Arial.ttf" font-size="10.00">SLNode</text>
</a>
</g>
</g>
<!-- Node1&#45;&gt;Node3 -->
<g id="edge2" class="edge">
<title>Node1&#45;&gt;Node3</title>
<path fill="none" stroke="midnightblue" d="M75.7,-137.62C99.21,-148.05 131.05,-162.17 151.92,-171.43"/>
<polygon fill="midnightblue" stroke="midnightblue" points="77.07,-134.4 66.51,-133.54 74.23,-140.79 77.07,-134.4"/>
</g>
<!-- Node13 -->
<g id="node13" class="node">
<title>Node13</title>
<g id="a_node13"><a xlink:href="class_s_l_raytracer.html" target="_top" xlink:title="SLRaytracer hold all the methods for Whitted style Ray Tracing.">
<polygon fill="white" stroke="black" points="139,-95.5 139,-114.5 210,-114.5 210,-95.5 139,-95.5"/>
<text text-anchor="middle" x="174.5" y="-102.5" font-family="Arial.ttf" font-size="10.00">SLRaytracer</text>
</a>
</g>
</g>
<!-- Node1&#45;&gt;Node13 -->
<g id="edge12" class="edge">
<title>Node1&#45;&gt;Node13</title>
<path fill="none" stroke="midnightblue" d="M98.4,-116.1C112.04,-114.09 126.35,-111.97 138.78,-110.13"/>
<polygon fill="midnightblue" stroke="midnightblue" points="97.53,-112.7 88.15,-117.62 98.55,-119.62 97.53,-112.7"/>
</g>
<!-- Node16 -->
<g id="node16" class="node">
<title>Node16</title>
<g id="a_node16"><a xlink:href="class_s_l_transfer_function.html" target="_top" xlink:title="A transfer function defines a 1D texture of 256 RGBA values.">
<polygon fill="white" stroke="black" points="124,-57.5 124,-76.5 225,-76.5 225,-57.5 124,-57.5"/>
<text text-anchor="middle" x="174.5" y="-64.5" font-family="Arial.ttf" font-size="10.00">SLTransferFunction</text>
</a>
</g>
</g>
<!-- Node1&#45;&gt;Node16 -->
<g id="edge15" class="edge">
<title>Node1&#45;&gt;Node16</title>
<path fill="none" stroke="midnightblue" d="M73.18,-109.75C88.14,-102.37 106.92,-93.37 124,-86 131.52,-82.75 139.8,-79.47 147.39,-76.56"/>
<polygon fill="midnightblue" stroke="midnightblue" points="71.35,-106.76 63.95,-114.34 74.47,-113.02 71.35,-106.76"/>
</g>
<!-- Node4 -->
<g id="node4" class="node">
<title>Node4</title>
<g id="a_node4"><a xlink:href="class_s_l_camera.html" target="_top" xlink:title="Active or visible camera node class.">
<polygon fill="white" stroke="black" points="277,-342.5 277,-361.5 340,-361.5 340,-342.5 277,-342.5"/>
<text text-anchor="middle" x="308.5" y="-349.5" font-family="Arial.ttf" font-size="10.00">SLCamera</text>
</a>
</g>
</g>
<!-- Node3&#45;&gt;Node4 -->
<g id="edge3" class="edge">
<title>Node3&#45;&gt;Node4</title>
<path fill="none" stroke="midnightblue" d="M210.1,-189.41C215.67,-192.04 220.93,-195.49 225,-200 266.03,-245.46 220.45,-287.11 261,-333 265.27,-337.84 270.96,-341.46 276.89,-344.18"/>
<polygon fill="midnightblue" stroke="midnightblue" points="211.19,-186.08 200.6,-185.71 208.65,-192.6 211.19,-186.08"/>
</g>
<!-- Node6 -->
<g id="node6" class="node">
<title>Node6</title>
<g id="a_node6"><a xlink:href="class_s_l_joint.html" target="_top" xlink:title="Specialized SLNode that represents a single joint (or bone) in a skeleton.">
<polygon fill="white" stroke="black" points="283.5,-304.5 283.5,-323.5 333.5,-323.5 333.5,-304.5 283.5,-304.5"/>
<text text-anchor="middle" x="308.5" y="-311.5" font-family="Arial.ttf" font-size="10.00">SLJoint</text>
</a>
</g>
</g>
<!-- Node3&#45;&gt;Node6 -->
<g id="edge5" class="edge">
<title>Node3&#45;&gt;Node6</title>
<path fill="none" stroke="midnightblue" d="M210.07,-189.9C215.56,-192.48 220.8,-195.78 225,-200 256.86,-232 229.49,-262.67 261,-295 266.97,-301.12 275.18,-305.34 283.04,-308.22"/>
<polygon fill="midnightblue" stroke="midnightblue" points="211.34,-186.64 200.75,-186.22 208.76,-193.15 211.34,-186.64"/>
</g>
<!-- Node7 -->
<g id="node7" class="node">
<title>Node7</title>
<g id="a_node7"><a xlink:href="class_s_l_light_direct.html" target="_top" xlink:title="SLLightDirect class for a directional light source.">
<polygon fill="white" stroke="black" points="270.5,-266.5 270.5,-285.5 346.5,-285.5 346.5,-266.5 270.5,-266.5"/>
<text text-anchor="middle" x="308.5" y="-273.5" font-family="Arial.ttf" font-size="10.00">SLLightDirect</text>
</a>
</g>
</g>
<!-- Node3&#45;&gt;Node7 -->
<g id="edge6" class="edge">
<title>Node3&#45;&gt;Node7</title>
<path fill="none" stroke="midnightblue" d="M210.13,-190.98C215.43,-193.41 220.6,-196.39 225,-200 248.17,-219 238.04,-237.75 261,-257 265.54,-260.81 270.96,-263.94 276.45,-266.47"/>
<polygon fill="midnightblue" stroke="midnightblue" points="211.15,-187.62 200.57,-187.15 208.55,-194.12 211.15,-187.62"/>
</g>
<!-- Node8 -->
<g id="node8" class="node">
<title>Node8</title>
<g id="a_node8"><a xlink:href="class_s_l_light_rect.html" target="_top" xlink:title="Light node class for a rectangular light source.">
<polygon fill="white" stroke="black" points="273,-228.5 273,-247.5 344,-247.5 344,-228.5 273,-228.5"/>
<text text-anchor="middle" x="308.5" y="-235.5" font-family="Arial.ttf" font-size="10.00">SLLightRect</text>
</a>
</g>
</g>
<!-- Node3&#45;&gt;Node8 -->
<g id="edge7" class="edge">
<title>Node3&#45;&gt;Node8</title>
<path fill="none" stroke="midnightblue" d="M210.16,-193.7C215.18,-195.71 220.25,-197.84 225,-200 241.47,-207.48 244.61,-211.35 261,-219 267.95,-222.25 275.62,-225.51 282.69,-228.39"/>
<polygon fill="midnightblue" stroke="midnightblue" points="211.26,-190.37 200.67,-190 208.71,-196.89 211.26,-190.37"/>
</g>
<!-- Node9 -->
<g id="node9" class="node">
<title>Node9</title>
<g id="a_node9"><a xlink:href="class_s_l_light_spot.html" target="_top" xlink:title="SLLightSpot class for a spot light source.">
<polygon fill="white" stroke="black" points="273.5,-190.5 273.5,-209.5 343.5,-209.5 343.5,-190.5 273.5,-190.5"/>
<text text-anchor="middle" x="308.5" y="-197.5" font-family="Arial.ttf" font-size="10.00">SLLightSpot</text>
</a>
</g>
</g>
<!-- Node3&#45;&gt;Node9 -->
<g id="edge8" class="edge">
<title>Node3&#45;&gt;Node9</title>
<path fill="none" stroke="midnightblue" d="M210.63,-186.06C230.1,-188.86 254.19,-192.33 273.48,-195.1"/>
<polygon fill="midnightblue" stroke="midnightblue" points="211.04,-182.58 200.64,-184.62 210.04,-189.51 211.04,-182.58"/>
</g>
<!-- Node10 -->
<g id="node10" class="node">
<title>Node10</title>
<g id="a_node10"><a xlink:href="class_s_l_skybox.html" target="_top" xlink:title="Skybox node class with a SLBox mesh.">
<polygon fill="white" stroke="black" points="277.5,-152.5 277.5,-171.5 339.5,-171.5 339.5,-152.5 277.5,-152.5"/>
<text text-anchor="middle" x="308.5" y="-159.5" font-family="Arial.ttf" font-size="10.00">SLSkybox</text>
</a>
</g>
</g>
<!-- Node3&#45;&gt;Node10 -->
<g id="edge9" class="edge">
<title>Node3&#45;&gt;Node10</title>
<path fill="none" stroke="midnightblue" d="M210.67,-175.94C231.46,-172.94 257.52,-169.19 277.36,-166.34"/>
<polygon fill="midnightblue" stroke="midnightblue" points="210.04,-172.49 200.64,-177.38 211.04,-179.42 210.04,-172.49"/>
</g>
<!-- Node11 -->
<g id="node11" class="node">
<title>Node11</title>
<g id="a_node11"><a xlink:href="class_s_l_text.html" target="_top" xlink:title="SLText creates a mesh using a textured font from SLTexFont.">
<polygon fill="white" stroke="black" points="285,-114.5 285,-133.5 332,-133.5 332,-114.5 285,-114.5"/>
<text text-anchor="middle" x="308.5" y="-121.5" font-family="Arial.ttf" font-size="10.00">SLText</text>
</a>
</g>
</g>
<!-- Node3&#45;&gt;Node11 -->
<g id="edge10" class="edge">
<title>Node3&#45;&gt;Node11</title>
<path fill="none" stroke="midnightblue" d="M206.05,-167.15C222.31,-159.85 242.69,-150.81 261,-143 268.7,-139.72 277.17,-136.22 284.74,-133.14"/>
<polygon fill="midnightblue" stroke="midnightblue" points="204.19,-164.15 196.5,-171.45 207.06,-170.54 204.19,-164.15"/>
</g>
<!-- Node12 -->
<g id="node12" class="node">
<title>Node12</title>
<g id="a_node12"><a xlink:href="class_s_l_transform_node.html" target="_top" xlink:title="Class that holds all visible gizmo node during mouse transforms.">
<polygon fill="white" stroke="black" points="261,-76.5 261,-95.5 356,-95.5 356,-76.5 261,-76.5"/>
<text text-anchor="middle" x="308.5" y="-83.5" font-family="Arial.ttf" font-size="10.00">SLTransformNode</text>
</a>
</g>
</g>
<!-- Node3&#45;&gt;Node12 -->
<g id="edge11" class="edge">
<title>Node3&#45;&gt;Node12</title>
<path fill="none" stroke="midnightblue" d="M191.22,-163.99C207.43,-147.24 234.06,-121.79 261,-105 266.77,-101.4 273.34,-98.23 279.69,-95.57"/>
<polygon fill="midnightblue" stroke="midnightblue" points="188.5,-161.78 184.15,-171.44 193.57,-166.6 188.5,-161.78"/>
</g>
<!-- Node5 -->
<g id="node5" class="node">
<title>Node5</title>
<g id="a_node5"><a xlink:href="class_s_l_keyframe_camera.html" target="_top" xlink:title=" ">
<polygon fill="white" stroke="black" points="392,-342.5 392,-361.5 497,-361.5 497,-342.5 392,-342.5"/>
<text text-anchor="middle" x="444.5" y="-349.5" font-family="Arial.ttf" font-size="10.00">SLKeyframeCamera</text>
</a>
</g>
</g>
<!-- Node4&#45;&gt;Node5 -->
<g id="edge4" class="edge">
<title>Node4&#45;&gt;Node5</title>
<path fill="none" stroke="midnightblue" d="M350.36,-352C363.45,-352 378.13,-352 391.89,-352"/>
<polygon fill="midnightblue" stroke="midnightblue" points="350.24,-348.5 340.24,-352 350.24,-355.5 350.24,-348.5"/>
</g>
<!-- Node14 -->
<g id="node14" class="node">
<title>Node14</title>
<g id="a_node14"><a xlink:href="class_s_l_pathtracer.html" target="_top" xlink:title="Classic Monte Carlo Pathtracing algorithm for real global illumination.">
<polygon fill="white" stroke="black" points="271.5,-38.5 271.5,-57.5 345.5,-57.5 345.5,-38.5 271.5,-38.5"/>
<text text-anchor="middle" x="308.5" y="-45.5" font-family="Arial.ttf" font-size="10.00">SLPathtracer</text>
</a>
</g>
</g>
<!-- Node13&#45;&gt;Node14 -->
<g id="edge13" class="edge">
<title>Node13&#45;&gt;Node14</title>
<path fill="none" stroke="midnightblue" d="M211.85,-91.62C216.31,-89.81 220.78,-87.91 225,-86 241.47,-78.52 244.61,-74.65 261,-67 267.95,-63.75 275.62,-60.49 282.69,-57.61"/>
<polygon fill="midnightblue" stroke="midnightblue" points="210.22,-88.5 202.2,-95.42 212.79,-95.01 210.22,-88.5"/>
</g>
<!-- Node15 -->
<g id="node15" class="node">
<title>Node15</title>
<g id="a_node15"><a xlink:href="class_s_l_photon_mapper.html" target="_top" xlink:title=" ">
<polygon fill="white" stroke="black" points="262.5,-0.5 262.5,-19.5 354.5,-19.5 354.5,-0.5 262.5,-0.5"/>
<text text-anchor="middle" x="308.5" y="-7.5" font-family="Arial.ttf" font-size="10.00">SLPhotonMapper</text>
</a>
</g>
</g>
<!-- Node13&#45;&gt;Node15 -->
<g id="edge14" class="edge">
<title>Node13&#45;&gt;Node15</title>
<path fill="none" stroke="midnightblue" d="M218.51,-90.59C220.79,-89.19 222.98,-87.66 225,-86 248.17,-67 238.04,-48.25 261,-29 265.54,-25.19 270.96,-22.06 276.45,-19.53"/>
<polygon fill="midnightblue" stroke="midnightblue" points="216.56,-87.65 209.32,-95.39 219.81,-93.86 216.56,-87.65"/>
</g>
</g>
</svg>
