<?xml version="1.0" encoding="UTF-8" standalone="no"?>
<!DOCTYPE svg PUBLIC "-//W3C//DTD SVG 1.1//EN"
 "http://www.w3.org/Graphics/SVG/1.1/DTD/svg11.dtd">
<!-- Generated by graphviz version 2.36.0 (20140111.2315)
 -->
<!-- Title: SLGLTexture Pages: 1 -->
<svg width="338pt" height="196pt"
 viewBox="0.00 0.00 338.00 196.00" xmlns="http://www.w3.org/2000/svg" xmlns:xlink="http://www.w3.org/1999/xlink">
<g id="graph0" class="graph" transform="scale(1 1) rotate(0) translate(4 192)">
<title>SLGLTexture</title>
<polygon fill="white" stroke="none" points="-4,4 -4,-192 334,-192 334,4 -4,4"/>
<!-- Node1 -->
<g id="node1" class="node"><title>Node1</title>
<polygon fill="#bfbfbf" stroke="black" points="137,-112.5 137,-131.5 213,-131.5 213,-112.5 137,-112.5"/>
<text text-anchor="middle" x="175" y="-119.5" font-family="Arial.ttf" font-size="10.00">SLGLTexture</text>
</g>
<!-- Node3 -->
<g id="node3" class="node"><title>Node3</title>
<g id="a_node3"><a xlink:href="class_s_l_raytracer.html" target="_top" xlink:title="SLRaytracer hold all the methods for Whitted style Ray Tracing. ">
<polygon fill="white" stroke="black" points="52,-56.5 52,-75.5 124,-75.5 124,-56.5 52,-56.5"/>
<text text-anchor="middle" x="88" y="-63.5" font-family="Arial.ttf" font-size="10.00">SLRaytracer</text>
</a>
</g>
</g>
<!-- Node1&#45;&gt;Node3 -->
<g id="edge2" class="edge"><title>Node1&#45;&gt;Node3</title>
<path fill="none" stroke="midnightblue" d="M152.284,-106.901C136.331,-96.9986 115.503,-84.0705 101.943,-75.6545"/>
<polygon fill="midnightblue" stroke="midnightblue" points="150.68,-110.024 161.022,-112.324 154.371,-104.077 150.68,-110.024"/>
</g>
<!-- Node6 -->
<g id="node6" class="node"><title>Node6</title>
<g id="a_node6"><a xlink:href="class_s_l_tex_font.html" target="_top" xlink:title="Texture Font class inherits SLGLTexture for alpha blended font rendering. ">
<polygon fill="white" stroke="black" points="142.5,-56.5 142.5,-75.5 207.5,-75.5 207.5,-56.5 142.5,-56.5"/>
<text text-anchor="middle" x="175" y="-63.5" font-family="Arial.ttf" font-size="10.00">SLTexFont</text>
</a>
</g>
</g>
<!-- Node1&#45;&gt;Node6 -->
<g id="edge5" class="edge"><title>Node1&#45;&gt;Node6</title>
<path fill="none" stroke="midnightblue" d="M175,-101.805C175,-92.9102 175,-82.7798 175,-75.7511"/>
<polygon fill="midnightblue" stroke="midnightblue" points="171.5,-102.083 175,-112.083 178.5,-102.083 171.5,-102.083"/>
</g>
<!-- Node7 -->
<g id="node7" class="node"><title>Node7</title>
<g id="a_node7"><a xlink:href="class_s_l_transfer_function.html" target="_top" xlink:title="A transfer function defines a 1D texture of 256 RGBA values. ">
<polygon fill="white" stroke="black" points="226,-56.5 226,-75.5 330,-75.5 330,-56.5 226,-56.5"/>
<text text-anchor="middle" x="278" y="-63.5" font-family="Arial.ttf" font-size="10.00">SLTransferFunction</text>
</a>
</g>
</g>
<!-- Node1&#45;&gt;Node7 -->
<g id="edge6" class="edge"><title>Node1&#45;&gt;Node7</title>
<path fill="none" stroke="midnightblue" d="M200.579,-107.59C219.623,-97.6052 245.064,-84.2672 261.492,-75.6545"/>
<polygon fill="midnightblue" stroke="midnightblue" points="198.78,-104.581 191.549,-112.324 202.031,-110.78 198.78,-104.581"/>
</g>
<!-- Node2 -->
<g id="node2" class="node"><title>Node2</title>
<g id="a_node2"><a xlink:href="class_s_l_object.html" target="_top" xlink:title="Base class for all other classes. ">
<polygon fill="white" stroke="black" points="146,-168.5 146,-187.5 204,-187.5 204,-168.5 146,-168.5"/>
<text text-anchor="middle" x="175" y="-175.5" font-family="Arial.ttf" font-size="10.00">SLObject</text>
</a>
</g>
</g>
<!-- Node2&#45;&gt;Node1 -->
<g id="edge1" class="edge"><title>Node2&#45;&gt;Node1</title>
<path fill="none" stroke="midnightblue" d="M175,-157.805C175,-148.91 175,-138.78 175,-131.751"/>
<polygon fill="midnightblue" stroke="midnightblue" points="171.5,-158.083 175,-168.083 178.5,-158.083 171.5,-158.083"/>
</g>
<!-- Node4 -->
<g id="node4" class="node"><title>Node4</title>
<g id="a_node4"><a xlink:href="class_s_l_pathtracer.html" target="_top" xlink:title="Classic Monte Carlo Pathtracing algorithm for real global illumination. ">
<polygon fill="white" stroke="black" points="-0.5,-0.5 -0.5,-19.5 74.5,-19.5 74.5,-0.5 -0.5,-0.5"/>
<text text-anchor="middle" x="37" y="-7.5" font-family="Arial.ttf" font-size="10.00">SLPathtracer</text>
</a>
</g>
</g>
<!-- Node3&#45;&gt;Node4 -->
<g id="edge3" class="edge"><title>Node3&#45;&gt;Node4</title>
<path fill="none" stroke="midnightblue" d="M72.6221,-48.7175C63.6331,-39.1997 52.6408,-27.5608 45.2649,-19.7511"/>
<polygon fill="midnightblue" stroke="midnightblue" points="70.1676,-51.216 79.5784,-56.083 75.2567,-46.4096 70.1676,-51.216"/>
</g>
<!-- Node5 -->
<g id="node5" class="node"><title>Node5</title>
<g id="a_node5"><a xlink:href="class_s_l_photon_mapper.html" target="_top" xlink:title="SLPhotonMapper">
<polygon fill="white" stroke="black" points="93,-0.5 93,-19.5 187,-19.5 187,-0.5 93,-0.5"/>
<text text-anchor="middle" x="140" y="-7.5" font-family="Arial.ttf" font-size="10.00">SLPhotonMapper</text>
</a>
</g>
</g>
<!-- Node3&#45;&gt;Node5 -->
<g id="edge4" class="edge"><title>Node3&#45;&gt;Node5</title>
<path fill="none" stroke="midnightblue" d="M103.679,-48.7175C112.845,-39.1997 124.053,-27.5608 131.573,-19.7511"/>
<polygon fill="midnightblue" stroke="midnightblue" points="101.002,-46.452 96.5867,-56.083 106.044,-51.3075 101.002,-46.452"/>
</g>
</g>
</svg>
