<?xml version="1.0" encoding="UTF-8" standalone="no"?>
<!DOCTYPE svg PUBLIC "-//W3C//DTD SVG 1.1//EN"
 "http://www.w3.org/Graphics/SVG/1.1/DTD/svg11.dtd">
<!-- Generated by graphviz version 2.36.0 (20140111.2315)
 -->
<!-- Title: SLVec3&lt; T &gt; Pages: 1 -->
<svg width="162pt" height="308pt"
 viewBox="0.00 0.00 162.00 308.00" xmlns="http://www.w3.org/2000/svg" xmlns:xlink="http://www.w3.org/1999/xlink">
<g id="graph0" class="graph" transform="scale(1 1) rotate(0) translate(4 304)">
<title>SLVec3&lt; T &gt;</title>
<polygon fill="white" stroke="none" points="-4,4 -4,-304 158,-304 158,4 -4,4"/>
<!-- Node1 -->
<g id="node1" class="node"><title>Node1</title>
<polygon fill="#bfbfbf" stroke="black" points="-0.5,-0.5 -0.5,-299.5 80.5,-299.5 80.5,-0.5 -0.5,-0.5"/>
<text text-anchor="middle" x="40" y="-287.5" font-family="Arial.ttf" font-size="10.00">SLVec3&lt; T &gt;</text>
<polyline fill="none" stroke="black" points="-0.5,-280.5 80.5,-280.5 "/>
<text text-anchor="start" x="7.5" y="-268.5" font-family="Arial.ttf" font-size="10.00">+ x</text>
<text text-anchor="start" x="7.5" y="-257.5" font-family="Arial.ttf" font-size="10.00">+ y</text>
<text text-anchor="start" x="7.5" y="-246.5" font-family="Arial.ttf" font-size="10.00">+ z</text>
<text text-anchor="start" x="7.5" y="-235.5" font-family="Arial.ttf" font-size="10.00">+ r</text>
<text text-anchor="start" x="7.5" y="-224.5" font-family="Arial.ttf" font-size="10.00">+ g</text>
<text text-anchor="start" x="7.5" y="-213.5" font-family="Arial.ttf" font-size="10.00">+ b</text>
<text text-anchor="start" x="7.5" y="-202.5" font-family="Arial.ttf" font-size="10.00">+ comp</text>
<text text-anchor="start" x="7.5" y="-191.5" font-family="Arial.ttf" font-size="10.00">+ @8</text>
<text text-anchor="start" x="7.5" y="-180.5" font-family="Arial.ttf" font-size="10.00">+ WHITE</text>
<text text-anchor="start" x="7.5" y="-169.5" font-family="Arial.ttf" font-size="10.00">+ YELLOW</text>
<text text-anchor="start" x="7.5" y="-158.5" font-family="Arial.ttf" font-size="10.00">+ ORANGE</text>
<text text-anchor="start" x="7.5" y="-147.5" font-family="Arial.ttf" font-size="10.00">+ AXISY</text>
<text text-anchor="start" x="7.5" y="-136.5" font-family="Arial.ttf" font-size="10.00">+ AXISZ</text>
<polyline fill="none" stroke="black" points="-0.5,-129.5 80.5,-129.5 "/>
<text text-anchor="start" x="7.5" y="-117.5" font-family="Arial.ttf" font-size="10.00">+ SLVec3()</text>
<text text-anchor="start" x="7.5" y="-106.5" font-family="Arial.ttf" font-size="10.00">+ SLVec3()</text>
<text text-anchor="start" x="7.5" y="-95.5" font-family="Arial.ttf" font-size="10.00">+ SLVec3()</text>
<text text-anchor="start" x="7.5" y="-84.5" font-family="Arial.ttf" font-size="10.00">+ SLVec3()</text>
<text text-anchor="start" x="7.5" y="-73.5" font-family="Arial.ttf" font-size="10.00">+ SLVec3()</text>
<text text-anchor="start" x="7.5" y="-62.5" font-family="Arial.ttf" font-size="10.00">+ SLVec3()</text>
<text text-anchor="start" x="7.5" y="-51.5" font-family="Arial.ttf" font-size="10.00">+ set()</text>
<text text-anchor="start" x="7.5" y="-40.5" font-family="Arial.ttf" font-size="10.00">+ set()</text>
<text text-anchor="start" x="7.5" y="-29.5" font-family="Arial.ttf" font-size="10.00">+ set()</text>
<text text-anchor="start" x="7.5" y="-18.5" font-family="Arial.ttf" font-size="10.00">+ set()</text>
<text text-anchor="start" x="7.5" y="-7.5" font-family="Arial.ttf" font-size="10.00">and 49 more...</text>
</g>
<!-- Node1&#45;&gt;Node1 -->
<g id="edge1" class="edge"><title>Node1&#45;&gt;Node1</title>
<path fill="none" stroke="#404040" d="M80.6538,-205.371C90.599,-201.27 98,-182.812 98,-150 98,-127.698 94.5809,-112.027 89.2678,-102.989"/>
<polygon fill="none" stroke="#404040" points="89.2651,-102.986 82.1737,-101.678 80.6538,-94.6289 87.7453,-95.9372 89.2651,-102.986"/>
<text text-anchor="middle" x="126" y="-202.5" font-family="Arial.ttf" font-size="10.00"> +COLBFH</text>
<text text-anchor="middle" x="126" y="-191.5" font-family="Arial.ttf" font-size="10.00">+ZERO</text>
<text text-anchor="middle" x="126" y="-180.5" font-family="Arial.ttf" font-size="10.00">+BLUE</text>
<text text-anchor="middle" x="126" y="-169.5" font-family="Arial.ttf" font-size="10.00">+BLACK</text>
<text text-anchor="middle" x="126" y="-158.5" font-family="Arial.ttf" font-size="10.00">+RED</text>
<text text-anchor="middle" x="126" y="-147.5" font-family="Arial.ttf" font-size="10.00">+MAGENTA</text>
<text text-anchor="middle" x="126" y="-136.5" font-family="Arial.ttf" font-size="10.00">+GREEN</text>
<text text-anchor="middle" x="126" y="-125.5" font-family="Arial.ttf" font-size="10.00">+CYAN</text>
<text text-anchor="middle" x="126" y="-114.5" font-family="Arial.ttf" font-size="10.00">+GRAY</text>
<text text-anchor="middle" x="126" y="-103.5" font-family="Arial.ttf" font-size="10.00">+AXISX</text>
<text text-anchor="middle" x="126" y="-92.5" font-family="Arial.ttf" font-size="10.00">...</text>
</g>
</g>
</svg>
