<?xml version="1.0" encoding="UTF-8" standalone="no"?>
<!DOCTYPE svg PUBLIC "-//W3C//DTD SVG 1.1//EN"
 "http://www.w3.org/Graphics/SVG/1.1/DTD/svg11.dtd">
<!-- Generated by graphviz version 2.36.0 (20140111.2315)
 -->
<!-- Title: SLPolyline Pages: 1 -->
<svg width="72pt" height="140pt"
 viewBox="0.00 0.00 72.00 140.00" xmlns="http://www.w3.org/2000/svg" xmlns:xlink="http://www.w3.org/1999/xlink">
<g id="graph0" class="graph" transform="scale(1 1) rotate(0) translate(4 136)">
<title>SLPolyline</title>
<polygon fill="white" stroke="none" points="-4,4 -4,-136 68,-136 68,4 -4,4"/>
<!-- Node1 -->
<g id="node1" class="node"><title>Node1</title>
<polygon fill="#bfbfbf" stroke="black" points="0,-0.5 0,-19.5 64,-19.5 64,-0.5 0,-0.5"/>
<text text-anchor="middle" x="32" y="-7.5" font-family="Arial.ttf" font-size="10.00">SLPolyline</text>
</g>
<!-- Node2 -->
<g id="node2" class="node"><title>Node2</title>
<g id="a_node2"><a xlink:href="class_s_l_mesh.html" target="_top" xlink:title="An SLMesh object is a triangulated mesh that is drawn with one draw call. ">
<polygon fill="white" stroke="black" points="5.5,-56.5 5.5,-75.5 58.5,-75.5 58.5,-56.5 5.5,-56.5"/>
<text text-anchor="middle" x="32" y="-63.5" font-family="Arial.ttf" font-size="10.00">SLMesh</text>
</a>
</g>
</g>
<!-- Node2&#45;&gt;Node1 -->
<g id="edge1" class="edge"><title>Node2&#45;&gt;Node1</title>
<path fill="none" stroke="midnightblue" d="M32,-45.8045C32,-36.9102 32,-26.7798 32,-19.7511"/>
<polygon fill="midnightblue" stroke="midnightblue" points="28.5001,-46.083 32,-56.083 35.5001,-46.083 28.5001,-46.083"/>
</g>
<!-- Node3 -->
<g id="node3" class="node"><title>Node3</title>
<g id="a_node3"><a xlink:href="class_s_l_object.html" target="_top" xlink:title="Base class for all other classes. ">
<polygon fill="white" stroke="black" points="3,-112.5 3,-131.5 61,-131.5 61,-112.5 3,-112.5"/>
<text text-anchor="middle" x="32" y="-119.5" font-family="Arial.ttf" font-size="10.00">SLObject</text>
</a>
</g>
</g>
<!-- Node3&#45;&gt;Node2 -->
<g id="edge2" class="edge"><title>Node3&#45;&gt;Node2</title>
<path fill="none" stroke="midnightblue" d="M32,-101.805C32,-92.9102 32,-82.7798 32,-75.7511"/>
<polygon fill="midnightblue" stroke="midnightblue" points="28.5001,-102.083 32,-112.083 35.5001,-102.083 28.5001,-102.083"/>
</g>
</g>
</svg>
