<?xml version="1.0" encoding="UTF-8" standalone="no"?>
<!DOCTYPE svg PUBLIC "-//W3C//DTD SVG 1.1//EN"
 "http://www.w3.org/Graphics/SVG/1.1/DTD/svg11.dtd">
<!-- Generated by graphviz version 2.40.1 (20161225.0304)
 -->
<!-- Title: animation Pages: 1 -->
<svg width="156pt" height="223pt"
 viewBox="0.00 0.00 156.00 223.00" xmlns="http://www.w3.org/2000/svg" xmlns:xlink="http://www.w3.org/1999/xlink">
<g id="graph0" class="graph" transform="scale(1 1) rotate(0) translate(4 219)">
<title>animation</title>
<polygon fill="#ffffff" stroke="transparent" points="-4,4 -4,-219 152,-219 152,4 -4,4"/>
<g id="clust1" class="cluster">
<title>clusterdir_c00e61a199c5267ffd288abf753b240e</title>
<g id="a_clust1"><a xlink:href="dir_c00e61a199c5267ffd288abf753b240e.html" target="_top" xlink:title="source">
<polygon fill="#ddddee" stroke="#000000" points="8,-136 8,-207 84,-207 84,-136 8,-136"/>
<text text-anchor="middle" x="46" y="-195" font-family="Arial.ttf" font-size="10.00" fill="#000000">source</text>
</a>
</g>
</g>
<!-- dir_20999ecf66fabdffa5635b67d76459a0 -->
<g id="node1" class="node">
<title>dir_20999ecf66fabdffa5635b67d76459a0</title>
<g id="a_node1"><a xlink:href="dir_20999ecf66fabdffa5635b67d76459a0.html" target="_top" xlink:title="animation">
<polygon fill="#eeeeff" stroke="#000000" points="76,-180 16,-180 16,-144 76,-144 76,-180"/>
<text text-anchor="middle" x="46" y="-159.5" font-family="Arial.ttf" font-size="10.00" fill="#000000">animation</text>
</a>
</g>
</g>
<!-- dir_feb05a84b006804c97271b76df481b2f -->
<g id="node2" class="node">
<title>dir_feb05a84b006804c97271b76df481b2f</title>
<g id="a_node2"><a xlink:href="dir_feb05a84b006804c97271b76df481b2f.html" target="_top" xlink:title="math">
<polygon fill="none" stroke="#000000" points="111,-108 57,-108 57,-72 111,-72 111,-108"/>
<text text-anchor="middle" x="84" y="-87.5" font-family="Arial.ttf" font-size="10.00" fill="#000000">math</text>
</a>
</g>
</g>
<!-- dir_20999ecf66fabdffa5635b67d76459a0&#45;&gt;dir_feb05a84b006804c97271b76df481b2f -->
<g id="edge1" class="edge">
<title>dir_20999ecf66fabdffa5635b67d76459a0&#45;&gt;dir_feb05a84b006804c97271b76df481b2f</title>
<path fill="none" stroke="#000000" d="M55.589,-143.8314C59.8317,-135.7925 64.9121,-126.1666 69.596,-117.2918"/>
<polygon fill="#000000" stroke="#000000" points="72.7096,-118.8908 74.2819,-108.4133 66.5189,-115.6235 72.7096,-118.8908"/>
<g id="a_edge1&#45;headlabel"><a xlink:href="dir_000013_000017.html" target="_top" xlink:title="2">
<text text-anchor="middle" x="73.5428" y="-120.895" font-family="Arial.ttf" font-size="10.00" fill="#000000">2</text>
</a>
</g>
</g>
<!-- dir_93e124b5220b3242dbac8ba3ebf8046f -->
<g id="node3" class="node">
<title>dir_93e124b5220b3242dbac8ba3ebf8046f</title>
<g id="a_node3"><a xlink:href="dir_93e124b5220b3242dbac8ba3ebf8046f.html" target="_top" xlink:title="node">
<polygon fill="none" stroke="#000000" points="148,-180 94,-180 94,-144 148,-144 148,-180"/>
<text text-anchor="middle" x="121" y="-159.5" font-family="Arial.ttf" font-size="10.00" fill="#000000">node</text>
</a>
</g>
</g>
<!-- dir_20999ecf66fabdffa5635b67d76459a0&#45;&gt;dir_93e124b5220b3242dbac8ba3ebf8046f -->
<g id="edge2" class="edge">
<title>dir_20999ecf66fabdffa5635b67d76459a0&#45;&gt;dir_93e124b5220b3242dbac8ba3ebf8046f</title>
<path fill="none" stroke="#000000" d="M76.1758,-162C78.638,-162 81.1003,-162 83.5626,-162"/>
<polygon fill="#000000" stroke="#000000" points="83.6853,-165.5001 93.6852,-162 83.6852,-158.5001 83.6853,-165.5001"/>
<g id="a_edge2&#45;headlabel"><a xlink:href="dir_000013_000016.html" target="_top" xlink:title="2">
<text text-anchor="middle" x="80.0906" y="-165.8393" font-family="Arial.ttf" font-size="10.00" fill="#000000">2</text>
</a>
</g>
</g>
<!-- dir_6918290cd14828e2154ac01556db1bf0 -->
<g id="node4" class="node">
<title>dir_6918290cd14828e2154ac01556db1bf0</title>
<g id="a_node4"><a xlink:href="dir_6918290cd14828e2154ac01556db1bf0.html" target="_top" xlink:title="math">
<polygon fill="#ffffff" stroke="#ff0000" points="111,-36 57,-36 57,0 111,0 111,-36"/>
<text text-anchor="middle" x="84" y="-15.5" font-family="Arial.ttf" font-size="10.00" fill="#000000">math</text>
</a>
</g>
</g>
<!-- dir_20999ecf66fabdffa5635b67d76459a0&#45;&gt;dir_6918290cd14828e2154ac01556db1bf0 -->
<g id="edge3" class="edge">
<title>dir_20999ecf66fabdffa5635b67d76459a0&#45;&gt;dir_6918290cd14828e2154ac01556db1bf0</title>
<path fill="none" stroke="#000000" d="M43.4991,-143.9321C41.5989,-125.4098 40.4412,-96.0003 48,-72 51.0647,-62.269 56.4652,-52.6661 62.1657,-44.3181"/>
<polygon fill="#000000" stroke="#000000" points="65.077,-46.2657 68.1294,-36.1201 59.4163,-42.1477 65.077,-46.2657"/>
<g id="a_edge3&#45;headlabel"><a xlink:href="dir_000013_000010.html" target="_top" xlink:title="2">
<text text-anchor="middle" x="65.2584" y="-48.3428" font-family="Arial.ttf" font-size="10.00" fill="#000000">2</text>
</a>
</g>
</g>
<!-- dir_feb05a84b006804c97271b76df481b2f&#45;&gt;dir_6918290cd14828e2154ac01556db1bf0 -->
<g id="edge4" class="edge">
<title>dir_feb05a84b006804c97271b76df481b2f&#45;&gt;dir_6918290cd14828e2154ac01556db1bf0</title>
<path fill="none" stroke="#000000" d="M84,-71.8314C84,-64.131 84,-54.9743 84,-46.4166"/>
<polygon fill="#000000" stroke="#000000" points="87.5001,-46.4132 84,-36.4133 80.5001,-46.4133 87.5001,-46.4132"/>
<g id="a_edge4&#45;headlabel"><a xlink:href="dir_000017_000010.html" target="_top" xlink:title="4">
<text text-anchor="middle" x="90.3393" y="-47.5079" font-family="Arial.ttf" font-size="10.00" fill="#000000">4</text>
</a>
</g>
</g>
<!-- dir_93e124b5220b3242dbac8ba3ebf8046f&#45;&gt;dir_20999ecf66fabdffa5635b67d76459a0 -->
<g id="edge5" class="edge">
<title>dir_93e124b5220b3242dbac8ba3ebf8046f&#45;&gt;dir_20999ecf66fabdffa5635b67d76459a0</title>
<path fill="none" stroke="#000000" d="M93.6852,-162C91.223,-162 88.7607,-162 86.2984,-162"/>
<polygon fill="#000000" stroke="#000000" points="86.1758,-158.5001 76.1758,-162 86.1757,-165.5001 86.1758,-158.5001"/>
<g id="a_edge5&#45;headlabel"><a xlink:href="dir_000016_000013.html" target="_top" xlink:title="2">
<text text-anchor="middle" x="89.7704" y="-153.1607" font-family="Arial.ttf" font-size="10.00" fill="#000000">2</text>
</a>
</g>
</g>
<!-- dir_93e124b5220b3242dbac8ba3ebf8046f&#45;&gt;dir_feb05a84b006804c97271b76df481b2f -->
<g id="edge6" class="edge">
<title>dir_93e124b5220b3242dbac8ba3ebf8046f&#45;&gt;dir_feb05a84b006804c97271b76df481b2f</title>
<path fill="none" stroke="#000000" d="M111.6633,-143.8314C107.5757,-135.8771 102.6896,-126.369 98.1691,-117.5723"/>
<polygon fill="#000000" stroke="#000000" points="101.1461,-115.7078 93.4624,-108.4133 94.9201,-118.9074 101.1461,-115.7078"/>
<g id="a_edge6&#45;headlabel"><a xlink:href="dir_000016_000017.html" target="_top" xlink:title="1">
<text text-anchor="middle" x="105.3144" y="-115.1073" font-family="Arial.ttf" font-size="10.00" fill="#000000">1</text>
</a>
</g>
</g>
<!-- dir_93e124b5220b3242dbac8ba3ebf8046f&#45;&gt;dir_6918290cd14828e2154ac01556db1bf0 -->
<g id="edge7" class="edge">
<title>dir_93e124b5220b3242dbac8ba3ebf8046f&#45;&gt;dir_6918290cd14828e2154ac01556db1bf0</title>
<path fill="none" stroke="#000000" d="M123.7562,-143.9474C125.9055,-125.4374 127.424,-96.0375 120,-72 116.9894,-62.2521 111.6047,-52.6443 105.9021,-44.297"/>
<polygon fill="#000000" stroke="#000000" points="108.6482,-42.1223 99.9305,-36.1014 102.9907,-46.2447 108.6482,-42.1223"/>
<g id="a_edge7&#45;headlabel"><a xlink:href="dir_000016_000010.html" target="_top" xlink:title="5">
<text text-anchor="middle" x="113.0597" y="-40.8555" font-family="Arial.ttf" font-size="10.00" fill="#000000">5</text>
</a>
</g>
</g>
</g>
</svg>
