<?xml version="1.0" encoding="UTF-8" standalone="no"?>
<!DOCTYPE svg PUBLIC "-//W3C//DTD SVG 1.1//EN"
 "http://www.w3.org/Graphics/SVG/1.1/DTD/svg11.dtd">
<!-- Generated by graphviz version 8.0.5 (20230430.1635)
 -->
<!-- Title: math Pages: 1 -->
<svg width="150pt" height="168pt"
 viewBox="0.00 0.00 150.00 168.00" xmlns="http://www.w3.org/2000/svg" xmlns:xlink="http://www.w3.org/1999/xlink">
<g id="graph0" class="graph" transform="scale(1 1) rotate(0) translate(4 164)">
<title>math</title>
<polygon fill="white" stroke="none" points="-4,4 -4,-164 146,-164 146,4 -4,4"/>
<g id="clust1" class="cluster">
<title>clusterdir_c00e61a199c5267ffd288abf753b240e</title>
<g id="a_clust1"><a xlink:href="dir_c00e61a199c5267ffd288abf753b240e.html" target="_top" xlink:title="source">
<polygon fill="#edf0f7" stroke="#7f7f7f" stroke-dasharray="5,2" points="8,-8 8,-152 78,-152 78,-8 8,-8"/>
<text text-anchor="middle" x="43" y="-138.5" font-family="Arial" font-size="10.00">source</text>
</a>
</g>
</g>
<!-- dir_553558af1d34fd1199da83a700f168c2 -->
<g id="node1" class="node">
<title>dir_553558af1d34fd1199da83a700f168c2</title>
<g id="a_node1"><a xlink:href="dir_553558af1d34fd1199da83a700f168c2.html" target="_top" xlink:title="gl">
<polygon fill="#a2b4d6" stroke="#404040" points="70,-52 16,-52 16,-16 70,-16 70,-52"/>
<text text-anchor="middle" x="43" y="-30.5" font-family="Arial" font-size="10.00">gl</text>
</a>
</g>
</g>
<!-- dir_feb05a84b006804c97271b76df481b2f -->
<g id="node2" class="node">
<title>dir_feb05a84b006804c97271b76df481b2f</title>
<g id="a_node2"><a xlink:href="dir_feb05a84b006804c97271b76df481b2f.html" target="_top" xlink:title="math">
<polygon fill="#edf0f7" stroke="#404040" stroke-width="2" points="70,-124 16,-124 16,-88 70,-88 70,-124"/>
<text text-anchor="middle" x="43" y="-102.5" font-family="Arial" font-size="10.00">math</text>
</a>
</g>
</g>
<!-- dir_feb05a84b006804c97271b76df481b2f&#45;&gt;dir_553558af1d34fd1199da83a700f168c2 -->
<g id="edge1" class="edge">
<title>dir_feb05a84b006804c97271b76df481b2f&#45;&gt;dir_553558af1d34fd1199da83a700f168c2</title>
<path fill="none" stroke="black" d="M43,-87.7C43,-80.24 43,-71.32 43,-62.97"/>
<polygon fill="black" stroke="black" points="46.5,-63.1 43,-53.1 39.5,-63.1 46.5,-63.1"/>
<g id="a_edge1&#45;headlabel"><a xlink:href="dir_000010_000004.html" target="_top" xlink:title="3">
<text text-anchor="middle" x="49.34" y="-62.2" font-family="Arial" font-size="10.00">3</text>
</a>
</g>
</g>
<!-- dir_6918290cd14828e2154ac01556db1bf0 -->
<g id="node3" class="node">
<title>dir_6918290cd14828e2154ac01556db1bf0</title>
<g id="a_node3"><a xlink:href="dir_6918290cd14828e2154ac01556db1bf0.html" target="_top" xlink:title="math">
<polygon fill="none" stroke="red" stroke-dasharray="5,2" points="142,-52 88,-52 88,-16 142,-16 142,-52"/>
<text text-anchor="middle" x="115" y="-30.5" font-family="Arial" font-size="10.00">math</text>
</a>
</g>
</g>
<!-- dir_feb05a84b006804c97271b76df481b2f&#45;&gt;dir_6918290cd14828e2154ac01556db1bf0 -->
<g id="edge2" class="edge">
<title>dir_feb05a84b006804c97271b76df481b2f&#45;&gt;dir_6918290cd14828e2154ac01556db1bf0</title>
<path fill="none" stroke="black" d="M60.8,-87.7C69.45,-79.28 80.01,-69.02 89.5,-59.79"/>
<polygon fill="black" stroke="black" points="91.43,-62.83 96.16,-53.35 86.55,-57.81 91.43,-62.83"/>
<g id="a_edge2&#45;headlabel"><a xlink:href="dir_000010_000009.html" target="_top" xlink:title="6">
<text text-anchor="middle" x="91.83" y="-62.87" font-family="Arial" font-size="10.00">6</text>
</a>
</g>
</g>
</g>
</svg>
