<?xml version="1.0" encoding="UTF-8" standalone="no"?>
<!DOCTYPE svg PUBLIC "-//W3C//DTD SVG 1.1//EN"
 "http://www.w3.org/Graphics/SVG/1.1/DTD/svg11.dtd">
<!-- Generated by graphviz version 2.40.1 (20161225.0304)
 -->
<!-- Title: gl Pages: 1 -->
<svg width="404pt" height="404pt"
 viewBox="0.00 0.00 403.75 404.00" xmlns="http://www.w3.org/2000/svg" xmlns:xlink="http://www.w3.org/1999/xlink">
<g id="graph0" class="graph" transform="scale(1 1) rotate(0) translate(4 400)">
<title>gl</title>
<polygon fill="#ffffff" stroke="transparent" points="-4,4 -4,-400 399.7488,-400 399.7488,4 -4,4"/>
<g id="clust1" class="cluster">
<title>clusterdir_c00e61a199c5267ffd288abf753b240e</title>
<g id="a_clust1"><a xlink:href="dir_c00e61a199c5267ffd288abf753b240e.html" target="_top" xlink:title="source">
<polygon fill="#ddddee" stroke="#000000" points="130,-208 130,-279 200,-279 200,-208 130,-208"/>
<text text-anchor="middle" x="165" y="-267" font-family="Arial.ttf" font-size="10.00" fill="#000000">source</text>
</a>
</g>
</g>
<!-- dir_553558af1d34fd1199da83a700f168c2 -->
<g id="node1" class="node">
<title>dir_553558af1d34fd1199da83a700f168c2</title>
<g id="a_node1"><a xlink:href="dir_553558af1d34fd1199da83a700f168c2.html" target="_top" xlink:title="gl">
<polygon fill="#eeeeff" stroke="#000000" points="192,-252 138,-252 138,-216 192,-216 192,-252"/>
<text text-anchor="middle" x="165" y="-231.5" font-family="Arial.ttf" font-size="10.00" fill="#000000">gl</text>
</a>
</g>
</g>
<!-- dir_82af1faf97386bb160b7559934d10015 -->
<g id="node2" class="node">
<title>dir_82af1faf97386bb160b7559934d10015</title>
<g id="a_node2"><a xlink:href="dir_82af1faf97386bb160b7559934d10015.html" target="_top" xlink:title="mesh">
<polygon fill="none" stroke="#000000" points="285,-396 231,-396 231,-360 285,-360 285,-396"/>
<text text-anchor="middle" x="258" y="-375.5" font-family="Arial.ttf" font-size="10.00" fill="#000000">mesh</text>
</a>
</g>
</g>
<!-- dir_553558af1d34fd1199da83a700f168c2&#45;&gt;dir_82af1faf97386bb160b7559934d10015 -->
<g id="edge1" class="edge">
<title>dir_553558af1d34fd1199da83a700f168c2&#45;&gt;dir_82af1faf97386bb160b7559934d10015</title>
<path fill="none" stroke="#000000" d="M176.2324,-252.0087C187.6405,-270.2342 205.8748,-299.1872 222,-324 227.7416,-332.835 234.0923,-342.421 239.841,-351.0304"/>
<polygon fill="#000000" stroke="#000000" points="237.091,-353.2142 245.5629,-359.5764 242.9076,-349.3197 237.091,-353.2142"/>
<g id="a_edge1&#45;headlabel"><a xlink:href="dir_000009_000014.html" target="_top" xlink:title="2">
<text text-anchor="middle" x="232.7319" y="-349.307" font-family="Arial.ttf" font-size="10.00" fill="#000000">2</text>
</a>
</g>
</g>
<!-- dir_988a836c5edacbff35209f5e3b19b79d -->
<g id="node3" class="node">
<title>dir_988a836c5edacbff35209f5e3b19b79d</title>
<g id="a_node3"><a xlink:href="dir_988a836c5edacbff35209f5e3b19b79d.html" target="_top" xlink:title="cv">
<polygon fill="none" stroke="#000000" points="82,-180 28,-180 28,-144 82,-144 82,-180"/>
<text text-anchor="middle" x="55" y="-159.5" font-family="Arial.ttf" font-size="10.00" fill="#000000">cv</text>
</a>
</g>
</g>
<!-- dir_553558af1d34fd1199da83a700f168c2&#45;&gt;dir_988a836c5edacbff35209f5e3b19b79d -->
<g id="edge2" class="edge">
<title>dir_553558af1d34fd1199da83a700f168c2&#45;&gt;dir_988a836c5edacbff35209f5e3b19b79d</title>
<path fill="none" stroke="#000000" d="M137.809,-216.2022C123.6622,-206.9425 106.1843,-195.5025 90.937,-185.5224"/>
<polygon fill="#000000" stroke="#000000" points="92.5433,-182.3907 82.2594,-179.8425 88.7097,-188.2476 92.5433,-182.3907"/>
<g id="a_edge2&#45;headlabel"><a xlink:href="dir_000009_000008.html" target="_top" xlink:title="4">
<text text-anchor="middle" x="97.1058" y="-179.4837" font-family="Arial.ttf" font-size="10.00" fill="#000000">4</text>
</a>
</g>
</g>
<!-- dir_2cd352c31e16031ace7077fb0dbfbf02 -->
<g id="node4" class="node">
<title>dir_2cd352c31e16031ace7077fb0dbfbf02</title>
<g id="a_node4"><a xlink:href="dir_2cd352c31e16031ace7077fb0dbfbf02.html" target="_top" xlink:title="utils">
<polygon fill="#ffffff" stroke="#ff0000" points="211,-36 157,-36 157,0 211,0 211,-36"/>
<text text-anchor="middle" x="184" y="-15.5" font-family="Arial.ttf" font-size="10.00" fill="#000000">utils</text>
</a>
</g>
</g>
<!-- dir_553558af1d34fd1199da83a700f168c2&#45;&gt;dir_2cd352c31e16031ace7077fb0dbfbf02 -->
<g id="edge3" class="edge">
<title>dir_553558af1d34fd1199da83a700f168c2&#45;&gt;dir_2cd352c31e16031ace7077fb0dbfbf02</title>
<path fill="none" stroke="#000000" d="M159.4554,-215.7012C156.6035,-205.3353 153.4319,-192.0653 152,-180 146.3601,-132.4762 161.6824,-78.0468 173.0269,-45.9256"/>
<polygon fill="#000000" stroke="#000000" points="176.393,-46.9114 176.5387,-36.3176 169.8184,-44.5083 176.393,-46.9114"/>
<g id="a_edge3&#45;headlabel"><a xlink:href="dir_000009_000001.html" target="_top" xlink:title="6">
<text text-anchor="middle" x="177.8257" y="-48.7623" font-family="Arial.ttf" font-size="10.00" fill="#000000">6</text>
</a>
</g>
</g>
<!-- dir_6e45a42390aa22e1749109a5b640e5fb -->
<g id="node5" class="node">
<title>dir_6e45a42390aa22e1749109a5b640e5fb</title>
<g id="a_node5"><a xlink:href="dir_6e45a42390aa22e1749109a5b640e5fb.html" target="_top" xlink:title="input">
<polygon fill="none" stroke="#000000" points="285,-324 231,-324 231,-288 285,-288 285,-324"/>
<text text-anchor="middle" x="258" y="-303.5" font-family="Arial.ttf" font-size="10.00" fill="#000000">input</text>
</a>
</g>
</g>
<!-- dir_553558af1d34fd1199da83a700f168c2&#45;&gt;dir_6e45a42390aa22e1749109a5b640e5fb -->
<g id="edge4" class="edge">
<title>dir_553558af1d34fd1199da83a700f168c2&#45;&gt;dir_6e45a42390aa22e1749109a5b640e5fb</title>
<path fill="none" stroke="#000000" d="M170.833,-252.062C177.3078,-260.8994 186.9451,-271.2702 197,-279 204.3438,-284.6456 213.0427,-289.6911 221.6085,-293.8491"/>
<polygon fill="#000000" stroke="#000000" points="220.2269,-297.0656 230.7806,-297.9991 223.1125,-290.688 220.2269,-297.0656"/>
<g id="a_edge4&#45;headlabel"><a xlink:href="dir_000009_000015.html" target="_top" xlink:title="5">
<text text-anchor="middle" x="215.7816" y="-295.6707" font-family="Arial.ttf" font-size="10.00" fill="#000000">5</text>
</a>
</g>
</g>
<!-- dir_feb05a84b006804c97271b76df481b2f -->
<g id="node6" class="node">
<title>dir_feb05a84b006804c97271b76df481b2f</title>
<g id="a_node6"><a xlink:href="dir_feb05a84b006804c97271b76df481b2f.html" target="_top" xlink:title="math">
<polygon fill="none" stroke="#000000" points="230,-180 176,-180 176,-144 230,-144 230,-180"/>
<text text-anchor="middle" x="203" y="-159.5" font-family="Arial.ttf" font-size="10.00" fill="#000000">math</text>
</a>
</g>
</g>
<!-- dir_553558af1d34fd1199da83a700f168c2&#45;&gt;dir_feb05a84b006804c97271b76df481b2f -->
<g id="edge5" class="edge">
<title>dir_553558af1d34fd1199da83a700f168c2&#45;&gt;dir_feb05a84b006804c97271b76df481b2f</title>
<path fill="none" stroke="#000000" d="M168.6366,-215.8314C172.1324,-207.7079 177.0727,-197.9637 182.1844,-189.0118"/>
<polygon fill="#000000" stroke="#000000" points="185.1955,-190.7958 187.3059,-180.4133 179.1815,-187.2137 185.1955,-190.7958"/>
<g id="a_edge5&#45;headlabel"><a xlink:href="dir_000009_000017.html" target="_top" xlink:title="1">
<text text-anchor="middle" x="185.7954" y="-192.837" font-family="Arial.ttf" font-size="10.00" fill="#000000">1</text>
</a>
</g>
</g>
<!-- dir_93e124b5220b3242dbac8ba3ebf8046f -->
<g id="node7" class="node">
<title>dir_93e124b5220b3242dbac8ba3ebf8046f</title>
<g id="a_node7"><a xlink:href="dir_93e124b5220b3242dbac8ba3ebf8046f.html" target="_top" xlink:title="node">
<polygon fill="none" stroke="#000000" points="378,-252 324,-252 324,-216 378,-216 378,-252"/>
<text text-anchor="middle" x="351" y="-231.5" font-family="Arial.ttf" font-size="10.00" fill="#000000">node</text>
</a>
</g>
</g>
<!-- dir_553558af1d34fd1199da83a700f168c2&#45;&gt;dir_93e124b5220b3242dbac8ba3ebf8046f -->
<g id="edge6" class="edge">
<title>dir_553558af1d34fd1199da83a700f168c2&#45;&gt;dir_93e124b5220b3242dbac8ba3ebf8046f</title>
<path fill="none" stroke="#000000" d="M192.2461,-234C232.7307,-234 273.2154,-234 313.7,-234"/>
<polygon fill="#000000" stroke="#000000" points="313.7142,-237.5001 323.7142,-234 313.7141,-230.5001 313.7142,-237.5001"/>
<g id="a_edge6&#45;headlabel"><a xlink:href="dir_000009_000016.html" target="_top" xlink:title="5">
<text text-anchor="middle" x="310.1196" y="-237.8393" font-family="Arial.ttf" font-size="10.00" fill="#000000">5</text>
</a>
</g>
</g>
<!-- dir_6918290cd14828e2154ac01556db1bf0 -->
<g id="node8" class="node">
<title>dir_6918290cd14828e2154ac01556db1bf0</title>
<g id="a_node8"><a xlink:href="dir_6918290cd14828e2154ac01556db1bf0.html" target="_top" xlink:title="math">
<polygon fill="#ffffff" stroke="#ff0000" points="340,-108 286,-108 286,-72 340,-72 340,-108"/>
<text text-anchor="middle" x="313" y="-87.5" font-family="Arial.ttf" font-size="10.00" fill="#000000">math</text>
</a>
</g>
</g>
<!-- dir_553558af1d34fd1199da83a700f168c2&#45;&gt;dir_6918290cd14828e2154ac01556db1bf0 -->
<g id="edge7" class="edge">
<title>dir_553558af1d34fd1199da83a700f168c2&#45;&gt;dir_6918290cd14828e2154ac01556db1bf0</title>
<path fill="none" stroke="#000000" d="M159.9036,-215.9278C155.5261,-196.3156 152.0296,-164.9973 167,-144 179.9618,-125.82 237.0151,-108.6119 275.8426,-98.695"/>
<polygon fill="#000000" stroke="#000000" points="276.9166,-102.0343 285.7706,-96.2156 275.2205,-95.2429 276.9166,-102.0343"/>
<g id="a_edge7&#45;headlabel"><a xlink:href="dir_000009_000010.html" target="_top" xlink:title="10">
<text text-anchor="middle" x="274.117" y="-103.1599" font-family="Arial.ttf" font-size="10.00" fill="#000000">10</text>
</a>
</g>
</g>
<!-- dir_82af1faf97386bb160b7559934d10015&#45;&gt;dir_553558af1d34fd1199da83a700f168c2 -->
<g id="edge9" class="edge">
<title>dir_82af1faf97386bb160b7559934d10015&#45;&gt;dir_553558af1d34fd1199da83a700f168c2</title>
<path fill="none" stroke="#000000" d="M230.7673,-359.8985C218.3721,-350.468 204.4046,-337.9867 195,-324 182.4191,-305.2896 174.7148,-280.8541 170.2692,-262.1667"/>
<polygon fill="#000000" stroke="#000000" points="173.6392,-261.1956 168.0701,-252.1825 166.8031,-262.7013 173.6392,-261.1956"/>
<g id="a_edge9&#45;headlabel"><a xlink:href="dir_000014_000009.html" target="_top" xlink:title="1">
<text text-anchor="middle" x="177.1851" y="-261.5953" font-family="Arial.ttf" font-size="10.00" fill="#000000">1</text>
</a>
</g>
</g>
<!-- dir_82af1faf97386bb160b7559934d10015&#45;&gt;dir_2cd352c31e16031ace7077fb0dbfbf02 -->
<g id="edge10" class="edge">
<title>dir_82af1faf97386bb160b7559934d10015&#45;&gt;dir_2cd352c31e16031ace7077fb0dbfbf02</title>
<path fill="none" stroke="#000000" d="M230.8771,-375.5977C164.6366,-368.0963 0,-338.9006 0,-234 0,-234 0,-234 0,-162 0,-87.9166 93.6474,-46.2476 147.3243,-28.4484"/>
<polygon fill="#000000" stroke="#000000" points="148.3926,-31.7815 156.8502,-25.4003 146.2592,-25.1145 148.3926,-31.7815"/>
<g id="a_edge10&#45;headlabel"><a xlink:href="dir_000014_000001.html" target="_top" xlink:title="1">
<text text-anchor="middle" x="145.8342" y="-33.0811" font-family="Arial.ttf" font-size="10.00" fill="#000000">1</text>
</a>
</g>
</g>
<!-- dir_82af1faf97386bb160b7559934d10015&#45;&gt;dir_6e45a42390aa22e1749109a5b640e5fb -->
<g id="edge11" class="edge">
<title>dir_82af1faf97386bb160b7559934d10015&#45;&gt;dir_6e45a42390aa22e1749109a5b640e5fb</title>
<path fill="none" stroke="#000000" d="M252.0476,-359.8314C251.2972,-352.131 251.0763,-342.9743 251.3849,-334.4166"/>
<polygon fill="#000000" stroke="#000000" points="254.8792,-334.6161 252.024,-324.4133 247.8935,-334.1697 254.8792,-334.6161"/>
<g id="a_edge11&#45;headlabel"><a xlink:href="dir_000014_000015.html" target="_top" xlink:title="1">
<text text-anchor="middle" x="257.4836" y="-335.8844" font-family="Arial.ttf" font-size="10.00" fill="#000000">1</text>
</a>
</g>
</g>
<!-- dir_82af1faf97386bb160b7559934d10015&#45;&gt;dir_93e124b5220b3242dbac8ba3ebf8046f -->
<g id="edge12" class="edge">
<title>dir_82af1faf97386bb160b7559934d10015&#45;&gt;dir_93e124b5220b3242dbac8ba3ebf8046f</title>
<path fill="none" stroke="#000000" d="M262.5102,-359.5764C268.4221,-349.1714 277.2639,-335.904 285,-324 298.8576,-302.6765 314.2728,-278.2953 326.9692,-260.2926"/>
<polygon fill="#000000" stroke="#000000" points="329.937,-262.1616 332.9649,-252.0087 324.2664,-258.0574 329.937,-262.1616"/>
<g id="a_edge12&#45;headlabel"><a xlink:href="dir_000014_000016.html" target="_top" xlink:title="3">
<text text-anchor="middle" x="330.1296" y="-264.2383" font-family="Arial.ttf" font-size="10.00" fill="#000000">3</text>
</a>
</g>
</g>
<!-- dir_82af1faf97386bb160b7559934d10015&#45;&gt;dir_6918290cd14828e2154ac01556db1bf0 -->
<g id="edge13" class="edge">
<title>dir_82af1faf97386bb160b7559934d10015&#45;&gt;dir_6918290cd14828e2154ac01556db1bf0</title>
<path fill="none" stroke="#000000" d="M285.2588,-366.296C316.4395,-351.2292 365.8999,-321.7908 387,-279 414.8178,-222.586 367.8655,-152.9552 336.888,-115.9661"/>
<polygon fill="#000000" stroke="#000000" points="339.3455,-113.4558 330.1728,-108.1536 334.037,-118.0187 339.3455,-113.4558"/>
<g id="a_edge13&#45;headlabel"><a xlink:href="dir_000014_000010.html" target="_top" xlink:title="1">
<text text-anchor="middle" x="343.8417" y="-111.831" font-family="Arial.ttf" font-size="10.00" fill="#000000">1</text>
</a>
</g>
</g>
<!-- dir_988a836c5edacbff35209f5e3b19b79d&#45;&gt;dir_2cd352c31e16031ace7077fb0dbfbf02 -->
<g id="edge8" class="edge">
<title>dir_988a836c5edacbff35209f5e3b19b79d&#45;&gt;dir_2cd352c31e16031ace7077fb0dbfbf02</title>
<path fill="none" stroke="#000000" d="M59.8534,-143.6577C65.7684,-124.0992 77.3494,-93.0966 96,-72 110.1244,-56.0232 130.126,-43.2338 147.4919,-34.1197"/>
<polygon fill="#000000" stroke="#000000" points="149.449,-37.0534 156.8144,-29.4375 146.3072,-30.798 149.449,-37.0534"/>
<g id="a_edge8&#45;headlabel"><a xlink:href="dir_000008_000001.html" target="_top" xlink:title="14">
<text text-anchor="middle" x="147.5111" y="-38.7039" font-family="Arial.ttf" font-size="10.00" fill="#000000">14</text>
</a>
</g>
</g>
<!-- dir_6e45a42390aa22e1749109a5b640e5fb&#45;&gt;dir_553558af1d34fd1199da83a700f168c2 -->
<g id="edge14" class="edge">
<title>dir_6e45a42390aa22e1749109a5b640e5fb&#45;&gt;dir_553558af1d34fd1199da83a700f168c2</title>
<path fill="none" stroke="#000000" d="M230.8915,-289.4512C225.4468,-286.2943 219.9194,-282.7818 215,-279 207.6159,-273.3235 200.4571,-266.2226 193.8763,-259.3507"/>
<polygon fill="#000000" stroke="#000000" points="196.3947,-256.9198 186.9791,-252.062 191.3103,-261.7311 196.3947,-256.9198"/>
<g id="a_edge14&#45;headlabel"><a xlink:href="dir_000015_000009.html" target="_top" xlink:title="3">
<text text-anchor="middle" x="200.9276" y="-255.0791" font-family="Arial.ttf" font-size="10.00" fill="#000000">3</text>
</a>
</g>
</g>
<!-- dir_6e45a42390aa22e1749109a5b640e5fb&#45;&gt;dir_82af1faf97386bb160b7559934d10015 -->
<g id="edge16" class="edge">
<title>dir_6e45a42390aa22e1749109a5b640e5fb&#45;&gt;dir_82af1faf97386bb160b7559934d10015</title>
<path fill="none" stroke="#000000" d="M263.976,-324.4133C264.7071,-332.0593 264.9203,-341.1084 264.6155,-349.5726"/>
<polygon fill="#000000" stroke="#000000" points="261.1048,-349.6264 263.9524,-359.8314 268.0902,-350.078 261.1048,-349.6264"/>
<g id="a_edge16&#45;headlabel"><a xlink:href="dir_000015_000014.html" target="_top" xlink:title="2">
<text text-anchor="middle" x="258.5032" y="-343.3562" font-family="Arial.ttf" font-size="10.00" fill="#000000">2</text>
</a>
</g>
</g>
<!-- dir_6e45a42390aa22e1749109a5b640e5fb&#45;&gt;dir_988a836c5edacbff35209f5e3b19b79d -->
<g id="edge15" class="edge">
<title>dir_6e45a42390aa22e1749109a5b640e5fb&#45;&gt;dir_988a836c5edacbff35209f5e3b19b79d</title>
<path fill="none" stroke="#000000" d="M230.8782,-303.0353C197.3239,-298.9323 142.5906,-290.6837 126,-279 94.9939,-257.1644 75.0517,-217.0764 64.43,-189.9838"/>
<polygon fill="#000000" stroke="#000000" points="67.591,-188.4438 60.8118,-180.3017 61.0338,-190.8942 67.591,-188.4438"/>
<g id="a_edge15&#45;headlabel"><a xlink:href="dir_000015_000008.html" target="_top" xlink:title="1">
<text text-anchor="middle" x="71.5088" y="-188.3171" font-family="Arial.ttf" font-size="10.00" fill="#000000">1</text>
</a>
</g>
</g>
<!-- dir_6e45a42390aa22e1749109a5b640e5fb&#45;&gt;dir_2cd352c31e16031ace7077fb0dbfbf02 -->
<g id="edge17" class="edge">
<title>dir_6e45a42390aa22e1749109a5b640e5fb&#45;&gt;dir_2cd352c31e16031ace7077fb0dbfbf02</title>
<path fill="none" stroke="#000000" d="M257.5999,-287.6912C256.5509,-257.324 252.7525,-194.844 239,-144 229.427,-108.608 211.5399,-70.3235 198.7629,-45.3603"/>
<polygon fill="#000000" stroke="#000000" points="201.6971,-43.4167 193.9763,-36.1614 195.4874,-46.6479 201.6971,-43.4167"/>
<g id="a_edge17&#45;headlabel"><a xlink:href="dir_000015_000001.html" target="_top" xlink:title="4">
<text text-anchor="middle" x="205.875" y="-42.7948" font-family="Arial.ttf" font-size="10.00" fill="#000000">4</text>
</a>
</g>
</g>
<!-- dir_6e45a42390aa22e1749109a5b640e5fb&#45;&gt;dir_feb05a84b006804c97271b76df481b2f -->
<g id="edge18" class="edge">
<title>dir_6e45a42390aa22e1749109a5b640e5fb&#45;&gt;dir_feb05a84b006804c97271b76df481b2f</title>
<path fill="none" stroke="#000000" d="M248.1557,-287.8688C246.6925,-284.9367 245.2562,-281.9084 244,-279 231.1391,-249.2228 219.2121,-213.9593 211.5761,-189.9874"/>
<polygon fill="#000000" stroke="#000000" points="214.8184,-188.6304 208.4789,-180.1414 208.1409,-190.7309 214.8184,-188.6304"/>
<g id="a_edge18&#45;headlabel"><a xlink:href="dir_000015_000017.html" target="_top" xlink:title="1">
<text text-anchor="middle" x="218.6053" y="-188.7074" font-family="Arial.ttf" font-size="10.00" fill="#000000">1</text>
</a>
</g>
</g>
<!-- dir_6e45a42390aa22e1749109a5b640e5fb&#45;&gt;dir_93e124b5220b3242dbac8ba3ebf8046f -->
<g id="edge19" class="edge">
<title>dir_6e45a42390aa22e1749109a5b640e5fb&#45;&gt;dir_93e124b5220b3242dbac8ba3ebf8046f</title>
<path fill="none" stroke="#000000" d="M285.1085,-289.4512C290.5532,-286.2943 296.0806,-282.7818 301,-279 308.3841,-273.3235 315.5429,-266.2226 322.1237,-259.3507"/>
<polygon fill="#000000" stroke="#000000" points="324.6897,-261.7311 329.0209,-252.062 319.6053,-256.9198 324.6897,-261.7311"/>
<g id="a_edge19&#45;headlabel"><a xlink:href="dir_000015_000016.html" target="_top" xlink:title="1">
<text text-anchor="middle" x="324.2813" y="-263.7935" font-family="Arial.ttf" font-size="10.00" fill="#000000">1</text>
</a>
</g>
</g>
<!-- dir_6e45a42390aa22e1749109a5b640e5fb&#45;&gt;dir_6918290cd14828e2154ac01556db1bf0 -->
<g id="edge20" class="edge">
<title>dir_6e45a42390aa22e1749109a5b640e5fb&#45;&gt;dir_6918290cd14828e2154ac01556db1bf0</title>
<path fill="none" stroke="#000000" d="M268.164,-287.9953C269.5858,-285.0468 270.9256,-281.9804 272,-279 291.8977,-223.8034 303.735,-155.8955 309.2446,-118.3499"/>
<polygon fill="#000000" stroke="#000000" points="312.7507,-118.5533 310.6928,-108.1603 305.8204,-117.5682 312.7507,-118.5533"/>
<g id="a_edge20&#45;headlabel"><a xlink:href="dir_000015_000010.html" target="_top" xlink:title="2">
<text text-anchor="middle" x="315.056" y="-120.0117" font-family="Arial.ttf" font-size="10.00" fill="#000000">2</text>
</a>
</g>
</g>
<!-- dir_feb05a84b006804c97271b76df481b2f&#45;&gt;dir_553558af1d34fd1199da83a700f168c2 -->
<g id="edge21" class="edge">
<title>dir_feb05a84b006804c97271b76df481b2f&#45;&gt;dir_553558af1d34fd1199da83a700f168c2</title>
<path fill="none" stroke="#000000" d="M199.2579,-180.4133C195.77,-188.484 190.88,-198.1182 185.8218,-206.9775"/>
<polygon fill="#000000" stroke="#000000" points="182.6576,-205.45 180.5414,-215.8314 188.6696,-209.0355 182.6576,-205.45"/>
<g id="a_edge21&#45;headlabel"><a xlink:href="dir_000017_000009.html" target="_top" xlink:title="3">
<text text-anchor="middle" x="182.0602" y="-198.4085" font-family="Arial.ttf" font-size="10.00" fill="#000000">3</text>
</a>
</g>
</g>
<!-- dir_feb05a84b006804c97271b76df481b2f&#45;&gt;dir_6918290cd14828e2154ac01556db1bf0 -->
<g id="edge22" class="edge">
<title>dir_feb05a84b006804c97271b76df481b2f&#45;&gt;dir_6918290cd14828e2154ac01556db1bf0</title>
<path fill="none" stroke="#000000" d="M230.191,-144.2022C244.3378,-134.9425 261.8157,-123.5025 277.063,-113.5224"/>
<polygon fill="#000000" stroke="#000000" points="279.2903,-116.2476 285.7406,-107.8425 275.4567,-110.3907 279.2903,-116.2476"/>
<g id="a_edge22&#45;headlabel"><a xlink:href="dir_000017_000010.html" target="_top" xlink:title="4">
<text text-anchor="middle" x="277.8377" y="-118.0918" font-family="Arial.ttf" font-size="10.00" fill="#000000">4</text>
</a>
</g>
</g>
<!-- dir_93e124b5220b3242dbac8ba3ebf8046f&#45;&gt;dir_553558af1d34fd1199da83a700f168c2 -->
<g id="edge23" class="edge">
<title>dir_93e124b5220b3242dbac8ba3ebf8046f&#45;&gt;dir_553558af1d34fd1199da83a700f168c2</title>
<path fill="none" stroke="#000000" d="M323.7142,-234C283.2295,-234 242.7449,-234 202.2603,-234"/>
<polygon fill="#000000" stroke="#000000" points="202.2461,-230.5001 192.2461,-234 202.2461,-237.5001 202.2461,-230.5001"/>
<g id="a_edge23&#45;headlabel"><a xlink:href="dir_000016_000009.html" target="_top" xlink:title="10">
<text text-anchor="middle" x="205.8407" y="-225.1607" font-family="Arial.ttf" font-size="10.00" fill="#000000">10</text>
</a>
</g>
</g>
<!-- dir_93e124b5220b3242dbac8ba3ebf8046f&#45;&gt;dir_82af1faf97386bb160b7559934d10015 -->
<g id="edge24" class="edge">
<title>dir_93e124b5220b3242dbac8ba3ebf8046f&#45;&gt;dir_82af1faf97386bb160b7559934d10015</title>
<path fill="none" stroke="#000000" d="M346.5704,-252.0087C337.3595,-270.2342 319.1252,-299.1872 303,-324 297.198,-332.928 290.7739,-342.6229 284.525,-351.302"/>
<polygon fill="#000000" stroke="#000000" points="281.5289,-349.4653 278.364,-359.5764 287.1435,-353.6458 281.5289,-349.4653"/>
<g id="a_edge24&#45;headlabel"><a xlink:href="dir_000016_000014.html" target="_top" xlink:title="12">
<text text-anchor="middle" x="281.3983" y="-342.3865" font-family="Arial.ttf" font-size="10.00" fill="#000000">12</text>
</a>
</g>
</g>
<!-- dir_93e124b5220b3242dbac8ba3ebf8046f&#45;&gt;dir_2cd352c31e16031ace7077fb0dbfbf02 -->
<g id="edge25" class="edge">
<title>dir_93e124b5220b3242dbac8ba3ebf8046f&#45;&gt;dir_2cd352c31e16031ace7077fb0dbfbf02</title>
<path fill="none" stroke="#000000" d="M356.9773,-215.838C366.4123,-183.4465 380.6326,-115.0741 349,-72 333.7221,-51.1962 265.0344,-34.0589 221.2397,-24.9938"/>
<polygon fill="#000000" stroke="#000000" points="221.7221,-21.5206 211.2271,-22.9715 220.3362,-28.3821 221.7221,-21.5206"/>
<g id="a_edge25&#45;headlabel"><a xlink:href="dir_000016_000001.html" target="_top" xlink:title="1">
<text text-anchor="middle" x="225.8077" y="-16.9491" font-family="Arial.ttf" font-size="10.00" fill="#000000">1</text>
</a>
</g>
</g>
<!-- dir_93e124b5220b3242dbac8ba3ebf8046f&#45;&gt;dir_6e45a42390aa22e1749109a5b640e5fb -->
<g id="edge26" class="edge">
<title>dir_93e124b5220b3242dbac8ba3ebf8046f&#45;&gt;dir_6e45a42390aa22e1749109a5b640e5fb</title>
<path fill="none" stroke="#000000" d="M345.167,-252.062C338.6922,-260.8994 329.0549,-271.2702 319,-279 311.6562,-284.6456 302.9573,-289.6911 294.3915,-293.8491"/>
<polygon fill="#000000" stroke="#000000" points="292.8875,-290.688 285.2194,-297.9991 295.7731,-297.0656 292.8875,-290.688"/>
<g id="a_edge26&#45;headlabel"><a xlink:href="dir_000016_000015.html" target="_top" xlink:title="3">
<text text-anchor="middle" x="294.992" y="-284.1195" font-family="Arial.ttf" font-size="10.00" fill="#000000">3</text>
</a>
</g>
</g>
<!-- dir_93e124b5220b3242dbac8ba3ebf8046f&#45;&gt;dir_feb05a84b006804c97271b76df481b2f -->
<g id="edge27" class="edge">
<title>dir_93e124b5220b3242dbac8ba3ebf8046f&#45;&gt;dir_feb05a84b006804c97271b76df481b2f</title>
<path fill="none" stroke="#000000" d="M323.8545,-220.7941C300.1456,-209.26 265.536,-192.4229 239.4236,-179.7196"/>
<polygon fill="#000000" stroke="#000000" points="240.7471,-176.4713 230.2236,-175.2439 237.6848,-182.7659 240.7471,-176.4713"/>
<g id="a_edge27&#45;headlabel"><a xlink:href="dir_000016_000017.html" target="_top" xlink:title="1">
<text text-anchor="middle" x="245.2216" y="-172.9906" font-family="Arial.ttf" font-size="10.00" fill="#000000">1</text>
</a>
</g>
</g>
<!-- dir_93e124b5220b3242dbac8ba3ebf8046f&#45;&gt;dir_6918290cd14828e2154ac01556db1bf0 -->
<g id="edge28" class="edge">
<title>dir_93e124b5220b3242dbac8ba3ebf8046f&#45;&gt;dir_6918290cd14828e2154ac01556db1bf0</title>
<path fill="none" stroke="#000000" d="M346.1873,-215.7623C339.6773,-191.0928 328.0047,-146.8598 320.3818,-117.9731"/>
<polygon fill="#000000" stroke="#000000" points="323.7094,-116.8656 317.7736,-108.0896 316.9411,-118.6517 323.7094,-116.8656"/>
<g id="a_edge28&#45;headlabel"><a xlink:href="dir_000016_000010.html" target="_top" xlink:title="5">
<text text-anchor="middle" x="327.3718" y="-117.1168" font-family="Arial.ttf" font-size="10.00" fill="#000000">5</text>
</a>
</g>
</g>
<!-- dir_6918290cd14828e2154ac01556db1bf0&#45;&gt;dir_2cd352c31e16031ace7077fb0dbfbf02 -->
<g id="edge29" class="edge">
<title>dir_6918290cd14828e2154ac01556db1bf0&#45;&gt;dir_2cd352c31e16031ace7077fb0dbfbf02</title>
<path fill="none" stroke="#000000" d="M285.9574,-74.9064C266.779,-64.2022 240.8392,-49.7242 219.924,-38.0506"/>
<polygon fill="#000000" stroke="#000000" points="221.4448,-34.8912 211.007,-33.0737 218.0332,-41.0036 221.4448,-34.8912"/>
<g id="a_edge29&#45;headlabel"><a xlink:href="dir_000010_000001.html" target="_top" xlink:title="6">
<text text-anchor="middle" x="225.9674" y="-31.6638" font-family="Arial.ttf" font-size="10.00" fill="#000000">6</text>
</a>
</g>
</g>
</g>
</svg>
