<?xml version="1.0" encoding="UTF-8" standalone="no"?>
<!DOCTYPE svg PUBLIC "-//W3C//DTD SVG 1.1//EN"
 "http://www.w3.org/Graphics/SVG/1.1/DTD/svg11.dtd">
<!-- Generated by graphviz version 2.40.1 (20161225.0304)
 -->
<!-- Title: SL Pages: 1 -->
<svg width="138pt" height="151pt"
 viewBox="0.00 0.00 137.50 151.00" xmlns="http://www.w3.org/2000/svg" xmlns:xlink="http://www.w3.org/1999/xlink">
<g id="graph0" class="graph" transform="scale(1 1) rotate(0) translate(4 147)">
<title>SL</title>
<polygon fill="#ffffff" stroke="transparent" points="-4,4 -4,-147 133.5,-147 133.5,4 -4,4"/>
<g id="clust1" class="cluster">
<title>clusterdir_bf13ebcdd7dde255dd97100a2a47e46b</title>
<g id="a_clust1"><a xlink:href="dir_bf13ebcdd7dde255dd97100a2a47e46b.html" target="_top" xlink:title="include">
<polygon fill="#ddddee" stroke="#000000" points="29,-64 29,-135 99,-135 99,-64 29,-64"/>
<text text-anchor="middle" x="64" y="-123" font-family="Arial.ttf" font-size="10.00" fill="#000000">include</text>
</a>
</g>
</g>
<!-- dir_995213cfab64f8234646d5bd11b8fab8 -->
<g id="node1" class="node">
<title>dir_995213cfab64f8234646d5bd11b8fab8</title>
<g id="a_node1"><a xlink:href="dir_995213cfab64f8234646d5bd11b8fab8.html" target="_top" xlink:title="SL">
<polygon fill="#eeeeff" stroke="#000000" points="91,-108 37,-108 37,-72 91,-72 91,-108"/>
<text text-anchor="middle" x="64" y="-87.5" font-family="Arial.ttf" font-size="10.00" fill="#000000">SL</text>
</a>
</g>
</g>
<!-- dir_7c5894193bfde0f77d926baf6f1ff70b -->
<g id="node2" class="node">
<title>dir_7c5894193bfde0f77d926baf6f1ff70b</title>
<g id="a_node2"><a xlink:href="dir_7c5894193bfde0f77d926baf6f1ff70b.html" target="_top" xlink:title="GL">
<polygon fill="none" stroke="#000000" points="54,-36 0,-36 0,0 54,0 54,-36"/>
<text text-anchor="middle" x="27" y="-15.5" font-family="Arial.ttf" font-size="10.00" fill="#000000">GL</text>
</a>
</g>
</g>
<!-- dir_995213cfab64f8234646d5bd11b8fab8&#45;&gt;dir_7c5894193bfde0f77d926baf6f1ff70b -->
<g id="edge2" class="edge">
<title>dir_995213cfab64f8234646d5bd11b8fab8&#45;&gt;dir_7c5894193bfde0f77d926baf6f1ff70b</title>
<path fill="none" stroke="#000000" d="M48.7109,-71.8314C43.8482,-63.8771 38.7519,-54.369 34.5863,-45.5723"/>
<polygon fill="#000000" stroke="#000000" points="37.7667,-44.1105 30.4864,-36.4133 31.3776,-46.9706 37.7667,-44.1105"/>
<g id="a_edge2&#45;headlabel"><a xlink:href="dir_000013_000016.html" target="_top" xlink:title="2">
<text text-anchor="middle" x="41.8267" y="-43.7314" font-family="Arial.ttf" font-size="10.00" fill="#000000">2</text>
</a>
</g>
</g>
<!-- dir_d2b6318187fb2206cad9b40a4e1245e4 -->
<g id="node3" class="node">
<title>dir_d2b6318187fb2206cad9b40a4e1245e4</title>
<g id="a_node3"><a xlink:href="dir_d2b6318187fb2206cad9b40a4e1245e4.html" target="_top" xlink:title="externals">
<polygon fill="#ffffff" stroke="#ff0000" points="129.5,-36 72.5,-36 72.5,0 129.5,0 129.5,-36"/>
<text text-anchor="middle" x="101" y="-15.5" font-family="Arial.ttf" font-size="10.00" fill="#000000">externals</text>
</a>
</g>
</g>
<!-- dir_995213cfab64f8234646d5bd11b8fab8&#45;&gt;dir_d2b6318187fb2206cad9b40a4e1245e4 -->
<g id="edge3" class="edge">
<title>dir_995213cfab64f8234646d5bd11b8fab8&#45;&gt;dir_d2b6318187fb2206cad9b40a4e1245e4</title>
<path fill="none" stroke="#000000" d="M73.3367,-71.8314C77.4243,-63.8771 82.3104,-54.369 86.8309,-45.5723"/>
<polygon fill="#000000" stroke="#000000" points="90.0799,-46.9074 91.5376,-36.4133 83.8539,-43.7078 90.0799,-46.9074"/>
<g id="a_edge3&#45;headlabel"><a xlink:href="dir_000013_000004.html" target="_top" xlink:title="1">
<text text-anchor="middle" x="90.9623" y="-48.9022" font-family="Arial.ttf" font-size="10.00" fill="#000000">1</text>
</a>
</g>
</g>
<!-- dir_7c5894193bfde0f77d926baf6f1ff70b&#45;&gt;dir_995213cfab64f8234646d5bd11b8fab8 -->
<g id="edge1" class="edge">
<title>dir_7c5894193bfde0f77d926baf6f1ff70b&#45;&gt;dir_995213cfab64f8234646d5bd11b8fab8</title>
<path fill="none" stroke="#000000" d="M42.4384,-36.4133C47.3058,-44.3991 52.3948,-53.9155 56.5413,-62.6975"/>
<polygon fill="#000000" stroke="#000000" points="53.3454,-64.1246 60.6157,-71.8314 59.7382,-61.2729 53.3454,-64.1246"/>
<g id="a_edge1&#45;headlabel"><a xlink:href="dir_000016_000013.html" target="_top" xlink:title="7">
<text text-anchor="middle" x="49.2881" y="-59.4985" font-family="Arial.ttf" font-size="10.00" fill="#000000">7</text>
</a>
</g>
</g>
</g>
</svg>
