<?xml version="1.0" encoding="UTF-8" standalone="no"?>
<!DOCTYPE svg PUBLIC "-//W3C//DTD SVG 1.1//EN"
 "http://www.w3.org/Graphics/SVG/1.1/DTD/svg11.dtd">
<!-- Generated by graphviz version 2.36.0 (20140111.2315)
 -->
<!-- Title: source Pages: 1 -->
<svg width="134pt" height="151pt"
 viewBox="0.00 0.00 134.00 151.00" xmlns="http://www.w3.org/2000/svg" xmlns:xlink="http://www.w3.org/1999/xlink">
<g id="graph0" class="graph" transform="scale(1 1) rotate(0) translate(4 147)">
<title>source</title>
<polygon fill="white" stroke="none" points="-4,4 -4,-147 130,-147 130,4 -4,4"/>
<g id="clust1" class="cluster"><title>clusterdir_5434dd98f57f66ee37886bc7d43ec358</title>
<g id="a_clust1"><a xlink:href="dir_5434dd98f57f66ee37886bc7d43ec358.html" target="_top" xlink:title="app&#45;Demo&#45;SLProject">
<polygon fill="#ddddee" stroke="black" points="8,-64 8,-135 118,-135 118,-64 8,-64"/>
<text text-anchor="middle" x="63" y="-123" font-family="Arial.ttf" font-size="10.00">app&#45;Demo&#45;SLProject</text>
</a>
</g>
</g>
<!-- dir_a0455474795fe140067dc812609444bd -->
<g id="node1" class="node"><title>dir_a0455474795fe140067dc812609444bd</title>
<g id="a_node1"><a xlink:href="dir_a0455474795fe140067dc812609444bd.html" target="_top" xlink:title="source">
<polygon fill="#eeeeff" stroke="black" points="90,-108 36,-108 36,-72 90,-72 90,-108"/>
<text text-anchor="middle" x="63" y="-87.5" font-family="Arial.ttf" font-size="10.00">source</text>
</a>
</g>
</g>
<!-- dir_d0048d0e1a364fc830c4a6aa45e5e78d -->
<g id="node2" class="node"><title>dir_d0048d0e1a364fc830c4a6aa45e5e78d</title>
<g id="a_node2"><a xlink:href="dir_d0048d0e1a364fc830c4a6aa45e5e78d.html" target="_top" xlink:title="lib&#45;SLProject">
<polygon fill="white" stroke="red" points="99.25,-36 26.75,-36 26.75,-0 99.25,-0 99.25,-36"/>
<text text-anchor="middle" x="63" y="-15.5" font-family="Arial.ttf" font-size="10.00">lib&#45;SLProject</text>
</a>
</g>
</g>
<!-- dir_a0455474795fe140067dc812609444bd&#45;&gt;dir_d0048d0e1a364fc830c4a6aa45e5e78d -->
<g id="edge1" class="edge"><title>dir_a0455474795fe140067dc812609444bd&#45;&gt;dir_d0048d0e1a364fc830c4a6aa45e5e78d</title>
<path fill="none" stroke="black" d="M63,-71.6966C63,-63.9827 63,-54.7125 63,-46.1124"/>
<polygon fill="black" stroke="black" points="66.5001,-46.1043 63,-36.1043 59.5001,-46.1044 66.5001,-46.1043"/>
<g id="a_edge1&#45;headlabel"><a xlink:href="dir_000002_000008.html" target="_top" xlink:title="55">
<text text-anchor="middle" x="69.3393" y="-47.199" font-family="Arial.ttf" font-size="10.00">55</text>
</a>
</g>
</g>
</g>
</svg>
