<?xml version="1.0" encoding="UTF-8" standalone="no"?>
<!DOCTYPE svg PUBLIC "-//W3C//DTD SVG 1.1//EN"
 "http://www.w3.org/Graphics/SVG/1.1/DTD/svg11.dtd">
<!-- Generated by graphviz version 2.40.1 (20161225.0304)
 -->
<!-- Title: include Pages: 1 -->
<svg width="182pt" height="303pt"
 viewBox="0.00 0.00 182.00 303.00" xmlns="http://www.w3.org/2000/svg" xmlns:xlink="http://www.w3.org/1999/xlink">
<g id="graph0" class="graph" transform="scale(1 1) rotate(0) translate(4 299)">
<title>include</title>
<polygon fill="#ffffff" stroke="transparent" points="-4,4 -4,-299 178,-299 178,4 -4,4"/>
<g id="clust1" class="cluster">
<title>clusterdir_d0048d0e1a364fc830c4a6aa45e5e78d</title>
<g id="a_clust1"><a xlink:href="dir_d0048d0e1a364fc830c4a6aa45e5e78d.html" target="_top" xlink:title="lib&#45;SLProject">
<polygon fill="#ddddee" stroke="#000000" points="8,-56 8,-287 166,-287 166,-56 8,-56"/>
<text text-anchor="middle" x="87" y="-275" font-family="Arial.ttf" font-size="10.00" fill="#000000">lib&#45;SLProject</text>
</a>
</g>
</g>
<g id="clust2" class="cluster">
<title>clusterdir_bf13ebcdd7dde255dd97100a2a47e46b</title>
<g id="a_clust2"><a xlink:href="dir_bf13ebcdd7dde255dd97100a2a47e46b.html" target="_top">
<polygon fill="#eeeeff" stroke="#000000" points="16,-64 16,-260 158,-260 158,-64 16,-64"/>
</a>
</g>
</g>
<!-- dir_bf13ebcdd7dde255dd97100a2a47e46b -->
<g id="node1" class="node">
<title>dir_bf13ebcdd7dde255dd97100a2a47e46b</title>
<text text-anchor="middle" x="123" y="-231.5" font-family="Arial.ttf" font-size="10.00" fill="#000000">include</text>
</g>
<!-- dir_7c5894193bfde0f77d926baf6f1ff70b -->
<g id="node3" class="node">
<title>dir_7c5894193bfde0f77d926baf6f1ff70b</title>
<g id="a_node3"><a xlink:href="dir_7c5894193bfde0f77d926baf6f1ff70b.html" target="_top" xlink:title="GL">
<polygon fill="#ffffff" stroke="#000000" points="150,-180 96,-180 96,-144 150,-144 150,-180"/>
<text text-anchor="middle" x="123" y="-159.5" font-family="Arial.ttf" font-size="10.00" fill="#000000">GL</text>
</a>
</g>
</g>
<!-- dir_bf13ebcdd7dde255dd97100a2a47e46b&#45;&gt;dir_7c5894193bfde0f77d926baf6f1ff70b -->
<g id="edge4" class="edge">
<title>dir_bf13ebcdd7dde255dd97100a2a47e46b&#45;&gt;dir_7c5894193bfde0f77d926baf6f1ff70b</title>
<path fill="none" stroke="#000000" d="M123,-215.8314C123,-208.131 123,-198.9743 123,-190.4166"/>
<polygon fill="#000000" stroke="#000000" points="126.5001,-190.4132 123,-180.4133 119.5001,-190.4133 126.5001,-190.4132"/>
<g id="a_edge4&#45;headlabel"><a xlink:href="dir_000011_000016.html" target="_top" xlink:title="22">
<text text-anchor="middle" x="129.3393" y="-191.5079" font-family="Arial.ttf" font-size="10.00" fill="#000000">22</text>
</a>
</g>
</g>
<!-- dir_9fcfb45104a43c86a9960a057bd16cd9 -->
<g id="node2" class="node">
<title>dir_9fcfb45104a43c86a9960a057bd16cd9</title>
<g id="a_node2"><a xlink:href="dir_9fcfb45104a43c86a9960a057bd16cd9.html" target="_top" xlink:title="CV">
<polygon fill="#ffffff" stroke="#000000" points="78,-108 24,-108 24,-72 78,-72 78,-108"/>
<text text-anchor="middle" x="51" y="-87.5" font-family="Arial.ttf" font-size="10.00" fill="#000000">CV</text>
</a>
</g>
</g>
<!-- dir_d2b6318187fb2206cad9b40a4e1245e4 -->
<g id="node5" class="node">
<title>dir_d2b6318187fb2206cad9b40a4e1245e4</title>
<g id="a_node5"><a xlink:href="dir_d2b6318187fb2206cad9b40a4e1245e4.html" target="_top" xlink:title="externals">
<polygon fill="#ffffff" stroke="#ff0000" points="115.5,-36 58.5,-36 58.5,0 115.5,0 115.5,-36"/>
<text text-anchor="middle" x="87" y="-15.5" font-family="Arial.ttf" font-size="10.00" fill="#000000">externals</text>
</a>
</g>
</g>
<!-- dir_9fcfb45104a43c86a9960a057bd16cd9&#45;&gt;dir_d2b6318187fb2206cad9b40a4e1245e4 -->
<g id="edge1" class="edge">
<title>dir_9fcfb45104a43c86a9960a057bd16cd9&#45;&gt;dir_d2b6318187fb2206cad9b40a4e1245e4</title>
<path fill="none" stroke="#000000" d="M60.0843,-71.8314C64.0615,-63.8771 68.8155,-54.369 73.2139,-45.5723"/>
<polygon fill="#000000" stroke="#000000" points="76.4517,-46.9228 77.7934,-36.4133 70.1907,-43.7923 76.4517,-46.9228"/>
<g id="a_edge1&#45;headlabel"><a xlink:href="dir_000012_000004.html" target="_top" xlink:title="2">
<text text-anchor="middle" x="77.3837" y="-48.9077" font-family="Arial.ttf" font-size="10.00" fill="#000000">2</text>
</a>
</g>
</g>
<!-- dir_7c5894193bfde0f77d926baf6f1ff70b&#45;&gt;dir_9fcfb45104a43c86a9960a057bd16cd9 -->
<g id="edge2" class="edge">
<title>dir_7c5894193bfde0f77d926baf6f1ff70b&#45;&gt;dir_9fcfb45104a43c86a9960a057bd16cd9</title>
<path fill="none" stroke="#000000" d="M104.8314,-143.8314C96.2848,-135.2848 85.9443,-124.9443 76.6198,-115.6198"/>
<polygon fill="#000000" stroke="#000000" points="78.9592,-113.0095 69.4133,-108.4133 74.0095,-117.9592 78.9592,-113.0095"/>
<g id="a_edge2&#45;headlabel"><a xlink:href="dir_000016_000012.html" target="_top" xlink:title="1">
<text text-anchor="middle" x="83.5087" y="-111.0436" font-family="Arial.ttf" font-size="10.00" fill="#000000">1</text>
</a>
</g>
</g>
<!-- dir_995213cfab64f8234646d5bd11b8fab8 -->
<g id="node4" class="node">
<title>dir_995213cfab64f8234646d5bd11b8fab8</title>
<g id="a_node4"><a xlink:href="dir_995213cfab64f8234646d5bd11b8fab8.html" target="_top" xlink:title="SL">
<polygon fill="#ffffff" stroke="#000000" points="150,-108 96,-108 96,-72 150,-72 150,-108"/>
<text text-anchor="middle" x="123" y="-87.5" font-family="Arial.ttf" font-size="10.00" fill="#000000">SL</text>
</a>
</g>
</g>
<!-- dir_7c5894193bfde0f77d926baf6f1ff70b&#45;&gt;dir_995213cfab64f8234646d5bd11b8fab8 -->
<g id="edge3" class="edge">
<title>dir_7c5894193bfde0f77d926baf6f1ff70b&#45;&gt;dir_995213cfab64f8234646d5bd11b8fab8</title>
<path fill="none" stroke="#000000" d="M117.0476,-143.8314C116.2972,-136.131 116.0763,-126.9743 116.3849,-118.4166"/>
<polygon fill="#000000" stroke="#000000" points="119.8792,-118.6161 117.024,-108.4133 112.8935,-118.1697 119.8792,-118.6161"/>
<g id="a_edge3&#45;headlabel"><a xlink:href="dir_000016_000013.html" target="_top" xlink:title="7">
<text text-anchor="middle" x="122.4836" y="-119.8844" font-family="Arial.ttf" font-size="10.00" fill="#000000">7</text>
</a>
</g>
</g>
<!-- dir_995213cfab64f8234646d5bd11b8fab8&#45;&gt;dir_7c5894193bfde0f77d926baf6f1ff70b -->
<g id="edge5" class="edge">
<title>dir_995213cfab64f8234646d5bd11b8fab8&#45;&gt;dir_7c5894193bfde0f77d926baf6f1ff70b</title>
<path fill="none" stroke="#000000" d="M128.976,-108.4133C129.7071,-116.0593 129.9203,-125.1084 129.6155,-133.5726"/>
<polygon fill="#000000" stroke="#000000" points="126.1048,-133.6264 128.9524,-143.8314 133.0902,-134.078 126.1048,-133.6264"/>
<g id="a_edge5&#45;headlabel"><a xlink:href="dir_000013_000016.html" target="_top" xlink:title="2">
<text text-anchor="middle" x="123.5032" y="-127.3562" font-family="Arial.ttf" font-size="10.00" fill="#000000">2</text>
</a>
</g>
</g>
<!-- dir_995213cfab64f8234646d5bd11b8fab8&#45;&gt;dir_d2b6318187fb2206cad9b40a4e1245e4 -->
<g id="edge6" class="edge">
<title>dir_995213cfab64f8234646d5bd11b8fab8&#45;&gt;dir_d2b6318187fb2206cad9b40a4e1245e4</title>
<path fill="none" stroke="#000000" d="M113.9157,-71.8314C109.9385,-63.8771 105.1845,-54.369 100.7861,-45.5723"/>
<polygon fill="#000000" stroke="#000000" points="103.8093,-43.7923 96.2066,-36.4133 97.5483,-46.9228 103.8093,-43.7923"/>
<g id="a_edge6&#45;headlabel"><a xlink:href="dir_000013_000004.html" target="_top" xlink:title="1">
<text text-anchor="middle" x="107.9563" y="-43.2377" font-family="Arial.ttf" font-size="10.00" fill="#000000">1</text>
</a>
</g>
</g>
</g>
</svg>
