<?xml version="1.0" encoding="UTF-8" standalone="no"?>
<!DOCTYPE svg PUBLIC "-//W3C//DTD SVG 1.1//EN"
 "http://www.w3.org/Graphics/SVG/1.1/DTD/svg11.dtd">
<!-- Generated by graphviz version 8.0.5 (20230430.1635)
 -->
<!-- Title: Graphical Class Hierarchy Pages: 1 -->
<svg width="187pt" height="68pt"
 viewBox="0.00 0.00 187.00 68.00" xmlns="http://www.w3.org/2000/svg" xmlns:xlink="http://www.w3.org/1999/xlink">
<g id="graph0" class="graph" transform="scale(1 1) rotate(0) translate(4 64)">
<title>Graphical Class Hierarchy</title>
<polygon fill="white" stroke="none" points="-4,4 -4,-64 183,-64 183,4 -4,4"/>
<!-- Node0 -->
<g id="node1" class="node">
<title>Node0</title>
<g id="a_node1"><a xlink:href="class_s_l_rnd3f.html" target="_top" xlink:title="Abstract base class for random 3D point generator.">
<polygon fill="white" stroke="black" points="0,-19.5 0,-39.5 54.25,-39.5 54.25,-19.5 0,-19.5"/>
<text text-anchor="middle" x="27.12" y="-26" font-family="Arial" font-size="10.00">SLRnd3f</text>
</a>
</g>
</g>
<!-- Node1 -->
<g id="node2" class="node">
<title>Node1</title>
<g id="a_node2"><a xlink:href="class_s_l_rnd3f_normal.html" target="_top" xlink:title="Class for random generator for normal distributed 3D points.">
<polygon fill="white" stroke="black" points="91.75,-39.5 91.75,-59.5 177.5,-59.5 177.5,-39.5 91.75,-39.5"/>
<text text-anchor="middle" x="134.62" y="-46" font-family="Arial" font-size="10.00">SLRnd3fNormal</text>
</a>
</g>
</g>
<!-- Node0&#45;&gt;Node1 -->
<g id="edge1" class="edge">
<title>Node0&#45;&gt;Node1</title>
<path fill="none" stroke="midnightblue" d="M64.82,-36.46C73.54,-38.11 82.91,-39.89 91.84,-41.58"/>
<polygon fill="midnightblue" stroke="midnightblue" points="65.68,-32.87 55.2,-34.44 64.38,-39.75 65.68,-32.87"/>
</g>
<!-- Node2 -->
<g id="node3" class="node">
<title>Node2</title>
<g id="a_node3"><a xlink:href="class_s_l_rnd3f_uniform.html" target="_top" xlink:title="Class for random generator for uniform distributed 3D points.">
<polygon fill="white" stroke="black" points="90.25,-0.5 90.25,-20.5 179,-20.5 179,-0.5 90.25,-0.5"/>
<text text-anchor="middle" x="134.62" y="-7" font-family="Arial" font-size="10.00">SLRnd3fUniform</text>
</a>
</g>
</g>
<!-- Node0&#45;&gt;Node2 -->
<g id="edge2" class="edge">
<title>Node0&#45;&gt;Node2</title>
<path fill="none" stroke="midnightblue" d="M65.03,-22.85C73.29,-21.37 82.12,-19.78 90.6,-18.25"/>
<polygon fill="midnightblue" stroke="midnightblue" points="64.42,-19.59 55.2,-24.8 65.67,-26.48 64.42,-19.59"/>
</g>
</g>
</svg>
