<?xml version="1.0" encoding="UTF-8" standalone="no"?>
<!DOCTYPE svg PUBLIC "-//W3C//DTD SVG 1.1//EN"
 "http://www.w3.org/Graphics/SVG/1.1/DTD/svg11.dtd">
<!-- Generated by graphviz version 2.40.1 (20161225.0304)
 -->
<!-- Title: Graphical Class Hierarchy Pages: 1 -->
<svg width="218pt" height="212pt"
 viewBox="0.00 0.00 217.76 212.00" xmlns="http://www.w3.org/2000/svg" xmlns:xlink="http://www.w3.org/1999/xlink">
<g id="graph0" class="graph" transform="scale(1 1) rotate(0) translate(4 208)">
<title>Graphical Class Hierarchy</title>
<polygon fill="#ffffff" stroke="transparent" points="-4,4 -4,-208 213.7627,-208 213.7627,4 -4,4"/>
<!-- Node0 -->
<g id="node1" class="node">
<title>Node0</title>
<g id="a_node1"><a xlink:href="class_s_l_input_event.html" target="_top" xlink:title="Baseclass for all system input events.">
<polygon fill="#ffffff" stroke="#000000" points="0,-92.5 0,-110.5 76.0439,-110.5 76.0439,-92.5 0,-92.5"/>
<text text-anchor="middle" x="38.022" y="-98.5" font-family="Arial.ttf" font-size="10.00" fill="#000000">SLInputEvent</text>
</a>
</g>
</g>
<!-- Node1 -->
<g id="node2" class="node">
<title>Node1</title>
<g id="a_node2"><a xlink:href="class_s_l_char_input_event.html" target="_top" xlink:title="Specialized SLInput class for unicode character input.">
<polygon fill="#ffffff" stroke="#000000" points="112.0439,-185.5 112.0439,-203.5 209.7627,-203.5 209.7627,-185.5 112.0439,-185.5"/>
<text text-anchor="middle" x="160.9033" y="-191.5" font-family="Arial.ttf" font-size="10.00" fill="#000000">SLCharInputEvent</text>
</a>
</g>
</g>
<!-- Node0&#45;&gt;Node1 -->
<g id="edge1" class="edge">
<title>Node0&#45;&gt;Node1</title>
<path fill="none" stroke="#191970" d="M51.0391,-118.5115C64.6491,-135.281 87.425,-160.6342 112.0439,-176.5 117.5149,-180.0258 123.7733,-182.9922 129.9435,-185.4349"/>
<polygon fill="#191970" stroke="#191970" points="53.7455,-116.2913 44.7962,-110.6203 48.2557,-120.6344 53.7455,-116.2913"/>
</g>
<!-- Node2 -->
<g id="node3" class="node">
<title>Node2</title>
<g id="a_node3"><a xlink:href="class_s_l_key_event.html" target="_top" xlink:title="Specialized SLInput class for all keypress related input events.">
<polygon fill="#ffffff" stroke="#000000" points="125.3862,-148.5 125.3862,-166.5 196.4204,-166.5 196.4204,-148.5 125.3862,-148.5"/>
<text text-anchor="middle" x="160.9033" y="-154.5" font-family="Arial.ttf" font-size="10.00" fill="#000000">SLKeyEvent</text>
</a>
</g>
</g>
<!-- Node0&#45;&gt;Node2 -->
<g id="edge2" class="edge">
<title>Node0&#45;&gt;Node2</title>
<path fill="none" stroke="#191970" d="M63.3028,-115.4438C77.438,-122.9939 95.4933,-132.2351 112.0439,-139.5 119.2454,-142.6611 127.195,-145.7525 134.5527,-148.4565"/>
<polygon fill="#191970" stroke="#191970" points="64.6718,-112.2053 54.2099,-110.5321 61.3449,-118.3643 64.6718,-112.2053"/>
</g>
<!-- Node3 -->
<g id="node4" class="node">
<title>Node3</title>
<g id="a_node4"><a xlink:href="class_s_l_mouse_event.html" target="_top" xlink:title="Specialized SLInput class for all mouse related input events.">
<polygon fill="#ffffff" stroke="#000000" points="118.9946,-111.5 118.9946,-129.5 202.812,-129.5 202.812,-111.5 118.9946,-111.5"/>
<text text-anchor="middle" x="160.9033" y="-117.5" font-family="Arial.ttf" font-size="10.00" fill="#000000">SLMouseEvent</text>
</a>
</g>
</g>
<!-- Node0&#45;&gt;Node3 -->
<g id="edge3" class="edge">
<title>Node0&#45;&gt;Node3</title>
<path fill="none" stroke="#191970" d="M86.3213,-108.9681C97.0758,-110.6309 108.3938,-112.3809 118.8724,-114.0011"/>
<polygon fill="#191970" stroke="#191970" points="86.6462,-105.4768 76.2288,-107.4076 85.5765,-112.3946 86.6462,-105.4768"/>
</g>
<!-- Node4 -->
<g id="node5" class="node">
<title>Node4</title>
<g id="a_node5"><a xlink:href="class_s_l_resize_event.html" target="_top" xlink:title="Specialized SLInput class for window resize events.">
<polygon fill="#ffffff" stroke="#000000" points="118.7188,-74.5 118.7188,-92.5 203.0879,-92.5 203.0879,-74.5 118.7188,-74.5"/>
<text text-anchor="middle" x="160.9033" y="-80.5" font-family="Arial.ttf" font-size="10.00" fill="#000000">SLResizeEvent</text>
</a>
</g>
</g>
<!-- Node0&#45;&gt;Node4 -->
<g id="edge4" class="edge">
<title>Node0&#45;&gt;Node4</title>
<path fill="none" stroke="#191970" d="M86.2139,-94.4407C96.8526,-92.8823 108.0478,-91.2424 118.4398,-89.7202"/>
<polygon fill="#191970" stroke="#191970" points="85.6159,-90.9909 76.2288,-95.9034 86.6305,-97.917 85.6159,-90.9909"/>
</g>
<!-- Node5 -->
<g id="node6" class="node">
<title>Node5</title>
<g id="a_node6"><a xlink:href="class_s_l_rotation_event.html" target="_top" xlink:title="Specialized SLInput class for all device rotation related input events.">
<polygon fill="#ffffff" stroke="#000000" points="115.3789,-37.5 115.3789,-55.5 206.4277,-55.5 206.4277,-37.5 115.3789,-37.5"/>
<text text-anchor="middle" x="160.9033" y="-43.5" font-family="Arial.ttf" font-size="10.00" fill="#000000">SLRotationEvent</text>
</a>
</g>
</g>
<!-- Node0&#45;&gt;Node5 -->
<g id="edge5" class="edge">
<title>Node0&#45;&gt;Node5</title>
<path fill="none" stroke="#191970" d="M64.8245,-87.8093C78.7767,-80.8502 96.1898,-72.4241 112.0439,-65.5 119.8841,-62.0759 128.5542,-58.6047 136.3877,-55.5826"/>
<polygon fill="#191970" stroke="#191970" points="63.1424,-84.7375 55.78,-92.3562 66.2866,-90.9916 63.1424,-84.7375"/>
</g>
<!-- Node6 -->
<g id="node7" class="node">
<title>Node6</title>
<g id="a_node7"><a xlink:href="class_s_l_touch_event.html" target="_top" xlink:title="Specialized SLInput class for touch related input events.">
<polygon fill="#ffffff" stroke="#000000" points="121.0283,-.5 121.0283,-18.5 200.7783,-18.5 200.7783,-.5 121.0283,-.5"/>
<text text-anchor="middle" x="160.9033" y="-6.5" font-family="Arial.ttf" font-size="10.00" fill="#000000">SLTouchEvent</text>
</a>
</g>
</g>
<!-- Node0&#45;&gt;Node6 -->
<g id="edge6" class="edge">
<title>Node0&#45;&gt;Node6</title>
<path fill="none" stroke="#191970" d="M52.0153,-84.0831C65.8246,-67.8502 88.2679,-43.8965 112.0439,-28.5 118.0791,-24.5918 125.0423,-21.2864 131.7861,-18.5838"/>
<polygon fill="#191970" stroke="#191970" points="48.9695,-82.2727 45.2781,-92.2037 54.3568,-86.7423 48.9695,-82.2727"/>
</g>
</g>
</svg>
