<?xml version="1.0" encoding="UTF-8" standalone="no"?>
<!DOCTYPE svg PUBLIC "-//W3C//DTD SVG 1.1//EN"
 "http://www.w3.org/Graphics/SVG/1.1/DTD/svg11.dtd">
<!-- Generated by graphviz version 2.36.0 (20140111.2315)
 -->
<!-- Title: Graphical Class Hierarchy Pages: 1 -->
<svg width="232pt" height="142pt"
 viewBox="0.00 0.00 232.00 142.00" xmlns="http://www.w3.org/2000/svg" xmlns:xlink="http://www.w3.org/1999/xlink">
<g id="graph0" class="graph" transform="scale(1 1) rotate(0) translate(4 138)">
<title>Graphical Class Hierarchy</title>
<polygon fill="white" stroke="none" points="-4,4 -4,-138 228,-138 228,4 -4,4"/>
<!-- Node1 -->
<g id="node1" class="node"><title>Node1</title>
<g id="a_node1"><a xlink:href="class_c_v_tracked.html" target="_top" xlink:title="CVTracked is the pure virtual base class for tracking features in video. ">
<polygon fill="white" stroke="black" points="0.5,-57.5 0.5,-76.5 67.5,-76.5 67.5,-57.5 0.5,-57.5"/>
<text text-anchor="middle" x="34" y="-64.5" font-family="Arial.ttf" font-size="10.00">CVTracked</text>
</a>
</g>
</g>
<!-- Node2 -->
<g id="node2" class="node"><title>Node2</title>
<g id="a_node2"><a xlink:href="class_c_v_tracked_aruco.html" target="_top" xlink:title="OpenCV ArUco marker tracker class derived from CVTracked. ">
<polygon fill="white" stroke="black" points="117.5,-114.5 117.5,-133.5 210.5,-133.5 210.5,-114.5 117.5,-114.5"/>
<text text-anchor="middle" x="164" y="-121.5" font-family="Arial.ttf" font-size="10.00">CVTrackedAruco</text>
</a>
</g>
</g>
<!-- Node1&#45;&gt;Node2 -->
<g id="edge1" class="edge"><title>Node1&#45;&gt;Node2</title>
<path fill="none" stroke="midnightblue" d="M59.2335,-81.8423C72.209,-89.4022 88.6425,-98.3712 104,-105 112.102,-108.497 121.067,-111.703 129.51,-114.446"/>
<polygon fill="midnightblue" stroke="midnightblue" points="60.8478,-78.7306 50.4612,-76.6402 57.2773,-84.7515 60.8478,-78.7306"/>
</g>
<!-- Node3 -->
<g id="node3" class="node"><title>Node3</title>
<g id="a_node3"><a xlink:href="class_c_v_tracked_chessboard.html" target="_top" xlink:title="OpenCV chessboard tracker class derived from CVTracked. ">
<polygon fill="white" stroke="black" points="104,-76.5 104,-95.5 224,-95.5 224,-76.5 104,-76.5"/>
<text text-anchor="middle" x="164" y="-83.5" font-family="Arial.ttf" font-size="10.00">CVTrackedChessboard</text>
</a>
</g>
</g>
<!-- Node1&#45;&gt;Node3 -->
<g id="edge2" class="edge"><title>Node1&#45;&gt;Node3</title>
<path fill="none" stroke="midnightblue" d="M77.5701,-73.319C85.9831,-74.5678 94.9545,-75.8995 103.803,-77.2129"/>
<polygon fill="midnightblue" stroke="midnightblue" points="78.0365,-69.85 67.631,-71.8437 77.0087,-76.7741 78.0365,-69.85"/>
</g>
<!-- Node4 -->
<g id="node4" class="node"><title>Node4</title>
<g id="a_node4"><a xlink:href="class_c_v_tracked_faces.html" target="_top" xlink:title="OpenCV face &amp; facial landmark tracker class derived from CVTracked. ">
<polygon fill="white" stroke="black" points="117,-38.5 117,-57.5 211,-57.5 211,-38.5 117,-38.5"/>
<text text-anchor="middle" x="164" y="-45.5" font-family="Arial.ttf" font-size="10.00">CVTrackedFaces</text>
</a>
</g>
</g>
<!-- Node1&#45;&gt;Node4 -->
<g id="edge3" class="edge"><title>Node1&#45;&gt;Node4</title>
<path fill="none" stroke="midnightblue" d="M77.8365,-60.6415C90.3874,-58.7784 104.162,-56.7338 116.906,-54.842"/>
<polygon fill="midnightblue" stroke="midnightblue" points="77.0087,-57.2259 67.631,-62.1563 78.0365,-64.15 77.0087,-57.2259"/>
</g>
<!-- Node5 -->
<g id="node5" class="node"><title>Node5</title>
<g id="a_node5"><a xlink:href="class_c_v_tracked_features.html" target="_top" xlink:title="CVTrackedFeatures is the main part of the AR Christoffelturm scene. ">
<polygon fill="white" stroke="black" points="111,-0.5 111,-19.5 217,-19.5 217,-0.5 111,-0.5"/>
<text text-anchor="middle" x="164" y="-7.5" font-family="Arial.ttf" font-size="10.00">CVTrackedFeatures</text>
</a>
</g>
</g>
<!-- Node1&#45;&gt;Node5 -->
<g id="edge4" class="edge"><title>Node1&#45;&gt;Node5</title>
<path fill="none" stroke="midnightblue" d="M59.2335,-52.1577C72.209,-44.5978 88.6425,-35.6288 104,-29 112.102,-25.5031 121.067,-22.297 129.51,-19.5542"/>
<polygon fill="midnightblue" stroke="midnightblue" points="57.2773,-49.2485 50.4612,-57.3598 60.8478,-55.2694 57.2773,-49.2485"/>
</g>
</g>
</svg>
