<?xml version="1.0" encoding="UTF-8" standalone="no"?>
<!DOCTYPE svg PUBLIC "-//W3C//DTD SVG 1.1//EN"
 "http://www.w3.org/Graphics/SVG/1.1/DTD/svg11.dtd">
<!-- Generated by graphviz version 2.36.0 (20140111.2315)
 -->
<!-- Title: Graphical Class Hierarchy Pages: 1 -->
<svg width="498pt" height="560pt"
 viewBox="0.00 0.00 498.00 560.00" xmlns="http://www.w3.org/2000/svg" xmlns:xlink="http://www.w3.org/1999/xlink">
<g id="graph0" class="graph" transform="scale(1 1) rotate(0) translate(4 556)">
<title>Graphical Class Hierarchy</title>
<polygon fill="white" stroke="none" points="-4,4 -4,-556 494,-556 494,4 -4,4"/>
<!-- Node1 -->
<g id="node1" class="node"><title>Node1</title>
<g id="a_node1"><a xlink:href="class_s_l_event_handler.html" target="_top" xlink:title="Virtual Eventhandler class. ">
<polygon fill="white" stroke="black" points="0.5,-399.5 0.5,-418.5 89.5,-418.5 89.5,-399.5 0.5,-399.5"/>
<text text-anchor="middle" x="45" y="-406.5" font-family="Arial.ttf" font-size="10.00">SLEventHandler</text>
</a>
</g>
</g>
<!-- Node2 -->
<g id="node2" class="node"><title>Node2</title>
<g id="a_node2"><a xlink:href="class_s_l_g_l_uniform.html" target="_top" xlink:title="Template for a single GLSL uniform variable. ">
<polygon fill="white" stroke="black" points="126,-532.5 126,-551.5 226,-551.5 226,-532.5 126,-532.5"/>
<text text-anchor="middle" x="176" y="-539.5" font-family="Arial.ttf" font-size="10.00">SLGLUniform&lt; T &gt;</text>
</a>
</g>
</g>
<!-- Node1&#45;&gt;Node2 -->
<g id="edge1" class="edge"><title>Node1&#45;&gt;Node2</title>
<path fill="none" stroke="midnightblue" d="M54.7862,-427.847C67.3111,-452.828 92.539,-496.794 126,-523 130.885,-526.826 136.632,-529.959 142.438,-532.499"/>
<polygon fill="midnightblue" stroke="midnightblue" points="57.8606,-426.165 50.3443,-418.698 51.5637,-429.223 57.8606,-426.165"/>
</g>
<!-- Node3 -->
<g id="node3" class="node"><title>Node3</title>
<g id="a_node3"><a xlink:href="class_s_l_node.html" target="_top" xlink:title="SLNode represents a node in a hierarchical scene graph. ">
<polygon fill="white" stroke="black" points="149.5,-399.5 149.5,-418.5 202.5,-418.5 202.5,-399.5 149.5,-399.5"/>
<text text-anchor="middle" x="176" y="-406.5" font-family="Arial.ttf" font-size="10.00">SLNode</text>
</a>
</g>
</g>
<!-- Node1&#45;&gt;Node3 -->
<g id="edge2" class="edge"><title>Node1&#45;&gt;Node3</title>
<path fill="none" stroke="midnightblue" d="M100.143,-409C117.235,-409 135.323,-409 149.437,-409"/>
<polygon fill="midnightblue" stroke="midnightblue" points="99.6735,-405.5 89.6735,-409 99.6735,-412.5 99.6735,-405.5"/>
</g>
<!-- Node11 -->
<g id="node11" class="node"><title>Node11</title>
<g id="a_node11"><a xlink:href="class_s_l_raytracer.html" target="_top" xlink:title="SLRaytracer hold all the methods for Whitted style Ray Tracing. ">
<polygon fill="white" stroke="black" points="284,-266.5 284,-285.5 356,-285.5 356,-266.5 284,-266.5"/>
<text text-anchor="middle" x="320" y="-273.5" font-family="Arial.ttf" font-size="10.00">SLRaytracer</text>
</a>
</g>
</g>
<!-- Node1&#45;&gt;Node11 -->
<g id="edge10" class="edge"><title>Node1&#45;&gt;Node11</title>
<path fill="none" stroke="midnightblue" d="M70.4726,-394.379C109.854,-371.246 190.161,-325.686 262,-295 270.058,-291.558 278.965,-288.329 287.296,-285.544"/>
<polygon fill="midnightblue" stroke="midnightblue" points="68.6466,-391.393 61.8156,-399.491 72.206,-397.42 68.6466,-391.393"/>
</g>
<!-- Node4 -->
<g id="node4" class="node"><title>Node4</title>
<g id="a_node4"><a xlink:href="class_s_l_button.html" target="_top" xlink:title="Defines a 2D&#45;GUI button with optional submenus as children of the group. ">
<polygon fill="white" stroke="black" points="291,-342.5 291,-361.5 349,-361.5 349,-342.5 291,-342.5"/>
<text text-anchor="middle" x="320" y="-349.5" font-family="Arial.ttf" font-size="10.00">SLButton</text>
</a>
</g>
</g>
<!-- Node3&#45;&gt;Node4 -->
<g id="edge3" class="edge"><title>Node3&#45;&gt;Node4</title>
<path fill="none" stroke="midnightblue" d="M206.507,-394.947C222.721,-387.443 243.287,-378.281 262,-371 271.332,-367.369 281.681,-363.789 290.971,-360.733"/>
<polygon fill="midnightblue" stroke="midnightblue" points="204.609,-391.97 197.029,-399.372 207.57,-398.313 204.609,-391.97"/>
</g>
<!-- Node5 -->
<g id="node5" class="node"><title>Node5</title>
<g id="a_node5"><a xlink:href="class_s_l_camera.html" target="_top" xlink:title="Active or visible camera node class. ">
<polygon fill="white" stroke="black" points="288,-304.5 288,-323.5 352,-323.5 352,-304.5 288,-304.5"/>
<text text-anchor="middle" x="320" y="-311.5" font-family="Arial.ttf" font-size="10.00">SLCamera</text>
</a>
</g>
</g>
<!-- Node3&#45;&gt;Node5 -->
<g id="edge4" class="edge"><title>Node3&#45;&gt;Node5</title>
<path fill="none" stroke="midnightblue" d="M196.078,-392.427C205.178,-384.479 216.195,-374.794 226,-366 242.158,-351.508 243.293,-344.007 262,-333 269.911,-328.345 279.119,-324.645 287.797,-321.794"/>
<polygon fill="midnightblue" stroke="midnightblue" points="193.588,-389.955 188.349,-399.163 198.188,-395.232 193.588,-389.955"/>
</g>
<!-- Node6 -->
<g id="node6" class="node"><title>Node6</title>
<g id="a_node6"><a xlink:href="class_s_l_joint.html" target="_top" xlink:title="Specialized SLNode that represents a single joint (or bone) in a skeleton. ">
<polygon fill="white" stroke="black" points="295,-456.5 295,-475.5 345,-475.5 345,-456.5 295,-456.5"/>
<text text-anchor="middle" x="320" y="-463.5" font-family="Arial.ttf" font-size="10.00">SLJoint</text>
</a>
</g>
</g>
<!-- Node3&#45;&gt;Node6 -->
<g id="edge5" class="edge"><title>Node3&#45;&gt;Node6</title>
<path fill="none" stroke="midnightblue" d="M206.507,-423.053C222.721,-430.557 243.287,-439.719 262,-447 272.693,-451.161 284.721,-455.254 294.962,-458.569"/>
<polygon fill="midnightblue" stroke="midnightblue" points="207.57,-419.687 197.029,-418.628 204.609,-426.03 207.57,-419.687"/>
</g>
<!-- Node7 -->
<g id="node7" class="node"><title>Node7</title>
<g id="a_node7"><a xlink:href="class_s_l_light_rect.html" target="_top" xlink:title="Light node class for a rectangular light source. ">
<polygon fill="white" stroke="black" points="284.5,-494.5 284.5,-513.5 355.5,-513.5 355.5,-494.5 284.5,-494.5"/>
<text text-anchor="middle" x="320" y="-501.5" font-family="Arial.ttf" font-size="10.00">SLLightRect</text>
</a>
</g>
</g>
<!-- Node3&#45;&gt;Node7 -->
<g id="edge6" class="edge"><title>Node3&#45;&gt;Node7</title>
<path fill="none" stroke="midnightblue" d="M192.127,-426.118C208.018,-443.167 234.483,-469.037 262,-485 268.857,-488.978 276.667,-492.269 284.259,-494.929"/>
<polygon fill="midnightblue" stroke="midnightblue" points="194.542,-423.571 185.218,-418.539 189.369,-428.287 194.542,-423.571"/>
</g>
<!-- Node8 -->
<g id="node8" class="node"><title>Node8</title>
<g id="a_node8"><a xlink:href="class_s_l_light_sphere.html" target="_top" xlink:title="SLLightSphere class for a spherical light source. ">
<polygon fill="white" stroke="black" points="278.5,-532.5 278.5,-551.5 361.5,-551.5 361.5,-532.5 278.5,-532.5"/>
<text text-anchor="middle" x="320" y="-539.5" font-family="Arial.ttf" font-size="10.00">SLLightSphere</text>
</a>
</g>
</g>
<!-- Node3&#45;&gt;Node8 -->
<g id="edge7" class="edge"><title>Node3&#45;&gt;Node8</title>
<path fill="none" stroke="midnightblue" d="M188.694,-427.319C207.314,-455.999 243.485,-509.616 262,-523 267.326,-526.85 273.482,-529.956 279.738,-532.45"/>
<polygon fill="midnightblue" stroke="midnightblue" points="191.461,-425.153 183.103,-418.643 185.577,-428.944 191.461,-425.153"/>
</g>
<!-- Node9 -->
<g id="node9" class="node"><title>Node9</title>
<g id="a_node9"><a xlink:href="class_s_l_scene_node.html" target="_top" xlink:title="SLSceneNode represents a node in the scene graph and is a specialization of SLNode. ">
<polygon fill="white" stroke="black" points="279.5,-418.5 279.5,-437.5 360.5,-437.5 360.5,-418.5 279.5,-418.5"/>
<text text-anchor="middle" x="320" y="-425.5" font-family="Arial.ttf" font-size="10.00">SLSceneNode</text>
</a>
</g>
</g>
<!-- Node3&#45;&gt;Node9 -->
<g id="edge8" class="edge"><title>Node3&#45;&gt;Node9</title>
<path fill="none" stroke="midnightblue" d="M212.786,-413.788C233.034,-416.497 258.398,-419.891 279.261,-422.683"/>
<polygon fill="midnightblue" stroke="midnightblue" points="213.091,-410.298 202.715,-412.441 212.163,-417.236 213.091,-410.298"/>
</g>
<!-- Node10 -->
<g id="node10" class="node"><title>Node10</title>
<g id="a_node10"><a xlink:href="class_s_l_text.html" target="_top" xlink:title="SLText creates a mesh using a textured font from SLTexFont. ">
<polygon fill="white" stroke="black" points="296,-380.5 296,-399.5 344,-399.5 344,-380.5 296,-380.5"/>
<text text-anchor="middle" x="320" y="-387.5" font-family="Arial.ttf" font-size="10.00">SLText</text>
</a>
</g>
</g>
<!-- Node3&#45;&gt;Node10 -->
<g id="edge9" class="edge"><title>Node3&#45;&gt;Node10</title>
<path fill="none" stroke="midnightblue" d="M212.939,-404.191C238.957,-400.71 273.362,-396.107 295.827,-393.101"/>
<polygon fill="midnightblue" stroke="midnightblue" points="212.163,-400.764 202.715,-405.559 213.091,-407.702 212.163,-400.764"/>
</g>
<!-- Node12 -->
<g id="node12" class="node"><title>Node12</title>
<g id="a_node12"><a xlink:href="class_s_l_pathtracer.html" target="_top" xlink:title="Classic Monte Carlo Pathtracing algorithm for real global illumination. ">
<polygon fill="white" stroke="black" points="414.5,-266.5 414.5,-285.5 489.5,-285.5 489.5,-266.5 414.5,-266.5"/>
<text text-anchor="middle" x="452" y="-273.5" font-family="Arial.ttf" font-size="10.00">SLPathtracer</text>
</a>
</g>
</g>
<!-- Node11&#45;&gt;Node12 -->
<g id="edge11" class="edge"><title>Node11&#45;&gt;Node12</title>
<path fill="none" stroke="midnightblue" d="M366.243,-276C381.999,-276 399.467,-276 414.431,-276"/>
<polygon fill="midnightblue" stroke="midnightblue" points="366.18,-272.5 356.18,-276 366.18,-279.5 366.18,-272.5"/>
</g>
<!-- Node13 -->
<g id="node13" class="node"><title>Node13</title>
<g id="a_node13"><a xlink:href="class_s_l_light.html" target="_top" xlink:title="Abstract Light class for OpenGL light sources. ">
<polygon fill="white" stroke="black" points="151,-494.5 151,-513.5 201,-513.5 201,-494.5 151,-494.5"/>
<text text-anchor="middle" x="176" y="-501.5" font-family="Arial.ttf" font-size="10.00">SLLight</text>
</a>
</g>
</g>
<!-- Node13&#45;&gt;Node7 -->
<g id="edge12" class="edge"><title>Node13&#45;&gt;Node7</title>
<path fill="none" stroke="midnightblue" d="M211.376,-504C233.519,-504 262.207,-504 284.395,-504"/>
<polygon fill="midnightblue" stroke="midnightblue" points="211.088,-500.5 201.088,-504 211.088,-507.5 211.088,-500.5"/>
</g>
<!-- Node13&#45;&gt;Node8 -->
<g id="edge13" class="edge"><title>Node13&#45;&gt;Node8</title>
<path fill="none" stroke="midnightblue" d="M210.928,-513.079C232.776,-518.926 261.133,-526.515 283.318,-532.451"/>
<polygon fill="midnightblue" stroke="midnightblue" points="211.653,-509.65 201.088,-510.446 209.844,-516.412 211.653,-509.65"/>
</g>
<!-- Node14 -->
<g id="node14" class="node"><title>Node14</title>
<g id="a_node14"><a xlink:href="class_s_l_object.html" target="_top" xlink:title="Base class for all other classes. ">
<polygon fill="white" stroke="black" points="16,-152.5 16,-171.5 74,-171.5 74,-152.5 16,-152.5"/>
<text text-anchor="middle" x="45" y="-159.5" font-family="Arial.ttf" font-size="10.00">SLObject</text>
</a>
</g>
</g>
<!-- Node14&#45;&gt;Node3 -->
<g id="edge33" class="edge"><title>Node14&#45;&gt;Node3</title>
<path fill="none" stroke="midnightblue" d="M55.7279,-180.626C81.4734,-229.922 150.732,-362.534 169.978,-399.384"/>
<polygon fill="midnightblue" stroke="midnightblue" points="58.7887,-178.926 51.057,-171.683 52.584,-182.167 58.7887,-178.926"/>
</g>
<!-- Node15 -->
<g id="node15" class="node"><title>Node15</title>
<g id="a_node15"><a xlink:href="class_s_l_g_l_program.html" target="_top" xlink:title="Encapsulation of an OpenGL shader program object. ">
<polygon fill="white" stroke="black" points="136,-114.5 136,-133.5 216,-133.5 216,-114.5 136,-114.5"/>
<text text-anchor="middle" x="176" y="-121.5" font-family="Arial.ttf" font-size="10.00">SLGLProgram</text>
</a>
</g>
</g>
<!-- Node14&#45;&gt;Node15 -->
<g id="edge14" class="edge"><title>Node14&#45;&gt;Node15</title>
<path fill="none" stroke="midnightblue" d="M83.9693,-150.815C102.615,-145.323 124.843,-138.775 142.666,-133.525"/>
<polygon fill="midnightblue" stroke="midnightblue" points="82.9131,-147.478 74.3096,-153.661 84.8911,-154.192 82.9131,-147.478"/>
</g>
<!-- Node17 -->
<g id="node17" class="node"><title>Node17</title>
<g id="a_node17"><a xlink:href="class_s_l_g_l_shader.html" target="_top" xlink:title="Encapsulation of an OpenGL shader object. ">
<polygon fill="white" stroke="black" points="139,-228.5 139,-247.5 213,-247.5 213,-228.5 139,-228.5"/>
<text text-anchor="middle" x="176" y="-235.5" font-family="Arial.ttf" font-size="10.00">SLGLShader</text>
</a>
</g>
</g>
<!-- Node14&#45;&gt;Node17 -->
<g id="edge16" class="edge"><title>Node14&#45;&gt;Node17</title>
<path fill="none" stroke="midnightblue" d="M65.4891,-177.991C81.1553,-190.313 104.089,-207.186 126,-219 132.505,-222.507 139.799,-225.697 146.732,-228.42"/>
<polygon fill="midnightblue" stroke="midnightblue" points="67.5827,-175.184 57.5859,-171.674 63.2125,-180.652 67.5827,-175.184"/>
</g>
<!-- Node18 -->
<g id="node18" class="node"><title>Node18</title>
<g id="a_node18"><a xlink:href="class_s_l_g_l_texture.html" target="_top" xlink:title="Texture object for OpenGL texturing. ">
<polygon fill="white" stroke="black" points="138,-190.5 138,-209.5 214,-209.5 214,-190.5 138,-190.5"/>
<text text-anchor="middle" x="176" y="-197.5" font-family="Arial.ttf" font-size="10.00">SLGLTexture</text>
</a>
</g>
</g>
<!-- Node14&#45;&gt;Node18 -->
<g id="edge17" class="edge"><title>Node14&#45;&gt;Node18</title>
<path fill="none" stroke="midnightblue" d="M83.9693,-173.185C102.615,-178.677 124.843,-185.225 142.666,-190.475"/>
<polygon fill="midnightblue" stroke="midnightblue" points="84.8911,-169.808 74.3096,-170.339 82.9131,-176.522 84.8911,-169.808"/>
</g>
<!-- Node20 -->
<g id="node20" class="node"><title>Node20</title>
<g id="a_node20"><a xlink:href="class_s_l_image.html" target="_top" xlink:title="Small image class for loading JPG, PNG, BMP, TGA and saving PNG files. ">
<polygon fill="white" stroke="black" points="147.5,-76.5 147.5,-95.5 204.5,-95.5 204.5,-76.5 147.5,-76.5"/>
<text text-anchor="middle" x="176" y="-83.5" font-family="Arial.ttf" font-size="10.00">SLImage</text>
</a>
</g>
</g>
<!-- Node14&#45;&gt;Node20 -->
<g id="edge20" class="edge"><title>Node14&#45;&gt;Node20</title>
<path fill="none" stroke="midnightblue" d="M65.4891,-146.009C81.1553,-133.687 104.089,-116.814 126,-105 132.666,-101.406 140.16,-98.1453 147.245,-95.3795"/>
<polygon fill="midnightblue" stroke="midnightblue" points="63.2125,-143.348 57.5859,-152.326 67.5827,-148.816 63.2125,-143.348"/>
</g>
<!-- Node21 -->
<g id="node21" class="node"><title>Node21</title>
<g id="a_node21"><a xlink:href="class_s_l_material.html" target="_top" xlink:title="Defines a standard CG material with textures and a shader program. ">
<polygon fill="white" stroke="black" points="144,-38.5 144,-57.5 208,-57.5 208,-38.5 144,-38.5"/>
<text text-anchor="middle" x="176" y="-45.5" font-family="Arial.ttf" font-size="10.00">SLMaterial</text>
</a>
</g>
</g>
<!-- Node14&#45;&gt;Node21 -->
<g id="edge21" class="edge"><title>Node14&#45;&gt;Node21</title>
<path fill="none" stroke="midnightblue" d="M57.3542,-143.595C71.2133,-122.487 96.4853,-88.0889 126,-67 131.419,-63.1278 137.732,-59.919 143.989,-57.3101"/>
<polygon fill="midnightblue" stroke="midnightblue" points="54.2511,-141.951 51.8153,-152.262 60.1495,-145.72 54.2511,-141.951"/>
</g>
<!-- Node22 -->
<g id="node22" class="node"><title>Node22</title>
<g id="a_node22"><a xlink:href="class_s_l_mesh.html" target="_top" xlink:title="An SLMesh object is a triangulated mesh that is drawn with one draw call. ">
<polygon fill="white" stroke="black" points="149.5,-152.5 149.5,-171.5 202.5,-171.5 202.5,-152.5 149.5,-152.5"/>
<text text-anchor="middle" x="176" y="-159.5" font-family="Arial.ttf" font-size="10.00">SLMesh</text>
</a>
</g>
</g>
<!-- Node14&#45;&gt;Node22 -->
<g id="edge22" class="edge"><title>Node14&#45;&gt;Node22</title>
<path fill="none" stroke="midnightblue" d="M84.5067,-162C105.476,-162 130.847,-162 149.382,-162"/>
<polygon fill="midnightblue" stroke="midnightblue" points="84.3096,-158.5 74.3096,-162 84.3096,-165.5 84.3096,-158.5"/>
</g>
<!-- Node33 -->
<g id="node33" class="node"><title>Node33</title>
<g id="a_node33"><a xlink:href="class_s_l_scene.html" target="_top" xlink:title="The SLScene class represents the top level instance holding the scene structure. ">
<polygon fill="white" stroke="black" points="147.5,-0.5 147.5,-19.5 204.5,-19.5 204.5,-0.5 147.5,-0.5"/>
<text text-anchor="middle" x="176" y="-7.5" font-family="Arial.ttf" font-size="10.00">SLScene</text>
</a>
</g>
</g>
<!-- Node14&#45;&gt;Node33 -->
<g id="edge34" class="edge"><title>Node14&#45;&gt;Node33</title>
<path fill="none" stroke="midnightblue" d="M52.9879,-142.477C64.1737,-113.822 88.7072,-60.3851 126,-29 132.143,-23.83 139.853,-19.9692 147.326,-17.1285"/>
<polygon fill="midnightblue" stroke="midnightblue" points="49.5952,-141.556 49.3556,-152.148 56.1482,-144.017 49.5952,-141.556"/>
</g>
<!-- Node34 -->
<g id="node34" class="node"><title>Node34</title>
<g id="a_node34"><a xlink:href="class_s_l_scene_view.html" target="_top" xlink:title="SceneView class represents a dynamic real time 3D view onto the scene. ">
<polygon fill="white" stroke="black" points="136.5,-266.5 136.5,-285.5 215.5,-285.5 215.5,-266.5 136.5,-266.5"/>
<text text-anchor="middle" x="176" y="-273.5" font-family="Arial.ttf" font-size="10.00">SLSceneView</text>
</a>
</g>
</g>
<!-- Node14&#45;&gt;Node34 -->
<g id="edge35" class="edge"><title>Node14&#45;&gt;Node34</title>
<path fill="none" stroke="midnightblue" d="M57.3542,-180.405C71.2133,-201.513 96.4853,-235.911 126,-257 131.271,-260.766 137.387,-263.905 143.474,-266.474"/>
<polygon fill="midnightblue" stroke="midnightblue" points="60.1495,-178.28 51.8153,-171.738 54.2511,-182.049 60.1495,-178.28"/>
</g>
<!-- Node16 -->
<g id="node16" class="node"><title>Node16</title>
<g id="a_node16"><a xlink:href="class_s_l_g_l_generic_program.html" target="_top" xlink:title="Generic Shader Program class inherited from SLGLProgram. ">
<polygon fill="white" stroke="black" points="262.5,-0.5 262.5,-19.5 377.5,-19.5 377.5,-0.5 262.5,-0.5"/>
<text text-anchor="middle" x="320" y="-7.5" font-family="Arial.ttf" font-size="10.00">SLGLGenericProgram</text>
</a>
</g>
</g>
<!-- Node15&#45;&gt;Node16 -->
<g id="edge15" class="edge"><title>Node15&#45;&gt;Node16</title>
<path fill="none" stroke="midnightblue" d="M220.566,-109.332C222.491,-108.006 224.317,-106.565 226,-105 253.369,-79.5462 234.026,-53.7875 262,-29 266.372,-25.126 271.559,-22.0376 276.995,-19.5767"/>
<polygon fill="midnightblue" stroke="midnightblue" points="218.577,-106.438 211.633,-114.441 222.052,-112.515 218.577,-106.438"/>
</g>
<!-- Node18&#45;&gt;Node11 -->
<g id="edge18" class="edge"><title>Node18&#45;&gt;Node11</title>
<path fill="none" stroke="midnightblue" d="M217.197,-213.858C220.262,-215.431 223.235,-217.144 226,-219 245.316,-231.966 242.377,-244.503 262,-257 268.599,-261.203 276.223,-264.573 283.706,-267.239"/>
<polygon fill="midnightblue" stroke="midnightblue" points="218.389,-210.554 207.841,-209.556 215.464,-216.913 218.389,-210.554"/>
</g>
<!-- Node19 -->
<g id="node19" class="node"><title>Node19</title>
<g id="a_node19"><a xlink:href="class_s_l_tex_font.html" target="_top" xlink:title="Texture Font class inherits SLGLTexture for alpha blended font rendering. ">
<polygon fill="white" stroke="black" points="287.5,-228.5 287.5,-247.5 352.5,-247.5 352.5,-228.5 287.5,-228.5"/>
<text text-anchor="middle" x="320" y="-235.5" font-family="Arial.ttf" font-size="10.00">SLTexFont</text>
</a>
</g>
</g>
<!-- Node18&#45;&gt;Node19 -->
<g id="edge19" class="edge"><title>Node18&#45;&gt;Node19</title>
<path fill="none" stroke="midnightblue" d="M222.53,-212.184C243.559,-217.812 268.024,-224.359 287.055,-229.451"/>
<polygon fill="midnightblue" stroke="midnightblue" points="223.397,-208.793 212.833,-209.589 221.588,-215.555 223.397,-208.793"/>
</g>
<!-- Node23 -->
<g id="node23" class="node"><title>Node23</title>
<g id="a_node23"><a xlink:href="class_s_l_box.html" target="_top" xlink:title="Axis aligned box mesh. ">
<polygon fill="white" stroke="black" points="297,-114.5 297,-133.5 343,-133.5 343,-114.5 297,-114.5"/>
<text text-anchor="middle" x="320" y="-121.5" font-family="Arial.ttf" font-size="10.00">SLBox</text>
</a>
</g>
</g>
<!-- Node22&#45;&gt;Node23 -->
<g id="edge23" class="edge"><title>Node22&#45;&gt;Node23</title>
<path fill="none" stroke="midnightblue" d="M212.717,-152.442C239.117,-145.377 274.244,-135.977 296.744,-129.956"/>
<polygon fill="midnightblue" stroke="midnightblue" points="211.47,-149.152 202.715,-155.118 213.28,-155.914 211.47,-149.152"/>
</g>
<!-- Node24 -->
<g id="node24" class="node"><title>Node24</title>
<g id="a_node24"><a xlink:href="class_s_l_grid.html" target="_top" xlink:title="SLGrid creates a rectangular grid with lines with a certain resolution. ">
<polygon fill="white" stroke="black" points="296,-76.5 296,-95.5 344,-95.5 344,-76.5 296,-76.5"/>
<text text-anchor="middle" x="320" y="-83.5" font-family="Arial.ttf" font-size="10.00">SLGrid</text>
</a>
</g>
</g>
<!-- Node22&#45;&gt;Node24 -->
<g id="edge24" class="edge"><title>Node22&#45;&gt;Node24</title>
<path fill="none" stroke="midnightblue" d="M212.051,-150.622C216.913,-148.419 221.707,-145.882 226,-143 245.316,-130.034 242.377,-117.497 262,-105 272.294,-98.4441 285.085,-93.912 295.94,-90.9233"/>
<polygon fill="midnightblue" stroke="midnightblue" points="210.649,-147.414 202.73,-154.452 213.309,-153.889 210.649,-147.414"/>
</g>
<!-- Node25 -->
<g id="node25" class="node"><title>Node25</title>
<g id="a_node25"><a xlink:href="class_s_l_polygon.html" target="_top" xlink:title="SLPolygon creates a convex polyon mesh. ">
<polygon fill="white" stroke="black" points="287.5,-38.5 287.5,-57.5 352.5,-57.5 352.5,-38.5 287.5,-38.5"/>
<text text-anchor="middle" x="320" y="-45.5" font-family="Arial.ttf" font-size="10.00">SLPolygon</text>
</a>
</g>
</g>
<!-- Node22&#45;&gt;Node25 -->
<g id="edge25" class="edge"><title>Node22&#45;&gt;Node25</title>
<path fill="none" stroke="midnightblue" d="M211.98,-152.274C217.069,-149.816 221.95,-146.767 226,-143 253.369,-117.546 234.026,-91.7875 262,-67 269.104,-60.7047 278.36,-56.4842 287.341,-53.6588"/>
<polygon fill="midnightblue" stroke="midnightblue" points="210.636,-149.043 202.726,-156.092 213.305,-155.514 210.636,-149.043"/>
</g>
<!-- Node26 -->
<g id="node26" class="node"><title>Node26</title>
<g id="a_node26"><a xlink:href="class_s_l_rectangle.html" target="_top" xlink:title="SLRectangle creates a rectangular mesh with a certain resolution. ">
<polygon fill="white" stroke="black" points="283,-190.5 283,-209.5 357,-209.5 357,-190.5 283,-190.5"/>
<text text-anchor="middle" x="320" y="-197.5" font-family="Arial.ttf" font-size="10.00">SLRectangle</text>
</a>
</g>
</g>
<!-- Node22&#45;&gt;Node26 -->
<g id="edge26" class="edge"><title>Node22&#45;&gt;Node26</title>
<path fill="none" stroke="midnightblue" d="M212.498,-171.5C234.126,-177.287 261.671,-184.658 283.329,-190.454"/>
<polygon fill="midnightblue" stroke="midnightblue" points="213.28,-168.086 202.715,-168.882 211.47,-174.848 213.28,-168.086"/>
</g>
<!-- Node27 -->
<g id="node27" class="node"><title>Node27</title>
<g id="a_node27"><a xlink:href="class_s_l_revolver.html" target="_top" xlink:title="SLRevolver is an SLMesh object built out of revolving points. ">
<polygon fill="white" stroke="black" points="286,-152.5 286,-171.5 354,-171.5 354,-152.5 286,-152.5"/>
<text text-anchor="middle" x="320" y="-159.5" font-family="Arial.ttf" font-size="10.00">SLRevolver</text>
</a>
</g>
</g>
<!-- Node22&#45;&gt;Node27 -->
<g id="edge27" class="edge"><title>Node22&#45;&gt;Node27</title>
<path fill="none" stroke="midnightblue" d="M212.863,-162C235.326,-162 264.062,-162 285.968,-162"/>
<polygon fill="midnightblue" stroke="midnightblue" points="212.715,-158.5 202.715,-162 212.715,-165.5 212.715,-158.5"/>
</g>
<!-- Node28 -->
<g id="node28" class="node"><title>Node28</title>
<g id="a_node28"><a xlink:href="class_s_l_cone.html" target="_top" xlink:title="SLCone creates a cone mesh based on SLRevolver. ">
<polygon fill="white" stroke="black" points="425.5,-114.5 425.5,-133.5 478.5,-133.5 478.5,-114.5 425.5,-114.5"/>
<text text-anchor="middle" x="452" y="-121.5" font-family="Arial.ttf" font-size="10.00">SLCone</text>
</a>
</g>
</g>
<!-- Node27&#45;&gt;Node28 -->
<g id="edge28" class="edge"><title>Node27&#45;&gt;Node28</title>
<path fill="none" stroke="midnightblue" d="M363.487,-149.581C383.845,-143.63 407.565,-136.696 425.17,-131.55"/>
<polygon fill="midnightblue" stroke="midnightblue" points="362.421,-146.246 353.804,-152.411 364.385,-152.965 362.421,-146.246"/>
</g>
<!-- Node29 -->
<g id="node29" class="node"><title>Node29</title>
<g id="a_node29"><a xlink:href="class_s_l_cylinder.html" target="_top" xlink:title="SLCylinder is creates sphere mesh based on its SLRevolver methods. ">
<polygon fill="white" stroke="black" points="419.5,-76.5 419.5,-95.5 484.5,-95.5 484.5,-76.5 419.5,-76.5"/>
<text text-anchor="middle" x="452" y="-83.5" font-family="Arial.ttf" font-size="10.00">SLCylinder</text>
</a>
</g>
</g>
<!-- Node27&#45;&gt;Node29 -->
<g id="edge29" class="edge"><title>Node27&#45;&gt;Node29</title>
<path fill="none" stroke="midnightblue" d="M363.79,-150.33C368.752,-148.231 373.604,-145.8 378,-143 397.623,-130.503 395.387,-118.957 414,-105 418.622,-101.534 423.968,-98.3792 429.135,-95.679"/>
<polygon fill="midnightblue" stroke="midnightblue" points="362.311,-147.147 354.203,-153.967 364.794,-153.692 362.311,-147.147"/>
</g>
<!-- Node30 -->
<g id="node30" class="node"><title>Node30</title>
<g id="a_node30"><a xlink:href="class_s_l_lens.html" target="_top" xlink:title="SLLens creates a lens mesh based on SLRevolver. ">
<polygon fill="white" stroke="black" points="427,-228.5 427,-247.5 477,-247.5 477,-228.5 427,-228.5"/>
<text text-anchor="middle" x="452" y="-235.5" font-family="Arial.ttf" font-size="10.00">SLLens</text>
</a>
</g>
</g>
<!-- Node27&#45;&gt;Node30 -->
<g id="edge30" class="edge"><title>Node27&#45;&gt;Node30</title>
<path fill="none" stroke="midnightblue" d="M363.79,-173.67C368.752,-175.769 373.604,-178.2 378,-181 397.623,-193.497 395.387,-205.043 414,-219 418.622,-222.466 423.968,-225.621 429.135,-228.321"/>
<polygon fill="midnightblue" stroke="midnightblue" points="364.794,-170.308 354.203,-170.033 362.311,-176.853 364.794,-170.308"/>
</g>
<!-- Node31 -->
<g id="node31" class="node"><title>Node31</title>
<g id="a_node31"><a xlink:href="class_s_l_sphere.html" target="_top" xlink:title="SLSphere creates a sphere mesh based on SLRevolver. ">
<polygon fill="white" stroke="black" points="421.5,-190.5 421.5,-209.5 482.5,-209.5 482.5,-190.5 421.5,-190.5"/>
<text text-anchor="middle" x="452" y="-197.5" font-family="Arial.ttf" font-size="10.00">SLSphere</text>
</a>
</g>
</g>
<!-- Node27&#45;&gt;Node31 -->
<g id="edge31" class="edge"><title>Node27&#45;&gt;Node31</title>
<path fill="none" stroke="midnightblue" d="M363.657,-174.469C382.525,-179.984 404.253,-186.336 421.318,-191.324"/>
<polygon fill="midnightblue" stroke="midnightblue" points="364.385,-171.035 353.804,-171.589 362.421,-177.754 364.385,-171.035"/>
</g>
<!-- Node32 -->
<g id="node32" class="node"><title>Node32</title>
<g id="a_node32"><a xlink:href="class_s_l_volume.html" target="_top" xlink:title="SLSphere creates a sphere mesh based on SLRevolver. ">
<polygon fill="white" stroke="black" points="420.5,-152.5 420.5,-171.5 483.5,-171.5 483.5,-152.5 420.5,-152.5"/>
<text text-anchor="middle" x="452" y="-159.5" font-family="Arial.ttf" font-size="10.00">SLVolume</text>
</a>
</g>
</g>
<!-- Node27&#45;&gt;Node32 -->
<g id="edge32" class="edge"><title>Node27&#45;&gt;Node32</title>
<path fill="none" stroke="midnightblue" d="M364.277,-162C382.571,-162 403.46,-162 420.152,-162"/>
<polygon fill="midnightblue" stroke="midnightblue" points="364.141,-158.5 354.141,-162 364.141,-165.5 364.141,-158.5"/>
</g>
</g>
</svg>
