<?xml version="1.0" encoding="UTF-8" standalone="no"?>
<!DOCTYPE svg PUBLIC "-//W3C//DTD SVG 1.1//EN"
 "http://www.w3.org/Graphics/SVG/1.1/DTD/svg11.dtd">
<!-- Generated by graphviz version 2.40.1 (20161225.0304)
 -->
<!-- Title: stdafx.h Pages: 1 -->
<svg width="2673pt" height="308pt"
 viewBox="0.00 0.00 2673.00 308.00" xmlns="http://www.w3.org/2000/svg" xmlns:xlink="http://www.w3.org/1999/xlink">
<g id="graph0" class="graph" transform="scale(1 1) rotate(0) translate(4 304)">
<title>stdafx.h</title>
<polygon fill="#ffffff" stroke="transparent" points="-4,4 -4,-304 2669,-304 2669,4 -4,4"/>
<!-- Node1 -->
<g id="node1" class="node">
<title>Node1</title>
<g id="a_node1"><a xlink:title=" ">
<polygon fill="#bfbfbf" stroke="#000000" points="1062,-280.5 1062,-299.5 1114,-299.5 1114,-280.5 1062,-280.5"/>
<text text-anchor="middle" x="1088" y="-287.5" font-family="Arial.ttf" font-size="10.00" fill="#000000">stdafx.h</text>
</a>
</g>
</g>
<!-- Node2 -->
<g id="node2" class="node">
<title>Node2</title>
<g id="a_node2"><a xlink:title=" ">
<polygon fill="#ffffff" stroke="#bfbfbf" points="0,-224.5 0,-243.5 58,-243.5 58,-224.5 0,-224.5"/>
<text text-anchor="middle" x="29" y="-231.5" font-family="Arial.ttf" font-size="10.00" fill="#000000">algorithm</text>
</a>
</g>
</g>
<!-- Node1&#45;&gt;Node2 -->
<g id="edge1" class="edge">
<title>Node1&#45;&gt;Node2</title>
<path fill="none" stroke="#191970" d="M1061.6668,-289.5707C924.2295,-287.2167 287.5287,-274.89 68.4425,-243.8677"/>
<polygon fill="#191970" stroke="#191970" points="68.7328,-240.3727 58.3292,-242.3763 67.7115,-247.2978 68.7328,-240.3727"/>
</g>
<!-- Node3 -->
<g id="node3" class="node">
<title>Node3</title>
<g id="a_node3"><a xlink:title=" ">
<polygon fill="#ffffff" stroke="#bfbfbf" points="76,-224.5 76,-243.5 122,-243.5 122,-224.5 76,-224.5"/>
<text text-anchor="middle" x="99" y="-231.5" font-family="Arial.ttf" font-size="10.00" fill="#000000">atomic</text>
</a>
</g>
</g>
<!-- Node1&#45;&gt;Node3 -->
<g id="edge2" class="edge">
<title>Node1&#45;&gt;Node3</title>
<path fill="none" stroke="#191970" d="M1061.985,-289.6446C930.4808,-287.7144 337.4583,-277.3794 132.3027,-243.7414"/>
<polygon fill="#191970" stroke="#191970" points="132.6958,-240.2578 122.2482,-242.0178 131.513,-247.1571 132.6958,-240.2578"/>
</g>
<!-- Node4 -->
<g id="node4" class="node">
<title>Node4</title>
<g id="a_node4"><a xlink:title=" ">
<polygon fill="#ffffff" stroke="#bfbfbf" points="140.5,-224.5 140.5,-243.5 187.5,-243.5 187.5,-224.5 140.5,-224.5"/>
<text text-anchor="middle" x="164" y="-231.5" font-family="Arial.ttf" font-size="10.00" fill="#000000">chrono</text>
</a>
</g>
</g>
<!-- Node1&#45;&gt;Node4 -->
<g id="edge3" class="edge">
<title>Node1&#45;&gt;Node4</title>
<path fill="none" stroke="#191970" d="M1061.6563,-289.5335C935.123,-287.1594 388.3726,-275.3483 197.4998,-243.8135"/>
<polygon fill="#191970" stroke="#191970" points="198.0506,-240.3569 187.6004,-242.1018 196.8578,-247.2545 198.0506,-240.3569"/>
</g>
<!-- Node5 -->
<g id="node5" class="node">
<title>Node5</title>
<g id="a_node5"><a xlink:title=" ">
<polygon fill="#ffffff" stroke="#bfbfbf" points="205.5,-224.5 205.5,-243.5 254.5,-243.5 254.5,-224.5 205.5,-224.5"/>
<text text-anchor="middle" x="230" y="-231.5" font-family="Arial.ttf" font-size="10.00" fill="#000000">cstdarg</text>
</a>
</g>
</g>
<!-- Node1&#45;&gt;Node5 -->
<g id="edge4" class="edge">
<title>Node1&#45;&gt;Node5</title>
<path fill="none" stroke="#191970" d="M1061.6652,-289.3458C941.3255,-286.2338 442.355,-271.9725 264.7042,-243.6534"/>
<polygon fill="#191970" stroke="#191970" points="265.1664,-240.1822 254.7266,-241.9882 264.014,-247.0867 265.1664,-240.1822"/>
</g>
<!-- Node6 -->
<g id="node6" class="node">
<title>Node6</title>
<g id="a_node6"><a xlink:title=" ">
<polygon fill="#ffffff" stroke="#bfbfbf" points="273,-224.5 273,-243.5 313,-243.5 313,-224.5 273,-224.5"/>
<text text-anchor="middle" x="293" y="-231.5" font-family="Arial.ttf" font-size="10.00" fill="#000000">ctime</text>
</a>
</g>
</g>
<!-- Node1&#45;&gt;Node6 -->
<g id="edge5" class="edge">
<title>Node1&#45;&gt;Node6</title>
<path fill="none" stroke="#191970" d="M1061.7559,-289.2089C945.091,-285.5702 472.8611,-269.5207 327,-244 325.7386,-243.7793 324.4576,-243.5284 323.1685,-243.2536"/>
<polygon fill="#191970" stroke="#191970" points="323.8699,-239.8213 313.3191,-240.7865 322.169,-246.6115 323.8699,-239.8213"/>
</g>
<!-- Node7 -->
<g id="node7" class="node">
<title>Node7</title>
<g id="a_node7"><a xlink:title=" ">
<polygon fill="#ffffff" stroke="#bfbfbf" points="357,-.5 357,-19.5 407,-19.5 407,-.5 357,-.5"/>
<text text-anchor="middle" x="382" y="-7.5" font-family="Arial.ttf" font-size="10.00" fill="#000000">fstream</text>
</a>
</g>
</g>
<!-- Node1&#45;&gt;Node7 -->
<g id="edge6" class="edge">
<title>Node1&#45;&gt;Node7</title>
<path fill="none" stroke="#191970" d="M1061.9691,-289.4476C943.4825,-286.775 458.303,-274.0653 398,-244 363.3135,-226.7063 341,-216.7585 341,-178 341,-178 341,-178 341,-122 341,-87.3444 358.5245,-50.1312 370.6592,-28.5174"/>
<polygon fill="#191970" stroke="#191970" points="373.7581,-30.1511 375.773,-19.7496 367.7114,-26.6243 373.7581,-30.1511"/>
</g>
<!-- Node8 -->
<g id="node8" class="node">
<title>Node8</title>
<g id="a_node8"><a xlink:title=" ">
<polygon fill="#ffffff" stroke="#bfbfbf" points="653.5,-56.5 653.5,-75.5 712.5,-75.5 712.5,-56.5 653.5,-56.5"/>
<text text-anchor="middle" x="683" y="-63.5" font-family="Arial.ttf" font-size="10.00" fill="#000000">functional</text>
</a>
</g>
</g>
<!-- Node1&#45;&gt;Node8 -->
<g id="edge7" class="edge">
<title>Node1&#45;&gt;Node8</title>
<path fill="none" stroke="#191970" d="M1061.9378,-288.0725C986.1307,-282.251 769.5253,-264.0146 745,-244 696.061,-204.0619 685.6742,-123.1493 683.5253,-85.7612"/>
<polygon fill="#191970" stroke="#191970" points="687.0169,-85.4888 683.0894,-75.6489 680.0234,-85.7904 687.0169,-85.4888"/>
</g>
<!-- Node9 -->
<g id="node9" class="node">
<title>Node9</title>
<g id="a_node9"><a xlink:title=" ">
<polygon fill="#ffffff" stroke="#bfbfbf" points="821,-224.5 821,-243.5 873,-243.5 873,-224.5 821,-224.5"/>
<text text-anchor="middle" x="847" y="-231.5" font-family="Arial.ttf" font-size="10.00" fill="#000000">iomanip</text>
</a>
</g>
</g>
<!-- Node1&#45;&gt;Node9 -->
<g id="edge8" class="edge">
<title>Node1&#45;&gt;Node9</title>
<path fill="none" stroke="#191970" d="M1061.6883,-284.5379C1022.5791,-276.3193 946.8583,-260.0231 883,-244 882.9017,-243.9753 882.8032,-243.9506 882.7047,-243.9258"/>
<polygon fill="#191970" stroke="#191970" points="883.8655,-240.6116 873.3056,-241.4713 882.0968,-247.3845 883.8655,-240.6116"/>
</g>
<!-- Node10 -->
<g id="node10" class="node">
<title>Node10</title>
<g id="a_node10"><a xlink:title=" ">
<polygon fill="#ffffff" stroke="#bfbfbf" points="891.5,-224.5 891.5,-243.5 946.5,-243.5 946.5,-224.5 891.5,-224.5"/>
<text text-anchor="middle" x="919" y="-231.5" font-family="Arial.ttf" font-size="10.00" fill="#000000">iostream</text>
</a>
</g>
</g>
<!-- Node1&#45;&gt;Node10 -->
<g id="edge9" class="edge">
<title>Node1&#45;&gt;Node10</title>
<path fill="none" stroke="#191970" d="M1061.9641,-281.3727C1033.8086,-272.0431 988.6674,-257.0851 956.6488,-246.4753"/>
<polygon fill="#191970" stroke="#191970" points="957.3457,-243.0192 946.7524,-243.1961 955.1439,-249.6639 957.3457,-243.0192"/>
</g>
<!-- Node11 -->
<g id="node11" class="node">
<title>Node11</title>
<g id="a_node11"><a xlink:title=" ">
<polygon fill="#ffffff" stroke="#bfbfbf" points="964.5,-224.5 964.5,-243.5 993.5,-243.5 993.5,-224.5 964.5,-224.5"/>
<text text-anchor="middle" x="979" y="-231.5" font-family="Arial.ttf" font-size="10.00" fill="#000000">list</text>
</a>
</g>
</g>
<!-- Node1&#45;&gt;Node11 -->
<g id="edge10" class="edge">
<title>Node1&#45;&gt;Node11</title>
<path fill="none" stroke="#191970" d="M1069.0136,-280.2455C1050.5628,-270.7662 1022.4933,-256.3452 1002.6115,-246.1307"/>
<polygon fill="#191970" stroke="#191970" points="1004.0814,-242.951 993.5871,-241.4943 1000.8825,-249.1773 1004.0814,-242.951"/>
</g>
<!-- Node12 -->
<g id="node12" class="node">
<title>Node12</title>
<g id="a_node12"><a xlink:title=" ">
<polygon fill="#ffffff" stroke="#bfbfbf" points="1012,-224.5 1012,-243.5 1048,-243.5 1048,-224.5 1012,-224.5"/>
<text text-anchor="middle" x="1030" y="-231.5" font-family="Arial.ttf" font-size="10.00" fill="#000000">map</text>
</a>
</g>
</g>
<!-- Node1&#45;&gt;Node12 -->
<g id="edge11" class="edge">
<title>Node1&#45;&gt;Node12</title>
<path fill="none" stroke="#191970" d="M1077.8972,-280.2455C1069.4972,-272.1352 1057.3506,-260.4075 1047.3916,-250.7919"/>
<polygon fill="#191970" stroke="#191970" points="1049.6122,-248.0707 1039.9871,-243.6427 1044.75,-253.1066 1049.6122,-248.0707"/>
</g>
<!-- Node13 -->
<g id="node13" class="node">
<title>Node13</title>
<g id="a_node13"><a xlink:title=" ">
<polygon fill="#ffffff" stroke="#bfbfbf" points="1066,-224.5 1066,-243.5 1110,-243.5 1110,-224.5 1066,-224.5"/>
<text text-anchor="middle" x="1088" y="-231.5" font-family="Arial.ttf" font-size="10.00" fill="#000000">queue</text>
</a>
</g>
</g>
<!-- Node1&#45;&gt;Node13 -->
<g id="edge12" class="edge">
<title>Node1&#45;&gt;Node13</title>
<path fill="none" stroke="#191970" d="M1088,-280.2455C1088,-272.9382 1088,-262.6944 1088,-253.7046"/>
<polygon fill="#191970" stroke="#191970" points="1091.5001,-253.6426 1088,-243.6427 1084.5001,-253.6427 1091.5001,-253.6426"/>
</g>
<!-- Node14 -->
<g id="node14" class="node">
<title>Node14</title>
<g id="a_node14"><a xlink:title=" ">
<polygon fill="#ffffff" stroke="#bfbfbf" points="1128,-224.5 1128,-243.5 1178,-243.5 1178,-224.5 1128,-224.5"/>
<text text-anchor="middle" x="1153" y="-231.5" font-family="Arial.ttf" font-size="10.00" fill="#000000">random</text>
</a>
</g>
</g>
<!-- Node1&#45;&gt;Node14 -->
<g id="edge13" class="edge">
<title>Node1&#45;&gt;Node14</title>
<path fill="none" stroke="#191970" d="M1099.3221,-280.2455C1108.9223,-271.9746 1122.8892,-259.9416 1134.1695,-250.2232"/>
<polygon fill="#191970" stroke="#191970" points="1136.516,-252.8214 1141.8076,-243.6427 1131.947,-247.5182 1136.516,-252.8214"/>
</g>
<!-- Node15 -->
<g id="node15" class="node">
<title>Node15</title>
<g id="a_node15"><a xlink:title=" ">
<polygon fill="#ffffff" stroke="#bfbfbf" points="1196,-224.5 1196,-243.5 1248,-243.5 1248,-224.5 1196,-224.5"/>
<text text-anchor="middle" x="1222" y="-231.5" font-family="Arial.ttf" font-size="10.00" fill="#000000">sstream</text>
</a>
</g>
</g>
<!-- Node1&#45;&gt;Node15 -->
<g id="edge14" class="edge">
<title>Node1&#45;&gt;Node15</title>
<path fill="none" stroke="#191970" d="M1111.0354,-280.3733C1132.7388,-271.3032 1165.4618,-257.6279 1189.755,-247.4755"/>
<polygon fill="#191970" stroke="#191970" points="1191.3881,-250.5865 1199.2652,-243.5011 1188.6889,-244.1278 1191.3881,-250.5865"/>
</g>
<!-- Node16 -->
<g id="node16" class="node">
<title>Node16</title>
<g id="a_node16"><a xlink:title=" ">
<polygon fill="#ffffff" stroke="#bfbfbf" points="571.5,-.5 571.5,-19.5 612.5,-19.5 612.5,-.5 571.5,-.5"/>
<text text-anchor="middle" x="592" y="-7.5" font-family="Arial.ttf" font-size="10.00" fill="#000000">string</text>
</a>
</g>
</g>
<!-- Node1&#45;&gt;Node16 -->
<g id="edge15" class="edge">
<title>Node1&#45;&gt;Node16</title>
<path fill="none" stroke="#191970" d="M1061.9,-287.5592C996.2139,-281.1545 828.1314,-263.0425 812,-244 757.3085,-179.4388 896.1468,-121.0187 842,-56 814.4259,-22.8893 683.4547,-13.5266 622.872,-10.9478"/>
<polygon fill="#191970" stroke="#191970" points="622.8874,-7.4458 612.7584,-10.553 622.6143,-14.4405 622.8874,-7.4458"/>
</g>
<!-- Node17 -->
<g id="node17" class="node">
<title>Node17</title>
<g id="a_node17"><a xlink:title=" ">
<polygon fill="#ffffff" stroke="#bfbfbf" points="1266.5,-224.5 1266.5,-243.5 1311.5,-243.5 1311.5,-224.5 1266.5,-224.5"/>
<text text-anchor="middle" x="1289" y="-231.5" font-family="Arial.ttf" font-size="10.00" fill="#000000">thread</text>
</a>
</g>
</g>
<!-- Node1&#45;&gt;Node17 -->
<g id="edge16" class="edge">
<title>Node1&#45;&gt;Node17</title>
<path fill="none" stroke="#191970" d="M1114.1408,-283.2069C1145.6025,-274.9612 1200.2518,-260.4172 1256.527,-244.0619"/>
<polygon fill="#191970" stroke="#191970" points="1257.6881,-247.3691 1266.3059,-241.2061 1255.7257,-240.6498 1257.6881,-247.3691"/>
</g>
<!-- Node18 -->
<g id="node18" class="node">
<title>Node18</title>
<g id="a_node18"><a xlink:title=" ">
<polygon fill="#ffffff" stroke="#bfbfbf" points="1330,-224.5 1330,-243.5 1382,-243.5 1382,-224.5 1330,-224.5"/>
<text text-anchor="middle" x="1356" y="-231.5" font-family="Arial.ttf" font-size="10.00" fill="#000000">typeinfo</text>
</a>
</g>
</g>
<!-- Node1&#45;&gt;Node18 -->
<g id="edge17" class="edge">
<title>Node1&#45;&gt;Node18</title>
<path fill="none" stroke="#191970" d="M1114.0128,-285.5952C1155.5405,-278.4066 1239.5451,-263.2247 1319.9096,-244.1207"/>
<polygon fill="#191970" stroke="#191970" points="1320.783,-247.5106 1329.689,-241.7718 1319.1481,-240.7041 1320.783,-247.5106"/>
</g>
<!-- Node19 -->
<g id="node19" class="node">
<title>Node19</title>
<g id="a_node19"><a xlink:title=" ">
<polygon fill="#ffffff" stroke="#bfbfbf" points="731,-56.5 731,-75.5 775,-75.5 775,-56.5 731,-56.5"/>
<text text-anchor="middle" x="753" y="-63.5" font-family="Arial.ttf" font-size="10.00" fill="#000000">vector</text>
</a>
</g>
</g>
<!-- Node1&#45;&gt;Node19 -->
<g id="edge18" class="edge">
<title>Node1&#45;&gt;Node19</title>
<path fill="none" stroke="#191970" d="M1061.7613,-288.1404C988.1232,-282.6687 783.5536,-265.6415 763,-244 722.0492,-200.8817 736.9323,-122.2275 746.9087,-85.6616"/>
<polygon fill="#191970" stroke="#191970" points="750.359,-86.3298 749.7801,-75.7508 743.6355,-84.3818 750.359,-86.3298"/>
</g>
<!-- Node20 -->
<g id="node20" class="node">
<title>Node20</title>
<g id="a_node20"><a xlink:title=" ">
<polygon fill="#ffffff" stroke="#bfbfbf" points="466.5,-.5 466.5,-19.5 519.5,-19.5 519.5,-.5 466.5,-.5"/>
<text text-anchor="middle" x="493" y="-7.5" font-family="Arial.ttf" font-size="10.00" fill="#000000">memory</text>
</a>
</g>
</g>
<!-- Node1&#45;&gt;Node20 -->
<g id="edge19" class="edge">
<title>Node1&#45;&gt;Node20</title>
<path fill="none" stroke="#191970" d="M1061.9506,-288.8909C966.9666,-284.6808 639.4881,-268.6688 538,-244 463.652,-225.9282 379,-254.5129 379,-178 379,-178 379,-178 379,-122 379,-91.4754 378.3336,-79.345 398,-56 413.0489,-38.1362 436.6636,-26.6575 456.5833,-19.6342"/>
<polygon fill="#191970" stroke="#191970" points="457.8925,-22.8883 466.3041,-16.4466 455.7113,-16.2368 457.8925,-22.8883"/>
</g>
<!-- Node21 -->
<g id="node21" class="node">
<title>Node21</title>
<g id="a_node21"><a xlink:title=" ">
<polygon fill="#ffffff" stroke="#bfbfbf" points="1400.5,-224.5 1400.5,-243.5 1449.5,-243.5 1449.5,-224.5 1400.5,-224.5"/>
<text text-anchor="middle" x="1425" y="-231.5" font-family="Arial.ttf" font-size="10.00" fill="#000000">cassert</text>
</a>
</g>
</g>
<!-- Node1&#45;&gt;Node21 -->
<g id="edge20" class="edge">
<title>Node1&#45;&gt;Node21</title>
<path fill="none" stroke="#191970" d="M1114.1594,-287.2377C1165.3264,-281.5777 1282.34,-267.3712 1390.1507,-243.9322"/>
<polygon fill="#191970" stroke="#191970" points="1391.208,-247.2832 1400.2185,-241.71 1389.6992,-240.4477 1391.208,-247.2832"/>
</g>
<!-- Node22 -->
<g id="node22" class="node">
<title>Node22</title>
<g id="a_node22"><a xlink:title=" ">
<polygon fill="#ffffff" stroke="#bfbfbf" points="793,-56.5 793,-75.5 833,-75.5 833,-56.5 793,-56.5"/>
<text text-anchor="middle" x="813" y="-63.5" font-family="Arial.ttf" font-size="10.00" fill="#000000">cfloat</text>
</a>
</g>
</g>
<!-- Node1&#45;&gt;Node22 -->
<g id="edge21" class="edge">
<title>Node1&#45;&gt;Node22</title>
<path fill="none" stroke="#191970" d="M1061.94,-288.0482C990.8207,-282.4592 797.4603,-265.4119 779,-244 739.3782,-198.0431 778.7557,-120.3014 800.5873,-84.7523"/>
<polygon fill="#191970" stroke="#191970" points="803.7979,-86.225 806.1995,-75.9059 797.8871,-82.4751 803.7979,-86.225"/>
</g>
<!-- Node23 -->
<g id="node23" class="node">
<title>Node23</title>
<g id="a_node23"><a xlink:title=" ">
<polygon fill="#ffffff" stroke="#bfbfbf" points="1468,-224.5 1468,-243.5 1512,-243.5 1512,-224.5 1468,-224.5"/>
<text text-anchor="middle" x="1490" y="-231.5" font-family="Arial.ttf" font-size="10.00" fill="#000000">climits</text>
</a>
</g>
</g>
<!-- Node1&#45;&gt;Node23 -->
<g id="edge22" class="edge">
<title>Node1&#45;&gt;Node23</title>
<path fill="none" stroke="#191970" d="M1114.3773,-288.4442C1174.0641,-284.5618 1324.0604,-272.7714 1457.7805,-243.9182"/>
<polygon fill="#191970" stroke="#191970" points="1458.7712,-247.2841 1467.7873,-241.7199 1457.2692,-240.4472 1458.7712,-247.2841"/>
</g>
<!-- Node24 -->
<g id="node24" class="node">
<title>Node24</title>
<g id="a_node24"><a xlink:title=" ">
<polygon fill="#ffffff" stroke="#bfbfbf" points="1530,-224.5 1530,-243.5 1574,-243.5 1574,-224.5 1530,-224.5"/>
<text text-anchor="middle" x="1552" y="-231.5" font-family="Arial.ttf" font-size="10.00" fill="#000000">cmath</text>
</a>
</g>
</g>
<!-- Node1&#45;&gt;Node24 -->
<g id="edge23" class="edge">
<title>Node1&#45;&gt;Node24</title>
<path fill="none" stroke="#191970" d="M1114.1598,-289.0979C1180.6328,-286.411 1361.4077,-276.6359 1519.8747,-243.8571"/>
<polygon fill="#191970" stroke="#191970" points="1520.7334,-247.2532 1529.7977,-241.7678 1519.2911,-240.4033 1520.7334,-247.2532"/>
</g>
<!-- Node25 -->
<g id="node25" class="node">
<title>Node25</title>
<g id="a_node25"><a xlink:title=" ">
<polygon fill="#ffffff" stroke="#bfbfbf" points="1592.5,-224.5 1592.5,-243.5 1635.5,-243.5 1635.5,-224.5 1592.5,-224.5"/>
<text text-anchor="middle" x="1614" y="-231.5" font-family="Arial.ttf" font-size="10.00" fill="#000000">cstdio</text>
</a>
</g>
</g>
<!-- Node1&#45;&gt;Node25 -->
<g id="edge24" class="edge">
<title>Node1&#45;&gt;Node25</title>
<path fill="none" stroke="#191970" d="M1114.0598,-289.5837C1186.8869,-287.9997 1398.6739,-280.5219 1582.6346,-243.6178"/>
<polygon fill="#191970" stroke="#191970" points="1583.3832,-247.0372 1592.4815,-241.6084 1581.9836,-240.1785 1583.3832,-247.0372"/>
</g>
<!-- Node26 -->
<g id="node26" class="node">
<title>Node26</title>
<g id="a_node26"><a xlink:title=" ">
<polygon fill="#ffffff" stroke="#bfbfbf" points="1653.5,-224.5 1653.5,-243.5 1698.5,-243.5 1698.5,-224.5 1653.5,-224.5"/>
<text text-anchor="middle" x="1676" y="-231.5" font-family="Arial.ttf" font-size="10.00" fill="#000000">cstdlib</text>
</a>
</g>
</g>
<!-- Node1&#45;&gt;Node26 -->
<g id="edge25" class="edge">
<title>Node1&#45;&gt;Node26</title>
<path fill="none" stroke="#191970" d="M1114.3193,-288.6301C1207.5787,-283.6547 1522.7279,-265.7768 1643.4244,-243.8552"/>
<polygon fill="#191970" stroke="#191970" points="1644.3101,-247.2492 1653.4719,-241.9284 1642.9916,-240.3745 1644.3101,-247.2492"/>
</g>
<!-- Node27 -->
<g id="node27" class="node">
<title>Node27</title>
<g id="a_node27"><a xlink:title=" ">
<polygon fill="#ffffff" stroke="#bfbfbf" points="1717,-224.5 1717,-243.5 1763,-243.5 1763,-224.5 1717,-224.5"/>
<text text-anchor="middle" x="1740" y="-231.5" font-family="Arial.ttf" font-size="10.00" fill="#000000">cstring</text>
</a>
</g>
</g>
<!-- Node1&#45;&gt;Node27 -->
<g id="edge26" class="edge">
<title>Node1&#45;&gt;Node27</title>
<path fill="none" stroke="#191970" d="M1114.0652,-288.8622C1213.8629,-284.386 1572.3856,-267.1753 1706.7056,-243.7859"/>
<polygon fill="#191970" stroke="#191970" points="1707.5342,-247.1924 1716.7385,-241.9454 1706.2711,-240.3073 1707.5342,-247.1924"/>
</g>
<!-- Node28 -->
<g id="node28" class="node">
<title>Node28</title>
<g id="a_node28"><a xlink:href="_s_l_8h.html" target="_top" xlink:title=" ">
<polygon fill="#ffffff" stroke="#000000" points="606.5,-168.5 606.5,-187.5 643.5,-187.5 643.5,-168.5 606.5,-168.5"/>
<text text-anchor="middle" x="625" y="-175.5" font-family="Arial.ttf" font-size="10.00" fill="#000000">SL.h</text>
</a>
</g>
</g>
<!-- Node1&#45;&gt;Node28 -->
<g id="edge27" class="edge">
<title>Node1&#45;&gt;Node28</title>
<path fill="none" stroke="#191970" d="M1061.8067,-288.4977C974.7261,-283.3196 698.5284,-265.355 665,-244 648.1052,-233.2393 637.3014,-212.5383 631.2364,-197.1767"/>
<polygon fill="#191970" stroke="#191970" points="634.4618,-195.8031 627.778,-187.5826 627.8766,-198.177 634.4618,-195.8031"/>
</g>
<!-- Node32 -->
<g id="node32" class="node">
<title>Node32</title>
<g id="a_node32"><a xlink:href="_s_l_enums_8h.html" target="_top" xlink:title=" ">
<polygon fill="#ffffff" stroke="#000000" points="1781,-224.5 1781,-243.5 1849,-243.5 1849,-224.5 1781,-224.5"/>
<text text-anchor="middle" x="1815" y="-231.5" font-family="Arial.ttf" font-size="10.00" fill="#000000">SLEnums.h</text>
</a>
</g>
</g>
<!-- Node1&#45;&gt;Node32 -->
<g id="edge40" class="edge">
<title>Node1&#45;&gt;Node32</title>
<path fill="none" stroke="#191970" d="M1114.2554,-289.7551C1204.4301,-288.5955 1509.8346,-282.0338 1770.7844,-243.9558"/>
<polygon fill="#191970" stroke="#191970" points="1771.4474,-247.3959 1780.8281,-242.4712 1770.4237,-240.4711 1771.4474,-247.3959"/>
</g>
<!-- Node33 -->
<g id="node33" class="node">
<title>Node33</title>
<g id="a_node33"><a xlink:href="_s_l_object_8h.html" target="_top" xlink:title=" ">
<polygon fill="#ffffff" stroke="#000000" points="547,-224.5 547,-243.5 613,-243.5 613,-224.5 547,-224.5"/>
<text text-anchor="middle" x="580" y="-231.5" font-family="Arial.ttf" font-size="10.00" fill="#000000">SLObject.h</text>
</a>
</g>
</g>
<!-- Node1&#45;&gt;Node33 -->
<g id="edge41" class="edge">
<title>Node1&#45;&gt;Node33</title>
<path fill="none" stroke="#191970" d="M1061.8785,-288.4062C991.3894,-283.887 791.5102,-269.6289 627,-244 625.7249,-243.8014 624.4323,-243.5902 623.129,-243.3688"/>
<polygon fill="#191970" stroke="#191970" points="623.5085,-239.8798 613.0394,-241.5074 622.2384,-246.7636 623.5085,-239.8798"/>
</g>
<!-- Node34 -->
<g id="node34" class="node">
<title>Node34</title>
<g id="a_node34"><a xlink:title=" ">
<polygon fill="#ffffff" stroke="#bfbfbf" points="1867,-224.5 1867,-243.5 1985,-243.5 1985,-224.5 1867,-224.5"/>
<text text-anchor="middle" x="1926" y="-231.5" font-family="Arial.ttf" font-size="10.00" fill="#000000">opencv2/core/core.hpp</text>
</a>
</g>
</g>
<!-- Node1&#45;&gt;Node34 -->
<g id="edge43" class="edge">
<title>Node1&#45;&gt;Node34</title>
<path fill="none" stroke="#191970" d="M1114.3265,-289.2516C1211.499,-286.3164 1559.3325,-274.2797 1856.5909,-244.065"/>
<polygon fill="#191970" stroke="#191970" points="1857.1089,-247.5304 1866.6997,-243.0284 1856.3948,-240.5669 1857.1089,-247.5304"/>
</g>
<!-- Node35 -->
<g id="node35" class="node">
<title>Node35</title>
<g id="a_node35"><a xlink:title=" ">
<polygon fill="#ffffff" stroke="#bfbfbf" points="2003,-224.5 2003,-243.5 2125,-243.5 2125,-224.5 2003,-224.5"/>
<text text-anchor="middle" x="2064" y="-231.5" font-family="Arial.ttf" font-size="10.00" fill="#000000">opencv2/core/utility.hpp</text>
</a>
</g>
</g>
<!-- Node1&#45;&gt;Node35 -->
<g id="edge44" class="edge">
<title>Node1&#45;&gt;Node35</title>
<path fill="none" stroke="#191970" d="M1114.0096,-289.5467C1221.1209,-287.4986 1638.7097,-277.7353 1992.7633,-244.0333"/>
<polygon fill="#191970" stroke="#191970" points="1993.3362,-247.4945 2002.9559,-243.0547 1992.6672,-240.5265 1993.3362,-247.4945"/>
</g>
<!-- Node36 -->
<g id="node36" class="node">
<title>Node36</title>
<g id="a_node36"><a xlink:title=" ">
<polygon fill="#ffffff" stroke="#bfbfbf" points="2143.5,-224.5 2143.5,-243.5 2252.5,-243.5 2252.5,-224.5 2143.5,-224.5"/>
<text text-anchor="middle" x="2198" y="-231.5" font-family="Arial.ttf" font-size="10.00" fill="#000000">opencv2/highgui.hpp</text>
</a>
</g>
</g>
<!-- Node1&#45;&gt;Node36 -->
<g id="edge45" class="edge">
<title>Node1&#45;&gt;Node36</title>
<path fill="none" stroke="#191970" d="M1114.0002,-289.2492C1252.659,-285.1861 1906.8931,-265.2627 2133.1147,-243.9495"/>
<polygon fill="#191970" stroke="#191970" points="2133.624,-247.4166 2143.2386,-242.9659 2132.947,-240.4494 2133.624,-247.4166"/>
</g>
<!-- Node37 -->
<g id="node37" class="node">
<title>Node37</title>
<g id="a_node37"><a xlink:title=" ">
<polygon fill="#ffffff" stroke="#bfbfbf" points="2271,-224.5 2271,-243.5 2383,-243.5 2383,-224.5 2271,-224.5"/>
<text text-anchor="middle" x="2327" y="-231.5" font-family="Arial.ttf" font-size="10.00" fill="#000000">opencv2/imgproc.hpp</text>
</a>
</g>
</g>
<!-- Node1&#45;&gt;Node37 -->
<g id="edge46" class="edge">
<title>Node1&#45;&gt;Node37</title>
<path fill="none" stroke="#191970" d="M1114.1496,-289.3799C1263.2081,-285.785 2007.5036,-267.0102 2260.4465,-244.0232"/>
<polygon fill="#191970" stroke="#191970" points="2261.0488,-247.4822 2270.6788,-243.0649 2260.396,-240.5127 2261.0488,-247.4822"/>
</g>
<!-- Node38 -->
<g id="node38" class="node">
<title>Node38</title>
<g id="a_node38"><a xlink:title=" ">
<polygon fill="#ffffff" stroke="#bfbfbf" points="2401,-224.5 2401,-243.5 2509,-243.5 2509,-224.5 2401,-224.5"/>
<text text-anchor="middle" x="2455" y="-231.5" font-family="Arial.ttf" font-size="10.00" fill="#000000">opencv2/calib3d.hpp</text>
</a>
</g>
</g>
<!-- Node1&#45;&gt;Node38 -->
<g id="edge47" class="edge">
<title>Node1&#45;&gt;Node38</title>
<path fill="none" stroke="#191970" d="M1114.1122,-289.5147C1272.8097,-286.5001 2110.0697,-269.654 2390.6143,-243.9961"/>
<polygon fill="#191970" stroke="#191970" points="2391.13,-247.4631 2400.7577,-243.0408 2390.4736,-240.4939 2391.13,-247.4631"/>
</g>
<!-- Node39 -->
<g id="node39" class="node">
<title>Node39</title>
<g id="a_node39"><a xlink:title=" ">
<polygon fill="#ffffff" stroke="#bfbfbf" points="2527,-224.5 2527,-243.5 2665,-243.5 2665,-224.5 2527,-224.5"/>
<text text-anchor="middle" x="2596" y="-231.5" font-family="Arial.ttf" font-size="10.00" fill="#000000">opencv2/video/tracking.hpp</text>
</a>
</g>
</g>
<!-- Node1&#45;&gt;Node39 -->
<g id="edge48" class="edge">
<title>Node1&#45;&gt;Node39</title>
<path fill="none" stroke="#191970" d="M1114.1127,-289.5011C1281.7084,-286.2482 2208.6986,-267.4809 2516.468,-244.032"/>
<polygon fill="#191970" stroke="#191970" points="2517.0164,-247.4999 2526.7133,-243.2312 2516.4709,-240.5211 2517.0164,-247.4999"/>
</g>
<!-- Node29 -->
<g id="node29" class="node">
<title>Node29</title>
<g id="a_node29"><a xlink:href="_utils_8h.html" target="_top" xlink:title=" ">
<polygon fill="#ffffff" stroke="#000000" points="603,-112.5 603,-131.5 647,-131.5 647,-112.5 603,-112.5"/>
<text text-anchor="middle" x="625" y="-119.5" font-family="Arial.ttf" font-size="10.00" fill="#000000">Utils.h</text>
</a>
</g>
</g>
<!-- Node28&#45;&gt;Node29 -->
<g id="edge28" class="edge">
<title>Node28&#45;&gt;Node29</title>
<path fill="none" stroke="#191970" d="M625,-168.2455C625,-160.9382 625,-150.6944 625,-141.7046"/>
<polygon fill="#191970" stroke="#191970" points="628.5001,-141.6426 625,-131.6427 621.5001,-141.6427 628.5001,-141.6426"/>
</g>
<!-- Node29&#45;&gt;Node8 -->
<g id="edge39" class="edge">
<title>Node29&#45;&gt;Node8</title>
<path fill="none" stroke="#191970" d="M635.1028,-112.2455C643.5028,-104.1352 655.6494,-92.4075 665.6084,-82.7919"/>
<polygon fill="#191970" stroke="#191970" points="668.25,-85.1066 673.0129,-75.6427 663.3878,-80.0707 668.25,-85.1066"/>
</g>
<!-- Node29&#45;&gt;Node16 -->
<g id="edge29" class="edge">
<title>Node29&#45;&gt;Node16</title>
<path fill="none" stroke="#191970" d="M622.2137,-112.1465C618.551,-99.2346 611.8904,-75.8935 606,-56 603.3963,-47.2065 600.4491,-37.489 597.9326,-29.2598"/>
<polygon fill="#191970" stroke="#191970" points="601.218,-28.0351 594.9378,-19.5021 594.526,-30.089 601.218,-28.0351"/>
</g>
<!-- Node29&#45;&gt;Node19 -->
<g id="edge30" class="edge">
<title>Node29&#45;&gt;Node19</title>
<path fill="none" stroke="#191970" d="M647.004,-112.3733C667.6435,-103.3435 698.7158,-89.7494 721.8889,-79.6111"/>
<polygon fill="#191970" stroke="#191970" points="723.5245,-82.7159 731.2831,-75.5011 720.7187,-76.3028 723.5245,-82.7159"/>
</g>
<!-- Node29&#45;&gt;Node20 -->
<g id="edge32" class="edge">
<title>Node29&#45;&gt;Node20</title>
<path fill="none" stroke="#191970" d="M602.5556,-118.8113C577.0206,-114.004 535.7899,-102.4632 512,-76 500.6779,-63.4057 496.0706,-44.4705 494.2123,-30.1072"/>
<polygon fill="#191970" stroke="#191970" points="497.6614,-29.4028 493.2355,-19.7767 490.6925,-30.0618 497.6614,-29.4028"/>
</g>
<!-- Node29&#45;&gt;Node22 -->
<g id="edge31" class="edge">
<title>Node29&#45;&gt;Node22</title>
<path fill="none" stroke="#191970" d="M647.2272,-115.951C676.3187,-107.9521 729.0903,-93.1634 783.0369,-76.202"/>
<polygon fill="#191970" stroke="#191970" points="784.2839,-79.4785 792.7618,-73.1244 782.1718,-72.8048 784.2839,-79.4785"/>
</g>
<!-- Node30 -->
<g id="node30" class="node">
<title>Node30</title>
<g id="a_node30"><a xlink:href="_file_log_8h.html" target="_top" xlink:title=" ">
<polygon fill="#ffffff" stroke="#000000" points="407,-56.5 407,-75.5 465,-75.5 465,-56.5 407,-56.5"/>
<text text-anchor="middle" x="436" y="-63.5" font-family="Arial.ttf" font-size="10.00" fill="#000000">FileLog.h</text>
</a>
</g>
</g>
<!-- Node29&#45;&gt;Node30 -->
<g id="edge33" class="edge">
<title>Node29&#45;&gt;Node30</title>
<path fill="none" stroke="#191970" d="M602.9494,-115.4665C571.5744,-106.1702 513.5714,-88.9841 474.8804,-77.5201"/>
<polygon fill="#191970" stroke="#191970" points="475.5857,-74.0787 465.0034,-74.5936 473.597,-80.7903 475.5857,-74.0787"/>
</g>
<!-- Node31 -->
<g id="node31" class="node">
<title>Node31</title>
<g id="a_node31"><a xlink:href="_custom_log_8h.html" target="_top" xlink:title=" ">
<polygon fill="#ffffff" stroke="#000000" points="521,-56.5 521,-75.5 597,-75.5 597,-56.5 521,-56.5"/>
<text text-anchor="middle" x="559" y="-63.5" font-family="Arial.ttf" font-size="10.00" fill="#000000">CustomLog.h</text>
</a>
</g>
</g>
<!-- Node29&#45;&gt;Node31 -->
<g id="edge36" class="edge">
<title>Node29&#45;&gt;Node31</title>
<path fill="none" stroke="#191970" d="M613.5037,-112.2455C603.7558,-103.9746 589.5741,-91.9416 578.1202,-82.2232"/>
<polygon fill="#191970" stroke="#191970" points="580.2541,-79.4437 570.3646,-75.6427 575.7253,-84.7813 580.2541,-79.4437"/>
</g>
<!-- Node30&#45;&gt;Node7 -->
<g id="edge35" class="edge">
<title>Node30&#45;&gt;Node7</title>
<path fill="none" stroke="#191970" d="M426.5939,-56.2455C418.8507,-48.2155 407.688,-36.6394 398.4682,-27.0781"/>
<polygon fill="#191970" stroke="#191970" points="400.7591,-24.4117 391.2983,-19.6427 395.7202,-29.2706 400.7591,-24.4117"/>
</g>
<!-- Node30&#45;&gt;Node16 -->
<g id="edge34" class="edge">
<title>Node30&#45;&gt;Node16</title>
<path fill="none" stroke="#191970" d="M462.8174,-56.3733C490.4034,-46.4706 533.2817,-31.0784 561.9839,-20.775"/>
<polygon fill="#191970" stroke="#191970" points="563.2673,-24.033 571.4967,-17.3601 560.9022,-17.4447 563.2673,-24.033"/>
</g>
<!-- Node31&#45;&gt;Node16 -->
<g id="edge38" class="edge">
<title>Node31&#45;&gt;Node16</title>
<path fill="none" stroke="#191970" d="M564.7482,-56.2455C569.2435,-48.617 575.6248,-37.7881 581.0825,-28.5267"/>
<polygon fill="#191970" stroke="#191970" points="584.2561,-30.035 586.3177,-19.6427 578.2253,-26.4811 584.2561,-30.035"/>
</g>
<!-- Node31&#45;&gt;Node20 -->
<g id="edge37" class="edge">
<title>Node31&#45;&gt;Node20</title>
<path fill="none" stroke="#191970" d="M547.5037,-56.2455C537.7558,-47.9746 523.5741,-35.9416 512.1202,-26.2232"/>
<polygon fill="#191970" stroke="#191970" points="514.2541,-23.4437 504.3646,-19.6427 509.7253,-28.7813 514.2541,-23.4437"/>
</g>
<!-- Node33&#45;&gt;Node28 -->
<g id="edge42" class="edge">
<title>Node33&#45;&gt;Node28</title>
<path fill="none" stroke="#191970" d="M587.8384,-224.2455C594.162,-216.3761 603.2224,-205.101 610.8136,-195.6542"/>
<polygon fill="#191970" stroke="#191970" points="613.7158,-197.6302 617.2514,-187.6427 608.2592,-193.2454 613.7158,-197.6302"/>
</g>
</g>
</svg>
