<?xml version="1.0" encoding="UTF-8" standalone="no"?>
<!DOCTYPE svg PUBLIC "-//W3C//DTD SVG 1.1//EN"
 "http://www.w3.org/Graphics/SVG/1.1/DTD/svg11.dtd">
<!-- Generated by graphviz version 2.36.0 (20140111.2315)
 -->
<!-- Title: tagBMP_INFOHEADER Pages: 1 -->
<svg width="130pt" height="176pt"
 viewBox="0.00 0.00 130.00 176.00" xmlns="http://www.w3.org/2000/svg" xmlns:xlink="http://www.w3.org/1999/xlink">
<g id="graph0" class="graph" transform="scale(1 1) rotate(0) translate(4 172)">
<title>tagBMP_INFOHEADER</title>
<polygon fill="white" stroke="none" points="-4,4 -4,-172 126,-172 126,4 -4,4"/>
<!-- Node1 -->
<g id="node1" class="node"><title>Node1</title>
<polygon fill="#bfbfbf" stroke="black" points="-0.5,-0.5 -0.5,-167.5 122.5,-167.5 122.5,-0.5 -0.5,-0.5"/>
<text text-anchor="middle" x="61" y="-155.5" font-family="Arial.ttf" font-size="10.00">tagBMP_INFOHEADER</text>
<polyline fill="none" stroke="black" points="-0.5,-148.5 122.5,-148.5 "/>
<text text-anchor="start" x="7.5" y="-136.5" font-family="Arial.ttf" font-size="10.00">+ biSize</text>
<text text-anchor="start" x="7.5" y="-125.5" font-family="Arial.ttf" font-size="10.00">+ biWidth</text>
<text text-anchor="start" x="7.5" y="-114.5" font-family="Arial.ttf" font-size="10.00">+ biHeight</text>
<text text-anchor="start" x="7.5" y="-103.5" font-family="Arial.ttf" font-size="10.00">+ biPlanes</text>
<text text-anchor="start" x="7.5" y="-92.5" font-family="Arial.ttf" font-size="10.00">+ biBitCount</text>
<text text-anchor="start" x="7.5" y="-81.5" font-family="Arial.ttf" font-size="10.00">+ biCompression</text>
<text text-anchor="start" x="7.5" y="-70.5" font-family="Arial.ttf" font-size="10.00">+ biSizeImage</text>
<text text-anchor="start" x="7.5" y="-59.5" font-family="Arial.ttf" font-size="10.00">+ biXPelsPerMeter</text>
<text text-anchor="start" x="7.5" y="-48.5" font-family="Arial.ttf" font-size="10.00">+ biYPelsPerMeter</text>
<text text-anchor="start" x="7.5" y="-37.5" font-family="Arial.ttf" font-size="10.00">+ biClrUsed</text>
<text text-anchor="start" x="7.5" y="-26.5" font-family="Arial.ttf" font-size="10.00">+ biClrImportant</text>
<polyline fill="none" stroke="black" points="-0.5,-19.5 122.5,-19.5 "/>
<text text-anchor="middle" x="61" y="-7.5" font-family="Arial.ttf" font-size="10.00"> </text>
</g>
</g>
</svg>
